<?xml version="1.0" encoding="UTF-8" ?>
<!DOCTYPE svg PUBLIC "-//W3C//DTD SVG 1.1//EN" "http://www.w3.org/Graphics/SVG/1.1/DTD/svg11.dtd">
<svg width="541pt" height="398pt" viewBox="0 0 541 398" version="1.1" xmlns="http://www.w3.org/2000/svg">
<g id="#4997c5ff">
<path fill="#4997c5" opacity="1.00" d=" M 0.00 0.00 L 541.00 0.00 L 541.00 398.00 L 0.00 398.00 L 0.00 0.00 M 232.04 117.79 C 236.84 115.81 241.60 113.31 246.90 113.08 C 257.10 112.36 267.88 115.41 275.52 122.39 C 280.57 126.78 281.54 135.20 277.46 140.51 C 274.83 144.04 270.07 144.91 265.94 144.58 C 260.75 144.26 256.03 141.84 251.66 139.21 C 244.20 135.04 235.56 131.90 226.91 133.46 C 222.99 134.07 219.33 136.95 218.42 140.90 C 216.15 159.37 227.83 178.27 245.14 184.91 C 255.03 189.50 266.58 188.44 276.44 184.34 C 265.69 185.22 253.85 183.86 245.50 176.39 C 240.21 172.26 238.46 164.36 241.54 158.41 C 243.89 153.98 249.30 152.46 253.99 152.89 C 259.57 153.32 264.68 155.86 269.42 158.66 C 275.81 162.19 283.17 164.40 290.52 163.81 C 295.58 163.36 300.49 159.76 301.50 154.62 C 303.37 140.93 297.58 126.72 287.24 117.69 C 279.25 110.75 268.65 106.39 257.96 107.14 C 248.38 107.44 239.22 111.54 232.04 117.79 M 284.29 179.05 C 282.71 179.29 283.19 181.78 284.78 181.01 C 286.34 180.76 285.87 178.27 284.29 179.05 M 279.37 181.96 C 278.44 181.93 276.60 183.59 278.17 184.10 C 279.85 184.86 282.20 181.53 279.37 181.96 M 92.64 205.57 C 85.66 211.17 83.54 222.05 88.40 229.66 C 91.49 235.02 97.37 237.57 102.61 240.31 C 106.68 242.51 111.03 246.01 111.22 251.03 C 111.38 254.32 110.50 258.67 106.94 259.83 C 104.35 261.15 102.21 258.77 100.20 257.51 C 101.75 257.65 103.30 257.87 104.86 257.83 C 107.68 256.43 108.57 252.73 107.84 249.88 C 106.90 246.48 103.44 244.46 100.12 244.00 C 93.16 242.51 85.06 247.68 84.48 255.00 C 84.39 261.55 89.13 267.51 95.07 269.91 C 101.72 272.50 109.06 271.84 115.98 270.98 C 125.17 269.85 134.42 262.73 135.03 253.00 C 135.59 244.82 129.60 238.06 123.16 233.88 C 118.96 230.80 113.21 229.06 111.01 223.91 C 109.34 220.43 111.05 215.50 114.96 214.51 C 118.69 213.27 122.11 215.30 124.19 218.30 C 122.04 217.55 119.53 215.87 117.36 217.53 C 114.00 219.81 115.13 224.86 117.80 227.22 C 120.53 230.10 125.01 229.48 128.31 228.06 C 131.35 226.63 132.54 223.15 133.01 220.06 C 133.73 214.89 132.67 208.98 128.66 205.33 C 125.33 202.08 120.56 201.06 116.11 200.43 C 108.07 199.48 99.11 200.21 92.64 205.57 M 330.10 207.06 C 324.34 212.84 323.02 222.66 327.39 229.62 C 330.37 234.76 335.93 237.38 341.00 239.99 C 345.31 242.19 349.95 245.73 350.24 250.98 C 350.38 254.53 349.31 259.54 345.06 260.07 C 342.84 260.69 341.24 258.76 339.56 257.70 C 341.35 257.53 343.56 258.43 345.04 257.04 C 347.75 254.20 347.85 248.89 344.60 246.39 C 338.35 241.17 327.78 244.03 324.49 251.34 C 322.27 255.84 324.17 261.21 327.18 264.86 C 331.23 269.78 337.80 271.79 344.00 271.69 C 351.68 271.66 360.12 271.34 366.40 266.31 C 372.22 262.14 375.71 254.43 373.45 247.38 C 370.99 239.30 363.51 234.37 356.56 230.41 C 352.99 228.47 349.49 225.32 349.39 220.95 C 349.19 217.04 352.83 213.68 356.72 214.23 C 359.68 214.03 361.64 216.38 363.33 218.45 C 361.18 217.48 358.58 215.85 356.34 217.53 C 353.20 219.69 354.03 224.23 356.33 226.68 C 358.93 229.89 363.73 229.74 367.17 228.10 C 370.32 226.74 371.59 223.16 372.07 220.02 C 372.69 214.86 371.70 209.01 367.68 205.38 C 362.96 200.99 356.15 200.24 349.99 200.10 C 342.85 199.91 335.20 201.78 330.10 207.06 M 165.36 201.44 C 162.12 202.04 159.05 203.45 156.44 205.45 C 147.86 212.07 141.61 222.06 140.75 233.00 C 140.07 242.81 142.14 253.51 149.09 260.87 C 154.76 267.61 164.17 271.13 172.84 269.38 C 178.03 268.19 183.16 265.88 186.65 261.73 C 194.77 253.58 197.01 241.18 195.33 230.15 C 193.89 222.36 190.16 215.03 185.00 209.05 C 180.06 203.80 172.76 199.79 165.36 201.44 M 208.73 211.75 C 202.51 218.92 198.58 228.40 199.51 238.01 C 200.21 247.61 203.29 258.69 212.41 263.58 C 224.42 270.06 238.50 268.21 251.61 268.51 C 250.75 258.38 250.13 248.12 251.80 238.03 C 245.98 237.91 240.15 237.96 234.33 237.96 C 235.03 242.85 235.68 247.75 235.92 252.69 C 222.81 249.24 217.85 231.24 225.79 220.82 C 228.80 217.34 233.30 214.46 238.10 215.22 C 240.44 215.30 241.88 217.33 243.41 218.81 C 241.12 217.78 238.68 215.60 236.07 216.96 C 233.00 218.13 232.12 222.38 234.04 224.90 C 237.94 231.08 248.50 230.17 251.60 223.65 C 254.05 218.32 254.21 211.33 250.36 206.63 C 245.43 201.42 237.71 200.82 230.97 200.73 C 222.26 200.62 214.41 205.49 208.73 211.75 M 406.20 201.19 C 399.57 201.77 393.91 205.86 389.72 210.79 C 382.73 218.27 378.95 228.69 379.72 238.92 C 380.17 246.85 382.54 255.02 388.13 260.90 C 393.00 266.65 400.54 269.96 408.05 269.86 C 414.90 269.45 421.71 266.44 426.21 261.18 C 432.11 255.04 434.63 246.39 434.91 238.04 C 435.32 227.62 431.01 217.43 424.45 209.49 C 419.84 204.51 413.25 200.39 406.20 201.19 M 270.06 202.72 C 270.01 215.88 269.50 229.18 266.11 241.98 C 263.65 250.95 260.29 259.63 257.45 268.48 C 266.12 268.54 274.79 268.50 283.46 268.50 C 282.20 263.82 281.75 258.99 281.55 254.16 C 286.32 255.08 291.23 255.17 295.97 254.04 C 295.77 258.91 295.37 263.78 294.13 268.51 C 302.75 268.51 311.37 268.52 319.99 268.51 C 316.50 257.02 311.69 245.92 309.32 234.10 C 307.03 223.82 306.84 213.20 307.60 202.73 C 295.09 202.73 282.58 202.74 270.06 202.72 Z" />
<path fill="#4997c5" opacity="1.00" d=" M 166.45 218.64 C 169.47 217.40 172.65 219.22 174.16 221.87 C 179.15 229.76 179.69 240.68 174.72 248.69 C 172.61 252.50 166.77 253.54 163.76 250.25 C 158.95 244.98 158.41 237.15 159.62 230.43 C 160.66 226.00 162.54 221.28 166.45 218.64 Z" />
<path fill="#4997c5" opacity="1.00" d=" M 405.47 218.70 C 408.72 217.16 412.02 219.66 413.55 222.43 C 418.18 230.28 418.63 240.88 413.73 248.72 C 411.68 252.56 405.77 253.52 402.79 250.26 C 398.46 245.69 397.69 238.87 398.27 232.86 C 398.94 227.57 400.91 221.85 405.47 218.70 Z" />
</g>
<g id="#000000ff">
<path fill="#000000" opacity="1.00" d=" M 232.04 117.79 C 239.22 111.54 248.38 107.44 257.96 107.14 C 268.65 106.39 279.25 110.75 287.24 117.69 C 297.58 126.72 303.37 140.93 301.50 154.62 C 300.49 159.76 295.58 163.36 290.52 163.81 C 283.17 164.40 275.81 162.19 269.42 158.66 C 264.68 155.86 259.57 153.32 253.99 152.89 C 249.30 152.46 243.89 153.98 241.54 158.41 C 238.46 164.36 240.21 172.26 245.50 176.39 C 253.85 183.86 265.69 185.22 276.44 184.34 C 266.58 188.44 255.03 189.50 245.14 184.91 C 227.83 178.27 216.15 159.37 218.42 140.90 C 219.33 136.95 222.99 134.07 226.91 133.46 C 235.56 131.90 244.20 135.04 251.66 139.21 C 256.03 141.84 260.75 144.26 265.94 144.58 C 270.07 144.91 274.83 144.04 277.46 140.51 C 281.54 135.20 280.57 126.78 275.52 122.39 C 267.88 115.41 257.10 112.36 246.90 113.08 C 241.60 113.31 236.84 115.81 232.04 117.79 Z" />
</g>
<g id="#2c79a5ff">
<path fill="#2c79a5" opacity="1.00" d=" M 284.29 179.05 C 285.87 178.27 286.34 180.76 284.78 181.01 C 283.19 181.78 282.71 179.29 284.29 179.05 Z" />
</g>
<g id="#256e97ff">
<path fill="#256e97" opacity="1.00" d=" M 279.37 181.96 C 282.20 181.53 279.85 184.86 278.17 184.10 C 276.60 183.59 278.44 181.93 279.37 181.96 Z" />
</g>
<g id="#152e56ff">
<path fill="#152e56" opacity="1.00" d=" M 92.64 205.57 C 99.11 200.21 108.07 199.48 116.11 200.43 C 120.56 201.06 125.33 202.08 128.66 205.33 C 132.67 208.98 133.73 214.89 133.01 220.06 C 132.54 223.15 131.35 226.63 128.31 228.06 C 125.01 229.48 120.53 230.10 117.80 227.22 C 115.13 224.86 114.00 219.81 117.36 217.53 C 119.53 215.87 122.04 217.55 124.19 218.30 C 122.11 215.30 118.69 213.27 114.96 214.51 C 111.05 215.50 109.34 220.43 111.01 223.91 C 113.21 229.06 118.96 230.80 123.16 233.88 C 129.60 238.06 135.59 244.82 135.03 253.00 C 134.42 262.73 125.17 269.85 115.98 270.98 C 109.06 271.84 101.72 272.50 95.07 269.91 C 89.13 267.51 84.39 261.55 84.48 255.00 C 85.06 247.68 93.16 242.51 100.12 244.00 C 103.44 244.46 106.90 246.48 107.84 249.88 C 108.57 252.73 107.68 256.43 104.86 257.83 C 103.30 257.87 101.75 257.65 100.20 257.51 C 102.21 258.77 104.35 261.15 106.94 259.83 C 110.50 258.67 111.38 254.32 111.22 251.03 C 111.03 246.01 106.68 242.51 102.61 240.31 C 97.37 237.57 91.49 235.02 88.40 229.66 C 83.54 222.05 85.66 211.17 92.64 205.57 Z" />
<path fill="#152e56" opacity="1.00" d=" M 330.10 207.06 C 335.20 201.78 342.85 199.91 349.99 200.10 C 356.15 200.24 362.96 200.99 367.68 205.38 C 371.70 209.01 372.69 214.86 372.07 220.02 C 371.59 223.16 370.32 226.74 367.17 228.10 C 363.73 229.74 358.93 229.89 356.33 226.68 C 354.03 224.23 353.20 219.69 356.34 217.53 C 358.58 215.85 361.18 217.48 363.33 218.45 C 361.64 216.38 359.68 214.03 356.72 214.23 C 352.83 213.68 349.19 217.04 349.39 220.95 C 349.49 225.32 352.99 228.47 356.56 230.41 C 363.51 234.37 370.99 239.30 373.45 247.38 C 375.71 254.43 372.22 262.14 366.40 266.31 C 360.12 271.34 351.68 271.66 344.00 271.69 C 337.80 271.79 331.23 269.78 327.18 264.86 C 324.17 261.21 322.27 255.84 324.49 251.34 C 327.78 244.03 338.35 241.17 344.60 246.39 C 347.85 248.89 347.75 254.20 345.04 257.04 C 343.56 258.43 341.35 257.53 339.56 257.70 C 341.24 258.76 342.84 260.69 345.06 260.07 C 349.31 259.54 350.38 254.53 350.24 250.98 C 349.95 245.73 345.31 242.19 341.00 239.99 C 335.93 237.38 330.37 234.76 327.39 229.62 C 323.02 222.66 324.34 212.84 330.10 207.06 Z" />
<path fill="#152e56" opacity="1.00" d=" M 165.36 201.44 C 172.76 199.79 180.06 203.80 185.00 209.05 C 190.16 215.03 193.89 222.36 195.33 230.15 C 197.01 241.18 194.77 253.58 186.65 261.73 C 183.16 265.88 178.03 268.19 172.84 269.38 C 164.17 271.13 154.76 267.61 149.09 260.87 C 142.14 253.51 140.07 242.81 140.75 233.00 C 141.61 222.06 147.86 212.07 156.44 205.45 C 159.05 203.45 162.12 202.04 165.36 201.44 M 166.45 218.64 C 162.54 221.28 160.66 226.00 159.62 230.43 C 158.41 237.15 158.95 244.98 163.76 250.25 C 166.77 253.54 172.61 252.50 174.72 248.69 C 179.69 240.68 179.15 229.76 174.16 221.87 C 172.65 219.22 169.47 217.40 166.45 218.64 Z" />
<path fill="#152e56" opacity="1.00" d=" M 208.73 211.75 C 214.41 205.49 222.26 200.62 230.97 200.73 C 237.71 200.82 245.43 201.42 250.36 206.63 C 254.21 211.33 254.05 218.32 251.60 223.65 C 248.50 230.17 237.94 231.08 234.04 224.90 C 232.12 222.38 233.00 218.13 236.07 216.96 C 238.68 215.60 241.12 217.78 243.41 218.81 C 241.88 217.33 240.44 215.30 238.10 215.22 C 233.30 214.46 228.80 217.34 225.79 220.82 C 217.85 231.24 222.81 249.24 235.92 252.69 C 235.68 247.75 235.03 242.85 234.33 237.96 C 240.15 237.96 245.98 237.91 251.80 238.03 C 250.13 248.12 250.75 258.38 251.61 268.51 C 238.50 268.21 224.42 270.06 212.41 263.58 C 203.29 258.69 200.21 247.61 199.51 238.01 C 198.58 228.40 202.51 218.92 208.73 211.75 Z" />
<path fill="#152e56" opacity="1.00" d=" M 406.20 201.19 C 413.25 200.39 419.84 204.51 424.45 209.49 C 431.01 217.43 435.32 227.62 434.91 238.04 C 434.63 246.39 432.11 255.04 426.21 261.18 C 421.71 266.44 414.90 269.45 408.05 269.86 C 400.54 269.96 393.00 266.65 388.13 260.90 C 382.54 255.02 380.17 246.85 379.72 238.92 C 378.95 228.69 382.73 218.27 389.72 210.79 C 393.91 205.86 399.57 201.77 406.20 201.19 M 405.47 218.70 C 400.91 221.85 398.94 227.57 398.27 232.86 C 397.69 238.87 398.46 245.69 402.79 250.26 C 405.77 253.52 411.68 252.56 413.73 248.72 C 418.63 240.88 418.18 230.28 413.55 222.43 C 412.02 219.66 408.72 217.16 405.47 218.70 Z" />
<path fill="#152e56" opacity="1.00" d=" M 270.06 202.72 C 282.58 202.74 295.09 202.73 307.60 202.73 C 306.84 213.20 307.03 223.82 309.32 234.10 C 311.69 245.92 316.50 257.02 319.99 268.51 C 311.37 268.52 302.75 268.51 294.13 268.51 C 295.37 263.78 295.77 258.91 295.97 254.04 C 291.23 255.17 286.32 255.08 281.55 254.16 C 281.75 258.99 282.20 263.82 283.46 268.50 C 274.79 268.50 266.12 268.54 257.45 268.48 C 260.29 259.63 263.65 250.95 266.11 241.98 C 269.50 229.18 270.01 215.88 270.06 202.72 M 288.69 220.55 C 286.45 226.93 284.61 233.45 283.38 240.11 C 286.93 240.04 290.48 239.73 293.96 238.96 C 292.60 232.72 291.14 226.46 288.69 220.55 Z" />
</g>
<g id="#4997c4ff">
<path fill="#4997c4" opacity="1.00" d=" M 288.69 220.55 C 291.14 226.46 292.60 232.72 293.96 238.96 C 290.48 239.73 286.93 240.04 283.38 240.11 C 284.61 233.45 286.45 226.93 288.69 220.55 Z" />
</g>
</svg>
