<?xml version="1.0" encoding="UTF-8" ?>
<!DOCTYPE svg PUBLIC "-//W3C//DTD SVG 1.1//EN" "http://www.w3.org/Graphics/SVG/1.1/DTD/svg11.dtd">
<svg width="32pt" height="32pt" viewBox="0 0 32 32" version="1.1" xmlns="http://www.w3.org/2000/svg">
<g id="#81684bd7">
<path fill="#81684b" opacity="0.84" d=" M 11.44 3.37 C 14.90 3.12 18.56 1.34 21.93 2.81 C 21.56 4.59 21.04 6.34 20.23 7.98 L 19.35 5.88 C 19.90 8.83 18.33 11.44 17.52 14.16 C 18.55 14.12 20.61 14.03 21.64 13.99 C 21.22 12.41 20.80 10.84 20.36 9.27 C 20.89 8.56 21.42 7.85 21.95 7.15 C 23.35 15.03 26.02 22.65 27.07 30.59 C 26.06 29.48 25.13 28.30 24.20 27.12 C 23.28 27.16 21.44 27.23 20.52 27.27 C 20.45 28.10 20.33 29.77 20.27 30.61 C 17.87 27.04 17.49 22.66 16.51 18.58 C 15.45 22.02 14.73 25.55 13.64 28.98 C 12.96 29.54 12.24 30.06 11.47 30.52 C 11.54 29.63 11.67 27.87 11.73 26.99 C 10.86 27.00 9.11 27.04 8.23 27.05 C 7.31 28.35 6.29 29.58 5.05 30.59 C 6.31 21.33 10.52 12.69 11.44 3.37 M 14.55 5.07 C 14.75 5.65 15.15 6.81 15.35 7.39 C 15.79 7.32 16.68 7.16 17.12 7.08 C 17.33 6.23 17.53 5.38 17.73 4.53 C 16.93 4.67 15.35 4.94 14.55 5.07 M 12.55 9.45 C 12.18 10.77 11.82 12.10 11.46 13.43 C 12.36 13.35 14.14 13.18 15.03 13.10 C 14.74 11.98 14.45 10.85 14.15 9.73 C 13.75 9.66 12.95 9.52 12.55 9.45 M 10.76 15.47 C 10.86 16.60 11.02 17.72 11.26 18.84 C 12.07 18.47 13.67 17.74 14.47 17.37 C 14.60 16.76 14.86 15.53 14.98 14.92 C 13.57 15.07 12.16 15.25 10.76 15.47 M 16.73 16.70 C 18.82 16.96 20.92 17.10 23.02 17.13 C 21.64 14.59 18.68 15.58 16.73 16.70 M 17.50 18.09 C 18.30 21.00 21.51 19.65 23.64 19.75 C 22.25 17.66 19.60 18.31 17.50 18.09 M 9.30 21.15 C 8.93 22.60 8.56 24.05 8.20 25.50 C 9.22 25.45 11.26 25.36 12.29 25.31 C 12.65 23.89 13.00 22.47 13.35 21.05 C 12.00 21.09 10.65 21.12 9.30 21.15 M 18.73 21.49 C 19.10 22.77 19.44 24.07 19.92 25.32 C 21.40 25.53 22.89 25.69 24.38 25.79 C 24.09 24.32 23.79 22.85 23.50 21.38 C 21.91 21.41 20.32 21.45 18.73 21.49 Z" />
</g>
</svg>
