<?xml version="1.0" encoding="UTF-8" ?>
<!DOCTYPE svg PUBLIC "-//W3C//DTD SVG 1.1//EN" "http://www.w3.org/Graphics/SVG/1.1/DTD/svg11.dtd">
<svg width="512pt" height="512pt" viewBox="0 0 512 512" version="1.1" xmlns="http://www.w3.org/2000/svg">
<g id="#e9e9e9ff">
<path fill="#e9e9e9" opacity="1.00" d=" M 0.00 0.00 L 512.00 0.00 L 512.00 512.00 L 0.00 512.00 L 0.00 0.00 M 229.51 35.77 C 209.27 37.68 189.34 43.14 170.97 51.86 C 152.64 60.80 136.03 73.24 122.36 88.38 C 96.44 117.10 80.79 153.96 73.94 191.77 C 71.53 205.75 69.37 219.84 69.17 234.05 C 68.03 246.72 69.11 259.41 69.64 272.07 C 70.87 287.24 73.03 302.33 76.29 317.20 C 80.51 339.74 87.62 361.90 88.28 384.98 C 88.10 395.19 86.33 405.53 81.93 414.80 C 77.64 424.30 72.37 433.54 70.38 443.88 C 69.73 448.75 69.67 454.70 73.87 458.08 C 79.16 461.77 86.01 460.75 92.06 460.35 C 113.37 457.17 133.17 448.18 152.81 439.75 C 163.51 434.83 175.40 440.42 183.94 447.15 C 196.72 455.94 207.38 468.44 222.49 473.35 C 230.27 474.27 238.32 473.18 245.65 470.44 C 254.74 466.53 260.63 458.18 268.38 452.39 C 273.42 448.45 280.33 449.21 286.14 450.69 C 299.87 454.54 312.47 462.53 326.96 463.47 C 339.08 465.16 351.72 462.47 362.17 456.08 C 367.87 452.69 373.12 448.13 379.78 446.73 C 383.33 445.73 386.80 447.64 389.95 449.07 C 399.35 453.98 409.06 460.13 420.08 459.70 C 424.68 459.78 428.20 455.47 428.39 451.09 C 429.72 438.27 425.21 425.88 421.83 413.73 C 416.89 396.63 415.80 378.44 418.66 360.88 C 421.13 345.81 424.47 330.90 427.50 315.94 C 432.27 293.64 434.61 270.81 434.47 248.01 C 434.27 226.61 432.58 205.12 427.80 184.22 C 420.54 150.67 406.36 118.22 384.02 91.93 C 369.24 74.29 350.32 60.28 329.53 50.49 C 298.38 36.48 263.34 32.15 229.51 35.77 Z" />
<path fill="#e9e9e9" opacity="1.00" d=" M 204.58 54.28 C 225.92 48.83 248.20 47.14 270.11 49.38 C 285.19 51.50 300.28 54.69 314.23 60.97 C 332.01 68.82 348.12 80.39 361.38 94.60 C 375.68 110.60 386.79 129.32 394.80 149.19 C 404.27 173.70 409.13 199.80 410.53 225.98 C 410.71 242.66 411.26 259.41 409.67 276.05 C 407.72 307.59 400.97 338.59 397.68 369.99 C 396.90 386.54 398.44 403.59 405.37 418.83 C 407.61 424.50 411.42 430.02 410.62 436.39 C 407.06 438.19 403.25 436.50 399.81 435.31 C 393.49 433.00 388.01 428.34 381.12 427.72 C 374.66 427.85 369.01 431.43 363.71 434.75 C 355.89 439.75 347.66 444.60 338.39 446.20 C 329.93 447.47 321.27 446.27 313.17 443.67 C 302.97 440.15 293.64 434.33 283.09 431.79 C 277.88 430.85 272.13 430.68 267.47 433.60 C 258.70 438.85 251.96 447.12 242.49 451.30 C 237.06 453.98 230.95 455.15 224.93 454.96 C 216.09 453.77 208.56 448.57 201.60 443.35 C 191.50 436.24 181.83 427.86 169.83 424.14 C 163.60 422.21 156.67 422.02 150.57 424.50 C 141.61 428.17 132.92 432.45 123.91 436.00 C 116.15 438.74 108.41 442.26 100.04 442.41 C 96.51 442.50 92.47 440.84 91.57 437.09 C 90.66 431.63 92.85 426.37 94.27 421.21 C 97.11 413.59 100.42 406.04 101.54 397.92 C 103.68 386.00 102.17 373.81 99.99 362.01 C 94.83 335.36 87.78 309.02 84.90 281.97 C 82.47 258.09 81.56 233.90 84.52 210.03 C 87.15 183.02 94.57 156.38 106.98 132.21 C 120.91 106.08 141.53 83.01 167.72 68.80 C 179.25 62.27 191.66 57.26 204.58 54.28 M 161.90 182.45 C 144.13 184.97 126.11 191.23 113.32 204.32 C 105.49 212.85 100.97 224.39 101.32 236.00 C 101.45 250.20 105.41 265.10 115.41 275.61 C 124.00 285.51 137.38 289.70 150.10 290.43 C 161.03 291.29 171.74 288.54 182.40 286.58 C 190.59 285.00 198.58 282.45 206.23 279.17 C 215.66 274.64 224.99 268.37 229.72 258.71 C 235.12 248.42 235.68 236.26 233.82 224.99 C 233.27 220.38 230.76 216.32 230.09 211.76 C 240.91 210.27 251.90 209.87 262.70 211.79 C 260.32 218.95 258.40 226.37 258.56 233.98 C 258.01 245.70 262.83 257.57 271.65 265.36 C 278.94 271.69 287.82 275.71 296.53 279.67 C 307.39 283.87 318.56 287.35 329.93 289.87 C 342.33 292.67 355.97 290.75 366.61 283.60 C 381.23 274.49 389.87 257.76 391.59 240.90 C 391.98 232.27 392.10 223.33 388.80 215.18 C 384.66 201.98 373.37 192.05 360.68 187.25 C 347.03 182.50 332.45 180.49 318.02 181.22 C 303.96 181.54 289.44 184.44 277.79 192.73 C 274.81 194.73 272.58 197.60 269.84 199.88 C 264.49 199.29 259.48 196.81 254.04 196.59 C 243.41 195.09 232.90 197.88 222.98 201.43 C 214.92 192.04 204.00 185.18 191.85 182.58 C 182.02 180.36 171.80 181.09 161.90 182.45 M 202.20 330.81 C 212.82 341.63 226.65 350.06 241.87 352.05 C 254.17 352.88 267.29 351.57 278.03 345.06 C 280.17 343.08 283.87 340.72 282.40 337.37 C 275.92 338.00 269.53 339.52 262.99 339.43 C 243.17 340.22 223.57 333.58 207.05 322.90 C 203.38 320.74 201.31 315.49 196.70 315.43 C 194.74 321.19 198.21 326.88 202.20 330.81 Z" />
<path fill="#e9e9e9" opacity="1.00" d=" M 156.42 192.50 C 163.94 190.11 174.70 195.77 172.50 204.64 C 168.94 214.89 151.83 214.86 147.86 204.90 C 145.74 199.19 151.14 193.67 156.42 192.50 Z" />
<path fill="#e9e9e9" opacity="1.00" d=" M 304.47 192.62 C 310.85 190.65 319.63 193.77 320.81 200.96 C 322.08 208.08 314.28 212.82 307.99 212.33 C 302.45 212.31 295.58 208.30 296.14 202.03 C 295.92 197.34 300.31 193.78 304.47 192.62 Z" />
</g>
<g id="#2543c3ff">
<path fill="#2543c3" opacity="1.00" d=" M 229.51 35.77 C 263.34 32.15 298.38 36.48 329.53 50.49 C 350.32 60.28 369.24 74.29 384.02 91.93 C 406.36 118.22 420.54 150.67 427.80 184.22 C 432.58 205.12 434.27 226.61 434.47 248.01 C 434.61 270.81 432.27 293.64 427.50 315.94 C 424.47 330.90 421.13 345.81 418.66 360.88 C 415.80 378.44 416.89 396.63 421.83 413.73 C 425.21 425.88 429.72 438.27 428.39 451.09 C 428.20 455.47 424.68 459.78 420.08 459.70 C 409.06 460.13 399.35 453.98 389.95 449.07 C 386.80 447.64 383.33 445.73 379.78 446.73 C 373.12 448.13 367.87 452.69 362.17 456.08 C 351.72 462.47 339.08 465.16 326.96 463.47 C 312.47 462.53 299.87 454.54 286.14 450.69 C 280.33 449.21 273.42 448.45 268.38 452.39 C 260.63 458.18 254.74 466.53 245.65 470.44 C 238.32 473.18 230.27 474.27 222.49 473.35 C 207.38 468.44 196.72 455.94 183.94 447.15 C 175.40 440.42 163.51 434.83 152.81 439.75 C 133.17 448.18 113.37 457.17 92.06 460.35 C 86.01 460.75 79.16 461.77 73.87 458.08 C 69.67 454.70 69.73 448.75 70.38 443.88 C 72.37 433.54 77.64 424.30 81.93 414.80 C 86.33 405.53 88.10 395.19 88.28 384.98 C 87.62 361.90 80.51 339.74 76.29 317.20 C 73.03 302.33 70.87 287.24 69.64 272.07 C 69.11 259.41 68.03 246.72 69.17 234.05 C 69.37 219.84 71.53 205.75 73.94 191.77 C 80.79 153.96 96.44 117.10 122.36 88.38 C 136.03 73.24 152.64 60.80 170.97 51.86 C 189.34 43.14 209.27 37.68 229.51 35.77 M 204.58 54.28 C 191.66 57.26 179.25 62.27 167.72 68.80 C 141.53 83.01 120.91 106.08 106.98 132.21 C 94.57 156.38 87.15 183.02 84.52 210.03 C 81.56 233.90 82.47 258.09 84.90 281.97 C 87.78 309.02 94.83 335.36 99.99 362.01 C 102.17 373.81 103.68 386.00 101.54 397.92 C 100.42 406.04 97.11 413.59 94.27 421.21 C 92.85 426.37 90.66 431.63 91.57 437.09 C 92.47 440.84 96.51 442.50 100.04 442.41 C 108.41 442.26 116.15 438.74 123.91 436.00 C 132.92 432.45 141.61 428.17 150.57 424.50 C 156.67 422.02 163.60 422.21 169.83 424.14 C 181.83 427.86 191.50 436.24 201.60 443.35 C 208.56 448.57 216.09 453.77 224.93 454.96 C 230.95 455.15 237.06 453.98 242.49 451.30 C 251.96 447.12 258.70 438.85 267.47 433.60 C 272.13 430.68 277.88 430.85 283.09 431.79 C 293.64 434.33 302.97 440.15 313.17 443.67 C 321.27 446.27 329.93 447.47 338.39 446.20 C 347.66 444.60 355.89 439.75 363.71 434.75 C 369.01 431.43 374.66 427.85 381.12 427.72 C 388.01 428.34 393.49 433.00 399.81 435.31 C 403.25 436.50 407.06 438.19 410.62 436.39 C 411.42 430.02 407.61 424.50 405.37 418.83 C 398.44 403.59 396.90 386.54 397.68 369.99 C 400.97 338.59 407.72 307.59 409.67 276.05 C 411.26 259.41 410.71 242.66 410.53 225.98 C 409.13 199.80 404.27 173.70 394.80 149.19 C 386.79 129.32 375.68 110.60 361.38 94.60 C 348.12 80.39 332.01 68.82 314.23 60.97 C 300.28 54.69 285.19 51.50 270.11 49.38 C 248.20 47.14 225.92 48.83 204.58 54.28 Z" />
<path fill="#2543c3" opacity="1.00" d=" M 161.90 182.45 C 171.80 181.09 182.02 180.36 191.85 182.58 C 204.00 185.18 214.92 192.04 222.98 201.43 C 232.90 197.88 243.41 195.09 254.04 196.59 C 259.48 196.81 264.49 199.29 269.84 199.88 C 272.58 197.60 274.81 194.73 277.79 192.73 C 289.44 184.44 303.96 181.54 318.02 181.22 C 332.45 180.49 347.03 182.50 360.68 187.25 C 373.37 192.05 384.66 201.98 388.80 215.18 C 392.10 223.33 391.98 232.27 391.59 240.90 C 389.87 257.76 381.23 274.49 366.61 283.60 C 355.97 290.75 342.33 292.67 329.93 289.87 C 318.56 287.35 307.39 283.87 296.53 279.67 C 287.82 275.71 278.94 271.69 271.65 265.36 C 262.83 257.57 258.01 245.70 258.56 233.98 C 258.40 226.37 260.32 218.95 262.70 211.79 C 251.90 209.87 240.91 210.27 230.09 211.76 C 230.76 216.32 233.27 220.38 233.82 224.99 C 235.68 236.26 235.12 248.42 229.72 258.71 C 224.99 268.37 215.66 274.64 206.23 279.17 C 198.58 282.45 190.59 285.00 182.40 286.58 C 171.74 288.54 161.03 291.29 150.10 290.43 C 137.38 289.70 124.00 285.51 115.41 275.61 C 105.41 265.10 101.45 250.20 101.32 236.00 C 100.97 224.39 105.49 212.85 113.32 204.32 C 126.11 191.23 144.13 184.97 161.90 182.45 M 156.42 192.50 C 151.14 193.67 145.74 199.19 147.86 204.90 C 151.83 214.86 168.94 214.89 172.50 204.64 C 174.70 195.77 163.94 190.11 156.42 192.50 M 304.47 192.62 C 300.31 193.78 295.92 197.34 296.14 202.03 C 295.58 208.30 302.45 212.31 307.99 212.33 C 314.28 212.82 322.08 208.08 320.81 200.96 C 319.63 193.77 310.85 190.65 304.47 192.62 Z" />
<path fill="#2543c3" opacity="1.00" d=" M 202.20 330.81 C 198.21 326.88 194.74 321.19 196.70 315.43 C 201.31 315.49 203.38 320.74 207.05 322.90 C 223.57 333.58 243.17 340.22 262.99 339.43 C 269.53 339.52 275.92 338.00 282.40 337.37 C 283.87 340.72 280.17 343.08 278.03 345.06 C 267.29 351.57 254.17 352.88 241.87 352.05 C 226.65 350.06 212.82 341.63 202.20 330.81 Z" />
</g>
</svg>
