<?xml version="1.0" encoding="UTF-8" ?>
<!DOCTYPE svg PUBLIC "-//W3C//DTD SVG 1.1//EN" "http://www.w3.org/Graphics/SVG/1.1/DTD/svg11.dtd">
<svg width="16pt" height="16pt" viewBox="0 0 16 16" version="1.1" xmlns="http://www.w3.org/2000/svg">
<g id="#00a2d2ff">
<path fill="#00a2d2" opacity="1.00" d=" M 7.81 0.00 L 8.37 0.00 C 9.41 0.49 11.82 1.25 10.84 2.82 C 9.07 3.87 8.01 1.38 7.81 0.00 Z" />
<path fill="#00a2d2" opacity="1.00" d=" M 12.34 3.41 C 13.56 2.94 14.81 3.39 16.00 3.68 L 16.00 4.80 C 10.27 4.44 4.93 6.69 0.00 9.37 L 0.00 6.29 C 4.25 5.96 8.26 4.48 12.34 3.41 Z" />
<path fill="#00a2d2" opacity="1.00" d=" M 4.12 9.14 C 7.45 8.23 11.13 5.83 14.56 7.49 C 16.48 10.60 12.31 12.74 11.02 15.18 C 10.39 15.07 9.15 14.85 8.53 14.75 C 8.10 13.29 7.86 11.74 7.05 10.43 C 7.08 12.17 7.20 13.90 7.41 15.63 C 5.23 14.14 5.00 11.41 4.12 9.14 M 9.63 8.05 C 10.27 9.54 10.94 11.02 11.73 12.43 C 12.44 10.98 13.11 9.51 13.74 8.02 C 12.71 8.03 10.65 8.04 9.63 8.05 M 7.25 9.10 C 7.47 12.34 10.34 7.58 7.25 9.10 Z" />
</g>
</svg>
