<?xml version="1.0" encoding="UTF-8" ?>
<!DOCTYPE svg PUBLIC "-//W3C//DTD SVG 1.1//EN" "http://www.w3.org/Graphics/SVG/1.1/DTD/svg11.dtd">
<svg width="100pt" height="100pt" viewBox="0 0 100 100" version="1.1" xmlns="http://www.w3.org/2000/svg">
<g id="#000000ff">
<path fill="#000000" opacity="1.00" d=" M 43.14 2.72 C 47.86 1.89 52.80 1.99 57.52 2.43 L 57.49 2.86 L 57.41 3.18 C 55.07 2.83 52.56 2.39 50.24 3.08 C 49.87 4.19 50.13 5.36 50.17 6.50 C 49.57 9.85 49.44 13.26 49.75 16.65 C 49.68 19.69 49.86 22.73 50.40 25.72 C 51.07 25.92 52.42 26.33 53.09 26.53 C 53.93 25.40 54.78 24.28 55.61 23.14 C 55.82 24.42 56.07 25.69 56.36 26.96 C 57.98 28.17 59.48 26.63 60.93 25.94 C 61.05 27.62 61.40 29.26 62.73 30.40 C 64.01 29.58 65.29 28.77 66.56 27.95 C 66.13 29.84 64.44 32.37 66.91 33.58 C 68.28 33.28 69.61 32.86 70.95 32.44 C 70.23 33.86 69.05 35.20 69.05 36.86 C 70.01 37.95 71.60 37.87 72.88 38.29 C 72.30 39.69 70.93 41.26 72.18 42.73 C 73.38 43.03 74.59 43.29 75.80 43.50 C 74.75 44.32 73.69 45.15 72.73 46.08 C 72.77 47.97 74.61 48.70 75.90 49.68 C 74.88 50.37 72.89 50.34 72.81 51.91 C 72.34 53.91 74.60 54.55 75.81 55.53 C 74.20 56.05 71.63 55.66 71.47 57.93 C 71.93 58.96 72.43 59.97 72.96 60.96 C 71.51 61.25 70.07 61.55 68.63 61.85 C 69.37 63.44 70.13 65.02 70.93 66.59 C 69.36 66.24 67.38 64.47 66.01 66.05 C 64.47 67.45 66.27 69.43 66.55 71.04 C 65.27 70.21 63.97 69.38 62.68 68.55 C 61.52 69.69 61.10 71.23 60.85 72.80 C 59.41 72.21 57.91 71.00 56.35 72.02 C 56.07 73.29 55.84 74.57 55.65 75.85 C 54.59 74.75 53.86 72.13 51.91 72.89 C 50.37 72.88 50.44 74.90 49.71 75.84 C 48.74 74.45 47.57 73.22 46.12 72.33 C 45.25 73.51 44.38 74.70 43.51 75.89 C 43.30 74.50 43.08 73.12 42.87 71.74 C 41.25 71.65 39.73 72.17 38.27 72.80 C 37.94 71.48 37.82 70.03 36.88 68.97 C 35.28 69.24 33.88 70.11 32.47 70.88 C 32.93 69.00 34.59 66.60 32.10 65.44 C 30.73 65.71 29.41 66.14 28.09 66.55 C 28.78 64.98 30.67 63.35 29.51 61.56 C 28.36 61.29 27.21 61.06 26.05 60.88 C 26.57 59.63 27.48 58.46 27.48 57.06 C 26.47 55.78 24.58 56.06 23.16 55.56 C 24.31 54.75 25.44 53.93 26.58 53.10 C 26.36 52.44 25.93 51.12 25.71 50.46 C 24.35 50.16 22.99 49.88 21.62 49.62 C 22.86 49.18 24.11 48.75 25.26 48.11 C 26.91 46.03 24.03 44.52 22.91 43.04 C 24.31 42.87 25.70 42.70 27.09 42.53 C 26.70 40.83 26.04 39.23 25.14 37.75 C 26.69 37.62 28.24 37.48 29.79 37.33 C 29.31 35.65 28.75 34.00 28.14 32.37 C 29.56 32.39 30.98 32.40 32.40 32.41 C 32.38 30.96 32.36 29.51 32.33 28.06 C 33.81 28.67 35.29 29.32 36.84 29.74 C 37.55 28.35 37.63 26.76 37.88 25.24 C 39.33 26.03 40.86 26.66 42.44 27.13 C 42.68 25.70 42.91 24.28 43.13 22.85 C 44.51 24.44 46.00 26.08 48.32 25.74 C 49.79 19.45 49.44 12.99 49.61 6.59 C 49.85 5.32 49.61 4.17 48.89 3.13 C 47.06 2.39 45.05 2.67 43.14 2.72 Z" />
</g>
<g id="#8c6138ff">
<path fill="#8c6138" opacity="1.00" d=" M 29.12 6.99 C 33.63 5.04 38.28 3.52 43.14 2.72 C 45.05 2.67 47.06 2.39 48.89 3.13 C 49.61 4.17 49.85 5.32 49.61 6.59 C 48.47 8.75 47.42 10.95 46.55 13.23 C 46.22 12.22 45.89 11.22 45.56 10.22 C 44.99 11.08 45.13 13.46 43.61 12.55 C 42.21 9.87 41.10 7.02 39.22 4.61 C 38.83 9.00 38.78 13.40 38.64 17.80 C 34.98 14.65 32.00 10.84 29.12 6.99 Z" />
<path fill="#8c6138" opacity="1.00" d=" M 7.26 29.13 C 11.58 19.56 19.63 11.59 29.16 7.21 C 29.68 10.63 30.49 13.99 31.04 17.40 C 30.03 17.81 29.01 18.23 28.00 18.64 C 25.72 16.92 23.38 15.28 20.92 13.83 C 21.84 16.28 23.06 18.61 23.87 21.10 C 23.68 22.35 22.41 23.69 21.14 23.85 C 18.64 23.05 16.29 21.84 13.82 20.93 C 15.30 23.40 16.96 25.76 18.68 28.06 C 18.25 29.08 17.81 30.10 17.38 31.13 C 14.00 30.47 10.67 29.60 7.26 29.13 Z" />
<path fill="#8c6138" opacity="1.00" d=" M 2.87 42.97 C 3.40 38.11 5.21 33.60 6.96 29.09 C 10.79 32.03 14.71 34.91 17.84 38.63 C 13.44 38.79 9.03 38.78 4.64 39.21 C 7.26 41.47 10.90 42.14 13.30 44.66 C 12.51 44.84 10.93 45.22 10.14 45.40 C 11.19 45.69 12.24 45.99 13.29 46.29 C 10.11 48.27 6.32 48.60 2.69 49.05 C 2.71 47.02 2.72 44.99 2.87 42.97 Z" />
</g>
<g id="#73c0e3ff">
<path fill="#73c0e3" opacity="1.00" d=" M 50.24 3.08 C 52.56 2.39 55.07 2.83 57.41 3.18 C 57.95 3.74 58.51 4.30 59.07 4.84 C 57.54 7.71 56.85 11.27 54.14 13.32 C 54.04 12.54 53.84 10.99 53.74 10.21 C 53.23 10.86 52.71 11.51 52.20 12.16 C 51.54 10.27 50.86 8.38 50.17 6.50 C 50.13 5.36 49.87 4.19 50.24 3.08 Z" />
<path fill="#73c0e3" opacity="1.00" d=" M 59.73 3.92 C 60.32 3.98 61.52 4.08 62.12 4.14 C 64.25 4.58 66.28 5.36 68.32 6.11 C 68.45 6.53 68.72 7.38 68.85 7.80 C 67.30 10.66 65.12 13.20 62.49 15.12 C 62.52 14.12 62.60 12.13 62.64 11.13 C 61.79 12.27 60.93 13.40 60.07 14.52 C 59.77 11.00 59.71 7.46 59.73 3.92 Z" />
<path fill="#73c0e3" opacity="1.00" d=" M 69.94 7.64 C 70.45 7.76 71.46 8.01 71.96 8.13 C 74.30 9.30 76.37 10.94 78.53 12.38 C 76.38 14.67 74.05 16.80 71.56 18.72 C 71.47 17.53 71.38 16.35 71.30 15.16 C 70.40 15.52 69.50 15.88 68.60 16.24 C 68.60 15.39 68.62 13.68 68.62 12.83 C 69.07 11.10 69.51 9.37 69.94 7.64 Z" />
<path fill="#73c0e3" opacity="1.00" d=" M 74.99 20.77 C 76.29 18.13 77.74 15.56 79.61 13.27 C 81.66 15.27 83.76 17.24 85.68 19.38 C 84.03 22.05 80.69 22.81 78.16 24.41 C 77.11 23.19 76.06 21.97 74.99 20.77 Z" />
<path fill="#73c0e3" opacity="1.00" d=" M 80.48 27.36 C 82.46 25.02 84.52 22.74 86.62 20.50 C 88.41 23.06 90.09 25.69 91.67 28.39 C 89.89 29.09 88.11 29.79 86.27 30.34 C 85.44 30.34 83.77 30.33 82.94 30.33 C 83.12 29.86 83.48 28.91 83.66 28.44 C 82.60 28.08 81.54 27.72 80.48 27.36 Z" />
<path fill="#73c0e3" opacity="1.00" d=" M 83.78 35.31 C 86.48 33.21 89.21 31.15 92.02 29.18 C 96.47 38.64 97.54 49.45 95.63 59.68 C 92.52 58.26 89.26 57.15 86.32 55.39 C 85.51 53.72 87.70 53.98 88.70 53.54 C 88.04 53.04 87.38 52.55 86.72 52.06 C 89.60 51.32 92.49 50.64 95.34 49.78 C 92.49 48.07 88.92 48.27 86.10 46.59 C 86.44 46.29 87.11 45.68 87.45 45.38 C 86.87 44.89 86.28 44.40 85.70 43.91 C 88.65 42.43 91.65 41.03 94.43 39.22 C 91.27 38.84 88.10 38.87 84.93 38.97 C 85.60 38.12 86.28 37.27 86.95 36.42 C 85.89 36.05 84.83 35.68 83.78 35.31 Z" />
<path fill="#73c0e3" opacity="1.00" d=" M 2.37 49.61 C 3.73 49.83 5.09 50.05 6.45 50.25 C 8.48 50.91 10.45 51.72 12.41 52.55 C 11.81 52.81 10.61 53.32 10.01 53.58 C 10.84 53.71 12.49 53.97 13.32 54.10 C 11.71 56.45 8.83 57.25 6.36 58.36 C 5.61 58.57 4.85 58.76 4.09 58.94 C 3.78 58.40 3.15 57.32 2.83 56.78 C 2.37 54.42 2.38 52.01 2.37 49.61 Z" />
<path fill="#73c0e3" opacity="1.00" d=" M 4.02 60.07 C 7.39 60.05 10.76 60.08 14.13 60.18 C 13.19 60.93 12.25 61.67 11.30 62.41 C 12.50 62.84 13.70 63.27 14.90 63.71 C 12.40 65.45 9.99 67.32 7.66 69.28 C 7.28 68.97 6.52 68.35 6.15 68.03 C 5.25 66.14 4.55 64.15 4.12 62.10 C 4.09 61.59 4.05 60.58 4.02 60.07 Z" />
<path fill="#73c0e3" opacity="1.00" d=" M 84.15 60.63 C 87.76 59.24 91.69 59.90 95.45 59.69 C 94.77 62.50 94.04 65.34 92.78 67.96 C 92.52 68.32 92.02 69.05 91.76 69.42 C 88.83 67.50 85.69 65.58 83.92 62.44 C 84.92 62.49 86.92 62.61 87.93 62.67 C 86.66 62.01 85.39 61.33 84.15 60.63 Z" />
<path fill="#73c0e3" opacity="1.00" d=" M 7.61 69.93 C 9.32 69.51 11.03 69.08 12.74 68.63 C 13.63 68.63 15.41 68.63 16.30 68.64 C 15.91 69.58 15.51 70.52 15.12 71.46 C 16.09 71.31 17.06 71.17 18.03 71.04 L 18.35 72.04 C 16.57 74.38 14.52 76.51 12.38 78.53 C 10.94 76.37 9.31 74.31 8.14 71.98 C 8.01 71.47 7.74 70.45 7.61 69.93 Z" />
<path fill="#73c0e3" opacity="1.00" d=" M 82.93 68.61 C 83.74 68.62 85.35 68.65 86.16 68.66 C 87.77 69.05 89.39 69.47 90.98 69.94 C 90.96 70.45 90.92 71.47 90.89 71.98 C 89.68 74.30 88.15 76.43 86.69 78.59 C 84.58 76.48 82.52 74.31 80.66 71.98 L 81.00 71.08 C 81.65 70.97 82.95 70.74 83.60 70.62 C 83.44 70.12 83.10 69.12 82.93 68.61 Z" />
<path fill="#73c0e3" opacity="1.00" d=" M 13.22 79.53 C 15.61 77.80 18.15 76.27 20.80 74.97 C 21.99 76.04 23.18 77.10 24.38 78.17 C 22.72 80.64 22.17 84.21 19.39 85.68 C 17.22 83.75 15.23 81.62 13.22 79.53 Z" />
<path fill="#73c0e3" opacity="1.00" d=" M 75.41 79.20 C 76.69 77.94 77.96 76.67 79.22 75.40 C 81.61 76.54 83.96 77.83 86.00 79.56 C 83.97 81.80 81.84 83.95 79.53 85.90 C 77.65 84.01 76.59 81.54 75.41 79.20 Z" />
<path fill="#73c0e3" opacity="1.00" d=" M 20.56 86.67 C 22.73 84.53 24.99 82.49 27.33 80.55 C 27.70 81.56 28.06 82.57 28.42 83.58 C 28.89 83.42 29.84 83.10 30.32 82.93 C 30.33 83.76 30.34 85.43 30.34 86.26 C 29.81 88.11 29.09 89.89 28.37 91.67 C 25.70 90.10 23.10 88.43 20.56 86.67 Z" />
<path fill="#73c0e3" opacity="1.00" d=" M 70.52 83.63 C 70.91 82.54 71.30 81.44 71.69 80.35 C 74.08 82.34 76.36 84.46 78.58 86.65 C 76.45 88.11 74.37 89.73 72.00 90.80 C 71.49 90.93 70.46 91.20 69.94 91.34 C 69.52 89.61 69.09 87.90 68.66 86.18 C 68.65 85.34 68.62 83.64 68.61 82.80 C 69.09 83.00 70.04 83.42 70.52 83.63 Z" />
<path fill="#73c0e3" opacity="1.00" d=" M 35.34 83.78 C 35.68 84.82 36.02 85.87 36.35 86.92 C 37.21 86.23 38.06 85.55 38.91 84.86 C 38.84 88.09 38.87 91.33 39.24 94.55 C 40.93 91.69 42.38 88.70 43.94 85.77 C 44.50 86.43 45.05 87.09 45.61 87.75 C 45.80 87.24 46.18 86.21 46.37 85.70 C 47.95 88.75 48.47 92.17 49.38 95.45 C 50.66 92.54 51.44 89.44 52.13 86.35 C 52.61 87.15 53.09 87.95 53.56 88.75 C 53.68 87.54 54.15 86.58 54.98 85.85 C 57.08 88.83 58.19 92.34 59.59 95.67 C 49.37 97.50 38.60 96.48 29.17 92.01 C 31.15 89.21 33.22 86.47 35.34 83.78 Z" />
<path fill="#73c0e3" opacity="1.00" d=" M 60.09 84.53 C 61.02 85.57 61.91 86.65 62.76 87.76 C 62.68 86.79 62.52 84.86 62.44 83.89 C 65.44 85.59 67.17 88.65 69.27 91.26 C 68.94 91.64 68.28 92.40 67.95 92.78 C 65.31 94.06 62.44 94.77 59.60 95.48 C 59.74 91.83 59.77 88.17 60.09 84.53 Z" />
</g>
<g id="#3e6576ff">
<path fill="#3e6576" opacity="1.00" d=" M 57.41 3.18 L 57.49 2.86 C 58.41 1.95 60.77 3.91 62.12 4.14 C 61.52 4.08 60.32 3.98 59.73 3.92 C 59.71 7.46 59.77 11.00 60.07 14.52 C 60.93 13.40 61.79 12.27 62.64 11.13 C 62.60 12.13 62.52 14.12 62.49 15.12 C 65.12 13.20 67.30 10.66 68.85 7.80 C 68.72 7.38 68.45 6.53 68.32 6.11 C 69.55 6.74 70.78 7.40 71.96 8.13 C 71.46 8.01 70.45 7.76 69.94 7.64 C 69.51 9.37 69.07 11.10 68.62 12.83 C 67.59 15.73 67.10 18.78 67.10 21.86 C 68.61 20.86 70.11 19.82 71.56 18.72 C 74.05 16.80 76.38 14.67 78.53 12.38 C 78.89 12.68 79.25 12.97 79.61 13.27 C 77.74 15.56 76.29 18.13 74.99 20.77 C 74.13 22.51 73.45 24.33 72.84 26.17 C 74.66 25.73 76.48 25.25 78.16 24.41 C 80.69 22.81 84.03 22.05 85.68 19.38 C 85.99 19.75 86.31 20.13 86.62 20.50 C 84.52 22.74 82.46 25.02 80.48 27.36 C 79.30 28.82 78.22 30.36 77.16 31.90 C 80.25 31.79 83.34 31.37 86.27 30.34 C 88.11 29.79 89.89 29.09 91.67 28.39 C 91.76 28.59 91.93 28.98 92.02 29.18 C 89.21 31.15 86.48 33.21 83.78 35.31 C 82.42 36.42 81.17 37.64 79.93 38.87 C 81.59 38.93 83.26 38.99 84.93 38.97 C 88.10 38.87 91.27 38.84 94.43 39.22 C 91.65 41.03 88.65 42.43 85.70 43.91 C 86.28 44.40 86.87 44.89 87.45 45.38 C 87.11 45.68 86.44 46.29 86.10 46.59 C 88.92 48.27 92.49 48.07 95.34 49.78 C 92.49 50.64 89.60 51.32 86.72 52.06 C 87.38 52.55 88.04 53.04 88.70 53.54 C 87.70 53.98 85.51 53.72 86.32 55.39 C 89.26 57.15 92.52 58.26 95.63 59.68 L 95.45 59.69 C 91.69 59.90 87.76 59.24 84.15 60.63 C 85.39 61.33 86.66 62.01 87.93 62.67 C 86.92 62.61 84.92 62.49 83.92 62.44 C 85.69 65.58 88.83 67.50 91.76 69.42 C 92.02 69.05 92.52 68.32 92.78 67.96 C 92.29 69.36 91.65 70.71 90.89 71.98 C 90.92 71.47 90.96 70.45 90.98 69.94 C 89.39 69.47 87.77 69.05 86.16 68.66 C 83.20 67.67 80.12 67.09 76.99 67.30 C 78.18 68.88 79.40 70.44 80.66 71.98 C 82.52 74.31 84.58 76.48 86.69 78.59 C 86.46 78.91 86.23 79.24 86.00 79.56 C 83.96 77.83 81.61 76.54 79.22 75.40 C 77.24 74.41 75.16 73.66 73.05 73.00 C 73.68 75.13 74.42 77.22 75.41 79.20 C 76.59 81.54 77.65 84.01 79.53 85.90 L 79.73 86.13 C 79.44 86.26 78.87 86.52 78.58 86.65 C 76.36 84.46 74.08 82.34 71.69 80.35 C 70.21 79.18 68.63 78.14 67.05 77.12 C 67.14 80.21 67.71 83.25 68.66 86.18 C 69.09 87.90 69.52 89.61 69.94 91.34 C 70.46 91.20 71.49 90.93 72.00 90.80 C 70.74 91.63 69.39 92.31 67.95 92.78 C 68.28 92.40 68.94 91.64 69.27 91.26 C 67.17 88.65 65.44 85.59 62.44 83.89 C 62.52 84.86 62.68 86.79 62.76 87.76 C 61.91 86.65 61.02 85.57 60.09 84.53 C 59.77 88.17 59.74 91.83 59.60 95.48 L 59.59 95.67 C 58.19 92.34 57.08 88.83 54.98 85.85 C 54.15 86.58 53.68 87.54 53.56 88.75 C 53.09 87.95 52.61 87.15 52.13 86.35 C 51.44 89.44 50.66 92.54 49.38 95.45 C 48.47 92.17 47.95 88.75 46.37 85.70 C 46.18 86.21 45.80 87.24 45.61 87.75 C 45.05 87.09 44.50 86.43 43.94 85.77 C 42.38 88.70 40.93 91.69 39.24 94.55 C 38.87 91.33 38.84 88.09 38.91 84.86 C 38.90 83.22 38.83 81.57 38.76 79.93 C 37.59 81.18 36.42 82.44 35.34 83.78 C 33.22 86.47 31.15 89.21 29.17 92.01 C 28.97 91.93 28.57 91.75 28.37 91.67 C 29.09 89.89 29.81 88.11 30.34 86.26 C 31.35 83.31 31.77 80.20 31.86 77.09 C 30.33 78.21 28.80 79.34 27.33 80.55 C 24.99 82.49 22.73 84.53 20.56 86.67 C 20.17 86.34 19.78 86.01 19.39 85.68 C 22.17 84.21 22.72 80.64 24.38 78.17 C 25.23 76.48 25.77 74.65 26.27 72.83 C 24.41 73.45 22.57 74.11 20.80 74.97 C 18.15 76.27 15.61 77.80 13.22 79.53 C 12.94 79.20 12.66 78.86 12.38 78.53 C 14.52 76.51 16.57 74.38 18.35 72.04 C 19.59 70.45 20.77 68.83 21.92 67.18 C 18.79 67.10 15.68 67.54 12.74 68.63 C 11.03 69.08 9.32 69.51 7.61 69.93 C 7.74 70.45 8.01 71.47 8.14 71.98 C 7.34 70.74 6.66 69.42 6.15 68.03 C 6.52 68.35 7.28 68.97 7.66 69.28 C 9.99 67.32 12.40 65.45 14.90 63.71 C 16.34 62.67 17.74 61.58 19.13 60.48 C 15.01 58.92 10.45 59.98 6.36 58.36 C 8.83 57.25 11.71 56.45 13.32 54.10 C 12.49 53.97 10.84 53.71 10.01 53.58 C 10.61 53.32 11.81 52.81 12.41 52.55 C 10.45 51.72 8.48 50.91 6.45 50.25 C 9.82 49.69 13.25 49.52 16.65 49.88 C 19.22 50.64 21.76 51.46 24.31 52.29 C 21.63 54.23 18.68 55.73 15.82 57.38 C 19.00 57.60 22.19 57.73 25.37 57.94 C 23.10 60.45 20.39 62.48 17.93 64.79 C 21.33 64.02 24.73 63.21 28.21 62.83 C 26.38 65.69 24.24 68.32 22.14 70.99 C 25.27 69.96 28.32 68.75 31.40 67.60 C 30.26 70.47 29.00 73.31 27.97 76.23 C 30.83 74.61 33.28 72.39 36.12 70.74 C 35.67 73.91 35.22 77.07 34.99 80.26 C 37.27 77.80 39.27 75.10 41.74 72.84 C 41.76 76.28 41.80 79.73 42.15 83.15 C 43.84 80.10 45.20 76.89 46.76 73.78 C 47.77 77.18 48.53 80.64 49.48 84.06 C 50.56 80.90 51.28 77.61 52.67 74.56 C 54.29 77.45 55.27 80.72 57.46 83.26 C 57.64 80.03 57.68 76.79 57.92 73.57 C 60.47 75.77 62.49 78.48 64.71 81.00 C 64.01 77.55 63.25 74.10 62.86 70.60 C 65.62 72.36 68.09 74.55 70.94 76.18 C 69.89 73.28 68.63 70.48 67.57 67.59 C 70.48 68.66 73.32 69.91 76.24 70.95 C 74.53 68.16 72.38 65.65 70.74 62.81 C 74.19 63.29 77.60 64.06 81.02 64.74 C 78.54 62.47 75.79 60.50 73.57 57.96 C 76.79 57.71 80.02 57.61 83.24 57.38 C 80.55 55.50 77.51 54.23 74.64 52.66 C 77.60 51.11 80.92 50.58 84.09 49.64 C 80.70 48.53 77.21 47.75 73.80 46.70 C 76.90 45.11 80.14 43.81 83.21 42.16 C 79.78 41.79 76.32 41.78 72.87 41.78 C 75.11 39.29 77.82 37.30 80.25 35.01 C 77.07 35.27 73.91 35.68 70.74 36.05 C 72.46 33.30 74.57 30.80 76.21 27.99 C 73.32 29.03 70.51 30.27 67.64 31.36 C 68.73 28.30 69.91 25.27 70.95 22.19 C 68.34 24.32 65.71 26.45 62.86 28.26 C 63.22 24.78 64.02 21.37 64.80 17.97 C 62.47 20.42 60.50 23.20 57.92 25.40 C 57.66 22.24 57.59 19.07 57.53 15.90 C 55.64 18.57 54.11 21.47 52.60 24.36 C 51.44 21.87 50.50 19.29 49.75 16.65 C 49.44 13.26 49.57 9.85 50.17 6.50 C 50.86 8.38 51.54 10.27 52.20 12.16 C 52.71 11.51 53.23 10.86 53.74 10.21 C 53.84 10.99 54.04 12.54 54.14 13.32 C 56.85 11.27 57.54 7.71 59.07 4.84 C 58.51 4.30 57.95 3.74 57.41 3.18 Z" />
</g>
<g id="#603813ff">
<path fill="#603813" opacity="1.00" d=" M 39.22 4.61 C 41.10 7.02 42.21 9.87 43.61 12.55 C 45.13 13.46 44.99 11.08 45.56 10.22 C 45.89 11.22 46.22 12.22 46.55 13.23 C 47.42 10.95 48.47 8.75 49.61 6.59 C 49.44 12.99 49.79 19.45 48.32 25.74 C 46.00 26.08 44.51 24.44 43.13 22.85 C 42.91 24.28 42.68 25.70 42.44 27.13 C 40.86 26.66 39.33 26.03 37.88 25.24 C 37.63 26.76 37.55 28.35 36.84 29.74 C 35.29 29.32 33.81 28.67 32.33 28.06 C 32.36 29.51 32.38 30.96 32.40 32.41 C 30.98 32.40 29.56 32.39 28.14 32.37 C 28.75 34.00 29.31 35.65 29.79 37.33 C 28.24 37.48 26.69 37.62 25.14 37.75 C 26.04 39.23 26.70 40.83 27.09 42.53 C 25.70 42.70 24.31 42.87 22.91 43.04 C 24.03 44.52 26.91 46.03 25.26 48.11 C 24.11 48.75 22.86 49.18 21.62 49.62 C 19.96 49.71 18.31 49.82 16.65 49.88 C 13.25 49.52 9.82 49.69 6.45 50.25 C 5.09 50.05 3.73 49.83 2.37 49.61 L 2.11 49.57 C 2.30 47.36 2.51 45.15 2.87 42.97 C 2.72 44.99 2.71 47.02 2.69 49.05 C 6.32 48.60 10.11 48.27 13.29 46.29 C 12.24 45.99 11.19 45.69 10.14 45.40 C 10.93 45.22 12.51 44.84 13.30 44.66 C 10.90 42.14 7.26 41.47 4.64 39.21 C 9.03 38.78 13.44 38.79 17.84 38.63 C 14.71 34.91 10.79 32.03 6.96 29.09 L 7.26 29.13 C 10.67 29.60 14.00 30.47 17.38 31.13 C 17.81 30.10 18.25 29.08 18.68 28.06 C 16.96 25.76 15.30 23.40 13.82 20.93 C 16.29 21.84 18.64 23.05 21.14 23.85 C 22.41 23.69 23.68 22.35 23.87 21.10 C 23.06 18.61 21.84 16.28 20.92 13.83 C 23.38 15.28 25.72 16.92 28.00 18.64 C 29.01 18.23 30.03 17.81 31.04 17.40 C 30.49 13.99 29.68 10.63 29.16 7.21 L 29.12 6.99 C 32.00 10.84 34.98 14.65 38.64 17.80 C 38.78 13.40 38.83 9.00 39.22 4.61 Z" />
</g>
<g id="#5390a7ff">
<path fill="#5390a7" opacity="1.00" d=" M 67.10 21.86 C 67.10 18.78 67.59 15.73 68.62 12.83 C 68.62 13.68 68.60 15.39 68.60 16.24 C 69.50 15.88 70.40 15.52 71.30 15.16 C 71.38 16.35 71.47 17.53 71.56 18.72 C 70.11 19.82 68.61 20.86 67.10 21.86 Z" />
<path fill="#5390a7" opacity="1.00" d=" M 12.74 68.63 C 15.68 67.54 18.79 67.10 21.92 67.18 C 20.77 68.83 19.59 70.45 18.35 72.04 L 18.03 71.04 C 17.06 71.17 16.09 71.31 15.12 71.46 C 15.51 70.52 15.91 69.58 16.30 68.64 C 15.41 68.63 13.63 68.63 12.74 68.63 Z" />
</g>
<g id="#214a5aff">
<path fill="#214a5a" opacity="1.00" d=" M 52.60 24.36 C 54.11 21.47 55.64 18.57 57.53 15.90 C 57.59 19.07 57.66 22.24 57.92 25.40 C 60.50 23.20 62.47 20.42 64.80 17.97 C 64.02 21.37 63.22 24.78 62.86 28.26 C 65.71 26.45 68.34 24.32 70.95 22.19 C 69.91 25.27 68.73 28.30 67.64 31.36 C 70.51 30.27 73.32 29.03 76.21 27.99 C 74.57 30.80 72.46 33.30 70.74 36.05 C 73.91 35.68 77.07 35.27 80.25 35.01 C 77.82 37.30 75.11 39.29 72.87 41.78 C 76.32 41.78 79.78 41.79 83.21 42.16 C 80.14 43.81 76.90 45.11 73.80 46.70 C 77.21 47.75 80.70 48.53 84.09 49.64 C 80.92 50.58 77.60 51.11 74.64 52.66 C 77.51 54.23 80.55 55.50 83.24 57.38 C 80.02 57.61 76.79 57.71 73.57 57.96 C 75.79 60.50 78.54 62.47 81.02 64.74 C 77.60 64.06 74.19 63.29 70.74 62.81 C 72.38 65.65 74.53 68.16 76.24 70.95 C 73.32 69.91 70.48 68.66 67.57 67.59 C 68.63 70.48 69.89 73.28 70.94 76.18 C 68.09 74.55 65.62 72.36 62.86 70.60 C 63.25 74.10 64.01 77.55 64.71 81.00 C 62.49 78.48 60.47 75.77 57.92 73.57 C 57.68 76.79 57.64 80.03 57.46 83.26 C 55.27 80.72 54.29 77.45 52.67 74.56 C 51.28 77.61 50.56 80.90 49.48 84.06 C 48.53 80.64 47.77 77.18 46.76 73.78 C 45.20 76.89 43.84 80.10 42.15 83.15 C 41.80 79.73 41.76 76.28 41.74 72.84 C 39.27 75.10 37.27 77.80 34.99 80.26 C 35.22 77.07 35.67 73.91 36.12 70.74 C 33.28 72.39 30.83 74.61 27.97 76.23 C 29.00 73.31 30.26 70.47 31.40 67.60 C 28.32 68.75 25.27 69.96 22.14 70.99 C 24.24 68.32 26.38 65.69 28.21 62.83 C 24.73 63.21 21.33 64.02 17.93 64.79 C 20.39 62.48 23.10 60.45 25.37 57.94 C 22.19 57.73 19.00 57.60 15.82 57.38 C 18.68 55.73 21.63 54.23 24.31 52.29 C 21.76 51.46 19.22 50.64 16.65 49.88 C 18.31 49.82 19.96 49.71 21.62 49.62 C 22.99 49.88 24.35 50.16 25.71 50.46 C 25.93 51.12 26.36 52.44 26.58 53.10 C 25.44 53.93 24.31 54.75 23.16 55.56 C 24.58 56.06 26.47 55.78 27.48 57.06 C 27.48 58.46 26.57 59.63 26.05 60.88 C 27.21 61.06 28.36 61.29 29.51 61.56 C 30.67 63.35 28.78 64.98 28.09 66.55 C 29.41 66.14 30.73 65.71 32.10 65.44 C 34.59 66.60 32.93 69.00 32.47 70.88 C 33.88 70.11 35.28 69.24 36.88 68.97 C 37.82 70.03 37.94 71.48 38.27 72.80 C 39.73 72.17 41.25 71.65 42.87 71.74 C 43.08 73.12 43.30 74.50 43.51 75.89 C 44.38 74.70 45.25 73.51 46.12 72.33 C 47.57 73.22 48.74 74.45 49.71 75.84 C 50.44 74.90 50.37 72.88 51.91 72.89 C 53.86 72.13 54.59 74.75 55.65 75.85 C 55.84 74.57 56.07 73.29 56.35 72.02 C 57.91 71.00 59.41 72.21 60.85 72.80 C 61.10 71.23 61.52 69.69 62.68 68.55 C 63.97 69.38 65.27 70.21 66.55 71.04 C 66.27 69.43 64.47 67.45 66.01 66.05 C 67.38 64.47 69.36 66.24 70.93 66.59 C 70.13 65.02 69.37 63.44 68.63 61.85 C 70.07 61.55 71.51 61.25 72.96 60.96 C 72.43 59.97 71.93 58.96 71.47 57.93 C 71.63 55.66 74.20 56.05 75.81 55.53 C 74.60 54.55 72.34 53.91 72.81 51.91 C 72.89 50.34 74.88 50.37 75.90 49.68 C 74.61 48.70 72.77 47.97 72.73 46.08 C 73.69 45.15 74.75 44.32 75.80 43.50 C 74.59 43.29 73.38 43.03 72.18 42.73 C 70.93 41.26 72.30 39.69 72.88 38.29 C 71.60 37.87 70.01 37.95 69.05 36.86 C 69.05 35.20 70.23 33.86 70.95 32.44 C 69.61 32.86 68.28 33.28 66.91 33.58 C 64.44 32.37 66.13 29.84 66.56 27.95 C 65.29 28.77 64.01 29.58 62.73 30.40 C 61.40 29.26 61.05 27.62 60.93 25.94 C 59.48 26.63 57.98 28.17 56.36 26.96 C 56.07 25.69 55.82 24.42 55.61 23.14 C 54.78 24.28 53.93 25.40 53.09 26.53 C 52.42 26.33 51.07 25.92 50.40 25.72 C 49.86 22.73 49.68 19.69 49.75 16.65 C 50.50 19.29 51.44 21.87 52.60 24.36 Z" />
</g>
<g id="#538da4ff">
<path fill="#538da4" opacity="1.00" d=" M 72.84 26.17 C 73.45 24.33 74.13 22.51 74.99 20.77 C 76.06 21.97 77.11 23.19 78.16 24.41 C 76.48 25.25 74.66 25.73 72.84 26.17 Z" />
<path fill="#538da4" opacity="1.00" d=" M 20.80 74.97 C 22.57 74.11 24.41 73.45 26.27 72.83 C 25.77 74.65 25.23 76.48 24.38 78.17 C 23.18 77.10 21.99 76.04 20.80 74.97 Z" />
</g>
<g id="#5694acff">
<path fill="#5694ac" opacity="1.00" d=" M 77.16 31.90 C 78.22 30.36 79.30 28.82 80.48 27.36 C 81.54 27.72 82.60 28.08 83.66 28.44 C 83.48 28.91 83.12 29.86 82.94 30.33 C 83.77 30.33 85.44 30.34 86.27 30.34 C 83.34 31.37 80.25 31.79 77.16 31.90 Z" />
<path fill="#5694ac" opacity="1.00" d=" M 27.33 80.55 C 28.80 79.34 30.33 78.21 31.86 77.09 C 31.77 80.20 31.35 83.31 30.34 86.26 C 30.34 85.43 30.33 83.76 30.32 82.93 C 29.84 83.10 28.89 83.42 28.42 83.58 C 28.06 82.57 27.70 81.56 27.33 80.55 Z" />
</g>
<g id="#528da4ff">
<path fill="#528da4" opacity="1.00" d=" M 79.93 38.87 C 81.17 37.64 82.42 36.42 83.78 35.31 C 84.83 35.68 85.89 36.05 86.95 36.42 C 86.28 37.27 85.60 38.12 84.93 38.97 C 83.26 38.99 81.59 38.93 79.93 38.87 Z" />
<path fill="#528da4" opacity="1.00" d=" M 35.34 83.78 C 36.42 82.44 37.59 81.18 38.76 79.93 C 38.83 81.57 38.90 83.22 38.91 84.86 C 38.06 85.55 37.21 86.23 36.35 86.92 C 36.02 85.87 35.68 84.82 35.34 83.78 Z" />
</g>
<g id="#4e849af1">
<path fill="#4e849a" opacity="0.95" d=" M 2.83 56.78 C 3.15 57.32 3.78 58.40 4.09 58.94 C 4.85 58.76 5.61 58.57 6.36 58.36 C 10.45 59.98 15.01 58.92 19.13 60.48 C 17.74 61.58 16.34 62.67 14.90 63.71 C 13.70 63.27 12.50 62.84 11.30 62.41 C 12.25 61.67 13.19 60.93 14.13 60.18 C 10.76 60.08 7.39 60.05 4.02 60.07 C 4.05 60.58 4.09 61.59 4.12 62.10 C 3.39 60.41 3.06 58.60 2.83 56.78 Z" />
</g>
<g id="#528fa5ff">
<path fill="#528fa5" opacity="1.00" d=" M 76.99 67.30 C 80.12 67.09 83.20 67.67 86.16 68.66 C 85.35 68.65 83.74 68.62 82.93 68.61 C 83.10 69.12 83.44 70.12 83.60 70.62 C 82.95 70.74 81.65 70.97 81.00 71.08 L 80.66 71.98 C 79.40 70.44 78.18 68.88 76.99 67.30 Z" />
<path fill="#528fa5" opacity="1.00" d=" M 67.05 77.12 C 68.63 78.14 70.21 79.18 71.69 80.35 C 71.30 81.44 70.91 82.54 70.52 83.63 C 70.04 83.42 69.09 83.00 68.61 82.80 C 68.62 83.64 68.65 85.34 68.66 86.18 C 67.71 83.25 67.14 80.21 67.05 77.12 Z" />
</g>
<g id="#5b9bb5ff">
<path fill="#5b9bb5" opacity="1.00" d=" M 73.05 73.00 C 75.16 73.66 77.24 74.41 79.22 75.40 C 77.96 76.67 76.69 77.94 75.41 79.20 C 74.42 77.22 73.68 75.13 73.05 73.00 Z" />
</g>
</svg>
