<?xml version="1.0" encoding="UTF-8" ?>
<!DOCTYPE svg PUBLIC "-//W3C//DTD SVG 1.1//EN" "http://www.w3.org/Graphics/SVG/1.1/DTD/svg11.dtd">
<svg width="192pt" height="192pt" viewBox="0 0 192 192" version="1.1" xmlns="http://www.w3.org/2000/svg">
<g id="#231f20ff">
<path fill="#231f20" opacity="1.00" d=" M 28.02 57.22 C 50.04 46.28 72.05 35.29 94.08 24.36 C 95.40 23.48 96.85 24.35 98.07 24.93 C 119.91 35.83 141.78 46.70 163.67 57.51 C 163.75 62.38 163.54 67.25 163.80 72.12 C 154.88 76.81 145.71 80.99 136.79 85.66 C 137.02 103.17 136.58 120.69 137.01 138.19 C 132.23 141.11 127.11 143.42 122.15 146.01 C 114.10 142.05 106.15 137.87 97.99 134.14 C 98.38 142.19 98.01 150.25 98.22 158.31 C 95.85 160.81 93.06 158.43 90.66 157.31 C 87.26 155.59 83.82 153.95 80.43 152.22 C 80.64 143.50 80.35 134.79 80.60 126.07 C 63.15 117.20 45.53 108.66 28.00 99.93 C 28.00 85.69 27.98 71.46 28.02 57.22 M 30.85 58.24 C 52.32 68.94 73.89 79.47 95.32 90.28 C 116.97 79.65 138.58 68.91 160.16 58.13 C 140.29 48.75 120.78 38.60 101.05 28.93 C 99.06 28.11 97.26 26.54 95.08 26.36 C 73.64 36.92 52.31 47.71 30.85 58.24 M 97.99 91.82 C 98.25 95.32 98.16 98.84 98.11 102.35 C 106.57 98.09 115.08 93.94 123.52 89.65 C 123.40 107.43 123.54 125.20 123.45 142.97 C 127.16 141.06 130.88 139.18 134.64 137.38 C 134.62 119.64 134.63 101.90 134.63 84.17 C 143.60 79.75 152.55 75.29 161.52 70.89 C 161.53 67.26 161.53 63.62 161.54 59.99 C 140.43 70.74 119.06 80.98 97.99 91.82 M 42.70 66.56 C 42.79 74.82 42.83 83.09 42.68 91.35 C 55.19 97.96 68.03 103.94 80.60 110.44 C 80.50 102.12 80.48 93.80 80.55 85.48 C 67.96 79.13 55.26 72.97 42.70 66.56 M 98.07 104.93 C 98.46 113.79 97.75 122.82 98.40 131.57 C 105.95 135.51 113.68 139.12 121.28 142.96 C 121.26 126.42 121.19 109.88 121.32 93.34 C 113.61 97.30 105.79 101.02 98.07 104.93 Z" />
</g>
</svg>
