<?xml version="1.0" encoding="UTF-8" ?>
<!DOCTYPE svg PUBLIC "-//W3C//DTD SVG 1.1//EN" "http://www.w3.org/Graphics/SVG/1.1/DTD/svg11.dtd">
<svg width="159pt" height="102pt" viewBox="0 0 159 102" version="1.1" xmlns="http://www.w3.org/2000/svg">
<g id="#ffffffff">
<path fill="#ffffff" opacity="1.00" d=" M 0.00 0.00 L 159.00 0.00 L 159.00 102.00 L 0.00 102.00 L 0.00 0.00 M 63.25 22.58 C 58.44 21.40 53.44 21.80 48.57 22.26 C 45.11 33.48 41.21 44.56 37.61 55.73 C 36.37 59.17 35.66 62.81 33.81 66.00 C 28.96 51.34 23.56 36.86 18.71 22.20 C 14.01 21.76 9.29 21.69 4.58 22.07 C 11.29 40.82 19.31 59.08 26.31 77.73 C 31.29 77.54 36.44 78.35 41.33 77.35 C 44.48 69.88 47.08 62.18 50.34 54.75 C 52.84 60.11 53.81 66.48 58.34 70.65 C 60.68 73.15 63.74 74.85 67.01 75.80 C 76.09 78.96 86.40 78.38 94.93 73.91 C 94.75 75.21 94.51 76.50 94.21 77.78 C 98.97 77.80 103.73 77.80 108.48 77.63 C 109.63 73.70 111.06 69.85 112.24 65.93 C 118.15 65.41 124.09 65.76 130.02 65.64 C 131.56 65.79 133.32 65.36 134.70 66.26 C 136.34 69.93 137.37 73.84 138.55 77.68 C 143.40 77.85 148.26 77.83 153.11 77.75 C 146.35 59.10 138.58 40.82 131.70 22.20 C 126.29 21.80 120.84 21.64 115.43 22.20 C 112.89 28.93 110.29 35.65 107.58 42.32 C 105.85 36.99 104.12 31.07 99.46 27.52 C 93.47 23.24 86.34 20.00 78.82 20.42 C 73.50 20.11 68.54 22.54 63.25 22.58 Z" />
<path fill="#ffffff" opacity="1.00" d=" M 74.52 31.73 C 79.73 30.61 85.94 31.09 89.73 35.27 C 93.47 40.33 94.00 46.94 93.61 53.02 C 93.47 57.53 91.27 61.86 88.08 64.97 C 83.46 67.06 77.91 67.69 73.05 66.01 C 69.48 64.88 67.28 61.52 65.80 58.29 C 62.81 50.62 63.98 41.51 68.97 34.95 C 70.47 33.38 72.46 32.34 74.52 31.73 Z" />
<path fill="#ffffff" opacity="1.00" d=" M 123.36 32.93 C 126.34 40.51 129.22 48.15 132.01 55.81 C 126.62 56.19 121.21 56.22 115.83 55.83 C 117.75 48.02 120.90 40.58 123.36 32.93 Z" />
</g>
<g id="#feed7dff">
<path fill="#feed7d" opacity="1.00" d=" M 63.25 22.58 C 68.54 22.54 73.50 20.11 78.82 20.42 C 86.34 20.00 93.47 23.24 99.46 27.52 C 104.12 31.07 105.85 36.99 107.58 42.32 C 107.98 50.22 107.79 58.60 103.47 65.53 C 101.43 69.02 98.33 71.77 94.93 73.91 C 86.40 78.38 76.09 78.96 67.01 75.80 C 63.74 74.85 60.68 73.15 58.34 70.65 C 53.81 66.48 52.84 60.11 50.34 54.75 C 50.68 48.73 50.65 42.55 52.87 36.85 C 54.74 31.08 59.61 27.19 63.25 22.58 M 74.52 31.73 C 72.46 32.34 70.47 33.38 68.97 34.95 C 63.98 41.51 62.81 50.62 65.80 58.29 C 67.28 61.52 69.48 64.88 73.05 66.01 C 77.91 67.69 83.46 67.06 88.08 64.97 C 91.27 61.86 93.47 57.53 93.61 53.02 C 94.00 46.94 93.47 40.33 89.73 35.27 C 85.94 31.09 79.73 30.61 74.52 31.73 Z" />
</g>
<g id="#e70917ff">
<path fill="#e70917" opacity="1.00" d=" M 4.58 22.07 C 9.29 21.69 14.01 21.76 18.71 22.20 C 23.56 36.86 28.96 51.34 33.81 66.00 C 35.66 62.81 36.37 59.17 37.61 55.73 C 41.21 44.56 45.11 33.48 48.57 22.26 C 53.44 21.80 58.44 21.40 63.25 22.58 C 59.61 27.19 54.74 31.08 52.87 36.85 C 50.65 42.55 50.68 48.73 50.34 54.75 C 47.08 62.18 44.48 69.88 41.33 77.35 C 36.44 78.35 31.29 77.54 26.31 77.73 C 19.31 59.08 11.29 40.82 4.58 22.07 Z" />
</g>
<g id="#0382cdff">
<path fill="#0382cd" opacity="1.00" d=" M 115.43 22.20 C 120.84 21.64 126.29 21.80 131.70 22.20 C 138.58 40.82 146.35 59.10 153.11 77.75 C 148.26 77.83 143.40 77.85 138.55 77.68 C 137.37 73.84 136.34 69.93 134.70 66.26 C 133.32 65.36 131.56 65.79 130.02 65.64 C 124.09 65.76 118.15 65.41 112.24 65.93 C 111.06 69.85 109.63 73.70 108.48 77.63 C 103.73 77.80 98.97 77.80 94.21 77.78 C 94.51 76.50 94.75 75.21 94.93 73.91 C 98.33 71.77 101.43 69.02 103.47 65.53 C 107.79 58.60 107.98 50.22 107.58 42.32 C 110.29 35.65 112.89 28.93 115.43 22.20 M 123.36 32.93 C 120.90 40.58 117.75 48.02 115.83 55.83 C 121.21 56.22 126.62 56.19 132.01 55.81 C 129.22 48.15 126.34 40.51 123.36 32.93 Z" />
</g>
</svg>
