<?xml version="1.0" encoding="UTF-8" ?>
<!DOCTYPE svg PUBLIC "-//W3C//DTD SVG 1.1//EN" "http://www.w3.org/Graphics/SVG/1.1/DTD/svg11.dtd">
<svg width="179pt" height="180pt" viewBox="0 0 179 180" version="1.1" xmlns="http://www.w3.org/2000/svg">
<g id="#75daf2ff">
<path fill="#75daf2" opacity="1.00" d=" M 75.14 1.17 C 91.16 -1.31 107.89 0.30 122.94 6.44 C 145.59 15.44 164.13 34.16 172.91 56.89 C 178.69 71.44 180.18 87.50 178.01 102.95 C 175.07 122.63 165.27 141.17 150.70 154.71 C 134.72 169.79 112.97 178.67 90.98 178.79 C 76.16 179.12 61.28 175.60 48.16 168.69 C 29.14 158.80 13.94 141.82 6.22 121.82 C -1.72 101.50 -1.82 78.24 5.91 57.84 C 16.77 28.44 44.13 5.93 75.14 1.17 M 51.70 31.67 C 51.63 66.06 51.51 100.47 51.76 134.86 C 69.92 142.63 88.00 150.60 106.14 158.43 C 106.29 158.06 106.60 157.33 106.76 156.96 C 107.07 149.72 106.77 142.44 106.88 135.18 C 113.66 135.16 120.44 135.16 127.22 135.18 C 127.40 134.15 127.52 133.10 127.57 132.06 C 127.56 99.70 127.55 67.34 127.58 34.98 C 127.54 33.82 127.44 32.66 127.28 31.51 C 102.09 31.58 76.88 31.26 51.70 31.67 Z" />
</g>
<g id="#0f0f0eff">
<path fill="#0f0f0e" opacity="1.00" d=" M 51.70 31.67 C 76.88 31.26 102.09 31.58 127.28 31.51 C 127.44 32.66 127.54 33.82 127.58 34.98 C 127.55 67.34 127.56 99.70 127.57 132.06 C 127.52 133.10 127.40 134.15 127.22 135.18 C 120.44 135.16 113.66 135.16 106.88 135.18 C 106.77 142.44 107.07 149.72 106.76 156.96 C 106.60 157.33 106.29 158.06 106.14 158.43 C 88.00 150.60 69.92 142.63 51.76 134.86 C 51.51 100.47 51.63 66.06 51.70 31.67 M 59.42 34.25 C 75.27 41.10 91.17 47.87 106.92 54.97 C 106.90 80.87 106.77 106.77 106.98 132.67 C 113.00 132.59 119.01 132.65 125.03 132.63 C 125.21 99.81 125.05 66.99 125.11 34.17 C 103.21 34.14 81.31 33.96 59.42 34.25 M 54.23 34.72 C 54.19 67.50 54.24 100.27 54.20 133.05 C 70.92 140.33 87.67 147.55 104.35 154.90 C 104.38 122.14 104.31 89.39 104.39 56.63 C 87.71 49.24 70.91 42.12 54.23 34.72 Z" />
<path fill="#0f0f0e" opacity="1.00" d=" M 95.31 93.96 C 96.82 92.23 98.30 94.38 97.73 95.98 C 97.68 99.30 97.83 102.64 97.64 105.96 C 97.23 106.14 96.40 106.49 95.99 106.67 L 95.31 105.97 C 95.16 101.97 95.18 97.96 95.31 93.96 Z" />
</g>
<g id="#83b764ff">
<path fill="#83b764" opacity="1.00" d=" M 59.42 34.25 C 81.31 33.96 103.21 34.14 125.11 34.17 C 125.05 66.99 125.21 99.81 125.03 132.63 C 119.01 132.65 113.00 132.59 106.98 132.67 C 106.77 106.77 106.90 80.87 106.92 54.97 C 91.17 47.87 75.27 41.10 59.42 34.25 Z" />
</g>
<g id="#f7f9f9ff">
<path fill="#f7f9f9" opacity="1.00" d=" M 54.23 34.72 C 70.91 42.12 87.71 49.24 104.39 56.63 C 104.31 89.39 104.38 122.14 104.35 154.90 C 87.67 147.55 70.92 140.33 54.20 133.05 C 54.24 100.27 54.19 67.50 54.23 34.72 M 95.31 93.96 C 95.18 97.96 95.16 101.97 95.31 105.97 L 95.99 106.67 C 96.40 106.49 97.23 106.14 97.64 105.96 C 97.83 102.64 97.68 99.30 97.73 95.98 C 98.30 94.38 96.82 92.23 95.31 93.96 Z" />
</g>
</svg>
