<?xml version="1.0" encoding="UTF-8" ?>
<!DOCTYPE svg PUBLIC "-//W3C//DTD SVG 1.1//EN" "http://www.w3.org/Graphics/SVG/1.1/DTD/svg11.dtd">
<svg width="48pt" height="48pt" viewBox="0 0 48 48" version="1.1" xmlns="http://www.w3.org/2000/svg">
<g id="#fbfbfbfe">
<path fill="#fbfbfb" opacity="1.00" d=" M 16.39 0.00 L 32.70 0.00 L 33.00 0.86 C 33.28 3.60 38.05 8.75 30.26 6.26 L 29.83 7.06 C 35.43 9.61 35.98 5.83 37.11 2.39 L 37.92 2.93 C 37.96 4.36 38.03 7.22 38.07 8.65 C 36.06 8.44 30.95 6.85 34.26 9.91 C 39.07 12.78 39.50 8.04 41.09 5.59 C 41.38 5.89 41.96 6.48 42.25 6.77 C 42.20 8.31 42.11 11.38 42.07 12.91 C 40.47 12.00 38.88 10.94 36.98 10.86 C 37.51 11.71 38.07 12.54 38.65 13.35 C 38.80 13.70 39.08 14.41 39.22 14.76 C 39.66 15.92 40.11 17.08 40.58 18.24 C 40.54 19.10 40.24 20.02 40.60 20.86 C 41.06 22.23 41.59 23.58 42.07 24.94 C 40.04 24.61 39.96 26.28 39.87 27.82 C 39.75 28.35 39.51 29.40 39.39 29.93 C 38.25 33.71 34.25 36.56 35.04 40.83 C 36.38 41.13 39.06 41.73 40.40 42.04 C 39.51 42.85 38.57 43.60 37.54 44.23 C 36.21 43.91 33.54 43.27 32.20 42.94 C 32.81 41.25 33.57 39.61 34.04 37.88 C 32.23 39.01 30.74 40.63 30.19 42.74 C 31.54 43.83 32.96 44.82 34.26 45.96 L 33.33 46.30 C 31.19 45.89 29.08 45.33 26.98 44.75 C 27.37 42.79 29.03 41.49 30.01 39.84 C 27.87 40.26 25.90 41.98 25.08 43.95 C 25.74 45.33 26.57 46.63 27.27 48.00 L 21.63 48.00 C 21.14 46.22 23.00 44.89 22.71 43.24 C 21.43 41.77 20.05 40.10 17.99 39.84 C 18.96 41.48 20.62 42.76 20.99 44.71 C 19.22 45.24 17.44 45.78 15.65 46.27 L 14.67 45.97 C 15.48 44.69 16.66 43.73 17.72 42.68 C 17.30 40.55 15.72 39.00 13.95 37.88 C 14.43 39.66 15.21 41.33 15.86 43.05 C 14.34 43.09 11.30 43.16 9.78 43.20 C 9.47 42.90 8.84 42.29 8.53 41.98 C 9.96 41.47 11.43 41.10 12.88 40.66 C 13.58 38.34 12.27 36.32 10.86 34.62 C 10.27 33.32 9.73 32.00 9.13 30.70 L 8.78 29.82 C 8.59 29.33 8.22 28.34 8.03 27.84 C 8.07 25.74 8.49 22.76 5.87 25.10 C 6.38 23.73 6.94 22.38 7.41 20.99 C 7.78 20.11 7.46 19.16 7.43 18.25 C 7.89 17.08 8.33 15.90 8.76 14.72 C 8.90 14.38 9.19 13.70 9.33 13.36 C 9.92 12.54 10.49 11.71 11.03 10.87 C 9.16 10.94 7.60 11.96 6.04 12.87 C 5.92 11.19 5.86 9.50 5.78 7.81 C 6.05 7.52 6.58 6.95 6.85 6.66 C 8.08 10.08 13.56 12.05 15.15 7.97 C 13.44 8.08 11.75 8.37 10.06 8.65 C 9.92 7.07 9.88 5.48 9.81 3.89 C 10.26 3.58 11.17 2.95 11.62 2.64 C 11.78 4.09 11.97 5.54 12.20 6.98 C 13.65 7.00 16.57 7.03 18.03 7.05 L 17.87 6.17 C 9.89 8.91 14.65 3.64 15.03 0.88 C 15.37 0.66 16.05 0.22 16.39 0.00 M 29.23 1.23 C 28.17 2.63 30.37 4.83 31.77 3.77 C 32.83 2.37 30.63 0.17 29.23 1.23 M 24.20 14.14 C 24.71 18.59 16.01 13.05 17.07 16.99 C 21.99 17.81 27.03 17.79 31.96 16.99 C 31.18 14.40 25.28 17.31 24.20 14.14 M 16.03 21.96 C 20.67 22.10 25.31 21.91 29.95 22.03 C 30.08 24.66 30.09 27.28 29.99 29.91 C 28.60 29.96 27.22 29.99 25.83 29.99 L 26.06 30.99 C 32.39 34.55 30.70 29.64 31.04 27.02 C 25.00 21.07 35.85 23.19 31.90 20.31 C 27.33 21.69 22.49 20.80 17.81 20.97 C 18.21 20.42 21.57 18.53 19.07 18.99 C 16.94 18.39 16.66 20.51 16.03 21.96 M 17.02 23.88 C 17.02 25.40 17.01 28.43 17.01 29.95 C 19.95 30.11 22.89 30.10 25.83 29.99 C 26.47 28.55 28.08 23.92 26.31 24.27 C 23.46 23.87 20.55 23.88 17.70 24.27 L 17.02 23.88 Z" />
</g>
<g id="#afb3b1f2">
<path fill="#afb3b1" opacity="0.95" d=" M 11.62 2.64 C 12.68 1.92 13.84 1.35 15.03 0.88 C 14.65 3.64 9.89 8.91 17.87 6.17 L 18.03 7.05 C 16.57 7.03 13.65 7.00 12.20 6.98 C 11.97 5.54 11.78 4.09 11.62 2.64 Z" />
</g>
<g id="#bbbfbeff">
<path fill="#bbbfbe" opacity="1.00" d=" M 29.23 1.23 C 30.63 0.17 32.83 2.37 31.77 3.77 C 30.37 4.83 28.17 2.63 29.23 1.23 Z" />
</g>
<g id="#b4b8b7f0">
<path fill="#b4b8b7" opacity="0.94" d=" M 33.00 0.86 C 34.46 1.11 35.95 1.40 37.11 2.39 C 35.98 5.83 35.43 9.61 29.83 7.06 L 30.26 6.26 C 38.05 8.75 33.28 3.60 33.00 0.86 Z" />
</g>
<g id="#bbbebdf4">
<path fill="#bbbebd" opacity="0.96" d=" M 37.92 2.93 C 39.08 3.69 40.12 4.60 41.09 5.59 C 39.50 8.04 39.07 12.78 34.26 9.91 C 30.95 6.85 36.06 8.44 38.07 8.65 C 38.03 7.22 37.96 4.36 37.92 2.93 Z" />
</g>
<g id="#bbbebdfa">
<path fill="#bbbebd" opacity="0.98" d=" M 6.85 6.66 C 7.77 5.67 8.76 4.73 9.81 3.89 C 9.88 5.48 9.92 7.07 10.06 8.65 C 11.75 8.37 13.44 8.08 15.15 7.97 C 13.56 12.05 8.08 10.08 6.85 6.66 Z" />
</g>
<g id="#b3b7b6f7">
<path fill="#b3b7b6" opacity="0.97" d=" M 42.25 6.77 C 42.85 7.37 43.42 8.00 43.95 8.67 C 44.83 13.86 42.26 14.71 38.65 13.35 C 38.07 12.54 37.51 11.71 36.98 10.86 C 38.88 10.94 40.47 12.00 42.07 12.91 C 42.11 11.38 42.20 8.31 42.25 6.77 Z" />
</g>
<g id="#aeb2b0f7">
<path fill="#aeb2b0" opacity="0.97" d=" M 4.21 9.75 C 4.69 9.07 5.22 8.42 5.78 7.81 C 5.86 9.50 5.92 11.19 6.04 12.87 C 7.60 11.96 9.16 10.94 11.03 10.87 C 10.49 11.71 9.92 12.54 9.33 13.36 C 8.00 13.63 6.66 13.91 5.30 13.93 C 4.93 12.54 4.61 11.13 4.21 9.75 Z" />
</g>
<g id="#f0f1f1f9">
<path fill="#f0f1f1" opacity="0.98" d=" M 38.65 13.35 C 42.26 14.71 44.83 13.86 43.95 8.67 C 45.52 10.77 46.62 13.16 48.00 15.38 L 48.00 25.58 C 46.19 26.52 44.60 27.82 43.06 29.14 C 42.88 28.55 42.51 27.36 42.33 26.77 C 42.26 26.31 42.14 25.40 42.07 24.94 C 45.06 25.51 47.61 22.86 47.05 19.89 C 45.70 21.15 42.53 25.14 42.86 20.85 C 43.21 20.38 43.93 19.43 44.29 18.96 C 45.27 17.65 46.85 16.00 45.84 14.26 C 44.24 13.77 43.88 16.20 43.79 17.29 L 43.05 16.97 C 41.77 16.23 40.51 15.47 39.22 14.76 C 39.08 14.41 38.80 13.70 38.65 13.35 Z" />
</g>
<g id="#eeeeeefb">
<path fill="#eeeeee" opacity="1.00" d=" M 4.21 9.75 C 4.61 11.13 4.93 12.54 5.30 13.93 C 6.66 13.91 8.00 13.63 9.33 13.36 C 9.19 13.70 8.90 14.38 8.76 14.72 C 7.17 15.68 5.71 16.84 4.18 17.89 C 3.67 15.90 3.15 13.91 2.77 11.89 C 3.13 11.35 3.85 10.28 4.21 9.75 Z" />
</g>
<g id="#afb3b1f0">
<path fill="#afb3b1" opacity="0.94" d=" M 1.20 15.95 C 1.62 14.56 2.01 13.13 2.77 11.89 C 3.15 13.91 3.67 15.90 4.18 17.89 C 5.71 16.84 7.17 15.68 8.76 14.72 C 8.33 15.90 7.89 17.08 7.43 18.25 C 4.71 19.82 2.70 18.25 1.20 15.95 Z" />
</g>
<g id="#c0c3c2ff">
<path fill="#c0c3c2" opacity="1.00" d=" M 24.20 14.14 C 25.28 17.31 31.18 14.40 31.96 16.99 C 27.03 17.79 21.99 17.81 17.07 16.99 C 16.01 13.05 24.71 18.59 24.20 14.14 Z" />
</g>
<g id="#b4b8b7ff">
<path fill="#b4b8b7" opacity="1.00" d=" M 43.79 17.29 C 43.88 16.20 44.24 13.77 45.84 14.26 C 46.85 16.00 45.27 17.65 44.29 18.96 C 44.16 18.54 43.91 17.71 43.79 17.29 Z" />
</g>
<g id="#b2b6b4ff">
<path fill="#b2b6b4" opacity="1.00" d=" M 39.22 14.76 C 40.51 15.47 41.77 16.23 43.05 16.97 C 43.53 19.18 42.07 18.79 40.58 18.24 C 40.11 17.08 39.66 15.92 39.22 14.76 Z" />
</g>
<g id="#ecedecfd">
<path fill="#ecedec" opacity="1.00" d=" M 1.20 15.95 C 2.70 18.25 4.71 19.82 7.43 18.25 C 7.46 19.16 7.78 20.11 7.41 20.99 C 5.77 19.17 5.08 22.39 3.92 23.23 C 2.67 21.67 1.62 19.96 0.61 18.24 C 0.76 17.67 1.05 16.52 1.20 15.95 Z" />
</g>
<g id="#dddfdeff">
<path fill="#dddfde" opacity="1.00" d=" M 43.05 16.97 L 43.79 17.29 C 43.91 17.71 44.16 18.54 44.29 18.96 C 43.93 19.43 43.21 20.38 42.86 20.85 C 42.10 20.82 41.35 20.83 40.60 20.86 C 40.24 20.02 40.54 19.10 40.58 18.24 C 42.07 18.79 43.53 19.18 43.05 16.97 Z" />
</g>
<g id="#aeb1b0f2">
<path fill="#aeb1b0" opacity="0.95" d=" M 0.00 17.57 L 0.61 18.24 C 1.62 19.96 2.67 21.67 3.92 23.23 C 5.08 22.39 5.77 19.17 7.41 20.99 C 6.94 22.38 6.38 23.73 5.87 25.10 C 2.92 25.47 1.44 22.81 0.00 20.74 L 0.00 17.57 Z" />
</g>
<g id="#c8cbcaff">
<path fill="#c8cbca" opacity="1.00" d=" M 16.03 21.96 C 16.66 20.51 16.94 18.39 19.07 18.99 C 21.57 18.53 18.21 20.42 17.81 20.97 C 22.49 20.80 27.33 21.69 31.90 20.31 C 35.85 23.19 25.00 21.07 31.04 27.02 C 30.70 29.64 32.39 34.55 26.06 30.99 L 25.83 29.99 C 27.22 29.99 28.60 29.96 29.99 29.91 C 30.09 27.28 30.08 24.66 29.95 22.03 C 25.31 21.91 20.67 22.10 16.03 21.96 Z" />
</g>
<g id="#b0b4b2ff">
<path fill="#b0b4b2" opacity="1.00" d=" M 40.60 20.86 C 41.35 20.83 42.10 20.82 42.86 20.85 C 42.53 25.14 45.70 21.15 47.05 19.89 C 47.61 22.86 45.06 25.51 42.07 24.94 C 41.59 23.58 41.06 22.23 40.60 20.86 Z" />
</g>
<g id="#f1f2f2fb">
<path fill="#f1f2f2" opacity="1.00" d=" M 0.00 20.74 C 1.44 22.81 2.92 25.47 5.87 25.10 C 5.81 25.52 5.71 26.36 5.65 26.78 C 5.48 27.37 5.13 28.54 4.96 29.12 C 3.36 27.93 1.68 26.84 0.00 25.77 L 0.00 20.74 Z" />
</g>
<g id="#b6bab8ff">
<path fill="#b6bab8" opacity="1.00" d=" M 5.87 25.10 C 8.49 22.76 8.07 25.74 8.03 27.84 C 7.40 28.61 6.76 29.36 6.10 30.10 C 5.99 29.27 5.76 27.61 5.65 26.78 C 5.71 26.36 5.81 25.52 5.87 25.10 Z" />
</g>
<g id="#dfe0dfff">
<path fill="#dfe0df" opacity="1.00" d=" M 17.02 23.88 L 17.70 24.27 C 18.01 24.47 18.63 24.86 18.94 25.06 C 17.38 29.90 26.77 29.68 25.05 25.06 C 25.37 24.86 25.99 24.47 26.31 24.27 C 28.08 23.92 26.47 28.55 25.83 29.99 C 22.89 30.10 19.95 30.11 17.01 29.95 C 17.01 28.43 17.02 25.40 17.02 23.88 Z" />
</g>
<g id="#bdc0bfff">
<path fill="#bdc0bf" opacity="1.00" d=" M 17.70 24.27 C 20.55 23.88 23.46 23.87 26.31 24.27 C 25.99 24.47 25.37 24.86 25.05 25.06 C 23.01 25.05 20.97 25.05 18.94 25.06 C 18.63 24.86 18.01 24.47 17.70 24.27 Z" />
</g>
<g id="#ffffffff">
<path fill="#ffffff" opacity="1.00" d=" M 18.94 25.06 C 20.97 25.05 23.01 25.05 25.05 25.06 C 26.77 29.68 17.38 29.90 18.94 25.06 Z" />
</g>
<g id="#b1b6b4ff">
<path fill="#b1b6b4" opacity="1.00" d=" M 39.87 27.82 C 39.96 26.28 40.04 24.61 42.07 24.94 C 42.14 25.40 42.26 26.31 42.33 26.77 C 42.23 27.60 42.02 29.26 41.92 30.09 C 41.22 29.35 40.54 28.59 39.87 27.82 Z" />
</g>
<g id="#aaaeacf1">
<path fill="#aaaeac" opacity="0.95" d=" M 0.00 25.77 C 1.68 26.84 3.36 27.93 4.96 29.12 C 4.90 29.61 4.80 30.60 4.75 31.09 C 3.33 30.65 2.06 29.84 0.76 29.16 L 0.00 28.69 L 0.00 25.77 Z" />
</g>
<g id="#b5b9b7ff">
<path fill="#b5b9b7" opacity="1.00" d=" M 43.06 29.14 C 44.60 27.82 46.19 26.52 48.00 25.58 L 48.00 27.76 C 46.49 28.96 45.24 30.69 43.27 31.13 C 43.22 30.63 43.11 29.64 43.06 29.14 Z" />
</g>
<g id="#d5d7d6ff">
<path fill="#d5d7d6" opacity="1.00" d=" M 4.96 29.12 C 5.13 28.54 5.48 27.37 5.65 26.78 C 5.76 27.61 5.99 29.27 6.10 30.10 C 6.76 29.36 7.40 28.61 8.03 27.84 C 8.22 28.34 8.59 29.33 8.78 29.82 C 8.40 32.22 8.98 36.53 6.15 34.33 C 7.29 32.42 7.12 31.07 4.75 31.09 C 4.80 30.60 4.90 29.61 4.96 29.12 Z" />
<path fill="#d5d7d6" opacity="1.00" d=" M 42.33 26.77 C 42.51 27.36 42.88 28.55 43.06 29.14 C 43.11 29.64 43.22 30.63 43.27 31.13 C 40.87 31.06 40.70 32.38 41.84 34.31 C 39.06 36.58 39.66 32.37 39.39 29.93 C 39.51 29.40 39.75 28.35 39.87 27.82 C 40.54 28.59 41.22 29.35 41.92 30.09 C 42.02 29.26 42.23 27.60 42.33 26.77 Z" />
</g>
<g id="#f5f5f5f8">
<path fill="#f5f5f5" opacity="0.97" d=" M 43.27 31.13 C 45.24 30.69 46.49 28.96 48.00 27.76 L 48.00 31.58 C 47.79 31.94 47.38 32.66 47.18 33.01 C 45.30 33.00 43.44 33.25 41.84 34.31 C 40.70 32.38 40.87 31.06 43.27 31.13 Z" />
</g>
<g id="#f1f2f2f6">
<path fill="#f1f2f2" opacity="0.96" d=" M 0.76 29.16 C 2.06 29.84 3.33 30.65 4.75 31.09 C 7.12 31.07 7.29 32.42 6.15 34.33 C 4.82 33.63 3.37 33.20 1.90 32.91 C 1.44 31.68 1.10 30.42 0.76 29.16 Z" />
</g>
<g id="#a9adacf3">
<path fill="#a9adac" opacity="0.95" d=" M 6.15 34.33 C 8.98 36.53 8.40 32.22 8.78 29.82 L 9.13 30.70 C 9.10 32.43 9.06 34.17 8.89 35.89 C 7.06 35.96 5.21 35.67 3.38 36.00 C 2.72 35.05 2.22 34.01 1.90 32.91 C 3.37 33.20 4.82 33.63 6.15 34.33 Z" />
</g>
<g id="#b9bcbbf6">
<path fill="#b9bcbb" opacity="0.96" d=" M 39.39 29.93 C 39.66 32.37 39.06 36.58 41.84 34.31 C 43.44 33.25 45.30 33.00 47.18 33.01 C 46.71 34.03 46.21 35.04 45.60 35.99 C 43.42 34.93 41.19 37.89 39.23 35.83 C 37.37 34.14 37.51 37.82 36.91 38.91 C 38.48 39.00 41.63 39.18 43.21 39.27 C 42.31 40.23 41.39 41.17 40.40 42.04 C 39.06 41.73 36.38 41.13 35.04 40.83 C 34.25 36.56 38.25 33.71 39.39 29.93 Z" />
</g>
<g id="#e5e6e5f8">
<path fill="#e5e6e5" opacity="0.97" d=" M 9.13 30.70 C 9.73 32.00 10.27 33.32 10.86 34.62 C 10.82 36.03 10.90 37.43 10.85 38.84 C 9.18 39.05 7.49 39.14 5.81 39.25 C 4.85 38.29 4.07 37.16 3.38 36.00 C 5.21 35.67 7.06 35.96 8.89 35.89 C 9.06 34.17 9.10 32.43 9.13 30.70 Z" />
</g>
<g id="#b5b9b7fb">
<path fill="#b5b9b7" opacity="1.00" d=" M 10.85 38.84 C 10.90 37.43 10.82 36.03 10.86 34.62 C 12.27 36.32 13.58 38.34 12.88 40.66 C 11.43 41.10 9.96 41.47 8.53 41.98 C 7.60 41.10 6.68 40.19 5.81 39.25 C 7.49 39.14 9.18 39.05 10.85 38.84 Z" />
</g>
<g id="#f1f1f1f6">
<path fill="#f1f1f1" opacity="0.96" d=" M 36.91 38.91 C 37.51 37.82 37.37 34.14 39.23 35.83 C 41.19 37.89 43.42 34.93 45.60 35.99 C 44.94 37.18 44.17 38.30 43.21 39.27 C 41.63 39.18 38.48 39.00 36.91 38.91 Z" />
</g>
<g id="#b0b3b2ea">
<path fill="#b0b3b2" opacity="0.92" d=" M 13.95 37.88 C 15.72 39.00 17.30 40.55 17.72 42.68 C 16.66 43.73 15.48 44.69 14.67 45.97 C 12.82 45.52 11.04 44.68 9.78 43.20 C 11.30 43.16 14.34 43.09 15.86 43.05 C 15.21 41.33 14.43 39.66 13.95 37.88 Z" />
</g>
<g id="#b6bab8f2">
<path fill="#b6bab8" opacity="0.95" d=" M 30.19 42.74 C 30.74 40.63 32.23 39.01 34.04 37.88 C 33.57 39.61 32.81 41.25 32.20 42.94 C 33.54 43.27 36.21 43.91 37.54 44.23 C 36.52 44.93 35.48 45.65 34.26 45.96 C 32.96 44.82 31.54 43.83 30.19 42.74 Z" />
</g>
<g id="#b0b3b2ef">
<path fill="#b0b3b2" opacity="0.94" d=" M 17.99 39.84 C 20.05 40.10 21.43 41.77 22.71 43.24 C 23.00 44.89 21.14 46.22 21.63 48.00 L 19.38 48.00 C 18.15 47.39 16.90 46.83 15.65 46.27 C 17.44 45.78 19.22 45.24 20.99 44.71 C 20.62 42.76 18.96 41.48 17.99 39.84 Z" />
</g>
<g id="#b1b4b3ed">
<path fill="#b1b4b3" opacity="0.93" d=" M 25.08 43.95 C 25.90 41.98 27.87 40.26 30.01 39.84 C 29.03 41.49 27.37 42.79 26.98 44.75 C 29.08 45.33 31.19 45.89 33.33 46.30 C 32.09 46.85 30.85 47.40 29.63 48.00 L 27.27 48.00 C 26.57 46.63 25.74 45.33 25.08 43.95 Z" />
</g>
</svg>
