<?xml version="1.0" encoding="UTF-8" ?>
<!DOCTYPE svg PUBLIC "-//W3C//DTD SVG 1.1//EN" "http://www.w3.org/Graphics/SVG/1.1/DTD/svg11.dtd">
<svg width="480pt" height="320pt" viewBox="0 0 480 320" version="1.1" xmlns="http://www.w3.org/2000/svg">
<g id="#54860ad7">
<path fill="#54860a" opacity="0.84" d=" M 58.34 55.24 C 90.65 33.75 133.13 28.94 169.54 42.19 C 186.76 48.40 202.53 58.47 215.52 71.36 C 229.70 63.85 245.77 59.22 261.91 60.76 C 278.14 61.31 294.35 64.38 309.38 70.61 C 321.48 75.62 333.69 81.14 346.93 82.13 C 361.29 84.09 376.03 81.81 389.45 76.49 C 394.84 74.60 399.96 72.00 405.41 70.27 L 405.55 69.39 C 405.94 69.40 406.72 69.43 407.10 69.44 C 409.87 67.99 412.86 67.08 415.74 65.90 C 417.12 65.39 418.50 64.86 419.88 64.35 C 419.81 64.58 419.68 65.04 419.62 65.27 C 417.12 66.10 414.68 67.09 412.25 68.09 C 410.71 68.71 409.21 69.40 407.74 70.16 C 406.51 70.74 405.29 71.31 404.06 71.86 C 402.66 72.52 401.27 73.17 399.87 73.81 C 389.12 79.05 377.75 83.41 365.78 84.66 C 355.49 85.50 345.04 85.13 335.00 82.59 C 321.46 79.40 309.30 72.28 295.95 68.52 C 281.73 64.42 266.83 62.72 252.05 63.01 C 239.79 63.50 228.03 67.73 217.20 73.28 C 221.18 77.07 224.57 81.41 227.92 85.75 C 239.01 81.48 251.08 79.71 262.92 80.83 C 279.57 81.38 296.13 84.89 311.46 91.45 C 323.42 96.59 335.75 101.58 348.90 102.32 C 366.99 104.65 384.93 99.20 401.18 91.67 C 402.59 91.20 404.00 90.72 405.43 90.28 L 405.59 89.71 C 409.10 88.65 412.34 86.86 415.88 85.85 C 417.22 85.37 418.56 84.85 419.90 84.35 C 419.83 84.57 419.68 85.02 419.61 85.25 C 418.36 85.73 417.14 86.25 415.93 86.80 C 414.79 87.15 413.63 87.40 412.45 87.55 L 412.29 88.18 C 408.01 89.75 404.07 92.07 399.86 93.80 C 389.12 99.08 377.73 103.40 365.76 104.66 C 355.48 105.50 345.03 105.13 335.00 102.59 C 321.46 99.40 309.29 92.28 295.93 88.51 C 281.37 84.32 266.10 82.63 250.97 83.04 C 243.63 83.60 236.34 85.18 229.45 87.81 C 232.62 92.58 235.67 97.43 238.27 102.54 C 243.77 101.13 249.44 100.78 255.08 100.46 C 272.49 100.78 290.10 103.01 306.40 109.45 C 319.57 114.62 332.58 121.09 346.91 122.13 C 360.72 124.00 374.91 122.01 387.90 117.08 C 392.38 115.45 396.80 113.64 401.18 111.75 C 403.17 110.87 405.19 110.06 407.23 109.29 C 408.31 108.80 409.38 108.28 410.44 107.74 C 412.24 107.12 414.02 106.44 415.84 105.85 C 417.17 105.36 418.50 104.85 419.84 104.35 C 419.80 104.58 419.71 105.03 419.67 105.26 C 418.39 105.72 417.14 106.23 415.90 106.77 C 414.77 107.20 413.60 107.45 412.39 107.52 L 412.37 108.21 C 411.14 108.64 409.93 109.11 408.72 109.57 C 407.83 110.00 406.94 110.44 406.06 110.88 C 404.01 111.92 401.95 112.91 399.85 113.81 C 389.13 119.06 377.78 123.39 365.83 124.65 C 355.33 125.52 344.65 125.11 334.42 122.45 C 321.29 119.25 309.45 112.40 296.49 108.68 C 282.09 104.44 266.98 102.72 252.01 103.01 C 247.77 103.09 243.63 104.02 239.46 104.66 C 242.05 110.36 244.52 116.11 246.39 122.09 C 261.09 120.67 275.98 122.34 290.37 125.47 C 309.53 129.57 326.37 141.39 346.15 143.05 C 360.21 145.03 374.69 143.12 387.93 138.07 C 394.47 135.76 400.75 132.82 407.20 130.28 C 408.37 129.79 409.53 129.29 410.71 128.80 C 411.95 128.34 413.18 127.86 414.41 127.35 C 415.08 127.03 415.79 126.81 416.53 126.67 C 417.78 126.70 419.04 126.72 420.31 126.74 C 418.79 127.06 417.27 127.33 415.76 127.59 C 412.33 129.21 408.73 130.48 405.39 132.30 C 404.24 132.81 403.08 133.33 401.93 133.84 C 389.74 139.83 376.82 145.03 363.11 145.87 C 356.42 146.10 349.68 146.28 343.06 145.13 C 331.08 143.64 319.99 138.67 308.94 134.10 C 289.46 126.01 268.06 123.10 247.07 124.23 C 248.71 129.98 249.97 135.83 250.97 141.72 C 264.73 141.14 278.62 142.67 292.02 145.88 C 310.52 150.19 326.92 161.46 346.13 163.05 C 360.64 165.10 375.58 162.97 389.17 157.60 C 394.68 155.73 399.83 152.94 405.40 151.26 L 405.60 150.72 C 408.09 149.99 410.49 148.98 412.81 147.81 C 413.83 147.52 414.84 147.21 415.87 146.90 C 417.60 146.29 419.29 145.58 420.93 144.75 C 422.07 144.70 423.22 144.66 424.38 144.63 C 424.94 143.82 425.55 143.03 426.15 142.24 C 429.13 143.42 432.17 142.18 435.13 141.62 C 439.59 140.46 444.25 141.14 448.78 140.47 C 448.76 140.68 448.73 141.10 448.71 141.32 C 444.45 141.33 439.97 140.40 435.88 141.97 C 434.82 142.15 433.76 142.31 432.70 142.47 C 429.81 143.19 427.01 144.19 424.42 145.67 C 420.16 144.45 416.68 148.11 412.58 148.65 L 412.34 149.21 C 411.11 149.64 409.90 150.10 408.70 150.57 C 406.53 151.80 404.27 152.86 401.96 153.81 C 400.94 154.31 399.92 154.81 398.92 155.32 C 388.81 160.03 378.27 164.19 367.11 165.48 C 356.00 166.65 344.64 166.17 333.81 163.29 C 320.75 160.00 308.95 153.18 296.01 149.54 C 281.49 145.35 266.26 143.62 251.18 144.06 C 252.06 149.53 252.09 155.07 252.02 160.60 C 267.81 160.37 283.79 162.09 298.90 166.84 C 311.65 170.74 323.41 177.46 336.46 180.44 C 349.64 183.33 363.48 183.78 376.65 180.52 C 385.79 178.48 394.26 174.40 403.01 171.18 C 403.93 170.69 404.86 170.21 405.79 169.73 C 408.20 168.92 410.53 167.91 412.83 166.81 C 415.62 166.01 418.38 165.06 420.98 163.75 C 421.56 163.70 422.72 163.60 423.30 163.54 C 425.83 162.37 428.51 161.60 431.31 161.45 C 434.11 160.52 437.11 160.72 440.01 160.54 C 437.59 160.94 435.16 161.22 432.72 161.49 C 430.10 162.47 427.19 162.29 424.64 163.53 C 422.66 164.24 420.64 164.81 418.64 165.46 C 416.45 166.35 414.25 167.23 412.07 168.15 C 410.94 168.63 409.83 169.13 408.71 169.61 C 407.82 170.04 406.95 170.46 406.08 170.90 C 404.70 171.56 403.31 172.21 401.93 172.86 C 391.11 178.07 379.86 182.88 367.85 184.38 C 356.21 185.73 344.27 185.18 332.95 182.06 C 321.59 179.11 311.22 173.44 300.09 169.82 C 284.65 164.70 268.25 162.74 252.03 163.00 C 252.22 168.96 251.37 174.88 250.53 180.77 C 263.89 180.05 277.38 181.59 290.44 184.49 C 310.19 188.78 327.60 201.12 348.13 202.25 C 366.47 204.80 384.66 199.26 401.19 191.73 C 402.47 191.23 403.74 190.69 405.03 190.20 C 405.57 189.96 406.65 189.48 407.19 189.25 C 409.12 188.47 411.01 187.61 412.91 186.77 C 414.37 186.33 415.83 185.87 417.30 185.44 C 418.49 184.86 419.69 184.30 420.90 183.72 C 421.48 183.67 422.64 183.57 423.22 183.52 C 425.73 182.22 428.51 181.69 431.30 181.45 C 434.10 180.49 437.13 180.74 440.05 180.51 C 437.61 180.92 435.16 181.22 432.71 181.49 C 430.06 182.41 427.16 182.27 424.59 183.44 C 422.60 184.17 420.57 184.79 418.58 185.50 C 416.42 186.37 414.26 187.23 412.12 188.13 C 409.40 189.32 406.73 190.60 404.05 191.87 C 392.53 197.41 380.66 202.80 367.84 204.38 C 356.53 205.69 344.93 205.22 333.89 202.31 C 323.74 199.81 314.38 195.04 304.62 191.42 C 287.30 184.86 268.59 182.60 250.16 183.00 C 248.92 189.12 247.33 195.18 245.37 201.11 C 260.65 199.69 276.13 201.24 291.06 204.64 C 309.94 208.83 326.59 220.42 346.13 222.05 C 359.16 223.87 372.57 222.40 384.99 218.12 C 392.05 215.63 398.99 212.78 405.86 209.78 C 408.22 208.87 410.55 207.86 412.83 206.77 C 414.30 206.32 415.77 205.85 417.26 205.41 C 418.52 204.84 419.78 204.27 421.05 203.70 C 421.59 203.67 422.67 203.60 423.22 203.57 C 424.19 203.09 425.17 202.64 426.17 202.21 C 427.88 201.95 429.59 201.70 431.30 201.44 C 434.12 200.64 437.08 200.64 439.99 200.48 C 437.58 200.90 435.16 201.21 432.73 201.51 C 426.90 202.55 421.30 204.49 415.79 206.65 C 414.50 207.08 413.32 207.77 412.04 208.18 C 410.92 208.65 409.81 209.14 408.70 209.58 C 407.58 210.17 406.44 210.74 405.32 211.32 C 395.24 215.96 385.18 220.98 374.23 223.25 C 356.51 227.00 337.73 224.97 321.01 218.06 C 309.32 213.19 297.56 208.12 285.03 205.83 C 272.76 203.64 260.26 202.29 247.81 203.29 C 246.29 204.36 243.35 200.60 244.23 204.16 C 241.45 211.33 238.16 218.32 234.08 224.84 C 246.62 220.49 260.16 221.25 273.15 222.58 C 282.98 223.62 292.72 225.61 302.06 228.88 C 312.40 232.37 322.13 237.51 332.67 240.45 C 350.23 245.29 369.31 245.01 386.45 238.60 C 392.90 236.45 399.00 233.37 405.47 231.28 L 405.59 230.72 C 407.60 230.12 409.48 229.06 411.54 228.65 C 412.27 228.69 413.72 228.78 414.45 228.82 C 413.22 229.10 412.00 229.36 410.77 229.60 C 409.66 230.17 408.55 230.75 407.45 231.34 C 405.61 232.17 403.78 233.03 401.93 233.85 C 391.13 239.08 379.89 243.86 367.88 245.38 C 355.91 246.78 343.62 246.14 332.00 242.80 C 321.01 239.80 310.91 234.34 300.10 230.83 C 290.66 227.63 280.82 225.72 270.90 224.84 C 258.17 223.26 244.90 223.40 232.69 227.70 C 230.61 229.92 229.16 232.63 227.29 235.01 C 220.91 243.49 213.46 251.23 205.11 257.80 C 219.91 249.55 235.85 241.86 253.15 241.57 C 270.23 241.47 287.53 243.58 303.66 249.44 C 314.14 253.14 324.07 258.38 334.90 261.05 C 351.65 265.21 369.61 264.73 385.89 258.82 C 386.64 258.60 388.12 258.16 388.86 257.94 L 388.83 259.50 C 372.36 266.90 353.36 267.69 335.87 263.81 C 325.80 261.57 316.49 257.05 306.94 253.31 C 289.55 246.35 270.64 243.68 251.99 244.01 C 237.39 244.50 223.86 250.66 211.12 257.28 C 206.10 260.09 200.31 261.34 195.62 264.75 C 177.64 276.63 156.51 283.60 135.02 284.97 C 129.98 285.05 124.95 285.00 119.91 285.00 C 89.53 283.43 59.87 270.22 38.50 248.54 C 17.68 228.04 4.70 199.92 2.22 170.83 C 1.44 157.14 1.93 143.26 5.42 129.93 C 12.78 99.52 32.18 72.35 58.34 55.24 M 113.63 37.88 C 94.97 39.80 76.83 46.21 61.00 56.25 C 37.98 70.84 20.04 93.30 11.08 119.06 C 5.04 136.60 2.61 155.56 4.96 174.01 C 8.14 203.50 22.64 231.58 44.76 251.32 C 63.55 268.37 87.81 279.25 113.03 282.00 C 138.25 285.06 164.35 279.72 186.58 267.46 C 212.10 253.39 232.31 229.92 242.24 202.49 C 252.43 175.18 252.35 144.25 242.07 116.97 C 232.69 91.34 214.26 69.22 190.98 55.03 C 168.02 41.07 140.35 34.74 113.63 37.88 Z" />
</g>
<g id="#629b0bfa">
<path fill="#629b0b" opacity="0.98" d=" M 112.60 45.78 C 138.33 42.57 165.14 48.12 187.21 61.82 C 209.46 75.41 226.85 96.77 235.50 121.37 C 244.83 147.55 244.27 177.12 233.88 202.91 C 223.26 229.65 202.15 252.02 176.08 264.19 C 151.94 275.66 123.76 278.11 97.92 271.43 C 70.58 264.45 46.19 246.86 30.75 223.26 C 11.03 193.69 6.50 154.80 18.49 121.39 C 28.26 93.55 49.28 69.91 75.74 56.86 C 87.28 51.12 99.80 47.35 112.60 45.78 M 114.46 47.76 C 83.05 50.98 53.45 68.32 35.21 94.07 C 20.23 114.70 12.81 140.59 14.21 166.01 C 15.35 187.87 22.91 209.37 36.00 226.94 C 53.03 250.36 79.54 266.70 108.15 271.29 C 133.39 275.59 160.11 271.09 182.39 258.40 C 205.21 245.73 223.18 224.77 232.47 200.40 C 240.12 180.31 241.94 158.04 237.53 137.00 C 231.93 109.02 215.07 83.49 191.58 67.30 C 169.42 51.63 141.39 44.72 114.46 47.76 Z" />
<path fill="#629b0b" opacity="0.98" d=" M 134.35 68.48 C 134.89 69.98 135.06 71.53 134.89 73.13 C 136.12 70.20 139.36 71.16 141.82 71.32 L 142.59 69.52 C 142.76 70.06 143.12 71.13 143.29 71.67 C 143.27 72.28 143.21 73.49 143.18 74.10 C 143.58 74.11 144.38 74.15 144.78 74.17 C 145.46 74.29 146.83 74.54 147.51 74.67 C 145.85 74.90 144.18 75.13 142.52 75.37 C 144.08 75.80 145.67 76.05 147.27 76.32 L 147.17 77.26 C 146.35 77.16 144.72 76.97 143.90 76.87 C 142.92 76.34 141.98 75.75 141.08 75.10 L 140.22 73.71 C 139.66 73.80 138.55 73.98 138.00 74.07 L 138.00 73.14 C 139.38 72.95 140.76 72.74 142.14 72.49 C 140.59 72.22 139.04 71.97 137.49 71.76 C 136.58 73.26 135.05 74.07 133.50 74.75 C 133.74 72.65 133.95 70.55 134.35 68.48 Z" />
<path fill="#629b0b" opacity="0.98" d=" M 117.57 69.19 C 118.29 70.36 118.68 71.68 119.07 72.99 C 119.62 72.94 120.73 72.83 121.29 72.78 C 121.31 71.96 121.35 70.32 121.37 69.50 C 122.38 70.81 122.65 72.44 123.00 74.01 C 121.29 73.91 119.58 73.78 117.87 73.63 C 117.81 74.16 117.71 75.22 117.66 75.75 C 119.81 75.42 121.97 75.08 124.13 74.75 L 124.32 75.69 C 122.38 76.21 119.82 75.85 118.66 77.87 C 120.42 77.88 122.18 77.81 123.94 77.71 C 124.14 79.66 124.50 81.62 124.44 83.59 C 123.62 84.76 121.82 83.49 120.61 83.65 C 120.27 81.82 119.88 80.00 119.41 78.20 C 117.93 80.14 118.97 82.61 118.79 84.81 C 117.36 83.12 117.81 80.37 115.80 79.14 C 115.74 81.45 116.49 83.90 115.46 86.09 C 115.28 85.35 114.90 83.86 114.72 83.12 C 112.61 82.96 110.64 84.70 108.49 84.95 C 109.08 83.61 110.43 83.10 111.60 82.43 C 111.70 80.22 111.75 78.01 111.79 75.80 L 113.23 75.74 C 113.51 77.65 111.37 81.17 113.88 81.92 C 113.98 81.20 114.19 79.78 114.29 79.07 C 115.72 78.56 117.86 78.92 118.39 77.07 C 116.66 76.99 114.89 77.12 113.24 76.52 C 114.39 76.37 116.68 76.09 117.83 75.94 C 116.21 74.90 114.12 73.40 112.27 74.84 C 111.19 74.92 109.04 75.08 107.97 75.17 C 109.44 77.38 110.61 79.80 111.15 82.42 C 108.44 80.75 108.59 77.09 107.38 74.46 C 108.14 74.34 109.67 74.12 110.43 74.01 C 109.66 72.95 109.04 71.82 108.57 70.60 C 109.51 71.42 110.40 72.28 111.25 73.20 C 111.94 73.24 113.32 73.32 114.01 73.35 L 113.44 71.47 C 113.67 71.38 114.12 71.20 114.34 71.11 C 114.68 71.78 115.35 73.11 115.68 73.78 L 117.29 73.15 C 117.36 72.16 117.50 70.18 117.57 69.19 M 121.55 79.08 C 120.89 80.23 121.10 82.11 122.21 82.91 C 123.98 82.69 123.33 78.39 121.55 79.08 Z" />
<path fill="#629b0b" opacity="0.98" d=" M 131.54 70.26 C 133.04 69.57 133.85 72.24 133.01 73.22 C 131.54 73.94 130.82 71.21 131.54 70.26 Z" />
<path fill="#629b0b" opacity="0.98" d=" M 93.36 78.52 C 93.84 77.21 94.36 75.89 95.27 74.82 C 95.25 75.56 95.21 77.05 95.18 77.80 C 96.64 77.62 97.94 75.84 99.51 76.21 C 99.45 80.15 102.45 83.36 103.27 87.14 C 103.15 88.71 101.22 88.92 100.19 89.75 C 99.95 89.48 99.48 88.92 99.24 88.64 C 99.94 88.29 101.34 87.57 102.04 87.22 C 100.70 83.98 99.04 80.88 97.95 77.55 C 93.58 79.71 89.12 81.78 84.48 83.31 C 85.56 81.84 87.30 81.20 88.78 80.25 C 88.59 79.61 88.21 78.31 88.02 77.67 C 89.01 78.29 90.01 78.91 91.00 79.54 C 91.59 79.28 92.77 78.78 93.36 78.52 Z" />
<path fill="#629b0b" opacity="0.98" d=" M 130.23 74.54 C 133.73 74.70 137.21 75.14 140.71 75.38 L 140.03 75.90 C 137.86 76.09 135.68 76.17 133.52 76.33 C 134.57 77.15 135.24 78.82 136.75 78.81 C 137.68 78.00 138.60 77.17 139.53 76.35 C 138.92 78.52 138.54 80.74 138.14 82.96 C 137.85 83.60 137.25 84.88 136.95 85.51 C 136.98 84.04 136.94 82.56 136.83 81.09 C 135.90 80.20 134.96 79.33 134.02 78.45 L 134.01 80.59 C 133.55 79.95 132.65 78.69 132.19 78.05 C 132.10 78.49 131.93 79.37 131.84 79.81 C 131.33 80.39 130.30 81.57 129.78 82.15 C 130.28 79.89 131.71 78.05 132.97 76.17 C 132.28 75.76 130.92 74.95 130.23 74.54 Z" />
<path fill="#629b0b" opacity="0.98" d=" M 143.01 78.66 C 143.09 78.51 143.25 78.20 143.33 78.04 C 144.05 78.00 145.48 77.92 146.20 77.88 C 145.91 80.22 145.80 82.62 145.20 84.91 C 143.87 86.58 141.42 85.29 139.85 84.58 C 141.50 84.21 143.60 84.80 144.78 83.22 C 143.76 83.14 141.72 82.97 140.69 82.89 L 141.20 82.14 C 141.89 82.13 143.25 82.12 143.93 82.11 C 145.91 81.17 142.74 80.11 141.91 80.91 L 142.35 80.14 C 144.48 81.19 145.89 78.05 143.01 78.66 Z" />
<path fill="#629b0b" opacity="0.98" d=" M 99.45 87.51 C 97.47 85.74 95.01 82.49 96.25 79.73 C 97.60 82.20 98.74 84.79 99.45 87.51 Z" />
<path fill="#629b0b" opacity="0.98" d=" M 86.80 84.24 C 89.02 83.27 91.24 82.29 93.45 81.30 C 94.77 84.20 96.29 87.03 97.19 90.09 C 97.10 91.84 94.62 91.55 93.60 92.42 C 94.80 91.07 96.28 89.68 95.19 87.74 C 93.72 88.38 92.25 89.04 90.79 89.71 C 91.25 91.23 91.68 92.76 92.00 94.32 C 89.27 91.57 88.46 87.62 86.80 84.24 M 88.01 84.93 C 89.28 85.60 90.55 86.26 91.79 87.00 L 89.39 87.05 L 90.44 88.86 C 91.82 87.83 94.19 87.57 94.59 85.56 L 93.16 85.89 C 93.12 85.14 93.02 83.63 92.98 82.88 C 91.30 83.52 89.65 84.21 88.01 84.93 Z" />
<path fill="#629b0b" opacity="0.98" d=" M 151.54 82.72 C 154.06 83.35 156.46 84.38 158.86 85.36 C 159.39 84.88 160.46 83.91 160.99 83.43 C 159.28 88.04 166.15 86.67 167.59 89.98 C 165.05 89.22 162.61 88.17 160.18 87.14 C 159.42 88.58 158.88 90.26 157.32 91.04 C 157.71 89.51 158.18 88.01 158.66 86.51 C 156.21 85.43 153.33 84.89 151.54 82.72 Z" />
<path fill="#629b0b" opacity="0.98" d=" M 70.94 90.86 C 72.64 88.78 74.76 87.11 77.01 85.66 C 77.26 87.26 77.48 88.86 77.69 90.47 C 78.61 90.46 80.44 90.44 81.36 90.43 C 79.92 91.34 78.40 92.23 76.76 92.71 C 75.12 92.39 73.56 91.77 71.94 91.36 C 73.45 91.06 74.95 90.73 76.44 90.37 C 76.45 89.65 76.46 88.21 76.46 87.50 C 74.69 88.73 72.91 89.96 70.94 90.86 Z" />
<path fill="#629b0b" opacity="0.98" d=" M 52.14 110.41 C 54.61 107.46 56.25 103.72 59.52 101.53 C 58.24 104.71 55.94 107.29 53.98 110.04 C 57.08 112.25 60.16 114.50 63.25 116.72 C 65.50 114.16 66.69 110.27 70.03 108.93 C 68.15 112.39 65.59 115.40 63.33 118.61 C 59.62 115.85 55.82 113.21 52.14 110.41 Z" />
<path fill="#629b0b" opacity="0.98" d=" M 48.76 114.61 C 49.54 112.88 51.49 112.58 53.09 112.00 C 52.93 114.26 50.38 114.07 48.76 114.61 Z" />
<path fill="#629b0b" opacity="0.98" d=" M 51.91 117.81 C 51.77 115.35 54.70 115.62 56.36 115.09 C 55.37 116.68 53.55 117.18 51.91 117.81 Z" />
<path fill="#629b0b" opacity="0.98" d=" M 56.76 116.81 C 59.16 117.37 60.09 119.84 61.54 121.54 C 61.14 121.95 60.74 122.36 60.34 122.78 C 59.03 120.86 57.72 118.94 56.76 116.81 Z" />
</g>
<g id="#0f180128">
<path fill="#0f1801" opacity="0.16" d=" M 143.29 71.67 L 143.93 71.57 C 144.24 72.04 144.86 72.98 145.17 73.45 L 144.78 74.17 C 144.38 74.15 143.58 74.11 143.18 74.10 C 143.21 73.49 143.27 72.28 143.29 71.67 Z" />
<path fill="#0f1801" opacity="0.16" d=" M 142.35 80.14 C 142.51 79.77 142.85 79.03 143.01 78.66 C 145.89 78.05 144.48 81.19 142.35 80.14 Z" />
<path fill="#0f1801" opacity="0.16" d=" M 420.19 224.13 C 429.34 221.00 439.04 219.76 448.68 220.39 C 448.67 220.65 448.65 221.15 448.64 221.40 C 438.21 222.45 427.66 224.01 417.92 228.07 C 416.80 228.47 415.65 228.93 414.45 228.82 C 413.72 228.78 412.27 228.69 411.54 228.65 C 413.43 225.70 417.19 225.32 420.19 224.13 Z" />
</g>
<g id="#649f0cff">
<path fill="#649f0c" opacity="1.00" d=" M 143.93 71.57 C 145.05 71.17 146.19 71.25 147.32 71.81 C 148.78 72.94 146.10 74.08 145.17 73.45 C 144.86 72.98 144.24 72.04 143.93 71.57 Z" />
<path fill="#649f0c" opacity="1.00" d=" M 153.77 78.45 C 156.08 76.70 158.93 75.90 161.59 74.85 C 160.43 76.28 159.21 77.65 158.06 79.08 C 159.46 79.99 161.06 80.46 162.75 80.32 C 163.48 78.94 164.02 77.33 165.42 76.45 C 165.17 77.43 164.67 79.39 164.41 80.37 C 166.32 80.11 168.22 79.92 170.14 79.78 C 168.24 82.10 164.34 80.45 162.65 83.13 C 164.01 83.86 165.39 84.57 166.79 85.25 C 167.62 84.36 168.47 83.49 169.34 82.64 C 169.21 84.22 168.42 85.53 167.30 86.61 C 165.16 85.36 160.79 85.21 161.91 81.67 C 160.48 81.38 159.07 81.05 157.65 80.74 C 157.19 81.39 156.25 82.69 155.79 83.34 C 156.11 81.61 156.63 79.92 157.23 78.27 C 156.36 78.31 154.64 78.40 153.77 78.45 Z" />
<path fill="#649f0c" opacity="1.00" d=" M 68.66 90.91 C 69.24 90.67 70.39 90.19 70.97 89.95 C 69.97 93.00 74.08 94.22 74.59 97.02 C 75.75 95.38 77.41 94.25 78.98 93.04 C 79.77 93.21 81.34 93.56 82.12 93.73 C 81.77 94.53 81.07 96.15 80.72 96.96 C 82.39 96.46 84.07 95.94 85.77 95.52 C 84.09 98.35 80.43 97.90 77.61 98.06 C 78.64 99.41 79.63 100.79 80.40 102.31 C 78.04 101.18 76.94 98.49 74.52 97.51 C 74.87 99.17 74.57 100.76 73.56 102.14 L 73.08 102.03 C 73.30 101.22 73.75 99.60 73.98 98.79 C 72.72 100.19 71.27 101.28 69.45 100.25 C 69.15 100.45 68.55 100.85 68.25 101.04 C 69.30 98.73 67.15 97.09 65.99 95.37 C 65.45 95.45 64.38 95.60 63.84 95.68 C 64.91 94.69 65.98 93.69 67.03 92.67 C 67.45 93.07 67.88 93.47 68.30 93.88 L 65.86 95.10 L 70.29 94.03 L 67.76 96.13 C 68.40 96.89 69.04 97.65 69.67 98.42 C 70.53 97.58 71.40 96.73 72.26 95.88 C 70.92 94.33 69.83 92.59 68.66 90.91 M 77.40 96.84 C 78.82 97.70 80.97 95.73 80.11 94.27 C 78.83 93.73 76.76 95.52 77.40 96.84 M 70.52 99.55 C 71.82 99.79 73.48 98.38 73.58 97.09 C 72.26 96.79 70.59 98.23 70.52 99.55 Z" />
<path fill="#649f0c" opacity="1.00" d=" M 73.11 105.97 C 73.37 104.03 74.79 101.38 76.50 100.45 C 76.30 102.38 75.14 105.50 73.11 105.97 Z" />
<path fill="#649f0c" opacity="1.00" d=" M 199.19 115.22 C 200.73 114.73 202.28 114.25 203.84 113.78 C 207.68 126.58 211.68 139.33 215.53 152.12 C 216.94 155.99 214.24 160.49 210.27 161.30 C 208.71 161.54 206.85 163.56 205.49 162.06 C 207.52 159.31 212.18 157.07 210.69 153.01 C 206.90 140.40 202.95 127.84 199.19 115.22 Z" />
<path fill="#649f0c" opacity="1.00" d=" M 175.68 123.92 C 180.64 122.44 185.59 120.95 190.52 119.36 C 190.76 120.06 191.24 121.46 191.48 122.16 C 189.69 122.78 187.90 123.39 186.11 124.01 C 187.36 128.15 188.65 132.28 189.89 136.43 C 191.98 135.83 194.08 135.23 196.18 134.64 C 196.32 135.31 196.60 136.66 196.74 137.33 C 194.83 138.19 192.81 138.78 190.82 139.39 C 193.28 147.89 196.27 156.25 198.36 164.85 C 196.87 165.24 195.39 165.64 193.90 166.03 C 191.24 157.64 188.74 149.19 186.14 140.78 C 183.98 141.45 181.82 142.10 179.67 142.75 C 179.46 142.05 179.06 140.65 178.85 139.95 C 180.98 139.24 183.11 138.55 185.25 137.87 C 183.99 133.69 182.69 129.53 181.43 125.36 C 179.72 125.86 178.02 126.36 176.32 126.86 C 176.16 126.13 175.84 124.66 175.68 123.92 Z" />
<path fill="#649f0c" opacity="1.00" d=" M 193.47 123.13 C 194.99 122.72 196.50 122.31 198.02 121.89 C 200.93 131.32 203.85 140.74 206.64 150.21 C 205.10 150.67 203.55 151.13 202.01 151.59 C 199.20 142.09 196.05 132.69 193.47 123.13 Z" />
<path fill="#649f0c" opacity="1.00" d=" M 152.83 129.33 C 154.27 128.91 155.72 128.49 157.16 128.06 C 161.10 141.11 165.31 154.08 169.22 167.13 C 170.24 169.66 168.61 172.03 167.28 174.05 C 164.90 174.04 163.02 175.57 160.98 176.56 C 160.79 176.20 160.40 175.50 160.20 175.15 C 161.63 173.46 163.40 172.04 164.50 170.09 C 163.20 162.94 160.32 156.15 158.49 149.11 C 152.72 151.00 146.96 152.98 141.06 154.39 C 140.76 153.76 140.17 152.48 139.87 151.85 C 142.05 151.14 144.24 150.45 146.44 149.80 C 146.02 148.35 145.60 146.91 145.17 145.48 C 143.23 146.05 141.31 146.75 139.30 147.06 C 138.96 146.44 138.28 145.22 137.94 144.61 C 140.02 143.91 142.11 143.25 144.21 142.61 C 143.77 141.04 143.34 139.46 142.90 137.89 C 140.61 138.59 138.32 139.31 136.03 140.03 C 138.88 149.37 141.78 158.71 144.59 168.07 C 145.67 171.57 144.41 175.20 143.39 178.55 C 142.75 180.16 142.50 182.40 140.25 182.60 C 140.31 178.86 141.60 175.07 140.49 171.39 C 137.03 159.69 133.25 148.08 129.90 136.35 C 131.44 135.90 132.99 135.45 134.55 135.01 C 134.69 135.54 134.97 136.59 135.11 137.12 C 141.03 135.36 146.91 133.45 152.85 131.78 C 152.85 131.17 152.83 129.95 152.83 129.33 M 147.50 136.54 C 147.98 138.05 148.46 139.56 148.94 141.07 C 151.19 140.48 153.55 140.21 155.70 139.27 C 155.03 137.67 154.40 136.07 153.74 134.47 C 151.67 135.19 149.58 135.87 147.50 136.54 M 153.97 140.38 L 154.91 142.45 C 153.22 142.98 151.53 143.51 149.84 144.04 C 150.27 145.47 150.70 146.90 151.13 148.33 C 153.10 147.75 155.06 147.15 157.02 146.55 L 157.44 147.79 L 157.92 147.64 C 157.33 145.51 156.69 143.39 156.00 141.29 L 157.00 141.16 C 156.24 140.96 154.73 140.57 153.97 140.38 Z" />
<path fill="#649f0c" opacity="1.00" d=" M 90.29 151.62 C 97.74 149.45 105.08 146.88 112.61 144.98 C 112.72 145.69 112.94 147.11 113.04 147.82 C 111.69 148.22 110.33 148.63 108.98 149.04 C 109.46 150.71 109.94 152.38 110.43 154.06 C 112.05 153.58 113.68 153.11 115.31 152.63 C 115.60 153.29 116.19 154.60 116.49 155.26 C 114.80 155.85 113.11 156.43 111.41 157.01 C 111.99 158.95 112.59 160.89 113.23 162.81 C 114.93 162.22 116.63 161.63 118.34 161.04 C 118.60 161.76 119.13 163.21 119.39 163.93 C 108.57 167.15 97.82 170.62 87.00 173.84 C 86.83 173.10 86.49 171.64 86.32 170.91 C 88.17 170.35 90.03 169.78 91.89 169.22 C 91.33 167.29 90.76 165.37 90.19 163.45 C 88.35 164.01 86.50 164.58 84.65 165.14 C 84.60 163.99 83.94 162.68 84.94 161.71 C 86.98 158.03 85.24 153.65 84.53 149.82 C 86.42 149.27 88.30 148.72 90.19 148.19 C 90.21 149.05 90.26 150.76 90.29 151.62 M 104.64 155.78 C 105.12 155.68 106.09 155.49 106.57 155.39 C 106.04 153.68 105.63 151.90 104.74 150.33 C 101.85 150.24 104.66 154.15 104.64 155.78 M 97.39 152.48 C 98.15 154.24 98.05 156.71 99.89 157.75 C 101.40 156.17 99.57 153.99 99.40 152.19 C 98.90 152.27 97.89 152.41 97.39 152.48 M 91.63 153.77 C 92.57 155.62 91.99 159.73 95.09 159.18 C 94.27 157.18 94.59 153.79 91.63 153.77 M 105.68 158.83 C 106.24 160.74 106.82 162.65 107.38 164.57 C 107.83 164.39 108.72 164.03 109.17 163.86 C 108.58 161.95 107.99 160.04 107.41 158.13 C 106.98 158.31 106.11 158.66 105.68 158.83 M 88.30 160.11 C 88.89 160.60 88.89 160.60 88.30 160.11 M 100.17 160.60 C 100.56 162.75 100.54 166.07 103.38 166.36 C 102.89 164.09 102.29 161.84 101.62 159.62 C 101.26 159.86 100.53 160.35 100.17 160.60 M 94.13 162.21 C 95.13 164.20 94.55 168.24 97.68 167.88 C 97.16 165.79 96.56 163.73 95.95 161.68 C 95.49 161.81 94.58 162.08 94.13 162.21 Z" />
<path fill="#649f0c" opacity="1.00" d=" M 152.34 153.36 C 153.65 153.04 154.97 152.72 156.28 152.40 C 158.10 158.23 159.95 164.05 161.58 169.94 C 160.07 170.36 158.56 170.78 157.05 171.18 C 156.68 170.13 156.31 169.09 155.94 168.05 C 154.88 168.41 153.81 168.77 152.75 169.14 C 153.00 169.92 153.50 171.50 153.75 172.28 C 152.27 172.76 150.80 173.24 149.33 173.72 C 147.03 167.97 145.61 161.93 143.67 156.07 C 144.98 155.72 146.29 155.39 147.61 155.08 C 148.81 155.53 150.07 155.76 151.35 155.81 C 151.60 155.20 152.10 153.97 152.34 153.36 M 149.71 159.03 C 150.43 161.46 151.18 163.89 151.93 166.32 C 152.95 165.94 153.95 165.52 154.94 165.07 C 154.49 162.64 153.63 160.32 152.88 157.97 C 151.82 158.32 150.77 158.67 149.71 159.03 Z" />
<path fill="#649f0c" opacity="1.00" d=" M 46.53 161.84 C 48.16 161.35 49.79 160.85 51.42 160.36 C 51.82 161.92 52.21 163.47 52.60 165.03 C 56.79 163.91 60.90 162.54 65.07 161.35 C 65.15 162.05 65.32 163.46 65.40 164.17 C 61.66 165.74 57.65 166.55 53.84 167.93 C 57.57 170.38 62.15 170.17 66.40 169.79 C 66.54 171.45 66.71 173.13 66.92 174.80 C 67.54 174.63 68.78 174.29 69.41 174.12 C 69.65 174.89 70.13 176.42 70.37 177.19 C 69.08 177.53 67.79 177.88 66.49 178.22 C 68.33 185.22 70.96 192.01 72.57 199.06 C 72.75 203.95 67.11 205.03 63.53 206.30 C 63.82 203.74 66.59 202.74 67.95 200.81 C 66.47 193.68 63.71 186.84 61.82 179.80 C 54.08 182.07 46.40 184.58 38.64 186.80 C 38.53 186.13 38.30 184.78 38.19 184.10 C 43.49 181.20 46.78 175.55 48.19 169.81 C 43.78 170.71 39.61 172.44 35.23 173.44 C 34.96 172.79 34.43 171.49 34.16 170.84 C 38.62 169.29 43.19 168.09 47.65 166.53 C 47.27 164.97 46.90 163.40 46.53 161.84 M 52.38 170.69 C 51.02 174.88 48.30 178.37 45.30 181.51 C 51.18 179.63 57.13 178.01 62.96 175.98 C 59.06 175.06 55.37 173.40 52.38 170.69 Z" />
<path fill="#649f0c" opacity="1.00" d=" M 109.41 167.05 C 110.89 166.77 112.36 166.48 113.84 166.20 C 114.08 167.06 114.56 168.78 114.80 169.64 C 116.51 169.13 118.23 168.63 119.95 168.13 C 122.20 171.39 118.10 171.79 115.93 172.49 C 116.32 174.16 116.72 175.83 117.11 177.51 C 119.08 176.97 121.04 176.43 123.00 175.89 C 123.29 176.80 123.57 177.72 123.85 178.63 C 121.94 179.25 120.03 179.85 118.12 180.46 C 118.96 183.07 119.88 185.66 120.46 188.34 C 119.87 189.81 117.64 189.48 116.37 190.11 C 115.55 187.29 114.69 184.48 113.81 181.69 C 112.32 182.19 110.84 182.71 109.37 183.24 C 108.61 184.05 107.84 184.87 107.07 185.68 C 105.71 182.25 106.91 178.59 106.08 175.08 C 105.58 174.31 105.20 173.49 104.93 172.62 C 106.61 172.09 108.32 171.63 110.02 171.15 C 109.80 169.78 109.60 168.42 109.41 167.05 M 107.85 174.31 C 111.39 173.96 110.83 177.36 110.49 179.72 C 111.32 179.42 112.15 179.13 112.98 178.84 C 112.48 177.25 112.00 175.66 111.52 174.08 C 110.29 174.16 109.07 174.24 107.85 174.31 Z" />
<path fill="#649f0c" opacity="1.00" d=" M 92.34 172.54 C 93.95 172.11 95.55 171.68 97.16 171.26 C 97.18 172.18 97.22 174.01 97.24 174.92 C 97.81 174.81 98.95 174.58 99.52 174.47 C 99.55 173.90 99.60 172.77 99.63 172.20 C 101.22 171.84 102.81 171.49 104.40 171.15 C 104.16 173.50 104.78 175.77 104.99 178.08 C 104.74 184.08 102.12 189.80 98.35 194.41 C 97.51 195.82 95.78 195.97 94.36 196.35 C 96.35 192.92 98.81 189.71 99.91 185.84 C 98.66 184.77 97.45 183.67 96.25 182.55 C 95.02 185.22 95.08 189.84 91.18 189.81 C 93.02 184.24 93.78 178.30 92.34 172.54 M 96.42 179.67 C 97.87 180.13 99.33 180.57 100.79 181.01 C 100.76 179.67 100.73 178.35 100.70 177.02 C 99.13 177.65 97.23 177.97 96.42 179.67 Z" />
<path fill="#649f0c" opacity="1.00" d=" M 54.48 184.56 C 55.82 184.15 57.15 183.73 58.48 183.31 C 60.26 188.83 61.99 194.37 63.54 199.95 C 61.61 200.40 59.40 201.77 57.85 199.77 C 56.38 200.14 54.92 200.53 53.46 200.93 C 53.61 201.65 53.92 203.10 54.07 203.82 C 52.53 204.23 51.00 204.64 49.47 205.04 C 47.75 199.26 45.89 193.51 44.21 187.71 C 45.56 187.29 46.91 186.87 48.26 186.46 C 49.70 188.29 51.83 186.80 53.65 186.54 C 53.86 186.04 54.28 185.06 54.48 184.56 M 50.18 190.63 C 50.94 193.11 51.70 195.60 52.44 198.09 C 54.14 197.61 55.84 197.10 57.54 196.60 C 56.75 194.10 55.98 191.60 55.25 189.09 C 53.56 189.60 51.86 190.11 50.18 190.63 Z" />
</g>
<g id="#304c067b">
<path fill="#304c06" opacity="0.48" d=" M 140.71 75.38 L 141.08 75.10 C 141.98 75.75 142.92 76.34 143.90 76.87 L 143.33 78.04 C 143.25 78.20 143.09 78.51 143.01 78.66 C 142.85 79.03 142.51 79.77 142.35 80.14 L 141.91 80.91 C 141.74 81.21 141.38 81.83 141.20 82.14 L 140.69 82.89 C 140.06 82.91 138.78 82.94 138.14 82.96 C 138.54 80.74 138.92 78.52 139.53 76.35 L 140.03 75.90 L 140.71 75.38 Z" />
</g>
<g id="#34520685">
<path fill="#345206" opacity="0.52" d=" M 132.19 78.05 C 132.65 78.69 133.55 79.95 134.01 80.59 C 133.99 81.72 133.98 82.85 133.96 83.98 C 133.48 84.25 132.53 84.77 132.05 85.03 C 131.94 83.29 131.87 81.55 131.84 79.81 C 131.93 79.37 132.10 78.49 132.19 78.05 Z" />
</g>
<g id="#4b7709c0">
<path fill="#4b7709" opacity="0.75" d=" M 71.48 103.95 C 71.12 102.49 71.65 101.85 73.08 102.03 C 73.24 103.45 72.71 104.09 71.48 103.95 Z" />
</g>
<g id="#0e170126">
<path fill="#0e1701" opacity="0.15" d=" M 419.47 124.42 C 428.51 121.22 438.16 119.63 447.76 120.39 C 447.76 120.65 447.76 121.17 447.76 121.43 C 442.80 122.09 437.84 122.75 432.90 123.50 C 428.59 124.13 424.64 126.30 420.31 126.74 C 419.04 126.72 417.78 126.70 416.53 126.67 C 417.31 125.65 418.29 124.90 419.47 124.42 Z" />
<path fill="#0e1701" opacity="0.15" d=" M 401.79 251.65 C 416.51 244.66 432.65 238.57 449.24 240.61 C 448.33 241.33 447.23 241.66 446.09 241.70 C 440.65 242.26 435.24 243.13 429.87 244.22 C 415.48 247.64 402.52 255.04 388.82 260.38 L 388.83 259.50 L 388.86 257.94 C 388.12 258.16 386.64 258.60 385.89 258.82 C 390.84 255.71 396.57 254.22 401.79 251.65 Z" />
</g>
<g id="#2b450570">
<path fill="#2b4505" opacity="0.44" d=" M 88.30 160.11 C 88.89 160.60 88.89 160.60 88.30 160.11 Z" />
</g>
<g id="#5a8f0ae6">
<path fill="#5a8f0a" opacity="0.90" d=" M 140.64 216.92 C 146.21 214.91 151.86 213.13 157.44 211.13 C 157.67 212.45 157.90 213.77 158.12 215.10 C 153.96 216.47 149.81 217.86 145.66 219.24 C 146.04 220.27 146.43 221.31 146.82 222.35 C 150.81 221.02 154.79 219.64 158.82 218.44 C 159.47 222.09 160.17 225.72 160.76 229.38 C 158.70 230.72 156.78 232.34 154.50 233.32 C 152.14 233.64 149.75 233.58 147.38 233.75 C 146.66 232.01 145.92 230.28 145.18 228.56 C 146.34 228.08 147.50 227.62 148.67 227.16 C 149.08 228.16 149.50 229.16 149.92 230.16 C 152.30 229.92 154.59 229.22 156.65 227.97 C 156.43 226.40 156.21 224.85 155.99 223.29 C 152.24 224.67 148.45 225.97 144.60 227.05 C 143.32 223.66 141.96 220.29 140.64 216.92 Z" />
<path fill="#5a8f0a" opacity="0.90" d=" M 123.89 219.03 C 128.65 217.27 133.38 215.43 138.22 213.92 C 138.43 222.11 139.10 230.30 138.91 238.50 C 137.19 239.03 135.48 239.57 133.76 240.12 C 133.32 233.91 133.55 227.68 133.19 221.46 C 130.60 222.42 127.98 223.33 125.34 224.16 C 124.86 222.45 124.37 220.73 123.89 219.03 Z" />
</g>
</svg>
