<?xml version="1.0" encoding="UTF-8" ?>
<!DOCTYPE svg PUBLIC "-//W3C//DTD SVG 1.1//EN" "http://www.w3.org/Graphics/SVG/1.1/DTD/svg11.dtd">
<svg width="64pt" height="64pt" viewBox="0 0 64 64" version="1.1" xmlns="http://www.w3.org/2000/svg">
<g id="#27661bff">
<path fill="#27661b" opacity="1.00" d=" M 25.40 4.68 C 37.85 1.47 51.78 8.10 57.33 19.64 C 61.79 28.59 60.87 39.96 55.09 48.12 C 49.78 55.82 40.45 60.63 31.05 60.08 C 16.80 59.99 3.97 47.27 3.94 32.97 C 3.27 20.02 12.77 7.54 25.40 4.68 M 29.19 9.30 C 18.43 10.46 9.59 20.22 9.27 31.00 C 8.54 41.07 15.58 50.80 25.11 53.82 C 32.58 56.39 41.31 54.51 47.14 49.20 C 53.06 43.99 55.91 35.63 54.50 27.89 C 52.62 16.34 40.80 7.59 29.19 9.30 Z" />
<path fill="#27661b" opacity="1.00" d=" M 30.21 13.98 C 30.27 11.86 33.89 11.86 33.86 14.03 C 34.04 20.37 34.03 26.74 33.87 33.09 C 33.63 33.40 33.17 34.02 32.93 34.33 C 28.64 34.65 24.32 34.49 20.02 34.45 C 17.82 34.86 16.93 31.40 19.06 30.67 C 22.71 30.38 26.39 30.61 30.05 30.57 C 30.27 25.04 29.93 19.50 30.21 13.98 Z" />
</g>
<g id="#f7f7f7ff">
<path fill="#f7f7f7" opacity="1.00" d=" M 29.19 9.30 C 40.80 7.59 52.62 16.34 54.50 27.89 C 55.91 35.63 53.06 43.99 47.14 49.20 C 41.31 54.51 32.58 56.39 25.11 53.82 C 15.58 50.80 8.54 41.07 9.27 31.00 C 9.59 20.22 18.43 10.46 29.19 9.30 M 30.21 13.98 C 29.93 19.50 30.27 25.04 30.05 30.57 C 26.39 30.61 22.71 30.38 19.06 30.67 C 16.93 31.40 17.82 34.86 20.02 34.45 C 24.32 34.49 28.64 34.65 32.93 34.33 C 33.17 34.02 33.63 33.40 33.87 33.09 C 34.03 26.74 34.04 20.37 33.86 14.03 C 33.89 11.86 30.27 11.86 30.21 13.98 Z" />
</g>
</svg>
