<?xml version="1.0" encoding="UTF-8" ?>
<!DOCTYPE svg PUBLIC "-//W3C//DTD SVG 1.1//EN" "http://www.w3.org/Graphics/SVG/1.1/DTD/svg11.dtd">
<svg width="64pt" height="64pt" viewBox="0 0 64 64" version="1.1" xmlns="http://www.w3.org/2000/svg">
<g id="#004b7dff">
<path fill="#004b7d" opacity="1.00" d=" M 25.49 4.65 C 40.54 0.66 57.29 11.65 59.68 27.00 C 62.64 41.71 51.81 57.31 37.00 59.65 C 21.98 62.78 6.02 51.26 4.17 36.06 C 1.90 22.14 11.70 7.64 25.49 4.65 M 29.30 9.28 C 17.76 10.41 8.54 21.48 9.24 33.00 C 9.46 42.40 16.31 51.00 25.21 53.79 C 32.88 56.37 41.82 54.27 47.61 48.64 C 53.62 43.00 56.19 34.00 54.02 26.05 C 51.34 15.42 40.20 7.77 29.30 9.28 Z" />
<path fill="#004b7d" opacity="1.00" d=" M 30.21 14.02 C 30.05 11.81 33.98 11.85 33.78 14.05 C 34.15 19.37 33.78 24.72 33.95 30.05 C 33.80 31.45 34.28 33.32 32.90 34.27 C 28.62 34.63 24.30 34.46 20.01 34.40 C 17.81 34.82 16.89 31.35 19.06 30.66 C 22.72 30.31 26.40 30.59 30.07 30.52 C 30.19 25.02 29.85 19.51 30.21 14.02 Z" />
</g>
<g id="#f7f7f7ff">
<path fill="#f7f7f7" opacity="1.00" d=" M 29.30 9.28 C 40.20 7.77 51.34 15.42 54.02 26.05 C 56.19 34.00 53.62 43.00 47.61 48.64 C 41.82 54.27 32.88 56.37 25.21 53.79 C 16.31 51.00 9.46 42.40 9.24 33.00 C 8.54 21.48 17.76 10.41 29.30 9.28 M 30.21 14.02 C 29.85 19.51 30.19 25.02 30.07 30.52 C 26.40 30.59 22.72 30.31 19.06 30.66 C 16.89 31.35 17.81 34.82 20.01 34.40 C 24.30 34.46 28.62 34.63 32.90 34.27 C 34.28 33.32 33.80 31.45 33.95 30.05 C 33.78 24.72 34.15 19.37 33.78 14.05 C 33.98 11.85 30.05 11.81 30.21 14.02 Z" />
</g>
</svg>
