<?xml version="1.0" encoding="UTF-8" ?>
<!DOCTYPE svg PUBLIC "-//W3C//DTD SVG 1.1//EN" "http://www.w3.org/Graphics/SVG/1.1/DTD/svg11.dtd">
<svg width="48pt" height="48pt" viewBox="0 0 48 48" version="1.1" xmlns="http://www.w3.org/2000/svg">
<g id="#15171aff">
<path fill="#15171a" opacity="1.00" d=" M 18.95 0.00 L 28.18 0.00 C 33.36 0.65 39.28 0.85 43.17 4.84 C 47.13 8.66 47.34 14.53 48.00 19.65 L 48.00 28.12 C 47.31 33.32 47.09 39.25 43.15 43.18 C 39.36 47.13 33.53 47.40 28.44 48.00 L 19.92 48.00 C 14.71 47.32 8.76 47.12 4.82 43.15 C 0.86 39.35 0.60 33.51 0.00 28.41 L 0.00 19.75 C 0.64 14.58 0.86 8.69 4.85 4.83 C 8.50 1.02 14.07 0.78 18.95 0.00 M 18.37 6.58 C 12.58 8.31 7.87 13.20 6.38 19.06 C 3.71 27.65 8.82 37.68 17.24 40.74 C 21.55 42.44 26.43 42.43 30.75 40.74 C 39.44 37.60 44.55 27.07 41.40 18.33 C 38.74 8.93 27.54 3.25 18.37 6.58 Z" />
<path fill="#15171a" opacity="1.00" d=" M 17.43 10.73 C 20.49 9.72 23.87 8.62 27.07 9.64 C 32.43 11.17 35.94 16.03 38.38 20.74 C 40.48 24.71 38.86 29.73 35.48 32.43 C 32.91 34.54 29.97 36.21 26.89 37.47 C 21.60 39.59 15.13 37.49 11.98 32.77 C 9.21 29.17 10.18 24.34 10.81 20.21 C 11.36 16.25 13.55 12.24 17.43 10.73 Z" />
</g>
<g id="#ffffffff">
<path fill="#ffffff" opacity="1.00" d=" M 18.37 6.58 C 27.54 3.25 38.74 8.93 41.40 18.33 C 44.55 27.07 39.44 37.60 30.75 40.74 C 26.43 42.43 21.55 42.44 17.24 40.74 C 8.82 37.68 3.71 27.65 6.38 19.06 C 7.87 13.20 12.58 8.31 18.37 6.58 M 17.43 10.73 C 13.55 12.24 11.36 16.25 10.81 20.21 C 10.18 24.34 9.21 29.17 11.98 32.77 C 15.13 37.49 21.60 39.59 26.89 37.47 C 29.97 36.21 32.91 34.54 35.48 32.43 C 38.86 29.73 40.48 24.71 38.38 20.74 C 35.94 16.03 32.43 11.17 27.07 9.64 C 23.87 8.62 20.49 9.72 17.43 10.73 Z" />
</g>
</svg>
