<?xml version="1.0" encoding="UTF-8" ?>
<!DOCTYPE svg PUBLIC "-//W3C//DTD SVG 1.1//EN" "http://www.w3.org/Graphics/SVG/1.1/DTD/svg11.dtd">
<svg width="64pt" height="64pt" viewBox="0 0 64 64" version="1.1" xmlns="http://www.w3.org/2000/svg">
<g id="#ffffffff">
<path fill="#ffffff" opacity="1.00" d=" M 0.00 0.00 L 64.00 0.00 L 64.00 64.00 L 39.37 64.00 C 47.15 61.98 53.90 55.22 54.78 47.08 C 55.22 38.53 48.49 31.54 48.72 23.02 C 48.78 19.23 50.39 15.73 51.09 12.06 C 48.68 10.28 45.62 12.07 43.43 13.39 C 38.52 16.79 37.99 23.21 37.11 28.60 C 35.75 23.86 34.86 18.87 35.87 13.97 C 36.32 9.94 38.38 6.13 37.98 2.02 C 35.53 1.60 33.57 3.35 31.73 4.68 C 27.50 7.94 23.78 12.53 23.44 18.08 C 23.16 22.98 24.03 27.87 24.16 32.77 C 22.74 29.16 21.59 25.09 18.35 22.66 C 16.65 21.15 14.29 21.03 12.16 20.63 C 12.67 25.71 14.26 31.09 12.01 35.99 C 9.94 40.72 8.17 46.03 9.82 51.18 C 11.98 57.89 18.51 61.89 24.86 64.00 L 0.00 64.00 L 0.00 0.00 Z" />
<path fill="#ffffff" opacity="1.00" d=" M 27.39 16.03 C 28.34 12.71 30.91 10.25 33.31 7.90 C 30.95 17.25 31.18 27.93 37.29 35.84 C 38.38 37.41 40.45 35.40 40.42 33.97 C 41.21 27.69 40.33 20.06 46.00 15.72 C 45.47 19.16 44.63 22.64 45.20 26.14 C 46.02 33.06 50.62 38.93 51.17 45.90 C 51.22 51.85 46.67 56.32 42.20 59.57 C 42.55 55.37 41.66 51.21 41.66 47.02 C 40.89 44.64 38.42 47.23 36.92 47.50 C 36.48 42.59 34.18 37.18 29.06 35.63 C 27.51 35.52 27.22 37.38 27.68 38.44 C 28.53 41.22 28.98 44.10 29.05 47.02 C 27.30 45.13 25.30 42.78 22.41 43.38 C 21.91 46.24 22.92 49.19 22.02 52.02 C 21.16 54.66 21.68 57.39 22.41 60.00 C 18.62 57.82 14.50 55.32 12.99 50.96 C 11.28 46.27 13.41 41.42 15.24 37.12 C 16.96 33.38 16.65 29.21 16.58 25.21 C 20.23 29.35 20.93 34.92 20.89 40.22 C 21.45 40.46 22.56 40.93 23.12 41.16 C 24.71 38.97 26.47 36.73 26.99 34.00 C 28.38 28.06 25.77 21.94 27.39 16.03 Z" />
<path fill="#ffffff" opacity="1.00" d=" M 32.99 43.02 C 33.45 46.98 33.38 51.01 34.08 54.95 C 34.20 56.16 34.88 56.88 36.12 57.11 C 37.25 55.52 38.16 53.80 39.17 52.14 C 39.75 56.54 37.65 60.40 35.44 64.00 L 28.77 64.00 C 27.60 61.31 26.06 58.77 25.22 55.95 C 25.03 53.79 25.60 51.66 25.92 49.53 C 26.80 51.31 25.90 55.37 28.91 54.84 C 31.77 51.58 32.18 47.08 32.99 43.02 Z" />
</g>
<g id="#d94c2eff">
<path fill="#d94c2e" opacity="1.00" d=" M 31.73 4.68 C 33.57 3.35 35.53 1.60 37.98 2.02 C 38.38 6.13 36.32 9.94 35.87 13.97 C 34.86 18.87 35.75 23.86 37.11 28.60 C 37.99 23.21 38.52 16.79 43.43 13.39 C 45.62 12.07 48.68 10.28 51.09 12.06 C 50.39 15.73 48.78 19.23 48.72 23.02 C 48.49 31.54 55.22 38.53 54.78 47.08 C 53.90 55.22 47.15 61.98 39.37 64.00 L 35.44 64.00 C 37.65 60.40 39.75 56.54 39.17 52.14 C 38.16 53.80 37.25 55.52 36.12 57.11 C 34.88 56.88 34.20 56.16 34.08 54.95 C 33.38 51.01 33.45 46.98 32.99 43.02 C 32.18 47.08 31.77 51.58 28.91 54.84 C 25.90 55.37 26.80 51.31 25.92 49.53 C 25.60 51.66 25.03 53.79 25.22 55.95 C 26.06 58.77 27.60 61.31 28.77 64.00 L 24.86 64.00 C 18.51 61.89 11.98 57.89 9.82 51.18 C 8.17 46.03 9.94 40.72 12.01 35.99 C 14.26 31.09 12.67 25.71 12.16 20.63 C 14.29 21.03 16.65 21.15 18.35 22.66 C 21.59 25.09 22.74 29.16 24.16 32.77 C 24.03 27.87 23.16 22.98 23.44 18.08 C 23.78 12.53 27.50 7.94 31.73 4.68 M 27.39 16.03 C 25.77 21.94 28.38 28.06 26.99 34.00 C 26.47 36.73 24.71 38.97 23.12 41.16 C 22.56 40.93 21.45 40.46 20.89 40.22 C 20.93 34.92 20.23 29.35 16.58 25.21 C 16.65 29.21 16.96 33.38 15.24 37.12 C 13.41 41.42 11.28 46.27 12.99 50.96 C 14.50 55.32 18.62 57.82 22.41 60.00 C 21.68 57.39 21.16 54.66 22.02 52.02 C 22.92 49.19 21.91 46.24 22.41 43.38 C 25.30 42.78 27.30 45.13 29.05 47.02 C 28.98 44.10 28.53 41.22 27.68 38.44 C 27.22 37.38 27.51 35.52 29.06 35.63 C 34.18 37.18 36.48 42.59 36.92 47.50 C 38.42 47.23 40.89 44.64 41.66 47.02 C 41.66 51.21 42.55 55.37 42.20 59.57 C 46.67 56.32 51.22 51.85 51.17 45.90 C 50.62 38.93 46.02 33.06 45.20 26.14 C 44.63 22.64 45.47 19.16 46.00 15.72 C 40.33 20.06 41.21 27.69 40.42 33.97 C 40.45 35.40 38.38 37.41 37.29 35.84 C 31.18 27.93 30.95 17.25 33.31 7.90 C 30.91 10.25 28.34 12.71 27.39 16.03 Z" />
</g>
</svg>
