<?xml version="1.0" encoding="UTF-8" ?>
<!DOCTYPE svg PUBLIC "-//W3C//DTD SVG 1.1//EN" "http://www.w3.org/Graphics/SVG/1.1/DTD/svg11.dtd">
<svg width="32pt" height="32pt" viewBox="0 0 32 32" version="1.1" xmlns="http://www.w3.org/2000/svg">
<g id="#363636ff">
<path fill="#363636" opacity="1.00" d=" M 0.00 0.00 L 32.00 0.00 L 32.00 32.00 L 0.00 32.00 L 0.00 0.00 M 4.04 11.10 C 4.05 11.76 4.07 13.08 4.09 13.73 C 3.99 15.25 3.99 16.76 4.11 18.27 C 3.93 19.82 3.94 21.39 4.03 22.94 C 10.28 23.15 16.56 23.10 22.81 22.88 C 25.09 23.35 28.77 23.12 27.91 19.81 C 28.14 17.27 28.15 14.73 27.92 12.19 C 28.75 8.87 25.09 8.65 22.80 9.13 C 18.66 8.76 14.38 8.83 10.27 9.29 C 8.17 9.50 2.99 7.34 4.04 11.10 Z" />
</g>
<g id="#848484ff">
<path fill="#848484" opacity="1.00" d=" M 4.04 11.10 C 2.99 7.34 8.17 9.50 10.27 9.29 C 8.19 9.91 6.11 10.48 4.04 11.10 Z" />
</g>
<g id="#5d5d5dff">
<path fill="#5d5d5d" opacity="1.00" d=" M 10.27 9.29 C 14.38 8.83 18.66 8.76 22.80 9.13 C 24.56 10.06 26.23 11.14 27.92 12.19 C 28.15 14.73 28.14 17.27 27.91 19.81 C 26.23 20.86 24.56 21.94 22.81 22.88 C 16.56 23.10 10.28 23.15 4.03 22.94 C 3.94 21.39 3.93 19.82 4.11 18.27 C 6.83 18.52 6.82 13.44 4.09 13.73 C 4.07 13.08 4.05 11.76 4.04 11.10 C 6.11 10.48 8.19 9.91 10.27 9.29 M 7.08 15.16 C 7.06 15.61 7.02 16.53 7.00 16.99 C 5.29 23.37 15.10 18.49 18.15 19.93 L 18.96 19.97 C 22.59 20.58 26.42 21.08 24.77 16.78 L 25.09 15.94 L 24.99 14.99 C 25.65 12.47 24.55 11.32 22.02 12.00 C 19.22 13.71 10.05 8.67 10.74 14.43 L 10.22 14.35 C 11.07 10.42 5.03 11.53 7.08 15.16 Z" />
</g>
<g id="#8d8d8dff">
<path fill="#8d8d8d" opacity="1.00" d=" M 22.80 9.13 C 25.09 8.65 28.75 8.87 27.92 12.19 C 26.23 11.14 24.56 10.06 22.80 9.13 Z" />
</g>
<g id="#bcbcbcff">
<path fill="#bcbcbc" opacity="1.00" d=" M 7.08 15.16 C 5.03 11.53 11.07 10.42 10.22 14.35 C 9.18 14.64 8.14 14.91 7.08 15.16 Z" />
</g>
<g id="#b5b5b5ff">
<path fill="#b5b5b5" opacity="1.00" d=" M 10.74 14.43 C 10.05 8.67 19.22 13.71 22.02 12.00 C 21.61 12.98 21.22 13.97 20.85 14.97 C 17.48 14.96 14.03 15.32 10.74 14.43 Z" />
<path fill="#b5b5b5" opacity="1.00" d=" M 7.00 16.99 C 9.96 17.01 12.92 17.03 15.89 17.07 C 16.64 18.03 17.39 18.98 18.15 19.93 C 15.10 18.49 5.29 23.37 7.00 16.99 Z" />
</g>
<g id="#ccccccff">
<path fill="#cccccc" opacity="1.00" d=" M 22.02 12.00 C 24.55 11.32 25.65 12.47 24.99 14.99 C 23.61 14.99 22.23 14.98 20.85 14.97 C 21.22 13.97 21.61 12.98 22.02 12.00 Z" />
</g>
<g id="#7c7c7cff">
<path fill="#7c7c7c" opacity="1.00" d=" M 4.09 13.73 C 6.82 13.44 6.83 18.52 4.11 18.27 C 3.99 16.76 3.99 15.25 4.09 13.73 Z" />
</g>
<g id="#767676ff">
<path fill="#767676" opacity="1.00" d=" M 10.22 14.35 L 10.74 14.43 C 14.03 15.32 17.48 14.96 20.85 14.97 C 22.23 14.98 23.61 14.99 24.99 14.99 L 25.09 15.94 C 22.02 16.28 18.95 16.67 15.89 17.07 C 12.92 17.03 9.96 17.01 7.00 16.99 C 7.02 16.53 7.06 15.61 7.08 15.16 C 8.14 14.91 9.18 14.64 10.22 14.35 Z" />
</g>
<g id="#979797ff">
<path fill="#979797" opacity="1.00" d=" M 15.89 17.07 C 18.95 16.67 22.02 16.28 25.09 15.94 L 24.77 16.78 C 23.36 18.17 21.93 18.84 20.58 17.01 C 20.57 18.26 19.92 19.22 18.96 19.97 L 18.15 19.93 C 17.39 18.98 16.64 18.03 15.89 17.07 Z" />
</g>
<g id="#bdbdbdff">
<path fill="#bdbdbd" opacity="1.00" d=" M 20.58 17.01 C 21.93 18.84 23.36 18.17 24.77 16.78 C 26.42 21.08 22.59 20.58 18.96 19.97 C 19.92 19.22 20.57 18.26 20.58 17.01 Z" />
</g>
<g id="#8c8c8cff">
<path fill="#8c8c8c" opacity="1.00" d=" M 22.81 22.88 C 24.56 21.94 26.23 20.86 27.91 19.81 C 28.77 23.12 25.09 23.35 22.81 22.88 Z" />
</g>
</svg>
