<?xml version="1.0" encoding="UTF-8" ?>
<!DOCTYPE svg PUBLIC "-//W3C//DTD SVG 1.1//EN" "http://www.w3.org/Graphics/SVG/1.1/DTD/svg11.dtd">
<svg width="32pt" height="32pt" viewBox="0 0 32 32" version="1.1" xmlns="http://www.w3.org/2000/svg">
<g id="#000000e3">
<path fill="#000000" opacity="0.89" d=" M 15.26 5.17 C 15.63 5.17 16.37 5.17 16.74 5.17 C 21.99 12.11 26.30 19.74 32.00 26.35 L 32.00 27.21 C 30.71 27.11 29.42 26.97 28.14 26.79 C 23.95 21.52 20.74 15.57 16.75 10.16 C 16.36 10.15 15.59 10.13 15.20 10.11 C 11.36 15.06 8.74 20.89 4.79 25.76 C 3.72 27.35 1.62 26.87 0.00 27.23 L 0.00 26.36 C 5.69 19.74 10.01 12.11 15.26 5.17 Z" />
</g>
<g id="#07030210">
<path fill="#070302" opacity="0.06" d=" M 15.20 10.11 C 15.59 10.13 16.36 10.15 16.75 10.16 C 20.74 15.57 23.95 21.52 28.14 26.79 C 29.42 26.97 30.71 27.11 32.00 27.21 L 32.00 32.00 L 0.00 32.00 L 0.00 27.23 C 1.62 26.87 3.72 27.35 4.79 25.76 C 8.74 20.89 11.36 15.06 15.20 10.11 M 14.17 18.27 C 11.97 21.08 9.37 23.68 7.96 27.01 C 9.21 27.06 10.45 27.00 11.68 26.82 C 12.02 22.95 17.88 26.44 19.60 25.17 C 19.80 27.60 22.33 26.92 24.04 27.01 C 22.40 23.56 19.95 20.28 17.08 17.89 C 17.79 19.59 18.00 22.70 15.19 21.88 C 13.03 21.32 16.17 17.28 14.17 18.27 Z" />
</g>
<g id="#d4543ed7">
<path fill="#d4543e" opacity="0.84" d=" M 14.17 18.27 C 16.17 17.28 13.03 21.32 15.19 21.88 C 18.00 22.70 17.79 19.59 17.08 17.89 C 19.95 20.28 22.40 23.56 24.04 27.01 C 22.33 26.92 19.80 27.60 19.60 25.17 C 17.88 26.44 12.02 22.95 11.68 26.82 C 10.45 27.00 9.21 27.06 7.96 27.01 C 9.37 23.68 11.97 21.08 14.17 18.27 Z" />
</g>
</svg>
