<?xml version="1.0" encoding="UTF-8" ?>
<!DOCTYPE svg PUBLIC "-//W3C//DTD SVG 1.1//EN" "http://www.w3.org/Graphics/SVG/1.1/DTD/svg11.dtd">
<svg width="147pt" height="151pt" viewBox="0 0 147 151" version="1.1" xmlns="http://www.w3.org/2000/svg">
<g id="#435d75e3">
<path fill="#435d75" opacity="0.89" d=" M 27.10 0.00 L 27.31 0.00 C 28.26 1.29 29.47 2.40 30.99 3.00 C 29.64 3.83 28.40 4.82 27.17 5.81 C 25.90 4.91 24.67 3.97 23.45 3.00 C 24.77 2.14 25.97 1.10 27.10 0.00 Z" />
<path fill="#435d75" opacity="0.89" d=" M 103.04 16.01 C 104.09 14.90 105.21 13.85 106.33 12.79 C 107.22 13.87 108.17 14.90 109.04 16.00 C 108.17 17.10 107.22 18.13 106.33 19.21 C 105.22 18.16 104.10 17.11 103.04 16.01 Z" />
<path fill="#435d75" opacity="0.89" d=" M 52.06 19.01 C 53.08 17.87 54.21 16.83 55.33 15.79 C 56.22 16.87 57.17 17.90 58.04 19.00 C 57.17 20.11 56.22 21.14 55.32 22.22 C 54.22 21.16 53.11 20.11 52.06 19.01 Z" />
<path fill="#435d75" opacity="0.89" d=" M 114.05 26.12 C 115.02 24.90 116.20 23.86 117.32 22.78 C 118.22 23.86 119.17 24.90 120.05 26.00 C 119.18 27.10 118.23 28.13 117.33 29.20 C 116.23 28.18 115.13 27.16 114.05 26.12 Z" />
<path fill="#435d75" opacity="0.89" d=" M 5.43 30.98 C 7.02 30.31 8.17 29.01 9.32 27.77 C 10.21 28.85 11.17 29.89 12.03 31.00 C 11.17 32.10 10.22 33.14 9.33 34.23 C 8.18 32.98 6.98 31.73 5.43 30.98 Z" />
<path fill="#435d75" opacity="0.89" d=" M 139.04 37.00 C 140.10 35.89 141.22 34.84 142.33 33.78 C 143.22 34.86 144.17 35.90 145.03 37.01 C 144.17 38.11 143.22 39.14 142.33 40.22 C 141.21 39.17 140.10 38.11 139.04 37.00 Z" />
<path fill="#435d75" opacity="0.89" d=" M 134.84 50.80 C 136.01 49.89 137.10 48.87 138.31 48.01 C 139.27 48.95 140.22 49.91 141.09 50.93 C 140.21 52.06 139.24 53.12 138.33 54.23 C 137.17 53.07 136.02 51.93 134.84 50.80 Z" />
<path fill="#435d75" opacity="0.89" d=" M 9.05 62.00 C 10.11 60.88 11.22 59.83 12.33 58.77 C 13.22 59.85 14.17 60.90 15.03 62.01 C 14.16 63.12 13.22 64.15 12.32 65.23 C 11.22 64.17 10.10 63.11 9.05 62.00 Z" />
<path fill="#435d75" opacity="0.89" d=" M 135.04 99.00 C 136.09 97.89 137.21 96.84 138.32 95.78 C 139.22 96.86 140.17 97.89 141.04 99.00 C 140.17 100.11 139.22 101.14 138.32 102.22 C 137.21 101.16 136.10 100.11 135.04 99.00 Z" />
<path fill="#435d75" opacity="0.89" d=" M 0.00 112.31 C 1.13 111.78 1.91 110.72 3.06 110.25 C 4.33 110.65 5.14 112.01 6.00 112.99 C 5.16 114.08 4.15 115.07 3.06 115.92 C 2.03 115.16 1.11 114.26 0.00 113.61 L 0.00 112.31 Z" />
<path fill="#435d75" opacity="0.89" d=" M 122.06 123.01 C 123.10 121.89 124.21 120.82 125.33 119.77 C 126.22 120.85 127.17 121.90 128.03 123.02 C 127.17 124.12 126.22 125.14 125.33 126.22 C 124.22 125.16 123.11 124.12 122.06 123.01 Z" />
<path fill="#435d75" opacity="0.89" d=" M 18.05 136.00 C 19.10 134.88 20.22 133.83 21.33 132.77 C 22.22 133.86 23.17 134.90 24.03 136.01 C 23.17 137.11 22.22 138.14 21.33 139.21 C 20.22 138.16 19.10 137.11 18.05 136.00 Z" />
<path fill="#435d75" opacity="0.89" d=" M 140.03 137.00 C 141.10 135.90 142.21 134.85 143.32 133.78 C 144.22 134.86 145.17 135.90 146.05 137.00 C 145.17 138.10 144.21 139.14 143.31 140.22 C 142.21 139.15 141.09 138.10 140.03 137.00 Z" />
<path fill="#435d75" opacity="0.89" d=" M 109.09 140.86 C 110.16 139.81 111.25 138.80 112.33 137.78 C 113.22 138.86 114.17 139.89 115.03 140.99 C 114.17 142.10 113.23 143.14 112.34 144.22 C 111.26 143.11 109.93 142.17 109.09 140.86 Z" />
<path fill="#435d75" opacity="0.89" d=" M 40.12 146.84 C 41.17 145.80 42.25 144.80 43.33 143.79 C 44.23 144.86 45.18 145.90 46.04 147.01 C 45.17 148.11 44.22 149.14 43.32 150.22 C 42.29 149.08 40.84 148.19 40.12 146.84 Z" />
</g>
<g id="#bbbdbfff">
<path fill="#bbbdbf" opacity="1.00" d=" M 66.09 28.16 C 79.15 26.92 92.66 29.91 103.58 37.29 C 116.77 45.96 126.11 60.30 128.48 75.93 C 130.90 90.68 127.23 106.35 118.42 118.44 C 109.88 130.36 96.56 138.74 82.11 141.26 C 69.70 143.31 56.55 141.61 45.42 135.58 C 29.93 127.60 18.64 112.08 15.77 94.90 C 13.37 81.10 16.10 66.41 23.65 54.58 C 32.79 39.91 48.87 29.84 66.09 28.16 M 57.15 32.21 C 42.68 36.43 29.96 46.68 23.23 60.23 C 16.87 72.39 15.69 86.81 19.20 100.01 C 21.89 99.05 24.55 97.91 27.40 97.49 C 35.52 96.70 43.56 103.69 43.18 112.02 C 43.57 117.75 39.69 122.45 35.29 125.59 C 47.02 136.10 63.53 141.94 79.22 139.39 C 101.13 136.76 120.27 119.55 125.32 98.08 C 129.01 83.51 126.24 67.49 117.92 54.99 C 109.37 41.76 94.84 32.57 79.21 30.60 C 71.87 28.90 64.32 30.49 57.15 32.21 M 20.14 103.01 C 22.70 109.62 26.18 115.92 30.92 121.22 C 31.66 122.06 32.40 122.90 33.14 123.74 C 39.24 121.08 42.92 113.43 39.87 107.22 C 37.75 102.05 32.13 99.52 26.79 99.56 C 24.47 100.50 22.22 101.61 20.14 103.01 Z" />
<path fill="#bbbdbf" opacity="1.00" d=" M 103.16 49.13 C 104.41 49.14 105.67 49.15 106.92 49.17 C 106.91 50.40 106.91 51.64 106.90 52.88 C 105.65 52.87 104.39 52.85 103.14 52.84 C 103.14 51.60 103.15 50.36 103.16 49.13 Z" />
<path fill="#bbbdbf" opacity="1.00" d=" M 43.19 53.12 C 44.42 53.14 45.65 53.15 46.88 53.17 C 46.91 54.40 46.93 55.63 46.96 56.86 C 45.68 56.85 44.39 56.85 43.10 56.84 C 43.13 55.60 43.16 54.36 43.19 53.12 Z" />
<path fill="#bbbdbf" opacity="1.00" d=" M 30.15 67.11 C 31.42 67.12 32.69 67.13 33.96 67.15 C 33.93 68.41 33.91 69.67 33.89 70.93 C 32.65 70.90 31.41 70.87 30.16 70.84 C 30.16 69.59 30.15 68.35 30.15 67.11 Z" />
<path fill="#bbbdbf" opacity="1.00" d=" M 84.37 73.42 C 94.63 70.58 105.86 78.42 107.02 88.92 C 108.45 97.40 103.14 106.23 95.09 109.11 C 86.25 112.46 75.29 108.11 71.55 99.34 C 66.71 89.17 72.95 75.36 84.37 73.42 M 72.27 93.04 C 72.76 100.76 79.28 106.60 86.57 108.13 C 94.25 108.54 102.11 103.83 104.22 96.23 C 107.17 87.52 101.01 77.45 92.14 75.57 C 81.87 72.78 70.96 82.54 72.27 93.04 Z" />
<path fill="#bbbdbf" opacity="1.00" d=" M 53.14 96.19 C 54.40 96.15 55.66 96.11 56.92 96.06 C 56.91 97.32 56.91 98.58 56.90 99.84 C 55.67 99.84 54.44 99.85 53.22 99.86 C 53.19 98.63 53.16 97.41 53.14 96.19 Z" />
<path fill="#bbbdbf" opacity="1.00" d=" M 97.10 118.44 C 97.91 118.20 99.53 117.73 100.34 117.49 C 100.58 118.83 100.82 120.17 101.05 121.51 C 100.18 121.66 98.42 121.96 97.54 122.11 C 97.39 120.88 97.24 119.66 97.10 118.44 Z" />
</g>
<g id="#a6a8abff">
<path fill="#a6a8ab" opacity="1.00" d=" M 57.15 32.21 C 64.32 30.49 71.87 28.90 79.21 30.60 C 76.40 30.66 73.60 30.89 70.80 31.10 C 87.81 36.75 102.38 50.16 108.06 67.32 C 106.50 69.55 104.01 71.96 105.08 74.96 C 105.79 77.60 108.93 77.94 110.99 79.05 C 111.50 92.53 108.70 106.61 100.34 117.49 C 99.53 117.73 97.91 118.20 97.10 118.44 C 97.24 119.66 97.39 120.88 97.54 122.11 C 93.71 124.29 91.02 127.92 87.45 130.45 C 82.45 134.20 76.66 136.62 70.87 138.86 C 73.65 139.08 76.43 139.32 79.22 139.39 C 63.53 141.94 47.02 136.10 35.29 125.59 C 39.69 122.45 43.57 117.75 43.18 112.02 C 43.56 103.69 35.52 96.70 27.40 97.49 C 24.55 97.91 21.89 99.05 19.20 100.01 C 15.69 86.81 16.87 72.39 23.23 60.23 C 29.96 46.68 42.68 36.43 57.15 32.21 M 59.26 48.26 C 54.01 49.65 51.93 57.27 56.05 60.96 C 59.65 65.12 67.75 63.53 68.92 57.94 C 71.04 52.30 64.80 46.30 59.26 48.26 M 43.19 53.12 C 43.16 54.36 43.13 55.60 43.10 56.84 C 44.39 56.85 45.68 56.85 46.96 56.86 C 46.93 55.63 46.91 54.40 46.88 53.17 C 45.65 53.15 44.42 53.14 43.19 53.12 M 30.15 67.11 C 30.15 68.35 30.16 69.59 30.16 70.84 C 31.41 70.87 32.65 70.90 33.89 70.93 C 33.91 69.67 33.93 68.41 33.96 67.15 C 32.69 67.13 31.42 67.12 30.15 67.11 M 84.37 73.42 C 72.95 75.36 66.71 89.17 71.55 99.34 C 75.29 108.11 86.25 112.46 95.09 109.11 C 103.14 106.23 108.45 97.40 107.02 88.92 C 105.86 78.42 94.63 70.58 84.37 73.42 M 53.14 96.19 C 53.16 97.41 53.19 98.63 53.22 99.86 C 54.44 99.85 55.67 99.84 56.90 99.84 C 56.91 98.58 56.91 97.32 56.92 96.06 C 55.66 96.11 54.40 96.15 53.14 96.19 M 53.19 112.23 C 49.60 113.51 48.71 118.96 51.69 121.31 C 54.68 123.52 59.88 122.07 60.20 118.02 C 61.19 114.10 56.74 110.83 53.19 112.23 Z" />
</g>
<g id="#989a9dff">
<path fill="#989a9d" opacity="1.00" d=" M 70.80 31.10 C 73.60 30.89 76.40 30.66 79.21 30.60 C 94.84 32.57 109.37 41.76 117.92 54.99 C 126.24 67.49 129.01 83.51 125.32 98.08 C 120.27 119.55 101.13 136.76 79.22 139.39 C 76.43 139.32 73.65 139.08 70.87 138.86 C 76.66 136.62 82.45 134.20 87.45 130.45 C 91.02 127.92 93.71 124.29 97.54 122.11 C 98.42 121.96 100.18 121.66 101.05 121.51 C 100.82 120.17 100.58 118.83 100.34 117.49 C 108.70 106.61 111.50 92.53 110.99 79.05 C 113.11 77.26 116.05 75.21 115.20 71.96 C 114.67 68.53 110.69 68.22 108.06 67.32 C 102.38 50.16 87.81 36.75 70.80 31.10 M 103.16 49.13 C 103.15 50.36 103.14 51.60 103.14 52.84 C 104.39 52.85 105.65 52.87 106.90 52.88 C 106.91 51.64 106.91 50.40 106.92 49.17 C 105.67 49.15 104.41 49.14 103.16 49.13 Z" />
</g>
<g id="#b8babdff">
<path fill="#b8babd" opacity="1.00" d=" M 59.26 48.26 C 64.80 46.30 71.04 52.30 68.92 57.94 C 67.75 63.53 59.65 65.12 56.05 60.96 C 51.93 57.27 54.01 49.65 59.26 48.26 M 56.24 55.04 C 55.69 58.23 58.61 60.11 60.94 61.52 C 63.05 60.70 65.61 59.96 66.51 57.62 C 67.99 54.54 65.53 51.00 62.42 50.32 L 62.77 49.70 C 59.98 50.34 56.45 51.69 56.24 55.04 Z" />
</g>
<g id="#808184ff">
<path fill="#808184" opacity="1.00" d=" M 56.24 55.04 C 56.45 51.69 59.98 50.34 62.77 49.70 L 62.42 50.32 C 62.28 50.55 62.01 51.03 61.88 51.27 C 62.86 54.73 62.44 58.26 60.94 61.52 C 58.61 60.11 55.69 58.23 56.24 55.04 Z" />
<path fill="#808184" opacity="1.00" d=" M 72.27 93.04 C 70.96 82.54 81.87 72.78 92.14 75.57 C 90.76 75.67 89.39 75.80 88.03 75.94 C 92.95 79.84 97.33 85.39 96.88 92.03 C 96.83 98.94 91.94 104.40 86.57 108.13 C 79.28 106.60 72.76 100.76 72.27 93.04 Z" />
<path fill="#808184" opacity="1.00" d=" M 20.14 103.01 C 22.22 101.61 24.47 100.50 26.79 99.56 C 29.87 102.44 33.39 105.52 33.88 109.99 C 34.76 114.02 32.75 117.79 30.92 121.22 C 26.18 115.92 22.70 109.62 20.14 103.01 Z" />
</g>
<g id="#6d6e71ff">
<path fill="#6d6e71" opacity="1.00" d=" M 61.88 51.27 C 62.01 51.03 62.28 50.55 62.42 50.32 C 65.53 51.00 67.99 54.54 66.51 57.62 C 65.61 59.96 63.05 60.70 60.94 61.52 C 62.44 58.26 62.86 54.73 61.88 51.27 Z" />
<path fill="#6d6e71" opacity="1.00" d=" M 88.03 75.94 C 89.39 75.80 90.76 75.67 92.14 75.57 C 101.01 77.45 107.17 87.52 104.22 96.23 C 102.11 103.83 94.25 108.54 86.57 108.13 C 91.94 104.40 96.83 98.94 96.88 92.03 C 97.33 85.39 92.95 79.84 88.03 75.94 Z" />
<path fill="#6d6e71" opacity="1.00" d=" M 26.79 99.56 C 32.13 99.52 37.75 102.05 39.87 107.22 C 42.92 113.43 39.24 121.08 33.14 123.74 C 32.40 122.90 31.66 122.06 30.92 121.22 C 32.75 117.79 34.76 114.02 33.88 109.99 C 33.39 105.52 29.87 102.44 26.79 99.56 Z" />
</g>
<g id="#b7b9bbff">
<path fill="#b7b9bb" opacity="1.00" d=" M 108.06 67.32 C 110.69 68.22 114.67 68.53 115.20 71.96 C 116.05 75.21 113.11 77.26 110.99 79.05 C 108.93 77.94 105.79 77.60 105.08 74.96 C 104.01 71.96 106.50 69.55 108.06 67.32 M 109.34 70.35 C 105.14 71.50 108.27 78.01 111.67 75.56 C 114.63 74.02 112.21 69.19 109.34 70.35 Z" />
</g>
<g id="#7f8083ff">
<path fill="#7f8083" opacity="1.00" d=" M 109.34 70.35 C 112.21 69.19 114.63 74.02 111.67 75.56 C 108.27 78.01 105.14 71.50 109.34 70.35 Z" />
<path fill="#7f8083" opacity="1.00" d=" M 54.38 114.37 C 55.88 113.45 57.11 115.18 57.98 116.17 C 58.81 118.67 55.57 121.33 53.45 119.45 C 51.46 118.11 52.12 114.99 54.38 114.37 Z" />
</g>
<g id="#b8babcff">
<path fill="#b8babc" opacity="1.00" d=" M 53.19 112.23 C 56.74 110.83 61.19 114.10 60.20 118.02 C 59.88 122.07 54.68 123.52 51.69 121.31 C 48.71 118.96 49.60 113.51 53.19 112.23 M 54.38 114.37 C 52.12 114.99 51.46 118.11 53.45 119.45 C 55.57 121.33 58.81 118.67 57.98 116.17 C 57.11 115.18 55.88 113.45 54.38 114.37 Z" />
</g>
</svg>
