<?xml version="1.0" encoding="UTF-8" ?>
<!DOCTYPE svg PUBLIC "-//W3C//DTD SVG 1.1//EN" "http://www.w3.org/Graphics/SVG/1.1/DTD/svg11.dtd">
<svg width="100pt" height="100pt" viewBox="0 0 100 100" version="1.1" xmlns="http://www.w3.org/2000/svg">
<g id="#000000ff">
<path fill="#000000" opacity="1.00" d=" M 21.53 11.42 C 25.11 8.76 29.65 7.84 34.05 7.98 C 49.36 8.02 64.68 7.98 80.00 8.00 C 80.00 9.34 80.00 10.67 80.00 12.00 C 64.65 11.99 49.29 12.02 33.94 11.98 C 30.64 11.95 27.10 12.29 24.39 14.39 C 20.84 17.11 16.86 19.41 14.13 23.06 C 15.32 18.54 17.54 14.08 21.53 11.42 Z" />
<path fill="#000000" opacity="1.00" d=" M 14.17 33.82 C 15.06 25.11 23.12 17.92 31.88 18.04 C 47.92 17.94 63.96 18.03 80.00 18.00 C 80.00 19.34 80.00 20.67 80.00 22.00 C 64.32 22.01 48.64 21.99 32.97 22.00 C 28.73 21.86 24.41 23.43 21.64 26.71 C 17.18 31.33 16.83 39.17 20.75 44.23 C 23.32 47.75 27.54 49.97 31.91 49.96 C 43.62 50.15 55.34 49.80 67.05 50.11 C 78.22 50.90 87.27 61.92 85.91 73.03 C 85.09 83.05 76.20 91.63 66.13 91.95 C 48.75 92.07 31.37 91.97 14.00 92.00 C 14.00 90.66 14.00 89.33 14.00 88.00 C 31.02 87.97 48.05 88.06 65.07 87.96 C 74.46 88.15 82.75 79.33 81.92 69.97 C 81.57 61.69 74.35 54.41 66.06 54.10 C 57.03 53.85 48.00 54.07 38.98 54.00 C 34.18 53.92 29.10 54.52 24.65 52.36 C 17.60 49.35 13.13 41.41 14.17 33.82 Z" />
<path fill="#000000" opacity="1.00" d=" M 21.77 35.76 C 24.67 38.11 28.07 40.07 31.92 39.96 C 43.30 40.13 54.68 39.84 66.05 40.08 C 75.11 40.38 83.42 47.28 85.35 56.15 C 81.99 52.28 77.74 49.42 73.62 46.45 C 70.48 44.38 66.62 43.95 62.95 43.99 C 53.30 44.02 43.65 43.97 34.00 44.03 C 30.80 44.04 27.49 43.81 24.58 42.36 C 22.56 40.80 22.31 38.07 21.77 35.76 Z" />
<path fill="#000000" opacity="1.00" d=" M 65.02 77.99 C 70.13 78.11 74.75 75.44 78.23 71.88 C 77.38 74.55 76.83 77.60 74.64 79.56 C 71.44 81.47 67.61 81.99 63.94 82.01 C 47.29 81.98 30.65 82.01 14.00 82.00 C 14.00 80.66 14.00 79.33 14.00 78.00 C 31.01 77.99 48.01 78.02 65.02 77.99 Z" />
</g>
</svg>
