<?xml version="1.0" encoding="UTF-8" ?>
<!DOCTYPE svg PUBLIC "-//W3C//DTD SVG 1.1//EN" "http://www.w3.org/Graphics/SVG/1.1/DTD/svg11.dtd">
<svg width="16pt" height="16pt" viewBox="0 0 16 16" version="1.1" xmlns="http://www.w3.org/2000/svg">
<g id="#0a8c66ff">
<path fill="#0a8c66" opacity="1.00" d=" M 3.72 0.00 L 6.18 0.00 C 6.68 2.02 9.31 2.01 9.81 0.00 L 12.19 0.00 C 11.75 1.61 11.41 3.24 11.06 4.87 C 9.08 4.80 7.09 4.72 5.11 4.64 C 4.67 3.09 4.24 1.53 3.72 0.00 Z" />
<path fill="#0a8c66" opacity="1.00" d=" M 1.00 5.00 C 1.50 5.00 2.50 5.00 3.00 5.00 C 3.00 7.00 3.00 9.00 3.00 11.00 C 2.50 11.00 1.50 11.00 1.00 11.00 C 1.00 9.00 1.00 7.00 1.00 5.00 Z" />
<path fill="#0a8c66" opacity="1.00" d=" M 13.00 5.00 C 13.50 5.00 14.50 5.00 15.00 5.00 C 15.00 7.00 15.00 9.00 15.00 11.00 C 14.50 11.00 13.50 11.00 13.00 11.00 C 13.00 9.00 13.00 7.00 13.00 5.00 Z" />
<path fill="#0a8c66" opacity="1.00" d=" M 3.79 6.02 C 6.56 6.03 9.33 6.04 12.11 6.05 C 11.73 9.37 11.36 12.68 10.98 16.00 L 8.86 16.00 C 11.11 12.54 4.88 12.54 7.15 16.00 L 4.93 16.00 C 4.52 12.68 4.14 9.35 3.79 6.02 Z" />
</g>
</svg>
