<?xml version="1.0" encoding="UTF-8" ?>
<!DOCTYPE svg PUBLIC "-//W3C//DTD SVG 1.1//EN" "http://www.w3.org/Graphics/SVG/1.1/DTD/svg11.dtd">
<svg width="248pt" height="225pt" viewBox="0 0 248 225" version="1.1" xmlns="http://www.w3.org/2000/svg">
<g id="#ffffffff">
<path fill="#ffffff" opacity="1.00" d=" M 0.00 0.00 L 248.00 0.00 L 248.00 225.00 L 0.00 225.00 L 0.00 0.00 M 54.53 19.57 C 60.51 29.96 66.49 40.36 72.56 50.71 C 63.22 55.95 54.50 62.36 47.07 70.10 C 29.62 87.82 18.92 111.85 16.90 136.60 C 89.74 136.59 162.59 136.61 235.43 136.59 C 234.59 126.26 232.27 116.03 228.52 106.37 C 219.63 82.75 201.90 62.85 179.85 50.70 C 185.70 40.58 191.55 30.46 197.41 20.36 C 198.77 18.45 198.79 15.45 196.65 14.09 C 194.88 13.52 192.40 13.43 191.43 15.36 C 185.13 25.91 179.14 36.64 172.92 47.25 C 143.57 34.11 108.75 34.10 79.41 47.27 C 73.68 37.14 67.74 27.13 61.99 17.01 C 61.05 15.54 60.11 13.45 58.00 13.76 C 54.91 13.12 52.71 17.14 54.53 19.57 M 192.44 156.53 C 188.79 157.48 188.03 162.87 191.20 164.85 C 193.75 166.86 197.97 165.17 198.44 161.96 C 199.39 158.58 195.70 155.35 192.44 156.53 M 116.70 156.73 C 116.73 163.31 116.59 169.90 116.78 176.48 C 111.96 170.82 102.68 170.42 97.14 175.21 C 90.09 181.07 89.30 192.73 95.34 199.59 C 100.48 206.05 111.44 206.65 116.72 200.03 C 116.76 201.36 116.83 202.69 116.93 204.02 C 119.16 204.10 121.39 204.12 123.62 204.14 C 123.63 188.33 123.64 172.52 123.61 156.72 C 121.31 156.72 119.00 156.72 116.70 156.73 M 228.38 176.25 C 223.19 170.49 213.35 170.51 208.01 176.02 C 201.09 182.63 201.44 195.10 208.79 201.26 C 214.24 206.10 223.43 205.99 228.26 200.29 C 228.34 201.09 228.49 202.69 228.57 203.49 C 230.62 204.64 233.11 203.94 235.35 204.15 C 235.36 188.34 235.35 172.53 235.35 156.72 C 233.02 156.72 230.69 156.72 228.36 156.70 C 228.34 163.22 228.31 169.73 228.38 176.25 M 20.59 177.53 C 14.67 184.77 16.07 196.78 23.85 202.13 C 29.34 206.14 37.55 205.50 42.16 200.41 C 40.99 205.19 46.50 204.07 49.34 204.14 C 49.33 193.58 49.33 183.03 49.34 172.47 C 46.96 172.47 44.59 172.47 42.22 172.47 C 42.24 173.41 42.27 175.29 42.28 176.23 C 36.62 169.91 25.49 170.70 20.59 177.53 M 64.12 176.28 C 64.16 175.33 64.24 173.42 64.28 172.46 C 61.87 172.47 59.45 172.47 57.03 172.44 C 57.14 182.65 56.90 192.87 57.14 203.07 C 58.84 205.02 61.96 203.77 64.23 204.14 C 64.31 198.18 64.09 192.22 64.33 186.27 C 64.60 181.88 68.44 177.54 73.11 178.30 C 76.89 178.55 78.84 182.55 78.96 185.93 C 79.13 191.95 78.84 197.99 79.11 204.01 C 81.35 204.10 83.58 204.12 85.82 204.14 C 85.48 196.12 86.63 187.94 85.15 180.02 C 82.93 170.88 69.57 169.15 64.12 176.28 M 138.07 178.12 C 138.24 176.24 138.33 174.36 138.41 172.48 C 136.09 172.47 133.78 172.47 131.47 172.46 C 131.48 182.86 131.46 193.26 131.48 203.66 C 133.73 204.11 136.02 204.18 138.32 204.16 C 138.74 197.31 137.31 190.19 139.49 183.55 C 141.02 179.47 145.70 178.44 149.53 179.48 C 149.49 177.04 149.49 174.60 149.48 172.16 C 144.75 171.30 140.07 173.77 138.07 178.12 M 163.39 172.47 C 153.81 174.99 148.70 186.90 153.30 195.64 C 157.41 204.60 169.92 207.54 177.82 201.83 C 185.81 196.64 187.14 184.28 180.74 177.33 C 176.59 172.32 169.49 170.99 163.39 172.47 M 190.39 203.65 C 192.67 204.10 195.00 204.18 197.32 204.16 C 197.32 193.59 197.32 183.03 197.32 172.46 C 195.01 172.47 192.69 172.47 190.38 172.47 C 190.38 182.86 190.36 193.26 190.39 203.65 Z" />
<path fill="#ffffff" opacity="1.00" d=" M 72.30 88.18 C 78.16 85.44 85.68 90.54 84.90 97.05 C 84.82 103.95 75.69 108.13 70.44 103.58 C 64.99 99.82 66.20 90.59 72.30 88.18 Z" />
<path fill="#ffffff" opacity="1.00" d=" M 172.36 88.39 C 177.88 85.45 185.34 89.72 185.46 96.00 C 186.07 102.82 177.59 108.07 171.83 104.18 C 165.75 100.97 166.14 91.22 172.36 88.39 Z" />
<path fill="#ffffff" opacity="1.00" d=" M 30.45 178.73 C 34.38 177.38 39.22 178.87 41.31 182.56 C 44.64 187.59 42.70 195.64 36.83 197.78 C 32.19 199.70 26.34 197.05 24.82 192.24 C 22.84 187.21 25.02 180.48 30.45 178.73 Z" />
<path fill="#ffffff" opacity="1.00" d=" M 104.49 178.80 C 107.27 177.86 110.55 178.08 113.00 179.78 C 119.04 183.81 118.45 194.64 111.63 197.55 C 106.83 199.91 100.38 197.12 99.02 191.91 C 97.19 187.01 99.39 180.66 104.49 178.80 Z" />
<path fill="#ffffff" opacity="1.00" d=" M 216.45 178.75 C 222.47 176.37 229.21 181.67 228.95 187.96 C 229.66 194.59 222.51 200.55 216.20 197.74 C 208.11 194.84 208.24 181.41 216.45 178.75 Z" />
<path fill="#ffffff" opacity="1.00" d=" M 164.17 179.27 C 169.06 176.73 175.73 179.57 177.13 184.93 C 179.11 189.93 176.17 196.57 170.79 197.88 C 167.16 198.97 162.84 197.58 160.66 194.44 C 157.12 189.72 158.57 181.72 164.17 179.27 Z" />
</g>
<g id="#3ddb85ff">
<path fill="#3ddb85" opacity="1.00" d=" M 54.53 19.57 C 52.71 17.14 54.91 13.12 58.00 13.76 C 60.11 13.45 61.05 15.54 61.99 17.01 C 67.74 27.13 73.68 37.14 79.41 47.27 C 108.75 34.10 143.57 34.11 172.92 47.25 C 179.14 36.64 185.13 25.91 191.43 15.36 C 192.40 13.43 194.88 13.52 196.65 14.09 C 198.79 15.45 198.77 18.45 197.41 20.36 C 191.55 30.46 185.70 40.58 179.85 50.70 C 201.90 62.85 219.63 82.75 228.52 106.37 C 232.27 116.03 234.59 126.26 235.43 136.59 C 162.59 136.61 89.74 136.59 16.90 136.60 C 18.92 111.85 29.62 87.82 47.07 70.10 C 54.50 62.36 63.22 55.95 72.56 50.71 C 66.49 40.36 60.51 29.96 54.53 19.57 M 72.30 88.18 C 66.20 90.59 64.99 99.82 70.44 103.58 C 75.69 108.13 84.82 103.95 84.90 97.05 C 85.68 90.54 78.16 85.44 72.30 88.18 M 172.36 88.39 C 166.14 91.22 165.75 100.97 171.83 104.18 C 177.59 108.07 186.07 102.82 185.46 96.00 C 185.34 89.72 177.88 85.45 172.36 88.39 Z" />
</g>
<g id="#000000ff">
<path fill="#000000" opacity="1.00" d=" M 192.44 156.53 C 195.70 155.35 199.39 158.58 198.44 161.96 C 197.97 165.17 193.75 166.86 191.20 164.85 C 188.03 162.87 188.79 157.48 192.44 156.53 Z" />
<path fill="#000000" opacity="1.00" d=" M 116.70 156.73 C 119.00 156.72 121.31 156.72 123.61 156.72 C 123.64 172.52 123.63 188.33 123.62 204.14 C 121.39 204.12 119.16 204.10 116.93 204.02 C 116.83 202.69 116.76 201.36 116.72 200.03 C 111.44 206.65 100.48 206.05 95.34 199.59 C 89.30 192.73 90.09 181.07 97.14 175.21 C 102.68 170.42 111.96 170.82 116.78 176.48 C 116.59 169.90 116.73 163.31 116.70 156.73 M 104.49 178.80 C 99.39 180.66 97.19 187.01 99.02 191.91 C 100.38 197.12 106.83 199.91 111.63 197.55 C 118.45 194.64 119.04 183.81 113.00 179.78 C 110.55 178.08 107.27 177.86 104.49 178.80 Z" />
<path fill="#000000" opacity="1.00" d=" M 228.38 176.25 C 228.31 169.73 228.34 163.22 228.36 156.70 C 230.69 156.72 233.02 156.72 235.35 156.72 C 235.35 172.53 235.36 188.34 235.35 204.15 C 233.11 203.94 230.62 204.64 228.57 203.49 C 228.49 202.69 228.34 201.09 228.26 200.29 C 223.43 205.99 214.24 206.10 208.79 201.26 C 201.44 195.10 201.09 182.63 208.01 176.02 C 213.35 170.51 223.19 170.49 228.38 176.25 M 216.45 178.75 C 208.24 181.41 208.11 194.84 216.20 197.74 C 222.51 200.55 229.66 194.59 228.95 187.96 C 229.21 181.67 222.47 176.37 216.45 178.75 Z" />
<path fill="#000000" opacity="1.00" d=" M 20.59 177.53 C 25.49 170.70 36.62 169.91 42.28 176.23 C 42.27 175.29 42.24 173.41 42.22 172.47 C 44.59 172.47 46.96 172.47 49.34 172.47 C 49.33 183.03 49.33 193.58 49.34 204.14 C 46.50 204.07 40.99 205.19 42.16 200.41 C 37.55 205.50 29.34 206.14 23.85 202.13 C 16.07 196.78 14.67 184.77 20.59 177.53 M 30.45 178.73 C 25.02 180.48 22.84 187.21 24.82 192.24 C 26.34 197.05 32.19 199.70 36.83 197.78 C 42.70 195.64 44.64 187.59 41.31 182.56 C 39.22 178.87 34.38 177.38 30.45 178.73 Z" />
<path fill="#000000" opacity="1.00" d=" M 64.12 176.28 C 69.57 169.15 82.93 170.88 85.15 180.02 C 86.63 187.94 85.48 196.12 85.82 204.14 C 83.58 204.12 81.35 204.10 79.11 204.01 C 78.84 197.99 79.13 191.95 78.96 185.93 C 78.84 182.55 76.89 178.55 73.11 178.30 C 68.44 177.54 64.60 181.88 64.33 186.27 C 64.09 192.22 64.31 198.18 64.23 204.14 C 61.96 203.77 58.84 205.02 57.14 203.07 C 56.90 192.87 57.14 182.65 57.03 172.44 C 59.45 172.47 61.87 172.47 64.28 172.46 C 64.24 173.42 64.16 175.33 64.12 176.28 Z" />
<path fill="#000000" opacity="1.00" d=" M 138.07 178.12 C 140.07 173.77 144.75 171.30 149.48 172.16 C 149.49 174.60 149.49 177.04 149.53 179.48 C 145.70 178.44 141.02 179.47 139.49 183.55 C 137.31 190.19 138.74 197.31 138.32 204.16 C 136.02 204.18 133.73 204.11 131.48 203.66 C 131.46 193.26 131.48 182.86 131.47 172.46 C 133.78 172.47 136.09 172.47 138.41 172.48 C 138.33 174.36 138.24 176.24 138.07 178.12 Z" />
<path fill="#000000" opacity="1.00" d=" M 163.39 172.47 C 169.49 170.99 176.59 172.32 180.74 177.33 C 187.14 184.28 185.81 196.64 177.82 201.83 C 169.92 207.54 157.41 204.60 153.30 195.64 C 148.70 186.90 153.81 174.99 163.39 172.47 M 164.17 179.27 C 158.57 181.72 157.12 189.72 160.66 194.44 C 162.84 197.58 167.16 198.97 170.79 197.88 C 176.17 196.57 179.11 189.93 177.13 184.93 C 175.73 179.57 169.06 176.73 164.17 179.27 Z" />
<path fill="#000000" opacity="1.00" d=" M 190.39 203.65 C 190.36 193.26 190.38 182.86 190.38 172.47 C 192.69 172.47 195.01 172.47 197.32 172.46 C 197.32 183.03 197.32 193.59 197.32 204.16 C 195.00 204.18 192.67 204.10 190.39 203.65 Z" />
</g>
</svg>
