<?xml version="1.0" encoding="UTF-8" ?>
<!DOCTYPE svg PUBLIC "-//W3C//DTD SVG 1.1//EN" "http://www.w3.org/Graphics/SVG/1.1/DTD/svg11.dtd">
<svg width="32pt" height="32pt" viewBox="0 0 32 32" version="1.1" xmlns="http://www.w3.org/2000/svg">
<g id="#70bf52ff">
<path fill="#70bf52" opacity="1.00" d=" M 20.28 1.10 C 21.05 1.58 21.76 2.14 22.40 2.79 C 21.18 4.92 20.03 6.78 19.28 9.13 C 18.71 9.95 18.27 10.84 17.96 11.79 L 16.89 11.79 C 17.01 11.30 17.26 10.31 17.38 9.81 C 17.75 8.86 18.11 7.89 18.44 6.92 C 13.88 7.75 9.37 6.17 5.01 5.11 C 5.25 3.25 8.09 3.11 9.56 2.40 C 13.18 0.98 16.20 3.96 18.75 6.05 C 19.28 4.41 19.79 2.76 20.28 1.10 Z" />
<path fill="#70bf52" opacity="1.00" d=" M 20.45 8.19 C 21.87 6.02 25.31 6.29 27.03 7.95 C 27.39 8.36 29.62 9.53 28.09 10.02 C 26.63 8.99 24.95 8.42 23.03 8.31 L 23.03 8.31 C 22.38 8.28 21.10 8.22 20.45 8.19 Z" />
</g>
<g id="#ed1c24ff">
<path fill="#ed1c24" opacity="1.00" d=" M 6.05 9.20 C 9.51 6.80 14.12 7.42 17.38 9.81 C 17.26 10.31 17.01 11.30 16.89 11.79 C 13.87 13.55 20.82 13.84 17.96 11.79 C 18.27 10.84 18.71 9.95 19.28 9.13 C 20.07 9.18 21.66 9.27 22.46 9.32 L 23.03 8.31 L 23.03 8.31 C 23.04 10.45 25.72 9.75 26.68 11.28 C 29.93 14.08 29.32 19.03 27.29 22.38 C 25.18 25.98 22.36 30.06 17.96 30.82 C 16.16 29.64 14.36 31.93 12.63 30.51 C 11.18 29.42 9.07 30.65 7.91 29.05 C 5.66 26.71 3.10 23.19 4.77 19.88 C 4.53 18.06 6.16 16.76 6.23 14.98 C 6.71 13.05 5.97 11.13 6.05 9.20 M 7.09 9.90 C 6.93 12.22 7.37 14.63 6.46 16.84 C 5.50 18.28 5.23 19.93 5.32 21.64 C 10.04 19.96 12.29 12.38 7.09 9.90 Z" />
</g>
<g id="#edededff">
<path fill="#ededed" opacity="1.00" d=" M 7.09 9.90 C 12.29 12.38 10.04 19.96 5.32 21.64 C 5.23 19.93 5.50 18.28 6.46 16.84 C 7.37 14.63 6.93 12.22 7.09 9.90 Z" />
</g>
<g id="#e08b83ff">
<path fill="#e08b83" opacity="1.00" d=" M 17.96 11.79 C 20.82 13.84 13.87 13.55 16.89 11.79 L 17.96 11.79 Z" />
</g>
</svg>
