<?xml version="1.0" encoding="UTF-8" ?>
<!DOCTYPE svg PUBLIC "-//W3C//DTD SVG 1.1//EN" "http://www.w3.org/Graphics/SVG/1.1/DTD/svg11.dtd">
<svg width="32pt" height="32pt" viewBox="0 0 32 32" version="1.1" xmlns="http://www.w3.org/2000/svg">
<g id="#a7a7a7ff">
<path fill="#a7a7a7" opacity="1.00" d=" M 20.22 1.15 C 20.94 1.69 21.66 2.23 22.38 2.76 C 21.21 4.74 20.28 6.83 19.25 8.88 C 18.95 9.22 18.63 9.54 18.30 9.86 L 17.47 9.72 C 17.72 9.02 18.21 7.63 18.45 6.93 C 13.82 7.35 9.28 6.28 4.86 5.02 C 6.31 3.09 8.82 2.56 11.06 2.11 C 14.16 1.93 16.41 4.46 18.80 6.05 C 19.29 4.42 19.76 2.79 20.22 1.15 Z" />
<path fill="#a7a7a7" opacity="1.00" d=" M 20.94 8.16 C 22.90 5.00 27.44 7.51 28.97 9.99 C 26.35 9.12 23.74 8.17 20.94 8.16 Z" />
<path fill="#a7a7a7" opacity="1.00" d=" M 7.02 9.91 C 12.42 11.91 10.24 20.48 5.22 21.62 C 5.25 17.64 7.79 14.03 7.02 9.91 Z" />
</g>
<g id="#5c5c5cff">
<path fill="#5c5c5c" opacity="1.00" d=" M 6.04 9.08 C 9.65 6.83 13.99 7.72 17.47 9.72 L 18.30 9.86 C 18.63 9.54 18.95 9.22 19.25 8.88 C 21.65 9.18 24.25 9.19 26.18 10.88 C 29.38 13.11 29.59 17.72 27.95 20.98 C 26.10 24.79 23.49 28.60 19.52 30.40 C 15.79 31.15 12.02 30.75 8.46 29.48 C 5.71 27.07 3.14 23.23 4.80 19.46 C 6.33 16.20 6.68 12.62 6.04 9.08 M 7.02 9.91 C 7.79 14.03 5.25 17.64 5.22 21.62 C 10.24 20.48 12.42 11.91 7.02 9.91 Z" />
</g>
</svg>
