<?xml version="1.0" encoding="UTF-8" ?>
<!DOCTYPE svg PUBLIC "-//W3C//DTD SVG 1.1//EN" "http://www.w3.org/Graphics/SVG/1.1/DTD/svg11.dtd">
<svg width="57pt" height="57pt" viewBox="0 0 57 57" version="1.1" xmlns="http://www.w3.org/2000/svg">
<g id="#fefefeff">
<path fill="#fefefe" opacity="1.00" d=" M 0.00 0.00 L 57.00 0.00 L 57.00 57.00 L 0.00 57.00 L 0.00 0.00 M 10.97 4.13 L 11.05 5.15 C 10.78 5.61 10.23 6.52 9.96 6.98 C 6.74 7.33 6.74 13.83 10.01 13.93 C 10.75 14.63 11.35 15.42 11.81 16.30 L 11.02 15.87 L 10.03 16.04 C 9.95 27.70 9.96 39.35 10.04 51.01 L 11.02 50.97 C 11.16 51.99 11.81 52.68 12.98 53.05 C 23.31 53.00 33.65 53.03 43.99 53.00 L 44.04 52.06 C 44.50 51.75 45.43 51.13 45.89 50.82 C 46.11 39.25 46.04 27.68 45.94 16.12 C 45.45 16.00 44.46 15.77 43.97 15.65 C 44.81 15.25 45.59 14.74 46.30 14.13 C 48.93 14.37 48.72 8.98 47.18 8.24 C 46.44 7.51 46.55 5.02 45.26 5.36 L 45.01 4.17 C 33.68 3.66 22.31 4.06 10.97 4.13 Z" />
<path fill="#fefefe" opacity="1.00" d=" M 14.99 10.06 C 23.98 9.98 32.98 9.89 41.97 10.05 C 42.05 11.35 42.05 12.65 41.97 13.95 C 32.99 14.13 24.00 14.10 15.02 13.75 C 15.01 12.52 15.00 11.29 14.99 10.06 Z" />
</g>
<g id="#0e0e0eff">
<path fill="#0e0e0e" opacity="1.00" d=" M 10.97 4.13 C 22.31 4.06 33.68 3.66 45.01 4.17 L 45.26 5.36 C 34.13 4.79 22.98 4.91 11.84 5.22 L 11.05 5.15 L 10.97 4.13 Z" />
<path fill="#0e0e0e" opacity="1.00" d=" M 47.18 8.24 C 48.72 8.98 48.93 14.37 46.30 14.13 C 46.74 12.19 46.98 10.22 47.18 8.24 Z" />
</g>
<g id="#333333ff">
<path fill="#333333" opacity="1.00" d=" M 11.05 5.15 L 11.84 5.22 C 22.88 6.13 34.27 6.88 45.26 5.36 C 46.55 5.02 46.44 7.51 47.18 8.24 L 46.25 7.94 C 44.73 7.43 42.43 6.10 43.00 8.89 L 42.15 8.88 C 42.02 8.45 41.75 7.58 41.61 7.15 C 32.74 6.82 23.87 7.02 15.00 7.01 C 13.32 6.99 11.64 6.97 9.96 6.98 C 10.23 6.52 10.78 5.61 11.05 5.15 Z" />
</g>
<g id="#fcfcfcff">
<path fill="#fcfcfc" opacity="1.00" d=" M 11.84 5.22 C 22.98 4.91 34.13 4.79 45.26 5.36 C 34.27 6.88 22.88 6.13 11.84 5.22 Z" />
<path fill="#fcfcfc" opacity="1.00" d=" M 15.00 7.01 C 23.87 7.02 32.74 6.82 41.61 7.15 C 41.75 7.58 42.02 8.45 42.15 8.88 C 33.10 9.06 24.05 9.03 15.00 8.94 C 15.00 8.46 15.00 7.49 15.00 7.01 Z" />
<path fill="#fcfcfc" opacity="1.00" d=" M 13.44 15.29 C 23.60 14.78 33.83 14.63 43.97 15.65 L 44.26 16.61 C 43.89 27.81 43.86 39.03 44.24 50.23 C 44.19 50.69 44.09 51.60 44.04 52.06 C 33.64 52.03 23.23 51.86 12.83 52.09 C 11.31 40.51 12.00 28.74 12.18 17.08 C 12.49 16.63 13.13 15.74 13.44 15.29 M 17.00 22.70 C 14.95 23.49 14.82 25.98 14.27 27.80 C 14.26 29.65 14.24 33.35 14.23 35.21 C 15.52 37.68 16.78 41.63 19.83 42.11 C 20.45 43.49 22.28 44.61 23.75 44.60 C 26.56 45.13 29.39 45.13 32.24 44.62 C 33.29 44.69 34.57 44.03 35.09 43.11 C 38.80 42.46 40.51 38.34 41.82 35.20 C 41.97 32.39 41.91 29.58 41.66 26.78 C 41.49 25.23 40.48 23.28 38.92 22.76 C 38.67 19.44 33.88 18.00 30.95 17.36 C 29.19 16.46 26.84 16.56 25.09 17.45 C 21.87 17.76 18.91 20.09 17.00 22.70 M 15.23 48.23 C 14.90 48.68 14.23 49.58 13.90 50.03 C 20.02 47.58 26.51 47.67 33.05 47.85 C 35.74 48.15 38.35 49.03 41.08 49.08 C 39.57 46.87 35.63 47.11 33.02 46.93 L 32.97 46.01 C 27.00 45.85 21.02 46.83 15.23 48.23 Z" />
</g>
<g id="#989898ff">
<path fill="#989898" opacity="1.00" d=" M 10.01 13.93 C 6.74 13.83 6.74 7.33 9.96 6.98 C 11.64 6.97 13.32 6.99 15.00 7.01 C 15.00 7.49 15.00 8.46 15.00 8.94 C 13.67 8.95 12.35 8.99 11.03 9.06 C 10.76 10.97 13.86 9.58 14.99 10.06 C 15.00 11.29 15.01 12.52 15.02 13.75 C 13.35 13.65 11.68 13.84 10.01 13.93 Z" />
<path fill="#989898" opacity="1.00" d=" M 10.03 16.04 L 11.02 15.87 C 11.01 27.57 10.96 39.27 11.02 50.97 L 10.04 51.01 C 9.96 39.35 9.95 27.70 10.03 16.04 Z" />
</g>
<g id="#aaaaaaff">
<path fill="#aaaaaa" opacity="1.00" d=" M 43.00 8.89 C 42.43 6.10 44.73 7.43 46.25 7.94 C 46.09 10.03 46.01 12.29 43.90 13.36 C 40.24 12.20 47.53 8.10 43.00 8.89 Z" />
</g>
<g id="#f8f8f8ff">
<path fill="#f8f8f8" opacity="1.00" d=" M 46.25 7.94 L 47.18 8.24 C 46.98 10.22 46.74 12.19 46.30 14.13 C 45.70 13.94 44.50 13.55 43.90 13.36 C 46.01 12.29 46.09 10.03 46.25 7.94 Z" />
</g>
<g id="#1c1c1cff">
<path fill="#1c1c1c" opacity="1.00" d=" M 11.03 9.06 C 12.35 8.99 13.67 8.95 15.00 8.94 C 24.05 9.03 33.10 9.06 42.15 8.88 L 43.00 8.89 C 47.53 8.10 40.24 12.20 43.90 13.36 C 44.50 13.55 45.70 13.94 46.30 14.13 C 45.59 14.74 44.81 15.25 43.97 15.65 C 33.83 14.63 23.60 14.78 13.44 15.29 C 13.13 15.74 12.49 16.63 12.18 17.08 L 11.81 16.30 C 11.35 15.42 10.75 14.63 10.01 13.93 C 11.68 13.84 13.35 13.65 15.02 13.75 C 24.00 14.10 32.99 14.13 41.97 13.95 C 42.05 12.65 42.05 11.35 41.97 10.05 C 32.98 9.89 23.98 9.98 14.99 10.06 C 13.86 9.58 10.76 10.97 11.03 9.06 Z" />
</g>
<g id="#676767ff">
<path fill="#676767" opacity="1.00" d=" M 11.02 15.87 L 11.81 16.30 L 12.18 17.08 C 12.00 28.74 11.31 40.51 12.83 52.09 L 12.98 53.05 C 11.81 52.68 11.16 51.99 11.02 50.97 C 10.96 39.27 11.01 27.57 11.02 15.87 Z" />
</g>
<g id="#626262ff">
<path fill="#626262" opacity="1.00" d=" M 43.97 15.65 C 44.46 15.77 45.45 16.00 45.94 16.12 C 46.04 27.68 46.11 39.25 45.89 50.82 C 45.43 51.13 44.50 51.75 44.04 52.06 C 44.09 51.60 44.19 50.69 44.24 50.23 C 44.96 39.15 46.15 27.58 44.26 16.61 L 43.97 15.65 Z" />
</g>
<g id="#3d8248ff">
<path fill="#3d8248" opacity="1.00" d=" M 17.00 22.70 C 18.91 20.09 21.87 17.76 25.09 17.45 C 26.03 17.74 26.98 18.04 27.93 18.33 C 26.39 20.04 24.94 21.86 23.88 23.92 C 25.66 23.98 29.22 24.11 31.00 24.17 L 31.46 24.80 C 30.92 25.18 29.83 25.94 29.29 26.31 C 27.57 26.02 25.86 25.64 24.14 25.38 C 22.24 26.53 23.31 29.17 22.96 31.01 L 22.01 31.00 C 23.88 26.23 20.93 23.67 17.00 22.70 Z" />
</g>
<g id="#0e0c0dff">
<path fill="#0e0c0d" opacity="1.00" d=" M 25.09 17.45 C 26.84 16.56 29.19 16.46 30.95 17.36 C 30.38 17.93 29.79 18.47 29.19 19.00 C 28.88 18.83 28.25 18.50 27.93 18.33 C 26.98 18.04 26.03 17.74 25.09 17.45 Z" />
</g>
<g id="#4f9a82ff">
<path fill="#4f9a82" opacity="1.00" d=" M 30.95 17.36 C 33.88 18.00 38.67 19.44 38.92 22.76 C 37.22 23.44 35.57 24.23 33.93 25.06 C 33.32 24.04 33.17 20.97 31.73 23.03 C 30.87 21.70 30.01 20.36 29.19 19.00 C 29.79 18.47 30.38 17.93 30.95 17.36 Z" />
</g>
<g id="#a1a1a1ff">
<path fill="#a1a1a1" opacity="1.00" d=" M 44.26 16.61 C 46.15 27.58 44.96 39.15 44.24 50.23 C 43.86 39.03 43.89 27.81 44.26 16.61 Z" />
</g>
<g id="#76fba9ff">
<path fill="#76fba9" opacity="1.00" d=" M 27.93 18.33 C 28.25 18.50 28.88 18.83 29.19 19.00 C 30.01 20.36 30.87 21.70 31.73 23.03 C 31.55 23.31 31.18 23.88 31.00 24.17 C 29.22 24.11 25.66 23.98 23.88 23.92 C 24.94 21.86 26.39 20.04 27.93 18.33 Z" />
</g>
<g id="#1b3d31ff">
<path fill="#1b3d31" opacity="1.00" d=" M 31.73 23.03 C 33.17 20.97 33.32 24.04 33.93 25.06 C 34.28 27.04 34.74 28.99 35.11 30.97 L 34.12 30.97 C 33.19 28.97 33.65 25.92 31.46 24.80 L 31.00 24.17 C 31.18 23.88 31.55 23.31 31.73 23.03 Z" />
</g>
<g id="#6de373ff">
<path fill="#6de373" opacity="1.00" d=" M 14.27 27.80 C 14.82 25.98 14.95 23.49 17.00 22.70 C 20.93 23.67 23.88 26.23 22.01 31.00 C 18.42 31.42 14.44 32.07 14.27 27.80 Z" />
</g>
<g id="#6fe8d7ff">
<path fill="#6fe8d7" opacity="1.00" d=" M 33.93 25.06 C 35.57 24.23 37.22 23.44 38.92 22.76 C 40.48 23.28 41.49 25.23 41.66 26.78 C 41.54 30.70 39.54 32.41 35.11 30.97 C 34.74 28.99 34.28 27.04 33.93 25.06 Z" />
</g>
<g id="#76ffa0ff">
<path fill="#76ffa0" opacity="1.00" d=" M 24.14 25.38 C 25.86 25.64 27.57 26.02 29.29 26.31 C 28.85 28.03 28.00 29.58 26.97 31.01 C 25.63 31.03 24.30 31.03 22.96 31.01 C 23.31 29.17 22.24 26.53 24.14 25.38 Z" />
</g>
<g id="#74f9bdff">
<path fill="#74f9bd" opacity="1.00" d=" M 31.46 24.80 C 33.65 25.92 33.19 28.97 34.12 30.97 C 32.33 30.98 28.76 31.00 26.97 31.01 C 28.00 29.58 28.85 28.03 29.29 26.31 C 29.83 25.94 30.92 25.18 31.46 24.80 Z" />
</g>
<g id="#0e1c17ff">
<path fill="#0e1c17" opacity="1.00" d=" M 35.11 30.97 C 39.54 32.41 41.54 30.70 41.66 26.78 C 41.91 29.58 41.97 32.39 41.82 35.20 C 41.40 30.45 36.37 32.70 33.00 32.22 C 29.81 33.53 19.31 28.38 23.00 36.99 C 26.21 35.83 34.19 39.87 33.41 33.80 C 34.10 35.54 33.81 37.38 33.39 39.14 C 29.84 38.76 26.28 37.32 22.78 38.72 C 21.89 35.28 23.67 28.86 17.01 32.01 C 14.80 31.38 14.84 33.77 14.23 35.21 C 14.24 33.35 14.26 29.65 14.27 27.80 C 14.44 32.07 18.42 31.42 22.01 31.00 L 22.96 31.01 C 24.30 31.03 25.63 31.03 26.97 31.01 C 28.76 31.00 32.33 30.98 34.12 30.97 L 35.11 30.97 Z" />
</g>
<g id="#62c789ff">
<path fill="#62c789" opacity="1.00" d=" M 14.23 35.21 C 14.84 33.77 14.80 31.38 17.01 32.01 C 23.67 28.86 21.89 35.28 22.78 38.72 C 20.89 39.15 18.01 39.70 19.83 42.11 C 16.78 41.63 15.52 37.68 14.23 35.21 Z" />
</g>
<g id="#72f5bfff">
<path fill="#72f5bf" opacity="1.00" d=" M 23.00 36.99 C 19.31 28.38 29.81 33.53 33.00 32.22 C 33.10 32.61 33.31 33.40 33.41 33.80 C 34.19 39.87 26.21 35.83 23.00 36.99 Z" />
</g>
<g id="#5ebeb9ff">
<path fill="#5ebeb9" opacity="1.00" d=" M 33.00 32.22 C 36.37 32.70 41.40 30.45 41.82 35.20 C 40.51 38.34 38.80 42.46 35.09 43.11 C 35.71 42.08 36.37 41.08 36.94 40.03 C 35.89 39.29 34.62 39.25 33.39 39.14 C 33.81 37.38 34.10 35.54 33.41 33.80 C 33.31 33.40 33.10 32.61 33.00 32.22 Z" />
</g>
<g id="#65d1c1ff">
<path fill="#65d1c1" opacity="1.00" d=" M 22.78 38.72 C 26.28 37.32 29.84 38.76 33.39 39.14 C 34.62 39.25 35.89 39.29 36.94 40.03 C 36.37 41.08 35.71 42.08 35.09 43.11 C 34.57 44.03 33.29 44.69 32.24 44.62 C 29.65 43.11 26.36 43.13 23.75 44.60 C 22.28 44.61 20.45 43.49 19.83 42.11 C 18.01 39.70 20.89 39.15 22.78 38.72 Z" />
</g>
<g id="#060b0bff">
<path fill="#060b0b" opacity="1.00" d=" M 23.75 44.60 C 26.36 43.13 29.65 43.11 32.24 44.62 C 29.39 45.13 26.56 45.13 23.75 44.60 Z" />
</g>
<g id="#6f6f6fff">
<path fill="#6f6f6f" opacity="1.00" d=" M 15.23 48.23 C 21.02 46.83 27.00 45.85 32.97 46.01 L 33.02 46.93 L 33.05 47.85 C 26.51 47.67 20.02 47.58 13.90 50.03 C 14.23 49.58 14.90 48.68 15.23 48.23 Z" />
</g>
<g id="#373737ff">
<path fill="#373737" opacity="1.00" d=" M 33.02 46.93 C 35.63 47.11 39.57 46.87 41.08 49.08 C 38.35 49.03 35.74 48.15 33.05 47.85 L 33.02 46.93 Z" />
</g>
<g id="#010101ff">
<path fill="#010101" opacity="1.00" d=" M 12.83 52.09 C 23.23 51.86 33.64 52.03 44.04 52.06 L 43.99 53.00 C 33.65 53.03 23.31 53.00 12.98 53.05 L 12.83 52.09 Z" />
</g>
</svg>
