<?xml version="1.0" encoding="UTF-8" ?>
<!DOCTYPE svg PUBLIC "-//W3C//DTD SVG 1.1//EN" "http://www.w3.org/Graphics/SVG/1.1/DTD/svg11.dtd">
<svg width="32pt" height="32pt" viewBox="0 0 32 32" version="1.1" xmlns="http://www.w3.org/2000/svg">
<g id="#010101ff">
<path fill="#010101" opacity="1.00" d=" M 0.00 0.00 L 32.00 0.00 L 32.00 32.00 L 0.00 32.00 L 0.00 0.00 M 4.39 4.61 C 4.22 6.08 4.03 7.56 3.87 9.03 C 8.60 9.11 13.34 8.87 18.08 9.04 C 21.04 8.95 24.11 9.43 26.95 8.39 C 26.47 7.12 25.99 5.86 25.51 4.59 C 22.02 4.10 18.67 2.79 15.17 2.43 C 11.58 3.19 8.05 4.25 4.39 4.61 M 4.88 9.78 C 4.90 14.59 4.73 19.40 5.03 24.21 C 5.68 24.08 6.99 23.82 7.65 23.70 C 8.29 19.13 7.82 14.48 7.84 9.88 C 7.10 9.85 5.62 9.81 4.88 9.78 M 10.63 9.84 C 10.34 14.62 10.41 19.43 10.68 24.22 C 11.31 24.13 12.56 23.96 13.19 23.88 C 13.83 19.23 13.57 14.47 13.33 9.80 C 12.65 9.81 11.30 9.83 10.63 9.84 M 16.87 9.77 C 16.92 14.54 16.70 19.32 17.06 24.08 C 17.75 24.03 19.15 23.92 19.84 23.87 C 20.00 19.19 19.91 14.51 19.92 9.84 C 19.16 9.82 17.63 9.79 16.87 9.77 M 22.65 9.86 C 22.31 14.63 22.43 19.44 22.68 24.21 C 23.30 24.13 24.56 23.96 25.19 23.87 C 25.84 19.25 25.54 14.51 25.36 9.85 C 24.68 9.85 23.32 9.86 22.65 9.86 M 3.90 24.80 L 3.99 26.20 C 11.73 26.05 19.50 26.50 27.22 25.88 C 26.89 25.66 26.23 25.22 25.90 25.00 C 18.60 24.51 11.23 24.93 3.90 24.80 M 3.35 27.04 C 3.21 27.52 2.94 28.48 2.81 28.96 C 11.00 29.06 19.20 28.98 27.39 29.00 C 27.29 28.50 27.09 27.49 27.00 26.98 C 19.14 26.67 11.20 26.65 3.35 27.04 Z" />
</g>
<g id="#c7c7c7ff">
<path fill="#c7c7c7" opacity="1.00" d=" M 4.39 4.61 C 8.05 4.25 11.58 3.19 15.17 2.43 C 18.67 2.79 22.02 4.10 25.51 4.59 C 25.99 5.86 26.47 7.12 26.95 8.39 C 24.11 9.43 21.04 8.95 18.08 9.04 C 13.34 8.87 8.60 9.11 3.87 9.03 C 4.03 7.56 4.22 6.08 4.39 4.61 Z" />
<path fill="#c7c7c7" opacity="1.00" d=" M 4.88 9.78 C 5.62 9.81 7.10 9.85 7.84 9.88 C 7.82 14.48 8.29 19.13 7.65 23.70 C 6.99 23.82 5.68 24.08 5.03 24.21 C 4.73 19.40 4.90 14.59 4.88 9.78 Z" />
<path fill="#c7c7c7" opacity="1.00" d=" M 10.63 9.84 C 11.30 9.83 12.65 9.81 13.33 9.80 C 13.57 14.47 13.83 19.23 13.19 23.88 C 12.56 23.96 11.31 24.13 10.68 24.22 C 10.41 19.43 10.34 14.62 10.63 9.84 Z" />
<path fill="#c7c7c7" opacity="1.00" d=" M 16.87 9.77 C 17.63 9.79 19.16 9.82 19.92 9.84 C 19.91 14.51 20.00 19.19 19.84 23.87 C 19.15 23.92 17.75 24.03 17.06 24.08 C 16.70 19.32 16.92 14.54 16.87 9.77 Z" />
<path fill="#c7c7c7" opacity="1.00" d=" M 22.65 9.86 C 23.32 9.86 24.68 9.85 25.36 9.85 C 25.54 14.51 25.84 19.25 25.19 23.87 C 24.56 23.96 23.30 24.13 22.68 24.21 C 22.43 19.44 22.31 14.63 22.65 9.86 Z" />
<path fill="#c7c7c7" opacity="1.00" d=" M 3.90 24.80 C 11.23 24.93 18.60 24.51 25.90 25.00 C 26.23 25.22 26.89 25.66 27.22 25.88 C 19.50 26.50 11.73 26.05 3.99 26.20 L 3.90 24.80 Z" />
<path fill="#c7c7c7" opacity="1.00" d=" M 3.35 27.04 C 11.20 26.65 19.14 26.67 27.00 26.98 C 27.09 27.49 27.29 28.50 27.39 29.00 C 19.20 28.98 11.00 29.06 2.81 28.96 C 2.94 28.48 3.21 27.52 3.35 27.04 Z" />
</g>
</svg>
