<?xml version="1.0" encoding="UTF-8" ?>
<!DOCTYPE svg PUBLIC "-//W3C//DTD SVG 1.1//EN" "http://www.w3.org/Graphics/SVG/1.1/DTD/svg11.dtd">
<svg width="64pt" height="64pt" viewBox="0 0 64 64" version="1.1" xmlns="http://www.w3.org/2000/svg">
<g id="#ff5d14ff">
<path fill="#ff5d14" opacity="1.00" d=" M 0.31 30.01 C 0.86 13.77 15.66 -0.36 31.95 0.12 C 48.93 -0.56 64.15 14.60 64.00 31.51 L 64.00 32.44 C 63.79 38.28 62.19 44.11 58.99 49.03 C 51.89 60.56 36.99 66.36 23.95 62.72 C 9.63 59.22 -0.90 44.73 0.31 30.01 M 15.91 27.94 C 18.65 27.48 22.66 25.77 24.19 29.24 C 21.70 30.11 18.95 30.34 16.66 31.70 C 14.14 33.27 14.26 37.69 17.13 38.80 C 19.31 39.87 21.62 38.70 23.50 37.57 C 24.18 38.52 25.12 39.04 26.32 39.13 C 26.30 35.11 26.67 31.06 26.08 27.08 C 25.01 24.80 22.33 24.40 20.08 24.70 C 18.21 24.98 15.00 25.19 15.91 27.94 M 29.61 24.71 C 29.53 29.43 29.56 34.15 29.57 38.87 C 30.24 38.87 31.58 38.87 32.24 38.87 C 32.27 36.05 32.05 33.21 32.40 30.40 C 33.46 28.52 35.52 27.66 37.45 26.97 C 37.33 26.41 37.09 25.30 36.97 24.74 C 34.95 24.51 33.54 26.22 32.05 27.26 C 32.16 25.45 31.34 24.60 29.61 24.71 M 39.22 27.12 C 37.89 29.45 39.93 32.08 42.30 32.47 C 43.88 33.25 47.17 33.20 46.70 35.73 C 44.64 38.06 41.28 36.33 38.92 35.39 C 38.87 36.06 38.76 37.41 38.71 38.08 C 41.29 38.78 44.11 39.83 46.73 38.67 C 49.52 37.87 50.29 33.75 48.03 31.95 C 46.01 30.65 43.47 30.44 41.46 29.10 C 41.50 25.55 46.18 27.53 48.25 28.00 C 48.28 27.40 48.33 26.21 48.36 25.61 C 45.53 24.30 40.87 23.84 39.22 27.12 Z" />
<path fill="#ff5d14" opacity="1.00" d=" M 17.43 34.97 C 18.32 32.32 21.43 32.29 23.70 31.90 C 25.21 35.64 18.74 39.16 17.43 34.97 Z" />
</g>
<g id="#fffcfbff">
<path fill="#fffcfb" opacity="1.00" d=" M 15.91 27.94 C 15.00 25.19 18.21 24.98 20.08 24.70 C 22.33 24.40 25.01 24.80 26.08 27.08 C 26.67 31.06 26.30 35.11 26.32 39.13 C 25.12 39.04 24.18 38.52 23.50 37.57 C 21.62 38.70 19.31 39.87 17.13 38.80 C 14.26 37.69 14.14 33.27 16.66 31.70 C 18.95 30.34 21.70 30.11 24.19 29.24 C 22.66 25.77 18.65 27.48 15.91 27.94 M 17.43 34.97 C 18.74 39.16 25.21 35.64 23.70 31.90 C 21.43 32.29 18.32 32.32 17.43 34.97 Z" />
<path fill="#fffcfb" opacity="1.00" d=" M 29.61 24.71 C 31.34 24.60 32.16 25.45 32.05 27.26 C 33.54 26.22 34.95 24.51 36.97 24.74 C 37.09 25.30 37.33 26.41 37.45 26.97 C 35.52 27.66 33.46 28.52 32.40 30.40 C 32.05 33.21 32.27 36.05 32.24 38.87 C 31.58 38.87 30.24 38.87 29.57 38.87 C 29.56 34.15 29.53 29.43 29.61 24.71 Z" />
<path fill="#fffcfb" opacity="1.00" d=" M 39.22 27.12 C 40.87 23.84 45.53 24.30 48.36 25.61 C 48.33 26.21 48.28 27.40 48.25 28.00 C 46.18 27.53 41.50 25.55 41.46 29.10 C 43.47 30.44 46.01 30.65 48.03 31.95 C 50.29 33.75 49.52 37.87 46.73 38.67 C 44.11 39.83 41.29 38.78 38.71 38.08 C 38.76 37.41 38.87 36.06 38.92 35.39 C 41.28 36.33 44.64 38.06 46.70 35.73 C 47.17 33.20 43.88 33.25 42.30 32.47 C 39.93 32.08 37.89 29.45 39.22 27.12 Z" />
</g>
</svg>
