<?xml version="1.0" encoding="UTF-8" ?>
<!DOCTYPE svg PUBLIC "-//W3C//DTD SVG 1.1//EN" "http://www.w3.org/Graphics/SVG/1.1/DTD/svg11.dtd">
<svg width="225pt" height="225pt" viewBox="0 0 225 225" version="1.1" xmlns="http://www.w3.org/2000/svg">
<g id="#ffffffff">
<path fill="#ffffff" opacity="1.00" d=" M 0.00 0.00 L 225.00 0.00 L 225.00 225.00 L 0.00 225.00 L 0.00 0.00 M 92.15 16.54 C 128.63 80.59 165.06 144.68 201.47 208.78 C 207.72 197.60 214.16 186.54 220.38 175.35 C 223.98 169.08 223.63 161.10 220.25 154.81 C 197.39 114.40 174.44 74.03 151.57 33.62 C 149.10 29.45 147.10 24.78 143.23 21.67 C 139.59 18.50 134.81 16.68 129.98 16.62 C 117.37 16.50 104.76 16.68 92.15 16.54 M 21.39 130.26 C 52.74 130.17 84.08 130.22 115.42 130.23 C 99.73 102.83 84.13 75.37 68.57 47.90 C 52.89 75.38 37.09 102.79 21.39 130.26 M 2.17 165.57 C 8.40 176.39 14.53 187.27 20.77 198.08 C 24.34 204.64 31.59 208.99 39.05 209.10 C 79.47 209.11 119.90 209.11 160.32 209.10 C 151.70 194.67 143.38 180.07 134.83 165.60 C 90.61 165.61 46.39 165.67 2.17 165.57 Z" />
</g>
<g id="#00b2fbff">
<path fill="#00b2fb" opacity="1.00" d=" M 92.15 16.54 C 104.76 16.68 117.37 16.50 129.98 16.62 C 134.81 16.68 139.59 18.50 143.23 21.67 C 147.10 24.78 149.10 29.45 151.57 33.62 C 174.44 74.03 197.39 114.40 220.25 154.81 C 223.63 161.10 223.98 169.08 220.38 175.35 C 214.16 186.54 207.72 197.60 201.47 208.78 C 165.06 144.68 128.63 80.59 92.15 16.54 Z" />
<path fill="#00b2fb" opacity="1.00" d=" M 21.39 130.26 C 37.09 102.79 52.89 75.38 68.57 47.90 C 84.13 75.37 99.73 102.83 115.42 130.23 C 84.08 130.22 52.74 130.17 21.39 130.26 Z" />
<path fill="#00b2fb" opacity="1.00" d=" M 2.17 165.57 C 46.39 165.67 90.61 165.61 134.83 165.60 C 143.38 180.07 151.70 194.67 160.32 209.10 C 119.90 209.11 79.47 209.11 39.05 209.10 C 31.59 208.99 24.34 204.64 20.77 198.08 C 14.53 187.27 8.40 176.39 2.17 165.57 Z" />
</g>
</svg>
