<?xml version="1.0" encoding="UTF-8" ?>
<!DOCTYPE svg PUBLIC "-//W3C//DTD SVG 1.1//EN" "http://www.w3.org/Graphics/SVG/1.1/DTD/svg11.dtd">
<svg width="56pt" height="56pt" viewBox="0 0 56 56" version="1.1" xmlns="http://www.w3.org/2000/svg">
<g id="#000000ff">
<path fill="#000000" opacity="1.00" d=" M 23.53 0.00 L 32.45 0.00 C 38.78 1.70 45.00 4.64 49.24 9.79 C 52.73 13.64 54.54 18.62 56.00 23.52 L 56.00 31.48 C 54.97 36.79 52.84 41.91 49.36 46.10 C 44.43 33.13 39.48 20.16 34.67 7.14 C 30.97 6.93 27.25 6.83 23.56 7.22 C 18.49 20.81 13.64 34.51 8.02 47.89 C 4.10 43.50 1.50 38.14 0.00 32.47 L 0.00 23.54 C 1.45 18.63 3.27 13.65 6.76 9.79 C 11.00 4.64 17.21 1.72 23.53 0.00 Z" />
<path fill="#000000" opacity="1.00" d=" M 18.77 48.90 C 22.29 40.35 25.64 31.74 29.20 23.20 C 32.49 31.79 36.18 40.22 39.45 48.81 C 41.72 48.98 44.00 49.07 46.29 49.08 C 42.37 52.56 37.47 54.62 32.47 56.00 L 23.55 56.00 C 18.51 54.64 13.69 52.45 9.57 49.21 C 12.63 49.01 15.70 48.99 18.77 48.90 Z" />
</g>
<g id="#ffffffff">
<path fill="#ffffff" opacity="1.00" d=" M 23.56 7.22 C 27.25 6.83 30.97 6.93 34.67 7.14 C 39.48 20.16 44.43 33.13 49.36 46.10 C 49.61 47.06 49.84 48.02 50.05 48.98 C 48.80 49.02 47.54 49.05 46.29 49.08 C 44.00 49.07 41.72 48.98 39.45 48.81 C 36.18 40.22 32.49 31.79 29.20 23.20 C 25.64 31.74 22.29 40.35 18.77 48.90 C 15.70 48.99 12.63 49.01 9.57 49.21 C 9.03 48.80 8.51 48.36 8.02 47.89 C 13.64 34.51 18.49 20.81 23.56 7.22 Z" />
</g>
</svg>
