<?xml version="1.0" encoding="UTF-8" ?>
<!DOCTYPE svg PUBLIC "-//W3C//DTD SVG 1.1//EN" "http://www.w3.org/Graphics/SVG/1.1/DTD/svg11.dtd">
<svg width="196pt" height="196pt" viewBox="0 0 196 196" version="1.1" xmlns="http://www.w3.org/2000/svg">
<g id="#ffffffff">
<path fill="#ffffff" opacity="1.00" d=" M 28.63 0.00 L 167.11 0.00 C 176.61 0.95 185.64 6.11 190.84 14.17 C 193.75 18.48 195.25 23.54 196.00 28.63 L 196.00 167.17 C 195.13 174.46 192.13 181.65 186.76 186.78 C 181.68 192.10 174.56 195.07 167.34 196.00 L 28.89 196.00 C 19.41 195.05 10.39 189.91 5.19 181.87 C 2.26 177.56 0.75 172.47 0.00 167.36 L 0.00 28.90 C 0.84 21.59 3.85 14.38 9.22 9.23 C 14.30 3.91 21.41 0.95 28.63 0.00 M 121.87 47.86 C 116.38 53.03 116.35 61.04 116.70 68.02 C 113.91 68.10 111.11 68.18 108.32 68.16 C 108.34 72.30 108.33 76.45 108.35 80.60 C 111.08 80.60 113.82 80.58 116.55 80.53 C 116.82 94.68 116.55 108.85 116.68 123.01 C 116.65 126.18 116.76 129.90 114.38 132.34 C 111.95 134.94 108.12 133.69 105.07 133.27 C 104.96 137.79 104.98 142.32 104.70 146.83 C 111.35 147.85 118.67 148.27 124.74 144.82 C 130.45 141.74 133.78 135.28 134.04 128.92 C 134.34 112.79 134.33 96.66 134.45 80.54 C 138.16 80.60 141.86 80.60 145.57 80.58 C 145.57 76.44 145.57 72.30 145.59 68.16 C 141.83 68.15 138.07 68.14 134.32 68.03 C 134.52 64.48 133.61 60.24 136.28 57.38 C 139.21 55.05 143.16 56.23 146.59 55.94 C 146.92 51.71 147.31 47.47 147.84 43.25 C 139.14 41.14 128.82 41.56 121.87 47.86 M 11.00 48.77 C 11.03 80.53 11.04 112.29 11.00 144.04 C 18.07 144.06 25.15 144.05 32.22 144.05 C 32.22 140.24 32.22 136.43 32.21 132.62 C 30.49 132.63 28.77 132.66 27.05 132.68 C 26.94 108.49 27.02 84.29 27.01 60.10 C 28.75 60.11 30.48 60.11 32.21 60.12 C 32.22 56.33 32.22 52.55 32.22 48.76 C 25.15 48.76 18.07 48.75 11.00 48.77 M 163.92 48.76 C 163.91 52.54 163.91 56.33 163.93 60.12 C 165.75 60.11 167.58 60.11 169.41 60.11 C 169.48 84.25 169.36 108.40 169.47 132.55 C 167.62 132.58 165.77 132.62 163.92 132.67 C 163.91 136.46 163.91 140.26 163.92 144.05 C 170.95 144.05 177.97 144.05 185.00 144.05 C 185.00 112.29 185.00 80.52 185.00 48.76 C 177.97 48.76 170.95 48.77 163.92 48.76 M 55.68 71.56 C 52.71 74.57 51.58 78.86 51.75 83.00 C 57.81 83.00 63.87 83.00 69.94 83.00 C 70.49 80.68 71.23 77.66 73.95 77.11 C 76.70 76.85 80.16 76.42 82.12 78.84 C 84.47 81.67 83.85 85.56 83.96 88.96 C 77.61 89.10 71.13 88.38 64.93 90.14 C 59.00 91.41 53.17 95.17 51.03 101.06 C 48.60 107.91 50.01 116.47 55.73 121.29 C 64.10 128.51 78.29 127.37 84.87 118.23 C 85.66 120.44 86.46 122.63 87.29 124.82 C 93.59 124.71 99.89 125.15 106.19 124.99 C 101.61 114.19 103.18 102.34 102.93 90.95 C 102.90 85.85 103.45 80.50 101.23 75.73 C 98.09 68.09 89.73 64.12 81.91 63.36 C 72.65 62.52 62.10 64.22 55.68 71.56 Z" />
<path fill="#ffffff" opacity="1.00" d=" M 73.44 99.64 C 76.85 98.59 80.47 99.12 83.97 99.01 C 83.90 102.22 84.12 105.45 83.79 108.65 C 80.69 111.76 75.57 113.50 71.49 111.42 C 66.91 108.68 68.66 101.11 73.44 99.64 Z" />
</g>
<g id="#7f7f7fff">
<path fill="#7f7f7f" opacity="1.00" d=" M 121.87 47.86 C 128.82 41.56 139.14 41.14 147.84 43.25 C 147.31 47.47 146.92 51.71 146.59 55.94 C 143.16 56.23 139.21 55.05 136.28 57.38 C 133.61 60.24 134.52 64.48 134.32 68.03 C 138.07 68.14 141.83 68.15 145.59 68.16 C 145.57 72.30 145.57 76.44 145.57 80.58 C 141.86 80.60 138.16 80.60 134.45 80.54 C 134.33 96.66 134.34 112.79 134.04 128.92 C 133.78 135.28 130.45 141.74 124.74 144.82 C 118.67 148.27 111.35 147.85 104.70 146.83 C 104.98 142.32 104.96 137.79 105.07 133.27 C 108.12 133.69 111.95 134.94 114.38 132.34 C 116.76 129.90 116.65 126.18 116.68 123.01 C 116.55 108.85 116.82 94.68 116.55 80.53 C 113.82 80.58 111.08 80.60 108.35 80.60 C 108.33 76.45 108.34 72.30 108.32 68.16 C 111.11 68.18 113.91 68.10 116.70 68.02 C 116.35 61.04 116.38 53.03 121.87 47.86 Z" />
<path fill="#7f7f7f" opacity="1.00" d=" M 55.68 71.56 C 62.10 64.22 72.65 62.52 81.91 63.36 C 89.73 64.12 98.09 68.09 101.23 75.73 C 103.45 80.50 102.90 85.85 102.93 90.95 C 103.18 102.34 101.61 114.19 106.19 124.99 C 99.89 125.15 93.59 124.71 87.29 124.82 C 86.46 122.63 85.66 120.44 84.87 118.23 C 78.29 127.37 64.10 128.51 55.73 121.29 C 50.01 116.47 48.60 107.91 51.03 101.06 C 53.17 95.17 59.00 91.41 64.93 90.14 C 71.13 88.38 77.61 89.10 83.96 88.96 C 83.85 85.56 84.47 81.67 82.12 78.84 C 80.16 76.42 76.70 76.85 73.95 77.11 C 71.23 77.66 70.49 80.68 69.94 83.00 C 63.87 83.00 57.81 83.00 51.75 83.00 C 51.58 78.86 52.71 74.57 55.68 71.56 M 73.44 99.64 C 68.66 101.11 66.91 108.68 71.49 111.42 C 75.57 113.50 80.69 111.76 83.79 108.65 C 84.12 105.45 83.90 102.22 83.97 99.01 C 80.47 99.12 76.85 98.59 73.44 99.64 Z" />
</g>
<g id="#ff9e20ff">
<path fill="#ff9e20" opacity="1.00" d=" M 11.00 48.77 C 18.07 48.75 25.15 48.76 32.22 48.76 C 32.22 52.55 32.22 56.33 32.21 60.12 C 30.48 60.11 28.75 60.11 27.01 60.10 C 27.02 84.29 26.94 108.49 27.05 132.68 C 28.77 132.66 30.49 132.63 32.21 132.62 C 32.22 136.43 32.22 140.24 32.22 144.05 C 25.15 144.05 18.07 144.06 11.00 144.04 C 11.04 112.29 11.03 80.53 11.00 48.77 Z" />
<path fill="#ff9e20" opacity="1.00" d=" M 163.92 48.76 C 170.95 48.77 177.97 48.76 185.00 48.76 C 185.00 80.52 185.00 112.29 185.00 144.05 C 177.97 144.05 170.95 144.05 163.92 144.05 C 163.91 140.26 163.91 136.46 163.92 132.67 C 165.77 132.62 167.62 132.58 169.47 132.55 C 169.36 108.40 169.48 84.25 169.41 60.11 C 167.58 60.11 165.75 60.11 163.93 60.12 C 163.91 56.33 163.91 52.54 163.92 48.76 Z" />
</g>
</svg>
