<?xml version="1.0" encoding="UTF-8" ?>
<!DOCTYPE svg PUBLIC "-//W3C//DTD SVG 1.1//EN" "http://www.w3.org/Graphics/SVG/1.1/DTD/svg11.dtd">
<svg width="64pt" height="64pt" viewBox="0 0 64 64" version="1.1" xmlns="http://www.w3.org/2000/svg">
<g id="#050505ff">
<path fill="#050505" opacity="1.00" d=" M 25.07 9.03 C 27.54 4.30 34.84 3.66 38.11 7.86 C 41.03 11.13 40.24 16.17 37.35 19.18 C 41.29 27.13 45.26 35.07 49.26 43.00 C 52.61 42.75 56.31 43.90 57.94 47.06 C 60.44 51.14 58.24 57.06 53.69 58.52 C 49.11 60.34 43.56 56.91 43.08 52.03 C 42.58 49.31 44.06 46.86 45.65 44.81 C 41.68 36.83 37.71 28.86 33.69 20.91 C 32.49 20.91 31.30 20.91 30.10 20.90 C 25.95 28.68 21.88 36.50 17.74 44.29 C 19.43 46.16 21.12 48.33 20.98 51.00 C 21.16 55.99 15.90 60.13 11.09 58.75 C 6.38 57.75 3.58 52.01 5.74 47.69 C 7.08 44.43 10.61 42.94 13.94 42.87 C 18.18 34.96 22.35 27.02 26.51 19.06 C 24.16 16.33 23.06 12.27 25.07 9.03 Z" />
</g>
</svg>
