<?xml version="1.0" encoding="UTF-8" ?>
<!DOCTYPE svg PUBLIC "-//W3C//DTD SVG 1.1//EN" "http://www.w3.org/Graphics/SVG/1.1/DTD/svg11.dtd">
<svg width="120pt" height="120pt" viewBox="0 0 120 120" version="1.1" xmlns="http://www.w3.org/2000/svg">
<g id="#ffb7ffff">
<path fill="#ffb7ff" opacity="1.00" d=" M 55.29 1.36 C 71.53 0.00 88.23 5.69 100.06 16.94 C 111.91 27.84 119.03 43.84 118.76 59.98 C 119.01 75.41 112.55 90.76 101.59 101.58 C 90.75 112.56 75.39 119.02 59.95 118.76 C 44.31 119.00 28.78 112.34 17.94 101.10 C 7.23 90.31 0.98 75.15 1.24 59.92 C 1.01 44.52 7.46 29.21 18.42 18.42 C 28.13 8.54 41.49 2.38 55.29 1.36 M 56.62 10.05 C 40.80 11.06 25.76 20.05 17.50 33.60 C 9.88 45.68 7.89 61.06 12.16 74.68 C 16.83 90.30 29.67 103.15 45.29 107.83 C 52.02 109.74 59.19 110.82 66.14 109.60 C 84.56 107.68 101.02 94.30 107.12 76.88 C 109.70 69.23 110.93 60.91 109.48 52.90 C 107.72 39.19 99.70 26.49 88.30 18.74 C 79.14 12.38 67.72 9.29 56.62 10.05 Z" />
<path fill="#ffb7ff" opacity="1.00" d=" M 36.56 37.79 C 53.92 35.09 72.25 36.42 88.53 43.32 C 91.37 44.83 95.05 45.77 96.50 48.93 C 97.34 51.76 95.03 55.22 91.93 54.83 C 88.59 54.51 86.01 51.92 82.83 50.99 C 66.03 44.71 47.22 44.30 29.93 48.74 C 26.13 48.75 23.95 43.45 26.81 40.87 C 29.53 38.68 33.30 38.64 36.56 37.79 Z" />
<path fill="#ffb7ff" opacity="1.00" d=" M 35.42 55.51 C 52.75 51.65 71.73 53.86 87.19 62.83 C 90.03 63.98 90.51 68.31 87.69 69.74 C 84.84 71.68 82.18 68.44 79.58 67.51 C 65.13 60.84 48.08 59.45 32.86 64.28 C 31.86 63.92 30.85 63.55 29.84 63.19 C 29.50 61.87 28.15 60.43 29.01 59.07 C 29.92 56.38 33.08 56.13 35.42 55.51 Z" />
<path fill="#ffb7ff" opacity="1.00" d=" M 31.69 72.78 C 48.03 68.38 66.55 68.59 81.37 77.58 C 83.27 78.34 84.27 81.18 82.49 82.54 C 81.24 84.25 79.01 83.41 77.55 82.48 C 66.47 76.02 52.97 75.11 40.55 77.20 C 37.47 77.54 34.22 79.17 31.31 77.40 C 31.13 75.84 31.19 74.28 31.69 72.78 Z" />
</g>
<g id="#1c42c8ff">
<path fill="#1c42c8" opacity="1.00" d=" M 56.62 10.05 C 67.72 9.29 79.14 12.38 88.30 18.74 C 99.70 26.49 107.72 39.19 109.48 52.90 C 110.93 60.91 109.70 69.23 107.12 76.88 C 101.02 94.30 84.56 107.68 66.14 109.60 C 59.19 110.82 52.02 109.74 45.29 107.83 C 29.67 103.15 16.83 90.30 12.16 74.68 C 7.89 61.06 9.88 45.68 17.50 33.60 C 25.76 20.05 40.80 11.06 56.62 10.05 M 36.56 37.79 C 33.30 38.64 29.53 38.68 26.81 40.87 C 23.95 43.45 26.13 48.75 29.93 48.74 C 47.22 44.30 66.03 44.71 82.83 50.99 C 86.01 51.92 88.59 54.51 91.93 54.83 C 95.03 55.22 97.34 51.76 96.50 48.93 C 95.05 45.77 91.37 44.83 88.53 43.32 C 72.25 36.42 53.92 35.09 36.56 37.79 M 35.42 55.51 C 33.08 56.13 29.92 56.38 29.01 59.07 C 28.15 60.43 29.50 61.87 29.84 63.19 C 30.85 63.55 31.86 63.92 32.86 64.28 C 48.08 59.45 65.13 60.84 79.58 67.51 C 82.18 68.44 84.84 71.68 87.69 69.74 C 90.51 68.31 90.03 63.98 87.19 62.83 C 71.73 53.86 52.75 51.65 35.42 55.51 M 31.69 72.78 C 31.19 74.28 31.13 75.84 31.31 77.40 C 34.22 79.17 37.47 77.54 40.55 77.20 C 52.97 75.11 66.47 76.02 77.55 82.48 C 79.01 83.41 81.24 84.25 82.49 82.54 C 84.27 81.18 83.27 78.34 81.37 77.58 C 66.55 68.59 48.03 68.38 31.69 72.78 Z" />
</g>
</svg>
