<?xml version="1.0" encoding="UTF-8" ?>
<!DOCTYPE svg PUBLIC "-//W3C//DTD SVG 1.1//EN" "http://www.w3.org/Graphics/SVG/1.1/DTD/svg11.dtd">
<svg width="250pt" height="250pt" viewBox="0 0 250 250" version="1.1" xmlns="http://www.w3.org/2000/svg">
<g id="#ffffffff">
<path fill="#ffffff" opacity="1.00" d=" M 52.56 0.00 L 197.47 0.00 C 213.24 1.40 228.32 9.44 237.97 22.03 C 244.89 30.74 248.94 41.52 250.00 52.56 L 250.00 197.48 C 248.61 213.01 240.79 227.89 228.51 237.55 C 219.70 244.70 208.71 248.93 197.45 250.00 L 52.53 250.00 C 36.78 248.61 21.70 240.57 12.05 228.00 C 5.12 219.29 1.06 208.49 0.00 197.44 L 0.00 52.51 C 1.07 41.49 5.12 30.72 12.03 22.02 C 21.69 9.43 36.79 1.38 52.56 0.00 M 94.31 91.80 C 87.55 98.18 82.62 106.55 80.80 115.69 C 77.77 130.38 82.25 146.46 93.07 156.98 C 103.59 167.77 119.67 172.23 134.34 169.19 C 143.48 167.37 151.83 162.42 158.22 155.68 C 164.89 148.46 168.99 139.05 169.98 129.29 C 170.95 117.47 167.51 105.27 159.78 96.19 C 150.51 84.73 135.43 78.69 120.81 80.01 C 111.00 80.99 101.54 85.09 94.31 91.80 Z" />
</g>
<g id="#f24d3cff">
<path fill="#f24d3c" opacity="1.00" d=" M 94.31 91.80 C 101.54 85.09 111.00 80.99 120.81 80.01 C 131.95 91.92 143.79 103.14 155.21 114.78 C 160.15 119.60 164.84 124.67 169.98 129.29 C 168.99 139.05 164.89 148.46 158.22 155.68 C 136.87 134.43 115.61 113.09 94.31 91.80 Z" />
</g>
<g id="#f75f3fff">
<path fill="#f75f3f" opacity="1.00" d=" M 120.81 80.01 C 135.43 78.69 150.51 84.73 159.78 96.19 C 167.51 105.27 170.95 117.47 169.98 129.29 C 164.84 124.67 160.15 119.60 155.21 114.78 C 143.79 103.14 131.95 91.92 120.81 80.01 Z" />
</g>
<g id="#eb3639ff">
<path fill="#eb3639" opacity="1.00" d=" M 80.80 115.69 C 82.62 106.55 87.55 98.18 94.31 91.80 C 115.61 113.09 136.87 134.43 158.22 155.68 C 151.83 162.42 143.48 167.37 134.34 169.19 C 128.69 162.69 122.28 156.90 116.29 150.71 C 104.36 139.14 93.07 126.90 80.80 115.69 Z" />
</g>
<g id="#e52237ff">
<path fill="#e52237" opacity="1.00" d=" M 80.80 115.69 C 93.07 126.90 104.36 139.14 116.29 150.71 C 122.28 156.90 128.69 162.69 134.34 169.19 C 119.67 172.23 103.59 167.77 93.07 156.98 C 82.25 146.46 77.77 130.38 80.80 115.69 Z" />
</g>
</svg>
