<?xml version="1.0" encoding="UTF-8" ?>
<!DOCTYPE svg PUBLIC "-//W3C//DTD SVG 1.1//EN" "http://www.w3.org/Graphics/SVG/1.1/DTD/svg11.dtd">
<svg width="64pt" height="64pt" viewBox="0 0 64 64" version="1.1" xmlns="http://www.w3.org/2000/svg">
<g id="#207f7bff">
<path fill="#207f7b" opacity="1.00" d=" M 31.28 0.00 L 34.43 0.00 C 40.71 0.96 46.99 3.01 51.97 7.09 C 58.87 12.47 63.21 20.80 64.00 29.49 L 64.00 35.14 C 63.63 37.79 62.96 40.39 62.28 42.97 C 62.91 44.72 63.55 46.47 64.00 48.28 L 64.00 52.02 C 63.35 56.69 60.20 60.40 56.40 62.95 C 55.96 54.47 56.33 45.98 56.19 37.49 C 57.36 38.26 58.53 39.02 59.71 39.78 C 61.55 29.90 58.04 19.17 50.22 12.74 C 40.59 4.25 25.04 3.91 15.03 11.93 C 6.55 18.28 2.60 29.50 4.55 39.83 C 5.74 39.04 6.93 38.25 8.11 37.45 C 8.10 45.94 8.15 54.43 8.08 62.92 C 3.83 60.50 0.85 56.33 0.00 51.51 L 0.00 48.69 C 0.54 46.76 1.25 44.88 1.98 43.01 C 1.27 40.28 0.54 37.55 0.00 34.78 L 0.00 31.27 C 0.54 23.22 3.73 15.24 9.53 9.55 C 15.23 3.73 23.22 0.54 31.28 0.00 Z" />
</g>
<g id="#d90202ff">
<path fill="#d90202" opacity="1.00" d=" M 22.78 22.91 C 25.60 22.91 28.43 22.91 31.26 22.91 C 31.27 23.85 31.28 25.74 31.29 26.68 C 28.47 26.69 25.64 26.69 22.82 26.68 C 22.81 25.74 22.79 23.85 22.78 22.91 Z" />
<path fill="#d90202" opacity="1.00" d=" M 32.87 22.91 C 35.69 22.91 38.51 22.91 41.33 22.91 C 41.32 23.85 41.31 25.74 41.31 26.68 C 38.49 26.69 35.67 26.69 32.85 26.68 C 32.85 25.74 32.86 23.85 32.87 22.91 Z" />
<path fill="#d90202" opacity="1.00" d=" M 12.90 25.65 C 15.70 25.64 18.50 25.64 21.30 25.64 C 21.30 26.58 21.29 28.46 21.29 29.41 C 18.49 29.41 15.69 29.41 12.89 29.40 C 12.89 28.46 12.90 26.59 12.90 25.65 Z" />
<path fill="#d90202" opacity="1.00" d=" M 42.77 25.63 C 45.59 25.62 48.41 25.62 51.23 25.61 C 51.24 26.58 51.25 28.51 51.25 29.48 C 48.43 29.47 45.62 29.47 42.80 29.47 C 42.79 28.51 42.78 26.59 42.77 25.63 Z" />
<path fill="#d90202" opacity="1.00" d=" M 22.77 27.47 C 25.60 27.47 28.44 27.47 31.28 27.47 C 31.29 28.28 31.31 29.89 31.32 30.70 C 28.48 30.72 25.64 30.86 22.81 30.63 C 22.80 29.84 22.78 28.26 22.77 27.47 Z" />
<path fill="#d90202" opacity="1.00" d=" M 32.83 27.47 C 35.65 27.47 38.47 27.47 41.28 27.47 C 41.30 28.28 41.33 29.90 41.34 30.72 C 38.50 30.74 35.66 30.74 32.81 30.72 C 32.82 29.91 32.83 28.28 32.83 27.47 Z" />
<path fill="#d90202" opacity="1.00" d=" M 42.80 30.44 C 45.63 30.07 48.50 30.30 51.34 30.30 C 51.34 31.11 51.33 32.73 51.32 33.54 C 48.47 33.54 45.62 33.55 42.77 33.54 C 42.78 32.77 42.79 31.22 42.80 30.44 Z" />
<path fill="#d90202" opacity="1.00" d=" M 12.82 30.33 C 15.65 30.32 18.47 30.32 21.30 30.33 C 21.29 31.13 21.27 32.73 21.26 33.53 C 18.45 33.54 15.64 33.54 12.83 33.53 C 12.83 32.73 12.82 31.13 12.82 30.33 Z" />
<path fill="#d90202" opacity="1.00" d=" M 22.81 31.52 C 25.63 31.52 28.46 31.52 31.29 31.52 C 31.29 41.26 31.26 51.00 31.30 60.73 C 28.46 60.77 25.62 60.77 22.78 60.74 C 22.82 51.00 22.78 41.26 22.81 31.52 Z" />
<path fill="#d90202" opacity="1.00" d=" M 32.83 31.52 C 35.65 31.52 38.48 31.52 41.30 31.52 C 41.29 41.26 41.28 51.00 41.31 60.74 C 38.47 60.78 35.64 60.77 32.81 60.71 C 32.86 50.98 32.82 41.25 32.83 31.52 Z" />
<path fill="#d90202" opacity="1.00" d=" M 12.83 34.39 C 15.62 34.37 18.41 34.37 21.20 34.39 C 21.22 43.14 21.18 51.90 21.22 60.65 C 18.42 60.73 15.62 60.72 12.81 60.65 C 12.87 51.89 12.83 43.14 12.83 34.39 Z" />
<path fill="#d90202" opacity="1.00" d=" M 42.79 34.38 C 45.64 34.37 48.49 34.37 51.34 34.37 C 51.33 43.16 51.32 51.95 51.35 60.74 C 48.49 60.77 45.64 60.76 42.79 60.74 C 42.81 51.95 42.79 43.16 42.79 34.38 Z" />
<path fill="#d90202" opacity="1.00" d=" M 12.84 61.58 C 15.65 61.58 18.46 61.57 21.27 61.58 C 21.29 62.18 21.33 63.39 21.35 64.00 L 12.83 64.00 C 12.83 63.40 12.84 62.19 12.84 61.58 Z" />
<path fill="#d90202" opacity="1.00" d=" M 22.81 61.56 C 25.62 61.56 28.44 61.56 31.25 61.56 C 31.27 62.17 31.31 63.39 31.33 64.00 L 22.81 64.00 C 22.81 63.39 22.81 62.17 22.81 61.56 Z" />
<path fill="#d90202" opacity="1.00" d=" M 32.84 61.56 C 35.65 61.56 38.45 61.56 41.26 61.56 C 41.28 62.17 41.32 63.39 41.34 64.00 L 32.82 64.00 C 32.83 63.39 32.83 62.17 32.84 61.56 Z" />
<path fill="#d90202" opacity="1.00" d=" M 42.80 61.56 C 45.64 61.56 48.47 61.56 51.30 61.56 C 51.32 62.17 51.37 63.39 51.39 64.00 L 42.79 64.00 C 42.79 63.39 42.80 62.17 42.80 61.56 Z" />
</g>
</svg>
