<?xml version="1.0" encoding="UTF-8" ?>
<!DOCTYPE svg PUBLIC "-//W3C//DTD SVG 1.1//EN" "http://www.w3.org/Graphics/SVG/1.1/DTD/svg11.dtd">
<svg width="96pt" height="96pt" viewBox="0 0 96 96" version="1.1" xmlns="http://www.w3.org/2000/svg">
<g id="#545454ff">
<path fill="#545454" opacity="1.00" d=" M 35.37 0.00 L 39.24 0.00 C 42.43 1.20 45.42 3.54 46.18 7.03 C 47.40 10.87 45.38 14.59 43.55 17.85 C 44.94 21.66 46.32 25.47 47.73 29.28 C 52.55 28.73 57.46 29.45 61.47 32.34 C 63.87 30.53 66.26 28.71 68.63 26.88 C 68.71 23.59 68.61 19.70 71.45 17.41 C 75.24 13.85 81.84 15.26 84.41 19.61 C 86.97 23.45 86.03 29.54 81.73 31.74 C 78.89 33.49 75.47 32.35 72.52 31.53 C 70.12 33.56 67.72 35.61 65.35 37.68 C 66.05 41.06 66.98 44.58 66.13 48.03 C 65.48 51.12 63.73 53.79 62.12 56.44 C 63.00 57.69 63.89 58.94 64.78 60.19 C 68.80 60.13 73.15 59.96 76.63 62.32 C 84.31 66.94 86.64 77.72 82.69 85.53 C 80.16 91.10 74.73 95.03 68.73 96.00 L 64.62 96.00 C 57.65 94.81 51.90 89.03 50.86 82.03 C 49.75 77.10 51.55 72.23 53.89 67.97 C 55.18 66.00 54.29 63.68 54.07 61.54 C 50.31 61.60 46.59 61.06 43.04 59.83 C 41.07 61.92 39.12 64.02 37.17 66.12 C 37.96 69.81 38.73 74.02 36.36 77.33 C 33.66 82.05 26.40 83.49 22.42 79.59 C 17.90 75.62 18.64 67.81 23.27 64.23 C 25.79 61.78 29.53 62.63 32.67 62.03 C 34.84 60.04 36.47 57.55 38.24 55.21 C 37.12 52.33 36.19 49.39 35.43 46.39 C 31.85 45.31 28.25 44.27 24.63 43.33 C 22.67 44.96 20.73 47.06 18.04 47.30 C 14.00 47.61 10.21 44.09 10.23 40.04 C 9.59 35.20 14.00 30.24 19.01 31.17 C 22.55 31.19 24.17 34.73 25.78 37.30 C 29.54 37.78 33.29 38.30 37.07 38.69 C 38.83 36.22 40.79 33.89 42.87 31.67 C 41.07 28.01 39.21 24.38 37.28 20.79 C 33.95 20.01 30.13 19.02 28.53 15.62 C 25.12 9.67 28.95 1.80 35.37 0.00 Z" />
</g>
</svg>
