<?xml version="1.0" encoding="UTF-8" ?>
<!DOCTYPE svg PUBLIC "-//W3C//DTD SVG 1.1//EN" "http://www.w3.org/Graphics/SVG/1.1/DTD/svg11.dtd">
<svg width="32pt" height="32pt" viewBox="0 0 32 32" version="1.1" xmlns="http://www.w3.org/2000/svg">
<g id="#e00a42ff">
<path fill="#e00a42" opacity="1.00" d=" M 0.00 0.00 L 8.40 0.00 C 11.51 5.38 5.70 11.76 0.00 10.10 L 0.00 0.00 Z" />
<path fill="#e00a42" opacity="1.00" d=" M 17.00 18.15 C 19.50 15.68 21.32 12.64 23.78 10.13 C 26.51 12.90 29.32 15.59 32.00 18.40 L 32.00 32.00 L 0.00 32.00 L 0.00 21.06 C 3.02 18.92 5.89 16.58 8.94 14.48 C 11.98 14.00 14.33 16.99 17.00 18.15 Z" />
</g>
<g id="#0ba0eeff">
<path fill="#0ba0ee" opacity="1.00" d=" M 8.40 0.00 L 32.00 0.00 L 32.00 18.40 C 29.32 15.59 26.51 12.90 23.78 10.13 C 21.32 12.64 19.50 15.68 17.00 18.15 C 14.33 16.99 11.98 14.00 8.94 14.48 C 5.89 16.58 3.02 18.92 0.00 21.06 L 0.00 10.10 C 5.70 11.76 11.51 5.38 8.40 0.00 Z" />
</g>
</svg>
