<?xml version="1.0" encoding="UTF-8" ?>
<!DOCTYPE svg PUBLIC "-//W3C//DTD SVG 1.1//EN" "http://www.w3.org/Graphics/SVG/1.1/DTD/svg11.dtd">
<svg width="200pt" height="200pt" viewBox="0 0 200 200" version="1.1" xmlns="http://www.w3.org/2000/svg">
<g id="#faad50ff">
<path fill="#faad50" opacity="1.00" d=" M 17.67 51.64 C 34.97 24.31 67.18 8.68 99.00 7.49 C 122.21 7.80 145.35 15.98 163.46 30.52 C 180.42 44.09 191.72 64.16 195.35 85.50 C 197.12 94.38 197.00 103.45 197.03 112.46 C 193.33 112.45 189.62 112.48 185.92 112.57 C 187.21 89.30 181.13 64.77 164.98 47.35 C 164.24 49.89 163.41 52.56 161.43 54.44 C 157.14 58.86 149.41 59.40 144.67 55.41 C 121.15 32.67 79.65 32.38 55.91 54.93 C 51.38 59.22 43.60 59.10 39.06 54.89 C 36.78 53.00 35.79 50.11 35.02 47.35 C 18.89 64.75 12.80 89.27 14.07 112.53 C 10.37 112.46 6.67 112.45 2.97 112.48 C 2.07 91.38 6.03 69.56 17.67 51.64 Z" />
</g>
<g id="#55565bf7">
<path fill="#55565b" opacity="0.97" d=" M 90.28 72.59 C 97.34 71.78 104.45 71.92 111.51 72.55 L 106.49 73.07 C 107.88 73.34 110.67 73.89 112.06 74.17 C 112.72 74.30 114.03 74.55 114.68 74.68 C 114.63 75.03 114.52 75.73 114.46 76.08 C 116.10 76.41 117.82 76.70 119.01 77.99 C 121.57 80.66 124.78 82.89 126.16 86.47 C 126.44 86.48 127.01 86.49 127.30 86.50 C 127.77 88.25 128.27 89.98 128.74 91.73 L 129.69 91.26 L 129.23 92.60 L 130.37 92.52 C 130.45 95.23 130.56 97.94 130.59 100.66 L 131.59 100.29 L 131.39 102.44 C 130.65 102.48 129.17 102.56 128.43 102.61 C 128.34 101.44 128.25 100.28 128.14 99.12 C 127.68 96.88 127.45 94.60 127.28 92.31 C 126.94 92.38 126.24 92.52 125.89 92.59 C 125.49 90.93 125.44 88.99 123.91 87.91 C 123.20 86.86 122.69 85.69 122.15 84.56 C 121.84 84.53 121.22 84.46 120.91 84.43 C 120.53 82.58 119.30 81.51 117.48 81.13 C 117.48 80.82 117.49 80.21 117.49 79.90 C 116.03 79.38 114.57 78.84 113.12 78.29 L 113.66 76.32 C 113.33 76.63 112.69 77.24 112.37 77.54 C 110.92 77.02 109.46 76.53 107.99 76.06 L 109.28 74.22 C 108.32 74.64 106.41 75.48 105.45 75.90 L 105.68 74.57 C 102.39 74.65 99.09 74.43 95.81 74.77 L 94.65 76.65 C 94.52 75.72 94.28 73.87 94.16 72.94 C 94.50 77.16 90.17 76.62 87.43 77.58 L 87.68 78.41 C 86.28 78.90 84.89 79.40 83.49 79.88 C 83.51 80.19 83.54 80.82 83.55 81.14 C 81.72 81.51 80.47 82.56 80.09 84.43 C 79.76 84.46 79.10 84.52 78.77 84.56 C 78.25 85.85 77.71 87.13 77.17 88.42 C 76.80 88.43 76.08 88.47 75.72 88.48 C 75.58 89.86 75.45 91.25 75.31 92.63 C 74.89 92.55 74.04 92.38 73.62 92.30 C 73.46 95.67 73.28 99.04 73.22 102.42 C 72.00 102.45 70.79 102.48 69.58 102.51 C 69.57 101.45 69.55 100.40 69.54 99.34 L 70.41 99.78 C 70.39 97.42 70.41 95.02 71.26 92.79 C 71.26 92.46 71.27 91.82 71.28 91.49 L 72.29 91.68 C 72.77 89.95 73.26 88.22 73.73 86.49 C 74.03 86.49 74.62 86.49 74.91 86.50 C 75.41 85.20 76.03 83.97 76.92 82.90 C 78.63 81.30 80.33 79.68 81.96 77.99 C 83.19 76.73 84.90 76.40 86.55 76.08 C 86.49 75.77 86.38 75.14 86.32 74.83 C 87.62 74.47 88.91 74.06 90.17 73.59 C 90.94 73.93 92.47 74.60 93.24 74.94 L 90.28 72.59 Z" />
<path fill="#55565b" opacity="0.97" d=" M 95.36 79.40 C 98.79 79.34 102.21 79.34 105.64 79.40 L 105.90 81.75 C 102.30 81.66 98.70 81.66 95.10 81.75 L 95.36 79.40 Z" />
<path fill="#55565b" opacity="0.97" d=" M 88.55 81.79 C 90.74 81.14 94.19 82.07 94.48 78.61 L 94.80 83.29 C 93.00 83.76 91.21 84.27 89.41 84.74 C 89.44 85.11 89.50 85.85 89.53 86.22 C 88.91 86.36 87.66 86.62 87.04 86.76 C 83.75 89.20 83.51 94.87 78.81 95.14 L 80.70 95.23 C 80.53 97.64 80.40 100.05 80.32 102.47 C 79.57 102.50 78.06 102.56 77.31 102.59 C 77.37 99.50 77.69 96.43 78.48 93.45 L 79.40 93.58 C 79.80 92.18 80.23 90.78 80.67 89.39 C 81.06 89.40 81.85 89.42 82.24 89.43 C 82.36 88.82 82.58 87.60 82.69 86.99 C 84.46 85.42 86.36 83.98 88.51 82.96 C 88.52 82.67 88.54 82.09 88.55 81.79 Z" />
<path fill="#55565b" opacity="0.97" d=" M 106.53 78.59 C 106.78 82.08 110.25 81.14 112.45 81.79 C 112.46 82.08 112.48 82.66 112.49 82.95 C 114.58 83.91 116.45 85.26 117.99 86.97 C 118.60 88.10 119.36 89.14 120.36 89.97 C 120.91 91.46 121.43 92.97 121.89 94.49 C 122.24 94.47 122.93 94.43 123.27 94.41 C 123.41 97.14 123.55 99.87 123.67 102.60 C 122.91 102.57 121.41 102.50 120.66 102.47 C 120.58 99.74 120.46 97.01 120.36 94.29 C 119.95 94.39 119.12 94.59 118.71 94.69 C 118.60 94.03 118.40 92.70 118.30 92.04 C 116.36 89.67 114.53 87.01 111.57 85.84 C 111.57 85.56 111.57 85.01 111.57 84.74 C 109.78 84.27 107.99 83.76 106.20 83.29 L 106.53 78.59 Z" />
<path fill="#55565b" opacity="0.97" d=" M 97.00 85.93 C 99.89 86.21 103.12 85.59 105.62 87.43 C 108.16 89.29 111.31 90.55 113.04 93.31 L 113.44 93.38 C 113.81 94.56 114.17 95.75 114.55 96.93 L 115.23 96.40 C 115.55 97.62 115.87 98.85 116.24 100.07 C 116.26 101.11 116.27 102.15 116.28 103.20 C 115.39 103.24 114.49 103.29 113.60 103.34 C 113.51 102.16 113.42 100.98 113.34 99.80 C 112.22 97.75 111.11 95.69 110.05 93.61 C 109.81 93.58 109.32 93.52 109.08 93.49 C 106.78 90.37 102.53 90.26 99.01 90.41 C 96.33 90.41 93.62 91.36 91.91 93.50 C 91.68 93.53 91.22 93.58 90.99 93.61 C 89.36 96.47 87.40 99.33 87.38 102.77 C 86.41 102.69 85.45 102.62 84.48 102.55 C 84.87 100.42 85.31 98.30 85.68 96.16 C 85.98 96.63 86.57 97.56 86.87 98.02 L 86.32 95.96 C 87.21 94.62 88.08 93.27 88.90 91.88 C 90.04 91.20 91.20 90.55 92.39 89.95 C 92.40 89.66 92.42 89.08 92.43 88.79 C 93.62 88.55 94.80 88.25 95.97 87.91 C 97.38 87.66 100.19 87.18 101.59 86.93 L 97.00 85.93 Z" />
<path fill="#55565b" opacity="0.97" d=" M 98.22 102.78 C 99.74 102.73 101.25 102.73 102.77 102.78 C 103.75 103.71 104.85 104.50 106.00 105.19 C 106.44 106.17 106.89 107.15 107.37 108.11 L 107.36 109.49 C 116.53 109.80 125.71 109.61 134.88 109.62 C 134.95 110.79 134.99 111.97 135.00 113.14 C 134.65 114.65 134.18 116.14 133.58 117.57 C 129.75 122.69 125.28 127.41 119.91 130.93 C 118.87 131.61 117.83 132.31 116.85 133.07 C 115.50 133.65 114.15 134.21 112.79 134.77 C 112.44 135.79 112.09 136.81 111.73 137.83 C 111.75 144.58 111.59 151.32 111.81 158.06 C 112.73 160.03 112.79 162.19 111.88 164.16 C 111.44 171.41 111.78 178.68 111.69 185.95 C 103.99 185.93 96.27 186.30 88.59 185.69 C 88.63 177.69 88.92 169.67 88.48 161.68 C 87.82 161.51 86.51 161.17 85.85 161.00 C 86.51 160.83 87.84 160.50 88.50 160.33 C 88.84 151.82 88.76 143.28 88.49 134.77 C 87.03 134.25 85.59 133.68 84.16 133.11 C 83.14 132.39 82.11 131.68 81.07 130.98 C 76.40 127.54 71.74 123.71 68.59 118.77 L 67.72 115.14 L 66.85 119.27 C 66.59 117.77 66.30 116.29 66.02 114.79 C 65.91 113.07 66.07 111.34 66.17 109.62 C 75.24 109.62 84.32 109.78 93.40 109.51 C 93.89 108.06 94.39 106.62 94.91 105.19 C 96.11 104.52 97.25 103.75 98.22 102.78 M 71.29 113.50 C 71.37 114.34 71.53 116.02 71.61 116.86 C 75.26 121.29 79.62 124.99 83.99 128.66 C 84.33 128.59 85.01 128.44 85.35 128.36 L 85.50 129.33 C 87.42 130.40 89.40 131.40 91.59 131.77 C 91.92 133.14 92.34 134.50 92.37 135.93 C 92.56 147.75 92.10 159.58 92.66 171.40 C 97.88 171.50 103.11 171.50 108.34 171.40 C 108.90 159.56 108.44 147.70 108.63 135.86 C 108.65 134.46 109.07 133.11 109.41 131.77 C 112.29 131.38 114.65 129.65 117.12 128.26 C 121.72 125.03 125.78 121.14 129.40 116.85 C 129.48 116.01 129.63 114.34 129.71 113.50 C 110.23 113.61 90.76 113.61 71.29 113.50 M 92.63 175.50 C 92.60 177.52 92.57 179.54 92.56 181.56 C 97.85 181.72 103.15 181.72 108.44 181.56 C 108.42 179.54 108.40 177.52 108.37 175.50 C 103.12 175.38 97.87 175.38 92.63 175.50 Z" />
</g>
<g id="#f47f42ff">
<path fill="#f47f42" opacity="1.00" d=" M 53.98 110.96 C 58.23 108.96 63.79 110.55 66.02 114.79 C 66.30 116.29 66.59 117.77 66.85 119.27 C 68.01 134.54 68.87 149.83 69.90 165.11 C 70.22 168.96 69.48 172.92 70.56 176.68 C 70.89 181.21 72.24 186.88 68.18 190.21 C 63.42 194.91 53.92 191.89 53.38 185.04 C 51.80 163.44 50.55 141.81 49.04 120.20 C 48.45 116.46 50.52 112.52 53.98 110.96 Z" />
<path fill="#f47f42" opacity="1.00" d=" M 135.00 113.14 C 139.82 107.52 150.52 110.32 150.95 118.01 C 149.75 139.99 148.11 161.97 146.72 183.95 C 146.70 188.15 143.32 191.97 139.12 192.40 C 133.83 193.34 128.29 188.62 128.95 183.16 C 130.11 163.06 131.60 142.98 132.76 122.88 C 132.94 121.10 132.75 119.22 133.58 117.57 C 134.18 116.14 134.65 114.65 135.00 113.14 Z" />
<path fill="#f47f42" opacity="1.00" d=" M 2.97 112.48 C 6.67 112.45 10.37 112.46 14.07 112.53 C 14.91 117.51 19.18 120.94 23.05 123.73 C 28.85 118.33 36.09 114.20 44.05 113.25 C 45.56 134.12 46.78 155.00 48.18 175.87 C 48.46 180.88 48.99 185.88 48.92 190.91 C 38.10 189.90 27.03 185.61 20.21 176.81 C 10.54 164.54 7.36 148.67 5.15 133.56 C 4.30 126.55 3.28 119.54 2.97 112.48 Z" />
<path fill="#f47f42" opacity="1.00" d=" M 185.92 112.57 C 189.62 112.48 193.33 112.45 197.03 112.46 C 195.83 127.99 194.23 143.70 189.34 158.57 C 185.91 168.81 180.27 179.03 170.77 184.77 C 164.83 188.37 157.96 190.18 151.09 190.92 C 152.07 166.89 154.14 142.91 155.50 118.89 C 155.81 117.03 155.33 114.86 156.51 113.25 C 164.23 114.45 171.29 118.43 176.95 123.73 C 180.83 120.96 185.05 117.54 185.92 112.57 Z" />
</g>
</svg>
