<?xml version="1.0" encoding="UTF-8" ?>
<!DOCTYPE svg PUBLIC "-//W3C//DTD SVG 1.1//EN" "http://www.w3.org/Graphics/SVG/1.1/DTD/svg11.dtd">
<svg width="64pt" height="64pt" viewBox="0 0 64 64" version="1.1" xmlns="http://www.w3.org/2000/svg">
<g id="#468f59ff">
<path fill="#468f59" opacity="1.00" d=" M 24.25 1.17 C 34.40 -1.42 45.65 1.53 53.34 8.61 C 64.23 18.32 66.91 35.80 59.14 48.21 C 51.87 60.99 35.04 67.13 21.27 61.91 C 8.54 57.61 -0.47 44.47 0.16 31.04 C 0.34 17.17 10.75 4.33 24.25 1.17 M 25.02 21.97 C 22.03 26.24 17.96 29.74 15.66 34.49 C 13.91 37.78 13.60 41.79 14.64 45.35 C 16.64 50.89 22.58 53.82 28.12 54.49 C 31.69 54.86 35.76 55.02 38.79 52.78 C 41.23 51.03 41.17 46.96 38.67 45.29 C 34.95 42.83 29.96 41.71 27.71 37.49 C 25.57 32.94 29.53 27.87 33.96 26.83 C 37.02 25.92 41.04 26.45 42.71 23.09 C 41.55 20.99 40.86 18.62 39.40 16.70 C 37.23 14.61 34.05 14.51 31.25 14.06 C 30.93 12.45 30.59 10.85 30.24 9.26 C 27.08 12.81 27.74 18.16 25.02 21.97 M 30.54 36.35 C 33.42 40.21 38.84 40.50 42.03 43.95 C 44.77 46.49 44.06 51.04 42.07 53.84 C 46.60 52.53 50.08 47.77 49.71 43.01 C 50.22 35.80 42.92 29.61 35.95 30.25 C 32.41 29.51 29.13 32.86 30.54 36.35 Z" />
</g>
<g id="#f1f6f3ff">
<path fill="#f1f6f3" opacity="1.00" d=" M 25.02 21.97 C 27.74 18.16 27.08 12.81 30.24 9.26 C 30.59 10.85 30.93 12.45 31.25 14.06 C 34.05 14.51 37.23 14.61 39.40 16.70 C 40.86 18.62 41.55 20.99 42.71 23.09 C 41.04 26.45 37.02 25.92 33.96 26.83 C 29.53 27.87 25.57 32.94 27.71 37.49 C 29.96 41.71 34.95 42.83 38.67 45.29 C 41.17 46.96 41.23 51.03 38.79 52.78 C 35.76 55.02 31.69 54.86 28.12 54.49 C 22.58 53.82 16.64 50.89 14.64 45.35 C 13.60 41.79 13.91 37.78 15.66 34.49 C 17.96 29.74 22.03 26.24 25.02 21.97 Z" />
<path fill="#f1f6f3" opacity="1.00" d=" M 30.54 36.35 C 29.13 32.86 32.41 29.51 35.95 30.25 C 42.92 29.61 50.22 35.80 49.71 43.01 C 50.08 47.77 46.60 52.53 42.07 53.84 C 44.06 51.04 44.77 46.49 42.03 43.95 C 38.84 40.50 33.42 40.21 30.54 36.35 Z" />
</g>
</svg>
