<?xml version="1.0" encoding="UTF-8" ?>
<!DOCTYPE svg PUBLIC "-//W3C//DTD SVG 1.1//EN" "http://www.w3.org/Graphics/SVG/1.1/DTD/svg11.dtd">
<svg width="32pt" height="32pt" viewBox="0 0 32 32" version="1.1" xmlns="http://www.w3.org/2000/svg">
<g id="#2b9eebff">
<path fill="#2b9eeb" opacity="1.00" d=" M 0.00 0.00 L 32.00 0.00 L 32.00 32.00 L 0.00 32.00 L 0.00 0.00 M 8.45 7.88 C 11.21 8.29 14.35 7.57 16.84 9.09 C 18.96 11.20 17.58 14.37 15.83 16.21 C 17.25 16.98 19.24 17.48 19.59 19.32 C 20.56 22.19 18.77 25.04 16.21 26.28 L 16.69 24.28 C 15.18 24.29 13.68 24.29 12.17 24.27 C 12.16 21.78 12.17 19.30 12.18 16.81 C 13.63 16.06 15.99 16.00 16.27 13.99 C 14.91 13.95 13.55 13.91 12.20 13.89 C 12.17 12.21 12.15 10.53 12.13 8.85 C 11.32 8.83 9.70 8.78 8.89 8.76 C 8.85 14.86 8.83 20.97 8.89 27.07 C 11.07 27.05 13.25 26.83 15.38 26.37 C 19.34 28.52 24.05 24.15 23.28 20.01 C 23.36 17.50 21.23 16.04 19.31 14.96 C 21.92 12.44 21.81 7.20 18.03 5.90 C 14.86 5.15 10.19 4.25 8.45 7.88 Z" />
</g>
<g id="#ffffffff">
<path fill="#ffffff" opacity="1.00" d=" M 8.45 7.88 C 10.19 4.25 14.86 5.15 18.03 5.90 C 21.81 7.20 21.92 12.44 19.31 14.96 C 21.23 16.04 23.36 17.50 23.28 20.01 C 24.05 24.15 19.34 28.52 15.38 26.37 C 13.25 26.83 11.07 27.05 8.89 27.07 C 8.83 20.97 8.85 14.86 8.89 8.76 C 9.70 8.78 11.32 8.83 12.13 8.85 C 12.15 10.53 12.17 12.21 12.20 13.89 C 13.55 13.91 14.91 13.95 16.27 13.99 C 15.99 16.00 13.63 16.06 12.18 16.81 C 12.17 19.30 12.16 21.78 12.17 24.27 C 13.68 24.29 15.18 24.29 16.69 24.28 L 16.21 26.28 C 18.77 25.04 20.56 22.19 19.59 19.32 C 19.24 17.48 17.25 16.98 15.83 16.21 C 17.58 14.37 18.96 11.20 16.84 9.09 C 14.35 7.57 11.21 8.29 8.45 7.88 Z" />
</g>
</svg>
