<?xml version="1.0" encoding="UTF-8" ?>
<!DOCTYPE svg PUBLIC "-//W3C//DTD SVG 1.1//EN" "http://www.w3.org/Graphics/SVG/1.1/DTD/svg11.dtd">
<svg width="32pt" height="32pt" viewBox="0 0 32 32" version="1.1" xmlns="http://www.w3.org/2000/svg">
<g id="#ec3b3bff">
<path fill="#ec3b3b" opacity="1.00" d=" M 0.00 0.00 L 32.00 0.00 L 32.00 32.00 L 0.00 32.00 L 0.00 0.00 M 7.01 26.01 C 11.86 26.06 17.13 26.95 21.58 24.52 C 24.76 22.66 24.76 17.66 21.36 15.98 C 23.95 14.32 25.81 10.39 22.97 8.05 C 18.95 5.56 13.86 6.91 9.38 6.59 C 8.66 13.07 8.25 19.60 7.01 26.01 Z" />
<path fill="#ec3b3b" opacity="1.00" d=" M 14.12 14.86 C 14.28 13.37 14.43 11.88 14.63 10.40 C 15.58 10.54 17.48 10.84 18.43 10.98 C 18.47 13.68 16.57 14.76 14.12 14.86 Z" />
<path fill="#ec3b3b" opacity="1.00" d=" M 13.44 18.25 C 14.90 18.53 17.84 17.82 17.90 20.02 C 18.04 22.53 14.68 21.87 13.08 22.41 C 13.19 21.02 13.31 19.63 13.44 18.25 Z" />
</g>
<g id="#ffffffff">
<path fill="#ffffff" opacity="1.00" d=" M 7.01 26.01 C 8.25 19.60 8.66 13.07 9.38 6.59 C 13.86 6.91 18.95 5.56 22.97 8.05 C 25.81 10.39 23.95 14.32 21.36 15.98 C 24.76 17.66 24.76 22.66 21.58 24.52 C 17.13 26.95 11.86 26.06 7.01 26.01 M 14.12 14.86 C 16.57 14.76 18.47 13.68 18.43 10.98 C 17.48 10.84 15.58 10.54 14.63 10.40 C 14.43 11.88 14.28 13.37 14.12 14.86 M 13.44 18.25 C 13.31 19.63 13.19 21.02 13.08 22.41 C 14.68 21.87 18.04 22.53 17.90 20.02 C 17.84 17.82 14.90 18.53 13.44 18.25 Z" />
</g>
</svg>
