<?xml version="1.0" encoding="UTF-8" ?>
<!DOCTYPE svg PUBLIC "-//W3C//DTD SVG 1.1//EN" "http://www.w3.org/Graphics/SVG/1.1/DTD/svg11.dtd">
<svg width="32pt" height="32pt" viewBox="0 0 32 32" version="1.1" xmlns="http://www.w3.org/2000/svg">
<g id="#020202ff">
<path fill="#020202" opacity="1.00" d=" M 0.00 5.40 C 4.48 1.44 11.61 2.37 15.99 6.04 C 20.38 2.39 27.50 1.43 32.00 5.39 L 32.00 27.76 C 27.79 25.23 22.08 24.98 18.08 28.05 C 15.48 30.39 12.96 26.97 10.41 26.19 C 6.90 25.37 3.12 25.90 0.00 27.73 L 0.00 5.40 M 15.00 6.99 C 15.00 14.00 15.00 21.00 15.00 28.01 C 15.50 28.03 16.50 28.07 17.00 28.09 C 17.00 21.05 17.00 14.02 17.00 6.98 C 16.50 6.98 15.50 6.99 15.00 6.99 Z" />
</g>
</svg>
