<?xml version="1.0" encoding="UTF-8" ?>
<!DOCTYPE svg PUBLIC "-//W3C//DTD SVG 1.1//EN" "http://www.w3.org/Graphics/SVG/1.1/DTD/svg11.dtd">
<svg width="32pt" height="32pt" viewBox="0 0 32 32" version="1.1" xmlns="http://www.w3.org/2000/svg">
<g id="#e8641bff">
<path fill="#e8641b" opacity="1.00" d=" M 19.47 1.15 C 23.56 1.08 27.66 1.09 31.75 1.14 C 31.98 9.50 31.95 17.87 31.78 26.23 C 27.68 26.28 23.57 26.25 19.46 26.14 C 19.29 17.82 19.19 9.48 19.47 1.15 M 21.13 16.03 C 21.26 18.42 23.93 17.65 25.49 17.55 C 27.12 17.64 29.81 18.36 29.99 15.94 C 30.10 13.27 31.44 9.00 27.69 8.36 C 27.63 10.68 27.55 12.99 27.57 15.31 L 26.69 15.31 C 26.71 13.16 26.69 11.00 26.67 8.85 C 26.12 8.91 25.02 9.04 24.48 9.11 C 24.31 11.42 24.31 13.77 23.76 16.04 C 23.52 13.48 23.42 10.91 23.27 8.34 C 19.57 9.11 20.96 13.36 21.13 16.03 Z" />
</g>
<g id="#ffffffff">
<path fill="#ffffff" opacity="1.00" d=" M 21.13 16.03 C 20.96 13.36 19.57 9.11 23.27 8.34 C 23.42 10.91 23.52 13.48 23.76 16.04 C 24.31 13.77 24.31 11.42 24.48 9.11 C 25.02 9.04 26.12 8.91 26.67 8.85 C 26.69 11.00 26.71 13.16 26.69 15.31 L 27.57 15.31 C 27.55 12.99 27.63 10.68 27.69 8.36 C 31.44 9.00 30.10 13.27 29.99 15.94 C 29.81 18.36 27.12 17.64 25.49 17.55 C 23.93 17.65 21.26 18.42 21.13 16.03 Z" />
<path fill="#ffffff" opacity="1.00" d=" M 6.52 15.64 C 8.76 15.93 11.36 15.34 13.28 16.82 C 13.86 18.13 13.29 19.58 13.23 20.94 C 13.59 21.50 14.32 22.61 14.68 23.17 C 13.88 25.26 12.11 26.48 9.95 26.87 C 10.19 25.62 10.45 24.39 10.74 23.16 C 10.55 22.61 10.17 21.52 9.98 20.98 C 10.25 20.41 10.79 19.29 11.06 18.73 L 9.61 18.66 C 9.64 21.26 9.66 23.86 9.68 26.46 C 8.89 26.46 7.29 26.48 6.50 26.48 C 6.51 22.87 6.50 19.26 6.52 15.64 Z" />
</g>
<g id="#00a8ecff">
<path fill="#00a8ec" opacity="1.00" d=" M 1.23 13.32 C 7.09 13.10 12.96 13.30 18.82 13.19 C 18.79 17.63 18.76 22.06 18.85 26.49 C 22.29 26.68 25.74 26.63 29.18 26.69 C 28.63 27.83 29.15 30.33 27.15 29.85 C 18.51 29.91 9.86 29.96 1.22 29.80 C 1.05 24.31 1.03 18.81 1.23 13.32 M 6.52 15.64 C 6.50 19.26 6.51 22.87 6.50 26.48 C 7.29 26.48 8.89 26.46 9.68 26.46 C 9.66 23.86 9.64 21.26 9.61 18.66 L 11.06 18.73 C 10.79 19.29 10.25 20.41 9.98 20.98 C 10.17 21.52 10.55 22.61 10.74 23.16 C 10.45 24.39 10.19 25.62 9.95 26.87 C 12.11 26.48 13.88 25.26 14.68 23.17 C 14.32 22.61 13.59 21.50 13.23 20.94 C 13.29 19.58 13.86 18.13 13.28 16.82 C 11.36 15.34 8.76 15.93 6.52 15.64 Z" />
</g>
</svg>
