<?xml version="1.0" encoding="UTF-8" ?>
<!DOCTYPE svg PUBLIC "-//W3C//DTD SVG 1.1//EN" "http://www.w3.org/Graphics/SVG/1.1/DTD/svg11.dtd">
<svg width="32pt" height="32pt" viewBox="0 0 32 32" version="1.1" xmlns="http://www.w3.org/2000/svg">
<g id="#ffffffff">
<path fill="#ffffff" opacity="1.00" d=" M 0.00 0.00 L 32.00 0.00 L 32.00 32.00 L 0.00 32.00 L 0.00 0.00 M 10.34 3.01 L 10.12 3.32 C 8.27 3.65 6.44 3.99 4.60 4.36 C 3.90 4.69 3.19 5.02 2.48 5.35 C 2.57 6.22 2.66 7.10 2.76 7.97 C 3.95 9.27 5.09 10.62 6.29 11.91 C 4.90 12.04 3.50 12.19 2.11 12.35 C 2.19 13.51 2.28 14.68 2.37 15.84 C 3.69 18.08 4.93 20.37 6.41 22.50 C 7.34 25.11 8.73 27.52 10.19 29.87 C 15.59 29.29 20.93 28.30 26.30 27.53 C 26.86 27.48 28.00 27.38 28.56 27.34 C 28.11 26.65 27.20 25.29 26.74 24.60 L 26.57 24.33 C 28.45 23.96 27.86 20.79 26.18 20.55 L 25.85 21.08 L 25.82 20.00 L 26.61 20.01 C 25.94 18.48 25.27 16.94 24.60 15.41 C 26.47 14.73 28.37 14.08 30.11 13.10 C 24.49 14.18 19.15 16.47 13.43 17.17 C 13.45 16.55 13.51 15.31 13.53 14.69 C 17.03 13.69 20.55 12.80 24.04 11.81 C 25.54 11.54 27.04 11.17 28.27 10.22 L 29.80 9.89 C 28.31 8.81 26.77 7.81 25.20 6.85 L 24.94 6.92 C 22.29 5.22 19.65 3.40 16.68 2.30 C 14.54 2.14 12.44 2.72 10.34 3.01 Z" />
</g>
<g id="#77bc60ff">
<path fill="#77bc60" opacity="1.00" d=" M 10.34 3.01 C 12.44 2.72 14.54 2.14 16.68 2.30 C 19.65 3.40 22.29 5.22 24.94 6.92 C 19.50 9.28 13.67 7.44 8.31 5.87 C 8.91 5.02 9.51 4.17 10.12 3.32 L 10.34 3.01 Z" />
</g>
<g id="#1f4d0eff">
<path fill="#1f4d0e" opacity="1.00" d=" M 2.48 5.35 C 3.19 5.02 3.90 4.69 4.60 4.36 C 4.59 5.01 4.58 5.66 4.57 6.30 C 7.93 8.48 10.95 11.47 14.88 12.56 C 19.42 12.34 23.81 10.98 28.27 10.22 C 27.04 11.17 25.54 11.54 24.04 11.81 C 20.55 12.80 17.03 13.69 13.53 14.69 C 13.51 15.31 13.45 16.55 13.43 17.17 C 19.15 16.47 24.49 14.18 30.11 13.10 C 28.37 14.08 26.47 14.73 24.60 15.41 C 20.84 16.67 17.02 17.95 13.04 18.16 C 11.52 17.42 10.31 16.20 9.13 15.02 C 8.29 13.89 7.31 12.88 6.29 11.91 C 5.09 10.62 3.95 9.27 2.76 7.97 C 2.66 7.10 2.57 6.22 2.48 5.35 Z" />
</g>
<g id="#66ad4dff">
<path fill="#66ad4d" opacity="1.00" d=" M 4.60 4.36 C 6.44 3.99 8.27 3.65 10.12 3.32 C 9.51 4.17 8.91 5.02 8.31 5.87 C 13.67 7.44 19.50 9.28 24.94 6.92 L 25.20 6.85 C 26.77 7.81 28.31 8.81 29.80 9.89 L 28.27 10.22 C 23.81 10.98 19.42 12.34 14.88 12.56 C 10.95 11.47 7.93 8.48 4.57 6.30 C 4.58 5.66 4.59 5.01 4.60 4.36 Z" />
</g>
<g id="#6c536bff">
<path fill="#6c536b" opacity="1.00" d=" M 2.11 12.35 C 3.50 12.19 4.90 12.04 6.29 11.91 C 5.96 13.30 6.04 14.73 6.37 16.11 C 6.48 17.48 6.57 18.86 6.65 20.24 C 9.03 20.15 11.41 20.08 13.79 20.02 L 12.72 20.74 C 10.71 21.08 8.70 21.40 6.68 21.66 L 6.22 21.29 C 5.64 18.69 5.98 14.48 3.32 13.34 C 3.08 13.96 2.60 15.22 2.37 15.84 C 2.28 14.68 2.19 13.51 2.11 12.35 Z" />
</g>
<g id="#860d06ff">
<path fill="#860d06" opacity="1.00" d=" M 6.29 11.91 C 7.31 12.88 8.29 13.89 9.13 15.02 C 8.44 15.29 7.06 15.84 6.37 16.11 C 6.04 14.73 5.96 13.30 6.29 11.91 Z" />
</g>
<g id="#302f58ff">
<path fill="#302f58" opacity="1.00" d=" M 3.32 13.34 C 5.98 14.48 5.64 18.69 6.22 21.29 C 6.27 21.59 6.36 22.20 6.41 22.50 C 4.93 20.37 3.69 18.08 2.37 15.84 C 2.60 15.22 3.08 13.96 3.32 13.34 Z" />
</g>
<g id="#ce1f20ff">
<path fill="#ce1f20" opacity="1.00" d=" M 6.37 16.11 C 7.06 15.84 8.44 15.29 9.13 15.02 C 10.31 16.20 11.52 17.42 13.04 18.16 C 17.02 17.95 20.84 16.67 24.60 15.41 C 25.27 16.94 25.94 18.48 26.61 20.01 L 25.82 20.00 C 21.81 19.90 17.80 19.86 13.79 20.02 C 11.41 20.08 9.03 20.15 6.65 20.24 C 6.57 18.86 6.48 17.48 6.37 16.11 Z" />
</g>
<g id="#580018ff">
<path fill="#580018" opacity="1.00" d=" M 13.79 20.02 C 17.80 19.86 21.81 19.90 25.82 20.00 L 25.85 21.08 C 25.75 22.26 25.99 23.34 26.57 24.33 L 26.74 24.60 C 21.22 25.52 15.13 24.81 10.17 27.73 L 10.98 29.17 C 16.12 29.08 21.14 27.62 26.30 27.53 C 20.93 28.30 15.59 29.29 10.19 29.87 C 8.73 27.52 7.34 25.11 6.41 22.50 C 6.36 22.20 6.27 21.59 6.22 21.29 L 6.68 21.66 C 7.23 22.10 8.32 22.98 8.87 23.42 C 14.27 23.98 19.73 23.60 25.15 23.81 C 25.17 22.64 25.19 21.47 25.22 20.31 C 21.05 20.56 16.88 20.47 12.72 20.74 L 13.79 20.02 M 9.15 25.83 C 12.50 27.14 16.12 25.43 19.35 24.41 C 16.88 24.14 14.40 23.88 11.91 24.04 C 10.80 24.09 8.87 24.21 9.15 25.83 Z" />
</g>
<g id="#c4c7c7ff">
<path fill="#c4c7c7" opacity="1.00" d=" M 6.68 21.66 C 8.70 21.40 10.71 21.08 12.72 20.74 C 16.88 20.47 21.05 20.56 25.22 20.31 C 25.19 21.47 25.17 22.64 25.15 23.81 C 19.73 23.60 14.27 23.98 8.87 23.42 C 8.32 22.98 7.23 22.10 6.68 21.66 Z" />
</g>
<g id="#695da4ff">
<path fill="#695da4" opacity="1.00" d=" M 25.85 21.08 L 26.18 20.55 C 27.86 20.79 28.45 23.96 26.57 24.33 C 25.99 23.34 25.75 22.26 25.85 21.08 Z" />
</g>
<g id="#311784ff">
<path fill="#311784" opacity="1.00" d=" M 9.15 25.83 C 8.87 24.21 10.80 24.09 11.91 24.04 C 14.40 23.88 16.88 24.14 19.35 24.41 C 16.12 25.43 12.50 27.14 9.15 25.83 Z" />
</g>
<g id="#bdbdbfff">
<path fill="#bdbdbf" opacity="1.00" d=" M 10.17 27.73 C 15.13 24.81 21.22 25.52 26.74 24.60 C 27.20 25.29 28.11 26.65 28.56 27.34 C 28.00 27.38 26.86 27.48 26.30 27.53 C 21.14 27.62 16.12 29.08 10.98 29.17 L 10.17 27.73 Z" />
</g>
</svg>
