<?xml version="1.0" encoding="UTF-8" ?>
<!DOCTYPE svg PUBLIC "-//W3C//DTD SVG 1.1//EN" "http://www.w3.org/Graphics/SVG/1.1/DTD/svg11.dtd">
<svg width="32pt" height="32pt" viewBox="0 0 32 32" version="1.1" xmlns="http://www.w3.org/2000/svg">
<g id="#00a1d6ff">
<path fill="#00a1d6" opacity="1.00" d=" M 7.62 5.94 C 5.26 4.80 4.60 0.86 8.00 0.99 C 10.01 2.37 11.50 4.35 13.32 5.96 C 15.10 6.04 16.89 6.03 18.68 5.97 C 20.51 4.36 21.98 2.34 24.03 0.98 C 27.40 0.89 26.74 4.81 24.38 5.93 C 27.74 5.51 31.17 7.44 32.00 10.83 L 32.00 24.92 C 31.47 27.69 28.98 30.04 26.08 29.98 C 19.37 30.01 12.65 30.01 5.93 29.98 C 3.09 30.06 0.74 27.79 0.00 25.16 L 0.00 11.05 C 0.63 7.52 4.22 5.50 7.62 5.94 M 5.14 10.14 C 4.89 10.39 4.39 10.88 4.14 11.13 C 3.81 15.11 4.09 19.13 4.00 23.12 C 3.75 24.37 4.44 26.06 5.92 25.98 C 11.95 26.03 17.97 25.98 24.00 26.00 C 25.34 25.97 27.05 26.32 27.85 24.91 C 28.20 20.93 27.90 16.91 28.00 12.92 C 28.25 11.65 27.58 9.91 26.05 10.02 C 19.08 10.06 12.09 9.83 5.14 10.14 Z" />
<path fill="#00a1d6" opacity="1.00" d=" M 9.17 14.13 C 13.14 12.83 13.15 21.15 9.16 19.90 C 7.44 18.68 7.40 15.31 9.17 14.13 Z" />
<path fill="#00a1d6" opacity="1.00" d=" M 21.21 14.09 C 23.64 13.34 24.46 16.13 23.99 18.00 C 24.15 20.08 20.99 20.74 20.16 18.89 C 19.97 17.28 19.47 15.04 21.21 14.09 Z" />
</g>
</svg>
