<?xml version="1.0" encoding="UTF-8" ?>
<!DOCTYPE svg PUBLIC "-//W3C//DTD SVG 1.1//EN" "http://www.w3.org/Graphics/SVG/1.1/DTD/svg11.dtd">
<svg width="32pt" height="32pt" viewBox="0 0 32 32" version="1.1" xmlns="http://www.w3.org/2000/svg">
<g id="#24b0e9ff">
<path fill="#24b0e9" opacity="1.00" d=" M 14.13 3.77 C 17.22 3.08 20.78 2.65 23.50 4.67 C 29.14 9.31 31.23 18.60 25.89 24.33 C 25.90 22.43 25.86 20.53 25.90 18.62 C 27.28 15.06 26.09 11.66 23.87 8.77 C 22.47 4.71 18.08 3.30 14.13 3.77 Z" />
</g>
<g id="#ffffffff">
<path fill="#ffffff" opacity="1.00" d=" M 6.51 10.11 C 6.47 5.96 10.71 4.32 14.13 3.77 C 18.08 3.30 22.47 4.71 23.87 8.77 C 23.78 10.86 22.89 12.73 21.65 14.37 C 23.20 15.65 24.70 17.00 25.90 18.62 C 25.86 20.53 25.90 22.43 25.89 24.33 C 22.49 30.39 13.99 30.45 8.53 27.37 C 7.28 26.72 7.02 25.30 6.85 24.04 L 7.52 23.52 C 8.11 23.07 8.71 22.61 9.30 22.16 C 9.50 18.19 9.52 14.21 9.39 10.23 C 8.67 10.20 7.23 10.14 6.51 10.11 M 13.84 7.84 C 13.72 9.62 13.59 11.40 13.49 13.18 C 15.41 12.79 18.67 12.75 18.65 10.04 C 18.66 7.64 15.67 6.81 13.84 7.84 M 13.53 16.41 C 13.68 18.21 13.21 20.16 14.00 21.86 C 15.51 23.67 19.04 22.31 18.77 19.90 C 18.87 17.18 15.70 16.36 13.53 16.41 Z" />
</g>
<g id="#254b6eff">
<path fill="#254b6e" opacity="1.00" d=" M 13.84 7.84 C 15.67 6.81 18.66 7.64 18.65 10.04 C 18.67 12.75 15.41 12.79 13.49 13.18 C 13.59 11.40 13.72 9.62 13.84 7.84 Z" />
<path fill="#254b6e" opacity="1.00" d=" M 13.53 16.41 C 15.70 16.36 18.87 17.18 18.77 19.90 C 19.04 22.31 15.51 23.67 14.00 21.86 C 13.21 20.16 13.68 18.21 13.53 16.41 Z" />
</g>
<g id="#09c6aeff">
<path fill="#09c6ae" opacity="1.00" d=" M 6.11 10.11 L 6.51 10.11 C 7.23 10.14 8.67 10.20 9.39 10.23 C 8.00 12.25 6.08 14.38 6.45 17.03 C 6.84 18.99 8.30 20.49 9.30 22.16 C 8.71 22.61 8.11 23.07 7.52 23.52 C 3.65 20.14 3.24 14.25 6.11 10.11 Z" />
</g>
<g id="#32587bff">
<path fill="#32587b" opacity="1.00" d=" M 23.87 8.77 C 26.09 11.66 27.28 15.06 25.90 18.62 C 24.70 17.00 23.20 15.65 21.65 14.37 C 22.89 12.73 23.78 10.86 23.87 8.77 Z" />
</g>
<g id="#245378ff">
<path fill="#245378" opacity="1.00" d=" M 6.45 17.03 C 6.08 14.38 8.00 12.25 9.39 10.23 C 9.52 14.21 9.50 18.19 9.30 22.16 C 8.30 20.49 6.84 18.99 6.45 17.03 Z" />
</g>
</svg>
