<?xml version="1.0" encoding="UTF-8" ?>
<!DOCTYPE svg PUBLIC "-//W3C//DTD SVG 1.1//EN" "http://www.w3.org/Graphics/SVG/1.1/DTD/svg11.dtd">
<svg width="51pt" height="51pt" viewBox="0 0 51 51" version="1.1" xmlns="http://www.w3.org/2000/svg">
<g id="#f5a252ff">
<path fill="#f5a252" opacity="1.00" d=" M 16.17 11.52 C 17.65 4.47 24.75 -0.76 31.96 0.28 C 38.83 0.84 44.65 7.12 44.55 14.05 C 44.91 18.45 42.71 22.51 39.70 25.56 C 37.84 24.26 35.87 23.07 33.72 22.32 C 36.05 20.51 38.55 18.23 38.54 15.01 C 39.04 10.01 34.07 5.39 29.11 6.30 C 26.07 6.54 23.94 8.96 22.41 11.37 C 21.88 13.64 21.98 16.02 22.82 18.20 C 23.32 20.12 24.95 21.39 26.50 22.45 C 24.58 23.31 22.72 24.29 20.95 25.43 C 18.76 23.26 16.99 20.68 16.21 17.67 C 16.06 15.62 16.06 13.57 16.17 11.52 Z" />
</g>
<g id="#e66581ff">
<path fill="#e66581" opacity="1.00" d=" M 4.95 26.07 C 4.48 19.31 9.62 12.92 16.17 11.52 C 16.06 13.57 16.06 15.62 16.21 17.67 C 13.56 19.26 11.07 21.68 10.98 24.98 C 10.58 28.61 13.13 31.71 16.13 33.41 C 18.34 33.88 20.66 33.83 22.80 33.06 C 24.83 32.58 26.60 30.93 26.79 28.78 C 28.97 28.15 31.27 28.17 33.47 28.64 C 31.91 33.92 27.89 38.31 22.46 39.69 C 20.40 39.77 18.33 39.74 16.27 39.63 C 9.99 38.37 4.96 32.53 4.95 26.07 Z" />
<path fill="#e66581" opacity="1.00" d=" M 22.82 18.20 C 21.98 16.02 21.88 13.64 22.41 11.37 C 27.52 12.91 32.15 16.90 33.12 22.34 C 31.04 22.41 28.97 22.25 26.90 22.31 C 26.54 20.25 25.05 18.29 22.82 18.20 Z" />
</g>
<g id="#579acaff">
<path fill="#579aca" opacity="1.00" d=" M 26.50 22.45 L 26.90 22.31 C 28.97 22.25 31.04 22.41 33.12 22.34 L 33.72 22.32 C 35.87 23.07 37.84 24.26 39.70 25.56 C 46.90 31.47 45.95 44.27 37.69 48.77 C 29.77 53.92 18.08 48.87 16.27 39.63 C 18.33 39.74 20.40 39.77 22.46 39.69 C 23.89 41.85 25.72 44.00 28.39 44.55 C 33.50 45.96 39.08 41.28 38.54 36.00 C 38.51 32.73 36.07 30.26 33.47 28.64 C 31.27 28.17 28.97 28.15 26.79 28.78 C 24.85 29.37 23.07 30.97 22.80 33.06 C 20.66 33.83 18.34 33.88 16.13 33.41 C 17.16 30.44 18.57 27.56 20.95 25.43 C 22.72 24.29 24.58 23.31 26.50 22.45 Z" />
</g>
</svg>
