<?xml version="1.0" encoding="UTF-8" ?>
<!DOCTYPE svg PUBLIC "-//W3C//DTD SVG 1.1//EN" "http://www.w3.org/Graphics/SVG/1.1/DTD/svg11.dtd">
<svg width="32pt" height="32pt" viewBox="0 0 32 32" version="1.1" xmlns="http://www.w3.org/2000/svg">
<g id="#000000ff">
<path fill="#000000" opacity="1.00" d=" M 13.90 0.00 L 17.86 0.00 C 25.00 0.89 30.91 6.70 32.00 13.80 L 32.00 18.01 C 31.08 25.10 25.26 30.93 18.21 32.00 L 13.99 32.00 C 6.87 31.06 1.06 25.18 0.00 18.11 L 0.00 14.14 C 0.90 6.97 6.78 1.08 13.90 0.00 M 18.06 9.47 C 18.05 13.74 18.05 18.01 18.05 22.28 C 18.46 22.35 19.26 22.48 19.66 22.55 C 19.73 20.68 19.77 18.80 19.80 16.93 C 20.61 16.93 22.24 16.93 23.05 16.92 C 24.70 18.97 25.44 22.63 28.61 22.57 C 27.54 20.70 26.39 18.87 25.22 17.06 C 28.30 16.11 29.24 11.36 26.14 9.89 C 23.53 9.11 20.74 9.58 18.06 9.47 M 5.20 22.36 C 8.34 22.21 11.67 22.85 14.66 21.70 C 17.37 20.39 16.65 16.12 13.67 15.65 C 16.39 14.94 16.69 10.79 13.99 9.85 C 11.12 9.16 8.13 9.56 5.21 9.47 C 5.20 13.77 5.20 18.06 5.20 22.36 Z" />
<path fill="#000000" opacity="1.00" d=" M 19.77 10.92 C 21.50 10.97 23.25 10.89 24.97 11.17 C 26.83 11.57 26.83 14.85 24.94 15.24 C 23.22 15.47 21.49 15.41 19.77 15.44 C 19.77 13.93 19.77 12.42 19.77 10.92 Z" />
<path fill="#000000" opacity="1.00" d=" M 8.29 11.78 C 9.54 12.26 12.43 11.02 12.59 13.06 C 12.89 15.25 9.53 14.24 8.31 14.64 C 8.30 13.93 8.29 12.49 8.29 11.78 Z" />
<path fill="#000000" opacity="1.00" d=" M 8.33 16.85 C 9.85 16.92 11.37 16.96 12.87 17.21 C 12.89 17.84 12.92 19.11 12.94 19.74 C 11.40 19.88 9.86 19.96 8.32 20.00 C 8.32 19.21 8.33 17.64 8.33 16.85 Z" />
</g>
<g id="#fcfcfcff">
<path fill="#fcfcfc" opacity="1.00" d=" M 18.06 9.47 C 20.74 9.58 23.53 9.11 26.14 9.89 C 29.24 11.36 28.30 16.11 25.22 17.06 C 26.39 18.87 27.54 20.70 28.61 22.57 C 25.44 22.63 24.70 18.97 23.05 16.92 C 22.24 16.93 20.61 16.93 19.80 16.93 C 19.77 18.80 19.73 20.68 19.66 22.55 C 19.26 22.48 18.46 22.35 18.05 22.28 C 18.05 18.01 18.05 13.74 18.06 9.47 M 19.77 10.92 C 19.77 12.42 19.77 13.93 19.77 15.44 C 21.49 15.41 23.22 15.47 24.94 15.24 C 26.83 14.85 26.83 11.57 24.97 11.17 C 23.25 10.89 21.50 10.97 19.77 10.92 Z" />
<path fill="#fcfcfc" opacity="1.00" d=" M 5.20 22.36 C 5.20 18.06 5.20 13.77 5.21 9.47 C 8.13 9.56 11.12 9.16 13.99 9.85 C 16.69 10.79 16.39 14.94 13.67 15.65 C 16.65 16.12 17.37 20.39 14.66 21.70 C 11.67 22.85 8.34 22.21 5.20 22.36 M 8.29 11.78 C 8.29 12.49 8.30 13.93 8.31 14.64 C 9.53 14.24 12.89 15.25 12.59 13.06 C 12.43 11.02 9.54 12.26 8.29 11.78 M 8.33 16.85 C 8.33 17.64 8.32 19.21 8.32 20.00 C 9.86 19.96 11.40 19.88 12.94 19.74 C 12.92 19.11 12.89 17.84 12.87 17.21 C 11.37 16.96 9.85 16.92 8.33 16.85 Z" />
</g>
</svg>
