<?xml version="1.0" encoding="UTF-8"?>
<svg width="512" height="512" viewBox="0 0 512 512" xmlns="http://www.w3.org/2000/svg" xmlns:svg="http://www.w3.org/2000/svg">

 <g>
  <title>Layer 1</title>
  <path id="svg_1" d="m488.718445,173.029343l21.935211,-149.565475c1.483856,-9.852204 -4.503326,-19.173651 -13.373322,-20.821813a16.237318,18.035297 0 0 0 -2.665863,-0.24791l-475.445372,0c-8.991042,-0.129194 -16.375641,7.863602 -16.490386,17.85024c-0.012579,1.047529 0.056572,2.095085 0.207474,3.128689l69.119427,466.059696a22.098787,24.545815 0 0 0 7.436485,14.613342l-0.028305,0.034882a22.062634,24.505661 0 0 0 14.247353,5.969299l331.671982,0a16.282904,18.085932 0 0 0 16.282898,-15.191162l31.500122,-215.444183l10.408813,-70.971481l-153.127472,0l-20.181122,130.789993l-105.834961,0l-28.656555,-166.204117l312.993591,0z" fill="#008cdb"/>
 </g>
</svg>