<?xml version="1.0" encoding="utf-8"?>
<!-- Generator: Adobe Illustrator 16.0.0, SVG Export Plug-In . SVG Version: 6.00 Build 0)  -->
<!DOCTYPE svg PUBLIC "-//W3C//DTD SVG 1.1//EN" "http://www.w3.org/Graphics/SVG/1.1/DTD/svg11.dtd">
<svg version="1.1" id="logo" xmlns="http://www.w3.org/2000/svg" xmlns:xlink="http://www.w3.org/1999/xlink" x="0px" y="0px"
	 width="600px" height="600px" viewBox="0 0 600 600" enable-background="new 0 0 600 600" xml:space="preserve">
<path id="bg" fill="#90C31F" d="M105.969,0h388.562C553.056,0,600.5,47.444,600.5,105.969v388.563
	c0,58.524-47.444,105.969-105.969,105.969H105.969C47.444,600.5,0,553.056,0,494.531V105.969C0,47.444,47.444,0,105.969,0z"/>
<g id="Group3">
	<path fill="#006D32" d="M274.95,129.776c-0.85-4.24,1.901-8.351,6.125-9.201l0,0c4.236-0.829,8.348,1.897,9.201,6.122l0,0
		c7.971,40.482,48.728,71.739,98.212,71.743l0,0c49.479-0.004,90.228-31.261,98.219-71.743l0,0c0.846-4.224,4.957-6.951,9.185-6.122
		l0,0c4.232,0.85,6.972,4.96,6.134,9.201l0,0c-9.929,48.99-57.641,84.297-113.537,84.297l0,0
		C332.587,214.073,284.87,178.766,274.95,129.776L274.95,129.776z"/>
</g>
<g id="Group-1">
	<path fill="#FFFFFF" d="M66.254,273.291h26.614v48.85h0.358c5.086-7.371,14.014-12.053,25.909-12.053
		c20.488,0,35.564,16.925,35.397,43.215c0,30.814-19.626,46.263-39.239,46.263c-9.991,0-19.603-3.688-25.752-13.846h-0.336
		l-1.076,11.953h-22.57c0.359-5.637,0.695-15.986,0.695-25.641V273.291z M92.868,361.222c0,1.715,0.191,3.316,0.538,4.672
		c1.748,7.245,7.864,12.682,15.593,12.682c11.381,0,18.381-8.785,18.381-24.208c0-13.273-5.97-23.814-18.381-23.814
		c-7.181,0-13.845,5.442-15.593,13.172c-0.346,1.558-0.538,3.115-0.538,4.873V361.222z"/>
	<path fill="#FFFFFF" d="M258.106,353.873c0,31.32-22.255,45.692-45.198,45.692c-25.022,0-44.288-16.455-44.288-44.169
		c0-27.646,18.189-45.309,45.701-45.309C240.587,310.088,258.106,328.133,258.106,353.873z M196.084,354.725
		c0,14.729,6.15,25.741,17.531,25.741c10.315,0,16.97-10.339,16.97-25.741c0-12.792-4.907-25.785-16.97-25.785
		C200.811,328.939,196.084,342.135,196.084,354.725z"/>
	<path fill="#FFFFFF" d="M360.67,353.873c0,31.32-22.256,45.692-45.164,45.692c-25.046,0-44.335-16.455-44.335-44.169
		c0-27.646,18.214-45.309,45.712-45.309C343.15,310.088,360.67,328.133,360.67,353.873z M298.66,354.725
		c0,14.729,6.139,25.741,17.52,25.741c10.338,0,16.98-10.339,16.98-25.741c0-12.792-4.896-25.785-16.98-25.785
		C303.387,328.939,298.66,342.135,298.66,354.725z"/>
	<path fill="#FFFFFF" d="M404.752,348.048h0.347c1.939-3.483,4.033-6.954,6.105-10.327l17.36-25.686h32.038l-30.646,34.615
		l35.026,51.022h-32.73l-20.679-35.241l-6.821,8.378v26.863h-26.639V273.291h26.639V348.048z"/>
	<path fill="#FFFFFF" d="M474.856,374.349c4.906,2.957,15.088,6.476,22.963,6.476c8.043,0,11.383-2.789,11.383-7.203
		c0-4.334-2.646-6.462-12.604-9.776c-17.699-5.928-24.52-15.594-24.362-25.563c0-16.142,13.663-28.194,34.856-28.194
		c9.992,0,18.91,2.238,24.174,4.871l-4.738,18.415c-3.842-2.127-11.211-4.907-18.561-4.907c-6.475,0-10.148,2.578-10.148,6.992
		c0,4.044,3.34,6.127,13.822,9.823c16.311,5.59,23.119,13.856,23.299,26.447c0,15.905-12.59,27.836-37.121,27.836
		c-11.225,0-21.181-2.656-27.667-6.128L474.856,374.349z"/>
</g>
<g id="Group-2">
	<path fill="#FFFFFF" d="M73.22,480.25c-5.079,0-8.762-3.883-8.762-9.137c0-5.383,3.683-9.27,8.973-9.27
		c5.267,0,8.843,3.778,8.843,9.27c0,5.254-3.577,9.137-8.959,9.137H73.22z"/>
	<path fill="#FFFFFF" d="M123.618,476.865c-2.498,1.133-7.217,2.135-12.62,2.135C96.363,479,87,469.998,87,455.724
		c0-13.26,9.09-24.094,25.962-24.094c3.701,0,7.787,0.646,10.753,1.755l-2.22,10.473c-1.671-0.748-4.168-1.394-7.874-1.394
		c-7.431,0-12.241,5.278-12.164,12.69c0,8.355,5.563,12.732,12.43,12.732c3.35,0,5.936-0.588,8.083-1.494L123.618,476.865z"/>
	<path fill="#FFFFFF" d="M175.168,454.811c0,16.58-11.771,24.189-23.91,24.189c-13.248,0-23.46-8.711-23.46-23.383
		c0-14.637,9.637-23.987,24.201-23.987C165.906,431.63,175.168,441.184,175.168,454.811z M142.35,455.261
		c0,7.798,3.245,13.628,9.275,13.628c5.468,0,9.002-5.475,9.002-13.628c0-6.771-2.604-13.65-9.002-13.65
		C144.865,441.61,142.35,448.596,142.35,455.261z"/>
	<path fill="#FFFFFF" d="M182.887,447.1c0-5.656-0.167-10.459-0.362-14.439h11.873l0.646,6.074h0.278
		c1.944-2.836,5.931-7.104,13.723-7.104c5.83,0,10.471,2.958,12.416,7.672h0.185c1.672-2.401,3.7-4.144,5.846-5.461
		c2.503-1.471,5.291-2.211,8.623-2.211c8.716,0,15.3,6.102,15.3,19.64v26.729h-13.723v-24.682c0-6.578-2.142-10.39-6.684-10.39
		c-3.237,0-5.55,2.241-6.492,4.921c-0.356,1.021-0.563,2.491-0.563,3.625v26.525h-13.713v-25.424c0-5.756-2.033-9.647-6.493-9.647
		c-3.612,0-5.735,2.786-6.576,5.118c-0.463,1.09-0.558,2.389-0.558,3.527v26.426h-13.728V447.1z"/>
	<path fill="#FFFFFF" d="M273.344,479c-4.745,0-8.171-3.619-8.171-8.517c0-5.017,3.426-8.64,8.344-8.64
		c4.908,0,8.248,3.521,8.248,8.64c0,4.897-3.34,8.517-8.339,8.517H273.344z"/>
	<path fill="#FFFFFF" d="M303.21,421.291v12.369h10.104v10.373H303.21v16.392c0,5.485,1.31,7.979,5.579,7.979
		c1.939,0,2.758-0.105,4.164-0.359l0.09,10.655c-1.85,0.748-5.194,1.3-9.17,1.3c-4.559,0-8.366-1.685-10.579-3.986
		c-2.597-2.697-3.885-7.066-3.885-13.433v-18.548h-6.048V433.66h6.048v-8.545L303.21,421.291z"/>
	<path fill="#FFFFFF" d="M331.668,433.66l3.626,18.526c0.93,4.638,1.841,9.731,2.603,14.927h0.172
		c0.931-5.195,2.24-10.39,3.344-14.844l4.815-18.609h11.112l4.557,18.07c1.209,5.094,2.4,10.188,3.324,15.383h0.203
		c0.646-5.195,1.583-10.289,2.597-15.49l3.902-17.963h13.8l-13.895,45.338h-13.261l-4.275-15.977
		c-1.12-4.424-1.94-8.416-2.876-14.078h-0.172c-0.842,5.662-1.771,9.915-2.975,14.078l-4.532,15.977h-13.28l-13.151-45.338H331.668z
		"/>
</g>
</svg>
