<?xml version="1.0" encoding="UTF-8" ?>
<!DOCTYPE svg PUBLIC "-//W3C//DTD SVG 1.1//EN" "http://www.w3.org/Graphics/SVG/1.1/DTD/svg11.dtd">
<svg width="64pt" height="64pt" viewBox="0 0 64 64" version="1.1" xmlns="http://www.w3.org/2000/svg">
<g id="#131f47ff">
<path fill="#131f47" opacity="1.00" d=" M 0.00 0.00 L 16.03 0.00 C 16.05 5.33 16.06 10.67 16.03 16.00 C 16.00 21.36 15.98 26.71 16.03 32.07 C 10.68 32.12 5.34 32.10 0.00 32.10 L 0.00 0.00 Z" />
<path fill="#131f47" opacity="1.00" d=" M 31.98 16.00 C 42.44 15.80 52.92 16.34 63.37 15.67 L 64.00 16.32 L 64.00 64.00 L 32.00 64.00 C 32.00 58.67 32.01 53.34 31.97 48.01 C 37.30 48.00 42.64 48.03 47.98 47.96 C 48.09 42.69 48.09 37.42 47.91 32.15 C 42.60 32.14 37.29 32.17 31.99 32.09 C 32.00 26.73 32.00 21.36 31.98 16.00 Z" />
<path fill="#131f47" opacity="1.00" d=" M 0.00 48.00 C 5.33 48.00 10.67 48.01 16.00 47.98 C 16.00 53.32 16.00 58.66 16.00 64.00 L 0.00 64.00 L 0.00 48.00 Z" />
</g>
<g id="#d61922ff">
<path fill="#d61922" opacity="1.00" d=" M 16.03 0.00 L 48.32 0.00 C 53.17 5.39 58.50 10.31 63.37 15.67 C 52.92 16.34 42.44 15.80 31.98 16.00 C 26.66 16.01 21.35 15.98 16.03 16.00 C 16.06 10.67 16.05 5.33 16.03 0.00 Z" />
<path fill="#d61922" opacity="1.00" d=" M 16.03 32.07 C 21.35 32.07 26.67 32.02 31.99 32.09 C 37.29 32.17 42.60 32.14 47.91 32.15 C 48.09 37.42 48.09 42.69 47.98 47.96 C 42.64 48.03 37.30 48.00 31.97 48.01 C 26.65 48.03 21.33 47.98 16.00 47.98 C 16.03 42.68 16.05 37.38 16.03 32.07 Z" />
</g>
<g id="#b10b14ff">
<path fill="#b10b14" opacity="1.00" d=" M 16.03 16.00 C 21.35 15.98 26.66 16.01 31.98 16.00 C 32.00 21.36 32.00 26.73 31.99 32.09 C 26.67 32.02 21.35 32.07 16.03 32.07 C 15.98 26.71 16.00 21.36 16.03 16.00 Z" />
<path fill="#b10b14" opacity="1.00" d=" M 16.00 47.98 C 21.33 47.98 26.65 48.03 31.97 48.01 C 32.01 53.34 32.00 58.67 32.00 64.00 L 16.00 64.00 C 16.00 58.66 16.00 53.32 16.00 47.98 Z" />
</g>
<g id="#931119ff">
<path fill="#931119" opacity="1.00" d=" M 0.00 32.10 C 5.34 32.10 10.68 32.12 16.03 32.07 C 16.05 37.38 16.03 42.68 16.00 47.98 C 10.67 48.01 5.33 48.00 0.00 48.00 L 0.00 32.10 Z" />
</g>
</svg>
