<?xml version="1.0" encoding="UTF-8" ?>
<!DOCTYPE svg PUBLIC "-//W3C//DTD SVG 1.1//EN" "http://www.w3.org/Graphics/SVG/1.1/DTD/svg11.dtd">
<svg width="188pt" height="128pt" viewBox="0 0 188 128" version="1.1" xmlns="http://www.w3.org/2000/svg">
<g id="#ffffffff">
<path fill="#ffffff" opacity="1.00" d=" M 0.00 0.00 L 188.00 0.00 L 188.00 128.00 L 0.00 128.00 L 0.00 0.00 M 5.32 121.59 C 11.66 122.84 17.97 124.19 24.29 125.51 C 32.70 85.56 41.19 45.63 49.52 5.67 C 43.23 4.28 36.92 3.01 30.60 1.75 C 22.14 41.69 13.77 81.65 5.32 121.59 M 49.53 2.41 C 49.56 43.22 49.52 84.04 49.54 124.85 C 56.01 124.85 62.47 124.85 68.94 124.85 C 68.94 84.03 68.95 43.22 68.93 2.40 C 62.46 2.41 56.00 2.38 49.53 2.41 M 87.29 2.41 C 87.25 43.22 87.28 84.03 87.28 124.83 C 93.74 124.86 100.21 124.88 106.68 124.82 C 106.66 84.02 106.70 43.22 106.66 2.42 C 100.20 2.39 93.75 2.40 87.29 2.41 M 125.05 2.39 C 125.01 43.21 125.03 84.03 125.03 124.85 C 131.49 124.85 137.95 124.85 144.40 124.85 C 144.42 84.04 144.40 43.23 144.41 2.41 C 137.95 2.38 131.50 2.42 125.05 2.39 M 162.76 2.41 C 162.77 43.22 162.75 84.04 162.77 124.85 C 169.23 124.85 175.70 124.85 182.16 124.85 C 182.20 84.06 182.11 43.27 182.20 2.48 C 175.72 2.31 169.24 2.43 162.76 2.41 Z" />
</g>
<g id="#00a0e9ff">
<path fill="#00a0e9" opacity="1.00" d=" M 5.32 121.59 C 13.77 81.65 22.14 41.69 30.60 1.75 C 36.92 3.01 43.23 4.28 49.52 5.67 C 41.19 45.63 32.70 85.56 24.29 125.51 C 17.97 124.19 11.66 122.84 5.32 121.59 Z" />
</g>
<g id="#530000ff">
<path fill="#530000" opacity="1.00" d=" M 49.53 2.41 C 56.00 2.38 62.46 2.41 68.93 2.40 C 68.95 43.22 68.94 84.03 68.94 124.85 C 62.47 124.85 56.01 124.85 49.54 124.85 C 49.52 84.04 49.56 43.22 49.53 2.41 Z" />
</g>
<g id="#b5b5b6ff">
<path fill="#b5b5b6" opacity="1.00" d=" M 87.29 2.41 C 93.75 2.40 100.20 2.39 106.66 2.42 C 106.70 43.22 106.66 84.02 106.68 124.82 C 100.21 124.88 93.74 124.86 87.28 124.83 C 87.28 84.03 87.25 43.22 87.29 2.41 Z" />
</g>
<g id="#009944ff">
<path fill="#009944" opacity="1.00" d=" M 125.05 2.39 C 131.50 2.42 137.95 2.38 144.41 2.41 C 144.40 43.23 144.42 84.04 144.40 124.85 C 137.95 124.85 131.49 124.85 125.03 124.85 C 125.03 84.03 125.01 43.21 125.05 2.39 Z" />
</g>
<g id="#e60012ff">
<path fill="#e60012" opacity="1.00" d=" M 162.76 2.41 C 169.24 2.43 175.72 2.31 182.20 2.48 C 182.11 43.27 182.20 84.06 182.16 124.85 C 175.70 124.85 169.23 124.85 162.77 124.85 C 162.75 84.04 162.77 43.22 162.76 2.41 Z" />
</g>
</svg>
