<?xml version="1.0" encoding="UTF-8" ?>
<!DOCTYPE svg PUBLIC "-//W3C//DTD SVG 1.1//EN" "http://www.w3.org/Graphics/SVG/1.1/DTD/svg11.dtd">
<svg width="48pt" height="48pt" viewBox="0 0 48 48" version="1.1" xmlns="http://www.w3.org/2000/svg">
<g id="#ffffffff">
<path fill="#ffffff" opacity="1.00" d=" M 0.00 0.00 L 48.00 0.00 L 48.00 48.00 L 0.00 48.00 L 0.00 0.00 M 4.34 15.27 C -1.94 27.04 5.19 43.33 18.17 46.51 C 23.66 47.35 29.74 47.64 34.72 44.73 C 41.00 41.44 45.52 34.80 45.70 27.64 C 43.87 35.39 37.79 41.91 30.00 43.83 C 27.78 44.45 24.99 43.21 23.25 45.16 L 23.91 44.19 C 17.35 45.32 11.12 41.12 7.33 36.07 C 12.98 36.39 15.79 41.90 20.73 43.76 C 21.15 45.24 23.68 43.63 22.37 42.98 C 16.81 39.94 10.77 34.99 10.94 28.03 C 10.29 24.58 10.62 19.43 14.68 18.32 C 14.31 18.11 13.58 17.68 13.21 17.47 C 15.57 14.32 18.44 11.35 22.23 9.99 C 26.41 8.25 30.99 9.16 35.36 9.33 C 31.37 8.14 27.13 8.05 23.01 8.34 C 17.95 9.54 13.39 12.97 10.92 17.57 C 9.48 17.08 8.04 16.59 6.61 16.09 C 11.24 7.70 22.06 1.57 31.45 5.48 C 31.99 5.89 34.64 6.01 33.28 4.90 C 22.92 0.62 9.29 4.82 4.34 15.27 M 25.84 10.68 C 26.97 12.97 27.09 15.51 27.04 18.02 C 25.33 18.91 23.64 20.32 21.59 19.66 C 22.34 21.41 23.92 22.33 25.60 23.01 C 25.93 22.74 26.59 22.19 26.92 21.92 C 26.89 23.22 26.86 24.53 26.83 25.84 C 23.46 27.18 20.16 28.71 16.64 29.62 C 18.39 34.36 23.61 30.50 26.63 29.41 C 26.56 33.78 25.56 38.65 28.29 42.48 C 29.49 39.67 29.57 36.61 29.45 33.60 C 30.91 34.61 32.20 36.07 34.04 36.36 C 37.30 34.94 40.09 31.82 40.16 28.13 C 39.19 25.96 36.52 25.13 34.81 23.59 C 35.10 23.16 35.69 22.29 35.98 21.86 C 36.00 20.62 36.03 19.38 36.06 18.14 C 34.27 16.74 32.18 15.92 29.93 16.70 C 30.72 13.60 28.27 11.82 25.84 10.68 M 35.58 12.80 C 36.34 15.74 37.50 18.67 40.35 20.12 C 40.33 18.51 40.59 16.79 39.85 15.29 C 38.80 13.95 37.02 13.55 35.58 12.80 Z" />
<path fill="#ffffff" opacity="1.00" d=" M 4.29 24.72 C 4.60 22.29 5.08 19.87 5.74 17.51 C 7.25 17.91 8.75 18.31 10.26 18.70 C 9.32 21.41 8.91 24.25 8.66 27.09 C 7.21 26.29 5.75 25.50 4.29 24.72 Z" />
<path fill="#ffffff" opacity="1.00" d=" M 29.61 20.68 C 30.85 20.04 32.08 19.40 33.31 18.77 C 32.52 21.24 31.91 24.03 29.45 25.40 C 29.48 23.82 29.53 22.25 29.61 20.68 Z" />
<path fill="#ffffff" opacity="1.00" d=" M 4.20 26.60 C 5.69 27.14 7.21 27.61 8.63 28.34 C 9.73 30.54 10.05 33.05 10.81 35.39 C 9.09 34.67 7.37 33.95 5.66 33.21 C 5.08 31.03 4.59 28.82 4.20 26.60 Z" />
<path fill="#ffffff" opacity="1.00" d=" M 29.31 28.61 C 31.58 27.95 33.86 27.35 36.17 26.84 C 36.04 29.40 35.44 32.04 33.72 34.03 C 30.63 34.37 28.81 31.44 29.31 28.61 Z" />
</g>
<g id="#3b3938ff">
<path fill="#3b3938" opacity="1.00" d=" M 4.34 15.27 C 9.29 4.82 22.92 0.62 33.28 4.90 C 34.64 6.01 31.99 5.89 31.45 5.48 C 22.06 1.57 11.24 7.70 6.61 16.09 C 8.04 16.59 9.48 17.08 10.92 17.57 C 13.39 12.97 17.95 9.54 23.01 8.34 C 27.13 8.05 31.37 8.14 35.36 9.33 C 30.99 9.16 26.41 8.25 22.23 9.99 C 18.44 11.35 15.57 14.32 13.21 17.47 C 13.58 17.68 14.31 18.11 14.68 18.32 C 10.62 19.43 10.29 24.58 10.94 28.03 C 10.77 34.99 16.81 39.94 22.37 42.98 C 23.68 43.63 21.15 45.24 20.73 43.76 C 15.79 41.90 12.98 36.39 7.33 36.07 C 11.12 41.12 17.35 45.32 23.91 44.19 L 23.25 45.16 C 24.99 43.21 27.78 44.45 30.00 43.83 C 37.79 41.91 43.87 35.39 45.70 27.64 C 45.52 34.80 41.00 41.44 34.72 44.73 C 29.74 47.64 23.66 47.35 18.17 46.51 C 5.19 43.33 -1.94 27.04 4.34 15.27 M 4.29 24.72 C 5.75 25.50 7.21 26.29 8.66 27.09 C 8.91 24.25 9.32 21.41 10.26 18.70 C 8.75 18.31 7.25 17.91 5.74 17.51 C 5.08 19.87 4.60 22.29 4.29 24.72 M 4.20 26.60 C 4.59 28.82 5.08 31.03 5.66 33.21 C 7.37 33.95 9.09 34.67 10.81 35.39 C 10.05 33.05 9.73 30.54 8.63 28.34 C 7.21 27.61 5.69 27.14 4.20 26.60 Z" />
<path fill="#3b3938" opacity="1.00" d=" M 25.84 10.68 C 28.27 11.82 30.72 13.60 29.93 16.70 C 32.18 15.92 34.27 16.74 36.06 18.14 C 36.03 19.38 36.00 20.62 35.98 21.86 C 35.69 22.29 35.10 23.16 34.81 23.59 C 36.52 25.13 39.19 25.96 40.16 28.13 C 40.09 31.82 37.30 34.94 34.04 36.36 C 32.20 36.07 30.91 34.61 29.45 33.60 C 29.57 36.61 29.49 39.67 28.29 42.48 C 25.56 38.65 26.56 33.78 26.63 29.41 C 23.61 30.50 18.39 34.36 16.64 29.62 C 20.16 28.71 23.46 27.18 26.83 25.84 C 26.86 24.53 26.89 23.22 26.92 21.92 C 26.59 22.19 25.93 22.74 25.60 23.01 C 23.92 22.33 22.34 21.41 21.59 19.66 C 23.64 20.32 25.33 18.91 27.04 18.02 C 27.09 15.51 26.97 12.97 25.84 10.68 M 29.61 20.68 C 29.53 22.25 29.48 23.82 29.45 25.40 C 31.91 24.03 32.52 21.24 33.31 18.77 C 32.08 19.40 30.85 20.04 29.61 20.68 M 29.31 28.61 C 28.81 31.44 30.63 34.37 33.72 34.03 C 35.44 32.04 36.04 29.40 36.17 26.84 C 33.86 27.35 31.58 27.95 29.31 28.61 Z" />
<path fill="#3b3938" opacity="1.00" d=" M 35.58 12.80 C 37.02 13.55 38.80 13.95 39.85 15.29 C 40.59 16.79 40.33 18.51 40.35 20.12 C 37.50 18.67 36.34 15.74 35.58 12.80 Z" />
</g>
</svg>
