<?xml version="1.0" encoding="UTF-8" ?>
<!DOCTYPE svg PUBLIC "-//W3C//DTD SVG 1.1//EN" "http://www.w3.org/Graphics/SVG/1.1/DTD/svg11.dtd">
<svg width="16pt" height="16pt" viewBox="0 0 16 16" version="1.1" xmlns="http://www.w3.org/2000/svg">
<g id="#2dacdffd">
<path fill="#2dacdf" opacity="1.00" d=" M 6.46 1.46 C 11.76 -0.07 16.85 6.49 14.21 11.29 C 12.15 16.29 3.83 16.32 1.77 11.31 C -0.40 7.40 2.26 2.44 6.46 1.46 M 3.12 4.19 C 2.97 6.77 2.94 9.35 2.95 11.93 C 6.30 12.07 9.65 12.06 12.99 11.91 C 13.03 9.33 13.00 6.76 12.87 4.19 C 9.63 3.88 6.36 3.88 3.12 4.19 Z" />
<path fill="#2dacdf" opacity="1.00" d=" M 4.61 5.77 C 5.18 5.59 6.32 5.24 6.89 5.06 C 6.94 6.75 7.01 8.43 7.09 10.12 C 6.34 10.03 4.85 9.84 4.11 9.75 C 4.27 8.42 4.44 7.09 4.61 5.77 Z" />
<path fill="#2dacdf" opacity="1.00" d=" M 9.08 5.08 C 9.66 5.26 10.82 5.62 11.39 5.79 C 11.55 7.10 11.70 8.40 11.85 9.70 C 11.11 9.81 9.63 10.01 8.89 10.11 C 8.96 8.43 9.03 6.76 9.08 5.08 Z" />
</g>
<g id="#84cfedff">
<path fill="#84cfed" opacity="1.00" d=" M 3.12 4.19 C 6.36 3.88 9.63 3.88 12.87 4.19 C 13.00 6.76 13.03 9.33 12.99 11.91 C 9.65 12.06 6.30 12.07 2.95 11.93 C 2.94 9.35 2.97 6.77 3.12 4.19 M 4.61 5.77 C 4.44 7.09 4.27 8.42 4.11 9.75 C 4.85 9.84 6.34 10.03 7.09 10.12 C 7.01 8.43 6.94 6.75 6.89 5.06 C 6.32 5.24 5.18 5.59 4.61 5.77 M 9.08 5.08 C 9.03 6.76 8.96 8.43 8.89 10.11 C 9.63 10.01 11.11 9.81 11.85 9.70 C 11.70 8.40 11.55 7.10 11.39 5.79 C 10.82 5.62 9.66 5.26 9.08 5.08 Z" />
</g>
</svg>
