<?xml version="1.0" encoding="UTF-8" ?>
<!DOCTYPE svg PUBLIC "-//W3C//DTD SVG 1.1//EN" "http://www.w3.org/Graphics/SVG/1.1/DTD/svg11.dtd">
<svg width="96pt" height="96pt" viewBox="0 0 96 96" version="1.1" xmlns="http://www.w3.org/2000/svg">
<g id="#7e2a93ff">
<path fill="#7e2a93" opacity="1.00" d=" M 32.73 7.81 C 38.76 6.27 44.65 3.72 50.45 1.57 C 51.34 2.16 51.78 3.00 51.79 4.08 C 54.42 12.64 58.51 20.82 59.79 29.75 C 61.29 36.40 59.01 43.45 54.98 48.81 C 51.88 48.83 48.92 47.39 46.57 45.44 C 46.87 45.23 47.47 44.81 47.77 44.59 C 51.62 39.30 50.76 32.55 49.33 26.66 C 49.15 26.30 48.81 25.57 48.64 25.21 C 46.37 25.25 44.19 26.27 42.12 27.10 C 41.67 27.26 40.75 27.60 40.29 27.76 L 39.39 27.27 C 37.27 20.74 34.36 14.25 32.73 7.81 Z" />
</g>
<g id="#241c15bc">
<path fill="#241c15" opacity="0.74" d=" M 51.79 4.08 L 52.84 4.12 C 56.25 15.80 63.16 27.23 61.34 39.80 C 60.35 42.89 59.74 46.93 56.87 48.77 C 56.40 48.78 55.45 48.80 54.98 48.81 C 59.01 43.45 61.29 36.40 59.79 29.75 C 58.51 20.82 54.42 12.64 51.79 4.08 Z" />
<path fill="#241c15" opacity="0.74" d=" M 42.12 27.10 C 44.19 26.27 46.37 25.25 48.64 25.21 C 48.81 25.57 49.15 26.30 49.33 26.66 C 46.78 27.81 44.04 28.46 41.51 29.68 L 40.38 28.52 C 40.81 28.17 41.69 27.45 42.12 27.10 Z" />
<path fill="#241c15" opacity="0.74" d=" M 86.87 34.17 L 87.77 34.14 L 88.45 35.06 L 88.19 35.92 C 87.86 35.49 87.20 34.61 86.87 34.17 Z" />
<path fill="#241c15" opacity="0.74" d=" M 88.70 37.13 L 89.60 37.47 C 90.65 40.24 92.72 42.61 93.60 45.38 C 85.77 49.49 78.29 54.35 70.07 57.66 C 65.14 59.63 59.61 60.99 54.39 59.30 C 54.52 59.90 54.78 61.11 54.91 61.71 C 53.70 60.69 53.37 59.11 52.89 57.68 C 57.90 59.25 63.17 58.01 67.99 56.38 C 76.19 53.04 83.65 48.22 91.53 44.24 L 91.88 43.27 C 90.78 41.25 89.53 39.29 88.70 37.13 Z" />
<path fill="#241c15" opacity="0.74" d=" M 1.38 41.34 C 3.01 41.76 1.69 44.03 1.91 45.15 C 1.28 48.08 2.60 50.87 2.29 53.82 C 9.13 53.97 15.96 53.29 22.79 53.28 C 23.00 50.11 22.69 46.93 22.84 43.76 C 28.40 43.70 34.64 44.33 38.97 48.18 C 34.31 46.43 29.42 45.05 24.37 45.43 C 24.34 48.50 24.68 51.55 24.65 54.62 C 17.70 55.52 10.59 55.47 3.64 55.48 C 3.01 54.74 2.37 54.01 1.71 53.30 C 2.10 49.24 0.67 45.30 1.38 41.34 Z" />
<path fill="#241c15" opacity="0.74" d=" M 42.23 59.85 C 42.59 60.24 43.31 61.00 43.67 61.39 C 40.98 64.08 39.55 68.42 37.20 70.64 C 37.10 70.21 36.91 69.37 36.82 68.95 C 37.42 65.32 40.87 62.85 41.61 59.40 L 42.23 59.85 Z" />
<path fill="#241c15" opacity="0.74" d=" M 44.76 74.42 C 47.71 73.99 45.93 76.91 45.58 78.16 C 43.75 83.90 41.51 89.53 40.12 95.39 L 39.08 95.67 C 35.07 93.41 30.40 92.62 26.12 90.96 C 24.36 90.13 21.85 90.17 20.90 88.20 C 26.84 89.58 32.56 91.87 38.32 93.87 C 40.53 87.41 42.65 80.92 44.76 74.42 Z" />
<path fill="#241c15" opacity="0.74" d=" M 72.71 88.91 C 76.84 84.31 79.86 78.70 84.36 74.46 L 85.66 75.60 C 81.92 80.58 78.00 85.44 74.35 90.50 C 72.77 91.31 70.81 89.40 70.20 87.99 C 70.95 88.59 71.78 88.90 72.71 88.91 Z" />
</g>
<g id="#ef191fff">
<path fill="#ef191f" opacity="1.00" d=" M 64.33 36.72 C 70.65 33.82 76.46 29.66 82.87 27.06 C 84.59 29.10 86.27 31.54 86.87 34.17 C 87.20 34.61 87.86 35.49 88.19 35.92 C 88.32 36.23 88.58 36.83 88.70 37.13 C 89.53 39.29 90.78 41.25 91.88 43.27 L 91.53 44.24 C 83.65 48.22 76.19 53.04 67.99 56.38 C 63.17 58.01 57.90 59.25 52.89 57.68 C 49.49 57.04 46.51 55.26 43.45 53.74 C 42.76 53.24 42.28 52.59 42.01 51.80 C 43.36 49.81 44.40 47.64 45.61 45.56 C 45.85 45.53 46.33 45.47 46.57 45.44 C 48.92 47.39 51.88 48.83 54.98 48.81 C 55.45 48.80 56.40 48.78 56.87 48.77 C 61.13 48.84 64.93 46.93 68.74 45.27 C 67.62 42.26 65.50 39.65 64.33 36.72 Z" />
</g>
<g id="#00b6efff">
<path fill="#00b6ef" opacity="1.00" d=" M 1.43 34.52 C 5.96 34.36 10.51 34.36 15.04 34.26 C 20.54 32.93 26.43 34.23 32.10 34.60 C 38.35 35.59 43.59 39.86 47.77 44.59 C 47.47 44.81 46.87 45.23 46.57 45.44 C 46.33 45.47 45.85 45.53 45.61 45.56 C 44.40 47.64 43.36 49.81 42.01 51.80 C 41.72 51.36 41.16 50.49 40.87 50.05 C 40.40 49.58 39.44 48.65 38.97 48.18 C 34.64 44.33 28.40 43.70 22.84 43.76 C 22.69 46.93 23.00 50.11 22.79 53.28 C 15.96 53.29 9.13 53.97 2.29 53.82 C 2.60 50.87 1.28 48.08 1.91 45.15 C 1.69 44.03 3.01 41.76 1.38 41.34 L 1.17 41.31 C 2.17 39.15 1.22 36.79 1.43 34.52 Z" />
</g>
<g id="#8bc63dff">
<path fill="#8bc63d" opacity="1.00" d=" M 40.87 50.05 C 41.16 50.49 41.72 51.36 42.01 51.80 C 42.28 52.59 42.76 53.24 43.45 53.74 C 43.68 55.22 42.68 57.36 44.32 58.31 L 42.93 60.36 L 42.23 59.85 L 41.61 59.40 C 40.87 62.85 37.42 65.32 36.82 68.95 C 36.49 69.50 35.82 70.59 35.49 71.14 C 36.80 71.99 38.44 71.74 39.92 71.90 C 41.43 72.62 43.04 73.10 44.69 73.56 C 44.71 73.78 44.74 74.21 44.76 74.42 C 42.65 80.92 40.53 87.41 38.32 93.87 C 32.56 91.87 26.84 89.58 20.90 88.20 C 19.50 87.19 20.71 85.21 21.26 84.04 C 22.04 80.23 23.69 76.92 24.64 73.19 C 27.74 64.40 31.30 53.72 40.87 50.05 Z" />
</g>
<g id="#fcb10eff">
<path fill="#fcb10e" opacity="1.00" d=" M 43.45 53.74 C 46.51 55.26 49.49 57.04 52.89 57.68 C 53.37 59.11 53.70 60.69 54.91 61.71 C 56.67 64.18 59.10 66.06 60.98 68.42 L 62.08 68.35 C 63.49 66.00 65.55 64.04 66.84 61.62 L 68.11 61.44 C 73.16 66.22 79.39 69.69 84.36 74.46 L 84.36 74.46 C 79.86 78.70 76.84 84.31 72.71 88.91 C 71.78 88.90 70.95 88.59 70.20 87.99 C 61.51 81.17 51.43 75.05 45.63 65.26 C 45.34 64.74 44.76 63.70 44.47 63.18 L 44.62 61.78 C 44.33 61.53 43.74 61.03 43.45 60.77 C 43.67 60.16 44.11 58.93 44.32 58.31 C 42.68 57.36 43.68 55.22 43.45 53.74 Z" />
</g>
</svg>
