<?xml version="1.0" encoding="UTF-8" ?>
<!DOCTYPE svg PUBLIC "-//W3C//DTD SVG 1.1//EN" "http://www.w3.org/Graphics/SVG/1.1/DTD/svg11.dtd">
<svg width="16pt" height="16pt" viewBox="0 0 16 16" version="1.1" xmlns="http://www.w3.org/2000/svg">
<g id="#ffffffff">
<path fill="#ffffff" opacity="1.00" d=" M 0.00 0.00 L 16.00 0.00 L 16.00 0.54 C 10.69 0.09 5.31 0.08 0.00 0.56 L 0.00 0.00 Z" />
<path fill="#ffffff" opacity="1.00" d=" M 2.09 1.92 C 5.22 2.01 8.34 2.12 11.45 2.47 C 11.81 3.17 12.52 4.56 12.88 5.26 C 11.99 6.11 11.09 6.95 10.16 7.75 C 12.48 8.24 14.31 10.61 12.48 12.74 C 9.54 15.27 5.38 13.98 1.86 14.26 C 2.25 13.83 3.02 12.96 3.41 12.53 C 2.95 9.03 4.58 4.88 2.09 1.92 M 6.16 3.78 C 6.27 7.13 6.28 10.49 6.33 13.85 C 7.65 13.64 9.72 13.71 9.72 11.85 C 10.19 9.85 9.02 8.12 7.46 7.02 C 10.93 8.03 9.91 1.50 6.95 2.77 C 6.75 3.03 6.36 3.53 6.16 3.78 Z" />
</g>
<g id="#000000ff">
<path fill="#000000" opacity="1.00" d=" M 0.00 0.56 C 5.31 0.08 10.69 0.09 16.00 0.54 L 16.00 15.95 L 15.92 15.99 L 15.82 16.00 L 0.10 16.00 L 0.01 15.99 L 0.00 15.89 L 0.00 0.56 M 2.09 1.92 C 4.58 4.88 2.95 9.03 3.41 12.53 C 3.02 12.96 2.25 13.83 1.86 14.26 C 5.38 13.98 9.54 15.27 12.48 12.74 C 14.31 10.61 12.48 8.24 10.16 7.75 C 11.09 6.95 11.99 6.11 12.88 5.26 C 12.52 4.56 11.81 3.17 11.45 2.47 C 8.34 2.12 5.22 2.01 2.09 1.92 Z" />
<path fill="#000000" opacity="1.00" d=" M 6.16 3.78 C 6.36 3.53 6.75 3.03 6.95 2.77 C 9.91 1.50 10.93 8.03 7.46 7.02 C 9.02 8.12 10.19 9.85 9.72 11.85 C 9.72 13.71 7.65 13.64 6.33 13.85 C 6.28 10.49 6.27 7.13 6.16 3.78 Z" />
</g>
<g id="#777777ff">
<path fill="#777777" opacity="1.00" d=" M 0.00 15.89 L 0.01 15.99 L 0.10 16.00 L 0.00 16.00 L 0.00 15.89 Z" />
<path fill="#777777" opacity="1.00" d=" M 15.92 15.99 L 16.00 15.95 L 16.00 16.00 L 15.82 16.00 L 15.92 15.99 Z" />
</g>
</svg>
