<?xml version="1.0" encoding="UTF-8" ?>
<!DOCTYPE svg PUBLIC "-//W3C//DTD SVG 1.1//EN" "http://www.w3.org/Graphics/SVG/1.1/DTD/svg11.dtd">
<svg width="360pt" height="360pt" viewBox="0 0 360 360" version="1.1" xmlns="http://www.w3.org/2000/svg">
<g id="#467bbfff">
<path fill="#467bbf" opacity="1.00" d=" M 0.00 0.00 L 360.00 0.00 L 360.00 360.00 L 0.00 360.00 L 0.00 0.00 M 164.12 43.27 C 163.75 55.19 167.59 67.23 174.87 76.69 C 175.25 64.94 174.05 51.14 164.12 43.27 M 180.73 68.12 C 183.11 60.07 185.60 51.62 184.52 43.15 C 183.90 43.60 182.65 44.48 182.02 44.92 C 181.42 44.46 180.21 43.54 179.61 43.09 C 178.24 51.38 178.60 59.98 180.73 68.12 M 189.64 75.45 C 190.86 73.99 192.05 72.47 192.68 70.65 C 195.99 62.07 196.98 52.77 196.92 43.63 C 188.55 51.74 185.74 64.50 189.64 75.45 M 152.12 45.97 C 151.48 48.46 149.62 50.11 147.51 51.37 C 155.13 53.28 157.17 61.81 159.59 68.21 C 160.34 60.44 159.92 50.13 152.12 45.97 M 201.07 69.14 C 203.10 65.87 205.19 62.62 207.55 59.57 C 209.83 56.36 212.92 53.56 213.85 49.59 C 212.83 49.81 210.79 50.26 209.77 50.49 C 209.24 48.90 208.66 47.32 207.99 45.79 C 202.09 51.95 202.09 61.18 201.07 69.14 M 209.31 78.00 C 218.74 71.73 223.46 60.52 224.85 49.62 C 214.85 55.21 208.99 66.67 209.31 78.00 M 140.05 51.70 C 140.22 61.26 145.14 71.12 154.01 75.35 C 152.07 66.37 148.70 56.30 140.05 51.70 M 130.90 56.11 C 129.53 56.13 128.15 56.14 126.78 56.15 C 128.94 63.30 134.46 68.69 140.23 73.12 C 137.86 66.46 135.77 59.69 133.01 53.18 C 132.30 54.16 131.60 55.13 130.90 56.11 M 221.51 73.75 C 221.82 74.00 222.14 74.25 222.45 74.50 C 228.47 69.90 234.34 63.96 235.39 56.10 C 234.52 56.15 232.78 56.23 231.92 56.28 C 231.16 55.46 230.40 54.64 229.65 53.82 C 227.93 60.77 226.60 68.32 221.51 73.75 M 22.50 60.89 C 27.01 72.03 35.30 81.05 41.71 91.10 C 44.42 95.85 45.78 101.20 47.35 106.39 C 48.90 112.37 51.03 118.79 48.98 124.91 C 48.03 128.34 44.35 130.08 41.04 130.16 C 36.12 130.20 31.61 128.00 27.08 126.38 C 28.30 129.75 30.13 132.87 32.60 135.47 C 38.62 141.85 45.46 147.39 52.49 152.60 C 56.14 155.43 58.97 159.46 60.06 163.97 C 61.31 168.75 58.57 174.07 54.07 176.02 C 47.89 178.95 41.38 182.05 37.37 187.86 C 48.21 187.22 60.33 187.71 68.99 195.14 C 73.06 198.44 77.19 203.66 75.23 209.22 C 72.63 216.02 65.51 219.09 59.61 222.45 C 67.17 222.83 75.22 222.83 81.99 218.97 C 87.01 216.03 94.00 214.21 99.08 217.95 C 101.64 219.58 102.19 223.15 100.65 225.67 C 97.10 232.27 90.44 236.29 84.62 240.65 C 90.27 242.53 96.23 240.55 101.56 238.53 C 104.81 237.39 107.22 234.86 109.92 232.85 C 113.71 230.00 118.73 227.73 123.48 229.45 C 127.22 230.36 131.32 233.54 130.60 237.83 C 129.33 244.47 123.87 249.00 119.60 253.81 C 126.59 253.80 132.76 250.40 139.11 248.01 C 145.32 246.47 152.40 244.38 158.35 247.84 C 158.41 250.11 157.80 252.30 157.16 254.45 C 160.87 255.47 165.79 256.78 166.57 261.21 C 166.20 266.47 161.63 270.10 157.83 273.18 C 161.35 276.08 165.79 279.04 166.24 284.02 C 166.72 289.50 162.32 293.63 158.56 296.95 C 160.40 299.19 162.41 301.82 161.77 304.92 C 160.74 309.24 157.08 312.23 153.55 314.58 C 146.47 319.18 138.57 322.39 130.57 325.05 C 130.53 325.90 130.45 327.62 130.42 328.47 C 164.84 328.59 199.27 328.55 233.70 328.50 C 233.62 327.80 233.46 326.41 233.39 325.71 C 225.55 322.63 216.98 320.32 210.90 314.10 C 205.83 309.62 204.06 302.18 206.34 295.84 C 203.62 293.13 200.44 290.12 200.49 285.97 C 200.30 281.44 203.44 277.87 206.32 274.77 C 203.61 270.97 199.76 266.84 200.79 261.79 C 201.67 258.09 205.23 256.26 208.53 255.12 C 208.61 252.38 207.75 249.11 209.91 246.93 C 212.85 243.99 217.71 244.26 221.27 245.84 C 228.41 249.22 235.87 253.34 244.05 252.66 C 245.75 252.62 247.12 251.55 248.52 250.75 C 244.41 249.84 239.93 249.20 236.69 246.24 C 232.95 243.17 230.78 237.72 233.15 233.16 C 235.67 228.73 241.55 228.39 246.05 229.06 C 251.52 229.41 255.48 233.62 260.31 235.69 C 266.10 238.54 273.24 241.80 279.40 238.04 C 274.24 235.64 268.16 234.10 264.65 229.26 C 262.57 226.61 262.44 223.03 262.81 219.83 C 263.52 216.63 267.20 215.88 270.00 215.78 C 276.93 215.62 283.58 217.87 290.16 219.74 C 294.61 221.00 299.24 219.78 303.37 218.03 C 299.46 216.86 295.31 215.67 292.49 212.52 C 289.70 209.78 286.33 205.61 288.47 201.54 C 291.82 197.25 295.44 192.72 300.63 190.61 C 309.19 186.75 318.86 187.46 327.92 188.70 C 324.45 181.99 317.77 177.73 310.84 175.26 C 305.87 173.74 302.58 168.17 303.51 163.08 C 304.07 159.45 306.30 156.30 309.01 153.92 C 318.11 145.71 326.67 136.92 335.16 128.09 C 336.61 126.74 337.34 124.88 337.90 123.02 C 333.51 126.05 328.60 129.58 322.93 128.66 C 319.21 128.40 316.22 125.49 314.98 122.10 C 313.05 116.31 311.68 110.08 313.02 103.99 C 315.46 92.03 322.86 81.83 330.83 72.88 C 333.86 69.47 335.60 65.17 336.88 60.85 C 333.93 62.49 331.08 64.31 328.43 66.40 C 316.07 75.67 304.57 87.06 298.61 101.59 C 296.91 105.34 296.75 109.54 295.39 113.40 C 294.96 114.77 293.59 115.51 292.27 115.74 C 284.63 112.80 277.93 107.58 273.11 100.97 C 270.31 113.71 277.39 125.57 281.72 137.07 C 282.98 141.23 284.80 147.36 280.50 150.31 C 276.40 151.09 271.63 150.51 268.31 147.78 C 266.10 146.10 265.66 143.22 264.69 140.79 C 263.93 146.46 264.37 152.28 266.23 157.70 C 267.96 163.44 271.86 168.83 270.81 175.12 C 270.23 182.85 263.61 189.40 255.94 190.08 C 252.90 190.10 251.24 187.45 250.17 185.00 C 247.39 190.90 243.80 196.54 238.98 200.99 C 235.07 203.83 230.05 206.48 225.10 205.11 C 221.12 203.58 220.63 198.80 219.84 195.21 C 212.93 201.34 211.21 210.87 208.03 219.11 C 207.01 221.41 203.71 223.51 201.54 221.37 C 198.15 219.18 197.57 214.72 197.73 211.02 C 197.87 207.33 200.38 204.42 202.89 201.97 C 201.65 199.28 199.42 196.16 201.12 193.18 C 202.81 190.12 206.72 190.15 209.72 189.51 C 209.12 187.41 208.11 184.82 210.10 183.12 C 214.40 179.60 220.43 180.43 225.60 180.47 C 224.34 178.40 221.81 175.53 224.22 173.29 C 228.14 169.50 233.96 169.08 239.08 168.38 C 237.85 166.99 236.61 165.61 235.42 164.19 C 237.13 158.63 242.41 155.57 247.16 152.90 C 245.75 150.93 242.45 148.89 244.09 146.14 C 246.91 142.14 252.11 141.17 256.40 139.45 C 253.13 136.82 248.92 138.80 245.34 137.66 C 244.79 132.63 249.96 129.74 252.56 126.14 C 248.18 124.77 244.06 126.79 240.66 129.40 C 239.86 127.35 238.63 125.32 238.83 123.04 C 238.95 119.63 240.72 116.62 242.04 113.57 C 239.11 114.57 236.57 116.36 234.00 118.03 C 231.79 116.86 229.90 114.66 229.84 112.06 C 229.73 109.44 231.19 107.15 232.31 104.90 C 229.78 105.04 226.29 106.14 224.65 103.49 C 223.58 99.91 225.50 96.23 227.22 93.16 C 230.12 88.26 235.41 85.80 240.25 83.27 C 231.06 83.41 223.10 88.60 215.72 93.52 C 214.12 88.96 214.80 84.02 214.15 79.30 C 210.75 83.06 208.54 88.23 203.59 90.25 C 203.21 84.73 203.67 79.14 202.61 73.68 C 196.53 76.03 193.12 82.02 189.42 87.02 C 184.67 83.67 184.63 76.88 183.93 71.63 C 176.84 74.72 177.72 83.62 174.96 89.65 C 170.46 83.95 166.62 77.46 160.22 73.60 C 159.97 79.97 161.48 86.16 162.93 92.30 C 160.18 91.56 158.88 88.88 157.02 86.99 C 154.52 84.06 151.36 81.80 147.99 79.96 C 148.13 85.33 150.00 90.37 151.31 95.51 C 151.74 96.78 150.49 97.76 150.11 98.85 C 147.13 95.23 144.27 91.35 140.31 88.73 C 136.01 86.16 130.97 85.31 126.14 84.25 C 133.07 87.51 136.63 94.65 139.69 101.25 C 140.44 102.82 141.14 105.28 139.02 106.10 C 136.05 106.47 133.40 104.65 130.80 103.51 C 131.79 106.90 133.92 111.12 131.24 114.27 C 128.30 116.11 124.79 114.73 121.77 113.85 C 123.56 118.82 124.75 124.12 124.41 129.42 C 119.92 127.88 115.36 126.60 110.69 125.77 C 113.72 129.50 117.21 133.04 118.83 137.68 C 114.74 137.85 110.59 138.26 106.93 140.24 C 110.22 140.36 113.60 140.81 116.34 142.78 C 118.34 144.18 121.04 146.20 120.18 149.01 C 118.64 151.82 115.47 153.11 113.01 154.98 C 118.45 158.13 126.44 157.63 129.63 163.91 C 127.72 165.43 125.83 167.00 123.79 168.35 C 130.03 169.22 137.09 169.55 142.05 173.91 C 144.29 176.30 141.48 179.32 140.03 181.22 C 145.12 181.37 151.07 180.33 155.38 183.68 C 157.94 185.69 155.89 188.89 155.17 191.26 C 157.89 191.69 161.35 191.33 163.29 193.71 C 165.49 196.79 163.05 200.30 161.49 203.04 C 163.86 204.82 166.60 206.64 167.42 209.69 C 168.37 213.36 167.36 217.27 165.70 220.58 C 164.39 223.12 161.12 225.14 158.33 223.62 C 154.17 221.31 151.85 216.62 151.05 212.07 C 149.80 205.96 147.17 200.00 142.64 195.61 C 141.19 199.91 139.96 205.28 135.29 207.21 C 131.08 208.91 126.92 205.76 124.27 202.73 C 119.85 197.51 116.66 191.35 114.12 185.03 C 112.54 187.37 110.83 190.03 107.94 190.85 C 102.54 191.14 97.86 186.66 96.51 181.65 C 94.76 175.16 94.85 168.15 96.70 161.69 C 98.48 155.34 97.78 148.66 97.73 142.15 C 94.35 146.42 89.77 149.62 84.97 152.10 C 82.07 152.29 79.64 149.80 79.47 146.98 C 78.74 139.76 81.60 132.81 84.60 126.41 C 87.20 119.57 88.09 112.20 88.70 104.96 C 89.00 103.12 88.70 100.98 90.15 99.53 C 89.94 99.50 89.53 99.44 89.32 99.40 C 88.44 102.47 86.83 105.23 84.65 107.54 C 82.05 110.30 79.65 114.06 75.51 114.41 C 71.03 115.01 66.99 111.74 65.04 107.95 C 59.49 96.43 52.70 85.41 44.29 75.73 C 38.47 68.98 30.73 64.16 22.50 60.89 M 223.70 80.61 C 234.53 79.15 246.82 73.32 249.69 61.83 C 239.48 65.57 231.35 73.15 223.70 80.61 M 114.34 64.92 C 119.70 74.11 129.06 80.84 139.60 82.57 C 134.69 73.11 125.43 65.15 114.34 64.92 Z" />
<path fill="#467bbf" opacity="1.00" d=" M 179.98 92.66 C 181.43 93.19 182.92 93.63 184.43 93.97 C 183.76 95.95 183.20 97.97 182.34 99.88 C 181.26 97.58 180.45 95.16 179.98 92.66 Z" />
<path fill="#467bbf" opacity="1.00" d=" M 197.89 93.23 C 199.62 93.79 201.34 94.41 203.06 95.02 C 202.24 96.00 201.42 96.98 200.60 97.97 C 199.31 96.62 197.93 95.23 197.89 93.23 Z" />
<path fill="#467bbf" opacity="1.00" d=" M 219.30 95.22 C 220.91 95.71 220.65 98.84 219.07 99.23 C 217.40 98.72 217.78 95.69 219.30 95.22 Z" />
<path fill="#467bbf" opacity="1.00" d=" M 157.91 95.92 C 160.60 96.09 163.25 96.61 165.82 97.43 C 165.11 99.92 164.31 102.38 163.56 104.85 C 160.75 102.57 158.13 99.74 157.91 95.92 Z" />
<path fill="#467bbf" opacity="1.00" d=" M 191.43 107.38 C 189.01 104.28 187.44 100.28 188.69 96.36 C 190.90 97.30 193.14 98.28 195.01 99.83 C 194.65 100.28 193.93 101.19 193.58 101.64 C 193.02 103.57 193.43 106.22 191.43 107.38 Z" />
<path fill="#467bbf" opacity="1.00" d=" M 206.85 97.92 C 208.68 98.69 210.48 99.52 212.27 100.38 C 211.32 101.44 210.37 102.49 209.40 103.54 C 208.14 101.87 207.21 99.99 206.85 97.92 Z" />
<path fill="#467bbf" opacity="1.00" d=" M 168.54 99.50 C 171.88 99.99 175.05 101.21 177.98 102.87 C 177.40 103.37 176.24 104.35 175.66 104.85 C 175.60 107.47 176.07 110.28 174.85 112.72 C 170.19 110.44 168.27 104.42 168.54 99.50 Z" />
<path fill="#467bbf" opacity="1.00" d=" M 53.14 100.64 C 57.46 103.78 58.78 109.34 60.56 114.09 C 65.81 135.06 71.09 156.23 80.18 175.94 C 83.75 182.96 88.07 189.74 93.80 195.20 C 101.51 202.69 110.98 208.24 120.99 212.06 C 135.34 216.46 149.64 222.11 161.50 231.53 C 164.93 234.23 168.06 237.43 169.81 241.50 C 164.26 242.91 159.55 238.27 154.08 238.54 C 148.66 238.50 144.17 242.55 138.69 242.00 C 140.11 237.65 144.83 236.06 148.36 233.83 C 141.31 227.09 131.45 224.30 121.96 223.50 C 117.28 224.08 112.97 228.35 108.07 226.62 C 110.38 223.89 113.58 222.00 115.61 218.97 C 108.47 216.42 102.23 212.00 95.56 208.50 C 90.32 210.33 85.31 213.81 79.47 213.11 C 80.03 208.04 85.28 205.64 88.90 202.86 C 88.64 201.13 86.88 200.40 85.74 199.32 C 82.31 196.66 79.66 193.20 76.97 189.84 C 71.93 188.86 66.91 187.71 61.88 186.66 C 60.87 186.27 59.33 186.40 58.90 185.15 C 63.03 182.00 68.67 183.14 73.52 182.85 C 67.36 171.19 64.27 158.28 60.60 145.71 C 54.74 142.62 48.73 138.60 45.54 132.63 C 50.16 134.21 54.57 136.51 59.48 137.14 C 59.23 124.74 57.51 112.29 53.14 100.64 Z" />
<path fill="#467bbf" opacity="1.00" d=" M 145.86 100.82 C 148.24 103.04 150.66 105.79 150.07 109.31 C 148.02 106.86 146.86 103.82 145.86 100.82 Z" />
<path fill="#467bbf" opacity="1.00" d=" M 297.35 133.28 C 300.04 122.14 303.57 111.19 308.18 100.70 C 308.42 102.16 309.00 103.66 308.45 105.13 C 306.36 112.98 304.23 120.87 303.31 128.96 C 303.06 132.88 302.55 137.06 304.28 140.74 C 310.15 138.06 315.85 134.88 322.06 133.04 C 321.24 135.09 319.98 136.95 318.10 138.15 C 312.96 141.77 308.06 145.75 302.57 148.83 C 299.63 159.95 297.42 171.44 292.28 181.82 C 296.60 181.40 301.48 180.16 305.27 183.05 C 299.97 186.25 292.90 185.60 288.26 190.02 C 283.18 194.94 277.77 199.53 271.93 203.52 C 275.80 205.01 280.18 205.87 283.29 208.78 C 284.41 209.63 284.32 211.04 284.47 212.28 C 277.40 210.60 270.35 207.98 263.00 208.19 C 257.92 209.92 253.55 213.25 249.00 216.02 C 251.14 220.13 254.45 223.31 257.95 226.26 C 259.34 227.16 257.31 229.15 256.17 228.58 C 250.58 227.00 245.39 224.29 240.17 221.79 C 233.28 224.49 225.95 226.55 219.99 231.12 C 223.31 235.20 227.83 238.74 229.06 244.10 C 223.31 242.30 217.91 239.54 212.81 236.37 C 208.51 238.41 204.21 243.50 199.07 240.97 C 196.28 239.52 197.96 236.29 199.45 234.52 C 203.63 229.76 209.41 226.81 214.99 224.00 C 228.06 217.48 241.09 210.87 254.01 204.06 C 259.47 201.20 265.06 198.48 270.01 194.77 C 281.87 185.58 290.39 171.86 292.31 156.89 C 293.23 148.87 295.51 141.11 297.35 133.28 Z" />
<path fill="#467bbf" opacity="1.00" d=" M 202.93 114.55 C 198.98 111.94 197.65 106.66 198.58 102.21 C 201.14 103.13 203.61 104.30 205.99 105.63 C 203.50 107.95 203.70 111.50 202.93 114.55 Z" />
<path fill="#467bbf" opacity="1.00" d=" M 215.87 104.70 C 217.88 105.64 219.61 107.04 221.16 108.62 C 220.05 109.70 218.95 110.80 217.84 111.88 C 216.57 109.68 215.60 107.30 215.87 104.70 Z" />
<path fill="#467bbf" opacity="1.00" d=" M 183.96 119.83 C 180.12 116.29 179.78 110.20 180.75 105.33 C 184.30 106.24 187.26 108.40 189.85 110.92 C 189.15 111.24 187.76 111.89 187.07 112.22 C 186.24 114.68 186.43 118.75 183.96 119.83 Z" />
<path fill="#467bbf" opacity="1.00" d=" M 226.02 110.88 C 226.44 109.35 227.21 107.94 227.93 106.54 C 228.16 108.28 228.26 110.03 228.36 111.78 C 227.58 111.47 226.80 111.17 226.02 110.88 Z" />
<path fill="#467bbf" opacity="1.00" d=" M 153.48 108.62 C 156.01 107.17 158.53 110.19 160.84 111.05 C 160.37 111.53 159.43 112.48 158.96 112.96 C 158.68 114.94 158.45 116.96 157.76 118.85 C 156.70 118.92 155.98 118.45 155.60 117.45 C 154.07 114.82 152.78 111.71 153.48 108.62 Z" />
<path fill="#467bbf" opacity="1.00" d=" M 209.38 109.87 C 212.40 111.12 214.80 113.37 216.63 116.05 C 215.61 116.61 214.59 117.17 213.57 117.72 C 213.02 119.97 212.48 122.23 211.81 124.45 C 208.00 120.76 207.67 114.65 209.38 109.87 Z" />
<path fill="#467bbf" opacity="1.00" d=" M 138.31 110.83 C 141.37 111.46 142.12 114.64 142.71 117.28 C 140.55 115.67 139.52 113.13 138.31 110.83 Z" />
<path fill="#467bbf" opacity="1.00" d=" M 162.34 113.11 C 165.77 113.62 168.78 115.38 171.45 117.51 C 170.82 117.89 169.56 118.64 168.93 119.02 C 168.60 121.49 168.73 124.20 167.40 126.41 C 166.25 127.52 165.65 125.76 164.99 125.04 C 162.46 121.62 161.71 117.26 162.34 113.11 Z" />
<path fill="#467bbf" opacity="1.00" d=" M 194.98 128.54 C 191.41 124.35 189.80 117.39 192.94 112.57 C 196.14 113.40 198.67 115.89 200.79 118.33 C 200.98 119.63 199.12 119.54 198.43 120.21 C 197.46 123.06 196.39 125.88 194.98 128.54 Z" />
<path fill="#467bbf" opacity="1.00" d=" M 223.02 112.40 C 224.85 113.45 226.35 114.93 227.61 116.61 C 226.89 118.34 226.16 120.06 225.41 121.77 C 223.60 118.97 222.81 115.73 223.02 112.40 Z" />
<path fill="#467bbf" opacity="1.00" d=" M 143.72 117.58 C 146.57 118.43 149.30 119.68 151.43 121.81 C 150.92 122.05 149.90 122.52 149.38 122.76 C 149.04 125.12 148.63 127.48 147.99 129.79 C 144.31 126.94 143.02 122.05 143.72 117.58 Z" />
<path fill="#467bbf" opacity="1.00" d=" M 236.00 122.96 C 235.51 120.90 236.10 118.99 237.18 117.25 C 237.50 119.29 237.97 121.55 236.00 122.96 Z" />
<path fill="#467bbf" opacity="1.00" d=" M 129.34 118.42 C 131.74 120.40 133.35 123.08 134.15 126.09 C 132.99 125.60 131.84 125.11 130.70 124.61 C 130.22 122.55 129.74 120.49 129.34 118.42 Z" />
<path fill="#467bbf" opacity="1.00" d=" M 171.56 119.22 C 175.69 119.58 178.95 122.35 181.96 124.95 C 181.17 125.31 179.58 126.02 178.79 126.38 C 178.50 129.68 177.74 132.95 176.09 135.85 C 171.57 131.74 170.48 125.01 171.56 119.22 Z" />
<path fill="#467bbf" opacity="1.00" d=" M 217.85 118.25 C 221.81 120.67 224.38 124.68 226.43 128.73 C 225.53 128.66 223.72 128.51 222.82 128.43 C 222.14 131.12 221.28 133.76 219.98 136.21 C 217.14 130.80 215.78 124.16 217.85 118.25 Z" />
<path fill="#467bbf" opacity="1.00" d=" M 201.35 137.63 C 198.67 132.59 198.95 125.12 202.96 120.79 C 206.61 122.42 208.69 126.05 210.82 129.23 C 209.63 129.57 208.43 129.92 207.24 130.26 C 205.47 132.71 204.67 137.11 201.35 137.63 Z" />
<path fill="#467bbf" opacity="1.00" d=" M 151.66 122.65 C 154.77 123.47 157.56 125.09 160.10 127.02 C 159.22 127.61 158.35 128.21 157.47 128.81 C 157.51 131.40 156.95 133.94 155.76 136.25 C 152.40 132.62 150.46 127.58 151.66 122.65 Z" />
<path fill="#467bbf" opacity="1.00" d=" M 230.57 122.16 C 233.16 123.16 234.84 125.35 236.31 127.59 C 235.35 129.65 234.58 131.80 233.81 133.94 C 231.65 130.39 230.41 126.35 230.57 122.16 Z" />
<path fill="#467bbf" opacity="1.00" d=" M 181.42 132.90 C 181.22 130.70 180.99 127.91 182.97 126.40 C 186.57 127.41 189.53 129.80 192.16 132.35 C 191.13 132.88 190.10 133.41 189.08 133.94 C 188.67 137.12 187.89 140.24 186.49 143.13 C 183.11 140.88 182.06 136.67 181.42 132.90 Z" />
<path fill="#467bbf" opacity="1.00" d=" M 137.97 140.51 C 135.10 137.53 133.01 132.66 134.96 128.70 C 137.51 129.15 139.58 130.95 141.76 132.25 C 141.24 132.63 140.21 133.39 139.69 133.77 C 139.20 136.03 138.70 138.30 137.97 140.51 Z" />
<path fill="#467bbf" opacity="1.00" d=" M 160.03 135.01 C 159.24 132.74 160.05 130.45 160.70 128.27 C 164.00 129.52 167.15 131.25 169.52 133.93 C 168.85 134.18 167.51 134.67 166.84 134.92 C 166.29 137.72 165.74 140.54 164.68 143.20 C 161.58 141.68 160.84 138.04 160.03 135.01 Z" />
<path fill="#467bbf" opacity="1.00" d=" M 241.00 135.20 C 240.01 132.28 243.49 130.59 245.42 129.21 C 244.41 131.39 243.97 134.88 241.00 135.20 Z" />
<path fill="#467bbf" opacity="1.00" d=" M 121.72 130.97 C 124.77 131.49 127.00 133.59 127.73 136.61 C 124.86 135.82 123.04 133.48 121.72 130.97 Z" />
<path fill="#467bbf" opacity="1.00" d=" M 226.44 131.03 C 230.91 133.52 234.75 137.30 236.71 142.09 C 235.13 142.27 233.55 142.41 231.97 142.52 C 231.07 145.43 230.27 148.38 229.17 151.22 C 225.25 145.52 224.16 137.57 226.44 131.03 Z" />
<path fill="#467bbf" opacity="1.00" d=" M 209.75 150.19 C 205.82 144.60 207.51 136.17 211.85 131.20 C 215.16 133.93 217.75 137.42 219.61 141.28 C 218.37 141.43 217.12 141.57 215.88 141.71 C 214.08 144.70 212.05 147.56 209.75 150.19 Z" />
<path fill="#467bbf" opacity="1.00" d=" M 141.71 135.95 C 141.71 134.54 143.30 133.32 144.53 134.38 C 146.55 135.52 148.68 136.88 149.82 138.96 C 147.11 141.37 146.83 145.16 145.09 148.17 C 142.42 144.74 141.05 140.28 141.71 135.95 Z" />
<path fill="#467bbf" opacity="1.00" d=" M 190.85 137.74 C 191.55 136.36 192.18 134.38 194.00 134.25 C 197.31 136.42 199.31 140.01 200.85 143.56 C 199.98 143.56 198.26 143.56 197.40 143.57 C 195.64 146.60 193.85 149.74 190.91 151.78 C 188.99 147.35 189.26 142.22 190.85 137.74 Z" />
<path fill="#467bbf" opacity="1.00" d=" M 167.78 143.01 C 167.33 140.20 168.08 137.38 169.76 135.11 C 173.60 137.06 177.17 139.57 179.89 142.95 C 178.67 143.39 177.46 143.83 176.25 144.27 C 175.54 147.79 174.51 151.27 172.69 154.39 C 168.98 151.90 168.39 147.08 167.78 143.01 Z" />
<path fill="#467bbf" opacity="1.00" d=" M 119.25 140.77 C 122.62 140.40 125.65 142.61 126.00 146.02 C 123.38 144.81 121.12 142.96 119.25 140.77 Z" />
<path fill="#467bbf" opacity="1.00" d=" M 129.20 140.77 C 131.27 141.80 133.32 142.88 135.32 144.05 C 134.91 144.48 134.09 145.36 133.68 145.80 C 133.20 147.69 132.67 149.57 132.10 151.44 C 129.58 148.47 128.52 144.62 129.20 140.77 Z" />
<path fill="#467bbf" opacity="1.00" d=" M 151.98 140.53 C 155.38 142.25 158.56 144.50 160.61 147.79 C 159.84 147.98 158.31 148.35 157.54 148.53 C 156.71 151.63 155.52 154.63 153.87 157.39 C 152.99 156.07 152.11 154.76 151.21 153.47 C 150.64 153.04 148.95 152.94 149.67 151.89 C 151.18 148.28 149.52 143.94 151.98 140.53 Z" />
<path fill="#467bbf" opacity="1.00" d=" M 239.86 146.40 C 239.51 143.36 241.98 141.72 244.31 140.44 C 244.64 143.38 242.04 145.12 239.86 146.40 Z" />
<path fill="#467bbf" opacity="1.00" d=" M 176.03 162.04 C 175.23 155.71 176.91 149.05 181.04 144.12 C 185.20 146.90 187.71 151.41 189.41 156.00 C 188.01 156.06 186.61 156.19 185.23 156.37 C 182.91 159.42 180.82 162.69 177.81 165.13 C 177.18 164.13 176.48 163.15 176.03 162.04 Z" />
<path fill="#467bbf" opacity="1.00" d=" M 201.25 145.16 C 202.22 145.16 202.96 145.56 203.48 146.37 C 205.73 149.10 207.05 152.44 208.10 155.78 C 206.76 155.73 205.43 155.69 204.11 155.65 C 202.11 158.28 200.12 161.07 197.18 162.70 C 196.28 161.71 195.45 160.51 195.70 159.09 C 196.07 154.08 197.21 148.56 201.25 145.16 Z" />
<path fill="#467bbf" opacity="1.00" d=" M 213.28 158.93 C 213.68 153.32 215.97 147.78 220.16 143.96 C 223.79 146.97 225.25 151.59 226.38 155.99 C 224.98 155.84 223.59 155.69 222.20 155.54 C 219.98 157.81 218.04 160.86 214.95 161.94 C 213.11 162.26 213.25 160.10 213.28 158.93 Z" />
<path fill="#467bbf" opacity="1.00" d=" M 136.00 146.87 C 138.26 147.93 140.42 149.17 142.57 150.42 C 141.95 151.11 141.33 151.79 140.72 152.48 C 140.32 154.18 139.97 155.90 139.40 157.56 C 138.14 158.44 137.66 156.84 137.09 156.01 C 135.52 153.23 135.14 149.93 136.00 146.87 Z" />
<path fill="#467bbf" opacity="1.00" d=" M 157.57 159.17 C 158.09 155.64 158.64 150.03 162.75 149.14 C 165.76 151.59 167.47 155.17 169.10 158.60 C 167.80 158.65 166.50 158.70 165.21 158.75 C 163.64 161.34 162.19 164.17 159.68 165.99 C 156.55 165.59 157.72 161.36 157.57 159.17 Z" />
<path fill="#467bbf" opacity="1.00" d=" M 123.73 154.07 C 126.54 152.41 129.90 153.83 131.88 156.13 C 129.02 156.10 126.34 155.12 123.73 154.07 Z" />
<path fill="#467bbf" opacity="1.00" d=" M 145.69 166.27 C 142.85 162.47 141.49 157.24 143.68 152.80 C 145.95 154.41 148.06 156.25 150.00 158.25 C 149.11 158.88 148.22 159.50 147.33 160.13 C 146.84 162.19 146.29 164.24 145.69 166.27 Z" />
<path fill="#467bbf" opacity="1.00" d=" M 232.67 156.47 C 233.57 154.56 235.90 154.26 237.68 153.63 C 236.72 155.62 235.49 157.54 233.53 158.66 C 232.55 158.28 231.85 157.44 232.67 156.47 Z" />
<path fill="#467bbf" opacity="1.00" d=" M 200.26 172.03 C 200.89 166.52 202.99 160.62 207.85 157.47 C 210.73 161.06 212.81 165.30 213.35 169.92 C 212.47 169.70 210.70 169.27 209.82 169.06 C 207.29 171.46 205.13 174.47 201.90 175.97 C 199.86 176.05 200.18 173.36 200.26 172.03 Z" />
<path fill="#467bbf" opacity="1.00" d=" M 183.03 165.99 C 184.16 162.81 186.40 160.24 189.11 158.28 C 192.95 161.95 194.78 167.15 195.76 172.25 C 194.22 172.02 192.68 171.80 191.14 171.57 C 188.53 174.84 185.59 177.94 181.75 179.75 C 179.57 175.29 181.47 170.32 183.03 165.99 Z" />
<path fill="#467bbf" opacity="1.00" d=" M 164.76 177.92 C 162.50 171.56 164.61 164.11 169.15 159.25 C 172.75 161.95 174.57 166.15 176.28 170.17 C 174.93 170.21 173.58 170.24 172.24 170.27 C 170.18 173.21 167.92 176.09 164.76 177.92 Z" />
<path fill="#467bbf" opacity="1.00" d=" M 152.35 175.74 C 150.15 170.98 147.54 165.39 149.82 160.20 C 152.97 162.46 155.58 165.36 157.57 168.70 C 156.77 168.78 155.16 168.95 154.36 169.03 C 153.93 171.33 153.70 173.75 152.35 175.74 Z" />
<path fill="#467bbf" opacity="1.00" d=" M 132.66 165.17 C 135.59 164.54 138.44 165.38 140.85 167.10 C 137.93 168.57 135.14 166.54 132.66 165.17 Z" />
<path fill="#467bbf" opacity="1.00" d=" M 220.04 169.17 C 221.65 166.40 224.80 166.19 227.65 166.02 C 226.46 169.05 223.03 170.42 220.04 169.17 Z" />
<path fill="#467bbf" opacity="1.00" d=" M 145.90 177.20 C 148.84 176.49 151.73 177.36 154.21 178.98 C 151.28 179.86 148.50 178.36 145.90 177.20 Z" />
<path fill="#467bbf" opacity="1.00" d=" M 207.24 179.62 C 207.45 176.31 211.84 176.57 214.24 176.20 C 212.84 178.47 210.08 181.75 207.24 179.62 Z" />
<path fill="#467bbf" opacity="1.00" d=" M 164.39 180.08 C 171.41 178.62 177.69 182.64 184.03 184.88 C 189.93 182.87 195.62 179.58 202.04 179.54 C 204.70 179.09 204.32 182.92 202.24 183.29 C 196.66 185.15 191.14 187.17 185.85 189.73 C 183.43 191.34 181.08 189.12 178.96 188.08 C 174.37 185.26 168.99 184.32 163.82 183.13 C 163.96 182.37 164.25 180.84 164.39 180.08 Z" />
<path fill="#467bbf" opacity="1.00" d=" M 181.23 194.05 C 183.18 191.83 187.74 191.17 188.29 194.81 C 186.60 203.33 184.54 213.54 190.86 220.74 C 187.51 224.25 185.11 229.04 185.90 234.00 C 186.45 238.82 189.51 242.75 192.37 246.47 C 188.20 249.68 183.94 254.29 184.56 259.96 C 184.90 264.97 188.93 268.36 192.31 271.57 C 188.51 274.68 184.66 278.83 185.05 284.12 C 184.64 289.50 187.94 294.07 191.17 298.01 C 188.33 299.81 185.12 302.26 185.17 305.99 C 184.84 309.28 186.89 312.02 187.96 314.96 C 188.98 317.25 187.53 320.48 184.91 320.76 C 183.66 320.72 182.47 320.30 181.26 320.02 C 180.64 311.33 181.01 302.62 180.92 293.92 C 181.42 277.61 181.04 261.28 181.16 244.96 C 181.21 227.99 181.38 211.02 181.23 194.05 Z" />
</g>
<g id="#fcfefcff">
<path fill="#fcfefc" opacity="1.00" d=" M 164.12 43.27 C 174.05 51.14 175.25 64.94 174.87 76.69 C 167.59 67.23 163.75 55.19 164.12 43.27 Z" />
<path fill="#fcfefc" opacity="1.00" d=" M 180.73 68.12 C 178.60 59.98 178.24 51.38 179.61 43.09 C 180.21 43.54 181.42 44.46 182.02 44.92 C 182.65 44.48 183.90 43.60 184.52 43.15 C 185.60 51.62 183.11 60.07 180.73 68.12 Z" />
<path fill="#fcfefc" opacity="1.00" d=" M 189.64 75.45 C 185.74 64.50 188.55 51.74 196.92 43.63 C 196.98 52.77 195.99 62.07 192.68 70.65 C 192.05 72.47 190.86 73.99 189.64 75.45 Z" />
<path fill="#fcfefc" opacity="1.00" d=" M 152.12 45.97 C 159.92 50.13 160.34 60.44 159.59 68.21 C 157.17 61.81 155.13 53.28 147.51 51.37 C 149.62 50.11 151.48 48.46 152.12 45.97 Z" />
<path fill="#fcfefc" opacity="1.00" d=" M 201.07 69.14 C 202.09 61.18 202.09 51.95 207.99 45.79 C 208.66 47.32 209.24 48.90 209.77 50.49 C 210.79 50.26 212.83 49.81 213.85 49.59 C 212.92 53.56 209.83 56.36 207.55 59.57 C 205.19 62.62 203.10 65.87 201.07 69.14 Z" />
<path fill="#fcfefc" opacity="1.00" d=" M 209.31 78.00 C 208.99 66.67 214.85 55.21 224.85 49.62 C 223.46 60.52 218.74 71.73 209.31 78.00 Z" />
<path fill="#fcfefc" opacity="1.00" d=" M 140.05 51.70 C 148.70 56.30 152.07 66.37 154.01 75.35 C 145.14 71.12 140.22 61.26 140.05 51.70 Z" />
<path fill="#fcfefc" opacity="1.00" d=" M 130.90 56.11 C 131.60 55.13 132.30 54.16 133.01 53.18 C 135.77 59.69 137.86 66.46 140.23 73.12 C 134.46 68.69 128.94 63.30 126.78 56.15 C 128.15 56.14 129.53 56.13 130.90 56.11 Z" />
<path fill="#fcfefc" opacity="1.00" d=" M 221.51 73.75 C 226.60 68.32 227.93 60.77 229.65 53.82 C 230.40 54.64 231.16 55.46 231.92 56.28 C 232.78 56.23 234.52 56.15 235.39 56.10 C 234.34 63.96 228.47 69.90 222.45 74.50 C 222.14 74.25 221.82 74.00 221.51 73.75 Z" />
<path fill="#fcfefc" opacity="1.00" d=" M 22.50 60.89 C 30.73 64.16 38.47 68.98 44.29 75.73 C 52.70 85.41 59.49 96.43 65.04 107.95 C 66.99 111.74 71.03 115.01 75.51 114.41 C 79.65 114.06 82.05 110.30 84.65 107.54 C 86.83 105.23 88.44 102.47 89.32 99.40 C 89.53 99.44 89.94 99.50 90.15 99.53 C 88.70 100.98 89.00 103.12 88.70 104.96 C 88.09 112.20 87.20 119.57 84.60 126.41 C 81.60 132.81 78.74 139.76 79.47 146.98 C 79.64 149.80 82.07 152.29 84.97 152.10 C 89.77 149.62 94.35 146.42 97.73 142.15 C 97.78 148.66 98.48 155.34 96.70 161.69 C 94.85 168.15 94.76 175.16 96.51 181.65 C 97.86 186.66 102.54 191.14 107.94 190.85 C 110.83 190.03 112.54 187.37 114.12 185.03 C 116.66 191.35 119.85 197.51 124.27 202.73 C 126.92 205.76 131.08 208.91 135.29 207.21 C 139.96 205.28 141.19 199.91 142.64 195.61 C 147.17 200.00 149.80 205.96 151.05 212.07 C 151.85 216.62 154.17 221.31 158.33 223.62 C 161.12 225.14 164.39 223.12 165.70 220.58 C 167.36 217.27 168.37 213.36 167.42 209.69 C 166.60 206.64 163.86 204.82 161.49 203.04 C 163.05 200.30 165.49 196.79 163.29 193.71 C 161.35 191.33 157.89 191.69 155.17 191.26 C 155.89 188.89 157.94 185.69 155.38 183.68 C 151.07 180.33 145.12 181.37 140.03 181.22 C 141.48 179.32 144.29 176.30 142.05 173.91 C 137.09 169.55 130.03 169.22 123.79 168.35 C 125.83 167.00 127.72 165.43 129.63 163.91 C 126.44 157.63 118.45 158.13 113.01 154.98 C 115.47 153.11 118.64 151.82 120.18 149.01 C 121.04 146.20 118.34 144.18 116.34 142.78 C 113.60 140.81 110.22 140.36 106.93 140.24 C 110.59 138.26 114.74 137.85 118.83 137.68 C 117.21 133.04 113.72 129.50 110.69 125.77 C 115.36 126.60 119.92 127.88 124.41 129.42 C 124.75 124.12 123.56 118.82 121.77 113.85 C 124.79 114.73 128.30 116.11 131.24 114.27 C 133.92 111.12 131.79 106.90 130.80 103.51 C 133.40 104.65 136.05 106.47 139.02 106.10 C 141.14 105.28 140.44 102.82 139.69 101.25 C 136.63 94.65 133.07 87.51 126.14 84.25 C 130.97 85.31 136.01 86.16 140.31 88.73 C 144.27 91.35 147.13 95.23 150.11 98.85 C 150.49 97.76 151.74 96.78 151.31 95.51 C 150.00 90.37 148.13 85.33 147.99 79.96 C 151.36 81.80 154.52 84.06 157.02 86.99 C 158.88 88.88 160.18 91.56 162.93 92.30 C 161.48 86.16 159.97 79.97 160.22 73.60 C 166.62 77.46 170.46 83.95 174.96 89.65 C 177.72 83.62 176.84 74.72 183.93 71.63 C 184.63 76.88 184.67 83.67 189.42 87.02 C 193.12 82.02 196.53 76.03 202.61 73.68 C 203.67 79.14 203.21 84.73 203.59 90.25 C 208.54 88.23 210.75 83.06 214.15 79.30 C 214.80 84.02 214.12 88.96 215.72 93.52 C 223.10 88.60 231.06 83.41 240.25 83.27 C 235.41 85.80 230.12 88.26 227.22 93.16 C 225.50 96.23 223.58 99.91 224.65 103.49 C 226.29 106.14 229.78 105.04 232.31 104.90 C 231.19 107.15 229.73 109.44 229.84 112.06 C 229.90 114.66 231.79 116.86 234.00 118.03 C 236.57 116.36 239.11 114.57 242.04 113.57 C 240.72 116.62 238.95 119.63 238.83 123.04 C 238.63 125.32 239.86 127.35 240.66 129.40 C 244.06 126.79 248.18 124.77 252.56 126.14 C 249.96 129.74 244.79 132.63 245.34 137.66 C 248.92 138.80 253.13 136.82 256.40 139.45 C 252.11 141.17 246.91 142.14 244.09 146.14 C 242.45 148.89 245.75 150.93 247.16 152.90 C 242.41 155.57 237.13 158.63 235.42 164.19 C 236.61 165.61 237.85 166.99 239.08 168.38 C 233.96 169.08 228.14 169.50 224.22 173.29 C 221.81 175.53 224.34 178.40 225.60 180.47 C 220.43 180.43 214.40 179.60 210.10 183.12 C 208.11 184.82 209.12 187.41 209.72 189.51 C 206.72 190.15 202.81 190.12 201.12 193.18 C 199.42 196.16 201.65 199.28 202.89 201.97 C 200.38 204.42 197.87 207.33 197.73 211.02 C 197.57 214.72 198.15 219.18 201.54 221.37 C 203.71 223.51 207.01 221.41 208.03 219.11 C 211.21 210.87 212.93 201.34 219.84 195.21 C 220.63 198.80 221.12 203.58 225.10 205.11 C 230.05 206.48 235.07 203.83 238.98 200.99 C 243.80 196.54 247.39 190.90 250.17 185.00 C 251.24 187.45 252.90 190.10 255.94 190.08 C 263.61 189.40 270.23 182.85 270.81 175.12 C 271.86 168.83 267.96 163.44 266.23 157.70 C 264.37 152.28 263.93 146.46 264.69 140.79 C 265.66 143.22 266.10 146.10 268.31 147.78 C 271.63 150.51 276.40 151.09 280.50 150.31 C 284.80 147.36 282.98 141.23 281.72 137.07 C 277.39 125.57 270.31 113.71 273.11 100.97 C 277.93 107.58 284.63 112.80 292.27 115.74 C 293.59 115.51 294.96 114.77 295.39 113.40 C 296.75 109.54 296.91 105.34 298.61 101.59 C 304.57 87.06 316.07 75.67 328.43 66.40 C 331.08 64.31 333.93 62.49 336.88 60.85 C 335.60 65.17 333.86 69.47 330.83 72.88 C 322.86 81.83 315.46 92.03 313.02 103.99 C 311.68 110.08 313.05 116.31 314.98 122.10 C 316.22 125.49 319.21 128.40 322.93 128.66 C 328.60 129.58 333.51 126.05 337.90 123.02 C 337.34 124.88 336.61 126.74 335.16 128.09 C 326.67 136.92 318.11 145.71 309.01 153.92 C 306.30 156.30 304.07 159.45 303.51 163.08 C 302.58 168.17 305.87 173.74 310.84 175.26 C 317.77 177.73 324.45 181.99 327.92 188.70 C 318.86 187.46 309.19 186.75 300.63 190.61 C 295.44 192.72 291.82 197.25 288.47 201.54 C 286.33 205.61 289.70 209.78 292.49 212.52 C 295.31 215.67 299.46 216.86 303.37 218.03 C 299.24 219.78 294.61 221.00 290.16 219.74 C 283.58 217.87 276.93 215.62 270.00 215.78 C 267.20 215.88 263.52 216.63 262.81 219.83 C 262.44 223.03 262.57 226.61 264.65 229.26 C 268.16 234.10 274.24 235.64 279.40 238.04 C 273.24 241.80 266.10 238.54 260.31 235.69 C 255.48 233.62 251.52 229.41 246.05 229.06 C 241.55 228.39 235.67 228.73 233.15 233.16 C 230.78 237.72 232.95 243.17 236.69 246.24 C 239.93 249.20 244.41 249.84 248.52 250.75 C 247.12 251.55 245.75 252.62 244.05 252.66 C 235.87 253.34 228.41 249.22 221.27 245.84 C 217.71 244.26 212.85 243.99 209.91 246.93 C 207.75 249.11 208.61 252.38 208.53 255.12 C 205.23 256.26 201.67 258.09 200.79 261.79 C 199.76 266.84 203.61 270.97 206.32 274.77 C 203.44 277.87 200.30 281.44 200.49 285.97 C 200.44 290.12 203.62 293.13 206.34 295.84 C 204.06 302.18 205.83 309.62 210.90 314.10 C 216.98 320.32 225.55 322.63 233.39 325.71 C 233.46 326.41 233.62 327.80 233.70 328.50 C 199.27 328.55 164.84 328.59 130.42 328.47 C 130.45 327.62 130.53 325.90 130.57 325.05 C 138.57 322.39 146.47 319.18 153.55 314.58 C 157.08 312.23 160.74 309.24 161.77 304.92 C 162.41 301.82 160.40 299.19 158.56 296.95 C 162.32 293.63 166.72 289.50 166.24 284.02 C 165.79 279.04 161.35 276.08 157.83 273.18 C 161.63 270.10 166.20 266.47 166.57 261.21 C 165.79 256.78 160.87 255.47 157.16 254.45 C 157.80 252.30 158.41 250.11 158.35 247.84 C 152.40 244.38 145.32 246.47 139.11 248.01 C 132.76 250.40 126.59 253.80 119.60 253.81 C 123.87 249.00 129.33 244.47 130.60 237.83 C 131.32 233.54 127.22 230.36 123.48 229.45 C 118.73 227.73 113.71 230.00 109.92 232.85 C 107.22 234.86 104.81 237.39 101.56 238.53 C 96.23 240.55 90.27 242.53 84.62 240.65 C 90.44 236.29 97.10 232.27 100.65 225.67 C 102.19 223.15 101.64 219.58 99.08 217.95 C 94.00 214.21 87.01 216.03 81.99 218.97 C 75.22 222.83 67.17 222.83 59.61 222.45 C 65.51 219.09 72.63 216.02 75.23 209.22 C 77.19 203.66 73.06 198.44 68.99 195.14 C 60.33 187.71 48.21 187.22 37.37 187.86 C 41.38 182.05 47.89 178.95 54.07 176.02 C 58.57 174.07 61.31 168.75 60.06 163.97 C 58.97 159.46 56.14 155.43 52.49 152.60 C 45.46 147.39 38.62 141.85 32.60 135.47 C 30.13 132.87 28.30 129.75 27.08 126.38 C 31.61 128.00 36.12 130.20 41.04 130.16 C 44.35 130.08 48.03 128.34 48.98 124.91 C 51.03 118.79 48.90 112.37 47.35 106.39 C 45.78 101.20 44.42 95.85 41.71 91.10 C 35.30 81.05 27.01 72.03 22.50 60.89 M 179.98 92.66 C 180.45 95.16 181.26 97.58 182.34 99.88 C 183.20 97.97 183.76 95.95 184.43 93.97 C 182.92 93.63 181.43 93.19 179.98 92.66 M 197.89 93.23 C 197.93 95.23 199.31 96.62 200.60 97.97 C 201.42 96.98 202.24 96.00 203.06 95.02 C 201.34 94.41 199.62 93.79 197.89 93.23 M 219.30 95.22 C 217.78 95.69 217.40 98.72 219.07 99.23 C 220.65 98.84 220.91 95.71 219.30 95.22 M 157.91 95.92 C 158.13 99.74 160.75 102.57 163.56 104.85 C 164.31 102.38 165.11 99.92 165.82 97.43 C 163.25 96.61 160.60 96.09 157.91 95.92 M 191.43 107.38 C 193.43 106.22 193.02 103.57 193.58 101.64 C 193.93 101.19 194.65 100.28 195.01 99.83 C 193.14 98.28 190.90 97.30 188.69 96.36 C 187.44 100.28 189.01 104.28 191.43 107.38 M 206.85 97.92 C 207.21 99.99 208.14 101.87 209.40 103.54 C 210.37 102.49 211.32 101.44 212.27 100.38 C 210.48 99.52 208.68 98.69 206.85 97.92 M 168.54 99.50 C 168.27 104.42 170.19 110.44 174.85 112.72 C 176.07 110.28 175.60 107.47 175.66 104.85 C 176.24 104.35 177.40 103.37 177.98 102.87 C 175.05 101.21 171.88 99.99 168.54 99.50 M 53.14 100.64 C 57.51 112.29 59.23 124.74 59.48 137.14 C 54.57 136.51 50.16 134.21 45.54 132.63 C 48.73 138.60 54.74 142.62 60.60 145.71 C 64.27 158.28 67.36 171.19 73.52 182.85 C 68.67 183.14 63.03 182.00 58.90 185.15 C 59.33 186.40 60.87 186.27 61.88 186.66 C 66.91 187.71 71.93 188.86 76.97 189.84 C 79.66 193.20 82.31 196.66 85.74 199.32 C 86.88 200.40 88.64 201.13 88.90 202.86 C 85.28 205.64 80.03 208.04 79.47 213.11 C 85.31 213.81 90.32 210.33 95.56 208.50 C 102.23 212.00 108.47 216.42 115.61 218.97 C 113.58 222.00 110.38 223.89 108.07 226.62 C 112.97 228.35 117.28 224.08 121.96 223.50 C 131.45 224.30 141.31 227.09 148.36 233.83 C 144.83 236.06 140.11 237.65 138.69 242.00 C 144.17 242.55 148.66 238.50 154.08 238.54 C 159.55 238.27 164.26 242.91 169.81 241.50 C 168.06 237.43 164.93 234.23 161.50 231.53 C 149.64 222.11 135.34 216.46 120.99 212.06 C 110.98 208.24 101.51 202.69 93.80 195.20 C 88.07 189.74 83.75 182.96 80.18 175.94 C 71.09 156.23 65.81 135.06 60.56 114.09 C 58.78 109.34 57.46 103.78 53.14 100.64 M 145.86 100.82 C 146.86 103.82 148.02 106.86 150.07 109.31 C 150.66 105.79 148.24 103.04 145.86 100.82 M 297.35 133.28 C 295.51 141.11 293.23 148.87 292.31 156.89 C 290.39 171.86 281.87 185.58 270.01 194.77 C 265.06 198.48 259.47 201.20 254.01 204.06 C 241.09 210.87 228.06 217.48 214.99 224.00 C 209.41 226.81 203.63 229.76 199.45 234.52 C 197.96 236.29 196.28 239.52 199.07 240.97 C 204.21 243.50 208.51 238.41 212.81 236.37 C 217.91 239.54 223.31 242.30 229.06 244.10 C 227.83 238.74 223.31 235.20 219.99 231.12 C 225.95 226.55 233.28 224.49 240.17 221.79 C 245.39 224.29 250.58 227.00 256.17 228.58 C 257.31 229.15 259.34 227.16 257.95 226.26 C 254.45 223.31 251.14 220.13 249.00 216.02 C 253.55 213.25 257.92 209.92 263.00 208.19 C 270.35 207.98 277.40 210.60 284.47 212.28 C 284.32 211.04 284.41 209.63 283.29 208.78 C 280.18 205.87 275.80 205.01 271.93 203.52 C 277.77 199.53 283.18 194.94 288.26 190.02 C 292.90 185.60 299.97 186.25 305.27 183.05 C 301.48 180.16 296.60 181.40 292.28 181.82 C 297.42 171.44 299.63 159.95 302.57 148.83 C 308.06 145.75 312.96 141.77 318.10 138.15 C 319.98 136.95 321.24 135.09 322.06 133.04 C 315.85 134.88 310.15 138.06 304.28 140.74 C 302.55 137.06 303.06 132.88 303.31 128.96 C 304.23 120.87 306.36 112.98 308.45 105.13 C 309.00 103.66 308.42 102.16 308.18 100.70 C 303.57 111.19 300.04 122.14 297.35 133.28 M 202.93 114.55 C 203.70 111.50 203.50 107.95 205.99 105.63 C 203.61 104.30 201.14 103.13 198.58 102.21 C 197.65 106.66 198.98 111.94 202.93 114.55 M 215.87 104.70 C 215.60 107.30 216.57 109.68 217.84 111.88 C 218.95 110.80 220.05 109.70 221.16 108.62 C 219.61 107.04 217.88 105.64 215.87 104.70 M 183.96 119.83 C 186.43 118.75 186.24 114.68 187.07 112.22 C 187.76 111.89 189.15 111.24 189.85 110.92 C 187.26 108.40 184.30 106.24 180.75 105.33 C 179.78 110.20 180.12 116.29 183.96 119.83 M 226.02 110.88 C 226.80 111.17 227.58 111.47 228.36 111.78 C 228.26 110.03 228.16 108.28 227.93 106.54 C 227.21 107.94 226.44 109.35 226.02 110.88 M 153.48 108.62 C 152.78 111.71 154.07 114.82 155.60 117.45 C 155.98 118.45 156.70 118.92 157.76 118.85 C 158.45 116.96 158.68 114.94 158.96 112.96 C 159.43 112.48 160.37 111.53 160.84 111.05 C 158.53 110.19 156.01 107.17 153.48 108.62 M 209.38 109.87 C 207.67 114.65 208.00 120.76 211.81 124.45 C 212.48 122.23 213.02 119.97 213.57 117.72 C 214.59 117.17 215.61 116.61 216.63 116.05 C 214.80 113.37 212.40 111.12 209.38 109.87 M 138.31 110.83 C 139.52 113.13 140.55 115.67 142.71 117.28 C 142.12 114.64 141.37 111.46 138.31 110.83 M 162.34 113.11 C 161.71 117.26 162.46 121.62 164.99 125.04 C 165.65 125.76 166.25 127.52 167.40 126.41 C 168.73 124.20 168.60 121.49 168.93 119.02 C 169.56 118.64 170.82 117.89 171.45 117.51 C 168.78 115.38 165.77 113.62 162.34 113.11 M 194.98 128.54 C 196.39 125.88 197.46 123.06 198.43 120.21 C 199.12 119.54 200.98 119.63 200.79 118.33 C 198.67 115.89 196.14 113.40 192.94 112.57 C 189.80 117.39 191.41 124.35 194.98 128.54 M 223.02 112.40 C 222.81 115.73 223.60 118.97 225.41 121.77 C 226.16 120.06 226.89 118.34 227.61 116.61 C 226.35 114.93 224.85 113.45 223.02 112.40 M 143.72 117.58 C 143.02 122.05 144.31 126.94 147.99 129.79 C 148.63 127.48 149.04 125.12 149.38 122.76 C 149.90 122.52 150.92 122.05 151.43 121.81 C 149.30 119.68 146.57 118.43 143.72 117.58 M 236.00 122.96 C 237.97 121.55 237.50 119.29 237.18 117.25 C 236.10 118.99 235.51 120.90 236.00 122.96 M 129.34 118.42 C 129.74 120.49 130.22 122.55 130.70 124.61 C 131.84 125.11 132.99 125.60 134.15 126.09 C 133.35 123.08 131.74 120.40 129.34 118.42 M 171.56 119.22 C 170.48 125.01 171.57 131.74 176.09 135.85 C 177.74 132.95 178.50 129.68 178.79 126.38 C 179.58 126.02 181.17 125.31 181.96 124.95 C 178.95 122.35 175.69 119.58 171.56 119.22 M 217.85 118.25 C 215.78 124.16 217.14 130.80 219.98 136.21 C 221.28 133.76 222.14 131.12 222.82 128.43 C 223.72 128.51 225.53 128.66 226.43 128.73 C 224.38 124.68 221.81 120.67 217.85 118.25 M 201.35 137.63 C 204.67 137.11 205.47 132.71 207.24 130.26 C 208.43 129.92 209.63 129.57 210.82 129.23 C 208.69 126.05 206.61 122.42 202.96 120.79 C 198.95 125.12 198.67 132.59 201.35 137.63 M 151.66 122.65 C 150.46 127.58 152.40 132.62 155.76 136.25 C 156.95 133.94 157.51 131.40 157.47 128.81 C 158.35 128.21 159.22 127.61 160.10 127.02 C 157.56 125.09 154.77 123.47 151.66 122.65 M 230.57 122.16 C 230.41 126.35 231.65 130.39 233.81 133.94 C 234.58 131.80 235.35 129.65 236.31 127.59 C 234.84 125.35 233.16 123.16 230.57 122.16 M 181.42 132.90 C 182.06 136.67 183.11 140.88 186.49 143.13 C 187.89 140.24 188.67 137.12 189.08 133.94 C 190.10 133.41 191.13 132.88 192.16 132.35 C 189.53 129.80 186.57 127.41 182.97 126.40 C 180.99 127.91 181.22 130.70 181.42 132.90 M 137.97 140.51 C 138.70 138.30 139.20 136.03 139.69 133.77 C 140.21 133.39 141.24 132.63 141.76 132.25 C 139.58 130.95 137.51 129.15 134.96 128.70 C 133.01 132.66 135.10 137.53 137.97 140.51 M 160.03 135.01 C 160.84 138.04 161.58 141.68 164.68 143.20 C 165.74 140.54 166.29 137.72 166.84 134.92 C 167.51 134.67 168.85 134.18 169.52 133.93 C 167.15 131.25 164.00 129.52 160.70 128.27 C 160.05 130.45 159.24 132.74 160.03 135.01 M 241.00 135.20 C 243.97 134.88 244.41 131.39 245.42 129.21 C 243.49 130.59 240.01 132.28 241.00 135.20 M 121.72 130.97 C 123.04 133.48 124.86 135.82 127.73 136.61 C 127.00 133.59 124.77 131.49 121.72 130.97 M 226.44 131.03 C 224.16 137.57 225.25 145.52 229.17 151.22 C 230.27 148.38 231.07 145.43 231.97 142.52 C 233.55 142.41 235.13 142.27 236.71 142.09 C 234.75 137.30 230.91 133.52 226.44 131.03 M 209.75 150.19 C 212.05 147.56 214.08 144.70 215.88 141.71 C 217.12 141.57 218.37 141.43 219.61 141.28 C 217.75 137.42 215.16 133.93 211.85 131.20 C 207.51 136.17 205.82 144.60 209.75 150.19 M 141.71 135.95 C 141.05 140.28 142.42 144.74 145.09 148.17 C 146.83 145.16 147.11 141.37 149.82 138.96 C 148.68 136.88 146.55 135.52 144.53 134.38 C 143.30 133.32 141.71 134.54 141.71 135.95 M 190.85 137.74 C 189.26 142.22 188.99 147.35 190.91 151.78 C 193.85 149.74 195.64 146.60 197.40 143.57 C 198.26 143.56 199.98 143.56 200.85 143.56 C 199.31 140.01 197.31 136.42 194.00 134.25 C 192.18 134.38 191.55 136.36 190.85 137.74 M 167.78 143.01 C 168.39 147.08 168.98 151.90 172.69 154.39 C 174.51 151.27 175.54 147.79 176.25 144.27 C 177.46 143.83 178.67 143.39 179.89 142.95 C 177.17 139.57 173.60 137.06 169.76 135.11 C 168.08 137.38 167.33 140.20 167.78 143.01 M 119.25 140.77 C 121.12 142.96 123.38 144.81 126.00 146.02 C 125.65 142.61 122.62 140.40 119.25 140.77 M 129.20 140.77 C 128.52 144.62 129.58 148.47 132.10 151.44 C 132.67 149.57 133.20 147.69 133.68 145.80 C 134.09 145.36 134.91 144.48 135.32 144.05 C 133.32 142.88 131.27 141.80 129.20 140.77 M 151.98 140.53 C 149.52 143.94 151.18 148.28 149.67 151.89 C 148.95 152.94 150.64 153.04 151.21 153.47 C 152.11 154.76 152.99 156.07 153.87 157.39 C 155.52 154.63 156.71 151.63 157.54 148.53 C 158.31 148.35 159.84 147.98 160.61 147.79 C 158.56 144.50 155.38 142.25 151.98 140.53 M 239.86 146.40 C 242.04 145.12 244.64 143.38 244.31 140.44 C 241.98 141.72 239.51 143.36 239.86 146.40 M 176.03 162.04 C 176.48 163.15 177.18 164.13 177.81 165.13 C 180.82 162.69 182.91 159.42 185.23 156.37 C 186.61 156.19 188.01 156.06 189.41 156.00 C 187.71 151.41 185.20 146.90 181.04 144.12 C 176.91 149.05 175.23 155.71 176.03 162.04 M 201.25 145.16 C 197.21 148.56 196.07 154.08 195.70 159.09 C 195.45 160.51 196.28 161.71 197.18 162.70 C 200.12 161.07 202.11 158.28 204.11 155.65 C 205.43 155.69 206.76 155.73 208.10 155.78 C 207.05 152.44 205.73 149.10 203.48 146.37 C 202.96 145.56 202.22 145.16 201.25 145.16 M 213.28 158.93 C 213.25 160.10 213.11 162.26 214.95 161.94 C 218.04 160.86 219.98 157.81 222.20 155.54 C 223.59 155.69 224.98 155.84 226.38 155.99 C 225.25 151.59 223.79 146.97 220.16 143.96 C 215.97 147.78 213.68 153.32 213.28 158.93 M 136.00 146.87 C 135.14 149.93 135.52 153.23 137.09 156.01 C 137.66 156.84 138.14 158.44 139.40 157.56 C 139.97 155.90 140.32 154.18 140.72 152.48 C 141.33 151.79 141.95 151.11 142.57 150.42 C 140.42 149.17 138.26 147.93 136.00 146.87 M 157.57 159.17 C 157.72 161.36 156.55 165.59 159.68 165.99 C 162.19 164.17 163.64 161.34 165.21 158.75 C 166.50 158.70 167.80 158.65 169.10 158.60 C 167.47 155.17 165.76 151.59 162.75 149.14 C 158.64 150.03 158.09 155.64 157.57 159.17 M 123.73 154.07 C 126.34 155.12 129.02 156.10 131.88 156.13 C 129.90 153.83 126.54 152.41 123.73 154.07 M 145.69 166.27 C 146.29 164.24 146.84 162.19 147.33 160.13 C 148.22 159.50 149.11 158.88 150.00 158.25 C 148.06 156.25 145.95 154.41 143.68 152.80 C 141.49 157.24 142.85 162.47 145.69 166.27 M 232.67 156.47 C 231.85 157.44 232.55 158.28 233.53 158.66 C 235.49 157.54 236.72 155.62 237.68 153.63 C 235.90 154.26 233.57 154.56 232.67 156.47 M 200.26 172.03 C 200.18 173.36 199.86 176.05 201.90 175.97 C 205.13 174.47 207.29 171.46 209.82 169.06 C 210.70 169.27 212.47 169.70 213.35 169.92 C 212.81 165.30 210.73 161.06 207.85 157.47 C 202.99 160.62 200.89 166.52 200.26 172.03 M 183.03 165.99 C 181.47 170.32 179.57 175.29 181.75 179.75 C 185.59 177.94 188.53 174.84 191.14 171.57 C 192.68 171.80 194.22 172.02 195.76 172.25 C 194.78 167.15 192.95 161.95 189.11 158.28 C 186.40 160.24 184.16 162.81 183.03 165.99 M 164.76 177.92 C 167.92 176.09 170.18 173.21 172.24 170.27 C 173.58 170.24 174.93 170.21 176.28 170.17 C 174.57 166.15 172.75 161.95 169.15 159.25 C 164.61 164.11 162.50 171.56 164.76 177.92 M 152.35 175.74 C 153.70 173.75 153.93 171.33 154.36 169.03 C 155.16 168.95 156.77 168.78 157.57 168.70 C 155.58 165.36 152.97 162.46 149.82 160.20 C 147.54 165.39 150.15 170.98 152.35 175.74 M 132.66 165.17 C 135.14 166.54 137.93 168.57 140.85 167.10 C 138.44 165.38 135.59 164.54 132.66 165.17 M 220.04 169.17 C 223.03 170.42 226.46 169.05 227.65 166.02 C 224.80 166.19 221.65 166.40 220.04 169.17 M 145.90 177.20 C 148.50 178.36 151.28 179.86 154.21 178.98 C 151.73 177.36 148.84 176.49 145.90 177.20 M 207.24 179.62 C 210.08 181.75 212.84 178.47 214.24 176.20 C 211.84 176.57 207.45 176.31 207.24 179.62 M 164.39 180.08 C 164.25 180.84 163.96 182.37 163.82 183.13 C 168.99 184.32 174.37 185.26 178.96 188.08 C 181.08 189.12 183.43 191.34 185.85 189.73 C 191.14 187.17 196.66 185.15 202.24 183.29 C 204.32 182.92 204.70 179.09 202.04 179.54 C 195.62 179.58 189.93 182.87 184.03 184.88 C 177.69 182.64 171.41 178.62 164.39 180.08 M 181.23 194.05 C 181.38 211.02 181.21 227.99 181.16 244.96 C 181.04 261.28 181.42 277.61 180.92 293.92 C 181.01 302.62 180.64 311.33 181.26 320.02 C 182.47 320.30 183.66 320.72 184.91 320.76 C 187.53 320.48 188.98 317.25 187.96 314.96 C 186.89 312.02 184.84 309.28 185.17 305.99 C 185.12 302.26 188.33 299.81 191.17 298.01 C 187.94 294.07 184.64 289.50 185.05 284.12 C 184.66 278.83 188.51 274.68 192.31 271.57 C 188.93 268.36 184.90 264.97 184.56 259.96 C 183.94 254.29 188.20 249.68 192.37 246.47 C 189.51 242.75 186.45 238.82 185.90 234.00 C 185.11 229.04 187.51 224.25 190.86 220.74 C 184.54 213.54 186.60 203.33 188.29 194.81 C 187.74 191.17 183.18 191.83 181.23 194.05 Z" />
<path fill="#fcfefc" opacity="1.00" d=" M 223.70 80.61 C 231.35 73.15 239.48 65.57 249.69 61.83 C 246.82 73.32 234.53 79.15 223.70 80.61 Z" />
<path fill="#fcfefc" opacity="1.00" d=" M 114.34 64.92 C 125.43 65.15 134.69 73.11 139.60 82.57 C 129.06 80.84 119.70 74.11 114.34 64.92 Z" />
</g>
</svg>
