<?xml version="1.0" encoding="UTF-8" ?>
<!DOCTYPE svg PUBLIC "-//W3C//DTD SVG 1.1//EN" "http://www.w3.org/Graphics/SVG/1.1/DTD/svg11.dtd">
<svg width="64pt" height="64pt" viewBox="0 0 64 64" version="1.1" xmlns="http://www.w3.org/2000/svg">
<g id="#414042ff">
<path fill="#414042" opacity="1.00" d=" M 14.41 5.60 C 22.26 3.14 31.32 9.67 30.86 18.00 C 31.42 26.03 22.88 32.80 15.18 30.73 C 8.26 29.43 3.69 21.91 5.38 15.12 C 6.33 10.63 10.04 6.88 14.41 5.60 Z" />
<path fill="#414042" opacity="1.00" d=" M 42.44 5.61 C 50.27 3.14 59.36 9.66 58.88 17.99 C 59.48 26.02 50.92 32.80 43.23 30.74 C 36.38 29.44 31.76 22.05 33.38 15.29 C 34.27 10.73 38.00 6.89 42.44 5.61 Z" />
<path fill="#414042" opacity="1.00" d=" M 13.36 33.52 C 21.11 30.13 30.95 36.50 30.85 44.98 C 31.62 52.13 25.19 58.80 18.08 58.60 C 11.32 58.86 4.91 52.88 5.15 46.04 C 4.73 40.64 8.32 35.36 13.36 33.52 Z" />
<path fill="#414042" opacity="1.00" d=" M 41.35 33.54 C 49.10 30.11 59.01 36.47 58.87 44.99 C 59.66 52.16 53.18 58.83 46.06 58.60 C 39.29 58.84 32.95 52.82 33.16 45.98 C 32.79 40.62 36.35 35.39 41.35 33.54 Z" />
</g>
</svg>
