<?xml version="1.0" encoding="UTF-8" ?>
<!DOCTYPE svg PUBLIC "-//W3C//DTD SVG 1.1//EN" "http://www.w3.org/Graphics/SVG/1.1/DTD/svg11.dtd">
<svg width="96pt" height="96pt" viewBox="0 0 96 96" version="1.1" xmlns="http://www.w3.org/2000/svg">
<g id="#808e8eff">
<path fill="#808e8e" opacity="1.00" d=" M 36.54 1.84 C 47.23 -0.99 58.85 0.39 68.77 5.20 C 81.42 11.28 91.13 23.23 94.31 36.92 C 97.62 49.68 94.87 63.70 87.57 74.60 C 80.92 84.41 70.60 91.78 58.99 94.38 C 43.48 98.36 26.14 93.42 14.83 82.15 C 8.33 75.93 3.69 67.78 1.68 59.01 C -1.34 47.24 0.82 34.38 6.95 23.94 C 13.34 13.03 24.23 4.81 36.54 1.84 M 32.69 22.85 C 32.55 39.07 32.71 55.29 32.61 71.52 C 39.07 71.70 45.55 71.57 52.01 71.60 C 56.38 71.66 60.92 71.06 64.71 68.75 C 72.62 64.08 72.58 49.61 63.07 46.76 C 69.71 43.81 71.29 34.53 67.08 28.97 C 64.56 25.61 60.41 23.96 56.36 23.44 C 48.52 22.37 40.58 23.00 32.69 22.85 Z" />
<path fill="#808e8e" opacity="1.00" d=" M 44.41 32.25 C 47.71 31.57 51.12 31.93 54.39 32.58 C 58.36 33.85 58.82 40.27 55.31 42.28 C 51.91 43.80 48.10 43.17 44.50 43.28 C 44.42 39.61 44.47 35.93 44.41 32.25 Z" />
<path fill="#808e8e" opacity="1.00" d=" M 44.52 50.83 C 48.41 51.07 52.54 50.12 56.22 51.74 C 59.79 54.08 59.55 60.81 55.18 62.13 C 51.68 62.98 48.02 62.42 44.45 62.56 C 44.45 58.65 44.40 54.74 44.52 50.83 Z" />
</g>
<g id="#ffffffff">
<path fill="#ffffff" opacity="1.00" d=" M 32.69 22.85 C 40.58 23.00 48.52 22.37 56.36 23.44 C 60.41 23.96 64.56 25.61 67.08 28.97 C 71.29 34.53 69.71 43.81 63.07 46.76 C 72.58 49.61 72.62 64.08 64.71 68.75 C 60.92 71.06 56.38 71.66 52.01 71.60 C 45.55 71.57 39.07 71.70 32.61 71.52 C 32.71 55.29 32.55 39.07 32.69 22.85 M 44.41 32.25 C 44.47 35.93 44.42 39.61 44.50 43.28 C 48.10 43.17 51.91 43.80 55.31 42.28 C 58.82 40.27 58.36 33.85 54.39 32.58 C 51.12 31.93 47.71 31.57 44.41 32.25 M 44.52 50.83 C 44.40 54.74 44.45 58.65 44.45 62.56 C 48.02 62.42 51.68 62.98 55.18 62.13 C 59.55 60.81 59.79 54.08 56.22 51.74 C 52.54 50.12 48.41 51.07 44.52 50.83 Z" />
</g>
</svg>
