<?xml version="1.0" encoding="UTF-8" ?>
<!DOCTYPE svg PUBLIC "-//W3C//DTD SVG 1.1//EN" "http://www.w3.org/Graphics/SVG/1.1/DTD/svg11.dtd">
<svg width="100pt" height="100pt" viewBox="0 0 100 100" version="1.1" xmlns="http://www.w3.org/2000/svg">
<g id="#ffffffff">
<path fill="#ffffff" opacity="1.00" d=" M 0.00 0.00 L 47.71 0.00 C 35.39 0.64 23.33 5.87 14.65 14.67 C 5.91 23.32 0.68 35.28 0.00 47.54 L 0.00 0.00 Z" />
<path fill="#ffffff" opacity="1.00" d=" M 53.05 0.00 L 100.00 0.00 L 100.00 47.72 C 99.43 37.05 95.51 26.55 88.66 18.31 C 80.03 7.56 66.74 1.00 53.05 0.00 Z" />
<path fill="#ffffff" opacity="1.00" d=" M 42.45 7.66 C 54.65 5.44 67.72 8.84 77.26 16.75 C 86.32 24.11 92.16 35.31 92.89 46.97 C 93.73 58.05 90.03 69.37 82.79 77.80 C 74.81 87.38 62.45 93.06 49.99 92.99 C 37.05 93.06 24.25 86.90 16.29 76.69 C 6.95 65.15 4.43 48.63 9.77 34.80 C 14.91 20.84 27.80 10.17 42.45 7.66 M 42.46 9.72 C 23.58 12.91 8.64 30.84 9.01 50.00 C 8.94 61.92 14.45 73.73 23.63 81.34 C 32.21 88.70 43.98 92.10 55.18 90.64 C 65.05 89.44 74.34 84.42 80.87 76.94 C 87.81 69.06 91.53 58.42 90.94 47.93 C 90.42 36.22 84.51 24.90 75.23 17.74 C 66.15 10.50 53.86 7.56 42.46 9.72 Z" />
<path fill="#ffffff" opacity="1.00" d=" M 31.96 26.58 C 39.30 26.63 46.64 26.51 53.98 26.62 C 58.18 26.96 63.03 27.53 65.86 31.06 C 70.19 36.29 69.16 46.37 61.85 48.37 C 65.29 49.38 68.71 51.50 69.87 55.08 C 71.64 60.20 70.31 66.62 66.07 70.17 C 63.23 72.31 59.58 73.03 56.09 72.99 C 48.06 73.02 40.03 72.99 31.99 73.00 C 32.00 71.83 32.01 70.67 32.02 69.51 C 34.08 69.35 37.35 68.83 37.17 66.08 C 37.13 55.05 37.30 44.01 37.09 32.98 C 36.66 30.54 34.03 30.66 32.10 30.41 C 32.05 29.13 32.00 27.85 31.96 26.58 M 48.03 34.91 C 47.92 38.83 48.04 42.75 48.02 46.68 C 49.21 46.63 50.39 46.54 51.56 46.39 C 58.78 44.92 58.28 32.34 51.24 30.96 C 49.15 31.01 48.08 33.05 48.03 34.91 M 48.01 50.79 C 48.08 55.74 47.84 60.70 48.09 65.64 C 48.56 70.18 54.45 68.93 56.78 66.66 C 59.98 62.97 59.44 57.14 56.74 53.32 C 54.72 50.59 51.04 50.75 48.01 50.79 Z" />
<path fill="#ffffff" opacity="1.00" d=" M 0.00 52.65 C 0.73 64.15 5.34 75.40 13.20 83.85 C 21.82 93.32 34.17 99.08 46.91 100.00 L 0.00 100.00 L 0.00 52.65 Z" />
<path fill="#ffffff" opacity="1.00" d=" M 83.34 87.26 C 93.13 78.63 99.05 66.04 100.00 53.07 L 100.00 100.00 L 52.81 100.00 C 64.02 99.24 74.99 94.82 83.34 87.26 Z" />
</g>
<g id="#010101ff">
<path fill="#010101" opacity="1.00" d=" M 47.71 0.00 L 53.05 0.00 C 66.74 1.00 80.03 7.56 88.66 18.31 C 95.51 26.55 99.43 37.05 100.00 47.72 L 100.00 53.07 C 99.05 66.04 93.13 78.63 83.34 87.26 C 74.99 94.82 64.02 99.24 52.81 100.00 L 46.91 100.00 C 34.17 99.08 21.82 93.32 13.20 83.85 C 5.34 75.40 0.73 64.15 0.00 52.65 L 0.00 47.54 C 0.68 35.28 5.91 23.32 14.65 14.67 C 23.33 5.87 35.39 0.64 47.71 0.00 M 42.45 7.66 C 27.80 10.17 14.91 20.84 9.77 34.80 C 4.43 48.63 6.95 65.15 16.29 76.69 C 24.25 86.90 37.05 93.06 49.99 92.99 C 62.45 93.06 74.81 87.38 82.79 77.80 C 90.03 69.37 93.73 58.05 92.89 46.97 C 92.16 35.31 86.32 24.11 77.26 16.75 C 67.72 8.84 54.65 5.44 42.45 7.66 Z" />
<path fill="#010101" opacity="1.00" d=" M 42.46 9.72 C 53.86 7.56 66.15 10.50 75.23 17.74 C 84.51 24.90 90.42 36.22 90.94 47.93 C 91.53 58.42 87.81 69.06 80.87 76.94 C 74.34 84.42 65.05 89.44 55.18 90.64 C 43.98 92.10 32.21 88.70 23.63 81.34 C 14.45 73.73 8.94 61.92 9.01 50.00 C 8.64 30.84 23.58 12.91 42.46 9.72 M 31.96 26.58 C 32.00 27.85 32.05 29.13 32.10 30.41 C 34.03 30.66 36.66 30.54 37.09 32.98 C 37.30 44.01 37.13 55.05 37.17 66.08 C 37.35 68.83 34.08 69.35 32.02 69.51 C 32.01 70.67 32.00 71.83 31.99 73.00 C 40.03 72.99 48.06 73.02 56.09 72.99 C 59.58 73.03 63.23 72.31 66.07 70.17 C 70.31 66.62 71.64 60.20 69.87 55.08 C 68.71 51.50 65.29 49.38 61.85 48.37 C 69.16 46.37 70.19 36.29 65.86 31.06 C 63.03 27.53 58.18 26.96 53.98 26.62 C 46.64 26.51 39.30 26.63 31.96 26.58 Z" />
<path fill="#010101" opacity="1.00" d=" M 48.03 34.91 C 48.08 33.05 49.15 31.01 51.24 30.96 C 58.28 32.34 58.78 44.92 51.56 46.39 C 50.39 46.54 49.21 46.63 48.02 46.68 C 48.04 42.75 47.92 38.83 48.03 34.91 Z" />
<path fill="#010101" opacity="1.00" d=" M 48.01 50.79 C 51.04 50.75 54.72 50.59 56.74 53.32 C 59.44 57.14 59.98 62.97 56.78 66.66 C 54.45 68.93 48.56 70.18 48.09 65.64 C 47.84 60.70 48.08 55.74 48.01 50.79 Z" />
</g>
</svg>
