<?xml version="1.0" encoding="UTF-8" ?>
<!DOCTYPE svg PUBLIC "-//W3C//DTD SVG 1.1//EN" "http://www.w3.org/Graphics/SVG/1.1/DTD/svg11.dtd">
<svg width="180pt" height="180pt" viewBox="0 0 180 180" version="1.1" xmlns="http://www.w3.org/2000/svg">
<g id="#ffffffff">
<path fill="#ffffff" opacity="1.00" d=" M 0.00 0.00 L 180.00 0.00 L 180.00 180.00 L 0.00 180.00 L 0.00 0.00 M 84.83 15.60 C 61.03 26.49 37.23 37.39 13.43 48.27 C 13.08 49.83 13.27 51.44 13.26 53.03 C 13.85 79.67 13.73 106.33 13.79 132.98 C 13.55 134.58 15.49 135.10 16.58 135.69 C 39.59 145.66 62.60 155.65 85.59 165.68 C 87.35 166.34 89.03 167.59 90.98 167.47 C 116.14 156.24 141.65 145.77 166.69 134.32 C 166.92 116.55 166.66 98.78 166.83 81.00 C 167.57 70.15 167.22 59.26 167.54 48.38 C 141.93 36.60 116.19 25.08 90.68 13.10 C 88.62 13.67 86.75 14.71 84.83 15.60 Z" />
<path fill="#ffffff" opacity="1.00" d=" M 21.06 48.14 C 44.19 38.64 66.97 28.23 89.99 18.44 C 92.21 18.64 94.09 20.04 96.15 20.79 C 117.32 29.86 138.33 39.32 159.58 48.18 C 136.60 58.61 113.31 68.44 90.11 78.42 C 67.21 68.09 43.89 58.64 21.06 48.14 Z" />
<path fill="#ffffff" opacity="1.00" d=" M 88.79 83.75 C 90.50 82.71 92.75 83.68 92.32 85.89 C 92.29 110.63 92.31 135.37 92.31 160.10 C 92.39 161.41 91.96 162.55 91.04 163.51 C 90.46 163.20 89.31 162.59 88.73 162.28 C 88.70 136.11 88.60 109.92 88.79 83.75 Z" />
</g>
<g id="#000000ff">
<path fill="#000000" opacity="1.00" d=" M 84.83 15.60 C 86.75 14.71 88.62 13.67 90.68 13.10 C 116.19 25.08 141.93 36.60 167.54 48.38 C 167.22 59.26 167.57 70.15 166.83 81.00 C 166.66 98.78 166.92 116.55 166.69 134.32 C 141.65 145.77 116.14 156.24 90.98 167.47 C 89.03 167.59 87.35 166.34 85.59 165.68 C 62.60 155.65 39.59 145.66 16.58 135.69 C 15.49 135.10 13.55 134.58 13.79 132.98 C 13.73 106.33 13.85 79.67 13.26 53.03 C 13.27 51.44 13.08 49.83 13.43 48.27 C 37.23 37.39 61.03 26.49 84.83 15.60 M 21.06 48.14 C 43.89 58.64 67.21 68.09 90.11 78.42 C 113.31 68.44 136.60 58.61 159.58 48.18 C 138.33 39.32 117.32 29.86 96.15 20.79 C 94.09 20.04 92.21 18.64 89.99 18.44 C 66.97 28.23 44.19 38.64 21.06 48.14 M 88.79 83.75 C 88.60 109.92 88.70 136.11 88.73 162.28 C 89.31 162.59 90.46 163.20 91.04 163.51 C 91.96 162.55 92.39 161.41 92.31 160.10 C 92.31 135.37 92.29 110.63 92.32 85.89 C 92.75 83.68 90.50 82.71 88.79 83.75 Z" />
</g>
</svg>
