<?xml version="1.0" encoding="UTF-8" ?>
<!DOCTYPE svg PUBLIC "-//W3C//DTD SVG 1.1//EN" "http://www.w3.org/Graphics/SVG/1.1/DTD/svg11.dtd">
<svg width="32pt" height="32pt" viewBox="0 0 32 32" version="1.1" xmlns="http://www.w3.org/2000/svg">
<g id="#040404fc">
<path fill="#040404" opacity="1.00" d=" M 6.69 4.56 C 11.74 4.69 16.92 3.94 21.88 5.16 C 24.52 5.64 26.14 8.44 25.44 11.00 C 25.11 13.19 22.80 13.97 21.20 15.07 C 22.85 15.96 25.03 16.32 26.02 18.06 C 27.41 20.67 26.59 24.56 23.67 25.73 C 18.26 27.81 12.33 26.49 6.70 26.95 C 7.26 26.63 8.38 25.98 8.94 25.65 C 9.53 18.99 8.99 12.28 9.17 5.60 C 8.34 5.26 7.52 4.91 6.69 4.56 M 15.59 4.51 C 15.65 7.95 14.59 12.15 16.16 15.09 C 16.50 15.04 17.20 14.94 17.55 14.89 C 20.45 12.14 20.18 5.46 15.59 4.51 M 15.02 16.41 C 15.76 19.63 14.71 23.38 15.93 26.32 C 17.94 26.52 20.01 25.20 19.98 23.04 C 20.54 20.15 20.28 15.00 16.02 15.87 C 15.77 16.00 15.27 16.27 15.02 16.41 Z" />
</g>
</svg>
