<?xml version="1.0" encoding="UTF-8" ?>
<!DOCTYPE svg PUBLIC "-//W3C//DTD SVG 1.1//EN" "http://www.w3.org/Graphics/SVG/1.1/DTD/svg11.dtd">
<svg width="106pt" height="126pt" viewBox="0 0 106 126" version="1.1" xmlns="http://www.w3.org/2000/svg">
<g id="#ffffffff">
<path fill="#ffffff" opacity="1.00" d=" M 0.00 0.00 L 106.00 0.00 L 106.00 1.40 C 82.69 2.42 59.34 1.79 36.02 1.96 C 24.01 2.05 12.00 1.93 0.00 1.30 L 0.00 0.00 Z" />
<path fill="#ffffff" opacity="1.00" d=" M 42.25 3.20 C 49.85 3.17 57.45 3.17 65.04 3.19 C 65.15 16.90 65.06 30.61 65.09 44.32 C 78.55 44.30 92.01 44.29 105.47 44.28 C 105.73 51.72 105.06 59.21 105.82 66.62 C 92.25 67.04 78.67 66.71 65.09 66.80 C 65.07 84.06 65.13 101.33 65.07 118.59 C 61.29 120.38 57.67 122.52 53.78 124.08 C 49.73 122.69 46.09 120.34 42.22 118.53 C 42.36 101.30 42.25 84.06 42.28 66.82 C 28.85 66.81 15.42 66.81 1.99 66.82 C 2.02 59.30 1.99 51.79 1.99 44.28 C 15.42 44.28 28.85 44.32 42.27 44.30 C 42.27 30.60 42.32 16.90 42.25 3.20 M 46.22 8.00 C 46.51 8.41 47.10 9.22 47.39 9.62 C 46.85 11.86 45.94 13.99 44.60 15.88 C 45.10 15.84 46.10 15.77 46.59 15.73 C 46.83 16.39 47.31 17.70 47.55 18.36 C 47.67 17.69 47.91 16.33 48.02 15.66 C 48.55 15.73 49.60 15.87 50.13 15.93 C 47.83 13.50 47.54 10.17 47.94 7.00 C 47.51 7.25 46.65 7.75 46.22 8.00 M 59.44 7.61 C 59.97 10.59 59.32 13.57 57.24 15.82 C 57.75 15.80 58.77 15.76 59.27 15.74 C 59.57 16.57 59.88 17.40 60.19 18.22 C 60.30 17.60 60.52 16.36 60.63 15.74 C 61.19 15.76 62.30 15.80 62.86 15.82 C 60.63 13.46 59.97 10.16 60.78 7.05 C 60.45 7.19 59.77 7.47 59.44 7.61 M 53.10 17.96 C 53.48 21.14 53.23 24.50 50.88 26.90 C 51.44 26.86 52.54 26.78 53.10 26.73 C 53.12 27.41 53.18 28.75 53.21 29.42 C 53.86 28.20 54.48 26.87 55.99 26.57 C 54.95 24.72 54.19 22.75 53.71 20.68 C 53.97 20.28 54.50 19.46 54.77 19.06 C 54.35 18.78 53.52 18.24 53.10 17.96 M 46.18 30.06 C 46.50 30.44 47.13 31.19 47.45 31.57 C 46.85 33.83 45.93 35.97 44.61 37.90 C 45.11 37.86 46.10 37.77 46.60 37.73 C 46.83 38.38 47.29 39.68 47.52 40.34 C 47.65 39.67 47.91 38.33 48.03 37.66 C 48.56 37.73 49.62 37.86 50.15 37.92 C 47.79 35.53 47.58 32.17 47.97 29.01 C 47.52 29.27 46.63 29.80 46.18 30.06 M 59.43 29.63 C 59.93 32.56 59.41 35.55 57.25 37.73 C 57.79 37.74 58.86 37.75 59.39 37.76 C 59.54 38.42 59.84 39.73 59.98 40.38 C 60.17 39.72 60.55 38.41 60.73 37.75 C 61.27 37.76 62.33 37.79 62.86 37.80 C 60.58 35.45 60.03 32.14 60.75 29.02 C 60.42 29.17 59.76 29.48 59.43 29.63 M 44.30 46.34 C 43.50 46.32 41.90 46.29 41.09 46.28 C 41.02 52.36 40.97 58.45 41.12 64.53 C 41.97 64.52 43.66 64.49 44.50 64.47 C 44.52 66.82 44.52 69.16 44.52 71.51 C 45.87 71.51 47.23 71.51 48.58 71.51 C 48.59 69.20 48.59 66.88 48.61 64.57 C 52.00 64.56 55.40 64.56 58.80 64.56 C 58.81 66.87 58.81 69.18 58.80 71.50 C 60.14 71.51 61.49 71.53 62.83 71.55 C 62.87 69.24 62.88 66.93 62.90 64.61 C 64.04 64.56 65.18 64.51 66.32 64.46 C 66.23 58.43 66.38 52.40 66.23 46.37 C 64.08 46.46 62.01 46.06 60.13 44.99 C 58.30 46.83 55.90 46.28 53.84 45.21 C 51.48 46.16 48.84 46.95 46.78 44.89 C 45.95 45.37 45.12 45.85 44.30 46.34 M 6.97 46.80 C 8.31 49.47 7.29 52.64 5.37 54.74 C 6.89 54.86 7.70 55.67 7.81 57.19 C 8.32 55.93 9.08 54.91 10.53 54.73 C 8.69 52.61 7.51 49.47 8.97 46.83 C 8.30 46.82 7.63 46.81 6.97 46.80 M 20.36 47.23 C 22.15 49.83 20.06 52.99 18.52 55.21 C 19.05 55.16 20.12 55.04 20.66 54.98 C 20.89 55.96 21.13 56.93 21.36 57.91 C 21.67 56.34 21.89 54.58 23.95 54.83 C 21.56 52.63 21.60 49.30 21.99 46.32 C 21.45 46.62 20.90 46.93 20.36 47.23 M 34.03 46.38 C 34.37 49.40 34.35 52.67 32.00 54.93 C 32.48 54.97 33.46 55.04 33.95 55.07 C 34.06 55.82 34.29 57.32 34.41 58.06 C 34.56 57.37 34.87 55.97 35.03 55.27 C 35.64 55.24 36.86 55.17 37.48 55.14 C 35.87 53.32 35.15 51.02 34.65 48.70 C 34.93 48.31 35.50 47.53 35.79 47.14 C 35.35 46.95 34.47 46.57 34.03 46.38 M 71.81 46.76 C 72.98 49.46 72.32 52.71 70.16 54.70 C 72.16 54.71 72.52 56.27 72.67 57.94 C 72.93 56.95 73.19 55.96 73.45 54.98 C 73.99 55.05 75.07 55.18 75.60 55.24 C 74.10 53.35 73.29 51.09 72.82 48.74 C 73.11 48.28 73.68 47.36 73.97 46.90 C 73.25 46.85 72.53 46.81 71.81 46.76 M 85.13 46.81 C 86.56 49.44 85.52 52.69 83.52 54.71 C 84.03 54.83 85.07 55.08 85.58 55.21 C 85.66 55.73 85.81 56.78 85.89 57.30 C 86.48 56.04 87.23 54.91 88.72 54.69 C 86.77 52.62 85.80 49.43 87.14 46.78 C 86.47 46.79 85.80 46.80 85.13 46.81 M 98.93 46.26 C 99.00 49.43 99.21 52.78 96.74 55.23 C 97.30 55.17 98.40 55.05 98.96 55.00 C 99.00 55.57 99.09 56.73 99.14 57.31 L 99.80 57.34 C 99.87 56.75 100.00 55.57 100.07 54.98 C 100.61 55.05 101.71 55.18 102.26 55.24 C 100.70 53.31 99.89 50.98 99.48 48.56 C 99.76 48.21 100.34 47.51 100.63 47.16 C 100.20 46.94 99.36 46.48 98.93 46.26 M 14.07 54.03 C 14.40 57.23 14.19 60.60 11.81 63.02 C 12.36 62.96 13.46 62.83 14.01 62.77 C 14.06 63.42 14.15 64.74 14.19 65.40 C 14.84 64.06 15.51 62.70 17.23 62.63 C 15.85 60.87 15.11 58.77 14.60 56.62 C 14.88 56.25 15.45 55.49 15.73 55.12 C 15.32 54.84 14.48 54.30 14.07 54.03 M 27.00 54.66 C 28.48 57.50 27.11 60.71 25.11 62.88 C 25.69 62.87 26.85 62.85 27.43 62.84 C 27.47 63.33 27.54 64.31 27.57 64.79 C 27.77 64.79 28.18 64.79 28.38 64.79 C 28.42 64.30 28.50 63.34 28.54 62.86 C 29.12 62.85 30.27 62.85 30.84 62.84 C 28.91 60.66 27.41 57.44 29.01 54.64 C 28.34 54.74 27.67 54.74 27.00 54.66 M 79.21 56.74 C 79.04 59.07 78.11 61.19 76.68 63.02 C 77.22 62.96 78.30 62.82 78.84 62.75 C 78.96 63.44 79.19 64.82 79.31 65.51 C 79.54 64.81 80.00 63.40 80.23 62.70 C 80.75 62.80 81.78 62.99 82.29 63.09 C 80.76 61.20 79.92 58.94 79.56 56.55 C 79.82 56.17 80.35 55.40 80.61 55.01 C 79.06 53.39 78.07 55.36 79.21 56.74 M 92.29 53.90 C 92.59 57.11 92.46 60.60 89.93 62.94 C 90.48 62.90 91.59 62.82 92.14 62.78 C 92.28 63.45 92.56 64.78 92.70 65.45 C 92.98 64.57 93.26 63.70 93.53 62.82 C 94.05 62.84 95.08 62.87 95.59 62.88 C 94.60 61.41 93.43 59.95 93.28 58.10 C 93.00 56.61 94.29 54.64 92.29 53.90 M 53.04 71.16 C 53.43 74.32 53.27 77.70 50.84 80.05 C 51.37 80.00 52.45 79.91 52.98 79.87 C 53.13 80.55 53.42 81.92 53.57 82.60 C 53.66 80.77 54.60 79.82 56.36 79.75 C 54.78 78.05 54.19 75.81 53.65 73.62 C 53.95 73.24 54.55 72.48 54.84 72.10 C 54.39 71.87 53.49 71.40 53.04 71.16 M 46.28 83.08 C 46.52 83.54 46.99 84.48 47.23 84.94 C 46.89 87.29 46.08 89.52 44.58 91.38 C 45.14 91.36 46.27 91.33 46.83 91.32 C 47.03 92.05 47.41 93.52 47.60 94.25 C 47.70 93.48 47.90 91.93 48.00 91.16 C 48.52 91.24 49.57 91.40 50.09 91.48 C 48.15 89.01 47.03 85.78 48.20 82.69 C 47.72 82.79 46.76 82.98 46.28 83.08 M 59.17 82.91 C 60.42 85.88 59.21 89.08 57.22 91.39 C 57.76 91.35 58.83 91.27 59.37 91.23 C 59.61 92.15 59.85 93.06 60.11 93.98 C 60.25 93.28 60.53 91.87 60.66 91.16 C 61.22 91.23 62.33 91.38 62.88 91.45 C 60.90 89.09 59.77 85.91 60.86 82.87 C 60.43 82.88 59.59 82.90 59.17 82.91 M 53.11 93.78 C 53.54 97.01 53.14 100.37 50.95 102.93 C 51.45 102.85 52.45 102.69 52.96 102.61 C 53.14 103.30 53.50 104.68 53.68 105.37 C 53.60 103.22 54.51 102.35 56.40 102.76 C 55.04 101.02 54.17 99.01 53.89 96.82 C 54.60 95.56 54.71 94.37 53.11 93.78 M 46.53 106.11 C 47.43 109.02 46.70 112.14 44.57 114.33 C 46.73 113.91 47.41 115.31 47.50 117.28 C 47.65 116.52 47.95 114.98 48.10 114.21 C 48.60 114.31 49.62 114.50 50.12 114.60 C 48.13 112.10 47.01 108.82 48.13 105.67 C 47.73 105.78 46.93 106.00 46.53 106.11 M 59.25 105.91 C 60.24 108.96 59.32 112.20 57.21 114.53 C 57.75 114.46 58.81 114.34 59.35 114.27 C 59.52 114.98 59.85 116.40 60.02 117.11 C 60.20 116.39 60.54 114.97 60.71 114.26 C 61.25 114.33 62.32 114.46 62.86 114.53 C 60.82 112.13 59.86 108.94 60.80 105.85 C 60.41 105.87 59.64 105.90 59.25 105.91 Z" />
<path fill="#ffffff" opacity="1.00" d=" M 0.00 69.23 L 0.76 67.63 C 0.47 75.51 1.08 83.62 4.08 90.99 C 7.49 99.30 14.79 105.20 22.31 109.67 C 32.26 115.85 43.40 119.88 53.36 126.00 L 0.00 126.00 L 0.00 69.23 Z" />
<path fill="#ffffff" opacity="1.00" d=" M 94.73 102.74 C 101.05 97.42 104.66 89.58 106.00 81.54 L 106.00 126.00 L 54.53 126.00 C 55.35 125.22 56.25 124.55 57.23 123.99 C 69.92 117.31 83.69 112.15 94.73 102.74 Z" />
</g>
<g id="#33251aff">
<path fill="#33251a" opacity="1.00" d=" M 0.00 1.30 C 12.00 1.93 24.01 2.05 36.02 1.96 C 59.34 1.79 82.69 2.42 106.00 1.40 L 106.00 3.01 C 92.35 2.99 78.70 3.36 65.04 3.19 C 57.45 3.17 49.85 3.17 42.25 3.20 C 28.65 3.33 15.05 3.05 1.45 2.99 C 2.50 16.72 1.80 30.51 1.99 44.28 C 1.99 51.79 2.02 59.30 1.99 66.82 C 1.75 78.20 2.89 90.98 11.28 99.54 C 19.97 108.18 31.43 113.12 42.22 118.53 C 46.09 120.34 49.73 122.69 53.78 124.08 C 57.67 122.52 61.29 120.38 65.07 118.59 C 73.52 114.37 82.16 110.37 89.89 104.88 C 91.70 103.49 93.66 102.14 94.83 100.12 C 93.41 100.37 91.97 100.57 90.56 100.89 C 89.99 99.03 89.42 97.18 88.85 95.32 L 90.16 95.54 L 90.73 95.64 L 90.90 95.17 L 90.40 95.04 C 91.06 94.01 92.06 93.39 93.41 93.18 C 92.23 92.47 91.05 91.74 89.88 91.02 C 88.80 94.30 86.29 97.67 88.05 101.18 C 85.26 103.69 82.61 106.37 79.59 108.62 C 77.38 109.79 74.86 110.19 72.51 110.99 C 72.57 107.99 73.32 104.83 75.42 102.59 C 77.47 101.83 79.82 101.87 81.70 100.71 C 82.80 98.84 81.78 96.41 81.94 94.34 C 79.35 97.01 76.67 99.58 73.97 102.13 C 73.44 101.79 72.38 101.10 71.85 100.76 C 70.83 101.14 69.81 101.53 68.79 101.92 C 69.25 99.32 69.62 96.70 69.61 94.05 C 69.98 94.02 70.73 93.95 71.11 93.92 C 70.76 95.44 72.36 96.97 73.84 96.24 C 73.54 95.67 72.95 94.53 72.66 93.97 C 74.16 93.97 76.61 95.26 76.65 92.82 C 76.92 91.63 75.99 90.66 75.03 90.15 C 73.64 90.59 72.31 91.19 70.97 91.75 C 69.52 84.87 68.08 77.64 70.39 70.77 C 72.82 72.28 74.27 74.66 74.83 77.43 C 74.90 76.63 75.02 75.04 75.09 74.25 C 76.99 72.50 79.11 71.00 81.48 69.95 C 82.64 70.55 83.80 71.13 84.98 71.70 C 85.80 73.12 86.69 74.52 87.26 76.06 C 86.61 78.26 84.34 80.28 85.30 82.69 C 87.57 84.64 90.92 84.34 93.58 85.52 C 93.74 85.61 94.08 85.80 94.25 85.89 C 89.13 85.09 84.38 86.86 79.74 88.73 C 79.20 88.15 78.13 87.00 77.60 86.43 C 77.50 89.00 78.43 91.86 77.23 94.26 C 75.02 96.42 71.74 97.10 69.52 99.32 C 71.19 99.42 72.86 99.51 74.53 99.59 C 76.56 97.44 78.67 95.37 80.87 93.39 C 80.91 92.37 80.95 91.35 81.00 90.33 C 83.83 89.65 86.67 89.01 89.54 88.55 C 90.98 90.36 92.92 91.61 94.98 92.61 C 93.36 94.85 91.32 96.93 90.81 99.76 C 91.73 98.92 92.64 98.06 93.53 97.19 C 93.82 97.37 94.39 97.73 94.68 97.91 C 95.32 95.65 96.28 93.50 97.56 91.53 C 95.59 90.44 93.90 88.95 92.38 87.30 C 95.04 87.12 99.71 89.62 100.91 85.93 C 101.54 83.27 98.48 82.07 96.79 80.75 C 94.27 80.12 90.46 80.24 89.97 76.94 C 90.24 75.52 91.75 74.95 92.74 74.10 C 95.15 75.50 97.67 76.89 100.53 76.97 C 99.12 76.20 97.70 75.48 96.27 74.77 C 96.43 74.37 96.75 73.56 96.91 73.16 C 93.98 72.56 89.98 72.59 89.07 76.14 C 87.99 79.66 91.86 81.36 94.42 82.55 C 96.34 83.71 99.78 84.15 99.42 87.09 C 97.95 87.28 96.55 87.11 95.21 86.58 L 94.90 86.11 C 95.54 85.91 96.81 85.49 97.45 85.29 C 94.82 84.07 91.93 83.25 89.64 81.40 C 86.57 78.64 87.93 72.81 91.99 71.82 C 94.66 71.38 97.30 72.37 99.89 72.89 C 100.97 72.59 102.05 72.30 103.13 72.01 C 103.13 73.98 103.47 76.38 101.23 77.26 C 97.68 80.13 93.93 74.27 90.36 76.94 C 94.36 79.34 101.04 79.58 102.22 85.00 C 102.78 88.73 98.74 89.77 95.86 89.41 C 97.10 89.83 98.34 90.27 99.58 90.71 C 98.52 93.42 96.67 95.88 96.20 98.79 C 99.78 96.32 101.50 91.90 102.97 87.93 C 105.45 81.08 104.77 73.71 105.82 66.62 L 106.00 67.71 L 106.00 81.54 C 104.66 89.58 101.05 97.42 94.73 102.74 C 83.69 112.15 69.92 117.31 57.23 123.99 C 56.25 124.55 55.35 125.22 54.53 126.00 L 53.36 126.00 C 43.40 119.88 32.26 115.85 22.31 109.67 C 14.79 105.20 7.49 99.30 4.08 90.99 C 1.08 83.62 0.47 75.51 0.76 67.63 C 1.57 60.79 1.02 53.87 1.11 47.00 C 0.59 32.55 1.80 18.01 0.00 3.63 L 0.00 1.30 M 75.76 74.93 C 77.12 77.27 78.68 79.52 79.39 82.19 C 77.84 82.96 78.21 84.42 78.53 85.79 C 79.87 85.70 81.20 85.62 82.53 85.54 C 83.16 85.30 84.43 84.82 85.06 84.57 C 84.30 83.77 83.53 82.96 82.77 82.16 C 83.53 79.84 84.83 77.84 86.40 76.00 C 85.84 75.07 85.25 74.15 84.64 73.24 C 83.25 73.01 81.89 72.62 81.64 71.00 C 80.02 72.76 77.97 74.04 75.76 74.93 M 70.94 72.77 C 71.16 74.37 71.40 75.97 71.68 77.56 L 69.75 77.14 C 71.61 80.25 70.95 83.90 71.50 87.32 C 71.59 88.12 71.57 88.97 71.96 89.70 C 74.24 89.33 77.29 89.28 77.57 86.31 C 76.12 86.31 74.09 87.66 73.27 85.79 C 72.60 83.86 72.66 81.79 72.55 79.78 C 73.73 79.56 74.72 79.02 75.52 78.16 C 74.91 78.45 73.69 79.04 73.08 79.33 C 72.98 76.97 73.54 73.99 70.94 72.77 M 98.86 74.33 C 98.54 75.63 101.95 75.96 101.68 74.56 C 100.98 74.50 99.57 74.39 98.86 74.33 M 75.97 86.18 C 77.11 83.67 77.26 80.91 76.92 78.19 C 74.28 79.74 72.10 84.86 75.97 86.18 M 86.46 90.12 C 85.40 91.82 83.95 93.33 83.29 95.24 C 83.35 96.70 83.89 98.14 83.68 99.60 C 82.79 101.60 80.65 102.55 78.94 103.72 C 77.65 102.91 76.36 103.03 75.21 104.02 C 75.39 104.40 75.73 105.14 75.90 105.52 C 74.57 106.46 73.67 107.76 73.45 109.41 C 75.34 108.93 76.75 107.72 77.52 105.94 C 77.90 106.67 78.29 107.40 78.68 108.13 C 80.47 104.81 83.72 102.81 86.60 100.57 C 84.77 97.14 87.41 94.13 88.85 91.18 C 88.05 90.83 87.26 90.47 86.46 90.12 Z" />
<path fill="#33251a" opacity="1.00" d=" M 16.34 3.89 C 17.09 4.47 17.83 5.05 18.58 5.63 C 19.07 5.70 20.05 5.85 20.53 5.93 C 21.37 6.73 21.37 9.16 22.86 8.91 C 24.23 7.65 25.14 5.71 27.07 5.20 C 29.39 4.56 31.75 5.44 34.01 5.94 C 35.03 5.57 36.04 5.20 37.06 4.83 C 37.37 6.20 38.83 7.55 38.06 8.99 C 37.07 10.23 35.74 11.65 34.01 11.61 C 31.48 11.05 29.19 9.79 26.77 8.89 C 26.86 11.64 30.03 11.96 31.97 12.95 C 35.06 14.18 39.58 15.87 39.08 19.98 C 39.18 22.76 36.21 23.58 33.97 23.60 C 34.29 24.88 34.61 26.16 34.91 27.44 C 35.97 26.93 37.04 26.42 38.09 25.91 C 38.84 30.66 38.42 35.47 38.02 40.23 C 37.13 39.92 36.25 39.60 35.37 39.29 C 34.23 39.80 33.09 40.31 31.95 40.82 C 31.71 39.86 31.48 38.89 31.25 37.92 C 30.75 37.45 29.76 36.50 29.26 36.03 C 30.62 34.43 32.45 33.43 34.34 32.58 C 32.99 30.81 30.74 30.32 28.78 29.53 C 29.23 30.13 30.14 31.34 30.59 31.94 C 29.29 35.48 26.66 38.27 23.97 40.81 C 21.92 39.70 19.32 40.62 17.37 39.57 C 17.83 38.31 18.39 37.08 18.93 35.85 C 18.66 35.34 18.10 34.32 17.83 33.80 C 20.33 32.75 22.82 34.13 25.30 34.53 C 24.73 32.59 23.94 30.71 22.99 28.92 C 23.26 27.88 23.54 26.85 23.82 25.81 C 22.86 26.10 21.90 26.40 20.94 26.70 C 19.08 31.86 13.83 34.82 11.78 39.94 C 9.38 38.60 6.85 39.86 4.52 40.65 C 4.91 38.21 7.53 34.68 4.12 33.24 C 5.78 31.51 8.11 31.95 10.25 32.25 C 12.73 31.86 13.30 28.74 13.01 26.66 C 11.77 27.42 10.61 28.31 9.53 29.28 C 5.81 26.34 4.90 21.38 3.69 17.07 C 2.33 13.28 4.68 9.50 4.06 5.61 C 7.45 7.23 9.03 10.73 10.11 14.13 C 9.92 16.77 7.59 19.81 10.08 22.08 C 12.91 22.42 12.18 18.75 12.66 16.93 C 13.38 14.14 10.50 12.44 9.93 9.96 C 10.43 8.11 12.53 7.17 13.25 5.35 C 13.69 5.51 14.56 5.81 15.00 5.96 C 15.33 5.45 16.00 4.41 16.34 3.89 M 13.43 7.37 C 12.98 8.54 12.13 9.28 10.86 9.60 C 13.80 12.36 15.77 16.99 12.84 20.52 L 14.63 20.51 C 15.06 20.95 15.94 21.85 16.37 22.29 C 16.59 21.74 17.02 20.65 17.23 20.10 C 17.68 20.37 18.56 20.91 19.01 21.18 C 19.04 20.67 19.11 19.64 19.14 19.13 C 19.67 19.26 20.73 19.52 21.27 19.65 C 20.11 18.18 18.81 16.69 19.04 14.67 C 18.16 15.98 17.22 17.27 16.08 18.37 C 16.54 17.21 17.00 16.06 17.47 14.91 C 16.86 15.39 15.63 16.35 15.02 16.83 C 14.96 15.97 14.85 14.27 14.80 13.42 C 16.44 13.79 18.08 14.19 19.74 14.48 C 19.83 13.78 20.02 12.39 20.11 11.69 C 20.67 11.56 21.79 11.30 22.35 11.17 C 21.45 9.76 20.57 8.34 19.73 6.89 C 19.32 7.15 18.49 7.66 18.07 7.91 C 17.82 7.27 17.31 5.98 17.06 5.34 C 16.03 6.35 15.01 7.48 13.43 7.37 M 26.01 6.81 C 23.73 8.21 23.67 11.66 25.52 13.44 C 28.63 16.25 33.11 16.59 36.45 19.02 C 36.76 21.85 33.82 20.84 32.12 20.50 C 32.92 20.31 34.54 19.91 35.34 19.71 C 32.41 18.11 28.99 17.57 26.19 15.72 C 24.64 14.74 24.12 12.41 22.26 11.95 C 21.00 13.57 20.13 16.42 22.26 17.75 C 24.85 19.27 28.06 18.71 30.92 19.22 L 31.78 20.44 C 26.23 18.84 20.92 21.23 16.30 24.11 C 15.30 23.05 14.31 21.99 13.30 20.95 C 13.74 23.07 14.27 25.17 14.99 27.21 C 14.21 29.75 12.86 32.16 10.64 33.69 C 8.87 35.31 5.63 36.19 5.96 39.14 C 7.26 38.37 8.36 36.87 9.81 36.56 C 10.17 37.08 10.88 38.10 11.24 38.62 C 11.79 37.19 12.37 35.78 12.99 34.38 C 14.17 33.23 15.08 31.72 16.62 31.02 C 17.00 29.94 17.70 29.15 18.72 28.66 C 18.67 27.23 18.76 25.81 18.95 24.40 C 19.42 24.49 20.36 24.67 20.84 24.75 C 22.79 24.24 24.75 23.74 26.70 23.19 C 28.44 26.86 31.57 29.26 35.05 31.15 C 35.50 34.08 32.48 36.41 32.44 39.40 C 33.71 38.77 34.62 37.79 35.16 36.48 C 35.65 36.98 36.63 37.97 37.12 38.47 C 36.97 37.08 36.73 35.69 36.43 34.32 C 37.81 33.25 37.00 31.86 36.45 30.57 C 36.74 30.18 37.32 29.41 37.60 29.02 C 36.17 28.35 34.03 28.43 33.41 26.68 C 32.43 24.62 31.31 22.62 29.73 20.96 C 31.96 21.20 34.53 22.69 36.69 21.57 C 38.97 19.70 36.96 15.76 34.18 16.05 C 33.80 15.55 33.02 14.56 32.63 14.07 C 31.88 14.29 31.13 14.52 30.38 14.74 C 29.54 13.91 28.70 13.08 27.85 12.25 C 27.39 12.44 26.45 12.82 25.98 13.01 C 25.66 11.44 25.01 9.72 26.20 8.33 C 29.49 6.54 32.29 10.91 35.72 9.72 C 34.78 9.26 32.89 8.35 31.94 7.90 C 33.57 8.13 35.21 8.27 36.86 8.34 C 36.92 7.73 37.05 6.52 37.11 5.92 C 36.66 6.31 35.75 7.10 35.29 7.50 C 32.35 6.84 28.86 4.90 26.01 6.81 M 5.38 7.84 C 4.94 10.06 5.42 12.23 6.35 14.26 C 5.64 13.90 4.23 13.16 3.52 12.80 C 4.19 14.31 4.92 15.79 5.71 17.24 C 5.61 17.64 5.42 18.43 5.32 18.82 C 5.65 19.20 6.33 19.95 6.67 20.33 C 6.16 22.59 7.67 24.04 9.37 25.24 C 9.07 26.07 8.75 26.91 9.12 27.77 C 10.31 26.94 11.53 26.16 12.78 25.42 C 12.83 24.87 12.93 23.79 12.98 23.25 C 11.60 23.08 9.52 23.86 8.78 22.21 C 7.55 20.09 7.50 17.53 6.97 15.18 L 9.40 15.74 C 8.83 14.89 8.23 14.07 7.59 13.27 C 7.39 11.26 7.01 9.20 5.38 7.84 M 26.20 33.05 C 26.36 35.37 23.51 35.43 21.99 36.15 C 21.94 34.49 21.08 33.71 19.41 33.80 C 19.93 34.64 20.45 35.48 20.97 36.33 C 19.97 37.07 19.19 38.00 18.63 39.11 C 20.52 38.72 22.23 37.83 23.85 36.80 L 23.56 39.29 C 24.77 37.84 26.06 36.47 27.48 35.23 C 27.45 33.99 27.98 33.11 29.07 32.59 C 28.56 31.76 28.05 30.94 27.55 30.11 C 27.88 28.24 27.58 26.47 26.29 25.01 C 23.02 27.26 25.31 30.28 26.20 33.05 M 6.46 33.15 C 6.73 34.47 7.48 34.72 8.71 33.88 C 8.44 32.56 7.69 32.32 6.46 33.15 Z" />
<path fill="#33251a" opacity="1.00" d=" M 46.22 8.00 C 46.65 7.75 47.51 7.25 47.94 7.00 C 47.54 10.17 47.83 13.50 50.13 15.93 C 49.60 15.87 48.55 15.73 48.02 15.66 C 47.91 16.33 47.67 17.69 47.55 18.36 C 47.31 17.70 46.83 16.39 46.59 15.73 C 46.10 15.77 45.10 15.84 44.60 15.88 C 45.94 13.99 46.85 11.86 47.39 9.62 C 47.10 9.22 46.51 8.41 46.22 8.00 Z" />
<path fill="#33251a" opacity="1.00" d=" M 59.44 7.61 C 59.77 7.47 60.45 7.19 60.78 7.05 C 59.97 10.16 60.63 13.46 62.86 15.82 C 62.30 15.80 61.19 15.76 60.63 15.74 C 60.52 16.36 60.30 17.60 60.19 18.22 C 59.88 17.40 59.57 16.57 59.27 15.74 C 58.77 15.76 57.75 15.80 57.24 15.82 C 59.32 13.57 59.97 10.59 59.44 7.61 Z" />
<path fill="#33251a" opacity="1.00" d=" M 14.16 9.53 C 15.37 8.99 16.58 10.96 15.85 11.95 C 14.63 12.58 13.41 10.51 14.16 9.53 Z" />
<path fill="#33251a" opacity="1.00" d=" M 17.42 10.08 C 19.03 9.49 19.49 10.05 18.80 11.74 C 17.19 12.33 16.73 11.77 17.42 10.08 Z" />
<path fill="#33251a" opacity="1.00" d=" M 79.92 9.99 C 81.47 9.63 82.06 10.29 81.71 11.95 C 80.15 12.31 79.55 11.66 79.92 9.99 Z" />
<path fill="#33251a" opacity="1.00" d=" M 53.10 17.96 C 53.52 18.24 54.35 18.78 54.77 19.06 C 54.50 19.46 53.97 20.28 53.71 20.68 C 54.19 22.75 54.95 24.72 55.99 26.57 C 54.48 26.87 53.86 28.20 53.21 29.42 C 53.18 28.75 53.12 27.41 53.10 26.73 C 52.54 26.78 51.44 26.86 50.88 26.90 C 53.23 24.50 53.48 21.14 53.10 17.96 Z" />
<path fill="#33251a" opacity="1.00" d=" M 46.18 30.06 C 46.63 29.80 47.52 29.27 47.97 29.01 C 47.58 32.17 47.79 35.53 50.15 37.92 C 49.62 37.86 48.56 37.73 48.03 37.66 C 47.91 38.33 47.65 39.67 47.52 40.34 C 47.29 39.68 46.83 38.38 46.60 37.73 C 46.10 37.77 45.11 37.86 44.61 37.90 C 45.93 35.97 46.85 33.83 47.45 31.57 C 47.13 31.19 46.50 30.44 46.18 30.06 Z" />
<path fill="#33251a" opacity="1.00" d=" M 59.43 29.63 C 59.76 29.48 60.42 29.17 60.75 29.02 C 60.03 32.14 60.58 35.45 62.86 37.80 C 62.33 37.79 61.27 37.76 60.73 37.75 C 60.55 38.41 60.17 39.72 59.98 40.38 C 59.84 39.73 59.54 38.42 59.39 37.76 C 58.86 37.75 57.79 37.74 57.25 37.73 C 59.41 35.55 59.93 32.56 59.43 29.63 Z" />
<path fill="#33251a" opacity="1.00" d=" M 44.30 46.34 C 45.12 45.85 45.95 45.37 46.78 44.89 C 48.84 46.95 51.48 46.16 53.84 45.21 C 55.90 46.28 58.30 46.83 60.13 44.99 C 62.01 46.06 64.08 46.46 66.23 46.37 C 66.38 52.40 66.23 58.43 66.32 64.46 C 65.18 64.51 64.04 64.56 62.90 64.61 C 62.88 66.93 62.87 69.24 62.83 71.55 C 61.49 71.53 60.14 71.51 58.80 71.50 C 58.81 69.18 58.81 66.87 58.80 64.56 C 55.40 64.56 52.00 64.56 48.61 64.57 C 48.59 66.88 48.59 69.20 48.58 71.51 C 47.23 71.51 45.87 71.51 44.52 71.51 C 44.52 69.16 44.52 66.82 44.50 64.47 C 43.66 64.49 41.97 64.52 41.12 64.53 C 40.97 58.45 41.02 52.36 41.09 46.28 C 41.90 46.29 43.50 46.32 44.30 46.34 M 46.02 49.87 C 44.22 49.06 41.96 49.44 42.47 51.89 C 43.73 51.54 44.98 51.19 46.24 50.84 C 46.13 51.59 45.90 53.08 45.79 53.82 C 44.71 53.64 43.64 53.38 42.59 53.05 C 42.58 55.43 42.57 57.81 42.58 60.19 C 43.64 59.81 44.70 59.43 45.77 59.06 C 45.88 59.80 46.10 61.28 46.22 62.02 C 44.78 61.80 43.34 61.55 41.88 61.52 C 42.78 63.63 45.25 62.77 46.99 63.02 C 52.95 62.98 58.91 63.03 64.88 62.96 C 64.85 58.49 64.82 54.02 64.91 49.54 C 63.70 49.55 62.53 49.72 61.38 50.07 C 61.32 48.75 61.19 47.44 60.97 46.13 C 60.54 46.39 59.66 46.89 59.22 47.14 C 59.26 47.87 59.32 49.34 59.35 50.07 C 57.83 49.33 56.30 49.32 54.78 50.04 C 54.97 48.53 54.44 47.13 53.77 45.81 C 52.93 47.09 52.33 48.50 52.64 50.06 C 50.97 49.36 49.14 49.32 47.41 49.87 C 48.28 48.89 48.08 46.79 46.75 46.32 C 45.29 46.63 45.10 48.91 46.02 49.87 M 45.18 66.04 C 45.30 67.39 45.44 68.73 45.60 70.07 C 47.74 69.30 48.26 65.18 45.18 66.04 M 60.20 66.46 C 59.34 67.68 59.60 68.37 60.99 68.50 C 61.84 67.27 61.58 66.59 60.20 66.46 Z" />
<path fill="#33251a" opacity="1.00" d=" M 6.97 46.80 C 7.63 46.81 8.30 46.82 8.97 46.83 C 7.51 49.47 8.69 52.61 10.53 54.73 C 9.08 54.91 8.32 55.93 7.81 57.19 C 7.70 55.67 6.89 54.86 5.37 54.74 C 7.29 52.64 8.31 49.47 6.97 46.80 Z" />
<path fill="#33251a" opacity="1.00" d=" M 20.36 47.23 C 20.90 46.93 21.45 46.62 21.99 46.32 C 21.60 49.30 21.56 52.63 23.95 54.83 C 21.89 54.58 21.67 56.34 21.36 57.91 C 21.13 56.93 20.89 55.96 20.66 54.98 C 20.12 55.04 19.05 55.16 18.52 55.21 C 20.06 52.99 22.15 49.83 20.36 47.23 Z" />
<path fill="#33251a" opacity="1.00" d=" M 34.03 46.38 C 34.47 46.57 35.35 46.95 35.79 47.14 C 35.50 47.53 34.93 48.31 34.65 48.70 C 35.15 51.02 35.87 53.32 37.48 55.14 C 36.86 55.17 35.64 55.24 35.03 55.27 C 34.87 55.97 34.56 57.37 34.41 58.06 C 34.29 57.32 34.06 55.82 33.95 55.07 C 33.46 55.04 32.48 54.97 32.00 54.93 C 34.35 52.67 34.37 49.40 34.03 46.38 Z" />
<path fill="#33251a" opacity="1.00" d=" M 71.81 46.76 C 72.53 46.81 73.25 46.85 73.97 46.90 C 73.68 47.36 73.11 48.28 72.82 48.74 C 73.29 51.09 74.10 53.35 75.60 55.24 C 75.07 55.18 73.99 55.05 73.45 54.98 C 73.19 55.96 72.93 56.95 72.67 57.94 C 72.52 56.27 72.16 54.71 70.16 54.70 C 72.32 52.71 72.98 49.46 71.81 46.76 Z" />
<path fill="#33251a" opacity="1.00" d=" M 85.13 46.81 C 85.80 46.80 86.47 46.79 87.14 46.78 C 85.80 49.43 86.77 52.62 88.72 54.69 C 87.23 54.91 86.48 56.04 85.89 57.30 C 85.81 56.78 85.66 55.73 85.58 55.21 C 85.07 55.08 84.03 54.83 83.52 54.71 C 85.52 52.69 86.56 49.44 85.13 46.81 Z" />
<path fill="#33251a" opacity="1.00" d=" M 98.93 46.26 C 99.36 46.48 100.20 46.94 100.63 47.16 C 100.34 47.51 99.76 48.21 99.48 48.56 C 99.89 50.98 100.70 53.31 102.26 55.24 C 101.71 55.18 100.61 55.05 100.07 54.98 C 100.00 55.57 99.87 56.75 99.80 57.34 L 99.14 57.31 C 99.09 56.73 99.00 55.57 98.96 55.00 C 98.40 55.05 97.30 55.17 96.74 55.23 C 99.21 52.78 99.00 49.43 98.93 46.26 Z" />
<path fill="#33251a" opacity="1.00" d=" M 62.16 51.07 C 63.93 50.50 64.66 53.40 62.88 53.79 C 61.17 54.32 60.34 51.43 62.16 51.07 Z" />
<path fill="#33251a" opacity="1.00" d=" M 14.07 54.03 C 14.48 54.30 15.32 54.84 15.73 55.12 C 15.45 55.49 14.88 56.25 14.60 56.62 C 15.11 58.77 15.85 60.87 17.23 62.63 C 15.51 62.70 14.84 64.06 14.19 65.40 C 14.15 64.74 14.06 63.42 14.01 62.77 C 13.46 62.83 12.36 62.96 11.81 63.02 C 14.19 60.60 14.40 57.23 14.07 54.03 Z" />
<path fill="#33251a" opacity="1.00" d=" M 27.00 54.66 C 27.67 54.74 28.34 54.74 29.01 54.64 C 27.41 57.44 28.91 60.66 30.84 62.84 C 30.27 62.85 29.12 62.85 28.54 62.86 C 28.50 63.34 28.42 64.30 28.38 64.79 C 28.18 64.79 27.77 64.79 27.57 64.79 C 27.54 64.31 27.47 63.33 27.43 62.84 C 26.85 62.85 25.69 62.87 25.11 62.88 C 27.11 60.71 28.48 57.50 27.00 54.66 Z" />
<path fill="#33251a" opacity="1.00" d=" M 79.21 56.74 C 78.07 55.36 79.06 53.39 80.61 55.01 C 80.35 55.40 79.82 56.17 79.56 56.55 C 79.92 58.94 80.76 61.20 82.29 63.09 C 81.78 62.99 80.75 62.80 80.23 62.70 C 80.00 63.40 79.54 64.81 79.31 65.51 C 79.19 64.82 78.96 63.44 78.84 62.75 C 78.30 62.82 77.22 62.96 76.68 63.02 C 78.11 61.19 79.04 59.07 79.21 56.74 Z" />
<path fill="#33251a" opacity="1.00" d=" M 92.29 53.90 C 94.29 54.64 93.00 56.61 93.28 58.10 C 93.43 59.95 94.60 61.41 95.59 62.88 C 95.08 62.87 94.05 62.84 93.53 62.82 C 93.26 63.70 92.98 64.57 92.70 65.45 C 92.56 64.78 92.28 63.45 92.14 62.78 C 91.59 62.82 90.48 62.90 89.93 62.94 C 92.46 60.60 92.59 57.11 92.29 53.90 Z" />
<path fill="#33251a" opacity="1.00" d=" M 49.13 56.78 C 50.43 55.55 52.14 55.02 53.90 54.84 C 53.46 55.34 52.57 56.34 52.13 56.84 C 52.77 56.84 54.05 56.84 54.69 56.84 C 54.53 56.34 54.22 55.34 54.07 54.84 C 55.36 55.28 56.66 55.74 57.95 56.20 C 55.71 59.02 51.88 58.40 49.13 56.78 Z" />
<path fill="#33251a" opacity="1.00" d=" M 62.14 59.17 C 63.95 58.59 64.91 61.64 62.98 62.07 C 61.06 62.75 60.15 59.59 62.14 59.17 Z" />
<path fill="#33251a" opacity="1.00" d=" M 14.73 71.43 C 15.35 70.94 15.97 70.44 16.60 69.95 C 17.95 70.42 19.30 70.90 20.64 71.40 C 21.17 72.79 21.88 74.08 22.99 75.10 C 24.18 73.71 25.09 71.76 27.02 71.26 C 29.97 70.32 32.68 72.39 35.25 73.50 C 35.75 73.10 36.75 72.28 37.25 71.87 C 37.81 73.17 39.50 74.71 38.21 76.10 C 37.18 77.18 35.92 78.11 34.50 78.58 C 31.08 78.95 27.93 73.91 24.94 77.48 C 25.21 76.17 25.70 74.74 27.15 74.35 C 29.40 74.98 31.41 76.24 33.50 77.24 C 33.01 76.59 32.02 75.31 31.52 74.66 C 33.61 75.54 35.90 76.47 38.08 75.20 C 34.91 74.64 32.11 73.04 29.06 72.13 C 25.62 71.72 23.04 75.93 24.77 78.89 C 27.30 83.52 34.44 81.48 36.99 85.88 C 35.28 88.20 32.22 86.59 29.91 86.37 C 26.39 85.42 22.44 85.43 19.61 88.02 C 18.01 87.81 16.42 87.59 14.83 87.36 C 16.37 88.99 17.92 90.62 19.44 92.27 C 18.48 93.30 17.53 94.32 16.57 95.35 C 16.04 94.84 14.99 93.83 14.46 93.33 C 15.48 93.26 18.85 93.79 17.34 91.83 C 16.47 90.37 14.70 90.18 13.20 89.86 C 12.45 90.65 11.70 91.44 10.94 92.23 C 6.62 88.27 5.33 82.47 3.30 77.22 C 3.77 76.92 4.71 76.32 5.18 76.01 C 5.39 74.52 5.59 73.03 5.81 71.54 C 7.55 72.68 8.99 74.18 10.19 75.87 C 11.23 74.41 12.28 72.97 13.31 71.51 C 13.66 71.49 14.37 71.45 14.73 71.43 M 16.56 70.90 C 15.64 73.30 12.59 73.51 11.31 75.72 C 13.14 76.96 14.51 78.62 14.78 80.90 C 14.89 80.28 15.11 79.03 15.22 78.41 C 16.25 78.60 18.30 79.00 19.33 79.19 C 18.63 80.36 17.80 81.44 16.80 82.37 L 16.20 80.15 C 14.58 81.87 13.91 84.16 13.93 86.49 C 11.51 86.87 9.30 85.77 8.72 83.27 C 6.67 80.13 10.53 75.56 6.65 73.35 C 6.73 74.91 6.85 76.47 6.99 78.03 C 6.44 77.88 5.35 77.58 4.80 77.43 C 6.28 80.40 7.01 83.66 8.37 86.68 C 9.47 87.60 10.65 88.54 10.56 90.15 C 11.58 89.68 12.59 89.22 13.60 88.76 C 14.07 87.60 14.53 86.45 15.01 85.30 C 16.01 85.69 16.99 85.61 17.89 84.98 L 18.28 86.33 C 19.29 85.74 20.31 85.16 21.33 84.59 C 20.63 83.83 19.93 83.07 19.23 82.31 C 19.63 80.63 19.99 78.94 20.34 77.25 C 20.87 77.00 21.93 76.49 22.46 76.23 C 21.31 75.00 20.27 73.68 19.70 72.08 C 19.33 72.36 18.61 72.92 18.24 73.20 C 17.68 72.43 17.12 71.67 16.56 70.90 M 8.99 78.45 C 7.59 81.52 12.29 78.44 8.99 78.45 M 10.60 76.62 C 11.11 79.36 8.02 85.01 12.68 85.16 C 13.10 82.12 13.72 78.53 10.60 76.62 M 22.35 83.52 C 26.66 84.87 31.14 85.69 35.62 86.28 C 33.76 83.70 29.93 84.22 27.33 82.67 C 24.83 81.80 23.92 79.21 22.98 77.01 C 20.88 78.36 19.86 82.07 22.35 83.52 Z" />
<path fill="#33251a" opacity="1.00" d=" M 53.04 71.16 C 53.49 71.40 54.39 71.87 54.84 72.10 C 54.55 72.48 53.95 73.24 53.65 73.62 C 54.19 75.81 54.78 78.05 56.36 79.75 C 54.60 79.82 53.66 80.77 53.57 82.60 C 53.42 81.92 53.13 80.55 52.98 79.87 C 52.45 79.91 51.37 80.00 50.84 80.05 C 53.27 77.70 53.43 74.32 53.04 71.16 Z" />
<path fill="#33251a" opacity="1.00" d=" M 14.07 75.07 C 15.96 76.23 18.17 76.04 20.15 75.27 C 19.13 77.20 16.90 76.90 15.08 77.19 C 14.82 76.66 14.32 75.60 14.07 75.07 Z" />
<path fill="#33251a" opacity="1.00" d=" M 79.09 75.31 C 80.46 75.02 81.00 75.58 80.69 76.98 C 79.32 77.26 78.79 76.70 79.09 75.31 Z" />
<path fill="#33251a" opacity="1.00" d=" M 81.85 76.00 C 82.40 75.70 83.50 75.09 84.05 74.78 C 83.05 76.60 82.35 78.54 82.97 80.63 C 82.43 80.48 81.33 80.17 80.79 80.02 C 81.13 80.61 81.81 81.80 82.15 82.40 C 80.27 81.96 79.56 80.17 79.15 78.50 C 79.95 78.61 81.53 78.83 82.33 78.94 C 82.21 78.21 81.97 76.74 81.85 76.00 Z" />
<path fill="#33251a" opacity="1.00" d=" M 25.13 77.73 C 27.80 78.09 30.37 78.97 32.69 80.33 C 32.39 80.50 31.78 80.84 31.47 81.01 C 29.99 80.73 28.53 80.39 27.06 80.07 C 26.58 79.48 25.61 78.31 25.13 77.73 Z" />
<path fill="#33251a" opacity="1.00" d=" M 32.76 80.29 C 36.47 79.51 40.31 83.21 39.17 86.97 C 38.88 89.09 36.32 89.31 34.74 90.01 C 34.95 91.52 34.82 93.13 35.50 94.54 C 36.34 94.57 37.18 94.58 38.03 94.58 C 38.17 98.95 38.22 103.32 37.87 107.68 C 35.95 108.65 35.01 110.60 33.91 112.33 C 33.04 111.09 32.32 109.76 31.75 108.35 C 31.08 108.28 29.74 108.13 29.07 108.05 C 28.14 104.89 31.05 103.38 33.05 101.67 C 34.49 99.75 32.79 97.87 31.37 96.64 C 31.79 100.94 27.67 103.62 25.90 107.16 C 25.14 106.46 24.38 105.77 23.62 105.07 C 22.68 105.35 21.74 105.62 20.81 105.90 C 21.02 104.54 21.24 103.17 21.47 101.81 C 21.05 101.35 20.22 100.43 19.80 99.97 C 20.47 99.67 21.82 99.06 22.50 98.75 C 22.42 99.28 22.25 100.33 22.17 100.86 C 22.71 100.86 23.79 100.87 24.33 100.87 C 23.47 102.02 22.61 103.17 21.76 104.33 C 22.84 103.81 23.91 103.28 24.99 102.75 C 25.06 103.40 25.20 104.69 25.27 105.34 C 26.67 103.08 28.20 100.89 29.92 98.86 C 29.23 96.06 28.56 93.26 27.73 90.51 C 23.08 92.65 30.38 99.16 25.06 101.05 C 24.60 100.64 23.69 99.83 23.23 99.42 C 23.99 99.27 25.51 98.96 26.26 98.80 C 25.39 96.07 24.80 93.26 24.99 90.38 L 24.37 89.72 C 23.66 94.39 19.79 97.51 17.87 101.64 C 17.10 100.90 16.34 100.16 15.58 99.42 C 14.30 99.48 13.03 99.55 11.75 99.61 C 12.07 98.34 12.39 97.06 12.70 95.79 C 12.41 94.48 11.75 92.94 13.50 92.40 C 13.82 93.18 14.48 94.73 14.81 95.50 C 14.20 96.51 13.59 97.52 12.99 98.53 C 14.34 97.85 15.68 97.16 17.03 96.46 C 17.08 97.29 17.19 98.95 17.24 99.77 C 18.56 97.00 20.19 94.38 22.39 92.22 C 21.90 91.24 21.40 90.25 20.91 89.26 C 23.23 88.99 25.55 88.72 27.87 88.46 C 28.83 91.45 30.10 94.42 32.77 96.29 C 35.63 98.04 34.13 101.52 33.69 104.10 C 31.59 103.87 30.29 105.28 29.60 107.08 C 30.77 106.44 31.93 105.80 33.09 105.14 C 33.16 106.92 33.24 108.69 33.33 110.47 C 34.35 108.72 35.31 106.94 36.31 105.18 C 36.32 103.30 36.34 101.42 36.34 99.54 C 36.58 98.58 36.80 97.61 37.03 96.65 C 33.27 95.21 33.25 90.66 31.43 87.62 C 33.19 87.75 34.95 87.97 36.72 87.86 C 38.46 86.46 37.88 84.42 37.06 82.69 C 35.55 82.02 34.09 81.25 32.76 80.29 Z" />
<path fill="#33251a" opacity="1.00" d=" M 46.28 83.08 C 46.76 82.98 47.72 82.79 48.20 82.69 C 47.03 85.78 48.15 89.01 50.09 91.48 C 49.57 91.40 48.52 91.24 48.00 91.16 C 47.90 91.93 47.70 93.48 47.60 94.25 C 47.41 93.52 47.03 92.05 46.83 91.32 C 46.27 91.33 45.14 91.36 44.58 91.38 C 46.08 89.52 46.89 87.29 47.23 84.94 C 46.99 84.48 46.52 83.54 46.28 83.08 Z" />
<path fill="#33251a" opacity="1.00" d=" M 59.17 82.91 C 59.59 82.90 60.43 82.88 60.86 82.87 C 59.77 85.91 60.90 89.09 62.88 91.45 C 62.33 91.38 61.22 91.23 60.66 91.16 C 60.53 91.87 60.25 93.28 60.11 93.98 C 59.85 93.06 59.61 92.15 59.37 91.23 C 58.83 91.27 57.76 91.35 57.22 91.39 C 59.21 89.08 60.42 85.88 59.17 82.91 Z" />
<path fill="#33251a" opacity="1.00" d=" M 53.11 93.78 C 54.71 94.37 54.60 95.56 53.89 96.82 C 54.17 99.01 55.04 101.02 56.40 102.76 C 54.51 102.35 53.60 103.22 53.68 105.37 C 53.50 104.68 53.14 103.30 52.96 102.61 C 52.45 102.69 51.45 102.85 50.95 102.93 C 53.14 100.37 53.54 97.01 53.11 93.78 Z" />
<path fill="#33251a" opacity="1.00" d=" M 46.53 106.11 C 46.93 106.00 47.73 105.78 48.13 105.67 C 47.01 108.82 48.13 112.10 50.12 114.60 C 49.62 114.50 48.60 114.31 48.10 114.21 C 47.95 114.98 47.65 116.52 47.50 117.28 C 47.41 115.31 46.73 113.91 44.57 114.33 C 46.70 112.14 47.43 109.02 46.53 106.11 Z" />
<path fill="#33251a" opacity="1.00" d=" M 59.25 105.91 C 59.64 105.90 60.41 105.87 60.80 105.85 C 59.86 108.94 60.82 112.13 62.86 114.53 C 62.32 114.46 61.25 114.33 60.71 114.26 C 60.54 114.97 60.20 116.39 60.02 117.11 C 59.85 116.40 59.52 114.98 59.35 114.27 C 58.81 114.34 57.75 114.46 57.21 114.53 C 59.32 112.20 60.24 108.96 59.25 105.91 Z" />
</g>
<g id="#c41a1bff">
<path fill="#c41a1b" opacity="1.00" d=" M 1.45 2.99 C 15.05 3.05 28.65 3.33 42.25 3.20 C 42.32 16.90 42.27 30.60 42.27 44.30 C 28.85 44.32 15.42 44.28 1.99 44.28 C 1.80 30.51 2.50 16.72 1.45 2.99 M 16.34 3.89 C 16.00 4.41 15.33 5.45 15.00 5.96 C 14.56 5.81 13.69 5.51 13.25 5.35 C 12.53 7.17 10.43 8.11 9.93 9.96 C 10.50 12.44 13.38 14.14 12.66 16.93 C 12.18 18.75 12.91 22.42 10.08 22.08 C 7.59 19.81 9.92 16.77 10.11 14.13 C 9.03 10.73 7.45 7.23 4.06 5.61 C 4.68 9.50 2.33 13.28 3.69 17.07 C 4.90 21.38 5.81 26.34 9.53 29.28 C 10.61 28.31 11.77 27.42 13.01 26.66 C 13.30 28.74 12.73 31.86 10.25 32.25 C 8.11 31.95 5.78 31.51 4.12 33.24 C 7.53 34.68 4.91 38.21 4.52 40.65 C 6.85 39.86 9.38 38.60 11.78 39.94 C 13.83 34.82 19.08 31.86 20.94 26.70 C 21.90 26.40 22.86 26.10 23.82 25.81 C 23.54 26.85 23.26 27.88 22.99 28.92 C 23.94 30.71 24.73 32.59 25.30 34.53 C 22.82 34.13 20.33 32.75 17.83 33.80 C 18.10 34.32 18.66 35.34 18.93 35.85 C 18.39 37.08 17.83 38.31 17.37 39.57 C 19.32 40.62 21.92 39.70 23.97 40.81 C 26.66 38.27 29.29 35.48 30.59 31.94 C 30.14 31.34 29.23 30.13 28.78 29.53 C 30.74 30.32 32.99 30.81 34.34 32.58 C 32.45 33.43 30.62 34.43 29.26 36.03 C 29.76 36.50 30.75 37.45 31.25 37.92 C 31.48 38.89 31.71 39.86 31.95 40.82 C 33.09 40.31 34.23 39.80 35.37 39.29 C 36.25 39.60 37.13 39.92 38.02 40.23 C 38.42 35.47 38.84 30.66 38.09 25.91 C 37.04 26.42 35.97 26.93 34.91 27.44 C 34.61 26.16 34.29 24.88 33.97 23.60 C 36.21 23.58 39.18 22.76 39.08 19.98 C 39.58 15.87 35.06 14.18 31.97 12.95 C 30.03 11.96 26.86 11.64 26.77 8.89 C 29.19 9.79 31.48 11.05 34.01 11.61 C 35.74 11.65 37.07 10.23 38.06 8.99 C 38.83 7.55 37.37 6.20 37.06 4.83 C 36.04 5.20 35.03 5.57 34.01 5.94 C 31.75 5.44 29.39 4.56 27.07 5.20 C 25.14 5.71 24.23 7.65 22.86 8.91 C 21.37 9.16 21.37 6.73 20.53 5.93 C 20.05 5.85 19.07 5.70 18.58 5.63 C 17.83 5.05 17.09 4.47 16.34 3.89 Z" />
<path fill="#c41a1b" opacity="1.00" d=" M 65.04 3.19 C 78.70 3.36 92.35 2.99 106.00 3.01 L 106.00 67.71 L 105.82 66.62 C 105.06 59.21 105.73 51.72 105.47 44.28 C 92.01 44.29 78.55 44.30 65.09 44.32 C 65.06 30.61 65.15 16.90 65.04 3.19 M 80.62 7.51 C 80.32 7.41 79.72 7.21 79.41 7.12 C 78.66 8.57 77.00 9.41 76.77 11.14 C 79.90 10.96 79.35 14.85 80.22 16.89 C 79.05 18.22 78.99 19.99 78.89 21.66 C 79.38 21.22 80.35 20.32 80.84 19.88 C 80.97 20.47 81.22 21.67 81.35 22.27 C 82.00 21.64 82.65 21.02 83.30 20.39 C 83.63 20.49 84.28 20.69 84.60 20.79 C 84.99 20.24 85.78 19.13 86.17 18.58 C 85.31 17.34 84.84 15.92 84.69 14.42 C 84.11 15.55 83.74 16.81 82.89 17.77 C 80.59 18.14 80.99 14.71 80.33 13.37 L 82.98 14.78 C 83.03 13.25 83.06 11.71 83.11 10.18 C 83.60 9.92 84.59 9.42 85.09 9.17 C 84.83 9.68 84.32 10.69 84.07 11.19 C 84.02 12.44 83.98 13.68 83.94 14.92 C 85.14 13.37 86.36 11.83 87.63 10.33 C 86.96 9.33 86.29 8.33 85.62 7.34 C 84.27 7.42 83.22 6.88 82.45 5.71 C 81.84 6.31 81.23 6.91 80.62 7.51 M 91.26 7.23 C 89.33 8.76 89.61 11.96 91.34 13.53 C 94.41 16.30 99.01 16.44 102.10 19.12 C 102.03 19.55 101.89 20.41 101.81 20.84 C 98.49 21.25 95.26 19.79 91.93 20.04 C 88.28 20.20 85.27 22.53 82.06 24.02 C 81.39 23.44 80.03 22.28 79.36 21.70 C 79.74 24.56 81.47 27.84 79.36 30.45 C 77.52 34.01 72.89 34.90 71.36 38.63 C 73.16 38.27 74.48 36.99 75.83 35.87 C 75.96 36.56 76.22 37.96 76.34 38.66 C 77.39 37.46 77.99 35.98 78.56 34.52 C 80.63 32.62 82.56 30.56 84.15 28.24 C 84.39 26.99 84.63 25.74 84.87 24.48 C 87.22 24.29 90.78 24.97 91.65 22.13 C 93.83 26.06 96.87 29.49 101.17 31.12 C 100.63 32.71 100.62 35.04 98.63 35.58 C 98.47 36.84 98.35 38.11 98.28 39.37 C 99.13 38.75 99.90 38.03 100.57 37.21 C 101.36 37.42 102.16 37.62 102.95 37.84 C 102.56 36.21 102.14 34.53 102.67 32.89 C 102.67 31.55 102.69 30.22 102.77 28.89 C 98.72 28.45 98.01 24.12 96.15 21.26 C 98.30 21.68 100.49 21.89 102.68 21.89 C 102.81 21.19 103.07 19.80 103.19 19.10 C 103.08 16.22 99.44 16.02 97.89 14.06 C 97.49 14.28 96.69 14.72 96.28 14.95 C 95.47 14.10 94.65 13.26 93.83 12.42 C 93.36 12.56 92.40 12.85 91.92 12.99 C 90.99 11.28 90.47 8.40 93.00 7.81 C 95.94 7.86 98.31 10.24 101.32 9.99 C 100.58 9.58 99.10 8.75 98.36 8.33 C 100.17 8.25 102.85 8.89 103.28 6.41 C 101.41 6.94 99.51 7.32 97.59 7.55 C 97.10 6.99 96.61 6.43 96.12 5.87 C 94.46 6.10 92.50 5.87 91.26 7.23 M 71.11 7.76 C 70.86 9.96 71.21 12.14 72.14 14.14 C 71.13 13.71 70.12 13.28 69.10 12.86 C 69.86 14.30 70.62 15.73 71.38 17.16 C 71.46 18.32 71.56 19.49 71.67 20.65 C 72.28 20.03 72.87 19.39 73.45 18.74 C 72.43 15.10 74.24 10.59 71.11 7.76 M 74.07 14.21 C 72.62 17.27 77.36 14.27 74.07 14.21 M 82.07 15.24 C 80.44 18.20 85.36 15.52 82.07 15.24 M 72.15 21.01 C 72.52 22.49 73.24 23.78 74.31 24.88 C 74.49 25.70 74.62 26.54 74.81 27.37 C 76.85 27.30 78.69 25.22 78.55 23.18 C 76.76 23.08 74.27 23.79 74.42 21.08 C 73.85 21.06 72.72 21.03 72.15 21.01 M 91.96 33.81 C 91.13 35.12 89.54 35.54 88.25 36.25 C 87.52 34.91 86.58 33.76 84.91 33.86 C 85.67 34.72 86.45 35.57 87.24 36.40 C 86.01 36.29 83.33 39.32 85.86 38.67 C 87.49 38.02 89.47 36.43 89.75 39.25 C 90.94 37.25 92.82 35.67 93.58 33.42 C 93.85 33.21 94.38 32.78 94.65 32.57 C 92.82 30.52 93.88 27.34 92.12 25.42 C 88.02 27.18 92.06 30.88 91.96 33.81 M 72.38 33.15 C 72.61 34.47 73.35 34.72 74.60 33.90 C 74.37 32.58 73.63 32.33 72.38 33.15 Z" />
<path fill="#c41a1b" opacity="1.00" d=" M 22.26 11.95 C 24.12 12.41 24.64 14.74 26.19 15.72 C 28.99 17.57 32.41 18.11 35.34 19.71 C 34.54 19.91 32.92 20.31 32.12 20.50 C 32.03 20.49 31.86 20.46 31.78 20.44 L 30.92 19.22 C 28.06 18.71 24.85 19.27 22.26 17.75 C 20.13 16.42 21.00 13.57 22.26 11.95 Z" />
<path fill="#c41a1b" opacity="1.00" d=" M 42.47 51.89 C 41.96 49.44 44.22 49.06 46.02 49.87 L 46.73 50.02 L 47.41 49.87 C 49.14 49.32 50.97 49.36 52.64 50.06 C 52.91 50.14 53.44 50.31 53.70 50.39 C 53.97 50.30 54.51 50.13 54.78 50.04 C 56.30 49.32 57.83 49.33 59.35 50.07 C 59.58 50.14 60.04 50.29 60.27 50.36 C 60.54 50.29 61.10 50.14 61.38 50.07 C 62.53 49.72 63.70 49.55 64.91 49.54 C 64.82 54.02 64.85 58.49 64.88 62.96 C 58.91 63.03 52.95 62.98 46.99 63.02 C 45.25 62.77 42.78 63.63 41.88 61.52 C 43.34 61.55 44.78 61.80 46.22 62.02 C 46.10 61.28 45.88 59.80 45.77 59.06 C 44.70 59.43 43.64 59.81 42.58 60.19 C 42.57 57.81 42.58 55.43 42.59 53.05 C 43.64 53.38 44.71 53.64 45.79 53.82 C 45.90 53.08 46.13 51.59 46.24 50.84 C 44.98 51.19 43.73 51.54 42.47 51.89 M 62.16 51.07 C 60.34 51.43 61.17 54.32 62.88 53.79 C 64.66 53.40 63.93 50.50 62.16 51.07 M 47.99 56.65 C 51.16 59.53 56.22 59.90 59.01 56.31 C 55.89 53.52 50.80 53.32 47.99 56.65 M 62.14 59.17 C 60.15 59.59 61.06 62.75 62.98 62.07 C 64.91 61.64 63.95 58.59 62.14 59.17 Z" />
<path fill="#c41a1b" opacity="1.00" d=" M 1.99 66.82 C 15.42 66.81 28.85 66.81 42.28 66.82 C 42.25 84.06 42.36 101.30 42.22 118.53 C 31.43 113.12 19.97 108.18 11.28 99.54 C 2.89 90.98 1.75 78.20 1.99 66.82 M 14.73 71.43 C 14.37 71.45 13.66 71.49 13.31 71.51 C 12.28 72.97 11.23 74.41 10.19 75.87 C 8.99 74.18 7.55 72.68 5.81 71.54 C 5.59 73.03 5.39 74.52 5.18 76.01 C 4.71 76.32 3.77 76.92 3.30 77.22 C 5.33 82.47 6.62 88.27 10.94 92.23 C 11.70 91.44 12.45 90.65 13.20 89.86 C 14.70 90.18 16.47 90.37 17.34 91.83 C 18.85 93.79 15.48 93.26 14.46 93.33 L 13.50 92.40 C 11.75 92.94 12.41 94.48 12.70 95.79 C 12.39 97.06 12.07 98.34 11.75 99.61 C 13.03 99.55 14.30 99.48 15.58 99.42 C 16.34 100.16 17.10 100.90 17.87 101.64 C 19.79 97.51 23.66 94.39 24.37 89.72 L 24.99 90.38 C 24.80 93.26 25.39 96.07 26.26 98.80 C 25.51 98.96 23.99 99.27 23.23 99.42 C 23.05 99.25 22.68 98.92 22.50 98.75 C 21.82 99.06 20.47 99.67 19.80 99.97 C 20.22 100.43 21.05 101.35 21.47 101.81 C 21.24 103.17 21.02 104.54 20.81 105.90 C 21.74 105.62 22.68 105.35 23.62 105.07 C 24.38 105.77 25.14 106.46 25.90 107.16 C 27.67 103.62 31.79 100.94 31.37 96.64 C 32.79 97.87 34.49 99.75 33.05 101.67 C 31.05 103.38 28.14 104.89 29.07 108.05 C 29.74 108.13 31.08 108.28 31.75 108.35 C 32.32 109.76 33.04 111.09 33.91 112.33 C 35.01 110.60 35.95 108.65 37.87 107.68 C 38.22 103.32 38.17 98.95 38.03 94.58 C 37.18 94.58 36.34 94.57 35.50 94.54 C 34.82 93.13 34.95 91.52 34.74 90.01 C 36.32 89.31 38.88 89.09 39.17 86.97 C 40.31 83.21 36.47 79.51 32.76 80.29 L 32.69 80.33 C 30.37 78.97 27.80 78.09 25.13 77.73 L 24.94 77.48 C 27.93 73.91 31.08 78.95 34.50 78.58 C 35.92 78.11 37.18 77.18 38.21 76.10 C 39.50 74.71 37.81 73.17 37.25 71.87 C 36.75 72.28 35.75 73.10 35.25 73.50 C 32.68 72.39 29.97 70.32 27.02 71.26 C 25.09 71.76 24.18 73.71 22.99 75.10 C 21.88 74.08 21.17 72.79 20.64 71.40 C 19.30 70.90 17.95 70.42 16.60 69.95 C 15.97 70.44 15.35 70.94 14.73 71.43 Z" />
<path fill="#c41a1b" opacity="1.00" d=" M 65.09 66.80 C 78.67 66.71 92.25 67.04 105.82 66.62 C 104.77 73.71 105.45 81.08 102.97 87.93 C 101.50 91.90 99.78 96.32 96.20 98.79 C 96.67 95.88 98.52 93.42 99.58 90.71 C 98.34 90.27 97.10 89.83 95.86 89.41 C 98.74 89.77 102.78 88.73 102.22 85.00 C 101.04 79.58 94.36 79.34 90.36 76.94 C 93.93 74.27 97.68 80.13 101.23 77.26 C 103.47 76.38 103.13 73.98 103.13 72.01 C 102.05 72.30 100.97 72.59 99.89 72.89 C 97.30 72.37 94.66 71.38 91.99 71.82 C 87.93 72.81 86.57 78.64 89.64 81.40 C 91.93 83.25 94.82 84.07 97.45 85.29 C 96.81 85.49 95.54 85.91 94.90 86.11 L 94.25 85.89 C 94.08 85.80 93.74 85.61 93.58 85.52 C 90.92 84.34 87.57 84.64 85.30 82.69 C 84.34 80.28 86.61 78.26 87.26 76.06 C 86.69 74.52 85.80 73.12 84.98 71.70 C 83.80 71.13 82.64 70.55 81.48 69.95 C 79.11 71.00 76.99 72.50 75.09 74.25 C 75.02 75.04 74.90 76.63 74.83 77.43 C 74.27 74.66 72.82 72.28 70.39 70.77 C 68.08 77.64 69.52 84.87 70.97 91.75 C 72.31 91.19 73.64 90.59 75.03 90.15 C 75.99 90.66 76.92 91.63 76.65 92.82 C 76.61 95.26 74.16 93.97 72.66 93.97 C 72.27 93.95 71.49 93.93 71.11 93.92 C 70.73 93.95 69.98 94.02 69.61 94.05 C 69.62 96.70 69.25 99.32 68.79 101.92 C 69.81 101.53 70.83 101.14 71.85 100.76 C 72.38 101.10 73.44 101.79 73.97 102.13 C 76.67 99.58 79.35 97.01 81.94 94.34 C 81.78 96.41 82.80 98.84 81.70 100.71 C 79.82 101.87 77.47 101.83 75.42 102.59 C 73.32 104.83 72.57 107.99 72.51 110.99 C 74.86 110.19 77.38 109.79 79.59 108.62 C 82.61 106.37 85.26 103.69 88.05 101.18 C 86.29 97.67 88.80 94.30 89.88 91.02 C 91.05 91.74 92.23 92.47 93.41 93.18 C 92.06 93.39 91.06 94.01 90.40 95.04 L 90.16 95.54 L 88.85 95.32 C 89.42 97.18 89.99 99.03 90.56 100.89 C 91.97 100.57 93.41 100.37 94.83 100.12 C 93.66 102.14 91.70 103.49 89.89 104.88 C 82.16 110.37 73.52 114.37 65.07 118.59 C 65.13 101.33 65.07 84.06 65.09 66.80 Z" />
<path fill="#c41a1b" opacity="1.00" d=" M 10.60 76.62 C 13.72 78.53 13.10 82.12 12.68 85.16 C 8.02 85.01 11.11 79.36 10.60 76.62 Z" />
<path fill="#c41a1b" opacity="1.00" d=" M 22.35 83.52 C 19.86 82.07 20.88 78.36 22.98 77.01 C 23.92 79.21 24.83 81.80 27.33 82.67 C 29.93 84.22 33.76 83.70 35.62 86.28 C 31.14 85.69 26.66 84.87 22.35 83.52 Z" />
<path fill="#c41a1b" opacity="1.00" d=" M 75.97 86.18 C 72.10 84.86 74.28 79.74 76.92 78.19 C 77.26 80.91 77.11 83.67 75.97 86.18 Z" />
</g>
<g id="#90908fff">
<path fill="#90908f" opacity="1.00" d=" M 0.00 3.63 C 1.80 18.01 0.59 32.55 1.11 47.00 C 1.02 53.87 1.57 60.79 0.76 67.63 L 0.00 69.23 L 0.00 3.63 Z" />
</g>
<g id="#ddae00ff">
<path fill="#ddae00" opacity="1.00" d=" M 13.43 7.37 C 15.01 7.48 16.03 6.35 17.06 5.34 C 17.31 5.98 17.82 7.27 18.07 7.91 C 18.49 7.66 19.32 7.15 19.73 6.89 C 20.57 8.34 21.45 9.76 22.35 11.17 C 21.79 11.30 20.67 11.56 20.11 11.69 C 20.02 12.39 19.83 13.78 19.74 14.48 C 18.08 14.19 16.44 13.79 14.80 13.42 C 14.85 14.27 14.96 15.97 15.02 16.83 C 15.63 16.35 16.86 15.39 17.47 14.91 C 17.00 16.06 16.54 17.21 16.08 18.37 C 17.22 17.27 18.16 15.98 19.04 14.67 C 18.81 16.69 20.11 18.18 21.27 19.65 C 20.73 19.52 19.67 19.26 19.14 19.13 C 19.11 19.64 19.04 20.67 19.01 21.18 C 18.56 20.91 17.68 20.37 17.23 20.10 C 17.02 20.65 16.59 21.74 16.37 22.29 C 15.94 21.85 15.06 20.95 14.63 20.51 L 12.84 20.52 C 15.77 16.99 13.80 12.36 10.86 9.60 C 12.13 9.28 12.98 8.54 13.43 7.37 M 14.16 9.53 C 13.41 10.51 14.63 12.58 15.85 11.95 C 16.58 10.96 15.37 8.99 14.16 9.53 M 17.42 10.08 C 16.73 11.77 17.19 12.33 18.80 11.74 C 19.49 10.05 19.03 9.49 17.42 10.08 Z" />
<path fill="#ddae00" opacity="1.00" d=" M 26.01 6.81 C 28.86 4.90 32.35 6.84 35.29 7.50 C 35.75 7.10 36.66 6.31 37.11 5.92 C 37.05 6.52 36.92 7.73 36.86 8.34 C 35.21 8.27 33.57 8.13 31.94 7.90 C 32.89 8.35 34.78 9.26 35.72 9.72 C 32.29 10.91 29.49 6.54 26.20 8.33 C 25.01 9.72 25.66 11.44 25.98 13.01 C 26.45 12.82 27.39 12.44 27.85 12.25 C 28.70 13.08 29.54 13.91 30.38 14.74 C 31.13 14.52 31.88 14.29 32.63 14.07 C 33.02 14.56 33.80 15.55 34.18 16.05 C 36.96 15.76 38.97 19.70 36.69 21.57 C 34.53 22.69 31.96 21.20 29.73 20.96 C 31.31 22.62 32.43 24.62 33.41 26.68 C 34.03 28.43 36.17 28.35 37.60 29.02 C 37.32 29.41 36.74 30.18 36.45 30.57 C 37.00 31.86 37.81 33.25 36.43 34.32 C 36.73 35.69 36.97 37.08 37.12 38.47 C 36.63 37.97 35.65 36.98 35.16 36.48 C 34.62 37.79 33.71 38.77 32.44 39.40 C 32.48 36.41 35.50 34.08 35.05 31.15 C 31.57 29.26 28.44 26.86 26.70 23.19 C 24.75 23.74 22.79 24.24 20.84 24.75 C 20.36 24.67 19.42 24.49 18.95 24.40 C 18.76 25.81 18.67 27.23 18.72 28.66 C 17.70 29.15 17.00 29.94 16.62 31.02 C 15.08 31.72 14.17 33.23 12.99 34.38 C 12.37 35.78 11.79 37.19 11.24 38.62 C 10.88 38.10 10.17 37.08 9.81 36.56 C 8.36 36.87 7.26 38.37 5.96 39.14 C 5.63 36.19 8.87 35.31 10.64 33.69 C 12.86 32.16 14.21 29.75 14.99 27.21 C 14.27 25.17 13.74 23.07 13.30 20.95 C 14.31 21.99 15.30 23.05 16.30 24.11 C 20.92 21.23 26.23 18.84 31.78 20.44 C 31.86 20.46 32.03 20.49 32.12 20.50 C 33.82 20.84 36.76 21.85 36.45 19.02 C 33.11 16.59 28.63 16.25 25.52 13.44 C 23.67 11.66 23.73 8.21 26.01 6.81 Z" />
<path fill="#ddae00" opacity="1.00" d=" M 80.62 7.51 C 81.23 6.91 81.84 6.31 82.45 5.71 C 83.22 6.88 84.27 7.42 85.62 7.34 C 86.29 8.33 86.96 9.33 87.63 10.33 C 86.36 11.83 85.14 13.37 83.94 14.92 C 83.98 13.68 84.02 12.44 84.07 11.19 C 84.32 10.69 84.83 9.68 85.09 9.17 C 84.59 9.42 83.60 9.92 83.11 10.18 C 83.06 11.71 83.03 13.25 82.98 14.78 L 80.33 13.37 C 80.99 14.71 80.59 18.14 82.89 17.77 C 83.74 16.81 84.11 15.55 84.69 14.42 C 84.84 15.92 85.31 17.34 86.17 18.58 C 85.78 19.13 84.99 20.24 84.60 20.79 C 84.28 20.69 83.63 20.49 83.30 20.39 C 82.65 21.02 82.00 21.64 81.35 22.27 C 81.22 21.67 80.97 20.47 80.84 19.88 C 80.35 20.32 79.38 21.22 78.89 21.66 C 78.99 19.99 79.05 18.22 80.22 16.89 C 79.35 14.85 79.90 10.96 76.77 11.14 C 77.00 9.41 78.66 8.57 79.41 7.12 C 79.72 7.21 80.32 7.41 80.62 7.51 M 79.92 9.99 C 79.55 11.66 80.15 12.31 81.71 11.95 C 82.06 10.29 81.47 9.63 79.92 9.99 Z" />
<path fill="#ddae00" opacity="1.00" d=" M 91.26 7.23 C 92.50 5.87 94.46 6.10 96.12 5.87 C 96.61 6.43 97.10 6.99 97.59 7.55 C 99.51 7.32 101.41 6.94 103.28 6.41 C 102.85 8.89 100.17 8.25 98.36 8.33 C 99.10 8.75 100.58 9.58 101.32 9.99 C 98.31 10.24 95.94 7.86 93.00 7.81 C 90.47 8.40 90.99 11.28 91.92 12.99 C 92.40 12.85 93.36 12.56 93.83 12.42 C 94.65 13.26 95.47 14.10 96.28 14.95 C 96.69 14.72 97.49 14.28 97.89 14.06 C 99.44 16.02 103.08 16.22 103.19 19.10 C 103.07 19.80 102.81 21.19 102.68 21.89 C 100.49 21.89 98.30 21.68 96.15 21.26 C 98.01 24.12 98.72 28.45 102.77 28.89 C 102.69 30.22 102.67 31.55 102.67 32.89 C 102.14 34.53 102.56 36.21 102.95 37.84 C 102.16 37.62 101.36 37.42 100.57 37.21 C 99.90 38.03 99.13 38.75 98.28 39.37 C 98.35 38.11 98.47 36.84 98.63 35.58 C 100.62 35.04 100.63 32.71 101.17 31.12 C 96.87 29.49 93.83 26.06 91.65 22.13 C 90.78 24.97 87.22 24.29 84.87 24.48 C 84.63 25.74 84.39 26.99 84.15 28.24 C 82.56 30.56 80.63 32.62 78.56 34.52 C 77.99 35.98 77.39 37.46 76.34 38.66 C 76.22 37.96 75.96 36.56 75.83 35.87 C 74.48 36.99 73.16 38.27 71.36 38.63 C 72.89 34.90 77.52 34.01 79.36 30.45 C 81.47 27.84 79.74 24.56 79.36 21.70 C 80.03 22.28 81.39 23.44 82.06 24.02 C 85.27 22.53 88.28 20.20 91.93 20.04 C 95.26 19.79 98.49 21.25 101.81 20.84 C 101.89 20.41 102.03 19.55 102.10 19.12 C 99.01 16.44 94.41 16.30 91.34 13.53 C 89.61 11.96 89.33 8.76 91.26 7.23 Z" />
<path fill="#ddae00" opacity="1.00" d=" M 5.38 7.84 C 7.01 9.20 7.39 11.26 7.59 13.27 C 8.23 14.07 8.83 14.89 9.40 15.74 L 6.97 15.18 C 7.50 17.53 7.55 20.09 8.78 22.21 C 9.52 23.86 11.60 23.08 12.98 23.25 C 12.93 23.79 12.83 24.87 12.78 25.42 C 11.53 26.16 10.31 26.94 9.12 27.77 C 8.75 26.91 9.07 26.07 9.37 25.24 C 7.67 24.04 6.16 22.59 6.67 20.33 C 6.33 19.95 5.65 19.20 5.32 18.82 C 5.42 18.43 5.61 17.64 5.71 17.24 C 4.92 15.79 4.19 14.31 3.52 12.80 C 4.23 13.16 5.64 13.90 6.35 14.26 C 5.42 12.23 4.94 10.06 5.38 7.84 Z" />
<path fill="#ddae00" opacity="1.00" d=" M 71.11 7.76 C 74.24 10.59 72.43 15.10 73.45 18.74 C 72.87 19.39 72.28 20.03 71.67 20.65 C 71.56 19.49 71.46 18.32 71.38 17.16 C 70.62 15.73 69.86 14.30 69.10 12.86 C 70.12 13.28 71.13 13.71 72.14 14.14 C 71.21 12.14 70.86 9.96 71.11 7.76 Z" />
<path fill="#ddae00" opacity="1.00" d=" M 74.07 14.21 C 77.36 14.27 72.62 17.27 74.07 14.21 Z" />
<path fill="#ddae00" opacity="1.00" d=" M 82.07 15.24 C 85.36 15.52 80.44 18.20 82.07 15.24 Z" />
<path fill="#ddae00" opacity="1.00" d=" M 72.15 21.01 C 72.72 21.03 73.85 21.06 74.42 21.08 C 74.27 23.79 76.76 23.08 78.55 23.18 C 78.69 25.22 76.85 27.30 74.81 27.37 C 74.62 26.54 74.49 25.70 74.31 24.88 C 73.24 23.78 72.52 22.49 72.15 21.01 Z" />
<path fill="#ddae00" opacity="1.00" d=" M 26.20 33.05 C 25.31 30.28 23.02 27.26 26.29 25.01 C 27.58 26.47 27.88 28.24 27.55 30.11 C 28.05 30.94 28.56 31.76 29.07 32.59 C 27.98 33.11 27.45 33.99 27.48 35.23 C 26.06 36.47 24.77 37.84 23.56 39.29 L 23.85 36.80 C 22.23 37.83 20.52 38.72 18.63 39.11 C 19.19 38.00 19.97 37.07 20.97 36.33 C 20.45 35.48 19.93 34.64 19.41 33.80 C 21.08 33.71 21.94 34.49 21.99 36.15 C 23.51 35.43 26.36 35.37 26.20 33.05 Z" />
<path fill="#ddae00" opacity="1.00" d=" M 91.96 33.81 C 92.06 30.88 88.02 27.18 92.12 25.42 C 93.88 27.34 92.82 30.52 94.65 32.57 C 94.38 32.78 93.85 33.21 93.58 33.42 C 92.82 35.67 90.94 37.25 89.75 39.25 C 89.47 36.43 87.49 38.02 85.86 38.67 C 83.33 39.32 86.01 36.29 87.24 36.40 C 86.45 35.57 85.67 34.72 84.91 33.86 C 86.58 33.76 87.52 34.91 88.25 36.25 C 89.54 35.54 91.13 35.12 91.96 33.81 Z" />
<path fill="#ddae00" opacity="1.00" d=" M 6.46 33.15 C 7.69 32.32 8.44 32.56 8.71 33.88 C 7.48 34.72 6.73 34.47 6.46 33.15 Z" />
<path fill="#ddae00" opacity="1.00" d=" M 72.38 33.15 C 73.63 32.33 74.37 32.58 74.60 33.90 C 73.35 34.72 72.61 34.47 72.38 33.15 Z" />
<path fill="#ddae00" opacity="1.00" d=" M 46.02 49.87 C 45.10 48.91 45.29 46.63 46.75 46.32 C 48.08 46.79 48.28 48.89 47.41 49.87 L 46.73 50.02 L 46.02 49.87 Z" />
<path fill="#ddae00" opacity="1.00" d=" M 52.64 50.06 C 52.33 48.50 52.93 47.09 53.77 45.81 C 54.44 47.13 54.97 48.53 54.78 50.04 C 54.51 50.13 53.97 50.30 53.70 50.39 C 53.44 50.31 52.91 50.14 52.64 50.06 Z" />
<path fill="#ddae00" opacity="1.00" d=" M 59.22 47.14 C 59.66 46.89 60.54 46.39 60.97 46.13 C 61.19 47.44 61.32 48.75 61.38 50.07 C 61.10 50.14 60.54 50.29 60.27 50.36 C 60.04 50.29 59.58 50.14 59.35 50.07 C 59.32 49.34 59.26 47.87 59.22 47.14 Z" />
<path fill="#ddae00" opacity="1.00" d=" M 47.99 56.65 C 50.80 53.32 55.89 53.52 59.01 56.31 C 56.22 59.90 51.16 59.53 47.99 56.65 M 49.13 56.78 C 51.88 58.40 55.71 59.02 57.95 56.20 C 56.66 55.74 55.36 55.28 54.07 54.84 C 54.22 55.34 54.53 56.34 54.69 56.84 C 54.05 56.84 52.77 56.84 52.13 56.84 C 52.57 56.34 53.46 55.34 53.90 54.84 C 52.14 55.02 50.43 55.55 49.13 56.78 Z" />
<path fill="#ddae00" opacity="1.00" d=" M 45.18 66.04 C 48.26 65.18 47.74 69.30 45.60 70.07 C 45.44 68.73 45.30 67.39 45.18 66.04 Z" />
<path fill="#ddae00" opacity="1.00" d=" M 60.20 66.46 C 61.58 66.59 61.84 67.27 60.99 68.50 C 59.60 68.37 59.34 67.68 60.20 66.46 Z" />
<path fill="#ddae00" opacity="1.00" d=" M 16.56 70.90 C 17.12 71.67 17.68 72.43 18.24 73.20 C 18.61 72.92 19.33 72.36 19.70 72.08 C 20.27 73.68 21.31 75.00 22.46 76.23 C 21.93 76.49 20.87 77.00 20.34 77.25 C 19.99 78.94 19.63 80.63 19.23 82.31 C 19.93 83.07 20.63 83.83 21.33 84.59 C 20.31 85.16 19.29 85.74 18.28 86.33 L 17.89 84.98 C 16.99 85.61 16.01 85.69 15.01 85.30 C 14.53 86.45 14.07 87.60 13.60 88.76 C 12.59 89.22 11.58 89.68 10.56 90.15 C 10.65 88.54 9.47 87.60 8.37 86.68 C 7.01 83.66 6.28 80.40 4.80 77.43 C 5.35 77.58 6.44 77.88 6.99 78.03 C 6.85 76.47 6.73 74.91 6.65 73.35 C 10.53 75.56 6.67 80.13 8.72 83.27 C 9.30 85.77 11.51 86.87 13.93 86.49 C 13.91 84.16 14.58 81.87 16.20 80.15 L 16.80 82.37 C 17.80 81.44 18.63 80.36 19.33 79.19 C 18.30 79.00 16.25 78.60 15.22 78.41 C 15.11 79.03 14.89 80.28 14.78 80.90 C 14.51 78.62 13.14 76.96 11.31 75.72 C 12.59 73.51 15.64 73.30 16.56 70.90 M 14.07 75.07 C 14.32 75.60 14.82 76.66 15.08 77.19 C 16.90 76.90 19.13 77.20 20.15 75.27 C 18.17 76.04 15.96 76.23 14.07 75.07 Z" />
<path fill="#ddae00" opacity="1.00" d=" M 75.76 74.93 C 77.97 74.04 80.02 72.76 81.64 71.00 C 81.89 72.62 83.25 73.01 84.64 73.24 C 85.25 74.15 85.84 75.07 86.40 76.00 C 84.83 77.84 83.53 79.84 82.77 82.16 C 83.53 82.96 84.30 83.77 85.06 84.57 C 84.43 84.82 83.16 85.30 82.53 85.54 C 81.20 85.62 79.87 85.70 78.53 85.79 C 78.21 84.42 77.84 82.96 79.39 82.19 C 78.68 79.52 77.12 77.27 75.76 74.93 M 79.09 75.31 C 78.79 76.70 79.32 77.26 80.69 76.98 C 81.00 75.58 80.46 75.02 79.09 75.31 M 81.85 76.00 C 81.97 76.74 82.21 78.21 82.33 78.94 C 81.53 78.83 79.95 78.61 79.15 78.50 C 79.56 80.17 80.27 81.96 82.15 82.40 C 81.81 81.80 81.13 80.61 80.79 80.02 C 81.33 80.17 82.43 80.48 82.97 80.63 C 82.35 78.54 83.05 76.60 84.05 74.78 C 83.50 75.09 82.40 75.70 81.85 76.00 Z" />
<path fill="#ddae00" opacity="1.00" d=" M 24.77 78.89 C 23.04 75.93 25.62 71.72 29.06 72.13 C 32.11 73.04 34.91 74.64 38.08 75.20 C 35.90 76.47 33.61 75.54 31.52 74.66 C 32.02 75.31 33.01 76.59 33.50 77.24 C 31.41 76.24 29.40 74.98 27.15 74.35 C 25.70 74.74 25.21 76.17 24.94 77.48 L 25.13 77.73 C 25.61 78.31 26.58 79.48 27.06 80.07 C 28.53 80.39 29.99 80.73 31.47 81.01 C 31.78 80.84 32.39 80.50 32.69 80.33 L 32.76 80.29 C 34.09 81.25 35.55 82.02 37.06 82.69 C 37.88 84.42 38.46 86.46 36.72 87.86 C 34.95 87.97 33.19 87.75 31.43 87.62 C 33.25 90.66 33.27 95.21 37.03 96.65 C 36.80 97.61 36.58 98.58 36.34 99.54 C 36.34 101.42 36.32 103.30 36.31 105.18 C 35.31 106.94 34.35 108.72 33.33 110.47 C 33.24 108.69 33.16 106.92 33.09 105.14 C 31.93 105.80 30.77 106.44 29.60 107.08 C 30.29 105.28 31.59 103.87 33.69 104.10 C 34.13 101.52 35.63 98.04 32.77 96.29 C 30.10 94.42 28.83 91.45 27.87 88.46 C 25.55 88.72 23.23 88.99 20.91 89.26 C 21.40 90.25 21.90 91.24 22.39 92.22 C 20.19 94.38 18.56 97.00 17.24 99.77 C 17.19 98.95 17.08 97.29 17.03 96.46 C 15.68 97.16 14.34 97.85 12.99 98.53 C 13.59 97.52 14.20 96.51 14.81 95.50 C 14.48 94.73 13.82 93.18 13.50 92.40 L 14.46 93.33 C 14.99 93.83 16.04 94.84 16.57 95.35 C 17.53 94.32 18.48 93.30 19.44 92.27 C 17.92 90.62 16.37 88.99 14.83 87.36 C 16.42 87.59 18.01 87.81 19.61 88.02 C 22.44 85.43 26.39 85.42 29.91 86.37 C 32.22 86.59 35.28 88.20 36.99 85.88 C 34.44 81.48 27.30 83.52 24.77 78.89 Z" />
<path fill="#ddae00" opacity="1.00" d=" M 70.94 72.77 C 73.54 73.99 72.98 76.97 73.08 79.33 C 73.69 79.04 74.91 78.45 75.52 78.16 C 74.72 79.02 73.73 79.56 72.55 79.78 C 72.66 81.79 72.60 83.86 73.27 85.79 C 74.09 87.66 76.12 86.31 77.57 86.31 C 77.29 89.28 74.24 89.33 71.96 89.70 C 71.57 88.97 71.59 88.12 71.50 87.32 C 70.95 83.90 71.61 80.25 69.75 77.14 L 71.68 77.56 C 71.40 75.97 71.16 74.37 70.94 72.77 Z" />
<path fill="#ddae00" opacity="1.00" d=" M 89.07 76.14 C 89.98 72.59 93.98 72.56 96.91 73.16 C 96.75 73.56 96.43 74.37 96.27 74.77 C 97.70 75.48 99.12 76.20 100.53 76.97 C 97.67 76.89 95.15 75.50 92.74 74.10 C 91.75 74.95 90.24 75.52 89.97 76.94 C 90.46 80.24 94.27 80.12 96.79 80.75 C 98.48 82.07 101.54 83.27 100.91 85.93 C 99.71 89.62 95.04 87.12 92.38 87.30 C 93.90 88.95 95.59 90.44 97.56 91.53 C 96.28 93.50 95.32 95.65 94.68 97.91 C 94.39 97.73 93.82 97.37 93.53 97.19 C 92.64 98.06 91.73 98.92 90.81 99.76 C 91.32 96.93 93.36 94.85 94.98 92.61 C 92.92 91.61 90.98 90.36 89.54 88.55 C 86.67 89.01 83.83 89.65 81.00 90.33 C 80.95 91.35 80.91 92.37 80.87 93.39 C 78.67 95.37 76.56 97.44 74.53 99.59 C 72.86 99.51 71.19 99.42 69.52 99.32 C 71.74 97.10 75.02 96.42 77.23 94.26 C 78.43 91.86 77.50 89.00 77.60 86.43 C 78.13 87.00 79.20 88.15 79.74 88.73 C 84.38 86.86 89.13 85.09 94.25 85.89 L 94.90 86.11 L 95.21 86.58 C 96.55 87.11 97.95 87.28 99.42 87.09 C 99.78 84.15 96.34 83.71 94.42 82.55 C 91.86 81.36 87.99 79.66 89.07 76.14 Z" />
<path fill="#ddae00" opacity="1.00" d=" M 98.86 74.33 C 99.57 74.39 100.98 74.50 101.68 74.56 C 101.95 75.96 98.54 75.63 98.86 74.33 Z" />
<path fill="#ddae00" opacity="1.00" d=" M 8.99 78.45 C 12.29 78.44 7.59 81.52 8.99 78.45 Z" />
<path fill="#ddae00" opacity="1.00" d=" M 86.46 90.12 C 87.26 90.47 88.05 90.83 88.85 91.18 C 87.41 94.13 84.77 97.14 86.60 100.57 C 83.72 102.81 80.47 104.81 78.68 108.13 C 78.29 107.40 77.90 106.67 77.52 105.94 C 76.75 107.72 75.34 108.93 73.45 109.41 C 73.67 107.76 74.57 106.46 75.90 105.52 C 75.73 105.14 75.39 104.40 75.21 104.02 C 76.36 103.03 77.65 102.91 78.94 103.72 C 80.65 102.55 82.79 101.60 83.68 99.60 C 83.89 98.14 83.35 96.70 83.29 95.24 C 83.95 93.33 85.40 91.82 86.46 90.12 Z" />
<path fill="#ddae00" opacity="1.00" d=" M 25.06 101.05 C 30.38 99.16 23.08 92.65 27.73 90.51 C 28.56 93.26 29.23 96.06 29.92 98.86 C 28.20 100.89 26.67 103.08 25.27 105.34 C 25.20 104.69 25.06 103.40 24.99 102.75 C 23.91 103.28 22.84 103.81 21.76 104.33 C 22.61 103.17 23.47 102.02 24.33 100.87 C 23.79 100.87 22.71 100.86 22.17 100.86 C 22.25 100.33 22.42 99.28 22.50 98.75 C 22.68 98.92 23.05 99.25 23.23 99.42 C 23.69 99.83 24.60 100.64 25.06 101.05 Z" />
<path fill="#ddae00" opacity="1.00" d=" M 71.11 93.92 C 71.49 93.93 72.27 93.95 72.66 93.97 C 72.95 94.53 73.54 95.67 73.84 96.24 C 72.36 96.97 70.76 95.44 71.11 93.92 Z" />
<path fill="#ddae00" opacity="1.00" d=" M 90.40 95.04 L 90.90 95.17 L 90.73 95.64 L 90.16 95.54 L 90.40 95.04 Z" />
</g>
</svg>
