<?xml version="1.0" encoding="UTF-8" ?>
<!DOCTYPE svg PUBLIC "-//W3C//DTD SVG 1.1//EN" "http://www.w3.org/Graphics/SVG/1.1/DTD/svg11.dtd">
<svg width="48pt" height="48pt" viewBox="0 0 48 48" version="1.1" xmlns="http://www.w3.org/2000/svg">
<g id="#000000ff">
<path fill="#000000" opacity="1.00" d=" M 0.00 0.00 L 48.00 0.00 L 48.00 48.00 L 0.00 48.00 L 0.00 0.00 M 13.01 10.95 C 9.10 15.59 8.34 22.11 9.08 27.94 C 9.68 33.18 12.66 38.34 17.59 40.55 C 23.39 43.06 31.00 42.15 35.29 37.24 C 37.56 34.69 38.37 31.27 38.55 27.94 C 35.37 27.88 32.19 27.87 29.02 28.11 C 28.46 29.87 28.49 32.40 26.48 33.22 C 23.76 34.66 19.49 33.38 19.14 30.01 C 18.82 26.00 18.82 21.96 19.11 17.95 C 19.41 14.62 23.72 13.25 26.38 14.77 C 28.29 15.59 28.20 18.01 28.89 19.67 C 32.09 19.78 35.29 19.72 38.49 19.58 C 38.05 15.97 37.08 12.16 34.26 9.65 C 28.36 4.48 18.11 4.77 13.01 10.95 Z" />
<path fill="#000000" opacity="1.00" d=" M 15.90 10.83 C 22.46 5.15 35.33 8.27 36.20 17.71 C 34.34 17.73 32.48 17.75 30.61 17.76 C 29.87 12.73 23.48 10.58 19.58 13.54 C 16.20 15.92 16.97 20.49 16.87 24.06 C 16.97 27.39 16.32 31.40 19.03 33.93 C 22.84 37.56 30.10 35.54 30.76 30.07 C 32.67 30.06 34.59 30.06 36.50 30.07 C 35.32 39.53 22.65 42.88 15.85 37.14 C 11.97 34.03 10.77 28.78 10.87 24.02 C 10.82 19.24 12.11 14.03 15.90 10.83 Z" />
</g>
<g id="#bfb216ff">
<path fill="#bfb216" opacity="1.00" d=" M 13.01 10.95 C 18.11 4.77 28.36 4.48 34.26 9.65 C 37.08 12.16 38.05 15.97 38.49 19.58 C 35.29 19.72 32.09 19.78 28.89 19.67 C 28.20 18.01 28.29 15.59 26.38 14.77 C 23.72 13.25 19.41 14.62 19.11 17.95 C 18.82 21.96 18.82 26.00 19.14 30.01 C 19.49 33.38 23.76 34.66 26.48 33.22 C 28.49 32.40 28.46 29.87 29.02 28.11 C 32.19 27.87 35.37 27.88 38.55 27.94 C 38.37 31.27 37.56 34.69 35.29 37.24 C 31.00 42.15 23.39 43.06 17.59 40.55 C 12.66 38.34 9.68 33.18 9.08 27.94 C 8.34 22.11 9.10 15.59 13.01 10.95 M 15.90 10.83 C 12.11 14.03 10.82 19.24 10.87 24.02 C 10.77 28.78 11.97 34.03 15.85 37.14 C 22.65 42.88 35.32 39.53 36.50 30.07 C 34.59 30.06 32.67 30.06 30.76 30.07 C 30.10 35.54 22.84 37.56 19.03 33.93 C 16.32 31.40 16.97 27.39 16.87 24.06 C 16.97 20.49 16.20 15.92 19.58 13.54 C 23.48 10.58 29.87 12.73 30.61 17.76 C 32.48 17.75 34.34 17.73 36.20 17.71 C 35.33 8.27 22.46 5.15 15.90 10.83 Z" />
</g>
</svg>
