<?xml version="1.0" encoding="UTF-8" ?>
<!DOCTYPE svg PUBLIC "-//W3C//DTD SVG 1.1//EN" "http://www.w3.org/Graphics/SVG/1.1/DTD/svg11.dtd">
<svg width="128pt" height="128pt" viewBox="0 0 128 128" version="1.1" xmlns="http://www.w3.org/2000/svg">
<g id="#efeff0ff">
<path fill="#efeff0" opacity="1.00" d=" M 28.63 0.00 L 29.60 0.00 C 37.61 0.13 44.97 5.43 47.89 12.84 C 53.25 11.71 58.76 12.00 64.18 11.42 C 63.76 27.49 64.13 43.57 64.00 59.65 C 55.13 69.49 46.51 80.15 42.39 92.95 C 40.15 98.87 39.40 105.57 41.45 111.66 C 42.51 115.23 44.84 118.20 46.85 121.26 C 39.15 117.82 32.23 112.73 26.62 106.43 C 13.61 91.86 6.20 72.50 5.69 53.00 C 5.22 44.96 7.62 36.86 12.45 30.41 C 18.05 23.07 26.57 18.98 34.95 15.66 C 31.49 10.54 25.08 7.76 18.98 8.16 C 17.08 8.21 15.19 8.24 13.30 8.19 C 16.92 3.38 22.61 0.32 28.63 0.00 M 36.01 59.15 C 35.99 61.66 35.99 64.16 36.02 66.66 C 38.52 66.66 41.01 66.65 43.51 66.64 C 43.51 64.14 43.50 61.65 43.49 59.15 C 41.00 59.15 38.50 59.15 36.01 59.15 Z" />
<path fill="#efeff0" opacity="1.00" d=" M 98.37 0.00 L 99.20 0.00 C 105.37 0.24 111.18 3.44 114.86 8.37 C 110.34 8.39 105.61 7.47 101.31 9.34 C 97.89 10.51 95.13 12.94 92.77 15.59 C 88.59 14.55 84.39 13.62 80.19 12.67 C 83.13 5.34 90.44 0.15 98.37 0.00 Z" />
</g>
<g id="#dfdee0ff">
<path fill="#dfdee0" opacity="1.00" d=" M 12.45 30.41 C 8.41 23.67 8.43 14.51 13.30 8.19 C 15.19 8.24 17.08 8.21 18.98 8.16 C 25.08 7.76 31.49 10.54 34.95 15.66 C 26.57 18.98 18.05 23.07 12.45 30.41 Z" />
<path fill="#dfdee0" opacity="1.00" d=" M 64.18 11.42 C 69.52 11.66 74.92 11.74 80.19 12.67 C 84.39 13.62 88.59 14.55 92.77 15.59 C 101.55 18.33 110.15 22.95 115.71 30.49 C 120.04 36.06 122.34 43.03 122.52 50.06 C 122.68 69.40 116.05 88.82 103.81 103.84 C 97.57 111.82 89.22 117.86 80.07 122.08 C 87.80 114.77 89.77 103.00 85.85 93.27 C 81.58 80.40 73.11 69.47 64.00 59.65 C 64.13 43.57 63.76 27.49 64.18 11.42 M 84.51 59.15 C 84.50 61.65 84.49 64.14 84.49 66.64 C 86.99 66.66 89.48 66.67 91.98 66.67 C 92.00 64.16 92.01 61.66 91.99 59.15 C 89.50 59.15 87.00 59.15 84.51 59.15 Z" />
</g>
<g id="#ceced1ff">
<path fill="#ceced1" opacity="1.00" d=" M 101.31 9.34 C 105.61 7.47 110.34 8.39 114.86 8.37 C 119.68 14.75 119.34 23.64 115.71 30.49 C 110.15 22.95 101.55 18.33 92.77 15.59 C 95.13 12.94 97.89 10.51 101.31 9.34 Z" />
<path fill="#ceced1" opacity="1.00" d=" M 42.39 92.95 C 46.51 80.15 55.13 69.49 64.00 59.65 C 63.92 70.73 64.15 81.82 63.90 92.90 C 56.78 93.76 49.53 93.45 42.39 92.95 Z" />
</g>
<g id="#132f3bff">
<path fill="#132f3b" opacity="1.00" d=" M 36.01 59.15 C 38.50 59.15 41.00 59.15 43.49 59.15 C 43.50 61.65 43.51 64.14 43.51 66.64 C 41.01 66.65 38.52 66.66 36.02 66.66 C 35.99 64.16 35.99 61.66 36.01 59.15 Z" />
<path fill="#132f3b" opacity="1.00" d=" M 51.27 105.33 C 52.62 103.23 54.02 101.16 55.43 99.11 C 58.26 100.99 61.08 102.90 63.94 104.74 C 64.01 107.73 63.98 110.72 63.93 113.72 C 59.65 111.01 55.47 108.16 51.27 105.33 Z" />
</g>
<g id="#000000ff">
<path fill="#000000" opacity="1.00" d=" M 84.51 59.15 C 87.00 59.15 89.50 59.15 91.99 59.15 C 92.01 61.66 92.00 64.16 91.98 66.67 C 89.48 66.67 86.99 66.66 84.49 66.64 C 84.49 64.14 84.50 61.65 84.51 59.15 Z" />
<path fill="#000000" opacity="1.00" d=" M 63.94 104.74 C 66.81 102.78 69.71 100.85 72.64 98.97 C 74.08 101.08 75.49 103.22 76.89 105.36 C 72.60 108.31 68.20 111.11 63.93 114.08 L 63.93 113.72 C 63.98 110.72 64.01 107.73 63.94 104.74 Z" />
</g>
<g id="#aeadb3ff">
<path fill="#aeadb3" opacity="1.00" d=" M 64.00 59.65 C 73.11 69.47 81.58 80.40 85.85 93.27 C 78.61 93.41 71.37 93.30 64.13 93.31 C 63.96 97.12 63.97 100.93 63.94 104.74 C 61.08 102.90 58.26 100.99 55.43 99.11 C 54.02 101.16 52.62 103.23 51.27 105.33 C 55.47 108.16 59.65 111.01 63.93 113.72 L 63.93 114.08 C 64.02 118.72 64.02 123.36 64.00 128.00 L 59.98 128.00 C 55.09 126.87 50.75 124.35 46.85 121.26 C 44.84 118.20 42.51 115.23 41.45 111.66 C 39.40 105.57 40.15 98.87 42.39 92.95 C 49.53 93.45 56.78 93.76 63.90 92.90 C 64.15 81.82 63.92 70.73 64.00 59.65 Z" />
</g>
<g id="#838286ff">
<path fill="#838286" opacity="1.00" d=" M 64.13 93.31 C 71.37 93.30 78.61 93.41 85.85 93.27 C 89.77 103.00 87.80 114.77 80.07 122.08 C 76.91 124.93 73.02 126.68 69.02 128.00 L 64.00 128.00 C 64.02 123.36 64.02 118.72 63.93 114.08 C 68.20 111.11 72.60 108.31 76.89 105.36 C 75.49 103.22 74.08 101.08 72.64 98.97 C 69.71 100.85 66.81 102.78 63.94 104.74 C 63.97 100.93 63.96 97.12 64.13 93.31 Z" />
</g>
</svg>
