<?xml version="1.0" encoding="UTF-8" ?>
<!DOCTYPE svg PUBLIC "-//W3C//DTD SVG 1.1//EN" "http://www.w3.org/Graphics/SVG/1.1/DTD/svg11.dtd">
<svg width="32pt" height="32pt" viewBox="0 0 32 32" version="1.1" xmlns="http://www.w3.org/2000/svg">
<g id="#262a2dff">
<path fill="#262a2d" opacity="1.00" d=" M 4.63 0.00 L 27.11 0.00 C 29.37 0.77 31.03 2.45 32.00 4.61 L 32.00 27.12 C 31.22 29.38 29.54 31.04 27.37 32.00 L 4.90 32.00 C 2.63 31.23 0.97 29.55 0.00 27.39 L 0.00 4.87 C 0.79 2.62 2.46 0.96 4.63 0.00 M 7.39 15.30 C 7.80 15.69 8.61 16.46 9.01 16.85 C 10.82 15.06 12.61 13.25 14.39 11.42 C 14.28 15.97 14.32 20.52 14.31 25.07 C 14.91 25.07 16.09 25.08 16.69 25.08 C 16.68 20.53 16.73 15.99 16.61 11.44 C 18.38 13.26 20.17 15.07 21.98 16.85 C 22.38 16.46 23.20 15.68 23.60 15.29 C 20.90 12.58 18.20 9.87 15.50 7.16 C 12.78 9.86 10.08 12.58 7.39 15.30 Z" />
</g>
<g id="#fbfbfbff">
<path fill="#fbfbfb" opacity="1.00" d=" M 7.39 15.30 C 10.08 12.58 12.78 9.86 15.50 7.16 C 18.20 9.87 20.90 12.58 23.60 15.29 C 23.20 15.68 22.38 16.46 21.98 16.85 C 20.17 15.07 18.38 13.26 16.61 11.44 C 16.73 15.99 16.68 20.53 16.69 25.08 C 16.09 25.08 14.91 25.07 14.31 25.07 C 14.32 20.52 14.28 15.97 14.39 11.42 C 12.61 13.25 10.82 15.06 9.01 16.85 C 8.61 16.46 7.80 15.69 7.39 15.30 Z" />
</g>
</svg>
