<?xml version="1.0" encoding="UTF-8" ?>
<!DOCTYPE svg PUBLIC "-//W3C//DTD SVG 1.1//EN" "http://www.w3.org/Graphics/SVG/1.1/DTD/svg11.dtd">
<svg width="240pt" height="240pt" viewBox="0 0 240 240" version="1.1" xmlns="http://www.w3.org/2000/svg">
<g id="#000000ff">
<path fill="#000000" opacity="1.00" d=" M 0.00 0.00 L 240.00 0.00 L 240.00 240.00 L 0.00 240.00 L 0.00 0.00 M 83.64 26.06 L 83.53 26.48 C 82.10 27.07 80.70 27.72 79.30 28.36 L 79.31 28.59 C 68.60 35.03 59.84 45.66 57.43 58.11 C 57.05 63.28 58.44 68.37 61.02 72.83 C 62.53 72.86 64.04 72.90 65.55 72.94 C 65.70 72.21 66.00 70.77 66.15 70.05 C 66.15 70.83 66.15 72.40 66.15 73.18 C 64.54 73.14 62.94 73.12 61.34 73.11 C 65.52 79.20 71.39 83.97 77.80 87.53 C 79.78 88.95 80.36 91.21 80.59 93.49 C 77.77 98.41 75.04 103.39 71.71 107.99 C 71.32 108.71 70.87 109.40 70.57 110.17 C 69.54 111.37 68.51 112.59 67.74 113.99 C 65.71 116.49 63.97 119.21 62.28 121.95 C 63.43 122.10 64.16 122.70 64.48 123.73 C 64.85 124.05 65.60 124.70 65.97 125.02 C 64.48 124.16 63.01 123.28 61.53 122.41 L 60.83 124.16 C 60.25 124.89 59.68 125.62 59.11 126.36 C 56.90 129.99 54.48 133.50 52.63 137.34 L 51.56 137.84 L 52.91 138.43 L 51.83 138.36 C 49.99 142.35 47.95 146.27 46.66 150.49 C 46.00 152.97 45.02 155.39 44.84 157.97 C 44.94 160.93 46.93 164.16 50.05 164.58 C 52.34 164.94 54.31 163.48 55.97 162.11 L 56.99 162.03 C 56.55 161.63 55.67 160.84 55.23 160.44 C 55.72 160.52 56.71 160.66 57.21 160.74 C 59.27 158.76 60.72 156.26 62.17 153.82 C 64.58 150.77 66.64 147.42 68.57 144.04 C 68.84 143.68 69.11 143.33 69.38 142.98 C 71.10 140.24 72.80 137.49 74.30 134.63 L 74.68 134.42 C 75.04 133.73 75.41 133.04 75.77 132.35 C 76.24 131.46 76.71 130.57 77.20 129.69 C 79.81 124.60 83.36 119.80 84.84 114.25 C 84.62 112.88 84.46 111.50 84.21 110.14 C 84.50 111.04 84.82 111.93 85.19 112.80 C 87.35 112.79 87.34 109.27 88.39 107.79 C 87.59 105.74 86.36 103.90 85.38 101.94 C 86.60 103.64 87.64 105.45 88.76 107.21 C 90.35 104.27 90.97 100.71 93.30 98.22 C 95.64 95.97 98.89 97.70 101.43 98.59 C 102.50 98.98 103.57 99.36 104.66 99.73 C 107.05 100.72 109.03 103.35 107.95 106.00 C 104.94 113.61 101.25 120.93 97.89 128.40 C 97.72 128.69 97.40 129.28 97.23 129.58 C 96.13 131.96 94.81 134.26 94.00 136.77 C 93.68 137.27 93.03 138.28 92.71 138.78 L 92.88 138.96 C 90.00 143.86 87.57 149.01 84.93 154.04 C 84.15 155.54 83.33 157.03 82.48 158.50 C 82.24 158.99 81.75 159.97 81.50 160.46 C 77.60 167.17 73.92 174.01 69.78 180.57 C 71.53 180.39 73.28 180.27 75.03 180.13 C 73.09 180.57 71.21 181.26 69.25 181.57 C 68.18 183.28 67.13 185.00 66.10 186.74 C 66.90 186.58 68.50 186.27 69.31 186.11 C 69.76 186.25 70.68 186.52 71.14 186.65 C 69.72 186.62 68.31 186.62 66.89 186.64 C 65.64 187.82 64.32 189.04 63.64 190.67 C 60.59 195.03 58.57 202.29 63.94 205.77 C 64.85 206.19 65.89 206.51 67.04 206.71 C 74.26 204.91 78.50 198.18 83.33 193.10 C 83.68 193.18 84.36 193.35 84.71 193.43 C 83.84 198.58 80.60 203.21 78.90 208.19 C 78.19 209.71 77.53 211.25 76.99 212.84 L 76.23 214.36 C 76.00 215.23 75.76 216.09 75.52 216.96 C 75.35 219.58 76.17 222.05 77.72 224.14 C 82.18 225.51 85.40 221.63 87.66 218.41 L 87.77 218.41 C 89.27 216.44 90.62 214.36 92.03 212.33 C 92.79 211.24 93.53 210.15 94.26 209.05 C 94.55 208.71 95.14 208.03 95.43 207.68 L 95.37 207.51 C 97.11 205.02 98.79 202.49 100.54 200.01 C 101.02 199.30 101.50 198.60 101.99 197.91 C 102.21 197.36 102.66 196.27 102.88 195.73 C 108.07 188.72 112.32 181.04 116.54 173.42 L 116.57 173.81 C 116.99 173.01 117.41 172.20 117.83 171.40 C 119.06 169.01 120.37 166.66 121.74 164.35 C 120.32 164.02 118.90 163.70 117.48 163.40 C 117.56 163.33 117.72 163.19 117.80 163.13 C 119.12 163.39 120.44 163.66 121.77 163.92 C 122.36 162.40 123.88 161.04 123.79 159.35 L 123.95 158.88 L 124.52 158.74 C 125.30 157.30 126.00 155.81 126.77 154.35 L 127.18 154.35 C 127.18 154.05 127.19 153.46 127.20 153.16 C 133.27 141.85 137.91 129.85 143.09 118.14 C 143.60 115.90 147.10 117.24 146.66 119.19 C 146.24 120.84 145.47 122.38 144.96 124.01 C 144.33 125.35 143.79 126.72 143.30 128.11 C 143.03 128.66 142.49 129.74 142.22 130.28 C 141.91 135.40 143.86 141.36 140.67 145.85 C 142.90 141.55 142.08 136.49 141.95 131.85 C 136.91 143.37 132.76 155.26 127.86 166.84 C 127.65 167.35 127.22 168.35 127.00 168.86 L 126.86 169.43 C 126.20 171.00 125.57 172.58 124.96 174.18 C 122.43 180.66 119.85 187.12 117.24 193.57 C 117.23 194.00 117.20 194.85 117.19 195.27 L 117.15 195.71 L 116.43 195.93 L 115.98 196.55 C 115.10 198.86 114.11 201.14 112.96 203.34 L 113.21 204.66 C 112.60 205.75 112.00 206.85 111.41 207.95 C 110.07 211.52 109.32 215.37 110.24 219.15 C 111.17 220.41 112.00 221.79 113.21 222.82 C 116.17 224.42 120.32 223.60 122.18 220.72 L 122.83 220.74 C 123.20 220.29 123.93 219.38 124.30 218.93 L 124.84 218.93 C 125.34 218.12 125.87 217.33 126.36 216.52 C 129.10 212.32 131.69 208.02 134.31 203.74 C 135.15 202.32 135.95 200.87 136.67 199.38 C 136.86 199.16 137.24 198.74 137.43 198.52 C 139.32 194.56 141.47 190.73 143.56 186.87 L 143.47 186.74 C 146.42 180.89 149.20 174.96 151.64 168.88 L 151.85 168.83 C 152.72 166.45 153.65 164.09 154.55 161.72 L 154.71 161.84 C 155.56 159.42 156.39 156.99 157.08 154.52 L 158.22 153.80 C 154.76 153.00 151.70 151.25 148.70 149.41 C 151.59 150.39 154.01 152.60 157.12 152.92 C 157.52 152.25 158.33 150.92 158.73 150.25 C 161.40 142.50 163.85 134.66 165.59 126.65 L 165.76 126.52 C 166.18 124.80 166.59 123.09 167.01 121.37 C 170.88 120.73 174.50 119.15 177.68 116.87 L 177.67 116.65 C 183.34 111.32 185.79 103.74 188.71 96.74 C 190.51 92.49 191.60 87.98 192.17 83.40 L 192.32 83.61 C 192.52 79.46 192.83 75.27 192.05 71.16 C 191.26 63.99 188.81 57.04 185.17 50.82 C 184.35 49.80 183.87 47.86 182.13 48.28 L 183.12 47.51 C 179.60 42.98 175.69 38.71 171.02 35.36 C 163.02 29.35 153.61 25.52 144.05 22.69 C 142.87 22.55 141.66 21.92 140.47 22.25 C 139.23 23.30 138.20 24.56 137.10 25.75 L 137.99 27.07 L 137.80 27.10 C 136.12 24.60 133.77 22.31 130.53 22.42 C 133.21 22.06 135.37 23.55 137.14 25.41 C 138.16 24.20 139.18 22.99 140.19 21.77 C 121.54 17.46 101.18 17.77 83.64 26.06 Z" />
<path fill="#000000" opacity="1.00" d=" M 162.03 40.11 C 163.33 38.43 165.64 38.80 167.50 38.83 C 169.41 40.56 171.13 42.49 172.67 44.56 C 174.37 47.22 175.91 50.00 177.06 52.94 C 177.53 54.33 177.88 55.75 178.25 57.17 C 177.98 60.94 173.62 61.70 171.01 59.68 C 170.31 59.02 169.62 58.34 168.97 57.65 C 167.01 53.94 164.64 50.48 162.47 46.90 C 153.76 49.93 145.10 53.15 136.62 56.78 C 136.75 57.22 137.00 58.10 137.12 58.54 C 136.88 57.84 136.63 57.15 136.39 56.45 C 141.90 54.09 147.57 52.15 153.11 49.89 C 156.01 48.73 158.94 47.66 161.86 46.57 C 161.64 44.47 160.42 41.96 162.03 40.11 Z" />
<path fill="#000000" opacity="1.00" d=" M 78.99 44.41 C 82.62 42.72 86.39 41.15 90.44 40.92 C 90.09 41.43 89.40 42.45 89.06 42.96 C 85.52 44.57 81.73 45.62 78.33 47.57 L 77.68 47.90 C 71.63 52.06 67.88 59.69 69.60 67.03 C 70.91 72.44 75.77 75.94 81.04 76.95 C 80.26 78.09 79.31 79.04 77.78 78.66 C 74.98 77.55 72.46 75.88 70.21 73.89 C 68.88 71.94 67.82 69.82 66.93 67.65 C 65.35 58.86 69.69 49.68 77.40 45.25 C 77.80 45.04 78.59 44.62 78.99 44.41 Z" />
<path fill="#000000" opacity="1.00" d=" M 107.60 81.80 C 107.91 75.86 115.04 71.97 120.22 74.80 C 123.60 76.39 125.15 80.12 125.08 83.69 C 124.60 86.22 122.99 88.24 121.16 89.96 C 121.18 91.02 121.21 92.09 121.27 93.16 C 121.08 92.40 120.70 90.87 120.51 90.10 L 118.77 90.87 C 117.00 91.02 115.23 91.10 113.45 91.10 C 112.03 90.16 110.68 89.14 109.32 88.13 C 109.08 88.60 108.60 89.56 108.36 90.03 C 108.92 87.89 108.38 85.75 107.83 83.67 C 107.78 83.20 107.66 82.27 107.60 81.80 M 112.55 81.46 C 111.53 83.86 113.77 85.85 115.90 86.41 C 116.97 85.95 118.04 85.49 119.12 85.06 C 119.57 83.49 120.28 81.64 119.07 80.22 C 117.44 77.75 113.08 78.48 112.55 81.46 Z" />
<path fill="#000000" opacity="1.00" d=" M 150.21 90.45 C 152.35 89.09 154.89 88.70 157.38 88.61 C 161.02 90.43 163.10 94.15 162.52 98.24 C 165.04 97.53 167.56 96.65 170.20 96.55 C 167.54 97.03 164.95 97.81 162.37 98.62 C 161.07 100.17 159.68 101.67 157.92 102.70 L 157.12 103.21 C 155.69 103.20 154.27 103.17 152.85 103.12 C 153.62 105.55 154.42 107.98 154.96 110.48 C 153.93 108.01 153.15 105.46 152.30 102.94 C 148.65 100.51 148.09 96.08 146.39 92.40 C 146.80 92.84 147.63 93.71 148.04 94.15 C 148.74 92.90 149.45 91.66 150.21 90.45 M 152.75 95.10 C 153.10 96.12 153.47 97.14 153.85 98.15 C 154.67 98.03 156.32 97.80 157.14 97.69 C 157.98 95.74 157.15 93.97 155.11 93.34 C 154.32 93.93 153.54 94.51 152.75 95.10 Z" />
</g>
<g id="#d8bfa4ff">
<path fill="#d8bfa4" opacity="1.00" d=" M 83.64 26.06 C 101.18 17.77 121.54 17.46 140.19 21.77 C 139.18 22.99 138.16 24.20 137.14 25.41 C 135.37 23.55 133.21 22.06 130.53 22.42 C 132.34 24.19 134.23 25.91 136.33 27.33 C 136.70 27.27 137.43 27.16 137.80 27.10 L 137.99 27.07 C 138.66 28.07 139.34 29.07 140.02 30.07 C 141.31 27.58 142.65 25.12 144.05 22.69 C 153.61 25.52 163.02 29.35 171.02 35.36 C 171.21 35.88 171.58 36.91 171.77 37.43 C 171.09 37.44 169.74 37.48 169.07 37.49 C 168.68 37.82 167.89 38.49 167.50 38.83 C 165.64 38.80 163.33 38.43 162.03 40.11 C 160.42 41.96 161.64 44.47 161.86 46.57 C 158.94 47.66 156.01 48.73 153.11 49.89 C 153.81 46.04 154.49 42.18 155.11 38.32 C 152.39 38.36 149.67 38.26 146.96 38.07 C 142.11 37.67 137.49 39.51 132.77 40.26 C 131.74 38.72 130.76 37.15 129.78 35.59 C 128.61 35.95 127.46 36.36 126.26 36.59 C 123.84 36.47 120.91 36.73 119.32 34.51 C 116.83 31.69 114.21 28.97 111.06 26.87 C 111.26 28.36 111.48 29.85 111.63 31.35 C 111.24 33.35 110.68 35.31 110.16 37.28 L 109.59 35.78 C 109.21 39.16 108.33 43.53 111.66 45.75 C 113.14 46.78 114.65 47.79 116.11 48.84 L 114.50 48.78 C 116.11 50.38 117.80 51.90 119.55 53.34 C 117.71 54.49 116.06 55.89 114.59 57.48 C 113.39 56.71 112.18 55.94 111.01 55.13 C 109.70 53.87 108.68 52.36 107.77 50.80 C 110.50 45.65 104.90 41.63 101.40 38.78 C 103.57 35.89 105.48 32.82 106.99 29.55 C 105.24 30.62 103.52 31.72 101.80 32.85 C 99.91 31.67 98.02 30.48 96.15 29.27 C 96.25 28.66 96.45 27.42 96.55 26.81 C 99.49 26.63 102.70 26.19 104.58 23.63 C 102.92 24.02 101.27 24.44 99.66 25.00 C 95.33 24.51 91.16 25.76 87.22 27.41 C 86.07 27.66 84.91 27.84 83.76 28.04 C 83.73 27.55 83.67 26.56 83.64 26.06 M 126.44 22.17 C 126.63 23.52 127.34 23.75 128.55 22.84 C 128.35 21.49 127.64 21.27 126.44 22.17 M 145.26 24.93 C 147.95 27.87 148.67 31.71 148.27 35.59 C 150.89 35.11 153.51 34.67 156.13 34.21 C 154.55 33.65 152.97 33.11 151.39 32.56 C 150.32 29.38 148.64 26.12 145.26 24.93 Z" />
<path fill="#d8bfa4" opacity="1.00" d=" M 57.43 58.11 C 59.84 45.66 68.60 35.03 79.31 28.59 C 79.35 29.08 79.43 30.05 79.47 30.54 C 79.56 31.99 79.82 33.43 80.39 34.77 C 82.63 38.01 80.06 41.30 78.99 44.41 C 78.59 44.62 77.80 45.04 77.40 45.25 C 74.63 43.54 71.48 42.75 68.25 42.58 C 68.30 43.08 68.40 44.09 68.45 44.59 C 67.79 44.71 66.46 44.96 65.80 45.09 C 66.17 45.94 66.53 46.79 66.90 47.63 C 65.31 48.47 63.61 49.18 62.22 50.36 C 61.37 53.03 61.18 55.84 60.79 58.60 C 59.67 58.44 58.55 58.27 57.43 58.11 Z" />
<path fill="#d8bfa4" opacity="1.00" d=" M 90.00 31.92 C 90.82 30.94 91.69 30.00 92.62 29.13 C 95.86 31.10 98.51 33.92 99.20 37.78 C 95.98 36.08 92.92 34.10 90.00 31.92 Z" />
<path fill="#d8bfa4" opacity="1.00" d=" M 178.25 57.17 C 179.91 60.27 182.86 56.44 184.89 55.65 C 183.32 60.53 178.46 63.71 177.90 68.94 C 180.11 67.23 182.30 65.50 184.55 63.84 C 187.08 67.62 189.88 71.22 192.09 75.21 C 192.11 76.99 192.07 78.77 192.05 80.55 C 189.64 78.46 187.47 76.08 184.85 74.25 C 181.38 72.01 177.05 72.64 173.24 73.45 C 173.38 68.75 172.30 64.16 171.01 59.68 C 173.62 61.70 177.98 60.94 178.25 57.17 Z" />
<path fill="#d8bfa4" opacity="1.00" d=" M 141.16 81.00 C 141.63 79.32 143.43 78.79 144.77 77.99 C 144.86 79.32 144.97 80.66 145.10 81.99 C 149.03 81.81 153.01 81.25 156.92 81.98 C 160.57 82.57 162.28 86.26 165.02 88.31 C 170.38 87.74 175.57 86.13 180.90 85.32 C 180.61 85.19 180.02 84.93 179.73 84.80 C 180.32 84.65 181.51 84.34 182.11 84.18 C 182.81 85.87 186.97 85.45 184.92 83.52 C 185.42 83.43 186.43 83.25 186.93 83.16 C 187.50 84.69 189.52 84.46 190.02 83.00 C 190.27 82.71 190.77 82.14 191.02 81.85 C 191.31 82.24 191.89 83.02 192.17 83.40 C 191.60 87.98 190.51 92.49 188.71 96.74 C 185.79 103.74 183.34 111.32 177.67 116.65 C 177.59 115.41 177.53 114.16 177.46 112.92 C 173.21 112.86 169.25 114.45 166.73 117.96 C 166.42 117.02 166.14 116.07 165.89 115.11 C 169.26 110.74 174.31 108.21 178.87 105.32 C 179.72 104.73 180.56 104.14 181.40 103.54 C 179.97 102.59 178.55 101.62 177.06 100.75 C 175.18 100.69 173.29 100.74 171.41 100.78 C 171.84 99.52 172.26 98.27 172.63 97.00 C 172.02 96.89 170.81 96.66 170.20 96.55 C 167.56 96.65 165.04 97.53 162.52 98.24 C 163.10 94.15 161.02 90.43 157.38 88.61 C 155.31 86.97 152.85 86.02 150.28 85.51 C 151.14 84.65 151.99 83.79 152.84 82.94 C 149.71 83.63 146.61 84.66 143.38 84.81 C 142.36 83.73 141.56 82.44 141.16 81.00 M 171.47 95.31 C 172.42 96.48 176.26 97.48 176.64 95.29 C 175.16 94.34 173.00 94.61 171.47 95.31 Z" />
<path fill="#d8bfa4" opacity="1.00" d=" M 159.53 131.46 C 161.60 129.93 163.48 128.14 165.59 126.65 C 163.85 134.66 161.40 142.50 158.73 150.25 C 157.40 148.54 155.96 146.90 154.53 145.26 C 155.65 143.77 156.88 142.33 157.69 140.64 C 158.99 138.49 156.68 136.71 155.66 135.03 C 155.71 134.15 155.77 133.28 155.83 132.42 C 155.01 132.38 154.21 132.35 153.40 132.32 C 151.28 130.48 148.62 130.01 145.91 130.41 C 147.75 129.61 149.55 128.16 151.67 128.53 C 154.44 129.07 156.83 130.71 159.53 131.46 Z" />
<path fill="#d8bfa4" opacity="1.00" d=" M 132.08 162.26 C 134.24 161.95 136.41 161.72 138.57 161.39 C 140.56 162.24 142.69 163.28 144.88 162.40 C 145.53 162.72 146.19 163.05 146.84 163.38 C 145.45 163.93 144.06 164.48 142.67 165.03 C 143.70 166.77 144.74 168.51 145.77 170.24 C 147.73 169.78 149.68 169.33 151.64 168.88 C 149.20 174.96 146.42 180.89 143.47 186.74 C 142.30 184.28 140.27 182.18 137.36 183.03 C 136.79 182.51 136.24 182.00 135.68 181.49 C 134.40 182.11 133.13 182.73 131.85 183.35 C 130.90 180.46 132.03 177.58 132.74 174.79 C 136.48 174.61 140.22 174.45 143.96 174.15 C 143.03 172.12 142.10 170.10 141.16 168.08 C 141.45 167.52 142.02 166.40 142.31 165.84 C 138.60 167.06 135.03 170.68 130.95 169.40 C 134.11 167.28 137.58 165.68 141.16 164.43 C 138.03 164.22 134.94 163.58 132.08 162.26 Z" />
</g>
<g id="#bc9d82ff">
<path fill="#bc9d82" opacity="1.00" d=" M 126.44 22.17 C 127.64 21.27 128.35 21.49 128.55 22.84 C 127.34 23.75 126.63 23.52 126.44 22.17 Z" />
</g>
<g id="#eee1d4ff">
<path fill="#eee1d4" opacity="1.00" d=" M 140.47 22.25 C 141.66 21.92 142.87 22.55 144.05 22.69 C 142.65 25.12 141.31 27.58 140.02 30.07 C 139.34 29.07 138.66 28.07 137.99 27.07 L 137.10 25.75 C 138.20 24.56 139.23 23.30 140.47 22.25 Z" />
</g>
<g id="#e9dacbff">
<path fill="#e9dacb" opacity="1.00" d=" M 130.53 22.42 C 133.77 22.31 136.12 24.60 137.80 27.10 C 137.43 27.16 136.70 27.27 136.33 27.33 C 134.23 25.91 132.34 24.19 130.53 22.42 Z" />
</g>
<g id="#b59579ff">
<path fill="#b59579" opacity="1.00" d=" M 99.66 25.00 C 101.27 24.44 102.92 24.02 104.58 23.63 C 102.70 26.19 99.49 26.63 96.55 26.81 C 97.58 26.19 98.61 25.59 99.66 25.00 Z" />
</g>
<g id="#f1e5d8ff">
<path fill="#f1e5d8" opacity="1.00" d=" M 87.22 27.41 C 91.16 25.76 95.33 24.51 99.66 25.00 C 98.61 25.59 97.58 26.19 96.55 26.81 C 95.23 27.57 93.91 28.32 92.62 29.13 C 91.69 30.00 90.82 30.94 90.00 31.92 C 88.13 34.49 86.47 37.21 84.76 39.90 C 83.64 37.94 82.77 35.53 80.39 34.77 C 82.33 32.03 84.35 29.26 87.22 27.41 Z" />
<path fill="#f1e5d8" opacity="1.00" d=" M 112.19 28.70 C 114.71 30.91 117.04 33.33 119.19 35.91 C 115.99 37.75 113.24 40.25 111.09 43.26 C 110.06 41.42 110.05 39.33 110.16 37.28 C 110.68 35.31 111.24 33.35 111.63 31.35 C 111.77 30.69 112.05 29.36 112.19 28.70 Z" />
<path fill="#f1e5d8" opacity="1.00" d=" M 126.26 36.59 C 127.46 36.36 128.61 35.95 129.78 35.59 C 130.76 37.15 131.74 38.72 132.77 40.26 C 134.49 42.79 136.25 45.29 137.94 47.83 C 135.31 49.72 132.31 51.02 129.01 50.84 C 126.45 50.62 124.36 52.05 122.45 53.55 C 120.34 51.97 118.28 50.34 116.11 48.84 C 114.65 47.79 113.14 46.78 111.66 45.75 C 112.51 43.42 113.32 40.90 115.31 39.26 C 118.18 36.33 122.61 37.30 126.26 36.59 Z" />
<path fill="#f1e5d8" opacity="1.00" d=" M 171.02 35.36 C 175.69 38.71 179.60 42.98 183.12 47.51 L 182.13 48.28 C 180.31 49.69 178.70 51.33 177.06 52.94 C 175.91 50.00 174.37 47.22 172.67 44.56 C 172.83 42.15 172.57 39.72 171.77 37.43 C 171.58 36.91 171.21 35.88 171.02 35.36 Z" />
<path fill="#f1e5d8" opacity="1.00" d=" M 93.03 47.96 C 96.00 45.79 98.58 43.09 101.80 41.26 C 104.25 44.13 105.82 47.60 107.77 50.80 C 108.68 52.36 109.70 53.87 111.01 55.13 C 106.98 58.84 103.60 63.20 101.30 68.19 C 100.13 66.95 98.95 65.73 97.75 64.53 L 97.46 64.24 C 96.74 64.02 95.29 63.59 94.57 63.37 C 95.42 64.55 96.80 65.45 97.22 66.89 C 93.81 71.37 87.14 71.78 84.14 76.72 C 83.43 78.54 82.81 80.39 82.15 82.22 L 81.49 82.10 C 80.20 81.01 78.99 79.84 77.78 78.66 C 79.31 79.04 80.26 78.09 81.04 76.95 C 75.77 75.94 70.91 72.44 69.60 67.03 C 69.66 66.50 69.78 65.45 69.83 64.93 C 72.83 64.30 75.91 64.29 78.93 63.83 C 81.23 63.16 83.09 61.43 85.50 61.07 L 86.07 61.26 C 88.74 62.32 91.44 63.31 94.24 64.00 C 92.10 62.84 89.92 61.79 87.73 60.75 C 89.04 56.74 90.85 52.92 92.51 49.06 C 91.29 50.46 90.10 51.88 88.89 53.30 C 89.32 51.33 89.30 49.18 90.29 47.39 C 91.74 45.51 93.76 44.20 95.60 42.73 C 94.73 44.47 93.86 46.21 93.03 47.96 Z" />
<path fill="#f1e5d8" opacity="1.00" d=" M 136.62 56.78 C 145.10 53.15 153.76 49.93 162.47 46.90 C 164.64 50.48 167.01 53.94 168.97 57.65 C 170.67 63.15 172.58 68.78 171.70 74.63 C 163.31 76.91 154.80 78.70 146.38 80.84 C 146.19 80.01 145.80 78.36 145.61 77.53 C 144.11 70.64 139.22 65.20 137.12 58.54 C 137.00 58.10 136.75 57.22 136.62 56.78 Z" />
<path fill="#f1e5d8" opacity="1.00" d=" M 77.68 47.90 L 78.33 47.57 C 81.06 48.78 83.91 49.91 86.24 51.82 C 86.57 53.26 86.31 54.75 86.21 56.20 C 85.87 57.62 85.49 59.03 85.27 60.48 C 83.81 55.71 81.02 51.55 77.68 47.90 Z" />
<path fill="#f1e5d8" opacity="1.00" d=" M 113.01 61.76 C 114.73 62.65 116.46 63.53 118.18 64.42 C 118.72 64.13 119.79 63.54 120.33 63.24 C 121.84 64.52 123.55 65.66 124.61 67.38 C 125.49 69.82 125.28 72.48 125.51 75.03 C 125.69 72.40 125.86 69.77 126.03 67.14 C 128.72 68.77 131.36 70.48 133.92 72.32 C 133.42 73.26 132.92 74.21 132.42 75.17 C 134.04 75.04 135.67 74.94 137.30 74.86 C 134.29 79.12 129.41 81.11 125.08 83.69 C 125.15 80.12 123.60 76.39 120.22 74.80 C 115.04 71.97 107.91 75.86 107.60 81.80 C 105.61 80.48 103.68 79.07 101.79 77.63 C 103.36 79.53 104.90 81.46 106.31 83.48 C 103.82 83.20 101.80 81.80 100.07 80.08 C 100.13 80.67 100.25 81.85 100.31 82.44 C 97.18 82.30 94.41 80.98 92.66 78.35 C 94.19 77.97 95.73 77.59 97.26 77.21 C 97.00 76.66 96.46 75.57 96.20 75.02 C 96.97 75.05 98.51 75.11 99.29 75.14 C 99.00 74.54 98.43 73.34 98.14 72.73 C 101.58 73.13 104.79 74.45 107.72 76.24 C 109.69 71.49 112.42 66.97 113.01 61.76 M 98.24 78.28 C 98.76 78.77 98.76 78.77 98.24 78.28 Z" />
<path fill="#f1e5d8" opacity="1.00" d=" M 66.93 67.65 C 67.82 69.82 68.88 71.94 70.21 73.89 C 69.43 73.85 67.86 73.78 67.07 73.75 C 71.17 77.14 76.47 78.92 79.98 83.03 C 78.63 83.75 75.82 84.23 78.34 85.75 C 78.16 86.34 77.98 86.94 77.80 87.53 C 71.39 83.97 65.52 79.20 61.34 73.11 C 62.94 73.12 64.54 73.14 66.15 73.18 C 66.15 72.40 66.15 70.83 66.15 70.05 C 66.34 69.45 66.73 68.25 66.93 67.65 Z" />
<path fill="#f1e5d8" opacity="1.00" d=" M 168.07 77.12 C 172.11 76.22 175.77 73.53 180.06 73.98 C 184.95 74.15 188.12 78.46 191.02 81.85 C 190.77 82.14 190.27 82.71 190.02 83.00 C 189.25 83.04 187.70 83.12 186.93 83.16 C 186.43 83.25 185.42 83.43 184.92 83.52 C 184.22 83.68 182.81 84.01 182.11 84.18 C 181.51 84.34 180.32 84.65 179.73 84.80 C 174.96 85.62 170.21 86.64 165.38 87.06 C 163.10 83.86 160.02 81.35 156.29 80.04 C 160.15 78.79 164.14 78.07 168.07 77.12 Z" />
<path fill="#f1e5d8" opacity="1.00" d=" M 112.55 81.46 C 113.08 78.48 117.44 77.75 119.07 80.22 C 120.28 81.64 119.57 83.49 119.12 85.06 C 118.04 85.49 116.97 85.95 115.90 86.41 C 113.77 85.85 111.53 83.86 112.55 81.46 Z" />
<path fill="#f1e5d8" opacity="1.00" d=" M 83.30 93.87 C 82.69 89.61 82.66 84.83 84.87 81.00 C 91.75 81.66 98.57 83.00 105.39 84.10 L 105.64 84.73 C 103.43 89.08 101.68 93.66 101.43 98.59 C 98.89 97.70 95.64 95.97 93.30 98.22 C 90.97 100.71 90.35 104.27 88.76 107.21 C 87.64 105.45 86.60 103.64 85.38 101.94 C 86.36 103.90 87.59 105.74 88.39 107.79 C 87.34 109.27 87.35 112.79 85.19 112.80 C 84.82 111.93 84.50 111.04 84.21 110.14 C 84.46 111.50 84.62 112.88 84.84 114.25 C 83.36 119.80 79.81 124.60 77.20 129.69 C 75.87 127.60 74.53 125.52 73.16 123.46 C 73.01 124.12 72.72 125.45 72.57 126.11 C 70.45 124.52 68.25 123.02 66.05 121.54 C 66.64 123.12 67.35 124.74 66.93 126.47 C 68.44 127.51 69.98 128.51 71.52 129.50 C 71.38 129.74 71.11 130.22 70.98 130.46 C 67.32 128.86 63.59 127.14 60.83 124.16 L 61.53 122.41 C 63.01 123.28 64.48 124.16 65.97 125.02 C 65.60 124.70 64.85 124.05 64.48 123.73 C 64.16 122.70 63.43 122.10 62.28 121.95 C 65.05 119.62 67.83 117.27 70.88 115.31 C 71.10 117.22 71.31 119.14 71.52 121.06 C 71.70 119.10 71.88 117.15 72.06 115.20 C 76.48 112.55 81.91 111.11 85.23 106.96 C 82.97 107.91 80.89 109.22 78.90 110.65 C 76.12 110.86 72.87 111.19 71.71 107.99 C 75.04 103.39 77.77 98.41 80.59 93.49 C 81.58 96.49 83.30 99.17 85.05 101.78 C 84.93 100.92 84.71 99.21 84.60 98.35 C 86.50 98.84 88.42 99.33 90.33 99.81 C 87.68 98.29 83.75 97.46 83.30 93.87 Z" />
<path fill="#f1e5d8" opacity="1.00" d=" M 135.20 83.01 C 135.59 83.32 136.36 83.94 136.75 84.25 C 139.78 86.09 141.94 89.79 145.07 90.94 C 146.66 89.07 143.85 87.31 143.07 85.71 C 145.45 87.29 147.83 88.86 150.21 90.45 C 149.45 91.66 148.74 92.90 148.04 94.15 C 147.63 93.71 146.80 92.84 146.39 92.40 C 148.09 96.08 148.65 100.51 152.30 102.94 C 153.15 105.46 153.93 108.01 154.96 110.48 C 154.42 107.98 153.62 105.55 152.85 103.12 C 154.27 103.17 155.69 103.20 157.12 103.21 C 156.52 104.73 156.03 106.34 156.18 108.00 C 156.46 112.56 156.31 117.14 156.42 121.71 C 152.46 123.40 148.46 125.02 144.38 126.43 C 144.53 125.83 144.81 124.62 144.96 124.01 C 145.47 122.38 146.24 120.84 146.66 119.19 C 147.10 117.24 143.60 115.90 143.09 118.14 C 137.91 129.85 133.27 141.85 127.20 153.16 C 122.41 154.28 117.76 156.22 114.01 159.45 C 114.26 153.30 114.10 147.04 112.34 141.10 C 111.11 136.79 109.18 132.73 107.26 128.69 C 115.31 126.77 123.54 125.75 131.68 124.30 C 132.62 127.74 133.52 131.24 135.45 134.29 C 135.51 133.56 135.62 132.11 135.68 131.38 C 132.69 121.35 127.84 111.73 120.17 104.46 C 121.94 102.05 123.82 99.73 125.61 97.35 C 129.04 92.73 132.50 88.11 135.20 83.01 M 155.13 111.33 C 154.30 112.59 154.54 113.36 155.84 113.62 C 156.65 112.35 156.42 111.58 155.13 111.33 Z" />
<path fill="#f1e5d8" opacity="1.00" d=" M 113.69 93.94 C 113.96 93.67 114.49 93.13 114.76 92.86 C 117.49 96.17 120.01 100.02 120.17 104.46 L 118.64 103.53 C 119.26 105.20 119.91 106.86 120.57 108.52 C 119.79 108.33 118.24 107.96 117.47 107.77 C 120.33 110.73 123.33 113.57 126.40 116.32 C 123.46 119.08 120.51 121.85 117.36 124.37 C 114.38 126.94 110.17 126.51 106.63 127.68 C 105.14 128.89 105.08 131.07 104.42 132.76 C 102.30 131.22 100.15 129.72 97.89 128.40 C 101.25 120.93 104.94 113.61 107.95 106.00 C 109.03 103.35 107.05 100.72 104.66 99.73 C 104.84 98.94 105.19 97.37 105.37 96.59 C 109.31 99.50 112.54 103.24 116.44 106.20 C 114.07 103.07 111.10 100.49 108.15 97.93 C 109.22 96.52 110.29 95.11 111.36 93.71 C 114.52 96.44 116.34 100.24 118.85 103.50 C 117.72 100.01 115.48 97.09 113.69 93.94 Z" />
<path fill="#f1e5d8" opacity="1.00" d=" M 162.37 98.62 C 164.95 97.81 167.54 97.03 170.20 96.55 C 170.81 96.66 172.02 96.89 172.63 97.00 C 167.15 101.54 162.38 107.29 160.28 114.20 C 160.01 114.97 159.48 116.51 159.21 117.27 C 158.46 112.45 158.27 107.56 157.92 102.70 C 159.68 101.67 161.07 100.17 162.37 98.62 Z" />
<path fill="#f1e5d8" opacity="1.00" d=" M 52.63 137.34 C 54.48 133.50 56.90 129.99 59.11 126.36 C 62.81 128.50 66.72 130.41 69.82 133.43 C 63.98 134.17 57.92 134.45 52.63 137.34 Z" />
<path fill="#f1e5d8" opacity="1.00" d=" M 97.23 129.58 C 98.84 130.63 100.49 131.59 102.15 132.56 C 100.25 135.64 98.10 138.55 95.65 141.21 C 95.02 139.76 94.43 138.29 94.00 136.77 C 94.81 134.26 96.13 131.96 97.23 129.58 Z" />
<path fill="#f1e5d8" opacity="1.00" d=" M 127.86 166.84 C 132.76 155.26 136.91 143.37 141.95 131.85 C 142.08 136.49 142.90 141.55 140.67 145.85 C 140.14 146.59 139.10 148.08 138.58 148.82 C 141.94 148.32 145.53 147.84 148.70 149.41 C 151.70 151.25 154.76 153.00 158.22 153.80 L 157.08 154.52 C 153.98 156.57 150.62 158.21 147.05 159.24 C 144.25 160.07 141.42 160.79 138.57 161.39 C 136.41 161.72 134.24 161.95 132.08 162.26 C 134.94 163.58 138.03 164.22 141.16 164.43 C 137.58 165.68 134.11 167.28 130.95 169.40 C 129.90 168.58 128.88 167.70 127.86 166.84 Z" />
<path fill="#f1e5d8" opacity="1.00" d=" M 69.38 142.98 C 67.90 139.29 71.20 136.06 74.30 134.63 C 72.80 137.49 71.10 140.24 69.38 142.98 Z" />
<path fill="#f1e5d8" opacity="1.00" d=" M 59.34 142.23 C 60.88 139.91 63.38 138.63 66.14 138.45 C 68.48 139.31 68.31 142.01 68.57 144.04 C 66.64 147.42 64.58 150.77 62.17 153.82 C 58.94 155.34 55.66 156.76 52.48 158.39 C 52.51 158.87 52.58 159.84 52.62 160.32 C 51.78 159.71 50.93 159.11 50.07 158.53 C 50.89 154.55 51.96 150.63 53.37 146.82 C 55.92 146.12 58.10 144.61 59.34 142.23 Z" />
<path fill="#f1e5d8" opacity="1.00" d=" M 84.93 154.04 C 87.57 149.01 90.00 143.86 92.88 138.96 C 96.68 143.14 102.68 148.01 100.23 154.38 C 97.66 153.28 94.97 152.28 92.13 152.68 C 91.07 154.50 90.00 156.32 88.75 158.01 C 87.47 156.69 86.20 155.36 84.93 154.04 Z" />
<path fill="#f1e5d8" opacity="1.00" d=" M 44.84 157.97 C 45.02 155.39 46.00 152.97 46.66 150.49 C 47.80 151.36 49.01 152.14 50.23 152.91 C 49.07 153.07 47.91 153.24 46.75 153.42 C 47.74 153.65 49.71 154.11 50.70 154.35 C 49.92 155.05 49.14 155.76 48.35 156.46 C 49.04 158.50 49.65 160.57 50.62 162.50 C 52.04 162.52 53.45 162.29 54.87 162.18 L 55.97 162.11 C 54.31 163.48 52.34 164.94 50.05 164.58 C 46.93 164.16 44.94 160.93 44.84 157.97 Z" />
<path fill="#f1e5d8" opacity="1.00" d=" M 90.28 174.66 C 93.49 166.37 98.55 158.89 102.67 151.02 C 103.46 153.82 105.81 156.93 103.92 159.76 C 100.77 165.86 97.08 171.66 94.16 177.87 C 94.47 178.27 95.07 179.06 95.38 179.45 C 98.62 170.92 103.42 163.08 107.52 154.95 C 107.92 155.63 108.31 156.31 108.70 157.01 C 109.05 160.49 106.75 163.42 105.51 166.50 C 103.33 171.66 99.86 176.37 99.08 182.03 C 102.56 174.26 105.73 166.29 109.97 158.90 C 110.06 160.59 110.14 162.29 110.20 163.98 C 110.69 164.23 111.66 164.72 112.14 164.97 C 112.10 165.48 112.02 166.49 111.97 167.00 C 111.88 167.45 111.69 168.34 111.60 168.79 C 111.46 169.39 111.19 170.59 111.05 171.19 C 108.12 177.65 104.79 183.96 102.50 190.70 C 102.23 189.42 101.95 188.14 101.67 186.86 C 101.34 185.38 100.95 183.91 100.57 182.44 C 100.36 183.18 99.95 184.66 99.75 185.39 C 98.88 183.84 98.00 182.29 97.13 180.75 C 97.09 181.34 97.01 182.51 96.97 183.09 C 96.42 182.71 95.32 181.94 94.78 181.56 C 94.88 182.25 95.10 183.62 95.21 184.31 C 92.62 181.92 89.93 179.60 86.79 177.96 C 86.37 177.88 85.55 177.71 85.14 177.62 C 84.06 177.41 82.98 177.21 81.90 177.05 C 83.01 174.25 84.27 171.51 85.58 168.80 C 89.22 164.02 91.79 158.58 95.01 153.53 C 96.36 154.11 97.71 154.69 99.07 155.27 C 95.62 161.81 91.66 168.08 88.55 174.79 C 90.57 177.08 92.54 179.48 95.10 181.20 C 93.58 178.95 91.76 176.93 90.28 174.66 Z" />
<path fill="#f1e5d8" opacity="1.00" d=" M 117.60 157.81 C 120.42 156.18 123.32 153.99 126.77 154.35 C 126.00 155.81 125.30 157.30 124.52 158.74 L 123.95 158.88 C 121.86 158.36 119.72 158.11 117.60 157.81 Z" />
<path fill="#f1e5d8" opacity="1.00" d=" M 81.50 160.46 C 82.09 162.47 82.85 164.43 83.58 166.39 C 81.94 170.44 78.04 173.86 78.31 178.46 C 77.39 178.86 76.47 179.26 75.56 179.67 C 76.25 179.91 77.64 180.38 78.34 180.62 C 75.26 182.33 72.32 184.28 69.31 186.11 C 68.50 186.27 66.90 186.58 66.10 186.74 C 67.13 185.00 68.18 183.28 69.25 181.57 C 71.21 181.26 73.09 180.57 75.03 180.13 C 73.28 180.27 71.53 180.39 69.78 180.57 C 73.92 174.01 77.60 167.17 81.50 160.46 Z" />
<path fill="#f1e5d8" opacity="1.00" d=" M 111.38 172.18 C 113.06 172.14 114.73 172.10 116.41 172.11 C 116.44 172.44 116.51 173.09 116.54 173.42 C 112.32 181.04 108.07 188.72 102.88 195.73 C 102.69 195.24 102.30 194.27 102.11 193.78 C 104.41 186.27 108.29 179.37 111.38 172.18 Z" />
<path fill="#f1e5d8" opacity="1.00" d=" M 124.96 174.18 C 127.29 173.77 129.62 173.34 131.94 172.90 C 131.13 176.48 130.44 180.08 129.87 183.71 C 130.37 183.62 131.36 183.44 131.85 183.35 C 131.96 183.68 132.19 184.35 132.30 184.68 C 131.81 187.04 131.14 189.35 130.42 191.65 C 130.08 190.40 129.75 189.15 129.44 187.90 C 129.29 189.55 129.20 191.21 128.86 192.84 C 125.66 195.52 121.17 196.03 117.19 195.27 C 117.20 194.85 117.23 194.00 117.24 193.57 C 119.85 187.12 122.43 180.66 124.96 174.18 Z" />
<path fill="#f1e5d8" opacity="1.00" d=" M 66.89 186.64 C 68.31 186.62 69.72 186.62 71.14 186.65 C 73.97 186.79 76.80 186.86 79.63 186.75 C 80.00 186.70 80.72 186.59 81.08 186.53 C 84.85 189.45 89.91 191.93 91.01 197.02 C 92.11 201.03 93.02 205.08 94.26 209.05 C 93.53 210.15 92.79 211.24 92.03 212.33 C 88.07 210.19 83.60 209.52 79.18 209.16 L 78.90 208.19 C 80.60 203.21 83.84 198.58 84.71 193.43 C 84.36 193.35 83.68 193.18 83.33 193.10 C 78.50 198.18 74.26 204.91 67.04 206.71 C 67.24 200.02 67.36 193.32 66.89 186.64 Z" />
<path fill="#f1e5d8" opacity="1.00" d=" M 92.03 191.38 C 96.27 192.58 98.36 196.55 100.54 200.01 C 98.79 202.49 97.11 205.02 95.37 207.51 C 93.74 202.29 91.47 196.96 92.03 191.38 Z" />
<path fill="#f1e5d8" opacity="1.00" d=" M 117.15 195.71 C 121.49 197.13 125.84 195.14 129.90 193.74 C 129.10 197.94 128.20 202.12 127.11 206.26 C 123.01 204.35 119.29 201.74 115.91 198.77 C 115.93 198.21 115.96 197.10 115.98 196.55 L 116.43 195.93 L 117.15 195.71 Z" />
<path fill="#f1e5d8" opacity="1.00" d=" M 130.26 201.45 C 131.61 202.22 132.96 202.98 134.31 203.74 C 131.69 208.02 129.10 212.32 126.36 216.52 C 125.73 215.03 125.19 213.50 124.71 211.95 C 129.19 210.56 128.69 205.03 130.26 201.45 Z" />
<path fill="#f1e5d8" opacity="1.00" d=" M 112.96 203.34 C 113.97 203.42 115.16 203.11 116.00 203.87 C 118.83 205.93 121.49 208.22 124.44 210.12 C 124.33 210.92 124.12 212.52 124.01 213.32 C 119.80 211.34 115.70 208.71 113.21 204.66 L 112.96 203.34 Z" />
<path fill="#f1e5d8" opacity="1.00" d=" M 111.41 207.95 C 115.06 210.49 118.17 213.68 121.65 216.41 C 122.32 216.00 123.66 215.18 124.33 214.77 C 123.90 215.75 123.46 216.73 123.01 217.71 C 121.14 217.93 119.27 218.12 117.42 218.47 C 119.69 218.82 122.00 218.90 124.30 218.93 C 123.93 219.38 123.20 220.29 122.83 220.74 L 122.18 220.72 C 120.36 220.64 118.54 220.58 116.73 220.53 C 116.54 219.83 116.35 219.14 116.16 218.45 C 115.03 218.06 113.91 217.68 112.79 217.29 C 111.94 217.91 111.09 218.53 110.24 219.15 C 109.32 215.37 110.07 211.52 111.41 207.95 Z" />
<path fill="#f1e5d8" opacity="1.00" d=" M 76.99 212.84 C 81.41 212.66 85.85 213.21 90.09 214.52 C 86.06 217.70 80.60 215.56 76.23 214.36 L 76.99 212.84 Z" />
<path fill="#f1e5d8" opacity="1.00" d=" M 82.33 218.07 C 84.10 218.22 85.88 218.30 87.66 218.41 C 85.40 221.63 82.18 225.51 77.72 224.14 C 79.28 222.14 80.84 220.13 82.33 218.07 Z" />
</g>
<g id="#c3a688ff">
<path fill="#c3a688" opacity="1.00" d=" M 145.26 24.93 C 148.64 26.12 150.32 29.38 151.39 32.56 C 152.97 33.11 154.55 33.65 156.13 34.21 C 153.51 34.67 150.89 35.11 148.27 35.59 C 148.67 31.71 147.95 27.87 145.26 24.93 Z" />
<path fill="#c3a688" opacity="1.00" d=" M 92.62 29.13 C 93.91 28.32 95.23 27.57 96.55 26.81 C 96.45 27.42 96.25 28.66 96.15 29.27 C 98.02 30.48 99.91 31.67 101.80 32.85 C 103.52 31.72 105.24 30.62 106.99 29.55 C 105.48 32.82 103.57 35.89 101.40 38.78 C 104.90 41.63 110.50 45.65 107.77 50.80 C 105.82 47.60 104.25 44.13 101.80 41.26 C 98.58 43.09 96.00 45.79 93.03 47.96 C 93.86 46.21 94.73 44.47 95.60 42.73 C 93.76 44.20 91.74 45.51 90.29 47.39 C 89.30 49.18 89.32 51.33 88.89 53.30 C 90.10 51.88 91.29 50.46 92.51 49.06 C 90.85 52.92 89.04 56.74 87.73 60.75 C 89.92 61.79 92.10 62.84 94.24 64.00 C 91.44 63.31 88.74 62.32 86.07 61.26 C 87.85 60.05 87.27 57.68 86.21 56.20 C 86.31 54.75 86.57 53.26 86.24 51.82 C 83.91 49.91 81.06 48.78 78.33 47.57 C 81.73 45.62 85.52 44.57 89.06 42.96 C 89.40 42.45 90.09 41.43 90.44 40.92 C 86.39 41.15 82.62 42.72 78.99 44.41 C 80.06 41.30 82.63 38.01 80.39 34.77 C 82.77 35.53 83.64 37.94 84.76 39.90 C 86.47 37.21 88.13 34.49 90.00 31.92 C 92.92 34.10 95.98 36.08 99.20 37.78 C 98.51 33.92 95.86 31.10 92.62 29.13 Z" />
<path fill="#c3a688" opacity="1.00" d=" M 132.77 40.26 C 137.49 39.51 142.11 37.67 146.96 38.07 C 149.67 38.26 152.39 38.36 155.11 38.32 C 154.49 42.18 153.81 46.04 153.11 49.89 C 147.57 52.15 141.90 54.09 136.39 56.45 C 136.63 57.15 136.88 57.84 137.12 58.54 C 139.22 65.20 144.11 70.64 145.61 77.53 L 144.77 77.99 C 143.43 78.79 141.63 79.32 141.16 81.00 C 141.56 82.44 142.36 83.73 143.38 84.81 C 146.61 84.66 149.71 83.63 152.84 82.94 C 151.99 83.79 151.14 84.65 150.28 85.51 C 152.85 86.02 155.31 86.97 157.38 88.61 C 154.89 88.70 152.35 89.09 150.21 90.45 C 147.83 88.86 145.45 87.29 143.07 85.71 C 143.85 87.31 146.66 89.07 145.07 90.94 C 141.94 89.79 139.78 86.09 136.75 84.25 C 137.60 83.73 138.25 83.01 138.68 82.10 C 137.51 81.73 135.74 81.62 135.20 83.01 C 132.50 88.11 129.04 92.73 125.61 97.35 C 124.73 96.58 123.86 95.81 122.98 95.04 C 122.90 95.84 122.75 97.45 122.67 98.26 C 122.22 96.55 121.68 94.87 121.27 93.16 C 121.21 92.09 121.18 91.02 121.16 89.96 C 122.99 88.24 124.60 86.22 125.08 83.69 C 129.41 81.11 134.29 79.12 137.30 74.86 C 135.67 74.94 134.04 75.04 132.42 75.17 C 132.92 74.21 133.42 73.26 133.92 72.32 C 131.36 70.48 128.72 68.77 126.03 67.14 C 125.86 69.77 125.69 72.40 125.51 75.03 C 125.28 72.48 125.49 69.82 124.61 67.38 C 123.55 65.66 121.84 64.52 120.33 63.24 C 119.79 63.54 118.72 64.13 118.18 64.42 C 116.46 63.53 114.73 62.65 113.01 61.76 C 112.42 66.97 109.69 71.49 107.72 76.24 C 104.79 74.45 101.58 73.13 98.14 72.73 C 98.43 73.34 99.00 74.54 99.29 75.14 C 98.51 75.11 96.97 75.05 96.20 75.02 C 96.46 75.57 97.00 76.66 97.26 77.21 C 95.73 77.59 94.19 77.97 92.66 78.35 C 94.41 80.98 97.18 82.30 100.31 82.44 C 100.25 81.85 100.13 80.67 100.07 80.08 C 101.80 81.80 103.82 83.20 106.31 83.48 C 104.90 81.46 103.36 79.53 101.79 77.63 C 103.68 79.07 105.61 80.48 107.60 81.80 C 107.66 82.27 107.78 83.20 107.83 83.67 C 107.36 84.63 106.87 85.57 106.36 86.51 L 105.64 84.73 L 105.39 84.10 C 98.57 83.00 91.75 81.66 84.87 81.00 C 82.66 84.83 82.69 89.61 83.30 93.87 C 83.75 97.46 87.68 98.29 90.33 99.81 C 88.42 99.33 86.50 98.84 84.60 98.35 C 84.71 99.21 84.93 100.92 85.05 101.78 C 83.30 99.17 81.58 96.49 80.59 93.49 C 80.36 91.21 79.78 88.95 77.80 87.53 C 77.98 86.94 78.16 86.34 78.34 85.75 C 75.82 84.23 78.63 83.75 79.98 83.03 C 76.47 78.92 71.17 77.14 67.07 73.75 C 67.86 73.78 69.43 73.85 70.21 73.89 C 72.46 75.88 74.98 77.55 77.78 78.66 C 78.99 79.84 80.20 81.01 81.49 82.10 C 80.49 82.88 80.83 85.53 82.46 84.62 C 83.12 83.79 83.01 82.99 82.15 82.22 C 82.81 80.39 83.43 78.54 84.14 76.72 C 84.85 77.55 85.57 78.38 86.29 79.21 C 89.41 76.85 92.59 74.55 95.91 72.47 C 95.36 72.14 94.26 71.49 93.71 71.16 C 95.11 70.81 96.51 70.47 97.91 70.12 C 98.25 69.28 98.59 68.44 98.93 67.59 C 98.64 66.83 98.05 65.29 97.75 64.53 C 98.95 65.73 100.13 66.95 101.30 68.19 C 103.60 63.20 106.98 58.84 111.01 55.13 C 112.18 55.94 113.39 56.71 114.59 57.48 C 116.06 55.89 117.71 54.49 119.55 53.34 C 117.80 51.90 116.11 50.38 114.50 48.78 L 116.11 48.84 C 118.28 50.34 120.34 51.97 122.45 53.55 C 124.36 52.05 126.45 50.62 129.01 50.84 C 132.31 51.02 135.31 49.72 137.94 47.83 C 136.25 45.29 134.49 42.79 132.77 40.26 M 128.01 52.28 C 129.97 53.56 131.98 54.76 134.04 55.90 C 133.68 54.64 133.33 53.38 132.97 52.13 C 131.31 52.17 129.66 52.22 128.01 52.28 M 139.31 67.81 C 138.70 68.88 138.09 69.95 137.49 71.02 C 139.05 72.83 140.80 74.52 143.07 75.38 C 142.45 72.59 141.31 69.90 139.31 67.81 Z" />
<path fill="#c3a688" opacity="1.00" d=" M 68.25 42.58 C 71.48 42.75 74.63 43.54 77.40 45.25 C 69.69 49.68 65.35 58.86 66.93 67.65 C 66.73 68.25 66.34 69.45 66.15 70.05 C 66.00 70.77 65.70 72.21 65.55 72.94 C 64.04 72.90 62.53 72.86 61.02 72.83 C 58.44 68.37 57.05 63.28 57.43 58.11 C 58.55 58.27 59.67 58.44 60.79 58.60 C 61.18 55.84 61.37 53.03 62.22 50.36 C 63.61 49.18 65.31 48.47 66.90 47.63 C 66.53 46.79 66.17 45.94 65.80 45.09 C 66.46 44.96 67.79 44.71 68.45 44.59 C 68.40 44.09 68.30 43.08 68.25 42.58 Z" />
<path fill="#c3a688" opacity="1.00" d=" M 69.60 67.03 C 67.88 59.69 71.63 52.06 77.68 47.90 C 81.02 51.55 83.81 55.71 85.27 60.48 L 85.50 61.07 C 83.09 61.43 81.23 63.16 78.93 63.83 C 75.91 64.29 72.83 64.30 69.83 64.93 C 69.78 65.45 69.66 66.50 69.60 67.03 M 75.63 50.95 C 77.89 53.63 80.33 56.20 83.19 58.26 C 82.24 54.54 79.84 50.99 75.63 50.95 Z" />
<path fill="#c3a688" opacity="1.00" d=" M 160.28 114.20 C 162.38 107.29 167.15 101.54 172.63 97.00 C 172.26 98.27 171.84 99.52 171.41 100.78 C 173.29 100.74 175.18 100.69 177.06 100.75 C 176.77 101.24 176.17 102.21 175.88 102.69 C 176.87 103.56 177.87 104.44 178.87 105.32 C 174.31 108.21 169.26 110.74 165.89 115.11 C 166.14 116.07 166.42 117.02 166.73 117.96 C 169.25 114.45 173.21 112.86 177.46 112.92 C 177.53 114.16 177.59 115.41 177.67 116.65 L 177.68 116.87 C 174.50 119.15 170.88 120.73 167.01 121.37 C 166.59 123.09 166.18 124.80 165.76 126.52 L 165.59 126.65 C 163.48 128.14 161.60 129.93 159.53 131.46 C 156.83 130.71 154.44 129.07 151.67 128.53 C 149.55 128.16 147.75 129.61 145.91 130.41 C 148.62 130.01 151.28 130.48 153.40 132.32 C 154.21 132.35 155.01 132.38 155.83 132.42 C 155.77 133.28 155.71 134.15 155.66 135.03 C 156.68 136.71 158.99 138.49 157.69 140.64 C 156.88 142.33 155.65 143.77 154.53 145.26 C 155.96 146.90 157.40 148.54 158.73 150.25 C 158.33 150.92 157.52 152.25 157.12 152.92 C 154.01 152.60 151.59 150.39 148.70 149.41 C 145.53 147.84 141.94 148.32 138.58 148.82 C 139.10 148.08 140.14 146.59 140.67 145.85 C 143.86 141.36 141.91 135.40 142.22 130.28 C 146.70 128.42 151.20 126.51 155.31 123.89 C 155.57 123.75 156.10 123.46 156.36 123.32 C 157.34 123.60 158.32 123.88 159.29 124.16 C 161.11 121.17 161.67 117.47 160.28 114.20 M 167.70 103.70 C 165.15 106.54 163.00 109.85 162.02 113.57 C 165.98 109.11 170.69 105.51 175.49 102.02 C 172.89 102.22 169.51 101.23 167.70 103.70 Z" />
<path fill="#c3a688" opacity="1.00" d=" M 118.64 103.53 L 120.17 104.46 C 127.84 111.73 132.69 121.35 135.68 131.38 C 135.62 132.11 135.51 133.56 135.45 134.29 C 133.52 131.24 132.62 127.74 131.68 124.30 C 123.54 125.75 115.31 126.77 107.26 128.69 C 109.18 132.73 111.11 136.79 112.34 141.10 C 111.53 142.53 110.75 143.97 109.98 145.42 C 111.90 140.11 109.63 134.56 106.12 130.50 C 106.40 131.61 106.68 132.71 106.96 133.82 C 106.00 134.16 105.05 134.51 104.09 134.86 C 105.91 137.38 107.39 140.15 108.20 143.17 C 106.74 140.94 105.55 138.29 102.87 137.29 C 103.88 139.18 104.98 141.02 106.11 142.84 L 104.71 143.15 C 105.34 144.47 105.98 145.79 106.62 147.12 C 106.92 146.43 107.54 145.06 107.85 144.38 C 107.89 145.13 107.98 146.64 108.03 147.39 C 108.49 147.05 109.41 146.38 109.87 146.04 C 109.60 147.52 109.33 149.01 109.07 150.50 C 110.08 148.96 111.07 147.40 111.91 145.76 C 111.53 147.86 110.99 149.92 110.58 152.02 C 110.76 152.34 111.11 152.97 111.29 153.28 C 110.42 154.52 109.55 155.76 108.70 157.01 C 108.31 156.31 107.92 155.63 107.52 154.95 C 103.42 163.08 98.62 170.92 95.38 179.45 C 95.07 179.06 94.47 178.27 94.16 177.87 C 97.08 171.66 100.77 165.86 103.92 159.76 C 105.81 156.93 103.46 153.82 102.67 151.02 C 98.55 158.89 93.49 166.37 90.28 174.66 C 91.76 176.93 93.58 178.95 95.10 181.20 C 92.54 179.48 90.57 177.08 88.55 174.79 C 91.66 168.08 95.62 161.81 99.07 155.27 C 97.71 154.69 96.36 154.11 95.01 153.53 C 91.79 158.58 89.22 164.02 85.58 168.80 C 86.39 166.16 87.45 163.61 88.80 161.20 C 88.48 161.18 87.82 161.14 87.50 161.11 L 86.22 161.00 C 87.06 160.00 87.93 159.02 88.75 158.01 C 90.00 156.32 91.07 154.50 92.13 152.68 C 94.97 152.28 97.66 153.28 100.23 154.38 C 102.68 148.01 96.68 143.14 92.88 138.96 L 92.71 138.78 C 93.03 138.28 93.68 137.27 94.00 136.77 C 94.43 138.29 95.02 139.76 95.65 141.21 C 98.10 138.55 100.25 135.64 102.15 132.56 C 100.49 131.59 98.84 130.63 97.23 129.58 C 97.40 129.28 97.72 128.69 97.89 128.40 C 100.15 129.72 102.30 131.22 104.42 132.76 C 105.08 131.07 105.14 128.89 106.63 127.68 C 110.17 126.51 114.38 126.94 117.36 124.37 C 120.51 121.85 123.46 119.08 126.40 116.32 C 123.33 113.57 120.33 110.73 117.47 107.77 C 118.24 107.96 119.79 108.33 120.57 108.52 C 119.91 106.86 119.26 105.20 118.64 103.53 M 118.38 125.17 C 123.00 124.22 126.03 119.98 129.20 116.79 C 124.95 118.47 121.37 121.77 118.38 125.17 M 108.19 152.07 C 106.90 152.83 106.89 153.53 108.17 154.15 C 109.46 153.39 109.47 152.69 108.19 152.07 Z" />
<path fill="#c3a688" opacity="1.00" d=" M 52.91 138.43 C 53.26 138.47 53.97 138.54 54.33 138.57 C 55.79 139.71 57.44 140.55 59.29 140.83 C 59.30 141.18 59.32 141.88 59.34 142.23 C 58.10 144.61 55.92 146.12 53.37 146.82 C 51.96 150.63 50.89 154.55 50.07 158.53 C 50.93 159.11 51.78 159.71 52.62 160.32 C 53.18 160.79 54.31 161.72 54.87 162.18 C 53.45 162.29 52.04 162.52 50.62 162.50 C 49.65 160.57 49.04 158.50 48.35 156.46 C 49.14 155.76 49.92 155.05 50.70 154.35 C 49.71 154.11 47.74 153.65 46.75 153.42 C 47.91 153.24 49.07 153.07 50.23 152.91 C 49.01 152.14 47.80 151.36 46.66 150.49 C 47.95 146.27 49.99 142.35 51.83 138.36 L 52.91 138.43 Z" />
<path fill="#c3a688" opacity="1.00" d=" M 138.57 161.39 C 141.42 160.79 144.25 160.07 147.05 159.24 C 147.46 160.09 147.88 160.94 148.30 161.80 C 149.90 161.42 151.51 161.04 153.12 160.67 C 153.48 160.93 154.19 161.46 154.55 161.72 C 153.65 164.09 152.72 166.45 151.85 168.83 L 151.64 168.88 C 149.68 169.33 147.73 169.78 145.77 170.24 C 144.74 168.51 143.70 166.77 142.67 165.03 C 144.06 164.48 145.45 163.93 146.84 163.38 C 146.19 163.05 145.53 162.72 144.88 162.40 C 142.69 163.28 140.56 162.24 138.57 161.39 Z" />
<path fill="#c3a688" opacity="1.00" d=" M 115.45 161.13 C 116.25 160.70 117.05 160.29 117.86 159.88 C 118.40 160.22 119.46 160.91 119.99 161.26 C 119.26 161.88 118.53 162.50 117.80 163.13 C 117.72 163.19 117.56 163.33 117.48 163.40 C 118.90 163.70 120.32 164.02 121.74 164.35 C 120.37 166.66 119.06 169.01 117.83 171.40 C 115.57 171.33 113.31 171.26 111.05 171.19 C 111.19 170.59 111.46 169.39 111.60 168.79 C 113.17 171.17 114.10 167.42 111.97 167.00 C 112.02 166.49 112.10 165.48 112.14 164.97 C 113.23 164.35 114.35 163.80 115.46 163.23 C 115.46 162.53 115.45 161.83 115.45 161.13 Z" />
<path fill="#c3a688" opacity="1.00" d=" M 133.57 171.26 C 136.09 170.17 138.62 169.12 141.16 168.08 C 142.10 170.10 143.03 172.12 143.96 174.15 C 140.22 174.45 136.48 174.61 132.74 174.79 C 133.03 173.61 133.30 172.44 133.57 171.26 Z" />
<path fill="#c3a688" opacity="1.00" d=" M 135.68 181.49 C 136.24 182.00 136.79 182.51 137.36 183.03 C 140.27 182.18 142.30 184.28 143.47 186.74 L 143.56 186.87 C 141.47 190.73 139.32 194.56 137.43 198.52 C 135.32 197.88 133.20 197.26 131.09 196.65 C 131.98 192.76 134.10 188.63 132.30 184.68 C 132.19 184.35 131.96 183.68 131.85 183.35 C 133.13 182.73 134.40 182.11 135.68 181.49 Z" />
<path fill="#c3a688" opacity="1.00" d=" M 75.52 216.96 C 77.78 217.39 80.04 217.82 82.33 218.07 C 80.84 220.13 79.28 222.14 77.72 224.14 C 76.17 222.05 75.35 219.58 75.52 216.96 Z" />
</g>
<g id="#f0e4d7ff">
<path fill="#f0e4d7" opacity="1.00" d=" M 79.30 28.36 C 80.70 27.72 82.10 27.07 83.53 26.48 C 83.11 29.02 81.98 31.33 80.27 33.25 C 80.07 32.57 79.67 31.22 79.47 30.54 C 79.43 30.05 79.35 29.08 79.31 28.59 L 79.30 28.36 Z" />
<path fill="#f0e4d7" opacity="1.00" d=" M 67.74 113.99 C 68.51 112.59 69.54 111.37 70.57 110.17 C 71.32 112.82 69.99 114.71 67.60 115.79 L 67.74 113.99 Z" />
<path fill="#f0e4d7" opacity="1.00" d=" M 63.64 190.67 C 64.32 189.04 65.64 187.82 66.89 186.64 C 67.36 193.32 67.24 200.02 67.04 206.71 C 65.89 206.51 64.85 206.19 63.94 205.77 C 64.16 200.73 64.04 195.69 63.64 190.67 Z" />
</g>
<g id="#ac896dff">
<path fill="#ac896d" opacity="1.00" d=" M 83.53 26.48 L 83.64 26.06 C 83.67 26.56 83.73 27.55 83.76 28.04 C 84.91 27.84 86.07 27.66 87.22 27.41 C 84.35 29.26 82.33 32.03 80.39 34.77 C 79.82 33.43 79.56 31.99 79.47 30.54 C 79.67 31.22 80.07 32.57 80.27 33.25 C 81.98 31.33 83.11 29.02 83.53 26.48 Z" />
<path fill="#ac896d" opacity="1.00" d=" M 113.45 91.10 C 115.23 91.10 117.00 91.02 118.77 90.87 C 117.59 94.07 119.47 97.22 121.27 99.77 C 122.39 100.00 122.86 99.50 122.67 98.26 C 122.75 97.45 122.90 95.84 122.98 95.04 C 123.86 95.81 124.73 96.58 125.61 97.35 C 123.82 99.73 121.94 102.05 120.17 104.46 C 120.01 100.02 117.49 96.17 114.76 92.86 C 114.49 93.13 113.96 93.67 113.69 93.94 C 115.48 97.09 117.72 100.01 118.85 103.50 C 116.34 100.24 114.52 96.44 111.36 93.71 C 110.29 95.11 109.22 96.52 108.15 97.93 C 111.10 100.49 114.07 103.07 116.44 106.20 C 112.54 103.24 109.31 99.50 105.37 96.59 C 108.06 94.76 110.93 93.18 113.45 91.10 Z" />
<path fill="#ac896d" opacity="1.00" d=" M 82.48 158.50 C 83.55 159.96 84.61 161.43 85.66 162.90 C 86.12 162.45 87.04 161.56 87.50 161.11 C 87.82 161.14 88.48 161.18 88.80 161.20 C 87.45 163.61 86.39 166.16 85.58 168.80 C 84.27 171.51 83.01 174.25 81.90 177.05 C 80.68 177.47 79.49 177.96 78.31 178.46 C 78.04 173.86 81.94 170.44 83.58 166.39 C 82.85 164.43 82.09 162.47 81.50 160.46 C 81.75 159.97 82.24 158.99 82.48 158.50 Z" />
<path fill="#ac896d" opacity="1.00" d=" M 130.95 169.40 C 135.03 170.68 138.60 167.06 142.31 165.84 C 142.02 166.40 141.45 167.52 141.16 168.08 C 138.62 169.12 136.09 170.17 133.57 171.26 C 133.30 172.44 133.03 173.61 132.74 174.79 C 132.03 177.58 130.90 180.46 131.85 183.35 C 131.36 183.44 130.37 183.62 129.87 183.71 C 130.44 180.08 131.13 176.48 131.94 172.90 C 129.62 173.34 127.29 173.77 124.96 174.18 C 125.57 172.58 126.20 171.00 126.86 169.43 C 127.19 169.98 127.84 171.09 128.17 171.64 C 129.12 171.39 130.00 170.93 130.84 170.42 C 129.68 169.66 128.42 168.93 127.00 168.86 C 127.22 168.35 127.65 167.35 127.86 166.84 C 128.88 167.70 129.90 168.58 130.95 169.40 Z" />
</g>
<g id="#b29176ff">
<path fill="#b29176" opacity="1.00" d=" M 111.06 26.87 C 114.21 28.97 116.83 31.69 119.32 34.51 C 120.91 36.73 123.84 36.47 126.26 36.59 C 122.61 37.30 118.18 36.33 115.31 39.26 C 113.32 40.90 112.51 43.42 111.66 45.75 C 108.33 43.53 109.21 39.16 109.59 35.78 L 110.16 37.28 C 110.05 39.33 110.06 41.42 111.09 43.26 C 113.24 40.25 115.99 37.75 119.19 35.91 C 117.04 33.33 114.71 30.91 112.19 28.70 C 112.05 29.36 111.77 30.69 111.63 31.35 C 111.48 29.85 111.26 28.36 111.06 26.87 Z" />
<path fill="#b29176" opacity="1.00" d=" M 86.50 184.55 C 89.45 185.66 92.61 188.94 95.66 186.14 C 96.86 187.35 98.03 188.60 99.17 189.88 C 98.04 189.53 96.90 189.20 95.76 188.89 C 97.22 192.28 99.18 195.46 101.99 197.91 C 101.50 198.60 101.02 199.30 100.54 200.01 C 98.36 196.55 96.27 192.58 92.03 191.38 C 90.04 189.22 88.18 186.95 86.50 184.55 Z" />
<path fill="#b29176" opacity="1.00" d=" M 76.99 212.84 C 77.53 211.25 78.19 209.71 78.90 208.19 L 79.18 209.16 C 83.60 209.52 88.07 210.19 92.03 212.33 C 90.62 214.36 89.27 216.44 87.77 218.41 L 87.66 218.41 C 85.88 218.30 84.10 218.22 82.33 218.07 C 80.04 217.82 77.78 217.39 75.52 216.96 C 75.76 216.09 76.00 215.23 76.23 214.36 C 80.60 215.56 86.06 217.70 90.09 214.52 C 85.85 213.21 81.41 212.66 76.99 212.84 M 78.62 210.66 L 77.85 211.89 C 81.88 211.62 85.85 213.13 89.82 212.83 C 89.80 212.55 89.76 212.00 89.74 211.73 C 86.18 210.62 82.34 210.09 78.62 210.66 Z" />
</g>
<g id="#d5c1acff">
<path fill="#d5c1ac" opacity="1.00" d=" M 169.07 37.49 C 169.74 37.48 171.09 37.44 171.77 37.43 C 172.57 39.72 172.83 42.15 172.67 44.56 C 171.13 42.49 169.41 40.56 167.50 38.83 C 167.89 38.49 168.68 37.82 169.07 37.49 Z" />
</g>
<g id="#f1ddc8ff">
<path fill="#f1ddc8" opacity="1.00" d=" M 177.06 52.94 C 178.70 51.33 180.31 49.69 182.13 48.28 C 183.87 47.86 184.35 49.80 185.17 50.82 C 188.81 57.04 191.26 63.99 192.05 71.16 C 192.08 72.51 192.09 73.86 192.09 75.21 C 189.88 71.22 187.08 67.62 184.55 63.84 C 182.30 65.50 180.11 67.23 177.90 68.94 C 178.46 63.71 183.32 60.53 184.89 55.65 C 182.86 56.44 179.91 60.27 178.25 57.17 C 177.88 55.75 177.53 54.33 177.06 52.94 Z" />
</g>
<g id="#e9daccff">
<path fill="#e9dacc" opacity="1.00" d=" M 75.63 50.95 C 79.84 50.99 82.24 54.54 83.19 58.26 C 80.33 56.20 77.89 53.63 75.63 50.95 Z" />
</g>
<g id="#d5bb9fff">
<path fill="#d5bb9f" opacity="1.00" d=" M 128.01 52.28 C 129.66 52.22 131.31 52.17 132.97 52.13 C 133.33 53.38 133.68 54.64 134.04 55.90 C 131.98 54.76 129.97 53.56 128.01 52.28 Z" />
</g>
<g id="#a98468ff">
<path fill="#a98468" opacity="1.00" d=" M 86.21 56.20 C 87.27 57.68 87.85 60.05 86.07 61.26 L 85.50 61.07 L 85.27 60.48 C 85.49 59.03 85.87 57.62 86.21 56.20 Z" />
</g>
<g id="#af8d71ff">
<path fill="#af8d71" opacity="1.00" d=" M 168.97 57.65 C 169.62 58.34 170.31 59.02 171.01 59.68 C 172.30 64.16 173.38 68.75 173.24 73.45 C 177.05 72.64 181.38 72.01 184.85 74.25 C 187.47 76.08 189.64 78.46 192.05 80.55 C 192.07 78.77 192.11 76.99 192.09 75.21 C 192.09 73.86 192.08 72.51 192.05 71.16 C 192.83 75.27 192.52 79.46 192.32 83.61 L 192.17 83.40 C 191.89 83.02 191.31 82.24 191.02 81.85 C 188.12 78.46 184.95 74.15 180.06 73.98 C 175.77 73.53 172.11 76.22 168.07 77.12 C 164.14 78.07 160.15 78.79 156.29 80.04 C 160.02 81.35 163.10 83.86 165.38 87.06 C 170.21 86.64 174.96 85.62 179.73 84.80 C 180.02 84.93 180.61 85.19 180.90 85.32 C 175.57 86.13 170.38 87.74 165.02 88.31 C 162.28 86.26 160.57 82.57 156.92 81.98 C 153.01 81.25 149.03 81.81 145.10 81.99 C 144.97 80.66 144.86 79.32 144.77 77.99 L 145.61 77.53 C 145.80 78.36 146.19 80.01 146.38 80.84 C 154.80 78.70 163.31 76.91 171.70 74.63 C 172.58 68.78 170.67 63.15 168.97 57.65 Z" />
</g>
<g id="#d5bfadff">
<path fill="#d5bfad" opacity="1.00" d=" M 94.57 63.37 C 95.29 63.59 96.74 64.02 97.46 64.24 L 97.75 64.53 C 98.05 65.29 98.64 66.83 98.93 67.59 C 98.59 68.44 98.25 69.28 97.91 70.12 C 96.51 70.47 95.11 70.81 93.71 71.16 C 94.26 71.49 95.36 72.14 95.91 72.47 C 92.59 74.55 89.41 76.85 86.29 79.21 C 85.57 78.38 84.85 77.55 84.14 76.72 C 87.14 71.78 93.81 71.37 97.22 66.89 C 96.80 65.45 95.42 64.55 94.57 63.37 Z" />
</g>
<g id="#d7bea2ff">
<path fill="#d7bea2" opacity="1.00" d=" M 139.31 67.81 C 141.31 69.90 142.45 72.59 143.07 75.38 C 140.80 74.52 139.05 72.83 137.49 71.02 C 138.09 69.95 138.70 68.88 139.31 67.81 Z" />
</g>
<g id="#c7ae98ff">
<path fill="#c7ae98" opacity="1.00" d=" M 98.24 78.28 C 98.76 78.77 98.76 78.77 98.24 78.28 Z" />
</g>
<g id="#9b7354ff">
<path fill="#9b7354" opacity="1.00" d=" M 81.49 82.10 L 82.15 82.22 C 83.01 82.99 83.12 83.79 82.46 84.62 C 80.83 85.53 80.49 82.88 81.49 82.10 Z" />
</g>
<g id="#a58061ff">
<path fill="#a58061" opacity="1.00" d=" M 135.20 83.01 C 135.74 81.62 137.51 81.73 138.68 82.10 C 138.25 83.01 137.60 83.73 136.75 84.25 C 136.36 83.94 135.59 83.32 135.20 83.01 Z" />
</g>
<g id="#b69579ff">
<path fill="#b69579" opacity="1.00" d=" M 186.93 83.16 C 187.70 83.12 189.25 83.04 190.02 83.00 C 189.52 84.46 187.50 84.69 186.93 83.16 Z" />
</g>
<g id="#d3bdaaff">
<path fill="#d3bdaa" opacity="1.00" d=" M 106.36 86.51 C 106.87 85.57 107.36 84.63 107.83 83.67 C 108.38 85.75 108.92 87.89 108.36 90.03 C 108.60 89.56 109.08 88.60 109.32 88.13 C 110.68 89.14 112.03 90.16 113.45 91.10 C 110.93 93.18 108.06 94.76 105.37 96.59 C 105.19 97.37 104.84 98.94 104.66 99.73 C 103.57 99.36 102.50 98.98 101.43 98.59 C 101.68 93.66 103.43 89.08 105.64 84.73 L 106.36 86.51 M 109.19 92.24 C 109.73 92.71 109.73 92.71 109.19 92.24 Z" />
</g>
<g id="#bb9b80ff">
<path fill="#bb9b80" opacity="1.00" d=" M 182.11 84.18 C 182.81 84.01 184.22 83.68 184.92 83.52 C 186.97 85.45 182.81 85.87 182.11 84.18 Z" />
</g>
<g id="#dbc7b5ff">
<path fill="#dbc7b5" opacity="1.00" d=" M 118.77 90.87 L 120.51 90.10 C 120.70 90.87 121.08 92.40 121.27 93.16 C 121.68 94.87 122.22 96.55 122.67 98.26 C 122.86 99.50 122.39 100.00 121.27 99.77 C 119.47 97.22 117.59 94.07 118.77 90.87 Z" />
<path fill="#dbc7b5" opacity="1.00" d=" M 106.12 130.50 C 109.63 134.56 111.90 140.11 109.98 145.42 C 110.75 143.97 111.53 142.53 112.34 141.10 C 112.26 142.66 112.12 144.21 111.91 145.76 C 111.07 147.40 110.08 148.96 109.07 150.50 C 109.33 149.01 109.60 147.52 109.87 146.04 C 109.41 146.38 108.49 147.05 108.03 147.39 C 107.98 146.64 107.89 145.13 107.85 144.38 C 107.54 145.06 106.92 146.43 106.62 147.12 C 105.98 145.79 105.34 144.47 104.71 143.15 L 106.11 142.84 C 104.98 141.02 103.88 139.18 102.87 137.29 C 105.55 138.29 106.74 140.94 108.20 143.17 C 107.39 140.15 105.91 137.38 104.09 134.86 C 105.05 134.51 106.00 134.16 106.96 133.82 C 106.68 132.71 106.40 131.61 106.12 130.50 Z" />
</g>
<g id="#a57f63ff">
<path fill="#a57f63" opacity="1.00" d=" M 109.19 92.24 C 109.73 92.71 109.73 92.71 109.19 92.24 Z" />
</g>
<g id="#d3b99dff">
<path fill="#d3b99d" opacity="1.00" d=" M 152.75 95.10 C 153.54 94.51 154.32 93.93 155.11 93.34 C 157.15 93.97 157.98 95.74 157.14 97.69 C 156.32 97.80 154.67 98.03 153.85 98.15 C 153.47 97.14 153.10 96.12 152.75 95.10 Z" />
</g>
<g id="#b49275ff">
<path fill="#b49275" opacity="1.00" d=" M 171.47 95.31 C 173.00 94.61 175.16 94.34 176.64 95.29 C 176.26 97.48 172.42 96.48 171.47 95.31 Z" />
</g>
<g id="#a07959ff">
<path fill="#a07959" opacity="1.00" d=" M 177.06 100.75 C 178.55 101.62 179.97 102.59 181.40 103.54 C 180.56 104.14 179.72 104.73 178.87 105.32 C 177.87 104.44 176.87 103.56 175.88 102.69 C 176.17 102.21 176.77 101.24 177.06 100.75 Z" />
</g>
<g id="#eee1d3ff">
<path fill="#eee1d3" opacity="1.00" d=" M 167.70 103.70 C 169.51 101.23 172.89 102.22 175.49 102.02 C 170.69 105.51 165.98 109.11 162.02 113.57 C 163.00 109.85 165.15 106.54 167.70 103.70 Z" />
</g>
<g id="#b08f74ff">
<path fill="#b08f74" opacity="1.00" d=" M 157.12 103.21 L 157.92 102.70 C 158.27 107.56 158.46 112.45 159.21 117.27 C 159.48 116.51 160.01 114.97 160.28 114.20 C 161.67 117.47 161.11 121.17 159.29 124.16 C 158.32 123.88 157.34 123.60 156.36 123.32 C 156.10 123.46 155.57 123.75 155.31 123.89 C 151.19 124.95 147.11 126.21 143.30 128.11 C 143.79 126.72 144.33 125.35 144.96 124.01 C 144.81 124.62 144.53 125.83 144.38 126.43 C 148.46 125.02 152.46 123.40 156.42 121.71 C 156.31 117.14 156.46 112.56 156.18 108.00 C 156.03 106.34 156.52 104.73 157.12 103.21 Z" />
</g>
<g id="#bfa28aff">
<path fill="#bfa28a" opacity="1.00" d=" M 78.90 110.65 C 80.89 109.22 82.97 107.91 85.23 106.96 C 81.91 111.11 76.48 112.55 72.06 115.20 C 71.88 117.15 71.70 119.10 71.52 121.06 C 71.31 119.14 71.10 117.22 70.88 115.31 C 67.83 117.27 65.05 119.62 62.28 121.95 C 63.97 119.21 65.71 116.49 67.74 113.99 L 67.60 115.79 C 69.99 114.71 71.32 112.82 70.57 110.17 C 70.87 109.40 71.32 108.71 71.71 107.99 C 72.87 111.19 76.12 110.86 78.90 110.65 Z" />
</g>
<g id="#b19075ff">
<path fill="#b19075" opacity="1.00" d=" M 155.13 111.33 C 156.42 111.58 156.65 112.35 155.84 113.62 C 154.54 113.36 154.30 112.59 155.13 111.33 Z" />
</g>
<g id="#ebddceff">
<path fill="#ebddce" opacity="1.00" d=" M 118.38 125.17 C 121.37 121.77 124.95 118.47 129.20 116.79 C 126.03 119.98 123.00 124.22 118.38 125.17 Z" />
</g>
<g id="#e0cfbeff">
<path fill="#e0cfbe" opacity="1.00" d=" M 66.05 121.54 C 68.25 123.02 70.45 124.52 72.57 126.11 C 72.72 125.45 73.01 124.12 73.16 123.46 C 74.53 125.52 75.87 127.60 77.20 129.69 C 76.71 130.57 76.24 131.46 75.77 132.35 C 74.16 131.74 72.56 131.13 70.98 130.46 C 71.11 130.22 71.38 129.74 71.52 129.50 C 69.98 128.51 68.44 127.51 66.93 126.47 C 67.35 124.74 66.64 123.12 66.05 121.54 Z" />
<path fill="#e0cfbe" opacity="1.00" d=" M 117.86 159.88 C 119.80 159.39 121.80 159.21 123.79 159.35 C 123.88 161.04 122.36 162.40 121.77 163.92 C 120.44 163.66 119.12 163.39 117.80 163.13 C 118.53 162.50 119.26 161.88 119.99 161.26 C 119.46 160.91 118.40 160.22 117.86 159.88 Z" />
</g>
<g id="#ae8b6fff">
<path fill="#ae8b6f" opacity="1.00" d=" M 59.11 126.36 C 59.68 125.62 60.25 124.89 60.83 124.16 C 63.59 127.14 67.32 128.86 70.98 130.46 C 72.56 131.13 74.16 131.74 75.77 132.35 C 75.41 133.04 75.04 133.73 74.68 134.42 L 74.30 134.63 C 71.20 136.06 67.90 139.29 69.38 142.98 C 69.11 143.33 68.84 143.68 68.57 144.04 C 68.31 142.01 68.48 139.31 66.14 138.45 C 65.44 138.00 64.74 137.56 64.04 137.11 C 65.99 135.47 68.40 134.71 70.89 134.39 C 70.62 134.15 70.08 133.67 69.82 133.43 C 66.72 130.41 62.81 128.50 59.11 126.36 Z" />
</g>
<g id="#e2d2c3ff">
<path fill="#e2d2c3" opacity="1.00" d=" M 143.30 128.11 C 147.11 126.21 151.19 124.95 155.31 123.89 C 151.20 126.51 146.70 128.42 142.22 130.28 C 142.49 129.74 143.03 128.66 143.30 128.11 Z" />
</g>
<g id="#d0b8a4ff">
<path fill="#d0b8a4" opacity="1.00" d=" M 69.82 133.43 C 70.08 133.67 70.62 134.15 70.89 134.39 C 68.40 134.71 65.99 135.47 64.04 137.11 C 64.74 137.56 65.44 138.00 66.14 138.45 C 63.38 138.63 60.88 139.91 59.34 142.23 C 59.32 141.88 59.30 141.18 59.29 140.83 C 57.44 140.55 55.79 139.71 54.33 138.57 C 53.97 138.54 53.26 138.47 52.91 138.43 L 51.56 137.84 L 52.63 137.34 C 57.92 134.45 63.98 134.17 69.82 133.43 Z" />
</g>
<g id="#c6ac96ff">
<path fill="#c6ac96" opacity="1.00" d=" M 112.34 141.10 C 114.10 147.04 114.26 153.30 114.01 159.45 C 113.82 159.67 113.45 160.11 113.26 160.33 C 113.17 157.84 112.80 155.34 111.29 153.28 C 111.11 152.97 110.76 152.34 110.58 152.02 C 110.99 149.92 111.53 147.86 111.91 145.76 C 112.12 144.21 112.26 142.66 112.34 141.10 Z" />
</g>
<g id="#a47e5fff">
<path fill="#a47e5f" opacity="1.00" d=" M 108.19 152.07 C 109.47 152.69 109.46 153.39 108.17 154.15 C 106.89 153.53 106.90 152.83 108.19 152.07 Z" />
</g>
<g id="#926747ff">
<path fill="#926747" opacity="1.00" d=" M 111.29 153.28 C 112.80 155.34 113.17 157.84 113.26 160.33 C 113.45 160.11 113.82 159.67 114.01 159.45 C 117.76 156.22 122.41 154.28 127.20 153.16 C 127.19 153.46 127.18 154.05 127.18 154.35 L 126.77 154.35 C 123.32 153.99 120.42 156.18 117.60 157.81 C 119.72 158.11 121.86 158.36 123.95 158.88 L 123.79 159.35 C 121.80 159.21 119.80 159.39 117.86 159.88 C 117.05 160.29 116.25 160.70 115.45 161.13 C 115.45 161.83 115.46 162.53 115.46 163.23 C 114.35 163.80 113.23 164.35 112.14 164.97 C 111.66 164.72 110.69 164.23 110.20 163.98 C 110.14 162.29 110.06 160.59 109.97 158.90 C 105.73 166.29 102.56 174.26 99.08 182.03 C 99.86 176.37 103.33 171.66 105.51 166.50 C 106.75 163.42 109.05 160.49 108.70 157.01 C 109.55 155.76 110.42 154.52 111.29 153.28 Z" />
</g>
<g id="#ceb9a6ff">
<path fill="#ceb9a6" opacity="1.00" d=" M 52.48 158.39 C 55.66 156.76 58.94 155.34 62.17 153.82 C 60.72 156.26 59.27 158.76 57.21 160.74 C 56.71 160.66 55.72 160.52 55.23 160.44 C 55.67 160.84 56.55 161.63 56.99 162.03 L 55.97 162.11 L 54.87 162.18 C 54.31 161.72 53.18 160.79 52.62 160.32 C 52.58 159.84 52.51 158.87 52.48 158.39 Z" />
</g>
<g id="#e9dbccff">
<path fill="#e9dbcc" opacity="1.00" d=" M 82.48 158.50 C 83.33 157.03 84.15 155.54 84.93 154.04 C 86.20 155.36 87.47 156.69 88.75 158.01 C 87.93 159.02 87.06 160.00 86.22 161.00 L 87.50 161.11 C 87.04 161.56 86.12 162.45 85.66 162.90 C 84.61 161.43 83.55 159.96 82.48 158.50 Z" />
</g>
<g id="#a6876dff">
<path fill="#a6876d" opacity="1.00" d=" M 147.05 159.24 C 150.62 158.21 153.98 156.57 157.08 154.52 C 156.39 156.99 155.56 159.42 154.71 161.84 L 154.55 161.72 C 154.19 161.46 153.48 160.93 153.12 160.67 C 151.51 161.04 149.90 161.42 148.30 161.80 C 147.88 160.94 147.46 160.09 147.05 159.24 Z" />
</g>
<g id="#a88465ff">
<path fill="#a88465" opacity="1.00" d=" M 111.97 167.00 C 114.10 167.42 113.17 171.17 111.60 168.79 C 111.69 168.34 111.88 167.45 111.97 167.00 Z" />
</g>
<g id="#e2d1c1ff">
<path fill="#e2d1c1" opacity="1.00" d=" M 127.00 168.86 C 128.42 168.93 129.68 169.66 130.84 170.42 C 130.00 170.93 129.12 171.39 128.17 171.64 C 127.84 171.09 127.19 169.98 126.86 169.43 L 127.00 168.86 Z" />
</g>
<g id="#976e4eff">
<path fill="#976e4e" opacity="1.00" d=" M 111.05 171.19 C 113.31 171.26 115.57 171.33 117.83 171.40 C 117.41 172.20 116.99 173.01 116.57 173.81 L 116.54 173.42 C 116.51 173.09 116.44 172.44 116.41 172.11 C 114.73 172.10 113.06 172.14 111.38 172.18 C 108.29 179.37 104.41 186.27 102.11 193.78 C 102.30 194.27 102.69 195.24 102.88 195.73 C 102.66 196.27 102.21 197.36 101.99 197.91 C 99.18 195.46 97.22 192.28 95.76 188.89 C 96.90 189.20 98.04 189.53 99.17 189.88 C 99.63 190.38 100.56 191.39 101.02 191.89 C 101.11 190.06 101.03 188.23 100.73 186.43 C 100.96 186.54 101.44 186.76 101.67 186.86 C 101.95 188.14 102.23 189.42 102.50 190.70 C 104.79 183.96 108.12 177.65 111.05 171.19 Z" />
<path fill="#976e4e" opacity="1.00" d=" M 79.63 186.75 C 81.01 185.20 82.39 183.67 83.77 182.14 C 84.42 182.50 85.06 182.86 85.71 183.22 C 83.87 183.88 82.38 185.10 81.08 186.53 C 80.72 186.59 80.00 186.70 79.63 186.75 Z" />
</g>
<g id="#c4a993ff">
<path fill="#c4a993" opacity="1.00" d=" M 78.31 178.46 C 79.49 177.96 80.68 177.47 81.90 177.05 C 82.98 177.21 84.06 177.41 85.14 177.62 C 84.52 177.68 83.28 177.79 82.66 177.84 C 84.70 180.48 87.14 182.81 90.08 184.43 C 88.94 182.83 87.75 181.27 86.54 179.73 C 86.60 179.29 86.72 178.40 86.79 177.96 C 89.93 179.60 92.62 181.92 95.21 184.31 C 95.10 183.62 94.88 182.25 94.78 181.56 C 95.32 181.94 96.42 182.71 96.97 183.09 C 97.01 182.51 97.09 181.34 97.13 180.75 C 98.00 182.29 98.88 183.84 99.75 185.39 C 99.95 184.66 100.36 183.18 100.57 182.44 C 100.95 183.91 101.34 185.38 101.67 186.86 C 101.44 186.76 100.96 186.54 100.73 186.43 C 101.03 188.23 101.11 190.06 101.02 191.89 C 100.56 191.39 99.63 190.38 99.17 189.88 C 98.03 188.60 96.86 187.35 95.66 186.14 C 92.61 188.94 89.45 185.66 86.50 184.55 C 88.18 186.95 90.04 189.22 92.03 191.38 C 91.47 196.96 93.74 202.29 95.37 207.51 L 95.43 207.68 C 95.14 208.03 94.55 208.71 94.26 209.05 C 93.02 205.08 92.11 201.03 91.01 197.02 C 89.91 191.93 84.85 189.45 81.08 186.53 C 82.38 185.10 83.87 183.88 85.71 183.22 C 85.06 182.86 84.42 182.50 83.77 182.14 C 82.39 183.67 81.01 185.20 79.63 186.75 C 76.80 186.86 73.97 186.79 71.14 186.65 C 70.68 186.52 69.76 186.25 69.31 186.11 C 72.32 184.28 75.26 182.33 78.34 180.62 C 77.64 180.38 76.25 179.91 75.56 179.67 C 76.47 179.26 77.39 178.86 78.31 178.46 Z" />
</g>
<g id="#ab886cff">
<path fill="#ab886c" opacity="1.00" d=" M 82.66 177.84 C 83.28 177.79 84.52 177.68 85.14 177.62 C 85.55 177.71 86.37 177.88 86.79 177.96 C 86.72 178.40 86.60 179.29 86.54 179.73 C 87.75 181.27 88.94 182.83 90.08 184.43 C 87.14 182.81 84.70 180.48 82.66 177.84 Z" />
</g>
<g id="#af8d72ff">
<path fill="#af8d72" opacity="1.00" d=" M 132.30 184.68 C 134.10 188.63 131.98 192.76 131.09 196.65 C 133.20 197.26 135.32 197.88 137.43 198.52 C 137.24 198.74 136.86 199.16 136.67 199.38 C 134.27 199.09 131.88 199.52 130.26 201.45 C 128.69 205.03 129.19 210.56 124.71 211.95 C 125.19 213.50 125.73 215.03 126.36 216.52 C 125.87 217.33 125.34 218.12 124.84 218.93 L 124.30 218.93 C 122.00 218.90 119.69 218.82 117.42 218.47 C 119.27 218.12 121.14 217.93 123.01 217.71 C 123.46 216.73 123.90 215.75 124.33 214.77 C 123.66 215.18 122.32 216.00 121.65 216.41 C 118.17 213.68 115.06 210.49 111.41 207.95 C 112.00 206.85 112.60 205.75 113.21 204.66 C 115.70 208.71 119.80 211.34 124.01 213.32 C 124.12 212.52 124.33 210.92 124.44 210.12 C 121.49 208.22 118.83 205.93 116.00 203.87 C 115.16 203.11 113.97 203.42 112.96 203.34 C 114.11 201.14 115.10 198.86 115.98 196.55 C 115.96 197.10 115.93 198.21 115.91 198.77 C 119.29 201.74 123.01 204.35 127.11 206.26 C 128.20 202.12 129.10 197.94 129.90 193.74 C 125.84 195.14 121.49 197.13 117.15 195.71 L 117.19 195.27 C 121.17 196.03 125.66 195.52 128.86 192.84 C 129.20 191.21 129.29 189.55 129.44 187.90 C 129.75 189.15 130.08 190.40 130.42 191.65 C 131.14 189.35 131.81 187.04 132.30 184.68 M 115.20 201.11 C 115.23 201.37 115.30 201.88 115.34 202.13 C 118.99 205.11 122.72 208.09 127.02 210.11 C 127.10 209.39 127.25 207.95 127.33 207.23 C 123.09 206.08 120.12 202.79 116.60 200.42 C 116.25 200.59 115.55 200.94 115.20 201.11 Z" />
</g>
<g id="#cfb8a4ff">
<path fill="#cfb8a4" opacity="1.00" d=" M 63.94 205.77 C 58.57 202.29 60.59 195.03 63.64 190.67 C 64.04 195.69 64.16 200.73 63.94 205.77 Z" />
</g>
<g id="#b79e89ff">
<path fill="#b79e89" opacity="1.00" d=" M 130.26 201.45 C 131.88 199.52 134.27 199.09 136.67 199.38 C 135.95 200.87 135.15 202.32 134.31 203.74 C 132.96 202.98 131.61 202.22 130.26 201.45 Z" />
</g>
<g id="#efe2d5ff">
<path fill="#efe2d5" opacity="1.00" d=" M 115.20 201.11 C 115.55 200.94 116.25 200.59 116.60 200.42 C 120.12 202.79 123.09 206.08 127.33 207.23 C 127.25 207.95 127.10 209.39 127.02 210.11 C 122.72 208.09 118.99 205.11 115.34 202.13 C 115.30 201.88 115.23 201.37 115.20 201.11 Z" />
</g>
<g id="#efe3d5ff">
<path fill="#efe3d5" opacity="1.00" d=" M 78.62 210.66 C 82.34 210.09 86.18 210.62 89.74 211.73 C 89.76 212.00 89.80 212.55 89.82 212.83 C 85.85 213.13 81.88 211.62 77.85 211.89 L 78.62 210.66 Z" />
</g>
<g id="#cbb29dff">
<path fill="#cbb29d" opacity="1.00" d=" M 110.24 219.15 C 111.09 218.53 111.94 217.91 112.79 217.29 C 113.91 217.68 115.03 218.06 116.16 218.45 C 116.35 219.14 116.54 219.83 116.73 220.53 C 118.54 220.58 120.36 220.64 122.18 220.72 C 120.32 223.60 116.17 224.42 113.21 222.82 C 112.00 221.79 111.17 220.41 110.24 219.15 Z" />
</g>
</svg>
