<?xml version="1.0" encoding="UTF-8" ?>
<!DOCTYPE svg PUBLIC "-//W3C//DTD SVG 1.1//EN" "http://www.w3.org/Graphics/SVG/1.1/DTD/svg11.dtd">
<svg width="32pt" height="32pt" viewBox="0 0 32 32" version="1.1" xmlns="http://www.w3.org/2000/svg">
<g id="#000000ff">
<path fill="#000000" opacity="1.00" d=" M 0.00 0.00 L 32.00 0.00 L 32.00 32.00 L 0.00 32.00 L 0.00 0.00 M 8.01 8.99 C 8.01 13.85 7.45 18.89 8.30 23.65 C 12.58 24.70 17.21 23.80 21.62 24.10 C 21.62 23.28 21.63 22.45 21.62 21.63 C 17.87 21.62 14.12 21.63 10.37 21.62 C 10.37 20.69 10.38 19.75 10.38 18.82 C 14.39 18.68 18.44 19.07 22.43 18.64 C 24.93 17.96 23.88 14.91 24.13 13.03 C 23.89 11.35 24.77 8.99 22.90 8.01 C 18.27 7.83 13.62 7.84 8.98 8.00 C 8.74 8.25 8.25 8.74 8.01 8.99 Z" />
<path fill="#000000" opacity="1.00" d=" M 10.38 10.38 C 14.13 10.37 17.87 10.37 21.62 10.38 C 21.63 12.25 21.63 14.12 21.63 15.99 C 17.88 16.00 14.12 16.00 10.37 15.99 C 10.37 14.12 10.37 12.25 10.38 10.38 Z" />
</g>
<g id="#ffffffff">
<path fill="#ffffff" opacity="1.00" d=" M 8.01 8.99 C 8.25 8.74 8.74 8.25 8.98 8.00 C 13.62 7.84 18.27 7.83 22.90 8.01 C 24.77 8.99 23.89 11.35 24.13 13.03 C 23.88 14.91 24.93 17.96 22.43 18.64 C 18.44 19.07 14.39 18.68 10.38 18.82 C 10.38 19.75 10.37 20.69 10.37 21.62 C 14.12 21.63 17.87 21.62 21.62 21.63 C 21.63 22.45 21.62 23.28 21.62 24.10 C 17.21 23.80 12.58 24.70 8.30 23.65 C 7.45 18.89 8.01 13.85 8.01 8.99 M 10.38 10.38 C 10.37 12.25 10.37 14.12 10.37 15.99 C 14.12 16.00 17.88 16.00 21.63 15.99 C 21.63 14.12 21.63 12.25 21.62 10.38 C 17.87 10.37 14.13 10.37 10.38 10.38 Z" />
</g>
</svg>
