<?xml version="1.0" encoding="UTF-8" ?>
<!DOCTYPE svg PUBLIC "-//W3C//DTD SVG 1.1//EN" "http://www.w3.org/Graphics/SVG/1.1/DTD/svg11.dtd">
<svg width="300pt" height="300pt" viewBox="0 0 300 300" version="1.1" xmlns="http://www.w3.org/2000/svg">
<g id="#fefefdff">
<path fill="#fefefd" opacity="1.00" d=" M 0.00 0.00 L 300.00 0.00 L 300.00 300.00 L 0.00 300.00 L 0.00 0.00 M 196.36 32.77 C 143.60 46.28 90.91 60.04 38.15 73.52 C 33.51 74.57 29.01 76.26 24.26 76.77 C 28.09 92.15 33.06 107.24 36.79 122.64 C 61.50 116.35 86.15 109.78 110.88 103.56 C 115.83 102.15 120.77 100.68 125.90 100.08 C 123.89 105.25 120.82 109.88 117.69 114.43 C 99.54 143.03 81.35 171.60 63.25 200.23 C 62.06 202.48 59.95 204.80 60.75 207.54 C 63.52 218.20 66.93 228.70 69.50 239.42 C 70.33 242.85 71.47 246.18 72.59 249.52 C 73.03 249.48 73.89 249.40 74.32 249.36 C 84.55 232.13 95.85 215.57 106.32 198.50 C 114.82 185.62 122.83 172.42 131.28 159.51 C 157.50 117.74 184.32 76.35 210.66 34.66 C 211.65 32.90 212.48 31.05 213.33 29.22 C 207.49 29.33 201.94 31.27 196.36 32.77 M 84.87 271.18 C 111.60 264.72 138.15 257.55 164.80 250.80 C 201.59 241.43 238.31 231.83 275.11 222.52 C 271.00 207.30 266.63 192.15 262.48 176.94 C 232.38 184.80 202.23 192.45 172.10 200.17 C 193.77 165.58 215.97 131.33 237.83 96.87 C 239.90 94.32 238.34 91.08 237.70 88.31 C 233.83 75.15 230.37 61.89 226.44 48.76 C 179.29 122.93 131.83 196.90 84.87 271.18 Z" />
</g>
<g id="#fec905ff">
<path fill="#fec905" opacity="1.00" d=" M 196.36 32.77 C 201.94 31.27 207.49 29.33 213.33 29.22 C 212.48 31.05 211.65 32.90 210.66 34.66 C 184.32 76.35 157.50 117.74 131.28 159.51 C 122.83 172.42 114.82 185.62 106.32 198.50 C 95.85 215.57 84.55 232.13 74.32 249.36 C 73.89 249.40 73.03 249.48 72.59 249.52 C 71.47 246.18 70.33 242.85 69.50 239.42 C 66.93 228.70 63.52 218.20 60.75 207.54 C 59.95 204.80 62.06 202.48 63.25 200.23 C 81.35 171.60 99.54 143.03 117.69 114.43 C 120.82 109.88 123.89 105.25 125.90 100.08 C 120.77 100.68 115.83 102.15 110.88 103.56 C 86.15 109.78 61.50 116.35 36.79 122.64 C 33.06 107.24 28.09 92.15 24.26 76.77 C 29.01 76.26 33.51 74.57 38.15 73.52 C 90.91 60.04 143.60 46.28 196.36 32.77 Z" />
</g>
<g id="#2e68b2ff">
<path fill="#2e68b2" opacity="1.00" d=" M 84.87 271.18 C 131.83 196.90 179.29 122.93 226.44 48.76 C 230.37 61.89 233.83 75.15 237.70 88.31 C 238.34 91.08 239.90 94.32 237.83 96.87 C 215.97 131.33 193.77 165.58 172.10 200.17 C 202.23 192.45 232.38 184.80 262.48 176.94 C 266.63 192.15 271.00 207.30 275.11 222.52 C 238.31 231.83 201.59 241.43 164.80 250.80 C 138.15 257.55 111.60 264.72 84.87 271.18 Z" />
</g>
</svg>
