<?xml version="1.0" encoding="UTF-8" ?>
<!DOCTYPE svg PUBLIC "-//W3C//DTD SVG 1.1//EN" "http://www.w3.org/Graphics/SVG/1.1/DTD/svg11.dtd">
<svg width="144pt" height="144pt" viewBox="0 0 144 144" version="1.1" xmlns="http://www.w3.org/2000/svg">
<g id="#ca210aff">
<path fill="#ca210a" opacity="1.00" d=" M 16.75 0.00 L 127.26 0.00 C 135.75 0.72 143.44 7.71 144.00 16.38 L 144.00 128.29 C 143.21 136.36 136.35 143.20 128.29 144.00 L 16.63 144.00 C 7.91 143.60 0.85 135.94 0.00 127.46 L 0.00 16.92 C 0.77 8.19 8.05 0.89 16.75 0.00 M 18.11 34.29 C 25.32 59.59 32.22 84.97 39.48 110.25 C 46.30 110.18 53.13 110.25 59.95 110.21 C 63.82 91.72 67.89 73.27 71.96 54.82 C 75.77 73.32 79.86 91.76 83.79 110.23 C 90.54 110.21 97.30 110.23 104.05 110.22 C 111.35 84.91 118.65 59.60 126.02 34.31 C 119.14 34.25 112.27 34.32 105.39 34.26 C 101.58 52.45 97.29 70.54 93.82 88.80 C 89.54 70.72 86.03 52.46 82.14 34.29 C 75.41 34.30 68.69 34.26 61.97 34.31 C 58.42 52.45 54.82 70.57 51.07 88.67 C 47.36 70.50 43.24 52.41 39.39 34.27 C 32.29 34.31 25.20 34.27 18.11 34.29 Z" />
</g>
<g id="#ffffffff">
<path fill="#ffffff" opacity="1.00" d=" M 18.11 34.29 C 25.20 34.27 32.29 34.31 39.39 34.27 C 43.24 52.41 47.36 70.50 51.07 88.67 C 54.82 70.57 58.42 52.45 61.97 34.31 C 68.69 34.26 75.41 34.30 82.14 34.29 C 86.03 52.46 89.54 70.72 93.82 88.80 C 97.29 70.54 101.58 52.45 105.39 34.26 C 112.27 34.32 119.14 34.25 126.02 34.31 C 118.65 59.60 111.35 84.91 104.05 110.22 C 97.30 110.23 90.54 110.21 83.79 110.23 C 79.86 91.76 75.77 73.32 71.96 54.82 C 67.89 73.27 63.82 91.72 59.95 110.21 C 53.13 110.25 46.30 110.18 39.48 110.25 C 32.22 84.97 25.32 59.59 18.11 34.29 Z" />
</g>
</svg>
