<?xml version="1.0" encoding="UTF-8" ?>
<!DOCTYPE svg PUBLIC "-//W3C//DTD SVG 1.1//EN" "http://www.w3.org/Graphics/SVG/1.1/DTD/svg11.dtd">
<svg width="59pt" height="33pt" viewBox="0 0 59 33" version="1.1" xmlns="http://www.w3.org/2000/svg">
<g id="#fefefeff">
<path fill="#fefefe" opacity="1.00" d=" M 0.00 0.00 L 25.86 0.00 C 25.16 0.49 23.77 1.48 23.08 1.97 C 22.30 1.65 20.75 1.00 19.97 0.68 C 19.82 1.90 19.67 3.13 19.52 4.35 C 17.90 4.38 16.28 4.41 14.66 4.44 C 15.78 7.18 17.57 9.59 20.18 11.08 C 15.85 10.69 11.52 11.13 7.29 12.02 C 8.98 12.64 10.67 13.27 12.35 13.91 C 9.92 15.19 7.49 16.48 5.13 17.90 C 6.28 18.48 7.43 19.07 8.57 19.67 C 5.84 21.89 2.88 23.79 0.19 26.05 C 7.58 28.11 15.42 26.51 22.99 27.00 C 26.21 26.53 29.45 29.70 32.30 27.13 C 39.90 26.80 47.51 27.17 55.11 26.98 C 56.23 26.96 56.94 26.38 57.27 25.23 C 54.31 23.13 51.39 20.98 48.76 18.47 C 50.05 17.83 51.34 17.20 52.62 16.56 C 49.89 15.49 47.17 14.42 44.47 13.28 C 46.20 12.50 47.95 11.78 49.71 11.05 C 46.09 9.93 42.30 9.59 38.54 10.02 C 40.57 8.46 41.82 6.25 42.56 3.83 C 40.83 3.87 39.10 3.91 37.38 3.95 C 37.21 2.88 37.04 1.80 36.87 0.73 C 34.97 1.07 33.07 1.37 31.17 1.66 C 30.78 1.24 30.01 0.41 29.62 0.00 L 59.00 0.00 L 59.00 33.00 L 0.00 33.00 L 0.00 0.00 Z" />
<path fill="#fefefe" opacity="1.00" d=" M 26.60 0.00 L 28.32 0.00 C 28.06 0.30 27.54 0.89 27.29 1.19 L 26.46 0.83 L 26.60 0.00 Z" />
<path fill="#fefefe" opacity="1.00" d=" M 28.52 1.34 C 31.92 3.57 33.41 10.59 28.14 11.25 C 24.29 9.18 26.15 3.88 28.52 1.34 Z" />
<path fill="#fefefe" opacity="1.00" d=" M 31.90 3.05 C 33.31 2.67 34.72 2.31 36.14 1.97 C 36.32 4.27 34.58 5.49 32.83 6.53 C 32.51 5.37 32.20 4.21 31.90 3.05 Z" />
<path fill="#fefefe" opacity="1.00" d=" M 19.88 2.48 C 20.88 2.58 22.87 2.80 23.87 2.91 C 25.76 3.53 25.04 5.85 25.27 7.30 C 23.20 6.02 20.92 4.82 19.88 2.48 Z" />
<path fill="#fefefe" opacity="1.00" d=" M 35.09 6.12 C 36.92 4.88 39.19 5.03 41.29 4.94 C 39.88 7.95 36.66 10.55 33.16 9.65 C 33.01 10.17 32.72 11.19 32.57 11.71 C 33.34 11.50 34.87 11.09 35.64 10.89 C 33.25 12.42 31.35 14.53 29.59 16.73 C 30.02 17.40 30.46 18.06 30.91 18.72 C 32.05 12.26 39.44 10.29 45.08 11.00 C 44.54 11.87 44.00 12.74 43.46 13.61 C 39.61 13.27 35.50 14.12 32.85 17.14 C 32.00 18.10 31.22 19.11 30.49 20.17 C 28.79 16.96 26.79 13.86 23.59 11.95 C 25.76 12.01 27.96 12.47 30.12 12.05 C 32.59 10.84 32.57 7.32 35.09 6.12 Z" />
<path fill="#fefefe" opacity="1.00" d=" M 16.63 5.96 C 20.44 5.12 24.69 6.87 25.77 10.87 C 22.25 10.30 18.55 9.25 16.63 5.96 Z" />
<path fill="#fefefe" opacity="1.00" d=" M 12.00 12.17 C 15.73 12.12 19.57 12.47 23.11 11.04 C 22.55 11.41 21.42 12.16 20.86 12.53 C 23.68 13.22 25.81 15.19 27.76 17.22 C 26.92 17.84 26.08 18.47 25.27 19.12 L 27.47 20.21 C 25.44 20.10 24.08 18.33 22.26 17.65 C 18.00 16.12 13.29 17.03 9.37 19.07 C 9.03 18.64 8.34 17.77 8.00 17.34 C 12.85 14.87 19.73 12.75 23.98 17.44 C 24.51 16.95 25.03 16.46 25.55 15.97 C 21.78 13.83 17.53 13.13 13.28 13.83 C 12.96 13.41 12.32 12.58 12.00 12.17 Z" />
<path fill="#fefefe" opacity="1.00" d=" M 33.06 18.43 C 37.34 13.73 44.25 14.06 49.61 16.52 C 49.16 16.89 48.25 17.64 47.80 18.01 C 42.98 16.15 37.17 16.21 33.11 19.75 L 32.85 17.14 L 33.06 18.43 Z" />
<path fill="#fefefe" opacity="1.00" d=" M 5.40 23.82 C 8.88 20.70 13.17 17.73 18.07 18.06 C 22.28 17.88 25.61 20.90 28.20 23.85 C 20.60 23.87 13.00 23.92 5.40 23.82 Z" />
<path fill="#fefefe" opacity="1.00" d=" M 30.78 23.85 C 33.38 20.90 36.71 17.82 40.93 18.00 C 45.79 17.46 49.84 20.69 53.10 23.86 C 45.66 23.87 38.22 23.88 30.78 23.85 Z" />
<path fill="#fefefe" opacity="1.00" d=" M 1.78 25.30 C 17.86 24.75 33.97 25.25 50.06 25.04 C 52.17 25.10 54.44 24.74 56.40 25.74 C 48.10 26.14 39.79 25.76 31.48 25.97 C 30.98 26.29 29.98 26.94 29.48 27.26 C 25.74 24.82 21.13 26.26 16.97 25.92 C 11.91 25.62 6.72 26.56 1.78 25.30 Z" />
</g>
<g id="#646464ff">
<path fill="#646464" opacity="1.00" d=" M 25.86 0.00 L 26.60 0.00 L 26.46 0.83 L 27.29 1.19 C 27.54 0.89 28.06 0.30 28.32 0.00 L 29.62 0.00 C 30.01 0.41 30.78 1.24 31.17 1.66 C 33.07 1.37 34.97 1.07 36.87 0.73 C 37.04 1.80 37.21 2.88 37.38 3.95 C 39.10 3.91 40.83 3.87 42.56 3.83 C 41.82 6.25 40.57 8.46 38.54 10.02 C 42.30 9.59 46.09 9.93 49.71 11.05 C 47.95 11.78 46.20 12.50 44.47 13.28 C 47.17 14.42 49.89 15.49 52.62 16.56 C 51.34 17.20 50.05 17.83 48.76 18.47 C 51.39 20.98 54.31 23.13 57.27 25.23 C 56.94 26.38 56.23 26.96 55.11 26.98 C 47.51 27.17 39.90 26.80 32.30 27.13 C 29.45 29.70 26.21 26.53 22.99 27.00 C 15.42 26.51 7.58 28.11 0.19 26.05 C 2.88 23.79 5.84 21.89 8.57 19.67 C 7.43 19.07 6.28 18.48 5.13 17.90 C 7.49 16.48 9.92 15.19 12.35 13.91 C 10.67 13.27 8.98 12.64 7.29 12.02 C 11.52 11.13 15.85 10.69 20.18 11.08 C 17.57 9.59 15.78 7.18 14.66 4.44 C 16.28 4.41 17.90 4.38 19.52 4.35 C 19.67 3.13 19.82 1.90 19.97 0.68 C 20.75 1.00 22.30 1.65 23.08 1.97 C 23.77 1.48 25.16 0.49 25.86 0.00 M 28.52 1.34 C 26.15 3.88 24.29 9.18 28.14 11.25 C 33.41 10.59 31.92 3.57 28.52 1.34 M 31.90 3.05 C 32.20 4.21 32.51 5.37 32.83 6.53 C 34.58 5.49 36.32 4.27 36.14 1.97 C 34.72 2.31 33.31 2.67 31.90 3.05 M 19.88 2.48 C 20.92 4.82 23.20 6.02 25.27 7.30 C 25.04 5.85 25.76 3.53 23.87 2.91 C 22.87 2.80 20.88 2.58 19.88 2.48 M 35.09 6.12 C 32.57 7.32 32.59 10.84 30.12 12.05 C 27.96 12.47 25.76 12.01 23.59 11.95 C 26.79 13.86 28.79 16.96 30.49 20.17 C 31.22 19.11 32.00 18.10 32.85 17.14 C 35.50 14.12 39.61 13.27 43.46 13.61 C 44.00 12.74 44.54 11.87 45.08 11.00 C 39.44 10.29 32.05 12.26 30.91 18.72 C 30.46 18.06 30.02 17.40 29.59 16.73 C 31.35 14.53 33.25 12.42 35.64 10.89 C 34.87 11.09 33.34 11.50 32.57 11.71 C 32.72 11.19 33.01 10.17 33.16 9.65 C 36.66 10.55 39.88 7.95 41.29 4.94 C 39.19 5.03 36.92 4.88 35.09 6.12 M 16.63 5.96 C 18.55 9.25 22.25 10.30 25.77 10.87 C 24.69 6.87 20.44 5.12 16.63 5.96 M 12.00 12.17 C 12.32 12.58 12.96 13.41 13.28 13.83 C 17.53 13.13 21.78 13.83 25.55 15.97 C 25.03 16.46 24.51 16.95 23.98 17.44 C 19.73 12.75 12.85 14.87 8.00 17.34 C 8.34 17.77 9.03 18.64 9.37 19.07 C 13.29 17.03 18.00 16.12 22.26 17.65 C 24.08 18.33 25.44 20.10 27.47 20.21 L 25.27 19.12 C 26.08 18.47 26.92 17.84 27.76 17.22 C 25.81 15.19 23.68 13.22 20.86 12.53 C 21.42 12.16 22.55 11.41 23.11 11.04 C 19.57 12.47 15.73 12.12 12.00 12.17 M 33.06 18.43 L 32.85 17.14 L 33.11 19.75 C 37.17 16.21 42.98 16.15 47.80 18.01 C 48.25 17.64 49.16 16.89 49.61 16.52 C 44.25 14.06 37.34 13.73 33.06 18.43 M 5.40 23.82 C 13.00 23.92 20.60 23.87 28.20 23.85 C 25.61 20.90 22.28 17.88 18.07 18.06 C 13.17 17.73 8.88 20.70 5.40 23.82 M 30.78 23.85 C 38.22 23.88 45.66 23.87 53.10 23.86 C 49.84 20.69 45.79 17.46 40.93 18.00 C 36.71 17.82 33.38 20.90 30.78 23.85 M 1.78 25.30 C 6.72 26.56 11.91 25.62 16.97 25.92 C 21.13 26.26 25.74 24.82 29.48 27.26 C 29.98 26.94 30.98 26.29 31.48 25.97 C 39.79 25.76 48.10 26.14 56.40 25.74 C 54.44 24.74 52.17 25.10 50.06 25.04 C 33.97 25.25 17.86 24.75 1.78 25.30 Z" />
</g>
</svg>
