<?xml version="1.0" encoding="UTF-8" ?>
<!DOCTYPE svg PUBLIC "-//W3C//DTD SVG 1.1//EN" "http://www.w3.org/Graphics/SVG/1.1/DTD/svg11.dtd">
<svg width="122pt" height="33pt" viewBox="0 0 122 33" version="1.1" xmlns="http://www.w3.org/2000/svg">
<g id="#fefefefe">
<path fill="#fefefe" opacity="1.00" d=" M 13.62 11.50 C 12.82 4.92 19.63 -0.98 26.02 0.96 C 24.93 2.03 23.83 3.08 22.73 4.14 C 19.69 4.85 18.10 8.01 15.76 9.86 L 15.19 10.02 C 21.20 13.54 13.44 9.78 13.12 13.10 C 11.42 15.39 9.38 17.41 7.74 19.74 C 6.81 20.67 7.86 21.81 8.19 22.74 C 9.02 22.51 9.59 21.79 10.30 21.34 C 7.55 19.06 11.68 16.63 12.62 14.59 L 13.06 14.83 C 13.24 15.18 13.61 15.89 13.79 16.25 L 11.03 18.42 C 13.38 17.43 15.89 17.22 18.41 17.69 C 15.19 21.17 10.96 23.49 6.49 24.94 C 4.49 27.17 2.94 29.74 1.06 32.05 C 2.43 29.40 4.03 26.88 5.62 24.35 C 4.47 17.95 8.87 12.39 12.70 7.75 C 12.93 8.69 13.39 10.56 13.62 11.50 Z" />
<path fill="#fefefe" opacity="1.00" d=" M 17.22 12.37 C 19.72 8.29 23.02 4.83 26.55 1.61 C 27.33 3.48 27.86 5.69 26.53 7.45 C 24.57 8.32 22.49 8.84 20.51 9.67 C 21.70 9.59 24.09 9.43 25.28 9.35 C 23.48 11.72 21.60 14.02 19.68 16.29 C 17.95 16.23 15.26 18.12 14.09 16.33 C 14.61 14.83 16.84 13.22 14.36 11.83 L 17.03 12.76 L 17.22 12.37 Z" />
<path fill="#fefefe" opacity="1.00" d=" M 49.06 8.51 C 49.40 8.18 50.07 7.51 50.41 7.18 C 50.46 8.83 50.44 10.48 50.38 12.14 C 49.17 10.77 48.18 8.67 45.97 9.25 C 39.90 9.93 39.98 20.67 46.00 21.50 C 48.13 22.04 49.27 20.00 50.15 18.47 C 50.36 19.54 50.51 20.62 50.66 21.70 C 47.55 22.66 43.84 23.10 41.12 20.93 C 37.18 18.11 37.76 11.24 42.13 9.13 C 44.23 7.84 46.75 8.33 49.06 8.51 Z" />
<path fill="#fefefe" opacity="1.00" d=" M 53.49 12.32 C 54.50 12.36 55.50 12.39 56.51 12.41 C 55.09 15.30 55.97 18.67 55.80 21.77 C 57.19 21.52 58.58 21.22 59.85 20.56 L 60.20 20.83 C 60.50 20.95 61.10 21.18 61.40 21.29 C 62.66 18.03 63.77 14.71 65.15 11.49 C 67.04 14.92 68.16 18.70 69.81 22.25 C 68.84 22.27 67.87 22.30 66.90 22.33 C 66.86 21.39 66.89 20.44 66.99 19.50 C 65.72 19.34 64.44 19.22 63.16 19.16 C 62.97 19.99 62.59 21.64 62.40 22.47 C 59.49 22.64 56.59 22.19 53.67 22.28 C 54.04 18.99 54.41 15.55 53.49 12.32 M 64.96 18.35 C 66.38 17.56 66.39 16.67 65.00 15.69 C 63.60 16.56 63.59 17.45 64.96 18.35 Z" />
<path fill="#fefefe" opacity="1.00" d=" M 71.64 14.94 C 72.02 12.29 74.93 12.55 76.90 12.25 C 76.93 12.95 77.00 14.35 77.04 15.05 C 76.51 14.51 75.46 13.43 74.94 12.89 C 74.50 13.32 73.64 14.18 73.20 14.61 C 74.78 16.40 78.51 17.52 77.65 20.53 C 76.86 23.15 73.79 22.35 71.75 22.36 C 71.73 21.60 71.71 20.83 71.68 20.06 C 72.82 21.29 76.07 22.63 76.10 19.88 C 74.71 18.17 71.86 17.37 71.64 14.94 Z" />
<path fill="#fefefe" opacity="1.00" d=" M 80.45 15.07 C 80.53 12.30 83.80 12.56 85.74 12.30 C 85.80 12.98 85.93 14.35 85.99 15.03 C 84.86 13.50 83.13 12.13 81.95 14.58 C 83.51 16.37 86.65 17.20 86.59 20.01 C 86.09 23.04 82.77 22.47 80.54 22.37 C 80.47 21.81 80.33 20.67 80.26 20.11 C 81.96 21.30 83.74 22.24 85.36 20.23 C 83.87 18.48 80.77 17.57 80.45 15.07 Z" />
<path fill="#fefefe" opacity="1.00" d=" M 88.44 12.32 C 89.46 12.37 90.47 12.40 91.49 12.42 C 91.07 15.84 91.25 19.31 91.40 22.75 L 89.53 21.97 C 88.90 18.83 90.71 14.92 88.44 12.32 Z" />
<path fill="#fefefe" opacity="1.00" d=" M 95.83 13.80 C 97.71 12.08 100.43 12.66 102.75 12.42 C 102.83 13.08 102.99 14.41 103.07 15.08 C 101.80 14.39 100.51 12.45 98.89 13.41 C 95.60 14.26 95.26 19.61 98.17 21.18 C 99.97 22.89 101.94 20.69 103.48 19.80 C 103.05 22.88 99.31 23.01 97.06 21.98 C 93.84 20.77 93.25 15.96 95.83 13.80 Z" />
<path fill="#fefefe" opacity="1.00" d=" M 105.51 12.42 C 106.51 12.40 107.51 12.37 108.51 12.31 C 106.38 14.92 107.95 18.69 107.58 21.78 C 109.18 21.60 110.71 21.13 112.08 20.28 C 112.06 20.59 112.01 21.21 111.99 21.52 C 111.28 21.69 109.86 22.04 109.16 22.21 C 108.25 22.24 106.45 22.31 105.55 22.34 C 105.81 19.04 105.90 15.72 105.51 12.42 Z" />
<path fill="#fefefe" opacity="1.00" d=" M 112.07 12.24 C 113.11 12.34 114.15 12.44 115.20 12.51 C 115.81 13.84 116.48 15.14 117.19 16.41 C 117.89 15.12 118.42 13.78 118.78 12.37 C 119.31 12.36 120.36 12.34 120.89 12.32 C 118.84 14.89 117.16 17.81 117.64 21.23 C 117.95 21.47 118.57 21.95 118.88 22.19 C 117.80 22.25 116.73 22.30 115.65 22.37 C 117.06 18.43 114.81 14.90 112.07 12.24 Z" />
<path fill="#fefefe" opacity="1.00" d=" M 13.49 14.40 C 14.01 13.98 14.01 13.98 13.49 14.40 Z" />
<path fill="#fefefe" opacity="1.00" d=" M 13.06 14.83 C 13.17 14.72 13.38 14.51 13.49 14.40 C 13.38 14.51 13.17 14.72 13.06 14.83 Z" />
</g>
</svg>
