<?xml version="1.0" encoding="UTF-8" ?>
<!DOCTYPE svg PUBLIC "-//W3C//DTD SVG 1.1//EN" "http://www.w3.org/Graphics/SVG/1.1/DTD/svg11.dtd">
<svg width="32pt" height="32pt" viewBox="0 0 32 32" version="1.1" xmlns="http://www.w3.org/2000/svg">
<g id="#73a746ff">
<path fill="#73a746" opacity="1.00" d=" M 5.80 6.15 C 14.38 6.47 22.96 7.00 31.55 7.31 C 31.62 8.32 31.76 10.35 31.82 11.36 C 23.02 11.30 14.21 10.80 5.43 10.19 C 5.55 8.85 5.67 7.50 5.80 6.15 Z" />
</g>
<g id="#bf5d3dd6">
<path fill="#bf5d3d" opacity="0.84" d=" M 0.00 11.83 C 6.68 11.64 13.36 11.81 20.04 11.70 C 22.88 11.69 25.87 11.46 28.45 12.92 C 26.05 13.79 23.50 13.95 20.97 13.87 C 13.98 13.72 6.99 13.95 0.00 13.71 L 0.00 11.83 Z" />
</g>
<g id="#575a57ff">
<path fill="#575a57" opacity="1.00" d=" M 2.87 14.79 C 9.84 14.69 16.82 14.65 23.79 14.81 C 23.79 16.20 23.78 17.58 23.77 18.97 C 16.81 19.04 9.84 19.11 2.88 18.93 C 2.87 17.55 2.87 16.17 2.87 14.79 Z" />
</g>
<g id="#efcc3dff">
<path fill="#efcc3d" opacity="1.00" d=" M 6.29 20.20 C 14.04 19.59 21.83 19.63 29.59 19.30 C 29.67 20.04 29.84 21.51 29.92 22.25 C 22.16 22.72 14.39 22.82 6.63 23.08 C 6.49 22.12 6.38 21.16 6.29 20.20 Z" />
</g>
<g id="#1b264bf7">
<path fill="#1b264b" opacity="0.97" d=" M 4.23 23.97 C 11.83 23.25 19.52 23.61 27.15 23.79 C 27.00 24.34 26.69 25.42 26.54 25.96 C 19.28 26.30 11.99 26.00 4.72 26.08 C 4.60 25.55 4.35 24.50 4.23 23.97 Z" />
</g>
</svg>
