<?xml version="1.0" encoding="UTF-8" ?>
<!DOCTYPE svg PUBLIC "-//W3C//DTD SVG 1.1//EN" "http://www.w3.org/Graphics/SVG/1.1/DTD/svg11.dtd">
<svg width="225pt" height="225pt" viewBox="0 0 225 225" version="1.1" xmlns="http://www.w3.org/2000/svg">
<g id="#2d2d2dff">
<path fill="#2d2d2d" opacity="1.00" d=" M 0.00 0.00 L 225.00 0.00 L 225.00 225.00 L 0.00 225.00 L 0.00 120.62 C 0.43 129.44 4.25 138.17 10.95 144.01 C 17.06 149.84 25.61 152.61 33.96 152.65 C 45.67 153.05 57.48 149.06 66.49 141.57 C 68.20 140.05 70.38 137.96 69.69 135.43 C 69.49 133.46 66.66 132.92 65.34 134.15 C 62.33 136.46 59.57 139.15 56.20 140.97 C 48.28 145.30 38.98 147.15 30.02 146.06 C 19.89 144.75 10.62 137.38 7.69 127.51 C 5.84 120.86 5.94 113.63 8.23 107.10 C 11.16 98.83 18.16 91.75 26.96 90.08 C 36.51 88.32 47.54 89.01 55.06 95.85 C 58.69 98.67 59.84 103.30 60.64 107.60 C 62.23 107.58 63.83 107.57 65.43 107.55 C 66.91 100.33 66.64 92.71 65.46 85.46 C 63.86 85.46 62.26 85.46 60.66 85.46 C 60.25 87.32 59.83 89.17 59.42 91.03 C 49.80 82.96 36.16 81.06 24.25 84.30 C 11.34 88.05 1.76 100.01 0.00 113.23 L 0.00 0.00 M 192.60 42.68 C 187.27 47.69 181.36 52.50 178.20 59.26 C 173.36 69.10 171.42 79.98 168.73 90.52 C 164.81 90.43 160.91 90.70 157.00 90.85 C 152.03 90.64 148.40 94.65 144.02 96.36 C 151.81 96.21 159.60 96.46 167.40 96.49 C 160.91 119.18 157.84 142.76 150.25 165.14 C 147.89 171.06 145.24 178.08 138.86 180.65 C 133.36 183.07 127.24 180.93 121.58 181.51 C 119.21 185.00 116.81 188.47 114.20 191.78 C 121.40 192.77 129.34 193.45 136.00 189.99 C 144.97 183.78 153.05 175.88 158.30 166.24 C 162.77 157.22 166.45 147.79 168.94 138.03 C 172.60 124.13 176.55 110.30 179.87 96.31 C 184.95 96.29 190.04 96.49 195.10 96.07 C 197.83 94.84 200.05 92.70 202.14 90.59 C 195.26 90.34 188.37 90.51 181.49 90.56 C 184.75 77.54 187.95 64.45 192.73 51.89 C 194.41 47.91 196.73 43.49 201.02 41.89 C 206.40 40.78 211.85 42.12 217.21 42.70 C 219.70 39.54 222.35 36.52 224.99 33.49 C 220.46 32.22 215.67 32.23 211.03 32.83 C 203.96 33.88 197.93 38.18 192.60 42.68 M 85.51 42.52 C 77.07 49.19 72.77 59.77 71.07 70.14 C 72.25 70.41 73.43 70.69 74.61 70.97 C 78.14 63.39 81.51 54.62 89.41 50.60 C 99.04 46.51 111.77 47.88 118.97 55.96 C 124.93 63.11 124.94 73.17 123.51 81.90 C 120.55 97.01 110.19 109.09 99.91 119.95 C 91.05 129.08 82.57 138.55 73.69 147.65 C 72.26 149.07 71.15 150.76 70.23 152.54 C 75.48 153.13 80.77 152.73 86.04 152.84 C 103.66 152.74 121.29 153.03 138.90 152.69 C 141.72 145.01 145.01 137.50 147.76 129.81 C 148.45 128.44 146.40 128.38 145.66 127.92 C 143.58 131.58 141.19 135.29 137.61 137.65 C 134.78 139.56 131.21 139.55 127.94 139.64 C 114.89 139.64 101.85 139.62 88.80 139.63 C 94.79 132.39 101.52 125.78 107.91 118.89 C 117.66 108.25 128.51 98.13 134.84 84.92 C 139.79 74.57 141.35 61.69 135.71 51.29 C 130.89 41.80 120.42 36.18 110.01 35.63 C 101.44 35.15 92.23 36.88 85.51 42.52 Z" />
</g>
<g id="#fe802bff">
<path fill="#fe802b" opacity="1.00" d=" M 192.60 42.68 C 197.93 38.18 203.96 33.88 211.03 32.83 C 215.67 32.23 220.46 32.22 224.99 33.49 C 222.35 36.52 219.70 39.54 217.21 42.70 C 211.85 42.12 206.40 40.78 201.02 41.89 C 196.73 43.49 194.41 47.91 192.73 51.89 C 187.95 64.45 184.75 77.54 181.49 90.56 C 188.37 90.51 195.26 90.34 202.14 90.59 C 200.05 92.70 197.83 94.84 195.10 96.07 C 190.04 96.49 184.95 96.29 179.87 96.31 C 176.55 110.30 172.60 124.13 168.94 138.03 C 166.45 147.79 162.77 157.22 158.30 166.24 C 153.05 175.88 144.97 183.78 136.00 189.99 C 129.34 193.45 121.40 192.77 114.20 191.78 C 116.81 188.47 119.21 185.00 121.58 181.51 C 127.24 180.93 133.36 183.07 138.86 180.65 C 145.24 178.08 147.89 171.06 150.25 165.14 C 157.84 142.76 160.91 119.18 167.40 96.49 C 159.60 96.46 151.81 96.21 144.02 96.36 C 148.40 94.65 152.03 90.64 157.00 90.85 C 160.91 90.70 164.81 90.43 168.73 90.52 C 171.42 79.98 173.36 69.10 178.20 59.26 C 181.36 52.50 187.27 47.69 192.60 42.68 Z" />
</g>
<g id="#cdcdcdff">
<path fill="#cdcdcd" opacity="1.00" d=" M 85.51 42.52 C 92.23 36.88 101.44 35.15 110.01 35.63 C 120.42 36.18 130.89 41.80 135.71 51.29 C 141.35 61.69 139.79 74.57 134.84 84.92 C 128.51 98.13 117.66 108.25 107.91 118.89 C 101.52 125.78 94.79 132.39 88.80 139.63 C 101.85 139.62 114.89 139.64 127.94 139.64 C 131.21 139.55 134.78 139.56 137.61 137.65 C 141.19 135.29 143.58 131.58 145.66 127.92 C 146.40 128.38 148.45 128.44 147.76 129.81 C 145.01 137.50 141.72 145.01 138.90 152.69 C 121.29 153.03 103.66 152.74 86.04 152.84 C 80.77 152.73 75.48 153.13 70.23 152.54 C 71.15 150.76 72.26 149.07 73.69 147.65 C 82.57 138.55 91.05 129.08 99.91 119.95 C 110.19 109.09 120.55 97.01 123.51 81.90 C 124.94 73.17 124.93 63.11 118.97 55.96 C 111.77 47.88 99.04 46.51 89.41 50.60 C 81.51 54.62 78.14 63.39 74.61 70.97 C 73.43 70.69 72.25 70.41 71.07 70.14 C 72.77 59.77 77.07 49.19 85.51 42.52 Z" />
</g>
<g id="#4186d2ff">
<path fill="#4186d2" opacity="1.00" d=" M 24.25 84.30 C 36.16 81.06 49.80 82.96 59.42 91.03 C 59.83 89.17 60.25 87.32 60.66 85.46 C 62.26 85.46 63.86 85.46 65.46 85.46 C 66.64 92.71 66.91 100.33 65.43 107.55 C 63.83 107.57 62.23 107.58 60.64 107.60 C 59.84 103.30 58.69 98.67 55.06 95.85 C 47.54 89.01 36.51 88.32 26.96 90.08 C 18.16 91.75 11.16 98.83 8.23 107.10 C 5.94 113.63 5.84 120.86 7.69 127.51 C 10.62 137.38 19.89 144.75 30.02 146.06 C 38.98 147.15 48.28 145.30 56.20 140.97 C 59.57 139.15 62.33 136.46 65.34 134.15 C 66.66 132.92 69.49 133.46 69.69 135.43 C 70.38 137.96 68.20 140.05 66.49 141.57 C 57.48 149.06 45.67 153.05 33.96 152.65 C 25.61 152.61 17.06 149.84 10.95 144.01 C 4.25 138.17 0.43 129.44 0.00 120.62 L 0.00 113.23 C 1.76 100.01 11.34 88.05 24.25 84.30 Z" />
</g>
</svg>
