<?xml version="1.0" encoding="UTF-8" ?>
<!DOCTYPE svg PUBLIC "-//W3C//DTD SVG 1.1//EN" "http://www.w3.org/Graphics/SVG/1.1/DTD/svg11.dtd">
<svg width="28pt" height="28pt" viewBox="0 0 28 28" version="1.1" xmlns="http://www.w3.org/2000/svg">
<g id="#ffffffff">
<path fill="#ffffff" opacity="1.00" d=" M 0.00 0.00 L 28.00 0.00 L 28.00 28.00 L 0.00 28.00 L 0.00 0.00 M 7.31 19.64 C 10.58 20.67 13.41 18.20 14.26 15.18 C 11.77 14.12 10.83 16.62 9.00 17.58 C 4.21 17.80 4.18 8.76 8.93 8.98 C 10.71 9.85 12.22 11.41 14.41 11.02 C 13.25 8.53 11.04 6.03 7.97 6.76 C 1.58 7.44 1.14 18.26 7.31 19.64 M 16.49 7.00 C 16.43 11.38 16.53 15.76 16.50 20.15 C 17.27 19.94 18.81 19.53 19.58 19.32 C 24.88 22.45 27.46 13.18 23.31 10.69 C 21.93 9.64 20.33 10.68 18.95 11.12 C 18.99 9.75 19.01 8.38 19.02 7.00 C 18.39 7.00 17.12 7.00 16.49 7.00 Z" />
<path fill="#ffffff" opacity="1.00" d=" M 20.12 12.03 C 23.30 11.42 23.32 16.22 21.91 18.04 C 18.54 19.16 18.13 13.64 20.12 12.03 Z" />
</g>
<g id="#424242ff">
<path fill="#424242" opacity="1.00" d=" M 7.31 19.64 C 1.14 18.26 1.58 7.44 7.97 6.76 C 11.04 6.03 13.25 8.53 14.41 11.02 C 12.22 11.41 10.71 9.85 8.93 8.98 C 4.18 8.76 4.21 17.80 9.00 17.58 C 10.83 16.62 11.77 14.12 14.26 15.18 C 13.41 18.20 10.58 20.67 7.31 19.64 Z" />
<path fill="#424242" opacity="1.00" d=" M 16.49 7.00 C 17.12 7.00 18.39 7.00 19.02 7.00 C 19.01 8.38 18.99 9.75 18.95 11.12 C 20.33 10.68 21.93 9.64 23.31 10.69 C 27.46 13.18 24.88 22.45 19.58 19.32 C 18.81 19.53 17.27 19.94 16.50 20.15 C 16.53 15.76 16.43 11.38 16.49 7.00 M 20.12 12.03 C 18.13 13.64 18.54 19.16 21.91 18.04 C 23.32 16.22 23.30 11.42 20.12 12.03 Z" />
</g>
</svg>
