<?xml version="1.0" encoding="UTF-8" ?>
<!DOCTYPE svg PUBLIC "-//W3C//DTD SVG 1.1//EN" "http://www.w3.org/Graphics/SVG/1.1/DTD/svg11.dtd">
<svg width="32pt" height="32pt" viewBox="0 0 32 32" version="1.1" xmlns="http://www.w3.org/2000/svg">
<g id="#ffffffff">
<path fill="#ffffff" opacity="1.00" d=" M 1.68 30.27 C 1.40 20.76 1.31 11.21 1.72 1.72 C 11.13 1.86 20.54 1.60 29.94 1.85 C 30.03 11.29 30.04 20.73 29.94 30.16 C 20.52 30.38 11.10 30.17 1.68 30.27 M 10.06 6.99 C 8.03 12.96 5.93 18.91 3.96 24.90 C 4.69 24.92 6.13 24.95 6.85 24.96 C 9.00 19.00 10.93 12.97 13.06 7.00 C 12.31 7.00 10.81 7.00 10.06 6.99 M 16.93 11.18 C 15.84 15.68 21.42 14.89 23.99 16.63 C 21.63 17.32 19.30 18.09 16.97 18.88 C 17.00 19.52 17.05 20.80 17.08 21.45 C 20.39 21.16 23.75 18.88 27.10 17.83 C 27.10 17.17 27.09 15.85 27.09 15.20 C 23.70 13.86 20.36 12.41 16.93 11.18 Z" />
</g>
<g id="#474747ff">
<path fill="#474747" opacity="1.00" d=" M 10.06 6.99 C 10.81 7.00 12.31 7.00 13.06 7.00 C 10.93 12.97 9.00 19.00 6.85 24.96 C 6.13 24.95 4.69 24.92 3.96 24.90 C 5.93 18.91 8.03 12.96 10.06 6.99 Z" />
</g>
<g id="#3e3e3eff">
<path fill="#3e3e3e" opacity="1.00" d=" M 16.93 11.18 C 20.36 12.41 23.70 13.86 27.09 15.20 C 27.09 15.85 27.10 17.17 27.10 17.83 C 23.75 18.88 20.39 21.16 17.08 21.45 C 17.05 20.80 17.00 19.52 16.97 18.88 C 19.30 18.09 21.63 17.32 23.99 16.63 C 21.42 14.89 15.84 15.68 16.93 11.18 Z" />
</g>
</svg>
