<?xml version="1.0" encoding="UTF-8" ?>
<!DOCTYPE svg PUBLIC "-//W3C//DTD SVG 1.1//EN" "http://www.w3.org/Graphics/SVG/1.1/DTD/svg11.dtd">
<svg width="72pt" height="72pt" viewBox="0 0 72 72" version="1.1" xmlns="http://www.w3.org/2000/svg">
<g id="#c21e24ff">
<path fill="#c21e24" opacity="1.00" d=" M 50.39 13.49 C 52.63 10.80 55.53 7.48 59.43 8.16 C 61.84 8.23 62.72 10.96 63.30 12.88 C 64.45 18.68 60.86 24.04 56.85 27.86 C 51.17 33.62 43.39 36.26 36.75 40.61 C 36.37 42.23 35.91 43.83 35.42 45.42 C 34.57 45.19 32.88 44.71 32.04 44.48 C 31.20 47.27 29.72 51.52 25.89 50.11 L 24.77 48.19 C 23.01 51.09 23.06 55.14 19.83 57.02 C 15.42 60.33 9.76 58.14 5.10 56.62 C 9.00 56.44 13.31 57.26 16.81 55.06 C 19.48 53.56 21.17 50.92 22.35 48.17 L 23.24 48.97 C 24.24 46.42 24.58 43.52 26.83 41.67 C 26.29 39.71 25.78 37.75 25.41 35.75 C 25.93 35.69 26.97 35.58 27.49 35.52 C 30.25 36.37 33.16 36.72 36.05 36.75 C 38.47 36.89 39.04 34.02 40.40 32.60 C 43.75 28.81 46.96 24.87 49.35 20.39 C 49.43 18.10 48.68 15.37 50.39 13.49 Z" />
<path fill="#c21e24" opacity="1.00" d=" M 15.36 31.22 C 17.12 30.31 18.76 29.17 20.21 27.82 C 20.81 29.54 21.40 31.25 21.99 32.97 C 19.78 32.39 17.58 31.77 15.36 31.22 Z" />
<path fill="#c21e24" opacity="1.00" d=" M 40.42 47.43 C 43.73 43.79 49.70 43.46 53.57 46.38 C 56.59 48.35 58.76 52.86 56.04 55.96 C 54.44 58.18 51.78 57.03 49.68 56.38 C 51.99 62.88 46.90 68.57 41.93 72.00 L 21.04 72.00 C 22.16 69.95 23.32 67.93 24.53 65.93 C 25.51 66.86 26.49 67.79 27.47 68.72 C 27.88 68.78 28.69 68.88 29.10 68.94 C 29.77 65.94 30.48 62.95 31.17 59.96 C 32.57 62.00 33.94 64.08 35.26 66.18 C 35.45 59.72 35.47 52.28 40.42 47.43 Z" />
<path fill="#c21e24" opacity="1.00" d=" M 11.83 72.00 C 13.34 69.80 14.93 67.64 16.79 65.72 C 17.85 67.82 18.89 69.93 20.02 72.00 L 11.83 72.00 Z" />
</g>
<g id="#333333ff">
<path fill="#333333" opacity="1.00" d=" M 7.23 16.11 C 10.89 17.65 14.51 19.28 18.14 20.89 C 18.60 22.76 19.07 24.61 19.56 26.47 C 14.76 31.80 6.55 34.96 0.00 30.81 L 0.00 28.70 C 2.29 24.44 4.84 20.32 7.23 16.11 M 8.34 20.02 C 7.99 23.85 8.58 27.70 9.96 31.28 C 11.29 27.63 10.22 23.30 8.34 20.02 M 11.84 21.17 C 12.17 22.59 13.24 23.38 14.52 23.92 C 14.16 25.33 13.83 26.74 13.62 28.18 C 14.97 26.57 16.06 24.78 16.99 22.91 C 15.28 22.30 13.58 21.69 11.84 21.17 M 2.07 29.07 C 3.75 29.68 5.42 30.28 7.12 30.82 C 6.84 29.38 5.80 28.57 4.50 28.06 C 4.71 27.00 5.12 24.86 5.33 23.80 C 4.09 25.46 3.03 27.24 2.07 29.07 Z" />
<path fill="#333333" opacity="1.00" d=" M 24.67 25.97 C 25.83 25.06 26.98 24.14 28.11 23.19 C 30.09 23.66 32.09 24.30 33.50 25.86 C 31.84 26.19 30.19 26.49 28.53 26.80 C 28.41 28.85 28.39 30.91 28.38 32.96 C 25.57 32.55 23.45 30.72 21.58 28.72 C 22.25 28.63 23.59 28.43 24.26 28.34 C 24.36 27.75 24.56 26.56 24.67 25.97 Z" />
<path fill="#333333" opacity="1.00" d=" M 30.42 28.61 C 32.37 28.02 34.78 26.79 36.43 28.70 C 38.36 29.92 37.54 32.48 37.89 34.37 C 35.29 35.97 32.53 35.33 30.38 33.36 C 30.38 31.77 30.39 30.19 30.42 28.61 Z" />
<path fill="#333333" opacity="1.00" d=" M 16.78 32.59 C 18.35 33.60 20.02 34.49 21.41 35.73 C 21.62 36.94 21.63 38.18 21.69 39.40 C 16.10 39.40 9.82 38.45 5.00 41.97 C 2.07 43.89 0.60 47.25 0.00 50.59 L 0.00 39.24 C 4.31 35.67 10.14 34.90 15.47 36.22 C 15.91 35.01 16.35 33.80 16.78 32.59 Z" />
<path fill="#333333" opacity="1.00" d=" M 38.33 43.36 C 39.38 40.42 42.10 38.81 44.75 37.51 C 46.34 38.08 47.92 38.65 49.51 39.21 C 48.63 39.52 46.86 40.14 45.98 40.45 C 46.58 41.37 47.19 42.30 47.79 43.23 C 45.91 43.27 44.03 43.30 42.14 43.35 C 39.94 45.73 37.16 47.51 35.05 49.98 C 33.93 52.16 33.80 54.69 33.20 57.04 C 32.52 55.96 31.83 54.89 31.14 53.82 C 30.02 57.68 28.77 61.50 27.36 65.26 C 26.31 64.18 25.26 63.10 24.21 62.02 C 22.99 64.18 21.80 66.41 20.04 68.19 C 19.19 66.56 18.43 64.89 17.65 63.22 C 13.76 64.77 10.38 67.63 9.78 72.00 L 9.56 72.00 C 7.48 68.42 7.35 64.23 7.63 60.20 C 11.59 60.45 15.76 61.19 19.55 59.64 C 23.69 58.17 27.00 55.17 29.83 51.91 C 32.36 48.70 36.98 47.53 38.33 43.36 Z" />
<path fill="#333333" opacity="1.00" d=" M 11.15 42.03 C 14.69 40.37 20.25 42.54 19.89 46.96 C 20.40 53.23 10.96 56.84 7.07 51.94 C 4.60 48.31 7.13 43.21 11.15 42.03 Z" />
</g>
</svg>
