<?xml version="1.0" encoding="UTF-8" ?>
<!DOCTYPE svg PUBLIC "-//W3C//DTD SVG 1.1//EN" "http://www.w3.org/Graphics/SVG/1.1/DTD/svg11.dtd">
<svg width="64pt" height="64pt" viewBox="0 0 64 64" version="1.1" xmlns="http://www.w3.org/2000/svg">
<g id="#4a7ca1b9">
<path fill="#4a7ca1" opacity="0.73" d=" M 25.31 0.00 L 28.11 0.00 C 27.39 1.34 26.41 1.60 25.18 0.78 L 25.31 0.00 Z" />
</g>
<g id="#2185d0ff">
<path fill="#2185d0" opacity="1.00" d=" M 28.11 0.00 L 35.12 0.00 C 36.08 1.16 37.83 1.78 39.19 0.87 C 51.02 2.92 61.28 13.31 63.19 25.18 C 62.40 26.40 62.67 27.37 64.00 28.09 L 64.00 35.11 C 62.83 36.07 62.21 37.83 63.14 39.18 C 62.90 42.58 61.19 45.70 59.53 48.62 C 58.16 47.94 57.37 46.61 56.46 45.46 C 52.48 40.33 48.56 35.16 44.55 30.06 C 42.03 26.98 39.73 23.71 37.19 20.65 C 35.41 18.51 33.87 16.18 32.00 14.11 C 23.01 25.35 14.37 36.87 5.50 48.20 C 5.25 48.33 4.76 48.58 4.52 48.71 C 2.74 45.64 0.98 42.33 0.76 38.73 C 2.01 37.53 1.25 35.75 0.00 34.95 L 0.00 28.21 C 1.33 27.39 1.58 26.36 0.76 25.11 C 2.82 13.15 13.19 2.74 25.18 0.78 C 26.41 1.60 27.39 1.34 28.11 0.00 Z" />
</g>
<g id="#4981acc7">
<path fill="#4981ac" opacity="0.78" d=" M 35.12 0.00 L 39.06 0.00 L 39.19 0.87 C 37.83 1.78 36.08 1.16 35.12 0.00 Z" />
</g>
<g id="#fdfdfdfd">
<path fill="#fdfdfd" opacity="1.00" d=" M 5.50 48.20 C 14.37 36.87 23.01 25.35 32.00 14.11 C 33.87 16.18 35.41 18.51 37.19 20.65 C 33.37 24.72 36.73 30.41 37.62 35.02 C 40.20 43.74 42.00 52.68 44.76 61.35 C 40.98 62.95 36.91 63.83 32.81 64.00 L 31.23 64.00 C 20.40 63.85 10.37 57.64 4.52 48.71 C 4.76 48.58 5.25 48.33 5.50 48.20 Z" />
</g>
<g id="#d9e9f5fd">
<path fill="#d9e9f5" opacity="1.00" d=" M 37.19 20.65 C 39.73 23.71 42.03 26.98 44.55 30.06 C 42.84 32.46 40.05 33.54 37.62 35.02 C 36.73 30.41 33.37 24.72 37.19 20.65 Z" />
</g>
<g id="#4b7ca2b9">
<path fill="#4b7ca2" opacity="0.73" d=" M 0.00 25.47 L 0.76 25.11 C 1.58 26.36 1.33 27.39 0.00 28.21 L 0.00 25.47 Z" />
</g>
<g id="#4a7b9fb6">
<path fill="#4a7b9f" opacity="0.71" d=" M 63.19 25.18 L 64.00 25.30 L 64.00 28.09 C 62.67 27.37 62.40 26.40 63.19 25.18 Z" />
</g>
<g id="#bfdbf1fe">
<path fill="#bfdbf1" opacity="1.00" d=" M 44.55 30.06 C 48.56 35.16 52.48 40.33 56.46 45.46 C 57.37 46.61 58.16 47.94 59.53 48.62 C 55.88 54.08 50.92 58.84 44.76 61.35 C 42.00 52.68 40.20 43.74 37.62 35.02 C 40.05 33.54 42.84 32.46 44.55 30.06 Z" />
</g>
<g id="#4881adc8">
<path fill="#4881ad" opacity="0.78" d=" M 0.00 34.95 C 1.25 35.75 2.01 37.53 0.76 38.73 L 0.00 38.63 L 0.00 34.95 Z" />
</g>
<g id="#4881abc6">
<path fill="#4881ab" opacity="0.78" d=" M 63.14 39.18 C 62.21 37.83 62.83 36.07 64.00 35.11 L 64.00 39.04 L 63.14 39.18 Z" />
</g>
</svg>
