<?xml version="1.0" encoding="UTF-8" ?>
<!DOCTYPE svg PUBLIC "-//W3C//DTD SVG 1.1//EN" "http://www.w3.org/Graphics/SVG/1.1/DTD/svg11.dtd">
<svg width="32pt" height="32pt" viewBox="0 0 32 32" version="1.1" xmlns="http://www.w3.org/2000/svg">
<g id="#fbad19ff">
<path fill="#fbad19" opacity="1.00" d=" M 0.00 0.00 L 32.00 0.00 L 32.00 32.00 L 18.64 32.00 C 18.36 31.47 17.79 30.40 17.51 29.86 C 16.19 29.22 14.11 28.90 14.17 27.01 C 13.72 20.75 14.35 14.46 14.03 8.18 C 16.12 8.36 18.25 8.24 20.30 8.73 C 21.31 9.96 22.03 11.54 23.90 11.49 C 23.77 9.09 23.72 6.68 23.74 4.28 C 15.82 4.28 7.91 4.27 0.00 4.29 L 0.00 0.00 Z" />
<path fill="#fbad19" opacity="1.00" d=" M 0.00 12.30 C 1.35 11.06 2.29 9.26 4.04 8.50 C 5.81 8.30 7.60 8.39 9.37 8.40 C 9.12 14.93 9.68 21.49 9.13 28.00 C 7.72 29.19 5.99 30.05 4.94 31.64 C 3.29 31.64 1.65 31.64 0.00 31.63 L 0.00 12.30 Z" />
</g>
<g id="#fffefdff">
<path fill="#fffefd" opacity="1.00" d=" M 0.00 4.29 C 7.91 4.27 15.82 4.28 23.74 4.28 C 23.72 6.68 23.77 9.09 23.90 11.49 C 22.03 11.54 21.31 9.96 20.30 8.73 C 18.25 8.24 16.12 8.36 14.03 8.18 C 14.35 14.46 13.72 20.75 14.17 27.01 C 14.11 28.90 16.19 29.22 17.51 29.86 C 17.79 30.40 18.36 31.47 18.64 32.00 L 0.00 32.00 L 0.00 31.63 C 1.65 31.64 3.29 31.64 4.94 31.64 C 5.99 30.05 7.72 29.19 9.13 28.00 C 9.68 21.49 9.12 14.93 9.37 8.40 C 7.60 8.39 5.81 8.30 4.04 8.50 C 2.29 9.26 1.35 11.06 0.00 12.30 L 0.00 4.29 Z" />
</g>
</svg>
