<?xml version="1.0" encoding="UTF-8"?>
<svg width="640" height="480" xmlns="http://www.w3.org/2000/svg" xmlns:svg="http://www.w3.org/2000/svg" xmlns:xlink="http://www.w3.org/1999/xlink">
 <!-- Created with SVG-edit - http://svg-edit.googlecode.com/ -->
 <defs>
  <symbol id="svg_2" xmlns="http://www.w3.org/2000/svg" xmlns:xlink="http://www.w3.org/1999/xlink" viewBox="0 0 407.5 306.577">
   <g id="svg_1">
    <ellipse id="svg_5" fill="#353535" cx="159.785" cy="167.517" rx="3.656" ry="4.39"/>
    <ellipse id="svg_6" fill="#353535" cx="246.618" cy="167.517" rx="3.656" ry="4.39"/>
    <path id="svg_7" fill="#353535" d="m299.252014,139.319c-5.997009,0 -11.252991,3.802994 -14.19101,9.509003c-9.997009,-21.679001 -30.794998,-41.764 -56.498001,-50.035004c-13.868988,-5.533997 -23.607986,-16.154999 -24.811996,-28.568001c-1.203995,12.413002 -10.942993,23.034004 -24.811996,28.568001c-25.703003,8.271004 -46.501007,28.355003 -56.498001,50.035004c-2.937996,-5.706009 -8.194,-9.509003 -14.191002,-9.509003c-9.209999,0 -16.675995,8.964996 -16.675995,20.024994c0,11.059006 7.465996,20.025009 16.675995,20.025009c2.801003,0 5.439003,-0.833008 7.757004,-2.298996c0.792999,35.909988 39.752998,59.218994 87.745003,59.281998c47.991013,-0.062012 86.951996,-23.372009 87.744995,-59.281998c2.318024,1.465988 4.956024,2.298996 7.757019,2.298996c9.209991,0 16.675995,-8.964996 16.675995,-20.025009c-0.002014,-11.05899 -7.469025,-20.024994 -16.678009,-20.024994zm-183.422012,26.283005c-0.779999,2.882996 -4.252998,4.111008 -7.757004,2.743988c-3.503998,-1.366989 -5.711998,-4.811981 -4.931999,-7.694992c0.779999,-2.882996 4.252998,-4.111008 7.757004,-2.744003s5.711998,4.813004 4.931999,7.695007zm87.919998,60.753998c-38.492004,-0.059998 -69.664001,-18.201004 -69.664001,-44.169998c0,-0.544006 0.020004,-1.083008 0.046005,-1.621002c0.009003,-0.177002 0.01799,-0.354004 0.029999,-0.531006c0.024002,-0.366989 0.056992,-0.731995 0.093002,-1.097c0.048996,-0.488998 0.106995,-0.975998 0.177994,-1.459991c0.007004,-0.048004 0.013,-0.096008 0.020004,-0.144012c0.774994,-5.103989 2.759003,-12.89299 5.75499,-17.381989c7.198013,-10.412003 20.037003,-17.348007 34.684006,-17.348007c11.276001,0 21.473007,4.118011 28.858002,10.759003c7.384995,-6.640991 17.582001,-10.759003 28.858002,-10.759003c14.647003,0 27.485992,6.936996 34.68399,17.348007c2.996002,4.488998 4.980011,12.278 5.755005,17.381989c0.006989,0.048004 0.013,0.096008 0.019989,0.144012c0.071991,0.483994 0.128998,0.972 0.178009,1.459991c0.03598,0.365005 0.069,0.729004 0.092987,1.097c0.011993,0.177002 0.020996,0.354004 0.029999,0.531006c0.026001,0.537994 0.046021,1.076996 0.046021,1.621002c0,25.968994 -31.171997,44.108994 -69.664001,44.169998zm95.677002,-58.01001c-3.503998,1.367004 -6.97699,0.138992 -7.756989,-2.744003s1.427979,-6.328003 4.931976,-7.695007c3.503998,-1.366989 6.97702,-0.138992 7.757019,2.744003c0.779999,2.883011 -1.428009,6.328018 -4.932007,7.695007z"/>
   </g>
  </symbol>
 </defs>
 <g>
  <title>Layer 1</title>
  <use id="svg_3" xlink:href="#svg_2" transform="matrix(1.82769, 0, 0, 1.87198, 125.067, 80.4137)" y="-155.334494" x="-212.484499"/>
  <g id="svg_4"/>
 </g>
</svg>