<?xml version="1.0" encoding="UTF-8" ?>
<!DOCTYPE svg PUBLIC "-//W3C//DTD SVG 1.1//EN" "http://www.w3.org/Graphics/SVG/1.1/DTD/svg11.dtd">
<svg width="256pt" height="256pt" viewBox="0 0 256 256" version="1.1" xmlns="http://www.w3.org/2000/svg">
<g id="#ffc107ff">
<path fill="#ffc107" opacity="1.00" d=" M 73.13 74.53 C 89.98 69.80 108.80 74.77 122.07 85.93 C 118.30 92.44 114.30 98.85 110.11 105.10 C 112.77 98.23 117.79 92.68 121.05 86.12 C 109.11 75.98 92.58 71.57 77.17 74.31 C 68.43 76.13 59.67 79.47 52.99 85.58 C 58.60 91.71 64.53 97.56 70.57 103.26 L 71.18 103.79 C 59.38 110.28 54.49 126.18 59.54 138.49 C 61.79 144.15 65.82 149.27 71.14 152.30 C 64.61 158.37 58.31 164.71 52.26 171.27 C 42.14 162.39 34.33 150.46 32.38 136.95 C 27.28 109.85 46.29 80.78 73.13 74.53 Z" />
<path fill="#ffc107" opacity="1.00" d=" M 205.16 85.83 C 212.86 92.76 218.96 101.71 221.98 111.69 C 226.84 126.93 224.41 144.20 215.70 157.61 C 208.68 168.67 197.54 177.00 184.99 180.70 C 167.19 186.18 146.66 181.68 132.92 169.04 C 131.93 168.05 130.76 167.28 129.47 166.75 L 129.85 166.44 C 132.79 164.22 135.45 161.67 137.98 159.00 C 141.32 155.46 145.13 152.36 148.04 148.44 C 145.80 145.41 143.57 142.27 142.83 138.49 C 145.75 144.60 149.89 150.67 156.14 153.72 C 166.63 159.21 180.63 157.54 189.15 149.16 C 198.43 140.92 201.10 126.44 195.53 115.38 C 193.62 110.91 189.93 107.63 186.11 104.80 C 187.93 105.29 190.38 106.90 191.91 105.01 C 196.85 100.22 201.71 95.31 206.54 90.40 C 208.08 88.93 205.77 87.20 205.16 85.83 Z" />
</g>
<g id="#ffd836ff">
<path fill="#ffd836" opacity="1.00" d=" M 124.90 95.26 C 133.81 82.99 148.02 74.72 163.09 73.06 C 178.07 71.16 193.72 76.00 205.16 85.83 C 205.77 87.20 208.08 88.93 206.54 90.40 C 201.71 95.31 196.85 100.22 191.91 105.01 C 190.38 106.90 187.93 105.29 186.11 104.80 C 179.55 100.08 170.99 98.28 163.11 100.14 C 155.49 101.87 148.64 106.81 144.76 113.61 C 140.27 121.02 140.26 130.42 142.83 138.49 C 143.57 142.27 145.80 145.41 148.04 148.44 C 145.13 152.36 141.32 155.46 137.98 159.00 C 135.45 161.67 132.79 164.22 129.85 166.44 C 119.80 156.41 113.95 142.18 114.25 127.96 C 113.97 116.26 118.00 104.64 124.90 95.26 Z" />
<path fill="#ffd836" opacity="1.00" d=" M 52.99 85.58 C 59.67 79.47 68.43 76.13 77.17 74.31 C 92.58 71.57 109.11 75.98 121.05 86.12 C 117.79 92.68 112.77 98.23 110.11 105.10 C 109.46 106.42 108.70 107.69 107.98 108.98 C 99.07 99.12 82.96 96.10 71.77 103.73 L 70.57 103.26 C 64.53 97.56 58.60 91.71 52.99 85.58 Z" />
<path fill="#ffd836" opacity="1.00" d=" M 98.66 153.73 C 101.81 152.46 104.06 149.83 106.97 148.16 C 111.73 155.60 117.02 162.68 121.88 170.05 C 110.95 179.20 96.45 184.12 82.22 182.93 C 71.34 182.20 60.82 177.99 52.26 171.27 C 58.31 164.71 64.61 158.37 71.14 152.30 C 79.41 157.07 90.02 158.23 98.66 153.73 Z" />
</g>
</svg>
