<?xml version="1.0" encoding="UTF-8" ?>
<!DOCTYPE svg PUBLIC "-//W3C//DTD SVG 1.1//EN" "http://www.w3.org/Graphics/SVG/1.1/DTD/svg11.dtd">
<svg width="192pt" height="192pt" viewBox="0 0 192 192" version="1.1" xmlns="http://www.w3.org/2000/svg">
<g id="#ffffffff">
<path fill="#ffffff" opacity="1.00" d=" M 0.00 0.00 L 192.00 0.00 L 192.00 192.00 L 0.00 192.00 L 0.00 0.00 M 43.09 35.75 C 39.54 55.52 36.09 75.31 32.57 95.08 C 32.49 96.15 31.91 97.28 32.28 98.35 C 33.43 98.56 34.58 98.73 35.74 98.86 C 37.91 86.88 43.75 75.60 52.38 67.01 C 57.54 62.07 63.45 57.96 69.91 54.90 C 75.35 52.72 80.97 50.73 86.86 50.26 C 92.88 49.29 98.99 49.60 105.02 50.35 C 108.66 50.75 112.17 51.83 115.68 52.86 C 119.48 54.26 123.14 56.01 126.69 57.96 C 131.85 61.07 136.45 64.99 140.62 69.32 C 148.07 77.61 153.03 87.97 155.09 98.90 C 156.30 98.73 157.50 98.52 158.70 98.27 C 155.18 77.45 151.40 56.67 147.72 35.87 C 145.90 35.99 144.11 36.36 142.33 36.70 C 137.88 37.36 133.47 38.26 129.04 39.03 C 124.56 39.99 119.45 40.25 115.41 41.81 L 115.08 41.47 C 111.43 42.13 107.76 42.71 104.13 43.44 C 101.06 43.76 98.08 44.68 95.00 44.85 C 92.42 44.49 89.88 43.87 87.29 43.56 C 83.19 42.73 79.06 42.06 74.94 41.35 L 74.53 41.94 L 74.65 41.18 C 70.70 40.88 66.82 39.49 62.91 39.46 L 63.04 39.25 C 58.27 38.43 53.52 37.48 48.74 36.75 C 46.86 36.39 44.98 36.05 43.09 35.75 M 73.18 78.19 C 68.97 81.63 68.96 88.34 71.05 92.98 C 71.83 95.31 75.00 97.10 77.02 95.07 C 80.45 91.46 80.60 85.59 78.78 81.15 C 78.08 78.96 75.50 76.69 73.18 78.19 M 116.20 78.14 C 113.36 80.02 112.78 83.83 112.64 86.98 C 112.82 90.07 113.44 93.81 116.30 95.61 C 118.26 96.71 120.45 95.17 121.33 93.40 C 123.43 89.25 123.41 84.03 121.14 79.95 C 120.20 78.31 118.01 76.97 116.20 78.14 M 31.80 106.45 C 31.49 123.75 39.53 140.76 52.51 152.08 C 57.65 156.89 63.81 160.70 70.36 163.27 L 70.33 163.48 C 74.95 165.14 79.63 166.74 84.51 167.44 C 91.81 168.63 99.38 168.67 106.67 167.47 C 112.15 166.55 117.55 165.00 122.57 162.63 C 128.89 159.83 134.74 155.98 139.78 151.25 C 152.13 139.86 159.71 123.36 159.55 106.49 C 153.60 106.37 147.64 106.49 141.68 106.51 C 136.93 106.32 132.17 106.48 127.41 106.50 C 123.36 106.32 119.29 106.45 115.23 106.47 C 114.40 106.49 112.74 106.53 111.91 106.55 C 111.58 111.97 108.74 116.97 104.17 119.93 C 99.41 122.51 93.77 122.67 88.78 120.66 L 88.95 120.45 C 83.55 117.99 80.17 112.32 79.87 106.48 C 78.09 106.36 76.31 106.41 74.53 106.47 C 68.31 106.43 62.08 106.35 55.87 106.48 C 47.84 106.51 39.82 106.36 31.80 106.45 Z" />
</g>
<g id="#f9a768ff">
<path fill="#f9a768" opacity="1.00" d=" M 43.09 35.75 C 44.98 36.05 46.86 36.39 48.74 36.75 C 48.72 37.68 48.70 39.55 48.68 40.48 C 48.04 40.39 46.75 40.20 46.11 40.10 C 43.91 52.44 41.64 64.78 39.66 77.15 C 43.25 71.82 47.15 66.65 51.98 62.37 C 52.17 63.91 52.32 65.46 52.38 67.01 C 43.75 75.60 37.91 86.88 35.74 98.86 C 34.58 98.73 33.43 98.56 32.28 98.35 C 31.91 97.28 32.49 96.15 32.57 95.08 C 36.09 75.31 39.54 55.52 43.09 35.75 Z" />
</g>
<g id="#57bac9ff">
<path fill="#57bac9" opacity="1.00" d=" M 142.33 36.70 C 144.11 36.36 145.90 35.99 147.72 35.87 C 151.40 56.67 155.18 77.45 158.70 98.27 C 157.50 98.52 156.30 98.73 155.09 98.90 C 153.03 87.97 148.07 77.61 140.62 69.32 C 140.67 67.65 140.77 65.98 140.88 64.32 C 144.86 68.24 148.21 72.74 151.22 77.44 C 149.15 64.99 146.88 52.56 144.71 40.12 C 144.12 40.20 142.94 40.36 142.35 40.44 C 142.35 39.50 142.34 37.63 142.33 36.70 Z" />
</g>
<g id="#eb9b84ff">
<path fill="#eb9b84" opacity="1.00" d=" M 48.74 36.75 C 53.52 37.48 58.27 38.43 63.04 39.25 L 62.91 39.46 C 62.19 40.52 61.47 41.57 60.76 42.63 C 56.73 41.90 52.69 41.27 48.68 40.48 C 48.70 39.55 48.72 37.68 48.74 36.75 Z" />
</g>
<g id="#78a6cbff">
<path fill="#78a6cb" opacity="1.00" d=" M 129.04 39.03 C 133.47 38.26 137.88 37.36 142.33 36.70 C 142.34 37.63 142.35 39.50 142.35 40.44 C 138.09 41.29 133.79 41.93 129.52 42.72 C 129.40 41.79 129.16 39.95 129.04 39.03 Z" />
</g>
<g id="#9198ccff">
<path fill="#9198cc" opacity="1.00" d=" M 115.41 41.81 C 119.45 40.25 124.56 39.99 129.04 39.03 C 129.16 39.95 129.40 41.79 129.52 42.72 C 125.70 43.43 121.88 44.06 118.05 44.73 C 117.16 43.77 116.28 42.79 115.41 41.81 Z" />
</g>
<g id="#fdf1f1ff">
<path fill="#fdf1f1" opacity="1.00" d=" M 46.11 40.10 C 46.75 40.20 48.04 40.39 48.68 40.48 C 52.69 41.27 56.73 41.90 60.76 42.63 C 64.73 43.35 68.72 44.05 72.70 44.73 C 76.29 45.40 79.90 45.96 83.49 46.65 C 79.21 47.91 74.80 48.77 70.70 50.60 C 63.86 53.42 57.40 57.31 51.98 62.37 C 47.15 66.65 43.25 71.82 39.66 77.15 C 41.64 64.78 43.91 52.44 46.11 40.10 Z" />
<path fill="#fdf1f1" opacity="1.00" d=" M 129.52 42.72 C 133.79 41.93 138.09 41.29 142.35 40.44 C 142.94 40.36 144.12 40.20 144.71 40.12 C 146.88 52.56 149.15 64.99 151.22 77.44 C 148.21 72.74 144.86 68.24 140.88 64.32 C 137.10 60.41 132.65 57.21 127.98 54.45 C 124.52 52.38 120.81 50.77 117.02 49.42 C 113.86 48.25 110.54 47.63 107.31 46.73 C 110.86 45.90 114.48 45.43 118.05 44.73 C 121.88 44.06 125.70 43.43 129.52 42.72 Z" />
<path fill="#fdf1f1" opacity="1.00" d=" M 34.96 109.82 C 41.64 109.69 48.33 109.67 55.02 109.71 C 62.24 109.86 69.46 109.65 76.68 109.76 C 78.53 115.11 81.45 120.51 86.82 123.04 C 92.17 125.86 98.96 126.02 104.39 123.34 C 109.83 120.77 113.51 115.49 114.86 109.72 C 121.31 109.72 127.76 109.80 134.20 109.73 C 141.50 109.74 148.80 109.85 156.10 109.76 C 155.64 123.92 149.07 137.60 139.11 147.57 C 133.78 152.48 127.85 156.83 121.17 159.75 C 116.66 161.70 111.95 163.27 107.10 164.11 C 100.48 165.36 93.61 165.44 86.95 164.57 C 81.44 163.77 76.05 162.28 70.92 160.12 C 64.47 157.31 58.63 153.30 53.36 148.67 C 42.60 138.62 36.03 124.46 34.96 109.82 Z" />
</g>
<g id="#e1919cff">
<path fill="#e1919c" opacity="1.00" d=" M 60.76 42.63 C 61.47 41.57 62.19 40.52 62.91 39.46 C 66.82 39.49 70.70 40.88 74.65 41.18 L 74.53 41.94 C 74.07 42.64 73.16 44.03 72.70 44.73 C 68.72 44.05 64.73 43.35 60.76 42.63 Z" />
</g>
<g id="#d687b1ff">
<path fill="#d687b1" opacity="1.00" d=" M 74.53 41.94 L 74.94 41.35 C 79.06 42.06 83.19 42.73 87.29 43.56 C 87.21 45.80 87.06 48.03 86.86 50.26 C 80.97 50.73 75.35 52.72 69.91 54.90 C 70.20 53.47 70.44 52.03 70.70 50.60 C 74.80 48.77 79.21 47.91 83.49 46.65 C 79.90 45.96 76.29 45.40 72.70 44.73 C 73.16 44.03 74.07 42.64 74.53 41.94 Z" />
</g>
<g id="#ad88ceff">
<path fill="#ad88ce" opacity="1.00" d=" M 104.13 43.44 C 107.76 42.71 111.43 42.13 115.08 41.47 L 115.41 41.81 C 116.28 42.79 117.16 43.77 118.05 44.73 C 114.48 45.43 110.86 45.90 107.31 46.73 C 110.54 47.63 113.86 48.25 117.02 49.42 C 116.57 50.57 116.12 51.71 115.68 52.86 C 112.17 51.83 108.66 50.75 105.02 50.35 C 104.69 48.05 104.43 45.74 104.13 43.44 Z" />
</g>
<g id="#c97dccff">
<path fill="#c97dcc" opacity="1.00" d=" M 87.29 43.56 C 89.88 43.87 92.42 44.49 95.00 44.85 C 98.08 44.68 101.06 43.76 104.13 43.44 C 104.43 45.74 104.69 48.05 105.02 50.35 C 98.99 49.60 92.88 49.29 86.86 50.26 C 87.06 48.03 87.21 45.80 87.29 43.56 Z" />
</g>
<g id="#9795cdff">
<path fill="#9795cd" opacity="1.00" d=" M 115.68 52.86 C 116.12 51.71 116.57 50.57 117.02 49.42 C 120.81 50.77 124.52 52.38 127.98 54.45 C 127.55 55.62 127.12 56.79 126.69 57.96 C 123.14 56.01 119.48 54.26 115.68 52.86 Z" />
</g>
<g id="#e6968fff">
<path fill="#e6968f" opacity="1.00" d=" M 51.98 62.37 C 57.40 57.31 63.86 53.42 70.70 50.60 C 70.44 52.03 70.20 53.47 69.91 54.90 C 63.45 57.96 57.54 62.07 52.38 67.01 C 52.32 65.46 52.17 63.91 51.98 62.37 Z" />
</g>
<g id="#7ca4cbff">
<path fill="#7ca4cb" opacity="1.00" d=" M 126.69 57.96 C 127.12 56.79 127.55 55.62 127.98 54.45 C 132.65 57.21 137.10 60.41 140.88 64.32 C 140.77 65.98 140.67 67.65 140.62 69.32 C 136.45 64.99 131.85 61.07 126.69 57.96 Z" />
</g>
<g id="#db7070ff">
<path fill="#db7070" opacity="1.00" d=" M 73.18 78.19 C 75.50 76.69 78.08 78.96 78.78 81.15 C 80.60 85.59 80.45 91.46 77.02 95.07 C 75.00 97.10 71.83 95.31 71.05 92.98 C 68.96 88.34 68.97 81.63 73.18 78.19 Z" />
<path fill="#db7070" opacity="1.00" d=" M 116.20 78.14 C 118.01 76.97 120.20 78.31 121.14 79.95 C 123.41 84.03 123.43 89.25 121.33 93.40 C 120.45 95.17 118.26 96.71 116.30 95.61 C 113.44 93.81 112.82 90.07 112.64 86.98 C 112.78 83.83 113.36 80.02 116.20 78.14 Z" />
</g>
<g id="#f9a76aff">
<path fill="#f9a76a" opacity="1.00" d=" M 31.80 106.45 C 39.82 106.36 47.84 106.51 55.87 106.48 C 55.58 107.55 55.30 108.63 55.02 109.71 C 48.33 109.67 41.64 109.69 34.96 109.82 C 36.03 124.46 42.60 138.62 53.36 148.67 C 53.14 149.52 52.72 151.23 52.51 152.08 C 39.53 140.76 31.49 123.75 31.80 106.45 Z" />
</g>
<g id="#e29298ff">
<path fill="#e29298" opacity="1.00" d=" M 55.87 106.48 C 62.08 106.35 68.31 106.43 74.53 106.47 C 75.25 107.56 76.01 108.63 76.68 109.76 C 69.46 109.65 62.24 109.86 55.02 109.71 C 55.30 108.63 55.58 107.55 55.87 106.48 Z" />
</g>
<g id="#d687b2ff">
<path fill="#d687b2" opacity="1.00" d=" M 74.53 106.47 C 76.31 106.41 78.09 106.36 79.87 106.48 C 80.17 112.32 83.55 117.99 88.95 120.45 L 88.78 120.66 C 88.12 121.45 87.47 122.25 86.82 123.04 C 81.45 120.51 78.53 115.11 76.68 109.76 C 76.01 108.63 75.25 107.56 74.53 106.47 Z" />
</g>
<g id="#ac88ceff">
<path fill="#ac88ce" opacity="1.00" d=" M 111.91 106.55 C 112.74 106.53 114.40 106.49 115.23 106.47 C 115.14 107.28 114.96 108.91 114.86 109.72 C 113.51 115.49 109.83 120.77 104.39 123.34 C 104.34 122.48 104.22 120.78 104.17 119.93 C 108.74 116.97 111.58 111.97 111.91 106.55 Z" />
</g>
<g id="#9894cdff">
<path fill="#9894cd" opacity="1.00" d=" M 115.23 106.47 C 119.29 106.45 123.36 106.32 127.41 106.50 C 128.71 109.07 131.72 109.25 134.20 109.73 C 127.76 109.80 121.31 109.72 114.86 109.72 C 114.96 108.91 115.14 107.28 115.23 106.47 Z" />
</g>
<g id="#77a8cbff">
<path fill="#77a8cb" opacity="1.00" d=" M 127.41 106.50 C 132.17 106.48 136.93 106.32 141.68 106.51 C 142.00 106.94 142.63 107.79 142.94 108.22 C 147.30 108.87 151.75 108.93 156.10 109.76 C 148.80 109.85 141.50 109.74 134.20 109.73 C 131.72 109.25 128.71 109.07 127.41 106.50 Z" />
</g>
<g id="#53bbc9ff">
<path fill="#53bbc9" opacity="1.00" d=" M 141.68 106.51 C 147.64 106.49 153.60 106.37 159.55 106.49 C 159.71 123.36 152.13 139.86 139.78 151.25 C 139.57 150.02 139.35 148.79 139.11 147.57 C 149.07 137.60 155.64 123.92 156.10 109.76 C 151.75 108.93 147.30 108.87 142.94 108.22 C 142.63 107.79 142.00 106.94 141.68 106.51 Z" />
</g>
<g id="#ca7cccff">
<path fill="#ca7ccc" opacity="1.00" d=" M 88.78 120.66 C 93.77 122.67 99.41 122.51 104.17 119.93 C 104.22 120.78 104.34 122.48 104.39 123.34 C 98.96 126.02 92.17 125.86 86.82 123.04 C 87.47 122.25 88.12 121.45 88.78 120.66 Z" />
</g>
<g id="#8a9cccff">
<path fill="#8a9ccc" opacity="1.00" d=" M 121.17 159.75 C 127.85 156.83 133.78 152.48 139.11 147.57 C 139.35 148.79 139.57 150.02 139.78 151.25 C 134.74 155.98 128.89 159.83 122.57 162.63 C 122.08 161.68 121.61 160.72 121.17 159.75 Z" />
</g>
<g id="#e59596ff">
<path fill="#e59596" opacity="1.00" d=" M 53.36 148.67 C 58.63 153.30 64.47 157.31 70.92 160.12 C 70.74 161.17 70.55 162.22 70.36 163.27 C 63.81 160.70 57.65 156.89 52.51 152.08 C 52.72 151.23 53.14 149.52 53.36 148.67 Z" />
</g>
<g id="#d889aeff">
<path fill="#d889ae" opacity="1.00" d=" M 70.92 160.12 C 76.05 162.28 81.44 163.77 86.95 164.57 C 86.14 165.52 85.32 166.48 84.51 167.44 C 79.63 166.74 74.95 165.14 70.33 163.48 L 70.36 163.27 C 70.55 162.22 70.74 161.17 70.92 160.12 Z" />
</g>
<g id="#a88bceff">
<path fill="#a88bce" opacity="1.00" d=" M 107.10 164.11 C 111.95 163.27 116.66 161.70 121.17 159.75 C 121.61 160.72 122.08 161.68 122.57 162.63 C 117.55 165.00 112.15 166.55 106.67 167.47 C 106.78 166.63 106.99 164.95 107.10 164.11 Z" />
</g>
<g id="#c87dcdff">
<path fill="#c87dcd" opacity="1.00" d=" M 86.95 164.57 C 93.61 165.44 100.48 165.36 107.10 164.11 C 106.99 164.95 106.78 166.63 106.67 167.47 C 99.38 168.67 91.81 168.63 84.51 167.44 C 85.32 166.48 86.14 165.52 86.95 164.57 Z" />
</g>
</svg>
