<?xml version="1.0" encoding="UTF-8" ?>
<!DOCTYPE svg PUBLIC "-//W3C//DTD SVG 1.1//EN" "http://www.w3.org/Graphics/SVG/1.1/DTD/svg11.dtd">
<svg width="128pt" height="128pt" viewBox="0 0 128 128" version="1.1" xmlns="http://www.w3.org/2000/svg">
<g id="#4d64657d">
<path fill="#4d6465" opacity="0.49" d=" M 74.97 7.00 C 75.90 4.78 80.56 6.46 82.96 6.04 L 83.03 6.98 C 80.34 6.99 77.66 6.99 74.97 7.00 Z" />
</g>
<g id="#71b2b3f8">
<path fill="#71b2b3" opacity="0.97" d=" M 68.90 39.29 C 55.93 32.10 59.62 8.70 74.97 7.00 C 77.66 6.99 80.34 6.99 83.03 6.98 C 96.11 8.08 102.09 27.77 92.27 36.27 C 90.40 38.13 88.64 40.25 86.17 41.35 C 88.57 47.67 90.47 54.18 92.99 60.46 C 91.67 60.93 90.35 61.36 89.02 61.77 C 87.25 55.12 85.24 48.52 82.80 42.07 C 79.17 43.14 75.66 42.49 72.13 41.24 C 67.29 48.55 63.39 56.40 58.90 63.93 C 57.60 63.97 56.30 64.00 55.00 64.03 C 59.33 55.67 64.04 47.40 68.90 39.29 Z" />
</g>
<g id="#5aa8a9f9">
<path fill="#5aa8a9" opacity="0.98" d=" M 92.99 60.46 C 98.61 59.07 105.07 63.46 106.05 69.14 C 106.05 70.82 106.05 74.18 106.05 75.86 C 105.00 80.78 99.80 84.27 94.93 84.81 C 89.87 84.73 85.43 81.19 83.06 76.94 C 81.01 71.61 83.04 63.54 89.02 61.77 C 90.35 61.36 91.67 60.93 92.99 60.46 Z" />
</g>
<g id="#459e9ff9">
<path fill="#459e9f" opacity="0.98" d=" M 49.72 72.79 C 51.79 70.16 52.37 65.67 55.00 64.03 C 56.30 64.00 57.60 63.97 58.90 63.93 C 56.97 67.55 54.76 71.04 53.16 74.82 C 59.12 79.17 64.44 85.51 65.06 93.15 C 65.05 94.82 65.04 98.18 65.04 99.85 C 64.27 103.02 63.37 106.92 60.91 109.06 C 61.12 106.31 63.00 103.96 62.94 101.19 C 56.84 96.53 49.46 94.04 42.96 90.03 C 38.03 86.63 31.93 85.62 27.24 81.76 C 24.89 79.66 22.85 82.86 20.91 83.95 C 23.87 78.04 29.94 72.66 36.99 72.98 C 39.66 73.03 42.33 73.04 45.01 73.03 C 46.58 72.99 48.16 73.06 49.72 72.79 Z" />
</g>
<g id="#2a3c3c4d">
<path fill="#2a3c3c" opacity="0.30" d=" M 106.05 69.14 C 107.85 69.96 107.85 75.03 106.05 75.86 C 106.05 74.18 106.05 70.82 106.05 69.14 Z" />
</g>
<g id="#70a5a5dc">
<path fill="#70a5a5" opacity="0.86" d=" M 36.99 72.98 C 37.90 70.78 42.58 72.46 44.98 72.06 L 45.01 73.03 C 42.33 73.04 39.66 73.03 36.99 72.98 Z" />
</g>
<g id="#349799fd">
<path fill="#349799" opacity="1.00" d=" M 20.91 83.95 C 22.85 82.86 24.89 79.66 27.24 81.76 C 31.93 85.62 38.03 86.63 42.96 90.03 C 49.46 94.04 56.84 96.53 62.94 101.19 C 63.00 103.96 61.12 106.31 60.91 109.06 C 58.46 115.29 51.53 119.12 45.02 119.97 C 42.34 119.99 39.66 120.01 36.98 120.02 C 27.92 118.75 19.18 111.27 17.97 102.02 C 17.99 98.33 18.01 94.66 17.98 90.98 C 17.86 88.39 19.24 85.80 20.91 83.95 Z" />
</g>
<g id="#406d6e9b">
<path fill="#406d6e" opacity="0.61" d=" M 17.01 91.02 L 17.98 90.98 C 18.01 94.66 17.99 98.33 17.97 102.02 L 17.00 101.99 C 17.00 99.25 17.01 93.76 17.01 91.02 Z" />
</g>
<g id="#0f121215">
<path fill="#0f1212" opacity="0.08" d=" M 65.06 93.15 C 66.85 93.97 66.86 99.05 65.04 99.85 C 65.04 98.18 65.05 94.82 65.06 93.15 Z" />
</g>
<g id="#3e4d4d5c">
<path fill="#3e4d4d" opacity="0.36" d=" M 36.98 120.02 C 39.66 120.01 42.34 119.99 45.02 119.97 C 44.16 122.24 39.43 120.53 37.03 120.96 L 36.98 120.02 Z" />
</g>
</svg>
