<?xml version="1.0" encoding="UTF-8" ?>
<!DOCTYPE svg PUBLIC "-//W3C//DTD SVG 1.1//EN" "http://www.w3.org/Graphics/SVG/1.1/DTD/svg11.dtd">
<svg width="281pt" height="281pt" viewBox="0 0 281 281" version="1.1" xmlns="http://www.w3.org/2000/svg">
<g id="#040305ff">
<path fill="#040305" opacity="1.00" d=" M 124.27 0.00 L 156.98 0.00 C 161.06 1.02 165.23 1.63 169.39 2.25 C 171.12 2.74 172.86 3.19 174.59 3.68 C 175.94 4.02 177.29 4.35 178.63 4.72 C 179.54 4.90 180.46 5.07 181.38 5.25 C 183.41 5.95 185.44 6.62 187.49 7.27 C 188.50 7.77 189.50 8.27 190.51 8.78 C 192.17 9.25 193.83 9.75 195.49 10.22 C 202.32 13.81 209.49 16.78 215.88 21.15 C 222.81 25.33 228.92 30.66 235.33 35.56 C 228.91 43.65 221.19 50.53 214.21 58.09 C 211.95 60.49 209.59 62.78 207.16 65.01 C 190.01 50.16 167.88 41.32 145.22 40.22 C 122.66 39.34 99.86 46.32 81.64 59.66 C 60.47 75.08 45.69 98.96 41.54 124.85 C 36.16 155.77 46.85 188.87 68.85 211.18 C 84.44 227.38 105.68 238.01 127.97 240.90 C 146.48 243.61 165.67 240.35 182.66 232.68 C 197.13 226.27 209.57 216.01 219.75 203.99 C 230.63 211.49 241.60 218.86 252.85 225.79 C 241.74 240.95 227.10 253.34 210.98 262.90 C 205.92 265.73 200.61 268.09 195.48 270.79 C 193.81 271.25 192.16 271.74 190.50 272.21 C 189.50 272.73 188.50 273.26 187.50 273.79 C 184.16 274.80 180.81 275.79 177.43 276.69 C 176.07 277.01 174.72 277.34 173.37 277.70 C 172.47 277.90 171.56 278.11 170.66 278.33 C 168.98 278.71 167.29 279.03 165.61 279.37 C 162.66 279.92 159.67 280.29 156.75 281.00 L 124.02 281.00 C 121.20 280.19 118.28 279.86 115.40 279.38 C 113.70 279.04 112.00 278.71 110.32 278.30 C 109.41 278.11 108.50 277.93 107.60 277.75 C 105.86 277.23 104.11 276.76 102.38 276.23 C 101.46 276.07 100.55 275.92 99.63 275.77 C 97.60 275.06 95.55 274.38 93.50 273.73 C 92.49 273.22 91.48 272.72 90.48 272.21 C 88.82 271.74 87.17 271.25 85.52 270.78 C 78.94 267.30 72.00 264.46 65.80 260.28 C 45.53 247.69 28.65 229.81 17.00 208.99 C 14.67 204.52 12.54 199.95 10.22 195.48 C 9.75 193.82 9.26 192.17 8.79 190.52 C 8.28 189.51 7.76 188.51 7.25 187.51 C 6.64 185.47 5.99 183.45 5.33 181.43 C 5.00 180.07 4.66 178.71 4.29 177.37 C 4.09 176.45 3.89 175.54 3.69 174.62 C 1.96 168.79 1.28 162.72 0.00 156.78 L 0.00 124.03 C 0.80 121.20 1.16 118.28 1.64 115.39 C 1.94 113.71 2.24 112.03 2.61 110.37 C 2.98 109.03 3.35 107.69 3.75 106.36 C 3.91 105.45 4.07 104.54 4.23 103.62 C 5.20 100.24 6.20 96.86 7.22 93.48 C 7.75 92.49 8.27 91.49 8.79 90.49 C 9.26 88.83 9.75 87.17 10.22 85.51 C 13.70 78.93 16.55 71.99 20.72 65.79 C 33.32 45.52 51.19 28.65 72.01 17.01 C 76.48 14.67 81.05 12.54 85.52 10.22 C 87.17 9.75 88.82 9.26 90.48 8.79 C 91.48 8.28 92.49 7.77 93.50 7.27 C 95.55 6.62 97.58 5.95 99.61 5.24 C 100.54 5.08 101.48 4.92 102.41 4.76 C 104.13 4.24 105.87 3.76 107.60 3.25 C 108.52 3.06 109.43 2.87 110.35 2.68 C 112.02 2.29 113.70 1.97 115.37 1.63 C 118.34 1.08 121.33 0.70 124.27 0.00 Z" />
<path fill="#040305" opacity="1.00" d=" M 240.39 40.93 C 248.32 48.38 254.83 57.24 260.66 66.39 C 264.65 72.42 267.40 79.14 270.78 85.51 C 271.25 87.17 271.74 88.82 272.21 90.48 C 272.72 91.48 273.23 92.48 273.75 93.48 C 274.36 95.52 275.01 97.55 275.67 99.57 C 276.00 100.93 276.34 102.29 276.72 103.64 C 276.90 104.55 277.08 105.46 277.26 106.38 C 277.66 107.70 278.03 109.04 278.40 110.38 C 278.74 112.04 279.04 113.71 279.35 115.38 C 279.91 118.33 280.30 121.31 281.00 124.24 L 281.00 156.98 C 279.88 161.48 279.34 166.09 278.41 170.62 C 278.06 171.94 277.71 173.27 277.35 174.59 C 277.00 175.94 276.65 177.29 276.27 178.63 C 276.09 179.54 275.92 180.46 275.76 181.37 C 275.05 183.41 274.37 185.46 273.73 187.51 C 273.22 188.51 272.72 189.51 272.21 190.52 C 271.74 192.17 271.25 193.82 270.78 195.48 C 266.69 203.92 262.42 212.26 257.28 220.11 C 246.01 213.07 235.08 205.51 224.07 198.07 C 236.44 179.67 243.10 157.25 241.63 135.07 C 240.18 110.80 229.60 87.31 212.50 70.05 C 215.60 67.29 218.54 64.34 221.31 61.25 C 227.56 54.38 234.48 48.12 240.39 40.93 Z" />
<path fill="#040305" opacity="1.00" d=" M 85.30 78.27 C 95.58 66.86 111.04 61.87 125.96 60.60 C 139.97 59.48 154.28 59.38 168.05 62.59 C 178.47 65.04 188.81 69.89 195.67 78.37 C 202.35 86.45 205.47 96.83 206.77 107.08 C 191.41 107.99 176.04 108.80 160.69 109.80 C 159.56 104.96 158.23 99.90 154.78 96.15 C 150.40 91.11 143.41 89.42 136.99 89.46 C 131.87 89.45 126.14 90.44 122.63 94.53 C 119.80 97.65 118.79 102.91 121.59 106.36 C 124.53 110.30 129.58 111.44 134.02 112.86 C 133.98 127.15 134.00 141.43 134.01 155.72 C 121.09 152.76 108.14 149.01 96.57 142.40 C 88.26 137.68 81.01 130.59 77.45 121.60 C 71.73 107.18 74.89 89.78 85.30 78.27 Z" />
<path fill="#040305" opacity="1.00" d=" M 142.00 114.62 C 154.98 117.51 167.96 120.68 180.31 125.66 C 190.05 129.73 199.47 135.79 205.19 144.89 C 212.22 155.84 213.35 169.82 210.14 182.24 C 206.38 196.41 196.14 208.58 183.00 215.00 C 170.33 221.30 155.96 222.93 141.99 223.02 C 131.34 222.95 120.60 222.24 110.21 219.74 C 100.85 217.38 91.47 213.42 84.88 206.11 C 75.06 195.87 69.79 181.96 68.66 167.94 C 84.16 166.95 99.67 166.05 115.17 165.00 C 116.33 172.02 118.17 179.45 123.45 184.58 C 130.56 191.66 141.60 193.10 151.03 190.81 C 157.80 189.18 164.12 183.33 164.29 176.05 C 164.54 170.73 161.11 165.90 156.71 163.23 C 152.19 160.51 147.04 159.13 142.02 157.66 C 141.97 143.31 142.01 128.97 142.00 114.62 Z" />
</g>
</svg>
