<?xml version="1.0" encoding="UTF-8" ?>
<!DOCTYPE svg PUBLIC "-//W3C//DTD SVG 1.1//EN" "http://www.w3.org/Graphics/SVG/1.1/DTD/svg11.dtd">
<svg width="256pt" height="256pt" viewBox="0 0 256 256" version="1.1" xmlns="http://www.w3.org/2000/svg">
<g id="#921f1fff">
<path fill="#921f1f" opacity="1.00" d=" M 0.00 0.00 L 256.00 0.00 L 256.00 256.00 L 0.00 256.00 L 0.00 0.00 M 2.21 2.24 C 2.19 86.08 2.20 169.91 2.21 253.75 C 86.05 253.78 169.90 253.74 253.74 253.77 C 253.72 169.92 253.73 86.07 253.74 2.22 C 169.90 2.25 86.06 2.21 2.21 2.24 Z" />
<path fill="#921f1f" opacity="1.00" d=" M 24.83 22.11 C 28.78 22.15 32.74 22.14 36.69 22.09 C 54.22 49.03 71.65 76.04 89.17 102.98 C 71.73 129.52 54.44 156.15 37.01 182.69 C 32.96 182.76 28.90 182.74 24.85 182.75 C 24.81 129.20 24.85 75.66 24.83 22.11 Z" />
<path fill="#921f1f" opacity="1.00" d=" M 149.54 22.14 C 176.52 22.11 203.50 22.14 230.47 22.12 C 230.47 48.30 230.53 74.47 230.44 100.64 C 229.40 99.72 228.37 98.79 227.34 97.86 C 225.40 100.08 223.45 102.29 221.55 104.54 C 217.04 104.49 212.53 104.50 208.02 104.52 C 208.00 101.69 208.00 98.85 208.00 96.02 C 205.05 94.24 202.04 92.55 199.04 90.86 C 199.14 95.41 199.12 99.95 199.12 104.50 C 192.76 104.49 186.39 104.57 180.03 104.43 C 180.81 105.48 181.59 106.53 182.37 107.58 C 187.62 107.54 192.87 107.55 198.12 107.56 C 195.89 114.43 193.43 121.24 190.49 127.85 C 187.03 128.00 183.57 128.04 180.11 128.02 C 181.05 131.42 181.91 134.84 182.82 138.24 C 186.07 137.51 189.33 136.80 192.57 136.02 C 192.84 147.92 192.03 160.45 185.98 171.00 C 183.32 175.55 179.66 179.59 175.20 182.43 C 171.70 183.02 168.12 182.69 164.59 182.70 C 164.58 167.79 164.60 152.88 164.58 137.97 C 166.84 137.37 169.12 136.85 171.40 136.33 C 171.81 138.02 172.22 139.72 172.63 141.41 C 174.97 140.44 177.31 139.43 179.66 138.46 C 176.94 134.44 174.23 130.41 171.28 126.57 C 170.62 125.15 169.02 125.57 167.78 125.40 C 168.68 128.21 169.62 131.01 170.56 133.82 C 165.81 133.83 161.05 133.85 156.30 133.75 C 161.40 127.74 166.60 121.81 171.68 115.79 C 171.99 115.49 172.61 114.88 172.92 114.58 L 173.01 114.31 C 174.79 112.27 176.54 110.19 178.29 108.12 C 174.35 106.29 170.40 104.49 166.43 102.71 C 161.61 113.08 156.93 123.51 152.02 133.84 C 147.54 133.81 143.05 133.82 138.57 133.82 C 139.32 136.95 139.64 140.28 141.17 143.17 C 146.19 142.58 151.01 140.97 155.92 139.84 C 155.96 154.14 155.92 168.43 155.94 182.72 C 154.39 182.73 152.84 182.73 151.29 182.73 C 151.60 170.42 151.75 158.10 151.93 145.79 C 150.19 145.76 148.46 145.74 146.72 145.71 C 144.35 152.90 142.90 160.54 138.94 167.08 C 136.95 170.52 132.64 171.10 129.03 171.02 C 102.49 170.98 75.94 171.01 49.39 171.00 C 66.59 144.35 83.87 117.76 101.13 91.16 C 86.40 68.46 71.88 45.62 57.04 22.99 C 79.73 23.01 102.43 22.98 125.12 23.00 C 129.57 22.86 132.75 26.59 134.96 30.00 C 140.27 39.02 142.35 49.46 144.37 59.60 C 146.10 59.59 147.82 59.59 149.55 59.59 C 149.53 47.10 149.54 34.62 149.54 22.14 M 156.34 88.54 C 154.15 95.58 151.89 102.61 148.88 109.34 C 145.93 106.67 143.23 103.66 139.82 101.57 C 140.04 103.05 140.22 104.60 141.11 105.86 C 144.34 111.20 147.60 116.51 150.81 121.85 C 153.11 120.42 155.39 118.95 157.69 117.52 C 155.73 115.87 153.81 114.16 151.88 112.47 C 157.17 106.42 162.36 100.28 167.87 94.42 C 164.02 92.48 160.19 90.49 156.34 88.54 M 168.85 150.28 C 170.13 155.64 171.46 160.99 172.86 166.33 C 175.34 165.97 177.81 165.51 180.27 164.98 C 177.15 159.70 173.85 154.55 170.72 149.29 C 170.25 149.54 169.31 150.03 168.85 150.28 Z" />
<path fill="#921f1f" opacity="1.00" d=" M 208.45 107.57 C 215.79 107.54 223.12 107.57 230.46 107.55 C 230.47 114.43 230.57 121.32 230.39 128.21 C 226.87 124.79 224.00 120.77 220.51 117.34 C 219.81 117.09 218.41 116.61 217.70 116.36 C 219.31 119.93 221.13 123.39 222.87 126.89 C 213.66 127.00 204.46 127.45 195.26 127.78 C 200.18 121.40 204.59 114.64 208.45 107.57 Z" />
<path fill="#921f1f" opacity="1.00" d=" M 216.00 131.26 C 218.61 130.81 221.20 130.30 223.79 129.74 C 224.59 131.81 225.38 133.89 226.17 135.96 C 227.61 135.50 229.04 135.05 230.49 134.63 C 230.42 147.49 230.60 160.35 230.40 173.21 C 229.77 174.58 228.79 175.75 227.93 176.97 C 224.94 176.99 221.95 177.15 218.97 176.87 C 216.49 177.01 215.93 173.98 215.99 172.08 C 215.99 158.47 216.01 144.87 216.00 131.26 Z" />
<path fill="#921f1f" opacity="1.00" d=" M 201.24 134.48 C 203.27 133.91 205.37 133.62 207.44 133.21 C 207.37 147.15 207.45 161.09 207.38 175.02 C 207.31 177.67 207.81 180.32 208.94 182.72 C 199.39 182.76 189.83 182.73 180.28 182.73 C 189.78 177.71 196.38 168.25 198.86 157.90 C 201.11 150.27 200.84 142.32 201.24 134.48 Z" />
<path fill="#921f1f" opacity="1.00" d=" M 17.44 221.05 C 90.98 220.89 164.53 221.03 238.08 220.98 C 238.08 221.49 238.08 222.49 238.08 222.99 C 164.80 222.87 91.51 223.15 18.24 222.85 C 18.04 222.40 17.64 221.50 17.44 221.05 Z" />
</g>
<g id="#ffffffff">
<path fill="#ffffff" opacity="1.00" d=" M 34.79 19.08 C 73.04 19.26 111.29 19.11 149.54 19.16 C 149.54 20.15 149.54 21.14 149.54 22.14 C 149.54 34.62 149.53 47.10 149.55 59.59 C 147.82 59.59 146.10 59.59 144.37 59.60 C 142.35 49.46 140.27 39.02 134.96 30.00 C 132.75 26.59 129.57 22.86 125.12 23.00 C 102.43 22.98 79.73 23.01 57.04 22.99 C 71.88 45.62 86.40 68.46 101.13 91.16 C 83.87 117.76 66.59 144.35 49.39 171.00 C 75.94 171.01 102.49 170.98 129.03 171.02 C 132.64 171.10 136.95 170.52 138.94 167.08 C 142.90 160.54 144.35 152.90 146.72 145.71 C 148.46 145.74 150.19 145.76 151.93 145.79 C 151.75 158.10 151.60 170.42 151.29 182.73 C 151.28 183.30 151.27 184.43 151.26 185.00 C 112.71 184.97 74.16 185.02 35.61 184.97 C 36.06 184.20 36.53 183.44 37.01 182.69 C 54.44 156.15 71.73 129.52 89.17 102.98 C 71.65 76.04 54.22 49.03 36.69 22.09 C 36.06 21.09 35.42 20.09 34.79 19.08 Z" />
<path fill="#ffffff" opacity="1.00" d=" M 156.34 88.54 C 160.19 90.49 164.02 92.48 167.87 94.42 C 162.36 100.28 157.17 106.42 151.88 112.47 C 153.81 114.16 155.73 115.87 157.69 117.52 C 155.39 118.95 153.11 120.42 150.81 121.85 C 147.60 116.51 144.34 111.20 141.11 105.86 C 140.22 104.60 140.04 103.05 139.82 101.57 C 143.23 103.66 145.93 106.67 148.88 109.34 C 151.89 102.61 154.15 95.58 156.34 88.54 Z" />
<path fill="#ffffff" opacity="1.00" d=" M 199.04 90.86 C 202.04 92.55 205.05 94.24 208.00 96.02 C 208.00 98.85 208.00 101.69 208.02 104.52 C 212.53 104.50 217.04 104.49 221.55 104.54 C 223.45 102.29 225.40 100.08 227.34 97.86 C 228.37 98.79 229.40 99.72 230.44 100.64 C 233.06 102.93 235.65 105.24 238.20 107.61 C 235.61 107.54 233.04 107.54 230.46 107.55 C 223.12 107.57 215.79 107.54 208.45 107.57 C 204.59 114.64 200.18 121.40 195.26 127.78 C 204.46 127.45 213.66 127.00 222.87 126.89 C 221.13 123.39 219.31 119.93 217.70 116.36 C 218.41 116.61 219.81 117.09 220.51 117.34 C 224.00 120.77 226.87 124.79 230.39 128.21 L 230.69 128.53 L 230.46 128.64 C 231.94 130.26 233.43 131.89 234.93 133.51 C 233.44 133.86 231.95 134.19 230.49 134.63 C 229.04 135.05 227.61 135.50 226.17 135.96 C 225.38 133.89 224.59 131.81 223.79 129.74 C 221.20 130.30 218.61 130.81 216.00 131.26 C 216.01 144.87 215.99 158.47 215.99 172.08 C 215.93 173.98 216.49 177.01 218.97 176.87 C 221.95 177.15 224.94 176.99 227.93 176.97 C 228.79 175.75 229.77 174.58 230.40 173.21 C 231.77 169.34 231.82 165.12 232.10 161.05 C 232.79 161.07 234.17 161.12 234.86 161.14 C 234.87 169.09 234.80 177.05 234.90 185.00 C 228.58 184.99 222.25 185.01 215.93 185.00 C 213.44 185.01 210.96 184.15 208.94 182.72 C 207.81 180.32 207.31 177.67 207.38 175.02 C 207.45 161.09 207.37 147.15 207.44 133.21 C 205.37 133.62 203.27 133.91 201.24 134.48 C 200.84 142.32 201.11 150.27 198.86 157.90 C 196.38 168.25 189.78 177.71 180.28 182.73 C 177.43 184.22 174.45 185.50 171.31 186.20 C 171.62 184.10 173.67 183.47 175.20 182.43 C 179.66 179.59 183.32 175.55 185.98 171.00 C 192.03 160.45 192.84 147.92 192.57 136.02 C 189.33 136.80 186.07 137.51 182.82 138.24 C 181.91 134.84 181.05 131.42 180.11 128.02 C 183.57 128.04 187.03 128.00 190.49 127.85 C 193.43 121.24 195.89 114.43 198.12 107.56 C 192.87 107.55 187.62 107.54 182.37 107.58 C 181.59 106.53 180.81 105.48 180.03 104.43 C 186.39 104.57 192.76 104.49 199.12 104.50 C 199.12 99.95 199.14 95.41 199.04 90.86 Z" />
<path fill="#ffffff" opacity="1.00" d=" M 166.43 102.71 C 170.40 104.49 174.35 106.29 178.29 108.12 C 176.54 110.19 174.79 112.27 173.01 114.31 L 172.92 114.58 C 172.61 114.88 171.99 115.49 171.68 115.79 C 166.60 121.81 161.40 127.74 156.30 133.75 C 161.05 133.85 165.81 133.83 170.56 133.82 C 169.62 131.01 168.68 128.21 167.78 125.40 C 169.02 125.57 170.62 125.15 171.28 126.57 C 174.23 130.41 176.94 134.44 179.66 138.46 C 177.31 139.43 174.97 140.44 172.63 141.41 C 172.22 139.72 171.81 138.02 171.40 136.33 C 169.12 136.85 166.84 137.37 164.58 137.97 C 164.60 152.88 164.58 167.79 164.59 182.70 C 164.58 183.47 164.58 184.24 164.58 185.01 C 161.74 185.73 158.84 186.14 155.92 186.27 C 155.93 185.38 155.94 183.61 155.94 182.72 C 155.92 168.43 155.96 154.14 155.92 139.84 C 151.01 140.97 146.19 142.58 141.17 143.17 C 139.64 140.28 139.32 136.95 138.57 133.82 C 143.05 133.82 147.54 133.81 152.02 133.84 C 156.93 123.51 161.61 113.08 166.43 102.71 Z" />
<path fill="#ffffff" opacity="1.00" d=" M 168.85 150.28 C 169.31 150.03 170.25 149.54 170.72 149.29 C 173.85 154.55 177.15 159.70 180.27 164.98 C 177.81 165.51 175.34 165.97 172.86 166.33 C 171.46 160.99 170.13 155.64 168.85 150.28 Z" />
</g>
<g id="#282120bf">
<path fill="#282120" opacity="0.75" d=" M 20.08 203.10 C 21.74 201.09 24.41 200.74 26.78 200.12 C 28.79 200.59 30.83 200.99 32.87 201.38 C 32.87 202.74 32.87 204.10 32.87 205.47 C 30.94 203.69 29.08 201.12 26.07 201.83 C 19.06 201.87 19.29 213.36 25.21 215.19 C 28.42 216.81 31.20 213.80 33.31 211.78 C 32.88 213.17 32.42 214.56 31.96 215.95 C 28.53 216.60 24.61 217.66 21.54 215.34 C 17.33 212.89 16.60 206.46 20.08 203.10 Z" />
<path fill="#282120" opacity="0.75" d=" M 110.38 200.38 C 116.05 199.46 121.29 205.37 119.13 210.87 C 117.25 218.20 105.88 218.84 103.03 211.95 C 100.49 206.74 104.81 200.59 110.38 200.38 M 107.92 201.94 C 106.63 203.76 105.02 205.62 105.05 207.99 C 105.09 211.45 107.38 215.11 111.02 215.60 C 114.55 215.78 117.07 212.28 117.01 209.01 C 117.28 206.24 115.24 204.08 113.75 202.01 C 111.80 201.97 109.86 201.95 107.92 201.94 Z" />
<path fill="#282120" opacity="0.75" d=" M 135.94 203.96 C 137.06 199.85 141.62 200.07 144.87 201.16 C 144.93 201.94 145.05 203.50 145.11 204.28 C 143.75 203.33 142.55 202.01 140.89 201.59 C 139.79 202.00 138.73 202.51 137.71 203.11 C 140.03 207.16 147.18 209.08 144.97 214.77 C 142.76 217.78 138.92 216.73 135.90 215.92 C 135.96 214.60 136.02 213.29 136.08 211.98 C 137.59 214.61 140.17 216.67 143.25 215.04 C 144.18 209.43 136.62 208.95 135.94 203.96 Z" />
<path fill="#282120" opacity="0.75" d=" M 39.73 205.67 C 40.20 205.38 41.13 204.79 41.59 204.50 C 43.04 208.69 44.09 213.12 46.79 216.74 C 44.86 216.65 42.92 216.59 40.99 216.52 C 41.77 216.06 42.55 215.60 43.33 215.15 C 42.73 213.84 42.13 212.53 41.34 211.33 C 38.05 210.80 37.85 214.59 38.62 216.81 C 37.45 216.76 36.28 216.72 35.10 216.69 C 37.32 213.32 38.07 209.29 39.73 205.67 M 40.06 208.36 C 38.62 211.43 43.36 208.40 40.06 208.36 Z" />
<path fill="#282120" opacity="0.75" d=" M 47.81 204.81 C 50.48 205.35 53.92 203.97 55.96 206.25 C 56.47 207.71 56.39 209.31 55.80 210.74 C 54.49 211.94 52.62 211.94 50.99 212.33 C 51.02 213.03 51.08 214.42 51.11 215.12 C 51.85 215.59 52.59 216.05 53.34 216.52 C 51.66 216.62 49.98 216.74 48.30 216.86 C 49.02 212.91 49.91 208.44 47.81 204.81 M 51.00 206.00 C 51.01 207.82 51.03 209.64 51.09 211.47 C 53.83 210.99 54.75 208.44 54.11 206.00 C 53.33 206.00 51.77 206.00 51.00 206.00 Z" />
<path fill="#282120" opacity="0.75" d=" M 58.13 204.89 C 59.79 204.95 61.46 204.99 63.13 205.03 C 62.67 205.42 61.75 206.21 61.30 206.60 C 61.36 209.43 61.38 212.26 61.40 215.10 C 61.75 215.48 62.45 216.25 62.81 216.63 C 61.34 216.67 59.88 216.71 58.42 216.77 C 59.49 212.93 60.21 208.53 58.13 204.89 Z" />
<path fill="#282120" opacity="0.75" d=" M 63.94 208.24 C 64.22 207.15 64.50 206.06 64.78 204.98 C 68.18 204.99 71.59 205.00 74.99 205.00 L 75.28 206.75 C 73.86 206.45 72.45 206.17 71.04 205.90 C 71.01 208.98 71.01 212.05 71.01 215.12 C 71.75 215.63 72.49 216.15 73.23 216.67 C 71.05 216.67 68.87 216.67 66.68 216.68 C 67.45 216.11 68.22 215.54 68.98 214.98 C 68.98 212.01 68.98 209.03 68.96 206.06 C 68.25 206.08 66.84 206.11 66.13 206.13 C 65.40 206.83 64.67 207.54 63.94 208.24 Z" />
<path fill="#282120" opacity="0.75" d=" M 76.65 214.60 C 78.18 211.21 78.03 206.44 81.62 204.45 C 83.11 208.64 84.15 213.07 86.75 216.76 C 84.81 216.66 82.87 216.58 80.93 216.49 C 81.67 216.08 82.41 215.68 83.15 215.28 C 82.73 213.93 82.31 212.58 81.88 211.24 C 80.61 211.73 78.57 211.70 78.25 213.41 C 78.25 214.56 78.44 215.70 78.60 216.83 C 77.34 216.75 76.08 216.66 74.83 216.59 C 75.43 215.92 76.04 215.26 76.65 214.60 M 80.12 208.33 C 78.60 211.35 83.41 208.50 80.12 208.33 Z" />
<path fill="#282120" opacity="0.75" d=" M 87.58 204.84 C 89.72 204.95 91.86 205.04 94.00 205.14 C 93.42 205.49 92.24 206.18 91.65 206.52 C 91.18 209.43 91.44 212.40 91.47 215.33 C 93.23 215.12 95.02 214.92 96.66 214.17 L 97.38 213.98 C 96.82 214.87 96.25 215.76 95.69 216.65 C 93.07 216.64 90.46 216.65 87.85 216.69 C 88.43 215.88 89.02 215.08 89.61 214.28 C 89.31 211.08 90.61 207.08 87.58 204.84 Z" />
<path fill="#282120" opacity="0.75" d=" M 121.79 205.00 C 124.57 204.99 127.35 204.99 130.13 205.00 C 130.18 205.45 130.27 206.37 130.32 206.82 C 128.66 206.52 127.01 206.21 125.36 205.89 C 125.36 207.29 125.37 208.68 125.38 210.08 C 126.94 209.71 128.50 209.35 130.07 209.05 C 130.08 209.76 130.10 211.16 130.11 211.86 C 128.46 211.43 126.79 211.06 125.11 210.77 C 125.24 212.90 125.73 214.97 126.89 216.79 C 125.40 216.74 123.90 216.72 122.41 216.71 C 123.47 213.52 123.44 210.15 123.40 206.84 C 123.00 206.38 122.19 205.46 121.79 205.00 Z" />
<path fill="#282120" opacity="0.75" d=" M 148.03 204.99 C 151.67 205.00 155.31 204.99 158.95 205.00 C 158.98 205.75 159.03 207.25 159.05 208.00 L 158.02 208.05 C 157.97 207.55 157.87 206.55 157.82 206.05 C 156.59 206.08 155.37 206.11 154.15 206.15 C 154.15 208.99 154.15 211.82 154.16 214.66 C 154.88 215.29 155.59 215.93 156.30 216.57 C 154.31 216.63 152.33 216.70 150.34 216.81 C 153.59 214.09 151.98 209.46 152.25 205.79 C 150.53 206.00 148.99 206.65 147.76 207.88 C 147.82 207.16 147.96 205.71 148.03 204.99 Z" />
<path fill="#282120" opacity="0.75" d=" M 163.38 204.49 C 164.43 205.08 165.60 205.70 165.86 207.02 C 167.06 210.32 168.07 213.73 169.98 216.72 C 168.41 216.72 166.85 216.75 165.29 216.82 C 166.55 214.29 165.04 211.72 164.62 209.17 C 164.24 208.88 163.48 208.29 163.10 208.00 C 163.08 209.21 163.07 210.42 163.05 211.63 C 162.33 212.79 161.62 213.94 160.93 215.11 C 161.53 215.49 162.73 216.23 163.33 216.60 C 161.89 216.64 160.44 216.69 159.00 216.74 C 160.70 212.74 162.07 208.62 163.38 204.49 Z" />
<path fill="#282120" opacity="0.75" d=" M 171.33 205.01 C 174.87 204.98 178.42 204.98 181.96 205.00 C 182.04 205.57 182.19 206.72 182.26 207.30 C 180.78 206.97 179.52 206.03 178.02 205.71 C 177.93 208.87 177.94 212.02 177.95 215.18 C 178.66 215.70 179.38 216.21 180.10 216.73 C 177.95 216.68 175.81 216.64 173.66 216.60 C 174.19 216.20 175.25 215.40 175.77 215.00 C 175.80 211.93 175.81 208.87 175.76 205.80 C 173.60 205.80 172.18 206.90 170.73 208.25 C 170.88 207.44 171.18 205.82 171.33 205.01 Z" />
<path fill="#282120" opacity="0.75" d=" M 184.06 204.92 C 185.46 204.92 186.87 204.91 188.28 204.90 C 186.15 208.49 187.32 212.84 187.63 216.74 C 186.84 216.76 185.27 216.79 184.48 216.81 C 184.95 212.88 185.73 208.68 184.06 204.92 Z" />
<path fill="#282120" opacity="0.75" d=" M 190.46 207.12 C 191.10 204.07 194.62 205.13 196.88 204.96 C 196.94 205.64 197.06 206.99 197.13 207.67 C 195.59 206.28 193.62 205.87 191.59 205.94 C 192.88 209.44 198.24 210.77 197.01 215.07 C 195.36 217.40 192.53 216.80 190.28 215.89 C 190.22 215.21 190.11 213.86 190.06 213.18 C 191.74 215.30 194.18 216.71 196.44 214.26 C 194.63 211.81 190.80 210.44 190.46 207.12 Z" />
<path fill="#282120" opacity="0.75" d=" M 199.00 204.99 C 202.68 204.99 206.36 204.99 210.05 205.00 C 210.03 205.88 209.98 207.64 209.95 208.53 C 209.60 207.91 208.91 206.67 208.56 206.05 C 207.51 206.09 206.48 206.14 205.44 206.21 C 205.47 208.98 205.48 211.75 205.49 214.52 C 206.05 215.24 206.61 215.97 207.17 216.69 C 205.35 216.66 203.53 216.63 201.71 216.61 C 202.38 215.94 203.05 215.28 203.72 214.62 C 203.73 211.79 203.74 208.97 203.76 206.14 C 202.52 206.11 201.30 206.08 200.07 206.04 C 200.05 206.54 200.02 207.52 200.00 208.01 L 198.98 208.04 C 198.99 207.28 198.99 205.76 199.00 204.99 Z" />
<path fill="#282120" opacity="0.75" d=" M 212.06 204.93 C 213.38 204.92 214.71 204.91 216.04 204.91 C 214.26 208.62 215.04 212.89 215.64 216.80 C 214.54 216.80 213.43 216.81 212.33 216.84 C 213.02 212.93 213.63 208.71 212.06 204.93 Z" />
<path fill="#282120" opacity="0.75" d=" M 219.24 207.32 C 221.24 203.78 225.72 205.22 229.02 204.99 C 229.01 205.90 229.00 207.73 228.99 208.65 C 228.15 207.74 227.32 206.84 226.49 205.93 C 225.13 205.99 223.75 205.99 222.40 206.21 C 219.07 208.58 220.05 214.63 224.07 215.66 C 226.31 216.16 227.85 214.17 229.54 213.07 C 229.26 213.99 228.99 214.91 228.72 215.83 C 226.48 216.33 224.03 217.39 221.83 216.22 C 218.48 214.79 216.87 210.31 219.24 207.32 Z" />
<path fill="#282120" opacity="0.75" d=" M 231.59 208.44 C 230.06 204.23 237.95 203.35 238.55 207.20 C 236.61 206.50 234.59 206.04 232.54 205.88 C 233.82 208.47 236.07 210.32 238.27 212.10 C 237.95 213.40 238.35 215.17 236.96 215.96 C 235.24 217.57 233.03 216.35 231.14 215.87 C 231.10 215.19 231.01 213.84 230.97 213.17 C 232.73 215.25 235.08 216.79 237.38 214.27 C 235.57 212.21 233.12 210.73 231.59 208.44 Z" />
<path fill="#282120" opacity="0.75" d=" M 75.33 207.21 C 75.77 207.79 75.77 207.79 75.33 207.21 Z" />
<path fill="#282120" opacity="0.75" d=" M 17.79 226.02 C 19.88 225.98 21.97 225.97 24.06 225.94 C 24.90 226.94 25.74 227.95 26.58 228.96 C 25.09 230.73 23.18 232.00 21.10 232.97 C 21.76 233.86 22.41 234.76 23.07 235.65 C 21.83 235.66 20.58 235.69 19.34 235.71 C 19.92 232.97 20.06 230.17 20.00 227.38 C 19.45 227.04 18.35 226.36 17.79 226.02 M 22.17 227.36 C 21.21 228.16 21.00 230.56 22.57 230.75 C 24.61 230.55 24.40 226.14 22.17 227.36 Z" />
<path fill="#282120" opacity="0.75" d=" M 94.12 225.93 C 95.39 225.93 96.66 225.92 97.94 225.91 C 97.70 227.33 97.04 228.63 96.69 230.02 C 98.33 229.98 99.97 229.94 101.61 229.89 C 101.60 229.32 101.57 228.17 101.55 227.59 C 101.06 227.20 100.08 226.43 99.59 226.04 C 101.08 225.99 102.57 225.93 104.06 225.89 C 102.81 229.00 103.17 232.35 103.71 235.58 C 102.55 235.65 101.39 235.73 100.23 235.82 C 100.75 234.31 101.32 232.80 101.93 231.33 C 100.23 231.29 98.53 231.26 96.83 231.25 C 97.04 232.37 97.46 234.62 97.67 235.74 C 96.87 235.74 95.26 235.76 94.46 235.76 C 95.00 232.51 95.50 229.05 94.12 225.93 Z" />
<path fill="#282120" opacity="0.75" d=" M 174.23 225.95 C 175.48 225.93 176.73 225.91 177.98 225.89 C 176.42 228.98 177.03 232.50 177.54 235.77 C 176.55 235.72 175.56 235.69 174.57 235.66 C 175.05 232.43 175.37 229.08 174.23 225.95 Z" />
<path fill="#282120" opacity="0.75" d=" M 27.17 227.93 C 28.73 227.99 30.30 228.05 31.86 228.10 C 31.78 231.06 32.30 233.94 33.84 236.50 C 32.09 235.00 30.48 233.35 28.87 231.71 C 29.13 233.11 29.40 234.51 29.69 235.90 C 29.11 235.83 27.93 235.68 27.35 235.60 C 27.82 233.05 27.94 230.43 27.17 227.93 M 29.11 229.13 C 28.64 230.81 29.19 231.38 30.76 230.85 C 31.24 229.18 30.69 228.60 29.11 229.13 Z" />
<path fill="#282120" opacity="0.75" d=" M 35.29 228.40 C 36.81 227.83 38.47 227.96 40.06 227.76 C 41.08 229.46 43.12 231.54 41.38 233.51 C 39.88 236.27 35.80 236.27 34.04 233.76 C 33.91 231.94 33.42 229.52 35.29 228.40 M 35.15 232.57 C 35.98 233.60 37.57 235.67 38.99 234.44 C 40.93 233.43 39.89 230.98 40.03 229.29 C 39.25 229.04 37.70 228.53 36.93 228.28 C 36.14 229.61 34.52 230.84 35.15 232.57 Z" />
<path fill="#282120" opacity="0.75" d=" M 43.39 227.97 C 44.92 227.98 46.46 227.99 48.00 228.00 L 48.02 229.22 C 47.27 229.15 45.76 229.03 45.00 228.96 C 45.00 229.49 45.01 230.54 45.01 231.07 C 45.76 230.96 47.27 230.74 48.03 230.63 L 48.05 232.21 C 47.25 232.15 45.66 232.04 44.86 231.98 C 45.13 233.24 45.42 234.51 45.72 235.77 C 45.14 235.76 43.97 235.73 43.39 235.72 C 43.62 233.14 43.63 230.55 43.39 227.97 Z" />
<path fill="#282120" opacity="0.75" d=" M 49.56 227.81 C 51.62 228.05 53.97 227.72 55.59 229.36 C 54.63 229.28 52.71 229.13 51.75 229.05 C 51.61 230.50 52.35 231.23 53.99 231.24 L 54.05 232.40 C 53.42 232.29 52.15 232.08 51.51 231.97 C 51.84 232.75 52.48 234.31 52.80 235.09 C 53.37 234.55 54.49 233.47 55.05 232.93 C 55.02 233.57 54.94 234.85 54.90 235.49 C 53.06 235.57 51.21 235.68 49.37 235.82 C 50.09 233.19 50.03 230.47 49.56 227.81 Z" />
<path fill="#282120" opacity="0.75" d=" M 56.16 228.19 C 57.46 228.12 58.76 228.05 60.07 227.97 L 60.43 229.15 C 59.27 228.83 58.14 228.85 57.03 229.20 C 58.23 230.58 59.52 231.88 60.77 233.22 C 61.88 233.86 62.99 234.50 64.09 235.15 C 64.32 234.75 64.78 233.95 65.01 233.55 C 63.29 232.09 61.33 230.48 61.61 227.97 C 63.07 228.03 64.53 228.10 65.99 228.16 C 66.01 228.54 66.04 229.30 66.06 229.68 C 64.87 229.27 63.67 228.87 62.47 228.48 C 63.59 229.85 64.75 231.19 65.93 232.51 C 65.97 233.17 66.07 234.51 66.12 235.18 C 64.23 235.75 62.38 235.56 60.81 234.33 C 59.54 236.97 56.33 235.89 55.34 233.60 C 56.40 234.28 57.54 234.66 58.74 234.74 C 59.72 232.71 57.05 231.71 55.96 230.48 C 56.01 229.91 56.11 228.76 56.16 228.19 Z" />
<path fill="#282120" opacity="0.75" d=" M 67.53 227.99 C 68.05 227.97 69.09 227.93 69.61 227.91 C 68.89 230.51 68.98 233.21 69.58 235.82 C 69.04 235.81 67.95 235.79 67.41 235.78 C 67.85 233.20 67.89 230.58 67.53 227.99 Z" />
<path fill="#282120" opacity="0.75" d=" M 70.74 230.44 C 71.61 229.59 72.47 228.73 73.32 227.87 C 75.09 228.22 77.61 227.41 78.60 229.37 C 80.77 232.39 77.17 236.95 73.76 235.37 C 71.43 234.90 71.02 232.40 70.74 230.44 M 73.11 229.17 C 72.92 230.69 72.93 232.22 72.90 233.75 C 73.96 234.20 75.03 234.66 76.10 235.11 C 76.76 234.06 77.45 233.02 78.03 231.92 C 77.74 229.63 75.30 227.38 73.11 229.17 Z" />
<path fill="#282120" opacity="0.75" d=" M 80.61 227.96 C 81.10 227.98 82.08 228.01 82.57 228.03 C 84.01 229.77 85.49 231.48 87.03 233.13 C 86.80 231.39 86.55 229.65 86.28 227.92 C 86.79 227.94 87.79 227.98 88.29 228.00 C 88.11 230.63 88.00 233.25 87.84 235.88 C 85.74 233.96 83.82 231.86 81.89 229.77 C 82.08 231.82 82.31 233.88 82.60 235.92 C 81.91 235.85 81.23 235.78 80.54 235.71 C 81.00 233.14 81.01 230.53 80.61 227.96 Z" />
<path fill="#282120" opacity="0.75" d=" M 105.62 227.96 C 106.14 227.97 107.18 227.98 107.70 227.98 C 107.70 230.22 106.28 235.20 110.17 234.55 C 113.15 233.70 111.42 230.01 111.23 227.91 C 111.75 227.93 112.79 227.99 113.30 228.02 C 112.90 230.30 113.32 232.93 111.86 234.89 C 110.01 236.42 107.80 235.20 106.03 234.26 C 105.94 232.15 105.81 230.06 105.62 227.96 Z" />
<path fill="#282120" opacity="0.75" d=" M 115.12 227.36 C 117.15 228.66 117.79 230.98 118.50 233.14 C 119.53 231.02 120.48 228.76 122.50 227.37 C 122.37 229.84 121.91 232.49 123.19 234.77 C 123.48 234.86 124.05 235.04 124.34 235.13 C 125.45 232.54 126.29 229.84 127.43 227.27 C 129.07 229.81 129.99 232.71 131.33 235.40 C 134.21 234.33 132.19 229.89 132.51 227.45 C 135.15 228.79 137.03 231.13 139.08 233.19 C 138.72 231.43 138.36 229.67 137.99 227.91 C 138.51 227.93 139.53 227.96 140.05 227.98 C 139.89 230.57 139.77 233.15 139.60 235.74 C 137.50 234.02 135.63 232.04 133.85 230.00 C 134.08 231.90 134.31 233.82 134.53 235.72 C 132.48 235.67 130.43 235.65 128.39 235.69 C 128.78 234.65 129.23 231.41 127.07 232.45 C 125.05 232.35 126.72 234.75 126.51 235.83 C 124.51 235.83 122.51 235.81 120.52 235.74 C 120.70 234.12 120.88 232.50 121.05 230.89 C 120.13 232.49 119.34 234.17 118.44 235.79 C 117.64 234.17 116.83 232.55 115.98 230.96 C 116.09 232.55 116.24 234.15 116.42 235.75 C 115.90 235.76 114.88 235.79 114.37 235.81 C 114.88 233.02 114.99 230.18 115.12 227.36 Z" />
<path fill="#282120" opacity="0.75" d=" M 141.65 227.97 C 142.15 227.97 143.13 227.95 143.62 227.95 C 143.15 230.53 143.15 233.17 143.62 235.75 C 143.08 235.78 142.00 235.84 141.47 235.87 C 142.00 233.27 142.02 230.60 141.65 227.97 Z" />
<path fill="#282120" opacity="0.75" d=" M 145.00 227.99 C 147.34 227.99 149.68 227.99 152.02 227.99 C 152.02 228.39 152.03 229.19 152.03 229.59 C 151.37 229.41 150.05 229.04 149.39 228.86 C 149.35 230.65 149.33 232.44 149.30 234.24 C 149.68 234.58 150.43 235.26 150.81 235.60 C 149.67 235.66 148.53 235.73 147.39 235.80 C 147.82 233.50 147.99 231.15 148.04 228.82 C 147.01 229.11 145.98 229.41 144.95 229.72 C 144.96 229.29 144.99 228.42 145.00 227.99 Z" />
<path fill="#282120" opacity="0.75" d=" M 152.77 227.89 C 153.47 227.94 154.88 228.04 155.58 228.09 C 155.83 228.95 156.33 230.66 156.58 231.51 C 157.13 230.32 157.78 229.17 158.49 228.07 C 158.97 228.02 159.92 227.91 160.40 227.86 C 158.70 230.10 157.39 232.65 157.61 235.55 C 157.05 235.64 155.94 235.83 155.38 235.93 C 156.85 232.82 154.57 230.21 152.77 227.89 Z" />
<path fill="#282120" opacity="0.75" d=" M 162.86 233.68 C 163.96 231.84 164.05 228.52 166.59 228.13 C 167.89 229.11 167.28 230.69 167.22 232.04 C 167.66 232.02 168.53 232.00 168.97 231.99 C 168.96 231.49 168.96 230.51 168.95 230.02 C 169.51 229.99 170.63 229.93 171.19 229.90 C 170.01 231.37 167.16 234.38 170.69 234.93 C 170.41 235.14 169.86 235.57 169.58 235.78 C 168.85 235.46 168.13 235.15 167.40 234.84 C 165.54 236.04 164.01 235.35 162.86 233.68 Z" />
<path fill="#282120" opacity="0.75" d=" M 179.44 227.43 C 181.93 228.70 183.74 230.85 185.67 232.82 C 185.43 231.19 185.18 229.58 184.91 227.96 C 185.41 227.97 186.42 227.98 186.93 227.98 C 186.73 230.31 186.66 232.65 186.38 234.98 C 183.88 234.63 182.70 231.57 180.86 230.04 C 181.08 231.98 181.31 233.94 181.59 235.88 C 181.04 235.86 179.92 235.82 179.37 235.80 C 180.10 233.04 179.94 230.20 179.44 227.43 Z" />
<path fill="#282120" opacity="0.75" d=" M 187.89 228.00 C 190.28 227.99 192.67 227.99 195.06 227.99 C 195.04 228.36 194.99 229.09 194.97 229.46 C 194.35 229.32 193.10 229.04 192.48 228.90 C 192.46 230.65 192.44 232.40 192.43 234.16 C 192.76 234.51 193.42 235.21 193.76 235.56 C 192.63 235.65 191.51 235.74 190.40 235.85 C 190.80 233.50 190.99 231.13 191.05 228.75 C 190.01 229.12 188.97 229.51 187.94 229.89 C 187.93 229.42 187.91 228.47 187.89 228.00 Z" />
<path fill="#282120" opacity="0.75" d=" M 196.50 227.96 C 197.99 227.97 199.48 227.98 200.97 228.00 C 201.29 228.39 201.92 229.16 202.24 229.55 C 200.79 229.55 197.67 227.92 198.71 230.68 C 199.28 230.79 200.43 231.02 201.00 231.13 L 201.06 232.35 C 200.32 232.34 198.82 232.34 198.07 232.33 C 198.79 233.36 199.51 234.38 200.23 235.41 C 199.28 235.53 197.39 235.78 196.45 235.90 C 197.05 233.27 197.03 230.59 196.50 227.96 Z" />
<path fill="#282120" opacity="0.75" d=" M 206.44 228.26 C 207.45 227.41 210.30 227.80 209.98 229.45 C 208.97 230.00 206.42 229.63 206.44 228.26 Z" />
<path fill="#282120" opacity="0.75" d=" M 211.72 228.01 C 213.22 227.97 214.73 227.93 216.24 227.89 C 216.86 229.28 216.91 230.75 216.35 232.19 C 217.01 233.54 217.67 234.90 218.29 236.28 C 216.59 235.00 215.15 233.43 213.81 231.79 C 214.40 231.35 215.58 230.48 216.17 230.05 C 215.54 229.62 214.27 228.75 213.64 228.32 C 213.65 230.74 213.73 233.15 213.79 235.57 L 211.69 235.81 C 211.96 233.21 211.97 230.60 211.72 228.01 Z" />
<path fill="#282120" opacity="0.75" d=" M 219.46 227.96 C 219.95 227.96 220.93 227.96 221.42 227.96 C 220.97 230.58 220.99 233.26 221.54 235.87 C 221.01 235.84 219.95 235.79 219.41 235.77 C 219.88 233.18 219.90 230.55 219.46 227.96 Z" />
<path fill="#282120" opacity="0.75" d=" M 223.00 227.99 C 225.54 227.99 228.08 227.98 230.63 228.02 C 230.38 230.61 228.48 229.39 226.93 228.88 C 227.05 231.19 227.22 233.50 227.60 235.78 C 226.44 235.72 225.29 235.67 224.14 235.63 C 224.73 235.09 225.32 234.55 225.91 234.02 C 225.90 232.34 225.89 230.66 225.89 228.99 C 225.14 229.02 223.65 229.08 222.90 229.11 L 223.00 227.99 Z" />
<path fill="#282120" opacity="0.75" d=" M 230.59 227.55 C 232.89 227.51 233.68 229.44 234.46 231.20 C 235.48 229.69 236.30 227.84 238.33 227.50 C 237.25 229.36 236.10 231.18 234.95 233.00 C 235.27 233.89 235.59 234.78 235.91 235.67 C 235.29 235.69 234.05 235.75 233.42 235.77 C 234.57 232.61 232.00 230.11 230.59 227.55 Z" />
<path fill="#282120" opacity="0.75" d=" M 203.01 230.28 C 203.78 229.51 205.31 227.95 206.08 227.18 C 205.79 229.29 203.64 231.61 205.26 233.71 C 206.18 234.31 207.12 234.85 208.09 235.36 C 207.92 234.22 207.74 233.09 207.56 231.96 C 208.25 231.97 209.62 231.99 210.30 232.00 C 210.21 232.80 210.03 234.40 209.94 235.20 C 207.94 235.48 205.91 235.46 203.90 235.24 C 203.46 233.62 202.73 231.99 203.01 230.28 Z" />
<path fill="#282120" opacity="0.75" d=" M 200.92 233.71 C 204.25 233.82 199.38 236.74 200.92 233.71 Z" />
<path fill="#282120" opacity="0.75" d=" M 89.05 234.23 C 90.45 233.02 91.58 235.65 90.39 236.52 C 88.99 237.81 87.92 235.10 89.05 234.23 Z" />
</g>
</svg>
