<?xml version="1.0" encoding="UTF-8" ?>
<!DOCTYPE svg PUBLIC "-//W3C//DTD SVG 1.1//EN" "http://www.w3.org/Graphics/SVG/1.1/DTD/svg11.dtd">
<svg width="16pt" height="16pt" viewBox="0 0 16 16" version="1.1" xmlns="http://www.w3.org/2000/svg">
<g id="#0f78b4ff">
<path fill="#0f78b4" opacity="1.00" d=" M 0.00 0.00 L 16.00 0.00 L 16.00 16.00 L 0.00 16.00 L 0.00 0.00 M 3.71 4.64 C 1.64 5.43 1.70 7.81 2.14 9.61 C 3.23 11.61 5.71 10.89 7.55 10.98 C 6.33 10.01 4.84 9.54 3.39 9.07 C 3.39 8.24 3.45 7.41 3.54 6.58 C 5.10 6.16 6.70 5.90 8.28 5.54 C 6.83 5.03 5.24 3.58 3.71 4.64 M 8.19 8.73 C 9.15 11.54 12.76 11.79 14.63 9.77 C 12.14 10.18 9.34 9.46 9.81 6.34 C 11.39 6.15 12.96 5.94 14.53 5.72 C 12.30 2.60 7.45 5.20 8.19 8.73 Z" />
</g>
<g id="#c4d7e8ff">
<path fill="#c4d7e8" opacity="1.00" d=" M 3.71 4.64 C 5.24 3.58 6.83 5.03 8.28 5.54 C 6.70 5.90 5.10 6.16 3.54 6.58 C 3.45 7.41 3.39 8.24 3.39 9.07 C 4.84 9.54 6.33 10.01 7.55 10.98 C 5.71 10.89 3.23 11.61 2.14 9.61 C 1.70 7.81 1.64 5.43 3.71 4.64 Z" />
<path fill="#c4d7e8" opacity="1.00" d=" M 8.19 8.73 C 7.45 5.20 12.30 2.60 14.53 5.72 C 12.96 5.94 11.39 6.15 9.81 6.34 C 9.34 9.46 12.14 10.18 14.63 9.77 C 12.76 11.79 9.15 11.54 8.19 8.73 Z" />
</g>
</svg>
