<?xml version="1.0" encoding="UTF-8" ?>
<!DOCTYPE svg PUBLIC "-//W3C//DTD SVG 1.1//EN" "http://www.w3.org/Graphics/SVG/1.1/DTD/svg11.dtd">
<svg width="16pt" height="16pt" viewBox="0 0 16 16" version="1.1" xmlns="http://www.w3.org/2000/svg">
<g id="#ffffffff">
<path fill="#ffffff" opacity="1.00" d=" M 0.00 0.00 L 16.00 0.00 L 16.00 16.00 L 0.00 16.00 L 0.00 0.00 M 5.30 2.54 C 2.03 5.20 2.01 10.96 5.45 13.48 C 7.82 14.88 10.77 14.25 13.00 12.89 C 10.99 12.60 8.80 13.06 6.91 12.21 C 4.33 11.00 4.46 7.46 5.28 5.19 C 6.64 2.23 10.32 3.40 12.86 3.19 C 11.07 0.91 7.54 1.13 5.30 2.54 Z" />
</g>
<g id="#676767ff">
<path fill="#676767" opacity="1.00" d=" M 5.30 2.54 C 7.54 1.13 11.07 0.91 12.86 3.19 C 10.32 3.40 6.64 2.23 5.28 5.19 C 4.46 7.46 4.33 11.00 6.91 12.21 C 8.80 13.06 10.99 12.60 13.00 12.89 C 10.77 14.25 7.82 14.88 5.45 13.48 C 2.01 10.96 2.03 5.20 5.30 2.54 Z" />
</g>
</svg>
