<?xml version="1.0" encoding="UTF-8" ?>
<!DOCTYPE svg PUBLIC "-//W3C//DTD SVG 1.1//EN" "http://www.w3.org/Graphics/SVG/1.1/DTD/svg11.dtd">
<svg width="194pt" height="194pt" viewBox="0 0 194 194" version="1.1" xmlns="http://www.w3.org/2000/svg">
<g id="#0056d2ff">
<path fill="#0056d2" opacity="1.00" d=" M 93.49 0.00 L 100.46 0.00 C 124.73 0.86 148.54 11.15 165.60 28.45 C 182.87 45.49 193.12 69.25 194.00 93.47 L 194.00 101.25 C 192.89 125.23 182.69 148.69 165.59 165.57 C 148.72 182.68 125.27 192.86 101.31 194.00 L 94.39 194.00 C 69.85 193.41 45.70 183.05 28.43 165.59 C 11.32 148.73 1.13 125.28 0.00 101.32 L 0.00 93.51 C 0.87 69.25 11.15 45.46 28.45 28.40 C 45.49 11.13 69.27 0.87 93.49 0.00 M 78.41 40.61 C 63.99 46.12 51.80 57.30 45.21 71.28 C 38.73 84.78 37.60 100.76 42.19 115.02 C 47.01 130.27 58.13 143.36 72.34 150.67 C 85.97 157.84 102.28 159.45 117.15 155.63 C 132.36 151.84 145.84 142.00 154.27 128.80 C 145.75 123.69 137.17 118.68 128.68 113.53 C 121.91 124.30 108.55 130.41 95.99 128.07 C 80.96 125.63 68.58 111.39 69.23 96.01 C 69.46 80.19 83.26 66.20 98.97 65.34 C 110.24 64.31 121.40 70.03 127.95 79.09 C 136.54 74.04 145.18 69.07 153.80 64.06 C 147.33 54.62 138.38 46.84 127.92 42.12 C 112.51 35.03 94.23 34.46 78.41 40.61 Z" />
</g>
<g id="#ffffffff">
<path fill="#ffffff" opacity="1.00" d=" M 78.41 40.61 C 94.23 34.46 112.51 35.03 127.92 42.12 C 138.38 46.84 147.33 54.62 153.80 64.06 C 145.18 69.07 136.54 74.04 127.95 79.09 C 121.40 70.03 110.24 64.31 98.97 65.34 C 83.26 66.20 69.46 80.19 69.23 96.01 C 68.58 111.39 80.96 125.63 95.99 128.07 C 108.55 130.41 121.91 124.30 128.68 113.53 C 137.17 118.68 145.75 123.69 154.27 128.80 C 145.84 142.00 132.36 151.84 117.15 155.63 C 102.28 159.45 85.97 157.84 72.34 150.67 C 58.13 143.36 47.01 130.27 42.19 115.02 C 37.60 100.76 38.73 84.78 45.21 71.28 C 51.80 57.30 63.99 46.12 78.41 40.61 Z" />
</g>
</svg>
