<?xml version="1.0" encoding="UTF-8" ?>
<!DOCTYPE svg PUBLIC "-//W3C//DTD SVG 1.1//EN" "http://www.w3.org/Graphics/SVG/1.1/DTD/svg11.dtd">
<svg width="32pt" height="32pt" viewBox="0 0 32 32" version="1.1" xmlns="http://www.w3.org/2000/svg">
<g id="#4689c6ff">
<path fill="#4689c6" opacity="1.00" d=" M 7.18 8.20 C 9.66 7.55 12.12 8.51 14.48 9.15 C 13.69 10.44 13.06 11.82 12.27 13.11 C 9.33 11.65 5.83 12.55 4.94 15.96 C 5.95 18.83 9.84 20.39 12.12 18.02 C 14.49 14.65 15.48 9.54 20.06 8.41 C 25.50 6.29 32.38 10.93 31.28 16.97 C 30.19 23.63 21.03 25.82 16.52 21.09 C 17.23 19.90 17.93 18.72 18.57 17.50 C 20.79 19.31 25.18 20.30 26.43 16.91 C 27.83 13.37 22.95 11.04 20.38 13.18 C 17.50 16.10 17.07 21.20 12.92 22.85 C 8.02 25.50 0.52 21.88 0.79 15.98 C 0.51 12.23 3.54 8.77 7.18 8.20 Z" />
</g>
</svg>
