<?xml version="1.0" encoding="UTF-8" ?>
<!DOCTYPE svg PUBLIC "-//W3C//DTD SVG 1.1//EN" "http://www.w3.org/Graphics/SVG/1.1/DTD/svg11.dtd">
<svg width="60pt" height="60pt" viewBox="0 0 60 60" version="1.1" xmlns="http://www.w3.org/2000/svg">
<g id="#ffffffff">
<path fill="#ffffff" opacity="1.00" d=" M 13.80 0.00 L 45.44 0.00 C 49.27 0.11 53.36 1.04 56.06 3.95 C 58.73 6.51 59.79 10.20 60.00 13.80 L 60.00 45.52 C 59.93 49.58 58.72 53.84 55.52 56.56 C 52.85 59.05 49.14 59.88 45.59 60.00 L 14.13 60.00 C 10.43 59.86 6.58 58.81 3.95 56.06 C 1.07 53.39 0.13 49.36 0.00 45.58 L 0.00 14.10 C -0.38 6.46 6.13 -0.25 13.80 0.00 M 8.29 15.28 L 8.72 15.46 L 8.29 15.31 C 6.57 17.48 5.61 20.10 4.64 22.66 C 3.89 27.42 3.41 32.30 4.68 37.02 L 4.99 37.20 C 6.98 45.59 13.81 51.87 21.62 54.96 C 22.98 55.25 24.34 55.58 25.73 55.71 C 33.84 57.37 42.64 54.29 48.29 48.32 C 50.98 45.64 51.81 40.89 49.12 37.93 C 47.35 35.39 44.13 35.03 41.36 34.39 L 41.74 34.91 C 40.25 35.52 38.77 36.15 37.29 36.78 L 37.32 37.53 C 34.56 39.23 31.34 41.08 27.98 40.06 C 23.34 39.07 19.75 34.72 19.58 29.99 C 19.50 27.06 21.32 24.59 22.66 22.14 C 24.42 21.57 26.04 20.65 27.63 19.71 C 32.13 19.04 36.04 21.39 39.42 24.05 L 39.47 24.63 C 42.35 24.74 45.76 25.39 48.00 23.07 C 50.67 20.91 51.41 16.99 50.08 13.89 C 48.14 10.16 44.28 8.06 40.76 6.09 C 29.49 0.94 15.12 4.90 8.29 15.28 Z" />
</g>
<g id="#e56660ff">
<path fill="#e56660" opacity="1.00" d=" M 8.29 15.28 C 15.12 4.90 29.49 0.94 40.76 6.09 C 40.14 11.31 39.42 16.53 39.22 21.78 C 36.39 16.88 31.89 12.65 26.19 11.55 C 23.16 11.12 19.97 10.86 17.04 11.88 C 14.32 12.98 11.86 14.64 9.08 15.61 L 8.72 15.46 L 8.29 15.28 Z" />
</g>
<g id="#e0736eff">
<path fill="#e0736e" opacity="1.00" d=" M 40.76 6.09 C 44.28 8.06 48.14 10.16 50.08 13.89 C 51.41 16.99 50.67 20.91 48.00 23.07 C 45.76 25.39 42.35 24.74 39.47 24.63 L 39.42 24.05 C 39.37 23.49 39.27 22.35 39.22 21.78 C 39.42 16.53 40.14 11.31 40.76 6.09 Z" />
</g>
<g id="#f3ad79ff">
<path fill="#f3ad79" opacity="1.00" d=" M 17.04 11.88 C 19.97 10.86 23.16 11.12 26.19 11.55 C 24.12 11.58 22.06 11.70 19.99 11.81 C 22.54 14.44 25.07 17.09 27.63 19.71 C 26.04 20.65 24.42 21.57 22.66 22.14 C 18.06 23.04 14.78 26.62 12.73 30.64 C 9.74 28.29 7.04 25.60 4.64 22.66 C 5.61 20.10 6.57 17.48 8.29 15.31 L 8.72 15.46 L 9.08 15.61 C 11.86 14.64 14.32 12.98 17.04 11.88 Z" />
</g>
<g id="#efb898ff">
<path fill="#efb898" opacity="1.00" d=" M 19.99 11.81 C 22.06 11.70 24.12 11.58 26.19 11.55 C 31.89 12.65 36.39 16.88 39.22 21.78 C 39.27 22.35 39.37 23.49 39.42 24.05 C 36.04 21.39 32.13 19.04 27.63 19.71 C 25.07 17.09 22.54 14.44 19.99 11.81 Z" />
</g>
<g id="#ec6e5bff">
<path fill="#ec6e5b" opacity="1.00" d=" M 12.73 30.64 C 14.78 26.62 18.06 23.04 22.66 22.14 C 21.32 24.59 19.50 27.06 19.58 29.99 C 19.75 34.72 23.34 39.07 27.98 40.06 C 31.34 41.08 34.56 39.23 37.32 37.53 C 37.46 41.03 37.60 44.52 37.79 48.02 C 36.06 47.85 34.34 47.59 32.63 47.35 C 28.00 45.94 24.36 42.64 21.08 39.23 C 20.50 44.48 20.81 49.76 21.62 54.96 C 13.81 51.87 6.98 45.59 4.99 37.20 C 7.08 38.24 8.82 39.80 10.45 41.45 C 11.10 37.82 11.75 34.19 12.73 30.64 Z" />
</g>
<g id="#f08f6bff">
<path fill="#f08f6b" opacity="1.00" d=" M 4.68 37.02 C 3.41 32.30 3.89 27.42 4.64 22.66 C 7.04 25.60 9.74 28.29 12.73 30.64 C 11.75 34.19 11.10 37.82 10.45 41.45 C 8.82 39.80 7.08 38.24 4.99 37.20 L 4.68 37.02 Z" />
</g>
<g id="#f3aa77ff">
<path fill="#f3aa77" opacity="1.00" d=" M 41.36 34.39 C 44.13 35.03 47.35 35.39 49.12 37.93 C 51.81 40.89 50.98 45.64 48.29 48.32 C 42.64 54.29 33.84 57.37 25.73 55.71 C 27.21 55.39 28.68 55.02 30.15 54.65 C 30.65 52.12 30.75 49.32 32.63 47.35 C 34.34 47.59 36.06 47.85 37.79 48.02 C 39.57 47.86 41.45 47.85 43.07 47.00 C 44.99 43.17 44.77 38.12 41.74 34.91 L 41.36 34.39 Z" />
</g>
<g id="#f0906aff">
<path fill="#f0906a" opacity="1.00" d=" M 37.29 36.78 C 38.77 36.15 40.25 35.52 41.74 34.91 C 44.77 38.12 44.99 43.17 43.07 47.00 C 41.45 47.85 39.57 47.86 37.79 48.02 C 37.60 44.52 37.46 41.03 37.32 37.53 L 37.29 36.78 Z" />
</g>
<g id="#f0926bff">
<path fill="#f0926b" opacity="1.00" d=" M 21.08 39.23 C 24.36 42.64 28.00 45.94 32.63 47.35 C 30.75 49.32 30.65 52.12 30.15 54.65 C 28.68 55.02 27.21 55.39 25.73 55.71 C 24.34 55.58 22.98 55.25 21.62 54.96 C 20.81 49.76 20.50 44.48 21.08 39.23 Z" />
</g>
</svg>
