<?xml version="1.0" encoding="UTF-8" ?>
<!DOCTYPE svg PUBLIC "-//W3C//DTD SVG 1.1//EN" "http://www.w3.org/Graphics/SVG/1.1/DTD/svg11.dtd">
<svg width="32pt" height="32pt" viewBox="0 0 32 32" version="1.1" xmlns="http://www.w3.org/2000/svg">
<g id="#5e7392d9">
<path fill="#5e7392" opacity="0.85" d=" M 0.00 0.00 L 32.00 0.00 L 32.00 2.00 L 31.07 1.84 C 21.18 1.01 10.72 -0.29 0.94 1.83 L 0.00 2.09 L 0.00 0.00 Z" />
</g>
<g id="#f7edd1ff">
<path fill="#f7edd1" opacity="1.00" d=" M 0.94 1.83 C 10.72 -0.29 21.18 1.01 31.07 1.84 C 31.05 4.54 31.03 7.24 31.00 9.94 L 30.05 10.08 C 30.03 9.52 30.00 8.40 29.99 7.84 C 29.99 6.30 30.03 4.75 29.83 3.22 C 28.60 1.30 26.03 2.22 24.13 1.98 C 19.45 1.98 14.77 1.95 10.09 2.00 C 8.68 1.98 7.27 1.98 5.87 2.00 C 4.51 1.96 2.21 1.89 2.24 3.79 C 2.16 5.61 1.98 9.25 1.90 11.07 L 1.00 10.92 C 0.97 7.89 0.97 4.86 0.94 1.83 Z" />
</g>
<g id="#647a9ce9">
<path fill="#647a9c" opacity="0.91" d=" M 0.00 2.09 L 0.94 1.83 C 0.97 4.86 0.97 7.89 1.00 10.92 C 1.10 16.98 0.64 23.09 1.39 29.11 C 1.50 29.60 1.71 30.56 1.82 31.05 L 2.02 32.00 L 0.00 32.00 L 0.00 2.09 Z" />
</g>
<g id="#f9d568ff">
<path fill="#f9d568" opacity="1.00" d=" M 2.24 3.79 C 2.21 1.89 4.51 1.96 5.87 2.00 C 6.04 3.74 6.24 5.48 6.61 7.19 C 6.38 7.71 5.92 8.75 5.69 9.27 C 4.49 7.47 3.51 5.54 2.24 3.79 Z" />
</g>
<g id="#f9dd8aff">
<path fill="#f9dd8a" opacity="1.00" d=" M 5.87 2.00 C 7.27 1.98 8.68 1.98 10.09 2.00 C 8.86 3.68 7.71 5.42 6.61 7.19 C 6.24 5.48 6.04 3.74 5.87 2.00 Z" />
</g>
<g id="#fcc927ff">
<path fill="#fcc927" opacity="1.00" d=" M 10.09 2.00 C 14.77 1.95 19.45 1.98 24.13 1.98 C 23.94 8.85 19.91 16.50 12.41 17.03 C 9.68 14.76 5.05 13.80 5.69 9.27 C 5.92 8.75 6.38 7.71 6.61 7.19 C 7.71 5.42 8.86 3.68 10.09 2.00 Z" />
</g>
<g id="#f6b72cff">
<path fill="#f6b72c" opacity="1.00" d=" M 24.13 1.98 C 26.03 2.22 28.60 1.30 29.83 3.22 C 30.03 4.75 29.99 6.30 29.99 7.84 C 27.98 10.20 25.41 12.53 25.71 15.90 C 24.19 21.62 15.48 21.46 11.86 17.75 L 12.41 17.03 C 19.91 16.50 23.94 8.85 24.13 1.98 Z" />
</g>
<g id="#677e9fed">
<path fill="#677e9f" opacity="0.93" d=" M 31.07 1.84 L 32.00 2.00 L 32.00 32.00 L 30.09 32.00 C 30.29 31.49 30.69 30.47 30.89 29.96 C 31.16 23.29 31.01 16.61 31.00 9.94 C 31.03 7.24 31.05 4.54 31.07 1.84 Z" />
</g>
<g id="#facd4aff">
<path fill="#facd4a" opacity="1.00" d=" M 2.24 3.79 C 3.51 5.54 4.49 7.47 5.69 9.27 C 5.05 13.80 9.68 14.76 12.41 17.03 L 11.86 17.75 C 11.60 18.08 11.06 18.73 10.80 19.06 C 8.58 16.52 5.44 15.09 2.95 12.85 C 2.68 12.41 2.16 11.52 1.90 11.07 C 1.98 9.25 2.16 5.61 2.24 3.79 Z" />
</g>
<g id="#f5b849ff">
<path fill="#f5b849" opacity="1.00" d=" M 25.71 15.90 C 25.41 12.53 27.98 10.20 29.99 7.84 C 30.00 8.40 30.03 9.52 30.05 10.08 C 29.76 10.92 29.46 11.75 29.14 12.58 C 27.84 16.19 26.58 20.00 23.05 22.05 C 20.30 22.10 17.56 22.14 14.82 22.18 C 13.32 21.37 11.91 20.37 10.80 19.06 C 11.06 18.73 11.60 18.08 11.86 17.75 C 15.48 21.46 24.19 21.62 25.71 15.90 Z" />
</g>
<g id="#f5f1e9ff">
<path fill="#f5f1e9" opacity="1.00" d=" M 30.05 10.08 L 31.00 9.94 C 31.01 16.61 31.16 23.29 30.89 29.96 C 30.49 30.03 29.69 30.16 29.28 30.23 C 29.61 27.79 29.85 25.35 30.00 22.90 C 30.02 19.46 30.57 15.83 29.14 12.58 C 29.46 11.75 29.76 10.92 30.05 10.08 Z" />
</g>
<g id="#f5f5f7ff">
<path fill="#f5f5f7" opacity="1.00" d=" M 1.00 10.92 L 1.90 11.07 C 2.16 11.52 2.68 12.41 2.95 12.85 C 2.01 18.23 1.88 23.69 1.39 29.11 C 0.64 23.09 1.10 16.98 1.00 10.92 Z" />
</g>
<g id="#dbe3eeff">
<path fill="#dbe3ee" opacity="1.00" d=" M 2.95 12.85 C 5.44 15.09 8.58 16.52 10.80 19.06 C 11.91 20.37 13.32 21.37 14.82 22.18 C 17.17 23.09 20.92 23.92 23.05 22.05 C 26.58 20.00 27.84 16.19 29.14 12.58 C 30.57 15.83 30.02 19.46 30.00 22.90 C 25.72 21.91 22.19 26.26 24.92 30.02 C 17.87 30.06 10.74 29.55 3.75 30.79 C 3.27 30.86 2.30 30.98 1.82 31.05 C 1.71 30.56 1.50 29.60 1.39 29.11 C 1.88 23.69 2.01 18.23 2.95 12.85 Z" />
</g>
<g id="#f9f0e2ff">
<path fill="#f9f0e2" opacity="1.00" d=" M 14.82 22.18 C 17.56 22.14 20.30 22.10 23.05 22.05 C 20.92 23.92 17.17 23.09 14.82 22.18 Z" />
</g>
<g id="#f9c139ff">
<path fill="#f9c139" opacity="1.00" d=" M 24.92 30.02 C 22.19 26.26 25.72 21.91 30.00 22.90 C 29.85 25.35 29.61 27.79 29.28 30.23 C 27.83 30.16 26.38 30.09 24.92 30.02 Z" />
</g>
<g id="#f7f6f6ff">
<path fill="#f7f6f6" opacity="1.00" d=" M 3.75 30.79 C 10.74 29.55 17.87 30.06 24.92 30.02 C 26.38 30.09 27.83 30.16 29.28 30.23 C 20.84 31.53 12.26 31.10 3.75 30.79 Z" />
</g>
<g id="#6f87aafe">
<path fill="#6f87aa" opacity="1.00" d=" M 29.28 30.23 C 29.69 30.16 30.49 30.03 30.89 29.96 C 30.69 30.47 30.29 31.49 30.09 32.00 L 2.02 32.00 L 1.82 31.05 C 2.30 30.98 3.27 30.86 3.75 30.79 C 12.26 31.10 20.84 31.53 29.28 30.23 Z" />
</g>
</svg>
