<?xml version="1.0" encoding="UTF-8" ?>
<!DOCTYPE svg PUBLIC "-//W3C//DTD SVG 1.1//EN" "http://www.w3.org/Graphics/SVG/1.1/DTD/svg11.dtd">
<svg width="64pt" height="64pt" viewBox="0 0 64 64" version="1.1" xmlns="http://www.w3.org/2000/svg">
<g id="#4d4d4e89">
<path fill="#4d4d4e" opacity="0.54" d=" M 36.26 0.00 L 44.70 0.00 L 45.21 0.82 C 42.07 0.86 38.94 0.95 35.81 0.84 L 36.26 0.00 Z" />
</g>
<g id="#8a8a8cf6">
<path fill="#8a8a8c" opacity="0.96" d=" M 24.69 7.79 C 27.60 4.40 31.31 1.64 35.81 0.84 C 38.94 0.95 42.07 0.86 45.21 0.82 C 49.71 2.75 54.46 4.73 57.37 8.89 C 57.17 11.49 54.57 12.64 53.78 14.94 C 52.73 13.46 51.58 12.02 50.15 10.87 C 48.88 9.80 47.54 8.81 46.16 7.87 C 42.87 7.11 37.99 5.81 34.78 7.82 C 32.91 8.89 31.22 10.24 29.71 11.77 C 29.35 12.08 28.64 12.70 28.29 13.01 C 27.52 11.00 25.99 9.45 24.69 7.79 Z" />
</g>
<g id="#b9b9baf2">
<path fill="#b9b9ba" opacity="0.95" d=" M 34.78 7.82 C 37.99 5.81 42.87 7.11 46.16 7.87 C 42.37 7.92 38.58 8.01 34.78 7.82 Z" />
</g>
<g id="#7a7a7bf6">
<path fill="#7a7a7b" opacity="0.96" d=" M 20.62 13.76 C 21.55 11.51 22.87 9.43 24.69 7.79 C 25.99 9.45 27.52 11.00 28.29 13.01 C 25.22 16.69 24.74 21.40 24.92 26.04 C 24.18 21.66 24.57 16.72 20.62 13.76 Z" />
</g>
<g id="#e6e6e6fe">
<path fill="#e6e6e6" opacity="1.00" d=" M 29.71 11.77 C 31.22 10.24 32.91 8.89 34.78 7.82 C 38.58 8.01 42.37 7.92 46.16 7.87 C 47.54 8.81 48.88 9.80 50.15 10.87 C 50.18 11.38 50.23 12.38 50.26 12.88 C 48.50 21.54 35.51 23.27 30.25 16.78 C 29.94 15.12 29.86 13.44 29.71 11.77 Z" />
</g>
<g id="#6d6d6ff7">
<path fill="#6d6d6f" opacity="0.97" d=" M 57.37 8.89 C 58.94 11.36 60.08 14.08 61.30 16.74 C 61.18 19.44 61.06 22.15 60.95 24.86 C 59.28 25.46 57.64 26.15 56.01 26.85 C 55.82 23.87 56.66 20.62 55.24 17.85 C 54.79 16.86 54.31 15.89 53.78 14.94 C 54.57 12.64 57.17 11.49 57.37 8.89 Z" />
</g>
<g id="#c6c6c7fb">
<path fill="#c6c6c7" opacity="1.00" d=" M 50.15 10.87 C 51.58 12.02 52.73 13.46 53.78 14.94 C 54.31 15.89 54.79 16.86 55.24 17.85 L 55.07 19.01 C 53.35 17.06 51.65 15.08 50.26 12.88 C 50.23 12.38 50.18 11.38 50.15 10.87 Z" />
</g>
<g id="#d5d5d6fd">
<path fill="#d5d5d6" opacity="1.00" d=" M 28.29 13.01 C 28.64 12.70 29.35 12.08 29.71 11.77 C 29.86 13.44 29.94 15.12 30.25 16.78 C 35.51 23.27 48.50 21.54 50.26 12.88 C 51.65 15.08 53.35 17.06 55.07 19.01 C 55.09 21.75 55.14 24.48 55.22 27.22 C 54.99 27.70 54.53 28.68 54.30 29.16 C 54.03 27.72 54.04 26.09 52.77 25.10 C 44.27 24.93 35.75 24.75 27.26 25.19 C 26.80 25.70 25.89 26.73 25.44 27.24 C 25.31 26.94 25.05 26.34 24.92 26.04 C 24.74 21.40 25.22 16.69 28.29 13.01 Z" />
</g>
<g id="#6a6a6cfb">
<path fill="#6a6a6c" opacity="1.00" d=" M 19.72 15.73 C 19.94 15.24 20.39 14.25 20.62 13.76 C 24.57 16.72 24.18 21.66 24.92 26.04 C 25.05 26.34 25.31 26.94 25.44 27.24 C 26.01 28.81 26.56 30.38 27.09 31.97 C 24.80 29.86 23.01 27.16 20.07 25.85 C 20.01 22.47 19.98 19.10 19.72 15.73 Z" />
</g>
<g id="#454547b0">
<path fill="#454547" opacity="0.69" d=" M 18.85 17.79 C 19.06 17.28 19.50 16.25 19.72 15.73 C 19.98 19.10 20.01 22.47 20.07 25.85 C 19.98 26.70 19.79 28.41 19.70 29.27 C 19.46 28.76 18.98 27.75 18.74 27.24 C 18.79 24.09 18.87 20.94 18.85 17.79 Z" />
</g>
<g id="#3a3a3c9c">
<path fill="#3a3a3c" opacity="0.61" d=" M 61.30 16.74 C 62.88 20.27 61.89 24.62 61.24 28.23 C 61.17 27.39 61.02 25.70 60.95 24.86 C 61.06 22.15 61.18 19.44 61.30 16.74 Z" />
</g>
<g id="#1717183f">
<path fill="#171718" opacity="0.25" d=" M 18.74 27.24 C 17.29 24.34 18.07 20.75 18.85 17.79 C 18.87 20.94 18.79 24.09 18.74 27.24 Z" />
</g>
<g id="#a8a8a9f8">
<path fill="#a8a8a9" opacity="0.97" d=" M 55.24 17.85 C 56.66 20.62 55.82 23.87 56.01 26.85 L 55.22 27.22 C 55.14 24.48 55.09 21.75 55.07 19.01 L 55.24 17.85 Z" />
</g>
<g id="#e0e0e0ff">
<path fill="#e0e0e0" opacity="1.00" d=" M 27.26 25.19 C 35.75 24.75 44.27 24.93 52.77 25.10 C 54.04 26.09 54.03 27.72 54.30 29.16 C 52.60 33.38 49.24 36.39 45.19 38.17 C 42.04 38.17 38.90 38.12 35.75 38.23 C 32.27 37.17 29.80 34.24 27.09 31.97 C 26.56 30.38 26.01 28.81 25.44 27.24 C 25.89 26.73 26.80 25.70 27.26 25.19 Z" />
</g>
<g id="#5b5b5df5">
<path fill="#5b5b5d" opacity="0.96" d=" M 56.01 26.85 C 57.64 26.15 59.28 25.46 60.95 24.86 C 61.02 25.70 61.17 27.39 61.24 28.23 C 58.97 35.52 53.58 41.79 46.23 44.23 C 42.40 44.10 38.56 43.94 34.74 44.25 C 27.79 41.64 22.02 36.49 19.70 29.27 C 19.79 28.41 19.98 26.70 20.07 25.85 C 23.01 27.16 24.80 29.86 27.09 31.97 C 29.80 34.24 32.27 37.17 35.75 38.23 C 38.71 38.74 42.37 39.88 45.19 38.17 C 49.24 36.39 52.60 33.38 54.30 29.16 C 54.53 28.68 54.99 27.70 55.22 27.22 L 56.01 26.85 Z" />
</g>
<g id="#727274f1">
<path fill="#727274" opacity="0.95" d=" M 18.30 37.21 C 22.75 36.62 25.23 42.31 27.74 45.20 C 27.28 47.77 25.01 49.43 23.26 51.16 C 20.55 52.83 18.11 54.91 16.73 57.83 C 14.72 59.59 13.08 61.70 11.75 64.00 L 9.30 64.00 C 7.20 60.69 1.33 58.63 2.26 54.31 C 7.58 48.58 13.62 43.52 18.30 37.21 Z" />
</g>
<g id="#a5a5a6f8">
<path fill="#a5a5a6" opacity="0.97" d=" M 35.75 38.23 C 38.90 38.12 42.04 38.17 45.19 38.17 C 42.37 39.88 38.71 38.74 35.75 38.23 Z" />
</g>
<g id="#31313396">
<path fill="#313133" opacity="0.59" d=" M 34.74 44.25 C 38.56 43.94 42.40 44.10 46.23 44.23 C 45.71 44.47 44.66 44.93 44.14 45.16 C 42.32 45.19 38.67 45.25 36.85 45.28 C 36.32 45.03 35.27 44.51 34.74 44.25 Z" />
</g>
<g id="#0c0c0d29">
<path fill="#0c0c0d" opacity="0.16" d=" M 36.85 45.28 C 38.67 45.25 42.32 45.19 44.14 45.16 C 42.44 47.47 39.02 46.73 36.85 45.28 Z" />
</g>
<g id="#3232338e">
<path fill="#323233" opacity="0.56" d=" M 16.73 57.83 C 18.11 54.91 20.55 52.83 23.26 51.16 C 21.91 54.10 19.44 56.17 16.73 57.83 Z" />
</g>
</svg>
