<?xml version="1.0" encoding="UTF-8" ?>
<!DOCTYPE svg PUBLIC "-//W3C//DTD SVG 1.1//EN" "http://www.w3.org/Graphics/SVG/1.1/DTD/svg11.dtd">
<svg width="256pt" height="256pt" viewBox="0 0 256 256" version="1.1" xmlns="http://www.w3.org/2000/svg">
<g id="#00b498db">
<path fill="#00b498" opacity="0.86" d=" M 29.70 30.66 C 35.16 23.18 43.95 18.34 53.17 17.60 C 65.19 16.49 76.89 20.94 87.16 26.80 C 117.57 44.36 148.00 61.89 178.40 79.46 C 188.66 85.49 198.41 93.58 203.28 104.72 C 205.69 110.07 206.56 116.07 205.94 121.90 C 205.78 122.97 205.59 124.03 205.37 125.09 C 205.26 123.41 205.50 121.15 203.55 120.44 C 181.32 107.71 159.17 94.84 136.95 82.08 C 128.83 77.43 119.47 73.82 109.95 75.13 C 101.47 76.01 94.18 82.10 90.58 89.65 C 86.76 97.51 86.03 106.43 86.21 115.05 C 86.38 146.47 85.96 177.91 86.41 209.33 L 86.42 209.59 C 75.73 215.52 63.43 219.96 51.04 218.08 C 41.11 216.74 32.22 210.36 27.29 201.70 C 21.66 192.18 20.06 180.89 20.03 169.99 C 20.03 134.97 20.00 99.96 20.05 64.94 C 20.14 52.98 22.37 40.42 29.70 30.66 Z" />
</g>
<g id="#00c9a7f2">
<path fill="#00c9a7" opacity="0.95" d=" M 90.58 89.65 C 94.18 82.10 101.47 76.01 109.95 75.13 C 119.47 73.82 128.83 77.43 136.95 82.08 C 159.17 94.84 181.32 107.71 203.55 120.44 C 205.50 121.15 205.26 123.41 205.37 125.09 C 202.99 134.97 196.39 143.31 188.55 149.54 C 181.74 155.01 173.92 158.99 166.42 163.41 C 144.85 175.86 123.27 188.32 101.69 200.76 C 96.59 203.59 91.68 206.80 86.41 209.33 C 85.96 177.91 86.38 146.47 86.21 115.05 C 86.03 106.43 86.76 97.51 90.58 89.65 Z" />
</g>
<g id="#009a6aa8">
<path fill="#009a6a" opacity="0.66" d=" M 205.94 121.90 C 216.22 128.03 227.89 133.03 235.10 143.04 C 239.99 149.57 242.00 158.42 239.29 166.25 C 236.12 175.79 228.08 182.71 219.63 187.62 C 194.90 201.95 170.13 216.18 145.39 230.48 C 137.04 235.26 128.69 240.78 118.96 242.15 C 110.99 243.50 102.22 241.54 96.36 235.77 C 89.38 229.03 86.74 219.02 86.42 209.59 L 86.41 209.33 C 91.68 206.80 96.59 203.59 101.69 200.76 C 123.27 188.32 144.85 175.86 166.42 163.41 C 173.92 158.99 181.74 155.01 188.55 149.54 C 196.39 143.31 202.99 134.97 205.37 125.09 C 205.59 124.03 205.78 122.97 205.94 121.90 Z" />
</g>
</svg>
