<?xml version="1.0" encoding="UTF-8" ?>
<!DOCTYPE svg PUBLIC "-//W3C//DTD SVG 1.1//EN" "http://www.w3.org/Graphics/SVG/1.1/DTD/svg11.dtd">
<svg width="72pt" height="72pt" viewBox="0 0 72 72" version="1.1" xmlns="http://www.w3.org/2000/svg">
<g id="#eaeaeaff">
<path fill="#eaeaea" opacity="1.00" d=" M 0.00 0.00 L 72.00 0.00 L 72.00 72.00 L 0.00 72.00 L 0.00 0.00 M 52.97 13.38 C 52.97 14.67 52.98 15.95 52.98 17.24 C 51.43 17.40 49.88 17.57 48.34 17.74 C 48.07 17.28 47.54 16.35 47.28 15.89 C 46.76 16.26 45.73 17.00 45.21 17.36 C 44.82 15.29 43.44 13.89 41.53 13.10 C 42.07 14.41 42.61 15.72 43.13 17.03 C 41.58 17.08 39.90 16.88 38.54 17.83 C 43.37 17.86 48.18 18.10 53.01 18.25 C 52.99 19.03 52.97 20.60 52.96 21.38 C 51.35 21.37 49.74 21.36 48.14 21.34 C 48.12 21.63 48.08 22.20 48.06 22.49 C 50.28 22.31 52.50 22.18 54.72 22.07 C 52.36 24.01 49.96 25.91 47.57 27.81 C 47.42 27.37 47.13 26.47 46.99 26.02 C 44.73 26.90 42.32 26.82 40.00 26.28 C 40.05 29.33 40.04 32.38 40.36 35.41 C 41.17 34.35 41.95 33.26 42.68 32.14 C 44.28 32.65 45.71 33.55 47.09 34.48 C 47.06 32.47 47.05 30.47 47.05 28.46 C 47.83 28.22 49.40 27.72 50.18 27.48 C 50.15 30.10 50.10 32.72 50.08 35.34 C 52.89 32.72 57.27 32.74 60.15 35.22 C 60.09 31.80 60.25 28.38 60.45 24.97 C 58.16 24.72 55.86 25.01 53.58 25.12 C 54.68 24.14 55.79 23.18 56.91 22.23 C 58.95 22.13 61.25 22.58 62.99 21.17 C 61.21 20.61 59.41 20.98 57.64 21.26 C 59.14 19.54 60.63 17.81 62.11 16.09 C 60.70 14.36 59.30 15.00 58.55 16.98 C 56.99 16.50 56.21 16.75 56.22 17.74 C 56.58 17.89 57.31 18.17 57.67 18.32 C 56.84 19.50 55.92 20.61 54.96 21.69 C 54.09 19.18 54.56 16.61 55.07 14.08 C 54.55 13.90 53.49 13.56 52.97 13.38 M 32.99 14.25 C 26.48 16.33 19.45 14.63 12.71 15.10 L 12.74 16.17 C 15.90 15.95 19.08 15.86 22.25 15.85 C 21.73 17.41 21.19 18.97 20.62 20.51 C 19.16 20.25 17.70 19.98 16.24 19.69 C 16.44 24.76 16.43 29.85 16.28 34.92 C 16.71 34.96 17.59 35.04 18.02 35.08 C 18.06 34.54 18.15 33.47 18.19 32.93 C 21.76 32.90 25.33 32.89 28.90 32.87 C 28.96 33.56 29.08 34.94 29.15 35.64 C 29.54 35.21 30.32 34.35 30.71 33.92 C 31.12 29.19 30.42 24.42 31.14 19.70 C 28.14 19.92 25.14 20.12 22.14 20.31 C 23.06 18.85 23.98 17.40 24.89 15.94 C 28.24 16.01 31.59 16.04 34.93 15.99 C 34.29 15.41 33.64 14.83 32.99 14.25 M 39.39 20.74 C 42.22 20.99 45.07 20.91 47.90 20.81 C 45.73 18.31 42.09 20.34 39.39 20.74 M 40.39 23.48 C 41.84 24.67 45.09 24.20 46.98 23.65 C 45.79 22.07 42.22 22.82 40.39 23.48 M 20.98 36.78 C 21.82 38.13 22.67 39.47 23.53 40.81 C 20.43 40.84 17.31 40.82 14.28 40.12 C 13.79 41.58 13.30 43.04 12.86 44.51 C 14.36 43.95 15.43 42.79 16.43 41.59 C 21.14 41.59 25.95 41.12 30.59 42.19 L 31.37 43.62 C 32.69 42.87 34.00 42.10 35.28 41.28 C 33.83 39.93 32.19 39.49 31.04 41.49 C 29.25 41.34 27.47 41.16 25.70 40.96 C 24.99 38.71 23.13 37.46 20.98 36.78 M 41.91 38.98 L 41.81 40.02 C 46.66 39.72 51.51 39.88 56.36 39.96 C 54.81 41.31 53.21 42.59 51.61 43.87 C 51.20 43.67 50.38 43.27 49.98 43.07 C 49.97 44.42 49.97 45.77 49.97 47.11 C 46.19 47.16 42.40 46.89 38.63 47.27 C 42.29 48.52 46.23 47.71 50.01 47.89 C 50.02 50.85 50.01 53.80 49.99 56.76 C 48.45 56.60 46.91 56.45 45.37 56.29 C 46.83 57.43 48.30 58.54 49.79 59.65 C 50.35 59.22 51.48 58.38 52.05 57.95 C 52.03 54.60 52.02 51.25 52.03 47.90 C 55.65 47.92 59.26 48.04 62.88 47.95 C 61.80 47.43 61.00 45.03 59.54 46.23 C 57.11 47.51 54.32 47.13 51.70 47.05 C 52.90 42.87 57.40 41.62 60.86 39.89 C 60.35 39.49 59.32 38.67 58.81 38.27 C 53.33 39.95 47.54 38.84 41.91 38.98 M 15.96 44.01 L 15.87 44.96 C 17.64 44.89 19.41 44.85 21.19 44.82 C 18.57 47.08 15.46 48.61 12.44 50.23 C 16.09 49.65 19.34 47.82 22.79 46.61 C 20.58 50.59 15.97 51.86 12.45 54.31 C 16.85 53.61 20.55 51.07 24.31 48.88 C 22.15 54.32 15.88 55.75 11.35 58.57 C 16.41 57.76 20.91 55.19 25.04 52.28 C 24.71 53.88 24.32 55.47 23.88 57.05 C 22.37 57.07 20.85 57.06 19.34 57.02 C 20.65 57.96 21.95 58.89 23.25 59.85 C 27.75 58.20 26.63 53.06 25.93 49.39 C 24.63 48.18 23.35 46.95 22.09 45.69 C 25.01 44.49 28.17 44.77 31.25 44.67 C 30.86 44.28 30.09 43.49 29.70 43.09 C 25.25 44.54 20.55 43.82 15.96 44.01 M 25.96 48.29 C 27.80 51.48 29.63 54.73 32.31 57.32 C 33.33 56.68 34.37 56.06 35.41 55.46 C 31.74 54.81 29.42 51.87 27.55 48.91 C 29.02 48.38 30.49 47.88 31.96 47.37 C 30.40 44.42 27.85 47.42 25.96 48.29 Z" />
<path fill="#eaeaea" opacity="1.00" d=" M 18.13 20.99 C 21.74 21.07 25.36 20.86 28.97 20.70 C 28.97 22.51 28.97 24.31 28.97 26.12 C 25.36 26.12 21.75 26.12 18.14 26.11 C 18.14 24.40 18.13 22.70 18.13 20.99 Z" />
<path fill="#eaeaea" opacity="1.00" d=" M 52.00 26.03 C 54.18 25.89 56.37 25.80 58.56 25.76 C 58.53 26.59 58.48 28.26 58.45 29.09 C 56.34 29.13 54.22 29.16 52.10 29.20 C 52.08 28.41 52.03 26.82 52.00 26.03 Z" />
<path fill="#eaeaea" opacity="1.00" d=" M 18.14 26.87 C 21.75 26.86 25.36 26.87 28.97 26.86 C 28.97 28.62 28.97 30.37 28.97 32.13 C 25.36 32.13 21.75 32.15 18.14 32.17 C 18.14 30.40 18.14 28.64 18.14 26.87 Z" />
<path fill="#eaeaea" opacity="1.00" d=" M 42.03 27.52 C 42.87 27.56 44.56 27.65 45.41 27.69 C 45.41 28.67 45.40 30.62 45.39 31.60 C 44.55 31.62 42.87 31.66 42.03 31.68 C 42.03 30.64 42.03 28.56 42.03 27.52 Z" />
<path fill="#eaeaea" opacity="1.00" d=" M 52.03 29.87 C 54.20 29.85 56.37 29.82 58.54 29.81 C 58.53 30.53 58.49 31.96 58.48 32.68 C 56.33 32.69 54.18 32.70 52.03 32.71 C 52.03 32.00 52.03 30.58 52.03 29.87 Z" />
</g>
<g id="#565656ff">
<path fill="#565656" opacity="1.00" d=" M 52.97 13.38 C 53.49 13.56 54.55 13.90 55.07 14.08 C 54.56 16.61 54.09 19.18 54.96 21.69 C 55.92 20.61 56.84 19.50 57.67 18.32 C 57.31 18.17 56.58 17.89 56.22 17.74 C 56.21 16.75 56.99 16.50 58.55 16.98 C 59.30 15.00 60.70 14.36 62.11 16.09 C 60.63 17.81 59.14 19.54 57.64 21.26 C 59.41 20.98 61.21 20.61 62.99 21.17 C 61.25 22.58 58.95 22.13 56.91 22.23 C 55.79 23.18 54.68 24.14 53.58 25.12 C 55.86 25.01 58.16 24.72 60.45 24.97 C 60.25 28.38 60.09 31.80 60.15 35.22 C 57.27 32.74 52.89 32.72 50.08 35.34 C 50.10 32.72 50.15 30.10 50.18 27.48 C 49.40 27.72 47.83 28.22 47.05 28.46 C 47.05 30.47 47.06 32.47 47.09 34.48 C 45.71 33.55 44.28 32.65 42.68 32.14 C 41.95 33.26 41.17 34.35 40.36 35.41 C 40.04 32.38 40.05 29.33 40.00 26.28 C 42.32 26.82 44.73 26.90 46.99 26.02 C 47.13 26.47 47.42 27.37 47.57 27.81 C 49.96 25.91 52.36 24.01 54.72 22.07 C 52.50 22.18 50.28 22.31 48.06 22.49 C 48.08 22.20 48.12 21.63 48.14 21.34 C 49.74 21.36 51.35 21.37 52.96 21.38 C 52.97 20.60 52.99 19.03 53.01 18.25 C 48.18 18.10 43.37 17.86 38.54 17.83 C 39.90 16.88 41.58 17.08 43.13 17.03 C 42.61 15.72 42.07 14.41 41.53 13.10 C 43.44 13.89 44.82 15.29 45.21 17.36 C 45.73 17.00 46.76 16.26 47.28 15.89 C 47.54 16.35 48.07 17.28 48.34 17.74 C 49.88 17.57 51.43 17.40 52.98 17.24 C 52.98 15.95 52.97 14.67 52.97 13.38 M 52.00 26.03 C 52.03 26.82 52.08 28.41 52.10 29.20 C 54.22 29.16 56.34 29.13 58.45 29.09 C 58.48 28.26 58.53 26.59 58.56 25.76 C 56.37 25.80 54.18 25.89 52.00 26.03 M 42.03 27.52 C 42.03 28.56 42.03 30.64 42.03 31.68 C 42.87 31.66 44.55 31.62 45.39 31.60 C 45.40 30.62 45.41 28.67 45.41 27.69 C 44.56 27.65 42.87 27.56 42.03 27.52 M 52.03 29.87 C 52.03 30.58 52.03 32.00 52.03 32.71 C 54.18 32.70 56.33 32.69 58.48 32.68 C 58.49 31.96 58.53 30.53 58.54 29.81 C 56.37 29.82 54.20 29.85 52.03 29.87 Z" />
<path fill="#565656" opacity="1.00" d=" M 32.99 14.25 C 33.64 14.83 34.29 15.41 34.93 15.99 C 31.59 16.04 28.24 16.01 24.89 15.94 C 23.98 17.40 23.06 18.85 22.14 20.31 C 25.14 20.12 28.14 19.92 31.14 19.70 C 30.42 24.42 31.12 29.19 30.71 33.92 C 30.32 34.35 29.54 35.21 29.15 35.64 C 29.08 34.94 28.96 33.56 28.90 32.87 C 25.33 32.89 21.76 32.90 18.19 32.93 C 18.15 33.47 18.06 34.54 18.02 35.08 C 17.59 35.04 16.71 34.96 16.28 34.92 C 16.43 29.85 16.44 24.76 16.24 19.69 C 17.70 19.98 19.16 20.25 20.62 20.51 C 21.19 18.97 21.73 17.41 22.25 15.85 C 19.08 15.86 15.90 15.95 12.74 16.17 L 12.71 15.10 C 19.45 14.63 26.48 16.33 32.99 14.25 M 18.13 20.99 C 18.13 22.70 18.14 24.40 18.14 26.11 C 21.75 26.12 25.36 26.12 28.97 26.12 C 28.97 24.31 28.97 22.51 28.97 20.70 C 25.36 20.86 21.74 21.07 18.13 20.99 M 18.14 26.87 C 18.14 28.64 18.14 30.40 18.14 32.17 C 21.75 32.15 25.36 32.13 28.97 32.13 C 28.97 30.37 28.97 28.62 28.97 26.86 C 25.36 26.87 21.75 26.86 18.14 26.87 Z" />
<path fill="#565656" opacity="1.00" d=" M 39.39 20.74 C 42.09 20.34 45.73 18.31 47.90 20.81 C 45.07 20.91 42.22 20.99 39.39 20.74 Z" />
<path fill="#565656" opacity="1.00" d=" M 40.39 23.48 C 42.22 22.82 45.79 22.07 46.98 23.65 C 45.09 24.20 41.84 24.67 40.39 23.48 Z" />
<path fill="#565656" opacity="1.00" d=" M 20.98 36.78 C 23.13 37.46 24.99 38.71 25.70 40.96 C 27.47 41.16 29.25 41.34 31.04 41.49 C 32.19 39.49 33.83 39.93 35.28 41.28 C 34.00 42.10 32.69 42.87 31.37 43.62 L 30.59 42.19 C 25.95 41.12 21.14 41.59 16.43 41.59 C 15.43 42.79 14.36 43.95 12.86 44.51 C 13.30 43.04 13.79 41.58 14.28 40.12 C 17.31 40.82 20.43 40.84 23.53 40.81 C 22.67 39.47 21.82 38.13 20.98 36.78 Z" />
<path fill="#565656" opacity="1.00" d=" M 41.91 38.98 C 47.54 38.84 53.33 39.95 58.81 38.27 C 59.32 38.67 60.35 39.49 60.86 39.89 C 57.40 41.62 52.90 42.87 51.70 47.05 C 54.32 47.13 57.11 47.51 59.54 46.23 C 61.00 45.03 61.80 47.43 62.88 47.95 C 59.26 48.04 55.65 47.92 52.03 47.90 C 52.02 51.25 52.03 54.60 52.05 57.95 C 51.48 58.38 50.35 59.22 49.79 59.65 C 48.30 58.54 46.83 57.43 45.37 56.29 C 46.91 56.45 48.45 56.60 49.99 56.76 C 50.01 53.80 50.02 50.85 50.01 47.89 C 46.23 47.71 42.29 48.52 38.63 47.27 C 42.40 46.89 46.19 47.16 49.97 47.11 C 49.97 45.77 49.97 44.42 49.98 43.07 C 50.38 43.27 51.20 43.67 51.61 43.87 C 53.21 42.59 54.81 41.31 56.36 39.96 C 51.51 39.88 46.66 39.72 41.81 40.02 L 41.91 38.98 Z" />
<path fill="#565656" opacity="1.00" d=" M 15.96 44.01 C 20.55 43.82 25.25 44.54 29.70 43.09 C 30.09 43.49 30.86 44.28 31.25 44.67 C 28.17 44.77 25.01 44.49 22.09 45.69 C 23.35 46.95 24.63 48.18 25.93 49.39 C 26.63 53.06 27.75 58.20 23.25 59.85 C 21.95 58.89 20.65 57.96 19.34 57.02 C 20.85 57.06 22.37 57.07 23.88 57.05 C 24.32 55.47 24.71 53.88 25.04 52.28 C 20.91 55.19 16.41 57.76 11.35 58.57 C 15.88 55.75 22.15 54.32 24.31 48.88 C 20.55 51.07 16.85 53.61 12.45 54.31 C 15.97 51.86 20.58 50.59 22.79 46.61 C 19.34 47.82 16.09 49.65 12.44 50.23 C 15.46 48.61 18.57 47.08 21.19 44.82 C 19.41 44.85 17.64 44.89 15.87 44.96 L 15.96 44.01 Z" />
<path fill="#565656" opacity="1.00" d=" M 25.96 48.29 C 27.85 47.42 30.40 44.42 31.96 47.37 C 30.49 47.88 29.02 48.38 27.55 48.91 C 29.42 51.87 31.74 54.81 35.41 55.46 C 34.37 56.06 33.33 56.68 32.31 57.32 C 29.63 54.73 27.80 51.48 25.96 48.29 Z" />
</g>
</svg>
