<?xml version="1.0" encoding="UTF-8" ?>
<!DOCTYPE svg PUBLIC "-//W3C//DTD SVG 1.1//EN" "http://www.w3.org/Graphics/SVG/1.1/DTD/svg11.dtd">
<svg width="32pt" height="32pt" viewBox="0 0 32 32" version="1.1" xmlns="http://www.w3.org/2000/svg">
<g id="#2e75b6ff">
<path fill="#2e75b6" opacity="1.00" d=" M 0.00 14.37 C 1.06 6.97 7.32 0.47 14.99 0.26 C 23.70 -0.47 31.84 7.27 31.58 16.00 C 31.90 25.12 23.02 33.06 13.98 31.71 C 6.70 31.02 1.04 24.70 0.00 17.64 L 0.00 14.37 M 7.11 9.15 C 3.99 11.63 3.57 16.43 5.21 19.86 C 7.56 24.88 16.93 23.96 16.96 17.87 C 14.33 18.82 12.39 22.28 9.28 20.94 C 5.46 18.88 5.46 12.14 9.28 10.07 C 12.05 9.19 14.19 11.66 16.59 12.53 C 16.34 7.96 10.26 6.83 7.11 9.15 M 24.44 8.31 C 24.65 12.60 24.70 16.91 24.21 21.18 C 22.07 20.80 19.96 20.29 17.82 19.93 C 18.89 23.63 25.17 24.39 26.45 20.57 C 27.04 16.48 26.61 12.33 26.67 8.21 C 26.11 8.24 24.99 8.28 24.44 8.31 Z" />
</g>
<g id="#ffffffff">
<path fill="#ffffff" opacity="1.00" d=" M 7.11 9.15 C 10.26 6.83 16.34 7.96 16.59 12.53 C 14.19 11.66 12.05 9.19 9.28 10.07 C 5.46 12.14 5.46 18.88 9.28 20.94 C 12.39 22.28 14.33 18.82 16.96 17.87 C 16.93 23.96 7.56 24.88 5.21 19.86 C 3.57 16.43 3.99 11.63 7.11 9.15 Z" />
<path fill="#ffffff" opacity="1.00" d=" M 24.44 8.31 C 24.99 8.28 26.11 8.24 26.67 8.21 C 26.61 12.33 27.04 16.48 26.45 20.57 C 25.17 24.39 18.89 23.63 17.82 19.93 C 19.96 20.29 22.07 20.80 24.21 21.18 C 24.70 16.91 24.65 12.60 24.44 8.31 Z" />
</g>
</svg>
