<?xml version="1.0" encoding="UTF-8" ?>
<!DOCTYPE svg PUBLIC "-//W3C//DTD SVG 1.1//EN" "http://www.w3.org/Graphics/SVG/1.1/DTD/svg11.dtd">
<svg width="144pt" height="144pt" viewBox="0 0 144 144" version="1.1" xmlns="http://www.w3.org/2000/svg">
<g id="#00e8a3ff">
<path fill="#00e8a3" opacity="1.00" d=" M 68.57 15.85 C 70.57 15.79 72.58 15.76 74.59 15.73 C 79.07 30.64 89.38 43.28 101.98 52.20 C 112.50 59.71 124.47 65.32 137.03 68.39 C 137.04 70.54 137.03 72.69 136.93 74.84 C 118.70 79.81 101.88 89.93 88.94 103.70 C 82.79 110.36 77.73 118.04 74.49 126.52 C 72.78 127.26 70.75 126.73 68.93 126.90 C 65.35 117.29 59.54 108.66 52.50 101.24 C 40.03 88.70 24.35 78.94 7.06 74.79 C 6.99 72.81 6.96 70.84 6.91 68.86 C 22.81 64.30 38.45 57.14 50.20 45.21 C 58.67 37.22 65.36 27.09 68.57 15.85 Z" />
</g>
</svg>
