<?xml version="1.0" encoding="UTF-8" ?>
<!DOCTYPE svg PUBLIC "-//W3C//DTD SVG 1.1//EN" "http://www.w3.org/Graphics/SVG/1.1/DTD/svg11.dtd">
<svg width="400pt" height="400pt" viewBox="0 0 400 400" version="1.1" xmlns="http://www.w3.org/2000/svg">
<g id="#fefefeff">
<path fill="#fefefe" opacity="1.00" d=" M 0.00 0.00 L 400.00 0.00 L 400.00 400.00 L 0.00 400.00 L 0.00 0.00 M 172.22 102.11 C 169.81 109.12 170.75 116.71 170.56 124.00 C 170.73 137.54 165.15 150.41 165.50 163.97 C 165.75 174.86 165.24 185.83 162.76 196.46 C 161.65 201.15 161.17 206.26 157.93 210.10 C 155.25 205.15 157.10 199.31 155.93 193.99 C 155.21 182.01 155.79 169.97 155.51 157.97 C 155.79 150.36 154.25 142.86 154.47 135.25 C 153.95 128.16 153.11 121.09 152.54 114.01 C 152.20 109.89 153.63 104.95 150.38 101.65 C 149.18 99.92 146.85 100.43 145.05 100.30 C 135.39 100.60 125.72 100.34 116.06 100.38 C 114.44 100.18 113.06 101.04 112.62 102.62 C 111.67 108.63 113.77 114.52 114.83 120.37 C 116.11 126.16 116.55 132.08 117.23 137.96 C 117.91 145.86 116.61 153.94 118.60 161.71 C 120.96 171.29 122.68 181.11 122.50 191.00 C 122.25 200.70 123.77 210.31 124.52 219.96 C 124.89 224.82 126.39 229.51 126.86 234.35 C 128.17 241.85 126.89 249.51 128.06 257.01 C 128.73 261.11 128.23 265.30 128.87 269.40 C 129.83 274.22 131.61 278.90 131.57 283.88 C 131.59 287.31 132.72 290.61 134.55 293.49 C 146.34 293.45 158.13 293.40 169.92 293.48 C 173.49 293.67 176.80 290.98 177.27 287.42 C 177.95 281.66 177.03 275.81 177.79 270.05 C 178.31 266.56 179.65 263.28 180.67 259.92 C 183.53 249.17 182.05 237.96 182.86 227.00 C 184.07 220.20 182.74 213.17 184.76 206.49 C 186.50 200.46 186.49 194.18 187.22 188.00 C 188.04 180.60 186.37 172.91 188.76 165.71 C 189.63 165.60 190.51 165.49 191.38 165.39 C 192.91 170.47 192.22 175.79 192.78 180.99 C 193.99 188.18 192.58 195.65 195.02 202.66 C 197.60 210.45 195.75 218.71 197.03 226.67 C 197.62 230.76 197.37 234.90 197.53 239.02 C 198.19 248.51 199.62 257.92 201.21 267.30 C 201.41 273.59 202.63 279.82 202.28 286.13 C 202.06 288.91 202.78 292.11 205.62 293.28 C 210.39 293.93 215.21 293.32 219.96 292.72 C 225.55 292.48 231.22 292.31 236.77 293.21 C 239.24 293.44 241.81 293.89 244.25 293.22 C 248.29 289.53 249.39 283.85 250.49 278.73 C 252.18 271.72 251.24 264.45 252.28 257.36 C 252.39 249.96 256.24 243.35 256.91 236.05 C 257.64 231.73 257.38 227.33 257.51 222.97 C 257.66 215.68 259.32 208.55 261.14 201.53 C 262.14 190.68 262.37 179.70 264.69 169.02 C 266.23 162.47 267.51 155.80 267.45 149.05 C 267.32 143.48 268.37 137.99 269.17 132.50 C 269.95 127.06 272.58 121.98 272.47 116.40 C 272.50 111.28 275.23 105.58 272.08 100.88 C 269.17 98.46 265.35 100.37 262.04 100.37 C 254.87 100.50 247.65 100.81 240.55 99.61 C 237.74 98.86 234.29 100.97 234.50 104.05 C 234.34 110.47 234.93 116.95 233.73 123.31 C 233.14 131.62 230.83 139.69 230.39 148.01 C 228.45 162.92 230.22 178.03 229.16 193.00 C 228.34 197.05 229.26 201.48 227.08 205.18 C 225.89 203.77 224.61 202.33 224.22 200.48 C 222.08 192.77 222.10 184.69 220.98 176.80 C 220.04 170.84 220.89 164.77 220.11 158.79 C 218.91 150.73 219.94 142.56 219.21 134.47 C 218.73 131.34 218.47 128.19 218.41 125.03 C 218.29 120.29 216.53 115.76 216.50 111.01 C 216.39 107.97 216.52 104.73 214.97 102.00 C 212.23 99.08 207.94 99.38 204.31 99.67 C 197.10 100.72 189.71 100.88 182.50 99.73 C 179.01 99.28 174.79 99.39 172.22 102.11 M 18.38 101.25 C 15.73 103.38 16.60 107.05 16.47 109.99 C 16.76 169.34 16.31 228.70 16.42 288.05 C 16.19 290.54 18.39 292.95 20.96 292.52 C 34.65 292.43 48.34 292.45 62.03 292.48 C 68.51 292.56 74.64 290.15 81.01 289.29 C 85.37 288.72 88.75 285.71 92.58 283.82 C 99.54 280.38 103.64 273.32 106.63 266.46 C 107.68 264.12 107.52 261.50 107.56 259.01 C 107.42 216.33 107.28 173.65 107.41 130.97 C 107.54 128.35 106.93 125.73 105.47 123.54 C 102.66 119.12 100.05 114.42 95.98 111.01 C 92.65 107.89 88.20 106.56 84.18 104.63 C 78.53 101.93 72.19 101.29 66.04 100.59 C 51.69 100.45 37.32 100.69 22.97 100.48 C 21.48 100.72 19.52 100.01 18.38 101.25 M 277.38 105.93 C 277.51 111.97 277.28 118.02 277.42 124.06 C 277.32 126.67 280.29 128.83 282.76 128.14 C 287.99 127.39 293.33 127.34 298.60 127.72 C 300.80 128.17 303.94 129.22 303.43 132.06 C 303.38 158.39 303.35 184.72 303.44 211.05 C 303.45 215.06 302.30 218.97 302.42 222.99 C 302.45 241.66 302.45 260.34 302.44 279.02 C 302.60 282.16 301.00 285.41 302.40 288.43 C 303.25 290.75 305.24 293.39 307.99 293.12 C 317.05 291.64 326.26 292.97 335.36 292.45 C 338.24 291.55 342.30 289.71 341.65 286.03 C 341.43 264.35 341.61 242.66 341.54 220.97 C 341.61 217.29 340.66 213.69 340.57 210.02 C 340.60 184.01 340.62 157.99 340.56 131.97 C 340.61 129.76 342.93 128.11 345.06 128.39 C 358.53 128.58 372.00 128.71 385.47 128.46 C 385.54 119.79 385.56 111.13 385.49 102.46 C 381.26 100.48 376.49 101.57 372.00 101.38 C 341.65 101.33 311.29 101.51 280.93 101.28 C 278.43 100.97 277.08 103.78 277.38 105.93 Z" />
<path fill="#fefefe" opacity="1.00" d=" M 56.42 128.41 C 62.23 125.70 68.53 131.54 69.41 137.09 C 69.46 162.38 69.44 187.68 69.42 212.96 C 67.79 224.23 68.74 235.65 68.52 246.99 C 68.26 251.24 69.57 256.09 66.78 259.76 C 65.20 261.71 63.95 264.96 60.94 264.67 C 58.41 265.12 55.13 263.85 55.37 260.81 C 55.42 248.54 55.47 236.26 55.48 223.99 C 55.53 220.30 54.53 216.70 54.51 213.02 C 54.49 185.75 54.60 158.47 54.45 131.20 C 54.15 129.79 55.16 128.79 56.42 128.41 Z" />
</g>
<g id="#b05a67ff">
<path fill="#b05a67" opacity="1.00" d=" M 172.22 102.11 C 174.79 99.39 179.01 99.28 182.50 99.73 C 189.71 100.88 197.10 100.72 204.31 99.67 C 207.94 99.38 212.23 99.08 214.97 102.00 C 216.52 104.73 216.39 107.97 216.50 111.01 C 216.53 115.76 218.29 120.29 218.41 125.03 C 218.47 128.19 218.73 131.34 219.21 134.47 C 219.94 142.56 218.91 150.73 220.11 158.79 C 220.89 164.77 220.04 170.84 220.98 176.80 C 222.10 184.69 222.08 192.77 224.22 200.48 C 224.61 202.33 225.89 203.77 227.08 205.18 C 229.26 201.48 228.34 197.05 229.16 193.00 C 230.22 178.03 228.45 162.92 230.39 148.01 C 230.83 139.69 233.14 131.62 233.73 123.31 C 234.93 116.95 234.34 110.47 234.50 104.05 C 234.29 100.97 237.74 98.86 240.55 99.61 C 247.65 100.81 254.87 100.50 262.04 100.37 C 265.35 100.37 269.17 98.46 272.08 100.88 C 275.23 105.58 272.50 111.28 272.47 116.40 C 272.58 121.98 269.95 127.06 269.17 132.50 C 268.37 137.99 267.32 143.48 267.45 149.05 C 267.51 155.80 266.23 162.47 264.69 169.02 C 262.37 179.70 262.14 190.68 261.14 201.53 C 259.32 208.55 257.66 215.68 257.51 222.97 C 257.38 227.33 257.64 231.73 256.91 236.05 C 256.24 243.35 252.39 249.96 252.28 257.36 C 251.24 264.45 252.18 271.72 250.49 278.73 C 249.39 283.85 248.29 289.53 244.25 293.22 C 241.81 293.89 239.24 293.44 236.77 293.21 C 231.22 292.31 225.55 292.48 219.96 292.72 C 215.21 293.32 210.39 293.93 205.62 293.28 C 202.78 292.11 202.06 288.91 202.28 286.13 C 202.63 279.82 201.41 273.59 201.21 267.30 C 199.62 257.92 198.19 248.51 197.53 239.02 C 197.37 234.90 197.62 230.76 197.03 226.67 C 195.75 218.71 197.60 210.45 195.02 202.66 C 192.58 195.65 193.99 188.18 192.78 180.99 C 192.22 175.79 192.91 170.47 191.38 165.39 C 190.51 165.49 189.63 165.60 188.76 165.71 C 186.37 172.91 188.04 180.60 187.22 188.00 C 186.49 194.18 186.50 200.46 184.76 206.49 C 182.74 213.17 184.07 220.20 182.86 227.00 C 182.05 237.96 183.53 249.17 180.67 259.92 C 179.65 263.28 178.31 266.56 177.79 270.05 C 177.03 275.81 177.95 281.66 177.27 287.42 C 176.80 290.98 173.49 293.67 169.92 293.48 C 158.13 293.40 146.34 293.45 134.55 293.49 C 132.72 290.61 131.59 287.31 131.57 283.88 C 131.61 278.90 129.83 274.22 128.87 269.40 C 128.23 265.30 128.73 261.11 128.06 257.01 C 126.89 249.51 128.17 241.85 126.86 234.35 C 126.39 229.51 124.89 224.82 124.52 219.96 C 123.77 210.31 122.25 200.70 122.50 191.00 C 122.68 181.11 120.96 171.29 118.60 161.71 C 116.61 153.94 117.91 145.86 117.23 137.96 C 116.55 132.08 116.11 126.16 114.83 120.37 C 113.77 114.52 111.67 108.63 112.62 102.62 C 113.06 101.04 114.44 100.18 116.06 100.38 C 125.72 100.34 135.39 100.60 145.05 100.30 C 146.85 100.43 149.18 99.92 150.38 101.65 C 153.63 104.95 152.20 109.89 152.54 114.01 C 153.11 121.09 153.95 128.16 154.47 135.25 C 154.25 142.86 155.79 150.36 155.51 157.97 C 155.79 169.97 155.21 182.01 155.93 193.99 C 157.10 199.31 155.25 205.15 157.93 210.10 C 161.17 206.26 161.65 201.15 162.76 196.46 C 165.24 185.83 165.75 174.86 165.50 163.97 C 165.15 150.41 170.73 137.54 170.56 124.00 C 170.75 116.71 169.81 109.12 172.22 102.11 M 114.48 102.59 C 114.29 104.72 114.41 106.89 115.29 108.87 C 118.79 117.54 117.84 127.08 118.89 136.18 C 119.44 140.45 119.27 144.76 119.35 149.06 C 119.46 155.26 122.63 160.89 123.07 167.05 C 123.54 174.70 124.67 182.33 124.28 190.01 C 123.99 196.54 125.68 202.91 127.84 209.01 C 129.04 213.27 127.03 217.66 127.72 222.00 C 128.92 231.66 128.86 241.42 129.63 251.12 C 130.32 259.30 132.21 267.32 133.31 275.45 C 134.08 280.74 132.65 286.68 136.06 291.28 C 147.03 287.85 158.72 289.48 169.95 290.28 C 172.80 290.18 175.72 287.94 175.62 284.90 C 176.11 275.46 175.77 265.91 177.92 256.64 C 179.65 249.20 181.16 241.66 181.29 233.99 C 181.94 220.98 179.70 207.53 184.10 194.96 C 187.06 186.64 185.72 177.68 186.27 169.04 C 186.49 166.12 186.46 162.52 189.10 160.63 C 191.58 160.23 194.25 162.43 194.12 164.99 C 194.04 169.47 193.46 174.00 194.52 178.42 C 197.34 189.86 196.50 201.85 199.26 213.27 C 197.16 228.55 200.75 243.77 202.51 258.89 C 202.92 268.35 203.99 277.82 203.67 287.30 C 204.76 288.73 205.94 290.45 208.00 290.27 C 218.54 290.32 229.13 289.43 239.66 290.44 C 241.05 290.43 242.70 290.90 243.87 289.90 C 246.56 287.77 246.46 284.03 247.00 280.97 C 247.55 275.54 249.94 270.48 250.20 265.00 C 250.75 256.15 250.42 247.03 253.63 238.60 C 257.31 229.48 254.89 219.54 255.85 210.04 C 256.31 205.02 258.31 200.32 259.13 195.36 C 260.71 183.16 260.34 170.67 263.42 158.68 C 266.51 144.40 265.67 129.56 269.11 115.33 C 270.07 111.13 272.11 107.04 271.53 102.63 C 265.70 102.03 259.85 102.45 254.01 102.40 C 248.20 102.46 242.39 102.04 236.59 102.59 C 236.20 106.38 236.23 110.20 236.38 114.00 C 236.64 119.68 235.38 125.28 235.36 130.95 C 235.39 140.04 233.03 148.89 232.01 157.87 C 231.00 164.53 231.39 171.28 231.35 177.99 C 231.38 189.67 231.06 201.36 230.78 213.04 C 230.76 215.89 229.10 220.76 225.43 219.47 C 222.34 218.26 219.47 215.42 219.39 211.93 C 219.13 206.29 219.56 200.64 219.11 195.01 C 218.61 189.60 219.34 184.08 218.07 178.75 C 218.18 167.68 217.22 156.62 216.30 145.59 C 215.16 137.76 213.20 130.01 213.22 122.04 C 212.47 115.82 213.95 109.51 212.60 103.35 C 207.74 102.60 202.90 104.06 198.02 103.84 C 190.70 104.19 183.41 103.15 176.10 103.37 C 175.37 104.59 174.31 105.70 174.07 107.14 C 172.38 119.03 173.02 131.07 171.81 142.99 C 171.84 148.62 171.42 154.28 169.44 159.60 C 166.71 167.35 168.51 175.67 166.86 183.59 C 166.01 189.69 166.63 195.93 165.29 201.99 C 164.13 206.84 165.46 212.76 161.67 216.64 C 160.56 218.11 158.69 218.33 157.00 218.53 C 155.78 216.20 154.73 213.71 154.70 211.03 C 154.26 201.64 155.27 192.20 154.07 182.84 C 153.07 174.70 154.18 166.48 153.38 158.32 C 152.59 151.24 152.63 144.10 151.51 137.05 C 150.57 131.01 150.81 124.88 150.07 118.82 C 149.44 113.93 149.72 108.99 149.70 104.08 L 148.66 104.11 L 148.69 103.00 L 147.60 103.15 L 148.37 102.48 C 137.08 102.34 125.76 102.16 114.48 102.59 Z" />
<path fill="#b05a67" opacity="1.00" d=" M 18.38 101.25 C 19.52 100.01 21.48 100.72 22.97 100.48 C 37.32 100.69 51.69 100.45 66.04 100.59 C 72.19 101.29 78.53 101.93 84.18 104.63 C 88.20 106.56 92.65 107.89 95.98 111.01 C 100.05 114.42 102.66 119.12 105.47 123.54 C 106.93 125.73 107.54 128.35 107.41 130.97 C 107.28 173.65 107.42 216.33 107.56 259.01 C 107.52 261.50 107.68 264.12 106.63 266.46 C 103.64 273.32 99.54 280.38 92.58 283.82 C 88.75 285.71 85.37 288.72 81.01 289.29 C 74.64 290.15 68.51 292.56 62.03 292.48 C 48.34 292.45 34.65 292.43 20.96 292.52 C 18.39 292.95 16.19 290.54 16.42 288.05 C 16.31 228.70 16.76 169.34 16.47 109.99 C 16.60 107.05 15.73 103.38 18.38 101.25 M 17.99 104.21 C 18.29 107.11 19.50 109.76 21.32 112.01 C 23.66 111.29 25.82 110.13 28.00 109.04 C 30.76 107.58 33.98 107.88 37.00 107.83 C 44.01 108.00 51.01 107.82 58.02 107.89 C 63.01 107.94 67.95 109.10 72.95 108.82 C 74.40 108.94 75.41 107.87 76.43 107.02 C 73.43 104.77 69.68 104.17 66.02 104.26 C 55.35 104.33 44.67 104.36 34.00 104.35 C 28.66 104.34 23.32 103.53 17.99 104.21 M 77.63 109.94 C 80.41 112.09 83.90 112.71 87.10 113.94 C 89.63 115.24 91.75 117.23 93.88 119.09 C 96.48 121.30 96.56 126.18 100.79 126.09 C 100.76 123.00 101.38 119.34 99.07 116.87 C 96.77 114.51 94.04 112.63 91.40 110.67 C 87.58 107.69 81.70 107.17 77.63 109.94 M 56.42 128.41 C 55.16 128.79 54.15 129.79 54.45 131.20 C 54.60 158.47 54.49 185.75 54.51 213.02 C 54.53 216.70 55.53 220.30 55.48 223.99 C 55.47 236.26 55.42 248.54 55.37 260.81 C 55.13 263.85 58.41 265.12 60.94 264.67 C 63.95 264.96 65.20 261.71 66.78 259.76 C 69.57 256.09 68.26 251.24 68.52 246.99 C 68.74 235.65 67.79 224.23 69.42 212.96 C 69.44 187.68 69.46 162.38 69.41 137.09 C 68.53 131.54 62.23 125.70 56.42 128.41 M 48.18 129.23 C 46.87 133.37 47.25 137.73 47.27 142.00 C 47.36 162.98 47.22 183.97 47.32 204.95 C 47.06 207.16 48.88 208.49 50.77 209.05 C 52.21 204.16 51.60 199.02 51.65 194.00 C 51.67 175.32 51.61 156.64 51.69 137.96 C 51.71 135.05 51.28 132.17 50.67 129.33 C 50.04 129.31 48.80 129.26 48.18 129.23 M 71.14 222.01 C 71.11 233.71 71.58 245.42 71.07 257.11 C 71.25 261.17 67.47 263.42 64.76 265.71 C 62.21 267.98 58.37 267.84 55.33 266.78 C 52.39 265.42 52.76 261.70 52.61 259.02 C 52.72 246.66 52.63 234.31 52.73 221.95 C 52.88 219.26 52.12 216.63 50.25 214.66 C 46.89 217.01 43.25 219.66 38.93 219.46 C 32.36 219.18 25.84 217.42 19.23 218.13 C 18.20 223.37 18.69 228.71 18.65 234.00 C 18.66 247.67 18.62 261.34 18.69 275.01 C 18.75 279.56 17.64 284.09 18.37 288.62 C 22.87 289.73 27.42 288.29 31.96 288.35 C 43.63 288.37 55.31 288.34 66.99 288.42 C 70.09 288.45 73.18 288.02 76.20 287.33 C 80.57 287.46 84.43 285.33 88.17 283.36 C 97.22 280.07 102.32 270.76 104.58 261.92 C 105.08 248.15 103.95 234.32 105.19 220.57 C 104.50 218.94 104.56 216.65 102.90 215.66 C 99.22 216.05 95.75 217.60 92.03 217.78 C 88.35 217.98 84.65 217.95 80.97 217.73 C 77.96 217.78 75.91 215.30 73.72 213.64 C 71.51 215.85 71.18 219.05 71.14 222.01 Z" />
<path fill="#b05a67" opacity="1.00" d=" M 277.38 105.93 C 277.08 103.78 278.43 100.97 280.93 101.28 C 311.29 101.51 341.65 101.33 372.00 101.38 C 376.49 101.57 381.26 100.48 385.49 102.46 C 385.56 111.13 385.54 119.79 385.47 128.46 C 372.00 128.71 358.53 128.58 345.06 128.39 C 342.93 128.11 340.61 129.76 340.56 131.97 C 340.62 157.99 340.60 184.01 340.57 210.02 C 340.66 213.69 341.61 217.29 341.54 220.97 C 341.61 242.66 341.43 264.35 341.65 286.03 C 342.30 289.71 338.24 291.55 335.36 292.45 C 326.26 292.97 317.05 291.64 307.99 293.12 C 305.24 293.39 303.25 290.75 302.40 288.43 C 301.00 285.41 302.60 282.16 302.44 279.02 C 302.45 260.34 302.45 241.66 302.42 222.99 C 302.30 218.97 303.45 215.06 303.44 211.05 C 303.35 184.72 303.38 158.39 303.43 132.06 C 303.94 129.22 300.80 128.17 298.60 127.72 C 293.33 127.34 287.99 127.39 282.76 128.14 C 280.29 128.83 277.32 126.67 277.42 124.06 C 277.28 118.02 277.51 111.97 277.38 105.93 M 279.41 103.28 C 279.10 106.60 279.54 109.90 279.78 113.20 C 280.07 117.49 278.23 121.97 280.16 126.07 C 283.35 125.39 285.94 123.39 288.13 121.07 C 286.29 118.56 281.70 116.24 283.54 112.64 C 285.16 108.51 290.10 107.92 293.96 107.87 C 318.65 107.91 343.35 107.93 368.04 107.87 C 371.93 107.89 376.70 108.59 378.67 112.44 C 380.37 116.43 376.89 121.20 372.82 121.85 C 366.60 122.80 360.30 121.63 354.05 122.17 C 352.54 122.05 351.51 123.14 350.48 124.05 C 353.86 126.42 358.14 125.60 362.01 125.70 C 368.67 125.44 375.36 125.62 381.95 126.71 C 382.98 123.91 382.72 120.89 382.68 117.97 C 382.56 113.01 382.85 108.05 382.70 103.09 C 378.12 103.44 373.60 104.32 369.00 104.37 C 343.67 104.31 318.33 104.32 292.99 104.37 C 288.43 104.32 283.97 103.11 279.41 103.28 M 332.18 126.87 C 330.60 130.73 331.26 134.95 331.22 139.00 C 331.35 156.33 331.18 173.67 331.30 191.00 C 331.46 197.17 330.30 203.34 331.39 209.48 C 331.74 212.73 330.41 218.16 326.21 217.56 C 320.99 216.99 315.81 218.00 310.60 217.78 C 309.93 214.88 308.59 211.97 309.17 208.95 C 309.58 206.31 310.19 203.70 310.23 201.03 C 310.15 180.35 310.12 159.68 310.24 139.00 C 310.08 135.43 311.17 131.09 308.12 128.41 C 307.64 128.87 306.68 129.80 306.20 130.27 C 305.87 156.84 306.10 183.44 306.11 210.02 C 305.74 214.02 304.29 217.88 304.32 221.94 C 304.39 243.32 304.39 264.70 304.30 286.08 C 304.00 288.28 305.41 291.09 308.01 290.53 C 316.06 289.37 324.28 289.04 332.34 290.36 C 335.14 290.90 337.48 288.96 339.71 287.59 C 339.53 283.05 338.56 278.56 338.60 274.00 C 338.72 256.99 338.60 239.97 338.69 222.95 C 338.90 218.86 336.32 215.48 335.32 211.68 C 336.07 185.47 335.39 159.19 335.72 132.95 C 336.08 130.25 335.06 127.51 332.18 126.87 Z" />
</g>
<g id="#8d434fff">
<path fill="#8d434f" opacity="1.00" d=" M 114.48 102.59 C 125.76 102.16 137.08 102.34 148.37 102.48 L 147.60 103.15 C 143.10 103.81 138.56 104.27 134.02 104.44 C 127.70 104.76 121.42 102.79 115.13 104.01 C 117.02 108.13 119.50 112.24 119.40 116.93 C 119.36 123.62 119.32 130.32 119.94 136.99 C 120.46 141.88 119.52 147.14 121.98 151.63 C 123.51 149.78 123.85 147.40 123.75 145.08 C 123.60 136.38 124.00 127.64 122.90 118.98 C 122.55 115.14 122.20 110.24 125.72 107.68 C 130.94 106.76 136.43 107.36 141.61 108.29 C 144.32 110.24 144.49 113.98 144.71 117.03 C 144.81 126.14 144.74 135.35 146.54 144.33 C 147.29 142.67 147.93 140.93 147.91 139.08 C 148.23 127.43 147.98 115.76 148.66 104.11 L 149.70 104.08 C 149.72 108.99 149.44 113.93 150.07 118.82 C 150.81 124.88 150.57 131.01 151.51 137.05 C 152.63 144.10 152.59 151.24 153.38 158.32 C 154.18 166.48 153.07 174.70 154.07 182.84 C 155.27 192.20 154.26 201.64 154.70 211.03 C 154.73 213.71 155.78 216.20 157.00 218.53 C 158.69 218.33 160.56 218.11 161.67 216.64 C 165.46 212.76 164.13 206.84 165.29 201.99 C 166.63 195.93 166.01 189.69 166.86 183.59 C 168.51 175.67 166.71 167.35 169.44 159.60 C 171.42 154.28 171.84 148.62 171.81 142.99 C 173.02 131.07 172.38 119.03 174.07 107.14 C 174.31 105.70 175.37 104.59 176.10 103.37 C 176.36 105.94 176.71 108.51 177.21 111.04 C 181.74 109.68 186.12 107.43 190.97 107.56 C 195.86 107.61 200.84 107.17 205.67 108.17 C 208.24 110.68 208.12 114.62 208.35 117.95 C 208.43 125.60 208.62 133.27 209.46 140.88 C 210.10 146.37 213.07 151.34 213.18 156.94 C 213.52 170.09 213.07 183.25 213.59 196.40 C 213.70 200.42 214.21 204.42 215.17 208.33 C 217.98 207.64 217.68 204.34 217.92 202.10 C 218.10 194.32 217.40 186.53 218.07 178.75 C 219.34 184.08 218.61 189.60 219.11 195.01 C 219.56 200.64 219.13 206.29 219.39 211.93 C 219.47 215.42 222.34 218.26 225.43 219.47 C 229.10 220.76 230.76 215.89 230.78 213.04 C 231.06 201.36 231.38 189.67 231.35 177.99 C 231.39 171.28 231.00 164.53 232.01 157.87 C 233.03 148.89 235.39 140.04 235.36 130.95 C 235.38 125.28 236.64 119.68 236.38 114.00 C 236.23 110.20 236.20 106.38 236.59 102.59 C 242.39 102.04 248.20 102.46 254.01 102.40 C 259.85 102.45 265.70 102.03 271.53 102.63 C 272.11 107.04 270.07 111.13 269.11 115.33 C 265.67 129.56 266.51 144.40 263.42 158.68 C 260.34 170.67 260.71 183.16 259.13 195.36 C 258.31 200.32 256.31 205.02 255.85 210.04 C 254.89 219.54 257.31 229.48 253.63 238.60 C 250.42 247.03 250.75 256.15 250.20 265.00 C 249.94 270.48 247.55 275.54 247.00 280.97 C 246.46 284.03 246.56 287.77 243.87 289.90 C 242.70 290.90 241.05 290.43 239.66 290.44 C 229.13 289.43 218.54 290.32 208.00 290.27 C 205.94 290.45 204.76 288.73 203.67 287.30 C 205.83 288.27 208.12 289.20 210.55 288.85 C 220.44 288.03 230.39 288.12 240.28 288.89 C 241.55 288.78 243.14 289.21 244.16 288.21 C 245.44 285.17 245.35 281.79 245.91 278.59 C 246.53 273.94 248.71 269.67 249.19 265.00 C 250.19 255.50 249.43 245.66 252.65 236.52 C 254.96 229.29 256.40 221.17 253.49 213.90 C 250.36 215.73 247.28 218.06 243.58 218.52 C 240.02 218.65 236.55 217.64 233.09 216.91 C 230.97 218.89 228.75 220.79 226.76 222.90 C 222.59 221.34 219.57 217.97 216.12 215.32 C 213.84 216.42 211.55 217.64 209.02 218.09 C 205.41 218.01 203.14 214.23 203.24 210.90 C 203.27 203.14 203.26 195.35 202.14 187.65 C 201.84 185.85 201.01 184.20 200.25 182.56 C 196.94 192.59 200.22 203.05 199.26 213.27 C 196.50 201.85 197.34 189.86 194.52 178.42 C 193.46 174.00 194.04 169.47 194.12 164.99 C 194.25 162.43 191.58 160.23 189.10 160.63 C 186.46 162.52 186.49 166.12 186.27 169.04 C 185.72 177.68 187.06 186.64 184.10 194.96 C 179.70 207.53 181.94 220.98 181.29 233.99 C 181.16 241.66 179.65 249.20 177.92 256.64 C 175.77 265.91 176.11 275.46 175.62 284.90 C 175.72 287.94 172.80 290.18 169.95 290.28 C 158.72 289.48 147.03 287.85 136.06 291.28 C 132.65 286.68 134.08 280.74 133.31 275.45 C 132.21 267.32 130.32 259.30 129.63 251.12 C 128.86 241.42 128.92 231.66 127.72 222.00 C 127.03 217.66 129.04 213.27 127.84 209.01 C 125.68 202.91 123.99 196.54 124.28 190.01 C 124.67 182.33 123.54 174.70 123.07 167.05 C 122.63 160.89 119.46 155.26 119.35 149.06 C 119.27 144.76 119.44 140.45 118.89 136.18 C 117.84 127.08 118.79 117.54 115.29 108.87 C 114.41 106.89 114.29 104.72 114.48 102.59 M 237.45 103.37 C 236.95 110.57 237.60 117.79 237.23 124.99 C 237.43 132.08 236.27 139.35 238.12 146.29 C 239.79 144.53 240.41 142.14 240.52 139.78 C 241.01 131.52 240.42 123.23 240.77 114.97 C 240.84 112.15 242.25 108.83 245.34 108.29 C 249.72 107.54 254.21 107.08 258.66 107.22 C 261.63 108.09 262.04 111.83 262.38 114.44 C 262.74 124.02 260.66 133.55 261.35 143.13 C 263.36 142.52 264.21 140.59 264.35 138.64 C 265.19 131.45 266.11 124.23 266.06 116.98 C 265.85 111.98 271.05 108.65 270.63 103.60 C 265.05 102.78 259.57 104.48 254.01 104.47 C 248.45 104.70 243.00 103.26 237.45 103.37 M 125.03 160.00 C 123.45 167.26 125.09 174.67 125.11 181.99 C 125.33 187.23 124.39 192.81 126.92 197.66 C 130.12 195.03 128.98 190.59 129.06 186.99 C 128.32 176.91 130.03 166.47 126.83 156.69 C 126.11 157.72 125.26 158.73 125.03 160.00 M 149.58 179.97 C 149.59 186.98 149.69 193.99 149.57 201.00 C 149.67 203.93 149.21 207.50 151.96 209.43 C 154.61 203.30 152.96 196.46 153.20 190.00 C 152.72 184.74 154.13 178.83 150.98 174.18 C 150.13 176.00 149.49 177.93 149.58 179.97 M 178.25 212.70 C 177.03 214.67 175.77 216.63 174.52 218.58 C 172.41 218.36 170.29 218.01 168.16 218.13 C 163.66 219.27 161.99 224.72 157.54 225.87 C 155.75 222.03 154.37 217.99 152.06 214.41 C 150.31 215.75 148.83 217.60 146.72 218.38 C 143.39 218.95 139.99 219.40 136.61 219.21 C 134.61 217.65 133.35 215.36 131.81 213.39 C 127.93 216.30 128.43 221.58 129.04 225.83 C 130.38 234.19 128.78 242.74 130.61 251.05 C 132.13 258.04 134.00 264.99 134.42 272.18 C 135.11 277.89 133.57 283.93 136.04 289.36 C 139.64 288.54 143.21 287.26 146.95 287.38 C 153.66 287.52 160.42 287.03 167.06 288.20 C 169.76 288.58 174.01 289.09 174.66 285.50 C 175.44 274.89 175.02 264.16 176.98 253.66 C 177.73 250.10 178.90 246.65 179.47 243.05 C 180.84 235.45 180.31 227.70 180.47 220.02 C 180.27 217.50 180.92 214.12 178.25 212.70 Z" />
<path fill="#8d434f" opacity="1.00" d=" M 279.41 103.28 C 283.97 103.11 288.43 104.32 292.99 104.37 C 318.33 104.32 343.67 104.31 369.00 104.37 C 373.60 104.32 378.12 103.44 382.70 103.09 C 382.85 108.05 382.56 113.01 382.68 117.97 C 382.72 120.89 382.98 123.91 381.95 126.71 C 375.36 125.62 368.67 125.44 362.01 125.70 C 358.14 125.60 353.86 126.42 350.48 124.05 C 351.51 123.14 352.54 122.05 354.05 122.17 C 360.30 121.63 366.60 122.80 372.82 121.85 C 376.89 121.20 380.37 116.43 378.67 112.44 C 376.70 108.59 371.93 107.89 368.04 107.87 C 343.35 107.93 318.65 107.91 293.96 107.87 C 290.10 107.92 285.16 108.51 283.54 112.64 C 281.70 116.24 286.29 118.56 288.13 121.07 C 285.94 123.39 283.35 125.39 280.16 126.07 C 278.23 121.97 280.07 117.49 279.78 113.20 C 279.54 109.90 279.10 106.60 279.41 103.28 Z" />
<path fill="#8d434f" opacity="1.00" d=" M 17.99 104.21 C 23.32 103.53 28.66 104.34 34.00 104.35 C 44.67 104.36 55.35 104.33 66.02 104.26 C 69.68 104.17 73.43 104.77 76.43 107.02 C 75.41 107.87 74.40 108.94 72.95 108.82 C 67.95 109.10 63.01 107.94 58.02 107.89 C 51.01 107.82 44.01 108.00 37.00 107.83 C 33.98 107.88 30.76 107.58 28.00 109.04 C 25.82 110.13 23.66 111.29 21.32 112.01 C 19.50 109.76 18.29 107.11 17.99 104.21 Z" />
<path fill="#8d434f" opacity="1.00" d=" M 77.63 109.94 C 81.70 107.17 87.58 107.69 91.40 110.67 C 94.04 112.63 96.77 114.51 99.07 116.87 C 101.38 119.34 100.76 123.00 100.79 126.09 C 96.56 126.18 96.48 121.30 93.88 119.09 C 91.75 117.23 89.63 115.24 87.10 113.94 C 83.90 112.71 80.41 112.09 77.63 109.94 Z" />
<path fill="#8d434f" opacity="1.00" d=" M 332.18 126.87 C 335.06 127.51 336.08 130.25 335.72 132.95 C 335.39 159.19 336.07 185.47 335.32 211.68 C 336.32 215.48 338.90 218.86 338.69 222.95 C 338.60 239.97 338.72 256.99 338.60 274.00 C 338.56 278.56 339.53 283.05 339.71 287.59 C 337.48 288.96 335.14 290.90 332.34 290.36 C 324.28 289.04 316.06 289.37 308.01 290.53 C 305.41 291.09 304.00 288.28 304.30 286.08 C 304.39 264.70 304.39 243.32 304.32 221.94 C 304.29 217.88 305.74 214.02 306.11 210.02 C 306.10 183.44 305.87 156.84 306.20 130.27 C 306.68 129.80 307.64 128.87 308.12 128.41 C 311.17 131.09 310.08 135.43 310.24 139.00 C 310.12 159.68 310.15 180.35 310.23 201.03 C 310.19 203.70 309.58 206.31 309.17 208.95 C 308.59 211.97 309.93 214.88 310.60 217.78 C 315.81 218.00 320.99 216.99 326.21 217.56 C 330.41 218.16 331.74 212.73 331.39 209.48 C 330.30 203.34 331.46 197.17 331.30 191.00 C 331.18 173.67 331.35 156.33 331.22 139.00 C 331.26 134.95 330.60 130.73 332.18 126.87 M 307.04 216.60 C 304.87 221.46 305.78 226.86 305.67 232.00 C 305.63 247.33 305.73 262.67 305.62 278.00 C 305.66 281.43 305.10 285.14 306.98 288.23 C 315.59 286.74 324.39 287.13 333.06 287.82 C 334.82 288.12 336.93 287.42 337.42 285.51 C 337.02 282.01 335.93 278.58 336.09 275.02 C 336.33 258.33 335.93 241.65 336.36 224.97 C 336.32 222.67 336.45 219.63 333.90 218.57 C 331.72 218.66 330.30 220.91 330.43 222.95 C 331.01 241.30 330.46 259.68 330.80 278.05 C 330.69 279.65 331.17 282.62 328.80 282.65 C 322.73 282.79 316.64 282.84 310.58 282.46 C 310.09 265.31 310.52 248.14 310.38 230.98 C 310.22 226.13 312.43 219.45 307.04 216.60 Z" />
<path fill="#8d434f" opacity="1.00" d=" M 48.18 129.23 C 48.80 129.26 50.04 129.31 50.67 129.33 C 51.28 132.17 51.71 135.05 51.69 137.96 C 51.61 156.64 51.67 175.32 51.65 194.00 C 51.60 199.02 52.21 204.16 50.77 209.05 C 48.88 208.49 47.06 207.16 47.32 204.95 C 47.22 183.97 47.36 162.98 47.27 142.00 C 47.25 137.73 46.87 133.37 48.18 129.23 Z" />
<path fill="#8d434f" opacity="1.00" d=" M 71.14 222.01 C 71.18 219.05 71.51 215.85 73.72 213.64 C 75.91 215.30 77.96 217.78 80.97 217.73 C 84.65 217.95 88.35 217.98 92.03 217.78 C 95.75 217.60 99.22 216.05 102.90 215.66 C 104.56 216.65 104.50 218.94 105.19 220.57 C 101.41 218.37 95.92 219.35 93.70 223.25 C 94.56 226.83 96.57 230.16 96.45 233.94 C 96.43 241.30 96.34 248.66 96.41 256.02 C 96.23 261.18 96.47 266.89 93.30 271.29 C 90.40 275.36 86.34 278.48 82.12 281.08 C 79.43 282.82 76.11 282.69 73.03 282.72 C 60.68 282.57 48.33 282.62 35.98 282.68 C 30.34 282.75 24.76 281.47 19.11 282.01 C 18.97 283.73 18.79 285.45 18.58 287.17 C 23.34 288.17 28.19 287.31 32.99 287.32 C 47.40 287.33 61.80 287.40 76.20 287.33 C 73.18 288.02 70.09 288.45 66.99 288.42 C 55.31 288.34 43.63 288.37 31.96 288.35 C 27.42 288.29 22.87 289.73 18.37 288.62 C 17.64 284.09 18.75 279.56 18.69 275.01 C 18.62 261.34 18.66 247.67 18.65 234.00 C 18.69 228.71 18.20 223.37 19.23 218.13 C 25.84 217.42 32.36 219.18 38.93 219.46 C 43.25 219.66 46.89 217.01 50.25 214.66 C 52.12 216.63 52.88 219.26 52.73 221.95 C 52.63 234.31 52.72 246.66 52.61 259.02 C 52.76 261.70 52.39 265.42 55.33 266.78 C 58.37 267.84 62.21 267.98 64.76 265.71 C 67.47 263.42 71.25 261.17 71.07 257.11 C 71.58 245.42 71.11 233.71 71.14 222.01 M 48.37 219.19 C 45.26 221.12 46.43 225.05 46.57 228.04 C 47.18 238.33 46.31 248.65 46.88 258.94 C 46.88 261.09 48.15 262.92 50.08 263.83 C 51.00 261.82 51.56 259.66 51.62 257.45 C 52.10 246.97 51.42 236.46 52.00 225.98 C 52.03 224.09 52.18 222.16 51.68 220.32 C 51.31 218.90 49.53 218.05 48.37 219.19 M 71.72 222.95 C 71.82 232.30 71.97 241.65 71.80 250.99 C 71.76 254.48 71.40 258.16 73.07 261.38 C 75.11 259.88 76.17 257.53 76.18 255.02 C 76.65 244.62 75.66 234.19 76.74 223.82 C 77.19 221.50 75.33 219.89 74.00 218.30 C 72.68 219.52 71.48 221.02 71.72 222.95 M 55.19 271.01 C 57.97 274.76 64.37 274.27 66.41 270.01 C 62.99 268.00 57.84 267.54 55.19 271.01 Z" />
</g>
<g id="#671f29ff">
<path fill="#671f29" opacity="1.00" d=" M 115.13 104.01 C 121.42 102.79 127.70 104.76 134.02 104.44 C 138.56 104.27 143.10 103.81 147.60 103.15 L 148.69 103.00 L 148.66 104.11 C 147.98 115.76 148.23 127.43 147.91 139.08 C 147.93 140.93 147.29 142.67 146.54 144.33 C 144.74 135.35 144.81 126.14 144.71 117.03 C 144.49 113.98 144.32 110.24 141.61 108.29 C 136.43 107.36 130.94 106.76 125.72 107.68 C 122.20 110.24 122.55 115.14 122.90 118.98 C 124.00 127.64 123.60 136.38 123.75 145.08 C 123.85 147.40 123.51 149.78 121.98 151.63 C 119.52 147.14 120.46 141.88 119.94 136.99 C 119.32 130.32 119.36 123.62 119.40 116.93 C 119.50 112.24 117.02 108.13 115.13 104.01 Z" />
<path fill="#671f29" opacity="1.00" d=" M 176.10 103.37 C 183.41 103.15 190.70 104.19 198.02 103.84 C 202.90 104.06 207.74 102.60 212.60 103.35 C 213.95 109.51 212.47 115.82 213.22 122.04 C 213.20 130.01 215.16 137.76 216.30 145.59 C 217.22 156.62 218.18 167.68 218.07 178.75 C 217.40 186.53 218.10 194.32 217.92 202.10 C 217.68 204.34 217.98 207.64 215.17 208.33 C 214.21 204.42 213.70 200.42 213.59 196.40 C 213.07 183.25 213.52 170.09 213.18 156.94 C 213.07 151.34 210.10 146.37 209.46 140.88 C 208.62 133.27 208.43 125.60 208.35 117.95 C 208.12 114.62 208.24 110.68 205.67 108.17 C 200.84 107.17 195.86 107.61 190.97 107.56 C 186.12 107.43 181.74 109.68 177.21 111.04 C 176.71 108.51 176.36 105.94 176.10 103.37 Z" />
<path fill="#671f29" opacity="1.00" d=" M 237.45 103.37 C 243.00 103.26 248.45 104.70 254.01 104.47 C 259.57 104.48 265.05 102.78 270.63 103.60 C 271.05 108.65 265.85 111.98 266.06 116.98 C 266.11 124.23 265.19 131.45 264.35 138.64 C 264.21 140.59 263.36 142.52 261.35 143.13 C 260.66 133.55 262.74 124.02 262.38 114.44 C 262.04 111.83 261.63 108.09 258.66 107.22 C 254.21 107.08 249.72 107.54 245.34 108.29 C 242.25 108.83 240.84 112.15 240.77 114.97 C 240.42 123.23 241.01 131.52 240.52 139.78 C 240.41 142.14 239.79 144.53 238.12 146.29 C 236.27 139.35 237.43 132.08 237.23 124.99 C 237.60 117.79 236.95 110.57 237.45 103.37 Z" />
<path fill="#671f29" opacity="1.00" d=" M 125.03 160.00 C 125.26 158.73 126.11 157.72 126.83 156.69 C 130.03 166.47 128.32 176.91 129.06 186.99 C 128.98 190.59 130.12 195.03 126.92 197.66 C 124.39 192.81 125.33 187.23 125.11 181.99 C 125.09 174.67 123.45 167.26 125.03 160.00 Z" />
<path fill="#671f29" opacity="1.00" d=" M 149.58 179.97 C 149.49 177.93 150.13 176.00 150.98 174.18 C 154.13 178.83 152.72 184.74 153.20 190.00 C 152.96 196.46 154.61 203.30 151.96 209.43 C 149.21 207.50 149.67 203.93 149.57 201.00 C 149.69 193.99 149.59 186.98 149.58 179.97 Z" />
<path fill="#671f29" opacity="1.00" d=" M 200.25 182.56 C 201.01 184.20 201.84 185.85 202.14 187.65 C 203.26 195.35 203.27 203.14 203.24 210.90 C 203.14 214.23 205.41 218.01 209.02 218.09 C 211.55 217.64 213.84 216.42 216.12 215.32 C 219.57 217.97 222.59 221.34 226.76 222.90 C 228.75 220.79 230.97 218.89 233.09 216.91 C 236.55 217.64 240.02 218.65 243.58 218.52 C 247.28 218.06 250.36 215.73 253.49 213.90 C 256.40 221.17 254.96 229.29 252.65 236.52 C 249.43 245.66 250.19 255.50 249.19 265.00 C 248.71 269.67 246.53 273.94 245.91 278.59 C 245.35 281.79 245.44 285.17 244.16 288.21 C 243.14 289.21 241.55 288.78 240.28 288.89 C 230.39 288.12 220.44 288.03 210.55 288.85 C 208.12 289.20 205.83 288.27 203.67 287.30 C 203.99 277.82 202.92 268.35 202.51 258.89 C 200.75 243.77 197.16 228.55 199.26 213.27 C 200.22 203.05 196.94 192.59 200.25 182.56 Z" />
<path fill="#671f29" opacity="1.00" d=" M 178.25 212.70 C 180.92 214.12 180.27 217.50 180.47 220.02 C 180.31 227.70 180.84 235.45 179.47 243.05 C 178.90 246.65 177.73 250.10 176.98 253.66 C 175.02 264.16 175.44 274.89 174.66 285.50 C 174.01 289.09 169.76 288.58 167.06 288.20 C 160.42 287.03 153.66 287.52 146.95 287.38 C 143.21 287.26 139.64 288.54 136.04 289.36 C 133.57 283.93 135.11 277.89 134.42 272.18 C 134.00 264.99 132.13 258.04 130.61 251.05 C 128.78 242.74 130.38 234.19 129.04 225.83 C 128.43 221.58 127.93 216.30 131.81 213.39 C 133.35 215.36 134.61 217.65 136.61 219.21 C 139.99 219.40 143.39 218.95 146.72 218.38 C 148.83 217.60 150.31 215.75 152.06 214.41 C 154.37 217.99 155.75 222.03 157.54 225.87 C 161.99 224.72 163.66 219.27 168.16 218.13 C 170.29 218.01 172.41 218.36 174.52 218.58 C 175.77 216.63 177.03 214.67 178.25 212.70 Z" />
<path fill="#671f29" opacity="1.00" d=" M 307.04 216.60 C 312.43 219.45 310.22 226.13 310.38 230.98 C 310.52 248.14 310.09 265.31 310.58 282.46 C 316.64 282.84 322.73 282.79 328.80 282.65 C 331.17 282.62 330.69 279.65 330.80 278.05 C 330.46 259.68 331.01 241.30 330.43 222.95 C 330.30 220.91 331.72 218.66 333.90 218.57 C 336.45 219.63 336.32 222.67 336.36 224.97 C 335.93 241.65 336.33 258.33 336.09 275.02 C 335.93 278.58 337.02 282.01 337.42 285.51 C 336.93 287.42 334.82 288.12 333.06 287.82 C 324.39 287.13 315.59 286.74 306.98 288.23 C 305.10 285.14 305.66 281.43 305.62 278.00 C 305.73 262.67 305.63 247.33 305.67 232.00 C 305.78 226.86 304.87 221.46 307.04 216.60 Z" />
<path fill="#671f29" opacity="1.00" d=" M 48.37 219.19 C 49.53 218.05 51.31 218.90 51.68 220.32 C 52.18 222.16 52.03 224.09 52.00 225.98 C 51.42 236.46 52.10 246.97 51.62 257.45 C 51.56 259.66 51.00 261.82 50.08 263.83 C 48.15 262.92 46.88 261.09 46.88 258.94 C 46.31 248.65 47.18 238.33 46.57 228.04 C 46.43 225.05 45.26 221.12 48.37 219.19 Z" />
<path fill="#671f29" opacity="1.00" d=" M 71.72 222.95 C 71.48 221.02 72.68 219.52 74.00 218.30 C 75.33 219.89 77.19 221.50 76.74 223.82 C 75.66 234.19 76.65 244.62 76.18 255.02 C 76.17 257.53 75.11 259.88 73.07 261.38 C 71.40 258.16 71.76 254.48 71.80 250.99 C 71.97 241.65 71.82 232.30 71.72 222.95 Z" />
<path fill="#671f29" opacity="1.00" d=" M 93.70 223.25 C 95.92 219.35 101.41 218.37 105.19 220.57 C 103.95 234.32 105.08 248.15 104.58 261.92 C 102.32 270.76 97.22 280.07 88.17 283.36 C 84.43 285.33 80.57 287.46 76.20 287.33 C 61.80 287.40 47.40 287.33 32.99 287.32 C 28.19 287.31 23.34 288.17 18.58 287.17 C 18.79 285.45 18.97 283.73 19.11 282.01 C 24.76 281.47 30.34 282.75 35.98 282.68 C 48.33 282.62 60.68 282.57 73.03 282.72 C 76.11 282.69 79.43 282.82 82.12 281.08 C 86.34 278.48 90.40 275.36 93.30 271.29 C 96.47 266.89 96.23 261.18 96.41 256.02 C 96.34 248.66 96.43 241.30 96.45 233.94 C 96.57 230.16 94.56 226.83 93.70 223.25 Z" />
<path fill="#671f29" opacity="1.00" d=" M 55.19 271.01 C 57.84 267.54 62.99 268.00 66.41 270.01 C 64.37 274.27 57.97 274.76 55.19 271.01 Z" />
</g>
</svg>
