<?xml version="1.0" encoding="UTF-8" ?>
<!DOCTYPE svg PUBLIC "-//W3C//DTD SVG 1.1//EN" "http://www.w3.org/Graphics/SVG/1.1/DTD/svg11.dtd">
<svg width="512pt" height="512pt" viewBox="0 0 512 512" version="1.1" xmlns="http://www.w3.org/2000/svg">
<g id="#f3f4f4ff">
<path fill="#f3f4f4" opacity="1.00" d=" M 0.00 0.00 L 512.00 0.00 L 512.00 512.00 L 0.00 512.00 L 0.00 0.00 M 251.40 104.83 C 244.27 105.21 237.14 104.93 230.01 105.00 C 190.31 104.99 150.62 105.02 110.92 104.98 C 108.69 104.96 105.39 105.27 105.24 108.17 C 104.67 113.45 104.98 118.78 104.99 124.08 C 105.11 126.04 104.99 128.95 107.40 129.57 C 111.53 130.44 115.81 129.92 120.00 130.01 C 152.01 130.01 184.02 129.96 216.03 130.03 C 215.96 132.79 215.97 135.54 216.02 138.30 C 180.71 138.67 145.38 138.31 110.06 138.47 C 107.15 138.03 104.19 140.65 105.21 143.66 C 105.88 146.75 109.54 146.32 111.96 146.49 C 143.97 146.40 175.99 146.46 208.00 146.45 C 212.59 146.36 217.26 146.93 221.78 145.98 C 223.52 145.63 223.76 143.45 223.91 142.00 C 224.18 136.99 224.13 131.96 223.96 126.94 C 223.88 125.23 223.63 122.89 221.61 122.42 C 217.47 121.55 213.19 122.08 209.00 121.99 C 177.00 121.99 144.99 122.04 112.99 121.97 C 113.00 118.99 113.00 116.01 112.99 113.03 C 159.31 112.98 205.64 112.97 251.96 113.04 C 252.08 120.69 251.93 128.35 252.07 136.01 C 252.00 138.17 252.19 140.42 251.49 142.50 C 249.13 145.76 245.94 148.29 243.22 151.23 C 241.63 152.63 240.23 154.72 237.94 154.87 C 233.97 155.26 229.98 154.98 226.00 155.00 C 187.64 154.98 149.28 155.02 110.92 154.98 C 108.69 154.95 105.38 155.27 105.24 158.17 C 104.75 164.36 104.76 170.65 105.24 176.84 C 105.39 179.72 108.70 180.02 110.92 180.02 C 152.95 180.00 194.98 179.96 237.01 180.03 C 236.99 183.01 236.99 185.99 237.01 188.97 C 198.34 189.05 159.67 188.98 121.00 188.99 C 116.47 189.10 111.86 188.53 107.38 189.42 C 105.00 190.06 105.12 192.96 104.99 194.92 C 104.99 200.18 104.61 205.50 105.34 210.73 C 105.69 212.95 108.17 213.54 110.07 213.54 C 152.38 213.68 194.71 213.33 237.02 213.70 C 236.97 216.46 236.97 219.21 237.03 221.97 C 198.36 222.04 159.68 221.98 121.00 221.99 C 116.47 222.10 111.86 221.52 107.39 222.42 C 105.01 223.06 105.11 225.96 104.99 227.92 C 104.98 233.23 104.68 238.56 105.24 243.84 C 105.39 246.72 108.70 247.03 110.92 247.02 C 150.28 246.98 189.64 247.00 229.00 247.01 C 233.28 246.95 237.58 247.32 241.84 246.77 C 244.63 246.60 245.84 242.87 244.34 240.75 C 243.25 238.95 240.88 239.14 239.07 238.98 C 197.05 238.99 155.01 239.04 112.99 238.97 C 113.00 235.99 113.00 233.01 112.99 230.03 C 151.66 229.95 190.33 230.02 229.00 230.01 C 233.53 229.89 238.14 230.47 242.62 229.59 C 244.99 228.93 244.88 226.03 245.01 224.08 C 245.01 218.81 245.39 213.49 244.66 208.27 C 244.30 206.04 241.83 205.46 239.93 205.46 C 197.62 205.32 155.29 205.67 112.98 205.30 C 113.03 202.54 113.03 199.79 112.96 197.03 C 151.64 196.95 190.32 197.02 229.00 197.01 C 233.53 196.89 238.14 197.47 242.62 196.58 C 244.99 195.93 244.88 193.04 245.01 191.08 C 245.02 185.78 245.31 180.44 244.77 175.16 C 244.62 172.28 241.30 171.97 239.08 171.98 C 197.05 172.00 155.02 172.04 112.99 171.97 C 113.00 168.99 113.00 166.01 112.99 163.03 C 155.02 162.96 197.05 163.01 239.08 163.02 C 240.96 163.02 242.94 162.71 244.32 161.30 C 248.37 157.66 251.83 153.40 256.00 149.87 C 259.97 153.27 263.36 157.26 267.16 160.85 C 269.94 163.86 274.36 162.88 278.01 163.05 C 318.34 162.95 358.68 162.99 399.01 163.03 C 398.99 166.01 398.99 168.99 399.01 171.97 C 356.98 172.04 314.95 172.00 272.92 171.98 C 270.69 171.96 267.38 172.27 267.24 175.17 C 266.67 180.45 266.98 185.78 266.99 191.07 C 267.11 193.03 266.99 195.95 269.40 196.58 C 273.86 197.48 278.47 196.89 283.00 197.01 C 321.68 197.02 360.36 196.95 399.04 197.03 C 398.97 199.79 398.97 202.54 399.02 205.30 C 356.71 205.67 314.38 205.31 272.06 205.47 C 270.15 205.44 267.68 206.02 267.34 208.26 C 266.61 213.49 266.99 218.81 266.99 224.07 C 267.11 226.03 266.98 228.96 269.40 229.58 C 273.86 230.48 278.47 229.89 283.00 230.01 C 321.67 230.02 360.34 229.95 399.01 230.03 C 398.99 233.01 398.99 235.99 399.01 238.97 C 360.34 239.04 321.67 238.98 283.00 238.99 C 278.47 239.10 273.85 238.52 269.38 239.42 C 266.26 240.37 266.21 245.67 269.39 246.58 C 273.53 247.44 277.80 246.92 282.00 247.01 C 321.69 246.99 361.39 246.99 401.08 247.02 C 403.04 246.90 405.95 247.00 406.57 244.60 C 407.48 239.44 406.93 234.15 407.04 228.94 C 406.85 226.71 407.36 223.25 404.60 222.43 C 400.13 221.52 395.52 222.11 391.00 221.99 C 352.32 221.98 313.64 222.05 274.96 221.97 C 275.03 219.21 275.03 216.45 274.98 213.70 C 317.29 213.33 359.62 213.69 401.94 213.54 C 404.19 213.70 406.84 212.52 406.81 209.92 C 407.20 204.02 407.27 198.05 406.76 192.16 C 406.62 189.27 403.29 188.97 401.07 188.98 C 359.05 189.00 317.02 189.04 274.99 188.97 C 275.00 185.99 275.00 183.01 274.99 180.03 C 317.01 179.96 359.05 180.00 401.08 180.02 C 403.31 180.05 406.61 179.73 406.76 176.83 C 407.25 170.64 407.24 164.35 406.77 158.16 C 406.61 155.28 403.29 154.97 401.08 154.98 C 362.05 155.04 323.03 154.96 284.00 155.02 C 280.18 154.92 276.23 155.49 272.50 154.49 C 268.59 151.47 265.34 147.66 261.83 144.20 C 259.72 142.43 260.02 139.51 259.93 137.04 C 260.05 129.04 259.93 121.04 260.04 113.04 C 306.36 112.97 352.69 112.98 399.01 113.03 C 398.99 116.01 398.99 118.99 399.01 121.97 C 367.01 122.04 335.01 121.99 303.00 121.99 C 298.80 122.08 294.52 121.56 290.38 122.42 C 288.38 122.90 288.13 125.24 288.04 126.94 C 287.87 131.96 287.82 136.99 288.09 142.00 C 288.24 143.45 288.47 145.62 290.21 145.97 C 294.40 146.89 298.74 146.38 303.00 146.46 C 332.33 146.43 361.67 146.45 391.00 146.46 C 395.31 146.41 399.65 146.78 403.93 146.18 C 407.77 145.98 407.93 139.60 404.31 138.80 C 399.26 137.95 394.09 138.59 389.00 138.45 C 357.99 138.34 326.98 138.66 295.98 138.30 C 296.03 135.54 296.03 132.79 295.96 130.03 C 331.00 129.95 366.04 130.01 401.08 130.02 C 403.31 130.04 406.61 129.73 406.76 126.83 C 407.25 120.64 407.24 114.35 406.76 108.16 C 406.68 105.73 404.06 105.00 402.05 105.03 C 354.91 104.84 307.74 105.26 260.60 104.83 C 259.62 102.76 258.95 99.40 256.00 99.58 C 253.04 99.35 252.38 102.77 251.40 104.83 M 107.38 265.42 C 104.26 266.35 104.22 271.67 107.40 272.58 C 111.86 273.48 116.47 272.89 121.00 273.01 C 164.66 273.02 208.31 272.95 251.96 273.04 C 252.04 281.45 252.05 289.87 251.96 298.29 C 239.31 298.67 226.65 298.34 214.00 298.45 C 180.33 298.34 146.65 298.65 112.98 298.30 C 113.03 295.54 113.03 292.79 112.97 290.03 C 145.64 289.97 178.32 289.98 211.00 290.03 C 214.75 289.88 218.71 290.57 222.32 289.30 C 225.43 287.27 223.85 281.74 219.98 282.11 C 184.31 281.80 148.63 282.16 112.96 281.94 C 110.86 282.02 108.65 281.84 106.69 282.70 C 104.69 284.06 105.17 286.84 104.95 288.93 C 105.01 293.86 104.62 298.84 105.34 303.73 C 105.69 305.96 108.17 306.54 110.07 306.54 C 157.36 306.68 204.66 306.33 251.95 306.71 C 252.05 320.79 252.02 334.88 251.97 348.96 C 205.64 349.03 159.31 349.02 112.99 348.97 C 113.00 345.99 113.00 343.01 112.99 340.03 C 148.02 339.96 183.05 340.01 218.08 340.02 C 220.31 340.04 223.61 339.73 223.76 336.83 C 224.25 330.64 224.24 324.36 223.76 318.16 C 223.62 315.27 220.30 314.97 218.08 314.98 C 185.05 315.00 152.03 315.02 119.00 314.98 C 115.14 315.05 111.20 314.60 107.39 315.41 C 104.54 316.31 104.20 320.77 106.70 322.30 C 108.01 322.92 109.50 322.93 110.93 323.02 C 145.95 323.01 180.98 322.96 216.01 323.03 C 215.99 326.01 215.99 328.99 216.01 331.97 C 180.98 332.04 145.95 331.99 110.93 331.98 C 108.96 332.10 106.04 331.99 105.42 334.40 C 104.52 339.55 105.07 344.85 104.96 350.06 C 105.14 352.29 104.65 355.75 107.40 356.58 C 111.86 357.48 116.47 356.89 121.00 357.01 C 164.66 357.02 208.32 356.95 251.98 357.04 C 251.99 361.33 251.80 365.63 252.18 369.91 C 252.20 371.68 253.62 373.27 255.41 373.36 C 260.92 373.93 266.47 373.42 272.00 373.54 C 314.34 373.67 356.69 373.34 399.02 373.70 C 398.96 376.45 398.97 379.21 399.04 381.97 C 340.70 382.02 282.36 382.03 224.02 381.96 C 223.96 377.40 224.31 372.80 223.68 368.27 C 223.19 365.64 220.15 365.43 218.01 365.42 C 182.34 365.47 146.66 365.46 110.98 365.42 C 109.06 365.53 106.50 365.43 105.58 367.53 C 104.58 370.92 105.05 374.52 104.96 378.01 C 105.19 386.33 104.71 394.67 105.11 402.98 C 104.98 405.21 106.79 407.00 109.02 406.89 C 115.34 407.17 121.69 407.12 128.02 406.92 C 130.02 407.00 132.28 405.82 132.36 403.60 C 132.78 399.09 132.51 394.56 132.68 390.05 C 153.11 389.96 173.55 389.98 193.98 390.04 C 194.03 394.64 193.75 399.26 194.22 403.85 C 194.31 405.41 195.62 406.65 197.17 406.76 C 201.75 407.35 206.39 406.93 211.00 407.00 C 274.36 407.01 337.72 406.97 401.07 407.02 C 402.88 406.85 405.28 407.07 406.34 405.23 C 407.85 403.09 406.64 399.40 403.82 399.24 C 398.91 398.63 393.94 399.09 389.00 399.00 C 326.67 398.97 264.34 399.06 202.02 398.96 C 201.89 394.11 202.43 389.18 201.59 384.38 C 200.72 381.68 197.30 382.13 195.07 381.95 C 173.69 382.04 152.30 382.00 130.92 381.97 C 128.72 382.05 125.47 381.98 124.79 384.67 C 124.08 389.39 124.55 394.20 124.32 398.96 C 120.56 399.05 116.80 399.05 113.04 398.97 C 112.96 390.55 112.95 382.13 113.05 373.71 C 116.70 373.58 120.35 373.49 124.00 373.52 C 154.66 373.71 185.32 373.31 215.97 373.71 C 216.09 378.34 215.60 383.04 216.40 387.62 C 217.08 389.97 219.95 389.89 221.92 390.02 C 281.64 389.99 341.36 389.98 401.08 390.02 C 403.31 390.04 406.61 389.73 406.76 386.83 C 407.28 380.94 407.20 374.98 406.81 369.09 C 406.84 366.48 404.17 365.32 401.94 365.46 C 354.62 365.32 307.29 365.67 259.98 365.30 C 260.03 362.54 260.03 359.79 259.97 357.03 C 307.00 356.96 354.04 357.00 401.08 357.02 C 403.04 356.90 405.95 357.00 406.57 354.61 C 407.48 349.45 406.92 344.15 407.05 338.94 C 406.85 336.71 407.36 333.24 404.60 332.42 C 400.46 331.55 396.19 332.08 392.00 331.98 C 360.00 331.99 327.99 332.04 295.99 331.97 C 296.00 328.99 296.00 326.01 295.99 323.03 C 331.02 322.96 366.05 323.01 401.07 323.02 C 402.50 322.93 404.00 322.93 405.32 322.30 C 407.74 320.73 407.51 316.29 404.60 315.42 C 400.46 314.55 396.19 315.08 392.00 314.99 C 359.31 315.01 326.61 315.01 293.92 314.98 C 291.96 315.10 289.05 314.99 288.43 317.40 C 287.51 322.55 288.07 327.85 287.96 333.07 C 288.14 335.29 287.64 338.75 290.39 339.57 C 294.53 340.44 298.80 339.92 303.00 340.01 C 335.00 340.01 367.01 339.96 399.01 340.03 C 398.99 343.01 398.99 345.99 399.01 348.97 C 352.69 349.02 306.36 349.03 260.04 348.96 C 259.97 334.88 259.96 320.79 260.04 306.71 C 307.34 306.33 354.65 306.69 401.94 306.54 C 403.85 306.55 406.31 305.97 406.66 303.73 C 407.39 298.50 407.01 293.18 407.01 287.92 C 406.88 285.96 407.00 283.04 404.61 282.42 C 400.47 281.56 396.19 282.08 392.00 281.99 C 360.00 281.99 327.99 282.04 295.99 281.97 C 296.00 278.99 296.00 276.01 295.99 273.03 C 331.02 272.96 366.05 273.01 401.08 273.02 C 402.50 272.93 404.00 272.93 405.33 272.30 C 407.50 270.82 407.56 267.13 405.31 265.70 C 403.99 265.08 402.50 265.06 401.08 264.98 C 365.70 264.99 330.31 265.05 294.93 264.95 C 293.17 265.04 291.32 264.94 289.69 265.70 C 287.69 267.06 288.17 269.85 287.96 271.93 C 288.07 277.15 287.53 282.45 288.41 287.62 C 289.06 289.98 291.97 289.89 293.92 290.02 C 328.96 290.01 364.00 289.96 399.03 290.03 C 398.97 292.79 398.96 295.54 399.02 298.30 C 379.02 298.66 359.01 298.34 339.00 298.45 C 312.68 298.34 286.36 298.66 260.04 298.29 C 259.70 288.25 260.45 278.18 259.77 268.16 C 259.61 265.27 256.30 264.97 254.08 264.98 C 209.38 265.01 164.69 265.01 120.00 264.99 C 115.80 265.08 111.53 264.56 107.38 265.42 Z" />
</g>
<g id="#444444ff">
<path fill="#444444" opacity="1.00" d=" M 251.40 104.83 C 252.38 102.77 253.04 99.35 256.00 99.58 C 258.95 99.40 259.62 102.76 260.60 104.83 C 307.74 105.26 354.91 104.84 402.05 105.03 C 404.06 105.00 406.68 105.73 406.76 108.16 C 407.24 114.35 407.25 120.64 406.76 126.83 C 406.61 129.73 403.31 130.04 401.08 130.02 C 366.04 130.01 331.00 129.95 295.96 130.03 C 296.03 132.79 296.03 135.54 295.98 138.30 C 326.98 138.66 357.99 138.34 389.00 138.45 C 394.09 138.59 399.26 137.95 404.31 138.80 C 407.93 139.60 407.77 145.98 403.93 146.18 C 399.65 146.78 395.31 146.41 391.00 146.46 C 361.67 146.45 332.33 146.43 303.00 146.46 C 298.74 146.38 294.40 146.89 290.21 145.97 C 288.47 145.62 288.24 143.45 288.09 142.00 C 287.82 136.99 287.87 131.96 288.04 126.94 C 288.13 125.24 288.38 122.90 290.38 122.42 C 294.52 121.56 298.80 122.08 303.00 121.99 C 335.01 121.99 367.01 122.04 399.01 121.97 C 398.99 118.99 398.99 116.01 399.01 113.03 C 352.69 112.98 306.36 112.97 260.04 113.04 C 259.93 121.04 260.05 129.04 259.93 137.04 C 260.02 139.51 259.72 142.43 261.83 144.20 C 265.34 147.66 268.59 151.47 272.50 154.49 C 276.23 155.49 280.18 154.92 284.00 155.02 C 323.03 154.96 362.05 155.04 401.08 154.98 C 403.29 154.97 406.61 155.28 406.77 158.16 C 407.24 164.35 407.25 170.64 406.76 176.83 C 406.61 179.73 403.31 180.05 401.08 180.02 C 359.05 180.00 317.01 179.96 274.99 180.03 C 275.00 183.01 275.00 185.99 274.99 188.97 C 317.02 189.04 359.05 189.00 401.07 188.98 C 403.29 188.97 406.62 189.27 406.76 192.16 C 407.27 198.05 407.20 204.02 406.81 209.92 C 406.84 212.52 404.19 213.70 401.94 213.54 C 359.62 213.69 317.29 213.33 274.98 213.70 C 275.03 216.45 275.03 219.21 274.96 221.97 C 313.64 222.05 352.32 221.98 391.00 221.99 C 395.52 222.11 400.13 221.52 404.60 222.43 C 407.36 223.25 406.85 226.71 407.04 228.94 C 406.93 234.15 407.48 239.44 406.57 244.60 C 405.95 247.00 403.04 246.90 401.08 247.02 C 361.39 246.99 321.69 246.99 282.00 247.01 C 277.80 246.92 273.53 247.44 269.39 246.58 C 266.21 245.67 266.26 240.37 269.38 239.42 C 273.85 238.52 278.47 239.10 283.00 238.99 C 321.67 238.98 360.34 239.04 399.01 238.97 C 398.99 235.99 398.99 233.01 399.01 230.03 C 360.34 229.95 321.67 230.02 283.00 230.01 C 278.47 229.89 273.86 230.48 269.40 229.58 C 266.98 228.96 267.11 226.03 266.99 224.07 C 266.99 218.81 266.61 213.49 267.34 208.26 C 267.68 206.02 270.15 205.44 272.06 205.47 C 314.38 205.31 356.71 205.67 399.02 205.30 C 398.97 202.54 398.97 199.79 399.04 197.03 C 360.36 196.95 321.68 197.02 283.00 197.01 C 278.47 196.89 273.86 197.48 269.40 196.58 C 266.99 195.95 267.11 193.03 266.99 191.07 C 266.98 185.78 266.67 180.45 267.24 175.17 C 267.38 172.27 270.69 171.96 272.92 171.98 C 314.95 172.00 356.98 172.04 399.01 171.97 C 398.99 168.99 398.99 166.01 399.01 163.03 C 358.68 162.99 318.34 162.95 278.01 163.05 C 274.36 162.88 269.94 163.86 267.16 160.85 C 263.36 157.26 259.97 153.27 256.00 149.87 C 251.83 153.40 248.37 157.66 244.32 161.30 C 242.94 162.71 240.96 163.02 239.08 163.02 C 197.05 163.01 155.02 162.96 112.99 163.03 C 113.00 166.01 113.00 168.99 112.99 171.97 C 155.02 172.04 197.05 172.00 239.08 171.98 C 241.30 171.97 244.62 172.28 244.77 175.16 C 245.31 180.44 245.02 185.78 245.01 191.08 C 244.88 193.04 244.99 195.93 242.62 196.58 C 238.14 197.47 233.53 196.89 229.00 197.01 C 190.32 197.02 151.64 196.95 112.96 197.03 C 113.03 199.79 113.03 202.54 112.98 205.30 C 155.29 205.67 197.62 205.32 239.93 205.46 C 241.83 205.46 244.30 206.04 244.66 208.27 C 245.39 213.49 245.01 218.81 245.01 224.08 C 244.88 226.03 244.99 228.93 242.62 229.59 C 238.14 230.47 233.53 229.89 229.00 230.01 C 190.33 230.02 151.66 229.95 112.99 230.03 C 113.00 233.01 113.00 235.99 112.99 238.97 C 155.01 239.04 197.05 238.99 239.07 238.98 C 240.88 239.14 243.25 238.95 244.34 240.75 C 245.84 242.87 244.63 246.60 241.84 246.77 C 237.58 247.32 233.28 246.95 229.00 247.01 C 189.64 247.00 150.28 246.98 110.92 247.02 C 108.70 247.03 105.39 246.72 105.24 243.84 C 104.68 238.56 104.98 233.23 104.99 227.92 C 105.11 225.96 105.01 223.06 107.39 222.42 C 111.86 221.52 116.47 222.10 121.00 221.99 C 159.68 221.98 198.36 222.04 237.03 221.97 C 236.97 219.21 236.97 216.46 237.02 213.70 C 194.71 213.33 152.38 213.68 110.07 213.54 C 108.17 213.54 105.69 212.95 105.34 210.73 C 104.61 205.50 104.99 200.18 104.99 194.92 C 105.12 192.96 105.00 190.06 107.38 189.42 C 111.86 188.53 116.47 189.10 121.00 188.99 C 159.67 188.98 198.34 189.05 237.01 188.97 C 236.99 185.99 236.99 183.01 237.01 180.03 C 194.98 179.96 152.95 180.00 110.92 180.02 C 108.70 180.02 105.39 179.72 105.24 176.84 C 104.76 170.65 104.75 164.36 105.24 158.17 C 105.38 155.27 108.69 154.95 110.92 154.98 C 149.28 155.02 187.64 154.98 226.00 155.00 C 229.98 154.98 233.97 155.26 237.94 154.87 C 240.23 154.72 241.63 152.63 243.22 151.23 C 245.94 148.29 249.13 145.76 251.49 142.50 C 252.19 140.42 252.00 138.17 252.07 136.01 C 251.93 128.35 252.08 120.69 251.96 113.04 C 205.64 112.97 159.31 112.98 112.99 113.03 C 113.00 116.01 113.00 118.99 112.99 121.97 C 144.99 122.04 177.00 121.99 209.00 121.99 C 213.19 122.08 217.47 121.55 221.61 122.42 C 223.63 122.89 223.88 125.23 223.96 126.94 C 224.13 131.96 224.18 136.99 223.91 142.00 C 223.76 143.45 223.52 145.63 221.78 145.98 C 217.26 146.93 212.59 146.36 208.00 146.45 C 175.99 146.46 143.97 146.40 111.96 146.49 C 109.54 146.32 105.88 146.75 105.21 143.66 C 104.19 140.65 107.15 138.03 110.06 138.47 C 145.38 138.31 180.71 138.67 216.02 138.30 C 215.97 135.54 215.96 132.79 216.03 130.03 C 184.02 129.96 152.01 130.01 120.00 130.01 C 115.81 129.92 111.53 130.44 107.40 129.57 C 104.99 128.95 105.11 126.04 104.99 124.08 C 104.98 118.78 104.67 113.45 105.24 108.17 C 105.39 105.27 108.69 104.96 110.92 104.98 C 150.62 105.02 190.31 104.99 230.01 105.00 C 237.14 104.93 244.27 105.21 251.40 104.83 Z" />
<path fill="#444444" opacity="1.00" d=" M 107.38 265.42 C 111.53 264.56 115.80 265.08 120.00 264.99 C 164.69 265.01 209.38 265.01 254.08 264.98 C 256.30 264.97 259.61 265.27 259.77 268.16 C 260.45 278.18 259.70 288.25 260.04 298.29 C 286.36 298.66 312.68 298.34 339.00 298.45 C 359.01 298.34 379.02 298.66 399.02 298.30 C 398.96 295.54 398.97 292.79 399.03 290.03 C 364.00 289.96 328.96 290.01 293.92 290.02 C 291.97 289.89 289.06 289.98 288.41 287.62 C 287.53 282.45 288.07 277.15 287.96 271.93 C 288.17 269.85 287.69 267.06 289.69 265.70 C 291.32 264.94 293.17 265.04 294.93 264.95 C 330.31 265.05 365.70 264.99 401.08 264.98 C 402.50 265.06 403.99 265.08 405.31 265.70 C 407.56 267.13 407.50 270.82 405.33 272.30 C 404.00 272.93 402.50 272.93 401.08 273.02 C 366.05 273.01 331.02 272.96 295.99 273.03 C 296.00 276.01 296.00 278.99 295.99 281.97 C 327.99 282.04 360.00 281.99 392.00 281.99 C 396.19 282.08 400.47 281.56 404.61 282.42 C 407.00 283.04 406.88 285.96 407.01 287.92 C 407.01 293.18 407.39 298.50 406.66 303.73 C 406.31 305.97 403.85 306.55 401.94 306.54 C 354.65 306.69 307.34 306.33 260.04 306.71 C 259.96 320.79 259.97 334.88 260.04 348.96 C 306.36 349.03 352.69 349.02 399.01 348.97 C 398.99 345.99 398.99 343.01 399.01 340.03 C 367.01 339.96 335.00 340.01 303.00 340.01 C 298.80 339.92 294.53 340.44 290.39 339.57 C 287.64 338.75 288.14 335.29 287.96 333.07 C 288.07 327.85 287.51 322.55 288.43 317.40 C 289.05 314.99 291.96 315.10 293.92 314.98 C 326.61 315.01 359.31 315.01 392.00 314.99 C 396.19 315.08 400.46 314.55 404.60 315.42 C 407.51 316.29 407.74 320.73 405.32 322.30 C 404.00 322.93 402.50 322.93 401.07 323.02 C 366.05 323.01 331.02 322.96 295.99 323.03 C 296.00 326.01 296.00 328.99 295.99 331.97 C 327.99 332.04 360.00 331.99 392.00 331.98 C 396.19 332.08 400.46 331.55 404.60 332.42 C 407.36 333.24 406.85 336.71 407.05 338.94 C 406.92 344.15 407.48 349.45 406.57 354.61 C 405.95 357.00 403.04 356.90 401.08 357.02 C 354.04 357.00 307.00 356.96 259.97 357.03 C 260.03 359.79 260.03 362.54 259.98 365.30 C 307.29 365.67 354.62 365.32 401.94 365.46 C 404.17 365.32 406.84 366.48 406.81 369.09 C 407.20 374.98 407.28 380.94 406.76 386.83 C 406.61 389.73 403.31 390.04 401.08 390.02 C 341.36 389.98 281.64 389.99 221.92 390.02 C 219.95 389.89 217.08 389.97 216.40 387.62 C 215.60 383.04 216.09 378.34 215.97 373.71 C 185.32 373.31 154.66 373.71 124.00 373.52 C 120.35 373.49 116.70 373.58 113.05 373.71 C 112.95 382.13 112.96 390.55 113.04 398.97 C 116.80 399.05 120.56 399.05 124.32 398.96 C 124.55 394.20 124.08 389.39 124.79 384.67 C 125.47 381.98 128.72 382.05 130.92 381.97 C 152.30 382.00 173.69 382.04 195.07 381.95 C 197.30 382.13 200.72 381.68 201.59 384.38 C 202.43 389.18 201.89 394.11 202.02 398.96 C 264.34 399.06 326.67 398.97 389.00 399.00 C 393.94 399.09 398.91 398.63 403.82 399.24 C 406.64 399.40 407.85 403.09 406.34 405.23 C 405.28 407.07 402.88 406.85 401.07 407.02 C 337.72 406.97 274.36 407.01 211.00 407.00 C 206.39 406.93 201.75 407.35 197.17 406.76 C 195.62 406.65 194.31 405.41 194.22 403.85 C 193.75 399.26 194.03 394.64 193.98 390.04 C 173.55 389.98 153.11 389.96 132.68 390.05 C 132.51 394.56 132.78 399.09 132.36 403.60 C 132.28 405.82 130.02 407.00 128.02 406.92 C 121.69 407.12 115.34 407.17 109.02 406.89 C 106.79 407.00 104.98 405.21 105.11 402.98 C 104.71 394.67 105.19 386.33 104.96 378.01 C 105.05 374.52 104.58 370.92 105.58 367.53 C 106.50 365.43 109.06 365.53 110.98 365.42 C 146.66 365.46 182.34 365.47 218.01 365.42 C 220.15 365.43 223.19 365.64 223.68 368.27 C 224.31 372.80 223.96 377.40 224.02 381.96 C 282.36 382.03 340.70 382.02 399.04 381.97 C 398.97 379.21 398.96 376.45 399.02 373.70 C 356.69 373.34 314.34 373.67 272.00 373.54 C 266.47 373.42 260.92 373.93 255.41 373.36 C 253.62 373.27 252.20 371.68 252.18 369.91 C 251.80 365.63 251.99 361.33 251.98 357.04 C 208.32 356.95 164.66 357.02 121.00 357.01 C 116.47 356.89 111.86 357.48 107.40 356.58 C 104.65 355.75 105.14 352.29 104.96 350.06 C 105.07 344.85 104.52 339.55 105.42 334.40 C 106.04 331.99 108.96 332.10 110.93 331.98 C 145.95 331.99 180.98 332.04 216.01 331.97 C 215.99 328.99 215.99 326.01 216.01 323.03 C 180.98 322.96 145.95 323.01 110.93 323.02 C 109.50 322.93 108.01 322.92 106.70 322.30 C 104.20 320.77 104.54 316.31 107.39 315.41 C 111.20 314.60 115.14 315.05 119.00 314.98 C 152.03 315.02 185.05 315.00 218.08 314.98 C 220.30 314.97 223.62 315.27 223.76 318.16 C 224.24 324.36 224.25 330.64 223.76 336.83 C 223.61 339.73 220.31 340.04 218.08 340.02 C 183.05 340.01 148.02 339.96 112.99 340.03 C 113.00 343.01 113.00 345.99 112.99 348.97 C 159.31 349.02 205.64 349.03 251.97 348.96 C 252.02 334.88 252.05 320.79 251.95 306.71 C 204.66 306.33 157.36 306.68 110.07 306.54 C 108.17 306.54 105.69 305.96 105.34 303.73 C 104.62 298.84 105.01 293.86 104.95 288.93 C 105.17 286.84 104.69 284.06 106.69 282.70 C 108.65 281.84 110.86 282.02 112.96 281.94 C 148.63 282.16 184.31 281.80 219.98 282.11 C 223.85 281.74 225.43 287.27 222.32 289.30 C 218.71 290.57 214.75 289.88 211.00 290.03 C 178.32 289.98 145.64 289.97 112.97 290.03 C 113.03 292.79 113.03 295.54 112.98 298.30 C 146.65 298.65 180.33 298.34 214.00 298.45 C 226.65 298.34 239.31 298.67 251.96 298.29 C 252.05 289.87 252.04 281.45 251.96 273.04 C 208.31 272.95 164.66 273.02 121.00 273.01 C 116.47 272.89 111.86 273.48 107.40 272.58 C 104.22 271.67 104.26 266.35 107.38 265.42 Z" />
</g>
</svg>
