<?xml version="1.0" encoding="UTF-8" ?>
<!DOCTYPE svg PUBLIC "-//W3C//DTD SVG 1.1//EN" "http://www.w3.org/Graphics/SVG/1.1/DTD/svg11.dtd">
<svg width="64pt" height="64pt" viewBox="0 0 64 64" version="1.1" xmlns="http://www.w3.org/2000/svg">
<g id="#22a4e8fe">
<path fill="#22a4e8" opacity="1.00" d=" M 23.55 1.80 C 33.20 0.84 43.23 1.15 52.46 4.36 C 55.75 5.64 60.30 7.67 60.00 11.91 C 59.99 25.63 60.02 39.35 59.98 53.07 C 59.93 55.71 57.56 57.43 55.44 58.54 C 50.27 61.19 44.42 62.10 38.71 62.64 C 29.33 63.03 19.59 62.99 10.77 59.35 C 8.07 58.14 4.61 56.40 4.51 53.00 C 4.48 39.34 4.51 25.69 4.50 12.03 C 4.22 9.77 5.67 7.73 7.53 6.59 C 12.32 3.59 18.01 2.44 23.55 1.80 M 24.49 4.75 C 18.63 5.67 11.66 6.15 7.52 10.96 C 7.12 13.55 10.40 14.73 12.29 15.72 C 23.08 19.58 35.00 19.67 46.16 17.50 C 49.93 16.62 54.07 15.65 56.74 12.61 C 57.83 10.04 54.35 8.63 52.55 7.66 C 43.67 4.26 33.88 3.84 24.49 4.75 M 7.50 16.78 C 7.52 21.53 7.48 26.28 7.49 31.04 C 7.09 34.13 10.59 35.46 12.88 36.46 C 22.25 39.70 32.42 39.88 42.17 38.72 C 47.38 37.81 53.13 36.93 57.00 32.97 C 57.00 27.55 57.00 22.13 57.00 16.71 C 49.47 21.03 40.56 21.76 32.05 21.95 C 23.68 21.74 14.96 20.94 7.50 16.78 M 32.94 42.39 C 24.27 42.31 15.22 41.58 7.49 37.29 C 7.80 42.77 6.93 48.43 7.91 53.80 C 12.16 57.91 18.49 58.55 24.06 59.42 C 33.33 60.16 42.99 60.11 51.83 56.83 C 53.73 55.99 56.01 55.09 56.92 53.08 C 57.14 47.79 56.92 42.50 57.01 37.21 C 49.74 41.39 41.16 42.18 32.94 42.39 Z" />
</g>
</svg>
