<?xml version="1.0" encoding="UTF-8" ?>
<!DOCTYPE svg PUBLIC "-//W3C//DTD SVG 1.1//EN" "http://www.w3.org/Graphics/SVG/1.1/DTD/svg11.dtd">
<svg width="32pt" height="32pt" viewBox="0 0 32 32" version="1.1" xmlns="http://www.w3.org/2000/svg">
<g id="#187d2fcf">
<path fill="#187d2f" opacity="0.81" d=" M 2.85 8.57 C 7.16 5.89 11.59 3.43 15.99 0.91 C 19.06 3.17 23.86 3.92 25.26 7.84 C 21.87 7.13 18.91 5.26 16.01 3.44 C 12.42 5.54 8.81 7.61 5.20 9.67 C 5.28 13.42 5.21 17.20 4.47 20.89 C 7.50 20.67 10.48 19.96 13.32 18.86 C 14.34 16.63 16.43 15.64 18.81 15.72 C 20.74 14.08 22.60 12.36 24.41 10.59 C 24.66 9.66 24.95 8.75 25.26 7.84 C 26.34 4.93 30.62 7.06 29.67 9.66 C 29.40 11.52 27.36 11.40 25.94 11.71 C 22.44 14.39 19.52 17.64 17.14 21.33 C 16.24 21.02 15.34 20.71 14.45 20.40 C 12.24 21.10 10.04 21.77 7.84 22.49 C 7.45 23.06 6.66 24.19 6.26 24.75 C 5.52 26.11 3.08 25.64 2.63 24.31 C 1.70 23.00 2.74 21.51 3.58 20.47 C 2.31 16.63 3.03 12.54 2.85 8.57 M 26.29 8.17 C 25.75 9.81 26.29 10.36 27.93 9.85 C 28.48 8.22 27.93 7.66 26.29 8.17 M 16.28 18.19 C 16.93 18.64 16.93 18.64 16.28 18.19 M 4.06 22.15 C 3.53 23.79 4.08 24.35 5.71 23.82 C 6.25 22.19 5.70 21.63 4.06 22.15 Z" />
</g>
<g id="#0c3f1869">
<path fill="#0c3f18" opacity="0.41" d=" M 26.29 8.17 C 27.93 7.66 28.48 8.22 27.93 9.85 C 26.29 10.36 25.75 9.81 26.29 8.17 Z" />
</g>
<g id="#373638d9">
<path fill="#373638" opacity="0.85" d=" M 26.99 12.74 C 27.51 12.56 28.57 12.20 29.10 12.01 C 29.14 15.80 29.11 19.59 29.17 23.37 C 24.87 26.08 20.42 28.54 16.01 31.07 C 12.65 29.15 9.08 27.47 6.26 24.75 C 10.02 23.91 12.87 27.10 16.00 28.60 C 19.56 26.51 23.13 24.41 26.77 22.46 C 26.87 19.22 26.72 15.97 26.99 12.74 Z" />
</g>
<g id="#0c3f1768">
<path fill="#0c3f17" opacity="0.41" d=" M 4.06 22.15 C 5.70 21.63 6.25 22.19 5.71 23.82 C 4.08 24.35 3.53 23.79 4.06 22.15 Z" />
</g>
</svg>
