<?xml version="1.0" encoding="UTF-8" ?>
<!DOCTYPE svg PUBLIC "-//W3C//DTD SVG 1.1//EN" "http://www.w3.org/Graphics/SVG/1.1/DTD/svg11.dtd">
<svg width="32pt" height="32pt" viewBox="0 0 32 32" version="1.1" xmlns="http://www.w3.org/2000/svg">
<g id="#3793efff">
<path fill="#3793ef" opacity="1.00" d=" M 5.81 0.00 L 13.01 0.00 C 18.15 0.57 23.65 1.64 27.45 5.43 C 32.74 11.20 31.99 21.08 26.45 26.41 C 23.38 29.05 19.53 30.62 15.58 31.38 L 15.96 30.67 C 19.56 28.59 21.59 24.08 20.01 20.10 C 18.87 16.72 15.08 15.41 11.84 15.13 C 7.90 14.69 3.89 15.41 0.00 14.68 L 0.00 14.28 C 0.15 14.30 0.45 14.34 0.60 14.36 C 3.58 9.44 7.02 4.78 10.25 0.01 L 5.81 0.00 Z" />
</g>
<g id="#002868ff">
<path fill="#002868" opacity="1.00" d=" M 11.84 15.13 C 15.08 15.41 18.87 16.72 20.01 20.10 C 21.59 24.08 19.56 28.59 15.96 30.67 C 16.42 28.00 18.94 25.32 17.38 22.59 C 15.78 19.75 12.21 19.49 9.40 18.71 C 10.14 17.47 11.01 16.31 11.84 15.13 Z" />
</g>
<g id="#0265b4ff">
<path fill="#0265b4" opacity="1.00" d=" M 0.06 31.67 C 3.08 27.28 6.29 23.03 9.40 18.71 C 12.21 19.49 15.78 19.75 17.38 22.59 C 18.94 25.32 16.42 28.00 15.96 30.67 L 15.58 31.38 C 10.43 31.94 5.23 31.43 0.06 31.67 Z" />
</g>
</svg>
