<?xml version="1.0" encoding="UTF-8" ?>
<!DOCTYPE svg PUBLIC "-//W3C//DTD SVG 1.1//EN" "http://www.w3.org/Graphics/SVG/1.1/DTD/svg11.dtd">
<svg width="32pt" height="32pt" viewBox="0 0 32 32" version="1.1" xmlns="http://www.w3.org/2000/svg">
<g id="#042b48ff">
<path fill="#042b48" opacity="1.00" d=" M 15.52 0.00 L 16.45 0.00 C 20.43 2.20 24.68 4.07 28.16 7.04 C 28.69 11.65 28.69 16.36 28.16 20.97 C 26.51 22.59 24.37 23.58 22.40 24.75 C 22.22 27.17 21.99 29.58 21.79 32.00 L 21.36 32.00 C 16.03 27.53 9.22 25.32 3.84 20.95 C 3.31 16.34 3.31 11.63 3.84 7.02 C 7.38 4.16 11.58 2.24 15.52 0.00 M 10.48 10.51 C 13.15 11.30 15.95 11.82 18.23 13.53 C 19.03 14.63 19.49 16.34 21.10 16.50 C 22.38 16.09 23.70 14.60 22.81 13.22 C 22.02 11.78 20.30 12.41 19.00 12.31 C 16.74 11.24 14.80 9.68 13.30 7.69 C 11.77 5.79 9.09 8.85 10.48 10.51 M 13.80 17.19 C 11.86 16.77 8.99 18.15 10.52 20.40 C 12.03 22.67 14.07 20.40 14.95 18.86 C 16.17 17.79 17.39 16.72 18.53 15.58 C 16.93 16.02 15.37 16.62 13.80 17.19 Z" />
</g>
</svg>
