<?xml version="1.0" encoding="UTF-8" ?>
<!DOCTYPE svg PUBLIC "-//W3C//DTD SVG 1.1//EN" "http://www.w3.org/Graphics/SVG/1.1/DTD/svg11.dtd">
<svg width="64pt" height="64pt" viewBox="0 0 64 64" version="1.1" xmlns="http://www.w3.org/2000/svg">
<g id="#127a3dff">
<path fill="#127a3d" opacity="1.00" d=" M 12.39 0.00 L 51.51 0.00 C 52.21 0.16 53.61 0.47 54.31 0.62 C 50.58 13.93 46.83 27.52 39.66 39.46 C 40.98 40.24 42.35 40.94 43.75 41.57 C 50.81 29.57 54.77 16.11 58.50 2.79 C 61.42 5.20 63.37 8.62 64.00 12.35 L 64.00 32.82 C 61.65 32.10 59.01 31.57 56.70 32.73 C 52.13 34.92 49.52 39.64 45.23 42.20 C 42.10 43.83 39.24 40.82 37.23 38.77 C 34.11 35.41 30.28 31.26 25.19 32.16 C 18.76 33.44 16.24 41.11 10.05 42.65 C 5.62 42.06 3.21 37.63 0.00 34.99 L 0.00 12.38 C 0.56 9.22 1.99 6.26 4.20 3.93 C 7.38 15.16 10.99 26.31 15.96 36.89 C 17.11 35.80 18.26 34.71 19.41 33.61 C 14.63 23.19 11.24 12.21 8.27 1.16 C 9.63 0.72 11.00 0.34 12.39 0.00 Z" />
<path fill="#127a3d" opacity="1.00" d=" M 11.10 47.18 C 17.21 46.13 19.93 39.66 25.05 36.92 C 27.82 35.61 30.23 38.09 32.04 39.87 C 35.33 43.20 38.87 47.63 44.08 47.24 C 50.26 46.45 53.19 40.13 58.08 37.09 C 60.04 35.76 62.22 37.18 64.00 38.09 L 64.00 51.43 C 63.28 57.69 58.27 62.80 52.14 64.00 L 12.48 64.00 C 6.08 63.23 0.81 57.90 0.00 51.52 L 0.00 41.37 C 2.93 44.34 6.53 47.88 11.10 47.18 M 19.88 43.14 C 22.01 46.25 24.81 49.16 28.46 50.38 C 32.12 51.59 36.18 50.17 38.83 47.51 C 37.54 46.69 36.28 45.85 35.02 45.00 C 33.42 45.64 31.78 46.59 29.99 46.09 C 26.96 45.09 24.99 42.40 23.08 40.01 C 22.02 41.06 20.96 42.11 19.88 43.14 Z" />
</g>
<g id="#ffffffff">
<path fill="#ffffff" opacity="1.00" d=" M 4.20 3.93 C 5.47 2.89 6.83 1.96 8.27 1.16 C 11.24 12.21 14.63 23.19 19.41 33.61 C 18.26 34.71 17.11 35.80 15.96 36.89 C 10.99 26.31 7.38 15.16 4.20 3.93 Z" />
<path fill="#ffffff" opacity="1.00" d=" M 54.31 0.62 C 55.76 1.24 57.15 1.97 58.50 2.79 C 54.77 16.11 50.81 29.57 43.75 41.57 C 42.35 40.94 40.98 40.24 39.66 39.46 C 46.83 27.52 50.58 13.93 54.31 0.62 Z" />
<path fill="#ffffff" opacity="1.00" d=" M 25.19 32.16 C 30.28 31.26 34.11 35.41 37.23 38.77 C 39.24 40.82 42.10 43.83 45.23 42.20 C 49.52 39.64 52.13 34.92 56.70 32.73 C 59.01 31.57 61.65 32.10 64.00 32.82 L 64.00 38.09 C 62.22 37.18 60.04 35.76 58.08 37.09 C 53.19 40.13 50.26 46.45 44.08 47.24 C 38.87 47.63 35.33 43.20 32.04 39.87 C 30.23 38.09 27.82 35.61 25.05 36.92 C 19.93 39.66 17.21 46.13 11.10 47.18 C 6.53 47.88 2.93 44.34 0.00 41.37 L 0.00 34.99 C 3.21 37.63 5.62 42.06 10.05 42.65 C 16.24 41.11 18.76 33.44 25.19 32.16 Z" />
<path fill="#ffffff" opacity="1.00" d=" M 19.88 43.14 C 20.96 42.11 22.02 41.06 23.08 40.01 C 24.99 42.40 26.96 45.09 29.99 46.09 C 31.78 46.59 33.42 45.64 35.02 45.00 C 36.28 45.85 37.54 46.69 38.83 47.51 C 36.18 50.17 32.12 51.59 28.46 50.38 C 24.81 49.16 22.01 46.25 19.88 43.14 Z" />
</g>
</svg>
