<?xml version="1.0" encoding="UTF-8" ?>
<!DOCTYPE svg PUBLIC "-//W3C//DTD SVG 1.1//EN" "http://www.w3.org/Graphics/SVG/1.1/DTD/svg11.dtd">
<svg width="32pt" height="32pt" viewBox="0 0 32 32" version="1.1" xmlns="http://www.w3.org/2000/svg">
<g id="#777777fd">
<path fill="#777777" opacity="1.00" d=" M 0.00 0.00 L 2.66 0.00 C 2.23 1.31 1.29 2.35 0.00 2.85 L 0.00 0.00 Z" />
<path fill="#777777" opacity="1.00" d=" M 30.14 0.00 L 32.00 0.00 L 32.00 1.57 C 30.54 1.81 29.92 1.29 30.14 0.00 Z" />
<path fill="#777777" opacity="1.00" d=" M 11.38 6.45 C 14.91 5.10 18.88 7.17 20.80 10.18 C 22.36 12.79 20.99 15.89 21.32 18.72 C 22.64 20.34 24.41 21.53 25.74 23.14 C 26.09 24.41 24.78 25.32 23.86 25.89 C 21.99 25.50 21.05 23.43 19.64 22.27 C 18.37 20.40 15.89 21.59 14.04 21.44 C 10.15 21.99 6.84 18.60 6.14 15.01 C 5.38 11.31 8.18 7.88 11.38 6.45 M 11.24 9.30 C 7.83 11.04 7.68 16.05 10.72 18.23 C 13.31 20.82 18.11 19.27 19.17 15.92 C 21.19 11.54 15.18 6.59 11.24 9.30 Z" />
<path fill="#777777" opacity="1.00" d=" M 0.00 29.66 C 1.52 29.31 2.31 30.86 2.83 32.00 L 0.00 32.00 L 0.00 29.66 Z" />
<path fill="#777777" opacity="1.00" d=" M 30.52 32.00 C 30.10 30.70 30.59 30.04 32.00 30.02 L 32.00 32.00 L 30.52 32.00 Z" />
</g>
<g id="#999999ff">
<path fill="#999999" opacity="1.00" d=" M 2.66 0.00 L 30.14 0.00 C 29.92 1.29 30.54 1.81 32.00 1.57 L 32.00 30.02 C 30.59 30.04 30.10 30.70 30.52 32.00 L 2.83 32.00 C 2.31 30.86 1.52 29.31 0.00 29.66 L 0.00 2.85 C 1.29 2.35 2.23 1.31 2.66 0.00 M 2.27 2.32 C 1.73 10.22 2.11 18.16 1.98 26.08 C 2.03 27.44 1.92 29.92 3.87 29.89 C 11.27 30.17 18.69 29.93 26.09 30.02 C 27.49 29.94 30.05 30.15 29.87 28.02 C 30.09 20.00 30.11 11.94 29.87 3.92 C 29.80 1.43 26.67 2.16 25.02 1.97 C 17.44 2.17 9.84 1.63 2.27 2.32 Z" />
</g>
<g id="#f0f0f0ff">
<path fill="#f0f0f0" opacity="1.00" d=" M 2.27 2.32 C 9.84 1.63 17.44 2.17 25.02 1.97 C 26.67 2.16 29.80 1.43 29.87 3.92 C 30.11 11.94 30.09 20.00 29.87 28.02 C 30.05 30.15 27.49 29.94 26.09 30.02 C 18.69 29.93 11.27 30.17 3.87 29.89 C 1.92 29.92 2.03 27.44 1.98 26.08 C 2.11 18.16 1.73 10.22 2.27 2.32 M 11.38 6.45 C 8.18 7.88 5.38 11.31 6.14 15.01 C 6.84 18.60 10.15 21.99 14.04 21.44 C 15.89 21.59 18.37 20.40 19.64 22.27 C 21.05 23.43 21.99 25.50 23.86 25.89 C 24.78 25.32 26.09 24.41 25.74 23.14 C 24.41 21.53 22.64 20.34 21.32 18.72 C 20.99 15.89 22.36 12.79 20.80 10.18 C 18.88 7.17 14.91 5.10 11.38 6.45 Z" />
<path fill="#f0f0f0" opacity="1.00" d=" M 11.24 9.30 C 15.18 6.59 21.19 11.54 19.17 15.92 C 18.11 19.27 13.31 20.82 10.72 18.23 C 7.68 16.05 7.83 11.04 11.24 9.30 Z" />
</g>
</svg>
