<?xml version="1.0" encoding="UTF-8" ?>
<!DOCTYPE svg PUBLIC "-//W3C//DTD SVG 1.1//EN" "http://www.w3.org/Graphics/SVG/1.1/DTD/svg11.dtd">
<svg width="256pt" height="256pt" viewBox="0 0 256 256" version="1.1" xmlns="http://www.w3.org/2000/svg">
<g id="#a06dd7ff">
<path fill="#a06dd7" opacity="1.00" d=" M 0.00 0.00 L 107.47 0.00 C 104.59 1.63 101.29 1.95 98.03 2.07 C 94.61 1.94 95.03 8.53 90.00 4.93 C 86.13 5.62 81.76 4.09 78.15 6.06 C 70.39 8.69 62.12 7.61 54.10 8.12 C 51.34 9.18 49.88 12.89 45.98 10.95 C 41.61 12.24 35.08 9.74 31.91 13.88 C 26.93 18.37 18.29 14.38 14.60 20.73 C 9.74 21.08 4.87 21.02 0.00 21.01 L 0.00 0.00 Z" />
</g>
<g id="#9b6ad6ff">
<path fill="#9b6ad6" opacity="1.00" d=" M 107.47 0.00 L 163.44 0.00 C 158.36 5.92 149.60 0.06 143.11 2.02 C 141.42 3.68 139.79 5.42 137.72 6.62 C 128.24 4.96 118.89 14.31 110.06 8.96 C 107.85 11.06 105.42 12.41 102.34 11.42 C 99.95 14.88 95.93 13.07 92.59 14.35 C 85.61 15.21 77.41 21.12 70.92 16.04 C 68.09 17.78 66.25 21.40 62.10 20.24 C 55.86 23.96 48.14 22.22 41.50 25.39 C 36.89 27.63 30.83 22.72 27.18 27.16 C 25.84 28.52 23.93 27.16 22.32 27.44 C 20.74 28.43 19.26 29.57 17.67 30.56 C 11.59 29.75 5.56 31.94 0.00 34.21 L 0.00 21.01 C 4.87 21.02 9.74 21.08 14.60 20.73 C 18.29 14.38 26.93 18.37 31.91 13.88 C 35.08 9.74 41.61 12.24 45.98 10.95 C 49.88 12.89 51.34 9.18 54.10 8.12 C 62.12 7.61 70.39 8.69 78.15 6.06 C 81.76 4.09 86.13 5.62 90.00 4.93 C 95.03 8.53 94.61 1.94 98.03 2.07 C 101.29 1.95 104.59 1.63 107.47 0.00 Z" />
</g>
<g id="#9767d4ff">
<path fill="#9767d4" opacity="1.00" d=" M 163.44 0.00 L 199.38 0.00 C 195.15 -0.47 192.46 1.52 190.67 4.85 C 184.78 5.65 178.76 2.63 173.08 5.04 C 169.78 6.58 163.71 4.08 163.11 8.96 C 163.62 9.99 164.28 10.93 164.83 11.94 C 162.57 13.26 160.43 12.95 159.46 10.35 C 155.67 9.96 151.87 9.85 148.08 10.03 C 148.31 11.37 148.68 12.69 148.92 14.04 C 146.87 14.42 145.25 13.40 143.81 12.09 C 140.49 10.88 138.15 16.53 135.18 13.88 C 129.75 11.02 124.87 14.99 120.22 17.19 C 115.56 19.61 108.46 15.57 104.74 19.80 C 106.30 20.20 113.60 18.97 109.72 21.72 C 104.57 21.47 99.40 22.01 94.27 21.38 C 92.81 22.10 91.51 23.08 90.08 23.85 C 88.19 21.78 84.98 22.20 82.80 23.62 C 78.74 22.87 75.80 26.03 72.53 27.78 C 71.75 25.94 69.80 25.83 68.08 25.96 C 68.31 27.33 68.68 28.67 68.92 30.04 C 66.87 30.42 65.25 29.40 63.81 28.09 C 60.49 26.88 58.15 32.53 55.18 29.88 C 49.72 27.03 44.84 31.12 39.99 33.01 C 35.40 35.65 28.40 31.60 24.74 35.80 C 26.34 36.19 33.57 34.97 29.72 37.73 C 25.95 37.86 21.96 36.93 18.30 38.20 C 17.03 38.84 16.05 37.49 14.93 37.12 C 13.18 37.76 11.73 38.99 10.08 39.85 C 7.21 36.69 3.31 39.92 0.00 40.27 L 0.00 34.21 C 5.56 31.94 11.59 29.75 17.67 30.56 C 19.26 29.57 20.74 28.43 22.32 27.44 C 23.93 27.16 25.84 28.52 27.18 27.16 C 30.83 22.72 36.89 27.63 41.50 25.39 C 48.14 22.22 55.86 23.96 62.10 20.24 C 66.25 21.40 68.09 17.78 70.92 16.04 C 77.41 21.12 85.61 15.21 92.59 14.35 C 95.93 13.07 99.95 14.88 102.34 11.42 C 105.42 12.41 107.85 11.06 110.06 8.96 C 118.89 14.31 128.24 4.96 137.72 6.62 C 139.79 5.42 141.42 3.68 143.11 2.02 C 149.60 0.06 158.36 5.92 163.44 0.00 Z" />
</g>
<g id="#9365d2ff">
<path fill="#9365d2" opacity="1.00" d=" M 199.38 0.00 L 256.00 0.00 L 256.00 0.95 C 251.00 -0.58 247.13 2.04 243.09 4.16 C 241.08 5.58 239.45 2.18 237.35 3.43 C 233.01 5.34 227.50 3.46 223.91 6.87 C 219.95 10.27 214.66 5.69 210.48 8.20 C 206.45 5.95 203.31 13.40 200.00 10.00 C 199.00 8.66 197.02 8.68 195.95 9.92 C 188.19 16.63 176.95 15.00 167.68 17.71 C 164.94 19.27 161.79 21.88 158.88 19.17 C 153.77 21.08 147.46 19.34 143.30 23.30 C 139.25 25.88 134.51 21.79 130.48 24.20 C 126.45 21.95 123.31 29.40 120.00 26.00 C 116.89 23.04 114.15 28.16 111.29 29.21 C 104.98 30.92 98.53 32.43 91.96 32.96 C 88.87 33.43 85.47 33.79 83.18 36.15 C 77.09 39.01 68.43 33.91 63.31 39.31 C 59.27 41.89 54.51 37.78 50.48 40.20 C 46.45 37.94 43.31 45.40 40.00 42.00 C 37.42 39.21 34.77 43.27 32.47 44.45 C 22.22 48.57 10.98 49.46 0.00 49.02 L 0.00 40.27 C 3.31 39.92 7.21 36.69 10.08 39.85 C 11.73 38.99 13.18 37.76 14.93 37.12 C 16.05 37.49 17.03 38.84 18.30 38.20 C 21.96 36.93 25.95 37.86 29.72 37.73 C 33.57 34.97 26.34 36.19 24.74 35.80 C 28.40 31.60 35.40 35.65 39.99 33.01 C 44.84 31.12 49.72 27.03 55.18 29.88 C 58.15 32.53 60.49 26.88 63.81 28.09 C 65.25 29.40 66.87 30.42 68.92 30.04 C 68.68 28.67 68.31 27.33 68.08 25.96 C 69.80 25.83 71.75 25.94 72.53 27.78 C 75.80 26.03 78.74 22.87 82.80 23.62 C 84.98 22.20 88.19 21.78 90.08 23.85 C 91.51 23.08 92.81 22.10 94.27 21.38 C 99.40 22.01 104.57 21.47 109.72 21.72 C 113.60 18.97 106.30 20.20 104.74 19.80 C 108.46 15.57 115.56 19.61 120.22 17.19 C 124.87 14.99 129.75 11.02 135.18 13.88 C 138.15 16.53 140.49 10.88 143.81 12.09 C 145.25 13.40 146.87 14.42 148.92 14.04 C 148.68 12.69 148.31 11.37 148.08 10.03 C 151.87 9.85 155.67 9.96 159.46 10.35 C 160.43 12.95 162.57 13.26 164.83 11.94 C 164.28 10.93 163.62 9.99 163.11 8.96 C 163.71 4.08 169.78 6.58 173.08 5.04 C 178.76 2.63 184.78 5.65 190.67 4.85 C 192.46 1.52 195.15 -0.47 199.38 0.00 Z" />
</g>
<g id="#8f62d2ff">
<path fill="#8f62d2" opacity="1.00" d=" M 243.09 4.16 C 247.13 2.04 251.00 -0.58 256.00 0.95 L 256.00 7.88 C 251.16 7.46 246.99 9.79 242.87 11.86 C 239.94 13.32 239.82 8.46 237.11 8.96 C 235.34 9.94 234.78 13.47 232.33 12.54 C 228.75 11.14 226.12 14.70 222.99 15.64 C 219.00 15.43 215.01 14.94 211.08 16.08 C 208.01 17.06 205.81 20.21 202.06 19.04 C 200.58 18.41 199.73 16.63 198.16 16.32 C 196.03 17.49 194.43 20.58 191.67 19.41 C 188.09 18.37 185.89 22.84 182.85 23.86 C 177.38 25.23 171.79 24.36 166.24 24.34 C 163.88 25.61 161.93 30.06 158.95 27.03 C 154.73 23.45 151.65 27.88 148.06 29.11 C 143.22 31.85 137.18 30.14 132.45 33.22 C 126.53 34.02 120.33 33.87 114.44 35.28 C 113.45 37.43 112.42 39.56 111.71 41.82 C 110.56 42.18 109.38 42.44 108.17 42.42 C 106.86 40.86 105.38 39.44 103.70 38.29 C 97.30 36.84 91.60 41.83 85.27 40.17 C 83.97 42.13 82.33 45.55 79.55 43.46 C 73.84 39.17 68.85 45.48 63.79 47.46 C 58.66 48.40 53.13 46.96 48.28 49.22 C 44.84 50.74 41.13 50.34 38.15 48.32 C 35.75 50.34 33.41 52.68 30.08 51.18 C 24.66 55.83 16.80 53.22 10.30 55.38 C 8.39 56.23 5.22 53.72 4.51 56.41 C 4.07 58.73 1.96 59.57 0.00 60.38 L 0.00 49.02 C 10.98 49.46 22.22 48.57 32.47 44.45 C 34.77 43.27 37.42 39.21 40.00 42.00 C 43.31 45.40 46.45 37.94 50.48 40.20 C 54.51 37.78 59.27 41.89 63.31 39.31 C 68.43 33.91 77.09 39.01 83.18 36.15 C 85.47 33.79 88.87 33.43 91.96 32.96 C 98.53 32.43 104.98 30.92 111.29 29.21 C 114.15 28.16 116.89 23.04 120.00 26.00 C 123.31 29.40 126.45 21.95 130.48 24.20 C 134.51 21.79 139.25 25.88 143.30 23.30 C 147.46 19.34 153.77 21.08 158.88 19.17 C 161.79 21.88 164.94 19.27 167.68 17.71 C 176.95 15.00 188.19 16.63 195.95 9.92 C 197.02 8.68 199.00 8.66 200.00 10.00 C 203.31 13.40 206.45 5.95 210.48 8.20 C 214.66 5.69 219.95 10.27 223.91 6.87 C 227.50 3.46 233.01 5.34 237.35 3.43 C 239.45 2.18 241.08 5.58 243.09 4.16 Z" />
</g>
<g id="#8b61d1ff">
<path fill="#8b61d1" opacity="1.00" d=" M 242.87 11.86 C 246.99 9.79 251.16 7.46 256.00 7.88 L 256.00 15.05 C 251.38 17.42 246.05 16.64 241.08 17.15 C 237.30 18.34 234.34 22.37 230.11 21.31 C 226.47 23.08 222.52 24.07 218.86 25.79 C 214.58 25.95 210.15 23.97 206.10 26.12 C 201.07 28.71 194.95 26.69 190.00 28.98 C 185.49 34.65 177.05 30.50 170.86 32.74 C 166.59 33.13 162.28 37.33 158.23 34.46 C 155.01 36.28 151.46 40.93 147.98 37.10 C 143.42 39.52 138.93 44.53 133.45 42.80 C 129.16 41.56 124.07 44.24 120.33 40.50 C 118.41 43.38 114.42 39.82 111.71 41.82 C 112.42 39.56 113.45 37.43 114.44 35.28 C 120.33 33.87 126.53 34.02 132.45 33.22 C 137.18 30.14 143.22 31.85 148.06 29.11 C 151.65 27.88 154.73 23.45 158.95 27.03 C 161.93 30.06 163.88 25.61 166.24 24.34 C 171.79 24.36 177.38 25.23 182.85 23.86 C 185.89 22.84 188.09 18.37 191.67 19.41 C 194.43 20.58 196.03 17.49 198.16 16.32 C 199.73 16.63 200.58 18.41 202.06 19.04 C 205.81 20.21 208.01 17.06 211.08 16.08 C 215.01 14.94 219.00 15.43 222.99 15.64 C 226.12 14.70 228.75 11.14 232.33 12.54 C 234.78 13.47 235.34 9.94 237.11 8.96 C 239.82 8.46 239.94 13.32 242.87 11.86 Z" />
<path fill="#8b61d1" opacity="1.00" d=" M 85.27 40.17 C 91.60 41.83 97.30 36.84 103.70 38.29 C 105.38 39.44 106.86 40.86 108.17 42.42 C 106.32 43.24 104.53 44.24 102.52 44.59 C 101.69 46.08 101.05 47.70 99.79 48.89 C 97.36 49.41 95.30 46.75 92.90 47.76 C 90.29 47.87 89.85 50.87 88.69 52.66 C 85.95 52.46 83.78 50.90 81.69 49.29 C 77.64 47.87 74.93 55.60 70.97 52.30 C 66.73 53.70 61.07 53.44 58.67 57.77 C 54.80 58.01 50.71 55.86 47.15 58.04 C 41.15 59.99 34.43 59.06 28.56 61.40 C 24.06 62.79 19.54 67.13 14.87 64.21 C 9.74 64.25 4.90 66.77 0.00 68.18 L 0.00 60.38 C 1.96 59.57 4.07 58.73 4.51 56.41 C 5.22 53.72 8.39 56.23 10.30 55.38 C 16.80 53.22 24.66 55.83 30.08 51.18 C 33.41 52.68 35.75 50.34 38.15 48.32 C 41.13 50.34 44.84 50.74 48.28 49.22 C 53.13 46.96 58.66 48.40 63.79 47.46 C 68.85 45.48 73.84 39.17 79.55 43.46 C 82.33 45.55 83.97 42.13 85.27 40.17 Z" />
</g>
<g id="#885ecfff">
<path fill="#885ecf" opacity="1.00" d=" M 241.08 17.15 C 246.05 16.64 251.38 17.42 256.00 15.05 L 256.00 22.85 C 251.96 23.67 247.08 22.79 244.00 26.00 C 239.72 30.73 231.98 23.77 227.71 28.69 C 217.59 34.59 205.47 33.84 194.19 35.22 C 190.40 38.80 184.77 36.90 180.50 39.39 C 175.24 39.73 169.92 39.14 164.71 39.78 C 160.05 40.76 155.76 44.71 150.88 43.27 C 149.56 42.74 148.66 44.09 147.73 44.73 C 146.01 46.64 143.33 44.66 141.16 45.06 C 139.22 47.43 142.01 50.79 140.19 53.32 L 139.22 53.05 C 137.08 49.75 134.71 46.57 131.87 43.84 C 132.27 43.58 133.05 43.06 133.45 42.80 C 138.93 44.53 143.42 39.52 147.98 37.10 C 151.46 40.93 155.01 36.28 158.23 34.46 C 162.28 37.33 166.59 33.13 170.86 32.74 C 177.05 30.50 185.49 34.65 190.00 28.98 C 194.95 26.69 201.07 28.71 206.10 26.12 C 210.15 23.97 214.58 25.95 218.86 25.79 C 222.52 24.07 226.47 23.08 230.11 21.31 C 234.34 22.37 237.30 18.34 241.08 17.15 Z" />
</g>
<g id="#845cceff">
<path fill="#845cce" opacity="1.00" d=" M 244.00 26.00 C 247.08 22.79 251.96 23.67 256.00 22.85 L 256.00 34.91 C 251.25 35.03 246.38 34.91 241.90 36.68 C 236.46 35.63 231.38 38.81 226.01 39.15 C 220.59 40.67 215.01 41.57 209.70 43.52 C 206.67 42.83 203.97 44.00 201.16 44.96 C 198.35 40.80 194.78 45.37 191.65 46.55 C 184.56 45.71 179.03 51.50 171.98 50.83 C 167.05 49.57 163.08 53.75 158.29 52.43 C 153.29 54.38 147.07 53.75 143.17 57.92 C 142.24 56.34 141.64 54.52 140.19 53.32 C 142.01 50.79 139.22 47.43 141.16 45.06 C 143.33 44.66 146.01 46.64 147.73 44.73 C 148.66 44.09 149.56 42.74 150.88 43.27 C 155.76 44.71 160.05 40.76 164.71 39.78 C 169.92 39.14 175.24 39.73 180.50 39.39 C 184.77 36.90 190.40 38.80 194.19 35.22 C 205.47 33.84 217.59 34.59 227.71 28.69 C 231.98 23.77 239.72 30.73 244.00 26.00 Z" />
</g>
<g id="#8059ccff">
<path fill="#8059cc" opacity="1.00" d=" M 241.90 36.68 C 246.38 34.91 251.25 35.03 256.00 34.91 L 256.00 42.65 C 251.81 44.26 247.66 46.34 242.99 46.00 C 240.94 45.83 239.28 44.21 237.22 44.17 C 234.21 45.19 239.92 47.99 236.67 48.66 C 222.65 51.46 208.21 50.45 194.18 53.22 C 192.39 54.51 190.51 55.67 188.42 56.43 C 188.36 57.63 188.76 58.95 187.83 59.94 C 183.21 60.10 178.56 60.22 174.00 59.43 C 169.24 61.53 163.45 63.32 158.64 60.46 C 153.90 58.24 160.09 68.64 152.47 64.84 C 149.70 65.99 146.58 64.60 143.83 65.72 L 143.04 65.97 C 143.11 61.65 140.98 57.77 138.98 54.08 L 139.22 53.05 L 140.19 53.32 C 141.64 54.52 142.24 56.34 143.17 57.92 C 147.07 53.75 153.29 54.38 158.29 52.43 C 163.08 53.75 167.05 49.57 171.98 50.83 C 179.03 51.50 184.56 45.71 191.65 46.55 C 194.78 45.37 198.35 40.80 201.16 44.96 C 203.97 44.00 206.67 42.83 209.70 43.52 C 215.01 41.57 220.59 40.67 226.01 39.15 C 231.38 38.81 236.46 35.63 241.90 36.68 Z" />
</g>
<g id="#875fceff">
<path fill="#875fce" opacity="1.00" d=" M 120.33 40.50 C 124.07 44.24 129.16 41.56 133.45 42.80 C 133.05 43.06 132.27 43.58 131.87 43.84 C 130.34 44.05 128.89 44.51 127.82 45.67 C 121.92 43.99 115.46 43.21 109.63 45.54 C 103.64 47.14 100.08 52.66 96.09 56.96 C 94.82 57.32 93.69 57.97 92.63 58.73 C 91.16 58.66 89.11 57.56 88.58 59.63 C 87.61 62.39 85.76 59.41 86.54 57.82 C 84.62 57.75 82.62 62.09 81.60 59.41 C 77.47 60.04 72.91 60.71 69.74 63.73 C 67.67 66.03 64.16 64.47 61.94 63.14 C 60.30 63.66 58.98 65.00 57.32 65.40 C 53.61 63.49 48.13 62.48 47.49 67.65 C 42.72 68.10 37.90 68.39 33.17 69.21 C 31.03 70.81 28.79 72.46 26.03 72.73 C 21.06 70.43 15.40 71.73 10.16 72.04 C 8.69 72.92 8.00 74.65 6.72 75.77 C 5.04 75.85 1.68 76.00 0.00 76.08 L 0.00 68.18 C 4.90 66.77 9.74 64.25 14.87 64.21 C 19.54 67.13 24.06 62.79 28.56 61.40 C 34.43 59.06 41.15 59.99 47.15 58.04 C 50.71 55.86 54.80 58.01 58.67 57.77 C 61.07 53.44 66.73 53.70 70.97 52.30 C 74.93 55.60 77.64 47.87 81.69 49.29 C 83.78 50.90 85.95 52.46 88.69 52.66 C 89.85 50.87 90.29 47.87 92.90 47.76 C 95.30 46.75 97.36 49.41 99.79 48.89 C 101.05 47.70 101.69 46.08 102.52 44.59 C 104.53 44.24 106.32 43.24 108.17 42.42 C 109.38 42.44 110.56 42.18 111.71 41.82 C 114.42 39.82 118.41 43.38 120.33 40.50 Z" />
</g>
<g id="#7b56caff">
<path fill="#7b56ca" opacity="1.00" d=" M 242.99 46.00 C 247.66 46.34 251.81 44.26 256.00 42.65 L 256.00 52.90 C 250.06 53.16 243.14 53.17 238.57 57.54 C 236.32 57.78 231.81 58.26 229.56 58.50 C 228.37 59.57 227.68 61.45 226.08 61.91 C 220.95 58.23 214.64 60.94 209.04 61.97 C 209.69 62.70 210.35 63.42 211.00 64.14 C 209.04 64.30 207.37 63.51 205.95 62.23 C 202.18 64.68 197.38 63.41 193.19 64.17 C 191.84 65.39 192.12 67.33 191.67 68.93 C 187.08 69.39 182.57 68.26 178.02 68.10 C 170.32 68.79 162.80 70.64 155.27 72.28 C 155.08 73.52 154.92 74.77 154.77 76.02 C 151.68 73.67 147.68 74.30 144.03 73.99 C 143.98 71.23 143.91 68.47 143.83 65.72 C 146.58 64.60 149.70 65.99 152.47 64.84 C 160.09 68.64 153.90 58.24 158.64 60.46 C 163.45 63.32 169.24 61.53 174.00 59.43 C 178.56 60.22 183.21 60.10 187.83 59.94 C 188.76 58.95 188.36 57.63 188.42 56.43 C 190.51 55.67 192.39 54.51 194.18 53.22 C 208.21 50.45 222.65 51.46 236.67 48.66 C 239.92 47.99 234.21 45.19 237.22 44.17 C 239.28 44.21 240.94 45.83 242.99 46.00 Z" />
</g>
<g id="#fcfbfbff">
<path fill="#fcfbfb" opacity="1.00" d=" M 109.63 45.54 C 115.46 43.21 121.92 43.99 127.82 45.67 C 132.03 47.79 135.50 50.96 138.98 54.08 C 140.98 57.77 143.11 61.65 143.04 65.97 C 142.96 97.31 143.01 128.66 143.00 160.00 C 142.99 165.41 142.87 170.84 143.24 176.24 C 142.78 178.55 141.95 180.77 141.23 183.00 C 138.97 185.66 136.46 188.10 133.62 190.13 C 128.18 190.86 122.11 190.07 118.19 185.81 C 116.20 182.55 113.96 179.16 113.70 175.24 C 114.20 147.75 114.17 120.23 113.72 92.74 C 114.87 88.42 120.18 88.40 123.02 91.09 C 123.10 91.50 123.27 92.32 123.35 92.73 C 122.69 107.15 123.09 121.58 123.00 136.00 C 123.48 148.73 122.02 161.67 123.63 174.29 C 124.14 176.98 126.54 180.82 129.72 179.79 C 131.42 178.32 133.29 176.69 133.29 174.25 C 134.88 159.24 133.59 144.07 134.00 129.00 C 133.59 108.58 134.83 88.06 133.39 67.71 C 133.29 67.29 133.08 66.45 132.98 66.02 C 131.57 55.79 117.93 50.94 109.98 56.99 C 106.08 58.53 104.78 62.95 104.03 66.65 L 103.87 67.65 C 102.24 77.00 103.20 86.55 103.01 96.00 C 103.00 109.34 102.98 122.67 103.01 136.00 C 103.59 151.05 101.90 166.31 103.58 181.27 C 104.93 188.04 108.21 194.81 113.88 198.93 C 117.29 200.95 121.03 202.35 124.85 203.34 C 127.07 204.48 130.51 205.60 132.10 203.10 C 132.86 202.99 134.37 202.76 135.12 202.65 C 144.98 200.60 152.44 191.08 153.31 181.24 C 154.69 151.47 153.97 121.54 153.73 91.73 C 153.55 88.54 154.88 85.08 158.08 84.01 C 160.67 83.29 162.29 85.64 163.77 87.31 C 164.11 92.87 164.00 98.45 164.07 104.02 C 164.01 108.01 164.00 112.00 164.03 115.99 C 164.28 136.41 163.43 156.87 164.34 177.27 C 164.28 177.69 164.16 178.53 164.10 178.95 C 163.70 181.25 163.18 183.54 162.86 185.87 C 161.75 190.38 159.66 194.54 157.91 198.82 C 152.31 206.39 143.86 212.24 134.39 213.47 C 123.03 215.63 110.93 211.02 103.03 202.78 C 100.37 199.42 97.88 195.92 95.98 192.08 C 94.47 186.89 93.21 181.62 92.74 176.23 C 92.88 170.81 93.08 165.41 92.96 159.99 C 93.16 148.73 92.70 137.46 93.22 126.22 C 94.72 106.14 94.00 85.89 93.75 65.76 C 94.08 62.72 95.20 59.86 96.09 56.96 C 100.08 52.66 103.64 47.14 109.63 45.54 Z" />
</g>
<g id="#8b6fbcff">
<path fill="#8b6fbc" opacity="1.00" d=" M 127.82 45.67 C 128.89 44.51 130.34 44.05 131.87 43.84 C 134.71 46.57 137.08 49.75 139.22 53.05 L 138.98 54.08 C 135.50 50.96 132.03 47.79 127.82 45.67 Z" />
</g>
<g id="#7653c9ff">
<path fill="#7653c9" opacity="1.00" d=" M 238.57 57.54 C 243.14 53.17 250.06 53.16 256.00 52.90 L 256.00 67.91 C 250.88 68.95 244.24 67.00 240.16 71.12 C 235.94 73.56 230.94 72.64 226.35 72.40 C 223.39 73.68 220.58 76.47 217.14 75.72 C 212.00 74.33 206.65 76.65 202.21 79.13 C 200.15 80.77 198.84 75.28 196.69 77.65 C 193.23 80.73 188.81 80.80 184.48 81.42 C 182.38 86.21 176.82 82.85 173.40 81.38 C 172.57 82.51 171.80 83.69 170.79 84.68 C 168.91 84.52 167.03 84.45 165.18 84.89 C 163.24 79.34 154.33 82.10 152.62 86.84 C 149.43 89.52 147.07 83.41 143.98 85.94 C 143.98 81.96 144.00 77.97 144.03 73.99 C 147.68 74.30 151.68 73.67 154.77 76.02 C 154.92 74.77 155.08 73.52 155.27 72.28 C 162.80 70.64 170.32 68.79 178.02 68.10 C 182.57 68.26 187.08 69.39 191.67 68.93 C 192.12 67.33 191.84 65.39 193.19 64.17 C 197.38 63.41 202.18 64.68 205.95 62.23 C 207.37 63.51 209.04 64.30 211.00 64.14 C 210.35 63.42 209.69 62.70 209.04 61.97 C 214.64 60.94 220.95 58.23 226.08 61.91 C 227.68 61.45 228.37 59.57 229.56 58.50 C 231.81 58.26 236.32 57.78 238.57 57.54 Z" />
</g>
<g id="#835fc8ff">
<path fill="#835fc8" opacity="1.00" d=" M 109.98 56.99 C 117.93 50.94 131.57 55.79 132.98 66.02 C 130.96 64.82 128.42 62.96 128.64 66.76 C 124.71 66.63 120.81 67.77 116.90 67.28 C 112.74 66.78 109.23 69.83 105.12 69.89 C 104.80 68.80 104.44 67.72 104.03 66.65 C 104.78 62.95 106.08 58.53 109.98 56.99 Z" />
</g>
<g id="#8567baff">
<path fill="#8567ba" opacity="1.00" d=" M 92.63 58.73 C 93.69 57.97 94.82 57.32 96.09 56.96 C 95.20 59.86 94.08 62.72 93.75 65.76 C 93.56 67.31 93.17 70.41 92.98 71.95 L 92.00 72.01 C 91.99 71.48 91.96 70.42 91.94 69.88 C 91.96 66.16 91.77 62.39 92.63 58.73 Z" />
</g>
<g id="#825bcdff">
<path fill="#825bcd" opacity="1.00" d=" M 81.60 59.41 C 82.62 62.09 84.62 57.75 86.54 57.82 C 85.76 59.41 87.61 62.39 88.58 59.63 C 89.11 57.56 91.16 58.66 92.63 58.73 C 91.77 62.39 91.96 66.16 91.94 69.88 C 90.38 70.98 89.18 73.18 86.99 72.80 C 80.81 72.47 75.19 75.38 69.60 77.55 C 63.83 78.40 57.97 76.06 52.28 77.29 C 48.27 78.24 47.00 83.83 42.01 82.08 C 38.75 81.37 36.14 83.50 33.12 83.85 C 30.16 81.95 26.55 81.95 23.13 82.00 C 25.28 85.97 20.00 86.94 17.11 86.97 C 15.44 86.89 15.35 84.52 13.85 84.04 C 11.02 83.32 11.30 87.31 9.77 88.80 C 6.60 89.75 3.27 89.81 0.00 90.13 L 0.00 76.08 C 1.68 76.00 5.04 75.85 6.72 75.77 C 8.00 74.65 8.69 72.92 10.16 72.04 C 15.40 71.73 21.06 70.43 26.03 72.73 C 28.79 72.46 31.03 70.81 33.17 69.21 C 37.90 68.39 42.72 68.10 47.49 67.65 C 48.13 62.48 53.61 63.49 57.32 65.40 C 58.98 65.00 60.30 63.66 61.94 63.14 C 64.16 64.47 67.67 66.03 69.74 63.73 C 72.91 60.71 77.47 60.04 81.60 59.41 Z" />
</g>
<g id="#7956c9ff">
<path fill="#7956c9" opacity="1.00" d=" M 128.64 66.76 C 128.42 62.96 130.96 64.82 132.98 66.02 C 133.08 66.45 133.29 67.29 133.39 67.71 C 133.00 74.50 132.97 81.31 132.96 88.11 C 132.40 87.40 131.83 86.71 131.24 86.03 C 130.07 88.41 130.05 93.18 126.24 91.94 C 126.13 91.21 125.89 89.76 125.78 89.04 C 124.83 89.69 123.93 90.40 123.02 91.09 C 120.18 88.40 114.87 88.42 113.72 92.74 C 113.52 93.28 113.11 94.37 112.90 94.92 C 110.77 96.56 106.61 99.70 105.04 95.89 C 105.02 87.22 104.84 78.55 105.12 69.89 C 109.23 69.83 112.74 66.78 116.90 67.28 C 120.81 67.77 124.71 66.63 128.64 66.76 Z" />
</g>
<g id="#f3e7feff">
<path fill="#f3e7fe" opacity="1.00" d=" M 92.98 71.95 C 93.17 70.41 93.56 67.31 93.75 65.76 C 94.00 85.89 94.72 106.14 93.22 126.22 C 93.10 121.40 92.99 116.60 92.82 111.79 C 93.16 98.51 92.97 85.23 92.98 71.95 Z" />
</g>
<g id="#e1dcf3ff">
<path fill="#e1dcf3" opacity="1.00" d=" M 143.04 65.97 L 143.83 65.72 C 143.91 68.47 143.98 71.23 144.03 73.99 C 144.00 77.97 143.98 81.96 143.98 85.94 C 143.95 93.21 143.97 100.48 144.10 107.75 C 144.03 114.42 143.90 121.10 144.06 127.77 C 143.98 137.16 143.96 146.55 144.03 155.94 C 144.02 157.29 144.01 158.65 144.00 160.00 L 143.00 160.00 C 143.01 128.66 142.96 97.31 143.04 65.97 Z" />
</g>
<g id="#7056b6ff">
<path fill="#7056b6" opacity="1.00" d=" M 104.03 66.65 C 104.44 67.72 104.80 68.80 105.12 69.89 C 104.84 78.55 105.02 87.22 105.04 95.89 C 105.10 105.82 104.74 115.77 105.16 125.70 L 104.09 126.04 C 103.92 116.03 104.04 106.01 103.99 96.00 C 104.05 86.55 104.01 77.10 103.87 67.65 L 104.03 66.65 Z" />
</g>
<g id="#a494c2ff">
<path fill="#a494c2" opacity="1.00" d=" M 103.01 96.00 C 103.20 86.55 102.24 77.00 103.87 67.65 C 104.01 77.10 104.05 86.55 103.99 96.00 L 103.01 96.00 Z" />
</g>
<g id="#9485cbff">
<path fill="#9485cb" opacity="1.00" d=" M 133.39 67.71 C 134.83 88.06 133.59 108.58 134.00 129.00 C 133.59 144.07 134.88 159.24 133.29 174.25 C 132.95 166.48 133.00 158.70 133.02 150.93 C 133.04 143.54 132.98 136.17 132.86 128.79 C 133.01 122.12 133.09 115.45 132.89 108.78 C 132.98 101.89 133.10 95.00 132.96 88.11 C 132.97 81.31 133.00 74.50 133.39 67.71 Z" />
</g>
<g id="#704fc7ff">
<path fill="#704fc7" opacity="1.00" d=" M 240.16 71.12 C 244.24 67.00 250.88 68.95 256.00 67.91 L 256.00 80.98 C 250.81 80.91 245.62 80.98 240.44 81.21 C 239.67 83.16 239.14 85.27 237.82 86.95 C 233.33 87.07 228.83 83.74 224.35 85.45 C 220.91 87.03 216.58 85.99 213.69 88.68 C 212.10 90.07 209.77 88.90 207.90 89.66 C 197.25 93.02 185.51 90.99 175.29 95.97 C 174.62 94.08 175.06 90.94 173.10 90.00 C 171.56 92.06 171.00 94.58 170.70 97.09 C 168.82 95.24 167.18 93.15 166.10 90.73 C 165.88 88.77 165.52 86.83 165.18 84.89 C 167.03 84.45 168.91 84.52 170.79 84.68 C 171.80 83.69 172.57 82.51 173.40 81.38 C 176.82 82.85 182.38 86.21 184.48 81.42 C 188.81 80.80 193.23 80.73 196.69 77.65 C 198.84 75.28 200.15 80.77 202.21 79.13 C 206.65 76.65 212.00 74.33 217.14 75.72 C 220.58 76.47 223.39 73.68 226.35 72.40 C 230.94 72.64 235.94 73.56 240.16 71.12 Z" />
</g>
<g id="#7d57cbff">
<path fill="#7d57cb" opacity="1.00" d=" M 86.99 72.80 C 89.18 73.18 90.38 70.98 91.94 69.88 C 91.96 70.42 91.99 71.48 92.00 72.01 C 91.67 74.93 91.19 77.82 90.80 80.73 C 89.31 83.36 87.60 86.19 84.30 86.66 C 83.26 85.82 82.32 84.87 81.21 84.12 C 78.70 86.30 77.60 90.61 73.10 89.28 C 68.92 90.48 64.72 90.07 60.75 88.52 C 57.70 88.50 55.39 91.46 52.29 91.63 C 47.61 92.51 42.53 92.59 38.54 95.49 C 33.57 96.40 28.15 94.93 23.50 97.30 C 15.59 98.54 7.46 98.94 0.00 102.14 L 0.00 90.13 C 3.27 89.81 6.60 89.75 9.77 88.80 C 11.30 87.31 11.02 83.32 13.85 84.04 C 15.35 84.52 15.44 86.89 17.11 86.97 C 20.00 86.94 25.28 85.97 23.13 82.00 C 26.55 81.95 30.16 81.95 33.12 83.85 C 36.14 83.50 38.75 81.37 42.01 82.08 C 47.00 83.83 48.27 78.24 52.28 77.29 C 57.97 76.06 63.83 78.40 69.60 77.55 C 75.19 75.38 80.81 72.47 86.99 72.80 Z" />
</g>
<g id="#7158b3ff">
<path fill="#7158b3" opacity="1.00" d=" M 92.00 72.01 L 92.98 71.95 C 92.97 85.23 93.16 98.51 92.82 111.79 C 92.28 115.26 91.74 118.73 91.21 122.21 C 91.14 119.46 91.07 116.72 91.01 113.98 C 91.02 108.24 90.94 102.50 90.82 96.77 C 90.89 95.09 90.88 93.42 90.86 91.74 C 90.99 88.07 91.04 84.40 90.80 80.73 C 91.19 77.82 91.67 74.93 92.00 72.01 Z" />
</g>
<g id="#7754c9ff">
<path fill="#7754c9" opacity="1.00" d=" M 84.30 86.66 C 87.60 86.19 89.31 83.36 90.80 80.73 C 91.04 84.40 90.99 88.07 90.86 91.74 C 89.03 93.69 88.67 97.07 85.70 97.72 C 83.95 98.60 82.56 96.77 81.05 96.18 C 77.22 99.55 72.04 101.06 66.99 100.98 C 63.06 100.77 60.70 105.75 56.37 103.47 C 51.86 101.96 47.88 104.12 43.83 105.63 C 39.33 105.93 34.83 106.36 30.41 107.25 C 30.16 110.79 25.90 111.53 22.98 110.99 C 17.41 111.69 11.29 110.95 6.54 114.46 C 4.91 114.63 1.64 114.96 0.00 115.13 L 0.00 102.14 C 7.46 98.94 15.59 98.54 23.50 97.30 C 28.15 94.93 33.57 96.40 38.54 95.49 C 42.53 92.59 47.61 92.51 52.29 91.63 C 55.39 91.46 57.70 88.50 60.75 88.52 C 64.72 90.07 68.92 90.48 73.10 89.28 C 77.60 90.61 78.70 86.30 81.21 84.12 C 82.32 84.87 83.26 85.82 84.30 86.66 Z" />
</g>
<g id="#6b4cc4ff">
<path fill="#6b4cc4" opacity="1.00" d=" M 240.44 81.21 C 245.62 80.98 250.81 80.91 256.00 80.98 L 256.00 90.92 C 251.37 90.04 246.77 91.18 243.46 94.46 C 241.40 96.27 239.62 93.83 238.73 92.11 C 233.28 96.28 226.31 98.04 219.50 97.81 C 214.85 99.48 210.05 98.41 205.29 98.19 C 203.37 100.38 202.37 104.25 198.02 102.14 C 192.22 101.59 187.75 106.35 181.97 106.00 C 176.81 106.53 171.54 107.15 166.38 106.47 C 165.92 105.56 165.47 104.65 165.03 103.73 C 165.48 99.46 164.03 94.73 166.10 90.73 C 167.18 93.15 168.82 95.24 170.70 97.09 C 171.00 94.58 171.56 92.06 173.10 90.00 C 175.06 90.94 174.62 94.08 175.29 95.97 C 185.51 90.99 197.25 93.02 207.90 89.66 C 209.77 88.90 212.10 90.07 213.69 88.68 C 216.58 85.99 220.91 87.03 224.35 85.45 C 228.83 83.74 233.33 87.07 237.82 86.95 C 239.14 85.27 239.67 83.16 240.44 81.21 Z" />
</g>
<g id="#7259b7ff">
<path fill="#7259b7" opacity="1.00" d=" M 152.62 86.84 C 154.33 82.10 163.24 79.34 165.18 84.89 C 165.52 86.83 165.88 88.77 166.10 90.73 C 164.03 94.73 165.48 99.46 165.03 103.73 L 164.07 104.02 C 164.00 98.45 164.11 92.87 163.77 87.31 C 162.29 85.64 160.67 83.29 158.08 84.01 C 154.88 85.08 153.55 88.54 153.73 91.73 C 153.34 92.87 152.98 94.02 152.65 95.18 C 152.22 92.39 151.81 89.57 152.62 86.84 Z" />
</g>
<g id="#6d4fc4ff">
<path fill="#6d4fc4" opacity="1.00" d=" M 143.98 85.94 C 147.07 83.41 149.43 89.52 152.62 86.84 C 151.81 89.57 152.22 92.39 152.65 95.18 C 152.90 100.10 153.06 105.03 153.00 109.96 C 149.57 111.15 146.76 109.86 144.10 107.75 C 143.97 100.48 143.95 93.21 143.98 85.94 Z" />
</g>
<g id="#6e50c3ff">
<path fill="#6e50c3" opacity="1.00" d=" M 131.24 86.03 C 131.83 86.71 132.40 87.40 132.96 88.11 C 133.10 95.00 132.98 101.89 132.89 108.78 C 131.78 110.09 130.80 111.50 129.70 112.83 C 126.44 112.96 124.36 111.02 124.21 107.77 C 123.80 102.78 124.69 97.62 123.35 92.73 C 123.27 92.32 123.10 91.50 123.02 91.09 C 123.93 90.40 124.83 89.69 125.78 89.04 C 125.89 89.76 126.13 91.21 126.24 91.94 C 130.05 93.18 130.07 88.41 131.24 86.03 Z" />
</g>
<g id="#6649c3ff">
<path fill="#6649c3" opacity="1.00" d=" M 243.46 94.46 C 246.77 91.18 251.37 90.04 256.00 90.92 L 256.00 99.91 C 250.14 98.01 245.87 103.66 240.10 101.26 C 233.58 104.34 226.30 104.34 219.32 105.40 C 213.41 109.51 205.62 107.08 199.24 110.28 C 199.16 110.67 199.00 111.45 198.92 111.83 L 203.92 112.15 C 203.95 112.60 203.99 113.51 204.02 113.96 C 195.86 114.09 187.57 113.52 179.58 115.45 C 174.80 116.78 169.82 116.87 164.95 116.19 L 164.03 115.99 C 164.00 112.00 164.01 108.01 164.07 104.02 L 165.03 103.73 C 165.47 104.65 165.92 105.56 166.38 106.47 C 171.54 107.15 176.81 106.53 181.97 106.00 C 187.75 106.35 192.22 101.59 198.02 102.14 C 202.37 104.25 203.37 100.38 205.29 98.19 C 210.05 98.41 214.85 99.48 219.50 97.81 C 226.31 98.04 233.28 96.28 238.73 92.11 C 239.62 93.83 241.40 96.27 243.46 94.46 Z" />
</g>
<g id="#7250c8ff">
<path fill="#7250c8" opacity="1.00" d=" M 85.70 97.72 C 88.67 97.07 89.03 93.69 90.86 91.74 C 90.88 93.42 90.89 95.09 90.82 96.77 C 88.53 101.42 88.29 106.93 84.80 110.98 C 83.16 110.19 81.98 108.78 80.68 107.56 C 75.62 107.03 70.42 106.51 65.37 107.25 C 64.43 111.17 60.61 112.37 57.72 114.53 C 54.72 111.58 52.49 115.38 49.75 116.70 C 46.24 116.84 42.25 114.68 39.33 117.33 C 29.42 116.74 20.02 121.69 10.16 120.21 C 7.44 123.03 3.74 123.18 0.00 123.10 L 0.00 115.13 C 1.64 114.96 4.91 114.63 6.54 114.46 C 11.29 110.95 17.41 111.69 22.98 110.99 C 25.90 111.53 30.16 110.79 30.41 107.25 C 34.83 106.36 39.33 105.93 43.83 105.63 C 47.88 104.12 51.86 101.96 56.37 103.47 C 60.70 105.75 63.06 100.77 66.99 100.98 C 72.04 101.06 77.22 99.55 81.05 96.18 C 82.56 96.77 83.95 98.60 85.70 97.72 Z" />
</g>
<g id="#6352a4ff">
<path fill="#6352a4" opacity="1.00" d=" M 152.65 95.18 C 152.98 94.02 153.34 92.87 153.73 91.73 C 153.97 121.54 154.69 151.47 153.31 181.24 C 153.14 179.40 152.95 177.56 152.80 175.73 C 153.09 168.08 153.03 160.44 152.90 152.79 C 153.05 144.80 153.05 136.80 152.86 128.81 C 153.00 122.52 153.03 116.24 153.00 109.96 C 153.06 105.03 152.90 100.10 152.65 95.18 Z" />
</g>
<g id="#c0b3edff">
<path fill="#c0b3ed" opacity="1.00" d=" M 112.90 94.92 C 113.11 94.37 113.52 93.28 113.72 92.74 C 114.17 120.23 114.20 147.75 113.70 175.24 C 112.98 170.45 113.00 165.61 112.81 160.79 C 112.88 157.79 112.97 154.82 112.94 151.83 C 113.02 141.49 113.10 131.15 112.91 120.82 C 113.03 112.18 113.09 103.55 112.90 94.92 Z" />
</g>
<g id="#bbaddcff">
<path fill="#bbaddc" opacity="1.00" d=" M 123.35 92.73 C 124.69 97.62 123.80 102.78 124.21 107.77 C 124.06 114.10 123.84 120.45 124.18 126.77 C 124.12 129.84 124.04 132.93 123.98 136.00 L 123.00 136.00 C 123.09 121.58 122.69 107.15 123.35 92.73 Z" />
</g>
<g id="#6b4ec3ff">
<path fill="#6b4ec3" opacity="1.00" d=" M 105.04 95.89 C 106.61 99.70 110.77 96.56 112.90 94.92 C 113.09 103.55 113.03 112.18 112.91 120.82 C 110.53 123.76 108.29 126.81 106.28 130.02 C 105.93 128.57 105.59 127.12 105.16 125.70 C 104.74 115.77 105.10 105.82 105.04 95.89 Z" />
</g>
<g id="#9283b7ff">
<path fill="#9283b7" opacity="1.00" d=" M 103.01 96.00 L 103.99 96.00 C 104.04 106.01 103.92 116.03 104.09 126.04 C 104.03 129.35 104.02 132.68 103.99 136.00 L 103.01 136.00 C 102.98 122.67 103.00 109.34 103.01 96.00 Z" />
</g>
<g id="#6e4ec6ff">
<path fill="#6e4ec6" opacity="1.00" d=" M 84.80 110.98 C 88.29 106.93 88.53 101.42 90.82 96.77 C 90.94 102.50 91.02 108.24 91.01 113.98 C 88.04 115.53 84.28 118.60 81.01 116.33 C 73.88 118.76 66.39 120.07 59.59 123.43 C 50.35 124.29 40.76 123.75 31.63 125.62 C 29.40 126.16 28.83 127.89 29.58 129.89 C 24.80 129.09 19.66 133.89 15.16 130.89 C 13.11 130.04 8.04 128.39 9.03 131.88 C 11.08 132.05 17.33 131.07 13.73 133.81 C 9.14 133.62 4.59 133.07 0.00 132.92 L 0.00 123.10 C 3.74 123.18 7.44 123.03 10.16 120.21 C 20.02 121.69 29.42 116.74 39.33 117.33 C 42.25 114.68 46.24 116.84 49.75 116.70 C 52.49 115.38 54.72 111.58 57.72 114.53 C 60.61 112.37 64.43 111.17 65.37 107.25 C 70.42 106.51 75.62 107.03 80.68 107.56 C 81.98 108.78 83.16 110.19 84.80 110.98 Z" />
</g>
<g id="#6347c2ff">
<path fill="#6347c2" opacity="1.00" d=" M 240.10 101.26 C 245.87 103.66 250.14 98.01 256.00 99.91 L 256.00 105.76 C 253.57 107.29 251.14 108.80 248.70 110.30 C 245.89 110.72 242.84 110.66 240.42 112.33 C 239.83 113.83 239.34 115.36 238.70 116.84 C 231.84 117.22 224.95 116.70 218.12 117.18 C 215.85 118.37 213.48 119.45 210.89 119.63 C 204.84 119.66 199.24 122.52 193.32 123.38 C 190.16 126.05 186.17 127.21 181.99 126.99 C 177.02 130.15 176.69 125.71 175.61 123.14 C 172.78 123.77 171.41 127.57 168.36 127.95 C 168.40 125.23 165.42 125.49 165.10 122.82 C 165.06 121.16 164.99 117.84 164.95 116.19 C 169.82 116.87 174.80 116.78 179.58 115.45 C 187.57 113.52 195.86 114.09 204.02 113.96 C 203.99 113.51 203.95 112.60 203.92 112.15 L 198.92 111.83 C 199.00 111.45 199.16 110.67 199.24 110.28 C 205.62 107.08 213.41 109.51 219.32 105.40 C 226.30 104.34 233.58 104.34 240.10 101.26 Z" />
</g>
<g id="#5e44c0ff">
<path fill="#5e44c0" opacity="1.00" d=" M 248.70 110.30 C 251.14 108.80 253.57 107.29 256.00 105.76 L 256.00 120.05 C 252.20 120.69 248.34 120.80 244.52 121.10 C 245.22 123.98 241.16 123.53 239.29 123.97 C 238.90 122.60 239.26 120.22 237.10 121.06 C 235.70 121.95 235.01 123.62 233.78 124.72 C 228.22 123.87 222.50 125.84 217.64 128.53 C 213.50 128.21 209.35 129.10 205.24 128.28 C 203.85 129.85 203.09 132.90 200.39 131.83 C 199.90 130.53 199.47 129.20 198.88 127.93 C 196.68 128.94 195.42 131.05 193.68 132.62 C 188.51 134.16 183.15 134.94 178.01 136.53 C 174.63 135.34 171.81 137.34 169.94 140.04 C 168.16 139.22 166.55 138.09 164.98 136.93 C 164.90 132.22 165.04 127.52 165.10 122.82 C 165.42 125.49 168.40 125.23 168.36 127.95 C 171.41 127.57 172.78 123.77 175.61 123.14 C 176.69 125.71 177.02 130.15 181.99 126.99 C 186.17 127.21 190.16 126.05 193.32 123.38 C 199.24 122.52 204.84 119.66 210.89 119.63 C 213.48 119.45 215.85 118.37 218.12 117.18 C 224.95 116.70 231.84 117.22 238.70 116.84 C 239.34 115.36 239.83 113.83 240.42 112.33 C 242.84 110.66 245.89 110.72 248.70 110.30 Z" />
</g>
<g id="#664abfff">
<path fill="#664abf" opacity="1.00" d=" M 124.21 107.77 C 124.36 111.02 126.44 112.96 129.70 112.83 C 130.80 111.50 131.78 110.09 132.89 108.78 C 133.09 115.45 133.01 122.12 132.86 128.79 C 132.20 134.68 123.57 131.90 124.18 126.77 C 123.84 120.45 124.06 114.10 124.21 107.77 Z" />
</g>
<g id="#6449c1ff">
<path fill="#6449c1" opacity="1.00" d=" M 144.10 107.75 C 146.76 109.86 149.57 111.15 153.00 109.96 C 153.03 116.24 153.00 122.52 152.86 128.81 C 152.43 130.90 153.05 134.23 150.26 133.52 C 150.22 135.47 149.24 136.47 147.25 135.93 C 146.12 133.34 147.34 128.63 144.06 127.77 C 143.90 121.10 144.03 114.42 144.10 107.75 Z" />
</g>
<g id="#604ca9ff">
<path fill="#604ca9" opacity="1.00" d=" M 91.21 122.21 C 91.74 118.73 92.28 115.26 92.82 111.79 C 92.99 116.60 93.10 121.40 93.22 126.22 C 92.70 137.46 93.16 148.73 92.96 159.99 L 91.95 160.22 C 91.65 159.86 91.05 159.15 90.75 158.80 C 90.89 157.25 91.00 155.69 91.03 154.14 C 91.08 150.66 91.01 147.20 90.89 143.73 C 90.95 140.39 91.02 137.06 90.92 133.73 C 90.94 131.15 90.96 128.58 90.97 126.01 C 91.03 124.74 91.11 123.48 91.21 122.21 Z" />
</g>
<g id="#694bc4ff">
<path fill="#694bc4" opacity="1.00" d=" M 81.01 116.33 C 84.28 118.60 88.04 115.53 91.01 113.98 C 91.07 116.72 91.14 119.46 91.21 122.21 C 91.11 123.48 91.03 124.74 90.97 126.01 C 89.02 125.73 86.99 125.16 85.12 126.11 C 85.33 127.29 85.68 128.44 85.93 129.61 C 83.40 128.74 79.30 131.34 79.69 127.09 C 76.38 125.88 75.90 129.55 75.72 131.92 C 73.28 132.51 71.46 131.82 71.69 129.03 C 69.88 129.09 68.13 129.64 66.40 130.14 C 66.58 131.44 66.83 132.73 66.97 134.03 C 61.99 132.03 56.45 131.29 51.14 132.21 C 48.07 133.98 44.46 133.73 41.04 134.10 C 41.69 134.72 42.34 135.35 42.98 135.99 C 41.04 137.52 38.59 135.72 36.39 136.15 C 35.91 137.45 35.50 138.78 34.86 140.02 C 32.20 140.50 32.08 135.78 29.24 137.15 C 27.93 138.52 26.98 140.17 25.81 141.65 C 19.65 141.36 13.40 138.92 7.35 141.35 C 4.68 142.58 2.34 144.41 0.00 146.17 L 0.00 132.92 C 4.59 133.07 9.14 133.62 13.73 133.81 C 17.33 131.07 11.08 132.05 9.03 131.88 C 8.04 128.39 13.11 130.04 15.16 130.89 C 19.66 133.89 24.80 129.09 29.58 129.89 C 28.83 127.89 29.40 126.16 31.63 125.62 C 40.76 123.75 50.35 124.29 59.59 123.43 C 66.39 120.07 73.88 118.76 81.01 116.33 Z" />
</g>
<g id="#5844aeff">
<path fill="#5844ae" opacity="1.00" d=" M 164.03 115.99 L 164.95 116.19 C 164.99 117.84 165.06 121.16 165.10 122.82 C 165.04 127.52 164.90 132.22 164.98 136.93 C 164.97 139.57 165.53 142.16 165.76 144.78 C 165.18 148.43 164.96 152.10 165.11 155.80 C 165.06 158.88 165.00 162.00 165.02 165.10 C 164.88 169.14 165.10 173.26 164.34 177.27 C 163.43 156.87 164.28 136.41 164.03 115.99 Z" />
</g>
<g id="#5a41bfff">
<path fill="#5a41bf" opacity="1.00" d=" M 244.52 121.10 C 248.34 120.80 252.20 120.69 256.00 120.05 L 256.00 131.92 C 234.78 132.38 214.43 138.85 193.34 140.35 C 190.84 141.82 189.35 144.54 186.68 145.77 C 182.69 146.21 178.74 145.35 174.76 145.45 C 171.72 145.42 168.42 146.76 165.76 144.78 C 165.53 142.16 164.97 139.57 164.98 136.93 C 166.55 138.09 168.16 139.22 169.94 140.04 C 171.81 137.34 174.63 135.34 178.01 136.53 C 183.15 134.94 188.51 134.16 193.68 132.62 C 195.42 131.05 196.68 128.94 198.88 127.93 C 199.47 129.20 199.90 130.53 200.39 131.83 C 203.09 132.90 203.85 129.85 205.24 128.28 C 209.35 129.10 213.50 128.21 217.64 128.53 C 222.50 125.84 228.22 123.87 233.78 124.72 C 235.01 123.62 235.70 121.95 237.10 121.06 C 239.26 120.22 238.90 122.60 239.29 123.97 C 241.16 123.53 245.22 123.98 244.52 121.10 Z" />
</g>
<g id="#5f45beff">
<path fill="#5f45be" opacity="1.00" d=" M 106.28 130.02 C 108.29 126.81 110.53 123.76 112.91 120.82 C 113.10 131.15 113.02 141.49 112.94 151.83 C 109.50 153.77 110.24 161.76 105.04 158.99 C 104.97 147.89 104.90 136.79 105.16 125.70 C 105.59 127.12 105.93 128.57 106.28 130.02 Z" />
</g>
<g id="#6548c2ff">
<path fill="#6548c2" opacity="1.00" d=" M 85.12 126.11 C 86.99 125.16 89.02 125.73 90.97 126.01 C 90.96 128.58 90.94 131.15 90.92 133.73 C 88.13 134.62 88.24 138.66 85.37 139.36 C 83.50 140.32 82.49 137.46 80.95 136.80 C 78.63 139.20 78.44 144.75 73.18 141.95 C 72.03 141.31 71.06 139.23 69.69 140.68 C 64.92 144.76 58.22 142.92 52.97 145.91 C 49.36 148.12 44.10 144.90 40.85 147.80 C 39.01 151.42 33.20 150.86 30.87 148.04 C 28.50 148.58 27.58 150.78 26.62 152.76 C 23.18 153.22 19.74 151.67 16.31 152.32 C 10.93 153.35 5.48 154.09 0.00 154.07 L 0.00 146.17 C 2.34 144.41 4.68 142.58 7.35 141.35 C 13.40 138.92 19.65 141.36 25.81 141.65 C 26.98 140.17 27.93 138.52 29.24 137.15 C 32.08 135.78 32.20 140.50 34.86 140.02 C 35.50 138.78 35.91 137.45 36.39 136.15 C 38.59 135.72 41.04 137.52 42.98 135.99 C 42.34 135.35 41.69 134.72 41.04 134.10 C 44.46 133.73 48.07 133.98 51.14 132.21 C 56.45 131.29 61.99 132.03 66.97 134.03 C 66.83 132.73 66.58 131.44 66.40 130.14 C 68.13 129.64 69.88 129.09 71.69 129.03 C 71.46 131.82 73.28 132.51 75.72 131.92 C 75.90 129.55 76.38 125.88 79.69 127.09 C 79.30 131.34 83.40 128.74 85.93 129.61 C 85.68 128.44 85.33 127.29 85.12 126.11 Z" />
</g>
<g id="#5b45acff">
<path fill="#5b45ac" opacity="1.00" d=" M 104.09 126.04 L 105.16 125.70 C 104.90 136.79 104.97 147.89 105.04 158.99 C 104.94 164.73 105.30 170.53 104.36 176.24 C 103.67 162.83 104.13 149.41 103.99 136.00 C 104.02 132.68 104.03 129.35 104.09 126.04 Z" />
</g>
<g id="#5d44bcff">
<path fill="#5d44bc" opacity="1.00" d=" M 124.18 126.77 C 123.57 131.90 132.20 134.68 132.86 128.79 C 132.98 136.17 133.04 143.54 133.02 150.93 C 129.27 148.25 129.34 153.31 128.70 155.91 C 125.24 157.18 125.01 153.06 124.19 150.78 C 124.03 145.85 124.00 140.93 123.98 136.00 C 124.04 132.93 124.12 129.84 124.18 126.77 Z" />
</g>
<g id="#5b43bbff">
<path fill="#5b43bb" opacity="1.00" d=" M 144.06 127.77 C 147.34 128.63 146.12 133.34 147.25 135.93 C 149.24 136.47 150.22 135.47 150.26 133.52 C 153.05 134.23 152.43 130.90 152.86 128.81 C 153.05 136.80 153.05 144.80 152.90 152.79 C 151.55 154.11 150.37 155.59 149.04 156.92 C 147.54 155.76 145.87 155.23 144.03 155.94 C 143.96 146.55 143.98 137.16 144.06 127.77 Z" />
</g>
<g id="#543ebdff">
<path fill="#543ebd" opacity="1.00" d=" M 193.34 140.35 C 214.43 138.85 234.78 132.38 256.00 131.92 L 256.00 140.92 C 248.16 140.98 240.41 142.08 233.02 144.57 C 227.63 142.60 223.56 148.49 217.99 147.01 C 211.59 148.94 204.82 149.49 198.31 151.22 C 190.74 151.47 183.95 155.28 176.35 155.34 C 175.28 157.49 173.33 157.51 171.21 157.31 C 168.94 158.83 165.30 159.51 165.11 155.80 C 164.96 152.10 165.18 148.43 165.76 144.78 C 168.42 146.76 171.72 145.42 174.76 145.45 C 178.74 145.35 182.69 146.21 186.68 145.77 C 189.35 144.54 190.84 141.82 193.34 140.35 Z" />
<path fill="#543ebd" opacity="1.00" d=" M 90.01 164.00 C 90.19 162.70 90.56 160.10 90.75 158.80 C 91.05 159.15 91.65 159.86 91.95 160.22 C 91.88 161.85 91.74 165.12 91.67 166.75 C 91.36 168.12 91.13 169.49 90.96 170.88 C 89.92 172.21 88.68 173.62 86.96 173.98 C 85.17 173.88 83.90 172.28 82.15 171.98 C 81.47 174.34 80.99 176.74 80.70 179.19 C 77.83 177.99 80.85 174.88 78.96 173.22 C 74.93 175.79 69.85 174.49 65.34 175.06 C 67.49 179.18 61.64 178.85 59.00 178.99 C 55.06 177.88 52.60 180.90 49.66 182.56 C 46.49 182.92 43.29 181.58 40.11 182.18 C 37.33 182.89 34.56 184.61 31.65 183.42 C 27.90 181.94 26.43 188.79 21.98 185.96 C 14.38 186.02 7.56 189.96 0.00 190.15 L 0.00 182.02 C 6.11 180.64 12.93 180.97 18.32 177.38 C 25.19 176.27 32.28 176.04 39.00 174.07 C 38.34 173.37 37.69 172.67 37.04 171.97 C 38.93 170.70 41.24 172.06 43.31 171.43 C 55.83 170.23 68.10 167.26 80.67 166.47 C 81.16 164.66 81.55 162.83 82.17 161.07 C 84.64 162.72 88.22 161.40 90.01 164.00 Z" />
</g>
<g id="#6146c1ff">
<path fill="#6146c1" opacity="1.00" d=" M 85.37 139.36 C 88.24 138.66 88.13 134.62 90.92 133.73 C 91.02 137.06 90.95 140.39 90.89 143.73 C 87.04 148.54 80.31 146.50 74.99 147.94 C 70.24 147.90 65.93 149.90 61.59 151.52 C 57.34 154.96 56.02 148.71 52.26 150.04 C 51.77 151.58 52.47 153.83 50.65 154.62 C 47.33 154.82 44.37 156.31 41.31 157.35 C 36.43 155.18 30.75 155.75 26.01 157.98 C 21.84 159.99 17.33 158.67 13.08 158.02 C 8.93 160.57 5.52 164.39 0.00 163.11 L 0.00 154.07 C 5.48 154.09 10.93 153.35 16.31 152.32 C 19.74 151.67 23.18 153.22 26.62 152.76 C 27.58 150.78 28.50 148.58 30.87 148.04 C 33.20 150.86 39.01 151.42 40.85 147.80 C 44.10 144.90 49.36 148.12 52.97 145.91 C 58.22 142.92 64.92 144.76 69.69 140.68 C 71.06 139.23 72.03 141.31 73.18 141.95 C 78.44 144.75 78.63 139.20 80.95 136.80 C 82.49 137.46 83.50 140.32 85.37 139.36 Z" />
</g>
<g id="#8074acff">
<path fill="#8074ac" opacity="1.00" d=" M 103.01 136.00 L 103.99 136.00 C 104.13 149.41 103.67 162.83 104.36 176.24 C 104.31 176.64 104.20 177.44 104.15 177.84 C 104.01 178.70 103.72 180.41 103.58 181.27 C 101.90 166.31 103.59 151.05 103.01 136.00 Z" />
</g>
<g id="#a99eccff">
<path fill="#a99ecc" opacity="1.00" d=" M 123.00 136.00 L 123.98 136.00 C 124.00 140.93 124.03 145.85 124.19 150.78 C 124.01 158.61 124.11 166.46 123.63 174.29 C 122.02 161.67 123.48 148.73 123.00 136.00 Z" />
</g>
<g id="#503bbbff">
<path fill="#503bbb" opacity="1.00" d=" M 233.02 144.57 C 240.41 142.08 248.16 140.98 256.00 140.92 L 256.00 154.91 C 250.59 154.48 245.39 156.01 240.14 156.95 C 238.65 154.72 239.02 150.19 234.07 153.07 C 231.04 153.83 231.22 160.15 226.04 157.13 C 223.53 157.34 222.03 160.55 218.94 159.02 C 215.89 159.65 214.57 154.94 210.96 156.99 C 208.26 157.01 206.28 160.20 206.36 162.75 C 204.42 163.93 201.03 166.45 200.00 163.02 C 198.85 159.69 194.93 161.00 192.12 161.03 C 188.17 164.08 185.33 170.16 179.17 167.91 C 177.13 165.37 170.53 164.19 173.94 171.02 L 173.09 170.88 C 175.80 163.74 168.55 166.36 165.02 165.10 C 165.00 162.00 165.06 158.88 165.11 155.80 C 165.30 159.51 168.94 158.83 171.21 157.31 C 173.33 157.51 175.28 157.49 176.35 155.34 C 183.95 155.28 190.74 151.47 198.31 151.22 C 204.82 149.49 211.59 148.94 217.99 147.01 C 223.56 148.49 227.63 142.60 233.02 144.57 Z" />
</g>
<g id="#5d43c0ff">
<path fill="#5d43c0" opacity="1.00" d=" M 74.99 147.94 C 80.31 146.50 87.04 148.54 90.89 143.73 C 91.01 147.20 91.08 150.66 91.03 154.14 C 88.59 155.19 85.54 153.10 83.73 155.72 C 82.34 157.57 80.10 156.36 78.25 156.31 C 76.67 157.30 75.37 158.68 73.75 159.62 C 68.52 159.54 62.81 159.43 58.19 162.11 C 53.24 164.48 46.55 159.82 42.62 164.57 C 36.49 164.20 31.03 168.24 24.84 166.09 C 25.38 167.19 26.18 168.14 26.89 169.13 C 23.63 170.12 20.05 168.60 16.99 170.54 C 13.87 169.77 10.74 171.27 7.65 170.41 C 4.62 169.38 3.04 173.42 0.00 173.35 L 0.00 163.11 C 5.52 164.39 8.93 160.57 13.08 158.02 C 17.33 158.67 21.84 159.99 26.01 157.98 C 30.75 155.75 36.43 155.18 41.31 157.35 C 44.37 156.31 47.33 154.82 50.65 154.62 C 52.47 153.83 51.77 151.58 52.26 150.04 C 56.02 148.71 57.34 154.96 61.59 151.52 C 65.93 149.90 70.24 147.90 74.99 147.94 Z" />
</g>
<g id="#543eb6ff">
<path fill="#543eb6" opacity="1.00" d=" M 128.70 155.91 C 129.34 153.31 129.27 148.25 133.02 150.93 C 133.00 158.70 132.95 166.48 133.29 174.25 C 133.29 176.69 131.42 178.32 129.72 179.79 C 126.54 180.82 124.14 176.98 123.63 174.29 C 124.11 166.46 124.01 158.61 124.19 150.78 C 125.01 153.06 125.24 157.18 128.70 155.91 Z" />
</g>
<g id="#523cbaff">
<path fill="#523cba" opacity="1.00" d=" M 105.04 158.99 C 110.24 161.76 109.50 153.77 112.94 151.83 C 112.97 154.82 112.88 157.79 112.81 160.79 C 111.59 167.84 110.08 175.42 113.85 182.04 C 112.46 185.32 109.93 188.04 108.08 191.09 C 107.84 189.38 107.56 187.65 107.76 185.92 C 108.45 182.67 105.69 180.34 104.15 177.84 C 104.20 177.44 104.31 176.64 104.36 176.24 C 105.30 170.53 104.94 164.73 105.04 158.99 Z" />
</g>
<g id="#503bb8ff">
<path fill="#503bb8" opacity="1.00" d=" M 149.04 156.92 C 150.37 155.59 151.55 154.11 152.90 152.79 C 153.03 160.44 153.09 168.08 152.80 175.73 C 149.86 179.44 150.18 185.58 147.01 188.94 C 145.60 186.85 145.87 181.67 142.35 184.05 C 142.07 183.79 141.51 183.26 141.23 183.00 C 141.95 180.77 142.78 178.55 143.24 176.24 C 144.39 170.90 143.92 165.41 144.00 160.00 C 144.01 158.65 144.02 157.29 144.03 155.94 C 145.87 155.23 147.54 155.76 149.04 156.92 Z" />
</g>
<g id="#4c38baff">
<path fill="#4c38ba" opacity="1.00" d=" M 226.04 157.13 C 231.22 160.15 231.04 153.83 234.07 153.07 C 239.02 150.19 238.65 154.72 240.14 156.95 C 245.39 156.01 250.59 154.48 256.00 154.91 L 256.00 159.93 C 249.69 157.57 246.16 162.79 241.92 165.96 C 239.42 165.87 238.34 161.74 234.97 164.04 C 230.79 165.67 225.73 165.09 222.29 168.28 C 218.57 172.26 212.34 167.30 208.17 170.11 C 206.19 171.36 203.68 169.17 201.79 170.81 C 197.38 173.52 191.97 173.47 186.99 174.02 C 181.54 175.29 175.96 176.50 171.26 179.74 C 170.44 178.54 170.44 176.53 168.99 175.92 C 167.38 177.11 167.02 179.41 165.84 181.02 C 165.24 180.34 164.66 179.65 164.10 178.95 C 164.16 178.53 164.28 177.69 164.34 177.27 C 165.10 173.26 164.88 169.14 165.02 165.10 C 168.55 166.36 175.80 163.74 173.09 170.88 L 173.94 171.02 C 170.53 164.19 177.13 165.37 179.17 167.91 C 185.33 170.16 188.17 164.08 192.12 161.03 C 194.93 161.00 198.85 159.69 200.00 163.02 C 201.03 166.45 204.42 163.93 206.36 162.75 C 206.28 160.20 208.26 157.01 210.96 156.99 C 214.57 154.94 215.89 159.65 218.94 159.02 C 222.03 160.55 223.53 157.34 226.04 157.13 Z" />
</g>
<g id="#5940bfff">
<path fill="#5940bf" opacity="1.00" d=" M 83.73 155.72 C 85.54 153.10 88.59 155.19 91.03 154.14 C 91.00 155.69 90.89 157.25 90.75 158.80 C 90.56 160.10 90.19 162.70 90.01 164.00 C 88.22 161.40 84.64 162.72 82.17 161.07 C 81.55 162.83 81.16 164.66 80.67 166.47 C 68.10 167.26 55.83 170.23 43.31 171.43 C 41.24 172.06 38.93 170.70 37.04 171.97 C 37.69 172.67 38.34 173.37 39.00 174.07 C 32.28 176.04 25.19 176.27 18.32 177.38 C 12.93 180.97 6.11 180.64 0.00 182.02 L 0.00 173.35 C 3.04 173.42 4.62 169.38 7.65 170.41 C 10.74 171.27 13.87 169.77 16.99 170.54 C 20.05 168.60 23.63 170.12 26.89 169.13 C 26.18 168.14 25.38 167.19 24.84 166.09 C 31.03 168.24 36.49 164.20 42.62 164.57 C 46.55 159.82 53.24 164.48 58.19 162.11 C 62.81 159.43 68.52 159.54 73.75 159.62 C 75.37 158.68 76.67 157.30 78.25 156.31 C 80.10 156.36 82.34 157.57 83.73 155.72 Z" />
</g>
<g id="#554986ff">
<path fill="#554986" opacity="1.00" d=" M 91.95 160.22 L 92.96 159.99 C 93.08 165.41 92.88 170.81 92.74 176.23 C 92.30 173.07 91.97 169.92 91.67 166.75 C 91.74 165.12 91.88 161.85 91.95 160.22 Z" />
</g>
<g id="#ccc6dfff">
<path fill="#ccc6df" opacity="1.00" d=" M 143.00 160.00 L 144.00 160.00 C 143.92 165.41 144.39 170.90 143.24 176.24 C 142.87 170.84 142.99 165.41 143.00 160.00 Z" />
</g>
<g id="#4736b8ff">
<path fill="#4736b8" opacity="1.00" d=" M 241.92 165.96 C 246.16 162.79 249.69 157.57 256.00 159.93 L 256.00 172.93 C 250.02 172.99 244.09 173.77 238.13 174.13 C 239.47 177.30 238.38 181.52 233.10 178.79 C 227.47 179.25 222.80 175.23 217.19 176.08 C 213.05 178.52 219.72 186.60 211.02 183.00 C 206.84 184.18 211.16 174.92 203.96 180.01 C 197.95 180.26 192.03 181.49 186.06 182.08 C 184.61 182.10 183.82 183.56 183.88 184.87 C 186.65 184.90 189.42 184.99 192.19 185.14 C 190.31 188.37 185.83 185.89 183.32 188.34 C 179.79 190.84 177.77 188.54 176.25 186.10 C 175.95 189.83 173.15 185.01 171.35 184.62 C 169.33 182.87 167.65 185.00 166.87 186.77 C 165.74 185.46 164.44 184.74 162.86 185.87 C 163.18 183.54 163.70 181.25 164.10 178.95 C 164.66 179.65 165.24 180.34 165.84 181.02 C 167.02 179.41 167.38 177.11 168.99 175.92 C 170.44 176.53 170.44 178.54 171.26 179.74 C 175.96 176.50 181.54 175.29 186.99 174.02 C 191.97 173.47 197.38 173.52 201.79 170.81 C 203.68 169.17 206.19 171.36 208.17 170.11 C 212.34 167.30 218.57 172.26 222.29 168.28 C 225.73 165.09 230.79 165.67 234.97 164.04 C 238.34 161.74 239.42 165.87 241.92 165.96 Z" />
</g>
<g id="#4c3bb2ff">
<path fill="#4c3bb2" opacity="1.00" d=" M 113.85 182.04 C 110.08 175.42 111.59 167.84 112.81 160.79 C 113.00 165.61 112.98 170.45 113.70 175.24 C 113.96 179.16 116.20 182.55 118.19 185.81 C 122.11 190.07 128.18 190.86 133.62 190.13 C 135.61 191.95 137.34 188.97 139.07 188.13 C 140.71 187.19 142.18 186.10 142.35 184.05 C 145.87 181.67 145.60 186.85 147.01 188.94 C 150.18 185.58 149.86 179.44 152.80 175.73 C 152.95 177.56 153.14 179.40 153.31 181.24 C 152.44 191.08 144.98 200.60 135.12 202.65 C 127.94 201.27 120.14 202.26 114.13 197.15 C 114.07 197.59 113.95 198.48 113.88 198.93 C 108.21 194.81 104.93 188.04 103.58 181.27 C 103.72 180.41 104.01 178.70 104.15 177.84 C 105.69 180.34 108.45 182.67 107.76 185.92 C 107.56 187.65 107.84 189.38 108.08 191.09 C 109.93 188.04 112.46 185.32 113.85 182.04 Z" />
</g>
<g id="#4d39b9ff">
<path fill="#4d39b9" opacity="1.00" d=" M 90.96 170.88 C 91.13 169.49 91.36 168.12 91.67 166.75 C 91.97 169.92 92.30 173.07 92.74 176.23 C 93.21 181.62 94.47 186.89 95.98 192.08 C 93.76 191.97 91.57 191.43 89.35 191.43 C 87.61 192.68 86.04 194.31 83.93 194.93 C 69.46 198.26 54.01 197.95 40.30 204.23 C 32.78 204.63 25.64 207.52 18.01 207.16 C 11.91 208.38 5.87 210.08 0.00 212.18 L 0.00 205.41 C 2.46 204.21 4.69 202.58 6.62 200.65 C 13.13 200.46 19.19 197.32 25.69 197.49 C 27.11 197.05 28.47 196.44 29.82 195.83 C 28.76 193.71 24.78 190.28 32.85 192.54 C 35.43 191.98 38.07 192.13 40.52 193.15 C 40.46 194.48 39.89 195.99 41.18 196.95 C 42.46 196.81 43.67 196.32 44.89 195.91 C 43.87 193.88 39.73 190.02 47.59 193.61 C 51.75 195.38 53.37 188.58 57.98 191.05 C 62.93 193.64 62.70 189.43 64.01 187.10 C 65.58 189.13 68.19 189.00 70.61 188.86 C 71.09 187.56 71.48 186.22 72.14 184.99 C 74.72 184.92 77.17 186.13 79.75 185.88 C 81.18 183.92 82.37 181.80 83.87 179.89 C 84.59 182.59 84.80 185.36 85.23 188.13 C 90.28 183.83 91.41 177.27 90.96 170.88 Z" />
</g>
<g id="#503bbcff">
<path fill="#503bbc" opacity="1.00" d=" M 86.96 173.98 C 88.68 173.62 89.92 172.21 90.96 170.88 C 91.41 177.27 90.28 183.83 85.23 188.13 C 84.80 185.36 84.59 182.59 83.87 179.89 C 82.37 181.80 81.18 183.92 79.75 185.88 C 77.17 186.13 74.72 184.92 72.14 184.99 C 71.48 186.22 71.09 187.56 70.61 188.86 C 68.19 189.00 65.58 189.13 64.01 187.10 C 62.70 189.43 62.93 193.64 57.98 191.05 C 53.37 188.58 51.75 195.38 47.59 193.61 C 39.73 190.02 43.87 193.88 44.89 195.91 C 43.67 196.32 42.46 196.81 41.18 196.95 C 39.89 195.99 40.46 194.48 40.52 193.15 C 38.07 192.13 35.43 191.98 32.85 192.54 C 24.78 190.28 28.76 193.71 29.82 195.83 C 28.47 196.44 27.11 197.05 25.69 197.49 C 19.19 197.32 13.13 200.46 6.62 200.65 C 4.69 202.58 2.46 204.21 0.00 205.41 L 0.00 190.15 C 7.56 189.96 14.38 186.02 21.98 185.96 C 26.43 188.79 27.90 181.94 31.65 183.42 C 34.56 184.61 37.33 182.89 40.11 182.18 C 43.29 181.58 46.49 182.92 49.66 182.56 C 52.60 180.90 55.06 177.88 59.00 178.99 C 61.64 178.85 67.49 179.18 65.34 175.06 C 69.85 174.49 74.93 175.79 78.96 173.22 C 80.85 174.88 77.83 177.99 80.70 179.19 C 80.99 176.74 81.47 174.34 82.15 171.98 C 83.90 172.28 85.17 173.88 86.96 173.98 Z" />
</g>
<g id="#4232b6ff">
<path fill="#4232b6" opacity="1.00" d=" M 238.13 174.13 C 244.09 173.77 250.02 172.99 256.00 172.93 L 256.00 183.87 C 251.41 183.77 247.25 185.57 243.11 187.24 C 243.19 188.66 245.14 189.41 244.14 190.99 C 242.81 191.05 241.48 191.10 240.16 191.14 C 239.73 189.73 239.40 188.30 238.88 186.92 C 236.31 188.74 235.80 193.33 231.12 191.30 C 225.62 192.53 218.95 190.09 214.55 194.45 C 210.43 194.53 206.56 195.90 202.91 197.67 C 203.99 198.01 205.08 198.37 206.17 198.73 C 196.81 201.07 186.76 200.80 177.12 202.19 C 170.44 206.81 161.66 205.98 153.79 206.76 C 155.37 204.21 158.23 202.13 157.91 198.82 C 159.66 194.54 161.75 190.38 162.86 185.87 C 164.44 184.74 165.74 185.46 166.87 186.77 C 167.65 185.00 169.33 182.87 171.35 184.62 C 173.15 185.01 175.95 189.83 176.25 186.10 C 177.77 188.54 179.79 190.84 183.32 188.34 C 185.83 185.89 190.31 188.37 192.19 185.14 C 189.42 184.99 186.65 184.90 183.88 184.87 C 183.82 183.56 184.61 182.10 186.06 182.08 C 192.03 181.49 197.95 180.26 203.96 180.01 C 211.16 174.92 206.84 184.18 211.02 183.00 C 219.72 186.60 213.05 178.52 217.19 176.08 C 222.80 175.23 227.47 179.25 233.10 178.79 C 238.38 181.52 239.47 177.30 238.13 174.13 Z" />
</g>
<g id="#4f4299ff">
<path fill="#4f4299" opacity="1.00" d=" M 141.23 183.00 C 141.51 183.26 142.07 183.79 142.35 184.05 C 142.18 186.10 140.71 187.19 139.07 188.13 C 137.34 188.97 135.61 191.95 133.62 190.13 C 136.46 188.10 138.97 185.66 141.23 183.00 Z" />
</g>
<g id="#3f2fb5ff">
<path fill="#3f2fb5" opacity="1.00" d=" M 243.11 187.24 C 247.25 185.57 251.41 183.77 256.00 183.87 L 256.00 187.96 C 252.23 189.60 248.42 191.45 244.14 190.99 C 245.14 189.41 243.19 188.66 243.11 187.24 Z" />
<path fill="#3f2fb5" opacity="1.00" d=" M 94.62 215.78 C 94.04 213.36 96.00 211.94 97.57 210.49 C 103.48 215.69 111.78 215.74 119.20 215.82 C 120.74 215.91 122.28 215.82 123.82 215.70 C 125.69 215.72 129.70 216.86 126.81 218.90 C 119.27 218.09 111.75 218.88 104.22 218.13 C 101.84 220.92 104.45 221.91 107.11 222.45 C 105.20 223.30 103.17 223.93 101.07 224.06 C 101.31 222.69 101.68 221.35 101.93 219.99 C 97.82 219.87 94.27 221.97 90.61 223.47 C 86.88 225.01 80.16 222.30 79.63 227.81 C 73.05 229.02 65.21 225.94 59.61 230.55 C 53.87 232.77 47.19 228.10 41.65 231.54 C 39.36 232.94 33.50 229.83 34.50 233.89 C 31.18 235.62 27.21 234.87 23.68 235.68 C 15.44 235.99 8.61 241.93 0.00 240.09 L 0.00 235.36 C 2.10 234.46 3.99 233.13 6.09 232.24 C 12.60 233.82 18.26 228.15 24.94 229.77 C 29.39 229.82 32.98 226.35 37.34 226.40 C 40.67 227.68 43.31 225.54 46.22 224.63 C 49.46 224.81 52.92 225.27 56.00 223.97 C 61.69 221.66 68.12 222.71 73.89 220.82 C 80.53 218.17 87.58 216.79 94.62 215.78 Z" />
</g>
<g id="#3e2eb4ff">
<path fill="#3e2eb4" opacity="1.00" d=" M 231.12 191.30 C 235.80 193.33 236.31 188.74 238.88 186.92 C 239.40 188.30 239.73 189.73 240.16 191.14 C 238.01 193.39 236.07 196.90 231.99 194.93 C 227.09 193.15 223.74 197.80 218.99 196.85 C 214.73 197.50 209.84 195.89 206.17 198.73 C 205.08 198.37 203.99 198.01 202.91 197.67 C 206.56 195.90 210.43 194.53 214.55 194.45 C 218.95 190.09 225.62 192.53 231.12 191.30 Z" />
</g>
<g id="#3b2db3ff">
<path fill="#3b2db3" opacity="1.00" d=" M 244.14 190.99 C 248.42 191.45 252.23 189.60 256.00 187.96 L 256.00 201.97 C 250.79 201.84 245.59 201.99 240.41 202.39 C 236.56 204.79 232.84 207.99 228.01 207.84 C 222.04 207.28 216.05 206.90 210.06 206.65 C 206.15 205.84 203.98 210.65 200.36 211.34 C 196.61 212.12 191.14 210.55 190.49 215.71 C 178.62 217.74 164.19 213.33 154.61 222.59 C 150.92 224.69 153.55 219.82 151.83 218.05 C 149.20 217.92 146.88 219.44 144.57 220.50 C 142.68 226.27 135.32 223.42 130.87 223.20 C 128.04 222.27 126.60 225.31 124.62 226.65 C 117.28 228.61 108.47 225.59 102.84 231.91 C 95.75 230.06 89.27 233.47 82.16 233.34 C 77.02 235.52 71.85 237.92 66.11 236.26 C 58.75 239.06 50.28 237.62 43.81 242.69 C 36.10 243.62 26.89 241.65 20.85 247.82 C 13.89 247.90 7.03 249.50 0.00 249.04 L 0.00 240.09 C 8.61 241.93 15.44 235.99 23.68 235.68 C 27.21 234.87 31.18 235.62 34.50 233.89 C 33.50 229.83 39.36 232.94 41.65 231.54 C 47.19 228.10 53.87 232.77 59.61 230.55 C 65.21 225.94 73.05 229.02 79.63 227.81 C 80.16 222.30 86.88 225.01 90.61 223.47 C 94.27 221.97 97.82 219.87 101.93 219.99 C 101.68 221.35 101.31 222.69 101.07 224.06 C 103.17 223.93 105.20 223.30 107.11 222.45 C 104.45 221.91 101.84 220.92 104.22 218.13 C 111.75 218.88 119.27 218.09 126.81 218.90 C 129.70 216.86 125.69 215.72 123.82 215.70 C 129.41 213.95 136.41 217.07 141.22 213.20 C 143.95 212.25 146.92 212.57 149.68 211.70 C 151.06 210.06 152.27 208.28 153.79 206.76 C 161.66 205.98 170.44 206.81 177.12 202.19 C 186.76 200.80 196.81 201.07 206.17 198.73 C 209.84 195.89 214.73 197.50 218.99 196.85 C 223.74 197.80 227.09 193.15 231.99 194.93 C 236.07 196.90 238.01 193.39 240.16 191.14 C 241.48 191.10 242.81 191.05 244.14 190.99 Z" />
</g>
<g id="#4836b8ff">
<path fill="#4836b8" opacity="1.00" d=" M 89.35 191.43 C 91.57 191.43 93.76 191.97 95.98 192.08 C 97.88 195.92 100.37 199.42 103.03 202.78 C 102.01 203.15 101.00 203.55 100.01 203.98 C 100.16 201.60 99.55 202.03 98.61 203.72 C 96.42 202.46 94.52 199.38 91.68 200.58 C 87.69 201.93 82.66 200.63 79.54 203.86 C 76.39 204.71 73.39 206.29 69.98 205.84 C 62.10 201.80 65.88 215.38 58.01 210.99 C 46.75 210.23 35.92 213.77 24.77 214.24 C 25.40 215.21 26.16 216.08 26.85 217.01 C 22.86 220.11 17.32 219.70 13.93 216.07 C 9.37 217.23 4.72 217.99 0.00 218.12 L 0.00 212.18 C 5.87 210.08 11.91 208.38 18.01 207.16 C 25.64 207.52 32.78 204.63 40.30 204.23 C 54.01 197.95 69.46 198.26 83.93 194.93 C 86.04 194.31 87.61 192.68 89.35 191.43 Z" />
</g>
<g id="#4b3f99ff">
<path fill="#4b3f99" opacity="1.00" d=" M 114.13 197.15 C 120.14 202.26 127.94 201.27 135.12 202.65 C 134.37 202.76 132.86 202.99 132.10 203.10 C 130.29 203.16 126.67 203.28 124.85 203.34 C 121.03 202.35 117.29 200.95 113.88 198.93 C 113.95 198.48 114.07 197.59 114.13 197.15 Z" />
</g>
<g id="#4a3da6ff">
<path fill="#4a3da6" opacity="1.00" d=" M 134.39 213.47 C 143.86 212.24 152.31 206.39 157.91 198.82 C 158.23 202.13 155.37 204.21 153.79 206.76 C 152.27 208.28 151.06 210.06 149.68 211.70 C 146.92 212.57 143.95 212.25 141.22 213.20 C 136.41 217.07 129.41 213.95 123.82 215.70 C 122.28 215.82 120.74 215.91 119.20 215.82 C 113.00 211.17 102.46 212.72 100.01 203.98 C 101.00 203.55 102.01 203.15 103.03 202.78 C 110.93 211.02 123.03 215.63 134.39 213.47 Z" />
</g>
<g id="#4332b7ff">
<path fill="#4332b7" opacity="1.00" d=" M 91.68 200.58 C 94.52 199.38 96.42 202.46 98.61 203.72 C 99.55 202.03 100.16 201.60 100.01 203.98 C 102.46 212.72 113.00 211.17 119.20 215.82 C 111.78 215.74 103.48 215.69 97.57 210.49 C 96.00 211.94 94.04 213.36 94.62 215.78 C 87.58 216.79 80.53 218.17 73.89 220.82 C 68.12 222.71 61.69 221.66 56.00 223.97 C 52.92 225.27 49.46 224.81 46.22 224.63 C 43.31 225.54 40.67 227.68 37.34 226.40 C 32.98 226.35 29.39 229.82 24.94 229.77 C 18.26 228.15 12.60 233.82 6.09 232.24 C 3.99 233.13 2.10 234.46 0.00 235.36 L 0.00 218.12 C 4.72 217.99 9.37 217.23 13.93 216.07 C 17.32 219.70 22.86 220.11 26.85 217.01 C 26.16 216.08 25.40 215.21 24.77 214.24 C 35.92 213.77 46.75 210.23 58.01 210.99 C 65.88 215.38 62.10 201.80 69.98 205.84 C 73.39 206.29 76.39 204.71 79.54 203.86 C 81.59 205.85 85.61 207.41 87.27 204.15 C 85.34 204.08 81.47 203.93 79.54 203.86 C 82.66 200.63 87.69 201.93 91.68 200.58 Z" />
</g>
<g id="#362bb2ff">
<path fill="#362bb2" opacity="1.00" d=" M 240.41 202.39 C 245.59 201.99 250.79 201.84 256.00 201.97 L 256.00 211.87 C 250.32 212.51 244.58 213.06 239.19 215.10 C 232.48 216.17 225.62 216.36 218.98 218.00 C 215.27 220.47 211.99 216.73 208.39 217.23 C 207.22 220.46 204.43 223.55 200.38 221.36 C 195.61 219.99 192.89 225.88 188.11 225.28 C 179.39 227.62 170.22 227.12 161.34 228.31 C 157.09 236.40 146.60 227.03 141.30 233.25 C 135.69 233.33 129.93 234.54 124.34 234.33 C 121.23 237.97 114.69 241.36 110.84 237.03 C 108.67 237.48 106.84 238.87 104.84 239.78 C 105.68 239.90 107.35 240.15 108.18 240.28 C 106.27 241.27 104.39 243.00 102.10 242.68 C 97.04 241.91 92.04 243.83 86.98 243.76 C 82.93 242.68 79.84 244.85 76.64 246.62 C 72.67 247.64 67.74 245.53 64.33 248.35 C 59.22 249.89 52.57 246.95 48.66 251.58 C 42.76 249.84 37.79 256.23 32.05 253.97 C 30.02 251.58 28.34 254.86 26.74 256.00 L 0.00 256.00 L 0.00 249.04 C 7.03 249.50 13.89 247.90 20.85 247.82 C 26.89 241.65 36.10 243.62 43.81 242.69 C 50.28 237.62 58.75 239.06 66.11 236.26 C 71.85 237.92 77.02 235.52 82.16 233.34 C 89.27 233.47 95.75 230.06 102.84 231.91 C 108.47 225.59 117.28 228.61 124.62 226.65 C 126.60 225.31 128.04 222.27 130.87 223.20 C 135.32 223.42 142.68 226.27 144.57 220.50 C 146.88 219.44 149.20 217.92 151.83 218.05 C 153.55 219.82 150.92 224.69 154.61 222.59 C 164.19 213.33 178.62 217.74 190.49 215.71 C 191.14 210.55 196.61 212.12 200.36 211.34 C 203.98 210.65 206.15 205.84 210.06 206.65 C 216.05 206.90 222.04 207.28 228.01 207.84 C 232.84 207.99 236.56 204.79 240.41 202.39 Z" />
</g>
<g id="#b1aae3ff">
<path fill="#b1aae3" opacity="1.00" d=" M 124.85 203.34 C 126.67 203.28 130.29 203.16 132.10 203.10 C 130.51 205.60 127.07 204.48 124.85 203.34 Z" />
</g>
<g id="#4535b9ff">
<path fill="#4535b9" opacity="1.00" d=" M 79.54 203.86 C 81.47 203.93 85.34 204.08 87.27 204.15 C 85.61 207.41 81.59 205.85 79.54 203.86 Z" />
</g>
<g id="#3328b1ff">
<path fill="#3328b1" opacity="1.00" d=" M 239.19 215.10 C 244.58 213.06 250.32 212.51 256.00 211.87 L 256.00 214.78 C 252.87 215.14 249.40 215.65 247.37 218.34 C 243.94 218.21 240.91 219.29 238.56 221.65 C 234.66 224.20 232.70 220.59 230.01 219.04 C 227.81 220.01 224.29 220.67 225.80 223.79 C 221.67 223.27 217.48 223.47 213.33 223.32 C 210.85 225.23 209.00 228.67 204.96 226.97 C 200.64 226.77 197.92 231.82 193.18 229.90 C 191.79 228.80 187.40 225.90 186.88 228.74 C 186.40 232.78 181.05 232.40 178.00 233.95 C 175.80 234.78 176.07 232.46 175.69 231.03 C 172.96 230.43 171.63 233.22 169.80 234.64 C 166.10 231.60 161.80 235.49 158.55 237.56 C 156.17 237.69 151.40 237.93 149.01 238.05 C 142.98 234.32 143.89 244.28 138.00 240.99 C 136.09 241.03 135.25 238.30 133.12 238.95 C 130.69 240.98 129.49 245.22 124.97 242.99 C 120.64 242.72 117.93 247.86 113.18 245.90 C 111.79 244.80 107.41 241.90 106.88 244.74 C 106.52 248.59 101.57 248.15 98.78 249.73 C 96.32 251.23 95.85 247.49 93.97 246.97 C 91.67 247.96 90.27 252.22 87.61 249.52 C 84.17 249.40 80.71 251.94 77.59 253.55 C 74.77 255.33 72.20 251.20 69.37 252.45 C 63.74 255.09 56.90 252.44 51.54 256.00 L 26.74 256.00 C 28.34 254.86 30.02 251.58 32.05 253.97 C 37.79 256.23 42.76 249.84 48.66 251.58 C 52.57 246.95 59.22 249.89 64.33 248.35 C 67.74 245.53 72.67 247.64 76.64 246.62 C 79.84 244.85 82.93 242.68 86.98 243.76 C 92.04 243.83 97.04 241.91 102.10 242.68 C 104.39 243.00 106.27 241.27 108.18 240.28 C 107.35 240.15 105.68 239.90 104.84 239.78 C 106.84 238.87 108.67 237.48 110.84 237.03 C 114.69 241.36 121.23 237.97 124.34 234.33 C 129.93 234.54 135.69 233.33 141.30 233.25 C 146.60 227.03 157.09 236.40 161.34 228.31 C 170.22 227.12 179.39 227.62 188.11 225.28 C 192.89 225.88 195.61 219.99 200.38 221.36 C 204.43 223.55 207.22 220.46 208.39 217.23 C 211.99 216.73 215.27 220.47 218.98 218.00 C 225.62 216.36 232.48 216.17 239.19 215.10 Z" />
</g>
<g id="#2f25afff">
<path fill="#2f25af" opacity="1.00" d=" M 247.37 218.34 C 249.40 215.65 252.87 215.14 256.00 214.78 L 256.00 227.97 C 242.82 227.53 230.08 231.25 216.82 230.09 C 218.22 232.85 221.43 231.94 224.12 232.19 C 223.39 233.11 222.60 233.98 221.73 234.76 C 212.26 235.24 202.65 235.42 193.37 237.39 C 190.73 240.49 186.00 240.95 182.70 238.62 C 179.44 239.40 176.33 240.61 174.63 243.69 C 164.42 244.14 154.40 245.97 144.20 246.25 C 136.95 251.19 127.84 252.90 119.25 251.32 C 116.89 252.19 115.32 254.23 113.65 256.00 L 51.54 256.00 C 56.90 252.44 63.74 255.09 69.37 252.45 C 72.20 251.20 74.77 255.33 77.59 253.55 C 80.71 251.94 84.17 249.40 87.61 249.52 C 90.27 252.22 91.67 247.96 93.97 246.97 C 95.85 247.49 96.32 251.23 98.78 249.73 C 101.57 248.15 106.52 248.59 106.88 244.74 C 107.41 241.90 111.79 244.80 113.18 245.90 C 117.93 247.86 120.64 242.72 124.97 242.99 C 129.49 245.22 130.69 240.98 133.12 238.95 C 135.25 238.30 136.09 241.03 138.00 240.99 C 143.89 244.28 142.98 234.32 149.01 238.05 C 151.40 237.93 156.17 237.69 158.55 237.56 C 161.80 235.49 166.10 231.60 169.80 234.64 C 171.63 233.22 172.96 230.43 175.69 231.03 C 176.07 232.46 175.80 234.78 178.00 233.95 C 181.05 232.40 186.40 232.78 186.88 228.74 C 187.40 225.90 191.79 228.80 193.18 229.90 C 197.92 231.82 200.64 226.77 204.96 226.97 C 209.00 228.67 210.85 225.23 213.33 223.32 C 217.48 223.47 221.67 223.27 225.80 223.79 C 224.29 220.67 227.81 220.01 230.01 219.04 C 232.70 220.59 234.66 224.20 238.56 221.65 C 240.91 219.29 243.94 218.21 247.37 218.34 Z" />
</g>
<g id="#2b23afff">
<path fill="#2b23af" opacity="1.00" d=" M 216.82 230.09 C 230.08 231.25 242.82 227.53 256.00 227.97 L 256.00 256.00 L 113.65 256.00 C 115.32 254.23 116.89 252.19 119.25 251.32 C 127.84 252.90 136.95 251.19 144.20 246.25 C 154.40 245.97 164.42 244.14 174.63 243.69 C 176.33 240.61 179.44 239.40 182.70 238.62 C 186.00 240.95 190.73 240.49 193.37 237.39 C 202.65 235.42 212.26 235.24 221.73 234.76 C 222.60 233.98 223.39 233.11 224.12 232.19 C 221.43 231.94 218.22 232.85 216.82 230.09 Z" />
</g>
</svg>
