<?xml version="1.0" encoding="UTF-8" ?>
<!DOCTYPE svg PUBLIC "-//W3C//DTD SVG 1.1//EN" "http://www.w3.org/Graphics/SVG/1.1/DTD/svg11.dtd">
<svg width="32pt" height="32pt" viewBox="0 0 32 32" version="1.1" xmlns="http://www.w3.org/2000/svg">
<g id="#004498fe">
<path fill="#004498" opacity="1.00" d=" M 0.00 0.00 L 32.00 0.00 L 32.00 32.00 L 0.00 32.00 L 0.00 0.00 M 20.69 2.59 C 19.61 8.07 18.62 13.57 17.55 19.05 C 20.35 21.69 22.83 24.67 25.90 27.00 C 26.67 21.88 27.72 16.81 28.75 11.74 C 26.13 8.63 23.41 5.60 20.69 2.59 M 13.21 19.94 C 14.96 21.41 18.18 22.14 18.05 24.95 L 18.37 23.20 L 22.16 26.33 C 20.38 23.94 18.23 21.88 16.27 19.66 C 16.15 14.66 18.24 9.88 18.52 4.90 C 18.03 4.42 17.07 3.45 16.59 2.97 C 15.13 8.55 14.21 14.26 13.21 19.94 M 11.61 5.34 C 10.57 10.92 9.51 16.49 8.48 22.07 C 12.60 23.64 16.65 25.39 20.84 26.76 C 20.14 26.30 18.75 25.40 18.05 24.95 C 15.81 23.47 13.61 21.94 11.43 20.39 C 12.28 15.59 13.54 10.85 13.92 5.98 C 13.15 5.77 12.38 5.55 11.61 5.34 M 3.98 25.53 C 9.19 26.47 14.39 27.66 19.70 27.88 C 15.31 26.43 11.04 24.64 6.72 22.98 C 7.48 18.55 8.50 14.18 9.18 9.74 C 8.83 9.35 8.13 8.56 7.78 8.17 C 5.53 13.68 5.18 19.74 3.98 25.53 Z" />
</g>
<g id="#ffffffff">
<path fill="#ffffff" opacity="1.00" d=" M 20.69 2.59 C 23.41 5.60 26.13 8.63 28.75 11.74 C 27.72 16.81 26.67 21.88 25.90 27.00 C 22.83 24.67 20.35 21.69 17.55 19.05 C 18.62 13.57 19.61 8.07 20.69 2.59 Z" />
<path fill="#ffffff" opacity="1.00" d=" M 13.21 19.94 C 14.21 14.26 15.13 8.55 16.59 2.97 C 17.07 3.45 18.03 4.42 18.52 4.90 C 18.24 9.88 16.15 14.66 16.27 19.66 C 18.23 21.88 20.38 23.94 22.16 26.33 L 18.37 23.20 L 18.05 24.95 C 18.18 22.14 14.96 21.41 13.21 19.94 Z" />
<path fill="#ffffff" opacity="1.00" d=" M 11.61 5.34 C 12.38 5.55 13.15 5.77 13.92 5.98 C 13.54 10.85 12.28 15.59 11.43 20.39 C 13.61 21.94 15.81 23.47 18.05 24.95 C 18.75 25.40 20.14 26.30 20.84 26.76 C 16.65 25.39 12.60 23.64 8.48 22.07 C 9.51 16.49 10.57 10.92 11.61 5.34 Z" />
<path fill="#ffffff" opacity="1.00" d=" M 3.98 25.53 C 5.18 19.74 5.53 13.68 7.78 8.17 C 8.13 8.56 8.83 9.35 9.18 9.74 C 8.50 14.18 7.48 18.55 6.72 22.98 C 11.04 24.64 15.31 26.43 19.70 27.88 C 14.39 27.66 9.19 26.47 3.98 25.53 Z" />
</g>
</svg>
