<?xml version="1.0" encoding="UTF-8" ?>
<!DOCTYPE svg PUBLIC "-//W3C//DTD SVG 1.1//EN" "http://www.w3.org/Graphics/SVG/1.1/DTD/svg11.dtd">
<svg width="32pt" height="32pt" viewBox="0 0 32 32" version="1.1" xmlns="http://www.w3.org/2000/svg">
<g id="#cb4042ff">
<path fill="#cb4042" opacity="1.00" d=" M 0.00 0.00 L 32.00 0.00 L 32.00 32.00 L 0.00 32.00 L 0.00 0.00 M 18.48 5.26 C 16.55 7.08 14.48 8.74 12.30 10.26 C 12.74 10.69 13.62 11.56 14.07 11.99 C 14.56 11.84 15.54 11.54 16.03 11.39 C 16.18 11.88 16.50 12.85 16.65 13.34 C 15.47 13.75 14.28 14.16 13.09 14.56 C 13.06 13.90 13.00 12.58 12.97 11.92 C 12.31 11.90 10.99 11.85 10.33 11.83 C 10.34 10.75 10.36 9.67 10.38 8.59 C 11.08 8.37 12.47 7.93 13.16 7.71 C 12.63 6.94 12.09 6.16 11.56 5.38 C 9.05 6.13 6.52 6.81 4.05 7.64 C 5.14 8.52 6.34 9.23 7.64 9.77 C 7.63 10.29 7.61 11.34 7.60 11.86 C 6.48 11.88 5.36 11.89 4.23 11.90 C 4.23 12.57 4.22 13.90 4.22 14.57 C 4.91 14.60 6.30 14.66 6.99 14.69 C 6.04 16.84 5.05 18.97 4.00 21.07 C 4.47 21.98 4.94 22.88 5.41 23.79 C 6.16 22.15 6.91 20.52 7.64 18.88 C 7.61 21.74 7.60 24.60 7.60 27.46 C 8.29 27.46 9.68 27.46 10.37 27.46 C 10.37 24.39 10.36 21.33 10.31 18.27 C 10.75 18.89 11.62 20.15 12.06 20.77 C 14.03 18.23 11.46 16.15 10.34 14.00 C 11.75 14.80 13.06 15.76 14.33 16.75 C 15.86 16.26 17.38 15.77 18.91 15.30 C 16.97 16.97 14.92 18.51 12.81 19.96 C 13.24 20.48 14.09 21.51 14.52 22.03 C 14.96 21.64 15.84 20.88 16.28 20.50 C 17.06 21.32 17.84 22.13 18.61 22.95 C 16.46 23.79 14.30 24.60 12.12 25.36 C 12.66 26.13 13.20 26.90 13.74 27.68 C 19.53 26.11 24.73 22.34 26.83 16.55 C 25.20 16.26 23.56 16.00 21.92 15.76 C 21.73 15.01 21.54 14.25 21.35 13.50 C 23.01 11.83 24.49 10.00 25.87 8.08 C 24.08 7.66 22.27 7.36 20.45 7.10 C 20.56 6.75 20.77 6.04 20.88 5.68 C 20.28 5.58 19.08 5.37 18.48 5.26 Z" />
<path fill="#cb4042" opacity="1.00" d=" M 17.57 9.94 C 18.44 9.26 20.29 9.16 20.75 10.37 C 20.62 12.07 16.85 11.64 17.57 9.94 Z" />
<path fill="#cb4042" opacity="1.00" d=" M 17.47 19.03 C 19.24 18.70 21.02 18.43 22.81 18.19 C 22.18 19.13 21.53 20.06 20.89 20.99 C 19.75 20.34 18.61 19.68 17.47 19.03 Z" />
</g>
<g id="#ffffffff">
<path fill="#ffffff" opacity="1.00" d=" M 18.48 5.26 C 19.08 5.37 20.28 5.58 20.88 5.68 C 20.77 6.04 20.56 6.75 20.45 7.10 C 22.27 7.36 24.08 7.66 25.87 8.08 C 24.49 10.00 23.01 11.83 21.35 13.50 C 21.54 14.25 21.73 15.01 21.92 15.76 C 23.56 16.00 25.20 16.26 26.83 16.55 C 24.73 22.34 19.53 26.11 13.74 27.68 C 13.20 26.90 12.66 26.13 12.12 25.36 C 14.30 24.60 16.46 23.79 18.61 22.95 C 17.84 22.13 17.06 21.32 16.28 20.50 C 15.84 20.88 14.96 21.64 14.52 22.03 C 14.09 21.51 13.24 20.48 12.81 19.96 C 14.92 18.51 16.97 16.97 18.91 15.30 C 17.38 15.77 15.86 16.26 14.33 16.75 C 13.06 15.76 11.75 14.80 10.34 14.00 C 11.46 16.15 14.03 18.23 12.06 20.77 C 11.62 20.15 10.75 18.89 10.31 18.27 C 10.36 21.33 10.37 24.39 10.37 27.46 C 9.68 27.46 8.29 27.46 7.60 27.46 C 7.60 24.60 7.61 21.74 7.64 18.88 C 6.91 20.52 6.16 22.15 5.41 23.79 C 4.94 22.88 4.47 21.98 4.00 21.07 C 5.05 18.97 6.04 16.84 6.99 14.69 C 6.30 14.66 4.91 14.60 4.22 14.57 C 4.22 13.90 4.23 12.57 4.23 11.90 C 5.36 11.89 6.48 11.88 7.60 11.86 C 7.61 11.34 7.63 10.29 7.64 9.77 C 6.34 9.23 5.14 8.52 4.05 7.64 C 6.52 6.81 9.05 6.13 11.56 5.38 C 12.09 6.16 12.63 6.94 13.16 7.71 C 12.47 7.93 11.08 8.37 10.38 8.59 C 10.36 9.67 10.34 10.75 10.33 11.83 C 10.99 11.85 12.31 11.90 12.97 11.92 C 13.00 12.58 13.06 13.90 13.09 14.56 C 14.28 14.16 15.47 13.75 16.65 13.34 C 16.50 12.85 16.18 11.88 16.03 11.39 C 15.54 11.54 14.56 11.84 14.07 11.99 C 13.62 11.56 12.74 10.69 12.30 10.26 C 14.48 8.74 16.55 7.08 18.48 5.26 M 17.57 9.94 C 16.85 11.64 20.62 12.07 20.75 10.37 C 20.29 9.16 18.44 9.26 17.57 9.94 M 17.47 19.03 C 18.61 19.68 19.75 20.34 20.89 20.99 C 21.53 20.06 22.18 19.13 22.81 18.19 C 21.02 18.43 19.24 18.70 17.47 19.03 Z" />
</g>
</svg>
