<?xml version="1.0" encoding="UTF-8" ?>
<!DOCTYPE svg PUBLIC "-//W3C//DTD SVG 1.1//EN" "http://www.w3.org/Graphics/SVG/1.1/DTD/svg11.dtd">
<svg width="16pt" height="16pt" viewBox="0 0 16 16" version="1.1" xmlns="http://www.w3.org/2000/svg">
<g id="#595656ff">
<path fill="#595656" opacity="1.00" d=" M 0.00 0.00 L 10.39 0.00 C 7.81 2.30 5.43 4.97 4.01 8.15 C 2.73 11.16 5.09 13.80 6.81 16.00 L 0.00 16.00 L 0.00 16.00 C 0.52 15.66 1.57 14.97 2.09 14.63 C 2.67 10.48 2.53 6.22 2.23 2.06 C 1.67 1.55 0.56 0.55 0.00 0.05 L 0.00 0.00 Z" />
<path fill="#595656" opacity="1.00" d=" M 12.41 1.37 C 14.51 3.28 16.23 5.97 15.67 8.93 C 15.55 11.96 13.23 14.11 11.14 16.00 L 7.12 16.00 C 9.51 11.36 11.44 6.52 12.41 1.37 Z" />
</g>
</svg>
