<?xml version="1.0" encoding="UTF-8" ?>
<!DOCTYPE svg PUBLIC "-//W3C//DTD SVG 1.1//EN" "http://www.w3.org/Graphics/SVG/1.1/DTD/svg11.dtd">
<svg width="16pt" height="16pt" viewBox="0 0 16 16" version="1.1" xmlns="http://www.w3.org/2000/svg">
<g id="#fafafaff">
<path fill="#fafafa" opacity="1.00" d=" M 0.00 0.00 L 5.65 0.00 C 3.37 0.85 1.10 1.90 0.00 4.21 L 0.00 0.00 Z" />
<path fill="#fafafa" opacity="1.00" d=" M 10.43 0.00 L 16.00 0.00 L 16.00 4.33 C 14.87 2.06 12.74 0.83 10.43 0.00 Z" />
</g>
<g id="#282828ff">
<path fill="#282828" opacity="1.00" d=" M 5.65 0.00 L 10.43 0.00 C 12.74 0.83 14.87 2.06 16.00 4.33 L 16.00 5.48 C 13.69 9.16 11.64 13.07 8.34 16.00 L 7.38 16.00 C 4.54 12.87 2.34 9.27 0.00 5.77 L 0.00 4.21 C 1.10 1.90 3.37 0.85 5.65 0.00 M 5.41 1.32 C 5.15 2.02 4.63 3.42 4.37 4.13 C 6.70 4.24 9.03 4.26 11.36 4.21 C 11.15 3.48 10.74 2.01 10.53 1.27 C 8.82 1.29 7.11 1.18 5.41 1.32 M 0.60 5.89 C 4.21 6.70 7.96 7.14 11.64 6.57 C 12.86 6.44 13.80 5.83 14.46 4.73 C 10.88 4.98 7.26 5.79 3.73 4.63 C 2.45 4.06 1.55 5.26 0.60 5.89 M 3.49 8.76 C 3.93 11.03 5.44 12.71 7.52 13.64 C 7.33 11.16 6.24 8.93 3.49 8.76 M 8.48 13.64 C 10.57 12.70 12.09 11.02 12.52 8.74 C 9.80 8.96 8.65 11.15 8.48 13.64 Z" />
</g>
<g id="#f7f7f7ff">
<path fill="#f7f7f7" opacity="1.00" d=" M 5.41 1.32 C 7.11 1.18 8.82 1.29 10.53 1.27 C 10.74 2.01 11.15 3.48 11.36 4.21 C 9.03 4.26 6.70 4.24 4.37 4.13 C 4.63 3.42 5.15 2.02 5.41 1.32 Z" />
</g>
<g id="#fefefeff">
<path fill="#fefefe" opacity="1.00" d=" M 0.60 5.89 C 1.55 5.26 2.45 4.06 3.73 4.63 C 7.26 5.79 10.88 4.98 14.46 4.73 C 13.80 5.83 12.86 6.44 11.64 6.57 C 7.96 7.14 4.21 6.70 0.60 5.89 Z" />
<path fill="#fefefe" opacity="1.00" d=" M 8.34 16.00 C 11.64 13.07 13.69 9.16 16.00 5.48 L 16.00 16.00 L 8.34 16.00 Z" />
<path fill="#fefefe" opacity="1.00" d=" M 0.00 5.77 C 2.34 9.27 4.54 12.87 7.38 16.00 L 0.00 16.00 L 0.00 5.77 Z" />
</g>
<g id="#dc7823ff">
<path fill="#dc7823" opacity="1.00" d=" M 3.49 8.76 C 6.24 8.93 7.33 11.16 7.52 13.64 C 5.44 12.71 3.93 11.03 3.49 8.76 Z" />
<path fill="#dc7823" opacity="1.00" d=" M 8.48 13.64 C 8.65 11.15 9.80 8.96 12.52 8.74 C 12.09 11.02 10.57 12.70 8.48 13.64 Z" />
</g>
</svg>
