<?xml version="1.0" encoding="UTF-8" ?>
<!DOCTYPE svg PUBLIC "-//W3C//DTD SVG 1.1//EN" "http://www.w3.org/Graphics/SVG/1.1/DTD/svg11.dtd">
<svg width="16pt" height="16pt" viewBox="0 0 16 16" version="1.1" xmlns="http://www.w3.org/2000/svg">
<g id="#1f647fef">
<path fill="#1f647f" opacity="0.94" d=" M 5.18 0.00 L 10.82 0.00 C 12.83 1.42 14.58 3.17 16.00 5.18 L 16.00 10.82 C 14.58 12.83 12.83 14.58 10.82 16.00 L 5.18 16.00 C 3.17 14.58 1.42 12.83 0.00 10.82 L 0.00 5.18 C 1.42 3.17 3.17 1.42 5.18 0.00 M 7.41 4.58 C 5.45 6.81 0.05 5.15 3.03 10.78 C 5.51 11.89 18.35 9.52 10.02 9.91 C 8.20 5.02 15.75 9.59 11.85 5.01 C 8.84 6.80 7.92 6.42 7.41 4.58 Z" />
</g>
<g id="#afbcc5ff">
<path fill="#afbcc5" opacity="1.00" d=" M 7.41 4.58 C 7.92 6.42 8.84 6.80 11.85 5.01 C 15.75 9.59 8.20 5.02 10.02 9.91 C 18.35 9.52 5.51 11.89 3.03 10.78 C 0.05 5.15 5.45 6.81 7.41 4.58 M 4.24 7.31 C 2.64 13.38 10.35 6.41 4.24 7.31 Z" />
</g>
<g id="#254e7aff">
<path fill="#254e7a" opacity="1.00" d=" M 4.24 7.31 C 10.35 6.41 2.64 13.38 4.24 7.31 Z" />
</g>
</svg>
