<?xml version="1.0" encoding="UTF-8" ?>
<!DOCTYPE svg PUBLIC "-//W3C//DTD SVG 1.1//EN" "http://www.w3.org/Graphics/SVG/1.1/DTD/svg11.dtd">
<svg width="16pt" height="16pt" viewBox="0 0 16 16" version="1.1" xmlns="http://www.w3.org/2000/svg">
<g id="#df4c19e5">
<path fill="#df4c19" opacity="0.90" d=" M 5.87 0.00 L 9.80 0.00 C 12.73 0.83 14.87 3.10 16.00 5.86 L 16.00 9.80 C 14.08 11.62 15.01 15.06 12.25 15.99 L 12.46 16.00 L 10.90 16.00 C 10.77 14.22 14.61 14.64 13.48 12.42 C 15.37 9.58 15.57 5.52 12.92 3.06 C 9.79 -0.28 3.60 0.72 1.77 4.93 C -0.75 9.26 3.42 15.38 8.33 14.63 L 10.41 15.05 C 10.39 15.29 10.36 15.76 10.35 16.00 L 5.29 16.00 C 3.31 14.23 1.01 12.72 0.00 10.05 L 0.00 6.03 C 0.94 3.19 3.15 1.13 5.87 0.00 Z" />
<path fill="#df4c19" opacity="0.90" d=" M 3.20 5.03 C 6.52 2.88 6.35 7.38 8.03 9.09 C 8.87 7.72 9.71 6.33 9.95 4.71 C 10.66 4.78 12.10 4.90 12.82 4.97 C 12.80 7.85 10.58 10.15 9.43 12.69 C 8.45 12.88 7.48 12.86 6.51 12.63 C 5.46 10.10 3.18 7.87 3.20 5.03 Z" />
</g>
</svg>
