<?xml version="1.0" encoding="UTF-8" ?>
<!DOCTYPE svg PUBLIC "-//W3C//DTD SVG 1.1//EN" "http://www.w3.org/Graphics/SVG/1.1/DTD/svg11.dtd">
<svg width="67pt" height="65pt" viewBox="0 0 67 65" version="1.1" xmlns="http://www.w3.org/2000/svg">
<g id="#ffffffff">
<path fill="#ffffff" opacity="1.00" d=" M 0.00 0.00 L 37.90 0.00 C 34.97 0.96 31.89 2.29 30.82 5.46 C 28.81 5.03 26.79 4.64 24.76 4.29 C 24.75 3.32 24.73 1.38 24.72 0.40 C 21.87 2.85 18.47 5.60 19.27 9.85 C 17.39 10.45 15.52 11.08 13.65 11.71 C 12.78 10.58 11.92 9.45 11.06 8.32 C 10.07 11.68 8.64 15.28 10.62 18.61 C 9.48 19.73 8.35 20.87 7.22 22.00 C 5.99 21.32 4.78 20.64 3.57 19.94 C 3.53 23.77 4.80 27.44 7.77 29.97 C 7.42 31.75 6.68 33.45 5.72 34.98 C 4.42 35.29 3.11 35.41 1.77 35.33 C 3.85 38.42 6.18 42.01 10.35 42.11 C 10.50 44.06 10.74 46.01 10.66 47.96 C 9.52 48.43 8.36 48.86 7.19 49.26 C 9.53 51.70 12.78 52.63 16.08 52.76 C 16.52 52.39 17.41 51.65 17.85 51.28 C 19.13 53.14 20.42 54.99 21.72 56.83 C 20.86 57.77 20.00 58.72 19.13 59.65 C 22.75 60.12 26.46 59.64 29.18 56.99 C 30.69 57.87 32.19 58.75 33.69 59.65 C 33.24 60.99 32.78 62.32 32.34 63.66 C 35.91 62.18 40.01 60.50 40.66 56.16 C 42.60 56.37 44.56 56.43 46.47 56.80 C 46.84 57.64 47.58 59.32 47.95 60.17 C 50.30 57.21 52.01 53.79 51.43 49.91 C 53.23 49.69 54.55 49.01 54.30 47.06 L 54.85 46.81 C 56.51 47.73 58.04 48.85 59.50 50.06 C 59.70 48.01 59.93 45.95 60.29 43.91 C 59.59 42.39 58.85 40.89 58.10 39.39 C 59.15 37.90 60.19 36.39 61.22 34.88 C 62.75 35.18 64.28 35.46 65.82 35.71 C 64.32 32.18 62.02 28.97 58.50 27.25 C 59.11 25.08 59.54 22.86 59.94 20.64 C 61.33 20.61 62.71 20.58 64.09 20.54 C 62.16 18.85 60.32 17.01 58.12 15.67 C 55.80 14.64 54.19 16.83 52.55 18.03 C 53.03 14.79 51.84 11.78 50.28 9.01 C 51.56 8.30 52.85 7.60 54.14 6.92 C 51.60 6.04 48.95 5.52 46.26 5.39 C 45.22 6.19 44.18 6.98 43.15 7.77 C 41.41 6.21 39.68 4.65 37.90 3.13 C 38.49 2.08 39.10 1.03 39.73 0.00 L 67.00 0.00 L 67.00 65.00 L 0.00 65.00 L 0.00 0.00 Z" />
<path fill="#ffffff" opacity="1.00" d=" M 21.81 28.93 C 22.54 23.75 26.74 19.21 32.00 18.57 C 36.57 18.21 40.94 20.91 43.26 24.75 C 40.42 23.10 37.47 20.90 33.97 21.48 C 26.77 22.00 21.29 30.27 24.66 36.97 C 23.27 34.51 21.17 31.95 21.81 28.93 Z" />
</g>
<g id="#5f5e2fff">
<path fill="#5f5e2f" opacity="1.00" d=" M 37.90 0.00 L 39.73 0.00 C 39.10 1.03 38.49 2.08 37.90 3.13 C 39.68 4.65 41.41 6.21 43.15 7.77 C 44.18 6.98 45.22 6.19 46.26 5.39 C 48.95 5.52 51.60 6.04 54.14 6.92 C 52.85 7.60 51.56 8.30 50.28 9.01 C 51.84 11.78 53.03 14.79 52.55 18.03 C 54.19 16.83 55.80 14.64 58.12 15.67 C 60.32 17.01 62.16 18.85 64.09 20.54 C 62.71 20.58 61.33 20.61 59.94 20.64 C 59.54 22.86 59.11 25.08 58.50 27.25 C 62.02 28.97 64.32 32.18 65.82 35.71 C 64.28 35.46 62.75 35.18 61.22 34.88 C 60.19 36.39 59.15 37.90 58.10 39.39 C 58.85 40.89 59.59 42.39 60.29 43.91 C 59.93 45.95 59.70 48.01 59.50 50.06 C 58.04 48.85 56.51 47.73 54.85 46.81 C 56.03 45.90 57.36 45.77 58.82 46.40 C 58.52 44.83 58.99 42.80 57.53 41.68 C 54.99 40.85 52.40 40.23 49.85 39.43 C 48.56 41.23 46.80 42.83 46.08 44.97 C 47.60 47.55 50.48 49.74 53.32 47.46 C 53.56 47.36 54.06 47.16 54.30 47.06 C 54.55 49.01 53.23 49.69 51.43 49.91 C 52.01 53.79 50.30 57.21 47.95 60.17 C 47.58 59.32 46.84 57.64 46.47 56.80 C 44.56 56.43 42.60 56.37 40.66 56.16 C 40.01 60.50 35.91 62.18 32.34 63.66 C 32.78 62.32 33.24 60.99 33.69 59.65 C 32.19 58.75 30.69 57.87 29.18 56.99 C 26.46 59.64 22.75 60.12 19.13 59.65 C 20.00 58.72 20.86 57.77 21.72 56.83 C 20.42 54.99 19.13 53.14 17.85 51.28 C 17.41 51.65 16.52 52.39 16.08 52.76 C 12.78 52.63 9.53 51.70 7.19 49.26 C 8.36 48.86 9.52 48.43 10.66 47.96 C 10.74 46.01 10.50 44.06 10.35 42.11 C 6.18 42.01 3.85 38.42 1.77 35.33 C 3.11 35.41 4.42 35.29 5.72 34.98 C 6.68 33.45 7.42 31.75 7.77 29.97 C 4.80 27.44 3.53 23.77 3.57 19.94 C 4.78 20.64 5.99 21.32 7.22 22.00 C 8.35 20.87 9.48 19.73 10.62 18.61 C 8.64 15.28 10.07 11.68 11.06 8.32 C 11.92 9.45 12.78 10.58 13.65 11.71 C 15.52 11.08 17.39 10.45 19.27 9.85 C 18.47 5.60 21.87 2.85 24.72 0.40 C 24.73 1.38 24.75 3.32 24.76 4.29 C 26.79 4.64 28.81 5.03 30.82 5.46 C 31.89 2.29 34.97 0.96 37.90 0.00 M 32.61 4.99 C 33.44 7.51 33.78 10.15 33.90 12.79 C 34.55 12.81 35.86 12.85 36.51 12.87 C 37.23 13.03 38.67 13.36 39.39 13.52 L 39.28 14.23 C 41.71 13.51 42.32 10.47 41.53 8.34 C 39.76 6.11 36.11 5.17 36.25 1.79 C 35.04 2.86 33.83 3.92 32.61 4.99 M 20.49 7.94 C 22.83 10.70 24.69 13.92 27.63 16.12 C 24.47 17.56 21.63 19.82 19.92 22.88 C 14.87 30.98 18.95 42.86 27.79 46.33 C 35.93 49.80 46.25 45.10 48.77 36.58 C 50.87 37.98 53.40 39.04 55.95 38.85 C 58.75 37.35 59.01 32.96 62.66 32.57 C 61.77 31.50 60.90 30.42 60.03 29.33 C 57.32 29.99 54.57 30.37 51.84 30.89 C 51.77 31.55 51.63 32.86 51.56 33.52 C 51.51 34.31 51.39 35.87 51.33 36.66 C 50.61 36.08 49.93 35.45 49.30 34.78 C 50.68 28.72 48.57 22.05 43.56 18.27 C 39.27 14.33 32.89 14.56 27.61 15.94 C 27.72 15.42 27.95 14.37 28.07 13.85 L 28.57 13.96 C 28.94 13.67 29.70 13.09 30.08 12.80 C 30.52 12.79 31.39 12.77 31.83 12.76 C 31.57 11.20 31.86 9.43 31.03 8.03 C 28.83 5.47 24.47 7.52 22.79 4.09 C 22.02 5.37 21.26 6.65 20.49 7.94 M 45.53 7.53 C 44.17 9.93 43.85 12.81 42.23 15.10 C 42.81 15.46 43.97 16.18 44.56 16.54 C 45.98 17.52 47.41 20.78 49.29 18.89 C 52.31 16.34 51.10 12.60 49.24 9.77 C 49.44 8.85 49.63 7.94 49.83 7.02 C 48.40 7.19 46.88 6.99 45.53 7.53 M 13.98 13.62 C 13.34 13.29 12.06 12.62 11.42 12.29 C 11.42 13.97 11.51 15.64 11.68 17.31 C 14.45 17.08 16.83 18.40 19.07 19.83 C 19.47 19.56 20.27 19.02 20.67 18.75 C 21.67 17.85 22.69 16.98 23.72 16.12 C 23.15 14.16 21.88 12.47 20.08 11.48 C 17.90 11.67 15.95 12.75 13.98 13.62 M 49.14 21.63 C 49.45 22.22 50.07 23.38 50.37 23.97 C 50.66 24.85 50.94 25.73 51.23 26.61 C 51.75 29.55 55.45 28.27 57.06 26.97 C 58.47 24.33 57.26 20.56 60.20 18.74 C 58.85 18.00 57.50 17.25 56.15 16.49 C 54.08 18.54 51.84 20.45 49.14 21.63 M 8.31 23.51 C 7.55 23.53 6.01 23.58 5.24 23.61 C 5.96 24.94 6.62 26.32 7.49 27.57 C 10.32 27.93 13.19 27.57 16.03 27.87 C 16.11 27.29 16.28 26.13 16.36 25.55 L 16.64 25.55 C 16.89 24.80 17.40 23.30 17.66 22.55 L 18.39 22.82 C 17.34 20.59 14.59 18.66 12.14 19.90 C 10.66 20.87 9.53 22.25 8.31 23.51 M 8.69 32.36 C 8.20 34.62 7.18 36.62 5.19 37.91 C 6.42 38.71 7.58 39.66 8.97 40.18 C 11.76 39.11 14.21 37.30 17.01 36.21 L 15.83 34.46 C 15.85 33.00 15.84 31.54 15.82 30.08 L 15.62 30.16 C 13.24 29.56 9.55 29.45 8.69 32.36 M 13.32 40.34 C 10.69 42.18 12.40 45.42 12.84 47.91 C 12.49 48.51 11.78 49.72 11.42 50.32 C 12.99 50.34 14.89 51.36 16.30 50.45 C 17.69 48.21 19.20 46.05 20.89 44.03 C 20.59 43.59 20.00 42.73 19.70 42.29 C 19.11 41.37 18.52 40.45 17.95 39.52 C 16.87 37.55 14.59 39.48 13.32 40.34 M 19.12 49.97 C 20.47 52.85 23.57 55.05 23.28 58.51 C 24.74 57.86 26.18 57.15 27.54 56.31 C 26.84 53.67 27.31 51.01 27.69 48.37 C 27.18 48.12 26.16 47.62 25.66 47.36 C 24.70 46.84 23.75 46.30 22.80 45.76 L 23.10 45.00 C 21.39 46.32 20.08 48.04 19.12 49.97 M 42.25 47.34 C 41.17 47.73 40.08 48.12 38.98 48.47 C 37.93 50.50 39.27 52.93 40.69 54.41 C 43.47 54.96 46.49 54.31 49.03 55.93 C 49.50 54.66 49.98 53.39 50.46 52.12 C 48.22 50.25 46.32 48.03 44.19 46.04 C 43.71 46.37 42.74 47.02 42.25 47.34 M 29.53 49.45 C 29.46 51.50 28.38 54.17 30.36 55.67 C 32.52 57.02 35.05 58.11 35.78 60.84 C 36.78 59.58 38.07 58.50 38.71 56.99 C 37.88 54.45 36.96 51.93 36.32 49.33 C 34.06 49.12 31.79 49.22 29.53 49.45 Z" />
</g>
<g id="#ffff2bff">
<path fill="#ffff2b" opacity="1.00" d=" M 32.61 4.99 C 33.83 3.92 35.04 2.86 36.25 1.79 C 36.11 5.17 39.76 6.11 41.53 8.34 C 42.32 10.47 41.71 13.51 39.28 14.23 L 39.39 13.52 C 39.53 11.88 40.26 10.12 39.51 8.53 C 38.22 7.20 36.43 6.53 34.85 5.63 C 35.39 8.04 35.96 10.45 36.51 12.87 C 35.86 12.85 34.55 12.81 33.90 12.79 C 33.78 10.15 33.44 7.51 32.61 4.99 Z" />
<path fill="#ffff2b" opacity="1.00" d=" M 20.49 7.94 C 21.26 6.65 22.02 5.37 22.79 4.09 C 24.47 7.52 28.83 5.47 31.03 8.03 C 31.86 9.43 31.57 11.20 31.83 12.76 C 31.39 12.77 30.52 12.79 30.08 12.80 C 31.41 8.05 25.93 7.31 22.53 7.66 C 24.33 9.50 26.28 11.22 27.87 13.25 L 28.07 13.85 C 27.95 14.37 27.72 15.42 27.61 15.94 C 32.89 14.56 39.27 14.33 43.56 18.27 C 48.57 22.05 50.68 28.72 49.30 34.78 C 49.93 35.45 50.61 36.08 51.33 36.66 C 52.97 36.76 54.94 37.56 56.34 36.31 C 57.86 35.02 58.31 32.95 59.12 31.21 C 56.62 32.06 54.11 32.84 51.56 33.52 C 51.63 32.86 51.77 31.55 51.84 30.89 C 54.57 30.37 57.32 29.99 60.03 29.33 C 60.90 30.42 61.77 31.50 62.66 32.57 C 59.01 32.96 58.75 37.35 55.95 38.85 C 53.40 39.04 50.87 37.98 48.77 36.58 C 46.25 45.10 35.93 49.80 27.79 46.33 C 18.95 42.86 14.87 30.98 19.92 22.88 C 21.63 19.82 24.47 17.56 27.63 16.12 C 24.69 13.92 22.83 10.70 20.49 7.94 M 21.81 28.93 C 21.17 31.95 23.27 34.51 24.66 36.97 C 21.29 30.27 26.77 22.00 33.97 21.48 C 37.47 20.90 40.42 23.10 43.26 24.75 C 40.94 20.91 36.57 18.21 32.00 18.57 C 26.74 19.21 22.54 23.75 21.81 28.93 M 44.77 22.39 C 44.79 25.26 45.30 28.15 44.91 31.00 C 43.61 36.17 39.56 40.49 34.58 42.29 C 30.58 43.38 26.51 42.31 22.72 40.97 C 26.21 45.88 33.47 47.29 38.88 45.00 C 47.49 41.91 51.32 29.16 44.77 22.39 Z" />
<path fill="#ffff2b" opacity="1.00" d=" M 45.53 7.53 C 46.88 6.99 48.40 7.19 49.83 7.02 C 49.63 7.94 49.44 8.85 49.24 9.77 C 51.10 12.60 52.31 16.34 49.29 18.89 C 50.14 15.20 48.91 11.67 46.56 8.83 C 46.03 11.43 45.45 14.03 44.56 16.54 C 43.97 16.18 42.81 15.46 42.23 15.10 C 43.85 12.81 44.17 9.93 45.53 7.53 Z" />
<path fill="#ffff2b" opacity="1.00" d=" M 13.98 13.62 C 15.95 12.75 17.90 11.67 20.08 11.48 C 21.88 12.47 23.15 14.16 23.72 16.12 C 22.19 15.20 20.77 14.00 19.02 13.48 C 17.08 13.64 15.43 14.82 13.70 15.61 C 16.08 16.52 18.43 17.53 20.67 18.75 C 20.27 19.02 19.47 19.56 19.07 19.83 C 16.83 18.40 14.45 17.08 11.68 17.31 C 11.51 15.64 11.42 13.97 11.42 12.29 C 12.06 12.62 13.34 13.29 13.98 13.62 Z" />
<path fill="#ffff2b" opacity="1.00" d=" M 49.14 21.63 C 51.84 20.45 54.08 18.54 56.15 16.49 C 57.50 17.25 58.85 18.00 60.20 18.74 C 57.26 20.56 58.47 24.33 57.06 26.97 C 55.45 28.27 51.75 29.55 51.23 26.61 C 52.69 26.43 54.67 27.22 55.56 25.64 C 57.01 23.61 56.48 20.93 56.67 18.60 C 54.70 20.54 52.80 22.59 50.37 23.97 C 50.07 23.38 49.45 22.22 49.14 21.63 Z" />
<path fill="#ffff2b" opacity="1.00" d=" M 8.31 23.51 C 9.53 22.25 10.66 20.87 12.14 19.90 C 14.59 18.66 17.34 20.59 18.39 22.82 L 17.66 22.55 C 16.03 22.12 14.37 20.98 12.63 21.51 C 10.76 22.31 9.90 24.31 8.76 25.85 C 11.29 25.63 13.82 25.49 16.36 25.55 C 16.28 26.13 16.11 27.29 16.03 27.87 C 13.19 27.57 10.32 27.93 7.49 27.57 C 6.62 26.32 5.96 24.94 5.24 23.61 C 6.01 23.58 7.55 23.53 8.31 23.51 Z" />
<path fill="#ffff2b" opacity="1.00" d=" M 8.69 32.36 C 9.55 29.45 13.24 29.56 15.62 30.16 C 13.73 31.03 11.56 31.52 10.00 32.97 C 9.30 34.69 9.20 36.57 8.87 38.38 C 11.03 36.82 13.22 35.20 15.83 34.46 L 17.01 36.21 C 14.21 37.30 11.76 39.11 8.97 40.18 C 7.58 39.66 6.42 38.71 5.19 37.91 C 7.18 36.62 8.20 34.62 8.69 32.36 Z" />
<path fill="#ffff2b" opacity="1.00" d=" M 13.32 40.34 C 14.59 39.48 16.87 37.55 17.95 39.52 C 16.44 40.56 14.17 41.04 13.64 43.04 C 13.18 45.23 14.47 47.21 15.26 49.15 C 16.10 46.49 17.37 43.96 19.70 42.29 C 20.00 42.73 20.59 43.59 20.89 44.03 C 19.20 46.05 17.69 48.21 16.30 50.45 C 14.89 51.36 12.99 50.34 11.42 50.32 C 11.78 49.72 12.49 48.51 12.84 47.91 C 12.40 45.42 10.69 42.18 13.32 40.34 Z" />
<path fill="#ffff2b" opacity="1.00" d=" M 19.12 49.97 C 20.08 48.04 21.39 46.32 23.10 45.00 L 22.80 45.76 C 22.28 47.16 21.66 48.53 21.34 50.00 C 21.60 52.41 23.88 53.82 25.44 55.42 C 25.45 52.73 25.50 50.05 25.66 47.36 C 26.16 47.62 27.18 48.12 27.69 48.37 C 27.31 51.01 26.84 53.67 27.54 56.31 C 26.18 57.15 24.74 57.86 23.28 58.51 C 23.57 55.05 20.47 52.85 19.12 49.97 Z" />
<path fill="#ffff2b" opacity="1.00" d=" M 42.25 47.34 C 42.74 47.02 43.71 46.37 44.19 46.04 C 46.32 48.03 48.22 50.25 50.46 52.12 C 49.98 53.39 49.50 54.66 49.03 55.93 C 46.49 54.31 43.47 54.96 40.69 54.41 C 39.27 52.93 37.93 50.50 38.98 48.47 C 39.80 49.85 40.53 51.29 41.47 52.59 C 43.51 53.79 46.00 52.78 48.21 52.78 C 46.08 51.13 44.03 49.37 42.25 47.34 Z" />
<path fill="#ffff2b" opacity="1.00" d=" M 29.53 49.45 C 31.79 49.22 34.06 49.12 36.32 49.33 C 36.96 51.93 37.88 54.45 38.71 56.99 C 38.07 58.50 36.78 59.58 35.78 60.84 C 35.05 58.11 32.52 57.02 30.36 55.67 C 28.38 54.17 29.46 51.50 29.53 49.45 M 31.02 54.01 C 32.49 55.81 34.88 56.30 36.98 56.97 C 36.01 54.74 34.25 52.62 34.73 50.04 C 33.42 49.98 32.12 49.92 30.82 49.86 C 30.60 51.21 29.98 52.84 31.02 54.01 Z" />
</g>
<g id="#fcb135ff">
<path fill="#fcb135" opacity="1.00" d=" M 34.85 5.63 C 36.43 6.53 38.22 7.20 39.51 8.53 C 40.26 10.12 39.53 11.88 39.39 13.52 C 38.67 13.36 37.23 13.03 36.51 12.87 C 35.96 10.45 35.39 8.04 34.85 5.63 Z" />
<path fill="#fcb135" opacity="1.00" d=" M 22.53 7.66 C 25.93 7.31 31.41 8.05 30.08 12.80 C 29.70 13.09 28.94 13.67 28.57 13.96 L 28.07 13.85 L 27.87 13.25 C 26.28 11.22 24.33 9.50 22.53 7.66 Z" />
<path fill="#fcb135" opacity="1.00" d=" M 46.56 8.83 C 48.91 11.67 50.14 15.20 49.29 18.89 C 47.41 20.78 45.98 17.52 44.56 16.54 C 45.45 14.03 46.03 11.43 46.56 8.83 Z" />
<path fill="#fcb135" opacity="1.00" d=" M 13.70 15.61 C 15.43 14.82 17.08 13.64 19.02 13.48 C 20.77 14.00 22.19 15.20 23.72 16.12 C 22.69 16.98 21.67 17.85 20.67 18.75 C 18.43 17.53 16.08 16.52 13.70 15.61 Z" />
<path fill="#fcb135" opacity="1.00" d=" M 50.37 23.97 C 52.80 22.59 54.70 20.54 56.67 18.60 C 56.48 20.93 57.01 23.61 55.56 25.64 C 54.67 27.22 52.69 26.43 51.23 26.61 C 50.94 25.73 50.66 24.85 50.37 23.97 Z" />
<path fill="#fcb135" opacity="1.00" d=" M 12.63 21.51 C 14.37 20.98 16.03 22.12 17.66 22.55 C 17.40 23.30 16.89 24.80 16.64 25.55 L 16.36 25.55 C 13.82 25.49 11.29 25.63 8.76 25.85 C 9.90 24.31 10.76 22.31 12.63 21.51 Z" />
<path fill="#fcb135" opacity="1.00" d=" M 44.77 22.39 C 51.32 29.16 47.49 41.91 38.88 45.00 C 33.47 47.29 26.21 45.88 22.72 40.97 C 26.51 42.31 30.58 43.38 34.58 42.29 C 39.56 40.49 43.61 36.17 44.91 31.00 C 45.30 28.15 44.79 25.26 44.77 22.39 Z" />
<path fill="#fcb135" opacity="1.00" d=" M 15.62 30.16 L 15.82 30.08 C 15.84 31.54 15.85 33.00 15.83 34.46 C 13.22 35.20 11.03 36.82 8.87 38.38 C 9.20 36.57 9.30 34.69 10.00 32.97 C 11.56 31.52 13.73 31.03 15.62 30.16 Z" />
<path fill="#fcb135" opacity="1.00" d=" M 51.56 33.52 C 54.11 32.84 56.62 32.06 59.12 31.21 C 58.31 32.95 57.86 35.02 56.34 36.31 C 54.94 37.56 52.97 36.76 51.33 36.66 C 51.39 35.87 51.51 34.31 51.56 33.52 Z" />
<path fill="#fcb135" opacity="1.00" d=" M 13.64 43.04 C 14.17 41.04 16.44 40.56 17.95 39.52 C 18.52 40.45 19.11 41.37 19.70 42.29 C 17.37 43.96 16.10 46.49 15.26 49.15 C 14.47 47.21 13.18 45.23 13.64 43.04 Z" />
<path fill="#fcb135" opacity="1.00" d=" M 46.08 44.97 C 46.80 42.83 48.56 41.23 49.85 39.43 C 52.40 40.23 54.99 40.85 57.53 41.68 C 58.99 42.80 58.52 44.83 58.82 46.40 C 57.36 45.77 56.03 45.90 54.85 46.81 L 54.30 47.06 C 54.06 47.16 53.56 47.36 53.32 47.46 C 50.48 49.74 47.60 47.55 46.08 44.97 Z" />
<path fill="#fcb135" opacity="1.00" d=" M 22.80 45.76 C 23.75 46.30 24.70 46.84 25.66 47.36 C 25.50 50.05 25.45 52.73 25.44 55.42 C 23.88 53.82 21.60 52.41 21.34 50.00 C 21.66 48.53 22.28 47.16 22.80 45.76 Z" />
<path fill="#fcb135" opacity="1.00" d=" M 38.98 48.47 C 40.08 48.12 41.17 47.73 42.25 47.34 C 44.03 49.37 46.08 51.13 48.21 52.78 C 46.00 52.78 43.51 53.79 41.47 52.59 C 40.53 51.29 39.80 49.85 38.98 48.47 Z" />
<path fill="#fcb135" opacity="1.00" d=" M 31.02 54.01 C 29.98 52.84 30.60 51.21 30.82 49.86 C 32.12 49.92 33.42 49.98 34.73 50.04 C 34.25 52.62 36.01 54.74 36.98 56.97 C 34.88 56.30 32.49 55.81 31.02 54.01 Z" />
</g>
</svg>
