<?xml version="1.0" encoding="UTF-8" ?>
<!DOCTYPE svg PUBLIC "-//W3C//DTD SVG 1.1//EN" "http://www.w3.org/Graphics/SVG/1.1/DTD/svg11.dtd">
<svg width="48pt" height="48pt" viewBox="0 0 48 48" version="1.1" xmlns="http://www.w3.org/2000/svg">
<g id="#4a4747ff">
<path fill="#4a4747" opacity="1.00" d=" M 12.25 10.92 C 12.23 6.18 15.98 1.32 21.00 1.51 C 24.09 1.58 27.53 0.94 30.27 2.75 C 32.68 4.25 34.38 7.05 34.28 9.94 C 34.29 19.52 34.31 29.11 34.24 38.69 C 34.95 38.82 36.37 39.07 37.08 39.20 C 35.15 42.16 33.20 45.11 31.12 47.97 C 28.91 45.22 26.95 42.29 24.82 39.50 C 25.27 39.22 26.17 38.67 26.62 38.40 C 26.86 29.02 26.65 19.62 26.69 10.23 C 24.60 10.14 22.36 9.38 20.40 10.45 C 19.53 11.81 19.77 13.48 19.68 15.01 C 19.72 21.43 19.70 27.85 19.71 34.28 C 17.21 34.27 14.70 34.28 12.19 34.28 C 12.25 26.49 12.08 18.70 12.25 10.92 Z" />
</g>
</svg>
