<?xml version="1.0" encoding="UTF-8" ?>
<!DOCTYPE svg PUBLIC "-//W3C//DTD SVG 1.1//EN" "http://www.w3.org/Graphics/SVG/1.1/DTD/svg11.dtd">
<svg width="16pt" height="16pt" viewBox="0 0 16 16" version="1.1" xmlns="http://www.w3.org/2000/svg">
<g id="#ffffffff">
<path fill="#ffffff" opacity="1.00" d=" M 0.00 0.00 L 7.28 0.00 C 5.63 2.09 3.75 4.07 2.47 6.41 C 2.03 9.59 2.26 12.81 2.19 16.00 L 0.00 16.00 L 0.00 0.00 Z" />
<path fill="#ffffff" opacity="1.00" d=" M 8.60 0.00 L 16.00 0.00 L 16.00 16.00 L 13.76 16.00 C 13.70 12.81 13.93 9.60 13.51 6.43 C 12.16 4.09 10.10 2.25 8.60 0.00 Z" />
<path fill="#ffffff" opacity="1.00" d=" M 4.05 6.05 C 6.68 6.03 9.32 6.03 11.95 6.05 C 12.02 9.37 12.07 12.68 12.03 16.00 L 11.09 16.00 C 11.06 14.53 11.02 13.06 10.99 11.59 C 9.00 11.60 7.01 11.61 5.03 11.60 C 4.97 13.06 4.92 14.53 4.87 16.00 L 3.97 16.00 C 3.93 12.68 3.98 9.37 4.05 6.05 M 4.99 7.05 C 4.99 8.41 4.99 9.76 4.98 11.12 C 6.99 11.29 9.01 11.28 11.02 11.12 C 11.01 9.76 11.01 8.41 11.00 7.05 C 9.00 7.01 7.00 7.01 4.99 7.05 Z" />
<path fill="#ffffff" opacity="1.00" d=" M 6.44 9.12 C 7.16 8.28 9.67 8.20 9.57 9.65 C 8.84 10.40 6.32 10.55 6.44 9.12 Z" />
<path fill="#ffffff" opacity="1.00" d=" M 6.00 13.02 C 7.33 13.02 8.67 13.02 10.00 13.02 C 10.00 13.51 10.00 14.49 10.00 14.98 C 8.67 14.98 7.34 14.98 6.00 14.98 C 6.00 14.49 6.00 13.51 6.00 13.02 Z" />
</g>
<g id="#af453cff">
<path fill="#af453c" opacity="1.00" d=" M 7.28 0.00 L 8.60 0.00 C 10.10 2.25 12.16 4.09 13.51 6.43 C 13.93 9.60 13.70 12.81 13.76 16.00 L 12.03 16.00 C 12.07 12.68 12.02 9.37 11.95 6.05 C 9.32 6.03 6.68 6.03 4.05 6.05 C 3.98 9.37 3.93 12.68 3.97 16.00 L 2.19 16.00 C 2.26 12.81 2.03 9.59 2.47 6.41 C 3.75 4.07 5.63 2.09 7.28 0.00 Z" />
<path fill="#af453c" opacity="1.00" d=" M 4.99 7.05 C 7.00 7.01 9.00 7.01 11.00 7.05 C 11.01 8.41 11.01 9.76 11.02 11.12 C 9.01 11.28 6.99 11.29 4.98 11.12 C 4.99 9.76 4.99 8.41 4.99 7.05 M 6.44 9.12 C 6.32 10.55 8.84 10.40 9.57 9.65 C 9.67 8.20 7.16 8.28 6.44 9.12 Z" />
<path fill="#af453c" opacity="1.00" d=" M 5.03 11.60 C 7.01 11.61 9.00 11.60 10.99 11.59 C 11.02 13.06 11.06 14.53 11.09 16.00 L 4.87 16.00 C 4.92 14.53 4.97 13.06 5.03 11.60 M 6.00 13.02 C 6.00 13.51 6.00 14.49 6.00 14.98 C 7.34 14.98 8.67 14.98 10.00 14.98 C 10.00 14.49 10.00 13.51 10.00 13.02 C 8.67 13.02 7.33 13.02 6.00 13.02 Z" />
</g>
</svg>
