<?xml version="1.0" encoding="UTF-8" ?>
<!DOCTYPE svg PUBLIC "-//W3C//DTD SVG 1.1//EN" "http://www.w3.org/Graphics/SVG/1.1/DTD/svg11.dtd">
<svg width="50pt" height="50pt" viewBox="0 0 50 50" version="1.1" xmlns="http://www.w3.org/2000/svg">
<g id="#f0f4f1ff">
<path fill="#f0f4f1" opacity="1.00" d=" M 0.00 0.00 L 50.00 0.00 L 50.00 15.31 C 48.37 13.80 46.81 12.21 45.16 10.72 C 44.56 10.15 43.91 9.65 43.20 9.22 C 39.65 6.82 35.50 5.70 31.32 4.97 C 32.52 7.74 31.12 10.35 30.42 13.02 C 29.98 12.76 29.10 12.24 28.66 11.98 C 28.70 11.53 28.77 10.64 28.81 10.19 C 30.75 6.48 25.38 3.21 22.88 4.89 C 21.91 6.40 20.82 7.99 21.04 9.89 C 20.95 11.61 20.86 13.34 20.60 15.05 C 20.26 14.34 19.92 13.63 19.59 12.91 C 19.09 10.60 18.21 8.40 17.60 6.12 C 13.10 5.43 9.31 7.96 5.80 10.29 C 3.72 11.75 1.89 13.53 0.00 15.22 L 0.00 0.00 M 1.96 3.27 C 1.98 3.69 2.02 4.53 2.04 4.96 L 7.00 5.03 C 10.86 11.35 13.74 1.77 11.24 2.31 C 8.47 1.86 3.23 0.49 1.96 3.27 Z" />
</g>
<g id="#bacdc7ff">
<path fill="#bacdc7" opacity="1.00" d=" M 1.96 3.27 C 3.23 0.49 8.47 1.86 11.24 2.31 C 8.16 2.61 5.08 3.61 1.96 3.27 Z" />
</g>
<g id="#cfe0daff">
<path fill="#cfe0da" opacity="1.00" d=" M 11.24 2.31 C 13.74 1.77 10.86 11.35 7.00 5.03 L 2.04 4.96 C 2.02 4.53 1.98 3.69 1.96 3.27 C 5.08 3.61 8.16 2.61 11.24 2.31 Z" />
</g>
<g id="#808187ff">
<path fill="#808187" opacity="1.00" d=" M 22.88 4.89 C 25.38 3.21 30.75 6.48 28.81 10.19 C 28.56 6.65 24.84 7.00 22.88 4.89 Z" />
</g>
<g id="#2b292fff">
<path fill="#2b292f" opacity="1.00" d=" M 22.88 4.89 C 24.84 7.00 28.56 6.65 28.81 10.19 C 28.77 10.64 28.70 11.53 28.66 11.98 C 28.46 12.49 28.05 13.51 27.85 14.02 C 27.28 13.29 26.61 12.66 25.85 12.15 C 25.40 12.13 24.49 12.10 24.04 12.08 C 22.70 11.87 21.83 10.90 21.04 9.89 C 20.82 7.99 21.91 6.40 22.88 4.89 Z" />
</g>
<g id="#698788ff">
<path fill="#698788" opacity="1.00" d=" M 31.32 4.97 C 35.50 5.70 39.65 6.82 43.20 9.22 C 40.54 9.58 37.87 9.75 35.24 10.26 C 33.50 11.58 32.88 13.74 31.87 15.57 C 30.87 15.50 29.86 15.40 28.87 15.27 C 28.61 14.95 28.10 14.33 27.85 14.02 C 28.05 13.51 28.46 12.49 28.66 11.98 C 29.10 12.24 29.98 12.76 30.42 13.02 C 31.12 10.35 32.52 7.74 31.32 4.97 Z" />
</g>
<g id="#628485ff">
<path fill="#628485" opacity="1.00" d=" M 5.80 10.29 C 9.31 7.96 13.10 5.43 17.60 6.12 C 18.21 8.40 19.09 10.60 19.59 12.91 C 19.79 14.40 17.41 16.02 17.08 14.00 C 16.51 9.54 11.15 9.83 7.78 10.53 C 7.29 10.47 6.29 10.35 5.80 10.29 Z" />
</g>
<g id="#9dc0beff">
<path fill="#9dc0be" opacity="1.00" d=" M 43.20 9.22 C 43.91 9.65 44.56 10.15 45.16 10.72 C 43.36 11.00 41.34 10.71 39.77 11.79 C 39.31 12.10 38.39 12.70 37.93 13.01 C 34.84 13.97 39.17 20.27 35.34 20.11 C 36.76 17.20 34.00 16.60 31.87 15.57 C 32.88 13.74 33.50 11.58 35.24 10.26 C 37.87 9.75 40.54 9.58 43.20 9.22 Z" />
</g>
<g id="#b8d4d2ff">
<path fill="#b8d4d2" opacity="1.00" d=" M 0.00 15.22 C 1.89 13.53 3.72 11.75 5.80 10.29 C 6.29 10.35 7.29 10.47 7.78 10.53 C 8.40 10.83 9.63 11.42 10.25 11.71 C 6.77 13.36 3.21 14.87 0.00 17.03 L 0.00 15.22 Z" />
</g>
<g id="#9dbfbeff">
<path fill="#9dbfbe" opacity="1.00" d=" M 7.78 10.53 C 11.15 9.83 16.51 9.54 17.08 14.00 C 17.41 16.02 19.79 14.40 19.59 12.91 C 19.92 13.63 20.26 14.34 20.60 15.05 C 20.56 15.33 20.47 15.89 20.43 16.18 C 17.79 15.66 15.40 16.71 13.10 17.85 C 15.22 14.22 12.44 12.79 10.25 11.71 C 9.63 11.42 8.40 10.83 7.78 10.53 Z" />
</g>
<g id="#676465ff">
<path fill="#676465" opacity="1.00" d=" M 21.04 9.89 C 21.83 10.90 22.70 11.87 24.04 12.08 C 23.79 14.81 18.44 19.04 27.00 16.11 C 25.52 15.16 25.38 13.72 25.85 12.15 C 26.61 12.66 27.28 13.29 27.85 14.02 C 28.10 14.33 28.61 14.95 28.87 15.27 C 28.85 15.73 28.82 16.65 28.80 17.11 C 28.08 17.09 26.63 17.05 25.91 17.03 C 25.47 17.06 24.59 17.12 24.15 17.14 C 23.00 17.35 21.88 17.64 20.78 18.03 C 20.70 17.76 20.54 17.22 20.46 16.95 L 20.43 16.18 C 20.47 15.89 20.56 15.33 20.60 15.05 C 20.86 13.34 20.95 11.61 21.04 9.89 Z" />
</g>
<g id="#b9d5d3ff">
<path fill="#b9d5d3" opacity="1.00" d=" M 39.77 11.79 C 41.34 10.71 43.36 11.00 45.16 10.72 C 46.81 12.21 48.37 13.80 50.00 15.31 L 50.00 17.10 C 47.17 14.21 42.81 14.32 39.77 11.79 Z" />
</g>
<g id="#e0eae9ff">
<path fill="#e0eae9" opacity="1.00" d=" M 0.00 17.03 C 3.21 14.87 6.77 13.36 10.25 11.71 C 12.75 15.19 9.17 19.22 10.96 23.15 C 8.74 23.14 6.73 22.31 4.90 21.12 C 5.57 23.40 6.39 25.63 7.17 27.87 C 7.36 30.47 6.70 32.88 4.79 34.70 L 4.03 34.93 C 2.31 33.50 1.18 31.56 0.00 29.69 L 0.00 17.03 Z" />
</g>
<g id="#bbcccbff">
<path fill="#bbcccb" opacity="1.00" d=" M 10.25 11.71 C 12.44 12.79 15.22 14.22 13.10 17.85 C 15.40 16.71 17.79 15.66 20.43 16.18 L 20.46 16.95 C 19.05 18.71 15.71 19.32 15.96 22.01 C 15.86 23.97 17.43 25.42 18.43 26.94 C 18.12 27.41 17.49 28.36 17.17 28.84 C 15.67 27.46 13.98 26.30 12.32 25.10 C 11.98 24.62 11.30 23.64 10.96 23.15 C 9.17 19.22 12.75 15.19 10.25 11.71 Z" />
</g>
<g id="#adb1a8ff">
<path fill="#adb1a8" opacity="1.00" d=" M 24.04 12.08 C 24.49 12.10 25.40 12.13 25.85 12.15 C 25.38 13.72 25.52 15.16 27.00 16.11 C 18.44 19.04 23.79 14.81 24.04 12.08 Z" />
</g>
<g id="#d8e6e4ff">
<path fill="#d8e6e4" opacity="1.00" d=" M 37.93 13.01 C 38.39 12.70 39.31 12.10 39.77 11.79 C 42.81 14.32 47.17 14.21 50.00 17.10 L 50.00 44.44 C 46.91 43.49 47.11 39.68 46.23 37.12 C 46.85 35.69 46.10 34.69 44.91 33.91 C 43.78 32.44 42.99 30.78 42.79 28.92 C 43.95 27.17 45.17 25.32 45.09 23.12 C 42.99 23.51 40.81 24.25 38.85 23.01 C 39.50 19.58 39.64 16.16 37.93 13.01 Z" />
</g>
<g id="#c1d3d2ff">
<path fill="#c1d3d2" opacity="1.00" d=" M 35.34 20.11 C 39.17 20.27 34.84 13.97 37.93 13.01 C 39.64 16.16 39.50 19.58 38.85 23.01 C 38.52 23.21 37.86 23.62 37.53 23.82 C 36.28 24.31 34.91 24.77 33.98 25.79 C 33.69 26.09 33.10 26.69 32.81 26.99 C 32.08 26.26 31.95 25.27 32.41 24.01 C 34.56 20.92 33.39 17.82 30.10 19.07 C 29.78 18.58 29.12 17.60 28.80 17.11 C 28.82 16.65 28.85 15.73 28.87 15.27 C 29.86 15.40 30.87 15.50 31.87 15.57 C 34.00 16.60 36.76 17.20 35.34 20.11 Z" />
</g>
<g id="#191d22ff">
<path fill="#191d22" opacity="1.00" d=" M 20.46 16.95 C 20.54 17.22 20.70 17.76 20.78 18.03 C 21.58 20.94 21.90 25.98 25.82 25.98 C 26.82 24.32 27.47 22.48 28.27 20.72 C 28.44 22.31 28.79 25.48 28.96 27.06 C 27.90 27.69 26.87 28.40 25.85 29.10 C 23.35 28.46 22.49 29.65 23.10 32.07 L 23.13 33.09 C 20.92 35.21 21.76 30.34 21.83 29.06 C 20.93 29.68 20.05 30.33 19.15 30.95 C 19.36 29.51 19.81 27.95 18.43 26.94 C 17.43 25.42 15.86 23.97 15.96 22.01 C 15.71 19.32 19.05 18.71 20.46 16.95 Z" />
</g>
<g id="#4d4e50ff">
<path fill="#4d4e50" opacity="1.00" d=" M 20.78 18.03 C 21.88 17.64 23.00 17.35 24.15 17.14 C 21.42 20.17 26.32 21.37 26.38 17.73 C 27.08 18.68 27.82 19.62 28.27 20.72 C 27.47 22.48 26.82 24.32 25.82 25.98 C 21.90 25.98 21.58 20.94 20.78 18.03 M 22.95 21.03 C 21.99 22.93 26.09 25.60 26.01 23.03 C 26.86 20.53 24.68 20.87 22.95 21.03 Z" />
</g>
<g id="#8e8f8cff">
<path fill="#8e8f8c" opacity="1.00" d=" M 24.15 17.14 C 24.59 17.12 25.47 17.06 25.91 17.03 L 26.38 17.73 C 26.32 21.37 21.42 20.17 24.15 17.14 Z" />
</g>
<g id="#323b40ff">
<path fill="#323b40" opacity="1.00" d=" M 25.91 17.03 C 26.63 17.05 28.08 17.09 28.80 17.11 C 29.12 17.60 29.78 18.58 30.10 19.07 C 31.31 20.48 31.84 22.27 32.41 24.01 C 31.95 25.27 32.08 26.26 32.81 26.99 C 34.55 28.57 37.09 29.29 39.27 28.25 C 40.97 27.48 38.89 26.61 38.08 26.32 C 37.76 25.52 37.58 24.69 37.53 23.82 C 37.86 23.62 38.52 23.21 38.85 23.01 C 40.81 24.25 42.99 23.51 45.09 23.12 C 45.17 25.32 43.95 27.17 42.79 28.92 C 39.49 29.17 36.84 31.32 34.23 33.12 C 36.75 35.78 35.92 39.11 33.87 41.75 L 33.15 42.32 C 31.86 41.13 30.85 39.60 29.30 38.72 C 27.20 36.77 24.62 42.16 22.96 38.40 C 24.59 38.01 26.21 37.51 27.30 36.15 C 23.49 33.78 22.35 36.80 20.65 38.65 C 18.52 40.25 16.69 42.49 16.89 45.31 C 15.47 43.94 13.02 42.30 15.90 41.02 C 14.73 39.17 13.76 37.20 13.78 34.95 C 14.44 34.40 15.09 33.86 15.74 33.31 C 12.76 31.70 10.12 29.54 7.17 27.87 C 6.39 25.63 5.57 23.40 4.90 21.12 C 6.73 22.31 8.74 23.14 10.96 23.15 C 11.30 23.64 11.98 24.62 12.32 25.10 C 8.04 24.72 11.25 28.39 13.18 29.82 C 14.77 32.88 16.08 29.87 17.17 28.84 C 17.49 28.36 18.12 27.41 18.43 26.94 C 19.81 27.95 19.36 29.51 19.15 30.95 C 20.05 30.33 20.93 29.68 21.83 29.06 C 21.76 30.34 20.92 35.21 23.13 33.09 C 25.52 33.82 27.90 34.60 30.07 35.86 C 30.08 34.73 30.04 33.59 29.94 32.46 C 27.65 32.49 25.38 32.21 23.10 32.07 C 22.49 29.65 23.35 28.46 25.85 29.10 C 25.89 32.69 30.39 29.32 28.96 27.06 C 28.79 25.48 28.44 22.31 28.27 20.72 C 27.82 19.62 27.08 18.68 26.38 17.73 L 25.91 17.03 Z" />
</g>
<g id="#94a4a9ff">
<path fill="#94a4a9" opacity="1.00" d=" M 30.10 19.07 C 33.39 17.82 34.56 20.92 32.41 24.01 C 31.84 22.27 31.31 20.48 30.10 19.07 Z" />
</g>
<g id="#767378ff">
<path fill="#767378" opacity="1.00" d=" M 22.95 21.03 C 24.68 20.87 26.86 20.53 26.01 23.03 C 26.09 25.60 21.99 22.93 22.95 21.03 Z" />
</g>
<g id="#8da99dff">
<path fill="#8da99d" opacity="1.00" d=" M 33.98 25.79 C 34.91 24.77 36.28 24.31 37.53 23.82 C 37.58 24.69 37.76 25.52 38.08 26.32 C 36.73 27.29 35.27 26.32 33.98 25.79 Z" />
</g>
<g id="#596f6dff">
<path fill="#596f6d" opacity="1.00" d=" M 13.18 29.82 C 11.25 28.39 8.04 24.72 12.32 25.10 C 13.98 26.30 15.67 27.46 17.17 28.84 C 16.08 29.87 14.77 32.88 13.18 29.82 Z" />
</g>
<g id="#536b6bff">
<path fill="#536b6b" opacity="1.00" d=" M 32.81 26.99 C 33.10 26.69 33.69 26.09 33.98 25.79 C 35.27 26.32 36.73 27.29 38.08 26.32 C 38.89 26.61 40.97 27.48 39.27 28.25 C 37.09 29.29 34.55 28.57 32.81 26.99 Z" />
</g>
<g id="#397271ff">
<path fill="#397271" opacity="1.00" d=" M 25.85 29.10 C 26.87 28.40 27.90 27.69 28.96 27.06 C 30.39 29.32 25.89 32.69 25.85 29.10 Z" />
</g>
<g id="#d3ccc5ff">
<path fill="#d3ccc5" opacity="1.00" d=" M 7.17 27.87 C 10.12 29.54 12.76 31.70 15.74 33.31 C 15.09 33.86 14.44 34.40 13.78 34.95 C 12.75 35.70 12.00 36.71 11.85 38.01 C 9.47 37.09 7.55 34.19 4.79 34.70 C 6.70 32.88 7.36 30.47 7.17 27.87 Z" />
</g>
<g id="#999aa1ff">
<path fill="#999aa1" opacity="1.00" d=" M 34.23 33.12 C 36.84 31.32 39.49 29.17 42.79 28.92 C 42.99 30.78 43.78 32.44 44.91 33.91 C 44.19 34.48 43.47 35.05 42.76 35.62 C 41.06 37.24 36.21 37.91 37.76 40.93 L 36.91 41.09 C 35.89 41.28 34.88 41.50 33.87 41.75 C 35.92 39.11 36.75 35.78 34.23 33.12 Z" />
</g>
<g id="#c5e0dcff">
<path fill="#c5e0dc" opacity="1.00" d=" M 0.00 29.69 C 1.18 31.56 2.31 33.50 4.03 34.93 C 4.54 35.46 5.03 36.00 5.50 36.56 C 3.46 39.02 1.86 41.79 0.00 44.38 L 0.00 29.69 Z" />
</g>
<g id="#3c5c5dff">
<path fill="#3c5c5d" opacity="1.00" d=" M 23.10 32.07 C 25.38 32.21 27.65 32.49 29.94 32.46 C 30.04 33.59 30.08 34.73 30.07 35.86 C 27.90 34.60 25.52 33.82 23.13 33.09 L 23.10 32.07 Z" />
</g>
<g id="#1a1821ff">
<path fill="#1a1821" opacity="1.00" d=" M 4.79 34.70 C 7.55 34.19 9.47 37.09 11.85 38.01 C 12.20 38.89 12.47 39.81 12.46 40.77 C 10.54 43.65 9.13 46.83 7.77 50.00 L 0.00 50.00 L 0.00 44.38 C 1.86 41.79 3.46 39.02 5.50 36.56 C 5.03 36.00 4.54 35.46 4.03 34.93 L 4.79 34.70 Z" />
</g>
<g id="#474b55ff">
<path fill="#474b55" opacity="1.00" d=" M 42.76 35.62 C 43.47 35.05 44.19 34.48 44.91 33.91 C 46.10 34.69 46.85 35.69 46.23 37.12 C 44.58 38.12 43.58 37.06 42.76 35.62 Z" />
</g>
<g id="#688283ff">
<path fill="#688283" opacity="1.00" d=" M 11.85 38.01 C 12.00 36.71 12.75 35.70 13.78 34.95 C 13.76 37.20 14.73 39.17 15.90 41.02 C 13.02 42.30 15.47 43.94 16.89 45.31 C 16.78 45.74 16.58 46.59 16.48 47.01 C 14.07 44.46 13.41 48.23 12.71 50.00 L 9.85 50.00 C 12.07 47.44 13.93 44.39 12.46 40.77 C 12.47 39.81 12.20 38.89 11.85 38.01 Z" />
</g>
<g id="#141718ff">
<path fill="#141718" opacity="1.00" d=" M 20.65 38.65 C 22.35 36.80 23.49 33.78 27.30 36.15 C 26.21 37.51 24.59 38.01 22.96 38.40 C 24.62 42.16 27.20 36.77 29.30 38.72 C 28.04 40.35 26.12 42.14 28.12 44.03 C 28.31 46.75 25.15 45.43 23.46 45.81 C 23.82 44.06 23.56 42.34 22.34 40.97 C 21.92 40.39 21.07 39.23 20.65 38.65 Z" />
</g>
<g id="#1e1b26ff">
<path fill="#1e1b26" opacity="1.00" d=" M 37.76 40.93 C 36.21 37.91 41.06 37.24 42.76 35.62 C 43.58 37.06 44.58 38.12 46.23 37.12 C 47.11 39.68 46.91 43.49 50.00 44.44 L 50.00 50.00 L 42.23 50.00 C 41.30 46.72 39.69 43.72 37.76 40.93 Z" />
</g>
<g id="#adb3acff">
<path fill="#adb3ac" opacity="1.00" d=" M 16.89 45.31 C 16.69 42.49 18.52 40.25 20.65 38.65 C 21.07 39.23 21.92 40.39 22.34 40.97 C 21.73 43.54 19.53 45.31 16.89 45.31 Z" />
</g>
<g id="#a4a29cff">
<path fill="#a4a29c" opacity="1.00" d=" M 29.30 38.72 C 30.85 39.60 31.86 41.13 33.15 42.32 C 32.92 43.63 32.67 44.94 32.35 46.24 C 30.94 45.50 29.53 44.77 28.12 44.03 C 26.12 42.14 28.04 40.35 29.30 38.72 Z" />
</g>
<g id="#92b8b5ff">
<path fill="#92b8b5" opacity="1.00" d=" M 12.46 40.77 C 13.93 44.39 12.07 47.44 9.85 50.00 L 7.77 50.00 C 9.13 46.83 10.54 43.65 12.46 40.77 Z" />
</g>
<g id="#33302fff">
<path fill="#33302f" opacity="1.00" d=" M 22.34 40.97 C 23.56 42.34 23.82 44.06 23.46 45.81 C 25.15 45.43 28.31 46.75 28.12 44.03 C 29.53 44.77 30.94 45.50 32.35 46.24 C 32.63 47.49 32.88 48.74 33.11 50.00 L 15.85 50.00 C 16.01 49.25 16.32 47.76 16.48 47.01 C 16.58 46.59 16.78 45.74 16.89 45.31 C 19.53 45.31 21.73 43.54 22.34 40.97 Z" />
</g>
<g id="#587678ff">
<path fill="#587678" opacity="1.00" d=" M 33.87 41.75 C 34.88 41.50 35.89 41.28 36.91 41.09 C 36.16 44.80 37.61 47.70 40.23 50.00 L 37.37 50.00 C 36.57 48.17 35.61 46.42 34.46 44.78 C 34.34 43.76 34.12 42.75 33.87 41.75 Z" />
</g>
<g id="#96bab7ff">
<path fill="#96bab7" opacity="1.00" d=" M 36.91 41.09 L 37.76 40.93 C 39.69 43.72 41.30 46.72 42.23 50.00 L 40.23 50.00 C 37.61 47.70 36.16 44.80 36.91 41.09 Z" />
</g>
<g id="#475358ff">
<path fill="#475358" opacity="1.00" d=" M 33.15 42.32 L 33.87 41.75 C 34.12 42.75 34.34 43.76 34.46 44.78 C 34.24 46.52 34.07 48.26 33.95 50.00 L 33.11 50.00 C 32.88 48.74 32.63 47.49 32.35 46.24 C 32.67 44.94 32.92 43.63 33.15 42.32 Z" />
</g>
<g id="#92bfbcff">
<path fill="#92bfbc" opacity="1.00" d=" M 34.46 44.78 C 35.61 46.42 36.57 48.17 37.37 50.00 L 33.95 50.00 C 34.07 48.26 34.24 46.52 34.46 44.78 Z" />
</g>
<g id="#96c4bfff">
<path fill="#96c4bf" opacity="1.00" d=" M 12.71 50.00 C 13.41 48.23 14.07 44.46 16.48 47.01 C 16.32 47.76 16.01 49.25 15.85 50.00 L 12.71 50.00 Z" />
</g>
</svg>
