<?xml version="1.0" encoding="UTF-8" ?>
<!DOCTYPE svg PUBLIC "-//W3C//DTD SVG 1.1//EN" "http://www.w3.org/Graphics/SVG/1.1/DTD/svg11.dtd">
<svg width="48pt" height="48pt" viewBox="0 0 48 48" version="1.1" xmlns="http://www.w3.org/2000/svg">
<g id="#e97c08ff">
<path fill="#e97c08" opacity="1.00" d=" M 0.00 0.00 L 48.00 0.00 L 48.00 48.00 L 0.00 48.00 L 0.00 0.00 M 17.64 6.61 C 16.11 10.38 16.75 14.64 18.29 18.29 C 17.53 21.35 15.26 23.88 13.70 26.61 C 11.34 27.12 7.92 26.11 6.38 28.38 C 5.88 31.72 6.13 35.11 6.56 38.44 C 10.01 38.88 13.50 38.94 16.96 38.78 C 18.24 38.87 19.87 38.37 19.96 36.85 C 20.50 33.03 21.04 28.29 17.17 26.01 C 18.68 23.18 20.33 20.44 22.11 17.77 C 23.37 17.81 24.62 17.82 25.88 17.78 C 27.65 20.44 29.29 23.18 30.80 26.00 C 29.43 27.38 27.45 28.71 27.78 30.95 C 28.01 33.41 26.88 37.07 29.40 38.60 C 33.39 39.07 37.44 38.88 41.43 38.43 C 41.96 34.82 42.03 31.14 41.47 27.52 C 39.09 27.03 36.68 26.71 34.25 26.67 C 32.62 23.92 30.38 21.31 29.61 18.20 C 31.23 14.82 31.20 10.98 30.69 7.34 C 30.44 7.05 29.92 6.48 29.67 6.19 C 25.77 5.62 21.36 5.11 17.64 6.61 Z" />
</g>
<g id="#ffffffff">
<path fill="#ffffff" opacity="1.00" d=" M 17.64 6.61 C 21.36 5.11 25.77 5.62 29.67 6.19 C 29.92 6.48 30.44 7.05 30.69 7.34 C 31.20 10.98 31.23 14.82 29.61 18.20 C 30.38 21.31 32.62 23.92 34.25 26.67 C 36.68 26.71 39.09 27.03 41.47 27.52 C 42.03 31.14 41.96 34.82 41.43 38.43 C 37.44 38.88 33.39 39.07 29.40 38.60 C 26.88 37.07 28.01 33.41 27.78 30.95 C 27.45 28.71 29.43 27.38 30.80 26.00 C 29.29 23.18 27.65 20.44 25.88 17.78 C 24.62 17.82 23.37 17.81 22.11 17.77 C 20.33 20.44 18.68 23.18 17.17 26.01 C 21.04 28.29 20.50 33.03 19.96 36.85 C 19.87 38.37 18.24 38.87 16.96 38.78 C 13.50 38.94 10.01 38.88 6.56 38.44 C 6.13 35.11 5.88 31.72 6.38 28.38 C 7.92 26.11 11.34 27.12 13.70 26.61 C 15.26 23.88 17.53 21.35 18.29 18.29 C 16.75 14.64 16.11 10.38 17.64 6.61 Z" />
</g>
</svg>
