<?xml version="1.0" encoding="UTF-8" ?>
<!DOCTYPE svg PUBLIC "-//W3C//DTD SVG 1.1//EN" "http://www.w3.org/Graphics/SVG/1.1/DTD/svg11.dtd">
<svg width="16pt" height="16pt" viewBox="0 0 16 16" version="1.1" xmlns="http://www.w3.org/2000/svg">
<g id="#4169e2ff">
<path fill="#4169e2" opacity="1.00" d=" M 0.00 0.00 L 16.00 0.00 L 16.00 16.00 L 0.00 16.00 L 0.00 0.00 M 2.50 4.57 C 5.03 5.08 7.61 5.24 10.18 5.02 C 8.96 5.75 7.76 6.52 6.60 7.34 C 5.94 6.62 5.27 5.92 4.57 5.24 C 3.99 7.73 3.46 10.26 3.71 12.83 C 4.61 12.83 6.41 12.83 7.31 12.83 C 7.32 11.26 7.29 9.69 7.20 8.12 C 7.66 9.90 8.74 11.04 10.43 11.54 C 9.94 10.25 9.19 9.12 8.20 8.15 C 8.86 7.88 10.17 7.34 10.82 7.08 C 10.87 9.17 10.79 11.26 10.68 13.34 C 13.63 12.13 14.06 6.49 10.72 5.46 C 11.40 5.18 12.76 4.62 13.45 4.33 C 9.91 3.31 5.96 3.17 2.50 4.57 Z" />
</g>
<g id="#b0c0f2ff">
<path fill="#b0c0f2" opacity="1.00" d=" M 2.50 4.57 C 5.96 3.17 9.91 3.31 13.45 4.33 C 12.76 4.62 11.40 5.18 10.72 5.46 C 14.06 6.49 13.63 12.13 10.68 13.34 C 10.79 11.26 10.87 9.17 10.82 7.08 C 10.17 7.34 8.86 7.88 8.20 8.15 C 9.19 9.12 9.94 10.25 10.43 11.54 C 8.74 11.04 7.66 9.90 7.20 8.12 C 7.29 9.69 7.32 11.26 7.31 12.83 C 6.41 12.83 4.61 12.83 3.71 12.83 C 3.46 10.26 3.99 7.73 4.57 5.24 C 5.27 5.92 5.94 6.62 6.60 7.34 C 7.76 6.52 8.96 5.75 10.18 5.02 C 7.61 5.24 5.03 5.08 2.50 4.57 Z" />
</g>
</svg>
