<?xml version="1.0" encoding="UTF-8" ?>
<!DOCTYPE svg PUBLIC "-//W3C//DTD SVG 1.1//EN" "http://www.w3.org/Graphics/SVG/1.1/DTD/svg11.dtd">
<svg width="48pt" height="48pt" viewBox="0 0 48 48" version="1.1" xmlns="http://www.w3.org/2000/svg">
<g id="#ffffffff">
<path fill="#ffffff" opacity="1.00" d=" M 0.00 0.00 L 8.39 0.00 C 6.89 0.99 5.47 2.10 4.04 3.19 C 3.97 17.07 3.97 30.94 4.03 44.82 C 5.42 45.90 6.78 47.02 8.25 48.00 L 0.00 48.00 L 0.00 0.00 Z" />
<path fill="#ffffff" opacity="1.00" d=" M 44.00 0.00 L 48.00 0.00 L 48.00 48.00 L 44.03 48.00 C 44.01 45.58 43.99 43.15 43.95 40.73 C 41.16 40.72 42.18 43.96 41.76 45.78 C 31.52 45.62 21.27 45.89 11.04 45.67 C 8.54 45.83 6.95 43.96 5.68 42.09 C 6.71 39.97 8.42 37.86 11.04 38.04 C 22.02 37.89 33.00 38.09 43.98 37.98 C 44.04 25.32 43.98 12.66 44.00 0.00 Z" />
<path fill="#ffffff" opacity="1.00" d=" M 12.01 5.01 C 21.34 5.00 30.67 4.97 40.00 5.03 C 40.00 5.76 40.00 7.24 40.00 7.98 C 34.34 8.05 28.68 7.95 23.01 8.02 C 22.98 11.01 22.98 14.00 23.02 16.99 C 27.35 17.01 31.68 16.98 36.00 17.02 C 36.00 17.76 36.00 19.25 36.00 19.99 C 31.68 20.07 27.36 20.03 23.04 20.04 C 22.97 23.35 22.97 26.67 23.02 29.99 C 28.68 30.04 34.34 29.95 40.00 30.03 C 40.00 31.34 40.00 32.66 40.00 33.98 C 30.67 34.03 21.34 34.00 12.01 33.99 C 11.99 24.33 11.99 14.67 12.01 5.01 Z" />
</g>
<g id="#0f446aff">
<path fill="#0f446a" opacity="1.00" d=" M 8.39 0.00 L 44.00 0.00 C 43.98 12.66 44.04 25.32 43.98 37.98 C 33.00 38.09 22.02 37.89 11.04 38.04 C 8.42 37.86 6.71 39.97 5.68 42.09 C 6.95 43.96 8.54 45.83 11.04 45.67 C 21.27 45.89 31.52 45.62 41.76 45.78 C 42.18 43.96 41.16 40.72 43.95 40.73 C 43.99 43.15 44.01 45.58 44.03 48.00 L 8.25 48.00 C 6.78 47.02 5.42 45.90 4.03 44.82 C 3.97 30.94 3.97 17.07 4.04 3.19 C 5.47 2.10 6.89 0.99 8.39 0.00 M 12.01 5.01 C 11.99 14.67 11.99 24.33 12.01 33.99 C 21.34 34.00 30.67 34.03 40.00 33.98 C 40.00 32.66 40.00 31.34 40.00 30.03 C 34.34 29.95 28.68 30.04 23.02 29.99 C 22.97 26.67 22.97 23.35 23.04 20.04 C 27.36 20.03 31.68 20.07 36.00 19.99 C 36.00 19.25 36.00 17.76 36.00 17.02 C 31.68 16.98 27.35 17.01 23.02 16.99 C 22.98 14.00 22.98 11.01 23.01 8.02 C 28.68 7.95 34.34 8.05 40.00 7.98 C 40.00 7.24 40.00 5.76 40.00 5.03 C 30.67 4.97 21.34 5.00 12.01 5.01 Z" />
</g>
</svg>
