<?xml version="1.0" encoding="UTF-8" ?>
<!DOCTYPE svg PUBLIC "-//W3C//DTD SVG 1.1//EN" "http://www.w3.org/Graphics/SVG/1.1/DTD/svg11.dtd">
<svg width="256pt" height="256pt" viewBox="0 0 256 256" version="1.1" xmlns="http://www.w3.org/2000/svg">
<g id="#ffdc70ff">
<path fill="#ffdc70" opacity="1.00" d=" M 0.00 0.00 L 149.36 0.00 C 139.14 4.88 129.61 11.06 120.04 17.09 C 96.26 32.46 72.91 48.55 50.53 65.89 C 45.27 93.58 39.80 121.24 34.71 148.97 C 29.96 147.64 25.21 146.31 20.49 144.88 C 17.78 131.73 15.08 118.58 12.31 105.45 C 8.20 107.00 4.10 108.59 0.00 110.16 L 0.00 0.00 Z" />
<path fill="#ffdc70" opacity="1.00" d=" M 230.31 0.00 L 256.00 0.00 L 256.00 1.80 C 247.44 1.13 238.86 0.82 230.31 0.00 Z" />
<path fill="#ffdc70" opacity="1.00" d=" M 0.00 110.45 C 4.42 125.42 8.52 140.48 13.06 155.42 C 19.55 157.22 26.01 159.11 32.46 161.02 C 27.03 192.60 20.49 224.06 17.53 256.00 L 0.00 256.00 L 0.00 110.45 Z" />
</g>
<g id="#ff6700ff">
<path fill="#ff6700" opacity="1.00" d=" M 149.36 0.00 L 230.31 0.00 C 238.86 0.82 247.44 1.13 256.00 1.80 L 256.00 10.61 C 231.70 8.88 207.36 7.58 183.00 6.91 C 174.66 6.73 166.31 6.61 157.98 6.98 C 153.18 7.08 149.16 9.96 145.08 12.11 C 127.70 22.07 111.12 33.33 94.59 44.61 C 84.57 51.59 74.56 58.56 64.86 65.97 C 128.56 71.02 192.29 75.75 256.00 80.70 L 256.00 89.65 C 189.96 84.60 123.91 79.54 57.87 74.49 C 49.29 118.20 40.97 161.96 33.41 205.86 C 30.72 222.52 27.68 239.16 26.30 256.00 L 17.53 256.00 C 20.49 224.06 27.03 192.60 32.46 161.02 C 26.01 159.11 19.55 157.22 13.06 155.42 C 8.52 140.48 4.42 125.42 0.00 110.45 L 0.00 110.16 C 4.10 108.59 8.20 107.00 12.31 105.45 C 15.08 118.58 17.78 131.73 20.49 144.88 C 25.21 146.31 29.96 147.64 34.71 148.97 C 39.80 121.24 45.27 93.58 50.53 65.89 C 72.91 48.55 96.26 32.46 120.04 17.09 C 129.61 11.06 139.14 4.88 149.36 0.00 Z" />
<path fill="#ff6700" opacity="1.00" d=" M 163.92 25.09 C 193.62 16.33 225.58 13.62 256.00 20.22 L 256.00 28.69 C 245.93 24.27 234.77 23.35 223.92 22.87 C 205.95 22.37 187.87 24.63 170.67 29.88 C 164.20 31.94 157.74 34.35 152.04 38.12 C 149.97 39.58 147.68 41.31 147.21 43.98 C 147.85 46.09 149.85 47.29 151.69 48.24 C 155.92 50.33 160.52 51.52 165.10 52.54 C 183.29 56.38 202.16 56.92 220.56 54.28 C 224.72 53.74 228.81 54.98 232.90 55.57 C 232.92 56.54 232.94 57.50 232.97 58.47 C 206.06 63.65 177.92 63.57 151.29 56.85 C 145.41 55.01 138.55 53.43 134.84 48.06 C 132.49 44.49 134.70 40.07 137.69 37.67 C 145.17 31.30 154.70 28.07 163.92 25.09 Z" />
<path fill="#ff6700" opacity="1.00" d=" M 171.97 33.01 C 183.85 28.63 196.46 26.30 209.07 25.44 C 216.32 25.22 223.87 24.74 230.83 27.20 C 233.00 27.84 234.46 29.60 235.79 31.32 C 237.87 30.64 239.94 29.84 242.11 29.47 C 245.48 29.54 248.78 30.39 252.10 30.89 C 252.16 31.60 252.27 33.02 252.33 33.74 C 238.06 38.49 223.69 42.98 209.48 47.92 C 219.79 47.92 230.11 46.66 240.10 44.10 C 245.62 42.66 251.11 40.85 256.00 37.86 L 256.00 47.12 L 255.99 46.20 C 241.86 51.15 226.88 53.33 211.98 54.07 C 204.54 54.15 196.70 54.43 189.78 51.28 C 189.58 50.69 189.20 49.51 189.00 48.92 C 181.08 49.47 172.83 50.33 165.14 47.84 C 162.42 47.02 159.07 44.58 160.38 41.31 C 162.51 36.77 167.65 34.89 171.97 33.01 M 183.89 37.13 C 180.58 38.24 177.36 39.73 174.71 42.05 C 178.18 43.88 182.18 43.80 186.00 43.73 C 195.72 43.40 205.41 41.66 214.63 38.51 C 218.02 37.27 221.60 36.03 224.14 33.33 C 219.71 31.34 214.75 31.30 210.01 31.61 C 201.11 32.29 192.33 34.25 183.89 37.13 Z" />
<path fill="#ff6700" opacity="1.00" d=" M 95.47 103.61 C 104.17 101.39 113.65 104.77 119.66 111.26 C 129.80 122.14 132.03 139.05 126.52 152.65 C 123.28 160.76 116.91 168.00 108.40 170.64 C 99.55 173.64 89.40 170.64 82.99 164.03 C 72.13 152.93 69.87 135.06 76.03 121.06 C 79.58 112.83 86.55 105.68 95.47 103.61 M 86.39 120.33 C 80.08 129.79 79.76 142.82 85.32 152.69 C 88.33 158.02 93.60 162.56 99.90 163.02 C 105.74 163.54 111.27 160.27 114.74 155.76 C 119.26 150.14 120.72 142.81 120.91 135.76 C 117.57 141.98 109.48 145.08 102.97 142.07 C 95.80 139.18 92.46 129.86 96.11 123.06 C 98.90 117.21 105.83 114.44 112.03 115.69 C 108.92 113.82 105.68 111.78 101.93 111.70 C 95.60 111.26 89.79 115.22 86.39 120.33 Z" />
<path fill="#ff6700" opacity="1.00" d=" M 211.49 114.72 C 219.55 112.12 228.71 114.37 235.01 119.90 C 246.00 129.52 249.38 145.89 245.36 159.62 C 242.88 168.18 237.30 176.25 229.07 180.11 C 222.73 183.19 215.06 183.29 208.65 180.35 C 199.81 176.43 193.93 167.71 191.55 158.56 C 188.08 145.37 191.31 130.00 201.47 120.53 C 204.33 117.89 207.77 115.88 211.49 114.72 M 209.42 125.38 C 198.79 133.25 196.45 148.89 201.46 160.61 C 204.28 167.29 210.29 173.41 217.89 173.75 C 225.74 174.17 232.34 168.15 235.39 161.36 C 238.45 155.13 238.55 148.03 237.89 141.26 C 235.93 147.85 228.86 152.44 222.04 151.04 C 214.37 149.88 208.95 141.51 211.04 134.04 C 212.45 127.61 218.81 123.21 225.27 123.35 C 219.97 121.98 213.96 121.85 209.42 125.38 Z" />
<path fill="#ff6700" opacity="1.00" d=" M 117.93 228.76 C 119.85 226.56 121.78 224.38 123.72 222.20 C 135.62 231.56 150.65 238.03 166.02 236.80 C 176.17 236.09 185.71 231.61 193.59 225.32 C 195.43 227.59 197.26 229.88 199.07 232.17 C 189.43 239.92 177.53 245.15 165.07 245.65 C 147.92 246.40 131.10 239.47 117.93 228.76 Z" />
</g>
<g id="#ffffffff">
<path fill="#ffffff" opacity="1.00" d=" M 145.08 12.11 C 149.16 9.96 153.18 7.08 157.98 6.98 C 166.31 6.61 174.66 6.73 183.00 6.91 C 207.36 7.58 231.70 8.88 256.00 10.61 L 256.00 20.22 C 225.58 13.62 193.62 16.33 163.92 25.09 C 154.70 28.07 145.17 31.30 137.69 37.67 C 134.70 40.07 132.49 44.49 134.84 48.06 C 138.55 53.43 145.41 55.01 151.29 56.85 C 177.92 63.57 206.06 63.65 232.97 58.47 C 232.94 57.50 232.92 56.54 232.90 55.57 C 228.81 54.98 224.72 53.74 220.56 54.28 C 202.16 56.92 183.29 56.38 165.10 52.54 C 160.52 51.52 155.92 50.33 151.69 48.24 C 149.85 47.29 147.85 46.09 147.21 43.98 C 147.68 41.31 149.97 39.58 152.04 38.12 C 157.74 34.35 164.20 31.94 170.67 29.88 C 187.87 24.63 205.95 22.37 223.92 22.87 C 234.77 23.35 245.93 24.27 256.00 28.69 L 256.00 37.86 C 251.11 40.85 245.62 42.66 240.10 44.10 C 230.11 46.66 219.79 47.92 209.48 47.92 C 223.69 42.98 238.06 38.49 252.33 33.74 C 252.27 33.02 252.16 31.60 252.10 30.89 C 248.78 30.39 245.48 29.54 242.11 29.47 C 239.94 29.84 237.87 30.64 235.79 31.32 C 234.46 29.60 233.00 27.84 230.83 27.20 C 223.87 24.74 216.32 25.22 209.07 25.44 C 196.46 26.30 183.85 28.63 171.97 33.01 C 167.65 34.89 162.51 36.77 160.38 41.31 C 159.07 44.58 162.42 47.02 165.14 47.84 C 172.83 50.33 181.08 49.47 189.00 48.92 C 189.20 49.51 189.58 50.69 189.78 51.28 C 196.70 54.43 204.54 54.15 211.98 54.07 C 226.88 53.33 241.86 51.15 255.99 46.20 L 256.00 47.12 L 256.00 80.70 C 192.29 75.75 128.56 71.02 64.86 65.97 C 74.56 58.56 84.57 51.59 94.59 44.61 C 111.12 33.33 127.70 22.07 145.08 12.11 Z" />
<path fill="#ffffff" opacity="1.00" d=" M 183.89 37.13 C 192.33 34.25 201.11 32.29 210.01 31.61 C 214.75 31.30 219.71 31.34 224.14 33.33 C 221.60 36.03 218.02 37.27 214.63 38.51 C 205.41 41.66 195.72 43.40 186.00 43.73 C 182.18 43.80 178.18 43.88 174.71 42.05 C 177.36 39.73 180.58 38.24 183.89 37.13 Z" />
<path fill="#ffffff" opacity="1.00" d=" M 33.41 205.86 C 40.97 161.96 49.29 118.20 57.87 74.49 C 123.91 79.54 189.96 84.60 256.00 89.65 L 256.00 256.00 L 26.30 256.00 C 27.68 239.16 30.72 222.52 33.41 205.86 M 95.47 103.61 C 86.55 105.68 79.58 112.83 76.03 121.06 C 69.87 135.06 72.13 152.93 82.99 164.03 C 89.40 170.64 99.55 173.64 108.40 170.64 C 116.91 168.00 123.28 160.76 126.52 152.65 C 132.03 139.05 129.80 122.14 119.66 111.26 C 113.65 104.77 104.17 101.39 95.47 103.61 M 211.49 114.72 C 207.77 115.88 204.33 117.89 201.47 120.53 C 191.31 130.00 188.08 145.37 191.55 158.56 C 193.93 167.71 199.81 176.43 208.65 180.35 C 215.06 183.29 222.73 183.19 229.07 180.11 C 237.30 176.25 242.88 168.18 245.36 159.62 C 249.38 145.89 246.00 129.52 235.01 119.90 C 228.71 114.37 219.55 112.12 211.49 114.72 M 117.93 228.76 C 131.10 239.47 147.92 246.40 165.07 245.65 C 177.53 245.15 189.43 239.92 199.07 232.17 C 197.26 229.88 195.43 227.59 193.59 225.32 C 185.71 231.61 176.17 236.09 166.02 236.80 C 150.65 238.03 135.62 231.56 123.72 222.20 C 121.78 224.38 119.85 226.56 117.93 228.76 Z" />
<path fill="#ffffff" opacity="1.00" d=" M 86.39 120.33 C 89.79 115.22 95.60 111.26 101.93 111.70 C 105.68 111.78 108.92 113.82 112.03 115.69 C 105.83 114.44 98.90 117.21 96.11 123.06 C 92.46 129.86 95.80 139.18 102.97 142.07 C 109.48 145.08 117.57 141.98 120.91 135.76 C 120.72 142.81 119.26 150.14 114.74 155.76 C 111.27 160.27 105.74 163.54 99.90 163.02 C 93.60 162.56 88.33 158.02 85.32 152.69 C 79.76 142.82 80.08 129.79 86.39 120.33 Z" />
<path fill="#ffffff" opacity="1.00" d=" M 209.42 125.38 C 213.96 121.85 219.97 121.98 225.27 123.35 C 218.81 123.21 212.45 127.61 211.04 134.04 C 208.95 141.51 214.37 149.88 222.04 151.04 C 228.86 152.44 235.93 147.85 237.89 141.26 C 238.55 148.03 238.45 155.13 235.39 161.36 C 232.34 168.15 225.74 174.17 217.89 173.75 C 210.29 173.41 204.28 167.29 201.46 160.61 C 196.45 148.89 198.79 133.25 209.42 125.38 Z" />
</g>
</svg>
