<?xml version="1.0" encoding="UTF-8" ?>
<!DOCTYPE svg PUBLIC "-//W3C//DTD SVG 1.1//EN" "http://www.w3.org/Graphics/SVG/1.1/DTD/svg11.dtd">
<svg width="256pt" height="256pt" viewBox="0 0 256 256" version="1.1" xmlns="http://www.w3.org/2000/svg">
<g id="#00000020">
<path fill="#000000" opacity="0.13" d=" M 108.99 19.17 C 111.26 19.15 113.52 19.13 115.79 19.12 C 115.42 21.04 115.06 22.97 114.70 24.89 C 112.76 24.97 110.83 25.05 108.90 25.12 C 108.93 23.14 108.96 21.16 108.99 19.17 Z" />
<path fill="#000000" opacity="0.13" d=" M 32.02 160.06 C 34.15 160.03 36.27 160.00 38.40 159.98 C 38.40 162.13 38.39 164.28 38.39 166.43 C 36.27 166.34 34.15 166.24 32.04 166.14 C 32.03 164.11 32.03 162.09 32.02 160.06 Z" />
<path fill="#000000" opacity="0.13" d=" M 217.58 172.79 C 219.72 172.80 221.86 172.81 224.00 172.82 C 223.98 174.89 223.97 176.96 223.95 179.03 C 221.83 179.09 219.72 179.16 217.60 179.23 C 217.60 177.08 217.59 174.94 217.58 172.79 Z" />
<path fill="#000000" opacity="0.13" d=" M 211.20 185.60 C 213.33 185.60 215.47 185.60 217.61 185.61 C 217.67 187.67 217.72 189.73 217.78 191.80 C 215.58 191.90 213.39 192.00 211.20 192.09 C 211.20 189.92 211.20 187.76 211.20 185.60 Z" />
<path fill="#000000" opacity="0.13" d=" M 44.75 192.02 C 46.90 192.01 49.05 192.00 51.21 191.99 C 51.20 194.14 51.19 196.28 51.19 198.43 C 49.12 198.34 47.06 198.26 45.00 198.17 C 44.91 196.12 44.83 194.07 44.75 192.02 Z" />
</g>
<g id="#0000003f">
<path fill="#000000" opacity="0.25" d=" M 115.79 19.12 C 124.09 19.31 132.39 19.14 140.69 19.22 C 140.76 21.25 140.83 23.28 140.90 25.32 C 149.43 25.29 157.96 25.22 166.49 25.62 C 166.47 27.73 166.46 29.84 166.45 31.95 C 164.32 31.95 162.19 31.96 160.07 31.97 C 160.09 29.90 160.11 27.82 160.14 25.74 C 155.81 25.72 151.49 25.79 147.16 25.83 C 142.89 25.86 138.63 25.63 134.36 25.60 C 132.23 25.59 130.09 25.61 127.96 25.63 C 125.92 25.65 123.87 25.65 121.83 25.66 C 117.57 25.67 113.31 25.83 109.04 25.83 C 104.74 25.79 100.44 25.79 96.14 25.85 C 93.95 25.86 91.77 25.81 89.59 25.74 C 96.00 24.99 102.47 25.55 108.90 25.12 C 110.83 25.05 112.76 24.97 114.70 24.89 C 115.06 22.97 115.42 21.04 115.79 19.12 Z" />
</g>
<g id="#01010160">
<path fill="#010101" opacity="0.38" d=" M 89.59 25.74 C 91.77 25.81 93.95 25.86 96.14 25.85 C 96.11 27.89 96.08 29.92 96.05 31.95 C 96.03 34.10 96.02 36.25 96.02 38.40 C 93.87 38.40 91.73 38.40 89.58 38.40 C 89.59 36.27 89.61 34.14 89.61 32.01 C 89.61 29.92 89.60 27.83 89.59 25.74 Z" />
<path fill="#010101" opacity="0.38" d=" M 121.83 25.66 C 123.87 25.65 125.92 25.65 127.96 25.63 C 127.99 27.75 128.03 29.88 128.06 32.00 C 125.97 32.00 123.87 32.00 121.78 32.00 C 121.80 29.89 121.81 27.77 121.83 25.66 Z" />
<path fill="#010101" opacity="0.38" d=" M 69.92 38.16 C 72.19 37.97 74.48 37.81 76.76 37.95 C 78.91 38.07 81.06 38.24 83.22 38.41 C 83.20 40.54 83.18 42.67 83.16 44.80 C 81.04 44.80 78.93 44.80 76.81 44.80 C 76.80 42.79 76.79 40.77 76.79 38.75 C 74.73 38.74 72.68 38.74 70.62 38.73 C 70.59 40.75 70.56 42.77 70.54 44.79 L 70.31 44.79 C 70.18 42.58 70.05 40.37 69.92 38.16 Z" />
<path fill="#010101" opacity="0.38" d=" M 51.28 51.22 C 53.20 51.20 55.12 51.19 57.04 51.17 L 57.85 51.16 C 57.82 53.31 57.76 55.45 57.71 57.60 C 57.65 59.73 57.61 61.87 57.58 64.00 C 55.44 64.01 53.31 64.02 51.17 64.01 C 49.05 64.00 46.92 63.98 44.80 63.95 C 44.80 61.85 44.81 59.75 44.81 57.64 C 46.89 57.63 48.96 57.62 51.03 57.60 C 51.12 55.47 51.20 53.34 51.28 51.22 Z" />
<path fill="#010101" opacity="0.38" d=" M 25.72 89.60 C 27.82 89.61 29.92 89.61 32.02 89.61 C 34.15 89.61 36.27 89.61 38.40 89.60 C 38.40 91.73 38.40 93.86 38.40 95.98 C 36.24 96.01 34.09 96.03 31.93 96.05 C 29.91 96.08 27.88 96.10 25.85 96.12 C 25.85 93.95 25.79 91.77 25.72 89.60 Z" />
<path fill="#010101" opacity="0.38" d=" M 224.03 89.55 C 226.14 89.53 228.26 89.52 230.38 89.51 C 230.38 91.67 230.39 93.83 230.40 95.99 C 228.26 95.99 226.13 96.00 224.00 96.00 C 224.00 93.85 224.01 91.70 224.03 89.55 Z" />
<path fill="#010101" opacity="0.38" d=" M 231.06 121.73 C 232.73 121.79 234.39 121.86 236.06 121.92 C 236.11 123.97 236.16 126.01 236.21 128.06 C 234.49 127.98 232.77 127.90 231.05 127.82 C 231.05 125.79 231.06 123.76 231.06 121.73 Z" />
</g>
<g id="#030303a9">
<path fill="#030303" opacity="0.66" d=" M 96.14 25.85 C 100.44 25.79 104.74 25.79 109.04 25.83 C 108.96 27.89 108.89 29.95 108.81 32.00 C 106.67 32.00 104.53 32.00 102.39 31.99 C 100.28 31.98 98.16 31.96 96.05 31.95 C 96.08 29.92 96.11 27.89 96.14 25.85 Z" />
</g>
<g id="#02020280">
<path fill="#020202" opacity="0.50" d=" M 109.04 25.83 C 113.31 25.83 117.57 25.67 121.83 25.66 C 121.81 27.77 121.80 29.89 121.78 32.00 C 119.58 32.00 117.38 32.00 115.18 32.00 C 113.06 32.00 110.93 32.00 108.81 32.00 C 108.89 29.95 108.96 27.89 109.04 25.83 Z" />
<path fill="#020202" opacity="0.50" d=" M 217.60 76.77 C 219.72 76.73 221.85 76.71 223.97 76.68 C 224.00 78.86 224.02 81.04 224.06 83.22 C 221.92 83.21 219.78 83.20 217.65 83.19 C 217.63 81.05 217.61 78.91 217.60 76.77 Z" />
<path fill="#020202" opacity="0.50" d=" M 230.38 121.70 L 231.06 121.73 C 231.06 123.76 231.05 125.79 231.05 127.82 C 232.77 127.90 234.49 127.98 236.21 128.06 L 236.93 128.09 C 236.84 130.22 236.78 132.34 236.73 134.47 C 234.62 134.48 232.51 134.51 230.40 134.54 L 230.40 134.13 C 230.39 132.08 230.39 130.04 230.38 127.99 C 230.37 125.89 230.37 123.80 230.38 121.70 Z" />
<path fill="#020202" opacity="0.50" d=" M 25.78 134.31 C 27.85 134.26 29.92 134.22 31.99 134.18 C 32.00 136.39 32.00 138.61 32.00 140.82 C 32.00 143.00 32.00 145.17 32.00 147.34 C 29.98 147.33 27.96 147.32 25.95 147.31 C 25.75 142.98 25.67 138.64 25.78 134.31 Z" />
</g>
<g id="#2d24247c">
<path fill="#2d2424" opacity="0.49" d=" M 127.96 25.63 C 130.09 25.61 132.23 25.59 134.36 25.60 C 134.35 27.73 134.34 29.86 134.33 31.99 C 132.24 31.99 130.15 32.00 128.06 32.00 C 128.03 29.88 127.99 27.75 127.96 25.63 Z" />
</g>
<g id="#07060686">
<path fill="#070606" opacity="0.53" d=" M 134.36 25.60 C 138.63 25.63 142.89 25.86 147.16 25.83 C 147.14 27.89 147.13 29.94 147.11 32.00 C 142.85 32.01 138.59 31.99 134.33 31.99 C 134.34 29.86 134.35 27.73 134.36 25.60 Z" />
</g>
<g id="#020202b0">
<path fill="#020202" opacity="0.69" d=" M 147.16 25.83 C 151.49 25.79 155.81 25.72 160.14 25.74 C 160.11 27.82 160.09 29.90 160.07 31.97 C 157.92 31.99 155.77 32.00 153.62 32.00 C 151.45 32.00 149.28 32.00 147.11 32.00 C 147.13 29.94 147.14 27.89 147.16 25.83 Z" />
<path fill="#020202" opacity="0.69" d=" M 83.09 32.01 C 85.26 32.01 87.44 32.01 89.61 32.01 C 89.61 34.14 89.59 36.27 89.58 38.40 C 87.46 38.40 85.34 38.40 83.22 38.41 C 83.17 36.27 83.13 34.14 83.09 32.01 Z" />
<path fill="#020202" opacity="0.69" d=" M 38.63 70.70 C 40.69 70.68 42.75 70.66 44.80 70.65 C 44.80 72.70 44.80 74.76 44.80 76.81 C 42.83 76.79 40.85 76.77 38.87 76.74 C 38.79 74.73 38.71 72.71 38.63 70.70 Z" />
<path fill="#020202" opacity="0.69" d=" M 70.40 211.18 C 72.54 211.19 74.67 211.20 76.81 211.21 C 76.80 213.17 76.79 215.14 76.78 217.11 C 74.65 217.25 72.53 217.40 70.41 217.52 C 70.40 215.40 70.40 213.29 70.40 211.18 Z" />
</g>
<g id="#0101017f">
<path fill="#010101" opacity="0.50" d=" M 76.69 32.00 C 78.82 32.00 80.96 32.00 83.09 32.01 C 83.13 34.14 83.17 36.27 83.22 38.41 C 81.06 38.24 78.91 38.07 76.76 37.95 C 76.73 35.97 76.71 33.98 76.69 32.00 Z" />
<path fill="#010101" opacity="0.50" d=" M 172.89 32.02 C 175.02 32.01 177.16 32.00 179.29 32.00 C 179.29 34.07 179.29 36.14 179.29 38.22 C 181.51 38.21 183.73 38.20 185.95 38.19 L 185.92 38.57 C 185.81 40.42 185.69 42.27 185.63 44.12 C 185.50 42.38 185.28 40.65 185.08 38.91 C 183.14 38.77 181.19 38.62 179.25 38.52 C 177.10 38.41 174.94 38.39 172.79 38.37 C 172.82 36.26 172.86 34.14 172.89 32.02 Z" />
<path fill="#010101" opacity="0.50" d=" M 115.24 224.00 C 117.41 224.00 119.58 224.00 121.75 224.00 C 121.73 226.09 121.71 228.19 121.69 230.28 C 119.50 230.24 117.31 230.21 115.12 230.19 C 115.16 228.13 115.20 226.06 115.24 224.00 Z" />
</g>
<g id="#4a3d3d5b">
<path fill="#4a3d3d" opacity="0.36" d=" M 96.05 31.95 C 98.16 31.96 100.28 31.98 102.39 31.99 C 102.39 34.13 102.40 36.27 102.40 38.41 C 100.27 38.40 98.14 38.40 96.02 38.40 C 96.02 36.25 96.03 34.10 96.05 31.95 Z" />
</g>
<g id="#8f74748f">
<path fill="#8f7474" opacity="0.56" d=" M 102.39 31.99 C 104.53 32.00 106.67 32.00 108.81 32.00 C 108.81 34.13 108.80 36.27 108.80 38.40 C 106.67 38.42 104.53 38.41 102.40 38.41 C 102.40 36.27 102.39 34.13 102.39 31.99 Z" />
</g>
<g id="#dfb5b5df">
<path fill="#dfb5b5" opacity="0.87" d=" M 108.81 32.00 C 110.93 32.00 113.06 32.00 115.18 32.00 C 115.15 34.10 115.11 36.20 115.08 38.30 C 112.99 38.34 110.89 38.38 108.80 38.40 C 108.80 36.27 108.81 34.13 108.81 32.00 Z" />
<path fill="#dfb5b5" opacity="0.87" d=" M 89.58 38.40 C 91.73 38.40 93.87 38.40 96.02 38.40 C 95.97 40.53 95.93 42.67 95.88 44.80 C 93.82 44.80 91.76 44.80 89.70 44.79 C 89.65 42.66 89.61 40.53 89.58 38.40 Z" />
</g>
<g id="#ffcfcfff">
<path fill="#ffcfcf" opacity="1.00" d=" M 115.18 32.00 C 117.38 32.00 119.58 32.00 121.78 32.00 C 123.87 32.00 125.97 32.00 128.06 32.00 C 130.15 32.00 132.24 31.99 134.33 31.99 C 138.59 31.99 142.85 32.01 147.11 32.00 C 147.14 34.01 147.18 36.03 147.22 38.04 C 149.34 38.17 151.46 38.30 153.59 38.37 C 155.71 38.42 157.84 38.42 159.97 38.41 C 162.09 38.41 164.20 38.40 166.32 38.40 C 166.21 40.56 166.10 42.73 166.09 44.89 C 164.06 44.86 162.03 44.83 160.00 44.81 C 157.89 44.80 155.78 44.80 153.67 44.79 C 153.46 46.88 153.26 48.97 153.06 51.06 C 151.11 51.15 149.17 51.25 147.22 51.34 C 147.20 53.45 147.17 55.55 147.16 57.66 C 147.14 61.78 147.10 65.91 147.16 70.03 C 145.15 70.13 143.14 70.24 141.14 70.34 C 141.01 72.49 140.89 74.64 140.83 76.80 C 140.78 78.90 140.79 81.01 140.79 83.11 C 140.79 85.16 140.78 87.20 140.77 89.25 C 130.12 89.49 119.46 89.11 108.81 89.64 C 108.78 81.13 108.84 72.61 108.78 64.10 C 108.79 61.96 108.80 59.82 108.82 57.68 C 106.66 57.62 104.51 57.57 102.35 57.51 C 102.37 55.40 102.39 53.30 102.40 51.19 C 102.40 49.07 102.39 46.94 102.38 44.82 C 100.22 44.81 98.05 44.80 95.88 44.80 C 95.93 42.67 95.97 40.53 96.02 38.40 C 98.14 38.40 100.27 38.40 102.40 38.41 C 104.53 38.41 106.67 38.42 108.80 38.40 C 110.89 38.38 112.99 38.34 115.08 38.30 C 115.11 36.20 115.15 34.10 115.18 32.00 Z" />
<path fill="#ffcfcf" opacity="1.00" d=" M 83.75 44.80 C 85.61 44.80 87.47 44.80 89.33 44.79 C 89.34 46.95 89.34 49.10 89.29 51.26 C 87.52 51.12 85.75 50.98 83.97 50.84 C 83.90 48.83 83.82 46.81 83.75 44.80 Z" />
<path fill="#ffcfcf" opacity="1.00" d=" M 167.04 45.07 C 168.96 44.99 170.88 44.90 172.81 44.84 C 174.92 44.79 177.03 44.79 179.15 44.78 C 179.16 46.83 179.18 48.89 179.20 50.94 C 181.32 51.04 183.45 51.14 185.59 51.19 C 187.72 51.22 189.85 51.19 191.99 51.17 C 191.99 53.32 192.00 55.47 192.01 57.61 C 194.14 57.61 196.26 57.60 198.39 57.59 C 198.39 59.72 198.40 61.85 198.40 63.98 C 200.53 63.99 202.66 64.00 204.80 64.02 C 204.80 66.14 204.79 68.27 204.80 70.39 C 206.93 70.40 209.06 70.40 211.20 70.40 C 211.20 72.54 211.20 74.68 211.20 76.82 C 211.20 78.93 211.20 81.05 211.20 83.16 C 213.25 83.18 215.31 83.20 217.36 83.22 C 217.44 85.36 217.54 87.51 217.59 89.65 C 217.61 91.76 217.61 93.88 217.62 95.99 C 219.74 95.99 221.87 96.00 224.00 96.00 C 224.00 98.11 224.00 100.21 224.00 102.32 C 224.00 104.52 224.00 106.71 224.00 108.91 C 224.00 111.01 224.00 113.11 224.00 115.21 C 224.00 117.41 224.00 119.61 224.00 121.81 C 224.00 123.89 224.00 125.97 224.00 128.05 C 224.00 130.14 224.00 132.24 224.00 134.33 C 224.00 136.55 224.00 138.76 224.00 140.98 C 224.00 143.02 223.99 145.05 224.00 147.09 C 221.92 147.07 219.86 147.06 217.79 147.09 C 217.72 145.05 217.65 143.02 217.58 140.99 C 215.38 140.93 213.18 140.86 210.99 140.86 C 208.96 140.88 206.94 140.94 204.92 141.01 C 204.95 138.78 204.96 136.55 204.94 134.31 C 204.90 132.27 204.86 130.23 204.81 128.19 C 202.67 128.09 200.53 127.99 198.39 127.90 C 198.36 125.81 198.33 123.72 198.30 121.63 C 196.21 121.64 194.12 121.64 192.03 121.65 C 192.02 119.47 192.01 117.29 191.99 115.12 C 191.96 113.09 191.91 111.06 191.87 109.03 C 189.78 108.95 187.70 108.88 185.62 108.83 C 183.47 108.79 181.32 108.79 179.18 108.79 C 179.17 106.67 179.16 104.56 179.15 102.44 C 177.07 102.42 174.99 102.40 172.91 102.38 C 172.87 100.28 172.84 98.18 172.82 96.08 C 172.80 93.93 172.79 91.78 172.80 89.63 C 172.80 85.30 172.78 80.98 172.80 76.65 C 172.81 74.55 172.82 72.45 172.82 70.36 C 172.82 68.27 172.82 66.18 172.83 64.10 C 170.83 64.05 168.84 64.00 166.85 63.96 C 166.91 66.10 166.97 68.24 167.03 70.38 L 166.53 70.38 C 166.52 64.15 166.29 57.93 166.37 51.71 L 166.40 51.00 C 166.55 49.02 166.81 47.05 167.04 45.07 Z" />
<path fill="#ffcfcf" opacity="1.00" d=" M 76.82 51.35 L 77.64 51.36 C 79.41 51.55 81.18 51.80 82.95 52.03 C 83.03 53.92 83.11 55.82 83.16 57.71 C 83.20 59.83 83.21 61.95 83.21 64.07 C 83.19 68.33 83.22 72.58 83.19 76.83 C 83.13 81.15 83.01 85.48 82.99 89.80 C 85.01 89.83 87.03 89.86 89.05 89.89 C 89.16 91.88 89.27 93.88 89.38 95.88 C 87.36 95.98 85.34 96.09 83.32 96.20 C 83.14 98.27 82.96 100.33 82.78 102.40 C 80.78 102.40 78.79 102.40 76.79 102.40 C 76.87 104.51 76.95 106.63 77.06 108.74 C 74.84 108.78 72.62 108.81 70.40 108.85 C 70.39 110.94 70.39 113.03 70.38 115.12 C 68.26 115.09 66.15 115.07 64.03 115.06 L 64.03 115.67 C 64.01 117.53 63.99 119.40 63.97 121.27 L 63.97 121.69 C 61.84 121.60 59.72 121.57 57.59 121.54 C 57.59 123.66 57.59 125.78 57.60 127.91 C 55.50 127.94 53.41 127.98 51.32 128.00 C 49.16 128.01 47.00 128.01 44.84 128.01 C 42.69 128.00 40.55 128.00 38.40 127.99 C 38.40 125.95 38.40 123.91 38.40 121.86 C 38.40 119.65 38.40 117.43 38.40 115.21 C 38.40 113.10 38.40 110.98 38.40 108.87 C 38.40 106.73 38.40 104.58 38.40 102.44 C 40.54 102.39 42.68 102.34 44.82 102.28 C 44.82 100.19 44.82 98.10 44.81 96.01 C 44.81 93.88 44.80 91.75 44.79 89.63 C 46.82 89.67 48.85 89.71 50.89 89.75 C 51.00 87.57 51.12 85.38 51.18 83.19 C 51.22 81.07 51.21 78.94 51.21 76.82 C 53.34 76.79 55.48 76.76 57.62 76.73 C 57.62 74.63 57.61 72.53 57.61 70.44 C 59.72 70.31 61.82 70.18 63.93 70.06 C 63.95 68.04 63.98 66.02 64.00 64.00 C 64.01 61.86 64.00 59.72 64.01 57.59 C 66.13 57.60 68.25 57.61 70.38 57.64 C 72.51 57.67 74.64 57.72 76.77 57.77 C 76.79 55.63 76.81 53.49 76.82 51.35 Z" />
<path fill="#ffcfcf" opacity="1.00" d=" M 38.40 134.32 L 39.01 134.35 C 40.87 134.52 42.72 134.79 44.58 135.03 C 44.78 136.93 44.98 138.84 45.18 140.75 C 47.14 140.81 49.09 140.87 51.05 140.93 C 51.07 143.06 51.08 145.19 51.09 147.32 C 49.03 147.21 46.96 147.19 44.89 147.16 C 44.85 149.18 44.81 151.20 44.77 153.22 L 44.77 153.71 C 42.64 153.65 40.52 153.61 38.40 153.57 C 38.40 151.40 38.40 149.22 38.40 147.05 C 38.40 144.97 38.40 142.88 38.40 140.80 C 38.40 138.64 38.40 136.48 38.40 134.32 Z" />
<path fill="#ffcfcf" opacity="1.00" d=" M 217.74 153.83 C 219.82 153.77 221.91 153.71 223.99 153.65 C 224.00 155.76 224.00 157.88 224.00 160.00 C 221.93 160.00 219.87 160.00 217.81 160.01 C 217.80 157.95 217.76 155.89 217.74 153.83 Z" />
<path fill="#ffcfcf" opacity="1.00" d=" M 44.80 179.18 C 46.93 179.19 49.06 179.19 51.19 179.21 C 51.20 181.34 51.20 183.47 51.20 185.60 C 49.07 185.60 46.94 185.60 44.81 185.60 C 44.80 183.46 44.80 181.32 44.80 179.18 Z" />
<path fill="#ffcfcf" opacity="1.00" d=" M 83.16 204.87 C 89.75 204.89 96.34 205.02 102.93 204.85 C 104.89 204.82 106.85 204.81 108.82 204.82 C 110.93 204.83 113.04 204.85 115.16 204.86 C 115.18 206.95 115.21 209.05 115.23 211.15 C 130.16 211.24 145.08 211.20 160.00 211.17 C 159.98 209.04 159.96 206.91 159.94 204.78 C 166.32 204.76 172.70 204.89 179.07 204.89 C 179.11 206.99 179.15 209.09 179.19 211.20 C 177.06 211.19 174.93 211.19 172.80 211.20 C 172.80 213.33 172.79 215.46 172.79 217.59 C 170.65 217.59 168.51 217.60 166.37 217.60 C 164.24 217.59 162.12 217.59 160.00 217.60 C 157.86 217.60 155.73 217.60 153.61 217.61 C 153.60 219.74 153.61 221.87 153.61 224.00 C 151.44 224.00 149.27 224.00 147.09 224.00 C 145.00 224.00 142.92 224.00 140.83 224.00 C 138.66 224.00 136.50 224.00 134.33 224.00 C 132.24 224.00 130.15 224.00 128.07 224.00 C 125.96 224.00 123.85 224.00 121.75 224.00 C 119.58 224.00 117.41 224.00 115.24 224.00 C 115.13 221.98 115.02 219.97 114.91 217.95 C 112.88 217.83 110.85 217.71 108.81 217.64 C 106.67 217.58 104.52 217.58 102.38 217.58 C 100.27 217.59 98.16 217.60 96.05 217.61 C 95.98 215.47 95.92 213.33 95.86 211.20 C 93.77 211.19 91.69 211.19 89.60 211.19 C 87.47 211.19 85.33 211.20 83.20 211.20 C 83.19 209.09 83.18 206.98 83.16 204.87 Z" />
</g>
<g id="#efc2c2ef">
<path fill="#efc2c2" opacity="0.94" d=" M 147.11 32.00 C 149.28 32.00 151.45 32.00 153.62 32.00 C 153.60 34.12 153.59 36.24 153.59 38.37 C 151.46 38.30 149.34 38.17 147.22 38.04 C 147.18 36.03 147.14 34.01 147.11 32.00 Z" />
<path fill="#efc2c2" opacity="0.94" d=" M 166.32 38.40 C 168.48 38.40 170.63 38.40 172.79 38.37 C 172.80 40.53 172.80 42.69 172.81 44.84 C 170.88 44.90 168.96 44.99 167.04 45.07 C 166.81 47.05 166.55 49.02 166.40 51.00 C 166.25 48.97 166.12 46.93 166.09 44.89 C 166.10 42.73 166.21 40.56 166.32 38.40 Z" />
<path fill="#efc2c2" opacity="0.94" d=" M 179.15 44.78 C 181.31 44.80 183.48 44.80 185.64 44.81 C 185.61 46.94 185.60 49.06 185.59 51.19 C 183.45 51.14 181.32 51.04 179.20 50.94 C 179.18 48.89 179.16 46.83 179.15 44.78 Z" />
<path fill="#efc2c2" opacity="0.94" d=" M 70.41 51.22 L 70.97 51.22 C 72.92 51.24 74.87 51.30 76.82 51.35 C 76.81 53.49 76.79 55.63 76.77 57.77 C 74.64 57.72 72.51 57.67 70.38 57.64 C 70.39 55.50 70.40 53.36 70.41 51.22 Z" />
<path fill="#efc2c2" opacity="0.94" d=" M 57.58 64.00 C 59.72 64.00 61.86 64.00 64.00 64.00 C 63.98 66.02 63.95 68.04 63.93 70.06 C 61.82 70.18 59.72 70.31 57.61 70.44 C 57.60 68.29 57.59 66.14 57.58 64.00 Z" />
<path fill="#efc2c2" opacity="0.94" d=" M 44.80 83.21 C 46.93 83.20 49.05 83.20 51.18 83.19 C 51.12 85.38 51.00 87.57 50.89 89.75 C 48.85 89.71 46.82 89.67 44.79 89.63 C 44.80 87.49 44.80 85.35 44.80 83.21 Z" />
</g>
<g id="#a38484b4">
<path fill="#a38484" opacity="0.71" d=" M 153.62 32.00 C 155.77 32.00 157.92 31.99 160.07 31.97 C 160.03 34.12 160.00 36.27 159.97 38.41 C 157.84 38.42 155.71 38.42 153.59 38.37 C 153.59 36.24 153.60 34.12 153.62 32.00 Z" />
</g>
<g id="#41363691">
<path fill="#413636" opacity="0.57" d=" M 160.07 31.97 C 162.19 31.96 164.32 31.95 166.45 31.95 C 166.41 34.10 166.37 36.25 166.32 38.40 C 164.20 38.40 162.09 38.41 159.97 38.41 C 160.00 36.27 160.03 34.12 160.07 31.97 Z" />
</g>
<g id="#090707a6">
<path fill="#090707" opacity="0.65" d=" M 166.45 31.95 C 168.59 31.98 170.74 32.00 172.89 32.02 C 172.86 34.14 172.82 36.26 172.79 38.37 C 170.63 38.40 168.48 38.40 166.32 38.40 C 166.37 36.25 166.41 34.10 166.45 31.95 Z" />
</g>
<g id="#00000030">
<path fill="#000000" opacity="0.19" d=" M 64.21 38.36 C 66.12 38.31 68.02 38.25 69.92 38.16 C 70.05 40.37 70.18 42.58 70.31 44.79 C 68.13 44.83 65.96 44.87 63.78 44.92 C 61.81 44.96 59.84 45.00 57.87 45.04 C 57.87 47.08 57.87 49.12 57.85 51.16 L 57.04 51.17 C 57.12 48.96 57.21 46.75 57.29 44.54 C 59.48 44.44 61.66 44.34 63.85 44.24 C 63.97 42.28 64.09 40.32 64.21 38.36 Z" />
<path fill="#000000" opacity="0.19" d=" M 38.38 64.13 C 40.52 64.07 42.66 64.00 44.80 63.95 C 44.81 65.98 44.81 68.02 44.82 70.05 C 42.63 70.01 40.45 70.03 38.27 70.04 C 38.31 68.07 38.34 66.10 38.38 64.13 Z" />
</g>
<g id="#604d4d60">
<path fill="#604d4d" opacity="0.38" d=" M 83.22 38.41 C 85.34 38.40 87.46 38.40 89.58 38.40 C 89.61 40.53 89.65 42.66 89.70 44.79 L 89.33 44.79 C 87.47 44.80 85.61 44.80 83.75 44.80 L 83.16 44.80 C 83.18 42.67 83.20 40.54 83.22 38.41 Z" />
<path fill="#604d4d" opacity="0.38" d=" M 83.20 211.20 C 85.33 211.20 87.47 211.19 89.60 211.19 C 89.60 213.33 89.60 215.46 89.60 217.60 C 87.47 217.60 85.33 217.60 83.20 217.61 C 83.20 215.47 83.20 213.34 83.20 211.20 Z" />
</g>
<g id="#604d4d9f">
<path fill="#604d4d" opacity="0.62" d=" M 172.79 38.37 C 174.94 38.39 177.10 38.41 179.25 38.52 C 179.21 40.60 179.18 42.69 179.15 44.78 C 177.03 44.79 174.92 44.79 172.81 44.84 C 172.80 42.69 172.80 40.53 172.79 38.37 Z" />
</g>
<g id="#030303c0">
<path fill="#030303" opacity="0.75" d=" M 70.62 38.73 C 72.68 38.74 74.73 38.74 76.79 38.75 C 76.79 40.77 76.80 42.79 76.81 44.80 C 74.72 44.80 72.63 44.80 70.54 44.79 C 70.56 42.77 70.59 40.75 70.62 38.73 Z" />
<path fill="#030303" opacity="0.75" d=" M 83.20 217.61 C 85.33 217.60 87.47 217.60 89.60 217.60 C 89.61 219.72 89.62 221.85 89.63 223.98 C 87.47 223.99 85.32 223.99 83.16 224.00 C 83.18 221.87 83.19 219.74 83.20 217.61 Z" />
<path fill="#030303" opacity="0.75" d=" M 96.00 224.00 C 98.14 224.00 100.27 224.00 102.40 224.00 C 102.35 226.07 102.29 228.15 102.24 230.23 C 100.16 230.21 98.08 230.14 96.00 230.07 C 96.00 228.05 96.00 226.02 96.00 224.00 Z" />
</g>
<g id="#070707b5">
<path fill="#070707" opacity="0.71" d=" M 179.25 38.52 C 181.19 38.62 183.14 38.77 185.08 38.91 C 185.28 40.65 185.50 42.38 185.63 44.12 L 185.64 44.81 C 183.48 44.80 181.31 44.80 179.15 44.78 C 179.18 42.69 179.21 40.60 179.25 38.52 Z" />
</g>
<g id="#00000050">
<path fill="#000000" opacity="0.31" d=" M 185.92 38.57 C 187.95 38.50 189.99 38.44 192.02 38.38 C 192.01 40.52 192.00 42.66 192.00 44.80 C 189.88 44.80 187.76 44.80 185.64 44.81 L 185.63 44.12 C 185.69 42.27 185.81 40.42 185.92 38.57 Z" />
<path fill="#000000" opacity="0.31" d=" M 211.19 63.97 C 213.34 64.01 215.50 64.05 217.66 64.10 C 217.64 66.19 217.62 68.28 217.62 70.37 C 215.48 70.38 213.34 70.39 211.20 70.40 C 211.19 68.26 211.19 66.12 211.19 63.97 Z" />
<path fill="#000000" opacity="0.31" d=" M 32.01 172.83 C 34.14 172.81 36.27 172.80 38.40 172.79 C 38.40 174.95 38.39 177.12 38.39 179.29 C 36.26 179.31 34.13 179.34 32.00 179.36 C 32.00 177.18 32.00 175.00 32.01 172.83 Z" />
<path fill="#000000" opacity="0.31" d=" M 185.61 211.20 C 187.74 211.20 189.88 211.20 192.02 211.21 C 191.99 213.35 191.95 215.49 191.91 217.63 C 189.80 217.63 187.68 217.63 185.57 217.64 C 185.58 215.49 185.59 213.34 185.61 211.20 Z" />
</g>
<g id="#01010173">
<path fill="#010101" opacity="0.45" d=" M 57.87 45.04 C 59.84 45.00 61.81 44.96 63.78 44.92 C 63.82 47.01 63.86 49.09 63.91 51.18 C 63.94 53.31 63.97 55.45 64.01 57.59 C 61.91 57.59 59.81 57.59 57.71 57.60 C 57.76 55.45 57.82 53.31 57.85 51.16 C 57.87 49.12 57.87 47.08 57.87 45.04 Z" />
</g>
<g id="#030303a0">
<path fill="#030303" opacity="0.63" d=" M 63.78 44.92 C 65.96 44.87 68.13 44.83 70.31 44.79 C 70.35 46.94 70.38 49.08 70.41 51.22 C 68.24 51.21 66.07 51.20 63.91 51.18 C 63.86 49.09 63.82 47.01 63.78 44.92 Z" />
<path fill="#030303" opacity="0.63" d=" M 44.80 63.95 C 46.92 63.98 49.05 64.00 51.17 64.01 C 51.19 66.12 51.20 68.22 51.22 70.32 C 49.08 70.21 46.95 70.10 44.82 70.05 C 44.81 68.02 44.81 65.98 44.80 63.95 Z" />
<path fill="#030303" opacity="0.63" d=" M 32.01 82.92 C 34.13 83.01 36.26 83.10 38.38 83.16 C 38.39 85.30 38.40 87.45 38.40 89.60 C 36.27 89.61 34.15 89.61 32.02 89.61 C 32.01 87.38 32.01 85.15 32.01 82.92 Z" />
<path fill="#030303" opacity="0.63" d=" M 172.79 217.59 C 174.94 217.60 177.08 217.60 179.23 217.61 C 179.26 219.73 179.28 221.85 179.30 223.98 C 177.19 223.99 175.09 224.02 173.00 224.05 C 172.93 221.90 172.86 219.74 172.79 217.59 Z" />
</g>
<g id="#20191920">
<path fill="#201919" opacity="0.13" d=" M 70.31 44.79 L 70.54 44.79 C 72.63 44.80 74.72 44.80 76.81 44.80 C 76.80 46.91 76.80 49.01 76.79 51.12 C 74.85 51.16 72.91 51.20 70.97 51.22 L 70.41 51.22 C 70.38 49.08 70.35 46.94 70.31 44.79 Z" />
<path fill="#201919" opacity="0.13" d=" M 31.98 102.25 C 34.12 102.32 36.26 102.38 38.40 102.44 C 38.40 104.58 38.40 106.73 38.40 108.87 C 36.27 108.86 34.14 108.85 32.01 108.84 C 32.00 106.64 32.00 104.45 31.98 102.25 Z" />
<path fill="#201919" opacity="0.13" d=" M 32.00 147.34 C 34.13 147.25 36.26 147.15 38.40 147.05 C 38.40 149.22 38.40 151.40 38.40 153.57 C 36.30 153.61 34.20 153.66 32.10 153.72 C 32.06 151.60 32.03 149.47 32.00 147.34 Z" />
</g>
<g id="#bf9b9bbf">
<path fill="#bf9b9b" opacity="0.75" d=" M 76.81 44.80 C 78.93 44.80 81.04 44.80 83.16 44.80 C 83.11 46.85 83.06 48.89 83.02 50.94 C 81.22 51.09 79.43 51.27 77.64 51.36 L 76.82 51.35 C 74.87 51.30 72.92 51.24 70.97 51.22 C 72.91 51.20 74.85 51.16 76.79 51.12 C 76.80 49.01 76.80 46.91 76.81 44.80 Z" />
</g>
<g id="#efc2c2ff">
<path fill="#efc2c2" opacity="1.00" d=" M 83.16 44.80 L 83.75 44.80 C 83.82 46.81 83.90 48.83 83.97 50.84 C 85.75 50.98 87.52 51.12 89.29 51.26 C 89.23 53.37 89.11 55.47 88.99 57.58 C 87.04 57.62 85.10 57.67 83.16 57.71 C 83.11 55.82 83.03 53.92 82.95 52.03 C 81.18 51.80 79.41 51.55 77.64 51.36 C 79.43 51.27 81.22 51.09 83.02 50.94 C 83.06 48.89 83.11 46.85 83.16 44.80 Z" />
<path fill="#efc2c2" opacity="1.00" d=" M 141.14 70.34 C 143.14 70.24 145.15 70.13 147.16 70.03 C 147.19 72.30 147.25 74.56 147.30 76.83 C 145.14 76.81 142.98 76.81 140.83 76.80 C 140.89 74.64 141.01 72.49 141.14 70.34 Z" />
<path fill="#efc2c2" opacity="1.00" d=" M 83.32 96.20 C 85.34 96.09 87.36 95.98 89.38 95.88 L 89.64 95.86 C 89.63 98.04 89.62 100.22 89.63 102.40 L 89.43 102.40 C 87.37 102.40 85.32 102.40 83.26 102.40 L 82.78 102.40 C 82.96 100.33 83.14 98.27 83.32 96.20 Z" />
<path fill="#efc2c2" opacity="1.00" d=" M 166.38 96.21 L 166.38 95.72 C 168.52 95.84 170.67 95.96 172.82 96.08 C 172.84 98.18 172.87 100.28 172.91 102.38 C 170.94 102.37 168.98 102.38 167.01 102.33 L 166.39 102.29 C 166.39 100.26 166.39 98.23 166.38 96.21 Z" />
<path fill="#efc2c2" opacity="1.00" d=" M 185.62 108.83 C 187.70 108.88 189.78 108.95 191.87 109.03 C 191.91 111.06 191.96 113.09 191.99 115.12 C 189.86 115.12 187.73 115.12 185.61 115.08 C 185.61 112.99 185.61 110.91 185.62 108.83 Z" />
<path fill="#efc2c2" opacity="1.00" d=" M 198.39 127.90 C 200.53 127.99 202.67 128.09 204.81 128.19 C 204.86 130.23 204.90 132.27 204.94 134.31 C 202.77 134.27 200.61 134.22 198.44 134.16 C 198.42 132.07 198.41 129.98 198.39 127.90 Z" />
<path fill="#efc2c2" opacity="1.00" d=" M 204.92 141.01 C 206.94 140.94 208.96 140.88 210.99 140.86 C 211.03 142.97 211.07 145.07 211.11 147.18 C 209.02 147.18 206.93 147.13 204.85 147.08 C 204.87 145.06 204.90 143.03 204.92 141.01 Z" />
</g>
<g id="#bf9b9bff">
<path fill="#bf9b9b" opacity="1.00" d=" M 89.33 44.79 L 89.70 44.79 C 89.75 46.70 89.80 48.61 89.86 50.52 C 89.92 52.91 90.03 55.30 90.10 57.69 C 90.15 59.74 90.18 61.80 90.19 63.85 C 87.86 63.93 85.54 64.00 83.21 64.07 C 83.21 61.95 83.20 59.83 83.16 57.71 C 85.10 57.67 87.04 57.62 88.99 57.58 C 89.11 55.47 89.23 53.37 89.29 51.26 C 89.34 49.10 89.34 46.95 89.33 44.79 Z" />
<path fill="#bf9b9b" opacity="1.00" d=" M 83.19 76.83 C 85.35 76.82 87.51 76.81 89.66 76.81 C 89.73 78.92 89.81 81.03 89.89 83.14 C 87.87 83.26 85.86 83.38 83.85 83.49 C 83.80 85.20 83.75 86.92 83.70 88.63 C 85.80 88.89 87.90 89.17 90.02 89.34 C 89.89 91.52 89.77 93.69 89.64 95.86 L 89.38 95.88 C 89.27 93.88 89.16 91.88 89.05 89.89 C 87.03 89.86 85.01 89.83 82.99 89.80 C 83.01 85.48 83.13 81.15 83.19 76.83 Z" />
<path fill="#bf9b9b" opacity="1.00" d=" M 140.83 76.80 C 142.98 76.81 145.14 76.81 147.30 76.83 C 147.33 78.85 147.35 80.88 147.32 82.91 C 145.14 82.98 142.97 83.05 140.79 83.11 C 140.79 81.01 140.78 78.90 140.83 76.80 Z" />
<path fill="#bf9b9b" opacity="1.00" d=" M 204.85 147.08 C 206.93 147.13 209.02 147.18 211.11 147.18 C 213.33 147.17 215.56 147.11 217.79 147.09 C 219.86 147.06 221.92 147.07 224.00 147.09 L 224.00 147.80 C 221.99 147.88 219.98 147.95 217.98 148.04 C 217.95 149.65 217.92 151.28 217.89 152.90 C 219.92 152.94 221.96 152.98 223.99 153.02 L 223.99 153.65 C 221.91 153.71 219.82 153.77 217.74 153.83 C 217.76 155.89 217.80 157.95 217.81 160.01 C 217.80 162.15 217.77 164.29 217.73 166.44 L 217.30 166.43 C 217.29 164.37 217.27 162.30 217.25 160.24 C 215.26 160.12 213.27 160.00 211.28 159.88 C 211.29 157.80 211.30 155.73 211.32 153.66 C 209.20 153.64 207.08 153.63 204.96 153.61 C 204.93 151.44 204.89 149.26 204.85 147.08 Z" />
<path fill="#bf9b9b" opacity="1.00" d=" M 115.16 204.86 C 121.56 204.85 127.96 204.80 134.36 204.79 C 136.51 204.79 138.67 204.79 140.82 204.81 C 147.19 204.86 153.57 204.79 159.94 204.78 C 159.96 206.91 159.98 209.04 160.00 211.17 C 145.08 211.20 130.16 211.24 115.23 211.15 C 115.21 209.05 115.18 206.95 115.16 204.86 Z" />
</g>
<g id="#635753ff">
<path fill="#635753" opacity="1.00" d=" M 89.70 44.79 C 91.76 44.80 93.82 44.80 95.88 44.80 C 95.85 46.93 95.82 49.06 95.79 51.19 C 97.99 51.19 100.20 51.19 102.40 51.19 C 102.39 53.30 102.37 55.40 102.35 57.51 L 102.35 58.07 C 100.42 57.82 98.50 57.57 96.57 57.33 C 96.19 55.27 95.81 53.21 95.43 51.16 C 93.57 50.94 91.71 50.73 89.86 50.52 C 89.80 48.61 89.75 46.70 89.70 44.79 Z" />
<path fill="#635753" opacity="1.00" d=" M 83.26 102.40 C 85.32 102.40 87.37 102.40 89.43 102.40 C 89.51 104.51 89.59 106.63 89.67 108.75 C 87.50 108.77 85.33 108.79 83.16 108.79 C 83.19 106.66 83.23 104.53 83.26 102.40 Z" />
</g>
<g id="#a08483ff">
<path fill="#a08483" opacity="1.00" d=" M 95.88 44.80 C 98.05 44.80 100.22 44.81 102.38 44.82 C 102.39 46.94 102.40 49.07 102.40 51.19 C 100.20 51.19 97.99 51.19 95.79 51.19 C 95.82 49.06 95.85 46.93 95.88 44.80 Z" />
</g>
<g id="#cfa8a8ff">
<path fill="#cfa8a8" opacity="1.00" d=" M 153.06 51.06 C 153.26 48.97 153.46 46.88 153.67 44.79 C 153.70 46.93 153.74 49.08 153.71 51.22 C 153.68 53.37 153.62 55.52 153.60 57.67 C 151.73 57.67 149.86 57.66 147.99 57.66 L 147.16 57.66 C 147.17 55.55 147.20 53.45 147.22 51.34 C 149.17 51.25 151.11 51.15 153.06 51.06 Z" />
<path fill="#cfa8a8" opacity="1.00" d=" M 140.79 83.11 C 142.97 83.05 145.14 82.98 147.32 82.91 L 147.31 83.56 C 147.26 85.57 147.20 87.58 147.13 89.59 C 145.08 89.64 143.04 89.70 140.99 89.75 C 134.63 89.80 128.26 89.81 121.90 89.84 C 119.69 89.80 117.47 89.72 115.26 89.65 C 115.16 91.76 115.08 93.86 115.06 95.97 C 112.95 96.00 110.84 96.03 108.74 96.07 C 108.77 93.92 108.79 91.78 108.81 89.64 C 119.46 89.11 130.12 89.49 140.77 89.25 C 140.78 87.20 140.79 85.16 140.79 83.11 Z" />
<path fill="#cfa8a8" opacity="1.00" d=" M 44.89 147.16 C 46.96 147.19 49.03 147.21 51.09 147.32 C 53.07 147.47 55.04 147.74 57.01 147.99 C 57.04 149.66 57.08 151.34 57.12 153.03 C 53.00 153.24 48.89 153.30 44.77 153.22 C 44.81 151.20 44.85 149.18 44.89 147.16 Z" />
<path fill="#cfa8a8" opacity="1.00" d=" M 185.61 198.62 C 187.73 198.55 189.85 198.44 191.97 198.34 C 191.98 200.42 191.99 202.51 192.00 204.59 C 189.90 204.60 187.80 204.61 185.70 204.61 C 185.67 202.61 185.64 200.61 185.61 198.62 Z" />
</g>
<g id="#7f6767ff">
<path fill="#7f6767" opacity="1.00" d=" M 153.67 44.79 C 155.78 44.80 157.89 44.80 160.00 44.81 C 160.00 46.89 160.00 48.97 160.00 51.05 C 157.90 51.10 155.81 51.16 153.71 51.22 C 153.74 49.08 153.70 46.93 153.67 44.79 Z" />
<path fill="#7f6767" opacity="1.00" d=" M 64.03 115.67 C 66.03 115.73 68.03 115.79 70.03 115.86 C 70.02 117.61 70.01 119.36 70.00 121.11 C 67.99 121.16 65.98 121.21 63.97 121.27 C 63.99 119.40 64.01 117.53 64.03 115.67 Z" />
<path fill="#7f6767" opacity="1.00" d=" M 51.80 141.04 C 53.77 140.98 55.74 140.93 57.71 140.88 C 57.66 142.85 57.61 144.83 57.56 146.81 C 55.71 146.95 53.87 147.09 52.02 147.24 C 51.94 145.17 51.86 143.11 51.80 141.04 Z" />
</g>
<g id="#dfb5b5ff">
<path fill="#dfb5b5" opacity="1.00" d=" M 160.00 44.81 C 162.03 44.83 164.06 44.86 166.09 44.89 C 166.12 46.93 166.25 48.97 166.40 51.00 C 164.26 51.01 162.13 51.02 160.00 51.05 C 160.00 48.97 160.00 46.89 160.00 44.81 Z" />
<path fill="#dfb5b5" opacity="1.00" d=" M 166.85 63.96 C 168.84 64.00 170.83 64.05 172.83 64.10 C 172.82 66.18 172.82 68.27 172.82 70.36 C 170.89 70.37 168.96 70.38 167.03 70.38 C 166.97 68.24 166.91 66.10 166.85 63.96 Z" />
<path fill="#dfb5b5" opacity="1.00" d=" M 210.99 140.86 C 213.18 140.86 215.38 140.93 217.58 140.99 C 217.65 143.02 217.72 145.05 217.79 147.09 C 215.56 147.11 213.33 147.17 211.11 147.18 C 211.07 145.07 211.03 142.97 210.99 140.86 Z" />
<path fill="#dfb5b5" opacity="1.00" d=" M 211.28 159.88 C 213.27 160.00 215.26 160.12 217.25 160.24 C 217.27 162.30 217.29 164.37 217.30 166.43 C 215.24 166.39 213.19 166.35 211.13 166.31 C 211.18 164.16 211.23 162.02 211.28 159.88 Z" />
</g>
<g id="#2b2323ba">
<path fill="#2b2323" opacity="0.73" d=" M 185.64 44.81 C 187.76 44.80 189.88 44.80 192.00 44.80 C 191.99 46.92 191.99 49.04 191.99 51.17 C 189.85 51.19 187.72 51.22 185.59 51.19 C 185.60 49.06 185.61 46.94 185.64 44.81 Z" />
</g>
<g id="#0303039f">
<path fill="#030303" opacity="0.62" d=" M 192.00 44.80 C 194.13 44.80 196.26 44.80 198.40 44.81 C 198.39 46.90 198.39 49.00 198.38 51.10 C 200.52 51.15 202.67 51.20 204.81 51.25 C 204.79 53.34 204.77 55.43 204.76 57.52 C 206.90 57.58 209.03 57.64 211.18 57.70 C 211.18 59.79 211.18 61.88 211.19 63.97 C 209.06 63.99 206.93 64.00 204.80 64.02 C 204.80 61.89 204.80 59.76 204.80 57.63 C 202.66 57.61 200.52 57.60 198.39 57.59 C 198.41 55.52 198.44 53.45 198.47 51.38 C 196.31 51.29 194.15 51.23 191.99 51.17 C 191.99 49.04 191.99 46.92 192.00 44.80 Z" />
<path fill="#030303" opacity="0.62" d=" M 140.83 224.00 C 142.92 224.00 145.00 224.00 147.09 224.00 C 147.11 226.10 147.12 228.20 147.13 230.30 C 145.04 230.33 142.95 230.36 140.86 230.39 C 140.84 228.26 140.84 226.13 140.83 224.00 Z" />
</g>
<g id="#30262630">
<path fill="#302626" opacity="0.19" d=" M 63.91 51.18 C 66.07 51.20 68.24 51.21 70.41 51.22 C 70.40 53.36 70.39 55.50 70.38 57.64 C 68.25 57.61 66.13 57.60 64.01 57.59 C 63.97 55.45 63.94 53.31 63.91 51.18 Z" />
<path fill="#302626" opacity="0.19" d=" M 51.17 64.01 C 53.31 64.02 55.44 64.01 57.58 64.00 C 57.59 66.14 57.60 68.29 57.61 70.44 C 55.48 70.41 53.35 70.37 51.22 70.32 C 51.20 68.22 51.19 66.12 51.17 64.01 Z" />
<path fill="#302626" opacity="0.19" d=" M 223.99 153.65 C 226.13 153.63 228.26 153.61 230.40 153.60 C 230.38 155.73 230.37 157.87 230.35 160.00 C 228.23 160.00 226.11 160.00 224.00 160.00 C 224.00 157.88 224.00 155.76 223.99 153.65 Z" />
<path fill="#302626" opacity="0.19" d=" M 70.39 204.78 C 72.53 204.80 74.66 204.82 76.80 204.85 C 76.80 206.97 76.80 209.09 76.81 211.21 C 74.67 211.20 72.54 211.19 70.40 211.18 C 70.40 209.05 70.40 206.91 70.39 204.78 Z" />
</g>
<g id="#7b6966ff">
<path fill="#7b6966" opacity="1.00" d=" M 89.86 50.52 C 91.71 50.73 93.57 50.94 95.43 51.16 C 95.81 53.21 96.19 55.27 96.57 57.33 C 98.50 57.57 100.42 57.82 102.35 58.07 C 102.34 60.08 102.35 62.10 102.38 64.11 C 100.30 63.93 98.22 63.74 96.15 63.56 C 96.16 61.60 96.16 59.64 96.17 57.67 C 94.14 57.68 92.12 57.68 90.10 57.69 C 90.03 55.30 89.92 52.91 89.86 50.52 Z" />
</g>
<g id="#8e847aff">
<path fill="#8e847a" opacity="1.00" d=" M 153.71 51.22 C 155.81 51.16 157.90 51.10 160.00 51.05 C 162.13 51.02 164.26 51.01 166.40 51.00 L 166.37 51.71 C 164.37 51.76 162.38 51.81 160.39 51.86 C 160.01 58.01 159.92 64.18 160.03 70.34 C 162.20 70.35 164.36 70.37 166.53 70.38 L 167.03 70.38 C 168.96 70.38 170.89 70.37 172.82 70.36 C 172.82 72.45 172.81 74.55 172.80 76.65 C 170.68 76.76 168.56 76.88 166.45 77.00 C 166.43 81.19 166.28 85.38 166.26 89.58 C 164.14 89.58 162.01 89.58 159.89 89.59 C 159.86 91.68 159.83 93.77 159.81 95.87 C 157.88 95.87 155.95 95.87 154.03 95.87 C 154.29 91.70 153.92 87.53 153.36 83.41 C 151.34 83.46 149.33 83.51 147.31 83.56 L 147.32 82.91 C 147.35 80.88 147.33 78.85 147.30 76.83 C 147.25 74.56 147.19 72.30 147.16 70.03 C 147.10 65.91 147.14 61.78 147.16 57.66 L 147.99 57.66 C 147.74 62.06 147.74 66.46 148.01 70.86 C 149.87 70.75 151.74 70.64 153.60 70.54 C 153.69 66.25 153.62 61.96 153.60 57.67 C 153.62 55.52 153.68 53.37 153.71 51.22 Z" />
<path fill="#8e847a" opacity="1.00" d=" M 96.15 63.56 C 98.22 63.74 100.30 63.93 102.38 64.11 C 102.52 74.83 102.17 85.56 102.37 96.27 C 104.49 96.21 106.61 96.14 108.74 96.07 C 108.68 98.16 108.63 100.25 108.58 102.34 C 110.78 102.34 112.98 102.34 115.18 102.33 C 115.12 100.21 115.06 98.09 115.06 95.97 C 115.08 93.86 115.16 91.76 115.26 89.65 C 115.51 91.75 115.74 93.86 115.97 95.96 C 117.81 95.94 119.65 95.92 121.50 95.90 C 121.63 93.88 121.76 91.86 121.90 89.84 C 128.26 89.81 134.63 89.80 140.99 89.75 C 141.11 91.64 141.24 93.54 141.36 95.43 C 143.10 95.75 144.85 96.06 146.60 96.38 C 146.86 98.44 147.11 100.51 147.37 102.57 C 153.58 102.71 159.79 102.72 166.00 102.94 C 166.18 104.89 166.35 106.84 166.53 108.80 C 168.60 108.80 170.67 108.81 172.75 108.82 C 172.76 106.92 172.78 105.03 172.80 103.14 C 170.87 102.85 168.95 102.54 167.01 102.33 C 168.98 102.38 170.94 102.37 172.91 102.38 C 174.99 102.40 177.07 102.42 179.15 102.44 C 179.16 104.56 179.17 106.67 179.18 108.79 C 179.19 110.80 179.20 112.82 179.21 114.83 C 181.34 114.93 183.47 115.03 185.61 115.08 C 187.73 115.12 189.86 115.12 191.99 115.12 C 192.01 117.29 192.02 119.47 192.03 121.65 C 194.12 121.64 196.21 121.64 198.30 121.63 C 198.33 123.72 198.36 125.81 198.39 127.90 C 198.41 129.98 198.42 132.07 198.44 134.16 C 196.32 134.10 194.19 134.02 192.07 133.94 C 192.17 131.96 192.29 129.98 192.35 127.99 C 192.27 126.15 192.45 124.18 191.61 122.48 C 189.86 122.08 188.08 121.91 186.31 121.69 C 186.07 123.80 185.83 125.90 185.59 128.00 L 185.20 128.00 C 185.11 125.97 185.03 123.94 184.95 121.91 C 182.94 121.94 180.94 121.97 178.93 122.01 C 178.93 124.01 178.94 126.02 178.96 128.02 C 176.97 128.01 174.98 128.00 172.99 127.99 C 173.01 132.28 173.05 136.57 173.04 140.86 C 173.03 142.91 173.03 144.96 173.02 147.01 C 175.07 147.08 177.13 147.15 179.18 147.18 C 181.34 147.18 183.50 147.12 185.67 147.08 C 187.71 147.05 189.76 147.05 191.80 147.07 C 191.93 149.22 192.05 151.38 192.16 153.53 C 194.18 153.59 196.21 153.65 198.23 153.71 C 198.35 155.87 198.48 158.03 198.53 160.19 C 198.55 164.42 198.30 168.65 198.16 172.88 C 200.31 172.89 202.46 172.89 204.62 172.88 C 206.78 172.85 208.95 172.81 211.11 172.77 C 211.14 174.90 211.16 177.03 211.19 179.17 C 209.05 179.16 206.91 179.16 204.77 179.17 C 202.61 179.19 200.45 179.22 198.29 179.25 C 196.22 179.27 194.16 179.28 192.10 179.26 C 192.01 177.18 191.92 175.10 191.83 173.03 C 189.85 172.96 187.87 172.90 185.90 172.85 C 183.66 172.81 181.42 172.80 179.19 172.80 C 170.69 172.77 162.19 172.85 153.69 172.87 C 151.46 172.88 149.23 172.91 147.00 172.94 C 146.92 175.02 146.83 177.11 146.75 179.19 C 144.82 179.19 142.89 179.19 140.96 179.19 C 138.76 179.19 136.56 179.20 134.36 179.20 C 132.34 179.20 130.32 179.20 128.29 179.21 C 128.09 181.13 127.89 183.05 127.69 184.98 C 125.51 185.14 123.33 185.30 121.16 185.46 C 121.03 187.63 120.90 189.79 120.78 191.97 C 119.00 191.95 117.22 191.94 115.44 191.95 L 114.97 191.95 C 112.98 191.98 110.98 192.03 108.99 192.09 C 108.91 194.13 108.83 196.18 108.79 198.22 C 106.67 198.31 104.54 198.40 102.42 198.49 C 102.37 200.25 102.30 202.03 102.34 203.80 C 100.28 203.84 98.22 203.97 96.16 204.09 C 96.03 202.20 95.90 200.31 95.77 198.42 C 93.77 198.32 91.77 198.22 89.77 198.13 C 89.79 196.12 89.80 194.12 89.81 192.12 C 87.63 192.06 85.46 192.00 83.29 191.99 C 81.23 191.98 79.18 192.01 77.13 192.03 L 76.30 192.04 C 74.26 192.06 72.23 192.06 70.20 192.05 C 68.16 192.04 66.12 192.01 64.08 191.99 C 64.01 189.90 63.95 187.81 63.89 185.73 C 61.85 185.68 59.81 185.64 57.77 185.62 C 55.58 185.59 53.39 185.60 51.20 185.60 C 51.20 183.47 51.20 181.34 51.19 179.21 C 53.37 179.20 55.54 179.19 57.71 179.16 C 59.76 179.12 61.81 179.08 63.85 179.03 C 63.90 176.94 63.95 174.86 63.99 172.78 C 66.25 172.80 68.52 172.83 70.78 172.80 C 75.04 172.86 79.30 172.99 83.55 172.86 C 85.60 172.79 87.65 172.70 89.70 172.60 C 89.66 170.43 89.62 168.27 89.58 166.10 C 89.53 163.97 89.49 161.84 89.44 159.71 C 87.57 159.62 85.72 159.53 83.86 159.44 C 83.54 157.70 83.47 155.88 82.75 154.25 C 78.78 152.91 74.45 153.79 70.33 153.61 C 66.15 153.61 61.97 153.63 57.79 153.69 C 57.74 155.74 57.70 157.79 57.66 159.84 C 61.88 159.91 66.10 159.97 70.32 160.00 C 72.49 160.02 74.65 160.04 76.82 160.07 C 76.82 162.04 76.82 164.01 76.82 165.98 C 70.47 166.19 64.12 166.11 57.78 166.61 C 57.61 168.54 57.44 170.48 57.27 172.41 C 55.23 172.55 53.19 172.70 51.14 172.84 C 51.04 170.87 50.93 168.89 50.83 166.92 C 48.82 166.85 46.81 166.79 44.79 166.73 L 44.79 166.36 C 46.84 166.26 48.89 166.17 50.94 166.07 C 51.05 162.05 51.12 158.03 51.13 154.01 C 53.28 154.06 55.43 154.06 57.58 154.05 C 57.89 151.92 58.21 149.80 58.53 147.67 C 60.24 147.35 61.96 147.02 63.68 146.70 C 63.78 144.71 63.88 142.72 63.99 140.73 C 66.07 140.88 68.16 141.02 70.25 141.17 C 70.29 143.14 70.33 145.11 70.38 147.08 C 74.60 147.21 78.83 147.24 83.06 147.18 C 83.15 149.24 82.88 151.41 83.61 153.39 C 87.22 155.56 91.94 153.62 95.99 153.82 C 98.06 153.71 100.14 153.66 102.23 153.60 C 102.13 151.50 102.03 149.41 101.93 147.31 C 99.95 147.21 97.98 147.10 96.00 147.03 C 93.94 146.96 91.87 146.93 89.80 146.90 C 89.70 144.93 89.61 142.96 89.52 140.99 C 87.39 140.91 85.26 140.84 83.13 140.80 C 78.96 140.73 74.80 140.72 70.64 140.66 C 70.52 138.69 70.41 136.72 70.33 134.74 L 70.31 134.12 C 70.27 132.08 70.26 130.05 70.27 128.02 C 70.27 126.03 70.27 124.05 70.27 122.07 C 68.17 121.93 66.07 121.79 63.97 121.69 L 63.97 121.27 C 65.98 121.21 67.99 121.16 70.00 121.11 C 70.01 119.36 70.02 117.61 70.03 115.86 C 68.03 115.79 66.03 115.73 64.03 115.67 L 64.03 115.06 C 66.15 115.07 68.26 115.09 70.38 115.12 L 70.91 115.13 C 70.95 117.32 70.99 119.52 71.03 121.71 C 72.91 121.73 74.78 121.76 76.65 121.78 C 76.73 119.61 76.81 117.45 76.89 115.28 C 76.98 113.10 77.02 110.92 77.06 108.74 C 79.09 108.76 81.13 108.78 83.16 108.79 C 85.33 108.79 87.50 108.77 89.67 108.75 C 89.59 106.63 89.51 104.51 89.43 102.40 L 89.63 102.40 C 91.75 102.39 93.87 102.39 95.99 102.38 C 96.00 100.26 96.01 98.14 96.01 96.03 C 96.01 93.89 96.00 91.75 95.99 89.61 C 94.00 89.54 92.01 89.48 90.02 89.34 C 87.90 89.17 85.80 88.89 83.70 88.63 C 83.75 86.92 83.80 85.20 83.85 83.49 C 85.86 83.38 87.87 83.26 89.89 83.14 C 91.91 83.02 93.94 82.90 95.97 82.78 C 96.05 76.37 95.94 69.97 96.15 63.56 M 109.55 122.24 C 109.29 124.16 109.03 126.08 108.77 128.00 C 106.75 128.00 104.72 128.00 102.70 128.00 L 102.00 128.01 C 100.03 128.00 98.07 127.99 96.10 127.99 C 95.89 132.30 95.92 136.62 96.21 140.94 C 98.25 140.98 100.28 141.02 102.32 141.06 C 102.29 143.03 102.23 145.01 102.19 146.98 C 106.53 147.49 110.91 147.84 115.27 147.34 L 115.32 146.91 C 117.33 146.81 119.94 148.15 121.64 146.77 C 122.43 140.64 121.93 134.41 121.20 128.29 C 119.15 128.15 117.10 128.02 115.05 127.88 C 114.86 126.00 114.67 124.13 114.49 122.25 C 112.84 122.25 111.20 122.24 109.55 122.24 M 140.77 127.99 C 140.68 129.91 140.60 131.83 140.51 133.75 C 138.51 134.10 136.51 134.49 134.50 134.84 C 134.55 136.54 134.55 138.26 134.77 139.96 C 136.28 141.14 138.61 140.44 140.43 140.80 C 140.63 142.91 140.83 145.01 141.02 147.12 C 145.29 147.30 149.57 147.27 153.84 146.95 C 153.96 144.93 154.08 142.92 154.20 140.90 C 158.28 140.89 162.35 140.82 166.43 140.78 L 166.43 140.22 C 168.18 140.04 170.24 140.86 171.81 139.81 C 172.49 135.84 171.91 131.80 171.86 127.80 C 167.92 127.67 163.97 127.79 160.03 128.04 C 157.90 128.02 155.76 128.00 153.63 127.98 C 151.44 128.00 149.25 128.01 147.07 128.03 C 144.97 128.01 142.87 128.00 140.77 127.99 M 51.35 159.73 C 51.44 161.90 51.53 164.08 51.62 166.25 C 53.69 166.16 55.75 166.07 57.82 165.97 C 57.55 164.01 58.06 161.75 57.01 160.00 C 55.13 159.76 53.23 159.77 51.35 159.73 M 153.25 160.21 C 153.39 164.07 153.80 167.91 154.48 171.71 C 156.14 171.73 157.79 171.75 159.45 171.77 C 159.64 170.17 159.83 168.57 160.03 166.98 C 162.07 166.84 164.11 166.71 166.15 166.58 C 166.29 164.35 166.37 162.12 166.38 159.89 C 162.00 159.79 157.62 159.88 153.25 160.21 Z" />
</g>
<g id="#504141af">
<path fill="#504141" opacity="0.69" d=" M 191.99 51.17 C 194.15 51.23 196.31 51.29 198.47 51.38 C 198.44 53.45 198.41 55.52 198.39 57.59 C 196.26 57.60 194.14 57.61 192.01 57.61 C 192.00 55.47 191.99 53.32 191.99 51.17 Z" />
</g>
<g id="#665d57ff">
<path fill="#665d57" opacity="1.00" d=" M 160.39 51.86 C 162.38 51.81 164.37 51.76 166.37 51.71 C 166.29 57.93 166.52 64.15 166.53 70.38 C 164.36 70.37 162.20 70.35 160.03 70.34 C 159.92 64.18 160.01 58.01 160.39 51.86 Z" />
</g>
<g id="#a58886ff">
<path fill="#a58886" opacity="1.00" d=" M 102.35 57.51 C 104.51 57.57 106.66 57.62 108.82 57.68 C 108.80 59.82 108.79 61.96 108.78 64.10 C 106.64 64.11 104.51 64.11 102.38 64.11 C 102.35 62.10 102.34 60.08 102.35 58.07 L 102.35 57.51 Z" />
</g>
<g id="#50404050">
<path fill="#504040" opacity="0.31" d=" M 57.71 57.60 C 59.81 57.59 61.91 57.59 64.01 57.59 C 64.00 59.72 64.01 61.86 64.00 64.00 C 61.86 64.00 59.72 64.00 57.58 64.00 C 57.61 61.87 57.65 59.73 57.71 57.60 Z" />
<path fill="#504040" opacity="0.31" d=" M 63.96 198.39 C 66.11 198.40 68.26 198.41 70.41 198.42 C 70.40 200.54 70.40 202.66 70.39 204.78 C 68.30 204.80 66.22 204.83 64.13 204.86 C 64.05 202.70 64.00 200.54 63.96 198.39 Z" />
<path fill="#504040" opacity="0.31" d=" M 96.05 217.61 C 98.16 217.60 100.27 217.59 102.38 217.58 C 102.39 219.72 102.40 221.86 102.40 224.00 C 100.27 224.00 98.14 224.00 96.00 224.00 C 96.01 221.87 96.03 219.73 96.05 217.61 Z" />
</g>
<g id="#8f7474ff">
<path fill="#8f7474" opacity="1.00" d=" M 90.10 57.69 C 92.12 57.68 94.14 57.68 96.17 57.67 C 96.16 59.64 96.16 61.60 96.15 63.56 C 94.07 63.67 92.00 63.77 89.93 63.88 C 89.64 68.18 89.50 72.50 89.66 76.81 C 87.51 76.81 85.35 76.82 83.19 76.83 C 83.22 72.58 83.19 68.33 83.21 64.07 C 85.54 64.00 87.86 63.93 90.19 63.85 C 90.18 61.80 90.15 59.74 90.10 57.69 Z" />
<path fill="#8f7474" opacity="1.00" d=" M 38.40 127.99 C 40.55 128.00 42.69 128.00 44.84 128.01 C 44.83 130.11 44.82 132.20 44.81 134.30 C 42.88 134.35 40.95 134.39 39.01 134.35 L 38.40 134.32 C 38.40 132.21 38.40 130.10 38.40 127.99 Z" />
<path fill="#8f7474" opacity="1.00" d=" M 57.60 127.91 C 59.75 127.91 61.90 127.92 64.05 127.94 C 64.01 130.05 63.97 132.16 63.94 134.28 C 59.85 134.41 55.78 134.68 51.70 134.95 C 51.72 136.98 51.75 139.01 51.80 141.04 C 51.86 143.11 51.94 145.17 52.02 147.24 L 51.09 147.32 C 51.08 145.19 51.07 143.06 51.05 140.93 C 51.03 138.70 51.02 136.47 51.02 134.24 C 53.22 134.22 55.41 134.20 57.61 134.18 C 57.60 132.09 57.60 130.00 57.60 127.91 Z" />
<path fill="#8f7474" opacity="1.00" d=" M 198.84 134.95 C 200.55 134.98 202.26 135.01 203.98 135.03 C 203.98 137.05 203.99 139.07 204.00 141.09 C 202.26 141.09 200.53 141.09 198.80 141.10 C 198.81 139.05 198.82 137.00 198.84 134.95 Z" />
<path fill="#8f7474" opacity="1.00" d=" M 44.80 172.81 C 46.92 172.82 49.03 172.83 51.14 172.84 C 51.16 174.96 51.18 177.08 51.19 179.21 C 49.06 179.19 46.93 179.19 44.80 179.18 C 44.80 177.06 44.80 174.94 44.80 172.81 Z" />
<path fill="#8f7474" opacity="1.00" d=" M 76.98 198.92 C 79.01 198.99 81.04 199.06 83.07 199.13 C 83.06 200.78 83.04 202.44 83.03 204.10 C 80.96 204.15 78.89 204.21 76.81 204.26 C 76.87 202.48 76.93 200.70 76.98 198.92 Z" />
</g>
<g id="#876f6eff">
<path fill="#876f6e" opacity="1.00" d=" M 147.99 57.66 C 149.86 57.66 151.73 57.67 153.60 57.67 C 153.62 61.96 153.69 66.25 153.60 70.54 C 151.74 70.64 149.87 70.75 148.01 70.86 C 147.74 66.46 147.74 62.06 147.99 57.66 Z" />
</g>
<g id="#645151c3">
<path fill="#645151" opacity="0.76" d=" M 198.39 57.59 C 200.52 57.60 202.66 57.61 204.80 57.63 C 204.80 59.76 204.80 61.89 204.80 64.02 C 202.66 64.00 200.53 63.99 198.40 63.98 C 198.40 61.85 198.39 59.72 198.39 57.59 Z" />
</g>
<g id="#aa968eff">
<path fill="#aa968e" opacity="1.00" d=" M 89.93 63.88 C 92.00 63.77 94.07 63.67 96.15 63.56 C 95.94 69.97 96.05 76.37 95.97 82.78 C 93.94 82.90 91.91 83.02 89.89 83.14 C 89.81 81.03 89.73 78.92 89.66 76.81 C 89.50 72.50 89.64 68.18 89.93 63.88 Z" />
</g>
<g id="#6a5c5aff">
<path fill="#6a5c5a" opacity="1.00" d=" M 102.38 64.11 C 104.51 64.11 106.64 64.11 108.78 64.10 C 108.84 72.61 108.78 81.13 108.81 89.64 C 106.85 89.68 104.88 89.73 102.92 89.78 C 102.74 91.94 102.56 94.11 102.37 96.27 C 102.17 85.56 102.52 74.83 102.38 64.11 Z" />
</g>
<g id="#392e2eb8">
<path fill="#392e2e" opacity="0.72" d=" M 204.80 64.02 C 206.93 64.00 209.06 63.99 211.19 63.97 C 211.19 66.12 211.19 68.26 211.20 70.40 C 209.06 70.40 206.93 70.40 204.80 70.39 C 204.79 68.27 204.80 66.14 204.80 64.02 Z" />
</g>
<g id="#02020266">
<path fill="#020202" opacity="0.40" d=" M 38.27 70.04 C 40.45 70.03 42.63 70.01 44.82 70.05 C 46.95 70.10 49.08 70.21 51.22 70.32 L 51.22 70.67 C 49.08 70.66 46.94 70.65 44.80 70.65 C 42.75 70.66 40.69 70.68 38.63 70.70 C 38.71 72.71 38.79 74.73 38.87 76.74 C 40.85 76.77 42.83 76.79 44.80 76.81 C 44.80 78.94 44.81 81.07 44.80 83.21 C 42.66 83.20 40.52 83.20 38.38 83.16 C 36.26 83.10 34.13 83.01 32.01 82.92 C 32.00 80.84 31.99 78.76 31.98 76.69 C 33.97 76.67 35.96 76.66 37.95 76.65 C 38.05 74.45 38.16 72.24 38.27 70.04 Z" />
</g>
<g id="#cfa8a8cf">
<path fill="#cfa8a8" opacity="0.81" d=" M 51.22 70.32 C 53.35 70.37 55.48 70.41 57.61 70.44 C 57.61 72.53 57.62 74.63 57.62 76.73 C 55.48 76.76 53.34 76.79 51.21 76.82 C 51.20 74.77 51.21 72.72 51.22 70.67 L 51.22 70.32 Z" />
</g>
<g id="#1c1616c9">
<path fill="#1c1616" opacity="0.79" d=" M 211.20 70.40 C 213.34 70.39 215.48 70.38 217.62 70.37 C 217.62 72.50 217.61 74.64 217.60 76.77 C 215.47 76.79 213.33 76.80 211.20 76.82 C 211.20 74.68 211.20 72.54 211.20 70.40 Z" />
</g>
<g id="#0e0c0c1f">
<path fill="#0e0c0c" opacity="0.12" d=" M 44.80 70.65 C 46.94 70.65 49.08 70.66 51.22 70.67 C 51.21 72.72 51.20 74.77 51.21 76.82 C 49.07 76.81 46.94 76.81 44.80 76.81 C 44.80 74.76 44.80 72.70 44.80 70.65 Z" />
</g>
<g id="#80676780">
<path fill="#806767" opacity="0.50" d=" M 44.80 76.81 C 46.94 76.81 49.07 76.81 51.21 76.82 C 51.21 78.94 51.22 81.07 51.18 83.19 C 49.05 83.20 46.93 83.20 44.80 83.21 C 44.81 81.07 44.80 78.94 44.80 76.81 Z" />
<path fill="#806767" opacity="0.50" d=" M 31.99 121.76 C 34.13 121.79 36.26 121.83 38.40 121.86 C 38.40 123.91 38.40 125.95 38.40 127.99 C 38.40 130.10 38.40 132.21 38.40 134.32 C 36.27 134.27 34.13 134.22 31.99 134.18 C 31.99 132.22 31.99 130.27 31.99 128.32 C 32.00 126.13 32.00 123.94 31.99 121.76 Z" />
</g>
<g id="#705f5dff">
<path fill="#705f5d" opacity="1.00" d=" M 166.45 77.00 C 168.56 76.88 170.68 76.76 172.80 76.65 C 172.78 80.98 172.80 85.30 172.80 89.63 C 170.70 89.61 168.61 89.60 166.52 89.59 C 166.47 91.63 166.41 93.68 166.38 95.72 L 166.38 96.21 C 166.34 93.99 166.27 91.79 166.26 89.58 C 166.28 85.38 166.43 81.19 166.45 77.00 Z" />
</g>
<g id="#a78888e7">
<path fill="#a78888" opacity="0.91" d=" M 211.20 76.82 C 213.33 76.80 215.47 76.79 217.60 76.77 C 217.61 78.91 217.63 81.05 217.65 83.19 C 217.66 85.34 217.63 87.50 217.59 89.65 C 217.54 87.51 217.44 85.36 217.36 83.22 C 215.31 83.20 213.25 83.18 211.20 83.16 C 211.20 81.05 211.20 78.93 211.20 76.82 Z" />
</g>
<g id="#100c0c10">
<path fill="#100c0c" opacity="0.06" d=" M 38.38 83.16 C 40.52 83.20 42.66 83.20 44.80 83.21 C 44.80 85.35 44.80 87.49 44.79 89.63 C 42.66 89.61 40.53 89.61 38.40 89.60 C 38.40 87.45 38.39 85.30 38.38 83.16 Z" />
</g>
<g id="#796a65ff">
<path fill="#796a65" opacity="1.00" d=" M 147.31 83.56 C 149.33 83.51 151.34 83.46 153.36 83.41 C 153.92 87.53 154.29 91.70 154.03 95.87 C 153.93 97.83 153.80 99.79 153.69 101.75 C 157.92 101.90 162.15 102.06 166.39 102.29 L 167.01 102.33 C 168.95 102.54 170.87 102.85 172.80 103.14 C 172.78 105.03 172.76 106.92 172.75 108.82 C 170.67 108.81 168.60 108.80 166.53 108.80 C 166.35 106.84 166.18 104.89 166.00 102.94 C 159.79 102.72 153.58 102.71 147.37 102.57 C 147.11 100.51 146.86 98.44 146.60 96.38 C 144.85 96.06 143.10 95.75 141.36 95.43 C 141.24 93.54 141.11 91.64 140.99 89.75 C 143.04 89.70 145.08 89.64 147.13 89.59 C 147.20 87.58 147.26 85.57 147.31 83.56 M 147.25 90.05 C 147.24 92.05 147.22 94.04 147.21 96.04 C 149.25 96.09 151.29 96.14 153.33 96.18 C 153.34 94.00 153.34 91.81 153.34 89.63 C 151.31 89.76 149.28 89.90 147.25 90.05 Z" />
</g>
<g id="#272020c4">
<path fill="#272020" opacity="0.77" d=" M 217.65 83.19 C 219.78 83.20 221.92 83.21 224.06 83.22 C 224.06 85.33 224.05 87.44 224.03 89.55 C 221.88 89.58 219.73 89.61 217.59 89.65 C 217.63 87.50 217.66 85.34 217.65 83.19 Z" />
</g>
<g id="#01010140">
<path fill="#010101" opacity="0.25" d=" M 24.90 114.63 C 25.61 106.30 24.94 97.93 25.72 89.60 C 25.79 91.77 25.85 93.95 25.85 96.12 C 25.81 100.43 25.76 104.74 25.84 109.05 C 25.89 112.98 25.73 116.91 25.66 120.84 C 25.64 123.29 25.68 125.73 25.72 128.18 C 27.81 128.23 29.90 128.27 31.99 128.32 C 31.99 130.27 31.99 132.22 31.99 134.18 C 29.92 134.22 27.85 134.26 25.78 134.31 C 25.67 138.64 25.75 142.98 25.95 147.31 C 27.96 147.32 29.98 147.33 32.00 147.34 C 32.03 149.47 32.06 151.60 32.10 153.72 C 29.92 153.71 27.74 153.69 25.57 153.66 C 25.44 149.56 25.25 145.47 24.99 141.38 C 23.07 141.20 21.15 141.02 19.23 140.83 C 19.19 132.25 19.18 123.67 19.23 115.10 C 21.12 114.94 23.01 114.78 24.90 114.63 Z" />
<path fill="#010101" opacity="0.25" d=" M 230.40 108.74 C 232.53 108.80 234.66 108.87 236.80 108.95 C 236.66 115.33 237.09 121.71 236.93 128.09 L 236.21 128.06 C 236.16 126.01 236.11 123.97 236.06 121.92 C 234.39 121.86 232.73 121.79 231.06 121.73 L 230.38 121.70 C 230.39 119.50 230.40 117.31 230.40 115.11 C 230.40 112.98 230.40 110.86 230.40 108.74 Z" />
<path fill="#010101" opacity="0.25" d=" M 89.60 230.00 C 91.73 229.98 93.87 230.00 96.00 230.07 C 98.08 230.14 100.16 230.21 102.24 230.23 C 104.47 230.24 106.70 230.21 108.93 230.20 C 110.99 230.19 113.05 230.18 115.12 230.19 C 117.31 230.21 119.50 230.24 121.69 230.28 C 123.79 230.32 125.89 230.37 127.98 230.40 C 130.08 230.42 132.18 230.43 134.28 230.43 C 136.47 230.42 138.66 230.41 140.86 230.39 C 142.95 230.36 145.04 230.33 147.13 230.30 C 151.42 230.26 155.71 230.22 160.00 230.18 C 162.17 230.19 164.33 230.24 166.50 230.32 C 160.13 231.08 153.71 230.41 147.32 230.85 C 147.21 232.83 147.11 234.81 147.01 236.79 C 136.48 236.90 125.96 236.96 115.44 236.60 C 115.39 234.69 115.33 232.78 115.28 230.87 C 106.74 230.10 98.05 231.66 89.60 230.00 Z" />
</g>
<g id="#90747490">
<path fill="#907474" opacity="0.56" d=" M 38.40 89.60 C 40.53 89.61 42.66 89.61 44.79 89.63 C 44.80 91.75 44.81 93.88 44.81 96.01 C 42.67 96.00 40.54 95.99 38.40 95.98 C 38.40 93.86 38.40 91.73 38.40 89.60 Z" />
<path fill="#907474" opacity="0.56" d=" M 191.97 198.34 C 194.11 198.36 196.25 198.38 198.39 198.41 C 198.40 200.53 198.40 202.66 198.40 204.79 C 196.26 204.79 194.13 204.80 192.00 204.83 L 192.00 204.59 C 191.99 202.51 191.98 200.42 191.97 198.34 Z" />
</g>
<g id="#5f504eff">
<path fill="#5f504e" opacity="1.00" d=" M 90.02 89.34 C 92.01 89.48 94.00 89.54 95.99 89.61 C 96.00 91.75 96.01 93.89 96.01 96.03 C 93.88 95.97 91.76 95.92 89.64 95.86 C 89.77 93.69 89.89 91.52 90.02 89.34 Z" />
</g>
<g id="#4c413fff">
<path fill="#4c413f" opacity="1.00" d=" M 102.92 89.78 C 104.88 89.73 106.85 89.68 108.81 89.64 C 108.79 91.78 108.77 93.92 108.74 96.07 C 106.61 96.14 104.49 96.21 102.37 96.27 C 102.56 94.11 102.74 91.94 102.92 89.78 Z" />
</g>
<g id="#806a68ff">
<path fill="#806a68" opacity="1.00" d=" M 115.26 89.65 C 117.47 89.72 119.69 89.80 121.90 89.84 C 121.76 91.86 121.63 93.88 121.50 95.90 C 119.65 95.92 117.81 95.94 115.97 95.96 C 115.74 93.86 115.51 91.75 115.26 89.65 Z" />
</g>
<g id="#5b4b4aff">
<path fill="#5b4b4a" opacity="1.00" d=" M 147.25 90.05 C 149.28 89.90 151.31 89.76 153.34 89.63 C 153.34 91.81 153.34 94.00 153.33 96.18 C 151.29 96.14 149.25 96.09 147.21 96.04 C 147.22 94.04 147.24 92.05 147.25 90.05 Z" />
</g>
<g id="#5a4c49ff">
<path fill="#5a4c49" opacity="1.00" d=" M 159.89 89.59 C 162.01 89.58 164.14 89.58 166.26 89.58 C 166.27 91.79 166.34 93.99 166.38 96.21 C 166.39 98.23 166.39 100.26 166.39 102.29 C 162.15 102.06 157.92 101.90 153.69 101.75 C 153.80 99.79 153.93 97.83 154.03 95.87 C 155.95 95.87 157.88 95.87 159.81 95.87 C 159.83 93.77 159.86 91.68 159.89 89.59 Z" />
</g>
<g id="#d2adabff">
<path fill="#d2adab" opacity="1.00" d=" M 166.52 89.59 C 168.61 89.60 170.70 89.61 172.80 89.63 C 172.79 91.78 172.80 93.93 172.82 96.08 C 170.67 95.96 168.52 95.84 166.38 95.72 C 166.41 93.68 166.47 91.63 166.52 89.59 Z" />
</g>
<g id="#9a7d7de9">
<path fill="#9a7d7d" opacity="0.91" d=" M 217.59 89.65 C 219.73 89.61 221.88 89.58 224.03 89.55 C 224.01 91.70 224.00 93.85 224.00 96.00 C 221.87 96.00 219.74 95.99 217.62 95.99 C 217.61 93.88 217.61 91.76 217.59 89.65 Z" />
</g>
<g id="#020202aa">
<path fill="#020202" opacity="0.67" d=" M 25.85 96.12 C 27.88 96.10 29.91 96.08 31.93 96.05 C 31.95 98.12 31.96 100.18 31.98 102.25 C 32.00 104.45 32.00 106.64 32.01 108.84 C 29.95 108.91 27.90 108.98 25.84 109.05 C 25.76 104.74 25.81 100.43 25.85 96.12 Z" />
</g>
<g id="#00000010">
<path fill="#000000" opacity="0.06" d=" M 31.93 96.05 C 34.09 96.03 36.24 96.01 38.40 95.98 C 38.40 98.14 38.40 100.29 38.40 102.44 C 36.26 102.38 34.12 102.32 31.98 102.25 C 31.96 100.18 31.95 98.12 31.93 96.05 Z" />
</g>
<g id="#d0a8a8d0">
<path fill="#d0a8a8" opacity="0.82" d=" M 38.40 95.98 C 40.54 95.99 42.67 96.00 44.81 96.01 C 44.82 98.10 44.82 100.19 44.82 102.28 C 42.68 102.34 40.54 102.39 38.40 102.44 C 38.40 100.29 38.40 98.14 38.40 95.98 Z" />
<path fill="#d0a8a8" opacity="0.82" d=" M 38.40 153.57 C 40.52 153.61 42.64 153.65 44.77 153.71 C 44.78 155.81 44.79 157.90 44.79 160.01 C 42.66 160.00 40.53 159.99 38.40 159.98 C 38.40 157.84 38.40 155.70 38.40 153.57 Z" />
<path fill="#d0a8a8" opacity="0.82" d=" M 76.80 204.85 C 78.92 204.86 81.04 204.87 83.16 204.87 C 83.18 206.98 83.19 209.09 83.20 211.20 C 81.07 211.20 78.94 211.20 76.81 211.21 C 76.80 209.09 76.80 206.97 76.80 204.85 Z" />
</g>
<g id="#3b3331ff">
<path fill="#3b3331" opacity="1.00" d=" M 89.64 95.86 C 91.76 95.92 93.88 95.97 96.01 96.03 C 96.01 98.14 96.00 100.26 95.99 102.38 C 93.87 102.39 91.75 102.39 89.63 102.40 C 89.62 100.22 89.63 98.04 89.64 95.86 Z" />
</g>
<g id="#6a635bff">
<path fill="#6a635b" opacity="1.00" d=" M 108.74 96.07 C 110.84 96.03 112.95 96.00 115.06 95.97 C 115.06 98.09 115.12 100.21 115.18 102.33 C 112.98 102.34 110.78 102.34 108.58 102.34 C 108.63 100.25 108.68 98.16 108.74 96.07 Z" />
<path fill="#6a635b" opacity="1.00" d=" M 140.77 127.99 C 142.87 128.00 144.97 128.01 147.07 128.03 C 147.11 130.16 147.14 132.30 147.18 134.43 C 145.13 134.44 143.07 134.45 141.02 134.45 C 140.97 136.18 140.93 137.91 140.89 139.64 L 140.86 140.88 C 145.31 140.93 149.75 140.93 154.20 140.90 C 154.08 142.92 153.96 144.93 153.84 146.95 C 149.57 147.27 145.29 147.30 141.02 147.12 C 140.83 145.01 140.63 142.91 140.43 140.80 C 138.61 140.44 136.28 141.14 134.77 139.96 C 134.55 138.26 134.55 136.54 134.50 134.84 C 136.51 134.49 138.51 134.10 140.51 133.75 C 140.60 131.83 140.68 129.91 140.77 127.99 Z" />
<path fill="#6a635b" opacity="1.00" d=" M 83.13 140.80 C 85.26 140.84 87.39 140.91 89.52 140.99 C 89.61 142.96 89.70 144.93 89.80 146.90 C 91.87 146.93 93.94 146.96 96.00 147.03 L 96.00 147.73 C 93.92 147.77 91.84 147.82 89.77 147.87 C 89.81 149.56 89.85 151.24 89.89 152.93 C 91.92 152.98 93.95 153.04 95.99 153.09 L 95.99 153.82 C 91.94 153.62 87.22 155.56 83.61 153.39 C 82.88 151.41 83.15 149.24 83.06 147.18 C 83.08 145.05 83.11 142.92 83.13 140.80 Z" />
<path fill="#6a635b" opacity="1.00" d=" M 70.33 153.61 C 74.45 153.79 78.78 152.91 82.75 154.25 C 83.47 155.88 83.54 157.70 83.86 159.44 C 85.72 159.53 87.57 159.62 89.44 159.71 C 89.49 161.84 89.53 163.97 89.58 166.10 C 87.43 166.22 85.28 166.34 83.14 166.47 C 83.27 168.60 83.41 170.73 83.55 172.86 C 79.30 172.99 75.04 172.86 70.78 172.80 C 72.76 172.62 74.72 172.32 76.69 172.05 C 76.68 170.40 76.67 168.75 76.67 167.10 C 72.47 166.75 68.26 166.59 64.04 166.64 C 64.03 168.69 64.01 170.73 63.99 172.78 C 61.99 172.88 60.00 172.98 58.00 173.09 C 57.90 175.11 57.81 177.13 57.71 179.16 C 55.54 179.19 53.37 179.20 51.19 179.21 C 51.18 177.08 51.16 174.96 51.14 172.84 C 53.19 172.70 55.23 172.55 57.27 172.41 C 57.44 170.48 57.61 168.54 57.78 166.61 C 64.12 166.11 70.47 166.19 76.82 165.98 C 76.82 164.01 76.82 162.04 76.82 160.07 C 74.65 160.04 72.49 160.02 70.32 160.00 C 70.32 157.87 70.33 155.74 70.33 153.61 Z" />
</g>
<g id="#0e0c0cac">
<path fill="#0e0c0c" opacity="0.67" d=" M 224.00 96.00 C 226.13 96.00 228.26 95.99 230.40 95.99 C 230.40 98.10 230.40 100.21 230.40 102.33 C 228.26 102.33 226.13 102.32 224.00 102.32 C 224.00 100.21 224.00 98.11 224.00 96.00 Z" />
</g>
<g id="#aa8a8aff">
<path fill="#aa8a8a" opacity="1.00" d=" M 76.79 102.40 C 78.79 102.40 80.78 102.40 82.78 102.40 L 83.26 102.40 C 83.23 104.53 83.19 106.66 83.16 108.79 C 81.13 108.78 79.09 108.76 77.06 108.74 C 76.95 106.63 76.87 104.51 76.79 102.40 Z" />
</g>
<g id="#2d2525ca">
<path fill="#2d2525" opacity="0.79" d=" M 224.00 102.32 C 226.13 102.32 228.26 102.33 230.40 102.33 C 230.40 104.46 230.40 106.60 230.40 108.74 C 228.26 108.79 226.13 108.85 224.00 108.91 C 224.00 106.71 224.00 104.52 224.00 102.32 Z" />
</g>
<g id="#02020290">
<path fill="#020202" opacity="0.56" d=" M 25.84 109.05 C 27.90 108.98 29.95 108.91 32.01 108.84 C 32.00 110.95 31.99 113.07 31.99 115.18 C 31.99 117.04 31.99 118.90 31.99 120.76 C 29.88 120.79 27.77 120.81 25.66 120.84 C 25.73 116.91 25.89 112.98 25.84 109.05 Z" />
<path fill="#020202" opacity="0.56" d=" M 102.40 224.00 C 104.53 224.00 106.66 224.00 108.80 224.00 C 108.84 226.06 108.89 228.13 108.93 230.20 C 106.70 230.21 104.47 230.24 102.24 230.23 C 102.29 228.15 102.35 226.07 102.40 224.00 Z" />
</g>
<g id="#40333340">
<path fill="#403333" opacity="0.25" d=" M 32.01 108.84 C 34.14 108.85 36.27 108.86 38.40 108.87 C 38.40 110.98 38.40 113.10 38.40 115.21 C 36.26 115.20 34.13 115.19 31.99 115.18 C 31.99 113.07 32.00 110.95 32.01 108.84 Z" />
<path fill="#403333" opacity="0.25" d=" M 32.00 140.82 C 34.14 140.81 36.27 140.80 38.40 140.80 C 38.40 142.88 38.40 144.97 38.40 147.05 C 36.26 147.15 34.13 147.25 32.00 147.34 C 32.00 145.17 32.00 143.00 32.00 140.82 Z" />
</g>
<g id="#7c6565ff">
<path fill="#7c6565" opacity="1.00" d=" M 70.40 108.85 C 72.62 108.81 74.84 108.78 77.06 108.74 C 77.02 110.92 76.98 113.10 76.89 115.28 C 74.90 115.23 72.90 115.17 70.91 115.13 L 70.38 115.12 C 70.39 113.03 70.39 110.94 70.40 108.85 Z" />
<path fill="#7c6565" opacity="1.00" d=" M 89.77 198.13 C 91.77 198.22 93.77 198.32 95.77 198.42 C 95.90 200.31 96.03 202.20 96.16 204.09 C 94.00 204.21 91.83 204.31 89.67 204.40 C 89.70 202.30 89.74 200.22 89.77 198.13 Z" />
</g>
<g id="#836c6bff">
<path fill="#836c6b" opacity="1.00" d=" M 179.18 108.79 C 181.32 108.79 183.47 108.79 185.62 108.83 C 185.61 110.91 185.61 112.99 185.61 115.08 C 183.47 115.03 181.34 114.93 179.21 114.83 C 179.20 112.82 179.19 110.80 179.18 108.79 Z" />
</g>
<g id="#594949d7">
<path fill="#594949" opacity="0.84" d=" M 224.00 108.91 C 226.13 108.85 228.26 108.79 230.40 108.74 C 230.40 110.86 230.40 112.98 230.40 115.11 C 228.26 115.14 226.13 115.18 224.00 115.21 C 224.00 113.11 224.00 111.01 224.00 108.91 Z" />
</g>
<g id="#705a5a70">
<path fill="#705a5a" opacity="0.44" d=" M 31.99 115.18 C 34.13 115.19 36.26 115.20 38.40 115.21 C 38.40 117.43 38.40 119.65 38.40 121.86 C 36.26 121.83 34.13 121.79 31.99 121.76 L 31.99 120.76 C 31.99 118.90 31.99 117.04 31.99 115.18 Z" />
<path fill="#705a5a" opacity="0.44" d=" M 31.99 134.18 C 34.13 134.22 36.27 134.27 38.40 134.32 C 38.40 136.48 38.40 138.64 38.40 140.80 C 36.27 140.80 34.14 140.81 32.00 140.82 C 32.00 138.61 32.00 136.39 31.99 134.18 Z" />
<path fill="#705a5a" opacity="0.44" d=" M 224.00 147.09 C 226.13 147.15 228.26 147.20 230.40 147.25 C 230.40 149.36 230.40 151.48 230.40 153.60 C 228.26 153.61 226.13 153.63 223.99 153.65 L 223.99 153.02 C 223.99 151.28 223.99 149.54 224.00 147.80 L 224.00 147.09 Z" />
</g>
<g id="#a5918aff">
<path fill="#a5918a" opacity="1.00" d=" M 70.91 115.13 C 72.90 115.17 74.90 115.23 76.89 115.28 C 76.81 117.45 76.73 119.61 76.65 121.78 C 74.78 121.76 72.91 121.73 71.03 121.71 C 70.99 119.52 70.95 117.32 70.91 115.13 Z" />
<path fill="#a5918a" opacity="1.00" d=" M 186.31 121.69 C 188.08 121.91 189.86 122.08 191.61 122.48 C 192.45 124.18 192.27 126.15 192.35 127.99 C 190.09 127.99 187.84 128.00 185.59 128.00 C 185.83 125.90 186.07 123.80 186.31 121.69 Z" />
</g>
<g id="#796363d8">
<path fill="#796363" opacity="0.85" d=" M 224.00 115.21 C 226.13 115.18 228.26 115.14 230.40 115.11 C 230.40 117.31 230.39 119.50 230.38 121.70 C 228.25 121.73 226.13 121.77 224.00 121.81 C 224.00 119.61 224.00 117.41 224.00 115.21 Z" />
</g>
<g id="#02020270">
<path fill="#020202" opacity="0.44" d=" M 25.66 120.84 C 27.77 120.81 29.88 120.79 31.99 120.76 L 31.99 121.76 C 32.00 123.94 32.00 126.13 31.99 128.32 C 29.90 128.27 27.81 128.23 25.72 128.18 C 25.68 125.73 25.64 123.29 25.66 120.84 Z" />
<path fill="#020202" opacity="0.44" d=" M 160.00 223.99 C 162.14 224.01 164.29 224.02 166.43 224.05 C 166.46 226.14 166.48 228.23 166.50 230.32 C 164.33 230.24 162.17 230.19 160.00 230.18 C 160.00 228.12 160.00 226.06 160.00 223.99 Z" />
</g>
<g id="#b19492ff">
<path fill="#b19492" opacity="1.00" d=" M 57.59 121.54 C 59.72 121.57 61.84 121.60 63.97 121.69 C 66.07 121.79 68.17 121.93 70.27 122.07 C 70.27 124.05 70.27 126.03 70.27 128.02 C 68.19 127.99 66.12 127.96 64.05 127.94 C 61.90 127.92 59.75 127.91 57.60 127.91 C 57.59 125.78 57.59 123.66 57.59 121.54 Z" />
</g>
<g id="#9c9a97ff">
<path fill="#9c9a97" opacity="1.00" d=" M 109.55 122.24 C 111.20 122.24 112.84 122.25 114.49 122.25 C 114.67 124.13 114.86 126.00 115.05 127.88 C 117.10 128.02 119.15 128.15 121.20 128.29 C 121.93 134.41 122.43 140.64 121.64 146.77 C 119.94 148.15 117.33 146.81 115.32 146.91 C 115.55 145.09 115.77 143.27 115.99 141.45 C 117.74 141.25 119.49 141.06 121.25 140.86 C 121.25 138.70 121.24 136.54 121.24 134.38 C 119.22 134.39 117.20 134.40 115.18 134.41 C 115.19 132.28 115.20 130.15 115.20 128.02 C 113.06 128.01 110.91 128.00 108.77 128.00 C 109.03 126.08 109.29 124.16 109.55 122.24 Z" />
</g>
<g id="#797470ff">
<path fill="#797470" opacity="1.00" d=" M 178.93 122.01 C 180.94 121.97 182.94 121.94 184.95 121.91 C 185.03 123.94 185.11 125.97 185.20 128.00 C 183.11 128.00 181.04 128.01 178.96 128.02 C 178.94 126.02 178.93 124.01 178.93 122.01 Z" />
</g>
<g id="#917676d0">
<path fill="#917676" opacity="0.82" d=" M 224.00 121.81 C 226.13 121.77 228.25 121.73 230.38 121.70 C 230.37 123.80 230.37 125.89 230.38 127.99 C 228.25 128.01 226.13 128.03 224.00 128.05 C 224.00 125.97 224.00 123.89 224.00 121.81 Z" />
</g>
<g id="#c09c9cff">
<path fill="#c09c9c" opacity="1.00" d=" M 44.84 128.01 C 47.00 128.01 49.16 128.01 51.32 128.00 C 51.17 130.02 51.02 132.04 50.86 134.07 C 48.85 134.15 46.83 134.23 44.81 134.30 C 44.82 132.20 44.83 130.11 44.84 128.01 Z" />
</g>
<g id="#e0b5b5ff">
<path fill="#e0b5b5" opacity="1.00" d=" M 51.32 128.00 C 53.41 127.98 55.50 127.94 57.60 127.91 C 57.60 130.00 57.60 132.09 57.61 134.18 C 55.41 134.20 53.22 134.22 51.02 134.24 C 51.02 136.47 51.03 138.70 51.05 140.93 C 49.09 140.87 47.14 140.81 45.18 140.75 C 44.98 138.84 44.78 136.93 44.58 135.03 C 42.72 134.79 40.87 134.52 39.01 134.35 C 40.95 134.39 42.88 134.35 44.81 134.30 C 46.83 134.23 48.85 134.15 50.86 134.07 C 51.02 132.04 51.17 130.02 51.32 128.00 Z" />
</g>
<g id="#9b8d84ff">
<path fill="#9b8d84" opacity="1.00" d=" M 64.05 127.94 C 66.12 127.96 68.19 127.99 70.27 128.02 C 70.26 130.05 70.27 132.08 70.31 134.12 C 68.19 134.16 66.06 134.21 63.94 134.28 C 63.97 132.16 64.01 130.05 64.05 127.94 Z" />
</g>
<g id="#7f7972ff">
<path fill="#7f7972" opacity="1.00" d=" M 96.10 127.99 C 98.07 127.99 100.03 128.00 102.00 128.01 C 102.23 132.35 102.41 136.71 102.32 141.06 C 100.28 141.02 98.25 140.98 96.21 140.94 C 95.92 136.62 95.89 132.30 96.10 127.99 Z" />
</g>
<g id="#a2a2a2ff">
<path fill="#a2a2a2" opacity="1.00" d=" M 102.00 128.01 L 102.70 128.00 C 102.67 130.08 102.64 132.16 102.62 134.24 C 104.67 134.32 106.74 134.40 108.80 134.48 C 108.79 136.59 108.78 138.71 108.76 140.82 C 108.73 142.89 108.71 144.96 108.69 147.03 C 110.89 147.12 113.08 147.21 115.27 147.34 C 110.91 147.84 106.53 147.49 102.19 146.98 C 102.23 145.01 102.29 143.03 102.32 141.06 C 102.41 136.71 102.23 132.35 102.00 128.01 Z" />
</g>
<g id="#cfcfcfff">
<path fill="#cfcfcf" opacity="1.00" d=" M 102.70 128.00 C 104.72 128.00 106.75 128.00 108.77 128.00 C 108.83 130.03 108.90 132.07 108.97 134.11 C 111.04 134.21 113.11 134.31 115.18 134.41 C 115.10 136.54 115.01 138.66 115.01 140.78 C 112.93 140.79 110.84 140.81 108.76 140.82 C 108.78 138.71 108.79 136.59 108.80 134.48 C 106.74 134.40 104.67 134.32 102.62 134.24 C 102.64 132.16 102.67 130.08 102.70 128.00 Z" />
</g>
<g id="#efefefff">
<path fill="#efefef" opacity="1.00" d=" M 108.77 128.00 C 110.91 128.00 113.06 128.01 115.20 128.02 C 115.20 130.15 115.19 132.28 115.18 134.41 C 113.11 134.31 111.04 134.21 108.97 134.11 C 108.90 132.07 108.83 130.03 108.77 128.00 Z" />
<path fill="#efefef" opacity="1.00" d=" M 178.96 128.02 C 181.04 128.01 183.11 128.00 185.20 128.00 L 185.59 128.00 C 185.60 132.33 185.67 136.66 185.66 140.99 C 183.48 140.94 181.31 140.89 179.14 140.83 C 179.20 136.56 179.17 132.29 178.96 128.02 M 179.39 134.44 C 179.47 136.49 179.55 138.55 179.65 140.60 C 181.39 140.45 183.15 140.34 184.86 139.96 C 185.02 138.01 184.94 136.05 184.89 134.10 C 183.06 134.22 181.22 134.32 179.39 134.44 Z" />
</g>
<g id="#4f4a44ff">
<path fill="#4f4a44" opacity="1.00" d=" M 147.07 128.03 C 149.25 128.01 151.44 128.00 153.63 127.98 C 153.69 130.12 153.75 132.26 153.82 134.40 C 151.60 134.40 149.39 134.42 147.18 134.43 C 147.14 132.30 147.11 130.16 147.07 128.03 Z" />
<path fill="#4f4a44" opacity="1.00" d=" M 83.14 166.47 C 85.28 166.34 87.43 166.22 89.58 166.10 C 89.62 168.27 89.66 170.43 89.70 172.60 C 87.65 172.70 85.60 172.79 83.55 172.86 C 83.41 170.73 83.27 168.60 83.14 166.47 Z" />
</g>
<g id="#36332fff">
<path fill="#36332f" opacity="1.00" d=" M 153.63 127.98 C 155.76 128.00 157.90 128.02 160.03 128.04 C 160.03 130.15 160.03 132.27 160.04 134.39 C 157.96 134.39 155.89 134.39 153.82 134.40 C 153.75 132.26 153.69 130.12 153.63 127.98 Z" />
</g>
<g id="#7c746eff">
<path fill="#7c746e" opacity="1.00" d=" M 160.03 128.04 C 163.97 127.79 167.92 127.67 171.86 127.80 C 171.91 131.80 172.49 135.84 171.81 139.81 C 170.24 140.86 168.18 140.04 166.43 140.22 C 166.40 138.28 166.38 136.35 166.37 134.41 C 164.25 134.40 162.14 134.40 160.04 134.39 C 160.03 132.27 160.03 130.15 160.03 128.04 Z" />
</g>
<g id="#a8a8a8ff">
<path fill="#a8a8a8" opacity="1.00" d=" M 172.99 127.99 C 174.98 128.00 176.97 128.01 178.96 128.02 C 179.17 132.29 179.20 136.56 179.14 140.83 C 177.11 140.84 175.07 140.85 173.04 140.86 C 173.05 136.57 173.01 132.28 172.99 127.99 Z" />
</g>
<g id="#7a746eff">
<path fill="#7a746e" opacity="1.00" d=" M 185.59 128.00 C 187.84 128.00 190.09 127.99 192.35 127.99 C 192.29 129.98 192.17 131.96 192.07 133.94 C 191.84 138.31 191.78 142.69 191.80 147.07 C 189.76 147.05 187.71 147.05 185.67 147.08 C 185.66 145.05 185.66 143.02 185.66 140.99 C 185.67 136.66 185.60 132.33 185.59 128.00 Z" />
</g>
<g id="#9d7e7edc">
<path fill="#9d7e7e" opacity="0.86" d=" M 224.00 128.05 C 226.13 128.03 228.25 128.01 230.38 127.99 C 230.39 130.04 230.39 132.08 230.40 134.13 C 228.26 134.20 226.13 134.27 224.00 134.33 C 224.00 132.24 224.00 130.14 224.00 128.05 Z" />
</g>
<g id="#6f5d5cff">
<path fill="#6f5d5c" opacity="1.00" d=" M 51.70 134.95 C 55.78 134.68 59.85 134.41 63.94 134.28 C 66.06 134.21 68.19 134.16 70.31 134.12 L 70.33 134.74 C 68.26 134.86 66.18 134.97 64.10 135.09 C 64.06 136.97 64.03 138.85 63.99 140.73 C 61.90 140.78 59.80 140.82 57.71 140.88 C 55.74 140.93 53.77 140.98 51.80 141.04 C 51.75 139.01 51.72 136.98 51.70 134.95 Z" />
</g>
<g id="#bfbfbfff">
<path fill="#bfbfbf" opacity="1.00" d=" M 115.18 134.41 C 117.20 134.40 119.22 134.39 121.24 134.38 C 121.24 136.54 121.25 138.70 121.25 140.86 C 119.49 141.06 117.74 141.25 115.99 141.45 C 115.77 143.27 115.55 145.09 115.32 146.91 L 115.27 147.34 C 115.15 145.15 115.04 142.97 115.01 140.78 C 115.01 138.66 115.10 136.54 115.18 134.41 Z" />
</g>
<g id="#000000ff">
<path fill="#000000" opacity="1.00" d=" M 141.02 134.45 C 143.07 134.45 145.13 134.44 147.18 134.43 C 149.39 134.42 151.60 134.40 153.82 134.40 C 155.89 134.39 157.96 134.39 160.04 134.39 C 159.97 136.28 159.90 138.17 159.84 140.07 C 153.53 140.86 147.20 140.05 140.89 139.64 C 140.93 137.91 140.97 136.18 141.02 134.45 Z" />
</g>
<g id="#161413ff">
<path fill="#161413" opacity="1.00" d=" M 160.04 134.39 C 162.14 134.40 164.25 134.40 166.37 134.41 C 166.38 136.35 166.40 138.28 166.43 140.22 L 166.43 140.78 C 162.35 140.82 158.28 140.89 154.20 140.90 C 149.75 140.93 145.31 140.93 140.86 140.88 L 140.89 139.64 C 147.20 140.05 153.53 140.86 159.84 140.07 C 159.90 138.17 159.97 136.28 160.04 134.39 Z" />
</g>
<g id="#ffffffff">
<path fill="#ffffff" opacity="1.00" d=" M 179.39 134.44 C 181.22 134.32 183.06 134.22 184.89 134.10 C 184.94 136.05 185.02 138.01 184.86 139.96 C 183.15 140.34 181.39 140.45 179.65 140.60 C 179.55 138.55 179.47 136.49 179.39 134.44 Z" />
<path fill="#ffffff" opacity="1.00" d=" M 108.76 140.82 C 110.84 140.81 112.93 140.79 115.01 140.78 C 115.04 142.97 115.15 145.15 115.27 147.34 C 113.08 147.21 110.89 147.12 108.69 147.03 C 108.71 144.96 108.73 142.89 108.76 140.82 Z" />
</g>
<g id="#9f8d84ff">
<path fill="#9f8d84" opacity="1.00" d=" M 192.07 133.94 C 194.19 134.02 196.32 134.10 198.44 134.16 C 200.61 134.22 202.77 134.27 204.94 134.31 C 204.96 136.55 204.95 138.78 204.92 141.01 C 204.90 143.03 204.87 145.06 204.85 147.08 C 200.50 147.07 196.15 147.15 191.80 147.07 C 191.78 142.69 191.84 138.31 192.07 133.94 M 198.84 134.95 C 198.82 137.00 198.81 139.05 198.80 141.10 C 200.53 141.09 202.26 141.09 204.00 141.09 C 203.99 139.07 203.98 137.05 203.98 135.03 C 202.26 135.01 200.55 134.98 198.84 134.95 Z" />
</g>
<g id="#b39292c4">
<path fill="#b39292" opacity="0.77" d=" M 224.00 134.33 C 226.13 134.27 228.26 134.20 230.40 134.13 L 230.40 134.54 C 230.41 136.67 230.41 138.80 230.41 140.93 C 228.27 140.95 226.13 140.96 224.00 140.98 C 224.00 138.76 224.00 136.55 224.00 134.33 Z" />
</g>
<g id="#58524cff">
<path fill="#58524c" opacity="1.00" d=" M 64.10 135.09 C 66.18 134.97 68.26 134.86 70.33 134.74 C 70.41 136.72 70.52 138.69 70.64 140.66 C 74.80 140.72 78.96 140.73 83.13 140.80 C 83.11 142.92 83.08 145.05 83.06 147.18 C 78.83 147.24 74.60 147.21 70.38 147.08 C 70.33 145.11 70.29 143.14 70.25 141.17 C 68.16 141.02 66.07 140.88 63.99 140.73 C 64.03 138.85 64.06 136.97 64.10 135.09 Z" />
<path fill="#58524c" opacity="1.00" d=" M 89.77 147.87 C 91.84 147.82 93.92 147.77 96.00 147.73 C 96.00 149.51 95.99 151.30 95.99 153.09 C 93.95 153.04 91.92 152.98 89.89 152.93 C 89.85 151.24 89.81 149.56 89.77 147.87 Z" />
</g>
<g id="#a29189ff">
<path fill="#a29189" opacity="1.00" d=" M 57.71 140.88 C 59.80 140.82 61.90 140.78 63.99 140.73 C 63.88 142.72 63.78 144.71 63.68 146.70 C 61.96 147.02 60.24 147.35 58.53 147.67 C 58.21 149.80 57.89 151.92 57.58 154.05 C 55.43 154.06 53.28 154.06 51.13 154.01 C 49.01 153.94 46.89 153.82 44.77 153.71 L 44.77 153.22 C 48.89 153.30 53.00 153.24 57.12 153.03 C 57.08 151.34 57.04 149.66 57.01 147.99 C 55.04 147.74 53.07 147.47 51.09 147.32 L 52.02 147.24 C 53.87 147.09 55.71 146.95 57.56 146.81 C 57.61 144.83 57.66 142.85 57.71 140.88 Z" />
</g>
<g id="#9a948eff">
<path fill="#9a948e" opacity="1.00" d=" M 173.04 140.86 C 175.07 140.85 177.11 140.84 179.14 140.83 C 179.15 142.95 179.17 145.06 179.18 147.18 C 177.13 147.15 175.07 147.08 173.02 147.01 C 173.03 144.96 173.03 142.91 173.04 140.86 Z" />
</g>
<g id="#bfbab4ff">
<path fill="#bfbab4" opacity="1.00" d=" M 179.14 140.83 C 181.31 140.89 183.48 140.94 185.66 140.99 C 185.66 143.02 185.66 145.05 185.67 147.08 C 183.50 147.12 181.34 147.18 179.18 147.18 C 179.17 145.06 179.15 142.95 179.14 140.83 Z" />
</g>
<g id="#b08e8eb0">
<path fill="#b08e8e" opacity="0.69" d=" M 224.00 140.98 C 226.13 140.96 228.27 140.95 230.41 140.93 C 230.40 143.04 230.40 145.14 230.40 147.25 C 228.26 147.20 226.13 147.15 224.00 147.09 C 223.99 145.05 224.00 143.02 224.00 140.98 Z" />
<path fill="#b08e8e" opacity="0.69" d=" M 153.61 217.61 C 155.73 217.60 157.86 217.60 160.00 217.60 C 160.00 219.73 160.00 221.86 160.00 223.99 C 157.87 224.00 155.74 224.00 153.61 224.00 C 153.61 221.87 153.60 219.74 153.61 217.61 Z" />
</g>
<g id="#7c736aff">
<path fill="#7c736a" opacity="1.00" d=" M 96.00 147.03 C 97.98 147.10 99.95 147.21 101.93 147.31 C 102.03 149.41 102.13 151.50 102.23 153.60 C 100.14 153.66 98.06 153.71 95.99 153.82 L 95.99 153.09 C 95.99 151.30 96.00 149.51 96.00 147.73 L 96.00 147.03 Z" />
<path fill="#7c736a" opacity="1.00" d=" M 153.25 160.21 C 157.62 159.88 162.00 159.79 166.38 159.89 C 166.37 162.12 166.29 164.35 166.15 166.58 C 164.11 166.71 162.07 166.84 160.03 166.98 C 159.83 168.57 159.64 170.17 159.45 171.77 C 157.79 171.75 156.14 171.73 154.48 171.71 C 153.80 167.91 153.39 164.07 153.25 160.21 Z" />
<path fill="#7c736a" opacity="1.00" d=" M 58.00 173.09 C 60.00 172.98 61.99 172.88 63.99 172.78 C 63.95 174.86 63.90 176.94 63.85 179.03 C 61.81 179.08 59.76 179.12 57.71 179.16 C 57.81 177.13 57.90 175.11 58.00 173.09 Z" />
</g>
<g id="#615853ff">
<path fill="#615853" opacity="1.00" d=" M 191.80 147.07 C 196.15 147.15 200.50 147.07 204.85 147.08 C 204.89 149.26 204.93 151.44 204.96 153.61 C 207.08 153.63 209.20 153.64 211.32 153.66 C 211.30 155.73 211.29 157.80 211.28 159.88 C 207.03 159.84 202.77 159.96 198.53 160.19 C 198.48 158.03 198.35 155.87 198.23 153.71 C 196.21 153.65 194.18 153.59 192.16 153.53 C 192.05 151.38 191.93 149.22 191.80 147.07 M 198.26 148.04 C 198.30 149.92 198.33 151.79 198.36 153.67 C 200.35 153.75 202.33 153.84 204.32 153.93 C 204.31 151.89 204.19 149.85 203.98 147.83 C 202.07 147.87 200.16 147.94 198.26 148.04 Z" />
</g>
<g id="#524342ff">
<path fill="#524342" opacity="1.00" d=" M 198.26 148.04 C 200.16 147.94 202.07 147.87 203.98 147.83 C 204.19 149.85 204.31 151.89 204.32 153.93 C 202.33 153.84 200.35 153.75 198.36 153.67 C 198.33 151.79 198.30 149.92 198.26 148.04 Z" />
</g>
<g id="#af8e8eff">
<path fill="#af8e8e" opacity="1.00" d=" M 217.98 148.04 C 219.98 147.95 221.99 147.88 224.00 147.80 C 223.99 149.54 223.99 151.28 223.99 153.02 C 221.96 152.98 219.92 152.94 217.89 152.90 C 217.92 151.28 217.95 149.65 217.98 148.04 Z" />
</g>
<g id="#6b5757ff">
<path fill="#6b5757" opacity="1.00" d=" M 44.77 153.71 C 46.89 153.82 49.01 153.94 51.13 154.01 C 51.12 158.03 51.05 162.05 50.94 166.07 C 48.89 166.17 46.84 166.26 44.79 166.36 C 44.80 164.24 44.80 162.12 44.79 160.01 C 44.79 157.90 44.78 155.81 44.77 153.71 Z" />
</g>
<g id="#47423dff">
<path fill="#47423d" opacity="1.00" d=" M 57.79 153.69 C 61.97 153.63 66.15 153.61 70.33 153.61 C 70.33 155.74 70.32 157.87 70.32 160.00 C 66.10 159.97 61.88 159.91 57.66 159.84 C 57.70 157.79 57.74 155.74 57.79 153.69 Z" />
<path fill="#47423d" opacity="1.00" d=" M 64.04 166.64 C 68.26 166.59 72.47 166.75 76.67 167.10 C 76.67 168.75 76.68 170.40 76.69 172.05 C 74.72 172.32 72.76 172.62 70.78 172.80 C 68.52 172.83 66.25 172.80 63.99 172.78 C 64.01 170.73 64.03 168.69 64.04 166.64 Z" />
</g>
<g id="#504141c1">
<path fill="#504141" opacity="0.76" d=" M 38.40 159.98 C 40.53 159.99 42.66 160.00 44.79 160.01 C 44.80 162.12 44.80 164.24 44.79 166.36 C 42.66 166.38 40.52 166.41 38.39 166.43 C 38.39 164.28 38.40 162.13 38.40 159.98 Z" />
</g>
<g id="#b19b94ff">
<path fill="#b19b94" opacity="1.00" d=" M 51.35 159.73 C 53.23 159.77 55.13 159.76 57.01 160.00 C 58.06 161.75 57.55 164.01 57.82 165.97 C 55.75 166.07 53.69 166.16 51.62 166.25 C 51.53 164.08 51.44 161.90 51.35 159.73 Z" />
<path fill="#b19b94" opacity="1.00" d=" M 57.77 185.62 C 59.81 185.64 61.85 185.68 63.89 185.73 C 63.95 187.81 64.01 189.90 64.08 191.99 C 61.92 192.00 59.76 192.00 57.61 192.00 C 57.66 189.87 57.71 187.74 57.77 185.62 Z" />
</g>
<g id="#7e6d6aff">
<path fill="#7e6d6a" opacity="1.00" d=" M 198.53 160.19 C 202.77 159.96 207.03 159.84 211.28 159.88 C 211.23 162.02 211.18 164.16 211.13 166.31 C 213.19 166.35 215.24 166.39 217.30 166.43 L 217.73 166.44 C 217.67 168.56 217.62 170.67 217.58 172.79 C 215.42 172.78 213.27 172.78 211.11 172.77 C 211.12 170.71 211.13 168.65 211.14 166.60 C 209.07 166.46 206.99 166.33 204.92 166.20 C 204.81 168.43 204.72 170.65 204.62 172.88 C 202.46 172.89 200.31 172.89 198.16 172.88 C 198.30 168.65 198.55 164.42 198.53 160.19 Z" />
</g>
<g id="#a88686e8">
<path fill="#a88686" opacity="0.91" d=" M 217.81 160.01 C 219.87 160.00 221.93 160.00 224.00 160.00 C 224.00 162.13 224.00 164.26 224.00 166.39 C 221.91 166.40 219.82 166.42 217.73 166.44 C 217.77 164.29 217.80 162.15 217.81 160.01 Z" />
</g>
<g id="#1a14144a">
<path fill="#1a1414" opacity="0.29" d=" M 38.39 166.43 C 40.52 166.41 42.66 166.38 44.79 166.36 L 44.79 166.73 C 44.80 168.76 44.80 170.78 44.80 172.81 C 42.67 172.80 40.53 172.80 38.40 172.79 C 38.39 170.67 38.39 168.55 38.39 166.43 Z" />
</g>
<g id="#524544ff">
<path fill="#524544" opacity="1.00" d=" M 204.92 166.20 C 206.99 166.33 209.07 166.46 211.14 166.60 C 211.13 168.65 211.12 170.71 211.11 172.77 C 208.95 172.81 206.78 172.85 204.62 172.88 C 204.72 170.65 204.81 168.43 204.92 166.20 Z" />
</g>
<g id="#68545479">
<path fill="#685454" opacity="0.47" d=" M 217.73 166.44 C 219.82 166.42 221.91 166.40 224.00 166.39 C 224.00 168.53 224.00 170.67 224.00 172.82 C 221.86 172.81 219.72 172.80 217.58 172.79 C 217.62 170.67 217.67 168.56 217.73 166.44 Z" />
</g>
<g id="#af8d8dff">
<path fill="#af8d8d" opacity="1.00" d=" M 44.79 166.73 C 46.81 166.79 48.82 166.85 50.83 166.92 C 50.93 168.89 51.04 170.87 51.14 172.84 C 49.03 172.83 46.92 172.82 44.80 172.81 C 44.80 170.78 44.80 168.76 44.79 166.73 Z" />
</g>
<g id="#1c1616c2">
<path fill="#1c1616" opacity="0.76" d=" M 38.40 172.79 C 40.53 172.80 42.67 172.80 44.80 172.81 C 44.80 174.94 44.80 177.06 44.80 179.18 C 42.66 179.21 40.53 179.25 38.39 179.29 C 38.39 177.12 38.40 174.95 38.40 172.79 Z" />
</g>
<g id="#aaa296ff">
<path fill="#aaa296" opacity="1.00" d=" M 147.00 172.94 C 149.23 172.91 151.46 172.88 153.69 172.87 C 153.69 174.98 153.70 177.09 153.71 179.20 C 151.38 179.20 149.07 179.19 146.75 179.19 C 146.83 177.11 146.92 175.02 147.00 172.94 Z" />
<path fill="#aaa296" opacity="1.00" d=" M 179.19 172.80 C 181.42 172.80 183.66 172.81 185.90 172.85 C 185.87 174.97 185.83 177.08 185.81 179.20 C 183.58 179.19 181.35 179.19 179.13 179.19 C 179.15 177.06 179.17 174.93 179.19 172.80 Z" />
</g>
<g id="#c6c1b3ff">
<path fill="#c6c1b3" opacity="1.00" d=" M 153.69 172.87 C 162.19 172.85 170.69 172.77 179.19 172.80 C 179.17 174.93 179.15 177.06 179.13 179.19 C 170.65 179.20 162.18 179.19 153.71 179.20 C 153.70 177.09 153.69 174.98 153.69 172.87 Z" />
<path fill="#c6c1b3" opacity="1.00" d=" M 198.29 179.25 C 200.45 179.22 202.61 179.19 204.77 179.17 C 204.83 181.33 204.91 183.48 204.94 185.64 C 204.96 187.76 204.94 189.88 204.90 192.01 L 204.43 192.00 C 204.38 189.89 204.34 187.78 204.29 185.67 C 202.29 185.65 200.30 185.63 198.30 185.62 C 198.30 183.49 198.29 181.37 198.29 179.25 Z" />
</g>
<g id="#9c9388ff">
<path fill="#9c9388" opacity="1.00" d=" M 185.90 172.85 C 187.87 172.90 189.85 172.96 191.83 173.03 C 191.92 175.10 192.01 177.18 192.10 179.26 C 190.00 179.23 187.90 179.21 185.81 179.20 C 185.83 177.08 185.87 174.97 185.90 172.85 Z" />
<path fill="#9c9388" opacity="1.00" d=" M 204.77 179.17 C 206.91 179.16 209.05 179.16 211.19 179.17 C 211.19 181.31 211.19 183.45 211.20 185.60 C 209.11 185.61 207.03 185.62 204.94 185.64 C 204.91 183.48 204.83 181.33 204.77 179.17 Z" />
</g>
<g id="#917676ed">
<path fill="#917676" opacity="0.93" d=" M 211.11 172.77 C 213.27 172.78 215.42 172.78 217.58 172.79 C 217.59 174.94 217.60 177.08 217.60 179.23 C 215.46 179.21 213.32 179.19 211.19 179.17 C 211.16 177.03 211.14 174.90 211.11 172.77 Z" />
</g>
<g id="#403333c0">
<path fill="#403333" opacity="0.75" d=" M 38.39 179.29 C 40.53 179.25 42.66 179.21 44.80 179.18 C 44.80 181.32 44.80 183.46 44.81 185.60 C 42.67 185.60 40.53 185.61 38.39 185.63 C 38.38 183.51 38.38 181.40 38.39 179.29 Z" />
</g>
<g id="#aaa396ff">
<path fill="#aaa396" opacity="1.00" d=" M 128.29 179.21 C 130.32 179.20 132.34 179.20 134.36 179.20 C 134.36 181.21 134.37 183.23 134.37 185.25 C 130.20 185.48 126.03 185.73 121.86 185.93 C 121.86 187.94 121.87 189.96 121.87 191.97 L 120.78 191.97 C 120.90 189.79 121.03 187.63 121.16 185.46 C 123.33 185.30 125.51 185.14 127.69 184.98 C 127.89 183.05 128.09 181.13 128.29 179.21 Z" />
</g>
<g id="#dad7c8ff">
<path fill="#dad7c8" opacity="1.00" d=" M 134.36 179.20 C 136.56 179.20 138.76 179.19 140.96 179.19 C 140.85 181.29 140.73 183.40 140.62 185.50 C 136.46 185.69 132.31 185.88 128.16 186.06 C 128.06 188.04 127.97 190.02 127.87 192.01 C 125.87 192.00 123.87 191.99 121.87 191.97 C 121.87 189.96 121.86 187.94 121.86 185.93 C 126.03 185.73 130.20 185.48 134.37 185.25 C 134.37 183.23 134.36 181.21 134.36 179.20 Z" />
</g>
<g id="#fefeecff">
<path fill="#fefeec" opacity="1.00" d=" M 140.96 179.19 C 142.89 179.19 144.82 179.19 146.75 179.19 C 149.07 179.19 151.38 179.20 153.71 179.20 C 162.18 179.19 170.65 179.20 179.13 179.19 C 181.35 179.19 183.58 179.19 185.81 179.20 C 187.90 179.21 190.00 179.23 192.10 179.26 C 194.16 179.28 196.22 179.27 198.29 179.25 C 198.29 181.37 198.30 183.49 198.30 185.62 C 198.29 187.74 198.26 189.87 198.24 192.00 C 196.13 192.00 194.03 192.00 191.92 192.00 C 189.82 191.99 187.71 191.99 185.61 192.00 C 185.59 194.00 185.57 196.01 185.55 198.02 C 170.64 198.24 155.73 198.44 140.82 198.35 C 138.65 198.33 136.49 198.33 134.33 198.34 C 128.02 198.43 121.72 198.41 115.41 198.32 C 115.42 196.20 115.43 194.07 115.44 191.95 C 117.22 191.94 119.00 191.95 120.78 191.97 L 121.87 191.97 C 123.87 191.99 125.87 192.00 127.87 192.01 C 127.97 190.02 128.06 188.04 128.16 186.06 C 132.31 185.88 136.46 185.69 140.62 185.50 C 140.73 183.40 140.85 181.29 140.96 179.19 Z" />
</g>
<g id="#3d3131be">
<path fill="#3d3131" opacity="0.75" d=" M 211.19 179.17 C 213.32 179.19 215.46 179.21 217.60 179.23 C 217.60 181.35 217.60 183.48 217.61 185.61 C 215.47 185.60 213.33 185.60 211.20 185.60 C 211.19 183.45 211.19 181.31 211.19 179.17 Z" />
</g>
<g id="#18121258">
<path fill="#181212" opacity="0.35" d=" M 38.39 185.63 C 40.53 185.61 42.67 185.60 44.81 185.60 C 44.79 187.74 44.77 189.88 44.75 192.02 C 42.62 191.99 40.49 191.96 38.36 191.92 C 38.37 189.82 38.38 187.72 38.39 185.63 Z" />
</g>
<g id="#8b7070ec">
<path fill="#8b7070" opacity="0.93" d=" M 44.81 185.60 C 46.94 185.60 49.07 185.60 51.20 185.60 C 51.20 187.73 51.21 189.86 51.21 191.99 C 49.05 192.00 46.90 192.01 44.75 192.02 C 44.77 189.88 44.79 187.74 44.81 185.60 Z" />
</g>
<g id="#d4b0adff">
<path fill="#d4b0ad" opacity="1.00" d=" M 51.20 185.60 C 53.39 185.60 55.58 185.59 57.77 185.62 C 57.71 187.74 57.66 189.87 57.61 192.00 C 55.47 192.00 53.34 192.00 51.21 191.99 C 51.21 189.86 51.20 187.73 51.20 185.60 Z" />
</g>
<g id="#eeeeddff">
<path fill="#eeeedd" opacity="1.00" d=" M 198.30 185.62 C 200.30 185.63 202.29 185.65 204.29 185.67 C 204.34 187.78 204.38 189.89 204.43 192.00 C 202.36 192.00 200.30 192.00 198.24 192.00 C 198.26 189.87 198.29 187.74 198.30 185.62 Z" />
<path fill="#eeeedd" opacity="1.00" d=" M 134.33 198.34 C 136.49 198.33 138.65 198.33 140.82 198.35 C 140.81 200.50 140.81 202.65 140.82 204.81 C 138.67 204.79 136.51 204.79 134.36 204.79 C 134.36 202.64 134.34 200.49 134.33 198.34 Z" />
</g>
<g id="#615f58fe">
<path fill="#615f58" opacity="1.00" d=" M 204.94 185.64 C 207.03 185.62 209.11 185.61 211.20 185.60 C 211.20 187.76 211.20 189.92 211.20 192.09 C 209.09 192.05 207.00 192.04 204.90 192.01 C 204.94 189.88 204.96 187.76 204.94 185.64 Z" />
</g>
<g id="#2c23239d">
<path fill="#2c2323" opacity="0.62" d=" M 51.21 191.99 C 53.34 192.00 55.47 192.00 57.61 192.00 C 57.61 194.13 57.60 196.26 57.60 198.40 C 55.46 198.40 53.32 198.41 51.19 198.43 C 51.19 196.28 51.20 194.14 51.21 191.99 Z" />
</g>
<g id="#685353d8">
<path fill="#685353" opacity="0.85" d=" M 57.61 192.00 C 59.76 192.00 61.92 192.00 64.08 191.99 C 64.04 194.12 64.00 196.26 63.96 198.39 C 61.84 198.39 59.72 198.40 57.60 198.40 C 57.60 196.26 57.61 194.13 57.61 192.00 Z" />
</g>
<g id="#8f7373ff">
<path fill="#8f7373" opacity="1.00" d=" M 64.08 191.99 C 66.12 192.01 68.16 192.04 70.20 192.05 C 70.27 194.17 70.34 196.30 70.41 198.42 C 68.26 198.41 66.11 198.40 63.96 198.39 C 64.00 196.26 64.04 194.12 64.08 191.99 Z" />
</g>
<g id="#a58987ff">
<path fill="#a58987" opacity="1.00" d=" M 70.20 192.05 C 72.23 192.06 74.26 192.06 76.30 192.04 C 76.17 193.97 76.03 195.91 75.90 197.85 C 74.07 198.04 72.24 198.23 70.41 198.42 C 70.34 196.30 70.27 194.17 70.20 192.05 Z" />
</g>
<g id="#b39191f4">
<path fill="#b39191" opacity="0.96" d=" M 76.30 192.04 L 77.13 192.03 C 77.09 194.07 77.05 196.11 77.00 198.16 L 76.98 198.92 C 76.93 200.70 76.87 202.48 76.81 204.26 L 76.80 204.85 C 74.66 204.82 72.53 204.80 70.39 204.78 C 70.40 202.66 70.40 200.54 70.41 198.42 C 72.24 198.23 74.07 198.04 75.90 197.85 C 76.03 195.91 76.17 193.97 76.30 192.04 Z" />
</g>
<g id="#bfa49fff">
<path fill="#bfa49f" opacity="1.00" d=" M 77.13 192.03 C 79.18 192.01 81.23 191.98 83.29 191.99 C 83.23 193.99 83.18 195.98 83.13 197.99 C 81.08 198.04 79.04 198.10 77.00 198.16 C 77.05 196.11 77.09 194.07 77.13 192.03 Z" />
</g>
<g id="#9d8682ff">
<path fill="#9d8682" opacity="1.00" d=" M 83.29 191.99 C 85.46 192.00 87.63 192.06 89.81 192.12 C 89.80 194.12 89.79 196.12 89.77 198.13 C 89.74 200.22 89.70 202.30 89.67 204.40 C 91.83 204.31 94.00 204.21 96.16 204.09 C 98.22 203.97 100.28 203.84 102.34 203.80 C 102.49 204.06 102.78 204.58 102.93 204.85 C 96.34 205.02 89.75 204.89 83.16 204.87 C 81.04 204.87 78.92 204.86 76.80 204.85 L 76.81 204.26 C 78.89 204.21 80.96 204.15 83.03 204.10 C 83.04 202.44 83.06 200.78 83.07 199.13 C 81.04 199.06 79.01 198.99 76.98 198.92 L 77.00 198.16 C 79.04 198.10 81.08 198.04 83.13 197.99 C 83.18 195.98 83.23 193.99 83.29 191.99 Z" />
</g>
<g id="#a39b90ff">
<path fill="#a39b90" opacity="1.00" d=" M 108.99 192.09 C 110.98 192.03 112.98 191.98 114.97 191.95 C 114.94 194.13 114.91 196.30 114.88 198.48 C 112.84 198.56 110.81 198.65 108.78 198.74 L 108.79 198.22 C 108.83 196.18 108.91 194.13 108.99 192.09 Z" />
</g>
<g id="#bfbfb1ff">
<path fill="#bfbfb1" opacity="1.00" d=" M 114.97 191.95 L 115.44 191.95 C 115.43 194.07 115.42 196.20 115.41 198.32 C 121.72 198.41 128.02 198.43 134.33 198.34 C 134.34 200.49 134.36 202.64 134.36 204.79 C 127.96 204.80 121.56 204.85 115.16 204.86 C 113.04 204.85 110.93 204.83 108.82 204.82 C 108.79 202.79 108.77 200.76 108.78 198.74 C 110.81 198.65 112.84 198.56 114.88 198.48 C 114.91 196.30 114.94 194.13 114.97 191.95 Z" />
</g>
<g id="#bebeb1ff">
<path fill="#bebeb1" opacity="1.00" d=" M 185.61 192.00 C 187.71 191.99 189.82 191.99 191.92 192.00 C 191.94 194.11 191.95 196.22 191.97 198.34 C 189.85 198.44 187.73 198.55 185.61 198.62 C 183.52 198.67 181.44 198.67 179.36 198.66 C 177.14 198.64 174.94 198.62 172.73 198.62 C 168.46 198.61 164.20 198.62 159.94 198.65 C 159.94 200.69 159.94 202.74 159.94 204.78 C 153.57 204.79 147.19 204.86 140.82 204.81 C 140.81 202.65 140.81 200.50 140.82 198.35 C 155.73 198.44 170.64 198.24 185.55 198.02 C 185.57 196.01 185.59 194.00 185.61 192.00 Z" />
</g>
<g id="#6f6a63ff">
<path fill="#6f6a63" opacity="1.00" d=" M 191.92 192.00 C 194.03 192.00 196.13 192.00 198.24 192.00 C 198.28 194.13 198.34 196.27 198.39 198.41 C 196.25 198.38 194.11 198.36 191.97 198.34 C 191.95 196.22 191.94 194.11 191.92 192.00 Z" />
</g>
<g id="#70615fdd">
<path fill="#70615f" opacity="0.87" d=" M 198.24 192.00 C 200.30 192.00 202.36 192.00 204.43 192.00 L 204.90 192.01 C 204.83 194.13 204.80 196.26 204.79 198.39 C 202.65 198.39 200.52 198.40 198.39 198.41 C 198.34 196.27 198.28 194.13 198.24 192.00 Z" />
</g>
<g id="#625552ff">
<path fill="#625552" opacity="1.00" d=" M 102.42 198.49 C 104.54 198.40 106.67 198.31 108.79 198.22 L 108.78 198.74 C 108.77 200.76 108.79 202.79 108.82 204.82 C 106.85 204.81 104.89 204.82 102.93 204.85 C 102.78 204.58 102.49 204.06 102.34 203.80 C 102.30 202.03 102.37 200.25 102.42 198.49 Z" />
</g>
<g id="#918e84ff">
<path fill="#918e84" opacity="1.00" d=" M 159.94 198.65 C 164.20 198.62 168.46 198.61 172.73 198.62 C 172.84 200.51 172.95 202.40 173.07 204.29 C 175.11 204.28 177.14 204.26 179.18 204.25 C 179.24 202.39 179.30 200.52 179.36 198.66 C 181.44 198.67 183.52 198.67 185.61 198.62 C 185.64 200.61 185.67 202.61 185.70 204.61 C 187.80 204.61 189.90 204.60 192.00 204.59 L 192.00 204.83 C 189.87 204.84 187.74 204.84 185.61 204.85 C 183.43 204.86 181.25 204.88 179.07 204.89 C 172.70 204.89 166.32 204.76 159.94 204.78 C 159.94 202.74 159.94 200.69 159.94 198.65 Z" />
</g>
<g id="#7f7670ff">
<path fill="#7f7670" opacity="1.00" d=" M 172.73 198.62 C 174.94 198.62 177.14 198.64 179.36 198.66 C 179.30 200.52 179.24 202.39 179.18 204.25 C 177.14 204.26 175.11 204.28 173.07 204.29 C 172.95 202.40 172.84 200.51 172.73 198.62 Z" />
</g>
<g id="#0000003d">
<path fill="#000000" opacity="0.24" d=" M 64.13 204.86 C 66.22 204.83 68.30 204.80 70.39 204.78 C 70.40 206.91 70.40 209.05 70.40 211.18 C 70.40 213.29 70.40 215.40 70.41 217.52 L 69.71 217.55 C 67.83 217.64 65.95 217.68 64.07 217.73 C 64.01 213.44 64.12 209.15 64.13 204.86 Z" />
</g>
<g id="#f0c1c1f0">
<path fill="#f0c1c1" opacity="0.94" d=" M 179.07 204.89 C 181.25 204.88 183.43 204.86 185.61 204.85 C 185.60 206.97 185.60 209.08 185.61 211.20 C 183.47 211.20 181.33 211.20 179.19 211.20 C 179.15 209.09 179.11 206.99 179.07 204.89 Z" />
<path fill="#f0c1c1" opacity="0.94" d=" M 89.60 211.19 C 91.69 211.19 93.77 211.19 95.86 211.20 C 95.92 213.33 95.98 215.47 96.05 217.61 C 93.90 217.60 91.75 217.60 89.60 217.60 C 89.60 215.46 89.60 213.33 89.60 211.19 Z" />
<path fill="#f0c1c1" opacity="0.94" d=" M 108.81 217.64 C 110.85 217.71 112.88 217.83 114.91 217.95 C 115.02 219.97 115.13 221.98 115.24 224.00 C 113.09 224.00 110.94 224.00 108.80 224.00 C 108.80 221.88 108.80 219.76 108.81 217.64 Z" />
</g>
<g id="#43373791">
<path fill="#433737" opacity="0.57" d=" M 185.61 204.85 C 187.74 204.84 189.87 204.84 192.00 204.83 C 192.00 206.95 192.01 209.08 192.02 211.21 C 189.88 211.20 187.74 211.20 185.61 211.20 C 185.60 209.08 185.60 206.97 185.61 204.85 Z" />
</g>
<g id="#0101015f">
<path fill="#010101" opacity="0.37" d=" M 76.81 211.21 C 78.94 211.20 81.07 211.20 83.20 211.20 C 83.20 213.34 83.20 215.47 83.20 217.61 C 83.19 219.74 83.18 221.87 83.16 224.00 C 81.06 224.00 78.96 224.00 76.85 224.00 C 76.82 222.01 76.79 220.02 76.76 218.03 C 74.41 217.89 72.06 217.73 69.71 217.55 L 70.41 217.52 C 72.53 217.40 74.65 217.25 76.78 217.11 C 76.79 215.14 76.80 213.17 76.81 211.21 Z" />
</g>
<g id="#665353c4">
<path fill="#665353" opacity="0.77" d=" M 172.80 211.20 C 174.93 211.19 177.06 211.19 179.19 211.20 C 179.20 213.33 179.22 215.47 179.23 217.61 C 177.08 217.60 174.94 217.60 172.79 217.59 C 172.79 215.46 172.80 213.33 172.80 211.20 Z" />
</g>
<g id="#060505d3">
<path fill="#060505" opacity="0.83" d=" M 179.19 211.20 C 181.33 211.20 183.47 211.20 185.61 211.20 C 185.59 213.34 185.58 215.49 185.57 217.64 C 183.46 217.63 181.34 217.62 179.23 217.61 C 179.22 215.47 179.20 213.33 179.19 211.20 Z" />
</g>
<g id="#0b090969">
<path fill="#0b0909" opacity="0.41" d=" M 89.60 217.60 C 91.75 217.60 93.90 217.60 96.05 217.61 C 96.03 219.73 96.01 221.87 96.00 224.00 C 96.00 226.02 96.00 228.05 96.00 230.07 C 93.87 230.00 91.73 229.98 89.60 230.00 C 89.62 227.99 89.64 225.99 89.63 223.98 C 89.62 221.85 89.61 219.72 89.60 217.60 Z" />
</g>
<g id="#a08181a0">
<path fill="#a08181" opacity="0.63" d=" M 102.38 217.58 C 104.52 217.58 106.67 217.58 108.81 217.64 C 108.80 219.76 108.80 221.88 108.80 224.00 C 106.66 224.00 104.53 224.00 102.40 224.00 C 102.40 221.86 102.39 219.72 102.38 217.58 Z" />
</g>
<g id="#54454594">
<path fill="#544545" opacity="0.58" d=" M 160.00 217.60 C 162.12 217.59 164.24 217.59 166.37 217.60 C 166.39 219.75 166.41 221.90 166.43 224.05 C 164.29 224.02 162.14 224.01 160.00 223.99 C 160.00 221.86 160.00 219.73 160.00 217.60 Z" />
</g>
<g id="#0d0a0aba">
<path fill="#0d0a0a" opacity="0.73" d=" M 166.37 217.60 C 168.51 217.60 170.65 217.59 172.79 217.59 C 172.86 219.74 172.93 221.90 173.00 224.05 C 170.81 224.06 168.62 224.06 166.43 224.05 C 166.41 221.90 166.39 219.75 166.37 217.60 Z" />
</g>
<g id="#020202af">
<path fill="#020202" opacity="0.69" d=" M 108.80 224.00 C 110.94 224.00 113.09 224.00 115.24 224.00 C 115.20 226.06 115.16 228.13 115.12 230.19 C 113.05 230.18 110.99 230.19 108.93 230.20 C 108.89 228.13 108.84 226.06 108.80 224.00 Z" />
</g>
<g id="#16131365">
<path fill="#161313" opacity="0.40" d=" M 121.75 224.00 C 123.85 224.00 125.96 224.00 128.07 224.00 C 128.04 226.13 128.01 228.26 127.98 230.40 C 125.89 230.37 123.79 230.32 121.69 230.28 C 121.71 228.19 121.73 226.09 121.75 224.00 Z" />
</g>
<g id="#3128286f">
<path fill="#312828" opacity="0.44" d=" M 128.07 224.00 C 130.15 224.00 132.24 224.00 134.33 224.00 C 134.31 226.14 134.29 228.28 134.28 230.43 C 132.18 230.43 130.08 230.42 127.98 230.40 C 128.01 228.26 128.04 226.13 128.07 224.00 Z" />
</g>
<g id="#221c1c9f">
<path fill="#221c1c" opacity="0.62" d=" M 134.33 224.00 C 136.50 224.00 138.66 224.00 140.83 224.00 C 140.84 226.13 140.84 228.26 140.86 230.39 C 138.66 230.41 136.47 230.42 134.28 230.43 C 134.29 228.28 134.31 226.14 134.33 224.00 Z" />
</g>
<g id="#020202bf">
<path fill="#020202" opacity="0.75" d=" M 147.09 224.00 C 149.27 224.00 151.44 224.00 153.61 224.00 C 155.74 224.00 157.87 224.00 160.00 223.99 C 160.00 226.06 160.00 228.12 160.00 230.18 C 155.71 230.22 151.42 230.26 147.13 230.30 C 147.12 228.20 147.11 226.10 147.09 224.00 Z" />
</g>
</svg>
