<?xml version="1.0" encoding="UTF-8" ?>
<!DOCTYPE svg PUBLIC "-//W3C//DTD SVG 1.1//EN" "http://www.w3.org/Graphics/SVG/1.1/DTD/svg11.dtd">
<svg width="200pt" height="200pt" viewBox="0 0 200 200" version="1.1" xmlns="http://www.w3.org/2000/svg">
<g id="#2d527cff">
<path fill="#2d527c" opacity="1.00" d=" M 0.00 23.26 C 0.21 14.56 7.30 6.78 16.00 6.01 C 23.65 5.41 31.35 5.89 39.01 5.74 C 45.09 5.47 51.33 8.20 54.79 13.29 C 57.67 16.98 58.15 21.76 58.40 26.26 C 87.93 26.25 117.47 26.22 147.01 26.27 C 156.14 26.03 164.45 33.83 164.88 42.93 C 165.22 51.53 164.90 60.14 165.01 68.75 C 171.68 68.91 178.38 68.37 185.04 69.04 C 193.34 70.24 199.74 77.95 200.00 86.25 L 200.00 166.51 C 198.91 168.87 196.87 171.22 194.03 171.04 C 190.42 170.98 187.93 167.45 188.34 164.01 C 188.32 138.68 188.35 113.34 188.34 88.01 C 188.44 85.34 187.59 82.18 184.84 81.15 C 180.34 79.94 175.61 80.66 171.02 80.49 C 143.68 80.97 116.33 80.65 88.99 80.77 C 85.90 81.04 82.33 79.45 81.64 76.19 C 80.74 71.98 81.94 67.55 80.71 63.40 C 79.12 60.22 75.13 59.94 72.01 59.97 C 65.41 60.14 58.78 59.65 52.20 60.25 C 48.81 60.50 46.47 63.70 46.88 67.01 C 46.88 102.00 46.95 137.00 46.61 171.99 C 46.62 175.42 46.23 180.18 50.04 181.81 C 53.90 182.98 58.00 182.39 61.97 182.51 C 98.02 182.52 134.08 182.43 170.14 182.55 C 174.60 182.41 177.44 188.16 174.80 191.69 C 173.35 193.97 170.50 194.35 168.02 194.28 C 129.71 194.20 91.40 194.30 53.09 194.23 C 44.14 194.50 35.85 187.06 35.18 178.14 C 34.71 169.52 35.12 160.88 34.99 152.25 C 27.99 152.01 20.91 152.80 13.96 151.77 C 6.35 150.19 0.70 143.18 0.00 135.55 L 0.00 23.26 M 11.66 25.03 C 11.70 61.34 11.62 97.65 11.70 133.96 C 11.52 137.08 13.84 140.27 17.12 140.32 C 23.06 140.76 29.03 140.36 34.98 140.50 C 34.99 116.34 34.99 92.18 34.98 68.03 C 34.89 63.61 35.87 59.05 38.63 55.51 C 42.34 50.39 48.84 48.04 55.01 48.23 C 62.89 48.42 70.80 47.85 78.65 48.56 C 87.98 50.19 94.06 59.60 93.32 68.77 C 113.32 68.74 133.32 68.75 153.32 68.76 C 153.36 61.51 153.31 54.26 153.37 47.02 C 153.27 44.66 153.60 41.95 151.95 40.02 C 150.37 37.84 147.46 37.80 145.04 37.74 C 114.35 37.77 83.66 37.76 52.97 37.75 C 49.74 38.04 46.46 35.38 46.62 32.01 C 46.13 28.16 47.42 23.94 45.57 20.36 C 43.66 17.01 39.30 17.57 36.02 17.48 C 29.73 17.66 23.42 17.24 17.14 17.67 C 13.37 17.73 11.27 21.63 11.66 25.03 Z" />
</g>
<g id="#cee8faff">
<path fill="#cee8fa" opacity="1.00" d=" M 11.66 25.03 C 11.27 21.63 13.37 17.73 17.14 17.67 C 23.42 17.24 29.73 17.66 36.02 17.48 C 39.30 17.57 43.66 17.01 45.57 20.36 C 47.42 23.94 46.13 28.16 46.62 32.01 C 46.46 35.38 49.74 38.04 52.97 37.75 C 83.66 37.76 114.35 37.77 145.04 37.74 C 147.46 37.80 150.37 37.84 151.95 40.02 C 153.60 41.95 153.27 44.66 153.37 47.02 C 153.31 54.26 153.36 61.51 153.32 68.76 C 133.32 68.75 113.32 68.74 93.32 68.77 C 94.06 59.60 87.98 50.19 78.65 48.56 C 70.80 47.85 62.89 48.42 55.01 48.23 C 48.84 48.04 42.34 50.39 38.63 55.51 C 35.87 59.05 34.89 63.61 34.98 68.03 C 34.99 92.18 34.99 116.34 34.98 140.50 C 29.03 140.36 23.06 140.76 17.12 140.32 C 13.84 140.27 11.52 137.08 11.70 133.96 C 11.62 97.65 11.70 61.34 11.66 25.03 Z" />
</g>
</svg>
