<?xml version="1.0" encoding="UTF-8" ?>
<!DOCTYPE svg PUBLIC "-//W3C//DTD SVG 1.1//EN" "http://www.w3.org/Graphics/SVG/1.1/DTD/svg11.dtd">
<svg width="691pt" height="691pt" viewBox="0 0 691 691" version="1.1" xmlns="http://www.w3.org/2000/svg">
<g id="#ffffffff">
<path fill="#ffffff" opacity="1.00" d=" M 0.00 0.00 L 691.00 0.00 L 691.00 691.00 L 0.00 691.00 L 0.00 0.00 M 315.15 51.16 C 284.47 80.19 255.58 111.09 228.78 143.73 C 210.34 167.24 192.08 191.00 176.50 216.53 C 158.32 245.94 142.43 276.97 131.73 309.91 C 121.71 338.76 117.00 369.47 118.37 399.99 C 118.96 425.92 121.90 451.81 127.73 477.10 C 130.44 468.30 132.95 459.44 135.83 450.70 C 139.13 442.68 142.18 434.56 145.69 426.63 C 150.57 417.25 154.87 407.55 160.51 398.59 C 174.68 373.61 193.01 351.34 211.83 329.77 C 226.71 314.03 241.65 298.33 257.52 283.59 C 271.09 270.45 284.61 257.27 298.02 243.98 C 309.04 233.28 319.18 221.72 329.06 209.98 C 334.57 204.02 338.88 197.11 343.69 190.60 C 351.46 179.30 358.58 167.45 363.76 154.72 C 372.75 132.43 377.75 107.83 373.52 83.88 C 369.91 61.83 360.50 40.32 345.02 24.02 C 334.73 32.70 324.86 41.85 315.15 51.16 M 434.79 92.25 C 435.33 99.83 435.27 107.50 434.69 115.08 C 431.75 157.56 411.48 197.51 382.57 228.27 L 382.45 228.24 C 374.48 237.30 365.56 245.50 357.44 254.39 C 344.42 267.04 331.78 280.11 318.86 292.87 C 296.44 315.14 274.98 338.34 254.03 361.98 C 235.08 384.32 217.08 407.51 201.00 432.01 C 196.65 439.33 192.26 446.61 187.95 453.95 C 176.57 474.54 166.95 496.21 160.48 518.87 C 154.79 537.70 152.42 557.42 152.08 577.04 C 169.96 601.91 193.48 622.66 219.98 637.99 C 238.75 648.55 258.99 656.53 279.95 661.49 C 301.26 666.41 323.24 668.10 345.07 667.56 C 386.78 665.79 428.47 653.71 463.22 630.27 C 472.49 624.45 480.72 617.20 489.09 610.19 C 518.71 582.99 541.05 548.17 554.50 510.34 C 561.81 490.79 567.21 470.52 570.32 449.88 C 574.96 422.19 576.78 394.02 575.58 365.97 C 573.64 340.09 567.99 314.55 559.18 290.15 C 554.44 275.98 548.56 262.22 542.01 248.80 C 524.70 299.05 494.79 344.13 459.37 383.43 C 432.67 413.11 402.68 439.71 370.89 463.81 C 345.74 482.66 319.47 500.12 291.90 515.23 C 291.47 515.38 290.62 515.68 290.20 515.83 C 289.94 509.52 288.61 503.23 289.43 496.90 C 290.14 491.31 289.85 485.56 291.44 480.10 C 292.63 475.69 293.55 471.21 294.85 466.84 C 298.35 458.30 301.92 449.74 306.84 441.89 C 310.69 434.35 316.14 427.84 321.06 421.00 C 342.70 394.16 368.28 370.92 392.88 346.87 C 413.87 326.46 434.51 305.11 449.61 279.85 C 453.87 273.67 456.47 266.61 459.61 259.84 C 467.79 240.30 471.91 219.17 472.13 197.99 C 472.24 162.95 460.48 128.22 440.34 99.65 C 438.66 97.05 436.97 94.45 434.79 92.25 Z" />
</g>
<g id="#05b1f1ff">
<path fill="#05b1f1" opacity="1.00" d=" M 315.15 51.16 C 324.86 41.85 334.73 32.70 345.02 24.02 C 360.50 40.32 369.91 61.83 373.52 83.88 C 377.75 107.83 372.75 132.43 363.76 154.72 C 358.58 167.45 351.46 179.30 343.69 190.60 C 338.88 197.11 334.57 204.02 329.06 209.98 C 319.18 221.72 309.04 233.28 298.02 243.98 C 284.61 257.27 271.09 270.45 257.52 283.59 C 241.65 298.33 226.71 314.03 211.83 329.77 C 193.01 351.34 174.68 373.61 160.51 398.59 C 154.87 407.55 150.57 417.25 145.69 426.63 C 142.18 434.56 139.13 442.68 135.83 450.70 C 132.95 459.44 130.44 468.30 127.73 477.10 C 121.90 451.81 118.96 425.92 118.37 399.99 C 117.00 369.47 121.71 338.76 131.73 309.91 C 142.43 276.97 158.32 245.94 176.50 216.53 C 192.08 191.00 210.34 167.24 228.78 143.73 C 255.58 111.09 284.47 80.19 315.15 51.16 Z" />
<path fill="#05b1f1" opacity="1.00" d=" M 434.79 92.25 C 436.97 94.45 438.66 97.05 440.34 99.65 C 460.48 128.22 472.24 162.95 472.13 197.99 C 471.91 219.17 467.79 240.30 459.61 259.84 C 456.47 266.61 453.87 273.67 449.61 279.85 C 448.47 278.80 447.34 277.76 446.20 276.73 C 444.65 277.12 442.64 278.19 441.56 276.37 C 440.76 274.61 440.46 272.68 440.03 270.81 C 438.20 270.71 436.38 270.60 434.56 270.53 C 434.06 268.60 433.56 266.68 433.07 264.76 C 431.31 264.63 429.55 264.50 427.79 264.37 C 426.90 261.93 425.82 259.54 424.23 257.47 C 423.44 257.86 422.66 258.25 421.88 258.65 C 419.88 256.74 418.08 254.65 416.50 252.40 C 416.24 253.07 415.72 254.43 415.46 255.10 C 413.59 252.79 412.05 250.24 410.77 247.57 C 409.31 247.56 407.85 247.57 406.40 247.58 C 405.65 245.94 404.89 244.31 404.16 242.67 C 402.29 242.38 400.17 242.65 398.57 241.46 C 397.75 239.64 397.54 237.63 397.16 235.69 C 395.43 235.58 393.70 235.51 392.00 235.24 C 390.75 233.62 390.05 231.68 389.20 229.86 C 386.95 229.49 384.73 228.97 382.57 228.27 C 411.48 197.51 431.75 157.56 434.69 115.08 C 435.27 107.50 435.33 99.83 434.79 92.25 Z" />
<path fill="#05b1f1" opacity="1.00" d=" M 459.37 383.43 C 494.79 344.13 524.70 299.05 542.01 248.80 C 548.56 262.22 554.44 275.98 559.18 290.15 C 567.99 314.55 573.64 340.09 575.58 365.97 C 576.78 394.02 574.96 422.19 570.32 449.88 C 567.21 470.52 561.81 490.79 554.50 510.34 C 541.05 548.17 518.71 582.99 489.09 610.19 C 480.72 617.20 472.49 624.45 463.22 630.27 C 428.47 653.71 386.78 665.79 345.07 667.56 C 323.24 668.10 301.26 666.41 279.95 661.49 C 258.99 656.53 238.75 648.55 219.98 637.99 C 193.48 622.66 169.96 601.91 152.08 577.04 C 152.42 557.42 154.79 537.70 160.48 518.87 C 166.95 496.21 176.57 474.54 187.95 453.95 C 192.26 446.61 196.65 439.33 201.00 432.01 C 217.08 407.51 235.08 384.32 254.03 361.98 C 274.98 338.34 296.44 315.14 318.86 292.87 C 331.78 280.11 344.42 267.04 357.44 254.39 C 356.48 257.75 354.00 260.23 351.87 262.87 C 325.92 296.65 304.92 334.50 292.04 375.18 C 289.21 385.02 286.83 394.99 284.67 405.00 C 281.67 419.12 280.93 433.58 280.28 447.96 C 280.66 458.33 280.76 468.74 282.16 479.05 C 283.55 491.79 287.16 504.13 289.74 516.65 C 290.28 516.30 291.36 515.58 291.90 515.23 C 319.47 500.12 345.74 482.66 370.89 463.81 C 402.68 439.71 432.67 413.11 459.37 383.43 Z" />
</g>
<g id="#1689c3ff">
<path fill="#1689c3" opacity="1.00" d=" M 382.45 228.24 L 382.57 228.27 C 384.73 228.97 386.95 229.49 389.20 229.86 C 390.05 231.68 390.75 233.62 392.00 235.24 C 393.70 235.51 395.43 235.58 397.16 235.69 C 397.54 237.63 397.75 239.64 398.57 241.46 C 400.17 242.65 402.29 242.38 404.16 242.67 C 404.89 244.31 405.65 245.94 406.40 247.58 C 407.85 247.57 409.31 247.56 410.77 247.57 C 412.05 250.24 413.59 252.79 415.46 255.10 C 415.72 254.43 416.24 253.07 416.50 252.40 C 418.08 254.65 419.88 256.74 421.88 258.65 C 422.66 258.25 423.44 257.86 424.23 257.47 C 425.82 259.54 426.90 261.93 427.79 264.37 C 429.55 264.50 431.31 264.63 433.07 264.76 C 433.56 266.68 434.06 268.60 434.56 270.53 C 436.38 270.60 438.20 270.71 440.03 270.81 C 440.46 272.68 440.76 274.61 441.56 276.37 C 442.64 278.19 444.65 277.12 446.20 276.73 C 447.34 277.76 448.47 278.80 449.61 279.85 C 434.51 305.11 413.87 326.46 392.88 346.87 C 368.28 370.92 342.70 394.16 321.06 421.00 C 316.14 427.84 310.69 434.35 306.84 441.89 C 301.92 449.74 298.35 458.30 294.85 466.84 C 293.55 471.21 292.63 475.69 291.44 480.10 C 289.85 485.56 290.14 491.31 289.43 496.90 C 288.61 503.23 289.94 509.52 290.20 515.83 C 290.62 515.68 291.47 515.38 291.90 515.23 C 291.36 515.58 290.28 516.30 289.74 516.65 C 287.16 504.13 283.55 491.79 282.16 479.05 C 280.76 468.74 280.66 458.33 280.28 447.96 C 280.93 433.58 281.67 419.12 284.67 405.00 C 286.83 394.99 289.21 385.02 292.04 375.18 C 304.92 334.50 325.92 296.65 351.87 262.87 C 354.00 260.23 356.48 257.75 357.44 254.39 C 365.56 245.50 374.48 237.30 382.45 228.24 Z" />
</g>
</svg>
