<?xml version="1.0" encoding="UTF-8" ?>
<!DOCTYPE svg PUBLIC "-//W3C//DTD SVG 1.1//EN" "http://www.w3.org/Graphics/SVG/1.1/DTD/svg11.dtd">
<svg width="60pt" height="60pt" viewBox="0 0 60 60" version="1.1" xmlns="http://www.w3.org/2000/svg">
<g id="#ffffffff">
<path fill="#ffffff" opacity="1.00" d=" M 0.00 0.00 L 60.00 0.00 L 60.00 60.00 L 0.00 60.00 L 0.00 0.00 M 11.77 7.99 C 8.97 9.14 6.70 11.73 7.01 14.91 C 7.07 25.32 6.94 35.72 7.07 46.12 C 7.05 48.94 9.41 50.82 11.67 52.03 L 11.48 52.62 C 12.82 52.62 14.17 52.62 15.51 52.63 C 17.07 52.64 18.63 52.67 20.19 52.71 C 23.67 52.62 27.14 52.60 30.62 52.61 C 32.60 52.60 34.58 52.65 36.56 52.63 C 38.89 52.65 41.21 52.60 43.54 52.65 C 46.68 52.62 49.82 52.59 52.96 52.54 C 52.03 49.21 51.05 45.89 50.02 42.59 C 48.51 42.59 47.00 42.58 45.49 42.58 C 43.16 42.59 40.84 42.56 38.52 42.59 C 36.34 42.57 34.15 42.60 31.97 42.58 C 29.16 42.59 26.35 42.56 23.55 42.57 C 21.27 42.56 19.00 42.60 16.72 42.59 C 16.47 34.21 16.38 25.79 16.76 17.41 C 20.36 17.42 23.96 17.39 27.55 17.40 C 30.93 17.44 34.30 17.40 37.67 17.40 C 39.84 17.38 42.01 17.43 44.18 17.41 C 46.12 17.41 48.07 17.39 50.02 17.38 C 51.03 14.08 52.02 10.78 52.98 7.47 C 50.05 7.44 47.13 7.39 44.20 7.39 C 42.03 7.38 39.86 7.43 37.70 7.41 C 34.34 7.41 30.98 7.37 27.63 7.41 C 24.32 7.43 21.02 7.39 17.72 7.39 C 15.70 7.39 13.67 7.40 11.64 7.39 C 11.67 7.54 11.74 7.84 11.77 7.99 M 19.67 21.68 C 19.69 22.48 19.72 24.09 19.73 24.89 C 24.02 24.81 28.31 24.84 32.60 24.89 C 37.73 24.82 42.86 24.89 47.99 24.82 C 48.01 24.04 48.05 22.49 48.06 21.71 C 45.06 21.69 42.07 21.67 39.07 21.77 C 35.35 21.67 31.62 21.65 27.90 21.79 C 25.16 21.69 22.42 21.68 19.67 21.68 M 19.68 28.53 C 19.68 29.33 19.70 30.91 19.71 31.71 C 21.95 31.69 24.20 31.71 26.45 31.69 C 28.82 31.70 31.19 31.68 33.56 31.70 C 36.29 31.71 39.03 31.69 41.76 31.57 C 43.84 31.84 45.94 31.70 48.03 31.68 C 48.03 30.90 48.03 29.32 48.03 28.53 C 45.44 28.52 42.85 28.56 40.27 28.67 C 38.06 28.40 35.82 28.53 33.60 28.53 C 31.20 28.56 28.80 28.53 26.39 28.55 C 24.15 28.53 21.91 28.55 19.68 28.53 M 19.72 35.32 C 19.72 36.13 19.71 37.75 19.71 38.55 C 22.35 38.55 25.00 38.54 27.64 38.54 C 30.03 38.54 32.41 38.54 34.80 38.54 C 36.97 38.53 39.14 38.55 41.31 38.54 C 43.55 38.54 45.79 38.53 48.03 38.51 C 48.03 37.73 48.03 36.15 48.03 35.37 C 45.78 35.35 43.53 35.34 41.28 35.34 C 39.07 35.33 36.86 35.35 34.65 35.34 C 32.31 35.34 29.98 35.33 27.65 35.34 C 25.01 35.34 22.36 35.33 19.72 35.32 Z" />
</g>
<g id="#3f689eff">
<path fill="#3f689e" opacity="1.00" d=" M 11.77 7.99 C 11.74 7.84 11.67 7.54 11.64 7.39 C 13.67 7.40 15.70 7.39 17.72 7.39 C 17.51 10.74 17.21 14.08 16.76 17.41 C 16.38 25.79 16.47 34.21 16.72 42.59 C 17.25 46.00 17.01 49.48 15.51 52.63 C 14.17 52.62 12.82 52.62 11.48 52.62 L 11.67 52.03 C 14.16 45.61 12.45 38.69 12.72 32.03 C 12.43 24.02 13.76 15.85 11.77 7.99 Z" />
</g>
<g id="#527badff">
<path fill="#527bad" opacity="1.00" d=" M 17.72 7.39 C 21.02 7.39 24.32 7.43 27.63 7.41 C 27.59 10.74 27.57 14.07 27.55 17.40 C 23.96 17.39 20.36 17.42 16.76 17.41 C 17.21 14.08 17.51 10.74 17.72 7.39 Z" />
</g>
<g id="#6e98c5ff">
<path fill="#6e98c5" opacity="1.00" d=" M 27.63 7.41 C 30.98 7.37 34.34 7.41 37.70 7.41 C 37.68 10.74 37.67 14.07 37.67 17.40 C 34.30 17.40 30.93 17.44 27.55 17.40 C 27.57 14.07 27.59 10.74 27.63 7.41 Z" />
</g>
<g id="#80aad4ff">
<path fill="#80aad4" opacity="1.00" d=" M 37.70 7.41 C 39.86 7.43 42.03 7.38 44.20 7.39 C 44.20 10.73 44.19 14.07 44.18 17.41 C 42.01 17.43 39.84 17.38 37.67 17.40 C 37.67 14.07 37.68 10.74 37.70 7.41 Z" />
<path fill="#80aad4" opacity="1.00" d=" M 38.52 42.59 C 40.84 42.56 43.16 42.59 45.49 42.58 C 45.06 45.98 44.46 49.35 43.54 52.65 C 41.21 52.60 38.89 52.65 36.56 52.63 C 37.48 49.34 38.09 45.97 38.52 42.59 Z" />
</g>
<g id="#8cb7dfff">
<path fill="#8cb7df" opacity="1.00" d=" M 44.20 7.39 C 47.13 7.39 50.05 7.44 52.98 7.47 C 52.02 10.78 51.03 14.08 50.02 17.38 C 48.07 17.39 46.12 17.41 44.18 17.41 C 44.19 14.07 44.20 10.73 44.20 7.39 Z" />
</g>
<g id="#315992ff">
<path fill="#315992" opacity="1.00" d=" M 7.01 14.91 C 6.70 11.73 8.97 9.14 11.77 7.99 C 13.76 15.85 12.43 24.02 12.72 32.03 C 12.45 38.69 14.16 45.61 11.67 52.03 C 9.41 50.82 7.05 48.94 7.07 46.12 C 6.94 35.72 7.07 25.32 7.01 14.91 Z" />
</g>
<g id="#ea543aff">
<path fill="#ea543a" opacity="1.00" d=" M 19.67 21.68 C 22.42 21.68 25.16 21.69 27.90 21.79 C 29.55 22.97 31.28 24.05 33.14 24.88 L 32.60 24.89 C 28.31 24.84 24.02 24.81 19.73 24.89 C 19.72 24.09 19.69 22.48 19.67 21.68 Z" />
</g>
<g id="#ef772fff">
<path fill="#ef772f" opacity="1.00" d=" M 27.90 21.79 C 31.62 21.65 35.35 21.67 39.07 21.77 C 37.23 23.00 35.54 24.94 33.14 24.88 C 31.28 24.05 29.55 22.97 27.90 21.79 Z" />
</g>
<g id="#f39727ff">
<path fill="#f39727" opacity="1.00" d=" M 39.07 21.77 C 42.07 21.67 45.06 21.69 48.06 21.71 C 48.05 22.49 48.01 24.04 47.99 24.82 C 42.86 24.89 37.73 24.82 32.60 24.89 L 33.14 24.88 C 35.54 24.94 37.23 23.00 39.07 21.77 Z" />
</g>
<g id="#e0d136ff">
<path fill="#e0d136" opacity="1.00" d=" M 19.68 28.53 C 21.91 28.55 24.15 28.53 26.39 28.55 C 26.41 29.33 26.43 30.90 26.45 31.69 C 24.20 31.71 21.95 31.69 19.71 31.71 C 19.70 30.91 19.68 29.33 19.68 28.53 Z" />
</g>
<g id="#b7ca51ff">
<path fill="#b7ca51" opacity="1.00" d=" M 26.39 28.55 C 28.80 28.53 31.20 28.56 33.60 28.53 C 33.59 29.33 33.57 30.91 33.56 31.70 C 31.19 31.68 28.82 31.70 26.45 31.69 C 26.43 30.90 26.41 29.33 26.39 28.55 Z" />
</g>
<g id="#8cc26dff">
<path fill="#8cc26d" opacity="1.00" d=" M 33.60 28.53 C 35.82 28.53 38.06 28.40 40.27 28.67 C 40.64 29.39 41.38 30.84 41.76 31.57 C 39.03 31.69 36.29 31.71 33.56 31.70 C 33.57 30.91 33.59 29.33 33.60 28.53 Z" />
</g>
<g id="#67bc85ff">
<path fill="#67bc85" opacity="1.00" d=" M 40.27 28.67 C 42.85 28.56 45.44 28.52 48.03 28.53 C 48.03 29.32 48.03 30.90 48.03 31.68 C 45.94 31.70 43.84 31.84 41.76 31.57 C 41.38 30.84 40.64 29.39 40.27 28.67 Z" />
</g>
<g id="#30aadbff">
<path fill="#30aadb" opacity="1.00" d=" M 19.72 35.32 C 22.36 35.33 25.01 35.34 27.65 35.34 C 27.65 36.14 27.65 37.74 27.64 38.54 C 25.00 38.54 22.35 38.55 19.71 38.55 C 19.71 37.75 19.72 36.13 19.72 35.32 Z" />
</g>
<g id="#4e8fd9ff">
<path fill="#4e8fd9" opacity="1.00" d=" M 27.65 35.34 C 29.98 35.33 32.31 35.34 34.65 35.34 C 34.68 36.14 34.76 37.74 34.80 38.54 C 32.41 38.54 30.03 38.54 27.64 38.54 C 27.65 37.74 27.65 36.14 27.65 35.34 Z" />
</g>
<g id="#6876d7ff">
<path fill="#6876d7" opacity="1.00" d=" M 34.65 35.34 C 36.86 35.35 39.07 35.33 41.28 35.34 C 41.29 36.14 41.30 37.74 41.31 38.54 C 39.14 38.55 36.97 38.53 34.80 38.54 C 34.76 37.74 34.68 36.14 34.65 35.34 Z" />
</g>
<g id="#835ed5ff">
<path fill="#835ed5" opacity="1.00" d=" M 41.28 35.34 C 43.53 35.34 45.78 35.35 48.03 35.37 C 48.03 36.15 48.03 37.73 48.03 38.51 C 45.79 38.53 43.55 38.54 41.31 38.54 C 41.30 37.74 41.29 36.14 41.28 35.34 Z" />
</g>
<g id="#4a73a7ff">
<path fill="#4a73a7" opacity="1.00" d=" M 16.72 42.59 C 19.00 42.60 21.27 42.56 23.55 42.57 C 23.61 46.28 23.57 50.37 20.19 52.71 C 18.63 52.67 17.07 52.64 15.51 52.63 C 17.01 49.48 17.25 46.00 16.72 42.59 Z" />
</g>
<g id="#5f89b8ff">
<path fill="#5f89b8" opacity="1.00" d=" M 23.55 42.57 C 26.35 42.56 29.16 42.59 31.97 42.58 C 31.63 45.94 31.21 49.29 30.62 52.61 C 27.14 52.60 23.67 52.62 20.19 52.71 C 23.57 50.37 23.61 46.28 23.55 42.57 Z" />
</g>
<g id="#709ac7ff">
<path fill="#709ac7" opacity="1.00" d=" M 31.97 42.58 C 34.15 42.60 36.34 42.57 38.52 42.59 C 38.09 45.97 37.48 49.34 36.56 52.63 C 34.58 52.65 32.60 52.60 30.62 52.61 C 31.21 49.29 31.63 45.94 31.97 42.58 Z" />
</g>
<g id="#8eb9e0ff">
<path fill="#8eb9e0" opacity="1.00" d=" M 45.49 42.58 C 47.00 42.58 48.51 42.59 50.02 42.59 C 51.05 45.89 52.03 49.21 52.96 52.54 C 49.82 52.59 46.68 52.62 43.54 52.65 C 44.46 49.35 45.06 45.98 45.49 42.58 Z" />
</g>
</svg>
