<?xml version="1.0" encoding="UTF-8" ?>
<!DOCTYPE svg PUBLIC "-//W3C//DTD SVG 1.1//EN" "http://www.w3.org/Graphics/SVG/1.1/DTD/svg11.dtd">
<svg width="16pt" height="16pt" viewBox="0 0 16 16" version="1.1" xmlns="http://www.w3.org/2000/svg">
<g id="#0000ffff">
<path fill="#0000ff" opacity="1.00" d=" M 0.00 0.00 L 16.00 0.00 L 16.00 16.00 L 0.00 16.00 L 0.00 0.00 M 1.00 0.99 C 1.00 5.66 1.00 10.33 0.99 15.00 C 5.66 15.00 10.33 15.00 15.00 15.01 C 15.00 10.34 15.00 5.67 15.01 1.00 C 10.34 1.00 5.67 1.00 1.00 0.99 Z" />
<path fill="#0000ff" opacity="1.00" d=" M 4.03 2.80 C 6.61 2.98 9.20 3.18 11.79 3.39 C 11.72 6.62 11.65 9.85 11.47 13.07 C 9.60 13.06 5.86 13.02 3.99 13.01 C 4.00 10.46 4.02 5.35 4.03 2.80 M 6.00 4.00 C 6.00 4.75 6.00 6.25 6.00 7.00 C 7.33 7.00 8.67 7.00 10.00 7.00 C 10.00 6.25 10.00 4.75 10.00 4.00 C 8.67 4.00 7.33 4.00 6.00 4.00 M 6.00 8.00 C 6.00 9.33 6.00 10.67 6.00 12.00 C 7.33 12.00 8.67 12.00 10.00 12.00 C 10.00 10.67 10.00 9.33 10.00 8.00 C 8.67 8.00 7.33 8.00 6.00 8.00 Z" />
</g>
<g id="#fefefefe">
<path fill="#fefefe" opacity="1.00" d=" M 1.00 0.99 C 5.67 1.00 10.34 1.00 15.01 1.00 C 15.00 5.67 15.00 10.34 15.00 15.01 C 10.33 15.00 5.66 15.00 0.99 15.00 C 1.00 10.33 1.00 5.66 1.00 0.99 M 4.03 2.80 C 4.02 5.35 4.00 10.46 3.99 13.01 C 5.86 13.02 9.60 13.06 11.47 13.07 C 11.65 9.85 11.72 6.62 11.79 3.39 C 9.20 3.18 6.61 2.98 4.03 2.80 Z" />
</g>
<g id="#ffffffff">
<path fill="#ffffff" opacity="1.00" d=" M 6.00 4.00 C 7.33 4.00 8.67 4.00 10.00 4.00 C 10.00 4.75 10.00 6.25 10.00 7.00 C 8.67 7.00 7.33 7.00 6.00 7.00 C 6.00 6.25 6.00 4.75 6.00 4.00 Z" />
<path fill="#ffffff" opacity="1.00" d=" M 6.00 8.00 C 7.33 8.00 8.67 8.00 10.00 8.00 C 10.00 9.33 10.00 10.67 10.00 12.00 C 8.67 12.00 7.33 12.00 6.00 12.00 C 6.00 10.67 6.00 9.33 6.00 8.00 Z" />
</g>
</svg>
