<?xml version="1.0" encoding="UTF-8" ?>
<!DOCTYPE svg PUBLIC "-//W3C//DTD SVG 1.1//EN" "http://www.w3.org/Graphics/SVG/1.1/DTD/svg11.dtd">
<svg width="16pt" height="16pt" viewBox="0 0 16 16" version="1.1" xmlns="http://www.w3.org/2000/svg">
<g id="#aa0000ff">
<path fill="#aa0000" opacity="1.00" d=" M 0.00 0.00 L 16.00 0.00 L 16.00 16.00 L 0.00 16.00 L 0.00 12.23 C 1.83 12.71 4.71 14.10 5.74 11.69 C 6.19 8.80 5.95 5.83 6.59 2.95 C 5.53 2.97 4.47 2.97 3.41 2.95 C 4.18 6.10 3.99 9.36 3.92 12.58 C 2.45 11.31 1.29 9.76 0.00 8.32 L 0.00 0.00 M 7.94 5.01 C 8.71 7.14 11.24 8.01 13.00 9.23 C 13.00 9.93 13.00 11.32 13.00 12.02 C 12.37 12.00 11.11 11.96 10.48 11.94 C 10.04 10.61 9.11 9.86 7.71 9.71 C 7.28 14.60 16.55 14.22 14.94 9.31 C 13.35 7.36 10.07 6.81 9.74 4.00 C 10.43 4.01 11.82 4.04 12.51 4.05 C 12.96 5.38 13.89 6.13 15.29 6.30 C 15.62 2.21 8.90 1.55 7.94 5.01 Z" />
</g>
<g id="#ffffffff">
<path fill="#ffffff" opacity="1.00" d=" M 3.41 2.95 C 4.47 2.97 5.53 2.97 6.59 2.95 C 5.95 5.83 6.19 8.80 5.74 11.69 C 4.71 14.10 1.83 12.71 0.00 12.23 L 0.00 8.32 C 1.29 9.76 2.45 11.31 3.92 12.58 C 3.99 9.36 4.18 6.10 3.41 2.95 Z" />
<path fill="#ffffff" opacity="1.00" d=" M 7.94 5.01 C 8.90 1.55 15.62 2.21 15.29 6.30 C 13.89 6.13 12.96 5.38 12.51 4.05 C 11.82 4.04 10.43 4.01 9.74 4.00 C 10.07 6.81 13.35 7.36 14.94 9.31 C 16.55 14.22 7.28 14.60 7.71 9.71 C 9.11 9.86 10.04 10.61 10.48 11.94 C 11.11 11.96 12.37 12.00 13.00 12.02 C 13.00 11.32 13.00 9.93 13.00 9.23 C 11.24 8.01 8.71 7.14 7.94 5.01 Z" />
</g>
</svg>
