<?xml version="1.0" encoding="UTF-8" ?>
<!DOCTYPE svg PUBLIC "-//W3C//DTD SVG 1.1//EN" "http://www.w3.org/Graphics/SVG/1.1/DTD/svg11.dtd">
<svg width="96pt" height="96pt" viewBox="0 0 96 96" version="1.1" xmlns="http://www.w3.org/2000/svg">
<g id="#e3120bff">
<path fill="#e3120b" opacity="1.00" d=" M 0.00 0.00 L 96.00 0.00 L 96.00 96.00 L 0.00 96.00 L 0.00 0.00 M 26.29 17.72 C 26.61 20.73 30.13 19.85 32.09 20.96 C 34.44 22.40 34.41 25.49 34.53 27.92 C 34.55 40.97 34.52 54.01 34.55 67.06 C 34.42 69.40 34.60 72.10 32.97 74.00 C 31.19 76.23 26.78 74.50 26.28 77.96 C 40.03 77.81 53.77 78.16 67.52 77.99 C 68.15 73.29 68.78 68.60 69.43 63.92 C 68.64 63.88 67.04 63.80 66.24 63.76 C 65.49 66.97 65.03 71.02 61.63 72.58 C 57.40 74.35 52.56 74.21 48.09 73.62 C 45.86 73.31 45.67 70.75 45.59 68.97 C 45.40 62.22 45.60 55.46 45.52 48.71 C 49.88 48.87 54.42 48.12 58.63 49.53 C 61.19 50.61 60.88 53.78 61.57 56.00 C 62.19 56.01 63.43 56.01 64.05 56.02 C 63.96 49.73 63.93 43.44 64.21 37.16 C 63.55 37.15 62.24 37.14 61.58 37.13 C 61.02 39.63 61.31 43.24 58.33 44.26 C 54.21 45.47 49.83 44.72 45.60 44.66 C 45.61 37.03 45.61 29.41 45.60 21.78 C 50.11 21.94 54.80 21.38 59.13 22.92 C 62.02 24.16 61.89 27.66 62.55 30.25 C 63.35 30.19 64.95 30.06 65.75 30.00 C 65.64 25.89 65.51 21.78 65.42 17.67 C 52.37 17.56 39.33 18.02 26.29 17.72 Z" />
</g>
<g id="#ffffffff">
<path fill="#ffffff" opacity="1.00" d=" M 26.29 17.72 C 39.33 18.02 52.37 17.56 65.42 17.67 C 65.51 21.78 65.64 25.89 65.75 30.00 C 64.95 30.06 63.35 30.19 62.55 30.25 C 61.89 27.66 62.02 24.16 59.13 22.92 C 54.80 21.38 50.11 21.94 45.60 21.78 C 45.61 29.41 45.61 37.03 45.60 44.66 C 49.83 44.72 54.21 45.47 58.33 44.26 C 61.31 43.24 61.02 39.63 61.58 37.13 C 62.24 37.14 63.55 37.15 64.21 37.16 C 63.93 43.44 63.96 49.73 64.05 56.02 C 63.43 56.01 62.19 56.01 61.57 56.00 C 60.88 53.78 61.19 50.61 58.63 49.53 C 54.42 48.12 49.88 48.87 45.52 48.71 C 45.60 55.46 45.40 62.22 45.59 68.97 C 45.67 70.75 45.86 73.31 48.09 73.62 C 52.56 74.21 57.40 74.35 61.63 72.58 C 65.03 71.02 65.49 66.97 66.24 63.76 C 67.04 63.80 68.64 63.88 69.43 63.92 C 68.78 68.60 68.15 73.29 67.52 77.99 C 53.77 78.16 40.03 77.81 26.28 77.96 C 26.78 74.50 31.19 76.23 32.97 74.00 C 34.60 72.10 34.42 69.40 34.55 67.06 C 34.52 54.01 34.55 40.97 34.53 27.92 C 34.41 25.49 34.44 22.40 32.09 20.96 C 30.13 19.85 26.61 20.73 26.29 17.72 Z" />
</g>
</svg>
