<?xml version="1.0" encoding="UTF-8" ?>
<!DOCTYPE svg PUBLIC "-//W3C//DTD SVG 1.1//EN" "http://www.w3.org/Graphics/SVG/1.1/DTD/svg11.dtd">
<svg width="48pt" height="48pt" viewBox="0 0 48 48" version="1.1" xmlns="http://www.w3.org/2000/svg">
<g id="#000000ff">
<path fill="#000000" opacity="1.00" d=" M 6.67 0.00 L 41.08 0.00 C 44.58 0.68 47.20 3.38 48.00 6.81 L 48.00 40.82 C 47.40 44.46 44.60 47.17 41.06 48.00 L 7.52 48.00 C 3.81 47.58 0.91 44.88 0.00 41.32 L 0.00 6.89 C 0.67 3.44 3.29 0.83 6.67 0.00 M 7.19 4.97 C 3.46 6.76 4.80 11.52 4.56 14.83 C 17.51 14.84 30.45 14.84 43.40 14.83 C 43.26 11.37 44.50 5.78 39.94 4.75 C 32.65 4.29 25.32 4.70 18.01 4.57 C 14.42 4.70 10.73 4.16 7.19 4.97 M 4.57 19.40 C 4.64 25.94 4.43 32.49 4.65 39.02 C 4.56 41.34 6.68 43.38 8.99 43.29 C 18.68 43.45 28.38 43.34 38.07 43.34 C 40.65 43.66 43.44 41.77 43.32 39.00 C 43.54 32.48 43.31 25.94 43.40 19.42 C 30.46 19.37 17.51 19.40 4.57 19.40 Z" />
<path fill="#000000" opacity="1.00" d=" M 8.03 8.01 C 8.87 8.01 10.55 8.00 11.39 7.99 C 11.39 8.84 11.40 10.55 11.41 11.40 C 10.55 11.39 8.85 11.39 8.00 11.38 C 8.00 10.54 8.02 8.85 8.03 8.01 Z" />
<path fill="#000000" opacity="1.00" d=" M 14.87 8.00 C 15.71 8.00 17.40 8.00 18.24 7.99 C 18.24 8.84 18.25 10.55 18.25 11.40 C 17.41 11.40 15.71 11.40 14.86 11.39 C 14.86 10.55 14.87 8.85 14.87 8.00 Z" />
<path fill="#000000" opacity="1.00" d=" M 21.72 7.99 C 22.57 8.00 24.26 8.01 25.10 8.01 C 25.10 8.86 25.10 10.55 25.10 11.39 C 24.26 11.39 22.57 11.40 21.72 11.40 C 21.72 10.55 21.72 8.84 21.72 7.99 Z" />
<path fill="#000000" opacity="1.00" d=" M 10.82 24.96 C 11.82 24.12 12.83 23.29 13.83 22.45 C 16.32 25.38 18.80 28.31 21.24 31.28 C 18.64 34.19 16.01 37.07 13.33 39.90 C 12.38 39.02 11.44 38.13 10.50 37.25 C 12.34 35.22 14.17 33.19 16.00 31.15 C 14.27 29.09 12.54 27.02 10.82 24.96 Z" />
<path fill="#000000" opacity="1.00" d=" M 24.01 35.39 C 28.56 35.36 33.11 35.36 37.66 35.40 C 37.67 36.90 37.68 38.40 37.68 39.90 C 33.12 39.96 28.56 39.95 24.00 39.91 C 24.00 38.41 24.00 36.90 24.01 35.39 Z" />
</g>
</svg>
