<?xml version="1.0" encoding="UTF-8" ?>
<!DOCTYPE svg PUBLIC "-//W3C//DTD SVG 1.1//EN" "http://www.w3.org/Graphics/SVG/1.1/DTD/svg11.dtd">
<svg width="256pt" height="256pt" viewBox="0 0 256 256" version="1.1" xmlns="http://www.w3.org/2000/svg">
<g id="#02262bff">
<path fill="#02262b" opacity="1.00" d=" M 0.00 169.71 C 8.06 131.83 15.76 93.88 23.79 56.00 C 72.04 56.00 120.29 55.99 168.54 56.01 C 167.01 64.02 165.25 71.99 163.65 79.99 C 194.43 80.03 225.22 79.96 256.00 80.02 L 256.00 80.29 C 247.37 120.12 238.93 159.98 230.46 199.84 C 191.78 199.93 153.11 199.84 114.43 199.88 C 116.57 189.91 118.92 179.98 121.07 170.02 C 80.71 169.96 40.36 170.04 0.00 169.98 L 0.00 169.71 M 140.14 72.02 C 137.72 83.48 135.33 94.94 132.70 106.35 C 130.86 103.26 129.39 99.73 126.27 97.67 C 118.20 91.80 106.73 93.24 98.87 98.77 C 88.93 105.71 84.13 118.17 83.92 129.98 C 83.61 137.37 86.09 145.22 91.90 150.06 C 97.47 155.04 105.73 156.12 112.71 153.86 C 117.64 152.51 121.24 148.79 124.88 145.45 C 124.39 148.27 123.75 151.05 123.17 153.85 C 126.20 153.88 129.23 153.88 132.26 153.87 C 138.10 126.58 143.89 99.28 149.79 72.00 C 146.57 72.00 143.35 71.99 140.14 72.02 M 34.89 102.98 C 27.40 110.87 24.87 122.34 25.51 132.94 C 25.80 140.45 29.87 147.79 36.41 151.60 C 44.06 156.07 53.71 155.80 61.81 152.71 C 67.99 150.42 72.97 145.25 74.88 138.92 C 71.53 138.86 68.18 138.86 64.83 138.89 C 60.66 146.50 49.99 148.24 42.64 144.58 C 36.37 141.09 34.53 133.26 35.26 126.59 C 49.47 126.66 63.68 126.61 77.89 126.62 C 78.50 120.70 79.16 114.52 77.19 108.77 C 74.97 102.07 69.37 96.54 62.49 94.75 C 52.74 92.20 41.61 95.40 34.89 102.98 M 155.90 95.00 C 161.94 108.73 167.99 122.45 173.95 136.21 C 174.78 137.57 173.19 138.56 172.53 139.55 C 159.85 154.68 147.14 169.78 134.53 184.98 C 141.59 184.99 148.65 185.07 155.71 184.94 C 163.75 174.92 172.19 165.23 180.36 155.31 C 181.04 153.97 183.17 153.83 183.48 155.52 C 187.77 165.31 192.47 174.93 196.51 184.82 C 203.65 185.23 210.81 184.89 217.96 185.00 C 211.18 169.75 204.28 154.56 197.48 139.32 C 210.21 124.58 222.94 109.84 235.58 95.03 C 228.49 94.96 221.41 95.02 214.33 95.00 C 207.60 103.32 200.92 111.68 194.25 120.05 C 192.92 121.59 191.92 123.59 189.93 124.37 C 185.91 114.57 181.59 104.89 177.62 95.07 C 170.38 94.92 163.14 95.04 155.90 95.00 Z" />
<path fill="#02262b" opacity="1.00" d=" M 44.26 106.20 C 49.84 101.24 59.44 100.52 64.92 106.02 C 68.26 109.43 68.86 114.44 68.66 118.99 C 57.94 119.01 47.22 119.00 36.50 118.99 C 37.96 114.16 40.24 109.41 44.26 106.20 Z" />
<path fill="#02262b" opacity="1.00" d=" M 108.43 103.57 C 113.24 101.80 118.96 101.82 123.39 104.60 C 127.44 107.29 129.61 112.15 129.84 116.90 C 130.22 124.09 128.50 131.49 124.39 137.45 C 120.97 142.58 115.19 146.36 108.92 146.50 C 103.89 146.78 98.75 144.16 96.34 139.68 C 92.97 133.99 93.36 126.98 94.80 120.76 C 96.56 113.46 101.20 106.37 108.43 103.57 Z" />
</g>
<g id="#ffffffff">
<path fill="#ffffff" opacity="1.00" d=" M 140.14 72.02 C 143.35 71.99 146.57 72.00 149.79 72.00 C 143.89 99.28 138.10 126.58 132.26 153.87 C 129.23 153.88 126.20 153.88 123.17 153.85 C 123.75 151.05 124.39 148.27 124.88 145.45 C 121.24 148.79 117.64 152.51 112.71 153.86 C 105.73 156.12 97.47 155.04 91.90 150.06 C 86.09 145.22 83.61 137.37 83.92 129.98 C 84.13 118.17 88.93 105.71 98.87 98.77 C 106.73 93.24 118.20 91.80 126.27 97.67 C 129.39 99.73 130.86 103.26 132.70 106.35 C 135.33 94.94 137.72 83.48 140.14 72.02 M 108.43 103.57 C 101.20 106.37 96.56 113.46 94.80 120.76 C 93.36 126.98 92.97 133.99 96.34 139.68 C 98.75 144.16 103.89 146.78 108.92 146.50 C 115.19 146.36 120.97 142.58 124.39 137.45 C 128.50 131.49 130.22 124.09 129.84 116.90 C 129.61 112.15 127.44 107.29 123.39 104.60 C 118.96 101.82 113.24 101.80 108.43 103.57 Z" />
<path fill="#ffffff" opacity="1.00" d=" M 34.89 102.98 C 41.61 95.40 52.74 92.20 62.49 94.75 C 69.37 96.54 74.97 102.07 77.19 108.77 C 79.16 114.52 78.50 120.70 77.89 126.62 C 63.68 126.61 49.47 126.66 35.26 126.59 C 34.53 133.26 36.37 141.09 42.64 144.58 C 49.99 148.24 60.66 146.50 64.83 138.89 C 68.18 138.86 71.53 138.86 74.88 138.92 C 72.97 145.25 67.99 150.42 61.81 152.71 C 53.71 155.80 44.06 156.07 36.41 151.60 C 29.87 147.79 25.80 140.45 25.51 132.94 C 24.87 122.34 27.40 110.87 34.89 102.98 M 44.26 106.20 C 40.24 109.41 37.96 114.16 36.50 118.99 C 47.22 119.00 57.94 119.01 68.66 118.99 C 68.86 114.44 68.26 109.43 64.92 106.02 C 59.44 100.52 49.84 101.24 44.26 106.20 Z" />
<path fill="#ffffff" opacity="1.00" d=" M 155.90 95.00 C 163.14 95.04 170.38 94.92 177.62 95.07 C 181.59 104.89 185.91 114.57 189.93 124.37 C 191.92 123.59 192.92 121.59 194.25 120.05 C 200.92 111.68 207.60 103.32 214.33 95.00 C 221.41 95.02 228.49 94.96 235.58 95.03 C 222.94 109.84 210.21 124.58 197.48 139.32 C 204.28 154.56 211.18 169.75 217.96 185.00 C 210.81 184.89 203.65 185.23 196.51 184.82 C 192.47 174.93 187.77 165.31 183.48 155.52 C 183.17 153.83 181.04 153.97 180.36 155.31 C 172.19 165.23 163.75 174.92 155.71 184.94 C 148.65 185.07 141.59 184.99 134.53 184.98 C 147.14 169.78 159.85 154.68 172.53 139.55 C 173.19 138.56 174.78 137.57 173.95 136.21 C 167.99 122.45 161.94 108.73 155.90 95.00 Z" />
</g>
</svg>
