<?xml version="1.0" encoding="UTF-8" ?>
<!DOCTYPE svg PUBLIC "-//W3C//DTD SVG 1.1//EN" "http://www.w3.org/Graphics/SVG/1.1/DTD/svg11.dtd">
<svg width="64pt" height="64pt" viewBox="0 0 64 64" version="1.1" xmlns="http://www.w3.org/2000/svg">
<g id="#b0a39ffa">
<path fill="#b0a39f" opacity="0.98" d=" M 13.45 8.53 C 22.78 1.02 36.66 -0.02 47.06 5.87 C 59.50 12.46 66.08 28.20 61.80 41.65 C 57.83 56.25 41.96 66.34 27.06 63.41 C 15.09 61.41 4.94 51.77 2.26 39.95 C 2.68 39.76 3.52 39.40 3.94 39.21 C 6.69 46.39 10.68 53.57 17.63 57.42 C 29.81 65.07 47.34 61.43 55.42 49.52 C 60.22 42.82 61.99 33.97 59.86 25.99 C 57.37 15.61 48.53 7.03 38.02 5.00 C 29.40 3.13 20.03 5.68 13.43 11.51 C 8.68 15.48 6.18 21.30 3.86 26.88 C 2.97 26.18 2.10 25.45 1.25 24.70 L 2.31 25.30 C 4.23 18.75 7.98 12.70 13.45 8.53 Z" />
<path fill="#b0a39f" opacity="0.98" d=" M 19.15 9.71 C 20.44 8.77 21.72 7.83 23.01 6.88 C 24.70 9.17 26.61 11.38 27.50 14.13 C 26.14 13.83 24.78 13.50 23.43 13.13 C 24.09 13.50 25.42 14.23 26.08 14.59 C 24.64 15.30 23.20 16.01 21.77 16.73 C 20.06 14.73 18.43 12.62 17.75 10.01 C 19.28 11.41 20.76 12.85 22.29 14.24 C 21.53 12.55 20.61 10.91 19.15 9.71 Z" />
<path fill="#b0a39f" opacity="0.98" d=" M 27.29 7.05 C 29.73 6.53 32.20 6.93 34.60 7.48 C 34.71 9.48 34.86 11.47 35.01 13.46 C 34.20 12.71 33.40 11.96 32.60 11.20 C 32.61 12.47 32.17 13.32 31.28 13.75 C 31.11 13.32 30.77 12.46 30.60 12.03 C 30.08 12.89 29.58 13.76 29.09 14.64 L 28.30 14.38 C 28.16 13.22 28.02 12.07 27.86 10.92 C 27.67 9.63 27.48 8.34 27.29 7.05 M 29.24 10.57 C 30.43 11.40 32.83 9.78 31.93 8.38 C 30.69 7.34 28.44 9.18 29.24 10.57 Z" />
<path fill="#b0a39f" opacity="0.98" d=" M 36.06 8.27 C 37.60 8.01 39.14 7.77 40.68 7.53 C 41.91 8.10 43.14 8.66 44.37 9.22 C 43.78 9.64 42.59 10.48 42.00 10.90 C 42.85 12.18 43.75 13.45 44.98 14.40 C 45.83 13.09 46.67 11.77 47.52 10.46 C 47.95 11.91 48.38 13.36 48.81 14.81 C 49.35 14.25 50.44 13.14 50.99 12.59 C 51.14 13.94 51.30 15.30 51.46 16.65 C 50.86 16.89 49.67 17.36 49.08 17.60 C 48.96 18.88 49.32 20.15 49.48 21.41 C 47.54 20.20 45.58 19.00 43.62 17.81 C 43.73 17.03 43.96 15.45 44.07 14.67 C 41.96 14.97 39.85 15.26 37.73 15.53 C 37.73 15.00 37.72 13.95 37.72 13.42 C 37.08 13.66 35.81 14.13 35.18 14.37 C 36.01 12.28 37.13 10.28 39.31 9.37 C 38.22 9.01 37.14 8.64 36.06 8.27 M 41.23 12.26 C 41.75 12.79 41.75 12.79 41.23 12.26 M 47.43 15.33 C 46.29 15.24 44.64 16.54 45.43 17.75 C 46.84 19.16 49.63 16.05 47.43 15.33 Z" />
<path fill="#b0a39f" opacity="0.98" d=" M 8.73 28.51 C 7.76 27.64 7.64 26.28 7.21 25.13 C 8.05 25.71 8.88 26.29 9.71 26.87 C 10.52 26.63 12.12 26.15 12.93 25.92 C 11.84 27.28 10.75 28.93 8.73 28.51 Z" />
<path fill="#b0a39f" opacity="0.98" d=" M 43.31 25.89 C 44.15 26.18 45.00 26.47 45.85 26.76 C 45.83 31.73 45.89 36.69 45.71 41.65 C 37.47 41.67 29.22 42.12 20.98 41.58 C 19.97 41.41 18.99 41.13 18.04 40.75 C 18.74 40.66 20.13 40.47 20.83 40.37 C 21.83 40.26 22.82 40.17 23.82 40.08 C 29.27 40.69 34.78 40.65 40.24 40.09 C 41.21 40.19 42.17 40.29 43.15 40.39 C 43.26 35.56 43.27 30.72 43.31 25.89 Z" />
<path fill="#b0a39f" opacity="0.98" d=" M 52.02 25.80 C 52.94 26.16 53.85 26.53 54.77 26.90 C 55.42 26.49 56.71 25.66 57.36 25.25 C 57.07 26.07 56.48 27.73 56.19 28.56 C 55.38 28.46 53.77 28.25 52.96 28.15 C 52.73 27.56 52.26 26.39 52.02 25.80 Z" />
<path fill="#b0a39f" opacity="0.98" d=" M 2.06 25.80 C 3.13 27.42 3.35 29.36 3.65 31.23 C 3.66 32.40 3.66 33.56 3.64 34.73 C 3.59 35.37 3.51 36.64 3.46 37.28 C 3.02 38.21 2.55 39.13 2.03 40.02 C 1.41 35.30 1.37 30.52 2.06 25.80 Z" />
<path fill="#b0a39f" opacity="0.98" d=" M 7.12 29.62 C 8.16 28.96 10.05 30.49 9.04 31.53 C 7.99 32.21 6.12 30.67 7.12 29.62 Z" />
<path fill="#b0a39f" opacity="0.98" d=" M 53.14 28.56 C 53.89 29.25 54.64 29.94 55.38 30.64 C 56.24 30.02 57.09 29.41 57.95 28.81 C 57.83 29.46 57.60 30.76 57.48 31.41 C 56.87 31.49 55.67 31.65 55.06 31.73 C 55.16 32.64 55.34 34.46 55.43 35.37 C 53.24 33.72 53.40 30.97 53.14 28.56 Z" />
<path fill="#b0a39f" opacity="0.98" d=" M 10.14 30.25 C 10.70 30.74 10.70 30.74 10.14 30.25 Z" />
<path fill="#b0a39f" opacity="0.98" d=" M 7.06 33.69 C 7.60 32.39 9.62 32.14 10.80 32.62 C 11.37 34.34 7.66 35.39 7.06 33.69 Z" />
<path fill="#b0a39f" opacity="0.98" d=" M 56.22 32.86 C 57.63 32.37 58.08 32.84 57.57 34.26 C 56.17 34.75 55.72 34.29 56.22 32.86 Z" />
<path fill="#b0a39f" opacity="0.98" d=" M 10.08 35.35 C 13.43 35.46 8.53 38.33 10.08 35.35 Z" />
<path fill="#b0a39f" opacity="0.98" d=" M 53.12 34.43 C 53.68 34.94 54.79 35.96 55.34 36.48 C 56.08 36.22 57.56 35.70 58.30 35.44 C 57.95 36.04 57.24 37.24 56.89 37.84 C 55.75 37.71 54.62 37.58 53.49 37.45 C 53.40 36.69 53.21 35.18 53.12 34.43 Z" />
<path fill="#b0a39f" opacity="0.98" d=" M 7.38 36.13 C 8.77 35.68 9.29 36.15 8.97 37.55 C 7.58 38.01 7.05 37.54 7.38 36.13 Z" />
<path fill="#b0a39f" opacity="0.98" d=" M 10.98 36.86 C 11.75 38.59 12.50 40.32 13.25 42.05 C 12.21 42.78 11.16 43.52 10.12 44.25 C 9.37 43.51 8.62 42.76 7.88 42.02 C 8.73 42.11 10.43 42.30 11.29 42.39 L 11.91 40.50 C 9.85 40.97 7.57 40.85 7.00 38.46 C 7.83 38.79 9.47 39.45 10.29 39.77 C 10.47 39.05 10.81 37.59 10.98 36.86 Z" />
<path fill="#b0a39f" opacity="0.98" d=" M 52.81 38.56 C 54.12 38.12 56.16 38.59 56.77 39.92 C 56.08 41.78 52.02 40.43 52.81 38.56 Z" />
<path fill="#b0a39f" opacity="0.98" d=" M 51.98 41.42 C 53.23 40.93 55.35 41.44 55.75 42.86 C 55.06 44.76 51.14 43.24 51.98 41.42 Z" />
<path fill="#b0a39f" opacity="0.98" d=" M 14.02 43.31 C 14.14 43.38 14.39 43.51 14.51 43.57 C 14.05 45.06 13.57 46.55 13.34 48.10 C 14.19 47.30 15.90 45.71 16.75 44.91 C 16.36 46.96 15.03 48.40 13.31 49.42 C 12.15 47.98 10.98 46.55 9.78 45.15 C 11.30 44.79 12.76 44.25 14.02 43.31 Z" />
<path fill="#b0a39f" opacity="0.98" d=" M 49.46 42.94 C 51.16 43.90 52.96 44.65 54.83 45.22 C 53.43 46.66 52.05 48.13 50.67 49.60 C 49.22 48.31 48.20 46.67 47.85 44.74 C 48.81 45.68 49.75 46.64 50.68 47.60 C 50.90 47.31 51.34 46.72 51.57 46.43 C 50.87 45.26 50.17 44.10 49.46 42.94 Z" />
<path fill="#b0a39f" opacity="0.98" d=" M 30.19 55.42 C 31.78 55.47 31.73 58.19 30.16 58.23 C 28.58 58.17 28.62 55.46 30.19 55.42 Z" />
</g>
<g id="#ffffffff">
<path fill="#ffffff" opacity="1.00" d=" M 13.43 11.51 C 20.03 5.68 29.40 3.13 38.02 5.00 C 48.53 7.03 57.37 15.61 59.86 25.99 C 61.99 33.97 60.22 42.82 55.42 49.52 C 47.34 61.43 29.81 65.07 17.63 57.42 C 10.68 53.57 6.69 46.39 3.94 39.21 C 3.73 37.73 3.63 36.24 3.64 34.73 C 3.66 33.56 3.66 32.40 3.65 31.23 C 3.61 29.77 3.68 28.32 3.86 26.88 C 6.18 21.30 8.68 15.48 13.43 11.51 M 19.15 9.71 C 20.61 10.91 21.53 12.55 22.29 14.24 C 20.76 12.85 19.28 11.41 17.75 10.01 C 18.43 12.62 20.06 14.73 21.77 16.73 C 23.20 16.01 24.64 15.30 26.08 14.59 C 25.42 14.23 24.09 13.50 23.43 13.13 C 24.78 13.50 26.14 13.83 27.50 14.13 C 26.61 11.38 24.70 9.17 23.01 6.88 C 21.72 7.83 20.44 8.77 19.15 9.71 M 27.29 7.05 C 27.48 8.34 27.67 9.63 27.86 10.92 C 28.02 12.07 28.16 13.22 28.30 14.38 L 29.09 14.64 C 29.58 13.76 30.08 12.89 30.60 12.03 C 30.77 12.46 31.11 13.32 31.28 13.75 C 32.17 13.32 32.61 12.47 32.60 11.20 C 33.40 11.96 34.20 12.71 35.01 13.46 C 34.86 11.47 34.71 9.48 34.60 7.48 C 32.20 6.93 29.73 6.53 27.29 7.05 M 36.06 8.27 C 37.14 8.64 38.22 9.01 39.31 9.37 C 37.13 10.28 36.01 12.28 35.18 14.37 C 35.81 14.13 37.08 13.66 37.72 13.42 C 37.72 13.95 37.73 15.00 37.73 15.53 C 39.85 15.26 41.96 14.97 44.07 14.67 C 43.96 15.45 43.73 17.03 43.62 17.81 C 45.58 19.00 47.54 20.20 49.48 21.41 C 49.32 20.15 48.96 18.88 49.08 17.60 C 49.67 17.36 50.86 16.89 51.46 16.65 C 51.30 15.30 51.14 13.94 50.99 12.59 C 50.44 13.14 49.35 14.25 48.81 14.81 C 48.38 13.36 47.95 11.91 47.52 10.46 C 46.67 11.77 45.83 13.09 44.98 14.40 C 43.75 13.45 42.85 12.18 42.00 10.90 C 42.59 10.48 43.78 9.64 44.37 9.22 C 43.14 8.66 41.91 8.10 40.68 7.53 C 39.14 7.77 37.60 8.01 36.06 8.27 M 13.37 14.42 C 13.89 15.10 13.89 15.10 13.37 14.42 M 14.40 15.48 L 14.36 16.78 C 13.48 16.60 12.60 16.43 11.72 16.25 C 11.16 17.05 10.60 17.85 10.02 18.64 C 10.83 18.48 12.46 18.16 13.27 17.99 C 13.49 18.86 13.93 20.58 14.15 21.45 C 14.37 21.08 14.83 20.35 15.05 19.99 L 15.62 19.31 C 15.93 20.18 16.57 21.91 16.89 22.78 C 15.28 25.94 13.87 29.34 14.11 32.97 C 13.70 42.52 22.47 51.15 31.98 50.83 C 40.14 51.16 47.88 45.01 49.65 37.08 C 50.95 32.48 49.92 27.45 47.48 23.41 C 43.51 16.73 34.81 13.30 27.35 15.49 C 23.10 16.51 19.64 19.42 16.97 22.78 C 16.74 21.11 16.52 19.45 16.31 17.78 C 17.84 17.46 19.37 17.12 20.86 16.66 C 19.92 16.74 18.02 16.89 17.07 16.97 C 17.30 16.56 17.75 15.74 17.98 15.33 C 16.79 15.38 15.59 15.43 14.40 15.48 M 8.73 28.51 C 10.75 28.93 11.84 27.28 12.93 25.92 C 12.12 26.15 10.52 26.63 9.71 26.87 C 8.88 26.29 8.05 25.71 7.21 25.13 C 7.64 26.28 7.76 27.64 8.73 28.51 M 52.02 25.80 C 52.26 26.39 52.73 27.56 52.96 28.15 C 53.77 28.25 55.38 28.46 56.19 28.56 C 56.48 27.73 57.07 26.07 57.36 25.25 C 56.71 25.66 55.42 26.49 54.77 26.90 C 53.85 26.53 52.94 26.16 52.02 25.80 M 7.12 29.62 C 6.12 30.67 7.99 32.21 9.04 31.53 C 10.05 30.49 8.16 28.96 7.12 29.62 M 53.14 28.56 C 53.40 30.97 53.24 33.72 55.43 35.37 C 55.34 34.46 55.16 32.64 55.06 31.73 C 55.67 31.65 56.87 31.49 57.48 31.41 C 57.60 30.76 57.83 29.46 57.95 28.81 C 57.09 29.41 56.24 30.02 55.38 30.64 C 54.64 29.94 53.89 29.25 53.14 28.56 M 10.14 30.25 C 10.70 30.74 10.70 30.74 10.14 30.25 M 7.06 33.69 C 7.66 35.39 11.37 34.34 10.80 32.62 C 9.62 32.14 7.60 32.39 7.06 33.69 M 56.22 32.86 C 55.72 34.29 56.17 34.75 57.57 34.26 C 58.08 32.84 57.63 32.37 56.22 32.86 M 10.08 35.35 C 8.53 38.33 13.43 35.46 10.08 35.35 M 53.12 34.43 C 53.21 35.18 53.40 36.69 53.49 37.45 C 54.62 37.58 55.75 37.71 56.89 37.84 C 57.24 37.24 57.95 36.04 58.30 35.44 C 57.56 35.70 56.08 36.22 55.34 36.48 C 54.79 35.96 53.68 34.94 53.12 34.43 M 7.38 36.13 C 7.05 37.54 7.58 38.01 8.97 37.55 C 9.29 36.15 8.77 35.68 7.38 36.13 M 10.98 36.86 C 10.81 37.59 10.47 39.05 10.29 39.77 C 9.47 39.45 7.83 38.79 7.00 38.46 C 7.57 40.85 9.85 40.97 11.91 40.50 L 11.29 42.39 C 10.43 42.30 8.73 42.11 7.88 42.02 C 8.62 42.76 9.37 43.51 10.12 44.25 C 11.16 43.52 12.21 42.78 13.25 42.05 C 12.50 40.32 11.75 38.59 10.98 36.86 M 52.81 38.56 C 52.02 40.43 56.08 41.78 56.77 39.92 C 56.16 38.59 54.12 38.12 52.81 38.56 M 51.98 41.42 C 51.14 43.24 55.06 44.76 55.75 42.86 C 55.35 41.44 53.23 40.93 51.98 41.42 M 14.02 43.31 C 12.76 44.25 11.30 44.79 9.78 45.15 C 10.98 46.55 12.15 47.98 13.31 49.42 C 15.03 48.40 16.36 46.96 16.75 44.91 C 15.90 45.71 14.19 47.30 13.34 48.10 C 13.57 46.55 14.05 45.06 14.51 43.57 C 14.39 43.51 14.14 43.38 14.02 43.31 M 49.46 42.94 C 50.17 44.10 50.87 45.26 51.57 46.43 C 51.34 46.72 50.90 47.31 50.68 47.60 C 49.75 46.64 48.81 45.68 47.85 44.74 C 48.20 46.67 49.22 48.31 50.67 49.60 C 52.05 48.13 53.43 46.66 54.83 45.22 C 52.96 44.65 51.16 43.90 49.46 42.94 M 30.19 55.42 C 28.62 55.46 28.58 58.17 30.16 58.23 C 31.73 58.19 31.78 55.47 30.19 55.42 Z" />
<path fill="#ffffff" opacity="1.00" d=" M 29.24 10.57 C 28.44 9.18 30.69 7.34 31.93 8.38 C 32.83 9.78 30.43 11.40 29.24 10.57 Z" />
<path fill="#ffffff" opacity="1.00" d=" M 41.23 12.26 C 41.75 12.79 41.75 12.79 41.23 12.26 Z" />
<path fill="#ffffff" opacity="1.00" d=" M 47.43 15.33 C 49.63 16.05 46.84 19.16 45.43 17.75 C 44.64 16.54 46.29 15.24 47.43 15.33 Z" />
<path fill="#ffffff" opacity="1.00" d=" M 14.46 18.38 C 14.76 18.72 14.76 18.72 14.46 18.38 Z" />
<path fill="#ffffff" opacity="1.00" d=" M 20.76 25.91 C 24.43 25.59 27.94 23.84 31.68 24.61 C 31.44 29.46 31.21 34.31 31.37 39.17 C 28.80 38.91 26.26 39.30 23.82 40.08 C 22.82 40.17 21.83 40.26 20.83 40.37 C 20.71 35.55 20.79 30.73 20.76 25.91 Z" />
<path fill="#ffffff" opacity="1.00" d=" M 32.32 24.41 C 36.08 24.00 39.61 25.53 43.31 25.89 C 43.27 30.72 43.26 35.56 43.15 40.39 C 42.17 40.29 41.21 40.19 40.24 40.09 C 37.41 39.23 34.46 38.55 31.55 39.49 C 31.66 34.46 31.33 29.38 32.32 24.41 Z" />
</g>
<g id="#1d283fff">
<path fill="#1d283f" opacity="1.00" d=" M 13.37 14.42 C 13.89 15.10 13.89 15.10 13.37 14.42 Z" />
<path fill="#1d283f" opacity="1.00" d=" M 14.40 15.48 C 15.59 15.43 16.79 15.38 17.98 15.33 C 17.75 15.74 17.30 16.56 17.07 16.97 C 18.02 16.89 19.92 16.74 20.86 16.66 C 19.37 17.12 17.84 17.46 16.31 17.78 C 16.52 19.45 16.74 21.11 16.97 22.78 C 19.64 19.42 23.10 16.51 27.35 15.49 C 34.81 13.30 43.51 16.73 47.48 23.41 C 49.92 27.45 50.95 32.48 49.65 37.08 C 47.88 45.01 40.14 51.16 31.98 50.83 C 22.47 51.15 13.70 42.52 14.11 32.97 C 13.87 29.34 15.28 25.94 16.89 22.78 C 16.57 21.91 15.93 20.18 15.62 19.31 L 15.05 19.99 C 14.83 20.35 14.37 21.08 14.15 21.45 C 13.93 20.58 13.49 18.86 13.27 17.99 C 12.46 18.16 10.83 18.48 10.02 18.64 C 10.60 17.85 11.16 17.05 11.72 16.25 C 12.60 16.43 13.48 16.60 14.36 16.78 L 14.40 15.48 M 14.46 18.38 C 14.76 18.72 14.76 18.72 14.46 18.38 M 20.76 25.91 C 20.79 30.73 20.71 35.55 20.83 40.37 C 20.13 40.47 18.74 40.66 18.04 40.75 C 18.99 41.13 19.97 41.41 20.98 41.58 C 29.22 42.12 37.47 41.67 45.71 41.65 C 45.89 36.69 45.83 31.73 45.85 26.76 C 45.00 26.47 44.15 26.18 43.31 25.89 C 39.61 25.53 36.08 24.00 32.32 24.41 C 31.33 29.38 31.66 34.46 31.55 39.49 C 34.46 38.55 37.41 39.23 40.24 40.09 C 34.78 40.65 29.27 40.69 23.82 40.08 C 26.26 39.30 28.80 38.91 31.37 39.17 C 31.21 34.31 31.44 29.46 31.68 24.61 C 27.94 23.84 24.43 25.59 20.76 25.91 Z" />
</g>
</svg>
