<?xml version="1.0" encoding="UTF-8" ?>
<!DOCTYPE svg PUBLIC "-//W3C//DTD SVG 1.1//EN" "http://www.w3.org/Graphics/SVG/1.1/DTD/svg11.dtd">
<svg width="57pt" height="57pt" viewBox="0 0 57 57" version="1.1" xmlns="http://www.w3.org/2000/svg">
<g id="#ffffffff">
<path fill="#ffffff" opacity="1.00" d=" M 0.00 0.00 L 57.00 0.00 L 57.00 57.00 L 0.00 57.00 L 0.00 0.00 M 13.89 17.95 C 13.77 24.98 13.81 32.01 13.86 39.03 C 13.53 41.35 15.74 43.46 18.02 43.23 C 24.85 43.39 31.69 43.24 38.53 43.29 C 38.52 41.70 38.52 40.11 38.52 38.52 C 31.84 38.52 25.16 38.52 18.48 38.52 C 18.48 36.85 18.48 35.18 18.48 33.51 C 24.95 33.48 31.41 33.57 37.88 33.48 C 40.38 33.57 43.34 31.81 43.22 29.03 C 43.35 25.36 43.39 21.67 43.19 18.00 C 43.13 15.91 41.24 13.86 39.10 13.88 C 32.07 13.78 25.02 13.81 17.98 13.86 C 15.76 13.63 13.76 15.77 13.89 17.95 Z" />
<path fill="#ffffff" opacity="1.00" d=" M 18.48 18.48 C 25.16 18.48 31.84 18.48 38.52 18.48 C 38.52 21.82 38.52 25.16 38.52 28.50 C 31.84 28.50 25.16 28.50 18.48 28.50 C 18.48 25.16 18.47 21.82 18.48 18.48 Z" />
</g>
<g id="#000000ff">
<path fill="#000000" opacity="1.00" d=" M 13.89 17.95 C 13.76 15.77 15.76 13.63 17.98 13.86 C 25.02 13.81 32.07 13.78 39.10 13.88 C 41.24 13.86 43.13 15.91 43.19 18.00 C 43.39 21.67 43.35 25.36 43.22 29.03 C 43.34 31.81 40.38 33.57 37.88 33.48 C 31.41 33.57 24.95 33.48 18.48 33.51 C 18.48 35.18 18.48 36.85 18.48 38.52 C 25.16 38.52 31.84 38.52 38.52 38.52 C 38.52 40.11 38.52 41.70 38.53 43.29 C 31.69 43.24 24.85 43.39 18.02 43.23 C 15.74 43.46 13.53 41.35 13.86 39.03 C 13.81 32.01 13.77 24.98 13.89 17.95 M 18.48 18.48 C 18.47 21.82 18.48 25.16 18.48 28.50 C 25.16 28.50 31.84 28.50 38.52 28.50 C 38.52 25.16 38.52 21.82 38.52 18.48 C 31.84 18.48 25.16 18.48 18.48 18.48 Z" />
</g>
</svg>
