<?xml version="1.0" encoding="UTF-8" ?>
<!DOCTYPE svg PUBLIC "-//W3C//DTD SVG 1.1//EN" "http://www.w3.org/Graphics/SVG/1.1/DTD/svg11.dtd">
<svg width="32pt" height="32pt" viewBox="0 0 32 32" version="1.1" xmlns="http://www.w3.org/2000/svg">
<g id="#3ba669eb">
<path fill="#3ba669" opacity="0.92" d=" M 0.00 10.14 C 5.23 6.84 10.69 3.93 16.01 0.77 C 21.31 3.94 26.78 6.84 32.00 10.14 L 32.00 12.07 C 26.07 10.85 21.40 6.42 15.99 3.86 C 10.61 6.54 5.87 10.67 0.00 12.22 L 0.00 10.14 Z" />
</g>
<g id="#fda940ff">
<path fill="#fda940" opacity="1.00" d=" M 5.38 24.21 C 3.60 15.96 13.71 9.07 20.95 12.76 C 25.58 14.41 27.88 20.29 25.57 24.63 C 24.02 27.32 21.61 29.59 18.69 30.70 C 17.65 31.47 16.04 29.02 17.46 28.50 C 20.60 26.53 24.91 23.39 23.25 19.10 C 22.19 15.39 18.12 14.60 14.83 14.15 C 15.58 14.72 16.35 15.28 17.12 15.83 C 16.31 20.29 15.68 25.17 12.64 28.75 C 9.41 31.60 5.65 27.53 5.38 24.21 M 8.17 20.90 C 7.47 23.20 8.71 25.39 10.00 27.18 C 13.47 23.96 13.48 18.81 14.68 14.56 C 11.83 15.71 8.77 17.62 8.17 20.90 Z" />
</g>
</svg>
