<?xml version="1.0" encoding="UTF-8" ?>
<!DOCTYPE svg PUBLIC "-//W3C//DTD SVG 1.1//EN" "http://www.w3.org/Graphics/SVG/1.1/DTD/svg11.dtd">
<svg width="32pt" height="32pt" viewBox="0 0 32 32" version="1.1" xmlns="http://www.w3.org/2000/svg">
<g id="#eeeeeeff">
<path fill="#eeeeee" opacity="1.00" d=" M 3.48 5.17 C 7.57 4.44 12.10 4.57 15.23 7.67 C 14.91 13.28 15.95 18.98 14.74 24.51 C 14.79 25.09 14.88 26.25 14.93 26.83 C 16.84 26.18 18.76 25.55 20.68 24.92 C 20.19 24.22 19.71 23.52 19.22 22.82 C 18.63 23.46 17.47 24.75 16.89 25.39 C 16.71 19.51 17.01 13.63 16.90 7.76 C 20.02 4.65 24.55 4.55 28.63 5.28 C 28.66 11.01 28.68 16.74 28.69 22.47 C 28.69 23.48 28.16 24.36 27.81 25.28 L 30.30 25.14 C 30.41 20.16 29.99 15.14 30.48 10.18 C 30.86 9.82 31.62 9.11 32.00 8.75 L 32.00 27.10 C 27.41 25.26 22.30 24.70 17.82 27.20 C 16.64 27.13 15.46 27.07 14.27 27.02 C 9.76 24.55 4.60 25.10 0.00 26.98 L 0.00 9.27 C 0.46 9.31 1.39 9.38 1.85 9.41 C 2.05 14.86 1.37 20.37 2.32 25.77 C 2.63 25.13 3.27 23.84 3.59 23.19 C 3.40 17.19 3.46 11.18 3.48 5.17 M 4.99 23.85 C 7.66 24.45 10.56 23.80 13.04 25.26 C 13.55 24.84 14.05 24.42 14.55 23.99 C 11.56 23.30 8.52 22.47 5.42 22.93 C 5.31 23.16 5.09 23.62 4.99 23.85 M 21.26 23.32 C 21.85 24.82 26.04 24.67 26.72 23.33 C 25.04 22.73 22.93 22.60 21.26 23.32 Z" />
</g>
</svg>
