<?xml version="1.0" encoding="UTF-8" ?>
<!DOCTYPE svg PUBLIC "-//W3C//DTD SVG 1.1//EN" "http://www.w3.org/Graphics/SVG/1.1/DTD/svg11.dtd">
<svg width="32pt" height="32pt" viewBox="0 0 32 32" version="1.1" xmlns="http://www.w3.org/2000/svg">
<g id="#ccf1ffff">
<path fill="#ccf1ff" opacity="1.00" d=" M 0.00 0.00 L 16.06 0.00 L 16.13 0.77 C 10.77 1.66 5.34 0.30 0.00 1.22 L 0.00 0.00 Z" />
</g>
<g id="#96bcf1ff">
<path fill="#96bcf1" opacity="1.00" d=" M 16.06 0.00 L 32.00 0.00 L 32.00 0.64 L 31.00 0.95 C 28.74 1.07 26.47 0.93 24.22 1.07 C 21.52 0.91 18.83 0.54 16.13 0.77 L 16.06 0.00 Z" />
</g>
<g id="#ffffffff">
<path fill="#ffffff" opacity="1.00" d=" M 0.00 1.22 C 5.34 0.30 10.77 1.66 16.13 0.77 C 18.83 0.54 21.52 0.91 24.22 1.07 C 22.69 3.09 20.23 4.40 17.68 4.49 L 16.62 4.32 C 15.11 4.46 13.40 4.17 12.05 5.00 L 10.95 5.52 C 11.65 6.47 12.18 7.52 12.74 8.56 C 11.77 7.74 10.69 7.03 9.52 6.52 C 7.59 6.85 6.48 8.73 4.36 8.47 C 3.50 10.38 3.12 12.96 3.56 14.98 C 4.06 12.98 4.07 10.87 4.73 8.92 C 7.36 6.86 7.41 10.92 8.85 12.08 C 9.72 12.65 10.59 14.41 9.31 15.00 C 9.14 14.24 8.80 12.71 8.63 11.94 C 6.91 12.13 7.46 14.02 7.81 15.15 C 8.63 16.96 10.59 17.80 11.86 19.26 C 10.75 20.83 9.12 22.02 7.65 23.27 C 5.91 23.47 3.27 23.79 3.13 26.02 C 3.54 27.82 3.99 29.67 3.03 31.39 C 2.27 31.30 0.76 31.11 0.00 31.02 L 0.00 1.22 Z" />
<path fill="#ffffff" opacity="1.00" d=" M 15.74 11.15 C 16.00 11.18 16.53 11.25 16.79 11.28 C 18.78 11.40 20.87 11.31 22.43 12.80 L 23.24 13.32 C 22.17 12.71 20.87 13.10 19.77 13.43 C 18.73 13.51 18.33 11.96 17.21 12.21 C 15.93 12.65 15.39 13.54 15.58 14.90 C 14.29 13.83 14.40 12.32 15.74 11.15 Z" />
<path fill="#ffffff" opacity="1.00" d=" M 11.79 12.86 C 13.45 13.16 13.31 15.53 14.83 16.33 C 14.55 16.77 13.98 17.66 13.69 18.11 C 13.33 18.21 12.62 18.41 12.26 18.51 C 10.63 16.71 12.56 14.89 11.79 12.86 Z" />
<path fill="#ffffff" opacity="1.00" d=" M 17.23 13.81 C 19.74 13.71 19.65 18.14 18.10 19.33 C 17.58 18.36 16.91 17.55 16.08 16.87 C 16.64 15.92 17.02 14.90 17.23 13.81 Z" />
<path fill="#ffffff" opacity="1.00" d=" M 20.59 14.72 C 24.63 15.26 21.04 20.02 23.66 21.59 C 23.36 22.18 22.75 23.36 22.45 23.95 C 22.14 23.47 21.53 22.52 21.23 22.04 C 19.11 23.94 17.27 26.16 15.04 27.91 C 13.74 26.21 11.56 25.19 10.74 23.17 C 12.08 21.74 14.40 20.86 14.70 18.72 L 14.94 18.87 C 15.45 19.28 16.47 20.12 16.98 20.53 L 16.40 21.06 C 15.20 21.82 12.97 23.03 14.25 24.74 C 16.36 25.24 18.28 22.60 18.83 20.79 C 20.57 19.34 21.40 16.89 20.59 14.72 Z" />
</g>
<g id="#dedcd0ff">
<path fill="#dedcd0" opacity="1.00" d=" M 24.22 1.07 C 26.47 0.93 28.74 1.07 31.00 0.95 C 31.00 1.44 31.00 2.43 31.00 2.93 C 28.28 4.35 25.27 4.99 22.25 5.42 C 21.87 5.39 21.12 5.32 20.74 5.29 C 19.64 5.33 18.62 5.06 17.68 4.49 C 20.23 4.40 22.69 3.09 24.22 1.07 Z" />
</g>
<g id="#8691cfff">
<path fill="#8691cf" opacity="1.00" d=" M 31.00 0.95 L 32.00 0.64 L 32.00 32.00 L 0.00 32.00 L 0.00 31.02 C 0.76 31.11 2.27 31.30 3.03 31.39 C 12.32 31.52 21.60 31.11 30.89 30.92 C 30.90 21.59 30.89 12.26 31.00 2.93 C 31.00 2.43 31.00 1.44 31.00 0.95 Z" />
</g>
<g id="#e6ffffff">
<path fill="#e6ffff" opacity="1.00" d=" M 22.25 5.42 C 25.27 4.99 28.28 4.35 31.00 2.93 C 30.89 12.26 30.90 21.59 30.89 30.92 C 21.60 31.11 12.32 31.52 3.03 31.39 C 3.99 29.67 3.54 27.82 3.13 26.02 C 3.27 23.79 5.91 23.47 7.65 23.27 C 9.82 26.02 12.76 28.08 15.12 30.68 C 17.15 28.82 19.04 26.81 21.11 25.01 C 21.06 27.11 19.14 28.22 17.99 29.73 C 21.60 29.82 25.22 30.06 28.83 29.81 C 29.72 26.02 30.16 22.12 29.71 18.23 C 27.80 18.78 26.35 20.17 24.90 21.47 L 23.74 21.33 C 22.50 19.11 25.49 17.71 23.67 15.72 C 23.67 14.39 25.51 14.19 26.00 13.06 C 26.03 11.22 25.58 9.35 24.40 7.90 C 23.72 7.04 23.01 6.22 22.25 5.42 Z" />
</g>
<g id="#e0c82bff">
<path fill="#e0c82b" opacity="1.00" d=" M 12.05 5.00 C 13.40 4.17 15.11 4.46 16.62 4.32 C 18.19 6.44 18.68 9.22 16.58 11.23 L 16.79 11.28 C 16.53 11.25 16.00 11.18 15.74 11.15 C 15.42 10.92 14.78 10.47 14.46 10.24 C 15.69 8.23 15.08 4.32 12.05 5.00 Z" />
</g>
<g id="#231520ff">
<path fill="#231520" opacity="1.00" d=" M 16.62 4.32 L 17.68 4.49 C 18.62 5.06 19.64 5.33 20.74 5.29 C 22.64 7.22 23.91 10.22 22.43 12.80 C 20.87 11.31 18.78 11.40 16.79 11.28 L 16.58 11.23 C 18.68 9.22 18.19 6.44 16.62 4.32 Z" />
</g>
<g id="#0e0b0bff">
<path fill="#0e0b0b" opacity="1.00" d=" M 10.95 5.52 L 12.05 5.00 C 15.08 4.32 15.69 8.23 14.46 10.24 C 14.78 10.47 15.42 10.92 15.74 11.15 C 14.40 12.32 14.29 13.83 15.58 14.90 C 15.39 13.54 15.93 12.65 17.21 12.21 C 18.33 11.96 18.73 13.51 19.77 13.43 C 20.87 13.10 22.17 12.71 23.24 13.32 C 25.38 12.25 24.46 9.75 24.40 7.90 C 25.58 9.35 26.03 11.22 26.00 13.06 C 25.51 14.19 23.67 14.39 23.67 15.72 C 25.49 17.71 22.50 19.11 23.74 21.33 L 24.90 21.47 C 24.59 21.50 23.97 21.56 23.66 21.59 C 21.04 20.02 24.63 15.26 20.59 14.72 C 21.40 16.89 20.57 19.34 18.83 20.79 C 18.07 21.87 17.26 21.96 16.40 21.06 L 16.98 20.53 C 17.26 20.23 17.82 19.63 18.10 19.33 C 19.65 18.14 19.74 13.71 17.23 13.81 C 17.02 14.90 16.64 15.92 16.08 16.87 C 15.80 17.37 15.23 18.37 14.94 18.87 L 14.70 18.72 L 13.69 18.11 C 13.98 17.66 14.55 16.77 14.83 16.33 C 13.31 15.53 13.45 13.16 11.79 12.86 C 12.56 14.89 10.63 16.71 12.26 18.51 L 11.86 19.26 C 10.59 17.80 8.63 16.96 7.81 15.15 C 7.46 14.02 6.91 12.13 8.63 11.94 C 8.80 12.71 9.14 14.24 9.31 15.00 C 10.59 14.41 9.72 12.65 8.85 12.08 C 7.41 10.92 7.36 6.86 4.73 8.92 C 4.07 10.87 4.06 12.98 3.56 14.98 C 3.12 12.96 3.50 10.38 4.36 8.47 C 6.48 8.73 7.59 6.85 9.52 6.52 C 10.69 7.03 11.77 7.74 12.74 8.56 C 12.18 7.52 11.65 6.47 10.95 5.52 Z" />
</g>
<g id="#f7e234ff">
<path fill="#f7e234" opacity="1.00" d=" M 20.74 5.29 C 21.12 5.32 21.87 5.39 22.25 5.42 C 23.01 6.22 23.72 7.04 24.40 7.90 C 24.46 9.75 25.38 12.25 23.24 13.32 L 22.43 12.80 C 23.91 10.22 22.64 7.22 20.74 5.29 Z" />
</g>
<g id="#91ba26ff">
<path fill="#91ba26" opacity="1.00" d=" M 16.08 16.87 C 16.91 17.55 17.58 18.36 18.10 19.33 C 17.82 19.63 17.26 20.23 16.98 20.53 C 16.47 20.12 15.45 19.28 14.94 18.87 C 15.23 18.37 15.80 17.37 16.08 16.87 Z" />
</g>
<g id="#71a710ff">
<path fill="#71a710" opacity="1.00" d=" M 12.26 18.51 C 12.62 18.41 13.33 18.21 13.69 18.11 L 14.70 18.72 C 14.40 20.86 12.08 21.74 10.74 23.17 C 11.56 25.19 13.74 26.21 15.04 27.91 C 17.27 26.16 19.11 23.94 21.23 22.04 C 21.53 22.52 22.14 23.47 22.45 23.95 C 22.11 24.22 21.45 24.75 21.11 25.01 C 19.04 26.81 17.15 28.82 15.12 30.68 C 12.76 28.08 9.82 26.02 7.65 23.27 C 9.12 22.02 10.75 20.83 11.86 19.26 L 12.26 18.51 Z" />
</g>
<g id="#ccf5ffff">
<path fill="#ccf5ff" opacity="1.00" d=" M 24.90 21.47 C 26.35 20.17 27.80 18.78 29.71 18.23 C 30.16 22.12 29.72 26.02 28.83 29.81 C 25.22 30.06 21.60 29.82 17.99 29.73 C 19.14 28.22 21.06 27.11 21.11 25.01 C 21.45 24.75 22.11 24.22 22.45 23.95 C 22.75 23.36 23.36 22.18 23.66 21.59 C 23.97 21.56 24.59 21.50 24.90 21.47 Z" />
</g>
<g id="#9ebf54ff">
<path fill="#9ebf54" opacity="1.00" d=" M 14.25 24.74 C 12.97 23.03 15.20 21.82 16.40 21.06 C 17.26 21.96 18.07 21.87 18.83 20.79 C 18.28 22.60 16.36 25.24 14.25 24.74 Z" />
</g>
</svg>
