<?xml version="1.0" encoding="UTF-8" ?>
<!DOCTYPE svg PUBLIC "-//W3C//DTD SVG 1.1//EN" "http://www.w3.org/Graphics/SVG/1.1/DTD/svg11.dtd">
<svg width="100pt" height="100pt" viewBox="0 0 100 100" version="1.1" xmlns="http://www.w3.org/2000/svg">
<g id="#0f9d8cff">
<path fill="#0f9d8c" opacity="1.00" d=" M 53.27 0.00 L 53.33 0.00 C 53.28 33.23 53.25 66.47 53.34 99.71 C 45.46 95.74 37.46 92.01 29.53 88.15 C 29.60 79.35 29.51 70.56 29.59 61.76 C 22.41 61.75 15.22 61.78 8.04 61.73 C 8.16 53.79 8.09 45.84 8.09 37.90 C 19.05 37.73 30.03 38.22 40.97 37.67 C 41.21 37.25 41.68 36.39 41.91 35.96 C 38.08 34.13 33.64 35.18 29.54 34.96 C 29.56 27.28 29.57 19.60 29.54 11.92 C 37.46 7.98 45.39 4.03 53.27 0.00 Z" />
<path fill="#0f9d8c" opacity="1.00" d=" M 58.04 0.00 L 90.92 0.00 C 90.94 7.94 90.88 15.88 90.97 23.82 C 79.95 23.86 68.94 23.86 57.92 23.82 C 58.10 15.88 58.05 7.94 58.04 0.00 Z" />
<path fill="#0f9d8c" opacity="1.00" d=" M 58.10 37.89 C 69.04 37.90 79.98 37.90 90.93 37.89 C 90.94 45.84 90.86 53.79 90.98 61.73 C 80.00 61.78 69.02 61.77 58.05 61.74 C 58.17 53.79 58.09 45.84 58.10 37.89 Z" />
<path fill="#0f9d8c" opacity="1.00" d=" M 58.02 76.28 C 69.00 76.26 79.99 76.25 90.97 76.29 C 90.88 84.19 90.93 92.09 90.94 100.00 L 58.05 100.00 C 57.95 92.09 58.13 84.18 58.02 76.28 Z" />
</g>
</svg>
