<?xml version="1.0" encoding="UTF-8" ?>
<!DOCTYPE svg PUBLIC "-//W3C//DTD SVG 1.1//EN" "http://www.w3.org/Graphics/SVG/1.1/DTD/svg11.dtd">
<svg width="16pt" height="16pt" viewBox="0 0 16 16" version="1.1" xmlns="http://www.w3.org/2000/svg">
<g id="#444444ff">
<path fill="#444444" opacity="1.00" d=" M 0.00 0.00 L 16.00 0.00 L 16.00 16.00 L 0.00 16.00 L 0.00 0.00 M 2.63 6.00 C 2.62 9.00 2.65 12.00 2.66 15.01 C 5.18 14.97 7.70 14.98 10.22 15.01 C 10.06 12.01 9.94 9.00 10.00 6.00 L 9.03 6.00 C 8.86 8.44 9.44 11.36 7.11 12.99 C 6.96 10.66 7.00 8.33 7.00 6.00 L 6.05 6.00 C 5.79 8.40 6.44 11.38 4.11 12.97 C 3.95 10.65 4.01 8.33 4.00 6.00 L 2.63 6.00 M 12.14 6.00 C 12.20 9.09 11.31 12.02 10.62 14.99 C 11.30 14.99 12.64 15.00 13.32 15.00 C 13.13 12.01 12.90 9.02 12.92 6.02 L 12.14 6.00 M 1.16 12.43 L 0.73 13.14 C 0.83 13.56 1.03 14.41 1.14 14.83 L 1.78 14.85 L 2.19 14.19 C 2.10 13.75 1.92 12.88 1.83 12.45 L 1.16 12.43 M 14.13 12.44 C 14.04 12.88 13.88 13.75 13.79 14.19 L 14.22 14.86 L 14.85 14.84 C 14.94 14.41 15.13 13.56 15.22 13.14 L 14.80 12.43 L 14.13 12.44 Z" />
</g>
<g id="#d1d1d1ff">
<path fill="#d1d1d1" opacity="1.00" d=" M 2.63 6.00 L 4.00 6.00 C 4.01 8.33 3.95 10.65 4.11 12.97 C 6.44 11.38 5.79 8.40 6.05 6.00 L 7.00 6.00 C 7.00 8.33 6.96 10.66 7.11 12.99 C 9.44 11.36 8.86 8.44 9.03 6.00 L 10.00 6.00 C 9.94 9.00 10.06 12.01 10.22 15.01 C 7.70 14.98 5.18 14.97 2.66 15.01 C 2.65 12.00 2.62 9.00 2.63 6.00 Z" />
</g>
<g id="#f0f0f0ff">
<path fill="#f0f0f0" opacity="1.00" d=" M 12.14 6.00 L 12.92 6.02 C 12.90 9.02 13.13 12.01 13.32 15.00 C 12.64 15.00 11.30 14.99 10.62 14.99 C 11.31 12.02 12.20 9.09 12.14 6.00 Z" />
</g>
<g id="#fefefeff">
<path fill="#fefefe" opacity="1.00" d=" M 1.16 12.43 L 1.83 12.45 C 1.92 12.88 2.10 13.75 2.19 14.19 L 1.78 14.85 L 1.14 14.83 C 1.03 14.41 0.83 13.56 0.73 13.14 L 1.16 12.43 Z" />
</g>
<g id="#fcfcfcff">
<path fill="#fcfcfc" opacity="1.00" d=" M 14.13 12.44 L 14.80 12.43 L 15.22 13.14 C 15.13 13.56 14.94 14.41 14.85 14.84 L 14.22 14.86 L 13.79 14.19 C 13.88 13.75 14.04 12.88 14.13 12.44 Z" />
</g>
</svg>
