<?xml version="1.0" encoding="UTF-8" ?>
<!DOCTYPE svg PUBLIC "-//W3C//DTD SVG 1.1//EN" "http://www.w3.org/Graphics/SVG/1.1/DTD/svg11.dtd">
<svg width="16pt" height="16pt" viewBox="0 0 16 16" version="1.1" xmlns="http://www.w3.org/2000/svg">
<g id="#545454ff">
<path fill="#545454" opacity="1.00" d=" M 5.42 0.00 L 6.26 0.00 C 5.87 2.58 10.31 2.49 10.08 0.00 L 11.06 0.00 C 13.15 1.96 10.74 3.68 9.62 5.35 C 7.13 5.16 5.12 3.78 3.43 2.04 C 3.92 1.53 4.92 0.51 5.42 0.00 Z" />
</g>
<g id="#0dcbdcff">
<path fill="#0dcbdc" opacity="1.00" d=" M 0.00 5.03 C 1.75 2.84 3.38 4.84 4.83 6.20 C 4.87 8.36 6.14 10.07 7.06 11.92 C 7.13 13.36 6.49 14.67 6.05 16.00 L 5.29 16.00 C 3.82 14.33 3.72 10.43 0.65 11.80 C 0.14 10.27 1.13 9.03 1.70 7.71 C 1.19 6.83 0.62 5.99 0.00 5.19 L 0.00 5.03 Z" />
<path fill="#0dcbdc" opacity="1.00" d=" M 13.57 3.71 C 14.39 4.11 15.20 4.53 16.00 4.97 L 16.00 6.11 C 13.40 5.84 13.68 9.89 16.00 10.23 L 16.00 10.77 C 13.62 11.84 11.64 13.46 10.28 15.71 C 10.39 15.79 10.62 15.93 10.74 16.00 L 10.19 16.00 C 9.89 15.65 9.29 14.95 8.98 14.60 C 8.98 13.62 8.98 11.65 8.98 10.66 C 9.45 10.45 10.39 10.01 10.86 9.80 C 10.92 8.68 10.98 7.56 11.05 6.44 C 11.90 5.54 12.75 4.63 13.57 3.71 Z" />
</g>
</svg>
