<?xml version="1.0" encoding="UTF-8" ?>
<!DOCTYPE svg PUBLIC "-//W3C//DTD SVG 1.1//EN" "http://www.w3.org/Graphics/SVG/1.1/DTD/svg11.dtd">
<svg width="200pt" height="200pt" viewBox="0 0 200 200" version="1.1" xmlns="http://www.w3.org/2000/svg">
<g id="#ffffffff">
<path fill="#ffffff" opacity="1.00" d=" M 0.00 0.00 L 200.00 0.00 L 200.00 200.00 L 0.00 200.00 L 0.00 0.00 M 20.28 16.24 C 18.22 19.81 17.84 24.56 19.77 28.26 C 22.04 32.11 26.93 33.04 31.05 33.06 C 64.37 33.07 97.69 33.05 131.00 33.07 C 135.23 33.12 140.22 33.56 143.01 37.17 C 145.29 40.21 144.22 44.22 143.43 47.59 C 136.11 75.34 120.12 100.35 99.70 120.32 C 85.62 103.92 75.65 84.46 67.25 64.66 C 64.44 58.34 63.13 51.36 59.49 45.42 C 56.21 40.17 47.81 40.72 44.13 45.17 C 41.37 49.47 42.51 54.91 43.60 59.56 C 51.06 86.85 64.56 112.52 83.27 133.78 C 68.73 144.23 53.05 153.02 37.08 161.08 C 30.02 164.77 22.25 167.09 15.52 171.41 C 10.23 174.80 9.57 182.78 13.58 187.38 C 16.97 190.66 22.18 190.18 26.49 189.67 C 35.97 187.91 44.74 183.61 53.27 179.26 C 69.47 170.71 84.75 160.56 99.70 150.00 C 106.62 156.96 114.48 162.91 122.68 168.30 C 136.13 177.04 150.67 184.31 166.19 188.55 C 171.03 189.91 176.14 190.28 181.11 189.59 C 188.82 189.13 192.35 178.62 188.28 172.74 C 186.66 170.24 183.97 168.63 181.13 167.88 C 176.17 166.54 171.06 165.70 166.28 163.75 C 148.57 156.92 132.22 146.77 117.70 134.58 C 123.12 128.71 129.01 123.23 133.79 116.80 C 141.23 106.89 147.41 96.09 153.10 85.11 C 161.53 68.93 168.67 51.48 169.15 32.99 C 169.55 27.56 168.45 21.60 164.34 17.72 C 158.69 12.40 150.50 11.24 143.05 11.02 C 106.04 10.97 69.04 11.02 32.03 11.00 C 27.65 10.92 22.70 12.28 20.28 16.24 M 89.37 52.41 C 85.80 53.94 83.14 58.00 84.31 61.93 C 85.81 67.35 90.44 71.09 92.86 76.06 C 95.65 81.05 99.48 87.47 106.12 86.88 C 112.72 86.69 117.06 79.06 114.64 73.11 C 112.10 66.64 108.03 60.80 103.26 55.77 C 99.86 52.05 94.09 50.08 89.37 52.41 Z" />
</g>
<g id="#231815ff">
<path fill="#231815" opacity="1.00" d=" M 20.28 16.24 C 22.70 12.28 27.65 10.92 32.03 11.00 C 69.04 11.02 106.04 10.97 143.05 11.02 C 150.50 11.24 158.69 12.40 164.34 17.72 C 168.45 21.60 169.55 27.56 169.15 32.99 C 168.67 51.48 161.53 68.93 153.10 85.11 C 147.41 96.09 141.23 106.89 133.79 116.80 C 129.01 123.23 123.12 128.71 117.70 134.58 C 132.22 146.77 148.57 156.92 166.28 163.75 C 171.06 165.70 176.17 166.54 181.13 167.88 C 183.97 168.63 186.66 170.24 188.28 172.74 C 192.35 178.62 188.82 189.13 181.11 189.59 C 176.14 190.28 171.03 189.91 166.19 188.55 C 150.67 184.31 136.13 177.04 122.68 168.30 C 114.48 162.91 106.62 156.96 99.70 150.00 C 84.75 160.56 69.47 170.71 53.27 179.26 C 44.74 183.61 35.97 187.91 26.49 189.67 C 22.18 190.18 16.97 190.66 13.58 187.38 C 9.57 182.78 10.23 174.80 15.52 171.41 C 22.25 167.09 30.02 164.77 37.08 161.08 C 53.05 153.02 68.73 144.23 83.27 133.78 C 64.56 112.52 51.06 86.85 43.60 59.56 C 42.51 54.91 41.37 49.47 44.13 45.17 C 47.81 40.72 56.21 40.17 59.49 45.42 C 63.13 51.36 64.44 58.34 67.25 64.66 C 75.65 84.46 85.62 103.92 99.70 120.32 C 120.12 100.35 136.11 75.34 143.43 47.59 C 144.22 44.22 145.29 40.21 143.01 37.17 C 140.22 33.56 135.23 33.12 131.00 33.07 C 97.69 33.05 64.37 33.07 31.05 33.06 C 26.93 33.04 22.04 32.11 19.77 28.26 C 17.84 24.56 18.22 19.81 20.28 16.24 Z" />
<path fill="#231815" opacity="1.00" d=" M 89.37 52.41 C 94.09 50.08 99.86 52.05 103.26 55.77 C 108.03 60.80 112.10 66.64 114.64 73.11 C 117.06 79.06 112.72 86.69 106.12 86.88 C 99.48 87.47 95.65 81.05 92.86 76.06 C 90.44 71.09 85.81 67.35 84.31 61.93 C 83.14 58.00 85.80 53.94 89.37 52.41 Z" />
</g>
</svg>
