<?xml version="1.0" encoding="UTF-8" ?>
<!DOCTYPE svg PUBLIC "-//W3C//DTD SVG 1.1//EN" "http://www.w3.org/Graphics/SVG/1.1/DTD/svg11.dtd">
<svg width="74pt" height="78pt" viewBox="0 0 74 78" version="1.1" xmlns="http://www.w3.org/2000/svg">
<g id="#ffffffff">
<path fill="#ffffff" opacity="1.00" d=" M 57.44 5.26 C 58.81 2.55 62.07 3.53 64.52 3.34 C 68.71 6.60 70.30 11.92 70.60 16.99 C 70.95 22.49 68.98 27.84 69.65 33.35 C 68.53 35.58 67.46 37.97 65.36 39.47 C 63.42 44.01 63.92 49.22 61.57 53.61 C 59.75 56.01 57.27 57.86 54.45 58.94 C 55.76 58.04 57.04 57.08 58.19 55.99 C 58.55 55.69 59.27 55.09 59.63 54.79 C 63.19 50.25 63.50 44.45 64.61 39.02 C 67.63 38.09 67.88 34.43 68.95 31.93 C 69.85 24.67 70.66 17.09 68.50 9.95 C 68.06 7.35 66.41 4.99 64.05 3.80 C 61.53 3.03 59.22 4.30 57.33 5.86 C 56.43 8.57 57.73 11.10 59.41 13.16 C 53.52 15.99 46.90 13.77 40.76 15.32 C 40.26 15.41 39.26 15.60 38.75 15.70 C 44.67 12.41 52.09 16.38 57.86 12.83 C 57.46 10.31 55.27 7.61 57.44 5.26 Z" />
<path fill="#ffffff" opacity="1.00" d=" M 37.86 20.83 C 45.11 15.83 55.05 21.51 61.82 15.36 C 60.63 19.11 58.24 23.13 54.04 23.85 C 47.71 25.57 40.07 22.15 34.57 26.62 C 30.91 29.51 30.86 34.70 31.47 38.92 C 33.90 47.09 42.39 50.99 45.71 58.63 C 45.92 60.78 45.00 62.76 44.37 64.75 C 44.40 62.91 44.42 61.02 45.50 59.44 C 41.37 50.91 31.61 46.38 28.77 37.09 C 28.65 30.68 32.58 24.32 37.86 20.83 Z" />
<path fill="#ffffff" opacity="1.00" d=" M 31.87 20.87 C 33.73 19.20 35.51 17.30 37.86 16.34 C 37.81 16.61 37.70 17.16 37.64 17.44 C 32.66 19.33 29.89 24.40 26.31 28.08 C 24.31 29.59 22.05 30.71 19.85 31.88 C 22.04 29.98 24.77 28.82 26.93 26.89 C 28.51 24.83 30.07 22.75 31.87 20.87 Z" />
<path fill="#ffffff" opacity="1.00" d=" M 66.56 19.93 C 66.28 24.24 66.62 28.57 66.32 32.87 C 66.11 36.12 63.17 38.09 62.00 40.93 C 61.20 44.74 61.74 49.10 59.22 52.37 C 56.70 56.20 51.88 57.29 48.80 60.54 C 48.15 57.60 46.99 54.81 45.29 52.31 L 46.03 51.93 C 46.47 51.82 47.35 51.59 47.80 51.48 C 47.33 47.30 46.60 43.04 47.54 38.87 C 47.81 35.85 50.34 33.32 49.41 30.18 C 56.66 31.34 64.01 26.74 66.56 19.93 Z" />
<path fill="#ffffff" opacity="1.00" d=" M 33.97 30.98 C 34.50 28.70 36.91 27.98 38.74 27.04 C 33.17 30.67 33.21 38.48 36.70 43.55 L 36.41 43.72 C 33.53 40.13 32.59 35.40 33.97 30.98 Z" />
<path fill="#ffffff" opacity="1.00" d=" M 38.63 42.48 C 36.05 38.61 35.33 32.01 40.01 29.44 C 42.91 28.75 46.02 29.42 48.74 30.54 C 48.02 30.47 46.58 30.32 45.86 30.24 C 42.85 33.56 40.31 37.86 41.27 42.52 C 41.69 45.59 44.17 47.86 44.80 50.79 C 42.00 48.83 40.49 45.33 38.63 42.48 Z" />
<path fill="#ffffff" opacity="1.00" d=" M 16.53 39.00 C 17.47 35.64 20.82 34.04 23.52 32.30 C 22.15 36.35 22.62 40.79 24.68 44.52 C 27.61 50.66 34.92 52.83 38.42 58.50 C 39.64 60.31 39.26 62.59 39.49 64.66 C 37.85 65.48 36.25 66.37 34.63 67.22 C 34.38 65.40 34.27 63.44 33.08 61.94 C 29.08 56.58 22.60 53.77 18.60 48.42 C 16.71 45.71 15.87 42.25 16.53 39.00 Z" />
<path fill="#ffffff" opacity="1.00" d=" M 14.53 37.43 C 15.39 35.67 16.55 34.08 18.10 32.87 C 15.73 35.47 14.40 38.75 14.34 42.28 C 12.82 42.75 11.03 42.70 9.77 43.77 C 7.23 47.70 6.68 52.40 5.37 56.79 C 1.88 58.67 3.07 63.29 4.19 66.27 C 3.93 68.67 3.27 71.25 4.53 73.49 C 5.97 74.24 7.58 74.55 9.13 74.96 C 9.65 75.06 10.70 75.25 11.23 75.35 C 8.35 76.20 5.55 75.12 3.66 72.87 C 3.04 70.78 3.36 68.48 3.90 66.40 C 3.43 65.40 2.96 64.40 2.47 63.40 C 2.45 62.09 2.44 60.77 2.42 59.45 C 4.52 56.21 7.29 52.77 6.35 48.62 C 7.40 46.48 8.52 44.34 10.19 42.60 C 10.86 42.45 12.22 42.15 12.89 42.00 C 14.46 40.99 14.30 39.05 14.53 37.43 Z" />
<path fill="#ffffff" opacity="1.00" d=" M 11.38 47.00 C 14.64 54.33 21.85 58.33 27.43 63.64 C 28.75 64.79 29.40 66.46 30.00 68.05 C 28.08 69.41 25.84 69.94 23.52 70.01 C 23.01 67.54 22.03 65.22 20.89 62.98 C 20.43 63.87 19.98 64.76 19.55 65.65 C 18.75 64.97 18.00 64.23 17.32 63.43 C 18.20 63.03 19.07 62.63 19.94 62.21 C 16.57 59.95 12.98 57.75 10.51 54.46 C 8.56 52.12 10.75 49.40 11.38 47.00 Z" />
<path fill="#ffffff" opacity="1.00" d=" M 19.30 51.98 C 21.36 53.45 23.19 55.21 25.23 56.71 C 25.25 57.15 25.29 58.03 25.32 58.47 C 23.35 56.27 21.25 54.19 19.30 51.98 Z" />
<path fill="#ffffff" opacity="1.00" d=" M 25.79 58.77 C 26.17 58.36 26.56 57.95 26.94 57.55 C 28.77 59.54 30.94 61.30 32.29 63.68 C 32.75 65.24 32.39 66.90 32.41 68.49 C 33.93 68.31 35.45 68.14 36.97 67.91 C 35.55 68.72 33.85 68.59 32.29 68.85 C 31.50 69.60 30.70 70.35 29.91 71.09 C 33.84 66.78 30.21 60.94 25.79 58.77 Z" />
<path fill="#ffffff" opacity="1.00" d=" M 6.51 63.61 C 6.12 62.45 5.98 60.02 7.20 59.51 C 9.34 61.12 11.31 62.96 13.56 64.41 C 15.76 66.03 18.62 67.13 19.62 69.90 C 18.14 70.49 16.31 71.86 18.80 72.48 C 22.02 70.71 25.75 71.46 29.24 71.33 C 24.62 71.30 20.17 72.87 15.55 72.61 C 14.95 72.99 13.76 73.76 13.16 74.14 C 13.99 73.05 16.50 72.07 15.31 70.45 C 13.15 67.26 9.07 66.31 6.51 63.61 Z" />
<path fill="#ffffff" opacity="1.00" d=" M 46.76 63.79 C 48.98 61.80 51.61 60.39 54.25 59.05 C 51.66 61.78 47.72 62.95 45.76 66.30 C 42.89 66.61 39.98 66.82 37.23 67.78 C 39.75 65.97 42.91 66.22 45.84 65.94 C 46.07 65.40 46.53 64.33 46.76 63.79 Z" />
<path fill="#ffffff" opacity="1.00" d=" M 5.15 70.07 C 6.95 70.99 8.75 71.94 10.80 72.18 C 9.29 72.54 7.75 73.23 6.19 72.77 C 5.81 71.88 5.46 70.98 5.15 70.07 Z" />
</g>
<g id="#010101ff">
<path fill="#010101" opacity="1.00" d=" M 57.33 5.86 C 59.22 4.30 61.53 3.03 64.05 3.80 C 66.41 4.99 68.06 7.35 68.50 9.95 C 70.66 17.09 69.85 24.67 68.95 31.93 C 67.88 34.43 67.63 38.09 64.61 39.02 C 63.50 44.45 63.19 50.25 59.63 54.79 C 59.27 55.09 58.55 55.69 58.19 55.99 C 57.04 57.08 55.76 58.04 54.45 58.94 L 54.25 59.05 C 51.61 60.39 48.98 61.80 46.76 63.79 C 46.53 64.33 46.07 65.40 45.84 65.94 C 42.91 66.22 39.75 65.97 37.23 67.78 L 36.97 67.91 C 35.45 68.14 33.93 68.31 32.41 68.49 C 32.39 66.90 32.75 65.24 32.29 63.68 C 30.94 61.30 28.77 59.54 26.94 57.55 C 26.56 57.95 26.17 58.36 25.79 58.77 C 30.21 60.94 33.84 66.78 29.91 71.09 L 29.24 71.33 C 25.75 71.46 22.02 70.71 18.80 72.48 C 16.31 71.86 18.14 70.49 19.62 69.90 C 18.62 67.13 15.76 66.03 13.56 64.41 C 11.31 62.96 9.34 61.12 7.20 59.51 C 5.98 60.02 6.12 62.45 6.51 63.61 C 9.07 66.31 13.15 67.26 15.31 70.45 C 16.50 72.07 13.99 73.05 13.16 74.14 C 12.67 74.44 11.71 75.05 11.23 75.35 C 10.70 75.25 9.65 75.06 9.13 74.96 C 7.58 74.55 5.97 74.24 4.53 73.49 C 3.27 71.25 3.93 68.67 4.19 66.27 C 3.07 63.29 1.88 58.67 5.37 56.79 C 6.68 52.40 7.23 47.70 9.77 43.77 C 11.03 42.70 12.82 42.75 14.34 42.28 C 14.40 38.75 15.73 35.47 18.10 32.87 C 18.54 32.62 19.41 32.13 19.85 31.88 C 22.05 30.71 24.31 29.59 26.31 28.08 C 29.89 24.40 32.66 19.33 37.64 17.44 C 37.99 17.31 38.68 17.04 39.02 16.91 C 39.46 16.51 40.33 15.72 40.76 15.32 C 46.90 13.77 53.52 15.99 59.41 13.16 C 57.73 11.10 56.43 8.57 57.33 5.86 M 37.86 20.83 C 32.58 24.32 28.65 30.68 28.77 37.09 C 31.61 46.38 41.37 50.91 45.50 59.44 C 44.42 61.02 44.40 62.91 44.37 64.75 C 45.00 62.76 45.92 60.78 45.71 58.63 C 42.39 50.99 33.90 47.09 31.47 38.92 C 30.86 34.70 30.91 29.51 34.57 26.62 C 40.07 22.15 47.71 25.57 54.04 23.85 C 58.24 23.13 60.63 19.11 61.82 15.36 C 55.05 21.51 45.11 15.83 37.86 20.83 M 66.56 19.93 C 64.01 26.74 56.66 31.34 49.41 30.18 C 50.34 33.32 47.81 35.85 47.54 38.87 C 46.60 43.04 47.33 47.30 47.80 51.48 C 47.35 51.59 46.47 51.82 46.03 51.93 L 45.29 52.31 C 46.99 54.81 48.15 57.60 48.80 60.54 C 51.88 57.29 56.70 56.20 59.22 52.37 C 61.74 49.10 61.20 44.74 62.00 40.93 C 63.17 38.09 66.11 36.12 66.32 32.87 C 66.62 28.57 66.28 24.24 66.56 19.93 M 33.97 30.98 C 32.59 35.40 33.53 40.13 36.41 43.72 L 36.70 43.55 C 33.21 38.48 33.17 30.67 38.74 27.04 C 36.91 27.98 34.50 28.70 33.97 30.98 M 38.63 42.48 C 40.49 45.33 42.00 48.83 44.80 50.79 C 44.17 47.86 41.69 45.59 41.27 42.52 C 40.31 37.86 42.85 33.56 45.86 30.24 C 46.58 30.32 48.02 30.47 48.74 30.54 C 46.02 29.42 42.91 28.75 40.01 29.44 C 35.33 32.01 36.05 38.61 38.63 42.48 M 16.53 39.00 C 15.87 42.25 16.71 45.71 18.60 48.42 C 22.60 53.77 29.08 56.58 33.08 61.94 C 34.27 63.44 34.38 65.40 34.63 67.22 C 36.25 66.37 37.85 65.48 39.49 64.66 C 39.26 62.59 39.64 60.31 38.42 58.50 C 34.92 52.83 27.61 50.66 24.68 44.52 C 22.62 40.79 22.15 36.35 23.52 32.30 C 20.82 34.04 17.47 35.64 16.53 39.00 M 11.38 47.00 C 10.75 49.40 8.56 52.12 10.51 54.46 C 12.98 57.75 16.57 59.95 19.94 62.21 C 19.07 62.63 18.20 63.03 17.32 63.43 C 18.00 64.23 18.75 64.97 19.55 65.65 C 19.98 64.76 20.43 63.87 20.89 62.98 C 22.03 65.22 23.01 67.54 23.52 70.01 C 25.84 69.94 28.08 69.41 30.00 68.05 C 29.40 66.46 28.75 64.79 27.43 63.64 C 21.85 58.33 14.64 54.33 11.38 47.00 M 19.30 51.98 C 21.25 54.19 23.35 56.27 25.32 58.47 C 25.29 58.03 25.25 57.15 25.23 56.71 C 23.19 55.21 21.36 53.45 19.30 51.98 M 5.15 70.07 C 5.46 70.98 5.81 71.88 6.19 72.77 C 7.75 73.23 9.29 72.54 10.80 72.18 C 8.75 71.94 6.95 70.99 5.15 70.07 Z" />
</g>
</svg>
