<?xml version="1.0" encoding="UTF-8" ?>
<!DOCTYPE svg PUBLIC "-//W3C//DTD SVG 1.1//EN" "http://www.w3.org/Graphics/SVG/1.1/DTD/svg11.dtd">
<svg width="32pt" height="32pt" viewBox="0 0 32 32" version="1.1" xmlns="http://www.w3.org/2000/svg">
<g id="#000000e9">
<path fill="#000000" opacity="0.91" d=" M 24.29 4.33 C 27.62 3.09 31.37 5.31 29.97 9.11 C 28.12 7.93 26.76 5.26 24.17 6.08 C 22.49 8.30 21.17 11.02 22.01 13.99 C 21.99 17.97 21.13 22.71 24.17 25.92 C 26.76 26.74 28.12 24.08 29.97 22.89 C 31.44 26.90 27.52 28.23 24.30 27.67 C 13.46 25.44 13.43 6.57 24.29 4.33 Z" />
<path fill="#000000" opacity="0.91" d=" M 1.93 5.02 C 6.61 5.02 11.30 4.84 15.97 5.06 C 16.04 6.40 16.03 7.75 15.96 9.10 C 13.37 8.68 11.74 6.08 9.06 5.88 C 9.03 8.94 8.87 12.02 9.06 15.08 C 11.24 15.06 12.30 12.92 13.94 11.84 C 13.94 13.65 13.95 17.29 13.95 19.10 C 11.05 18.63 6.03 12.67 8.96 22.01 C 8.53 24.03 9.97 25.50 11.07 26.98 C 8.03 26.98 5.00 27.09 1.97 26.96 C 3.31 24.88 5.60 23.17 3.98 20.00 C 3.34 15.12 5.96 8.93 1.93 5.02 Z" />
</g>
</svg>
