<?xml version="1.0" encoding="UTF-8" ?>
<!DOCTYPE svg PUBLIC "-//W3C//DTD SVG 1.1//EN" "http://www.w3.org/Graphics/SVG/1.1/DTD/svg11.dtd">
<svg width="16pt" height="16pt" viewBox="0 0 16 16" version="1.1" xmlns="http://www.w3.org/2000/svg">
<g id="#ffffffff">
<path fill="#ffffff" opacity="1.00" d=" M 0.00 0.00 L 1.62 0.00 C 1.87 1.56 1.19 3.07 0.00 4.06 L 0.00 0.00 Z" />
<path fill="#ffffff" opacity="1.00" d=" M 6.02 0.00 L 16.00 0.00 L 16.00 7.53 C 15.16 5.97 13.20 5.76 12.08 7.12 L 12.09 7.66 C 12.37 9.16 11.51 11.14 12.75 12.31 C 13.63 13.97 15.07 12.29 16.00 11.73 L 16.00 15.41 C 15.33 13.31 11.86 13.56 12.38 16.00 L 10.97 16.00 C 10.68 13.29 7.32 13.16 7.17 16.00 L 2.81 16.00 C 4.40 13.36 -0.39 13.32 1.02 16.00 L 0.00 16.00 L 0.00 5.06 C 0.26 5.81 0.77 7.30 1.02 8.04 C 1.06 9.70 1.02 11.35 0.99 13.01 C 1.48 13.01 2.47 13.01 2.96 13.01 C 2.98 11.37 2.99 9.72 3.11 8.07 C 3.54 6.22 3.73 4.32 3.10 2.49 C 4.07 1.66 5.05 0.83 6.02 0.00 M 7.29 7.72 C 7.13 9.07 6.98 10.43 6.84 11.78 C 7.41 12.14 8.57 12.85 9.14 13.20 C 10.49 12.49 10.98 11.00 11.45 9.66 C 10.82 10.06 9.56 10.86 8.93 11.25 C 8.96 10.51 9.01 9.01 9.04 8.27 L 10.03 8.31 C 10.17 8.25 10.45 8.13 10.59 8.07 C 11.68 5.70 6.60 5.38 7.29 7.72 M 4.15 11.18 C 3.65 12.81 4.21 13.36 5.83 12.82 C 6.33 11.19 5.77 10.64 4.15 11.18 Z" />
<path fill="#ffffff" opacity="1.00" d=" M 14.38 8.32 L 15.34 8.26 C 15.51 8.38 15.84 8.63 16.00 8.75 L 16.00 9.50 C 15.50 9.82 14.49 10.48 13.98 10.80 C 14.08 10.18 14.28 8.94 14.38 8.32 Z" />
</g>
<g id="#2159a3ff">
<path fill="#2159a3" opacity="1.00" d=" M 1.62 0.00 L 6.02 0.00 C 5.05 0.83 4.07 1.66 3.10 2.49 C 3.73 4.32 3.54 6.22 3.11 8.07 C 2.59 8.07 1.54 8.05 1.02 8.04 C 0.77 7.30 0.26 5.81 0.00 5.06 L 0.00 4.06 C 1.19 3.07 1.87 1.56 1.62 0.00 Z" />
</g>
<g id="#ff0062ff">
<path fill="#ff0062" opacity="1.00" d=" M 7.29 7.72 C 6.60 5.38 11.68 5.70 10.59 8.07 L 10.03 8.31 L 9.04 8.27 C 8.60 8.13 7.73 7.86 7.29 7.72 Z" />
<path fill="#ff0062" opacity="1.00" d=" M 12.08 7.12 C 13.20 5.76 15.16 5.97 16.00 7.53 L 16.00 8.13 L 15.34 8.26 L 14.38 8.32 C 13.81 8.15 12.66 7.83 12.09 7.66 L 12.08 7.12 Z" />
</g>
<g id="#4085deff">
<path fill="#4085de" opacity="1.00" d=" M 1.02 8.04 C 1.54 8.05 2.59 8.07 3.11 8.07 C 2.99 9.72 2.98 11.37 2.96 13.01 C 2.47 13.01 1.48 13.01 0.99 13.01 C 1.02 11.35 1.06 9.70 1.02 8.04 Z" />
</g>
<g id="#ff00e4ff">
<path fill="#ff00e4" opacity="1.00" d=" M 7.29 7.72 C 7.73 7.86 8.60 8.13 9.04 8.27 C 9.01 9.01 8.96 10.51 8.93 11.25 C 9.56 10.86 10.82 10.06 11.45 9.66 C 10.98 11.00 10.49 12.49 9.14 13.20 C 8.57 12.85 7.41 12.14 6.84 11.78 C 6.98 10.43 7.13 9.07 7.29 7.72 Z" />
<path fill="#ff00e4" opacity="1.00" d=" M 12.09 7.66 C 12.66 7.83 13.81 8.15 14.38 8.32 C 14.28 8.94 14.08 10.18 13.98 10.80 C 14.49 10.48 15.50 9.82 16.00 9.50 L 16.00 11.73 C 15.07 12.29 13.63 13.97 12.75 12.31 C 11.51 11.14 12.37 9.16 12.09 7.66 Z" />
</g>
<g id="#ff00e6ff">
<path fill="#ff00e6" opacity="1.00" d=" M 10.03 8.31 L 10.59 8.07 C 10.45 8.13 10.17 8.25 10.03 8.31 Z" />
<path fill="#ff00e6" opacity="1.00" d=" M 15.34 8.26 L 16.00 8.13 L 16.00 8.75 C 15.84 8.63 15.51 8.38 15.34 8.26 Z" />
<path fill="#ff00e6" opacity="1.00" d=" M 4.15 11.18 C 5.77 10.64 6.33 11.19 5.83 12.82 C 4.21 13.36 3.65 12.81 4.15 11.18 Z" />
</g>
<g id="#92b2dbff">
<path fill="#92b2db" opacity="1.00" d=" M 1.02 16.00 C -0.39 13.32 4.40 13.36 2.81 16.00 L 1.02 16.00 Z" />
</g>
<g id="#ff98efff">
<path fill="#ff98ef" opacity="1.00" d=" M 7.17 16.00 C 7.32 13.16 10.68 13.29 10.97 16.00 L 7.17 16.00 Z" />
<path fill="#ff98ef" opacity="1.00" d=" M 12.38 16.00 C 11.86 13.56 15.33 13.31 16.00 15.41 L 16.00 16.00 L 12.38 16.00 Z" />
</g>
</svg>
