<?xml version="1.0" encoding="UTF-8" ?>
<!DOCTYPE svg PUBLIC "-//W3C//DTD SVG 1.1//EN" "http://www.w3.org/Graphics/SVG/1.1/DTD/svg11.dtd">
<svg width="107pt" height="128pt" viewBox="0 0 107 128" version="1.1" xmlns="http://www.w3.org/2000/svg">
<g id="#ffffffff">
<path fill="#ffffff" opacity="1.00" d=" M 0.00 0.00 L 8.20 0.00 C 8.20 39.47 8.20 78.93 8.21 118.40 C 23.47 107.84 38.69 97.22 53.96 86.67 C 69.21 97.21 84.41 107.82 99.66 118.36 C 99.67 78.91 99.67 39.45 99.67 0.00 L 107.00 0.00 L 107.00 128.00 L 0.00 128.00 L 0.00 0.00 Z" />
<path fill="#ffffff" opacity="1.00" d=" M 53.78 20.85 C 57.58 15.88 64.67 14.84 70.20 17.33 L 70.16 17.45 C 69.55 19.11 68.96 20.79 68.37 22.46 C 65.39 22.73 61.82 22.03 59.43 24.28 C 56.77 27.48 57.48 31.92 57.35 35.77 C 59.88 35.89 62.41 36.03 64.94 35.98 C 65.14 38.00 65.31 40.02 65.47 42.04 C 62.78 41.95 60.08 42.01 57.39 42.18 C 57.12 47.46 58.02 53.67 53.87 57.76 C 50.09 62.31 43.53 63.01 38.28 60.87 C 38.58 59.34 38.88 57.81 39.23 56.28 C 40.49 56.13 41.75 55.98 43.01 55.82 C 45.46 55.41 48.37 54.97 49.73 52.59 C 51.24 49.41 50.88 45.77 51.06 42.35 C 48.40 42.18 45.73 42.02 43.07 41.87 C 43.05 39.84 43.01 37.80 42.94 35.77 C 45.62 35.93 48.31 35.98 51.00 36.02 C 51.09 30.90 50.12 25.06 53.78 20.85 Z" />
</g>
<g id="#3e6eb2ff">
<path fill="#3e6eb2" opacity="1.00" d=" M 8.20 0.00 L 99.67 0.00 C 99.67 39.45 99.67 78.91 99.66 118.36 C 84.41 107.82 69.21 97.21 53.96 86.67 C 38.69 97.22 23.47 107.84 8.21 118.40 C 8.20 78.93 8.20 39.47 8.20 0.00 M 50.62 10.06 C 42.70 12.18 35.31 17.17 31.58 24.63 C 28.17 30.83 28.23 38.13 28.11 45.01 C 28.05 50.59 27.80 56.29 29.28 61.73 C 31.53 65.31 36.28 65.03 39.97 65.04 C 48.31 64.72 56.97 65.98 65.00 63.07 C 74.00 59.91 80.94 51.79 82.99 42.52 C 84.38 39.38 84.78 35.58 82.98 32.52 C 81.23 21.41 72.06 12.56 61.25 10.07 C 57.99 8.40 53.87 8.30 50.62 10.06 Z" />
<path fill="#3e6eb2" opacity="1.00" d=" M 70.16 17.45 C 77.47 20.75 79.62 31.34 74.39 37.32 C 72.24 40.08 68.95 41.76 65.47 42.04 C 65.31 40.02 65.14 38.00 64.94 35.98 C 67.11 34.64 70.03 33.36 70.36 30.49 C 70.58 27.68 69.17 25.08 68.37 22.46 C 68.96 20.79 69.55 19.11 70.16 17.45 Z" />
<path fill="#3e6eb2" opacity="1.00" d=" M 32.96 41.96 C 35.12 38.46 38.99 36.47 42.94 35.77 C 43.01 37.80 43.05 39.84 43.07 41.87 C 40.83 43.75 37.39 45.48 37.79 48.93 C 37.17 52.47 40.57 54.18 43.01 55.82 C 41.75 55.98 40.49 56.13 39.23 56.28 C 38.88 57.81 38.58 59.34 38.28 60.87 C 31.41 57.97 28.44 48.07 32.96 41.96 Z" />
</g>
<g id="#5f7ba8ff">
<path fill="#5f7ba8" opacity="1.00" d=" M 50.62 10.06 C 53.87 8.30 57.99 8.40 61.25 10.07 C 57.71 9.89 54.16 9.88 50.62 10.06 Z" />
</g>
<g id="#294172ff">
<path fill="#294172" opacity="1.00" d=" M 31.58 24.63 C 35.31 17.17 42.70 12.18 50.62 10.06 C 54.16 9.88 57.71 9.89 61.25 10.07 C 72.06 12.56 81.23 21.41 82.98 32.52 C 83.12 35.85 83.11 39.19 82.99 42.52 C 80.94 51.79 74.00 59.91 65.00 63.07 C 56.97 65.98 48.31 64.72 39.97 65.04 C 36.28 65.03 31.53 65.31 29.28 61.73 C 27.80 56.29 28.05 50.59 28.11 45.01 C 28.23 38.13 28.17 30.83 31.58 24.63 M 53.78 20.85 C 50.12 25.06 51.09 30.90 51.00 36.02 C 48.31 35.98 45.62 35.93 42.94 35.77 C 38.99 36.47 35.12 38.46 32.96 41.96 C 28.44 48.07 31.41 57.97 38.28 60.87 C 43.53 63.01 50.09 62.31 53.87 57.76 C 58.02 53.67 57.12 47.46 57.39 42.18 C 60.08 42.01 62.78 41.95 65.47 42.04 C 68.95 41.76 72.24 40.08 74.39 37.32 C 79.62 31.34 77.47 20.75 70.16 17.45 L 70.20 17.33 C 64.67 14.84 57.58 15.88 53.78 20.85 Z" />
<path fill="#294172" opacity="1.00" d=" M 59.43 24.28 C 61.82 22.03 65.39 22.73 68.37 22.46 C 69.17 25.08 70.58 27.68 70.36 30.49 C 70.03 33.36 67.11 34.64 64.94 35.98 C 62.41 36.03 59.88 35.89 57.35 35.77 C 57.48 31.92 56.77 27.48 59.43 24.28 Z" />
<path fill="#294172" opacity="1.00" d=" M 43.07 41.87 C 45.73 42.02 48.40 42.18 51.06 42.35 C 50.88 45.77 51.24 49.41 49.73 52.59 C 48.37 54.97 45.46 55.41 43.01 55.82 C 40.57 54.18 37.17 52.47 37.79 48.93 C 37.39 45.48 40.83 43.75 43.07 41.87 Z" />
</g>
<g id="#5f7aa7ff">
<path fill="#5f7aa7" opacity="1.00" d=" M 82.98 32.52 C 84.78 35.58 84.38 39.38 82.99 42.52 C 83.11 39.19 83.12 35.85 82.98 32.52 Z" />
</g>
</svg>
