<?xml version="1.0" encoding="UTF-8" ?>
<!DOCTYPE svg PUBLIC "-//W3C//DTD SVG 1.1//EN" "http://www.w3.org/Graphics/SVG/1.1/DTD/svg11.dtd">
<svg width="32pt" height="32pt" viewBox="0 0 32 32" version="1.1" xmlns="http://www.w3.org/2000/svg">
<g id="#3d92b1ff">
<path fill="#3d92b1" opacity="1.00" d=" M 0.00 0.00 L 32.00 0.00 L 32.00 1.05 C 21.67 0.97 11.34 1.02 1.01 1.00 C 1.00 11.33 1.00 21.67 1.00 32.00 L 0.00 32.00 L 0.00 0.00 Z" />
<path fill="#3d92b1" opacity="1.00" d=" M 5.78 10.93 C 6.58 9.15 6.49 6.31 8.99 6.02 C 10.69 5.59 14.40 5.40 14.05 8.00 C 13.10 9.79 9.57 8.14 9.58 10.89 C 10.81 11.82 12.92 12.04 13.01 13.90 C 11.97 14.38 10.89 14.74 9.78 14.99 C 9.75 18.53 10.05 22.10 9.53 25.62 C 8.52 26.84 7.50 26.85 6.47 25.63 C 5.98 22.14 6.29 18.59 6.22 15.07 C 5.56 14.80 4.23 14.26 3.57 14.00 C 2.97 12.50 5.17 11.98 5.78 10.93 Z" />
<path fill="#3d92b1" opacity="1.00" d=" M 15.02 7.04 C 15.42 4.91 17.18 5.67 18.05 6.99 C 18.33 9.09 18.19 11.22 18.15 13.33 C 20.11 12.24 22.24 10.77 24.61 11.53 C 31.21 13.41 30.71 25.07 23.96 26.38 C 22.05 26.74 20.39 25.40 18.61 24.96 C 17.39 25.65 15.08 27.65 14.84 24.95 C 14.51 18.99 14.52 12.99 15.02 7.04 M 20.41 14.64 C 18.17 15.95 17.95 18.98 18.63 21.23 C 19.40 23.56 22.83 24.52 24.41 22.45 C 27.17 19.66 24.99 12.45 20.41 14.64 Z" />
</g>
<g id="#ffffffff">
<path fill="#ffffff" opacity="1.00" d=" M 1.01 1.00 C 11.34 1.02 21.67 0.97 32.00 1.05 L 32.00 32.00 L 1.00 32.00 C 1.00 21.67 1.00 11.33 1.01 1.00 M 5.78 10.93 C 5.17 11.98 2.97 12.50 3.57 14.00 C 4.23 14.26 5.56 14.80 6.22 15.07 C 6.29 18.59 5.98 22.14 6.47 25.63 C 7.50 26.85 8.52 26.84 9.53 25.62 C 10.05 22.10 9.75 18.53 9.78 14.99 C 10.89 14.74 11.97 14.38 13.01 13.90 C 12.92 12.04 10.81 11.82 9.58 10.89 C 9.57 8.14 13.10 9.79 14.05 8.00 C 14.40 5.40 10.69 5.59 8.99 6.02 C 6.49 6.31 6.58 9.15 5.78 10.93 M 15.02 7.04 C 14.52 12.99 14.51 18.99 14.84 24.95 C 15.08 27.65 17.39 25.65 18.61 24.96 C 20.39 25.40 22.05 26.74 23.96 26.38 C 30.71 25.07 31.21 13.41 24.61 11.53 C 22.24 10.77 20.11 12.24 18.15 13.33 C 18.19 11.22 18.33 9.09 18.05 6.99 C 17.18 5.67 15.42 4.91 15.02 7.04 Z" />
<path fill="#ffffff" opacity="1.00" d=" M 20.41 14.64 C 24.99 12.45 27.17 19.66 24.41 22.45 C 22.83 24.52 19.40 23.56 18.63 21.23 C 17.95 18.98 18.17 15.95 20.41 14.64 Z" />
</g>
</svg>
