<?xml version="1.0" encoding="UTF-8" ?>
<!DOCTYPE svg PUBLIC "-//W3C//DTD SVG 1.1//EN" "http://www.w3.org/Graphics/SVG/1.1/DTD/svg11.dtd">
<svg width="64pt" height="64pt" viewBox="0 0 64 64" version="1.1" xmlns="http://www.w3.org/2000/svg">
<g id="#ef4d1efc">
<path fill="#ef4d1e" opacity="1.00" d=" M 12.95 7.97 C 15.72 0.35 25.56 1.96 32.00 2.05 C 32.00 8.70 32.00 15.35 32.00 22.00 C 27.80 22.00 23.61 22.00 19.42 21.99 C 14.00 20.00 9.86 13.61 12.95 7.97 Z" />
</g>
<g id="#fc7161fc">
<path fill="#fc7161" opacity="1.00" d=" M 32.00 2.05 C 37.32 2.38 43.34 0.47 47.98 3.99 C 54.63 8.48 52.24 19.79 44.57 21.98 C 42.77 22.00 40.98 22.03 39.18 22.10 C 37.39 22.08 33.79 22.02 32.00 22.00 C 32.00 15.35 32.00 8.70 32.00 2.05 Z" />
</g>
<g id="#a058fcfc">
<path fill="#a058fc" opacity="1.00" d=" M 19.42 21.99 C 23.61 22.00 27.80 22.00 32.00 22.00 C 32.02 23.79 32.05 27.38 32.07 29.18 C 32.03 31.05 32.05 32.92 32.15 34.79 C 32.10 36.59 32.01 40.20 31.96 42.00 C 27.78 42.00 23.61 42.00 19.43 42.00 C 13.67 39.96 9.72 32.92 13.28 27.27 C 14.10 24.37 17.14 23.46 19.42 21.99 Z" />
</g>
<g id="#02121819">
<path fill="#021218" opacity="0.10" d=" M 32.00 22.00 C 33.79 22.02 37.39 22.08 39.18 22.10 C 35.98 23.54 33.87 26.27 32.07 29.18 C 32.05 27.38 32.02 23.79 32.00 22.00 Z" />
</g>
<g id="#19b7f8f9">
<path fill="#19b7f8" opacity="0.98" d=" M 39.18 22.10 C 40.98 22.03 42.77 22.00 44.57 21.98 C 50.31 24.05 54.26 31.04 50.73 36.73 C 47.24 44.74 34.37 42.94 32.15 34.79 C 32.05 32.92 32.03 31.05 32.07 29.18 C 33.87 26.27 35.98 23.54 39.18 22.10 Z" />
</g>
<g id="#0acb81fa">
<path fill="#0acb81" opacity="0.98" d=" M 19.43 42.00 C 23.61 42.00 27.78 42.00 31.96 42.00 C 31.43 46.58 33.39 51.78 31.02 56.03 C 29.08 61.88 20.70 63.84 16.02 60.00 C 9.36 55.51 11.78 44.23 19.43 42.00 Z" />
</g>
</svg>
