<?xml version="1.0" encoding="UTF-8" ?>
<!DOCTYPE svg PUBLIC "-//W3C//DTD SVG 1.1//EN" "http://www.w3.org/Graphics/SVG/1.1/DTD/svg11.dtd">
<svg width="32pt" height="32pt" viewBox="0 0 32 32" version="1.1" xmlns="http://www.w3.org/2000/svg">
<g id="#e02f2fff">
<path fill="#e02f2f" opacity="1.00" d=" M 0.00 11.78 C 0.10 8.99 0.66 4.78 4.15 4.47 C 12.03 3.96 19.98 3.96 27.86 4.47 C 31.28 4.79 31.87 8.90 32.00 11.65 L 32.00 20.63 C 31.75 22.57 31.67 24.75 30.28 26.29 C 29.03 27.87 26.82 27.55 25.04 27.75 C 19.00 27.92 12.95 27.92 6.91 27.74 C 5.15 27.56 3.01 27.77 1.72 26.30 C 0.10 24.49 0.17 21.88 0.00 19.61 L 0.00 11.78 M 12.22 10.07 C 12.17 14.03 11.43 18.02 12.30 21.93 C 15.48 19.87 18.75 17.95 22.00 16.00 C 18.74 14.02 15.44 12.11 12.22 10.07 Z" />
</g>
<g id="#ffffffff">
<path fill="#ffffff" opacity="1.00" d=" M 12.22 10.07 C 15.44 12.11 18.74 14.02 22.00 16.00 C 18.75 17.95 15.48 19.87 12.30 21.93 C 11.43 18.02 12.17 14.03 12.22 10.07 Z" />
</g>
</svg>
