<?xml version="1.0" encoding="UTF-8" ?>
<!DOCTYPE svg PUBLIC "-//W3C//DTD SVG 1.1//EN" "http://www.w3.org/Graphics/SVG/1.1/DTD/svg11.dtd">
<svg width="144pt" height="144pt" viewBox="0 0 144 144" version="1.1" xmlns="http://www.w3.org/2000/svg">
<g id="#000000ff">
<path fill="#000000" opacity="1.00" d=" M 27.54 0.00 L 117.00 0.00 C 131.01 1.49 142.87 13.47 144.00 27.55 L 144.00 116.99 C 142.54 130.75 131.03 142.39 117.30 144.00 L 26.85 144.00 C 13.16 142.51 1.60 131.00 0.00 117.33 L 0.00 26.83 C 1.53 12.88 13.53 1.11 27.54 0.00 M 33.84 19.00 C 20.57 28.50 11.24 43.06 7.85 59.00 C 5.73 70.02 6.40 81.46 9.76 92.15 C 16.13 111.80 32.21 127.86 51.85 134.24 C 73.98 141.50 99.80 135.86 116.59 119.65 C 129.77 107.59 137.30 89.87 137.36 72.05 C 137.30 54.93 130.41 37.84 118.10 25.85 C 105.88 13.33 88.36 6.39 70.91 6.65 C 57.70 6.96 44.55 11.20 33.84 19.00 Z" />
<path fill="#000000" opacity="1.00" d=" M 55.76 22.39 C 71.29 17.14 89.16 19.94 102.45 29.48 C 114.19 37.62 121.93 50.79 124.23 64.82 C 125.75 77.18 123.26 90.08 116.44 100.58 C 108.51 113.29 94.84 122.14 80.05 124.40 C 74.96 124.99 69.80 124.91 64.70 124.48 C 65.65 119.25 66.34 113.96 66.86 108.67 C 74.81 109.33 83.08 108.37 90.02 104.19 C 102.06 97.54 109.59 83.64 108.49 69.92 C 107.70 54.46 95.96 40.65 81.04 36.81 C 75.06 35.47 68.89 35.42 62.90 36.81 C 61.85 37.14 60.79 37.45 59.73 37.75 C 48.86 41.64 40.16 50.79 36.79 61.83 C 34.45 70.73 35.02 80.49 39.28 88.73 C 41.54 93.49 45.11 97.43 48.97 100.94 C 45.67 105.16 42.21 109.26 38.93 113.49 C 22.37 100.34 15.30 76.89 21.78 56.77 C 22.12 55.78 22.46 54.79 22.79 53.79 C 28.39 39.10 40.74 27.14 55.76 22.39 M 88.63 28.59 C 88.62 29.85 88.63 31.10 88.66 32.36 C 89.96 32.45 91.27 32.52 92.57 32.55 C 92.63 31.18 92.65 29.81 92.63 28.44 C 91.30 28.45 89.96 28.51 88.63 28.59 M 37.89 103.69 C 37.39 104.50 36.89 105.31 36.39 106.12 C 37.20 106.93 38.02 107.72 38.85 108.50 C 39.74 108.00 40.63 107.50 41.52 107.00 C 41.16 105.85 40.76 104.71 40.37 103.57 C 39.54 103.61 38.72 103.65 37.89 103.69 Z" />
<path fill="#000000" opacity="1.00" d=" M 64.91 40.48 C 74.81 38.10 85.64 41.05 93.35 47.60 C 98.92 52.24 102.47 58.87 104.28 65.82 C 105.35 73.35 104.77 81.32 100.99 88.05 C 97.71 94.51 91.99 99.29 85.74 102.74 C 85.31 102.03 84.89 101.32 84.46 100.61 C 84.07 100.34 83.28 99.80 82.88 99.53 C 80.90 100.45 80.00 102.37 81.47 104.23 C 76.89 105.48 72.13 105.74 67.42 105.36 C 68.02 101.13 68.49 96.87 69.27 92.67 C 71.91 92.72 74.55 92.60 77.18 92.31 C 83.85 90.17 89.44 85.03 91.56 78.28 C 92.83 78.33 94.11 78.37 95.39 78.39 C 95.48 77.10 95.54 75.81 95.58 74.52 C 94.80 74.43 93.24 74.26 92.45 74.17 C 93.01 64.50 86.45 55.41 77.20 52.68 C 73.75 52.25 70.26 52.24 66.81 52.69 C 59.06 55.09 53.03 61.77 51.74 69.83 C 51.72 71.60 51.72 73.38 51.74 75.15 C 52.71 80.21 55.21 84.88 59.13 88.26 C 56.68 91.45 54.28 94.70 51.57 97.69 C 49.65 97.85 48.70 95.70 47.41 94.63 C 39.44 86.22 37.36 73.56 40.48 62.63 C 41.88 62.64 43.29 62.62 44.69 62.57 C 44.86 60.58 44.61 58.58 42.35 57.95 C 46.89 49.22 55.21 42.47 64.91 40.48 M 47.93 57.42 C 47.48 58.27 47.03 59.12 46.57 59.98 C 46.89 60.45 47.52 61.40 47.83 61.88 C 49.07 61.73 50.30 61.55 51.53 61.36 C 51.63 59.09 50.35 57.25 47.93 57.42 Z" />
<path fill="#000000" opacity="1.00" d=" M 67.18 56.55 C 74.95 53.89 83.95 58.47 87.22 65.83 C 87.58 66.85 87.94 67.86 88.33 68.86 C 89.99 76.83 85.50 85.06 78.12 88.29 C 75.32 89.00 72.46 89.51 69.56 89.43 C 70.39 84.62 70.73 79.75 71.64 74.95 C 73.85 74.53 74.59 72.80 74.44 70.71 C 73.24 70.52 72.05 70.35 70.85 70.19 C 70.57 70.63 70.01 71.51 69.73 71.95 C 69.91 72.52 70.26 73.66 70.44 74.23 C 67.89 78.01 64.71 81.31 62.00 84.98 C 61.48 84.88 60.45 84.70 59.93 84.61 C 57.32 81.30 54.96 77.41 55.24 73.02 C 54.66 65.60 60.12 58.51 67.18 56.55 Z" />
</g>
<g id="#ffffffff">
<path fill="#ffffff" opacity="1.00" d=" M 33.84 19.00 C 44.55 11.20 57.70 6.96 70.91 6.65 C 88.36 6.39 105.88 13.33 118.10 25.85 C 130.41 37.84 137.30 54.93 137.36 72.05 C 137.30 89.87 129.77 107.59 116.59 119.65 C 99.80 135.86 73.98 141.50 51.85 134.24 C 32.21 127.86 16.13 111.80 9.76 92.15 C 6.40 81.46 5.73 70.02 7.85 59.00 C 11.24 43.06 20.57 28.50 33.84 19.00 M 55.76 22.39 C 40.74 27.14 28.39 39.10 22.79 53.79 C 22.46 54.79 22.12 55.78 21.78 56.77 C 15.30 76.89 22.37 100.34 38.93 113.49 C 42.21 109.26 45.67 105.16 48.97 100.94 C 45.11 97.43 41.54 93.49 39.28 88.73 C 35.02 80.49 34.45 70.73 36.79 61.83 C 40.16 50.79 48.86 41.64 59.73 37.75 C 60.79 37.45 61.85 37.14 62.90 36.81 C 68.89 35.42 75.06 35.47 81.04 36.81 C 95.96 40.65 107.70 54.46 108.49 69.92 C 109.59 83.64 102.06 97.54 90.02 104.19 C 83.08 108.37 74.81 109.33 66.86 108.67 C 66.34 113.96 65.65 119.25 64.70 124.48 C 69.80 124.91 74.96 124.99 80.05 124.40 C 94.84 122.14 108.51 113.29 116.44 100.58 C 123.26 90.08 125.75 77.18 124.23 64.82 C 121.93 50.79 114.19 37.62 102.45 29.48 C 89.16 19.94 71.29 17.14 55.76 22.39 M 64.91 40.48 C 55.21 42.47 46.89 49.22 42.35 57.95 C 44.61 58.58 44.86 60.58 44.69 62.57 C 43.29 62.62 41.88 62.64 40.48 62.63 C 37.36 73.56 39.44 86.22 47.41 94.63 C 48.70 95.70 49.65 97.85 51.57 97.69 C 54.28 94.70 56.68 91.45 59.13 88.26 C 55.21 84.88 52.71 80.21 51.74 75.15 C 51.72 73.38 51.72 71.60 51.74 69.83 C 53.03 61.77 59.06 55.09 66.81 52.69 C 70.26 52.24 73.75 52.25 77.20 52.68 C 86.45 55.41 93.01 64.50 92.45 74.17 C 93.24 74.26 94.80 74.43 95.58 74.52 C 95.54 75.81 95.48 77.10 95.39 78.39 C 94.11 78.37 92.83 78.33 91.56 78.28 C 89.44 85.03 83.85 90.17 77.18 92.31 C 74.55 92.60 71.91 92.72 69.27 92.67 C 68.49 96.87 68.02 101.13 67.42 105.36 C 72.13 105.74 76.89 105.48 81.47 104.23 C 80.00 102.37 80.90 100.45 82.88 99.53 C 83.28 99.80 84.07 100.34 84.46 100.61 C 84.89 101.32 85.31 102.03 85.74 102.74 C 91.99 99.29 97.71 94.51 100.99 88.05 C 104.77 81.32 105.35 73.35 104.28 65.82 C 102.47 58.87 98.92 52.24 93.35 47.60 C 85.64 41.05 74.81 38.10 64.91 40.48 M 67.18 56.55 C 60.12 58.51 54.66 65.60 55.24 73.02 C 54.96 77.41 57.32 81.30 59.93 84.61 C 60.45 84.70 61.48 84.88 62.00 84.98 C 64.71 81.31 67.89 78.01 70.44 74.23 C 70.26 73.66 69.91 72.52 69.73 71.95 C 70.01 71.51 70.57 70.63 70.85 70.19 C 72.05 70.35 73.24 70.52 74.44 70.71 C 74.59 72.80 73.85 74.53 71.64 74.95 C 70.73 79.75 70.39 84.62 69.56 89.43 C 72.46 89.51 75.32 89.00 78.12 88.29 C 85.50 85.06 89.99 76.83 88.33 68.86 C 87.94 67.86 87.58 66.85 87.22 65.83 C 83.95 58.47 74.95 53.89 67.18 56.55 Z" />
<path fill="#ffffff" opacity="1.00" d=" M 88.63 28.59 C 89.96 28.51 91.30 28.45 92.63 28.44 C 92.65 29.81 92.63 31.18 92.57 32.55 C 91.27 32.52 89.96 32.45 88.66 32.36 C 88.63 31.10 88.62 29.85 88.63 28.59 Z" />
<path fill="#ffffff" opacity="1.00" d=" M 47.93 57.42 C 50.35 57.25 51.63 59.09 51.53 61.36 C 50.30 61.55 49.07 61.73 47.83 61.88 C 47.52 61.40 46.89 60.45 46.57 59.98 C 47.03 59.12 47.48 58.27 47.93 57.42 Z" />
<path fill="#ffffff" opacity="1.00" d=" M 37.89 103.69 C 38.72 103.65 39.54 103.61 40.37 103.57 C 40.76 104.71 41.16 105.85 41.52 107.00 C 40.63 107.50 39.74 108.00 38.85 108.50 C 38.02 107.72 37.20 106.93 36.39 106.12 C 36.89 105.31 37.39 104.50 37.89 103.69 Z" />
</g>
</svg>
