<?xml version="1.0" encoding="UTF-8" ?>
<!DOCTYPE svg PUBLIC "-//W3C//DTD SVG 1.1//EN" "http://www.w3.org/Graphics/SVG/1.1/DTD/svg11.dtd">
<svg width="400pt" height="400pt" viewBox="0 0 400 400" version="1.1" xmlns="http://www.w3.org/2000/svg">
<g id="#000000ff">
<path fill="#000000" opacity="1.00" d=" M 0.00 0.00 L 400.00 0.00 L 400.00 400.00 L 0.00 400.00 L 0.00 0.00 M 186.57 30.80 C 151.97 34.61 119.67 54.67 100.81 83.91 C 86.53 105.59 79.90 132.10 82.09 157.95 C 84.28 186.78 97.73 214.50 118.83 234.23 C 139.51 253.89 167.52 265.60 196.04 266.53 C 221.11 267.56 246.46 260.42 267.21 246.28 C 290.05 231.01 307.23 207.51 314.81 181.09 C 322.09 155.96 320.74 128.40 310.87 104.16 C 300.15 77.47 279.32 55.02 253.50 42.34 C 232.95 32.06 209.37 28.12 186.57 30.80 M 46.77 288.83 C 42.76 293.04 44.20 299.27 43.94 304.51 C 42.32 304.49 40.69 304.47 39.06 304.45 C 39.03 306.45 39.03 308.46 39.04 310.48 C 40.67 310.45 42.31 310.44 43.94 310.44 C 43.94 320.23 43.94 330.03 43.94 339.82 C 46.22 339.82 48.50 339.82 50.79 339.82 C 50.84 330.03 50.81 320.24 50.81 310.45 C 52.48 310.44 54.16 310.44 55.83 310.43 C 55.82 308.45 55.81 306.46 55.80 304.48 C 54.14 304.49 52.48 304.50 50.82 304.51 C 51.35 300.34 49.25 294.98 52.94 291.88 C 53.67 291.88 55.14 291.88 55.87 291.88 C 55.83 289.72 55.81 287.57 55.76 285.42 C 52.50 285.48 48.93 286.12 46.77 288.83 M 62.83 285.55 C 62.78 303.65 62.84 321.75 62.80 339.85 C 65.07 339.83 67.34 339.82 69.61 339.80 C 69.63 321.71 69.68 303.62 69.58 285.54 C 67.33 285.55 65.08 285.55 62.83 285.55 M 121.57 285.55 C 121.55 303.64 121.56 321.73 121.56 339.83 C 123.84 339.82 126.12 339.81 128.41 339.82 C 128.54 331.25 128.32 322.68 128.50 314.12 C 129.15 309.34 137.89 308.82 138.30 314.04 C 138.49 322.63 138.28 331.22 138.40 339.81 C 140.74 339.82 143.08 339.83 145.43 339.84 C 145.43 331.58 145.47 323.33 145.43 315.09 C 145.55 310.39 143.02 305.21 138.30 303.73 C 134.98 302.51 131.42 303.47 128.34 304.88 C 128.39 298.44 128.37 292.01 128.37 285.58 C 126.10 285.57 123.83 285.56 121.57 285.55 M 157.32 304.55 C 155.65 304.55 153.98 304.56 152.30 304.57 C 152.31 306.59 152.32 308.61 152.32 310.63 C 153.98 310.63 155.65 310.62 157.32 310.63 C 157.33 316.76 157.30 322.89 157.31 329.02 C 156.92 335.40 162.87 340.80 169.18 340.03 C 169.17 337.91 169.18 335.78 169.20 333.66 C 166.88 334.02 164.11 332.63 164.22 329.99 C 164.00 323.54 164.17 317.07 164.15 310.62 C 165.83 310.62 167.51 310.63 169.20 310.65 C 169.19 308.62 169.19 306.59 169.20 304.57 C 167.50 304.56 165.81 304.56 164.12 304.56 C 164.14 298.23 164.12 291.90 164.13 285.56 C 161.86 285.56 159.59 285.56 157.32 285.55 C 157.31 291.88 157.31 298.22 157.32 304.55 M 237.61 285.68 C 237.65 291.62 237.59 297.56 237.66 303.50 C 233.40 301.88 228.03 302.23 224.96 305.92 C 222.26 308.56 222.43 312.54 222.48 316.02 C 222.56 320.98 222.39 325.94 222.54 330.90 C 222.68 336.50 228.45 341.10 233.95 340.02 C 237.45 339.20 241.02 340.15 244.57 339.87 C 244.55 321.80 244.60 303.73 244.55 285.67 C 242.23 285.68 239.92 285.69 237.61 285.68 M 78.24 290.26 C 76.22 292.00 76.51 295.75 79.11 296.77 C 81.51 298.07 84.65 295.84 84.44 293.19 C 84.47 290.22 80.54 288.52 78.24 290.26 M 298.60 302.01 C 299.38 303.91 300.15 305.82 300.87 307.75 C 304.77 305.03 310.09 302.89 314.58 305.57 C 317.99 308.14 317.67 313.23 315.57 316.56 C 311.09 323.84 303.98 328.92 298.12 334.99 C 297.77 336.56 297.91 338.19 297.87 339.79 C 307.26 339.85 316.66 339.81 326.06 339.81 C 326.10 337.64 326.09 335.48 326.03 333.31 C 320.37 333.32 314.71 333.26 309.05 333.34 C 312.83 330.11 316.49 326.73 319.75 322.97 C 322.94 319.06 325.69 314.17 325.03 308.94 C 324.74 304.43 321.61 300.18 317.26 298.82 C 310.96 296.77 303.96 298.29 298.60 302.01 M 347.29 298.65 C 342.00 306.92 336.52 315.08 331.17 323.31 C 330.04 325.11 330.68 327.37 330.53 329.38 C 336.78 329.44 343.03 329.35 349.27 329.43 C 349.25 332.88 349.24 336.34 349.26 339.79 C 351.73 339.80 354.20 339.79 356.67 339.77 C 356.71 336.31 356.71 332.86 356.64 329.40 C 358.41 329.41 360.18 329.42 361.96 329.44 C 362.01 327.44 362.04 325.45 362.08 323.46 C 360.28 323.43 358.48 323.41 356.68 323.37 C 356.65 315.10 356.73 306.83 356.65 298.55 C 353.53 298.60 350.41 298.60 347.29 298.65 M 183.77 303.33 C 181.32 302.73 178.80 302.82 176.31 302.90 C 176.31 315.22 176.31 327.54 176.31 339.86 C 178.64 339.89 180.98 339.90 183.32 339.88 C 183.34 330.62 183.28 321.36 183.33 312.10 C 183.04 309.31 186.39 308.92 188.38 308.41 C 188.38 306.44 188.37 304.47 188.37 302.51 C 186.83 302.78 185.30 303.06 183.77 303.33 M 77.18 302.77 C 77.19 315.13 77.06 327.49 77.06 339.85 C 79.35 339.87 81.64 339.87 83.94 339.87 C 84.01 327.52 84.06 315.18 84.06 302.83 C 81.77 302.82 79.47 302.81 77.18 302.77 M 94.82 305.77 C 90.68 309.73 92.41 315.87 92.06 320.94 C 92.43 325.90 90.83 331.63 94.15 335.89 C 97.14 339.74 102.65 340.32 106.96 338.54 C 106.84 341.56 107.27 344.66 106.56 347.63 C 105.90 349.58 103.76 349.95 101.97 349.85 C 101.99 351.94 102.01 354.04 102.04 356.13 C 107.60 356.59 113.33 352.40 113.46 346.59 C 113.60 332.09 113.41 317.58 113.55 303.07 C 111.17 303.04 108.66 302.61 106.40 303.56 C 102.50 302.41 97.70 302.52 94.82 305.77 M 196.70 305.73 C 192.71 309.79 194.40 315.88 194.06 320.97 C 194.47 325.97 192.77 331.67 195.96 336.06 C 198.76 339.90 204.09 340.84 208.43 339.37 C 210.89 339.92 213.42 339.86 215.93 339.84 C 215.97 327.50 215.92 315.16 215.95 302.82 C 213.56 302.80 211.13 302.63 208.80 303.27 C 204.68 302.06 199.69 302.26 196.70 305.73 M 251.95 309.97 C 251.28 314.25 251.77 318.60 251.63 322.92 C 251.86 327.61 250.53 333.24 254.28 336.92 C 257.30 340.31 262.24 340.48 266.34 339.38 C 268.70 339.93 271.14 339.86 273.55 339.85 C 273.54 327.49 273.60 315.13 273.52 302.77 C 269.97 302.56 266.44 303.63 262.95 302.69 C 258.14 301.86 253.04 305.19 251.95 309.97 M 281.08 302.85 C 281.04 315.19 281.08 327.54 281.05 339.88 C 283.39 339.89 285.73 339.88 288.07 339.89 C 288.09 330.57 288.00 321.25 288.09 311.94 C 287.95 309.22 291.16 308.90 293.12 308.42 C 293.12 306.44 293.11 304.46 293.11 302.49 C 291.65 302.77 290.19 303.06 288.73 303.37 C 286.22 302.74 283.64 302.85 281.08 302.85 M 186.66 349.51 C 186.73 354.56 186.64 359.62 186.71 364.68 C 190.05 364.63 193.41 364.87 196.75 364.53 L 197.37 363.20 C 194.52 362.91 191.66 362.90 188.81 362.89 C 188.83 358.38 188.86 353.87 188.77 349.36 C 188.24 349.40 187.19 349.47 186.66 349.51 M 198.81 349.59 C 198.82 354.62 198.81 359.65 198.81 364.68 C 199.31 364.70 200.31 364.74 200.81 364.75 C 200.89 359.57 201.01 354.38 200.73 349.21 C 200.25 349.30 199.29 349.50 198.81 349.59 M 202.65 349.69 C 204.63 354.64 206.18 359.74 208.07 364.73 C 208.66 364.71 209.86 364.67 210.45 364.65 C 212.19 359.57 214.04 354.52 215.87 349.46 C 215.31 349.45 214.21 349.43 213.65 349.42 C 212.23 353.72 210.80 358.01 209.36 362.30 C 207.57 358.03 206.39 353.54 204.75 349.21 C 204.22 349.33 203.17 349.57 202.65 349.69 M 217.50 349.44 C 217.51 354.52 217.46 359.61 217.51 364.69 C 221.01 364.66 224.51 364.68 228.01 364.72 C 228.14 364.37 228.40 363.67 228.53 363.33 C 225.59 362.74 222.58 362.92 219.60 362.93 C 219.62 361.20 219.63 359.47 219.64 357.75 C 222.28 357.14 226.59 359.23 228.11 356.30 C 225.29 355.92 222.45 355.97 219.62 355.92 C 219.62 354.35 219.61 352.79 219.59 351.23 C 222.43 351.18 225.27 351.18 228.11 351.20 C 228.09 350.75 228.05 349.85 228.04 349.40 C 224.52 349.45 221.01 349.43 217.50 349.44 M 240.81 349.49 C 238.91 354.67 236.71 359.74 234.94 364.98 C 237.78 365.23 237.88 362.01 238.81 360.12 C 240.92 360.12 243.03 360.12 245.14 360.11 C 245.70 361.60 246.24 363.09 246.78 364.60 C 247.37 364.64 248.53 364.73 249.12 364.78 C 247.32 359.60 245.12 354.57 243.19 349.45 C 242.40 349.46 241.60 349.47 240.81 349.49 M 250.74 349.54 C 250.76 354.57 250.74 359.59 250.74 364.62 C 251.25 364.66 252.29 364.74 252.81 364.78 C 252.92 359.63 252.90 354.48 252.84 349.34 C 252.31 349.39 251.26 349.49 250.74 349.54 M 256.31 349.45 C 256.29 354.55 256.31 359.65 256.32 364.75 C 256.85 364.73 257.91 364.68 258.44 364.65 C 258.42 362.49 258.43 360.33 258.44 358.18 C 260.53 358.23 262.70 357.94 264.75 358.52 C 266.35 360.09 265.82 362.63 266.26 364.65 C 266.81 364.68 267.91 364.72 268.45 364.75 C 267.91 362.20 268.26 359.20 266.19 357.27 C 266.75 356.75 267.31 356.25 267.88 355.75 C 268.38 353.69 268.43 350.76 266.00 349.92 C 262.87 349.00 259.53 349.57 256.31 349.45 M 275.11 349.52 C 275.41 352.38 278.72 350.78 280.57 351.21 C 280.56 355.70 280.57 360.19 280.56 364.68 C 281.08 364.69 282.14 364.70 282.67 364.71 C 282.70 360.20 282.69 355.69 282.68 351.19 C 284.36 351.18 286.03 351.19 287.71 351.20 C 287.73 350.76 287.77 349.89 287.79 349.45 C 283.56 349.46 279.33 349.34 275.11 349.52 M 289.50 349.46 C 289.48 354.53 289.54 359.60 289.46 364.67 C 289.99 364.68 291.04 364.71 291.57 364.73 C 291.57 362.54 291.57 360.35 291.56 358.17 C 293.75 358.33 296.14 357.74 298.19 358.72 C 299.34 360.48 299.07 362.72 299.41 364.71 C 301.14 364.72 302.87 364.65 304.60 364.67 C 305.17 363.16 305.72 361.65 306.27 360.14 C 308.39 360.12 310.51 360.11 312.64 360.12 C 313.61 362.05 313.56 365.51 316.64 364.83 C 314.81 359.66 312.63 354.63 310.76 349.48 C 310.14 349.49 308.91 349.50 308.29 349.51 C 306.63 354.40 304.24 359.04 302.99 364.07 C 302.39 363.78 301.81 363.50 301.23 363.22 C 300.97 361.21 301.23 358.89 299.48 357.48 C 301.74 355.53 302.30 351.11 299.08 349.85 C 295.95 349.08 292.68 349.56 289.50 349.46 M 318.19 349.46 C 318.20 354.56 318.14 359.67 318.23 364.78 C 318.75 364.73 319.78 364.64 320.30 364.59 C 320.32 362.31 320.32 360.03 320.32 357.76 C 322.51 357.72 324.71 357.91 326.89 357.64 C 327.83 357.26 327.87 356.76 327.01 356.14 C 324.78 355.88 322.54 355.99 320.31 355.96 C 320.30 354.37 320.30 352.78 320.29 351.20 C 322.85 351.17 325.41 351.30 327.96 351.06 L 328.62 349.56 C 325.14 349.35 321.66 349.45 318.19 349.46 M 330.52 349.50 C 330.59 354.56 330.56 359.61 330.54 364.67 C 331.06 364.68 332.10 364.71 332.62 364.72 C 332.62 362.40 332.63 360.08 332.64 357.76 C 335.07 357.76 337.50 357.75 339.93 357.69 C 339.87 357.32 339.73 356.58 339.66 356.21 C 337.32 355.87 334.95 355.99 332.60 355.93 C 332.61 354.35 332.62 352.78 332.62 351.20 C 335.26 351.20 337.90 351.19 340.54 351.18 L 340.65 349.45 C 337.27 349.43 333.89 349.41 330.52 349.50 M 350.47 350.61 C 347.65 353.22 347.18 357.71 348.63 361.15 C 350.18 365.06 355.65 366.15 358.98 363.89 C 360.67 362.86 361.03 360.76 361.78 359.09 C 361.23 359.06 360.12 359.00 359.57 358.97 C 359.15 361.23 357.55 363.62 354.92 363.27 C 348.18 363.22 348.23 350.89 354.96 350.88 C 358.13 350.11 358.60 354.56 361.58 354.29 C 360.89 349.12 354.15 347.59 350.47 350.61 M 343.09 349.69 C 342.88 354.61 342.98 359.55 343.04 364.48 C 343.56 364.57 344.61 364.75 345.13 364.83 C 345.07 359.78 345.26 354.71 345.04 349.66 L 343.93 349.13 L 343.09 349.69 Z" />
<path fill="#000000" opacity="1.00" d=" M 163.14 56.23 C 185.38 47.23 210.86 46.63 233.52 54.47 C 254.62 61.67 273.11 76.17 285.19 94.89 C 296.34 111.99 301.93 132.61 301.09 152.99 C 300.23 177.44 289.85 201.35 272.68 218.76 C 250.27 242.03 216.14 253.23 184.31 247.64 C 185.82 237.64 187.02 227.59 188.42 217.57 C 204.23 220.28 220.97 217.58 234.94 209.63 C 248.34 202.13 259.16 190.11 265.09 175.94 C 271.23 161.54 272.17 145.04 267.90 129.99 C 263.57 114.52 253.59 100.76 240.36 91.67 C 227.53 82.76 211.64 78.43 196.07 79.49 C 180.16 80.44 164.64 87.04 153.00 97.94 C 140.04 109.74 131.95 126.65 130.79 144.13 C 129.08 166.13 138.77 188.54 155.83 202.50 C 149.52 210.41 143.10 218.23 136.84 226.19 C 119.70 212.27 107.42 192.45 102.65 170.88 C 97.49 148.20 100.61 123.74 111.40 103.13 C 122.32 81.98 141.04 65.04 163.14 56.23 M 234.35 65.42 C 231.64 66.64 231.21 70.75 233.56 72.55 C 235.90 74.87 240.48 73.14 240.70 69.83 C 241.39 66.50 237.28 63.62 234.35 65.42 M 135.24 209.04 C 132.47 210.63 132.73 215.08 135.51 216.52 C 138.47 218.40 142.73 215.44 141.94 212.01 C 141.65 208.93 137.73 207.35 135.24 209.04 Z" />
<path fill="#000000" opacity="1.00" d=" M 177.16 91.33 C 191.45 85.61 207.87 85.39 222.31 90.76 C 237.09 96.15 249.62 107.36 256.67 121.42 C 263.29 134.39 265.01 149.74 261.61 163.89 C 257.28 182.73 243.55 198.90 225.91 206.69 C 226.36 203.13 222.41 200.04 219.20 202.03 C 216.42 203.58 216.72 207.30 218.55 209.48 C 209.07 212.06 199.09 212.72 189.38 211.12 C 190.25 203.09 191.52 195.11 192.45 187.08 C 201.41 188.71 210.99 187.67 219.01 183.19 C 228.38 178.29 235.36 169.32 238.16 159.16 C 239.70 160.27 241.65 161.35 243.55 160.35 C 246.58 159.16 247.02 154.49 244.21 152.80 C 242.77 151.61 240.90 152.20 239.27 152.53 C 240.19 142.30 236.81 131.78 230.06 124.04 C 223.31 116.18 213.32 111.22 202.97 110.68 C 191.74 109.93 180.29 114.37 172.56 122.56 C 163.72 131.61 159.96 145.18 162.72 157.51 C 164.41 165.70 169.17 172.90 175.18 178.60 C 169.94 184.69 165.11 191.11 159.99 197.29 C 148.00 187.25 139.89 172.63 138.08 157.07 C 136.86 147.79 138.01 138.32 140.82 129.44 C 143.04 132.01 147.92 131.50 148.67 127.87 C 149.62 124.78 146.76 122.42 143.92 122.20 C 150.60 108.21 162.76 97.01 177.16 91.33 M 154.35 121.47 C 151.59 123.15 151.99 127.91 155.07 128.99 C 157.37 130.23 160.60 128.68 161.04 126.09 C 162.34 122.38 157.36 119.04 154.35 121.47 Z" />
<path fill="#000000" opacity="1.00" d=" M 182.23 123.21 C 192.27 116.19 206.41 115.75 216.82 122.23 C 227.04 128.17 233.24 140.26 232.12 152.03 C 231.22 164.63 222.02 176.11 209.90 179.70 C 204.58 181.43 198.85 181.52 193.38 180.52 C 194.55 171.03 196.07 161.57 197.06 152.06 C 199.59 153.91 204.17 153.68 204.91 150.10 C 206.27 146.47 201.47 143.00 198.38 145.30 C 196.07 146.60 196.30 149.39 196.81 151.61 C 190.78 158.74 185.24 166.28 179.12 173.33 C 173.66 168.21 169.68 161.40 168.69 153.91 C 166.88 142.20 172.37 129.78 182.23 123.21 Z" />
<path fill="#000000" opacity="1.00" d=" M 338.09 323.42 C 342.14 317.45 346.36 311.55 349.47 305.01 C 349.15 311.15 349.25 317.29 349.24 323.43 C 345.52 323.44 341.80 323.45 338.09 323.42 Z" />
<path fill="#000000" opacity="1.00" d=" M 100.23 309.02 C 102.78 307.56 106.76 309.92 106.18 312.99 C 106.14 318.69 106.32 324.40 106.09 330.09 C 105.71 333.55 99.62 334.42 98.67 330.83 C 98.25 325.57 98.63 320.28 98.48 315.01 C 98.57 312.94 98.05 310.24 100.23 309.02 Z" />
<path fill="#000000" opacity="1.00" d=" M 202.22 309.10 C 204.44 307.57 208.42 309.15 208.44 311.98 C 208.53 317.97 208.55 323.97 208.44 329.95 C 208.58 333.87 201.60 335.07 200.75 331.03 C 200.44 325.36 200.73 319.67 200.61 313.99 C 200.64 312.31 200.37 309.94 202.22 309.10 Z" />
<path fill="#000000" opacity="1.00" d=" M 232.15 309.06 C 234.32 308.96 237.20 310.43 236.99 312.95 C 237.02 318.64 237.02 324.34 237.00 330.04 C 237.62 334.14 230.52 335.96 229.25 331.93 C 228.82 325.59 229.15 319.21 229.08 312.86 C 228.85 310.99 230.35 309.31 232.15 309.06 Z" />
<path fill="#000000" opacity="1.00" d=" M 258.46 310.47 C 260.12 307.32 264.44 308.41 266.08 310.99 C 265.98 317.34 266.15 323.68 266.03 330.03 C 265.87 332.98 261.51 334.78 259.35 332.65 C 257.67 331.34 258.34 328.84 258.16 327.00 C 258.38 321.49 257.81 315.93 258.46 310.47 Z" />
<path fill="#000000" opacity="1.00" d=" M 258.47 351.16 C 260.51 351.20 262.57 351.04 264.60 351.38 C 266.38 351.91 266.44 354.26 265.53 355.59 C 263.44 356.95 260.78 356.28 258.43 356.47 C 258.44 354.70 258.45 352.93 258.47 351.16 Z" />
<path fill="#000000" opacity="1.00" d=" M 291.55 351.19 C 294.19 351.47 299.27 349.87 299.31 354.02 C 298.65 357.63 294.11 356.06 291.57 356.46 C 291.56 354.70 291.56 352.94 291.55 351.19 Z" />
<path fill="#000000" opacity="1.00" d=" M 239.41 358.41 C 240.27 356.10 241.11 353.78 241.98 351.48 C 242.87 353.76 243.69 356.08 244.48 358.41 C 242.79 358.39 241.10 358.39 239.41 358.41 Z" />
<path fill="#000000" opacity="1.00" d=" M 306.99 358.38 C 307.80 356.01 308.65 353.67 309.55 351.34 C 310.36 353.68 311.17 356.02 312.00 358.36 C 310.33 358.35 308.66 358.36 306.99 358.38 Z" />
</g>
<g id="#ffffffff">
<path fill="#ffffff" opacity="1.00" d=" M 186.57 30.80 C 209.37 28.12 232.95 32.06 253.50 42.34 C 279.32 55.02 300.15 77.47 310.87 104.16 C 320.74 128.40 322.09 155.96 314.81 181.09 C 307.23 207.51 290.05 231.01 267.21 246.28 C 246.46 260.42 221.11 267.56 196.04 266.53 C 167.52 265.60 139.51 253.89 118.83 234.23 C 97.73 214.50 84.28 186.78 82.09 157.95 C 79.90 132.10 86.53 105.59 100.81 83.91 C 119.67 54.67 151.97 34.61 186.57 30.80 M 163.14 56.23 C 141.04 65.04 122.32 81.98 111.40 103.13 C 100.61 123.74 97.49 148.20 102.65 170.88 C 107.42 192.45 119.70 212.27 136.84 226.19 C 143.10 218.23 149.52 210.41 155.83 202.50 C 138.77 188.54 129.08 166.13 130.79 144.13 C 131.95 126.65 140.04 109.74 153.00 97.94 C 164.64 87.04 180.16 80.44 196.07 79.49 C 211.64 78.43 227.53 82.76 240.36 91.67 C 253.59 100.76 263.57 114.52 267.90 129.99 C 272.17 145.04 271.23 161.54 265.09 175.94 C 259.16 190.11 248.34 202.13 234.94 209.63 C 220.97 217.58 204.23 220.28 188.42 217.57 C 187.02 227.59 185.82 237.64 184.31 247.64 C 216.14 253.23 250.27 242.03 272.68 218.76 C 289.85 201.35 300.23 177.44 301.09 152.99 C 301.93 132.61 296.34 111.99 285.19 94.89 C 273.11 76.17 254.62 61.67 233.52 54.47 C 210.86 46.63 185.38 47.23 163.14 56.23 M 177.16 91.33 C 162.76 97.01 150.60 108.21 143.92 122.20 C 146.76 122.42 149.62 124.78 148.67 127.87 C 147.92 131.50 143.04 132.01 140.82 129.44 C 138.01 138.32 136.86 147.79 138.08 157.07 C 139.89 172.63 148.00 187.25 159.99 197.29 C 165.11 191.11 169.94 184.69 175.18 178.60 C 169.17 172.90 164.41 165.70 162.72 157.51 C 159.96 145.18 163.72 131.61 172.56 122.56 C 180.29 114.37 191.74 109.93 202.97 110.68 C 213.32 111.22 223.31 116.18 230.06 124.04 C 236.81 131.78 240.19 142.30 239.27 152.53 C 240.90 152.20 242.77 151.61 244.21 152.80 C 247.02 154.49 246.58 159.16 243.55 160.35 C 241.65 161.35 239.70 160.27 238.16 159.16 C 235.36 169.32 228.38 178.29 219.01 183.19 C 210.99 187.67 201.41 188.71 192.45 187.08 C 191.52 195.11 190.25 203.09 189.38 211.12 C 199.09 212.72 209.07 212.06 218.55 209.48 C 216.72 207.30 216.42 203.58 219.20 202.03 C 222.41 200.04 226.36 203.13 225.91 206.69 C 243.55 198.90 257.28 182.73 261.61 163.89 C 265.01 149.74 263.29 134.39 256.67 121.42 C 249.62 107.36 237.09 96.15 222.31 90.76 C 207.87 85.39 191.45 85.61 177.16 91.33 M 182.23 123.21 C 172.37 129.78 166.88 142.20 168.69 153.91 C 169.68 161.40 173.66 168.21 179.12 173.33 C 185.24 166.28 190.78 158.74 196.81 151.61 C 196.30 149.39 196.07 146.60 198.38 145.30 C 201.47 143.00 206.27 146.47 204.91 150.10 C 204.17 153.68 199.59 153.91 197.06 152.06 C 196.07 161.57 194.55 171.03 193.38 180.52 C 198.85 181.52 204.58 181.43 209.90 179.70 C 222.02 176.11 231.22 164.63 232.12 152.03 C 233.24 140.26 227.04 128.17 216.82 122.23 C 206.41 115.75 192.27 116.19 182.23 123.21 Z" />
<path fill="#ffffff" opacity="1.00" d=" M 234.35 65.42 C 237.28 63.62 241.39 66.50 240.70 69.83 C 240.48 73.14 235.90 74.87 233.56 72.55 C 231.21 70.75 231.64 66.64 234.35 65.42 Z" />
<path fill="#ffffff" opacity="1.00" d=" M 154.35 121.47 C 157.36 119.04 162.34 122.38 161.04 126.09 C 160.60 128.68 157.37 130.23 155.07 128.99 C 151.99 127.91 151.59 123.15 154.35 121.47 Z" />
<path fill="#ffffff" opacity="1.00" d=" M 135.24 209.04 C 137.73 207.35 141.65 208.93 141.94 212.01 C 142.73 215.44 138.47 218.40 135.51 216.52 C 132.73 215.08 132.47 210.63 135.24 209.04 Z" />
<path fill="#ffffff" opacity="1.00" d=" M 46.77 288.83 C 48.93 286.12 52.50 285.48 55.76 285.42 C 55.81 287.57 55.83 289.72 55.87 291.88 C 55.14 291.88 53.67 291.88 52.94 291.88 C 49.25 294.98 51.35 300.34 50.82 304.51 C 52.48 304.50 54.14 304.49 55.80 304.48 C 55.81 306.46 55.82 308.45 55.83 310.43 C 54.16 310.44 52.48 310.44 50.81 310.45 C 50.81 320.24 50.84 330.03 50.79 339.82 C 48.50 339.82 46.22 339.82 43.94 339.82 C 43.94 330.03 43.94 320.23 43.94 310.44 C 42.31 310.44 40.67 310.45 39.04 310.48 C 39.03 308.46 39.03 306.45 39.06 304.45 C 40.69 304.47 42.32 304.49 43.94 304.51 C 44.20 299.27 42.76 293.04 46.77 288.83 Z" />
<path fill="#ffffff" opacity="1.00" d=" M 62.83 285.55 C 65.08 285.55 67.33 285.55 69.58 285.54 C 69.68 303.62 69.63 321.71 69.61 339.80 C 67.34 339.82 65.07 339.83 62.80 339.85 C 62.84 321.75 62.78 303.65 62.83 285.55 Z" />
<path fill="#ffffff" opacity="1.00" d=" M 121.57 285.55 C 123.83 285.56 126.10 285.57 128.37 285.58 C 128.37 292.01 128.39 298.44 128.34 304.88 C 131.42 303.47 134.98 302.51 138.30 303.73 C 143.02 305.21 145.55 310.39 145.43 315.09 C 145.47 323.33 145.43 331.58 145.43 339.84 C 143.08 339.83 140.74 339.82 138.40 339.81 C 138.28 331.22 138.49 322.63 138.30 314.04 C 137.89 308.82 129.15 309.34 128.50 314.12 C 128.32 322.68 128.54 331.25 128.41 339.82 C 126.12 339.81 123.84 339.82 121.56 339.83 C 121.56 321.73 121.55 303.64 121.57 285.55 Z" />
<path fill="#ffffff" opacity="1.00" d=" M 157.32 304.55 C 157.31 298.22 157.31 291.88 157.32 285.55 C 159.59 285.56 161.86 285.56 164.13 285.56 C 164.12 291.90 164.14 298.23 164.12 304.56 C 165.81 304.56 167.50 304.56 169.20 304.57 C 169.19 306.59 169.19 308.62 169.20 310.65 C 167.51 310.63 165.83 310.62 164.15 310.62 C 164.17 317.07 164.00 323.54 164.22 329.99 C 164.11 332.63 166.88 334.02 169.20 333.66 C 169.18 335.78 169.17 337.91 169.18 340.03 C 162.87 340.80 156.92 335.40 157.31 329.02 C 157.30 322.89 157.33 316.76 157.32 310.63 C 155.65 310.62 153.98 310.63 152.32 310.63 C 152.32 308.61 152.31 306.59 152.30 304.57 C 153.98 304.56 155.65 304.55 157.32 304.55 Z" />
<path fill="#ffffff" opacity="1.00" d=" M 237.61 285.68 C 239.92 285.69 242.23 285.68 244.55 285.67 C 244.60 303.73 244.55 321.80 244.57 339.87 C 241.02 340.15 237.45 339.20 233.95 340.02 C 228.45 341.10 222.68 336.50 222.54 330.90 C 222.39 325.94 222.56 320.98 222.48 316.02 C 222.43 312.54 222.26 308.56 224.96 305.92 C 228.03 302.23 233.40 301.88 237.66 303.50 C 237.59 297.56 237.65 291.62 237.61 285.68 M 232.15 309.06 C 230.35 309.31 228.85 310.99 229.08 312.86 C 229.15 319.21 228.82 325.59 229.25 331.93 C 230.52 335.96 237.62 334.14 237.00 330.04 C 237.02 324.34 237.02 318.64 236.99 312.95 C 237.20 310.43 234.32 308.96 232.15 309.06 Z" />
<path fill="#ffffff" opacity="1.00" d=" M 78.24 290.26 C 80.54 288.52 84.47 290.22 84.44 293.19 C 84.65 295.84 81.51 298.07 79.11 296.77 C 76.51 295.75 76.22 292.00 78.24 290.26 Z" />
<path fill="#ffffff" opacity="1.00" d=" M 183.77 303.33 C 185.30 303.06 186.83 302.78 188.37 302.51 C 188.37 304.47 188.38 306.44 188.38 308.41 C 186.39 308.92 183.04 309.31 183.33 312.10 C 183.28 321.36 183.34 330.62 183.32 339.88 C 180.98 339.90 178.64 339.89 176.31 339.86 C 176.31 327.54 176.31 315.22 176.31 302.90 C 178.80 302.82 181.32 302.73 183.77 303.33 Z" />
<path fill="#ffffff" opacity="1.00" d=" M 77.18 302.77 C 79.47 302.81 81.77 302.82 84.06 302.83 C 84.06 315.18 84.01 327.52 83.94 339.87 C 81.64 339.87 79.35 339.87 77.06 339.85 C 77.06 327.49 77.19 315.13 77.18 302.77 Z" />
<path fill="#ffffff" opacity="1.00" d=" M 94.82 305.77 C 97.70 302.52 102.50 302.41 106.40 303.56 C 108.66 302.61 111.17 303.04 113.55 303.07 C 113.41 317.58 113.60 332.09 113.46 346.59 C 113.33 352.40 107.60 356.59 102.04 356.13 C 102.01 354.04 101.99 351.94 101.97 349.85 C 103.76 349.95 105.90 349.58 106.56 347.63 C 107.27 344.66 106.84 341.56 106.96 338.54 C 102.65 340.32 97.14 339.74 94.15 335.89 C 90.83 331.63 92.43 325.90 92.06 320.94 C 92.41 315.87 90.68 309.73 94.82 305.77 M 100.23 309.02 C 98.05 310.24 98.57 312.94 98.48 315.01 C 98.63 320.28 98.25 325.57 98.67 330.83 C 99.62 334.42 105.71 333.55 106.09 330.09 C 106.32 324.40 106.14 318.69 106.18 312.99 C 106.76 309.92 102.78 307.56 100.23 309.02 Z" />
<path fill="#ffffff" opacity="1.00" d=" M 196.70 305.73 C 199.69 302.26 204.68 302.06 208.80 303.27 C 211.13 302.63 213.56 302.80 215.95 302.82 C 215.92 315.16 215.97 327.50 215.93 339.84 C 213.42 339.86 210.89 339.92 208.43 339.37 C 204.09 340.84 198.76 339.90 195.96 336.06 C 192.77 331.67 194.47 325.97 194.06 320.97 C 194.40 315.88 192.71 309.79 196.70 305.73 M 202.22 309.10 C 200.37 309.94 200.64 312.31 200.61 313.99 C 200.73 319.67 200.44 325.36 200.75 331.03 C 201.60 335.07 208.58 333.87 208.44 329.95 C 208.55 323.97 208.53 317.97 208.44 311.98 C 208.42 309.15 204.44 307.57 202.22 309.10 Z" />
<path fill="#ffffff" opacity="1.00" d=" M 251.95 309.97 C 253.04 305.19 258.14 301.86 262.95 302.69 C 266.44 303.63 269.97 302.56 273.52 302.77 C 273.60 315.13 273.54 327.49 273.55 339.85 C 271.14 339.86 268.70 339.93 266.34 339.38 C 262.24 340.48 257.30 340.31 254.28 336.92 C 250.53 333.24 251.86 327.61 251.63 322.92 C 251.77 318.60 251.28 314.25 251.95 309.97 M 258.46 310.47 C 257.81 315.93 258.38 321.49 258.16 327.00 C 258.34 328.84 257.67 331.34 259.35 332.65 C 261.51 334.78 265.87 332.98 266.03 330.03 C 266.15 323.68 265.98 317.34 266.08 310.99 C 264.44 308.41 260.12 307.32 258.46 310.47 Z" />
<path fill="#ffffff" opacity="1.00" d=" M 281.08 302.85 C 283.64 302.85 286.22 302.74 288.73 303.37 C 290.19 303.06 291.65 302.77 293.11 302.49 C 293.11 304.46 293.12 306.44 293.12 308.42 C 291.16 308.90 287.95 309.22 288.09 311.94 C 288.00 321.25 288.09 330.57 288.07 339.89 C 285.73 339.88 283.39 339.89 281.05 339.88 C 281.08 327.54 281.04 315.19 281.08 302.85 Z" />
<path fill="#ffffff" opacity="1.00" d=" M 186.66 349.51 C 187.19 349.47 188.24 349.40 188.77 349.36 C 188.86 353.87 188.83 358.38 188.81 362.89 C 191.66 362.90 194.52 362.91 197.37 363.20 L 196.75 364.53 C 193.41 364.87 190.05 364.63 186.71 364.68 C 186.64 359.62 186.73 354.56 186.66 349.51 Z" />
<path fill="#ffffff" opacity="1.00" d=" M 198.81 349.59 C 199.29 349.50 200.25 349.30 200.73 349.21 C 201.01 354.38 200.89 359.57 200.81 364.75 C 200.31 364.74 199.31 364.70 198.81 364.68 C 198.81 359.65 198.82 354.62 198.81 349.59 Z" />
<path fill="#ffffff" opacity="1.00" d=" M 202.65 349.69 C 203.17 349.57 204.22 349.33 204.75 349.21 C 206.39 353.54 207.57 358.03 209.36 362.30 C 210.80 358.01 212.23 353.72 213.65 349.42 C 214.21 349.43 215.31 349.45 215.87 349.46 C 214.04 354.52 212.19 359.57 210.45 364.65 C 209.86 364.67 208.66 364.71 208.07 364.73 C 206.18 359.74 204.63 354.64 202.65 349.69 Z" />
<path fill="#ffffff" opacity="1.00" d=" M 217.50 349.44 C 221.01 349.43 224.52 349.45 228.04 349.40 C 228.05 349.85 228.09 350.75 228.11 351.20 C 225.27 351.18 222.43 351.18 219.59 351.23 C 219.61 352.79 219.62 354.35 219.62 355.92 C 222.45 355.97 225.29 355.92 228.11 356.30 C 226.59 359.23 222.28 357.14 219.64 357.75 C 219.63 359.47 219.62 361.20 219.60 362.93 C 222.58 362.92 225.59 362.74 228.53 363.33 C 228.40 363.67 228.14 364.37 228.01 364.72 C 224.51 364.68 221.01 364.66 217.51 364.69 C 217.46 359.61 217.51 354.52 217.50 349.44 Z" />
<path fill="#ffffff" opacity="1.00" d=" M 240.81 349.49 C 241.60 349.47 242.40 349.46 243.19 349.45 C 245.12 354.57 247.32 359.60 249.12 364.78 C 248.53 364.73 247.37 364.64 246.78 364.60 C 246.24 363.09 245.70 361.60 245.14 360.11 C 243.03 360.12 240.92 360.12 238.81 360.12 C 237.88 362.01 237.78 365.23 234.94 364.98 C 236.71 359.74 238.91 354.67 240.81 349.49 M 239.41 358.41 C 241.10 358.39 242.79 358.39 244.48 358.41 C 243.69 356.08 242.87 353.76 241.98 351.48 C 241.11 353.78 240.27 356.10 239.41 358.41 Z" />
<path fill="#ffffff" opacity="1.00" d=" M 250.74 349.54 C 251.26 349.49 252.31 349.39 252.84 349.34 C 252.90 354.48 252.92 359.63 252.81 364.78 C 252.29 364.74 251.25 364.66 250.74 364.62 C 250.74 359.59 250.76 354.57 250.74 349.54 Z" />
<path fill="#ffffff" opacity="1.00" d=" M 256.31 349.45 C 259.53 349.57 262.87 349.00 266.00 349.92 C 268.43 350.76 268.38 353.69 267.88 355.75 C 267.31 356.25 266.75 356.75 266.19 357.27 C 268.26 359.20 267.91 362.20 268.45 364.75 C 267.91 364.72 266.81 364.68 266.26 364.65 C 265.82 362.63 266.35 360.09 264.75 358.52 C 262.70 357.94 260.53 358.23 258.44 358.18 C 258.43 360.33 258.42 362.49 258.44 364.65 C 257.91 364.68 256.85 364.73 256.32 364.75 C 256.31 359.65 256.29 354.55 256.31 349.45 M 258.47 351.16 C 258.45 352.93 258.44 354.70 258.43 356.47 C 260.78 356.28 263.44 356.95 265.53 355.59 C 266.44 354.26 266.38 351.91 264.60 351.38 C 262.57 351.04 260.51 351.20 258.47 351.16 Z" />
<path fill="#ffffff" opacity="1.00" d=" M 275.11 349.52 C 279.33 349.34 283.56 349.46 287.79 349.45 C 287.77 349.89 287.73 350.76 287.71 351.20 C 286.03 351.19 284.36 351.18 282.68 351.19 C 282.69 355.69 282.70 360.20 282.67 364.71 C 282.14 364.70 281.08 364.69 280.56 364.68 C 280.57 360.19 280.56 355.70 280.57 351.21 C 278.72 350.78 275.41 352.38 275.11 349.52 Z" />
<path fill="#ffffff" opacity="1.00" d=" M 289.50 349.46 C 292.68 349.56 295.95 349.08 299.08 349.85 C 302.30 351.11 301.74 355.53 299.48 357.48 C 301.23 358.89 300.97 361.21 301.23 363.22 C 301.81 363.50 302.39 363.78 302.99 364.07 C 304.24 359.04 306.63 354.40 308.29 349.51 C 308.91 349.50 310.14 349.49 310.76 349.48 C 312.63 354.63 314.81 359.66 316.64 364.83 C 313.56 365.51 313.61 362.05 312.64 360.12 C 310.51 360.11 308.39 360.12 306.27 360.14 C 305.72 361.65 305.17 363.16 304.60 364.67 C 302.87 364.65 301.14 364.72 299.41 364.71 C 299.07 362.72 299.34 360.48 298.19 358.72 C 296.14 357.74 293.75 358.33 291.56 358.17 C 291.57 360.35 291.57 362.54 291.57 364.73 C 291.04 364.71 289.99 364.68 289.46 364.67 C 289.54 359.60 289.48 354.53 289.50 349.46 M 291.55 351.19 C 291.56 352.94 291.56 354.70 291.57 356.46 C 294.11 356.06 298.65 357.63 299.31 354.02 C 299.27 349.87 294.19 351.47 291.55 351.19 M 306.99 358.38 C 308.66 358.36 310.33 358.35 312.00 358.36 C 311.17 356.02 310.36 353.68 309.55 351.34 C 308.65 353.67 307.80 356.01 306.99 358.38 Z" />
<path fill="#ffffff" opacity="1.00" d=" M 318.19 349.46 C 321.66 349.45 325.14 349.35 328.62 349.56 L 327.96 351.06 C 325.41 351.30 322.85 351.17 320.29 351.20 C 320.30 352.78 320.30 354.37 320.31 355.96 C 322.54 355.99 324.78 355.88 327.01 356.14 C 327.87 356.76 327.83 357.26 326.89 357.64 C 324.71 357.91 322.51 357.72 320.32 357.76 C 320.32 360.03 320.32 362.31 320.30 364.59 C 319.78 364.64 318.75 364.73 318.23 364.78 C 318.14 359.67 318.20 354.56 318.19 349.46 Z" />
<path fill="#ffffff" opacity="1.00" d=" M 330.52 349.50 C 333.89 349.41 337.27 349.43 340.65 349.45 L 340.54 351.18 C 337.90 351.19 335.26 351.20 332.62 351.20 C 332.62 352.78 332.61 354.35 332.60 355.93 C 334.95 355.99 337.32 355.87 339.66 356.21 C 339.73 356.58 339.87 357.32 339.93 357.69 C 337.50 357.75 335.07 357.76 332.64 357.76 C 332.63 360.08 332.62 362.40 332.62 364.72 C 332.10 364.71 331.06 364.68 330.54 364.67 C 330.56 359.61 330.59 354.56 330.52 349.50 Z" />
<path fill="#ffffff" opacity="1.00" d=" M 350.47 350.61 C 354.15 347.59 360.89 349.12 361.58 354.29 C 358.60 354.56 358.13 350.11 354.96 350.88 C 348.23 350.89 348.18 363.22 354.92 363.27 C 357.55 363.62 359.15 361.23 359.57 358.97 C 360.12 359.00 361.23 359.06 361.78 359.09 C 361.03 360.76 360.67 362.86 358.98 363.89 C 355.65 366.15 350.18 365.06 348.63 361.15 C 347.18 357.71 347.65 353.22 350.47 350.61 Z" />
<path fill="#ffffff" opacity="1.00" d=" M 343.09 349.69 L 343.93 349.13 L 345.04 349.66 C 345.26 354.71 345.07 359.78 345.13 364.83 C 344.61 364.75 343.56 364.57 343.04 364.48 C 342.98 359.55 342.88 354.61 343.09 349.69 Z" />
</g>
<g id="#f1bc28ff">
<path fill="#f1bc28" opacity="1.00" d=" M 298.60 302.01 C 303.96 298.29 310.96 296.77 317.26 298.82 C 321.61 300.18 324.74 304.43 325.03 308.94 C 325.69 314.17 322.94 319.06 319.75 322.97 C 316.49 326.73 312.83 330.11 309.05 333.34 C 314.71 333.26 320.37 333.32 326.03 333.31 C 326.09 335.48 326.10 337.64 326.06 339.81 C 316.66 339.81 307.26 339.85 297.87 339.79 C 297.91 338.19 297.77 336.56 298.12 334.99 C 303.98 328.92 311.09 323.84 315.57 316.56 C 317.67 313.23 317.99 308.14 314.58 305.57 C 310.09 302.89 304.77 305.03 300.87 307.75 C 300.15 305.82 299.38 303.91 298.60 302.01 Z" />
<path fill="#f1bc28" opacity="1.00" d=" M 347.29 298.65 C 350.41 298.60 353.53 298.60 356.65 298.55 C 356.73 306.83 356.65 315.10 356.68 323.37 C 358.48 323.41 360.28 323.43 362.08 323.46 C 362.04 325.45 362.01 327.44 361.96 329.44 C 360.18 329.42 358.41 329.41 356.64 329.40 C 356.71 332.86 356.71 336.31 356.67 339.77 C 354.20 339.79 351.73 339.80 349.26 339.79 C 349.24 336.34 349.25 332.88 349.27 329.43 C 343.03 329.35 336.78 329.44 330.53 329.38 C 330.68 327.37 330.04 325.11 331.17 323.31 C 336.52 315.08 342.00 306.92 347.29 298.65 M 338.09 323.42 C 341.80 323.45 345.52 323.44 349.24 323.43 C 349.25 317.29 349.15 311.15 349.47 305.01 C 346.36 311.55 342.14 317.45 338.09 323.42 Z" />
</g>
</svg>
