<?xml version="1.0" encoding="UTF-8" ?>
<!DOCTYPE svg PUBLIC "-//W3C//DTD SVG 1.1//EN" "http://www.w3.org/Graphics/SVG/1.1/DTD/svg11.dtd">
<svg width="152pt" height="152pt" viewBox="0 0 152 152" version="1.1" xmlns="http://www.w3.org/2000/svg">
<g id="#e73420ff">
<path fill="#e73420" opacity="1.00" d=" M 0.00 0.00 L 152.00 0.00 L 152.00 152.00 L 0.00 152.00 L 0.00 0.00 M 84.62 12.61 C 75.57 18.16 72.83 29.31 71.14 39.07 C 67.01 41.02 62.85 42.92 58.70 44.84 C 58.10 48.08 57.33 51.29 56.72 54.53 C 60.37 54.51 64.02 54.51 67.68 54.54 C 63.15 75.84 58.69 97.16 54.16 118.46 C 53.33 122.50 51.92 126.96 48.20 129.24 C 44.13 131.83 39.00 130.72 34.66 129.53 C 34.66 134.90 34.74 140.28 34.60 145.65 C 44.68 148.96 57.47 148.27 65.10 140.09 C 71.16 133.95 72.98 125.20 74.59 117.05 C 78.98 96.22 83.54 75.41 87.83 54.55 C 92.73 54.51 97.63 54.49 102.52 54.57 C 103.89 49.53 104.91 44.40 105.89 39.28 C 101.03 39.24 96.16 39.27 91.30 39.26 C 92.03 34.76 92.72 29.60 96.61 26.63 C 100.86 23.86 106.04 25.84 110.48 27.01 C 112.12 21.98 114.31 17.12 115.57 11.98 C 105.75 8.29 94.04 7.29 84.62 12.61 Z" />
</g>
<g id="#ffffffff">
<path fill="#ffffff" opacity="1.00" d=" M 84.62 12.61 C 94.04 7.29 105.75 8.29 115.57 11.98 C 114.31 17.12 112.12 21.98 110.48 27.01 C 106.04 25.84 100.86 23.86 96.61 26.63 C 92.72 29.60 92.03 34.76 91.30 39.26 C 96.16 39.27 101.03 39.24 105.89 39.28 C 104.91 44.40 103.89 49.53 102.52 54.57 C 97.63 54.49 92.73 54.51 87.83 54.55 C 83.54 75.41 78.98 96.22 74.59 117.05 C 72.98 125.20 71.16 133.95 65.10 140.09 C 57.47 148.27 44.68 148.96 34.60 145.65 C 34.74 140.28 34.66 134.90 34.66 129.53 C 39.00 130.72 44.13 131.83 48.20 129.24 C 51.92 126.96 53.33 122.50 54.16 118.46 C 58.69 97.16 63.15 75.84 67.68 54.54 C 64.02 54.51 60.37 54.51 56.72 54.53 C 57.33 51.29 58.10 48.08 58.70 44.84 C 62.85 42.92 67.01 41.02 71.14 39.07 C 72.83 29.31 75.57 18.16 84.62 12.61 Z" />
</g>
</svg>
