<?xml version="1.0" encoding="UTF-8" ?>
<!DOCTYPE svg PUBLIC "-//W3C//DTD SVG 1.1//EN" "http://www.w3.org/Graphics/SVG/1.1/DTD/svg11.dtd">
<svg width="16pt" height="16pt" viewBox="0 0 16 16" version="1.1" xmlns="http://www.w3.org/2000/svg">
<g id="#2727272e">
<path fill="#272727" opacity="0.18" d=" M 12.10 0.00 L 16.00 0.00 L 16.00 0.76 C 12.98 0.68 14.33 4.19 13.96 6.10 L 13.06 6.00 C 12.95 4.18 12.94 2.27 12.02 0.64 L 12.10 0.00 Z" />
</g>
<g id="#52525278">
<path fill="#525252" opacity="0.47" d=" M 0.00 0.87 L 0.99 0.97 C 1.01 5.26 1.00 9.55 1.03 13.84 L 0.00 13.91 L 0.00 0.87 Z" />
</g>
<g id="#5a5a5ad8">
<path fill="#5a5a5a" opacity="0.85" d=" M 0.99 0.97 C 3.97 1.12 6.82 2.03 9.74 2.55 C 9.07 5.99 8.63 9.47 8.99 12.99 C 10.70 12.65 12.38 12.14 14.07 11.73 C 14.35 12.21 14.90 13.17 15.17 13.65 C 12.90 14.12 10.71 14.95 8.64 16.00 L 7.36 16.00 C 5.36 14.99 3.26 14.14 1.03 13.84 C 1.00 9.55 1.01 5.26 0.99 0.97 M 2.05 2.96 C 1.86 5.89 2.04 8.82 2.11 11.75 C 3.73 12.19 5.34 12.70 6.98 13.04 L 7.94 12.97 C 7.54 10.62 9.23 5.72 6.97 5.05 C 6.78 3.15 3.64 3.15 2.05 2.96 Z" />
</g>
<g id="#5b5b5bec">
<path fill="#5b5b5b" opacity="0.93" d=" M 13.06 6.00 C 10.24 6.07 9.89 4.28 12.02 0.64 C 12.94 2.27 12.95 4.18 13.06 6.00 Z" />
</g>
<g id="#5f5f5fb8">
<path fill="#5f5f5f" opacity="0.72" d=" M 13.96 6.10 C 14.33 4.19 12.98 0.68 16.00 0.76 L 16.00 14.12 L 15.17 13.65 C 14.90 13.17 14.35 12.21 14.07 11.73 C 14.02 9.85 13.99 7.97 13.96 6.10 Z" />
</g>
<g id="#5e5e5ea4">
<path fill="#5e5e5e" opacity="0.64" d=" M 6.97 5.05 C 9.23 5.72 7.54 10.62 7.94 12.97 L 6.98 13.04 C 6.99 10.38 6.98 7.71 6.97 5.05 Z" />
</g>
<g id="#0b0b0b0d">
<path fill="#0b0b0b" opacity="0.05" d=" M 8.64 16.00 C 10.71 14.95 12.90 14.12 15.17 13.65 L 16.00 14.12 L 16.00 16.00 L 8.64 16.00 Z" />
</g>
</svg>
