<?xml version="1.0" encoding="UTF-8" ?>
<!DOCTYPE svg PUBLIC "-//W3C//DTD SVG 1.1//EN" "http://www.w3.org/Graphics/SVG/1.1/DTD/svg11.dtd">
<svg width="108pt" height="108pt" viewBox="0 0 108 108" version="1.1" xmlns="http://www.w3.org/2000/svg">
<g id="#151515ff">
<path fill="#151515" opacity="1.00" d=" M 0.00 0.00 L 108.00 0.00 L 108.00 108.00 L 0.00 108.00 L 0.00 0.00 M 9.04 39.24 C 9.00 46.43 8.93 53.62 9.08 60.82 C 10.29 60.78 11.51 60.76 12.73 60.74 C 12.75 57.81 12.75 54.89 12.77 51.97 C 13.58 51.87 15.20 51.67 16.02 51.57 C 16.01 50.47 16.01 49.37 16.00 48.26 C 15.29 48.06 13.88 47.67 13.17 47.47 C 12.41 46.15 12.86 44.53 12.68 43.08 C 14.46 43.02 16.24 42.98 18.02 42.93 C 18.01 41.70 17.99 40.47 17.97 39.25 C 14.99 39.25 12.01 39.25 9.04 39.24 M 24.36 39.22 C 22.50 40.06 21.15 41.97 21.27 44.05 C 21.24 48.30 21.13 52.56 21.34 56.80 C 21.63 61.09 27.92 62.62 30.39 59.27 C 31.79 57.89 31.42 55.81 31.52 54.03 C 31.40 50.07 31.77 46.08 31.28 42.14 C 30.32 39.36 26.98 38.34 24.36 39.22 M 36.04 39.22 C 35.98 46.40 35.96 53.59 36.06 60.78 C 37.34 60.78 38.63 60.78 39.92 60.79 C 40.19 54.77 40.17 48.77 40.02 42.75 C 44.29 43.20 42.41 48.84 40.83 51.22 C 40.83 54.53 42.07 57.68 43.03 60.80 C 44.31 60.77 45.59 60.74 46.87 60.72 C 46.21 58.16 45.27 55.67 44.86 53.05 C 46.21 49.41 47.10 45.16 45.57 41.47 C 43.51 38.19 39.25 39.50 36.04 39.22 M 50.03 39.25 C 50.01 40.45 49.99 41.64 49.97 42.83 C 50.79 42.92 52.42 43.09 53.24 43.17 C 53.27 49.03 53.23 54.89 53.27 60.75 C 54.56 60.76 55.85 60.77 57.14 60.78 C 57.33 54.95 57.29 49.11 57.17 43.28 C 57.95 43.15 59.49 42.88 60.27 42.75 C 60.24 41.59 60.22 40.42 60.19 39.26 C 56.80 39.24 53.42 39.25 50.03 39.25 M 64.27 39.25 C 64.41 45.35 63.89 51.51 64.51 57.58 C 65.63 62.45 74.11 62.15 74.41 56.98 C 74.61 51.05 74.53 45.11 74.39 39.18 C 73.49 39.20 71.70 39.23 70.80 39.25 C 70.67 45.12 70.86 50.98 70.65 56.85 C 70.07 56.88 68.90 56.94 68.31 56.97 C 68.15 51.06 68.38 45.14 68.15 39.22 C 66.86 39.23 65.56 39.24 64.27 39.25 M 79.08 39.18 C 78.90 46.35 79.05 53.52 78.99 60.69 C 79.92 60.71 81.79 60.75 82.72 60.77 C 82.76 57.49 82.74 54.22 82.73 50.95 C 83.83 54.01 84.60 57.19 85.78 60.23 C 86.93 61.26 88.73 60.56 90.13 60.85 C 90.40 53.67 90.18 46.49 90.27 39.31 C 89.27 39.29 87.27 39.25 86.27 39.23 C 86.25 42.49 86.30 45.75 86.15 49.01 C 84.83 45.84 83.91 42.53 82.87 39.26 C 81.61 39.24 80.34 39.21 79.08 39.18 M 94.81 39.25 C 94.71 46.41 94.71 53.58 94.81 60.75 C 97.78 60.75 100.75 60.75 103.73 60.73 C 103.76 59.53 103.80 58.33 103.85 57.12 C 102.07 57.04 100.28 56.99 98.50 56.92 C 98.50 55.27 98.51 53.62 98.54 51.98 C 99.36 51.86 101.00 51.62 101.81 51.50 C 101.81 50.44 101.81 49.39 101.82 48.33 C 100.68 47.97 99.54 47.62 98.39 47.26 C 98.45 45.86 98.51 44.46 98.55 43.06 C 100.32 43.01 102.09 42.96 103.85 42.88 C 103.80 41.67 103.76 40.47 103.72 39.27 C 100.75 39.25 97.78 39.25 94.81 39.25 Z" />
<path fill="#151515" opacity="1.00" d=" M 25.16 43.07 C 25.79 43.09 27.03 43.13 27.65 43.15 C 27.80 47.71 27.80 52.29 27.65 56.85 C 27.03 56.87 25.79 56.91 25.16 56.93 C 24.90 52.31 24.90 47.69 25.16 43.07 Z" />
</g>
<g id="#ffffffff">
<path fill="#ffffff" opacity="1.00" d=" M 9.04 39.24 C 12.01 39.25 14.99 39.25 17.97 39.25 C 17.99 40.47 18.01 41.70 18.02 42.93 C 16.24 42.98 14.46 43.02 12.68 43.08 C 12.86 44.53 12.41 46.15 13.17 47.47 C 13.88 47.67 15.29 48.06 16.00 48.26 C 16.01 49.37 16.01 50.47 16.02 51.57 C 15.20 51.67 13.58 51.87 12.77 51.97 C 12.75 54.89 12.75 57.81 12.73 60.74 C 11.51 60.76 10.29 60.78 9.08 60.82 C 8.93 53.62 9.00 46.43 9.04 39.24 Z" />
<path fill="#ffffff" opacity="1.00" d=" M 24.36 39.22 C 26.98 38.34 30.32 39.36 31.28 42.14 C 31.77 46.08 31.40 50.07 31.52 54.03 C 31.42 55.81 31.79 57.89 30.39 59.27 C 27.92 62.62 21.63 61.09 21.34 56.80 C 21.13 52.56 21.24 48.30 21.27 44.05 C 21.15 41.97 22.50 40.06 24.36 39.22 M 25.16 43.07 C 24.90 47.69 24.90 52.31 25.16 56.93 C 25.79 56.91 27.03 56.87 27.65 56.85 C 27.80 52.29 27.80 47.71 27.65 43.15 C 27.03 43.13 25.79 43.09 25.16 43.07 Z" />
<path fill="#ffffff" opacity="1.00" d=" M 36.04 39.22 C 39.25 39.50 43.51 38.19 45.57 41.47 C 47.10 45.16 46.21 49.41 44.86 53.05 C 45.27 55.67 46.21 58.16 46.87 60.72 C 45.59 60.74 44.31 60.77 43.03 60.80 C 42.07 57.68 40.83 54.53 40.83 51.22 C 42.41 48.84 44.29 43.20 40.02 42.75 C 40.17 48.77 40.19 54.77 39.92 60.79 C 38.63 60.78 37.34 60.78 36.06 60.78 C 35.96 53.59 35.98 46.40 36.04 39.22 Z" />
<path fill="#ffffff" opacity="1.00" d=" M 50.03 39.25 C 53.42 39.25 56.80 39.24 60.19 39.26 C 60.22 40.42 60.24 41.59 60.27 42.75 C 59.49 42.88 57.95 43.15 57.17 43.28 C 57.29 49.11 57.33 54.95 57.14 60.78 C 55.85 60.77 54.56 60.76 53.27 60.75 C 53.23 54.89 53.27 49.03 53.24 43.17 C 52.42 43.09 50.79 42.92 49.97 42.83 C 49.99 41.64 50.01 40.45 50.03 39.25 Z" />
<path fill="#ffffff" opacity="1.00" d=" M 64.27 39.25 C 65.56 39.24 66.86 39.23 68.15 39.22 C 68.38 45.14 68.15 51.06 68.31 56.97 C 68.90 56.94 70.07 56.88 70.65 56.85 C 70.86 50.98 70.67 45.12 70.80 39.25 C 71.70 39.23 73.49 39.20 74.39 39.18 C 74.53 45.11 74.61 51.05 74.41 56.98 C 74.11 62.15 65.63 62.45 64.51 57.58 C 63.89 51.51 64.41 45.35 64.27 39.25 Z" />
<path fill="#ffffff" opacity="1.00" d=" M 79.08 39.18 C 80.34 39.21 81.61 39.24 82.87 39.26 C 83.91 42.53 84.83 45.84 86.15 49.01 C 86.30 45.75 86.25 42.49 86.27 39.23 C 87.27 39.25 89.27 39.29 90.27 39.31 C 90.18 46.49 90.40 53.67 90.13 60.85 C 88.73 60.56 86.93 61.26 85.78 60.23 C 84.60 57.19 83.83 54.01 82.73 50.95 C 82.74 54.22 82.76 57.49 82.72 60.77 C 81.79 60.75 79.92 60.71 78.99 60.69 C 79.05 53.52 78.90 46.35 79.08 39.18 Z" />
<path fill="#ffffff" opacity="1.00" d=" M 94.81 39.25 C 97.78 39.25 100.75 39.25 103.72 39.27 C 103.76 40.47 103.80 41.67 103.85 42.88 C 102.09 42.96 100.32 43.01 98.55 43.06 C 98.51 44.46 98.45 45.86 98.39 47.26 C 99.54 47.62 100.68 47.97 101.82 48.33 C 101.81 49.39 101.81 50.44 101.81 51.50 C 101.00 51.62 99.36 51.86 98.54 51.98 C 98.51 53.62 98.50 55.27 98.50 56.92 C 100.28 56.99 102.07 57.04 103.85 57.12 C 103.80 58.33 103.76 59.53 103.73 60.73 C 100.75 60.75 97.78 60.75 94.81 60.75 C 94.71 53.58 94.71 46.41 94.81 39.25 Z" />
</g>
</svg>
