<?xml version="1.0" encoding="UTF-8" ?>
<!DOCTYPE svg PUBLIC "-//W3C//DTD SVG 1.1//EN" "http://www.w3.org/Graphics/SVG/1.1/DTD/svg11.dtd">
<svg width="200pt" height="189pt" viewBox="0 0 200 189" version="1.1" xmlns="http://www.w3.org/2000/svg">
<g id="#032a61ff">
<path fill="#032a61" opacity="1.00" d=" M 0.00 0.00 L 32.97 0.00 C 23.15 47.39 12.99 94.72 3.22 142.13 C 2.00 146.58 1.25 151.14 0.00 155.59 L 0.00 0.00 Z" />
<path fill="#032a61" opacity="1.00" d=" M 55.70 0.00 L 76.90 0.00 C 53.26 49.11 29.84 98.33 6.28 147.49 C 5.14 149.71 4.39 152.20 2.62 154.03 L 2.52 152.66 C 20.54 101.88 37.85 50.84 55.70 0.00 Z" />
<path fill="#032a61" opacity="1.00" d=" M 102.38 0.00 L 200.00 0.00 L 200.00 159.65 C 133.86 159.67 67.72 159.68 1.59 159.64 C 2.08 158.81 2.56 157.97 3.04 157.13 C 11.36 143.54 20.16 130.23 28.47 116.64 C 29.30 112.26 28.43 107.71 28.99 103.28 C 31.66 103.32 34.32 103.33 36.98 103.31 C 45.96 89.18 54.86 75.00 63.86 60.88 C 67.97 55.88 65.59 49.08 66.21 43.18 C 69.23 42.88 72.67 43.98 75.40 42.48 C 84.51 28.40 93.30 14.10 102.38 0.00 M 68.20 44.98 C 68.19 62.14 68.09 79.31 68.25 96.48 C 73.07 96.42 77.89 96.36 82.70 96.52 C 83.77 91.04 82.91 85.35 83.17 79.78 C 88.04 79.67 92.90 79.76 97.77 79.73 C 97.72 75.04 97.86 70.34 97.67 65.65 C 92.86 65.74 88.05 65.67 83.25 65.70 C 83.19 63.41 83.21 61.12 83.43 58.84 C 89.36 58.84 95.29 59.20 101.21 58.83 C 100.66 54.25 100.55 49.64 100.27 45.03 C 89.60 44.63 78.88 44.77 68.20 44.98 M 119.60 46.00 C 112.68 47.91 106.64 52.78 103.35 59.16 C 99.49 66.42 99.49 75.59 103.37 82.84 C 107.97 91.73 118.01 97.58 128.05 96.79 C 142.45 96.77 154.84 82.75 153.04 68.45 C 152.21 60.27 147.31 52.58 140.10 48.58 C 134.01 44.89 126.42 44.37 119.60 46.00 M 146.44 45.12 C 150.88 53.53 156.41 61.41 160.79 69.84 C 156.29 78.89 150.19 87.20 146.06 96.41 C 151.35 96.32 156.63 96.43 161.92 96.33 C 164.19 92.37 166.48 88.42 168.80 84.49 C 168.99 84.42 169.38 84.29 169.57 84.22 C 172.05 88.24 174.40 92.33 176.85 96.37 C 182.20 96.41 187.54 96.30 192.89 96.44 C 192.76 94.80 191.69 93.48 190.93 92.10 C 186.37 84.71 182.13 77.13 177.45 69.83 C 182.08 61.66 186.71 53.47 191.72 45.54 C 191.31 45.37 190.50 45.04 190.09 44.88 C 185.12 45.24 180.14 45.08 175.16 45.20 C 173.17 48.72 171.22 52.25 169.05 55.66 C 167.05 52.14 164.93 48.68 162.87 45.19 C 157.39 44.81 151.92 45.19 146.44 45.12 M 167.10 106.35 C 160.50 110.36 158.25 120.14 162.47 126.57 C 166.90 132.62 174.95 132.94 181.30 135.73 C 181.59 136.30 182.18 137.45 182.47 138.02 C 181.72 141.83 177.09 142.18 174.11 140.96 C 171.49 140.23 170.72 137.46 169.30 135.49 C 165.92 136.82 162.28 137.36 158.71 137.91 C 159.11 143.48 163.14 148.54 168.23 150.72 C 175.63 153.93 185.26 153.06 190.97 146.98 C 196.43 141.10 196.53 130.07 189.53 125.34 C 185.16 122.34 179.70 121.94 174.84 120.12 C 173.26 119.65 171.98 117.56 173.18 116.10 C 174.10 113.75 177.15 114.06 179.18 114.35 C 181.53 114.60 182.61 116.98 183.69 118.76 C 187.04 117.53 190.43 116.43 193.82 115.34 C 192.37 110.61 188.92 106.32 184.18 104.62 C 178.62 102.62 172.16 103.32 167.10 106.35 M 30.92 105.21 C 30.53 120.75 30.73 136.32 30.73 151.88 C 34.68 151.88 38.64 151.80 42.59 151.96 C 42.93 143.04 42.56 134.11 42.78 125.20 C 48.28 133.89 53.49 142.79 58.60 151.71 C 62.47 151.50 66.86 152.80 70.39 151.31 C 70.36 136.03 70.22 120.75 70.46 105.47 C 66.54 104.96 62.58 105.37 58.65 105.19 C 58.41 112.82 58.65 120.45 58.53 128.08 C 53.35 120.94 49.34 112.92 44.60 105.45 C 40.08 104.91 35.48 105.41 30.92 105.21 M 73.32 105.21 C 73.34 120.78 73.36 136.35 73.31 151.92 C 83.45 152.46 93.65 152.08 103.82 152.12 C 104.28 148.49 104.24 144.82 103.92 141.19 C 97.69 141.10 91.45 141.35 85.22 141.06 C 85.21 138.44 85.21 135.82 85.21 133.21 C 90.25 133.22 95.29 133.17 100.34 133.24 C 100.61 129.92 100.41 126.59 100.55 123.27 C 95.50 122.14 90.29 123.46 85.18 122.76 C 85.21 120.56 85.21 118.36 85.22 116.16 C 91.38 116.04 97.56 116.43 103.71 115.95 C 103.70 112.37 103.70 108.79 103.73 105.20 C 93.59 105.16 83.45 105.16 73.32 105.21 M 106.07 105.42 C 109.92 120.81 113.19 136.35 117.05 151.73 C 120.65 152.40 124.72 152.54 128.28 151.56 C 129.71 142.98 131.64 134.48 133.29 125.94 C 135.71 134.42 136.86 143.22 139.09 151.73 C 142.61 152.47 146.58 152.46 150.11 151.53 C 153.30 136.01 157.23 120.64 160.79 105.20 C 157.51 105.15 154.23 105.15 150.95 105.20 C 149.15 114.11 147.10 122.96 145.27 131.86 C 142.99 123.07 141.43 114.10 139.48 105.23 C 136.07 105.12 132.66 105.14 129.25 105.21 C 127.51 114.12 125.72 123.02 123.98 131.93 C 121.64 123.17 120.08 114.19 118.31 105.29 C 114.24 105.18 110.13 104.91 106.07 105.42 Z" />
<path fill="#032a61" opacity="1.00" d=" M 124.37 55.63 C 127.12 54.10 130.92 55.73 131.41 58.93 C 131.51 66.64 131.45 74.36 131.33 82.08 C 131.01 86.76 123.43 87.25 122.38 82.80 C 122.01 75.21 122.30 67.58 122.24 59.98 C 122.06 58.22 122.91 56.59 124.37 55.63 Z" />
</g>
<g id="#ffffffff">
<path fill="#ffffff" opacity="1.00" d=" M 32.97 0.00 L 55.70 0.00 C 37.85 50.84 20.54 101.88 2.52 152.66 C 1.53 149.14 3.18 145.66 3.22 142.13 C 12.99 94.72 23.15 47.39 32.97 0.00 Z" />
<path fill="#ffffff" opacity="1.00" d=" M 76.90 0.00 L 102.38 0.00 C 93.30 14.10 84.51 28.40 75.40 42.48 C 72.67 43.98 69.23 42.88 66.21 43.18 C 65.59 49.08 67.97 55.88 63.86 60.88 C 54.86 75.00 45.96 89.18 36.98 103.31 C 34.32 103.33 31.66 103.32 28.99 103.28 C 28.43 107.71 29.30 112.26 28.47 116.64 C 20.16 130.23 11.36 143.54 3.04 157.13 C 2.88 156.10 2.72 155.07 2.62 154.03 C 4.39 152.20 5.14 149.71 6.28 147.49 C 29.84 98.33 53.26 49.11 76.90 0.00 Z" />
<path fill="#ffffff" opacity="1.00" d=" M 68.20 44.98 C 78.88 44.77 89.60 44.63 100.27 45.03 C 100.55 49.64 100.66 54.25 101.21 58.83 C 95.29 59.20 89.36 58.84 83.43 58.84 C 83.21 61.12 83.19 63.41 83.25 65.70 C 88.05 65.67 92.86 65.74 97.67 65.65 C 97.86 70.34 97.72 75.04 97.77 79.73 C 92.90 79.76 88.04 79.67 83.17 79.78 C 82.91 85.35 83.77 91.04 82.70 96.52 C 77.89 96.36 73.07 96.42 68.25 96.48 C 68.09 79.31 68.19 62.14 68.20 44.98 Z" />
<path fill="#ffffff" opacity="1.00" d=" M 119.60 46.00 C 126.42 44.37 134.01 44.89 140.10 48.58 C 147.31 52.58 152.21 60.27 153.04 68.45 C 154.84 82.75 142.45 96.77 128.05 96.79 C 118.01 97.58 107.97 91.73 103.37 82.84 C 99.49 75.59 99.49 66.42 103.35 59.16 C 106.64 52.78 112.68 47.91 119.60 46.00 M 124.37 55.63 C 122.91 56.59 122.06 58.22 122.24 59.98 C 122.30 67.58 122.01 75.21 122.38 82.80 C 123.43 87.25 131.01 86.76 131.33 82.08 C 131.45 74.36 131.51 66.64 131.41 58.93 C 130.92 55.73 127.12 54.10 124.37 55.63 Z" />
<path fill="#ffffff" opacity="1.00" d=" M 146.44 45.12 C 151.92 45.19 157.39 44.81 162.87 45.19 C 164.93 48.68 167.05 52.14 169.05 55.66 C 171.22 52.25 173.17 48.72 175.16 45.20 C 180.14 45.08 185.12 45.24 190.09 44.88 C 190.50 45.04 191.31 45.37 191.72 45.54 C 186.71 53.47 182.08 61.66 177.45 69.83 C 182.13 77.13 186.37 84.71 190.93 92.10 C 191.69 93.48 192.76 94.80 192.89 96.44 C 187.54 96.30 182.20 96.41 176.85 96.37 C 174.40 92.33 172.05 88.24 169.57 84.22 C 169.38 84.29 168.99 84.42 168.80 84.49 C 166.48 88.42 164.19 92.37 161.92 96.33 C 156.63 96.43 151.35 96.32 146.06 96.41 C 150.19 87.20 156.29 78.89 160.79 69.84 C 156.41 61.41 150.88 53.53 146.44 45.12 Z" />
<path fill="#ffffff" opacity="1.00" d=" M 167.10 106.35 C 172.16 103.32 178.62 102.62 184.18 104.62 C 188.92 106.32 192.37 110.61 193.82 115.34 C 190.43 116.43 187.04 117.53 183.69 118.76 C 182.61 116.98 181.53 114.60 179.18 114.35 C 177.15 114.06 174.10 113.75 173.18 116.10 C 171.98 117.56 173.26 119.65 174.84 120.12 C 179.70 121.94 185.16 122.34 189.53 125.34 C 196.53 130.07 196.43 141.10 190.97 146.98 C 185.26 153.06 175.63 153.93 168.23 150.72 C 163.14 148.54 159.11 143.48 158.71 137.91 C 162.28 137.36 165.92 136.82 169.30 135.49 C 170.72 137.46 171.49 140.23 174.11 140.96 C 177.09 142.18 181.72 141.83 182.47 138.02 C 182.18 137.45 181.59 136.30 181.30 135.73 C 174.95 132.94 166.90 132.62 162.47 126.57 C 158.25 120.14 160.50 110.36 167.10 106.35 Z" />
<path fill="#ffffff" opacity="1.00" d=" M 30.92 105.21 C 35.48 105.41 40.08 104.91 44.60 105.45 C 49.34 112.92 53.35 120.94 58.53 128.08 C 58.65 120.45 58.41 112.82 58.65 105.19 C 62.58 105.37 66.54 104.96 70.46 105.47 C 70.22 120.75 70.36 136.03 70.39 151.31 C 66.86 152.80 62.47 151.50 58.60 151.71 C 53.49 142.79 48.28 133.89 42.78 125.20 C 42.56 134.11 42.93 143.04 42.59 151.96 C 38.64 151.80 34.68 151.88 30.73 151.88 C 30.73 136.32 30.53 120.75 30.92 105.21 Z" />
<path fill="#ffffff" opacity="1.00" d=" M 73.32 105.21 C 83.45 105.16 93.59 105.16 103.73 105.20 C 103.70 108.79 103.70 112.37 103.71 115.95 C 97.56 116.43 91.38 116.04 85.22 116.16 C 85.21 118.36 85.21 120.56 85.18 122.76 C 90.29 123.46 95.50 122.14 100.55 123.27 C 100.41 126.59 100.61 129.92 100.34 133.24 C 95.29 133.17 90.25 133.22 85.21 133.21 C 85.21 135.82 85.21 138.44 85.22 141.06 C 91.45 141.35 97.69 141.10 103.92 141.19 C 104.24 144.82 104.28 148.49 103.82 152.12 C 93.65 152.08 83.45 152.46 73.31 151.92 C 73.36 136.35 73.34 120.78 73.32 105.21 Z" />
<path fill="#ffffff" opacity="1.00" d=" M 106.07 105.42 C 110.13 104.91 114.24 105.18 118.31 105.29 C 120.08 114.19 121.64 123.17 123.98 131.93 C 125.72 123.02 127.51 114.12 129.25 105.21 C 132.66 105.14 136.07 105.12 139.48 105.23 C 141.43 114.10 142.99 123.07 145.27 131.86 C 147.10 122.96 149.15 114.11 150.95 105.20 C 154.23 105.15 157.51 105.15 160.79 105.20 C 157.23 120.64 153.30 136.01 150.11 151.53 C 146.58 152.46 142.61 152.47 139.09 151.73 C 136.86 143.22 135.71 134.42 133.29 125.94 C 131.64 134.48 129.71 142.98 128.28 151.56 C 124.72 152.54 120.65 152.40 117.05 151.73 C 113.19 136.35 109.92 120.81 106.07 105.42 Z" />
<path fill="#ffffff" opacity="1.00" d=" M 7.60 169.50 C 13.32 166.57 21.89 166.64 25.92 172.32 C 24.31 172.87 22.65 173.25 20.97 173.46 C 17.80 168.27 7.76 170.32 8.75 177.05 C 9.14 183.34 18.72 184.07 21.07 178.67 C 22.65 179.02 24.23 179.40 25.81 179.79 C 22.36 186.47 12.69 186.49 6.96 182.98 C 2.02 180.02 2.54 172.06 7.60 169.50 Z" />
<path fill="#ffffff" opacity="1.00" d=" M 36.61 167.82 C 38.18 167.84 39.75 167.86 41.32 167.90 C 41.46 169.89 41.50 171.88 41.42 173.88 C 44.99 172.10 50.50 171.15 53.05 175.01 C 53.81 178.15 53.24 181.48 53.48 184.70 C 51.81 184.77 50.14 184.79 48.47 184.77 C 48.54 181.79 48.51 178.81 48.41 175.84 C 46.33 174.28 42.84 174.35 41.60 176.90 C 41.33 179.49 41.46 182.10 41.50 184.70 C 39.89 184.77 38.28 184.83 36.67 184.90 C 36.36 179.22 36.49 173.51 36.61 167.82 Z" />
<path fill="#ffffff" opacity="1.00" d=" M 189.33 168.18 C 190.84 168.12 193.67 166.81 194.24 168.86 C 194.28 174.19 194.29 179.52 194.19 184.84 C 192.57 184.82 190.96 184.81 189.34 184.79 C 189.37 179.25 189.39 173.71 189.33 168.18 Z" />
<path fill="#ffffff" opacity="1.00" d=" M 67.03 175.10 C 70.97 171.39 77.53 171.60 82.11 173.92 C 83.69 177.33 81.78 181.41 83.67 184.82 C 81.74 184.90 79.82 184.76 77.96 184.24 C 75.31 184.62 72.61 185.92 69.93 184.86 C 67.82 184.50 65.53 182.29 66.86 180.07 C 69.82 177.28 74.25 177.85 77.96 177.00 C 77.78 176.45 77.42 175.36 77.24 174.82 C 75.01 174.59 72.75 174.69 71.06 176.38 C 69.44 176.54 68.10 176.12 67.03 175.10 M 71.41 180.58 C 71.49 181.02 71.65 181.90 71.73 182.34 C 74.37 183.30 78.59 182.90 78.01 179.12 C 75.76 179.36 73.47 179.56 71.41 180.58 Z" />
<path fill="#ffffff" opacity="1.00" d=" M 98.17 172.74 C 99.98 172.36 101.79 172.44 103.20 173.77 C 106.54 172.21 110.92 171.51 114.03 173.95 C 116.27 177.06 114.13 181.12 115.22 184.61 C 113.55 184.74 111.87 184.81 110.20 184.84 C 109.96 181.76 110.90 178.38 109.39 175.54 C 107.75 174.05 105.42 174.94 103.75 175.88 C 102.59 178.68 103.47 181.87 102.89 184.81 C 101.33 184.80 99.77 184.80 98.21 184.80 C 98.19 180.78 98.24 176.76 98.17 172.74 Z" />
<path fill="#ffffff" opacity="1.00" d=" M 128.50 184.71 C 128.63 180.68 128.47 176.64 128.64 172.61 C 129.51 172.60 131.26 172.57 132.14 172.56 C 132.58 172.84 133.46 173.41 133.90 173.69 C 137.39 172.14 142.68 171.26 145.17 174.92 C 145.84 178.14 145.34 181.49 145.53 184.76 C 143.85 184.78 142.18 184.77 140.51 184.74 C 140.59 181.79 140.56 178.83 140.42 175.88 C 138.39 174.20 134.99 174.52 133.64 176.89 C 133.38 179.50 133.51 182.12 133.55 184.74 C 131.86 184.78 130.18 184.77 128.50 184.71 Z" />
<path fill="#ffffff" opacity="1.00" d=" M 159.34 178.97 C 159.44 169.70 177.21 170.10 176.64 179.63 C 172.56 179.67 168.47 179.68 164.39 179.63 C 164.26 182.73 168.75 183.58 170.75 181.86 C 172.24 180.70 174.23 181.48 175.95 181.42 C 175.25 184.40 171.59 184.91 169.05 185.24 C 165.08 185.51 159.14 183.94 159.34 178.97 M 164.83 175.89 C 164.70 176.32 164.44 177.18 164.31 177.61 C 166.79 177.65 169.27 177.65 171.75 177.64 C 171.61 177.19 171.33 176.29 171.19 175.85 C 170.12 175.42 169.05 175.00 167.99 174.58 C 166.93 175.01 165.88 175.45 164.83 175.89 Z" />
</g>
<g id="#d5dbe5ff">
<path fill="#d5dbe5" opacity="1.00" d=" M 0.00 155.59 C 1.25 151.14 2.00 146.58 3.22 142.13 C 3.18 145.66 1.53 149.14 2.52 152.66 L 2.62 154.03 C 2.72 155.07 2.88 156.10 3.04 157.13 C 2.56 157.97 2.08 158.81 1.59 159.64 C 1.19 159.66 0.40 159.70 0.00 159.72 L 0.00 155.59 Z" />
</g>
<g id="#e11048ff">
<path fill="#e11048" opacity="1.00" d=" M 0.00 163.77 C 66.67 163.82 133.33 163.72 200.00 163.76 L 200.00 189.00 L 0.00 189.00 L 0.00 163.77 M 7.60 169.50 C 2.54 172.06 2.02 180.02 6.96 182.98 C 12.69 186.49 22.36 186.47 25.81 179.79 C 24.23 179.40 22.65 179.02 21.07 178.67 C 18.72 184.07 9.14 183.34 8.75 177.05 C 7.76 170.32 17.80 168.27 20.97 173.46 C 22.65 173.25 24.31 172.87 25.92 172.32 C 21.89 166.64 13.32 166.57 7.60 169.50 M 36.61 167.82 C 36.49 173.51 36.36 179.22 36.67 184.90 C 38.28 184.83 39.89 184.77 41.50 184.70 C 41.46 182.10 41.33 179.49 41.60 176.90 C 42.84 174.35 46.33 174.28 48.41 175.84 C 48.51 178.81 48.54 181.79 48.47 184.77 C 50.14 184.79 51.81 184.77 53.48 184.70 C 53.24 181.48 53.81 178.15 53.05 175.01 C 50.50 171.15 44.99 172.10 41.42 173.88 C 41.50 171.88 41.46 169.89 41.32 167.90 C 39.75 167.86 38.18 167.84 36.61 167.82 M 189.33 168.18 C 189.39 173.71 189.37 179.25 189.34 184.79 C 190.96 184.81 192.57 184.82 194.19 184.84 C 194.29 179.52 194.28 174.19 194.24 168.86 C 193.67 166.81 190.84 168.12 189.33 168.18 M 67.03 175.10 C 68.10 176.12 69.44 176.54 71.06 176.38 C 72.75 174.69 75.01 174.59 77.24 174.82 C 77.42 175.36 77.78 176.45 77.96 177.00 C 74.25 177.85 69.82 177.28 66.86 180.07 C 65.53 182.29 67.82 184.50 69.93 184.86 C 72.61 185.92 75.31 184.62 77.96 184.24 C 79.82 184.76 81.74 184.90 83.67 184.82 C 81.78 181.41 83.69 177.33 82.11 173.92 C 77.53 171.60 70.97 171.39 67.03 175.10 M 98.17 172.74 C 98.24 176.76 98.19 180.78 98.21 184.80 C 99.77 184.80 101.33 184.80 102.89 184.81 C 103.47 181.87 102.59 178.68 103.75 175.88 C 105.42 174.94 107.75 174.05 109.39 175.54 C 110.90 178.38 109.96 181.76 110.20 184.84 C 111.87 184.81 113.55 184.74 115.22 184.61 C 114.13 181.12 116.27 177.06 114.03 173.95 C 110.92 171.51 106.54 172.21 103.20 173.77 C 101.79 172.44 99.98 172.36 98.17 172.74 M 128.50 184.71 C 130.18 184.77 131.86 184.78 133.55 184.74 C 133.51 182.12 133.38 179.50 133.64 176.89 C 134.99 174.52 138.39 174.20 140.42 175.88 C 140.56 178.83 140.59 181.79 140.51 184.74 C 142.18 184.77 143.85 184.78 145.53 184.76 C 145.34 181.49 145.84 178.14 145.17 174.92 C 142.68 171.26 137.39 172.14 133.90 173.69 C 133.46 173.41 132.58 172.84 132.14 172.56 C 131.26 172.57 129.51 172.60 128.64 172.61 C 128.47 176.64 128.63 180.68 128.50 184.71 M 159.34 178.97 C 159.14 183.94 165.08 185.51 169.05 185.24 C 171.59 184.91 175.25 184.40 175.95 181.42 C 174.23 181.48 172.24 180.70 170.75 181.86 C 168.75 183.58 164.26 182.73 164.39 179.63 C 168.47 179.68 172.56 179.67 176.64 179.63 C 177.21 170.10 159.44 169.70 159.34 178.97 Z" />
</g>
<g id="#e00b44ff">
<path fill="#e00b44" opacity="1.00" d=" M 164.83 175.89 C 165.88 175.45 166.93 175.01 167.99 174.58 C 169.05 175.00 170.12 175.42 171.19 175.85 C 171.33 176.29 171.61 177.19 171.75 177.64 C 169.27 177.65 166.79 177.65 164.31 177.61 C 164.44 177.18 164.70 176.32 164.83 175.89 Z" />
</g>
<g id="#e10d45ff">
<path fill="#e10d45" opacity="1.00" d=" M 71.41 180.58 C 73.47 179.56 75.76 179.36 78.01 179.12 C 78.59 182.90 74.37 183.30 71.73 182.34 C 71.65 181.90 71.49 181.02 71.41 180.58 Z" />
</g>
</svg>
