<?xml version="1.0" encoding="UTF-8" ?>
<!DOCTYPE svg PUBLIC "-//W3C//DTD SVG 1.1//EN" "http://www.w3.org/Graphics/SVG/1.1/DTD/svg11.dtd">
<svg width="16pt" height="16pt" viewBox="0 0 16 16" version="1.1" xmlns="http://www.w3.org/2000/svg">
<g id="#348fbdf5">
<path fill="#348fbd" opacity="0.96" d=" M 0.00 0.00 L 16.00 0.00 L 16.00 16.00 L 0.00 16.00 L 0.00 0.00 M 5.23 2.06 C 4.76 6.09 3.32 9.94 2.96 13.98 C 3.69 13.98 5.15 13.97 5.88 13.97 C 2.18 6.17 9.82 11.15 11.13 7.15 C 9.76 7.07 8.39 6.98 7.02 6.88 C 6.29 3.63 7.94 2.63 11.98 3.90 C 13.38 -0.31 6.09 3.78 5.23 2.06 Z" />
</g>
<g id="#f2f8fbff">
<path fill="#f2f8fb" opacity="1.00" d=" M 5.23 2.06 C 6.09 3.78 13.38 -0.31 11.98 3.90 C 7.94 2.63 6.29 3.63 7.02 6.88 C 8.39 6.98 9.76 7.07 11.13 7.15 C 9.82 11.15 2.18 6.17 5.88 13.97 C 5.15 13.97 3.69 13.98 2.96 13.98 C 3.32 9.94 4.76 6.09 5.23 2.06 Z" />
</g>
</svg>
