<?xml version="1.0" encoding="UTF-8" ?>
<!DOCTYPE svg PUBLIC "-//W3C//DTD SVG 1.1//EN" "http://www.w3.org/Graphics/SVG/1.1/DTD/svg11.dtd">
<svg width="96pt" height="96pt" viewBox="0 0 96 96" version="1.1" xmlns="http://www.w3.org/2000/svg">
<g id="#ffffffff">
<path fill="#ffffff" opacity="1.00" d=" M 0.00 0.00 L 29.89 0.00 C 27.35 0.38 24.33 0.41 22.51 2.53 C 20.78 4.18 20.78 6.72 20.75 8.94 C 20.85 35.67 20.73 62.41 20.81 89.14 C 20.54 92.47 23.21 95.05 26.17 96.00 L 0.00 96.00 L 0.00 0.00 Z" />
<path fill="#ffffff" opacity="1.00" d=" M 68.08 0.00 L 96.00 0.00 L 96.00 96.00 L 69.11 96.00 C 72.28 95.20 74.91 92.42 74.72 89.02 C 74.80 61.99 74.73 34.94 74.78 7.91 C 75.18 3.84 71.78 0.82 68.08 0.00 Z" />
<path fill="#ffffff" opacity="1.00" d=" M 38.37 5.45 C 44.45 5.54 50.54 5.20 56.60 5.57 C 56.86 6.00 57.37 6.86 57.62 7.29 C 51.23 7.60 44.83 7.38 38.44 7.44 L 38.37 5.45 Z" />
<path fill="#ffffff" opacity="1.00" d=" M 62.24 5.14 C 63.85 3.00 66.29 7.38 63.91 8.06 C 62.47 9.59 60.12 5.92 62.24 5.14 Z" />
<path fill="#ffffff" opacity="1.00" d=" M 25.77 12.31 C 40.36 12.09 54.96 12.28 69.55 12.21 C 69.55 34.06 69.55 55.91 69.55 77.77 C 54.96 77.72 40.37 77.83 25.79 77.71 C 25.80 55.91 25.83 34.11 25.77 12.31 Z" />
<path fill="#ffffff" opacity="1.00" d=" M 39.31 83.38 C 44.96 83.40 50.60 83.36 56.25 83.42 C 56.25 85.12 56.25 86.83 56.25 88.54 C 50.60 88.59 44.96 88.56 39.32 88.57 C 39.32 86.84 39.31 85.11 39.31 83.38 Z" />
</g>
<g id="#0f75bcff">
<path fill="#0f75bc" opacity="1.00" d=" M 29.89 0.00 L 68.08 0.00 C 71.78 0.82 75.18 3.84 74.78 7.91 C 74.73 34.94 74.80 61.99 74.72 89.02 C 74.91 92.42 72.28 95.20 69.11 96.00 L 26.17 96.00 C 23.21 95.05 20.54 92.47 20.81 89.14 C 20.73 62.41 20.85 35.67 20.75 8.94 C 20.78 6.72 20.78 4.18 22.51 2.53 C 24.33 0.41 27.35 0.38 29.89 0.00 M 38.37 5.45 L 38.44 7.44 C 44.83 7.38 51.23 7.60 57.62 7.29 C 57.37 6.86 56.86 6.00 56.60 5.57 C 50.54 5.20 44.45 5.54 38.37 5.45 M 62.24 5.14 C 60.12 5.92 62.47 9.59 63.91 8.06 C 66.29 7.38 63.85 3.00 62.24 5.14 M 25.77 12.31 C 25.83 34.11 25.80 55.91 25.79 77.71 C 40.37 77.83 54.96 77.72 69.55 77.77 C 69.55 55.91 69.55 34.06 69.55 12.21 C 54.96 12.28 40.36 12.09 25.77 12.31 M 39.31 83.38 C 39.31 85.11 39.32 86.84 39.32 88.57 C 44.96 88.56 50.60 88.59 56.25 88.54 C 56.25 86.83 56.25 85.12 56.25 83.42 C 50.60 83.36 44.96 83.40 39.31 83.38 Z" />
</g>
</svg>
