<?xml version="1.0" encoding="UTF-8" ?>
<!DOCTYPE svg PUBLIC "-//W3C//DTD SVG 1.1//EN" "http://www.w3.org/Graphics/SVG/1.1/DTD/svg11.dtd">
<svg width="180pt" height="180pt" viewBox="0 0 180 180" version="1.1" xmlns="http://www.w3.org/2000/svg">
<g id="#ffffffff">
<path fill="#ffffff" opacity="1.00" d=" M 0.00 0.00 L 180.00 0.00 L 180.00 180.00 L 0.00 180.00 L 0.00 0.00 M 83.35 30.63 C 83.76 44.20 85.06 57.73 85.48 71.30 C 86.98 60.22 86.96 48.99 88.17 37.88 C 86.66 35.40 85.04 32.99 83.35 30.63 M 63.98 35.94 C 63.95 37.69 65.28 38.66 66.25 39.88 C 71.30 49.08 76.08 58.44 81.36 67.50 L 80.68 69.64 C 72.79 59.69 65.51 49.26 57.65 39.30 C 55.54 38.89 53.50 40.32 51.49 40.83 C 51.51 42.97 51.56 45.12 51.66 47.26 C 52.09 45.81 52.50 44.34 52.92 42.88 C 57.29 46.54 60.95 50.95 65.04 54.91 C 70.13 60.39 75.84 65.31 80.51 71.16 L 80.45 71.87 C 81.62 72.63 82.79 73.39 83.97 74.16 C 83.76 72.82 84.18 71.24 83.23 70.11 C 78.74 58.29 74.41 46.39 70.10 34.50 C 68.06 34.98 66.02 35.47 63.98 35.94 M 100.87 36.06 C 96.77 47.55 92.44 58.97 88.49 70.52 L 87.85 69.05 C 88.09 70.66 88.35 72.27 88.66 73.87 C 90.86 71.68 92.61 69.10 94.86 66.97 C 102.89 59.09 110.36 50.65 118.54 42.93 C 118.89 43.78 119.59 45.48 119.94 46.33 C 120.35 44.53 120.40 42.69 120.36 40.86 C 118.31 40.15 116.25 39.47 114.14 38.94 C 106.73 49.23 98.75 59.11 91.47 69.50 C 91.05 69.60 90.21 69.79 89.79 69.89 C 94.91 59.52 101.36 49.85 107.02 39.76 C 107.39 40.28 108.14 41.32 108.51 41.83 C 108.45 40.42 108.39 39.00 108.34 37.58 C 105.86 37.01 103.37 36.49 100.87 36.06 M 33.78 46.98 C 33.78 48.86 33.80 50.74 33.82 52.63 C 34.55 51.16 35.28 49.69 35.99 48.22 C 50.45 56.35 64.48 65.26 79.12 73.04 C 67.60 64.18 55.97 55.45 44.47 46.55 C 43.39 45.83 42.45 44.77 41.14 44.51 C 38.65 45.22 36.24 46.17 33.78 46.98 M 92.81 73.10 C 107.22 65.05 121.36 56.50 135.66 48.25 C 136.33 49.69 137.02 51.12 137.70 52.56 C 137.74 50.68 137.76 48.80 137.78 46.92 C 135.22 46.03 132.64 45.16 130.05 44.36 C 117.78 54.13 104.97 63.21 92.81 73.10 M 22.29 53.29 C 22.28 77.38 22.20 101.48 22.34 125.58 C 25.97 126.79 29.35 128.89 33.09 129.66 C 43.67 134.54 54.57 138.74 65.36 143.15 C 65.46 133.38 65.37 123.60 65.40 113.83 C 71.83 115.76 77.67 119.26 84.12 121.10 C 84.08 117.37 84.33 113.62 84.04 109.89 C 83.74 108.49 82.10 108.31 81.06 107.70 C 75.81 105.49 70.58 103.25 65.38 100.94 C 65.43 96.33 65.39 91.72 65.44 87.12 C 71.69 89.59 77.83 92.34 84.15 94.63 C 83.99 88.94 84.51 83.23 83.80 77.57 C 63.63 69.78 43.66 61.48 23.50 53.68 L 23.59 53.27 C 23.27 53.28 22.62 53.28 22.29 53.29 M 145.99 54.45 C 126.50 62.19 107.01 69.97 87.54 77.77 C 87.56 83.44 87.53 89.11 87.57 94.77 C 93.78 92.61 99.92 90.23 106.19 88.23 C 106.10 92.58 106.36 96.93 106.10 101.28 C 105.79 102.54 104.20 102.59 103.26 103.15 C 98.02 105.06 92.85 107.15 87.60 109.03 C 87.52 113.31 87.54 117.59 87.57 121.87 C 93.75 119.61 99.81 117.00 106.06 114.91 C 106.27 119.38 106.14 123.84 106.24 128.31 C 100.12 131.08 93.88 133.60 87.63 136.08 C 87.49 141.01 87.55 145.95 87.57 150.89 C 107.50 142.82 127.29 134.42 147.22 126.36 C 147.75 126.10 148.81 125.58 149.34 125.32 C 149.22 101.25 149.35 77.19 149.27 53.12 C 148.17 53.54 147.07 53.98 145.99 54.45 M 155.67 132.75 C 155.12 133.97 155.40 135.61 156.24 136.63 C 157.62 136.23 157.36 132.23 155.67 132.75 M 157.35 132.16 C 157.64 133.72 157.93 135.28 158.22 136.85 C 159.77 136.84 161.32 136.83 162.88 136.83 C 162.93 135.35 162.97 133.88 163.01 132.41 C 161.65 132.69 160.95 133.79 160.34 134.90 C 160.08 133.27 159.09 132.35 157.35 132.16 Z" />
</g>
<g id="#31798fff">
<path fill="#31798f" opacity="1.00" d=" M 83.35 30.63 C 85.04 32.99 86.66 35.40 88.17 37.88 C 86.96 48.99 86.98 60.22 85.48 71.30 C 85.06 57.73 83.76 44.20 83.35 30.63 Z" />
</g>
<g id="#469e62ff">
<path fill="#469e62" opacity="1.00" d=" M 63.98 35.94 C 66.02 35.47 68.06 34.98 70.10 34.50 C 74.41 46.39 78.74 58.29 83.23 70.11 C 82.61 69.24 81.99 68.37 81.36 67.50 C 76.08 58.44 71.30 49.08 66.25 39.88 C 65.28 38.66 63.95 37.69 63.98 35.94 Z" />
</g>
<g id="#4a7e9eff">
<path fill="#4a7e9e" opacity="1.00" d=" M 100.87 36.06 C 103.37 36.49 105.86 37.01 108.34 37.58 C 108.39 39.00 108.45 40.42 108.51 41.83 C 108.14 41.32 107.39 40.28 107.02 39.76 C 101.36 49.85 94.91 59.52 89.79 69.89 C 89.46 70.04 88.82 70.36 88.49 70.52 C 92.44 58.97 96.77 47.55 100.87 36.06 Z" />
</g>
<g id="#409040ff">
<path fill="#409040" opacity="1.00" d=" M 51.49 40.83 C 53.50 40.32 55.54 38.89 57.65 39.30 C 65.51 49.26 72.79 59.69 80.68 69.64 C 80.64 70.02 80.56 70.78 80.51 71.16 C 75.84 65.31 70.13 60.39 65.04 54.91 C 60.95 50.95 57.29 46.54 52.92 42.88 C 52.50 44.34 52.09 45.81 51.66 47.26 C 51.56 45.12 51.51 42.97 51.49 40.83 Z" />
</g>
<g id="#3981aeff">
<path fill="#3981ae" opacity="1.00" d=" M 114.14 38.94 C 116.25 39.47 118.31 40.15 120.36 40.86 C 120.40 42.69 120.35 44.53 119.94 46.33 C 119.59 45.48 118.89 43.78 118.54 42.93 C 110.36 50.65 102.89 59.09 94.86 66.97 C 92.61 69.10 90.86 71.68 88.66 73.87 C 88.35 72.27 88.09 70.66 87.85 69.05 L 88.49 70.52 C 88.82 70.36 89.46 70.04 89.79 69.89 C 90.21 69.79 91.05 69.60 91.47 69.50 C 98.75 59.11 106.73 49.23 114.14 38.94 Z" />
</g>
<g id="#4ca344ff">
<path fill="#4ca344" opacity="1.00" d=" M 33.78 46.98 C 36.24 46.17 38.65 45.22 41.14 44.51 C 42.45 44.77 43.39 45.83 44.47 46.55 C 55.97 55.45 67.60 64.18 79.12 73.04 C 64.48 65.26 50.45 56.35 35.99 48.22 C 35.28 49.69 34.55 51.16 33.82 52.63 C 33.80 50.74 33.78 48.86 33.78 46.98 Z" />
</g>
<g id="#3984c3ff">
<path fill="#3984c3" opacity="1.00" d=" M 92.81 73.10 C 104.97 63.21 117.78 54.13 130.05 44.36 C 132.64 45.16 135.22 46.03 137.78 46.92 C 137.76 48.80 137.74 50.68 137.70 52.56 C 137.02 51.12 136.33 49.69 135.66 48.25 C 121.36 56.50 107.22 65.05 92.81 73.10 Z" />
</g>
<g id="#7bb152ff">
<path fill="#7bb152" opacity="1.00" d=" M 22.29 53.29 C 22.62 53.28 23.27 53.28 23.59 53.27 L 23.50 53.68 C 23.35 54.31 23.06 55.58 22.91 56.21 C 28.47 59.12 34.87 60.33 40.06 63.92 C 43.11 76.34 40.88 89.34 41.96 101.98 C 43.23 111.57 42.59 121.25 42.65 130.89 C 39.56 129.94 36.36 129.03 33.09 129.66 C 29.35 128.89 25.97 126.79 22.34 125.58 C 22.20 101.48 22.28 77.38 22.29 53.29 Z" />
</g>
<g id="#6eaa42ff">
<path fill="#6eaa42" opacity="1.00" d=" M 22.91 56.21 C 23.06 55.58 23.35 54.31 23.50 53.68 C 43.66 61.48 63.63 69.78 83.80 77.57 C 84.51 83.23 83.99 88.94 84.15 94.63 C 77.83 92.34 71.69 89.59 65.44 87.12 C 65.39 91.72 65.43 96.33 65.38 100.94 C 70.58 103.25 75.81 105.49 81.06 107.70 C 82.10 108.31 83.74 108.49 84.04 109.89 C 84.33 113.62 84.08 117.37 84.12 121.10 C 77.67 119.26 71.83 115.76 65.40 113.83 C 65.37 123.60 65.46 133.38 65.36 143.15 C 54.57 138.74 43.67 134.54 33.09 129.66 C 36.36 129.03 39.56 129.94 42.65 130.89 C 42.59 121.25 43.23 111.57 41.96 101.98 C 40.88 89.34 43.11 76.34 40.06 63.92 C 34.87 60.33 28.47 59.12 22.91 56.21 Z" />
</g>
<g id="#4b8ac5ff">
<path fill="#4b8ac5" opacity="1.00" d=" M 145.99 54.45 C 147.07 53.98 148.17 53.54 149.27 53.12 C 149.35 77.19 149.22 101.25 149.34 125.32 C 148.81 125.58 147.75 126.10 147.22 126.36 C 147.37 125.73 147.65 124.48 147.79 123.86 C 142.93 125.57 138.31 127.99 133.23 129.06 C 132.33 119.37 133.25 109.65 132.92 99.94 C 132.63 93.93 134.05 88.01 133.96 82.00 C 133.89 75.45 133.75 68.90 134.25 62.36 C 138.98 59.98 144.06 58.42 148.78 56.02 C 148.08 55.62 146.69 54.84 145.99 54.45 Z" />
</g>
<g id="#377ebfff">
<path fill="#377ebf" opacity="1.00" d=" M 87.54 77.77 C 107.01 69.97 126.50 62.19 145.99 54.45 C 146.69 54.84 148.08 55.62 148.78 56.02 C 144.06 58.42 138.98 59.98 134.25 62.36 C 133.75 68.90 133.89 75.45 133.96 82.00 C 134.05 88.01 132.63 93.93 132.92 99.94 C 133.25 109.65 132.33 119.37 133.23 129.06 C 138.31 127.99 142.93 125.57 147.79 123.86 C 147.65 124.48 147.37 125.73 147.22 126.36 C 127.29 134.42 107.50 142.82 87.57 150.89 C 87.55 145.95 87.49 141.01 87.63 136.08 C 93.88 133.60 100.12 131.08 106.24 128.31 C 106.14 123.84 106.27 119.38 106.06 114.91 C 99.81 117.00 93.75 119.61 87.57 121.87 C 87.54 117.59 87.52 113.31 87.60 109.03 C 92.85 107.15 98.02 105.06 103.26 103.15 C 104.20 102.59 105.79 102.54 106.10 101.28 C 106.36 96.93 106.10 92.58 106.19 88.23 C 99.92 90.23 93.78 92.61 87.57 94.77 C 87.53 89.11 87.56 83.44 87.54 77.77 Z" />
</g>
<g id="#d5e9d9ff">
<path fill="#d5e9d9" opacity="1.00" d=" M 81.36 67.50 C 81.99 68.37 82.61 69.24 83.23 70.11 C 84.18 71.24 83.76 72.82 83.97 74.16 C 82.79 73.39 81.62 72.63 80.45 71.87 L 80.51 71.16 C 80.56 70.78 80.64 70.02 80.68 69.64 L 81.36 67.50 Z" />
</g>
<g id="#a8c7e4ff">
<path fill="#a8c7e4" opacity="1.00" d=" M 155.67 132.75 C 157.36 132.23 157.62 136.23 156.24 136.63 C 155.40 135.61 155.12 133.97 155.67 132.75 Z" />
</g>
<g id="#aecbe6ff">
<path fill="#aecbe6" opacity="1.00" d=" M 157.35 132.16 C 159.09 132.35 160.08 133.27 160.34 134.90 C 160.95 133.79 161.65 132.69 163.01 132.41 C 162.97 133.88 162.93 135.35 162.88 136.83 C 161.32 136.83 159.77 136.84 158.22 136.85 C 157.93 135.28 157.64 133.72 157.35 132.16 Z" />
</g>
</svg>
