<?xml version="1.0" encoding="UTF-8" ?>
<!DOCTYPE svg PUBLIC "-//W3C//DTD SVG 1.1//EN" "http://www.w3.org/Graphics/SVG/1.1/DTD/svg11.dtd">
<svg width="96pt" height="96pt" viewBox="0 0 96 96" version="1.1" xmlns="http://www.w3.org/2000/svg">
<g id="#1273ebff">
<path fill="#1273eb" opacity="1.00" d=" M 41.02 5.99 C 41.67 2.23 47.47 1.54 48.96 5.05 C 50.22 7.02 48.97 9.11 48.00 10.87 C 48.07 11.75 48.20 13.51 48.26 14.39 C 52.63 14.31 57.01 14.58 61.31 15.41 C 61.00 16.92 60.68 18.44 60.37 19.96 C 51.28 18.07 41.68 19.16 33.28 23.13 C 32.61 21.73 31.95 20.33 31.30 18.93 C 35.29 17.12 39.47 15.79 43.76 14.92 C 43.63 13.78 43.51 12.64 43.38 11.50 C 42.01 9.99 40.22 8.25 41.02 5.99 Z" />
<path fill="#1273eb" opacity="1.00" d=" M 76.13 21.59 C 79.22 23.74 82.11 26.13 84.81 28.74 C 86.63 27.13 87.45 24.71 89.18 23.07 C 92.51 21.08 96.23 25.83 93.71 28.66 C 91.90 30.12 89.31 30.27 87.59 31.98 C 89.81 35.05 91.75 38.29 93.41 41.69 C 92.02 42.33 90.62 42.96 89.21 43.59 C 85.80 36.29 80.43 30.01 73.73 25.54 C 74.51 24.21 75.32 22.90 76.13 21.59 Z" />
<path fill="#1273eb" opacity="1.00" d=" M 38.20 26.19 C 48.52 22.15 60.65 23.16 70.16 28.86 C 80.83 35.14 87.87 46.94 88.23 59.33 C 76.23 69.20 60.18 72.07 45.08 72.80 C 35.10 72.97 24.58 72.82 15.44 68.32 C 14.05 61.00 14.50 53.26 17.46 46.37 C 21.25 37.20 28.92 29.73 38.20 26.19 M 35.43 41.57 C 30.47 42.91 26.94 47.95 27.28 53.06 C 27.38 59.08 32.98 64.38 39.04 63.85 C 45.33 63.62 50.37 57.30 49.42 51.11 C 48.86 44.56 41.77 39.58 35.43 41.57 M 63.36 42.47 C 57.92 45.02 57.34 53.45 62.34 56.75 C 67.05 60.46 74.70 56.94 75.13 51.02 C 76.29 44.81 68.95 39.25 63.36 42.47 Z" />
<path fill="#1273eb" opacity="1.00" d=" M 11.57 37.63 C 13.40 34.34 15.71 31.37 18.20 28.56 C 19.33 29.65 20.45 30.75 21.57 31.86 C 16.09 37.86 12.27 45.28 10.76 53.29 C 9.24 53.01 7.72 52.73 6.21 52.44 C 6.99 48.70 8.12 45.06 9.52 41.50 C 7.50 40.51 5.20 40.68 3.13 39.95 C 0.62 38.37 1.26 34.08 4.13 33.34 C 7.52 32.45 8.69 36.77 11.57 37.63 Z" />
<path fill="#1273eb" opacity="1.00" d=" M 49.94 77.17 C 62.90 76.26 75.87 72.90 87.02 66.08 C 83.94 76.52 76.56 85.78 66.55 90.30 C 54.95 96.00 40.39 94.59 29.85 87.20 C 25.08 83.99 21.31 79.53 18.34 74.65 C 28.58 77.56 39.37 77.89 49.94 77.17 Z" />
</g>
</svg>
