<?xml version="1.0" encoding="UTF-8" ?>
<!DOCTYPE svg PUBLIC "-//W3C//DTD SVG 1.1//EN" "http://www.w3.org/Graphics/SVG/1.1/DTD/svg11.dtd">
<svg width="100pt" height="100pt" viewBox="0 0 100 100" version="1.1" xmlns="http://www.w3.org/2000/svg">
<g id="#050608ff">
<path fill="#050608" opacity="1.00" d=" M 0.00 0.00 L 100.00 0.00 L 100.00 100.00 L 0.00 100.00 L 0.00 0.00 M 37.39 5.45 C 34.87 8.13 30.06 5.73 28.79 9.77 C 24.46 9.08 23.61 14.05 19.47 14.48 C 18.41 16.80 14.97 17.19 14.90 19.95 C 14.51 22.29 10.36 22.11 11.00 25.00 C 11.73 28.65 4.89 27.60 7.65 32.60 C 3.90 33.40 6.11 36.25 5.66 38.65 C 1.26 42.91 4.80 49.09 3.01 54.00 C 4.62 57.41 2.40 62.70 6.74 64.11 C 6.19 65.96 5.19 68.45 7.25 69.76 C 9.02 70.88 8.96 72.93 9.25 74.78 C 13.20 76.22 12.19 81.64 16.63 82.33 C 16.86 84.97 18.60 86.73 21.36 86.29 C 21.31 87.20 21.75 87.66 22.68 87.70 C 23.62 91.04 27.90 89.07 28.97 92.11 C 29.18 94.99 33.93 95.04 36.30 95.93 C 38.80 94.82 41.30 94.95 43.34 96.92 C 42.56 100.31 52.26 96.54 54.24 97.53 C 56.99 97.81 61.77 98.98 60.87 94.82 C 62.29 94.53 65.14 93.95 66.56 93.67 C 67.58 90.59 72.28 93.24 72.98 89.69 C 73.22 89.29 73.69 88.47 73.92 88.07 C 75.54 87.88 77.93 88.67 78.62 86.66 C 79.67 84.00 84.18 84.41 84.11 81.06 C 84.31 79.21 87.03 79.21 87.29 77.29 C 87.93 74.50 90.57 73.32 90.25 70.21 C 94.23 68.53 93.85 63.40 93.78 59.74 C 95.46 57.92 96.97 55.20 94.85 53.09 C 97.40 45.67 92.80 37.78 91.52 30.38 C 87.17 22.65 81.43 16.08 74.01 11.02 C 69.08 7.14 62.33 7.13 57.03 4.19 C 54.03 6.06 50.93 3.18 47.92 4.80 C 44.42 3.75 40.94 4.78 37.39 5.45 Z" />
</g>
<g id="#252e49ff">
<path fill="#252e49" opacity="1.00" d=" M 37.39 5.45 C 40.94 4.78 44.42 3.75 47.92 4.80 C 50.93 3.18 54.03 6.06 57.03 4.19 C 62.33 7.13 69.08 7.14 74.01 11.02 C 81.43 16.08 87.17 22.65 91.52 30.38 C 92.80 37.78 97.40 45.67 94.85 53.09 C 94.01 51.40 93.60 49.52 92.65 47.89 C 92.20 47.01 91.72 46.15 91.35 45.23 C 92.16 39.23 87.43 33.96 86.26 28.38 C 89.78 27.45 85.57 25.65 84.08 24.95 C 83.91 23.11 79.50 17.67 80.14 21.91 C 79.91 22.47 79.47 23.59 79.24 24.15 C 79.03 22.46 78.77 20.77 78.43 19.09 C 77.50 16.82 74.78 15.58 73.09 13.81 C 71.60 12.66 69.88 11.84 68.16 11.09 C 66.14 10.14 63.95 9.68 61.78 9.20 C 61.32 9.13 60.39 8.99 59.92 8.91 L 60.31 8.21 C 60.49 7.90 60.84 7.27 61.01 6.96 C 56.88 6.81 52.75 6.51 48.62 6.91 C 47.99 6.82 46.73 6.65 46.09 6.57 C 44.20 6.12 39.49 5.99 40.63 8.93 C 38.72 8.77 34.30 6.34 35.59 9.92 C 34.28 11.14 32.48 11.62 30.87 12.33 C 28.05 13.56 25.18 14.85 22.71 16.71 C 20.47 18.26 19.15 20.99 16.42 21.80 C 14.87 25.19 11.14 27.97 10.77 31.63 C 10.24 35.48 8.59 38.98 7.40 42.63 C 4.97 45.98 5.17 52.10 6.84 56.15 C 8.96 60.17 8.98 64.94 11.01 69.01 C 13.48 73.68 16.70 77.91 20.14 81.90 C 20.65 83.32 21.67 84.71 21.36 86.29 C 18.60 86.73 16.86 84.97 16.63 82.33 C 12.19 81.64 13.20 76.22 9.25 74.78 C 8.96 72.93 9.02 70.88 7.25 69.76 C 5.19 68.45 6.19 65.96 6.74 64.11 C 2.40 62.70 4.62 57.41 3.01 54.00 C 4.80 49.09 1.26 42.91 5.66 38.65 C 6.11 36.25 3.90 33.40 7.65 32.60 C 4.89 27.60 11.73 28.65 11.00 25.00 C 10.36 22.11 14.51 22.29 14.90 19.95 C 14.97 17.19 18.41 16.80 19.47 14.48 C 23.61 14.05 24.46 9.08 28.79 9.77 C 30.06 5.73 34.87 8.13 37.39 5.45 Z" />
</g>
<g id="#1d1e20ff">
<path fill="#1d1e20" opacity="1.00" d=" M 40.63 8.93 C 39.49 5.99 44.20 6.12 46.09 6.57 C 44.77 7.56 46.44 8.27 47.16 8.86 C 46.22 9.34 45.29 9.84 44.37 10.34 C 42.21 11.96 39.42 11.38 36.94 11.95 C 35.69 12.39 34.45 12.89 33.20 13.32 C 32.62 13.07 31.45 12.58 30.87 12.33 C 32.48 11.62 34.28 11.14 35.59 9.92 C 34.30 6.34 38.72 8.77 40.63 8.93 Z" />
</g>
<g id="#1f242dff">
<path fill="#1f242d" opacity="1.00" d=" M 48.62 6.91 C 52.75 6.51 56.88 6.81 61.01 6.96 C 60.84 7.27 60.49 7.90 60.31 8.21 C 56.83 8.12 53.36 7.99 49.89 8.14 C 49.57 7.83 48.94 7.22 48.62 6.91 Z" />
</g>
<g id="#4a4842ff">
<path fill="#4a4842" opacity="1.00" d=" M 47.16 8.86 C 46.44 8.27 44.77 7.56 46.09 6.57 C 46.73 6.65 47.99 6.82 48.62 6.91 C 48.94 7.22 49.57 7.83 49.89 8.14 L 49.81 8.84 C 49.15 8.84 47.82 8.85 47.16 8.86 Z" />
</g>
<g id="#aca68bff">
<path fill="#aca68b" opacity="1.00" d=" M 49.89 8.14 C 53.36 7.99 56.83 8.12 60.31 8.21 L 59.92 8.91 C 56.55 8.95 53.18 9.02 49.81 8.84 L 49.89 8.14 Z" />
</g>
<g id="#ebe0b5ff">
<path fill="#ebe0b5" opacity="1.00" d=" M 44.37 10.34 C 45.29 9.84 46.22 9.34 47.16 8.86 C 47.82 8.85 49.15 8.84 49.81 8.84 C 53.18 9.02 56.55 8.95 59.92 8.91 C 60.39 8.99 61.32 9.13 61.78 9.20 C 61.88 9.53 62.07 10.17 62.17 10.50 C 60.67 10.66 59.10 10.85 57.86 11.78 C 52.38 13.50 47.47 18.01 46.80 23.93 C 46.07 27.72 45.89 31.54 46.26 35.40 L 45.99 36.27 C 43.95 36.77 42.50 34.91 40.79 34.13 C 39.44 32.68 39.15 30.61 37.95 29.10 C 37.30 28.44 36.65 27.78 35.99 27.12 C 37.51 24.98 35.97 22.60 36.31 20.33 C 37.47 18.92 38.80 17.66 39.99 16.27 C 41.52 14.34 43.55 12.74 44.37 10.34 Z" />
</g>
<g id="#aeac96ff">
<path fill="#aeac96" opacity="1.00" d=" M 61.78 9.20 C 63.95 9.68 66.14 10.14 68.16 11.09 C 67.81 11.37 67.12 11.94 66.77 12.22 C 66.35 12.14 65.51 11.99 65.09 11.91 C 64.19 11.28 63.22 10.81 62.17 10.50 C 62.07 10.17 61.88 9.53 61.78 9.20 Z" />
</g>
<g id="#6d6d56ff">
<path fill="#6d6d56" opacity="1.00" d=" M 36.94 11.95 C 39.42 11.38 42.21 11.96 44.37 10.34 C 43.55 12.74 41.52 14.34 39.99 16.27 C 37.39 15.30 38.82 13.58 39.93 11.98 C 39.18 11.97 37.69 11.96 36.94 11.95 Z" />
</g>
<g id="#787466ff">
<path fill="#787466" opacity="1.00" d=" M 57.86 11.78 C 59.10 10.85 60.67 10.66 62.17 10.50 C 63.22 10.81 64.19 11.28 65.09 11.91 C 63.28 11.88 59.66 11.81 57.86 11.78 Z" />
</g>
<g id="#808071ff">
<path fill="#808071" opacity="1.00" d=" M 68.16 11.09 C 69.88 11.84 71.60 12.66 73.09 13.81 C 72.82 14.04 72.26 14.52 71.98 14.75 C 70.28 13.84 68.54 13.00 66.77 12.22 C 67.12 11.94 67.81 11.37 68.16 11.09 Z" />
</g>
<g id="#32312aff">
<path fill="#32312a" opacity="1.00" d=" M 22.71 16.71 C 25.18 14.85 28.05 13.56 30.87 12.33 C 31.45 12.58 32.62 13.07 33.20 13.32 C 30.79 14.74 26.14 14.74 26.07 18.19 C 25.58 18.38 24.61 18.78 24.12 18.97 C 21.85 19.11 20.43 20.86 19.71 22.85 C 19.45 23.10 18.94 23.62 18.68 23.87 C 16.75 25.52 15.42 27.70 14.47 30.03 C 13.72 31.26 13.74 33.08 15.06 33.92 C 16.12 34.86 17.31 35.63 18.38 36.55 C 17.04 36.46 15.69 36.47 14.35 36.39 C 13.29 34.70 12.34 32.92 10.77 31.63 C 11.14 27.97 14.87 25.19 16.42 21.80 C 19.15 20.99 20.47 18.26 22.71 16.71 Z" />
</g>
<g id="#a6a07eff">
<path fill="#a6a07e" opacity="1.00" d=" M 33.20 13.32 C 34.45 12.89 35.69 12.39 36.94 11.95 C 37.69 11.96 39.18 11.97 39.93 11.98 C 38.82 13.58 37.39 15.30 39.99 16.27 C 38.80 17.66 37.47 18.92 36.31 20.33 C 35.97 22.60 37.51 24.98 35.99 27.12 C 34.97 26.68 33.95 26.26 32.91 25.85 C 31.16 22.28 35.23 18.81 37.71 16.57 C 36.94 13.40 34.25 16.43 32.69 17.30 C 30.49 17.61 28.27 17.87 26.07 18.19 C 26.14 14.74 30.79 14.74 33.20 13.32 Z" />
</g>
<g id="#1b1f23ff">
<path fill="#1b1f23" opacity="1.00" d=" M 46.80 23.93 C 47.47 18.01 52.38 13.50 57.86 11.78 C 59.66 11.81 63.28 11.88 65.09 11.91 C 65.51 11.99 66.35 12.14 66.77 12.22 C 68.54 13.00 70.28 13.84 71.98 14.75 C 73.90 16.23 75.48 18.07 76.86 20.05 C 76.95 21.79 77.02 23.54 77.12 25.28 C 74.67 25.41 72.94 23.58 70.73 23.07 C 68.54 22.32 67.34 23.96 66.53 25.74 C 65.37 26.46 64.23 27.23 63.09 27.99 C 62.21 26.36 61.11 24.86 60.28 23.21 C 61.92 19.35 55.85 16.07 54.99 20.74 C 51.81 17.50 49.46 22.21 46.80 23.93 Z" />
</g>
<g id="#9c998fff">
<path fill="#9c998f" opacity="1.00" d=" M 71.98 14.75 C 72.26 14.52 72.82 14.04 73.09 13.81 C 74.78 15.58 77.50 16.82 78.43 19.09 C 78.04 19.33 77.25 19.81 76.86 20.05 C 75.48 18.07 73.90 16.23 71.98 14.75 Z" />
</g>
<g id="#dad0a6ff">
<path fill="#dad0a6" opacity="1.00" d=" M 32.69 17.30 C 34.25 16.43 36.94 13.40 37.71 16.57 C 35.23 18.81 31.16 22.28 32.91 25.85 C 31.99 25.99 29.90 26.37 30.34 27.67 C 31.30 28.13 32.27 28.56 33.25 28.96 C 30.80 28.26 31.58 30.25 31.72 31.78 C 31.02 32.58 30.25 33.31 29.41 33.95 C 28.94 32.32 28.12 30.89 26.79 29.81 C 29.83 27.07 23.97 28.80 23.50 26.21 C 20.73 27.10 23.52 29.56 23.86 31.26 C 22.33 30.84 20.92 30.15 19.64 29.21 C 19.15 27.46 18.92 25.66 18.68 23.87 C 18.94 23.62 19.45 23.10 19.71 22.85 C 22.29 23.44 23.05 20.67 24.12 18.97 C 24.61 18.78 25.58 18.38 26.07 18.19 C 28.27 17.87 30.49 17.61 32.69 17.30 Z" />
</g>
<g id="#b8b6b4ff">
<path fill="#b8b6b4" opacity="1.00" d=" M 54.99 20.74 C 55.85 16.07 61.92 19.35 60.28 23.21 C 58.84 22.10 57.50 22.73 56.27 23.73 C 55.86 22.73 55.43 21.73 54.99 20.74 Z" />
</g>
<g id="#8e8a75ff">
<path fill="#8e8a75" opacity="1.00" d=" M 19.71 22.85 C 20.43 20.86 21.85 19.11 24.12 18.97 C 23.05 20.67 22.29 23.44 19.71 22.85 Z" />
</g>
<g id="#13171dff">
<path fill="#13171d" opacity="1.00" d=" M 46.80 23.93 C 49.46 22.21 51.81 17.50 54.99 20.74 C 55.43 21.73 55.86 22.73 56.27 23.73 C 57.50 22.73 58.84 22.10 60.28 23.21 C 61.11 24.86 62.21 26.36 63.09 27.99 C 63.57 30.49 65.61 31.45 67.94 31.82 C 69.42 29.62 67.46 27.66 66.53 25.74 C 67.34 23.96 68.54 22.32 70.73 23.07 C 71.41 25.91 74.58 28.60 77.24 26.29 C 77.98 25.64 78.65 24.93 79.24 24.15 C 79.47 23.59 79.91 22.47 80.14 21.91 C 81.40 22.99 82.61 24.15 84.08 24.95 C 85.57 25.65 89.78 27.45 86.26 28.38 C 87.43 33.96 92.16 39.23 91.35 45.23 C 90.63 44.39 89.87 43.59 89.07 42.83 C 89.38 44.52 89.80 46.20 90.13 47.89 C 90.15 49.68 90.20 53.27 90.23 55.06 L 90.40 55.81 C 89.44 58.44 89.65 62.87 85.99 63.18 C 84.25 62.85 82.53 62.40 80.76 62.33 C 79.84 62.26 78.91 62.21 77.99 62.19 C 75.84 62.94 73.97 63.99 72.23 61.88 C 72.11 62.70 71.88 64.33 71.76 65.15 C 71.14 62.90 69.51 60.75 66.91 61.03 C 63.79 61.52 60.34 61.27 57.63 63.07 C 56.32 61.40 60.15 59.32 57.40 58.58 C 54.71 58.12 56.73 53.60 58.61 56.01 C 60.75 57.77 64.21 57.49 62.83 54.03 C 64.10 51.22 65.64 52.45 66.36 54.83 C 67.53 53.81 68.56 52.64 69.75 51.63 C 71.21 52.01 72.67 52.44 74.14 52.82 C 74.08 50.78 73.45 48.83 72.78 46.92 C 72.81 44.31 70.41 38.80 73.87 39.17 C 75.86 39.02 79.23 41.19 79.96 38.53 C 82.11 36.34 78.29 33.50 76.03 33.89 C 72.04 35.93 67.62 35.41 63.20 35.50 C 62.43 36.26 61.80 37.14 61.13 37.99 C 60.13 36.33 59.47 38.29 58.74 39.09 C 58.13 37.79 58.19 35.62 56.19 36.01 C 56.11 36.72 55.97 38.16 55.90 38.88 C 55.09 38.19 54.35 37.40 53.42 36.88 C 52.56 36.16 51.42 36.89 50.43 36.82 C 51.14 34.31 48.83 32.39 48.92 29.91 C 50.33 29.95 51.06 31.00 51.71 32.08 C 52.54 32.97 53.66 33.29 55.07 33.04 C 54.95 31.84 54.71 30.66 54.34 29.50 C 54.44 26.57 51.36 26.32 49.13 26.28 C 48.16 28.80 48.58 31.78 47.14 34.09 C 47.08 30.70 46.99 27.31 46.80 23.93 Z" />
</g>
<g id="#b0ae9eff">
<path fill="#b0ae9e" opacity="1.00" d=" M 76.86 20.05 C 77.25 19.81 78.04 19.33 78.43 19.09 C 78.77 20.77 79.03 22.46 79.24 24.15 C 78.65 24.93 77.98 25.64 77.24 26.29 L 77.12 25.28 C 77.02 23.54 76.95 21.79 76.86 20.05 Z" />
</g>
<g id="#474c58ff">
<path fill="#474c58" opacity="1.00" d=" M 80.14 21.91 C 79.50 17.67 83.91 23.11 84.08 24.95 C 82.61 24.15 81.40 22.99 80.14 21.91 Z" />
</g>
<g id="#63645eff">
<path fill="#63645e" opacity="1.00" d=" M 70.73 23.07 C 72.94 23.58 74.67 25.41 77.12 25.28 L 77.24 26.29 C 74.58 28.60 71.41 25.91 70.73 23.07 Z" />
</g>
<g id="#b4ac8cff">
<path fill="#b4ac8c" opacity="1.00" d=" M 14.47 30.03 C 15.42 27.70 16.75 25.52 18.68 23.87 C 18.92 25.66 19.15 27.46 19.64 29.21 C 19.32 30.48 18.98 31.76 18.67 33.04 L 17.90 32.70 C 16.60 32.01 15.15 31.43 14.47 30.03 Z" />
</g>
<g id="#6a6658ff">
<path fill="#6a6658" opacity="1.00" d=" M 46.26 35.40 C 45.89 31.54 46.07 27.72 46.80 23.93 C 46.99 27.31 47.08 30.70 47.14 34.09 C 46.92 34.42 46.48 35.07 46.26 35.40 Z" />
</g>
<g id="#c9bc94ff">
<path fill="#c9bc94" opacity="1.00" d=" M 23.86 31.26 C 23.52 29.56 20.73 27.10 23.50 26.21 C 23.97 28.80 29.83 27.07 26.79 29.81 C 24.41 30.87 26.03 32.62 26.90 34.19 C 25.10 34.30 24.42 32.66 23.86 31.26 Z" />
</g>
<g id="#b3a984ff">
<path fill="#b3a984" opacity="1.00" d=" M 30.34 27.67 C 29.90 26.37 31.99 25.99 32.91 25.85 C 33.68 26.74 34.09 27.97 33.25 28.96 C 32.27 28.56 31.30 28.13 30.34 27.67 Z" />
</g>
<g id="#857e62ff">
<path fill="#857e62" opacity="1.00" d=" M 32.91 25.85 C 33.95 26.26 34.97 26.68 35.99 27.12 C 36.65 27.78 37.30 28.44 37.95 29.10 C 37.62 30.24 38.84 32.67 37.21 32.91 C 36.82 30.93 34.63 30.77 33.17 29.89 L 33.25 28.96 C 34.09 27.97 33.68 26.74 32.91 25.85 Z" />
</g>
<g id="#1c2127ff">
<path fill="#1c2127" opacity="1.00" d=" M 49.13 26.28 C 51.36 26.32 54.44 26.57 54.34 29.50 C 52.85 29.77 51.97 30.63 51.71 32.08 C 51.06 31.00 50.33 29.95 48.92 29.91 C 48.83 32.39 51.14 34.31 50.43 36.82 C 51.42 36.89 52.56 36.16 53.42 36.88 C 52.46 37.73 51.46 38.54 50.49 39.38 C 50.82 41.95 51.57 44.45 52.22 46.95 C 53.79 45.82 55.86 44.93 56.22 42.81 C 57.23 44.10 58.12 45.48 59.09 46.81 C 59.44 47.88 58.70 48.79 58.40 49.77 C 59.80 50.50 63.76 51.52 60.82 53.17 C 59.82 53.90 59.05 54.84 58.61 56.01 C 56.73 53.60 54.71 58.12 57.40 58.58 C 60.15 59.32 56.32 61.40 57.63 63.07 C 56.91 65.04 50.29 69.45 54.66 70.09 L 54.94 70.94 C 51.60 71.55 48.27 68.02 45.61 71.00 C 45.22 71.26 44.44 71.76 44.05 72.01 C 43.20 69.48 42.71 65.97 45.67 64.61 C 47.84 63.93 45.99 62.62 45.16 61.61 C 44.86 61.25 44.25 60.53 43.94 60.18 C 44.30 59.94 45.02 59.47 45.38 59.24 C 46.62 58.98 47.64 57.68 46.90 56.44 C 45.59 56.25 44.34 57.07 43.06 57.27 C 42.32 56.19 40.55 53.77 41.83 52.82 C 43.71 55.45 46.27 53.99 48.69 53.13 C 49.99 54.03 51.58 54.03 53.10 54.03 C 50.89 48.47 48.44 43.05 45.57 37.80 C 45.68 37.42 45.89 36.66 45.99 36.27 L 46.26 35.40 C 46.48 35.07 46.92 34.42 47.14 34.09 C 48.58 31.78 48.16 28.80 49.13 26.28 Z" />
</g>
<g id="#a4a2a1ff">
<path fill="#a4a2a1" opacity="1.00" d=" M 63.09 27.99 C 64.23 27.23 65.37 26.46 66.53 25.74 C 67.46 27.66 69.42 29.62 67.94 31.82 C 65.61 31.45 63.57 30.49 63.09 27.99 Z" />
</g>
<g id="#9d9477ff">
<path fill="#9d9477" opacity="1.00" d=" M 19.64 29.21 C 20.92 30.15 22.33 30.84 23.86 31.26 C 24.42 32.66 25.10 34.30 26.90 34.19 C 26.03 32.62 24.41 30.87 26.79 29.81 C 28.12 30.89 28.94 32.32 29.41 33.95 C 30.25 33.31 31.02 32.58 31.72 31.78 C 31.58 30.25 30.80 28.26 33.25 28.96 L 33.17 29.89 C 32.28 32.55 33.63 33.53 36.23 33.18 L 36.14 34.04 C 35.45 34.63 33.55 35.47 35.06 36.40 C 34.59 36.49 33.65 36.68 33.18 36.77 C 32.10 34.66 29.96 35.42 28.13 35.87 C 26.53 34.88 25.17 35.66 23.87 36.69 C 21.39 36.79 18.27 36.25 18.67 33.04 C 18.98 31.76 19.32 30.48 19.64 29.21 Z" />
</g>
<g id="#d5cdabff">
<path fill="#d5cdab" opacity="1.00" d=" M 37.95 29.10 C 39.15 30.61 39.44 32.68 40.79 34.13 C 40.34 34.12 39.42 34.11 38.96 34.11 C 38.26 34.09 36.85 34.05 36.14 34.04 L 36.23 33.18 L 37.21 32.91 C 38.84 32.67 37.62 30.24 37.95 29.10 Z" />
</g>
<g id="#938f74ff">
<path fill="#938f74" opacity="1.00" d=" M 15.06 33.92 C 13.74 33.08 13.72 31.26 14.47 30.03 C 15.15 31.43 16.60 32.01 17.90 32.70 C 16.95 33.10 16.01 33.51 15.06 33.92 Z" />
</g>
<g id="#453e27ff">
<path fill="#453e27" opacity="1.00" d=" M 33.17 29.89 C 34.63 30.77 36.82 30.93 37.21 32.91 L 36.23 33.18 C 33.63 33.53 32.28 32.55 33.17 29.89 Z" />
</g>
<g id="#aaa7abff">
<path fill="#aaa7ab" opacity="1.00" d=" M 51.71 32.08 C 51.97 30.63 52.85 29.77 54.34 29.50 C 54.71 30.66 54.95 31.84 55.07 33.04 C 53.66 33.29 52.54 32.97 51.71 32.08 Z" />
</g>
<g id="#191714ff">
<path fill="#191714" opacity="1.00" d=" M 7.40 42.63 C 8.59 38.98 10.24 35.48 10.77 31.63 C 12.34 32.92 13.29 34.70 14.35 36.39 C 15.69 36.47 17.04 36.46 18.38 36.55 C 20.29 37.57 22.24 38.56 23.89 39.97 C 22.83 40.31 21.78 40.67 20.74 41.04 L 19.82 40.74 C 20.59 38.20 17.69 39.15 16.18 38.98 C 10.60 37.56 10.80 44.22 9.90 47.91 C 8.12 50.63 8.68 54.93 12.22 53.35 C 12.06 53.97 11.75 55.23 11.60 55.86 C 11.07 56.84 10.87 57.88 11.00 58.98 C 11.78 63.96 13.14 68.90 15.73 73.35 C 16.29 74.40 16.94 75.40 17.64 76.37 C 18.30 77.37 19.02 78.34 19.83 79.24 C 20.57 80.14 21.33 81.03 22.08 81.92 C 21.60 81.91 20.63 81.90 20.14 81.90 C 16.70 77.91 13.48 73.68 11.01 69.01 C 8.98 64.94 8.96 60.17 6.84 56.15 C 6.97 51.64 7.05 47.13 7.40 42.63 Z" />
</g>
<g id="#5f5948ff">
<path fill="#5f5948" opacity="1.00" d=" M 15.06 33.92 C 16.01 33.51 16.95 33.10 17.90 32.70 L 18.67 33.04 C 18.27 36.25 21.39 36.79 23.87 36.69 C 25.17 35.66 26.53 34.88 28.13 35.87 C 27.45 36.51 26.84 37.21 26.29 37.96 C 25.58 38.91 25.31 41.96 23.89 39.97 C 22.24 38.56 20.29 37.57 18.38 36.55 C 17.31 35.63 16.12 34.86 15.06 33.92 Z" />
</g>
<g id="#4a4a38ff">
<path fill="#4a4a38" opacity="1.00" d=" M 36.14 34.04 C 36.85 34.05 38.26 34.09 38.96 34.11 C 38.70 34.53 38.18 35.39 37.92 35.82 C 37.21 35.96 35.78 36.26 35.06 36.40 C 33.55 35.47 35.45 34.63 36.14 34.04 Z" />
</g>
<g id="#2b2a22ff">
<path fill="#2b2a22" opacity="1.00" d=" M 38.96 34.11 C 39.42 34.11 40.34 34.12 40.79 34.13 C 42.50 34.91 43.95 36.77 45.99 36.27 C 45.89 36.66 45.68 37.42 45.57 37.80 C 43.22 39.67 44.07 42.60 45.19 44.92 C 43.69 44.44 42.25 43.79 40.77 43.25 C 38.66 42.42 37.73 43.00 38.73 45.15 C 37.09 44.41 35.55 43.47 33.90 42.75 C 34.28 42.38 35.05 41.64 35.43 41.28 C 37.07 40.26 38.77 39.29 40.17 37.95 C 40.26 36.42 39.51 35.70 37.92 35.82 C 38.18 35.39 38.70 34.53 38.96 34.11 Z" />
</g>
<g id="#1a2333ff">
<path fill="#1a2333" opacity="1.00" d=" M 63.20 35.50 C 67.62 35.41 72.04 35.93 76.03 33.89 C 74.29 35.15 74.57 37.36 73.87 39.17 C 70.41 38.80 72.81 44.31 72.78 46.92 C 70.58 47.64 69.76 49.42 69.75 51.63 C 68.56 52.64 67.53 53.81 66.36 54.83 C 65.64 52.45 64.10 51.22 62.83 54.03 C 62.33 53.81 61.32 53.38 60.82 53.17 C 63.76 51.52 59.80 50.50 58.40 49.77 C 58.70 48.79 59.44 47.88 59.09 46.81 C 59.83 44.40 62.12 45.64 63.91 45.87 C 63.84 42.96 62.83 40.32 61.13 37.99 C 61.80 37.14 62.43 36.26 63.20 35.50 Z" />
</g>
<g id="#bcbab8ff">
<path fill="#bcbab8" opacity="1.00" d=" M 76.03 33.89 C 78.29 33.50 82.11 36.34 79.96 38.53 C 79.23 41.19 75.86 39.02 73.87 39.17 C 74.57 37.36 74.29 35.15 76.03 33.89 Z" />
</g>
<g id="#25221cff">
<path fill="#25221c" opacity="1.00" d=" M 28.13 35.87 C 29.96 35.42 32.10 34.66 33.18 36.77 C 31.66 37.45 30.27 38.85 31.91 40.31 C 33.28 41.61 32.16 42.34 30.81 42.95 L 30.01 43.33 C 29.47 42.53 28.95 41.72 28.44 40.91 C 28.02 39.66 28.05 37.88 26.29 37.96 C 26.84 37.21 27.45 36.51 28.13 35.87 Z" />
</g>
<g id="#c4bda6ff">
<path fill="#c4bda6" opacity="1.00" d=" M 35.06 36.40 C 35.78 36.26 37.21 35.96 37.92 35.82 C 39.51 35.70 40.26 36.42 40.17 37.95 C 38.51 38.14 36.66 37.72 35.17 38.64 C 34.09 39.21 33.00 39.77 31.91 40.31 C 30.27 38.85 31.66 37.45 33.18 36.77 C 33.65 36.68 34.59 36.49 35.06 36.40 Z" />
</g>
<g id="#1b273aff">
<path fill="#1b273a" opacity="1.00" d=" M 56.19 36.01 C 58.19 35.62 58.13 37.79 58.74 39.09 C 57.90 40.34 56.58 41.28 56.22 42.81 C 55.86 44.93 53.79 45.82 52.22 46.95 C 51.57 44.45 50.82 41.95 50.49 39.38 C 51.46 38.54 52.46 37.73 53.42 36.88 C 54.35 37.40 55.09 38.19 55.90 38.88 C 55.97 38.16 56.11 36.72 56.19 36.01 Z" />
</g>
<g id="#d3d2ceff">
<path fill="#d3d2ce" opacity="1.00" d=" M 58.74 39.09 C 59.47 38.29 60.13 36.33 61.13 37.99 C 62.83 40.32 63.84 42.96 63.91 45.87 C 62.12 45.64 59.83 44.40 59.09 46.81 C 58.12 45.48 57.23 44.10 56.22 42.81 C 56.58 41.28 57.90 40.34 58.74 39.09 Z" />
</g>
<g id="#928f76ff">
<path fill="#928f76" opacity="1.00" d=" M 26.29 37.96 C 28.05 37.88 28.02 39.66 28.44 40.91 C 27.59 42.49 26.18 43.62 24.97 44.91 L 24.23 44.81 C 23.69 43.07 22.20 41.99 20.74 41.04 C 21.78 40.67 22.83 40.31 23.89 39.97 C 25.31 41.96 25.58 38.91 26.29 37.96 Z" />
</g>
<g id="#777265ff">
<path fill="#777265" opacity="1.00" d=" M 35.17 38.64 C 36.66 37.72 38.51 38.14 40.17 37.95 C 38.77 39.29 37.07 40.26 35.43 41.28 C 35.38 40.39 35.29 39.51 35.17 38.64 Z" />
</g>
<g id="#d7cdaaff">
<path fill="#d7cdaa" opacity="1.00" d=" M 45.19 44.92 C 44.07 42.60 43.22 39.67 45.57 37.80 C 48.44 43.05 50.89 48.47 53.10 54.03 C 51.58 54.03 49.99 54.03 48.69 53.13 C 47.34 50.46 46.84 47.44 45.19 44.92 Z" />
</g>
<g id="#93907aff">
<path fill="#93907a" opacity="1.00" d=" M 9.90 47.91 C 10.80 44.22 10.60 37.56 16.18 38.98 C 15.82 41.02 14.37 42.86 14.71 45.00 C 14.73 45.31 14.78 45.94 14.80 46.25 C 13.83 48.25 12.77 51.19 10.09 51.06 C 10.04 50.27 9.95 48.70 9.90 47.91 Z" />
</g>
<g id="#505141ff">
<path fill="#505141" opacity="1.00" d=" M 16.18 38.98 C 17.69 39.15 20.59 38.20 19.82 40.74 C 17.76 41.69 16.49 43.67 14.71 45.00 C 14.37 42.86 15.82 41.02 16.18 38.98 Z" />
</g>
<g id="#5b5949ff">
<path fill="#5b5949" opacity="1.00" d=" M 31.91 40.31 C 33.00 39.77 34.09 39.21 35.17 38.64 C 35.29 39.51 35.38 40.39 35.43 41.28 C 35.05 41.64 34.28 42.38 33.90 42.75 C 33.13 42.80 31.58 42.90 30.81 42.95 C 32.16 42.34 33.28 41.61 31.91 40.31 Z" />
</g>
<g id="#28261eff">
<path fill="#28261e" opacity="1.00" d=" M 14.71 45.00 C 16.49 43.67 17.76 41.69 19.82 40.74 C 20.52 42.65 21.87 45.06 24.23 44.81 L 24.97 44.91 C 25.24 45.19 25.79 45.76 26.06 46.05 C 24.27 51.99 28.98 55.58 33.67 57.33 C 33.70 57.69 33.77 58.43 33.80 58.79 C 32.94 61.34 31.10 68.84 31.88 57.89 C 29.95 58.66 28.87 60.27 28.17 62.15 C 28.30 59.56 28.16 57.22 25.16 58.88 C 25.21 54.87 22.74 51.28 23.71 47.22 C 21.67 45.85 19.03 45.52 16.99 47.09 C 16.44 46.88 15.35 46.46 14.80 46.25 C 14.78 45.94 14.73 45.31 14.71 45.00 Z" />
</g>
<g id="#4a4740ff">
<path fill="#4a4740" opacity="1.00" d=" M 19.82 40.74 L 20.74 41.04 C 22.20 41.99 23.69 43.07 24.23 44.81 C 21.87 45.06 20.52 42.65 19.82 40.74 Z" />
</g>
<g id="#5c5642ff">
<path fill="#5c5642" opacity="1.00" d=" M 28.44 40.91 C 28.95 41.72 29.47 42.53 30.01 43.33 C 28.67 44.20 27.36 45.12 26.06 46.05 C 25.79 45.76 25.24 45.19 24.97 44.91 C 26.18 43.62 27.59 42.49 28.44 40.91 Z" />
</g>
<g id="#44484eff">
<path fill="#44484e" opacity="1.00" d=" M 6.84 56.15 C 5.17 52.10 4.97 45.98 7.40 42.63 C 7.05 47.13 6.97 51.64 6.84 56.15 Z" />
</g>
<g id="#ebe0b2ff">
<path fill="#ebe0b2" opacity="1.00" d=" M 30.01 43.33 L 30.81 42.95 C 31.58 42.90 33.13 42.80 33.90 42.75 C 35.55 43.47 37.09 44.41 38.73 45.15 C 37.73 43.00 38.66 42.42 40.77 43.25 C 42.22 46.02 45.88 51.22 41.83 52.82 C 40.55 53.77 42.32 56.19 43.06 57.27 C 43.78 57.98 44.56 58.64 45.38 59.24 C 45.02 59.47 44.30 59.94 43.94 60.18 C 41.58 60.92 37.89 60.49 39.00 64.08 C 41.08 63.31 43.01 62.18 45.16 61.61 C 45.99 62.62 47.84 63.93 45.67 64.61 C 42.71 65.97 43.20 69.48 44.05 72.01 C 46.82 77.09 52.39 79.76 57.73 81.39 C 61.47 82.84 65.20 81.47 68.81 80.61 C 73.37 80.66 68.69 83.41 66.91 84.13 C 65.79 83.32 64.72 83.41 63.90 84.56 C 60.77 86.24 57.40 85.08 54.09 85.00 C 53.42 84.97 52.09 84.90 51.43 84.87 C 51.08 84.58 50.39 83.99 50.05 83.70 C 49.22 83.20 48.29 83.00 47.25 83.10 C 43.58 81.94 41.00 77.39 36.90 80.07 C 36.65 78.07 38.33 78.01 39.83 77.84 C 37.53 75.67 36.39 72.68 35.02 69.91 C 33.98 66.31 34.07 62.50 33.80 58.79 C 33.77 58.43 33.70 57.69 33.67 57.33 C 28.98 55.58 24.27 51.99 26.06 46.05 C 27.36 45.12 28.67 44.20 30.01 43.33 Z" />
</g>
<g id="#635e4eff">
<path fill="#635e4e" opacity="1.00" d=" M 40.77 43.25 C 42.25 43.79 43.69 44.44 45.19 44.92 C 46.84 47.44 47.34 50.46 48.69 53.13 C 46.27 53.99 43.71 55.45 41.83 52.82 C 45.88 51.22 42.22 46.02 40.77 43.25 Z" />
</g>
<g id="#706c62ff">
<path fill="#706c62" opacity="1.00" d=" M 89.07 42.83 C 89.87 43.59 90.63 44.39 91.35 45.23 C 91.72 46.15 92.20 47.01 92.65 47.89 C 92.25 51.33 91.81 54.77 91.33 58.21 C 91.10 57.61 90.64 56.41 90.40 55.81 L 90.23 55.06 C 91.96 53.11 92.34 49.51 90.13 47.89 C 89.80 46.20 89.38 44.52 89.07 42.83 Z" />
</g>
<g id="#3a372fff">
<path fill="#3a372f" opacity="1.00" d=" M 14.80 46.25 C 15.35 46.46 16.44 46.88 16.99 47.09 L 16.53 47.87 C 15.72 48.83 14.91 49.79 14.18 50.81 C 13.54 51.67 12.89 52.51 12.22 53.35 C 8.68 54.93 8.12 50.63 9.90 47.91 C 9.95 48.70 10.04 50.27 10.09 51.06 C 12.77 51.19 13.83 48.25 14.80 46.25 Z" />
</g>
<g id="#5f5c4cff">
<path fill="#5f5c4c" opacity="1.00" d=" M 16.99 47.09 C 19.03 45.52 21.67 45.85 23.71 47.22 C 22.74 51.28 25.21 54.87 25.16 58.88 C 24.00 60.01 22.82 61.11 21.62 62.21 C 20.17 60.72 23.15 58.60 22.14 56.81 C 20.80 54.05 21.95 50.93 21.82 48.00 C 20.96 48.25 20.11 48.54 19.28 48.87 C 18.36 48.55 17.44 48.23 16.53 47.87 L 16.99 47.09 Z" />
</g>
<g id="#969693ff">
<path fill="#969693" opacity="1.00" d=" M 69.75 51.63 C 69.76 49.42 70.58 47.64 72.78 46.92 C 73.45 48.83 74.08 50.78 74.14 52.82 C 72.67 52.44 71.21 52.01 69.75 51.63 Z" />
</g>
<g id="#8b886cff">
<path fill="#8b886c" opacity="1.00" d=" M 14.18 50.81 C 14.91 49.79 15.72 48.83 16.53 47.87 C 17.44 48.23 18.36 48.55 19.28 48.87 C 19.54 51.35 17.58 50.36 16.07 50.05 C 16.53 51.29 19.08 53.04 16.77 53.72 C 14.72 54.77 14.88 52.01 14.18 50.81 Z" />
</g>
<g id="#b1a888ff">
<path fill="#b1a888" opacity="1.00" d=" M 19.28 48.87 C 20.11 48.54 20.96 48.25 21.82 48.00 C 21.95 50.93 20.80 54.05 22.14 56.81 C 23.15 58.60 20.17 60.72 21.62 62.21 C 22.59 63.26 23.80 64.02 25.25 64.19 C 24.44 65.04 23.64 65.90 22.84 66.76 C 21.50 67.07 20.10 67.29 18.97 68.13 C 19.06 69.43 20.38 70.13 21.02 71.15 C 20.05 73.40 18.03 74.47 15.73 73.35 C 13.14 68.90 11.78 63.96 11.00 58.98 C 14.47 60.23 14.66 56.59 11.60 55.86 C 11.75 55.23 12.06 53.97 12.22 53.35 C 12.89 52.51 13.54 51.67 14.18 50.81 C 14.88 52.01 14.72 54.77 16.77 53.72 C 19.08 53.04 16.53 51.29 16.07 50.05 C 17.58 50.36 19.54 51.35 19.28 48.87 Z" />
</g>
<g id="#433e32ff">
<path fill="#433e32" opacity="1.00" d=" M 90.13 47.89 C 92.34 49.51 91.96 53.11 90.23 55.06 C 90.20 53.27 90.15 49.68 90.13 47.89 Z" />
</g>
<g id="#1a1e28ff">
<path fill="#1a1e28" opacity="1.00" d=" M 91.33 58.21 C 91.81 54.77 92.25 51.33 92.65 47.89 C 93.60 49.52 94.01 51.40 94.85 53.09 C 96.97 55.20 95.46 57.92 93.78 59.74 C 89.97 64.61 89.91 71.85 85.17 76.11 C 85.03 75.54 84.76 74.39 84.62 73.81 C 85.72 71.49 87.18 69.37 88.42 67.12 C 89.95 64.37 90.91 61.32 91.33 58.21 Z" />
</g>
<g id="#bdbab5ff">
<path fill="#bdbab5" opacity="1.00" d=" M 58.61 56.01 C 59.05 54.84 59.82 53.90 60.82 53.17 C 61.32 53.38 62.33 53.81 62.83 54.03 C 64.21 57.49 60.75 57.77 58.61 56.01 Z" />
</g>
<g id="#928970ff">
<path fill="#928970" opacity="1.00" d=" M 11.00 58.98 C 10.87 57.88 11.07 56.84 11.60 55.86 C 14.66 56.59 14.47 60.23 11.00 58.98 Z" />
</g>
<g id="#aca795ff">
<path fill="#aca795" opacity="1.00" d=" M 43.06 57.27 C 44.34 57.07 45.59 56.25 46.90 56.44 C 47.64 57.68 46.62 58.98 45.38 59.24 C 44.56 58.64 43.78 57.98 43.06 57.27 Z" />
</g>
<g id="#aca48fff">
<path fill="#aca48f" opacity="1.00" d=" M 90.40 55.81 C 90.64 56.41 91.10 57.61 91.33 58.21 C 90.91 61.32 89.95 64.37 88.42 67.12 C 88.11 66.58 87.49 65.51 87.18 64.97 C 86.99 64.68 86.60 64.11 86.41 63.82 L 85.99 63.18 C 89.65 62.87 89.44 58.44 90.40 55.81 Z" />
</g>
<g id="#645b48ff">
<path fill="#645b48" opacity="1.00" d=" M 25.16 58.88 C 28.16 57.22 28.30 59.56 28.17 62.15 C 28.87 60.27 29.95 58.66 31.88 57.89 C 31.10 68.84 32.94 61.34 33.80 58.79 C 34.07 62.50 33.98 66.31 35.02 69.91 C 34.40 71.21 35.58 74.63 33.23 73.89 C 34.66 69.64 31.77 66.83 28.41 65.53 C 27.71 64.88 26.98 64.27 26.22 63.69 C 25.93 62.07 25.59 60.46 25.16 58.88 Z" />
</g>
<g id="#877e66ff">
<path fill="#877e66" opacity="1.00" d=" M 21.62 62.21 C 22.82 61.11 24.00 60.01 25.16 58.88 C 25.59 60.46 25.93 62.07 26.22 63.69 L 25.25 64.19 C 23.80 64.02 22.59 63.26 21.62 62.21 Z" />
</g>
<g id="#635f49ff">
<path fill="#635f49" opacity="1.00" d=" M 39.00 64.08 C 37.89 60.49 41.58 60.92 43.94 60.18 C 44.25 60.53 44.86 61.25 45.16 61.61 C 43.01 62.18 41.08 63.31 39.00 64.08 Z" />
</g>
<g id="#1d2945ff">
<path fill="#1d2945" opacity="1.00" d=" M 85.17 76.11 C 89.91 71.85 89.97 64.61 93.78 59.74 C 93.85 63.40 94.23 68.53 90.25 70.21 C 90.57 73.32 87.93 74.50 87.29 77.29 C 87.03 79.21 84.31 79.21 84.11 81.06 C 84.18 84.41 79.67 84.00 78.62 86.66 C 77.93 88.67 75.54 87.88 73.92 88.07 C 72.05 85.61 74.95 86.02 76.74 85.68 C 78.00 84.69 79.00 83.41 79.93 82.10 C 80.98 79.98 84.74 78.50 82.97 75.85 C 83.52 75.17 84.07 74.49 84.62 73.81 C 84.76 74.39 85.03 75.54 85.17 76.11 Z" />
</g>
<g id="#504c4eff">
<path fill="#504c4e" opacity="1.00" d=" M 57.63 63.07 C 60.34 61.27 63.79 61.52 66.91 61.03 C 66.78 63.28 66.46 65.48 64.77 67.14 C 64.55 66.78 64.12 66.07 63.90 65.71 C 65.07 61.55 60.69 62.90 57.63 63.07 Z" />
</g>
<g id="#ada7a5ff">
<path fill="#ada7a5" opacity="1.00" d=" M 66.91 61.03 C 69.51 60.75 71.14 62.90 71.76 65.15 C 71.88 64.33 72.11 62.70 72.23 61.88 C 73.97 63.99 75.84 62.94 77.99 62.19 C 77.03 63.72 75.02 65.26 75.67 67.24 C 75.75 67.65 75.90 68.46 75.98 68.87 C 75.43 69.12 74.33 69.61 73.79 69.85 C 72.90 70.12 72.01 70.36 71.11 70.58 C 69.30 69.00 63.26 70.29 64.77 67.14 C 66.46 65.48 66.78 63.28 66.91 61.03 Z" />
</g>
<g id="#77716cff">
<path fill="#77716c" opacity="1.00" d=" M 77.99 62.19 C 78.91 62.21 79.84 62.26 80.76 62.33 C 81.14 64.31 84.93 63.53 83.14 65.84 C 80.58 65.90 78.06 66.35 75.67 67.24 C 75.02 65.26 77.03 63.72 77.99 62.19 Z" />
</g>
<g id="#b6b1b2ff">
<path fill="#b6b1b2" opacity="1.00" d=" M 80.76 62.33 C 82.53 62.40 84.25 62.85 85.99 63.18 L 86.41 63.82 C 85.69 64.92 84.99 66.03 84.27 67.14 C 83.99 66.81 83.42 66.17 83.14 65.84 C 84.93 63.53 81.14 64.31 80.76 62.33 Z" />
</g>
<g id="#d0cdcaff">
<path fill="#d0cdca" opacity="1.00" d=" M 57.63 63.07 C 60.69 62.90 65.07 61.55 63.90 65.71 C 62.24 66.69 61.15 69.17 58.91 68.26 C 57.04 67.68 55.54 68.40 54.66 70.09 C 50.29 69.45 56.91 65.04 57.63 63.07 Z" />
</g>
<g id="#e1d6a9ff">
<path fill="#e1d6a9" opacity="1.00" d=" M 25.25 64.19 L 26.22 63.69 C 26.98 64.27 27.71 64.88 28.41 65.53 C 29.57 68.23 30.52 71.01 31.61 73.74 C 31.24 73.90 30.50 74.20 30.13 74.36 C 32.03 76.45 37.34 77.62 35.22 81.18 C 31.92 81.53 29.07 80.32 27.01 77.76 C 27.02 76.50 27.02 75.23 27.01 73.97 C 28.04 70.43 25.32 70.67 22.96 71.93 C 22.95 70.21 22.91 68.48 22.84 66.76 C 23.64 65.90 24.44 65.04 25.25 64.19 Z" />
</g>
<g id="#5f5951ff">
<path fill="#5f5951" opacity="1.00" d=" M 86.41 63.82 C 86.60 64.11 86.99 64.68 87.18 64.97 C 84.69 69.00 81.72 72.70 78.71 76.35 C 77.76 76.52 76.82 76.68 75.87 76.84 C 77.63 74.61 80.43 72.95 81.21 70.09 C 80.15 70.66 79.15 71.32 78.07 71.85 C 76.86 70.71 75.59 69.72 73.97 70.79 L 73.79 69.85 C 74.33 69.61 75.43 69.12 75.98 68.87 C 79.20 69.36 83.13 71.05 84.27 67.14 C 84.99 66.03 85.69 64.92 86.41 63.82 Z" />
</g>
<g id="#c6be9fff">
<path fill="#c6be9f" opacity="1.00" d=" M 87.18 64.97 C 87.49 65.51 88.11 66.58 88.42 67.12 C 87.18 69.37 85.72 71.49 84.62 73.81 C 84.07 74.49 83.52 75.17 82.97 75.85 L 82.11 76.09 C 80.98 76.20 79.85 76.31 78.71 76.35 C 81.72 72.70 84.69 69.00 87.18 64.97 Z" />
</g>
<g id="#a89e7aff">
<path fill="#a89e7a" opacity="1.00" d=" M 28.41 65.53 C 31.77 66.83 34.66 69.64 33.23 73.89 C 35.58 74.63 34.40 71.21 35.02 69.91 C 36.39 72.68 37.53 75.67 39.83 77.84 C 38.33 78.01 36.65 78.07 36.90 80.07 L 36.70 80.98 C 36.33 81.03 35.59 81.13 35.22 81.18 C 37.34 77.62 32.03 76.45 30.13 74.36 C 30.50 74.20 31.24 73.90 31.61 73.74 C 30.52 71.01 29.57 68.23 28.41 65.53 Z" />
</g>
<g id="#888481ff">
<path fill="#888481" opacity="1.00" d=" M 58.91 68.26 C 61.15 69.17 62.24 66.69 63.90 65.71 C 64.12 66.07 64.55 66.78 64.77 67.14 C 63.26 70.29 69.30 69.00 71.11 70.58 L 70.13 70.81 C 67.70 71.09 65.31 71.59 62.95 72.21 C 63.53 73.50 64.44 74.59 65.15 75.80 C 64.19 75.57 63.23 75.35 62.27 75.12 C 61.90 74.86 61.16 74.34 60.79 74.08 C 66.07 69.44 47.84 72.82 61.88 70.81 C 63.06 67.52 56.67 70.39 54.94 70.94 L 54.66 70.09 C 55.54 68.40 57.04 67.68 58.91 68.26 Z" />
</g>
<g id="#cecbc6ff">
<path fill="#cecbc6" opacity="1.00" d=" M 75.67 67.24 C 78.06 66.35 80.58 65.90 83.14 65.84 C 83.42 66.17 83.99 66.81 84.27 67.14 C 83.13 71.05 79.20 69.36 75.98 68.87 C 75.90 68.46 75.75 67.65 75.67 67.24 Z" />
</g>
<g id="#8a8066ff">
<path fill="#8a8066" opacity="1.00" d=" M 18.97 68.13 C 20.10 67.29 21.50 67.07 22.84 66.76 C 22.91 68.48 22.95 70.21 22.96 71.93 C 22.95 72.44 22.92 73.47 22.90 73.99 C 22.18 73.99 20.73 73.99 20.01 74.00 C 20.66 74.63 21.30 75.29 21.92 75.96 C 20.71 77.03 19.07 76.33 17.64 76.37 C 16.94 75.40 16.29 74.40 15.73 73.35 C 18.03 74.47 20.05 73.40 21.02 71.15 C 20.38 70.13 19.06 69.43 18.97 68.13 Z" />
</g>
<g id="#868482ff">
<path fill="#868482" opacity="1.00" d=" M 45.61 71.00 C 48.27 68.02 51.60 71.55 54.94 70.94 C 57.38 73.99 51.75 73.71 49.96 74.97 C 48.95 74.35 47.89 73.82 46.87 73.22 C 47.71 73.10 49.38 72.87 50.21 72.75 C 48.74 72.02 47.14 71.59 45.61 71.00 Z" />
</g>
<g id="#b1adacff">
<path fill="#b1adac" opacity="1.00" d=" M 54.94 70.94 C 56.67 70.39 63.06 67.52 61.88 70.81 C 47.84 72.82 66.07 69.44 60.79 74.08 C 56.58 72.88 59.01 76.34 60.06 78.45 C 59.80 78.86 59.28 79.69 59.03 80.10 C 57.38 79.67 55.73 79.22 54.09 78.79 C 55.17 77.21 56.80 75.91 57.12 73.92 C 55.41 74.96 53.89 76.28 52.49 77.70 C 51.40 77.05 50.73 75.93 49.96 74.97 C 51.75 73.71 57.38 73.99 54.94 70.94 Z" />
</g>
<g id="#38322fff">
<path fill="#38322f" opacity="1.00" d=" M 71.11 70.58 C 72.01 70.36 72.90 70.12 73.79 69.85 L 73.97 70.79 C 72.89 73.57 71.53 76.28 69.21 78.24 C 69.29 77.70 69.45 76.62 69.53 76.08 C 70.37 75.02 71.42 73.84 70.21 72.59 C 70.19 72.14 70.15 71.26 70.13 70.81 L 71.11 70.58 Z" />
</g>
<g id="#b3acacff">
<path fill="#b3acac" opacity="1.00" d=" M 73.97 70.79 C 75.59 69.72 76.86 70.71 78.07 71.85 C 79.15 71.32 80.15 70.66 81.21 70.09 C 80.43 72.95 77.63 74.61 75.87 76.84 C 73.49 77.32 71.29 78.37 68.99 79.10 L 69.21 78.24 C 71.53 76.28 72.89 73.57 73.97 70.79 Z" />
</g>
<g id="#cac09aff">
<path fill="#cac09a" opacity="1.00" d=" M 22.96 71.93 C 25.32 70.67 28.04 70.43 27.01 73.97 C 25.44 74.52 22.31 77.53 22.90 73.99 C 22.92 73.47 22.95 72.44 22.96 71.93 Z" />
</g>
<g id="#5b554bff">
<path fill="#5b554b" opacity="1.00" d=" M 44.05 72.01 C 44.44 71.76 45.22 71.26 45.61 71.00 C 47.14 71.59 48.74 72.02 50.21 72.75 C 49.38 72.87 47.71 73.10 46.87 73.22 C 47.89 73.82 48.95 74.35 49.96 74.97 C 50.73 75.93 51.40 77.05 52.49 77.70 C 53.89 76.28 55.41 74.96 57.12 73.92 C 56.80 75.91 55.17 77.21 54.09 78.79 C 55.73 79.22 57.38 79.67 59.03 80.10 C 58.70 80.42 58.06 81.07 57.73 81.39 C 52.39 79.76 46.82 77.09 44.05 72.01 Z" />
</g>
<g id="#d1cccaff">
<path fill="#d1ccca" opacity="1.00" d=" M 62.95 72.21 C 65.31 71.59 67.70 71.09 70.13 70.81 C 70.15 71.26 70.19 72.14 70.21 72.59 C 68.70 73.47 66.15 73.52 65.80 75.60 C 67.09 75.43 68.41 75.23 69.53 76.08 C 69.45 76.62 69.29 77.70 69.21 78.24 L 68.99 79.10 C 65.78 80.10 62.30 79.50 59.03 80.10 C 59.28 79.69 59.80 78.86 60.06 78.45 C 60.88 77.40 61.66 76.31 62.27 75.12 C 63.23 75.35 64.19 75.57 65.15 75.80 C 64.44 74.59 63.53 73.50 62.95 72.21 Z" />
</g>
<g id="#a7a29fff">
<path fill="#a7a29f" opacity="1.00" d=" M 65.80 75.60 C 66.15 73.52 68.70 73.47 70.21 72.59 C 71.42 73.84 70.37 75.02 69.53 76.08 C 68.41 75.23 67.09 75.43 65.80 75.60 Z" />
</g>
<g id="#a49b7cff">
<path fill="#a49b7c" opacity="1.00" d=" M 20.01 74.00 C 20.73 73.99 22.18 73.99 22.90 73.99 C 22.31 77.53 25.44 74.52 27.01 73.97 C 27.02 75.23 27.02 76.50 27.01 77.76 C 25.57 78.02 24.14 78.29 22.72 78.67 C 22.00 78.81 20.55 79.10 19.83 79.24 C 19.02 78.34 18.30 77.37 17.64 76.37 C 19.07 76.33 20.71 77.03 21.92 75.96 C 21.30 75.29 20.66 74.63 20.01 74.00 Z" />
</g>
<g id="#3a3635ff">
<path fill="#3a3635" opacity="1.00" d=" M 60.06 78.45 C 59.01 76.34 56.58 72.88 60.79 74.08 C 61.16 74.34 61.90 74.86 62.27 75.12 C 61.66 76.31 60.88 77.40 60.06 78.45 Z" />
</g>
<g id="#817c6bff">
<path fill="#817c6b" opacity="1.00" d=" M 75.87 76.84 C 76.82 76.68 77.76 76.52 78.71 76.35 C 79.85 76.31 80.98 76.20 82.11 76.09 C 80.82 77.57 79.57 79.10 78.63 80.83 C 78.26 81.10 77.53 81.63 77.16 81.89 C 75.52 78.05 71.86 79.59 68.81 80.61 C 65.20 81.47 61.47 82.84 57.73 81.39 C 58.06 81.07 58.70 80.42 59.03 80.10 C 62.30 79.50 65.78 80.10 68.99 79.10 C 71.29 78.37 73.49 77.32 75.87 76.84 Z" />
</g>
<g id="#41413eff">
<path fill="#41413e" opacity="1.00" d=" M 82.11 76.09 L 82.97 75.85 C 84.74 78.50 80.98 79.98 79.93 82.10 C 79.60 81.79 78.96 81.15 78.63 80.83 C 79.57 79.10 80.82 77.57 82.11 76.09 Z" />
</g>
<g id="#cec29cff">
<path fill="#cec29c" opacity="1.00" d=" M 22.72 78.67 C 24.14 78.29 25.57 78.02 27.01 77.76 C 29.07 80.32 31.92 81.53 35.22 81.18 C 35.37 83.51 33.38 82.23 32.04 82.03 C 32.32 82.51 32.88 83.47 33.15 83.95 C 31.83 84.43 30.48 84.84 29.11 85.17 C 29.26 82.83 27.39 79.08 24.76 79.69 C 24.25 79.44 23.23 78.93 22.72 78.67 Z" />
</g>
<g id="#83786bff">
<path fill="#83786b" opacity="1.00" d=" M 19.83 79.24 C 20.55 79.10 22.00 78.81 22.72 78.67 C 23.23 78.93 24.25 79.44 24.76 79.69 C 24.43 80.83 24.11 81.98 23.79 83.12 C 23.36 82.82 22.51 82.22 22.08 81.92 C 21.33 81.03 20.57 80.14 19.83 79.24 Z" />
</g>
<g id="#9b9074ff">
<path fill="#9b9074" opacity="1.00" d=" M 24.76 79.69 C 27.39 79.08 29.26 82.83 29.11 85.17 C 28.41 84.92 27.15 81.98 26.97 84.01 C 26.74 85.93 24.70 83.40 23.79 83.12 C 24.11 81.98 24.43 80.83 24.76 79.69 Z" />
</g>
<g id="#9a916fff">
<path fill="#9a916f" opacity="1.00" d=" M 36.90 80.07 C 41.00 77.39 43.58 81.94 47.25 83.10 C 45.85 85.30 44.31 85.15 42.96 83.01 C 43.01 83.68 43.11 85.04 43.15 85.72 C 42.86 85.59 42.28 85.33 41.99 85.20 C 40.71 84.00 39.33 82.92 37.89 81.91 C 37.59 81.68 37.00 81.22 36.70 80.98 L 36.90 80.07 Z" />
</g>
<g id="#b2a989ff">
<path fill="#b2a989" opacity="1.00" d=" M 68.81 80.61 C 71.86 79.59 75.52 78.05 77.16 81.89 C 75.26 83.34 73.39 84.86 71.21 85.86 C 69.78 85.27 68.32 84.77 66.91 84.13 C 68.69 83.41 73.37 80.66 68.81 80.61 Z" />
</g>
<g id="#dcd3a8ff">
<path fill="#dcd3a8" opacity="1.00" d=" M 35.22 81.18 C 35.59 81.13 36.33 81.03 36.70 80.98 C 37.00 81.22 37.59 81.68 37.89 81.91 C 36.49 84.24 39.95 86.75 41.99 85.20 C 42.28 85.33 42.86 85.59 43.15 85.72 C 44.36 86.13 45.58 86.51 46.82 86.78 C 48.70 87.01 51.56 87.71 51.43 84.87 C 52.09 84.90 53.42 84.97 54.09 85.00 C 53.13 85.77 52.07 86.52 51.86 87.83 C 56.16 86.69 61.05 89.04 64.80 85.80 C 64.58 85.49 64.12 84.87 63.90 84.56 C 64.72 83.41 65.79 83.32 66.91 84.13 C 68.32 84.77 69.78 85.27 71.21 85.86 C 70.03 86.49 68.87 87.13 67.72 87.80 C 66.40 88.41 65.10 89.07 63.83 89.78 C 61.54 90.15 59.28 90.70 57.00 91.15 C 55.23 91.18 51.68 91.23 49.91 91.26 C 48.32 91.02 46.73 90.78 45.14 90.57 C 44.16 90.44 43.19 90.37 42.21 90.38 C 40.30 88.82 38.33 87.58 36.03 89.23 C 35.30 87.35 34.17 85.67 33.15 83.95 C 32.88 83.47 32.32 82.51 32.04 82.03 C 33.38 82.23 35.37 83.51 35.22 81.18 Z" />
</g>
<g id="#24262bff">
<path fill="#24262b" opacity="1.00" d=" M 77.16 81.89 C 77.53 81.63 78.26 81.10 78.63 80.83 C 78.96 81.15 79.60 81.79 79.93 82.10 C 79.00 83.41 78.00 84.69 76.74 85.68 C 74.95 86.02 72.05 85.61 73.92 88.07 C 73.69 88.47 73.22 89.29 72.98 89.69 C 73.37 85.94 69.78 92.01 68.06 88.89 L 67.72 87.80 C 68.87 87.13 70.03 86.49 71.21 85.86 C 73.39 84.86 75.26 83.34 77.16 81.89 Z" />
</g>
<g id="#202224ff">
<path fill="#202224" opacity="1.00" d=" M 20.14 81.90 C 20.63 81.90 21.60 81.91 22.08 81.92 C 22.51 82.22 23.36 82.82 23.79 83.12 C 24.70 83.40 26.74 85.93 26.97 84.01 C 27.15 81.98 28.41 84.92 29.11 85.17 C 30.94 86.86 33.12 88.10 35.23 89.38 C 34.10 89.68 32.96 89.96 31.82 90.22 C 31.53 88.02 28.77 86.27 26.85 87.73 C 25.46 87.74 24.07 87.67 22.68 87.70 C 21.75 87.66 21.31 87.20 21.36 86.29 C 21.67 84.71 20.65 83.32 20.14 81.90 Z" />
</g>
<g id="#ccbe96ff">
<path fill="#ccbe96" opacity="1.00" d=" M 37.89 81.91 C 39.33 82.92 40.71 84.00 41.99 85.20 C 39.95 86.75 36.49 84.24 37.89 81.91 Z" />
</g>
<g id="#b4ac86ff">
<path fill="#b4ac86" opacity="1.00" d=" M 42.96 83.01 C 44.31 85.15 45.85 85.30 47.25 83.10 C 48.29 83.00 49.22 83.20 50.05 83.70 C 48.32 83.84 47.29 85.24 46.82 86.78 C 45.58 86.51 44.36 86.13 43.15 85.72 C 43.11 85.04 43.01 83.68 42.96 83.01 Z" />
</g>
<g id="#8c866aff">
<path fill="#8c866a" opacity="1.00" d=" M 29.11 85.17 C 30.48 84.84 31.83 84.43 33.15 83.95 C 34.17 85.67 35.30 87.35 36.03 89.23 L 35.23 89.38 C 33.12 88.10 30.94 86.86 29.11 85.17 Z" />
</g>
<g id="#877e5eff">
<path fill="#877e5e" opacity="1.00" d=" M 46.82 86.78 C 47.29 85.24 48.32 83.84 50.05 83.70 C 50.39 83.99 51.08 84.58 51.43 84.87 C 51.56 87.71 48.70 87.01 46.82 86.78 Z" />
</g>
<g id="#a79d79ff">
<path fill="#a79d79" opacity="1.00" d=" M 54.09 85.00 C 57.40 85.08 60.77 86.24 63.90 84.56 C 64.12 84.87 64.58 85.49 64.80 85.80 C 61.05 89.04 56.16 86.69 51.86 87.83 C 52.07 86.52 53.13 85.77 54.09 85.00 Z" />
</g>
<g id="#212d4eff">
<path fill="#212d4e" opacity="1.00" d=" M 22.68 87.70 C 24.07 87.67 25.46 87.74 26.85 87.73 C 28.30 88.91 30.00 89.76 31.82 90.22 C 35.11 91.27 38.28 93.12 41.67 93.59 C 44.16 93.15 46.93 92.94 49.00 94.69 C 51.33 92.83 54.47 93.73 57.21 93.09 C 59.58 92.15 64.79 93.58 63.83 89.78 C 65.46 91.19 67.44 91.25 68.06 88.89 C 69.78 92.01 73.37 85.94 72.98 89.69 C 72.28 93.24 67.58 90.59 66.56 93.67 C 65.14 93.95 62.29 94.53 60.87 94.82 C 55.23 97.78 49.16 95.50 43.34 96.92 C 41.30 94.95 38.80 94.82 36.30 95.93 C 35.59 92.36 31.89 92.70 28.97 92.11 C 27.90 89.07 23.62 91.04 22.68 87.70 Z" />
</g>
<g id="#4b4c4bff">
<path fill="#4b4c4b" opacity="1.00" d=" M 26.85 87.73 C 28.77 86.27 31.53 88.02 31.82 90.22 C 30.00 89.76 28.30 88.91 26.85 87.73 Z" />
</g>
<g id="#8d836bff">
<path fill="#8d836b" opacity="1.00" d=" M 36.03 89.23 C 38.33 87.58 40.30 88.82 42.21 90.38 C 40.05 91.46 37.98 90.12 36.03 89.23 Z" />
</g>
<g id="#4c4642ff">
<path fill="#4c4642" opacity="1.00" d=" M 63.83 89.78 C 65.10 89.07 66.40 88.41 67.72 87.80 L 68.06 88.89 C 67.44 91.25 65.46 91.19 63.83 89.78 Z" />
</g>
<g id="#373731ff">
<path fill="#373731" opacity="1.00" d=" M 35.23 89.38 L 36.03 89.23 C 37.98 90.12 40.05 91.46 42.21 90.38 C 43.19 90.37 44.16 90.44 45.14 90.57 C 43.39 90.78 42.51 92.23 41.67 93.59 C 38.28 93.12 35.11 91.27 31.82 90.22 C 32.96 89.96 34.10 89.68 35.23 89.38 Z" />
</g>
<g id="#3c3d34ff">
<path fill="#3c3d34" opacity="1.00" d=" M 57.00 91.15 C 59.28 90.70 61.54 90.15 63.83 89.78 C 64.79 93.58 59.58 92.15 57.21 93.09 L 57.04 92.02 L 57.00 91.15 Z" />
</g>
<g id="#20221fff">
<path fill="#20221f" opacity="1.00" d=" M 41.67 93.59 C 42.51 92.23 43.39 90.78 45.14 90.57 C 46.73 90.78 48.32 91.02 49.91 91.26 C 52.30 92.58 54.67 92.84 57.04 92.02 L 57.21 93.09 C 54.47 93.73 51.33 92.83 49.00 94.69 C 46.93 92.94 44.16 93.15 41.67 93.59 Z" />
</g>
<g id="#7a7a62ff">
<path fill="#7a7a62" opacity="1.00" d=" M 49.91 91.26 C 51.68 91.23 55.23 91.18 57.00 91.15 L 57.04 92.02 C 54.67 92.84 52.30 92.58 49.91 91.26 Z" />
</g>
<g id="#0a1922ff">
<path fill="#0a1922" opacity="1.00" d=" M 28.97 92.11 C 31.89 92.70 35.59 92.36 36.30 95.93 C 33.93 95.04 29.18 94.99 28.97 92.11 Z" />
</g>
<g id="#070d18ff">
<path fill="#070d18" opacity="1.00" d=" M 43.34 96.92 C 49.16 95.50 55.23 97.78 60.87 94.82 C 61.77 98.98 56.99 97.81 54.24 97.53 C 52.26 96.54 42.56 100.31 43.34 96.92 Z" />
</g>
</svg>
