<?xml version="1.0" encoding="UTF-8" ?>
<!DOCTYPE svg PUBLIC "-//W3C//DTD SVG 1.1//EN" "http://www.w3.org/Graphics/SVG/1.1/DTD/svg11.dtd">
<svg width="53pt" height="52pt" viewBox="0 0 53 52" version="1.1" xmlns="http://www.w3.org/2000/svg">
<g id="#ffffffff">
<path fill="#ffffff" opacity="1.00" d=" M 0.00 0.00 L 24.55 0.00 C 11.99 0.52 1.14 11.12 0.00 23.58 L 0.00 0.00 Z" />
<path fill="#ffffff" opacity="1.00" d=" M 27.56 0.00 L 53.00 0.00 L 53.00 52.00 L 28.11 52.00 C 36.83 51.18 45.05 45.91 49.04 38.05 C 53.42 29.81 52.87 19.15 47.55 11.46 C 43.15 4.78 35.51 0.54 27.56 0.00 Z" />
<path fill="#ffffff" opacity="1.00" d=" M 26.80 16.52 C 28.71 14.37 30.73 11.01 34.00 11.40 C 36.42 12.84 38.34 15.02 40.15 17.15 C 41.44 18.75 40.33 20.83 39.02 21.98 C 35.49 25.42 32.17 29.07 28.49 32.33 C 25.83 33.97 23.64 31.21 21.85 29.63 C 22.83 28.77 23.78 27.88 24.71 26.97 C 25.13 27.53 25.97 28.65 26.39 29.21 C 30.24 26.11 33.38 22.23 37.06 18.94 C 35.73 17.60 34.38 16.28 33.07 14.92 C 31.88 16.22 30.67 17.51 29.47 18.80 C 28.60 18.02 27.71 17.26 26.80 16.52 Z" />
<path fill="#ffffff" opacity="1.00" d=" M 23.22 20.11 C 25.82 18.26 28.10 21.26 29.83 22.85 C 28.92 23.71 28.02 24.58 27.12 25.46 C 26.59 24.88 25.55 23.72 25.02 23.14 C 21.69 26.49 18.36 29.84 14.92 33.08 C 16.27 34.40 17.61 35.74 18.93 37.09 C 19.94 36.03 20.95 34.95 21.97 33.89 C 22.78 34.82 23.62 35.73 24.49 36.61 C 22.56 38.18 20.89 41.19 17.98 40.59 C 15.38 38.92 13.07 36.63 11.40 34.04 C 10.73 31.61 13.06 30.05 14.49 28.51 C 17.46 25.77 20.10 22.67 23.22 20.11 Z" />
<path fill="#ffffff" opacity="1.00" d=" M 0.00 27.44 C 0.50 40.02 11.14 50.88 23.62 52.00 L 0.00 52.00 L 0.00 27.44 Z" />
</g>
<g id="#ff3083ff">
<path fill="#ff3083" opacity="1.00" d=" M 24.55 0.00 L 27.56 0.00 C 35.51 0.54 43.15 4.78 47.55 11.46 C 52.87 19.15 53.42 29.81 49.04 38.05 C 45.05 45.91 36.83 51.18 28.11 52.00 L 23.62 52.00 C 11.14 50.88 0.50 40.02 0.00 27.44 L 0.00 23.58 C 1.14 11.12 11.99 0.52 24.55 0.00 M 26.80 16.52 C 27.71 17.26 28.60 18.02 29.47 18.80 C 30.67 17.51 31.88 16.22 33.07 14.92 C 34.38 16.28 35.73 17.60 37.06 18.94 C 33.38 22.23 30.24 26.11 26.39 29.21 C 25.97 28.65 25.13 27.53 24.71 26.97 C 23.78 27.88 22.83 28.77 21.85 29.63 C 23.64 31.21 25.83 33.97 28.49 32.33 C 32.17 29.07 35.49 25.42 39.02 21.98 C 40.33 20.83 41.44 18.75 40.15 17.15 C 38.34 15.02 36.42 12.84 34.00 11.40 C 30.73 11.01 28.71 14.37 26.80 16.52 M 23.22 20.11 C 20.10 22.67 17.46 25.77 14.49 28.51 C 13.06 30.05 10.73 31.61 11.40 34.04 C 13.07 36.63 15.38 38.92 17.98 40.59 C 20.89 41.19 22.56 38.18 24.49 36.61 C 23.62 35.73 22.78 34.82 21.97 33.89 C 20.95 34.95 19.94 36.03 18.93 37.09 C 17.61 35.74 16.27 34.40 14.92 33.08 C 18.36 29.84 21.69 26.49 25.02 23.14 C 25.55 23.72 26.59 24.88 27.12 25.46 C 28.02 24.58 28.92 23.71 29.83 22.85 C 28.10 21.26 25.82 18.26 23.22 20.11 Z" />
</g>
</svg>
