<?xml version="1.0" encoding="UTF-8" ?>
<!DOCTYPE svg PUBLIC "-//W3C//DTD SVG 1.1//EN" "http://www.w3.org/Graphics/SVG/1.1/DTD/svg11.dtd">
<svg width="48pt" height="48pt" viewBox="0 0 48 48" version="1.1" xmlns="http://www.w3.org/2000/svg">
<g id="#0a0a23ff">
<path fill="#0a0a23" opacity="1.00" d=" M 0.00 0.00 L 48.00 0.00 L 48.00 48.00 L 0.00 48.00 L 0.00 0.00 M 5.48 36.40 C 6.79 37.84 8.32 40.48 10.67 39.16 C 8.76 36.40 6.15 34.07 5.00 30.84 C 3.16 25.77 3.28 19.77 6.21 15.13 C 7.49 12.99 10.04 11.48 10.04 8.74 C 0.11 13.66 -0.96 28.23 5.48 36.40 M 37.94 8.75 C 38.00 11.48 40.51 12.99 41.79 15.13 C 44.73 19.78 44.84 25.82 42.97 30.90 C 41.82 34.10 39.22 36.41 37.33 39.15 C 39.64 40.48 41.17 37.89 42.47 36.47 C 48.97 28.31 47.93 13.63 37.94 8.75 M 22.79 10.86 C 22.48 16.69 18.72 21.26 16.00 26.12 C 13.86 30.29 16.60 34.54 19.53 37.44 C 16.64 31.51 21.85 26.26 24.56 21.41 C 25.27 23.97 24.96 26.61 24.90 29.22 C 25.05 31.79 28.06 31.52 29.85 31.61 C 29.83 33.68 28.94 35.54 28.11 37.39 C 30.02 35.23 32.34 33.04 32.65 30.00 C 33.13 27.30 31.65 24.87 30.48 22.57 C 29.53 23.53 28.61 24.52 27.62 25.45 C 27.86 23.04 28.62 20.55 27.83 18.17 C 27.06 15.21 24.77 13.04 22.79 10.86 Z" />
</g>
<g id="#fdfdfdff">
<path fill="#fdfdfd" opacity="1.00" d=" M 5.48 36.40 C -0.96 28.23 0.11 13.66 10.04 8.74 C 10.04 11.48 7.49 12.99 6.21 15.13 C 3.28 19.77 3.16 25.77 5.00 30.84 C 6.15 34.07 8.76 36.40 10.67 39.16 C 8.32 40.48 6.79 37.84 5.48 36.40 Z" />
<path fill="#fdfdfd" opacity="1.00" d=" M 37.94 8.75 C 47.93 13.63 48.97 28.31 42.47 36.47 C 41.17 37.89 39.64 40.48 37.33 39.15 C 39.22 36.41 41.82 34.10 42.97 30.90 C 44.84 25.82 44.73 19.78 41.79 15.13 C 40.51 12.99 38.00 11.48 37.94 8.75 Z" />
<path fill="#fdfdfd" opacity="1.00" d=" M 22.79 10.86 C 24.77 13.04 27.06 15.21 27.83 18.17 C 28.62 20.55 27.86 23.04 27.62 25.45 C 28.61 24.52 29.53 23.53 30.48 22.57 C 31.65 24.87 33.13 27.30 32.65 30.00 C 32.34 33.04 30.02 35.23 28.11 37.39 C 28.94 35.54 29.83 33.68 29.85 31.61 C 28.06 31.52 25.05 31.79 24.90 29.22 C 24.96 26.61 25.27 23.97 24.56 21.41 C 21.85 26.26 16.64 31.51 19.53 37.44 C 16.60 34.54 13.86 30.29 16.00 26.12 C 18.72 21.26 22.48 16.69 22.79 10.86 Z" />
</g>
</svg>
