<?xml version="1.0" encoding="UTF-8" ?>
<!DOCTYPE svg PUBLIC "-//W3C//DTD SVG 1.1//EN" "http://www.w3.org/Graphics/SVG/1.1/DTD/svg11.dtd">
<svg width="48pt" height="48pt" viewBox="0 0 48 48" version="1.1" xmlns="http://www.w3.org/2000/svg">
<g id="#000000ff">
<path fill="#000000" opacity="1.00" d=" M 0.00 0.00 L 48.00 0.00 L 48.00 48.00 L 0.00 48.00 L 0.00 0.00 M 1.81 8.57 C 1.81 18.25 1.81 27.93 1.81 37.60 C 3.78 37.63 5.74 37.64 7.71 37.66 C 7.72 33.55 7.72 29.45 7.71 25.34 C 11.75 25.30 15.78 25.33 19.81 25.32 C 19.81 23.67 19.81 22.02 19.81 20.37 C 15.78 20.38 11.75 20.38 7.72 20.37 C 7.72 18.08 7.72 15.79 7.71 13.50 C 12.39 13.46 17.07 13.48 21.75 13.49 C 21.76 11.84 21.76 10.19 21.77 8.54 C 15.12 8.55 8.46 8.50 1.81 8.57 M 26.61 8.54 C 26.60 18.24 26.61 27.94 26.60 37.63 C 28.57 37.64 30.53 37.64 32.49 37.65 C 32.50 33.54 32.49 29.43 32.50 25.32 C 36.53 25.32 40.57 25.32 44.60 25.33 C 44.61 23.67 44.61 22.02 44.62 20.37 C 40.58 20.38 36.55 20.37 32.51 20.39 C 32.49 18.08 32.49 15.78 32.50 13.47 C 37.18 13.48 41.86 13.47 46.54 13.49 C 46.54 11.84 46.54 10.18 46.54 8.53 C 39.90 8.55 33.25 8.53 26.61 8.54 Z" />
</g>
<g id="#ffffffff">
<path fill="#ffffff" opacity="1.00" d=" M 1.81 8.57 C 8.46 8.50 15.12 8.55 21.77 8.54 C 21.76 10.19 21.76 11.84 21.75 13.49 C 17.07 13.48 12.39 13.46 7.71 13.50 C 7.72 15.79 7.72 18.08 7.72 20.37 C 11.75 20.38 15.78 20.38 19.81 20.37 C 19.81 22.02 19.81 23.67 19.81 25.32 C 15.78 25.33 11.75 25.30 7.71 25.34 C 7.72 29.45 7.72 33.55 7.71 37.66 C 5.74 37.64 3.78 37.63 1.81 37.60 C 1.81 27.93 1.81 18.25 1.81 8.57 Z" />
<path fill="#ffffff" opacity="1.00" d=" M 26.61 8.54 C 33.25 8.53 39.90 8.55 46.54 8.53 C 46.54 10.18 46.54 11.84 46.54 13.49 C 41.86 13.47 37.18 13.48 32.50 13.47 C 32.49 15.78 32.49 18.08 32.51 20.39 C 36.55 20.37 40.58 20.38 44.62 20.37 C 44.61 22.02 44.61 23.67 44.60 25.33 C 40.57 25.32 36.53 25.32 32.50 25.32 C 32.49 29.43 32.50 33.54 32.49 37.65 C 30.53 37.64 28.57 37.64 26.60 37.63 C 26.61 27.94 26.60 18.24 26.61 8.54 Z" />
</g>
</svg>
