<?xml version="1.0" encoding="UTF-8" ?>
<!DOCTYPE svg PUBLIC "-//W3C//DTD SVG 1.1//EN" "http://www.w3.org/Graphics/SVG/1.1/DTD/svg11.dtd">
<svg width="900pt" height="900pt" viewBox="0 0 900 900" version="1.1" xmlns="http://www.w3.org/2000/svg">
<g id="#fdd0b1ff">
<path fill="#fdd0b1" opacity="1.00" d=" M 0.00 0.00 L 900.00 0.00 L 900.00 900.00 L 0.00 900.00 L 0.00 0.00 M 451.37 200.30 C 451.40 236.02 451.36 271.74 451.39 307.47 C 456.05 307.43 460.71 307.42 465.38 307.47 C 467.03 292.78 468.95 278.04 472.73 263.72 C 475.88 253.37 480.20 242.83 488.46 235.47 C 496.43 227.92 507.34 224.59 517.92 222.71 C 535.81 219.92 553.97 220.55 572.02 220.45 C 572.17 315.63 572.02 410.82 572.10 506.00 C 572.10 511.14 571.38 516.41 569.13 521.08 C 566.48 526.29 561.14 529.59 555.63 531.10 C 543.53 534.51 530.85 533.35 518.46 534.30 C 518.51 539.41 518.50 544.51 518.46 549.63 C 575.51 549.63 632.56 549.61 689.61 549.63 C 689.58 544.52 689.59 539.40 689.61 534.29 C 682.46 533.93 675.32 533.67 668.16 533.52 C 659.45 532.67 649.81 532.00 642.98 525.84 C 637.65 520.82 636.84 512.99 636.59 506.08 C 636.59 410.89 636.59 315.70 636.59 220.51 C 655.39 220.58 674.33 219.71 692.92 223.07 C 702.42 225.00 712.09 228.13 719.47 234.69 C 728.58 242.42 733.14 253.92 736.42 265.10 C 739.85 279.02 741.78 293.25 743.39 307.48 C 748.07 307.40 752.75 307.43 757.43 307.47 C 757.38 271.73 757.41 235.99 757.42 200.24 C 755.95 200.55 754.49 200.87 753.04 201.21 C 742.43 202.79 731.71 202.46 721.05 203.29 C 643.37 203.29 565.69 203.29 488.01 203.30 C 475.79 202.34 463.41 203.00 451.37 200.30 M 376.95 203.28 C 300.60 203.28 224.25 203.35 147.90 203.24 C 147.94 208.42 147.93 213.59 147.92 218.77 C 156.08 218.51 164.24 219.04 172.37 219.87 C 178.55 220.69 185.19 222.68 188.98 228.01 C 192.50 233.24 193.48 239.74 193.53 245.94 C 193.50 333.29 193.53 420.65 193.51 508.01 C 193.39 516.30 191.00 526.15 182.82 530.04 C 171.89 535.02 159.54 533.25 147.91 534.24 C 147.93 539.39 147.93 544.53 147.92 549.68 C 202.15 549.56 256.39 549.63 310.62 549.64 C 310.60 544.53 310.59 539.43 310.62 534.32 C 301.10 533.36 291.46 534.24 281.99 532.64 C 275.03 531.69 267.41 530.00 262.59 524.45 C 257.70 518.50 257.83 510.30 257.59 503.02 C 257.52 462.21 257.57 421.41 257.56 380.61 C 275.39 380.64 293.21 380.54 311.03 380.66 C 321.49 381.65 333.63 381.34 341.50 389.51 C 347.36 396.59 348.30 406.16 349.39 414.95 C 349.82 417.47 349.21 420.30 350.32 422.64 C 354.62 422.96 358.94 422.63 363.25 422.82 C 363.25 388.35 363.15 353.89 363.30 319.42 C 358.93 319.35 354.57 319.42 350.20 319.33 C 349.38 325.23 349.14 331.20 347.97 337.06 C 346.57 344.80 343.44 353.25 335.98 357.02 C 323.52 363.21 309.31 360.91 295.97 362.35 C 283.18 362.32 270.39 362.35 257.61 362.33 C 257.49 315.06 257.59 267.78 257.56 220.50 C 280.83 220.54 304.10 220.32 327.37 220.65 L 327.98 221.18 C 344.57 221.54 362.83 223.88 375.69 235.38 C 385.07 243.81 389.53 256.08 392.65 267.97 C 395.52 280.99 397.48 294.21 398.82 307.48 C 403.45 307.43 408.08 307.37 412.71 307.54 C 413.58 304.07 413.17 300.48 413.23 296.94 C 413.27 264.77 413.17 232.60 413.28 200.43 C 401.27 202.44 389.10 202.93 376.95 203.28 Z" />
</g>
<g id="#333333ff">
<path fill="#333333" opacity="1.00" d=" M 451.37 200.30 C 463.41 203.00 475.79 202.34 488.01 203.30 C 565.69 203.29 643.37 203.29 721.05 203.29 C 731.71 202.46 742.43 202.79 753.04 201.21 C 754.49 200.87 755.95 200.55 757.42 200.24 C 757.41 235.99 757.38 271.73 757.43 307.47 C 752.75 307.43 748.07 307.40 743.39 307.48 C 741.78 293.25 739.85 279.02 736.42 265.10 C 733.14 253.92 728.58 242.42 719.47 234.69 C 712.09 228.13 702.42 225.00 692.92 223.07 C 674.33 219.71 655.39 220.58 636.59 220.51 C 636.59 315.70 636.59 410.89 636.59 506.08 C 636.84 512.99 637.65 520.82 642.98 525.84 C 649.81 532.00 659.45 532.67 668.16 533.52 C 675.32 533.67 682.46 533.93 689.61 534.29 C 689.59 539.40 689.58 544.52 689.61 549.63 C 632.56 549.61 575.51 549.63 518.46 549.63 C 518.50 544.51 518.51 539.41 518.46 534.30 C 530.85 533.35 543.53 534.51 555.63 531.10 C 561.14 529.59 566.48 526.29 569.13 521.08 C 571.38 516.41 572.10 511.14 572.10 506.00 C 572.02 410.82 572.17 315.63 572.02 220.45 C 553.97 220.55 535.81 219.92 517.92 222.71 C 507.34 224.59 496.43 227.92 488.46 235.47 C 480.20 242.83 475.88 253.37 472.73 263.72 C 468.95 278.04 467.03 292.78 465.38 307.47 C 460.71 307.42 456.05 307.43 451.39 307.47 C 451.36 271.74 451.40 236.02 451.37 200.30 Z" />
<path fill="#333333" opacity="1.00" d=" M 376.95 203.28 C 389.10 202.93 401.27 202.44 413.28 200.43 C 413.17 232.60 413.27 264.77 413.23 296.94 C 413.17 300.48 413.58 304.07 412.71 307.54 C 408.08 307.37 403.45 307.43 398.82 307.48 C 397.48 294.21 395.52 280.99 392.65 267.97 C 389.53 256.08 385.07 243.81 375.69 235.38 C 362.83 223.88 344.57 221.54 327.98 221.18 L 327.37 220.65 C 304.10 220.32 280.83 220.54 257.56 220.50 C 257.59 267.78 257.49 315.06 257.61 362.33 C 270.39 362.35 283.18 362.32 295.97 362.35 C 309.31 360.91 323.52 363.21 335.98 357.02 C 343.44 353.25 346.57 344.80 347.97 337.06 C 349.14 331.20 349.38 325.23 350.20 319.33 C 354.57 319.42 358.93 319.35 363.30 319.42 C 363.15 353.89 363.25 388.35 363.25 422.82 C 358.94 422.63 354.62 422.96 350.32 422.64 C 349.21 420.30 349.82 417.47 349.39 414.95 C 348.30 406.16 347.36 396.59 341.50 389.51 C 333.63 381.34 321.49 381.65 311.03 380.66 C 293.21 380.54 275.39 380.64 257.56 380.61 C 257.57 421.41 257.52 462.21 257.59 503.02 C 257.83 510.30 257.70 518.50 262.59 524.45 C 267.41 530.00 275.03 531.69 281.99 532.64 C 291.46 534.24 301.10 533.36 310.62 534.32 C 310.59 539.43 310.60 544.53 310.62 549.64 C 256.39 549.63 202.15 549.56 147.92 549.68 C 147.93 544.53 147.93 539.39 147.91 534.24 C 159.54 533.25 171.89 535.02 182.82 530.04 C 191.00 526.15 193.39 516.30 193.51 508.01 C 193.53 420.65 193.50 333.29 193.53 245.94 C 193.48 239.74 192.50 233.24 188.98 228.01 C 185.19 222.68 178.55 220.69 172.37 219.87 C 164.24 219.04 156.08 218.51 147.92 218.77 C 147.93 213.59 147.94 208.42 147.90 203.24 C 224.25 203.35 300.60 203.28 376.95 203.28 Z" />
</g>
</svg>
