<?xml version="1.0" encoding="UTF-8" ?>
<!DOCTYPE svg PUBLIC "-//W3C//DTD SVG 1.1//EN" "http://www.w3.org/Graphics/SVG/1.1/DTD/svg11.dtd">
<svg width="144pt" height="144pt" viewBox="0 0 144 144" version="1.1" xmlns="http://www.w3.org/2000/svg">
<g id="#f6d5acff">
<path fill="#f6d5ac" opacity="1.00" d=" M 0.00 0.00 L 144.00 0.00 L 144.00 144.00 L 0.00 144.00 L 0.00 0.00 M 13.87 20.82 C 13.87 21.38 13.87 22.51 13.87 23.07 C 15.80 23.44 17.87 23.46 19.64 24.39 C 21.78 25.81 21.85 28.64 21.86 30.94 C 21.81 45.27 21.81 59.61 21.82 73.95 C 21.71 76.42 21.91 79.24 20.23 81.28 C 18.38 82.72 15.85 82.53 13.67 82.99 C 13.66 83.57 13.63 84.73 13.62 85.31 C 23.90 85.31 34.17 85.31 44.45 85.31 C 44.45 84.71 44.44 83.50 44.44 82.90 C 41.84 82.55 38.93 82.81 36.69 81.22 C 34.97 79.69 35.05 77.13 34.87 75.02 C 34.81 68.06 34.90 61.11 34.86 54.15 C 40.32 54.24 47.22 53.00 51.11 57.85 C 52.77 59.66 52.16 63.88 55.33 63.65 C 56.36 56.15 55.44 48.36 55.76 40.74 C 55.19 40.74 54.06 40.73 53.49 40.73 C 52.61 43.42 51.87 46.77 48.94 47.97 C 44.49 49.78 39.55 49.22 34.86 49.27 C 34.92 42.50 34.76 35.73 34.89 28.96 C 34.91 27.66 35.27 25.56 37.01 25.67 C 42.30 25.34 47.62 25.48 52.91 25.71 C 56.57 26.07 61.01 26.44 63.26 29.80 C 64.89 31.85 65.07 35.64 68.48 35.38 C 68.43 30.53 68.24 25.67 68.12 20.82 C 50.04 20.81 31.95 20.80 13.87 20.82 M 71.28 35.18 C 72.09 35.10 73.72 34.95 74.54 34.88 C 75.87 31.52 77.45 27.60 81.18 26.32 C 85.48 24.93 90.10 25.70 94.55 25.53 C 94.55 42.02 94.51 58.51 94.55 75.01 C 94.52 77.24 94.49 79.97 92.47 81.41 C 90.30 82.79 87.61 82.73 85.16 83.24 C 85.25 83.76 85.41 84.81 85.50 85.34 C 95.95 85.28 106.40 85.33 116.85 85.31 C 116.81 84.69 116.72 83.45 116.68 82.83 C 114.10 82.51 111.14 82.76 109.00 81.00 C 107.65 79.32 107.70 77.05 107.65 75.01 C 107.69 58.56 107.65 42.12 107.66 25.67 C 112.01 25.83 116.48 25.12 120.73 26.26 C 124.65 27.42 126.24 31.49 127.58 34.93 C 128.67 35.00 129.76 35.07 130.85 35.13 C 130.45 30.39 129.92 25.66 129.56 20.91 C 110.59 20.65 91.62 20.95 72.65 20.75 C 72.08 25.55 71.63 30.36 71.28 35.18 M 38.91 103.15 C 38.88 105.05 38.90 106.96 38.88 108.86 C 35.69 108.95 32.46 108.85 29.47 107.61 C 29.36 111.25 29.03 114.93 29.50 118.55 C 31.14 120.30 33.46 118.16 33.76 116.33 C 35.47 116.33 37.19 116.34 38.90 116.35 C 38.87 119.77 38.86 123.20 38.87 126.62 C 40.19 126.17 42.60 126.94 43.01 125.09 C 43.35 122.19 43.13 119.26 43.12 116.35 C 44.91 116.33 46.70 116.31 48.50 116.29 C 48.70 116.96 49.11 118.32 49.32 119.00 C 50.44 118.63 51.65 118.42 52.68 117.81 C 52.95 114.82 52.93 111.78 53.70 108.86 C 52.48 108.28 51.29 107.59 49.97 107.27 C 47.86 108.63 45.46 109.02 42.98 108.88 C 43.14 106.94 43.30 105.01 43.51 103.08 C 41.97 103.10 40.44 103.13 38.91 103.15 M 68.50 102.43 C 69.37 104.00 70.27 105.56 71.14 107.14 L 72.84 106.96 C 68.79 109.93 63.40 107.55 58.78 108.33 C 61.20 108.75 63.66 108.84 66.11 108.94 C 66.97 112.52 68.41 115.92 70.42 119.01 C 66.82 122.26 62.42 124.31 58.15 126.51 C 63.41 126.11 68.20 123.65 72.72 121.12 C 75.77 123.26 79.10 125.00 82.75 125.86 C 84.02 124.48 85.41 123.23 86.88 122.06 C 82.87 121.47 78.99 120.21 75.36 118.41 C 77.41 115.35 79.19 112.12 80.95 108.88 C 82.88 108.83 84.82 108.77 86.75 108.64 C 85.30 107.44 83.74 106.38 82.15 105.38 C 81.37 106.35 80.60 107.31 79.83 108.27 C 77.49 108.33 75.16 108.43 72.84 108.59 C 72.87 108.01 72.95 106.87 72.99 106.29 L 73.96 107.72 C 74.22 107.02 74.75 105.64 75.01 104.94 C 74.06 102.43 70.58 103.21 68.50 102.43 M 91.32 125.93 C 92.42 125.79 93.52 125.65 94.63 125.51 C 94.66 124.02 94.69 122.54 94.73 121.06 C 96.34 119.53 97.87 117.94 99.31 116.26 C 99.87 117.58 100.55 118.85 101.70 119.76 C 100.60 120.72 99.51 121.69 98.46 122.69 C 101.77 121.37 104.53 119.07 106.94 116.48 C 107.41 117.82 106.72 120.31 108.86 120.23 C 112.62 119.06 109.70 115.27 108.48 113.21 C 109.42 111.46 110.37 109.70 111.34 107.95 C 109.78 107.59 108.23 107.22 106.66 106.87 C 106.45 108.30 106.24 109.73 106.02 111.17 C 105.39 110.84 104.13 110.20 103.50 109.87 C 103.47 109.33 103.43 108.24 103.40 107.70 C 102.09 107.43 100.77 107.17 99.46 106.91 C 99.32 108.29 99.18 109.67 99.03 111.05 C 97.31 109.57 93.97 108.77 94.64 105.90 C 95.00 105.69 95.73 105.26 96.09 105.05 C 101.16 104.47 106.30 104.94 111.40 104.50 C 111.71 110.45 111.59 116.40 111.50 122.35 C 109.91 122.68 108.31 123.01 106.71 123.29 C 108.39 123.92 109.80 125.00 111.01 126.32 C 112.44 125.91 113.89 125.51 115.32 125.09 C 115.51 119.71 115.33 114.33 115.39 108.95 C 115.27 107.52 115.89 106.22 116.48 104.97 C 115.30 104.42 114.11 103.87 112.93 103.33 C 108.06 104.66 102.98 104.14 98.00 104.35 C 95.73 104.52 93.55 103.86 91.37 103.35 C 91.23 110.87 91.31 118.40 91.32 125.93 Z" />
<path fill="#f6d5ac" opacity="1.00" d=" M 66.84 109.07 C 69.78 108.71 72.75 108.65 75.68 109.14 C 74.77 111.68 73.65 114.13 72.26 116.44 C 70.07 114.29 68.25 111.80 66.84 109.07 Z" />
<path fill="#f6d5ac" opacity="1.00" d=" M 33.29 109.48 C 35.16 109.47 37.03 109.46 38.90 109.46 C 38.89 111.53 38.89 113.59 38.89 115.66 C 37.02 115.67 35.15 115.67 33.28 115.67 C 33.28 113.61 33.28 111.54 33.29 109.48 Z" />
<path fill="#f6d5ac" opacity="1.00" d=" M 43.12 109.46 C 45.00 109.47 46.87 109.48 48.75 109.49 C 48.75 111.55 48.74 113.61 48.74 115.67 C 46.87 115.66 45.00 115.67 43.13 115.66 C 43.13 113.59 43.13 111.52 43.12 109.46 Z" />
<path fill="#f6d5ac" opacity="1.00" d=" M 94.75 108.85 C 95.99 110.30 97.23 111.76 98.47 113.22 C 97.51 115.53 96.32 117.75 94.81 119.75 C 94.60 116.12 94.65 112.48 94.75 108.85 Z" />
<path fill="#f6d5ac" opacity="1.00" d=" M 101.14 113.18 C 101.70 112.03 102.25 110.88 102.81 109.74 C 103.58 110.85 104.29 112.00 104.95 113.17 C 104.74 114.59 104.17 115.91 103.70 117.25 C 102.85 115.89 101.98 114.55 101.14 113.18 Z" />
</g>
<g id="#3a4147ff">
<path fill="#3a4147" opacity="1.00" d=" M 13.87 20.82 C 31.95 20.80 50.04 20.81 68.12 20.82 C 68.24 25.67 68.43 30.53 68.48 35.38 C 65.07 35.64 64.89 31.85 63.26 29.80 C 61.01 26.44 56.57 26.07 52.91 25.71 C 47.62 25.48 42.30 25.34 37.01 25.67 C 35.27 25.56 34.91 27.66 34.89 28.96 C 34.76 35.73 34.92 42.50 34.86 49.27 C 39.55 49.22 44.49 49.78 48.94 47.97 C 51.87 46.77 52.61 43.42 53.49 40.73 C 54.06 40.73 55.19 40.74 55.76 40.74 C 55.44 48.36 56.36 56.15 55.33 63.65 C 52.16 63.88 52.77 59.66 51.11 57.85 C 47.22 53.00 40.32 54.24 34.86 54.15 C 34.90 61.11 34.81 68.06 34.87 75.02 C 35.05 77.13 34.97 79.69 36.69 81.22 C 38.93 82.81 41.84 82.55 44.44 82.90 C 44.44 83.50 44.45 84.71 44.45 85.31 C 34.17 85.31 23.90 85.31 13.62 85.31 C 13.63 84.73 13.66 83.57 13.67 82.99 C 15.85 82.53 18.38 82.72 20.23 81.28 C 21.91 79.24 21.71 76.42 21.82 73.95 C 21.81 59.61 21.81 45.27 21.86 30.94 C 21.85 28.64 21.78 25.81 19.64 24.39 C 17.87 23.46 15.80 23.44 13.87 23.07 C 13.87 22.51 13.87 21.38 13.87 20.82 Z" />
<path fill="#3a4147" opacity="1.00" d=" M 71.28 35.18 C 71.63 30.36 72.08 25.55 72.65 20.75 C 91.62 20.95 110.59 20.65 129.56 20.91 C 129.92 25.66 130.45 30.39 130.85 35.13 C 129.76 35.07 128.67 35.00 127.58 34.93 C 126.24 31.49 124.65 27.42 120.73 26.26 C 116.48 25.12 112.01 25.83 107.66 25.67 C 107.65 42.12 107.69 58.56 107.65 75.01 C 107.70 77.05 107.65 79.32 109.00 81.00 C 111.14 82.76 114.10 82.51 116.68 82.83 C 116.72 83.45 116.81 84.69 116.85 85.31 C 106.40 85.33 95.95 85.28 85.50 85.34 C 85.41 84.81 85.25 83.76 85.16 83.24 C 87.61 82.73 90.30 82.79 92.47 81.41 C 94.49 79.97 94.52 77.24 94.55 75.01 C 94.51 58.51 94.55 42.02 94.55 25.53 C 90.10 25.70 85.48 24.93 81.18 26.32 C 77.45 27.60 75.87 31.52 74.54 34.88 C 73.72 34.95 72.09 35.10 71.28 35.18 Z" />
<path fill="#3a4147" opacity="1.00" d=" M 38.91 103.15 C 40.44 103.13 41.97 103.10 43.51 103.08 C 43.30 105.01 43.14 106.94 42.98 108.88 C 45.46 109.02 47.86 108.63 49.97 107.27 C 51.29 107.59 52.48 108.28 53.70 108.86 C 52.93 111.78 52.95 114.82 52.68 117.81 C 51.65 118.42 50.44 118.63 49.32 119.00 C 49.11 118.32 48.70 116.96 48.50 116.29 C 46.70 116.31 44.91 116.33 43.12 116.35 C 43.13 119.26 43.35 122.19 43.01 125.09 C 42.60 126.94 40.19 126.17 38.87 126.62 C 38.86 123.20 38.87 119.77 38.90 116.35 C 37.19 116.34 35.47 116.33 33.76 116.33 C 33.46 118.16 31.14 120.30 29.50 118.55 C 29.03 114.93 29.36 111.25 29.47 107.61 C 32.46 108.85 35.69 108.95 38.88 108.86 C 38.90 106.96 38.88 105.05 38.91 103.15 M 33.29 109.48 C 33.28 111.54 33.28 113.61 33.28 115.67 C 35.15 115.67 37.02 115.67 38.89 115.66 C 38.89 113.59 38.89 111.53 38.90 109.46 C 37.03 109.46 35.16 109.47 33.29 109.48 M 43.12 109.46 C 43.13 111.52 43.13 113.59 43.13 115.66 C 45.00 115.67 46.87 115.66 48.74 115.67 C 48.74 113.61 48.75 111.55 48.75 109.49 C 46.87 109.48 45.00 109.47 43.12 109.46 Z" />
<path fill="#3a4147" opacity="1.00" d=" M 68.50 102.43 C 70.58 103.21 74.06 102.43 75.01 104.94 C 74.75 105.64 74.22 107.02 73.96 107.72 L 72.99 106.29 C 72.95 106.87 72.87 108.01 72.84 108.59 C 75.16 108.43 77.49 108.33 79.83 108.27 C 80.60 107.31 81.37 106.35 82.15 105.38 C 83.74 106.38 85.30 107.44 86.75 108.64 C 84.82 108.77 82.88 108.83 80.95 108.88 C 79.19 112.12 77.41 115.35 75.36 118.41 C 78.99 120.21 82.87 121.47 86.88 122.06 C 85.41 123.23 84.02 124.48 82.75 125.86 C 79.10 125.00 75.77 123.26 72.72 121.12 C 68.20 123.65 63.41 126.11 58.15 126.51 C 62.42 124.31 66.82 122.26 70.42 119.01 C 68.41 115.92 66.97 112.52 66.11 108.94 C 63.66 108.84 61.20 108.75 58.78 108.33 C 63.40 107.55 68.79 109.93 72.84 106.96 L 71.14 107.14 C 70.27 105.56 69.37 104.00 68.50 102.43 M 66.84 109.07 C 68.25 111.80 70.07 114.29 72.26 116.44 C 73.65 114.13 74.77 111.68 75.68 109.14 C 72.75 108.65 69.78 108.71 66.84 109.07 Z" />
<path fill="#3a4147" opacity="1.00" d=" M 91.32 125.93 C 91.31 118.40 91.23 110.87 91.37 103.35 C 93.55 103.86 95.73 104.52 98.00 104.35 C 102.98 104.14 108.06 104.66 112.93 103.33 C 114.11 103.87 115.30 104.42 116.48 104.97 C 115.89 106.22 115.27 107.52 115.39 108.95 C 115.33 114.33 115.51 119.71 115.32 125.09 C 113.89 125.51 112.44 125.91 111.01 126.32 C 109.80 125.00 108.39 123.92 106.71 123.29 C 108.31 123.01 109.91 122.68 111.50 122.35 C 111.59 116.40 111.71 110.45 111.40 104.50 C 106.30 104.94 101.16 104.47 96.09 105.05 C 95.73 105.26 95.00 105.69 94.64 105.90 C 93.97 108.77 97.31 109.57 99.03 111.05 C 99.18 109.67 99.32 108.29 99.46 106.91 C 100.77 107.17 102.09 107.43 103.40 107.70 C 103.43 108.24 103.47 109.33 103.50 109.87 C 104.13 110.20 105.39 110.84 106.02 111.17 C 106.24 109.73 106.45 108.30 106.66 106.87 C 108.23 107.22 109.78 107.59 111.34 107.95 C 110.37 109.70 109.42 111.46 108.48 113.21 C 109.70 115.27 112.62 119.06 108.86 120.23 C 106.72 120.31 107.41 117.82 106.94 116.48 C 104.53 119.07 101.77 121.37 98.46 122.69 C 99.51 121.69 100.60 120.72 101.70 119.76 C 100.55 118.85 99.87 117.58 99.31 116.26 C 97.87 117.94 96.34 119.53 94.73 121.06 C 94.69 122.54 94.66 124.02 94.63 125.51 C 93.52 125.65 92.42 125.79 91.32 125.93 M 94.75 108.85 C 94.65 112.48 94.60 116.12 94.81 119.75 C 96.32 117.75 97.51 115.53 98.47 113.22 C 97.23 111.76 95.99 110.30 94.75 108.85 M 101.14 113.18 C 101.98 114.55 102.85 115.89 103.70 117.25 C 104.17 115.91 104.74 114.59 104.95 113.17 C 104.29 112.00 103.58 110.85 102.81 109.74 C 102.25 110.88 101.70 112.03 101.14 113.18 Z" />
</g>
</svg>
