<?xml version="1.0" encoding="UTF-8" ?>
<!DOCTYPE svg PUBLIC "-//W3C//DTD SVG 1.1//EN" "http://www.w3.org/Graphics/SVG/1.1/DTD/svg11.dtd">
<svg width="200pt" height="200pt" viewBox="0 0 200 200" version="1.1" xmlns="http://www.w3.org/2000/svg">
<g id="#1b37a8ff">
<path fill="#1b37a8" opacity="1.00" d=" M 31.93 30.05 C 32.19 27.55 34.44 25.74 36.94 26.03 C 78.98 25.98 121.02 25.98 163.05 26.03 C 165.46 25.79 167.85 27.32 168.06 29.85 C 170.86 43.92 173.48 58.02 176.17 72.11 C 178.34 86.77 166.46 101.19 152.03 103.15 C 144.95 104.14 137.46 102.50 131.61 98.35 C 128.60 96.27 126.33 93.36 124.00 90.58 C 119.45 96.53 113.22 101.54 105.66 102.82 C 94.37 105.45 82.51 99.87 76.00 90.57 C 70.94 97.22 63.61 102.61 55.05 103.22 C 38.69 105.61 22.10 90.60 23.70 73.97 C 26.35 59.32 29.13 44.68 31.93 30.05 M 40.14 35.04 C 37.73 48.38 35.00 61.66 32.65 75.01 C 32.41 84.77 41.41 93.25 50.98 93.46 C 60.55 94.21 70.11 86.60 71.17 76.98 C 71.57 74.79 71.69 72.11 73.86 70.85 C 76.52 69.04 80.15 71.40 80.35 74.42 C 80.83 78.94 81.93 83.53 84.90 87.11 C 92.17 96.61 108.63 96.36 115.52 86.54 C 118.22 83.05 119.17 78.70 119.64 74.41 C 119.81 71.38 123.49 69.06 126.14 70.85 C 128.28 72.14 128.45 74.80 128.76 77.02 C 129.50 84.56 135.04 91.51 142.39 93.54 C 146.05 94.44 149.95 94.44 153.61 93.54 C 160.67 91.60 165.96 85.12 167.19 78.01 C 167.72 74.58 166.69 71.20 166.10 67.85 C 164.00 56.92 161.88 45.99 159.86 35.04 C 119.95 34.97 80.04 34.97 40.14 35.04 Z" />
<path fill="#1b37a8" opacity="1.00" d=" M 34.05 111.25 C 37.02 111.23 39.99 111.23 42.96 111.25 C 43.19 129.15 42.96 147.06 43.06 164.96 C 81.02 165.02 118.98 165.03 156.93 164.96 C 157.03 147.06 156.81 129.15 157.04 111.25 C 160.01 111.23 162.98 111.23 165.95 111.25 C 166.09 129.86 165.94 148.47 166.02 167.09 C 165.88 168.97 166.26 171.28 164.69 172.69 C 163.26 174.22 160.98 173.90 159.09 174.02 C 119.04 173.94 78.98 174.07 38.94 173.96 C 36.10 174.30 33.78 171.79 34.04 169.02 C 33.97 149.76 33.95 130.50 34.05 111.25 Z" />
</g>
<g id="#ffb718ff">
<path fill="#ffb718" opacity="1.00" d=" M 47.84 51.26 C 82.64 51.23 117.45 51.24 152.25 51.26 C 152.27 54.25 152.28 57.23 152.24 60.22 C 117.44 60.27 82.64 60.28 47.83 60.21 C 47.81 57.23 47.81 54.25 47.84 51.26 Z" />
<path fill="#ffb718" opacity="1.00" d=" M 96.41 118.57 C 100.52 117.92 104.95 118.26 108.61 120.39 C 115.38 123.98 119.32 132.18 117.81 139.71 C 116.25 147.94 108.59 154.91 100.00 154.46 C 90.46 154.98 82.13 146.34 81.89 137.03 C 81.46 128.46 87.91 120.07 96.41 118.57 M 98.46 127.53 C 91.38 128.45 88.33 138.45 93.96 142.99 C 98.73 147.91 108.06 144.62 108.82 137.88 C 110.18 132.07 104.20 126.28 98.46 127.53 Z" />
</g>
</svg>
