<?xml version="1.0" encoding="UTF-8" ?>
<!DOCTYPE svg PUBLIC "-//W3C//DTD SVG 1.1//EN" "http://www.w3.org/Graphics/SVG/1.1/DTD/svg11.dtd">
<svg width="128pt" height="128pt" viewBox="0 0 128 128" version="1.1" xmlns="http://www.w3.org/2000/svg">
<g id="#1e2f42ff">
<path fill="#1e2f42" opacity="1.00" d=" M 24.64 16.64 C 34.10 8.37 46.53 3.86 58.97 2.79 C 76.24 1.43 93.92 7.73 106.45 19.70 C 107.05 20.29 107.45 20.99 107.62 21.83 C 100.74 15.82 93.27 10.24 84.51 7.29 C 67.77 1.09 48.37 2.81 32.98 11.85 C 30.61 13.24 28.38 14.86 25.99 16.22 L 24.64 16.64 Z" />
<path fill="#1e2f42" opacity="1.00" d=" M 60.00 5.70 C 60.71 5.67 62.13 5.60 62.85 5.57 C 62.58 6.39 62.31 7.21 62.04 8.04 C 62.29 8.87 62.54 9.71 62.79 10.55 C 62.14 10.53 60.83 10.48 60.18 10.45 C 60.64 9.67 61.09 8.90 61.55 8.12 C 61.03 7.32 60.51 6.51 60.00 5.70 Z" />
<path fill="#1e2f42" opacity="1.00" d=" M 64.30 5.50 C 64.96 5.56 66.26 5.67 66.91 5.73 C 66.37 6.61 65.82 7.49 65.27 8.37 C 66.29 9.08 67.32 9.79 68.36 10.48 C 68.33 9.27 68.28 6.85 68.25 5.64 C 68.91 5.82 70.24 6.18 70.90 6.36 C 70.52 6.78 69.76 7.60 69.37 8.02 C 69.50 8.71 69.75 10.08 69.88 10.77 C 68.04 10.72 66.21 10.70 64.37 10.64 C 64.51 8.93 64.48 7.21 64.30 5.50 Z" />
<path fill="#1e2f42" opacity="1.00" d=" M 52.49 6.54 C 54.56 6.34 56.65 6.15 58.70 5.79 C 58.56 7.48 58.57 9.18 58.68 10.88 C 58.32 10.87 57.60 10.85 57.24 10.84 C 57.34 9.90 57.52 8.02 57.62 7.07 C 56.53 7.08 55.45 7.10 54.37 7.13 C 54.82 8.46 55.29 9.79 55.77 11.11 C 55.25 11.19 54.20 11.34 53.68 11.42 C 53.87 9.67 53.52 7.98 52.49 6.54 Z" />
<path fill="#1e2f42" opacity="1.00" d=" M 72.48 5.71 C 74.54 6.54 73.18 8.69 73.08 10.24 C 72.58 11.24 72.58 12.25 73.06 13.28 C 81.24 14.03 88.81 18.04 95.36 22.82 C 93.47 21.90 91.56 21.06 89.64 20.21 C 90.63 22.45 91.60 24.70 92.65 26.91 C 93.76 26.08 94.86 25.25 95.97 24.42 C 95.84 25.68 95.71 26.94 95.59 28.20 C 92.84 28.41 90.12 28.81 87.46 29.51 C 90.88 29.77 94.31 29.67 97.74 29.65 C 97.35 31.75 96.72 33.80 96.04 35.82 C 97.31 34.66 98.57 33.48 99.81 32.28 C 99.00 31.25 98.19 30.22 97.39 29.18 C 97.34 27.38 97.18 25.59 96.83 23.83 C 100.00 26.79 103.08 29.85 105.79 33.25 C 104.69 33.30 102.50 33.41 101.41 33.46 C 101.49 32.51 101.66 30.61 101.74 29.66 C 101.35 29.80 100.56 30.06 100.16 30.19 C 99.73 33.29 102.37 35.47 104.12 37.61 C 102.23 37.63 100.35 37.67 98.47 37.80 C 100.74 39.76 103.64 39.98 106.50 39.52 C 103.66 44.54 106.51 49.89 108.03 54.82 C 107.20 55.79 106.38 56.77 105.56 57.75 C 107.12 58.50 108.69 59.24 110.26 59.97 C 111.14 62.76 111.87 65.59 112.52 68.44 C 110.36 66.76 108.34 64.08 105.31 64.24 C 102.11 64.38 100.21 67.39 98.04 69.31 C 98.23 68.42 98.62 66.63 98.81 65.74 C 101.31 64.95 103.26 63.25 103.49 60.49 C 101.71 61.56 100.21 62.99 98.87 64.56 C 97.64 62.68 96.03 59.94 93.37 61.25 C 94.57 62.53 95.92 63.66 97.02 65.03 C 98.06 67.07 96.47 68.92 95.47 70.56 C 94.72 69.73 93.98 68.89 93.24 68.06 C 93.45 69.12 93.63 70.19 93.86 71.25 C 95.46 72.97 96.78 74.91 98.03 76.89 C 97.42 77.38 96.20 78.36 95.59 78.85 C 95.59 79.42 95.57 80.56 95.56 81.13 C 94.99 81.63 93.83 82.63 93.26 83.14 C 94.21 83.23 96.12 83.42 97.07 83.52 C 95.72 85.13 94.37 86.74 93.11 88.43 C 97.85 86.30 100.04 81.08 99.27 76.09 C 101.02 78.65 103.48 81.96 107.06 81.03 C 111.43 80.25 112.22 73.70 108.58 71.53 C 106.17 69.79 103.82 72.85 101.65 73.78 C 102.17 73.97 103.23 74.35 103.75 74.54 C 105.54 73.60 108.43 71.78 109.78 74.29 C 111.54 76.97 108.60 79.06 106.75 80.49 C 106.57 79.70 106.20 78.11 106.02 77.31 C 104.63 77.32 103.24 77.49 101.86 77.63 C 100.73 75.28 99.15 72.76 99.91 70.06 C 100.88 66.00 106.73 64.46 109.70 67.27 C 111.14 69.02 111.69 71.28 112.58 73.32 C 113.14 70.41 113.78 67.42 113.28 64.45 C 112.65 60.09 110.32 56.25 109.20 52.04 C 110.37 50.41 111.87 49.06 113.26 47.61 C 115.77 55.62 116.46 64.17 115.14 72.46 C 115.79 72.41 117.09 72.30 117.74 72.24 C 118.80 72.87 120.09 72.94 120.85 71.83 C 121.62 69.42 118.37 70.64 117.06 70.46 C 117.14 69.90 117.28 68.77 117.36 68.20 C 118.52 68.71 119.69 69.21 120.86 69.70 C 120.91 68.57 120.95 67.45 120.98 66.33 C 120.08 66.46 118.28 66.72 117.38 66.85 C 117.60 65.06 117.59 63.26 117.38 61.48 C 119.10 61.58 120.82 61.47 122.53 61.29 C 122.52 62.71 122.45 64.13 121.76 65.40 L 122.66 65.60 C 121.00 68.35 122.09 71.77 121.58 74.82 C 119.43 73.80 116.96 73.88 114.84 72.82 C 113.44 85.06 106.31 96.13 97.04 104.01 C 79.87 118.70 52.88 120.27 34.30 107.28 C 35.23 106.92 36.16 106.53 37.08 106.13 C 37.51 106.28 38.38 106.57 38.81 106.71 C 40.25 106.42 41.69 106.14 43.14 105.86 C 42.61 106.53 41.54 107.86 41.01 108.53 C 43.07 109.63 45.32 110.22 47.64 110.48 C 50.97 112.80 54.77 114.81 58.96 114.60 C 63.32 114.31 67.70 114.84 72.05 114.43 C 75.18 114.18 77.73 112.23 80.23 110.52 C 82.47 110.20 84.64 109.52 86.59 108.34 C 85.92 107.81 84.59 106.74 83.93 106.20 C 86.09 106.23 88.25 106.27 90.41 106.29 C 91.21 106.12 92.00 105.92 92.79 105.72 C 91.68 102.37 86.83 103.80 84.15 103.93 C 84.96 102.71 85.77 101.48 86.57 100.26 C 89.69 101.36 93.15 102.85 96.44 101.48 C 101.36 99.70 102.89 94.15 105.70 90.27 C 106.40 90.09 107.79 89.75 108.48 89.58 C 107.01 89.43 105.53 89.28 104.06 89.14 C 104.85 87.85 105.64 86.56 106.45 85.29 C 107.54 85.76 108.67 85.95 109.83 85.87 C 109.87 83.98 107.48 84.05 106.25 83.37 C 105.87 83.02 105.12 82.33 104.75 81.98 C 104.30 83.19 103.86 84.40 103.42 85.62 C 99.62 86.97 95.25 87.99 93.11 91.77 C 95.13 91.75 97.15 91.69 99.17 91.63 C 99.27 92.64 99.46 94.68 99.56 95.70 C 101.42 94.17 100.32 92.30 99.37 90.61 C 99.91 90.43 101.00 90.07 101.54 89.89 C 101.47 89.07 101.40 88.26 101.34 87.45 C 101.97 87.27 103.22 86.92 103.85 86.75 C 102.95 91.25 101.80 95.92 98.25 99.12 C 97.94 96.03 95.62 94.33 92.85 93.56 C 93.34 94.00 94.31 94.89 94.80 95.33 C 94.51 96.15 94.22 96.97 93.93 97.80 C 94.21 98.51 94.76 99.95 95.04 100.66 C 92.32 100.48 89.63 99.88 86.90 99.90 C 84.68 99.82 83.74 102.22 82.43 103.56 C 81.79 102.71 81.14 101.85 80.49 101.00 C 80.29 101.83 79.88 103.49 79.68 104.31 C 78.37 103.46 77.07 102.59 75.77 101.72 C 76.11 105.49 74.39 108.87 71.93 111.60 C 71.86 110.76 71.74 109.06 71.68 108.21 C 70.66 107.50 69.64 106.78 68.62 106.06 C 68.63 105.02 68.66 102.93 68.68 101.88 C 66.77 104.17 67.75 106.59 69.59 108.50 C 69.38 108.87 68.98 109.62 68.77 109.99 C 68.91 110.80 69.17 112.40 69.31 113.20 C 68.27 113.24 66.19 113.32 65.16 113.36 C 65.83 112.16 66.50 110.96 67.18 109.77 C 67.05 109.36 66.79 108.54 66.66 108.12 C 65.92 109.37 65.20 110.64 64.38 111.84 C 62.76 111.12 61.82 109.46 60.57 108.28 C 61.22 109.97 61.88 111.67 62.53 113.36 C 61.06 113.31 59.59 113.25 58.12 113.19 C 58.32 111.11 58.40 108.93 59.46 107.05 C 59.25 106.75 58.83 106.15 58.61 105.85 C 56.77 107.19 55.31 108.94 54.77 111.23 C 52.62 108.32 49.90 104.71 52.68 101.18 C 54.12 102.98 55.42 104.90 57.09 106.51 C 56.32 104.88 55.54 103.26 54.74 101.64 C 57.36 102.12 58.98 104.11 60.57 106.02 C 60.29 105.12 59.73 103.32 59.45 102.42 C 57.40 101.35 55.06 101.08 52.85 100.48 C 52.26 101.04 51.67 101.61 51.08 102.18 C 49.65 99.71 47.62 97.71 45.01 96.53 C 44.80 97.59 44.59 98.67 44.39 99.74 C 45.58 99.38 46.79 99.07 48.01 98.79 C 49.56 100.42 50.54 103.29 48.11 104.71 C 47.83 103.72 47.28 101.74 47.00 100.76 C 46.52 102.08 46.07 103.42 45.62 104.76 C 44.25 102.77 42.83 100.83 41.35 98.92 C 42.04 97.56 42.73 96.19 43.40 94.82 C 42.36 95.74 41.33 96.67 40.31 97.61 C 37.07 91.08 30.47 87.53 23.77 85.50 C 23.25 84.30 22.74 83.10 22.21 81.90 C 21.92 82.50 21.32 83.70 21.03 84.31 C 19.77 84.50 15.18 83.40 17.29 85.59 C 19.65 85.54 21.33 86.80 22.35 88.86 C 20.80 89.17 19.25 89.46 17.70 89.75 C 10.75 77.47 8.94 62.36 13.23 48.88 C 18.08 32.78 31.29 19.55 47.33 14.54 C 54.93 12.00 63.10 11.69 71.00 12.62 C 71.52 11.99 72.03 11.36 72.53 10.73 L 71.06 10.81 C 72.38 9.40 72.33 7.50 72.48 5.71 M 55.12 16.18 C 50.45 17.81 47.49 22.16 46.25 26.77 C 44.26 24.75 42.13 21.88 38.91 22.32 C 35.80 22.57 34.28 25.82 33.16 28.32 C 31.86 27.55 30.56 26.79 29.23 26.08 C 29.52 27.93 30.35 29.58 31.82 30.77 C 33.71 30.54 35.48 31.20 37.20 31.87 C 37.28 32.72 37.45 34.41 37.54 35.26 C 38.30 34.55 39.16 33.90 39.74 33.02 C 39.53 30.10 34.42 30.27 35.16 27.04 C 35.32 24.80 37.43 22.70 39.77 23.16 C 42.73 23.35 44.42 26.00 45.95 28.17 C 45.48 28.56 44.55 29.33 44.08 29.71 C 45.44 29.58 46.80 29.46 48.16 29.33 C 48.44 28.34 48.72 27.36 49.00 26.38 C 50.76 25.65 52.42 24.69 51.85 22.44 C 52.49 22.48 53.78 22.56 54.42 22.60 C 53.75 21.23 52.25 20.94 50.94 20.48 C 52.75 18.76 54.77 17.26 57.05 16.21 C 57.30 16.88 57.80 18.23 58.05 18.91 C 59.47 18.55 60.89 18.20 62.32 17.85 C 62.14 19.14 61.96 20.44 61.78 21.73 C 58.50 20.99 55.52 22.81 54.88 26.11 C 57.37 24.29 60.23 23.18 63.19 24.69 C 62.72 23.74 62.24 22.79 61.77 21.84 C 62.33 21.61 63.46 21.16 64.03 20.94 C 63.62 19.39 63.21 17.84 62.80 16.30 C 66.95 17.80 69.67 21.28 71.04 25.37 C 71.10 24.53 71.22 22.86 71.27 22.02 C 72.76 23.46 74.24 25.08 76.36 25.54 C 74.98 23.61 73.37 21.85 71.71 20.17 C 74.80 20.30 79.44 20.24 79.11 15.91 C 78.75 16.40 78.02 17.38 77.66 17.87 C 77.22 17.69 76.33 17.32 75.89 17.14 C 75.42 17.39 74.47 17.88 74.00 18.13 C 73.58 17.63 72.73 16.64 72.30 16.15 C 71.45 16.60 70.64 17.11 69.87 17.69 C 65.23 15.93 59.97 13.92 55.12 16.18 M 79.82 17.91 C 79.58 22.42 84.83 22.42 87.64 24.34 C 87.83 25.80 87.90 27.27 87.85 28.75 C 89.36 27.32 90.21 25.03 88.97 23.15 C 86.87 21.05 83.73 20.78 81.01 19.98 C 81.66 19.12 82.32 18.26 82.96 17.39 C 81.92 17.56 80.87 17.74 79.82 17.91 M 45.07 23.84 C 47.51 22.23 46.68 19.38 45.96 17.08 C 43.38 18.60 44.32 21.55 45.07 23.84 M 37.66 27.62 C 39.68 27.70 41.71 27.71 43.73 27.66 C 41.87 25.95 39.46 25.71 37.66 27.62 M 57.88 28.04 C 60.22 30.06 63.33 29.35 66.17 29.46 C 57.82 30.61 49.34 33.29 43.07 39.16 C 36.55 45.04 33.14 53.52 31.58 62.00 C 31.30 46.64 43.89 32.44 58.88 29.97 C 58.14 29.42 57.40 28.87 56.66 28.31 C 47.85 30.69 39.78 36.10 34.89 43.89 C 29.73 51.75 30.11 61.66 25.77 69.90 C 30.31 69.53 34.71 68.17 38.68 65.95 C 38.95 60.84 39.59 55.70 41.67 50.97 C 41.05 56.04 40.33 61.11 40.68 66.24 C 44.51 68.30 48.73 69.51 53.05 70.02 C 51.12 65.62 49.05 60.86 50.11 55.95 C 50.88 49.60 54.14 43.06 60.19 40.29 C 68.51 36.28 78.29 38.99 85.51 44.06 C 85.53 39.26 85.52 34.46 85.51 29.67 C 76.54 27.20 67.07 26.36 57.88 28.04 M 22.06 37.62 C 19.22 38.97 16.94 42.33 18.61 45.45 C 20.08 48.47 24.00 47.17 26.67 47.61 C 25.47 44.78 22.19 45.20 19.69 44.75 C 18.85 42.14 20.50 40.01 22.10 38.13 C 23.48 39.70 24.51 42.42 27.04 42.20 C 29.09 41.12 30.96 39.67 33.26 39.14 C 32.52 38.62 31.78 38.12 31.02 37.64 C 28.55 38.24 26.13 41.83 23.85 38.94 C 21.86 35.11 26.49 32.11 29.90 32.47 C 30.11 35.22 32.27 35.62 34.53 35.41 C 35.24 36.44 35.92 37.51 36.95 38.26 C 36.37 34.46 33.16 30.91 29.07 31.49 C 25.46 31.50 22.79 34.24 22.06 37.62 M 41.03 31.23 C 39.78 32.71 42.55 33.64 43.35 32.42 C 44.59 30.96 41.82 30.04 41.03 31.23 M 87.99 32.05 C 87.03 33.16 87.52 35.35 88.94 35.83 C 90.84 35.48 89.86 31.34 87.99 32.05 M 87.12 41.80 C 88.85 39.73 90.89 36.92 94.01 38.36 C 97.03 39.24 96.92 42.50 96.58 45.02 C 98.55 42.82 99.72 39.21 97.03 37.03 C 93.42 33.45 87.26 37.18 87.12 41.80 M 61.88 40.96 C 62.35 42.71 63.11 44.37 64.01 45.94 C 62.00 45.24 59.70 43.53 57.51 44.66 C 55.86 46.04 53.41 48.50 55.34 50.65 C 56.68 52.81 59.32 52.45 61.06 51.02 C 58.65 50.78 56.31 50.12 55.03 47.88 C 56.34 46.60 57.87 44.74 59.97 45.50 C 62.89 46.25 63.61 49.39 64.29 51.89 C 63.70 52.18 62.51 52.74 61.91 53.02 C 61.64 54.40 61.37 55.78 61.11 57.17 C 62.44 56.02 63.74 54.84 65.04 53.65 C 68.68 55.96 73.73 57.71 77.40 54.44 C 78.71 56.48 80.68 57.76 83.14 57.81 C 81.86 56.19 80.53 54.61 79.24 53.02 C 82.68 53.50 85.05 50.78 86.25 47.93 C 90.05 51.12 88.47 56.15 88.20 60.37 C 89.26 60.40 90.32 60.42 91.38 60.45 C 91.21 58.61 91.82 56.89 92.84 55.38 C 92.06 55.42 90.50 55.50 89.73 55.54 C 91.20 53.97 94.13 52.08 96.08 53.93 C 98.11 56.11 94.79 58.12 93.85 60.00 C 96.39 59.58 98.71 57.80 98.19 54.93 C 96.70 51.20 92.36 52.81 89.35 52.65 C 90.26 51.05 92.32 50.63 93.16 49.04 C 93.14 48.05 93.10 46.08 93.08 45.09 C 91.32 46.45 90.71 48.78 89.01 50.14 C 88.24 49.19 87.47 48.23 86.71 47.27 C 84.28 47.48 81.35 46.63 79.39 48.49 C 77.75 49.74 77.71 51.95 77.28 53.79 C 76.49 53.92 74.90 54.18 74.10 54.31 C 73.40 53.47 72.70 52.63 72.00 51.79 C 71.57 52.05 70.71 52.58 70.28 52.84 C 69.63 51.02 68.72 49.31 67.52 47.80 C 67.45 49.55 67.39 51.31 67.36 53.07 C 66.28 51.53 64.47 50.08 64.71 47.98 C 64.68 45.05 68.19 42.63 70.88 44.16 C 73.40 45.08 73.90 47.94 74.72 50.14 C 77.26 46.99 74.51 42.87 70.94 42.29 C 68.35 41.53 66.31 43.61 64.44 45.01 C 64.61 42.97 64.22 41.14 61.88 40.96 M 99.61 44.54 C 96.42 49.23 99.71 55.09 98.58 60.27 C 101.83 58.37 99.60 54.70 99.40 51.91 C 100.32 51.30 101.24 50.69 102.16 50.07 C 101.48 49.46 100.80 48.84 100.12 48.22 C 100.90 47.06 101.51 45.81 101.90 44.47 C 102.44 44.43 103.52 44.34 104.05 44.30 C 102.63 43.66 100.72 42.87 99.61 44.54 M 29.49 51.15 C 29.40 49.79 29.29 48.43 29.17 47.08 C 30.27 46.04 31.36 44.99 32.41 43.89 C 28.43 43.55 26.67 48.68 29.49 51.15 M 16.41 50.63 C 18.41 51.15 20.30 52.01 21.78 53.49 C 20.60 55.40 21.42 57.26 22.19 59.09 C 21.26 61.29 18.84 62.10 16.97 63.30 C 16.75 62.11 16.48 60.94 16.15 59.78 C 15.07 58.69 13.90 59.82 12.83 60.27 C 13.66 60.77 15.33 61.78 16.16 62.28 C 15.35 62.45 13.72 62.80 12.91 62.98 C 14.97 66.40 11.11 70.24 13.53 73.63 C 16.25 78.64 22.67 78.42 27.58 78.90 C 27.78 82.69 29.76 86.62 33.87 87.21 C 32.39 83.71 28.08 81.72 28.73 77.48 C 27.14 76.30 25.56 75.03 23.64 74.44 C 23.26 73.99 22.50 73.09 22.12 72.64 C 22.23 73.76 22.46 76.00 22.57 77.11 C 19.14 76.19 14.93 74.88 13.92 70.97 C 12.91 68.52 15.02 63.35 18.04 66.06 C 18.89 65.44 19.72 64.80 20.62 64.24 C 21.31 65.29 21.93 66.38 22.48 67.52 C 23.43 66.34 24.37 65.16 25.34 64.00 C 25.37 60.32 25.92 56.70 28.32 53.77 C 24.47 55.21 23.83 59.54 25.22 63.00 C 23.88 62.77 22.54 62.54 21.19 62.32 C 22.39 60.04 24.68 57.45 23.32 54.73 C 21.21 51.72 19.24 48.61 17.13 45.59 C 16.82 47.26 16.62 48.94 16.41 50.63 M 21.83 49.32 C 23.18 51.59 25.51 52.67 28.08 52.88 C 27.80 49.65 24.48 49.08 21.83 49.32 M 13.44 56.68 C 15.20 57.83 17.16 58.65 19.01 59.65 C 20.08 56.41 16.75 56.14 14.48 55.48 C 14.23 54.64 13.73 52.94 13.48 52.09 C 12.96 53.49 11.93 55.50 13.44 56.68 M 102.02 56.92 C 103.79 56.10 105.48 55.13 107.13 54.10 C 104.89 54.11 102.59 54.39 102.02 56.92 M 67.83 61.65 C 67.47 59.98 67.07 58.32 66.65 56.66 C 63.56 57.96 65.94 60.57 67.83 61.65 M 52.26 60.94 C 54.77 60.35 57.32 59.87 59.91 59.75 C 59.79 60.24 59.57 61.21 59.46 61.69 C 60.09 62.30 60.72 62.91 61.35 63.52 C 62.01 63.55 63.34 63.61 64.01 63.64 C 64.61 67.84 62.59 71.47 59.47 74.08 C 59.51 72.46 59.01 71.10 57.96 69.99 C 57.88 71.75 57.24 73.26 55.64 74.06 C 54.77 73.26 53.89 72.47 53.00 71.70 C 52.75 74.12 54.57 75.74 56.03 77.35 C 61.63 75.73 66.51 70.18 64.99 64.09 C 63.78 58.53 56.06 57.51 52.26 60.94 M 69.52 62.60 C 70.88 64.56 72.78 66.47 72.77 69.02 C 72.94 75.69 72.85 82.38 72.77 89.05 C 68.01 89.47 62.80 89.21 58.80 86.28 C 53.92 82.89 51.64 77.03 50.36 71.45 C 49.63 71.35 48.19 71.14 47.47 71.03 C 47.94 76.18 50.26 80.82 52.58 85.34 C 48.31 81.51 46.48 75.93 45.38 70.47 C 44.83 70.10 43.73 69.37 43.19 69.00 C 42.94 74.47 45.73 79.29 47.91 84.09 C 43.48 79.94 41.97 73.92 40.70 68.23 C 40.57 66.55 37.86 67.37 37.66 68.68 C 37.80 74.50 40.59 79.69 42.87 84.89 C 38.50 80.50 36.76 74.52 35.22 68.71 C 34.87 69.26 34.19 70.36 33.84 70.91 C 34.02 76.36 36.65 81.24 38.94 86.05 C 34.77 82.27 32.87 76.82 31.88 71.44 C 31.40 71.26 30.45 70.91 29.98 70.74 C 30.50 81.78 38.37 91.26 48.07 95.92 C 61.55 102.54 77.51 101.15 91.34 96.35 C 91.28 85.11 91.34 73.87 91.31 62.63 C 84.05 62.59 76.79 62.63 69.52 62.60 M 120.34 65.29 C 121.17 64.44 121.17 63.61 120.32 62.79 C 117.90 62.09 117.90 66.09 120.34 65.29 M 53.69 67.89 C 55.55 69.08 57.40 68.06 59.13 67.22 C 59.70 67.36 60.84 67.65 61.40 67.79 C 60.87 66.94 60.30 66.12 59.68 65.33 C 57.39 64.97 55.53 66.82 53.69 67.89 M 16.07 68.16 C 14.96 69.57 16.77 70.87 17.39 72.04 C 17.73 71.36 18.40 69.99 18.74 69.31 C 19.76 70.16 20.75 71.04 21.84 71.80 C 24.26 69.30 17.78 64.10 16.07 68.16 M 66.39 73.26 C 68.17 72.03 68.76 70.03 68.95 67.97 C 65.82 67.65 66.25 71.22 66.39 73.26 M 61.32 76.20 C 59.34 77.80 58.47 80.33 57.17 82.45 C 60.24 81.83 63.00 82.98 64.28 85.89 C 66.36 85.54 68.45 85.17 70.52 84.71 C 70.60 84.12 70.78 82.93 70.86 82.33 C 69.27 83.71 67.16 85.93 65.01 84.08 C 63.49 82.09 64.95 79.49 64.95 77.29 C 62.78 77.38 63.58 78.99 63.96 80.28 C 62.74 81.83 60.99 81.31 59.34 80.87 C 60.24 79.35 60.98 77.58 62.56 76.62 C 64.87 74.84 67.79 76.35 70.33 76.67 C 67.74 74.82 64.06 74.55 61.32 76.20 M 16.85 78.87 C 17.47 80.91 18.70 82.62 20.58 83.69 C 20.93 81.16 19.53 78.90 16.85 78.87 M 63.25 102.22 C 62.61 103.72 62.03 107.88 64.76 106.70 C 65.41 105.19 65.72 101.77 63.25 102.22 Z" />
<path fill="#1e2f42" opacity="1.00" d=" M 75.61 7.07 C 76.20 7.13 77.37 7.26 77.96 7.33 C 77.14 8.76 76.45 10.27 76.54 11.96 C 76.21 11.96 75.54 11.94 75.21 11.93 C 75.41 10.32 75.57 8.70 75.61 7.07 Z" />
<path fill="#1e2f42" opacity="1.00" d=" M 45.14 8.33 C 45.72 8.25 46.88 8.10 47.46 8.02 C 47.26 9.71 47.93 11.22 48.71 12.66 C 48.21 12.71 47.21 12.81 46.71 12.86 C 46.75 11.18 45.95 9.73 45.14 8.33 Z" />
<path fill="#1e2f42" opacity="1.00" d=" M 79.42 7.63 C 83.75 9.22 88.12 10.76 92.09 13.17 C 90.85 14.22 90.11 15.62 89.82 17.21 C 86.24 16.62 90.95 14.08 89.85 12.03 C 87.32 11.72 86.39 13.68 86.59 15.81 C 86.20 15.61 85.42 15.22 85.03 15.02 C 85.69 13.77 87.24 12.50 85.84 11.16 C 83.73 9.39 83.69 12.80 83.49 14.16 C 82.99 13.99 82.00 13.66 81.51 13.49 C 81.98 12.23 84.89 9.94 81.97 9.78 C 80.27 9.91 79.71 10.93 80.28 12.84 C 79.76 12.82 78.72 12.77 78.20 12.74 C 78.98 11.13 79.52 9.45 79.42 7.63 Z" />
<path fill="#1e2f42" opacity="1.00" d=" M 38.38 11.44 C 38.97 10.93 39.62 10.48 40.25 10.01 C 40.32 12.05 42.31 14.12 40.86 16.03 C 40.04 14.49 39.18 12.98 38.38 11.44 Z" />
<path fill="#1e2f42" opacity="1.00" d=" M 34.37 13.35 C 35.28 12.85 36.18 12.35 37.09 11.85 C 37.16 12.55 37.30 13.94 37.37 14.63 C 38.99 15.72 38.97 16.74 37.04 17.47 C 36.70 15.75 36.22 14.05 34.37 13.35 Z" />
<path fill="#1e2f42" opacity="1.00" d=" M 31.02 15.41 C 31.78 14.90 32.55 14.39 33.31 13.88 C 33.21 16.06 37.47 18.18 33.78 19.37 C 33.71 18.70 33.55 17.35 33.47 16.68 C 32.86 16.36 31.63 15.73 31.02 15.41 Z" />
<path fill="#1e2f42" opacity="1.00" d=" M 93.89 13.43 C 95.82 15.32 93.41 17.34 92.80 19.26 C 89.57 18.01 93.90 15.42 93.89 13.43 Z" />
<path fill="#1e2f42" opacity="1.00" d=" M 27.95 17.39 C 28.72 16.91 29.50 16.44 30.27 15.97 C 30.29 17.75 31.45 18.90 32.80 19.84 C 32.13 20.28 31.46 20.72 30.79 21.16 C 30.73 20.55 30.61 19.34 30.54 18.73 C 29.89 18.40 28.60 17.72 27.95 17.39 Z" />
<path fill="#1e2f42" opacity="1.00" d=" M 96.79 15.94 C 97.42 16.35 98.05 16.76 98.68 17.19 C 97.48 18.42 96.34 19.71 95.67 21.31 C 92.71 19.81 96.77 17.96 96.79 15.94 Z" />
<path fill="#1e2f42" opacity="1.00" d=" M 22.84 18.91 C 22.55 17.27 23.22 16.59 24.86 16.89 C 24.65 17.96 23.98 18.63 22.84 18.91 Z" />
<path fill="#1e2f42" opacity="1.00" d=" M 25.11 19.90 C 25.78 19.27 26.45 18.65 27.12 18.02 C 27.12 20.14 31.38 21.68 28.39 23.36 C 27.80 21.75 26.92 20.30 25.11 19.90 Z" />
<path fill="#1e2f42" opacity="1.00" d=" M 99.73 18.85 C 103.02 19.17 98.02 21.87 99.73 18.85 Z" />
<path fill="#1e2f42" opacity="1.00" d=" M 20.29 21.29 C 20.01 19.60 20.72 18.97 22.42 19.42 C 22.01 20.45 21.30 21.08 20.29 21.29 Z" />
<path fill="#1e2f42" opacity="1.00" d=" M 21.97 22.42 C 22.72 21.87 23.46 21.32 24.21 20.77 C 24.62 22.27 25.53 23.34 26.94 23.97 C 26.51 24.65 26.09 25.33 25.66 26.01 C 25.40 25.37 24.87 24.09 24.60 23.46 C 23.94 23.20 22.63 22.68 21.97 22.42 Z" />
<path fill="#1e2f42" opacity="1.00" d=" M 98.29 23.25 C 96.86 22.41 96.88 21.59 98.36 20.78 C 99.81 21.60 99.79 22.42 98.29 23.25 Z" />
<path fill="#1e2f42" opacity="1.00" d=" M 102.69 20.69 C 103.20 21.03 104.22 21.72 104.73 22.06 C 103.01 22.97 101.65 24.33 100.69 26.03 C 99.28 23.77 102.21 22.66 102.69 20.69 Z" />
<path fill="#1e2f42" opacity="1.00" d=" M 17.05 24.72 C 15.84 23.47 18.04 21.35 19.33 22.35 C 19.24 23.58 17.98 24.16 17.05 24.72 Z" />
<path fill="#1e2f42" opacity="1.00" d=" M 107.80 22.01 C 110.52 23.17 111.99 25.90 113.75 28.11 C 124.93 43.35 128.38 63.93 122.55 81.94 C 121.22 85.31 120.59 89.31 117.76 91.82 C 119.86 86.29 122.36 80.85 123.31 74.97 C 126.39 59.33 122.71 42.53 113.53 29.52 C 111.72 26.94 109.59 24.60 107.80 22.01 Z" />
<path fill="#1e2f42" opacity="1.00" d=" M 105.43 23.31 C 107.28 24.59 108.51 26.51 109.90 28.23 C 108.14 28.46 106.68 29.23 106.05 30.98 C 105.54 30.44 105.04 29.90 104.53 29.37 C 105.38 28.83 107.08 27.76 107.92 27.22 C 107.15 26.58 106.37 25.95 105.58 25.33 C 105.14 26.03 104.26 27.44 103.82 28.15 C 103.20 27.63 102.58 27.11 101.97 26.59 C 102.55 26.32 103.72 25.79 104.31 25.52 C 104.59 24.97 105.15 23.86 105.43 23.31 Z" />
<path fill="#1e2f42" opacity="1.00" d=" M 19.93 25.24 C 20.22 24.64 20.82 23.44 21.12 22.84 C 21.44 23.52 22.09 24.87 22.42 25.55 C 23.08 25.88 24.40 26.54 25.06 26.86 C 24.53 27.12 23.48 27.62 22.95 27.87 C 22.41 26.47 21.40 25.59 19.93 25.24 Z" />
<path fill="#1e2f42" opacity="1.00" d=" M 11.73 30.72 C 13.19 28.93 14.01 26.09 16.47 25.49 C 13.81 29.55 10.80 33.42 8.80 37.88 C 3.93 47.74 2.32 58.90 2.91 69.81 L 4.60 69.56 C 4.45 68.13 4.33 66.70 4.22 65.28 C 5.85 65.27 7.48 65.25 9.11 65.21 C 9.30 65.54 9.70 66.21 9.89 66.54 C 8.94 66.51 7.04 66.44 6.09 66.41 C 6.05 67.47 6.07 68.54 6.16 69.60 C 7.28 69.16 8.40 68.70 9.51 68.24 C 9.68 69.96 9.84 71.70 10.04 73.42 C 8.47 73.81 6.91 74.23 5.36 74.66 C 5.28 74.12 5.11 73.03 5.03 72.49 C 6.40 72.48 7.77 72.48 9.14 72.37 C 8.83 69.09 5.31 70.51 3.07 70.24 C 4.45 81.91 9.44 92.77 16.39 102.15 C 12.69 99.60 10.86 95.27 8.66 91.51 C -1.33 72.62 -0.09 48.52 11.73 30.72 Z" />
<path fill="#1e2f42" opacity="1.00" d=" M 18.16 26.73 C 21.57 26.88 16.65 29.76 18.16 26.73 Z" />
<path fill="#1e2f42" opacity="1.00" d=" M 16.12 29.22 C 17.30 30.20 18.47 31.20 19.88 31.86 C 19.68 32.36 19.28 33.37 19.07 33.87 C 17.99 32.51 16.80 31.21 14.92 31.14 C 15.30 30.49 15.71 29.85 16.12 29.22 Z" />
<path fill="#1e2f42" opacity="1.00" d=" M 20.29 28.80 C 21.65 28.36 22.10 28.88 21.66 30.33 C 20.32 30.77 19.86 30.26 20.29 28.80 Z" />
<path fill="#1e2f42" opacity="1.00" d=" M 109.03 31.36 C 109.57 30.61 110.14 29.87 110.73 29.15 C 111.18 29.84 111.61 30.52 112.04 31.22 C 110.10 31.17 108.88 32.42 107.87 33.91 C 107.63 33.39 107.13 32.35 106.88 31.83 C 107.42 31.71 108.49 31.48 109.03 31.36 Z" />
<path fill="#1e2f42" opacity="1.00" d=" M 14.06 32.24 C 15.15 33.35 16.22 34.53 17.88 34.70 C 17.68 35.25 17.28 36.33 17.08 36.88 C 16.40 36.23 15.04 34.94 14.36 34.30 C 13.63 34.92 12.91 35.56 12.20 36.21 C 13.12 36.62 14.97 37.45 15.89 37.86 C 15.76 38.35 15.49 39.34 15.35 39.83 C 14.10 38.57 12.62 37.66 10.82 37.51 C 11.74 35.66 12.51 33.67 14.06 32.24 Z" />
<path fill="#1e2f42" opacity="1.00" d=" M 112.69 32.17 C 113.15 32.90 113.60 33.64 114.07 34.37 C 112.21 34.37 110.86 35.46 109.73 36.82 C 109.57 36.31 109.24 35.29 109.08 34.78 C 110.74 34.62 111.78 33.45 112.69 32.17 Z" />
<path fill="#1e2f42" opacity="1.00" d=" M 46.66 53.93 C 47.59 38.55 66.93 29.05 80.00 36.51 C 74.24 34.60 67.95 33.96 62.22 36.36 C 54.43 39.10 48.92 46.16 46.66 53.93 Z" />
<path fill="#1e2f42" opacity="1.00" d=" M 105.99 33.74 C 108.57 37.40 110.90 41.29 112.34 45.55 C 112.47 45.93 112.74 46.68 112.88 47.05 C 111.11 47.98 109.34 48.91 107.58 49.85 C 106.88 47.68 106.23 45.50 105.65 43.30 C 106.69 42.80 107.72 42.28 108.74 41.72 C 107.65 39.84 106.34 38.10 105.10 36.32 C 105.32 35.67 105.77 34.38 105.99 33.74 Z" />
<path fill="#1e2f42" opacity="1.00" d=" M 114.63 35.36 C 115.11 36.14 115.60 36.92 116.09 37.71 C 115.42 37.78 114.08 37.91 113.41 37.98 C 112.35 39.91 111.19 39.95 110.21 37.96 C 112.00 37.66 113.73 37.12 114.63 35.36 Z" />
<path fill="#1e2f42" opacity="1.00" d=" M 10.03 38.96 C 11.41 40.12 13.00 40.95 14.86 41.01 C 14.16 43.73 12.39 41.67 10.99 40.98 C 10.47 41.80 9.96 42.63 9.45 43.46 C 10.31 43.58 12.04 43.81 12.90 43.93 C 12.85 44.44 12.74 45.46 12.69 45.97 C 11.20 45.16 9.64 44.50 7.90 44.55 C 8.68 42.71 9.37 40.84 10.03 38.96 Z" />
<path fill="#1e2f42" opacity="1.00" d=" M 112.24 41.05 C 113.85 40.71 115.30 39.94 116.80 39.29 C 117.68 40.97 118.28 42.77 118.99 44.53 C 117.12 44.56 114.63 46.69 113.27 44.61 C 114.53 44.18 118.60 44.52 116.84 42.15 C 115.56 40.87 114.29 42.17 113.02 42.71 C 112.75 42.16 112.49 41.61 112.24 41.05 Z" />
<path fill="#1e2f42" opacity="1.00" d=" M 7.31 46.26 C 8.85 46.78 10.36 47.36 11.98 47.58 C 11.55 49.35 10.97 51.08 10.48 52.84 C 9.02 51.99 7.44 51.58 5.74 51.80 C 6.34 49.97 6.78 48.11 7.31 46.26 M 9.43 51.05 C 10.21 50.24 10.19 49.40 9.36 48.52 C 6.79 47.45 7.13 51.43 9.43 51.05 Z" />
<path fill="#1e2f42" opacity="1.00" d=" M 115.03 47.58 C 116.72 47.60 118.20 46.86 119.65 46.10 C 119.73 46.67 119.87 47.80 119.95 48.37 C 118.33 48.27 116.69 48.38 115.45 49.60 C 115.34 49.10 115.14 48.08 115.03 47.58 Z" />
<path fill="#1e2f42" opacity="1.00" d=" M 79.35 52.62 C 79.80 49.66 81.85 47.39 85.04 47.60 C 83.67 49.81 81.63 51.42 79.35 52.62 Z" />
<path fill="#1e2f42" opacity="1.00" d=" M 116.05 50.95 C 117.59 50.83 119.10 50.51 120.44 49.69 C 120.79 51.78 121.26 53.85 121.80 55.89 C 120.81 55.77 118.83 55.51 117.84 55.38 C 117.83 56.50 117.82 57.62 117.83 58.74 C 119.19 58.25 120.55 57.75 121.91 57.23 C 121.92 57.88 121.94 59.16 121.94 59.81 C 121.42 59.62 120.37 59.24 119.85 59.05 C 119.02 59.35 118.19 59.64 117.36 59.94 C 117.19 58.04 116.97 56.14 116.67 54.25 C 117.50 54.37 119.16 54.61 119.98 54.73 C 119.96 53.60 119.92 52.46 119.87 51.33 C 118.66 51.88 117.46 52.44 116.25 52.99 C 116.20 52.48 116.10 51.46 116.05 50.95 Z" />
<path fill="#1e2f42" opacity="1.00" d=" M 5.40 53.25 C 6.81 54.05 8.29 54.70 9.95 54.45 C 9.79 56.17 9.71 57.90 9.60 59.63 C 7.93 59.35 6.24 59.28 4.55 59.44 C 4.61 58.88 4.74 57.75 4.80 57.18 C 6.19 57.30 8.20 58.81 8.86 56.83 C 9.69 54.47 6.34 55.64 5.11 55.65 C 5.18 55.05 5.33 53.85 5.40 53.25 Z" />
<path fill="#1e2f42" opacity="1.00" d=" M 4.38 61.26 C 6.09 61.43 7.81 61.50 9.53 61.40 C 9.47 62.00 9.34 63.20 9.28 63.80 C 8.52 63.32 7.77 62.85 7.01 62.38 C 6.20 62.86 5.39 63.34 4.58 63.82 C 4.53 63.18 4.43 61.90 4.38 61.26 Z" />
<path fill="#1e2f42" opacity="1.00" d=" M 82.62 67.82 C 83.69 74.87 83.70 82.12 82.66 89.17 C 81.45 82.09 81.71 74.91 82.62 67.82 Z" />
<path fill="#1e2f42" opacity="1.00" d=" M 96.72 70.38 C 97.93 69.44 99.21 71.56 98.13 72.42 C 96.95 73.27 95.65 71.22 96.72 70.38 Z" />
<path fill="#1e2f42" opacity="1.00" d=" M 76.79 71.01 C 77.87 78.12 77.67 85.34 77.77 92.51 C 70.67 93.67 63.20 93.00 56.91 89.30 C 63.19 90.93 69.78 92.41 76.18 90.44 C 76.06 83.96 76.18 77.47 76.79 71.01 Z" />
<path fill="#1e2f42" opacity="1.00" d=" M 87.84 70.98 C 88.73 78.90 88.79 86.90 88.71 94.85 C 83.32 96.72 77.70 97.99 71.97 97.64 C 77.21 96.75 82.40 95.45 87.17 93.04 C 87.26 85.68 87.15 78.32 87.84 70.98 Z" />
<path fill="#1e2f42" opacity="1.00" d=" M 5.66 76.30 C 7.41 76.49 9.05 76.03 10.57 75.21 C 10.66 75.72 10.85 76.74 10.95 77.25 C 9.25 77.16 7.67 77.58 6.37 78.69 C 6.19 78.09 5.84 76.89 5.66 76.30 Z" />
<path fill="#1e2f42" opacity="1.00" d=" M 116.35 74.99 C 116.77 75.38 117.63 76.16 118.05 76.55 C 118.79 76.45 120.28 76.24 121.02 76.13 C 120.44 78.03 119.93 79.95 119.52 81.90 C 118.03 81.40 116.52 80.92 115.01 80.49 C 115.05 80.10 115.14 79.32 115.19 78.93 C 116.60 79.19 119.07 81.70 119.23 78.97 C 119.10 77.21 118.02 76.67 115.99 77.34 C 116.08 76.75 116.26 75.58 116.35 74.99 Z" />
<path fill="#1e2f42" opacity="1.00" d=" M 6.47 79.79 C 8.35 80.21 11.12 78.22 12.29 80.42 C 10.44 80.38 8.81 81.09 7.40 82.25 C 7.17 81.63 6.70 80.40 6.47 79.79 Z" />
<path fill="#1e2f42" opacity="1.00" d=" M 7.87 83.52 C 9.61 83.66 11.16 82.96 12.63 82.11 C 12.72 82.48 12.91 83.20 13.01 83.57 C 11.82 84.15 8.67 83.78 10.14 85.87 C 11.37 86.93 12.55 86.69 13.70 85.16 C 14.50 86.87 15.27 88.59 16.08 90.30 C 14.47 90.53 13.29 91.53 12.13 92.57 C 11.62 91.94 11.11 91.30 10.63 90.66 C 11.67 90.32 13.75 89.63 14.80 89.29 C 14.12 88.57 13.44 87.85 12.74 87.15 C 12.07 87.68 10.74 88.73 10.07 89.26 C 9.40 87.32 8.68 85.40 7.87 83.52 Z" />
<path fill="#1e2f42" opacity="1.00" d=" M 113.28 84.01 C 114.08 80.92 117.03 83.99 119.05 83.69 C 118.82 84.17 118.36 85.12 118.13 85.59 C 116.56 84.92 115.00 84.21 113.28 84.01 Z" />
<path fill="#1e2f42" opacity="1.00" d=" M 112.23 87.22 C 112.42 86.69 112.80 85.63 112.99 85.09 C 113.49 85.62 114.50 86.66 115.00 87.19 C 115.75 87.24 117.26 87.35 118.01 87.41 C 116.44 89.86 114.31 87.46 112.23 87.22 Z" />
<path fill="#1e2f42" opacity="1.00" d=" M 22.08 85.92 C 25.63 87.56 29.29 88.96 32.97 90.28 C 30.75 91.13 25.98 90.68 26.43 94.20 C 26.74 94.53 27.36 95.19 27.67 95.52 C 27.83 94.57 28.17 92.66 28.33 91.71 C 33.59 90.81 36.86 95.44 39.81 98.94 C 37.22 100.11 34.45 100.79 31.60 100.75 C 31.83 99.02 32.06 97.28 32.27 95.55 C 32.76 95.49 33.73 95.38 34.22 95.32 C 31.89 92.16 27.55 96.15 28.32 99.26 C 24.02 96.08 23.48 90.65 22.08 85.92 Z" />
<path fill="#1e2f42" opacity="1.00" d=" M 110.11 90.34 C 111.54 86.88 113.63 91.07 115.93 90.59 C 115.53 91.38 115.14 92.16 114.75 92.95 C 114.17 92.20 113.59 91.46 113.02 90.71 C 112.29 90.62 110.83 90.43 110.11 90.34 Z" />
<path fill="#1e2f42" opacity="1.00" d=" M 18.16 90.57 C 18.73 90.40 19.87 90.04 20.45 89.86 C 23.28 94.03 24.92 99.97 30.23 101.61 C 33.69 102.85 37.17 101.19 40.31 99.85 C 41.28 101.18 42.25 102.50 43.24 103.82 C 39.60 103.20 35.38 103.14 33.40 106.86 C 27.30 102.50 22.09 96.96 18.16 90.57 Z" />
<path fill="#1e2f42" opacity="1.00" d=" M 95.37 89.98 C 96.54 89.09 97.23 89.34 97.42 90.73 C 96.24 91.61 95.55 91.36 95.37 89.98 Z" />
<path fill="#1e2f42" opacity="1.00" d=" M 12.38 94.04 C 14.33 93.87 16.52 91.16 18.27 93.07 C 16.68 93.57 15.38 94.56 14.14 95.61 C 13.70 95.21 12.82 94.43 12.38 94.04 Z" />
<path fill="#1e2f42" opacity="1.00" d=" M 108.99 93.30 C 109.18 92.82 109.56 91.86 109.74 91.38 C 110.86 92.77 112.20 93.88 114.10 93.79 C 113.62 94.41 113.39 95.30 112.62 95.63 C 111.47 94.76 110.30 93.91 108.99 93.30 Z" />
<path fill="#1e2f42" opacity="1.00" d=" M 104.11 109.18 C 109.18 103.96 113.67 98.26 117.63 92.14 C 116.72 96.37 113.58 99.62 111.04 102.96 C 108.90 105.15 107.06 108.13 104.11 109.18 Z" />
<path fill="#1e2f42" opacity="1.00" d=" M 18.55 95.55 C 19.12 96.13 19.12 96.13 18.55 95.55 Z" />
<path fill="#1e2f42" opacity="1.00" d=" M 106.47 96.11 C 108.15 94.10 109.97 96.88 111.85 97.05 C 111.35 97.77 110.84 98.49 110.34 99.21 C 109.52 97.65 108.22 96.54 106.47 96.11 Z" />
<path fill="#1e2f42" opacity="1.00" d=" M 15.53 98.29 C 15.14 96.87 15.65 96.39 17.06 96.85 C 17.42 98.27 16.91 98.75 15.53 98.29 Z" />
<path fill="#1e2f42" opacity="1.00" d=" M 20.79 97.18 C 21.32 97.84 21.84 98.51 22.37 99.19 C 21.71 99.32 20.40 99.58 19.74 99.71 C 19.55 100.36 19.19 101.65 19.01 102.30 C 18.33 101.51 17.65 100.73 16.97 99.94 C 18.78 99.83 19.91 98.62 20.79 97.18 Z" />
<path fill="#1e2f42" opacity="1.00" d=" M 104.91 99.19 C 105.11 98.69 105.53 97.70 105.74 97.21 C 106.51 98.93 107.82 100.06 109.78 100.09 C 108.43 101.78 107.02 103.43 105.38 104.84 C 105.11 104.26 104.58 103.10 104.31 102.52 C 103.73 102.33 102.56 101.94 101.98 101.75 C 102.55 101.18 103.11 100.61 103.68 100.04 C 104.19 100.76 105.22 102.20 105.73 102.91 C 106.41 102.16 107.08 101.40 107.74 100.63 C 107.03 100.27 105.61 99.55 104.91 99.19 Z" />
<path fill="#1e2f42" opacity="1.00" d=" M 23.00 100.16 C 23.65 100.60 24.30 101.03 24.95 101.48 C 24.33 101.76 23.08 102.31 22.46 102.58 C 22.16 103.25 21.56 104.57 21.26 105.24 C 20.86 104.57 20.47 103.88 20.12 103.19 C 21.10 102.20 22.13 101.25 23.00 100.16 Z" />
<path fill="#1e2f42" opacity="1.00" d=" M 16.92 102.94 C 18.57 103.54 19.90 104.87 20.47 106.53 C 18.72 107.01 16.56 104.63 16.92 102.94 Z" />
<path fill="#1e2f42" opacity="1.00" d=" M 22.01 106.07 C 23.66 105.66 25.60 101.71 27.17 104.06 C 25.60 104.54 24.61 105.58 24.22 107.15 C 23.67 106.88 22.56 106.34 22.01 106.07 Z" />
<path fill="#1e2f42" opacity="1.00" d=" M 27.88 104.79 C 28.53 105.26 29.18 105.72 29.84 106.19 C 28.41 107.08 27.17 108.18 27.04 109.98 C 26.30 109.35 25.57 108.73 24.84 108.10 C 25.49 107.91 26.80 107.52 27.45 107.33 C 27.56 106.69 27.77 105.43 27.88 104.79 Z" />
<path fill="#1e2f42" opacity="1.00" d=" M 45.52 105.76 C 46.91 104.89 48.54 104.68 50.12 104.39 C 51.11 107.19 52.32 109.90 53.62 112.57 C 50.40 110.96 48.11 108.16 45.52 105.76 Z" />
<path fill="#1e2f42" opacity="1.00" d=" M 76.75 104.42 C 78.47 104.54 80.19 104.64 81.91 104.73 C 79.73 108.26 77.27 111.97 73.02 113.19 C 74.55 110.40 75.86 107.49 76.75 104.42 Z" />
<path fill="#1e2f42" opacity="1.00" d=" M 96.97 106.35 C 97.50 105.84 98.04 105.34 98.57 104.84 C 98.80 105.48 99.26 106.75 99.49 107.39 C 100.08 107.62 101.27 108.08 101.87 108.31 C 101.15 108.91 100.42 109.52 99.70 110.13 C 99.27 108.54 98.35 107.25 96.97 106.35 Z" />
<path fill="#1e2f42" opacity="1.00" d=" M 20.59 106.80 C 25.06 110.41 29.73 113.74 34.41 117.07 C 29.06 115.02 23.93 111.49 20.59 106.80 Z" />
<path fill="#1e2f42" opacity="1.00" d=" M 30.88 107.02 C 31.50 107.45 32.12 107.89 32.74 108.32 C 31.38 109.21 30.31 110.36 30.19 112.07 C 29.46 111.63 28.74 111.21 28.01 110.77 C 29.41 109.87 30.59 108.73 30.88 107.02 Z" />
<path fill="#1e2f42" opacity="1.00" d=" M 96.88 112.42 C 96.80 110.42 93.12 108.73 95.30 106.99 C 95.89 108.77 99.17 110.68 96.88 112.42 Z" />
<path fill="#1e2f42" opacity="1.00" d=" M 33.82 109.03 C 34.46 109.44 35.10 109.85 35.74 110.26 C 34.48 111.25 33.52 112.48 33.37 114.13 C 32.78 113.88 31.60 113.36 31.01 113.10 C 32.40 112.06 33.73 110.91 33.82 109.03 Z" />
<path fill="#1e2f42" opacity="1.00" d=" M 90.95 109.74 C 93.61 108.40 93.51 112.47 95.71 113.10 C 95.19 113.40 94.14 113.98 93.62 114.28 C 93.03 112.60 92.11 111.08 90.95 109.74 Z" />
<path fill="#1e2f42" opacity="1.00" d=" M 93.31 116.35 C 96.90 114.43 99.98 111.71 103.60 109.84 C 103.80 109.97 104.20 110.23 104.40 110.36 C 99.83 113.08 95.72 116.54 90.84 118.72 C 78.93 124.71 65.09 126.13 52.04 123.89 C 48.39 123.09 44.55 122.46 41.39 120.32 C 46.85 121.47 52.16 123.32 57.76 123.86 C 57.34 122.94 56.92 122.02 56.50 121.11 C 56.99 119.55 57.48 117.99 58.00 116.45 C 58.56 119.06 58.70 121.75 58.85 124.41 C 62.03 124.19 65.22 124.18 68.41 124.11 C 68.27 122.12 68.21 120.14 68.08 118.15 C 67.32 118.48 65.81 119.13 65.06 119.45 C 65.50 120.16 66.40 121.57 66.84 122.27 L 64.47 122.81 C 64.47 121.14 64.45 119.47 64.39 117.80 C 66.09 117.73 67.77 117.53 69.47 117.35 C 69.78 118.58 68.59 121.84 70.84 120.87 C 72.09 120.01 71.42 118.45 71.47 117.19 C 73.23 116.82 74.98 116.41 76.75 116.05 C 76.70 116.72 76.61 118.05 76.56 118.72 C 76.94 119.23 77.70 120.26 78.08 120.77 C 77.49 120.86 76.29 121.02 75.70 121.11 C 75.66 120.31 75.59 118.73 75.56 117.94 C 74.54 117.91 73.54 117.98 72.54 118.15 C 72.98 119.29 73.43 120.43 73.90 121.57 C 73.16 121.64 71.67 121.79 70.93 121.86 C 70.54 122.42 70.33 123.06 70.30 123.77 C 78.33 122.68 86.23 120.34 93.31 116.35 Z" />
<path fill="#1e2f42" opacity="1.00" d=" M 36.93 111.05 C 37.36 111.20 38.21 111.51 38.64 111.66 C 37.74 113.25 36.86 114.85 36.19 116.56 C 34.22 114.86 36.59 112.94 36.93 111.05 Z" />
<path fill="#1e2f42" opacity="1.00" d=" M 89.56 113.82 C 88.42 112.66 87.55 111.39 89.71 110.88 C 90.18 112.98 93.43 115.52 89.81 116.65 C 89.75 115.94 89.62 114.53 89.56 113.82 Z" />
<path fill="#1e2f42" opacity="1.00" d=" M 40.02 112.27 C 43.56 112.86 39.04 115.22 41.12 116.86 C 43.35 118.56 42.88 114.62 43.71 113.52 C 45.63 115.03 43.66 117.34 43.56 119.21 C 41.76 118.37 39.90 117.65 38.03 116.98 C 39.23 115.66 40.03 114.10 40.02 112.27 Z" />
<path fill="#1e2f42" opacity="1.00" d=" M 86.52 117.90 C 86.42 116.04 84.20 113.57 86.35 112.24 C 86.45 114.16 87.52 115.64 88.83 116.93 C 88.06 117.25 87.29 117.57 86.52 117.90 Z" />
<path fill="#1e2f42" opacity="1.00" d=" M 81.32 114.62 C 81.82 114.48 82.82 114.22 83.32 114.09 C 83.35 115.72 84.10 117.14 84.92 118.51 C 83.04 119.02 81.18 119.64 79.37 120.35 C 79.42 118.61 79.04 116.98 78.23 115.44 L 80.15 115.24 C 78.54 117.50 83.66 121.36 82.81 117.21 C 82.44 116.56 81.69 115.27 81.32 114.62 Z" />
<path fill="#1e2f42" opacity="1.00" d=" M 46.67 115.15 C 47.18 115.26 48.22 115.48 48.73 115.59 C 47.76 117.09 47.33 118.77 47.37 120.56 C 46.83 120.37 45.75 120.00 45.21 119.81 C 45.96 118.34 46.63 116.82 46.67 115.15 Z" />
<path fill="#1e2f42" opacity="1.00" d=" M 50.46 116.07 C 50.79 116.12 51.44 116.23 51.77 116.29 C 51.37 117.99 51.14 119.72 51.24 121.47 C 50.71 121.32 49.65 121.01 49.11 120.85 C 49.70 119.30 50.15 117.70 50.46 116.07 Z" />
<path fill="#1e2f42" opacity="1.00" d=" M 53.59 117.01 C 54.16 117.07 55.30 117.21 55.87 117.28 C 55.48 117.71 54.71 118.56 54.33 118.99 C 54.47 119.73 54.77 121.20 54.92 121.94 C 54.30 121.83 53.05 121.61 52.42 121.50 C 53.42 120.15 53.81 118.65 53.59 117.01 Z" />
<path fill="#1e2f42" opacity="1.00" d=" M 60.14 117.66 C 60.80 117.65 62.13 117.63 62.79 117.62 C 62.54 118.43 62.29 119.24 62.03 120.05 C 62.31 120.89 62.58 121.72 62.86 122.56 C 62.13 122.53 60.67 122.47 59.94 122.44 C 60.44 121.62 60.95 120.79 61.46 119.98 C 61.01 119.20 60.57 118.43 60.14 117.66 Z" />
<path fill="#1e2f42" opacity="1.00" d=" M 36.33 117.67 C 37.79 117.83 39.17 118.52 40.17 119.59 C 38.92 120.57 35.72 119.47 36.33 117.67 Z" />
</g>
<g id="#ffffffff">
<path fill="#ffffff" opacity="1.00" d=" M 32.98 11.85 C 48.37 2.81 67.77 1.09 84.51 7.29 C 93.27 10.24 100.74 15.82 107.62 21.83 L 107.76 21.93 L 107.80 22.01 C 109.59 24.60 111.72 26.94 113.53 29.52 C 122.71 42.53 126.39 59.33 123.31 74.97 C 122.36 80.85 119.86 86.29 117.76 91.82 C 117.73 91.90 117.66 92.06 117.63 92.14 C 113.67 98.26 109.18 103.96 104.11 109.18 L 103.60 109.84 C 99.98 111.71 96.90 114.43 93.31 116.35 C 86.23 120.34 78.33 122.68 70.30 123.77 C 70.33 123.06 70.54 122.42 70.93 121.86 C 71.67 121.79 73.16 121.64 73.90 121.57 C 73.43 120.43 72.98 119.29 72.54 118.15 C 73.54 117.98 74.54 117.91 75.56 117.94 C 75.59 118.73 75.66 120.31 75.70 121.11 C 76.29 121.02 77.49 120.86 78.08 120.77 C 77.70 120.26 76.94 119.23 76.56 118.72 C 76.61 118.05 76.70 116.72 76.75 116.05 C 74.98 116.41 73.23 116.82 71.47 117.19 C 71.42 118.45 72.09 120.01 70.84 120.87 C 68.59 121.84 69.78 118.58 69.47 117.35 C 67.77 117.53 66.09 117.73 64.39 117.80 C 64.45 119.47 64.47 121.14 64.47 122.81 L 66.84 122.27 C 66.40 121.57 65.50 120.16 65.06 119.45 C 65.81 119.13 67.32 118.48 68.08 118.15 C 68.21 120.14 68.27 122.12 68.41 124.11 C 65.22 124.18 62.03 124.19 58.85 124.41 C 58.70 121.75 58.56 119.06 58.00 116.45 C 57.48 117.99 56.99 119.55 56.50 121.11 C 56.92 122.02 57.34 122.94 57.76 123.86 C 52.16 123.32 46.85 121.47 41.39 120.32 L 40.82 120.21 L 40.17 119.59 C 39.17 118.52 37.79 117.83 36.33 117.67 C 35.97 117.61 35.24 117.50 34.88 117.44 L 34.41 117.07 C 29.73 113.74 25.06 110.41 20.59 106.80 L 20.47 106.53 C 19.90 104.87 18.57 103.54 16.92 102.94 C 16.79 102.74 16.52 102.35 16.39 102.15 C 9.44 92.77 4.45 81.91 3.07 70.24 C 5.31 70.51 8.83 69.09 9.14 72.37 C 7.77 72.48 6.40 72.48 5.03 72.49 C 5.11 73.03 5.28 74.12 5.36 74.66 C 6.91 74.23 8.47 73.81 10.04 73.42 C 9.84 71.70 9.68 69.96 9.51 68.24 C 8.40 68.70 7.28 69.16 6.16 69.60 C 6.07 68.54 6.05 67.47 6.09 66.41 C 7.04 66.44 8.94 66.51 9.89 66.54 C 9.70 66.21 9.30 65.54 9.11 65.21 C 7.48 65.25 5.85 65.27 4.22 65.28 C 4.33 66.70 4.45 68.13 4.60 69.56 L 2.91 69.81 C 2.32 58.90 3.93 47.74 8.80 37.88 C 10.80 33.42 13.81 29.55 16.47 25.49 L 17.05 24.72 C 17.98 24.16 19.24 23.58 19.33 22.35 L 19.53 21.44 L 20.29 21.29 C 21.30 21.08 22.01 20.45 22.42 19.42 L 22.84 18.91 C 23.98 18.63 24.65 17.96 24.86 16.89 C 25.14 16.72 25.70 16.39 25.99 16.22 C 28.38 14.86 30.61 13.24 32.98 11.85 M 60.00 5.70 C 60.51 6.51 61.03 7.32 61.55 8.12 C 61.09 8.90 60.64 9.67 60.18 10.45 C 60.83 10.48 62.14 10.53 62.79 10.55 C 62.54 9.71 62.29 8.87 62.04 8.04 C 62.31 7.21 62.58 6.39 62.85 5.57 C 62.13 5.60 60.71 5.67 60.00 5.70 M 64.30 5.50 C 64.48 7.21 64.51 8.93 64.37 10.64 C 66.21 10.70 68.04 10.72 69.88 10.77 C 69.75 10.08 69.50 8.71 69.37 8.02 C 69.76 7.60 70.52 6.78 70.90 6.36 C 70.24 6.18 68.91 5.82 68.25 5.64 C 68.28 6.85 68.33 9.27 68.36 10.48 C 67.32 9.79 66.29 9.08 65.27 8.37 C 65.82 7.49 66.37 6.61 66.91 5.73 C 66.26 5.67 64.96 5.56 64.30 5.50 M 52.49 6.54 C 53.52 7.98 53.87 9.67 53.68 11.42 C 54.20 11.34 55.25 11.19 55.77 11.11 C 55.29 9.79 54.82 8.46 54.37 7.13 C 55.45 7.10 56.53 7.08 57.62 7.07 C 57.52 8.02 57.34 9.90 57.24 10.84 C 57.60 10.85 58.32 10.87 58.68 10.88 C 58.57 9.18 58.56 7.48 58.70 5.79 C 56.65 6.15 54.56 6.34 52.49 6.54 M 72.48 5.71 C 72.33 7.50 72.38 9.40 71.06 10.81 L 72.53 10.73 C 72.03 11.36 71.52 11.99 71.00 12.62 C 63.10 11.69 54.93 12.00 47.33 14.54 C 31.29 19.55 18.08 32.78 13.23 48.88 C 8.94 62.36 10.75 77.47 17.70 89.75 L 17.87 90.66 L 18.16 90.57 C 22.09 96.96 27.30 102.50 33.40 106.86 L 32.91 107.44 C 33.26 107.40 33.95 107.32 34.30 107.28 C 52.88 120.27 79.87 118.70 97.04 104.01 C 106.31 96.13 113.44 85.06 114.84 72.82 C 116.96 73.88 119.43 73.80 121.58 74.82 C 122.09 71.77 121.00 68.35 122.66 65.60 L 121.76 65.40 C 122.45 64.13 122.52 62.71 122.53 61.29 C 120.82 61.47 119.10 61.58 117.38 61.48 C 117.59 63.26 117.60 65.06 117.38 66.85 C 118.28 66.72 120.08 66.46 120.98 66.33 C 120.95 67.45 120.91 68.57 120.86 69.70 C 119.69 69.21 118.52 68.71 117.36 68.20 C 117.28 68.77 117.14 69.90 117.06 70.46 C 118.37 70.64 121.62 69.42 120.85 71.83 C 120.09 72.94 118.80 72.87 117.74 72.24 C 117.09 72.30 115.79 72.41 115.14 72.46 C 116.46 64.17 115.77 55.62 113.26 47.61 C 113.00 47.01 112.48 45.81 112.22 45.21 L 112.34 45.55 C 110.90 41.29 108.57 37.40 105.99 33.74 L 106.17 33.24 L 105.79 33.25 C 103.08 29.85 100.00 26.79 96.83 23.83 C 96.46 23.58 95.72 23.07 95.36 22.82 C 88.81 18.04 81.24 14.03 73.06 13.28 C 72.58 12.25 72.58 11.24 73.08 10.24 C 73.18 8.69 74.54 6.54 72.48 5.71 M 48.73 7.13 C 49.12 8.92 49.62 10.68 50.02 12.47 C 53.81 12.69 51.19 8.60 51.48 6.45 C 50.79 6.62 49.42 6.96 48.73 7.13 M 75.61 7.07 C 75.57 8.70 75.41 10.32 75.21 11.93 C 75.54 11.94 76.21 11.96 76.54 11.96 C 76.45 10.27 77.14 8.76 77.96 7.33 C 77.37 7.26 76.20 7.13 75.61 7.07 M 45.14 8.33 C 45.95 9.73 46.75 11.18 46.71 12.86 C 47.21 12.81 48.21 12.71 48.71 12.66 C 47.93 11.22 47.26 9.71 47.46 8.02 C 46.88 8.10 45.72 8.25 45.14 8.33 M 79.42 7.63 C 79.52 9.45 78.98 11.13 78.20 12.74 C 78.72 12.77 79.76 12.82 80.28 12.84 C 79.71 10.93 80.27 9.91 81.97 9.78 C 84.89 9.94 81.98 12.23 81.51 13.49 C 82.00 13.66 82.99 13.99 83.49 14.16 C 83.69 12.80 83.73 9.39 85.84 11.16 C 87.24 12.50 85.69 13.77 85.03 15.02 C 85.42 15.22 86.20 15.61 86.59 15.81 C 86.39 13.68 87.32 11.72 89.85 12.03 C 90.95 14.08 86.24 16.62 89.82 17.21 C 90.11 15.62 90.85 14.22 92.09 13.17 C 88.12 10.76 83.75 9.22 79.42 7.63 M 41.20 9.70 C 42.33 11.11 43.01 12.75 43.09 14.58 C 43.74 14.32 45.03 13.81 45.68 13.55 C 44.59 12.05 44.19 10.28 44.11 8.46 C 43.38 8.77 41.93 9.39 41.20 9.70 M 38.38 11.44 C 39.18 12.98 40.04 14.49 40.86 16.03 C 42.31 14.12 40.32 12.05 40.25 10.01 C 39.62 10.48 38.97 10.93 38.38 11.44 M 34.37 13.35 C 36.22 14.05 36.70 15.75 37.04 17.47 C 38.97 16.74 38.99 15.72 37.37 14.63 C 37.30 13.94 37.16 12.55 37.09 11.85 C 36.18 12.35 35.28 12.85 34.37 13.35 M 31.02 15.41 C 31.63 15.73 32.86 16.36 33.47 16.68 C 33.55 17.35 33.71 18.70 33.78 19.37 C 37.47 18.18 33.21 16.06 33.31 13.88 C 32.55 14.39 31.78 14.90 31.02 15.41 M 93.89 13.43 C 93.90 15.42 89.57 18.01 92.80 19.26 C 93.41 17.34 95.82 15.32 93.89 13.43 M 27.95 17.39 C 28.60 17.72 29.89 18.40 30.54 18.73 C 30.61 19.34 30.73 20.55 30.79 21.16 C 31.46 20.72 32.13 20.28 32.80 19.84 C 31.45 18.90 30.29 17.75 30.27 15.97 C 29.50 16.44 28.72 16.91 27.95 17.39 M 96.79 15.94 C 96.77 17.96 92.71 19.81 95.67 21.31 C 96.34 19.71 97.48 18.42 98.68 17.19 C 98.05 16.76 97.42 16.35 96.79 15.94 M 25.11 19.90 C 26.92 20.30 27.80 21.75 28.39 23.36 C 31.38 21.68 27.12 20.14 27.12 18.02 C 26.45 18.65 25.78 19.27 25.11 19.90 M 99.73 18.85 C 98.02 21.87 103.02 19.17 99.73 18.85 M 21.97 22.42 C 22.63 22.68 23.94 23.20 24.60 23.46 C 24.87 24.09 25.40 25.37 25.66 26.01 C 26.09 25.33 26.51 24.65 26.94 23.97 C 25.53 23.34 24.62 22.27 24.21 20.77 C 23.46 21.32 22.72 21.87 21.97 22.42 M 98.29 23.25 C 99.79 22.42 99.81 21.60 98.36 20.78 C 96.88 21.59 96.86 22.41 98.29 23.25 M 102.69 20.69 C 102.21 22.66 99.28 23.77 100.69 26.03 C 101.65 24.33 103.01 22.97 104.73 22.06 C 104.22 21.72 103.20 21.03 102.69 20.69 M 105.43 23.31 C 105.15 23.86 104.59 24.97 104.31 25.52 C 103.72 25.79 102.55 26.32 101.97 26.59 C 102.58 27.11 103.20 27.63 103.82 28.15 C 104.26 27.44 105.14 26.03 105.58 25.33 C 106.37 25.95 107.15 26.58 107.92 27.22 C 107.08 27.76 105.38 28.83 104.53 29.37 C 105.04 29.90 105.54 30.44 106.05 30.98 C 106.68 29.23 108.14 28.46 109.90 28.23 C 108.51 26.51 107.28 24.59 105.43 23.31 M 19.93 25.24 C 21.40 25.59 22.41 26.47 22.95 27.87 C 23.48 27.62 24.53 27.12 25.06 26.86 C 24.40 26.54 23.08 25.88 22.42 25.55 C 22.09 24.87 21.44 23.52 21.12 22.84 C 20.82 23.44 20.22 24.64 19.93 25.24 M 18.16 26.73 C 16.65 29.76 21.57 26.88 18.16 26.73 M 16.12 29.22 C 15.71 29.85 15.30 30.49 14.92 31.14 C 16.80 31.21 17.99 32.51 19.07 33.87 C 19.28 33.37 19.68 32.36 19.88 31.86 C 18.47 31.20 17.30 30.20 16.12 29.22 M 20.29 28.80 C 19.86 30.26 20.32 30.77 21.66 30.33 C 22.10 28.88 21.65 28.36 20.29 28.80 M 109.03 31.36 C 108.49 31.48 107.42 31.71 106.88 31.83 C 107.13 32.35 107.63 33.39 107.87 33.91 C 108.88 32.42 110.10 31.17 112.04 31.22 C 111.61 30.52 111.18 29.84 110.73 29.15 C 110.14 29.87 109.57 30.61 109.03 31.36 M 14.06 32.24 C 12.51 33.67 11.74 35.66 10.82 37.51 C 12.62 37.66 14.10 38.57 15.35 39.83 C 15.49 39.34 15.76 38.35 15.89 37.86 C 14.97 37.45 13.12 36.62 12.20 36.21 C 12.91 35.56 13.63 34.92 14.36 34.30 C 15.04 34.94 16.40 36.23 17.08 36.88 C 17.28 36.33 17.68 35.25 17.88 34.70 C 16.22 34.53 15.15 33.35 14.06 32.24 M 112.69 32.17 C 111.78 33.45 110.74 34.62 109.08 34.78 C 109.24 35.29 109.57 36.31 109.73 36.82 C 110.86 35.46 112.21 34.37 114.07 34.37 C 113.60 33.64 113.15 32.90 112.69 32.17 M 114.63 35.36 C 113.73 37.12 112.00 37.66 110.21 37.96 C 111.19 39.95 112.35 39.91 113.41 37.98 C 114.08 37.91 115.42 37.78 116.09 37.71 C 115.60 36.92 115.11 36.14 114.63 35.36 M 10.03 38.96 C 9.37 40.84 8.68 42.71 7.90 44.55 C 9.64 44.50 11.20 45.16 12.69 45.97 C 12.74 45.46 12.85 44.44 12.90 43.93 C 12.04 43.81 10.31 43.58 9.45 43.46 C 9.96 42.63 10.47 41.80 10.99 40.98 C 12.39 41.67 14.16 43.73 14.86 41.01 C 13.00 40.95 11.41 40.12 10.03 38.96 M 112.24 41.05 C 112.49 41.61 112.75 42.16 113.02 42.71 C 114.29 42.17 115.56 40.87 116.84 42.15 C 118.60 44.52 114.53 44.18 113.27 44.61 C 114.63 46.69 117.12 44.56 118.99 44.53 C 118.28 42.77 117.68 40.97 116.80 39.29 C 115.30 39.94 113.85 40.71 112.24 41.05 M 7.31 46.26 C 6.78 48.11 6.34 49.97 5.74 51.80 C 7.44 51.58 9.02 51.99 10.48 52.84 C 10.97 51.08 11.55 49.35 11.98 47.58 C 10.36 47.36 8.85 46.78 7.31 46.26 M 115.03 47.58 C 115.14 48.08 115.34 49.10 115.45 49.60 C 116.69 48.38 118.33 48.27 119.95 48.37 C 119.87 47.80 119.73 46.67 119.65 46.10 C 118.20 46.86 116.72 47.60 115.03 47.58 M 116.05 50.95 C 116.10 51.46 116.20 52.48 116.25 52.99 C 117.46 52.44 118.66 51.88 119.87 51.33 C 119.92 52.46 119.96 53.60 119.98 54.73 C 119.16 54.61 117.50 54.37 116.67 54.25 C 116.97 56.14 117.19 58.04 117.36 59.94 C 118.19 59.64 119.02 59.35 119.85 59.05 C 120.37 59.24 121.42 59.62 121.94 59.81 C 121.94 59.16 121.92 57.88 121.91 57.23 C 120.55 57.75 119.19 58.25 117.83 58.74 C 117.82 57.62 117.83 56.50 117.84 55.38 C 118.83 55.51 120.81 55.77 121.80 55.89 C 121.26 53.85 120.79 51.78 120.44 49.69 C 119.10 50.51 117.59 50.83 116.05 50.95 M 5.40 53.25 C 5.33 53.85 5.18 55.05 5.11 55.65 C 6.34 55.64 9.69 54.47 8.86 56.83 C 8.20 58.81 6.19 57.30 4.80 57.18 C 4.74 57.75 4.61 58.88 4.55 59.44 C 6.24 59.28 7.93 59.35 9.60 59.63 C 9.71 57.90 9.79 56.17 9.95 54.45 C 8.29 54.70 6.81 54.05 5.40 53.25 M 4.38 61.26 C 4.43 61.90 4.53 63.18 4.58 63.82 C 5.39 63.34 6.20 62.86 7.01 62.38 C 7.77 62.85 8.52 63.32 9.28 63.80 C 9.34 63.20 9.47 62.00 9.53 61.40 C 7.81 61.50 6.09 61.43 4.38 61.26 M 5.66 76.30 C 5.84 76.89 6.19 78.09 6.37 78.69 C 7.67 77.58 9.25 77.16 10.95 77.25 C 10.85 76.74 10.66 75.72 10.57 75.21 C 9.05 76.03 7.41 76.49 5.66 76.30 M 116.35 74.99 C 116.26 75.58 116.08 76.75 115.99 77.34 C 118.02 76.67 119.10 77.21 119.23 78.97 C 119.07 81.70 116.60 79.19 115.19 78.93 C 115.14 79.32 115.05 80.10 115.01 80.49 C 116.52 80.92 118.03 81.40 119.52 81.90 C 119.93 79.95 120.44 78.03 121.02 76.13 C 120.28 76.24 118.79 76.45 118.05 76.55 C 117.63 76.16 116.77 75.38 116.35 74.99 M 6.47 79.79 C 6.70 80.40 7.17 81.63 7.40 82.25 C 8.81 81.09 10.44 80.38 12.29 80.42 C 11.12 78.22 8.35 80.21 6.47 79.79 M 7.87 83.52 C 8.68 85.40 9.40 87.32 10.07 89.26 C 10.74 88.73 12.07 87.68 12.74 87.15 C 13.44 87.85 14.12 88.57 14.80 89.29 C 13.75 89.63 11.67 90.32 10.63 90.66 C 11.11 91.30 11.62 91.94 12.13 92.57 C 13.29 91.53 14.47 90.53 16.08 90.30 C 15.27 88.59 14.50 86.87 13.70 85.16 C 12.55 86.69 11.37 86.93 10.14 85.87 C 8.67 83.78 11.82 84.15 13.01 83.57 C 12.91 83.20 12.72 82.48 12.63 82.11 C 11.16 82.96 9.61 83.66 7.87 83.52 M 113.28 84.01 C 115.00 84.21 116.56 84.92 118.13 85.59 C 118.36 85.12 118.82 84.17 119.05 83.69 C 117.03 83.99 114.08 80.92 113.28 84.01 M 112.23 87.22 C 114.31 87.46 116.44 89.86 118.01 87.41 C 117.26 87.35 115.75 87.24 115.00 87.19 C 114.50 86.66 113.49 85.62 112.99 85.09 C 112.80 85.63 112.42 86.69 112.23 87.22 M 110.11 90.34 C 110.83 90.43 112.29 90.62 113.02 90.71 C 113.59 91.46 114.17 92.20 114.75 92.95 C 115.14 92.16 115.53 91.38 115.93 90.59 C 113.63 91.07 111.54 86.88 110.11 90.34 M 12.38 94.04 C 12.82 94.43 13.70 95.21 14.14 95.61 C 15.38 94.56 16.68 93.57 18.27 93.07 C 16.52 91.16 14.33 93.87 12.38 94.04 M 108.99 93.30 C 110.30 93.91 111.47 94.76 112.62 95.63 C 113.39 95.30 113.62 94.41 114.10 93.79 C 112.20 93.88 110.86 92.77 109.74 91.38 C 109.56 91.86 109.18 92.82 108.99 93.30 M 18.55 95.55 C 19.12 96.13 19.12 96.13 18.55 95.55 M 106.47 96.11 C 108.22 96.54 109.52 97.65 110.34 99.21 C 110.84 98.49 111.35 97.77 111.85 97.05 C 109.97 96.88 108.15 94.10 106.47 96.11 M 15.53 98.29 C 16.91 98.75 17.42 98.27 17.06 96.85 C 15.65 96.39 15.14 96.87 15.53 98.29 M 20.79 97.18 C 19.91 98.62 18.78 99.83 16.97 99.94 C 17.65 100.73 18.33 101.51 19.01 102.30 C 19.19 101.65 19.55 100.36 19.74 99.71 C 20.40 99.58 21.71 99.32 22.37 99.19 C 21.84 98.51 21.32 97.84 20.79 97.18 M 104.91 99.19 C 105.61 99.55 107.03 100.27 107.74 100.63 C 107.08 101.40 106.41 102.16 105.73 102.91 C 105.22 102.20 104.19 100.76 103.68 100.04 C 103.11 100.61 102.55 101.18 101.98 101.75 C 102.56 101.94 103.73 102.33 104.31 102.52 C 104.58 103.10 105.11 104.26 105.38 104.84 C 107.02 103.43 108.43 101.78 109.78 100.09 C 107.82 100.06 106.51 98.93 105.74 97.21 C 105.53 97.70 105.11 98.69 104.91 99.19 M 23.00 100.16 C 22.13 101.25 21.10 102.20 20.12 103.19 C 20.47 103.88 20.86 104.57 21.26 105.24 C 21.56 104.57 22.16 103.25 22.46 102.58 C 23.08 102.31 24.33 101.76 24.95 101.48 C 24.30 101.03 23.65 100.60 23.00 100.16 M 22.01 106.07 C 22.56 106.34 23.67 106.88 24.22 107.15 C 24.61 105.58 25.60 104.54 27.17 104.06 C 25.60 101.71 23.66 105.66 22.01 106.07 M 99.74 102.76 C 98.91 104.98 101.93 106.26 102.93 107.90 C 103.38 107.43 104.30 106.50 104.75 106.03 C 103.17 105.01 102.02 101.86 99.74 102.76 M 27.88 104.79 C 27.77 105.43 27.56 106.69 27.45 107.33 C 26.80 107.52 25.49 107.91 24.84 108.10 C 25.57 108.73 26.30 109.35 27.04 109.98 C 27.17 108.18 28.41 107.08 29.84 106.19 C 29.18 105.72 28.53 105.26 27.88 104.79 M 96.97 106.35 C 98.35 107.25 99.27 108.54 99.70 110.13 C 100.42 109.52 101.15 108.91 101.87 108.31 C 101.27 108.08 100.08 107.62 99.49 107.39 C 99.26 106.75 98.80 105.48 98.57 104.84 C 98.04 105.34 97.50 105.84 96.97 106.35 M 30.88 107.02 C 30.59 108.73 29.41 109.87 28.01 110.77 C 28.74 111.21 29.46 111.63 30.19 112.07 C 30.31 110.36 31.38 109.21 32.74 108.32 C 32.12 107.89 31.50 107.45 30.88 107.02 M 96.88 112.42 C 99.17 110.68 95.89 108.77 95.30 106.99 C 93.12 108.73 96.80 110.42 96.88 112.42 M 33.82 109.03 C 33.73 110.91 32.40 112.06 31.01 113.10 C 31.60 113.36 32.78 113.88 33.37 114.13 C 33.52 112.48 34.48 111.25 35.74 110.26 C 35.10 109.85 34.46 109.44 33.82 109.03 M 90.95 109.74 C 92.11 111.08 93.03 112.60 93.62 114.28 C 94.14 113.98 95.19 113.40 95.71 113.10 C 93.51 112.47 93.61 108.40 90.95 109.74 M 36.93 111.05 C 36.59 112.94 34.22 114.86 36.19 116.56 C 36.86 114.85 37.74 113.25 38.64 111.66 C 38.21 111.51 37.36 111.20 36.93 111.05 M 89.56 113.82 C 89.62 114.53 89.75 115.94 89.81 116.65 C 93.43 115.52 90.18 112.98 89.71 110.88 C 87.55 111.39 88.42 112.66 89.56 113.82 M 40.02 112.27 C 40.03 114.10 39.23 115.66 38.03 116.98 C 39.90 117.65 41.76 118.37 43.56 119.21 C 43.66 117.34 45.63 115.03 43.71 113.52 C 42.88 114.62 43.35 118.56 41.12 116.86 C 39.04 115.22 43.56 112.86 40.02 112.27 M 86.52 117.90 C 87.29 117.57 88.06 117.25 88.83 116.93 C 87.52 115.64 86.45 114.16 86.35 112.24 C 84.20 113.57 86.42 116.04 86.52 117.90 M 81.32 114.62 C 81.69 115.27 82.44 116.56 82.81 117.21 C 83.66 121.36 78.54 117.50 80.15 115.24 L 78.23 115.44 C 79.04 116.98 79.42 118.61 79.37 120.35 C 81.18 119.64 83.04 119.02 84.92 118.51 C 84.10 117.14 83.35 115.72 83.32 114.09 C 82.82 114.22 81.82 114.48 81.32 114.62 M 46.67 115.15 C 46.63 116.82 45.96 118.34 45.21 119.81 C 45.75 120.00 46.83 120.37 47.37 120.56 C 47.33 118.77 47.76 117.09 48.73 115.59 C 48.22 115.48 47.18 115.26 46.67 115.15 M 50.46 116.07 C 50.15 117.70 49.70 119.30 49.11 120.85 C 49.65 121.01 50.71 121.32 51.24 121.47 C 51.14 119.72 51.37 117.99 51.77 116.29 C 51.44 116.23 50.79 116.12 50.46 116.07 M 53.59 117.01 C 53.81 118.65 53.42 120.15 52.42 121.50 C 53.05 121.61 54.30 121.83 54.92 121.94 C 54.77 121.20 54.47 119.73 54.33 118.99 C 54.71 118.56 55.48 117.71 55.87 117.28 C 55.30 117.21 54.16 117.07 53.59 117.01 M 60.14 117.66 C 60.57 118.43 61.01 119.20 61.46 119.98 C 60.95 120.79 60.44 121.62 59.94 122.44 C 60.67 122.47 62.13 122.53 62.86 122.56 C 62.58 121.72 62.31 120.89 62.03 120.05 C 62.29 119.24 62.54 118.43 62.79 117.62 C 62.13 117.63 60.80 117.65 60.14 117.66 Z" />
<path fill="#ffffff" opacity="1.00" d=" M 57.88 28.04 C 67.07 26.36 76.54 27.20 85.51 29.67 C 85.52 34.46 85.53 39.26 85.51 44.06 C 78.29 38.99 68.51 36.28 60.19 40.29 C 54.14 43.06 50.88 49.60 50.11 55.95 C 49.05 60.86 51.12 65.62 53.05 70.02 C 48.73 69.51 44.51 68.30 40.68 66.24 C 40.33 61.11 41.05 56.04 41.67 50.97 C 39.59 55.70 38.95 60.84 38.68 65.95 C 34.71 68.17 30.31 69.53 25.77 69.90 C 30.11 61.66 29.73 51.75 34.89 43.89 C 39.78 36.10 47.85 30.69 56.66 28.31 C 57.40 28.87 58.14 29.42 58.88 29.97 C 43.89 32.44 31.30 46.64 31.58 62.00 C 33.14 53.52 36.55 45.04 43.07 39.16 C 49.34 33.29 57.82 30.61 66.17 29.46 C 63.33 29.35 60.22 30.06 57.88 28.04 M 46.66 53.93 C 48.92 46.16 54.43 39.10 62.22 36.36 C 67.95 33.96 74.24 34.60 80.00 36.51 C 66.93 29.05 47.59 38.55 46.66 53.93 Z" />
<path fill="#ffffff" opacity="1.00" d=" M 9.43 51.05 C 7.13 51.43 6.79 47.45 9.36 48.52 C 10.19 49.40 10.21 50.24 9.43 51.05 Z" />
<path fill="#ffffff" opacity="1.00" d=" M 69.52 62.60 C 76.79 62.63 84.05 62.59 91.31 62.63 C 91.34 73.87 91.28 85.11 91.34 96.35 C 77.51 101.15 61.55 102.54 48.07 95.92 C 38.37 91.26 30.50 81.78 29.98 70.74 C 30.45 70.91 31.40 71.26 31.88 71.44 C 32.87 76.82 34.77 82.27 38.94 86.05 C 36.65 81.24 34.02 76.36 33.84 70.91 C 34.19 70.36 34.87 69.26 35.22 68.71 C 36.76 74.52 38.50 80.50 42.87 84.89 C 40.59 79.69 37.80 74.50 37.66 68.68 C 37.86 67.37 40.57 66.55 40.70 68.23 C 41.97 73.92 43.48 79.94 47.91 84.09 C 45.73 79.29 42.94 74.47 43.19 69.00 C 43.73 69.37 44.83 70.10 45.38 70.47 C 46.48 75.93 48.31 81.51 52.58 85.34 C 50.26 80.82 47.94 76.18 47.47 71.03 C 48.19 71.14 49.63 71.35 50.36 71.45 C 51.64 77.03 53.92 82.89 58.80 86.28 C 62.80 89.21 68.01 89.47 72.77 89.05 C 72.85 82.38 72.94 75.69 72.77 69.02 C 72.78 66.47 70.88 64.56 69.52 62.60 M 82.62 67.82 C 81.71 74.91 81.45 82.09 82.66 89.17 C 83.70 82.12 83.69 74.87 82.62 67.82 M 76.79 71.01 C 76.18 77.47 76.06 83.96 76.18 90.44 C 69.78 92.41 63.19 90.93 56.91 89.30 C 63.20 93.00 70.67 93.67 77.77 92.51 C 77.67 85.34 77.87 78.12 76.79 71.01 M 87.84 70.98 C 87.15 78.32 87.26 85.68 87.17 93.04 C 82.40 95.45 77.21 96.75 71.97 97.64 C 77.70 97.99 83.32 96.72 88.71 94.85 C 88.79 86.90 88.73 78.90 87.84 70.98 Z" />
<path fill="#ffffff" opacity="1.00" d=" M 120.34 65.29 C 117.90 66.09 117.90 62.09 120.32 62.79 C 121.17 63.61 121.17 64.44 120.34 65.29 Z" />
</g>
<g id="#8c949dff">
<path fill="#8c949d" opacity="1.00" d=" M 48.73 7.13 C 49.42 6.96 50.79 6.62 51.48 6.45 C 51.19 8.60 53.81 12.69 50.02 12.47 C 49.62 10.68 49.12 8.92 48.73 7.13 Z" />
<path fill="#8c949d" opacity="1.00" d=" M 41.20 9.70 C 41.93 9.39 43.38 8.77 44.11 8.46 C 44.19 10.28 44.59 12.05 45.68 13.55 C 45.03 13.81 43.74 14.32 43.09 14.58 C 43.01 12.75 42.33 11.11 41.20 9.70 Z" />
<path fill="#8c949d" opacity="1.00" d=" M 99.74 102.76 C 102.02 101.86 103.17 105.01 104.75 106.03 C 104.30 106.50 103.38 107.43 102.93 107.90 C 101.93 106.26 98.91 104.98 99.74 102.76 Z" />
</g>
<g id="#c49136ff">
<path fill="#c49136" opacity="1.00" d=" M 55.12 16.18 C 59.97 13.92 65.23 15.93 69.87 17.69 C 70.64 17.11 71.45 16.60 72.30 16.15 C 72.73 16.64 73.58 17.63 74.00 18.13 C 74.47 17.88 75.42 17.39 75.89 17.14 C 76.33 17.32 77.22 17.69 77.66 17.87 C 78.02 17.38 78.75 16.40 79.11 15.91 C 79.44 20.24 74.80 20.30 71.71 20.17 C 73.37 21.85 74.98 23.61 76.36 25.54 C 74.24 25.08 72.76 23.46 71.27 22.02 C 71.22 22.86 71.10 24.53 71.04 25.37 C 69.67 21.28 66.95 17.80 62.80 16.30 C 63.21 17.84 63.62 19.39 64.03 20.94 C 63.46 21.16 62.33 21.61 61.77 21.84 C 62.24 22.79 62.72 23.74 63.19 24.69 C 60.23 23.18 57.37 24.29 54.88 26.11 C 55.52 22.81 58.50 20.99 61.78 21.73 C 61.96 20.44 62.14 19.14 62.32 17.85 C 60.89 18.20 59.47 18.55 58.05 18.91 C 57.80 18.23 57.30 16.88 57.05 16.21 C 54.77 17.26 52.75 18.76 50.94 20.48 C 52.25 20.94 53.75 21.23 54.42 22.60 C 53.78 22.56 52.49 22.48 51.85 22.44 C 52.42 24.69 50.76 25.65 49.00 26.38 C 48.72 27.36 48.44 28.34 48.16 29.33 C 46.80 29.46 45.44 29.58 44.08 29.71 C 44.55 29.33 45.48 28.56 45.95 28.17 C 44.42 26.00 42.73 23.35 39.77 23.16 C 37.43 22.70 35.32 24.80 35.16 27.04 C 34.42 30.27 39.53 30.10 39.74 33.02 C 39.16 33.90 38.30 34.55 37.54 35.26 C 37.45 34.41 37.28 32.72 37.20 31.87 C 35.48 31.20 33.71 30.54 31.82 30.77 C 30.35 29.58 29.52 27.93 29.23 26.08 C 30.56 26.79 31.86 27.55 33.16 28.32 C 34.28 25.82 35.80 22.57 38.91 22.32 C 42.13 21.88 44.26 24.75 46.25 26.77 C 47.49 22.16 50.45 17.81 55.12 16.18 Z" />
<path fill="#c49136" opacity="1.00" d=" M 79.82 17.91 C 80.87 17.74 81.92 17.56 82.96 17.39 C 82.32 18.26 81.66 19.12 81.01 19.98 C 83.73 20.78 86.87 21.05 88.97 23.15 C 90.21 25.03 89.36 27.32 87.85 28.75 C 87.90 27.27 87.83 25.80 87.64 24.34 C 84.83 22.42 79.58 22.42 79.82 17.91 Z" />
<path fill="#c49136" opacity="1.00" d=" M 45.07 23.84 C 44.32 21.55 43.38 18.60 45.96 17.08 C 46.68 19.38 47.51 22.23 45.07 23.84 Z" />
<path fill="#c49136" opacity="1.00" d=" M 89.64 20.21 C 91.56 21.06 93.47 21.90 95.36 22.82 C 95.72 23.07 96.46 23.58 96.83 23.83 C 97.18 25.59 97.34 27.38 97.39 29.18 C 98.19 30.22 99.00 31.25 99.81 32.28 C 98.57 33.48 97.31 34.66 96.04 35.82 C 96.72 33.80 97.35 31.75 97.74 29.65 C 94.31 29.67 90.88 29.77 87.46 29.51 C 90.12 28.81 92.84 28.41 95.59 28.20 C 95.71 26.94 95.84 25.68 95.97 24.42 C 94.86 25.25 93.76 26.08 92.65 26.91 C 91.60 24.70 90.63 22.45 89.64 20.21 Z" />
<path fill="#c49136" opacity="1.00" d=" M 37.66 27.62 C 39.46 25.71 41.87 25.95 43.73 27.66 C 41.71 27.71 39.68 27.70 37.66 27.62 Z" />
<path fill="#c49136" opacity="1.00" d=" M 100.16 30.19 C 100.56 30.06 101.35 29.80 101.74 29.66 C 101.66 30.61 101.49 32.51 101.41 33.46 C 102.50 33.41 104.69 33.30 105.79 33.25 L 106.17 33.24 L 105.99 33.74 C 105.77 34.38 105.32 35.67 105.10 36.32 C 106.34 38.10 107.65 39.84 108.74 41.72 C 107.72 42.28 106.69 42.80 105.65 43.30 C 106.23 45.50 106.88 47.68 107.58 49.85 C 109.34 48.91 111.11 47.98 112.88 47.05 C 112.74 46.68 112.47 45.93 112.34 45.55 L 112.22 45.21 C 112.48 45.81 113.00 47.01 113.26 47.61 C 111.87 49.06 110.37 50.41 109.20 52.04 C 110.32 56.25 112.65 60.09 113.28 64.45 C 113.78 67.42 113.14 70.41 112.58 73.32 C 111.69 71.28 111.14 69.02 109.70 67.27 C 106.73 64.46 100.88 66.00 99.91 70.06 C 99.15 72.76 100.73 75.28 101.86 77.63 C 103.24 77.49 104.63 77.32 106.02 77.31 C 106.20 78.11 106.57 79.70 106.75 80.49 C 108.60 79.06 111.54 76.97 109.78 74.29 C 108.43 71.78 105.54 73.60 103.75 74.54 C 103.23 74.35 102.17 73.97 101.65 73.78 C 103.82 72.85 106.17 69.79 108.58 71.53 C 112.22 73.70 111.43 80.25 107.06 81.03 C 103.48 81.96 101.02 78.65 99.27 76.09 C 100.04 81.08 97.85 86.30 93.11 88.43 C 94.37 86.74 95.72 85.13 97.07 83.52 C 96.12 83.42 94.21 83.23 93.26 83.14 C 93.83 82.63 94.99 81.63 95.56 81.13 C 95.57 80.56 95.59 79.42 95.59 78.85 C 96.20 78.36 97.42 77.38 98.03 76.89 C 96.78 74.91 95.46 72.97 93.86 71.25 C 93.63 70.19 93.45 69.12 93.24 68.06 C 93.98 68.89 94.72 69.73 95.47 70.56 C 96.47 68.92 98.06 67.07 97.02 65.03 C 95.92 63.66 94.57 62.53 93.37 61.25 C 96.03 59.94 97.64 62.68 98.87 64.56 C 100.21 62.99 101.71 61.56 103.49 60.49 C 103.26 63.25 101.31 64.95 98.81 65.74 C 98.62 66.63 98.23 68.42 98.04 69.31 C 100.21 67.39 102.11 64.38 105.31 64.24 C 108.34 64.08 110.36 66.76 112.52 68.44 C 111.87 65.59 111.14 62.76 110.26 59.97 C 108.69 59.24 107.12 58.50 105.56 57.75 C 106.38 56.77 107.20 55.79 108.03 54.82 C 106.51 49.89 103.66 44.54 106.50 39.52 C 103.64 39.98 100.74 39.76 98.47 37.80 C 100.35 37.67 102.23 37.63 104.12 37.61 C 102.37 35.47 99.73 33.29 100.16 30.19 M 96.72 70.38 C 95.65 71.22 96.95 73.27 98.13 72.42 C 99.21 71.56 97.93 69.44 96.72 70.38 Z" />
<path fill="#c49136" opacity="1.00" d=" M 22.06 37.62 C 22.79 34.24 25.46 31.50 29.07 31.49 C 33.16 30.91 36.37 34.46 36.95 38.26 C 35.92 37.51 35.24 36.44 34.53 35.41 C 32.27 35.62 30.11 35.22 29.90 32.47 C 26.49 32.11 21.86 35.11 23.85 38.94 C 26.13 41.83 28.55 38.24 31.02 37.64 C 31.78 38.12 32.52 38.62 33.26 39.14 C 30.96 39.67 29.09 41.12 27.04 42.20 C 24.51 42.42 23.48 39.70 22.10 38.13 C 20.50 40.01 18.85 42.14 19.69 44.75 C 22.19 45.20 25.47 44.78 26.67 47.61 C 24.00 47.17 20.08 48.47 18.61 45.45 C 16.94 42.33 19.22 38.97 22.06 37.62 Z" />
<path fill="#c49136" opacity="1.00" d=" M 41.03 31.23 C 41.82 30.04 44.59 30.96 43.35 32.42 C 42.55 33.64 39.78 32.71 41.03 31.23 Z" />
<path fill="#c49136" opacity="1.00" d=" M 87.99 32.05 C 89.86 31.34 90.84 35.48 88.94 35.83 C 87.52 35.35 87.03 33.16 87.99 32.05 Z" />
<path fill="#c49136" opacity="1.00" d=" M 87.12 41.80 C 87.26 37.18 93.42 33.45 97.03 37.03 C 99.72 39.21 98.55 42.82 96.58 45.02 C 96.92 42.50 97.03 39.24 94.01 38.36 C 90.89 36.92 88.85 39.73 87.12 41.80 Z" />
<path fill="#c49136" opacity="1.00" d=" M 61.88 40.96 C 64.22 41.14 64.61 42.97 64.44 45.01 C 66.31 43.61 68.35 41.53 70.94 42.29 C 74.51 42.87 77.26 46.99 74.72 50.14 C 73.90 47.94 73.40 45.08 70.88 44.16 C 68.19 42.63 64.68 45.05 64.71 47.98 C 64.47 50.08 66.28 51.53 67.36 53.07 C 67.39 51.31 67.45 49.55 67.52 47.80 C 68.72 49.31 69.63 51.02 70.28 52.84 C 70.71 52.58 71.57 52.05 72.00 51.79 C 72.70 52.63 73.40 53.47 74.10 54.31 C 74.90 54.18 76.49 53.92 77.28 53.79 C 77.71 51.95 77.75 49.74 79.39 48.49 C 81.35 46.63 84.28 47.48 86.71 47.27 C 87.47 48.23 88.24 49.19 89.01 50.14 C 90.71 48.78 91.32 46.45 93.08 45.09 C 93.10 46.08 93.14 48.05 93.16 49.04 C 92.32 50.63 90.26 51.05 89.35 52.65 C 92.36 52.81 96.70 51.20 98.19 54.93 C 98.71 57.80 96.39 59.58 93.85 60.00 C 94.79 58.12 98.11 56.11 96.08 53.93 C 94.13 52.08 91.20 53.97 89.73 55.54 C 90.50 55.50 92.06 55.42 92.84 55.38 C 91.82 56.89 91.21 58.61 91.38 60.45 C 90.32 60.42 89.26 60.40 88.20 60.37 C 88.47 56.15 90.05 51.12 86.25 47.93 C 85.05 50.78 82.68 53.50 79.24 53.02 C 80.53 54.61 81.86 56.19 83.14 57.81 C 80.68 57.76 78.71 56.48 77.40 54.44 C 73.73 57.71 68.68 55.96 65.04 53.65 C 63.74 54.84 62.44 56.02 61.11 57.17 C 61.37 55.78 61.64 54.40 61.91 53.02 C 62.51 52.74 63.70 52.18 64.29 51.89 C 63.61 49.39 62.89 46.25 59.97 45.50 C 57.87 44.74 56.34 46.60 55.03 47.88 C 56.31 50.12 58.65 50.78 61.06 51.02 C 59.32 52.45 56.68 52.81 55.34 50.65 C 53.41 48.50 55.86 46.04 57.51 44.66 C 59.70 43.53 62.00 45.24 64.01 45.94 C 63.11 44.37 62.35 42.71 61.88 40.96 M 79.35 52.62 C 81.63 51.42 83.67 49.81 85.04 47.60 C 81.85 47.39 79.80 49.66 79.35 52.62 Z" />
<path fill="#c49136" opacity="1.00" d=" M 99.61 44.54 C 100.72 42.87 102.63 43.66 104.05 44.30 C 103.52 44.34 102.44 44.43 101.90 44.47 C 101.51 45.81 100.90 47.06 100.12 48.22 C 100.80 48.84 101.48 49.46 102.16 50.07 C 101.24 50.69 100.32 51.30 99.40 51.91 C 99.60 54.70 101.83 58.37 98.58 60.27 C 99.71 55.09 96.42 49.23 99.61 44.54 Z" />
<path fill="#c49136" opacity="1.00" d=" M 29.49 51.15 C 26.67 48.68 28.43 43.55 32.41 43.89 C 31.36 44.99 30.27 46.04 29.17 47.08 C 29.29 48.43 29.40 49.79 29.49 51.15 Z" />
<path fill="#c49136" opacity="1.00" d=" M 16.41 50.63 C 16.62 48.94 16.82 47.26 17.13 45.59 C 19.24 48.61 21.21 51.72 23.32 54.73 C 24.68 57.45 22.39 60.04 21.19 62.32 C 22.54 62.54 23.88 62.77 25.22 63.00 C 23.83 59.54 24.47 55.21 28.32 53.77 C 25.92 56.70 25.37 60.32 25.34 64.00 C 24.37 65.16 23.43 66.34 22.48 67.52 C 21.93 66.38 21.31 65.29 20.62 64.24 C 19.72 64.80 18.89 65.44 18.04 66.06 C 15.02 63.35 12.91 68.52 13.92 70.97 C 14.93 74.88 19.14 76.19 22.57 77.11 C 22.46 76.00 22.23 73.76 22.12 72.64 C 22.50 73.09 23.26 73.99 23.64 74.44 C 25.56 75.03 27.14 76.30 28.73 77.48 C 28.08 81.72 32.39 83.71 33.87 87.21 C 29.76 86.62 27.78 82.69 27.58 78.90 C 22.67 78.42 16.25 78.64 13.53 73.63 C 11.11 70.24 14.97 66.40 12.91 62.98 C 13.72 62.80 15.35 62.45 16.16 62.28 C 15.33 61.78 13.66 60.77 12.83 60.27 C 13.90 59.82 15.07 58.69 16.15 59.78 C 16.48 60.94 16.75 62.11 16.97 63.30 C 18.84 62.10 21.26 61.29 22.19 59.09 C 21.42 57.26 20.60 55.40 21.78 53.49 C 20.30 52.01 18.41 51.15 16.41 50.63 Z" />
<path fill="#c49136" opacity="1.00" d=" M 21.83 49.32 C 24.48 49.08 27.80 49.65 28.08 52.88 C 25.51 52.67 23.18 51.59 21.83 49.32 Z" />
<path fill="#c49136" opacity="1.00" d=" M 13.44 56.68 C 11.93 55.50 12.96 53.49 13.48 52.09 C 13.73 52.94 14.23 54.64 14.48 55.48 C 16.75 56.14 20.08 56.41 19.01 59.65 C 17.16 58.65 15.20 57.83 13.44 56.68 Z" />
<path fill="#c49136" opacity="1.00" d=" M 102.02 56.92 C 102.59 54.39 104.89 54.11 107.13 54.10 C 105.48 55.13 103.79 56.10 102.02 56.92 Z" />
<path fill="#c49136" opacity="1.00" d=" M 67.83 61.65 C 65.94 60.57 63.56 57.96 66.65 56.66 C 67.07 58.32 67.47 59.98 67.83 61.65 Z" />
<path fill="#c49136" opacity="1.00" d=" M 52.26 60.94 C 56.06 57.51 63.78 58.53 64.99 64.09 C 66.51 70.18 61.63 75.73 56.03 77.35 C 54.57 75.74 52.75 74.12 53.00 71.70 C 53.89 72.47 54.77 73.26 55.64 74.06 C 57.24 73.26 57.88 71.75 57.96 69.99 C 59.01 71.10 59.51 72.46 59.47 74.08 C 62.59 71.47 64.61 67.84 64.01 63.64 C 63.34 63.61 62.01 63.55 61.35 63.52 C 60.72 62.91 60.09 62.30 59.46 61.69 C 59.57 61.21 59.79 60.24 59.91 59.75 C 57.32 59.87 54.77 60.35 52.26 60.94 Z" />
<path fill="#c49136" opacity="1.00" d=" M 53.69 67.89 C 55.53 66.82 57.39 64.97 59.68 65.33 C 60.30 66.12 60.87 66.94 61.40 67.79 C 60.84 67.65 59.70 67.36 59.13 67.22 C 57.40 68.06 55.55 69.08 53.69 67.89 Z" />
<path fill="#c49136" opacity="1.00" d=" M 16.07 68.16 C 17.78 64.10 24.26 69.30 21.84 71.80 C 20.75 71.04 19.76 70.16 18.74 69.31 C 18.40 69.99 17.73 71.36 17.39 72.04 C 16.77 70.87 14.96 69.57 16.07 68.16 Z" />
<path fill="#c49136" opacity="1.00" d=" M 66.39 73.26 C 66.25 71.22 65.82 67.65 68.95 67.97 C 68.76 70.03 68.17 72.03 66.39 73.26 Z" />
<path fill="#c49136" opacity="1.00" d=" M 61.32 76.20 C 64.06 74.55 67.74 74.82 70.33 76.67 C 67.79 76.35 64.87 74.84 62.56 76.62 C 60.98 77.58 60.24 79.35 59.34 80.87 C 60.99 81.31 62.74 81.83 63.96 80.28 C 63.58 78.99 62.78 77.38 64.95 77.29 C 64.95 79.49 63.49 82.09 65.01 84.08 C 67.16 85.93 69.27 83.71 70.86 82.33 C 70.78 82.93 70.60 84.12 70.52 84.71 C 68.45 85.17 66.36 85.54 64.28 85.89 C 63.00 82.98 60.24 81.83 57.17 82.45 C 58.47 80.33 59.34 77.80 61.32 76.20 Z" />
<path fill="#c49136" opacity="1.00" d=" M 16.85 78.87 C 19.53 78.90 20.93 81.16 20.58 83.69 C 18.70 82.62 17.47 80.91 16.85 78.87 Z" />
<path fill="#c49136" opacity="1.00" d=" M 103.42 85.62 C 103.86 84.40 104.30 83.19 104.75 81.98 C 105.12 82.33 105.87 83.02 106.25 83.37 C 107.48 84.05 109.87 83.98 109.83 85.87 C 108.67 85.95 107.54 85.76 106.45 85.29 C 105.64 86.56 104.85 87.85 104.06 89.14 C 105.53 89.28 107.01 89.43 108.48 89.58 C 107.79 89.75 106.40 90.09 105.70 90.27 C 102.89 94.15 101.36 99.70 96.44 101.48 C 93.15 102.85 89.69 101.36 86.57 100.26 C 85.77 101.48 84.96 102.71 84.15 103.93 C 86.83 103.80 91.68 102.37 92.79 105.72 C 92.00 105.92 91.21 106.12 90.41 106.29 C 88.25 106.27 86.09 106.23 83.93 106.20 C 84.59 106.74 85.92 107.81 86.59 108.34 C 84.64 109.52 82.47 110.20 80.23 110.52 C 77.73 112.23 75.18 114.18 72.05 114.43 C 67.70 114.84 63.32 114.31 58.96 114.60 C 54.77 114.81 50.97 112.80 47.64 110.48 C 45.32 110.22 43.07 109.63 41.01 108.53 C 41.54 107.86 42.61 106.53 43.14 105.86 C 41.69 106.14 40.25 106.42 38.81 106.71 C 38.38 106.57 37.51 106.28 37.08 106.13 C 36.16 106.53 35.23 106.92 34.30 107.28 C 33.95 107.32 33.26 107.40 32.91 107.44 L 33.40 106.86 C 35.38 103.14 39.60 103.20 43.24 103.82 C 42.25 102.50 41.28 101.18 40.31 99.85 C 37.17 101.19 33.69 102.85 30.23 101.61 C 24.92 99.97 23.28 94.03 20.45 89.86 C 19.87 90.04 18.73 90.40 18.16 90.57 L 17.87 90.66 L 17.70 89.75 C 19.25 89.46 20.80 89.17 22.35 88.86 C 21.33 86.80 19.65 85.54 17.29 85.59 C 15.18 83.40 19.77 84.50 21.03 84.31 C 21.32 83.70 21.92 82.50 22.21 81.90 C 22.74 83.10 23.25 84.30 23.77 85.50 C 30.47 87.53 37.07 91.08 40.31 97.61 C 41.33 96.67 42.36 95.74 43.40 94.82 C 42.73 96.19 42.04 97.56 41.35 98.92 C 42.83 100.83 44.25 102.77 45.62 104.76 C 46.07 103.42 46.52 102.08 47.00 100.76 C 47.28 101.74 47.83 103.72 48.11 104.71 C 50.54 103.29 49.56 100.42 48.01 98.79 C 46.79 99.07 45.58 99.38 44.39 99.74 C 44.59 98.67 44.80 97.59 45.01 96.53 C 47.62 97.71 49.65 99.71 51.08 102.18 C 51.67 101.61 52.26 101.04 52.85 100.48 C 55.06 101.08 57.40 101.35 59.45 102.42 C 59.73 103.32 60.29 105.12 60.57 106.02 C 58.98 104.11 57.36 102.12 54.74 101.64 C 55.54 103.26 56.32 104.88 57.09 106.51 C 55.42 104.90 54.12 102.98 52.68 101.18 C 49.90 104.71 52.62 108.32 54.77 111.23 C 55.31 108.94 56.77 107.19 58.61 105.85 C 58.83 106.15 59.25 106.75 59.46 107.05 C 58.40 108.93 58.32 111.11 58.12 113.19 C 59.59 113.25 61.06 113.31 62.53 113.36 C 61.88 111.67 61.22 109.97 60.57 108.28 C 61.82 109.46 62.76 111.12 64.38 111.84 C 65.20 110.64 65.92 109.37 66.66 108.12 C 66.79 108.54 67.05 109.36 67.18 109.77 C 66.50 110.96 65.83 112.16 65.16 113.36 C 66.19 113.32 68.27 113.24 69.31 113.20 C 69.17 112.40 68.91 110.80 68.77 109.99 C 68.98 109.62 69.38 108.87 69.59 108.50 C 67.75 106.59 66.77 104.17 68.68 101.88 C 68.66 102.93 68.63 105.02 68.62 106.06 C 69.64 106.78 70.66 107.50 71.68 108.21 C 71.74 109.06 71.86 110.76 71.93 111.60 C 74.39 108.87 76.11 105.49 75.77 101.72 C 77.07 102.59 78.37 103.46 79.68 104.31 C 79.88 103.49 80.29 101.83 80.49 101.00 C 81.14 101.85 81.79 102.71 82.43 103.56 C 83.74 102.22 84.68 99.82 86.90 99.90 C 89.63 99.88 92.32 100.48 95.04 100.66 C 94.76 99.95 94.21 98.51 93.93 97.80 C 94.22 96.97 94.51 96.15 94.80 95.33 C 94.31 94.89 93.34 94.00 92.85 93.56 C 95.62 94.33 97.94 96.03 98.25 99.12 C 101.80 95.92 102.95 91.25 103.85 86.75 C 103.22 86.92 101.97 87.27 101.34 87.45 C 101.40 88.26 101.47 89.07 101.54 89.89 C 101.00 90.07 99.91 90.43 99.37 90.61 C 100.32 92.30 101.42 94.17 99.56 95.70 C 99.46 94.68 99.27 92.64 99.17 91.63 C 97.15 91.69 95.13 91.75 93.11 91.77 C 95.25 87.99 99.62 86.97 103.42 85.62 M 22.08 85.92 C 23.48 90.65 24.02 96.08 28.32 99.26 C 27.55 96.15 31.89 92.16 34.22 95.32 C 33.73 95.38 32.76 95.49 32.27 95.55 C 32.06 97.28 31.83 99.02 31.60 100.75 C 34.45 100.79 37.22 100.11 39.81 98.94 C 36.86 95.44 33.59 90.81 28.33 91.71 C 28.17 92.66 27.83 94.57 27.67 95.52 C 27.36 95.19 26.74 94.53 26.43 94.20 C 25.98 90.68 30.75 91.13 32.97 90.28 C 29.29 88.96 25.63 87.56 22.08 85.92 M 95.37 89.98 C 95.55 91.36 96.24 91.61 97.42 90.73 C 97.23 89.34 96.54 89.09 95.37 89.98 M 45.52 105.76 C 48.11 108.16 50.40 110.96 53.62 112.57 C 52.32 109.90 51.11 107.19 50.12 104.39 C 48.54 104.68 46.91 104.89 45.52 105.76 M 76.75 104.42 C 75.86 107.49 74.55 110.40 73.02 113.19 C 77.27 111.97 79.73 108.26 81.91 104.73 C 80.19 104.64 78.47 104.54 76.75 104.42 Z" />
<path fill="#c49136" opacity="1.00" d=" M 63.25 102.22 C 65.72 101.77 65.41 105.19 64.76 106.70 C 62.03 107.88 62.61 103.72 63.25 102.22 Z" />
</g>
</svg>
