<?xml version="1.0" encoding="UTF-8" ?>
<!DOCTYPE svg PUBLIC "-//W3C//DTD SVG 1.1//EN" "http://www.w3.org/Graphics/SVG/1.1/DTD/svg11.dtd">
<svg width="16pt" height="16pt" viewBox="0 0 16 16" version="1.1" xmlns="http://www.w3.org/2000/svg">
<g id="#4f5d73ff">
<path fill="#4f5d73" opacity="1.00" d=" M 6.38 0.00 L 9.42 0.00 C 12.63 0.74 15.10 3.27 16.00 6.41 L 16.00 9.40 C 15.27 12.61 12.74 15.07 9.63 16.00 L 6.59 16.00 C 3.38 15.26 0.90 12.73 0.00 9.60 L 0.00 6.59 C 0.73 3.38 3.26 0.92 6.38 0.00 M 2.81 5.22 C 2.91 7.07 2.91 8.93 2.80 10.78 C 5.85 10.78 8.90 10.77 11.95 10.84 C 13.38 8.94 13.36 7.06 11.97 5.16 C 8.91 5.24 5.86 5.21 2.81 5.22 Z" />
</g>
<g id="#d1d5dbff">
<path fill="#d1d5db" opacity="1.00" d=" M 2.81 5.22 C 5.86 5.21 8.91 5.24 11.97 5.16 C 13.36 7.06 13.38 8.94 11.95 10.84 C 8.90 10.77 5.85 10.78 2.80 10.78 C 2.91 8.93 2.91 7.07 2.81 5.22 Z" />
</g>
</svg>
