<?xml version="1.0" encoding="UTF-8" ?>
<!DOCTYPE svg PUBLIC "-//W3C//DTD SVG 1.1//EN" "http://www.w3.org/Graphics/SVG/1.1/DTD/svg11.dtd">
<svg width="48pt" height="48pt" viewBox="0 0 48 48" version="1.1" xmlns="http://www.w3.org/2000/svg">
<g id="#f44336ff">
<path fill="#f44336" opacity="1.00" d=" M 13.20 7.28 C 21.70 1.31 34.04 2.33 41.88 8.98 C 39.73 11.59 37.71 14.31 35.32 16.71 C 31.82 13.42 26.41 12.07 21.91 13.96 C 14.51 17.19 13.96 29.14 20.79 33.23 C 24.39 35.43 29.15 35.21 32.83 33.31 C 32.81 31.68 32.80 30.06 32.80 28.43 C 30.27 28.43 27.74 28.43 25.21 28.42 C 25.22 25.78 25.21 23.13 25.19 20.48 C 31.21 20.46 37.22 20.43 43.24 20.50 C 43.27 26.36 43.22 32.23 43.26 38.10 C 37.03 43.11 28.50 45.49 20.65 43.53 C 14.15 42.21 8.42 37.51 6.11 31.27 C 2.80 22.90 5.71 12.40 13.20 7.28 Z" />
</g>
</svg>
