<?xml version="1.0" encoding="UTF-8" ?>
<!DOCTYPE svg PUBLIC "-//W3C//DTD SVG 1.1//EN" "http://www.w3.org/Graphics/SVG/1.1/DTD/svg11.dtd">
<svg width="196pt" height="196pt" viewBox="0 0 196 196" version="1.1" xmlns="http://www.w3.org/2000/svg">
<g id="#009fedff">
<path fill="#009fed" opacity="1.00" d=" M 0.00 0.00 L 196.00 0.00 L 196.00 196.00 L 0.00 196.00 L 0.00 0.00 M 40.46 53.44 C 35.74 57.17 32.95 62.98 32.74 68.97 C 32.60 87.96 32.69 106.96 32.69 125.95 C 32.73 131.33 34.48 136.85 38.36 140.70 C 44.69 147.32 54.16 149.66 63.00 150.40 C 89.03 150.68 115.06 150.47 141.09 150.46 C 147.20 150.34 153.67 148.53 157.94 143.93 C 161.91 139.53 163.39 133.45 163.53 127.65 C 163.84 115.54 163.47 103.42 163.60 91.31 C 139.27 91.20 114.95 91.30 90.62 91.31 C 90.63 93.75 90.63 96.19 90.62 98.63 C 105.54 98.71 120.47 98.63 135.40 98.67 C 135.44 107.77 135.20 116.88 135.40 125.98 C 135.44 130.22 135.01 134.84 132.24 138.25 C 129.26 141.74 124.41 142.77 120.01 142.77 C 107.65 142.80 95.30 142.79 82.94 142.77 C 78.07 142.81 72.95 140.98 69.86 137.08 C 67.32 134.01 66.66 129.86 66.67 125.99 C 66.73 107.34 66.73 88.70 66.67 70.06 C 66.66 65.97 67.44 61.52 70.37 58.46 C 73.73 54.61 79.04 53.20 83.99 53.22 C 106.12 53.21 128.25 53.21 150.37 53.22 C 150.40 50.69 150.41 48.16 150.40 45.64 C 121.93 45.63 93.45 45.64 64.98 45.63 C 56.37 46.01 47.34 47.95 40.46 53.44 Z" />
</g>
<g id="#ffffffff">
<path fill="#ffffff" opacity="1.00" d=" M 40.46 53.44 C 47.34 47.95 56.37 46.01 64.98 45.63 C 93.45 45.64 121.93 45.63 150.40 45.64 C 150.41 48.16 150.40 50.69 150.37 53.22 C 128.25 53.21 106.12 53.21 83.99 53.22 C 79.04 53.20 73.73 54.61 70.37 58.46 C 67.44 61.52 66.66 65.97 66.67 70.06 C 66.73 88.70 66.73 107.34 66.67 125.99 C 66.66 129.86 67.32 134.01 69.86 137.08 C 72.95 140.98 78.07 142.81 82.94 142.77 C 95.30 142.79 107.65 142.80 120.01 142.77 C 124.41 142.77 129.26 141.74 132.24 138.25 C 135.01 134.84 135.44 130.22 135.40 125.98 C 135.20 116.88 135.44 107.77 135.40 98.67 C 120.47 98.63 105.54 98.71 90.62 98.63 C 90.63 96.19 90.63 93.75 90.62 91.31 C 114.95 91.30 139.27 91.20 163.60 91.31 C 163.47 103.42 163.84 115.54 163.53 127.65 C 163.39 133.45 161.91 139.53 157.94 143.93 C 153.67 148.53 147.20 150.34 141.09 150.46 C 115.06 150.47 89.03 150.68 63.00 150.40 C 54.16 149.66 44.69 147.32 38.36 140.70 C 34.48 136.85 32.73 131.33 32.69 125.95 C 32.69 106.96 32.60 87.96 32.74 68.97 C 32.95 62.98 35.74 57.17 40.46 53.44 Z" />
</g>
</svg>
