<?xml version="1.0" encoding="UTF-8" ?>
<!DOCTYPE svg PUBLIC "-//W3C//DTD SVG 1.1//EN" "http://www.w3.org/Graphics/SVG/1.1/DTD/svg11.dtd">
<svg width="200pt" height="200pt" viewBox="0 0 200 200" version="1.1" xmlns="http://www.w3.org/2000/svg">
<g id="#000000ff">
<path fill="#000000" opacity="1.00" d=" M 73.68 36.47 C 74.11 26.84 81.40 17.85 90.97 16.08 C 100.62 13.70 111.42 19.05 115.44 28.12 C 117.62 32.71 118.02 37.97 116.90 42.91 C 114.96 50.28 109.06 56.52 101.63 58.48 C 93.01 61.05 83.18 57.62 77.88 50.38 C 75.04 46.32 73.64 41.41 73.68 36.47 M 91.59 22.67 C 84.91 24.37 79.85 31.07 80.47 38.02 C 80.26 46.96 89.53 54.29 98.20 52.50 C 106.62 51.35 112.71 42.25 110.54 34.00 C 108.94 25.68 99.66 20.31 91.59 22.67 Z" />
<path fill="#000000" opacity="1.00" d=" M 154.36 62.43 C 157.99 58.51 162.90 55.80 168.24 55.21 C 179.34 53.64 190.69 61.91 192.38 73.03 C 194.48 83.20 188.21 94.05 178.49 97.56 C 173.61 99.19 168.20 99.23 163.32 97.58 C 156.88 95.17 151.59 89.71 149.81 83.01 C 147.71 75.94 149.60 68.01 154.36 62.43 M 165.43 62.63 C 158.19 65.15 153.83 73.75 156.14 81.08 C 157.91 88.33 165.66 93.31 172.99 92.11 C 180.67 91.23 186.91 83.69 186.02 75.94 C 185.95 65.97 174.54 58.88 165.43 62.63 Z" />
<path fill="#000000" opacity="1.00" d=" M 12.26 75.31 C 17.57 68.70 26.87 65.98 34.99 68.16 C 39.72 69.52 43.98 72.40 46.89 76.38 C 51.22 82.38 52.26 90.57 49.46 97.43 C 47.01 103.82 41.32 108.73 34.74 110.51 C 30.22 111.60 25.45 111.29 21.09 109.71 C 14.75 107.18 9.68 101.62 8.00 94.97 C 6.15 88.24 7.79 80.68 12.26 75.31 M 24.55 74.68 C 18.48 76.54 13.75 82.53 13.96 88.97 C 13.36 97.21 20.74 104.80 28.98 104.54 C 38.09 105.06 45.94 95.97 44.25 87.03 C 43.27 78.01 33.10 71.71 24.55 74.68 Z" />
<path fill="#000000" opacity="1.00" d=" M 125.62 135.71 C 131.39 129.67 140.69 127.79 148.50 130.50 C 153.27 132.31 157.39 135.68 160.00 140.08 C 163.07 145.48 163.86 152.19 161.84 158.10 C 159.24 166.16 151.57 172.37 143.08 172.95 C 136.67 173.60 130.15 171.20 125.55 166.73 C 121.99 163.01 119.70 158.15 119.23 153.01 C 118.82 146.69 120.92 140.08 125.62 135.71 M 136.43 136.57 C 130.93 138.26 126.71 143.23 125.96 148.94 C 124.44 157.07 130.87 165.51 139.08 166.32 C 148.28 167.90 157.39 159.37 156.26 150.05 C 156.09 140.43 145.41 133.48 136.43 136.57 Z" />
<path fill="#000000" opacity="1.00" d=" M 46.60 143.56 C 52.17 140.50 59.03 139.77 65.04 141.97 C 72.14 144.36 77.56 150.78 79.07 158.08 C 79.56 158.61 80.08 159.13 80.61 159.63 C 79.67 160.91 79.37 162.49 79.38 164.05 C 79.28 167.80 77.93 171.40 75.99 174.58 C 72.79 179.32 67.75 182.96 62.06 183.96 C 54.89 185.59 46.94 183.15 41.90 177.80 C 36.10 172.04 34.29 162.93 36.91 155.26 C 38.73 150.41 42.12 146.20 46.60 143.56 M 54.45 147.64 C 49.37 148.54 45.07 152.42 43.29 157.22 C 40.29 164.73 44.40 174.11 52.05 176.83 C 60.65 180.42 71.56 174.48 72.67 165.12 C 74.88 154.95 64.51 144.98 54.45 147.64 Z" />
</g>
<g id="#9999ffff">
<path fill="#9999ff" opacity="1.00" d=" M 91.59 22.67 C 99.66 20.31 108.94 25.68 110.54 34.00 C 112.71 42.25 106.62 51.35 98.20 52.50 C 89.53 54.29 80.26 46.96 80.47 38.02 C 79.85 31.07 84.91 24.37 91.59 22.67 Z" />
<path fill="#9999ff" opacity="1.00" d=" M 165.43 62.63 C 174.54 58.88 185.95 65.97 186.02 75.94 C 186.91 83.69 180.67 91.23 172.99 92.11 C 165.66 93.31 157.91 88.33 156.14 81.08 C 153.83 73.75 158.19 65.15 165.43 62.63 Z" />
<path fill="#9999ff" opacity="1.00" d=" M 24.55 74.68 C 33.10 71.71 43.27 78.01 44.25 87.03 C 45.94 95.97 38.09 105.06 28.98 104.54 C 20.74 104.80 13.36 97.21 13.96 88.97 C 13.75 82.53 18.48 76.54 24.55 74.68 Z" />
<path fill="#9999ff" opacity="1.00" d=" M 136.43 136.57 C 145.41 133.48 156.09 140.43 156.26 150.05 C 157.39 159.37 148.28 167.90 139.08 166.32 C 130.87 165.51 124.44 157.07 125.96 148.94 C 126.71 143.23 130.93 138.26 136.43 136.57 Z" />
<path fill="#9999ff" opacity="1.00" d=" M 54.45 147.64 C 64.51 144.98 74.88 154.95 72.67 165.12 C 71.56 174.48 60.65 180.42 52.05 176.83 C 44.40 174.11 40.29 164.73 43.29 157.22 C 45.07 152.42 49.37 148.54 54.45 147.64 Z" />
</g>
<g id="#666666ff">
<path fill="#666666" opacity="1.00" d=" M 115.44 28.12 C 135.77 28.82 156.71 37.97 168.24 55.21 C 162.90 55.80 157.99 58.51 154.36 62.43 C 145.57 50.70 131.25 44.24 116.90 42.91 C 118.02 37.97 117.62 32.71 115.44 28.12 Z" />
<path fill="#666666" opacity="1.00" d=" M 34.99 68.16 C 44.83 54.45 58.33 43.46 73.68 36.47 C 73.64 41.41 75.04 46.32 77.88 50.38 C 65.71 56.48 54.81 65.26 46.89 76.38 C 43.98 72.40 39.72 69.52 34.99 68.16 Z" />
<path fill="#666666" opacity="1.00" d=" M 163.32 97.58 C 168.20 99.23 173.61 99.19 178.49 97.56 C 176.85 113.16 169.98 128.07 160.00 140.08 C 157.39 135.68 153.27 132.31 148.50 130.50 C 156.13 121.02 161.57 109.68 163.32 97.58 Z" />
<path fill="#666666" opacity="1.00" d=" M 20.17 109.41 L 21.09 109.71 C 25.45 111.29 30.22 111.60 34.74 110.51 C 34.23 122.52 38.54 134.63 46.60 143.56 C 42.12 146.20 38.73 150.41 36.91 155.26 C 25.09 143.30 19.14 126.11 20.17 109.41 Z" />
<path fill="#666666" opacity="1.00" d=" M 80.61 159.63 C 93.76 161.46 107.20 158.33 119.23 153.01 C 119.70 158.15 121.99 163.01 125.55 166.73 C 110.26 174.16 92.82 176.82 75.99 174.58 C 77.93 171.40 79.28 167.80 79.38 164.05 C 79.37 162.49 79.67 160.91 80.61 159.63 Z" />
</g>
</svg>
