<?xml version="1.0" encoding="UTF-8" ?>
<!DOCTYPE svg PUBLIC "-//W3C//DTD SVG 1.1//EN" "http://www.w3.org/Graphics/SVG/1.1/DTD/svg11.dtd">
<svg width="48pt" height="48pt" viewBox="0 0 48 48" version="1.1" xmlns="http://www.w3.org/2000/svg">
<g id="#040707ff">
<path fill="#040707" opacity="1.00" d=" M 0.00 0.00 L 12.98 0.00 C 6.55 3.90 3.66 11.78 4.22 19.05 C 3.72 27.19 8.58 35.61 16.45 38.32 C 25.18 41.94 34.98 40.10 43.44 36.60 C 43.46 30.70 43.48 24.79 43.43 18.89 C 41.24 18.90 39.05 18.90 36.86 18.89 C 36.83 23.98 36.86 29.06 36.83 34.14 C 32.42 36.44 27.09 37.61 22.30 35.80 C 16.96 34.13 13.53 28.89 12.66 23.56 C 11.32 16.74 12.35 8.67 17.53 3.62 C 19.66 1.43 22.71 0.63 25.59 0.00 L 48.00 0.00 L 48.00 48.00 L 0.00 48.00 L 0.00 0.00 Z" />
</g>
</svg>
