<?xml version="1.0" encoding="UTF-8" ?>
<!DOCTYPE svg PUBLIC "-//W3C//DTD SVG 1.1//EN" "http://www.w3.org/Graphics/SVG/1.1/DTD/svg11.dtd">
<svg width="256pt" height="256pt" viewBox="0 0 256 256" version="1.1" xmlns="http://www.w3.org/2000/svg">
<g id="#000000ff">
<path fill="#000000" opacity="1.00" d=" M 48.43 32.56 C 51.56 31.87 54.78 31.99 57.96 31.99 C 106.34 32.03 154.71 31.95 203.09 32.03 C 214.22 31.93 224.10 41.89 223.97 53.01 C 224.02 103.04 224.02 153.08 223.97 203.11 C 224.02 214.21 214.13 224.07 203.03 223.97 C 153.00 224.02 102.97 224.02 52.94 223.97 C 41.84 224.07 31.94 214.18 32.03 203.08 C 31.98 153.05 31.98 103.02 32.03 52.99 C 31.96 43.47 39.15 34.60 48.43 32.56 M 117.33 176.04 C 108.43 165.37 99.55 154.68 90.66 144.00 C 78.21 160.00 65.77 175.99 53.34 191.99 C 103.11 192.00 152.88 192.00 202.64 191.99 C 186.66 170.66 170.65 149.33 154.66 128.01 C 142.20 144.01 129.78 160.03 117.33 176.04 Z" />
</g>
</svg>
