<?xml version="1.0" encoding="UTF-8" ?>
<!DOCTYPE svg PUBLIC "-//W3C//DTD SVG 1.1//EN" "http://www.w3.org/Graphics/SVG/1.1/DTD/svg11.dtd">
<svg width="16pt" height="16pt" viewBox="0 0 16 16" version="1.1" xmlns="http://www.w3.org/2000/svg">
<g id="#16191fb2">
<path fill="#16191f" opacity="0.70" d=" M 0.00 0.00 L 5.09 0.00 C 5.79 2.00 6.32 4.06 6.83 6.12 C 4.49 6.21 2.21 5.90 0.00 5.19 L 0.00 0.00 M 2.20 1.13 C -0.72 2.96 2.48 6.03 5.02 5.02 C 5.38 3.20 4.63 0.34 2.20 1.13 Z" />
</g>
<g id="#010b0a19">
<path fill="#010b0a" opacity="0.10" d=" M 5.09 0.00 L 10.77 0.00 C 10.33 3.04 9.99 6.11 10.00 9.19 C 10.76 7.32 11.74 5.71 14.04 5.93 C 11.79 7.26 11.62 8.72 14.08 9.86 C 12.45 9.90 10.81 9.93 9.18 10.05 C 9.69 12.05 10.23 14.05 10.92 16.00 L 5.24 16.00 C 5.67 12.97 5.99 9.91 6.02 6.84 C 5.24 9.74 2.52 10.24 0.00 10.98 L 0.00 5.19 C 2.21 5.90 4.49 6.21 6.83 6.12 C 6.32 4.06 5.79 2.00 5.09 0.00 Z" />
</g>
<g id="#008677b3">
<path fill="#008677" opacity="0.70" d=" M 10.77 0.00 L 16.00 0.00 L 16.00 4.87 C 15.51 5.14 14.53 5.67 14.04 5.93 C 11.74 5.71 10.76 7.32 10.00 9.19 C 9.99 6.11 10.33 3.04 10.77 0.00 M 12.20 1.12 C 10.53 2.09 10.10 6.24 12.96 4.96 C 16.09 5.06 15.11 -0.02 12.20 1.12 Z" />
</g>
<g id="#0404051e">
<path fill="#040405" opacity="0.12" d=" M 2.20 1.13 C 4.63 0.34 5.38 3.20 5.02 5.02 C 2.48 6.03 -0.72 2.96 2.20 1.13 Z" />
</g>
<g id="#0017151f">
<path fill="#001715" opacity="0.12" d=" M 12.20 1.12 C 15.11 -0.02 16.09 5.06 12.96 4.96 C 10.10 6.24 10.53 2.09 12.20 1.12 Z" />
</g>
<g id="#16191fb3">
<path fill="#16191f" opacity="0.70" d=" M 0.00 10.98 C 2.52 10.24 5.24 9.74 6.02 6.84 C 5.99 9.91 5.67 12.97 5.24 16.00 L 0.00 16.00 L 0.00 10.98 M 2.19 11.15 C -0.14 12.20 1.45 15.80 3.80 14.88 C 5.99 13.33 5.35 9.54 2.19 11.15 Z" />
</g>
<g id="#008576b2">
<path fill="#008576" opacity="0.70" d=" M 9.18 10.05 C 10.81 9.93 12.45 9.90 14.08 9.86 C 14.56 10.19 15.52 10.85 16.00 11.18 L 16.00 16.00 L 10.92 16.00 C 10.23 14.05 9.69 12.05 9.18 10.05 M 10.98 10.98 C 10.24 13.02 12.23 16.45 14.34 14.34 C 16.45 12.23 13.02 10.24 10.98 10.98 Z" />
</g>
<g id="#0404051f">
<path fill="#040405" opacity="0.12" d=" M 2.19 11.15 C 5.35 9.54 5.99 13.33 3.80 14.88 C 1.45 15.80 -0.14 12.20 2.19 11.15 Z" />
</g>
<g id="#0017141f">
<path fill="#001714" opacity="0.12" d=" M 10.98 10.98 C 13.02 10.24 16.45 12.23 14.34 14.34 C 12.23 16.45 10.24 13.02 10.98 10.98 Z" />
</g>
</svg>
