<?xml version="1.0" encoding="UTF-8" ?>
<!DOCTYPE svg PUBLIC "-//W3C//DTD SVG 1.1//EN" "http://www.w3.org/Graphics/SVG/1.1/DTD/svg11.dtd">
<svg width="40pt" height="40pt" viewBox="0 0 40 40" version="1.1" xmlns="http://www.w3.org/2000/svg">
<g id="#f4a24aff">
<path fill="#f4a24a" opacity="1.00" d=" M 9.98 2.97 C 17.63 -1.85 28.48 -0.17 34.49 6.52 C 35.72 7.47 35.95 8.62 35.18 9.95 C 32.78 11.29 31.66 8.08 29.92 7.13 C 23.15 1.75 12.37 3.31 7.26 10.22 C 3.74 14.66 3.09 20.89 5.02 26.15 C 4.18 27.09 3.27 27.96 2.38 28.84 C -2.46 19.98 1.19 7.85 9.98 2.97 Z" />
<path fill="#f4a24a" opacity="1.00" d=" M 10.74 11.96 C 11.25 10.30 13.62 10.54 14.08 12.06 C 14.95 14.71 16.00 17.31 16.62 20.03 C 15.68 20.96 14.78 21.94 13.89 22.93 C 13.35 21.25 12.80 19.57 12.20 17.91 C 11.19 20.45 10.16 22.98 9.19 25.53 C 8.42 25.20 6.86 24.53 6.08 24.20 C 7.60 20.10 9.16 16.02 10.74 11.96 Z" />
</g>
<g id="#e95635fb">
<path fill="#e95635" opacity="1.00" d=" M 23.13 13.03 C 26.56 11.21 26.64 16.19 27.89 18.12 C 31.56 18.27 35.25 17.96 38.91 18.30 C 40.45 19.31 39.60 21.38 39.58 22.86 C 38.43 30.49 32.44 37.17 24.92 39.03 C 16.25 41.73 6.26 36.92 2.38 28.84 C 3.27 27.96 4.18 27.09 5.02 26.15 C 5.60 25.64 5.73 24.85 6.08 24.20 L 6.08 24.20 C 6.86 24.53 8.42 25.20 9.19 25.53 C 8.62 27.10 7.95 28.62 7.44 30.21 C 11.20 35.00 17.82 37.25 23.73 35.78 C 30.21 34.31 35.42 28.47 36.07 21.84 C 33.05 21.74 30.02 21.81 27.00 21.78 C 25.35 22.12 24.76 20.44 24.13 19.31 C 22.31 23.11 21.07 27.31 18.78 30.82 C 18.34 30.89 17.44 31.03 16.99 31.10 C 15.41 28.63 14.95 25.64 13.89 22.93 C 14.78 21.94 15.68 20.96 16.62 20.03 L 16.76 19.89 C 17.21 21.33 17.67 22.77 18.23 24.18 C 19.96 20.50 21.36 16.68 23.13 13.03 Z" />
</g>
</svg>
