<?xml version="1.0" encoding="UTF-8" ?>
<!DOCTYPE svg PUBLIC "-//W3C//DTD SVG 1.1//EN" "http://www.w3.org/Graphics/SVG/1.1/DTD/svg11.dtd">
<svg width="32pt" height="32pt" viewBox="0 0 32 32" version="1.1" xmlns="http://www.w3.org/2000/svg">
<g id="#e38433ff">
<path fill="#e38433" opacity="1.00" d=" M 2.74 2.59 C 4.47 2.39 6.21 2.23 7.95 2.15 C 10.15 4.41 12.82 6.48 13.67 9.67 C 14.77 12.08 14.36 14.79 14.46 17.36 C 14.05 17.77 13.22 18.59 12.81 19.01 C 13.18 20.44 13.97 21.67 15.07 22.67 C 16.02 21.80 18.36 20.92 17.29 19.24 C 15.84 16.52 16.20 13.42 16.37 10.48 C 17.02 11.25 17.67 12.03 18.32 12.82 C 18.42 15.00 19.67 16.73 22.04 16.64 C 22.39 15.99 23.10 14.69 23.45 14.05 C 23.11 13.49 22.43 12.38 22.08 11.82 C 21.49 11.79 20.30 11.74 19.71 11.71 C 19.21 11.17 18.20 10.11 17.69 9.57 C 17.58 8.63 17.47 7.68 17.35 6.73 C 14.37 6.56 12.33 4.28 10.40 2.29 C 16.72 2.29 23.07 1.92 29.38 2.51 C 29.53 10.15 29.39 17.78 29.47 25.42 C 27.37 25.74 25.21 25.72 23.16 26.29 C 20.31 27.78 17.94 30.02 15.37 31.92 C 15.73 29.89 16.12 27.86 16.51 25.83 C 11.91 25.75 7.29 26.16 2.72 25.48 C 2.73 17.85 2.69 10.22 2.74 2.59 Z" />
</g>
</svg>
