<?xml version="1.0" encoding="UTF-8" ?>
<!DOCTYPE svg PUBLIC "-//W3C//DTD SVG 1.1//EN" "http://www.w3.org/Graphics/SVG/1.1/DTD/svg11.dtd">
<svg width="64pt" height="64pt" viewBox="0 0 64 64" version="1.1" xmlns="http://www.w3.org/2000/svg">
<g id="#67c52aff">
<path fill="#67c52a" opacity="1.00" d=" M 28.38 6.32 C 30.81 6.23 33.24 6.22 35.67 6.28 C 36.26 7.71 36.82 9.16 37.53 10.54 C 40.37 13.24 44.53 13.36 47.75 11.22 C 48.46 11.81 49.15 12.42 49.81 13.06 C 50.82 14.08 51.79 15.14 52.76 16.20 C 51.83 18.75 51.28 21.42 51.48 24.14 C 49.79 24.07 48.07 24.08 46.40 23.74 C 44.27 22.12 42.50 20.07 40.36 18.45 C 33.63 14.30 24.07 16.01 19.36 22.41 C 14.14 28.77 15.50 38.96 21.93 43.98 C 26.84 47.93 34.13 48.72 39.66 45.62 C 42.21 44.23 43.95 41.83 46.26 40.13 C 48.13 39.72 50.05 39.69 51.95 39.53 L 51.75 40.45 C 50.70 42.83 51.89 45.15 52.90 47.30 C 51.38 49.01 49.77 50.63 48.09 52.19 C 45.61 51.55 42.95 50.02 40.43 51.37 C 37.38 51.96 37.00 55.53 34.84 57.18 C 32.82 57.45 30.77 57.43 28.74 57.52 L 28.37 56.74 C 27.40 54.46 26.32 51.86 23.57 51.34 C 20.99 49.89 18.33 51.61 15.83 52.35 C 14.23 50.64 12.60 48.96 11.09 47.17 C 12.34 44.94 13.73 42.38 12.07 39.96 C 11.50 37.06 8.65 36.35 6.22 35.57 C 5.95 33.13 5.94 30.67 6.10 28.23 C 7.58 27.68 9.08 27.18 10.53 26.52 C 11.87 25.00 12.43 22.93 12.96 21.01 C 12.56 19.35 11.78 17.83 11.15 16.26 C 12.85 14.55 14.57 12.87 16.34 11.23 C 17.91 11.87 19.46 12.56 21.02 13.21 C 22.93 12.46 24.83 11.69 26.72 10.87 C 27.24 9.34 27.82 7.84 28.38 6.32 Z" />
</g>
<g id="#00000030">
<path fill="#000000" opacity="0.19" d=" M 49.81 13.06 C 55.68 12.35 58.06 19.88 55.15 24.12 C 53.26 28.17 48.34 27.63 44.74 28.81 C 42.83 30.75 41.44 34.22 43.33 36.63 C 45.08 39.63 49.05 38.82 51.95 39.53 C 50.05 39.69 48.13 39.72 46.26 40.13 C 43.95 41.83 42.21 44.23 39.66 45.62 C 34.13 48.72 26.84 47.93 21.93 43.98 C 20.96 41.67 20.57 39.19 20.42 36.70 C 21.19 37.78 21.97 38.85 22.75 39.92 C 29.13 40.14 35.52 40.20 41.89 39.86 C 41.83 38.69 41.79 37.53 41.75 36.36 C 40.49 36.33 39.22 36.32 37.96 36.30 C 38.75 33.07 40.04 30.00 41.45 26.99 C 41.62 26.28 41.96 24.87 42.13 24.17 C 36.58 23.85 31.02 23.88 25.47 23.96 C 25.82 22.67 25.85 20.99 27.27 20.36 C 31.29 18.33 36.01 18.92 40.36 18.45 C 42.50 20.07 44.27 22.12 46.40 23.74 C 48.07 24.08 49.79 24.07 51.48 24.14 C 51.28 21.42 51.83 18.75 52.76 16.20 C 51.79 15.14 50.82 14.08 49.81 13.06 Z" />
</g>
<g id="#0000004d">
<path fill="#000000" opacity="0.30" d=" M 19.36 22.41 C 24.07 16.01 33.63 14.30 40.36 18.45 C 36.01 18.92 31.29 18.33 27.27 20.36 C 25.85 20.99 25.82 22.67 25.47 23.96 C 24.81 23.98 23.50 24.03 22.84 24.05 C 22.81 24.83 22.74 26.40 22.71 27.18 C 28.95 27.45 35.23 27.68 41.45 26.99 C 40.04 30.00 38.75 33.07 37.96 36.30 C 33.00 36.28 28.04 36.36 23.09 36.35 C 22.93 37.54 22.82 38.73 22.75 39.92 C 21.97 38.85 21.19 37.78 20.42 36.70 C 20.57 39.19 20.96 41.67 21.93 43.98 C 15.50 38.96 14.14 28.77 19.36 22.41 M 22.67 30.13 C 22.75 31.32 22.84 32.51 22.93 33.70 C 27.98 33.71 33.03 33.73 38.08 33.72 C 38.15 32.52 38.22 31.32 38.29 30.11 C 33.08 29.99 27.87 30.00 22.67 30.13 Z" />
</g>
<g id="#3c3c3fff">
<path fill="#3c3c3f" opacity="1.00" d=" M 22.84 24.05 C 23.50 24.03 24.81 23.98 25.47 23.96 C 31.02 23.88 36.58 23.85 42.13 24.17 C 41.96 24.87 41.62 26.28 41.45 26.99 C 35.23 27.68 28.95 27.45 22.71 27.18 C 22.74 26.40 22.81 24.83 22.84 24.05 Z" />
</g>
<g id="#3b3b3efd">
<path fill="#3b3b3e" opacity="1.00" d=" M 22.67 30.13 C 27.87 30.00 33.08 29.99 38.29 30.11 C 38.22 31.32 38.15 32.52 38.08 33.72 C 33.03 33.73 27.98 33.71 22.93 33.70 C 22.84 32.51 22.75 31.32 22.67 30.13 Z" />
</g>
<g id="#3b3b3efe">
<path fill="#3b3b3e" opacity="1.00" d=" M 23.09 36.35 C 28.04 36.36 33.00 36.28 37.96 36.30 C 39.22 36.32 40.49 36.33 41.75 36.36 C 41.79 37.53 41.83 38.69 41.89 39.86 C 35.52 40.20 29.13 40.14 22.75 39.92 C 22.82 38.73 22.93 37.54 23.09 36.35 Z" />
</g>
<g id="#0000004f">
<path fill="#000000" opacity="0.31" d=" M 52.90 47.30 C 51.89 45.15 50.70 42.83 51.75 40.45 C 56.56 43.11 56.69 51.19 51.62 53.63 C 48.87 54.50 45.87 54.16 43.15 55.14 C 40.08 56.81 37.80 60.33 33.98 60.24 C 31.82 60.46 30.28 58.73 28.74 57.52 C 30.77 57.43 32.82 57.45 34.84 57.18 C 37.00 55.53 37.38 51.96 40.43 51.37 C 42.95 50.02 45.61 51.55 48.09 52.19 C 49.77 50.63 51.38 49.01 52.90 47.30 Z" />
</g>
<g id="#00000052">
<path fill="#000000" opacity="0.32" d=" M 15.83 52.35 C 18.33 51.61 20.99 49.89 23.57 51.34 C 26.32 51.86 27.40 54.46 28.37 56.74 C 26.58 55.88 24.81 54.86 22.81 54.55 C 20.42 54.04 17.56 54.42 15.83 52.35 Z" />
</g>
</svg>
