<?xml version="1.0" encoding="UTF-8" ?>
<!DOCTYPE svg PUBLIC "-//W3C//DTD SVG 1.1//EN" "http://www.w3.org/Graphics/SVG/1.1/DTD/svg11.dtd">
<svg width="48pt" height="48pt" viewBox="0 0 48 48" version="1.1" xmlns="http://www.w3.org/2000/svg">
<g id="#ece8d4ff">
<path fill="#ece8d4" opacity="1.00" d=" M 0.00 0.00 L 48.00 0.00 L 48.00 48.00 L 0.00 48.00 L 0.00 0.00 M 16.16 9.26 C 12.02 13.63 11.84 20.63 14.10 25.94 C 17.32 33.09 28.98 33.65 32.41 26.35 C 32.21 30.15 32.65 34.70 29.61 37.56 C 25.54 40.72 17.98 39.69 16.44 34.22 C 15.41 34.23 14.39 34.24 13.37 34.26 C 14.39 41.42 23.13 43.06 28.98 41.22 C 33.29 39.95 35.42 35.25 35.26 31.03 C 35.27 23.02 35.19 15.01 35.24 6.99 C 34.48 7.00 32.96 7.00 32.20 7.01 C 32.24 8.19 32.34 10.55 32.38 11.73 C 29.92 5.18 20.64 4.57 16.16 9.26 Z" />
<path fill="#ece8d4" opacity="1.00" d=" M 20.42 9.51 C 23.92 7.72 28.80 8.84 30.67 12.44 C 33.20 17.16 33.06 24.07 28.59 27.59 C 24.79 30.61 18.51 28.81 16.76 24.32 C 14.71 19.39 15.47 12.43 20.42 9.51 Z" />
</g>
<g id="#73410eff">
<path fill="#73410e" opacity="1.00" d=" M 16.16 9.26 C 20.64 4.57 29.92 5.18 32.38 11.73 C 32.34 10.55 32.24 8.19 32.20 7.01 C 32.96 7.00 34.48 7.00 35.24 6.99 C 35.19 15.01 35.27 23.02 35.26 31.03 C 35.42 35.25 33.29 39.95 28.98 41.22 C 23.13 43.06 14.39 41.42 13.37 34.26 C 14.39 34.24 15.41 34.23 16.44 34.22 C 17.98 39.69 25.54 40.72 29.61 37.56 C 32.65 34.70 32.21 30.15 32.41 26.35 C 28.98 33.65 17.32 33.09 14.10 25.94 C 11.84 20.63 12.02 13.63 16.16 9.26 M 20.42 9.51 C 15.47 12.43 14.71 19.39 16.76 24.32 C 18.51 28.81 24.79 30.61 28.59 27.59 C 33.06 24.07 33.20 17.16 30.67 12.44 C 28.80 8.84 23.92 7.72 20.42 9.51 Z" />
</g>
</svg>
