<?xml version="1.0" encoding="UTF-8" ?>
<!DOCTYPE svg PUBLIC "-//W3C//DTD SVG 1.1//EN" "http://www.w3.org/Graphics/SVG/1.1/DTD/svg11.dtd">
<svg width="300pt" height="146pt" viewBox="0 0 300 146" version="1.1" xmlns="http://www.w3.org/2000/svg">
<g id="#e94436ff">
<path fill="#e94436" opacity="1.00" d=" M 107.24 0.00 L 110.54 0.00 C 116.38 0.95 121.91 3.66 125.99 7.99 C 131.95 13.99 133.91 23.42 131.43 31.40 C 129.53 38.04 123.87 42.62 118.38 46.35 C 103.35 55.51 88.14 64.39 72.79 73.03 C 61.59 66.60 50.44 60.07 39.09 53.89 C 32.14 50.08 23.94 47.54 16.11 50.06 C 43.03 34.23 70.08 18.62 97.19 3.13 C 100.25 1.30 103.77 0.58 107.24 0.00 Z" />
</g>
<g id="#109d58ff">
<path fill="#109d58" opacity="1.00" d=" M 170.81 12.74 C 176.52 1.73 191.36 -3.16 202.39 2.65 C 230.16 18.45 257.76 34.55 285.36 50.64 C 293.20 54.06 299.36 61.54 300.00 70.25 L 300.00 74.73 C 299.38 78.50 298.72 82.38 296.65 85.67 C 293.85 90.56 289.01 93.77 283.99 96.04 C 275.88 98.64 267.07 96.43 260.14 91.82 C 249.37 85.38 238.41 79.28 227.56 72.99 C 211.43 63.60 195.23 54.33 179.20 44.77 C 168.71 38.31 164.44 23.50 170.81 12.74 Z" />
</g>
<g id="#4385f3ff">
<path fill="#4385f3" opacity="1.00" d=" M 16.11 50.06 C 23.94 47.54 32.14 50.08 39.09 53.89 C 50.44 60.07 61.59 66.60 72.79 73.03 C 88.37 82.18 103.93 91.36 119.57 100.39 C 125.44 103.66 130.09 109.24 131.68 115.82 C 134.32 125.65 129.80 136.82 121.21 142.21 C 113.86 146.92 103.86 147.06 96.35 142.62 C 69.20 127.07 42.13 111.40 15.13 95.59 C 11.14 93.60 7.38 90.97 4.64 87.40 C -0.85 80.22 -0.94 69.90 2.81 61.92 C 5.42 56.30 10.65 52.59 16.11 50.06 Z" />
</g>
<g id="#fabc05ff">
<path fill="#fabc05" opacity="1.00" d=" M 227.56 72.99 C 238.41 79.28 249.37 85.38 260.14 91.82 C 267.07 96.43 275.88 98.64 283.99 96.04 C 257.07 111.82 230.06 127.46 202.95 142.92 C 199.88 144.74 196.36 145.56 192.85 146.00 L 190.25 146.00 C 182.92 145.22 176.08 141.12 171.81 135.14 C 167.71 129.40 166.87 121.81 168.56 115.07 C 170.60 108.12 175.97 102.61 182.22 99.20 C 197.46 90.67 212.34 81.53 227.56 72.99 Z" />
</g>
</svg>
