<?xml version="1.0" encoding="UTF-8" ?>
<!DOCTYPE svg PUBLIC "-//W3C//DTD SVG 1.1//EN" "http://www.w3.org/Graphics/SVG/1.1/DTD/svg11.dtd">
<svg width="764pt" height="725pt" viewBox="0 0 764 725" version="1.1" xmlns="http://www.w3.org/2000/svg">
<g id="#ffffffff">
<path fill="#ffffff" opacity="1.00" d=" M 0.00 0.00 L 764.00 0.00 L 764.00 725.00 L 0.00 725.00 L 0.00 0.00 M 239.98 6.15 C 209.80 23.58 179.48 40.78 149.54 58.63 C 144.92 61.43 139.83 64.25 137.25 69.23 C 135.06 73.57 134.20 78.40 132.91 83.05 C 130.92 90.47 131.73 98.61 135.60 105.31 C 142.39 118.47 149.06 131.70 156.37 144.59 C 160.09 151.11 163.27 157.92 166.27 164.79 C 167.47 167.86 167.98 171.87 165.62 174.54 C 142.83 201.28 125.03 232.26 113.42 265.42 C 111.41 271.18 104.54 272.11 99.37 273.22 C 92.45 272.90 85.47 272.75 78.55 273.32 C 70.06 273.73 61.53 274.11 53.05 274.91 C 44.68 275.04 36.20 274.77 27.98 276.65 C 21.12 278.73 16.44 284.56 11.61 289.50 C 7.07 293.77 4.02 299.71 3.98 306.01 C 4.02 342.67 4.00 379.33 4.00 415.99 C 4.03 421.56 5.39 427.35 9.25 431.55 C 13.56 436.29 18.00 441.06 23.33 444.67 C 29.46 448.66 37.01 447.88 43.94 448.80 C 51.17 449.07 58.42 449.07 65.67 449.33 C 72.80 450.45 80.16 450.06 87.36 449.75 C 92.92 450.17 98.48 450.66 104.01 451.37 C 106.88 451.88 109.83 452.93 111.81 455.18 C 114.08 457.64 114.75 461.04 115.96 464.06 C 126.49 491.78 141.37 517.83 159.85 541.01 C 162.16 544.05 165.21 546.62 166.74 550.18 C 168.56 557.34 163.68 563.69 161.12 570.00 C 151.56 587.28 142.12 604.64 133.52 622.43 C 131.14 627.34 131.67 633.09 132.49 638.32 C 134.35 644.57 134.81 651.62 139.22 656.76 C 142.73 661.20 147.96 663.60 152.64 666.56 C 178.80 682.06 205.24 697.09 231.52 712.39 C 236.76 715.29 241.78 718.78 247.58 720.53 C 252.40 721.86 257.40 720.57 262.11 719.40 C 268.90 717.52 276.72 716.04 281.14 709.98 C 287.90 700.64 293.77 690.69 300.17 681.10 C 305.27 673.12 310.72 665.33 315.19 656.96 C 317.77 652.51 320.56 647.80 325.17 645.20 C 328.47 643.24 332.52 643.91 336.00 645.01 C 339.82 646.25 343.88 646.30 347.86 646.23 C 352.66 647.97 358.00 647.85 363.08 648.25 C 374.00 649.51 385.01 648.83 395.98 649.00 C 409.37 648.19 422.74 646.82 435.90 644.11 C 440.60 642.92 444.47 646.40 446.76 650.09 C 453.38 658.53 458.29 668.09 464.10 677.08 C 469.89 686.48 475.79 695.81 481.81 705.07 C 484.05 708.47 486.59 711.81 490.02 714.10 C 493.56 716.31 497.67 717.30 501.63 718.50 C 506.34 719.82 511.15 721.70 516.14 720.86 C 522.24 720.12 527.35 716.49 532.64 713.70 C 561.79 697.26 590.66 680.35 619.68 663.70 C 623.77 661.31 627.63 658.15 629.71 653.79 C 631.63 649.74 632.45 645.30 633.75 641.03 C 635.94 634.16 635.62 626.34 632.02 619.99 C 624.22 605.32 617.20 590.26 609.26 575.66 C 606.04 569.61 601.44 564.09 600.17 557.18 C 599.79 554.29 599.21 550.83 601.66 548.66 C 624.23 522.22 642.18 491.75 653.71 458.93 C 654.58 456.19 656.05 453.21 659.00 452.26 C 672.74 448.78 687.03 450.63 701.00 449.28 C 708.35 448.71 715.75 449.39 723.08 448.46 C 728.57 447.73 734.34 448.64 739.59 446.47 C 747.05 443.59 752.32 437.28 757.60 431.56 C 760.51 428.50 762.24 424.44 762.44 420.23 C 763.60 412.21 763.40 404.10 763.37 396.03 C 762.97 381.37 762.86 366.68 763.36 352.02 C 762.99 345.70 762.76 339.35 763.23 333.02 C 763.41 323.68 762.61 314.32 763.45 305.01 C 762.72 295.83 755.41 289.67 749.56 283.40 C 746.64 280.42 743.04 278.09 739.05 276.86 C 729.96 274.03 720.35 275.56 711.03 274.69 C 704.39 273.69 697.67 274.07 691.00 273.75 L 691.03 273.18 C 682.58 272.86 674.11 273.00 665.66 273.11 C 662.02 271.88 657.48 271.28 655.39 267.65 C 653.88 264.56 653.06 261.20 651.78 258.02 C 640.00 227.02 622.71 198.12 601.04 173.02 C 599.22 171.08 599.93 168.18 600.26 165.83 C 601.96 158.34 607.04 152.33 610.45 145.60 C 617.89 130.99 625.39 116.42 632.75 101.78 C 636.16 95.53 635.49 87.92 633.51 81.32 C 631.98 76.21 631.05 70.70 627.71 66.37 C 624.05 61.34 618.14 58.90 612.98 55.77 C 586.13 40.41 559.46 24.74 532.54 9.51 C 526.63 6.54 520.90 2.26 514.04 2.12 C 507.74 2.56 501.73 4.73 495.74 6.56 C 490.77 8.03 486.47 11.34 483.70 15.71 C 473.60 30.44 464.41 45.77 455.10 61.00 C 452.03 65.91 448.85 70.78 445.21 75.29 C 443.47 77.33 440.96 79.66 438.05 78.71 C 423.58 75.61 408.81 74.05 394.04 73.67 C 387.06 72.73 380.02 73.14 373.04 73.80 C 357.54 73.96 342.17 76.40 326.94 79.03 C 320.15 76.10 316.78 68.88 313.26 62.80 C 303.96 47.81 294.14 33.15 284.76 18.21 C 281.14 12.46 275.76 7.43 269.01 5.80 C 264.03 4.57 259.13 2.91 254.01 2.32 C 249.09 2.09 244.17 3.60 239.98 6.15 Z" />
<path fill="#ffffff" opacity="1.00" d=" M 278.65 161.43 C 312.08 143.57 350.16 134.74 388.02 135.52 C 420.94 136.03 453.72 144.11 483.18 158.81 C 486.87 160.58 490.56 162.40 493.84 164.88 C 496.02 171.62 498.93 178.09 501.28 184.77 C 511.14 211.70 518.24 239.79 520.76 268.41 C 515.15 263.26 510.49 257.21 505.08 251.87 C 492.55 239.36 478.96 227.99 465.27 216.80 C 445.31 200.81 423.90 186.50 400.84 175.39 C 379.31 165.09 355.96 157.99 332.02 156.91 C 309.99 155.55 288.11 160.60 267.57 168.24 C 270.73 165.18 274.86 163.53 278.65 161.43 Z" />
<path fill="#ffffff" opacity="1.00" d=" M 246.98 207.75 C 258.15 205.33 269.65 205.58 281.00 206.04 C 305.11 208.16 328.36 215.86 350.35 225.69 C 374.96 236.66 398.22 250.44 420.59 265.43 C 454.08 287.74 485.52 312.96 516.10 339.08 C 515.23 345.33 513.21 351.35 511.33 357.36 C 505.11 375.96 496.25 393.77 484.41 409.45 C 483.04 411.32 481.79 413.26 480.57 415.22 C 443.74 400.06 409.62 379.29 374.76 360.21 C 337.81 339.86 300.28 319.82 259.88 307.16 C 246.59 303.12 233.01 299.44 219.06 298.96 C 205.01 298.81 190.44 302.51 179.45 311.60 C 169.53 319.59 163.43 331.22 159.39 343.09 C 162.30 304.40 175.58 266.53 197.33 234.40 C 199.28 231.23 201.52 228.13 204.82 226.25 C 217.47 217.38 231.76 210.70 246.98 207.75 Z" />
<path fill="#ffffff" opacity="1.00" d=" M 181.69 412.66 C 190.27 407.79 200.55 408.40 210.04 409.01 C 227.42 410.82 244.32 415.68 260.93 420.94 C 301.60 434.59 342.22 448.66 383.95 458.81 C 395.95 461.71 408.16 463.68 420.24 466.19 C 411.60 471.78 402.01 475.66 392.56 479.65 C 364.17 491.24 333.50 496.34 302.96 497.26 C 267.49 497.10 231.75 490.06 199.85 474.21 C 195.05 471.83 190.41 469.12 185.46 467.06 C 179.69 457.96 175.94 447.79 172.05 437.79 C 170.76 434.64 169.91 431.34 169.36 427.98 C 171.99 421.90 175.73 415.93 181.69 412.66 Z" />
</g>
<g id="#9d9d9dff">
<path fill="#9d9d9d" opacity="1.00" d=" M 239.98 6.15 C 244.17 3.60 249.09 2.09 254.01 2.32 C 259.13 2.91 264.03 4.57 269.01 5.80 C 275.76 7.43 281.14 12.46 284.76 18.21 C 294.14 33.15 303.96 47.81 313.26 62.80 C 316.78 68.88 320.15 76.10 326.94 79.03 C 342.17 76.40 357.54 73.96 373.04 73.80 C 380.02 73.14 387.06 72.73 394.04 73.67 C 408.81 74.05 423.58 75.61 438.05 78.71 C 440.96 79.66 443.47 77.33 445.21 75.29 C 448.85 70.78 452.03 65.91 455.10 61.00 C 464.41 45.77 473.60 30.44 483.70 15.71 C 486.47 11.34 490.77 8.03 495.74 6.56 C 501.73 4.73 507.74 2.56 514.04 2.12 C 520.90 2.26 526.63 6.54 532.54 9.51 C 559.46 24.74 586.13 40.41 612.98 55.77 C 618.14 58.90 624.05 61.34 627.71 66.37 C 631.05 70.70 631.98 76.21 633.51 81.32 C 635.49 87.92 636.16 95.53 632.75 101.78 C 625.39 116.42 617.89 130.99 610.45 145.60 C 607.04 152.33 601.96 158.34 600.26 165.83 C 599.93 168.18 599.22 171.08 601.04 173.02 C 622.71 198.12 640.00 227.02 651.78 258.02 C 653.06 261.20 653.88 264.56 655.39 267.65 C 657.48 271.28 662.02 271.88 665.66 273.11 C 673.98 274.74 682.56 273.35 691.00 273.75 C 697.67 274.07 704.39 273.69 711.03 274.69 C 720.35 275.56 729.96 274.03 739.05 276.86 C 743.04 278.09 746.64 280.42 749.56 283.40 C 755.41 289.67 762.72 295.83 763.45 305.01 C 762.61 314.32 763.41 323.68 763.23 333.02 C 762.76 339.35 762.99 345.70 763.36 352.02 C 762.86 366.68 762.97 381.37 763.37 396.03 C 763.40 404.10 763.60 412.21 762.44 420.23 C 762.38 417.59 762.54 414.88 761.80 412.33 C 758.07 407.71 753.01 404.40 748.88 400.15 C 739.09 391.26 729.10 382.58 719.73 373.24 C 710.20 365.09 701.84 355.73 692.72 347.16 C 686.78 341.49 681.13 335.51 674.91 330.15 C 666.20 321.16 656.99 312.69 648.17 303.81 C 638.97 295.70 630.60 286.70 621.80 278.17 C 616.67 272.61 610.57 268.09 605.35 262.63 C 598.07 255.25 590.59 248.07 583.21 240.79 C 573.49 232.71 565.46 222.82 555.89 214.59 L 556.00 216.14 C 546.10 205.30 536.16 194.36 524.46 185.41 C 514.84 177.78 504.90 170.32 493.84 164.88 C 490.56 162.40 486.87 160.58 483.18 158.81 C 453.72 144.11 420.94 136.03 388.02 135.52 C 350.16 134.74 312.08 143.57 278.65 161.43 C 274.86 163.53 270.73 165.18 267.57 168.24 C 255.16 174.17 244.50 183.23 234.12 192.15 C 223.63 200.99 214.64 211.40 205.99 222.00 C 205.00 223.34 204.17 224.79 203.40 226.27 L 204.82 226.25 C 201.52 228.13 199.28 231.23 197.33 234.40 C 175.58 266.53 162.30 304.40 159.39 343.09 C 158.39 354.37 158.11 365.74 159.12 377.03 C 158.45 379.01 158.53 381.15 159.64 382.97 C 160.38 395.98 163.38 408.73 166.58 421.33 C 167.11 423.69 168.28 425.83 169.36 427.98 C 169.91 431.34 170.76 434.64 172.05 437.79 C 175.94 447.79 179.69 457.96 185.46 467.06 C 193.49 483.33 204.28 498.17 216.30 511.73 C 221.12 517.09 226.36 522.06 231.32 527.29 C 231.84 529.29 233.14 530.92 234.62 532.32 C 241.97 539.68 249.31 547.05 256.69 554.38 C 264.91 563.77 274.03 572.30 282.80 581.16 C 295.02 593.96 307.79 606.22 320.13 618.89 C 329.43 627.95 338.31 637.43 347.86 646.23 C 343.88 646.30 339.82 646.25 336.00 645.01 C 332.52 643.91 328.47 643.24 325.17 645.20 C 320.56 647.80 317.77 652.51 315.19 656.96 C 310.72 665.33 305.27 673.12 300.17 681.10 C 293.77 690.69 287.90 700.64 281.14 709.98 C 276.72 716.04 268.90 717.52 262.11 719.40 C 257.40 720.57 252.40 721.86 247.58 720.53 C 241.78 718.78 236.76 715.29 231.52 712.39 C 205.24 697.09 178.80 682.06 152.64 666.56 C 147.96 663.60 142.73 661.20 139.22 656.76 C 134.81 651.62 134.35 644.57 132.49 638.32 C 131.67 633.09 131.14 627.34 133.52 622.43 C 142.12 604.64 151.56 587.28 161.12 570.00 C 163.68 563.69 168.56 557.34 166.74 550.18 C 165.21 546.62 162.16 544.05 159.85 541.01 C 141.37 517.83 126.49 491.78 115.96 464.06 C 114.75 461.04 114.08 457.64 111.81 455.18 C 109.83 452.93 106.88 451.88 104.01 451.37 C 98.48 450.66 92.92 450.17 87.36 449.75 C 80.17 448.87 72.89 449.16 65.67 449.33 C 58.42 449.07 51.17 449.07 43.94 448.80 C 37.01 447.88 29.46 448.66 23.33 444.67 C 18.00 441.06 13.56 436.29 9.25 431.55 C 5.39 427.35 4.03 421.56 4.00 415.99 C 4.00 379.33 4.02 342.67 3.98 306.01 C 4.02 299.71 7.07 293.77 11.61 289.50 C 16.44 284.56 21.12 278.73 27.98 276.65 C 36.20 274.77 44.68 275.04 53.05 274.91 C 61.53 274.11 70.06 273.73 78.55 273.32 C 85.46 274.03 92.49 274.22 99.37 273.22 C 104.54 272.11 111.41 271.18 113.42 265.42 C 125.03 232.26 142.83 201.28 165.62 174.54 C 167.98 171.87 167.47 167.86 166.27 164.79 C 163.27 157.92 160.09 151.11 156.37 144.59 C 149.06 131.70 142.39 118.47 135.60 105.31 C 131.73 98.61 130.92 90.47 132.91 83.05 C 134.20 78.40 135.06 73.57 137.25 69.23 C 139.83 64.25 144.92 61.43 149.54 58.63 C 179.48 40.78 209.80 23.58 239.98 6.15 Z" />
</g>
<g id="#547dbfff">
<path fill="#547dbf" opacity="1.00" d=" M 267.57 168.24 C 288.11 160.60 309.99 155.55 332.02 156.91 C 355.96 157.99 379.31 165.09 400.84 175.39 C 423.90 186.50 445.31 200.81 465.27 216.80 C 478.96 227.99 492.55 239.36 505.08 251.87 C 510.49 257.21 515.15 263.26 520.76 268.41 L 520.77 268.60 C 520.59 274.09 522.04 279.46 522.04 284.94 C 522.37 303.23 520.16 321.48 516.49 339.38 L 516.10 339.08 C 485.52 312.96 454.08 287.74 420.59 265.43 C 398.22 250.44 374.96 236.66 350.35 225.69 C 328.36 215.86 305.11 208.16 281.00 206.04 C 269.65 205.58 258.15 205.33 246.98 207.75 C 231.76 210.70 217.47 217.38 204.82 226.25 L 203.40 226.27 C 204.17 224.79 205.00 223.34 205.99 222.00 C 214.64 211.40 223.63 200.99 234.12 192.15 C 244.50 183.23 255.16 174.17 267.57 168.24 Z" />
<path fill="#547dbf" opacity="1.00" d=" M 179.45 311.60 C 190.44 302.51 205.01 298.81 219.06 298.96 C 233.01 299.44 246.59 303.12 259.88 307.16 C 300.28 319.82 337.81 339.86 374.76 360.21 C 409.62 379.29 443.74 400.06 480.57 415.22 C 480.91 415.36 481.58 415.62 481.91 415.75 C 480.68 415.60 479.66 415.94 478.85 416.78 C 472.42 424.03 466.44 431.79 458.90 437.97 C 448.96 447.23 438.03 455.43 426.32 462.33 C 424.45 463.41 422.87 464.89 421.40 466.45 C 421.11 466.38 420.53 466.25 420.24 466.19 C 408.16 463.68 395.95 461.71 383.95 458.81 C 342.22 448.66 301.60 434.59 260.93 420.94 C 244.32 415.68 227.42 410.82 210.04 409.01 C 200.55 408.40 190.27 407.79 181.69 412.66 C 175.73 415.93 171.99 421.90 169.36 427.98 C 168.28 425.83 167.11 423.69 166.58 421.33 C 163.38 408.73 160.38 395.98 159.64 382.97 C 160.57 381.00 160.52 378.75 159.12 377.03 C 158.11 365.74 158.39 354.37 159.39 343.09 C 163.43 331.22 169.53 319.59 179.45 311.60 Z" />
</g>
<g id="#c3c3c3ff">
<path fill="#c3c3c3" opacity="1.00" d=" M 493.84 164.88 C 504.90 170.32 514.84 177.78 524.46 185.41 C 536.16 194.36 546.10 205.30 556.00 216.14 C 577.94 242.75 594.07 274.27 601.91 307.89 C 598.91 311.57 595.02 315.13 589.98 315.22 C 578.40 315.96 568.44 308.88 559.30 302.73 C 545.16 292.88 533.32 280.28 520.77 268.60 L 520.76 268.41 C 518.24 239.79 511.14 211.70 501.28 184.77 C 498.93 178.09 496.02 171.62 493.84 164.88 Z" />
<path fill="#c3c3c3" opacity="1.00" d=" M 516.10 339.08 L 516.49 339.38 C 529.72 349.91 543.50 360.05 558.95 367.10 C 567.33 370.85 576.71 374.57 586.00 372.15 C 595.55 370.02 602.79 362.60 607.71 354.51 C 608.66 362.62 608.41 370.85 607.49 378.95 C 606.59 390.21 604.91 401.43 602.21 412.41 C 598.29 415.07 594.80 418.34 590.58 420.55 C 578.81 426.93 565.23 429.07 551.98 429.30 C 527.88 431.40 503.92 425.16 481.91 415.75 C 481.58 415.62 480.91 415.36 480.57 415.22 C 481.79 413.26 483.04 411.32 484.41 409.45 C 496.25 393.77 505.11 375.96 511.33 357.36 C 513.21 351.35 515.23 345.33 516.10 339.08 Z" />
<path fill="#c3c3c3" opacity="1.00" d=" M 567.08 467.16 C 574.51 464.09 581.07 459.37 587.56 454.72 C 586.35 458.01 585.05 461.27 583.32 464.33 C 574.56 481.02 564.22 497.09 551.19 510.77 C 544.96 512.77 539.11 515.78 532.88 517.79 C 497.28 529.92 459.10 530.11 421.94 528.76 C 403.86 527.84 385.85 525.85 367.88 523.71 C 355.57 522.02 343.18 520.69 331.07 517.84 C 322.13 515.66 312.74 514.97 303.64 516.51 C 296.37 517.67 289.73 523.53 288.94 531.06 C 287.28 544.12 292.92 556.44 298.13 568.03 L 298.10 569.29 C 291.69 567.47 285.91 564.04 279.93 561.19 C 262.29 552.13 246.14 540.42 231.32 527.29 C 226.36 522.06 221.12 517.09 216.30 511.73 C 204.28 498.17 193.49 483.33 185.46 467.06 C 190.41 469.12 195.05 471.83 199.85 474.21 C 231.75 490.06 267.49 497.10 302.96 497.26 C 333.50 496.34 364.17 491.24 392.56 479.65 C 402.01 475.66 411.60 471.78 420.24 466.19 C 420.53 466.25 421.11 466.38 421.40 466.45 C 445.92 471.00 470.74 474.30 495.67 475.45 C 508.87 476.67 522.12 475.62 535.28 474.45 C 546.10 473.26 556.98 471.37 567.08 467.16 Z" />
</g>
<g id="#8c8c8cff">
<path fill="#8c8c8c" opacity="1.00" d=" M 555.89 214.59 C 565.46 222.82 573.49 232.71 583.21 240.79 C 590.59 248.07 598.07 255.25 605.35 262.63 C 610.57 268.09 616.67 272.61 621.80 278.17 C 630.60 286.70 638.97 295.70 648.17 303.81 C 656.99 312.69 666.20 321.16 674.91 330.15 C 681.13 335.51 686.78 341.49 692.72 347.16 C 701.84 355.73 710.20 365.09 719.73 373.24 C 729.10 382.58 739.09 391.26 748.88 400.15 C 753.01 404.40 758.07 407.71 761.80 412.33 C 762.54 414.88 762.38 417.59 762.44 420.23 C 762.24 424.44 760.51 428.50 757.60 431.56 C 752.32 437.28 747.05 443.59 739.59 446.47 C 734.34 448.64 728.57 447.73 723.08 448.46 C 715.75 449.39 708.35 448.71 701.00 449.28 C 687.03 450.63 672.74 448.78 659.00 452.26 C 656.05 453.21 654.58 456.19 653.71 458.93 C 642.18 491.75 624.23 522.22 601.66 548.66 C 599.21 550.83 599.79 554.29 600.17 557.18 C 601.44 564.09 606.04 569.61 609.26 575.66 C 617.20 590.26 624.22 605.32 632.02 619.99 C 635.62 626.34 635.94 634.16 633.75 641.03 C 632.45 645.30 631.63 649.74 629.71 653.79 C 627.63 658.15 623.77 661.31 619.68 663.70 C 590.66 680.35 561.79 697.26 532.64 713.70 C 527.35 716.49 522.24 720.12 516.14 720.86 C 511.15 721.70 506.34 719.82 501.63 718.50 C 497.67 717.30 493.56 716.31 490.02 714.10 C 486.59 711.81 484.05 708.47 481.81 705.07 C 475.79 695.81 469.89 686.48 464.10 677.08 C 458.29 668.09 453.38 658.53 446.76 650.09 C 444.47 646.40 440.60 642.92 435.90 644.11 C 422.74 646.82 409.37 648.19 395.98 649.00 C 385.01 648.83 374.00 649.51 363.08 648.25 C 358.00 647.85 352.66 647.97 347.86 646.23 C 338.31 637.43 329.43 627.95 320.13 618.89 C 307.79 606.22 295.02 593.96 282.80 581.16 C 274.03 572.30 264.91 563.77 256.69 554.38 C 249.31 547.05 241.97 539.68 234.62 532.32 C 233.14 530.92 231.84 529.29 231.32 527.29 C 246.14 540.42 262.29 552.13 279.93 561.19 C 285.91 564.04 291.69 567.47 298.10 569.29 L 298.13 568.03 C 298.95 569.08 299.74 570.27 300.99 570.88 C 343.17 587.60 390.50 591.14 434.67 580.66 C 466.81 573.24 497.15 558.43 523.00 537.98 C 530.58 531.95 537.63 525.30 544.63 518.62 C 547.14 516.28 549.21 513.55 551.19 510.77 C 564.22 497.09 574.56 481.02 583.32 464.33 C 585.05 461.27 586.35 458.01 587.56 454.72 C 589.12 452.15 590.50 449.48 591.56 446.67 C 595.87 435.52 600.15 424.23 602.21 412.41 C 604.91 401.43 606.59 390.21 607.49 378.95 C 608.41 370.85 608.66 362.62 607.71 354.51 C 608.56 347.01 607.38 339.50 606.56 332.06 C 605.45 323.93 604.16 315.79 601.91 307.89 C 594.07 274.27 577.94 242.75 556.00 216.14 L 555.89 214.59 Z" />
</g>
<g id="#3767b1ff">
<path fill="#3767b1" opacity="1.00" d=" M 520.77 268.60 C 533.32 280.28 545.16 292.88 559.30 302.73 C 568.44 308.88 578.40 315.96 589.98 315.22 C 595.02 315.13 598.91 311.57 601.91 307.89 C 604.16 315.79 605.45 323.93 606.56 332.06 C 607.38 339.50 608.56 347.01 607.71 354.51 C 602.79 362.60 595.55 370.02 586.00 372.15 C 576.71 374.57 567.33 370.85 558.95 367.10 C 543.50 360.05 529.72 349.91 516.49 339.38 C 520.16 321.48 522.37 303.23 522.04 284.94 C 522.04 279.46 520.59 274.09 520.77 268.60 Z" />
<path fill="#3767b1" opacity="1.00" d=" M 590.58 420.55 C 594.80 418.34 598.29 415.07 602.21 412.41 C 600.15 424.23 595.87 435.52 591.56 446.67 C 590.50 449.48 589.12 452.15 587.56 454.72 C 581.07 459.37 574.51 464.09 567.08 467.16 C 556.98 471.37 546.10 473.26 535.28 474.45 C 522.12 475.62 508.87 476.67 495.67 475.45 C 470.74 474.30 445.92 471.00 421.40 466.45 C 422.87 464.89 424.45 463.41 426.32 462.33 C 438.03 455.43 448.96 447.23 458.90 437.97 C 466.44 431.79 472.42 424.03 478.85 416.78 C 479.66 415.94 480.68 415.60 481.91 415.75 C 503.92 425.16 527.88 431.40 551.98 429.30 C 565.23 429.07 578.81 426.93 590.58 420.55 Z" />
<path fill="#3767b1" opacity="1.00" d=" M 532.88 517.79 C 539.11 515.78 544.96 512.77 551.19 510.77 C 549.21 513.55 547.14 516.28 544.63 518.62 C 537.63 525.30 530.58 531.95 523.00 537.98 C 497.15 558.43 466.81 573.24 434.67 580.66 C 390.50 591.14 343.17 587.60 300.99 570.88 C 299.74 570.27 298.95 569.08 298.13 568.03 C 292.92 556.44 287.28 544.12 288.94 531.06 C 289.73 523.53 296.37 517.67 303.64 516.51 C 312.74 514.97 322.13 515.66 331.07 517.84 C 343.18 520.69 355.57 522.02 367.88 523.71 C 385.85 525.85 403.86 527.84 421.94 528.76 C 459.10 530.11 497.28 529.92 532.88 517.79 Z" />
</g>
<g id="#949494e0">
<path fill="#949494" opacity="0.88" d=" M 78.55 273.32 C 85.47 272.75 92.45 272.90 99.37 273.22 C 92.49 274.22 85.46 274.03 78.55 273.32 Z" />
</g>
<g id="#9b9b9be1">
<path fill="#9b9b9b" opacity="0.88" d=" M 665.66 273.11 C 674.11 273.00 682.58 272.86 691.03 273.18 L 691.00 273.75 C 682.56 273.35 673.98 274.74 665.66 273.11 Z" />
</g>
<g id="#5d76a0e1">
<path fill="#5d76a0" opacity="0.88" d=" M 159.12 377.03 C 160.52 378.75 160.57 381.00 159.64 382.97 C 158.53 381.15 158.45 379.01 159.12 377.03 Z" />
</g>
<g id="#9c9c9ce1">
<path fill="#9c9c9c" opacity="0.88" d=" M 65.67 449.33 C 72.89 449.16 80.17 448.87 87.36 449.75 C 80.16 450.06 72.80 450.45 65.67 449.33 Z" />
</g>
</svg>
