<?xml version="1.0" encoding="UTF-8" ?>
<!DOCTYPE svg PUBLIC "-//W3C//DTD SVG 1.1//EN" "http://www.w3.org/Graphics/SVG/1.1/DTD/svg11.dtd">
<svg width="96pt" height="96pt" viewBox="0 0 96 96" version="1.1" xmlns="http://www.w3.org/2000/svg">
<g id="#fab908ff">
<path fill="#fab908" opacity="1.00" d=" M 46.25 4.26 C 49.45 3.00 53.34 5.67 53.45 9.07 C 53.57 11.67 53.66 14.29 53.33 16.87 C 52.51 20.38 47.88 22.35 44.94 20.05 C 41.57 17.84 42.60 13.39 42.49 9.98 C 42.29 7.49 43.92 5.09 46.25 4.26 Z" />
<path fill="#fab908" opacity="1.00" d=" M 45.39 27.17 C 48.74 24.99 53.63 28.03 53.47 31.92 C 53.52 42.63 53.52 53.35 53.47 64.06 C 53.58 67.32 50.17 70.14 46.98 69.46 C 44.57 68.91 42.44 66.65 42.53 64.09 C 42.48 53.38 42.48 42.67 42.52 31.96 C 42.41 29.95 43.73 28.16 45.39 27.17 Z" />
<path fill="#fab908" opacity="1.00" d=" M 46.23 75.26 C 49.42 74.00 53.32 76.65 53.45 80.03 C 53.57 82.64 53.66 85.27 53.33 87.87 C 52.51 91.38 47.87 93.36 44.93 91.05 C 41.57 88.82 42.60 84.36 42.49 80.95 C 42.30 78.48 43.93 76.10 46.23 75.26 Z" />
</g>
<g id="#ea4335ff">
<path fill="#ea4335" opacity="1.00" d=" M 26.38 21.95 C 29.65 20.25 34.11 23.15 33.94 26.84 C 34.03 33.58 34.09 40.35 33.91 47.09 C 33.82 51.45 27.50 53.80 24.62 50.49 C 22.59 48.53 23.06 45.50 22.97 42.95 C 23.09 37.58 22.87 32.20 23.06 26.83 C 23.02 24.69 24.40 22.73 26.38 21.95 Z" />
<path fill="#ea4335" opacity="1.00" d=" M 25.44 58.46 C 28.45 56.05 33.36 58.29 33.88 61.99 C 34.14 64.63 34.13 67.31 33.89 69.96 C 33.42 73.66 28.52 75.95 25.48 73.57 C 22.18 71.51 23.05 67.21 22.97 63.93 C 22.84 61.83 23.60 59.62 25.44 58.46 Z" />
</g>
<g id="#34a853ff">
<path fill="#34a853" opacity="1.00" d=" M 65.22 21.99 C 68.27 20.36 72.38 22.64 72.88 25.97 C 73.15 28.64 73.14 31.34 72.88 34.01 C 72.39 37.39 68.19 39.68 65.14 37.97 C 62.89 36.92 61.77 34.43 61.97 32.03 C 61.92 28.52 61.28 23.72 65.22 21.99 Z" />
<path fill="#34a853" opacity="1.00" d=" M 65.36 44.42 C 68.92 42.66 73.41 46.03 72.99 49.90 C 73.00 56.30 73.05 62.71 72.97 69.11 C 73.05 72.21 69.96 74.90 66.91 74.51 C 64.27 74.19 61.94 71.78 62.03 69.08 C 61.95 62.69 62.00 56.29 62.01 49.90 C 61.80 47.57 63.28 45.38 65.36 44.42 Z" />
</g>
<g id="#0066d9ff">
<path fill="#0066d9" opacity="1.00" d=" M 7.18 40.01 C 10.56 38.16 15.12 41.15 14.98 44.93 C 14.88 48.48 16.07 53.20 12.58 55.53 C 9.26 58.20 3.84 55.22 4.02 51.07 C 4.02 47.29 2.94 41.99 7.18 40.01 Z" />
</g>
<g id="#4285f4ff">
<path fill="#4285f4" opacity="1.00" d=" M 83.45 40.45 C 86.76 37.82 92.13 40.78 91.98 44.91 C 91.87 48.47 93.09 53.22 89.54 55.56 C 86.23 58.18 80.86 55.21 81.02 51.09 C 81.13 47.53 79.92 42.78 83.45 40.45 Z" />
</g>
</svg>
