<?xml version="1.0" encoding="UTF-8" ?>
<!DOCTYPE svg PUBLIC "-//W3C//DTD SVG 1.1//EN" "http://www.w3.org/Graphics/SVG/1.1/DTD/svg11.dtd">
<svg width="48pt" height="48pt" viewBox="0 0 48 48" version="1.1" xmlns="http://www.w3.org/2000/svg">
<g id="#c4e1ffff">
<path fill="#c4e1ff" opacity="1.00" d=" M 21.32 0.00 L 21.83 0.00 C 26.28 1.56 30.75 3.48 34.26 6.73 C 37.00 10.01 38.98 13.96 42.22 16.80 C 43.54 18.15 45.50 17.34 47.14 17.35 C 47.52 18.75 47.78 20.18 48.00 21.62 L 48.00 23.04 C 45.57 24.96 42.29 26.37 39.30 24.76 C 31.68 21.14 30.02 11.50 23.03 7.03 C 19.04 3.70 13.63 4.21 8.90 5.26 C 12.54 2.62 16.81 0.24 21.41 0.30 C 21.39 0.22 21.34 0.07 21.32 0.00 Z" />
</g>
<g id="#f5f5f5ff">
<path fill="#f5f5f5" opacity="1.00" d=" M 21.83 0.00 L 26.56 0.00 C 36.07 1.09 44.52 8.11 47.14 17.35 C 45.50 17.34 43.54 18.15 42.22 16.80 C 38.98 13.96 37.00 10.01 34.26 6.73 C 30.75 3.48 26.28 1.56 21.83 0.00 Z" />
</g>
<g id="#91bfffff">
<path fill="#91bfff" opacity="1.00" d=" M 8.90 5.26 C 13.63 4.21 19.04 3.70 23.03 7.03 C 30.02 11.50 31.68 21.14 39.30 24.76 C 42.29 26.37 45.57 24.96 48.00 23.04 L 48.00 25.65 C 47.81 27.35 47.61 29.11 46.98 30.71 C 44.30 32.53 41.47 34.85 38.00 34.45 C 31.49 33.99 26.80 28.70 23.41 23.62 C 20.11 18.74 15.26 13.78 8.96 13.80 C 5.11 13.98 2.73 17.20 0.27 19.69 C 1.48 14.12 4.42 8.84 8.90 5.26 Z" />
</g>
<g id="#4285f4ff">
<path fill="#4285f4" opacity="1.00" d=" M 0.27 19.69 C 2.73 17.20 5.11 13.98 8.96 13.80 C 15.26 13.78 20.11 18.74 23.41 23.62 C 26.80 28.70 31.49 33.99 38.00 34.45 C 41.47 34.85 44.30 32.53 46.98 30.71 C 46.06 34.19 44.21 37.36 41.83 40.04 C 37.57 41.73 32.83 43.32 28.30 41.66 C 22.59 40.06 18.63 35.42 15.07 30.99 C 12.77 28.36 9.34 25.67 5.63 26.61 C 3.60 27.53 2.46 29.61 1.02 31.22 C 0.63 29.83 0.29 28.44 0.00 27.03 L 0.00 21.37 C 0.07 20.95 0.20 20.11 0.27 19.69 Z" />
</g>
<g id="#255fdbff">
<path fill="#255fdb" opacity="1.00" d=" M 5.63 26.61 C 9.34 25.67 12.77 28.36 15.07 30.99 C 18.63 35.42 22.59 40.06 28.30 41.66 C 32.83 43.32 37.57 41.73 41.83 40.04 C 38.07 44.38 32.63 46.95 27.05 48.00 L 21.60 48.00 C 12.22 47.01 3.84 40.23 1.02 31.22 C 2.46 29.61 3.60 27.53 5.63 26.61 Z" />
</g>
</svg>
