<?xml version="1.0" encoding="UTF-8" ?>
<!DOCTYPE svg PUBLIC "-//W3C//DTD SVG 1.1//EN" "http://www.w3.org/Graphics/SVG/1.1/DTD/svg11.dtd">
<svg width="96pt" height="96pt" viewBox="0 0 96 96" version="1.1" xmlns="http://www.w3.org/2000/svg">
<g id="#000c1eff">
<path fill="#000c1e" opacity="1.00" d=" M 21.59 0.00 L 74.85 0.00 C 85.72 1.06 94.83 10.29 96.00 21.11 L 96.00 74.42 C 95.10 85.71 85.33 95.32 74.01 96.00 L 22.20 96.00 C 10.77 95.47 0.76 85.73 0.00 74.30 L 0.00 21.77 C 0.67 10.52 10.35 0.76 21.59 0.00 M 23.08 26.13 C 21.48 27.78 20.16 29.79 18.24 31.07 C 22.13 35.26 26.50 38.97 30.68 42.85 C 30.93 43.75 30.61 44.36 29.74 44.69 C 25.88 48.00 22.46 51.88 18.41 54.95 C 19.07 57.28 21.71 58.75 23.05 60.87 C 23.40 60.83 24.08 60.74 24.42 60.70 C 30.16 55.31 36.00 50.03 41.73 44.63 C 43.08 44.43 42.94 42.53 41.74 42.29 C 35.95 37.01 30.41 31.34 24.56 26.21 C 24.19 26.19 23.45 26.15 23.08 26.13 M 43.37 70.22 C 54.80 70.17 66.23 70.19 77.66 70.21 C 77.86 67.53 77.74 64.83 77.75 62.14 C 66.19 62.22 54.82 62.01 43.43 61.84 C 43.08 64.61 43.18 67.44 43.37 70.22 Z" />
</g>
<g id="#ffffffff">
<path fill="#ffffff" opacity="1.00" d=" M 23.08 26.13 C 23.45 26.15 24.19 26.19 24.56 26.21 C 30.41 31.34 35.95 37.01 41.74 42.29 C 42.94 42.53 43.08 44.43 41.73 44.63 C 36.00 50.03 30.16 55.31 24.42 60.70 C 24.08 60.74 23.40 60.83 23.05 60.87 C 21.71 58.75 19.07 57.28 18.41 54.95 C 22.46 51.88 25.88 48.00 29.74 44.69 C 30.61 44.36 30.93 43.75 30.68 42.85 C 26.50 38.97 22.13 35.26 18.24 31.07 C 20.16 29.79 21.48 27.78 23.08 26.13 Z" />
<path fill="#ffffff" opacity="1.00" d=" M 43.37 70.22 C 43.18 67.44 43.08 64.61 43.43 61.84 C 54.82 62.01 66.19 62.22 77.75 62.14 C 77.74 64.83 77.86 67.53 77.66 70.21 C 66.23 70.19 54.80 70.17 43.37 70.22 Z" />
</g>
</svg>
