<?xml version="1.0" encoding="UTF-8" ?>
<!DOCTYPE svg PUBLIC "-//W3C//DTD SVG 1.1//EN" "http://www.w3.org/Graphics/SVG/1.1/DTD/svg11.dtd">
<svg width="16pt" height="16pt" viewBox="0 0 16 16" version="1.1" xmlns="http://www.w3.org/2000/svg">
<g id="#fefefeff">
<path fill="#fefefe" opacity="1.00" d=" M 0.00 0.00 L 16.00 0.00 L 16.00 16.00 L 0.00 16.00 L 0.00 0.00 M 6.78 1.00 C 6.87 2.32 6.95 3.63 7.02 4.95 C 4.73 5.03 2.28 4.63 0.21 5.89 C 2.47 6.16 4.74 6.02 7.00 5.84 C 7.00 6.60 7.00 8.12 7.00 8.87 C 5.83 8.92 4.65 8.96 3.48 9.01 C 3.85 10.91 3.99 12.84 4.01 14.77 C 5.54 14.07 7.89 14.70 8.91 13.26 C 7.61 13.06 6.31 12.91 5.00 12.81 C 5.00 12.11 5.00 10.70 5.00 10.00 C 6.59 10.00 8.17 10.00 9.76 10.00 C 9.92 11.63 10.08 13.27 10.41 14.88 C 12.70 13.32 12.13 10.50 12.34 8.12 C 11.20 8.45 10.06 8.77 8.92 9.09 C 8.82 6.39 8.97 3.69 9.07 0.98 C 8.50 0.99 7.36 1.00 6.78 1.00 M 12.29 4.25 C 11.39 5.62 13.70 6.98 14.72 5.94 C 15.53 4.65 13.27 3.16 12.29 4.25 Z" />
</g>
<g id="#91100dff">
<path fill="#91100d" opacity="1.00" d=" M 6.78 1.00 C 7.36 1.00 8.50 0.99 9.07 0.98 C 8.97 3.69 8.82 6.39 8.92 9.09 C 10.06 8.77 11.20 8.45 12.34 8.12 C 12.13 10.50 12.70 13.32 10.41 14.88 C 10.08 13.27 9.92 11.63 9.76 10.00 C 8.17 10.00 6.59 10.00 5.00 10.00 C 5.00 10.70 5.00 12.11 5.00 12.81 C 6.31 12.91 7.61 13.06 8.91 13.26 C 7.89 14.70 5.54 14.07 4.01 14.77 C 3.99 12.84 3.85 10.91 3.48 9.01 C 4.65 8.96 5.83 8.92 7.00 8.87 C 7.00 8.12 7.00 6.60 7.00 5.84 C 4.74 6.02 2.47 6.16 0.21 5.89 C 2.28 4.63 4.73 5.03 7.02 4.95 C 6.95 3.63 6.87 2.32 6.78 1.00 Z" />
</g>
<g id="#a03838ff">
<path fill="#a03838" opacity="1.00" d=" M 12.29 4.25 C 13.27 3.16 15.53 4.65 14.72 5.94 C 13.70 6.98 11.39 5.62 12.29 4.25 Z" />
</g>
</svg>
