<?xml version="1.0" encoding="UTF-8" ?>
<!DOCTYPE svg PUBLIC "-//W3C//DTD SVG 1.1//EN" "http://www.w3.org/Graphics/SVG/1.1/DTD/svg11.dtd">
<svg width="32pt" height="32pt" viewBox="0 0 32 32" version="1.1" xmlns="http://www.w3.org/2000/svg">
<g id="#5d6146ff">
<path fill="#5d6146" opacity="1.00" d=" M 0.00 0.00 L 32.00 0.00 L 32.00 32.00 L 0.00 32.00 L 0.00 0.00 M 17.46 7.70 C 16.76 7.89 15.38 8.29 14.69 8.49 C 15.34 10.21 17.03 10.29 18.63 10.41 L 18.01 11.43 C 16.75 10.59 14.66 10.57 13.57 11.71 C 13.74 11.90 14.09 12.27 14.26 12.45 C 13.30 12.67 12.80 13.43 12.77 14.73 C 17.04 14.24 21.45 14.78 25.61 13.65 C 25.83 13.16 26.25 12.19 26.47 11.70 C 25.76 11.04 25.06 10.36 24.37 9.68 C 24.34 7.70 22.80 7.49 21.16 7.48 C 20.49 6.91 19.82 6.34 19.15 5.76 C 18.73 6.24 17.88 7.21 17.46 7.70 M 21.30 6.18 C 21.47 7.59 22.14 7.83 23.30 6.90 C 23.13 5.49 22.46 5.25 21.30 6.18 M 8.28 8.03 C 7.25 9.38 9.32 11.80 10.75 10.72 C 11.70 9.39 9.70 6.91 8.28 8.03 M 6.07 11.81 C 6.10 12.39 6.16 13.56 6.19 14.14 C 6.97 14.13 8.51 14.12 9.28 14.11 C 9.14 14.64 8.86 15.71 8.72 16.25 C 7.44 13.80 5.74 18.33 8.31 17.71 C 7.56 20.14 6.93 22.60 6.26 25.06 C 7.84 25.46 9.42 25.87 11.00 26.27 C 11.24 25.87 11.71 25.07 11.94 24.67 C 11.31 24.25 10.04 23.41 9.41 22.98 C 9.44 22.87 9.49 22.64 9.52 22.52 C 10.39 18.91 11.32 15.32 12.36 11.76 C 10.26 11.71 8.17 11.72 6.07 11.81 M 20.86 16.01 C 18.53 16.46 14.34 14.76 14.34 18.37 C 16.75 18.34 19.17 18.32 21.58 18.42 C 21.58 20.01 21.58 21.60 21.59 23.19 C 20.73 23.92 18.75 24.11 19.32 25.65 C 20.85 26.06 22.42 26.28 23.98 26.56 C 24.52 23.55 21.95 18.28 26.39 17.54 C 25.20 16.46 24.07 15.32 22.84 14.28 C 22.35 14.71 21.36 15.58 20.86 16.01 M 14.96 20.93 C 14.86 24.03 18.56 21.64 20.11 21.36 C 18.95 19.23 16.71 19.71 14.96 20.93 Z" />
</g>
<g id="#ffffffff">
<path fill="#ffffff" opacity="1.00" d=" M 17.46 7.70 C 17.88 7.21 18.73 6.24 19.15 5.76 C 19.82 6.34 20.49 6.91 21.16 7.48 C 22.80 7.49 24.34 7.70 24.37 9.68 C 23.45 9.77 21.60 9.94 20.67 10.02 C 20.70 10.51 20.77 11.48 20.80 11.96 C 22.69 11.85 24.58 11.76 26.47 11.70 C 26.25 12.19 25.83 13.16 25.61 13.65 C 21.45 14.78 17.04 14.24 12.77 14.73 C 12.80 13.43 13.30 12.67 14.26 12.45 C 15.52 12.45 16.71 12.20 17.83 11.72 L 18.01 11.43 L 18.63 10.41 C 17.03 10.29 15.34 10.21 14.69 8.49 C 15.38 8.29 16.76 7.89 17.46 7.70 Z" />
<path fill="#ffffff" opacity="1.00" d=" M 6.07 11.81 C 8.17 11.72 10.26 11.71 12.36 11.76 C 11.32 15.32 10.39 18.91 9.52 22.52 L 9.41 22.98 C 10.04 23.41 11.31 24.25 11.94 24.67 C 11.71 25.07 11.24 25.87 11.00 26.27 C 9.42 25.87 7.84 25.46 6.26 25.06 C 6.93 22.60 7.56 20.14 8.31 17.71 C 8.41 17.34 8.62 16.61 8.72 16.25 C 8.86 15.71 9.14 14.64 9.28 14.11 C 8.51 14.12 6.97 14.13 6.19 14.14 C 6.16 13.56 6.10 12.39 6.07 11.81 Z" />
<path fill="#ffffff" opacity="1.00" d=" M 20.86 16.01 C 21.36 15.58 22.35 14.71 22.84 14.28 C 24.07 15.32 25.20 16.46 26.39 17.54 C 21.95 18.28 24.52 23.55 23.98 26.56 C 22.42 26.28 20.85 26.06 19.32 25.65 C 18.75 24.11 20.73 23.92 21.59 23.19 C 21.58 21.60 21.58 20.01 21.58 18.42 C 19.17 18.32 16.75 18.34 14.34 18.37 C 14.34 14.76 18.53 16.46 20.86 16.01 Z" />
<path fill="#ffffff" opacity="1.00" d=" M 14.96 20.93 C 16.71 19.71 18.95 19.23 20.11 21.36 C 18.56 21.64 14.86 24.03 14.96 20.93 Z" />
</g>
<g id="#383d1cff">
<path fill="#383d1c" opacity="1.00" d=" M 21.30 6.18 C 22.46 5.25 23.13 5.49 23.30 6.90 C 22.14 7.83 21.47 7.59 21.30 6.18 Z" />
</g>
<g id="#fdfdfcff">
<path fill="#fdfdfc" opacity="1.00" d=" M 8.28 8.03 C 9.70 6.91 11.70 9.39 10.75 10.72 C 9.32 11.80 7.25 9.38 8.28 8.03 Z" />
</g>
<g id="#61644aff">
<path fill="#61644a" opacity="1.00" d=" M 20.67 10.02 C 21.60 9.94 23.45 9.77 24.37 9.68 C 25.06 10.36 25.76 11.04 26.47 11.70 C 24.58 11.76 22.69 11.85 20.80 11.96 C 20.77 11.48 20.70 10.51 20.67 10.02 Z" />
</g>
<g id="#3a3f1eff">
<path fill="#3a3f1e" opacity="1.00" d=" M 13.57 11.71 C 14.66 10.57 16.75 10.59 18.01 11.43 L 17.83 11.72 C 16.71 12.20 15.52 12.45 14.26 12.45 C 14.09 12.27 13.74 11.90 13.57 11.71 Z" />
</g>
<g id="#3e4323ff">
<path fill="#3e4323" opacity="1.00" d=" M 8.31 17.71 C 5.74 18.33 7.44 13.80 8.72 16.25 C 8.62 16.61 8.41 17.34 8.31 17.71 Z" />
</g>
<g id="#222702ff">
<path fill="#222702" opacity="1.00" d=" M 9.52 22.52 C 9.49 22.64 9.44 22.87 9.41 22.98 L 9.52 22.52 Z" />
</g>
</svg>
