<?xml version="1.0" encoding="UTF-8" ?>
<!DOCTYPE svg PUBLIC "-//W3C//DTD SVG 1.1//EN" "http://www.w3.org/Graphics/SVG/1.1/DTD/svg11.dtd">
<svg width="32pt" height="32pt" viewBox="0 0 32 32" version="1.1" xmlns="http://www.w3.org/2000/svg">
<g id="#5d6147ff">
<path fill="#5d6147" opacity="1.00" d=" M 0.00 0.00 L 32.00 0.00 L 32.00 32.00 L 0.00 32.00 L 0.00 0.00 M 15.20 8.31 C 13.69 11.36 19.33 8.63 17.96 11.85 C 15.85 11.96 13.48 11.84 12.61 14.21 L 11.84 14.05 C 11.81 13.64 11.75 12.82 11.72 12.41 C 9.12 11.91 12.27 7.99 8.95 8.06 C 6.22 7.32 10.74 12.33 8.00 11.93 C 4.41 11.63 6.32 15.07 9.02 14.18 C 8.68 17.86 6.85 21.21 6.26 24.86 C 8.06 25.77 10.04 26.21 12.07 26.01 C 12.29 24.12 10.43 23.74 9.22 22.86 C 10.07 20.19 10.97 17.53 11.67 14.81 C 12.50 16.08 13.86 19.78 14.25 16.25 L 15.09 16.15 C 13.85 20.66 23.19 15.70 22.02 21.00 C 22.91 23.82 18.62 23.34 18.87 25.97 C 28.62 30.49 20.51 18.79 25.78 17.64 C 26.58 16.01 24.82 15.72 23.73 15.18 L 24.03 14.06 C 28.11 15.61 25.57 6.61 21.00 11.90 C 19.68 8.63 25.28 11.36 23.82 8.29 C 22.04 7.92 20.51 7.01 19.01 6.02 C 18.00 7.21 16.71 7.94 15.20 8.31 M 16.21 20.20 C 12.55 22.90 20.22 23.78 19.03 19.97 C 18.32 20.03 16.92 20.14 16.21 20.20 Z" />
</g>
<g id="#f2f2f0ff">
<path fill="#f2f2f0" opacity="1.00" d=" M 15.20 8.31 C 16.71 7.94 18.00 7.21 19.01 6.02 C 20.51 7.01 22.04 7.92 23.82 8.29 C 25.28 11.36 19.68 8.63 21.00 11.90 C 25.57 6.61 28.11 15.61 24.03 14.06 C 20.93 14.09 17.79 13.86 14.77 14.61 C 14.23 14.51 13.15 14.31 12.61 14.21 C 13.48 11.84 15.85 11.96 17.96 11.85 C 19.33 8.63 13.69 11.36 15.20 8.31 Z" />
</g>
<g id="#edeeebff">
<path fill="#edeeeb" opacity="1.00" d=" M 8.00 11.93 C 10.74 12.33 6.22 7.32 8.95 8.06 C 12.27 7.99 9.12 11.91 11.72 12.41 C 11.75 12.82 11.81 13.64 11.84 14.05 L 11.67 14.81 C 10.97 17.53 10.07 20.19 9.22 22.86 C 10.43 23.74 12.29 24.12 12.07 26.01 C 10.04 26.21 8.06 25.77 6.26 24.86 C 6.85 21.21 8.68 17.86 9.02 14.18 C 6.32 15.07 4.41 11.63 8.00 11.93 Z" />
</g>
<g id="#414626ff">
<path fill="#414626" opacity="1.00" d=" M 11.84 14.05 L 12.61 14.21 C 13.15 14.31 14.23 14.51 14.77 14.61 C 16.36 14.85 19.54 15.34 21.13 15.58 C 19.13 15.86 17.10 15.93 15.09 16.15 L 14.25 16.25 C 13.86 19.78 12.50 16.08 11.67 14.81 L 11.84 14.05 Z" />
</g>
<g id="#a4a697ff">
<path fill="#a4a697" opacity="1.00" d=" M 14.77 14.61 C 17.79 13.86 20.93 14.09 24.03 14.06 L 23.73 15.18 C 22.87 15.33 22.00 15.46 21.13 15.58 C 19.54 15.34 16.36 14.85 14.77 14.61 Z" />
</g>
<g id="#f4f5f3ff">
<path fill="#f4f5f3" opacity="1.00" d=" M 21.13 15.58 C 22.00 15.46 22.87 15.33 23.73 15.18 C 24.82 15.72 26.58 16.01 25.78 17.64 C 20.51 18.79 28.62 30.49 18.87 25.97 C 18.62 23.34 22.91 23.82 22.02 21.00 C 23.19 15.70 13.85 20.66 15.09 16.15 C 17.10 15.93 19.13 15.86 21.13 15.58 Z" />
</g>
<g id="#f0f0eeff">
<path fill="#f0f0ee" opacity="1.00" d=" M 16.21 20.20 C 16.92 20.14 18.32 20.03 19.03 19.97 C 20.22 23.78 12.55 22.90 16.21 20.20 Z" />
</g>
</svg>
