<?xml version="1.0" encoding="UTF-8" ?>
<!DOCTYPE svg PUBLIC "-//W3C//DTD SVG 1.1//EN" "http://www.w3.org/Graphics/SVG/1.1/DTD/svg11.dtd">
<svg width="32pt" height="32pt" viewBox="0 0 32 32" version="1.1" xmlns="http://www.w3.org/2000/svg">
<g id="#230e0c25">
<path fill="#230e0c" opacity="0.15" d=" M 0.00 0.00 L 1.71 0.00 C 1.80 1.13 1.23 1.84 0.00 2.12 L 0.00 0.00 Z" />
<path fill="#230e0c" opacity="0.15" d=" M 29.88 0.00 L 32.00 0.00 L 32.00 1.93 C 30.92 1.72 30.21 1.08 29.88 0.00 Z" />
</g>
<g id="#dd301eff">
<path fill="#dd301e" opacity="1.00" d=" M 1.71 0.00 L 29.88 0.00 C 30.21 1.08 30.92 1.72 32.00 1.93 L 32.00 13.64 C 29.91 13.52 27.82 13.39 25.73 13.25 C 24.22 11.94 23.00 9.97 20.96 9.49 C 19.04 10.21 17.76 11.97 16.30 13.33 C 15.02 12.80 13.74 12.27 12.47 11.74 C 14.14 9.51 18.28 7.79 17.23 4.53 C 14.01 3.99 12.41 7.57 10.25 9.31 C 6.83 9.42 3.41 9.32 0.00 9.06 L 0.00 2.12 C 1.23 1.84 1.80 1.13 1.71 0.00 Z" />
</g>
<g id="#e0e0e0ff">
<path fill="#e0e0e0" opacity="1.00" d=" M 10.25 9.31 C 12.41 7.57 14.01 3.99 17.23 4.53 C 18.28 7.79 14.14 9.51 12.47 11.74 C 11.02 13.16 9.59 14.59 8.16 16.01 C 10.76 18.66 13.37 21.29 16.00 23.91 C 18.63 21.29 21.24 18.65 23.85 16.01 C 22.91 15.09 21.98 14.18 21.05 13.26 C 19.13 14.82 17.58 17.96 14.68 17.40 C 13.81 15.74 15.44 14.50 16.30 13.33 C 17.76 11.97 19.04 10.21 20.96 9.49 C 23.00 9.97 24.22 11.94 25.73 13.25 C 26.89 14.30 28.39 16.26 26.72 17.61 C 23.25 21.12 19.79 24.67 16.03 27.88 C 14.52 26.66 13.08 25.36 11.69 24.01 C 9.42 21.24 5.88 19.29 4.49 15.96 C 5.59 13.20 8.35 11.52 10.25 9.31 Z" />
</g>
<g id="#c42b1bff">
<path fill="#c42b1b" opacity="1.00" d=" M 0.00 9.06 C 3.41 9.32 6.83 9.42 10.25 9.31 C 8.35 11.52 5.59 13.20 4.49 15.96 C 5.88 19.29 9.42 21.24 11.69 24.01 C 7.84 24.76 3.92 25.03 0.00 25.02 L 0.00 9.06 Z" />
</g>
<g id="#c62b1bff">
<path fill="#c62b1b" opacity="1.00" d=" M 8.16 16.01 C 9.59 14.59 11.02 13.16 12.47 11.74 C 13.74 12.27 15.02 12.80 16.30 13.33 C 15.44 14.50 13.81 15.74 14.68 17.40 C 17.58 17.96 19.13 14.82 21.05 13.26 C 21.98 14.18 22.91 15.09 23.85 16.01 C 21.24 18.65 18.63 21.29 16.00 23.91 C 13.37 21.29 10.76 18.66 8.16 16.01 Z" />
</g>
<g id="#b42819ff">
<path fill="#b42819" opacity="1.00" d=" M 25.73 13.25 C 27.82 13.39 29.91 13.52 32.00 13.64 L 32.00 29.89 C 30.92 30.21 30.27 30.91 30.07 32.00 L 2.12 32.00 C 1.85 30.77 1.14 30.20 0.00 30.31 L 0.00 25.02 C 3.92 25.03 7.84 24.76 11.69 24.01 C 13.08 25.36 14.52 26.66 16.03 27.88 C 19.79 24.67 23.25 21.12 26.72 17.61 C 28.39 16.26 26.89 14.30 25.73 13.25 Z" />
</g>
<g id="#1e090825">
<path fill="#1e0908" opacity="0.15" d=" M 0.00 30.31 C 1.14 30.20 1.85 30.77 2.12 32.00 L 0.00 32.00 L 0.00 30.31 Z" />
<path fill="#1e0908" opacity="0.15" d=" M 30.07 32.00 C 30.27 30.91 30.92 30.21 32.00 29.89 L 32.00 32.00 L 30.07 32.00 Z" />
</g>
</svg>
