<?xml version="1.0" encoding="UTF-8" ?>
<!DOCTYPE svg PUBLIC "-//W3C//DTD SVG 1.1//EN" "http://www.w3.org/Graphics/SVG/1.1/DTD/svg11.dtd">
<svg width="16pt" height="16pt" viewBox="0 0 16 16" version="1.1" xmlns="http://www.w3.org/2000/svg">
<g id="#deecf2ff">
<path fill="#deecf2" opacity="1.00" d=" M 0.00 0.00 L 16.00 0.00 L 16.00 6.73 C 15.74 6.19 15.23 5.11 14.97 4.58 C 14.52 4.94 13.62 5.66 13.16 6.02 C 12.30 5.97 10.56 5.88 9.70 5.84 C 8.47 7.91 6.60 10.32 8.03 12.79 C 9.33 15.55 12.61 15.14 15.13 15.32 C 15.09 13.11 15.06 10.89 15.05 8.68 C 13.73 9.41 9.03 8.39 10.23 10.73 C 10.93 10.98 12.33 11.47 13.03 11.72 C 12.93 12.43 12.72 13.85 12.61 14.56 C 11.18 13.38 9.07 12.53 8.91 10.42 C 9.66 9.13 10.58 7.96 11.48 6.77 C 12.11 7.13 13.38 7.84 14.02 8.19 C 14.51 7.83 15.50 7.09 16.00 6.73 L 16.00 16.00 L 0.00 16.00 L 0.00 2.37 C 2.63 3.45 2.19 6.67 1.75 8.91 C 1.77 9.80 0.53 11.60 1.94 11.93 C 3.18 11.72 3.69 10.34 4.48 9.52 C 6.10 8.29 8.58 7.41 8.58 5.00 C 8.30 3.52 7.74 2.12 7.26 0.70 C 4.84 1.04 2.42 1.42 0.00 1.79 L 0.00 0.00 Z" />
<path fill="#deecf2" opacity="1.00" d=" M 5.99 7.77 C 4.07 6.51 2.27 2.59 5.66 2.08 C 7.17 3.74 6.38 5.87 5.99 7.77 Z" />
</g>
<g id="#a83a30ff">
<path fill="#a83a30" opacity="1.00" d=" M 0.00 1.79 C 2.42 1.42 4.84 1.04 7.26 0.70 C 7.74 2.12 8.30 3.52 8.58 5.00 C 8.58 7.41 6.10 8.29 4.48 9.52 C 3.69 10.34 3.18 11.72 1.94 11.93 C 0.53 11.60 1.77 9.80 1.75 8.91 C 2.19 6.67 2.63 3.45 0.00 2.37 L 0.00 1.79 M 5.99 7.77 C 6.38 5.87 7.17 3.74 5.66 2.08 C 2.27 2.59 4.07 6.51 5.99 7.77 Z" />
<path fill="#a83a30" opacity="1.00" d=" M 13.16 6.02 C 13.62 5.66 14.52 4.94 14.97 4.58 C 15.23 5.11 15.74 6.19 16.00 6.73 L 16.00 6.73 C 15.50 7.09 14.51 7.83 14.02 8.19 C 13.38 7.84 12.11 7.13 11.48 6.77 C 10.58 7.96 9.66 9.13 8.91 10.42 C 9.07 12.53 11.18 13.38 12.61 14.56 C 12.72 13.85 12.93 12.43 13.03 11.72 C 12.33 11.47 10.93 10.98 10.23 10.73 C 9.03 8.39 13.73 9.41 15.05 8.68 C 15.06 10.89 15.09 13.11 15.13 15.32 C 12.61 15.14 9.33 15.55 8.03 12.79 C 6.60 10.32 8.47 7.91 9.70 5.84 C 10.56 5.88 12.30 5.97 13.16 6.02 Z" />
</g>
</svg>
