<?xml version="1.0" encoding="UTF-8" ?>
<!DOCTYPE svg PUBLIC "-//W3C//DTD SVG 1.1//EN" "http://www.w3.org/Graphics/SVG/1.1/DTD/svg11.dtd">
<svg width="256pt" height="256pt" viewBox="0 0 256 256" version="1.1" xmlns="http://www.w3.org/2000/svg">
<g id="#ff6600ff">
<path fill="#ff6600" opacity="1.00" d=" M 0.00 0.00 L 256.00 0.00 L 256.00 256.00 L 0.00 256.00 L 0.00 0.00 M 75.54 62.91 C 90.06 90.32 104.90 117.57 119.25 145.06 C 119.53 163.03 119.29 181.01 119.36 198.99 C 124.98 199.01 130.61 199.00 136.23 198.99 C 136.22 181.98 136.25 164.96 136.21 147.94 C 136.00 145.55 137.60 143.60 138.59 141.57 C 152.56 115.36 166.51 89.13 180.44 62.91 C 174.24 62.89 168.04 62.90 161.83 62.90 C 150.69 85.30 139.00 107.45 128.35 130.09 C 125.31 123.37 122.32 116.62 118.96 110.05 C 111.07 94.32 103.45 78.45 95.40 62.82 C 88.78 62.99 82.16 62.85 75.54 62.91 Z" />
</g>
<g id="#ffffffff">
<path fill="#ffffff" opacity="1.00" d=" M 75.54 62.91 C 82.16 62.85 88.78 62.99 95.40 62.82 C 103.45 78.45 111.07 94.32 118.96 110.05 C 122.32 116.62 125.31 123.37 128.35 130.09 C 139.00 107.45 150.69 85.30 161.83 62.90 C 168.04 62.90 174.24 62.89 180.44 62.91 C 166.51 89.13 152.56 115.36 138.59 141.57 C 137.60 143.60 136.00 145.55 136.21 147.94 C 136.25 164.96 136.22 181.98 136.23 198.99 C 130.61 199.00 124.98 199.01 119.36 198.99 C 119.29 181.01 119.53 163.03 119.25 145.06 C 104.90 117.57 90.06 90.32 75.54 62.91 Z" />
</g>
</svg>
