<?xml version="1.0" encoding="UTF-8" ?>
<!DOCTYPE svg PUBLIC "-//W3C//DTD SVG 1.1//EN" "http://www.w3.org/Graphics/SVG/1.1/DTD/svg11.dtd">
<svg width="32pt" height="32pt" viewBox="0 0 32 32" version="1.1" xmlns="http://www.w3.org/2000/svg">
<g id="#01fc01ff">
<path fill="#01fc01" opacity="1.00" d=" M 0.00 0.00 L 32.00 0.00 L 32.00 32.00 L 0.00 32.00 L 0.00 0.00 M 6.98 1.03 L 7.05 2.01 C 6.93 4.02 6.93 6.04 7.05 8.05 C 3.65 6.92 5.35 11.30 5.03 13.19 C 4.54 13.14 3.54 13.03 3.05 12.97 C 3.45 14.96 1.46 20.16 5.03 18.81 C 5.35 20.70 3.65 25.08 7.05 23.96 C 6.93 25.97 6.93 27.98 7.05 29.99 L 7.00 30.97 C 12.33 31.07 17.67 31.07 23.02 30.97 L 22.96 29.99 C 23.08 27.97 23.07 25.94 22.84 23.93 C 26.20 25.24 24.83 21.36 24.57 19.50 L 25.06 18.85 C 26.99 19.20 27.84 17.05 29.08 16.00 C 27.82 14.92 26.95 12.76 24.96 13.14 C 24.66 11.25 26.33 6.92 22.95 8.05 C 23.07 6.04 23.07 4.02 22.95 2.01 L 23.00 1.03 C 17.66 0.93 12.32 0.93 6.98 1.03 Z" />
</g>
<g id="#18ac18ff">
<path fill="#18ac18" opacity="1.00" d=" M 6.98 1.03 C 12.32 0.93 17.66 0.93 23.00 1.03 L 22.95 2.01 C 17.65 2.00 12.35 1.99 7.05 2.01 L 6.98 1.03 Z" />
</g>
<g id="#3d433cff">
<path fill="#3d433c" opacity="1.00" d=" M 7.05 2.01 C 12.35 1.99 17.65 2.00 22.95 2.01 C 23.07 4.02 23.07 6.04 22.95 8.05 C 21.37 7.99 19.80 7.94 18.22 7.83 C 17.91 7.39 17.28 6.51 16.96 6.06 L 16.11 5.75 C 16.07 8.57 16.01 14.20 15.97 17.01 C 15.49 17.01 14.51 17.01 14.03 17.01 C 13.99 14.20 13.93 8.57 13.89 5.75 L 13.04 6.06 C 12.72 6.51 12.09 7.39 11.78 7.83 C 10.20 7.94 8.63 7.99 7.05 8.05 C 6.93 6.04 6.93 4.02 7.05 2.01 Z" />
</g>
<g id="#fefefeff">
<path fill="#fefefe" opacity="1.00" d=" M 11.78 7.83 C 12.09 7.39 12.72 6.51 13.04 6.06 C 13.04 8.79 13.04 14.24 13.04 16.97 L 14.03 17.01 C 14.51 17.01 15.49 17.01 15.97 17.01 L 16.96 16.97 C 16.96 14.24 16.96 8.79 16.96 6.06 C 17.28 6.51 17.91 7.39 18.22 7.83 C 18.87 9.00 20.49 8.86 21.55 9.47 C 22.21 10.48 21.54 12.80 23.12 12.84 C 23.58 12.91 24.50 13.07 24.96 13.14 C 24.99 15.04 25.02 16.95 25.06 18.85 C 21.17 18.30 22.42 23.26 19.04 24.09 C 17.17 25.91 12.34 27.53 11.79 24.17 C 11.43 22.75 9.46 23.20 8.41 22.57 C 7.77 21.55 8.48 19.22 6.89 19.15 C 6.42 19.07 5.50 18.90 5.03 18.81 C 5.02 16.94 5.02 15.07 5.03 13.19 C 5.50 13.11 6.42 12.93 6.88 12.84 C 8.44 12.76 7.79 10.48 8.45 9.48 C 9.51 8.86 11.13 8.99 11.78 7.83 Z" />
</g>
<g id="#eaeaeaff">
<path fill="#eaeaea" opacity="1.00" d=" M 13.04 6.06 L 13.89 5.75 C 13.93 8.57 13.99 14.20 14.03 17.01 L 13.04 16.97 C 13.04 14.24 13.04 8.79 13.04 6.06 Z" />
</g>
<g id="#e5e5e5ff">
<path fill="#e5e5e5" opacity="1.00" d=" M 16.11 5.75 L 16.96 6.06 C 16.96 8.79 16.96 14.24 16.96 16.97 L 15.97 17.01 C 16.01 14.20 16.07 8.57 16.11 5.75 Z" />
</g>
<g id="#435342ff">
<path fill="#435342" opacity="1.00" d=" M 5.03 13.19 C 5.35 11.30 3.65 6.92 7.05 8.05 C 7.00 9.65 6.96 11.24 6.88 12.84 C 6.42 12.93 5.50 13.11 5.03 13.19 Z" />
</g>
<g id="#ccceccff">
<path fill="#cccecc" opacity="1.00" d=" M 7.05 8.05 C 8.63 7.99 10.20 7.94 11.78 7.83 C 11.13 8.99 9.51 8.86 8.45 9.48 C 7.79 10.48 8.44 12.76 6.88 12.84 C 6.96 11.24 7.00 9.65 7.05 8.05 Z" />
</g>
<g id="#ced0ceff">
<path fill="#ced0ce" opacity="1.00" d=" M 18.22 7.83 C 19.80 7.94 21.37 7.99 22.95 8.05 C 23.00 9.64 23.04 11.24 23.12 12.84 C 21.54 12.80 22.21 10.48 21.55 9.47 C 20.49 8.86 18.87 9.00 18.22 7.83 Z" />
</g>
<g id="#435242ff">
<path fill="#435242" opacity="1.00" d=" M 22.95 8.05 C 26.33 6.92 24.66 11.25 24.96 13.14 C 24.50 13.07 23.58 12.91 23.12 12.84 C 23.04 11.24 23.00 9.64 22.95 8.05 Z" />
</g>
<g id="#3d3d3cff">
<path fill="#3d3d3c" opacity="1.00" d=" M 3.05 12.97 C 3.54 13.03 4.54 13.14 5.03 13.19 C 5.02 15.07 5.02 16.94 5.03 18.81 C 1.46 20.16 3.45 14.96 3.05 12.97 Z" />
<path fill="#3d3d3c" opacity="1.00" d=" M 24.96 13.14 C 26.95 12.76 27.82 14.92 29.08 16.00 C 27.84 17.05 26.99 19.20 25.06 18.85 C 25.02 16.95 24.99 15.04 24.96 13.14 Z" />
</g>
<g id="#475447ff">
<path fill="#475447" opacity="1.00" d=" M 5.03 18.81 C 5.50 18.90 6.42 19.07 6.89 19.15 C 6.96 20.75 7.00 22.35 7.05 23.96 C 3.65 25.08 5.35 20.70 5.03 18.81 Z" />
</g>
<g id="#d5d6d4ff">
<path fill="#d5d6d4" opacity="1.00" d=" M 6.89 19.15 C 8.48 19.22 7.77 21.55 8.41 22.57 C 9.46 23.20 11.43 22.75 11.79 24.17 C 10.21 24.06 8.63 24.01 7.05 23.96 C 7.00 22.35 6.96 20.75 6.89 19.15 Z" />
</g>
<g id="#c5c7c5ff">
<path fill="#c5c7c5" opacity="1.00" d=" M 19.04 24.09 C 22.42 23.26 21.17 18.30 25.06 18.85 L 24.57 19.50 C 22.84 20.32 23.12 22.35 22.84 23.93 C 21.57 23.97 20.31 24.02 19.04 24.09 Z" />
</g>
<g id="#394638ff">
<path fill="#394638" opacity="1.00" d=" M 22.84 23.93 C 23.12 22.35 22.84 20.32 24.57 19.50 C 24.83 21.36 26.20 25.24 22.84 23.93 Z" />
</g>
<g id="#3e463dff">
<path fill="#3e463d" opacity="1.00" d=" M 7.05 23.96 C 8.63 24.01 10.21 24.06 11.79 24.17 C 12.34 27.53 17.17 25.91 19.04 24.09 C 20.31 24.02 21.57 23.97 22.84 23.93 C 23.07 25.94 23.08 27.97 22.96 29.99 C 17.66 30.00 12.35 30.01 7.05 29.99 C 6.93 27.98 6.93 25.97 7.05 23.96 Z" />
</g>
<g id="#1e9b1dff">
<path fill="#1e9b1d" opacity="1.00" d=" M 7.05 29.99 C 12.35 30.01 17.66 30.00 22.96 29.99 L 23.02 30.97 C 17.67 31.07 12.33 31.07 7.00 30.97 L 7.05 29.99 Z" />
</g>
</svg>
