<?xml version="1.0" encoding="UTF-8" ?>
<!DOCTYPE svg PUBLIC "-//W3C//DTD SVG 1.1//EN" "http://www.w3.org/Graphics/SVG/1.1/DTD/svg11.dtd">
<svg width="32pt" height="32pt" viewBox="0 0 32 32" version="1.1" xmlns="http://www.w3.org/2000/svg">
<g id="#000000ff">
<path fill="#000000" opacity="1.00" d=" M 0.00 0.00 L 32.00 0.00 L 32.00 2.21 C 30.82 2.13 29.64 2.06 28.45 1.99 C 25.48 6.16 23.09 10.70 21.10 15.41 C 18.47 15.99 15.86 16.64 13.28 17.41 C 14.00 12.84 15.92 7.70 13.49 3.34 C 11.77 0.90 8.27 2.15 6.34 3.66 C 7.31 3.74 9.25 3.91 10.21 3.99 C 12.00 8.65 10.63 13.70 9.63 18.37 C 7.35 20.50 4.49 22.10 2.86 24.85 C 1.41 26.96 1.53 29.99 3.10 32.00 L 0.00 32.00 L 0.00 0.00 Z" />
<path fill="#000000" opacity="1.00" d=" M 29.41 3.49 C 30.06 3.26 31.35 2.81 32.00 2.58 L 32.00 32.00 L 4.35 32.00 C 10.20 31.09 11.18 24.39 12.87 19.80 C 15.36 18.87 17.89 18.06 20.44 17.31 C 19.87 21.24 17.48 27.04 21.86 29.60 C 21.12 25.28 21.60 20.92 23.00 16.79 C 25.79 16.57 29.40 18.84 31.38 15.94 C 28.85 15.24 26.21 15.12 23.60 15.05 C 25.18 11.03 27.07 7.13 29.41 3.49 Z" />
<path fill="#000000" opacity="1.00" d=" M 3.50 29.75 C 3.51 25.86 6.61 23.10 9.59 21.12 C 8.00 24.22 7.14 28.43 3.50 29.75 Z" />
</g>
<g id="#fefefeff">
<path fill="#fefefe" opacity="1.00" d=" M 6.34 3.66 C 8.27 2.15 11.77 0.90 13.49 3.34 C 15.92 7.70 14.00 12.84 13.28 17.41 C 15.86 16.64 18.47 15.99 21.10 15.41 C 23.09 10.70 25.48 6.16 28.45 1.99 C 29.64 2.06 30.82 2.13 32.00 2.21 L 32.00 2.58 C 31.35 2.81 30.06 3.26 29.41 3.49 C 27.07 7.13 25.18 11.03 23.60 15.05 C 26.21 15.12 28.85 15.24 31.38 15.94 C 29.40 18.84 25.79 16.57 23.00 16.79 C 21.60 20.92 21.12 25.28 21.86 29.60 C 17.48 27.04 19.87 21.24 20.44 17.31 C 17.89 18.06 15.36 18.87 12.87 19.80 C 11.18 24.39 10.20 31.09 4.35 32.00 L 3.10 32.00 C 1.53 29.99 1.41 26.96 2.86 24.85 C 4.49 22.10 7.35 20.50 9.63 18.37 C 10.63 13.70 12.00 8.65 10.21 3.99 C 9.25 3.91 7.31 3.74 6.34 3.66 M 3.50 29.75 C 7.14 28.43 8.00 24.22 9.59 21.12 C 6.61 23.10 3.51 25.86 3.50 29.75 Z" />
</g>
</svg>
