<?xml version="1.0" encoding="UTF-8" ?>
<!DOCTYPE svg PUBLIC "-//W3C//DTD SVG 1.1//EN" "http://www.w3.org/Graphics/SVG/1.1/DTD/svg11.dtd">
<svg width="16pt" height="16pt" viewBox="0 0 16 16" version="1.1" xmlns="http://www.w3.org/2000/svg">
<g id="#46722eff">
<path fill="#46722e" opacity="1.00" d=" M 0.00 0.00 L 3.03 0.00 C 2.08 3.29 7.94 2.44 4.82 0.00 L 10.11 0.00 C 6.01 0.75 11.82 9.54 6.95 5.01 C 7.02 8.74 9.99 13.62 5.96 16.00 L 0.00 16.00 L 0.00 6.16 C 2.22 5.42 4.81 5.07 6.22 2.97 C 4.07 3.43 2.00 4.16 0.00 5.06 L 0.00 0.00 M 2.36 8.24 C 4.77 11.58 7.22 5.95 2.36 8.24 M 2.28 10.14 C 0.46 11.03 0.12 15.19 3.00 14.02 C 6.33 14.96 9.98 5.33 2.28 10.14 Z" />
<path fill="#46722e" opacity="1.00" d=" M 11.88 0.00 L 16.00 0.00 L 16.00 4.10 C 14.28 4.04 12.56 3.99 10.84 3.89 C 12.47 2.60 14.86 1.33 11.88 0.00 Z" />
<path fill="#46722e" opacity="1.00" d=" M 9.08 12.01 C 9.57 8.15 11.99 6.12 16.00 5.97 L 16.00 16.00 L 14.82 16.00 C 13.65 13.36 15.37 9.09 12.39 7.65 C 13.41 10.83 12.90 13.06 9.08 12.01 Z" />
<path fill="#46722e" opacity="1.00" d=" M 9.09 16.00 C 9.65 12.96 12.86 12.44 12.86 16.00 L 9.09 16.00 Z" />
</g>
<g id="#cdd9c7ff">
<path fill="#cdd9c7" opacity="1.00" d=" M 3.03 0.00 L 4.82 0.00 C 7.94 2.44 2.08 3.29 3.03 0.00 Z" />
<path fill="#cdd9c7" opacity="1.00" d=" M 10.11 0.00 L 11.88 0.00 C 14.86 1.33 12.47 2.60 10.84 3.89 C 12.56 3.99 14.28 4.04 16.00 4.10 L 16.00 5.97 C 11.99 6.12 9.57 8.15 9.08 12.01 C 12.90 13.06 13.41 10.83 12.39 7.65 C 15.37 9.09 13.65 13.36 14.82 16.00 L 12.86 16.00 C 12.86 12.44 9.65 12.96 9.09 16.00 L 5.96 16.00 C 9.99 13.62 7.02 8.74 6.95 5.01 C 11.82 9.54 6.01 0.75 10.11 0.00 Z" />
<path fill="#cdd9c7" opacity="1.00" d=" M 0.00 5.06 C 2.00 4.16 4.07 3.43 6.22 2.97 C 4.81 5.07 2.22 5.42 0.00 6.16 L 0.00 5.06 Z" />
<path fill="#cdd9c7" opacity="1.00" d=" M 2.36 8.24 C 7.22 5.95 4.77 11.58 2.36 8.24 Z" />
<path fill="#cdd9c7" opacity="1.00" d=" M 2.28 10.14 C 9.98 5.33 6.33 14.96 3.00 14.02 C 0.12 15.19 0.46 11.03 2.28 10.14 Z" />
</g>
</svg>
