<?xml version="1.0" encoding="UTF-8" ?>
<!DOCTYPE svg PUBLIC "-//W3C//DTD SVG 1.1//EN" "http://www.w3.org/Graphics/SVG/1.1/DTD/svg11.dtd">
<svg width="48pt" height="48pt" viewBox="0 0 48 48" version="1.1" xmlns="http://www.w3.org/2000/svg">
<g id="#dd3c3fff">
<path fill="#dd3c3f" opacity="1.00" d=" M 8.27 0.00 L 40.01 0.00 C 44.02 0.86 47.40 4.20 48.00 8.31 L 48.00 39.98 C 47.21 43.90 44.04 46.99 40.22 48.00 L 8.00 48.00 C 4.08 47.19 0.98 44.03 0.00 40.19 L 0.00 8.36 C 0.59 4.16 4.09 0.66 8.27 0.00 M 7.93 10.04 C 8.26 10.60 8.91 11.72 9.24 12.29 C 8.87 12.75 8.13 13.68 7.76 14.15 C 8.16 14.64 8.94 15.62 9.33 16.11 C 8.94 16.60 8.15 17.59 7.76 18.08 C 8.15 18.58 8.94 19.57 9.34 20.07 C 8.94 20.56 8.15 21.54 7.75 22.03 C 8.15 22.52 8.95 23.51 9.34 24.00 C 8.94 24.49 8.15 25.48 7.75 25.98 C 8.15 26.47 8.94 27.45 9.34 27.94 C 8.94 28.43 8.15 29.42 7.76 29.92 C 8.15 30.41 8.94 31.39 9.33 31.88 C 8.94 32.38 8.15 33.37 7.76 33.87 C 8.14 34.33 8.88 35.26 9.25 35.72 C 8.92 36.28 8.26 37.39 7.92 37.94 C 8.63 38.65 9.34 39.37 10.05 40.08 C 10.61 39.75 11.72 39.08 12.27 38.75 C 12.74 39.12 13.68 39.87 14.15 40.24 C 14.64 39.84 15.62 39.06 16.11 38.67 C 16.61 39.06 17.59 39.85 18.09 40.24 C 18.58 39.85 19.57 39.06 20.06 38.66 C 20.55 39.06 21.54 39.86 22.03 40.25 C 22.52 39.85 23.51 39.05 24.00 38.65 C 24.49 39.05 25.48 39.85 25.98 40.25 C 26.47 39.86 27.45 39.06 27.94 38.66 C 28.43 39.05 29.42 39.85 29.91 40.25 C 30.41 39.85 31.39 39.06 31.88 38.67 C 32.37 39.06 33.36 39.84 33.86 40.23 C 34.33 39.86 35.26 39.12 35.73 38.75 C 36.29 39.09 37.40 39.75 37.96 40.08 C 38.67 39.36 39.37 38.64 40.07 37.91 C 39.74 37.36 39.08 36.26 38.75 35.72 C 39.12 35.25 39.87 34.33 40.24 33.86 C 39.85 33.37 39.06 32.38 38.67 31.88 C 39.07 31.39 39.85 30.41 40.24 29.92 C 39.85 29.42 39.06 28.43 38.66 27.94 C 39.06 27.45 39.85 26.46 40.25 25.97 C 39.85 25.48 39.06 24.50 38.66 24.00 C 39.06 23.51 39.85 22.52 40.25 22.02 C 39.85 21.53 39.06 20.55 38.66 20.06 C 39.06 19.57 39.85 18.58 40.25 18.08 C 39.85 17.59 39.07 16.61 38.67 16.13 C 39.06 15.63 39.84 14.63 40.23 14.13 C 39.86 13.67 39.12 12.73 38.74 12.27 C 39.09 11.71 39.78 10.59 40.13 10.04 C 39.04 8.52 37.21 7.44 35.69 9.19 C 35.23 8.84 34.32 8.12 33.86 7.76 C 33.37 8.15 32.38 8.94 31.88 9.33 C 31.39 8.94 30.41 8.15 29.92 7.75 C 29.42 8.15 28.43 8.94 27.94 9.34 C 27.45 8.94 26.47 8.15 25.98 7.75 C 25.48 8.15 24.49 8.94 24.00 9.34 C 23.51 8.94 22.52 8.15 22.02 7.75 C 21.53 8.15 20.55 8.95 20.06 9.35 C 19.57 8.95 18.58 8.15 18.09 7.75 C 17.60 8.14 16.61 8.93 16.12 9.33 C 15.63 8.94 14.63 8.16 14.14 7.77 C 13.67 8.14 12.74 8.88 12.28 9.25 C 11.73 8.92 10.63 8.25 10.08 7.92 C 9.36 8.62 8.64 9.33 7.93 10.04 Z" />
<path fill="#dd3c3f" opacity="1.00" d=" M 11.50 11.54 C 19.83 11.28 28.17 11.38 36.50 11.48 C 36.79 19.82 36.69 28.18 36.55 36.53 C 28.20 36.73 19.85 36.74 11.51 36.52 C 11.33 28.20 11.33 19.86 11.50 11.54 M 15.63 16.84 C 16.28 17.30 17.59 18.23 18.25 18.69 C 18.20 22.23 18.20 25.77 18.25 29.32 C 17.59 29.78 16.26 30.71 15.60 31.18 C 21.20 31.10 26.77 31.02 32.37 31.18 C 31.72 30.71 30.41 29.77 29.76 29.30 C 29.80 25.77 29.81 22.23 29.77 18.70 C 30.41 18.23 31.70 17.31 32.34 16.84 C 29.59 16.70 26.84 16.70 24.10 16.88 C 24.73 17.28 25.98 18.08 26.61 18.47 C 26.62 20.00 26.63 21.52 26.64 23.04 C 24.88 23.13 23.12 23.13 21.36 23.03 C 21.37 21.52 21.39 20.00 21.40 18.49 C 22.02 18.09 23.26 17.28 23.88 16.88 C 21.13 16.70 18.38 16.70 15.63 16.84 Z" />
<path fill="#dd3c3f" opacity="1.00" d=" M 21.37 24.35 C 23.12 24.35 24.88 24.35 26.63 24.35 C 26.62 26.11 26.69 27.87 26.50 29.63 C 25.16 30.52 23.31 30.00 21.78 30.30 C 21.35 28.34 21.35 26.34 21.37 24.35 Z" />
</g>
<g id="#fefafaff">
<path fill="#fefafa" opacity="1.00" d=" M 7.93 10.04 C 8.64 9.33 9.36 8.62 10.08 7.92 C 10.63 8.25 11.73 8.92 12.28 9.25 C 12.74 8.88 13.67 8.14 14.14 7.77 C 14.63 8.16 15.63 8.94 16.12 9.33 C 16.61 8.93 17.60 8.14 18.09 7.75 C 18.58 8.15 19.57 8.95 20.06 9.35 C 20.55 8.95 21.53 8.15 22.02 7.75 C 22.52 8.15 23.51 8.94 24.00 9.34 C 24.49 8.94 25.48 8.15 25.98 7.75 C 26.47 8.15 27.45 8.94 27.94 9.34 C 28.43 8.94 29.42 8.15 29.92 7.75 C 30.41 8.15 31.39 8.94 31.88 9.33 C 32.38 8.94 33.37 8.15 33.86 7.76 C 34.32 8.12 35.23 8.84 35.69 9.19 C 37.21 7.44 39.04 8.52 40.13 10.04 C 39.78 10.59 39.09 11.71 38.74 12.27 C 39.12 12.73 39.86 13.67 40.23 14.13 C 39.84 14.63 39.06 15.63 38.67 16.13 C 39.07 16.61 39.85 17.59 40.25 18.08 C 39.85 18.58 39.06 19.57 38.66 20.06 C 39.06 20.55 39.85 21.53 40.25 22.02 C 39.85 22.52 39.06 23.51 38.66 24.00 C 39.06 24.50 39.85 25.48 40.25 25.97 C 39.85 26.46 39.06 27.45 38.66 27.94 C 39.06 28.43 39.85 29.42 40.24 29.92 C 39.85 30.41 39.07 31.39 38.67 31.88 C 39.06 32.38 39.85 33.37 40.24 33.86 C 39.87 34.33 39.12 35.25 38.75 35.72 C 39.08 36.26 39.74 37.36 40.07 37.91 C 39.37 38.64 38.67 39.36 37.96 40.08 C 37.40 39.75 36.29 39.09 35.73 38.75 C 35.26 39.12 34.33 39.86 33.86 40.23 C 33.36 39.84 32.37 39.06 31.88 38.67 C 31.39 39.06 30.41 39.85 29.91 40.25 C 29.42 39.85 28.43 39.05 27.94 38.66 C 27.45 39.06 26.47 39.86 25.98 40.25 C 25.48 39.85 24.49 39.05 24.00 38.65 C 23.51 39.05 22.52 39.85 22.03 40.25 C 21.54 39.86 20.55 39.06 20.06 38.66 C 19.57 39.06 18.58 39.85 18.09 40.24 C 17.59 39.85 16.61 39.06 16.11 38.67 C 15.62 39.06 14.64 39.84 14.15 40.24 C 13.68 39.87 12.74 39.12 12.27 38.75 C 11.72 39.08 10.61 39.75 10.05 40.08 C 9.34 39.37 8.63 38.65 7.92 37.94 C 8.26 37.39 8.92 36.28 9.25 35.72 C 8.88 35.26 8.14 34.33 7.76 33.87 C 8.15 33.37 8.94 32.38 9.33 31.88 C 8.94 31.39 8.15 30.41 7.76 29.92 C 8.15 29.42 8.94 28.43 9.34 27.94 C 8.94 27.45 8.15 26.47 7.75 25.98 C 8.15 25.48 8.94 24.49 9.34 24.00 C 8.95 23.51 8.15 22.52 7.75 22.03 C 8.15 21.54 8.94 20.56 9.34 20.07 C 8.94 19.57 8.15 18.58 7.76 18.08 C 8.15 17.59 8.94 16.60 9.33 16.11 C 8.94 15.62 8.16 14.64 7.76 14.15 C 8.13 13.68 8.87 12.75 9.24 12.29 C 8.91 11.72 8.26 10.60 7.93 10.04 M 11.50 11.54 C 11.33 19.86 11.33 28.20 11.51 36.52 C 19.85 36.74 28.20 36.73 36.55 36.53 C 36.69 28.18 36.79 19.82 36.50 11.48 C 28.17 11.38 19.83 11.28 11.50 11.54 Z" />
<path fill="#fefafa" opacity="1.00" d=" M 15.63 16.84 C 18.38 16.70 21.13 16.70 23.88 16.88 C 23.26 17.28 22.02 18.09 21.40 18.49 C 21.39 20.00 21.37 21.52 21.36 23.03 C 23.12 23.13 24.88 23.13 26.64 23.04 C 26.63 21.52 26.62 20.00 26.61 18.47 C 25.98 18.08 24.73 17.28 24.10 16.88 C 26.84 16.70 29.59 16.70 32.34 16.84 C 31.70 17.31 30.41 18.23 29.77 18.70 C 29.81 22.23 29.80 25.77 29.76 29.30 C 30.41 29.77 31.72 30.71 32.37 31.18 C 26.77 31.02 21.20 31.10 15.60 31.18 C 16.26 30.71 17.59 29.78 18.25 29.32 C 18.20 25.77 18.20 22.23 18.25 18.69 C 17.59 18.23 16.28 17.30 15.63 16.84 M 21.37 24.35 C 21.35 26.34 21.35 28.34 21.78 30.30 C 23.31 30.00 25.16 30.52 26.50 29.63 C 26.69 27.87 26.62 26.11 26.63 24.35 C 24.88 24.35 23.12 24.35 21.37 24.35 Z" />
</g>
</svg>
