<?xml version="1.0" encoding="UTF-8" ?>
<!DOCTYPE svg PUBLIC "-//W3C//DTD SVG 1.1//EN" "http://www.w3.org/Graphics/SVG/1.1/DTD/svg11.dtd">
<svg width="100pt" height="100pt" viewBox="0 0 100 100" version="1.1" xmlns="http://www.w3.org/2000/svg">
<g id="#fffefdff">
<path fill="#fffefd" opacity="1.00" d=" M 0.00 0.00 L 100.00 0.00 L 100.00 100.00 L 0.00 100.00 L 0.00 0.00 M 7.21 15.52 C 5.09 18.13 5.59 21.81 5.30 24.98 C 5.21 41.35 5.20 57.72 5.22 74.08 C 5.16 77.93 5.80 81.90 7.90 85.18 C 11.47 91.65 18.85 95.18 26.06 95.24 C 43.73 95.20 61.39 95.28 79.05 95.19 C 82.73 94.21 86.70 93.38 89.60 90.71 C 95.44 86.48 97.50 78.88 97.33 71.99 C 97.37 55.62 97.44 39.25 97.27 22.89 C 96.06 20.72 96.96 17.92 95.50 15.84 L 95.43 14.90 C 91.95 8.11 84.74 3.31 77.02 3.41 C 59.34 3.34 41.66 3.28 23.98 3.49 C 16.99 4.12 9.04 8.28 7.21 15.52 Z" />
</g>
<g id="#ffa02eff">
<path fill="#ffa02e" opacity="1.00" d=" M 7.21 15.52 C 9.04 8.28 16.99 4.12 23.98 3.49 C 41.66 3.28 59.34 3.34 77.02 3.41 C 84.74 3.31 91.95 8.11 95.43 14.90 L 95.50 15.84 C 95.53 22.71 97.19 29.59 95.58 36.42 C 94.95 33.88 94.66 31.27 94.17 28.70 C 91.55 27.41 89.68 30.82 87.64 31.94 C 86.23 30.79 86.29 28.80 85.86 27.17 C 85.58 27.76 85.02 28.95 84.74 29.54 C 83.89 28.78 83.08 27.98 82.25 27.20 C 81.23 26.51 80.37 25.18 78.97 25.36 C 71.28 25.32 63.59 25.29 55.90 25.37 C 54.51 25.19 53.52 26.23 52.41 26.85 C 51.26 26.54 50.12 26.20 48.98 25.84 C 42.77 24.65 36.28 25.64 29.96 25.32 C 26.53 25.68 21.43 23.91 19.82 28.14 C 19.66 28.43 19.33 29.00 19.16 29.29 C 18.37 26.75 16.94 23.95 13.77 24.49 C 10.97 24.28 11.70 27.80 10.38 29.31 C 9.18 30.19 7.79 30.77 6.47 31.44 C 6.31 26.13 5.96 20.74 7.21 15.52 Z" />
</g>
<g id="#df783dff">
<path fill="#df783d" opacity="1.00" d=" M 5.30 24.98 C 5.59 21.81 5.09 18.13 7.21 15.52 C 5.96 20.74 6.31 26.13 6.47 31.44 C 6.44 34.23 6.46 37.02 6.57 39.81 C 6.52 48.70 6.73 57.59 6.75 66.48 C 6.92 71.42 6.15 76.61 7.78 81.36 C 10.18 85.07 12.22 89.70 16.62 91.40 C 20.15 93.06 24.11 93.39 27.97 93.38 C 43.98 93.41 60.00 93.37 76.02 93.39 C 80.72 93.56 85.25 91.66 89.18 89.23 C 91.17 88.11 90.49 85.73 90.71 83.86 C 94.99 83.43 95.51 78.45 95.58 75.02 C 95.40 62.16 96.09 49.28 95.58 36.42 C 97.19 29.59 95.53 22.71 95.50 15.84 C 96.96 17.92 96.06 20.72 97.27 22.89 C 97.44 39.25 97.37 55.62 97.33 71.99 C 97.50 78.88 95.44 86.48 89.60 90.71 C 86.70 93.38 82.73 94.21 79.05 95.19 C 61.39 95.28 43.73 95.20 26.06 95.24 C 18.85 95.18 11.47 91.65 7.90 85.18 C 5.80 81.90 5.16 77.93 5.22 74.08 C 5.20 57.72 5.21 41.35 5.30 24.98 Z" />
<path fill="#df783d" opacity="1.00" d=" M 82.48 69.52 C 82.88 70.73 82.73 71.96 82.31 73.14 C 73.97 76.33 64.74 73.28 56.19 75.09 C 53.83 76.69 51.79 78.92 48.92 79.60 C 48.12 77.88 48.32 75.12 45.97 74.72 C 38.48 73.89 30.83 75.39 23.39 74.05 C 25.00 72.79 27.13 73.12 29.04 73.02 C 35.09 73.12 41.14 72.76 47.19 72.75 L 48.00 73.49 C 48.85 74.53 49.61 75.65 50.52 76.64 L 50.98 76.46 C 51.31 76.32 51.95 76.02 52.28 75.87 C 53.48 74.34 54.91 72.23 57.14 72.47 C 64.43 72.44 71.72 72.49 79.00 72.41 C 80.75 72.58 81.73 70.80 82.48 69.52 Z" />
</g>
<g id="#ff9129ff">
<path fill="#ff9129" opacity="1.00" d=" M 10.38 29.31 C 11.70 27.80 10.97 24.28 13.77 24.49 C 16.94 23.95 18.37 26.75 19.16 29.29 C 19.73 35.71 19.29 42.16 18.87 48.57 C 17.36 47.29 16.25 45.56 14.67 44.37 C 12.68 43.97 10.63 43.95 8.63 43.55 C 7.84 42.36 7.20 41.08 6.57 39.81 C 6.46 37.02 6.44 34.23 6.47 31.44 C 7.79 30.77 9.18 30.19 10.38 29.31 Z" />
</g>
<g id="#ffffffff">
<path fill="#ffffff" opacity="1.00" d=" M 19.82 28.14 C 21.43 23.91 26.53 25.68 29.96 25.32 C 36.28 25.64 42.77 24.65 48.98 25.84 C 49.19 26.22 49.62 26.98 49.83 27.36 C 49.78 42.73 49.84 58.09 49.82 73.46 C 49.37 73.47 48.46 73.48 48.00 73.49 L 47.19 72.75 C 39.14 72.08 31.02 72.76 22.94 72.42 C 22.37 72.14 21.21 71.59 20.64 71.31 C 20.12 69.93 19.60 68.52 19.75 67.01 C 19.76 54.05 19.63 41.09 19.82 28.14 Z" />
<path fill="#ffffff" opacity="1.00" d=" M 52.41 26.85 C 53.52 26.23 54.51 25.19 55.90 25.37 C 63.59 25.29 71.28 25.32 78.97 25.36 C 80.37 25.18 81.23 26.51 82.25 27.20 C 82.90 41.27 82.26 55.42 82.48 69.52 C 81.73 70.80 80.75 72.58 79.00 72.41 C 71.72 72.49 64.43 72.44 57.14 72.47 C 54.91 72.23 53.48 74.34 52.28 75.87 C 51.93 65.59 52.21 55.29 52.14 45.00 C 52.24 38.95 51.86 32.88 52.41 26.85 Z" />
</g>
<g id="#d19c6aff">
<path fill="#d19c6a" opacity="1.00" d=" M 48.98 25.84 C 50.12 26.20 51.26 26.54 52.41 26.85 C 51.86 32.88 52.24 38.95 52.14 45.00 C 52.21 55.29 51.93 65.59 52.28 75.87 C 51.95 76.02 51.31 76.32 50.98 76.46 C 50.79 63.00 51.08 49.50 51.07 36.02 C 50.90 33.13 51.82 29.81 49.83 27.36 C 49.62 26.98 49.19 26.22 48.98 25.84 Z" />
</g>
<g id="#fe862cff">
<path fill="#fe862c" opacity="1.00" d=" M 82.25 27.20 C 83.08 27.98 83.89 28.78 84.74 29.54 C 85.02 28.95 85.58 27.76 85.86 27.17 C 86.29 28.80 86.23 30.79 87.64 31.94 C 89.68 30.82 91.55 27.41 94.17 28.70 C 94.66 31.27 94.95 33.88 95.58 36.42 C 96.09 49.28 95.40 62.16 95.58 75.02 C 94.91 73.85 94.27 72.65 93.35 71.65 C 91.96 71.20 90.46 71.47 89.03 71.23 C 87.96 70.47 87.43 68.81 86.01 68.69 C 84.71 69.81 85.01 71.83 84.42 73.33 C 83.72 73.28 83.01 73.22 82.31 73.14 C 82.73 71.96 82.88 70.73 82.48 69.52 C 82.26 55.42 82.90 41.27 82.25 27.20 Z" />
</g>
<g id="#fd6b2aff">
<path fill="#fd6b2a" opacity="1.00" d=" M 19.16 29.29 C 19.33 29.00 19.66 28.43 19.82 28.14 C 19.63 41.09 19.76 54.05 19.75 67.01 C 19.60 68.52 20.12 69.93 20.64 71.31 C 21.21 71.59 22.37 72.14 22.94 72.42 C 31.02 72.76 39.14 72.08 47.19 72.75 C 41.14 72.76 35.09 73.12 29.04 73.02 C 27.13 73.12 25.00 72.79 23.39 74.05 C 30.83 75.39 38.48 73.89 45.97 74.72 C 48.32 75.12 48.12 77.88 48.92 79.60 C 51.79 78.92 53.83 76.69 56.19 75.09 C 64.74 73.28 73.97 76.33 82.31 73.14 C 83.01 73.22 83.72 73.28 84.42 73.33 C 85.01 71.83 84.71 69.81 86.01 68.69 C 87.43 68.81 87.96 70.47 89.03 71.23 C 90.46 71.47 91.96 71.20 93.35 71.65 C 94.27 72.65 94.91 73.85 95.58 75.02 C 95.51 78.45 94.99 83.43 90.71 83.86 C 90.49 85.73 91.17 88.11 89.18 89.23 C 85.25 91.66 80.72 93.56 76.02 93.39 C 60.00 93.37 43.98 93.41 27.97 93.38 C 24.11 93.39 20.15 93.06 16.62 91.40 C 12.22 89.70 10.18 85.07 7.78 81.36 C 6.15 76.61 6.92 71.42 6.75 66.48 C 9.62 65.48 12.59 64.67 15.23 63.13 C 16.21 61.69 16.22 59.82 16.65 58.18 C 16.83 61.20 17.34 64.22 18.58 67.01 C 19.03 60.88 19.31 54.71 18.87 48.57 C 19.29 42.16 19.73 35.71 19.16 29.29 Z" />
</g>
<g id="#f6c191ff">
<path fill="#f6c191" opacity="1.00" d=" M 49.83 27.36 C 51.82 29.81 50.90 33.13 51.07 36.02 C 51.08 49.50 50.79 63.00 50.98 76.46 L 50.52 76.64 C 49.61 75.65 48.85 74.53 48.00 73.49 C 48.46 73.48 49.37 73.47 49.82 73.46 C 49.84 58.09 49.78 42.73 49.83 27.36 Z" />
</g>
<g id="#ff812aff">
<path fill="#ff812a" opacity="1.00" d=" M 6.57 39.81 C 7.20 41.08 7.84 42.36 8.63 43.55 C 10.63 43.95 12.68 43.97 14.67 44.37 C 16.25 45.56 17.36 47.29 18.87 48.57 C 19.31 54.71 19.03 60.88 18.58 67.01 C 17.34 64.22 16.83 61.20 16.65 58.18 C 16.22 59.82 16.21 61.69 15.23 63.13 C 12.59 64.67 9.62 65.48 6.75 66.48 C 6.73 57.59 6.52 48.70 6.57 39.81 Z" />
</g>
</svg>
