<?xml version="1.0" encoding="UTF-8" ?>
<!DOCTYPE svg PUBLIC "-//W3C//DTD SVG 1.1//EN" "http://www.w3.org/Graphics/SVG/1.1/DTD/svg11.dtd">
<svg width="32pt" height="32pt" viewBox="0 0 32 32" version="1.1" xmlns="http://www.w3.org/2000/svg">
<g id="#050505f8">
<path fill="#050505" opacity="0.97" d=" M 13.75 0.00 L 18.07 0.00 C 23.48 0.76 27.96 4.32 30.64 8.99 C 30.41 9.68 29.95 11.08 29.72 11.78 C 28.26 9.09 26.37 6.67 24.26 4.46 C 20.77 12.00 17.84 19.80 14.13 27.24 C 13.27 24.51 14.13 21.81 15.38 19.38 C 13.43 19.44 11.47 19.45 9.51 19.40 C 8.52 21.76 7.48 24.11 6.40 26.43 C 10.29 29.23 15.26 31.00 20.00 29.38 C 24.82 28.09 28.04 23.91 29.80 19.46 C 26.31 19.48 22.82 19.39 19.33 19.28 C 22.36 15.53 27.87 18.09 32.00 17.40 L 32.00 18.13 C 30.98 25.15 25.24 30.91 18.23 32.00 L 13.96 32.00 C 6.90 31.05 1.11 25.27 0.00 18.25 L 0.00 13.92 C 0.98 6.88 6.74 1.10 13.75 0.00 M 5.68 6.63 C 1.02 11.46 1.02 19.32 4.86 24.64 C 7.16 19.87 9.05 14.91 11.43 10.18 C 12.71 12.65 11.63 15.16 10.47 17.40 C 12.42 17.36 14.37 17.36 16.32 17.40 C 18.34 12.72 20.39 8.05 22.38 3.36 C 16.79 0.94 9.75 1.89 5.68 6.63 Z" />
</g>
</svg>
