<?xml version="1.0" encoding="UTF-8" ?>
<!DOCTYPE svg PUBLIC "-//W3C//DTD SVG 1.1//EN" "http://www.w3.org/Graphics/SVG/1.1/DTD/svg11.dtd">
<svg width="16pt" height="13pt" viewBox="0 0 16 13" version="1.1" xmlns="http://www.w3.org/2000/svg">
<g id="#c93200fb">
<path fill="#c93200" opacity="1.00" d=" M 5.80 0.00 L 7.25 0.00 C 7.25 4.33 7.25 8.67 7.25 13.00 L 5.87 13.00 C 5.79 11.80 5.72 10.59 5.64 9.39 C 4.29 9.42 2.94 9.45 1.59 9.49 C 1.56 10.36 1.50 12.12 1.48 13.00 L 0.00 13.00 L 0.00 3.49 C 0.76 4.95 1.43 6.44 2.09 7.95 C 3.28 7.95 4.47 7.95 5.66 7.96 C 5.71 5.31 5.75 2.65 5.80 0.00 Z" />
<path fill="#c93200" opacity="1.00" d=" M 8.94 0.76 C 10.51 2.89 10.09 5.59 10.30 8.05 C 10.87 8.00 11.99 7.88 12.56 7.82 C 13.10 6.90 13.65 5.97 14.19 5.04 C 14.64 4.76 15.55 4.21 16.00 3.94 L 16.00 4.22 C 15.34 5.78 14.65 7.32 13.97 8.86 C 14.65 10.24 15.34 11.61 16.00 13.00 L 16.00 13.00 L 14.56 13.00 C 13.76 11.86 13.00 10.70 12.24 9.53 C 11.76 9.48 10.78 9.37 10.29 9.32 C 10.20 10.54 10.10 11.77 10.00 13.00 L 8.65 13.00 C 8.67 8.92 8.49 4.83 8.94 0.76 Z" />
</g>
</svg>
