<?xml version="1.0" encoding="UTF-8" ?>
<!DOCTYPE svg PUBLIC "-//W3C//DTD SVG 1.1//EN" "http://www.w3.org/Graphics/SVG/1.1/DTD/svg11.dtd">
<svg width="180pt" height="180pt" viewBox="0 0 180 180" version="1.1" xmlns="http://www.w3.org/2000/svg">
<g id="#ffffffff">
<path fill="#ffffff" opacity="1.00" d=" M 0.00 0.00 L 180.00 0.00 L 180.00 80.68 C 177.22 59.47 167.18 39.15 151.22 24.78 C 135.69 10.32 114.76 2.08 93.62 1.26 C 93.59 8.65 93.59 16.04 93.61 23.43 C 109.97 24.11 126.03 30.74 137.74 42.25 C 150.44 54.16 157.83 71.14 158.63 88.48 C 165.75 88.42 172.88 88.56 180.00 88.38 L 180.00 93.54 C 172.88 93.54 165.76 93.57 158.63 93.55 C 157.78 109.43 151.71 125.11 140.75 136.76 C 128.80 149.98 111.41 158.01 93.61 158.61 C 93.60 165.74 93.59 172.87 93.61 180.00 L 88.48 180.00 C 88.47 172.87 88.49 165.74 88.46 158.61 C 70.64 157.94 53.20 149.97 41.28 136.65 C 30.32 125.06 24.30 109.41 23.49 93.56 C 16.11 93.54 8.73 93.54 1.35 93.59 C 2.15 109.70 6.76 125.79 15.65 139.33 C 29.56 161.48 53.69 176.42 79.51 180.00 L 0.00 180.00 L 0.00 0.00 M 62.93 5.85 C 50.76 9.84 39.55 16.54 30.14 25.19 C 12.62 41.31 2.15 64.65 1.37 88.43 C 8.76 88.53 16.14 88.45 23.53 88.48 C 24.28 78.36 26.35 68.10 31.51 59.23 C 42.37 38.33 64.87 24.16 88.45 23.48 C 88.50 16.08 88.50 8.68 88.44 1.29 C 79.77 1.65 71.16 3.08 62.93 5.85 M 72.18 31.19 C 59.23 35.27 47.78 43.72 39.94 54.80 C 33.82 63.02 30.49 72.98 28.73 82.98 C 28.59 84.80 28.49 86.62 28.40 88.45 C 44.01 88.52 59.63 88.50 75.24 88.46 C 76.36 81.80 81.79 76.37 88.43 75.22 C 88.55 59.59 88.49 43.96 88.47 28.34 C 82.93 28.46 77.46 29.59 72.18 31.19 M 93.58 28.30 C 93.60 43.95 93.50 59.61 93.63 75.26 C 100.29 76.42 105.76 81.65 106.80 88.40 C 122.43 88.60 138.06 88.46 153.69 88.45 C 153.63 84.24 152.82 80.10 152.00 75.98 C 151.19 73.23 150.26 70.53 149.27 67.85 C 142.81 51.18 128.79 37.83 111.97 31.89 C 108.36 30.74 104.76 29.50 100.97 29.11 C 98.55 28.52 96.06 28.35 93.58 28.30 M 28.31 93.54 C 28.39 95.70 28.59 97.87 29.11 99.98 C 29.43 101.95 29.69 103.92 30.07 105.88 C 35.02 125.71 49.81 142.84 69.14 149.79 C 70.10 150.17 71.07 150.55 72.04 150.93 C 77.39 152.51 82.90 153.65 88.49 153.73 C 88.43 138.08 88.63 122.44 88.38 106.80 C 81.66 105.65 76.39 100.24 75.25 93.55 C 59.60 93.53 43.95 93.55 28.31 93.54 M 106.39 96.15 C 104.43 100.76 100.79 104.45 96.16 106.38 C 95.52 106.43 94.25 106.55 93.62 106.60 C 93.52 122.31 93.57 138.02 93.60 153.72 C 100.19 153.55 106.76 152.23 112.93 149.90 C 129.83 143.56 143.53 129.80 149.88 112.91 C 152.13 106.70 153.53 100.15 153.69 93.54 C 137.98 93.57 122.26 93.47 106.56 93.60 C 106.51 94.24 106.43 95.51 106.39 96.15 Z" />
<path fill="#ffffff" opacity="1.00" d=" M 141.16 164.95 C 162.60 150.74 176.61 126.74 180.00 101.38 L 180.00 180.00 L 102.75 180.00 C 116.39 177.68 129.79 172.95 141.16 164.95 Z" />
</g>
<g id="#1b96d4ff">
<path fill="#1b96d4" opacity="1.00" d=" M 62.93 5.85 C 71.16 3.08 79.77 1.65 88.44 1.29 C 88.50 8.68 88.50 16.08 88.45 23.48 C 64.87 24.16 42.37 38.33 31.51 59.23 C 26.35 68.10 24.28 78.36 23.53 88.48 C 16.14 88.45 8.76 88.53 1.37 88.43 C 2.15 64.65 12.62 41.31 30.14 25.19 C 39.55 16.54 50.76 9.84 62.93 5.85 Z" />
<path fill="#1b96d4" opacity="1.00" d=" M 93.62 1.26 C 114.76 2.08 135.69 10.32 151.22 24.78 C 167.18 39.15 177.22 59.47 180.00 80.68 L 180.00 88.38 C 172.88 88.56 165.75 88.42 158.63 88.48 C 157.83 71.14 150.44 54.16 137.74 42.25 C 126.03 30.74 109.97 24.11 93.61 23.43 C 93.59 16.04 93.59 8.65 93.62 1.26 Z" />
<path fill="#1b96d4" opacity="1.00" d=" M 158.63 93.55 C 165.76 93.57 172.88 93.54 180.00 93.54 L 180.00 101.38 C 176.61 126.74 162.60 150.74 141.16 164.95 C 129.79 172.95 116.39 177.68 102.75 180.00 L 93.61 180.00 C 93.59 172.87 93.60 165.74 93.61 158.61 C 111.41 158.01 128.80 149.98 140.75 136.76 C 151.71 125.11 157.78 109.43 158.63 93.55 Z" />
<path fill="#1b96d4" opacity="1.00" d=" M 1.35 93.59 C 8.73 93.54 16.11 93.54 23.49 93.56 C 24.30 109.41 30.32 125.06 41.28 136.65 C 53.20 149.97 70.64 157.94 88.46 158.61 C 88.49 165.74 88.47 172.87 88.48 180.00 L 79.51 180.00 C 53.69 176.42 29.56 161.48 15.65 139.33 C 6.76 125.79 2.15 109.70 1.35 93.59 Z" />
</g>
<g id="#8ec21fff">
<path fill="#8ec21f" opacity="1.00" d=" M 72.18 31.19 C 77.46 29.59 82.93 28.46 88.47 28.34 C 88.49 43.96 88.55 59.59 88.43 75.22 C 81.79 76.37 76.36 81.80 75.24 88.46 C 59.63 88.50 44.01 88.52 28.40 88.45 C 28.49 86.62 28.59 84.80 28.73 82.98 C 30.49 72.98 33.82 63.02 39.94 54.80 C 47.78 43.72 59.23 35.27 72.18 31.19 Z" />
<path fill="#8ec21f" opacity="1.00" d=" M 93.58 28.30 C 96.06 28.35 98.55 28.52 100.97 29.11 C 104.76 29.50 108.36 30.74 111.97 31.89 C 128.79 37.83 142.81 51.18 149.27 67.85 C 150.26 70.53 151.19 73.23 152.00 75.98 C 152.82 80.10 153.63 84.24 153.69 88.45 C 138.06 88.46 122.43 88.60 106.80 88.40 C 105.76 81.65 100.29 76.42 93.63 75.26 C 93.50 59.61 93.60 43.95 93.58 28.30 Z" />
<path fill="#8ec21f" opacity="1.00" d=" M 28.31 93.54 C 43.95 93.55 59.60 93.53 75.25 93.55 C 76.39 100.24 81.66 105.65 88.38 106.80 C 88.63 122.44 88.43 138.08 88.49 153.73 C 82.90 153.65 77.39 152.51 72.04 150.93 C 71.07 150.55 70.10 150.17 69.14 149.79 C 49.81 142.84 35.02 125.71 30.07 105.88 C 29.69 103.92 29.43 101.95 29.11 99.98 C 28.59 97.87 28.39 95.70 28.31 93.54 Z" />
<path fill="#8ec21f" opacity="1.00" d=" M 106.39 96.15 C 106.43 95.51 106.51 94.24 106.56 93.60 C 122.26 93.47 137.98 93.57 153.69 93.54 C 153.53 100.15 152.13 106.70 149.88 112.91 C 143.53 129.80 129.83 143.56 112.93 149.90 C 106.76 152.23 100.19 153.55 93.60 153.72 C 93.57 138.02 93.52 122.31 93.62 106.60 C 94.25 106.55 95.52 106.43 96.16 106.38 C 100.79 104.45 104.43 100.76 106.39 96.15 Z" />
</g>
</svg>
