<?xml version="1.0" encoding="UTF-8" ?>
<!DOCTYPE svg PUBLIC "-//W3C//DTD SVG 1.1//EN" "http://www.w3.org/Graphics/SVG/1.1/DTD/svg11.dtd">
<svg width="32pt" height="32pt" viewBox="0 0 32 32" version="1.1" xmlns="http://www.w3.org/2000/svg">
<g id="#0303aefd">
<path fill="#0303ae" opacity="1.00" d=" M 7.01 6.70 C 7.65 4.62 8.41 2.04 10.96 1.69 C 13.91 3.08 16.98 4.13 20.15 4.94 C 23.08 5.65 24.80 8.30 27.00 10.12 C 28.53 11.11 30.28 11.71 31.70 12.87 C 31.28 14.52 29.75 15.49 28.69 16.71 C 29.17 26.01 18.33 33.19 10.04 28.99 C 6.99 26.70 3.79 24.65 0.00 23.82 L 0.00 22.40 C 0.89 21.54 1.73 20.64 2.59 19.77 C 1.81 14.90 3.71 10.23 7.01 6.70 M 9.57 7.77 C 6.30 10.17 4.49 14.00 4.47 18.05 C 10.61 14.38 17.27 11.45 24.50 10.98 C 22.14 7.41 17.88 5.81 13.71 6.21 C 12.79 5.59 11.88 4.95 10.92 4.39 C 10.39 5.48 9.99 6.63 9.57 7.77 M 9.86 16.67 C 7.04 18.28 3.39 19.74 2.64 23.28 C 3.95 23.33 5.27 23.36 6.59 23.38 C 9.49 27.25 14.46 28.47 19.05 27.52 C 16.82 25.72 14.78 23.70 12.51 21.94 C 11.98 19.63 13.55 17.00 16.18 17.62 C 18.39 18.46 18.26 21.01 17.91 22.93 C 18.78 24.41 20.05 25.95 21.98 25.66 C 25.22 23.50 26.32 19.51 26.52 15.83 C 27.77 15.13 29.77 14.25 28.44 12.57 C 22.00 11.64 15.61 14.00 9.86 16.67 Z" />
</g>
<g id="#ffd500ff">
<path fill="#ffd500" opacity="1.00" d=" M 9.57 7.77 C 9.99 6.63 10.39 5.48 10.92 4.39 C 11.88 4.95 12.79 5.59 13.71 6.21 C 17.88 5.81 22.14 7.41 24.50 10.98 C 17.27 11.45 10.61 14.38 4.47 18.05 C 4.49 14.00 6.30 10.17 9.57 7.77 Z" />
<path fill="#ffd500" opacity="1.00" d=" M 9.86 16.67 C 15.61 14.00 22.00 11.64 28.44 12.57 C 29.77 14.25 27.77 15.13 26.52 15.83 C 26.32 19.51 25.22 23.50 21.98 25.66 C 20.05 25.95 18.78 24.41 17.91 22.93 C 18.26 21.01 18.39 18.46 16.18 17.62 C 13.55 17.00 11.98 19.63 12.51 21.94 C 14.78 23.70 16.82 25.72 19.05 27.52 C 14.46 28.47 9.49 27.25 6.59 23.38 C 5.27 23.36 3.95 23.33 2.64 23.28 C 3.39 19.74 7.04 18.28 9.86 16.67 Z" />
</g>
</svg>
