<?xml version="1.0" encoding="UTF-8" ?>
<!DOCTYPE svg PUBLIC "-//W3C//DTD SVG 1.1//EN" "http://www.w3.org/Graphics/SVG/1.1/DTD/svg11.dtd">
<svg width="180pt" height="180pt" viewBox="0 0 180 180" version="1.1" xmlns="http://www.w3.org/2000/svg">
<g id="#fc6621ff">
<path fill="#fc6621" opacity="1.00" d=" M 0.00 0.00 L 180.00 0.00 L 180.00 180.00 L 0.00 180.00 L 0.00 0.00 M 24.28 55.55 C 24.31 78.06 24.27 100.57 24.30 123.09 C 31.13 123.22 37.95 123.09 44.78 123.16 C 45.01 120.77 45.29 118.37 45.12 115.96 C 44.66 109.86 45.31 103.76 45.11 97.65 C 51.62 97.64 58.14 97.66 64.65 97.64 C 64.71 106.14 64.62 114.64 64.70 123.14 C 71.60 123.15 78.50 123.14 85.40 123.14 C 85.48 100.61 85.42 78.08 85.43 55.54 C 78.51 55.55 71.59 55.54 64.67 55.55 C 64.64 64.12 64.72 72.70 64.62 81.27 C 58.12 81.23 51.63 81.26 45.13 81.26 C 45.22 72.70 44.61 64.14 45.17 55.59 C 38.20 55.50 31.24 55.56 24.28 55.55 M 96.30 123.02 C 102.63 123.29 108.97 123.08 115.30 123.14 C 115.46 111.88 115.13 100.63 115.48 89.38 C 123.47 99.90 130.66 111.02 138.37 121.75 C 138.93 122.73 139.76 123.19 140.86 123.14 C 145.45 123.20 150.04 123.11 154.63 123.14 C 154.71 100.60 154.66 78.07 154.65 55.53 C 148.33 55.56 142.01 55.53 135.68 55.55 C 135.59 66.57 135.87 77.61 135.53 88.63 C 127.35 77.86 119.83 66.57 111.95 55.57 C 106.75 55.51 101.56 55.56 96.36 55.53 C 96.29 78.03 96.42 100.52 96.30 123.02 Z" />
</g>
<g id="#ffffffff">
<path fill="#ffffff" opacity="1.00" d=" M 24.28 55.55 C 31.24 55.56 38.20 55.50 45.17 55.59 C 44.61 64.14 45.22 72.70 45.13 81.26 C 51.63 81.26 58.12 81.23 64.62 81.27 C 64.72 72.70 64.64 64.12 64.67 55.55 C 71.59 55.54 78.51 55.55 85.43 55.54 C 85.42 78.08 85.48 100.61 85.40 123.14 C 78.50 123.14 71.60 123.15 64.70 123.14 C 64.62 114.64 64.71 106.14 64.65 97.64 C 58.14 97.66 51.62 97.64 45.11 97.65 C 45.31 103.76 44.66 109.86 45.12 115.96 C 45.29 118.37 45.01 120.77 44.78 123.16 C 37.95 123.09 31.13 123.22 24.30 123.09 C 24.27 100.57 24.31 78.06 24.28 55.55 Z" />
<path fill="#ffffff" opacity="1.00" d=" M 96.30 123.02 C 96.42 100.52 96.29 78.03 96.36 55.53 C 101.56 55.56 106.75 55.51 111.95 55.57 C 119.83 66.57 127.35 77.86 135.53 88.63 C 135.87 77.61 135.59 66.57 135.68 55.55 C 142.01 55.53 148.33 55.56 154.65 55.53 C 154.66 78.07 154.71 100.60 154.63 123.14 C 150.04 123.11 145.45 123.20 140.86 123.14 C 139.76 123.19 138.93 122.73 138.37 121.75 C 130.66 111.02 123.47 99.90 115.48 89.38 C 115.13 100.63 115.46 111.88 115.30 123.14 C 108.97 123.08 102.63 123.29 96.30 123.02 Z" />
</g>
</svg>
