<?xml version="1.0" encoding="UTF-8" ?>
<!DOCTYPE svg PUBLIC "-//W3C//DTD SVG 1.1//EN" "http://www.w3.org/Graphics/SVG/1.1/DTD/svg11.dtd">
<svg width="152pt" height="152pt" viewBox="0 0 152 152" version="1.1" xmlns="http://www.w3.org/2000/svg">
<g id="#dea5d1ff">
<path fill="#dea5d1" opacity="1.00" d=" M 0.00 0.00 L 152.00 0.00 L 152.00 152.00 L 143.32 152.00 C 138.06 146.49 132.55 141.21 127.23 135.76 C 122.62 131.04 117.60 126.70 113.64 121.39 C 115.07 121.33 116.50 121.22 117.93 121.04 C 117.85 118.74 115.11 117.68 113.79 116.08 C 113.08 117.37 112.38 118.67 111.67 119.98 C 110.86 119.97 109.22 119.97 108.41 119.97 C 108.96 118.56 109.52 117.16 110.08 115.75 C 109.02 115.17 107.97 114.58 106.92 113.99 C 111.72 113.67 116.54 113.80 121.34 113.51 C 119.64 111.67 117.77 109.99 115.86 108.37 C 114.98 109.74 114.11 111.12 113.23 112.50 C 110.15 112.54 107.07 112.62 104.00 112.74 C 104.00 110.93 104.00 109.12 104.00 107.30 C 107.63 107.15 111.27 107.01 114.90 106.79 C 113.41 105.05 111.81 103.42 110.16 101.85 C 109.36 103.15 108.57 104.45 107.78 105.76 C 106.52 105.75 105.26 105.75 104.00 105.74 C 104.00 104.48 104.00 103.21 104.00 101.95 C 104.70 101.29 105.41 100.64 106.12 99.98 C 104.08 99.18 102.04 98.40 99.98 97.64 L 100.05 99.26 C 97.67 97.41 95.21 95.58 93.31 93.21 C 103.12 92.35 112.97 92.23 122.80 91.82 C 121.28 89.84 119.52 88.08 117.69 86.40 C 116.79 87.87 115.90 89.34 115.01 90.80 C 113.24 90.76 111.48 90.73 109.72 90.70 C 109.73 88.98 109.73 87.27 109.74 85.56 C 112.20 85.44 114.66 85.28 117.12 85.09 C 115.75 83.64 114.37 82.20 112.97 80.78 C 111.97 82.06 110.95 83.32 109.93 84.58 C 109.83 83.09 109.74 81.60 109.66 80.11 C 112.49 79.94 115.32 79.73 118.15 79.44 C 116.79 77.91 115.38 76.43 113.97 74.95 C 112.62 76.18 111.95 79.73 109.60 78.34 C 109.85 76.61 110.32 74.93 110.81 73.25 C 109.52 72.62 108.23 72.00 106.94 71.37 C 107.76 70.95 108.57 70.52 109.39 70.10 C 111.86 72.21 114.55 74.07 117.57 75.30 C 119.41 73.38 121.33 71.55 123.33 69.81 C 119.42 69.49 115.53 68.90 111.75 67.88 C 113.21 65.43 115.01 63.20 117.30 61.48 C 115.97 59.99 114.60 58.53 113.24 57.08 C 112.76 57.71 111.81 58.97 111.33 59.60 C 110.28 59.55 108.18 59.44 107.13 59.39 C 108.23 58.32 109.34 57.26 110.46 56.20 C 108.97 55.10 107.47 54.00 105.98 52.91 C 104.27 58.89 100.73 64.01 96.61 68.57 C 99.30 67.21 101.79 65.48 104.13 63.59 C 105.16 65.02 106.19 66.44 107.21 67.87 C 104.59 70.22 101.79 72.38 98.84 74.31 C 97.36 71.76 95.52 69.44 94.05 66.89 C 94.69 63.71 97.21 61.48 99.77 59.75 C 98.34 58.31 96.91 56.88 95.48 55.46 C 94.69 56.33 93.86 57.17 93.00 57.97 C 90.74 58.33 88.73 57.06 86.73 56.25 C 87.28 66.99 87.08 77.77 86.53 88.51 C 79.59 83.18 73.99 76.38 67.63 70.40 C 64.64 67.47 62.01 64.04 58.22 62.07 C 55.21 61.16 55.93 58.14 57.51 56.29 C 56.23 55.75 54.97 55.16 53.69 54.65 C 52.03 54.12 50.33 53.73 48.62 53.41 C 52.27 53.28 55.91 53.08 59.55 53.03 L 57.42 53.94 C 58.01 54.43 58.60 54.91 59.19 55.39 C 61.64 55.17 64.09 55.06 66.53 54.93 C 64.90 53.10 63.22 51.31 61.53 49.52 C 58.68 52.78 54.18 51.89 50.35 52.27 C 50.30 50.67 50.27 49.07 50.22 47.47 C 50.92 46.79 51.61 46.11 52.31 45.43 C 50.17 44.74 48.03 44.06 45.88 43.40 L 45.91 45.36 C 44.36 43.82 42.83 42.25 41.32 40.67 C 48.76 40.21 56.22 40.13 63.67 39.80 C 62.18 38.50 60.70 37.16 58.95 36.21 C 57.93 37.06 57.02 38.04 56.09 38.98 C 54.06 39.00 52.03 39.00 50.00 39.01 C 50.00 36.11 50.00 33.21 50.00 30.30 C 53.78 30.15 57.56 30.02 61.33 29.77 C 59.70 28.38 58.03 27.04 56.35 25.71 C 55.60 26.81 54.85 27.91 54.10 29.01 C 52.62 29.00 51.14 28.98 49.67 28.96 C 50.12 27.64 50.59 26.32 51.06 25.01 C 50.32 24.82 48.85 24.44 48.11 24.26 C 50.40 24.10 52.70 23.97 55.00 23.82 C 53.82 22.78 52.65 21.73 51.47 20.70 C 49.34 23.64 45.60 23.26 42.39 23.44 C 41.72 23.01 41.05 22.59 40.38 22.15 C 43.36 19.98 45.78 17.18 47.96 14.23 C 51.77 18.98 55.82 23.92 61.31 26.77 C 63.97 26.53 66.41 24.62 69.06 23.92 C 61.46 22.23 54.14 18.82 48.48 13.39 C 49.26 12.65 50.04 11.92 50.82 11.18 C 49.33 10.45 47.84 9.72 46.34 8.99 C 44.42 12.99 42.22 16.91 39.15 20.15 C 35.89 23.92 31.47 26.35 27.61 29.41 C 32.27 28.08 36.41 25.49 40.14 22.46 C 40.14 22.98 40.13 24.02 40.13 24.54 C 42.19 24.42 44.25 24.30 46.31 24.19 C 46.29 25.77 46.27 27.35 46.25 28.93 C 42.85 29.02 39.45 29.24 36.05 29.38 C 38.65 31.71 39.94 34.99 41.39 38.07 C 40.86 38.64 40.33 39.21 39.80 39.77 C 37.62 39.66 35.44 39.49 33.27 39.31 C 22.55 27.73 11.02 16.92 0.00 5.63 L 0.00 0.00 M 105.09 10.00 C 104.96 13.84 104.99 17.68 104.98 21.52 C 102.08 21.58 99.18 21.44 96.28 21.28 C 92.46 29.98 89.69 39.24 84.29 47.17 C 85.86 48.26 87.44 49.34 89.04 50.37 C 92.45 41.20 93.49 31.29 97.18 22.22 C 99.46 24.07 102.40 22.91 105.01 22.72 C 105.00 25.40 105.00 28.08 104.98 30.76 C 101.45 31.01 97.91 31.01 94.38 31.08 C 94.64 31.52 95.17 32.40 95.43 32.84 C 98.42 32.90 101.39 32.38 104.37 32.18 C 103.27 36.10 102.00 39.98 100.69 43.83 C 98.86 44.03 97.04 44.20 95.22 44.36 C 96.17 46.10 97.11 47.85 98.06 49.60 C 102.90 47.35 108.17 46.27 113.17 44.43 C 113.58 46.17 113.69 48.04 114.53 49.65 C 116.12 51.66 119.08 48.99 118.65 46.99 C 118.43 41.91 113.72 38.85 109.59 36.87 C 110.68 38.91 111.78 40.93 112.83 42.99 C 109.55 43.40 106.25 43.66 102.95 43.87 C 105.09 40.48 106.51 36.42 109.93 34.05 C 108.93 33.24 107.92 32.44 106.93 31.61 C 111.88 31.24 116.86 31.38 121.81 31.04 C 120.62 28.85 118.72 27.24 116.73 25.81 C 115.86 27.19 115.15 28.69 114.02 29.88 C 112.35 30.06 110.67 30.05 109.00 30.10 C 109.00 27.56 109.01 25.03 109.02 22.50 C 112.17 22.41 115.31 22.29 118.44 22.05 C 117.28 19.89 115.44 18.26 113.53 16.79 C 112.92 18.12 112.31 19.46 111.70 20.80 C 111.03 20.87 109.67 21.01 108.99 21.07 C 109.07 18.16 108.35 14.86 110.61 12.54 C 108.81 11.60 106.97 10.76 105.09 10.00 M 88.08 11.75 C 89.25 14.11 89.96 16.65 91.00 19.06 C 93.34 20.76 95.85 17.27 94.77 15.11 C 93.75 12.43 90.49 12.23 88.08 11.75 M 84.16 22.46 C 84.45 24.99 86.53 27.20 87.54 29.60 C 90.25 30.59 91.53 27.12 90.97 25.00 C 89.56 22.68 86.58 22.54 84.16 22.46 M 50.79 38.27 C 53.59 36.89 56.32 35.39 59.14 34.04 C 57.90 32.86 56.60 31.75 55.25 30.70 C 53.97 33.34 52.45 35.85 50.79 38.27 M 55.85 44.06 C 54.90 46.58 53.81 49.03 52.68 51.46 C 55.15 50.30 57.61 49.11 60.16 48.10 C 58.84 46.64 57.39 45.30 55.85 44.06 Z" />
<path fill="#dea5d1" opacity="1.00" d=" M 39.06 30.48 C 41.45 30.23 43.86 30.14 46.26 30.00 C 46.27 33.29 46.29 36.57 46.21 39.85 C 44.77 39.57 43.48 38.87 42.23 38.13 C 44.48 38.66 44.53 36.22 44.03 34.96 C 43.09 33.15 40.87 32.74 39.26 31.73 C 39.21 31.42 39.11 30.79 39.06 30.48 Z" />
<path fill="#dea5d1" opacity="1.00" d=" M 90.13 91.39 C 90.46 80.74 90.13 70.07 90.30 59.42 C 91.16 59.43 92.86 59.46 93.72 59.47 C 93.36 61.96 92.60 64.44 92.74 66.97 C 93.75 69.96 94.97 72.89 95.27 76.07 C 94.39 76.15 92.63 76.31 91.75 76.39 C 92.85 78.34 93.90 80.31 94.92 82.30 C 97.69 80.58 98.41 77.37 99.49 74.54 C 100.49 79.08 97.90 83.24 96.39 87.34 C 97.64 86.31 98.88 85.27 100.13 84.23 C 100.14 84.80 100.17 85.94 100.18 86.51 C 102.11 86.27 104.05 86.06 105.99 85.86 C 106.00 87.59 106.00 89.32 106.01 91.05 C 102.37 91.29 98.73 91.54 95.08 91.39 C 94.00 90.07 92.92 88.74 91.85 87.41 C 91.29 88.74 90.73 90.07 90.13 91.39 Z" />
<path fill="#dea5d1" opacity="1.00" d=" M 104.66 62.80 C 106.13 60.49 108.96 61.05 111.30 60.95 C 110.47 62.58 109.61 64.20 108.75 65.82 C 107.38 64.82 106.02 63.81 104.66 62.80 Z" />
<path fill="#dea5d1" opacity="1.00" d=" M 102.21 74.41 C 103.48 73.73 104.75 73.05 106.01 72.36 C 106.00 74.57 106.00 76.78 105.99 79.00 C 105.25 79.00 103.76 79.02 103.02 79.03 C 103.77 78.19 104.52 77.34 105.28 76.50 C 104.25 75.80 103.23 75.11 102.21 74.41 Z" />
<path fill="#dea5d1" opacity="1.00" d=" M 102.65 80.53 C 103.74 80.48 104.83 80.43 105.92 80.38 C 105.96 81.81 106.00 83.24 106.04 84.67 C 105.07 84.69 103.12 84.74 102.15 84.76 C 101.61 84.13 101.07 83.50 100.54 82.86 C 101.06 82.27 102.12 81.11 102.65 80.53 Z" />
</g>
<g id="#f2d7acff">
<path fill="#f2d7ac" opacity="1.00" d=" M 0.00 5.63 C 11.02 16.92 22.55 27.73 33.27 39.31 C 33.74 39.94 34.22 40.59 34.69 41.23 C 36.90 41.02 39.11 40.81 41.32 40.67 C 42.83 42.25 44.36 43.82 45.91 45.36 C 45.94 47.66 45.96 49.96 45.98 52.26 C 42.90 52.46 39.83 52.58 36.75 52.66 C 36.47 51.29 36.18 49.92 35.90 48.55 C 35.21 51.60 33.68 54.28 31.69 56.66 C 29.71 58.20 32.15 62.01 34.36 60.46 C 35.94 58.68 36.35 56.25 37.05 54.06 C 40.90 53.76 44.76 53.51 48.62 53.41 C 50.33 53.73 52.03 54.12 53.69 54.65 C 49.59 57.13 44.63 55.85 40.23 55.03 C 40.58 58.63 40.76 62.24 41.06 65.84 C 42.65 64.82 44.21 63.77 45.79 62.74 C 45.89 64.39 45.98 66.04 46.07 67.69 C 42.73 67.91 39.39 68.02 36.05 68.14 C 36.35 68.47 36.96 69.14 37.27 69.48 C 40.17 69.21 43.07 68.96 45.97 68.70 C 45.97 70.30 45.98 71.89 45.99 73.49 C 41.10 73.83 36.19 74.04 31.29 74.05 C 31.56 74.50 32.10 75.40 32.36 75.85 C 43.51 74.17 54.82 74.13 66.06 73.91 C 64.49 72.45 62.90 71.02 61.29 69.61 C 60.44 70.70 59.59 71.80 58.74 72.89 C 55.92 73.01 53.11 73.16 50.30 73.32 C 50.29 71.80 50.29 70.29 50.29 68.77 C 53.80 68.80 57.33 68.77 60.81 68.31 C 59.25 67.00 57.65 65.73 56.03 64.48 C 55.24 65.54 54.45 66.60 53.66 67.66 C 52.35 67.52 51.05 67.37 49.75 67.22 C 50.25 66.58 51.25 65.31 51.75 64.67 C 50.37 64.11 48.99 63.55 47.60 63.00 C 51.15 62.85 54.75 62.91 58.22 62.07 C 62.01 64.04 64.64 67.47 67.63 70.40 C 73.99 76.38 79.59 83.18 86.53 88.51 C 86.44 90.76 86.38 93.02 86.38 95.27 C 87.73 94.09 89.37 93.08 90.13 91.39 C 90.73 90.07 91.29 88.74 91.85 87.41 C 92.92 88.74 94.00 90.07 95.08 91.39 C 94.49 91.37 93.31 91.32 92.72 91.29 C 92.87 91.77 93.17 92.73 93.31 93.21 C 95.21 95.58 97.67 97.41 100.05 99.26 C 100.16 101.50 100.25 103.75 100.32 106.00 C 97.00 106.19 93.67 106.24 90.35 106.45 C 92.66 109.45 97.05 107.07 100.24 107.41 C 100.25 109.25 100.26 111.08 100.27 112.92 C 94.85 113.42 89.41 113.73 83.97 113.75 C 84.00 114.26 84.05 115.27 84.08 115.78 C 91.04 115.22 98.00 114.50 104.99 114.15 C 104.98 116.31 104.97 118.48 104.97 120.65 C 98.98 121.01 92.98 121.38 86.98 120.98 C 87.23 121.46 87.72 122.43 87.96 122.92 C 93.62 122.35 99.32 122.51 104.98 122.01 C 104.97 126.19 104.98 130.36 104.97 134.54 C 102.86 134.48 100.75 134.40 98.64 134.31 C 101.22 136.36 103.39 138.85 105.15 141.64 C 106.49 140.22 108.33 138.96 108.63 136.88 C 109.41 131.80 108.91 126.64 109.02 121.52 C 110.56 121.48 112.10 121.45 113.64 121.39 C 117.60 126.70 122.62 131.04 127.23 135.76 C 132.55 141.21 138.06 146.49 143.32 152.00 L 0.00 152.00 L 0.00 5.63 M 38.13 45.13 C 39.39 47.11 40.41 49.24 41.07 51.50 C 42.98 51.54 45.07 51.52 44.53 48.96 C 43.98 46.05 40.38 45.97 38.13 45.13 M 53.24 76.94 C 53.25 78.60 53.26 80.27 53.27 81.94 C 51.27 81.97 49.26 82.03 47.26 82.16 C 48.06 83.16 49.09 83.56 50.37 83.36 C 50.26 85.36 50.97 89.94 53.89 87.79 C 55.94 85.55 52.17 84.07 50.72 83.04 C 53.18 83.04 55.64 83.02 58.10 83.01 C 57.32 84.93 56.52 86.85 55.73 88.77 C 52.51 89.01 49.29 89.18 46.06 89.22 L 46.92 90.83 C 43.88 89.28 40.68 91.32 37.52 90.32 C 37.60 89.56 37.77 88.05 37.86 87.29 C 40.77 87.07 43.68 86.98 46.60 87.00 C 46.33 85.66 46.07 84.31 45.83 82.97 C 46.26 82.57 47.13 81.79 47.56 81.40 C 46.14 80.52 44.72 79.64 43.31 78.73 C 42.95 79.30 42.24 80.42 41.88 80.98 C 41.61 82.60 42.07 84.18 42.00 85.80 C 40.67 85.88 39.34 85.96 38.01 86.04 C 38.00 84.81 38.00 83.57 38.00 82.34 C 38.50 82.06 39.48 81.50 39.98 81.22 C 38.20 80.18 36.18 79.68 34.22 79.12 C 34.50 82.70 34.92 86.37 34.11 89.92 C 33.27 93.48 30.00 95.57 27.68 98.12 C 30.83 96.81 33.65 94.85 36.08 92.45 C 35.99 95.25 35.85 98.04 35.77 100.83 C 37.61 100.24 39.28 99.30 39.86 97.33 C 41.81 97.19 43.76 97.05 45.72 96.94 C 45.73 98.60 45.75 100.27 45.77 101.93 C 42.60 102.18 39.43 102.31 36.26 102.30 C 36.50 102.71 36.99 103.54 37.23 103.95 C 40.06 103.65 42.90 103.41 45.75 103.20 C 45.72 104.75 45.69 106.29 45.65 107.84 C 40.79 108.20 35.93 108.26 31.07 108.39 C 31.42 108.73 32.12 109.39 32.47 109.73 C 39.63 109.47 46.78 108.59 53.96 108.46 C 57.86 108.25 61.81 108.58 65.67 107.84 C 64.03 106.55 62.34 105.33 60.61 104.15 C 59.95 105.19 59.29 106.22 58.63 107.26 C 55.76 107.51 52.88 107.57 50.00 107.60 C 50.00 106.17 50.00 104.74 50.00 103.31 C 53.46 103.24 56.91 103.04 60.36 102.82 C 59.05 101.75 57.71 100.71 56.37 99.69 C 56.81 97.82 57.03 95.91 57.15 94.01 C 59.74 94.03 62.33 94.02 64.92 93.86 C 63.89 92.91 62.75 92.09 61.52 91.42 C 61.21 90.90 60.58 89.86 60.27 89.34 C 62.79 89.31 65.31 89.16 67.80 88.77 C 66.30 87.51 64.69 86.39 63.05 85.32 C 61.92 87.20 60.58 88.99 58.02 88.34 C 59.39 86.85 61.01 85.64 62.78 84.67 C 62.05 84.28 60.60 83.49 59.88 83.10 C 61.14 83.04 63.65 82.94 64.91 82.89 C 63.69 81.58 62.30 80.47 60.87 79.40 C 59.73 80.74 58.50 82.03 56.82 82.68 C 57.09 81.13 57.40 79.60 57.74 78.07 C 56.24 77.70 54.74 77.32 53.24 76.94 M 58.68 112.96 C 49.23 113.66 39.73 113.57 30.27 114.21 C 30.70 114.54 31.55 115.19 31.98 115.52 C 36.66 115.49 41.32 115.01 46.00 114.95 C 46.00 116.37 46.00 117.79 45.99 119.22 C 43.65 118.93 41.38 118.27 39.18 117.43 C 39.75 123.69 39.65 130.00 39.25 136.27 C 41.05 135.77 42.69 134.86 43.43 133.04 C 46.25 132.80 49.08 132.68 51.91 132.53 L 51.69 131.42 C 51.19 131.44 50.20 131.47 49.71 131.48 C 49.72 129.67 49.73 127.87 49.73 126.06 C 50.30 126.02 51.44 125.93 52.02 125.88 L 52.00 124.65 C 51.42 124.61 50.25 124.53 49.66 124.49 C 49.71 122.97 49.75 121.46 49.80 119.95 C 50.54 119.97 52.01 120.01 52.74 120.03 C 52.96 125.08 52.39 130.11 52.54 135.16 C 53.76 134.35 56.27 134.45 56.38 132.57 C 56.62 129.02 56.42 125.46 56.41 121.91 C 56.87 121.47 57.79 120.58 58.25 120.13 C 56.90 119.15 55.54 118.18 54.17 117.22 C 53.01 118.74 51.24 118.79 49.50 118.70 C 50.04 117.40 50.45 116.04 50.30 114.61 C 55.70 114.23 61.12 114.38 66.52 114.08 C 64.93 112.40 63.00 111.10 61.01 109.95 C 60.23 110.95 59.46 111.95 58.68 112.96 M 59.27 121.27 C 59.14 126.59 59.61 131.90 59.56 137.22 C 52.05 137.73 44.52 137.85 37.00 138.32 C 37.47 133.48 35.84 128.18 38.15 123.70 C 36.43 122.96 34.70 122.22 32.97 121.50 C 33.62 128.64 33.05 135.79 32.77 142.93 C 34.77 142.51 36.24 141.09 37.41 139.51 C 44.77 139.07 52.14 138.85 59.50 138.42 C 59.53 139.83 59.56 141.25 59.60 142.67 C 61.38 142.46 63.67 142.02 64.17 139.97 C 64.37 135.26 63.75 130.55 63.67 125.84 C 64.08 125.35 64.88 124.36 65.28 123.87 C 63.31 122.93 61.30 122.07 59.27 121.27 M 95.07 123.64 C 95.99 126.50 96.45 129.46 96.82 132.43 C 98.13 132.05 100.37 132.63 100.73 130.80 C 102.08 127.06 98.08 124.59 95.07 123.64 Z" />
<path fill="#f2d7ac" opacity="1.00" d=" M 43.99 57.31 C 46.76 57.13 49.54 57.02 52.31 57.00 C 52.15 58.52 52.00 60.05 51.84 61.57 C 49.33 61.67 46.82 61.75 44.32 61.91 C 44.22 60.38 44.11 58.84 43.99 57.31 Z" />
<path fill="#f2d7ac" opacity="1.00" d=" M 47.33 90.23 C 49.31 90.21 51.28 90.12 53.26 90.02 C 53.26 90.75 53.27 92.22 53.27 92.95 C 51.23 92.98 49.19 93.03 47.16 93.16 C 48.56 95.23 51.18 94.12 53.22 94.27 C 53.47 96.59 52.36 99.71 55.07 100.97 C 53.46 102.07 51.52 102.01 49.67 102.09 C 50.10 101.02 50.53 99.96 50.99 98.90 C 49.10 97.79 47.36 96.46 45.74 95.00 C 46.25 93.40 46.80 91.82 47.33 90.23 Z" />
<path fill="#f2d7ac" opacity="1.00" d=" M 57.89 90.25 C 58.56 89.09 60.37 90.16 59.96 91.30 C 59.39 92.46 58.55 92.93 57.43 92.73 C 57.54 92.11 57.78 90.87 57.89 90.25 Z" />
<path fill="#f2d7ac" opacity="1.00" d=" M 39.19 92.16 C 40.02 92.03 41.69 91.79 42.53 91.67 C 42.42 93.11 42.31 94.56 42.20 96.01 C 41.54 96.01 40.20 95.99 39.54 95.99 C 39.42 94.71 39.31 93.43 39.19 92.16 Z" />
<path fill="#f2d7ac" opacity="1.00" d=" M 42.70 120.32 C 43.80 120.28 44.89 120.24 45.99 120.21 C 45.99 121.59 45.99 122.99 45.99 124.38 C 45.36 124.69 44.09 125.33 43.46 125.64 C 44.10 125.76 45.37 125.99 46.00 126.10 C 46.00 127.98 46.00 129.86 46.00 131.74 C 45.25 131.74 43.74 131.75 42.99 131.75 C 43.02 127.94 43.08 124.12 42.70 120.32 Z" />
</g>
<g id="#3e2f10ff">
<path fill="#3e2f10" opacity="1.00" d=" M 46.34 8.99 C 47.84 9.72 49.33 10.45 50.82 11.18 C 50.04 11.92 49.26 12.65 48.48 13.39 C 54.14 18.82 61.46 22.23 69.06 23.92 C 66.41 24.62 63.97 26.53 61.31 26.77 C 55.82 23.92 51.77 18.98 47.96 14.23 C 45.78 17.18 43.36 19.98 40.38 22.15 C 41.05 22.59 41.72 23.01 42.39 23.44 C 45.60 23.26 49.34 23.64 51.47 20.70 C 52.65 21.73 53.82 22.78 55.00 23.82 C 52.70 23.97 50.40 24.10 48.11 24.26 C 48.85 24.44 50.32 24.82 51.06 25.01 C 50.59 26.32 50.12 27.64 49.67 28.96 C 51.14 28.98 52.62 29.00 54.10 29.01 C 54.85 27.91 55.60 26.81 56.35 25.71 C 58.03 27.04 59.70 28.38 61.33 29.77 C 57.56 30.02 53.78 30.15 50.00 30.30 C 50.00 33.21 50.00 36.11 50.00 39.01 C 52.03 39.00 54.06 39.00 56.09 38.98 C 57.02 38.04 57.93 37.06 58.95 36.21 C 60.70 37.16 62.18 38.50 63.67 39.80 C 56.22 40.13 48.76 40.21 41.32 40.67 C 39.11 40.81 36.90 41.02 34.69 41.23 C 34.22 40.59 33.74 39.94 33.27 39.31 C 35.44 39.49 37.62 39.66 39.80 39.77 C 40.33 39.21 40.86 38.64 41.39 38.07 C 39.94 34.99 38.65 31.71 36.05 29.38 C 39.45 29.24 42.85 29.02 46.25 28.93 C 46.27 27.35 46.29 25.77 46.31 24.19 C 44.25 24.30 42.19 24.42 40.13 24.54 C 40.13 24.02 40.14 22.98 40.14 22.46 C 36.41 25.49 32.27 28.08 27.61 29.41 C 31.47 26.35 35.89 23.92 39.15 20.15 C 42.22 16.91 44.42 12.99 46.34 8.99 M 39.06 30.48 C 39.11 30.79 39.21 31.42 39.26 31.73 C 40.87 32.74 43.09 33.15 44.03 34.96 C 44.53 36.22 44.48 38.66 42.23 38.13 C 43.48 38.87 44.77 39.57 46.21 39.85 C 46.29 36.57 46.27 33.29 46.26 30.00 C 43.86 30.14 41.45 30.23 39.06 30.48 Z" />
<path fill="#3e2f10" opacity="1.00" d=" M 105.09 10.00 C 106.97 10.76 108.81 11.60 110.61 12.54 C 108.35 14.86 109.07 18.16 108.99 21.07 C 109.67 21.01 111.03 20.87 111.70 20.80 C 112.31 19.46 112.92 18.12 113.53 16.79 C 115.44 18.26 117.28 19.89 118.44 22.05 C 115.31 22.29 112.17 22.41 109.02 22.50 C 109.01 25.03 109.00 27.56 109.00 30.10 C 110.67 30.05 112.35 30.06 114.02 29.88 C 115.15 28.69 115.86 27.19 116.73 25.81 C 118.72 27.24 120.62 28.85 121.81 31.04 C 116.86 31.38 111.88 31.24 106.93 31.61 C 107.92 32.44 108.93 33.24 109.93 34.05 C 106.51 36.42 105.09 40.48 102.95 43.87 C 106.25 43.66 109.55 43.40 112.83 42.99 C 111.78 40.93 110.68 38.91 109.59 36.87 C 113.72 38.85 118.43 41.91 118.65 46.99 C 119.08 48.99 116.12 51.66 114.53 49.65 C 113.69 48.04 113.58 46.17 113.17 44.43 C 108.17 46.27 102.90 47.35 98.06 49.60 C 97.11 47.85 96.17 46.10 95.22 44.36 C 97.04 44.20 98.86 44.03 100.69 43.83 C 102.00 39.98 103.27 36.10 104.37 32.18 C 101.39 32.38 98.42 32.90 95.43 32.84 C 95.17 32.40 94.64 31.52 94.38 31.08 C 97.91 31.01 101.45 31.01 104.98 30.76 C 105.00 28.08 105.00 25.40 105.01 22.72 C 102.40 22.91 99.46 24.07 97.18 22.22 C 93.49 31.29 92.45 41.20 89.04 50.37 C 87.44 49.34 85.86 48.26 84.29 47.17 C 89.69 39.24 92.46 29.98 96.28 21.28 C 99.18 21.44 102.08 21.58 104.98 21.52 C 104.99 17.68 104.96 13.84 105.09 10.00 Z" />
<path fill="#3e2f10" opacity="1.00" d=" M 88.08 11.75 C 90.49 12.23 93.75 12.43 94.77 15.11 C 95.85 17.27 93.34 20.76 91.00 19.06 C 89.96 16.65 89.25 14.11 88.08 11.75 Z" />
<path fill="#3e2f10" opacity="1.00" d=" M 84.16 22.46 C 86.58 22.54 89.56 22.68 90.97 25.00 C 91.53 27.12 90.25 30.59 87.54 29.60 C 86.53 27.20 84.45 24.99 84.16 22.46 Z" />
<path fill="#3e2f10" opacity="1.00" d=" M 50.79 38.27 C 52.45 35.85 53.97 33.34 55.25 30.70 C 56.60 31.75 57.90 32.86 59.14 34.04 C 56.32 35.39 53.59 36.89 50.79 38.27 Z" />
<path fill="#3e2f10" opacity="1.00" d=" M 45.88 43.40 C 48.03 44.06 50.17 44.74 52.31 45.43 C 51.61 46.11 50.92 46.79 50.22 47.47 C 50.27 49.07 50.30 50.67 50.35 52.27 C 54.18 51.89 58.68 52.78 61.53 49.52 C 63.22 51.31 64.90 53.10 66.53 54.93 C 64.09 55.06 61.64 55.17 59.19 55.39 C 58.60 54.91 58.01 54.43 57.42 53.94 L 59.55 53.03 C 55.91 53.08 52.27 53.28 48.62 53.41 C 44.76 53.51 40.90 53.76 37.05 54.06 C 36.35 56.25 35.94 58.68 34.36 60.46 C 32.15 62.01 29.71 58.20 31.69 56.66 C 33.68 54.28 35.21 51.60 35.90 48.55 C 36.18 49.92 36.47 51.29 36.75 52.66 C 39.83 52.58 42.90 52.46 45.98 52.26 C 45.96 49.96 45.94 47.66 45.91 45.36 L 45.88 43.40 Z" />
<path fill="#3e2f10" opacity="1.00" d=" M 55.85 44.06 C 57.39 45.30 58.84 46.64 60.16 48.10 C 57.61 49.11 55.15 50.30 52.68 51.46 C 53.81 49.03 54.90 46.58 55.85 44.06 Z" />
<path fill="#3e2f10" opacity="1.00" d=" M 38.13 45.13 C 40.38 45.97 43.98 46.05 44.53 48.96 C 45.07 51.52 42.98 51.54 41.07 51.50 C 40.41 49.24 39.39 47.11 38.13 45.13 Z" />
<path fill="#3e2f10" opacity="1.00" d=" M 96.61 68.57 C 100.73 64.01 104.27 58.89 105.98 52.91 C 107.47 54.00 108.97 55.10 110.46 56.20 C 109.34 57.26 108.23 58.32 107.13 59.39 C 108.18 59.44 110.28 59.55 111.33 59.60 C 111.81 58.97 112.76 57.71 113.24 57.08 C 114.60 58.53 115.97 59.99 117.30 61.48 C 115.01 63.20 113.21 65.43 111.75 67.88 C 115.53 68.90 119.42 69.49 123.33 69.81 C 121.33 71.55 119.41 73.38 117.57 75.30 C 114.55 74.07 111.86 72.21 109.39 70.10 C 108.57 70.52 107.76 70.95 106.94 71.37 C 108.23 72.00 109.52 72.62 110.81 73.25 C 110.32 74.93 109.85 76.61 109.60 78.34 C 111.95 79.73 112.62 76.18 113.97 74.95 C 115.38 76.43 116.79 77.91 118.15 79.44 C 115.32 79.73 112.49 79.94 109.66 80.11 C 109.74 81.60 109.83 83.09 109.93 84.58 C 110.95 83.32 111.97 82.06 112.97 80.78 C 114.37 82.20 115.75 83.64 117.12 85.09 C 114.66 85.28 112.20 85.44 109.74 85.56 C 109.73 87.27 109.73 88.98 109.72 90.70 C 111.48 90.73 113.24 90.76 115.01 90.80 C 115.90 89.34 116.79 87.87 117.69 86.40 C 119.52 88.08 121.28 89.84 122.80 91.82 C 112.97 92.23 103.12 92.35 93.31 93.21 C 93.17 92.73 92.87 91.77 92.72 91.29 C 93.31 91.32 94.49 91.37 95.08 91.39 C 98.73 91.54 102.37 91.29 106.01 91.05 C 106.00 89.32 106.00 87.59 105.99 85.86 C 104.05 86.06 102.11 86.27 100.18 86.51 C 100.17 85.94 100.14 84.80 100.13 84.23 C 98.88 85.27 97.64 86.31 96.39 87.34 C 97.90 83.24 100.49 79.08 99.49 74.54 C 98.41 77.37 97.69 80.58 94.92 82.30 C 93.90 80.31 92.85 78.34 91.75 76.39 C 92.63 76.31 94.39 76.15 95.27 76.07 C 94.97 72.89 93.75 69.96 92.74 66.97 C 92.60 64.44 93.36 61.96 93.72 59.47 C 92.86 59.46 91.16 59.43 90.30 59.42 C 90.13 70.07 90.46 80.74 90.13 91.39 C 89.37 93.08 87.73 94.09 86.38 95.27 C 86.38 93.02 86.44 90.76 86.53 88.51 C 87.08 77.77 87.28 66.99 86.73 56.25 C 88.73 57.06 90.74 58.33 93.00 57.97 C 93.86 57.17 94.69 56.33 95.48 55.46 C 96.91 56.88 98.34 58.31 99.77 59.75 C 97.21 61.48 94.69 63.71 94.05 66.89 C 95.52 69.44 97.36 71.76 98.84 74.31 C 101.79 72.38 104.59 70.22 107.21 67.87 C 106.19 66.44 105.16 65.02 104.13 63.59 C 101.79 65.48 99.30 67.21 96.61 68.57 M 104.66 62.80 C 106.02 63.81 107.38 64.82 108.75 65.82 C 109.61 64.20 110.47 62.58 111.30 60.95 C 108.96 61.05 106.13 60.49 104.66 62.80 M 102.21 74.41 C 103.23 75.11 104.25 75.80 105.28 76.50 C 104.52 77.34 103.77 78.19 103.02 79.03 C 103.76 79.02 105.25 79.00 105.99 79.00 C 106.00 76.78 106.00 74.57 106.01 72.36 C 104.75 73.05 103.48 73.73 102.21 74.41 M 102.65 80.53 C 102.12 81.11 101.06 82.27 100.54 82.86 C 101.07 83.50 101.61 84.13 102.15 84.76 C 103.12 84.74 105.07 84.69 106.04 84.67 C 106.00 83.24 105.96 81.81 105.92 80.38 C 104.83 80.43 103.74 80.48 102.65 80.53 Z" />
<path fill="#3e2f10" opacity="1.00" d=" M 40.23 55.03 C 44.63 55.85 49.59 57.13 53.69 54.65 C 54.97 55.16 56.23 55.75 57.51 56.29 C 55.93 58.14 55.21 61.16 58.22 62.07 C 54.75 62.91 51.15 62.85 47.60 63.00 C 48.99 63.55 50.37 64.11 51.75 64.67 C 51.25 65.31 50.25 66.58 49.75 67.22 C 51.05 67.37 52.35 67.52 53.66 67.66 C 54.45 66.60 55.24 65.54 56.03 64.48 C 57.65 65.73 59.25 67.00 60.81 68.31 C 57.33 68.77 53.80 68.80 50.29 68.77 C 50.29 70.29 50.29 71.80 50.30 73.32 C 53.11 73.16 55.92 73.01 58.74 72.89 C 59.59 71.80 60.44 70.70 61.29 69.61 C 62.90 71.02 64.49 72.45 66.06 73.91 C 54.82 74.13 43.51 74.17 32.36 75.85 C 32.10 75.40 31.56 74.50 31.29 74.05 C 36.19 74.04 41.10 73.83 45.99 73.49 C 45.98 71.89 45.97 70.30 45.97 68.70 C 43.07 68.96 40.17 69.21 37.27 69.48 C 36.96 69.14 36.35 68.47 36.05 68.14 C 39.39 68.02 42.73 67.91 46.07 67.69 C 45.98 66.04 45.89 64.39 45.79 62.74 C 44.21 63.77 42.65 64.82 41.06 65.84 C 40.76 62.24 40.58 58.63 40.23 55.03 M 43.99 57.31 C 44.11 58.84 44.22 60.38 44.32 61.91 C 46.82 61.75 49.33 61.67 51.84 61.57 C 52.00 60.05 52.15 58.52 52.31 57.00 C 49.54 57.02 46.76 57.13 43.99 57.31 Z" />
<path fill="#3e2f10" opacity="1.00" d=" M 53.24 76.94 C 54.74 77.32 56.24 77.70 57.74 78.07 C 57.40 79.60 57.09 81.13 56.82 82.68 C 58.50 82.03 59.73 80.74 60.87 79.40 C 62.30 80.47 63.69 81.58 64.91 82.89 C 63.65 82.94 61.14 83.04 59.88 83.10 C 60.60 83.49 62.05 84.28 62.78 84.67 C 61.01 85.64 59.39 86.85 58.02 88.34 C 60.58 88.99 61.92 87.20 63.05 85.32 C 64.69 86.39 66.30 87.51 67.80 88.77 C 65.31 89.16 62.79 89.31 60.27 89.34 C 60.58 89.86 61.21 90.90 61.52 91.42 C 62.75 92.09 63.89 92.91 64.92 93.86 C 62.33 94.02 59.74 94.03 57.15 94.01 C 57.03 95.91 56.81 97.82 56.37 99.69 C 57.71 100.71 59.05 101.75 60.36 102.82 C 56.91 103.04 53.46 103.24 50.00 103.31 C 50.00 104.74 50.00 106.17 50.00 107.60 C 52.88 107.57 55.76 107.51 58.63 107.26 C 59.29 106.22 59.95 105.19 60.61 104.15 C 62.34 105.33 64.03 106.55 65.67 107.84 C 61.81 108.58 57.86 108.25 53.96 108.46 C 46.78 108.59 39.63 109.47 32.47 109.73 C 32.12 109.39 31.42 108.73 31.07 108.39 C 35.93 108.26 40.79 108.20 45.65 107.84 C 45.69 106.29 45.72 104.75 45.75 103.20 C 42.90 103.41 40.06 103.65 37.23 103.95 C 36.99 103.54 36.50 102.71 36.26 102.30 C 39.43 102.31 42.60 102.18 45.77 101.93 C 45.75 100.27 45.73 98.60 45.72 96.94 C 43.76 97.05 41.81 97.19 39.86 97.33 C 39.28 99.30 37.61 100.24 35.77 100.83 C 35.85 98.04 35.99 95.25 36.08 92.45 C 33.65 94.85 30.83 96.81 27.68 98.12 C 30.00 95.57 33.27 93.48 34.11 89.92 C 34.92 86.37 34.50 82.70 34.22 79.12 C 36.18 79.68 38.20 80.18 39.98 81.22 C 39.48 81.50 38.50 82.06 38.00 82.34 C 38.00 83.57 38.00 84.81 38.01 86.04 C 39.34 85.96 40.67 85.88 42.00 85.80 C 42.07 84.18 41.61 82.60 41.88 80.98 C 42.24 80.42 42.95 79.30 43.31 78.73 C 44.72 79.64 46.14 80.52 47.56 81.40 C 47.13 81.79 46.26 82.57 45.83 82.97 C 46.07 84.31 46.33 85.66 46.60 87.00 C 43.68 86.98 40.77 87.07 37.86 87.29 C 37.77 88.05 37.60 89.56 37.52 90.32 C 40.68 91.32 43.88 89.28 46.92 90.83 L 46.06 89.22 C 49.29 89.18 52.51 89.01 55.73 88.77 C 56.52 86.85 57.32 84.93 58.10 83.01 C 55.64 83.02 53.18 83.04 50.72 83.04 C 52.17 84.07 55.94 85.55 53.89 87.79 C 50.97 89.94 50.26 85.36 50.37 83.36 C 49.09 83.56 48.06 83.16 47.26 82.16 C 49.26 82.03 51.27 81.97 53.27 81.94 C 53.26 80.27 53.25 78.60 53.24 76.94 M 47.33 90.23 C 46.80 91.82 46.25 93.40 45.74 95.00 C 47.36 96.46 49.10 97.79 50.99 98.90 C 50.53 99.96 50.10 101.02 49.67 102.09 C 51.52 102.01 53.46 102.07 55.07 100.97 C 52.36 99.71 53.47 96.59 53.22 94.27 C 51.18 94.12 48.56 95.23 47.16 93.16 C 49.19 93.03 51.23 92.98 53.27 92.95 C 53.27 92.22 53.26 90.75 53.26 90.02 C 51.28 90.12 49.31 90.21 47.33 90.23 M 57.89 90.25 C 57.78 90.87 57.54 92.11 57.43 92.73 C 58.55 92.93 59.39 92.46 59.96 91.30 C 60.37 90.16 58.56 89.09 57.89 90.25 M 39.19 92.16 C 39.31 93.43 39.42 94.71 39.54 95.99 C 40.20 95.99 41.54 96.01 42.20 96.01 C 42.31 94.56 42.42 93.11 42.53 91.67 C 41.69 91.79 40.02 92.03 39.19 92.16 Z" />
<path fill="#3e2f10" opacity="1.00" d=" M 99.98 97.64 C 102.04 98.40 104.08 99.18 106.12 99.98 C 105.41 100.64 104.70 101.29 104.00 101.95 C 104.00 103.21 104.00 104.48 104.00 105.74 C 105.26 105.75 106.52 105.75 107.78 105.76 C 108.57 104.45 109.36 103.15 110.16 101.85 C 111.81 103.42 113.41 105.05 114.90 106.79 C 111.27 107.01 107.63 107.15 104.00 107.30 C 104.00 109.12 104.00 110.93 104.00 112.74 C 107.07 112.62 110.15 112.54 113.23 112.50 C 114.11 111.12 114.98 109.74 115.86 108.37 C 117.77 109.99 119.64 111.67 121.34 113.51 C 116.54 113.80 111.72 113.67 106.92 113.99 C 107.97 114.58 109.02 115.17 110.08 115.75 C 109.52 117.16 108.96 118.56 108.41 119.97 C 109.22 119.97 110.86 119.97 111.67 119.98 C 112.38 118.67 113.08 117.37 113.79 116.08 C 115.11 117.68 117.85 118.74 117.93 121.04 C 116.50 121.22 115.07 121.33 113.64 121.39 C 112.10 121.45 110.56 121.48 109.02 121.52 C 108.91 126.64 109.41 131.80 108.63 136.88 C 108.33 138.96 106.49 140.22 105.15 141.64 C 103.39 138.85 101.22 136.36 98.64 134.31 C 100.75 134.40 102.86 134.48 104.97 134.54 C 104.98 130.36 104.97 126.19 104.98 122.01 C 99.32 122.51 93.62 122.35 87.96 122.92 C 87.72 122.43 87.23 121.46 86.98 120.98 C 92.98 121.38 98.98 121.01 104.97 120.65 C 104.97 118.48 104.98 116.31 104.99 114.15 C 98.00 114.50 91.04 115.22 84.08 115.78 C 84.05 115.27 84.00 114.26 83.97 113.75 C 89.41 113.73 94.85 113.42 100.27 112.92 C 100.26 111.08 100.25 109.25 100.24 107.41 C 97.05 107.07 92.66 109.45 90.35 106.45 C 93.67 106.24 97.00 106.19 100.32 106.00 C 100.25 103.75 100.16 101.50 100.05 99.26 L 99.98 97.64 Z" />
<path fill="#3e2f10" opacity="1.00" d=" M 58.68 112.96 C 59.46 111.95 60.23 110.95 61.01 109.95 C 63.00 111.10 64.93 112.40 66.52 114.08 C 61.12 114.38 55.70 114.23 50.30 114.61 C 50.45 116.04 50.04 117.40 49.50 118.70 C 51.24 118.79 53.01 118.74 54.17 117.22 C 55.54 118.18 56.90 119.15 58.25 120.13 C 57.79 120.58 56.87 121.47 56.41 121.91 C 56.42 125.46 56.62 129.02 56.38 132.57 C 56.27 134.45 53.76 134.35 52.54 135.16 C 52.39 130.11 52.96 125.08 52.74 120.03 C 52.01 120.01 50.54 119.97 49.80 119.95 C 49.75 121.46 49.71 122.97 49.66 124.49 C 50.25 124.53 51.42 124.61 52.00 124.65 L 52.02 125.88 C 51.44 125.93 50.30 126.02 49.73 126.06 C 49.73 127.87 49.72 129.67 49.71 131.48 C 50.20 131.47 51.19 131.44 51.69 131.42 L 51.91 132.53 C 49.08 132.68 46.25 132.80 43.43 133.04 C 42.69 134.86 41.05 135.77 39.25 136.27 C 39.65 130.00 39.75 123.69 39.18 117.43 C 41.38 118.27 43.65 118.93 45.99 119.22 C 46.00 117.79 46.00 116.37 46.00 114.95 C 41.32 115.01 36.66 115.49 31.98 115.52 C 31.55 115.19 30.70 114.54 30.27 114.21 C 39.73 113.57 49.23 113.66 58.68 112.96 M 42.70 120.32 C 43.08 124.12 43.02 127.94 42.99 131.75 C 43.74 131.75 45.25 131.74 46.00 131.74 C 46.00 129.86 46.00 127.98 46.00 126.10 C 45.37 125.99 44.10 125.76 43.46 125.64 C 44.09 125.33 45.36 124.69 45.99 124.38 C 45.99 122.99 45.99 121.59 45.99 120.21 C 44.89 120.24 43.80 120.28 42.70 120.32 Z" />
<path fill="#3e2f10" opacity="1.00" d=" M 59.27 121.27 C 61.30 122.07 63.31 122.93 65.28 123.87 C 64.88 124.36 64.08 125.35 63.67 125.84 C 63.75 130.55 64.37 135.26 64.17 139.97 C 63.67 142.02 61.38 142.46 59.60 142.67 C 59.56 141.25 59.53 139.83 59.50 138.42 C 52.14 138.85 44.77 139.07 37.41 139.51 C 36.24 141.09 34.77 142.51 32.77 142.93 C 33.05 135.79 33.62 128.64 32.97 121.50 C 34.70 122.22 36.43 122.96 38.15 123.70 C 35.84 128.18 37.47 133.48 37.00 138.32 C 44.52 137.85 52.05 137.73 59.56 137.22 C 59.61 131.90 59.14 126.59 59.27 121.27 Z" />
<path fill="#3e2f10" opacity="1.00" d=" M 95.07 123.64 C 98.08 124.59 102.08 127.06 100.73 130.80 C 100.37 132.63 98.13 132.05 96.82 132.43 C 96.45 129.46 95.99 126.50 95.07 123.64 Z" />
</g>
</svg>
