<?xml version="1.0" encoding="UTF-8" ?>
<!DOCTYPE svg PUBLIC "-//W3C//DTD SVG 1.1//EN" "http://www.w3.org/Graphics/SVG/1.1/DTD/svg11.dtd">
<svg width="16pt" height="16pt" viewBox="0 0 16 16" version="1.1" xmlns="http://www.w3.org/2000/svg">
<g id="#da542eff">
<path fill="#da542e" opacity="1.00" d=" M 7.55 0.00 L 8.12 0.00 C 8.14 2.24 8.22 4.47 8.19 6.71 C 8.18 7.02 8.16 7.62 8.15 7.92 C 7.74 7.92 6.92 7.91 6.51 7.90 C 2.70 6.39 3.73 0.74 7.55 0.00 Z" />
</g>
<g id="#ffb848ff">
<path fill="#ffb848" opacity="1.00" d=" M 8.19 6.71 C 9.50 2.72 15.31 3.60 16.00 7.49 L 16.00 8.22 C 13.84 8.24 11.68 8.24 9.53 8.08 C 9.18 8.04 8.49 7.96 8.15 7.92 C 8.16 7.62 8.18 7.02 8.19 6.71 Z" />
</g>
<g id="#28b779ff">
<path fill="#28b779" opacity="1.00" d=" M 0.00 8.12 C 2.17 8.03 4.34 7.92 6.51 7.90 C 6.92 7.91 7.74 7.92 8.15 7.92 C 8.14 8.33 8.11 9.16 8.10 9.57 C 6.52 13.53 0.74 12.64 0.00 8.54 L 0.00 8.12 Z" />
</g>
<g id="#27a9e3ff">
<path fill="#27a9e3" opacity="1.00" d=" M 8.15 7.92 C 8.49 7.96 9.18 8.04 9.53 8.08 C 13.35 9.68 12.57 16.22 8.07 15.99 C 8.03 13.85 8.03 11.71 8.10 9.57 C 8.11 9.16 8.14 8.33 8.15 7.92 Z" />
</g>
</svg>
