<?xml version="1.0" encoding="UTF-8" ?>
<!DOCTYPE svg PUBLIC "-//W3C//DTD SVG 1.1//EN" "http://www.w3.org/Graphics/SVG/1.1/DTD/svg11.dtd">
<svg width="16pt" height="16pt" viewBox="0 0 16 16" version="1.1" xmlns="http://www.w3.org/2000/svg">
<g id="#1d1d1dff">
<path fill="#1d1d1d" opacity="1.00" d=" M 0.00 0.00 L 16.00 0.00 L 16.00 16.00 L 0.00 16.00 L 0.00 0.00 M 1.95 1.98 L 2.07 2.90 C 2.07 3.38 2.06 4.34 2.06 4.83 C 2.05 5.62 2.01 7.21 2.00 8.00 C 1.97 9.41 2.02 10.82 2.16 12.23 C 1.08 14.52 3.31 14.10 4.83 13.90 C 6.16 14.04 7.47 14.02 8.79 13.86 C 10.52 14.01 12.25 14.06 13.98 13.98 C 14.07 12.24 14.00 10.50 13.79 8.78 L 14.07 7.98 C 14.05 7.48 14.01 6.50 13.98 6.00 C 13.99 5.51 13.99 4.54 14.00 4.05 C 14.38 -1.08 4.93 3.58 1.95 1.98 Z" />
</g>
<g id="#fdcbb6ff">
<path fill="#fdcbb6" opacity="1.00" d=" M 1.95 1.98 C 4.93 3.58 14.38 -1.08 14.00 4.05 C 9.96 4.30 5.96 3.95 2.07 2.90 L 1.95 1.98 Z" />
</g>
<g id="#feb38eff">
<path fill="#feb38e" opacity="1.00" d=" M 2.07 2.90 C 5.96 3.95 9.96 4.30 14.00 4.05 C 13.99 4.54 13.99 5.51 13.98 6.00 C 12.20 6.02 8.64 6.04 6.85 6.06 C 5.26 5.62 3.67 5.18 2.06 4.83 C 2.06 4.34 2.07 3.38 2.07 2.90 Z" />
</g>
<g id="#fe8a64ff">
<path fill="#fe8a64" opacity="1.00" d=" M 2.06 4.83 C 3.67 5.18 5.26 5.62 6.85 6.06 C 7.18 6.55 7.84 7.52 8.18 8.01 C 7.69 8.02 6.71 8.05 6.22 8.07 C 4.81 8.05 3.40 8.02 2.00 8.00 C 2.01 7.21 2.05 5.62 2.06 4.83 Z" />
</g>
<g id="#feb55cff">
<path fill="#feb55c" opacity="1.00" d=" M 6.85 6.06 C 8.64 6.04 12.20 6.02 13.98 6.00 C 14.01 6.50 14.05 7.48 14.07 7.98 C 12.76 8.01 11.45 8.04 10.14 8.07 C 9.65 8.06 8.67 8.02 8.18 8.01 C 7.84 7.52 7.18 6.55 6.85 6.06 Z" />
</g>
<g id="#fe5b03ff">
<path fill="#fe5b03" opacity="1.00" d=" M 2.00 8.00 C 3.40 8.02 4.81 8.05 6.22 8.07 C 4.91 9.50 3.55 10.88 2.16 12.23 C 2.02 10.82 1.97 9.41 2.00 8.00 Z" />
</g>
<g id="#ff8400ff">
<path fill="#ff8400" opacity="1.00" d=" M 6.22 8.07 C 6.71 8.05 7.69 8.02 8.18 8.01 C 8.67 8.02 9.65 8.06 10.14 8.07 C 8.37 10.01 6.61 11.97 4.83 13.90 C 3.31 14.10 1.08 14.52 2.16 12.23 C 3.55 10.88 4.91 9.50 6.22 8.07 Z" />
</g>
<g id="#ffaa00ff">
<path fill="#ffaa00" opacity="1.00" d=" M 10.14 8.07 C 11.45 8.04 12.76 8.01 14.07 7.98 L 13.79 8.78 C 12.09 10.44 10.40 12.12 8.79 13.86 C 7.47 14.02 6.16 14.04 4.83 13.90 C 6.61 11.97 8.37 10.01 10.14 8.07 Z" />
</g>
<g id="#ffcb00ff">
<path fill="#ffcb00" opacity="1.00" d=" M 8.79 13.86 C 10.40 12.12 12.09 10.44 13.79 8.78 C 14.00 10.50 14.07 12.24 13.98 13.98 C 12.25 14.06 10.52 14.01 8.79 13.86 Z" />
</g>
</svg>
