<?xml version="1.0" encoding="UTF-8" ?>
<!DOCTYPE svg PUBLIC "-//W3C//DTD SVG 1.1//EN" "http://www.w3.org/Graphics/SVG/1.1/DTD/svg11.dtd">
<svg width="256pt" height="256pt" viewBox="0 0 256 256" version="1.1" xmlns="http://www.w3.org/2000/svg">
<g id="#fc4112ff">
<path fill="#fc4112" opacity="1.00" d=" M 107.11 22.20 C 116.74 17.56 128.31 18.46 137.72 23.20 C 145.25 26.89 149.97 34.15 156.12 39.56 C 153.27 41.51 150.50 43.60 148.12 46.11 C 132.75 62.07 117.34 78.00 101.95 93.94 C 94.30 101.78 92.53 114.68 97.82 124.28 C 108.46 144.28 119.08 164.29 129.72 184.28 C 133.50 191.56 141.03 196.49 149.05 197.75 C 154.75 198.57 160.37 196.95 165.95 196.06 C 172.19 195.05 178.35 193.61 184.65 193.06 C 180.56 200.86 176.44 208.65 172.25 216.41 C 165.54 228.76 150.76 235.82 136.91 233.91 C 106.94 228.64 76.96 223.36 47.00 218.05 C 32.13 215.87 19.53 202.88 17.91 187.92 C 13.55 157.64 9.42 127.32 5.08 97.04 C 3.73 82.83 12.05 68.15 25.05 62.17 C 52.41 48.87 79.72 35.45 107.11 22.20 Z" />
</g>
<g id="#db6b3bdb">
<path fill="#db6b3b" opacity="0.86" d=" M 156.40 39.85 C 163.49 36.26 172.30 36.09 179.43 39.69 C 199.84 49.65 220.26 59.59 240.66 69.56 C 250.45 74.31 256.49 85.78 254.82 96.53 C 251.66 119.00 248.52 141.46 245.35 163.92 C 244.27 172.18 238.69 179.48 231.42 183.36 C 226.62 185.94 221.07 186.19 215.84 187.27 C 205.67 188.95 195.56 191.07 185.35 192.46 C 186.26 190.38 187.19 188.31 188.25 186.30 C 197.00 170.00 205.60 153.63 214.34 137.33 C 220.54 126.97 220.68 113.44 215.14 102.78 C 211.97 96.59 206.46 92.16 201.80 87.15 C 186.83 71.22 171.30 55.83 156.40 39.85 Z" />
</g>
<g id="#fe743dff">
<path fill="#fe743d" opacity="1.00" d=" M 148.12 46.11 C 150.50 43.60 153.27 41.51 156.12 39.56 L 156.40 39.85 C 171.30 55.83 186.83 71.22 201.80 87.15 C 206.46 92.16 211.97 96.59 215.14 102.78 C 220.68 113.44 220.54 126.97 214.34 137.33 C 205.60 153.63 197.00 170.00 188.25 186.30 C 187.19 188.31 186.26 190.38 185.35 192.46 C 185.29 192.60 185.17 192.87 185.11 193.01 L 184.65 193.06 C 178.35 193.61 172.19 195.05 165.95 196.06 C 160.37 196.95 154.75 198.57 149.05 197.75 C 141.03 196.49 133.50 191.56 129.72 184.28 C 119.08 164.29 108.46 144.28 97.82 124.28 C 92.53 114.68 94.30 101.78 101.95 93.94 C 117.34 78.00 132.75 62.07 148.12 46.11 Z" />
</g>
</svg>
