<?xml version="1.0" encoding="UTF-8" ?>
<!DOCTYPE svg PUBLIC "-//W3C//DTD SVG 1.1//EN" "http://www.w3.org/Graphics/SVG/1.1/DTD/svg11.dtd">
<svg width="32pt" height="32pt" viewBox="0 0 32 32" version="1.1" xmlns="http://www.w3.org/2000/svg">
<g id="#4a6a8aff">
<path fill="#4a6a8a" opacity="1.00" d=" M 13.34 1.21 C 16.51 -1.16 19.72 2.17 22.54 3.51 C 25.01 5.25 28.61 6.04 29.95 8.96 C 30.25 13.61 30.28 18.32 29.93 22.98 C 28.74 25.75 25.36 26.55 23.06 28.21 C 20.06 29.66 16.73 33.26 13.32 30.73 C 9.70 28.35 5.21 26.95 2.30 23.69 C 1.67 18.68 1.51 13.31 2.37 8.33 C 5.45 5.24 9.71 3.59 13.34 1.21 M 5.86 10.36 C 4.51 13.92 4.58 18.03 5.80 21.61 C 7.45 22.56 9.11 23.50 10.79 24.39 C 10.49 24.90 9.89 25.91 9.59 26.42 C 10.13 26.09 11.21 25.42 11.75 25.09 C 13.59 26.34 15.64 27.16 17.88 27.14 C 17.91 25.59 17.93 24.03 17.95 22.48 C 18.28 22.29 18.95 21.92 19.29 21.73 C 20.92 21.94 22.53 22.26 24.10 22.77 C 24.78 22.36 25.46 21.94 26.14 21.53 C 27.43 18.01 27.50 13.93 26.18 10.41 C 24.50 9.48 22.85 8.50 21.19 7.52 C 21.49 7.03 22.08 6.06 22.38 5.57 C 21.82 5.90 20.71 6.58 20.15 6.92 C 18.54 6.23 17.01 4.52 15.09 5.10 C 11.86 6.57 9.00 8.73 5.86 10.36 M 21.02 27.36 C 24.16 27.83 23.81 24.00 21.84 22.78 C 19.68 23.41 17.90 26.75 21.02 27.36 Z" />
</g>
<g id="#97b1e5ff">
<path fill="#97b1e5" opacity="1.00" d=" M 5.86 10.36 C 9.00 8.73 11.86 6.57 15.09 5.10 C 17.01 4.52 18.54 6.23 20.15 6.92 C 19.31 7.49 18.46 8.07 17.64 8.69 C 14.57 8.78 11.78 10.42 9.56 12.44 C 9.20 14.81 9.19 17.26 9.57 19.64 C 10.50 20.50 11.58 21.18 12.60 21.92 C 12.15 22.54 11.24 23.77 10.79 24.39 C 9.11 23.50 7.45 22.56 5.80 21.61 C 6.08 17.87 6.07 14.11 5.86 10.36 Z" />
<path fill="#97b1e5" opacity="1.00" d=" M 19.34 10.08 C 19.98 9.24 20.60 8.39 21.19 7.52 C 22.85 8.50 24.50 9.48 26.18 10.41 C 25.94 14.11 25.92 17.83 26.14 21.53 C 25.46 21.94 24.78 22.36 24.10 22.77 C 22.53 22.26 20.92 21.94 19.29 21.73 C 20.35 21.06 21.48 20.45 22.41 19.59 C 22.77 17.21 22.78 14.75 22.40 12.38 C 21.46 11.51 20.37 10.83 19.34 10.08 Z" />
</g>
<g id="#ffbd5cff">
<path fill="#ffbd5c" opacity="1.00" d=" M 20.15 6.92 C 20.71 6.58 21.82 5.90 22.38 5.57 C 22.08 6.06 21.49 7.03 21.19 7.52 C 20.60 8.39 19.98 9.24 19.34 10.08 C 18.42 11.27 17.46 12.43 16.52 13.60 C 17.66 15.35 18.76 17.12 19.83 18.90 C 18.02 20.32 16.21 21.74 14.41 23.16 C 13.54 23.82 12.65 24.46 11.75 25.09 C 11.21 25.42 10.13 26.09 9.59 26.42 C 9.89 25.91 10.49 24.90 10.79 24.39 C 11.24 23.77 12.15 22.54 12.60 21.92 C 13.52 20.74 14.47 19.58 15.41 18.41 C 14.28 16.65 13.19 14.87 12.11 13.07 C 13.97 11.63 15.81 10.17 17.64 8.69 C 18.46 8.07 19.31 7.49 20.15 6.92 Z" />
</g>
<g id="#405a76cc">
<path fill="#405a76" opacity="0.80" d=" M 5.80 21.61 C 4.58 18.03 4.51 13.92 5.86 10.36 C 6.07 14.11 6.08 17.87 5.80 21.61 Z" />
<path fill="#405a76" opacity="0.80" d=" M 26.18 10.41 C 27.50 13.93 27.43 18.01 26.14 21.53 C 25.92 17.83 25.94 14.11 26.18 10.41 Z" />
</g>
<g id="#96afe1fd">
<path fill="#96afe1" opacity="1.00" d=" M 11.75 25.09 C 12.65 24.46 13.54 23.82 14.41 23.16 C 14.92 23.17 15.93 23.20 16.44 23.21 C 16.82 23.03 17.57 22.66 17.95 22.48 C 17.93 24.03 17.91 25.59 17.88 27.14 C 15.64 27.16 13.59 26.34 11.75 25.09 Z" />
</g>
<g id="#94e0e2ff">
<path fill="#94e0e2" opacity="1.00" d=" M 21.02 27.36 C 17.90 26.75 19.68 23.41 21.84 22.78 C 23.81 24.00 24.16 27.83 21.02 27.36 Z" />
</g>
</svg>
