<?xml version="1.0" encoding="UTF-8" ?>
<!DOCTYPE svg PUBLIC "-//W3C//DTD SVG 1.1//EN" "http://www.w3.org/Graphics/SVG/1.1/DTD/svg11.dtd">
<svg width="32pt" height="32pt" viewBox="0 0 32 32" version="1.1" xmlns="http://www.w3.org/2000/svg">
<g id="#d6156cff">
<path fill="#d6156c" opacity="1.00" d=" M 2.04 10.01 C 4.79 9.09 3.79 12.13 4.08 13.77 C 5.61 13.32 7.19 12.76 8.79 13.11 C 11.49 15.11 9.64 19.09 9.97 21.98 C 4.75 23.72 10.95 13.61 6.03 15.03 C 1.87 15.22 6.53 23.10 2.02 22.01 C 1.91 18.01 1.92 14.01 2.04 10.01 Z" />
<path fill="#d6156c" opacity="1.00" d=" M 13.22 10.34 C 14.90 8.70 12.86 14.11 15.06 13.00 C 17.03 13.29 17.39 10.93 18.64 9.95 C 19.07 11.25 19.24 12.77 20.57 13.49 C 22.71 15.38 13.79 15.73 19.29 19.55 C 20.46 19.95 21.05 20.78 21.07 22.01 C 17.80 22.82 15.15 19.66 16.97 16.00 C 17.25 13.31 8.58 15.56 14.29 19.54 C 18.38 21.16 13.66 23.73 12.27 20.72 C 12.29 17.46 9.75 12.82 13.22 10.34 Z" />
<path fill="#d6156c" opacity="1.00" d=" M 22.07 13.15 C 24.53 13.83 27.72 12.04 29.30 14.69 C 32.60 18.35 27.90 23.86 24.08 21.23 C 23.80 22.89 24.78 25.90 22.01 25.00 C 21.90 21.05 21.92 17.10 22.07 13.15 M 25.20 15.12 C 22.90 16.32 23.95 20.83 26.80 19.88 C 29.09 18.68 28.05 14.17 25.20 15.12 Z" />
</g>
</svg>
