<?xml version="1.0" encoding="UTF-8" ?>
<!DOCTYPE svg PUBLIC "-//W3C//DTD SVG 1.1//EN" "http://www.w3.org/Graphics/SVG/1.1/DTD/svg11.dtd">
<svg width="144pt" height="144pt" viewBox="0 0 144 144" version="1.1" xmlns="http://www.w3.org/2000/svg">
<g id="#cb2729ff">
<path fill="#cb2729" opacity="1.00" d=" M 0.00 0.00 L 144.00 0.00 L 144.00 144.00 L 0.00 144.00 L 0.00 0.00 M 38.83 33.83 C 31.81 41.24 26.90 50.89 25.86 61.10 C 27.80 61.56 29.72 62.08 31.63 62.66 C 34.26 55.98 36.82 48.23 43.69 44.76 C 46.33 43.57 50.80 42.13 52.44 45.50 C 54.51 50.39 53.97 55.87 53.55 61.03 C 51.69 79.67 47.09 97.90 42.41 116.00 C 46.90 116.00 51.38 116.00 55.87 116.00 C 60.66 102.74 64.34 89.02 66.28 75.05 C 69.94 74.94 73.59 75.01 77.24 75.00 C 76.46 85.52 75.30 96.42 78.44 106.68 C 79.88 111.53 83.54 116.29 88.91 116.81 C 95.71 117.26 101.96 113.23 106.46 108.47 C 113.04 101.08 117.80 91.78 118.78 81.86 C 116.73 81.39 114.68 80.91 112.63 80.42 C 110.71 87.26 107.57 94.62 101.02 98.17 C 98.63 99.22 95.62 100.35 93.18 98.89 C 91.25 96.74 90.97 93.70 90.84 90.94 C 90.53 82.23 91.96 73.58 93.46 65.02 C 95.87 52.24 98.80 39.55 102.27 27.01 C 97.76 27.29 92.90 26.42 88.60 27.41 C 84.46 38.64 81.53 50.28 79.20 62.00 C 75.45 62.00 71.69 62.00 67.94 62.00 C 68.14 52.80 69.03 43.16 65.47 34.42 C 63.79 30.11 59.94 26.32 55.11 26.15 C 48.86 26.04 43.07 29.47 38.83 33.83 Z" />
</g>
<g id="#ffffffff">
<path fill="#ffffff" opacity="1.00" d=" M 38.83 33.83 C 43.07 29.47 48.86 26.04 55.11 26.15 C 59.94 26.32 63.79 30.11 65.47 34.42 C 69.03 43.16 68.14 52.80 67.94 62.00 C 71.69 62.00 75.45 62.00 79.20 62.00 C 81.53 50.28 84.46 38.64 88.60 27.41 C 92.90 26.42 97.76 27.29 102.27 27.01 C 98.80 39.55 95.87 52.24 93.46 65.02 C 91.96 73.58 90.53 82.23 90.84 90.94 C 90.97 93.70 91.25 96.74 93.18 98.89 C 95.62 100.35 98.63 99.22 101.02 98.17 C 107.57 94.62 110.71 87.26 112.63 80.42 C 114.68 80.91 116.73 81.39 118.78 81.86 C 117.80 91.78 113.04 101.08 106.46 108.47 C 101.96 113.23 95.71 117.26 88.91 116.81 C 83.54 116.29 79.88 111.53 78.44 106.68 C 75.30 96.42 76.46 85.52 77.24 75.00 C 73.59 75.01 69.94 74.94 66.28 75.05 C 64.34 89.02 60.66 102.74 55.87 116.00 C 51.38 116.00 46.90 116.00 42.41 116.00 C 47.09 97.90 51.69 79.67 53.55 61.03 C 53.97 55.87 54.51 50.39 52.44 45.50 C 50.80 42.13 46.33 43.57 43.69 44.76 C 36.82 48.23 34.26 55.98 31.63 62.66 C 29.72 62.08 27.80 61.56 25.86 61.10 C 26.90 50.89 31.81 41.24 38.83 33.83 Z" />
</g>
</svg>
