<?xml version="1.0" encoding="UTF-8" ?>
<!DOCTYPE svg PUBLIC "-//W3C//DTD SVG 1.1//EN" "http://www.w3.org/Graphics/SVG/1.1/DTD/svg11.dtd">
<svg width="200pt" height="200pt" viewBox="0 0 200 200" version="1.1" xmlns="http://www.w3.org/2000/svg">
<g id="#014d97ff">
<path fill="#014d97" opacity="1.00" d=" M 0.00 0.00 L 200.00 0.00 L 200.00 200.00 L 0.00 200.00 L 0.00 0.00 M 89.46 24.34 C 69.31 39.24 49.12 54.08 28.98 68.99 C 28.71 69.25 28.18 69.77 27.92 70.03 C 27.49 70.23 26.65 70.63 26.23 70.83 C 47.00 107.45 67.73 144.10 88.27 180.84 C 89.54 180.96 90.54 180.14 91.56 179.53 C 117.83 164.13 144.16 148.83 170.43 133.42 C 171.56 132.67 173.02 132.32 173.79 131.11 C 155.65 98.51 138.14 65.54 120.19 32.83 C 119.20 30.70 117.10 29.42 114.95 28.71 C 111.44 27.78 108.41 30.22 105.44 31.64 C 103.07 28.50 101.55 24.15 97.60 22.64 C 94.80 21.59 91.67 22.44 89.46 24.34 Z" />
</g>
<g id="#01ddffff">
<path fill="#01ddff" opacity="1.00" d=" M 89.46 24.34 C 91.67 22.44 94.80 21.59 97.60 22.64 C 101.55 24.15 103.07 28.50 105.44 31.64 C 79.66 44.56 53.83 57.39 27.92 70.03 C 28.18 69.77 28.71 69.25 28.98 68.99 C 49.12 54.08 69.31 39.24 89.46 24.34 Z" />
</g>
<g id="#ffffffff">
<path fill="#ffffff" opacity="1.00" d=" M 105.44 31.64 C 108.41 30.22 111.44 27.78 114.95 28.71 C 117.10 29.42 119.20 30.70 120.19 32.83 C 138.14 65.54 155.65 98.51 173.79 131.11 C 173.02 132.32 171.56 132.67 170.43 133.42 C 144.16 148.83 117.83 164.13 91.56 179.53 C 90.54 180.14 89.54 180.96 88.27 180.84 C 67.73 144.10 47.00 107.45 26.23 70.83 C 26.65 70.63 27.49 70.23 27.92 70.03 C 53.83 57.39 79.66 44.56 105.44 31.64 M 93.66 69.12 C 87.52 69.57 82.57 73.53 77.34 76.33 C 73.73 78.57 69.04 80.17 67.50 84.56 C 66.29 87.23 66.72 90.33 68.11 92.84 C 76.77 107.85 85.43 122.87 94.09 137.88 C 95.15 140.03 97.54 141.39 99.94 140.77 C 103.37 140.30 104.91 135.83 103.04 133.08 C 94.38 118.27 86.01 103.28 77.16 88.59 C 79.82 86.01 83.63 84.87 86.59 82.60 L 86.82 82.62 C 89.64 80.95 92.51 78.83 95.99 79.12 C 100.83 78.78 105.19 82.12 107.08 86.43 L 107.22 86.44 C 107.94 89.85 108.40 94.03 105.74 96.76 C 104.10 98.24 101.82 99.52 101.64 101.99 C 101.28 104.55 103.25 106.64 105.41 107.65 C 114.34 112.61 123.01 118.10 132.06 122.80 C 132.42 120.61 130.85 118.54 131.12 116.30 C 133.07 115.55 135.49 115.72 136.99 114.11 C 129.69 109.95 122.43 105.72 115.15 101.53 C 117.96 96.48 118.46 90.45 117.15 84.88 C 115.20 77.69 109.31 71.82 102.18 69.72 C 99.37 69.27 96.51 68.42 93.66 69.12 Z" />
</g>
<g id="#0764b0ff">
<path fill="#0764b0" opacity="1.00" d=" M 93.66 69.12 C 96.51 68.42 99.37 69.27 102.18 69.72 C 99.02 69.59 95.74 69.28 92.74 70.53 C 86.24 72.27 81.27 77.02 75.44 80.08 C 72.01 81.53 68.76 84.83 69.25 88.82 C 69.11 93.76 75.20 94.01 78.74 95.17 C 78.25 93.23 77.31 91.46 76.47 89.67 C 76.64 89.40 76.99 88.86 77.16 88.59 C 86.01 103.28 94.38 118.27 103.04 133.08 C 104.91 135.83 103.37 140.30 99.94 140.77 C 97.54 141.39 95.15 140.03 94.09 137.88 C 85.43 122.87 76.77 107.85 68.11 92.84 C 66.72 90.33 66.29 87.23 67.50 84.56 C 69.04 80.17 73.73 78.57 77.34 76.33 C 82.57 73.53 87.52 69.57 93.66 69.12 Z" />
</g>
<g id="#1088d7ff">
<path fill="#1088d7" opacity="1.00" d=" M 92.74 70.53 C 95.74 69.28 99.02 69.59 102.18 69.72 C 109.31 71.82 115.20 77.69 117.15 84.88 C 116.80 88.26 116.66 91.74 115.34 94.93 C 113.92 94.25 112.36 93.76 111.19 92.67 C 110.11 90.79 109.84 88.55 108.89 86.60 C 108.47 86.56 107.64 86.48 107.22 86.44 L 107.08 86.43 C 105.19 82.12 100.83 78.78 95.99 79.12 C 92.51 78.83 89.64 80.95 86.82 82.62 L 86.59 82.60 C 82.77 82.12 78.10 83.80 75.44 80.08 C 81.27 77.02 86.24 72.27 92.74 70.53 Z" />
</g>
<g id="#0b76c3ff">
<path fill="#0b76c3" opacity="1.00" d=" M 69.25 88.82 C 68.76 84.83 72.01 81.53 75.44 80.08 C 78.10 83.80 82.77 82.12 86.59 82.60 C 83.63 84.87 79.82 86.01 77.16 88.59 C 76.99 88.86 76.64 89.40 76.47 89.67 C 77.31 91.46 78.25 93.23 78.74 95.17 C 75.20 94.01 69.11 93.76 69.25 88.82 Z" />
</g>
<g id="#096fbbff">
<path fill="#096fbb" opacity="1.00" d=" M 117.15 84.88 C 118.46 90.45 117.96 96.48 115.15 101.53 C 122.43 105.72 129.69 109.95 136.99 114.11 C 135.49 115.72 133.07 115.55 131.12 116.30 C 130.85 118.54 132.42 120.61 132.06 122.80 C 123.01 118.10 114.34 112.61 105.41 107.65 C 103.25 106.64 101.28 104.55 101.64 101.99 C 101.82 99.52 104.10 98.24 105.74 96.76 C 108.40 94.03 107.94 89.85 107.22 86.44 C 107.64 86.48 108.47 86.56 108.89 86.60 C 109.84 88.55 110.11 90.79 111.19 92.67 C 112.36 93.76 113.92 94.25 115.34 94.93 C 116.66 91.74 116.80 88.26 117.15 84.88 Z" />
</g>
</svg>
