<?xml version="1.0" encoding="UTF-8" ?>
<!DOCTYPE svg PUBLIC "-//W3C//DTD SVG 1.1//EN" "http://www.w3.org/Graphics/SVG/1.1/DTD/svg11.dtd">
<svg width="582pt" height="582pt" viewBox="0 0 582 582" version="1.1" xmlns="http://www.w3.org/2000/svg">
<g id="#d40000ff">
<path fill="#d40000" opacity="1.00" d=" M 275.25 0.00 L 306.69 0.00 C 337.95 1.88 369.04 8.28 398.14 19.93 C 447.51 39.27 491.19 72.62 523.21 114.84 C 558.39 160.77 578.83 217.50 582.00 275.21 L 582.00 305.77 C 578.85 365.68 556.90 424.52 519.39 471.41 C 494.02 503.35 461.96 530.00 425.74 548.81 C 389.65 567.63 349.56 578.71 308.93 581.10 C 259.85 584.16 210.05 574.47 165.71 553.22 C 130.25 536.30 98.39 511.98 72.48 482.46 C 30.74 435.19 5.26 373.97 1.04 311.06 C -2.50 261.03 7.09 210.11 28.84 164.90 C 51.30 117.82 86.85 77.17 130.23 48.26 C 173.10 19.54 223.78 3.00 275.25 0.00 M 136.13 139.02 C 103.01 172.49 81.34 217.07 75.65 263.83 C 69.55 310.83 79.49 359.71 103.47 400.59 C 109.83 411.01 116.50 421.47 124.78 430.43 C 126.52 428.53 128.39 426.78 130.18 424.94 C 148.09 407.05 165.97 389.13 183.87 371.24 C 205.93 349.17 228.04 327.14 250.06 305.03 C 279.53 275.66 308.86 246.14 338.39 216.83 C 354.85 200.12 371.56 183.65 388.10 167.02 C 400.49 154.63 412.89 142.24 425.27 129.84 C 426.79 128.21 428.58 126.81 429.94 125.05 C 429.70 123.59 427.84 123.12 426.93 122.09 C 384.97 88.01 329.90 70.75 275.99 74.67 C 223.58 78.02 172.78 101.40 136.13 139.02 M 452.17 156.72 C 437.42 171.44 422.67 186.16 407.97 200.92 C 391.07 217.74 374.26 234.65 357.37 251.48 L 357.27 251.91 C 347.87 260.59 339.05 269.99 329.90 278.97 C 310.71 298.07 291.64 317.28 272.46 336.38 C 247.80 361.05 223.16 385.75 198.45 410.36 C 184.80 424.18 170.94 437.81 157.28 451.63 L 157.26 451.60 C 155.45 453.68 153.02 455.31 151.60 457.68 C 162.05 466.02 172.91 473.89 184.66 480.32 C 222.70 501.90 267.45 511.21 310.96 507.13 C 345.51 503.99 379.30 492.41 408.41 473.52 C 441.91 452.00 469.23 421.00 486.45 385.11 C 504.47 347.79 511.35 305.21 506.12 264.10 C 501.19 223.10 483.91 183.85 457.59 152.08 C 455.24 152.59 454.02 155.30 452.17 156.72 Z" />
</g>
<g id="#ffffffff">
<path fill="#ffffff" opacity="1.00" d=" M 136.13 139.02 C 172.78 101.40 223.58 78.02 275.99 74.67 C 329.90 70.75 384.97 88.01 426.93 122.09 C 427.84 123.12 429.70 123.59 429.94 125.05 C 428.58 126.81 426.79 128.21 425.27 129.84 C 386.79 97.50 336.30 79.91 286.05 81.41 C 238.48 82.34 191.47 100.31 155.40 131.34 C 121.84 159.77 97.61 199.07 87.47 241.89 C 77.43 283.65 80.56 328.50 96.56 368.38 C 104.63 388.89 116.24 407.90 130.18 424.94 C 128.39 426.78 126.52 428.53 124.78 430.43 C 116.50 421.47 109.83 411.01 103.47 400.59 C 79.49 359.71 69.55 310.83 75.65 263.83 C 81.34 217.07 103.01 172.49 136.13 139.02 Z" />
<path fill="#ffffff" opacity="1.00" d=" M 452.17 156.72 C 454.02 155.30 455.24 152.59 457.59 152.08 C 483.91 183.85 501.19 223.10 506.12 264.10 C 511.35 305.21 504.47 347.79 486.45 385.11 C 469.23 421.00 441.91 452.00 408.41 473.52 C 379.30 492.41 345.51 503.99 310.96 507.13 C 267.45 511.21 222.70 501.90 184.66 480.32 C 172.91 473.89 162.05 466.02 151.60 457.68 C 153.02 455.31 155.45 453.68 157.26 451.60 L 157.28 451.63 C 175.15 467.22 196.30 478.95 218.44 487.35 C 221.26 488.26 223.99 489.60 226.96 489.95 C 218.50 466.98 210.25 443.93 201.87 420.93 C 200.81 417.39 198.85 414.03 198.45 410.36 C 223.16 385.75 247.80 361.05 272.46 336.38 C 283.44 348.23 297.51 358.33 313.89 360.49 C 324.06 361.52 334.79 360.62 344.00 355.87 C 355.93 350.35 367.10 341.55 372.24 329.12 C 377.32 317.07 376.33 303.44 373.16 291.03 C 369.74 277.30 363.54 264.52 357.27 251.91 L 357.37 251.48 C 374.26 234.65 391.07 217.74 407.97 200.92 C 418.35 223.39 427.48 246.43 438.52 268.60 C 446.05 282.75 453.97 297.14 465.79 308.22 C 473.57 315.63 483.92 321.07 494.91 320.53 C 496.21 320.24 498.90 321.15 498.80 318.96 C 504.44 277.62 497.48 234.60 478.70 197.30 C 471.49 182.80 462.54 169.16 452.17 156.72 M 406.35 349.37 C 397.72 368.25 384.89 385.97 366.88 396.84 C 355.45 403.82 342.31 407.77 329.02 408.92 C 311.94 410.63 294.77 408.03 278.15 404.17 C 291.02 435.66 304.14 467.05 316.99 498.54 C 320.34 498.60 323.62 497.74 326.92 497.25 C 363.07 491.14 397.45 475.12 425.54 451.57 C 451.99 429.38 473.17 400.66 485.73 368.46 C 471.90 370.51 457.76 370.75 444.02 368.01 C 430.50 365.09 417.86 358.45 407.62 349.18 C 407.30 349.23 406.67 349.32 406.35 349.37 Z" />
<path fill="#ffffff" opacity="1.00" d=" M 342.88 162.60 C 353.25 158.41 364.88 156.13 375.96 158.46 C 381.09 159.38 384.82 163.27 388.10 167.02 C 371.56 183.65 354.85 200.12 338.39 216.83 C 337.18 216.25 336.89 214.79 336.22 213.75 C 333.44 208.38 330.53 203.07 328.31 197.43 C 325.76 191.43 323.12 184.62 325.24 178.11 C 328.19 170.43 335.70 165.81 342.88 162.60 Z" />
<path fill="#ffffff" opacity="1.00" d=" M 158.90 200.29 C 169.78 198.02 181.17 196.64 192.16 198.98 C 196.95 199.99 201.53 202.64 203.95 207.02 C 211.16 219.17 215.96 232.52 221.62 245.42 C 230.16 265.72 238.84 286.04 250.06 305.03 C 228.04 327.14 205.93 349.17 183.87 371.24 C 165.54 320.87 147.29 270.47 129.01 220.07 C 127.38 216.18 130.69 212.76 133.48 210.53 C 140.95 205.07 150.01 202.40 158.90 200.29 Z" />
</g>
<g id="#52b529ff">
<path fill="#52b529" opacity="1.00" d=" M 155.40 131.34 C 191.47 100.31 238.48 82.34 286.05 81.41 C 336.30 79.91 386.79 97.50 425.27 129.84 C 412.89 142.24 400.49 154.63 388.10 167.02 C 384.82 163.27 381.09 159.38 375.96 158.46 C 364.88 156.13 353.25 158.41 342.88 162.60 C 335.70 165.81 328.19 170.43 325.24 178.11 C 323.12 184.62 325.76 191.43 328.31 197.43 C 330.53 203.07 333.44 208.38 336.22 213.75 C 336.89 214.79 337.18 216.25 338.39 216.83 C 308.86 246.14 279.53 275.66 250.06 305.03 C 238.84 286.04 230.16 265.72 221.62 245.42 C 215.96 232.52 211.16 219.17 203.95 207.02 C 201.53 202.64 196.95 199.99 192.16 198.98 C 181.17 196.64 169.78 198.02 158.90 200.29 C 150.01 202.40 140.95 205.07 133.48 210.53 C 130.69 212.76 127.38 216.18 129.01 220.07 C 147.29 270.47 165.54 320.87 183.87 371.24 C 165.97 389.13 148.09 407.05 130.18 424.94 C 116.24 407.90 104.63 388.89 96.56 368.38 C 80.56 328.50 77.43 283.65 87.47 241.89 C 97.61 199.07 121.84 159.77 155.40 131.34 Z" />
<path fill="#52b529" opacity="1.00" d=" M 407.97 200.92 C 422.67 186.16 437.42 171.44 452.17 156.72 C 462.54 169.16 471.49 182.80 478.70 197.30 C 497.48 234.60 504.44 277.62 498.80 318.96 C 498.90 321.15 496.21 320.24 494.91 320.53 C 483.92 321.07 473.57 315.63 465.79 308.22 C 453.97 297.14 446.05 282.75 438.52 268.60 C 427.48 246.43 418.35 223.39 407.97 200.92 Z" />
<path fill="#52b529" opacity="1.00" d=" M 329.90 278.97 C 339.05 269.99 347.87 260.59 357.27 251.91 C 363.54 264.52 369.74 277.30 373.16 291.03 C 376.33 303.44 377.32 317.07 372.24 329.12 C 367.10 341.55 355.93 350.35 344.00 355.87 C 334.79 360.62 324.06 361.52 313.89 360.49 C 297.51 358.33 283.44 348.23 272.46 336.38 C 291.64 317.28 310.71 298.07 329.90 278.97 Z" />
<path fill="#52b529" opacity="1.00" d=" M 406.35 349.37 C 406.67 349.32 407.30 349.23 407.62 349.18 C 417.86 358.45 430.50 365.09 444.02 368.01 C 457.76 370.75 471.90 370.51 485.73 368.46 C 473.17 400.66 451.99 429.38 425.54 451.57 C 397.45 475.12 363.07 491.14 326.92 497.25 C 323.62 497.74 320.34 498.60 316.99 498.54 C 304.14 467.05 291.02 435.66 278.15 404.17 C 294.77 408.03 311.94 410.63 329.02 408.92 C 342.31 407.77 355.45 403.82 366.88 396.84 C 384.89 385.97 397.72 368.25 406.35 349.37 Z" />
<path fill="#52b529" opacity="1.00" d=" M 157.28 451.63 C 170.94 437.81 184.80 424.18 198.45 410.36 C 198.85 414.03 200.81 417.39 201.87 420.93 C 210.25 443.93 218.50 466.98 226.96 489.95 C 223.99 489.60 221.26 488.26 218.44 487.35 C 196.30 478.95 175.15 467.22 157.28 451.63 Z" />
</g>
</svg>
