<?xml version="1.0" encoding="UTF-8" ?>
<!DOCTYPE svg PUBLIC "-//W3C//DTD SVG 1.1//EN" "http://www.w3.org/Graphics/SVG/1.1/DTD/svg11.dtd">
<svg width="72pt" height="72pt" viewBox="0 0 72 72" version="1.1" xmlns="http://www.w3.org/2000/svg">
<g id="#f7ca45ff">
<path fill="#f7ca45" opacity="1.00" d=" M 11.66 0.00 L 60.37 0.00 C 66.24 0.71 71.38 5.46 72.00 11.43 L 72.00 60.53 C 71.51 66.46 66.47 71.44 60.57 72.00 L 45.66 72.00 C 45.66 67.74 45.67 63.47 45.64 59.21 C 46.27 58.93 47.51 58.37 48.14 58.09 C 48.15 55.22 48.03 52.35 47.75 49.49 C 46.82 49.45 44.94 49.36 44.01 49.32 C 46.48 45.81 48.89 42.25 51.30 38.69 C 47.33 30.06 43.07 21.56 39.07 12.94 C 38.28 11.33 37.50 9.61 36.01 8.51 C 34.17 10.36 33.22 12.84 32.12 15.16 C 28.49 23.10 24.48 30.85 20.94 38.83 C 23.30 42.26 25.62 45.72 28.09 49.08 C 27.25 49.26 25.57 49.61 24.73 49.78 C 23.64 52.33 24.36 55.34 24.19 58.06 C 24.99 58.48 25.79 58.91 26.59 59.33 C 26.54 63.55 26.55 67.78 26.56 72.00 L 12.25 72.00 C 5.89 71.83 0.72 66.38 0.00 60.22 L 0.00 12.12 C 0.57 5.97 5.56 0.84 11.66 0.00 Z" />
<path fill="#f7ca45" opacity="1.00" d=" M 24.72 38.38 C 27.34 33.24 29.54 27.88 32.36 22.84 C 31.64 28.23 28.99 33.01 27.11 38.03 C 29.14 41.92 31.41 45.67 33.43 49.55 C 29.39 47.00 27.70 42.02 24.72 38.38 Z" />
<path fill="#f7ca45" opacity="1.00" d=" M 27.34 52.67 C 31.64 52.68 35.94 52.70 40.24 52.70 C 40.27 53.40 40.33 54.79 40.36 55.49 C 36.12 55.46 31.88 55.64 27.64 55.51 C 27.56 54.80 27.42 53.38 27.34 52.67 Z" />
</g>
<g id="#120f27ff">
<path fill="#120f27" opacity="1.00" d=" M 32.12 15.16 C 33.22 12.84 34.17 10.36 36.01 8.51 C 37.50 9.61 38.28 11.33 39.07 12.94 C 43.07 21.56 47.33 30.06 51.30 38.69 C 48.89 42.25 46.48 45.81 44.01 49.32 C 44.94 49.36 46.82 49.45 47.75 49.49 C 48.03 52.35 48.15 55.22 48.14 58.09 C 47.51 58.37 46.27 58.93 45.64 59.21 C 45.67 63.47 45.66 67.74 45.66 72.00 L 41.64 72.00 C 41.61 67.79 41.62 63.57 41.73 59.36 C 38.46 59.01 35.17 58.74 31.87 58.78 C 31.37 58.78 30.38 58.79 29.88 58.79 C 29.87 63.19 29.87 67.60 29.87 72.00 L 26.56 72.00 C 26.55 67.78 26.54 63.55 26.59 59.33 C 25.79 58.91 24.99 58.48 24.19 58.06 C 24.36 55.34 23.64 52.33 24.73 49.78 C 25.57 49.61 27.25 49.26 28.09 49.08 C 25.62 45.72 23.30 42.26 20.94 38.83 C 24.48 30.85 28.49 23.10 32.12 15.16 M 32.36 22.84 C 29.54 27.88 27.34 33.24 24.72 38.38 C 27.70 42.02 29.39 47.00 33.43 49.55 C 34.15 49.49 35.58 49.37 36.29 49.32 C 37.51 49.33 38.72 49.33 39.94 49.33 C 42.44 45.64 44.96 41.97 47.45 38.27 C 44.15 31.65 41.04 24.94 37.77 18.30 C 37.77 22.23 37.74 26.16 37.82 30.10 C 38.41 31.37 39.86 32.44 39.55 33.98 C 39.55 36.18 37.20 36.78 35.57 37.43 C 34.51 36.42 32.75 35.71 32.61 34.03 C 32.32 32.49 33.73 31.42 34.37 30.19 C 34.46 26.20 34.45 22.21 34.36 18.23 C 33.65 19.74 32.79 21.21 32.36 22.84 M 27.34 52.67 C 27.42 53.38 27.56 54.80 27.64 55.51 C 31.88 55.64 36.12 55.46 40.36 55.49 C 41.80 55.49 43.24 55.48 44.69 55.48 C 44.68 54.79 44.68 53.41 44.67 52.73 C 43.19 52.72 41.72 52.71 40.24 52.70 C 35.94 52.70 31.64 52.68 27.34 52.67 Z" />
</g>
<g id="#f58e31ff">
<path fill="#f58e31" opacity="1.00" d=" M 32.36 22.84 C 32.79 21.21 33.65 19.74 34.36 18.23 C 34.45 22.21 34.46 26.20 34.37 30.19 C 33.73 31.42 32.32 32.49 32.61 34.03 C 32.75 35.71 34.51 36.42 35.57 37.43 C 36.33 41.35 36.47 45.34 36.29 49.32 C 35.58 49.37 34.15 49.49 33.43 49.55 C 31.41 45.67 29.14 41.92 27.11 38.03 C 28.99 33.01 31.64 28.23 32.36 22.84 Z" />
<path fill="#f58e31" opacity="1.00" d=" M 40.24 52.70 C 41.72 52.71 43.19 52.72 44.67 52.73 C 44.68 53.41 44.68 54.79 44.69 55.48 C 43.24 55.48 41.80 55.49 40.36 55.49 C 40.33 54.79 40.27 53.40 40.24 52.70 Z" />
<path fill="#f58e31" opacity="1.00" d=" M 29.88 58.79 C 30.38 58.79 31.37 58.78 31.87 58.78 C 31.90 63.19 31.88 67.59 31.77 72.00 L 29.87 72.00 C 29.87 67.60 29.87 63.19 29.88 58.79 Z" />
</g>
<g id="#ec6632ff">
<path fill="#ec6632" opacity="1.00" d=" M 37.77 18.30 C 41.04 24.94 44.15 31.65 47.45 38.27 C 44.96 41.97 42.44 45.64 39.94 49.33 C 38.72 49.33 37.51 49.33 36.29 49.32 C 36.47 45.34 36.33 41.35 35.57 37.43 C 37.20 36.78 39.55 36.18 39.55 33.98 C 39.86 32.44 38.41 31.37 37.82 30.10 C 37.74 26.16 37.77 22.23 37.77 18.30 Z" />
</g>
<g id="#d81f30ff">
<path fill="#d81f30" opacity="1.00" d=" M 31.87 58.78 C 35.17 58.74 38.46 59.01 41.73 59.36 C 41.62 63.57 41.61 67.79 41.64 72.00 L 31.77 72.00 C 31.88 67.59 31.90 63.19 31.87 58.78 Z" />
</g>
</svg>
