<?xml version="1.0" encoding="UTF-8" ?>
<!DOCTYPE svg PUBLIC "-//W3C//DTD SVG 1.1//EN" "http://www.w3.org/Graphics/SVG/1.1/DTD/svg11.dtd">
<svg width="16pt" height="16pt" viewBox="0 0 16 16" version="1.1" xmlns="http://www.w3.org/2000/svg">
<g id="#4d90feff">
<path fill="#4d90fe" opacity="1.00" d=" M 0.00 4.67 C 0.49 3.04 1.40 1.47 3.13 0.94 C 5.13 -0.09 6.88 1.76 8.31 2.92 C 8.77 2.46 9.69 1.54 10.14 1.08 C 10.16 3.09 10.16 5.11 10.19 7.12 C 12.01 7.17 13.83 7.22 15.65 7.29 C 13.90 5.46 12.20 3.58 10.62 1.61 C 12.39 3.37 14.21 5.08 15.99 6.83 L 16.00 5.43 L 16.00 7.51 C 13.32 9.82 10.27 11.75 8.20 14.70 C 6.29 10.97 1.60 9.81 0.00 5.93 L 0.00 4.67 Z" />
</g>
<g id="#e9f0fbfb">
<path fill="#e9f0fb" opacity="1.00" d=" M 10.14 1.08 L 10.62 1.61 C 12.20 3.58 13.90 5.46 15.65 7.29 C 13.83 7.22 12.01 7.17 10.19 7.12 C 10.16 5.11 10.16 3.09 10.14 1.08 Z" />
</g>
</svg>
