<?xml version="1.0" encoding="UTF-8" ?>
<!DOCTYPE svg PUBLIC "-//W3C//DTD SVG 1.1//EN" "http://www.w3.org/Graphics/SVG/1.1/DTD/svg11.dtd">
<svg width="900pt" height="900pt" viewBox="0 0 900 900" version="1.1" xmlns="http://www.w3.org/2000/svg">
<g id="#e5b821ff">
<path fill="#e5b821" opacity="1.00" d=" M 0.00 0.00 L 900.00 0.00 L 900.00 900.00 L 0.00 900.00 L 0.00 0.00 M 108.54 309.34 C 108.54 401.43 108.54 493.52 108.54 585.62 C 132.34 585.61 156.14 585.53 179.93 585.66 C 180.29 564.12 179.99 542.56 180.09 521.02 C 180.02 450.45 180.22 379.89 179.99 309.33 C 156.17 309.39 132.35 309.37 108.54 309.34 M 204.26 309.34 C 204.26 401.44 204.29 493.53 204.25 585.62 C 225.11 585.56 245.98 585.61 266.84 585.60 C 267.04 536.38 266.73 487.16 267.10 437.94 C 267.30 426.58 266.70 415.20 267.49 403.86 C 268.35 414.63 270.48 425.25 271.79 435.98 C 279.01 485.85 286.08 535.75 293.34 585.62 C 308.18 585.57 323.02 585.59 337.86 585.62 C 346.19 523.71 354.40 461.78 363.03 399.91 C 363.41 405.59 363.11 411.29 363.20 416.99 C 363.18 473.20 363.24 529.41 363.18 585.62 C 383.91 585.57 404.65 585.61 425.39 585.60 C 425.34 493.51 425.36 401.43 425.38 309.34 C 394.37 309.35 363.36 309.41 332.35 309.31 C 328.52 337.23 325.23 365.21 321.51 393.14 C 319.49 408.13 318.02 423.21 315.48 438.11 C 313.04 419.42 310.06 400.80 307.50 382.13 C 303.84 357.88 301.02 333.50 296.74 309.34 C 265.91 309.37 235.09 309.37 204.26 309.34 M 449.89 309.33 C 449.86 401.43 449.83 493.53 449.91 585.63 C 482.40 585.50 514.90 585.73 547.39 585.51 C 560.48 584.97 574.08 584.63 586.28 579.29 C 592.34 576.48 597.95 572.38 602.00 567.03 C 608.47 558.44 609.99 547.45 611.01 537.05 C 611.78 526.41 612.33 515.74 612.23 505.06 C 612.24 472.38 612.23 439.70 612.24 407.03 C 612.12 389.97 612.20 372.80 609.77 355.88 C 607.65 340.20 597.56 325.56 583.02 318.99 C 567.23 311.19 549.24 310.92 532.04 309.78 C 504.66 308.96 477.27 309.55 449.89 309.33 M 636.51 309.34 C 636.53 401.43 636.52 493.52 636.52 585.61 C 657.97 585.59 679.43 585.60 700.88 585.60 C 702.21 579.77 703.74 573.99 705.19 568.19 C 712.38 576.97 721.75 584.58 733.02 587.17 C 746.67 590.43 761.84 590.41 774.42 583.55 C 783.80 578.11 792.27 569.79 795.04 559.02 C 799.21 541.31 798.16 523.00 798.30 504.96 C 798.31 483.30 798.30 461.65 798.31 440.00 C 798.13 430.05 798.42 420.03 796.69 410.19 C 794.39 398.23 785.63 388.12 774.34 383.71 C 759.33 378.03 742.42 378.40 727.22 383.19 C 718.50 386.34 711.30 392.59 705.13 399.34 C 705.02 369.32 705.26 339.30 705.01 309.28 C 682.18 309.45 659.34 309.33 636.51 309.34 Z" />
<path fill="#e5b821" opacity="1.00" d=" M 521.31 356.54 C 526.95 356.93 533.27 356.39 538.14 359.80 C 541.92 362.40 542.92 367.20 543.34 371.48 C 543.98 379.65 543.75 387.86 543.81 396.05 C 543.81 429.37 543.81 462.69 543.81 496.01 C 543.80 506.06 543.84 516.17 542.06 526.10 C 541.41 529.24 540.44 532.72 537.61 534.60 C 532.87 537.90 526.80 538.01 521.24 538.08 C 521.36 477.57 521.23 417.06 521.31 356.54 Z" />
<path fill="#e5b821" opacity="1.00" d=" M 710.48 420.72 C 716.68 418.26 726.87 420.24 727.97 428.01 C 729.85 436.90 729.27 446.04 729.36 455.07 C 729.36 473.72 729.36 492.38 729.36 511.03 C 729.29 521.38 729.84 531.83 727.87 542.06 C 727.45 544.14 726.38 546.27 724.34 547.17 C 719.90 549.44 713.93 550.57 709.68 547.32 C 706.04 543.96 706.05 538.62 705.51 534.06 C 704.80 519.72 705.22 505.37 705.11 491.02 C 705.26 471.99 704.74 452.95 705.52 433.93 C 706.08 429.30 705.86 423.37 710.48 420.72 Z" />
</g>
<g id="#060709ff">
<path fill="#060709" opacity="1.00" d=" M 108.54 309.34 C 132.35 309.37 156.17 309.39 179.99 309.33 C 180.22 379.89 180.02 450.45 180.09 521.02 C 179.99 542.56 180.29 564.12 179.93 585.66 C 156.14 585.53 132.34 585.61 108.54 585.62 C 108.54 493.52 108.54 401.43 108.54 309.34 Z" />
<path fill="#060709" opacity="1.00" d=" M 204.26 309.34 C 235.09 309.37 265.91 309.37 296.74 309.34 C 301.02 333.50 303.84 357.88 307.50 382.13 C 310.06 400.80 313.04 419.42 315.48 438.11 C 318.02 423.21 319.49 408.13 321.51 393.14 C 325.23 365.21 328.52 337.23 332.35 309.31 C 363.36 309.41 394.37 309.35 425.38 309.34 C 425.36 401.43 425.34 493.51 425.39 585.60 C 404.65 585.61 383.91 585.57 363.18 585.62 C 363.24 529.41 363.18 473.20 363.20 416.99 C 363.11 411.29 363.41 405.59 363.03 399.91 C 354.40 461.78 346.19 523.71 337.86 585.62 C 323.02 585.59 308.18 585.57 293.34 585.62 C 286.08 535.75 279.01 485.85 271.79 435.98 C 270.48 425.25 268.35 414.63 267.49 403.86 C 266.70 415.20 267.30 426.58 267.10 437.94 C 266.73 487.16 267.04 536.38 266.84 585.60 C 245.98 585.61 225.11 585.56 204.25 585.62 C 204.29 493.53 204.26 401.44 204.26 309.34 Z" />
<path fill="#060709" opacity="1.00" d=" M 449.89 309.33 C 477.27 309.55 504.66 308.96 532.04 309.78 C 549.24 310.92 567.23 311.19 583.02 318.99 C 597.56 325.56 607.65 340.20 609.77 355.88 C 612.20 372.80 612.12 389.97 612.24 407.03 C 612.23 439.70 612.24 472.38 612.23 505.06 C 612.33 515.74 611.78 526.41 611.01 537.05 C 609.99 547.45 608.47 558.44 602.00 567.03 C 597.95 572.38 592.34 576.48 586.28 579.29 C 574.08 584.63 560.48 584.97 547.39 585.51 C 514.90 585.73 482.40 585.50 449.91 585.63 C 449.83 493.53 449.86 401.43 449.89 309.33 M 521.31 356.54 C 521.23 417.06 521.36 477.57 521.24 538.08 C 526.80 538.01 532.87 537.90 537.61 534.60 C 540.44 532.72 541.41 529.24 542.06 526.10 C 543.84 516.17 543.80 506.06 543.81 496.01 C 543.81 462.69 543.81 429.37 543.81 396.05 C 543.75 387.86 543.98 379.65 543.34 371.48 C 542.92 367.20 541.92 362.40 538.14 359.80 C 533.27 356.39 526.95 356.93 521.31 356.54 Z" />
<path fill="#060709" opacity="1.00" d=" M 636.51 309.34 C 659.34 309.33 682.18 309.45 705.01 309.28 C 705.26 339.30 705.02 369.32 705.13 399.34 C 711.30 392.59 718.50 386.34 727.22 383.19 C 742.42 378.40 759.33 378.03 774.34 383.71 C 785.63 388.12 794.39 398.23 796.69 410.19 C 798.42 420.03 798.13 430.05 798.31 440.00 C 798.30 461.65 798.31 483.30 798.30 504.96 C 798.16 523.00 799.21 541.31 795.04 559.02 C 792.27 569.79 783.80 578.11 774.42 583.55 C 761.84 590.41 746.67 590.43 733.02 587.17 C 721.75 584.58 712.38 576.97 705.19 568.19 C 703.74 573.99 702.21 579.77 700.88 585.60 C 679.43 585.60 657.97 585.59 636.52 585.61 C 636.52 493.52 636.53 401.43 636.51 309.34 M 710.48 420.72 C 705.86 423.37 706.08 429.30 705.52 433.93 C 704.74 452.95 705.26 471.99 705.11 491.02 C 705.22 505.37 704.80 519.72 705.51 534.06 C 706.05 538.62 706.04 543.96 709.68 547.32 C 713.93 550.57 719.90 549.44 724.34 547.17 C 726.38 546.27 727.45 544.14 727.87 542.06 C 729.84 531.83 729.29 521.38 729.36 511.03 C 729.36 492.38 729.36 473.72 729.36 455.07 C 729.27 446.04 729.85 436.90 727.97 428.01 C 726.87 420.24 716.68 418.26 710.48 420.72 Z" />
</g>
</svg>
