<?xml version="1.0" encoding="UTF-8" ?>
<!DOCTYPE svg PUBLIC "-//W3C//DTD SVG 1.1//EN" "http://www.w3.org/Graphics/SVG/1.1/DTD/svg11.dtd">
<svg width="96pt" height="96pt" viewBox="0 0 96 96" version="1.1" xmlns="http://www.w3.org/2000/svg">
<g id="#15151453">
<path fill="#151514" opacity="0.33" d=" M 14.80 0.00 L 81.18 0.00 L 82.21 0.52 C 79.15 0.87 76.07 1.01 73.00 1.01 C 56.33 0.97 39.67 0.97 23.01 1.01 C 19.92 1.01 16.84 0.86 13.77 0.53 L 14.80 0.00 Z" />
<path fill="#151514" opacity="0.33" d=" M 0.00 14.82 L 0.53 13.79 C 0.87 16.85 1.01 19.93 1.01 23.00 C 0.96 39.67 0.97 56.33 1.01 72.99 C 1.01 76.08 0.87 79.16 0.53 82.22 L 0.00 81.20 L 0.00 14.82 Z" />
<path fill="#151514" opacity="0.33" d=" M 95.47 13.77 L 96.00 14.80 L 96.00 81.19 L 95.47 82.21 C 94.65 74.84 95.13 67.41 95.02 60.00 C 95.28 44.60 94.46 29.15 95.47 13.77 Z" />
<path fill="#151514" opacity="0.33" d=" M 13.79 95.48 C 28.49 94.47 43.27 95.28 58.00 95.02 C 66.08 95.16 74.18 94.61 82.23 95.47 L 81.20 96.00 L 14.82 96.00 L 13.79 95.48 Z" />
</g>
<g id="#333332f8">
<path fill="#333332" opacity="0.97" d=" M 5.58 5.57 C 7.89 3.29 10.95 2.04 13.77 0.53 C 16.84 0.86 19.92 1.01 23.01 1.01 C 39.67 0.97 56.33 0.97 73.00 1.01 C 76.07 1.01 79.15 0.87 82.21 0.52 C 85.04 2.04 88.11 3.29 90.42 5.57 C 92.71 7.89 93.96 10.95 95.47 13.77 C 94.46 29.15 95.28 44.60 95.02 60.00 C 95.13 67.41 94.65 74.84 95.47 82.21 C 93.96 85.04 92.71 88.11 90.43 90.42 C 88.11 92.71 85.05 93.96 82.23 95.47 C 74.18 94.61 66.08 95.16 58.00 95.02 C 43.27 95.28 28.49 94.47 13.79 95.48 C 10.96 93.96 7.89 92.71 5.57 90.42 C 3.29 88.11 2.04 85.04 0.53 82.22 C 0.87 79.16 1.01 76.08 1.01 72.99 C 0.97 56.33 0.96 39.67 1.01 23.00 C 1.01 19.93 0.87 16.85 0.53 13.79 C 2.04 10.96 3.29 7.89 5.58 5.57 M 12.43 3.55 C 6.85 5.40 2.65 11.01 2.91 16.98 C 2.89 37.65 2.88 58.34 2.91 79.02 C 2.54 86.58 9.42 93.45 16.98 93.09 C 37.66 93.12 58.34 93.12 79.02 93.09 C 84.98 93.35 90.60 89.15 92.45 83.57 C 93.53 79.13 93.06 74.52 93.12 70.00 C 93.10 53.33 93.05 36.66 93.16 19.99 C 93.14 16.08 92.89 11.85 90.41 8.62 C 87.86 4.94 83.49 2.78 79.02 2.91 C 60.68 2.83 42.34 2.98 24.00 2.86 C 20.14 2.89 16.20 2.59 12.43 3.55 Z" />
</g>
<g id="#222222ff">
<path fill="#222222" opacity="1.00" d=" M 12.43 3.55 C 16.20 2.59 20.14 2.89 24.00 2.86 C 42.34 2.98 60.68 2.83 79.02 2.91 C 83.49 2.78 87.86 4.94 90.41 8.62 C 92.89 11.85 93.14 16.08 93.16 19.99 C 93.05 36.66 93.10 53.33 93.12 70.00 C 93.06 74.52 93.53 79.13 92.45 83.57 C 90.60 89.15 84.98 93.35 79.02 93.09 C 58.34 93.12 37.66 93.12 16.98 93.09 C 9.42 93.45 2.54 86.58 2.91 79.02 C 2.88 58.34 2.89 37.65 2.91 16.98 C 2.65 11.01 6.85 5.40 12.43 3.55 M 39.41 19.68 C 28.71 22.40 20.15 31.99 18.72 42.95 C 17.65 52.66 21.14 62.94 28.52 69.48 C 35.47 75.94 45.72 77.95 54.84 75.95 C 67.58 72.76 77.11 60.14 76.52 46.98 C 77.37 37.09 71.10 28.20 63.25 22.86 C 56.22 18.42 47.36 18.01 39.41 19.68 Z" />
</g>
<g id="#1bb76eff">
<path fill="#1bb76e" opacity="1.00" d=" M 39.41 19.68 C 47.36 18.01 56.22 18.42 63.25 22.86 C 71.10 28.20 77.37 37.09 76.52 46.98 C 77.11 60.14 67.58 72.76 54.84 75.95 C 45.72 77.95 35.47 75.94 28.52 69.48 C 21.14 62.94 17.65 52.66 18.72 42.95 C 20.15 31.99 28.71 22.40 39.41 19.68 Z" />
</g>
</svg>
