<?xml version="1.0" encoding="UTF-8" ?>
<!DOCTYPE svg PUBLIC "-//W3C//DTD SVG 1.1//EN" "http://www.w3.org/Graphics/SVG/1.1/DTD/svg11.dtd">
<svg width="192pt" height="192pt" viewBox="0 0 192 192" version="1.1" xmlns="http://www.w3.org/2000/svg">
<g id="#fefefeff">
<path fill="#fefefe" opacity="1.00" d=" M 0.00 0.00 L 192.00 0.00 L 192.00 139.86 C 187.84 136.98 193.60 130.98 190.41 127.64 C 187.53 128.15 185.58 130.55 183.59 132.46 C 183.62 131.23 183.68 128.76 183.71 127.52 C 181.30 128.10 179.50 129.75 178.37 131.92 C 179.51 131.05 180.65 130.18 181.79 129.31 C 181.53 133.14 181.06 136.96 180.60 140.77 C 181.05 140.75 181.97 140.70 182.42 140.67 C 182.91 136.12 184.07 130.54 189.25 129.25 C 189.03 133.25 188.35 137.21 188.25 141.22 C 189.51 140.86 190.77 140.47 192.00 140.01 L 192.00 192.00 L 0.00 192.00 L 0.00 0.00 M 63.90 11.74 C 56.49 12.73 49.85 16.38 43.08 19.14 C 39.99 22.53 35.34 23.86 32.26 27.28 C 25.43 33.48 19.58 40.70 14.76 48.56 C 12.90 52.23 11.89 56.29 9.86 59.89 C 2.88 77.54 3.57 97.74 10.87 115.17 C 11.91 117.15 11.80 119.45 12.55 121.51 C 14.16 124.61 15.40 127.91 17.26 130.89 C 18.66 133.52 20.75 135.81 21.43 138.78 C 27.48 143.99 32.35 150.54 38.93 155.18 C 45.25 159.93 52.59 163.05 60.07 165.47 C 66.45 168.12 73.08 170.84 80.09 170.81 C 84.44 170.12 88.69 171.79 93.05 171.58 C 103.32 171.16 113.38 168.56 122.95 164.92 C 131.66 160.90 139.60 155.55 147.22 149.78 C 147.30 148.71 147.39 147.65 147.48 146.59 C 148.36 145.69 149.24 144.79 150.10 143.88 C 149.35 143.97 147.84 144.16 147.09 144.25 C 143.22 147.97 139.88 152.33 135.32 155.28 C 127.94 160.86 119.29 164.41 110.43 166.87 C 110.42 166.44 110.39 165.58 110.38 165.16 L 113.10 164.96 C 112.30 164.51 111.50 164.07 110.69 163.65 C 101.92 167.01 92.40 167.09 83.14 167.31 C 83.26 167.72 83.51 168.53 83.63 168.94 L 82.35 167.10 C 81.59 167.87 79.90 169.71 80.19 167.34 C 75.81 166.96 71.29 166.75 67.29 164.75 C 58.71 160.80 50.25 156.17 43.46 149.49 C 34.50 140.23 25.87 129.62 22.95 116.80 C 20.99 112.86 20.20 108.45 19.97 104.09 C 19.43 104.80 18.88 105.51 18.33 106.22 C 19.36 112.21 20.47 118.30 23.09 123.82 C 24.98 127.44 26.83 131.10 28.95 134.59 C 28.46 135.04 27.96 135.49 27.46 135.94 C 31.11 140.48 34.73 145.07 38.74 149.31 C 43.74 154.17 49.57 158.05 55.22 162.08 C 42.14 157.72 31.66 148.12 23.01 137.68 C 19.59 132.66 16.64 127.32 14.08 121.82 C 13.02 118.00 12.14 114.11 10.43 110.50 C 5.22 94.89 4.59 77.40 10.61 61.92 C 12.21 57.06 13.96 52.16 17.12 48.06 C 25.75 32.25 40.73 19.99 57.90 14.57 C 69.10 11.77 80.22 8.00 91.89 7.93 C 123.48 7.74 154.91 29.19 163.95 59.86 L 163.30 59.63 C 162.77 59.42 162.22 59.36 161.66 59.47 C 164.07 62.95 165.93 66.91 166.59 71.12 C 166.86 80.06 168.24 89.16 165.93 97.97 C 165.47 104.14 163.52 110.17 160.63 115.63 C 161.53 115.61 162.42 115.47 163.32 115.40 C 162.93 116.03 162.16 117.29 161.77 117.92 C 161.39 119.71 160.85 121.46 160.33 123.21 C 160.41 124.90 160.39 126.59 160.29 128.28 C 158.34 128.63 157.41 130.48 156.61 132.06 C 157.42 131.36 159.04 129.96 159.85 129.26 C 159.56 133.09 158.69 136.86 158.56 140.69 C 161.22 142.01 162.77 138.57 164.10 136.87 C 162.90 137.72 161.76 138.64 160.60 139.54 C 160.89 135.09 162.50 130.62 161.32 126.20 C 162.44 124.69 163.75 123.33 164.85 121.81 L 162.56 122.54 C 163.91 118.09 164.67 113.49 165.91 109.01 C 166.52 106.84 165.88 104.12 168.22 102.81 C 167.94 102.31 167.38 101.29 167.10 100.79 C 168.51 94.07 168.72 87.22 168.50 80.39 C 169.82 81.27 170.60 82.47 170.84 84.00 C 172.14 97.88 170.67 112.03 165.47 125.03 C 171.36 120.01 169.92 111.22 172.30 104.50 C 172.78 98.00 172.55 91.44 172.19 84.93 C 172.09 82.31 170.32 79.97 170.98 77.29 C 170.19 78.15 169.40 79.01 168.59 79.86 C 168.21 78.19 168.02 76.49 168.02 74.78 L 169.15 77.82 C 169.53 77.14 169.91 76.45 170.28 75.77 C 166.72 68.51 166.61 60.12 162.95 52.90 C 160.94 49.27 160.37 44.89 157.11 42.06 C 152.00 33.14 144.00 26.31 135.82 20.28 C 130.96 15.94 124.50 14.41 118.78 11.61 C 110.31 8.18 101.19 6.85 92.15 6.20 C 82.65 7.44 72.93 8.41 63.90 11.74 M 73.86 15.35 C 68.68 15.10 64.21 17.99 59.30 19.05 C 59.84 19.58 60.37 20.12 60.90 20.66 C 54.78 23.06 49.52 27.20 44.77 31.67 C 40.17 37.51 33.68 41.77 30.27 48.52 C 24.65 55.31 20.93 63.45 18.39 71.84 C 18.91 72.51 19.43 73.17 19.95 73.84 C 20.43 69.37 22.57 65.37 24.37 61.34 C 25.06 59.04 26.39 57.02 27.84 55.12 C 26.96 57.69 25.81 60.15 24.52 62.54 C 21.98 67.31 20.54 72.55 19.41 77.81 C 19.92 78.51 20.43 79.22 20.94 79.92 C 21.55 73.77 24.05 68.05 26.46 62.43 C 30.76 53.55 35.83 44.70 43.76 38.53 C 48.23 33.22 54.54 30.06 60.34 26.45 C 68.24 21.81 77.35 20.51 86.17 18.64 C 86.52 18.81 87.22 19.14 87.58 19.30 C 90.31 17.14 93.91 18.27 97.09 18.15 C 105.42 17.66 113.65 19.83 121.50 22.39 C 126.00 24.59 130.83 26.29 134.68 29.59 C 134.61 29.87 134.47 30.43 134.39 30.71 C 134.60 30.37 135.02 29.68 135.22 29.34 C 138.84 32.20 142.40 35.15 145.93 38.13 C 151.72 44.13 156.97 50.80 160.81 58.22 C 161.07 57.99 161.59 57.55 161.85 57.33 C 152.61 40.44 137.47 26.10 118.88 20.22 C 110.84 15.48 101.16 14.21 91.94 14.07 C 85.91 14.49 79.74 13.60 73.86 15.35 M 58.56 18.88 C 56.43 20.80 53.53 21.49 51.26 23.22 C 48.40 25.30 45.49 27.30 42.48 29.14 C 35.76 34.72 29.88 41.32 25.31 48.77 C 22.25 52.80 19.57 57.15 18.30 62.09 C 14.23 72.31 12.44 83.49 13.36 94.46 C 14.98 91.00 13.91 87.10 14.70 83.48 C 15.62 79.32 15.13 74.88 16.83 70.90 C 18.53 67.10 19.32 62.98 20.88 59.13 C 22.44 54.89 25.53 51.48 27.68 47.55 C 31.41 41.21 36.91 36.22 42.03 31.05 C 47.29 28.50 51.43 24.14 56.89 21.94 C 58.33 21.57 59.31 20.30 58.56 18.88 M 84.14 34.39 C 84.91 35.88 85.68 37.38 86.67 38.74 C 88.75 38.64 90.82 38.37 92.90 38.18 C 92.85 39.60 92.77 41.02 92.69 42.44 C 87.06 44.21 81.25 45.31 75.40 46.05 C 75.89 42.30 73.44 39.27 71.65 36.25 C 71.30 36.26 70.60 36.27 70.25 36.28 C 69.26 39.71 69.28 43.45 67.96 46.86 C 64.57 47.23 61.71 45.22 58.48 44.71 C 59.39 47.44 61.01 49.89 62.90 52.04 C 65.08 52.08 67.24 51.72 69.40 51.47 C 69.13 56.52 70.99 61.30 73.84 65.38 C 67.22 69.02 59.72 70.72 53.29 74.76 C 52.81 76.63 51.84 78.59 52.52 80.53 C 54.01 82.43 56.82 81.27 58.62 80.46 C 64.22 77.25 69.93 74.11 75.98 71.81 C 73.01 78.68 69.25 85.16 65.85 91.81 C 61.37 100.85 54.10 108.00 48.12 116.00 C 49.12 118.12 50.31 120.15 51.85 121.93 C 54.40 117.49 58.06 113.75 60.12 109.02 C 63.58 101.38 67.78 94.11 72.10 86.94 C 72.80 92.27 72.86 97.65 73.21 103.00 C 73.53 107.90 76.38 112.09 79.03 116.03 C 81.58 117.95 84.99 117.97 88.05 117.83 C 94.43 117.13 100.72 115.83 107.11 115.18 C 108.60 114.89 110.65 113.90 110.34 112.03 C 110.80 108.22 107.38 105.06 103.86 104.43 C 104.29 105.86 104.71 107.29 105.07 108.74 C 97.01 111.39 88.51 112.37 80.05 111.76 C 77.56 105.13 78.15 97.87 77.29 90.93 C 80.09 88.61 83.78 87.45 87.33 86.81 C 86.40 89.45 84.82 91.78 83.15 94.01 C 81.80 93.60 80.44 93.22 79.08 92.85 C 80.84 96.24 82.51 100.10 86.31 101.65 C 88.07 100.29 87.71 98.10 87.76 96.15 C 90.67 93.43 92.14 89.64 94.76 86.69 C 96.23 85.17 96.39 83.02 96.60 81.03 C 99.42 83.08 102.44 84.81 105.31 86.80 C 112.26 91.69 121.08 92.05 128.99 94.48 C 134.43 96.16 140.11 96.77 145.62 98.19 C 146.82 98.46 148.16 98.86 149.27 98.06 C 149.97 96.65 149.93 94.60 148.41 93.74 C 145.28 90.93 140.76 91.36 136.89 90.71 C 129.11 89.62 121.23 88.60 113.86 85.76 C 108.13 84.16 103.42 80.39 98.45 77.30 C 94.59 75.04 92.78 69.49 87.48 70.04 C 88.76 73.07 91.02 75.49 92.98 78.08 C 85.84 78.28 79.39 81.78 73.13 84.86 C 78.41 78.67 82.67 71.22 90.12 67.33 C 95.42 64.80 101.27 63.80 106.90 62.28 C 109.68 60.11 106.13 55.61 103.09 56.51 C 97.07 58.69 91.16 61.28 84.90 62.79 C 85.86 61.08 86.85 59.39 87.90 57.74 C 89.24 55.54 91.78 54.43 93.12 52.23 C 94.66 49.77 96.00 47.18 97.37 44.62 C 98.65 45.04 99.88 45.59 100.97 46.40 C 103.58 45.41 109.63 46.33 108.82 42.06 C 106.62 38.22 101.57 39.21 98.05 40.19 C 98.06 37.62 99.18 33.52 95.95 32.42 C 91.96 31.74 87.88 33.05 84.14 34.39 M 17.89 74.48 C 17.75 74.99 17.48 76.02 17.34 76.53 C 18.00 77.41 18.63 77.23 19.24 75.98 C 19.33 74.55 18.88 74.05 17.89 74.48 M 16.70 78.97 C 16.77 80.64 17.30 81.00 18.27 80.04 L 18.34 78.89 L 17.83 78.34 C 17.55 78.50 16.98 78.81 16.70 78.97 M 19.21 78.85 C 18.51 80.82 17.62 82.83 17.80 84.98 C 17.65 91.64 17.79 98.30 18.00 104.97 C 18.57 104.20 19.15 103.44 19.73 102.67 C 19.34 96.09 19.21 89.45 20.16 82.90 C 20.76 81.42 19.70 80.15 19.21 78.85 M 16.03 80.71 C 15.34 85.43 15.80 90.48 13.53 94.84 C 13.50 101.10 15.34 107.14 16.92 113.13 C 18.18 117.10 19.80 120.94 21.19 124.86 C 21.54 124.18 21.89 123.50 22.22 122.82 C 20.36 120.29 19.39 117.23 19.04 114.14 C 16.65 110.21 16.78 105.45 16.36 101.02 C 15.87 96.68 16.82 92.38 16.82 88.05 C 16.77 85.60 17.55 82.90 16.03 80.71 M 159.92 117.26 C 159.37 118.50 158.83 119.74 158.28 120.98 C 158.99 121.40 159.64 121.22 160.21 120.46 C 160.41 119.68 160.80 118.11 160.99 117.33 C 160.72 117.31 160.18 117.28 159.92 117.26 M 108.99 126.18 C 110.94 125.10 112.72 123.62 113.13 121.30 C 111.27 122.49 109.56 123.95 108.99 126.18 M 157.53 121.99 C 155.18 125.01 160.60 125.20 159.68 121.99 C 159.14 121.99 158.07 121.99 157.53 121.99 M 21.34 125.50 C 23.01 128.43 24.82 131.28 26.13 134.39 C 26.57 133.95 27.00 133.52 27.44 133.08 C 25.75 130.84 24.32 128.40 23.10 125.87 C 22.64 125.33 22.06 125.21 21.34 125.50 M 109.16 127.48 C 107.46 128.71 105.92 130.15 104.75 131.90 C 105.97 131.07 107.15 130.18 108.35 129.32 C 108.08 133.18 107.14 136.98 107.15 140.86 C 109.77 141.63 111.14 138.82 112.43 137.09 C 111.59 137.69 109.91 138.90 109.08 139.50 C 109.49 135.82 110.18 132.18 110.50 128.49 C 110.17 128.24 109.50 127.73 109.16 127.48 M 112.64 131.89 C 113.86 131.09 115.03 130.22 116.22 129.38 C 115.91 133.26 115.46 137.13 115.05 141.01 C 115.55 140.81 116.55 140.40 117.05 140.20 C 117.26 137.71 117.86 135.29 118.66 132.93 C 118.34 131.14 118.15 129.33 117.92 127.52 C 115.56 128.12 113.84 129.84 112.64 131.89 M 118.71 131.85 C 120.11 131.02 121.52 130.21 122.94 129.43 C 122.85 133.23 122.38 137.01 121.76 140.77 C 122.21 140.70 123.11 140.57 123.56 140.50 C 124.42 136.39 125.13 130.99 129.76 129.42 C 129.76 133.40 128.80 137.30 128.81 141.28 C 131.39 140.97 133.23 139.12 134.39 136.92 C 133.15 137.77 131.98 138.70 130.78 139.61 C 131.17 135.62 132.05 131.67 131.87 127.65 C 130.38 128.05 128.91 128.50 127.45 128.98 L 127.87 129.59 C 127.20 129.93 125.86 130.61 125.19 130.95 C 126.14 125.17 119.49 129.01 118.71 131.85 M 134.63 132.07 C 135.43 131.36 137.04 129.94 137.84 129.23 C 137.64 133.08 137.26 136.94 136.64 140.75 C 137.12 140.72 138.06 140.66 138.54 140.63 C 138.97 136.29 140.12 131.32 144.39 129.17 C 144.77 133.08 143.97 136.95 143.50 140.81 C 144.00 140.74 144.99 140.60 145.49 140.53 C 145.94 136.30 146.87 131.02 151.40 129.29 C 151.55 133.10 150.44 136.81 150.52 140.61 C 152.98 142.15 154.89 138.69 156.05 136.92 C 154.84 137.79 153.69 138.74 152.51 139.65 C 152.63 135.87 153.76 132.16 153.57 128.38 C 150.72 126.37 148.52 130.77 146.73 132.43 C 146.70 131.41 146.65 129.38 146.63 128.36 C 143.70 126.46 141.65 130.54 139.87 132.25 C 139.84 131.10 139.79 128.78 139.77 127.62 C 137.35 128.05 135.30 129.66 134.63 132.07 M 165.07 135.88 C 164.83 137.66 164.29 141.15 166.98 141.11 C 169.65 140.50 171.20 138.04 172.90 136.12 C 172.82 137.88 172.77 139.64 172.76 141.41 C 175.28 140.94 176.92 138.98 178.30 137.00 C 177.08 137.79 175.89 138.62 174.69 139.44 C 175.06 135.63 175.68 131.84 176.31 128.07 C 171.09 127.05 166.00 130.72 165.07 135.88 M 138.88 147.78 C 135.27 151.34 130.95 154.02 126.74 156.82 C 123.78 158.74 120.63 160.54 117.10 161.13 C 117.85 161.59 118.61 162.05 119.37 162.52 C 128.57 157.74 138.00 152.22 144.23 143.72 C 141.82 144.07 140.61 146.35 138.88 147.78 M 147.69 146.98 C 148.06 147.46 148.44 147.94 148.81 148.43 C 150.06 146.83 151.47 145.37 152.73 143.78 C 150.83 144.47 149.31 145.82 147.69 146.98 M 111.97 163.17 C 113.93 164.72 116.14 163.60 118.18 162.80 C 116.18 161.46 113.97 162.33 111.97 163.17 Z" />
<path fill="#fefefe" opacity="1.00" d=" M 81.13 15.53 C 88.49 15.83 96.00 14.40 103.22 16.53 C 95.80 17.12 88.18 15.59 80.95 17.90 C 74.49 18.72 68.26 20.77 62.30 23.36 C 57.88 25.79 53.89 28.93 49.57 31.52 C 45.99 33.78 43.27 37.10 39.83 39.53 C 45.65 31.95 53.79 26.60 62.03 21.97 C 68.34 19.71 74.21 15.57 81.13 15.53 Z" />
<path fill="#fefefe" opacity="1.00" d=" M 74.61 50.79 C 79.68 50.07 84.68 48.97 89.71 48.05 C 86.19 54.05 81.90 59.90 76.08 63.86 C 74.45 59.69 74.29 55.20 74.61 50.79 Z" />
<path fill="#fefefe" opacity="1.00" d=" M 167.53 139.51 C 166.33 135.28 168.14 127.69 174.00 129.65 C 173.89 133.83 171.53 137.96 167.53 139.51 Z" />
<path fill="#fefefe" opacity="1.00" d=" M 86.57 169.32 C 93.76 167.75 101.28 168.05 108.45 166.21 C 107.72 168.16 105.49 168.17 103.77 168.58 C 98.10 169.51 92.30 169.98 86.57 169.32 Z" />
</g>
<g id="#030303ff">
<path fill="#030303" opacity="1.00" d=" M 63.90 11.74 C 72.93 8.41 82.65 7.44 92.15 6.20 C 101.19 6.85 110.31 8.18 118.78 11.61 C 124.50 14.41 130.96 15.94 135.82 20.28 C 144.00 26.31 152.00 33.14 157.11 42.06 C 160.37 44.89 160.94 49.27 162.95 52.90 C 166.61 60.12 166.72 68.51 170.28 75.77 C 169.91 76.45 169.53 77.14 169.15 77.82 L 168.02 74.78 C 168.02 76.49 168.21 78.19 168.59 79.86 C 169.40 79.01 170.19 78.15 170.98 77.29 C 170.32 79.97 172.09 82.31 172.19 84.93 C 172.55 91.44 172.78 98.00 172.30 104.50 C 169.92 111.22 171.36 120.01 165.47 125.03 C 170.67 112.03 172.14 97.88 170.84 84.00 C 170.60 82.47 169.82 81.27 168.50 80.39 C 168.72 87.22 168.51 94.07 167.10 100.79 C 167.38 101.29 167.94 102.31 168.22 102.81 C 165.88 104.12 166.52 106.84 165.91 109.01 C 164.67 113.49 163.91 118.09 162.56 122.54 L 164.85 121.81 C 163.75 123.33 162.44 124.69 161.32 126.20 C 162.50 130.62 160.89 135.09 160.60 139.54 C 161.76 138.64 162.90 137.72 164.10 136.87 C 162.77 138.57 161.22 142.01 158.56 140.69 C 158.69 136.86 159.56 133.09 159.85 129.26 C 159.04 129.96 157.42 131.36 156.61 132.06 C 157.41 130.48 158.34 128.63 160.29 128.28 C 160.39 126.59 160.41 124.90 160.33 123.21 C 160.85 121.46 161.39 119.71 161.77 117.92 C 162.16 117.29 162.93 116.03 163.32 115.40 C 162.42 115.47 161.53 115.61 160.63 115.63 C 163.52 110.17 165.47 104.14 165.93 97.97 C 168.24 89.16 166.86 80.06 166.59 71.12 C 165.93 66.91 164.07 62.95 161.66 59.47 C 162.22 59.36 162.77 59.42 163.30 59.63 L 163.95 59.86 C 154.91 29.19 123.48 7.74 91.89 7.93 C 80.22 8.00 69.10 11.77 57.90 14.57 C 40.73 19.99 25.75 32.25 17.12 48.06 C 13.96 52.16 12.21 57.06 10.61 61.92 C 4.59 77.40 5.22 94.89 10.43 110.50 C 12.14 114.11 13.02 118.00 14.08 121.82 C 16.64 127.32 19.59 132.66 23.01 137.68 C 31.66 148.12 42.14 157.72 55.22 162.08 C 49.57 158.05 43.74 154.17 38.74 149.31 C 34.73 145.07 31.11 140.48 27.46 135.94 C 27.96 135.49 28.46 135.04 28.95 134.59 C 26.83 131.10 24.98 127.44 23.09 123.82 C 20.47 118.30 19.36 112.21 18.33 106.22 C 18.88 105.51 19.43 104.80 19.97 104.09 C 20.20 108.45 20.99 112.86 22.95 116.80 C 25.87 129.62 34.50 140.23 43.46 149.49 C 50.25 156.17 58.71 160.80 67.29 164.75 C 71.29 166.75 75.81 166.96 80.19 167.34 C 79.90 169.71 81.59 167.87 82.35 167.10 L 83.63 168.94 C 83.51 168.53 83.26 167.72 83.14 167.31 C 92.40 167.09 101.92 167.01 110.69 163.65 C 111.50 164.07 112.30 164.51 113.10 164.96 L 110.38 165.16 C 110.39 165.58 110.42 166.44 110.43 166.87 C 119.29 164.41 127.94 160.86 135.32 155.28 C 139.88 152.33 143.22 147.97 147.09 144.25 C 147.84 144.16 149.35 143.97 150.10 143.88 C 149.24 144.79 148.36 145.69 147.48 146.59 C 147.39 147.65 147.30 148.71 147.22 149.78 C 139.60 155.55 131.66 160.90 122.95 164.92 C 113.38 168.56 103.32 171.16 93.05 171.58 C 88.69 171.79 84.44 170.12 80.09 170.81 C 73.08 170.84 66.45 168.12 60.07 165.47 C 52.59 163.05 45.25 159.93 38.93 155.18 C 32.35 150.54 27.48 143.99 21.43 138.78 C 20.75 135.81 18.66 133.52 17.26 130.89 C 15.40 127.91 14.16 124.61 12.55 121.51 C 11.80 119.45 11.91 117.15 10.87 115.17 C 3.57 97.74 2.88 77.54 9.86 59.89 C 11.89 56.29 12.90 52.23 14.76 48.56 C 19.58 40.70 25.43 33.48 32.26 27.28 C 35.34 23.86 39.99 22.53 43.08 19.14 C 49.85 16.38 56.49 12.73 63.90 11.74 M 86.57 169.32 C 92.30 169.98 98.10 169.51 103.77 168.58 C 105.49 168.17 107.72 168.16 108.45 166.21 C 101.28 168.05 93.76 167.75 86.57 169.32 Z" />
<path fill="#030303" opacity="1.00" d=" M 73.86 15.35 C 79.74 13.60 85.91 14.49 91.94 14.07 C 101.16 14.21 110.84 15.48 118.88 20.22 C 137.47 26.10 152.61 40.44 161.85 57.33 C 161.59 57.55 161.07 57.99 160.81 58.22 C 156.97 50.80 151.72 44.13 145.93 38.13 C 142.40 35.15 138.84 32.20 135.22 29.34 C 135.02 29.68 134.60 30.37 134.39 30.71 C 134.47 30.43 134.61 29.87 134.68 29.59 C 130.83 26.29 126.00 24.59 121.50 22.39 C 113.65 19.83 105.42 17.66 97.09 18.15 C 93.91 18.27 90.31 17.14 87.58 19.30 C 87.22 19.14 86.52 18.81 86.17 18.64 C 77.35 20.51 68.24 21.81 60.34 26.45 C 54.54 30.06 48.23 33.22 43.76 38.53 C 35.83 44.70 30.76 53.55 26.46 62.43 C 24.05 68.05 21.55 73.77 20.94 79.92 C 20.43 79.22 19.92 78.51 19.41 77.81 C 20.54 72.55 21.98 67.31 24.52 62.54 C 25.81 60.15 26.96 57.69 27.84 55.12 C 26.39 57.02 25.06 59.04 24.37 61.34 C 22.57 65.37 20.43 69.37 19.95 73.84 C 19.43 73.17 18.91 72.51 18.39 71.84 C 20.93 63.45 24.65 55.31 30.27 48.52 C 33.68 41.77 40.17 37.51 44.77 31.67 C 49.52 27.20 54.78 23.06 60.90 20.66 C 60.37 20.12 59.84 19.58 59.30 19.05 C 64.21 17.99 68.68 15.10 73.86 15.35 M 81.13 15.53 C 74.21 15.57 68.34 19.71 62.03 21.97 C 53.79 26.60 45.65 31.95 39.83 39.53 C 43.27 37.10 45.99 33.78 49.57 31.52 C 53.89 28.93 57.88 25.79 62.30 23.36 C 68.26 20.77 74.49 18.72 80.95 17.90 C 88.18 15.59 95.80 17.12 103.22 16.53 C 96.00 14.40 88.49 15.83 81.13 15.53 Z" />
<path fill="#030303" opacity="1.00" d=" M 58.56 18.88 C 59.31 20.30 58.33 21.57 56.89 21.94 C 51.43 24.14 47.29 28.50 42.03 31.05 C 36.91 36.22 31.41 41.21 27.68 47.55 C 25.53 51.48 22.44 54.89 20.88 59.13 C 19.32 62.98 18.53 67.10 16.83 70.90 C 15.13 74.88 15.62 79.32 14.70 83.48 C 13.91 87.10 14.98 91.00 13.36 94.46 C 12.44 83.49 14.23 72.31 18.30 62.09 C 19.57 57.15 22.25 52.80 25.31 48.77 C 29.88 41.32 35.76 34.72 42.48 29.14 C 45.49 27.30 48.40 25.30 51.26 23.22 C 53.53 21.49 56.43 20.80 58.56 18.88 Z" />
<path fill="#030303" opacity="1.00" d=" M 84.14 34.39 C 87.88 33.05 91.96 31.74 95.95 32.42 C 99.18 33.52 98.06 37.62 98.05 40.19 C 101.57 39.21 106.62 38.22 108.82 42.06 C 109.63 46.33 103.58 45.41 100.97 46.40 C 99.88 45.59 98.65 45.04 97.37 44.62 C 96.00 47.18 94.66 49.77 93.12 52.23 C 91.78 54.43 89.24 55.54 87.90 57.74 C 86.85 59.39 85.86 61.08 84.90 62.79 C 91.16 61.28 97.07 58.69 103.09 56.51 C 106.13 55.61 109.68 60.11 106.90 62.28 C 101.27 63.80 95.42 64.80 90.12 67.33 C 82.67 71.22 78.41 78.67 73.13 84.86 C 79.39 81.78 85.84 78.28 92.98 78.08 C 91.02 75.49 88.76 73.07 87.48 70.04 C 92.78 69.49 94.59 75.04 98.45 77.30 C 103.42 80.39 108.13 84.16 113.86 85.76 C 121.23 88.60 129.11 89.62 136.89 90.71 C 140.76 91.36 145.28 90.93 148.41 93.74 C 149.93 94.60 149.97 96.65 149.27 98.06 C 148.16 98.86 146.82 98.46 145.62 98.19 C 140.11 96.77 134.43 96.16 128.99 94.48 C 121.08 92.05 112.26 91.69 105.31 86.80 C 102.44 84.81 99.42 83.08 96.60 81.03 C 96.39 83.02 96.23 85.17 94.76 86.69 C 92.14 89.64 90.67 93.43 87.76 96.15 C 87.71 98.10 88.07 100.29 86.31 101.65 C 82.51 100.10 80.84 96.24 79.08 92.85 C 80.44 93.22 81.80 93.60 83.15 94.01 C 84.82 91.78 86.40 89.45 87.33 86.81 C 83.78 87.45 80.09 88.61 77.29 90.93 C 78.15 97.87 77.56 105.13 80.05 111.76 C 88.51 112.37 97.01 111.39 105.07 108.74 C 104.71 107.29 104.29 105.86 103.86 104.43 C 107.38 105.06 110.80 108.22 110.34 112.03 C 110.65 113.90 108.60 114.89 107.11 115.18 C 100.72 115.83 94.43 117.13 88.05 117.83 C 84.99 117.97 81.58 117.95 79.03 116.03 C 76.38 112.09 73.53 107.90 73.21 103.00 C 72.86 97.65 72.80 92.27 72.10 86.94 C 67.78 94.11 63.58 101.38 60.12 109.02 C 58.06 113.75 54.40 117.49 51.85 121.93 C 50.31 120.15 49.12 118.12 48.12 116.00 C 54.10 108.00 61.37 100.85 65.85 91.81 C 69.25 85.16 73.01 78.68 75.98 71.81 C 69.93 74.11 64.22 77.25 58.62 80.46 C 56.82 81.27 54.01 82.43 52.52 80.53 C 51.84 78.59 52.81 76.63 53.29 74.76 C 59.72 70.72 67.22 69.02 73.84 65.38 C 70.99 61.30 69.13 56.52 69.40 51.47 C 67.24 51.72 65.08 52.08 62.90 52.04 C 61.01 49.89 59.39 47.44 58.48 44.71 C 61.71 45.22 64.57 47.23 67.96 46.86 C 69.28 43.45 69.26 39.71 70.25 36.28 C 70.60 36.27 71.30 36.26 71.65 36.25 C 73.44 39.27 75.89 42.30 75.40 46.05 C 81.25 45.31 87.06 44.21 92.69 42.44 C 92.77 41.02 92.85 39.60 92.90 38.18 C 90.82 38.37 88.75 38.64 86.67 38.74 C 85.68 37.38 84.91 35.88 84.14 34.39 M 74.61 50.79 C 74.29 55.20 74.45 59.69 76.08 63.86 C 81.90 59.90 86.19 54.05 89.71 48.05 C 84.68 48.97 79.68 50.07 74.61 50.79 Z" />
<path fill="#030303" opacity="1.00" d=" M 17.89 74.48 C 18.88 74.05 19.33 74.55 19.24 75.98 C 18.63 77.23 18.00 77.41 17.34 76.53 C 17.48 76.02 17.75 74.99 17.89 74.48 Z" />
<path fill="#030303" opacity="1.00" d=" M 16.70 78.97 C 16.98 78.81 17.55 78.50 17.83 78.34 L 18.34 78.89 L 18.27 80.04 C 17.30 81.00 16.77 80.64 16.70 78.97 Z" />
<path fill="#030303" opacity="1.00" d=" M 19.21 78.85 C 19.70 80.15 20.76 81.42 20.16 82.90 C 19.21 89.45 19.34 96.09 19.73 102.67 C 19.15 103.44 18.57 104.20 18.00 104.97 C 17.79 98.30 17.65 91.64 17.80 84.98 C 17.62 82.83 18.51 80.82 19.21 78.85 Z" />
<path fill="#030303" opacity="1.00" d=" M 16.03 80.71 C 17.55 82.90 16.77 85.60 16.82 88.05 C 16.82 92.38 15.87 96.68 16.36 101.02 C 16.78 105.45 16.65 110.21 19.04 114.14 C 19.39 117.23 20.36 120.29 22.22 122.82 C 21.89 123.50 21.54 124.18 21.19 124.86 C 19.80 120.94 18.18 117.10 16.92 113.13 C 15.34 107.14 13.50 101.10 13.53 94.84 C 15.80 90.48 15.34 85.43 16.03 80.71 Z" />
<path fill="#030303" opacity="1.00" d=" M 159.92 117.26 C 160.18 117.28 160.72 117.31 160.99 117.33 C 160.80 118.11 160.41 119.68 160.21 120.46 C 159.64 121.22 158.99 121.40 158.28 120.98 C 158.83 119.74 159.37 118.50 159.92 117.26 Z" />
<path fill="#030303" opacity="1.00" d=" M 108.99 126.18 C 109.56 123.95 111.27 122.49 113.13 121.30 C 112.72 123.62 110.94 125.10 108.99 126.18 Z" />
<path fill="#030303" opacity="1.00" d=" M 157.53 121.99 C 158.07 121.99 159.14 121.99 159.68 121.99 C 160.60 125.20 155.18 125.01 157.53 121.99 Z" />
<path fill="#030303" opacity="1.00" d=" M 21.34 125.50 C 22.06 125.21 22.64 125.33 23.10 125.87 C 24.32 128.40 25.75 130.84 27.44 133.08 C 27.00 133.52 26.57 133.95 26.13 134.39 C 24.82 131.28 23.01 128.43 21.34 125.50 Z" />
<path fill="#030303" opacity="1.00" d=" M 109.16 127.48 C 109.50 127.73 110.17 128.24 110.50 128.49 C 110.18 132.18 109.49 135.82 109.08 139.50 C 109.91 138.90 111.59 137.69 112.43 137.09 C 111.14 138.82 109.77 141.63 107.15 140.86 C 107.14 136.98 108.08 133.18 108.35 129.32 C 107.15 130.18 105.97 131.07 104.75 131.90 C 105.92 130.15 107.46 128.71 109.16 127.48 Z" />
<path fill="#030303" opacity="1.00" d=" M 183.59 132.46 C 185.58 130.55 187.53 128.15 190.41 127.64 C 193.60 130.98 187.84 136.98 192.00 139.86 L 192.00 140.01 C 190.77 140.47 189.51 140.86 188.25 141.22 C 188.35 137.21 189.03 133.25 189.25 129.25 C 184.07 130.54 182.91 136.12 182.42 140.67 C 181.97 140.70 181.05 140.75 180.60 140.77 C 181.06 136.96 181.53 133.14 181.79 129.31 C 180.65 130.18 179.51 131.05 178.37 131.92 C 179.50 129.75 181.30 128.10 183.71 127.52 C 183.68 128.76 183.62 131.23 183.59 132.46 Z" />
<path fill="#030303" opacity="1.00" d=" M 112.64 131.89 C 113.84 129.84 115.56 128.12 117.92 127.52 C 118.15 129.33 118.34 131.14 118.66 132.93 C 117.86 135.29 117.26 137.71 117.05 140.20 C 116.55 140.40 115.55 140.81 115.05 141.01 C 115.46 137.13 115.91 133.26 116.22 129.38 C 115.03 130.22 113.86 131.09 112.64 131.89 Z" />
<path fill="#030303" opacity="1.00" d=" M 118.71 131.85 C 119.49 129.01 126.14 125.17 125.19 130.95 C 125.86 130.61 127.20 129.93 127.87 129.59 L 127.45 128.98 C 128.91 128.50 130.38 128.05 131.87 127.65 C 132.05 131.67 131.17 135.62 130.78 139.61 C 131.98 138.70 133.15 137.77 134.39 136.92 C 133.23 139.12 131.39 140.97 128.81 141.28 C 128.80 137.30 129.76 133.40 129.76 129.42 C 125.13 130.99 124.42 136.39 123.56 140.50 C 123.11 140.57 122.21 140.70 121.76 140.77 C 122.38 137.01 122.85 133.23 122.94 129.43 C 121.52 130.21 120.11 131.02 118.71 131.85 Z" />
<path fill="#030303" opacity="1.00" d=" M 134.63 132.07 C 135.30 129.66 137.35 128.05 139.77 127.62 C 139.79 128.78 139.84 131.10 139.87 132.25 C 141.65 130.54 143.70 126.46 146.63 128.36 C 146.65 129.38 146.70 131.41 146.73 132.43 C 148.52 130.77 150.72 126.37 153.57 128.38 C 153.76 132.16 152.63 135.87 152.51 139.65 C 153.69 138.74 154.84 137.79 156.05 136.92 C 154.89 138.69 152.98 142.15 150.52 140.61 C 150.44 136.81 151.55 133.10 151.40 129.29 C 146.87 131.02 145.94 136.30 145.49 140.53 C 144.99 140.60 144.00 140.74 143.50 140.81 C 143.97 136.95 144.77 133.08 144.39 129.17 C 140.12 131.32 138.97 136.29 138.54 140.63 C 138.06 140.66 137.12 140.72 136.64 140.75 C 137.26 136.94 137.64 133.08 137.84 129.23 C 137.04 129.94 135.43 131.36 134.63 132.07 Z" />
<path fill="#030303" opacity="1.00" d=" M 165.07 135.88 C 166.00 130.72 171.09 127.05 176.31 128.07 C 175.68 131.84 175.06 135.63 174.69 139.44 C 175.89 138.62 177.08 137.79 178.30 137.00 C 176.92 138.98 175.28 140.94 172.76 141.41 C 172.77 139.64 172.82 137.88 172.90 136.12 C 171.20 138.04 169.65 140.50 166.98 141.11 C 164.29 141.15 164.83 137.66 165.07 135.88 M 167.53 139.51 C 171.53 137.96 173.89 133.83 174.00 129.65 C 168.14 127.69 166.33 135.28 167.53 139.51 Z" />
<path fill="#030303" opacity="1.00" d=" M 138.88 147.78 C 140.61 146.35 141.82 144.07 144.23 143.72 C 138.00 152.22 128.57 157.74 119.37 162.52 C 118.61 162.05 117.85 161.59 117.10 161.13 C 120.63 160.54 123.78 158.74 126.74 156.82 C 130.95 154.02 135.27 151.34 138.88 147.78 Z" />
<path fill="#030303" opacity="1.00" d=" M 147.69 146.98 C 149.31 145.82 150.83 144.47 152.73 143.78 C 151.47 145.37 150.06 146.83 148.81 148.43 C 148.44 147.94 148.06 147.46 147.69 146.98 Z" />
<path fill="#030303" opacity="1.00" d=" M 111.97 163.17 C 113.97 162.33 116.18 161.46 118.18 162.80 C 116.14 163.60 113.93 164.72 111.97 163.17 Z" />
</g>
</svg>
