<?xml version="1.0" encoding="UTF-8"?>
<svg width="144" height="144" viewBox="0 0 144 144" version="1.1" xmlns="http://www.w3.org/2000/svg" xmlns:svg="http://www.w3.org/2000/svg">

 <g>
  <title>Layer 1</title>
  <g id="svg_3">
   <g id="#f01414ff">
    <path id="svg_1" d="m58.740925,2.703362c33.928677,-7.009073 70.531246,14.948734 80.394924,48.093349c10.933243,31.639851 -4.515869,69.377979 -34.364418,84.465298c-27.808449,15.305145 -65.262718,8.612854 -86.079447,-15.324898c-21.76744,-23.482391 -24.183843,-61.933315 -5.446815,-87.930271c10.497495,-15.285322 27.273675,-25.996933 45.495755,-29.303478m8.397991,11.285802c-0.514984,7.187272 0.396126,14.790345 -2.911568,21.482615c-6.17968,13.206375 -18.222073,23.046791 -22.440884,37.282761c-5.922169,17.22567 0.633812,38.213318 16.043335,48.231941c-3.347309,-7.999069 -9.665611,-15.225937 -9.48735,-24.333771c-0.237675,-9.187042 3.961327,-17.661301 9.348724,-24.828773c0.673409,7.266479 -1.54493,16.750511 5.704273,21.423225c5.724129,4.732117 13.191193,2.177956 19.133179,-0.613792c1.010139,5.761696 2.456032,11.800606 0.574379,17.562302c-2.15892,7.682259 -8.239525,13.226143 -12.458351,19.760048c13.567551,-6.47448 24.38192,-19.106659 28.283829,-33.659416c3.010605,-14.473534 -0.812073,-30.828049 -11.7453,-41.183273c0.059418,3.108555 0.316895,6.217102 0.09903,9.305855c-1.723183,3.880722 -7.269012,3.583725 -8.932777,-0.178207c-2.634277,-6.078495 -0.772453,-12.86977 -0.435745,-19.225456c1.208214,-11.325405 -3.822662,-22.373611 -10.774773,-31.026057z" fill="#f01414"/>
   </g>
   <g id="#ffffffff">
    <path id="svg_2" d="m67.138916,13.989163c6.95211,8.652446 11.982986,19.700652 10.774773,31.026057c-0.336708,6.355686 -2.198532,13.146961 0.435745,19.225456c1.663765,3.761932 7.209595,4.058929 8.932777,0.178207c0.217865,-3.088753 -0.039612,-6.1973 -0.09903,-9.305855c10.933228,10.355225 14.755905,26.70974 11.7453,41.183273c-3.901909,14.552757 -14.716278,27.184937 -28.283829,33.659416c4.218826,-6.533905 10.299431,-12.077789 12.458351,-19.760048c1.881653,-5.761696 0.43576,-11.800606 -0.574379,-17.562302c-5.941986,2.791748 -13.40905,5.345909 -19.133179,0.613792c-7.249203,-4.672714 -5.030865,-14.156746 -5.704273,-21.423225c-5.387398,7.167473 -9.586399,15.641731 -9.348724,24.828773c-0.178261,9.107834 6.140041,16.334702 9.48735,24.333771c-15.409523,-10.018623 -21.965504,-31.006271 -16.043335,-48.231941c4.218811,-14.23597 16.261204,-24.076385 22.440884,-37.282761c3.307693,-6.69227 2.396584,-14.295343 2.911568,-21.482615z" fill="#ffffff"/>
   </g>
  </g>
 </g>
</svg>