<?xml version="1.0" encoding="UTF-8" ?>
<!DOCTYPE svg PUBLIC "-//W3C//DTD SVG 1.1//EN" "http://www.w3.org/Graphics/SVG/1.1/DTD/svg11.dtd">
<svg width="32pt" height="32pt" viewBox="0 0 32 32" version="1.1" xmlns="http://www.w3.org/2000/svg">
<g id="#f04c21ff">
<path fill="#f04c21" opacity="1.00" d=" M 3.49 13.50 C 7.32 9.89 10.79 5.89 14.82 2.52 C 17.94 2.15 20.41 5.36 21.41 8.03 C 21.19 8.45 20.75 9.29 20.52 9.71 C 16.64 13.53 12.84 17.45 8.88 21.20 C 6.48 22.39 4.91 19.92 3.39 18.51 C 1.67 17.35 1.85 14.63 3.49 13.50 M 13.64 9.11 C 14.22 9.44 15.37 10.12 15.94 10.46 C 17.11 9.97 17.94 9.14 18.43 7.98 C 18.10 7.41 17.44 6.28 17.11 5.71 C 14.90 4.81 12.74 6.86 13.64 9.11 M 5.42 14.82 C 5.40 15.39 5.35 16.54 5.33 17.11 C 6.94 20.03 10.97 17.67 9.66 14.79 C 8.47 13.30 6.68 13.57 5.42 14.82 Z" />
<path fill="#f04c21" opacity="1.00" d=" M 22.42 11.35 C 24.65 9.33 26.85 12.17 28.32 13.69 C 29.88 14.81 30.00 17.28 28.42 18.44 C 24.68 22.13 21.02 25.91 17.18 29.50 C 14.05 30.50 12.10 27.12 10.40 25.10 C 10.46 24.58 10.58 23.55 10.64 23.04 C 14.46 19.04 18.41 15.13 22.42 11.35 M 18.58 18.77 C 18.04 19.00 16.96 19.45 16.41 19.68 L 16.68 21.22 C 17.19 21.26 18.19 21.36 18.70 21.41 C 18.45 22.83 19.02 23.74 20.48 23.75 C 20.71 23.15 21.17 21.95 21.41 21.35 C 21.86 21.32 22.76 21.27 23.21 21.25 L 23.57 19.65 C 23.06 19.49 22.02 19.19 21.50 19.04 C 21.13 18.36 20.37 16.99 20.00 16.31 C 19.64 16.92 18.94 18.15 18.58 18.77 Z" />
</g>
</svg>
