<?xml version="1.0" encoding="UTF-8" ?>
<!DOCTYPE svg PUBLIC "-//W3C//DTD SVG 1.1//EN" "http://www.w3.org/Graphics/SVG/1.1/DTD/svg11.dtd">
<svg width="16pt" height="16pt" viewBox="0 0 16 16" version="1.1" xmlns="http://www.w3.org/2000/svg">
<g id="#000000ee">
<path fill="#000000" opacity="0.93" d=" M 3.09 3.05 C 3.82 3.03 5.28 2.99 6.01 2.97 C 6.01 3.73 6.01 5.25 6.01 6.01 C 5.29 6.01 3.86 5.99 3.14 5.98 C 3.13 5.25 3.10 3.79 3.09 3.05 Z" />
<path fill="#000000" opacity="0.93" d=" M 9.99 2.97 C 10.72 2.99 12.18 3.03 12.91 3.05 C 12.90 3.79 12.87 5.25 12.86 5.99 C 12.14 5.99 10.71 6.01 9.99 6.01 C 9.99 5.25 9.99 3.73 9.99 2.97 Z" />
</g>
<g id="#000000ff">
<path fill="#000000" opacity="1.00" d=" M 3.18 7.07 C 6.39 6.94 9.61 6.94 12.82 7.07 C 12.82 9.03 12.82 10.99 12.83 12.96 C 12.21 12.98 10.98 13.01 10.36 13.03 C 10.08 11.41 9.80 9.78 9.48 8.16 C 8.49 8.15 7.51 8.15 6.52 8.16 C 6.20 9.78 5.91 11.40 5.64 13.03 C 5.02 13.01 3.79 12.97 3.17 12.95 C 3.18 10.99 3.18 9.03 3.18 7.07 Z" />
</g>
</svg>
