<?xml version="1.0" encoding="UTF-8" ?>
<!DOCTYPE svg PUBLIC "-//W3C//DTD SVG 1.1//EN" "http://www.w3.org/Graphics/SVG/1.1/DTD/svg11.dtd">
<svg width="32pt" height="32pt" viewBox="0 0 32 32" version="1.1" xmlns="http://www.w3.org/2000/svg">
<g id="#3d6baaff">
<path fill="#3d6baa" opacity="1.00" d=" M 4.19 0.00 L 27.57 0.00 C 29.75 0.52 31.32 2.06 32.00 4.18 L 32.00 27.55 C 31.50 29.75 29.94 31.33 27.80 32.00 L 4.40 32.00 C 2.23 31.47 0.66 29.92 0.00 27.80 L 0.00 4.45 C 0.51 2.25 2.06 0.67 4.19 0.00 M 11.01 3.92 C 11.01 4.53 11.01 5.75 11.01 6.36 C 18.86 6.47 25.52 13.15 25.65 20.99 C 26.26 20.99 27.48 20.99 28.09 20.99 C 27.96 11.87 20.14 4.01 11.01 3.92 M 11.02 8.87 C 11.02 9.49 11.01 10.73 11.01 11.35 C 16.19 11.64 20.35 15.82 20.66 21.00 C 21.28 20.99 22.52 20.97 23.14 20.97 C 22.84 14.52 17.49 9.14 11.02 8.87 M 9.27 14.23 C 4.32 15.44 2.11 22.42 6.17 25.86 C 9.41 29.62 15.86 27.94 17.48 23.45 C 19.74 18.56 14.35 12.68 9.27 14.23 Z" />
<path fill="#3d6baa" opacity="1.00" d=" M 12.17 17.02 C 14.63 16.12 16.18 19.82 13.81 20.91 C 11.31 21.89 9.74 18.12 12.17 17.02 Z" />
</g>
<g id="#ffffffff">
<path fill="#ffffff" opacity="1.00" d=" M 11.01 3.92 C 20.14 4.01 27.96 11.87 28.09 20.99 C 27.48 20.99 26.26 20.99 25.65 20.99 C 25.52 13.15 18.86 6.47 11.01 6.36 C 11.01 5.75 11.01 4.53 11.01 3.92 Z" />
<path fill="#ffffff" opacity="1.00" d=" M 11.02 8.87 C 17.49 9.14 22.84 14.52 23.14 20.97 C 22.52 20.97 21.28 20.99 20.66 21.00 C 20.35 15.82 16.19 11.64 11.01 11.35 C 11.01 10.73 11.02 9.49 11.02 8.87 Z" />
<path fill="#ffffff" opacity="1.00" d=" M 9.27 14.23 C 14.35 12.68 19.74 18.56 17.48 23.45 C 15.86 27.94 9.41 29.62 6.17 25.86 C 2.11 22.42 4.32 15.44 9.27 14.23 M 12.17 17.02 C 9.74 18.12 11.31 21.89 13.81 20.91 C 16.18 19.82 14.63 16.12 12.17 17.02 Z" />
</g>
</svg>
