<?xml version="1.0" encoding="UTF-8" ?>
<!DOCTYPE svg PUBLIC "-//W3C//DTD SVG 1.1//EN" "http://www.w3.org/Graphics/SVG/1.1/DTD/svg11.dtd">
<svg width="110pt" height="110pt" viewBox="0 0 110 110" version="1.1" xmlns="http://www.w3.org/2000/svg">
<g id="#ffbf00ff">
<path fill="#ffbf00" opacity="1.00" d=" M 0.00 0.00 L 55.05 0.00 C 54.86 6.47 56.59 13.29 54.59 19.53 C 49.75 21.38 44.52 16.07 39.76 18.79 C 37.04 21.78 37.17 27.30 40.18 30.05 C 44.47 31.31 48.68 28.93 52.95 28.69 C 55.63 28.76 55.76 31.96 55.86 33.95 C 55.89 40.74 55.70 47.54 55.04 54.30 C 49.32 54.71 43.63 53.90 37.93 53.56 C 36.05 53.55 33.37 53.95 33.06 56.23 C 31.84 60.71 35.34 65.24 33.77 69.66 C 31.68 72.67 26.20 72.59 24.00 69.71 C 22.54 64.68 25.91 59.60 24.52 54.48 C 16.40 52.49 8.18 55.32 0.00 55.35 L 0.00 0.00 Z" />
<path fill="#ffbf00" opacity="1.00" d=" M 79.96 38.90 C 83.25 36.75 88.57 36.45 91.22 39.77 C 93.18 44.82 88.81 49.73 89.98 54.88 C 96.63 56.04 103.32 54.48 110.00 54.60 L 110.00 110.00 L 0.00 110.00 L 0.00 109.25 C 18.46 109.37 36.93 109.41 55.39 109.23 C 55.35 102.18 53.35 95.21 54.21 88.14 C 54.36 86.91 54.76 85.23 56.19 84.96 C 60.77 83.67 65.65 87.64 70.08 85.10 C 71.96 84.15 71.90 81.83 71.88 80.03 C 71.85 78.32 71.52 75.93 69.51 75.49 C 65.12 74.45 60.89 77.68 56.50 76.50 C 54.31 75.81 53.53 73.15 53.76 71.07 C 54.15 65.65 54.39 60.21 54.81 54.79 C 62.14 55.06 69.46 56.18 76.80 55.57 C 78.44 55.43 80.75 54.92 80.81 52.87 C 80.85 48.22 77.41 43.38 79.96 38.90 Z" />
</g>
<g id="#ffffffff">
<path fill="#ffffff" opacity="1.00" d=" M 55.05 0.00 L 110.00 0.00 L 110.00 54.60 C 103.32 54.48 96.63 56.04 89.98 54.88 C 88.81 49.73 93.18 44.82 91.22 39.77 C 88.57 36.45 83.25 36.75 79.96 38.90 C 77.41 43.38 80.85 48.22 80.81 52.87 C 80.75 54.92 78.44 55.43 76.80 55.57 C 69.46 56.18 62.14 55.06 54.81 54.79 C 54.39 60.21 54.15 65.65 53.76 71.07 C 53.53 73.15 54.31 75.81 56.50 76.50 C 60.89 77.68 65.12 74.45 69.51 75.49 C 71.52 75.93 71.85 78.32 71.88 80.03 C 71.90 81.83 71.96 84.15 70.08 85.10 C 65.65 87.64 60.77 83.67 56.19 84.96 C 54.76 85.23 54.36 86.91 54.21 88.14 C 53.35 95.21 55.35 102.18 55.39 109.23 C 36.93 109.41 18.46 109.37 0.00 109.25 L 0.00 55.35 C 8.18 55.32 16.40 52.49 24.52 54.48 C 25.91 59.60 22.54 64.68 24.00 69.71 C 26.20 72.59 31.68 72.67 33.77 69.66 C 35.34 65.24 31.84 60.71 33.06 56.23 C 33.37 53.95 36.05 53.55 37.93 53.56 C 43.63 53.90 49.32 54.71 55.04 54.30 C 55.70 47.54 55.89 40.74 55.86 33.95 C 55.76 31.96 55.63 28.76 52.95 28.69 C 48.68 28.93 44.47 31.31 40.18 30.05 C 37.17 27.30 37.04 21.78 39.76 18.79 C 44.52 16.07 49.75 21.38 54.59 19.53 C 56.59 13.29 54.86 6.47 55.05 0.00 Z" />
</g>
</svg>
