<?xml version="1.0" encoding="UTF-8" ?>
<!DOCTYPE svg PUBLIC "-//W3C//DTD SVG 1.1//EN" "http://www.w3.org/Graphics/SVG/1.1/DTD/svg11.dtd">
<svg width="32pt" height="32pt" viewBox="0 0 32 32" version="1.1" xmlns="http://www.w3.org/2000/svg">
<g id="#e20000ff">
<path fill="#e20000" opacity="1.00" d=" M 2.87 2.98 C 6.49 3.82 9.94 5.21 13.32 6.73 C 10.30 8.57 6.71 9.72 4.21 12.27 C 3.09 15.19 4.55 18.48 3.75 21.53 C 2.11 15.48 3.03 9.16 2.87 2.98 Z" />
<path fill="#e20000" opacity="1.00" d=" M 14.77 7.29 C 19.45 5.35 25.32 9.09 25.65 14.12 C 25.83 16.62 25.76 19.12 25.76 21.63 C 27.01 20.72 28.30 19.86 29.61 19.04 C 29.62 21.32 27.36 22.15 25.85 23.28 C 25.76 25.70 25.92 28.21 24.97 30.50 C 24.30 28.29 24.28 25.98 24.26 23.69 C 21.66 23.45 18.84 23.04 17.02 20.96 C 14.52 18.54 14.82 14.79 14.25 11.64 C 12.91 16.08 13.89 20.80 13.62 25.37 C 10.87 26.90 8.16 28.47 5.42 30.01 C 5.27 27.98 5.04 25.97 5.18 23.93 C 5.36 19.98 4.13 15.93 5.52 12.09 C 8.70 10.68 11.57 8.65 14.77 7.29 Z" />
</g>
</svg>
