<?xml version="1.0" encoding="UTF-8" ?>
<!DOCTYPE svg PUBLIC "-//W3C//DTD SVG 1.1//EN" "http://www.w3.org/Graphics/SVG/1.1/DTD/svg11.dtd">
<svg width="32pt" height="32pt" viewBox="0 0 32 32" version="1.1" xmlns="http://www.w3.org/2000/svg">
<g id="#818181b4">
<path fill="#818181" opacity="0.71" d=" M 16.29 3.39 C 17.52 3.06 18.78 2.92 20.06 2.98 C 19.47 7.32 17.80 11.45 17.20 15.81 C 19.74 18.23 22.07 20.88 24.83 23.06 C 26.64 19.65 24.93 13.76 29.03 11.88 C 28.41 16.66 26.76 21.25 25.85 25.98 C 21.15 25.26 19.48 18.85 15.00 17.19 C 12.03 17.98 9.07 18.85 6.00 19.21 C 6.42 22.81 10.72 24.42 12.76 27.25 C 13.41 28.90 12.89 29.41 11.22 28.79 C 8.63 25.75 5.09 23.34 2.97 19.99 C 4.94 15.27 12.59 18.32 15.76 14.76 C 16.54 11.51 17.26 8.24 17.92 4.95 C 13.92 5.53 10.06 7.21 5.97 7.02 C 7.60 4.20 13.09 4.85 16.29 3.39 Z" />
</g>
</svg>
