<?xml version="1.0" encoding="UTF-8" ?>
<!DOCTYPE svg PUBLIC "-//W3C//DTD SVG 1.1//EN" "http://www.w3.org/Graphics/SVG/1.1/DTD/svg11.dtd">
<svg width="32pt" height="32pt" viewBox="0 0 32 32" version="1.1" xmlns="http://www.w3.org/2000/svg">
<g id="#ffffffff">
<path fill="#ffffff" opacity="1.00" d=" M 0.00 0.00 L 32.00 0.00 L 32.00 32.00 L 0.00 32.00 L 0.00 0.00 M 6.61 5.24 C 5.75 11.44 5.78 17.71 5.99 23.95 C 9.97 24.23 13.99 24.67 17.96 24.04 C 24.06 22.80 28.20 15.11 24.31 9.72 C 20.71 3.60 12.63 4.32 6.61 5.24 Z" />
</g>
<g id="#f6eddbff">
<path fill="#f6eddb" opacity="1.00" d=" M 6.61 5.24 C 12.63 4.32 20.71 3.60 24.31 9.72 C 28.20 15.11 24.06 22.80 17.96 24.04 C 13.99 24.67 9.97 24.23 5.99 23.95 C 5.78 17.71 5.75 11.44 6.61 5.24 M 12.50 10.51 C 12.15 13.26 12.06 16.04 12.26 18.81 C 15.31 19.22 18.13 18.44 19.91 15.81 C 20.05 11.89 16.09 9.40 12.50 10.51 Z" />
</g>
<g id="#fffdfeff">
<path fill="#fffdfe" opacity="1.00" d=" M 12.50 10.51 C 16.09 9.40 20.05 11.89 19.91 15.81 C 18.13 18.44 15.31 19.22 12.26 18.81 C 12.06 16.04 12.15 13.26 12.50 10.51 Z" />
</g>
</svg>
