<?xml version="1.0" encoding="UTF-8" ?>
<!DOCTYPE svg PUBLIC "-//W3C//DTD SVG 1.1//EN" "http://www.w3.org/Graphics/SVG/1.1/DTD/svg11.dtd">
<svg width="48pt" height="48pt" viewBox="0 0 48 48" version="1.1" xmlns="http://www.w3.org/2000/svg">
<g id="#006aa5ff">
<path fill="#006aa5" opacity="1.00" d=" M 6.16 0.00 L 41.52 0.00 C 44.82 0.85 47.20 3.59 48.00 6.85 L 48.00 40.81 C 47.34 44.38 44.60 47.08 41.14 48.00 L 6.94 48.00 C 3.65 47.30 1.05 44.88 0.00 41.71 L 0.00 6.44 C 0.77 3.35 3.17 0.99 6.16 0.00 M 17.39 9.33 C 10.75 12.92 8.74 22.59 13.32 28.58 C 16.70 32.91 20.50 36.91 24.03 41.12 C 24.73 40.90 26.14 40.47 26.84 40.25 C 24.01 34.38 18.27 30.59 15.09 24.95 C 12.45 19.51 15.95 12.27 21.91 11.09 C 28.41 9.23 35.33 15.48 34.22 22.13 C 33.91 25.84 31.00 28.38 28.34 30.60 C 25.99 27.69 23.13 25.15 21.20 21.93 C 21.05 20.68 20.99 18.94 22.31 18.26 C 24.15 16.50 28.05 18.24 27.35 20.91 C 27.08 22.86 25.69 26.28 29.08 25.55 C 32.52 22.09 30.81 15.33 25.89 14.39 C 20.70 12.80 15.57 19.06 18.33 23.79 C 21.15 27.93 24.77 31.45 27.98 35.29 C 30.37 33.29 32.93 31.41 34.90 28.97 C 38.62 24.27 38.52 16.97 34.62 12.40 C 30.67 7.30 22.87 5.88 17.39 9.33 Z" />
</g>
<g id="#fefeffff">
<path fill="#fefeff" opacity="1.00" d=" M 17.39 9.33 C 22.87 5.88 30.67 7.30 34.62 12.40 C 38.52 16.97 38.62 24.27 34.90 28.97 C 32.93 31.41 30.37 33.29 27.98 35.29 C 24.77 31.45 21.15 27.93 18.33 23.79 C 15.57 19.06 20.70 12.80 25.89 14.39 C 30.81 15.33 32.52 22.09 29.08 25.55 C 25.69 26.28 27.08 22.86 27.35 20.91 C 28.05 18.24 24.15 16.50 22.31 18.26 C 20.99 18.94 21.05 20.68 21.20 21.93 C 23.13 25.15 25.99 27.69 28.34 30.60 C 31.00 28.38 33.91 25.84 34.22 22.13 C 35.33 15.48 28.41 9.23 21.91 11.09 C 15.95 12.27 12.45 19.51 15.09 24.95 C 18.27 30.59 24.01 34.38 26.84 40.25 C 26.14 40.47 24.73 40.90 24.03 41.12 C 20.50 36.91 16.70 32.91 13.32 28.58 C 8.74 22.59 10.75 12.92 17.39 9.33 Z" />
</g>
</svg>
