<?xml version="1.0" encoding="UTF-8" ?>
<!DOCTYPE svg PUBLIC "-//W3C//DTD SVG 1.1//EN" "http://www.w3.org/Graphics/SVG/1.1/DTD/svg11.dtd">
<svg width="170pt" height="170pt" viewBox="0 0 170 170" version="1.1" xmlns="http://www.w3.org/2000/svg">
<g id="#22a1dbff">
<path fill="#22a1db" opacity="1.00" d=" M 0.00 0.00 L 170.00 0.00 L 170.00 170.00 L 0.00 170.00 L 0.00 0.00 M 74.06 14.00 C 69.14 14.97 64.09 15.62 59.48 17.69 C 46.89 22.13 36.18 30.70 27.76 40.90 C 23.95 45.76 21.18 51.29 18.15 56.64 C 18.07 57.09 17.93 58.00 17.86 58.46 C 16.20 61.06 15.60 64.11 14.93 67.08 C 11.84 76.75 12.64 87.08 13.20 97.06 C 14.20 101.19 15.24 105.31 16.19 109.46 C 16.72 110.47 17.24 111.48 17.75 112.49 C 24.15 129.19 37.52 142.83 53.42 150.79 C 55.80 151.80 58.22 152.73 60.55 153.85 C 61.01 153.95 61.94 154.13 62.40 154.23 C 63.68 154.82 65.07 155.03 66.45 155.26 C 70.71 157.33 75.49 156.70 79.99 157.73 C 85.96 158.84 91.89 157.05 97.85 156.74 C 101.73 155.84 105.56 154.69 109.46 153.81 C 110.46 153.28 111.48 152.76 112.49 152.25 C 127.24 146.46 139.51 135.14 147.54 121.59 C 149.03 118.87 150.16 115.97 151.86 113.36 C 151.93 112.91 152.07 112.01 152.14 111.56 C 153.13 109.66 153.81 107.62 154.34 105.55 C 161.62 80.78 154.53 52.17 135.76 34.25 C 127.77 25.79 117.30 20.17 106.45 16.24 C 105.06 16.03 103.65 15.87 102.40 15.19 C 101.29 15.06 100.18 14.92 99.08 14.80 C 90.95 12.60 82.31 12.30 74.06 14.00 Z" />
<path fill="#22a1db" opacity="1.00" d=" M 45.02 28.85 C 57.62 19.73 73.49 15.41 88.96 16.00 C 95.63 16.59 102.12 18.32 108.52 20.20 C 109.54 20.76 110.55 21.33 111.56 21.92 C 112.04 21.96 113.01 22.05 113.49 22.10 C 121.01 26.08 128.13 30.82 134.28 36.72 C 138.33 41.33 142.13 46.18 145.26 51.48 C 149.74 59.67 152.50 68.71 153.93 77.92 C 154.11 82.62 153.99 87.34 154.00 92.05 C 153.11 99.82 150.82 107.35 147.74 114.52 C 146.92 116.16 146.11 117.82 145.31 119.47 C 139.33 129.41 131.45 138.38 121.32 144.23 C 116.58 147.79 110.90 149.55 105.49 151.78 C 97.82 153.84 89.88 155.20 81.91 155.00 C 74.64 153.98 67.04 153.56 60.40 150.13 C 59.93 150.06 58.99 149.94 58.52 149.88 C 52.75 147.03 47.04 144.09 41.92 140.14 C 34.96 134.06 28.49 127.26 24.10 119.04 C 21.51 114.80 20.22 109.97 18.20 105.47 C 17.76 102.73 17.21 99.97 16.12 97.40 C 15.82 88.14 14.84 78.63 17.29 69.56 C 17.80 68.27 18.01 66.90 18.25 65.55 C 19.57 62.19 20.92 58.84 22.26 55.48 C 24.88 49.72 28.52 44.46 32.71 39.73 C 36.76 36.05 40.10 31.44 45.02 28.85 M 89.14 60.00 C 88.00 62.09 86.43 64.54 87.85 66.91 C 89.11 70.07 93.01 69.59 95.70 69.01 C 96.48 68.04 97.26 67.08 98.04 66.12 C 98.03 65.41 98.00 64.00 97.99 63.30 C 97.23 62.21 96.47 61.12 95.72 60.02 C 93.54 59.58 91.32 59.58 89.14 60.00 M 40.09 60.03 C 39.38 60.84 38.66 61.65 37.93 62.46 C 37.60 64.70 38.12 66.89 39.30 68.81 C 40.57 69.09 41.84 69.40 43.09 69.74 C 45.01 69.20 46.71 68.18 48.07 66.73 C 48.03 65.31 48.00 63.88 47.98 62.45 C 47.18 61.63 46.40 60.80 45.62 59.96 C 43.78 59.74 41.92 59.79 40.09 60.03 M 62.47 72.15 C 58.55 74.11 55.61 77.47 54.11 81.57 C 53.11 91.01 53.77 100.52 53.59 110.00 C 57.06 110.00 60.53 110.00 64.00 110.00 C 64.01 102.65 64.00 95.30 63.98 87.96 C 63.82 85.84 64.66 83.89 65.43 81.97 C 67.89 81.91 70.56 81.67 72.19 83.89 C 71.93 85.64 72.49 87.86 70.62 88.89 C 68.98 89.43 67.24 89.01 65.57 88.95 C 65.59 92.63 65.58 96.31 65.59 99.99 C 68.03 99.98 70.50 100.21 72.93 99.82 C 76.68 98.12 80.04 95.26 81.85 91.49 C 84.75 84.05 81.08 75.03 73.52 72.14 C 69.86 70.97 66.12 70.97 62.47 72.15 M 112.51 72.16 C 108.94 73.45 106.14 76.00 104.65 79.50 C 102.35 83.63 103.07 88.43 103.00 92.95 C 103.00 98.63 103.00 104.31 103.00 110.00 C 106.67 110.00 110.33 110.00 114.00 110.00 C 114.01 102.34 114.00 94.68 113.98 87.02 C 113.84 85.25 114.49 83.59 115.11 81.97 C 116.72 81.98 118.33 81.98 119.94 81.97 C 120.93 83.30 121.96 84.67 122.15 86.37 C 121.71 87.02 120.82 88.32 120.37 88.97 C 118.58 89.04 116.79 89.08 115.00 89.07 C 115.00 92.71 115.00 96.35 115.00 99.99 C 118.53 99.92 122.53 100.74 125.48 98.27 C 128.42 96.44 130.40 93.57 131.86 90.49 C 134.11 83.30 130.31 75.30 123.54 72.14 C 119.89 71.04 116.13 70.87 112.51 72.16 M 37.59 72.00 C 37.58 81.33 37.58 90.67 37.59 100.00 C 41.06 100.00 44.53 100.00 48.00 100.00 C 48.00 90.67 48.00 81.33 48.00 72.00 C 44.53 72.00 41.06 72.00 37.59 72.00 M 87.16 72.01 C 87.16 81.33 87.16 90.66 87.16 99.99 C 90.77 100.00 94.38 100.00 98.00 100.00 C 98.00 90.67 98.00 81.33 98.00 72.00 C 94.38 72.00 90.77 72.00 87.16 72.01 Z" />
</g>
<g id="#ffffffff">
<path fill="#ffffff" opacity="1.00" d=" M 74.06 14.00 C 82.31 12.30 90.95 12.60 99.08 14.80 C 100.18 14.92 101.29 15.06 102.40 15.19 C 103.65 15.87 105.06 16.03 106.45 16.24 C 117.30 20.17 127.77 25.79 135.76 34.25 C 154.53 52.17 161.62 80.78 154.34 105.55 C 153.81 107.62 153.13 109.66 152.14 111.56 C 152.07 112.01 151.93 112.91 151.86 113.36 C 150.16 115.97 149.03 118.87 147.54 121.59 C 139.51 135.14 127.24 146.46 112.49 152.25 C 111.48 152.76 110.46 153.28 109.46 153.81 C 105.56 154.69 101.73 155.84 97.85 156.74 C 91.89 157.05 85.96 158.84 79.99 157.73 C 75.49 156.70 70.71 157.33 66.45 155.26 C 65.07 155.03 63.68 154.82 62.40 154.23 C 61.94 154.13 61.01 153.95 60.55 153.85 C 58.22 152.73 55.80 151.80 53.42 150.79 C 37.52 142.83 24.15 129.19 17.75 112.49 C 17.24 111.48 16.72 110.47 16.19 109.46 C 15.24 105.31 14.20 101.19 13.20 97.06 C 12.64 87.08 11.84 76.75 14.93 67.08 C 15.60 64.11 16.20 61.06 17.86 58.46 C 17.93 58.00 18.07 57.09 18.15 56.64 C 21.18 51.29 23.95 45.76 27.76 40.90 C 36.18 30.70 46.89 22.13 59.48 17.69 C 64.09 15.62 69.14 14.97 74.06 14.00 M 45.02 28.85 C 40.10 31.44 36.76 36.05 32.71 39.73 C 28.52 44.46 24.88 49.72 22.26 55.48 C 20.92 58.84 19.57 62.19 18.25 65.55 C 18.01 66.90 17.80 68.27 17.29 69.56 C 14.84 78.63 15.82 88.14 16.12 97.40 C 17.21 99.97 17.76 102.73 18.20 105.47 C 20.22 109.97 21.51 114.80 24.10 119.04 C 28.49 127.26 34.96 134.06 41.92 140.14 C 47.04 144.09 52.75 147.03 58.52 149.88 C 58.99 149.94 59.93 150.06 60.40 150.13 C 67.04 153.56 74.64 153.98 81.91 155.00 C 89.88 155.20 97.82 153.84 105.49 151.78 C 110.90 149.55 116.58 147.79 121.32 144.23 C 131.45 138.38 139.33 129.41 145.31 119.47 C 146.11 117.82 146.92 116.16 147.74 114.52 C 150.82 107.35 153.11 99.82 154.00 92.05 C 153.99 87.34 154.11 82.62 153.93 77.92 C 152.50 68.71 149.74 59.67 145.26 51.48 C 142.13 46.18 138.33 41.33 134.28 36.72 C 128.13 30.82 121.01 26.08 113.49 22.10 C 113.01 22.05 112.04 21.96 111.56 21.92 C 110.55 21.33 109.54 20.76 108.52 20.20 C 102.12 18.32 95.63 16.59 88.96 16.00 C 73.49 15.41 57.62 19.73 45.02 28.85 Z" />
<path fill="#ffffff" opacity="1.00" d=" M 89.14 60.00 C 91.32 59.58 93.54 59.58 95.72 60.02 C 96.47 61.12 97.23 62.21 97.99 63.30 C 98.00 64.00 98.03 65.41 98.04 66.12 C 97.26 67.08 96.48 68.04 95.70 69.01 C 93.01 69.59 89.11 70.07 87.85 66.91 C 86.43 64.54 88.00 62.09 89.14 60.00 Z" />
<path fill="#ffffff" opacity="1.00" d=" M 40.09 60.03 C 41.92 59.79 43.78 59.74 45.62 59.96 C 46.40 60.80 47.18 61.63 47.98 62.45 C 48.00 63.88 48.03 65.31 48.07 66.73 C 46.71 68.18 45.01 69.20 43.09 69.74 C 41.84 69.40 40.57 69.09 39.30 68.81 C 38.12 66.89 37.60 64.70 37.93 62.46 C 38.66 61.65 39.38 60.84 40.09 60.03 Z" />
<path fill="#ffffff" opacity="1.00" d=" M 62.47 72.15 C 66.12 70.97 69.86 70.97 73.52 72.14 C 81.08 75.03 84.75 84.05 81.85 91.49 C 80.04 95.26 76.68 98.12 72.93 99.82 C 70.50 100.21 68.03 99.98 65.59 99.99 C 65.58 96.31 65.59 92.63 65.57 88.95 C 67.24 89.01 68.98 89.43 70.62 88.89 C 72.49 87.86 71.93 85.64 72.19 83.89 C 70.56 81.67 67.89 81.91 65.43 81.97 C 64.66 83.89 63.82 85.84 63.98 87.96 C 64.00 95.30 64.01 102.65 64.00 110.00 C 60.53 110.00 57.06 110.00 53.59 110.00 C 53.77 100.52 53.11 91.01 54.11 81.57 C 55.61 77.47 58.55 74.11 62.47 72.15 Z" />
<path fill="#ffffff" opacity="1.00" d=" M 112.51 72.16 C 116.13 70.87 119.89 71.04 123.54 72.14 C 130.31 75.30 134.11 83.30 131.86 90.49 C 130.40 93.57 128.42 96.44 125.48 98.27 C 122.53 100.74 118.53 99.92 115.00 99.99 C 115.00 96.35 115.00 92.71 115.00 89.07 C 116.79 89.08 118.58 89.04 120.37 88.97 C 120.82 88.32 121.71 87.02 122.15 86.37 C 121.96 84.67 120.93 83.30 119.94 81.97 C 118.33 81.98 116.72 81.98 115.11 81.97 C 114.49 83.59 113.84 85.25 113.98 87.02 C 114.00 94.68 114.01 102.34 114.00 110.00 C 110.33 110.00 106.67 110.00 103.00 110.00 C 103.00 104.31 103.00 98.63 103.00 92.95 C 103.07 88.43 102.35 83.63 104.65 79.50 C 106.14 76.00 108.94 73.45 112.51 72.16 Z" />
<path fill="#ffffff" opacity="1.00" d=" M 37.59 72.00 C 41.06 72.00 44.53 72.00 48.00 72.00 C 48.00 81.33 48.00 90.67 48.00 100.00 C 44.53 100.00 41.06 100.00 37.59 100.00 C 37.58 90.67 37.58 81.33 37.59 72.00 Z" />
<path fill="#ffffff" opacity="1.00" d=" M 87.16 72.01 C 90.77 72.00 94.38 72.00 98.00 72.00 C 98.00 81.33 98.00 90.67 98.00 100.00 C 94.38 100.00 90.77 100.00 87.16 99.99 C 87.16 90.66 87.16 81.33 87.16 72.01 Z" />
</g>
</svg>
