<?xml version="1.0" encoding="UTF-8" ?>
<!DOCTYPE svg PUBLIC "-//W3C//DTD SVG 1.1//EN" "http://www.w3.org/Graphics/SVG/1.1/DTD/svg11.dtd">
<svg width="32pt" height="32pt" viewBox="0 0 32 32" version="1.1" xmlns="http://www.w3.org/2000/svg">
<g id="#f3fcf9ff">
<path fill="#f3fcf9" opacity="1.00" d=" M 0.00 0.00 L 32.00 0.00 L 32.00 32.00 L 0.00 32.00 L 0.00 0.00 M 11.53 1.85 C 11.42 3.27 11.33 4.69 11.25 6.11 C 8.70 4.30 5.71 3.03 2.53 3.63 C 3.93 8.02 9.48 11.09 13.37 7.67 C 11.46 10.12 8.82 12.64 9.36 16.06 C 9.27 19.22 12.05 21.28 13.27 23.95 C 13.37 26.14 11.82 28.70 13.54 30.54 C 20.31 33.54 27.91 27.89 29.07 21.06 C 30.42 15.27 26.62 8.90 20.96 7.21 C 18.50 6.32 15.99 7.35 13.63 8.04 C 13.51 5.85 13.80 3.07 11.53 1.85 Z" />
</g>
<g id="#e88308ff">
<path fill="#e88308" opacity="1.00" d=" M 11.53 1.85 C 13.80 3.07 13.51 5.85 13.63 8.04 C 15.99 7.35 18.50 6.32 20.96 7.21 C 26.62 8.90 30.42 15.27 29.07 21.06 C 27.91 27.89 20.31 33.54 13.54 30.54 C 11.82 28.70 13.37 26.14 13.27 23.95 C 12.05 21.28 9.27 19.22 9.36 16.06 C 8.82 12.64 11.46 10.12 13.37 7.67 C 9.48 11.09 3.93 8.02 2.53 3.63 C 5.71 3.03 8.70 4.30 11.25 6.11 C 11.33 4.69 11.42 3.27 11.53 1.85 Z" />
</g>
</svg>
