<?xml version="1.0" encoding="UTF-8" ?>
<!DOCTYPE svg PUBLIC "-//W3C//DTD SVG 1.1//EN" "http://www.w3.org/Graphics/SVG/1.1/DTD/svg11.dtd">
<svg width="32pt" height="32pt" viewBox="0 0 32 32" version="1.1" xmlns="http://www.w3.org/2000/svg">
<g id="#2b2016ff">
<path fill="#2b2016" opacity="1.00" d=" M 0.00 0.00 L 22.51 0.00 C 22.53 0.95 22.55 1.90 22.57 2.86 C 16.91 3.03 11.25 3.30 5.61 3.73 C 4.74 4.99 3.87 6.25 3.08 7.55 C 2.92 7.85 2.60 8.45 2.44 8.74 C 3.05 10.20 3.73 11.63 4.43 13.05 C 4.22 16.57 4.16 20.11 4.23 23.64 C 2.81 24.21 1.39 24.78 0.00 25.41 L 0.00 0.00 Z" />
</g>
<g id="#443527ff">
<path fill="#443527" opacity="1.00" d=" M 22.51 0.00 L 32.00 0.00 L 32.00 15.16 C 30.61 15.84 29.20 16.46 27.78 17.08 C 27.74 15.66 27.71 14.23 27.69 12.80 L 27.68 12.13 C 27.96 10.27 28.35 8.43 28.62 6.57 C 21.92 1.80 13.23 4.44 5.61 3.73 C 11.25 3.30 16.91 3.03 22.57 2.86 C 22.55 1.90 22.53 0.95 22.51 0.00 Z" />
</g>
<g id="#fd9b9bff">
<path fill="#fd9b9b" opacity="1.00" d=" M 3.08 7.55 C 3.87 6.25 4.74 4.99 5.61 3.73 C 13.23 4.44 21.92 1.80 28.62 6.57 C 26.75 7.82 24.88 9.07 22.93 10.18 C 21.72 10.48 20.50 10.71 19.27 10.88 C 17.70 9.61 16.13 8.35 14.55 7.10 C 14.06 8.11 13.08 10.13 12.59 11.14 C 11.20 10.87 9.83 10.52 8.49 10.06 C 6.66 9.27 4.87 8.41 3.08 7.55 Z" />
</g>
<g id="#f15d5cff">
<path fill="#f15d5c" opacity="1.00" d=" M 28.62 6.57 C 28.35 8.43 27.96 10.27 27.68 12.13 C 26.11 11.44 24.52 10.81 22.93 10.18 C 24.88 9.07 26.75 7.82 28.62 6.57 Z" />
</g>
<g id="#e35a5aff">
<path fill="#e35a5a" opacity="1.00" d=" M 2.44 8.74 C 2.60 8.45 2.92 7.85 3.08 7.55 C 4.87 8.41 6.66 9.27 8.49 10.06 C 7.56 10.78 6.61 11.50 5.66 12.21 C 5.35 12.42 4.74 12.84 4.43 13.05 C 3.73 11.63 3.05 10.20 2.44 8.74 Z" />
</g>
<g id="#f75d5dff">
<path fill="#f75d5d" opacity="1.00" d=" M 12.59 11.14 C 13.08 10.13 14.06 8.11 14.55 7.10 C 16.13 8.35 17.70 9.61 19.27 10.88 C 17.05 11.14 14.82 11.26 12.59 11.14 Z" />
</g>
<g id="#010101ff">
<path fill="#010101" opacity="1.00" d=" M 5.66 12.21 C 6.61 11.50 7.56 10.78 8.49 10.06 C 9.83 10.52 11.20 10.87 12.59 11.14 C 14.82 11.26 17.05 11.14 19.27 10.88 C 20.50 10.71 21.72 10.48 22.93 10.18 C 24.52 10.81 26.11 11.44 27.68 12.13 L 27.69 12.80 C 25.67 12.53 23.65 12.28 21.63 12.07 C 23.41 15.09 25.16 18.14 26.43 21.42 C 26.45 22.72 26.48 24.03 26.52 25.33 C 22.68 24.61 18.99 22.98 15.04 22.94 C 11.91 23.24 9.15 24.88 6.28 26.03 C 6.00 24.47 5.72 22.91 5.47 21.34 C 6.86 18.21 8.45 15.17 10.20 12.23 C 8.69 12.20 7.17 12.17 5.66 12.21 M 10.83 12.86 C 13.38 16.61 18.60 15.72 21.36 12.75 C 17.90 12.35 14.17 11.47 10.83 12.86 M 12.86 18.76 C 13.39 19.75 13.92 20.75 14.44 21.75 C 15.47 21.75 16.50 21.75 17.53 21.76 C 18.11 20.70 18.68 19.64 19.26 18.58 C 18.20 17.83 17.16 17.04 16.02 16.41 C 14.91 17.10 13.89 17.95 12.86 18.76 Z" />
</g>
<g id="#e8ececff">
<path fill="#e8ecec" opacity="1.00" d=" M 5.66 12.21 C 7.17 12.17 8.69 12.20 10.20 12.23 C 8.45 15.17 6.86 18.21 5.47 21.34 C 5.05 18.59 4.73 15.82 4.43 13.05 C 4.74 12.84 5.35 12.42 5.66 12.21 Z" />
</g>
<g id="#dce9eaff">
<path fill="#dce9ea" opacity="1.00" d=" M 10.83 12.86 C 14.17 11.47 17.90 12.35 21.36 12.75 C 18.60 15.72 13.38 16.61 10.83 12.86 Z" />
</g>
<g id="#b8dcdfff">
<path fill="#b8dcdf" opacity="1.00" d=" M 21.63 12.07 C 23.65 12.28 25.67 12.53 27.69 12.80 C 27.23 15.67 26.75 18.53 26.43 21.42 C 25.16 18.14 23.41 15.09 21.63 12.07 Z" />
</g>
<g id="#a4e1e6ff">
<path fill="#a4e1e6" opacity="1.00" d=" M 4.23 23.64 C 4.16 20.11 4.22 16.57 4.43 13.05 C 4.73 15.82 5.05 18.59 5.47 21.34 C 5.72 22.91 6.00 24.47 6.28 26.03 C 9.15 24.88 11.91 23.24 15.04 22.94 C 18.99 22.98 22.68 24.61 26.52 25.33 C 26.53 25.80 26.56 26.73 26.58 27.20 C 20.39 27.52 14.21 27.77 8.02 27.68 C 6.80 27.66 5.58 27.64 4.35 27.62 C 4.31 26.29 4.27 24.96 4.23 23.64 Z" />
</g>
<g id="#889795ff">
<path fill="#889795" opacity="1.00" d=" M 27.69 12.80 C 27.71 14.23 27.74 15.66 27.78 17.08 C 27.88 20.38 27.97 23.67 28.05 26.97 C 25.12 27.87 22.86 29.98 20.65 32.00 L 5.72 32.00 C 6.54 30.59 7.28 29.13 8.02 27.68 C 14.21 27.77 20.39 27.52 26.58 27.20 C 26.56 26.73 26.53 25.80 26.52 25.33 C 26.48 24.03 26.45 22.72 26.43 21.42 C 26.75 18.53 27.23 15.67 27.69 12.80 Z" />
</g>
<g id="#fc6161ff">
<path fill="#fc6161" opacity="1.00" d=" M 12.86 18.76 C 13.89 17.95 14.91 17.10 16.02 16.41 C 17.16 17.04 18.20 17.83 19.26 18.58 C 18.68 19.64 18.11 20.70 17.53 21.76 C 16.50 21.75 15.47 21.75 14.44 21.75 C 13.92 20.75 13.39 19.75 12.86 18.76 Z" />
</g>
<g id="#867748ff">
<path fill="#867748" opacity="1.00" d=" M 27.78 17.08 C 29.20 16.46 30.61 15.84 32.00 15.16 L 32.00 26.42 C 30.68 26.59 29.36 26.77 28.05 26.97 C 27.97 23.67 27.88 20.38 27.78 17.08 Z" />
</g>
<g id="#877236ff">
<path fill="#877236" opacity="1.00" d=" M 0.00 25.41 C 1.39 24.78 2.81 24.21 4.23 23.64 C 4.27 24.96 4.31 26.29 4.35 27.62 C 5.58 27.64 6.80 27.66 8.02 27.68 C 7.28 29.13 6.54 30.59 5.72 32.00 L 0.00 32.00 L 0.00 25.41 Z" />
</g>
<g id="#504237ff">
<path fill="#504237" opacity="1.00" d=" M 28.05 26.97 C 29.36 26.77 30.68 26.59 32.00 26.42 L 32.00 32.00 L 20.65 32.00 C 22.86 29.98 25.12 27.87 28.05 26.97 Z" />
</g>
</svg>
