<?xml version="1.0" encoding="UTF-8" ?>
<!DOCTYPE svg PUBLIC "-//W3C//DTD SVG 1.1//EN" "http://www.w3.org/Graphics/SVG/1.1/DTD/svg11.dtd">
<svg width="256pt" height="256pt" viewBox="0 0 256 256" version="1.1" xmlns="http://www.w3.org/2000/svg">
<g id="#ffffffff">
<path fill="#ffffff" opacity="1.00" d=" M 0.00 0.00 L 256.00 0.00 L 256.00 256.00 L 0.00 256.00 L 0.00 0.00 M 114.27 19.67 C 114.89 33.49 116.41 47.27 116.70 61.11 C 105.77 61.30 95.65 65.92 86.17 70.91 L 85.46 70.67 C 76.60 57.35 67.08 44.49 57.72 31.52 C 52.20 35.14 46.82 38.97 41.34 42.66 C 51.13 54.89 60.87 67.16 70.67 79.38 C 71.18 80.13 72.63 81.42 71.38 82.24 C 63.70 89.26 57.59 97.76 52.35 106.70 C 41.32 100.59 30.01 95.00 18.89 89.06 C 16.03 87.72 13.42 85.78 10.32 85.01 C 8.10 92.79 5.07 100.35 3.16 108.21 C 17.30 113.23 31.34 118.57 45.41 123.81 C 42.19 133.20 40.86 143.17 40.43 153.05 C 39.88 167.83 43.03 183.60 52.96 195.03 C 61.00 203.65 69.40 212.02 78.78 219.20 C 92.26 229.72 108.71 237.15 126.03 237.32 C 145.28 237.39 163.98 230.29 180.08 220.10 C 199.63 207.47 215.42 187.93 220.66 164.97 C 224.74 147.88 222.03 129.45 213.64 114.05 C 227.11 102.71 240.55 91.34 254.02 80.01 C 249.71 75.65 245.36 71.33 241.02 67.00 C 228.53 77.21 216.19 87.60 203.74 97.86 C 203.44 97.84 202.84 97.79 202.54 97.76 C 196.90 91.05 190.93 84.58 184.09 79.07 C 191.94 65.66 199.89 52.32 207.75 38.92 C 201.21 35.80 194.73 32.57 188.15 29.56 C 181.30 42.42 173.84 54.95 166.97 67.80 C 157.14 63.44 146.62 60.45 135.82 60.19 C 135.79 46.68 135.81 33.18 135.80 19.67 C 128.63 19.66 121.45 19.67 114.27 19.67 Z" />
<path fill="#ffffff" opacity="1.00" d=" M 123.03 79.00 C 135.28 77.84 148.00 79.36 159.12 84.82 C 172.28 91.19 182.77 101.90 191.33 113.55 C 199.03 124.06 203.99 136.89 203.79 150.03 C 203.99 164.34 198.32 178.30 189.47 189.38 C 177.36 204.49 159.73 214.77 140.95 219.08 C 128.33 221.98 114.77 220.52 103.17 214.73 C 89.81 208.25 78.91 197.82 68.78 187.17 C 60.43 178.39 57.85 165.74 58.19 153.98 C 58.19 128.89 70.37 103.49 91.59 89.60 C 98.50 85.27 105.87 81.23 114.01 79.91 C 117.00 79.42 120.03 79.36 123.03 79.00 M 109.52 102.66 C 99.15 101.67 88.13 103.35 79.41 109.33 C 71.96 114.25 67.04 122.92 67.11 131.90 C 66.49 144.15 71.62 156.91 81.63 164.28 C 94.65 173.73 113.45 173.53 126.85 164.94 C 135.26 159.64 140.88 149.97 140.75 139.96 C 140.91 130.60 138.67 120.75 132.44 113.52 C 126.73 106.88 118.06 103.55 109.52 102.66 Z" />
</g>
<g id="#000000ff">
<path fill="#000000" opacity="1.00" d=" M 114.27 19.67 C 121.45 19.67 128.63 19.66 135.80 19.67 C 135.81 33.18 135.79 46.68 135.82 60.19 C 146.62 60.45 157.14 63.44 166.97 67.80 C 173.84 54.95 181.30 42.42 188.15 29.56 C 194.73 32.57 201.21 35.80 207.75 38.92 C 199.89 52.32 191.94 65.66 184.09 79.07 C 190.93 84.58 196.90 91.05 202.54 97.76 C 202.84 97.79 203.44 97.84 203.74 97.86 C 216.19 87.60 228.53 77.21 241.02 67.00 C 245.36 71.33 249.71 75.65 254.02 80.01 C 240.55 91.34 227.11 102.71 213.64 114.05 C 222.03 129.45 224.74 147.88 220.66 164.97 C 215.42 187.93 199.63 207.47 180.08 220.10 C 163.98 230.29 145.28 237.39 126.03 237.32 C 108.71 237.15 92.26 229.72 78.78 219.20 C 69.40 212.02 61.00 203.65 52.96 195.03 C 43.03 183.60 39.88 167.83 40.43 153.05 C 40.86 143.17 42.19 133.20 45.41 123.81 C 31.34 118.57 17.30 113.23 3.16 108.21 C 5.07 100.35 8.10 92.79 10.32 85.01 C 13.42 85.78 16.03 87.72 18.89 89.06 C 30.01 95.00 41.32 100.59 52.35 106.70 C 57.59 97.76 63.70 89.26 71.38 82.24 C 72.63 81.42 71.18 80.13 70.67 79.38 C 60.87 67.16 51.13 54.89 41.34 42.66 C 46.82 38.97 52.20 35.14 57.72 31.52 C 67.08 44.49 76.60 57.35 85.46 70.67 L 86.17 70.91 C 95.65 65.92 105.77 61.30 116.70 61.11 C 116.41 47.27 114.89 33.49 114.27 19.67 M 123.03 79.00 C 120.03 79.36 117.00 79.42 114.01 79.91 C 105.87 81.23 98.50 85.27 91.59 89.60 C 70.37 103.49 58.19 128.89 58.19 153.98 C 57.85 165.74 60.43 178.39 68.78 187.17 C 78.91 197.82 89.81 208.25 103.17 214.73 C 114.77 220.52 128.33 221.98 140.95 219.08 C 159.73 214.77 177.36 204.49 189.47 189.38 C 198.32 178.30 203.99 164.34 203.79 150.03 C 203.99 136.89 199.03 124.06 191.33 113.55 C 182.77 101.90 172.28 91.19 159.12 84.82 C 148.00 79.36 135.28 77.84 123.03 79.00 Z" />
<path fill="#000000" opacity="1.00" d=" M 109.52 102.66 C 118.06 103.55 126.73 106.88 132.44 113.52 C 138.67 120.75 140.91 130.60 140.75 139.96 C 140.88 149.97 135.26 159.64 126.85 164.94 C 113.45 173.53 94.65 173.73 81.63 164.28 C 71.62 156.91 66.49 144.15 67.11 131.90 C 67.04 122.92 71.96 114.25 79.41 109.33 C 88.13 103.35 99.15 101.67 109.52 102.66 Z" />
</g>
</svg>
