<?xml version="1.0" encoding="UTF-8" ?>
<!DOCTYPE svg PUBLIC "-//W3C//DTD SVG 1.1//EN" "http://www.w3.org/Graphics/SVG/1.1/DTD/svg11.dtd">
<svg width="32pt" height="32pt" viewBox="0 0 32 32" version="1.1" xmlns="http://www.w3.org/2000/svg">
<g id="#d22121ff">
<path fill="#d22121" opacity="1.00" d=" M 0.00 4.11 C 10.66 3.90 21.33 3.99 32.00 4.06 L 32.00 24.86 C 29.38 24.92 26.77 24.99 24.16 25.09 C 24.04 26.68 23.93 28.27 23.80 29.86 C 21.85 28.26 20.13 26.27 17.83 25.18 C 11.90 24.68 5.94 25.18 0.00 24.94 L 0.00 4.11 M 8.06 6.99 C 7.94 12.00 7.94 17.00 8.06 22.00 C 9.35 22.00 10.65 22.00 11.94 22.00 C 12.06 17.00 12.06 12.00 11.94 7.00 C 10.65 7.00 9.35 7.00 8.06 6.99 M 13.99 7.07 C 14.00 8.32 14.00 9.58 14.00 10.83 C 15.32 10.94 16.64 11.05 17.97 11.16 C 18.07 14.77 17.93 18.39 18.05 22.00 C 19.35 22.00 20.65 22.00 21.95 22.00 C 22.07 18.39 21.93 14.77 22.03 11.16 C 23.36 11.05 24.68 10.94 26.01 10.83 C 26.00 9.58 26.00 8.32 26.00 7.07 C 22.00 6.93 18.00 6.93 13.99 7.07 Z" />
</g>
<g id="#ffffffff">
<path fill="#ffffff" opacity="1.00" d=" M 8.06 6.99 C 9.35 7.00 10.65 7.00 11.94 7.00 C 12.06 12.00 12.06 17.00 11.94 22.00 C 10.65 22.00 9.35 22.00 8.06 22.00 C 7.94 17.00 7.94 12.00 8.06 6.99 Z" />
<path fill="#ffffff" opacity="1.00" d=" M 13.99 7.07 C 18.00 6.93 22.00 6.93 26.00 7.07 C 26.00 8.32 26.00 9.58 26.01 10.83 C 24.68 10.94 23.36 11.05 22.03 11.16 C 21.93 14.77 22.07 18.39 21.95 22.00 C 20.65 22.00 19.35 22.00 18.05 22.00 C 17.93 18.39 18.07 14.77 17.97 11.16 C 16.64 11.05 15.32 10.94 14.00 10.83 C 14.00 9.58 14.00 8.32 13.99 7.07 Z" />
</g>
</svg>
