<?xml version="1.0" encoding="UTF-8" ?>
<!DOCTYPE svg PUBLIC "-//W3C//DTD SVG 1.1//EN" "http://www.w3.org/Graphics/SVG/1.1/DTD/svg11.dtd">
<svg width="16pt" height="16pt" viewBox="0 0 16 16" version="1.1" xmlns="http://www.w3.org/2000/svg">
<g id="#008fd1ff">
<path fill="#008fd1" opacity="1.00" d=" M 0.00 0.00 L 16.00 0.00 L 16.00 16.00 L 0.00 16.00 L 0.00 0.00 M 3.38 3.45 C 2.46 5.13 5.26 6.24 6.00 4.59 C 6.88 2.93 4.09 1.82 3.38 3.45 M 7.19 4.89 C 9.40 7.23 7.64 10.42 7.52 13.18 C 8.39 13.17 10.11 13.16 10.98 13.16 C 11.36 10.99 11.73 8.82 12.27 6.69 C 13.41 5.49 14.33 4.12 15.06 2.64 C 12.55 2.55 10.04 2.52 7.52 2.51 C 7.41 3.30 7.30 4.10 7.19 4.89 M 1.55 13.16 C 2.36 13.16 3.98 13.17 4.78 13.17 C 5.18 10.93 5.57 8.68 5.95 6.44 C 5.13 6.44 3.50 6.45 2.69 6.45 C 2.30 8.69 1.92 10.92 1.55 13.16 Z" />
</g>
<g id="#f4fafdff">
<path fill="#f4fafd" opacity="1.00" d=" M 3.38 3.45 C 4.09 1.82 6.88 2.93 6.00 4.59 C 5.26 6.24 2.46 5.13 3.38 3.45 Z" />
</g>
<g id="#ffffffff">
<path fill="#ffffff" opacity="1.00" d=" M 7.19 4.89 C 7.30 4.10 7.41 3.30 7.52 2.51 C 10.04 2.52 12.55 2.55 15.06 2.64 C 14.33 4.12 13.41 5.49 12.27 6.69 C 11.73 8.82 11.36 10.99 10.98 13.16 C 10.11 13.16 8.39 13.17 7.52 13.18 C 7.64 10.42 9.40 7.23 7.19 4.89 Z" />
<path fill="#ffffff" opacity="1.00" d=" M 1.55 13.16 C 1.92 10.92 2.30 8.69 2.69 6.45 C 3.50 6.45 5.13 6.44 5.95 6.44 C 5.57 8.68 5.18 10.93 4.78 13.17 C 3.98 13.17 2.36 13.16 1.55 13.16 Z" />
</g>
</svg>
