<?xml version="1.0" encoding="UTF-8" ?>
<!DOCTYPE svg PUBLIC "-//W3C//DTD SVG 1.1//EN" "http://www.w3.org/Graphics/SVG/1.1/DTD/svg11.dtd">
<svg width="225pt" height="225pt" viewBox="0 0 225 225" version="1.1" xmlns="http://www.w3.org/2000/svg">
<g id="#ffffffff">
<path fill="#ffffff" opacity="1.00" d=" M 0.00 0.00 L 225.00 0.00 L 225.00 225.00 L 0.00 225.00 L 0.00 0.00 M 124.37 15.10 C 119.68 18.84 116.65 24.19 112.40 28.35 C 109.64 30.15 105.80 30.02 102.71 29.36 C 97.76 25.75 93.94 20.61 88.55 17.55 C 85.65 16.79 82.97 18.56 80.24 19.24 C 78.15 20.04 75.55 20.19 74.05 22.03 C 72.16 27.70 71.48 33.69 70.45 39.56 C 68.80 42.64 65.35 44.84 62.03 45.69 C 55.74 44.93 49.50 41.83 43.13 42.66 C 39.14 45.44 36.23 49.69 33.67 53.79 C 35.50 59.29 37.25 64.81 39.53 70.15 C 39.98 73.84 37.65 77.66 35.04 80.14 C 29.52 82.39 23.48 83.34 18.13 86.09 C 16.00 87.72 16.43 90.82 15.71 93.14 C 15.44 95.88 13.46 99.05 15.62 101.47 C 19.07 105.37 23.48 108.24 27.37 111.67 C 30.45 114.15 29.58 118.54 29.72 122.01 C 28.08 126.25 23.88 128.69 21.20 132.22 C 19.55 134.49 16.56 136.68 17.49 139.86 C 18.16 142.62 19.27 145.25 20.19 147.93 C 20.73 149.26 21.28 150.93 22.83 151.38 C 28.23 153.07 33.89 153.74 39.47 154.62 C 42.62 156.66 45.34 160.16 45.72 163.97 C 44.79 169.98 41.97 176.01 42.67 182.14 C 45.62 185.93 49.67 189.05 53.82 191.49 C 58.43 189.87 63.24 188.82 67.64 186.66 C 71.83 184.05 76.96 186.87 79.99 189.97 C 82.66 195.78 82.96 202.86 86.96 208.03 C 91.48 209.02 96.25 210.92 100.88 210.14 C 105.09 206.92 108.16 202.54 111.42 198.44 C 114.05 195.02 119.02 194.95 122.87 195.77 C 128.33 199.25 131.96 205.30 138.04 207.94 C 141.17 208.09 144.05 206.14 147.08 205.44 C 148.69 204.89 150.70 204.40 151.36 202.59 C 153.31 197.09 153.76 191.22 154.76 185.52 C 156.82 182.36 160.45 180.33 164.02 179.37 C 169.95 180.69 175.83 182.76 181.97 182.69 C 183.89 181.89 185.05 180.00 186.49 178.59 C 188.15 176.54 190.50 174.80 191.13 172.11 C 190.52 165.75 187.09 160.12 185.55 154.03 C 186.28 150.78 187.61 147.20 190.23 145.00 C 194.05 143.41 198.30 143.07 202.09 141.32 C 204.64 140.20 208.56 139.61 208.79 136.15 C 209.29 132.42 210.81 128.70 210.37 124.93 C 207.33 119.32 201.00 116.69 196.85 112.09 C 194.99 108.63 194.17 103.33 197.39 100.39 C 200.90 96.88 204.43 93.33 207.24 89.22 C 209.29 86.24 206.69 82.96 205.95 79.99 C 204.96 77.77 204.93 74.51 202.21 73.64 C 196.84 71.93 191.19 71.36 185.67 70.37 C 182.51 68.36 179.96 64.77 179.43 61.07 C 181.00 55.52 182.59 49.88 182.69 44.07 C 182.64 41.74 180.46 40.49 178.99 39.02 C 176.78 37.20 174.94 34.62 172.03 33.91 C 166.07 34.98 160.52 37.56 154.89 39.66 C 150.42 39.38 144.80 36.80 143.91 31.90 C 142.72 27.34 141.33 22.80 139.43 18.48 C 137.94 15.91 134.50 16.37 132.04 15.57 C 129.54 15.27 126.78 13.80 124.37 15.10 Z" />
</g>
<g id="#00b6b9ff">
<path fill="#00b6b9" opacity="1.00" d=" M 124.37 15.10 C 126.78 13.80 129.54 15.27 132.04 15.57 C 134.50 16.37 137.94 15.91 139.43 18.48 C 141.33 22.80 142.72 27.34 143.91 31.90 C 144.80 36.80 150.42 39.38 154.89 39.66 C 160.52 37.56 166.07 34.98 172.03 33.91 C 174.94 34.62 176.78 37.20 178.99 39.02 C 180.46 40.49 182.64 41.74 182.69 44.07 C 182.59 49.88 181.00 55.52 179.43 61.07 C 179.96 64.77 182.51 68.36 185.67 70.37 C 191.19 71.36 196.84 71.93 202.21 73.64 C 204.93 74.51 204.96 77.77 205.95 79.99 C 206.69 82.96 209.29 86.24 207.24 89.22 C 204.43 93.33 200.90 96.88 197.39 100.39 C 194.17 103.33 194.99 108.63 196.85 112.09 C 201.00 116.69 207.33 119.32 210.37 124.93 C 210.81 128.70 209.29 132.42 208.79 136.15 C 208.56 139.61 204.64 140.20 202.09 141.32 C 198.30 143.07 194.05 143.41 190.23 145.00 C 187.61 147.20 186.28 150.78 185.55 154.03 C 187.09 160.12 190.52 165.75 191.13 172.11 C 190.50 174.80 188.15 176.54 186.49 178.59 C 185.05 180.00 183.89 181.89 181.97 182.69 C 175.83 182.76 169.95 180.69 164.02 179.37 C 160.45 180.33 156.82 182.36 154.76 185.52 C 153.76 191.22 153.31 197.09 151.36 202.59 C 150.70 204.40 148.69 204.89 147.08 205.44 C 144.05 206.14 141.17 208.09 138.04 207.94 C 131.96 205.30 128.33 199.25 122.87 195.77 C 119.02 194.95 114.05 195.02 111.42 198.44 C 108.16 202.54 105.09 206.92 100.88 210.14 C 96.25 210.92 91.48 209.02 86.96 208.03 C 82.96 202.86 82.66 195.78 79.99 189.97 C 76.96 186.87 71.83 184.05 67.64 186.66 C 63.24 188.82 58.43 189.87 53.82 191.49 C 49.67 189.05 45.62 185.93 42.67 182.14 C 41.97 176.01 44.79 169.98 45.72 163.97 C 45.34 160.16 42.62 156.66 39.47 154.62 C 33.89 153.74 28.23 153.07 22.83 151.38 C 21.28 150.93 20.73 149.26 20.19 147.93 C 19.27 145.25 18.16 142.62 17.49 139.86 C 16.56 136.68 19.55 134.49 21.20 132.22 C 23.88 128.69 28.08 126.25 29.72 122.01 C 29.58 118.54 30.45 114.15 27.37 111.67 C 23.48 108.24 19.07 105.37 15.62 101.47 C 13.46 99.05 15.44 95.88 15.71 93.14 C 16.43 90.82 16.00 87.72 18.13 86.09 C 23.48 83.34 29.52 82.39 35.04 80.14 C 37.65 77.66 39.98 73.84 39.53 70.15 C 37.25 64.81 35.50 59.29 33.67 53.79 C 36.23 49.69 39.14 45.44 43.13 42.66 C 49.50 41.83 55.74 44.93 62.03 45.69 C 65.35 44.84 68.80 42.64 70.45 39.56 C 71.48 33.69 72.16 27.70 74.05 22.03 C 75.55 20.19 78.15 20.04 80.24 19.24 C 82.97 18.56 85.65 16.79 88.55 17.55 C 93.94 20.61 97.76 25.75 102.71 29.36 C 105.80 30.02 109.64 30.15 112.40 28.35 C 116.65 24.19 119.68 18.84 124.37 15.10 M 102.12 47.22 C 82.78 50.23 65.11 62.40 55.38 79.38 C 46.82 93.87 44.24 111.70 48.14 128.04 C 51.74 143.29 60.95 157.14 73.65 166.32 C 83.05 173.20 94.30 177.57 105.90 178.74 C 124.74 180.81 144.36 174.22 158.05 161.10 C 178.12 142.95 184.80 111.89 173.91 87.11 C 166.68 69.46 151.34 55.42 133.20 49.60 C 123.24 46.26 112.48 45.63 102.12 47.22 Z" />
</g>
<g id="#171e43ff">
<path fill="#171e43" opacity="1.00" d=" M 102.12 47.22 C 112.48 45.63 123.24 46.26 133.20 49.60 C 151.34 55.42 166.68 69.46 173.91 87.11 C 184.80 111.89 178.12 142.95 158.05 161.10 C 144.36 174.22 124.74 180.81 105.90 178.74 C 94.30 177.57 83.05 173.20 73.65 166.32 C 60.95 157.14 51.74 143.29 48.14 128.04 C 44.24 111.70 46.82 93.87 55.38 79.38 C 65.11 62.40 82.78 50.23 102.12 47.22 M 105.18 50.33 C 89.30 52.44 74.32 60.83 64.31 73.36 C 55.90 83.67 50.94 96.70 50.33 109.98 C 49.61 124.79 54.26 139.82 63.33 151.57 C 73.47 165.01 89.26 173.97 105.97 175.92 C 120.12 177.74 134.82 174.43 146.92 166.92 C 170.84 152.62 182.80 121.37 174.19 94.80 C 169.68 79.65 159.25 66.40 145.58 58.46 C 133.53 51.29 119.06 48.54 105.18 50.33 Z" />
</g>
<g id="#b1d430ff">
<path fill="#b1d430" opacity="1.00" d=" M 105.18 50.33 C 119.06 48.54 133.53 51.29 145.58 58.46 C 159.25 66.40 169.68 79.65 174.19 94.80 C 182.80 121.37 170.84 152.62 146.92 166.92 C 134.82 174.43 120.12 177.74 105.97 175.92 C 89.26 173.97 73.47 165.01 63.33 151.57 C 54.26 139.82 49.61 124.79 50.33 109.98 C 50.94 96.70 55.90 83.67 64.31 73.36 C 74.32 60.83 89.30 52.44 105.18 50.33 M 86.65 72.91 C 77.73 71.27 67.81 75.52 63.72 83.78 C 59.82 91.08 61.13 100.70 66.68 106.79 C 66.60 108.30 66.53 109.80 66.47 111.30 C 63.56 112.26 59.43 114.22 60.05 117.90 C 61.04 121.22 64.78 120.97 67.54 121.09 C 70.01 129.33 74.12 137.11 80.33 143.16 C 77.64 147.04 78.13 153.05 82.09 155.91 C 86.33 159.55 93.24 157.87 96.10 153.28 C 100.22 156.09 104.92 158.17 109.92 158.66 C 116.99 159.53 124.05 156.96 129.73 152.87 C 132.28 157.99 139.50 159.46 143.87 155.84 C 148.08 152.96 148.07 146.67 145.33 142.77 C 151.25 136.69 155.50 129.13 157.65 120.93 C 160.81 121.10 165.69 120.11 165.43 115.98 C 164.57 113.07 161.48 112.00 158.79 111.55 C 158.72 109.95 158.65 108.36 158.59 106.76 C 163.90 101.21 165.61 92.58 162.70 85.45 C 159.24 75.98 148.30 70.53 138.58 72.77 C 123.37 62.33 101.76 62.24 86.65 72.91 Z" />
<path fill="#b1d430" opacity="1.00" d=" M 67.02 84.15 C 69.69 84.12 72.36 84.09 75.04 84.05 C 74.36 85.07 73.69 86.08 73.02 87.10 C 70.52 87.13 68.03 87.14 65.53 87.16 C 66.03 86.16 66.52 85.15 67.02 84.15 Z" />
<path fill="#b1d430" opacity="1.00" d=" M 150.16 84.09 C 153.08 84.09 156.00 84.09 158.93 84.15 C 159.29 85.14 159.66 86.12 160.02 87.11 C 157.45 87.14 154.88 87.15 152.32 87.12 C 151.60 86.11 150.88 85.10 150.16 84.09 Z" />
</g>
<g id="#181818ff">
<path fill="#181818" opacity="1.00" d=" M 86.65 72.91 C 101.76 62.24 123.37 62.33 138.58 72.77 C 129.80 74.85 123.04 82.79 122.46 91.81 C 119.80 89.35 116.93 86.45 113.05 86.43 C 108.98 86.14 105.90 89.19 103.22 91.81 C 102.22 82.79 95.47 75.05 86.65 72.91 Z" />
<path fill="#181818" opacity="1.00" d=" M 106.66 92.65 C 108.71 90.53 111.87 88.66 114.87 89.90 C 119.74 91.99 122.45 96.94 124.59 101.52 C 127.93 108.90 135.96 113.75 144.04 113.40 C 149.57 113.35 154.82 110.74 158.59 106.76 C 158.65 108.36 158.72 109.95 158.79 111.55 C 161.48 112.00 164.57 113.07 165.43 115.98 C 165.69 120.11 160.81 121.10 157.65 120.93 C 155.50 129.13 151.25 136.69 145.33 142.77 C 143.43 141.11 141.12 140.04 138.71 139.36 C 140.97 131.27 139.69 122.20 134.73 115.35 C 130.55 109.24 123.74 105.32 116.53 104.00 C 117.19 101.03 114.71 97.61 111.51 98.45 C 109.14 99.28 109.00 101.94 108.62 104.02 C 100.14 105.41 92.50 110.91 88.59 118.57 C 85.17 124.94 84.67 132.55 86.60 139.46 C 84.29 140.27 82.11 141.46 80.33 143.16 C 74.12 137.11 70.01 129.33 67.54 121.09 C 64.78 120.97 61.04 121.22 60.05 117.90 C 59.43 114.22 63.56 112.26 66.47 111.30 C 66.53 109.80 66.60 108.30 66.68 106.79 C 70.18 110.51 74.89 113.20 80.05 113.57 C 88.27 114.54 96.85 110.04 100.57 102.62 C 102.28 99.12 103.81 95.41 106.66 92.65 Z" />
</g>
<g id="#00a0e5ff">
<path fill="#00a0e5" opacity="1.00" d=" M 63.72 83.78 C 67.81 75.52 77.73 71.27 86.65 72.91 C 95.47 75.05 102.22 82.79 103.22 91.81 C 105.90 89.19 108.98 86.14 113.05 86.43 C 116.93 86.45 119.80 89.35 122.46 91.81 C 123.04 82.79 129.80 74.85 138.58 72.77 C 148.30 70.53 159.24 75.98 162.70 85.45 C 165.61 92.58 163.90 101.21 158.59 106.76 C 154.82 110.74 149.57 113.35 144.04 113.40 C 135.96 113.75 127.93 108.90 124.59 101.52 C 122.45 96.94 119.74 91.99 114.87 89.90 C 111.87 88.66 108.71 90.53 106.66 92.65 C 103.81 95.41 102.28 99.12 100.57 102.62 C 96.85 110.04 88.27 114.54 80.05 113.57 C 74.89 113.20 70.18 110.51 66.68 106.79 C 61.13 100.70 59.82 91.08 63.72 83.78 M 140.26 75.47 L 140.41 75.52 C 138.77 75.27 137.34 76.68 135.83 77.21 C 138.71 77.29 141.59 77.25 144.46 77.01 C 146.40 77.67 148.54 77.45 150.42 76.71 C 147.16 75.66 143.69 75.01 140.26 75.47 M 75.71 77.35 C 77.13 77.43 78.54 77.38 79.95 77.19 C 83.00 77.27 86.04 77.29 89.09 77.21 C 87.19 76.40 85.08 75.45 82.99 75.97 C 80.55 75.77 77.64 75.51 75.71 77.35 M 71.33 79.43 C 70.44 80.23 69.56 81.03 68.68 81.85 C 71.31 81.83 73.93 81.82 76.55 81.87 C 82.97 81.95 89.39 81.94 95.80 81.95 C 94.71 80.96 93.78 79.28 92.04 79.56 C 87.67 79.44 83.29 79.62 78.92 79.52 C 76.39 79.49 73.86 79.47 71.33 79.43 M 146.65 79.54 C 142.13 79.61 137.60 79.43 133.08 79.57 C 131.42 79.34 130.58 81.05 129.51 81.95 C 135.85 81.93 142.19 81.97 148.53 81.88 C 151.43 81.81 154.33 81.84 157.23 81.78 C 154.70 78.34 150.30 79.64 146.65 79.54 M 67.02 84.15 C 66.52 85.15 66.03 86.16 65.53 87.16 C 68.03 87.14 70.52 87.13 73.02 87.10 C 81.63 86.88 90.28 87.49 98.88 86.77 C 98.55 86.12 97.91 84.83 97.58 84.18 C 90.07 83.96 82.55 84.17 75.04 84.05 C 72.36 84.09 69.69 84.12 67.02 84.15 M 128.02 84.05 C 127.52 85.06 127.02 86.06 126.52 87.07 C 135.12 87.12 143.72 87.03 152.32 87.12 C 154.88 87.15 157.45 87.14 160.02 87.11 C 159.66 86.12 159.29 85.14 158.93 84.15 C 156.00 84.09 153.08 84.09 150.16 84.09 C 142.78 84.06 135.40 84.11 128.02 84.05 M 65.14 89.20 C 64.89 90.07 64.64 90.94 64.39 91.82 C 66.41 91.93 68.43 91.89 70.45 91.97 C 80.26 91.93 90.07 91.99 99.88 91.93 C 99.81 91.26 99.66 89.93 99.59 89.27 C 90.39 89.28 81.20 89.28 72.00 89.27 C 69.71 89.24 67.43 89.22 65.14 89.20 M 125.99 89.26 C 125.93 89.94 125.82 91.32 125.76 92.01 C 135.21 91.75 144.74 92.32 154.15 91.71 L 154.14 91.07 L 154.56 91.50 C 156.55 92.32 158.83 91.79 160.94 91.91 C 160.88 91.25 160.76 89.93 160.71 89.27 C 158.35 89.26 156.00 89.25 153.65 89.27 C 144.43 89.27 135.21 89.29 125.99 89.26 M 64.20 94.28 C 64.28 96.86 66.20 97.36 68.45 97.20 C 78.84 96.83 89.25 97.38 99.64 96.91 C 99.70 96.21 99.83 94.81 99.89 94.11 C 89.78 94.05 79.67 94.09 69.56 94.09 C 67.77 94.13 65.99 94.19 64.20 94.28 M 125.77 94.06 C 125.82 94.79 125.90 96.24 125.94 96.97 C 136.20 97.26 146.46 96.96 156.71 97.13 C 158.01 97.08 159.31 97.01 160.62 96.94 C 160.69 96.24 160.85 94.86 160.92 94.16 C 159.19 94.17 157.45 94.17 155.72 94.17 C 145.74 93.97 135.75 94.15 125.77 94.06 M 67.76 101.93 C 76.84 101.83 85.91 101.91 94.99 101.90 C 96.93 102.30 98.33 101.10 99.17 99.46 C 88.73 99.05 78.28 99.40 67.83 99.26 C 65.22 97.15 65.00 103.23 67.76 101.93 M 126.88 99.25 C 127.30 100.12 127.72 101.00 128.14 101.87 C 137.94 101.95 147.73 101.78 157.53 101.96 L 158.04 102.28 C 159.45 102.09 160.37 99.98 159.41 98.86 C 158.90 98.98 157.89 99.23 157.39 99.35 C 147.22 99.17 137.05 99.35 126.88 99.25 M 68.36 104.26 C 69.42 105.13 70.47 106.36 72.02 106.15 C 79.35 106.33 86.68 105.94 94.01 106.34 C 94.44 105.80 95.29 104.71 95.72 104.16 C 86.60 104.31 77.48 104.14 68.36 104.26 M 129.92 104.18 C 130.57 104.85 131.24 105.51 131.90 106.18 C 138.96 106.14 146.02 106.22 153.08 106.17 C 154.66 106.47 155.72 105.20 156.76 104.29 C 147.82 104.11 138.87 104.30 129.92 104.18 M 73.81 108.49 C 78.93 111.12 85.33 111.38 90.41 108.49 C 84.88 108.45 79.34 108.44 73.81 108.49 M 135.69 108.52 C 140.57 111.01 146.34 110.69 151.27 108.53 C 146.08 108.40 140.88 108.43 135.69 108.52 Z" />
</g>
<g id="#b8d522ff">
<path fill="#b8d522" opacity="1.00" d=" M 140.26 75.47 C 143.69 75.01 147.16 75.66 150.42 76.71 C 148.54 77.45 146.40 77.67 144.46 77.01 C 143.11 76.52 141.77 76.00 140.41 75.52 L 140.26 75.47 Z" />
<path fill="#b8d522" opacity="1.00" d=" M 75.71 77.35 C 77.64 75.51 80.55 75.77 82.99 75.97 C 81.99 76.40 80.97 76.81 79.95 77.19 C 78.54 77.38 77.13 77.43 75.71 77.35 Z" />
<path fill="#b8d522" opacity="1.00" d=" M 71.33 79.43 C 73.86 79.47 76.39 79.49 78.92 79.52 C 78.13 80.30 77.34 81.09 76.55 81.87 C 73.93 81.82 71.31 81.83 68.68 81.85 C 69.56 81.03 70.44 80.23 71.33 79.43 Z" />
<path fill="#b8d522" opacity="1.00" d=" M 146.65 79.54 C 150.30 79.64 154.70 78.34 157.23 81.78 C 154.33 81.84 151.43 81.81 148.53 81.88 C 148.06 81.29 147.12 80.12 146.65 79.54 Z" />
<path fill="#b8d522" opacity="1.00" d=" M 153.65 89.27 C 156.00 89.25 158.35 89.26 160.71 89.27 C 160.76 89.93 160.88 91.25 160.94 91.91 C 158.83 91.79 156.55 92.32 154.56 91.50 L 154.14 91.07 C 154.02 90.62 153.78 89.72 153.65 89.27 Z" />
<path fill="#b8d522" opacity="1.00" d=" M 155.72 94.17 C 157.45 94.17 159.19 94.17 160.92 94.16 C 160.85 94.86 160.69 96.24 160.62 96.94 C 159.31 97.01 158.01 97.08 156.71 97.13 C 156.46 96.39 155.97 94.91 155.72 94.17 Z" />
</g>
<g id="#170000ff">
<path fill="#170000" opacity="1.00" d=" M 82.99 75.97 C 85.08 75.45 87.19 76.40 89.09 77.21 C 86.04 77.29 83.00 77.27 79.95 77.19 C 80.97 76.81 81.99 76.40 82.99 75.97 Z" />
<path fill="#170000" opacity="1.00" d=" M 135.83 77.21 C 137.34 76.68 138.77 75.27 140.41 75.52 C 141.77 76.00 143.11 76.52 144.46 77.01 C 141.59 77.25 138.71 77.29 135.83 77.21 Z" />
<path fill="#170000" opacity="1.00" d=" M 68.36 104.26 C 77.48 104.14 86.60 104.31 95.72 104.16 C 95.29 104.71 94.44 105.80 94.01 106.34 C 86.68 105.94 79.35 106.33 72.02 106.15 C 70.47 106.36 69.42 105.13 68.36 104.26 Z" />
<path fill="#170000" opacity="1.00" d=" M 129.92 104.18 C 138.87 104.30 147.82 104.11 156.76 104.29 C 155.72 105.20 154.66 106.47 153.08 106.17 C 146.02 106.22 138.96 106.14 131.90 106.18 C 131.24 105.51 130.57 104.85 129.92 104.18 Z" />
<path fill="#170000" opacity="1.00" d=" M 73.81 108.49 C 79.34 108.44 84.88 108.45 90.41 108.49 C 85.33 111.38 78.93 111.12 73.81 108.49 Z" />
<path fill="#170000" opacity="1.00" d=" M 135.69 108.52 C 140.88 108.43 146.08 108.40 151.27 108.53 C 146.34 110.69 140.57 111.01 135.69 108.52 Z" />
</g>
<g id="#141210ff">
<path fill="#141210" opacity="1.00" d=" M 76.55 81.87 C 77.34 81.09 78.13 80.30 78.92 79.52 C 83.29 79.62 87.67 79.44 92.04 79.56 C 93.78 79.28 94.71 80.96 95.80 81.95 C 89.39 81.94 82.97 81.95 76.55 81.87 Z" />
</g>
<g id="#141112ff">
<path fill="#141112" opacity="1.00" d=" M 129.51 81.95 C 130.58 81.05 131.42 79.34 133.08 79.57 C 137.60 79.43 142.13 79.61 146.65 79.54 C 147.12 80.12 148.06 81.29 148.53 81.88 C 142.19 81.97 135.85 81.93 129.51 81.95 Z" />
</g>
<g id="#191514ff">
<path fill="#191514" opacity="1.00" d=" M 75.04 84.05 C 82.55 84.17 90.07 83.96 97.58 84.18 C 97.91 84.83 98.55 86.12 98.88 86.77 C 90.28 87.49 81.63 86.88 73.02 87.10 C 73.69 86.08 74.36 85.07 75.04 84.05 Z" />
<path fill="#191514" opacity="1.00" d=" M 69.56 94.09 C 79.67 94.09 89.78 94.05 99.89 94.11 C 99.83 94.81 99.70 96.21 99.64 96.91 C 89.25 97.38 78.84 96.83 68.45 97.20 C 68.72 96.42 69.28 94.87 69.56 94.09 Z" />
<path fill="#191514" opacity="1.00" d=" M 125.77 94.06 C 135.75 94.15 145.74 93.97 155.72 94.17 C 155.97 94.91 156.46 96.39 156.71 97.13 C 146.46 96.96 136.20 97.26 125.94 96.97 C 125.90 96.24 125.82 94.79 125.77 94.06 Z" />
</g>
<g id="#181814ff">
<path fill="#181814" opacity="1.00" d=" M 128.02 84.05 C 135.40 84.11 142.78 84.06 150.16 84.09 C 150.88 85.10 151.60 86.11 152.32 87.12 C 143.72 87.03 135.12 87.12 126.52 87.07 C 127.02 86.06 127.52 85.06 128.02 84.05 Z" />
</g>
<g id="#b8d530ff">
<path fill="#b8d530" opacity="1.00" d=" M 65.14 89.20 C 67.43 89.22 69.71 89.24 72.00 89.27 C 71.48 90.17 70.97 91.07 70.45 91.97 C 68.43 91.89 66.41 91.93 64.39 91.82 C 64.64 90.94 64.89 90.07 65.14 89.20 Z" />
<path fill="#b8d530" opacity="1.00" d=" M 157.39 99.35 C 157.89 99.23 158.90 98.98 159.41 98.86 C 160.37 99.98 159.45 102.09 158.04 102.28 L 157.53 101.96 C 157.49 101.31 157.42 100.00 157.39 99.35 Z" />
</g>
<g id="#19120bff">
<path fill="#19120b" opacity="1.00" d=" M 72.00 89.27 C 81.20 89.28 90.39 89.28 99.59 89.27 C 99.66 89.93 99.81 91.26 99.88 91.93 C 90.07 91.99 80.26 91.93 70.45 91.97 C 70.97 91.07 71.48 90.17 72.00 89.27 Z" />
<path fill="#19120b" opacity="1.00" d=" M 125.99 89.26 C 135.21 89.29 144.43 89.27 153.65 89.27 C 153.78 89.72 154.02 90.62 154.14 91.07 L 154.15 91.71 C 144.74 92.32 135.21 91.75 125.76 92.01 C 125.82 91.32 125.93 89.94 125.99 89.26 Z" />
<path fill="#19120b" opacity="1.00" d=" M 67.83 99.26 C 78.28 99.40 88.73 99.05 99.17 99.46 C 98.33 101.10 96.93 102.30 94.99 101.90 C 85.91 101.91 76.84 101.83 67.76 101.93 C 67.78 101.26 67.81 99.93 67.83 99.26 Z" />
<path fill="#19120b" opacity="1.00" d=" M 126.88 99.25 C 137.05 99.35 147.22 99.17 157.39 99.35 C 157.42 100.00 157.49 101.31 157.53 101.96 C 147.73 101.78 137.94 101.95 128.14 101.87 C 127.72 101.00 127.30 100.12 126.88 99.25 Z" />
</g>
<g id="#b1d530ff">
<path fill="#b1d530" opacity="1.00" d=" M 64.20 94.28 C 65.99 94.19 67.77 94.13 69.56 94.09 C 69.28 94.87 68.72 96.42 68.45 97.20 C 66.20 97.36 64.28 96.86 64.20 94.28 Z" />
</g>
<g id="#e59218ff">
<path fill="#e59218" opacity="1.00" d=" M 111.51 98.45 C 114.71 97.61 117.19 101.03 116.53 104.00 C 115.39 104.78 114.24 105.57 112.97 106.13 C 111.35 105.86 110.03 104.78 108.62 104.02 C 109.00 101.94 109.14 99.28 111.51 98.45 Z" />
<path fill="#e59218" opacity="1.00" d=" M 80.33 143.16 C 82.11 141.46 84.29 140.27 86.60 139.46 C 90.14 139.75 94.06 140.90 95.82 144.29 C 97.67 146.99 97.11 150.38 96.10 153.28 C 93.24 157.87 86.33 159.55 82.09 155.91 C 78.13 153.05 77.64 147.04 80.33 143.16 Z" />
<path fill="#e59218" opacity="1.00" d=" M 130.10 144.20 C 131.76 141.02 135.41 139.87 138.71 139.36 C 141.12 140.04 143.43 141.11 145.33 142.77 C 148.07 146.67 148.08 152.96 143.87 155.84 C 139.50 159.46 132.28 157.99 129.73 152.87 C 128.84 150.06 128.45 146.82 130.10 144.20 Z" />
</g>
<g id="#79ad5aff">
<path fill="#79ad5a" opacity="1.00" d=" M 67.76 101.93 C 65.00 103.23 65.22 97.15 67.83 99.26 C 67.81 99.93 67.78 101.26 67.76 101.93 Z" />
</g>
<g id="#d4d4d4ff">
<path fill="#d4d4d4" opacity="1.00" d=" M 88.59 118.57 C 92.50 110.91 100.14 105.41 108.62 104.02 C 110.03 104.78 111.35 105.86 112.97 106.13 C 114.24 105.57 115.39 104.78 116.53 104.00 C 123.74 105.32 130.55 109.24 134.73 115.35 C 139.69 122.20 140.97 131.27 138.71 139.36 C 135.41 139.87 131.76 141.02 130.10 144.20 C 128.45 146.82 128.84 150.06 129.73 152.87 C 124.05 156.96 116.99 159.53 109.92 158.66 C 104.92 158.17 100.22 156.09 96.10 153.28 C 97.11 150.38 97.67 146.99 95.82 144.29 C 94.06 140.90 90.14 139.75 86.60 139.46 C 84.67 132.55 85.17 124.94 88.59 118.57 Z" />
</g>
</svg>
