<?xml version="1.0" encoding="UTF-8" ?>
<!DOCTYPE svg PUBLIC "-//W3C//DTD SVG 1.1//EN" "http://www.w3.org/Graphics/SVG/1.1/DTD/svg11.dtd">
<svg width="32pt" height="32pt" viewBox="0 0 32 32" version="1.1" xmlns="http://www.w3.org/2000/svg">
<g id="#3b5998ff">
<path fill="#3b5998" opacity="1.00" d=" M 0.00 0.00 L 32.00 0.00 L 32.00 32.00 L 0.00 32.00 L 0.00 0.00 M 10.20 16.02 C 10.20 18.65 10.20 21.27 10.16 23.90 C 11.94 25.89 13.80 27.78 15.68 29.67 C 15.68 27.01 15.69 24.35 15.69 21.70 C 13.88 19.79 12.04 17.89 10.20 16.02 M 21.73 16.02 C 19.88 17.90 18.05 19.80 16.24 21.72 C 16.25 24.37 16.26 27.02 16.26 29.67 C 18.13 27.78 20.00 25.89 21.78 23.90 C 21.74 21.27 21.74 18.64 21.73 16.02 M 2.01 24.47 C 3.82 26.33 5.63 28.19 7.41 30.07 C 10.02 30.12 12.63 30.15 15.25 30.11 C 13.44 28.24 11.64 26.37 9.85 24.48 C 7.24 24.45 4.62 24.44 2.01 24.47 M 22.09 24.48 C 20.31 26.37 18.50 28.24 16.69 30.11 C 19.29 30.13 21.89 30.12 24.49 30.09 C 26.29 28.21 28.11 26.34 29.92 24.47 C 27.31 24.44 24.70 24.45 22.09 24.48 Z" />
</g>
<g id="#ffcc00ff">
<path fill="#ffcc00" opacity="1.00" d=" M 10.20 16.02 C 12.04 17.89 13.88 19.79 15.69 21.70 C 15.69 24.35 15.68 27.01 15.68 29.67 C 13.80 27.78 11.94 25.89 10.16 23.90 C 10.20 21.27 10.20 18.65 10.20 16.02 Z" />
<path fill="#ffcc00" opacity="1.00" d=" M 21.73 16.02 C 21.74 18.64 21.74 21.27 21.78 23.90 C 20.00 25.89 18.13 27.78 16.26 29.67 C 16.26 27.02 16.25 24.37 16.24 21.72 C 18.05 19.80 19.88 17.90 21.73 16.02 Z" />
<path fill="#ffcc00" opacity="1.00" d=" M 2.01 24.47 C 4.62 24.44 7.24 24.45 9.85 24.48 C 11.64 26.37 13.44 28.24 15.25 30.11 C 12.63 30.15 10.02 30.12 7.41 30.07 C 5.63 28.19 3.82 26.33 2.01 24.47 Z" />
<path fill="#ffcc00" opacity="1.00" d=" M 22.09 24.48 C 24.70 24.45 27.31 24.44 29.92 24.47 C 28.11 26.34 26.29 28.21 24.49 30.09 C 21.89 30.12 19.29 30.13 16.69 30.11 C 18.50 28.24 20.31 26.37 22.09 24.48 Z" />
</g>
</svg>
