<?xml version="1.0" encoding="UTF-8" ?>
<!DOCTYPE svg PUBLIC "-//W3C//DTD SVG 1.1//EN" "http://www.w3.org/Graphics/SVG/1.1/DTD/svg11.dtd">
<svg width="32pt" height="32pt" viewBox="0 0 32 32" version="1.1" xmlns="http://www.w3.org/2000/svg">
<g id="#030302ff">
<path fill="#030302" opacity="1.00" d=" M 11.33 2.48 C 19.49 -0.63 29.32 5.32 30.44 13.94 C 31.92 21.71 25.96 29.86 18.09 30.70 C 11.04 31.86 3.68 27.02 2.00 20.07 C -0.12 12.93 4.28 4.77 11.33 2.48 M 11.92 7.46 C 15.79 7.16 20.33 6.68 23.46 9.49 C 25.63 11.55 26.59 15.91 23.75 17.82 C 20.50 19.94 16.40 19.64 12.88 21.02 C 10.89 22.11 10.84 24.57 10.19 26.48 C 10.36 19.61 10.04 12.71 10.56 5.85 C 10.02 5.45 9.47 5.07 8.91 4.70 C 4.98 8.38 1.73 13.63 3.31 19.23 C 4.85 27.53 15.25 32.04 22.45 27.75 C 29.79 24.02 31.46 13.03 25.57 7.29 C 21.84 3.04 15.70 2.59 10.53 3.87 C 11.36 4.90 12.06 6.05 11.92 7.46 M 16.94 8.27 C 15.52 9.21 17.17 11.42 18.46 10.31 C 19.86 9.39 18.22 7.19 16.94 8.27 M 11.78 8.57 C 11.70 12.26 11.70 15.94 11.78 19.62 C 13.63 18.21 16.22 16.76 15.96 14.02 C 16.36 11.28 14.02 9.48 11.78 8.57 M 19.91 9.72 C 19.75 12.16 20.60 14.62 20.49 17.10 L 18.81 15.87 C 18.23 17.18 18.58 18.14 19.85 18.74 C 20.59 17.32 21.41 15.93 22.52 14.77 C 20.94 13.31 22.75 9.78 19.91 9.72 Z" />
</g>
<g id="#f3e849ff">
<path fill="#f3e849" opacity="1.00" d=" M 11.92 7.46 C 12.06 6.05 11.36 4.90 10.53 3.87 C 15.70 2.59 21.84 3.04 25.57 7.29 C 31.46 13.03 29.79 24.02 22.45 27.75 C 15.25 32.04 4.85 27.53 3.31 19.23 C 1.73 13.63 4.98 8.38 8.91 4.70 C 9.47 5.07 10.02 5.45 10.56 5.85 C 10.04 12.71 10.36 19.61 10.19 26.48 C 10.84 24.57 10.89 22.11 12.88 21.02 C 16.40 19.64 20.50 19.94 23.75 17.82 C 26.59 15.91 25.63 11.55 23.46 9.49 C 20.33 6.68 15.79 7.16 11.92 7.46 Z" />
</g>
<g id="#fbfbfbff">
<path fill="#fbfbfb" opacity="1.00" d=" M 16.94 8.27 C 18.22 7.19 19.86 9.39 18.46 10.31 C 17.17 11.42 15.52 9.21 16.94 8.27 Z" />
<path fill="#fbfbfb" opacity="1.00" d=" M 11.78 8.57 C 14.02 9.48 16.36 11.28 15.96 14.02 C 16.22 16.76 13.63 18.21 11.78 19.62 C 11.70 15.94 11.70 12.26 11.78 8.57 Z" />
<path fill="#fbfbfb" opacity="1.00" d=" M 19.91 9.72 C 22.75 9.78 20.94 13.31 22.52 14.77 C 21.41 15.93 20.59 17.32 19.85 18.74 C 18.58 18.14 18.23 17.18 18.81 15.87 L 20.49 17.10 C 20.60 14.62 19.75 12.16 19.91 9.72 Z" />
</g>
</svg>
