<?xml version="1.0" encoding="UTF-8" ?>
<!DOCTYPE svg PUBLIC "-//W3C//DTD SVG 1.1//EN" "http://www.w3.org/Graphics/SVG/1.1/DTD/svg11.dtd">
<svg width="48pt" height="48pt" viewBox="0 0 48 48" version="1.1" xmlns="http://www.w3.org/2000/svg">
<g id="#d9000bff">
<path fill="#d9000b" opacity="1.00" d=" M 21.52 0.00 L 26.42 0.00 C 31.49 0.94 36.53 2.87 40.15 6.68 C 40.03 7.18 39.78 8.19 39.66 8.69 C 40.64 10.39 42.22 12.06 41.52 14.20 C 41.35 17.86 37.79 20.34 34.29 19.20 C 34.53 18.70 35.00 17.72 35.24 17.23 C 36.62 13.58 36.23 9.29 33.84 6.14 C 30.84 1.92 25.04 0.27 20.16 1.82 L 19.99 0.52 C 20.37 0.39 21.13 0.13 21.52 0.00 Z" />
</g>
<g id="#e9000dff">
<path fill="#e9000d" opacity="1.00" d=" M 4.59 10.90 C 8.11 5.62 13.62 1.50 19.99 0.52 L 20.16 1.82 C 14.46 3.80 10.93 10.15 12.49 16.04 C 11.10 16.40 9.69 17.18 8.21 16.89 C 7.13 16.08 6.28 15.00 5.42 13.97 C 5.17 12.94 4.89 11.92 4.59 10.90 Z" />
</g>
<g id="#f7f6f6ff">
<path fill="#f7f6f6" opacity="1.00" d=" M 12.49 16.04 C 10.93 10.15 14.46 3.80 20.16 1.82 C 25.04 0.27 30.84 1.92 33.84 6.14 C 36.23 9.29 36.62 13.58 35.24 17.23 C 34.54 16.45 33.79 15.72 33.00 15.05 C 29.27 15.97 25.40 16.20 21.63 15.38 C 18.70 14.95 15.26 14.81 12.91 16.92 C 12.80 16.70 12.59 16.26 12.49 16.04 Z" />
</g>
<g id="#b40005ff">
<path fill="#b40005" opacity="1.00" d=" M 40.15 6.68 C 41.47 7.91 42.60 9.33 43.65 10.80 C 41.61 17.12 42.85 24.90 47.72 29.64 C 47.26 32.58 45.40 35.05 43.10 36.85 C 43.22 33.83 41.94 30.42 39.70 28.42 C 33.55 27.08 27.38 25.18 21.01 25.60 C 15.11 25.29 9.88 28.58 4.22 29.58 C 3.56 29.36 2.26 28.91 1.61 28.69 C 2.61 27.45 3.56 26.13 4.09 24.62 C 4.23 24.20 4.50 23.36 4.64 22.95 C 8.29 22.89 11.85 22.10 15.30 20.96 C 20.50 26.25 30.25 25.56 34.28 19.21 L 34.29 19.20 C 37.79 20.34 41.35 17.86 41.52 14.20 C 42.22 12.06 40.64 10.39 39.66 8.69 C 39.78 8.19 40.03 7.18 40.15 6.68 Z" />
</g>
<g id="#e6e6e5fe">
<path fill="#e6e6e5" opacity="1.00" d=" M 0.40 21.43 C 0.68 17.62 2.50 14.05 4.59 10.90 C 4.89 11.92 5.17 12.94 5.42 13.97 C 5.61 16.97 5.62 20.06 4.64 22.95 C 4.50 23.36 4.23 24.20 4.09 24.62 C 2.81 23.62 1.50 22.64 0.40 21.43 Z" />
</g>
<g id="#cececefe">
<path fill="#cecece" opacity="1.00" d=" M 43.65 10.80 C 45.81 13.95 47.39 17.53 48.00 21.31 L 48.00 28.92 L 47.72 29.64 C 42.85 24.90 41.61 17.12 43.65 10.80 Z" />
</g>
<g id="#d2000aff">
<path fill="#d2000a" opacity="1.00" d=" M 5.42 13.97 C 6.28 15.00 7.13 16.08 8.21 16.89 C 9.69 17.18 11.10 16.40 12.49 16.04 C 12.59 16.26 12.80 16.70 12.91 16.92 C 13.15 17.42 13.63 18.41 13.87 18.91 C 14.23 19.42 14.94 20.45 15.30 20.96 C 11.85 22.10 8.29 22.89 4.64 22.95 C 5.62 20.06 5.61 16.97 5.42 13.97 Z" />
</g>
<g id="#e8e7e7ff">
<path fill="#e8e7e7" opacity="1.00" d=" M 12.91 16.92 C 15.26 14.81 18.70 14.95 21.63 15.38 C 25.40 16.20 29.27 15.97 33.00 15.05 C 33.79 15.72 34.54 16.45 35.24 17.23 C 35.00 17.72 34.53 18.70 34.29 19.20 L 34.28 19.21 C 31.63 18.04 28.82 19.65 26.07 19.32 C 21.98 19.61 17.93 18.31 13.87 18.91 C 13.63 18.41 13.15 17.42 12.91 16.92 Z" />
</g>
<g id="#d3d1d0ff">
<path fill="#d3d1d0" opacity="1.00" d=" M 13.87 18.91 C 17.93 18.31 21.98 19.61 26.07 19.32 C 28.82 19.65 31.63 18.04 34.28 19.21 C 30.25 25.56 20.50 26.25 15.30 20.96 C 14.94 20.45 14.23 19.42 13.87 18.91 Z" />
</g>
<g id="#c4c3c3fe">
<path fill="#c4c3c3" opacity="1.00" d=" M 0.00 20.85 L 0.40 21.43 C 1.50 22.64 2.81 23.62 4.09 24.62 C 3.56 26.13 2.61 27.45 1.61 28.69 L 0.49 29.51 L 0.00 28.74 L 0.00 20.85 Z" />
</g>
<g id="#770000fe">
<path fill="#770000" opacity="1.00" d=" M 4.22 29.58 C 9.88 28.58 15.11 25.29 21.01 25.60 C 27.38 25.18 33.55 27.08 39.70 28.42 C 41.94 30.42 43.22 33.83 43.10 36.85 L 42.29 37.44 C 39.27 31.56 32.30 30.43 26.42 29.46 C 19.54 27.95 12.31 29.07 5.81 31.61 C 4.46 32.11 3.10 32.62 1.74 33.13 C 1.16 31.98 0.71 30.77 0.49 29.51 L 1.61 28.69 C 2.26 28.91 3.56 29.36 4.22 29.58 Z" />
</g>
<g id="#540000fe">
<path fill="#540000" opacity="1.00" d=" M 5.81 31.61 C 12.31 29.07 19.54 27.95 26.42 29.46 C 32.30 30.43 39.27 31.56 42.29 37.44 C 41.16 38.08 39.98 38.63 38.82 39.23 C 39.58 34.73 34.44 33.32 31.11 32.34 C 26.17 30.92 20.84 31.32 15.93 32.69 C 14.30 33.35 12.71 34.11 11.12 34.88 C 10.32 34.59 9.56 34.23 8.84 33.79 C 8.68 33.43 8.36 32.71 8.20 32.34 C 7.60 32.16 6.41 31.79 5.81 31.61 Z" />
</g>
<g id="#3c0000fe">
<path fill="#3c0000" opacity="1.00" d=" M 1.74 33.13 C 3.10 32.62 4.46 32.11 5.81 31.61 C 6.41 31.79 7.60 32.16 8.20 32.34 C 8.36 32.71 8.68 33.43 8.84 33.79 C 9.56 34.23 10.32 34.59 11.12 34.88 C 10.71 35.36 9.87 36.31 9.46 36.78 C 9.47 38.22 9.57 39.65 9.75 41.08 C 9.60 40.59 9.31 39.61 9.17 39.13 C 6.26 37.75 3.33 36.05 1.74 33.13 Z" />
<path fill="#3c0000" opacity="1.00" d=" M 28.29 35.74 L 28.86 35.85 L 29.37 36.01 C 30.81 37.44 30.50 39.36 30.32 41.18 C 29.97 41.35 29.26 41.71 28.90 41.88 C 27.53 40.15 28.39 37.76 28.29 35.74 Z" />
</g>
<g id="#b9a164fe">
<path fill="#b9a164" opacity="1.00" d=" M 15.93 32.69 C 20.84 31.32 26.17 30.92 31.11 32.34 C 30.69 33.07 29.85 34.52 29.43 35.24 C 29.28 35.39 29.00 35.70 28.86 35.85 L 28.29 35.74 C 25.96 35.29 23.62 34.88 21.27 34.57 C 20.90 34.65 20.16 34.79 19.79 34.86 L 19.46 35.18 C 18.38 34.21 17.21 33.36 15.93 32.69 Z" />
</g>
<g id="#b69c63fe">
<path fill="#b69c63" opacity="1.00" d=" M 11.12 34.88 C 12.71 34.11 14.30 33.35 15.93 32.69 C 17.21 33.36 18.38 34.21 19.46 35.18 C 17.23 37.15 12.93 35.68 11.53 39.07 C 13.34 40.79 15.90 41.71 18.39 41.64 C 18.69 41.60 19.28 41.53 19.57 41.50 C 20.74 40.08 20.18 37.91 19.99 36.25 C 19.94 35.90 19.84 35.21 19.79 34.86 C 20.16 34.79 20.90 34.65 21.27 34.57 C 21.08 36.67 20.27 38.87 20.89 40.95 C 22.03 42.47 24.19 42.29 25.88 42.56 C 27.95 42.70 29.91 43.59 31.99 43.61 C 34.82 43.54 37.41 39.92 35.51 37.44 C 34.29 36.32 32.66 35.79 31.16 35.16 C 30.95 37.17 30.94 39.23 30.32 41.18 C 30.50 39.36 30.81 37.44 29.37 36.01 L 29.43 35.24 C 29.85 34.52 30.69 33.07 31.11 32.34 C 34.44 33.32 39.58 34.73 38.82 39.23 C 38.92 45.07 32.75 48.11 27.61 47.71 C 26.24 46.72 24.72 45.80 22.99 45.70 C 18.64 45.12 14.25 44.29 10.27 42.39 C 10.14 42.06 9.88 41.41 9.75 41.08 C 9.57 39.65 9.47 38.22 9.46 36.78 C 9.87 36.31 10.71 35.36 11.12 34.88 Z" />
</g>
<g id="#ebcc83fe">
<path fill="#ebcc83" opacity="1.00" d=" M 19.46 35.18 L 19.79 34.86 C 19.84 35.21 19.94 35.90 19.99 36.25 C 19.45 36.28 18.37 36.35 17.83 36.39 C 17.87 38.15 17.56 40.00 18.39 41.64 C 15.90 41.71 13.34 40.79 11.53 39.07 C 12.93 35.68 17.23 37.15 19.46 35.18 Z" />
</g>
<g id="#f0d089fe">
<path fill="#f0d089" opacity="1.00" d=" M 21.27 34.57 C 23.62 34.88 25.96 35.29 28.29 35.74 C 28.39 37.76 27.53 40.15 28.90 41.88 C 29.26 41.71 29.97 41.35 30.32 41.18 C 30.94 39.23 30.95 37.17 31.16 35.16 C 32.66 35.79 34.29 36.32 35.51 37.44 C 37.41 39.92 34.82 43.54 31.99 43.61 C 29.91 43.59 27.95 42.70 25.88 42.56 C 24.19 42.29 22.03 42.47 20.89 40.95 C 20.27 38.87 21.08 36.67 21.27 34.57 Z" />
</g>
<g id="#bdb3abff">
<path fill="#bdb3ab" opacity="1.00" d=" M 28.86 35.85 C 29.00 35.70 29.28 35.39 29.43 35.24 L 29.37 36.01 L 28.86 35.85 Z" />
</g>
<g id="#362818ff">
<path fill="#362818" opacity="1.00" d=" M 17.83 36.39 C 18.37 36.35 19.45 36.28 19.99 36.25 C 20.18 37.91 20.74 40.08 19.57 41.50 C 19.28 41.53 18.69 41.60 18.39 41.64 C 17.56 40.00 17.87 38.15 17.83 36.39 Z" />
</g>
<g id="#79663afa">
<path fill="#79663a" opacity="0.98" d=" M 10.27 42.39 C 14.25 44.29 18.64 45.12 22.99 45.70 C 24.72 45.80 26.24 46.72 27.61 47.71 L 26.79 48.00 L 21.34 48.00 C 17.28 47.46 11.77 46.94 10.27 42.39 Z" />
</g>
</svg>
