<?xml version="1.0" encoding="UTF-8" ?>
<!DOCTYPE svg PUBLIC "-//W3C//DTD SVG 1.1//EN" "http://www.w3.org/Graphics/SVG/1.1/DTD/svg11.dtd">
<svg width="32pt" height="32pt" viewBox="0 0 32 32" version="1.1" xmlns="http://www.w3.org/2000/svg">
<g id="#fcfcfbff">
<path fill="#fcfcfb" opacity="1.00" d=" M 0.00 0.00 L 32.00 0.00 L 32.00 6.56 C 26.60 2.93 19.98 3.66 13.82 3.69 C 10.64 3.72 7.46 3.82 4.29 4.03 C 4.33 5.86 4.38 7.70 4.44 9.54 C 10.48 9.63 16.52 9.76 22.55 9.59 C 22.90 9.74 23.61 10.05 23.96 10.20 C 23.93 11.36 23.89 12.53 23.85 13.69 C 20.51 13.81 17.17 13.87 13.83 13.87 C 10.69 13.87 7.54 13.96 4.41 14.11 C 4.36 17.23 4.32 20.34 4.15 23.45 C 2.76 23.82 1.37 24.23 0.00 24.66 L 0.00 0.00 Z" />
<path fill="#fcfcfb" opacity="1.00" d=" M 32.00 19.14 C 29.32 17.44 30.86 15.08 32.00 12.94 L 32.00 19.14 Z" />
<path fill="#fcfcfb" opacity="1.00" d=" M 11.51 20.00 C 15.19 19.93 18.86 19.82 22.54 19.73 C 24.05 20.28 24.01 22.32 24.74 23.54 C 21.04 23.98 17.32 24.23 13.60 24.41 C 13.34 24.11 12.82 23.50 12.56 23.19 C 12.19 22.13 11.84 21.07 11.51 20.00 Z" />
<path fill="#fcfcfb" opacity="1.00" d=" M 14.31 29.90 C 20.38 30.50 27.34 30.79 32.00 26.12 L 32.00 32.00 L 0.00 32.00 L 0.00 30.39 C 3.78 30.23 7.60 29.88 11.11 28.37 C 12.17 28.89 13.23 29.42 14.31 29.90 Z" />
</g>
<g id="#b08759ff">
<path fill="#b08759" opacity="1.00" d=" M 4.29 4.03 C 7.46 3.82 10.64 3.72 13.82 3.69 C 13.83 4.98 13.83 6.28 13.85 7.58 C 16.83 7.82 19.80 8.40 22.55 9.59 C 16.52 9.76 10.48 9.63 4.44 9.54 C 4.38 7.70 4.33 5.86 4.29 4.03 Z" />
<path fill="#b08759" opacity="1.00" d=" M 4.41 14.11 C 7.54 13.96 10.69 13.87 13.83 13.87 C 13.86 15.10 13.90 16.33 13.94 17.56 C 16.87 18.01 19.83 18.49 22.54 19.73 C 18.86 19.82 15.19 19.93 11.51 20.00 C 11.84 21.07 12.19 22.13 12.56 23.19 C 12.82 23.50 13.34 24.11 13.60 24.41 C 13.93 26.23 14.11 28.06 14.31 29.90 C 13.23 29.42 12.17 28.89 11.11 28.37 C 7.60 29.88 3.78 30.23 0.00 30.39 L 0.00 24.66 C 1.37 24.23 2.76 23.82 4.15 23.45 C 4.32 20.34 4.36 17.23 4.41 14.11 Z" />
</g>
<g id="#9e4333ff">
<path fill="#9e4333" opacity="1.00" d=" M 13.82 3.69 C 19.98 3.66 26.60 2.93 32.00 6.56 L 32.00 12.94 C 30.86 15.08 29.32 17.44 32.00 19.14 L 32.00 26.12 C 27.34 30.79 20.38 30.50 14.31 29.90 C 14.11 28.06 13.93 26.23 13.60 24.41 C 17.32 24.23 21.04 23.98 24.74 23.54 C 24.01 22.32 24.05 20.28 22.54 19.73 C 19.83 18.49 16.87 18.01 13.94 17.56 C 13.90 16.33 13.86 15.10 13.83 13.87 C 17.17 13.87 20.51 13.81 23.85 13.69 C 23.89 12.53 23.93 11.36 23.96 10.20 C 23.61 10.05 22.90 9.74 22.55 9.59 C 19.80 8.40 16.83 7.82 13.85 7.58 C 13.83 6.28 13.83 4.98 13.82 3.69 Z" />
</g>
</svg>
