<?xml version="1.0" encoding="UTF-8"?>
<svg width="104px" height="60px" viewBox="0 0 104 60" version="1.1" xmlns="http://www.w3.org/2000/svg" xmlns:xlink="http://www.w3.org/1999/xlink">
    <!-- Generator: Sketch 48.2 (47327) - http://www.bohemiancoding.com/sketch -->
    <title>Untitled</title>
    <desc>Created with Sketch.</desc>
    <defs></defs>
    <g id="Page-1" stroke="none" stroke-width="1" fill="none" fill-rule="evenodd">
        <g id="logo" fill="#000000" fill-rule="nonzero">
            <g id="Group" transform="translate(52.000000, 30.000000) scale(-1, 1) rotate(-180.000000) translate(-52.000000, -30.000000) ">
                <path d="M50.0790668,59.9731844 C48.0165911,59.772067 46.7898898,59.5843575 45.468827,59.3027933 C35.2777706,57.0636872 26.866105,49.5955307 23.4825664,39.8078212 C22.5793908,37.1798883 21.837978,33.4122905 21.837978,31.427933 C21.837978,30.9184358 21.7975373,30.8513966 21.3392093,30.6368715 C20.4629942,30.2346369 17.0120544,28.2905028 14.8956578,27.0301676 C6.92883992,22.2837989 2.03551523,18.1675978 0.525729099,14.9497207 C-0.363966299,13.0458101 -0.107841866,11.1284916 1.19974076,9.7877095 C2.77692806,8.17877095 5.39209332,7.49497207 9.98885288,7.49497207 C14.4912508,7.49497207 21.0022035,8.28603352 27.5401167,9.61340782 L29.4003889,10.0022346 L30.8158134,8.62122905 C34.2263124,5.26927374 38.6882696,2.62793296 43.2041478,1.2603352 C46.4663642,0.281564246 49.4320156,-0.0938547486 53.1121192,0.0268156425 C57.3988334,0.174301676 61.1058976,1.05921788 64.9073234,2.85586592 C74.1008425,7.2 80.4500324,15.8212291 81.8924174,25.9307263 C82.0002592,26.6681564 82.0946209,27.6335196 82.0946209,28.0759777 C82.0946209,28.5184358 82.1485418,28.947486 82.2024627,29.0145251 C82.2563837,29.0949721 83.1730395,29.6312849 84.2514582,30.2078212 C86.8531432,31.6156425 91.112897,34.1631285 93.3910564,35.6782123 C100.589501,40.4648045 103.959559,44.1385475 103.98652,47.2625698 C104,49.0189944 103.015943,50.4536313 101.169151,51.3519553 C97.4620868,53.1486034 89.1717434,52.8402235 76.9451717,50.4536313 L74.5591704,49.9843575 L73.3729099,51.1642458 C68.6548283,55.8569832 62.3056384,58.9810056 55.8081659,59.7854749 C54.5545042,59.9329609 50.9418017,60.0536313 50.0790668,59.9731844 Z M97.9743357,47.6648045 C98.4461439,47.5441341 98.971873,47.3698324 99.147116,47.2759777 L99.4706416,47.1150838 L99.2010369,46.5117318 C98.8775113,45.7877095 96.0736228,42.972067 94.3616332,41.6581006 C87.8641607,36.6837989 73.1033052,29.2960894 58.3154893,23.624581 C44.3364874,18.2748603 27.5535969,13.7027933 16.0279974,12.1072626 C13.8711601,11.7988827 8.50602722,11.7586592 7.00972132,12.0402235 C5.75605962,12.2681564 4.58327933,12.6837989 4.58327933,12.9117318 C4.58327933,13.2469274 5.47297472,14.4 6.56487362,15.4726257 C8.47906675,17.3631285 12.13221,20.0446927 16.0819183,22.4581006 C18.3061568,23.8122905 21.9862605,25.9039106 22.0401815,25.8368715 C22.0536617,25.8100559 22.2289047,25.0055866 22.417628,24.0268156 C22.8355152,21.9486034 23.5904083,19.6156425 24.439663,17.7519553 L25.0462735,16.4111732 L25.5450421,16.4379888 C25.8146468,16.4648045 27.7423202,16.8938547 29.8317563,17.403352 C44.1208036,20.8893855 57.3853532,25.4882682 71.0003889,31.6424581 C73.7099157,32.8625698 80.8274789,36.3351955 81.1914452,36.6167598 C81.4206092,36.7776536 81.407129,36.8581006 81.0296824,38.1988827 C80.3826312,40.4782123 79.3581335,42.9050279 78.1583927,44.9564246 C77.767466,45.6 77.6596241,45.9083799 77.7809462,45.975419 C78.2123137,46.2435754 86.206092,47.477095 89.1043422,47.7184358 C90.0344783,47.7854749 91.0050551,47.8793296 91.2611795,47.9061453 C92.4069994,48.0402235 97.1520415,47.8659218 97.9743357,47.6648045 Z" id="Shape"></path>
            </g>
        </g>
    </g>
</svg>