<?xml version="1.0" encoding="UTF-8" ?>
<!DOCTYPE svg PUBLIC "-//W3C//DTD SVG 1.1//EN" "http://www.w3.org/Graphics/SVG/1.1/DTD/svg11.dtd">
<svg width="363pt" height="363pt" viewBox="0 0 363 363" version="1.1" xmlns="http://www.w3.org/2000/svg">
<g id="#e9a297ff">
<path fill="#e9a297" opacity="1.00" d=" M 0.00 0.00 L 363.00 0.00 L 363.00 363.00 L 0.00 363.00 L 0.00 0.00 M 119.19 71.08 C 110.47 103.65 94.50 133.95 74.23 160.79 C 75.49 162.11 76.75 163.43 78.01 164.75 C 94.25 150.40 110.05 134.99 121.37 116.34 C 122.67 113.83 125.96 114.98 128.22 114.58 C 134.07 120.75 137.92 128.63 139.74 136.92 C 140.41 139.43 140.58 142.41 142.72 144.21 C 147.13 146.94 152.49 143.96 155.14 140.16 C 159.05 135.94 158.78 128.90 155.38 124.47 C 152.27 119.97 146.90 118.15 142.79 114.81 C 159.14 114.53 175.50 114.86 191.85 114.60 C 193.16 111.89 191.01 109.62 189.34 107.72 C 184.60 102.44 179.59 97.38 173.92 93.11 C 169.38 96.81 165.79 101.46 161.92 105.81 C 160.98 107.00 159.28 106.52 157.98 106.68 C 147.71 106.50 137.44 106.77 127.17 106.49 C 130.04 100.81 132.95 95.06 136.79 89.96 C 138.69 87.26 142.00 86.40 144.67 84.73 C 145.08 83.20 144.85 81.43 143.21 80.76 C 135.84 76.22 127.57 73.15 119.19 71.08 M 213.20 73.12 C 207.62 90.49 201.26 107.86 191.16 123.18 C 186.04 131.23 180.09 138.70 174.12 146.13 C 175.31 147.30 176.50 148.47 177.68 149.65 C 188.91 140.65 200.39 131.78 209.84 120.85 C 212.04 118.32 213.87 115.46 216.31 113.15 C 217.52 112.93 218.98 113.11 219.51 114.40 C 223.14 119.78 225.29 126.00 226.97 132.23 C 228.12 136.57 228.15 141.18 229.80 145.39 C 230.65 146.99 231.95 148.84 233.99 148.73 C 238.26 149.32 241.67 146.14 244.15 143.09 C 248.32 138.06 249.07 130.20 245.10 124.84 C 241.67 119.42 235.42 117.09 230.84 112.92 C 245.90 112.57 260.97 112.88 276.03 112.77 C 280.47 112.64 285.06 113.39 289.33 111.86 C 287.88 107.89 284.45 105.27 281.59 102.37 C 277.83 98.80 274.18 95.07 269.95 92.05 C 268.38 90.74 265.77 90.76 264.59 92.57 C 261.36 96.51 258.00 100.34 254.91 104.39 C 243.67 104.56 232.43 104.63 221.20 104.35 C 223.85 99.40 226.62 94.49 230.09 90.07 C 232.15 87.40 235.79 87.26 238.79 86.43 C 238.80 85.43 238.73 84.44 238.57 83.47 C 235.51 80.83 231.58 79.57 227.89 78.11 C 223.01 76.39 218.37 73.90 213.20 73.12 M 118.08 138.97 C 117.44 140.32 116.78 141.66 116.12 143.00 C 121.66 147.02 126.02 152.40 130.05 157.87 C 134.19 163.40 136.48 170.03 140.38 175.72 C 142.30 175.72 144.21 175.72 146.13 175.71 C 146.75 190.80 146.51 205.90 146.55 221.00 C 146.52 233.34 146.71 245.69 146.21 258.03 C 145.98 261.66 145.22 265.32 146.09 268.93 C 151.89 268.72 157.93 267.10 162.57 263.56 C 164.80 259.65 163.55 254.81 163.64 250.53 C 168.35 249.32 173.22 250.23 178.01 250.01 C 185.58 249.74 193.14 250.19 200.71 250.22 C 200.87 253.68 200.43 257.27 201.48 260.62 C 203.08 262.40 205.55 261.07 207.45 260.61 C 211.40 259.11 215.60 257.80 218.90 255.08 C 221.18 251.50 220.15 247.00 220.32 243.00 C 220.31 225.26 220.06 207.50 220.44 189.76 C 222.46 188.78 224.66 188.00 226.34 186.46 C 227.99 183.60 224.72 181.73 222.77 180.34 C 217.32 176.83 212.16 172.56 205.95 170.48 C 202.13 172.46 200.88 177.10 198.33 180.33 C 188.87 180.17 179.41 180.27 169.96 180.29 C 166.32 180.69 163.62 177.89 160.50 176.57 C 156.80 174.97 152.88 173.98 149.17 172.42 C 152.97 168.22 154.99 162.32 153.11 156.78 C 151.56 150.21 144.76 147.23 139.03 145.10 C 132.11 142.88 125.26 140.27 118.08 138.97 M 252.44 141.37 C 248.36 144.71 245.89 149.53 242.78 153.71 C 217.40 153.84 192.01 153.95 166.63 153.57 C 168.42 156.85 170.11 160.56 173.18 162.80 C 176.15 162.53 179.03 161.57 182.03 161.58 C 203.44 161.71 224.86 161.68 246.28 161.58 C 246.50 194.05 246.30 226.53 246.38 259.00 C 246.36 260.65 246.39 262.31 246.11 263.94 C 245.15 265.83 242.78 265.51 241.03 265.72 C 231.88 265.84 222.96 263.39 213.95 262.31 C 212.23 263.36 211.98 265.70 211.11 267.39 C 217.10 269.66 223.37 271.55 228.76 275.10 C 234.28 278.96 234.64 286.29 237.53 291.85 C 246.28 290.21 254.68 286.68 262.27 282.09 C 267.23 279.31 266.86 272.89 267.32 268.00 C 267.44 233.48 267.24 198.97 267.40 164.45 C 270.82 162.73 274.43 161.08 276.87 158.00 C 272.18 151.92 265.55 147.91 259.30 143.64 C 257.23 142.49 254.96 140.64 252.44 141.37 M 103.36 160.01 C 103.84 184.03 103.63 208.04 103.67 232.06 C 103.64 246.38 103.86 260.70 103.21 275.01 C 102.89 280.07 102.29 285.12 102.61 290.20 C 103.17 290.53 104.30 291.20 104.86 291.53 C 110.22 290.00 115.45 287.99 120.39 285.41 C 121.70 284.60 123.42 283.81 123.66 282.09 C 124.43 278.44 124.12 274.68 124.15 270.97 C 124.12 241.98 124.16 212.99 124.14 184.00 C 124.17 181.09 123.93 178.16 124.35 175.27 C 125.33 173.37 127.43 172.29 128.70 170.57 C 129.34 168.03 126.62 167.10 124.78 166.38 C 117.79 163.82 110.69 161.41 103.36 160.01 Z" />
<path fill="#e9a297" opacity="1.00" d=" M 164.03 187.42 C 176.24 187.35 188.46 187.39 200.67 187.40 C 200.89 195.19 200.80 202.99 200.73 210.78 C 193.52 211.39 186.27 210.59 179.04 210.85 C 173.93 210.71 168.76 211.56 163.70 210.42 C 164.01 202.75 163.45 195.07 164.03 187.42 Z" />
<path fill="#e9a297" opacity="1.00" d=" M 164.05 218.37 C 176.25 218.40 188.45 218.38 200.65 218.38 C 200.87 226.09 200.89 233.81 200.63 241.52 C 188.32 241.49 176.01 241.64 163.70 241.42 C 164.00 233.74 163.46 226.04 164.05 218.37 Z" />
</g>
<g id="#ffffffff">
<path fill="#ffffff" opacity="1.00" d=" M 119.19 71.08 C 127.57 73.15 135.84 76.22 143.21 80.76 C 144.85 81.43 145.08 83.20 144.67 84.73 C 142.00 86.40 138.69 87.26 136.79 89.96 C 132.95 95.06 130.04 100.81 127.17 106.49 C 137.44 106.77 147.71 106.50 157.98 106.68 C 159.28 106.52 160.98 107.00 161.92 105.81 C 165.79 101.46 169.38 96.81 173.92 93.11 C 179.59 97.38 184.60 102.44 189.34 107.72 C 191.01 109.62 193.16 111.89 191.85 114.60 C 175.50 114.86 159.14 114.53 142.79 114.81 C 146.90 118.15 152.27 119.97 155.38 124.47 C 158.78 128.90 159.05 135.94 155.14 140.16 C 152.49 143.96 147.13 146.94 142.72 144.21 C 140.58 142.41 140.41 139.43 139.74 136.92 C 137.92 128.63 134.07 120.75 128.22 114.58 C 125.96 114.98 122.67 113.83 121.37 116.34 C 110.05 134.99 94.25 150.40 78.01 164.75 C 76.75 163.43 75.49 162.11 74.23 160.79 C 94.50 133.95 110.47 103.65 119.19 71.08 Z" />
<path fill="#ffffff" opacity="1.00" d=" M 213.20 73.12 C 218.37 73.90 223.01 76.39 227.89 78.11 C 231.58 79.57 235.51 80.83 238.57 83.47 C 238.73 84.44 238.80 85.43 238.79 86.43 C 235.79 87.26 232.15 87.40 230.09 90.07 C 226.62 94.49 223.85 99.40 221.20 104.35 C 232.43 104.63 243.67 104.56 254.91 104.39 C 258.00 100.34 261.36 96.51 264.59 92.57 C 265.77 90.76 268.38 90.74 269.95 92.05 C 274.18 95.07 277.83 98.80 281.59 102.37 C 284.45 105.27 287.88 107.89 289.33 111.86 C 285.06 113.39 280.47 112.64 276.03 112.77 C 260.97 112.88 245.90 112.57 230.84 112.92 C 235.42 117.09 241.67 119.42 245.10 124.84 C 249.07 130.20 248.32 138.06 244.15 143.09 C 241.67 146.14 238.26 149.32 233.99 148.73 C 231.95 148.84 230.65 146.99 229.80 145.39 C 228.15 141.18 228.12 136.57 226.97 132.23 C 225.29 126.00 223.14 119.78 219.51 114.40 C 218.98 113.11 217.52 112.93 216.31 113.15 C 213.87 115.46 212.04 118.32 209.84 120.85 C 200.39 131.78 188.91 140.65 177.68 149.65 C 176.50 148.47 175.31 147.30 174.12 146.13 C 180.09 138.70 186.04 131.23 191.16 123.18 C 201.26 107.86 207.62 90.49 213.20 73.12 Z" />
<path fill="#ffffff" opacity="1.00" d=" M 118.08 138.97 C 125.26 140.27 132.11 142.88 139.03 145.10 C 144.76 147.23 151.56 150.21 153.11 156.78 C 154.99 162.32 152.97 168.22 149.17 172.42 C 152.88 173.98 156.80 174.97 160.50 176.57 C 163.62 177.89 166.32 180.69 169.96 180.29 C 179.41 180.27 188.87 180.17 198.33 180.33 C 200.88 177.10 202.13 172.46 205.95 170.48 C 212.16 172.56 217.32 176.83 222.77 180.34 C 224.72 181.73 227.99 183.60 226.34 186.46 C 224.66 188.00 222.46 188.78 220.44 189.76 C 220.06 207.50 220.31 225.26 220.32 243.00 C 220.15 247.00 221.18 251.50 218.90 255.08 C 215.60 257.80 211.40 259.11 207.45 260.61 C 205.55 261.07 203.08 262.40 201.48 260.62 C 200.43 257.27 200.87 253.68 200.71 250.22 C 193.14 250.19 185.58 249.74 178.01 250.01 C 173.22 250.23 168.35 249.32 163.64 250.53 C 163.55 254.81 164.80 259.65 162.57 263.56 C 157.93 267.10 151.89 268.72 146.09 268.93 C 145.22 265.32 145.98 261.66 146.21 258.03 C 146.71 245.69 146.52 233.34 146.55 221.00 C 146.51 205.90 146.75 190.80 146.13 175.71 C 144.21 175.72 142.30 175.72 140.38 175.72 C 136.48 170.03 134.19 163.40 130.05 157.87 C 126.02 152.40 121.66 147.02 116.12 143.00 C 116.78 141.66 117.44 140.32 118.08 138.97 M 164.03 187.42 C 163.45 195.07 164.01 202.75 163.70 210.42 C 168.76 211.56 173.93 210.71 179.04 210.85 C 186.27 210.59 193.52 211.39 200.73 210.78 C 200.80 202.99 200.89 195.19 200.67 187.40 C 188.46 187.39 176.24 187.35 164.03 187.42 M 164.05 218.37 C 163.46 226.04 164.00 233.74 163.70 241.42 C 176.01 241.64 188.32 241.49 200.63 241.52 C 200.89 233.81 200.87 226.09 200.65 218.38 C 188.45 218.38 176.25 218.40 164.05 218.37 Z" />
<path fill="#ffffff" opacity="1.00" d=" M 252.44 141.37 C 254.96 140.64 257.23 142.49 259.30 143.64 C 265.55 147.91 272.18 151.92 276.87 158.00 C 274.43 161.08 270.82 162.73 267.40 164.45 C 267.24 198.97 267.44 233.48 267.32 268.00 C 266.86 272.89 267.23 279.31 262.27 282.09 C 254.68 286.68 246.28 290.21 237.53 291.85 C 234.64 286.29 234.28 278.96 228.76 275.10 C 223.37 271.55 217.10 269.66 211.11 267.39 C 211.98 265.70 212.23 263.36 213.95 262.31 C 222.96 263.39 231.88 265.84 241.03 265.72 C 242.78 265.51 245.15 265.83 246.11 263.94 C 246.39 262.31 246.36 260.65 246.38 259.00 C 246.30 226.53 246.50 194.05 246.28 161.58 C 224.86 161.68 203.44 161.71 182.03 161.58 C 179.03 161.57 176.15 162.53 173.18 162.80 C 170.11 160.56 168.42 156.85 166.63 153.57 C 192.01 153.95 217.40 153.84 242.78 153.71 C 245.89 149.53 248.36 144.71 252.44 141.37 Z" />
<path fill="#ffffff" opacity="1.00" d=" M 103.36 160.01 C 110.69 161.41 117.79 163.82 124.78 166.38 C 126.62 167.10 129.34 168.03 128.70 170.57 C 127.43 172.29 125.33 173.37 124.35 175.27 C 123.93 178.16 124.17 181.09 124.14 184.00 C 124.16 212.99 124.12 241.98 124.15 270.97 C 124.12 274.68 124.43 278.44 123.66 282.09 C 123.42 283.81 121.70 284.60 120.39 285.41 C 115.45 287.99 110.22 290.00 104.86 291.53 C 104.30 291.20 103.17 290.53 102.61 290.20 C 102.29 285.12 102.89 280.07 103.21 275.01 C 103.86 260.70 103.64 246.38 103.67 232.06 C 103.63 208.04 103.84 184.03 103.36 160.01 Z" />
</g>
</svg>
