<?xml version="1.0" encoding="UTF-8" ?>
<!DOCTYPE svg PUBLIC "-//W3C//DTD SVG 1.1//EN" "http://www.w3.org/Graphics/SVG/1.1/DTD/svg11.dtd">
<svg width="16pt" height="16pt" viewBox="0 0 16 16" version="1.1" xmlns="http://www.w3.org/2000/svg">
<g id="#f52b00ff">
<path fill="#f52b00" opacity="1.00" d=" M 0.00 0.00 L 16.00 0.00 L 16.00 16.00 L 0.00 16.00 L 0.00 0.00 M 1.86 4.44 C 1.87 6.83 1.87 9.22 1.85 11.61 C 5.91 10.64 10.08 11.05 14.14 11.75 C 14.13 9.34 14.13 6.93 14.15 4.51 C 10.11 5.69 5.92 5.15 1.86 4.44 Z" />
<path fill="#f52b00" opacity="1.00" d=" M 3.09 6.20 C 3.67 6.14 4.83 6.04 5.41 5.99 C 5.11 7.48 4.80 8.97 4.47 10.45 C 3.30 9.32 3.30 7.68 3.09 6.20 Z" />
<path fill="#f52b00" opacity="1.00" d=" M 10.46 10.10 C 11.00 8.55 11.42 6.96 12.00 5.42 C 12.38 6.89 12.59 8.39 12.91 9.87 C 12.30 9.93 11.07 10.05 10.46 10.10 Z" />
<path fill="#f52b00" opacity="1.00" d=" M 5.90 7.94 C 7.39 6.96 9.09 7.24 10.69 7.81 C 9.17 8.40 7.07 9.92 5.90 7.94 Z" />
</g>
<g id="#fcb6a8ff">
<path fill="#fcb6a8" opacity="1.00" d=" M 1.86 4.44 C 5.92 5.15 10.11 5.69 14.15 4.51 C 14.13 6.93 14.13 9.34 14.14 11.75 C 10.08 11.05 5.91 10.64 1.85 11.61 C 1.87 9.22 1.87 6.83 1.86 4.44 M 3.09 6.20 C 3.30 7.68 3.30 9.32 4.47 10.45 C 4.80 8.97 5.11 7.48 5.41 5.99 C 4.83 6.04 3.67 6.14 3.09 6.20 M 10.46 10.10 C 11.07 10.05 12.30 9.93 12.91 9.87 C 12.59 8.39 12.38 6.89 12.00 5.42 C 11.42 6.96 11.00 8.55 10.46 10.10 M 5.90 7.94 C 7.07 9.92 9.17 8.40 10.69 7.81 C 9.09 7.24 7.39 6.96 5.90 7.94 Z" />
</g>
</svg>
