<?xml version="1.0" encoding="UTF-8" ?>
<!DOCTYPE svg PUBLIC "-//W3C//DTD SVG 1.1//EN" "http://www.w3.org/Graphics/SVG/1.1/DTD/svg11.dtd">
<svg width="32pt" height="32pt" viewBox="0 0 32 32" version="1.1" xmlns="http://www.w3.org/2000/svg">
<g id="#18003e4f">
<path fill="#18003e" opacity="0.31" d=" M 12.99 0.00 L 15.42 0.00 L 15.85 0.64 C 15.52 1.00 14.87 1.71 14.54 2.07 C 13.05 2.16 12.53 1.47 12.99 0.00 Z" />
</g>
<g id="#4b1089aa">
<path fill="#4b1089" opacity="0.67" d=" M 14.54 2.07 C 14.87 1.71 15.52 1.00 15.85 0.64 C 20.21 1.40 24.29 3.75 26.34 7.81 C 24.10 5.80 21.95 3.70 18.79 3.42 L 18.15 2.16 C 17.24 2.13 15.44 2.09 14.54 2.07 Z" />
</g>
<g id="#5b6e0377">
<path fill="#5b6e03" opacity="0.47" d=" M 5.03 3.16 C 6.58 2.73 7.14 3.31 6.73 4.90 C 5.10 5.45 4.54 4.87 5.03 3.16 Z" />
<path fill="#5b6e03" opacity="0.47" d=" M 6.09 29.01 C 7.81 28.47 8.42 29.02 7.93 30.64 C 6.35 31.09 5.74 30.55 6.09 29.01 Z" />
</g>
<g id="#c95adfe9">
<path fill="#c95adf" opacity="0.91" d=" M 3.09 12.61 C 5.01 6.18 12.21 1.66 18.79 3.42 C 21.95 3.70 24.10 5.80 26.34 7.81 C 26.23 8.51 26.02 9.91 25.91 10.62 C 22.98 6.58 17.62 3.94 12.70 5.77 C 9.84 6.61 7.05 8.20 5.70 10.98 C 4.84 11.54 3.98 12.09 3.09 12.61 Z" />
</g>
<g id="#58275f62">
<path fill="#58275f" opacity="0.38" d=" M 26.10 3.11 C 27.76 2.64 28.30 3.21 27.72 4.81 C 26.07 5.30 25.53 4.73 26.10 3.11 Z" />
</g>
<g id="#6062a9ff">
<path fill="#6062a9" opacity="1.00" d=" M 12.70 5.77 C 17.62 3.94 22.98 6.58 25.91 10.62 C 26.32 11.32 26.74 12.02 27.15 12.73 C 26.70 14.47 26.74 16.32 27.47 17.98 C 26.56 21.16 24.72 24.16 21.72 25.75 C 16.55 29.02 8.08 25.99 7.83 19.37 C 9.37 18.56 9.26 16.54 7.56 16.00 C 9.83 12.78 14.34 9.37 17.97 12.81 C 14.07 11.89 10.14 16.07 12.07 19.81 C 13.66 23.46 19.02 23.42 20.89 20.03 L 21.96 20.28 C 22.65 22.47 26.42 21.65 24.78 19.44 C 24.36 19.34 23.52 19.13 23.10 19.02 C 24.02 14.38 23.30 8.63 18.33 6.66 C 17.77 6.49 16.67 6.17 16.12 6.00 C 15.26 5.94 13.55 5.82 12.70 5.77 M 14.14 24.05 C 12.65 27.11 17.41 24.21 14.14 24.05 Z" />
</g>
<g id="#1a192e45">
<path fill="#1a192e" opacity="0.27" d=" M 3.25 6.10 C 6.42 4.62 3.44 9.26 3.25 6.10 Z" />
</g>
<g id="#7d30daff">
<path fill="#7d30da" opacity="1.00" d=" M 5.70 10.98 C 7.05 8.20 9.84 6.61 12.70 5.77 C 13.55 5.82 15.26 5.94 16.12 6.00 L 15.64 6.88 C 11.79 6.64 8.66 8.85 5.70 10.98 Z" />
</g>
<g id="#b7705aff">
<path fill="#b7705a" opacity="1.00" d=" M 16.12 6.00 C 16.67 6.17 17.77 6.49 18.33 6.66 L 18.04 7.68 L 17.06 7.98 C 16.71 7.71 16.00 7.16 15.64 6.88 L 16.12 6.00 Z" />
</g>
<g id="#a737efff">
<path fill="#a737ef" opacity="1.00" d=" M 28.19 6.54 C 29.73 6.03 30.27 6.58 29.80 8.19 C 28.21 8.75 27.67 8.20 28.19 6.54 Z" />
<path fill="#a737ef" opacity="1.00" d=" M 3.09 12.61 C 3.98 12.09 4.84 11.54 5.70 10.98 C 4.61 14.09 4.47 17.38 5.23 20.59 C 5.14 21.45 4.96 23.16 4.87 24.02 C 2.58 20.70 2.11 16.46 3.09 12.61 Z" />
<path fill="#a737ef" opacity="1.00" d=" M 29.29 13.62 C 29.75 15.91 29.57 18.25 29.05 20.51 C 28.78 20.75 28.23 21.22 27.96 21.45 C 28.07 18.79 28.72 16.21 29.29 13.62 Z" />
<path fill="#a737ef" opacity="1.00" d=" M 23.55 29.55 C 25.55 28.45 27.35 27.01 29.29 25.82 C 27.31 29.10 23.48 30.42 19.98 31.35 C 20.85 30.22 22.33 30.06 23.55 29.55 Z" />
</g>
<g id="#6260abff">
<path fill="#6260ab" opacity="1.00" d=" M 5.70 10.98 C 8.66 8.85 11.79 6.64 15.64 6.88 C 16.00 7.16 16.71 7.71 17.06 7.98 L 18.04 7.68 C 20.75 9.87 22.85 13.00 21.52 16.60 C 21.19 16.07 20.53 14.99 20.19 14.46 C 19.86 10.47 14.85 8.93 11.63 10.54 C 9.11 11.42 7.54 13.67 6.70 16.10 C 6.18 16.94 6.03 17.84 6.28 18.80 C 6.55 20.31 6.80 21.83 7.09 23.34 C 6.44 22.44 5.82 21.52 5.23 20.59 C 4.47 17.38 4.61 14.09 5.70 10.98 Z" />
</g>
<g id="#7839c4ff">
<path fill="#7839c4" opacity="1.00" d=" M 18.33 6.66 C 23.30 8.63 24.02 14.38 23.10 19.02 C 22.82 19.34 22.25 19.96 21.96 20.28 L 20.89 20.03 C 21.12 18.89 21.34 17.75 21.52 16.60 C 22.85 13.00 20.75 9.87 18.04 7.68 L 18.33 6.66 Z" />
</g>
<g id="#6c27c6f9">
<path fill="#6c27c6" opacity="0.98" d=" M 26.34 7.81 C 27.59 9.59 28.96 11.41 29.29 13.62 C 28.72 16.21 28.07 18.79 27.96 21.45 L 27.95 21.46 C 25.25 24.81 21.73 28.42 17.04 28.08 C 13.17 28.43 9.29 26.50 7.09 23.34 C 6.80 21.83 6.55 20.31 6.28 18.80 C 6.67 18.94 7.44 19.23 7.83 19.37 C 8.08 25.99 16.55 29.02 21.72 25.75 C 24.72 24.16 26.56 21.16 27.47 17.98 C 28.28 16.31 29.01 14.00 27.15 12.73 C 26.74 12.02 26.32 11.32 25.91 10.62 C 26.02 9.91 26.23 8.51 26.34 7.81 Z" />
</g>
<g id="#5725bcff">
<path fill="#5725bc" opacity="1.00" d=" M 11.63 10.54 C 14.85 8.93 19.86 10.47 20.19 14.46 C 19.64 14.05 18.52 13.22 17.97 12.81 C 14.34 9.37 9.83 12.78 7.56 16.00 L 6.70 16.10 C 7.54 13.67 9.11 11.42 11.63 10.54 Z" />
</g>
<g id="#fc8e06ff">
<path fill="#fc8e06" opacity="1.00" d=" M 12.07 19.81 C 10.14 16.07 14.07 11.89 17.97 12.81 C 18.52 13.22 19.64 14.05 20.19 14.46 C 20.53 14.99 21.19 16.07 21.52 16.60 C 21.34 17.75 21.12 18.89 20.89 20.03 C 19.02 23.42 13.66 23.46 12.07 19.81 M 14.29 16.20 C 13.02 17.68 15.74 19.20 16.74 17.81 C 17.95 16.32 15.30 14.90 14.29 16.20 Z" />
</g>
<g id="#924cd1ff">
<path fill="#924cd1" opacity="1.00" d=" M 27.15 12.73 C 29.01 14.00 28.28 16.31 27.47 17.98 C 26.74 16.32 26.70 14.47 27.15 12.73 Z" />
</g>
<g id="#36bfc1ff">
<path fill="#36bfc1" opacity="1.00" d=" M 6.70 16.10 L 7.56 16.00 C 9.26 16.54 9.37 18.56 7.83 19.37 C 7.44 19.23 6.67 18.94 6.28 18.80 C 6.03 17.84 6.18 16.94 6.70 16.10 Z" />
</g>
<g id="#fb6918ff">
<path fill="#fb6918" opacity="1.00" d=" M 14.29 16.20 C 15.30 14.90 17.95 16.32 16.74 17.81 C 15.74 19.20 13.02 17.68 14.29 16.20 Z" />
</g>
<g id="#9a64cbff">
<path fill="#9a64cb" opacity="1.00" d=" M 23.10 19.02 C 23.52 19.13 24.36 19.34 24.78 19.44 C 26.42 21.65 22.65 22.47 21.96 20.28 C 22.25 19.96 22.82 19.34 23.10 19.02 Z" />
</g>
<g id="#6ca29db0">
<path fill="#6ca29d" opacity="0.69" d=" M 27.96 21.45 C 28.23 21.22 28.78 20.75 29.05 20.51 C 29.61 20.86 30.72 21.56 31.28 21.90 C 30.91 22.38 30.16 23.32 29.79 23.80 C 29.32 23.62 28.36 23.27 27.89 23.10 L 27.95 21.46 L 27.96 21.45 Z" />
</g>
<g id="#d15cecf7">
<path fill="#d15cec" opacity="0.97" d=" M 5.23 20.59 C 5.82 21.52 6.44 22.44 7.09 23.34 C 9.29 26.50 13.17 28.43 17.04 28.08 C 21.73 28.42 25.25 24.81 27.95 21.46 L 27.89 23.10 C 26.68 25.31 24.85 27.12 22.65 28.34 C 20.54 29.12 18.43 30.03 16.16 30.17 C 11.36 30.71 7.90 27.16 4.87 24.02 C 4.96 23.16 5.14 21.45 5.23 20.59 Z" />
</g>
<g id="#5124585b">
<path fill="#512458" opacity="0.36" d=" M 2.33 23.75 C 2.89 24.07 4.00 24.73 4.56 25.06 C 4.23 25.53 3.55 26.46 3.21 26.93 C 5.60 27.26 5.62 30.34 3.17 30.21 C 2.90 29.86 2.37 29.16 2.10 28.81 C 2.36 28.47 2.87 27.78 3.12 27.43 C 2.57 27.00 1.47 26.15 0.91 25.72 C 1.27 25.23 1.97 24.24 2.33 23.75 Z" />
</g>
<g id="#671aa8b6">
<path fill="#671aa8" opacity="0.71" d=" M 4.87 24.02 C 7.90 27.16 11.36 30.71 16.16 30.17 L 16.26 31.32 C 11.56 30.92 7.12 28.20 4.87 24.02 Z" />
</g>
<g id="#3abcbeff">
<path fill="#3abcbe" opacity="1.00" d=" M 14.14 24.05 C 17.41 24.21 12.65 27.11 14.14 24.05 Z" />
</g>
<g id="#3810565d">
<path fill="#381056" opacity="0.36" d=" M 16.16 30.17 C 18.43 30.03 20.54 29.12 22.65 28.34 L 23.55 29.55 C 22.33 30.06 20.85 30.22 19.98 31.35 L 19.27 32.00 L 16.34 32.00 L 16.26 31.32 L 16.16 30.17 Z" />
</g>
</svg>
