<?xml version="1.0" encoding="UTF-8" ?>
<!DOCTYPE svg PUBLIC "-//W3C//DTD SVG 1.1//EN" "http://www.w3.org/Graphics/SVG/1.1/DTD/svg11.dtd">
<svg width="128pt" height="128pt" viewBox="0 0 128 128" version="1.1" xmlns="http://www.w3.org/2000/svg">
<g id="#ffffffff">
<path fill="#ffffff" opacity="1.00" d=" M 0.00 0.00 L 128.00 0.00 L 128.00 128.00 L 0.00 128.00 L 0.00 0.00 M 42.09 12.92 C 36.48 12.95 30.74 11.44 25.24 13.18 C 21.69 14.18 18.64 17.12 18.03 20.84 C 17.20 24.29 19.22 27.55 21.80 29.66 C 17.94 33.24 14.47 37.61 13.33 42.86 C 11.81 49.57 12.27 57.07 15.90 63.05 C 18.93 67.86 24.65 69.76 29.99 70.54 C 23.54 77.09 17.29 84.40 14.57 93.36 C 11.59 104.05 10.58 115.24 11.50 126.30 C 13.19 126.25 14.89 126.20 16.58 126.16 C 15.94 116.68 16.49 107.13 18.83 97.90 C 24.59 93.59 30.55 89.55 36.59 85.64 C 42.74 81.64 49.51 78.73 56.07 75.50 C 63.22 92.02 67.40 109.61 70.42 127.31 C 72.10 127.15 73.78 126.99 75.46 126.81 C 72.29 102.63 64.40 79.30 53.88 57.37 C 52.32 58.09 50.75 58.78 49.16 59.43 C 50.82 63.19 52.49 66.94 54.01 70.75 C 42.69 75.40 32.16 81.76 22.19 88.82 C 26.78 80.44 33.91 73.92 40.75 67.41 C 39.81 66.24 38.88 65.07 37.96 63.90 C 33.00 66.14 26.99 65.49 22.48 62.53 C 17.92 58.88 17.69 52.33 17.90 46.98 C 18.17 41.04 22.23 36.41 26.41 32.62 C 36.45 39.56 46.32 46.75 56.52 53.45 C 61.92 57.26 68.49 60.28 71.49 66.56 C 76.68 75.30 73.35 86.40 78.81 95.04 C 83.31 103.13 93.21 106.71 102.08 105.63 C 108.33 105.01 113.66 101.07 117.61 96.39 C 116.24 95.34 114.86 94.28 113.50 93.21 C 110.31 96.98 106.01 100.21 100.92 100.57 C 94.79 100.85 87.88 99.05 84.25 93.71 C 80.89 89.19 80.35 83.41 80.10 77.97 C 79.33 67.67 74.06 57.12 64.41 52.52 C 69.21 49.73 74.40 47.24 80.00 46.76 C 85.31 46.97 88.73 51.81 91.04 56.05 C 93.40 60.05 93.16 65.75 97.53 68.37 C 103.61 71.53 112.06 69.61 115.83 63.74 C 119.58 58.16 121.97 51.62 122.92 44.97 C 121.31 44.71 119.70 44.47 118.08 44.24 C 116.02 51.01 114.62 58.95 108.62 63.46 C 105.44 64.97 99.47 65.72 98.59 61.10 C 96.49 53.96 92.74 46.56 85.86 43.00 C 80.41 40.22 74.17 42.14 68.88 44.32 C 72.43 36.55 76.39 28.60 77.08 19.97 C 76.79 8.21 63.62 0.38 52.81 2.38 C 47.39 3.56 45.11 8.96 42.09 12.92 Z" />
<path fill="#ffffff" opacity="1.00" d=" M 51.28 9.24 C 54.25 6.05 59.04 7.32 62.60 8.64 C 68.00 10.58 72.89 16.00 71.59 22.09 C 69.40 31.81 65.14 41.01 59.88 49.44 C 48.21 41.32 36.52 33.21 24.87 25.06 C 22.00 23.65 23.13 19.44 25.82 18.55 C 31.35 16.26 37.33 18.87 43.05 18.14 C 47.52 17.29 48.19 11.89 51.28 9.24 Z" />
</g>
<g id="#000000ff">
<path fill="#000000" opacity="1.00" d=" M 42.09 12.92 C 45.11 8.96 47.39 3.56 52.81 2.38 C 63.62 0.38 76.79 8.21 77.08 19.97 C 76.39 28.60 72.43 36.55 68.88 44.32 C 74.17 42.14 80.41 40.22 85.86 43.00 C 92.74 46.56 96.49 53.96 98.59 61.10 C 99.47 65.72 105.44 64.97 108.62 63.46 C 114.62 58.95 116.02 51.01 118.08 44.24 C 119.70 44.47 121.31 44.71 122.92 44.97 C 121.97 51.62 119.58 58.16 115.83 63.74 C 112.06 69.61 103.61 71.53 97.53 68.37 C 93.16 65.75 93.40 60.05 91.04 56.05 C 88.73 51.81 85.31 46.97 80.00 46.76 C 74.40 47.24 69.21 49.73 64.41 52.52 C 74.06 57.12 79.33 67.67 80.10 77.97 C 80.35 83.41 80.89 89.19 84.25 93.71 C 87.88 99.05 94.79 100.85 100.92 100.57 C 106.01 100.21 110.31 96.98 113.50 93.21 C 114.86 94.28 116.24 95.34 117.61 96.39 C 113.66 101.07 108.33 105.01 102.08 105.63 C 93.21 106.71 83.31 103.13 78.81 95.04 C 73.35 86.40 76.68 75.30 71.49 66.56 C 68.49 60.28 61.92 57.26 56.52 53.45 C 46.32 46.75 36.45 39.56 26.41 32.62 C 22.23 36.41 18.17 41.04 17.90 46.98 C 17.69 52.33 17.92 58.88 22.48 62.53 C 26.99 65.49 33.00 66.14 37.96 63.90 C 38.88 65.07 39.81 66.24 40.75 67.41 C 33.91 73.92 26.78 80.44 22.19 88.82 C 32.16 81.76 42.69 75.40 54.01 70.75 C 52.49 66.94 50.82 63.19 49.16 59.43 C 50.75 58.78 52.32 58.09 53.88 57.37 C 64.40 79.30 72.29 102.63 75.46 126.81 C 73.78 126.99 72.10 127.15 70.42 127.31 C 67.40 109.61 63.22 92.02 56.07 75.50 C 49.51 78.73 42.74 81.64 36.59 85.64 C 30.55 89.55 24.59 93.59 18.83 97.90 C 16.49 107.13 15.94 116.68 16.58 126.16 C 14.89 126.20 13.19 126.25 11.50 126.30 C 10.58 115.24 11.59 104.05 14.57 93.36 C 17.29 84.40 23.54 77.09 29.99 70.54 C 24.65 69.76 18.93 67.86 15.90 63.05 C 12.27 57.07 11.81 49.57 13.33 42.86 C 14.47 37.61 17.94 33.24 21.80 29.66 C 19.22 27.55 17.20 24.29 18.03 20.84 C 18.64 17.12 21.69 14.18 25.24 13.18 C 30.74 11.44 36.48 12.95 42.09 12.92 M 51.28 9.24 C 48.19 11.89 47.52 17.29 43.05 18.14 C 37.33 18.87 31.35 16.26 25.82 18.55 C 23.13 19.44 22.00 23.65 24.87 25.06 C 36.52 33.21 48.21 41.32 59.88 49.44 C 65.14 41.01 69.40 31.81 71.59 22.09 C 72.89 16.00 68.00 10.58 62.60 8.64 C 59.04 7.32 54.25 6.05 51.28 9.24 Z" />
</g>
</svg>
