<?xml version="1.0" encoding="UTF-8" ?>
<!DOCTYPE svg PUBLIC "-//W3C//DTD SVG 1.1//EN" "http://www.w3.org/Graphics/SVG/1.1/DTD/svg11.dtd">
<svg width="20pt" height="20pt" viewBox="0 0 20 20" version="1.1" xmlns="http://www.w3.org/2000/svg">
<g id="#805e3bff">
<path fill="#805e3b" opacity="1.00" d=" M 0.00 0.00 L 20.00 0.00 L 20.00 20.00 L 0.00 20.00 L 0.00 0.00 M 10.90 14.93 C 8.13 16.84 6.92 13.22 5.99 11.34 C 5.35 12.35 4.60 13.51 5.34 14.71 C 6.29 17.94 11.84 18.12 12.94 14.95 C 13.59 10.64 13.23 6.28 12.90 1.96 C 9.95 5.65 12.26 10.70 10.90 14.93 Z" />
</g>
<g id="#dad4ceff">
<path fill="#dad4ce" opacity="1.00" d=" M 10.90 14.93 C 12.26 10.70 9.95 5.65 12.90 1.96 C 13.23 6.28 13.59 10.64 12.94 14.95 C 11.84 18.12 6.29 17.94 5.34 14.71 C 4.60 13.51 5.35 12.35 5.99 11.34 C 6.92 13.22 8.13 16.84 10.90 14.93 Z" />
</g>
</svg>
