<?xml version="1.0" encoding="UTF-8" ?>
<!DOCTYPE svg PUBLIC "-//W3C//DTD SVG 1.1//EN" "http://www.w3.org/Graphics/SVG/1.1/DTD/svg11.dtd">
<svg width="170pt" height="170pt" viewBox="0 0 170 170" version="1.1" xmlns="http://www.w3.org/2000/svg">
<g id="#664e45ff">
<path fill="#664e45" opacity="1.00" d=" M 45.96 2.28 C 52.52 0.67 59.40 0.10 66.07 1.37 C 65.39 1.54 64.03 1.90 63.35 2.07 C 72.79 6.10 80.78 12.94 87.09 20.96 C 92.91 28.08 99.25 34.87 104.25 42.60 C 104.03 43.05 103.60 43.95 103.39 44.40 C 101.93 44.28 100.41 44.40 99.02 43.90 C 87.14 37.76 77.47 28.23 66.01 21.47 C 66.55 22.65 67.10 23.83 67.64 25.01 C 66.36 24.29 65.07 23.57 63.78 22.84 C 62.01 23.74 60.26 24.67 58.52 25.63 C 54.17 23.82 49.53 22.73 44.84 22.30 C 45.35 22.15 46.37 21.83 46.89 21.68 C 46.64 20.19 46.34 18.71 46.05 17.23 C 43.67 19.35 40.80 20.74 37.81 21.78 C 38.65 21.89 40.31 22.11 41.14 22.22 C 38.64 22.82 35.95 23.22 33.81 24.75 C 31.28 26.90 29.79 29.95 28.18 32.79 C 30.92 34.74 33.77 36.54 36.71 38.17 C 36.17 37.07 35.64 35.98 35.09 34.89 C 36.91 35.49 38.68 36.42 40.63 36.50 C 42.10 35.31 43.60 34.06 45.65 34.39 C 45.11 33.51 44.58 32.64 44.06 31.77 C 46.20 32.71 48.31 33.73 50.39 34.80 C 50.41 34.28 50.44 33.24 50.46 32.72 C 54.25 35.02 57.76 37.74 61.45 40.19 C 61.45 39.56 61.44 38.30 61.43 37.66 C 65.06 40.00 68.29 42.91 71.96 45.18 C 70.27 43.05 68.53 40.94 66.95 38.73 C 68.88 39.84 70.71 41.12 72.31 42.67 C 77.43 47.44 82.80 51.98 87.38 57.28 C 85.95 57.33 84.40 57.79 83.10 56.95 C 73.76 52.07 65.33 45.72 56.56 39.92 C 56.54 40.48 56.50 41.59 56.48 42.14 C 54.66 41.18 52.84 40.22 51.02 39.26 C 48.94 43.85 44.14 39.73 40.88 38.93 C 42.23 40.29 43.59 41.64 44.99 42.96 C 43.10 42.33 41.23 41.58 39.25 41.33 C 37.68 42.29 36.48 43.73 35.02 44.84 C 30.28 43.72 28.72 38.44 25.03 35.79 C 25.52 38.56 26.27 41.27 27.21 43.92 C 24.17 52.39 20.10 60.46 17.01 68.92 C 16.49 68.74 15.45 68.39 14.93 68.21 C 13.52 73.49 13.11 78.95 12.18 84.32 C 11.19 69.91 16.02 55.77 23.52 43.63 C 22.73 43.13 21.91 42.65 21.08 42.21 C 22.19 40.81 23.29 39.40 24.40 38.01 C 23.53 37.13 22.66 36.25 21.79 35.38 C 18.05 40.20 17.19 46.42 14.63 51.84 C 11.59 58.12 10.63 65.12 10.14 72.00 C 10.00 78.32 10.56 84.65 10.06 90.96 C 8.40 85.02 11.26 78.68 8.75 72.88 C 6.37 66.25 8.54 59.02 12.38 53.42 C 13.27 49.02 13.02 44.31 14.82 40.08 C 16.02 36.18 19.04 33.35 21.33 30.11 C 22.55 28.10 25.20 27.57 26.35 25.49 C 27.75 23.37 29.24 21.30 31.03 19.48 L 31.28 19.44 C 32.37 19.32 33.53 19.19 34.32 18.31 C 37.17 15.75 40.27 13.50 43.50 11.46 C 43.61 9.40 44.05 7.39 44.63 5.42 C 42.86 7.05 41.50 9.03 40.21 11.05 C 39.78 11.29 38.92 11.77 38.48 12.01 C 38.57 11.70 38.75 11.08 38.84 10.77 C 39.62 6.80 42.86 4.48 46.61 3.62 C 46.44 3.28 46.12 2.62 45.96 2.28 Z" />
</g>
<g id="#695249ff">
<path fill="#695249" opacity="1.00" d=" M 79.57 2.28 C 85.38 1.12 91.37 -0.54 97.31 0.40 C 101.47 2.30 106.03 3.45 109.79 6.15 C 116.23 10.60 121.14 16.78 126.79 22.11 C 126.92 21.56 127.18 20.46 127.31 19.91 C 133.35 27.34 138.64 35.30 143.42 43.58 C 143.36 44.50 143.27 45.41 143.20 46.33 C 143.71 46.46 144.73 46.71 145.24 46.83 C 144.24 47.94 143.22 49.04 142.17 50.10 C 139.03 52.04 135.39 51.75 131.99 50.75 C 134.24 50.54 136.49 50.35 138.73 50.13 C 139.19 49.65 140.10 48.69 140.55 48.21 C 140.94 48.03 141.72 47.67 142.11 47.49 C 141.21 47.17 140.30 46.86 139.39 46.56 C 139.56 46.17 139.89 45.38 140.06 44.98 C 140.33 44.33 140.61 43.67 140.88 43.02 C 136.20 40.78 133.14 36.15 128.22 34.35 C 123.51 32.54 120.39 28.36 116.47 25.39 C 112.93 22.66 109.68 19.56 106.11 16.88 C 104.90 15.66 103.27 16.74 101.88 16.91 C 103.62 19.74 105.60 22.51 108.40 24.40 C 112.97 30.14 120.15 35.41 119.90 43.47 C 119.46 43.78 118.59 44.40 118.15 44.71 C 117.73 42.77 117.41 40.81 117.24 38.84 C 109.29 35.40 102.80 29.28 96.71 23.24 C 93.43 20.12 91.13 16.18 88.97 12.25 C 89.73 12.06 91.27 11.67 92.04 11.47 C 89.58 9.88 87.10 8.34 84.59 6.83 C 84.51 5.82 84.43 4.81 84.35 3.80 C 83.04 4.96 81.79 6.16 80.59 7.43 C 79.53 6.79 78.44 6.21 77.37 5.61 C 78.10 5.02 78.83 4.42 79.55 3.80 C 79.56 3.49 79.56 2.85 79.57 2.53 L 79.57 2.28 Z" />
</g>
<g id="#967466ff">
<path fill="#967466" opacity="1.00" d=" M 97.31 0.40 C 104.92 0.64 112.62 2.96 118.95 7.22 C 123.96 13.28 129.14 19.19 134.07 25.31 C 137.56 31.12 143.01 36.50 143.42 43.58 C 138.64 35.30 133.35 27.34 127.31 19.91 C 127.18 20.46 126.92 21.56 126.79 22.11 C 121.14 16.78 116.23 10.60 109.79 6.15 C 106.03 3.45 101.47 2.30 97.31 0.40 M 114.68 7.60 C 118.17 11.86 121.97 15.98 126.32 19.35 C 125.59 17.36 124.24 15.73 122.72 14.29 C 120.19 11.89 118.00 8.96 114.68 7.60 Z" />
</g>
<g id="#836455ff">
<path fill="#836455" opacity="1.00" d=" M 37.87 5.95 C 39.80 3.50 43.20 3.24 45.96 2.28 C 46.12 2.62 46.44 3.28 46.61 3.62 C 42.86 4.48 39.62 6.80 38.84 10.77 C 38.38 9.22 37.34 7.61 37.87 5.95 Z" />
<path fill="#836455" opacity="1.00" d=" M 141.80 24.64 C 141.73 24.32 141.59 23.69 141.53 23.38 C 145.29 26.35 148.70 30.04 150.72 34.42 C 150.97 41.22 156.01 47.54 153.76 54.43 C 151.25 44.02 148.49 33.26 141.80 24.64 Z" />
<path fill="#836455" opacity="1.00" d=" M 145.30 42.48 C 148.43 44.45 149.38 48.24 151.09 51.31 C 151.18 51.85 151.36 52.94 151.45 53.49 C 152.13 55.78 149.49 56.86 148.21 58.26 C 148.50 57.13 148.81 56.00 149.11 54.88 C 146.80 51.09 146.40 46.67 145.30 42.48 Z" />
<path fill="#836455" opacity="1.00" d=" M 93.57 60.29 C 92.13 57.44 89.98 54.56 90.46 51.20 C 91.79 53.37 92.99 55.63 93.86 58.03 C 93.79 58.59 93.64 59.72 93.57 60.29 Z" />
<path fill="#836455" opacity="1.00" d=" M 151.04 63.76 L 151.58 64.66 C 152.53 77.63 150.80 90.65 151.93 103.61 C 150.92 109.64 150.76 115.76 151.39 121.84 C 151.38 123.36 152.06 124.71 153.04 125.83 L 153.23 126.10 C 152.88 126.59 152.17 127.58 151.82 128.07 C 150.47 125.14 149.42 122.08 148.12 119.13 C 148.88 118.47 149.65 117.81 150.41 117.16 C 150.65 99.35 151.72 81.57 151.04 63.76 Z" />
</g>
<g id="#775a50ff">
<path fill="#775a50" opacity="1.00" d=" M 63.35 2.07 C 64.03 1.90 65.39 1.54 66.07 1.37 C 69.18 1.83 72.16 2.88 75.10 3.96 C 76.58 3.47 78.07 2.98 79.57 2.53 C 79.56 2.85 79.56 3.49 79.55 3.80 C 78.83 4.42 78.10 5.02 77.37 5.61 C 78.44 6.21 79.53 6.79 80.59 7.43 C 90.12 13.52 93.44 24.93 99.98 33.54 C 101.40 35.51 102.86 37.46 104.50 39.25 C 105.10 40.38 105.70 41.50 106.31 42.63 C 105.73 44.04 105.14 45.44 104.57 46.85 C 103.98 46.87 102.79 46.91 102.20 46.93 C 102.59 46.08 102.98 45.24 103.39 44.40 C 103.60 43.95 104.03 43.05 104.25 42.60 C 99.25 34.87 92.91 28.08 87.09 20.96 C 80.78 12.94 72.79 6.10 63.35 2.07 Z" />
</g>
<g id="#513e37ff">
<path fill="#513e37" opacity="1.00" d=" M 80.59 7.43 C 81.79 6.16 83.04 4.96 84.35 3.80 C 84.43 4.81 84.51 5.82 84.59 6.83 C 87.10 8.34 89.58 9.88 92.04 11.47 C 91.27 11.67 89.73 12.06 88.97 12.25 C 91.13 16.18 93.43 20.12 96.71 23.24 C 102.80 29.28 109.29 35.40 117.24 38.84 C 117.41 40.81 117.73 42.77 118.15 44.71 C 117.29 45.30 116.41 45.88 115.53 46.44 C 115.10 46.38 114.24 46.26 113.82 46.21 C 114.97 45.15 116.12 44.10 117.29 43.06 C 113.08 40.87 108.57 39.11 104.92 35.99 C 103.44 34.90 102.04 33.25 99.98 33.54 C 93.44 24.93 90.12 13.52 80.59 7.43 Z" />
</g>
<g id="#87675afc">
<path fill="#87675a" opacity="1.00" d=" M 40.21 11.05 C 41.50 9.03 42.86 7.05 44.63 5.42 C 44.05 7.39 43.61 9.40 43.50 11.46 C 40.27 13.50 37.17 15.75 34.32 18.31 C 33.53 19.19 32.37 19.32 31.28 19.44 C 33.62 16.93 35.39 13.70 38.48 12.01 C 38.92 11.77 39.78 11.29 40.21 11.05 Z" />
</g>
<g id="#795c51ff">
<path fill="#795c51" opacity="1.00" d=" M 114.68 7.60 C 118.00 8.96 120.19 11.89 122.72 14.29 C 124.24 15.73 125.59 17.36 126.32 19.35 C 121.97 15.98 118.17 11.86 114.68 7.60 Z" />
</g>
<g id="#6e5344ff">
<path fill="#6e5344" opacity="1.00" d=" M 118.95 7.22 C 123.27 9.26 126.56 12.80 129.92 16.07 C 132.14 18.25 135.45 18.78 137.74 20.86 C 144.05 30.03 149.23 40.23 151.09 51.31 C 149.38 48.24 148.43 44.45 145.30 42.48 C 141.62 34.55 137.81 26.45 132.01 19.83 C 132.65 21.67 133.32 23.51 134.07 25.31 C 129.14 19.19 123.96 13.28 118.95 7.22 Z" />
</g>
<g id="#59473eff">
<path fill="#59473e" opacity="1.00" d=" M 101.88 16.91 C 103.27 16.74 104.90 15.66 106.11 16.88 C 109.68 19.56 112.93 22.66 116.47 25.39 C 120.39 28.36 123.51 32.54 128.22 34.35 C 133.14 36.15 136.20 40.78 140.88 43.02 C 140.61 43.67 140.33 44.33 140.06 44.98 C 138.02 44.63 135.97 44.10 134.24 42.91 C 126.78 38.11 119.25 33.27 112.70 27.24 C 111.43 26.06 109.94 25.18 108.40 24.40 C 105.60 22.51 103.62 19.74 101.88 16.91 Z" />
</g>
<g id="#48362fff">
<path fill="#48362f" opacity="1.00" d=" M 37.81 21.78 C 40.80 20.74 43.67 19.35 46.05 17.23 C 46.34 18.71 46.64 20.19 46.89 21.68 C 46.37 21.83 45.35 22.15 44.84 22.30 C 43.61 22.28 42.37 22.25 41.14 22.22 C 40.31 22.11 38.65 21.89 37.81 21.78 Z" />
</g>
<g id="#4f3c36ff">
<path fill="#4f3c36" opacity="1.00" d=" M 132.01 19.83 C 137.81 26.45 141.62 34.55 145.30 42.48 C 146.40 46.67 146.80 51.09 149.11 54.88 C 148.81 56.00 148.50 57.13 148.21 58.26 C 149.49 56.86 152.13 55.78 151.45 53.49 C 151.36 52.94 151.18 51.85 151.09 51.31 C 149.23 40.23 144.05 30.03 137.74 20.86 C 138.99 21.55 140.23 22.27 141.45 23.01 L 141.53 23.38 C 141.59 23.69 141.73 24.32 141.80 24.64 C 148.49 33.26 151.25 44.02 153.76 54.43 C 156.01 47.54 150.97 41.22 150.72 34.42 C 153.12 37.44 154.08 41.25 155.16 44.88 C 156.26 49.13 157.13 53.68 155.87 57.99 C 155.03 60.56 155.31 63.31 155.96 65.89 C 157.34 71.23 156.94 76.79 156.87 82.24 C 156.22 77.99 155.63 73.60 153.47 69.79 C 153.36 79.90 155.85 89.83 155.70 99.95 C 156.17 106.52 154.52 113.10 155.67 119.64 C 155.44 121.85 154.69 124.24 153.04 125.83 C 153.79 118.43 153.45 110.89 151.93 103.61 C 150.80 90.65 152.53 77.63 151.58 64.66 L 151.04 63.76 C 150.91 63.54 150.65 63.09 150.52 62.87 C 150.66 62.34 150.95 61.27 151.09 60.73 C 149.46 61.21 147.83 61.68 146.19 62.15 C 146.64 61.17 147.10 60.19 147.56 59.20 C 145.61 56.84 143.51 54.60 141.22 52.55 C 141.91 51.58 142.59 50.60 143.28 49.62 L 142.17 50.10 C 143.22 49.04 144.24 47.94 145.24 46.83 C 144.73 46.71 143.71 46.46 143.20 46.33 C 143.27 45.41 143.36 44.50 143.42 43.58 C 143.01 36.50 137.56 31.12 134.07 25.31 C 133.32 23.51 132.65 21.67 132.01 19.83 Z" />
</g>
<g id="#72594fff">
<path fill="#72594f" opacity="1.00" d=" M 41.14 22.22 C 42.37 22.25 43.61 22.28 44.84 22.30 C 49.53 22.73 54.17 23.82 58.52 25.63 C 60.60 26.71 62.48 28.09 64.31 29.53 C 65.81 32.63 68.85 34.52 71.16 36.95 C 75.40 40.90 79.05 45.45 83.39 49.29 L 84.93 49.24 C 88.87 52.29 91.68 57.19 90.56 62.28 C 91.39 62.41 92.22 62.54 93.06 62.68 C 92.72 63.40 92.39 64.12 92.06 64.85 C 90.07 66.68 87.81 68.21 85.34 69.32 C 83.95 69.01 82.57 68.70 81.18 68.41 C 84.00 68.09 86.74 67.24 88.71 65.08 C 89.12 64.89 89.94 64.51 90.35 64.31 C 89.32 63.68 88.28 63.06 87.25 62.43 L 87.21 62.10 C 87.70 61.00 88.23 59.93 88.75 58.85 C 88.29 58.32 87.84 57.80 87.38 57.28 C 82.80 51.98 77.43 47.44 72.31 42.67 C 70.71 41.12 68.88 39.84 66.95 38.73 C 68.53 40.94 70.27 43.05 71.96 45.18 C 68.29 42.91 65.06 40.00 61.43 37.66 C 61.44 38.30 61.45 39.56 61.45 40.19 C 57.76 37.74 54.25 35.02 50.46 32.72 C 50.44 33.24 50.41 34.28 50.39 34.80 C 48.31 33.73 46.20 32.71 44.06 31.77 C 44.58 32.64 45.11 33.51 45.65 34.39 C 43.60 34.06 42.10 35.31 40.63 36.50 C 38.68 36.42 36.91 35.49 35.09 34.89 C 35.64 35.98 36.17 37.07 36.71 38.17 C 33.77 36.54 30.92 34.74 28.18 32.79 C 29.79 29.95 31.28 26.90 33.81 24.75 C 35.95 23.22 38.64 22.82 41.14 22.22 Z" />
</g>
<g id="#4e3a33ff">
<path fill="#4e3a33" opacity="1.00" d=" M 66.01 21.47 C 77.47 28.23 87.14 37.76 99.02 43.90 C 100.41 44.40 101.93 44.28 103.39 44.40 C 102.98 45.24 102.59 46.08 102.20 46.93 C 102.79 46.91 103.98 46.87 104.57 46.85 C 105.14 45.44 105.73 44.04 106.31 42.63 C 106.94 43.80 107.59 44.95 108.31 46.06 C 107.93 47.99 107.85 50.04 106.96 51.83 C 105.88 53.39 103.80 53.46 102.15 54.05 C 103.61 52.67 105.07 51.30 106.52 49.92 C 104.01 51.04 101.50 52.17 98.91 53.06 C 97.29 52.63 95.88 51.75 94.62 50.68 C 97.50 50.40 100.72 50.82 103.02 48.69 C 102.74 48.53 102.18 48.22 101.90 48.06 C 97.55 45.30 92.76 43.31 88.43 40.51 C 83.78 37.84 79.63 34.17 74.42 32.58 C 71.67 31.74 68.95 29.99 65.98 30.77 C 65.56 30.46 64.73 29.84 64.31 29.53 C 62.48 28.09 60.60 26.71 58.52 25.63 C 60.26 24.67 62.01 23.74 63.78 22.84 C 65.07 23.57 66.36 24.29 67.64 25.01 C 67.10 23.83 66.55 22.65 66.01 21.47 Z" />
</g>
<g id="#3a2a25ff">
<path fill="#3a2a25" opacity="1.00" d=" M 108.40 24.40 C 109.94 25.18 111.43 26.06 112.70 27.24 C 119.25 33.27 126.78 38.11 134.24 42.91 C 135.97 44.10 138.02 44.63 140.06 44.98 C 139.89 45.38 139.56 46.17 139.39 46.56 C 140.30 46.86 141.21 47.17 142.11 47.49 C 141.72 47.67 140.94 48.03 140.55 48.21 C 133.83 49.11 127.48 45.74 121.98 42.25 L 121.58 42.02 C 120.83 43.45 120.45 45.12 119.35 46.34 C 118.21 47.10 116.78 46.43 115.53 46.44 C 116.41 45.88 117.29 45.30 118.15 44.71 C 118.59 44.40 119.46 43.78 119.90 43.47 C 120.15 35.41 112.97 30.14 108.40 24.40 Z" />
</g>
<g id="#ba8c7aff">
<path fill="#ba8c7a" opacity="1.00" d=" M 71.16 36.95 C 68.85 34.52 65.81 32.63 64.31 29.53 C 64.73 29.84 65.56 30.46 65.98 30.77 C 68.91 33.05 71.72 35.49 74.31 38.16 C 77.84 41.86 81.00 45.93 84.93 49.24 L 83.39 49.29 C 79.05 45.45 75.40 40.90 71.16 36.95 Z" />
<path fill="#ba8c7a" opacity="1.00" d=" M 42.81 74.86 C 45.09 71.35 47.51 67.89 50.46 64.89 C 50.84 65.04 51.59 65.33 51.97 65.47 C 55.91 67.34 59.95 69.05 64.21 70.04 C 64.94 70.21 66.41 70.55 67.14 70.72 C 66.61 70.85 65.54 71.12 65.00 71.25 C 68.97 73.29 73.09 75.56 77.67 75.62 C 82.88 75.78 88.16 75.73 93.30 74.72 C 96.90 74.16 98.39 69.65 102.10 69.39 C 106.69 69.07 111.31 69.31 115.89 68.79 C 118.97 68.35 122.00 69.69 124.29 71.69 C 128.60 75.54 132.56 80.30 133.39 86.22 C 130.28 80.99 126.27 74.96 119.62 74.36 C 112.99 73.16 106.30 76.07 101.57 80.63 C 99.84 82.00 98.33 84.09 96.04 84.46 C 89.27 84.28 83.66 79.93 77.20 78.48 C 69.25 75.39 61.46 71.77 53.97 67.69 C 53.35 67.56 52.13 67.29 51.51 67.15 C 44.84 71.94 43.31 80.67 37.78 86.40 C 39.04 83.04 40.45 79.75 41.98 76.51 C 42.25 75.96 42.53 75.41 42.81 74.86 Z" />
</g>
<g id="#382823ff">
<path fill="#382823" opacity="1.00" d=" M 65.98 30.77 C 68.95 29.99 71.67 31.74 74.42 32.58 C 79.63 34.17 83.78 37.84 88.43 40.51 C 92.76 43.31 97.55 45.30 101.90 48.06 C 101.16 48.39 99.67 49.05 98.93 49.38 C 92.63 47.46 86.43 44.84 81.17 40.83 C 79.86 39.87 78.50 38.96 77.04 38.25 C 76.36 38.23 74.99 38.18 74.31 38.16 C 71.72 35.49 68.91 33.05 65.98 30.77 Z" />
</g>
<g id="#31221cff">
<path fill="#31221c" opacity="1.00" d=" M 99.98 33.54 C 102.04 33.25 103.44 34.90 104.92 35.99 C 108.57 39.11 113.08 40.87 117.29 43.06 C 116.12 44.10 114.97 45.15 113.82 46.21 C 109.75 45.28 107.93 41.18 104.50 39.25 C 102.86 37.46 101.40 35.51 99.98 33.54 Z" />
</g>
<g id="#775b50ff">
<path fill="#775b50" opacity="1.00" d=" M 14.63 51.84 C 17.19 46.42 18.05 40.20 21.79 35.38 C 22.66 36.25 23.53 37.13 24.40 38.01 C 23.29 39.40 22.19 40.81 21.08 42.21 C 21.91 42.65 22.73 43.13 23.52 43.63 C 16.02 55.77 11.19 69.91 12.18 84.32 C 11.97 87.56 11.61 90.95 12.93 94.03 C 13.80 94.40 14.67 94.74 15.54 95.09 C 15.23 88.60 16.12 82.14 17.46 75.80 C 18.15 71.58 21.41 68.45 22.63 64.41 C 23.55 62.06 24.43 59.70 25.34 57.34 C 27.17 62.18 23.35 66.68 22.60 71.37 C 20.26 83.75 18.52 96.35 18.99 108.98 C 19.08 111.82 18.74 114.64 18.38 117.45 C 16.24 110.38 16.86 102.59 13.21 95.98 C 13.49 100.93 13.29 105.94 14.42 110.80 C 15.17 114.19 15.63 117.63 15.83 121.09 C 15.38 120.83 14.50 120.31 14.06 120.04 C 13.07 115.71 12.94 111.16 11.16 107.03 C 9.09 101.92 9.35 96.31 10.06 90.96 C 10.56 84.65 10.00 78.32 10.14 72.00 C 10.63 65.12 11.59 58.12 14.63 51.84 Z" />
<path fill="#775b50" opacity="1.00" d=" M 25.68 88.36 C 25.91 88.07 26.37 87.48 26.60 87.19 C 26.38 95.54 24.43 103.73 23.38 112.00 C 23.54 104.07 25.11 96.26 25.68 88.36 Z" />
</g>
<g id="#58433bff">
<path fill="#58433b" opacity="1.00" d=" M 25.03 35.79 C 28.72 38.44 30.28 43.72 35.02 44.84 C 36.48 43.73 37.68 42.29 39.25 41.33 C 41.23 41.58 43.10 42.33 44.99 42.96 C 43.59 41.64 42.23 40.29 40.88 38.93 C 44.14 39.73 48.94 43.85 51.02 39.26 C 52.84 40.22 54.66 41.18 56.48 42.14 C 56.50 41.59 56.54 40.48 56.56 39.92 C 65.33 45.72 73.76 52.07 83.10 56.95 C 84.40 57.79 85.95 57.33 87.38 57.28 C 87.84 57.80 88.29 58.32 88.75 58.85 C 88.23 59.93 87.70 61.00 87.21 62.10 C 87.13 61.64 86.97 60.72 86.89 60.26 C 86.31 60.72 85.72 61.17 85.14 61.63 C 73.38 57.02 62.54 50.41 51.15 45.02 C 52.51 46.41 53.88 47.79 55.25 49.18 C 51.45 47.70 47.56 46.26 43.42 46.29 C 43.95 47.27 44.48 48.25 45.00 49.24 C 42.36 50.18 39.57 49.97 36.85 49.54 C 37.52 52.58 42.18 54.60 40.29 57.82 C 38.97 56.66 37.69 55.45 36.40 54.25 C 36.36 54.45 36.28 54.86 36.24 55.07 C 35.73 56.24 35.19 57.39 34.70 58.57 C 33.77 58.92 32.83 59.27 31.89 59.62 C 32.40 56.61 33.34 53.65 35.45 51.36 C 34.31 49.64 33.11 47.96 31.83 46.34 C 31.39 46.41 30.53 46.55 30.10 46.62 C 29.69 45.55 29.28 44.48 28.87 43.40 C 28.45 43.53 27.63 43.79 27.21 43.92 C 26.27 41.27 25.52 38.56 25.03 35.79 Z" />
</g>
<g id="#532d21ff">
<path fill="#532d21" opacity="1.00" d=" M 74.31 38.16 C 74.99 38.18 76.36 38.23 77.04 38.25 C 79.60 40.53 81.85 43.15 84.60 45.23 C 86.82 46.93 89.07 48.72 90.46 51.20 C 89.98 54.56 92.13 57.44 93.57 60.29 C 93.64 59.72 93.79 58.59 93.86 58.03 C 97.09 59.46 100.24 61.09 103.33 62.81 C 100.63 62.73 97.92 62.65 95.23 62.38 C 94.81 63.72 94.40 65.07 93.95 66.40 C 92.81 67.89 91.43 69.18 89.88 70.25 C 90.57 68.43 91.27 66.62 92.06 64.85 C 92.39 64.12 92.72 63.40 93.06 62.68 C 92.22 62.54 91.39 62.41 90.56 62.28 C 91.68 57.19 88.87 52.29 84.93 49.24 C 81.00 45.93 77.84 41.86 74.31 38.16 Z" />
</g>
<g id="#0a0301ff">
<path fill="#0a0301" opacity="1.00" d=" M 77.04 38.25 C 78.50 38.96 79.86 39.87 81.17 40.83 C 86.43 44.84 92.63 47.46 98.93 49.38 C 99.67 49.05 101.16 48.39 101.90 48.06 C 102.18 48.22 102.74 48.53 103.02 48.69 C 100.72 50.82 97.50 50.40 94.62 50.68 C 95.88 51.75 97.29 52.63 98.91 53.06 C 98.76 53.46 98.47 54.25 98.33 54.65 C 100.55 54.97 103.02 54.74 104.96 56.05 C 107.85 57.35 106.97 61.97 110.77 61.96 C 112.10 62.38 113.44 62.78 114.79 63.16 C 110.97 63.57 107.12 63.47 103.33 62.81 C 100.24 61.09 97.09 59.46 93.86 58.03 C 92.99 55.63 91.79 53.37 90.46 51.20 C 89.07 48.72 86.82 46.93 84.60 45.23 C 81.85 43.15 79.60 40.53 77.04 38.25 Z" />
<path fill="#0a0301" opacity="1.00" d=" M 17.92 70.14 C 18.92 67.86 20.08 65.27 22.63 64.41 C 21.41 68.45 18.15 71.58 17.46 75.80 C 16.12 82.14 15.23 88.60 15.54 95.09 C 14.67 94.74 13.80 94.40 12.93 94.03 C 15.00 89.25 15.21 83.98 16.41 78.97 C 17.07 76.06 17.65 73.12 17.92 70.14 Z" />
</g>
<g id="#0e0402ff">
<path fill="#0e0402" opacity="1.00" d=" M 104.50 39.25 C 107.93 41.18 109.75 45.28 113.82 46.21 C 114.24 46.26 115.10 46.38 115.53 46.44 C 116.78 46.43 118.21 47.10 119.35 46.34 C 120.45 45.12 120.83 43.45 121.58 42.02 L 121.98 42.25 C 122.18 44.24 122.15 46.28 122.74 48.21 C 124.06 50.46 126.77 51.04 129.11 51.65 C 133.05 52.45 136.58 54.88 140.74 54.57 C 142.15 56.77 143.20 59.18 143.83 61.72 C 145.37 62.41 146.89 63.16 148.45 63.83 C 145.77 64.31 143.05 64.45 140.34 64.53 C 139.85 66.64 139.50 68.80 139.91 70.96 C 141.20 79.99 142.46 89.29 146.77 97.47 C 144.87 98.16 142.98 98.86 141.10 99.59 C 141.96 104.67 143.20 109.68 144.85 114.57 C 142.55 119.60 146.74 124.13 148.34 128.67 L 147.04 127.81 C 145.95 127.11 144.83 126.47 143.67 125.92 C 143.05 126.17 141.80 126.66 141.18 126.91 C 141.58 122.69 142.10 118.40 141.17 114.21 C 140.70 114.80 139.75 115.98 139.28 116.56 C 139.48 112.15 139.37 107.66 138.89 103.24 C 138.86 97.56 137.01 92.13 136.38 86.53 C 136.54 80.92 135.33 75.41 133.96 70.00 C 132.76 64.97 129.25 60.79 125.14 57.78 C 123.55 56.42 121.33 57.12 119.45 57.01 C 118.69 56.24 117.96 55.46 117.24 54.65 C 119.72 54.54 122.19 54.47 124.67 54.42 C 124.66 54.22 124.64 53.81 124.63 53.60 C 122.41 53.55 120.16 53.63 117.96 53.24 C 115.62 52.35 113.91 50.39 111.91 48.94 C 110.71 47.98 109.47 47.07 108.31 46.06 C 107.59 44.95 106.94 43.80 106.31 42.63 C 105.70 41.50 105.10 40.38 104.50 39.25 Z" />
<path fill="#0e0402" opacity="1.00" d=" M 36.50 82.98 C 36.84 80.01 38.68 76.73 41.98 76.51 C 40.45 79.75 39.04 83.04 37.78 86.40 C 37.34 87.39 36.92 88.39 36.50 89.39 C 35.89 90.83 35.26 92.27 34.65 93.72 C 33.67 90.02 36.12 86.61 36.50 82.98 Z" />
</g>
<g id="#291b17ff">
<path fill="#291b17" opacity="1.00" d=" M 121.98 42.25 C 127.48 45.74 133.83 49.11 140.55 48.21 C 140.10 48.69 139.19 49.65 138.73 50.13 C 136.49 50.35 134.24 50.54 131.99 50.75 C 135.39 51.75 139.03 52.04 142.17 50.10 L 143.28 49.62 C 142.59 50.60 141.91 51.58 141.22 52.55 C 143.51 54.60 145.61 56.84 147.56 59.20 C 147.10 60.19 146.64 61.17 146.19 62.15 C 147.83 61.68 149.46 61.21 151.09 60.73 C 150.95 61.27 150.66 62.34 150.52 62.87 C 150.00 63.11 148.97 63.59 148.45 63.83 C 146.89 63.16 145.37 62.41 143.83 61.72 C 143.20 59.18 142.15 56.77 140.74 54.57 C 136.58 54.88 133.05 52.45 129.11 51.65 C 126.77 51.04 124.06 50.46 122.74 48.21 C 122.15 46.28 122.18 44.24 121.98 42.25 Z" />
</g>
<g id="#30221fff">
<path fill="#30221f" opacity="1.00" d=" M 27.21 43.92 C 27.63 43.79 28.45 43.53 28.87 43.40 C 29.28 44.48 29.69 45.55 30.10 46.62 C 28.32 50.11 26.65 53.65 25.34 57.34 C 24.43 59.70 23.55 62.06 22.63 64.41 C 20.08 65.27 18.92 67.86 17.92 70.14 C 17.69 69.83 17.24 69.23 17.01 68.92 C 20.10 60.46 24.17 52.39 27.21 43.92 Z" />
</g>
<g id="#42302aff">
<path fill="#42302a" opacity="1.00" d=" M 51.15 45.02 C 62.54 50.41 73.38 57.02 85.14 61.63 C 85.72 61.17 86.31 60.72 86.89 60.26 C 86.97 60.72 87.13 61.64 87.21 62.10 L 87.25 62.43 C 88.28 63.06 89.32 63.68 90.35 64.31 C 89.94 64.51 89.12 64.89 88.71 65.08 C 82.67 65.97 76.86 63.80 70.98 62.85 C 69.22 62.37 67.57 63.17 65.95 63.76 C 66.50 64.41 67.04 65.07 67.58 65.73 C 64.42 66.13 61.14 66.95 58.02 65.85 C 56.04 65.50 53.88 64.10 51.97 65.47 C 51.59 65.33 50.84 65.04 50.46 64.89 C 47.51 67.89 45.09 71.35 42.81 74.86 C 43.53 73.14 44.17 71.40 44.93 69.70 C 46.20 67.66 47.67 65.75 49.11 63.83 C 46.57 62.12 43.94 60.57 41.46 58.78 C 41.16 58.54 40.58 58.06 40.29 57.82 C 42.18 54.60 37.52 52.58 36.85 49.54 C 39.57 49.97 42.36 50.18 45.00 49.24 C 44.48 48.25 43.95 47.27 43.42 46.29 C 47.56 46.26 51.45 47.70 55.25 49.18 C 53.88 47.79 52.51 46.41 51.15 45.02 Z" />
</g>
<g id="#654d45ff">
<path fill="#654d45" opacity="1.00" d=" M 30.10 46.62 C 30.53 46.55 31.39 46.41 31.83 46.34 C 33.11 47.96 34.31 49.64 35.45 51.36 C 33.34 53.65 32.40 56.61 31.89 59.62 C 32.83 59.27 33.77 58.92 34.70 58.57 C 31.33 67.58 29.90 77.26 25.62 85.95 C 24.83 85.01 24.04 84.08 23.25 83.14 C 21.80 94.68 20.28 106.28 20.55 117.93 C 20.55 120.19 20.89 122.45 21.66 124.57 L 21.84 125.11 C 21.98 125.47 22.25 126.19 22.38 126.55 L 22.53 126.89 C 20.99 131.22 25.50 135.00 24.43 139.50 C 21.19 135.64 20.37 130.58 18.38 126.09 C 20.03 123.40 18.76 120.31 18.38 117.45 C 18.74 114.64 19.08 111.82 18.99 108.98 C 18.52 96.35 20.26 83.75 22.60 71.37 C 23.35 66.68 27.17 62.18 25.34 57.34 C 26.65 53.65 28.32 50.11 30.10 46.62 Z" />
</g>
<g id="#231816ff">
<path fill="#231816" opacity="1.00" d=" M 108.31 46.06 C 109.47 47.07 110.71 47.98 111.91 48.94 C 110.07 50.14 108.55 51.74 107.22 53.48 C 109.37 55.26 111.45 57.13 113.45 59.09 C 112.56 60.04 111.66 61.00 110.77 61.96 C 106.97 61.97 107.85 57.35 104.96 56.05 C 103.02 54.74 100.55 54.97 98.33 54.65 C 98.47 54.25 98.76 53.46 98.91 53.06 C 101.50 52.17 104.01 51.04 106.52 49.92 C 105.07 51.30 103.61 52.67 102.15 54.05 C 103.80 53.46 105.88 53.39 106.96 51.83 C 107.85 50.04 107.93 47.99 108.31 46.06 Z" />
</g>
<g id="#40312dff">
<path fill="#40312d" opacity="1.00" d=" M 107.22 53.48 C 108.55 51.74 110.07 50.14 111.91 48.94 C 113.91 50.39 115.62 52.35 117.96 53.24 C 120.16 53.63 122.41 53.55 124.63 53.60 C 124.64 53.81 124.66 54.22 124.67 54.42 C 122.19 54.47 119.72 54.54 117.24 54.65 C 117.96 55.46 118.69 56.24 119.45 57.01 C 122.12 59.24 125.59 60.70 127.23 63.96 C 124.56 62.14 121.80 60.42 118.81 59.15 C 118.49 59.66 117.85 60.67 117.53 61.18 C 116.87 61.91 116.16 62.59 115.42 63.24 L 114.79 63.16 C 113.44 62.78 112.10 62.38 110.77 61.96 C 111.66 61.00 112.56 60.04 113.45 59.09 C 111.45 57.13 109.37 55.26 107.22 53.48 M 115.04 53.99 C 114.58 56.47 114.86 59.07 113.96 61.46 C 114.89 60.93 115.82 60.40 116.76 59.88 C 116.54 58.32 116.37 56.75 116.29 55.18 C 115.98 54.88 115.35 54.29 115.04 53.99 Z" />
</g>
<g id="#271916ff">
<path fill="#271916" opacity="1.00" d=" M 36.40 54.25 C 37.69 55.45 38.97 56.66 40.29 57.82 C 40.58 58.06 41.16 58.54 41.46 58.78 C 41.27 61.63 40.92 64.47 40.40 67.28 C 41.97 67.97 43.48 68.78 44.93 69.70 C 44.17 71.40 43.53 73.14 42.81 74.86 C 42.53 75.41 42.25 75.96 41.98 76.51 C 38.68 76.73 36.84 80.01 36.50 82.98 C 36.12 86.61 33.67 90.02 34.65 93.72 C 34.32 94.56 34.01 95.41 33.70 96.26 C 33.41 95.96 32.83 95.36 32.54 95.06 C 30.45 100.87 28.68 106.82 27.71 112.93 C 26.87 117.27 26.71 122.34 22.85 125.25 L 21.84 125.11 L 21.66 124.57 C 24.37 119.59 24.92 113.89 26.48 108.53 C 28.19 102.27 29.48 95.90 30.62 89.52 C 29.52 88.48 28.39 87.47 27.38 86.35 C 29.12 83.50 31.88 81.36 33.29 78.28 C 35.52 73.53 37.78 68.65 38.35 63.39 C 35.49 66.44 34.15 70.47 32.06 74.03 C 33.06 69.08 35.42 64.58 36.83 59.76 C 37.44 58.17 36.58 56.60 36.24 55.07 C 36.28 54.86 36.36 54.45 36.40 54.25 Z" />
</g>
<g id="#5e4940ff">
<path fill="#5e4940" opacity="1.00" d=" M 115.04 53.99 C 115.35 54.29 115.98 54.88 116.29 55.18 C 116.37 56.75 116.54 58.32 116.76 59.88 C 115.82 60.40 114.89 60.93 113.96 61.46 C 114.86 59.07 114.58 56.47 115.04 53.99 Z" />
</g>
<g id="#42312aff">
<path fill="#42312a" opacity="1.00" d=" M 34.70 58.57 C 35.19 57.39 35.73 56.24 36.24 55.07 C 36.58 56.60 37.44 58.17 36.83 59.76 C 35.42 64.58 33.06 69.08 32.06 74.03 C 34.15 70.47 35.49 66.44 38.35 63.39 C 37.78 68.65 35.52 73.53 33.29 78.28 C 31.88 81.36 29.12 83.50 27.38 86.35 C 28.39 87.47 29.52 88.48 30.62 89.52 C 29.48 95.90 28.19 102.27 26.48 108.53 C 24.92 113.89 24.37 119.59 21.66 124.57 C 20.89 122.45 20.55 120.19 20.55 117.93 C 20.28 106.28 21.80 94.68 23.25 83.14 C 24.04 84.08 24.83 85.01 25.62 85.95 C 29.90 77.26 31.33 67.58 34.70 58.57 M 25.68 88.36 C 25.11 96.26 23.54 104.07 23.38 112.00 C 24.43 103.73 26.38 95.54 26.60 87.19 C 26.37 87.48 25.91 88.07 25.68 88.36 Z" />
</g>
<g id="#341000ff">
<path fill="#341000" opacity="1.00" d=" M 119.45 57.01 C 121.33 57.12 123.55 56.42 125.14 57.78 C 129.25 60.79 132.76 64.97 133.96 70.00 C 135.33 75.41 136.54 80.92 136.38 86.53 C 134.60 83.29 133.43 79.77 132.33 76.26 C 131.47 71.86 129.69 67.70 127.23 63.96 C 125.59 60.70 122.12 59.24 119.45 57.01 Z" />
<path fill="#341000" opacity="1.00" d=" M 55.95 126.87 C 59.78 127.60 63.41 126.19 66.29 123.71 C 64.21 125.83 61.69 127.67 58.54 127.48 C 57.89 127.33 56.60 127.02 55.95 126.87 Z" />
</g>
<g id="#0e0502ff">
<path fill="#0e0502" opacity="1.00" d=" M 41.46 58.78 C 43.94 60.57 46.57 62.12 49.11 63.83 C 47.67 65.75 46.20 67.66 44.93 69.70 C 43.48 68.78 41.97 67.97 40.40 67.28 C 40.92 64.47 41.27 61.63 41.46 58.78 Z" />
<path fill="#0e0502" opacity="1.00" d=" M 85.34 69.32 C 87.81 68.21 90.07 66.68 92.06 64.85 C 91.27 66.62 90.57 68.43 89.88 70.25 C 82.60 73.24 74.62 72.37 67.14 70.72 C 66.41 70.55 64.94 70.21 64.21 70.04 C 71.11 68.18 78.37 71.32 85.34 69.32 Z" />
</g>
<g id="#684134ff">
<path fill="#684134" opacity="1.00" d=" M 118.81 59.15 C 121.80 60.42 124.56 62.14 127.23 63.96 C 129.69 67.70 131.47 71.86 132.33 76.26 C 129.98 73.64 128.40 70.48 126.39 67.63 C 123.78 65.05 120.49 63.30 117.53 61.18 C 117.85 60.67 118.49 59.66 118.81 59.15 Z" />
</g>
<g id="#9a6e5fff">
<path fill="#9a6e5f" opacity="1.00" d=" M 115.42 63.24 C 116.16 62.59 116.87 61.91 117.53 61.18 C 120.49 63.30 123.78 65.05 126.39 67.63 C 128.40 70.48 129.98 73.64 132.33 76.26 C 133.43 79.77 134.60 83.29 136.38 86.53 C 137.01 92.13 138.86 97.56 138.89 103.24 C 136.72 97.68 134.60 92.09 133.39 86.22 C 132.56 80.30 128.60 75.54 124.29 71.69 C 122.00 69.69 118.97 68.35 115.89 68.79 C 111.31 69.31 106.69 69.07 102.10 69.39 C 98.39 69.65 96.90 74.16 93.30 74.72 C 88.16 75.73 82.88 75.78 77.67 75.62 C 73.09 75.56 68.97 73.29 65.00 71.25 C 65.54 71.12 66.61 70.85 67.14 70.72 C 74.62 72.37 82.60 73.24 89.88 70.25 C 91.43 69.18 92.81 67.89 93.95 66.40 C 101.29 66.77 108.29 64.57 115.42 63.24 Z" />
</g>
<g id="#7d5344ff">
<path fill="#7d5344" opacity="1.00" d=" M 95.23 62.38 C 97.92 62.65 100.63 62.73 103.33 62.81 C 107.12 63.47 110.97 63.57 114.79 63.16 L 115.42 63.24 C 108.29 64.57 101.29 66.77 93.95 66.40 C 94.40 65.07 94.81 63.72 95.23 62.38 Z" />
</g>
<g id="#2e1f1bff">
<path fill="#2e1f1b" opacity="1.00" d=" M 65.95 63.76 C 67.57 63.17 69.22 62.37 70.98 62.85 C 76.86 63.80 82.67 65.97 88.71 65.08 C 86.74 67.24 84.00 68.09 81.18 68.41 C 82.57 68.70 83.95 69.01 85.34 69.32 C 78.37 71.32 71.11 68.18 64.21 70.04 C 59.95 69.05 55.91 67.34 51.97 65.47 C 53.88 64.10 56.04 65.50 58.02 65.85 C 61.14 66.95 64.42 66.13 67.58 65.73 C 67.04 65.07 66.50 64.41 65.95 63.76 Z" />
</g>
<g id="#463732ff">
<path fill="#463732" opacity="1.00" d=" M 148.45 63.83 C 148.97 63.59 150.00 63.11 150.52 62.87 C 150.65 63.09 150.91 63.54 151.04 63.76 C 151.72 81.57 150.65 99.35 150.41 117.16 C 149.65 117.81 148.88 118.47 148.12 119.13 C 147.06 117.59 145.90 116.12 144.85 114.57 C 143.20 109.68 141.96 104.67 141.10 99.59 C 142.98 98.86 144.87 98.16 146.77 97.47 C 142.46 89.29 141.20 79.99 139.91 70.96 C 139.50 68.80 139.85 66.64 140.34 64.53 C 143.05 64.45 145.77 64.31 148.45 63.83 M 146.23 64.82 C 146.96 71.46 146.04 78.18 147.21 84.78 C 147.78 88.56 147.56 92.42 148.20 96.20 C 149.62 94.08 149.31 91.43 149.36 89.01 C 149.20 81.14 149.44 73.21 148.47 65.40 C 147.91 65.25 146.79 64.97 146.23 64.82 M 146.26 99.11 C 146.66 103.72 146.67 108.36 147.38 112.93 C 147.51 114.12 147.96 115.27 148.84 116.11 C 149.57 110.09 148.86 104.01 148.84 97.96 C 147.98 98.35 147.12 98.73 146.26 99.11 Z" />
</g>
<g id="#6f5548ff">
<path fill="#6f5548" opacity="1.00" d=" M 146.23 64.82 C 146.79 64.97 147.91 65.25 148.47 65.40 C 149.44 73.21 149.20 81.14 149.36 89.01 C 149.31 91.43 149.62 94.08 148.20 96.20 C 147.56 92.42 147.78 88.56 147.21 84.78 C 146.04 78.18 146.96 71.46 146.23 64.82 Z" />
</g>
<g id="#47352fff">
<path fill="#47352f" opacity="1.00" d=" M 14.93 68.21 C 15.45 68.39 16.49 68.74 17.01 68.92 C 17.24 69.23 17.69 69.83 17.92 70.14 C 17.65 73.12 17.07 76.06 16.41 78.97 C 15.21 83.98 15.00 89.25 12.93 94.03 C 11.61 90.95 11.97 87.56 12.18 84.32 C 13.11 78.95 13.52 73.49 14.93 68.21 Z" />
</g>
<g id="#f2ceb9ff">
<path fill="#f2ceb9" opacity="1.00" d=" M 37.78 86.40 C 43.31 80.67 44.84 71.94 51.51 67.15 C 60.56 75.01 71.97 80.04 80.01 89.00 C 79.49 92.24 75.74 92.53 73.30 93.60 C 72.38 91.90 71.15 90.39 69.83 88.98 L 71.26 89.20 C 65.54 84.71 62.24 77.90 56.36 73.58 C 54.17 71.83 50.58 71.62 48.40 73.46 C 44.28 78.19 42.35 84.32 38.90 89.48 C 38.30 89.45 37.10 89.41 36.50 89.39 C 36.92 88.39 37.34 87.39 37.78 86.40 Z" />
</g>
<g id="#e4bba7ff">
<path fill="#e4bba7" opacity="1.00" d=" M 51.51 67.15 C 52.13 67.29 53.35 67.56 53.97 67.69 C 61.46 71.77 69.25 75.39 77.20 78.48 C 76.39 78.67 74.78 79.06 73.97 79.25 C 78.96 82.63 84.26 85.53 89.43 88.60 C 91.35 89.69 90.19 92.18 89.85 93.80 C 88.72 96.75 88.13 100.67 84.94 102.11 C 82.55 101.97 81.14 99.85 79.55 98.36 C 77.97 96.58 75.80 95.55 73.76 94.43 C 73.64 94.22 73.42 93.81 73.30 93.60 C 75.74 92.53 79.49 92.24 80.01 89.00 C 71.97 80.04 60.56 75.01 51.51 67.15 Z" />
</g>
<g id="#6f574cff">
<path fill="#6f574c" opacity="1.00" d=" M 153.47 69.79 C 155.63 73.60 156.22 77.99 156.87 82.24 C 157.30 88.47 159.04 94.73 157.91 100.97 C 156.97 107.17 157.28 113.54 155.67 119.64 C 154.52 113.10 156.17 106.52 155.70 99.95 C 155.85 89.83 153.36 79.90 153.47 69.79 Z" />
</g>
<g id="#fdecd9ff">
<path fill="#fdecd9" opacity="1.00" d=" M 48.40 73.46 C 50.58 71.62 54.17 71.83 56.36 73.58 C 62.24 77.90 65.54 84.71 71.26 89.20 L 69.83 88.98 C 65.40 86.68 59.69 87.50 56.56 91.55 C 53.20 95.51 53.60 101.74 57.10 105.50 C 52.44 106.84 48.81 110.46 47.91 115.30 C 47.45 114.21 46.97 113.13 46.47 112.07 C 39.99 120.52 34.80 130.00 31.41 140.11 C 32.71 142.35 34.00 144.61 35.21 146.91 L 33.86 146.90 C 33.33 146.46 32.86 145.98 32.44 145.46 C 30.73 142.60 28.97 139.77 27.41 136.82 C 27.82 133.22 26.32 129.73 26.49 126.11 C 25.12 126.25 23.75 126.40 22.38 126.55 C 22.25 126.19 21.98 125.47 21.84 125.11 L 22.85 125.25 C 24.44 125.45 26.03 125.64 27.63 125.81 C 28.70 121.92 28.69 117.86 29.24 113.89 C 30.01 107.86 31.66 101.98 33.70 96.26 C 34.01 95.41 34.32 94.56 34.65 93.72 C 35.26 92.27 35.89 90.83 36.50 89.39 C 37.10 89.41 38.30 89.45 38.90 89.48 C 42.35 84.32 44.28 78.19 48.40 73.46 Z" />
</g>
<g id="#d6a996ff">
<path fill="#d6a996" opacity="1.00" d=" M 101.57 80.63 C 106.30 76.07 112.99 73.16 119.62 74.36 C 126.27 74.96 130.28 80.99 133.39 86.22 C 134.60 92.09 136.72 97.68 138.89 103.24 C 139.37 107.66 139.48 112.15 139.28 116.56 C 139.75 115.98 140.70 114.80 141.17 114.21 C 142.10 118.40 141.58 122.69 141.18 126.91 C 141.80 126.66 143.05 126.17 143.67 125.92 C 142.40 129.01 141.12 132.10 139.60 135.07 L 139.23 134.15 C 138.67 134.21 137.56 134.32 137.00 134.38 C 137.54 131.73 138.30 129.08 138.35 126.36 C 137.66 123.91 136.00 121.71 136.10 119.06 C 135.79 114.96 137.48 111.10 137.75 107.06 C 137.83 103.91 135.59 101.45 134.12 98.87 C 132.09 95.78 131.92 91.95 130.33 88.68 C 127.61 84.72 122.78 81.29 117.77 82.52 C 115.88 82.92 115.52 84.97 115.08 86.53 C 113.66 86.77 112.25 87.04 110.83 87.24 C 107.91 86.05 104.77 85.53 101.62 85.95 C 101.95 86.33 102.61 87.10 102.94 87.49 C 99.11 88.76 95.98 91.78 95.10 95.79 C 94.60 95.70 93.60 95.53 93.09 95.45 C 91.80 98.62 91.72 101.97 93.23 105.06 C 90.82 104.68 89.37 106.89 87.71 108.21 L 87.23 108.59 C 83.22 109.98 79.98 107.26 77.11 104.88 C 75.57 106.32 75.15 108.06 76.62 109.74 C 79.69 113.89 86.11 114.98 90.15 111.62 C 91.36 110.48 92.52 109.31 93.67 108.12 C 93.67 109.39 94.01 110.90 92.87 111.83 C 88.91 116.83 81.63 116.11 77.11 120.28 C 74.69 122.60 71.15 122.65 68.01 122.39 C 68.62 118.73 68.84 114.83 66.85 111.51 L 66.43 110.67 C 70.25 110.00 74.07 108.43 75.73 104.65 C 78.08 101.70 75.63 98.44 74.26 95.71 L 73.76 94.43 C 75.80 95.55 77.97 96.58 79.55 98.36 C 81.14 99.85 82.55 101.97 84.94 102.11 C 88.13 100.67 88.72 96.75 89.85 93.80 C 90.19 92.18 91.35 89.69 89.43 88.60 C 84.26 85.53 78.96 82.63 73.97 79.25 C 74.78 79.06 76.39 78.67 77.20 78.48 C 83.66 79.93 89.27 84.28 96.04 84.46 C 98.33 84.09 99.84 82.00 101.57 80.63 Z" />
</g>
<g id="#e8bea9ff">
<path fill="#e8bea9" opacity="1.00" d=" M 115.08 86.53 C 115.52 84.97 115.88 82.92 117.77 82.52 C 122.78 81.29 127.61 84.72 130.33 88.68 C 131.92 91.95 132.09 95.78 134.12 98.87 C 135.59 101.45 137.83 103.91 137.75 107.06 C 137.48 111.10 135.79 114.96 136.10 119.06 C 136.00 121.71 137.66 123.91 138.35 126.36 C 138.30 129.08 137.54 131.73 137.00 134.38 C 137.56 134.32 138.67 134.21 139.23 134.15 L 139.60 135.07 C 137.95 138.44 135.94 141.63 134.41 145.06 L 134.19 145.55 C 133.17 146.57 132.24 147.68 131.24 148.72 C 130.55 146.25 131.61 144.04 133.47 142.44 C 132.48 142.05 131.49 141.67 130.51 141.29 C 130.24 134.03 128.69 126.88 125.84 120.21 C 124.69 119.15 123.29 118.42 121.98 117.59 C 121.71 114.96 121.50 112.19 120.09 109.87 C 118.56 107.30 115.92 105.73 113.54 104.05 C 115.10 101.08 115.96 97.49 114.47 94.31 C 112.76 89.66 107.74 87.09 102.94 87.49 C 102.61 87.10 101.95 86.33 101.62 85.95 C 104.77 85.53 107.91 86.05 110.83 87.24 C 112.25 87.04 113.66 86.77 115.08 86.53 Z" />
</g>
<g id="#010101ff">
<path fill="#010101" opacity="1.00" d=" M 56.56 91.55 C 59.69 87.50 65.40 86.68 69.83 88.98 C 71.15 90.39 72.38 91.90 73.30 93.60 C 73.42 93.81 73.64 94.22 73.76 94.43 L 74.26 95.71 C 74.50 101.47 71.28 107.35 65.29 108.50 C 64.16 108.25 63.04 107.91 61.93 107.57 C 60.28 106.98 58.66 106.30 57.10 105.50 C 53.60 101.74 53.20 95.51 56.56 91.55 Z" />
<path fill="#010101" opacity="1.00" d=" M 95.10 95.79 C 95.98 91.78 99.11 88.76 102.94 87.49 C 107.74 87.09 112.76 89.66 114.47 94.31 C 115.96 97.49 115.10 101.08 113.54 104.05 C 111.07 106.90 107.31 108.08 103.71 108.69 C 98.04 107.27 94.43 101.51 95.10 95.79 Z" />
</g>
<g id="#000000ff">
<path fill="#000000" opacity="1.00" d=" M 32.54 95.06 C 32.83 95.36 33.41 95.96 33.70 96.26 C 31.66 101.98 30.01 107.86 29.24 113.89 C 28.69 117.86 28.70 121.92 27.63 125.81 C 26.03 125.64 24.44 125.45 22.85 125.25 C 26.71 122.34 26.87 117.27 27.71 112.93 C 28.68 106.82 30.45 100.87 32.54 95.06 Z" />
</g>
<g id="#c99884ff">
<path fill="#c99884" opacity="1.00" d=" M 93.09 95.45 C 93.60 95.53 94.60 95.70 95.10 95.79 C 94.43 101.51 98.04 107.27 103.71 108.69 C 103.06 110.28 102.39 111.86 101.86 113.50 C 101.53 114.94 101.27 116.41 101.02 117.88 C 95.97 124.39 85.94 120.83 79.82 125.75 C 73.46 128.03 68.41 132.70 64.03 137.70 C 61.41 141.10 59.45 144.93 57.04 148.47 C 56.17 147.12 55.34 145.75 54.53 144.37 C 53.60 146.78 52.53 149.13 51.27 151.39 C 50.72 149.18 50.01 146.98 49.89 144.71 C 51.28 138.25 56.20 133.49 58.54 127.48 C 61.69 127.67 64.21 125.83 66.29 123.71 C 66.85 123.26 67.43 122.82 68.01 122.39 C 71.15 122.65 74.69 122.60 77.11 120.28 C 81.63 116.11 88.91 116.83 92.87 111.83 C 94.01 110.90 93.67 109.39 93.67 108.12 C 93.63 107.09 93.47 106.06 93.23 105.06 C 91.72 101.97 91.80 98.62 93.09 95.45 Z" />
</g>
<g id="#4c3832ff">
<path fill="#4c3832" opacity="1.00" d=" M 13.21 95.98 C 16.86 102.59 16.24 110.38 18.38 117.45 C 18.76 120.31 20.03 123.40 18.38 126.09 L 18.07 126.83 C 16.23 124.90 14.94 122.55 14.06 120.04 C 14.50 120.31 15.38 120.83 15.83 121.09 C 15.63 117.63 15.17 114.19 14.42 110.80 C 13.29 105.94 13.49 100.93 13.21 95.98 Z" />
</g>
<g id="#b48573ff">
<path fill="#b48573" opacity="1.00" d=" M 74.26 95.71 C 75.63 98.44 78.08 101.70 75.73 104.65 C 74.07 108.43 70.25 110.00 66.43 110.67 C 66.15 110.13 65.58 109.04 65.29 108.50 C 71.28 107.35 74.50 101.47 74.26 95.71 Z" />
</g>
<g id="#6c5246ff">
<path fill="#6c5246" opacity="1.00" d=" M 146.26 99.11 C 147.12 98.73 147.98 98.35 148.84 97.96 C 148.86 104.01 149.57 110.09 148.84 116.11 C 147.96 115.27 147.51 114.12 147.38 112.93 C 146.67 108.36 146.66 103.72 146.26 99.11 Z" />
</g>
<g id="#e17f83ff">
<path fill="#e17f83" opacity="1.00" d=" M 103.71 108.69 C 107.31 108.08 111.07 106.90 113.54 104.05 C 115.92 105.73 118.56 107.30 120.09 109.87 C 121.50 112.19 121.71 114.96 121.98 117.59 C 121.32 119.05 120.62 120.50 119.81 121.89 C 116.66 121.43 113.40 121.53 110.31 120.67 C 106.91 119.08 104.60 115.96 101.86 113.50 C 102.39 111.86 103.06 110.28 103.71 108.69 Z" />
</g>
<g id="#392a23ff">
<path fill="#392a23" opacity="1.00" d=" M 151.93 103.61 C 153.45 110.89 153.79 118.43 153.04 125.83 C 152.06 124.71 151.38 123.36 151.39 121.84 C 150.76 115.76 150.92 109.64 151.93 103.61 Z" />
</g>
<g id="#fa8c94ff">
<path fill="#fa8c94" opacity="1.00" d=" M 57.10 105.50 C 58.66 106.30 60.28 106.98 61.93 107.57 C 60.38 110.67 59.13 114.05 56.65 116.56 C 54.51 118.67 51.82 120.08 49.38 121.80 C 48.72 119.68 48.34 117.48 47.91 115.30 C 48.81 110.46 52.44 106.84 57.10 105.50 Z" />
</g>
<g id="#6a0e08ff">
<path fill="#6a0e08" opacity="1.00" d=" M 77.11 104.88 C 79.98 107.26 83.22 109.98 87.23 108.59 C 86.97 108.79 86.44 109.20 86.17 109.40 C 82.99 109.64 79.80 109.59 76.62 109.74 C 75.15 108.06 75.57 106.32 77.11 104.88 Z" />
<path fill="#6a0e08" opacity="1.00" d=" M 102.04 121.02 C 104.86 124.95 109.55 126.19 114.17 126.12 C 113.31 126.12 112.44 126.15 111.58 126.18 C 109.85 126.23 108.12 126.29 106.39 126.35 C 104.75 124.75 103.09 123.09 102.04 121.02 Z" />
</g>
<g id="#690c03ff">
<path fill="#690c03" opacity="1.00" d=" M 87.71 108.21 C 89.37 106.89 90.82 104.68 93.23 105.06 C 93.47 106.06 93.63 107.09 93.67 108.12 C 92.52 109.31 91.36 110.48 90.15 111.62 C 89.34 110.48 88.53 109.34 87.71 108.21 Z" />
</g>
<g id="#e97b81ff">
<path fill="#e97b81" opacity="1.00" d=" M 61.93 107.57 C 63.04 107.91 64.16 108.25 65.29 108.50 C 65.58 109.04 66.15 110.13 66.43 110.67 L 66.85 111.51 C 65.87 114.74 65.29 118.33 62.87 120.87 C 60.46 123.63 56.74 124.49 53.62 126.16 C 52.55 125.14 51.46 124.16 50.44 123.09 L 49.38 121.80 C 51.82 120.08 54.51 118.67 56.65 116.56 C 59.13 114.05 60.38 110.67 61.93 107.57 Z" />
</g>
<g id="#b84a51ff">
<path fill="#b84a51" opacity="1.00" d=" M 87.23 108.59 L 87.71 108.21 C 88.53 109.34 89.34 110.48 90.15 111.62 C 86.11 114.98 79.69 113.89 76.62 109.74 C 79.80 109.59 82.99 109.64 86.17 109.40 C 86.44 109.20 86.97 108.79 87.23 108.59 Z" />
</g>
<g id="#f7d7bdff">
<path fill="#f7d7bd" opacity="1.00" d=" M 31.41 140.11 C 34.80 130.00 39.99 120.52 46.47 112.07 C 46.97 113.13 47.45 114.21 47.91 115.30 C 48.34 117.48 48.72 119.68 49.38 121.80 L 50.44 123.09 C 46.14 125.97 45.23 131.29 42.53 135.39 C 41.00 140.30 40.61 145.89 36.44 149.52 C 36.11 149.27 35.45 148.76 35.12 148.51 C 34.81 148.11 34.18 147.30 33.86 146.90 L 35.21 146.91 C 34.00 144.61 32.71 142.35 31.41 140.11 Z" />
</g>
<g id="#bd5657ff">
<path fill="#bd5657" opacity="1.00" d=" M 62.87 120.87 C 65.29 118.33 65.87 114.74 66.85 111.51 C 68.84 114.83 68.62 118.73 68.01 122.39 C 67.43 122.82 66.85 123.26 66.29 123.71 C 63.41 126.19 59.78 127.60 55.95 126.87 C 55.36 126.69 54.20 126.34 53.62 126.16 C 56.74 124.49 60.46 123.63 62.87 120.87 Z" />
</g>
<g id="#cb686bff">
<path fill="#cb686b" opacity="1.00" d=" M 101.86 113.50 C 104.60 115.96 106.91 119.08 110.31 120.67 C 113.40 121.53 116.66 121.43 119.81 121.89 C 118.43 123.52 116.77 124.89 115.08 126.18 L 114.17 126.12 C 109.55 126.19 104.86 124.95 102.04 121.02 C 101.64 119.99 101.30 118.94 101.02 117.88 C 101.27 116.41 101.53 114.94 101.86 113.50 Z" />
</g>
<g id="#231813ff">
<path fill="#231813" opacity="1.00" d=" M 144.85 114.57 C 145.90 116.12 147.06 117.59 148.12 119.13 C 149.42 122.08 150.47 125.14 151.82 128.07 C 150.67 128.34 149.51 128.53 148.34 128.67 C 146.74 124.13 142.55 119.60 144.85 114.57 Z" />
</g>
<g id="#b8846cff">
<path fill="#b8846c" opacity="1.00" d=" M 79.82 125.75 C 85.94 120.83 95.97 124.39 101.02 117.88 C 101.30 118.94 101.64 119.99 102.04 121.02 C 103.09 123.09 104.75 124.75 106.39 126.35 C 108.12 126.29 109.85 126.23 111.58 126.18 C 110.71 129.19 106.66 131.42 107.98 134.84 C 109.39 139.94 110.01 145.22 109.85 150.51 C 108.79 151.03 107.70 151.49 106.67 152.06 C 106.52 152.21 106.22 152.51 106.07 152.66 C 104.15 152.51 102.25 152.16 100.35 151.86 C 102.67 146.63 98.32 142.34 95.30 138.62 C 91.57 137.05 87.64 138.50 83.82 137.91 C 79.45 139.32 76.02 142.60 72.02 144.75 C 68.26 143.85 66.28 140.50 64.03 137.70 C 68.41 132.70 73.46 128.03 79.82 125.75 Z" />
</g>
<g id="#dba992ff">
<path fill="#dba992" opacity="1.00" d=" M 119.81 121.89 C 120.62 120.50 121.32 119.05 121.98 117.59 C 123.29 118.42 124.69 119.15 125.84 120.21 C 128.69 126.88 130.24 134.03 130.51 141.29 C 131.49 141.67 132.48 142.05 133.47 142.44 C 131.61 144.04 130.55 146.25 131.24 148.72 C 128.93 151.67 125.86 153.85 123.27 156.53 L 122.28 156.29 L 122.58 157.69 C 122.11 157.62 121.18 157.47 120.71 157.40 L 120.64 158.70 L 119.61 158.43 L 119.49 159.65 L 118.59 159.67 C 117.72 160.31 116.73 160.63 115.62 160.63 L 115.57 161.84 L 114.67 161.47 C 113.53 162.78 111.72 162.62 110.16 162.65 C 108.51 162.64 106.85 162.68 105.20 162.73 C 107.76 160.76 110.36 158.84 112.73 156.63 C 115.23 154.78 114.38 151.12 116.62 149.01 C 119.33 145.90 119.39 141.60 119.60 137.70 C 119.59 134.47 119.99 131.13 119.03 127.99 C 118.43 126.37 116.47 126.48 115.08 126.18 C 116.77 124.89 118.43 123.52 119.81 121.89 Z" />
</g>
<g id="#edc1a6ff">
<path fill="#edc1a6" opacity="1.00" d=" M 50.44 123.09 C 51.46 124.16 52.55 125.14 53.62 126.16 C 48.54 133.69 44.80 142.32 43.99 151.44 C 42.77 151.59 41.54 151.75 40.31 151.91 C 39.03 151.09 37.72 150.34 36.44 149.52 C 40.61 145.89 41.00 140.30 42.53 135.39 C 45.23 131.29 46.14 125.97 50.44 123.09 Z" />
</g>
<g id="#f9f3e9ff">
<path fill="#f9f3e9" opacity="1.00" d=" M 22.38 126.55 C 23.75 126.40 25.12 126.25 26.49 126.11 C 26.32 129.73 27.82 133.22 27.41 136.82 C 25.60 133.61 24.03 130.27 22.53 126.89 L 22.38 126.55 Z" />
</g>
<g id="#e6af92ff">
<path fill="#e6af92" opacity="1.00" d=" M 53.62 126.16 C 54.20 126.34 55.36 126.69 55.95 126.87 C 56.60 127.02 57.89 127.33 58.54 127.48 C 56.20 133.49 51.28 138.25 49.89 144.71 C 50.01 146.98 50.72 149.18 51.27 151.39 C 51.97 153.78 52.57 156.63 54.98 157.91 C 59.62 160.66 64.93 161.93 69.86 164.04 C 74.06 165.83 78.61 166.68 83.17 166.61 C 76.02 168.38 68.76 166.61 61.74 165.08 C 53.32 163.12 47.33 156.46 40.31 151.91 C 41.54 151.75 42.77 151.59 43.99 151.44 C 44.80 142.32 48.54 133.69 53.62 126.16 Z" />
</g>
<g id="#c8947cff">
<path fill="#c8947c" opacity="1.00" d=" M 111.58 126.18 C 112.44 126.15 113.31 126.12 114.17 126.12 L 115.08 126.18 C 116.47 126.48 118.43 126.37 119.03 127.99 C 119.99 131.13 119.59 134.47 119.60 137.70 C 119.39 141.60 119.33 145.90 116.62 149.01 C 114.16 148.17 111.95 149.35 109.85 150.51 C 110.01 145.22 109.39 139.94 107.98 134.84 C 106.66 131.42 110.71 129.19 111.58 126.18 Z" />
</g>
<g id="#3c2f2aff">
<path fill="#3c2f2a" opacity="1.00" d=" M 143.67 125.92 C 144.83 126.47 145.95 127.11 147.04 127.81 C 145.06 134.40 141.62 141.06 135.70 144.88 L 134.41 145.06 C 135.94 141.63 137.95 138.44 139.60 135.07 C 141.12 132.10 142.40 129.01 143.67 125.92 Z" />
</g>
<g id="#402c25ff">
<path fill="#402c25" opacity="1.00" d=" M 24.43 139.50 C 25.50 135.00 20.99 131.22 22.53 126.89 C 24.03 130.27 25.60 133.61 27.41 136.82 C 28.97 139.77 30.73 142.60 32.44 145.46 C 29.00 144.91 26.64 142.16 24.43 139.73 L 24.43 139.50 Z" />
</g>
<g id="#ba7955ff">
<path fill="#ba7955" opacity="1.00" d=" M 72.02 144.75 C 76.02 142.60 79.45 139.32 83.82 137.91 C 87.64 138.50 91.57 137.05 95.30 138.62 C 98.32 142.34 102.67 146.63 100.35 151.86 C 95.75 150.98 91.16 152.33 86.58 152.64 C 82.62 153.14 78.50 152.38 74.70 153.90 C 74.58 153.44 74.35 152.52 74.23 152.07 C 73.10 152.05 71.97 152.05 70.84 152.07 C 71.17 149.62 71.57 147.18 72.02 144.75 Z" />
</g>
<g id="#c58766ff">
<path fill="#c58766" opacity="1.00" d=" M 57.04 148.47 C 59.45 144.93 61.41 141.10 64.03 137.70 C 66.28 140.50 68.26 143.85 72.02 144.75 C 71.57 147.18 71.17 149.62 70.84 152.07 C 68.00 152.64 65.13 153.21 62.22 152.98 C 60.42 151.56 58.58 150.18 57.04 148.47 Z" />
</g>
<g id="#da956dff">
<path fill="#da956d" opacity="1.00" d=" M 54.53 144.37 C 55.34 145.75 56.17 147.12 57.04 148.47 C 58.58 150.18 60.42 151.56 62.22 152.98 C 63.15 155.12 63.78 157.92 66.42 158.55 C 74.57 161.71 83.59 163.85 92.33 162.27 C 97.72 160.82 104.41 158.70 106.07 152.66 C 106.22 152.51 106.52 152.21 106.67 152.06 C 107.70 151.49 108.79 151.03 109.85 150.51 C 111.95 149.35 114.16 148.17 116.62 149.01 C 114.38 151.12 115.23 154.78 112.73 156.63 C 110.36 158.84 107.76 160.76 105.20 162.73 C 106.85 162.68 108.51 162.64 110.16 162.65 L 111.21 163.42 L 109.49 163.44 L 109.38 164.37 C 106.73 164.49 104.27 165.85 101.57 165.51 C 95.42 165.54 89.35 166.93 83.17 166.61 C 78.61 166.68 74.06 165.83 69.86 164.04 C 64.93 161.93 59.62 160.66 54.98 157.91 C 52.57 156.63 51.97 153.78 51.27 151.39 C 52.53 149.13 53.60 146.78 54.53 144.37 Z" />
</g>
<g id="#785e4d7f">
<path fill="#785e4d" opacity="0.50" d=" M 35.12 148.51 C 35.45 148.76 36.11 149.27 36.44 149.52 C 37.72 150.34 39.03 151.09 40.31 151.91 C 47.33 156.46 53.32 163.12 61.74 165.08 C 68.76 166.61 76.02 168.38 83.17 166.61 C 89.35 166.93 95.42 165.54 101.57 165.51 C 100.30 168.07 97.32 167.26 95.02 167.71 C 89.06 168.70 82.98 168.03 77.06 169.38 C 70.93 168.89 64.76 167.94 58.87 166.07 C 53.98 164.49 49.90 161.25 45.98 158.03 C 42.28 154.96 37.93 152.53 35.12 148.51 Z" />
</g>
<g id="#cf8252ff">
<path fill="#cf8252" opacity="1.00" d=" M 86.58 152.64 C 91.16 152.33 95.75 150.98 100.35 151.86 C 102.25 152.16 104.15 152.51 106.07 152.66 C 104.41 158.70 97.72 160.82 92.33 162.27 C 83.59 163.85 74.57 161.71 66.42 158.55 C 63.78 157.92 63.15 155.12 62.22 152.98 C 65.13 153.21 68.00 152.64 70.84 152.07 C 71.97 152.05 73.10 152.05 74.23 152.07 C 74.35 152.52 74.58 153.44 74.70 153.90 C 78.50 152.38 82.62 153.14 86.58 152.64 Z" />
</g>
</svg>
