<?xml version="1.0" encoding="UTF-8" ?>
<!DOCTYPE svg PUBLIC "-//W3C//DTD SVG 1.1//EN" "http://www.w3.org/Graphics/SVG/1.1/DTD/svg11.dtd">
<svg width="16pt" height="16pt" viewBox="0 0 16 16" version="1.1" xmlns="http://www.w3.org/2000/svg">
<g id="#005dbcbc">
<path fill="#005dbc" opacity="0.74" d=" M 6.72 2.13 C 7.57 0.69 10.30 1.90 9.28 3.48 C 8.45 5.03 5.75 3.69 6.72 2.13 Z" />
<path fill="#005dbc" opacity="0.74" d=" M 2.73 4.84 C 4.83 4.58 6.26 6.21 8.03 6.94 C 9.75 6.13 11.23 4.62 13.28 4.82 C 11.66 6.42 10.02 8.06 7.99 9.17 C 5.99 8.06 4.35 6.43 2.73 4.84 Z" />
<path fill="#005dbc" opacity="0.74" d=" M 0.00 6.69 C 2.81 8.28 5.23 10.46 8.02 12.05 C 10.79 10.41 13.23 8.27 16.00 6.62 L 16.00 7.93 C 13.50 10.19 10.91 12.44 7.98 14.12 C 5.08 12.42 2.51 10.19 0.00 7.96 L 0.00 6.69 Z" />
</g>
</svg>
