<?xml version="1.0" encoding="UTF-8" ?>
<!DOCTYPE svg PUBLIC "-//W3C//DTD SVG 1.1//EN" "http://www.w3.org/Graphics/SVG/1.1/DTD/svg11.dtd">
<svg width="48pt" height="48pt" viewBox="0 0 48 48" version="1.1" xmlns="http://www.w3.org/2000/svg">
<g id="#ff6e1eff">
<path fill="#ff6e1e" opacity="1.00" d=" M 18.87 18.55 C 20.45 13.07 22.43 7.71 24.03 2.23 C 25.96 7.66 27.59 13.19 29.44 18.65 C 35.14 18.60 40.83 18.55 46.53 18.69 C 42.11 21.96 37.60 25.10 33.20 28.40 C 33.44 34.05 36.89 39.24 37.68 44.89 C 33.11 41.63 28.65 38.21 24.03 35.03 C 19.48 38.35 14.90 41.63 10.37 44.98 C 11.78 39.50 13.72 34.18 15.52 28.82 C 10.91 25.39 6.23 22.05 1.59 18.66 C 7.35 18.52 13.11 18.70 18.87 18.55 Z" />
</g>
</svg>
