<?xml version="1.0" encoding="UTF-8" ?>
<!DOCTYPE svg PUBLIC "-//W3C//DTD SVG 1.1//EN" "http://www.w3.org/Graphics/SVG/1.1/DTD/svg11.dtd">
<svg width="32pt" height="32pt" viewBox="0 0 32 32" version="1.1" xmlns="http://www.w3.org/2000/svg">
<g id="#008abcff">
<path fill="#008abc" opacity="1.00" d=" M 8.10 2.14 C 9.36 2.08 10.61 2.08 11.87 2.14 C 11.98 7.19 11.91 12.25 11.90 17.30 C 12.10 17.41 12.51 17.65 12.72 17.77 C 14.63 15.62 16.71 13.64 18.70 11.57 C 20.32 11.11 22.10 11.36 23.77 11.45 C 22.48 14.60 18.87 16.58 16.60 19.19 C 18.41 22.98 22.15 26.00 24.41 29.72 C 22.66 29.92 20.87 30.06 19.13 29.73 C 17.12 27.25 15.35 24.53 13.06 22.29 C 11.14 24.41 12.21 27.32 11.87 29.86 C 10.62 29.93 9.36 29.93 8.10 29.87 C 8.03 20.63 8.03 11.38 8.10 2.14 Z" />
</g>
</svg>
