<?xml version="1.0" encoding="UTF-8" ?>
<!DOCTYPE svg PUBLIC "-//W3C//DTD SVG 1.1//EN" "http://www.w3.org/Graphics/SVG/1.1/DTD/svg11.dtd">
<svg width="32pt" height="32pt" viewBox="0 0 32 32" version="1.1" xmlns="http://www.w3.org/2000/svg">
<g id="#050a090c">
<path fill="#050a09" opacity="0.05" d=" M 0.00 0.00 L 12.37 0.00 C 6.64 2.09 1.79 6.46 0.00 12.39 L 0.00 0.00 Z" />
<path fill="#050a09" opacity="0.05" d=" M 19.63 0.00 L 32.00 0.00 L 32.00 12.39 C 30.21 6.46 25.36 2.09 19.63 0.00 Z" />
<path fill="#050a09" opacity="0.05" d=" M 0.00 19.61 C 1.79 25.54 6.64 29.91 12.37 32.00 L 0.00 32.00 L 0.00 19.61 Z" />
<path fill="#050a09" opacity="0.05" d=" M 19.61 32.00 C 25.54 30.21 29.91 25.36 32.00 19.63 L 32.00 32.00 L 19.61 32.00 Z" />
</g>
<g id="#65bbb5e6">
<path fill="#65bbb5" opacity="0.90" d=" M 12.37 0.00 L 19.63 0.00 C 25.36 2.09 30.21 6.46 32.00 12.39 L 32.00 19.63 C 29.91 25.36 25.54 30.21 19.61 32.00 L 12.37 32.00 C 6.64 29.91 1.79 25.54 0.00 19.61 L 0.00 12.39 C 1.79 6.46 6.64 2.09 12.37 0.00 M 11.36 2.34 C 5.95 4.00 1.68 9.23 1.93 14.99 C -0.88 29.47 21.24 35.99 28.01 24.00 C 35.41 13.31 24.32 -2.63 11.36 2.34 Z" />
</g>
<g id="#eef9f8ff">
<path fill="#eef9f8" opacity="1.00" d=" M 11.36 2.34 C 24.32 -2.63 35.41 13.31 28.01 24.00 C 21.24 35.99 -0.88 29.47 1.93 14.99 C 1.68 9.23 5.95 4.00 11.36 2.34 M 4.02 16.85 C 8.32 18.26 12.32 18.87 10.27 12.31 C 17.61 14.64 15.59 7.19 10.95 8.79 C 10.51 4.42 18.86 4.62 18.04 8.99 C 22.82 17.31 11.02 12.29 13.02 18.09 C 19.44 16.74 30.06 8.74 26.23 22.17 C 30.60 16.75 27.59 7.03 21.03 4.98 C 13.36 0.65 2.86 8.38 4.02 16.85 M 8.13 24.96 C 12.10 30.14 23.97 29.05 26.23 22.17 C 21.03 23.54 10.73 18.51 8.13 24.96 Z" />
</g>
<g id="#71cfc9ff">
<path fill="#71cfc9" opacity="1.00" d=" M 4.02 16.85 C 2.86 8.38 13.36 0.65 21.03 4.98 C 27.59 7.03 30.60 16.75 26.23 22.17 C 30.06 8.74 19.44 16.74 13.02 18.09 C 11.02 12.29 22.82 17.31 18.04 8.99 C 18.86 4.62 10.51 4.42 10.95 8.79 C 15.59 7.19 17.61 14.64 10.27 12.31 C 12.32 18.87 8.32 18.26 4.02 16.85 Z" />
</g>
<g id="#72d0c9ff">
<path fill="#72d0c9" opacity="1.00" d=" M 8.13 24.96 C 10.73 18.51 21.03 23.54 26.23 22.17 C 23.97 29.05 12.10 30.14 8.13 24.96 Z" />
</g>
</svg>
