<?xml version="1.0" encoding="UTF-8" ?>
<!DOCTYPE svg PUBLIC "-//W3C//DTD SVG 1.1//EN" "http://www.w3.org/Graphics/SVG/1.1/DTD/svg11.dtd">
<svg width="48pt" height="48pt" viewBox="0 0 48 48" version="1.1" xmlns="http://www.w3.org/2000/svg">
<g id="#15212aff">
<path fill="#15212a" opacity="1.00" d=" M 8.45 0.00 L 41.73 0.00 C 42.04 0.28 42.67 0.84 42.98 1.12 C 42.88 3.27 44.65 5.04 46.76 5.12 C 47.14 6.24 47.55 7.35 48.00 8.45 L 48.00 41.73 C 47.72 42.04 47.16 42.67 46.88 42.98 C 44.70 42.85 42.85 44.70 42.98 46.88 C 42.67 47.16 42.04 47.72 41.73 48.00 L 6.27 48.00 C 5.96 47.72 5.33 47.16 5.02 46.88 C 5.15 44.70 3.30 42.85 1.12 42.98 C 0.84 42.67 0.28 42.04 0.00 41.73 L 0.00 8.45 C 0.45 7.35 0.86 6.24 1.25 5.12 C 3.32 5.01 5.01 3.32 5.12 1.25 C 6.24 0.86 7.35 0.45 8.45 0.00 M 14.03 14.02 C 13.95 15.34 13.95 16.65 14.03 17.96 C 18.01 18.09 21.99 18.09 25.97 17.98 C 26.05 16.66 26.05 15.35 25.97 14.04 C 21.99 13.91 18.01 13.91 14.03 14.02 M 31.03 14.02 C 30.62 16.55 30.73 19.05 33.97 17.98 C 34.38 15.45 34.27 12.95 31.03 14.02 M 14.03 22.03 C 13.95 23.34 13.95 24.66 14.03 25.97 C 20.68 26.06 27.32 26.06 33.97 25.97 C 34.05 24.66 34.05 23.34 33.97 22.03 C 27.32 21.94 20.68 21.94 14.03 22.03 M 12.97 29.97 C 9.01 38.51 19.11 33.47 22.00 34.99 L 21.98 34.02 C 21.99 33.27 21.99 31.76 21.99 31.01 C 21.15 28.76 16.32 30.48 13.91 30.06 L 12.97 29.97 M 26.01 31.01 C 26.01 31.76 26.01 33.27 26.01 34.02 L 26.02 34.96 C 29.89 34.41 38.66 38.18 35.03 29.97 L 34.08 30.06 C 31.67 30.48 26.85 28.76 26.01 31.01 Z" />
</g>
<g id="#0d151ba2">
<path fill="#0d151b" opacity="0.64" d=" M 1.25 5.12 C 1.59 3.14 3.14 1.59 5.12 1.25 C 5.01 3.32 3.32 5.01 1.25 5.12 Z" />
<path fill="#0d151b" opacity="0.64" d=" M 42.98 1.12 C 44.81 1.76 46.43 3.12 46.76 5.12 C 44.65 5.04 42.88 3.27 42.98 1.12 Z" />
<path fill="#0d151b" opacity="0.64" d=" M 1.12 42.98 C 3.30 42.85 5.15 44.70 5.02 46.88 C 3.16 46.27 1.73 44.83 1.12 42.98 Z" />
<path fill="#0d151b" opacity="0.64" d=" M 42.98 46.88 C 42.85 44.70 44.70 42.85 46.88 42.98 C 46.27 44.83 44.83 46.27 42.98 46.88 Z" />
</g>
<g id="#f4f6f8ff">
<path fill="#f4f6f8" opacity="1.00" d=" M 14.03 14.02 C 18.01 13.91 21.99 13.91 25.97 14.04 C 26.05 15.35 26.05 16.66 25.97 17.98 C 21.99 18.09 18.01 18.09 14.03 17.96 C 13.95 16.65 13.95 15.34 14.03 14.02 Z" />
<path fill="#f4f6f8" opacity="1.00" d=" M 31.03 14.02 C 34.27 12.95 34.38 15.45 33.97 17.98 C 30.73 19.05 30.62 16.55 31.03 14.02 Z" />
<path fill="#f4f6f8" opacity="1.00" d=" M 14.03 22.03 C 20.68 21.94 27.32 21.94 33.97 22.03 C 34.05 23.34 34.05 24.66 33.97 25.97 C 27.32 26.06 20.68 26.06 14.03 25.97 C 13.95 24.66 13.95 23.34 14.03 22.03 Z" />
<path fill="#f4f6f8" opacity="1.00" d=" M 13.97 31.03 C 16.64 31.02 19.31 31.01 21.99 31.01 C 21.99 31.76 21.99 33.27 21.98 34.02 C 18.86 33.56 12.72 36.08 13.97 31.03 Z" />
<path fill="#f4f6f8" opacity="1.00" d=" M 26.01 31.01 C 28.68 31.01 31.36 31.01 34.03 31.02 C 35.18 35.96 29.07 33.58 26.01 34.02 C 26.01 33.27 26.01 31.76 26.01 31.01 Z" />
</g>
<g id="#465057ff">
<path fill="#465057" opacity="1.00" d=" M 12.97 29.97 L 13.91 30.06 L 13.97 31.03 C 12.72 36.08 18.86 33.56 21.98 34.02 L 22.00 34.99 C 19.11 33.47 9.01 38.51 12.97 29.97 Z" />
<path fill="#465057" opacity="1.00" d=" M 34.08 30.06 L 35.03 29.97 C 38.66 38.18 29.89 34.41 26.02 34.96 L 26.01 34.02 C 29.07 33.58 35.18 35.96 34.03 31.02 L 34.08 30.06 Z" />
</g>
<g id="#d4d8dbff">
<path fill="#d4d8db" opacity="1.00" d=" M 13.91 30.06 C 16.32 30.48 21.15 28.76 21.99 31.01 C 19.31 31.01 16.64 31.02 13.97 31.03 L 13.91 30.06 Z" />
<path fill="#d4d8db" opacity="1.00" d=" M 26.01 31.01 C 26.85 28.76 31.67 30.48 34.08 30.06 L 34.03 31.02 C 31.36 31.01 28.68 31.01 26.01 31.01 Z" />
</g>
</svg>
