<?xml version="1.0" encoding="UTF-8" ?>
<!DOCTYPE svg PUBLIC "-//W3C//DTD SVG 1.1//EN" "http://www.w3.org/Graphics/SVG/1.1/DTD/svg11.dtd">
<svg width="64pt" height="64pt" viewBox="0 0 64 64" version="1.1" xmlns="http://www.w3.org/2000/svg">
<g id="#960000bb">
<path fill="#960000" opacity="0.73" d=" M 21.32 4.68 C 23.77 3.99 23.43 7.44 21.70 8.16 C 19.72 7.86 19.34 5.34 21.32 4.68 Z" />
</g>
<g id="#00a2ffff">
<path fill="#00a2ff" opacity="1.00" d=" M 33.61 9.59 C 38.37 2.16 48.60 2.33 56.14 4.58 C 60.88 5.69 59.81 11.71 60.23 15.39 C 57.59 15.78 56.96 13.04 55.69 11.38 C 52.73 6.29 45.48 4.84 40.45 7.52 C 36.36 9.82 36.66 16.16 40.28 18.77 C 46.31 23.64 54.41 25.50 59.79 31.27 C 63.94 35.78 63.15 43.61 58.50 47.48 C 54.60 50.98 49.09 51.67 44.06 51.48 C 40.70 51.30 36.94 51.15 34.28 48.82 C 32.68 46.22 31.41 43.22 31.25 40.14 C 31.69 39.96 32.57 39.58 33.01 39.39 C 35.11 41.17 36.37 43.73 38.53 45.46 C 42.54 48.94 48.63 49.36 53.38 47.24 C 57.96 44.98 58.24 37.67 54.21 34.73 C 48.38 30.03 40.96 27.73 35.35 22.71 C 31.78 19.48 31.07 13.65 33.61 9.59 Z" />
</g>
<g id="#990000b7">
<path fill="#990000" opacity="0.72" d=" M 18.48 13.19 C 19.77 12.50 21.06 11.83 22.34 11.13 C 22.33 14.30 22.34 17.46 22.33 20.63 C 22.90 21.22 24.03 22.41 24.60 23.00 C 22.61 23.00 20.61 23.01 18.62 23.00 C 19.05 22.44 19.91 21.32 20.35 20.76 C 20.50 20.57 20.81 20.18 20.96 19.99 C 21.17 18.40 21.43 16.49 20.29 15.18 C 19.84 14.68 18.93 13.69 18.48 13.19 Z" />
</g>
<g id="#6a0000a5">
<path fill="#6a0000" opacity="0.65" d=" M 20.29 15.18 C 21.43 16.49 21.17 18.40 20.96 19.99 C 20.81 20.18 20.50 20.57 20.35 20.76 C 19.41 19.17 19.39 16.79 20.29 15.18 Z" />
</g>
<g id="#f9ca0cfc">
<path fill="#f9ca0c" opacity="1.00" d=" M 13.93 26.07 C 18.92 25.86 23.97 25.74 28.95 26.13 C 29.36 26.35 30.20 26.79 30.62 27.01 C 24.77 27.09 18.92 26.90 13.09 27.35 L 13.93 26.07 Z" />
</g>
<g id="#614b03a0">
<path fill="#614b03" opacity="0.63" d=" M 13.09 27.35 C 18.92 26.90 24.77 27.09 30.62 27.01 C 28.65 28.35 26.22 27.95 23.99 27.99 C 20.35 27.91 16.66 28.23 13.09 27.35 Z" />
</g>
<g id="#08d338fd">
<path fill="#08d338" opacity="1.00" d=" M 17.67 30.98 C 18.29 30.76 19.54 30.33 20.16 30.11 C 19.88 32.00 19.86 33.93 20.18 35.82 L 20.54 35.83 C 22.07 35.87 23.60 35.91 25.13 35.93 L 25.34 37.41 C 23.51 37.31 21.69 37.25 19.87 37.12 C 20.00 38.65 20.16 40.19 20.31 41.72 C 19.92 44.59 19.45 47.73 21.48 50.14 C 20.68 50.14 19.08 50.14 18.28 50.15 C 19.46 45.96 18.97 41.59 18.88 37.32 C 18.03 37.29 16.34 37.23 15.49 37.20 L 16.35 36.28 C 16.95 36.14 18.16 35.85 18.76 35.70 L 19.11 35.63 C 19.26 33.95 18.85 32.23 17.67 30.98 Z" />
</g>
<g id="#0024096e">
<path fill="#002409" opacity="0.43" d=" M 20.16 30.11 C 21.83 31.05 21.59 34.33 20.54 35.83 L 20.18 35.82 C 19.86 33.93 19.88 32.00 20.16 30.11 Z" />
</g>
<g id="#03641ab1">
<path fill="#03641a" opacity="0.69" d=" M 17.21 31.05 L 17.67 30.98 C 18.85 32.23 19.26 33.95 19.11 35.63 L 18.76 35.70 C 17.63 34.61 16.55 32.61 17.21 31.05 Z" />
</g>
<g id="#02401088">
<path fill="#024010" opacity="0.53" d=" M 15.49 37.20 C 16.34 37.23 18.03 37.29 18.88 37.32 C 18.97 41.59 19.46 45.96 18.28 50.15 C 19.08 50.14 20.68 50.14 21.48 50.14 C 19.45 47.73 19.92 44.59 20.31 41.72 C 20.16 40.19 20.00 38.65 19.87 37.12 C 21.69 37.25 23.51 37.31 25.34 37.41 C 23.94 37.73 22.30 37.54 21.20 38.63 C 22.89 38.98 24.63 39.06 26.27 39.62 C 25.44 39.57 23.78 39.48 22.95 39.43 C 22.78 39.79 22.44 40.50 22.27 40.85 C 21.91 41.43 21.19 42.59 20.83 43.17 C 20.34 45.92 20.61 48.74 23.00 50.52 C 20.97 50.70 18.94 50.89 16.92 51.10 C 18.95 47.08 17.89 42.50 18.15 38.19 C 17.48 37.94 16.15 37.45 15.49 37.20 Z" />
</g>
<g id="#07c834fa">
<path fill="#07c834" opacity="0.98" d=" M 22.27 40.85 C 22.44 40.50 22.78 39.79 22.95 39.43 C 23.78 39.48 25.44 39.57 26.27 39.62 L 27.31 39.71 L 27.11 41.32 C 26.95 43.46 26.31 46.01 27.56 47.91 C 28.11 48.37 29.22 49.31 29.77 49.77 C 28.20 49.95 26.62 50.16 25.05 50.38 C 26.37 47.68 26.22 44.61 25.54 41.75 C 24.47 41.38 23.38 41.08 22.27 40.85 Z" />
</g>
<g id="#036b1cbd">
<path fill="#036b1c" opacity="0.74" d=" M 27.11 41.32 C 28.92 42.37 28.35 46.12 27.56 47.91 C 26.31 46.01 26.95 43.46 27.11 41.32 Z" />
</g>
<g id="#00120446">
<path fill="#001204" opacity="0.27" d=" M 25.54 41.75 C 26.22 44.61 26.37 47.68 25.05 50.38 C 26.62 50.16 28.20 49.95 29.77 49.77 L 30.62 49.68 C 29.30 52.07 26.18 50.59 24.01 50.83 C 25.31 47.98 25.50 44.84 25.54 41.75 Z" />
</g>
<g id="#eba307ff">
<path fill="#eba307" opacity="1.00" d=" M 2.74 52.28 C 3.61 50.95 4.91 49.99 6.05 48.92 C 7.30 49.48 8.56 50.01 9.78 50.62 C 6.25 49.02 4.58 52.73 4.39 55.62 C 5.95 55.14 7.54 54.80 9.07 54.23 C 9.44 54.51 10.20 55.07 10.57 55.35 L 10.75 55.50 C 8.72 55.90 6.69 56.34 4.68 56.88 C 5.45 58.46 6.04 60.59 8.01 61.04 C 10.49 61.68 12.87 60.26 15.18 59.54 C 12.47 64.74 2.63 64.19 1.86 57.69 C 2.07 55.87 2.30 54.05 2.74 52.28 Z" />
</g>
<g id="#df9b07f3">
<path fill="#df9b07" opacity="0.95" d=" M 6.05 48.92 C 7.86 48.95 9.87 48.34 11.50 49.40 C 13.14 50.39 13.99 52.20 15.08 53.71 C 13.66 54.31 12.25 54.92 10.84 55.56 L 10.57 55.35 C 10.20 55.07 9.44 54.51 9.07 54.23 C 9.68 53.98 10.90 53.46 11.51 53.21 C 11.08 52.56 10.22 51.27 9.78 50.62 C 8.56 50.01 7.30 49.48 6.05 48.92 Z" />
</g>
<g id="#261a0153">
<path fill="#261a01" opacity="0.33" d=" M 1.86 57.69 C -0.48 57.19 0.49 52.30 2.74 52.28 C 2.30 54.05 2.07 55.87 1.86 57.69 Z" />
</g>
</svg>
