<?xml version="1.0" encoding="UTF-8" ?>
<!DOCTYPE svg PUBLIC "-//W3C//DTD SVG 1.1//EN" "http://www.w3.org/Graphics/SVG/1.1/DTD/svg11.dtd">
<svg width="48pt" height="48pt" viewBox="0 0 48 48" version="1.1" xmlns="http://www.w3.org/2000/svg">
<g id="#66bbffff">
<path fill="#66bbff" opacity="1.00" d=" M 14.18 23.91 C 25.16 18.42 36.14 12.94 47.11 7.44 C 41.70 14.81 36.16 22.09 30.67 29.41 C 27.91 33.05 25.14 36.70 22.44 40.39 C 19.68 34.90 16.95 29.39 14.18 23.91 Z" />
</g>
<g id="#555555ff">
<path fill="#555555" opacity="1.00" d=" M 11.07 9.16 C 17.65 5.65 26.07 7.58 31.01 13.00 C 27.72 14.07 24.59 17.85 20.95 15.92 C 15.04 13.81 8.59 20.03 9.94 26.02 C 10.22 29.17 12.88 31.05 15.12 32.88 C 16.84 35.20 17.76 37.99 19.12 40.51 C 12.23 40.62 5.44 36.35 3.06 29.81 C 0.04 22.18 3.60 12.67 11.07 9.16 Z" />
</g>
<g id="#006699ff">
<path fill="#006699" opacity="1.00" d=" M 22.44 40.39 C 25.14 36.70 27.91 33.05 30.67 29.41 C 33.49 33.05 36.16 36.80 39.02 40.41 C 33.49 40.39 27.97 40.43 22.44 40.39 Z" />
</g>
</svg>
