<svg xmlns="http://www.w3.org/2000/svg" width="32px" height="32px">
  <path fill="#fccf00" d="M32 30.223A1.78 1.78 0 0 1 30.223 32H1.778A1.78 1.78 0 0 1 0 30.223V1.778A1.78 1.78 0 0 1 1.778 0h28.445A1.78 1.78 0 0 1 32 1.778v28.445z"/>
  <path fill="#694b3a" d="M26.731 11.245c-.475-.417-.949-.848-1.554-.964-1.223-.445-2.443-.977-3.795-1.006-.548-.043-.893-.561-1.31-.892-.79-.129-1.423-.719-2.07-1.136-.532-.359.014-.963-.272-1.38-.921-.446-.174-1.625-1.037-2.042-.315-.129-.661-.245-.934-.518-.374-.273-.633.201-.963.244-.604 1.179-.633 2.689-1.769 3.696-.129.201.101.388 0 .59l-1.208.92c-.891-.187-1.006.906-1.51 1.352-.876.489-1.567 1.308-2.344 1.97-.762.518-1.15 1.337-1.898 1.798-.288.23-.877.187-.834.69.073.402.445.215.763.273.561-.23.719-.877 1.064-1.309l.273-.072c.906.345 1.755.014 2.488-.489.402-.36.833-.805 1.309-1.036.532-.187.805-.777 1.38-.82.202.014.216.23.245.374-.258.791-.201 1.74-.301 2.56.258.561.172 1.265.518 1.783.128.547.69.46 1.092.561.273-.028.388-.259.561-.445.302-.029.173.331.302.475-.158.705.028 1.394-.029 2.07-.244.402-.46.893-.936 1.106-.33-.014-.762.36-.991-.071-.044-.129.057-.201.128-.272.734-.288.92-1.107 1.208-1.726.086-.13.172-.432-.072-.518-.301-.087-.518.287-.791.373-.604.346-.805-.689-1.452-.474-.273.2-.316.561-.345.892-.015.531.115 1.164.633 1.424-.374.314-.59.791-.389 1.265.217.689.92 1.236 1.597 1.452.216 0 .345-.23.546-.303 1.193-.373 2.458-.589 3.696-.861.948-.418 1.337.79 2.271.517.777-.173.891-1.034 1.006-1.697-.015-.531-.604-.833-.935-1.136-.633-.431-1.467-.114-2.07.13-.072-.058-.272 0-.202-.173a2.804 2.804 0 0 1 1.783-.617c.418-.115.475-.576.633-.892-.028-.504-.475-.849-.834-1.18-.488-.532-.805.345-1.279.345-.432.201-.949.288-1.309.589-.115-.115-.273-.23-.2-.417.057-.388.172-.762.273-1.136.732-.417 1.825.618 2.171-.489-.015-.417-.129-.834.071-1.208-.488-.575-1.121.086-1.725 0-.072.043-.188.115-.172.216.401.259.861-.23 1.279.029.028.086-.072.115-.115.173-.446-.058-.979-.058-1.381.143-.632-.129-1.178.173-1.725.417-.331.058-.776.345-.993-.115-.101-.101-.101-.345 0-.445.647-.302 1.38-.388 2.071-.59.33-.101.934.129.992-.345-.059-.445.258-.733.287-1.136-.043-.173-.244-.316-.416-.201-.562.474-1.454-.145-1.899.618-.46-.029-.819.632-1.251.245-.058-1.64 1.841-1.18 2.631-2.114.389-.216.418-.647.476-1.036.589.287.819.992 1.452 1.179 1.74.115 2.416 2.488 4.113 2.517.589.057.949-.46 1.452-.619l.546.072c.575-.043 1.035-.389 1.352-.863.173 0 .388-.029.547.028.143-.041.174-.229.101-.343zM14.969 9.174c-.23.015-.533.13-.691.043.086-.302.417-.475.647-.661.244-.302.733-.173.978.072-.144.374-.632.374-.934.546z"/>
  <path fill="#37302e" d="M3.672 27.027h.018l.791-.832c.106-.125.188-.22.188-.284 0-.042-.015-.068-.052-.075s-.049-.016-.049-.038.019-.034.061-.034l.39.012.442-.012c.038 0 .064.008.064.034s-.019.034-.057.034a.76.76 0 0 0-.22.041 1.213 1.213 0 0 0-.408.284l-.817.817c.136.178.878.975 1.025 1.115.167.158.337.329.541.408a.643.643 0 0 0 .234.057c.027 0 .049.008.049.031s-.019.037-.09.037h-.328c-.114 0-.182 0-.261-.007-.205-.02-.307-.103-.469-.246s-.911-1.021-.991-1.132l-.043-.055h-.018v.344l.011.811c.008.105.042.188.137.204.053.007.136.015.186.015.03 0 .049.012.049.031 0 .025-.031.037-.072.037-.211 0-.45-.012-.544-.012l-.477.012c-.049 0-.076-.012-.076-.037s.015-.031.061-.031a.65.65 0 0 0 .136-.015c.076-.016.095-.099.109-.208.02-.159.02-.458.02-.807v-.664l-.008-.803c-.007-.129-.038-.189-.163-.216a.824.824 0 0 0-.147-.011c-.042 0-.065-.008-.065-.034s.026-.034.083-.034l.529.012.458-.012c.053 0 .079.008.079.034s-.023.034-.053.034c-.038 0-.061.004-.106.011-.102.019-.132.083-.14.216-.008.121-.008.227-.008.803v.165zm2.783.095-.004-.682c-.007-.11-.042-.147-.113-.17a.478.478 0 0 0-.121-.014c-.034 0-.053-.008-.053-.039 0-.018.026-.025.08-.025l.446.008.428-.008c.042 0 .068.008.068.025 0 .031-.019.039-.054.039a.5.5 0 0 0-.098.011c-.091.016-.117.061-.125.174-.008.103-.008.193-.008.682v.567l.015.703c.011.087.034.137.133.151.045.007.12.011.17.011.038 0 .053.02.053.034 0 .022-.027.034-.064.034-.219 0-.446-.012-.537-.012l-.435.012c-.042 0-.064-.012-.064-.034 0-.015.012-.034.053-.034a.52.52 0 0 0 .117-.011c.068-.015.087-.061.099-.155.015-.133.015-.39.015-.699v-.568zm2.163 1.063c.008.249.049.325.113.349a.59.59 0 0 0 .174.021c.038 0 .057.016.057.034 0 .027-.03.034-.076.034-.216 0-.371-.012-.431-.012l-.359.012c-.045 0-.076-.004-.076-.034 0-.019.022-.034.053-.034a.71.71 0 0 0 .151-.015c.087-.022.098-.109.102-.39l.03-1.906c0-.064.023-.109.057-.109.042 0 .087.049.143.105l1.026 1.025.718.723h.015l-.034-1.43c-.004-.197-.034-.254-.114-.285-.049-.018-.129-.018-.174-.018s-.053-.016-.053-.034c0-.026.034-.03.083-.03l.424.008.326-.008c.045 0 .076.004.076.03 0 .019-.019.034-.057.034s-.061 0-.102.011c-.091.026-.117.083-.121.265l-.038 2.027c0 .072-.027.103-.053.103-.056 0-.102-.034-.136-.069l-.972-.926-.779-.794H8.58l.038 1.313zm5.382.223c0 .086 0 .09-.042.113-.223.109-.552.143-.813.143-.817 0-1.54-.37-1.54-1.259 0-.515.275-.874.582-1.052.318-.186.617-.207.897-.207.23 0 .522.037.59.053l.265.033c.038.004.045.016.045.038 0 .038-.022.125-.022.529 0 .05-.02.072-.046.072s-.03-.016-.034-.042a.43.43 0 0 0-.113-.265c-.099-.103-.348-.245-.723-.245-.182 0-.412.004-.643.188-.186.152-.307.391-.307.783 0 .693.447 1.195 1.158 1.195.087 0 .155 0 .234-.033.049-.022.064-.057.064-.113v-.295l-.004-.379c-.003-.109-.038-.143-.144-.174a.56.56 0 0 0-.128-.012c-.03 0-.053-.015-.053-.033 0-.027.026-.031.072-.031l.511.008.39-.008c.044 0 .067.004.067.031 0 .019-.019.033-.042.033s-.053.004-.091.012c-.091.016-.125.061-.129.174l-.001.388v.355zm1.214.17c-.061-.027-.072-.045-.072-.129l.019-.496c.004-.057.016-.098.045-.098.034 0 .038.034.038.064 0 .049.015.128.034.192.083.28.306.382.541.382.34 0 .507-.23.507-.432 0-.184-.057-.358-.371-.604l-.174-.136c-.416-.326-.56-.591-.56-.896 0-.416.348-.715.874-.715a1.81 1.81 0 0 1 .503.064c.035.008.053.02.053.045 0 .049-.016.158-.016.453 0 .084-.011.114-.041.114s-.038-.022-.038-.067a.46.46 0 0 0-.099-.25.48.48 0 0 0-.413-.186c-.279 0-.45.162-.45.389 0 .175.087.307.401.545l.106.08c.458.344.62.605.62.964 0 .22-.083.481-.355.659-.189.12-.401.154-.602.154a1.285 1.285 0 0 1-.55-.096zm3.191-2.19-.495.011c-.193.004-.273.027-.322.1-.033.045-.049.087-.057.109s-.016.041-.037.041-.031-.019-.031-.053c0-.053.064-.363.072-.389.008-.043.02-.061.038-.061.026 0 .061.025.144.037a2.95 2.95 0 0 0 .333.016h1.35c.105 0 .178-.008.227-.016l.091-.016c.022 0 .026.02.026.068l-.008.39c-.004.034-.011.053-.029.053-.027 0-.035-.015-.039-.063l-.003-.035c-.008-.082-.095-.182-.394-.185l-.42-.008v1.302l.019.688c.012.092.03.152.129.167.046.007.121.011.171.011.037 0 .053.02.053.034 0 .022-.027.034-.064.034-.219 0-.442-.012-.537-.012l-.436.012c-.041 0-.063-.012-.063-.034 0-.015.011-.034.053-.034.05 0 .091-.004.116-.011.068-.015.088-.075.1-.171a8.19 8.19 0 0 0 .015-.684v-1.301zm1.955 1.017c0-.549.386-1.259 1.396-1.259.84 0 1.361.465 1.361 1.202s-.537 1.315-1.395 1.315c-.968.001-1.362-.686-1.362-1.258zm2.263.061c0-.712-.428-1.15-.965-1.15-.371 0-.806.197-.806.991 0 .662.378 1.185 1.006 1.185.235-.001.765-.111.765-1.026zm1.738.719c.008.249.049.325.113.349a.594.594 0 0 0 .175.021c.038 0 .057.016.057.034 0 .027-.03.034-.075.034-.216 0-.371-.012-.432-.012l-.359.012c-.045 0-.076-.004-.076-.034 0-.019.023-.034.053-.034a.706.706 0 0 0 .152-.015c.086-.022.098-.109.102-.39l.03-1.906c0-.064.022-.109.057-.109.042 0 .087.049.144.105l1.025 1.025.719.723h.016l-.035-1.43c-.003-.197-.033-.254-.113-.285-.049-.018-.129-.018-.174-.018s-.053-.016-.053-.034c0-.026.033-.03.082-.03l.425.008.325-.008c.045 0 .076.004.076.03 0 .019-.02.034-.057.034s-.061 0-.104.011c-.09.026-.117.083-.12.265l-.038 2.027c0 .072-.027.103-.053.103-.057 0-.103-.034-.137-.069l-.973-.926-.777-.794h-.012l.037 1.313zm3.389-1.063-.004-.682c-.008-.11-.037-.144-.144-.174a.653.653 0 0 0-.133-.011c-.034 0-.057-.012-.057-.034s.026-.03.075-.03l.48.008h.908c.061-.004.113-.016.141-.02.019-.004.037-.016.053-.016s.021.016.021.031c0 .021-.018.061-.025.207l-.019.213c-.005.015-.012.053-.038.053s-.027-.016-.027-.042a.33.33 0 0 0-.021-.118c-.027-.056-.055-.102-.221-.117a14.34 14.34 0 0 0-.521-.015c-.016 0-.022.012-.022.03v.795c0 .019.004.033.022.033l.582-.007c.08-.008.125-.02.16-.05.025-.021.037-.041.053-.041s.025.016.025.033-.008.072-.025.235a3.01 3.01 0 0 0-.016.216c0 .025-.004.072-.034.072-.022 0-.03-.012-.03-.027l-.011-.117c-.02-.064-.061-.113-.186-.125a10.44 10.44 0 0 0-.522-.016c-.015 0-.019.016-.019.035v.734c.007.22.108.269.45.269.087 0 .227-.004.314-.041s.12-.106.143-.238c.008-.035.016-.049.038-.049s.03.041.03.074a2.14 2.14 0 0 1-.045.355c-.023.084-.053.084-.178.084-.25 0-.451-.004-.613-.012l-.386-.008-.188.005-.23.007c-.043 0-.064-.012-.064-.034 0-.015.01-.034.053-.034a.52.52 0 0 0 .117-.011c.068-.015.087-.075.098-.171.016-.136.016-.389.016-.684v-.565z"/>
  <path fill="#b81c22" d="M15.937 23.256c3.94-.249 7.491.109 9.524.388-2.528-.078-5.956-.233-9.585 0s-6.823.806-9.336 1.225c2.032-.558 5.458-1.349 9.397-1.613z"/>
</svg>
