<?xml version="1.0" encoding="UTF-8" ?>
<!DOCTYPE svg PUBLIC "-//W3C//DTD SVG 1.1//EN" "http://www.w3.org/Graphics/SVG/1.1/DTD/svg11.dtd">
<svg width="57pt" height="57pt" viewBox="0 0 57 57" version="1.1" xmlns="http://www.w3.org/2000/svg">
<g id="#ffffffff">
<path fill="#ffffff" opacity="1.00" d=" M 0.00 0.00 L 57.00 0.00 L 57.00 57.00 L 0.00 57.00 L 0.00 0.00 M 16.00 7.00 C 16.00 18.83 16.00 30.67 16.00 42.50 C 18.33 42.50 20.67 42.50 23.00 42.50 C 23.00 38.92 23.00 35.33 23.00 31.75 C 24.54 31.76 26.08 31.76 27.62 31.75 C 30.43 35.29 33.02 39.00 35.86 42.54 C 38.80 42.50 41.74 42.49 44.69 42.49 C 41.32 38.17 38.10 33.72 34.72 29.40 C 40.59 24.89 41.31 15.29 35.71 10.27 C 30.44 5.14 22.55 7.55 16.00 7.00 M 9.80 46.03 C 11.88 47.83 14.01 49.58 16.17 51.29 C 28.24 49.67 40.28 47.74 52.41 46.48 C 49.94 46.10 47.45 45.96 44.95 45.99 C 33.23 46.03 21.52 45.95 9.80 46.03 Z" />
<path fill="#ffffff" opacity="1.00" d=" M 23.00 14.00 C 25.75 14.11 29.21 13.29 31.19 15.79 C 33.61 18.03 32.86 22.37 30.01 23.89 C 27.91 25.20 25.34 24.67 23.01 24.75 C 23.00 21.17 23.00 17.58 23.00 14.00 Z" />
</g>
<g id="#bf0000ff">
<path fill="#bf0000" opacity="1.00" d=" M 16.00 7.00 C 22.55 7.55 30.44 5.14 35.71 10.27 C 41.31 15.29 40.59 24.89 34.72 29.40 C 38.10 33.72 41.32 38.17 44.69 42.49 C 41.74 42.49 38.80 42.50 35.86 42.54 C 33.02 39.00 30.43 35.29 27.62 31.75 C 26.08 31.76 24.54 31.76 23.00 31.75 C 23.00 35.33 23.00 38.92 23.00 42.50 C 20.67 42.50 18.33 42.50 16.00 42.50 C 16.00 30.67 16.00 18.83 16.00 7.00 M 23.00 14.00 C 23.00 17.58 23.00 21.17 23.01 24.75 C 25.34 24.67 27.91 25.20 30.01 23.89 C 32.86 22.37 33.61 18.03 31.19 15.79 C 29.21 13.29 25.75 14.11 23.00 14.00 Z" />
<path fill="#bf0000" opacity="1.00" d=" M 9.80 46.03 C 21.52 45.95 33.23 46.03 44.95 45.99 C 47.45 45.96 49.94 46.10 52.41 46.48 C 40.28 47.74 28.24 49.67 16.17 51.29 C 14.01 49.58 11.88 47.83 9.80 46.03 Z" />
</g>
</svg>
