<?xml version="1.0" encoding="UTF-8" ?>
<!DOCTYPE svg PUBLIC "-//W3C//DTD SVG 1.1//EN" "http://www.w3.org/Graphics/SVG/1.1/DTD/svg11.dtd">
<svg width="64pt" height="64pt" viewBox="0 0 64 64" version="1.1" xmlns="http://www.w3.org/2000/svg">
<g id="#05132b4f">
<path fill="#05132b" opacity="0.31" d=" M 20.05 6.16 C 22.84 2.28 29.55 2.62 34.02 1.99 C 36.56 1.41 38.11 3.88 40.32 4.57 C 41.57 5.15 43.93 5.24 43.89 7.08 C 42.28 6.63 40.65 6.24 39.02 5.90 C 36.29 3.61 31.41 1.40 28.83 5.00 C 26.76 4.57 24.62 4.23 22.85 5.67 L 22.10 6.04 C 21.59 6.07 20.57 6.13 20.05 6.16 Z" />
</g>
<g id="#163362a5">
<path fill="#163362" opacity="0.65" d=" M 28.83 5.00 C 31.41 1.40 36.29 3.61 39.02 5.90 C 38.31 5.83 36.88 5.68 36.17 5.60 C 33.10 4.28 30.18 4.89 29.13 7.98 C 28.87 8.54 28.36 9.65 28.10 10.20 C 28.15 8.45 28.26 6.68 28.83 5.00 Z" />
</g>
<g id="#06274f83">
<path fill="#06274f" opacity="0.51" d=" M 22.85 5.67 C 24.62 4.23 26.76 4.57 28.83 5.00 C 28.26 6.68 28.15 8.45 28.10 10.20 C 27.11 12.83 26.02 15.42 25.03 18.04 L 24.08 18.09 C 24.45 16.46 24.86 14.83 25.08 13.16 C 24.08 13.42 23.07 13.70 22.08 13.99 C 23.63 11.50 25.15 8.95 26.09 6.15 C 25.28 6.03 23.66 5.79 22.85 5.67 Z" />
</g>
<g id="#3865a0ec">
<path fill="#3865a0" opacity="0.93" d=" M 29.13 7.98 C 30.18 4.89 33.10 4.28 36.17 5.60 C 34.69 5.93 33.17 6.27 31.89 7.12 C 33.36 9.86 36.32 10.84 38.94 12.07 C 37.60 12.04 36.26 12.03 34.92 12.04 C 32.81 10.96 30.93 9.51 29.13 7.98 Z" />
</g>
<g id="#061b437d">
<path fill="#061b43" opacity="0.49" d=" M 5.01 24.98 C 6.77 16.97 12.18 9.05 20.05 6.16 C 20.57 6.13 21.59 6.07 22.10 6.04 C 14.93 9.85 8.77 15.65 6.79 23.77 C 6.19 27.77 4.93 32.38 6.73 36.26 C 8.59 38.84 8.68 45.93 13.14 43.11 L 14.04 42.86 C 14.48 43.16 15.38 43.75 15.83 44.04 C 15.59 45.01 15.29 45.97 14.91 46.90 C 14.29 48.00 13.70 49.12 13.09 50.23 L 13.06 49.19 C 13.50 46.80 12.59 45.54 10.12 45.78 C 8.40 42.25 5.78 38.90 4.99 35.02 C 4.98 31.67 4.98 28.33 5.01 24.98 Z" />
</g>
<g id="#0b3c87ed">
<path fill="#0b3c87" opacity="0.93" d=" M 22.10 6.04 L 22.85 5.67 C 23.66 5.79 25.28 6.03 26.09 6.15 C 25.15 8.95 23.63 11.50 22.08 13.99 C 18.55 15.78 14.20 18.53 13.85 22.88 C 13.60 23.15 13.10 23.68 12.85 23.95 C 10.86 29.96 12.96 36.79 13.14 43.11 C 8.68 45.93 8.59 38.84 6.73 36.26 C 6.81 32.10 6.82 27.93 6.79 23.77 C 8.77 15.65 14.93 9.85 22.10 6.04 Z" />
</g>
<g id="#688dbbf6">
<path fill="#688dbb" opacity="0.96" d=" M 31.89 7.12 C 33.17 6.27 34.69 5.93 36.17 5.60 C 36.88 5.68 38.31 5.83 39.02 5.90 C 40.71 7.36 42.71 8.39 44.75 9.30 C 46.23 10.46 47.82 11.48 49.16 12.80 C 50.07 15.57 51.13 18.28 52.00 21.07 C 49.04 21.60 47.70 18.82 45.86 17.13 C 43.83 15.10 41.39 13.55 38.94 12.07 C 36.32 10.84 33.36 9.86 31.89 7.12 Z" />
</g>
<g id="#294573b0">
<path fill="#294573" opacity="0.69" d=" M 39.02 5.90 C 40.65 6.24 42.28 6.63 43.89 7.08 C 44.12 7.39 44.58 8.02 44.82 8.33 L 44.75 9.30 C 42.71 8.39 40.71 7.36 39.02 5.90 Z" />
</g>
<g id="#0a569ded">
<path fill="#0a569d" opacity="0.93" d=" M 29.13 7.98 C 30.93 9.51 32.81 10.96 34.92 12.04 C 34.49 13.37 34.12 14.71 33.75 16.05 C 32.85 17.73 31.87 19.46 31.74 21.40 L 31.10 20.82 C 31.06 19.24 32.25 17.33 30.81 16.07 C 27.81 15.14 26.84 18.46 25.23 20.22 C 25.18 19.68 25.08 18.59 25.03 18.04 C 26.02 15.42 27.11 12.83 28.10 10.20 C 28.36 9.65 28.87 8.54 29.13 7.98 Z" />
</g>
<g id="#0e274e83">
<path fill="#0e274e" opacity="0.51" d=" M 44.82 8.33 C 48.71 8.68 52.52 13.23 53.84 17.06 C 53.85 17.57 53.88 18.59 53.89 19.10 C 52.52 16.85 51.23 14.49 49.16 12.80 C 47.82 11.48 46.23 10.46 44.75 9.30 L 44.82 8.33 Z" />
</g>
<g id="#24456890">
<path fill="#244568" opacity="0.56" d=" M 34.92 12.04 C 36.26 12.03 37.60 12.04 38.94 12.07 C 41.39 13.55 43.83 15.10 45.86 17.13 C 45.87 17.62 45.91 18.61 45.92 19.10 C 43.27 16.63 40.41 14.32 36.99 12.99 C 35.56 13.53 34.84 15.06 33.75 16.05 C 34.12 14.71 34.49 13.37 34.92 12.04 Z" />
</g>
<g id="#01080f17">
<path fill="#01080f" opacity="0.09" d=" M 22.08 13.99 C 23.07 13.70 24.08 13.42 25.08 13.16 C 24.86 14.83 24.45 16.46 24.08 18.09 C 23.26 20.40 22.29 22.65 21.67 25.03 C 20.51 26.42 19.48 28.12 20.26 29.98 C 19.49 31.95 18.61 33.87 17.88 35.85 C 16.74 38.38 15.27 38.28 13.99 35.91 C 13.93 35.49 13.83 34.64 13.78 34.21 C 13.88 30.44 14.04 26.66 13.85 22.88 C 16.67 19.99 19.53 17.13 22.08 13.99 Z" />
</g>
<g id="#03101a25">
<path fill="#03101a" opacity="0.15" d=" M 33.75 16.05 C 34.84 15.06 35.56 13.53 36.99 12.99 C 40.41 14.32 43.27 16.63 45.92 19.10 C 46.64 20.02 47.37 20.93 48.08 21.86 C 48.08 23.23 48.09 24.60 48.13 25.96 C 47.35 24.77 46.94 22.46 45.24 23.94 C 46.19 18.88 38.36 20.43 35.98 21.95 C 35.71 22.42 35.16 23.36 34.89 23.83 C 34.69 24.19 34.29 24.91 34.09 25.27 C 31.96 25.40 32.01 23.67 32.07 22.06 C 33.97 20.62 34.55 18.28 33.75 16.05 Z" />
</g>
<g id="#285a96e2">
<path fill="#285a96" opacity="0.89" d=" M 49.16 12.80 C 51.23 14.49 52.52 16.85 53.89 19.10 L 54.21 19.84 C 54.23 20.58 54.25 22.08 54.27 22.82 C 52.89 23.41 51.48 23.90 50.04 24.33 C 49.38 23.51 48.73 22.69 48.08 21.86 C 47.37 20.93 46.64 20.02 45.92 19.10 C 45.91 18.61 45.87 17.62 45.86 17.13 C 47.70 18.82 49.04 21.60 52.00 21.07 C 51.13 18.28 50.07 15.57 49.16 12.80 Z" />
</g>
<g id="#04214573">
<path fill="#042145" opacity="0.45" d=" M 13.85 22.88 C 14.20 18.53 18.55 15.78 22.08 13.99 C 19.53 17.13 16.67 19.99 13.85 22.88 Z" />
</g>
<g id="#0573baf5">
<path fill="#0573ba" opacity="0.96" d=" M 25.23 20.22 C 26.84 18.46 27.81 15.14 30.81 16.07 C 32.25 17.33 31.06 19.24 31.10 20.82 C 30.68 23.24 29.99 25.63 29.98 28.11 C 31.63 27.78 33.75 27.20 34.09 25.27 C 34.29 24.91 34.69 24.19 34.89 23.83 C 37.63 23.70 40.63 22.28 43.20 23.66 C 40.93 26.25 38.52 28.73 36.29 31.36 C 34.18 35.22 37.69 37.11 39.79 39.21 C 41.45 40.96 43.59 41.66 46.21 41.30 C 42.39 44.96 35.44 43.29 30.83 41.22 C 29.19 39.38 26.38 36.33 24.75 39.97 C 24.36 40.21 23.58 40.67 23.19 40.91 C 21.95 39.66 20.48 38.71 19.01 37.78 C 19.94 35.29 21.07 32.82 21.00 30.10 C 21.56 29.13 22.00 28.11 22.33 27.05 C 23.24 24.75 24.25 22.49 25.23 20.22 Z" />
</g>
<g id="#023c678f">
<path fill="#023c67" opacity="0.56" d=" M 31.74 21.40 C 31.87 19.46 32.85 17.73 33.75 16.05 C 34.55 18.28 33.97 20.62 32.07 22.06 L 31.74 21.40 Z" />
</g>
<g id="#04163257">
<path fill="#041632" opacity="0.34" d=" M 53.84 17.06 C 56.05 18.18 56.86 21.70 57.14 24.17 L 56.23 23.79 C 55.61 22.45 54.92 21.14 54.21 19.84 L 53.89 19.10 C 53.88 18.59 53.85 17.57 53.84 17.06 Z" />
</g>
<g id="#034271a0">
<path fill="#034271" opacity="0.63" d=" M 24.08 18.09 L 25.03 18.04 C 25.08 18.59 25.18 19.68 25.23 20.22 C 24.25 22.49 23.24 24.75 22.33 27.05 C 22.16 26.54 21.83 25.53 21.67 25.03 C 22.29 22.65 23.26 20.40 24.08 18.09 Z" />
</g>
<g id="#0a3572c2">
<path fill="#0a3572" opacity="0.76" d=" M 54.21 19.84 C 54.92 21.14 55.61 22.45 56.23 23.79 C 56.07 25.26 55.92 26.73 55.79 28.20 C 55.41 26.86 54.65 24.17 54.27 22.82 C 54.25 22.08 54.23 20.58 54.21 19.84 Z" />
</g>
<g id="#015381a2">
<path fill="#015381" opacity="0.64" d=" M 31.10 20.82 L 31.74 21.40 L 32.07 22.06 C 32.01 23.67 31.96 25.40 34.09 25.27 C 33.75 27.20 31.63 27.78 29.98 28.11 C 29.99 25.63 30.68 23.24 31.10 20.82 Z" />
</g>
<g id="#01253f58">
<path fill="#01253f" opacity="0.35" d=" M 35.98 21.95 C 38.36 20.43 46.19 18.88 45.24 23.94 C 44.99 24.22 44.50 24.78 44.25 25.05 L 44.10 24.02 C 44.58 19.70 38.64 22.62 35.98 21.95 Z" />
</g>
<g id="#024f83b2">
<path fill="#024f83" opacity="0.70" d=" M 35.98 21.95 C 38.64 22.62 44.58 19.70 44.10 24.02 L 43.20 23.66 C 40.63 22.28 37.63 23.70 34.89 23.83 C 35.16 23.36 35.71 22.42 35.98 21.95 Z" />
</g>
<g id="#05305886">
<path fill="#053058" opacity="0.53" d=" M 48.08 21.86 C 48.73 22.69 49.38 23.51 50.04 24.33 C 50.37 28.00 50.86 32.28 47.11 34.14 L 46.11 34.08 L 46.14 33.21 C 48.69 31.53 49.88 29.16 48.13 25.96 C 48.09 24.60 48.08 23.23 48.08 21.86 Z" />
</g>
<g id="#07214169">
<path fill="#072141" opacity="0.41" d=" M 12.85 23.95 C 13.10 23.68 13.60 23.15 13.85 22.88 C 14.04 26.66 13.88 30.44 13.78 34.21 C 13.27 30.81 12.92 27.39 12.85 23.95 Z" />
</g>
<g id="#00070b11">
<path fill="#00070b" opacity="0.07" d=" M 45.24 23.94 C 46.94 22.46 47.35 24.77 48.13 25.96 C 49.88 29.16 48.69 31.53 46.14 33.21 C 43.41 32.75 38.73 34.61 38.64 30.84 C 40.51 28.91 42.44 27.04 44.25 25.05 C 44.50 24.78 44.99 24.22 45.24 23.94 Z" />
</g>
<g id="#0a4c94eb">
<path fill="#0a4c94" opacity="0.92" d=" M 50.04 24.33 C 51.48 23.90 52.89 23.41 54.27 22.82 C 54.65 24.17 55.41 26.86 55.79 28.20 C 55.96 29.51 56.12 30.82 56.28 32.13 C 53.62 33.56 51.00 35.08 48.23 36.31 C 47.40 36.21 45.75 36.01 44.92 35.92 C 45.64 35.31 46.37 34.72 47.11 34.14 C 50.86 32.28 50.37 28.00 50.04 24.33 Z" />
</g>
<g id="#0a2c6dcc">
<path fill="#0a2c6d" opacity="0.80" d=" M 6.73 36.26 C 4.93 32.38 6.19 27.77 6.79 23.77 C 6.82 27.93 6.81 32.10 6.73 36.26 Z" />
</g>
<g id="#113768a8">
<path fill="#113768" opacity="0.66" d=" M 13.14 43.11 C 12.96 36.79 10.86 29.96 12.85 23.95 C 12.92 27.39 13.27 30.81 13.78 34.21 C 13.83 34.64 13.93 35.49 13.99 35.91 C 14.00 37.65 14.02 41.13 14.04 42.86 L 13.14 43.11 Z" />
</g>
<g id="#01375a79">
<path fill="#01375a" opacity="0.47" d=" M 36.29 31.36 C 38.52 28.73 40.93 26.25 43.20 23.66 L 44.10 24.02 L 44.25 25.05 C 42.44 27.04 40.51 28.91 38.64 30.84 C 36.88 32.00 36.50 34.27 37.93 35.87 C 39.12 34.96 40.23 33.70 41.90 33.97 C 40.97 35.34 41.24 36.62 42.87 37.19 C 44.36 37.84 46.59 38.09 45.09 40.09 C 43.30 39.95 41.55 39.53 39.79 39.21 C 37.69 37.11 34.18 35.22 36.29 31.36 Z" />
</g>
<g id="#06285897">
<path fill="#062858" opacity="0.59" d=" M 56.23 23.79 L 57.14 24.17 C 56.92 26.83 56.65 29.48 56.28 32.13 C 56.12 30.82 55.96 29.51 55.79 28.20 C 55.92 26.73 56.07 25.26 56.23 23.79 Z" />
</g>
<g id="#03152f51">
<path fill="#03152f" opacity="0.32" d=" M 57.14 24.17 L 58.04 23.94 C 58.85 30.46 56.55 36.65 54.75 42.79 L 53.93 43.00 C 53.96 41.65 53.99 40.30 54.02 38.95 C 55.21 36.84 56.12 34.57 56.28 32.13 C 56.65 29.48 56.92 26.83 57.14 24.17 Z" />
</g>
<g id="#04102a51">
<path fill="#04102a" opacity="0.32" d=" M 4.01 34.99 C 4.26 32.49 4.76 27.48 5.01 24.98 C 4.98 28.33 4.98 31.67 4.99 35.02 L 4.01 34.99 Z" />
</g>
<g id="#02335779">
<path fill="#023357" opacity="0.47" d=" M 20.26 29.98 C 19.48 28.12 20.51 26.42 21.67 25.03 C 21.83 25.53 22.16 26.54 22.33 27.05 C 22.00 28.11 21.56 29.13 21.00 30.10 L 20.26 29.98 Z" />
</g>
<g id="#0d4b7cb0">
<path fill="#0d4b7c" opacity="0.69" d=" M 20.26 29.98 L 21.00 30.10 C 21.07 32.82 19.94 35.29 19.01 37.78 C 18.77 38.10 18.28 38.75 18.04 39.07 C 18.00 38.27 17.92 36.66 17.88 35.85 C 18.61 33.87 19.49 31.95 20.26 29.98 Z" />
</g>
<g id="#001c2d3c">
<path fill="#001c2d" opacity="0.24" d=" M 37.93 35.87 C 36.50 34.27 36.88 32.00 38.64 30.84 C 38.73 34.61 43.41 32.75 46.14 33.21 L 46.11 34.08 C 44.71 34.01 43.30 33.97 41.90 33.97 C 40.23 33.70 39.12 34.96 37.93 35.87 Z" />
</g>
<g id="#0531609b">
<path fill="#053160" opacity="0.61" d=" M 48.23 36.31 C 51.00 35.08 53.62 33.56 56.28 32.13 C 56.12 34.57 55.21 36.84 54.02 38.95 C 53.55 39.20 52.60 39.70 52.12 39.96 C 52.00 35.49 47.50 40.52 45.09 40.09 C 46.59 38.09 44.36 37.84 42.87 37.19 C 44.67 37.03 46.57 37.14 48.23 36.31 Z" />
</g>
<g id="#02487cb0">
<path fill="#02487c" opacity="0.69" d=" M 41.90 33.97 C 43.30 33.97 44.71 34.01 46.11 34.08 L 47.11 34.14 C 46.37 34.72 45.64 35.31 44.92 35.92 C 45.75 36.01 47.40 36.21 48.23 36.31 C 46.57 37.14 44.67 37.03 42.87 37.19 C 41.24 36.62 40.97 35.34 41.90 33.97 Z" />
</g>
<g id="#1a2e4765">
<path fill="#1a2e47" opacity="0.40" d=" M 13.99 35.91 C 15.27 38.28 16.74 38.38 17.88 35.85 C 17.92 36.66 18.00 38.27 18.04 39.07 C 17.73 39.54 17.11 40.47 16.79 40.94 C 16.37 41.94 16.04 42.97 15.83 44.04 C 15.38 43.75 14.48 43.16 14.04 42.86 C 14.02 41.13 14.00 37.65 13.99 35.91 Z" />
</g>
<g id="#6492c0f6">
<path fill="#6492c0" opacity="0.96" d=" M 19.01 37.78 C 20.48 38.71 21.95 39.66 23.19 40.91 C 22.85 42.61 22.95 44.36 23.25 46.07 C 19.97 48.41 16.72 44.04 16.79 40.94 C 17.11 40.47 17.73 39.54 18.04 39.07 C 18.28 38.75 18.77 38.10 19.01 37.78 Z" />
</g>
<g id="#0c3f6488">
<path fill="#0c3f64" opacity="0.53" d=" M 24.75 39.97 C 26.38 36.33 29.19 39.38 30.83 41.22 L 30.80 42.21 C 29.33 41.48 27.98 40.48 26.37 40.07 C 25.89 41.33 25.43 42.60 24.88 43.83 L 24.34 44.41 C 24.47 42.93 24.67 41.46 24.75 39.97 Z" />
</g>
<g id="#054783c7">
<path fill="#054783" opacity="0.78" d=" M 45.09 40.09 C 47.50 40.52 52.00 35.49 52.12 39.96 C 49.57 41.51 47.28 43.67 44.29 44.37 C 40.81 44.22 37.33 44.05 33.85 44.08 C 32.81 43.49 31.80 42.85 30.80 42.21 L 30.83 41.22 C 35.44 43.29 42.39 44.96 46.21 41.30 C 43.59 41.66 41.45 40.96 39.79 39.21 C 41.55 39.53 43.30 39.95 45.09 40.09 Z" />
</g>
<g id="#06224570">
<path fill="#062245" opacity="0.44" d=" M 52.12 39.96 C 52.60 39.70 53.55 39.20 54.02 38.95 C 53.99 40.30 53.96 41.65 53.93 43.00 C 51.86 45.98 49.86 50.82 45.89 50.93 C 47.65 48.97 49.41 47.01 51.07 44.96 C 47.31 45.69 44.00 48.05 40.09 48.08 C 38.74 48.05 37.38 48.01 36.02 47.97 L 35.97 47.02 C 35.96 46.57 35.93 45.68 35.92 45.23 C 38.71 45.02 41.60 45.27 44.29 44.37 C 47.28 43.67 49.57 41.51 52.12 39.96 Z" />
</g>
<g id="#417098c4">
<path fill="#417098" opacity="0.77" d=" M 23.19 40.91 C 23.58 40.67 24.36 40.21 24.75 39.97 C 24.67 41.46 24.47 42.93 24.34 44.41 C 24.06 44.82 23.52 45.65 23.25 46.07 C 22.95 44.36 22.85 42.61 23.19 40.91 Z" />
</g>
<g id="#040c131b">
<path fill="#040c13" opacity="0.11" d=" M 26.37 40.07 C 27.98 40.48 29.33 41.48 30.80 42.21 C 31.80 42.85 32.81 43.49 33.85 44.08 C 34.37 44.37 35.40 44.94 35.92 45.23 C 35.93 45.68 35.96 46.57 35.97 47.02 C 32.73 45.57 23.60 50.21 24.88 43.83 C 25.43 42.60 25.89 41.33 26.37 40.07 Z" />
</g>
<g id="#17468be7">
<path fill="#17468b" opacity="0.91" d=" M 15.83 44.04 C 16.04 42.97 16.37 41.94 16.79 40.94 C 16.72 44.04 19.97 48.41 23.25 46.07 C 22.87 47.08 22.47 48.09 22.08 49.10 C 19.79 49.88 17.45 50.50 15.09 50.98 C 14.98 49.62 14.92 48.26 14.91 46.90 C 15.29 45.97 15.59 45.01 15.83 44.04 Z" />
</g>
<g id="#17294160">
<path fill="#172941" opacity="0.38" d=" M 24.34 44.41 L 24.88 43.83 C 23.60 50.21 32.73 45.57 35.97 47.02 L 36.02 47.97 C 33.29 47.99 27.82 48.02 25.09 48.04 L 24.67 48.85 C 23.92 50.46 23.08 52.26 23.81 54.04 C 23.32 53.78 22.35 53.25 21.87 52.99 C 21.66 52.70 21.23 52.12 21.01 51.82 C 21.38 50.92 21.74 50.02 22.08 49.10 C 22.47 48.09 22.87 47.08 23.25 46.07 C 23.52 45.65 24.06 44.82 24.34 44.41 Z" />
</g>
<g id="#03335c8a">
<path fill="#03335c" opacity="0.54" d=" M 33.85 44.08 C 37.33 44.05 40.81 44.22 44.29 44.37 C 41.60 45.27 38.71 45.02 35.92 45.23 C 35.40 44.94 34.37 44.37 33.85 44.08 Z" />
</g>
<g id="#08346fbc">
<path fill="#08346f" opacity="0.74" d=" M 40.09 48.08 C 44.00 48.05 47.31 45.69 51.07 44.96 C 49.41 47.01 47.65 48.97 45.89 50.93 C 45.47 50.98 44.62 51.07 44.20 51.12 C 46.31 47.89 41.87 49.22 39.93 48.96 L 40.09 48.08 Z" />
</g>
<g id="#092863b7">
<path fill="#092863" opacity="0.72" d=" M 13.09 50.23 C 13.70 49.12 14.29 48.00 14.91 46.90 C 14.92 48.26 14.98 49.62 15.09 50.98 C 17.45 50.50 19.79 49.88 22.08 49.10 C 21.74 50.02 21.38 50.92 21.01 51.82 C 20.28 51.95 18.82 52.20 18.09 52.32 C 16.39 52.72 14.63 52.98 13.02 52.12 C 13.04 51.65 13.07 50.70 13.09 50.23 Z" />
</g>
<g id="#3c638ec4">
<path fill="#3c638e" opacity="0.77" d=" M 25.09 48.04 C 27.82 48.02 33.29 47.99 36.02 47.97 C 37.38 48.01 38.74 48.05 40.09 48.08 L 39.93 48.96 C 34.88 49.18 29.88 50.25 24.81 49.94 L 24.67 48.85 L 25.09 48.04 Z" />
</g>
<g id="#050f2c5a">
<path fill="#050f2c" opacity="0.35" d=" M 11.21 53.22 C 12.68 52.32 10.97 48.50 13.06 49.19 L 13.09 50.23 C 13.07 50.70 13.04 51.65 13.02 52.12 C 13.08 54.33 16.31 54.53 16.04 56.86 C 14.81 57.48 13.50 57.88 12.21 58.34 C 12.70 59.62 12.94 61.61 14.81 60.86 C 17.57 58.76 19.99 55.74 18.09 52.32 C 18.82 52.20 20.28 51.95 21.01 51.82 C 21.23 52.12 21.66 52.70 21.87 52.99 C 19.84 52.59 20.02 54.44 19.90 55.87 C 19.39 59.28 16.05 63.16 12.26 61.84 C 11.16 59.18 8.44 55.77 11.21 53.22 Z" />
</g>
<g id="#082d67b4">
<path fill="#082d67" opacity="0.71" d=" M 23.81 54.04 C 23.08 52.26 23.92 50.46 24.67 48.85 L 24.81 49.94 C 24.12 54.01 28.87 54.28 31.75 53.76 C 33.59 53.92 35.42 54.12 37.25 54.29 C 33.51 54.83 29.74 55.11 25.95 55.14 C 25.41 54.86 24.34 54.31 23.81 54.04 Z" />
</g>
<g id="#154e98f8">
<path fill="#154e98" opacity="0.97" d=" M 24.81 49.94 C 29.88 50.25 34.88 49.18 39.93 48.96 C 41.87 49.22 46.31 47.89 44.20 51.12 C 40.02 51.82 35.88 52.80 31.75 53.76 C 28.87 54.28 24.12 54.01 24.81 49.94 Z" />
</g>
<g id="#083679d2">
<path fill="#083679" opacity="0.82" d=" M 31.75 53.76 C 35.88 52.80 40.02 51.82 44.20 51.12 C 42.03 52.44 39.84 53.96 37.25 54.29 C 35.42 54.12 33.59 53.92 31.75 53.76 Z" />
</g>
<g id="#051a3c6b">
<path fill="#051a3c" opacity="0.42" d=" M 44.20 51.12 C 44.62 51.07 45.47 50.98 45.89 50.93 C 44.53 53.91 39.43 55.12 36.02 55.99 C 32.69 56.01 29.38 56.00 26.06 56.05 L 25.95 55.14 C 29.74 55.11 33.51 54.83 37.25 54.29 C 39.84 53.96 42.03 52.44 44.20 51.12 Z" />
</g>
<g id="#0817458d">
<path fill="#081745" opacity="0.55" d=" M 13.02 52.12 C 14.63 52.98 16.39 52.72 18.09 52.32 C 19.99 55.74 17.57 58.76 14.81 60.86 C 12.94 61.61 12.70 59.62 12.21 58.34 C 13.50 57.88 14.81 57.48 16.04 56.86 C 16.31 54.53 13.08 54.33 13.02 52.12 Z" />
</g>
<g id="#030d203b">
<path fill="#030d20" opacity="0.23" d=" M 19.90 55.87 C 20.02 54.44 19.84 52.59 21.87 52.99 C 22.35 53.25 23.32 53.78 23.81 54.04 C 24.34 54.31 25.41 54.86 25.95 55.14 L 26.06 56.05 C 23.98 55.89 21.92 54.82 19.90 55.87 Z" />
</g>
<g id="#010a182c">
<path fill="#010a18" opacity="0.17" d=" M 26.06 56.05 C 29.38 56.00 32.69 56.01 36.02 55.99 L 35.99 56.99 C 33.51 56.75 28.54 56.28 26.06 56.05 Z" />
</g>
</svg>
