<?xml version="1.0" encoding="UTF-8" ?>
<!DOCTYPE svg PUBLIC "-//W3C//DTD SVG 1.1//EN" "http://www.w3.org/Graphics/SVG/1.1/DTD/svg11.dtd">
<svg width="80pt" height="80pt" viewBox="0 0 80 80" version="1.1" xmlns="http://www.w3.org/2000/svg">
<g id="#fbbf00ff">
<path fill="#fbbf00" opacity="1.00" d=" M 0.00 0.00 L 80.00 0.00 L 80.00 80.00 L 0.00 80.00 L 0.00 0.00 M 50.60 24.65 C 46.36 26.91 47.52 32.27 47.51 36.21 C 44.88 36.28 42.25 36.36 39.62 36.45 C 39.73 38.59 39.99 40.87 41.48 42.55 C 43.88 45.75 48.02 46.49 51.66 47.35 C 53.52 50.93 54.45 54.96 56.74 58.31 C 59.92 62.00 65.29 63.10 69.88 61.81 C 67.49 54.81 64.40 48.08 61.76 41.18 C 60.02 36.15 54.06 36.30 49.76 35.42 C 54.15 34.13 58.68 33.42 63.10 32.29 C 68.47 31.56 70.54 24.58 68.26 20.19 C 62.35 21.52 56.27 22.49 50.60 24.65 M 10.58 24.56 C 8.06 26.44 7.13 29.89 8.35 32.80 C 13.42 32.72 18.50 32.73 23.57 32.82 C 25.19 29.52 25.80 25.91 25.91 22.26 C 20.79 21.56 14.89 21.14 10.58 24.56 M 24.41 43.55 C 23.47 49.65 21.76 55.62 21.29 61.80 C 26.58 62.26 33.04 60.90 35.30 55.45 C 37.25 48.47 37.74 41.17 39.29 34.09 C 40.15 30.30 40.54 26.43 40.67 22.55 C 36.64 22.40 32.61 22.38 28.58 22.24 C 26.58 29.22 25.87 36.46 24.41 43.55 Z" />
</g>
<g id="#fefefdff">
<path fill="#fefefd" opacity="1.00" d=" M 50.60 24.65 C 56.27 22.49 62.35 21.52 68.26 20.19 C 70.54 24.58 68.47 31.56 63.10 32.29 C 58.68 33.42 54.15 34.13 49.76 35.42 C 54.06 36.30 60.02 36.15 61.76 41.18 C 64.40 48.08 67.49 54.81 69.88 61.81 C 65.29 63.10 59.92 62.00 56.74 58.31 C 54.45 54.96 53.52 50.93 51.66 47.35 C 48.02 46.49 43.88 45.75 41.48 42.55 C 39.99 40.87 39.73 38.59 39.62 36.45 C 42.25 36.36 44.88 36.28 47.51 36.21 C 47.52 32.27 46.36 26.91 50.60 24.65 Z" />
<path fill="#fefefd" opacity="1.00" d=" M 10.58 24.56 C 14.89 21.14 20.79 21.56 25.91 22.26 C 25.80 25.91 25.19 29.52 23.57 32.82 C 18.50 32.73 13.42 32.72 8.35 32.80 C 7.13 29.89 8.06 26.44 10.58 24.56 Z" />
<path fill="#fefefd" opacity="1.00" d=" M 24.41 43.55 C 25.87 36.46 26.58 29.22 28.58 22.24 C 32.61 22.38 36.64 22.40 40.67 22.55 C 40.54 26.43 40.15 30.30 39.29 34.09 C 37.74 41.17 37.25 48.47 35.30 55.45 C 33.04 60.90 26.58 62.26 21.29 61.80 C 21.76 55.62 23.47 49.65 24.41 43.55 Z" />
</g>
</svg>
