<?xml version="1.0" encoding="UTF-8" ?>
<!DOCTYPE svg PUBLIC "-//W3C//DTD SVG 1.1//EN" "http://www.w3.org/Graphics/SVG/1.1/DTD/svg11.dtd">
<svg width="32pt" height="32pt" viewBox="0 0 32 32" version="1.1" xmlns="http://www.w3.org/2000/svg">
<g id="#1246989d">
<path fill="#124698" opacity="0.62" d=" M 13.10 0.00 L 18.70 0.00 L 20.15 0.80 C 17.92 0.91 15.68 1.02 13.46 1.32 C 11.60 1.66 9.78 2.23 7.95 2.69 C 9.56 1.62 11.33 0.78 13.10 0.00 Z" />
<path fill="#124698" opacity="0.62" d=" M 31.23 13.17 L 32.00 11.74 L 32.00 20.16 L 31.19 18.86 C 31.02 17.86 30.86 16.86 30.73 15.85 L 30.84 15.13 C 30.94 14.64 31.13 13.66 31.23 13.17 Z" />
<path fill="#124698" opacity="0.62" d=" M 13.83 31.58 C 15.56 30.51 17.85 30.19 19.60 31.40 L 19.17 32.00 L 14.20 32.00 L 13.83 31.58 Z" />
</g>
<g id="#a049ecff">
<path fill="#a049ec" opacity="1.00" d=" M 13.46 1.32 C 15.68 1.02 17.92 0.91 20.15 0.80 C 21.65 1.53 23.21 2.18 24.62 3.08 C 25.20 3.84 25.79 4.60 26.38 5.35 C 22.65 2.56 18.07 1.39 13.46 1.32 Z" />
<path fill="#a049ec" opacity="1.00" d=" M 14.62 10.04 C 14.85 9.70 15.32 9.00 15.55 8.66 C 16.71 9.41 17.86 10.16 19.01 10.92 C 22.13 12.90 25.11 15.17 27.36 18.13 C 27.19 18.76 26.85 20.04 26.68 20.67 C 24.03 18.20 21.14 16.02 18.50 13.54 C 17.23 12.36 15.92 11.20 14.62 10.04 Z" />
</g>
<g id="#fb66f3ff">
<path fill="#fb66f3" opacity="1.00" d=" M 7.95 2.69 C 9.78 2.23 11.60 1.66 13.46 1.32 C 18.07 1.39 22.65 2.56 26.38 5.35 C 26.81 5.85 27.66 6.86 28.09 7.37 C 27.35 7.76 25.87 8.54 25.13 8.93 C 24.45 7.59 23.74 6.27 23.03 4.96 C 21.66 6.92 20.33 8.91 19.01 10.92 C 17.86 10.16 16.71 9.41 15.55 8.66 C 16.17 7.58 16.74 6.47 17.31 5.36 C 15.01 5.37 12.70 5.40 10.40 5.43 C 9.35 7.34 8.31 9.26 7.33 11.22 C 7.20 9.08 6.90 6.96 6.32 4.90 C 6.89 4.19 7.42 3.44 7.95 2.69 Z" />
</g>
<g id="#2082e7ff">
<path fill="#2082e7" opacity="1.00" d=" M 4.55 26.38 C -2.31 19.79 -0.31 7.20 7.95 2.69 C 7.42 3.44 6.89 4.19 6.32 4.90 C 2.55 8.06 0.61 13.09 1.31 17.97 C 1.50 21.08 3.82 23.43 4.55 26.38 Z" />
<path fill="#2082e7" opacity="1.00" d=" M 24.62 3.08 C 28.18 5.25 30.66 9.04 31.23 13.17 C 31.13 13.66 30.94 14.64 30.84 15.13 C 30.64 12.35 29.67 9.66 28.09 7.37 C 27.66 6.86 26.81 5.85 26.38 5.35 C 25.79 4.60 25.20 3.84 24.62 3.08 Z" />
<path fill="#2082e7" opacity="1.00" d=" M 17.19 21.69 L 17.98 21.86 L 19.19 22.14 C 21.80 22.79 24.51 22.91 27.18 22.57 L 26.78 21.01 C 27.36 21.26 28.50 21.77 29.08 22.02 L 30.29 22.57 C 29.28 24.35 28.08 26.03 26.61 27.45 C 23.84 26.91 21.16 28.32 18.39 28.26 C 18.00 26.07 17.60 23.88 17.19 21.69 Z" />
</g>
<g id="#ffffffff">
<path fill="#ffffff" opacity="1.00" d=" M 10.40 5.43 C 12.70 5.40 15.01 5.37 17.31 5.36 C 16.74 6.47 16.17 7.58 15.55 8.66 C 15.32 9.00 14.85 9.70 14.62 10.04 C 13.82 11.25 12.92 12.42 12.38 13.77 C 13.54 16.87 15.43 19.74 17.98 21.86 L 17.19 21.69 C 12.65 21.42 6.61 21.57 4.61 26.56 L 4.55 26.38 C 3.82 23.43 1.50 21.08 1.31 17.97 C 0.61 13.09 2.55 8.06 6.32 4.90 C 6.90 6.96 7.20 9.08 7.33 11.22 C 8.31 9.26 9.35 7.34 10.40 5.43 Z" />
<path fill="#ffffff" opacity="1.00" d=" M 19.01 10.92 C 20.33 8.91 21.66 6.92 23.03 4.96 C 23.74 6.27 24.45 7.59 25.13 8.93 C 26.55 11.90 28.19 14.78 30.48 17.18 C 30.43 17.74 30.33 18.86 30.29 19.41 L 29.10 19.44 C 28.74 18.99 28.03 18.08 27.68 17.62 L 27.36 18.13 C 25.11 15.17 22.13 12.90 19.01 10.92 Z" />
<path fill="#ffffff" opacity="1.00" d=" M 16.29 16.13 C 17.02 15.26 17.76 14.40 18.50 13.54 C 21.14 16.02 24.03 18.20 26.68 20.67 L 26.78 21.01 L 27.18 22.57 C 24.51 22.91 21.80 22.79 19.19 22.14 C 18.25 20.12 17.28 18.12 16.29 16.13 Z" />
</g>
<g id="#dfc0eeff">
<path fill="#dfc0ee" opacity="1.00" d=" M 25.13 8.93 C 25.87 8.54 27.35 7.76 28.09 7.37 C 29.67 9.66 30.64 12.35 30.84 15.13 L 30.73 15.85 L 30.48 17.18 C 28.19 14.78 26.55 11.90 25.13 8.93 Z" />
<path fill="#dfc0ee" opacity="1.00" d=" M 12.38 13.77 C 12.92 12.42 13.82 11.25 14.62 10.04 C 15.92 11.20 17.23 12.36 18.50 13.54 C 17.76 14.40 17.02 15.26 16.29 16.13 C 17.28 18.12 18.25 20.12 19.19 22.14 L 17.98 21.86 C 15.43 19.74 13.54 16.87 12.38 13.77 Z" />
</g>
<g id="#71b4d7fe">
<path fill="#71b4d7" opacity="1.00" d=" M 30.48 17.18 L 30.73 15.85 C 30.86 16.86 31.02 17.86 31.19 18.86 C 30.97 19.79 30.51 21.64 30.29 22.57 L 29.08 22.02 C 29.08 21.37 29.09 20.09 29.10 19.44 L 30.29 19.41 C 30.33 18.86 30.43 17.74 30.48 17.18 Z" />
</g>
<g id="#19202dff">
<path fill="#19202d" opacity="1.00" d=" M 27.36 18.13 L 27.68 17.62 C 28.03 18.08 28.74 18.99 29.10 19.44 C 29.09 20.09 29.08 21.37 29.08 22.02 C 28.50 21.77 27.36 21.26 26.78 21.01 L 26.68 20.67 C 26.85 20.04 27.19 18.76 27.36 18.13 Z" />
</g>
<g id="#129ac7ff">
<path fill="#129ac7" opacity="1.00" d=" M 4.61 26.56 C 6.61 21.57 12.65 21.42 17.19 21.69 C 17.60 23.88 18.00 26.07 18.39 28.26 C 14.42 27.73 10.24 26.63 6.36 28.22 C 5.81 28.38 4.72 28.70 4.17 28.86 C 4.28 28.29 4.50 27.13 4.61 26.56 Z" />
</g>
<g id="#aef2b1ff">
<path fill="#aef2b1" opacity="1.00" d=" M 18.39 28.26 C 21.16 28.32 23.84 26.91 26.61 27.45 C 24.50 29.15 22.00 30.21 19.60 31.40 C 17.85 30.19 15.56 30.51 13.83 31.58 C 11.20 30.79 8.69 29.66 6.36 28.22 C 10.24 26.63 14.42 27.73 18.39 28.26 Z" />
</g>
</svg>
