<?xml version="1.0" encoding="UTF-8" ?>
<!DOCTYPE svg PUBLIC "-//W3C//DTD SVG 1.1//EN" "http://www.w3.org/Graphics/SVG/1.1/DTD/svg11.dtd">
<svg width="256pt" height="256pt" viewBox="0 0 256 256" version="1.1" xmlns="http://www.w3.org/2000/svg">
<g id="#64a1f3ff">
<path fill="#64a1f3" opacity="1.00" d=" M 0.00 0.00 L 46.42 0.00 C 36.24 2.74 26.25 7.17 18.58 14.57 C 8.72 23.82 1.68 36.70 0.91 50.33 C 4.41 44.65 6.86 38.36 10.90 33.00 C 20.63 18.08 35.48 7.22 51.58 0.00 L 120.53 0.00 C 125.61 3.21 131.33 5.30 136.21 8.84 C 154.72 21.25 169.04 40.55 173.90 62.43 C 172.47 67.88 174.77 73.40 174.81 78.91 C 159.89 79.44 144.95 78.99 130.02 79.15 C 125.45 79.34 120.59 78.41 116.31 80.46 C 113.42 78.92 110.17 78.38 106.95 78.10 C 106.57 78.01 105.82 77.81 105.44 77.71 C 100.97 80.26 95.82 78.93 90.97 79.14 C 81.26 79.36 71.54 78.83 61.85 79.49 C 63.87 74.08 67.43 69.47 71.42 65.37 C 72.68 64.32 72.72 62.63 72.95 61.14 C 73.55 60.05 74.19 58.98 74.81 57.90 L 75.12 59.39 C 77.52 55.90 79.47 52.11 81.12 48.21 C 81.80 46.85 81.73 45.32 81.50 43.86 L 80.41 42.79 C 75.89 37.53 67.54 35.89 61.54 39.47 C 58.28 42.00 56.07 45.59 53.06 48.39 C 53.37 48.85 53.99 49.75 54.30 50.21 C 52.63 54.24 49.96 57.98 46.00 60.02 C 42.74 61.65 39.96 64.01 37.68 66.83 C 37.14 67.06 36.06 67.52 35.51 67.75 C 31.78 76.05 31.60 85.47 27.42 93.64 C 27.13 92.81 26.84 91.98 26.55 91.15 C 17.71 90.60 8.85 90.86 0.00 90.97 L 0.00 0.00 Z" />
<path fill="#64a1f3" opacity="1.00" d=" M 195.82 0.00 L 256.00 0.00 L 256.00 66.31 C 245.75 66.07 235.48 66.70 225.25 66.04 C 224.58 61.64 223.74 57.25 222.36 53.00 C 222.19 53.55 221.85 54.65 221.68 55.20 C 216.91 35.33 208.64 16.03 195.82 0.00 Z" />
<path fill="#64a1f3" opacity="1.00" d=" M 172.20 112.43 C 172.63 112.47 173.48 112.56 173.90 112.60 C 173.54 119.59 177.76 125.52 180.05 131.83 C 181.77 136.73 186.12 139.86 190.06 142.90 L 188.63 143.12 C 194.37 147.73 201.87 149.23 209.09 149.11 C 207.22 152.97 205.01 156.64 202.67 160.22 C 206.70 164.66 210.86 169.01 215.46 172.87 C 222.87 180.73 230.74 188.14 238.30 195.86 C 245.11 202.56 248.77 212.53 247.09 222.04 C 245.26 235.62 232.78 246.89 219.01 246.92 C 210.77 247.44 202.54 244.06 196.78 238.20 C 184.84 226.15 172.64 214.36 160.71 202.29 C 129.15 222.37 89.40 228.97 53.06 220.08 C 47.93 218.92 43.01 216.98 37.86 215.87 C 39.47 214.08 35.63 213.55 37.02 215.68 C 34.49 214.50 32.17 212.91 29.64 211.72 C 29.34 211.69 28.72 211.63 28.41 211.60 L 27.84 211.54 C 18.07 206.76 8.64 201.29 0.00 194.66 L 0.00 115.32 C 3.23 121.65 5.79 128.34 9.84 134.23 C 12.53 139.01 16.69 142.73 19.54 147.38 C 20.28 151.42 19.94 155.65 21.46 159.55 C 24.10 165.82 18.49 173.27 23.36 178.98 C 23.50 179.20 23.79 179.65 23.94 179.88 C 24.68 179.03 25.42 178.18 26.17 177.34 C 26.33 179.26 27.82 181.80 25.42 182.95 C 26.05 183.78 26.67 184.61 27.29 185.44 C 26.26 189.31 26.11 193.37 27.24 197.24 C 26.79 197.26 25.88 197.32 25.43 197.34 C 25.82 197.82 26.21 198.30 26.60 198.78 C 26.22 198.69 25.45 198.50 25.07 198.40 C 25.69 202.47 26.41 206.51 27.20 210.55 C 27.77 210.43 28.93 210.20 29.51 210.08 C 29.05 209.06 28.61 208.03 28.19 207.01 C 29.21 205.72 30.25 204.46 31.25 203.16 C 31.99 201.00 32.28 198.72 32.62 196.47 C 34.65 198.20 33.79 200.74 32.93 202.84 C 33.49 202.63 34.60 202.20 35.15 201.99 L 35.41 203.50 C 37.17 196.00 36.39 188.21 37.32 180.60 C 37.48 175.32 39.81 170.11 38.19 164.86 C 38.20 164.77 38.23 164.58 38.25 164.49 C 38.67 164.07 39.52 163.25 39.94 162.83 C 65.79 178.66 99.90 179.66 126.77 165.70 C 148.29 155.01 164.77 135.21 172.20 112.43 M 37.06 209.38 C 36.21 210.64 36.44 211.38 37.75 211.59 C 38.60 210.32 38.37 209.59 37.06 209.38 Z" />
</g>
<g id="#81b4f8ff">
<path fill="#81b4f8" opacity="1.00" d=" M 46.42 0.00 L 51.58 0.00 C 35.48 7.22 20.63 18.08 10.90 33.00 C 6.86 38.36 4.41 44.65 0.91 50.33 C 1.68 36.70 8.72 23.82 18.58 14.57 C 26.25 7.17 36.24 2.74 46.42 0.00 Z" />
<path fill="#81b4f8" opacity="1.00" d=" M 120.53 0.00 L 195.82 0.00 C 208.64 16.03 216.91 35.33 221.68 55.20 C 224.42 68.66 226.07 82.71 223.70 96.33 C 223.21 95.13 222.77 93.92 222.17 92.77 C 219.56 91.93 216.77 92.13 214.08 91.88 C 214.66 93.40 215.22 94.93 215.75 96.46 C 214.02 95.34 212.87 93.68 211.83 91.96 C 211.54 96.59 216.65 98.08 218.36 101.78 C 220.23 104.46 220.42 107.73 220.09 110.87 C 220.82 110.87 222.29 110.87 223.02 110.88 C 222.06 111.41 221.09 111.95 220.13 112.48 C 218.18 116.77 215.37 121.11 210.73 122.78 C 208.36 123.77 204.97 123.98 203.31 121.65 C 202.74 118.72 202.49 115.70 202.73 112.73 C 203.07 108.83 207.24 107.03 208.56 103.61 C 209.18 101.16 209.06 98.59 209.20 96.08 C 203.65 92.28 196.67 90.69 190.01 91.15 C 185.90 91.20 184.15 95.33 181.98 98.13 C 182.00 98.18 182.02 98.29 182.03 98.35 C 184.25 102.68 178.93 104.59 176.96 107.60 C 176.28 108.39 175.62 109.20 174.99 110.03 C 173.36 105.74 175.57 101.39 175.96 97.08 C 177.40 85.54 176.82 73.70 173.90 62.43 C 169.04 40.55 154.72 21.25 136.21 8.84 C 131.33 5.30 125.61 3.21 120.53 0.00 M 207.02 86.29 L 207.02 87.42 C 208.75 87.08 210.81 85.59 212.17 87.48 C 213.15 87.32 214.13 87.15 215.12 86.98 C 215.16 87.77 215.26 89.35 215.30 90.14 C 217.02 89.69 218.74 89.20 220.43 88.63 C 216.73 85.96 211.36 83.85 207.02 86.29 M 197.15 87.08 C 196.46 88.57 198.50 90.71 200.00 89.77 C 200.98 88.33 198.50 86.28 197.15 87.08 Z" />
<path fill="#81b4f8" opacity="1.00" d=" M 142.34 95.16 C 143.34 94.32 145.19 95.77 144.51 96.92 C 143.52 97.74 141.62 96.31 142.34 95.16 Z" />
<path fill="#81b4f8" opacity="1.00" d=" M 37.06 209.38 C 38.37 209.59 38.60 210.32 37.75 211.59 C 36.44 211.38 36.21 210.64 37.06 209.38 Z" />
</g>
<g id="#ffffffff">
<path fill="#ffffff" opacity="1.00" d=" M 61.54 39.47 C 67.54 35.89 75.89 37.53 80.41 42.79 C 80.59 43.56 80.96 45.11 81.14 45.89 C 78.95 49.85 76.99 53.93 74.81 57.90 C 74.19 58.98 73.55 60.05 72.95 61.14 C 69.86 65.03 66.02 68.30 63.43 72.58 C 58.71 79.97 56.70 88.61 53.80 96.79 C 51.73 102.77 48.60 108.36 47.03 114.51 C 41.54 130.63 40.70 147.77 38.25 164.49 C 38.23 164.58 38.20 164.77 38.19 164.86 L 38.02 165.77 C 36.04 177.72 34.48 189.84 35.15 201.99 C 34.60 202.20 33.49 202.63 32.93 202.84 C 33.79 200.74 34.65 198.20 32.62 196.47 C 32.28 198.72 31.99 201.00 31.25 203.16 C 30.36 199.82 28.86 196.70 27.50 193.54 C 26.44 191.40 28.04 189.22 28.60 187.17 C 28.27 186.73 27.62 185.87 27.29 185.44 C 26.67 184.61 26.05 183.78 25.42 182.95 C 27.82 181.80 26.33 179.26 26.17 177.34 C 25.42 178.18 24.68 179.03 23.94 179.88 C 23.79 179.65 23.50 179.20 23.36 178.98 C 22.45 174.82 22.37 170.53 23.50 166.41 C 24.68 162.64 22.53 159.12 21.62 155.57 C 20.26 150.78 21.61 145.83 21.82 140.99 C 22.30 130.59 22.34 120.07 24.64 109.87 C 25.65 105.14 27.74 100.74 28.80 96.03 C 29.76 91.52 32.19 87.49 33.04 82.95 C 34.18 77.47 35.10 71.86 37.68 66.83 C 39.96 64.01 42.74 61.65 46.00 60.02 C 49.96 57.98 52.63 54.24 54.30 50.21 C 53.99 49.75 53.37 48.85 53.06 48.39 C 56.07 45.59 58.28 42.00 61.54 39.47 M 36.38 166.27 C 36.64 166.53 36.64 166.53 36.38 166.27 M 23.31 170.02 C 23.67 172.53 23.34 175.43 24.97 177.56 C 25.53 176.82 26.64 175.33 27.20 174.59 C 26.23 172.81 25.13 171.04 23.31 170.02 Z" />
<path fill="#ffffff" opacity="1.00" d=" M 98.24 83.67 C 101.31 82.09 104.16 80.13 106.95 78.10 C 110.17 78.38 113.42 78.92 116.31 80.46 C 120.38 83.42 125.51 87.22 125.27 92.81 C 123.28 96.22 120.82 99.35 118.26 102.34 C 115.70 105.27 111.75 106.26 108.81 108.69 C 104.25 112.39 101.92 118.31 101.64 124.06 C 102.55 127.33 106.29 128.73 109.20 129.74 C 120.40 132.46 131.92 128.76 142.07 124.10 C 143.54 124.51 145.03 124.87 146.55 125.14 C 145.72 124.67 144.07 123.73 143.24 123.26 C 145.89 121.65 148.41 119.84 150.86 117.96 C 151.80 115.51 152.82 113.09 153.90 110.70 C 153.48 107.85 153.05 104.93 151.64 102.36 C 151.10 100.92 149.20 98.78 151.41 97.69 C 151.51 99.89 152.58 101.73 154.70 102.43 C 153.96 100.33 153.13 98.26 152.32 96.19 C 155.66 98.64 159.32 100.91 161.79 104.31 C 162.39 106.53 161.40 108.77 160.95 110.92 C 161.97 112.95 162.95 115.00 163.85 117.08 C 162.99 117.38 162.13 117.69 161.27 118.00 C 161.39 120.38 161.12 122.76 160.41 125.05 C 159.68 125.14 158.21 125.34 157.48 125.44 C 156.97 127.69 157.03 130.01 156.99 132.31 C 159.04 130.17 160.55 127.61 161.77 124.93 C 162.11 124.33 162.79 123.14 163.13 122.54 C 162.67 125.51 161.59 128.40 159.64 130.71 C 157.01 134.15 152.38 135.18 149.67 138.54 C 147.26 141.46 145.10 144.82 141.65 146.63 C 137.51 148.48 132.98 149.26 128.71 150.77 C 118.23 154.28 106.23 156.11 95.91 151.08 C 87.63 146.96 79.68 140.68 76.41 131.73 C 74.14 126.08 75.55 119.94 75.84 114.08 C 76.52 107.58 77.43 100.25 82.47 95.54 C 85.38 92.64 89.70 92.61 93.37 91.40 C 96.08 90.55 97.89 88.26 99.47 86.04 C 99.06 85.25 98.65 84.46 98.24 83.67 Z" />
<path fill="#ffffff" opacity="1.00" d=" M 130.99 82.70 C 132.78 84.04 134.45 85.56 135.73 87.42 C 133.26 87.69 130.04 85.40 130.99 82.70 Z" />
<path fill="#ffffff" opacity="1.00" d=" M 207.02 86.29 C 211.36 83.85 216.73 85.96 220.43 88.63 C 218.74 89.20 217.02 89.69 215.30 90.14 C 215.26 89.35 215.16 87.77 215.12 86.98 C 214.13 87.15 213.15 87.32 212.17 87.48 C 210.81 85.59 208.75 87.08 207.02 87.42 L 207.02 86.29 Z" />
<path fill="#ffffff" opacity="1.00" d=" M 143.59 86.12 C 145.80 86.59 148.01 87.10 150.22 87.60 C 147.85 87.94 144.61 89.16 143.59 86.12 Z" />
<path fill="#ffffff" opacity="1.00" d=" M 197.15 87.08 C 198.50 86.28 200.98 88.33 200.00 89.77 C 198.50 90.71 196.46 88.57 197.15 87.08 Z" />
<path fill="#ffffff" opacity="1.00" d=" M 149.99 90.47 C 150.21 89.83 150.66 88.54 150.88 87.90 C 155.07 90.10 158.77 93.28 161.32 97.28 C 158.90 97.00 156.54 96.35 154.38 95.22 C 154.58 94.44 154.99 92.88 155.20 92.10 C 153.51 91.40 151.76 90.89 149.99 90.47 Z" />
<path fill="#ffffff" opacity="1.00" d=" M 181.98 98.13 C 184.15 95.33 185.90 91.20 190.01 91.15 C 196.67 90.69 203.65 92.28 209.20 96.08 C 209.06 98.59 209.18 101.16 208.56 103.61 C 207.24 107.03 203.07 108.83 202.73 112.73 C 202.49 115.70 202.74 118.72 203.31 121.65 C 204.97 123.98 208.36 123.77 210.73 122.78 C 215.37 121.11 218.18 116.77 220.13 112.48 C 221.09 111.95 222.06 111.41 223.02 110.88 C 222.29 110.87 220.82 110.87 220.09 110.87 C 220.42 107.73 220.23 104.46 218.36 101.78 C 216.65 98.08 211.54 96.59 211.83 91.96 C 212.87 93.68 214.02 95.34 215.75 96.46 C 215.22 94.93 214.66 93.40 214.08 91.88 C 216.77 92.13 219.56 91.93 222.17 92.77 C 222.77 93.92 223.21 95.13 223.70 96.33 C 225.40 96.53 227.10 96.73 228.80 96.93 C 228.46 97.35 227.77 98.18 227.43 98.60 C 228.71 99.43 229.99 100.26 231.27 101.10 C 230.81 102.04 230.34 102.98 229.88 103.91 C 231.70 104.94 233.59 105.85 235.56 106.57 C 234.25 103.34 232.29 100.45 230.12 97.75 C 231.16 98.50 232.21 99.24 233.26 99.99 C 236.52 103.66 236.01 108.54 235.76 113.05 C 236.54 117.85 237.94 122.84 236.01 127.58 C 230.12 136.11 222.45 144.36 212.03 146.92 C 204.51 149.07 196.55 146.89 190.06 142.90 C 186.12 139.86 181.77 136.73 180.05 131.83 C 177.76 125.52 173.54 119.59 173.90 112.60 C 174.23 111.73 174.59 110.87 174.99 110.03 C 175.62 109.20 176.28 108.39 176.96 107.60 C 179.39 105.97 182.54 104.71 183.65 101.77 C 184.45 100.28 183.24 99.02 182.03 98.35 C 182.02 98.29 182.00 98.18 181.98 98.13 Z" />
<path fill="#ffffff" opacity="1.00" d=" M 140.26 93.27 C 140.73 93.71 140.73 93.71 140.26 93.27 Z" />
<path fill="#ffffff" opacity="1.00" d=" M 151.45 96.33 C 151.93 96.73 151.93 96.73 151.45 96.33 Z" />
<path fill="#ffffff" opacity="1.00" d=" M 25.07 198.40 C 25.45 198.50 26.22 198.69 26.60 198.78 C 27.67 200.05 28.67 201.38 29.65 202.73 C 29.13 203.30 28.10 204.44 27.59 205.02 C 27.74 205.51 28.04 206.51 28.19 207.01 C 28.61 208.03 29.05 209.06 29.51 210.08 C 28.93 210.20 27.77 210.43 27.20 210.55 C 26.41 206.51 25.69 202.47 25.07 198.40 Z" />
<path fill="#ffffff" opacity="1.00" d=" M 27.84 211.54 L 28.41 211.60 C 29.33 212.75 30.31 213.88 30.98 215.21 C 30.73 216.47 30.34 217.70 29.99 218.94 C 29.65 216.37 28.99 213.86 27.84 211.54 Z" />
<path fill="#ffffff" opacity="1.00" d=" M 37.02 215.68 C 35.63 213.55 39.47 214.08 37.86 215.87 L 37.02 215.68 Z" />
<path fill="#ffffff" opacity="1.00" d=" M 34.86 224.69 C 37.57 225.81 36.07 228.99 35.84 231.08 C 35.42 231.28 34.58 231.68 34.16 231.88 C 34.38 229.48 34.81 227.10 34.86 224.69 Z" />
</g>
<g id="#3783e9ff">
<path fill="#3783e9" opacity="1.00" d=" M 80.41 42.79 L 81.50 43.86 C 81.73 45.32 81.80 46.85 81.12 48.21 C 79.47 52.11 77.52 55.90 75.12 59.39 L 74.81 57.90 C 76.99 53.93 78.95 49.85 81.14 45.89 C 80.96 45.11 80.59 43.56 80.41 42.79 Z" />
<path fill="#3783e9" opacity="1.00" d=" M 182.03 98.35 C 183.24 99.02 184.45 100.28 183.65 101.77 C 182.54 104.71 179.39 105.97 176.96 107.60 C 178.93 104.59 184.25 102.68 182.03 98.35 Z" />
<path fill="#3783e9" opacity="1.00" d=" M 233.26 99.99 C 237.03 101.41 236.79 105.68 236.95 109.00 C 237.07 114.81 239.00 120.60 237.81 126.41 C 237.36 126.70 236.46 127.29 236.01 127.58 C 237.94 122.84 236.54 117.85 235.76 113.05 C 236.01 108.54 236.52 103.66 233.26 99.99 Z" />
<path fill="#3783e9" opacity="1.00" d=" M 38.25 164.49 C 40.70 147.77 41.54 130.63 47.03 114.51 C 47.39 120.49 44.98 126.10 44.18 131.94 C 42.19 142.16 42.05 152.65 39.94 162.83 C 39.52 163.25 38.67 164.07 38.25 164.49 Z" />
<path fill="#3783e9" opacity="1.00" d=" M 157.48 125.44 C 158.21 125.34 159.68 125.14 160.41 125.05 L 161.77 124.93 C 160.55 127.61 159.04 130.17 156.99 132.31 C 157.03 130.01 156.97 127.69 157.48 125.44 Z" />
<path fill="#3783e9" opacity="1.00" d=" M 36.38 166.27 C 36.64 166.53 36.64 166.53 36.38 166.27 Z" />
<path fill="#3783e9" opacity="1.00" d=" M 215.46 172.87 C 221.17 173.92 223.18 180.47 228.16 182.61 C 237.41 183.36 246.74 182.25 256.00 183.24 L 256.00 256.00 L 0.00 256.00 L 0.00 194.66 C 8.64 201.29 18.07 206.76 27.84 211.54 C 28.99 213.86 29.65 216.37 29.99 218.94 C 30.34 217.70 30.73 216.47 30.98 215.21 C 30.31 213.88 29.33 212.75 28.41 211.60 C 28.72 211.63 29.34 211.69 29.64 211.72 C 32.17 212.91 34.49 214.50 37.02 215.68 L 37.86 215.87 C 43.01 216.98 47.93 218.92 53.06 220.08 C 89.40 228.97 129.15 222.37 160.71 202.29 C 172.64 214.36 184.84 226.15 196.78 238.20 C 202.54 244.06 210.77 247.44 219.01 246.92 C 232.78 246.89 245.26 235.62 247.09 222.04 C 248.77 212.53 245.11 202.56 238.30 195.86 C 230.74 188.14 222.87 180.73 215.46 172.87 M 34.86 224.69 C 34.81 227.10 34.38 229.48 34.16 231.88 C 34.58 231.68 35.42 231.28 35.84 231.08 C 36.07 228.99 37.57 225.81 34.86 224.69 Z" />
<path fill="#3783e9" opacity="1.00" d=" M 27.29 185.44 C 27.62 185.87 28.27 186.73 28.60 187.17 C 28.04 189.22 26.44 191.40 27.50 193.54 C 28.86 196.70 30.36 199.82 31.25 203.16 C 30.25 204.46 29.21 205.72 28.19 207.01 C 28.04 206.51 27.74 205.51 27.59 205.02 C 28.10 204.44 29.13 203.30 29.65 202.73 C 28.67 201.38 27.67 200.05 26.60 198.78 C 26.21 198.30 25.82 197.82 25.43 197.34 C 25.88 197.32 26.79 197.26 27.24 197.24 C 26.11 193.37 26.26 189.31 27.29 185.44 Z" />
</g>
<g id="#4e93f0ff">
<path fill="#4e93f0" opacity="1.00" d=" M 222.36 53.00 C 223.74 57.25 224.58 61.64 225.25 66.04 C 235.48 66.70 245.75 66.07 256.00 66.31 L 256.00 183.24 C 246.74 182.25 237.41 183.36 228.16 182.61 C 223.18 180.47 221.17 173.92 215.46 172.87 C 210.86 169.01 206.70 164.66 202.67 160.22 C 205.01 156.64 207.22 152.97 209.09 149.11 C 201.87 149.23 194.37 147.73 188.63 143.12 L 190.06 142.90 C 196.55 146.89 204.51 149.07 212.03 146.92 C 222.45 144.36 230.12 136.11 236.01 127.58 C 236.46 127.29 237.36 126.70 237.81 126.41 C 239.00 120.60 237.07 114.81 236.95 109.00 C 236.79 105.68 237.03 101.41 233.26 99.99 C 232.21 99.24 231.16 98.50 230.12 97.75 C 232.29 100.45 234.25 103.34 235.56 106.57 C 233.59 105.85 231.70 104.94 229.88 103.91 C 230.34 102.98 230.81 102.04 231.27 101.10 C 229.99 100.26 228.71 99.43 227.43 98.60 C 227.77 98.18 228.46 97.35 228.80 96.93 C 227.10 96.73 225.40 96.53 223.70 96.33 C 226.07 82.71 224.42 68.66 221.68 55.20 C 221.85 54.65 222.19 53.55 222.36 53.00 Z" />
<path fill="#4e93f0" opacity="1.00" d=" M 63.43 72.58 C 66.02 68.30 69.86 65.03 72.95 61.14 C 72.72 62.63 72.68 64.32 71.42 65.37 C 67.43 69.47 63.87 74.08 61.85 79.49 C 71.54 78.83 81.26 79.36 90.97 79.14 C 95.82 78.93 100.97 80.26 105.44 77.71 C 105.82 77.81 106.57 78.01 106.95 78.10 C 104.16 80.13 101.31 82.09 98.24 83.67 C 98.65 84.46 99.06 85.25 99.47 86.04 C 97.89 88.26 96.08 90.55 93.37 91.40 C 89.70 92.61 85.38 92.64 82.47 95.54 C 77.43 100.25 76.52 107.58 75.84 114.08 C 75.55 119.94 74.14 126.08 76.41 131.73 C 79.68 140.68 87.63 146.96 95.91 151.08 C 106.23 156.11 118.23 154.28 128.71 150.77 C 132.98 149.26 137.51 148.48 141.65 146.63 C 145.10 144.82 147.26 141.46 149.67 138.54 C 152.38 135.18 157.01 134.15 159.64 130.71 C 161.59 128.40 162.67 125.51 163.13 122.54 C 162.79 123.14 162.11 124.33 161.77 124.93 L 160.41 125.05 C 161.12 122.76 161.39 120.38 161.27 118.00 C 162.13 117.69 162.99 117.38 163.85 117.08 C 162.95 115.00 161.97 112.95 160.95 110.92 C 161.40 108.77 162.39 106.53 161.79 104.31 C 159.32 100.91 155.66 98.64 152.32 96.19 C 153.13 98.26 153.96 100.33 154.70 102.43 C 152.58 101.73 151.51 99.89 151.41 97.69 C 149.20 98.78 151.10 100.92 151.64 102.36 C 153.05 104.93 153.48 107.85 153.90 110.70 C 152.82 113.09 151.80 115.51 150.86 117.96 C 148.41 119.84 145.89 121.65 143.24 123.26 C 144.07 123.73 145.72 124.67 146.55 125.14 C 145.03 124.87 143.54 124.51 142.07 124.10 C 131.92 128.76 120.40 132.46 109.20 129.74 C 106.29 128.73 102.55 127.33 101.64 124.06 C 101.92 118.31 104.25 112.39 108.81 108.69 C 111.75 106.26 115.70 105.27 118.26 102.34 C 120.82 99.35 123.28 96.22 125.27 92.81 C 125.51 87.22 120.38 83.42 116.31 80.46 C 120.59 78.41 125.45 79.34 130.02 79.15 C 144.95 78.99 159.89 79.44 174.81 78.91 C 174.77 73.40 172.47 67.88 173.90 62.43 C 176.82 73.70 177.40 85.54 175.96 97.08 C 175.57 101.39 173.36 105.74 174.99 110.03 C 174.59 110.87 174.23 111.73 173.90 112.60 C 173.48 112.56 172.63 112.47 172.20 112.43 C 164.77 135.21 148.29 155.01 126.77 165.70 C 99.90 179.66 65.79 178.66 39.94 162.83 C 42.05 152.65 42.19 142.16 44.18 131.94 C 44.98 126.10 47.39 120.49 47.03 114.51 C 48.60 108.36 51.73 102.77 53.80 96.79 C 56.70 88.61 58.71 79.97 63.43 72.58 M 130.99 82.70 C 130.04 85.40 133.26 87.69 135.73 87.42 C 134.45 85.56 132.78 84.04 130.99 82.70 M 143.59 86.12 C 144.61 89.16 147.85 87.94 150.22 87.60 C 148.01 87.10 145.80 86.59 143.59 86.12 M 149.99 90.47 C 151.76 90.89 153.51 91.40 155.20 92.10 C 154.99 92.88 154.58 94.44 154.38 95.22 C 156.54 96.35 158.90 97.00 161.32 97.28 C 158.77 93.28 155.07 90.10 150.88 87.90 C 150.66 88.54 150.21 89.83 149.99 90.47 M 140.26 93.27 C 140.73 93.71 140.73 93.71 140.26 93.27 M 142.34 95.16 C 141.62 96.31 143.52 97.74 144.51 96.92 C 145.19 95.77 143.34 94.32 142.34 95.16 M 151.45 96.33 C 151.93 96.73 151.93 96.73 151.45 96.33 Z" />
<path fill="#4e93f0" opacity="1.00" d=" M 35.51 67.75 C 36.06 67.52 37.14 67.06 37.68 66.83 C 35.10 71.86 34.18 77.47 33.04 82.95 C 32.19 87.49 29.76 91.52 28.80 96.03 C 27.74 100.74 25.65 105.14 24.64 109.87 C 22.34 120.07 22.30 130.59 21.82 140.99 C 21.61 145.83 20.26 150.78 21.62 155.57 C 22.53 159.12 24.68 162.64 23.50 166.41 C 22.37 170.53 22.45 174.82 23.36 178.98 C 18.49 173.27 24.10 165.82 21.46 159.55 C 19.94 155.65 20.28 151.42 19.54 147.38 C 16.69 142.73 12.53 139.01 9.84 134.23 C 5.79 128.34 3.23 121.65 0.00 115.32 L 0.00 90.97 C 8.85 90.86 17.71 90.60 26.55 91.15 C 26.84 91.98 27.13 92.81 27.42 93.64 C 31.60 85.47 31.78 76.05 35.51 67.75 Z" />
<path fill="#4e93f0" opacity="1.00" d=" M 38.02 165.77 L 38.19 164.86 C 39.81 170.11 37.48 175.32 37.32 180.60 C 36.39 188.21 37.17 196.00 35.41 203.50 L 35.15 201.99 C 34.48 189.84 36.04 177.72 38.02 165.77 Z" />
<path fill="#4e93f0" opacity="1.00" d=" M 23.31 170.02 C 25.13 171.04 26.23 172.81 27.20 174.59 C 26.64 175.33 25.53 176.82 24.97 177.56 C 23.34 175.43 23.67 172.53 23.31 170.02 Z" />
</g>
</svg>
