<?xml version="1.0" encoding="UTF-8" ?>
<!DOCTYPE svg PUBLIC "-//W3C//DTD SVG 1.1//EN" "http://www.w3.org/Graphics/SVG/1.1/DTD/svg11.dtd">
<svg width="108pt" height="108pt" viewBox="0 0 108 108" version="1.1" xmlns="http://www.w3.org/2000/svg">
<g id="#2e7eeeff">
<path fill="#2e7eee" opacity="1.00" d=" M 18.18 21.23 C 28.00 15.25 40.54 14.45 51.20 18.63 C 47.27 20.83 43.98 23.90 40.55 26.77 C 37.19 27.94 33.60 28.58 30.60 30.62 C 22.80 35.21 18.01 44.01 17.81 53.00 C 11.87 53.01 5.94 53.01 0.00 52.99 L 0.00 52.31 C 0.24 39.73 7.32 27.59 18.18 21.23 Z" />
<path fill="#2e7eee" opacity="1.00" d=" M 32.83 53.00 C 32.11 34.94 47.10 18.35 64.89 16.34 C 81.15 13.84 98.17 23.65 104.24 38.90 C 106.13 43.35 107.04 48.18 107.06 53.00 C 105.88 53.00 104.70 53.00 103.51 53.00 C 103.51 40.80 94.12 29.50 82.16 27.22 C 76.55 26.01 70.72 27.01 65.47 29.17 C 71.41 35.63 74.43 44.41 74.54 53.12 C 73.63 53.12 71.82 53.13 70.92 53.13 C 70.74 45.46 67.43 37.70 61.28 32.96 C 62.20 31.97 63.08 30.94 63.96 29.91 C 55.86 34.49 50.51 43.63 50.43 52.95 C 44.56 53.06 38.69 52.99 32.83 53.00 Z" />
<path fill="#2e7eee" opacity="1.00" d=" M 69.51 61.51 C 70.86 61.50 72.21 61.50 73.56 61.50 C 73.15 62.89 72.75 64.28 72.34 65.68 C 70.80 65.68 69.25 65.68 67.71 65.68 C 68.31 64.29 68.91 62.90 69.51 61.51 Z" />
<path fill="#2e7eee" opacity="1.00" d=" M 102.13 61.48 C 103.47 61.49 104.81 61.50 106.15 61.51 C 105.73 62.90 105.32 64.30 104.91 65.69 C 103.37 65.68 101.82 65.68 100.28 65.68 C 100.90 64.28 101.52 62.88 102.13 61.48 Z" />
<path fill="#2e7eee" opacity="1.00" d=" M 0.86 61.51 C 6.94 61.49 13.03 61.50 19.11 61.50 C 19.72 62.89 20.33 64.28 20.94 65.68 C 14.66 65.69 8.38 65.67 2.11 65.69 C 1.69 64.29 1.28 62.90 0.86 61.51 Z" />
<path fill="#2e7eee" opacity="1.00" d=" M 33.46 61.50 C 39.55 61.50 45.63 61.49 51.72 61.51 C 52.32 62.90 52.92 64.28 53.52 65.67 C 47.22 65.67 40.93 65.72 34.64 65.64 C 34.25 64.26 33.85 62.88 33.46 61.50 Z" />
<path fill="#2e7eee" opacity="1.00" d=" M 2.84 67.54 C 9.24 67.53 15.63 67.54 22.03 67.53 C 23.15 68.93 24.27 70.32 25.39 71.72 C 18.52 71.67 11.65 71.82 4.78 71.64 C 4.14 70.27 3.49 68.90 2.84 67.54 Z" />
<path fill="#2e7eee" opacity="1.00" d=" M 35.41 67.54 C 41.84 67.55 48.26 67.49 54.69 67.57 C 55.78 68.96 56.88 70.34 57.99 71.72 C 51.14 71.71 44.30 71.74 37.46 71.71 C 36.78 70.32 36.09 68.93 35.41 67.54 Z" />
<path fill="#2e7eee" opacity="1.00" d=" M 63.22 71.71 C 64.36 70.30 65.52 68.89 66.69 67.50 C 68.32 67.52 69.96 67.54 71.60 67.55 C 70.91 68.94 70.23 70.32 69.55 71.71 C 67.44 71.72 65.33 71.72 63.22 71.71 Z" />
<path fill="#2e7eee" opacity="1.00" d=" M 95.83 71.72 C 96.94 70.32 98.06 68.93 99.18 67.54 C 100.84 67.54 102.51 67.53 104.18 67.53 C 103.52 68.90 102.87 70.27 102.23 71.65 C 100.10 71.73 97.96 71.73 95.83 71.72 Z" />
<path fill="#2e7eee" opacity="1.00" d=" M 38.63 73.58 C 48.55 73.52 58.47 73.67 68.38 73.58 C 67.70 74.51 67.01 75.44 66.32 76.37 C 57.77 76.35 49.23 76.37 40.68 76.37 C 39.99 75.44 39.31 74.51 38.63 73.58 Z" />
<path fill="#2e7eee" opacity="1.00" d=" M 6.05 73.58 C 13.13 73.63 20.21 73.47 27.28 73.64 C 28.82 74.34 30.14 75.43 31.55 76.35 C 23.73 76.39 15.91 76.35 8.08 76.37 C 7.58 75.67 6.56 74.28 6.05 73.58 Z" />
<path fill="#2e7eee" opacity="1.00" d=" M 89.70 76.36 C 91.06 75.42 92.43 74.49 93.80 73.57 C 96.19 73.58 98.58 73.58 100.96 73.58 C 100.45 74.28 99.43 75.67 98.92 76.36 C 95.85 76.36 92.77 76.37 89.70 76.36 Z" />
<path fill="#2e7eee" opacity="1.00" d=" M 9.70 78.22 C 17.46 78.21 25.21 78.24 32.97 78.20 C 36.71 78.07 40.25 79.56 43.98 79.68 C 43.53 79.31 42.62 78.57 42.16 78.20 C 50.75 78.30 59.35 78.11 67.93 78.28 C 72.56 79.21 77.34 80.24 82.04 79.02 C 87.02 77.65 92.22 78.41 97.32 78.21 C 96.42 79.13 95.52 80.04 94.62 80.96 C 67.22 81.05 39.82 80.99 12.42 80.98 C 11.51 80.05 10.61 79.14 9.70 78.22 Z" />
<path fill="#2e7eee" opacity="1.00" d=" M 14.80 82.88 C 40.61 82.89 66.40 82.86 92.20 82.88 C 90.25 84.01 88.45 86.01 85.98 85.67 C 64.31 85.64 42.63 85.63 20.96 85.67 C 18.52 85.99 16.75 83.99 14.80 82.88 Z" />
<path fill="#2e7eee" opacity="1.00" d=" M 22.94 87.54 C 32.44 87.49 41.93 87.48 51.43 87.55 C 42.42 91.11 31.96 91.07 22.94 87.54 Z" />
<path fill="#2e7eee" opacity="1.00" d=" M 55.60 87.55 C 65.09 87.48 74.58 87.49 84.08 87.55 C 75.06 91.07 64.60 91.12 55.60 87.55 Z" />
</g>
</svg>
