<?xml version="1.0" encoding="UTF-8" ?>
<!DOCTYPE svg PUBLIC "-//W3C//DTD SVG 1.1//EN" "http://www.w3.org/Graphics/SVG/1.1/DTD/svg11.dtd">
<svg width="64pt" height="64pt" viewBox="0 0 64 64" version="1.1" xmlns="http://www.w3.org/2000/svg">
<g id="#1a3863ff">
<path fill="#1a3863" opacity="1.00" d=" M 5.34 8.51 C 4.69 6.79 6.94 7.10 7.96 7.15 C 14.59 7.29 21.22 7.16 27.84 7.23 L 28.16 8.21 C 26.14 9.17 23.60 8.25 21.74 9.78 C 19.56 11.01 19.83 13.84 19.73 15.98 C 19.76 27.32 19.62 38.66 19.80 50.00 C 19.58 52.56 21.96 54.09 24.31 53.65 C 28.91 53.66 33.57 53.97 38.13 53.17 C 41.90 52.00 45.31 48.57 45.79 44.61 C 46.55 45.00 47.13 45.57 47.52 46.34 C 46.65 48.06 46.25 49.94 45.76 51.79 C 44.95 53.40 44.84 55.34 43.80 56.81 C 32.21 56.91 20.62 56.76 9.04 56.89 C 7.86 56.74 4.58 57.67 5.42 55.47 C 7.18 55.25 9.18 55.81 10.69 54.60 C 12.59 53.42 12.55 50.97 12.61 49.01 C 12.53 37.04 12.75 25.06 12.49 13.10 C 12.72 9.25 8.23 8.60 5.34 8.51 Z" />
</g>
<g id="#ebcacaff">
<path fill="#ebcaca" opacity="1.00" d=" M 21.74 9.78 C 23.60 8.25 26.14 9.17 28.16 8.21 C 29.42 7.69 30.67 7.71 31.89 8.27 C 31.83 8.57 31.69 9.17 31.63 9.47 C 29.17 9.51 26.29 9.42 24.49 11.40 C 23.33 12.68 23.61 14.48 23.46 16.06 C 23.46 27.40 23.45 38.75 23.46 50.09 C 23.42 51.33 23.79 52.53 24.31 53.65 C 21.96 54.09 19.58 52.56 19.80 50.00 C 19.62 38.66 19.76 27.32 19.73 15.98 C 19.83 13.84 19.56 11.01 21.74 9.78 Z" />
</g>
<g id="#ff0000ff">
<path fill="#ff0000" opacity="1.00" d=" M 33.00 15.67 C 34.59 16.27 35.38 17.86 36.62 18.91 C 42.24 24.76 47.73 30.73 53.49 36.43 C 54.57 37.74 56.21 38.02 57.82 38.07 C 56.39 40.08 53.17 39.94 51.02 41.15 C 48.66 41.32 46.10 44.16 44.08 42.93 C 45.18 42.08 47.33 41.94 46.98 40.07 C 46.25 38.84 45.11 37.92 44.18 36.85 C 43.89 36.55 43.32 35.94 43.03 35.64 C 42.81 35.68 42.38 35.75 42.16 35.79 L 41.22 35.98 C 40.70 36.07 39.66 36.26 39.15 36.36 L 38.82 37.15 C 37.64 37.50 36.38 37.59 35.22 38.03 C 31.80 38.30 31.95 44.48 34.61 45.71 L 36.54 45.35 L 37.28 45.09 C 37.45 45.40 37.78 46.03 37.95 46.35 C 36.24 46.32 34.41 46.99 33.17 48.19 L 31.49 48.14 C 30.66 48.31 29.01 48.64 28.18 48.81 C 28.99 47.87 30.29 47.23 30.48 45.89 C 31.59 40.90 31.29 35.72 32.01 30.67 L 31.49 29.07 C 32.08 28.86 33.26 28.44 33.85 28.23 C 33.73 31.12 33.38 34.00 33.26 36.89 C 34.04 36.68 34.81 36.42 35.55 36.10 C 36.00 35.94 36.90 35.63 37.35 35.48 C 38.65 35.03 39.94 34.54 41.21 34.01 C 40.49 32.79 39.39 31.82 38.61 30.67 C 38.12 29.57 36.68 29.21 35.91 28.32 C 35.78 28.08 35.51 27.62 35.38 27.38 C 34.12 27.44 32.97 26.82 32.19 25.85 C 32.69 22.48 32.64 19.05 33.00 15.67 Z" />
</g>
<g id="#eacacaff">
<path fill="#eacaca" opacity="1.00" d=" M 36.75 16.38 C 44.50 23.29 51.02 31.98 59.09 38.71 C 59.72 38.71 60.98 38.71 61.60 38.71 C 61.60 38.90 61.58 39.27 61.57 39.45 C 58.19 41.01 54.02 41.75 51.10 43.66 L 51.94 44.78 C 50.23 48.98 49.32 53.52 47.59 57.66 C 34.84 57.66 22.06 57.76 9.31 57.60 L 9.04 56.89 C 20.62 56.76 32.21 56.91 43.80 56.81 C 44.84 55.34 44.95 53.40 45.76 51.79 C 48.18 50.04 48.96 46.99 50.64 44.69 L 50.18 43.78 C 49.38 43.82 47.77 43.92 46.97 43.96 C 48.42 43.16 50.45 42.98 51.02 41.15 C 53.17 39.94 56.39 40.08 57.82 38.07 C 56.21 38.02 54.57 37.74 53.49 36.43 C 47.73 30.73 42.24 24.76 36.62 18.91 C 36.65 18.28 36.72 17.01 36.75 16.38 Z" />
<path fill="#eacaca" opacity="1.00" d=" M 35.91 28.32 C 36.68 29.21 38.12 29.57 38.61 30.67 C 38.39 30.67 37.94 30.66 37.72 30.66 C 37.16 32.17 36.97 33.91 37.35 35.48 C 36.90 35.63 36.00 35.94 35.55 36.10 C 35.06 33.61 35.82 30.89 35.91 28.32 Z" />
<path fill="#eacaca" opacity="1.00" d=" M 41.22 35.98 L 42.16 35.79 L 43.03 35.64 C 43.32 35.94 43.89 36.55 44.18 36.85 C 41.79 38.04 39.07 38.52 36.75 39.81 C 36.50 41.66 36.72 43.52 36.54 45.35 L 34.61 45.71 C 34.74 43.15 34.89 40.58 35.22 38.03 C 36.38 37.59 37.64 37.50 38.82 37.15 C 39.32 37.05 40.31 36.83 40.81 36.73 L 41.22 35.98 Z" />
<path fill="#eacaca" opacity="1.00" d=" M 33.17 48.19 C 34.41 46.99 36.24 46.32 37.95 46.35 C 39.26 46.25 40.58 46.21 41.90 46.24 C 38.98 48.21 35.24 49.08 31.93 50.02 L 33.17 48.19 Z" />
</g>
<g id="#ab4141b3">
<path fill="#ab4141" opacity="0.70" d=" M 42.16 35.79 C 42.38 35.75 42.81 35.68 43.03 35.64 L 42.16 35.79 Z" />
</g>
<g id="#a14d4daa">
<path fill="#a14d4d" opacity="0.67" d=" M 39.15 36.36 C 39.66 36.26 40.70 36.07 41.22 35.98 L 40.81 36.73 C 40.31 36.83 39.32 37.05 38.82 37.15 L 39.15 36.36 Z" />
</g>
</svg>
