<?xml version="1.0" encoding="UTF-8" ?>
<!DOCTYPE svg PUBLIC "-//W3C//DTD SVG 1.1//EN" "http://www.w3.org/Graphics/SVG/1.1/DTD/svg11.dtd">
<svg width="48pt" height="48pt" viewBox="0 0 48 48" version="1.1" xmlns="http://www.w3.org/2000/svg">
<g id="#ffec8bff">
<path fill="#ffec8b" opacity="1.00" d=" M 0.00 0.00 L 48.00 0.00 L 48.00 48.00 L 0.00 48.00 L 0.00 0.00 M 14.35 4.89 C 16.20 5.48 18.09 5.94 19.95 6.52 C 18.47 15.30 15.72 23.83 13.78 32.53 C 12.98 35.05 12.94 37.98 11.26 40.14 C 9.36 40.61 7.41 40.75 5.49 41.14 C 6.89 41.90 8.37 42.52 9.99 42.37 C 17.57 42.37 25.14 42.35 32.71 42.35 C 34.59 37.40 36.83 32.50 37.72 27.24 C 34.32 30.26 34.15 35.60 30.30 38.26 C 26.32 41.20 21.12 40.62 16.47 40.52 C 19.14 29.18 21.95 17.86 24.91 6.59 C 27.50 6.02 30.29 5.99 32.62 4.59 C 26.57 4.25 20.32 3.72 14.35 4.89 Z" />
</g>
<g id="#000000ff">
<path fill="#000000" opacity="1.00" d=" M 14.35 4.89 C 20.32 3.72 26.57 4.25 32.62 4.59 C 30.29 5.99 27.50 6.02 24.91 6.59 C 21.95 17.86 19.14 29.18 16.47 40.52 C 21.12 40.62 26.32 41.20 30.30 38.26 C 34.15 35.60 34.32 30.26 37.72 27.24 C 36.83 32.50 34.59 37.40 32.71 42.35 C 25.14 42.35 17.57 42.37 9.99 42.37 C 8.37 42.52 6.89 41.90 5.49 41.14 C 7.41 40.75 9.36 40.61 11.26 40.14 C 12.94 37.98 12.98 35.05 13.78 32.53 C 15.72 23.83 18.47 15.30 19.95 6.52 C 18.09 5.94 16.20 5.48 14.35 4.89 Z" />
</g>
</svg>
