<?xml version="1.0" encoding="UTF-8" ?>
<!DOCTYPE svg PUBLIC "-//W3C//DTD SVG 1.1//EN" "http://www.w3.org/Graphics/SVG/1.1/DTD/svg11.dtd">
<svg width="180pt" height="180pt" viewBox="0 0 180 180" version="1.1" xmlns="http://www.w3.org/2000/svg">
<g id="#1e1e1eff">
<path fill="#1e1e1e" opacity="1.00" d=" M 0.00 0.00 L 180.00 0.00 L 180.00 180.00 L 0.00 180.00 L 0.00 0.00 M 70.10 45.18 C 70.07 38.37 75.22 33.48 78.95 28.38 C 77.57 28.49 76.07 28.24 74.81 28.93 C 68.28 32.29 62.29 36.86 57.68 42.61 C 52.16 49.80 49.69 59.01 50.34 68.02 C 49.65 76.94 53.91 84.99 56.93 93.09 C 58.84 97.93 60.34 102.94 61.33 108.05 C 62.53 119.16 62.25 131.18 55.91 140.84 C 52.99 146.43 47.39 149.82 43.93 154.97 C 48.22 154.39 51.82 151.72 55.99 150.71 C 67.73 147.61 79.93 146.27 92.06 146.62 C 102.25 147.40 112.28 150.33 121.11 155.54 C 124.65 150.08 127.36 144.14 130.58 138.48 C 132.39 134.83 135.02 131.49 135.79 127.41 C 134.79 127.44 133.80 127.48 132.81 127.53 C 131.77 129.36 130.67 131.16 129.58 132.97 C 127.84 132.74 126.13 132.36 124.52 131.67 C 117.20 128.73 109.37 126.89 101.44 127.23 C 101.07 122.16 101.28 117.08 101.24 112.00 C 101.37 92.61 100.96 73.20 101.45 53.82 C 104.93 53.81 108.45 53.98 111.90 53.38 C 120.25 50.84 127.06 43.58 128.51 34.91 C 128.78 31.93 129.18 28.49 126.71 26.29 C 125.56 26.37 124.41 26.46 123.26 26.54 C 123.48 28.92 124.61 31.04 125.70 33.12 C 122.58 38.25 115.75 38.15 110.70 36.46 C 104.19 34.75 99.91 29.23 95.69 24.41 C 86.83 30.90 78.97 38.69 70.10 45.18 Z" />
<path fill="#1e1e1e" opacity="1.00" d=" M 69.63 49.07 C 72.67 46.36 75.90 43.88 79.12 41.39 C 84.00 47.47 90.29 52.94 98.31 53.96 C 98.46 78.36 98.51 102.78 98.29 127.18 C 85.32 126.96 72.87 132.11 62.13 139.02 C 70.11 130.41 80.42 122.71 83.42 110.76 C 83.94 105.29 84.08 99.60 82.33 94.31 C 78.07 79.25 68.90 65.25 69.63 49.07 Z" />
</g>
<g id="#ffffffff">
<path fill="#ffffff" opacity="1.00" d=" M 70.10 45.18 C 78.97 38.69 86.83 30.90 95.69 24.41 C 99.91 29.23 104.19 34.75 110.70 36.46 C 115.75 38.15 122.58 38.25 125.70 33.12 C 124.61 31.04 123.48 28.92 123.26 26.54 C 124.41 26.46 125.56 26.37 126.71 26.29 C 129.18 28.49 128.78 31.93 128.51 34.91 C 127.06 43.58 120.25 50.84 111.90 53.38 C 108.45 53.98 104.93 53.81 101.45 53.82 C 100.96 73.20 101.37 92.61 101.24 112.00 C 101.28 117.08 101.07 122.16 101.44 127.23 C 109.37 126.89 117.20 128.73 124.52 131.67 C 126.13 132.36 127.84 132.74 129.58 132.97 C 130.67 131.16 131.77 129.36 132.81 127.53 C 133.80 127.48 134.79 127.44 135.79 127.41 C 135.02 131.49 132.39 134.83 130.58 138.48 C 127.36 144.14 124.65 150.08 121.11 155.54 C 112.28 150.33 102.25 147.40 92.06 146.62 C 79.93 146.27 67.73 147.61 55.99 150.71 C 51.82 151.72 48.22 154.39 43.93 154.97 C 47.39 149.82 52.99 146.43 55.91 140.84 C 62.25 131.18 62.53 119.16 61.33 108.05 C 60.34 102.94 58.84 97.93 56.93 93.09 C 53.91 84.99 49.65 76.94 50.34 68.02 C 49.69 59.01 52.16 49.80 57.68 42.61 C 62.29 36.86 68.28 32.29 74.81 28.93 C 76.07 28.24 77.57 28.49 78.95 28.38 C 75.22 33.48 70.07 38.37 70.10 45.18 M 69.63 49.07 C 68.90 65.25 78.07 79.25 82.33 94.31 C 84.08 99.60 83.94 105.29 83.42 110.76 C 80.42 122.71 70.11 130.41 62.13 139.02 C 72.87 132.11 85.32 126.96 98.29 127.18 C 98.51 102.78 98.46 78.36 98.31 53.96 C 90.29 52.94 84.00 47.47 79.12 41.39 C 75.90 43.88 72.67 46.36 69.63 49.07 Z" />
</g>
</svg>
