<?xml version="1.0" encoding="UTF-8" ?>
<!DOCTYPE svg PUBLIC "-//W3C//DTD SVG 1.1//EN" "http://www.w3.org/Graphics/SVG/1.1/DTD/svg11.dtd">
<svg width="96pt" height="96pt" viewBox="0 0 96 96" version="1.1" xmlns="http://www.w3.org/2000/svg">
<g id="#231f20ff">
<path fill="#231f20" opacity="1.00" d=" M 7.19 21.05 C 19.54 14.47 35.56 12.49 47.98 19.94 C 60.40 12.49 76.43 14.46 88.77 21.08 C 91.12 41.04 93.64 60.99 95.99 80.96 C 87.11 81.04 79.83 75.07 71.13 74.27 C 62.94 72.82 54.08 74.79 47.98 80.64 C 41.88 74.79 33.01 72.82 24.82 74.27 C 16.14 75.08 8.85 81.02 0.00 80.94 L 0.00 79.65 C 2.58 60.14 4.80 40.59 7.19 21.05 M 13.21 25.14 C 11.19 41.15 9.28 57.17 7.35 73.18 C 19.85 67.15 35.71 64.44 47.98 72.48 C 60.24 64.44 76.10 67.15 88.60 73.18 C 86.68 57.17 84.75 41.16 82.77 25.16 C 71.70 20.55 57.42 19.40 47.97 28.04 C 38.54 19.38 24.26 20.57 13.21 25.14 Z" />
<path fill="#231f20" opacity="1.00" d=" M 15.78 27.52 C 26.11 23.32 39.58 22.68 47.91 31.26 C 52.19 26.96 58.07 24.64 64.11 24.46 C 64.95 37.89 65.80 51.32 66.63 64.75 C 60.11 64.52 53.57 65.98 47.89 69.23 C 36.53 62.52 22.29 64.15 10.65 69.28 C 12.34 55.36 14.15 41.45 15.78 27.52 Z" />
</g>
<g id="#fefefeff">
<path fill="#fefefe" opacity="1.00" d=" M 13.21 25.14 C 24.26 20.57 38.54 19.38 47.97 28.04 C 57.42 19.40 71.70 20.55 82.77 25.16 C 84.75 41.16 86.68 57.17 88.60 73.18 C 76.10 67.15 60.24 64.44 47.98 72.48 C 35.71 64.44 19.85 67.15 7.35 73.18 C 9.28 57.17 11.19 41.15 13.21 25.14 M 15.78 27.52 C 14.15 41.45 12.34 55.36 10.65 69.28 C 22.29 64.15 36.53 62.52 47.89 69.23 C 53.57 65.98 60.11 64.52 66.63 64.75 C 65.80 51.32 64.95 37.89 64.11 24.46 C 58.07 24.64 52.19 26.96 47.91 31.26 C 39.58 22.68 26.11 23.32 15.78 27.52 Z" />
</g>
</svg>
