<?xml version="1.0" encoding="UTF-8" ?>
<!DOCTYPE svg PUBLIC "-//W3C//DTD SVG 1.1//EN" "http://www.w3.org/Graphics/SVG/1.1/DTD/svg11.dtd">
<svg width="16pt" height="16pt" viewBox="0 0 16 16" version="1.1" xmlns="http://www.w3.org/2000/svg">
<g id="#ffffffff">
<path fill="#ffffff" opacity="1.00" d=" M 0.00 0.00 L 16.00 0.00 L 16.00 16.00 L 0.00 16.00 L 0.00 11.22 C 1.85 9.32 1.70 5.64 0.00 3.69 L 0.00 0.00 M 2.29 4.02 C 1.87 6.02 1.16 9.65 2.68 10.98 C 2.97 9.00 3.75 5.28 2.29 4.02 M 4.30 4.01 C 3.96 6.00 3.20 9.69 4.69 10.99 C 5.02 9.01 5.79 5.29 4.30 4.01 M 6.31 4.01 C 5.99 5.99 5.22 9.71 6.70 11.00 C 7.07 8.99 7.80 5.34 6.31 4.01 M 8.01 4.31 C 9.33 5.78 13.00 5.01 15.00 4.69 C 13.69 3.20 9.99 3.92 8.01 4.31 M 8.01 6.29 C 9.27 7.80 13.06 7.05 15.03 6.67 C 13.63 5.23 10.04 5.97 8.01 6.29 M 8.01 8.30 C 9.30 9.80 13.02 9.03 15.02 8.70 C 13.71 7.22 10.01 7.98 8.01 8.30 M 8.01 10.31 C 9.32 11.81 13.01 11.06 15.00 10.70 C 13.70 9.23 10.00 9.99 8.01 10.31 Z" />
</g>
<g id="#000000ff">
<path fill="#000000" opacity="1.00" d=" M 0.00 3.69 C 1.70 5.64 1.85 9.32 0.00 11.22 L 0.00 3.69 Z" />
<path fill="#000000" opacity="1.00" d=" M 2.29 4.02 C 3.75 5.28 2.97 9.00 2.68 10.98 C 1.16 9.65 1.87 6.02 2.29 4.02 Z" />
<path fill="#000000" opacity="1.00" d=" M 4.30 4.01 C 5.79 5.29 5.02 9.01 4.69 10.99 C 3.20 9.69 3.96 6.00 4.30 4.01 Z" />
<path fill="#000000" opacity="1.00" d=" M 6.31 4.01 C 7.80 5.34 7.07 8.99 6.70 11.00 C 5.22 9.71 5.99 5.99 6.31 4.01 Z" />
<path fill="#000000" opacity="1.00" d=" M 8.01 4.31 C 9.99 3.92 13.69 3.20 15.00 4.69 C 13.00 5.01 9.33 5.78 8.01 4.31 Z" />
<path fill="#000000" opacity="1.00" d=" M 8.01 6.29 C 10.04 5.97 13.63 5.23 15.03 6.67 C 13.06 7.05 9.27 7.80 8.01 6.29 Z" />
<path fill="#000000" opacity="1.00" d=" M 8.01 8.30 C 10.01 7.98 13.71 7.22 15.02 8.70 C 13.02 9.03 9.30 9.80 8.01 8.30 Z" />
<path fill="#000000" opacity="1.00" d=" M 8.01 10.31 C 10.00 9.99 13.70 9.23 15.00 10.70 C 13.01 11.06 9.32 11.81 8.01 10.31 Z" />
</g>
</svg>
