<?xml version="1.0" encoding="UTF-8" ?>
<!DOCTYPE svg PUBLIC "-//W3C//DTD SVG 1.1//EN" "http://www.w3.org/Graphics/SVG/1.1/DTD/svg11.dtd">
<svg width="96pt" height="96pt" viewBox="0 0 96 96" version="1.1" xmlns="http://www.w3.org/2000/svg">
<g id="#070706ff">
<path fill="#070706" opacity="1.00" d=" M 55.39 2.36 C 57.18 0.34 60.43 -0.03 62.60 1.63 C 65.45 3.46 65.78 8.02 63.23 10.26 C 60.16 13.34 57.14 16.48 53.89 19.38 C 49.65 23.56 45.35 27.68 41.29 32.03 C 35.75 37.92 29.79 43.40 24.22 49.26 C 20.49 53.23 20.27 59.99 23.89 64.10 C 29.41 70.00 35.44 75.42 40.92 81.36 C 42.60 83.52 42.88 86.70 40.94 88.79 C 39.41 90.78 36.72 90.42 34.52 90.32 C 28.85 85.40 23.79 79.78 18.37 74.58 C 14.85 71.30 11.86 67.24 10.79 62.47 C 10.47 58.53 10.58 54.56 11.01 50.63 C 12.02 46.65 14.38 43.12 17.32 40.31 C 30.02 27.67 42.67 14.98 55.39 2.36 Z" />
</g>
<g id="#f89f1bff">
<path fill="#f89f1b" opacity="1.00" d=" M 41.29 32.03 C 45.35 27.68 49.65 23.56 53.89 19.38 C 62.44 21.86 67.86 29.28 73.96 35.20 C 78.04 39.41 72.20 46.76 67.17 43.77 C 62.65 40.38 59.22 35.72 54.85 32.14 C 50.89 29.22 45.40 29.67 41.29 32.03 Z" />
<path fill="#f89f1b" opacity="1.00" d=" M 55.32 81.27 C 59.45 77.75 62.89 73.48 67.06 70.01 C 70.60 68.02 75.46 70.99 75.26 75.05 C 75.34 78.03 72.62 79.85 70.80 81.81 C 66.96 85.34 63.72 89.67 59.04 92.17 C 51.43 96.35 41.41 95.65 34.52 90.32 C 36.72 90.42 39.41 90.78 40.94 88.79 C 42.88 86.70 42.60 83.52 40.92 81.36 C 45.13 84.36 51.23 84.60 55.32 81.27 Z" />
</g>
<g id="#171514a7">
<path fill="#171514" opacity="0.65" d=" M 10.79 62.47 C 9.61 58.67 9.49 54.35 11.01 50.63 C 10.58 54.56 10.47 58.53 10.79 62.47 Z" />
</g>
<g id="#b4b2b1ff">
<path fill="#b4b2b1" opacity="1.00" d=" M 44.40 51.44 C 57.60 51.31 70.82 51.41 84.03 51.39 C 87.04 51.20 89.97 53.97 89.72 57.03 C 89.88 60.05 87.00 62.75 84.00 62.50 C 70.67 62.45 57.33 62.59 44.01 62.43 C 37.97 61.59 38.31 51.84 44.40 51.44 Z" />
</g>
</svg>
