<?xml version="1.0" encoding="UTF-8" ?>
<!DOCTYPE svg PUBLIC "-//W3C//DTD SVG 1.1//EN" "http://www.w3.org/Graphics/SVG/1.1/DTD/svg11.dtd">
<svg width="16pt" height="16pt" viewBox="0 0 16 16" version="1.1" xmlns="http://www.w3.org/2000/svg">
<g id="#e8371aff">
<path fill="#e8371a" opacity="1.00" d=" M 0.00 0.00 L 16.00 0.00 L 16.00 16.00 L 0.00 16.00 L 0.00 0.00 M 5.06 4.18 C 1.49 6.51 3.17 11.99 7.01 12.88 C 10.02 13.61 12.06 10.84 13.35 8.58 C 11.36 8.98 9.65 10.06 7.88 10.96 C 6.43 10.53 5.63 9.07 4.57 8.10 C 5.59 6.95 6.43 5.41 8.04 5.03 C 9.74 6.02 11.38 7.26 13.47 7.23 C 11.93 4.37 8.06 1.31 5.06 4.18 M 6.93 7.39 C 6.83 9.08 7.49 9.49 8.93 8.62 C 9.09 6.89 8.42 6.48 6.93 7.39 Z" />
</g>
<g id="#fce6e4ff">
<path fill="#fce6e4" opacity="1.00" d=" M 5.06 4.18 C 8.06 1.31 11.93 4.37 13.47 7.23 C 11.38 7.26 9.74 6.02 8.04 5.03 C 6.43 5.41 5.59 6.95 4.57 8.10 C 5.63 9.07 6.43 10.53 7.88 10.96 C 9.65 10.06 11.36 8.98 13.35 8.58 C 12.06 10.84 10.02 13.61 7.01 12.88 C 3.17 11.99 1.49 6.51 5.06 4.18 Z" />
</g>
<g id="#ffffffff">
<path fill="#ffffff" opacity="1.00" d=" M 6.93 7.39 C 8.42 6.48 9.09 6.89 8.93 8.62 C 7.49 9.49 6.83 9.08 6.93 7.39 Z" />
</g>
</svg>
