<?xml version="1.0" encoding="UTF-8" ?>
<!DOCTYPE svg PUBLIC "-//W3C//DTD SVG 1.1//EN" "http://www.w3.org/Graphics/SVG/1.1/DTD/svg11.dtd">
<svg width="16pt" height="16pt" viewBox="0 0 16 16" version="1.1" xmlns="http://www.w3.org/2000/svg">
<g id="#b4e5eaff">
<path fill="#b4e5ea" opacity="1.00" d=" M 0.00 2.70 C 2.60 1.78 5.44 1.01 7.96 2.57 C 7.99 5.68 8.04 8.78 8.05 11.89 C 5.95 12.08 3.84 12.29 1.74 12.48 C 3.41 12.81 5.09 13.13 6.75 13.54 C 4.50 13.53 2.25 13.59 0.00 13.74 L 0.00 2.70 Z" />
</g>
<g id="#6fc5d6ff">
<path fill="#6fc5d6" opacity="1.00" d=" M 7.96 2.57 C 10.52 1.05 13.38 1.78 16.00 2.72 L 16.00 13.61 C 12.92 13.59 9.83 13.70 6.75 13.54 C 5.09 13.13 3.41 12.81 1.74 12.48 C 3.84 12.29 5.95 12.08 8.05 11.89 C 8.04 8.78 7.99 5.68 7.96 2.57 M 9.29 12.25 C 9.77 13.63 12.45 12.98 13.64 12.74 C 13.35 11.15 10.34 11.32 9.29 12.25 Z" />
</g>
<g id="#44818cf9">
<path fill="#44818c" opacity="0.98" d=" M 9.29 12.25 C 10.34 11.32 13.35 11.15 13.64 12.74 C 12.45 12.98 9.77 13.63 9.29 12.25 Z" />
</g>
</svg>
