<?xml version="1.0" encoding="UTF-8" ?>
<!DOCTYPE svg PUBLIC "-//W3C//DTD SVG 1.1//EN" "http://www.w3.org/Graphics/SVG/1.1/DTD/svg11.dtd">
<svg width="300pt" height="300pt" viewBox="0 0 300 300" version="1.1" xmlns="http://www.w3.org/2000/svg">
<g id="#631a35ff">
<path fill="#631a35" opacity="1.00" d=" M 96.39 16.63 C 135.20 0.62 181.08 2.91 217.97 23.00 C 218.41 23.29 219.29 23.86 219.73 24.15 C 223.70 25.90 227.51 28.30 230.95 30.96 C 231.39 31.26 232.27 31.86 232.71 32.16 C 234.96 33.46 237.15 34.97 238.95 36.86 C 239.38 37.18 240.23 37.83 240.65 38.16 C 244.20 40.88 247.79 43.72 250.77 47.09 C 251.24 48.02 251.94 48.72 252.87 49.19 C 254.36 50.38 255.81 51.72 256.76 53.38 C 257.11 53.79 257.79 54.62 258.13 55.03 C 288.28 88.21 300.41 136.45 290.65 180.11 C 286.27 200.08 277.66 219.20 265.27 235.48 C 265.45 225.67 265.39 215.84 265.32 206.03 C 265.49 199.01 258.81 192.97 251.82 194.11 C 248.94 188.83 242.99 185.28 236.91 186.32 C 220.76 188.74 204.72 191.85 188.81 195.49 C 177.85 198.19 166.78 200.91 156.54 205.79 C 152.27 204.57 147.75 204.63 143.48 205.81 C 133.48 201.04 122.67 198.41 111.96 195.77 C 95.12 191.98 78.15 188.66 61.05 186.24 C 55.22 185.46 49.47 188.82 46.80 193.97 C 42.99 194.03 39.15 195.73 37.07 199.02 C 34.99 201.91 34.87 205.59 34.88 209.00 C 34.92 217.50 34.86 225.99 34.89 234.48 C 15.74 208.62 5.77 176.15 7.12 143.99 C 8.14 114.64 18.59 85.74 36.45 62.43 C 51.83 42.14 72.83 26.23 96.39 16.63 M 178.55 126.50 C 178.53 133.06 178.53 139.63 178.55 146.19 C 192.56 150.23 205.26 157.97 216.15 167.57 C 216.18 153.87 216.17 140.17 216.16 126.47 C 211.74 128.65 207.24 130.67 202.68 132.53 C 200.42 133.33 197.97 134.46 195.55 133.64 C 189.66 131.84 184.12 129.08 178.55 126.50 M 129.08 149.20 C 108.67 153.87 90.02 165.84 77.23 182.40 C 96.95 186.10 116.95 189.25 135.88 196.17 C 139.62 197.33 142.90 200.21 147.00 199.91 C 149.96 199.88 152.94 200.07 155.88 199.69 C 176.89 189.93 200.09 186.63 222.62 182.24 C 214.29 171.49 203.54 162.63 191.37 156.54 C 172.32 146.89 149.84 144.26 129.08 149.20 Z" />
</g>
<g id="#10040990">
<path fill="#100409" opacity="0.56" d=" M 217.97 23.00 L 218.84 22.65 L 219.74 23.24 L 219.73 24.15 C 219.29 23.86 218.41 23.29 217.97 23.00 Z" />
</g>
<g id="#13050a91">
<path fill="#13050a" opacity="0.57" d=" M 230.95 30.96 L 231.79 30.61 L 232.69 31.22 L 232.71 32.16 C 232.27 31.86 231.39 31.26 230.95 30.96 Z" />
</g>
<g id="#14050a99">
<path fill="#14050a" opacity="0.60" d=" M 238.95 36.86 L 239.81 36.56 L 240.69 37.23 L 240.65 38.16 C 240.23 37.83 239.38 37.18 238.95 36.86 Z" />
</g>
<g id="#00000050">
<path fill="#000000" opacity="0.31" d=" M 250.77 47.09 C 252.53 46.70 253.23 47.40 252.87 49.19 C 251.94 48.72 251.24 48.02 250.77 47.09 Z" />
</g>
<g id="#14050a8f">
<path fill="#14050a" opacity="0.56" d=" M 256.76 53.38 L 257.70 53.32 L 258.41 54.17 L 258.13 55.03 C 257.79 54.62 257.11 53.79 256.76 53.38 Z" />
</g>
<g id="#29cfc3ff">
<path fill="#29cfc3" opacity="1.00" d=" M 178.55 126.50 C 184.12 129.08 189.66 131.84 195.55 133.64 C 197.97 134.46 200.42 133.33 202.68 132.53 C 207.24 130.67 211.74 128.65 216.16 126.47 C 216.17 140.17 216.18 153.87 216.15 167.57 C 205.26 157.97 192.56 150.23 178.55 146.19 C 178.53 139.63 178.53 133.06 178.55 126.50 Z" />
<path fill="#29cfc3" opacity="1.00" d=" M 37.07 199.02 C 39.15 195.73 42.99 194.03 46.80 193.97 C 76.19 199.12 105.50 204.72 134.89 209.83 C 135.08 235.23 134.98 260.64 135.00 286.04 C 134.96 288.02 134.79 290.01 134.59 291.99 C 95.24 288.06 58.12 266.44 34.89 234.48 C 34.86 225.99 34.92 217.50 34.88 209.00 C 34.87 205.59 34.99 201.91 37.07 199.02 Z" />
</g>
<g id="#a61c49ff">
<path fill="#a61c49" opacity="1.00" d=" M 129.08 149.20 C 149.84 144.26 172.32 146.89 191.37 156.54 C 203.54 162.63 214.29 171.49 222.62 182.24 C 200.09 186.63 176.89 189.93 155.88 199.69 C 152.94 200.07 149.96 199.88 147.00 199.91 C 142.90 200.21 139.62 197.33 135.88 196.17 C 116.95 189.25 96.95 186.10 77.23 182.40 C 90.02 165.84 108.67 153.87 129.08 149.20 Z" />
</g>
<g id="#ffffffff">
<path fill="#ffffff" opacity="1.00" d=" M 46.80 193.97 C 49.47 188.82 55.22 185.46 61.05 186.24 C 78.15 188.66 95.12 191.98 111.96 195.77 C 122.67 198.41 133.48 201.04 143.48 205.81 C 147.80 206.34 152.22 206.37 156.54 205.79 C 166.78 200.91 177.85 198.19 188.81 195.49 C 204.72 191.85 220.76 188.74 236.91 186.32 C 242.99 185.28 248.94 188.83 251.82 194.11 C 222.87 199.37 193.93 204.73 164.96 209.84 C 154.94 209.92 144.91 209.94 134.89 209.83 C 105.50 204.72 76.19 199.12 46.80 193.97 Z" />
</g>
<g id="#23b0a7ff">
<path fill="#23b0a7" opacity="1.00" d=" M 251.82 194.11 C 258.81 192.97 265.49 199.01 265.32 206.03 C 265.39 215.84 265.45 225.67 265.27 235.48 C 241.79 267.37 204.41 288.37 165.04 292.30 C 164.92 264.81 165.15 237.33 164.96 209.84 C 193.93 204.73 222.87 199.37 251.82 194.11 Z" />
</g>
<g id="#590021ff">
<path fill="#590021" opacity="1.00" d=" M 143.48 205.81 C 147.75 204.63 152.27 204.57 156.54 205.79 C 152.22 206.37 147.80 206.34 143.48 205.81 Z" />
</g>
<g id="#26bfb5ff">
<path fill="#26bfb5" opacity="1.00" d=" M 134.89 209.83 C 144.91 209.94 154.94 209.92 164.96 209.84 C 165.15 237.33 164.92 264.81 165.04 292.30 C 154.90 293.34 144.71 293.05 134.56 292.28 L 134.59 291.99 C 134.79 290.01 134.96 288.02 135.00 286.04 C 134.98 260.64 135.08 235.23 134.89 209.83 Z" />
</g>
</svg>
