<?xml version="1.0" encoding="UTF-8" ?>
<!DOCTYPE svg PUBLIC "-//W3C//DTD SVG 1.1//EN" "http://www.w3.org/Graphics/SVG/1.1/DTD/svg11.dtd">
<svg width="512pt" height="512pt" viewBox="0 0 512 512" version="1.1" xmlns="http://www.w3.org/2000/svg">
<g id="#000000ff">
<path fill="#000000" opacity="1.00" d=" M 34.31 20.27 C 36.46 19.53 38.76 19.78 40.99 19.74 C 63.68 19.79 86.37 19.71 109.06 19.77 C 117.30 20.35 124.21 27.66 124.26 35.93 C 124.24 182.64 124.24 329.36 124.26 476.07 C 124.23 484.68 116.68 492.23 108.08 492.26 C 84.69 492.24 61.31 492.24 37.93 492.26 C 29.32 492.24 21.77 484.68 21.74 476.07 C 21.76 329.36 21.76 182.64 21.74 35.93 C 21.86 28.68 27.14 21.82 34.31 20.27 Z" />
<path fill="#000000" opacity="1.00" d=" M 170.31 20.27 C 171.79 19.75 173.38 19.72 174.94 19.73 C 198.31 19.79 221.69 19.70 245.06 19.77 C 253.30 20.35 260.21 27.66 260.26 35.93 C 260.24 182.64 260.24 329.36 260.26 476.07 C 260.23 484.67 252.68 492.24 244.07 492.26 C 220.69 492.24 197.31 492.24 173.93 492.26 C 165.32 492.24 157.77 484.68 157.74 476.07 C 157.76 329.36 157.76 182.64 157.74 35.93 C 157.86 28.68 163.13 21.83 170.31 20.27 Z" />
<path fill="#000000" opacity="1.00" d=" M 352.31 24.07 C 361.07 21.14 371.15 27.02 373.03 36.02 C 409.89 173.31 446.57 310.65 483.41 447.94 C 484.29 451.70 485.84 455.63 484.46 459.47 C 483.24 465.36 478.41 470.17 472.59 471.59 C 450.28 477.61 427.95 483.57 405.62 489.53 C 397.02 492.36 387.24 486.01 385.47 477.29 C 348.36 338.80 311.28 200.30 274.18 61.81 C 271.65 53.66 277.01 44.30 285.20 42.10 C 307.54 35.99 329.94 30.10 352.31 24.07 Z" />
</g>
</svg>
