<?xml version="1.0" encoding="UTF-8" ?>
<!DOCTYPE svg PUBLIC "-//W3C//DTD SVG 1.1//EN" "http://www.w3.org/Graphics/SVG/1.1/DTD/svg11.dtd">
<svg width="140pt" height="140pt" viewBox="0 0 140 140" version="1.1" xmlns="http://www.w3.org/2000/svg">
<g id="#ffffffff">
<path fill="#ffffff" opacity="1.00" d=" M 0.00 0.00 L 140.00 0.00 L 140.00 140.00 L 0.00 140.00 L 0.00 0.00 M 56.33 12.31 C 42.69 20.80 34.04 35.32 28.73 50.13 C 22.32 68.75 21.71 89.73 28.86 108.23 C 32.90 118.78 41.52 127.69 52.54 130.81 C 66.23 134.30 81.12 129.68 91.83 120.80 C 93.55 119.21 96.04 117.60 95.86 114.94 C 95.57 111.02 92.66 106.74 88.36 106.84 C 82.16 114.69 72.07 119.87 61.96 119.04 C 54.40 119.61 47.50 114.62 43.74 108.37 C 38.21 99.31 37.13 88.39 36.96 78.00 C 37.63 60.80 43.00 43.37 54.06 29.96 C 59.34 23.75 66.62 18.62 74.94 17.93 C 78.96 17.58 83.19 19.52 85.17 23.10 C 87.03 26.48 86.17 30.54 85.02 34.00 C 81.40 43.36 73.12 50.37 63.91 53.94 C 61.36 55.12 58.43 54.76 55.90 55.96 C 53.66 55.27 51.46 54.38 49.14 54.03 C 46.34 57.98 47.32 65.03 52.35 66.85 C 54.90 67.17 57.50 67.14 60.05 66.88 C 71.47 64.65 82.00 58.47 89.81 49.88 C 95.10 43.81 99.28 36.23 99.36 27.99 C 99.55 19.98 95.75 11.23 88.03 7.93 C 77.63 3.57 65.63 6.68 56.33 12.31 Z" />
</g>
<g id="#45b29dff">
<path fill="#45b29d" opacity="1.00" d=" M 56.33 12.31 C 65.63 6.68 77.63 3.57 88.03 7.93 C 95.75 11.23 99.55 19.98 99.36 27.99 C 99.28 36.23 95.10 43.81 89.81 49.88 C 82.00 58.47 71.47 64.65 60.05 66.88 C 57.50 67.14 54.90 67.17 52.35 66.85 C 47.32 65.03 46.34 57.98 49.14 54.03 C 51.46 54.38 53.66 55.27 55.90 55.96 C 58.43 54.76 61.36 55.12 63.91 53.94 C 73.12 50.37 81.40 43.36 85.02 34.00 C 86.17 30.54 87.03 26.48 85.17 23.10 C 83.19 19.52 78.96 17.58 74.94 17.93 C 66.62 18.62 59.34 23.75 54.06 29.96 C 43.00 43.37 37.63 60.80 36.96 78.00 C 37.13 88.39 38.21 99.31 43.74 108.37 C 47.50 114.62 54.40 119.61 61.96 119.04 C 72.07 119.87 82.16 114.69 88.36 106.84 C 92.66 106.74 95.57 111.02 95.86 114.94 C 96.04 117.60 93.55 119.21 91.83 120.80 C 81.12 129.68 66.23 134.30 52.54 130.81 C 41.52 127.69 32.90 118.78 28.86 108.23 C 21.71 89.73 22.32 68.75 28.73 50.13 C 34.04 35.32 42.69 20.80 56.33 12.31 Z" />
</g>
</svg>
