<?xml version="1.0" encoding="UTF-8" ?>
<!DOCTYPE svg PUBLIC "-//W3C//DTD SVG 1.1//EN" "http://www.w3.org/Graphics/SVG/1.1/DTD/svg11.dtd">
<svg width="32pt" height="32pt" viewBox="0 0 32 32" version="1.1" xmlns="http://www.w3.org/2000/svg">
<g id="#3f556bff">
<path fill="#3f556b" opacity="1.00" d=" M 0.00 0.00 L 32.00 0.00 L 32.00 32.00 L 0.00 32.00 L 0.00 0.00 M 11.42 9.91 C 9.40 9.86 7.15 9.46 5.54 11.03 C 7.39 11.33 9.25 11.48 11.12 11.56 C 10.73 15.51 10.08 19.42 9.19 23.29 C 7.16 23.30 4.85 22.75 3.14 24.16 C 2.00 24.89 0.47 26.60 2.07 27.71 C 5.20 29.19 7.80 25.16 10.89 26.34 C 17.38 28.30 24.93 29.48 31.09 25.90 C 24.16 27.27 17.02 26.69 10.46 24.02 C 12.44 19.82 12.40 15.07 13.81 10.70 C 13.95 8.46 14.54 6.29 16.06 4.57 C 17.08 6.39 16.50 8.32 14.55 9.14 C 15.05 9.55 15.56 9.96 16.07 10.37 C 17.05 8.39 19.16 6.66 18.82 4.25 C 14.99 2.53 12.36 6.82 11.42 9.91 Z" />
<path fill="#3f556b" opacity="1.00" d=" M 4.40 25.07 C 5.59 24.24 6.29 24.49 6.49 25.84 C 5.24 26.75 4.54 26.50 4.40 25.07 Z" />
</g>
<g id="#f9fafbff">
<path fill="#f9fafb" opacity="1.00" d=" M 11.42 9.91 C 12.36 6.82 14.99 2.53 18.82 4.25 C 19.16 6.66 17.05 8.39 16.07 10.37 C 15.56 9.96 15.05 9.55 14.55 9.14 C 16.50 8.32 17.08 6.39 16.06 4.57 C 14.54 6.29 13.95 8.46 13.81 10.70 C 12.40 15.07 12.44 19.82 10.46 24.02 C 17.02 26.69 24.16 27.27 31.09 25.90 C 24.93 29.48 17.38 28.30 10.89 26.34 C 7.80 25.16 5.20 29.19 2.07 27.71 C 0.47 26.60 2.00 24.89 3.14 24.16 C 4.85 22.75 7.16 23.30 9.19 23.29 C 10.08 19.42 10.73 15.51 11.12 11.56 C 9.25 11.48 7.39 11.33 5.54 11.03 C 7.15 9.46 9.40 9.86 11.42 9.91 M 4.40 25.07 C 4.54 26.50 5.24 26.75 6.49 25.84 C 6.29 24.49 5.59 24.24 4.40 25.07 Z" />
</g>
</svg>
