<?xml version="1.0" encoding="UTF-8" ?>
<!DOCTYPE svg PUBLIC "-//W3C//DTD SVG 1.1//EN" "http://www.w3.org/Graphics/SVG/1.1/DTD/svg11.dtd">
<svg width="32pt" height="32pt" viewBox="0 0 32 32" version="1.1" xmlns="http://www.w3.org/2000/svg">
<g id="#9e1f63ff">
<path fill="#9e1f63" opacity="1.00" d=" M 1.86 6.11 C 1.84 3.53 3.89 1.44 6.26 0.73 C 6.27 9.45 6.18 18.16 6.31 26.88 C 11.10 27.06 15.89 27.10 20.68 26.86 C 20.74 24.25 20.74 21.65 20.72 19.04 C 18.48 19.03 16.24 18.99 14.00 18.98 C 13.93 13.08 14.14 7.18 13.89 1.28 C 17.70 1.26 21.51 1.43 25.31 1.64 C 28.01 1.68 30.22 4.34 30.04 6.98 C 30.04 12.93 29.58 18.88 29.43 24.83 C 29.53 27.79 27.18 30.88 24.04 30.67 C 18.02 30.38 11.99 30.19 5.96 29.90 C 2.96 29.96 0.91 27.00 1.11 24.20 C 1.34 18.17 1.57 12.14 1.86 6.11 Z" />
</g>
<g id="#ffffffff">
<path fill="#ffffff" opacity="1.00" d=" M 6.26 0.73 C 8.79 0.80 11.33 0.74 13.86 0.70 L 13.89 1.28 C 14.14 7.18 13.93 13.08 14.00 18.98 C 16.24 18.99 18.48 19.03 20.72 19.04 C 20.74 21.65 20.74 24.25 20.68 26.86 C 15.89 27.10 11.10 27.06 6.31 26.88 C 6.18 18.16 6.27 9.45 6.26 0.73 Z" />
</g>
</svg>
