<?xml version="1.0" encoding="UTF-8" ?>
<!DOCTYPE svg PUBLIC "-//W3C//DTD SVG 1.1//EN" "http://www.w3.org/Graphics/SVG/1.1/DTD/svg11.dtd">
<svg width="180pt" height="180pt" viewBox="0 0 180 180" version="1.1" xmlns="http://www.w3.org/2000/svg">
<g id="#ff7569ff">
<path fill="#ff7569" opacity="1.00" d=" M 0.00 0.00 L 5.78 0.00 C 3.51 4.81 3.41 10.51 0.00 14.79 L 0.00 0.00 Z" />
</g>
<g id="#dc4f5fff">
<path fill="#dc4f5f" opacity="1.00" d=" M 5.78 0.00 L 6.46 0.00 C 7.24 2.73 8.56 5.28 10.99 6.89 C 9.16 9.36 7.40 11.90 5.84 14.55 C 8.27 14.64 10.69 14.75 13.12 14.72 C 9.86 18.64 4.42 17.15 0.00 17.88 L 0.00 14.79 C 3.41 10.51 3.51 4.81 5.78 0.00 Z" />
<path fill="#dc4f5f" opacity="1.00" d=" M 152.76 134.01 C 153.34 134.18 154.50 134.51 155.08 134.68 C 156.30 136.95 157.73 139.12 159.10 141.32 C 157.05 140.00 155.04 138.63 153.01 137.28 C 152.95 136.47 152.83 134.83 152.76 134.01 Z" />
<path fill="#dc4f5f" opacity="1.00" d=" M 128.86 174.73 C 129.72 174.56 130.60 174.44 131.48 174.36 C 134.70 176.37 137.72 178.76 141.36 180.00 L 138.23 180.00 C 135.65 177.35 132.44 175.58 128.86 174.73 Z" />
</g>
<g id="#ad4053ff">
<path fill="#ad4053" opacity="1.00" d=" M 6.46 0.00 L 16.13 0.00 C 14.29 2.20 12.68 4.58 10.99 6.89 C 8.56 5.28 7.24 2.73 6.46 0.00 Z" />
</g>
<g id="#fe6f67ff">
<path fill="#fe6f67" opacity="1.00" d=" M 16.13 0.00 L 40.47 0.00 C 39.64 0.59 38.82 1.18 38.01 1.79 C 37.55 1.39 36.62 0.61 36.16 0.22 C 30.80 0.46 23.73 -1.05 20.54 4.55 C 18.09 7.95 16.07 11.71 13.12 14.72 C 10.69 14.75 8.27 14.64 5.84 14.55 C 7.40 11.90 9.16 9.36 10.99 6.89 C 12.68 4.58 14.29 2.20 16.13 0.00 Z" />
</g>
<g id="#8c3545ff">
<path fill="#8c3545" opacity="1.00" d=" M 40.47 0.00 L 41.24 0.00 C 41.31 0.00 41.44 0.00 41.51 0.00 L 42.96 0.00 C 43.54 2.13 47.94 3.14 46.72 0.00 L 49.04 0.00 C 49.43 2.28 53.81 2.97 52.79 0.00 L 66.58 0.00 C 58.89 2.36 52.11 6.78 46.22 12.18 C 40.80 17.05 33.76 21.68 32.86 29.57 C 30.61 32.86 28.27 36.22 27.33 40.16 C 26.14 45.03 24.85 49.87 23.13 54.59 C 21.63 54.11 20.09 53.76 18.53 53.51 C 19.77 54.43 21.03 55.34 22.32 56.20 C 20.39 64.53 20.72 73.51 16.63 81.24 C 16.29 81.27 15.61 81.31 15.27 81.34 C 15.17 80.01 15.04 78.68 14.86 77.36 C 17.47 77.88 16.46 74.51 14.45 75.88 C 14.57 73.70 14.71 71.53 14.83 69.36 C 15.92 61.41 15.73 53.16 18.62 45.56 C 20.34 40.99 22.18 36.46 23.77 31.84 C 26.10 25.11 30.26 19.24 33.07 12.72 C 29.60 15.95 28.22 20.61 25.56 24.42 C 25.19 24.55 24.44 24.83 24.06 24.97 C 22.23 27.61 20.65 30.40 18.99 33.15 C 20.22 27.90 21.37 22.27 25.16 18.18 C 27.89 15.22 30.52 12.17 33.39 9.34 C 36.44 6.32 41.01 5.22 43.48 1.55 C 41.79 2.02 40.13 2.60 38.58 3.41 C 32.64 1.72 26.30 2.56 20.54 4.55 C 23.73 -1.05 30.80 0.46 36.16 0.22 C 36.62 0.61 37.55 1.39 38.01 1.79 C 38.82 1.18 39.64 0.59 40.47 0.00 Z" />
<path fill="#8c3545" opacity="1.00" d=" M 90.74 84.23 C 96.55 85.95 100.43 91.14 105.56 94.15 C 106.34 97.41 108.65 99.90 110.76 102.38 C 117.58 110.77 121.47 121.03 123.94 131.45 C 123.15 137.34 121.09 142.98 118.54 148.32 C 117.50 149.30 116.45 150.28 115.43 151.29 C 115.73 149.23 115.94 147.15 115.83 145.08 C 115.37 144.49 114.88 143.92 114.42 143.35 C 114.74 137.18 114.38 130.99 113.42 124.90 C 112.62 120.07 112.36 115.04 110.26 110.54 C 109.89 114.75 111.23 119.28 109.28 123.24 C 108.74 122.37 108.20 121.49 107.69 120.60 C 107.55 119.99 107.26 118.77 107.11 118.15 C 107.59 117.56 108.07 116.96 108.55 116.36 C 107.99 115.76 107.43 115.17 106.84 114.60 C 106.68 114.45 106.36 114.16 106.20 114.01 C 104.16 109.89 102.83 105.45 100.66 101.38 C 97.75 95.43 93.78 90.10 90.74 84.23 Z" />
</g>
<g id="#3b1a24ff">
<path fill="#3b1a24" opacity="1.00" d=" M 41.24 0.00 L 41.51 0.00 C 41.44 0.00 41.31 0.00 41.24 0.00 Z" />
</g>
<g id="#d44e63ff">
<path fill="#d44e63" opacity="1.00" d=" M 42.96 0.00 L 46.72 0.00 C 47.94 3.14 43.54 2.13 42.96 0.00 Z" />
</g>
<g id="#642b37ff">
<path fill="#642b37" opacity="1.00" d=" M 49.04 0.00 L 52.79 0.00 C 53.81 2.97 49.43 2.28 49.04 0.00 Z" />
</g>
<g id="#5f4c54ff">
<path fill="#5f4c54" opacity="1.00" d=" M 66.58 0.00 L 77.60 0.00 C 73.52 2.37 70.06 5.56 67.13 9.24 C 65.55 9.44 63.96 9.57 62.37 9.67 C 61.77 9.61 60.56 9.51 59.96 9.45 C 56.70 11.66 53.55 14.09 49.90 15.62 C 42.84 18.33 38.51 24.90 32.86 29.57 C 33.76 21.68 40.80 17.05 46.22 12.18 C 52.11 6.78 58.89 2.36 66.58 0.00 Z" />
</g>
<g id="#4c3748ff">
<path fill="#4c3748" opacity="1.00" d=" M 77.60 0.00 L 103.21 0.00 C 102.15 1.33 101.10 2.67 100.04 4.00 C 104.29 3.09 108.53 2.11 112.64 0.69 C 118.35 0.00 124.12 0.75 129.59 2.45 C 134.53 5.60 140.06 7.85 145.83 8.89 C 146.92 9.96 147.94 11.11 148.96 12.26 C 148.16 15.08 150.86 16.86 151.90 19.15 C 154.54 24.71 155.51 30.93 156.03 37.02 C 156.47 42.45 157.07 47.91 156.57 53.36 C 154.16 49.23 155.37 44.13 153.43 39.81 C 152.31 47.39 153.57 55.09 152.50 62.69 C 151.68 68.06 151.32 73.52 150.16 78.84 C 145.10 66.94 139.43 55.30 132.80 44.19 C 131.93 42.94 130.81 41.90 129.78 40.79 C 127.55 36.31 126.83 31.18 124.00 26.98 C 121.98 23.95 120.56 20.51 118.24 17.69 C 115.06 16.46 111.50 17.40 108.20 16.79 C 105.70 14.61 104.01 11.57 101.11 9.85 C 98.21 8.10 95.22 6.46 92.77 4.09 C 88.17 3.87 83.42 3.58 78.97 5.01 C 75.03 6.25 72.02 9.24 68.38 11.07 C 68.07 10.61 67.44 9.70 67.13 9.24 C 70.06 5.56 73.52 2.37 77.60 0.00 Z" />
</g>
<g id="#8b333fff">
<path fill="#8b333f" opacity="1.00" d=" M 103.21 0.00 L 108.46 0.00 C 109.85 0.23 111.25 0.46 112.64 0.69 C 108.53 2.11 104.29 3.09 100.04 4.00 C 101.10 2.67 102.15 1.33 103.21 0.00 Z" />
</g>
<g id="#150b1eff">
<path fill="#150b1e" opacity="1.00" d=" M 108.46 0.00 L 125.00 0.00 C 128.57 1.62 132.44 2.32 136.33 2.63 C 135.73 1.97 134.53 0.66 133.93 0.00 L 135.21 0.00 C 139.98 3.80 145.52 6.44 150.41 10.07 C 150.41 10.85 150.41 11.63 150.41 12.41 C 156.85 18.37 162.23 25.40 165.87 33.41 C 166.92 37.31 167.57 41.30 167.94 45.32 C 165.59 39.75 164.56 33.68 161.62 28.36 C 158.38 22.29 153.42 17.42 148.96 12.26 C 147.94 11.11 146.92 9.96 145.83 8.89 C 141.69 4.37 135.38 3.22 129.59 2.45 C 124.12 0.75 118.35 0.00 112.64 0.69 C 111.25 0.46 109.85 0.23 108.46 0.00 Z" />
<path fill="#150b1e" opacity="1.00" d=" M 145.84 0.00 L 147.14 0.00 C 149.55 2.69 152.38 4.94 155.67 6.47 C 157.40 7.75 158.81 9.40 160.24 11.01 C 160.10 11.58 159.83 12.71 159.70 13.28 C 158.90 12.29 158.09 11.31 157.29 10.33 C 155.19 7.59 152.22 5.79 149.38 3.91 C 149.13 3.67 148.63 3.19 148.38 2.94 C 147.53 1.97 146.71 0.96 145.84 0.00 Z" />
<path fill="#150b1e" opacity="1.00" d=" M 133.30 153.56 C 133.71 153.66 134.54 153.86 134.95 153.96 C 132.04 158.84 130.62 164.33 130.36 169.99 C 132.19 174.69 138.25 174.56 142.36 175.95 C 143.81 177.23 145.13 178.66 146.54 180.00 L 141.36 180.00 C 137.72 178.76 134.70 176.37 131.48 174.36 C 130.60 174.44 129.72 174.56 128.86 174.73 C 132.44 175.58 135.65 177.35 138.23 180.00 L 103.69 180.00 C 106.33 177.52 108.33 174.48 110.04 171.31 C 112.57 168.85 115.23 166.52 117.64 163.94 C 117.85 164.45 118.28 165.49 118.50 166.01 C 118.78 165.58 119.07 165.15 119.36 164.73 C 121.62 161.66 123.09 158.13 124.82 154.75 L 126.35 155.49 C 126.51 159.02 126.32 162.57 126.69 166.10 L 127.32 166.77 C 127.56 167.01 128.03 167.49 128.26 167.73 C 129.21 164.25 130.05 160.73 130.97 157.25 C 131.71 156.00 132.51 154.78 133.30 153.56 M 127.36 170.37 C 126.46 171.25 127.60 173.38 128.83 172.62 C 129.73 171.74 128.58 169.60 127.36 170.37 Z" />
</g>
<g id="#83323eff">
<path fill="#83323e" opacity="1.00" d=" M 125.00 0.00 L 133.93 0.00 C 134.53 0.66 135.73 1.97 136.33 2.63 C 132.44 2.32 128.57 1.62 125.00 0.00 Z" />
</g>
<g id="#8b3443ff">
<path fill="#8b3443" opacity="1.00" d=" M 135.21 0.00 L 140.02 0.00 C 140.99 1.62 142.86 2.75 144.74 1.89 C 144.48 1.42 143.95 0.47 143.68 0.00 L 145.84 0.00 C 146.71 0.96 147.53 1.97 148.38 2.94 C 147.86 3.14 146.80 3.54 146.28 3.74 C 146.77 5.47 149.22 6.31 149.38 3.91 C 152.22 5.79 155.19 7.59 157.29 10.33 C 157.60 12.23 158.28 14.05 159.24 15.72 C 162.54 21.64 164.86 28.04 167.29 34.36 L 165.87 33.41 C 162.23 25.40 156.85 18.37 150.41 12.41 C 150.41 11.63 150.41 10.85 150.41 10.07 C 145.52 6.44 139.98 3.80 135.21 0.00 Z" />
</g>
<g id="#d75362ff">
<path fill="#d75362" opacity="1.00" d=" M 140.02 0.00 L 143.68 0.00 C 143.95 0.47 144.48 1.42 144.74 1.89 C 142.86 2.75 140.99 1.62 140.02 0.00 Z" />
</g>
<g id="#a43d54ff">
<path fill="#a43d54" opacity="1.00" d=" M 147.14 0.00 L 160.17 0.00 C 158.57 2.09 157.14 4.29 155.67 6.47 C 152.38 4.94 149.55 2.69 147.14 0.00 M 150.63 0.95 C 151.77 2.53 153.41 3.60 155.26 4.19 C 155.78 1.08 153.00 0.64 150.63 0.95 Z" />
</g>
<g id="#fe7167ff">
<path fill="#fe7167" opacity="1.00" d=" M 160.17 0.00 L 168.28 0.00 C 167.52 0.94 166.79 1.91 166.11 2.90 C 165.23 4.22 164.39 5.57 163.51 6.89 C 162.50 8.32 161.37 9.67 160.24 11.01 C 158.81 9.40 157.40 7.75 155.67 6.47 C 157.14 4.29 158.57 2.09 160.17 0.00 Z" />
</g>
<g id="#cb4551ff">
<path fill="#cb4551" opacity="1.00" d=" M 168.28 0.00 L 180.00 0.00 L 180.00 2.01 C 175.35 1.77 170.71 2.23 166.11 2.90 C 166.79 1.91 167.52 0.94 168.28 0.00 Z" />
</g>
<g id="#823349ff">
<path fill="#823349" opacity="1.00" d=" M 150.63 0.95 C 153.00 0.64 155.78 1.08 155.26 4.19 C 153.41 3.60 151.77 2.53 150.63 0.95 Z" />
</g>
<g id="#e44759ff">
<path fill="#e44759" opacity="1.00" d=" M 38.58 3.41 C 40.13 2.60 41.79 2.02 43.48 1.55 C 41.01 5.22 36.44 6.32 33.39 9.34 C 30.52 12.17 27.89 15.22 25.16 18.18 C 21.37 22.27 20.22 27.90 18.99 33.15 C 17.50 39.15 13.65 44.43 13.18 50.67 C 12.85 56.94 13.19 63.27 14.83 69.36 C 14.71 71.53 14.57 73.70 14.45 75.88 L 14.40 76.63 L 14.86 77.36 C 15.04 78.68 15.17 80.01 15.27 81.34 C 14.63 81.40 13.35 81.53 12.71 81.60 C 13.69 82.24 14.66 82.87 15.64 83.51 C 14.80 86.54 14.41 89.66 14.59 92.80 L 13.76 92.93 C 12.95 89.87 12.14 86.80 11.15 83.78 C 9.48 78.59 11.08 73.16 11.66 67.92 C 10.40 72.53 9.73 77.28 9.46 82.05 C 8.14 84.10 6.80 86.14 5.39 88.13 C 8.43 78.29 8.22 67.85 10.60 57.87 C 9.93 59.71 9.50 61.69 8.44 63.36 C 6.02 66.01 2.84 67.78 0.00 69.93 L 0.00 67.75 C 4.13 65.63 4.92 60.38 6.21 56.34 C 8.59 45.57 10.41 34.64 14.17 24.22 C 18.79 15.34 27.18 9.20 36.03 5.00 C 36.67 4.60 37.94 3.81 38.58 3.41 Z" />
</g>
<g id="#90334aff">
<path fill="#90334a" opacity="1.00" d=" M 166.11 2.90 C 170.71 2.23 175.35 1.77 180.00 2.01 L 180.00 5.06 C 174.42 4.00 168.86 5.38 163.51 6.89 C 164.39 5.57 165.23 4.22 166.11 2.90 Z" />
</g>
<g id="#702a45ff">
<path fill="#702a45" opacity="1.00" d=" M 20.54 4.55 C 26.30 2.56 32.64 1.72 38.58 3.41 C 37.94 3.81 36.67 4.60 36.03 5.00 L 36.60 3.80 C 32.85 4.35 29.00 4.36 25.30 5.25 C 18.24 7.93 16.94 16.91 10.35 20.21 C 7.09 21.59 3.47 21.54 0.00 21.85 L 0.00 17.88 C 4.42 17.15 9.86 18.64 13.12 14.72 C 16.07 11.71 18.09 7.95 20.54 4.55 Z" />
</g>
<g id="#7a3340ff">
<path fill="#7a3340" opacity="1.00" d=" M 129.59 2.45 C 135.38 3.22 141.69 4.37 145.83 8.89 C 140.06 7.85 134.53 5.60 129.59 2.45 Z" />
</g>
<g id="#d54964ff">
<path fill="#d54964" opacity="1.00" d=" M 146.28 3.74 C 146.80 3.54 147.86 3.14 148.38 2.94 C 148.63 3.19 149.13 3.67 149.38 3.91 C 149.22 6.31 146.77 5.47 146.28 3.74 Z" />
</g>
<g id="#2a1133ff">
<path fill="#2a1133" opacity="1.00" d=" M 25.30 5.25 C 29.00 4.36 32.85 4.35 36.60 3.80 L 36.03 5.00 C 27.18 9.20 18.79 15.34 14.17 24.22 C 14.08 23.70 13.91 22.66 13.83 22.14 C 9.58 24.48 4.71 24.59 0.00 24.20 L 0.00 21.85 C 3.47 21.54 7.09 21.59 10.35 20.21 C 16.94 16.91 18.24 7.93 25.30 5.25 Z" />
</g>
<g id="#503e4eff">
<path fill="#503e4e" opacity="1.00" d=" M 78.97 5.01 C 83.42 3.58 88.17 3.87 92.77 4.09 C 95.22 6.46 98.21 8.10 101.11 9.85 C 104.01 11.57 105.70 14.61 108.20 16.79 C 111.50 17.40 115.06 16.46 118.24 17.69 C 120.56 20.51 121.98 23.95 124.00 26.98 C 126.83 31.18 127.55 36.31 129.78 40.79 C 134.27 51.53 135.28 63.26 137.59 74.57 C 137.23 75.73 136.86 76.89 136.46 78.05 C 134.92 69.94 133.37 61.82 130.91 53.93 C 131.68 54.64 132.44 55.35 133.21 56.07 C 129.93 46.86 126.15 37.75 121.31 29.24 C 120.42 27.53 119.28 25.95 117.85 24.64 C 116.05 23.26 114.20 21.58 111.83 21.37 C 108.65 21.14 105.66 22.50 102.71 23.49 C 105.72 24.22 108.97 24.55 111.57 26.39 C 115.13 28.76 117.70 32.25 119.97 35.80 C 121.93 44.35 125.14 53.01 123.81 61.91 C 122.81 67.16 121.74 72.52 119.20 77.29 C 119.46 71.46 120.87 65.64 119.73 59.81 C 115.90 66.24 114.45 73.67 112.79 80.86 C 111.16 87.92 111.31 95.20 110.76 102.38 C 108.65 99.90 106.34 97.41 105.56 94.15 C 105.50 93.73 105.37 92.90 105.30 92.48 C 103.55 91.21 101.81 89.92 100.19 88.50 C 98.48 83.94 94.09 81.30 91.78 77.12 C 88.10 70.77 85.26 63.91 80.85 57.99 C 79.68 55.93 77.58 53.78 78.31 51.23 C 79.33 47.68 81.07 44.37 81.94 40.77 C 77.65 45.35 76.67 51.81 74.74 57.56 C 74.13 57.10 73.53 56.63 72.92 56.17 C 71.98 59.40 71.73 62.77 72.19 66.10 C 72.31 67.75 72.44 69.40 72.34 71.06 C 71.34 71.70 70.29 72.24 69.24 72.79 C 70.00 72.78 71.51 72.74 72.27 72.72 C 73.71 79.48 74.29 86.38 75.83 93.12 C 74.01 93.00 72.18 92.88 70.36 92.76 C 71.87 89.20 72.41 85.22 70.56 81.67 C 69.94 84.81 70.96 88.85 68.18 91.12 C 66.80 92.48 65.47 93.90 64.20 95.37 C 61.90 90.13 60.26 84.63 58.70 79.13 C 55.98 69.66 57.18 59.73 56.75 50.03 C 56.34 38.66 58.05 27.26 61.50 16.46 C 62.47 13.30 65.43 11.88 68.38 11.07 C 72.02 9.24 75.03 6.25 78.97 5.01 Z" />
</g>
<g id="#481a3bff">
<path fill="#481a3b" opacity="1.00" d=" M 163.51 6.89 C 168.86 5.38 174.42 4.00 180.00 5.06 L 180.00 8.72 C 175.78 8.72 171.04 7.66 167.31 10.19 C 165.06 11.50 164.13 14.01 163.06 16.22 C 162.45 15.76 161.24 14.83 160.63 14.37 C 160.40 14.10 159.93 13.55 159.70 13.28 C 159.83 12.71 160.10 11.58 160.24 11.01 C 161.37 9.67 162.50 8.32 163.51 6.89 Z" />
</g>
<g id="#5a191fff">
<path fill="#5a191f" opacity="1.00" d=" M 49.90 15.62 C 53.55 14.09 56.70 11.66 59.96 9.45 C 60.56 9.51 61.77 9.61 62.37 9.67 C 61.32 10.28 60.29 10.92 59.29 11.60 C 54.62 14.82 51.52 19.70 47.96 24.00 C 44.65 27.45 46.50 32.45 45.73 36.67 C 42.23 39.75 43.54 44.85 41.78 48.75 C 39.01 51.38 36.23 54.01 33.89 57.05 C 33.23 58.09 31.82 57.15 30.88 57.14 C 28.23 56.50 25.70 55.49 23.13 54.59 C 24.85 49.87 26.14 45.03 27.33 40.16 C 28.27 36.22 30.61 32.86 32.86 29.57 C 38.51 24.90 42.84 18.33 49.90 15.62 Z" />
</g>
<g id="#8c3546ff">
<path fill="#8c3546" opacity="1.00" d=" M 62.37 9.67 C 63.96 9.57 65.55 9.44 67.13 9.24 C 67.44 9.70 68.07 10.61 68.38 11.07 C 65.43 11.88 62.47 13.30 61.50 16.46 C 58.05 27.26 56.34 38.66 56.75 50.03 C 57.18 59.73 55.98 69.66 58.70 79.13 C 60.26 84.63 61.90 90.13 64.20 95.37 C 63.09 97.32 60.73 96.76 58.86 96.99 C 57.73 93.89 56.70 90.76 55.44 87.72 C 55.87 92.56 58.80 96.76 58.96 101.66 C 57.61 102.29 56.26 102.92 54.91 103.56 C 55.83 103.57 57.66 103.60 58.58 103.61 C 58.57 105.46 58.56 107.30 58.54 109.15 C 56.69 107.53 54.77 105.92 53.42 103.84 C 54.92 100.24 52.60 96.42 52.36 92.74 C 50.69 79.16 46.86 65.85 47.00 52.09 C 46.75 41.80 46.68 30.50 52.74 21.66 C 54.97 18.34 57.67 15.31 59.29 11.60 C 60.29 10.92 61.32 10.28 62.37 9.67 Z" />
<path fill="#8c3546" opacity="1.00" d=" M 173.18 44.53 C 174.10 46.53 175.36 48.42 175.74 50.62 C 174.82 58.51 175.56 66.48 174.60 74.36 C 174.31 73.96 173.73 73.15 173.44 72.74 C 172.63 79.19 171.15 85.59 171.24 92.12 C 171.74 91.10 172.23 90.08 172.68 89.03 C 173.02 89.59 173.71 90.72 174.05 91.28 C 175.51 94.75 174.51 98.56 174.41 102.19 C 174.39 99.63 174.16 97.08 173.89 94.54 C 168.59 102.15 171.15 111.62 173.41 119.80 C 172.80 120.51 172.20 121.22 171.60 121.93 C 171.43 121.71 171.09 121.27 170.92 121.05 C 168.68 115.38 167.27 109.42 165.97 103.47 C 165.00 95.62 169.95 88.90 170.39 81.22 C 171.12 76.75 171.35 72.22 171.57 67.71 C 171.86 69.17 172.21 70.62 172.56 72.06 C 174.39 62.95 172.61 53.70 173.18 44.53 Z" />
</g>
<g id="#120b2fff">
<path fill="#120b2f" opacity="1.00" d=" M 167.31 10.19 C 171.04 7.66 175.78 8.72 180.00 8.72 L 180.00 51.69 C 179.29 51.86 177.86 52.21 177.14 52.38 C 178.68 64.05 179.45 76.12 176.20 87.58 C 177.46 87.58 178.73 87.59 180.00 87.59 L 180.00 122.79 C 173.34 118.12 174.13 109.32 174.41 102.19 C 174.51 98.56 175.51 94.75 174.05 91.28 C 178.08 78.12 178.06 64.09 175.74 50.62 C 175.36 48.42 174.10 46.53 173.18 44.53 C 171.97 33.61 168.29 22.49 160.63 14.37 C 161.24 14.83 162.45 15.76 163.06 16.22 C 164.13 14.01 165.06 11.50 167.31 10.19 Z" />
</g>
<g id="#e75570ff">
<path fill="#e75570" opacity="1.00" d=" M 159.24 15.72 C 158.28 14.05 157.60 12.23 157.29 10.33 C 158.09 11.31 158.90 12.29 159.70 13.28 C 159.93 13.55 160.40 14.10 160.63 14.37 C 168.29 22.49 171.97 33.61 173.18 44.53 C 172.61 53.70 174.39 62.95 172.56 72.06 C 172.21 70.62 171.86 69.17 171.57 67.71 C 171.61 56.53 171.97 44.77 167.29 34.36 C 164.86 28.04 162.54 21.64 159.24 15.72 Z" />
<path fill="#e75570" opacity="1.00" d=" M 25.18 80.05 C 28.25 79.71 31.46 80.54 32.20 83.91 L 32.78 85.17 C 31.67 84.35 30.52 83.56 29.36 82.81 C 27.95 81.90 26.55 81.00 25.18 80.05 Z" />
</g>
<g id="#e84e67ff">
<path fill="#e84e67" opacity="1.00" d=" M 47.96 24.00 C 51.52 19.70 54.62 14.82 59.29 11.60 C 57.67 15.31 54.97 18.34 52.74 21.66 C 46.68 30.50 46.75 41.80 47.00 52.09 C 45.92 51.35 44.84 50.62 43.77 49.89 C 44.20 45.45 44.90 41.05 45.73 36.67 C 46.50 32.45 44.65 27.45 47.96 24.00 Z" />
<path fill="#e84e67" opacity="1.00" d=" M 43.04 85.91 C 43.35 87.12 43.69 88.32 44.03 89.53 C 43.98 93.77 42.94 98.05 40.03 101.27 C 41.36 96.22 43.45 91.23 43.04 85.91 Z" />
<path fill="#e84e67" opacity="1.00" d=" M 86.52 110.97 C 87.13 111.18 88.34 111.62 88.94 111.84 C 89.33 116.22 88.53 121.93 83.37 122.97 C 82.92 122.64 82.02 121.98 81.57 121.65 C 81.59 121.39 81.64 120.86 81.66 120.59 C 82.77 120.53 83.88 120.49 84.99 120.46 C 86.02 119.48 87.05 118.49 88.08 117.50 L 85.62 117.33 C 86.58 116.10 87.56 114.88 88.51 113.65 C 88.01 112.98 87.02 111.64 86.52 110.97 Z" />
<path fill="#e84e67" opacity="1.00" d=" M 144.91 128.92 C 146.75 127.88 148.01 130.86 146.06 131.56 C 145.77 130.90 145.20 129.58 144.91 128.92 Z" />
</g>
<g id="#e94f67ff">
<path fill="#e94f67" opacity="1.00" d=" M 25.56 24.42 C 28.22 20.61 29.60 15.95 33.07 12.72 C 30.26 19.24 26.10 25.11 23.77 31.84 C 22.18 36.46 20.34 40.99 18.62 45.56 C 15.73 53.16 15.92 61.41 14.83 69.36 C 13.19 63.27 12.85 56.94 13.18 50.67 C 17.44 41.98 20.33 32.61 25.56 24.42 Z" />
</g>
<g id="#361b40ff">
<path fill="#361b40" opacity="1.00" d=" M 148.96 12.26 C 153.42 17.42 158.38 22.29 161.62 28.36 C 164.56 33.68 165.59 39.75 167.94 45.32 C 168.63 50.86 168.14 56.45 168.23 62.02 C 168.29 68.17 167.40 74.33 165.21 80.09 C 162.19 88.22 160.62 97.08 162.33 105.68 C 161.68 106.74 161.03 107.79 160.37 108.85 C 155.83 104.39 156.53 97.68 155.76 91.89 C 155.73 90.56 154.77 89.56 154.10 88.51 C 153.01 94.63 153.15 100.86 152.93 107.04 C 153.19 108.83 151.35 109.50 150.25 110.45 C 149.75 110.05 148.75 109.23 148.25 108.82 C 146.96 100.71 140.80 94.16 139.37 86.01 C 139.19 89.47 138.92 92.94 138.82 96.41 C 136.64 89.28 138.48 81.83 137.59 74.57 C 135.28 63.26 134.27 51.53 129.78 40.79 C 130.81 41.90 131.93 42.94 132.80 44.19 C 139.43 55.30 145.10 66.94 150.16 78.84 C 151.32 73.52 151.68 68.06 152.50 62.69 C 153.57 55.09 152.31 47.39 153.43 39.81 C 155.37 44.13 154.16 49.23 156.57 53.36 C 157.07 47.91 156.47 42.45 156.03 37.02 C 155.51 30.93 154.54 24.71 151.90 19.15 C 150.86 16.86 148.16 15.08 148.96 12.26 Z" />
</g>
<g id="#29162cff">
<path fill="#29162c" opacity="1.00" d=" M 102.71 23.49 C 105.66 22.50 108.65 21.14 111.83 21.37 C 114.20 21.58 116.05 23.26 117.85 24.64 C 115.14 24.27 112.50 23.51 109.85 22.84 C 115.23 27.28 120.06 32.26 124.00 38.03 C 122.76 35.22 121.19 32.41 121.31 29.24 C 126.15 37.75 129.93 46.86 133.21 56.07 C 132.44 55.35 131.68 54.64 130.91 53.93 C 133.37 61.82 134.92 69.94 136.46 78.05 C 136.86 76.89 137.23 75.73 137.59 74.57 C 138.48 81.83 136.64 89.28 138.82 96.41 C 140.16 105.73 141.19 115.17 143.58 124.29 L 145.11 124.00 C 144.90 124.51 144.50 125.52 144.30 126.03 C 144.51 126.99 144.71 127.95 144.91 128.92 C 145.20 129.58 145.77 130.90 146.06 131.56 C 146.70 134.10 148.20 136.22 150.13 137.96 L 149.14 137.96 L 148.11 137.81 C 146.99 137.35 145.88 136.86 144.77 136.36 C 142.26 140.05 139.95 143.90 136.95 147.22 C 139.05 142.16 143.56 138.32 144.45 132.73 C 143.98 131.43 143.51 130.13 143.06 128.83 C 142.68 128.61 141.93 128.16 141.55 127.93 C 141.94 129.05 142.33 130.16 142.73 131.28 C 142.14 131.33 140.97 131.43 140.38 131.48 C 139.41 131.54 138.45 131.59 137.49 131.64 C 135.00 129.28 132.05 127.53 129.09 125.85 C 127.84 129.65 126.62 133.47 126.03 137.44 C 128.74 135.14 129.40 131.55 130.88 128.51 C 131.03 130.36 131.26 132.22 131.13 134.09 C 129.09 136.79 126.25 138.84 124.71 141.93 C 128.37 140.53 131.79 138.45 134.20 135.29 C 135.40 135.11 136.59 134.92 137.80 134.76 C 136.67 136.65 135.49 138.51 134.22 140.31 C 130.78 141.12 127.02 142.50 125.37 145.91 C 125.94 148.28 127.22 150.38 128.31 152.54 C 127.66 153.53 127.02 154.52 126.35 155.49 L 124.82 154.75 C 126.45 152.53 125.60 149.98 124.73 147.65 C 121.86 151.29 120.88 155.88 119.64 160.23 C 119.40 159.80 118.93 158.93 118.69 158.50 C 116.51 161.44 113.22 165.25 109.11 163.58 C 109.91 163.13 111.50 162.23 112.30 161.78 C 117.95 158.27 121.45 151.80 122.03 145.25 C 120.86 146.27 119.70 147.28 118.54 148.32 C 121.09 142.98 123.15 137.34 123.94 131.45 C 126.53 126.60 124.85 121.13 126.08 116.02 C 121.68 107.31 122.15 97.11 123.61 87.74 C 124.38 93.07 124.16 98.47 124.20 103.84 C 124.46 107.84 126.42 111.42 128.27 114.88 C 130.54 119.02 133.23 123.31 137.74 125.30 C 137.75 124.09 137.77 121.68 137.78 120.48 C 138.38 121.06 138.98 121.65 139.57 122.25 C 139.47 123.14 139.25 124.92 139.15 125.81 C 139.91 125.91 141.44 126.12 142.21 126.22 C 140.28 121.51 140.16 116.42 139.54 111.45 C 139.14 114.41 139.37 117.41 139.29 120.39 C 138.97 120.24 138.32 119.93 137.99 119.77 C 137.07 113.51 138.74 107.23 137.76 100.98 C 136.56 93.36 136.90 85.55 134.80 78.07 C 132.66 63.27 129.07 48.00 119.97 35.80 C 117.70 32.25 115.13 28.76 111.57 26.39 C 108.97 24.55 105.72 24.22 102.71 23.49 M 129.78 123.14 C 132.05 126.75 136.39 128.25 140.34 129.15 C 140.14 128.76 139.74 127.97 139.54 127.58 C 136.37 125.94 133.09 124.49 129.78 123.14 Z" />
</g>
<g id="#110b2eff">
<path fill="#110b2e" opacity="1.00" d=" M 0.00 24.20 C 4.71 24.59 9.58 24.48 13.83 22.14 C 13.91 22.66 14.08 23.70 14.17 24.22 C 10.41 34.64 8.59 45.57 6.21 56.34 C 4.92 60.38 4.13 65.63 0.00 67.75 L 0.00 24.20 Z" />
</g>
<g id="#422544ff">
<path fill="#422544" opacity="1.00" d=" M 109.85 22.84 C 112.50 23.51 115.14 24.27 117.85 24.64 C 119.28 25.95 120.42 27.53 121.31 29.24 C 121.19 32.41 122.76 35.22 124.00 38.03 C 120.06 32.26 115.23 27.28 109.85 22.84 Z" />
</g>
<g id="#412736ff">
<path fill="#412736" opacity="1.00" d=" M 24.06 24.97 C 24.44 24.83 25.19 24.55 25.56 24.42 C 20.33 32.61 17.44 41.98 13.18 50.67 C 13.65 44.43 17.50 39.15 18.99 33.15 C 20.65 30.40 22.23 27.61 24.06 24.97 Z" />
<path fill="#412736" opacity="1.00" d=" M 110.26 110.54 C 112.36 115.04 112.62 120.07 113.42 124.90 C 114.38 130.99 114.74 137.18 114.42 143.35 C 113.18 142.21 112.57 140.64 112.70 138.98 C 112.60 135.28 112.75 131.58 112.52 127.88 C 111.43 129.34 110.44 130.87 109.57 132.47 C 109.12 133.09 108.23 134.33 107.78 134.95 C 107.67 132.53 107.58 130.12 107.64 127.70 C 108.00 126.15 108.65 124.69 109.28 123.24 C 111.23 119.28 109.89 114.75 110.26 110.54 Z" />
</g>
<g id="#733044ff">
<path fill="#733044" opacity="1.00" d=" M 165.87 33.41 L 167.29 34.36 C 171.97 44.77 171.61 56.53 171.57 67.71 C 171.35 72.22 171.12 76.75 170.39 81.22 C 170.45 76.71 170.57 72.15 169.54 67.73 C 168.59 76.01 169.71 84.60 166.43 92.50 C 166.01 89.14 166.75 85.58 165.39 82.39 C 163.74 92.59 163.34 103.09 164.71 113.35 C 164.75 113.93 164.81 115.08 164.85 115.66 C 164.67 117.60 164.32 119.52 164.05 121.45 C 162.92 116.26 163.11 110.92 162.33 105.68 C 160.62 97.08 162.19 88.22 165.21 80.09 C 167.40 74.33 168.29 68.17 168.23 62.02 C 168.14 56.45 168.63 50.86 167.94 45.32 C 167.57 41.30 166.92 37.31 165.87 33.41 Z" />
</g>
<g id="#3d2241ff">
<path fill="#3d2241" opacity="1.00" d=" M 119.97 35.80 C 129.07 48.00 132.66 63.27 134.80 78.07 C 136.90 85.55 136.56 93.36 137.76 100.98 C 138.74 107.23 137.07 113.51 137.99 119.77 C 131.51 116.55 128.15 109.57 124.20 103.84 C 124.16 98.47 124.38 93.07 123.61 87.74 C 122.15 97.11 121.68 107.31 126.08 116.02 C 124.85 121.13 126.53 126.60 123.94 131.45 C 121.47 121.03 117.58 110.77 110.76 102.38 C 111.31 95.20 111.16 87.92 112.79 80.86 C 114.45 73.67 115.90 66.24 119.73 59.81 C 120.87 65.64 119.46 71.46 119.20 77.29 C 121.74 72.52 122.81 67.16 123.81 61.91 C 125.14 53.01 121.93 44.35 119.97 35.80 Z" />
</g>
<g id="#301215ff">
<path fill="#301215" opacity="1.00" d=" M 41.78 48.75 C 43.54 44.85 42.23 39.75 45.73 36.67 C 44.90 41.05 44.20 45.45 43.77 49.89 C 42.04 60.39 42.71 71.02 43.69 81.55 C 44.30 86.00 46.45 90.02 47.69 94.30 C 47.68 91.90 47.75 89.50 47.99 87.12 C 49.36 92.83 50.09 98.81 53.42 103.84 C 54.77 105.92 56.69 107.53 58.54 109.15 C 58.56 107.30 58.57 105.46 58.58 103.61 C 57.66 103.60 55.83 103.57 54.91 103.56 C 56.26 102.92 57.61 102.29 58.96 101.66 C 58.80 96.76 55.87 92.56 55.44 87.72 C 56.70 90.76 57.73 93.89 58.86 96.99 C 60.73 96.76 63.09 97.32 64.20 95.37 C 65.47 93.90 66.80 92.48 68.18 91.12 C 70.96 88.85 69.94 84.81 70.56 81.67 C 72.41 85.22 71.87 89.20 70.36 92.76 C 72.18 92.88 74.01 93.00 75.83 93.12 C 74.29 86.38 73.71 79.48 72.27 72.72 C 71.51 72.74 70.00 72.78 69.24 72.79 C 70.29 72.24 71.34 71.70 72.34 71.06 C 72.44 69.40 72.31 67.75 72.19 66.10 C 72.71 65.43 73.22 64.77 73.74 64.10 C 73.93 66.52 73.35 69.20 74.43 71.42 C 77.83 74.14 81.76 76.10 85.49 78.31 C 84.00 72.44 80.09 67.03 80.68 60.76 C 82.04 66.22 84.15 71.46 86.35 76.64 C 88.32 83.06 95.91 84.09 100.19 88.50 C 101.81 89.92 103.55 91.21 105.30 92.48 C 105.37 92.90 105.50 93.73 105.56 94.15 C 100.43 91.14 96.55 85.95 90.74 84.23 C 90.38 84.19 89.66 84.12 89.30 84.09 C 85.03 79.64 79.73 76.21 74.22 73.50 C 75.21 77.62 75.32 81.85 75.54 86.06 C 76.11 89.59 76.23 94.20 80.08 95.81 C 87.73 99.85 93.42 106.63 101.02 110.76 C 100.28 110.96 98.80 111.36 98.06 111.57 C 100.69 112.63 103.42 113.42 106.20 114.01 C 106.36 114.16 106.68 114.45 106.84 114.60 C 107.43 115.17 107.99 115.76 108.55 116.36 C 108.07 116.96 107.59 117.56 107.11 118.15 C 107.26 118.77 107.55 119.99 107.69 120.60 C 106.42 118.86 105.80 116.06 103.31 115.74 C 98.79 114.90 94.44 113.38 90.43 111.10 C 90.66 113.69 91.08 116.30 90.75 118.90 C 89.89 121.49 88.15 123.65 86.74 125.95 C 89.31 125.69 91.87 125.43 94.45 125.32 C 91.28 128.08 86.80 127.62 82.95 126.99 C 79.59 126.12 76.83 123.89 73.82 122.27 C 75.23 121.82 76.65 121.39 77.99 120.77 C 79.19 121.03 80.39 121.31 81.57 121.65 C 82.02 121.98 82.92 122.64 83.37 122.97 C 88.53 121.93 89.33 116.22 88.94 111.84 L 88.80 111.02 C 86.03 109.01 83.13 107.18 80.41 105.10 C 78.02 106.97 77.63 109.98 77.59 112.82 L 77.47 115.01 C 77.04 114.62 76.18 113.84 75.75 113.45 C 75.91 110.50 77.22 107.44 76.47 104.54 C 73.81 102.45 70.17 103.12 67.03 102.70 L 66.64 101.86 C 67.34 101.75 68.73 101.52 69.43 101.40 C 69.56 100.77 69.83 99.51 69.97 98.88 C 67.48 99.69 65.02 100.61 62.57 101.52 C 62.19 101.66 61.43 101.94 61.05 102.08 C 61.44 103.01 61.85 103.94 62.26 104.87 C 61.60 104.63 60.28 104.15 59.62 103.91 C 59.66 105.60 59.56 107.32 59.88 108.99 C 60.70 111.38 62.43 113.54 62.26 116.19 C 58.76 110.12 53.26 105.69 48.76 100.42 C 46.88 96.94 45.77 93.09 44.03 89.53 C 43.69 88.32 43.35 87.12 43.04 85.91 C 41.29 78.41 41.03 70.65 40.94 62.99 C 38.32 61.27 35.14 59.33 32.35 61.92 C 29.46 59.29 25.43 58.51 22.32 56.20 C 21.03 55.34 19.77 54.43 18.53 53.51 C 20.09 53.76 21.63 54.11 23.13 54.59 C 25.70 55.49 28.23 56.50 30.88 57.14 C 31.82 57.15 33.23 58.09 33.89 57.05 C 36.23 54.01 39.01 51.38 41.78 48.75 M 36.26 58.87 C 37.57 60.06 39.31 60.54 40.91 61.19 C 41.25 57.83 41.56 54.47 41.72 51.09 C 39.38 53.29 37.90 56.15 36.26 58.87 M 64.79 96.89 C 68.62 97.19 72.48 97.59 76.05 99.09 L 76.07 99.90 C 76.52 99.34 76.97 98.78 77.42 98.22 C 78.45 102.51 83.29 103.32 86.28 105.82 C 88.60 107.28 90.75 110.52 93.82 108.93 C 90.62 103.99 85.01 101.88 80.58 98.35 C 79.19 97.30 77.58 96.62 76.00 95.94 L 75.98 95.05 C 72.13 94.11 67.76 93.69 64.79 96.89 M 59.39 97.63 C 59.50 98.29 59.70 99.61 59.80 100.27 C 61.61 100.23 63.41 100.03 65.21 99.85 C 64.92 96.92 61.37 98.05 59.39 97.63 Z" />
<path fill="#301215" opacity="1.00" d=" M 40.74 170.70 C 44.93 171.33 49.16 171.29 53.38 171.46 L 54.65 172.44 C 54.23 172.56 53.38 172.81 52.95 172.93 C 52.62 173.29 51.94 174.03 51.61 174.40 C 54.19 174.61 56.76 174.98 59.32 175.38 C 60.42 176.60 61.53 177.81 62.54 179.11 L 63.13 180.00 L 52.08 180.00 C 55.01 179.20 58.05 179.33 61.05 179.38 C 60.34 177.64 59.09 176.02 57.09 175.80 C 54.70 174.84 53.11 177.19 51.44 178.44 C 51.02 176.48 50.59 174.53 50.17 172.57 C 46.89 173.39 43.28 173.22 40.74 170.70 Z" />
</g>
<g id="#4a2c3fff">
<path fill="#4a2c3f" opacity="1.00" d=" M 74.74 57.56 C 76.67 51.81 77.65 45.35 81.94 40.77 C 81.07 44.37 79.33 47.68 78.31 51.23 C 77.58 53.78 79.68 55.93 80.85 57.99 C 80.81 58.68 80.72 60.07 80.68 60.76 C 80.09 67.03 84.00 72.44 85.49 78.31 C 81.76 76.10 77.83 74.14 74.43 71.42 C 73.35 69.20 73.93 66.52 73.74 64.10 C 73.22 64.77 72.71 65.43 72.19 66.10 C 71.73 62.77 71.98 59.40 72.92 56.17 C 73.53 56.63 74.13 57.10 74.74 57.56 Z" />
</g>
<g id="#e44758ff">
<path fill="#e44758" opacity="1.00" d=" M 43.77 49.89 C 44.84 50.62 45.92 51.35 47.00 52.09 C 46.86 65.85 50.69 79.16 52.36 92.74 C 52.60 96.42 54.92 100.24 53.42 103.84 C 50.09 98.81 49.36 92.83 47.99 87.12 C 47.75 89.50 47.68 91.90 47.69 94.30 C 46.45 90.02 44.30 86.00 43.69 81.55 C 42.71 71.02 42.04 60.39 43.77 49.89 Z" />
</g>
<g id="#4c2a3fff">
<path fill="#4c2a3f" opacity="1.00" d=" M 36.26 58.87 C 37.90 56.15 39.38 53.29 41.72 51.09 C 41.56 54.47 41.25 57.83 40.91 61.19 C 39.31 60.54 37.57 60.06 36.26 58.87 Z" />
</g>
<g id="#ec546eff">
<path fill="#ec546e" opacity="1.00" d=" M 174.60 74.36 C 175.56 66.48 174.82 58.51 175.74 50.62 C 178.06 64.09 178.08 78.12 174.05 91.28 C 173.71 90.72 173.02 89.59 172.68 89.03 C 173.55 84.18 174.06 79.26 174.60 74.36 Z" />
<path fill="#ec546e" opacity="1.00" d=" M 30.42 75.61 C 31.70 74.35 33.00 73.09 34.32 71.86 C 34.45 73.86 34.59 75.87 34.53 77.88 C 33.21 77.04 31.83 76.29 30.42 75.61 Z" />
</g>
<g id="#2b0d9cff">
<path fill="#2b0d9c" opacity="1.00" d=" M 177.14 52.38 C 177.86 52.21 179.29 51.86 180.00 51.69 L 180.00 87.59 C 178.73 87.59 177.46 87.58 176.20 87.58 C 179.45 76.12 178.68 64.05 177.14 52.38 Z" />
</g>
<g id="#59191eff">
<path fill="#59191e" opacity="1.00" d=" M 22.32 56.20 C 25.43 58.51 29.46 59.29 32.35 61.92 C 32.04 62.37 31.42 63.27 31.12 63.72 C 29.62 65.10 28.04 66.38 26.47 67.67 C 25.60 73.37 21.07 77.01 17.78 81.34 L 16.63 81.24 C 20.72 73.51 20.39 64.53 22.32 56.20 Z" />
</g>
<g id="#110b2fff">
<path fill="#110b2f" opacity="1.00" d=" M 8.44 63.36 C 9.50 61.69 9.93 59.71 10.60 57.87 C 8.22 67.85 8.43 78.29 5.39 88.13 C 6.80 86.14 8.14 84.10 9.46 82.05 C 9.73 77.28 10.40 72.53 11.66 67.92 C 11.08 73.16 9.48 78.59 11.15 83.78 C 12.14 86.80 12.95 89.87 13.76 92.93 L 14.59 92.80 C 15.17 92.69 16.33 92.47 16.91 92.36 C 16.76 93.20 16.62 94.05 16.49 94.89 L 15.08 94.16 C 16.59 97.97 16.55 102.06 16.77 106.08 L 17.10 107.41 C 17.10 109.96 14.77 113.16 17.66 114.84 L 16.39 114.08 C 16.78 120.86 16.28 127.74 17.69 134.44 C 17.27 142.84 17.33 151.54 20.45 159.48 C 20.57 158.89 20.81 157.70 20.93 157.10 C 21.98 151.19 22.68 145.21 22.95 139.21 C 24.93 144.57 27.42 149.70 30.02 154.77 C 31.22 160.90 35.76 165.39 39.75 169.88 C 40.00 170.08 40.50 170.50 40.74 170.70 C 43.28 173.22 46.89 173.39 50.17 172.57 C 50.59 174.53 51.02 176.48 51.44 178.44 C 50.99 178.83 50.09 179.61 49.64 180.00 L 0.00 180.00 L 0.00 69.93 C 2.84 67.78 6.02 66.01 8.44 63.36 Z" />
</g>
<g id="#8b3645ff">
<path fill="#8b3645" opacity="1.00" d=" M 80.85 57.99 C 85.26 63.91 88.10 70.77 91.78 77.12 C 94.09 81.30 98.48 83.94 100.19 88.50 C 95.91 84.09 88.32 83.06 86.35 76.64 C 84.15 71.46 82.04 66.22 80.68 60.76 C 80.72 60.07 80.81 58.68 80.85 57.99 Z" />
</g>
<g id="#4b2b40ff">
<path fill="#4b2b40" opacity="1.00" d=" M 32.35 61.92 C 35.14 59.33 38.32 61.27 40.94 62.99 C 41.03 70.65 41.29 78.41 43.04 85.91 C 43.45 91.23 41.36 96.22 40.03 101.27 C 42.94 98.05 43.98 93.77 44.03 89.53 C 45.77 93.09 46.88 96.94 48.76 100.42 C 53.26 105.69 58.76 110.12 62.26 116.19 C 62.43 113.54 60.70 111.38 59.88 108.99 C 59.56 107.32 59.66 105.60 59.62 103.91 C 60.28 104.15 61.60 104.63 62.26 104.87 C 64.14 108.16 67.37 110.21 70.57 112.03 C 72.63 113.72 74.70 115.42 76.99 116.80 L 75.84 117.08 C 76.54 118.32 77.28 119.54 77.99 120.77 C 76.65 121.39 75.23 121.82 73.82 122.27 C 76.83 123.89 79.59 126.12 82.95 126.99 C 86.80 127.62 91.28 128.08 94.45 125.32 C 91.87 125.43 89.31 125.69 86.74 125.95 C 88.15 123.65 89.89 121.49 90.75 118.90 C 91.08 116.30 90.66 113.69 90.43 111.10 C 94.44 113.38 98.79 114.90 103.31 115.74 C 105.80 116.06 106.42 118.86 107.69 120.60 C 108.20 121.49 108.74 122.37 109.28 123.24 C 108.65 124.69 108.00 126.15 107.64 127.70 C 106.62 131.89 105.66 136.12 105.33 140.43 C 104.25 145.38 102.56 150.16 101.03 154.98 C 99.73 159.65 94.82 161.85 90.87 163.90 C 78.80 168.09 66.07 170.28 53.38 171.46 C 49.16 171.29 44.93 171.33 40.74 170.70 C 40.50 170.50 40.00 170.08 39.75 169.88 C 40.34 169.88 41.52 169.90 42.11 169.91 C 40.29 168.44 38.00 167.17 37.52 164.68 C 36.56 161.21 34.73 158.11 33.12 154.93 C 29.34 146.14 27.77 136.55 27.31 127.03 C 27.05 123.28 27.84 119.33 26.29 115.78 C 25.97 114.74 25.31 113.68 25.79 112.58 C 26.50 114.86 27.55 117.05 29.37 118.67 C 29.36 116.17 29.30 113.67 29.34 111.17 C 31.09 109.45 32.85 107.74 34.70 106.13 C 36.24 104.70 38.26 103.40 38.59 101.15 C 38.62 100.33 38.55 99.51 38.37 98.71 C 38.34 95.45 39.56 91.91 38.16 88.83 C 36.39 87.58 34.47 86.54 32.78 85.17 L 32.20 83.91 C 32.97 84.25 34.50 84.91 35.26 85.25 C 33.84 82.93 33.03 80.37 34.53 77.88 C 34.59 75.87 34.45 73.86 34.32 71.86 C 33.00 73.09 31.70 74.35 30.42 75.61 C 29.28 75.17 28.12 74.78 26.96 74.38 C 27.96 70.69 29.48 67.17 31.12 63.72 C 31.42 63.27 32.04 62.37 32.35 61.92 M 30.55 119.82 C 33.82 122.17 37.27 124.27 40.71 126.37 C 41.97 127.62 42.10 129.59 42.78 131.18 C 42.75 128.81 43.45 125.54 40.72 124.35 C 37.42 122.68 34.42 119.82 30.55 119.82 M 37.76 144.08 C 39.03 147.11 42.39 148.23 45.05 149.74 C 49.44 151.96 53.95 155.09 59.16 153.80 C 56.98 152.73 54.63 152.11 52.33 151.38 C 47.31 149.29 42.78 146.17 37.76 144.08 Z" />
<path fill="#4b2b40" opacity="1.00" d=" M 74.22 73.50 C 79.73 76.21 85.03 79.64 89.30 84.09 C 89.66 84.12 90.38 84.19 90.74 84.23 C 93.78 90.10 97.75 95.43 100.66 101.38 C 102.83 105.45 104.16 109.89 106.20 114.01 C 103.42 113.42 100.69 112.63 98.06 111.57 C 98.80 111.36 100.28 110.96 101.02 110.76 C 93.42 106.63 87.73 99.85 80.08 95.81 C 76.23 94.20 76.11 89.59 75.54 86.06 C 75.32 81.85 75.21 77.62 74.22 73.50 Z" />
</g>
<g id="#2f0707ff">
<path fill="#2f0707" opacity="1.00" d=" M 26.47 67.67 C 28.04 66.38 29.62 65.10 31.12 63.72 C 29.48 67.17 27.96 70.69 26.96 74.38 C 28.12 74.78 29.28 75.17 30.42 75.61 C 31.83 76.29 33.21 77.04 34.53 77.88 C 33.03 80.37 33.84 82.93 35.26 85.25 C 34.50 84.91 32.97 84.25 32.20 83.91 C 31.46 80.54 28.25 79.71 25.18 80.05 C 26.55 81.00 27.95 81.90 29.36 82.81 C 29.04 83.31 28.40 84.31 28.08 84.81 C 26.67 83.61 25.26 82.41 23.82 81.25 C 23.67 81.66 23.37 82.49 23.21 82.90 C 21.40 82.38 19.60 81.83 17.78 81.34 C 21.07 77.01 25.60 73.37 26.47 67.67 M 25.00 76.55 C 26.63 77.97 28.54 78.99 30.75 79.11 C 29.89 76.57 27.18 76.66 25.00 76.55 Z" />
</g>
<g id="#411c26ff">
<path fill="#411c26" opacity="1.00" d=" M 169.54 67.73 C 170.57 72.15 170.45 76.71 170.39 81.22 C 169.95 88.90 165.00 95.62 165.97 103.47 C 164.96 106.66 164.52 110.00 164.71 113.35 C 163.34 103.09 163.74 92.59 165.39 82.39 C 166.75 85.58 166.01 89.14 166.43 92.50 C 169.71 84.60 168.59 76.01 169.54 67.73 Z" />
</g>
<g id="#612832ff">
<path fill="#612832" opacity="1.00" d=" M 173.44 72.74 C 173.73 73.15 174.31 73.96 174.60 74.36 C 174.06 79.26 173.55 84.18 172.68 89.03 C 172.23 90.08 171.74 91.10 171.24 92.12 C 171.15 85.59 172.63 79.19 173.44 72.74 Z" />
</g>
<g id="#5a1e27ff">
<path fill="#5a1e27" opacity="1.00" d=" M 14.45 75.88 C 16.46 74.51 17.47 77.88 14.86 77.36 L 14.40 76.63 L 14.45 75.88 Z" />
</g>
<g id="#ad485eff">
<path fill="#ad485e" opacity="1.00" d=" M 25.00 76.55 C 27.18 76.66 29.89 76.57 30.75 79.11 C 28.54 78.99 26.63 77.97 25.00 76.55 Z" />
<path fill="#ad485e" opacity="1.00" d=" M 119.64 160.23 C 120.88 155.88 121.86 151.29 124.73 147.65 C 125.60 149.98 126.45 152.53 124.82 154.75 C 123.09 158.13 121.62 161.66 119.36 164.73 C 119.27 163.22 119.31 161.70 119.64 160.23 Z" />
</g>
<g id="#571c22ff">
<path fill="#571c22" opacity="1.00" d=" M 12.71 81.60 C 13.35 81.53 14.63 81.40 15.27 81.34 C 15.61 81.31 16.29 81.27 16.63 81.24 L 17.78 81.34 C 19.60 81.83 21.40 82.38 23.21 82.90 C 22.64 88.14 22.44 93.51 20.57 98.51 C 18.35 103.95 19.61 109.93 18.96 115.62 L 17.66 114.84 C 14.77 113.16 17.10 109.96 17.10 107.41 C 17.69 104.01 17.76 100.54 18.46 97.15 C 19.30 94.08 20.57 91.14 21.37 88.05 C 20.84 86.15 20.33 84.24 19.83 82.33 C 18.47 85.55 17.42 88.90 16.91 92.36 C 16.33 92.47 15.17 92.69 14.59 92.80 C 14.41 89.66 14.80 86.54 15.64 83.51 C 14.66 82.87 13.69 82.24 12.71 81.60 Z" />
</g>
<g id="#e34857ff">
<path fill="#e34857" opacity="1.00" d=" M 23.21 82.90 C 23.37 82.49 23.67 81.66 23.82 81.25 C 25.26 82.41 26.67 83.61 28.08 84.81 C 28.47 85.15 29.25 85.82 29.65 86.15 C 29.14 87.86 28.69 89.60 28.70 91.39 C 28.69 91.61 28.68 92.05 28.67 92.27 C 27.56 91.31 26.39 90.42 25.21 89.54 C 25.30 92.73 24.90 96.30 26.96 99.01 C 29.09 101.38 31.97 102.82 34.46 104.75 C 32.81 104.54 31.16 104.33 29.51 104.12 C 29.01 106.82 28.63 109.66 26.98 111.96 L 25.79 112.58 C 25.31 113.68 25.97 114.74 26.29 115.78 C 27.84 119.33 27.05 123.28 27.31 127.03 C 27.77 136.55 29.34 146.14 33.12 154.93 C 34.73 158.11 36.56 161.21 37.52 164.68 C 38.00 167.17 40.29 168.44 42.11 169.91 C 41.52 169.90 40.34 169.88 39.75 169.88 C 35.76 165.39 31.22 160.90 30.02 154.77 C 27.42 149.70 24.93 144.57 22.95 139.21 C 22.68 145.21 21.98 151.19 20.93 157.10 C 20.76 153.91 20.01 150.80 19.42 147.67 C 18.57 143.29 19.20 138.70 17.69 134.44 C 16.28 127.74 16.78 120.86 16.39 114.08 L 17.66 114.84 L 18.96 115.62 C 19.61 109.93 18.35 103.95 20.57 98.51 C 22.44 93.51 22.64 88.14 23.21 82.90 Z" />
</g>
<g id="#e84f69ff">
<path fill="#e84f69" opacity="1.00" d=" M 16.91 92.36 C 17.42 88.90 18.47 85.55 19.83 82.33 C 20.33 84.24 20.84 86.15 21.37 88.05 C 20.57 91.14 19.30 94.08 18.46 97.15 C 17.76 100.54 17.69 104.01 17.10 107.41 L 16.77 106.08 C 16.55 102.06 16.59 97.97 15.08 94.16 L 16.49 94.89 C 16.62 94.05 16.76 93.20 16.91 92.36 Z" />
</g>
<g id="#230706ff">
<path fill="#230706" opacity="1.00" d=" M 29.36 82.81 C 30.52 83.56 31.67 84.35 32.78 85.17 C 34.47 86.54 36.39 87.58 38.16 88.83 C 39.56 91.91 38.34 95.45 38.37 98.71 C 36.93 99.55 35.78 101.00 35.84 102.74 C 36.87 102.39 37.78 101.86 38.59 101.15 C 38.26 103.40 36.24 104.70 34.70 106.13 L 34.46 104.75 C 31.97 102.82 29.09 101.38 26.96 99.01 C 27.64 99.24 29.01 99.70 29.69 99.94 C 29.29 98.40 28.89 96.88 28.47 95.35 C 28.71 95.30 29.19 95.19 29.43 95.13 C 30.39 97.21 31.29 99.33 31.95 101.52 C 33.09 101.56 34.23 101.60 35.38 101.64 C 35.51 100.51 35.64 99.39 35.78 98.26 C 35.84 97.71 35.98 96.63 36.05 96.08 C 36.28 94.74 35.94 93.55 35.04 92.50 C 33.95 90.89 32.91 89.25 31.86 87.61 C 30.78 88.85 29.70 90.09 28.70 91.39 C 28.69 89.60 29.14 87.86 29.65 86.15 C 29.25 85.82 28.47 85.15 28.08 84.81 C 28.40 84.31 29.04 83.31 29.36 82.81 Z" />
</g>
<g id="#38144dff">
<path fill="#38144d" opacity="1.00" d=" M 138.82 96.41 C 138.92 92.94 139.19 89.47 139.37 86.01 C 140.80 94.16 146.96 100.71 148.25 108.82 C 148.08 111.85 148.68 114.82 149.64 117.68 C 148.46 117.43 147.28 117.19 146.11 116.96 C 146.61 117.75 147.11 118.55 147.61 119.35 C 146.27 121.00 144.93 122.64 143.58 124.29 C 141.19 115.17 140.16 105.73 138.82 96.41 Z" />
</g>
<g id="#561a1fff">
<path fill="#561a1f" opacity="1.00" d=" M 28.70 91.39 C 29.70 90.09 30.78 88.85 31.86 87.61 C 32.91 89.25 33.95 90.89 35.04 92.50 C 32.94 93.24 33.75 96.82 36.05 96.08 C 35.98 96.63 35.84 97.71 35.78 98.26 C 34.80 99.03 33.81 99.78 32.80 100.53 C 32.56 97.30 31.03 94.44 28.67 92.27 C 28.68 92.05 28.69 91.61 28.70 91.39 Z" />
</g>
<g id="#37144dff">
<path fill="#37144d" opacity="1.00" d=" M 154.10 88.51 C 154.77 89.56 155.73 90.56 155.76 91.89 C 156.53 97.68 155.83 104.39 160.37 108.85 C 161.03 107.79 161.68 106.74 162.33 105.68 C 163.11 110.92 162.92 116.26 164.05 121.45 C 164.34 124.42 164.64 127.40 165.11 130.35 C 161.61 128.94 158.44 126.89 155.41 124.67 C 155.18 124.73 154.72 124.85 154.48 124.91 L 153.49 125.34 C 153.31 124.84 152.94 123.84 152.75 123.34 C 152.68 121.41 152.39 119.42 152.84 117.52 C 153.88 115.21 155.28 113.08 156.30 110.75 C 154.24 112.12 152.99 114.64 150.69 115.57 C 150.40 113.88 150.33 112.16 150.25 110.45 C 151.35 109.50 153.19 108.83 152.93 107.04 C 153.15 100.86 153.01 94.63 154.10 88.51 Z" />
</g>
<g id="#f47d8bff">
<path fill="#f47d8b" opacity="1.00" d=" M 25.21 89.54 C 26.39 90.42 27.56 91.31 28.67 92.27 C 31.03 94.44 32.56 97.30 32.80 100.53 C 33.81 99.78 34.80 99.03 35.78 98.26 C 35.64 99.39 35.51 100.51 35.38 101.64 C 34.23 101.60 33.09 101.56 31.95 101.52 C 31.29 99.33 30.39 97.21 29.43 95.13 C 29.19 95.19 28.71 95.30 28.47 95.35 C 28.89 96.88 29.29 98.40 29.69 99.94 C 29.01 99.70 27.64 99.24 26.96 99.01 C 24.90 96.30 25.30 92.73 25.21 89.54 Z" />
</g>
<g id="#9c3144ff">
<path fill="#9c3144" opacity="1.00" d=" M 36.05 96.08 C 33.75 96.82 32.94 93.24 35.04 92.50 C 35.94 93.55 36.28 94.74 36.05 96.08 Z" />
</g>
<g id="#523e4fff">
<path fill="#523e4f" opacity="1.00" d=" M 64.79 96.89 C 67.76 93.69 72.13 94.11 75.98 95.05 L 76.00 95.94 C 76.01 96.73 76.04 98.30 76.05 99.09 C 72.48 97.59 68.62 97.19 64.79 96.89 Z" />
</g>
<g id="#e8556bff">
<path fill="#e8556b" opacity="1.00" d=" M 173.41 119.80 C 171.15 111.62 168.59 102.15 173.89 94.54 C 174.16 97.08 174.39 99.63 174.41 102.19 C 174.13 109.32 173.34 118.12 180.00 122.79 L 180.00 125.34 C 176.81 125.38 173.72 124.41 171.60 121.93 C 172.20 121.22 172.80 120.51 173.41 119.80 Z" />
<path fill="#e8556b" opacity="1.00" d=" M 138.77 147.72 C 142.39 145.34 143.81 141.16 145.76 137.52 C 146.35 137.59 147.52 137.74 148.11 137.81 L 149.14 137.96 C 145.62 144.00 140.40 148.74 135.24 153.35 C 135.98 151.22 136.74 148.97 138.77 147.72 Z" />
<path fill="#e8556b" opacity="1.00" d=" M 127.32 166.77 C 128.21 162.05 128.60 157.16 130.70 152.77 C 130.82 154.26 130.91 155.75 130.97 157.25 C 130.05 160.73 129.21 164.25 128.26 167.73 C 128.03 167.49 127.56 167.01 127.32 166.77 Z" />
</g>
<g id="#4c2c3dff">
<path fill="#4c2c3d" opacity="1.00" d=" M 76.00 95.94 C 77.58 96.62 79.19 97.30 80.58 98.35 C 85.01 101.88 90.62 103.99 93.82 108.93 C 90.75 110.52 88.60 107.28 86.28 105.82 C 83.29 103.32 78.45 102.51 77.42 98.22 C 76.97 98.78 76.52 99.34 76.07 99.90 L 76.05 99.09 C 76.04 98.30 76.01 96.73 76.00 95.94 Z" />
</g>
<g id="#7f2e3dff">
<path fill="#7f2e3d" opacity="1.00" d=" M 59.39 97.63 C 61.37 98.05 64.92 96.92 65.21 99.85 C 63.41 100.03 61.61 100.23 59.80 100.27 C 59.70 99.61 59.50 98.29 59.39 97.63 Z" />
</g>
<g id="#8d434fff">
<path fill="#8d434f" opacity="1.00" d=" M 35.84 102.74 C 35.78 101.00 36.93 99.55 38.37 98.71 C 38.55 99.51 38.62 100.33 38.59 101.15 C 37.78 101.86 36.87 102.39 35.84 102.74 Z" />
</g>
<g id="#e9536fff">
<path fill="#e9536f" opacity="1.00" d=" M 62.57 101.52 C 65.02 100.61 67.48 99.69 69.97 98.88 C 69.83 99.51 69.56 100.77 69.43 101.40 C 68.73 101.52 67.34 101.75 66.64 101.86 C 65.28 101.80 63.92 101.67 62.57 101.52 Z" />
<path fill="#e9536f" opacity="1.00" d=" M 164.05 121.45 C 164.32 119.52 164.67 117.60 164.85 115.66 C 165.11 123.10 166.03 131.16 170.87 137.15 C 173.09 139.97 176.83 139.66 180.00 139.16 L 180.00 139.52 C 177.56 140.79 174.84 141.76 172.05 141.37 C 167.88 141.08 164.63 138.15 161.60 135.57 C 163.10 135.66 164.59 135.76 166.09 135.86 C 165.83 134.55 165.57 133.24 165.34 131.92 C 165.29 131.53 165.17 130.75 165.11 130.35 C 164.64 127.40 164.34 124.42 164.05 121.45 Z" />
</g>
<g id="#8c3446ff">
<path fill="#8c3446" opacity="1.00" d=" M 61.05 102.08 C 61.43 101.94 62.19 101.66 62.57 101.52 C 63.92 101.67 65.28 101.80 66.64 101.86 L 67.03 102.70 C 68.04 105.03 68.92 107.41 69.77 109.80 C 69.97 110.36 70.37 111.48 70.57 112.03 C 67.37 110.21 64.14 108.16 62.26 104.87 C 61.85 103.94 61.44 103.01 61.05 102.08 Z" />
</g>
<g id="#503d4eff">
<path fill="#503d4e" opacity="1.00" d=" M 67.03 102.70 C 70.17 103.12 73.81 102.45 76.47 104.54 C 77.22 107.44 75.91 110.50 75.75 113.45 C 73.88 112.04 71.84 110.88 69.77 109.80 C 68.92 107.41 68.04 105.03 67.03 102.70 Z" />
</g>
<g id="#4c2a3dff">
<path fill="#4c2a3d" opacity="1.00" d=" M 29.51 104.12 C 31.16 104.33 32.81 104.54 34.46 104.75 L 34.70 106.13 C 32.85 107.74 31.09 109.45 29.34 111.17 C 28.75 111.37 27.57 111.76 26.98 111.96 C 28.63 109.66 29.01 106.82 29.51 104.12 Z" />
</g>
<g id="#823245ff">
<path fill="#823245" opacity="1.00" d=" M 124.20 103.84 C 128.15 109.57 131.51 116.55 137.99 119.77 C 138.32 119.93 138.97 120.24 139.29 120.39 C 139.37 117.41 139.14 114.41 139.54 111.45 C 140.16 116.42 140.28 121.51 142.21 126.22 C 141.44 126.12 139.91 125.91 139.15 125.81 C 139.25 124.92 139.47 123.14 139.57 122.25 C 138.98 121.65 138.38 121.06 137.78 120.48 C 137.77 121.68 137.75 124.09 137.74 125.30 C 133.23 123.31 130.54 119.02 128.27 114.88 C 126.42 111.42 124.46 107.84 124.20 103.84 Z" />
</g>
<g id="#100b2bff">
<path fill="#100b2b" opacity="1.00" d=" M 164.71 113.35 C 164.52 110.00 164.96 106.66 165.97 103.47 C 167.27 109.42 168.68 115.38 170.92 121.05 C 171.09 121.27 171.43 121.71 171.60 121.93 C 173.72 124.41 176.81 125.38 180.00 125.34 L 180.00 139.16 C 176.83 139.66 173.09 139.97 170.87 137.15 C 166.03 131.16 165.11 123.10 164.85 115.66 C 164.81 115.08 164.75 113.93 164.71 113.35 Z" />
<path fill="#100b2b" opacity="1.00" d=" M 153.49 125.34 L 154.48 124.91 C 155.33 126.45 156.17 128.00 157.09 129.51 C 158.38 131.67 159.84 133.75 161.60 135.57 C 164.63 138.15 167.88 141.08 172.05 141.37 C 174.84 141.76 177.56 140.79 180.00 139.52 L 180.00 180.00 L 146.54 180.00 C 145.13 178.66 143.81 177.23 142.36 175.95 C 139.16 172.61 134.74 171.05 130.36 169.99 C 130.62 164.33 132.04 158.84 134.95 153.96 L 135.24 153.35 C 140.40 148.74 145.62 144.00 149.14 137.96 L 150.13 137.96 C 151.09 137.75 152.05 137.52 153.01 137.28 C 155.04 138.63 157.05 140.00 159.10 141.32 C 157.73 139.12 156.30 136.95 155.08 134.68 C 154.07 132.41 153.58 129.96 153.56 127.49 C 153.54 126.95 153.51 125.88 153.49 125.34 Z" />
</g>
<g id="#3f150bff">
<path fill="#3f150b" opacity="1.00" d=" M 77.59 112.82 C 77.63 109.98 78.02 106.97 80.41 105.10 C 83.13 107.18 86.03 109.01 88.80 111.02 L 88.94 111.84 C 88.34 111.62 87.13 111.18 86.52 110.97 C 87.02 111.64 88.01 112.98 88.51 113.65 C 87.56 114.88 86.58 116.10 85.62 117.33 L 88.08 117.50 C 87.05 118.49 86.02 119.48 84.99 120.46 C 83.88 120.49 82.77 120.53 81.66 120.59 C 81.64 120.86 81.59 121.39 81.57 121.65 C 80.39 121.31 79.19 121.03 77.99 120.77 C 77.28 119.54 76.54 118.32 75.84 117.08 L 76.99 116.80 C 78.83 117.40 80.68 118.01 82.53 118.62 C 82.52 118.09 82.51 117.04 82.51 116.52 C 80.90 115.24 79.28 113.99 77.59 112.82 Z" />
</g>
<g id="#2f1542ff">
<path fill="#2f1542" opacity="1.00" d=" M 148.25 108.82 C 148.75 109.23 149.75 110.05 150.25 110.45 C 150.33 112.16 150.40 113.88 150.69 115.57 C 152.99 114.64 154.24 112.12 156.30 110.75 C 155.28 113.08 153.88 115.21 152.84 117.52 C 152.39 119.42 152.68 121.41 152.75 123.34 C 152.94 123.84 153.31 124.84 153.49 125.34 C 153.51 125.88 153.54 126.95 153.56 127.49 C 150.50 128.20 148.58 125.75 146.87 123.64 C 146.43 123.73 145.55 123.91 145.11 124.00 L 143.58 124.29 C 144.93 122.64 146.27 121.00 147.61 119.35 C 147.11 118.55 146.61 117.75 146.11 116.96 C 147.28 117.19 148.46 117.43 149.64 117.68 C 148.68 114.82 148.08 111.85 148.25 108.82 Z" />
</g>
<g id="#f65d73ff">
<path fill="#f65d73" opacity="1.00" d=" M 69.77 109.80 C 71.84 110.88 73.88 112.04 75.75 113.45 C 76.18 113.84 77.04 114.62 77.47 115.01 L 77.59 112.82 C 79.28 113.99 80.90 115.24 82.51 116.52 C 82.51 117.04 82.52 118.09 82.53 118.62 C 80.68 118.01 78.83 117.40 76.99 116.80 C 74.70 115.42 72.63 113.72 70.57 112.03 C 70.37 111.48 69.97 110.36 69.77 109.80 Z" />
<path fill="#f65d73" opacity="1.00" d=" M 17.69 134.44 C 19.20 138.70 18.57 143.29 19.42 147.67 C 20.01 150.80 20.76 153.91 20.93 157.10 C 20.81 157.70 20.57 158.89 20.45 159.48 C 17.33 151.54 17.27 142.84 17.69 134.44 Z" />
<path fill="#f65d73" opacity="1.00" d=" M 52.95 172.93 C 53.38 172.81 54.23 172.56 54.65 172.44 C 57.09 172.53 59.52 172.51 61.95 172.44 C 61.05 173.40 60.18 174.38 59.32 175.38 C 56.76 174.98 54.19 174.61 51.61 174.40 C 51.94 174.03 52.62 173.29 52.95 172.93 Z" />
</g>
<g id="#e24b66ff">
<path fill="#e24b66" opacity="1.00" d=" M 26.98 111.96 C 27.57 111.76 28.75 111.37 29.34 111.17 C 29.30 113.67 29.36 116.17 29.37 118.67 C 27.55 117.05 26.50 114.86 25.79 112.58 L 26.98 111.96 Z" />
</g>
<g id="#361b25ff">
<path fill="#361b25" opacity="1.00" d=" M 30.55 119.82 C 34.42 119.82 37.42 122.68 40.72 124.35 C 43.45 125.54 42.75 128.81 42.78 131.18 C 42.10 129.59 41.97 127.62 40.71 126.37 C 37.27 124.27 33.82 122.17 30.55 119.82 Z" />
</g>
<g id="#4f2136ff">
<path fill="#4f2136" opacity="1.00" d=" M 129.78 123.14 C 133.09 124.49 136.37 125.94 139.54 127.58 C 139.74 127.97 140.14 128.76 140.34 129.15 C 136.39 128.25 132.05 126.75 129.78 123.14 Z" />
</g>
<g id="#862f46ff">
<path fill="#862f46" opacity="1.00" d=" M 145.11 124.00 C 145.55 123.91 146.43 123.73 146.87 123.64 C 148.58 125.75 150.50 128.20 153.56 127.49 C 153.58 129.96 154.07 132.41 155.08 134.68 C 154.50 134.51 153.34 134.18 152.76 134.01 C 152.83 134.83 152.95 136.47 153.01 137.28 C 152.05 137.52 151.09 137.75 150.13 137.96 C 148.20 136.22 146.70 134.10 146.06 131.56 C 148.01 130.86 146.75 127.88 144.91 128.92 C 144.71 127.95 144.51 126.99 144.30 126.03 C 144.50 125.52 144.90 124.51 145.11 124.00 M 148.26 132.18 C 147.82 133.47 149.68 135.07 150.92 134.66 C 151.54 133.31 149.55 131.58 148.26 132.18 Z" />
</g>
<g id="#652941ff">
<path fill="#652941" opacity="1.00" d=" M 154.48 124.91 C 154.72 124.85 155.18 124.73 155.41 124.67 C 158.44 126.89 161.61 128.94 165.11 130.35 C 165.17 130.75 165.29 131.53 165.34 131.92 C 165.17 132.43 164.84 133.45 164.67 133.96 C 162.11 132.53 160.08 130.01 157.09 129.51 C 156.17 128.00 155.33 126.45 154.48 124.91 Z" />
</g>
<g id="#4a2a3eff">
<path fill="#4a2a3e" opacity="1.00" d=" M 129.09 125.85 C 132.05 127.53 135.00 129.28 137.49 131.64 C 138.45 131.59 139.41 131.54 140.38 131.48 C 139.02 135.40 137.62 139.36 135.04 142.68 C 134.84 142.08 134.43 140.90 134.22 140.31 C 135.49 138.51 136.67 136.65 137.80 134.76 C 136.59 134.92 135.40 135.11 134.20 135.29 C 131.79 138.45 128.37 140.53 124.71 141.93 C 126.25 138.84 129.09 136.79 131.13 134.09 C 131.26 132.22 131.03 130.36 130.88 128.51 C 129.40 131.55 128.74 135.14 126.03 137.44 C 126.62 133.47 127.84 129.65 129.09 125.85 Z" />
</g>
<g id="#8a3544ff">
<path fill="#8a3544" opacity="1.00" d=" M 105.33 140.43 C 105.66 136.12 106.62 131.89 107.64 127.70 C 107.58 130.12 107.67 132.53 107.78 134.95 C 108.23 134.33 109.12 133.09 109.57 132.47 C 109.79 136.59 108.57 140.53 107.26 144.38 C 104.01 156.13 101.08 167.98 99.01 180.00 L 95.18 180.00 C 96.67 175.44 97.62 170.73 99.09 166.18 C 99.81 164.51 100.91 162.94 101.11 161.10 C 101.89 152.69 105.87 145.01 107.05 136.68 C 106.45 137.92 105.86 139.16 105.33 140.43 Z" />
</g>
<g id="#533c50ff">
<path fill="#533c50" opacity="1.00" d=" M 109.57 132.47 C 110.44 130.87 111.43 129.34 112.52 127.88 C 112.75 131.58 112.60 135.28 112.70 138.98 C 112.57 140.64 113.18 142.21 114.42 143.35 C 114.88 143.92 115.37 144.49 115.83 145.08 C 113.89 147.15 113.25 149.93 112.45 152.56 C 111.86 153.50 111.27 154.44 110.66 155.38 C 110.61 155.47 110.50 155.65 110.45 155.74 C 111.11 157.74 111.77 159.74 112.30 161.78 C 111.50 162.23 109.91 163.13 109.11 163.58 C 108.09 164.59 107.23 165.75 106.36 166.89 C 107.83 166.42 109.29 165.93 110.76 165.43 C 110.53 167.39 110.31 169.35 110.04 171.31 C 108.33 174.48 106.33 177.52 103.69 180.00 L 99.01 180.00 C 101.08 167.98 104.01 156.13 107.26 144.38 C 108.57 140.53 109.79 136.59 109.57 132.47 M 111.21 150.22 C 110.13 150.12 108.53 151.31 109.20 152.47 C 110.44 153.57 113.13 150.94 111.21 150.22 Z" />
</g>
<g id="#8d353fff">
<path fill="#8d353f" opacity="1.00" d=" M 141.55 127.93 C 141.93 128.16 142.68 128.61 143.06 128.83 C 143.51 130.13 143.98 131.43 144.45 132.73 C 143.56 138.32 139.05 142.16 136.95 147.22 C 139.95 143.90 142.26 140.05 144.77 136.36 C 145.88 136.86 146.99 137.35 148.11 137.81 C 147.52 137.74 146.35 137.59 145.76 137.52 C 143.81 141.16 142.39 145.34 138.77 147.72 C 136.74 148.97 135.98 151.22 135.24 153.35 L 134.95 153.96 C 134.54 153.86 133.71 153.66 133.30 153.56 C 132.51 154.78 131.71 156.00 130.97 157.25 C 130.91 155.75 130.82 154.26 130.70 152.77 C 128.60 157.16 128.21 162.05 127.32 166.77 L 126.69 166.10 C 126.32 162.57 126.51 159.02 126.35 155.49 C 127.02 154.52 127.66 153.53 128.31 152.54 C 129.49 150.69 130.80 148.94 132.16 147.22 C 132.25 148.22 132.43 150.20 132.52 151.20 C 133.26 148.33 133.91 145.42 135.04 142.68 C 137.62 139.36 139.02 135.40 140.38 131.48 C 140.97 131.43 142.14 131.33 142.73 131.28 C 142.33 130.16 141.94 129.05 141.55 127.93 Z" />
</g>
<g id="#923649ff">
<path fill="#923649" opacity="1.00" d=" M 157.09 129.51 C 160.08 130.01 162.11 132.53 164.67 133.96 C 164.84 133.45 165.17 132.43 165.34 131.92 C 165.57 133.24 165.83 134.55 166.09 135.86 C 164.59 135.76 163.10 135.66 161.60 135.57 C 159.84 133.75 158.38 131.67 157.09 129.51 Z" />
</g>
<g id="#da4e64ff">
<path fill="#da4e64" opacity="1.00" d=" M 148.26 132.18 C 149.55 131.58 151.54 133.31 150.92 134.66 C 149.68 135.07 147.82 133.47 148.26 132.18 Z" />
</g>
<g id="#19091bff">
<path fill="#19091b" opacity="1.00" d=" M 105.33 140.43 C 105.86 139.16 106.45 137.92 107.05 136.68 C 105.87 145.01 101.89 152.69 101.11 161.10 C 100.91 162.94 99.81 164.51 99.09 166.18 C 98.69 165.71 97.89 164.78 97.48 164.32 C 95.40 165.26 93.22 166.06 91.37 167.41 C 89.68 169.11 88.84 171.56 86.70 172.83 C 83.27 175.16 79.97 177.68 76.53 180.00 L 63.13 180.00 L 62.54 179.11 C 63.62 176.73 64.96 174.48 66.32 172.26 C 64.86 172.31 63.41 172.36 61.95 172.44 C 59.52 172.51 57.09 172.53 54.65 172.44 L 53.38 171.46 C 66.07 170.28 78.80 168.09 90.87 163.90 C 94.82 161.85 99.73 159.65 101.03 154.98 C 102.56 150.16 104.25 145.38 105.33 140.43 M 70.55 170.53 C 70.24 173.43 69.99 176.34 69.84 179.26 C 77.02 177.26 83.82 172.97 88.13 166.79 C 82.15 167.47 76.58 170.07 70.55 170.53 Z" />
</g>
<g id="#36144bff">
<path fill="#36144b" opacity="1.00" d=" M 125.37 145.91 C 127.02 142.50 130.78 141.12 134.22 140.31 C 134.43 140.90 134.84 142.08 135.04 142.68 C 133.91 145.42 133.26 148.33 132.52 151.20 C 132.43 150.20 132.25 148.22 132.16 147.22 C 130.80 148.94 129.49 150.69 128.31 152.54 C 127.22 150.38 125.94 148.28 125.37 145.91 Z" />
</g>
<g id="#361c27ff">
<path fill="#361c27" opacity="1.00" d=" M 37.76 144.08 C 42.78 146.17 47.31 149.29 52.33 151.38 C 54.63 152.11 56.98 152.73 59.16 153.80 C 53.95 155.09 49.44 151.96 45.05 149.74 C 42.39 148.23 39.03 147.11 37.76 144.08 Z" />
</g>
<g id="#3d2342ff">
<path fill="#3d2342" opacity="1.00" d=" M 122.03 145.25 C 121.45 151.80 117.95 158.27 112.30 161.78 C 111.77 159.74 111.11 157.74 110.45 155.74 C 110.50 155.65 110.61 155.47 110.66 155.38 C 111.26 155.70 112.45 156.34 113.05 156.66 C 114.06 155.06 115.07 153.46 116.09 151.86 C 114.88 152.10 113.66 152.33 112.45 152.56 C 113.25 149.93 113.89 147.15 115.83 145.08 C 115.94 147.15 115.73 149.23 115.43 151.29 C 116.45 150.28 117.50 149.30 118.54 148.32 C 119.70 147.28 120.86 146.27 122.03 145.25 Z" />
</g>
<g id="#342933ff">
<path fill="#342933" opacity="1.00" d=" M 111.21 150.22 C 113.13 150.94 110.44 153.57 109.20 152.47 C 108.53 151.31 110.13 150.12 111.21 150.22 Z" />
</g>
<g id="#251822ff">
<path fill="#251822" opacity="1.00" d=" M 112.45 152.56 C 113.66 152.33 114.88 152.10 116.09 151.86 C 115.07 153.46 114.06 155.06 113.05 156.66 C 112.45 156.34 111.26 155.70 110.66 155.38 C 111.27 154.44 111.86 153.50 112.45 152.56 Z" />
</g>
<g id="#3c2241ff">
<path fill="#3c2241" opacity="1.00" d=" M 109.11 163.58 C 113.22 165.25 116.51 161.44 118.69 158.50 C 118.93 158.93 119.40 159.80 119.64 160.23 C 119.31 161.70 119.27 163.22 119.36 164.73 C 119.07 165.15 118.78 165.58 118.50 166.01 C 118.28 165.49 117.85 164.45 117.64 163.94 C 115.23 166.52 112.57 168.85 110.04 171.31 C 110.31 169.35 110.53 167.39 110.76 165.43 C 109.29 165.93 107.83 166.42 106.36 166.89 C 107.23 165.75 108.09 164.59 109.11 163.58 Z" />
</g>
<g id="#2c0a33ff">
<path fill="#2c0a33" opacity="1.00" d=" M 91.37 167.41 C 93.22 166.06 95.40 165.26 97.48 164.32 C 97.89 164.78 98.69 165.71 99.09 166.18 C 97.62 170.73 96.67 175.44 95.18 180.00 L 76.53 180.00 C 79.97 177.68 83.27 175.16 86.70 172.83 C 88.84 171.56 89.68 169.11 91.37 167.41 Z" />
</g>
<g id="#4c2b40ff">
<path fill="#4c2b40" opacity="1.00" d=" M 70.55 170.53 C 76.58 170.07 82.15 167.47 88.13 166.79 C 83.82 172.97 77.02 177.26 69.84 179.26 C 69.99 176.34 70.24 173.43 70.55 170.53 Z" />
</g>
<g id="#421a1eff">
<path fill="#421a1e" opacity="1.00" d=" M 127.36 170.37 C 128.58 169.60 129.73 171.74 128.83 172.62 C 127.60 173.38 126.46 171.25 127.36 170.37 Z" />
</g>
<g id="#4b1c28ff">
<path fill="#4b1c28" opacity="1.00" d=" M 130.36 169.99 C 134.74 171.05 139.16 172.61 142.36 175.95 C 138.25 174.56 132.19 174.69 130.36 169.99 Z" />
</g>
<g id="#2c0e32ff">
<path fill="#2c0e32" opacity="1.00" d=" M 61.95 172.44 C 63.41 172.36 64.86 172.31 66.32 172.26 C 64.96 174.48 63.62 176.73 62.54 179.11 C 61.53 177.81 60.42 176.60 59.32 175.38 C 60.18 174.38 61.05 173.40 61.95 172.44 Z" />
</g>
<g id="#f85a6fff">
<path fill="#f85a6f" opacity="1.00" d=" M 51.44 178.44 C 53.11 177.19 54.70 174.84 57.09 175.80 C 59.09 176.02 60.34 177.64 61.05 179.38 C 58.05 179.33 55.01 179.20 52.08 180.00 L 49.64 180.00 C 50.09 179.61 50.99 178.83 51.44 178.44 Z" />
</g>
</svg>
