<?xml version="1.0" encoding="UTF-8" ?>
<!DOCTYPE svg PUBLIC "-//W3C//DTD SVG 1.1//EN" "http://www.w3.org/Graphics/SVG/1.1/DTD/svg11.dtd">
<svg width="32pt" height="32pt" viewBox="0 0 32 32" version="1.1" xmlns="http://www.w3.org/2000/svg">
<g id="#00000096">
<path fill="#000000" opacity="0.59" d=" M 13.24 0.00 L 16.65 0.00 C 18.95 1.06 21.35 2.04 23.22 3.81 C 20.15 3.36 17.18 2.24 14.07 2.03 C 11.28 2.92 9.17 5.15 7.20 7.22 C 7.02 10.44 6.97 13.67 6.92 16.89 C 6.52 16.67 5.73 16.23 5.33 16.01 C 5.05 13.12 4.96 10.21 5.21 7.31 C 7.59 4.57 10.42 2.26 13.24 0.00 Z" />
</g>
<g id="#000000e9">
<path fill="#000000" opacity="0.91" d=" M 7.20 7.22 C 9.17 5.15 11.28 2.92 14.07 2.03 C 17.18 2.24 20.15 3.36 23.22 3.81 C 24.43 4.60 25.67 5.34 26.80 6.24 C 26.84 9.10 26.49 11.95 26.46 14.80 C 25.96 15.17 24.97 15.91 24.48 16.28 L 24.22 15.19 C 23.98 12.62 22.21 11.63 18.91 12.24 C 20.33 12.10 21.75 11.95 23.17 11.79 C 20.02 8.15 14.83 6.29 10.15 6.03 C 9.37 9.31 9.19 12.69 8.96 16.05 C 8.45 16.26 7.43 16.68 6.92 16.89 C 6.97 13.67 7.02 10.44 7.20 7.22 Z" />
</g>
<g id="#0000001e">
<path fill="#000000" opacity="0.12" d=" M 10.15 6.03 C 14.83 6.29 20.02 8.15 23.17 11.79 C 21.75 11.95 20.33 12.10 18.91 12.24 C 18.66 12.68 18.18 13.58 17.94 14.02 C 17.19 14.02 15.70 14.02 14.96 14.03 C 13.64 13.73 12.37 13.81 11.15 14.27 C 10.02 16.16 12.94 16.27 14.07 15.95 C 16.24 17.48 11.30 18.52 9.85 18.26 L 8.96 18.16 C 8.96 17.63 8.96 16.58 8.96 16.05 C 9.19 12.69 9.37 9.31 10.15 6.03 Z" />
</g>
<g id="#00000041">
<path fill="#000000" opacity="0.25" d=" M 17.94 14.02 C 18.18 13.58 18.66 12.68 18.91 12.24 C 22.21 11.63 23.98 12.62 24.22 15.19 C 23.66 15.33 22.53 15.62 21.96 15.77 C 22.35 13.39 19.41 13.82 17.94 14.02 Z" />
</g>
<g id="#00000089">
<path fill="#000000" opacity="0.54" d=" M 11.15 14.27 C 12.37 13.81 13.64 13.73 14.96 14.03 C 14.74 14.51 14.29 15.47 14.07 15.95 C 12.94 16.27 10.02 16.16 11.15 14.27 Z" />
</g>
<g id="#0000004e">
<path fill="#000000" opacity="0.31" d=" M 14.96 14.03 C 15.70 14.02 17.19 14.02 17.94 14.02 C 18.19 14.53 18.69 15.55 18.94 16.06 C 19.05 16.52 19.26 17.43 19.36 17.89 L 23.58 17.77 C 23.80 17.39 24.25 16.65 24.48 16.28 C 24.97 15.91 25.96 15.17 26.46 14.80 C 27.98 18.23 24.75 20.81 23.87 23.90 C 22.77 27.34 19.84 30.73 16.07 30.98 C 12.16 29.80 9.07 26.22 8.92 22.06 C 10.67 24.35 12.08 26.92 14.27 28.83 C 19.04 30.72 22.21 25.88 23.07 22.02 C 23.41 19.84 25.91 15.69 19.45 19.19 C 19.49 22.13 17.13 22.28 14.76 21.96 C 18.26 21.50 18.34 18.72 16.93 16.04 C 15.36 18.68 13.12 19.81 9.85 18.26 C 11.30 18.52 16.24 17.48 14.07 15.95 C 14.29 15.47 14.74 14.51 14.96 14.03 Z" />
</g>
<g id="#0000009b">
<path fill="#000000" opacity="0.61" d=" M 17.94 14.02 C 19.41 13.82 22.35 13.39 21.96 15.77 C 21.21 15.84 19.70 15.99 18.94 16.06 C 18.69 15.55 18.19 14.53 17.94 14.02 Z" />
</g>
<g id="#00000014">
<path fill="#000000" opacity="0.08" d=" M 21.96 15.77 C 22.53 15.62 23.66 15.33 24.22 15.19 L 24.48 16.28 C 24.25 16.65 23.80 17.39 23.58 17.77 L 19.36 17.89 C 19.26 17.43 19.05 16.52 18.94 16.06 C 19.70 15.99 21.21 15.84 21.96 15.77 Z" />
</g>
<g id="#00000045">
<path fill="#000000" opacity="0.27" d=" M 8.92 22.06 C 5.82 21.58 4.28 18.94 5.33 16.01 C 5.73 16.23 6.52 16.67 6.92 16.89 C 7.43 16.68 8.45 16.26 8.96 16.05 C 8.96 16.58 8.96 17.63 8.96 18.16 C 8.95 19.46 8.93 20.76 8.92 22.06 Z" />
</g>
</svg>
