<?xml version="1.0" encoding="UTF-8" ?>
<!DOCTYPE svg PUBLIC "-//W3C//DTD SVG 1.1//EN" "http://www.w3.org/Graphics/SVG/1.1/DTD/svg11.dtd">
<svg width="721pt" height="721pt" viewBox="0 0 721 721" version="1.1" xmlns="http://www.w3.org/2000/svg">
<g id="#ffffffff">
<path fill="#ffffff" opacity="1.00" d=" M 0.00 0.00 L 721.00 0.00 L 721.00 721.00 L 0.00 721.00 L 0.00 670.89 C 1.65 684.99 8.35 698.62 19.39 707.71 C 28.88 715.96 41.36 720.69 53.94 720.79 C 252.30 720.79 450.67 720.79 649.03 720.79 C 656.32 720.65 663.62 721.06 670.90 720.57 C 689.25 718.90 706.34 707.24 714.47 690.69 C 718.01 683.33 720.39 675.28 720.33 667.06 C 720.33 464.37 720.31 261.68 720.34 58.99 C 721.09 44.91 716.54 30.45 707.20 19.81 C 697.21 7.69 681.62 0.60 665.98 0.38 C 462.64 0.39 259.31 0.38 55.97 0.39 C 36.31 -0.01 16.76 10.93 7.22 28.21 C 3.44 34.48 1.69 41.66 0.00 48.71 L 0.00 0.00 Z" />
<path fill="#ffffff" opacity="1.00" d=" M 285.40 127.55 C 291.85 127.07 298.36 127.45 304.84 127.40 C 304.50 129.98 303.93 132.54 303.05 134.99 C 280.85 207.77 255.97 279.78 227.02 350.16 C 209.22 392.35 190.33 434.27 166.40 473.40 C 160.76 481.71 155.82 490.52 149.47 498.33 C 169.94 501.96 190.24 506.76 210.06 513.06 C 224.55 517.57 238.42 523.90 253.03 528.04 C 270.91 533.42 289.52 535.82 308.06 537.53 C 325.60 538.13 343.69 538.89 360.53 533.04 C 348.25 542.29 334.64 549.67 320.47 555.59 C 305.45 561.99 289.30 565.80 272.97 566.35 C 261.13 566.05 249.33 564.19 238.06 560.53 C 219.24 554.59 202.90 543.22 186.24 533.01 C 171.31 523.82 155.28 516.14 138.09 512.33 C 124.84 528.27 106.78 539.29 88.40 548.38 C 77.30 553.11 64.86 557.53 52.72 554.34 C 43.39 552.55 35.79 543.07 37.37 533.44 C 37.95 537.04 38.12 541.27 41.53 543.49 C 48.39 549.78 58.22 550.65 67.07 549.60 C 78.90 547.37 89.74 541.54 99.08 534.07 C 108.19 527.01 115.53 518.07 123.15 509.53 C 99.19 504.51 74.10 509.00 51.68 518.16 C 58.92 514.14 66.21 510.21 73.70 506.67 C 89.40 499.61 106.67 495.81 123.91 496.25 C 126.93 496.29 129.95 496.36 132.97 496.26 C 150.24 471.00 164.31 443.70 176.19 415.54 C 190.73 381.17 202.40 345.58 211.71 309.44 C 216.05 292.47 219.96 275.37 222.51 258.03 C 223.57 252.41 223.90 246.67 223.72 240.96 C 223.59 236.70 221.42 232.42 217.67 230.25 C 213.56 227.75 208.63 227.12 203.92 226.65 C 190.63 226.10 177.32 226.25 164.02 226.27 C 161.18 226.24 158.38 225.68 155.56 225.46 C 162.01 223.96 167.63 220.23 173.70 217.72 C 193.75 207.93 213.02 196.36 230.45 182.38 C 249.03 167.80 265.18 150.44 280.69 132.71 C 282.21 130.96 283.53 128.97 285.40 127.55 Z" />
<path fill="#ffffff" opacity="1.00" d=" M 525.73 159.82 C 541.40 152.36 559.03 148.33 576.40 150.45 C 588.55 152.09 600.52 156.29 610.47 163.54 C 627.79 175.65 640.45 193.71 648.04 213.27 C 644.61 207.50 639.29 203.18 634.54 198.54 C 622.57 188.90 607.61 182.20 592.06 182.16 C 567.06 181.18 543.53 192.43 523.34 206.19 C 493.42 227.37 469.03 255.66 449.75 286.68 C 427.60 322.68 412.10 362.77 404.45 404.34 C 402.10 419.78 400.14 435.35 400.47 451.00 C 400.89 471.27 403.90 491.88 412.49 510.41 C 418.17 522.84 426.97 534.13 438.70 541.35 C 453.53 550.73 472.21 552.17 489.07 548.49 C 514.38 543.24 536.77 528.98 556.11 512.32 C 585.75 486.59 608.57 453.78 625.79 418.70 C 644.83 379.68 660.02 338.16 664.72 294.77 C 666.04 300.05 665.23 305.61 665.51 311.02 C 665.06 342.43 660.33 373.73 652.15 404.05 C 642.76 439.19 628.52 473.10 609.26 504.00 C 595.09 526.19 578.46 547.13 557.90 563.76 C 544.75 574.48 529.97 583.54 513.71 588.62 C 499.65 593.15 484.41 593.95 469.95 590.95 C 450.73 586.65 434.01 574.21 422.35 558.59 C 422.03 557.75 422.28 556.88 422.30 556.03 C 421.97 556.23 421.31 556.63 420.98 556.83 C 411.67 544.13 404.96 529.69 400.11 514.76 C 390.30 484.94 387.84 453.21 388.68 421.99 C 392.00 357.14 410.93 292.70 445.47 237.55 C 456.32 220.50 468.76 204.40 483.36 190.39 C 495.73 178.03 510.01 167.54 525.73 159.82 Z" />
</g>
<g id="#93cf5dff">
<path fill="#93cf5d" opacity="1.00" d=" M 7.22 28.21 C 16.76 10.93 36.31 -0.01 55.97 0.39 C 259.31 0.38 462.64 0.39 665.98 0.38 C 681.62 0.60 697.21 7.69 707.20 19.81 C 716.54 30.45 721.09 44.91 720.34 58.99 C 720.31 261.68 720.33 464.37 720.33 667.06 C 720.39 675.28 718.01 683.33 714.47 690.69 C 706.34 707.24 689.25 718.90 670.90 720.57 C 663.62 721.06 656.32 720.65 649.03 720.79 C 450.67 720.79 252.30 720.79 53.94 720.79 C 41.36 720.69 28.88 715.96 19.39 707.71 C 8.35 698.62 1.65 684.99 0.00 670.89 L 0.00 48.71 C 1.69 41.66 3.44 34.48 7.22 28.21 M 285.40 127.55 C 283.53 128.97 282.21 130.96 280.69 132.71 C 265.18 150.44 249.03 167.80 230.45 182.38 C 213.02 196.36 193.75 207.93 173.70 217.72 C 167.63 220.23 162.01 223.96 155.56 225.46 C 158.38 225.68 161.18 226.24 164.02 226.27 C 177.32 226.25 190.63 226.10 203.92 226.65 C 208.63 227.12 213.56 227.75 217.67 230.25 C 221.42 232.42 223.59 236.70 223.72 240.96 C 223.90 246.67 223.57 252.41 222.51 258.03 C 219.96 275.37 216.05 292.47 211.71 309.44 C 202.40 345.58 190.73 381.17 176.19 415.54 C 164.31 443.70 150.24 471.00 132.97 496.26 C 129.95 496.36 126.93 496.29 123.91 496.25 C 106.67 495.81 89.40 499.61 73.70 506.67 C 66.21 510.21 58.92 514.14 51.68 518.16 C 74.10 509.00 99.19 504.51 123.15 509.53 C 115.53 518.07 108.19 527.01 99.08 534.07 C 89.74 541.54 78.90 547.37 67.07 549.60 C 58.22 550.65 48.39 549.78 41.53 543.49 C 38.12 541.27 37.95 537.04 37.37 533.44 C 35.79 543.07 43.39 552.55 52.72 554.34 C 64.86 557.53 77.30 553.11 88.40 548.38 C 106.78 539.29 124.84 528.27 138.09 512.33 C 155.28 516.14 171.31 523.82 186.24 533.01 C 202.90 543.22 219.24 554.59 238.06 560.53 C 249.33 564.19 261.13 566.05 272.97 566.35 C 289.30 565.80 305.45 561.99 320.47 555.59 C 334.64 549.67 348.25 542.29 360.53 533.04 C 343.69 538.89 325.60 538.13 308.06 537.53 C 289.52 535.82 270.91 533.42 253.03 528.04 C 238.42 523.90 224.55 517.57 210.06 513.06 C 190.24 506.76 169.94 501.96 149.47 498.33 C 155.82 490.52 160.76 481.71 166.40 473.40 C 190.33 434.27 209.22 392.35 227.02 350.16 C 255.97 279.78 280.85 207.77 303.05 134.99 C 303.93 132.54 304.50 129.98 304.84 127.40 C 298.36 127.45 291.85 127.07 285.40 127.55 M 525.73 159.82 C 510.01 167.54 495.73 178.03 483.36 190.39 C 468.76 204.40 456.32 220.50 445.47 237.55 C 410.93 292.70 392.00 357.14 388.68 421.99 C 387.84 453.21 390.30 484.94 400.11 514.76 C 404.96 529.69 411.67 544.13 420.98 556.83 C 421.31 556.63 421.97 556.23 422.30 556.03 C 422.28 556.88 422.03 557.75 422.35 558.59 C 434.01 574.21 450.73 586.65 469.95 590.95 C 484.41 593.95 499.65 593.15 513.71 588.62 C 529.97 583.54 544.75 574.48 557.90 563.76 C 578.46 547.13 595.09 526.19 609.26 504.00 C 628.52 473.10 642.76 439.19 652.15 404.05 C 660.33 373.73 665.06 342.43 665.51 311.02 C 665.23 305.61 666.04 300.05 664.72 294.77 C 660.02 338.16 644.83 379.68 625.79 418.70 C 608.57 453.78 585.75 486.59 556.11 512.32 C 536.77 528.98 514.38 543.24 489.07 548.49 C 472.21 552.17 453.53 550.73 438.70 541.35 C 426.97 534.13 418.17 522.84 412.49 510.41 C 403.90 491.88 400.89 471.27 400.47 451.00 C 400.14 435.35 402.10 419.78 404.45 404.34 C 412.10 362.77 427.60 322.68 449.75 286.68 C 469.03 255.66 493.42 227.37 523.34 206.19 C 543.53 192.43 567.06 181.18 592.06 182.16 C 607.61 182.20 622.57 188.90 634.54 198.54 C 639.29 203.18 644.61 207.50 648.04 213.27 C 640.45 193.71 627.79 175.65 610.47 163.54 C 600.52 156.29 588.55 152.09 576.40 150.45 C 559.03 148.33 541.40 152.36 525.73 159.82 Z" />
</g>
</svg>
