<?xml version="1.0" encoding="UTF-8" ?>
<!DOCTYPE svg PUBLIC "-//W3C//DTD SVG 1.1//EN" "http://www.w3.org/Graphics/SVG/1.1/DTD/svg11.dtd">
<svg width="200pt" height="200pt" viewBox="0 0 200 200" version="1.1" xmlns="http://www.w3.org/2000/svg">
<g id="#ffffffff">
<path fill="#ffffff" opacity="1.00" d=" M 0.00 0.00 L 200.00 0.00 L 200.00 200.00 L 0.00 200.00 L 0.00 0.00 M 50.23 34.25 C 46.51 40.10 45.38 47.69 47.93 54.21 C 51.25 61.78 58.06 67.00 64.92 71.22 C 67.13 72.37 67.50 75.38 66.43 77.44 C 56.92 95.51 41.32 110.36 35.77 130.45 C 34.54 133.62 35.20 137.82 38.45 139.49 C 42.03 140.83 45.36 137.96 47.30 135.22 C 59.04 118.65 69.17 100.93 77.28 82.31 C 77.96 80.44 79.90 79.04 81.93 79.41 C 84.57 80.21 87.18 81.17 89.71 82.28 C 92.11 83.28 92.48 86.47 91.35 88.55 C 79.87 114.72 66.64 140.17 51.27 164.28 C 49.13 167.84 48.18 173.28 51.60 176.39 C 54.01 178.31 57.35 177.35 59.57 175.63 C 63.50 172.61 66.73 168.80 69.93 165.04 L 71.08 166.11 C 68.69 172.57 65.47 178.71 63.19 185.22 C 62.43 187.26 62.30 189.64 63.48 191.55 C 64.58 193.68 67.68 193.66 69.46 192.47 C 72.16 190.47 73.86 187.49 75.86 184.85 C 95.25 158.13 110.89 128.80 123.34 98.25 C 123.88 95.73 127.96 98.15 126.36 99.98 C 115.81 126.59 105.19 153.18 94.61 179.78 C 93.32 183.07 92.62 187.11 94.76 190.23 C 96.43 192.87 100.20 192.87 102.81 191.84 C 106.11 190.21 107.90 186.79 109.91 183.88 C 126.15 158.53 138.22 130.40 144.74 100.97 C 148.15 100.67 151.50 99.38 154.09 97.11 C 158.78 93.08 161.03 87.14 163.31 81.58 C 169.31 68.50 169.05 52.50 162.16 39.81 C 156.45 29.06 146.33 21.23 135.21 16.66 C 120.06 10.20 103.17 8.37 86.91 10.57 C 72.15 12.87 57.51 20.78 50.23 34.25 Z" />
</g>
<g id="#000000ff">
<path fill="#000000" opacity="1.00" d=" M 50.23 34.25 C 57.51 20.78 72.15 12.87 86.91 10.57 C 103.17 8.37 120.06 10.20 135.21 16.66 C 146.33 21.23 156.45 29.06 162.16 39.81 C 169.05 52.50 169.31 68.50 163.31 81.58 C 161.03 87.14 158.78 93.08 154.09 97.11 C 151.50 99.38 148.15 100.67 144.74 100.97 C 138.22 130.40 126.15 158.53 109.91 183.88 C 107.90 186.79 106.11 190.21 102.81 191.84 C 100.20 192.87 96.43 192.87 94.76 190.23 C 92.62 187.11 93.32 183.07 94.61 179.78 C 105.19 153.18 115.81 126.59 126.36 99.98 C 127.96 98.15 123.88 95.73 123.34 98.25 C 110.89 128.80 95.25 158.13 75.86 184.85 C 73.86 187.49 72.16 190.47 69.46 192.47 C 67.68 193.66 64.58 193.68 63.48 191.55 C 62.30 189.64 62.43 187.26 63.19 185.22 C 65.47 178.71 68.69 172.57 71.08 166.11 L 69.93 165.04 C 66.73 168.80 63.50 172.61 59.57 175.63 C 57.35 177.35 54.01 178.31 51.60 176.39 C 48.18 173.28 49.13 167.84 51.27 164.28 C 66.64 140.17 79.87 114.72 91.35 88.55 C 92.48 86.47 92.11 83.28 89.71 82.28 C 87.18 81.17 84.57 80.21 81.93 79.41 C 79.90 79.04 77.96 80.44 77.28 82.31 C 69.17 100.93 59.04 118.65 47.30 135.22 C 45.36 137.96 42.03 140.83 38.45 139.49 C 35.20 137.82 34.54 133.62 35.77 130.45 C 41.32 110.36 56.92 95.51 66.43 77.44 C 67.50 75.38 67.13 72.37 64.92 71.22 C 58.06 67.00 51.25 61.78 47.93 54.21 C 45.38 47.69 46.51 40.10 50.23 34.25 Z" />
</g>
</svg>
