<?xml version="1.0" encoding="UTF-8" ?>
<!DOCTYPE svg PUBLIC "-//W3C//DTD SVG 1.1//EN" "http://www.w3.org/Graphics/SVG/1.1/DTD/svg11.dtd">
<svg width="32pt" height="32pt" viewBox="0 0 32 32" version="1.1" xmlns="http://www.w3.org/2000/svg">
<g id="#373737fe">
<path fill="#373737" opacity="1.00" d=" M 2.78 5.76 C 7.07 -0.82 17.45 -1.62 22.57 4.41 C 26.99 8.73 26.43 15.59 23.99 20.77 C 27.52 23.47 31.48 26.62 31.74 31.46 C 27.02 30.81 23.77 27.22 20.91 23.76 C 16.74 25.68 11.72 26.79 7.48 24.45 C 0.68 21.30 -1.81 11.75 2.78 5.76 M 10.47 2.62 C 5.50 3.80 1.92 8.93 2.48 14.01 C 2.76 19.36 7.70 23.96 13.07 23.82 C 17.45 24.09 21.47 21.08 23.25 17.22 C 24.62 13.44 24.10 8.78 21.21 5.83 C 18.60 2.82 14.29 1.63 10.47 2.62 Z" />
</g>
<g id="#942600ce">
<path fill="#942600" opacity="0.81" d=" M 7.38 5.85 C 14.47 4.99 22.11 11.82 20.14 19.13 C 18.30 16.45 17.65 13.04 15.31 10.70 C 12.87 8.72 9.53 8.25 7.38 5.85 Z" />
</g>
<g id="#a22900e1">
<path fill="#a22900" opacity="0.88" d=" M 7.22 9.63 C 12.47 8.61 18.28 13.94 16.44 19.30 C 15.37 17.69 14.53 15.93 13.46 14.32 C 11.77 12.29 9.15 11.39 7.22 9.63 Z" />
</g>
<g id="#922500cb">
<path fill="#922500" opacity="0.80" d=" M 7.26 12.71 C 9.08 13.07 11.31 13.04 12.50 14.72 C 13.90 15.98 13.31 17.91 13.36 19.54 C 13.12 19.16 12.62 18.40 12.37 18.02 C 11.78 16.93 10.95 15.96 9.91 15.27 C 8.99 14.45 8.11 13.60 7.26 12.71 Z" />
</g>
<g id="#4e14006d">
<path fill="#4e1400" opacity="0.43" d=" M 9.91 15.27 C 10.95 15.96 11.78 16.93 12.37 18.02 C 11.86 18.19 10.84 18.52 10.33 18.68 C 10.13 17.95 9.73 16.49 9.52 15.75 L 9.91 15.27 Z" />
</g>
<g id="#912500cb">
<path fill="#912500" opacity="0.80" d=" M 7.26 16.20 C 7.83 16.09 8.96 15.87 9.52 15.75 C 9.73 16.49 10.13 17.95 10.33 18.68 C 9.59 18.83 8.10 19.12 7.36 19.27 C 7.33 18.50 7.29 16.97 7.26 16.20 Z" />
</g>
<g id="#2e2e2edb">
<path fill="#2e2e2e" opacity="0.86" d=" M 5.07 32.00 C 9.90 30.06 15.17 30.09 20.01 32.00 L 5.07 32.00 Z" />
</g>
</svg>
