<?xml version="1.0" encoding="UTF-8" ?>
<!DOCTYPE svg PUBLIC "-//W3C//DTD SVG 1.1//EN" "http://www.w3.org/Graphics/SVG/1.1/DTD/svg11.dtd">
<svg width="16pt" height="16pt" viewBox="0 0 16 16" version="1.1" xmlns="http://www.w3.org/2000/svg">
<g id="#f6ece0ff">
<path fill="#f6ece0" opacity="1.00" d=" M 0.00 0.00 L 16.00 0.00 L 16.00 16.00 L 0.00 16.00 L 0.00 0.00 M 5.63 4.51 C 5.78 6.93 5.77 9.37 5.61 11.79 C 7.18 11.71 8.76 11.60 10.33 11.49 C 10.56 11.00 11.02 10.00 11.25 9.51 C 10.29 10.11 9.42 11.27 8.15 10.83 C 6.44 9.14 7.51 6.56 7.43 4.45 C 6.98 4.47 6.08 4.49 5.63 4.51 Z" />
</g>
<g id="#000000ff">
<path fill="#000000" opacity="1.00" d=" M 5.63 4.51 C 6.08 4.49 6.98 4.47 7.43 4.45 C 7.51 6.56 6.44 9.14 8.15 10.83 C 9.42 11.27 10.29 10.11 11.25 9.51 C 11.02 10.00 10.56 11.00 10.33 11.49 C 8.76 11.60 7.18 11.71 5.61 11.79 C 5.77 9.37 5.78 6.93 5.63 4.51 Z" />
</g>
</svg>
