<?xml version="1.0" encoding="UTF-8" ?>
<!DOCTYPE svg PUBLIC "-//W3C//DTD SVG 1.1//EN" "http://www.w3.org/Graphics/SVG/1.1/DTD/svg11.dtd">
<svg width="64pt" height="64pt" viewBox="0 0 64 64" version="1.1" xmlns="http://www.w3.org/2000/svg">
<g id="#f05129ff">
<path fill="#f05129" opacity="1.00" d=" M 0.00 0.00 L 64.00 0.00 L 64.00 64.00 L 0.00 64.00 L 0.00 0.00 M 1.71 4.05 C 1.71 22.68 1.71 41.31 1.71 59.94 C 6.87 59.94 12.04 59.94 17.21 59.94 C 17.22 56.99 17.25 54.04 17.28 51.09 C 15.27 51.10 13.27 51.08 11.26 51.09 C 11.23 35.41 11.22 19.73 11.19 4.05 C 8.03 4.06 4.87 4.06 1.71 4.05 M 24.22 4.29 C 20.19 5.54 18.36 9.95 18.39 13.87 C 18.30 25.94 18.35 38.01 18.37 50.07 C 18.31 54.03 20.11 58.46 24.12 59.84 C 27.75 60.96 31.95 61.04 35.40 59.33 C 38.73 57.55 40.09 53.62 40.08 50.04 C 40.16 38.68 40.06 27.32 40.12 15.96 C 40.15 12.25 39.70 7.92 36.49 5.52 C 32.97 3.07 28.20 3.24 24.22 4.29 M 45.93 4.88 C 42.64 6.63 41.58 10.57 41.61 14.04 C 41.59 26.03 41.60 38.02 41.61 50.01 C 41.58 53.44 42.46 57.41 45.69 59.23 C 48.80 60.87 52.55 60.87 55.94 60.25 C 59.78 59.54 62.39 55.78 62.42 51.99 C 62.68 46.17 62.42 40.34 62.50 34.52 C 59.42 34.51 56.34 34.52 53.26 34.51 C 53.20 40.62 53.39 46.74 53.10 52.85 C 51.23 52.37 51.30 50.48 51.27 49.02 C 51.32 37.66 51.32 26.31 51.28 14.95 C 51.59 13.88 50.80 10.35 53.06 11.79 C 53.54 17.01 53.12 22.28 53.26 27.52 C 56.34 27.52 59.42 27.51 62.51 27.52 C 62.39 22.01 62.75 16.49 62.36 10.98 C 62.18 7.87 60.01 4.92 56.94 4.16 C 53.35 3.31 49.30 3.22 45.93 4.88 Z" />
<path fill="#f05129" opacity="1.00" d=" M 28.36 12.64 C 28.78 12.35 29.64 11.78 30.07 11.49 C 30.50 25.12 30.44 38.81 30.10 52.44 C 27.40 51.86 28.30 48.96 28.12 46.96 C 28.35 35.53 27.85 24.05 28.36 12.64 Z" />
</g>
<g id="#ffffffff">
<path fill="#ffffff" opacity="1.00" d=" M 1.71 4.05 C 4.87 4.06 8.03 4.06 11.19 4.05 C 11.22 19.73 11.23 35.41 11.26 51.09 C 13.27 51.08 15.27 51.10 17.28 51.09 C 17.25 54.04 17.22 56.99 17.21 59.94 C 12.04 59.94 6.87 59.94 1.71 59.94 C 1.71 41.31 1.71 22.68 1.71 4.05 Z" />
<path fill="#ffffff" opacity="1.00" d=" M 24.22 4.29 C 28.20 3.24 32.97 3.07 36.49 5.52 C 39.70 7.92 40.15 12.25 40.12 15.96 C 40.06 27.32 40.16 38.68 40.08 50.04 C 40.09 53.62 38.73 57.55 35.40 59.33 C 31.95 61.04 27.75 60.96 24.12 59.84 C 20.11 58.46 18.31 54.03 18.37 50.07 C 18.35 38.01 18.30 25.94 18.39 13.87 C 18.36 9.95 20.19 5.54 24.22 4.29 M 28.36 12.64 C 27.85 24.05 28.35 35.53 28.12 46.96 C 28.30 48.96 27.40 51.86 30.10 52.44 C 30.44 38.81 30.50 25.12 30.07 11.49 C 29.64 11.78 28.78 12.35 28.36 12.64 Z" />
<path fill="#ffffff" opacity="1.00" d=" M 45.93 4.88 C 49.30 3.22 53.35 3.31 56.94 4.16 C 60.01 4.92 62.18 7.87 62.36 10.98 C 62.75 16.49 62.39 22.01 62.51 27.52 C 59.42 27.51 56.34 27.52 53.26 27.52 C 53.12 22.28 53.54 17.01 53.06 11.79 C 50.80 10.35 51.59 13.88 51.28 14.95 C 51.32 26.31 51.32 37.66 51.27 49.02 C 51.30 50.48 51.23 52.37 53.10 52.85 C 53.39 46.74 53.20 40.62 53.26 34.51 C 56.34 34.52 59.42 34.51 62.50 34.52 C 62.42 40.34 62.68 46.17 62.42 51.99 C 62.39 55.78 59.78 59.54 55.94 60.25 C 52.55 60.87 48.80 60.87 45.69 59.23 C 42.46 57.41 41.58 53.44 41.61 50.01 C 41.60 38.02 41.59 26.03 41.61 14.04 C 41.58 10.57 42.64 6.63 45.93 4.88 Z" />
</g>
</svg>
