<?xml version="1.0" encoding="UTF-8" ?>
<!DOCTYPE svg PUBLIC "-//W3C//DTD SVG 1.1//EN" "http://www.w3.org/Graphics/SVG/1.1/DTD/svg11.dtd">
<svg width="256pt" height="256pt" viewBox="0 0 256 256" version="1.1" xmlns="http://www.w3.org/2000/svg">
<g id="#b5170fff">
<path fill="#b5170f" opacity="1.00" d=" M 0.00 0.00 L 256.00 0.00 L 256.00 256.00 L 0.00 256.00 L 0.00 0.00 M 124.23 34.31 C 118.53 38.54 112.92 42.91 107.19 47.09 C 104.97 48.80 101.33 47.11 99.59 49.60 C 98.62 51.80 98.85 54.40 99.27 56.72 C 100.23 59.51 103.70 58.88 106.00 59.10 C 106.00 66.74 106.00 74.37 106.00 82.01 C 101.77 82.11 97.48 81.67 93.28 82.27 C 90.86 83.04 90.92 85.94 90.94 88.00 C 90.93 90.05 90.86 92.96 93.28 93.73 C 97.49 94.33 101.77 93.88 106.01 94.00 C 101.95 132.32 98.02 170.66 93.99 208.99 C 90.35 209.04 86.71 208.83 83.08 209.13 C 81.52 209.16 80.19 210.54 80.12 212.08 C 79.89 214.95 79.77 217.88 80.28 220.72 C 81.00 223.15 83.91 223.02 85.94 223.02 C 114.63 222.94 143.33 223.07 172.03 222.96 C 174.82 223.31 176.38 220.53 176.02 218.06 C 175.76 215.17 177.11 210.73 173.72 209.26 C 169.85 208.70 165.91 209.09 162.01 208.99 C 157.98 170.66 154.05 132.32 149.99 94.00 C 154.23 93.88 158.51 94.33 162.72 93.72 C 165.14 92.96 165.07 90.06 165.06 88.00 C 165.07 85.95 165.14 83.03 162.72 82.27 C 158.51 81.67 154.23 82.11 150.00 82.01 C 150.00 74.37 150.00 66.74 150.00 59.10 C 152.30 58.87 155.77 59.52 156.73 56.72 C 157.14 54.40 157.38 51.80 156.41 49.60 C 154.68 47.11 151.03 48.80 148.81 47.09 C 142.88 42.78 137.12 38.22 131.18 33.90 C 129.18 32.36 126.08 32.63 124.23 34.31 Z" />
<path fill="#b5170f" opacity="1.00" d=" M 128.99 169.91 C 129.12 168.23 128.82 165.38 131.16 165.23 C 136.35 164.82 141.64 164.82 146.84 165.23 C 149.17 165.37 148.88 168.23 149.01 169.91 C 149.00 181.61 148.99 193.30 149.00 205.00 C 142.33 205.00 135.66 205.00 129.00 205.00 C 129.01 193.30 129.00 181.61 128.99 169.91 Z" />
</g>
<g id="#ffffffff">
<path fill="#ffffff" opacity="1.00" d=" M 124.23 34.31 C 126.08 32.63 129.18 32.36 131.18 33.90 C 137.12 38.22 142.88 42.78 148.81 47.09 C 151.03 48.80 154.68 47.11 156.41 49.60 C 157.38 51.80 157.14 54.40 156.73 56.72 C 155.77 59.52 152.30 58.87 150.00 59.10 C 150.00 66.74 150.00 74.37 150.00 82.01 C 154.23 82.11 158.51 81.67 162.72 82.27 C 165.14 83.03 165.07 85.95 165.06 88.00 C 165.07 90.06 165.14 92.96 162.72 93.72 C 158.51 94.33 154.23 93.88 149.99 94.00 C 154.05 132.32 157.98 170.66 162.01 208.99 C 165.91 209.09 169.85 208.70 173.72 209.26 C 177.11 210.73 175.76 215.17 176.02 218.06 C 176.38 220.53 174.82 223.31 172.03 222.96 C 143.33 223.07 114.63 222.94 85.94 223.02 C 83.91 223.02 81.00 223.15 80.28 220.72 C 79.77 217.88 79.89 214.95 80.12 212.08 C 80.19 210.54 81.52 209.16 83.08 209.13 C 86.71 208.83 90.35 209.04 93.99 208.99 C 98.02 170.66 101.95 132.32 106.01 94.00 C 101.77 93.88 97.49 94.33 93.28 93.73 C 90.86 92.96 90.93 90.05 90.94 88.00 C 90.92 85.94 90.86 83.04 93.28 82.27 C 97.48 81.67 101.77 82.11 106.00 82.01 C 106.00 74.37 106.00 66.74 106.00 59.10 C 103.70 58.88 100.23 59.51 99.27 56.72 C 98.85 54.40 98.62 51.80 99.59 49.60 C 101.33 47.11 104.97 48.80 107.19 47.09 C 112.92 42.91 118.53 38.54 124.23 34.31 M 128.99 169.91 C 129.00 181.61 129.01 193.30 129.00 205.00 C 135.66 205.00 142.33 205.00 149.00 205.00 C 148.99 193.30 149.00 181.61 149.01 169.91 C 148.88 168.23 149.17 165.37 146.84 165.23 C 141.64 164.82 136.35 164.82 131.16 165.23 C 128.82 165.38 129.12 168.23 128.99 169.91 Z" />
</g>
</svg>
