<?xml version="1.0" encoding="UTF-8" ?>
<!DOCTYPE svg PUBLIC "-//W3C//DTD SVG 1.1//EN" "http://www.w3.org/Graphics/SVG/1.1/DTD/svg11.dtd">
<svg width="114pt" height="114pt" viewBox="0 0 114 114" version="1.1" xmlns="http://www.w3.org/2000/svg">
<g id="#cc0000ff">
<path fill="#cc0000" opacity="1.00" d=" M 53.71 0.00 L 60.09 0.00 C 74.21 0.89 87.99 6.98 97.83 17.20 C 107.41 26.90 113.06 40.14 114.00 53.70 L 114.00 60.13 C 113.09 74.24 107.02 87.99 96.81 97.82 C 87.10 107.41 73.86 113.06 60.29 114.00 L 53.90 114.00 C 39.76 113.10 25.98 107.00 16.14 96.76 C 6.58 87.07 0.95 73.85 0.00 60.32 L 0.00 53.88 C 0.88 40.25 6.55 26.95 16.17 17.20 C 25.96 7.02 39.66 0.96 53.71 0.00 M 52.37 5.55 C 31.44 7.16 12.61 22.89 7.23 43.17 C 3.11 57.73 5.84 74.04 14.56 86.42 C 23.58 99.57 38.97 108.10 54.93 108.60 C 68.93 109.25 83.04 103.81 93.03 93.99 C 103.17 84.19 109.00 70.10 108.63 56.00 C 108.46 41.14 101.37 26.59 89.88 17.19 C 79.56 8.56 65.77 4.30 52.37 5.55 Z" />
<path fill="#cc0000" opacity="1.00" d=" M 47.50 11.66 C 60.21 8.99 73.99 11.89 84.43 19.63 C 95.40 27.58 102.54 40.56 103.23 54.11 C 104.12 66.97 99.23 80.07 90.12 89.18 C 80.35 99.25 65.86 104.46 51.91 102.86 C 37.99 101.47 25.03 93.19 17.75 81.27 C 10.15 69.12 8.76 53.38 13.98 40.06 C 19.44 25.75 32.49 14.70 47.50 11.66 M 36.25 30.50 C 36.22 30.97 36.17 31.91 36.14 32.38 C 38.53 33.01 41.27 33.08 43.22 34.78 C 44.70 36.07 44.41 38.22 44.54 39.98 C 44.54 51.32 44.51 62.66 44.55 74.00 C 44.51 75.84 44.56 77.88 43.40 79.44 C 41.27 81.23 38.26 80.97 35.73 81.84 C 35.80 82.28 35.93 83.18 36.00 83.63 C 49.40 83.85 62.81 83.65 76.22 83.72 C 76.83 78.78 78.38 74.00 78.94 69.06 L 77.89 68.68 C 75.13 72.41 73.49 77.82 68.64 79.56 C 63.85 80.57 58.86 80.54 53.99 80.38 C 51.59 79.21 51.61 76.24 51.63 73.96 C 51.79 61.62 51.45 49.27 51.80 36.94 C 52.08 33.09 57.04 33.23 59.83 32.40 C 59.81 31.92 59.78 30.97 59.77 30.49 C 51.93 30.44 44.09 30.43 36.25 30.50 Z" />
</g>
<g id="#fffefeff">
<path fill="#fffefe" opacity="1.00" d=" M 52.37 5.55 C 65.77 4.30 79.56 8.56 89.88 17.19 C 101.37 26.59 108.46 41.14 108.63 56.00 C 109.00 70.10 103.17 84.19 93.03 93.99 C 83.04 103.81 68.93 109.25 54.93 108.60 C 38.97 108.10 23.58 99.57 14.56 86.42 C 5.84 74.04 3.11 57.73 7.23 43.17 C 12.61 22.89 31.44 7.16 52.37 5.55 M 47.50 11.66 C 32.49 14.70 19.44 25.75 13.98 40.06 C 8.76 53.38 10.15 69.12 17.75 81.27 C 25.03 93.19 37.99 101.47 51.91 102.86 C 65.86 104.46 80.35 99.25 90.12 89.18 C 99.23 80.07 104.12 66.97 103.23 54.11 C 102.54 40.56 95.40 27.58 84.43 19.63 C 73.99 11.89 60.21 8.99 47.50 11.66 Z" />
<path fill="#fffefe" opacity="1.00" d=" M 36.25 30.50 C 44.09 30.43 51.93 30.44 59.77 30.49 C 59.78 30.97 59.81 31.92 59.83 32.40 C 57.04 33.23 52.08 33.09 51.80 36.94 C 51.45 49.27 51.79 61.62 51.63 73.96 C 51.61 76.24 51.59 79.21 53.99 80.38 C 58.86 80.54 63.85 80.57 68.64 79.56 C 73.49 77.82 75.13 72.41 77.89 68.68 L 78.94 69.06 C 78.38 74.00 76.83 78.78 76.22 83.72 C 62.81 83.65 49.40 83.85 36.00 83.63 C 35.93 83.18 35.80 82.28 35.73 81.84 C 38.26 80.97 41.27 81.23 43.40 79.44 C 44.56 77.88 44.51 75.84 44.55 74.00 C 44.51 62.66 44.54 51.32 44.54 39.98 C 44.41 38.22 44.70 36.07 43.22 34.78 C 41.27 33.08 38.53 33.01 36.14 32.38 C 36.17 31.91 36.22 30.97 36.25 30.50 Z" />
</g>
</svg>
