<?xml version="1.0" encoding="UTF-8" ?>
<!DOCTYPE svg PUBLIC "-//W3C//DTD SVG 1.1//EN" "http://www.w3.org/Graphics/SVG/1.1/DTD/svg11.dtd">
<svg width="64pt" height="64pt" viewBox="0 0 64 64" version="1.1" xmlns="http://www.w3.org/2000/svg">
<g id="#ffffffff">
<path fill="#ffffff" opacity="1.00" d=" M 0.00 0.00 L 64.00 0.00 L 64.00 64.00 L 0.00 64.00 L 0.00 0.00 M 13.01 10.24 C 12.46 19.88 13.22 29.54 12.53 39.17 C 12.46 42.46 11.93 45.88 12.88 49.08 C 14.85 50.92 17.36 51.98 19.70 53.25 C 22.73 54.84 25.77 57.51 29.43 56.59 C 38.04 55.16 46.65 53.75 55.26 52.33 C 55.23 49.06 55.22 45.80 55.21 42.53 L 54.94 42.60 C 52.68 41.37 50.54 39.72 47.99 39.13 C 43.96 39.24 40.04 40.31 36.08 40.98 C 36.10 39.35 36.10 37.72 36.10 36.09 C 36.22 29.51 36.27 22.93 36.22 16.35 L 35.94 16.40 C 33.85 15.11 31.72 13.88 29.61 12.62 C 27.06 11.44 24.57 10.02 21.81 9.42 C 18.85 9.00 15.91 9.78 13.01 10.24 Z" />
</g>
<g id="#edededff">
<path fill="#ededed" opacity="1.00" d=" M 13.01 10.24 C 15.91 9.78 18.85 9.00 21.81 9.42 C 24.57 10.02 27.06 11.44 29.61 12.62 C 26.33 13.06 23.07 13.59 19.80 14.02 L 19.68 14.01 C 19.82 27.09 19.77 40.17 19.70 53.25 C 17.36 51.98 14.85 50.92 12.88 49.08 C 11.93 45.88 12.46 42.46 12.53 39.17 C 13.22 29.54 12.46 19.88 13.01 10.24 Z" />
</g>
<g id="#8d929aff">
<path fill="#8d929a" opacity="1.00" d=" M 19.80 14.02 C 23.07 13.59 26.33 13.06 29.61 12.62 C 31.72 13.88 33.85 15.11 35.94 16.40 C 30.46 17.75 24.49 17.45 19.80 14.02 Z" />
<path fill="#8d929a" opacity="1.00" d=" M 36.08 40.98 C 40.04 40.31 43.96 39.24 47.99 39.13 C 50.54 39.72 52.68 41.37 54.94 42.60 C 52.75 43.10 50.55 43.59 48.33 44.00 C 44.23 44.73 40.11 45.33 36.00 46.00 C 36.03 44.33 36.06 42.65 36.08 40.98 Z" />
</g>
<g id="#aeb1b3ff">
<path fill="#aeb1b3" opacity="1.00" d=" M 19.68 14.01 L 19.80 14.02 C 24.49 17.45 30.46 17.75 35.94 16.40 L 36.22 16.35 C 36.27 22.93 36.22 29.51 36.10 36.09 C 33.77 36.38 31.44 36.67 29.11 36.96 C 28.64 30.74 30.44 24.13 28.17 18.20 C 27.95 18.21 27.50 18.22 27.28 18.23 C 26.45 29.45 26.88 40.73 27.08 51.97 C 34.02 51.14 40.91 49.97 47.78 48.69 C 47.96 47.12 48.15 45.56 48.33 44.00 C 50.55 43.59 52.75 43.10 54.94 42.60 L 55.21 42.53 C 55.22 45.80 55.23 49.06 55.26 52.33 C 46.65 53.75 38.04 55.16 29.43 56.59 C 25.77 57.51 22.73 54.84 19.70 53.25 C 19.77 40.17 19.82 27.09 19.68 14.01 Z" />
</g>
<g id="#bbbec0ff">
<path fill="#bbbec0" opacity="1.00" d=" M 27.28 18.23 C 27.50 18.22 27.95 18.21 28.17 18.20 C 30.44 24.13 28.64 30.74 29.11 36.96 C 31.44 36.67 33.77 36.38 36.10 36.09 C 36.10 37.72 36.10 39.35 36.08 40.98 C 36.06 42.65 36.03 44.33 36.00 46.00 C 40.11 45.33 44.23 44.73 48.33 44.00 C 48.15 45.56 47.96 47.12 47.78 48.69 C 40.91 49.97 34.02 51.14 27.08 51.97 C 26.88 40.73 26.45 29.45 27.28 18.23 Z" />
</g>
</svg>
