<?xml version="1.0" encoding="UTF-8" ?>
<!DOCTYPE svg PUBLIC "-//W3C//DTD SVG 1.1//EN" "http://www.w3.org/Graphics/SVG/1.1/DTD/svg11.dtd">
<svg width="32pt" height="32pt" viewBox="0 0 32 32" version="1.1" xmlns="http://www.w3.org/2000/svg">
<g id="#fefafbff">
<path fill="#fefafb" opacity="1.00" d=" M 0.00 0.00 L 32.00 0.00 L 32.00 32.00 L 10.92 32.00 L 10.97 31.00 C 13.48 28.71 19.66 30.82 19.06 26.29 L 19.92 25.92 C 21.02 25.39 22.30 25.09 23.19 24.20 C 24.95 17.35 23.68 9.33 24.02 2.04 C 23.72 2.25 23.12 2.65 22.83 2.85 C 18.87 5.26 14.76 7.40 10.80 9.80 L 10.00 10.23 C 9.45 9.82 8.35 9.01 7.80 8.61 C 8.88 3.68 2.28 12.54 6.00 12.99 C 6.89 18.32 4.22 25.51 6.80 30.18 C 7.40 30.47 8.58 31.05 9.18 31.34 L 9.09 32.00 L 0.00 32.00 L 0.00 0.00 M 13.36 3.15 C 12.30 3.84 10.84 4.02 10.22 5.28 C 10.86 7.64 17.28 2.82 13.36 3.15 Z" />
</g>
<g id="#e63d3eff">
<path fill="#e63d3e" opacity="1.00" d=" M 22.83 2.85 C 23.12 2.65 23.72 2.25 24.02 2.04 C 23.68 9.33 24.95 17.35 23.19 24.20 C 22.96 17.08 23.15 9.96 22.83 2.85 Z" />
</g>
<g id="#ed939cff">
<path fill="#ed939c" opacity="1.00" d=" M 13.36 3.15 C 17.28 2.82 10.86 7.64 10.22 5.28 C 10.84 4.02 12.30 3.84 13.36 3.15 Z" />
</g>
<g id="#f40505ff">
<path fill="#f40505" opacity="1.00" d=" M 10.80 9.80 C 14.76 7.40 18.87 5.26 22.83 2.85 C 23.15 9.96 22.96 17.08 23.19 24.20 C 22.30 25.09 21.02 25.39 19.92 25.92 C 19.97 22.92 20.09 19.92 19.93 16.91 C 18.49 17.54 15.48 17.38 16.10 19.68 C 20.40 19.32 18.13 23.69 19.06 26.29 C 19.66 30.82 13.48 28.71 10.97 31.00 C 10.96 23.93 11.21 16.86 10.80 9.80 Z" />
</g>
<g id="#b7a3a8ff">
<path fill="#b7a3a8" opacity="1.00" d=" M 6.00 12.99 C 2.28 12.54 8.88 3.68 7.80 8.61 C 6.67 15.74 7.05 22.99 6.80 30.18 C 4.22 25.51 6.89 18.32 6.00 12.99 Z" />
</g>
<g id="#421826ff">
<path fill="#421826" opacity="1.00" d=" M 6.80 30.18 C 7.05 22.99 6.67 15.74 7.80 8.61 C 8.35 9.01 9.45 9.82 10.00 10.23 C 9.89 17.26 10.51 24.38 9.18 31.34 C 8.58 31.05 7.40 30.47 6.80 30.18 Z" />
</g>
<g id="#891722ff">
<path fill="#891722" opacity="1.00" d=" M 10.00 10.23 L 10.80 9.80 C 11.21 16.86 10.96 23.93 10.97 31.00 L 10.92 32.00 L 9.09 32.00 L 9.18 31.34 C 10.51 24.38 9.89 17.26 10.00 10.23 Z" />
</g>
<g id="#f6b8bcff">
<path fill="#f6b8bc" opacity="1.00" d=" M 16.10 19.68 C 15.48 17.38 18.49 17.54 19.93 16.91 C 20.09 19.92 19.97 22.92 19.92 25.92 L 19.06 26.29 C 18.13 23.69 20.40 19.32 16.10 19.68 Z" />
</g>
</svg>
