<?xml version="1.0" encoding="UTF-8" ?>
<!DOCTYPE svg PUBLIC "-//W3C//DTD SVG 1.1//EN" "http://www.w3.org/Graphics/SVG/1.1/DTD/svg11.dtd">
<svg width="72pt" height="72pt" viewBox="0 0 72 72" version="1.1" xmlns="http://www.w3.org/2000/svg">
<g id="#ffffffff">
<path fill="#ffffff" opacity="1.00" d=" M 0.00 0.00 L 72.00 0.00 L 72.00 72.00 L 0.00 72.00 L 0.00 0.00 M 2.15 57.62 C 3.62 59.25 6.00 58.57 7.94 58.72 C 28.55 58.51 49.17 58.99 69.77 58.48 C 68.45 55.01 65.62 52.43 63.59 49.39 C 54.33 37.22 45.53 24.70 35.95 12.80 C 24.37 27.49 13.57 42.80 2.15 57.62 Z" />
<path fill="#ffffff" opacity="1.00" d=" M 32.16 19.86 C 33.42 18.11 34.73 16.39 36.07 14.70 C 37.45 16.32 38.75 18.02 39.94 19.79 C 38.67 21.51 37.37 23.20 36.01 24.85 C 34.67 23.23 33.39 21.56 32.16 19.86 Z" />
<path fill="#ffffff" opacity="1.00" d=" M 27.01 26.89 C 28.33 24.84 29.82 22.90 31.49 21.11 C 32.68 22.78 33.87 24.45 35.06 26.13 C 33.75 28.16 32.31 30.11 30.77 31.97 C 29.51 30.29 28.26 28.59 27.01 26.89 Z" />
<path fill="#ffffff" opacity="1.00" d=" M 36.94 26.13 C 38.14 24.35 39.44 22.66 40.84 21.03 C 42.41 22.89 43.91 24.82 45.10 26.95 C 43.85 28.65 42.59 30.35 41.30 32.02 C 39.74 30.14 38.30 28.16 36.94 26.13 Z" />
<path fill="#ffffff" opacity="1.00" d=" M 32.01 33.04 C 32.96 30.99 34.51 29.32 36.00 27.64 C 37.48 29.30 39.04 30.95 39.98 32.99 C 39.57 35.33 37.38 36.92 36.08 38.81 C 34.69 36.93 32.76 35.31 32.01 33.04 Z" />
<path fill="#ffffff" opacity="1.00" d=" M 21.86 33.85 C 23.13 31.83 24.56 29.92 26.11 28.11 C 27.44 29.72 28.70 31.39 29.90 33.11 C 28.56 35.10 27.15 37.04 25.61 38.88 C 24.32 37.23 23.08 35.55 21.86 33.85 Z" />
<path fill="#ffffff" opacity="1.00" d=" M 42.16 33.15 C 43.42 31.43 44.74 29.75 46.11 28.12 C 47.35 29.96 49.49 31.52 49.86 33.78 C 48.99 35.63 47.49 37.06 46.17 38.57 C 44.74 36.84 43.41 35.02 42.16 33.15 Z" />
<path fill="#ffffff" opacity="1.00" d=" M 17.00 40.05 C 18.29 38.35 19.57 36.64 20.86 34.95 C 22.23 36.63 23.52 38.37 24.78 40.14 C 23.50 41.86 22.19 43.56 20.85 45.24 C 19.45 43.60 18.17 41.86 17.00 40.05 Z" />
<path fill="#ffffff" opacity="1.00" d=" M 26.96 40.01 C 27.60 37.79 29.53 36.29 30.93 34.54 C 32.41 36.35 33.81 38.22 35.14 40.15 C 33.81 42.09 32.41 43.99 30.90 45.80 C 29.56 43.92 27.55 42.31 26.96 40.01 Z" />
<path fill="#ffffff" opacity="1.00" d=" M 36.98 40.11 C 38.32 38.26 39.69 36.44 41.08 34.64 C 42.56 36.25 44.36 37.77 45.03 39.93 C 44.33 42.14 42.48 43.71 41.07 45.47 C 39.59 43.77 38.23 41.98 36.98 40.11 Z" />
<path fill="#ffffff" opacity="1.00" d=" M 47.17 39.89 C 48.41 38.18 49.69 36.51 51.00 34.85 C 52.57 36.45 53.88 38.26 55.10 40.12 C 53.95 41.97 52.63 43.69 51.16 45.29 C 49.77 43.54 48.45 41.72 47.17 39.89 Z" />
<path fill="#ffffff" opacity="1.00" d=" M 46.34 41.12 C 47.62 42.99 49.45 44.66 50.01 46.91 C 48.97 48.89 47.44 50.56 46.05 52.30 C 44.65 50.55 43.31 48.76 42.00 46.94 C 43.37 44.94 44.82 43.00 46.34 41.12 Z" />
<path fill="#ffffff" opacity="1.00" d=" M 12.11 46.82 C 13.28 45.00 14.58 43.26 15.99 41.63 C 17.36 43.18 19.21 44.63 19.69 46.73 C 18.70 48.54 17.27 50.05 15.99 51.65 C 14.67 50.06 13.38 48.45 12.11 46.82 Z" />
<path fill="#ffffff" opacity="1.00" d=" M 22.08 46.80 C 22.43 44.61 24.32 43.08 25.83 41.62 C 27.28 43.37 28.68 45.16 29.96 47.05 C 28.80 48.88 27.52 50.63 26.04 52.21 C 24.64 50.47 23.09 48.81 22.08 46.80 Z" />
<path fill="#ffffff" opacity="1.00" d=" M 31.85 47.03 C 33.14 45.15 34.53 43.33 36.00 41.59 C 37.58 43.22 38.96 45.02 40.15 46.96 C 38.88 48.84 37.49 50.65 36.01 52.37 C 34.37 50.81 33.04 48.96 31.85 47.03 Z" />
<path fill="#ffffff" opacity="1.00" d=" M 52.17 46.79 C 53.27 44.93 54.58 43.21 56.00 41.59 C 57.54 43.23 58.90 45.01 60.09 46.91 C 58.85 48.65 57.57 50.36 56.24 52.03 C 54.87 50.29 53.52 48.54 52.17 46.79 Z" />
<path fill="#ffffff" opacity="1.00" d=" M 11.27 47.91 C 12.58 49.57 13.85 51.27 15.07 53.00 C 14.09 54.38 13.23 55.88 11.96 57.03 C 9.57 57.44 7.14 57.20 4.73 57.12 C 6.46 53.74 8.96 50.88 11.27 47.91 Z" />
<path fill="#ffffff" opacity="1.00" d=" M 20.50 47.92 C 22.25 49.42 23.79 51.20 24.87 53.26 C 24.65 55.12 22.96 57.20 20.96 57.34 C 18.89 56.78 18.09 54.55 16.94 52.97 C 18.13 51.29 19.31 49.60 20.50 47.92 Z" />
<path fill="#ffffff" opacity="1.00" d=" M 51.24 47.90 C 52.58 49.54 54.06 51.10 54.98 53.02 C 54.66 54.72 53.39 56.46 51.81 57.19 C 49.38 57.89 48.25 55.18 46.95 53.71 C 48.25 51.68 49.69 49.74 51.24 47.90 Z" />
<path fill="#ffffff" opacity="1.00" d=" M 26.97 53.76 C 28.09 51.87 29.45 50.14 30.93 48.52 C 32.41 50.24 33.78 52.06 35.05 53.94 C 33.87 55.24 33.04 57.27 31.02 57.38 C 29.02 57.14 28.20 55.06 26.97 53.76 Z" />
<path fill="#ffffff" opacity="1.00" d=" M 36.80 53.97 C 38.13 51.97 39.56 50.03 41.12 48.20 C 42.35 50.05 44.46 51.60 44.88 53.85 C 44.00 55.35 42.97 57.32 40.97 57.32 C 38.86 57.45 38.00 55.29 36.80 53.97 Z" />
<path fill="#ffffff" opacity="1.00" d=" M 57.11 53.17 C 58.38 51.50 59.68 49.84 61.01 48.21 C 63.36 51.01 65.67 53.87 67.40 57.10 C 65.01 57.15 62.56 57.52 60.19 56.97 C 58.74 56.13 58.08 54.46 57.11 53.17 Z" />
<path fill="#ffffff" opacity="1.00" d=" M 15.25 55.12 C 16.60 54.17 18.75 56.61 16.80 57.28 C 15.27 58.19 13.18 56.02 15.25 55.12 Z" />
<path fill="#ffffff" opacity="1.00" d=" M 26.13 55.20 C 27.43 55.89 27.41 56.56 26.07 57.21 C 24.77 56.51 24.79 55.84 26.13 55.20 Z" />
<path fill="#ffffff" opacity="1.00" d=" M 45.24 55.41 C 46.90 54.93 47.46 55.49 46.90 57.08 C 45.24 57.56 44.69 57.00 45.24 55.41 Z" />
<path fill="#ffffff" opacity="1.00" d=" M 55.17 55.49 C 56.07 54.30 58.44 55.62 57.55 56.98 C 56.64 58.18 54.19 56.88 55.17 55.49 Z" />
<path fill="#ffffff" opacity="1.00" d=" M 35.24 56.03 C 38.17 54.43 35.47 59.37 35.24 56.03 Z" />
</g>
<g id="#d9d9d9ff">
<path fill="#d9d9d9" opacity="1.00" d=" M 2.15 57.62 C 13.57 42.80 24.37 27.49 35.95 12.80 C 45.53 24.70 54.33 37.22 63.59 49.39 C 65.62 52.43 68.45 55.01 69.77 58.48 C 49.17 58.99 28.55 58.51 7.94 58.72 C 6.00 58.57 3.62 59.25 2.15 57.62 M 32.16 19.86 C 33.39 21.56 34.67 23.23 36.01 24.85 C 37.37 23.20 38.67 21.51 39.94 19.79 C 38.75 18.02 37.45 16.32 36.07 14.70 C 34.73 16.39 33.42 18.11 32.16 19.86 M 27.01 26.89 C 28.26 28.59 29.51 30.29 30.77 31.97 C 32.31 30.11 33.75 28.16 35.06 26.13 C 33.87 24.45 32.68 22.78 31.49 21.11 C 29.82 22.90 28.33 24.84 27.01 26.89 M 36.94 26.13 C 38.30 28.16 39.74 30.14 41.30 32.02 C 42.59 30.35 43.85 28.65 45.10 26.95 C 43.91 24.82 42.41 22.89 40.84 21.03 C 39.44 22.66 38.14 24.35 36.94 26.13 M 32.01 33.04 C 32.76 35.31 34.69 36.93 36.08 38.81 C 37.38 36.92 39.57 35.33 39.98 32.99 C 39.04 30.95 37.48 29.30 36.00 27.64 C 34.51 29.32 32.96 30.99 32.01 33.04 M 21.86 33.85 C 23.08 35.55 24.32 37.23 25.61 38.88 C 27.15 37.04 28.56 35.10 29.90 33.11 C 28.70 31.39 27.44 29.72 26.11 28.11 C 24.56 29.92 23.13 31.83 21.86 33.85 M 42.16 33.15 C 43.41 35.02 44.74 36.84 46.17 38.57 C 47.49 37.06 48.99 35.63 49.86 33.78 C 49.49 31.52 47.35 29.96 46.11 28.12 C 44.74 29.75 43.42 31.43 42.16 33.15 M 17.00 40.05 C 18.17 41.86 19.45 43.60 20.85 45.24 C 22.19 43.56 23.50 41.86 24.78 40.14 C 23.52 38.37 22.23 36.63 20.86 34.95 C 19.57 36.64 18.29 38.35 17.00 40.05 M 26.96 40.01 C 27.55 42.31 29.56 43.92 30.90 45.80 C 32.41 43.99 33.81 42.09 35.14 40.15 C 33.81 38.22 32.41 36.35 30.93 34.54 C 29.53 36.29 27.60 37.79 26.96 40.01 M 36.98 40.11 C 38.23 41.98 39.59 43.77 41.07 45.47 C 42.48 43.71 44.33 42.14 45.03 39.93 C 44.36 37.77 42.56 36.25 41.08 34.64 C 39.69 36.44 38.32 38.26 36.98 40.11 M 47.17 39.89 C 48.45 41.72 49.77 43.54 51.16 45.29 C 52.63 43.69 53.95 41.97 55.10 40.12 C 53.88 38.26 52.57 36.45 51.00 34.85 C 49.69 36.51 48.41 38.18 47.17 39.89 M 46.34 41.12 C 44.82 43.00 43.37 44.94 42.00 46.94 C 43.31 48.76 44.65 50.55 46.05 52.30 C 47.44 50.56 48.97 48.89 50.01 46.91 C 49.45 44.66 47.62 42.99 46.34 41.12 M 12.11 46.82 C 13.38 48.45 14.67 50.06 15.99 51.65 C 17.27 50.05 18.70 48.54 19.69 46.73 C 19.21 44.63 17.36 43.18 15.99 41.63 C 14.58 43.26 13.28 45.00 12.11 46.82 M 22.08 46.80 C 23.09 48.81 24.64 50.47 26.04 52.21 C 27.52 50.63 28.80 48.88 29.96 47.05 C 28.68 45.16 27.28 43.37 25.83 41.62 C 24.32 43.08 22.43 44.61 22.08 46.80 M 31.85 47.03 C 33.04 48.96 34.37 50.81 36.01 52.37 C 37.49 50.65 38.88 48.84 40.15 46.96 C 38.96 45.02 37.58 43.22 36.00 41.59 C 34.53 43.33 33.14 45.15 31.85 47.03 M 52.17 46.79 C 53.52 48.54 54.87 50.29 56.24 52.03 C 57.57 50.36 58.85 48.65 60.09 46.91 C 58.90 45.01 57.54 43.23 56.00 41.59 C 54.58 43.21 53.27 44.93 52.17 46.79 M 11.27 47.91 C 8.96 50.88 6.46 53.74 4.73 57.12 C 7.14 57.20 9.57 57.44 11.96 57.03 C 13.23 55.88 14.09 54.38 15.07 53.00 C 13.85 51.27 12.58 49.57 11.27 47.91 M 20.50 47.92 C 19.31 49.60 18.13 51.29 16.94 52.97 C 18.09 54.55 18.89 56.78 20.96 57.34 C 22.96 57.20 24.65 55.12 24.87 53.26 C 23.79 51.20 22.25 49.42 20.50 47.92 M 51.24 47.90 C 49.69 49.74 48.25 51.68 46.95 53.71 C 48.25 55.18 49.38 57.89 51.81 57.19 C 53.39 56.46 54.66 54.72 54.98 53.02 C 54.06 51.10 52.58 49.54 51.24 47.90 M 26.97 53.76 C 28.20 55.06 29.02 57.14 31.02 57.38 C 33.04 57.27 33.87 55.24 35.05 53.94 C 33.78 52.06 32.41 50.24 30.93 48.52 C 29.45 50.14 28.09 51.87 26.97 53.76 M 36.80 53.97 C 38.00 55.29 38.86 57.45 40.97 57.32 C 42.97 57.32 44.00 55.35 44.88 53.85 C 44.46 51.60 42.35 50.05 41.12 48.20 C 39.56 50.03 38.13 51.97 36.80 53.97 M 57.11 53.17 C 58.08 54.46 58.74 56.13 60.19 56.97 C 62.56 57.52 65.01 57.15 67.40 57.10 C 65.67 53.87 63.36 51.01 61.01 48.21 C 59.68 49.84 58.38 51.50 57.11 53.17 M 15.25 55.12 C 13.18 56.02 15.27 58.19 16.80 57.28 C 18.75 56.61 16.60 54.17 15.25 55.12 M 26.13 55.20 C 24.79 55.84 24.77 56.51 26.07 57.21 C 27.41 56.56 27.43 55.89 26.13 55.20 M 45.24 55.41 C 44.69 57.00 45.24 57.56 46.90 57.08 C 47.46 55.49 46.90 54.93 45.24 55.41 M 55.17 55.49 C 54.19 56.88 56.64 58.18 57.55 56.98 C 58.44 55.62 56.07 54.30 55.17 55.49 M 35.24 56.03 C 35.47 59.37 38.17 54.43 35.24 56.03 Z" />
</g>
</svg>
