<?xml version="1.0" encoding="UTF-8" ?>
<!DOCTYPE svg PUBLIC "-//W3C//DTD SVG 1.1//EN" "http://www.w3.org/Graphics/SVG/1.1/DTD/svg11.dtd">
<svg width="32pt" height="32pt" viewBox="0 0 32 32" version="1.1" xmlns="http://www.w3.org/2000/svg">
<g id="#f46767ff">
<path fill="#f46767" opacity="1.00" d=" M 7.57 3.84 C 8.69 2.92 9.72 1.92 10.79 0.95 C 11.54 0.98 13.05 1.06 13.80 1.09 C 14.74 2.90 16.09 4.85 15.33 6.99 C 14.21 10.60 11.38 13.27 8.99 16.06 C 6.60 14.52 4.20 12.95 2.19 10.92 C 0.66 9.10 0.42 6.00 2.31 4.34 C 3.92 3.46 5.93 4.71 7.57 3.84 Z" />
<path fill="#f46767" opacity="1.00" d=" M 18.19 1.09 C 18.94 1.06 20.45 0.98 21.20 0.95 C 22.27 1.92 23.31 2.92 24.43 3.85 C 26.09 4.59 28.00 3.60 29.68 4.26 C 31.50 6.00 31.31 9.01 29.82 10.89 C 27.80 12.92 25.41 14.51 23.01 16.06 C 20.62 13.26 17.77 10.59 16.67 6.98 C 15.92 4.84 17.26 2.90 18.19 1.09 Z" />
</g>
<g id="#ffdd67ff">
<path fill="#ffdd67" opacity="1.00" d=" M 13.80 1.09 C 15.26 1.07 16.73 1.07 18.19 1.09 C 17.26 2.90 15.92 4.84 16.67 6.98 C 17.77 10.59 20.62 13.26 23.01 16.06 C 25.41 14.51 27.80 12.92 29.82 10.89 C 34.20 20.00 25.84 31.30 16.02 31.00 C 6.21 31.34 -2.23 20.01 2.19 10.92 C 4.20 12.95 6.60 14.52 8.99 16.06 C 11.38 13.27 14.21 10.60 15.33 6.99 C 16.09 4.85 14.74 2.90 13.80 1.09 M 7.61 18.04 C 6.68 22.90 11.48 26.78 16.05 26.37 C 20.56 26.68 25.38 22.83 24.34 18.01 C 18.80 17.13 13.15 17.14 7.61 18.04 Z" />
</g>
<g id="#664e27ff">
<path fill="#664e27" opacity="1.00" d=" M 7.61 18.04 C 13.15 17.14 18.80 17.13 24.34 18.01 C 25.38 22.83 20.56 26.68 16.05 26.37 C 11.48 26.78 6.68 22.90 7.61 18.04 M 9.19 19.20 C 9.14 19.67 9.03 20.61 8.97 21.07 C 13.68 21.02 18.38 21.02 23.08 21.07 C 23.01 20.60 22.87 19.67 22.80 19.20 C 18.31 18.43 13.68 18.44 9.19 19.20 Z" />
</g>
<g id="#fcfbfaff">
<path fill="#fcfbfa" opacity="1.00" d=" M 9.19 19.20 C 13.68 18.44 18.31 18.43 22.80 19.20 C 22.87 19.67 23.01 20.60 23.08 21.07 C 18.38 21.02 13.68 21.02 8.97 21.07 C 9.03 20.61 9.14 19.67 9.19 19.20 Z" />
</g>
</svg>
