<?xml version="1.0" encoding="UTF-8" ?>
<!DOCTYPE svg PUBLIC "-//W3C//DTD SVG 1.1//EN" "http://www.w3.org/Graphics/SVG/1.1/DTD/svg11.dtd">
<svg width="64pt" height="64pt" viewBox="0 0 64 64" version="1.1" xmlns="http://www.w3.org/2000/svg">
<g id="#0a0a0a2a">
<path fill="#0a0a0a" opacity="0.16" d=" M 0.00 0.00 L 1.65 0.00 L 2.04 0.65 C 1.53 0.95 0.51 1.55 0.00 1.85 L 0.00 0.00 Z" />
</g>
<g id="#e5e5e5ff">
<path fill="#e5e5e5" opacity="1.00" d=" M 1.65 0.00 L 62.12 0.00 C 62.16 1.37 62.79 1.93 64.00 1.68 L 64.00 8.06 C 42.67 7.67 21.33 8.02 0.00 7.89 L 0.00 1.85 C 0.51 1.55 1.53 0.95 2.04 0.65 L 1.65 0.00 M 10.51 1.64 C 7.09 3.28 10.29 8.70 13.40 6.42 C 16.44 4.73 13.43 -0.22 10.51 1.64 M 19.45 1.56 C 18.39 2.16 17.02 3.69 17.94 4.93 C 18.39 7.09 21.62 7.56 22.81 5.79 C 24.82 3.80 21.80 0.16 19.45 1.56 M 28.43 1.42 C 26.55 1.89 25.72 4.40 27.00 5.86 C 28.25 7.53 31.40 7.04 31.86 4.93 C 32.63 2.90 30.41 0.70 28.43 1.42 Z" />
</g>
<g id="#0d0d0d31">
<path fill="#0d0d0d" opacity="0.19" d=" M 62.12 0.00 L 64.00 0.00 L 64.00 1.68 C 62.79 1.93 62.16 1.37 62.12 0.00 Z" />
</g>
<g id="#cd403bff">
<path fill="#cd403b" opacity="1.00" d=" M 10.51 1.64 C 13.43 -0.22 16.44 4.73 13.40 6.42 C 10.29 8.70 7.09 3.28 10.51 1.64 Z" />
</g>
<g id="#ffbd48ff">
<path fill="#ffbd48" opacity="1.00" d=" M 19.45 1.56 C 21.80 0.16 24.82 3.80 22.81 5.79 C 21.62 7.56 18.39 7.09 17.94 4.93 C 17.02 3.69 18.39 2.16 19.45 1.56 Z" />
</g>
<g id="#19b942ff">
<path fill="#19b942" opacity="1.00" d=" M 28.43 1.42 C 30.41 0.70 32.63 2.90 31.86 4.93 C 31.40 7.04 28.25 7.53 27.00 5.86 C 25.72 4.40 26.55 1.89 28.43 1.42 Z" />
</g>
<g id="#151718ff">
<path fill="#151718" opacity="1.00" d=" M 0.00 7.89 C 21.33 8.02 42.67 7.67 64.00 8.06 L 64.00 57.50 C 56.82 55.36 49.29 56.23 41.92 56.15 C 27.95 56.13 13.97 56.09 0.00 56.11 L 0.00 7.89 M 15.58 27.09 C 16.60 27.64 17.63 28.18 18.65 28.73 C 18.72 31.75 18.25 34.90 19.26 37.82 C 20.72 38.78 22.37 38.01 23.90 37.73 C 22.96 37.48 21.09 36.99 20.15 36.74 C 20.12 33.50 20.10 30.27 20.10 27.03 C 18.59 27.07 17.09 27.08 15.58 27.09 M 44.18 41.54 C 48.16 37.48 49.06 31.47 50.81 26.26 C 46.83 30.32 45.87 36.30 44.18 41.54 M 6.74 33.29 C 9.02 35.08 11.44 36.71 14.11 37.88 C 12.65 36.15 10.96 34.65 9.15 33.29 C 10.93 32.00 12.62 30.60 14.23 29.10 C 11.28 29.54 9.01 31.53 6.74 33.29 M 53.06 28.59 C 54.36 30.47 56.07 31.98 57.89 33.33 C 56.10 34.65 54.45 36.15 53.05 37.88 C 55.64 36.66 58.07 35.13 60.41 33.48 C 58.15 31.57 55.75 29.84 53.06 28.59 M 35.50 37.44 C 37.72 39.87 40.49 37.55 42.52 36.19 C 41.87 34.17 41.99 31.20 39.53 30.43 C 35.67 28.65 32.23 34.80 35.50 37.44 M 26.03 38.06 C 28.09 38.31 30.17 38.15 32.23 38.06 C 32.21 35.26 32.11 32.47 31.78 29.70 C 30.50 32.55 31.39 36.95 27.31 37.44 C 27.08 34.75 26.87 32.02 25.89 29.47 C 25.24 32.27 24.61 35.38 26.03 38.06 Z" />
</g>
<g id="#44b834ff">
<path fill="#44b834" opacity="1.00" d=" M 15.58 27.09 C 17.09 27.08 18.59 27.07 20.10 27.03 C 20.10 30.27 20.12 33.50 20.15 36.74 C 21.09 36.99 22.96 37.48 23.90 37.73 C 22.37 38.01 20.72 38.78 19.26 37.82 C 18.25 34.90 18.72 31.75 18.65 28.73 C 17.63 28.18 16.60 27.64 15.58 27.09 Z" />
</g>
<g id="#388d2dff">
<path fill="#388d2d" opacity="1.00" d=" M 44.18 41.54 C 45.87 36.30 46.83 30.32 50.81 26.26 C 49.06 31.47 48.16 37.48 44.18 41.54 Z" />
</g>
<g id="#3c9b30ff">
<path fill="#3c9b30" opacity="1.00" d=" M 6.74 33.29 C 9.01 31.53 11.28 29.54 14.23 29.10 C 12.62 30.60 10.93 32.00 9.15 33.29 C 10.96 34.65 12.65 36.15 14.11 37.88 C 11.44 36.71 9.02 35.08 6.74 33.29 Z" />
</g>
<g id="#3c9b2fff">
<path fill="#3c9b2f" opacity="1.00" d=" M 53.06 28.59 C 55.75 29.84 58.15 31.57 60.41 33.48 C 58.07 35.13 55.64 36.66 53.05 37.88 C 54.45 36.15 56.10 34.65 57.89 33.33 C 56.07 31.98 54.36 30.47 53.06 28.59 Z" />
</g>
<g id="#3c9a2fff">
<path fill="#3c9a2f" opacity="1.00" d=" M 35.50 37.44 C 32.23 34.80 35.67 28.65 39.53 30.43 C 41.99 31.20 41.87 34.17 42.52 36.19 C 40.49 37.55 37.72 39.87 35.50 37.44 M 36.54 32.51 C 35.23 33.62 36.00 37.40 38.14 36.98 C 42.21 37.35 40.08 28.91 36.54 32.51 Z" />
</g>
<g id="#3fa732ff">
<path fill="#3fa732" opacity="1.00" d=" M 26.03 38.06 C 24.61 35.38 25.24 32.27 25.89 29.47 C 26.87 32.02 27.08 34.75 27.31 37.44 C 31.39 36.95 30.50 32.55 31.78 29.70 C 32.11 32.47 32.21 35.26 32.23 38.06 C 30.17 38.15 28.09 38.31 26.03 38.06 Z" />
</g>
<g id="#151618ff">
<path fill="#151618" opacity="1.00" d=" M 36.54 32.51 C 40.08 28.91 42.21 37.35 38.14 36.98 C 36.00 37.40 35.23 33.62 36.54 32.51 Z" />
</g>
<g id="#212121ff">
<path fill="#212121" opacity="1.00" d=" M 0.00 56.11 C 13.97 56.09 27.95 56.13 41.92 56.15 C 49.29 56.23 56.82 55.36 64.00 57.50 L 64.00 62.18 C 62.61 62.13 62.06 62.74 62.33 64.00 L 1.82 64.00 C 1.87 62.61 1.26 62.06 0.00 62.33 L 0.00 56.11 Z" />
</g>
<g id="#02020231">
<path fill="#020202" opacity="0.19" d=" M 0.00 62.33 C 1.26 62.06 1.87 62.61 1.82 64.00 L 0.00 64.00 L 0.00 62.33 Z" />
</g>
<g id="#02020237">
<path fill="#020202" opacity="0.22" d=" M 62.33 64.00 C 62.06 62.74 62.61 62.13 64.00 62.18 L 64.00 64.00 L 62.33 64.00 Z" />
</g>
</svg>
