<?xml version="1.0" encoding="UTF-8" ?>
<!DOCTYPE svg PUBLIC "-//W3C//DTD SVG 1.1//EN" "http://www.w3.org/Graphics/SVG/1.1/DTD/svg11.dtd">
<svg width="48pt" height="48pt" viewBox="0 0 48 48" version="1.1" xmlns="http://www.w3.org/2000/svg">
<g id="#000000ff">
<path fill="#000000" opacity="1.00" d=" M 16.18 7.43 C 20.67 7.51 25.20 7.08 29.67 7.62 C 32.33 8.37 33.70 11.07 35.33 13.08 C 40.70 15.07 45.23 18.80 48.00 23.84 L 48.00 25.17 C 45.05 30.58 39.28 33.25 33.51 34.50 C 31.25 37.82 28.31 41.24 23.86 40.87 C 24.39 38.86 24.94 36.85 25.48 34.84 C 19.75 33.33 14.40 30.62 9.97 26.67 C 8.84 28.28 7.83 30.01 6.35 31.34 C 4.54 32.72 2.14 32.79 0.00 33.33 L 0.00 32.99 C 1.30 30.09 3.14 27.27 3.26 24.00 C 3.31 20.73 1.34 17.95 0.00 15.11 L 0.00 14.79 C 4.27 14.91 7.38 17.79 9.85 20.97 C 12.65 18.74 15.84 16.97 18.44 14.49 C 19.59 11.91 17.25 9.60 16.18 7.43 M 35.60 20.64 C 33.02 22.40 35.06 26.79 37.95 26.41 C 39.87 26.60 40.54 24.38 41.60 23.24 C 41.27 22.53 40.63 21.11 40.30 20.40 C 38.74 20.11 36.85 19.10 35.60 20.64 Z" />
<path fill="#000000" opacity="1.00" d=" M 36.66 22.25 C 37.61 20.69 40.13 22.40 39.03 23.85 C 38.08 25.41 35.56 23.72 36.66 22.25 Z" />
</g>
</svg>
