<?xml version="1.0" encoding="UTF-8" ?>
<!DOCTYPE svg PUBLIC "-//W3C//DTD SVG 1.1//EN" "http://www.w3.org/Graphics/SVG/1.1/DTD/svg11.dtd">
<svg width="32pt" height="32pt" viewBox="0 0 32 32" version="1.1" xmlns="http://www.w3.org/2000/svg">
<g id="#06082e8f">
<path fill="#06082e" opacity="0.56" d=" M 11.09 1.04 C 13.93 1.14 13.14 4.90 13.51 6.79 C 10.90 6.53 10.81 3.05 11.09 1.04 Z" />
</g>
<g id="#007e42ff">
<path fill="#007e42" opacity="1.00" d=" M 15.69 1.70 C 21.14 -1.25 26.36 4.71 32.00 3.36 L 32.00 3.44 C 27.86 6.11 22.52 3.07 18.44 5.88 L 17.94 7.02 C 17.93 7.03 17.93 7.05 17.92 7.05 C 17.44 7.47 16.49 8.31 16.01 8.73 C 13.88 7.16 12.92 3.12 15.69 1.70 Z" />
</g>
<g id="#c1171aff">
<path fill="#c1171a" opacity="1.00" d=" M 4.32 6.45 C 8.36 5.41 12.41 7.34 15.62 9.65 C 12.55 9.66 8.94 10.56 7.79 13.78 C 6.42 19.10 8.13 25.13 11.84 29.14 C 13.95 31.62 16.94 29.32 18.83 27.81 C 19.69 28.99 20.91 29.83 21.88 30.91 L 20.47 31.28 C 19.84 30.83 18.58 29.94 17.95 29.49 C 16.08 30.40 14.18 31.90 11.97 31.22 C 5.10 30.02 0.99 23.13 0.00 16.71 L 0.00 12.40 C 0.63 10.02 1.77 7.26 4.32 6.45 Z" />
</g>
<g id="#c11619ff">
<path fill="#c11619" opacity="1.00" d=" M 17.94 7.02 C 20.56 5.18 24.59 4.41 27.10 6.85 C 29.32 8.61 29.17 11.88 28.28 14.30 C 26.37 17.59 22.50 19.87 22.75 24.14 C 21.11 21.59 23.08 18.63 24.28 16.32 C 26.05 13.48 26.89 8.99 23.97 6.61 C 22.32 5.85 19.81 6.23 19.16 8.15 C 19.21 9.47 20.06 10.65 19.88 12.00 C 18.74 13.50 17.87 11.42 17.04 10.83 C 17.26 9.89 17.70 8.00 17.92 7.05 C 17.93 7.05 17.93 7.03 17.94 7.02 Z" />
</g>
<g id="#ffffffff">
<path fill="#ffffff" opacity="1.00" d=" M 19.16 8.15 C 19.81 6.23 22.32 5.85 23.97 6.61 C 26.89 8.99 26.05 13.48 24.28 16.32 C 23.08 18.63 21.11 21.59 22.75 24.14 C 23.23 24.45 24.20 25.05 24.69 25.35 C 24.85 26.48 24.86 27.61 24.73 28.75 C 24.37 27.90 23.66 26.22 23.31 25.38 C 21.11 25.27 19.63 27.11 20.77 29.15 C 21.70 29.21 23.55 29.34 24.47 29.40 C 23.78 30.18 22.89 30.67 21.88 30.91 C 20.91 29.83 19.69 28.99 18.83 27.81 C 16.94 29.32 13.95 31.62 11.84 29.14 C 8.13 25.13 6.42 19.10 7.79 13.78 C 8.94 10.56 12.55 9.66 15.62 9.65 C 15.97 9.94 16.69 10.54 17.04 10.83 C 17.87 11.42 18.74 13.50 19.88 12.00 C 20.06 10.65 19.21 9.47 19.16 8.15 M 15.90 18.03 C 15.82 19.47 16.87 20.60 17.95 21.38 C 19.52 20.63 19.59 18.76 19.77 17.28 C 18.42 16.90 17.16 17.71 15.90 18.03 Z" />
</g>
<g id="#dadadaff">
<path fill="#dadada" opacity="1.00" d=" M 15.90 18.03 C 17.16 17.71 18.42 16.90 19.77 17.28 C 19.59 18.76 19.52 20.63 17.95 21.38 C 16.87 20.60 15.82 19.47 15.90 18.03 Z" />
</g>
<g id="#c42326ff">
<path fill="#c42326" opacity="1.00" d=" M 20.77 29.15 C 19.63 27.11 21.11 25.27 23.31 25.38 C 23.66 26.22 24.37 27.90 24.73 28.75 L 24.47 29.40 C 23.55 29.34 21.70 29.21 20.77 29.15 Z" />
</g>
</svg>
