<?xml version="1.0" encoding="UTF-8" ?>
<!DOCTYPE svg PUBLIC "-//W3C//DTD SVG 1.1//EN" "http://www.w3.org/Graphics/SVG/1.1/DTD/svg11.dtd">
<svg width="16pt" height="16pt" viewBox="0 0 16 16" version="1.1" xmlns="http://www.w3.org/2000/svg">
<g id="#ffd000ff">
<path fill="#ffd000" opacity="1.00" d=" M 0.00 0.00 L 16.00 0.00 L 16.00 16.00 L 0.00 16.00 L 0.00 0.00 M 2.01 11.07 L 3.01 11.04 C 3.07 8.63 3.10 6.22 3.20 3.82 C 4.79 4.91 6.07 6.63 8.00 7.12 C 9.92 6.89 10.99 4.85 12.45 3.79 C 13.00 6.15 13.06 8.59 12.95 11.01 L 13.99 11.08 C 13.60 8.47 15.15 4.91 12.91 2.98 C 10.71 2.69 9.43 4.91 8.04 6.21 C 6.63 4.90 5.28 2.73 3.09 2.98 C 0.86 4.91 2.40 8.46 2.01 11.07 M 1.48 12.02 C 3.00 14.07 5.66 14.05 7.97 14.08 C 10.27 14.03 13.07 14.20 14.49 12.00 C 10.20 13.09 5.78 12.96 1.48 12.02 Z" />
</g>
<g id="#544d2cff">
<path fill="#544d2c" opacity="1.00" d=" M 2.01 11.07 C 2.40 8.46 0.86 4.91 3.09 2.98 C 5.28 2.73 6.63 4.90 8.04 6.21 C 9.43 4.91 10.71 2.69 12.91 2.98 C 15.15 4.91 13.60 8.47 13.99 11.08 L 12.95 11.01 C 13.06 8.59 13.00 6.15 12.45 3.79 C 10.99 4.85 9.92 6.89 8.00 7.12 C 6.07 6.63 4.79 4.91 3.20 3.82 C 3.10 6.22 3.07 8.63 3.01 11.04 L 2.01 11.07 Z" />
<path fill="#544d2c" opacity="1.00" d=" M 1.48 12.02 C 5.78 12.96 10.20 13.09 14.49 12.00 C 13.07 14.20 10.27 14.03 7.97 14.08 C 5.66 14.05 3.00 14.07 1.48 12.02 Z" />
</g>
</svg>
