<?xml version="1.0" encoding="UTF-8" ?>
<!DOCTYPE svg PUBLIC "-//W3C//DTD SVG 1.1//EN" "http://www.w3.org/Graphics/SVG/1.1/DTD/svg11.dtd">
<svg width="32pt" height="32pt" viewBox="0 0 32 32" version="1.1" xmlns="http://www.w3.org/2000/svg">
<g id="#fe0036fe">
<path fill="#fe0036" opacity="1.00" d=" M 1.26 7.00 C 2.75 7.01 4.24 7.01 5.73 7.01 C 6.99 10.28 8.29 13.53 9.59 16.79 C 10.79 13.50 12.13 10.27 13.40 7.01 C 14.89 7.01 16.38 7.01 17.87 7.00 C 17.87 12.45 17.87 17.91 17.87 23.36 C 17.03 23.36 15.35 23.36 14.51 23.36 C 14.50 19.92 14.52 16.48 14.48 13.04 C 13.07 16.46 11.91 19.98 10.35 23.33 L 8.71 23.43 C 7.34 19.96 5.97 16.48 4.62 13.00 C 4.64 16.45 4.64 19.90 4.63 23.35 C 3.79 23.36 2.12 23.38 1.28 23.39 C 1.24 17.93 1.27 12.46 1.26 7.00 Z" />
<path fill="#fe0036" opacity="1.00" d=" M 21.27 7.00 C 22.39 7.01 23.51 7.01 24.63 7.00 C 24.64 11.54 24.63 16.08 24.63 20.62 C 27.09 20.57 29.54 20.69 32.00 20.74 L 32.00 23.21 C 28.41 23.43 24.82 23.41 21.22 23.30 C 21.31 17.86 21.24 12.43 21.27 7.00 Z" />
</g>
</svg>
