<?xml version="1.0" encoding="UTF-8" ?>
<!DOCTYPE svg PUBLIC "-//W3C//DTD SVG 1.1//EN" "http://www.w3.org/Graphics/SVG/1.1/DTD/svg11.dtd">
<svg width="255pt" height="255pt" viewBox="0 0 255 255" version="1.1" xmlns="http://www.w3.org/2000/svg">
<g id="#a1d6ffff">
<path fill="#a1d6ff" opacity="1.00" d=" M 121.82 7.00 C 121.97 4.38 124.16 1.88 126.85 1.72 C 129.95 1.27 133.26 3.70 133.23 6.96 C 133.33 15.17 133.14 23.38 133.32 31.59 C 154.47 32.70 175.02 41.27 190.93 55.20 C 196.84 49.30 202.74 43.39 208.64 37.48 C 210.99 34.75 215.84 35.38 217.62 38.44 C 219.07 40.68 218.73 43.87 216.72 45.66 C 210.87 51.52 205.01 57.36 199.16 63.22 C 213.80 79.57 222.58 100.89 223.75 122.80 C 231.84 122.70 239.92 122.76 248.01 122.75 C 250.95 122.53 253.65 125.07 253.75 127.99 C 254.12 131.23 251.28 134.34 248.00 134.20 C 239.86 134.31 231.72 134.23 223.58 134.23 C 222.13 155.15 213.63 175.43 199.80 191.18 C 205.59 197.03 211.51 202.77 217.24 208.68 C 220.26 212.05 217.57 218.10 213.06 218.03 C 210.87 218.31 209.00 216.93 207.57 215.46 C 202.26 210.09 196.88 204.80 191.58 199.42 C 175.58 213.69 154.71 222.56 133.25 223.56 C 133.21 232.05 133.32 240.55 133.21 249.04 C 133.07 252.07 130.01 254.37 127.06 254.03 C 124.00 253.97 121.64 250.97 121.76 248.01 C 121.72 239.86 121.77 231.71 121.75 223.56 C 100.20 222.50 79.25 213.55 63.23 199.16 C 57.52 204.81 51.89 210.55 46.17 216.19 C 43.39 218.81 38.28 217.57 36.97 213.98 C 36.52 211.99 36.48 209.55 38.10 208.06 C 43.76 202.31 49.52 196.65 55.21 190.92 C 41.40 175.33 32.93 155.06 31.64 134.27 C 23.41 134.18 15.18 134.34 6.95 134.20 C 3.80 134.19 0.98 131.16 1.46 127.98 C 1.44 125.16 4.09 122.51 6.96 122.76 C 15.12 122.74 23.27 122.75 31.43 122.76 C 32.51 101.01 41.22 79.80 55.73 63.56 C 49.96 57.84 44.19 52.11 38.49 46.32 C 36.59 44.50 36.12 41.48 37.39 39.17 C 38.94 35.95 43.77 35.24 46.29 37.72 C 52.25 43.53 58.06 49.50 63.99 55.36 C 79.93 41.42 100.46 32.71 121.65 31.61 C 121.93 23.41 121.58 15.20 121.82 7.00 M 70.72 64.83 C 84.80 78.93 98.88 93.04 113.00 107.10 C 116.39 111.13 123.86 108.21 123.74 102.99 C 123.77 82.98 123.74 62.96 123.75 42.95 C 104.23 43.86 85.23 51.76 70.72 64.83 M 131.51 42.94 C 131.50 62.95 131.50 82.96 131.50 102.97 C 131.35 106.40 134.71 109.16 138.02 108.78 C 140.33 108.76 141.81 106.79 143.31 105.33 C 156.87 91.72 170.47 78.17 184.04 64.57 C 169.67 51.63 150.82 43.91 131.51 42.94 M 42.94 124.50 C 62.61 124.51 82.28 124.48 101.95 124.52 C 107.86 125.09 111.73 115.70 106.92 112.04 C 93.00 98.17 79.14 84.24 65.22 70.37 C 51.73 85.04 43.59 104.55 42.94 124.50 M 147.44 112.43 C 145.92 113.75 145.28 116.01 146.09 117.89 C 147.02 120.71 148.45 124.30 151.94 124.45 C 172.04 124.57 192.15 124.47 212.25 124.50 C 211.41 104.49 203.42 84.80 189.66 70.21 C 175.59 84.28 161.51 98.36 147.44 112.43 M 124.21 115.14 C 118.56 116.64 114.23 122.16 114.45 128.05 C 114.32 135.55 121.68 142.07 129.12 140.93 C 136.70 140.20 142.57 131.86 140.26 124.50 C 138.54 117.74 130.98 113.15 124.21 115.14 M 42.94 132.25 C 44.06 151.30 51.73 169.90 64.57 184.04 C 78.83 169.75 93.16 155.54 107.36 141.21 C 110.44 137.91 107.32 132.04 102.95 132.26 C 82.95 132.23 62.94 132.26 42.94 132.25 M 147.93 142.01 C 161.97 156.20 176.17 170.23 190.23 184.39 C 203.23 170.25 211.21 151.46 212.04 132.25 C 192.04 132.28 172.03 132.20 152.03 132.28 C 147.33 132.18 144.46 138.74 147.93 142.01 M 109.43 150.43 C 96.33 163.51 83.30 176.66 70.13 189.67 C 84.57 203.27 103.97 211.26 123.75 212.27 C 123.71 192.27 123.83 172.27 123.69 152.27 C 123.52 148.32 119.31 146.63 115.99 146.00 C 113.08 146.05 111.33 148.61 109.43 150.43 M 131.50 152.94 C 131.50 172.71 131.50 192.49 131.50 212.26 C 151.14 211.25 170.38 203.33 184.77 189.89 C 171.65 176.79 158.54 163.68 145.43 150.56 C 143.60 148.74 141.79 146.36 138.99 146.19 C 135.51 146.60 131.09 148.80 131.50 152.94 Z" />
</g>
</svg>
