<?xml version="1.0" encoding="UTF-8" ?>
<!DOCTYPE svg PUBLIC "-//W3C//DTD SVG 1.1//EN" "http://www.w3.org/Graphics/SVG/1.1/DTD/svg11.dtd">
<svg width="96pt" height="96pt" viewBox="0 0 96 96" version="1.1" xmlns="http://www.w3.org/2000/svg">
<g id="#000000ff">
<path fill="#000000" opacity="1.00" d=" M 0.00 11.99 C 8.00 12.05 16.01 11.93 24.00 12.05 C 23.99 19.96 24.01 27.87 23.99 35.78 C 15.78 28.09 8.08 19.87 0.00 12.05 L 0.00 11.99 Z" />
<path fill="#000000" opacity="1.00" d=" M 71.98 12.05 C 75.14 11.93 78.31 12.02 81.47 12.01 C 78.33 15.18 75.17 18.33 72.02 21.48 C 71.97 18.34 72.03 15.19 71.98 12.05 Z" />
<path fill="#000000" opacity="1.00" d=" M 91.36 12.01 C 92.91 11.99 94.45 12.00 96.00 12.00 L 96.00 17.62 L 95.39 17.35 C 89.54 23.80 83.09 29.73 77.02 35.99 C 80.24 35.84 83.58 36.30 86.75 35.79 C 89.80 32.66 92.93 29.60 96.00 26.49 L 96.00 48.00 C 88.00 48.01 80.01 47.98 72.01 48.02 C 71.99 52.01 71.99 56.00 72.01 60.00 C 68.01 60.00 64.00 60.01 60.00 59.99 C 60.00 56.00 60.00 52.00 60.00 48.00 C 64.00 47.99 67.99 48.02 71.99 47.99 C 72.02 43.99 72.00 40.00 71.99 36.00 C 72.01 34.45 71.99 32.91 72.01 31.36 C 78.47 24.92 84.92 18.47 91.36 12.01 Z" />
<path fill="#000000" opacity="1.00" d=" M 0.00 36.00 C 8.00 35.98 16.00 36.06 24.01 35.95 C 23.99 37.97 24.01 39.98 23.99 42.00 C 16.00 42.00 8.00 42.00 0.00 42.00 L 0.00 36.00 Z" />
<path fill="#000000" opacity="1.00" d=" M 48.00 35.97 L 48.05 35.97 C 52.03 36.04 56.02 35.97 60.00 36.01 C 60.00 40.00 60.00 44.00 60.00 48.00 C 56.00 48.00 52.00 48.00 48.01 48.00 C 47.99 43.99 48.00 39.98 48.00 35.97 Z" />
<path fill="#000000" opacity="1.00" d=" M 0.00 48.00 C 8.00 48.00 16.00 48.00 23.99 48.00 C 24.01 50.00 24.00 52.00 24.00 54.00 C 16.00 54.00 8.00 54.00 0.00 54.00 L 0.00 48.00 Z" />
<path fill="#000000" opacity="1.00" d=" M 0.00 60.00 C 4.00 60.00 8.00 59.99 12.00 60.00 C 12.00 68.00 12.00 76.00 12.00 83.99 C 8.00 84.01 4.00 83.99 0.00 84.00 L 0.00 60.00 Z" />
<path fill="#000000" opacity="1.00" d=" M 24.13 60.07 C 32.08 59.91 40.04 60.04 48.00 60.00 C 48.00 67.99 48.01 75.98 47.99 83.97 C 40.02 76.02 32.03 68.09 24.13 60.07 Z" />
</g>
<g id="#ffffffff">
<path fill="#ffffff" opacity="1.00" d=" M 81.47 12.01 C 84.77 11.99 88.07 12.00 91.36 12.01 C 84.92 18.47 78.47 24.92 72.01 31.36 C 72.00 28.07 71.98 24.77 72.02 21.48 C 75.17 18.33 78.33 15.18 81.47 12.01 Z" />
<path fill="#ffffff" opacity="1.00" d=" M 95.39 17.35 L 96.00 17.62 L 96.00 26.49 C 92.93 29.60 89.80 32.66 86.75 35.79 C 83.58 36.30 80.24 35.84 77.02 35.99 C 83.09 29.73 89.54 23.80 95.39 17.35 Z" />
<path fill="#ffffff" opacity="1.00" d=" M 60.00 36.01 C 64.00 35.99 68.00 36.00 71.99 36.00 C 72.00 40.00 72.02 43.99 71.99 47.99 C 67.99 48.02 64.00 47.99 60.00 48.00 C 60.00 44.00 60.00 40.00 60.00 36.01 Z" />
<path fill="#ffffff" opacity="1.00" d=" M 0.00 42.00 C 8.00 42.00 16.00 42.00 23.99 42.00 C 24.01 44.00 24.01 46.00 23.99 48.00 C 16.00 48.00 8.00 48.00 0.00 48.00 L 0.00 42.00 Z" />
<path fill="#ffffff" opacity="1.00" d=" M 48.01 48.00 C 52.00 48.00 56.00 48.00 60.00 48.00 C 60.00 52.00 60.00 56.00 60.00 59.99 C 56.00 60.01 52.00 60.00 48.00 60.00 C 48.01 56.00 47.99 52.00 48.01 48.00 Z" />
<path fill="#ffffff" opacity="1.00" d=" M 0.00 54.00 C 8.00 54.00 16.00 54.00 24.00 54.00 C 24.01 55.98 23.98 57.97 24.02 59.95 C 20.01 60.06 16.01 59.96 12.00 60.00 C 8.00 59.99 4.00 60.00 0.00 60.00 L 0.00 54.00 Z" />
<path fill="#ffffff" opacity="1.00" d=" M 82.36 65.51 C 87.25 64.10 92.21 69.41 90.25 74.16 C 88.98 78.87 82.47 80.07 79.20 76.72 C 75.56 73.39 77.52 66.43 82.36 65.51 Z" />
</g>
<g id="#00aa55ff">
<path fill="#00aa55" opacity="1.00" d=" M 0.00 12.05 C 8.08 19.87 15.78 28.09 23.99 35.78 L 24.01 35.95 C 16.00 36.06 8.00 35.98 0.00 36.00 L 0.00 12.05 Z" />
<path fill="#00aa55" opacity="1.00" d=" M 48.00 60.00 C 52.00 60.00 56.00 60.01 60.00 59.99 C 64.00 60.01 68.01 60.00 72.01 60.00 L 71.97 60.03 C 63.97 68.00 56.03 76.03 47.99 83.97 C 48.01 75.98 48.00 67.99 48.00 60.00 Z" />
</g>
<g id="#fbbf4aff">
<path fill="#fbbf4a" opacity="1.00" d=" M 24.00 12.05 C 32.01 19.99 39.98 27.97 47.94 35.97 C 39.96 36.00 31.98 36.05 24.01 35.95 L 23.99 35.78 C 24.01 27.87 23.99 19.96 24.00 12.05 Z" />
<path fill="#fbbf4a" opacity="1.00" d=" M 72.01 48.02 C 80.01 47.98 88.00 48.01 96.00 48.00 L 96.00 60.00 C 88.00 60.00 80.01 60.01 72.01 60.00 C 71.99 56.00 71.99 52.01 72.01 48.02 Z" />
</g>
<g id="#eb321eff">
<path fill="#eb321e" opacity="1.00" d=" M 48.05 35.97 C 56.01 27.99 63.98 20.00 71.98 12.05 C 72.03 15.19 71.97 18.34 72.02 21.48 C 71.98 24.77 72.00 28.07 72.01 31.36 C 71.99 32.91 72.01 34.45 71.99 36.00 C 68.00 36.00 64.00 35.99 60.00 36.01 C 56.02 35.97 52.03 36.04 48.05 35.97 Z" />
<path fill="#eb321e" opacity="1.00" d=" M 12.00 60.00 C 16.01 59.96 20.01 60.06 24.02 59.95 C 23.96 67.97 24.03 75.98 23.99 83.99 C 19.99 84.02 15.99 84.00 12.00 83.99 C 12.00 76.00 12.00 68.00 12.00 60.00 Z" />
</g>
<g id="#55aae3ff">
<path fill="#55aae3" opacity="1.00" d=" M 24.01 35.95 C 31.98 36.05 39.96 36.00 47.94 35.97 L 48.00 35.97 C 48.00 39.98 47.99 43.99 48.01 48.00 C 47.99 52.00 48.01 56.00 48.00 60.00 C 40.04 60.04 32.08 59.91 24.13 60.07 L 24.02 59.95 C 23.98 57.97 24.01 55.98 24.00 54.00 C 24.00 52.00 24.01 50.00 23.99 48.00 C 24.01 46.00 24.01 44.00 23.99 42.00 C 24.01 39.98 23.99 37.97 24.01 35.95 Z" />
<path fill="#55aae3" opacity="1.00" d=" M 72.01 60.00 C 80.01 60.01 88.00 60.00 96.00 60.00 L 96.00 84.00 C 88.00 83.99 80.01 84.02 72.01 83.99 C 71.97 76.00 72.04 68.02 71.97 60.03 L 72.01 60.00 M 82.36 65.51 C 77.52 66.43 75.56 73.39 79.20 76.72 C 82.47 80.07 88.98 78.87 90.25 74.16 C 92.21 69.41 87.25 64.10 82.36 65.51 Z" />
</g>
</svg>
