<?xml version="1.0" encoding="UTF-8" ?>
<!DOCTYPE svg PUBLIC "-//W3C//DTD SVG 1.1//EN" "http://www.w3.org/Graphics/SVG/1.1/DTD/svg11.dtd">
<svg width="16pt" height="16pt" viewBox="0 0 16 16" version="1.1" xmlns="http://www.w3.org/2000/svg">
<g id="#343434ff">
<path fill="#343434" opacity="1.00" d=" M 3.09 1.99 C 4.98 2.01 6.88 2.01 8.77 1.98 C 9.50 5.94 10.28 10.06 9.13 14.02 C 7.43 13.99 5.73 13.99 4.04 14.00 C 4.01 10.86 3.92 7.72 3.81 4.58 C 2.72 8.08 3.19 12.42 0.00 14.92 L 0.00 13.92 C 0.93 9.92 2.16 5.99 3.09 1.99 Z" />
<path fill="#343434" opacity="1.00" d=" M 10.45 1.97 C 12.30 2.00 14.15 2.00 16.00 2.00 L 16.00 14.00 C 14.39 14.00 12.79 14.00 11.18 14.00 C 10.85 10.00 9.92 6.00 10.45 1.97 Z" />
</g>
</svg>
