<?xml version="1.0" encoding="UTF-8" ?>
<!DOCTYPE svg PUBLIC "-//W3C//DTD SVG 1.1//EN" "http://www.w3.org/Graphics/SVG/1.1/DTD/svg11.dtd">
<svg width="72pt" height="72pt" viewBox="0 0 72 72" version="1.1" xmlns="http://www.w3.org/2000/svg">
<g id="#009fdafe">
<path fill="#009fda" opacity="1.00" d=" M 25.44 20.45 C 28.58 18.04 31.68 21.55 33.51 23.87 C 23.74 33.57 14.05 43.36 4.16 52.92 C 2.61 51.32 0.64 49.91 0.00 47.66 L 0.00 46.87 C 0.43 45.50 1.30 44.36 2.35 43.40 C 10.09 35.80 17.61 27.96 25.44 20.45 Z" />
<path fill="#009fda" opacity="1.00" d=" M 45.10 20.01 C 48.40 18.40 50.82 21.66 52.69 23.84 C 43.06 33.52 33.30 43.07 23.64 52.73 C 21.01 51.09 17.59 47.43 20.49 44.45 C 28.68 36.29 36.72 27.96 45.10 20.01 Z" />
<path fill="#009fda" opacity="1.00" d=" M 62.14 22.26 C 63.45 20.99 64.89 19.32 66.93 19.63 C 69.16 19.93 70.50 21.99 72.00 23.45 L 72.00 24.05 C 62.36 33.67 52.73 43.31 43.00 52.86 C 40.69 50.96 37.53 47.96 39.74 44.80 C 47.08 37.17 54.71 29.81 62.14 22.26 Z" />
</g>
</svg>
