<?xml version="1.0" encoding="UTF-8" ?>
<!DOCTYPE svg PUBLIC "-//W3C//DTD SVG 1.1//EN" "http://www.w3.org/Graphics/SVG/1.1/DTD/svg11.dtd">
<svg width="32pt" height="32pt" viewBox="0 0 32 32" version="1.1" xmlns="http://www.w3.org/2000/svg">
<g id="#d94629ff">
<path fill="#d94629" opacity="1.00" d=" M 0.00 0.00 L 32.00 0.00 L 32.00 32.00 L 0.00 32.00 L 0.00 0.00 M 7.53 7.66 C 7.57 11.97 7.57 16.27 7.47 20.58 C 10.15 19.97 12.88 20.07 15.53 20.74 C 15.43 16.46 15.40 12.17 15.50 7.89 C 12.92 6.89 10.16 6.84 7.53 7.66 M 16.95 7.97 C 17.03 12.27 17.01 16.58 16.98 20.88 C 19.59 20.03 22.33 19.99 25.01 20.56 C 25.00 16.26 24.98 11.95 25.02 7.65 C 22.34 6.90 19.53 6.83 16.95 7.97 M 6.88 23.55 C 10.00 23.25 13.23 22.92 16.13 24.41 C 19.07 23.11 22.27 23.00 25.35 23.81 C 23.85 19.91 19.07 22.30 16.10 22.61 C 13.06 22.08 9.07 20.23 6.88 23.55 Z" />
</g>
<g id="#ffffffff">
<path fill="#ffffff" opacity="1.00" d=" M 7.53 7.66 C 10.16 6.84 12.92 6.89 15.50 7.89 C 15.40 12.17 15.43 16.46 15.53 20.74 C 12.88 20.07 10.15 19.97 7.47 20.58 C 7.57 16.27 7.57 11.97 7.53 7.66 Z" />
<path fill="#ffffff" opacity="1.00" d=" M 16.95 7.97 C 19.53 6.83 22.34 6.90 25.02 7.65 C 24.98 11.95 25.00 16.26 25.01 20.56 C 22.33 19.99 19.59 20.03 16.98 20.88 C 17.01 16.58 17.03 12.27 16.95 7.97 Z" />
<path fill="#ffffff" opacity="1.00" d=" M 6.88 23.55 C 9.07 20.23 13.06 22.08 16.10 22.61 C 19.07 22.30 23.85 19.91 25.35 23.81 C 22.27 23.00 19.07 23.11 16.13 24.41 C 13.23 22.92 10.00 23.25 6.88 23.55 Z" />
</g>
</svg>
