<?xml version="1.0" encoding="UTF-8" ?>
<!DOCTYPE svg PUBLIC "-//W3C//DTD SVG 1.1//EN" "http://www.w3.org/Graphics/SVG/1.1/DTD/svg11.dtd">
<svg width="300pt" height="300pt" viewBox="0 0 300 300" version="1.1" xmlns="http://www.w3.org/2000/svg">
<g id="#082036ff">
<path fill="#082036" opacity="1.00" d=" M 0.00 0.00 L 300.00 0.00 L 300.00 300.00 L 0.00 300.00 L 0.00 0.00 M 160.31 174.31 C 160.41 200.20 160.33 226.10 160.35 251.99 C 167.20 252.00 174.05 252.00 180.90 252.00 C 180.97 235.96 180.75 219.91 181.01 203.88 C 183.96 209.07 185.22 215.04 187.82 220.42 C 189.31 224.82 190.99 229.16 192.81 233.43 C 194.93 239.67 197.56 245.73 199.68 251.97 C 202.98 252.01 206.28 252.00 209.58 252.00 C 210.11 250.47 210.65 248.96 211.17 247.43 C 214.05 240.51 216.65 233.47 219.19 226.42 C 222.46 219.03 224.68 211.18 228.11 203.88 C 228.35 219.91 228.15 235.96 228.21 252.00 C 235.07 252.00 241.93 252.00 248.79 252.00 C 248.79 226.10 248.76 200.21 248.80 174.32 C 239.34 174.36 229.87 174.41 220.40 174.29 C 219.49 176.70 218.63 179.13 217.81 181.57 C 214.40 189.68 211.61 198.03 208.37 206.21 C 207.09 209.43 206.30 212.91 204.34 215.81 C 203.32 211.93 201.72 208.26 200.19 204.57 C 196.46 194.44 192.79 184.28 188.66 174.30 C 179.21 174.39 169.76 174.38 160.31 174.31 Z" />
</g>
<g id="#ffffffff">
<path fill="#ffffff" opacity="1.00" d=" M 160.31 174.31 C 169.76 174.38 179.21 174.39 188.66 174.30 C 192.79 184.28 196.46 194.44 200.19 204.57 C 201.72 208.26 203.32 211.93 204.34 215.81 C 206.30 212.91 207.09 209.43 208.37 206.21 C 211.61 198.03 214.40 189.68 217.81 181.57 C 218.63 179.13 219.49 176.70 220.40 174.29 C 229.87 174.41 239.34 174.36 248.80 174.32 C 248.76 200.21 248.79 226.10 248.79 252.00 C 241.93 252.00 235.07 252.00 228.21 252.00 C 228.15 235.96 228.35 219.91 228.11 203.88 C 224.68 211.18 222.46 219.03 219.19 226.42 C 216.65 233.47 214.05 240.51 211.17 247.43 C 210.65 248.96 210.11 250.47 209.58 252.00 C 206.28 252.00 202.98 252.01 199.68 251.97 C 197.56 245.73 194.93 239.67 192.81 233.43 C 190.99 229.16 189.31 224.82 187.82 220.42 C 185.22 215.04 183.96 209.07 181.01 203.88 C 180.75 219.91 180.97 235.96 180.90 252.00 C 174.05 252.00 167.20 252.00 160.35 251.99 C 160.33 226.10 160.41 200.20 160.31 174.31 Z" />
</g>
</svg>
