<?xml version="1.0" encoding="UTF-8" ?>
<!DOCTYPE svg PUBLIC "-//W3C//DTD SVG 1.1//EN" "http://www.w3.org/Graphics/SVG/1.1/DTD/svg11.dtd">
<svg width="64pt" height="64pt" viewBox="0 0 64 64" version="1.1" xmlns="http://www.w3.org/2000/svg">
<g id="#e9d5aaff">
<path fill="#e9d5aa" opacity="1.00" d=" M 0.00 30.85 C 0.51 20.68 8.73 11.55 18.87 10.28 C 24.63 9.27 30.37 11.25 35.28 14.14 C 41.23 17.76 44.08 25.26 43.72 32.02 C 43.98 38.93 40.12 45.35 34.98 49.69 C 27.73 54.91 17.29 55.26 9.87 50.20 C 3.97 46.41 0.32 39.63 0.00 32.67 L 0.00 30.85 Z" />
</g>
<g id="#9bc6bcff">
<path fill="#9bc6bc" opacity="1.00" d=" M 35.28 14.14 C 41.04 11.59 47.92 11.45 53.50 14.57 C 59.75 17.83 63.71 24.57 64.00 31.56 L 64.00 32.29 C 63.71 39.33 59.74 46.19 53.39 49.41 C 47.74 52.54 40.78 52.26 34.98 49.69 C 40.12 45.35 43.98 38.93 43.72 32.02 C 44.08 25.26 41.23 17.76 35.28 14.14 Z" />
</g>
</svg>
