<?xml version="1.0" encoding="UTF-8" ?>
<!DOCTYPE svg PUBLIC "-//W3C//DTD SVG 1.1//EN" "http://www.w3.org/Graphics/SVG/1.1/DTD/svg11.dtd">
<svg width="32pt" height="32pt" viewBox="0 0 32 32" version="1.1" xmlns="http://www.w3.org/2000/svg">
<g id="#927a38bd">
<path fill="#927a38" opacity="0.74" d=" M 12.95 0.00 L 19.32 0.00 C 25.43 1.56 30.16 6.34 32.00 12.32 L 32.00 18.90 C 30.40 25.79 24.53 30.90 17.60 32.00 L 15.82 32.00 C 15.56 30.71 15.36 29.40 15.06 28.11 C 13.26 26.19 10.96 24.83 8.92 23.17 C 8.86 19.56 8.23 15.77 9.72 12.34 C 10.26 15.71 9.65 19.21 10.59 22.50 C 11.90 24.37 14.04 25.47 16.10 26.32 C 18.06 25.75 19.72 24.46 21.21 23.10 L 21.89 22.43 C 22.00 19.08 21.72 15.61 23.11 12.46 C 23.98 16.17 23.74 20.00 23.12 23.73 C 20.59 25.61 16.78 26.79 16.54 30.48 C 22.79 29.94 28.88 25.57 30.27 19.27 C 32.17 12.25 27.80 4.32 20.89 2.12 C 14.97 -0.08 7.89 2.29 4.32 7.46 C -0.02 13.32 1.27 22.48 7.01 26.97 C 8.97 28.56 11.42 29.34 13.73 30.29 C 13.81 30.71 13.98 31.57 14.06 32.00 L 13.49 32.00 C 10.67 30.76 7.70 29.62 5.45 27.44 C 2.73 25.13 1.48 21.68 0.11 18.51 L 0.00 20.41 L 0.00 14.12 C 1.22 7.35 6.24 1.70 12.95 0.00 Z" />
<path fill="#927a38" opacity="0.74" d=" M 15.37 11.01 C 15.46 8.36 15.07 5.49 16.55 3.12 C 16.90 5.80 17.04 8.51 17.24 11.20 C 18.77 9.87 20.03 8.30 20.95 6.49 C 21.64 12.00 21.12 17.56 21.21 23.10 C 19.03 23.65 16.79 25.90 14.52 24.62 C 13.15 23.79 11.15 22.89 11.08 21.05 C 10.82 16.18 11.01 11.29 11.04 6.42 C 11.65 7.38 12.26 8.34 12.86 9.30 C 13.49 9.72 14.74 10.58 15.37 11.01 M 11.86 10.95 C 12.41 12.95 13.78 14.37 15.69 15.13 C 15.44 14.15 15.19 13.17 14.93 12.19 C 13.91 11.77 12.89 11.35 11.86 10.95 M 17.07 13.22 C 15.96 14.61 17.93 15.08 18.57 15.92 C 18.12 16.76 17.23 18.45 16.78 19.30 C 19.26 18.68 21.48 15.67 18.53 14.07 C 18.93 13.23 19.75 11.55 20.15 10.71 C 19.18 11.54 17.31 11.74 17.07 13.22 M 12.11 14.86 C 12.25 15.60 12.55 17.07 12.69 17.81 C 12.65 18.55 12.43 19.24 12.03 19.87 C 12.65 21.59 13.88 22.87 15.76 23.05 C 15.54 22.37 15.10 21.01 14.88 20.33 L 13.61 20.56 C 13.96 20.16 14.67 19.35 15.02 18.95 L 15.54 18.63 C 15.67 16.57 13.59 15.72 12.11 14.86 M 16.74 23.28 C 17.78 22.78 18.82 22.26 19.86 21.73 C 19.89 21.03 19.94 19.62 19.97 18.91 C 18.42 20.01 16.60 21.07 16.74 23.28 Z" />
</g>
</svg>
