<?xml version="1.0" encoding="UTF-8" ?>
<!DOCTYPE svg PUBLIC "-//W3C//DTD SVG 1.1//EN" "http://www.w3.org/Graphics/SVG/1.1/DTD/svg11.dtd">
<svg width="16pt" height="16pt" viewBox="0 0 16 16" version="1.1" xmlns="http://www.w3.org/2000/svg">
<g id="#272727ff">
<path fill="#272727" opacity="1.00" d=" M 0.00 0.00 L 16.00 0.00 L 16.00 4.67 C 14.64 5.09 13.27 5.49 11.87 5.77 C 10.52 3.02 7.60 2.63 5.00 3.75 C 4.75 4.41 4.24 5.73 3.99 6.39 C 5.95 7.81 8.19 8.78 10.40 9.73 C 8.58 11.32 6.69 10.46 5.00 9.15 C 4.64 9.36 3.93 9.77 3.57 9.98 C 2.34 10.79 1.15 11.67 0.00 12.60 L 0.00 0.00 Z" />
</g>
<g id="#ccccccff">
<path fill="#cccccc" opacity="1.00" d=" M 5.00 3.75 C 7.60 2.63 10.52 3.02 11.87 5.77 L 10.21 5.77 C 8.71 5.57 7.21 5.39 5.69 5.31 C 7.48 6.33 9.55 6.88 11.16 8.19 C 12.43 9.69 11.05 12.11 9.19 12.22 C 6.97 13.00 5.14 11.27 3.57 9.98 C 3.93 9.77 4.64 9.36 5.00 9.15 C 6.69 10.46 8.58 11.32 10.40 9.73 C 8.19 8.78 5.95 7.81 3.99 6.39 C 4.24 5.73 4.75 4.41 5.00 3.75 Z" />
</g>
<g id="#010101ff">
<path fill="#010101" opacity="1.00" d=" M 5.69 5.31 C 7.21 5.39 8.71 5.57 10.21 5.77 L 11.87 5.77 C 13.27 5.49 14.64 5.09 16.00 4.67 L 16.00 16.00 L 0.00 16.00 L 0.00 12.60 C 1.15 11.67 2.34 10.79 3.57 9.98 C 5.14 11.27 6.97 13.00 9.19 12.22 C 11.05 12.11 12.43 9.69 11.16 8.19 C 9.55 6.88 7.48 6.33 5.69 5.31 Z" />
</g>
</svg>
