<?xml version="1.0" encoding="UTF-8" ?>
<!DOCTYPE svg PUBLIC "-//W3C//DTD SVG 1.1//EN" "http://www.w3.org/Graphics/SVG/1.1/DTD/svg11.dtd">
<svg width="48pt" height="48pt" viewBox="0 0 48 48" version="1.1" xmlns="http://www.w3.org/2000/svg">
<g id="#ffffffff">
<path fill="#ffffff" opacity="1.00" d=" M 0.00 0.00 L 26.01 0.00 C 24.87 2.55 29.26 2.58 28.06 0.00 L 48.00 0.00 L 48.00 48.00 L 0.00 48.00 L 0.00 0.00 M 13.47 2.50 C 12.15 4.13 13.00 6.57 12.76 8.51 C 15.64 8.24 17.95 5.79 20.66 4.73 C 22.33 4.42 23.37 2.40 22.22 0.97 C 19.24 0.50 16.10 1.05 13.47 2.50 M 26.80 5.00 C 27.15 7.40 27.30 9.87 28.03 12.21 C 31.83 10.93 35.06 8.25 38.76 6.64 C 37.65 4.61 35.30 3.70 33.40 2.55 C 31.05 1.11 28.40 3.44 26.80 5.00 M 2.07 14.65 C 4.30 13.98 6.29 12.27 8.55 11.44 C 8.86 9.39 8.72 7.30 8.72 5.24 C 6.01 7.98 3.43 10.99 2.07 14.65 M 40.28 7.29 C 40.10 8.72 43.27 9.45 41.04 10.71 C 37.44 12.54 33.98 14.64 30.46 16.62 C 28.45 17.43 30.47 19.63 30.74 20.95 C 29.40 22.14 27.64 22.23 25.94 22.32 C 25.72 21.74 25.26 20.59 25.04 20.02 C 23.30 20.43 21.86 21.60 20.25 22.32 C 19.50 20.02 16.10 21.99 14.76 20.03 C 16.24 19.19 17.81 18.46 19.09 17.34 C 20.71 16.85 22.11 15.85 23.55 15.01 C 23.38 12.45 23.38 9.45 22.21 7.19 C 19.30 8.99 16.31 10.67 13.38 12.42 C 13.32 12.95 13.20 14.03 13.14 14.57 L 13.73 14.90 C 12.98 16.54 14.04 18.33 14.07 20.03 C 12.64 20.11 11.22 20.20 9.80 20.31 C 9.41 18.61 9.21 16.88 8.83 15.18 C 6.37 16.24 4.27 17.98 1.80 19.04 L 1.87 19.61 L 1.00 19.74 C 1.01 22.26 0.99 24.78 1.00 27.30 C 1.24 29.13 1.50 31.60 2.80 32.84 C 4.76 36.83 7.55 41.16 11.75 42.93 C 12.30 44.19 13.69 44.62 14.83 45.14 C 22.29 48.13 31.37 47.71 38.02 42.95 C 43.44 39.17 47.86 32.81 47.00 25.94 C 46.73 21.87 48.02 16.95 44.75 13.76 C 44.12 11.16 41.84 9.36 40.28 7.29 Z" />
</g>
<g id="#d4eee0ff">
<path fill="#d4eee0" opacity="1.00" d=" M 26.01 0.00 L 28.06 0.00 C 29.26 2.58 24.87 2.55 26.01 0.00 Z" />
</g>
<g id="#11a150ff">
<path fill="#11a150" opacity="1.00" d=" M 13.47 2.50 C 16.10 1.05 19.24 0.50 22.22 0.97 C 23.37 2.40 22.33 4.42 20.66 4.73 C 17.95 5.79 15.64 8.24 12.76 8.51 C 13.00 6.57 12.15 4.13 13.47 2.50 Z" />
<path fill="#11a150" opacity="1.00" d=" M 26.80 5.00 C 28.40 3.44 31.05 1.11 33.40 2.55 C 35.30 3.70 37.65 4.61 38.76 6.64 C 35.06 8.25 31.83 10.93 28.03 12.21 C 27.30 9.87 27.15 7.40 26.80 5.00 Z" />
<path fill="#11a150" opacity="1.00" d=" M 40.28 7.29 C 41.84 9.36 44.12 11.16 44.75 13.76 C 45.12 16.86 46.26 19.83 46.34 22.97 C 46.15 26.90 45.09 30.84 42.94 34.16 C 40.52 32.28 38.22 29.65 35.03 29.24 L 34.45 29.14 C 33.87 27.73 33.23 26.35 32.52 24.99 C 31.91 23.65 31.34 22.30 30.74 20.95 C 30.47 19.63 28.45 17.43 30.46 16.62 C 33.98 14.64 37.44 12.54 41.04 10.71 C 43.27 9.45 40.10 8.72 40.28 7.29 Z" />
<path fill="#11a150" opacity="1.00" d=" M 13.38 12.42 C 16.31 10.67 19.30 8.99 22.21 7.19 C 23.38 9.45 23.38 12.45 23.55 15.01 C 22.11 15.85 20.71 16.85 19.09 17.34 C 17.62 15.91 15.87 14.83 13.73 14.90 L 13.14 14.57 C 13.20 14.03 13.32 12.95 13.38 12.42 Z" />
</g>
<g id="#029359ff">
<path fill="#029359" opacity="1.00" d=" M 2.07 14.65 C 3.43 10.99 6.01 7.98 8.72 5.24 C 8.72 7.30 8.86 9.39 8.55 11.44 C 6.29 12.27 4.30 13.98 2.07 14.65 Z" />
</g>
<g id="#61696bff">
<path fill="#61696b" opacity="1.00" d=" M 44.75 13.76 C 48.02 16.95 46.73 21.87 47.00 25.94 C 47.86 32.81 43.44 39.17 38.02 42.95 C 31.37 47.71 22.29 48.13 14.83 45.14 C 13.69 44.62 12.30 44.19 11.75 42.93 C 14.26 43.36 16.57 44.50 19.03 45.11 C 20.75 45.40 22.50 45.35 24.24 45.30 C 27.40 45.44 30.47 44.42 33.25 43.01 C 34.27 42.56 35.27 42.05 36.09 41.28 C 37.45 40.19 38.79 39.07 40.11 37.95 C 41.53 37.08 42.29 35.63 42.94 34.16 C 45.09 30.84 46.15 26.90 46.34 22.97 C 46.26 19.83 45.12 16.86 44.75 13.76 Z" />
</g>
<g id="#14778eff">
<path fill="#14778e" opacity="1.00" d=" M 1.80 19.04 C 4.27 17.98 6.37 16.24 8.83 15.18 C 9.21 16.88 9.41 18.61 9.80 20.31 C 9.78 20.91 9.74 22.10 9.72 22.70 C 9.27 23.07 8.38 23.80 7.93 24.17 L 7.31 23.95 C 5.72 22.24 3.61 21.16 1.87 19.61 L 1.80 19.04 Z" />
</g>
<g id="#13976cff">
<path fill="#13976c" opacity="1.00" d=" M 13.73 14.90 C 15.87 14.83 17.62 15.91 19.09 17.34 C 17.81 18.46 16.24 19.19 14.76 20.03 L 14.07 20.03 C 14.04 18.33 12.98 16.54 13.73 14.90 Z" />
</g>
<g id="#1a669fff">
<path fill="#1a669f" opacity="1.00" d=" M 1.00 19.74 L 1.87 19.61 C 3.61 21.16 5.72 22.24 7.31 23.95 C 6.15 24.74 4.98 25.53 3.78 26.27 C 2.86 26.61 1.93 26.96 1.00 27.30 C 0.99 24.78 1.01 22.26 1.00 19.74 Z" />
</g>
<g id="#d3cee9ff">
<path fill="#d3cee9" opacity="1.00" d=" M 9.80 20.31 C 11.22 20.20 12.64 20.11 14.07 20.03 L 14.76 20.03 C 16.10 21.99 19.50 20.02 20.25 22.32 L 19.62 22.96 C 18.28 23.54 16.99 24.26 15.78 25.09 C 13.22 26.30 10.44 24.86 7.93 24.17 C 8.38 23.80 9.27 23.07 9.72 22.70 C 9.74 22.10 9.78 20.91 9.80 20.31 Z" />
</g>
<g id="#059268ff">
<path fill="#059268" opacity="1.00" d=" M 20.25 22.32 C 21.86 21.60 23.30 20.43 25.04 20.02 C 25.26 20.59 25.72 21.74 25.94 22.32 C 26.27 23.22 26.62 24.12 26.99 25.02 C 27.13 25.56 27.40 26.63 27.54 27.17 C 26.56 28.10 25.49 26.99 24.63 26.53 C 22.91 25.40 21.24 24.21 19.62 22.96 L 20.25 22.32 Z" />
</g>
<g id="#dcdcedff">
<path fill="#dcdced" opacity="1.00" d=" M 30.74 20.95 C 31.34 22.30 31.91 23.65 32.52 24.99 C 30.83 26.08 28.82 25.03 26.99 25.02 C 26.62 24.12 26.27 23.22 25.94 22.32 C 27.64 22.23 29.40 22.14 30.74 20.95 Z" />
</g>
<g id="#127b8aff">
<path fill="#127b8a" opacity="1.00" d=" M 15.78 25.09 C 16.99 24.26 18.28 23.54 19.62 22.96 C 21.24 24.21 22.91 25.40 24.63 26.53 C 25.49 26.99 26.56 28.10 27.54 27.17 C 28.01 27.84 28.48 28.52 28.95 29.19 C 29.39 30.67 30.07 32.05 30.90 33.35 C 32.18 36.27 34.18 38.77 36.09 41.28 C 35.27 42.05 34.27 42.56 33.25 43.01 C 31.41 40.66 28.55 39.56 26.22 37.79 C 23.71 36.32 21.84 33.89 19.02 32.94 C 18.83 32.69 18.46 32.20 18.28 31.95 C 17.57 30.28 16.91 28.58 16.31 26.87 C 16.17 26.42 15.91 25.54 15.78 25.09 Z" />
</g>
<g id="#a8a1d1ff">
<path fill="#a8a1d1" opacity="1.00" d=" M 7.31 23.95 L 7.93 24.17 C 10.44 24.86 13.22 26.30 15.78 25.09 C 15.91 25.54 16.17 26.42 16.31 26.87 C 16.19 27.39 15.95 28.44 15.83 28.97 C 14.59 29.24 13.35 29.23 12.10 28.96 C 11.61 28.73 10.65 28.28 10.16 28.05 C 7.99 27.67 5.70 27.46 3.78 26.27 C 4.98 25.53 6.15 24.74 7.31 23.95 Z" />
</g>
<g id="#bab5dbff">
<path fill="#bab5db" opacity="1.00" d=" M 26.99 25.02 C 28.82 25.03 30.83 26.08 32.52 24.99 C 33.23 26.35 33.87 27.73 34.45 29.14 C 32.65 29.62 30.78 29.25 28.95 29.19 C 28.48 28.52 28.01 27.84 27.54 27.17 C 27.40 26.63 27.13 25.56 26.99 25.02 Z" />
</g>
<g id="#928bc3ff">
<path fill="#928bc3" opacity="1.00" d=" M 1.00 27.30 C 1.93 26.96 2.86 26.61 3.78 26.27 C 5.70 27.46 7.99 27.67 10.16 28.05 C 7.94 30.03 4.59 30.35 2.80 32.84 C 1.50 31.60 1.24 29.13 1.00 27.30 Z" />
</g>
<g id="#8881beff">
<path fill="#8881be" opacity="1.00" d=" M 16.31 26.87 C 16.91 28.58 17.57 30.28 18.28 31.95 C 18.15 32.39 17.90 33.27 17.78 33.71 C 16.51 33.93 15.24 34.11 13.96 34.26 C 13.01 32.62 12.15 30.89 12.10 28.96 C 13.35 29.23 14.59 29.24 15.83 28.97 C 15.95 28.44 16.19 27.39 16.31 26.87 Z" />
</g>
<g id="#145da7ff">
<path fill="#145da7" opacity="1.00" d=" M 10.16 28.05 C 10.65 28.28 11.61 28.73 12.10 28.96 C 12.15 30.89 13.01 32.62 13.96 34.26 C 14.23 35.74 14.73 37.18 15.84 38.26 C 16.29 39.63 16.75 41.02 17.70 42.13 C 18.08 43.15 18.52 44.15 19.03 45.11 C 16.57 44.50 14.26 43.36 11.75 42.93 C 7.55 41.16 4.76 36.83 2.80 32.84 C 4.59 30.35 7.94 30.03 10.16 28.05 Z" />
</g>
<g id="#9a90c8ff">
<path fill="#9a90c8" opacity="1.00" d=" M 28.95 29.19 C 30.78 29.25 32.65 29.62 34.45 29.14 L 35.03 29.24 C 35.40 30.20 35.80 31.15 36.25 32.07 C 36.19 32.48 36.08 33.31 36.03 33.72 C 34.32 33.52 32.61 33.33 30.90 33.35 C 30.07 32.05 29.39 30.67 28.95 29.19 Z" />
</g>
<g id="#089368ff">
<path fill="#089368" opacity="1.00" d=" M 35.03 29.24 C 38.22 29.65 40.52 32.28 42.94 34.16 C 42.29 35.63 41.53 37.08 40.11 37.95 C 38.81 36.00 37.63 33.97 36.25 32.07 C 35.80 31.15 35.40 30.20 35.03 29.24 Z" />
</g>
<g id="#6762adff">
<path fill="#6762ad" opacity="1.00" d=" M 18.28 31.95 C 18.46 32.20 18.83 32.69 19.02 32.94 C 19.40 34.32 19.83 35.69 20.44 36.99 C 19.18 38.14 17.42 38.04 15.84 38.26 C 14.73 37.18 14.23 35.74 13.96 34.26 C 15.24 34.11 16.51 33.93 17.78 33.71 C 17.90 33.27 18.15 32.39 18.28 31.95 Z" />
</g>
<g id="#736db3ff">
<path fill="#736db3" opacity="1.00" d=" M 36.25 32.07 C 37.63 33.97 38.81 36.00 40.11 37.95 C 38.79 39.07 37.45 40.19 36.09 41.28 C 34.18 38.77 32.18 36.27 30.90 33.35 C 32.61 33.33 34.32 33.52 36.03 33.72 C 36.08 33.31 36.19 32.48 36.25 32.07 Z" />
</g>
<g id="#1a63a2ff">
<path fill="#1a63a2" opacity="1.00" d=" M 19.02 32.94 C 21.84 33.89 23.71 36.32 26.22 37.79 C 28.55 39.56 31.41 40.66 33.25 43.01 C 30.47 44.42 27.40 45.44 24.24 45.30 C 23.96 44.16 23.57 43.07 23.05 42.02 C 22.26 40.31 21.39 38.62 20.44 36.99 C 19.83 35.69 19.40 34.32 19.02 32.94 Z" />
</g>
<g id="#514ca0ff">
<path fill="#514ca0" opacity="1.00" d=" M 20.44 36.99 C 21.39 38.62 22.26 40.31 23.05 42.02 C 21.29 42.59 19.49 41.84 17.70 42.13 C 16.75 41.02 16.29 39.63 15.84 38.26 C 17.42 38.04 19.18 38.14 20.44 36.99 Z" />
</g>
<g id="#373897ff">
<path fill="#373897" opacity="1.00" d=" M 17.70 42.13 C 19.49 41.84 21.29 42.59 23.05 42.02 C 23.57 43.07 23.96 44.16 24.24 45.30 C 22.50 45.35 20.75 45.40 19.03 45.11 C 18.52 44.15 18.08 43.15 17.70 42.13 Z" />
</g>
</svg>
