<?xml version="1.0" encoding="UTF-8" ?>
<!DOCTYPE svg PUBLIC "-//W3C//DTD SVG 1.1//EN" "http://www.w3.org/Graphics/SVG/1.1/DTD/svg11.dtd">
<svg width="225pt" height="225pt" viewBox="0 0 225 225" version="1.1" xmlns="http://www.w3.org/2000/svg">
<g id="#231f20ff">
<path fill="#231f20" opacity="1.00" d=" M 93.18 21.69 C 95.09 21.64 97.01 21.56 98.92 21.46 L 98.05 20.69 C 107.50 20.56 117.03 19.66 126.44 21.01 C 128.89 21.56 131.39 21.73 133.89 21.74 L 133.13 22.57 C 134.68 22.61 136.22 22.63 137.77 22.66 L 137.25 23.45 C 137.97 23.53 139.41 23.70 140.12 23.78 C 141.60 24.38 143.16 24.65 144.73 24.85 L 144.30 25.44 C 146.06 25.96 147.85 26.40 149.63 26.83 L 149.60 27.31 C 151.29 28.03 153.05 28.62 154.87 28.85 L 154.25 29.38 C 157.37 30.55 160.24 32.25 163.16 33.84 C 166.15 35.36 168.53 38.24 171.92 38.83 L 171.20 39.52 C 173.33 40.78 175.31 42.31 177.04 44.09 C 177.87 44.70 178.70 45.30 179.53 45.90 L 179.33 46.21 C 179.72 46.55 180.50 47.24 180.89 47.59 L 181.58 47.39 L 181.48 48.54 L 182.58 48.43 L 182.46 49.53 L 183.61 49.46 L 183.48 50.64 L 184.72 50.46 L 184.24 51.44 L 185.45 51.49 L 185.40 52.76 L 185.99 52.36 C 187.20 54.30 188.78 55.97 190.19 57.76 C 190.80 58.49 191.36 59.27 191.87 60.08 C 192.18 60.52 192.80 61.40 193.11 61.83 C 193.83 62.82 194.57 63.78 195.27 64.78 C 195.73 65.66 196.21 66.54 196.68 67.42 L 197.15 67.54 C 199.36 72.16 202.10 76.55 203.72 81.44 L 204.12 81.28 C 205.03 85.51 207.08 89.41 207.74 93.70 L 208.30 93.25 C 208.37 94.98 208.48 96.72 208.62 98.45 L 209.33 98.38 C 209.41 100.17 209.45 101.96 209.57 103.75 L 210.32 103.15 C 209.95 110.10 211.67 116.91 211.37 123.85 L 210.70 123.14 C 210.56 126.75 210.27 130.35 210.30 133.97 L 209.56 133.11 C 209.47 134.99 209.36 136.87 209.32 138.75 L 208.56 138.32 C 208.47 139.78 208.40 141.24 208.33 142.70 L 207.54 142.46 C 207.47 143.94 207.39 145.43 207.31 146.91 L 206.38 146.22 C 206.38 147.11 206.39 148.89 206.39 149.78 L 205.41 149.40 C 205.40 150.21 205.39 151.83 205.38 152.64 L 204.29 152.48 C 204.32 152.88 204.37 153.66 204.40 154.06 C 203.40 155.82 202.51 157.66 202.09 159.65 L 201.14 159.58 C 201.26 160.07 201.49 161.06 201.60 161.55 L 200.15 161.69 C 200.28 162.14 200.53 163.06 200.66 163.52 L 199.25 163.54 C 199.32 164.05 199.46 165.07 199.53 165.58 L 198.78 165.33 C 196.61 169.63 193.63 173.44 191.09 177.52 L 190.83 177.49 C 189.52 179.16 188.17 180.80 187.00 182.58 L 186.63 182.26 C 186.33 182.65 185.73 183.43 185.43 183.83 L 185.57 184.15 C 183.62 186.09 181.68 188.06 179.60 189.86 L 179.58 190.26 C 179.21 190.46 178.46 190.87 178.09 191.07 C 177.42 191.74 176.74 192.40 176.04 193.04 C 174.80 193.98 173.60 194.98 172.31 195.85 L 172.66 196.01 C 168.00 198.90 163.64 202.26 158.70 204.66 L 158.38 205.50 C 157.93 205.43 157.04 205.29 156.59 205.23 L 156.59 206.52 C 156.00 206.45 154.81 206.31 154.22 206.23 L 154.85 207.73 C 154.37 207.56 153.39 207.21 152.91 207.04 C 150.76 209.35 147.13 209.55 144.29 210.78 L 144.90 211.15 C 142.31 211.41 139.83 212.19 137.31 212.78 L 137.77 213.34 C 136.26 213.39 134.75 213.44 133.24 213.50 L 133.81 214.29 C 131.67 214.34 129.53 214.48 127.39 214.64 L 127.76 215.31 C 124.23 215.32 120.71 215.62 117.18 215.68 L 117.88 216.36 C 113.78 216.27 109.67 216.29 105.57 216.36 L 108.21 215.63 C 104.92 215.57 101.64 215.33 98.34 215.33 L 98.49 214.63 C 96.40 214.48 94.31 214.34 92.22 214.29 L 92.68 213.50 C 91.22 213.44 89.75 213.38 88.29 213.33 L 88.59 212.45 C 87.11 212.42 85.62 212.40 84.14 212.40 L 84.80 211.38 C 83.31 211.37 80.34 211.35 78.85 211.33 L 82.51 210.05 C 81.44 210.14 79.31 210.33 78.24 210.42 L 78.60 209.59 C 75.35 208.98 72.69 206.73 69.42 206.23 L 69.46 205.22 C 68.94 205.30 67.89 205.47 67.36 205.55 L 67.68 204.76 C 63.82 202.97 60.25 200.63 56.78 198.19 C 55.79 197.47 54.77 196.79 53.73 196.15 C 51.70 194.35 49.68 192.52 47.40 191.05 L 47.72 190.61 L 46.62 190.32 L 46.33 189.29 L 45.54 189.67 L 45.40 188.92 C 44.34 187.75 43.03 186.83 42.12 185.53 L 41.39 185.55 L 41.60 184.35 L 40.77 184.70 C 40.56 184.29 40.13 183.48 39.91 183.08 C 37.73 180.79 35.91 178.19 33.78 175.86 C 33.73 175.66 33.63 175.26 33.58 175.06 C 32.62 173.82 31.73 172.53 30.72 171.33 C 30.30 170.38 29.83 169.45 29.30 168.55 L 28.30 168.43 L 28.65 167.38 C 26.06 163.91 24.75 159.72 22.52 156.04 C 22.59 155.66 22.73 154.91 22.80 154.53 L 21.94 154.76 C 21.63 153.43 21.19 152.15 20.61 150.92 C 20.70 150.54 20.86 149.77 20.95 149.38 L 19.82 149.78 C 19.67 148.19 19.45 146.61 19.03 145.08 C 18.61 143.81 18.20 142.54 17.77 141.28 C 17.63 140.00 17.48 138.71 17.34 137.43 L 16.70 137.70 C 16.64 135.52 16.47 133.34 16.31 131.16 L 15.70 132.00 C 15.30 122.37 15.15 112.73 15.70 103.10 L 16.33 103.77 C 16.49 102.13 16.60 100.49 16.80 98.86 C 17.52 97.06 17.68 95.12 17.78 93.21 L 18.39 93.74 C 18.49 93.02 18.68 91.58 18.78 90.86 C 19.44 89.40 19.67 87.82 19.83 86.24 L 20.46 86.71 C 20.97 84.91 21.48 83.11 21.82 81.27 L 22.30 81.44 C 23.91 76.95 26.00 72.59 28.67 68.63 L 28.25 67.55 L 29.35 67.52 C 29.76 66.59 30.23 65.68 30.76 64.81 C 31.47 63.80 32.16 62.78 32.87 61.77 C 33.88 60.38 34.91 59.01 35.89 57.60 L 36.16 57.37 C 37.71 55.54 39.21 53.67 40.87 51.93 C 41.07 51.53 41.49 50.73 41.70 50.33 L 42.70 50.74 L 42.30 49.39 L 43.65 49.69 L 43.38 48.34 L 44.72 48.66 L 44.39 47.30 L 45.77 47.66 L 45.28 46.55 L 46.52 46.60 L 46.72 45.84 C 47.50 45.23 48.28 44.62 49.07 44.03 C 50.25 42.89 51.51 41.82 52.79 40.79 C 54.15 39.86 55.45 38.84 56.78 37.86 C 57.78 37.16 58.80 36.47 59.82 35.78 C 60.71 35.24 61.64 34.77 62.60 34.35 L 62.45 33.33 C 62.77 33.41 63.41 33.55 63.73 33.63 C 67.72 31.05 72.00 28.83 76.52 27.33 L 76.24 26.86 C 77.44 26.58 78.63 26.33 79.84 26.11 C 80.80 25.60 81.78 25.13 82.78 24.68 C 83.47 24.60 84.84 24.43 85.52 24.35 L 85.33 23.82 C 88.14 23.44 90.87 22.65 93.67 22.20 L 93.18 21.69 M 56.21 72.21 C 56.36 76.41 56.35 80.62 56.22 84.83 C 58.08 84.73 59.93 84.66 61.80 84.58 L 61.41 85.07 C 62.47 85.89 63.50 86.75 64.52 87.61 C 64.53 102.75 64.53 117.90 64.53 133.05 C 64.50 139.01 64.71 144.99 64.02 150.94 L 63.54 145.79 C 63.08 146.35 62.15 147.47 61.68 148.03 L 61.70 148.41 C 59.87 148.37 58.04 148.23 56.22 148.17 C 56.35 152.38 56.36 156.59 56.21 160.79 C 67.36 160.61 78.52 160.67 89.67 160.76 C 89.53 156.58 89.52 152.40 89.68 148.22 C 86.86 148.33 84.04 148.29 81.23 148.37 L 81.63 147.35 L 80.64 147.79 C 80.88 140.83 80.43 133.84 80.86 126.90 L 81.89 125.60 L 80.56 125.61 C 80.89 123.62 80.05 121.11 81.86 119.62 L 80.63 119.59 C 80.83 109.53 80.55 99.47 80.77 89.41 C 82.12 90.13 82.73 91.26 82.60 92.80 L 83.28 92.10 C 83.35 93.68 83.44 95.26 83.54 96.85 L 84.27 96.05 C 84.36 97.55 84.45 99.05 84.56 100.54 L 85.18 100.29 C 85.47 102.84 86.22 105.30 86.77 107.80 L 87.32 107.15 C 87.38 108.60 87.46 110.05 87.55 111.51 L 88.17 111.31 C 88.48 113.81 89.20 116.22 89.75 118.66 L 90.32 118.29 C 90.38 119.68 90.46 121.08 90.54 122.47 L 91.17 122.31 C 91.47 124.80 92.22 127.20 92.74 129.64 L 93.32 129.31 C 93.38 130.71 93.46 132.10 93.55 133.50 L 94.14 133.30 C 94.42 134.82 94.63 136.37 95.20 137.82 C 95.31 138.53 95.52 139.95 95.62 140.66 L 96.33 140.27 C 96.39 141.68 96.46 143.10 96.55 144.51 L 97.17 144.29 C 97.48 146.82 98.21 149.27 98.77 151.75 L 99.31 151.17 C 99.38 152.59 99.46 154.01 99.56 155.44 L 100.21 155.33 C 100.45 157.17 100.66 159.06 101.38 160.80 C 106.55 160.58 111.73 160.77 116.90 160.65 C 116.85 160.25 116.74 159.45 116.69 159.06 C 117.36 157.57 117.64 155.96 117.84 154.35 L 118.25 154.63 C 118.82 152.17 119.54 149.74 119.84 147.24 L 120.44 147.57 C 120.54 146.16 120.62 144.74 120.68 143.33 L 121.26 143.72 C 121.84 141.21 122.59 138.74 122.84 136.18 L 123.47 136.69 C 123.56 135.23 123.63 133.76 123.69 132.30 L 124.56 132.72 C 124.58 131.86 124.62 130.16 124.64 129.30 L 125.43 129.46 C 125.54 127.98 125.63 126.50 125.71 125.02 L 126.20 125.92 C 126.75 123.37 127.54 120.86 127.83 118.26 L 128.47 118.60 C 128.55 117.10 128.63 115.61 128.70 114.12 L 129.55 114.84 C 129.57 113.97 129.61 112.23 129.63 111.36 L 130.43 111.41 C 130.54 109.96 130.63 108.51 130.71 107.07 L 131.21 107.80 C 131.77 105.31 132.52 102.86 132.82 100.32 L 133.45 100.51 C 133.55 99.04 133.63 97.56 133.71 96.09 L 134.52 96.88 C 134.58 95.31 134.63 93.74 134.70 92.17 L 135.73 92.72 C 135.66 92.16 135.52 91.04 135.44 90.49 C 135.94 90.39 136.94 90.21 137.44 90.11 C 137.29 91.93 137.51 93.91 136.27 95.44 L 137.41 95.43 C 137.07 97.76 138.04 100.57 136.13 102.43 L 137.45 102.40 C 137.30 104.30 137.52 106.30 136.60 108.05 C 136.85 108.85 137.35 110.44 137.61 111.23 C 137.35 112.14 136.83 113.95 136.58 114.86 L 137.37 114.19 C 137.20 118.46 137.48 122.75 137.09 127.00 L 137.12 128.00 C 137.14 128.48 137.18 129.44 137.20 129.92 C 136.52 131.55 136.56 133.37 137.31 134.97 C 136.46 136.53 136.85 138.36 136.78 140.05 L 136.85 141.04 C 136.90 141.51 136.99 142.45 137.04 142.92 L 137.12 143.71 C 137.18 144.71 137.31 146.73 137.38 147.74 L 136.43 147.30 L 136.73 148.37 C 133.91 148.29 131.10 148.33 128.29 148.21 C 128.46 152.39 128.45 156.58 128.31 160.77 C 141.71 160.63 155.11 160.69 168.52 160.74 C 168.40 156.59 168.38 152.45 168.53 148.31 C 166.21 148.36 163.86 148.34 161.65 147.53 C 161.01 146.46 160.32 145.44 159.63 144.40 C 159.79 125.87 159.64 107.34 159.70 88.81 C 159.98 88.20 160.54 86.99 160.82 86.38 L 161.79 86.69 L 161.41 85.81 C 162.01 85.53 163.22 84.97 163.82 84.69 C 165.38 84.70 166.95 84.71 168.52 84.74 C 168.40 80.58 168.39 76.41 168.53 72.26 C 154.38 72.40 140.22 72.21 126.06 72.35 C 126.13 72.75 126.26 73.54 126.32 73.94 C 125.58 75.44 125.35 77.11 125.15 78.76 L 124.44 78.36 C 124.41 79.85 124.40 81.35 124.40 82.85 L 123.53 82.22 C 123.46 82.94 123.32 84.36 123.25 85.08 C 122.62 86.56 122.35 88.13 122.16 89.72 L 121.52 89.39 C 121.44 90.88 121.37 92.37 121.31 93.86 L 120.59 93.20 C 120.50 93.93 120.31 95.38 120.22 96.11 C 119.62 97.60 119.37 99.16 119.15 100.74 L 118.53 100.40 C 118.45 101.88 118.37 103.36 118.30 104.85 L 117.62 104.23 C 117.51 105.00 117.28 106.54 117.17 107.32 C 116.61 108.75 116.40 110.27 116.13 111.78 L 115.54 111.42 C 115.46 112.84 115.39 114.27 115.32 115.69 L 114.48 115.39 C 114.42 116.86 114.36 118.35 114.32 119.83 L 113.39 119.19 C 113.38 120.64 113.37 122.08 113.37 123.53 C 112.91 123.53 112.00 123.52 111.55 123.52 C 111.52 122.79 111.47 121.34 111.45 120.61 L 110.62 120.63 C 110.61 119.76 110.59 118.02 110.59 117.15 L 109.67 117.86 C 109.64 116.35 109.60 114.84 109.55 113.33 L 108.67 113.74 C 108.62 112.32 108.56 110.90 108.48 109.47 L 107.84 109.70 C 107.63 108.15 107.37 106.61 106.81 105.14 C 106.70 104.39 106.49 102.87 106.38 102.11 L 105.70 102.95 C 105.63 101.41 105.57 99.88 105.51 98.35 L 104.68 98.77 C 104.61 97.35 104.54 95.93 104.45 94.51 L 103.82 94.67 C 103.51 92.14 102.78 89.68 102.26 87.19 L 101.69 87.86 C 101.63 86.37 101.56 84.89 101.48 83.40 L 100.68 83.70 C 100.60 82.32 100.52 80.93 100.43 79.55 L 99.80 79.62 C 99.51 77.13 98.77 74.73 98.25 72.29 C 84.23 72.27 70.22 72.42 56.21 72.21 Z" />
</g>
</svg>
