<?xml version="1.0" encoding="UTF-8" ?>
<!DOCTYPE svg PUBLIC "-//W3C//DTD SVG 1.1//EN" "http://www.w3.org/Graphics/SVG/1.1/DTD/svg11.dtd">
<svg width="256pt" height="256pt" viewBox="0 0 256 256" version="1.1" xmlns="http://www.w3.org/2000/svg">
<g id="#da7c0cff">
<path fill="#da7c0c" opacity="1.00" d=" M 0.00 0.00 L 256.00 0.00 L 256.00 256.00 L 0.00 256.00 L 0.00 0.00 M 141.44 54.01 C 142.39 57.46 146.10 59.51 146.63 63.19 C 147.98 69.72 147.16 76.45 147.27 83.06 C 146.99 85.11 147.72 88.21 145.41 89.29 C 139.52 91.61 133.26 93.00 127.00 93.87 C 126.58 94.43 125.73 95.55 125.30 96.11 C 127.12 99.03 128.74 102.31 131.70 104.27 C 135.11 106.42 138.88 107.90 142.55 109.55 C 138.22 116.15 130.16 118.19 123.44 121.40 C 117.14 123.90 111.00 126.83 104.54 128.88 C 103.05 124.60 102.25 119.09 97.74 116.87 C 94.28 115.78 90.49 116.80 87.19 118.08 C 83.83 119.39 84.13 124.28 80.87 125.72 C 77.10 127.55 72.88 128.22 69.10 130.03 C 66.50 131.09 63.95 132.69 61.05 132.64 C 58.17 131.18 58.92 127.16 58.19 124.46 C 57.27 124.36 56.36 124.25 55.44 124.15 C 54.12 131.63 54.09 139.96 58.56 146.47 C 60.13 149.64 63.34 152.00 66.99 151.65 C 75.64 151.22 81.10 143.55 86.90 138.12 C 87.13 145.75 86.34 153.36 86.43 160.99 C 86.42 165.11 86.70 169.25 86.14 173.34 C 85.62 177.08 85.15 180.94 86.16 184.64 C 87.44 189.87 89.00 195.56 93.25 199.19 C 95.95 201.08 98.35 197.37 98.43 194.93 C 99.00 187.40 103.29 181.03 105.92 174.15 C 108.65 168.24 110.85 162.11 112.93 155.94 C 113.87 153.23 113.89 150.33 113.76 147.50 C 107.75 155.78 102.35 164.55 95.73 172.40 C 94.59 159.12 97.53 145.95 101.05 133.24 C 102.85 135.54 104.75 138.48 107.98 138.65 C 113.56 139.61 118.88 137.27 123.67 134.69 C 135.02 129.45 146.77 125.14 158.66 121.31 C 163.61 119.47 168.83 118.35 174.13 118.37 C 172.50 119.76 170.95 121.32 168.99 122.23 C 166.15 123.11 163.04 123.05 160.36 124.41 C 156.77 126.76 155.16 131.15 151.48 133.40 C 146.84 136.44 142.09 139.33 137.65 142.69 C 134.86 144.94 131.28 145.66 128.02 146.96 C 126.11 152.00 125.17 157.45 125.54 162.86 C 129.63 161.88 133.84 160.71 137.22 158.08 C 144.49 152.34 153.76 150.46 162.44 147.87 C 163.10 156.90 163.77 165.93 163.55 174.99 C 163.26 178.73 164.40 182.92 162.22 186.26 C 153.96 187.93 147.13 181.71 139.94 178.78 C 142.97 182.33 146.36 185.70 148.03 190.18 C 151.62 198.51 160.43 202.35 166.03 209.06 C 173.66 204.31 174.45 194.65 176.25 186.71 C 176.99 178.49 177.03 170.10 175.64 161.95 C 175.17 156.48 175.39 150.98 175.28 145.50 C 179.05 145.76 182.89 146.34 186.63 145.61 C 189.16 143.25 189.58 137.64 186.05 135.99 C 182.42 133.50 176.53 133.90 175.18 128.87 C 179.21 125.68 183.25 122.44 187.78 119.97 C 191.57 117.93 196.37 117.70 199.43 114.42 C 200.93 111.04 198.88 107.77 195.50 106.84 C 188.98 103.38 182.16 107.20 175.57 108.15 C 169.09 109.05 162.65 110.25 156.28 111.72 C 157.84 108.80 158.85 105.56 160.83 102.89 C 166.12 99.62 172.67 99.29 178.01 96.12 C 179.99 94.86 181.01 92.43 180.42 90.14 C 179.24 85.84 175.53 82.17 170.96 81.79 C 167.77 81.02 162.68 81.80 161.73 77.65 C 161.07 72.40 163.03 67.29 163.30 62.09 C 160.21 56.59 154.48 52.86 148.48 51.30 C 145.92 51.16 141.42 50.18 141.44 54.01 M 87.48 73.75 C 89.08 77.51 91.51 80.80 93.77 84.17 C 95.24 85.96 95.29 88.88 93.45 90.45 C 87.66 96.43 81.01 101.52 74.15 106.21 C 83.76 105.26 92.83 101.73 101.54 97.75 C 105.28 95.91 109.60 96.03 113.41 94.44 C 115.26 91.87 116.99 88.69 116.40 85.42 C 114.91 81.61 112.14 77.97 108.13 76.65 C 101.54 74.14 94.41 74.26 87.48 73.75 M 131.50 169.86 C 134.80 173.04 138.57 176.20 143.11 177.31 C 147.28 176.12 151.50 175.01 155.90 175.40 C 156.81 173.42 157.93 171.34 157.50 169.08 C 156.24 165.38 152.36 163.66 148.88 162.69 C 142.33 161.43 135.36 164.48 131.50 169.86 Z" />
</g>
<g id="#ffffffff">
<path fill="#ffffff" opacity="1.00" d=" M 141.44 54.01 C 141.42 50.18 145.92 51.16 148.48 51.30 C 154.48 52.86 160.21 56.59 163.30 62.09 C 163.03 67.29 161.07 72.40 161.73 77.65 C 162.68 81.80 167.77 81.02 170.96 81.79 C 175.53 82.17 179.24 85.84 180.42 90.14 C 181.01 92.43 179.99 94.86 178.01 96.12 C 172.67 99.29 166.12 99.62 160.83 102.89 C 158.85 105.56 157.84 108.80 156.28 111.72 C 162.65 110.25 169.09 109.05 175.57 108.15 C 182.16 107.20 188.98 103.38 195.50 106.84 C 198.88 107.77 200.93 111.04 199.43 114.42 C 196.37 117.70 191.57 117.93 187.78 119.97 C 183.25 122.44 179.21 125.68 175.18 128.87 C 176.53 133.90 182.42 133.50 186.05 135.99 C 189.58 137.64 189.16 143.25 186.63 145.61 C 182.89 146.34 179.05 145.76 175.28 145.50 C 175.39 150.98 175.17 156.48 175.64 161.95 C 177.03 170.10 176.99 178.49 176.25 186.71 C 174.45 194.65 173.66 204.31 166.03 209.06 C 160.43 202.35 151.62 198.51 148.03 190.18 C 146.36 185.70 142.97 182.33 139.94 178.78 C 147.13 181.71 153.96 187.93 162.22 186.26 C 164.40 182.92 163.26 178.73 163.55 174.99 C 163.77 165.93 163.10 156.90 162.44 147.87 C 153.76 150.46 144.49 152.34 137.22 158.08 C 133.84 160.71 129.63 161.88 125.54 162.86 C 125.17 157.45 126.11 152.00 128.02 146.96 C 131.28 145.66 134.86 144.94 137.65 142.69 C 142.09 139.33 146.84 136.44 151.48 133.40 C 155.16 131.15 156.77 126.76 160.36 124.41 C 163.04 123.05 166.15 123.11 168.99 122.23 C 170.95 121.32 172.50 119.76 174.13 118.37 C 168.83 118.35 163.61 119.47 158.66 121.31 C 146.77 125.14 135.02 129.45 123.67 134.69 C 118.88 137.27 113.56 139.61 107.98 138.65 C 104.75 138.48 102.85 135.54 101.05 133.24 C 97.53 145.95 94.59 159.12 95.73 172.40 C 102.35 164.55 107.75 155.78 113.76 147.50 C 113.89 150.33 113.87 153.23 112.93 155.94 C 110.85 162.11 108.65 168.24 105.92 174.15 C 103.29 181.03 99.00 187.40 98.43 194.93 C 98.35 197.37 95.95 201.08 93.25 199.19 C 89.00 195.56 87.44 189.87 86.16 184.64 C 85.15 180.94 85.62 177.08 86.14 173.34 C 86.70 169.25 86.42 165.11 86.43 160.99 C 86.34 153.36 87.13 145.75 86.90 138.12 C 81.10 143.55 75.64 151.22 66.99 151.65 C 63.34 152.00 60.13 149.64 58.56 146.47 C 54.09 139.96 54.12 131.63 55.44 124.15 C 56.36 124.25 57.27 124.36 58.19 124.46 C 58.92 127.16 58.17 131.18 61.05 132.64 C 63.95 132.69 66.50 131.09 69.10 130.03 C 72.88 128.22 77.10 127.55 80.87 125.72 C 84.13 124.28 83.83 119.39 87.19 118.08 C 90.49 116.80 94.28 115.78 97.74 116.87 C 102.25 119.09 103.05 124.60 104.54 128.88 C 111.00 126.83 117.14 123.90 123.44 121.40 C 130.16 118.19 138.22 116.15 142.55 109.55 C 138.88 107.90 135.11 106.42 131.70 104.27 C 128.74 102.31 127.12 99.03 125.30 96.11 C 125.73 95.55 126.58 94.43 127.00 93.87 C 133.26 93.00 139.52 91.61 145.41 89.29 C 147.72 88.21 146.99 85.11 147.27 83.06 C 147.16 76.45 147.98 69.72 146.63 63.19 C 146.10 59.51 142.39 57.46 141.44 54.01 Z" />
<path fill="#ffffff" opacity="1.00" d=" M 87.48 73.75 C 94.41 74.26 101.54 74.14 108.13 76.65 C 112.14 77.97 114.91 81.61 116.40 85.42 C 116.99 88.69 115.26 91.87 113.41 94.44 C 109.60 96.03 105.28 95.91 101.54 97.75 C 92.83 101.73 83.76 105.26 74.15 106.21 C 81.01 101.52 87.66 96.43 93.45 90.45 C 95.29 88.88 95.24 85.96 93.77 84.17 C 91.51 80.80 89.08 77.51 87.48 73.75 Z" />
<path fill="#ffffff" opacity="1.00" d=" M 131.50 169.86 C 135.36 164.48 142.33 161.43 148.88 162.69 C 152.36 163.66 156.24 165.38 157.50 169.08 C 157.93 171.34 156.81 173.42 155.90 175.40 C 151.50 175.01 147.28 176.12 143.11 177.31 C 138.57 176.20 134.80 173.04 131.50 169.86 Z" />
</g>
</svg>
