<?xml version="1.0" encoding="UTF-8" ?>
<!DOCTYPE svg PUBLIC "-//W3C//DTD SVG 1.1//EN" "http://www.w3.org/Graphics/SVG/1.1/DTD/svg11.dtd">
<svg width="48pt" height="48pt" viewBox="0 0 48 48" version="1.1" xmlns="http://www.w3.org/2000/svg">
<g id="#f22431ff">
<path fill="#f22431" opacity="1.00" d=" M 0.00 0.00 L 48.00 0.00 L 48.00 48.00 L 0.00 48.00 L 0.00 0.00 M 7.48 5.57 C 6.81 7.26 6.43 9.05 5.92 10.79 C 8.22 9.27 9.85 6.87 12.21 5.39 C 12.35 9.97 12.51 14.56 12.28 19.14 C 12.35 20.64 10.96 21.58 10.21 22.72 C 11.96 22.63 13.71 22.57 15.46 22.51 C 15.87 17.10 14.62 11.40 16.16 6.21 C 18.07 5.60 20.19 7.53 20.34 9.42 C 20.70 12.62 20.62 15.87 20.47 19.09 C 20.61 20.68 19.15 21.59 18.25 22.67 C 20.75 22.57 23.26 22.57 25.77 22.68 C 22.76 20.91 23.81 17.18 23.58 14.28 C 25.63 14.28 27.67 14.28 29.72 14.29 C 29.70 16.51 29.68 18.72 29.64 20.94 C 29.20 21.35 28.32 22.17 27.88 22.57 C 32.19 22.51 36.50 22.49 40.82 22.60 C 41.10 20.75 41.38 18.90 41.68 17.06 C 39.80 20.18 36.83 22.22 33.10 22.22 C 32.83 16.74 32.91 11.23 32.99 5.74 C 36.45 5.96 39.18 7.99 40.90 10.91 C 40.67 9.09 40.45 7.28 40.23 5.46 C 36.22 5.47 32.21 5.51 28.20 5.40 C 30.14 7.73 29.67 10.81 29.78 13.60 C 27.71 13.61 25.64 13.62 23.57 13.61 C 23.71 10.75 23.00 7.34 25.56 5.30 C 19.53 5.68 13.50 4.97 7.48 5.57 M 37.19 9.94 C 36.70 10.58 35.73 11.86 35.24 12.50 C 35.07 13.56 34.92 14.63 34.78 15.69 L 35.91 14.88 C 36.45 15.59 37.52 17.01 38.05 17.72 C 37.76 15.13 37.45 12.53 37.19 9.94 M 5.77 25.24 C 6.55 25.92 7.32 26.59 8.10 27.26 C 7.98 32.36 9.85 38.50 6.16 42.70 C 7.84 42.63 9.53 42.57 11.21 42.52 C 10.39 41.70 9.56 40.89 8.74 40.08 C 8.91 36.65 9.06 33.22 9.19 29.79 C 10.88 33.53 12.58 37.28 14.32 41.00 C 16.45 37.25 17.86 33.18 19.47 29.19 C 19.84 32.87 19.82 36.56 19.74 40.25 C 18.67 41.04 17.64 41.87 16.63 42.74 C 21.20 42.78 25.76 42.39 30.32 42.54 C 30.52 40.74 30.72 38.94 30.93 37.14 C 29.26 40.05 26.55 42.00 23.15 42.27 C 23.01 36.73 23.00 31.19 23.18 25.66 C 26.08 26.11 28.29 27.85 29.03 30.76 C 29.89 28.51 31.36 26.65 33.49 25.47 C 33.87 31.13 33.66 36.81 33.70 42.48 C 35.43 42.55 37.16 42.62 38.89 42.72 C 37.87 41.32 36.56 39.94 36.85 38.06 C 36.93 34.09 36.46 30.05 37.19 26.13 C 39.83 26.33 41.13 29.34 42.51 31.27 C 42.30 29.34 42.15 27.41 41.98 25.48 C 34.92 25.38 27.78 25.10 20.75 25.79 C 18.37 28.96 17.04 32.76 15.99 36.54 C 15.03 34.76 14.13 32.94 13.24 31.13 L 12.84 30.90 L 13.19 30.23 C 12.26 28.73 11.49 27.08 10.26 25.79 C 8.79 25.45 7.27 25.40 5.77 25.24 M 27.04 29.89 C 26.54 30.57 25.55 31.92 25.05 32.60 C 25.06 33.49 25.10 34.38 25.16 35.26 C 26.07 36.10 26.95 36.97 27.81 37.86 C 27.43 35.22 27.15 32.56 27.04 29.89 Z" />
</g>
<g id="#fdd5d8ff">
<path fill="#fdd5d8" opacity="1.00" d=" M 7.48 5.57 C 13.50 4.97 19.53 5.68 25.56 5.30 C 23.00 7.34 23.71 10.75 23.57 13.61 C 25.64 13.62 27.71 13.61 29.78 13.60 C 29.67 10.81 30.14 7.73 28.20 5.40 C 32.21 5.51 36.22 5.47 40.23 5.46 C 40.45 7.28 40.67 9.09 40.90 10.91 C 39.18 7.99 36.45 5.96 32.99 5.74 C 32.91 11.23 32.83 16.74 33.10 22.22 C 36.83 22.22 39.80 20.18 41.68 17.06 C 41.38 18.90 41.10 20.75 40.82 22.60 C 36.50 22.49 32.19 22.51 27.88 22.57 C 28.32 22.17 29.20 21.35 29.64 20.94 C 29.68 18.72 29.70 16.51 29.72 14.29 C 27.67 14.28 25.63 14.28 23.58 14.28 C 23.81 17.18 22.76 20.91 25.77 22.68 C 23.26 22.57 20.75 22.57 18.25 22.67 C 19.15 21.59 20.61 20.68 20.47 19.09 C 20.62 15.87 20.70 12.62 20.34 9.42 C 20.19 7.53 18.07 5.60 16.16 6.21 C 14.62 11.40 15.87 17.10 15.46 22.51 C 13.71 22.57 11.96 22.63 10.21 22.72 C 10.96 21.58 12.35 20.64 12.28 19.14 C 12.51 14.56 12.35 9.97 12.21 5.39 C 9.85 6.87 8.22 9.27 5.92 10.79 C 6.43 9.05 6.81 7.26 7.48 5.57 Z" />
<path fill="#fdd5d8" opacity="1.00" d=" M 37.19 9.94 C 37.45 12.53 37.76 15.13 38.05 17.72 C 37.52 17.01 36.45 15.59 35.91 14.88 L 34.78 15.69 C 34.92 14.63 35.07 13.56 35.24 12.50 C 35.73 11.86 36.70 10.58 37.19 9.94 Z" />
<path fill="#fdd5d8" opacity="1.00" d=" M 5.77 25.24 C 7.27 25.40 8.79 25.45 10.26 25.79 C 11.49 27.08 12.26 28.73 13.19 30.23 L 12.84 30.90 L 13.24 31.13 C 14.13 32.94 15.03 34.76 15.99 36.54 C 17.04 32.76 18.37 28.96 20.75 25.79 C 27.78 25.10 34.92 25.38 41.98 25.48 C 42.15 27.41 42.30 29.34 42.51 31.27 C 41.13 29.34 39.83 26.33 37.19 26.13 C 36.46 30.05 36.93 34.09 36.85 38.06 C 36.56 39.94 37.87 41.32 38.89 42.72 C 37.16 42.62 35.43 42.55 33.70 42.48 C 33.66 36.81 33.87 31.13 33.49 25.47 C 31.36 26.65 29.89 28.51 29.03 30.76 C 28.29 27.85 26.08 26.11 23.18 25.66 C 23.00 31.19 23.01 36.73 23.15 42.27 C 26.55 42.00 29.26 40.05 30.93 37.14 C 30.72 38.94 30.52 40.74 30.32 42.54 C 25.76 42.39 21.20 42.78 16.63 42.74 C 17.64 41.87 18.67 41.04 19.74 40.25 C 19.82 36.56 19.84 32.87 19.47 29.19 C 17.86 33.18 16.45 37.25 14.32 41.00 C 12.58 37.28 10.88 33.53 9.19 29.79 C 9.06 33.22 8.91 36.65 8.74 40.08 C 9.56 40.89 10.39 41.70 11.21 42.52 C 9.53 42.57 7.84 42.63 6.16 42.70 C 9.85 38.50 7.98 32.36 8.10 27.26 C 7.32 26.59 6.55 25.92 5.77 25.24 Z" />
<path fill="#fdd5d8" opacity="1.00" d=" M 27.04 29.89 C 27.15 32.56 27.43 35.22 27.81 37.86 C 26.95 36.97 26.07 36.10 25.16 35.26 C 25.10 34.38 25.06 33.49 25.05 32.60 C 25.55 31.92 26.54 30.57 27.04 29.89 Z" />
</g>
</svg>
