<?xml version="1.0" encoding="UTF-8" ?>
<!DOCTYPE svg PUBLIC "-//W3C//DTD SVG 1.1//EN" "http://www.w3.org/Graphics/SVG/1.1/DTD/svg11.dtd">
<svg width="32pt" height="32pt" viewBox="0 0 32 32" version="1.1" xmlns="http://www.w3.org/2000/svg">
<g id="#f3f9eeff">
<path fill="#f3f9ee" opacity="1.00" d=" M 0.00 0.00 L 1.78 0.00 L 2.35 0.78 L 1.85 1.64 C 1.38 1.69 0.46 1.77 0.00 1.82 L 0.00 0.00 Z" />
</g>
<g id="#fefec5ff">
<path fill="#fefec5" opacity="1.00" d=" M 1.78 0.00 L 32.00 0.00 L 32.00 29.86 C 31.35 29.85 30.04 29.81 29.38 29.80 C 29.63 20.37 29.48 10.95 29.49 1.52 C 20.46 1.07 11.26 2.47 2.35 0.78 L 1.78 0.00 Z" />
</g>
<g id="#bcdd7bff">
<path fill="#bcdd7b" opacity="1.00" d=" M 2.35 0.78 C 11.26 2.47 20.46 1.07 29.49 1.52 C 29.48 10.95 29.63 20.37 29.38 29.80 C 23.99 29.68 18.60 29.68 13.20 29.83 C 17.69 28.27 22.62 26.44 25.12 22.08 C 28.46 16.95 26.72 9.69 21.87 6.16 C 16.22 1.49 8.30 1.34 1.59 3.47 C 1.32 4.16 0.79 5.55 0.53 6.24 C 0.40 6.62 0.13 7.38 0.00 7.77 L 0.00 1.82 C 0.46 1.77 1.38 1.69 1.85 1.64 L 2.35 0.78 Z" />
</g>
<g id="#6699ccff">
<path fill="#6699cc" opacity="1.00" d=" M 1.59 3.47 C 8.30 1.34 16.22 1.49 21.87 6.16 C 26.72 9.69 28.46 16.95 25.12 22.08 C 22.62 26.44 17.69 28.27 13.20 29.83 C 18.60 29.68 23.99 29.68 29.38 29.80 C 30.04 29.81 31.35 29.85 32.00 29.86 L 32.00 32.00 L 0.11 32.00 L 0.01 31.99 L 0.00 31.90 L 0.00 17.26 L 0.01 19.37 C 1.18 16.41 1.57 11.65 5.69 11.27 C 4.57 14.70 2.60 17.76 0.20 20.42 C 3.39 22.87 6.88 24.88 10.63 26.31 C 12.37 23.25 14.12 20.18 16.29 17.39 C 17.79 20.94 14.45 23.87 13.24 26.91 C 16.05 26.17 19.61 26.18 21.46 23.55 C 23.39 21.21 23.11 17.82 21.62 15.34 C 17.59 8.05 8.59 4.34 0.53 6.24 C 0.79 5.55 1.32 4.16 1.59 3.47 Z" />
</g>
<g id="#feffffff">
<path fill="#feffff" opacity="1.00" d=" M 0.53 6.24 C 8.59 4.34 17.59 8.05 21.62 15.34 C 23.11 17.82 23.39 21.21 21.46 23.55 C 19.61 26.18 16.05 26.17 13.24 26.91 C 14.45 23.87 17.79 20.94 16.29 17.39 C 14.12 20.18 12.37 23.25 10.63 26.31 C 6.88 24.88 3.39 22.87 0.20 20.42 C 2.60 17.76 4.57 14.70 5.69 11.27 C 1.57 11.65 1.18 16.41 0.01 19.37 L 0.00 17.26 L 0.00 7.77 C 0.13 7.38 0.40 6.62 0.53 6.24 Z" />
<path fill="#feffff" opacity="1.00" d=" M 0.00 31.90 L 0.01 31.99 L 0.11 32.00 L 0.00 32.00 L 0.00 31.90 Z" />
</g>
</svg>
