<?xml version="1.0" encoding="UTF-8" ?>
<!DOCTYPE svg PUBLIC "-//W3C//DTD SVG 1.1//EN" "http://www.w3.org/Graphics/SVG/1.1/DTD/svg11.dtd">
<svg width="16pt" height="16pt" viewBox="0 0 16 16" version="1.1" xmlns="http://www.w3.org/2000/svg">
<g id="#674397ff">
<path fill="#674397" opacity="1.00" d=" M 0.00 0.00 L 16.00 0.00 L 16.00 4.02 C 15.72 4.27 15.16 4.76 14.88 5.00 C 14.90 7.00 14.91 9.00 14.89 11.00 C 15.17 11.25 15.72 11.75 16.00 12.00 L 16.00 16.00 L 0.00 16.00 L 0.00 13.06 C 0.29 12.78 0.88 12.24 1.17 11.96 C 1.05 9.15 0.97 6.33 0.82 3.52 C 0.62 3.64 0.21 3.88 0.00 3.99 L 0.00 0.00 M 3.81 3.08 C 7.83 2.92 11.87 3.10 15.89 2.91 C 10.98 1.00 5.48 2.48 0.33 1.97 C 1.31 2.73 2.49 3.44 3.81 3.08 M 2.25 4.18 C 1.70 5.79 2.24 6.35 3.88 5.86 C 4.43 4.23 3.89 3.67 2.25 4.18 M 12.11 4.16 C 11.60 5.80 12.15 6.36 13.77 5.83 C 14.28 4.20 13.73 3.64 12.11 4.16 M 4.60 5.93 C 5.51 7.04 6.41 8.15 7.27 9.30 C 9.15 8.86 10.47 7.50 11.34 5.83 C 9.27 7.39 6.74 7.30 4.60 5.93 M 3.11 7.24 C 1.57 10.32 6.34 7.48 3.11 7.24 M 12.09 7.26 C 10.63 10.38 15.33 7.39 12.09 7.26 M 2.27 10.21 C 1.73 11.85 2.28 12.39 3.90 11.84 C 4.43 10.19 3.89 9.65 2.27 10.21 M 12.08 10.17 C 11.59 11.80 12.16 12.36 13.79 11.86 C 14.26 10.24 13.69 9.67 12.08 10.17 M 7.18 12.16 C 6.64 13.78 7.19 14.34 8.83 13.84 C 9.36 12.21 8.81 11.65 7.18 12.16 M 2.41 14.07 C 3.98 14.49 5.08 14.22 5.70 13.26 C 4.87 13.18 3.21 13.02 2.38 12.94 C 2.39 13.22 2.40 13.79 2.41 14.07 M 10.08 13.69 C 11.59 14.20 13.14 14.30 14.74 14.00 C 15.14 12.28 10.51 12.44 10.08 13.69 Z" />
</g>
<g id="#ffffffff">
<path fill="#ffffff" opacity="1.00" d=" M 3.81 3.08 C 2.49 3.44 1.31 2.73 0.33 1.97 C 5.48 2.48 10.98 1.00 15.89 2.91 C 11.87 3.10 7.83 2.92 3.81 3.08 Z" />
<path fill="#ffffff" opacity="1.00" d=" M 0.00 3.99 C 0.21 3.88 0.62 3.64 0.82 3.52 C 0.97 6.33 1.05 9.15 1.17 11.96 C 0.88 12.24 0.29 12.78 0.00 13.06 L 0.00 3.99 Z" />
<path fill="#ffffff" opacity="1.00" d=" M 14.88 5.00 C 15.16 4.76 15.72 4.27 16.00 4.02 L 16.00 12.00 C 15.72 11.75 15.17 11.25 14.89 11.00 C 14.91 9.00 14.90 7.00 14.88 5.00 Z" />
<path fill="#ffffff" opacity="1.00" d=" M 3.11 7.24 C 6.34 7.48 1.57 10.32 3.11 7.24 Z" />
<path fill="#ffffff" opacity="1.00" d=" M 12.09 7.26 C 15.33 7.39 10.63 10.38 12.09 7.26 Z" />
<path fill="#ffffff" opacity="1.00" d=" M 7.18 12.16 C 8.81 11.65 9.36 12.21 8.83 13.84 C 7.19 14.34 6.64 13.78 7.18 12.16 Z" />
<path fill="#ffffff" opacity="1.00" d=" M 2.41 14.07 C 2.40 13.79 2.39 13.22 2.38 12.94 C 3.21 13.02 4.87 13.18 5.70 13.26 C 5.08 14.22 3.98 14.49 2.41 14.07 Z" />
<path fill="#ffffff" opacity="1.00" d=" M 10.08 13.69 C 10.51 12.44 15.14 12.28 14.74 14.00 C 13.14 14.30 11.59 14.20 10.08 13.69 Z" />
</g>
<g id="#efecf4ff">
<path fill="#efecf4" opacity="1.00" d=" M 2.25 4.18 C 3.89 3.67 4.43 4.23 3.88 5.86 C 2.24 6.35 1.70 5.79 2.25 4.18 Z" />
</g>
<g id="#f2eff6ff">
<path fill="#f2eff6" opacity="1.00" d=" M 12.11 4.16 C 13.73 3.64 14.28 4.20 13.77 5.83 C 12.15 6.36 11.60 5.80 12.11 4.16 Z" />
</g>
<g id="#d1c7e0ff">
<path fill="#d1c7e0" opacity="1.00" d=" M 4.60 5.93 C 6.74 7.30 9.27 7.39 11.34 5.83 C 10.47 7.50 9.15 8.86 7.27 9.30 C 6.41 8.15 5.51 7.04 4.60 5.93 Z" />
</g>
<g id="#eeebf3ff">
<path fill="#eeebf3" opacity="1.00" d=" M 2.27 10.21 C 3.89 9.65 4.43 10.19 3.90 11.84 C 2.28 12.39 1.73 11.85 2.27 10.21 Z" />
</g>
<g id="#f1eef5ff">
<path fill="#f1eef5" opacity="1.00" d=" M 12.08 10.17 C 13.69 9.67 14.26 10.24 13.79 11.86 C 12.16 12.36 11.59 11.80 12.08 10.17 Z" />
</g>
</svg>
