<?xml version="1.0" encoding="UTF-8" ?>
<!DOCTYPE svg PUBLIC "-//W3C//DTD SVG 1.1//EN" "http://www.w3.org/Graphics/SVG/1.1/DTD/svg11.dtd">
<svg width="32pt" height="32pt" viewBox="0 0 32 32" version="1.1" xmlns="http://www.w3.org/2000/svg">
<g id="#96875aff">
<path fill="#96875a" opacity="1.00" d=" M 14.31 1.22 C 15.78 0.08 17.80 2.61 16.60 3.89 C 15.12 4.92 13.22 2.52 14.31 1.22 Z" />
<path fill="#96875a" opacity="1.00" d=" M 0.00 6.00 C 10.67 6.00 21.33 6.00 32.00 6.00 L 32.00 8.00 C 21.33 8.00 10.67 8.00 0.00 8.00 L 0.00 6.00 Z" />
<path fill="#96875a" opacity="1.00" d=" M 3.99 11.02 C 12.00 10.99 20.00 10.99 28.01 11.02 C 28.01 11.51 28.01 12.49 28.01 12.98 C 20.00 13.01 12.00 13.01 3.99 12.98 C 3.99 12.49 3.99 11.51 3.99 11.02 Z" />
<path fill="#96875a" opacity="1.00" d=" M 3.99 16.02 C 12.00 15.99 20.00 15.99 28.01 16.02 C 28.01 16.51 28.01 17.49 28.01 17.98 C 20.00 18.01 12.00 18.01 3.99 17.98 C 3.99 17.49 3.99 16.51 3.99 16.02 Z" />
<path fill="#96875a" opacity="1.00" d=" M 4.01 21.01 C 12.00 20.99 20.00 20.99 27.99 21.01 C 27.97 24.67 28.03 28.34 28.00 32.00 L 4.00 32.00 C 3.97 28.34 4.03 24.67 4.01 21.01 M 5.98 23.01 C 6.02 25.34 6.02 27.66 5.98 29.99 C 12.66 30.01 19.34 30.01 26.02 29.99 C 25.98 27.66 25.98 25.34 26.02 23.01 C 19.34 22.99 12.66 22.99 5.98 23.01 Z" />
</g>
</svg>
