<?xml version="1.0" encoding="UTF-8" ?>
<!DOCTYPE svg PUBLIC "-//W3C//DTD SVG 1.1//EN" "http://www.w3.org/Graphics/SVG/1.1/DTD/svg11.dtd">
<svg width="32pt" height="32pt" viewBox="0 0 32 32" version="1.1" xmlns="http://www.w3.org/2000/svg">
<g id="#ffffffff">
<path fill="#ffffff" opacity="1.00" d=" M 0.00 0.00 L 32.00 0.00 L 32.00 32.00 L 0.00 32.00 L 0.00 0.00 M 3.00 1.00 C 3.00 11.00 3.00 21.00 3.00 31.00 C 4.50 31.00 7.50 31.00 9.00 31.00 C 9.00 21.00 9.00 11.00 9.00 1.00 C 7.50 1.00 4.50 1.00 3.00 1.00 M 13.00 1.00 C 13.00 7.67 13.00 14.33 13.00 21.00 C 14.50 21.00 17.50 21.00 19.00 21.00 C 19.00 14.33 19.00 7.67 19.00 1.00 C 17.50 1.00 14.50 1.00 13.00 1.00 M 23.00 1.00 C 23.00 11.00 23.00 21.00 23.00 31.00 C 24.50 31.00 27.50 31.00 29.00 31.00 C 29.00 21.00 29.00 11.00 29.00 1.00 C 27.50 1.00 24.50 1.00 23.00 1.00 Z" />
</g>
<g id="#993333ff">
<path fill="#993333" opacity="1.00" d=" M 3.00 1.00 C 4.50 1.00 7.50 1.00 9.00 1.00 C 9.00 11.00 9.00 21.00 9.00 31.00 C 7.50 31.00 4.50 31.00 3.00 31.00 C 3.00 21.00 3.00 11.00 3.00 1.00 Z" />
<path fill="#993333" opacity="1.00" d=" M 13.00 1.00 C 14.50 1.00 17.50 1.00 19.00 1.00 C 19.00 7.67 19.00 14.33 19.00 21.00 C 17.50 21.00 14.50 21.00 13.00 21.00 C 13.00 14.33 13.00 7.67 13.00 1.00 Z" />
<path fill="#993333" opacity="1.00" d=" M 23.00 1.00 C 24.50 1.00 27.50 1.00 29.00 1.00 C 29.00 11.00 29.00 21.00 29.00 31.00 C 27.50 31.00 24.50 31.00 23.00 31.00 C 23.00 21.00 23.00 11.00 23.00 1.00 Z" />
</g>
</svg>
