<?xml version="1.0" encoding="UTF-8" ?>
<!DOCTYPE svg PUBLIC "-//W3C//DTD SVG 1.1//EN" "http://www.w3.org/Graphics/SVG/1.1/DTD/svg11.dtd">
<svg width="16pt" height="16pt" viewBox="0 0 16 16" version="1.1" xmlns="http://www.w3.org/2000/svg">
<g id="#040204ff">
<path fill="#040204" opacity="1.00" d=" M 0.00 0.00 L 16.00 0.00 L 16.00 16.00 L 0.00 16.00 L 0.00 0.00 M 9.00 0.99 C 9.01 4.66 9.00 8.34 9.00 12.01 L 10.00 12.01 C 10.00 8.34 10.01 4.66 10.00 0.99 L 9.00 0.99 M 0.99 3.99 C 1.00 6.66 1.00 9.34 0.99 12.01 L 2.00 12.02 C 1.99 9.34 1.99 6.66 2.00 3.99 L 0.99 3.99 M 3.00 3.99 C 3.01 6.66 3.01 9.34 3.00 12.01 L 4.00 12.01 C 3.99 9.34 3.99 6.66 4.00 3.99 L 3.00 3.99 M 5.00 3.99 C 5.01 6.66 5.01 9.33 5.00 12.01 L 6.00 12.01 C 5.99 9.34 5.99 6.67 6.00 3.99 L 5.00 3.99 M 7.00 3.99 C 7.01 6.66 7.01 9.34 7.00 12.01 L 8.01 12.01 C 8.00 9.34 8.00 6.66 8.00 3.99 L 7.00 3.99 M 11.00 3.99 C 11.00 7.68 11.00 11.36 11.00 15.05 L 12.00 14.98 C 11.99 11.32 12.00 7.65 12.00 3.99 L 11.00 3.99 M 13.00 3.99 C 13.00 6.67 13.00 9.35 13.00 12.02 L 14.00 12.00 C 14.00 9.33 14.00 6.66 14.00 3.99 L 13.00 3.99 Z" />
</g>
<g id="#fcfefcff">
<path fill="#fcfefc" opacity="1.00" d=" M 9.00 0.99 L 10.00 0.99 C 10.01 4.66 10.00 8.34 10.00 12.01 L 9.00 12.01 C 9.00 8.34 9.01 4.66 9.00 0.99 Z" />
<path fill="#fcfefc" opacity="1.00" d=" M 0.99 3.99 L 2.00 3.99 C 1.99 6.66 1.99 9.34 2.00 12.02 L 0.99 12.01 C 1.00 9.34 1.00 6.66 0.99 3.99 Z" />
<path fill="#fcfefc" opacity="1.00" d=" M 3.00 3.99 L 4.00 3.99 C 3.99 6.66 3.99 9.34 4.00 12.01 L 3.00 12.01 C 3.01 9.34 3.01 6.66 3.00 3.99 Z" />
<path fill="#fcfefc" opacity="1.00" d=" M 5.00 3.99 L 6.00 3.99 C 5.99 6.67 5.99 9.34 6.00 12.01 L 5.00 12.01 C 5.01 9.33 5.01 6.66 5.00 3.99 Z" />
<path fill="#fcfefc" opacity="1.00" d=" M 7.00 3.99 L 8.00 3.99 C 8.00 6.66 8.00 9.34 8.01 12.01 L 7.00 12.01 C 7.01 9.34 7.01 6.66 7.00 3.99 Z" />
<path fill="#fcfefc" opacity="1.00" d=" M 11.00 3.99 L 12.00 3.99 C 12.00 7.65 11.99 11.32 12.00 14.98 L 11.00 15.05 C 11.00 11.36 11.00 7.68 11.00 3.99 Z" />
<path fill="#fcfefc" opacity="1.00" d=" M 13.00 3.99 L 14.00 3.99 C 14.00 6.66 14.00 9.33 14.00 12.00 L 13.00 12.02 C 13.00 9.35 13.00 6.67 13.00 3.99 Z" />
</g>
</svg>
