<?xml version="1.0" encoding="UTF-8" ?>
<!DOCTYPE svg PUBLIC "-//W3C//DTD SVG 1.1//EN" "http://www.w3.org/Graphics/SVG/1.1/DTD/svg11.dtd">
<svg width="16pt" height="16pt" viewBox="0 0 16 16" version="1.1" xmlns="http://www.w3.org/2000/svg">
<g id="#2a2a2aff">
<path fill="#2a2a2a" opacity="1.00" d=" M 6.39 0.00 L 9.35 0.00 C 12.55 0.76 14.97 3.22 16.00 6.30 L 16.00 9.49 C 15.25 12.49 12.92 14.62 10.26 16.00 L 6.53 16.00 C 3.36 15.18 0.98 12.70 0.00 9.61 L 0.00 6.71 C 0.74 3.45 3.26 1.02 6.39 0.00 M 4.08 5.65 C 4.24 7.58 4.38 9.53 4.79 11.43 C 5.71 9.93 6.24 8.30 6.37 6.53 C 6.92 8.18 7.45 9.83 8.08 11.45 C 8.58 9.82 9.00 8.17 9.34 6.50 C 9.80 8.20 10.22 9.93 11.21 11.42 C 11.93 9.50 11.75 7.48 11.35 5.52 C 8.93 5.64 6.50 5.65 4.08 5.65 Z" />
</g>
<g id="#c0c0c0ff">
<path fill="#c0c0c0" opacity="1.00" d=" M 4.08 5.65 C 6.50 5.65 8.93 5.64 11.35 5.52 C 11.75 7.48 11.93 9.50 11.21 11.42 C 10.22 9.93 9.80 8.20 9.34 6.50 C 9.00 8.17 8.58 9.82 8.08 11.45 C 7.45 9.83 6.92 8.18 6.37 6.53 C 6.24 8.30 5.71 9.93 4.79 11.43 C 4.38 9.53 4.24 7.58 4.08 5.65 Z" />
</g>
</svg>
