<?xml version="1.0" encoding="UTF-8" ?>
<!DOCTYPE svg PUBLIC "-//W3C//DTD SVG 1.1//EN" "http://www.w3.org/Graphics/SVG/1.1/DTD/svg11.dtd">
<svg width="13pt" height="12pt" viewBox="0 0 13 12" version="1.1" xmlns="http://www.w3.org/2000/svg">
<g id="#36bd6ffa">
<path fill="#36bd6f" opacity="0.98" d=" M 0.59 0.64 C 1.40 0.67 3.03 0.73 3.84 0.75 C 4.59 3.38 5.42 5.97 6.36 8.53 C 8.16 5.56 7.92 0.33 12.42 0.30 C 12.65 4.19 12.90 8.14 12.19 12.00 L 10.54 12.00 C 10.38 8.99 10.43 5.96 10.53 2.95 C 9.49 5.96 8.54 9.00 7.48 12.00 L 5.19 12.00 C 4.43 9.26 3.60 6.53 2.63 3.86 C 2.58 6.57 2.57 9.29 2.49 12.00 L 0.57 12.00 C 0.49 8.21 0.48 4.42 0.59 0.64 Z" />
</g>
</svg>
