<?xml version="1.0" encoding="UTF-8" ?>
<!DOCTYPE svg PUBLIC "-//W3C//DTD SVG 1.1//EN" "http://www.w3.org/Graphics/SVG/1.1/DTD/svg11.dtd">
<svg width="96pt" height="96pt" viewBox="0 0 96 96" version="1.1" xmlns="http://www.w3.org/2000/svg">
<g id="#7ed321ff">
<path fill="#7ed321" opacity="1.00" d=" M 40.01 2.61 C 49.64 1.31 59.80 2.16 68.52 6.74 C 82.33 13.53 92.33 27.62 93.81 42.98 C 96.46 62.37 84.83 82.24 67.11 90.22 C 55.07 95.67 40.91 95.68 28.88 90.21 C 17.34 84.82 8.02 74.65 4.13 62.46 C 0.43 51.31 1.26 38.77 6.38 28.19 C 12.63 14.93 25.54 5.04 40.01 2.61 M 30.10 28.43 C 28.02 40.80 26.01 53.18 23.73 65.52 C 25.92 65.53 28.11 65.53 30.30 65.53 C 31.06 56.46 32.30 47.43 32.97 38.35 C 36.26 47.28 38.57 56.54 41.60 65.56 C 44.75 65.56 47.90 65.54 51.05 65.48 C 53.42 56.90 55.29 48.13 58.20 39.72 C 59.42 48.32 60.02 57.00 61.32 65.58 C 64.78 65.53 68.25 65.54 71.71 65.54 C 69.98 53.17 68.27 40.80 66.45 28.44 C 63.26 28.42 60.07 28.42 56.89 28.48 C 54.02 37.83 51.29 47.24 48.09 56.48 C 45.48 47.05 42.49 37.73 39.56 28.41 C 36.41 28.44 33.25 28.45 30.10 28.43 Z" />
</g>
<g id="#ffffffff">
<path fill="#ffffff" opacity="1.00" d=" M 30.10 28.43 C 33.25 28.45 36.41 28.44 39.56 28.41 C 42.49 37.73 45.48 47.05 48.09 56.48 C 51.29 47.24 54.02 37.83 56.89 28.48 C 60.07 28.42 63.26 28.42 66.45 28.44 C 68.27 40.80 69.98 53.17 71.71 65.54 C 68.25 65.54 64.78 65.53 61.32 65.58 C 60.02 57.00 59.42 48.32 58.20 39.72 C 55.29 48.13 53.42 56.90 51.05 65.48 C 47.90 65.54 44.75 65.56 41.60 65.56 C 38.57 56.54 36.26 47.28 32.97 38.35 C 32.30 47.43 31.06 56.46 30.30 65.53 C 28.11 65.53 25.92 65.53 23.73 65.52 C 26.01 53.18 28.02 40.80 30.10 28.43 Z" />
</g>
</svg>
