<?xml version="1.0" encoding="UTF-8" ?>
<!DOCTYPE svg PUBLIC "-//W3C//DTD SVG 1.1//EN" "http://www.w3.org/Graphics/SVG/1.1/DTD/svg11.dtd">
<svg width="128pt" height="128pt" viewBox="0 0 128 128" version="1.1" xmlns="http://www.w3.org/2000/svg">
<g id="#d61518ff">
<path fill="#d61518" opacity="1.00" d=" M 21.32 0.00 L 106.68 0.00 C 117.55 1.23 126.76 10.44 128.00 21.31 L 128.00 24.81 C 123.32 29.49 115.96 27.95 110.89 31.91 C 106.37 35.18 101.87 38.50 97.53 41.99 C 98.71 44.66 102.02 48.22 98.69 50.66 C 92.35 56.07 87.51 62.90 82.19 69.25 C 80.44 71.18 79.22 74.53 81.45 76.57 C 83.69 78.07 86.63 78.44 88.53 80.46 C 91.46 83.64 93.51 87.67 97.07 90.24 C 99.39 91.44 101.29 88.91 101.74 86.89 C 102.79 84.32 102.32 80.22 105.85 79.69 C 108.13 79.08 111.40 77.69 113.18 79.90 C 114.12 82.78 114.19 86.09 116.71 88.21 C 113.17 89.77 109.93 92.11 106.06 92.81 C 103.63 93.46 100.99 93.56 98.74 94.75 C 96.95 96.30 95.58 98.28 94.04 100.07 C 95.18 101.82 96.31 103.79 98.33 104.66 C 101.20 106.18 104.16 103.99 107.01 103.50 C 109.16 105.17 107.92 108.60 108.03 111.00 C 107.61 112.85 108.31 116.06 105.84 116.60 C 97.96 118.72 90.03 121.07 81.82 121.29 C 78.04 121.57 79.48 125.94 80.86 128.00 L 65.71 128.00 C 67.67 123.54 73.00 122.33 74.81 117.81 C 75.96 115.35 78.07 112.82 77.29 109.96 C 75.18 106.66 70.23 109.26 67.93 106.12 C 66.20 104.15 63.24 102.15 63.87 99.19 C 66.82 96.78 70.79 96.15 73.76 93.79 C 76.55 91.47 77.83 87.97 79.21 84.73 C 74.54 83.25 69.61 83.00 64.89 81.76 C 68.83 77.94 74.12 75.77 77.70 71.58 C 79.32 70.09 78.30 67.38 76.44 66.65 C 72.65 64.88 68.43 64.33 64.48 62.99 C 66.33 59.01 70.83 57.62 73.70 54.57 C 77.73 50.82 78.53 44.67 77.27 39.54 C 74.99 33.78 69.12 29.80 63.05 29.07 C 61.51 28.61 60.42 29.92 59.29 30.69 C 60.37 32.32 62.26 33.72 62.25 35.85 C 61.91 38.98 59.75 41.48 57.57 43.58 C 50.34 50.33 41.86 55.83 35.68 63.67 C 32.79 67.14 32.58 73.87 37.12 76.08 C 41.92 78.36 47.42 77.81 52.57 78.18 C 50.14 82.66 45.10 84.97 42.71 89.46 C 41.89 92.60 41.35 97.36 45.00 98.93 C 46.95 100.21 49.31 99.52 51.45 99.31 C 51.20 103.83 56.66 105.69 56.89 110.08 C 57.08 115.76 57.63 122.81 53.05 126.99 C 50.52 126.72 47.83 126.14 45.69 128.00 L 21.32 128.00 C 10.45 126.77 1.24 117.55 0.00 106.68 L 0.00 21.30 C 1.25 10.44 10.45 1.23 21.32 0.00 M 29.40 124.70 C 31.65 126.06 34.67 128.45 37.19 126.33 C 40.08 123.63 43.20 120.72 44.43 116.84 C 42.24 116.41 40.02 116.44 37.93 117.27 C 36.60 115.22 35.10 113.22 32.82 112.17 C 32.48 110.38 31.39 107.78 29.11 109.06 C 22.87 111.86 24.23 121.51 29.40 124.70 Z" />
<path fill="#d61518" opacity="1.00" d=" M 103.31 48.34 C 110.09 41.92 120.20 44.00 128.00 39.82 L 128.00 61.92 C 125.68 64.90 126.25 68.46 128.00 71.57 L 128.00 71.91 C 126.65 73.19 125.30 74.47 123.93 75.73 C 121.97 73.72 119.34 73.01 116.61 72.85 C 119.11 69.76 123.61 67.63 123.73 63.18 C 124.04 60.12 124.39 57.05 124.45 53.97 C 124.60 50.32 121.24 47.66 118.00 46.83 C 116.12 46.71 114.34 48.23 113.83 50.00 C 113.69 53.00 116.32 56.23 114.08 58.98 C 109.95 65.30 104.79 70.88 100.09 76.78 C 98.49 75.48 96.93 74.13 95.44 72.69 C 97.61 71.11 100.17 69.98 102.01 67.99 C 103.59 65.47 104.59 62.62 105.48 59.79 C 106.65 55.78 103.27 52.30 103.31 48.34 Z" />
<path fill="#d61518" opacity="1.00" d=" M 120.70 84.29 C 123.05 82.43 125.55 80.78 128.00 79.06 L 128.00 86.16 C 125.55 85.59 123.12 84.97 120.70 84.29 Z" />
<path fill="#d61518" opacity="1.00" d=" M 61.04 95.34 C 60.33 98.06 57.13 99.75 54.75 97.85 C 56.81 96.93 58.92 96.11 61.04 95.34 Z" />
<path fill="#d61518" opacity="1.00" d=" M 117.52 100.77 C 121.53 99.62 125.40 97.77 128.00 94.38 L 128.00 106.68 C 127.62 109.07 126.95 111.40 126.10 113.66 C 123.39 113.70 118.60 115.84 117.87 111.87 C 117.74 108.17 118.17 104.45 117.52 100.77 Z" />
</g>
<g id="#ffffffff">
<path fill="#ffffff" opacity="1.00" d=" M 110.89 31.91 C 115.96 27.95 123.32 29.49 128.00 24.81 L 128.00 39.82 C 120.20 44.00 110.09 41.92 103.31 48.34 C 103.27 52.30 106.65 55.78 105.48 59.79 C 104.59 62.62 103.59 65.47 102.01 67.99 C 100.17 69.98 97.61 71.11 95.44 72.69 C 96.93 74.13 98.49 75.48 100.09 76.78 C 104.79 70.88 109.95 65.30 114.08 58.98 C 116.32 56.23 113.69 53.00 113.83 50.00 C 114.34 48.23 116.12 46.71 118.00 46.83 C 121.24 47.66 124.60 50.32 124.45 53.97 C 124.39 57.05 124.04 60.12 123.73 63.18 C 123.61 67.63 119.11 69.76 116.61 72.85 C 119.34 73.01 121.97 73.72 123.93 75.73 C 125.30 74.47 126.65 73.19 128.00 71.91 L 128.00 79.06 C 125.55 80.78 123.05 82.43 120.70 84.29 C 123.12 84.97 125.55 85.59 128.00 86.16 L 128.00 94.38 C 125.40 97.77 121.53 99.62 117.52 100.77 C 118.17 104.45 117.74 108.17 117.87 111.87 C 118.60 115.84 123.39 113.70 126.10 113.66 C 122.55 121.32 115.06 127.05 106.61 128.00 L 80.86 128.00 C 79.48 125.94 78.04 121.57 81.82 121.29 C 90.03 121.07 97.96 118.72 105.84 116.60 C 108.31 116.06 107.61 112.85 108.03 111.00 C 107.92 108.60 109.16 105.17 107.01 103.50 C 104.16 103.99 101.20 106.18 98.33 104.66 C 96.31 103.79 95.18 101.82 94.04 100.07 C 95.58 98.28 96.95 96.30 98.74 94.75 C 100.99 93.56 103.63 93.46 106.06 92.81 C 109.93 92.11 113.17 89.77 116.71 88.21 C 114.19 86.09 114.12 82.78 113.18 79.90 C 111.40 77.69 108.13 79.08 105.85 79.69 C 102.32 80.22 102.79 84.32 101.74 86.89 C 101.29 88.91 99.39 91.44 97.07 90.24 C 93.51 87.67 91.46 83.64 88.53 80.46 C 86.63 78.44 83.69 78.07 81.45 76.57 C 79.22 74.53 80.44 71.18 82.19 69.25 C 87.51 62.90 92.35 56.07 98.69 50.66 C 102.02 48.22 98.71 44.66 97.53 41.99 C 101.87 38.50 106.37 35.18 110.89 31.91 Z" />
<path fill="#ffffff" opacity="1.00" d=" M 59.29 30.69 C 60.42 29.92 61.51 28.61 63.05 29.07 C 69.12 29.80 74.99 33.78 77.27 39.54 C 78.53 44.67 77.73 50.82 73.70 54.57 C 70.83 57.62 66.33 59.01 64.48 62.99 C 68.43 64.33 72.65 64.88 76.44 66.65 C 78.30 67.38 79.32 70.09 77.70 71.58 C 74.12 75.77 68.83 77.94 64.89 81.76 C 69.61 83.00 74.54 83.25 79.21 84.73 C 77.83 87.97 76.55 91.47 73.76 93.79 C 70.79 96.15 66.82 96.78 63.87 99.19 C 63.24 102.15 66.20 104.15 67.93 106.12 C 70.23 109.26 75.18 106.66 77.29 109.96 C 78.07 112.82 75.96 115.35 74.81 117.81 C 73.00 122.33 67.67 123.54 65.71 128.00 L 45.69 128.00 C 47.83 126.14 50.52 126.72 53.05 126.99 C 57.63 122.81 57.08 115.76 56.89 110.08 C 56.66 105.69 51.20 103.83 51.45 99.31 C 49.31 99.52 46.95 100.21 45.00 98.93 C 41.35 97.36 41.89 92.60 42.71 89.46 C 45.10 84.97 50.14 82.66 52.57 78.18 C 47.42 77.81 41.92 78.36 37.12 76.08 C 32.58 73.87 32.79 67.14 35.68 63.67 C 41.86 55.83 50.34 50.33 57.57 43.58 C 59.75 41.48 61.91 38.98 62.25 35.85 C 62.26 33.72 60.37 32.32 59.29 30.69 M 61.04 95.34 C 58.92 96.11 56.81 96.93 54.75 97.85 C 57.13 99.75 60.33 98.06 61.04 95.34 Z" />
<path fill="#ffffff" opacity="1.00" d=" M 128.00 71.57 C 126.25 68.46 125.68 64.90 128.00 61.92 L 128.00 71.57 Z" />
<path fill="#ffffff" opacity="1.00" d=" M 29.40 124.70 C 24.23 121.51 22.87 111.86 29.11 109.06 C 31.39 107.78 32.48 110.38 32.82 112.17 C 35.10 113.22 36.60 115.22 37.93 117.27 C 40.02 116.44 42.24 116.41 44.43 116.84 C 43.20 120.72 40.08 123.63 37.19 126.33 C 34.67 128.45 31.65 126.06 29.40 124.70 Z" />
</g>
</svg>
