<?xml version="1.0" encoding="UTF-8" ?>
<!DOCTYPE svg PUBLIC "-//W3C//DTD SVG 1.1//EN" "http://www.w3.org/Graphics/SVG/1.1/DTD/svg11.dtd">
<svg width="200pt" height="200pt" viewBox="0 0 200 200" version="1.1" xmlns="http://www.w3.org/2000/svg">
<g id="#000000ff">
<path fill="#000000" opacity="1.00" d=" M 86.42 13.57 C 104.51 10.65 123.50 13.70 139.77 22.12 C 156.68 30.69 170.60 44.98 178.80 62.07 C 187.50 79.91 189.78 100.77 185.16 120.07 C 180.29 140.88 167.46 159.70 149.87 171.83 C 132.61 183.91 110.86 189.45 89.93 186.90 C 74.50 185.17 59.59 179.13 47.23 169.73 C 30.46 157.13 18.53 138.29 14.31 117.73 C 10.24 98.34 13.05 77.58 22.22 60.00 C 34.63 35.50 59.25 17.66 86.42 13.57 M 57.37 52.13 C 56.58 62.38 56.89 73.27 61.76 82.57 C 60.19 88.54 59.77 94.77 60.69 100.88 C 58.79 102.79 57.50 105.66 58.77 108.28 C 59.70 110.78 62.32 111.76 64.72 112.24 C 65.86 119.35 69.21 126.32 74.98 130.79 C 80.51 135.21 87.47 137.38 94.43 138.18 C 94.46 138.74 94.54 139.85 94.58 140.41 C 96.58 141.57 98.59 142.72 100.62 143.84 C 102.62 142.69 104.62 141.54 106.62 140.40 C 106.68 139.84 106.81 138.72 106.88 138.16 C 114.35 137.24 121.95 134.83 127.56 129.60 C 132.56 125.14 135.28 118.71 136.42 112.22 C 138.53 111.67 140.97 111.12 142.07 108.98 C 143.66 106.34 142.71 103.03 140.62 100.97 C 142.36 85.20 136.07 67.43 121.88 59.14 C 111.58 53.51 99.57 51.79 87.97 51.74 C 77.77 51.96 67.54 51.33 57.37 52.13 M 79.98 146.98 C 70.01 152.61 63.02 162.87 60.83 174.05 C 85.19 187.21 115.96 186.89 140.19 173.56 C 137.29 158.08 124.50 145.57 109.26 142.12 C 109.25 145.16 109.25 148.21 109.25 151.25 C 106.38 149.62 103.52 147.99 100.72 146.25 C 97.78 147.85 94.88 149.52 92.00 151.21 C 92.01 148.15 92.00 145.10 91.96 142.05 C 87.83 143.32 83.69 144.71 79.98 146.98 Z" />
<path fill="#000000" opacity="1.00" d=" M 70.15 104.20 C 71.03 100.60 71.20 96.86 71.77 93.20 C 89.82 101.92 110.51 102.38 130.16 101.72 C 130.70 102.87 131.24 104.02 131.79 105.16 C 133.87 103.85 135.90 102.48 137.91 101.06 C 140.35 102.33 142.54 105.08 141.04 107.90 C 140.17 111.18 134.82 109.35 134.75 112.96 C 133.41 120.96 128.58 128.48 121.28 132.24 C 116.47 135.12 110.89 136.00 105.48 137.06 C 105.38 137.72 105.18 139.03 105.08 139.69 C 103.51 140.55 101.94 141.39 100.35 142.19 C 98.89 141.30 97.41 140.43 95.93 139.58 C 95.83 138.93 95.64 137.63 95.55 136.98 C 87.58 135.86 79.26 133.55 73.57 127.49 C 69.04 123.19 67.22 117.07 65.83 111.18 C 64.11 110.23 61.71 110.41 60.54 108.59 C 58.52 105.92 60.14 102.05 63.22 101.08 C 65.47 101.92 67.76 105.75 70.15 104.20 M 91.15 125.32 C 96.89 128.63 104.26 129.09 109.93 125.39 C 103.67 125.15 97.41 125.23 91.15 125.32 Z" />
</g>
</svg>
