<?xml version="1.0" encoding="UTF-8" ?>
<!DOCTYPE svg PUBLIC "-//W3C//DTD SVG 1.1//EN" "http://www.w3.org/Graphics/SVG/1.1/DTD/svg11.dtd">
<svg width="286pt" height="54pt" viewBox="0 0 286 54" version="1.1" xmlns="http://www.w3.org/2000/svg">
<g id="#bb1a2aff">
<path fill="#bb1a2a" opacity="1.00" d=" M 230.03 0.00 L 230.81 0.00 C 231.67 0.65 232.52 1.31 233.36 2.00 C 233.42 14.66 233.36 27.33 233.38 40.00 C 233.39 44.29 233.65 48.63 232.85 52.88 C 231.26 52.94 229.68 52.96 228.09 52.96 C 227.59 50.00 227.47 46.99 227.53 44.00 C 227.66 30.66 227.47 17.31 227.59 3.98 C 227.26 2.13 228.77 1.02 230.03 0.00 Z" />
<path fill="#bb1a2a" opacity="1.00" d=" M 213.24 2.21 C 215.42 -0.42 220.13 2.74 217.81 5.59 C 210.77 12.13 203.28 18.18 196.33 24.82 C 203.71 32.39 210.93 40.11 218.30 47.68 C 219.52 48.75 219.99 50.28 220.25 51.83 C 218.43 53.21 215.90 53.65 214.38 51.59 C 207.02 43.79 199.63 36.02 192.14 28.34 C 189.34 30.92 186.00 33.01 183.75 36.10 C 183.46 41.30 183.79 46.51 183.65 51.72 C 181.91 53.07 179.82 53.22 177.99 51.95 C 178.07 35.30 177.65 18.64 178.20 2.00 C 179.97 1.43 183.11 0.86 183.57 3.36 C 183.88 11.84 183.46 20.35 183.73 28.84 C 184.32 28.39 185.48 27.50 186.06 27.05 C 194.63 18.25 204.04 10.33 213.24 2.21 Z" />
<path fill="#bb1a2a" opacity="1.00" d=" M 239.15 2.28 C 249.08 1.60 259.05 2.14 269.00 1.97 C 274.67 2.09 280.42 1.46 286.00 2.73 L 286.00 6.08 C 279.28 8.28 272.05 6.63 265.12 7.18 C 264.92 21.44 265.11 35.71 265.07 49.97 C 265.59 52.47 262.40 54.43 260.38 52.91 C 258.94 52.24 259.39 50.27 259.16 49.00 C 259.09 35.05 259.31 21.10 259.07 7.16 C 252.40 7.01 245.71 7.48 239.06 6.78 C 239.07 5.28 239.09 3.78 239.15 2.28 Z" />
<path fill="#bb1a2a" opacity="1.00" d=" M 124.94 10.34 C 126.91 8.70 128.77 6.88 131.02 5.62 C 133.71 6.14 135.47 8.78 137.27 10.71 C 135.22 12.16 133.18 13.60 131.13 15.04 C 129.14 13.38 127.07 11.82 124.94 10.34 Z" />
<path fill="#bb1a2a" opacity="1.00" d=" M 43.38 17.36 C 46.96 15.98 50.99 20.55 49.10 23.95 C 47.58 28.00 40.23 27.42 39.76 22.93 C 39.10 20.39 40.95 17.97 43.38 17.36 Z" />
<path fill="#bb1a2a" opacity="1.00" d=" M 125.09 46.60 C 127.37 45.33 129.54 43.89 131.64 42.36 C 133.54 43.98 135.54 45.48 137.58 46.92 C 135.54 48.63 133.70 50.88 131.12 51.75 C 128.75 50.50 126.92 48.50 125.09 46.60 Z" />
</g>
<g id="#406c63fd">
<path fill="#406c63" opacity="1.00" d=" M 99.23 11.29 C 106.22 3.60 118.28 1.92 127.60 6.00 C 126.61 6.89 125.72 8.69 124.09 8.01 C 119.80 6.96 115.24 6.48 110.97 7.86 C 101.79 10.23 95.63 19.74 95.94 29.00 C 95.73 36.93 100.40 44.96 107.73 48.21 C 113.29 51.04 119.82 50.54 125.68 48.96 C 126.18 49.54 127.18 50.69 127.68 51.27 C 116.27 56.43 101.13 52.11 95.39 40.66 C 90.52 31.32 92.18 19.08 99.23 11.29 Z" />
<path fill="#406c63" opacity="1.00" d=" M 134.67 6.56 C 138.52 3.80 143.52 3.79 148.06 3.98 C 156.89 4.52 164.98 10.60 168.13 18.84 C 172.00 27.87 170.26 39.22 163.26 46.25 C 155.99 53.70 144.38 55.01 134.90 51.49 C 135.94 50.45 136.85 48.48 138.62 49.32 C 144.04 50.62 149.99 50.76 155.08 48.21 C 162.44 44.96 167.15 36.96 167.00 29.00 C 167.05 20.10 161.48 11.04 152.84 8.20 C 147.80 6.30 142.31 6.97 137.21 8.23 C 136.58 7.82 135.31 6.98 134.67 6.56 Z" />
<path fill="#406c63" opacity="1.00" d=" M 0.00 4.82 C 0.81 4.84 2.43 4.88 3.24 4.90 C 3.41 9.66 3.29 14.43 3.31 19.20 C 5.68 15.40 7.74 11.16 11.62 8.66 C 21.69 1.32 38.38 3.95 43.88 15.73 C 42.93 16.09 41.97 16.47 41.01 16.84 C 38.02 12.33 33.59 8.46 28.00 7.91 C 16.16 5.74 4.73 15.82 3.57 27.41 C 2.92 35.94 3.69 44.52 3.20 53.06 C 2.40 53.12 0.80 53.23 0.00 53.28 L 0.00 4.82 Z" />
<path fill="#406c63" opacity="1.00" d=" M 47.37 16.00 C 53.84 3.40 72.50 0.88 82.72 10.22 C 87.27 14.06 89.09 20.18 89.02 25.96 C 88.91 34.99 89.18 44.02 88.87 53.04 C 88.13 53.09 86.66 53.20 85.93 53.26 C 85.54 43.49 85.98 33.71 85.72 23.94 C 85.36 14.92 76.95 7.43 68.01 7.62 C 60.29 7.22 53.38 11.97 49.21 18.17 C 48.75 17.63 47.83 16.54 47.37 16.00 Z" />
<path fill="#406c63" opacity="1.00" d=" M 126.16 12.88 C 127.06 13.57 127.97 14.25 128.88 14.93 C 122.59 23.01 122.73 34.86 128.96 42.94 C 127.99 43.33 127.03 43.73 126.06 44.13 C 118.84 35.29 119.50 21.86 126.16 12.88 Z" />
<path fill="#406c63" opacity="1.00" d=" M 133.92 14.18 C 134.88 13.81 135.85 13.43 136.81 13.06 C 143.08 22.25 143.67 35.09 136.85 44.16 C 135.87 43.76 134.89 43.36 133.92 42.95 C 137.43 37.88 139.57 31.62 138.35 25.43 C 137.96 21.30 135.41 17.93 133.92 14.18 Z" />
<path fill="#406c63" opacity="1.00" d=" M 42.94 28.06 C 43.73 28.06 45.32 28.06 46.12 28.06 C 46.13 36.43 46.25 44.80 46.05 53.17 C 45.28 53.17 43.74 53.16 42.97 53.16 C 42.82 44.80 42.88 36.43 42.94 28.06 Z" />
</g>
</svg>
