<?xml version="1.0" encoding="UTF-8" ?>
<!DOCTYPE svg PUBLIC "-//W3C//DTD SVG 1.1//EN" "http://www.w3.org/Graphics/SVG/1.1/DTD/svg11.dtd">
<svg width="48pt" height="48pt" viewBox="0 0 48 48" version="1.1" xmlns="http://www.w3.org/2000/svg">
<g id="#006ad3ff">
<path fill="#006ad3" opacity="1.00" d=" M 25.62 0.00 L 33.43 0.00 C 38.48 0.79 44.23 1.04 48.00 4.99 L 48.00 7.04 C 41.73 11.92 33.49 11.93 25.94 12.10 C 22.88 11.97 19.70 13.59 18.66 16.60 C 17.63 20.04 18.15 23.68 18.06 27.21 L 17.76 27.98 C 15.92 30.77 13.85 33.40 11.96 36.16 C 5.91 34.64 0.80 30.03 0.00 23.63 L 0.00 18.60 C 1.29 16.71 2.36 14.55 4.28 13.22 C 6.47 11.69 9.21 11.48 11.77 11.03 C 12.26 8.37 11.25 4.60 14.17 3.12 C 17.63 1.08 21.76 0.80 25.62 0.00 M 14.20 5.23 C 14.33 5.78 14.58 6.87 14.71 7.42 C 15.57 7.45 16.42 7.43 17.28 7.36 C 20.68 9.75 24.97 9.86 28.97 10.03 C 33.63 9.96 38.71 10.10 42.73 7.36 C 43.58 7.43 44.44 7.45 45.30 7.42 C 45.42 6.87 45.67 5.77 45.80 5.22 C 35.97 0.67 24.02 0.67 14.20 5.23 M 5.41 20.40 C 4.34 24.91 7.77 29.14 11.91 30.51 C 12.07 25.93 12.07 21.35 11.88 16.77 C 9.16 16.19 6.07 17.51 5.41 20.40 Z" />
<path fill="#006ad3" opacity="1.00" d=" M 17.22 34.61 C 18.03 38.49 18.09 42.48 17.90 46.43 C 15.38 45.63 11.97 44.49 12.00 41.27 C 13.83 39.12 15.64 36.95 17.22 34.61 Z" />
</g>
<g id="#ffffffff">
<path fill="#ffffff" opacity="1.00" d=" M 14.20 5.23 C 24.02 0.67 35.97 0.67 45.80 5.22 C 45.67 5.77 45.42 6.87 45.30 7.42 C 44.44 7.45 43.58 7.43 42.73 7.36 C 34.50 4.71 25.51 4.72 17.28 7.36 C 16.42 7.43 15.57 7.45 14.71 7.42 C 14.58 6.87 14.33 5.78 14.20 5.23 Z" />
</g>
<g id="#232022ff">
<path fill="#232022" opacity="1.00" d=" M 17.28 7.36 C 25.51 4.72 34.50 4.71 42.73 7.36 C 38.71 10.10 33.63 9.96 28.97 10.03 C 24.97 9.86 20.68 9.75 17.28 7.36 Z" />
</g>
<g id="#1c7ff2ff">
<path fill="#1c7ff2" opacity="1.00" d=" M 25.94 12.10 C 33.49 11.93 41.73 11.92 48.00 7.04 L 48.00 43.06 C 44.19 46.94 38.49 47.21 33.44 48.00 L 26.52 48.00 C 23.63 47.62 20.75 47.09 17.90 46.43 C 18.09 42.48 18.03 38.49 17.22 34.61 C 17.72 33.83 18.20 33.04 18.70 32.27 C 19.76 30.69 21.05 29.27 22.23 27.78 C 25.34 29.69 28.34 31.79 31.23 34.02 C 35.78 29.54 38.38 23.40 43.53 19.46 C 43.58 17.98 43.67 16.50 43.73 15.03 C 42.26 15.35 40.80 15.70 39.34 16.05 C 37.45 21.01 34.24 25.29 30.85 29.31 C 27.74 27.35 24.72 25.26 21.80 23.04 C 20.57 24.45 19.21 25.74 18.06 27.21 C 18.15 23.68 17.63 20.04 18.66 16.60 C 19.70 13.59 22.88 11.97 25.94 12.10 Z" />
</g>
<g id="#fdfeffff">
<path fill="#fdfeff" opacity="1.00" d=" M 39.34 16.05 C 40.80 15.70 42.26 15.35 43.73 15.03 C 43.67 16.50 43.58 17.98 43.53 19.46 C 38.38 23.40 35.78 29.54 31.23 34.02 C 28.34 31.79 25.34 29.69 22.23 27.78 C 21.05 29.27 19.76 30.69 18.70 32.27 C 18.36 30.85 18.02 29.42 17.76 27.98 L 18.06 27.21 C 19.21 25.74 20.57 24.45 21.80 23.04 C 24.72 25.26 27.74 27.35 30.85 29.31 C 34.24 25.29 37.45 21.01 39.34 16.05 Z" />
</g>
<g id="#badffeff">
<path fill="#badffe" opacity="1.00" d=" M 11.96 36.16 C 13.85 33.40 15.92 30.77 17.76 27.98 C 18.02 29.42 18.36 30.85 18.70 32.27 C 18.20 33.04 17.72 33.83 17.22 34.61 C 15.64 36.95 13.83 39.12 12.00 41.27 C 11.97 39.56 11.95 37.86 11.96 36.16 Z" />
</g>
</svg>
