<?xml version="1.0" encoding="UTF-8" ?>
<!DOCTYPE svg PUBLIC "-//W3C//DTD SVG 1.1//EN" "http://www.w3.org/Graphics/SVG/1.1/DTD/svg11.dtd">
<svg width="32pt" height="32pt" viewBox="0 0 32 32" version="1.1" xmlns="http://www.w3.org/2000/svg">
<g id="#1863a3e0">
<path fill="#1863a3" opacity="0.88" d=" M 19.92 11.08 C 16.94 7.49 22.39 3.51 25.88 4.42 C 29.19 4.64 30.63 7.99 30.75 10.88 C 29.04 9.67 28.39 7.51 26.75 6.27 C 24.92 5.49 23.04 6.40 21.37 7.12 C 20.91 8.45 20.43 9.77 19.92 11.08 Z" />
</g>
<g id="#124772a5">
<path fill="#124772" opacity="0.65" d=" M 24.11 10.20 C 22.05 7.69 27.79 7.71 25.76 10.21 C 25.35 10.21 24.52 10.20 24.11 10.20 Z" />
</g>
<g id="#0d304d71">
<path fill="#0d304d" opacity="0.44" d=" M 24.11 10.20 C 24.52 10.20 25.35 10.21 25.76 10.21 C 25.19 11.77 24.65 11.77 24.11 10.20 Z" />
</g>
<g id="#1f517cd9">
<path fill="#1f517c" opacity="0.85" d=" M 4.44 13.31 C 6.79 11.95 9.49 12.93 11.44 14.50 C 13.63 12.39 17.56 11.85 19.70 14.31 C 21.40 17.53 20.39 21.33 21.11 24.78 C 22.97 27.48 27.57 26.58 28.54 23.53 C 29.39 20.09 28.84 16.47 29.00 12.96 C 29.43 12.98 30.30 13.02 30.73 13.04 C 30.58 16.97 31.23 21.05 29.92 24.84 C 28.01 29.06 20.94 29.29 19.25 24.77 C 18.69 21.93 19.25 18.98 18.75 16.13 C 17.43 13.23 12.91 14.13 12.19 17.01 C 11.78 20.75 12.14 24.54 11.83 28.30 C 11.45 28.06 10.69 27.59 10.31 27.36 C 9.79 23.58 10.41 19.73 9.85 15.96 C 8.41 13.02 3.93 14.49 3.41 17.38 C 2.64 21.05 3.29 24.86 2.80 28.58 C 0.70 27.01 1.59 24.18 1.35 21.96 C 1.44 18.93 1.24 14.89 4.44 13.31 Z" />
</g>
</svg>
