<?xml version="1.0" encoding="UTF-8" ?>
<!DOCTYPE svg PUBLIC "-//W3C//DTD SVG 1.1//EN" "http://www.w3.org/Graphics/SVG/1.1/DTD/svg11.dtd">
<svg width="180pt" height="180pt" viewBox="0 0 180 180" version="1.1" xmlns="http://www.w3.org/2000/svg">
<g id="#ffffffff">
<path fill="#ffffff" opacity="1.00" d=" M 0.00 0.00 L 180.00 0.00 L 180.00 180.00 L 0.00 180.00 L 0.00 0.00 M 42.05 22.82 C 37.38 23.31 32.65 23.23 28.01 23.93 C 25.09 24.21 23.13 27.12 23.37 29.93 C 23.45 66.63 23.07 103.35 23.68 140.05 C 23.87 143.41 24.28 146.76 24.75 150.09 C 25.74 154.03 30.28 155.63 33.96 155.47 C 66.33 155.49 98.70 155.57 131.07 155.33 C 135.06 155.39 139.02 154.40 143.00 154.96 C 145.98 155.37 149.11 155.00 151.86 153.75 C 154.38 152.53 155.36 149.60 155.30 146.97 C 156.13 114.32 155.00 81.66 155.28 49.01 C 155.21 42.66 155.42 36.31 155.18 29.97 C 155.00 27.67 154.57 24.66 152.05 23.78 C 147.13 22.53 142.03 22.63 136.99 22.65 C 105.35 22.77 73.70 22.46 42.05 22.82 Z" />
<path fill="#ffffff" opacity="1.00" d=" M 29.92 26.42 C 63.91 24.51 97.97 25.84 131.99 25.49 C 138.50 25.56 145.12 25.06 151.52 26.59 C 152.10 29.04 152.41 31.54 152.37 34.06 C 152.48 57.05 152.11 80.04 152.52 103.03 C 152.65 116.04 152.97 129.05 152.40 142.05 C 152.22 145.31 153.21 150.24 149.20 151.55 C 143.98 153.01 138.44 152.10 133.08 152.51 C 100.05 152.55 67.03 152.87 34.00 152.60 C 31.61 152.80 29.55 151.54 27.63 150.30 C 27.29 148.87 26.87 147.46 26.70 146.01 C 25.76 126.68 26.86 107.30 25.76 88.00 C 26.91 68.39 25.80 48.71 26.37 29.08 C 26.23 27.21 28.44 26.57 29.92 26.42 M 48.33 28.64 C 48.35 29.12 48.38 30.06 48.39 30.54 C 49.64 31.94 50.86 33.36 51.99 34.85 C 47.51 35.24 46.31 29.24 41.90 29.00 C 42.22 30.22 42.55 31.51 43.60 32.32 C 46.13 34.74 48.17 38.54 52.30 37.76 C 52.34 39.32 52.38 40.89 52.40 42.45 C 49.82 42.53 47.23 42.58 44.65 42.59 C 44.41 40.23 43.97 37.89 43.32 35.60 C 42.79 35.52 41.71 35.37 41.18 35.29 C 41.26 38.20 41.89 41.04 42.30 43.90 C 42.23 47.55 41.23 51.09 40.41 54.63 C 40.99 54.66 42.16 54.73 42.74 54.76 C 43.35 53.11 43.56 51.16 44.93 49.92 C 47.15 49.51 49.42 49.69 51.67 49.65 C 51.58 51.19 51.47 52.73 51.36 54.28 C 53.51 56.38 57.09 57.50 57.85 60.67 C 54.99 60.00 52.06 59.16 49.79 57.19 C 48.06 56.12 46.63 53.98 44.33 54.39 L 44.51 56.01 C 48.45 60.42 54.25 63.63 60.36 62.71 C 60.57 64.21 60.75 65.72 60.93 67.23 C 61.49 67.93 62.05 68.63 62.61 69.35 C 59.29 71.06 55.53 70.23 52.02 70.93 C 48.71 71.54 48.82 75.57 49.63 78.08 C 50.80 80.24 53.45 80.36 55.58 80.67 C 53.26 91.16 46.51 99.90 43.09 109.96 C 44.30 109.71 45.96 109.99 46.41 108.47 C 50.65 99.43 55.85 90.74 58.35 80.98 C 62.45 80.83 65.17 85.21 64.59 88.98 C 63.95 96.36 58.82 102.29 57.43 109.39 C 57.89 109.38 58.81 109.36 59.26 109.35 C 62.87 102.92 66.52 96.16 67.29 88.71 C 69.49 88.79 71.69 88.94 73.87 89.27 C 73.67 90.28 73.47 91.30 73.27 92.32 C 71.90 92.76 70.52 93.20 69.15 93.63 C 69.21 94.19 69.33 95.32 69.40 95.88 C 72.00 95.80 74.54 95.13 76.14 92.91 C 76.22 90.84 76.27 87.88 79.26 88.55 C 80.10 90.03 80.32 91.73 80.60 93.38 C 82.31 94.68 84.28 95.53 86.43 95.70 C 86.50 95.17 86.63 94.09 86.70 93.55 C 85.70 93.15 84.71 92.75 83.72 92.34 C 83.33 91.66 82.56 90.31 82.17 89.63 C 83.58 89.45 85.00 89.29 86.41 89.15 C 86.58 88.24 86.75 87.34 86.92 86.44 C 84.15 86.26 80.93 87.15 78.73 84.93 C 80.68 84.16 82.84 83.83 84.65 82.74 C 86.42 81.55 86.47 79.28 86.87 77.41 C 86.35 77.40 85.32 77.38 84.80 77.37 C 84.11 79.88 82.30 81.62 79.60 81.70 C 79.52 79.98 79.44 78.27 79.37 76.56 C 82.95 75.71 87.12 73.74 86.87 69.40 C 86.36 69.39 85.35 69.38 84.84 69.37 C 83.99 71.81 81.98 73.31 79.47 73.72 C 79.37 71.92 79.30 70.12 79.22 68.33 C 75.54 67.61 76.76 71.62 76.34 73.83 C 74.10 73.02 72.10 71.74 71.00 69.56 C 70.49 69.47 69.46 69.29 68.95 69.20 C 68.82 73.87 73.48 75.88 77.27 76.95 C 77.07 78.61 76.84 80.26 76.62 81.91 C 75.30 81.38 73.98 80.83 72.67 80.27 C 72.26 79.05 71.84 77.83 71.43 76.61 C 70.90 76.63 69.84 76.68 69.32 76.70 C 69.38 79.27 70.68 81.48 72.41 83.30 C 74.11 83.69 75.78 84.21 77.40 84.87 C 75.29 87.13 71.94 86.13 69.22 86.65 C 66.33 84.25 65.20 80.10 61.52 78.61 C 58.37 76.67 54.14 78.63 51.32 75.96 C 51.70 75.38 52.47 74.22 52.85 73.64 C 57.12 73.22 63.01 74.06 65.19 69.35 C 63.15 67.73 63.81 64.86 63.47 62.62 C 64.56 61.41 65.64 60.21 66.73 59.00 C 65.18 56.54 63.51 54.02 60.98 52.48 C 60.53 52.68 59.65 53.10 59.21 53.31 C 59.93 55.90 64.03 57.05 62.49 60.24 C 59.57 57.16 53.96 55.38 54.20 50.38 C 57.23 50.26 60.26 50.34 63.29 50.47 C 64.23 52.42 64.96 54.97 67.68 54.75 C 66.82 51.52 65.07 48.41 65.44 44.97 C 65.32 41.45 67.48 38.36 67.30 34.84 C 66.31 34.62 65.32 34.41 64.33 34.20 C 64.42 35.60 64.50 37.00 64.59 38.39 C 61.29 38.73 57.97 38.72 54.67 38.47 C 54.64 38.02 54.57 37.12 54.53 36.67 C 57.23 35.46 59.96 34.35 62.71 33.28 C 62.62 31.77 62.49 30.26 62.36 28.76 C 61.39 28.47 60.43 28.19 59.47 27.91 C 59.57 29.16 59.72 30.41 59.69 31.67 C 58.12 32.61 56.39 33.22 54.71 33.91 C 53.87 32.91 52.83 32.04 52.23 30.86 C 52.22 29.34 53.59 28.21 54.20 26.89 C 52.22 27.39 50.27 27.99 48.33 28.64 M 72.17 27.39 C 72.16 27.97 72.14 29.14 72.13 29.72 C 75.66 29.71 79.19 29.82 82.69 30.22 C 82.69 33.03 82.92 35.87 82.50 38.67 C 79.40 39.62 75.97 38.82 72.78 39.53 C 72.51 43.49 72.25 47.45 72.47 51.42 C 75.82 52.11 79.24 52.36 82.66 52.34 C 82.39 56.18 83.21 60.27 82.11 63.95 C 77.96 64.66 73.71 63.99 69.52 64.38 C 69.51 64.92 69.49 66.02 69.48 66.57 C 77.91 67.72 86.39 66.55 94.86 66.88 C 99.54 66.57 104.39 67.96 108.90 66.21 C 108.56 65.79 107.88 64.94 107.53 64.51 C 103.58 63.79 99.50 64.40 95.49 64.30 C 95.23 60.28 95.18 56.25 95.20 52.23 C 98.58 52.31 101.97 52.08 105.27 51.30 C 105.52 47.38 105.68 43.46 105.49 39.53 C 102.09 39.40 98.70 39.34 95.31 39.29 C 95.17 36.30 95.21 33.30 95.32 30.31 C 99.02 30.33 102.71 30.32 106.40 30.26 C 106.37 29.36 106.34 28.46 106.32 27.57 C 94.94 27.52 83.55 27.40 72.17 27.39 M 128.82 38.28 C 128.27 36.38 129.07 32.72 125.90 33.65 C 124.88 36.43 126.90 39.30 126.31 42.12 C 125.62 42.38 124.25 42.89 123.57 43.15 C 122.03 39.52 122.93 35.67 123.61 31.96 C 125.23 30.63 127.86 29.76 127.72 27.17 C 123.95 28.31 120.33 29.95 116.94 31.96 C 111.77 35.81 109.80 42.52 109.15 48.66 C 109.73 48.68 110.88 48.72 111.46 48.74 C 111.87 46.47 112.28 44.19 113.13 42.04 C 113.54 41.01 113.95 39.99 114.35 38.96 C 114.30 40.83 114.24 42.70 114.19 44.57 C 116.01 44.98 117.84 45.34 119.69 45.64 C 117.39 47.60 114.64 49.47 113.70 52.50 C 112.31 57.06 112.17 61.88 112.42 66.60 C 113.32 66.50 114.22 66.40 115.12 66.30 C 115.38 60.45 114.13 52.95 119.64 49.05 C 120.46 50.57 120.11 52.31 120.02 53.95 C 119.60 58.42 120.25 62.92 119.59 67.38 C 120.61 67.48 121.64 67.59 122.67 67.68 C 122.42 61.47 122.62 55.26 122.77 49.05 C 128.11 52.60 126.21 59.67 126.98 65.05 C 127.56 65.37 128.70 66.02 129.28 66.35 C 129.74 59.17 130.20 49.90 122.99 45.76 C 124.80 45.41 126.77 45.44 128.38 44.42 C 129.38 42.84 129.13 40.90 129.32 39.13 C 130.01 39.21 131.39 39.36 132.08 39.43 C 131.61 39.32 130.66 39.08 130.19 38.96 C 133.26 37.82 134.92 34.37 138.37 33.92 C 138.14 35.27 138.60 37.04 137.17 37.85 C 133.38 40.85 129.41 44.61 129.24 49.81 C 131.50 49.70 131.95 47.37 132.97 45.86 C 134.07 43.59 135.85 41.62 138.35 40.92 C 138.34 42.00 138.33 43.08 138.32 44.16 C 133.96 48.00 130.61 53.06 129.66 58.87 C 130.23 58.72 131.39 58.42 131.96 58.27 C 133.73 54.47 135.04 50.11 138.73 47.67 C 140.72 49.65 143.00 51.30 145.36 52.80 C 146.43 56.99 146.34 61.33 146.69 65.61 C 147.40 65.70 148.83 65.86 149.54 65.94 C 149.33 61.41 148.41 56.95 148.38 52.41 C 146.05 50.13 143.20 48.48 140.98 46.09 C 143.74 44.65 146.42 43.01 148.51 40.67 C 148.46 40.14 148.36 39.09 148.30 38.57 C 147.94 38.57 147.20 38.58 146.83 38.58 C 145.50 40.66 143.51 42.10 141.25 43.06 C 141.27 41.99 141.32 39.85 141.34 38.79 C 144.27 37.19 149.25 36.41 148.76 32.09 C 146.00 33.53 143.41 35.51 140.21 35.86 C 140.11 32.16 144.12 31.23 146.45 29.26 C 146.46 28.70 146.49 27.59 146.51 27.03 C 140.07 29.81 133.06 32.31 128.82 38.28 M 32.82 28.85 C 32.09 33.43 33.02 38.09 32.50 42.68 C 31.25 43.56 29.53 43.17 28.08 43.46 C 28.11 43.98 28.18 45.00 28.22 45.51 C 29.64 45.53 31.06 45.55 32.48 45.57 C 32.88 52.77 32.44 59.99 32.82 67.18 C 33.36 67.26 34.44 67.43 34.98 67.51 C 36.51 75.75 33.93 84.02 34.66 92.32 C 34.17 91.92 33.18 91.10 32.69 90.70 C 30.20 85.50 30.40 79.37 31.34 73.79 C 30.91 72.89 30.48 71.99 30.05 71.10 C 29.69 71.43 28.95 72.10 28.58 72.44 C 28.53 78.30 27.83 84.33 29.30 90.07 C 29.90 93.01 32.62 94.44 34.94 95.87 C 34.27 98.52 30.45 96.85 28.36 97.41 C 28.45 98.34 28.54 99.26 28.63 100.19 C 30.93 100.20 33.23 100.22 35.53 100.29 C 35.49 103.12 35.44 105.96 35.41 108.80 C 36.42 108.72 37.43 108.64 38.45 108.57 C 38.38 105.88 38.33 103.20 38.33 100.52 C 40.89 100.16 44.21 100.20 45.59 97.53 C 48.12 92.81 51.18 88.00 51.52 82.51 C 50.68 82.61 49.84 82.71 49.01 82.81 C 47.59 87.22 46.04 91.65 43.63 95.63 C 42.62 97.57 40.07 97.19 38.30 97.72 C 37.55 94.27 42.02 93.56 42.97 90.71 C 45.55 84.57 44.37 77.67 44.56 71.19 C 43.52 71.23 42.49 71.27 41.45 71.32 C 42.95 76.96 42.00 82.78 41.11 88.44 C 40.84 90.12 39.69 91.39 38.34 92.35 C 38.12 84.55 38.30 76.76 38.30 68.97 C 37.29 68.30 36.28 67.64 35.33 66.90 C 35.55 59.83 35.28 52.77 35.46 45.70 C 37.18 45.05 41.08 46.64 40.75 43.58 C 39.07 43.25 37.35 43.23 35.64 43.17 C 35.25 39.46 35.47 35.73 35.42 32.00 C 35.54 30.67 34.89 26.96 32.82 28.85 M 41.19 64.09 C 41.20 64.72 41.23 65.96 41.24 66.58 C 46.66 66.51 52.14 66.33 57.50 67.41 C 57.56 66.46 57.63 65.51 57.69 64.56 C 52.20 64.34 46.70 64.02 41.19 64.09 M 136.99 66.12 C 136.41 67.55 135.85 68.98 135.30 70.42 C 132.06 70.96 128.71 71.34 125.82 73.03 C 128.96 75.35 132.71 73.23 136.08 72.69 C 136.25 73.09 136.58 73.89 136.75 74.29 C 133.76 75.23 130.77 76.17 127.73 76.95 C 127.59 77.88 127.45 78.82 127.32 79.75 C 130.46 79.27 133.37 77.98 136.39 77.04 C 136.78 78.20 137.17 79.37 137.56 80.53 C 140.59 81.35 143.69 81.86 146.77 82.49 C 146.39 91.18 146.95 99.82 147.73 108.45 C 148.70 108.52 149.68 108.59 150.66 108.66 C 148.32 99.80 150.20 90.49 149.48 81.44 C 148.79 80.83 148.11 80.22 147.42 79.61 C 144.51 79.47 141.57 79.16 138.87 77.99 C 142.10 76.06 145.97 76.83 149.54 76.62 C 150.41 73.83 150.08 70.95 149.51 68.15 C 146.36 70.08 142.61 69.78 139.08 69.66 C 138.55 68.77 137.51 67.00 136.99 66.12 M 89.01 68.88 C 89.01 73.07 93.06 75.57 96.88 75.70 C 96.73 76.09 96.43 76.89 96.28 77.28 C 93.94 77.33 91.59 77.39 89.25 77.47 C 89.23 78.03 89.20 79.16 89.18 79.72 C 93.12 79.76 97.07 79.26 101.00 79.70 C 103.27 79.92 105.70 81.50 105.65 84.03 C 105.94 87.96 105.89 91.99 105.13 95.87 C 104.20 99.79 99.74 100.02 96.49 100.49 C 96.52 99.61 96.55 98.73 96.59 97.85 C 98.84 97.28 100.93 96.24 102.53 94.52 C 102.57 93.43 102.60 92.34 102.64 91.25 C 102.19 91.28 101.29 91.34 100.83 91.37 C 100.03 92.92 98.96 94.29 97.33 95.05 C 97.28 93.27 97.25 91.48 97.24 89.69 C 100.60 89.15 103.81 87.15 103.84 83.35 C 100.71 82.70 100.36 86.81 97.39 86.89 C 97.33 85.03 97.31 83.18 97.30 81.33 C 96.47 81.41 95.63 81.49 94.80 81.57 C 94.66 83.33 94.51 85.08 94.32 86.83 C 92.50 85.86 91.11 84.36 90.01 82.64 C 89.58 82.54 88.72 82.34 88.29 82.23 C 87.40 86.39 91.43 88.41 94.57 89.82 C 94.44 91.70 94.36 93.67 93.10 95.19 C 92.01 93.68 90.98 92.13 89.98 90.57 C 89.52 90.48 88.60 90.31 88.14 90.22 C 87.94 92.95 88.97 95.63 91.76 96.54 C 93.72 97.05 93.85 98.83 93.85 100.57 C 92.77 101.00 91.69 101.42 90.62 101.84 C 90.22 103.27 89.86 104.71 89.55 106.17 C 90.28 106.95 91.01 107.75 91.73 108.54 C 97.46 108.99 103.44 107.86 108.74 110.70 C 108.67 110.02 108.51 108.65 108.43 107.96 C 104.20 104.85 98.50 106.86 93.62 106.39 C 93.40 105.42 93.19 104.46 92.98 103.49 C 97.84 102.35 104.38 103.27 107.21 98.15 C 109.07 93.72 108.30 88.68 108.40 83.99 C 108.58 79.69 104.29 77.52 100.62 77.09 C 100.50 76.72 100.28 75.98 100.16 75.62 C 104.22 76.33 108.18 73.48 108.54 69.31 C 106.32 69.18 105.05 70.81 104.02 72.49 C 103.12 72.59 101.33 72.78 100.44 72.88 C 100.41 71.07 100.27 69.22 99.02 67.79 C 97.68 69.12 97.42 70.96 97.24 72.75 C 95.88 72.63 94.52 72.48 93.17 72.31 C 92.27 70.58 91.22 68.84 89.01 68.88 M 112.37 71.28 C 110.74 78.46 112.82 85.75 112.56 92.99 C 113.23 98.99 111.55 104.77 110.55 110.61 C 114.29 110.76 113.71 106.27 114.89 103.85 C 117.64 103.84 120.40 103.71 123.14 103.41 C 123.84 100.91 124.89 98.53 126.02 96.20 C 122.52 96.14 119.03 96.17 115.53 96.25 C 115.42 95.36 115.31 94.47 115.20 93.58 C 117.88 93.64 120.56 93.61 123.24 93.40 C 123.45 91.96 123.67 90.52 123.91 89.09 C 124.73 88.05 125.33 86.90 125.70 85.64 C 122.19 85.60 118.69 85.66 115.18 85.66 C 115.25 85.20 115.38 84.27 115.45 83.81 C 117.59 83.67 119.83 83.89 121.89 83.20 C 123.35 82.23 123.42 80.40 123.83 78.88 C 124.42 78.37 125.59 77.36 126.18 76.86 C 122.56 74.11 117.76 76.77 113.70 75.26 C 116.59 71.29 124.55 75.43 125.12 68.92 C 121.13 70.96 116.66 70.62 112.37 71.28 M 127.35 81.77 C 127.33 84.64 127.42 87.52 127.56 90.39 C 129.91 90.52 132.26 90.60 134.61 90.61 C 135.05 92.55 135.32 94.53 135.45 96.52 C 134.15 96.19 132.85 95.85 131.55 95.51 C 131.50 94.83 131.39 93.46 131.34 92.77 C 130.61 92.54 129.16 92.07 128.44 91.83 C 128.52 92.61 128.68 94.17 128.76 94.95 C 129.82 98.17 133.58 98.62 136.17 100.10 C 133.03 100.88 129.50 100.11 126.70 102.03 C 129.56 103.70 132.95 103.05 136.08 103.59 C 135.61 104.02 134.68 104.87 134.22 105.30 C 131.91 105.33 129.60 105.38 127.29 105.42 C 127.31 105.97 127.33 107.05 127.35 107.59 C 133.42 107.58 139.48 107.63 145.55 107.59 C 145.54 107.07 145.52 106.03 145.51 105.51 C 142.82 105.21 139.45 106.18 137.55 103.69 C 140.25 103.12 143.01 103.23 145.75 103.35 C 145.63 99.34 140.20 101.37 137.59 100.25 C 140.58 98.54 144.20 96.56 143.77 92.52 C 143.25 92.48 142.22 92.38 141.71 92.33 C 140.93 94.01 140.00 95.61 138.86 97.06 C 136.93 94.87 136.73 89.44 140.96 90.62 C 142.39 90.23 146.70 91.61 145.25 88.70 C 142.69 88.27 140.05 88.16 137.67 87.04 C 140.28 86.24 143.04 86.40 145.74 86.37 C 145.50 82.72 140.99 83.98 138.55 83.60 C 138.15 83.16 137.36 82.26 136.96 81.82 C 136.03 82.42 135.10 83.03 134.18 83.64 C 133.38 83.58 131.78 83.47 130.98 83.42 C 129.79 82.82 128.58 82.27 127.35 81.77 M 59.65 85.32 C 56.58 93.10 52.73 100.61 50.24 108.60 C 51.21 108.59 52.19 108.59 53.17 108.58 C 55.55 102.29 58.26 96.14 60.85 89.94 C 61.48 88.48 61.69 86.89 61.92 85.32 C 61.35 85.32 60.22 85.32 59.65 85.32 M 77.43 93.38 C 76.68 95.69 76.60 98.13 76.60 100.54 C 74.22 100.60 71.85 100.67 69.47 100.73 C 69.39 101.67 69.31 102.60 69.24 103.54 C 71.63 103.53 74.03 103.45 76.42 103.67 C 76.54 104.38 76.78 105.79 76.90 106.50 C 74.49 106.64 72.08 106.74 69.67 106.80 C 69.49 107.76 69.32 108.71 69.15 109.67 C 75.04 109.05 80.95 109.30 86.85 109.59 C 86.74 108.62 86.63 107.66 86.52 106.70 C 84.18 106.72 81.85 106.67 79.51 106.55 C 79.59 105.56 79.67 104.58 79.75 103.60 C 82.29 103.56 84.83 103.56 87.37 103.54 C 87.39 103.00 87.43 101.93 87.46 101.40 C 84.89 100.79 82.25 100.61 79.62 100.52 C 79.57 98.22 79.51 95.93 79.43 93.65 C 78.93 93.58 77.93 93.45 77.43 93.38 M 130.46 115.50 C 125.87 115.60 121.27 115.98 116.69 115.57 C 116.67 114.18 116.65 112.79 116.63 111.40 C 116.08 111.39 114.97 111.39 114.42 111.38 C 114.37 113.49 114.34 115.60 114.33 117.72 C 119.67 118.97 125.18 118.01 130.60 118.30 C 130.54 118.84 130.43 119.91 130.37 120.45 C 124.73 121.06 118.82 119.54 113.41 121.61 C 113.25 125.94 112.85 130.45 114.45 134.58 C 119.64 136.20 124.97 134.36 130.25 134.61 C 128.87 136.57 126.29 136.45 124.26 137.20 C 121.06 138.00 119.02 140.94 117.91 143.85 C 117.05 146.20 115.88 149.02 117.92 151.15 C 120.26 148.32 119.96 144.22 122.52 141.53 C 124.31 139.45 127.17 139.06 129.66 138.38 C 129.89 142.39 129.83 146.41 129.59 150.42 C 130.59 150.57 131.59 150.71 132.60 150.86 C 132.73 146.86 132.70 142.86 132.87 138.87 C 138.91 139.16 143.76 143.68 144.82 149.57 C 145.38 149.63 146.49 149.73 147.04 149.78 C 147.00 142.39 140.31 137.15 133.45 136.18 C 133.46 135.77 133.49 134.94 133.50 134.52 C 138.33 134.79 143.21 135.79 148.03 135.01 C 150.80 134.50 150.51 131.17 150.59 129.04 C 150.69 126.01 150.81 121.72 147.14 120.76 C 142.69 120.22 138.18 120.55 133.71 120.31 C 133.58 119.80 133.32 118.78 133.19 118.27 C 138.60 117.68 144.28 119.40 149.48 117.41 C 149.43 115.51 149.38 113.62 149.32 111.73 C 148.44 111.67 147.56 111.61 146.68 111.55 C 146.62 112.87 146.56 114.20 146.50 115.53 C 142.21 115.62 137.93 115.56 133.65 115.38 C 133.37 113.38 133.41 111.21 132.24 109.47 C 128.89 109.30 130.97 113.53 130.46 115.50 M 28.41 119.42 C 28.41 120.06 28.40 121.33 28.40 121.97 C 30.72 121.19 33.24 118.24 35.64 120.35 C 36.70 123.73 32.71 123.39 30.51 123.67 C 30.42 126.98 29.87 130.39 30.56 133.66 C 32.92 137.22 33.47 141.56 35.61 145.23 C 37.00 147.68 38.33 150.99 41.70 150.87 C 41.08 148.06 39.05 145.88 38.19 143.16 C 41.00 140.22 41.17 135.66 44.45 133.12 C 44.60 129.93 44.64 126.74 44.62 123.56 C 42.29 123.15 38.67 123.92 38.09 120.78 C 38.82 120.46 40.30 119.84 41.04 119.53 C 42.49 120.63 44.04 121.61 45.90 121.87 C 44.36 117.85 41.28 114.64 38.55 111.38 C 38.19 111.34 37.46 111.24 37.10 111.20 C 33.95 113.66 31.40 116.78 28.41 119.42 M 86.41 110.94 C 86.43 111.49 86.48 112.60 86.50 113.15 C 87.91 114.59 89.28 116.06 90.64 117.55 C 91.15 117.56 92.19 117.58 92.70 117.59 C 92.64 117.09 92.53 116.09 92.47 115.59 C 90.71 113.74 89.15 111.33 86.41 110.94 M 70.21 116.83 C 73.08 116.13 75.80 114.90 78.72 114.38 C 79.05 117.18 77.35 119.68 75.03 121.06 C 73.05 122.27 69.96 122.53 70.18 125.58 C 76.65 124.82 82.66 119.47 81.69 112.51 C 77.81 112.19 70.32 111.19 70.21 116.83 M 99.54 113.84 C 99.70 116.83 101.36 119.48 103.38 121.59 C 105.28 123.59 107.50 125.80 110.52 125.51 C 108.38 121.67 104.23 119.42 102.37 115.33 C 105.22 115.42 108.08 115.58 110.93 115.58 C 110.73 114.92 110.31 113.60 110.10 112.94 C 106.74 112.63 102.02 110.90 99.54 113.84 M 51.93 113.68 C 49.72 114.08 47.12 115.37 46.88 117.89 C 47.67 128.77 46.77 139.71 45.41 150.51 C 46.42 150.58 47.44 150.64 48.46 150.70 C 48.43 144.09 49.66 137.56 49.63 130.96 C 49.87 126.62 49.32 122.23 49.93 117.93 C 51.90 115.07 55.98 115.72 59.00 115.58 C 61.83 115.56 66.76 116.03 66.26 119.99 C 65.72 129.34 65.60 138.71 65.73 148.08 C 65.75 149.34 66.16 152.66 68.21 151.10 C 68.48 140.05 68.59 128.96 68.55 117.90 C 68.83 115.45 66.33 113.84 64.18 113.59 C 60.12 113.12 55.98 113.10 51.93 113.68 M 93.03 111.96 C 93.66 113.75 94.58 115.41 95.56 117.03 C 93.52 118.99 91.40 120.85 89.27 122.72 C 86.91 121.74 84.68 120.49 82.50 119.16 C 82.46 120.20 82.41 121.24 82.38 122.28 C 84.67 123.71 87.43 124.64 89.18 126.79 C 90.38 134.18 88.94 141.83 90.25 149.17 C 90.87 149.38 92.12 149.81 92.75 150.02 C 92.62 141.59 92.52 133.14 91.46 124.76 C 94.10 122.44 96.75 120.09 98.69 117.13 C 97.40 114.71 96.55 111.30 93.03 111.96 M 83.39 113.84 C 83.43 114.45 83.52 115.67 83.57 116.28 C 85.46 118.07 86.97 120.98 90.01 120.71 C 88.86 117.72 86.80 114.44 83.39 113.84 M 52.59 118.36 C 51.29 122.44 51.65 126.75 51.45 130.96 C 51.32 136.96 50.59 142.93 50.60 148.93 C 52.99 149.18 53.65 147.62 53.71 145.58 C 55.97 145.23 58.21 144.82 60.46 144.41 C 61.09 141.82 61.56 139.11 60.64 136.52 C 58.09 136.50 55.53 136.25 53.14 135.32 C 53.54 134.67 54.33 133.39 54.73 132.75 C 56.90 132.73 59.06 132.67 61.22 132.56 C 62.01 129.96 62.48 127.28 62.56 124.56 C 59.76 123.94 56.91 123.56 54.06 123.31 C 54.53 122.26 54.51 120.37 56.16 120.98 C 58.83 121.37 63.13 121.30 62.65 117.54 C 59.38 118.53 55.96 118.38 52.59 118.36 M 77.09 125.04 C 74.56 127.29 71.45 129.52 70.89 133.10 C 74.98 133.00 75.57 127.48 79.62 127.18 C 79.39 133.38 78.87 140.02 75.26 145.29 C 73.89 147.42 71.61 149.03 71.21 151.70 C 72.82 151.43 74.38 150.78 75.36 149.43 C 81.41 142.73 82.51 133.04 81.46 124.41 C 80.00 124.49 78.27 123.89 77.09 125.04 M 99.68 123.49 C 98.58 130.65 99.58 138.17 102.37 144.82 C 104.11 147.50 105.73 151.57 109.48 151.46 C 110.11 149.70 108.46 148.64 107.54 147.49 C 102.27 142.23 101.81 134.08 101.46 127.06 C 104.84 127.16 106.44 130.44 108.44 132.64 C 109.06 132.66 110.30 132.70 110.92 132.72 C 109.53 127.95 104.82 123.46 99.68 123.49 M 94.50 127.42 C 95.10 134.89 95.26 142.43 96.76 149.79 C 97.64 149.69 98.52 149.59 99.41 149.49 C 98.24 143.87 97.99 138.11 97.34 132.41 C 97.09 130.52 97.49 127.05 94.50 127.42 M 84.62 129.22 C 84.25 136.11 83.30 142.95 82.57 149.81 C 83.21 149.66 84.48 149.34 85.12 149.19 C 86.25 142.60 86.69 135.91 87.45 129.27 C 86.74 129.26 85.33 129.23 84.62 129.22 Z" />
<path fill="#ffffff" opacity="1.00" d=" M 85.61 30.32 C 87.89 30.23 90.17 30.26 92.44 30.37 C 92.27 34.09 92.22 37.81 92.46 41.52 C 96.11 41.88 99.77 42.22 103.43 42.46 C 103.37 44.47 103.32 46.49 103.29 48.50 C 99.78 49.58 96.07 49.16 92.46 49.35 C 92.20 54.08 92.25 58.81 92.36 63.55 C 90.10 63.80 87.88 64.26 85.68 64.82 C 85.30 64.61 85.57 63.92 85.47 63.55 C 85.15 58.98 86.18 54.24 85.03 49.78 C 81.92 48.69 78.53 49.34 75.29 49.26 C 75.25 46.70 75.34 44.14 75.58 41.60 C 78.93 41.50 82.40 41.92 85.61 40.69 C 85.56 37.23 85.57 33.77 85.61 30.32 Z" />
<path fill="#ffffff" opacity="1.00" d=" M 116.74 36.30 C 117.20 34.48 119.02 33.69 120.48 32.81 C 120.33 36.05 120.18 39.28 120.20 42.52 C 118.99 42.50 117.77 42.48 116.56 42.45 C 116.58 40.40 116.46 38.33 116.74 36.30 Z" />
<path fill="#ffffff" opacity="1.00" d=" M 55.15 41.24 C 57.80 41.22 60.45 41.23 63.10 41.28 C 62.97 41.77 62.72 42.75 62.59 43.24 C 60.28 43.47 57.97 43.33 55.66 43.33 C 55.53 42.81 55.27 41.76 55.15 41.24 Z" />
<path fill="#ffffff" opacity="1.00" d=" M 44.44 45.31 C 46.94 45.23 49.44 45.19 51.93 45.17 C 51.85 45.73 51.68 46.85 51.60 47.41 C 49.24 47.42 46.89 47.43 44.53 47.43 C 44.51 46.90 44.46 45.84 44.44 45.31 Z" />
<path fill="#ffffff" opacity="1.00" d=" M 55.24 45.43 C 57.63 45.47 60.02 45.52 62.42 45.59 C 62.54 46.12 62.79 47.18 62.91 47.71 C 60.36 47.67 57.81 47.61 55.27 47.55 C 55.26 47.02 55.25 45.96 55.24 45.43 Z" />
<path fill="#ffffff" opacity="1.00" d=" M 139.21 72.47 C 142.10 72.37 145.00 72.27 147.90 72.20 C 147.75 72.73 147.44 73.79 147.29 74.31 C 144.68 74.37 142.08 74.36 139.48 74.32 C 139.41 73.86 139.28 72.94 139.21 72.47 Z" />
<path fill="#ffffff" opacity="1.00" d=" M 114.68 78.49 C 116.91 78.40 119.15 78.38 121.39 78.45 C 121.38 78.93 121.38 79.90 121.38 80.39 C 119.34 81.44 117.07 81.57 114.83 81.46 C 114.78 80.47 114.73 79.48 114.68 78.49 Z" />
<path fill="#ffffff" opacity="1.00" d=" M 130.17 86.25 C 132.03 86.31 133.89 86.39 135.75 86.49 C 135.60 86.92 135.30 87.78 135.15 88.22 C 133.55 88.33 131.95 88.43 130.36 88.54 C 130.31 87.97 130.22 86.82 130.17 86.25 Z" />
<path fill="#ffffff" opacity="1.00" d=" M 115.36 87.86 C 117.34 87.87 119.32 87.88 121.30 87.88 C 121.39 89.05 121.46 90.22 121.54 91.39 C 119.46 91.42 117.38 91.42 115.31 91.42 C 115.32 90.23 115.33 89.04 115.36 87.86 Z" />
<path fill="#ffffff" opacity="1.00" d=" M 115.27 98.49 C 117.46 98.50 119.65 98.52 121.84 98.56 C 121.66 99.45 121.46 100.34 121.22 101.21 C 119.26 101.50 117.28 101.44 115.31 101.50 C 115.29 100.49 115.28 99.49 115.27 98.49 Z" />
<path fill="#ffffff" opacity="1.00" d=" M 33.96 117.50 C 34.98 116.39 35.76 114.91 37.17 114.27 C 39.11 114.02 39.49 116.48 40.29 117.71 C 38.18 117.69 36.07 117.63 33.96 117.50 Z" />
<path fill="#ffffff" opacity="1.00" d=" M 115.49 126.33 C 115.37 124.61 115.98 123.00 117.95 122.83 C 122.22 122.55 126.46 123.61 130.75 123.49 C 130.62 124.19 130.35 125.58 130.22 126.28 C 125.34 126.95 120.40 126.27 115.49 126.33 Z" />
<path fill="#ffffff" opacity="1.00" d=" M 133.30 126.47 C 133.43 125.18 133.57 123.88 133.72 122.59 C 138.29 122.44 142.79 123.52 147.36 123.38 C 147.55 124.48 147.75 125.58 147.93 126.69 C 143.06 126.63 138.18 126.63 133.30 126.47 Z" />
<path fill="#ffffff" opacity="1.00" d=" M 31.90 127.46 C 33.04 124.45 36.55 125.52 39.02 125.29 C 40.50 125.59 43.56 124.71 42.79 127.57 C 39.16 127.73 35.52 127.79 31.90 127.46 Z" />
<path fill="#ffffff" opacity="1.00" d=" M 54.30 126.41 C 56.07 126.46 57.85 126.54 59.63 126.61 C 59.55 127.85 59.46 129.09 59.37 130.33 C 57.70 130.31 56.04 130.27 54.38 130.25 C 54.34 128.97 54.32 127.69 54.30 126.41 Z" />
<path fill="#ffffff" opacity="1.00" d=" M 116.10 129.28 C 120.89 129.22 125.69 129.22 130.48 129.44 C 130.52 129.96 130.58 131.00 130.61 131.53 C 126.12 132.93 121.38 132.42 116.75 132.52 C 116.52 131.44 116.31 130.36 116.10 129.28 Z" />
<path fill="#ffffff" opacity="1.00" d=" M 133.51 129.39 C 138.22 129.21 142.94 129.31 147.66 129.39 C 147.70 129.97 147.78 131.14 147.83 131.72 C 143.07 132.20 138.30 131.63 133.55 131.56 C 133.54 131.02 133.52 129.93 133.51 129.39 Z" />
<path fill="#ffffff" opacity="1.00" d=" M 33.29 130.60 C 36.39 130.12 39.54 130.41 42.66 130.40 C 42.57 130.97 42.38 132.10 42.29 132.66 C 38.89 132.77 35.49 132.79 32.11 132.45 C 32.40 131.99 33.00 131.06 33.29 130.60 Z" />
<path fill="#ffffff" opacity="1.00" d=" M 34.37 135.43 C 36.14 134.84 37.91 134.94 39.62 135.66 C 38.73 137.48 37.83 139.30 36.87 141.09 C 35.95 139.25 35.12 137.35 34.37 135.43 Z" />
<path fill="#ffffff" opacity="1.00" d=" M 53.50 138.53 C 55.27 138.69 57.04 138.86 58.81 139.09 C 58.68 140.20 58.56 141.31 58.43 142.42 C 56.76 142.47 55.08 142.52 53.41 142.56 C 53.43 141.21 53.46 139.87 53.50 138.53 Z" />
</g>
<g id="#d94a49ff">
<path fill="#d94a49" opacity="1.00" d=" M 42.05 22.82 C 73.70 22.46 105.35 22.77 136.99 22.65 C 142.03 22.63 147.13 22.53 152.05 23.78 C 154.57 24.66 155.00 27.67 155.18 29.97 C 155.42 36.31 155.21 42.66 155.28 49.01 C 155.00 81.66 156.13 114.32 155.30 146.97 C 155.36 149.60 154.38 152.53 151.86 153.75 C 149.11 155.00 145.98 155.37 143.00 154.96 C 139.02 154.40 135.06 155.39 131.07 155.33 C 98.70 155.57 66.33 155.49 33.96 155.47 C 30.28 155.63 25.74 154.03 24.75 150.09 C 24.28 146.76 23.87 143.41 23.68 140.05 C 23.07 103.35 23.45 66.63 23.37 29.93 C 23.13 27.12 25.09 24.21 28.01 23.93 C 32.65 23.23 37.38 23.31 42.05 22.82 M 29.92 26.42 C 28.44 26.57 26.23 27.21 26.37 29.08 C 25.80 48.71 26.91 68.39 25.76 88.00 C 26.86 107.30 25.76 126.68 26.70 146.01 C 26.87 147.46 27.29 148.87 27.63 150.30 C 29.55 151.54 31.61 152.80 34.00 152.60 C 67.03 152.87 100.05 152.55 133.08 152.51 C 138.44 152.10 143.98 153.01 149.20 151.55 C 153.21 150.24 152.22 145.31 152.40 142.05 C 152.97 129.05 152.65 116.04 152.52 103.03 C 152.11 80.04 152.48 57.05 152.37 34.06 C 152.41 31.54 152.10 29.04 151.52 26.59 C 145.12 25.06 138.50 25.56 131.99 25.49 C 97.97 25.84 63.91 24.51 29.92 26.42 Z" />
<path fill="#d94a49" opacity="1.00" d=" M 48.33 28.64 C 50.27 27.99 52.22 27.39 54.20 26.89 C 53.59 28.21 52.22 29.34 52.23 30.86 C 52.83 32.04 53.87 32.91 54.71 33.91 C 56.39 33.22 58.12 32.61 59.69 31.67 C 59.72 30.41 59.57 29.16 59.47 27.91 C 60.43 28.19 61.39 28.47 62.36 28.76 C 62.49 30.26 62.62 31.77 62.71 33.28 C 59.96 34.35 57.23 35.46 54.53 36.67 C 54.57 37.12 54.64 38.02 54.67 38.47 C 57.97 38.72 61.29 38.73 64.59 38.39 C 64.50 37.00 64.42 35.60 64.33 34.20 C 65.32 34.41 66.31 34.62 67.30 34.84 C 67.48 38.36 65.32 41.45 65.44 44.97 C 65.07 48.41 66.82 51.52 67.68 54.75 C 64.96 54.97 64.23 52.42 63.29 50.47 C 60.26 50.34 57.23 50.26 54.20 50.38 C 53.96 55.38 59.57 57.16 62.49 60.24 C 64.03 57.05 59.93 55.90 59.21 53.31 C 59.65 53.10 60.53 52.68 60.98 52.48 C 63.51 54.02 65.18 56.54 66.73 59.00 C 65.64 60.21 64.56 61.41 63.47 62.62 C 63.81 64.86 63.15 67.73 65.19 69.35 C 63.01 74.06 57.12 73.22 52.85 73.64 C 52.47 74.22 51.70 75.38 51.32 75.96 C 54.14 78.63 58.37 76.67 61.52 78.61 C 65.20 80.10 66.33 84.25 69.22 86.65 C 71.94 86.13 75.29 87.13 77.40 84.87 C 75.78 84.21 74.11 83.69 72.41 83.30 C 70.68 81.48 69.38 79.27 69.32 76.70 C 69.84 76.68 70.90 76.63 71.43 76.61 C 71.84 77.83 72.26 79.05 72.67 80.27 C 73.98 80.83 75.30 81.38 76.62 81.91 C 76.84 80.26 77.07 78.61 77.27 76.95 C 73.48 75.88 68.82 73.87 68.95 69.20 C 69.46 69.29 70.49 69.47 71.00 69.56 C 72.10 71.74 74.10 73.02 76.34 73.83 C 76.76 71.62 75.54 67.61 79.22 68.33 C 79.30 70.12 79.37 71.92 79.47 73.72 C 81.98 73.31 83.99 71.81 84.84 69.37 C 85.35 69.38 86.36 69.39 86.87 69.40 C 87.12 73.74 82.95 75.71 79.37 76.56 C 79.44 78.27 79.52 79.98 79.60 81.70 C 82.30 81.62 84.11 79.88 84.80 77.37 C 85.32 77.38 86.35 77.40 86.87 77.41 C 86.47 79.28 86.42 81.55 84.65 82.74 C 82.84 83.83 80.68 84.16 78.73 84.93 C 80.93 87.15 84.15 86.26 86.92 86.44 C 86.75 87.34 86.58 88.24 86.41 89.15 C 85.00 89.29 83.58 89.45 82.17 89.63 C 82.56 90.31 83.33 91.66 83.72 92.34 C 84.71 92.75 85.70 93.15 86.70 93.55 C 86.63 94.09 86.50 95.17 86.43 95.70 C 84.28 95.53 82.31 94.68 80.60 93.38 C 80.32 91.73 80.10 90.03 79.26 88.55 C 76.27 87.88 76.22 90.84 76.14 92.91 C 74.54 95.13 72.00 95.80 69.40 95.88 C 69.33 95.32 69.21 94.19 69.15 93.63 C 70.52 93.20 71.90 92.76 73.27 92.32 C 73.47 91.30 73.67 90.28 73.87 89.27 C 71.69 88.94 69.49 88.79 67.29 88.71 C 66.52 96.16 62.87 102.92 59.26 109.35 C 58.81 109.36 57.89 109.38 57.43 109.39 C 58.82 102.29 63.95 96.36 64.59 88.98 C 65.17 85.21 62.45 80.83 58.35 80.98 C 55.85 90.74 50.65 99.43 46.41 108.47 C 45.96 109.99 44.30 109.71 43.09 109.96 C 46.51 99.90 53.26 91.16 55.58 80.67 C 53.45 80.36 50.80 80.24 49.63 78.08 C 48.82 75.57 48.71 71.54 52.02 70.93 C 55.53 70.23 59.29 71.06 62.61 69.35 C 62.05 68.63 61.49 67.93 60.93 67.23 C 60.75 65.72 60.57 64.21 60.36 62.71 C 54.25 63.63 48.45 60.42 44.51 56.01 L 44.33 54.39 C 46.63 53.98 48.06 56.12 49.79 57.19 C 52.06 59.16 54.99 60.00 57.85 60.67 C 57.09 57.50 53.51 56.38 51.36 54.28 C 51.47 52.73 51.58 51.19 51.67 49.65 C 49.42 49.69 47.15 49.51 44.93 49.92 C 43.56 51.16 43.35 53.11 42.74 54.76 C 42.16 54.73 40.99 54.66 40.41 54.63 C 41.23 51.09 42.23 47.55 42.30 43.90 C 41.89 41.04 41.26 38.20 41.18 35.29 C 41.71 35.37 42.79 35.52 43.32 35.60 C 43.97 37.89 44.41 40.23 44.65 42.59 C 47.23 42.58 49.82 42.53 52.40 42.45 C 52.38 40.89 52.34 39.32 52.30 37.76 C 48.17 38.54 46.13 34.74 43.60 32.32 C 42.55 31.51 42.22 30.22 41.90 29.00 C 46.31 29.24 47.51 35.24 51.99 34.85 C 50.86 33.36 49.64 31.94 48.39 30.54 C 48.38 30.06 48.35 29.12 48.33 28.64 M 55.15 41.24 C 55.27 41.76 55.53 42.81 55.66 43.33 C 57.97 43.33 60.28 43.47 62.59 43.24 C 62.72 42.75 62.97 41.77 63.10 41.28 C 60.45 41.23 57.80 41.22 55.15 41.24 M 44.44 45.31 C 44.46 45.84 44.51 46.90 44.53 47.43 C 46.89 47.43 49.24 47.42 51.60 47.41 C 51.68 46.85 51.85 45.73 51.93 45.17 C 49.44 45.19 46.94 45.23 44.44 45.31 M 55.24 45.43 C 55.25 45.96 55.26 47.02 55.27 47.55 C 57.81 47.61 60.36 47.67 62.91 47.71 C 62.79 47.18 62.54 46.12 62.42 45.59 C 60.02 45.52 57.63 45.47 55.24 45.43 Z" />
<path fill="#d94a49" opacity="1.00" d=" M 72.17 27.39 C 83.55 27.40 94.94 27.52 106.32 27.57 C 106.34 28.46 106.37 29.36 106.40 30.26 C 102.71 30.32 99.02 30.33 95.32 30.31 C 95.21 33.30 95.17 36.30 95.31 39.29 C 98.70 39.34 102.09 39.40 105.49 39.53 C 105.68 43.46 105.52 47.38 105.27 51.30 C 101.97 52.08 98.58 52.31 95.20 52.23 C 95.18 56.25 95.23 60.28 95.49 64.30 C 99.50 64.40 103.58 63.79 107.53 64.51 C 107.88 64.94 108.56 65.79 108.90 66.21 C 104.39 67.96 99.54 66.57 94.86 66.88 C 86.39 66.55 77.91 67.72 69.48 66.57 C 69.49 66.02 69.51 64.92 69.52 64.38 C 73.71 63.99 77.96 64.66 82.11 63.95 C 83.21 60.27 82.39 56.18 82.66 52.34 C 79.24 52.36 75.82 52.11 72.47 51.42 C 72.25 47.45 72.51 43.49 72.78 39.53 C 75.97 38.82 79.40 39.62 82.50 38.67 C 82.92 35.87 82.69 33.03 82.69 30.22 C 79.19 29.82 75.66 29.71 72.13 29.72 C 72.14 29.14 72.16 27.97 72.17 27.39 M 85.61 30.32 C 85.57 33.77 85.56 37.23 85.61 40.69 C 82.40 41.92 78.93 41.50 75.58 41.60 C 75.34 44.14 75.25 46.70 75.29 49.26 C 78.53 49.34 81.92 48.69 85.03 49.78 C 86.18 54.24 85.15 58.98 85.47 63.55 C 85.57 63.92 85.30 64.61 85.68 64.82 C 87.88 64.26 90.10 63.80 92.36 63.55 C 92.25 58.81 92.20 54.08 92.46 49.35 C 96.07 49.16 99.78 49.58 103.29 48.50 C 103.32 46.49 103.37 44.47 103.43 42.46 C 99.77 42.22 96.11 41.88 92.46 41.52 C 92.22 37.81 92.27 34.09 92.44 30.37 C 90.17 30.26 87.89 30.23 85.61 30.32 Z" />
<path fill="#d94a49" opacity="1.00" d=" M 128.82 38.28 C 133.06 32.31 140.07 29.81 146.51 27.03 C 146.49 27.59 146.46 28.70 146.45 29.26 C 144.12 31.23 140.11 32.16 140.21 35.86 C 143.41 35.51 146.00 33.53 148.76 32.09 C 149.25 36.41 144.27 37.19 141.34 38.79 C 141.32 39.85 141.27 41.99 141.25 43.06 C 143.51 42.10 145.50 40.66 146.83 38.58 C 147.20 38.58 147.94 38.57 148.30 38.57 C 148.36 39.09 148.46 40.14 148.51 40.67 C 146.42 43.01 143.74 44.65 140.98 46.09 C 143.20 48.48 146.05 50.13 148.38 52.41 C 148.41 56.95 149.33 61.41 149.54 65.94 C 148.83 65.86 147.40 65.70 146.69 65.61 C 146.34 61.33 146.43 56.99 145.36 52.80 C 143.00 51.30 140.72 49.65 138.73 47.67 C 135.04 50.11 133.73 54.47 131.96 58.27 C 131.39 58.42 130.23 58.72 129.66 58.87 C 130.61 53.06 133.96 48.00 138.32 44.16 C 138.33 43.08 138.34 42.00 138.35 40.92 C 135.85 41.62 134.07 43.59 132.97 45.86 C 131.95 47.37 131.50 49.70 129.24 49.81 C 129.41 44.61 133.38 40.85 137.17 37.85 C 138.60 37.04 138.14 35.27 138.37 33.92 C 134.92 34.37 133.26 37.82 130.19 38.96 C 130.66 39.08 131.61 39.32 132.08 39.43 C 131.39 39.36 130.01 39.21 129.32 39.13 C 129.13 40.90 129.38 42.84 128.38 44.42 C 126.77 45.44 124.80 45.41 122.99 45.76 C 130.20 49.90 129.74 59.17 129.28 66.35 C 128.70 66.02 127.56 65.37 126.98 65.05 C 126.21 59.67 128.11 52.60 122.77 49.05 C 122.62 55.26 122.42 61.47 122.67 67.68 C 121.64 67.59 120.61 67.48 119.59 67.38 C 120.25 62.92 119.60 58.42 120.02 53.95 C 120.11 52.31 120.46 50.57 119.64 49.05 C 114.13 52.95 115.38 60.45 115.12 66.30 C 114.22 66.40 113.32 66.50 112.42 66.60 C 112.17 61.88 112.31 57.06 113.70 52.50 C 114.64 49.47 117.39 47.60 119.69 45.64 C 117.84 45.34 116.01 44.98 114.19 44.57 C 114.24 42.70 114.30 40.83 114.35 38.96 C 113.95 39.99 113.54 41.01 113.13 42.04 C 112.28 44.19 111.87 46.47 111.46 48.74 C 110.88 48.72 109.73 48.68 109.15 48.66 C 109.80 42.52 111.77 35.81 116.94 31.96 C 120.33 29.95 123.95 28.31 127.72 27.17 C 127.86 29.76 125.23 30.63 123.61 31.96 C 122.93 35.67 122.03 39.52 123.57 43.15 C 124.25 42.89 125.62 42.38 126.31 42.12 C 126.90 39.30 124.88 36.43 125.90 33.65 C 129.07 32.72 128.27 36.38 128.82 38.28 M 116.74 36.30 C 116.46 38.33 116.58 40.40 116.56 42.45 C 117.77 42.48 118.99 42.50 120.20 42.52 C 120.18 39.28 120.33 36.05 120.48 32.81 C 119.02 33.69 117.20 34.48 116.74 36.30 Z" />
<path fill="#d94a49" opacity="1.00" d=" M 32.82 28.85 C 34.89 26.96 35.54 30.67 35.42 32.00 C 35.47 35.73 35.25 39.46 35.64 43.17 C 37.35 43.23 39.07 43.25 40.75 43.58 C 41.08 46.64 37.18 45.05 35.46 45.70 C 35.28 52.77 35.55 59.83 35.33 66.90 C 36.28 67.64 37.29 68.30 38.30 68.97 C 38.30 76.76 38.12 84.55 38.34 92.35 C 39.69 91.39 40.84 90.12 41.11 88.44 C 42.00 82.78 42.95 76.96 41.45 71.32 C 42.49 71.27 43.52 71.23 44.56 71.19 C 44.37 77.67 45.55 84.57 42.97 90.71 C 42.02 93.56 37.55 94.27 38.30 97.72 C 40.07 97.19 42.62 97.57 43.63 95.63 C 46.04 91.65 47.59 87.22 49.01 82.81 C 49.84 82.71 50.68 82.61 51.52 82.51 C 51.18 88.00 48.12 92.81 45.59 97.53 C 44.21 100.20 40.89 100.16 38.33 100.52 C 38.33 103.20 38.38 105.88 38.45 108.57 C 37.43 108.64 36.42 108.72 35.41 108.80 C 35.44 105.96 35.49 103.12 35.53 100.29 C 33.23 100.22 30.93 100.20 28.63 100.19 C 28.54 99.26 28.45 98.34 28.36 97.41 C 30.45 96.85 34.27 98.52 34.94 95.87 C 32.62 94.44 29.90 93.01 29.30 90.07 C 27.83 84.33 28.53 78.30 28.58 72.44 C 28.95 72.10 29.69 71.43 30.05 71.10 C 30.48 71.99 30.91 72.89 31.34 73.79 C 30.40 79.37 30.20 85.50 32.69 90.70 C 33.18 91.10 34.17 91.92 34.66 92.32 C 33.93 84.02 36.51 75.75 34.98 67.51 C 34.44 67.43 33.36 67.26 32.82 67.18 C 32.44 59.99 32.88 52.77 32.48 45.57 C 31.06 45.55 29.64 45.53 28.22 45.51 C 28.18 45.00 28.11 43.98 28.08 43.46 C 29.53 43.17 31.25 43.56 32.50 42.68 C 33.02 38.09 32.09 33.43 32.82 28.85 Z" />
<path fill="#d94a49" opacity="1.00" d=" M 41.19 64.09 C 46.70 64.02 52.20 64.34 57.69 64.56 C 57.63 65.51 57.56 66.46 57.50 67.41 C 52.14 66.33 46.66 66.51 41.24 66.58 C 41.23 65.96 41.20 64.72 41.19 64.09 Z" />
<path fill="#d94a49" opacity="1.00" d=" M 136.99 66.12 C 137.51 67.00 138.55 68.77 139.08 69.66 C 142.61 69.78 146.36 70.08 149.51 68.15 C 150.08 70.95 150.41 73.83 149.54 76.62 C 145.97 76.83 142.10 76.06 138.87 77.99 C 141.57 79.16 144.51 79.47 147.42 79.61 C 148.11 80.22 148.79 80.83 149.48 81.44 C 150.20 90.49 148.32 99.80 150.66 108.66 C 149.68 108.59 148.70 108.52 147.73 108.45 C 146.95 99.82 146.39 91.18 146.77 82.49 C 143.69 81.86 140.59 81.35 137.56 80.53 C 137.17 79.37 136.78 78.20 136.39 77.04 C 133.37 77.98 130.46 79.27 127.32 79.75 C 127.45 78.82 127.59 77.88 127.73 76.95 C 130.77 76.17 133.76 75.23 136.75 74.29 C 136.58 73.89 136.25 73.09 136.08 72.69 C 132.71 73.23 128.96 75.35 125.82 73.03 C 128.71 71.34 132.06 70.96 135.30 70.42 C 135.85 68.98 136.41 67.55 136.99 66.12 M 139.21 72.47 C 139.28 72.94 139.41 73.86 139.48 74.32 C 142.08 74.36 144.68 74.37 147.29 74.31 C 147.44 73.79 147.75 72.73 147.90 72.20 C 145.00 72.27 142.10 72.37 139.21 72.47 Z" />
<path fill="#d94a49" opacity="1.00" d=" M 89.01 68.88 C 91.22 68.84 92.27 70.58 93.17 72.31 C 94.52 72.48 95.88 72.63 97.24 72.75 C 97.42 70.96 97.68 69.12 99.02 67.79 C 100.27 69.22 100.41 71.07 100.44 72.88 C 101.33 72.78 103.12 72.59 104.02 72.49 C 105.05 70.81 106.32 69.18 108.54 69.31 C 108.18 73.48 104.22 76.33 100.16 75.62 C 100.28 75.98 100.50 76.72 100.62 77.09 C 104.29 77.52 108.58 79.69 108.40 83.99 C 108.30 88.68 109.07 93.72 107.21 98.15 C 104.38 103.27 97.84 102.35 92.98 103.49 C 93.19 104.46 93.40 105.42 93.62 106.39 C 98.50 106.86 104.20 104.85 108.43 107.96 C 108.51 108.65 108.67 110.02 108.74 110.70 C 103.44 107.86 97.46 108.99 91.73 108.54 C 91.01 107.75 90.28 106.95 89.55 106.17 C 89.86 104.71 90.22 103.27 90.62 101.84 C 91.69 101.42 92.77 101.00 93.85 100.57 C 93.85 98.83 93.72 97.05 91.76 96.54 C 88.97 95.63 87.94 92.95 88.14 90.22 C 88.60 90.31 89.52 90.48 89.98 90.57 C 90.98 92.13 92.01 93.68 93.10 95.19 C 94.36 93.67 94.44 91.70 94.57 89.82 C 91.43 88.41 87.40 86.39 88.29 82.23 C 88.72 82.34 89.58 82.54 90.01 82.64 C 91.11 84.36 92.50 85.86 94.32 86.83 C 94.51 85.08 94.66 83.33 94.80 81.57 C 95.63 81.49 96.47 81.41 97.30 81.33 C 97.31 83.18 97.33 85.03 97.39 86.89 C 100.36 86.81 100.71 82.70 103.84 83.35 C 103.81 87.15 100.60 89.15 97.24 89.69 C 97.25 91.48 97.28 93.27 97.33 95.05 C 98.96 94.29 100.03 92.92 100.83 91.37 C 101.29 91.34 102.19 91.28 102.64 91.25 C 102.60 92.34 102.57 93.43 102.53 94.52 C 100.93 96.24 98.84 97.28 96.59 97.85 C 96.55 98.73 96.52 99.61 96.49 100.49 C 99.74 100.02 104.20 99.79 105.13 95.87 C 105.89 91.99 105.94 87.96 105.65 84.03 C 105.70 81.50 103.27 79.92 101.00 79.70 C 97.07 79.26 93.12 79.76 89.18 79.72 C 89.20 79.16 89.23 78.03 89.25 77.47 C 91.59 77.39 93.94 77.33 96.28 77.28 C 96.43 76.89 96.73 76.09 96.88 75.70 C 93.06 75.57 89.01 73.07 89.01 68.88 Z" />
<path fill="#d94a49" opacity="1.00" d=" M 112.37 71.28 C 116.66 70.62 121.13 70.96 125.12 68.92 C 124.55 75.43 116.59 71.29 113.70 75.26 C 117.76 76.77 122.56 74.11 126.18 76.86 C 125.59 77.36 124.42 78.37 123.83 78.88 C 123.42 80.40 123.35 82.23 121.89 83.20 C 119.83 83.89 117.59 83.67 115.45 83.81 C 115.38 84.27 115.25 85.20 115.18 85.66 C 118.69 85.66 122.19 85.60 125.70 85.64 C 125.33 86.90 124.73 88.05 123.91 89.09 C 123.67 90.52 123.45 91.96 123.24 93.40 C 120.56 93.61 117.88 93.64 115.20 93.58 C 115.31 94.47 115.42 95.36 115.53 96.25 C 119.03 96.17 122.52 96.14 126.02 96.20 C 124.89 98.53 123.84 100.91 123.14 103.41 C 120.40 103.71 117.64 103.84 114.89 103.85 C 113.71 106.27 114.29 110.76 110.55 110.61 C 111.55 104.77 113.23 98.99 112.56 92.99 C 112.82 85.75 110.74 78.46 112.37 71.28 M 114.68 78.49 C 114.73 79.48 114.78 80.47 114.83 81.46 C 117.07 81.57 119.34 81.44 121.38 80.39 C 121.38 79.90 121.38 78.93 121.39 78.45 C 119.15 78.38 116.91 78.40 114.68 78.49 M 115.36 87.86 C 115.33 89.04 115.32 90.23 115.31 91.42 C 117.38 91.42 119.46 91.42 121.54 91.39 C 121.46 90.22 121.39 89.05 121.30 87.88 C 119.32 87.88 117.34 87.87 115.36 87.86 M 115.27 98.49 C 115.28 99.49 115.29 100.49 115.31 101.50 C 117.28 101.44 119.26 101.50 121.22 101.21 C 121.46 100.34 121.66 99.45 121.84 98.56 C 119.65 98.52 117.46 98.50 115.27 98.49 Z" />
<path fill="#d94a49" opacity="1.00" d=" M 127.35 81.77 C 128.58 82.27 129.79 82.82 130.98 83.42 C 131.78 83.47 133.38 83.58 134.18 83.64 C 135.10 83.03 136.03 82.42 136.96 81.82 C 137.36 82.26 138.15 83.16 138.55 83.60 C 140.99 83.98 145.50 82.72 145.74 86.37 C 143.04 86.40 140.28 86.24 137.67 87.04 C 140.05 88.16 142.69 88.27 145.25 88.70 C 146.70 91.61 142.39 90.23 140.96 90.62 C 136.73 89.44 136.93 94.87 138.86 97.06 C 140.00 95.61 140.93 94.01 141.71 92.33 C 142.22 92.38 143.25 92.48 143.77 92.52 C 144.20 96.56 140.58 98.54 137.59 100.25 C 140.20 101.37 145.63 99.34 145.75 103.35 C 143.01 103.23 140.25 103.12 137.55 103.69 C 139.45 106.18 142.82 105.21 145.51 105.51 C 145.52 106.03 145.54 107.07 145.55 107.59 C 139.48 107.63 133.42 107.58 127.35 107.59 C 127.33 107.05 127.31 105.97 127.29 105.42 C 129.60 105.38 131.91 105.33 134.22 105.30 C 134.68 104.87 135.61 104.02 136.08 103.59 C 132.95 103.05 129.56 103.70 126.70 102.03 C 129.50 100.11 133.03 100.88 136.17 100.10 C 133.58 98.62 129.82 98.17 128.76 94.95 C 128.68 94.17 128.52 92.61 128.44 91.83 C 129.16 92.07 130.61 92.54 131.34 92.77 C 131.39 93.46 131.50 94.83 131.55 95.51 C 132.85 95.85 134.15 96.19 135.45 96.52 C 135.32 94.53 135.05 92.55 134.61 90.61 C 132.26 90.60 129.91 90.52 127.56 90.39 C 127.42 87.52 127.33 84.64 127.35 81.77 M 130.17 86.25 C 130.22 86.82 130.31 87.97 130.36 88.54 C 131.95 88.43 133.55 88.33 135.15 88.22 C 135.30 87.78 135.60 86.92 135.75 86.49 C 133.89 86.39 132.03 86.31 130.17 86.25 Z" />
<path fill="#d94a49" opacity="1.00" d=" M 59.65 85.32 C 60.22 85.32 61.35 85.32 61.92 85.32 C 61.69 86.89 61.48 88.48 60.85 89.94 C 58.26 96.14 55.55 102.29 53.17 108.58 C 52.19 108.59 51.21 108.59 50.24 108.60 C 52.73 100.61 56.58 93.10 59.65 85.32 Z" />
<path fill="#d94a49" opacity="1.00" d=" M 77.43 93.38 C 77.93 93.45 78.93 93.58 79.43 93.65 C 79.51 95.93 79.57 98.22 79.62 100.52 C 82.25 100.61 84.89 100.79 87.46 101.40 C 87.43 101.93 87.39 103.00 87.37 103.54 C 84.83 103.56 82.29 103.56 79.75 103.60 C 79.67 104.58 79.59 105.56 79.51 106.55 C 81.85 106.67 84.18 106.72 86.52 106.70 C 86.63 107.66 86.74 108.62 86.85 109.59 C 80.95 109.30 75.04 109.05 69.15 109.67 C 69.32 108.71 69.49 107.76 69.67 106.80 C 72.08 106.74 74.49 106.64 76.90 106.50 C 76.78 105.79 76.54 104.38 76.42 103.67 C 74.03 103.45 71.63 103.53 69.24 103.54 C 69.31 102.60 69.39 101.67 69.47 100.73 C 71.85 100.67 74.22 100.60 76.60 100.54 C 76.60 98.13 76.68 95.69 77.43 93.38 Z" />
<path fill="#d94a49" opacity="1.00" d=" M 130.46 115.50 C 130.97 113.53 128.89 109.30 132.24 109.47 C 133.41 111.21 133.37 113.38 133.65 115.38 C 137.93 115.56 142.21 115.62 146.50 115.53 C 146.56 114.20 146.62 112.87 146.68 111.55 C 147.56 111.61 148.44 111.67 149.32 111.73 C 149.38 113.62 149.43 115.51 149.48 117.41 C 144.28 119.40 138.60 117.68 133.19 118.27 C 133.32 118.78 133.58 119.80 133.71 120.31 C 138.18 120.55 142.69 120.22 147.14 120.76 C 150.81 121.72 150.69 126.01 150.59 129.04 C 150.51 131.17 150.80 134.50 148.03 135.01 C 143.21 135.79 138.33 134.79 133.50 134.52 C 133.49 134.94 133.46 135.77 133.45 136.18 C 140.31 137.15 147.00 142.39 147.04 149.78 C 146.49 149.73 145.38 149.63 144.82 149.57 C 143.76 143.68 138.91 139.16 132.87 138.87 C 132.70 142.86 132.73 146.86 132.60 150.86 C 131.59 150.71 130.59 150.57 129.59 150.42 C 129.83 146.41 129.89 142.39 129.66 138.38 C 127.17 139.06 124.31 139.45 122.52 141.53 C 119.96 144.22 120.26 148.32 117.92 151.15 C 115.88 149.02 117.05 146.20 117.91 143.85 C 119.02 140.94 121.06 138.00 124.26 137.20 C 126.29 136.45 128.87 136.57 130.25 134.61 C 124.97 134.36 119.64 136.20 114.45 134.58 C 112.85 130.45 113.25 125.94 113.41 121.61 C 118.82 119.54 124.73 121.06 130.37 120.45 C 130.43 119.91 130.54 118.84 130.60 118.30 C 125.18 118.01 119.67 118.97 114.33 117.72 C 114.34 115.60 114.37 113.49 114.42 111.38 C 114.97 111.39 116.08 111.39 116.63 111.40 C 116.65 112.79 116.67 114.18 116.69 115.57 C 121.27 115.98 125.87 115.60 130.46 115.50 M 115.49 126.33 C 120.40 126.27 125.34 126.95 130.22 126.28 C 130.35 125.58 130.62 124.19 130.75 123.49 C 126.46 123.61 122.22 122.55 117.95 122.83 C 115.98 123.00 115.37 124.61 115.49 126.33 M 133.30 126.47 C 138.18 126.63 143.06 126.63 147.93 126.69 C 147.75 125.58 147.55 124.48 147.36 123.38 C 142.79 123.52 138.29 122.44 133.72 122.59 C 133.57 123.88 133.43 125.18 133.30 126.47 M 116.10 129.28 C 116.31 130.36 116.52 131.44 116.75 132.52 C 121.38 132.42 126.12 132.93 130.61 131.53 C 130.58 131.00 130.52 129.96 130.48 129.44 C 125.69 129.22 120.89 129.22 116.10 129.28 M 133.51 129.39 C 133.52 129.93 133.54 131.02 133.55 131.56 C 138.30 131.63 143.07 132.20 147.83 131.72 C 147.78 131.14 147.70 129.97 147.66 129.39 C 142.94 129.31 138.22 129.21 133.51 129.39 Z" />
<path fill="#d94a49" opacity="1.00" d=" M 28.41 119.42 C 31.40 116.78 33.95 113.66 37.10 111.20 C 37.46 111.24 38.19 111.34 38.55 111.38 C 41.28 114.64 44.36 117.85 45.90 121.87 C 44.04 121.61 42.49 120.63 41.04 119.53 C 40.30 119.84 38.82 120.46 38.09 120.78 C 38.67 123.92 42.29 123.15 44.62 123.56 C 44.64 126.74 44.60 129.93 44.45 133.12 C 41.17 135.66 41.00 140.22 38.19 143.16 C 39.05 145.88 41.08 148.06 41.70 150.87 C 38.33 150.99 37.00 147.68 35.61 145.23 C 33.47 141.56 32.92 137.22 30.56 133.66 C 29.87 130.39 30.42 126.98 30.51 123.67 C 32.71 123.39 36.70 123.73 35.64 120.35 C 33.24 118.24 30.72 121.19 28.40 121.97 C 28.40 121.33 28.41 120.06 28.41 119.42 M 33.96 117.50 C 36.07 117.63 38.18 117.69 40.29 117.71 C 39.49 116.48 39.11 114.02 37.17 114.27 C 35.76 114.91 34.98 116.39 33.96 117.50 M 31.90 127.46 C 35.52 127.79 39.16 127.73 42.79 127.57 C 43.56 124.71 40.50 125.59 39.02 125.29 C 36.55 125.52 33.04 124.45 31.90 127.46 M 33.29 130.60 C 33.00 131.06 32.40 131.99 32.11 132.45 C 35.49 132.79 38.89 132.77 42.29 132.66 C 42.38 132.10 42.57 130.97 42.66 130.40 C 39.54 130.41 36.39 130.12 33.29 130.60 M 34.37 135.43 C 35.12 137.35 35.95 139.25 36.87 141.09 C 37.83 139.30 38.73 137.48 39.62 135.66 C 37.91 134.94 36.14 134.84 34.37 135.43 Z" />
<path fill="#d94a49" opacity="1.00" d=" M 86.41 110.94 C 89.15 111.33 90.71 113.74 92.47 115.59 C 92.53 116.09 92.64 117.09 92.70 117.59 C 92.19 117.58 91.15 117.56 90.64 117.55 C 89.28 116.06 87.91 114.59 86.50 113.15 C 86.48 112.60 86.43 111.49 86.41 110.94 Z" />
<path fill="#d94a49" opacity="1.00" d=" M 70.21 116.83 C 70.32 111.19 77.81 112.19 81.69 112.51 C 82.66 119.47 76.65 124.82 70.18 125.58 C 69.96 122.53 73.05 122.27 75.03 121.06 C 77.35 119.68 79.05 117.18 78.72 114.38 C 75.80 114.90 73.08 116.13 70.21 116.83 Z" />
<path fill="#d94a49" opacity="1.00" d=" M 99.54 113.84 C 102.02 110.90 106.74 112.63 110.10 112.94 C 110.31 113.60 110.73 114.92 110.93 115.58 C 108.08 115.58 105.22 115.42 102.37 115.33 C 104.23 119.42 108.38 121.67 110.52 125.51 C 107.50 125.80 105.28 123.59 103.38 121.59 C 101.36 119.48 99.70 116.83 99.54 113.84 Z" />
<path fill="#d94a49" opacity="1.00" d=" M 51.93 113.68 C 55.98 113.10 60.12 113.12 64.18 113.59 C 66.33 113.84 68.83 115.45 68.55 117.90 C 68.59 128.96 68.48 140.05 68.21 151.10 C 66.16 152.66 65.75 149.34 65.73 148.08 C 65.60 138.71 65.72 129.34 66.26 119.99 C 66.76 116.03 61.83 115.56 59.00 115.58 C 55.98 115.72 51.90 115.07 49.93 117.93 C 49.32 122.23 49.87 126.62 49.63 130.96 C 49.66 137.56 48.43 144.09 48.46 150.70 C 47.44 150.64 46.42 150.58 45.41 150.51 C 46.77 139.71 47.67 128.77 46.88 117.89 C 47.12 115.37 49.72 114.08 51.93 113.68 Z" />
<path fill="#d94a49" opacity="1.00" d=" M 93.03 111.96 C 96.55 111.30 97.40 114.71 98.69 117.13 C 96.75 120.09 94.10 122.44 91.46 124.76 C 92.52 133.14 92.62 141.59 92.75 150.02 C 92.12 149.81 90.87 149.38 90.25 149.17 C 88.94 141.83 90.38 134.18 89.18 126.79 C 87.43 124.64 84.67 123.71 82.38 122.28 C 82.41 121.24 82.46 120.20 82.50 119.16 C 84.68 120.49 86.91 121.74 89.27 122.72 C 91.40 120.85 93.52 118.99 95.56 117.03 C 94.58 115.41 93.66 113.75 93.03 111.96 Z" />
<path fill="#d94a49" opacity="1.00" d=" M 83.39 113.84 C 86.80 114.44 88.86 117.72 90.01 120.71 C 86.97 120.98 85.46 118.07 83.57 116.28 C 83.52 115.67 83.43 114.45 83.39 113.84 Z" />
<path fill="#d94a49" opacity="1.00" d=" M 52.59 118.36 C 55.96 118.38 59.38 118.53 62.65 117.54 C 63.13 121.30 58.83 121.37 56.16 120.98 C 54.51 120.37 54.53 122.26 54.06 123.31 C 56.91 123.56 59.76 123.94 62.56 124.56 C 62.48 127.28 62.01 129.96 61.22 132.56 C 59.06 132.67 56.90 132.73 54.73 132.75 C 54.33 133.39 53.54 134.67 53.14 135.32 C 55.53 136.25 58.09 136.50 60.64 136.52 C 61.56 139.11 61.09 141.82 60.46 144.41 C 58.21 144.82 55.97 145.23 53.71 145.58 C 53.65 147.62 52.99 149.18 50.60 148.93 C 50.59 142.93 51.32 136.96 51.45 130.96 C 51.65 126.75 51.29 122.44 52.59 118.36 M 54.30 126.41 C 54.32 127.69 54.34 128.97 54.38 130.25 C 56.04 130.27 57.70 130.31 59.37 130.33 C 59.46 129.09 59.55 127.85 59.63 126.61 C 57.85 126.54 56.07 126.46 54.30 126.41 M 53.50 138.53 C 53.46 139.87 53.43 141.21 53.41 142.56 C 55.08 142.52 56.76 142.47 58.43 142.42 C 58.56 141.31 58.68 140.20 58.81 139.09 C 57.04 138.86 55.27 138.69 53.50 138.53 Z" />
<path fill="#d94a49" opacity="1.00" d=" M 77.09 125.04 C 78.27 123.89 80.00 124.49 81.46 124.41 C 82.51 133.04 81.41 142.73 75.36 149.43 C 74.38 150.78 72.82 151.43 71.21 151.70 C 71.61 149.03 73.89 147.42 75.26 145.29 C 78.87 140.02 79.39 133.38 79.62 127.18 C 75.57 127.48 74.98 133.00 70.89 133.10 C 71.45 129.52 74.56 127.29 77.09 125.04 Z" />
<path fill="#d94a49" opacity="1.00" d=" M 99.68 123.49 C 104.82 123.46 109.53 127.95 110.92 132.72 C 110.30 132.70 109.06 132.66 108.44 132.64 C 106.44 130.44 104.84 127.16 101.46 127.06 C 101.81 134.08 102.27 142.23 107.54 147.49 C 108.46 148.64 110.11 149.70 109.48 151.46 C 105.73 151.57 104.11 147.50 102.37 144.82 C 99.58 138.17 98.58 130.65 99.68 123.49 Z" />
<path fill="#d94a49" opacity="1.00" d=" M 94.50 127.42 C 97.49 127.05 97.09 130.52 97.34 132.41 C 97.99 138.11 98.24 143.87 99.41 149.49 C 98.52 149.59 97.64 149.69 96.76 149.79 C 95.26 142.43 95.10 134.89 94.50 127.42 Z" />
<path fill="#d94a49" opacity="1.00" d=" M 84.62 129.22 C 85.33 129.23 86.74 129.26 87.45 129.27 C 86.69 135.91 86.25 142.60 85.12 149.19 C 84.48 149.34 83.21 149.66 82.57 149.81 C 83.30 142.95 84.25 136.11 84.62 129.22 Z" />
</g>
</svg>
