<?xml version="1.0" encoding="UTF-8" ?>
<!DOCTYPE svg PUBLIC "-//W3C//DTD SVG 1.1//EN" "http://www.w3.org/Graphics/SVG/1.1/DTD/svg11.dtd">
<svg width="80pt" height="80pt" viewBox="0 0 80 80" version="1.1" xmlns="http://www.w3.org/2000/svg">
<g id="#000000ff">
<path fill="#000000" opacity="1.00" d=" M 0.00 0.00 L 80.00 0.00 L 80.00 39.92 C 53.34 40.26 26.66 39.72 0.00 40.12 L 0.00 0.00 M 25.17 5.39 C 25.23 13.65 25.17 21.90 25.20 30.15 C 28.42 30.14 31.65 30.13 34.87 30.21 C 35.28 26.90 35.09 23.55 35.09 20.22 C 36.75 20.24 38.42 20.27 40.08 20.28 C 40.08 21.91 40.08 23.55 40.09 25.19 C 41.68 25.19 43.27 25.19 44.86 25.20 C 44.89 26.87 44.94 28.54 45.12 30.20 C 48.34 30.13 51.57 30.14 54.80 30.15 C 54.83 21.90 54.77 13.65 54.83 5.40 C 51.49 5.36 48.14 5.35 44.80 5.47 C 44.92 8.74 44.89 12.00 44.90 15.27 C 43.29 15.28 41.67 15.29 40.06 15.31 C 40.02 13.66 39.92 12.01 39.91 10.35 C 38.31 10.34 36.70 10.33 35.10 10.32 C 35.14 8.67 35.02 7.02 35.10 5.37 C 31.79 5.40 28.48 5.38 25.17 5.39 Z" />
</g>
<g id="#ffffffff">
<path fill="#ffffff" opacity="1.00" d=" M 25.17 5.39 C 28.48 5.38 31.79 5.40 35.10 5.37 C 35.02 7.02 35.14 8.67 35.10 10.32 C 36.70 10.33 38.31 10.34 39.91 10.35 C 39.92 12.01 40.02 13.66 40.06 15.31 C 41.67 15.29 43.29 15.28 44.90 15.27 C 44.89 12.00 44.92 8.74 44.80 5.47 C 48.14 5.35 51.49 5.36 54.83 5.40 C 54.77 13.65 54.83 21.90 54.80 30.15 C 51.57 30.14 48.34 30.13 45.12 30.20 C 44.94 28.54 44.89 26.87 44.86 25.20 C 43.27 25.19 41.68 25.19 40.09 25.19 C 40.08 23.55 40.08 21.91 40.08 20.28 C 38.42 20.27 36.75 20.24 35.09 20.22 C 35.09 23.55 35.28 26.90 34.87 30.21 C 31.65 30.13 28.42 30.14 25.20 30.15 C 25.17 21.90 25.23 13.65 25.17 5.39 Z" />
<path fill="#ffffff" opacity="1.00" d=" M 25.21 49.85 C 33.39 49.84 41.58 49.84 49.76 49.85 C 49.88 51.53 49.89 53.22 50.07 54.90 C 51.65 54.86 53.23 54.82 54.80 54.79 C 54.81 59.75 54.80 64.70 54.82 69.66 C 53.17 69.66 51.53 69.67 49.88 69.67 C 49.86 71.32 49.85 72.97 49.84 74.62 C 41.62 74.60 33.39 74.63 25.17 74.60 C 25.22 66.35 25.16 58.10 25.21 49.85 M 35.12 54.81 C 35.12 56.46 35.11 58.11 35.10 59.76 C 40.02 59.77 44.94 59.77 49.86 59.77 C 49.85 58.10 49.84 56.43 49.85 54.76 C 44.94 54.84 40.03 54.79 35.12 54.81 M 35.10 64.72 C 35.10 66.37 35.10 68.02 35.10 69.67 C 40.02 69.67 44.93 69.66 49.84 69.69 C 49.85 68.03 49.85 66.38 49.87 64.72 C 44.95 64.71 40.02 64.71 35.10 64.72 Z" />
</g>
<g id="#4daa6eff">
<path fill="#4daa6e" opacity="1.00" d=" M 0.00 40.12 C 26.66 39.72 53.34 40.26 80.00 39.92 L 80.00 80.00 L 0.00 80.00 L 0.00 40.12 M 25.21 49.85 C 25.16 58.10 25.22 66.35 25.17 74.60 C 33.39 74.63 41.62 74.60 49.84 74.62 C 49.85 72.97 49.86 71.32 49.88 69.67 C 51.53 69.67 53.17 69.66 54.82 69.66 C 54.80 64.70 54.81 59.75 54.80 54.79 C 53.23 54.82 51.65 54.86 50.07 54.90 C 49.89 53.22 49.88 51.53 49.76 49.85 C 41.58 49.84 33.39 49.84 25.21 49.85 Z" />
<path fill="#4daa6e" opacity="1.00" d=" M 35.12 54.81 C 40.03 54.79 44.94 54.84 49.85 54.76 C 49.84 56.43 49.85 58.10 49.86 59.77 C 44.94 59.77 40.02 59.77 35.10 59.76 C 35.11 58.11 35.12 56.46 35.12 54.81 Z" />
<path fill="#4daa6e" opacity="1.00" d=" M 35.10 64.72 C 40.02 64.71 44.95 64.71 49.87 64.72 C 49.85 66.38 49.85 68.03 49.84 69.69 C 44.93 69.66 40.02 69.67 35.10 69.67 C 35.10 68.02 35.10 66.37 35.10 64.72 Z" />
</g>
</svg>
