<?xml version="1.0" encoding="UTF-8" ?>
<!DOCTYPE svg PUBLIC "-//W3C//DTD SVG 1.1//EN" "http://www.w3.org/Graphics/SVG/1.1/DTD/svg11.dtd">
<svg width="16pt" height="16pt" viewBox="0 0 16 16" version="1.1" xmlns="http://www.w3.org/2000/svg">
<g id="#e6e8e5ff">
<path fill="#e6e8e5" opacity="1.00" d=" M 0.00 0.00 L 16.00 0.00 L 16.00 16.00 L 0.00 16.00 L 0.00 13.73 L 1.33 12.84 C 3.29 11.68 2.60 8.77 1.65 7.15 C 2.25 6.57 3.44 5.42 4.04 4.84 C 8.00 5.95 6.69 10.51 7.02 13.63 L 8.37 13.18 C 9.27 11.02 9.02 8.61 9.42 6.34 C 10.38 4.66 12.78 4.64 13.79 6.30 C 14.20 8.69 14.30 11.13 14.58 13.54 C 16.16 11.14 16.05 7.90 14.81 5.38 C 13.27 2.91 10.30 4.21 8.08 4.68 C 5.61 3.98 3.05 4.00 0.51 4.20 L 0.00 3.49 L 0.00 0.00 Z" />
</g>
<g id="#989492ff">
<path fill="#989492" opacity="1.00" d=" M 0.00 3.49 L 0.51 4.20 C 0.73 5.01 1.15 6.62 1.36 7.43 C 1.09 9.22 0.90 11.06 1.33 12.84 L 0.00 13.73 L 0.00 3.49 Z" />
</g>
<g id="#55717aff">
<path fill="#55717a" opacity="1.00" d=" M 0.51 4.20 C 3.05 4.00 5.61 3.98 8.08 4.68 C 8.09 7.51 8.16 10.35 8.37 13.18 L 7.02 13.63 C 6.69 10.51 8.00 5.95 4.04 4.84 C 3.44 5.42 2.25 6.57 1.65 7.15 L 1.36 7.43 C 1.15 6.62 0.73 5.01 0.51 4.20 Z" />
</g>
<g id="#56afcbff">
<path fill="#56afcb" opacity="1.00" d=" M 8.08 4.68 C 10.30 4.21 13.27 2.91 14.81 5.38 C 16.05 7.90 16.16 11.14 14.58 13.54 C 14.30 11.13 14.20 8.69 13.79 6.30 C 12.78 4.64 10.38 4.66 9.42 6.34 C 9.02 8.61 9.27 11.02 8.37 13.18 C 8.16 10.35 8.09 7.51 8.08 4.68 Z" />
</g>
<g id="#297087ff">
<path fill="#297087" opacity="1.00" d=" M 1.36 7.43 L 1.65 7.15 C 2.60 8.77 3.29 11.68 1.33 12.84 C 0.90 11.06 1.09 9.22 1.36 7.43 Z" />
</g>
</svg>
