<?xml version="1.0" encoding="UTF-8" ?>
<!DOCTYPE svg PUBLIC "-//W3C//DTD SVG 1.1//EN" "http://www.w3.org/Graphics/SVG/1.1/DTD/svg11.dtd">
<svg width="180pt" height="180pt" viewBox="0 0 180 180" version="1.1" xmlns="http://www.w3.org/2000/svg">
<g id="#000000ff">
<path fill="#000000" opacity="1.00" d=" M 85.35 0.00 L 94.62 0.00 C 115.66 1.24 136.29 9.80 151.57 24.39 C 168.50 40.02 178.67 62.39 180.00 85.33 L 180.00 94.65 C 178.88 113.11 172.22 131.24 160.68 145.73 C 144.91 165.94 120.23 178.61 94.66 180.00 L 85.36 180.00 C 63.37 178.71 41.83 169.37 26.36 153.59 C 10.62 138.13 1.28 116.62 0.00 94.65 L 0.00 85.39 C 1.28 63.38 10.63 41.82 26.42 26.35 C 41.88 10.61 63.39 1.29 85.35 0.00 M 76.45 62.29 C 76.05 55.39 76.39 48.47 76.26 41.56 C 65.81 44.42 55.34 47.33 45.01 50.60 C 50.22 56.79 52.06 65.10 52.21 73.02 C 52.16 85.70 52.26 98.39 52.16 111.08 C 51.55 119.91 51.52 128.97 48.55 137.42 C 59.11 137.57 69.67 137.47 80.23 137.47 C 76.93 127.01 77.43 115.89 77.27 105.06 C 77.33 91.81 77.14 78.55 77.36 65.31 C 83.29 59.85 92.37 58.61 99.97 60.64 C 104.40 61.94 106.42 66.76 106.39 71.05 C 106.48 87.04 106.55 103.04 106.26 119.03 C 105.76 125.23 105.40 131.52 103.44 137.47 C 113.93 137.52 124.41 137.47 134.90 137.49 C 132.34 128.21 131.61 118.54 131.54 108.95 C 131.44 94.54 131.59 80.14 131.46 65.73 C 131.08 58.87 129.73 51.29 124.33 46.50 C 117.90 41.11 108.88 40.81 100.92 41.60 C 89.60 43.12 80.32 51.77 76.45 62.29 Z" />
</g>
<g id="#ffffffff">
<path fill="#ffffff" opacity="1.00" d=" M 76.45 62.29 C 80.32 51.77 89.60 43.12 100.92 41.60 C 108.88 40.81 117.90 41.11 124.33 46.50 C 129.73 51.29 131.08 58.87 131.46 65.73 C 131.59 80.14 131.44 94.54 131.54 108.95 C 131.61 118.54 132.34 128.21 134.90 137.49 C 124.41 137.47 113.93 137.52 103.44 137.47 C 105.40 131.52 105.76 125.23 106.26 119.03 C 106.55 103.04 106.48 87.04 106.39 71.05 C 106.42 66.76 104.40 61.94 99.97 60.64 C 92.37 58.61 83.29 59.85 77.36 65.31 C 77.14 78.55 77.33 91.81 77.27 105.06 C 77.43 115.89 76.93 127.01 80.23 137.47 C 69.67 137.47 59.11 137.57 48.55 137.42 C 51.52 128.97 51.55 119.91 52.16 111.08 C 52.26 98.39 52.16 85.70 52.21 73.02 C 52.06 65.10 50.22 56.79 45.01 50.60 C 55.34 47.33 65.81 44.42 76.26 41.56 C 76.39 48.47 76.05 55.39 76.45 62.29 Z" />
</g>
</svg>
