<?xml version="1.0" encoding="UTF-8" ?>
<!DOCTYPE svg PUBLIC "-//W3C//DTD SVG 1.1//EN" "http://www.w3.org/Graphics/SVG/1.1/DTD/svg11.dtd">
<svg width="32pt" height="32pt" viewBox="0 0 32 32" version="1.1" xmlns="http://www.w3.org/2000/svg">
<g id="#feb600ff">
<path fill="#feb600" opacity="1.00" d=" M 0.00 0.00 L 32.00 0.00 L 32.00 32.00 L 0.00 32.00 L 0.00 0.00 M 4.54 4.01 C 4.53 12.00 4.54 20.00 4.54 28.00 C 6.49 28.00 8.44 28.00 10.40 28.00 C 10.40 22.80 10.38 17.61 10.41 12.41 C 13.67 17.60 17.21 22.61 20.37 27.85 C 22.66 28.02 24.96 28.06 27.26 27.99 C 27.26 19.99 27.26 12.00 27.26 4.00 C 25.30 4.00 23.35 4.01 21.40 4.02 C 21.40 9.16 21.42 14.31 21.39 19.46 C 17.99 14.30 14.59 9.14 11.17 3.99 C 8.96 4.00 6.75 4.01 4.54 4.01 Z" />
</g>
<g id="#ffffffff">
<path fill="#ffffff" opacity="1.00" d=" M 4.54 4.01 C 6.75 4.01 8.96 4.00 11.17 3.99 C 14.59 9.14 17.99 14.30 21.39 19.46 C 21.42 14.31 21.40 9.16 21.40 4.02 C 23.35 4.01 25.30 4.00 27.26 4.00 C 27.26 12.00 27.26 19.99 27.26 27.99 C 24.96 28.06 22.66 28.02 20.37 27.85 C 17.21 22.61 13.67 17.60 10.41 12.41 C 10.38 17.61 10.40 22.80 10.40 28.00 C 8.44 28.00 6.49 28.00 4.54 28.00 C 4.54 20.00 4.53 12.00 4.54 4.01 Z" />
</g>
</svg>
