<?xml version="1.0" encoding="UTF-8" ?>
<!DOCTYPE svg PUBLIC "-//W3C//DTD SVG 1.1//EN" "http://www.w3.org/Graphics/SVG/1.1/DTD/svg11.dtd">
<svg width="180pt" height="180pt" viewBox="0 0 180 180" version="1.1" xmlns="http://www.w3.org/2000/svg">
<g id="#ffffffff">
<path fill="#ffffff" opacity="1.00" d=" M 16.79 0.00 L 163.01 0.00 C 171.89 0.35 179.54 7.94 180.00 16.80 L 180.00 163.02 C 179.64 171.90 172.05 179.54 163.19 180.00 L 16.98 180.00 C 8.11 179.64 0.47 172.07 0.00 163.21 L 0.00 16.98 C 0.35 8.11 7.94 0.47 16.79 0.00 M 71.60 33.60 C 70.22 32.11 68.79 30.67 67.15 29.48 C 63.51 31.86 60.36 34.91 57.87 38.48 L 58.67 38.64 C 48.15 42.39 38.68 49.82 34.02 60.16 C 27.84 56.74 20.30 55.25 13.49 57.63 C 13.04 68.52 17.29 80.50 27.37 85.89 C 27.42 91.98 28.68 98.00 30.89 103.66 C 24.79 102.78 18.71 104.85 13.61 108.10 C 17.19 111.03 21.43 113.04 24.93 116.07 C 31.32 121.71 36.57 128.47 42.65 134.41 C 54.58 146.28 71.45 152.19 88.03 153.06 C 105.97 153.64 123.88 147.83 138.57 137.62 C 148.55 130.89 156.87 121.53 161.51 110.35 C 168.57 93.73 167.12 73.76 157.65 58.38 C 149.55 44.92 135.63 35.53 120.52 31.69 C 104.45 27.90 87.36 28.81 71.60 33.60 Z" />
<path fill="#ffffff" opacity="1.00" d=" M 71.87 33.98 C 89.03 30.61 107.28 30.32 124.00 35.94 C 141.19 41.97 156.25 55.46 162.03 73.00 C 166.80 86.92 165.11 102.82 157.49 115.42 C 150.07 128.01 137.41 136.42 124.33 142.28 C 107.63 149.73 88.29 151.57 70.70 146.22 C 59.27 143.03 48.85 136.71 40.73 128.05 C 43.11 128.95 45.48 129.96 48.00 130.43 C 49.81 128.82 48.26 126.17 48.18 124.18 C 50.12 124.20 52.06 124.06 53.97 123.71 C 53.10 121.36 51.90 119.16 50.72 116.95 C 50.21 118.21 49.73 119.57 50.18 120.95 C 48.44 120.65 46.69 120.31 44.92 120.26 C 42.98 121.99 44.80 124.49 44.96 126.58 C 42.94 126.38 40.92 126.21 38.90 126.06 C 32.32 119.07 25.26 112.39 16.55 108.14 C 20.92 105.55 25.88 103.81 31.03 104.19 C 32.55 107.31 33.88 110.53 34.27 114.01 C 34.59 115.66 36.54 115.71 37.79 116.27 C 37.62 117.80 37.30 119.51 38.92 120.43 C 40.44 120.61 41.78 119.72 43.15 119.21 C 49.66 116.31 56.72 114.01 63.95 114.63 C 69.86 114.96 73.86 120.96 79.98 120.45 C 84.33 120.69 88.05 117.09 88.51 112.88 C 89.01 108.42 88.95 103.89 89.93 99.48 C 94.18 98.44 98.48 97.55 102.86 97.31 C 113.86 96.41 124.91 99.18 135.88 97.48 C 144.61 96.17 152.05 88.73 153.02 79.90 C 150.19 86.65 144.55 92.62 137.13 93.99 C 129.79 95.19 122.33 94.05 114.95 94.02 C 119.83 84.42 125.33 75.14 130.28 65.57 C 124.42 68.14 119.08 72.40 116.31 78.28 C 114.00 83.11 113.46 88.56 113.80 93.85 C 105.71 93.94 97.53 95.05 90.16 98.58 C 92.06 91.45 95.91 85.03 100.75 79.53 C 102.39 78.35 101.44 76.59 100.32 75.47 C 101.27 74.40 101.89 73.17 101.49 71.72 C 100.14 71.75 98.79 71.78 97.44 71.80 C 93.47 63.64 85.56 58.15 77.21 55.13 C 78.84 47.63 76.20 40.07 71.87 33.98 Z" />
<path fill="#ffffff" opacity="1.00" d=" M 56.13 58.42 C 56.02 49.17 59.08 39.33 67.04 33.90 C 73.01 40.17 76.88 48.54 76.42 57.32 C 76.62 56.88 77.02 55.99 77.22 55.55 C 82.71 58.55 87.94 62.30 91.74 67.33 C 93.56 69.64 94.48 72.50 96.33 74.79 C 95.31 76.39 95.65 77.67 97.35 78.62 C 92.79 83.80 89.22 89.97 87.81 96.79 C 86.47 102.31 86.96 108.02 86.83 113.64 C 82.70 113.23 78.86 115.39 77.40 119.32 C 72.69 117.79 69.08 113.71 64.00 113.22 C 56.24 112.08 48.38 114.13 41.19 116.96 C 41.44 116.20 41.95 114.68 42.21 113.92 C 42.35 111.15 38.92 112.67 37.38 112.75 C 37.58 108.87 35.21 105.63 34.14 102.05 C 32.06 96.22 31.31 90.05 31.09 83.90 C 29.27 82.00 26.61 81.17 24.74 79.30 C 19.23 74.28 16.96 66.75 16.36 59.52 C 25.28 57.12 34.29 60.90 41.27 66.33 C 39.89 64.87 38.42 63.51 36.93 62.17 C 38.87 57.11 41.55 52.27 45.39 48.39 C 48.18 45.32 51.77 43.17 54.94 40.53 C 55.50 40.98 56.05 41.43 56.61 41.88 C 54.39 47.11 54.80 53.02 56.13 58.42 M 62.60 57.36 C 63.47 54.57 64.33 51.78 65.37 49.05 C 67.41 51.53 68.72 54.47 70.22 57.29 C 70.90 52.73 70.06 47.33 66.09 44.46 C 60.81 45.67 61.03 53.20 62.60 57.36 M 23.48 68.93 C 23.07 74.07 26.75 78.94 31.45 80.80 C 29.73 77.89 28.22 74.85 27.32 71.58 C 29.91 72.10 32.45 72.83 34.97 73.60 C 32.58 70.12 27.68 66.56 23.48 68.93 M 78.71 93.03 C 83.78 94.52 89.20 90.00 87.64 84.68 C 84.80 87.61 81.33 89.90 78.71 93.03 M 52.03 107.87 C 53.78 109.01 55.70 110.26 57.90 109.72 C 61.08 109.29 63.00 106.30 63.39 103.32 C 59.76 105.21 56.00 106.84 52.03 107.87 Z" />
</g>
<g id="#1a1a1aff">
<path fill="#1a1a1a" opacity="1.00" d=" M 71.60 33.60 C 87.36 28.81 104.45 27.90 120.52 31.69 C 135.63 35.53 149.55 44.92 157.65 58.38 C 167.12 73.76 168.57 93.73 161.51 110.35 C 156.87 121.53 148.55 130.89 138.57 137.62 C 123.88 147.83 105.97 153.64 88.03 153.06 C 71.45 152.19 54.58 146.28 42.65 134.41 C 36.57 128.47 31.32 121.71 24.93 116.07 C 21.43 113.04 17.19 111.03 13.61 108.10 C 18.71 104.85 24.79 102.78 30.89 103.66 C 28.68 98.00 27.42 91.98 27.37 85.89 C 17.29 80.50 13.04 68.52 13.49 57.63 C 20.30 55.25 27.84 56.74 34.02 60.16 C 38.68 49.82 48.15 42.39 58.67 38.64 L 57.87 38.48 C 60.36 34.91 63.51 31.86 67.15 29.48 C 68.79 30.67 70.22 32.11 71.60 33.60 M 71.87 33.98 C 76.20 40.07 78.84 47.63 77.21 55.13 C 85.56 58.15 93.47 63.64 97.44 71.80 C 98.79 71.78 100.14 71.75 101.49 71.72 C 101.89 73.17 101.27 74.40 100.32 75.47 C 101.44 76.59 102.39 78.35 100.75 79.53 C 95.91 85.03 92.06 91.45 90.16 98.58 C 97.53 95.05 105.71 93.94 113.80 93.85 C 113.46 88.56 114.00 83.11 116.31 78.28 C 119.08 72.40 124.42 68.14 130.28 65.57 C 125.33 75.14 119.83 84.42 114.95 94.02 C 122.33 94.05 129.79 95.19 137.13 93.99 C 144.55 92.62 150.19 86.65 153.02 79.90 C 152.05 88.73 144.61 96.17 135.88 97.48 C 124.91 99.18 113.86 96.41 102.86 97.31 C 98.48 97.55 94.18 98.44 89.93 99.48 C 88.95 103.89 89.01 108.42 88.51 112.88 C 88.05 117.09 84.33 120.69 79.98 120.45 C 73.86 120.96 69.86 114.96 63.95 114.63 C 56.72 114.01 49.66 116.31 43.15 119.21 C 41.78 119.72 40.44 120.61 38.92 120.43 C 37.30 119.51 37.62 117.80 37.79 116.27 C 36.54 115.71 34.59 115.66 34.27 114.01 C 33.88 110.53 32.55 107.31 31.03 104.19 C 25.88 103.81 20.92 105.55 16.55 108.14 C 25.26 112.39 32.32 119.07 38.90 126.06 C 40.92 126.21 42.94 126.38 44.96 126.58 C 44.80 124.49 42.98 121.99 44.92 120.26 C 46.69 120.31 48.44 120.65 50.18 120.95 C 49.73 119.57 50.21 118.21 50.72 116.95 C 51.90 119.16 53.10 121.36 53.97 123.71 C 52.06 124.06 50.12 124.20 48.18 124.18 C 48.26 126.17 49.81 128.82 48.00 130.43 C 45.48 129.96 43.11 128.95 40.73 128.05 C 48.85 136.71 59.27 143.03 70.70 146.22 C 88.29 151.57 107.63 149.73 124.33 142.28 C 137.41 136.42 150.07 128.01 157.49 115.42 C 165.11 102.82 166.80 86.92 162.03 73.00 C 156.25 55.46 141.19 41.97 124.00 35.94 C 107.28 30.32 89.03 30.61 71.87 33.98 M 56.13 58.42 C 54.80 53.02 54.39 47.11 56.61 41.88 C 56.05 41.43 55.50 40.98 54.94 40.53 C 51.77 43.17 48.18 45.32 45.39 48.39 C 41.55 52.27 38.87 57.11 36.93 62.17 C 38.42 63.51 39.89 64.87 41.27 66.33 C 34.29 60.90 25.28 57.12 16.36 59.52 C 16.96 66.75 19.23 74.28 24.74 79.30 C 26.61 81.17 29.27 82.00 31.09 83.90 C 31.31 90.05 32.06 96.22 34.14 102.05 C 35.21 105.63 37.58 108.87 37.38 112.75 C 38.92 112.67 42.35 111.15 42.21 113.92 C 41.95 114.68 41.44 116.20 41.19 116.96 C 48.38 114.13 56.24 112.08 64.00 113.22 C 69.08 113.71 72.69 117.79 77.40 119.32 C 78.86 115.39 82.70 113.23 86.83 113.64 C 86.96 108.02 86.47 102.31 87.81 96.79 C 89.22 89.97 92.79 83.80 97.35 78.62 C 95.65 77.67 95.31 76.39 96.33 74.79 C 94.48 72.50 93.56 69.64 91.74 67.33 C 87.94 62.30 82.71 58.55 77.22 55.55 C 77.02 55.99 76.62 56.88 76.42 57.32 C 76.88 48.54 73.01 40.17 67.04 33.90 C 59.08 39.33 56.02 49.17 56.13 58.42 Z" />
<path fill="#1a1a1a" opacity="1.00" d=" M 62.60 57.36 C 61.03 53.20 60.81 45.67 66.09 44.46 C 70.06 47.33 70.90 52.73 70.22 57.29 C 68.72 54.47 67.41 51.53 65.37 49.05 C 64.33 51.78 63.47 54.57 62.60 57.36 Z" />
<path fill="#1a1a1a" opacity="1.00" d=" M 23.48 68.93 C 27.68 66.56 32.58 70.12 34.97 73.60 C 32.45 72.83 29.91 72.10 27.32 71.58 C 28.22 74.85 29.73 77.89 31.45 80.80 C 26.75 78.94 23.07 74.07 23.48 68.93 Z" />
<path fill="#1a1a1a" opacity="1.00" d=" M 78.71 93.03 C 81.33 89.90 84.80 87.61 87.64 84.68 C 89.20 90.00 83.78 94.52 78.71 93.03 Z" />
<path fill="#1a1a1a" opacity="1.00" d=" M 52.03 107.87 C 56.00 106.84 59.76 105.21 63.39 103.32 C 63.00 106.30 61.08 109.29 57.90 109.72 C 55.70 110.26 53.78 109.01 52.03 107.87 Z" />
</g>
</svg>
