<?xml version="1.0" encoding="UTF-8" ?>
<!DOCTYPE svg PUBLIC "-//W3C//DTD SVG 1.1//EN" "http://www.w3.org/Graphics/SVG/1.1/DTD/svg11.dtd">
<svg width="32pt" height="32pt" viewBox="0 0 32 32" version="1.1" xmlns="http://www.w3.org/2000/svg">
<g id="#b60100fa">
<path fill="#b60100" opacity="0.98" d=" M 2.76 7.77 C 7.34 -0.36 19.86 -2.07 26.60 4.30 C 29.80 6.96 31.20 11.03 32.00 14.98 L 32.00 17.40 C 31.16 21.47 29.38 25.53 26.06 28.18 C 20.77 32.35 12.75 32.72 7.17 28.89 C 0.35 24.55 -1.52 14.50 2.76 7.77 M 8.26 6.37 C 7.13 8.45 9.73 9.24 10.91 10.39 C 13.45 8.84 13.54 6.22 12.99 3.56 C 14.91 4.79 15.44 6.91 15.46 9.07 C 14.01 10.57 12.34 12.16 10.06 11.69 C 6.92 11.59 6.34 7.90 6.51 5.44 C 3.64 8.49 0.38 13.48 3.42 17.48 C 4.56 19.97 8.84 18.71 8.13 15.93 C 8.39 13.79 5.30 13.76 4.10 12.73 C 7.86 9.05 13.19 16.53 8.87 18.86 C 8.96 19.28 9.15 20.12 9.24 20.54 C 10.47 20.38 11.72 19.74 12.96 20.24 C 14.54 20.99 14.95 22.88 15.87 24.20 C 15.28 26.74 13.23 28.35 11.04 29.50 C 14.98 30.57 19.09 30.35 22.85 28.78 C 23.25 27.23 24.12 25.70 23.91 24.05 C 23.92 21.29 19.21 21.37 18.95 24.03 C 19.23 25.63 19.78 27.16 20.19 28.73 C 18.19 27.79 17.00 26.05 16.41 23.98 C 17.65 21.76 19.85 18.74 22.79 20.24 C 25.57 21.05 25.98 24.32 25.35 26.76 C 29.27 23.60 32.30 17.04 27.92 12.98 C 27.22 12.98 25.82 12.99 25.12 12.99 C 24.54 13.91 24.12 14.88 23.87 15.92 C 24.54 17.93 26.99 18.10 28.54 19.11 C 25.43 21.37 20.53 17.75 22.08 14.20 C 22.48 12.13 24.55 11.51 26.23 10.76 C 27.53 11.29 28.84 11.80 30.16 12.31 C 28.84 8.93 26.57 6.11 23.90 3.69 C 21.37 3.90 18.73 4.33 17.88 7.10 C 18.81 8.06 19.67 9.22 21.03 9.61 C 22.72 9.02 23.60 7.37 24.75 6.12 C 26.49 9.50 22.02 12.87 19.00 11.06 C 16.42 10.20 16.70 7.24 16.68 5.07 C 17.91 4.04 19.14 3.00 20.38 1.98 C 16.04 1.49 9.81 1.12 8.26 6.37 M 2.01 19.16 C 3.36 22.18 4.76 25.54 7.70 27.33 C 9.62 27.98 12.10 27.57 13.37 25.90 C 14.56 23.87 12.31 21.36 10.17 22.10 C 9.10 22.79 8.63 24.04 7.90 25.03 C 7.58 24.82 6.94 24.39 6.63 24.17 C 9.47 20.76 3.95 20.37 2.01 19.16 Z" />
<path fill="#b60100" opacity="0.98" d=" M 15.34 13.32 C 17.47 12.18 20.15 15.43 18.36 17.29 C 16.53 20.26 11.65 16.87 14.10 14.06 C 14.41 13.87 15.03 13.50 15.34 13.32 Z" />
</g>
</svg>
