<?xml version="1.0" encoding="UTF-8" ?>
<!DOCTYPE svg PUBLIC "-//W3C//DTD SVG 1.1//EN" "http://www.w3.org/Graphics/SVG/1.1/DTD/svg11.dtd">
<svg width="152pt" height="151pt" viewBox="0 0 152 151" version="1.1" xmlns="http://www.w3.org/2000/svg">
<g id="#000000ff">
<path fill="#000000" opacity="1.00" d=" M 72.25 4.39 C 88.07 3.43 104.16 7.83 117.26 16.76 C 130.32 25.60 140.36 38.81 145.29 53.80 C 151.01 71.09 149.98 90.59 142.13 107.05 C 135.11 122.16 122.65 134.66 107.58 141.75 C 91.28 149.52 72.05 150.88 54.84 145.42 C 36.61 139.84 20.89 126.64 12.17 109.69 C 6.76 99.34 3.90 87.65 4.12 75.95 C 4.04 56.91 12.17 38.03 25.88 24.84 C 38.16 12.68 55.02 5.36 72.25 4.39 M 46.95 27.00 C 46.76 60.62 46.87 94.25 46.90 127.87 C 53.53 127.45 60.11 126.43 66.77 126.39 C 66.87 114.92 66.84 103.45 66.72 91.98 C 66.84 89.61 65.96 86.91 67.74 84.95 C 71.90 98.92 77.39 112.47 82.01 126.30 C 88.87 126.48 95.69 127.25 102.51 127.94 C 102.64 94.37 102.54 60.79 102.56 27.21 C 95.97 27.14 89.37 27.26 82.77 27.15 C 82.23 41.96 83.16 56.81 82.39 71.61 C 77.71 56.82 71.92 42.39 67.19 27.62 C 66.87 27.49 66.24 27.23 65.92 27.10 C 59.62 26.69 53.27 26.92 46.95 27.00 Z" />
</g>
<g id="#b0060fff">
<path fill="#b0060f" opacity="1.00" d=" M 46.95 27.00 C 53.27 26.92 59.62 26.69 65.92 27.10 C 66.24 27.23 66.87 27.49 67.19 27.62 C 60.67 28.03 54.14 27.52 47.63 27.99 C 54.12 47.04 61.16 65.93 67.74 84.95 C 65.96 86.91 66.84 89.61 66.72 91.98 C 66.84 103.45 66.87 114.92 66.77 126.39 C 60.11 126.43 53.53 127.45 46.90 127.87 C 46.87 94.25 46.76 60.62 46.95 27.00 Z" />
<path fill="#b0060f" opacity="1.00" d=" M 82.77 27.15 C 89.37 27.26 95.97 27.14 102.56 27.21 C 102.54 60.79 102.64 94.37 102.51 127.94 C 95.46 109.29 88.82 90.47 82.39 71.61 C 83.16 56.81 82.23 41.96 82.77 27.15 Z" />
</g>
<g id="#e50913ff">
<path fill="#e50913" opacity="1.00" d=" M 47.63 27.99 C 54.14 27.52 60.67 28.03 67.19 27.62 C 71.92 42.39 77.71 56.82 82.39 71.61 C 88.82 90.47 95.46 109.29 102.51 127.94 C 95.69 127.25 88.87 126.48 82.01 126.30 C 77.39 112.47 71.90 98.92 67.74 84.95 C 61.16 65.93 54.12 47.04 47.63 27.99 Z" />
</g>
</svg>
