<?xml version="1.0" encoding="UTF-8" ?>
<!DOCTYPE svg PUBLIC "-//W3C//DTD SVG 1.1//EN" "http://www.w3.org/Graphics/SVG/1.1/DTD/svg11.dtd">
<svg width="32pt" height="32pt" viewBox="0 0 32 32" version="1.1" xmlns="http://www.w3.org/2000/svg">
<g id="#000000ff">
<path fill="#000000" opacity="1.00" d=" M 0.00 0.00 L 32.00 0.00 L 32.00 32.00 L 0.00 32.00 L 0.00 0.00 M 6.39 9.46 C 2.20 11.67 1.25 18.00 4.71 21.29 C 8.37 25.71 16.52 23.56 17.50 17.88 C 19.38 11.75 11.78 5.93 6.39 9.46 M 21.20 9.11 C 17.62 12.16 17.76 18.12 20.01 21.93 C 20.77 23.58 23.25 23.67 24.23 22.18 C 26.37 19.17 26.44 15.05 25.22 11.67 C 24.66 10.09 23.05 8.27 21.20 9.11 M 27.60 9.78 C 26.45 14.06 26.26 18.80 28.01 22.94 C 29.92 18.89 29.98 13.75 28.27 9.66 L 27.60 9.78 Z" />
</g>
<g id="#ffffffff">
<path fill="#ffffff" opacity="1.00" d=" M 6.39 9.46 C 11.78 5.93 19.38 11.75 17.50 17.88 C 16.52 23.56 8.37 25.71 4.71 21.29 C 1.25 18.00 2.20 11.67 6.39 9.46 Z" />
<path fill="#ffffff" opacity="1.00" d=" M 21.20 9.11 C 23.05 8.27 24.66 10.09 25.22 11.67 C 26.44 15.05 26.37 19.17 24.23 22.18 C 23.25 23.67 20.77 23.58 20.01 21.93 C 17.76 18.12 17.62 12.16 21.20 9.11 Z" />
<path fill="#ffffff" opacity="1.00" d=" M 27.60 9.78 L 28.27 9.66 C 29.98 13.75 29.92 18.89 28.01 22.94 C 26.26 18.80 26.45 14.06 27.60 9.78 Z" />
</g>
</svg>
