<?xml version="1.0" encoding="UTF-8" ?>
<!DOCTYPE svg PUBLIC "-//W3C//DTD SVG 1.1//EN" "http://www.w3.org/Graphics/SVG/1.1/DTD/svg11.dtd">
<svg width="16pt" height="16pt" viewBox="0 0 16 16" version="1.1" xmlns="http://www.w3.org/2000/svg">
<g id="#190d0452">
<path fill="#190d04" opacity="0.32" d=" M 0.00 0.00 L 1.71 0.00 L 1.69 0.72 L 0.83 1.30 L 0.00 0.74 L 0.00 0.00 Z" />
</g>
<g id="#4f280eff">
<path fill="#4f280e" opacity="1.00" d=" M 1.71 0.00 L 5.45 0.00 L 5.76 0.43 C 4.46 1.38 3.10 1.47 1.69 0.72 L 1.71 0.00 Z" />
<path fill="#4f280e" opacity="1.00" d=" M 10.43 0.00 L 13.99 0.00 L 13.80 0.80 C 12.50 1.51 11.26 1.43 10.08 0.54 L 10.43 0.00 Z" />
<path fill="#4f280e" opacity="1.00" d=" M 0.00 0.74 L 0.83 1.30 C 0.94 3.23 1.02 5.16 1.04 7.10 C 1.05 9.07 1.01 11.04 0.99 13.01 C 1.50 13.01 2.52 13.01 3.03 13.00 C 2.99 11.07 2.94 9.14 2.94 7.20 C 3.02 5.35 2.58 2.98 4.91 2.38 C 4.96 3.97 4.99 5.55 5.00 7.13 C 5.00 9.08 5.00 11.04 5.00 12.99 C 5.50 13.00 6.49 13.01 6.99 13.02 C 6.98 11.03 7.00 9.04 7.00 7.05 C 7.01 5.38 7.01 3.70 6.92 2.02 C 7.46 2.02 8.54 2.02 9.08 2.02 C 8.92 3.96 8.93 5.92 9.00 7.87 C 9.07 9.53 9.07 11.19 9.10 12.85 C 10.88 12.72 13.01 13.51 14.56 12.46 C 15.11 10.71 14.99 8.84 15.14 7.03 C 14.29 7.00 12.57 6.95 11.72 6.92 C 12.20 8.35 12.84 9.72 13.29 11.17 C 12.72 11.12 11.58 11.04 11.00 10.99 C 11.00 10.20 11.01 8.63 11.01 7.85 C 11.01 6.07 11.00 4.29 11.01 2.51 C 12.30 3.48 13.59 4.45 14.84 5.48 C 14.96 4.69 15.19 3.12 15.31 2.33 L 16.00 1.79 L 16.00 14.16 C 14.76 14.16 14.14 14.77 14.14 16.00 L 9.88 16.00 C 10.00 13.60 7.00 13.60 7.13 16.00 L 4.81 16.00 C 4.50 14.40 3.92 14.40 3.06 16.00 L 0.30 16.00 C 0.23 15.97 0.08 15.91 0.00 15.88 L 0.00 0.74 Z" />
</g>
<g id="#3d25088e">
<path fill="#3d2508" opacity="0.56" d=" M 5.45 0.00 L 10.43 0.00 L 10.08 0.54 C 9.83 0.91 9.33 1.65 9.08 2.02 C 8.54 2.02 7.46 2.02 6.92 2.02 C 6.63 1.63 6.05 0.83 5.76 0.43 L 5.45 0.00 Z" />
<path fill="#3d2508" opacity="0.56" d=" M 13.99 0.00 L 16.00 0.00 L 16.00 1.79 L 15.31 2.33 C 14.94 1.95 14.18 1.18 13.80 0.80 L 13.99 0.00 Z" />
</g>
<g id="#e2a013ff">
<path fill="#e2a013" opacity="1.00" d=" M 0.83 1.30 L 1.69 0.72 C 3.10 1.47 4.46 1.38 5.76 0.43 C 6.05 0.83 6.63 1.63 6.92 2.02 C 7.01 3.70 7.01 5.38 7.00 7.05 C 6.50 7.07 5.50 7.11 5.00 7.13 C 4.99 5.55 4.96 3.97 4.91 2.38 C 2.58 2.98 3.02 5.35 2.94 7.20 C 2.47 7.18 1.52 7.13 1.04 7.10 C 1.02 5.16 0.94 3.23 0.83 1.30 Z" />
</g>
<g id="#e8a513ff">
<path fill="#e8a513" opacity="1.00" d=" M 10.08 0.54 C 11.26 1.43 12.50 1.51 13.80 0.80 C 14.18 1.18 14.94 1.95 15.31 2.33 C 15.19 3.12 14.96 4.69 14.84 5.48 C 13.59 4.45 12.30 3.48 11.01 2.51 C 11.00 4.29 11.01 6.07 11.01 7.85 C 10.50 7.85 9.50 7.86 9.00 7.87 C 8.93 5.92 8.92 3.96 9.08 2.02 C 9.33 1.65 9.83 0.91 10.08 0.54 Z" />
</g>
<g id="#d4731dff">
<path fill="#d4731d" opacity="1.00" d=" M 1.04 7.10 C 1.52 7.13 2.47 7.18 2.94 7.20 C 2.94 9.14 2.99 11.07 3.03 13.00 C 2.52 13.01 1.50 13.01 0.99 13.01 C 1.01 11.04 1.05 9.07 1.04 7.10 Z" />
</g>
<g id="#e17a1eff">
<path fill="#e17a1e" opacity="1.00" d=" M 5.00 7.13 C 5.50 7.11 6.50 7.07 7.00 7.05 C 7.00 9.04 6.98 11.03 6.99 13.02 C 6.49 13.01 5.50 13.00 5.00 12.99 C 5.00 11.04 5.00 9.08 5.00 7.13 Z" />
</g>
<g id="#e67c1fff">
<path fill="#e67c1f" opacity="1.00" d=" M 11.72 6.92 C 12.57 6.95 14.29 7.00 15.14 7.03 C 14.99 8.84 15.11 10.71 14.56 12.46 C 13.01 13.51 10.88 12.72 9.10 12.85 C 9.07 11.19 9.07 9.53 9.00 7.87 C 9.50 7.86 10.50 7.85 11.01 7.85 C 11.01 8.63 11.00 10.20 11.00 10.99 C 11.58 11.04 12.72 11.12 13.29 11.17 C 12.84 9.72 12.20 8.35 11.72 6.92 Z" />
</g>
<g id="#24120675">
<path fill="#241206" opacity="0.46" d=" M 7.13 16.00 C 7.00 13.60 10.00 13.60 9.88 16.00 L 7.13 16.00 Z" />
</g>
<g id="#2010056a">
<path fill="#201005" opacity="0.42" d=" M 14.14 16.00 C 14.14 14.77 14.76 14.16 16.00 14.16 L 16.00 16.00 L 14.14 16.00 Z" />
</g>
<g id="#2e170897">
<path fill="#2e1708" opacity="0.59" d=" M 0.00 15.88 C 0.08 15.91 0.23 15.97 0.30 16.00 L 0.00 16.00 L 0.00 15.88 Z" />
<path fill="#2e1708" opacity="0.59" d=" M 3.06 16.00 C 3.92 14.40 4.50 14.40 4.81 16.00 L 3.06 16.00 Z" />
</g>
</svg>
