<?xml version="1.0" encoding="UTF-8" ?>
<!DOCTYPE svg PUBLIC "-//W3C//DTD SVG 1.1//EN" "http://www.w3.org/Graphics/SVG/1.1/DTD/svg11.dtd">
<svg width="180pt" height="180pt" viewBox="0 0 180 180" version="1.1" xmlns="http://www.w3.org/2000/svg">
<g id="#4c6ef5ff">
<path fill="#4c6ef5" opacity="1.00" d=" M 27.35 0.00 L 40.80 0.00 C 42.15 2.39 43.49 4.78 44.81 7.18 C 38.81 7.28 32.56 6.60 26.83 8.81 C 19.54 11.41 13.48 17.01 10.02 23.90 C 8.18 20.63 6.30 17.39 4.39 14.17 C 9.34 6.22 18.04 0.87 27.35 0.00 Z" />
<path fill="#4c6ef5" opacity="1.00" d=" M 96.02 172.82 C 110.83 172.83 125.64 172.80 140.46 172.83 C 141.87 175.19 143.25 177.58 144.57 180.00 L 100.18 180.00 C 98.69 177.66 97.38 175.22 96.02 172.82 Z" />
</g>
<g id="#40c057ff">
<path fill="#40c057" opacity="1.00" d=" M 40.80 0.00 L 85.26 0.00 C 86.73 2.36 88.07 4.80 89.49 7.19 C 74.60 7.17 59.70 7.19 44.81 7.18 C 43.49 4.78 42.15 2.39 40.80 0.00 Z" />
<path fill="#40c057" opacity="1.00" d=" M 154.47 170.69 C 163.12 167.16 169.70 159.36 172.13 150.38 C 174.05 153.87 176.05 157.33 178.11 160.75 C 174.13 171.29 163.94 178.97 152.73 180.00 L 144.57 180.00 C 143.25 177.58 141.87 175.19 140.46 172.83 C 145.20 172.93 150.07 172.63 154.47 170.69 Z" />
</g>
<g id="#fab005ff">
<path fill="#fab005" opacity="1.00" d=" M 85.26 0.00 L 129.81 0.00 C 131.29 2.32 132.58 4.76 133.90 7.18 C 119.10 7.19 104.29 7.17 89.49 7.19 C 88.07 4.80 86.73 2.36 85.26 0.00 Z" />
<path fill="#fab005" opacity="1.00" d=" M 172.83 75.49 C 175.46 79.04 177.95 82.72 180.00 86.64 L 180.00 150.75 C 179.90 154.16 179.29 157.55 178.11 160.75 C 176.05 157.33 174.05 153.87 172.13 150.38 C 172.63 147.62 172.81 144.81 172.83 142.02 C 172.81 119.84 172.81 97.67 172.83 75.49 Z" />
</g>
<g id="#fd7e14ff">
<path fill="#fd7e14" opacity="1.00" d=" M 129.81 0.00 L 152.28 0.00 C 166.59 0.86 178.90 13.09 180.00 27.36 L 180.00 86.64 C 177.95 82.72 175.46 79.04 172.83 75.49 C 172.78 62.30 172.87 49.11 172.79 35.93 C 172.82 23.72 164.05 12.38 152.57 8.61 C 146.57 6.52 140.13 7.33 133.90 7.18 C 132.58 4.76 131.29 2.32 129.81 0.00 Z" />
</g>
<g id="#000000ff">
<path fill="#000000" opacity="1.00" d=" M 26.83 8.81 C 32.56 6.60 38.81 7.28 44.81 7.18 C 59.70 7.19 74.60 7.17 89.49 7.19 C 104.29 7.17 119.10 7.19 133.90 7.18 C 140.13 7.33 146.57 6.52 152.57 8.61 C 164.05 12.38 172.82 23.72 172.79 35.93 C 172.87 49.11 172.78 62.30 172.83 75.49 C 172.81 97.67 172.81 119.84 172.83 142.02 C 172.81 144.81 172.63 147.62 172.13 150.38 C 169.70 159.36 163.12 167.16 154.47 170.69 C 150.07 172.63 145.20 172.93 140.46 172.83 C 125.64 172.80 110.83 172.83 96.02 172.82 C 81.14 172.82 66.26 172.82 51.38 172.82 C 45.61 172.76 39.83 172.97 34.06 172.71 C 19.59 171.79 7.11 158.54 7.20 144.00 C 7.13 127.98 7.22 111.95 7.17 95.93 C 7.20 76.25 7.17 56.58 7.18 36.90 C 7.10 32.41 8.10 27.95 10.02 23.90 C 13.48 17.01 19.54 11.41 26.83 8.81 M 32.21 16.13 C 22.69 18.07 15.39 27.28 15.58 36.99 C 15.56 71.99 15.59 106.99 15.56 141.99 C 14.79 153.45 24.56 164.26 36.08 164.39 C 72.03 164.45 107.97 164.45 143.91 164.39 C 154.66 164.23 164.17 154.78 164.39 144.03 C 164.49 109.36 164.38 74.68 164.44 40.01 C 165.71 29.35 158.51 18.25 147.80 16.13 C 144.60 15.36 141.29 15.60 138.04 15.57 C 104.69 15.57 71.35 15.58 38.00 15.56 C 36.06 15.58 34.10 15.66 32.21 16.13 Z" />
<path fill="#000000" opacity="1.00" d=" M 33.12 51.31 C 37.52 49.68 41.76 47.67 46.16 46.03 C 62.46 77.78 78.75 109.53 94.99 141.31 C 90.32 142.46 85.78 144.56 81.05 145.23 C 66.14 116.33 51.39 87.35 36.54 58.42 C 35.31 56.10 34.10 53.76 33.12 51.31 Z" />
<path fill="#000000" opacity="1.00" d=" M 108.71 77.20 C 113.64 72.70 120.16 69.46 127.00 70.32 C 132.96 70.31 137.94 75.21 139.10 80.87 C 141.04 89.87 139.29 99.10 139.97 108.21 C 140.49 113.91 139.61 119.61 139.86 125.33 C 134.98 125.34 130.10 125.27 125.23 125.39 C 124.25 115.64 125.05 105.77 124.80 95.97 C 124.73 91.77 125.31 86.30 121.20 83.70 C 117.29 82.30 112.92 83.36 109.50 85.54 C 109.64 98.78 110.17 112.10 109.65 125.29 C 104.71 125.41 99.77 125.29 94.83 125.30 C 94.92 107.51 94.71 89.72 94.19 71.94 C 98.83 71.76 103.45 71.46 108.09 71.40 C 108.29 73.33 108.49 75.27 108.71 77.20 Z" />
</g>
<g id="#be4bdbff">
<path fill="#be4bdb" opacity="1.00" d=" M 0.00 27.76 C 0.38 22.96 1.96 18.31 4.39 14.17 C 6.30 17.39 8.18 20.63 10.02 23.90 C 8.10 27.95 7.10 32.41 7.18 36.90 C 7.17 56.58 7.20 76.25 7.17 95.93 C 4.64 91.98 2.21 87.97 0.00 83.84 L 0.00 27.76 Z" />
<path fill="#be4bdb" opacity="1.00" d=" M 51.38 172.82 C 66.26 172.82 81.14 172.82 96.02 172.82 C 97.38 175.22 98.69 177.66 100.18 180.00 L 55.54 180.00 C 54.04 177.67 52.72 175.24 51.38 172.82 Z" />
</g>
<g id="#ffffffff">
<path fill="#ffffff" opacity="1.00" d=" M 32.21 16.13 C 34.10 15.66 36.06 15.58 38.00 15.56 C 71.35 15.58 104.69 15.57 138.04 15.57 C 141.29 15.60 144.60 15.36 147.80 16.13 C 158.51 18.25 165.71 29.35 164.44 40.01 C 164.38 74.68 164.49 109.36 164.39 144.03 C 164.17 154.78 154.66 164.23 143.91 164.39 C 107.97 164.45 72.03 164.45 36.08 164.39 C 24.56 164.26 14.79 153.45 15.56 141.99 C 15.59 106.99 15.56 71.99 15.58 36.99 C 15.39 27.28 22.69 18.07 32.21 16.13 M 33.12 51.31 C 34.10 53.76 35.31 56.10 36.54 58.42 C 51.39 87.35 66.14 116.33 81.05 145.23 C 85.78 144.56 90.32 142.46 94.99 141.31 C 78.75 109.53 62.46 77.78 46.16 46.03 C 41.76 47.67 37.52 49.68 33.12 51.31 M 108.71 77.20 C 108.49 75.27 108.29 73.33 108.09 71.40 C 103.45 71.46 98.83 71.76 94.19 71.94 C 94.71 89.72 94.92 107.51 94.83 125.30 C 99.77 125.29 104.71 125.41 109.65 125.29 C 110.17 112.10 109.64 98.78 109.50 85.54 C 112.92 83.36 117.29 82.30 121.20 83.70 C 125.31 86.30 124.73 91.77 124.80 95.97 C 125.05 105.77 124.25 115.64 125.23 125.39 C 130.10 125.27 134.98 125.34 139.86 125.33 C 139.61 119.61 140.49 113.91 139.97 108.21 C 139.29 99.10 141.04 89.87 139.10 80.87 C 137.94 75.21 132.96 70.31 127.00 70.32 C 120.16 69.46 113.64 72.70 108.71 77.20 Z" />
</g>
<g id="#fa5252ff">
<path fill="#fa5252" opacity="1.00" d=" M 0.00 83.84 C 2.21 87.97 4.64 91.98 7.17 95.93 C 7.22 111.95 7.13 127.98 7.20 144.00 C 7.11 158.54 19.59 171.79 34.06 172.71 C 39.83 172.97 45.61 172.76 51.38 172.82 C 52.72 175.24 54.04 177.67 55.54 180.00 L 27.73 180.00 C 13.41 179.15 1.10 166.91 0.00 152.64 L 0.00 83.84 Z" />
</g>
</svg>
