<?xml version="1.0" encoding="UTF-8" ?>
<!DOCTYPE svg PUBLIC "-//W3C//DTD SVG 1.1//EN" "http://www.w3.org/Graphics/SVG/1.1/DTD/svg11.dtd">
<svg width="512pt" height="512pt" viewBox="0 0 512 512" version="1.1" xmlns="http://www.w3.org/2000/svg">
<g id="#3e8eb7ff">
<path fill="#3e8eb7" opacity="1.00" d=" M 179.86 2.23 C 193.87 0.48 208.00 1.86 222.06 1.35 C 245.12 1.52 268.35 0.22 291.16 4.34 C 291.76 6.21 292.36 8.07 292.95 9.93 C 282.36 7.74 271.90 4.85 261.14 3.48 C 248.87 1.37 236.41 2.31 224.04 2.44 C 213.46 1.97 202.77 1.77 192.37 4.11 C 192.73 5.12 193.60 6.08 193.29 7.23 C 190.33 8.88 186.86 9.12 183.63 9.94 C 183.96 12.18 186.45 11.37 187.95 11.61 C 193.62 11.53 199.29 11.48 204.96 11.60 C 210.10 11.71 215.20 13.09 220.35 12.34 C 225.83 12.30 231.19 13.94 236.68 13.61 L 235.73 14.59 C 207.70 15.83 180.06 22.86 154.56 34.47 C 145.05 39.15 135.41 43.64 126.49 49.39 C 124.81 50.46 123.01 51.32 121.19 52.12 C 123.45 47.41 125.38 42.55 127.80 37.92 C 119.49 40.88 112.73 46.82 104.70 50.31 C 106.43 47.18 109.90 45.85 112.32 43.40 C 112.16 38.29 114.72 33.78 117.84 29.91 C 108.72 32.24 101.15 38.15 93.27 43.03 C 94.16 38.22 96.96 34.10 98.25 29.42 C 122.97 14.44 151.08 5.05 179.86 2.23 Z" />
<path fill="#3e8eb7" opacity="1.00" d=" M 196.25 94.28 C 197.13 93.49 198.02 92.70 198.92 91.92 L 197.85 93.83 C 198.52 93.98 199.86 94.28 200.53 94.43 C 200.78 95.27 201.02 96.12 201.26 96.97 C 201.05 97.60 200.84 98.23 200.64 98.87 C 201.31 96.10 197.96 95.43 196.25 94.28 Z" />
<path fill="#3e8eb7" opacity="1.00" d=" M 41.24 114.96 C 42.85 114.01 43.24 116.58 41.75 116.91 C 40.13 117.86 39.77 115.31 41.24 114.96 Z" />
<path fill="#3e8eb7" opacity="1.00" d=" M 59.33 150.42 C 60.90 150.02 64.05 150.96 63.65 153.01 C 62.10 153.57 59.94 151.68 59.33 150.42 Z" />
<path fill="#3e8eb7" opacity="1.00" d=" M 328.22 217.02 C 329.24 216.19 331.86 217.06 330.61 218.57 C 329.48 220.47 325.54 218.32 328.22 217.02 Z" />
<path fill="#3e8eb7" opacity="1.00" d=" M 1.17 263.44 C 2.18 266.04 3.25 268.72 5.16 270.80 C 7.23 273.09 9.94 274.93 11.10 277.91 C 14.06 280.63 17.16 283.28 19.46 286.62 C 20.83 288.43 20.08 290.78 20.29 292.86 C 21.49 294.49 23.30 295.51 24.71 296.94 C 23.82 299.66 25.22 302.22 26.18 304.69 C 37.15 332.87 53.48 359.22 75.22 380.36 L 75.13 378.91 C 76.84 382.80 78.89 386.51 80.53 390.43 C 84.08 394.87 90.55 395.54 93.95 400.17 C 95.38 406.11 93.53 412.22 93.57 418.24 C 93.35 415.62 94.10 412.12 91.55 410.43 C 69.47 393.97 50.81 373.09 36.19 349.80 C 33.70 345.91 31.91 341.62 29.13 337.92 C 29.92 342.76 32.65 346.92 34.55 351.37 C 44.03 372.09 56.08 391.72 70.98 409.00 C 76.15 414.53 80.96 420.39 86.54 425.52 C 88.24 427.08 89.84 428.79 90.97 430.83 C 90.79 435.94 90.87 441.10 88.79 445.90 C 88.47 444.77 87.92 443.75 86.97 443.05 C 41.50 403.07 11.37 346.08 3.96 285.98 C 3.16 282.32 4.07 277.95 1.10 275.14 C 1.11 274.29 1.12 272.58 1.13 271.72 C 1.32 274.33 2.88 276.51 3.76 278.91 C 4.71 282.02 7.90 283.53 9.91 285.89 C 10.24 285.44 10.89 284.53 11.22 284.08 C 6.73 280.14 5.71 273.76 1.14 269.86 C 1.14 267.72 1.13 265.58 1.17 263.44 Z" />
<path fill="#3e8eb7" opacity="1.00" d=" M 26.98 297.90 C 32.20 300.09 37.23 302.83 42.75 304.24 C 49.46 314.90 57.85 324.40 66.65 333.36 C 69.90 336.57 73.18 339.78 76.89 342.48 C 77.52 346.14 73.77 347.62 72.11 350.29 C 71.74 350.53 71.02 351.00 70.65 351.24 C 65.28 346.34 59.90 341.44 55.04 336.03 C 44.00 324.66 35.13 311.43 26.98 297.90 Z" />
</g>
<g id="#90bed6ff">
<path fill="#90bed6" opacity="1.00" d=" M 192.37 4.11 C 202.77 1.77 213.46 1.97 224.04 2.44 C 236.41 2.31 248.87 1.37 261.14 3.48 C 271.90 4.85 282.36 7.74 292.95 9.93 C 292.36 8.07 291.76 6.21 291.16 4.34 C 329.45 10.47 366.30 25.48 397.73 48.20 C 402.02 51.38 406.44 54.44 410.34 58.11 C 409.10 57.47 407.86 56.87 406.62 56.27 C 405.75 60.19 404.64 64.18 402.02 67.33 C 383.86 52.47 363.45 40.50 341.90 31.30 C 340.55 30.79 339.16 30.40 337.76 30.04 C 345.65 34.97 353.76 39.62 361.07 45.41 C 359.45 48.96 358.00 52.57 356.77 56.27 C 334.35 39.53 308.93 26.58 281.88 19.32 C 295.82 26.60 309.68 34.34 321.77 44.53 C 319.05 46.48 316.64 48.81 314.43 51.31 C 295.65 36.64 274.22 25.39 251.44 18.38 C 246.29 16.81 241.10 15.22 235.73 14.59 L 236.68 13.61 C 250.23 12.48 263.72 14.78 276.89 17.78 C 264.94 11.75 251.99 8.03 238.86 5.62 C 236.37 5.25 233.85 5.24 231.35 5.23 C 230.66 6.91 230.05 8.64 229.12 10.20 C 226.25 11.11 222.88 10.28 220.35 12.34 C 215.20 13.09 210.10 11.71 204.96 11.60 C 199.29 11.48 193.62 11.53 187.95 11.61 C 186.45 11.37 183.96 12.18 183.63 9.94 C 186.86 9.12 190.33 8.88 193.29 7.23 C 193.60 6.08 192.73 5.12 192.37 4.11 Z" />
<path fill="#90bed6" opacity="1.00" d=" M 96.34 125.12 C 96.86 125.66 96.86 125.66 96.34 125.12 Z" />
<path fill="#90bed6" opacity="1.00" d=" M 273.18 181.19 C 273.66 181.75 273.66 181.75 273.18 181.19 Z" />
<path fill="#90bed6" opacity="1.00" d=" M 378.32 248.31 C 379.90 247.74 380.43 248.30 379.92 249.98 C 378.32 250.54 377.78 249.99 378.32 248.31 Z" />
<path fill="#90bed6" opacity="1.00" d=" M 142.43 434.49 C 143.51 432.48 144.55 430.43 145.89 428.57 C 159.96 434.14 174.46 438.67 189.38 441.33 C 189.05 441.64 188.40 442.26 188.07 442.57 C 189.99 443.08 191.92 443.58 193.85 444.07 C 192.99 446.04 192.36 448.18 191.01 449.90 C 189.69 450.86 188.17 451.49 186.73 452.24 C 170.32 449.41 154.32 444.36 139.00 437.86 C 139.30 436.84 139.58 435.83 139.84 434.81 C 140.49 434.73 141.78 434.57 142.43 434.49 Z" />
<path fill="#90bed6" opacity="1.00" d=" M 114.81 455.76 C 117.55 455.60 120.29 455.44 123.01 455.03 C 150.51 472.95 181.83 485.12 214.25 490.35 C 212.78 490.74 211.34 491.21 209.89 491.67 C 208.56 494.94 206.98 498.18 204.37 500.64 C 207.59 500.53 210.75 501.22 213.62 502.69 C 177.14 497.47 142.04 483.16 111.72 462.29 C 112.36 461.98 113.63 461.35 114.27 461.04 C 114.45 459.28 114.63 457.51 114.81 455.76 Z" />
</g>
<g id="#c3dce9ff">
<path fill="#c3dce9" opacity="1.00" d=" M 231.35 5.23 C 233.85 5.24 236.37 5.25 238.86 5.62 C 251.99 8.03 264.94 11.75 276.89 17.78 C 263.72 14.78 250.23 12.48 236.68 13.61 C 231.19 13.94 225.83 12.30 220.35 12.34 C 222.88 10.28 226.25 11.11 229.12 10.20 C 230.05 8.64 230.66 6.91 231.35 5.23 Z" />
<path fill="#c3dce9" opacity="1.00" d=" M 314.43 51.31 C 316.64 48.81 319.05 46.48 321.77 44.53 C 346.51 64.59 366.63 90.45 379.29 119.72 C 379.87 120.92 380.57 122.06 381.28 123.19 C 378.60 123.75 376.68 125.58 375.15 127.74 C 373.77 127.10 372.41 126.41 371.05 125.77 C 372.62 125.23 374.20 124.71 375.78 124.16 C 374.90 122.94 374.06 121.69 373.00 120.62 C 371.40 120.42 369.79 120.49 368.19 120.55 C 367.52 117.09 365.54 114.12 363.99 111.02 C 351.92 87.92 334.82 67.50 314.43 51.31 Z" />
<path fill="#c3dce9" opacity="1.00" d=" M 356.77 56.27 C 358.00 52.57 359.45 48.96 361.07 45.41 C 376.92 57.43 391.52 71.18 403.78 86.87 C 400.28 88.58 397.94 91.70 395.63 94.71 C 384.23 80.45 371.31 67.34 356.77 56.27 Z" />
<path fill="#c3dce9" opacity="1.00" d=" M 406.62 56.27 C 407.86 56.87 409.10 57.47 410.34 58.11 C 424.86 69.69 437.76 83.27 449.25 97.85 C 451.00 99.87 452.20 102.53 454.67 103.80 C 452.00 104.44 449.39 105.27 446.82 106.20 C 448.81 107.47 450.90 108.58 453.03 109.61 C 450.59 109.19 448.10 108.94 445.78 108.06 C 445.28 105.72 447.34 103.21 445.39 101.12 C 444.34 103.86 442.60 106.16 439.75 107.16 L 439.65 105.12 C 439.56 103.86 439.56 102.59 439.52 101.32 C 438.23 101.23 436.93 101.15 435.64 101.11 C 431.68 96.01 427.30 91.26 422.85 86.59 C 422.38 86.66 421.44 86.78 420.97 86.84 C 424.26 85.58 429.50 85.52 430.12 81.12 C 426.39 80.20 422.96 81.88 419.58 83.16 C 413.84 77.76 408.24 72.18 402.02 67.33 C 404.64 64.18 405.75 60.19 406.62 56.27 Z" />
<path fill="#c3dce9" opacity="1.00" d=" M 164.30 60.19 C 165.77 59.65 166.20 60.07 165.60 61.47 C 164.13 62.01 163.69 61.58 164.30 60.19 Z" />
<path fill="#c3dce9" opacity="1.00" d=" M 151.24 62.22 C 153.00 62.52 151.63 65.34 150.19 64.69 C 148.52 64.09 149.89 62.00 151.24 62.22 Z" />
<path fill="#c3dce9" opacity="1.00" d=" M 400.85 98.77 C 402.88 96.25 404.75 93.18 408.22 92.55 C 414.11 100.71 419.88 109.02 424.42 118.02 C 419.38 117.39 414.62 113.97 409.45 115.21 C 406.79 109.84 403.35 104.83 399.54 100.21 C 399.04 99.83 398.05 99.07 397.56 98.70 L 398.15 98.68 C 399.04 98.70 399.94 98.73 400.85 98.77 Z" />
<path fill="#c3dce9" opacity="1.00" d=" M 133.09 104.52 C 134.49 104.06 134.97 104.54 134.54 105.94 C 133.13 106.40 132.64 105.93 133.09 104.52 Z" />
<path fill="#c3dce9" opacity="1.00" d=" M 199.25 105.36 C 200.58 105.57 200.79 106.29 199.91 107.52 C 198.58 107.32 198.36 106.60 199.25 105.36 Z" />
<path fill="#c3dce9" opacity="1.00" d=" M 147.37 144.17 C 149.74 143.43 147.88 146.90 146.57 146.92 C 144.86 146.74 146.35 144.37 147.37 144.17 Z" />
<path fill="#c3dce9" opacity="1.00" d=" M 172.28 386.63 C 201.86 390.81 232.57 388.02 260.74 377.95 C 261.74 378.44 262.75 378.94 263.77 379.44 C 262.69 382.78 261.66 386.51 258.12 388.02 C 258.66 388.14 259.75 388.38 260.29 388.50 C 231.95 398.11 201.20 400.80 171.61 396.37 C 171.82 393.12 171.39 389.79 172.28 386.63 Z" />
<path fill="#c3dce9" opacity="1.00" d=" M 274.08 439.47 C 292.94 435.23 311.01 427.98 328.15 419.10 C 329.68 419.35 331.23 419.52 332.78 419.62 C 331.36 422.87 330.57 426.50 328.42 429.37 C 326.31 430.91 323.81 431.76 321.55 433.02 C 321.60 433.52 321.70 434.53 321.75 435.04 C 280.03 454.81 232.08 460.38 186.73 452.24 C 188.17 451.49 189.69 450.86 191.01 449.90 C 192.36 448.18 192.99 446.04 193.85 444.07 C 191.92 443.58 189.99 443.08 188.07 442.57 C 188.40 442.26 189.05 441.64 189.38 441.33 C 217.38 446.14 246.30 445.38 274.08 439.47 Z" />
<path fill="#c3dce9" opacity="1.00" d=" M 296.43 489.15 C 314.24 486.02 331.41 480.03 347.97 472.89 C 348.60 473.59 349.23 474.30 349.87 475.01 C 348.14 479.00 346.57 483.08 344.26 486.78 C 345.94 486.54 347.63 486.29 349.31 486.00 C 306.93 504.26 259.14 510.24 213.62 502.69 C 210.75 501.22 207.59 500.53 204.37 500.64 C 206.98 498.18 208.56 494.94 209.89 491.67 C 211.34 491.21 212.78 490.74 214.25 490.35 C 241.46 494.54 269.35 494.03 296.43 489.15 Z" />
</g>
<g id="#0b70a4ff">
<path fill="#0b70a4" opacity="1.00" d=" M 154.56 34.47 C 180.06 22.86 207.70 15.83 235.73 14.59 C 241.10 15.22 246.29 16.81 251.44 18.38 C 274.22 25.39 295.65 36.64 314.43 51.31 C 334.82 67.50 351.92 87.92 363.99 111.02 C 365.54 114.12 367.52 117.09 368.19 120.55 C 368.25 121.38 368.37 123.02 368.43 123.84 C 368.09 124.37 367.41 125.44 367.06 125.98 C 367.49 126.34 368.33 127.06 368.75 127.42 C 368.57 128.45 368.40 129.49 368.22 130.52 C 366.82 130.04 365.43 129.55 364.04 129.06 C 361.99 130.54 359.79 131.79 357.55 132.96 C 358.06 134.28 358.58 135.60 359.10 136.92 C 356.21 136.96 353.64 135.70 351.04 134.65 C 350.53 135.00 349.53 135.68 349.03 136.03 C 350.30 137.27 351.77 138.28 353.34 139.11 C 350.02 140.18 345.76 137.83 344.91 134.36 C 345.22 133.75 345.85 132.53 346.17 131.92 C 344.06 130.34 341.96 128.77 339.92 127.12 C 344.58 129.46 349.70 131.27 354.94 131.58 C 357.95 131.52 363.19 129.23 361.36 125.43 C 360.99 123.64 359.03 123.24 357.64 122.56 C 354.05 121.36 351.39 118.18 347.52 117.73 C 344.41 117.34 340.97 117.33 338.83 114.65 C 336.62 115.54 334.26 115.36 331.97 114.95 C 333.62 114.32 335.51 113.92 336.55 112.34 C 334.61 111.58 332.66 110.85 330.73 110.08 C 330.35 110.57 329.59 111.54 329.21 112.03 C 329.40 111.37 329.79 110.04 329.99 109.37 C 329.08 109.75 327.27 110.51 326.37 110.88 C 325.99 110.68 325.23 110.26 324.85 110.05 C 324.55 110.47 323.94 111.31 323.64 111.73 C 323.61 111.20 323.57 110.15 323.54 109.62 C 320.99 110.46 318.70 111.89 316.73 113.70 C 316.33 113.58 315.53 113.34 315.13 113.22 C 313.15 114.07 311.16 114.89 309.14 115.65 C 308.85 116.12 308.26 117.06 307.97 117.54 C 307.24 117.42 305.77 117.18 305.03 117.06 C 303.24 118.62 301.59 120.33 300.20 122.25 C 297.45 125.09 292.91 126.77 291.95 130.91 C 291.62 131.29 290.97 132.06 290.65 132.44 C 289.59 136.52 285.01 137.66 283.12 141.18 C 281.37 142.19 279.53 143.04 277.64 143.72 C 276.31 144.81 274.88 145.77 273.36 146.56 C 271.44 149.19 272.31 152.47 272.88 155.41 C 272.66 155.83 272.24 156.68 272.03 157.11 C 272.41 157.40 273.17 157.97 273.55 158.26 C 273.36 158.73 272.96 159.68 272.76 160.15 C 274.83 161.25 276.98 163.38 279.50 162.39 C 281.87 161.01 284.02 159.27 286.42 157.94 C 287.45 161.38 289.14 164.55 290.78 167.72 C 290.47 168.24 289.85 169.27 289.54 169.79 C 288.18 168.71 286.85 167.60 285.52 166.50 C 285.74 165.48 286.20 163.45 286.43 162.43 C 283.95 163.74 280.99 164.64 279.38 167.10 C 280.38 166.96 282.39 166.68 283.39 166.54 C 282.09 166.91 280.78 167.27 279.48 167.62 C 279.97 170.66 280.80 173.64 281.42 176.66 C 277.53 177.44 272.71 177.67 270.53 181.59 C 269.11 184.16 266.44 185.38 263.82 186.39 C 263.56 187.22 263.31 188.07 263.06 188.91 C 261.69 189.63 260.33 190.36 258.99 191.12 C 257.61 190.65 256.25 190.14 254.87 189.70 C 255.21 190.92 255.56 192.13 255.91 193.35 C 253.18 192.90 250.40 192.81 247.77 193.82 C 248.00 194.44 248.45 195.67 248.68 196.29 C 252.24 196.70 254.67 199.24 256.83 201.85 C 256.57 204.48 256.23 207.10 255.73 209.69 C 250.73 209.39 245.74 209.06 240.75 208.70 C 239.32 209.42 237.90 210.15 236.49 210.89 C 236.91 211.38 237.76 212.36 238.18 212.86 C 238.01 216.12 237.84 219.42 236.61 222.49 C 235.93 223.67 237.20 224.56 237.68 225.52 C 237.67 226.68 237.66 227.84 237.64 229.01 C 239.42 228.86 241.20 228.72 242.98 228.57 C 243.72 229.65 244.46 230.74 245.21 231.82 C 244.10 234.04 243.44 236.86 240.86 237.82 C 236.99 239.45 234.54 244.13 235.83 248.19 C 233.95 251.02 231.04 252.77 227.84 253.75 C 223.72 259.18 220.61 265.25 217.29 271.21 C 217.98 272.02 218.67 272.84 219.36 273.67 C 220.16 278.50 220.19 283.83 216.96 287.86 C 217.36 288.39 218.16 289.45 218.57 289.98 C 218.46 291.14 218.43 292.30 218.45 293.47 C 221.61 297.06 226.80 299.64 227.59 304.73 C 231.91 308.40 236.51 311.89 241.60 314.43 C 245.63 311.88 250.68 311.11 255.08 313.20 C 259.92 311.11 264.86 309.18 270.17 308.74 C 272.24 310.22 272.82 313.08 274.99 314.37 C 277.17 314.33 279.30 313.80 281.43 313.39 C 285.26 316.36 283.10 321.06 282.64 324.98 C 282.28 325.48 281.56 326.47 281.19 326.97 C 282.90 330.70 286.11 333.27 288.69 336.34 C 290.12 339.39 291.32 342.59 292.43 345.78 C 292.31 346.31 292.07 347.38 291.95 347.92 C 292.96 350.22 294.66 353.26 292.46 355.44 C 289.81 358.31 289.64 362.35 288.16 365.80 C 279.25 370.35 270.25 374.80 260.74 377.95 C 232.57 388.02 201.86 390.81 172.28 386.63 C 175.25 384.74 176.10 381.02 178.94 378.98 C 182.56 375.94 182.65 370.45 180.44 366.56 C 178.93 366.03 177.34 365.76 175.86 365.18 C 173.25 363.66 171.38 360.41 168.05 360.56 C 164.84 360.70 161.73 358.68 158.61 359.96 C 158.50 359.46 158.28 358.47 158.17 357.97 C 155.09 357.09 150.93 353.12 148.29 356.66 C 148.36 355.96 148.52 354.56 148.60 353.86 C 146.74 353.78 144.88 353.72 143.02 353.66 C 142.86 354.32 142.55 355.65 142.40 356.31 C 141.75 356.38 140.45 356.54 139.81 356.61 C 141.74 354.49 143.69 352.38 145.55 350.19 C 143.34 348.52 142.31 346.01 141.75 343.40 C 138.49 340.52 134.54 337.82 129.95 338.47 C 127.65 338.92 125.95 337.18 124.23 335.98 C 122.97 333.23 120.25 331.84 117.33 331.65 C 117.43 331.39 117.64 330.86 117.74 330.60 C 117.61 329.09 117.46 327.60 117.29 326.11 C 115.45 326.09 115.20 328.02 114.40 329.18 C 114.43 328.46 114.51 327.00 114.54 326.28 C 110.92 326.02 107.44 329.19 104.06 326.74 C 102.88 326.77 101.69 326.80 100.51 326.83 C 98.67 325.38 96.78 323.99 94.88 322.62 C 94.96 325.25 92.68 325.94 90.45 325.89 C 91.46 325.08 92.45 324.26 93.45 323.44 C 92.41 323.00 91.38 322.51 90.40 321.96 C 88.96 320.21 87.08 319.00 84.86 318.51 C 82.97 319.20 81.14 320.70 79.05 320.39 C 76.91 319.07 75.25 317.06 73.87 314.98 C 73.67 311.92 74.92 309.02 75.29 306.02 C 74.75 304.52 73.19 303.75 72.13 302.66 C 68.83 302.81 65.54 302.99 62.25 303.20 C 64.08 298.72 63.49 293.30 66.90 289.55 C 63.88 287.21 60.04 288.83 56.84 289.84 C 56.32 291.59 56.33 293.69 55.00 295.07 C 51.58 296.65 47.52 297.30 44.17 295.17 C 42.47 292.19 39.62 289.56 39.56 285.91 C 39.19 282.88 40.00 279.91 41.14 277.14 C 39.22 273.15 43.09 270.65 46.14 269.14 C 50.79 265.50 56.53 269.23 61.68 269.28 C 61.27 268.07 60.81 266.89 60.29 265.73 C 63.89 265.92 68.04 264.71 70.92 267.54 C 73.25 265.36 74.94 267.91 76.52 269.50 C 75.41 273.53 78.86 276.50 80.73 279.64 C 81.28 279.68 82.39 279.77 82.95 279.81 C 85.24 274.68 81.87 269.79 80.29 265.05 C 80.16 261.02 84.20 259.29 86.61 256.82 C 88.53 255.66 90.41 254.43 92.34 253.29 C 93.12 252.19 93.95 251.12 94.75 250.04 C 94.39 249.00 94.02 247.96 93.66 246.93 C 95.48 243.27 98.37 240.00 98.97 235.83 C 102.17 234.77 105.50 234.22 108.76 233.39 C 109.14 232.01 107.11 231.89 106.43 231.12 C 106.84 229.78 107.01 228.11 108.46 227.46 C 112.46 225.26 116.65 223.34 121.03 222.02 C 119.67 223.02 118.28 223.97 116.90 224.94 C 117.19 225.66 117.77 227.10 118.07 227.83 C 120.41 228.19 121.85 225.73 123.92 225.06 C 127.37 223.81 130.85 222.54 133.84 220.34 C 132.87 219.18 132.26 217.86 132.01 216.37 C 129.85 216.60 129.41 219.02 128.41 220.52 C 126.43 220.42 124.27 220.57 122.62 219.24 C 120.58 218.38 121.44 215.78 121.16 214.10 C 120.40 214.19 118.86 214.37 118.09 214.45 C 119.79 213.64 122.66 213.57 122.88 211.25 C 121.80 210.35 120.48 209.31 118.98 209.69 C 114.94 210.50 111.07 212.20 107.81 214.73 C 110.22 211.26 114.79 210.43 117.06 206.90 C 122.07 206.54 127.12 207.65 132.08 206.74 C 133.98 206.49 135.20 204.88 136.60 203.76 C 139.11 203.40 141.51 202.53 143.62 201.11 C 143.44 199.47 143.31 197.83 143.17 196.20 C 141.58 195.34 140.03 194.40 138.54 193.38 C 136.57 194.36 134.61 195.37 132.57 196.21 C 134.86 194.89 137.24 193.72 139.48 192.30 C 137.16 191.43 134.84 190.58 132.55 189.66 C 131.40 187.85 129.62 186.70 127.71 185.83 C 128.26 185.50 129.35 184.85 129.89 184.52 C 127.42 180.32 125.10 175.91 121.82 172.28 C 120.74 172.49 119.98 173.39 119.10 173.96 C 119.19 177.08 116.03 178.03 113.90 179.48 C 113.45 178.90 112.54 177.74 112.08 177.15 C 111.35 177.30 109.89 177.59 109.16 177.73 C 109.39 177.30 109.85 176.42 110.07 175.98 C 109.50 173.85 109.30 171.64 110.06 169.53 C 106.90 169.60 104.36 167.94 102.45 165.57 C 99.82 162.26 95.51 165.50 92.18 163.70 C 90.18 162.66 88.31 163.76 87.60 165.77 C 88.07 166.30 89.00 167.35 89.46 167.88 C 89.03 168.43 88.16 169.54 87.73 170.10 C 88.18 170.51 89.08 171.33 89.54 171.74 C 89.62 172.22 89.78 173.19 89.86 173.67 C 88.83 175.12 87.80 176.58 86.77 178.04 C 88.78 180.07 92.51 181.63 91.89 185.07 C 91.17 188.75 87.43 190.56 84.32 191.92 C 85.54 194.80 86.53 197.83 86.69 200.98 C 85.97 202.10 84.64 202.62 83.60 203.41 C 81.81 201.57 79.99 199.75 78.36 197.77 C 78.48 195.34 78.44 192.91 78.51 190.49 C 73.81 189.59 68.62 189.51 64.68 186.43 C 61.69 183.91 57.67 182.04 53.74 183.41 C 53.14 181.39 52.36 179.42 51.44 177.52 C 50.17 177.44 48.89 177.36 47.62 177.29 C 46.60 170.01 52.46 164.69 57.94 161.09 C 56.80 159.49 54.68 159.35 53.00 158.60 C 55.04 159.06 57.07 159.55 59.12 160.01 C 59.53 157.75 62.06 158.38 63.62 157.55 C 64.63 156.79 65.48 155.86 66.37 154.97 C 66.14 154.36 65.67 153.14 65.44 152.53 C 66.63 151.68 67.81 150.82 68.99 149.95 C 68.74 149.03 68.50 148.12 68.26 147.21 C 70.20 148.20 72.23 148.96 74.42 149.17 C 73.57 147.99 72.85 146.74 72.28 145.41 C 73.19 146.50 74.01 147.65 74.88 148.77 C 77.45 148.06 80.06 146.68 80.90 143.95 C 79.67 142.04 78.21 140.30 76.91 138.44 C 78.03 138.81 79.15 139.18 80.26 139.55 C 80.29 138.68 80.33 136.93 80.35 136.06 C 77.35 134.85 74.39 132.81 71.01 133.24 C 68.47 133.89 70.30 136.35 71.33 137.45 C 70.94 137.71 70.16 138.22 69.78 138.48 C 69.02 140.86 67.69 142.97 66.07 144.85 C 64.95 143.61 63.88 142.32 62.78 141.06 C 63.37 140.78 64.56 140.22 65.15 139.94 C 64.36 137.91 62.89 136.34 61.03 135.24 C 60.34 136.60 59.64 137.96 58.94 139.32 C 58.24 137.56 57.90 135.65 57.00 133.99 C 55.62 133.94 54.23 133.94 52.84 133.99 C 53.69 133.17 54.54 132.33 55.38 131.49 C 52.08 129.55 52.11 124.49 48.06 123.67 C 45.15 123.01 44.06 126.47 42.36 128.14 C 42.53 129.56 42.65 130.98 42.76 132.41 C 45.34 134.71 48.92 134.95 52.05 136.09 C 50.12 135.89 47.95 135.83 47.08 138.00 C 47.95 138.03 49.70 138.10 50.57 138.14 C 48.87 139.35 47.09 140.48 45.23 141.45 C 45.25 142.36 45.28 144.18 45.29 145.09 C 43.96 144.06 43.56 142.64 44.10 140.83 C 41.85 140.33 38.40 137.74 37.39 141.32 C 38.25 141.37 39.97 141.48 40.83 141.53 C 40.85 141.82 40.88 142.39 40.89 142.68 C 36.33 140.26 31.23 143.23 26.53 141.54 C 11.91 171.02 3.28 203.40 1.15 236.23 C 0.66 231.45 2.24 226.77 1.91 221.98 C 2.57 215.00 1.61 208.02 1.92 201.01 C 1.57 161.07 14.24 121.40 36.33 88.24 C 52.55 64.61 73.55 44.08 98.25 29.42 C 96.96 34.10 94.16 38.22 93.27 43.03 C 101.15 38.15 108.72 32.24 117.84 29.91 C 114.72 33.78 112.16 38.29 112.32 43.40 C 109.90 45.85 106.43 47.18 104.70 50.31 C 112.73 46.82 119.49 40.88 127.80 37.92 C 125.38 42.55 123.45 47.41 121.19 52.12 C 123.01 51.32 124.81 50.46 126.49 49.39 C 135.41 43.64 145.05 39.15 154.56 34.47 M 154.69 56.08 C 154.67 56.78 154.62 58.19 154.60 58.89 C 153.73 58.46 152.86 58.02 151.99 57.57 C 150.81 58.04 149.63 58.51 148.45 58.99 C 148.44 60.31 147.96 61.54 147.56 62.77 C 145.92 60.72 143.66 62.75 144.67 64.89 C 144.20 63.24 142.40 63.15 141.04 62.66 C 137.97 63.77 133.66 64.27 133.18 68.24 C 129.67 68.13 125.66 70.35 124.91 73.96 C 125.57 73.91 126.90 73.81 127.56 73.76 C 127.15 74.64 126.74 75.53 126.34 76.42 C 122.45 76.86 118.84 78.58 114.92 78.81 C 114.21 79.68 112.70 80.46 113.21 81.83 C 114.67 82.98 116.08 84.20 117.20 85.70 C 115.78 85.43 114.45 85.60 113.21 86.19 C 112.97 87.31 113.46 88.00 114.67 88.27 C 114.59 88.72 114.43 89.61 114.35 90.06 C 116.17 93.58 120.99 91.54 124.13 91.71 C 129.67 90.90 131.51 96.95 134.78 100.04 C 134.48 100.44 133.89 101.24 133.59 101.64 C 137.04 102.63 135.33 107.08 138.19 108.71 C 137.41 108.72 135.86 108.73 135.09 108.74 C 135.49 109.02 136.30 109.58 136.71 109.86 C 136.05 111.23 135.43 112.63 134.79 114.01 C 136.91 114.41 138.94 115.18 140.80 116.28 C 140.71 115.49 140.54 113.91 140.46 113.12 C 142.39 114.62 144.73 115.76 146.08 117.89 C 143.15 117.32 140.31 115.77 137.28 116.85 C 137.44 117.32 137.78 118.26 137.95 118.73 C 137.15 119.75 136.58 120.89 136.23 122.13 C 137.20 122.98 138.15 123.85 139.09 124.74 C 141.16 123.99 145.59 124.08 144.27 120.77 C 144.90 121.72 145.73 122.43 146.77 122.88 C 145.97 124.99 145.29 127.67 142.21 126.92 C 143.65 128.27 145.08 129.64 146.70 130.78 C 144.58 129.78 141.86 129.95 140.95 127.35 C 140.55 129.76 138.31 131.49 138.60 134.06 C 139.40 134.64 140.19 135.22 140.99 135.81 C 140.38 136.15 139.18 136.85 138.57 137.20 C 139.27 140.24 142.08 141.81 143.85 144.15 C 143.71 144.95 143.42 146.53 143.27 147.32 C 145.15 147.35 145.51 148.74 145.58 150.32 C 147.62 151.47 149.72 153.11 149.86 155.66 C 152.28 155.65 152.98 157.76 153.74 159.63 C 156.01 159.22 157.69 160.60 159.00 162.27 C 160.58 161.73 162.19 161.37 163.86 161.77 C 164.56 160.76 165.77 160.53 166.86 160.17 C 166.58 160.74 166.02 161.88 165.74 162.45 C 167.52 162.17 168.51 162.87 168.69 164.55 C 170.14 164.68 171.44 164.34 172.60 163.55 C 173.82 163.56 175.03 163.58 176.26 163.59 C 176.45 160.37 176.36 157.09 177.95 154.16 C 177.31 153.18 176.65 152.20 175.99 151.22 C 177.82 149.33 179.55 147.29 180.78 144.94 C 180.32 144.53 179.41 143.72 178.95 143.31 C 179.40 142.98 180.31 142.32 180.77 141.99 C 179.98 141.02 179.09 140.15 178.08 139.43 C 178.85 139.37 180.40 139.25 181.17 139.19 C 181.19 138.55 181.21 137.25 181.23 136.60 C 181.72 136.55 182.72 136.44 183.21 136.39 C 185.44 135.99 184.17 133.08 185.42 131.70 C 185.28 132.66 185.01 134.57 184.87 135.52 C 186.82 134.44 188.79 133.38 190.80 132.42 C 190.94 131.93 191.22 130.95 191.37 130.46 C 194.11 131.27 194.77 128.05 194.81 126.05 C 194.73 123.83 196.23 122.10 197.19 120.24 C 201.11 121.02 203.44 117.09 206.69 115.65 C 209.80 114.19 211.16 110.92 211.92 107.78 C 213.06 106.58 214.02 105.23 214.81 103.78 C 211.84 104.67 208.92 105.84 205.74 105.58 C 204.53 106.75 203.37 107.98 202.18 109.18 C 203.16 107.61 204.21 106.07 205.63 104.85 C 204.75 104.01 203.97 103.07 203.10 102.23 C 205.41 101.32 206.94 103.74 208.98 104.31 C 210.93 104.32 212.72 103.38 214.59 102.98 C 213.38 101.43 212.04 99.97 210.78 98.46 C 208.70 97.87 206.63 97.17 204.45 97.25 C 204.14 97.06 203.54 96.68 203.24 96.49 C 204.34 96.60 206.54 96.81 207.64 96.92 C 207.21 94.69 203.85 95.12 204.17 92.64 C 203.24 92.89 202.32 93.18 201.43 93.51 C 201.41 93.37 201.38 93.08 201.37 92.94 C 202.93 92.04 204.43 91.03 205.87 89.95 C 205.00 88.94 204.04 88.04 203.03 87.18 C 203.43 86.49 204.22 85.10 204.61 84.41 C 202.32 83.91 199.98 83.75 197.65 83.66 C 199.06 83.22 200.19 82.34 200.48 80.83 C 199.00 80.50 197.66 79.86 196.45 78.93 C 197.22 78.91 198.75 78.85 199.51 78.82 C 197.14 77.54 196.07 75.01 194.19 73.23 C 192.84 73.94 191.41 74.46 189.91 74.70 L 192.03 73.99 C 191.19 71.94 189.78 71.64 187.80 73.11 C 185.77 70.96 186.50 67.62 184.07 65.73 C 184.31 65.30 184.78 64.44 185.01 64.01 C 184.37 62.87 183.73 61.73 183.09 60.60 C 183.25 60.24 183.56 59.54 183.71 59.19 C 183.15 57.96 182.83 56.66 182.62 55.33 C 181.03 55.38 179.28 54.82 177.82 55.61 C 176.76 56.99 175.90 58.52 174.89 59.94 C 173.80 58.06 170.28 56.26 170.57 59.93 L 169.86 59.59 C 170.53 58.27 171.20 56.95 171.88 55.64 C 168.21 55.08 164.71 53.24 160.94 53.71 C 158.66 53.86 156.65 55.03 154.69 56.08 M 304.62 66.28 C 307.42 66.34 310.22 66.41 313.01 66.21 C 312.13 67.19 311.18 68.13 310.51 69.27 C 316.13 70.49 322.25 69.32 326.58 65.43 C 327.55 62.73 323.38 63.15 321.80 63.19 C 321.33 62.74 320.39 61.85 319.91 61.41 C 318.87 62.18 317.84 62.96 316.82 63.75 C 316.80 62.95 316.77 61.35 316.75 60.55 C 316.04 61.30 315.34 62.07 314.65 62.84 C 313.22 62.70 311.80 62.57 310.38 62.47 C 309.96 61.99 309.11 61.03 308.69 60.54 C 307.28 62.37 304.52 63.69 304.62 66.28 M 91.72 63.73 C 92.03 64.54 92.64 66.16 92.95 66.96 C 90.84 65.72 88.48 64.54 85.96 64.76 C 83.38 65.15 81.75 67.34 79.97 69.02 C 80.75 69.45 82.31 70.30 83.09 70.73 C 81.71 70.54 80.34 70.33 78.97 70.11 C 75.59 73.09 72.38 76.26 69.47 79.70 C 71.93 79.17 74.48 78.24 76.97 79.17 C 80.61 79.57 84.77 75.43 88.09 78.37 C 84.38 79.32 78.99 78.45 77.49 82.98 C 78.74 83.12 79.56 83.73 79.95 84.82 C 78.23 83.77 76.75 82.34 74.95 81.43 C 72.40 81.41 69.38 80.37 67.15 81.92 C 67.63 82.52 68.61 83.72 69.09 84.32 C 72.23 85.84 74.82 88.31 78.18 89.50 C 75.07 89.78 72.13 87.81 68.97 88.69 C 66.92 88.74 66.53 91.12 65.92 92.61 C 67.53 92.86 69.14 93.12 70.75 93.36 C 71.07 94.32 71.38 95.27 71.70 96.22 C 72.62 96.27 74.45 96.37 75.36 96.42 C 73.70 98.28 71.08 96.85 69.53 95.59 C 67.84 94.06 65.43 94.14 63.33 94.45 C 63.41 95.65 64.29 96.54 64.90 97.51 C 63.41 98.04 61.91 98.58 60.42 99.12 C 60.22 99.84 59.82 101.28 59.62 101.99 C 57.04 100.71 54.00 100.02 51.24 101.19 C 50.58 103.78 54.90 105.08 52.82 107.80 C 53.25 108.80 53.67 109.81 54.10 110.81 C 54.76 110.75 56.10 110.62 56.76 110.56 C 57.83 111.07 58.91 111.55 60.00 112.00 C 60.65 111.32 61.30 110.64 61.95 109.96 C 63.38 112.77 66.62 111.92 69.05 111.21 C 71.15 111.56 73.99 112.46 75.40 110.25 C 77.06 112.73 80.15 111.73 82.66 111.77 C 82.73 111.21 82.86 110.10 82.93 109.55 C 83.86 109.30 86.30 107.35 84.18 106.80 C 79.28 103.71 72.76 103.47 67.89 106.77 C 65.89 105.27 63.65 105.55 61.40 106.24 C 60.38 104.60 58.52 104.26 56.77 103.90 C 58.33 103.65 59.43 102.83 60.08 101.46 C 61.33 102.18 62.61 102.26 63.92 101.68 C 66.83 101.97 70.82 103.99 73.03 101.20 C 74.99 102.03 77.33 103.13 79.02 101.14 C 79.95 101.95 80.88 102.77 81.81 103.59 C 83.82 102.91 85.89 102.47 87.93 101.91 C 89.51 101.56 90.34 98.44 87.98 98.72 C 84.96 98.40 81.91 98.14 78.98 97.29 C 81.78 95.60 85.19 98.74 88.11 96.98 C 88.19 96.29 88.36 94.91 88.44 94.22 C 89.63 94.39 90.84 94.47 92.05 94.48 C 93.66 92.69 95.03 90.69 96.86 89.09 C 96.11 86.39 93.40 86.36 91.10 86.42 C 91.13 86.15 91.20 85.63 91.24 85.36 C 94.24 85.37 97.44 86.76 100.30 85.37 C 99.69 84.81 98.47 83.69 97.86 83.13 C 101.14 84.09 104.62 84.56 107.78 82.91 C 107.75 82.30 107.70 81.07 107.67 80.46 C 112.05 79.06 115.70 76.02 120.16 74.81 C 119.96 70.80 115.96 74.45 114.12 72.94 C 114.27 70.88 117.52 71.19 119.07 71.14 C 122.57 71.91 127.06 71.54 128.89 67.98 C 124.13 66.28 119.15 64.97 114.05 65.43 C 111.03 65.79 107.09 61.94 104.87 64.92 C 103.11 64.41 99.74 62.89 99.30 65.66 C 96.97 64.38 94.27 64.26 91.72 63.73 M 285.89 66.83 C 286.33 69.19 287.96 69.77 290.13 69.28 C 289.58 69.71 288.48 70.57 287.93 71.00 C 289.61 72.52 291.44 74.98 294.03 74.40 C 294.91 73.65 295.76 72.85 296.57 72.02 C 297.52 72.46 298.44 72.97 299.21 73.70 C 297.17 74.71 292.92 73.91 293.66 77.29 C 295.79 76.99 297.93 76.70 300.09 76.58 C 298.98 78.04 296.89 77.30 295.36 77.63 L 295.20 79.22 C 297.15 80.93 299.47 83.18 302.30 82.51 C 302.63 81.19 302.74 79.65 304.05 78.88 C 306.09 77.64 306.39 75.16 307.33 73.17 C 308.59 72.26 311.94 72.59 310.71 70.26 C 308.31 69.43 306.32 66.71 303.62 67.38 C 303.61 66.78 303.58 65.58 303.57 64.98 C 302.59 64.78 300.63 64.39 299.64 64.19 C 297.18 64.99 299.05 67.57 299.42 69.18 C 298.19 67.86 297.03 66.48 295.88 65.09 C 294.94 66.04 294.02 66.98 293.11 67.95 C 292.94 67.28 292.60 65.95 292.43 65.29 C 290.16 65.40 287.82 65.48 285.89 66.83 M 200.47 80.58 C 201.15 81.53 201.89 82.46 202.64 83.37 C 203.27 82.93 204.53 82.05 205.16 81.60 C 203.65 81.05 202.10 80.53 200.47 80.58 M 65.30 84.02 C 63.44 86.56 60.65 88.52 59.38 91.42 C 59.75 91.71 60.49 92.30 60.86 92.59 L 62.31 92.17 C 62.33 91.63 62.38 90.54 62.40 90.00 C 62.87 90.08 63.80 90.25 64.26 90.33 C 65.88 88.21 68.35 87.31 70.82 86.59 C 69.66 85.49 67.97 85.68 66.52 85.45 C 66.21 85.09 65.60 84.38 65.30 84.02 M 133.09 104.52 C 132.64 105.93 133.13 106.40 134.54 105.94 C 134.97 104.54 134.49 104.06 133.09 104.52 M 46.67 113.26 C 45.86 115.09 44.32 116.88 44.73 119.02 C 45.43 120.65 45.86 123.02 48.01 123.25 C 49.68 122.97 50.83 121.79 50.29 120.04 C 51.57 120.17 52.86 120.29 54.15 120.41 C 55.76 118.40 57.70 116.47 58.21 113.83 C 54.35 113.80 50.53 113.15 46.67 113.26 M 41.24 114.96 C 39.77 115.31 40.13 117.86 41.75 116.91 C 43.24 116.58 42.85 114.01 41.24 114.96 M 58.96 120.97 C 59.80 122.45 59.52 123.89 58.53 125.22 C 59.62 127.58 63.52 126.04 65.16 128.13 C 64.00 128.12 61.68 128.10 60.52 128.09 C 60.52 131.36 64.53 131.81 66.98 131.19 C 67.43 131.54 68.33 132.23 68.78 132.57 C 72.95 133.07 77.22 132.98 81.28 134.09 C 81.52 133.73 81.98 133.01 82.22 132.65 C 83.60 133.21 85.01 134.15 86.56 133.55 C 87.92 132.02 85.98 131.02 85.14 129.90 C 88.08 131.96 90.63 134.55 93.98 136.00 C 92.49 136.24 90.72 136.83 91.61 138.67 C 95.38 137.10 99.36 139.34 101.41 142.50 C 103.06 145.57 99.04 147.66 96.95 149.05 C 97.48 149.63 98.53 150.80 99.06 151.39 C 96.31 152.28 93.45 153.12 90.71 151.69 C 89.57 152.85 88.45 154.02 87.34 155.21 C 89.78 158.34 93.75 156.43 96.95 156.56 C 97.43 156.24 98.41 155.59 98.90 155.26 C 100.10 156.99 101.44 158.74 103.62 159.20 C 103.72 159.65 103.91 160.56 104.00 161.02 C 108.36 163.97 113.69 165.43 118.79 166.78 C 117.73 163.00 114.00 161.44 111.14 159.29 C 114.75 160.12 117.92 162.13 121.00 164.12 C 121.08 162.58 121.64 161.17 122.58 159.96 C 120.95 157.39 119.43 154.39 116.26 153.50 C 116.01 153.03 115.53 152.09 115.28 151.62 C 114.53 151.26 113.78 150.91 113.03 150.55 C 113.65 150.51 114.90 150.41 115.53 150.36 C 115.11 149.37 114.71 148.37 114.35 147.37 C 116.89 148.50 119.25 150.06 120.85 152.40 C 122.04 152.98 123.36 154.62 124.75 153.96 C 124.69 153.39 124.57 152.27 124.51 151.71 C 126.21 151.54 127.61 150.72 128.33 149.14 C 129.28 148.57 130.73 147.61 129.56 146.40 C 127.88 145.08 125.48 145.40 123.62 144.38 C 122.94 143.19 122.18 142.06 121.11 141.18 C 117.80 142.35 115.50 139.51 112.67 138.49 C 112.66 137.78 112.69 137.08 112.71 136.38 C 114.08 136.57 115.45 136.74 116.83 136.90 C 117.21 134.18 114.56 134.91 113.04 134.52 C 113.80 134.20 115.32 133.56 116.08 133.25 C 114.43 130.20 111.49 131.77 109.08 132.66 C 110.14 132.02 111.19 131.39 112.25 130.76 C 111.85 127.39 107.65 130.85 106.44 128.16 C 105.17 126.87 103.68 124.34 101.61 125.45 C 100.16 127.21 98.67 124.88 97.30 124.41 L 97.97 123.30 C 96.97 122.45 95.99 121.57 95.01 120.70 C 92.73 120.57 90.42 119.82 88.15 120.24 C 86.50 120.71 86.31 122.58 86.69 124.00 C 86.38 123.06 85.87 122.29 85.13 121.68 C 83.43 120.42 82.72 124.56 81.21 122.62 C 81.72 121.36 82.40 120.18 83.02 118.98 C 81.44 117.20 79.89 113.99 76.97 114.93 C 73.63 115.19 71.13 117.42 69.22 119.98 C 69.60 120.48 70.34 121.47 70.71 121.97 C 70.38 122.45 69.72 123.41 69.39 123.89 C 70.39 124.68 71.39 125.46 72.39 126.25 C 71.81 126.87 71.22 127.51 70.64 128.14 C 70.60 127.43 70.52 125.99 70.48 125.28 C 67.69 124.43 68.96 121.40 67.03 119.83 C 68.32 118.11 69.74 116.50 71.17 114.90 C 66.29 113.36 60.76 116.26 58.96 120.97 M 35.22 126.05 C 35.88 126.30 37.21 126.79 37.88 127.04 C 39.15 126.47 40.44 125.93 41.70 125.32 C 42.77 123.99 43.22 122.28 43.98 120.77 C 42.75 119.64 41.26 118.85 39.75 118.15 C 37.98 120.62 36.13 123.11 35.22 126.05 M 198.98 134.09 C 201.01 134.63 203.11 134.28 205.18 134.19 C 204.70 136.61 200.47 134.81 200.97 137.70 C 202.56 137.57 204.13 137.65 205.70 137.92 C 205.10 138.50 203.89 139.64 203.28 140.21 C 204.79 140.94 206.43 141.07 208.08 141.22 C 210.08 141.43 211.84 142.98 213.93 142.58 C 217.09 141.12 220.39 139.99 223.58 138.59 C 225.22 137.27 228.24 134.21 224.91 132.98 C 222.98 131.63 219.88 127.35 217.94 130.84 C 216.32 131.42 214.56 131.14 212.89 131.19 C 211.69 131.58 210.54 131.46 209.43 130.82 C 209.43 132.38 208.67 133.54 207.34 134.25 C 207.32 133.44 207.28 131.81 207.26 130.99 C 206.12 130.44 204.98 129.90 203.84 129.36 C 202.03 130.74 200.30 132.23 198.98 134.09 M 31.16 132.12 C 29.49 132.70 30.08 135.74 31.93 135.33 C 33.64 134.81 33.02 131.56 31.16 132.12 M 39.13 132.91 C 38.39 134.77 36.99 136.16 35.31 137.21 C 38.72 138.29 42.92 141.36 46.09 138.05 C 44.19 135.85 42.11 133.54 39.13 132.91 M 28.51 137.61 C 29.52 138.40 31.24 136.99 30.56 135.84 C 29.59 134.73 27.85 136.53 28.51 137.61 M 91.91 145.49 C 94.52 145.10 97.21 143.24 95.58 140.35 C 92.29 137.26 87.14 143.86 91.91 145.49 M 65.46 159.91 C 66.43 159.78 68.37 159.51 69.34 159.37 C 69.66 159.96 70.28 161.14 70.60 161.73 C 72.50 160.48 74.78 159.57 76.02 157.54 C 77.89 159.88 81.33 161.19 83.87 159.02 C 82.67 158.05 81.30 157.47 79.78 157.30 C 78.50 154.31 74.91 152.55 71.80 152.19 C 71.34 151.55 70.41 150.28 69.95 149.64 C 67.77 152.87 68.52 157.19 65.46 159.91 M 247.36 160.21 C 246.18 162.42 245.46 164.82 245.20 167.32 C 245.84 168.74 246.01 170.24 245.69 171.82 C 242.88 171.72 238.43 170.67 238.22 174.80 C 237.05 174.80 235.89 174.81 234.73 174.84 C 234.95 176.39 234.22 178.55 236.18 179.26 C 237.41 180.61 234.79 181.82 233.82 182.21 C 234.58 183.23 235.31 184.28 236.08 185.31 C 238.98 184.47 241.67 183.00 244.65 182.40 C 245.79 180.70 245.76 178.80 245.07 176.94 C 245.47 176.48 246.25 175.56 246.65 175.10 C 246.30 174.19 245.95 173.28 245.61 172.37 C 246.46 171.50 247.27 170.60 248.09 169.71 C 247.83 171.13 247.57 172.57 247.34 174.00 C 250.13 172.76 251.43 175.07 252.77 177.02 C 251.78 178.46 249.93 178.57 248.46 179.13 C 248.85 179.86 249.25 180.59 249.65 181.32 C 248.44 182.04 247.15 182.72 246.47 184.03 C 247.92 184.16 249.36 184.28 250.82 184.38 C 249.11 186.10 246.33 187.29 245.95 189.90 C 248.19 189.10 250.59 188.79 252.76 187.78 C 256.44 187.17 260.41 187.99 263.80 186.10 C 262.02 183.93 265.71 182.24 264.06 180.15 C 263.35 179.97 261.93 179.60 261.22 179.41 C 260.09 177.10 259.21 174.51 256.90 173.08 C 256.41 171.19 255.12 169.78 253.43 168.85 C 254.40 167.19 255.21 165.45 255.81 163.62 C 253.87 163.35 251.91 163.28 249.96 163.30 C 251.16 162.37 252.50 161.51 253.15 160.07 C 251.22 160.00 249.28 160.05 247.36 160.21 M 133.81 215.10 C 137.09 215.38 140.42 215.85 143.67 215.10 C 143.32 215.68 142.60 216.83 142.25 217.40 C 144.22 218.72 145.25 216.43 146.53 215.50 C 146.85 217.42 148.49 218.02 150.11 218.54 C 151.23 216.72 150.85 214.89 149.19 213.59 C 149.45 213.10 149.98 212.11 150.24 211.62 C 149.66 211.70 148.48 211.84 147.90 211.92 C 148.15 211.43 148.65 210.44 148.90 209.95 C 147.89 208.02 145.39 209.33 143.77 209.34 C 143.93 207.99 143.42 207.09 142.22 206.64 C 142.95 205.13 143.61 203.58 144.13 201.98 C 137.54 202.78 137.39 210.84 133.81 215.10 M 71.33 288.92 C 73.28 288.07 75.18 287.11 77.07 286.13 C 77.49 286.45 78.33 287.08 78.75 287.40 C 81.20 287.70 83.53 288.58 85.87 289.32 C 86.92 290.81 89.59 291.01 88.79 293.39 C 91.81 292.92 95.44 294.20 97.95 292.03 C 92.79 289.26 87.36 287.01 82.00 284.66 C 78.26 283.93 71.68 283.70 71.33 288.92 M 98.39 292.82 C 99.96 293.63 100.73 294.80 100.71 296.33 C 99.65 296.13 97.52 295.74 96.45 295.55 C 96.62 296.30 96.78 297.05 96.94 297.80 C 98.74 297.74 100.54 297.70 102.35 297.66 C 102.79 298.03 103.68 298.78 104.13 299.16 C 104.46 298.73 105.12 297.88 105.45 297.46 C 107.38 296.49 111.68 298.88 111.87 296.12 C 108.20 292.69 103.18 292.13 98.39 292.82 M 87.05 296.11 C 86.90 299.32 90.87 298.56 92.94 298.34 C 91.57 296.42 89.24 296.19 87.05 296.11 M 114.19 296.20 C 114.22 296.75 114.29 297.85 114.33 298.40 C 115.60 298.32 116.89 298.24 118.17 298.16 C 118.28 297.72 118.50 296.84 118.61 296.40 C 117.13 296.32 115.66 296.25 114.19 296.20 M 280.32 315.42 C 280.18 315.79 279.90 316.54 279.76 316.91 C 281.69 319.84 283.73 313.46 280.32 315.42 Z" />
<path fill="#0b70a4" opacity="1.00" d=" M 281.88 19.32 C 308.93 26.58 334.35 39.53 356.77 56.27 C 371.31 67.34 384.23 80.45 395.63 94.71 C 394.42 95.54 393.21 96.35 392.00 97.16 C 393.82 98.42 396.01 98.61 398.15 98.68 L 397.56 98.70 C 394.67 98.98 391.69 99.30 389.21 100.93 C 389.40 101.71 389.77 103.27 389.95 104.05 C 388.75 104.28 387.56 104.52 386.38 104.75 C 386.50 105.76 386.63 106.76 386.77 107.77 C 388.84 107.64 390.90 107.88 392.89 108.51 C 392.47 109.38 392.06 110.25 391.65 111.12 C 394.93 111.94 398.30 111.68 401.61 111.20 C 399.02 109.13 396.85 106.56 396.68 103.09 C 397.63 102.14 398.58 101.18 399.54 100.21 C 403.35 104.83 406.79 109.84 409.45 115.21 C 409.11 115.57 408.42 116.30 408.08 116.67 C 408.63 117.51 409.23 118.34 409.81 119.17 C 408.62 119.73 407.44 120.30 406.27 120.88 C 405.88 117.60 402.64 119.23 400.92 120.33 C 397.91 119.66 395.16 120.83 392.61 122.30 C 392.66 121.40 392.76 119.61 392.81 118.71 C 391.71 119.26 390.61 119.77 389.49 120.26 C 386.64 120.91 383.96 122.07 381.28 123.19 C 380.57 122.06 379.87 120.92 379.29 119.72 C 366.63 90.45 346.51 64.59 321.77 44.53 C 309.68 34.34 295.82 26.60 281.88 19.32 Z" />
<path fill="#0b70a4" opacity="1.00" d=" M 337.76 30.04 C 339.16 30.40 340.55 30.79 341.90 31.30 C 363.45 40.50 383.86 52.47 402.02 67.33 C 408.24 72.18 413.84 77.76 419.58 83.16 C 416.77 83.94 413.85 84.36 410.95 83.97 C 410.58 84.35 409.85 85.09 409.48 85.47 C 407.56 85.88 405.64 86.27 403.78 86.87 C 391.52 71.18 376.92 57.43 361.07 45.41 C 353.76 39.62 345.65 34.97 337.76 30.04 Z" />
<path fill="#0b70a4" opacity="1.00" d=" M 192.07 79.15 C 192.32 76.30 195.82 75.50 196.82 78.53 C 195.27 78.93 193.69 79.44 192.07 79.15 Z" />
<path fill="#0b70a4" opacity="1.00" d=" M 409.91 89.90 C 413.61 88.93 417.28 87.86 420.97 86.84 C 421.44 86.78 422.38 86.66 422.85 86.59 C 427.30 91.26 431.68 96.01 435.64 101.11 C 433.73 101.09 431.83 101.16 429.92 101.17 C 429.34 105.24 426.31 107.84 423.17 110.10 C 423.80 110.60 425.05 111.60 425.68 112.11 C 425.19 112.92 424.21 114.54 423.72 115.36 C 424.40 115.73 425.76 116.48 426.44 116.85 C 427.38 118.13 428.30 119.43 429.33 120.66 C 427.35 122.74 425.49 119.45 424.42 118.02 C 419.88 109.02 414.11 100.71 408.22 92.55 C 408.82 91.69 409.36 90.79 409.91 89.90 Z" />
<path fill="#0b70a4" opacity="1.00" d=" M 437.06 107.09 C 437.93 106.45 438.80 105.79 439.65 105.12 L 439.75 107.16 C 440.34 108.69 441.29 110.03 442.24 111.36 C 441.73 112.59 441.20 113.82 440.66 115.04 C 440.99 116.20 441.33 117.36 441.69 118.52 C 444.88 118.37 449.07 117.41 450.80 120.99 C 450.09 122.81 450.38 124.31 452.16 125.29 C 451.59 125.06 450.43 124.61 449.86 124.39 C 449.77 122.95 449.93 121.39 449.06 120.13 C 447.07 118.32 444.23 119.29 442.34 120.71 C 442.66 121.50 443.30 123.10 443.62 123.89 C 441.75 126.28 439.59 128.40 437.08 130.10 C 434.96 129.64 432.37 130.17 430.75 128.44 C 432.18 128.63 433.60 128.89 435.02 129.17 C 437.37 126.70 440.05 124.38 441.14 121.03 C 440.34 120.35 439.54 119.67 438.74 119.00 C 438.67 116.32 439.05 113.66 439.34 110.99 C 438.81 109.57 437.86 108.36 437.06 107.09 Z" />
<path fill="#0b70a4" opacity="1.00" d=" M 312.71 138.67 C 311.90 136.05 313.95 134.16 315.57 132.44 C 317.69 133.14 321.40 132.41 321.84 135.37 C 318.40 138.57 314.55 141.31 311.36 144.75 C 312.18 147.27 312.41 149.91 312.58 152.54 C 313.76 154.02 315.61 154.80 317.10 155.95 C 321.33 155.31 325.40 153.89 329.63 153.25 C 329.99 153.69 330.71 154.56 331.06 155.00 C 329.80 155.23 328.68 155.76 327.89 156.79 C 324.17 156.24 320.37 156.35 316.93 158.03 C 317.34 159.67 317.73 161.49 319.38 162.37 C 319.39 163.18 319.42 164.81 319.43 165.62 C 317.51 166.22 316.62 164.22 315.50 163.11 C 310.95 163.41 310.53 169.09 311.72 172.48 C 309.24 171.79 308.24 174.15 306.41 175.13 C 305.99 174.61 305.15 173.57 304.73 173.05 C 301.34 174.00 298.10 175.42 294.81 176.66 C 293.01 174.53 290.59 174.45 288.29 175.82 C 287.27 175.33 286.25 174.85 285.23 174.38 C 284.68 173.64 284.14 172.90 283.59 172.17 C 284.21 171.41 285.45 169.89 286.07 169.13 C 286.65 170.17 287.19 171.23 287.72 172.31 C 288.26 172.53 289.35 172.98 289.89 173.20 C 290.72 170.81 293.31 171.97 295.18 171.85 C 295.29 171.26 295.50 170.07 295.61 169.47 C 296.82 169.40 298.04 169.34 299.26 169.29 C 300.92 166.61 301.57 163.47 301.57 160.34 C 304.29 159.56 306.10 157.44 307.51 155.11 C 306.04 153.96 304.52 152.87 303.04 151.74 C 302.14 150.02 303.23 148.10 303.48 146.35 C 305.92 142.96 310.40 142.11 312.71 138.67 Z" />
<path fill="#0b70a4" opacity="1.00" d=" M 345.09 201.62 C 348.72 200.33 352.40 199.18 356.09 198.08 C 355.39 198.32 353.98 198.80 353.28 199.04 C 353.32 199.72 353.40 201.07 353.44 201.74 C 352.41 202.65 351.34 203.51 350.32 204.42 C 354.26 206.75 357.87 209.50 361.56 212.21 C 361.96 213.48 362.49 215.34 360.92 216.05 C 355.93 217.48 350.52 216.47 346.17 213.64 C 342.58 213.04 339.21 214.37 336.27 216.33 C 333.26 216.02 329.80 216.00 328.19 212.92 C 329.40 211.09 330.54 209.19 330.99 207.01 C 333.43 205.04 334.12 201.65 337.09 200.18 C 338.49 201.32 340.11 202.08 341.99 202.02 C 341.32 202.51 339.98 203.48 339.31 203.96 C 341.07 204.27 342.26 205.24 342.45 207.10 C 344.88 206.24 347.37 205.59 349.87 204.94 C 350.71 202.61 347.48 203.81 346.33 203.34 C 345.89 202.78 345.48 202.21 345.09 201.62 Z" />
<path fill="#0b70a4" opacity="1.00" d=" M 375.88 206.08 C 377.70 201.95 382.62 201.03 386.18 198.87 C 385.85 201.36 387.20 206.09 383.32 206.04 C 387.47 209.16 385.00 214.60 385.24 218.93 C 381.55 217.50 380.29 213.44 377.52 210.91 C 377.56 210.26 377.64 208.96 377.68 208.31 C 377.08 207.56 376.48 206.82 375.88 206.08 Z" />
<path fill="#0b70a4" opacity="1.00" d=" M 290.71 207.13 C 290.65 205.32 290.63 203.44 292.96 203.48 C 293.20 204.20 293.69 205.66 293.94 206.39 C 294.44 206.03 295.44 205.33 295.94 204.97 C 296.82 206.67 297.20 209.04 299.20 209.81 C 302.34 211.02 305.22 212.95 307.60 215.32 C 307.57 216.61 307.49 217.90 307.35 219.19 C 309.85 222.11 312.31 225.24 312.95 229.15 C 313.94 229.59 314.96 229.98 316.00 230.32 C 316.69 228.45 318.01 227.05 319.78 226.13 C 317.48 224.34 316.82 221.58 315.81 218.99 C 316.95 220.31 318.32 221.03 320.00 220.09 C 319.78 219.50 319.33 218.32 319.11 217.73 C 321.34 217.49 326.05 217.68 323.82 221.10 C 325.83 222.01 326.36 223.62 324.55 225.16 C 325.00 225.48 325.90 226.11 326.36 226.43 C 326.71 229.86 330.47 229.78 332.81 231.24 C 335.15 232.90 335.73 228.11 337.75 229.99 C 339.85 232.08 343.02 232.29 345.15 230.11 C 345.78 230.20 347.06 230.39 347.69 230.48 C 348.56 235.42 345.81 239.63 344.17 244.05 C 342.90 245.31 340.84 244.56 339.25 244.76 C 336.98 242.78 333.93 243.89 331.81 245.51 C 327.08 243.91 321.96 243.66 317.43 241.52 C 314.34 238.26 306.89 240.85 308.76 245.87 C 308.31 246.23 307.41 246.95 306.97 247.31 C 304.64 245.49 301.85 244.52 298.94 244.21 C 298.46 243.32 297.99 242.43 297.53 241.54 C 295.76 240.68 293.88 240.10 291.91 240.09 C 289.30 240.03 287.25 238.19 284.98 237.14 C 286.84 235.48 288.82 233.24 286.38 231.03 C 286.74 230.40 287.46 229.14 287.81 228.52 C 285.76 228.95 283.96 226.69 282.02 227.99 C 279.91 229.18 277.52 228.29 275.26 228.18 C 274.72 228.46 273.64 229.02 273.10 229.30 C 266.81 227.77 260.32 230.50 254.89 233.59 C 252.11 232.77 247.89 234.80 246.76 231.15 C 249.62 228.91 254.37 231.39 256.23 227.96 C 256.68 227.78 257.59 227.43 258.04 227.25 C 258.61 225.77 259.65 224.64 260.96 223.80 C 260.54 223.33 259.69 222.41 259.27 221.94 C 260.29 220.40 261.45 218.95 262.66 217.55 C 264.56 216.82 266.38 215.90 268.16 214.91 C 268.21 213.28 268.07 211.60 268.85 210.10 C 270.92 210.55 272.94 211.28 275.06 211.48 C 277.44 210.19 279.65 208.60 281.95 207.17 C 284.69 207.55 285.21 210.43 286.59 212.33 C 290.41 216.57 296.89 217.72 299.67 223.02 C 297.85 227.43 292.02 223.16 290.00 226.80 C 292.06 227.79 294.10 228.88 296.25 229.68 C 298.06 230.37 297.88 227.67 297.67 226.64 C 298.20 226.55 299.26 226.37 299.79 226.27 C 300.62 224.84 302.59 223.79 302.53 222.01 C 302.16 221.36 301.41 220.05 301.04 219.40 C 302.84 219.37 304.34 220.46 305.95 221.09 C 306.11 217.57 301.77 217.32 300.04 215.03 C 298.87 213.60 296.30 214.39 295.43 212.55 C 294.42 210.28 292.81 208.44 290.71 207.13 M 280.38 212.89 C 280.86 214.19 281.36 215.50 281.88 216.79 C 281.38 216.95 280.40 217.26 279.91 217.42 C 280.18 219.49 280.53 221.55 280.74 223.64 C 281.99 222.94 284.57 223.06 284.35 221.00 C 284.54 217.58 282.76 214.39 283.70 210.88 C 282.59 211.54 281.48 212.22 280.38 212.89 M 317.42 232.45 C 316.82 234.07 318.74 234.17 319.82 234.53 C 321.64 234.93 324.32 235.53 325.37 233.45 C 322.73 233.07 320.10 232.38 317.42 232.45 M 338.47 234.88 C 341.03 236.72 344.15 234.78 345.14 232.15 C 342.79 232.64 339.81 232.48 338.47 234.88 Z" />
<path fill="#0b70a4" opacity="1.00" d=" M 382.73 219.56 C 383.37 219.47 384.63 219.29 385.27 219.21 C 384.77 222.07 384.41 224.96 384.18 227.86 C 382.90 227.41 381.62 226.96 380.34 226.51 C 380.93 224.13 381.88 221.85 382.73 219.56 Z" />
<path fill="#0b70a4" opacity="1.00" d=" M 339.98 249.04 C 341.12 251.04 342.06 253.22 343.91 254.71 C 344.64 253.87 345.87 252.38 346.71 253.97 C 348.73 256.61 350.43 259.48 351.78 262.53 C 352.93 263.92 354.63 264.91 355.33 266.66 C 356.11 268.64 355.42 271.22 357.19 272.77 C 358.59 274.05 360.27 275.14 360.96 277.02 C 361.95 279.62 364.60 281.21 365.25 283.95 C 365.34 286.11 364.41 288.09 363.31 289.89 C 361.58 288.04 359.57 286.47 357.30 285.33 C 356.30 282.27 356.08 278.31 352.39 277.30 C 351.99 273.14 351.89 268.48 347.91 266.03 C 348.06 263.03 345.49 261.00 344.49 258.38 C 343.15 255.18 341.34 252.22 339.98 249.04 Z" />
<path fill="#0b70a4" opacity="1.00" d=" M 387.99 254.60 C 390.03 256.07 392.30 257.18 394.73 257.85 C 396.11 257.11 397.51 256.40 398.93 255.72 C 399.67 257.05 400.22 258.55 401.29 259.67 C 408.32 261.93 415.87 261.59 423.10 260.59 C 425.34 263.84 428.23 266.94 432.27 267.78 C 431.44 267.82 429.80 267.91 428.98 267.96 C 430.25 270.05 432.05 271.74 434.01 273.19 C 435.14 272.77 436.27 272.35 437.41 271.93 C 436.57 277.60 434.99 283.12 433.40 288.61 C 423.05 323.60 404.22 356.19 378.19 381.85 C 379.48 377.58 381.06 373.39 381.90 368.99 C 382.27 366.82 383.41 364.92 384.60 363.11 C 383.81 359.97 383.76 356.11 380.43 354.49 C 380.24 355.31 379.85 356.96 379.65 357.78 C 379.21 357.95 378.31 358.28 377.86 358.45 C 377.15 361.72 374.24 363.68 371.14 364.34 C 368.85 364.60 368.52 367.09 367.68 368.78 C 368.26 370.78 369.00 372.81 368.93 374.93 C 368.36 376.80 366.80 378.18 366.18 380.04 C 366.90 383.42 366.86 387.58 370.03 389.73 C 357.26 401.09 343.30 411.16 328.15 419.10 C 311.01 427.98 292.94 435.23 274.08 439.47 C 246.30 445.38 217.38 446.14 189.38 441.33 C 174.46 438.67 159.96 434.14 145.89 428.57 C 146.74 427.41 147.68 426.31 148.37 425.04 C 148.54 422.93 148.23 420.81 148.53 418.71 C 151.01 415.39 155.11 413.76 158.86 412.33 C 161.75 412.30 164.70 411.96 166.55 409.47 C 167.49 406.12 170.43 403.53 170.27 399.89 C 170.59 399.46 171.21 398.60 171.53 398.17 C 171.55 397.72 171.59 396.82 171.61 396.37 C 201.20 400.80 231.95 398.11 260.29 388.50 C 271.10 384.90 281.56 380.34 291.64 375.06 C 292.77 377.07 293.93 379.07 295.09 381.07 C 295.52 385.62 295.98 390.28 297.56 394.58 C 300.47 398.32 302.82 402.53 304.23 407.06 C 304.26 409.10 304.17 411.15 304.82 413.13 C 306.38 413.68 307.85 415.27 309.61 414.60 C 313.10 413.76 316.60 412.48 320.24 413.04 C 327.85 413.06 332.67 406.34 336.91 400.95 C 339.69 398.03 342.45 394.03 340.80 389.84 C 342.57 388.91 344.41 388.12 346.14 387.13 C 348.42 386.12 347.31 383.12 347.74 381.17 C 346.97 379.13 346.36 377.05 345.66 374.99 C 347.53 373.44 349.28 371.76 351.06 370.12 C 353.36 367.92 357.02 367.71 358.97 365.08 C 362.36 361.09 358.99 355.70 360.12 351.06 C 357.02 348.91 357.10 345.22 357.58 341.87 C 357.14 341.37 356.25 340.37 355.80 339.87 C 357.72 332.90 363.36 328.18 367.93 322.94 C 372.67 319.81 377.02 316.03 380.02 311.14 C 382.66 305.82 386.43 300.82 386.47 294.61 C 381.08 296.11 375.52 296.79 370.12 298.26 C 371.25 296.06 372.42 293.88 373.61 291.71 C 375.90 291.02 378.15 290.18 380.41 289.36 C 383.12 287.12 387.25 287.43 389.39 284.43 C 390.85 282.42 393.51 282.53 395.71 282.11 C 397.35 279.57 400.22 278.37 402.68 276.80 C 402.73 276.19 402.84 274.96 402.90 274.35 C 404.75 272.59 406.38 270.61 407.87 268.54 C 406.15 266.32 403.81 264.84 401.29 263.69 C 398.65 262.76 399.42 259.56 399.03 257.42 C 397.00 259.31 395.16 261.39 393.03 263.18 C 391.05 263.47 389.05 263.40 387.06 263.46 C 387.28 260.50 387.51 257.53 387.99 254.60 Z" />
<path fill="#0b70a4" opacity="1.00" d=" M 482.72 269.79 C 483.12 269.15 483.91 267.87 484.30 267.22 C 485.72 269.93 486.59 273.04 489.11 275.00 C 487.67 290.98 485.08 306.92 480.25 322.24 C 470.29 354.58 454.03 385.17 431.70 410.67 C 408.77 437.19 380.15 458.88 347.97 472.89 C 331.41 480.03 314.24 486.02 296.43 489.15 C 269.35 494.03 241.46 494.54 214.25 490.35 C 181.83 485.12 150.51 472.95 123.01 455.03 C 126.03 454.51 127.14 451.47 128.56 449.18 C 127.44 447.04 126.37 444.88 125.20 442.78 C 127.97 443.76 131.05 444.86 133.97 443.87 C 135.96 442.16 137.48 439.97 139.00 437.86 C 154.32 444.36 170.32 449.41 186.73 452.24 C 232.08 460.38 280.03 454.81 321.75 435.04 C 366.47 414.21 404.03 378.45 426.85 334.70 C 434.03 321.34 439.35 307.09 444.03 292.71 C 446.05 296.30 447.29 300.26 449.09 303.95 C 449.93 305.41 451.74 304.81 452.52 303.60 C 457.62 299.40 458.02 292.20 457.55 286.11 C 463.28 283.61 466.77 278.06 472.07 274.94 C 473.56 274.24 473.97 272.56 474.67 271.22 C 475.07 271.03 475.87 270.65 476.27 270.46 C 478.44 270.50 480.59 270.22 482.72 269.79 M 455.70 302.68 C 456.09 305.37 455.86 308.38 457.84 310.53 C 459.48 309.78 461.84 309.25 461.96 307.02 C 461.05 304.39 459.32 302.17 457.82 299.87 C 457.10 300.80 456.40 301.74 455.70 302.68 Z" />
<path fill="#0b70a4" opacity="1.00" d=" M 26.18 304.69 C 25.22 302.22 23.82 299.66 24.71 296.94 C 25.28 297.18 26.41 297.66 26.98 297.90 C 35.13 311.43 44.00 324.66 55.04 336.03 C 59.90 341.44 65.28 346.34 70.65 351.24 C 69.93 352.95 69.14 354.64 68.26 356.28 C 68.27 357.68 68.28 359.09 68.29 360.50 C 69.07 360.50 70.63 360.50 71.41 360.50 C 69.85 361.90 68.28 363.31 66.77 364.79 C 67.28 366.11 67.63 367.50 67.78 368.93 C 71.29 371.30 73.37 375.17 75.13 378.91 L 75.22 380.36 C 53.48 359.22 37.15 332.87 26.18 304.69 Z" />
<path fill="#0b70a4" opacity="1.00" d=" M 42.75 304.24 C 44.19 303.61 45.63 302.98 47.07 302.35 C 49.71 303.84 51.79 306.05 54.19 307.85 C 57.21 309.14 60.47 309.73 63.62 310.64 C 65.89 312.75 68.35 314.89 69.00 318.08 C 70.92 319.50 73.42 320.10 74.87 322.19 C 77.77 323.06 80.37 324.73 83.34 325.36 C 83.28 324.56 83.16 322.95 83.10 322.15 C 84.04 321.67 85.00 321.24 85.98 320.85 C 86.50 322.08 87.01 323.32 87.49 324.57 C 84.66 325.36 81.19 326.11 80.74 329.59 C 79.85 330.46 78.95 331.34 78.05 332.22 C 77.76 332.27 77.16 332.38 76.86 332.44 C 76.48 333.51 76.21 334.62 75.85 335.71 C 76.60 337.89 76.89 340.18 76.89 342.48 C 73.18 339.78 69.90 336.57 66.65 333.36 C 57.85 324.40 49.46 314.90 42.75 304.24 Z" />
<path fill="#0b70a4" opacity="1.00" d=" M 90.67 330.42 C 89.87 329.27 89.97 328.29 90.98 327.48 C 93.63 327.21 93.17 332.60 90.67 330.42 Z" />
<path fill="#0b70a4" opacity="1.00" d=" M 29.13 337.92 C 31.91 341.62 33.70 345.91 36.19 349.80 C 50.81 373.09 69.47 393.97 91.55 410.43 C 94.10 412.12 93.35 415.62 93.57 418.24 C 93.41 422.20 91.46 425.82 91.39 429.80 L 90.97 430.83 C 89.84 428.79 88.24 427.08 86.54 425.52 C 80.96 420.39 76.15 414.53 70.98 409.00 C 56.08 391.72 44.03 372.09 34.55 351.37 C 32.65 346.92 29.92 342.76 29.13 337.92 Z" />
</g>
<g id="#feffffff">
<path fill="#feffff" opacity="1.00" d=" M 154.69 56.08 C 156.65 55.03 158.66 53.86 160.94 53.71 C 164.71 53.24 168.21 55.08 171.88 55.64 C 171.20 56.95 170.53 58.27 169.86 59.59 L 170.57 59.93 C 170.28 56.26 173.80 58.06 174.89 59.94 C 175.90 58.52 176.76 56.99 177.82 55.61 C 179.28 54.82 181.03 55.38 182.62 55.33 C 182.83 56.66 183.15 57.96 183.71 59.19 C 183.56 59.54 183.25 60.24 183.09 60.60 C 183.73 61.73 184.37 62.87 185.01 64.01 C 184.78 64.44 184.31 65.30 184.07 65.73 C 186.50 67.62 185.77 70.96 187.80 73.11 C 189.78 71.64 191.19 71.94 192.03 73.99 L 189.91 74.70 C 191.41 74.46 192.84 73.94 194.19 73.23 C 196.07 75.01 197.14 77.54 199.51 78.82 C 198.75 78.85 197.22 78.91 196.45 78.93 C 197.66 79.86 199.00 80.50 200.48 80.83 C 200.19 82.34 199.06 83.22 197.65 83.66 C 199.98 83.75 202.32 83.91 204.61 84.41 C 204.22 85.10 203.43 86.49 203.03 87.18 C 204.04 88.04 205.00 88.94 205.87 89.95 C 204.43 91.03 202.93 92.04 201.37 92.94 C 201.38 93.08 201.41 93.37 201.43 93.51 C 202.32 93.18 203.24 92.89 204.17 92.64 C 203.85 95.12 207.21 94.69 207.64 96.92 C 206.54 96.81 204.34 96.60 203.24 96.49 C 203.54 96.68 204.14 97.06 204.45 97.25 C 206.63 97.17 208.70 97.87 210.78 98.46 C 212.04 99.97 213.38 101.43 214.59 102.98 C 212.72 103.38 210.93 104.32 208.98 104.31 C 206.94 103.74 205.41 101.32 203.10 102.23 C 203.97 103.07 204.75 104.01 205.63 104.85 C 204.21 106.07 203.16 107.61 202.18 109.18 C 203.37 107.98 204.53 106.75 205.74 105.58 C 208.92 105.84 211.84 104.67 214.81 103.78 C 214.02 105.23 213.06 106.58 211.92 107.78 C 211.16 110.92 209.80 114.19 206.69 115.65 C 203.44 117.09 201.11 121.02 197.19 120.24 C 196.23 122.10 194.73 123.83 194.81 126.05 C 194.77 128.05 194.11 131.27 191.37 130.46 C 191.22 130.95 190.94 131.93 190.80 132.42 C 188.79 133.38 186.82 134.44 184.87 135.52 C 185.01 134.57 185.28 132.66 185.42 131.70 C 184.17 133.08 185.44 135.99 183.21 136.39 C 182.72 136.44 181.72 136.55 181.23 136.60 C 181.21 137.25 181.19 138.55 181.17 139.19 C 180.40 139.25 178.85 139.37 178.08 139.43 C 179.09 140.15 179.98 141.02 180.77 141.99 C 180.31 142.32 179.40 142.98 178.95 143.31 C 179.41 143.72 180.32 144.53 180.78 144.94 C 179.55 147.29 177.82 149.33 175.99 151.22 C 176.65 152.20 177.31 153.18 177.95 154.16 C 176.36 157.09 176.45 160.37 176.26 163.59 C 175.03 163.58 173.82 163.56 172.60 163.55 C 171.44 164.34 170.14 164.68 168.69 164.55 C 168.51 162.87 167.52 162.17 165.74 162.45 C 166.02 161.88 166.58 160.74 166.86 160.17 C 165.77 160.53 164.56 160.76 163.86 161.77 C 162.19 161.37 160.58 161.73 159.00 162.27 C 157.69 160.60 156.01 159.22 153.74 159.63 C 152.98 157.76 152.28 155.65 149.86 155.66 C 149.72 153.11 147.62 151.47 145.58 150.32 C 145.51 148.74 145.15 147.35 143.27 147.32 C 143.42 146.53 143.71 144.95 143.85 144.15 C 142.08 141.81 139.27 140.24 138.57 137.20 C 139.18 136.85 140.38 136.15 140.99 135.81 C 140.19 135.22 139.40 134.64 138.60 134.06 C 138.31 131.49 140.55 129.76 140.95 127.35 C 141.86 129.95 144.58 129.78 146.70 130.78 C 145.08 129.64 143.65 128.27 142.21 126.92 C 145.29 127.67 145.97 124.99 146.77 122.88 C 145.73 122.43 144.90 121.72 144.27 120.77 C 145.59 124.08 141.16 123.99 139.09 124.74 C 138.15 123.85 137.20 122.98 136.23 122.13 C 136.58 120.89 137.15 119.75 137.95 118.73 C 137.78 118.26 137.44 117.32 137.28 116.85 C 140.31 115.77 143.15 117.32 146.08 117.89 C 144.73 115.76 142.39 114.62 140.46 113.12 C 140.54 113.91 140.71 115.49 140.80 116.28 C 138.94 115.18 136.91 114.41 134.79 114.01 C 135.43 112.63 136.05 111.23 136.71 109.86 C 136.30 109.58 135.49 109.02 135.09 108.74 C 135.86 108.73 137.41 108.72 138.19 108.71 C 135.33 107.08 137.04 102.63 133.59 101.64 C 133.89 101.24 134.48 100.44 134.78 100.04 C 131.51 96.95 129.67 90.90 124.13 91.71 C 120.99 91.54 116.17 93.58 114.35 90.06 C 114.43 89.61 114.59 88.72 114.67 88.27 C 113.46 88.00 112.97 87.31 113.21 86.19 C 114.45 85.60 115.78 85.43 117.20 85.70 C 116.08 84.20 114.67 82.98 113.21 81.83 C 112.70 80.46 114.21 79.68 114.92 78.81 C 118.84 78.58 122.45 76.86 126.34 76.42 C 126.74 75.53 127.15 74.64 127.56 73.76 C 126.90 73.81 125.57 73.91 124.91 73.96 C 125.66 70.35 129.67 68.13 133.18 68.24 C 133.66 64.27 137.97 63.77 141.04 62.66 C 142.40 63.15 144.20 63.24 144.67 64.89 C 143.66 62.75 145.92 60.72 147.56 62.77 C 147.96 61.54 148.44 60.31 148.45 58.99 C 149.63 58.51 150.81 58.04 151.99 57.57 C 152.86 58.02 153.73 58.46 154.60 58.89 C 154.62 58.19 154.67 56.78 154.69 56.08 M 164.30 60.19 C 163.69 61.58 164.13 62.01 165.60 61.47 C 166.20 60.07 165.77 59.65 164.30 60.19 M 151.24 62.22 C 149.89 62.00 148.52 64.09 150.19 64.69 C 151.63 65.34 153.00 62.52 151.24 62.22 M 192.07 79.15 C 193.69 79.44 195.27 78.93 196.82 78.53 C 195.82 75.50 192.32 76.30 192.07 79.15 M 196.25 94.28 C 197.96 95.43 201.31 96.10 200.64 98.87 C 200.84 98.23 201.05 97.60 201.26 96.97 C 201.02 96.12 200.78 95.27 200.53 94.43 C 199.86 94.28 198.52 93.98 197.85 93.83 L 198.92 91.92 C 198.02 92.70 197.13 93.49 196.25 94.28 M 199.25 105.36 C 198.36 106.60 198.58 107.32 199.91 107.52 C 200.79 106.29 200.58 105.57 199.25 105.36 M 147.37 144.17 C 146.35 144.37 144.86 146.74 146.57 146.92 C 147.88 146.90 149.74 143.43 147.37 144.17 Z" />
<path fill="#feffff" opacity="1.00" d=" M 304.62 66.28 C 304.52 63.69 307.28 62.37 308.69 60.54 C 309.11 61.03 309.96 61.99 310.38 62.47 C 311.80 62.57 313.22 62.70 314.65 62.84 C 315.34 62.07 316.04 61.30 316.75 60.55 C 316.77 61.35 316.80 62.95 316.82 63.75 C 317.84 62.96 318.87 62.18 319.91 61.41 C 320.39 61.85 321.33 62.74 321.80 63.19 C 323.38 63.15 327.55 62.73 326.58 65.43 C 322.25 69.32 316.13 70.49 310.51 69.27 C 311.18 68.13 312.13 67.19 313.01 66.21 C 310.22 66.41 307.42 66.34 304.62 66.28 Z" />
<path fill="#feffff" opacity="1.00" d=" M 91.72 63.73 C 94.27 64.26 96.97 64.38 99.30 65.66 C 99.74 62.89 103.11 64.41 104.87 64.92 C 107.09 61.94 111.03 65.79 114.05 65.43 C 119.15 64.97 124.13 66.28 128.89 67.98 C 127.06 71.54 122.57 71.91 119.07 71.14 C 117.52 71.19 114.27 70.88 114.12 72.94 C 115.96 74.45 119.96 70.80 120.16 74.81 C 115.70 76.02 112.05 79.06 107.67 80.46 C 107.70 81.07 107.75 82.30 107.78 82.91 C 104.62 84.56 101.14 84.09 97.86 83.13 C 98.47 83.69 99.69 84.81 100.30 85.37 C 97.44 86.76 94.24 85.37 91.24 85.36 C 91.20 85.63 91.13 86.15 91.10 86.42 C 93.40 86.36 96.11 86.39 96.86 89.09 C 95.03 90.69 93.66 92.69 92.05 94.48 C 90.84 94.47 89.63 94.39 88.44 94.22 C 88.36 94.91 88.19 96.29 88.11 96.98 C 85.19 98.74 81.78 95.60 78.98 97.29 C 81.91 98.14 84.96 98.40 87.98 98.72 C 90.34 98.44 89.51 101.56 87.93 101.91 C 85.89 102.47 83.82 102.91 81.81 103.59 C 80.88 102.77 79.95 101.95 79.02 101.14 C 77.33 103.13 74.99 102.03 73.03 101.20 C 70.82 103.99 66.83 101.97 63.92 101.68 C 62.61 102.26 61.33 102.18 60.08 101.46 C 59.43 102.83 58.33 103.65 56.77 103.90 C 58.52 104.26 60.38 104.60 61.40 106.24 C 63.65 105.55 65.89 105.27 67.89 106.77 C 72.76 103.47 79.28 103.71 84.18 106.80 C 86.30 107.35 83.86 109.30 82.93 109.55 C 82.86 110.10 82.73 111.21 82.66 111.77 C 80.15 111.73 77.06 112.73 75.40 110.25 C 73.99 112.46 71.15 111.56 69.05 111.21 C 66.62 111.92 63.38 112.77 61.95 109.96 C 61.30 110.64 60.65 111.32 60.00 112.00 C 58.91 111.55 57.83 111.07 56.76 110.56 C 56.10 110.62 54.76 110.75 54.10 110.81 C 53.67 109.81 53.25 108.80 52.82 107.80 C 54.90 105.08 50.58 103.78 51.24 101.19 C 54.00 100.02 57.04 100.71 59.62 101.99 C 59.82 101.28 60.22 99.84 60.42 99.12 C 61.91 98.58 63.41 98.04 64.90 97.51 C 64.29 96.54 63.41 95.65 63.33 94.45 C 65.43 94.14 67.84 94.06 69.53 95.59 C 71.08 96.85 73.70 98.28 75.36 96.42 C 74.45 96.37 72.62 96.27 71.70 96.22 C 71.38 95.27 71.07 94.32 70.75 93.36 C 69.14 93.12 67.53 92.86 65.92 92.61 C 66.53 91.12 66.92 88.74 68.97 88.69 C 72.13 87.81 75.07 89.78 78.18 89.50 C 74.82 88.31 72.23 85.84 69.09 84.32 C 68.61 83.72 67.63 82.52 67.15 81.92 C 69.38 80.37 72.40 81.41 74.95 81.43 C 76.75 82.34 78.23 83.77 79.95 84.82 C 79.56 83.73 78.74 83.12 77.49 82.98 C 78.99 78.45 84.38 79.32 88.09 78.37 C 84.77 75.43 80.61 79.57 76.97 79.17 C 74.48 78.24 71.93 79.17 69.47 79.70 C 72.38 76.26 75.59 73.09 78.97 70.11 C 80.34 70.33 81.71 70.54 83.09 70.73 C 82.31 70.30 80.75 69.45 79.97 69.02 C 81.75 67.34 83.38 65.15 85.96 64.76 C 88.48 64.54 90.84 65.72 92.95 66.96 C 92.64 66.16 92.03 64.54 91.72 63.73 Z" />
<path fill="#feffff" opacity="1.00" d=" M 285.89 66.83 C 287.82 65.48 290.16 65.40 292.43 65.29 C 292.60 65.95 292.94 67.28 293.11 67.95 C 294.02 66.98 294.94 66.04 295.88 65.09 C 297.03 66.48 298.19 67.86 299.42 69.18 C 299.05 67.57 297.18 64.99 299.64 64.19 C 300.63 64.39 302.59 64.78 303.57 64.98 C 303.58 65.58 303.61 66.78 303.62 67.38 C 306.32 66.71 308.31 69.43 310.71 70.26 C 311.94 72.59 308.59 72.26 307.33 73.17 C 306.39 75.16 306.09 77.64 304.05 78.88 C 302.74 79.65 302.63 81.19 302.30 82.51 C 299.47 83.18 297.15 80.93 295.20 79.22 L 295.36 77.63 C 296.89 77.30 298.98 78.04 300.09 76.58 C 297.93 76.70 295.79 76.99 293.66 77.29 C 292.92 73.91 297.17 74.71 299.21 73.70 C 298.44 72.97 297.52 72.46 296.57 72.02 C 295.76 72.85 294.91 73.65 294.03 74.40 C 291.44 74.98 289.61 72.52 287.93 71.00 C 288.48 70.57 289.58 69.71 290.13 69.28 C 287.96 69.77 286.33 69.19 285.89 66.83 Z" />
<path fill="#feffff" opacity="1.00" d=" M 200.47 80.58 C 202.10 80.53 203.65 81.05 205.16 81.60 C 204.53 82.05 203.27 82.93 202.64 83.37 C 201.89 82.46 201.15 81.53 200.47 80.58 Z" />
<path fill="#feffff" opacity="1.00" d=" M 419.58 83.16 C 422.96 81.88 426.39 80.20 430.12 81.12 C 429.50 85.52 424.26 85.58 420.97 86.84 C 417.28 87.86 413.61 88.93 409.91 89.90 C 409.36 90.79 408.82 91.69 408.22 92.55 C 404.75 93.18 402.88 96.25 400.85 98.77 C 399.94 98.73 399.04 98.70 398.15 98.68 C 396.01 98.61 393.82 98.42 392.00 97.16 C 393.21 96.35 394.42 95.54 395.63 94.71 C 397.94 91.70 400.28 88.58 403.78 86.87 C 405.64 86.27 407.56 85.88 409.48 85.47 C 409.85 85.09 410.58 84.35 410.95 83.97 C 413.85 84.36 416.77 83.94 419.58 83.16 Z" />
<path fill="#feffff" opacity="1.00" d=" M 65.30 84.02 C 65.60 84.38 66.21 85.09 66.52 85.45 C 67.97 85.68 69.66 85.49 70.82 86.59 C 68.35 87.31 65.88 88.21 64.26 90.33 C 63.80 90.25 62.87 90.08 62.40 90.00 C 62.38 90.54 62.33 91.63 62.31 92.17 L 60.86 92.59 C 60.49 92.30 59.75 91.71 59.38 91.42 C 60.65 88.52 63.44 86.56 65.30 84.02 Z" />
<path fill="#feffff" opacity="1.00" d=" M 389.21 100.93 C 391.69 99.30 394.67 98.98 397.56 98.70 C 398.05 99.07 399.04 99.83 399.54 100.21 C 398.58 101.18 397.63 102.14 396.68 103.09 C 396.85 106.56 399.02 109.13 401.61 111.20 C 398.30 111.68 394.93 111.94 391.65 111.12 C 392.06 110.25 392.47 109.38 392.89 108.51 C 390.90 107.88 388.84 107.64 386.77 107.77 C 386.63 106.76 386.50 105.76 386.38 104.75 C 387.56 104.52 388.75 104.28 389.95 104.05 C 389.77 103.27 389.40 101.71 389.21 100.93 Z" />
<path fill="#feffff" opacity="1.00" d=" M 429.92 101.17 C 431.83 101.16 433.73 101.09 435.64 101.11 C 436.93 101.15 438.23 101.23 439.52 101.32 C 439.56 102.59 439.56 103.86 439.65 105.12 C 438.80 105.79 437.93 106.45 437.06 107.09 C 437.86 108.36 438.81 109.57 439.34 110.99 C 439.05 113.66 438.67 116.32 438.74 119.00 C 439.54 119.67 440.34 120.35 441.14 121.03 C 440.05 124.38 437.37 126.70 435.02 129.17 C 433.60 128.89 432.18 128.63 430.75 128.44 C 432.37 130.17 434.96 129.64 437.08 130.10 C 439.59 128.40 441.75 126.28 443.62 123.89 C 443.30 123.10 442.66 121.50 442.34 120.71 C 444.23 119.29 447.07 118.32 449.06 120.13 C 449.93 121.39 449.77 122.95 449.86 124.39 C 450.43 124.61 451.59 125.06 452.16 125.29 C 450.38 124.31 450.09 122.81 450.80 120.99 C 449.07 117.41 444.88 118.37 441.69 118.52 C 441.33 117.36 440.99 116.20 440.66 115.04 C 441.20 113.82 441.73 112.59 442.24 111.36 C 441.29 110.03 440.34 108.69 439.75 107.16 C 442.60 106.16 444.34 103.86 445.39 101.12 C 447.34 103.21 445.28 105.72 445.78 108.06 C 448.10 108.94 450.59 109.19 453.03 109.61 C 450.90 108.58 448.81 107.47 446.82 106.20 C 449.39 105.27 452.00 104.44 454.67 103.80 C 482.43 141.66 499.30 187.41 502.68 234.23 C 504.16 245.76 504.00 257.47 503.15 269.05 C 501.88 275.96 502.81 283.33 500.02 289.90 C 494.47 328.17 480.10 365.15 458.12 396.99 C 431.24 436.13 393.13 467.62 349.31 486.00 C 347.63 486.29 345.94 486.54 344.26 486.78 C 346.57 483.08 348.14 479.00 349.87 475.01 C 349.23 474.30 348.60 473.59 347.97 472.89 C 380.15 458.88 408.77 437.19 431.70 410.67 C 454.03 385.17 470.29 354.58 480.25 322.24 C 485.08 306.92 487.67 290.98 489.11 275.00 C 486.59 273.04 485.72 269.93 484.30 267.22 C 483.91 267.87 483.12 269.15 482.72 269.79 C 480.59 270.22 478.44 270.50 476.27 270.46 C 475.87 270.65 475.07 271.03 474.67 271.22 C 473.97 272.56 473.56 274.24 472.07 274.94 C 466.77 278.06 463.28 283.61 457.55 286.11 C 458.02 292.20 457.62 299.40 452.52 303.60 C 451.74 304.81 449.93 305.41 449.09 303.95 C 447.29 300.26 446.05 296.30 444.03 292.71 C 439.35 307.09 434.03 321.34 426.85 334.70 C 404.03 378.45 366.47 414.21 321.75 435.04 C 321.70 434.53 321.60 433.52 321.55 433.02 C 323.81 431.76 326.31 430.91 328.42 429.37 C 330.57 426.50 331.36 422.87 332.78 419.62 C 331.23 419.52 329.68 419.35 328.15 419.10 C 343.30 411.16 357.26 401.09 370.03 389.73 C 366.86 387.58 366.90 383.42 366.18 380.04 C 366.80 378.18 368.36 376.80 368.93 374.93 C 369.00 372.81 368.26 370.78 367.68 368.78 C 368.52 367.09 368.85 364.60 371.14 364.34 C 374.24 363.68 377.15 361.72 377.86 358.45 C 378.31 358.28 379.21 357.95 379.65 357.78 C 379.85 356.96 380.24 355.31 380.43 354.49 C 383.76 356.11 383.81 359.97 384.60 363.11 C 383.41 364.92 382.27 366.82 381.90 368.99 C 381.06 373.39 379.48 377.58 378.19 381.85 C 404.22 356.19 423.05 323.60 433.40 288.61 C 434.99 283.12 436.57 277.60 437.41 271.93 C 436.27 272.35 435.14 272.77 434.01 273.19 C 432.05 271.74 430.25 270.05 428.98 267.96 C 429.80 267.91 431.44 267.82 432.27 267.78 C 428.23 266.94 425.34 263.84 423.10 260.59 C 415.87 261.59 408.32 261.93 401.29 259.67 C 400.22 258.55 399.67 257.05 398.93 255.72 C 397.51 256.40 396.11 257.11 394.73 257.85 C 392.30 257.18 390.03 256.07 387.99 254.60 C 387.51 257.53 387.28 260.50 387.06 263.46 C 389.05 263.40 391.05 263.47 393.03 263.18 C 395.16 261.39 397.00 259.31 399.03 257.42 C 399.42 259.56 398.65 262.76 401.29 263.69 C 403.81 264.84 406.15 266.32 407.87 268.54 C 406.38 270.61 404.75 272.59 402.90 274.35 C 402.84 274.96 402.73 276.19 402.68 276.80 C 400.22 278.37 397.35 279.57 395.71 282.11 C 393.51 282.53 390.85 282.42 389.39 284.43 C 387.25 287.43 383.12 287.12 380.41 289.36 C 378.15 290.18 375.90 291.02 373.61 291.71 C 372.42 293.88 371.25 296.06 370.12 298.26 C 375.52 296.79 381.08 296.11 386.47 294.61 C 386.43 300.82 382.66 305.82 380.02 311.14 C 377.02 316.03 372.67 319.81 367.93 322.94 C 363.36 328.18 357.72 332.90 355.80 339.87 C 356.25 340.37 357.14 341.37 357.58 341.87 C 357.10 345.22 357.02 348.91 360.12 351.06 C 358.99 355.70 362.36 361.09 358.97 365.08 C 357.02 367.71 353.36 367.92 351.06 370.12 C 349.28 371.76 347.53 373.44 345.66 374.99 C 346.36 377.05 346.97 379.13 347.74 381.17 C 347.31 383.12 348.42 386.12 346.14 387.13 C 344.41 388.12 342.57 388.91 340.80 389.84 C 342.45 394.03 339.69 398.03 336.91 400.95 C 332.67 406.34 327.85 413.06 320.24 413.04 C 316.60 412.48 313.10 413.76 309.61 414.60 C 307.85 415.27 306.38 413.68 304.82 413.13 C 304.17 411.15 304.26 409.10 304.23 407.06 C 302.82 402.53 300.47 398.32 297.56 394.58 C 295.98 390.28 295.52 385.62 295.09 381.07 C 293.93 379.07 292.77 377.07 291.64 375.06 C 281.56 380.34 271.10 384.90 260.29 388.50 C 259.75 388.38 258.66 388.14 258.12 388.02 C 261.66 386.51 262.69 382.78 263.77 379.44 C 262.75 378.94 261.74 378.44 260.74 377.95 C 270.25 374.80 279.25 370.35 288.16 365.80 C 289.64 362.35 289.81 358.31 292.46 355.44 C 294.66 353.26 292.96 350.22 291.95 347.92 C 292.07 347.38 292.31 346.31 292.43 345.78 C 291.32 342.59 290.12 339.39 288.69 336.34 C 286.11 333.27 282.90 330.70 281.19 326.97 C 281.56 326.47 282.28 325.48 282.64 324.98 C 283.10 321.06 285.26 316.36 281.43 313.39 C 279.30 313.80 277.17 314.33 274.99 314.37 C 272.82 313.08 272.24 310.22 270.17 308.74 C 264.86 309.18 259.92 311.11 255.08 313.20 C 250.68 311.11 245.63 311.88 241.60 314.43 C 236.51 311.89 231.91 308.40 227.59 304.73 C 226.80 299.64 221.61 297.06 218.45 293.47 C 218.43 292.30 218.46 291.14 218.57 289.98 C 218.16 289.45 217.36 288.39 216.96 287.86 C 220.19 283.83 220.16 278.50 219.36 273.67 C 218.67 272.84 217.98 272.02 217.29 271.21 C 220.61 265.25 223.72 259.18 227.84 253.75 C 231.04 252.77 233.95 251.02 235.83 248.19 C 234.54 244.13 236.99 239.45 240.86 237.82 C 243.44 236.86 244.10 234.04 245.21 231.82 C 244.46 230.74 243.72 229.65 242.98 228.57 C 241.20 228.72 239.42 228.86 237.64 229.01 C 237.66 227.84 237.67 226.68 237.68 225.52 C 237.20 224.56 235.93 223.67 236.61 222.49 C 237.84 219.42 238.01 216.12 238.18 212.86 C 237.76 212.36 236.91 211.38 236.49 210.89 C 237.90 210.15 239.32 209.42 240.75 208.70 C 245.74 209.06 250.73 209.39 255.73 209.69 C 256.23 207.10 256.57 204.48 256.83 201.85 C 254.67 199.24 252.24 196.70 248.68 196.29 C 248.45 195.67 248.00 194.44 247.77 193.82 C 250.40 192.81 253.18 192.90 255.91 193.35 C 255.56 192.13 255.21 190.92 254.87 189.70 C 256.25 190.14 257.61 190.65 258.99 191.12 C 260.33 190.36 261.69 189.63 263.06 188.91 C 263.31 188.07 263.56 187.22 263.82 186.39 C 266.44 185.38 269.11 184.16 270.53 181.59 C 272.71 177.67 277.53 177.44 281.42 176.66 C 280.80 173.64 279.97 170.66 279.48 167.62 C 280.78 167.27 282.09 166.91 283.39 166.54 C 282.39 166.68 280.38 166.96 279.38 167.10 C 280.99 164.64 283.95 163.74 286.43 162.43 C 286.20 163.45 285.74 165.48 285.52 166.50 C 286.85 167.60 288.18 168.71 289.54 169.79 C 289.85 169.27 290.47 168.24 290.78 167.72 C 289.14 164.55 287.45 161.38 286.42 157.94 C 284.02 159.27 281.87 161.01 279.50 162.39 C 276.98 163.38 274.83 161.25 272.76 160.15 C 272.96 159.68 273.36 158.73 273.55 158.26 C 273.17 157.97 272.41 157.40 272.03 157.11 C 272.24 156.68 272.66 155.83 272.88 155.41 C 272.31 152.47 271.44 149.19 273.36 146.56 C 274.88 145.77 276.31 144.81 277.64 143.72 C 279.53 143.04 281.37 142.19 283.12 141.18 C 285.01 137.66 289.59 136.52 290.65 132.44 C 290.97 132.06 291.62 131.29 291.95 130.91 C 292.91 126.77 297.45 125.09 300.20 122.25 C 301.59 120.33 303.24 118.62 305.03 117.06 C 305.77 117.18 307.24 117.42 307.97 117.54 C 308.26 117.06 308.85 116.12 309.14 115.65 C 311.16 114.89 313.15 114.07 315.13 113.22 C 315.53 113.34 316.33 113.58 316.73 113.70 C 318.70 111.89 320.99 110.46 323.54 109.62 C 323.57 110.15 323.61 111.20 323.64 111.73 C 323.94 111.31 324.55 110.47 324.85 110.05 C 325.23 110.26 325.99 110.68 326.37 110.88 C 327.27 110.51 329.08 109.75 329.99 109.37 C 329.79 110.04 329.40 111.37 329.21 112.03 C 329.59 111.54 330.35 110.57 330.73 110.08 C 332.66 110.85 334.61 111.58 336.55 112.34 C 335.51 113.92 333.62 114.32 331.97 114.95 C 334.26 115.36 336.62 115.54 338.83 114.65 C 340.97 117.33 344.41 117.34 347.52 117.73 C 351.39 118.18 354.05 121.36 357.64 122.56 C 359.03 123.24 360.99 123.64 361.36 125.43 C 363.19 129.23 357.95 131.52 354.94 131.58 C 349.70 131.27 344.58 129.46 339.92 127.12 C 341.96 128.77 344.06 130.34 346.17 131.92 C 345.85 132.53 345.22 133.75 344.91 134.36 C 345.76 137.83 350.02 140.18 353.34 139.11 C 351.77 138.28 350.30 137.27 349.03 136.03 C 349.53 135.68 350.53 135.00 351.04 134.65 C 353.64 135.70 356.21 136.96 359.10 136.92 C 358.58 135.60 358.06 134.28 357.55 132.96 C 359.79 131.79 361.99 130.54 364.04 129.06 C 365.43 129.55 366.82 130.04 368.22 130.52 C 368.40 129.49 368.57 128.45 368.75 127.42 C 368.33 127.06 367.49 126.34 367.06 125.98 C 367.41 125.44 368.09 124.37 368.43 123.84 C 368.37 123.02 368.25 121.38 368.19 120.55 C 369.79 120.49 371.40 120.42 373.00 120.62 C 374.06 121.69 374.90 122.94 375.78 124.16 C 374.20 124.71 372.62 125.23 371.05 125.77 C 372.41 126.41 373.77 127.10 375.15 127.74 C 376.68 125.58 378.60 123.75 381.28 123.19 C 383.96 122.07 386.64 120.91 389.49 120.26 C 390.61 119.77 391.71 119.26 392.81 118.71 C 392.76 119.61 392.66 121.40 392.61 122.30 C 395.16 120.83 397.91 119.66 400.92 120.33 C 402.64 119.23 405.88 117.60 406.27 120.88 C 407.44 120.30 408.62 119.73 409.81 119.17 C 409.23 118.34 408.63 117.51 408.08 116.67 C 408.42 116.30 409.11 115.57 409.45 115.21 C 414.62 113.97 419.38 117.39 424.42 118.02 C 425.49 119.45 427.35 122.74 429.33 120.66 C 428.30 119.43 427.38 118.13 426.44 116.85 C 425.76 116.48 424.40 115.73 423.72 115.36 C 424.21 114.54 425.19 112.92 425.68 112.11 C 425.05 111.60 423.80 110.60 423.17 110.10 C 426.31 107.84 429.34 105.24 429.92 101.17 M 312.71 138.67 C 310.40 142.11 305.92 142.96 303.48 146.35 C 303.23 148.10 302.14 150.02 303.04 151.74 C 304.52 152.87 306.04 153.96 307.51 155.11 C 306.10 157.44 304.29 159.56 301.57 160.34 C 301.57 163.47 300.92 166.61 299.26 169.29 C 298.04 169.34 296.82 169.40 295.61 169.47 C 295.50 170.07 295.29 171.26 295.18 171.85 C 293.31 171.97 290.72 170.81 289.89 173.20 C 289.35 172.98 288.26 172.53 287.72 172.31 C 287.19 171.23 286.65 170.17 286.07 169.13 C 285.45 169.89 284.21 171.41 283.59 172.17 C 284.14 172.90 284.68 173.64 285.23 174.38 C 286.25 174.85 287.27 175.33 288.29 175.82 C 290.59 174.45 293.01 174.53 294.81 176.66 C 298.10 175.42 301.34 174.00 304.73 173.05 C 305.15 173.57 305.99 174.61 306.41 175.13 C 308.24 174.15 309.24 171.79 311.72 172.48 C 310.53 169.09 310.95 163.41 315.50 163.11 C 316.62 164.22 317.51 166.22 319.43 165.62 C 319.42 164.81 319.39 163.18 319.38 162.37 C 317.73 161.49 317.34 159.67 316.93 158.03 C 320.37 156.35 324.17 156.24 327.89 156.79 C 328.68 155.76 329.80 155.23 331.06 155.00 C 330.71 154.56 329.99 153.69 329.63 153.25 C 325.40 153.89 321.33 155.31 317.10 155.95 C 315.61 154.80 313.76 154.02 312.58 152.54 C 312.41 149.91 312.18 147.27 311.36 144.75 C 314.55 141.31 318.40 138.57 321.84 135.37 C 321.40 132.41 317.69 133.14 315.57 132.44 C 313.95 134.16 311.90 136.05 312.71 138.67 M 273.18 181.19 C 273.66 181.75 273.66 181.75 273.18 181.19 M 345.09 201.62 C 345.48 202.21 345.89 202.78 346.33 203.34 C 347.48 203.81 350.71 202.61 349.87 204.94 C 347.37 205.59 344.88 206.24 342.45 207.10 C 342.26 205.24 341.07 204.27 339.31 203.96 C 339.98 203.48 341.32 202.51 341.99 202.02 C 340.11 202.08 338.49 201.32 337.09 200.18 C 334.12 201.65 333.43 205.04 330.99 207.01 C 330.54 209.19 329.40 211.09 328.19 212.92 C 329.80 216.00 333.26 216.02 336.27 216.33 C 339.21 214.37 342.58 213.04 346.17 213.64 C 350.52 216.47 355.93 217.48 360.92 216.05 C 362.49 215.34 361.96 213.48 361.56 212.21 C 357.87 209.50 354.26 206.75 350.32 204.42 C 351.34 203.51 352.41 202.65 353.44 201.74 C 353.40 201.07 353.32 199.72 353.28 199.04 C 353.98 198.80 355.39 198.32 356.09 198.08 C 352.40 199.18 348.72 200.33 345.09 201.62 M 375.88 206.08 C 376.48 206.82 377.08 207.56 377.68 208.31 C 377.64 208.96 377.56 210.26 377.52 210.91 C 380.29 213.44 381.55 217.50 385.24 218.93 C 385.00 214.60 387.47 209.16 383.32 206.04 C 387.20 206.09 385.85 201.36 386.18 198.87 C 382.62 201.03 377.70 201.95 375.88 206.08 M 290.71 207.13 C 292.81 208.44 294.42 210.28 295.43 212.55 C 296.30 214.39 298.87 213.60 300.04 215.03 C 301.77 217.32 306.11 217.57 305.95 221.09 C 304.34 220.46 302.84 219.37 301.04 219.40 C 301.41 220.05 302.16 221.36 302.53 222.01 C 302.59 223.79 300.62 224.84 299.79 226.27 C 299.26 226.37 298.20 226.55 297.67 226.64 C 297.88 227.67 298.06 230.37 296.25 229.68 C 294.10 228.88 292.06 227.79 290.00 226.80 C 292.02 223.16 297.85 227.43 299.67 223.02 C 296.89 217.72 290.41 216.57 286.59 212.33 C 285.21 210.43 284.69 207.55 281.95 207.17 C 279.65 208.60 277.44 210.19 275.06 211.48 C 272.94 211.28 270.92 210.55 268.85 210.10 C 268.07 211.60 268.21 213.28 268.16 214.91 C 266.38 215.90 264.56 216.82 262.66 217.55 C 261.45 218.95 260.29 220.40 259.27 221.94 C 259.69 222.41 260.54 223.33 260.96 223.80 C 259.65 224.64 258.61 225.77 258.04 227.25 C 257.59 227.43 256.68 227.78 256.23 227.96 C 254.37 231.39 249.62 228.91 246.76 231.15 C 247.89 234.80 252.11 232.77 254.89 233.59 C 260.32 230.50 266.81 227.77 273.10 229.30 C 273.64 229.02 274.72 228.46 275.26 228.18 C 277.52 228.29 279.91 229.18 282.02 227.99 C 283.96 226.69 285.76 228.95 287.81 228.52 C 287.46 229.14 286.74 230.40 286.38 231.03 C 288.82 233.24 286.84 235.48 284.98 237.14 C 287.25 238.19 289.30 240.03 291.91 240.09 C 293.88 240.10 295.76 240.68 297.53 241.54 C 297.99 242.43 298.46 243.32 298.94 244.21 C 301.85 244.52 304.64 245.49 306.97 247.31 C 307.41 246.95 308.31 246.23 308.76 245.87 C 306.89 240.85 314.34 238.26 317.43 241.52 C 321.96 243.66 327.08 243.91 331.81 245.51 C 333.93 243.89 336.98 242.78 339.25 244.76 C 340.84 244.56 342.90 245.31 344.17 244.05 C 345.81 239.63 348.56 235.42 347.69 230.48 C 347.06 230.39 345.78 230.20 345.15 230.11 C 343.02 232.29 339.85 232.08 337.75 229.99 C 335.73 228.11 335.15 232.90 332.81 231.24 C 330.47 229.78 326.71 229.86 326.36 226.43 C 325.90 226.11 325.00 225.48 324.55 225.16 C 326.36 223.62 325.83 222.01 323.82 221.10 C 326.05 217.68 321.34 217.49 319.11 217.73 C 319.33 218.32 319.78 219.50 320.00 220.09 C 318.32 221.03 316.95 220.31 315.81 218.99 C 316.82 221.58 317.48 224.34 319.78 226.13 C 318.01 227.05 316.69 228.45 316.00 230.32 C 314.96 229.98 313.94 229.59 312.95 229.15 C 312.31 225.24 309.85 222.11 307.35 219.19 C 307.49 217.90 307.57 216.61 307.60 215.32 C 305.22 212.95 302.34 211.02 299.20 209.81 C 297.20 209.04 296.82 206.67 295.94 204.97 C 295.44 205.33 294.44 206.03 293.94 206.39 C 293.69 205.66 293.20 204.20 292.96 203.48 C 290.63 203.44 290.65 205.32 290.71 207.13 M 328.22 217.02 C 325.54 218.32 329.48 220.47 330.61 218.57 C 331.86 217.06 329.24 216.19 328.22 217.02 M 382.73 219.56 C 381.88 221.85 380.93 224.13 380.34 226.51 C 381.62 226.96 382.90 227.41 384.18 227.86 C 384.41 224.96 384.77 222.07 385.27 219.21 C 384.63 219.29 383.37 219.47 382.73 219.56 M 378.32 248.31 C 377.78 249.99 378.32 250.54 379.92 249.98 C 380.43 248.30 379.90 247.74 378.32 248.31 M 339.98 249.04 C 341.34 252.22 343.15 255.18 344.49 258.38 C 345.49 261.00 348.06 263.03 347.91 266.03 C 351.89 268.48 351.99 273.14 352.39 277.30 C 356.08 278.31 356.30 282.27 357.30 285.33 C 359.57 286.47 361.58 288.04 363.31 289.89 C 364.41 288.09 365.34 286.11 365.25 283.95 C 364.60 281.21 361.95 279.62 360.96 277.02 C 360.27 275.14 358.59 274.05 357.19 272.77 C 355.42 271.22 356.11 268.64 355.33 266.66 C 354.63 264.91 352.93 263.92 351.78 262.53 C 350.43 259.48 348.73 256.61 346.71 253.97 C 345.87 252.38 344.64 253.87 343.91 254.71 C 342.06 253.22 341.12 251.04 339.98 249.04 Z" />
<path fill="#feffff" opacity="1.00" d=" M 46.67 113.26 C 50.53 113.15 54.35 113.80 58.21 113.83 C 57.70 116.47 55.76 118.40 54.15 120.41 C 52.86 120.29 51.57 120.17 50.29 120.04 C 50.83 121.79 49.68 122.97 48.01 123.25 C 45.86 123.02 45.43 120.65 44.73 119.02 C 44.32 116.88 45.86 115.09 46.67 113.26 Z" />
<path fill="#feffff" opacity="1.00" d=" M 58.96 120.97 C 60.76 116.26 66.29 113.36 71.17 114.90 C 69.74 116.50 68.32 118.11 67.03 119.83 C 68.96 121.40 67.69 124.43 70.48 125.28 C 70.52 125.99 70.60 127.43 70.64 128.14 C 71.22 127.51 71.81 126.87 72.39 126.25 C 71.39 125.46 70.39 124.68 69.39 123.89 C 69.72 123.41 70.38 122.45 70.71 121.97 C 70.34 121.47 69.60 120.48 69.22 119.98 C 71.13 117.42 73.63 115.19 76.97 114.93 C 79.89 113.99 81.44 117.20 83.02 118.98 C 82.40 120.18 81.72 121.36 81.21 122.62 C 82.72 124.56 83.43 120.42 85.13 121.68 C 85.87 122.29 86.38 123.06 86.69 124.00 C 86.31 122.58 86.50 120.71 88.15 120.24 C 90.42 119.82 92.73 120.57 95.01 120.70 C 95.99 121.57 96.97 122.45 97.97 123.30 L 97.30 124.41 C 98.67 124.88 100.16 127.21 101.61 125.45 C 103.68 124.34 105.17 126.87 106.44 128.16 C 107.65 130.85 111.85 127.39 112.25 130.76 C 111.19 131.39 110.14 132.02 109.08 132.66 C 111.49 131.77 114.43 130.20 116.08 133.25 C 115.32 133.56 113.80 134.20 113.04 134.52 C 114.56 134.91 117.21 134.18 116.83 136.90 C 115.45 136.74 114.08 136.57 112.71 136.38 C 112.69 137.08 112.66 137.78 112.67 138.49 C 115.50 139.51 117.80 142.35 121.11 141.18 C 122.18 142.06 122.94 143.19 123.62 144.38 C 125.48 145.40 127.88 145.08 129.56 146.40 C 130.73 147.61 129.28 148.57 128.33 149.14 C 127.61 150.72 126.21 151.54 124.51 151.71 C 124.57 152.27 124.69 153.39 124.75 153.96 C 123.36 154.62 122.04 152.98 120.85 152.40 C 119.25 150.06 116.89 148.50 114.35 147.37 C 114.71 148.37 115.11 149.37 115.53 150.36 C 114.90 150.41 113.65 150.51 113.03 150.55 C 113.78 150.91 114.53 151.26 115.28 151.62 C 115.53 152.09 116.01 153.03 116.26 153.50 C 119.43 154.39 120.95 157.39 122.58 159.96 C 121.64 161.17 121.08 162.58 121.00 164.12 C 117.92 162.13 114.75 160.12 111.14 159.29 C 114.00 161.44 117.73 163.00 118.79 166.78 C 113.69 165.43 108.36 163.97 104.00 161.02 C 103.91 160.56 103.72 159.65 103.62 159.20 C 101.44 158.74 100.10 156.99 98.90 155.26 C 98.41 155.59 97.43 156.24 96.95 156.56 C 93.75 156.43 89.78 158.34 87.34 155.21 C 88.45 154.02 89.57 152.85 90.71 151.69 C 93.45 153.12 96.31 152.28 99.06 151.39 C 98.53 150.80 97.48 149.63 96.95 149.05 C 99.04 147.66 103.06 145.57 101.41 142.50 C 99.36 139.34 95.38 137.10 91.61 138.67 C 90.72 136.83 92.49 136.24 93.98 136.00 C 90.63 134.55 88.08 131.96 85.14 129.90 C 85.98 131.02 87.92 132.02 86.56 133.55 C 85.01 134.15 83.60 133.21 82.22 132.65 C 81.98 133.01 81.52 133.73 81.28 134.09 C 77.22 132.98 72.95 133.07 68.78 132.57 C 68.33 132.23 67.43 131.54 66.98 131.19 C 64.53 131.81 60.52 131.36 60.52 128.09 C 61.68 128.10 64.00 128.12 65.16 128.13 C 63.52 126.04 59.62 127.58 58.53 125.22 C 59.52 123.89 59.80 122.45 58.96 120.97 M 96.34 125.12 C 96.86 125.66 96.86 125.66 96.34 125.12 Z" />
<path fill="#feffff" opacity="1.00" d=" M 35.22 126.05 C 36.13 123.11 37.98 120.62 39.75 118.15 C 41.26 118.85 42.75 119.64 43.98 120.77 C 43.22 122.28 42.77 123.99 41.70 125.32 C 40.44 125.93 39.15 126.47 37.88 127.04 C 37.21 126.79 35.88 126.30 35.22 126.05 Z" />
<path fill="#feffff" opacity="1.00" d=" M 42.36 128.14 C 44.06 126.47 45.15 123.01 48.06 123.67 C 52.11 124.49 52.08 129.55 55.38 131.49 C 54.54 132.33 53.69 133.17 52.84 133.99 C 54.23 133.94 55.62 133.94 57.00 133.99 C 57.90 135.65 58.24 137.56 58.94 139.32 C 59.64 137.96 60.34 136.60 61.03 135.24 C 62.89 136.34 64.36 137.91 65.15 139.94 C 64.56 140.22 63.37 140.78 62.78 141.06 C 63.88 142.32 64.95 143.61 66.07 144.85 C 67.69 142.97 69.02 140.86 69.78 138.48 C 70.16 138.22 70.94 137.71 71.33 137.45 C 70.30 136.35 68.47 133.89 71.01 133.24 C 74.39 132.81 77.35 134.85 80.35 136.06 C 80.33 136.93 80.29 138.68 80.26 139.55 C 79.15 139.18 78.03 138.81 76.91 138.44 C 78.21 140.30 79.67 142.04 80.90 143.95 C 80.06 146.68 77.45 148.06 74.88 148.77 C 74.01 147.65 73.19 146.50 72.28 145.41 C 72.85 146.74 73.57 147.99 74.42 149.17 C 72.23 148.96 70.20 148.20 68.26 147.21 C 68.50 148.12 68.74 149.03 68.99 149.95 C 67.81 150.82 66.63 151.68 65.44 152.53 C 65.67 153.14 66.14 154.36 66.37 154.97 C 65.48 155.86 64.63 156.79 63.62 157.55 C 62.06 158.38 59.53 157.75 59.12 160.01 C 57.07 159.55 55.04 159.06 53.00 158.60 C 54.68 159.35 56.80 159.49 57.94 161.09 C 52.46 164.69 46.60 170.01 47.62 177.29 C 48.89 177.36 50.17 177.44 51.44 177.52 C 52.36 179.42 53.14 181.39 53.74 183.41 C 57.67 182.04 61.69 183.91 64.68 186.43 C 68.62 189.51 73.81 189.59 78.51 190.49 C 78.44 192.91 78.48 195.34 78.36 197.77 C 79.99 199.75 81.81 201.57 83.60 203.41 C 84.64 202.62 85.97 202.10 86.69 200.98 C 86.53 197.83 85.54 194.80 84.32 191.92 C 87.43 190.56 91.17 188.75 91.89 185.07 C 92.51 181.63 88.78 180.07 86.77 178.04 C 87.80 176.58 88.83 175.12 89.86 173.67 C 89.78 173.19 89.62 172.22 89.54 171.74 C 89.08 171.33 88.18 170.51 87.73 170.10 C 88.16 169.54 89.03 168.43 89.46 167.88 C 89.00 167.35 88.07 166.30 87.60 165.77 C 88.31 163.76 90.18 162.66 92.18 163.70 C 95.51 165.50 99.82 162.26 102.45 165.57 C 104.36 167.94 106.90 169.60 110.06 169.53 C 109.30 171.64 109.50 173.85 110.07 175.98 C 109.85 176.42 109.39 177.30 109.16 177.73 C 109.89 177.59 111.35 177.30 112.08 177.15 C 112.54 177.74 113.45 178.90 113.90 179.48 C 116.03 178.03 119.19 177.08 119.10 173.96 C 119.98 173.39 120.74 172.49 121.82 172.28 C 125.10 175.91 127.42 180.32 129.89 184.52 C 129.35 184.85 128.26 185.50 127.71 185.83 C 129.62 186.70 131.40 187.85 132.55 189.66 C 134.84 190.58 137.16 191.43 139.48 192.30 C 137.24 193.72 134.86 194.89 132.57 196.21 C 134.61 195.37 136.57 194.36 138.54 193.38 C 140.03 194.40 141.58 195.34 143.17 196.20 C 143.31 197.83 143.44 199.47 143.62 201.11 C 141.51 202.53 139.11 203.40 136.60 203.76 C 135.20 204.88 133.98 206.49 132.08 206.74 C 127.12 207.65 122.07 206.54 117.06 206.90 C 114.79 210.43 110.22 211.26 107.81 214.73 C 111.07 212.20 114.94 210.50 118.98 209.69 C 120.48 209.31 121.80 210.35 122.88 211.25 C 122.66 213.57 119.79 213.64 118.09 214.45 C 118.86 214.37 120.40 214.19 121.16 214.10 C 121.44 215.78 120.58 218.38 122.62 219.24 C 124.27 220.57 126.43 220.42 128.41 220.52 C 129.41 219.02 129.85 216.60 132.01 216.37 C 132.26 217.86 132.87 219.18 133.84 220.34 C 130.85 222.54 127.37 223.81 123.92 225.06 C 121.85 225.73 120.41 228.19 118.07 227.83 C 117.77 227.10 117.19 225.66 116.90 224.94 C 118.28 223.97 119.67 223.02 121.03 222.02 C 116.65 223.34 112.46 225.26 108.46 227.46 C 107.01 228.11 106.84 229.78 106.43 231.12 C 107.11 231.89 109.14 232.01 108.76 233.39 C 105.50 234.22 102.17 234.77 98.97 235.83 C 98.37 240.00 95.48 243.27 93.66 246.93 C 94.02 247.96 94.39 249.00 94.75 250.04 C 93.95 251.12 93.12 252.19 92.34 253.29 C 90.41 254.43 88.53 255.66 86.61 256.82 C 84.20 259.29 80.16 261.02 80.29 265.05 C 81.87 269.79 85.24 274.68 82.95 279.81 C 82.39 279.77 81.28 279.68 80.73 279.64 C 78.86 276.50 75.41 273.53 76.52 269.50 C 74.94 267.91 73.25 265.36 70.92 267.54 C 68.04 264.71 63.89 265.92 60.29 265.73 C 60.81 266.89 61.27 268.07 61.68 269.28 C 56.53 269.23 50.79 265.50 46.14 269.14 C 43.09 270.65 39.22 273.15 41.14 277.14 C 40.00 279.91 39.19 282.88 39.56 285.91 C 39.62 289.56 42.47 292.19 44.17 295.17 C 47.52 297.30 51.58 296.65 55.00 295.07 C 56.33 293.69 56.32 291.59 56.84 289.84 C 60.04 288.83 63.88 287.21 66.90 289.55 C 63.49 293.30 64.08 298.72 62.25 303.20 C 65.54 302.99 68.83 302.81 72.13 302.66 C 73.19 303.75 74.75 304.52 75.29 306.02 C 74.92 309.02 73.67 311.92 73.87 314.98 C 75.25 317.06 76.91 319.07 79.05 320.39 C 81.14 320.70 82.97 319.20 84.86 318.51 C 87.08 319.00 88.96 320.21 90.40 321.96 C 91.38 322.51 92.41 323.00 93.45 323.44 C 92.45 324.26 91.46 325.08 90.45 325.89 C 92.68 325.94 94.96 325.25 94.88 322.62 C 96.78 323.99 98.67 325.38 100.51 326.83 C 101.69 326.80 102.88 326.77 104.06 326.74 C 107.44 329.19 110.92 326.02 114.54 326.28 C 114.51 327.00 114.43 328.46 114.40 329.18 C 115.20 328.02 115.45 326.09 117.29 326.11 C 117.46 327.60 117.61 329.09 117.74 330.60 C 117.64 330.86 117.43 331.39 117.33 331.65 C 120.25 331.84 122.97 333.23 124.23 335.98 C 125.95 337.18 127.65 338.92 129.95 338.47 C 134.54 337.82 138.49 340.52 141.75 343.40 C 142.31 346.01 143.34 348.52 145.55 350.19 C 143.69 352.38 141.74 354.49 139.81 356.61 C 140.45 356.54 141.75 356.38 142.40 356.31 C 142.55 355.65 142.86 354.32 143.02 353.66 C 144.88 353.72 146.74 353.78 148.60 353.86 C 148.52 354.56 148.36 355.96 148.29 356.66 C 150.93 353.12 155.09 357.09 158.17 357.97 C 158.28 358.47 158.50 359.46 158.61 359.96 C 161.73 358.68 164.84 360.70 168.05 360.56 C 171.38 360.41 173.25 363.66 175.86 365.18 C 177.34 365.76 178.93 366.03 180.44 366.56 C 182.65 370.45 182.56 375.94 178.94 378.98 C 176.10 381.02 175.25 384.74 172.28 386.63 C 171.39 389.79 171.82 393.12 171.61 396.37 C 171.59 396.82 171.55 397.72 171.53 398.17 C 171.21 398.60 170.59 399.46 170.27 399.89 C 170.43 403.53 167.49 406.12 166.55 409.47 C 164.70 411.96 161.75 412.30 158.86 412.33 C 155.11 413.76 151.01 415.39 148.53 418.71 C 148.23 420.81 148.54 422.93 148.37 425.04 C 147.68 426.31 146.74 427.41 145.89 428.57 C 144.55 430.43 143.51 432.48 142.43 434.49 C 141.78 434.57 140.49 434.73 139.84 434.81 C 139.58 435.83 139.30 436.84 139.00 437.86 C 137.48 439.97 135.96 442.16 133.97 443.87 C 131.05 444.86 127.97 443.76 125.20 442.78 C 126.37 444.88 127.44 447.04 128.56 449.18 C 127.14 451.47 126.03 454.51 123.01 455.03 C 120.29 455.44 117.55 455.60 114.81 455.76 C 114.63 457.51 114.45 459.28 114.27 461.04 C 113.63 461.35 112.36 461.98 111.72 462.29 L 111.00 462.65 C 103.07 457.81 95.92 451.82 88.79 445.90 C 90.87 441.10 90.79 435.94 90.97 430.83 L 91.39 429.80 C 91.46 425.82 93.41 422.20 93.57 418.24 C 93.53 412.22 95.38 406.11 93.95 400.17 C 90.55 395.54 84.08 394.87 80.53 390.43 C 78.89 386.51 76.84 382.80 75.13 378.91 C 73.37 375.17 71.29 371.30 67.78 368.93 C 67.63 367.50 67.28 366.11 66.77 364.79 C 68.28 363.31 69.85 361.90 71.41 360.50 C 70.63 360.50 69.07 360.50 68.29 360.50 C 68.28 359.09 68.27 357.68 68.26 356.28 C 69.14 354.64 69.93 352.95 70.65 351.24 C 71.02 351.00 71.74 350.53 72.11 350.29 C 73.77 347.62 77.52 346.14 76.89 342.48 C 76.89 340.18 76.60 337.89 75.85 335.71 C 76.21 334.62 76.48 333.51 76.86 332.44 C 77.16 332.38 77.76 332.27 78.05 332.22 C 78.95 331.34 79.85 330.46 80.74 329.59 C 81.19 326.11 84.66 325.36 87.49 324.57 C 87.01 323.32 86.50 322.08 85.98 320.85 C 85.00 321.24 84.04 321.67 83.10 322.15 C 83.16 322.95 83.28 324.56 83.34 325.36 C 80.37 324.73 77.77 323.06 74.87 322.19 C 73.42 320.10 70.92 319.50 69.00 318.08 C 68.35 314.89 65.89 312.75 63.62 310.64 C 60.47 309.73 57.21 309.14 54.19 307.85 C 51.79 306.05 49.71 303.84 47.07 302.35 C 45.63 302.98 44.19 303.61 42.75 304.24 C 37.23 302.83 32.20 300.09 26.98 297.90 C 26.41 297.66 25.28 297.18 24.71 296.94 C 23.30 295.51 21.49 294.49 20.29 292.86 C 20.08 290.78 20.83 288.43 19.46 286.62 C 17.16 283.28 14.06 280.63 11.10 277.91 C 9.94 274.93 7.23 273.09 5.16 270.80 C 3.25 268.72 2.18 266.04 1.17 263.44 C 0.95 254.38 1.03 245.30 1.15 236.23 C 3.28 203.40 11.91 171.02 26.53 141.54 C 31.23 143.23 36.33 140.26 40.89 142.68 C 40.88 142.39 40.85 141.82 40.83 141.53 C 39.97 141.48 38.25 141.37 37.39 141.32 C 38.40 137.74 41.85 140.33 44.10 140.83 C 43.56 142.64 43.96 144.06 45.29 145.09 C 45.28 144.18 45.25 142.36 45.23 141.45 C 47.09 140.48 48.87 139.35 50.57 138.14 C 49.70 138.10 47.95 138.03 47.08 138.00 C 47.95 135.83 50.12 135.89 52.05 136.09 C 48.92 134.95 45.34 134.71 42.76 132.41 C 42.65 130.98 42.53 129.56 42.36 128.14 M 59.33 150.42 C 59.94 151.68 62.10 153.57 63.65 153.01 C 64.05 150.96 60.90 150.02 59.33 150.42 M 90.67 330.42 C 93.17 332.60 93.63 327.21 90.98 327.48 C 89.97 328.29 89.87 329.27 90.67 330.42 Z" />
<path fill="#feffff" opacity="1.00" d=" M 198.98 134.09 C 200.30 132.23 202.03 130.74 203.84 129.36 C 204.98 129.90 206.12 130.44 207.26 130.99 C 207.28 131.81 207.32 133.44 207.34 134.25 C 208.67 133.54 209.43 132.38 209.43 130.82 C 210.54 131.46 211.69 131.58 212.89 131.19 C 214.56 131.14 216.32 131.42 217.94 130.84 C 219.88 127.35 222.98 131.63 224.91 132.98 C 228.24 134.21 225.22 137.27 223.58 138.59 C 220.39 139.99 217.09 141.12 213.93 142.58 C 211.84 142.98 210.08 141.43 208.08 141.22 C 206.43 141.07 204.79 140.94 203.28 140.21 C 203.89 139.64 205.10 138.50 205.70 137.92 C 204.13 137.65 202.56 137.57 200.97 137.70 C 200.47 134.81 204.70 136.61 205.18 134.19 C 203.11 134.28 201.01 134.63 198.98 134.09 Z" />
<path fill="#feffff" opacity="1.00" d=" M 31.16 132.12 C 33.02 131.56 33.64 134.81 31.93 135.33 C 30.08 135.74 29.49 132.70 31.16 132.12 Z" />
<path fill="#feffff" opacity="1.00" d=" M 39.13 132.91 C 42.11 133.54 44.19 135.85 46.09 138.05 C 42.92 141.36 38.72 138.29 35.31 137.21 C 36.99 136.16 38.39 134.77 39.13 132.91 Z" />
<path fill="#feffff" opacity="1.00" d=" M 28.51 137.61 C 27.85 136.53 29.59 134.73 30.56 135.84 C 31.24 136.99 29.52 138.40 28.51 137.61 Z" />
<path fill="#feffff" opacity="1.00" d=" M 91.91 145.49 C 87.14 143.86 92.29 137.26 95.58 140.35 C 97.21 143.24 94.52 145.10 91.91 145.49 Z" />
<path fill="#feffff" opacity="1.00" d=" M 65.46 159.91 C 68.52 157.19 67.77 152.87 69.95 149.64 C 70.41 150.28 71.34 151.55 71.80 152.19 C 74.91 152.55 78.50 154.31 79.78 157.30 C 81.30 157.47 82.67 158.05 83.87 159.02 C 81.33 161.19 77.89 159.88 76.02 157.54 C 74.78 159.57 72.50 160.48 70.60 161.73 C 70.28 161.14 69.66 159.96 69.34 159.37 C 68.37 159.51 66.43 159.78 65.46 159.91 Z" />
<path fill="#feffff" opacity="1.00" d=" M 247.36 160.21 C 249.28 160.05 251.22 160.00 253.15 160.07 C 252.50 161.51 251.16 162.37 249.96 163.30 C 251.91 163.28 253.87 163.35 255.81 163.62 C 255.21 165.45 254.40 167.19 253.43 168.85 C 255.12 169.78 256.41 171.19 256.90 173.08 C 259.21 174.51 260.09 177.10 261.22 179.41 C 261.93 179.60 263.35 179.97 264.06 180.15 C 265.71 182.24 262.02 183.93 263.80 186.10 C 260.41 187.99 256.44 187.17 252.76 187.78 C 250.59 188.79 248.19 189.10 245.95 189.90 C 246.33 187.29 249.11 186.10 250.82 184.38 C 249.36 184.28 247.92 184.16 246.47 184.03 C 247.15 182.72 248.44 182.04 249.65 181.32 C 249.25 180.59 248.85 179.86 248.46 179.13 C 249.93 178.57 251.78 178.46 252.77 177.02 C 251.43 175.07 250.13 172.76 247.34 174.00 C 247.57 172.57 247.83 171.13 248.09 169.71 C 247.27 170.60 246.46 171.50 245.61 172.37 C 245.95 173.28 246.30 174.19 246.65 175.10 C 246.25 175.56 245.47 176.48 245.07 176.94 C 245.76 178.80 245.79 180.70 244.65 182.40 C 241.67 183.00 238.98 184.47 236.08 185.31 C 235.31 184.28 234.58 183.23 233.82 182.21 C 234.79 181.82 237.41 180.61 236.18 179.26 C 234.22 178.55 234.95 176.39 234.73 174.84 C 235.89 174.81 237.05 174.80 238.22 174.80 C 238.43 170.67 242.88 171.72 245.69 171.82 C 246.01 170.24 245.84 168.74 245.20 167.32 C 245.46 164.82 246.18 162.42 247.36 160.21 Z" />
<path fill="#feffff" opacity="1.00" d=" M 133.81 215.10 C 137.39 210.84 137.54 202.78 144.13 201.98 C 143.61 203.58 142.95 205.13 142.22 206.64 C 143.42 207.09 143.93 207.99 143.77 209.34 C 145.39 209.33 147.89 208.02 148.90 209.95 C 148.65 210.44 148.15 211.43 147.90 211.92 C 148.48 211.84 149.66 211.70 150.24 211.62 C 149.98 212.11 149.45 213.10 149.19 213.59 C 150.85 214.89 151.23 216.72 150.11 218.54 C 148.49 218.02 146.85 217.42 146.53 215.50 C 145.25 216.43 144.22 218.72 142.25 217.40 C 142.60 216.83 143.32 215.68 143.67 215.10 C 140.42 215.85 137.09 215.38 133.81 215.10 Z" />
<path fill="#feffff" opacity="1.00" d=" M 280.38 212.89 C 281.48 212.22 282.59 211.54 283.70 210.88 C 282.76 214.39 284.54 217.58 284.35 221.00 C 284.57 223.06 281.99 222.94 280.74 223.64 C 280.53 221.55 280.18 219.49 279.91 217.42 C 280.40 217.26 281.38 216.95 281.88 216.79 C 281.36 215.50 280.86 214.19 280.38 212.89 Z" />
<path fill="#feffff" opacity="1.00" d=" M 317.42 232.45 C 320.10 232.38 322.73 233.07 325.37 233.45 C 324.32 235.53 321.64 234.93 319.82 234.53 C 318.74 234.17 316.82 234.07 317.42 232.45 Z" />
<path fill="#feffff" opacity="1.00" d=" M 338.47 234.88 C 339.81 232.48 342.79 232.64 345.14 232.15 C 344.15 234.78 341.03 236.72 338.47 234.88 Z" />
<path fill="#feffff" opacity="1.00" d=" M 1.14 269.86 C 5.71 273.76 6.73 280.14 11.22 284.08 C 10.89 284.53 10.24 285.44 9.91 285.89 C 7.90 283.53 4.71 282.02 3.76 278.91 C 2.88 276.51 1.32 274.33 1.13 271.72 C 1.13 271.26 1.14 270.33 1.14 269.86 Z" />
<path fill="#feffff" opacity="1.00" d=" M 71.33 288.92 C 71.68 283.70 78.26 283.93 82.00 284.66 C 87.36 287.01 92.79 289.26 97.95 292.03 C 95.44 294.20 91.81 292.92 88.79 293.39 C 89.59 291.01 86.92 290.81 85.87 289.32 C 83.53 288.58 81.20 287.70 78.75 287.40 C 78.33 287.08 77.49 286.45 77.07 286.13 C 75.18 287.11 73.28 288.07 71.33 288.92 Z" />
<path fill="#feffff" opacity="1.00" d=" M 98.39 292.82 C 103.18 292.13 108.20 292.69 111.87 296.12 C 111.68 298.88 107.38 296.49 105.45 297.46 C 105.12 297.88 104.46 298.73 104.13 299.16 C 103.68 298.78 102.79 298.03 102.35 297.66 C 100.54 297.70 98.74 297.74 96.94 297.80 C 96.78 297.05 96.62 296.30 96.45 295.55 C 97.52 295.74 99.65 296.13 100.71 296.33 C 100.73 294.80 99.96 293.63 98.39 292.82 Z" />
<path fill="#feffff" opacity="1.00" d=" M 87.05 296.11 C 89.24 296.19 91.57 296.42 92.94 298.34 C 90.87 298.56 86.90 299.32 87.05 296.11 Z" />
<path fill="#feffff" opacity="1.00" d=" M 114.19 296.20 C 115.66 296.25 117.13 296.32 118.61 296.40 C 118.50 296.84 118.28 297.72 118.17 298.16 C 116.89 298.24 115.60 298.32 114.33 298.40 C 114.29 297.85 114.22 296.75 114.19 296.20 Z" />
<path fill="#feffff" opacity="1.00" d=" M 455.70 302.68 C 456.40 301.74 457.10 300.80 457.82 299.87 C 459.32 302.17 461.05 304.39 461.96 307.02 C 461.84 309.25 459.48 309.78 457.84 310.53 C 455.86 308.38 456.09 305.37 455.70 302.68 Z" />
<path fill="#feffff" opacity="1.00" d=" M 280.32 315.42 C 283.73 313.46 281.69 319.84 279.76 316.91 C 279.90 316.54 280.18 315.79 280.32 315.42 Z" />
</g>
</svg>
