<?xml version="1.0" encoding="UTF-8" ?>
<!DOCTYPE svg PUBLIC "-//W3C//DTD SVG 1.1//EN" "http://www.w3.org/Graphics/SVG/1.1/DTD/svg11.dtd">
<svg width="400pt" height="300pt" viewBox="0 0 400 300" version="1.1" xmlns="http://www.w3.org/2000/svg">
<g id="#000000ff">
<path fill="#000000" opacity="1.00" d=" M 209.49 88.58 C 227.14 63.12 244.78 37.65 262.52 12.26 C 266.74 12.41 271.04 12.23 275.14 13.41 C 283.63 15.90 292.29 18.00 300.32 21.82 C 309.17 25.86 318.39 29.69 325.67 36.34 C 334.88 44.01 342.52 54.23 345.03 66.11 C 344.21 68.68 342.49 70.81 341.08 73.07 C 328.08 93.06 315.37 113.24 302.31 133.18 C 305.64 138.11 308.84 143.13 311.50 148.46 C 311.58 148.60 311.73 148.89 311.81 149.03 L 312.16 149.69 C 312.34 150.05 312.71 150.78 312.89 151.15 L 313.28 151.98 L 313.42 152.28 L 313.51 152.46 C 321.03 166.99 322.96 183.67 323.34 199.81 C 321.23 199.46 319.09 198.99 317.27 197.80 C 308.91 192.84 300.40 188.12 292.01 183.19 C 289.31 186.96 286.48 191.00 282.14 193.01 C 278.97 194.56 275.37 194.62 271.92 194.83 C 272.09 201.42 265.13 205.40 265.72 212.01 C 265.72 230.58 265.54 249.15 265.59 267.73 C 276.12 271.05 286.27 276.01 294.63 283.31 C 300.63 288.23 305.70 294.11 310.71 300.00 L 300.94 300.00 C 291.45 289.18 279.51 280.23 265.67 275.88 C 265.65 278.58 265.44 281.31 265.88 284.00 C 266.75 287.45 270.04 289.34 272.74 291.28 C 276.56 293.80 279.83 297.01 283.28 300.00 L 276.35 300.00 C 274.51 298.05 272.81 295.97 271.03 293.98 C 271.59 296.00 272.18 298.01 272.87 300.00 L 265.04 300.00 C 263.25 295.37 261.24 290.78 258.15 286.85 C 258.18 264.25 258.17 241.65 258.16 219.05 C 258.21 214.31 257.75 209.43 259.30 204.86 C 260.31 200.95 264.25 198.25 264.20 194.00 C 262.26 189.35 257.40 186.75 252.83 185.25 C 245.37 182.95 237.40 182.36 229.66 183.22 C 211.73 184.01 192.96 189.93 180.83 203.78 C 178.96 206.21 176.13 208.59 176.37 211.95 C 176.39 237.38 176.43 262.82 176.35 288.25 C 186.63 285.34 197.83 284.94 208.06 288.25 C 206.27 289.45 204.29 290.41 202.11 290.57 C 189.70 292.28 177.30 294.89 165.81 300.00 L 150.27 300.00 C 156.07 296.26 162.15 292.97 168.49 290.22 C 168.54 286.44 168.56 282.67 168.57 278.89 C 156.02 283.06 145.28 291.09 135.69 300.00 L 124.61 300.00 C 131.74 292.88 139.64 286.56 147.86 280.75 C 154.16 276.24 161.56 273.79 168.55 270.62 C 168.54 249.14 168.52 227.66 168.70 206.18 C 165.93 204.03 162.99 201.92 161.13 198.88 C 158.97 195.50 158.56 191.21 159.56 187.37 C 160.76 183.03 164.38 179.93 165.83 175.70 C 166.53 173.82 167.08 171.88 167.66 169.95 C 166.00 167.49 164.69 164.67 162.39 162.72 C 158.87 160.73 154.65 160.19 151.43 157.64 C 149.06 155.92 146.85 153.13 147.74 150.02 C 148.35 145.83 152.51 143.89 155.74 141.93 C 166.45 136.15 176.26 128.54 184.29 119.37 C 174.29 113.51 164.24 107.72 154.41 101.56 C 159.47 98.03 165.32 95.96 171.07 93.89 C 183.37 89.47 196.61 89.37 209.49 88.58 M 278.49 22.14 C 263.08 45.23 247.43 68.16 232.02 91.25 C 239.91 92.92 247.68 95.26 255.12 98.39 C 269.58 75.28 284.12 52.23 298.51 29.08 C 291.97 26.40 285.37 23.81 278.49 22.14 M 262.53 101.33 C 263.75 102.07 264.97 102.81 266.20 103.56 C 281.07 80.83 295.92 58.09 310.98 35.49 C 309.26 34.49 307.55 33.49 305.84 32.48 C 291.36 55.40 277.19 78.53 262.53 101.33 M 172.58 140.63 C 167.09 144.70 160.78 147.43 155.09 151.20 C 156.70 152.19 158.31 153.28 160.15 153.79 C 165.98 155.41 172.20 152.38 177.91 154.69 C 176.69 157.94 173.86 159.87 170.73 161.02 C 171.86 162.59 172.78 164.37 174.19 165.73 C 176.53 166.47 181.14 166.48 180.88 169.94 C 179.18 171.33 176.96 171.63 174.95 172.31 C 173.68 175.80 172.92 179.47 171.93 183.06 C 168.90 185.38 165.53 188.90 166.92 193.08 C 167.60 196.53 170.86 198.31 173.74 199.75 C 185.15 185.97 202.60 178.25 220.13 176.27 C 228.69 175.10 237.37 175.10 245.96 175.85 C 255.68 175.99 265.59 169.31 267.87 159.61 C 269.19 161.86 270.28 164.44 269.73 167.11 C 268.99 172.89 264.12 176.92 259.46 179.80 C 262.98 181.31 265.73 184.00 268.81 186.18 C 274.10 187.96 280.43 186.32 283.85 181.82 C 285.04 180.17 286.28 177.87 285.17 175.87 C 280.68 166.70 275.00 158.13 268.43 150.32 C 262.76 154.47 254.88 154.89 248.56 152.03 C 253.63 149.84 258.83 147.92 263.46 144.86 C 260.04 141.26 256.32 137.97 252.49 134.84 C 250.33 133.35 248.24 131.76 246.13 130.22 C 238.21 133.36 235.60 142.20 234.37 149.84 C 230.75 148.66 226.35 147.21 223.00 149.82 C 219.32 152.80 219.13 157.91 218.36 162.21 C 214.35 161.19 209.74 160.68 206.13 163.15 C 201.82 165.77 200.55 170.98 199.32 175.50 C 198.32 178.07 195.08 177.52 192.93 178.23 C 186.03 179.42 182.10 185.79 176.90 189.78 L 175.68 189.19 C 174.94 179.78 183.42 171.78 192.39 170.44 C 194.44 161.38 202.11 153.39 211.82 153.35 C 213.73 145.93 220.34 139.86 228.31 140.37 C 230.15 134.31 233.54 128.63 238.84 124.99 C 227.78 118.21 216.01 112.64 203.68 108.60 C 194.38 120.22 184.67 131.78 172.58 140.63 Z" />
<path fill="#000000" opacity="1.00" d=" M 88.70 114.56 C 93.02 109.25 96.09 103.12 99.72 97.36 C 100.12 98.89 100.12 100.43 99.72 101.95 C 97.73 109.53 93.33 116.31 87.74 121.74 C 85.97 123.65 83.68 125.38 82.93 127.98 C 82.76 130.14 82.64 132.30 82.64 134.47 C 81.87 134.26 81.10 134.02 80.35 133.76 L 80.50 133.42 C 80.60 133.21 80.80 132.80 80.90 132.59 C 80.58 130.27 79.87 127.86 80.36 125.53 C 82.15 121.21 85.92 118.21 88.70 114.56 Z" />
<path fill="#000000" opacity="1.00" d=" M 79.89 106.42 C 80.67 103.59 79.48 98.00 83.98 98.22 C 87.48 100.25 84.71 104.73 84.46 107.75 C 83.24 113.06 80.20 117.88 75.71 121.02 C 76.55 116.00 79.00 111.43 79.89 106.42 Z" />
<path fill="#000000" opacity="1.00" d=" M 204.52 113.17 C 214.61 111.96 222.94 122.24 222.44 131.80 C 218.71 129.83 217.17 125.63 214.19 122.84 C 211.28 119.31 207.10 116.97 204.52 113.17 Z" />
<path fill="#000000" opacity="1.00" d=" M 121.82 126.51 C 123.21 122.14 126.00 117.18 131.00 116.49 C 134.92 116.42 137.54 120.16 138.70 123.49 C 140.93 130.89 138.98 139.04 134.79 145.38 C 136.57 146.12 139.02 146.02 139.99 148.01 C 141.45 150.87 140.64 154.50 139.16 157.21 C 136.50 160.92 131.52 161.47 127.32 161.87 C 124.05 161.84 120.89 160.75 118.28 158.78 C 123.80 157.02 131.03 159.08 134.93 153.72 C 129.91 152.95 124.94 151.94 119.99 150.81 C 117.51 150.47 114.50 149.64 112.38 151.44 C 111.06 153.05 110.52 155.13 109.69 157.02 C 112.54 158.51 115.40 160.43 116.51 163.61 C 118.66 167.96 117.01 172.79 116.08 177.23 C 114.86 181.35 114.08 185.92 110.96 189.12 C 109.77 181.40 112.20 173.67 111.36 165.97 C 110.18 161.40 105.21 164.62 102.22 165.13 C 104.84 166.81 107.83 168.74 108.46 172.06 C 109.58 179.23 107.16 186.31 105.11 193.10 C 104.39 195.66 103.24 198.07 101.77 200.29 C 100.51 191.82 102.98 183.40 103.33 174.95 C 103.55 172.66 101.25 170.66 99.02 171.14 C 95.68 171.03 92.52 172.18 89.60 173.67 C 92.50 174.24 96.16 174.12 97.97 176.95 C 102.23 182.21 99.62 189.16 98.50 195.06 C 96.73 200.81 96.26 206.89 94.18 212.54 C 90.73 202.93 94.48 192.75 94.77 182.94 C 94.81 180.96 92.74 179.71 90.96 179.66 C 86.98 179.57 83.09 180.68 79.20 181.43 C 76.70 186.63 77.29 192.50 76.64 198.07 C 75.71 207.89 73.91 217.61 72.34 227.34 C 76.82 230.48 80.93 234.51 82.27 240.02 C 77.48 236.67 73.11 231.93 66.95 231.37 C 61.18 231.03 56.51 235.05 52.70 238.89 C 62.93 237.91 73.82 239.53 82.30 245.67 C 87.70 238.02 94.02 231.02 101.29 225.10 C 102.49 216.02 104.69 207.09 107.57 198.41 C 107.98 196.89 109.17 195.80 110.20 194.69 C 109.36 203.62 107.35 212.40 106.45 221.34 C 110.77 217.74 115.53 214.25 118.06 209.07 C 120.90 203.45 119.30 197.01 119.67 191.00 C 119.52 182.05 122.34 173.26 126.81 165.59 L 127.65 167.03 C 129.66 174.54 127.38 182.33 127.26 189.96 C 126.70 197.34 128.77 205.25 125.24 212.16 C 121.73 220.60 113.08 224.79 106.73 230.75 C 105.16 232.00 105.47 234.20 105.30 235.97 C 105.22 248.69 104.94 261.52 107.47 274.07 C 108.59 283.02 111.88 291.45 114.59 300.00 L 108.04 300.00 C 103.63 289.19 101.57 277.60 100.26 266.04 C 99.41 256.36 99.94 246.62 99.86 236.91 C 92.65 244.57 85.71 252.86 81.75 262.72 C 76.73 274.70 73.65 287.36 70.83 300.00 L 63.45 300.00 C 63.47 299.46 63.51 298.38 63.54 297.84 C 55.20 298.54 46.85 299.13 38.52 300.00 L 29.96 300.00 C 33.88 282.23 34.19 263.97 35.45 245.89 C 35.74 244.65 35.29 242.77 36.83 242.24 C 39.42 240.77 42.63 240.82 45.15 239.30 C 48.65 235.80 51.51 231.57 55.74 228.87 C 58.29 227.19 61.34 226.64 64.27 225.97 C 66.49 217.51 67.45 208.80 68.74 200.17 C 69.82 193.02 68.82 185.42 71.81 178.65 C 74.34 173.71 80.53 172.92 83.92 168.83 C 86.80 165.36 91.80 165.12 94.82 161.85 C 96.33 160.41 97.97 159.11 99.74 157.99 C 103.90 155.84 102.59 149.96 105.87 146.95 C 109.65 142.54 115.79 142.53 121.09 143.05 C 121.21 137.55 120.57 131.93 121.82 126.51 M 122.83 139.01 L 121.70 138.01 C 121.66 139.78 121.62 141.56 121.50 143.34 C 124.83 144.21 128.18 145.00 131.53 145.81 C 135.38 138.34 137.73 127.89 131.29 121.14 C 125.97 125.50 123.70 132.42 122.83 139.01 M 42.97 247.51 C 42.76 262.38 41.30 277.21 39.29 291.94 C 45.55 291.49 51.79 290.82 58.05 290.43 C 60.52 290.27 62.98 290.07 65.43 289.79 C 69.11 275.17 73.38 260.42 81.17 247.40 C 75.69 246.58 70.18 245.84 64.64 245.63 C 57.39 245.63 50.02 245.59 42.97 247.51 Z" />
<path fill="#000000" opacity="1.00" d=" M 189.32 136.21 C 193.12 131.37 195.42 125.22 200.10 121.18 C 202.10 125.91 198.90 130.85 196.26 134.64 C 200.11 134.00 203.91 133.09 207.77 132.52 C 206.29 136.09 202.75 138.35 199.02 138.90 C 195.67 139.48 191.17 139.69 189.32 136.21 Z" />
<path fill="#000000" opacity="1.00" d=" M 56.29 139.04 C 62.88 134.61 69.34 130.03 75.43 124.91 C 75.47 125.52 75.56 126.72 75.61 127.32 C 71.88 134.07 64.68 140.93 56.29 139.04 Z" />
<path fill="#000000" opacity="1.00" d=" M 226.47 197.26 C 236.52 195.80 247.40 195.98 256.48 201.04 C 250.63 201.37 244.85 199.88 239.00 200.40 C 226.72 200.75 214.60 204.06 203.65 209.59 C 200.00 211.39 196.44 213.44 192.58 214.77 C 194.11 212.60 195.98 210.67 198.20 209.19 C 206.68 203.36 216.31 199.06 226.47 197.26 Z" />
<path fill="#000000" opacity="1.00" d=" M 236.94 212.30 C 243.08 211.04 248.97 208.70 255.20 207.85 C 253.13 210.05 250.60 211.74 247.82 212.89 C 240.15 216.19 232.04 218.64 223.70 219.40 C 219.78 219.48 215.85 219.38 211.96 218.96 C 213.87 217.91 215.90 217.05 218.05 216.64 C 224.39 215.38 230.68 213.91 236.94 212.30 Z" />
</g>
<g id="#a4adb2ff">
<path fill="#a4adb2" opacity="1.00" d=" M 278.49 22.14 C 285.37 23.81 291.97 26.40 298.51 29.08 C 284.12 52.23 269.58 75.28 255.12 98.39 C 247.68 95.26 239.91 92.92 232.02 91.25 C 247.43 68.16 263.08 45.23 278.49 22.14 Z" />
<path fill="#a4adb2" opacity="1.00" d=" M 262.53 101.33 C 277.19 78.53 291.36 55.40 305.84 32.48 C 307.55 33.49 309.26 34.49 310.98 35.49 C 295.92 58.09 281.07 80.83 266.20 103.56 C 264.97 102.81 263.75 102.07 262.53 101.33 Z" />
<path fill="#a4adb2" opacity="1.00" d=" M 60.03 96.88 C 59.87 95.39 61.44 94.65 62.59 95.45 C 65.44 97.20 67.23 100.19 69.80 102.30 C 72.49 104.96 76.37 105.55 79.89 106.42 C 79.00 111.43 76.55 116.00 75.71 121.02 C 80.20 117.88 83.24 113.06 84.46 107.75 C 88.43 104.63 92.01 101.01 96.20 98.16 C 97.22 97.28 98.60 97.32 99.86 97.14 L 99.72 97.36 C 96.09 103.12 93.02 109.25 88.70 114.56 C 85.92 118.21 82.15 121.21 80.36 125.53 C 79.87 127.86 80.58 130.27 80.90 132.59 C 80.80 132.80 80.60 133.21 80.50 133.42 L 80.31 133.81 C 78.74 131.65 76.97 129.63 75.61 127.32 C 75.56 126.72 75.47 125.52 75.43 124.91 C 69.34 130.03 62.88 134.61 56.29 139.04 C 56.20 139.11 56.01 139.25 55.91 139.32 C 58.09 134.86 61.41 131.03 63.27 126.41 C 64.15 122.00 63.71 117.42 63.83 112.94 C 64.29 107.21 59.24 102.61 60.03 96.88 Z" />
</g>
<g id="#ffffffff">
<path fill="#ffffff" opacity="1.00" d=" M 172.58 140.63 C 184.67 131.78 194.38 120.22 203.68 108.60 C 216.01 112.64 227.78 118.21 238.84 124.99 C 233.54 128.63 230.15 134.31 228.31 140.37 C 220.34 139.86 213.73 145.93 211.82 153.35 C 202.11 153.39 194.44 161.38 192.39 170.44 C 183.42 171.78 174.94 179.78 175.68 189.19 L 176.90 189.78 C 182.10 185.79 186.03 179.42 192.93 178.23 C 195.08 177.52 198.32 178.07 199.32 175.50 C 200.55 170.98 201.82 165.77 206.13 163.15 C 209.74 160.68 214.35 161.19 218.36 162.21 C 219.13 157.91 219.32 152.80 223.00 149.82 C 226.35 147.21 230.75 148.66 234.37 149.84 C 235.60 142.20 238.21 133.36 246.13 130.22 C 248.24 131.76 250.33 133.35 252.49 134.84 C 251.94 139.00 252.22 143.87 248.99 147.06 C 245.60 150.28 241.20 152.09 237.19 154.38 C 237.51 157.43 239.16 161.11 236.81 163.73 C 233.62 167.56 228.36 168.07 223.72 167.96 C 222.52 170.73 221.33 173.50 220.13 176.27 C 202.60 178.25 185.15 185.97 173.74 199.75 C 170.86 198.31 167.60 196.53 166.92 193.08 C 165.53 188.90 168.90 185.38 171.93 183.06 C 172.92 179.47 173.68 175.80 174.95 172.31 C 176.96 171.63 179.18 171.33 180.88 169.94 C 181.14 166.48 176.53 166.47 174.19 165.73 C 172.78 164.37 171.86 162.59 170.73 161.02 C 173.86 159.87 176.69 157.94 177.91 154.69 C 172.20 152.38 165.98 155.41 160.15 153.79 C 158.31 153.28 156.70 152.19 155.09 151.20 C 160.78 147.43 167.09 144.70 172.58 140.63 M 204.52 113.17 C 207.10 116.97 211.28 119.31 214.19 122.84 C 217.17 125.63 218.71 129.83 222.44 131.80 C 222.94 122.24 214.61 111.96 204.52 113.17 M 189.32 136.21 C 191.17 139.69 195.67 139.48 199.02 138.90 C 202.75 138.35 206.29 136.09 207.77 132.52 C 203.91 133.09 200.11 134.00 196.26 134.64 C 198.90 130.85 202.10 125.91 200.10 121.18 C 195.42 125.22 193.12 131.37 189.32 136.21 Z" />
<path fill="#ffffff" opacity="1.00" d=" M 122.83 139.01 C 123.70 132.42 125.97 125.50 131.29 121.14 C 137.73 127.89 135.38 138.34 131.53 145.81 C 128.18 145.00 124.83 144.21 121.50 143.34 C 121.62 141.56 121.66 139.78 121.70 138.01 L 122.83 139.01 Z" />
<path fill="#ffffff" opacity="1.00" d=" M 112.38 151.44 C 114.50 149.64 117.51 150.47 119.99 150.81 C 124.94 151.94 129.91 152.95 134.93 153.72 C 131.03 159.08 123.80 157.02 118.28 158.78 C 120.89 160.75 124.05 161.84 127.32 161.87 C 127.28 163.11 127.25 164.35 127.24 165.59 C 127.35 165.95 127.55 166.67 127.65 167.03 L 126.81 165.59 C 122.34 173.26 119.52 182.05 119.67 191.00 C 119.30 197.01 120.90 203.45 118.06 209.07 C 115.53 214.25 110.77 217.74 106.45 221.34 C 107.35 212.40 109.36 203.62 110.20 194.69 C 109.17 195.80 107.98 196.89 107.57 198.41 C 104.69 207.09 102.49 216.02 101.29 225.10 C 94.02 231.02 87.70 238.02 82.30 245.67 C 73.82 239.53 62.93 237.91 52.70 238.89 C 56.51 235.05 61.18 231.03 66.95 231.37 C 73.11 231.93 77.48 236.67 82.27 240.02 C 80.93 234.51 76.82 230.48 72.34 227.34 C 73.91 217.61 75.71 207.89 76.64 198.07 C 77.29 192.50 76.70 186.63 79.20 181.43 C 83.09 180.68 86.98 179.57 90.96 179.66 C 92.74 179.71 94.81 180.96 94.77 182.94 C 94.48 192.75 90.73 202.93 94.18 212.54 C 96.26 206.89 96.73 200.81 98.50 195.06 C 99.62 189.16 102.23 182.21 97.97 176.95 C 96.16 174.12 92.50 174.24 89.60 173.67 C 92.52 172.18 95.68 171.03 99.02 171.14 C 101.25 170.66 103.55 172.66 103.33 174.95 C 102.98 183.40 100.51 191.82 101.77 200.29 C 103.24 198.07 104.39 195.66 105.11 193.10 C 107.16 186.31 109.58 179.23 108.46 172.06 C 107.83 168.74 104.84 166.81 102.22 165.13 C 105.21 164.62 110.18 161.40 111.36 165.97 C 112.20 173.67 109.77 181.40 110.96 189.12 C 114.08 185.92 114.86 181.35 116.08 177.23 C 117.01 172.79 118.66 167.96 116.51 163.61 C 115.40 160.43 112.54 158.51 109.69 157.02 C 110.52 155.13 111.06 153.05 112.38 151.44 Z" />
<path fill="#ffffff" opacity="1.00" d=" M 180.83 203.78 C 192.96 189.93 211.73 184.01 229.66 183.22 C 230.57 183.45 232.40 183.92 233.31 184.15 C 224.83 190.91 213.19 191.10 204.53 197.53 C 201.02 199.73 198.79 203.29 196.97 206.90 C 197.28 207.48 197.89 208.62 198.20 209.19 C 195.98 210.67 194.11 212.60 192.58 214.77 C 196.44 213.44 200.00 211.39 203.65 209.59 C 214.72 210.15 226.69 206.52 236.94 212.30 C 230.68 213.91 224.39 215.38 218.05 216.64 C 215.90 217.05 213.87 217.91 211.96 218.96 C 215.85 219.38 219.78 219.48 223.70 219.40 C 224.72 219.51 225.75 219.63 226.77 219.77 C 227.76 246.52 228.95 273.26 230.06 300.00 L 165.81 300.00 C 177.30 294.89 189.70 292.28 202.11 290.57 C 204.29 290.41 206.27 289.45 208.06 288.25 C 197.83 284.94 186.63 285.34 176.35 288.25 C 176.43 262.82 176.39 237.38 176.37 211.95 C 176.13 208.59 178.96 206.21 180.83 203.78 Z" />
<path fill="#ffffff" opacity="1.00" d=" M 42.97 247.51 C 50.02 245.59 57.39 245.63 64.64 245.63 C 61.96 260.48 59.72 275.43 58.05 290.43 C 51.79 290.82 45.55 291.49 39.29 291.94 C 41.30 277.21 42.76 262.38 42.97 247.51 Z" />
</g>
<g id="#cacccbff">
<path fill="#cacccb" opacity="1.00" d=" M 252.49 134.84 C 256.32 137.97 260.04 141.26 263.46 144.86 C 258.83 147.92 253.63 149.84 248.56 152.03 C 254.88 154.89 262.76 154.47 268.43 150.32 C 275.00 158.13 280.68 166.70 285.17 175.87 C 286.28 177.87 285.04 180.17 283.85 181.82 C 280.43 186.32 274.10 187.96 268.81 186.18 C 265.73 184.00 262.98 181.31 259.46 179.80 C 264.12 176.92 268.99 172.89 269.73 167.11 C 270.28 164.44 269.19 161.86 267.87 159.61 C 265.59 169.31 255.68 175.99 245.96 175.85 C 237.37 175.10 228.69 175.10 220.13 176.27 C 221.33 173.50 222.52 170.73 223.72 167.96 C 228.36 168.07 233.62 167.56 236.81 163.73 C 239.16 161.11 237.51 157.43 237.19 154.38 C 241.20 152.09 245.60 150.28 248.99 147.06 C 252.22 143.87 251.94 139.00 252.49 134.84 Z" />
<path fill="#cacccb" opacity="1.00" d=" M 229.66 183.22 C 237.40 182.36 245.37 182.95 252.83 185.25 C 257.40 186.75 262.26 189.35 264.20 194.00 C 264.25 198.25 260.31 200.95 259.30 204.86 C 257.75 209.43 258.21 214.31 258.16 219.05 C 258.17 241.65 258.18 264.25 258.15 286.85 C 261.24 290.78 263.25 295.37 265.04 300.00 L 230.06 300.00 C 228.95 273.26 227.76 246.52 226.77 219.77 C 225.75 219.63 224.72 219.51 223.70 219.40 C 232.04 218.64 240.15 216.19 247.82 212.89 C 250.60 211.74 253.13 210.05 255.20 207.85 C 248.97 208.70 243.08 211.04 236.94 212.30 C 226.69 206.52 214.72 210.15 203.65 209.59 C 214.60 204.06 226.72 200.75 239.00 200.40 C 244.85 199.88 250.63 201.37 256.48 201.04 C 247.40 195.98 236.52 195.80 226.47 197.26 C 216.31 199.06 206.68 203.36 198.20 209.19 C 197.89 208.62 197.28 207.48 196.97 206.90 C 198.79 203.29 201.02 199.73 204.53 197.53 C 213.19 191.10 224.83 190.91 233.31 184.15 C 232.40 183.92 230.57 183.45 229.66 183.22 Z" />
<path fill="#cacccb" opacity="1.00" d=" M 64.64 245.63 C 70.18 245.84 75.69 246.58 81.17 247.40 C 73.38 260.42 69.11 275.17 65.43 289.79 C 62.98 290.07 60.52 290.27 58.05 290.43 C 59.72 275.43 61.96 260.48 64.64 245.63 Z" />
</g>
<g id="#b4282dff">
<path fill="#b4282d" opacity="1.00" d=" M 311.50 148.46 C 311.58 148.60 311.73 148.89 311.81 149.03 C 311.73 148.89 311.58 148.60 311.50 148.46 Z" />
<path fill="#b4282d" opacity="1.00" d=" M 312.16 149.69 C 312.34 150.05 312.71 150.78 312.89 151.15 C 312.71 150.78 312.34 150.05 312.16 149.69 Z" />
<path fill="#b4282d" opacity="1.00" d=" M 313.28 151.98 C 313.34 152.10 313.45 152.34 313.51 152.46 L 313.42 152.28 L 313.28 151.98 Z" />
<path fill="#b4282d" opacity="1.00" d=" M 265.67 275.88 C 279.51 280.23 291.45 289.18 300.94 300.00 L 283.28 300.00 C 279.83 297.01 276.56 293.80 272.74 291.28 C 270.04 289.34 266.75 287.45 265.88 284.00 C 265.44 281.31 265.65 278.58 265.67 275.88 Z" />
<path fill="#b4282d" opacity="1.00" d=" M 135.69 300.00 C 145.28 291.09 156.02 283.06 168.57 278.89 C 168.56 282.67 168.54 286.44 168.49 290.22 C 162.15 292.97 156.07 296.26 150.27 300.00 L 135.69 300.00 Z" />
<path fill="#b4282d" opacity="1.00" d=" M 271.03 293.98 C 272.81 295.97 274.51 298.05 276.35 300.00 L 272.87 300.00 C 272.18 298.01 271.59 296.00 271.03 293.98 Z" />
<path fill="#b4282d" opacity="1.00" d=" M 38.52 300.00 C 46.85 299.13 55.20 298.54 63.54 297.84 C 63.51 298.38 63.47 299.46 63.45 300.00 L 38.52 300.00 Z" />
</g>
</svg>
