<?xml version="1.0" encoding="UTF-8" ?>
<!DOCTYPE svg PUBLIC "-//W3C//DTD SVG 1.1//EN" "http://www.w3.org/Graphics/SVG/1.1/DTD/svg11.dtd">
<svg width="32pt" height="32pt" viewBox="0 0 32 32" version="1.1" xmlns="http://www.w3.org/2000/svg">
<g id="#000000ff">
<path fill="#000000" opacity="1.00" d=" M 18.83 10.48 C 21.54 9.09 24.34 6.89 27.56 7.50 C 30.29 7.89 30.72 11.27 32.00 13.21 L 32.00 14.43 C 30.33 13.65 28.64 12.88 27.03 11.98 C 26.46 13.67 25.92 15.36 25.39 17.06 C 26.14 17.82 26.89 18.57 27.65 19.33 C 27.61 20.61 27.57 21.88 27.53 23.16 C 27.03 23.52 26.01 24.25 25.50 24.61 C 26.28 22.43 26.71 20.08 25.14 18.07 C 25.03 18.97 24.81 20.77 24.70 21.67 C 22.57 21.75 20.45 21.89 18.33 22.03 C 20.28 21.30 22.27 20.71 24.28 20.15 C 20.85 18.54 17.34 17.07 13.68 16.10 C 14.07 16.33 14.84 16.80 15.23 17.03 C 14.92 17.96 14.32 19.81 14.01 20.74 C 15.04 21.93 16.03 23.14 17.00 24.38 C 16.22 24.09 14.66 23.51 13.88 23.22 C 13.75 23.83 13.48 25.07 13.35 25.68 C 12.48 23.19 11.53 20.72 10.66 18.23 C 10.09 15.90 9.37 13.62 8.67 11.34 C 7.90 13.16 7.06 14.96 6.25 16.77 C 3.91 16.88 1.51 16.70 0.01 14.64 C 1.05 14.49 3.14 14.20 4.18 14.05 C 5.79 12.90 7.25 11.41 9.16 10.77 C 12.34 10.10 15.61 10.53 18.83 10.48 Z" />
</g>
</svg>
