<?xml version="1.0" encoding="UTF-8" ?>
<!DOCTYPE svg PUBLIC "-//W3C//DTD SVG 1.1//EN" "http://www.w3.org/Graphics/SVG/1.1/DTD/svg11.dtd">
<svg width="48pt" height="48pt" viewBox="0 0 48 48" version="1.1" xmlns="http://www.w3.org/2000/svg">
<g id="#35496aff">
<path fill="#35496a" opacity="1.00" d=" M 11.97 6.00 C 16.34 6.00 20.72 6.00 25.09 6.00 C 26.87 13.55 28.56 21.12 30.33 28.67 C 32.89 21.10 35.47 13.53 38.15 6.00 C 41.43 6.00 44.72 6.00 48.00 6.00 L 48.00 6.40 C 43.98 17.92 40.09 29.49 36.05 41.00 C 31.76 41.00 27.47 41.00 23.18 41.00 C 21.32 33.35 19.67 25.65 17.84 17.99 C 15.18 25.66 12.59 33.35 9.87 41.00 C 6.58 41.00 3.29 41.00 0.00 41.00 L 0.00 40.60 C 4.03 29.08 7.92 17.51 11.97 6.00 Z" />
</g>
</svg>
