<?xml version="1.0" encoding="UTF-8" ?>
<!DOCTYPE svg PUBLIC "-//W3C//DTD SVG 1.1//EN" "http://www.w3.org/Graphics/SVG/1.1/DTD/svg11.dtd">
<svg width="16pt" height="16pt" viewBox="0 0 16 16" version="1.1" xmlns="http://www.w3.org/2000/svg">
<g id="#000000ff">
<path fill="#000000" opacity="1.00" d=" M 0.00 0.00 L 16.00 0.00 L 16.00 16.00 L 0.00 16.00 L 0.00 0.00 M 3.00 1.00 C 3.00 5.67 3.00 10.33 3.00 15.00 C 3.75 15.00 5.25 15.00 6.00 15.00 C 6.00 12.00 6.00 8.99 6.00 5.99 L 6.80 5.99 C 7.11 7.39 7.88 8.62 8.19 10.01 L 8.99 10.01 C 9.17 10.61 9.54 11.81 9.73 12.41 C 9.89 14.74 12.03 15.13 14.00 15.14 C 14.00 10.42 14.00 5.71 14.00 1.00 C 13.25 1.00 11.75 1.00 11.01 1.00 C 11.00 3.67 11.01 6.33 11.00 9.00 L 10.03 9.03 C 10.01 8.52 9.98 7.51 9.96 7.00 L 8.97 6.99 C 8.81 6.39 8.49 5.19 8.32 4.59 C 7.66 3.46 7.14 2.26 6.79 1.00 C 5.52 1.00 4.26 1.00 3.00 1.00 Z" />
</g>
<g id="#98a5f6ff">
<path fill="#98a5f6" opacity="1.00" d=" M 3.00 1.00 C 4.26 1.00 5.52 1.00 6.79 1.00 C 7.14 2.26 7.66 3.46 8.32 4.59 C 8.49 5.19 8.81 6.39 8.97 6.99 C 8.98 7.75 8.99 9.25 8.99 10.01 L 8.19 10.01 C 7.88 8.62 7.11 7.39 6.80 5.99 L 6.00 5.99 C 6.00 8.99 6.00 12.00 6.00 15.00 C 5.25 15.00 3.75 15.00 3.00 15.00 C 3.00 10.33 3.00 5.67 3.00 1.00 Z" />
</g>
<g id="#78d4f0ff">
<path fill="#78d4f0" opacity="1.00" d=" M 11.01 1.00 C 11.75 1.00 13.25 1.00 14.00 1.00 C 14.00 5.71 14.00 10.42 14.00 15.14 C 12.03 15.13 9.89 14.74 9.73 12.41 C 9.54 11.81 9.17 10.61 8.99 10.01 C 8.99 9.25 8.98 7.75 8.97 6.99 L 9.96 7.00 C 9.98 7.51 10.01 8.52 10.03 9.03 L 11.00 9.00 C 11.01 6.33 11.00 3.67 11.01 1.00 Z" />
</g>
</svg>
