<?xml version="1.0" encoding="UTF-8" ?>
<!DOCTYPE svg PUBLIC "-//W3C//DTD SVG 1.1//EN" "http://www.w3.org/Graphics/SVG/1.1/DTD/svg11.dtd">
<svg width="240pt" height="240pt" viewBox="0 0 240 240" version="1.1" xmlns="http://www.w3.org/2000/svg">
<g id="#fefefeff">
<path fill="#fefefe" opacity="1.00" d=" M 0.00 0.00 L 156.40 0.00 C 136.53 10.12 115.62 18.39 97.14 31.05 C 83.11 40.22 70.89 52.63 63.79 67.96 C 62.92 69.84 62.48 71.86 62.04 73.87 C 57.90 71.23 54.35 67.59 49.65 65.92 C 44.06 63.63 37.88 64.39 32.00 64.50 C 24.60 65.83 17.57 69.95 13.08 76.04 C 10.12 80.22 8.63 85.63 9.82 90.69 C 11.09 95.95 15.48 100.26 14.64 106.00 C 15.38 112.26 11.41 118.14 6.01 121.00 C 10.75 124.53 15.40 129.61 14.66 135.99 C 15.72 143.02 9.15 148.09 9.42 154.98 C 9.22 163.12 14.97 170.21 21.74 174.11 C 32.37 180.27 45.92 179.41 56.43 173.41 C 57.12 178.18 58.81 182.71 60.06 187.35 C 61.34 191.02 62.14 195.15 64.98 198.01 C 75.84 208.49 86.14 219.52 96.97 230.03 C 100.81 233.63 104.64 237.34 109.22 240.00 L 0.00 240.00 L 0.00 0.00 Z" />
<path fill="#fefefe" opacity="1.00" d=" M 166.53 0.00 L 240.00 0.00 L 240.00 240.00 L 115.65 240.00 C 120.83 237.70 126.37 236.43 131.61 234.32 C 157.19 224.11 180.99 209.63 202.33 192.26 C 207.45 187.77 212.38 182.95 216.33 177.38 C 219.46 173.17 218.07 167.66 219.36 162.88 C 220.76 157.34 220.26 151.62 220.79 145.99 C 221.91 139.38 221.58 132.67 221.63 126.00 C 221.59 120.23 221.73 114.42 220.80 108.70 C 220.39 104.29 220.59 99.81 219.43 95.50 C 214.87 70.06 203.95 46.03 189.04 25.01 C 182.58 15.79 175.08 7.32 166.53 0.00 Z" />
<path fill="#fefefe" opacity="1.00" d=" M 160.99 16.00 C 161.83 15.04 163.21 15.41 164.10 16.06 C 168.67 18.99 172.00 23.40 175.50 27.47 C 189.55 45.35 199.46 66.34 205.37 88.25 C 206.15 93.53 207.92 98.66 207.78 104.05 C 209.29 111.30 208.01 118.76 209.34 126.02 C 209.75 129.71 208.51 133.31 208.61 136.99 C 208.75 144.82 207.74 152.59 207.24 160.39 C 205.82 164.57 207.62 169.84 204.21 173.22 C 193.46 184.06 180.76 192.74 167.68 200.52 C 157.12 207.07 145.91 212.56 134.29 216.97 C 130.26 218.48 126.28 220.54 121.88 220.65 C 120.65 213.29 118.30 206.09 118.09 198.57 C 116.26 190.14 116.61 181.54 116.27 172.98 C 115.10 166.38 115.51 159.66 115.44 153.00 C 115.50 148.33 115.22 143.62 116.03 139.00 C 116.93 133.62 115.97 128.06 117.40 122.74 C 121.47 92.72 130.76 63.26 145.62 36.80 C 150.05 29.42 154.51 21.79 160.99 16.00 M 161.56 85.99 C 161.07 89.75 162.42 93.36 162.65 97.08 C 163.44 102.15 163.02 107.29 163.26 112.40 C 156.69 112.45 150.12 112.53 143.55 112.35 C 143.40 117.58 140.69 122.36 141.18 127.68 C 147.37 127.35 153.77 127.61 159.67 125.41 C 159.50 127.71 158.78 129.90 157.72 131.95 C 154.20 138.93 151.51 146.31 147.88 153.24 C 150.93 155.00 154.06 156.61 157.24 158.13 C 160.43 151.00 162.82 143.55 165.72 136.31 C 166.57 134.50 166.77 132.51 166.90 130.56 C 167.85 131.68 168.58 131.60 169.09 130.31 C 170.54 133.88 173.03 136.86 175.10 140.07 C 176.71 142.36 177.96 144.93 180.01 146.89 C 182.28 144.49 183.69 141.44 185.70 138.83 C 186.79 137.08 188.50 135.47 188.61 133.29 C 184.74 128.34 180.24 123.86 176.32 118.94 C 181.79 112.13 189.51 107.46 195.66 101.25 C 194.05 97.35 193.16 93.20 191.38 89.37 C 184.62 94.81 179.17 101.64 172.51 107.17 C 172.69 98.19 172.36 89.20 172.74 80.23 C 168.90 81.89 164.96 83.50 161.56 85.99 Z" />
<path fill="#fefefe" opacity="1.00" d=" M 81.82 59.89 C 94.50 43.15 113.42 33.04 131.51 23.25 C 130.29 27.14 126.60 29.26 123.58 31.64 C 114.49 38.57 104.87 44.79 96.10 52.15 C 85.93 61.37 77.92 72.89 72.90 85.68 C 71.30 88.77 70.85 92.99 67.43 94.67 C 69.72 82.27 74.06 69.96 81.82 59.89 Z" />
<path fill="#fefefe" opacity="1.00" d=" M 36.31 89.93 C 37.72 88.20 39.48 86.14 41.94 86.25 C 46.78 86.20 51.88 85.50 56.46 87.48 C 55.79 94.77 53.27 101.69 53.36 109.06 C 51.87 114.60 52.77 120.38 51.81 126.00 C 51.54 130.99 51.47 136.03 52.20 140.99 C 52.43 145.68 52.19 150.43 53.45 155.01 C 48.00 159.41 38.63 157.46 35.74 150.96 C 35.03 147.17 37.38 143.72 37.56 140.01 C 38.42 132.01 33.36 123.77 25.81 120.94 C 31.45 119.69 34.95 114.36 37.02 109.34 C 39.25 102.85 35.23 96.46 36.31 89.93 Z" />
</g>
<g id="#151515ff">
<path fill="#151515" opacity="1.00" d=" M 156.40 0.00 L 166.53 0.00 C 175.08 7.32 182.58 15.79 189.04 25.01 C 203.95 46.03 214.87 70.06 219.43 95.50 C 220.59 99.81 220.39 104.29 220.80 108.70 C 221.73 114.42 221.59 120.23 221.63 126.00 C 221.58 132.67 221.91 139.38 220.79 145.99 C 220.26 151.62 220.76 157.34 219.36 162.88 C 218.07 167.66 219.46 173.17 216.33 177.38 C 212.38 182.95 207.45 187.77 202.33 192.26 C 180.99 209.63 157.19 224.11 131.61 234.32 C 126.37 236.43 120.83 237.70 115.65 240.00 L 109.22 240.00 C 104.64 237.34 100.81 233.63 96.97 230.03 C 86.14 219.52 75.84 208.49 64.98 198.01 C 62.14 195.15 61.34 191.02 60.06 187.35 C 58.81 182.71 57.12 178.18 56.43 173.41 C 45.92 179.41 32.37 180.27 21.74 174.11 C 14.97 170.21 9.22 163.12 9.42 154.98 C 9.15 148.09 15.72 143.02 14.66 135.99 C 15.40 129.61 10.75 124.53 6.01 121.00 C 11.41 118.14 15.38 112.26 14.64 106.00 C 15.48 100.26 11.09 95.95 9.82 90.69 C 8.63 85.63 10.12 80.22 13.08 76.04 C 17.57 69.95 24.60 65.83 32.00 64.50 C 37.88 64.39 44.06 63.63 49.65 65.92 C 54.35 67.59 57.90 71.23 62.04 73.87 C 62.48 71.86 62.92 69.84 63.79 67.96 C 70.89 52.63 83.11 40.22 97.14 31.05 C 115.62 18.39 136.53 10.12 156.40 0.00 M 160.99 16.00 C 154.51 21.79 150.05 29.42 145.62 36.80 C 130.76 63.26 121.47 92.72 117.40 122.74 C 115.97 128.06 116.93 133.62 116.03 139.00 C 115.22 143.62 115.50 148.33 115.44 153.00 C 115.51 159.66 115.10 166.38 116.27 172.98 C 116.61 181.54 116.26 190.14 118.09 198.57 C 118.30 206.09 120.65 213.29 121.88 220.65 C 126.28 220.54 130.26 218.48 134.29 216.97 C 145.91 212.56 157.12 207.07 167.68 200.52 C 180.76 192.74 193.46 184.06 204.21 173.22 C 207.62 169.84 205.82 164.57 207.24 160.39 C 207.74 152.59 208.75 144.82 208.61 136.99 C 208.51 133.31 209.75 129.71 209.34 126.02 C 208.01 118.76 209.29 111.30 207.78 104.05 C 207.92 98.66 206.15 93.53 205.37 88.25 C 199.46 66.34 189.55 45.35 175.50 27.47 C 172.00 23.40 168.67 18.99 164.10 16.06 C 163.21 15.41 161.83 15.04 160.99 16.00 M 81.82 59.89 C 74.06 69.96 69.72 82.27 67.43 94.67 C 70.85 92.99 71.30 88.77 72.90 85.68 C 77.92 72.89 85.93 61.37 96.10 52.15 C 104.87 44.79 114.49 38.57 123.58 31.64 C 126.60 29.26 130.29 27.14 131.51 23.25 C 113.42 33.04 94.50 43.15 81.82 59.89 M 36.31 89.93 C 35.23 96.46 39.25 102.85 37.02 109.34 C 34.95 114.36 31.45 119.69 25.81 120.94 C 33.36 123.77 38.42 132.01 37.56 140.01 C 37.38 143.72 35.03 147.17 35.74 150.96 C 38.63 157.46 48.00 159.41 53.45 155.01 C 52.19 150.43 52.43 145.68 52.20 140.99 C 51.47 136.03 51.54 130.99 51.81 126.00 C 52.77 120.38 51.87 114.60 53.36 109.06 C 53.27 101.69 55.79 94.77 56.46 87.48 C 51.88 85.50 46.78 86.20 41.94 86.25 C 39.48 86.14 37.72 88.20 36.31 89.93 Z" />
<path fill="#151515" opacity="1.00" d=" M 161.56 85.99 C 164.96 83.50 168.90 81.89 172.74 80.23 C 172.36 89.20 172.69 98.19 172.51 107.17 C 179.17 101.64 184.62 94.81 191.38 89.37 C 193.16 93.20 194.05 97.35 195.66 101.25 C 189.51 107.46 181.79 112.13 176.32 118.94 C 180.24 123.86 184.74 128.34 188.61 133.29 C 188.50 135.47 186.79 137.08 185.70 138.83 C 183.69 141.44 182.28 144.49 180.01 146.89 C 177.96 144.93 176.71 142.36 175.10 140.07 C 173.03 136.86 170.54 133.88 169.09 130.31 C 168.58 131.60 167.85 131.68 166.90 130.56 C 166.77 132.51 166.57 134.50 165.72 136.31 C 162.82 143.55 160.43 151.00 157.24 158.13 C 154.06 156.61 150.93 155.00 147.88 153.24 C 151.51 146.31 154.20 138.93 157.72 131.95 C 158.78 129.90 159.50 127.71 159.67 125.41 C 153.77 127.61 147.37 127.35 141.18 127.68 C 140.69 122.36 143.40 117.58 143.55 112.35 C 150.12 112.53 156.69 112.45 163.26 112.40 C 163.02 107.29 163.44 102.15 162.65 97.08 C 162.42 93.36 161.07 89.75 161.56 85.99 Z" />
</g>
</svg>
