<?xml version="1.0" encoding="UTF-8" ?>
<!DOCTYPE svg PUBLIC "-//W3C//DTD SVG 1.1//EN" "http://www.w3.org/Graphics/SVG/1.1/DTD/svg11.dtd">
<svg width="256pt" height="256pt" viewBox="0 0 256 256" version="1.1" xmlns="http://www.w3.org/2000/svg">
<g id="#ffffffff">
<path fill="#ffffff" opacity="1.00" d=" M 0.00 0.00 L 256.00 0.00 L 256.00 256.00 L 0.00 256.00 L 0.00 0.00 M 151.54 28.78 C 117.35 31.04 83.15 33.25 48.95 35.46 C 44.44 35.76 39.42 35.61 35.73 38.67 C 32.23 41.24 31.21 45.85 31.27 49.96 C 30.84 89.30 30.55 128.63 30.17 167.97 C 30.09 172.49 29.71 177.20 31.39 181.50 C 33.42 187.06 37.34 191.59 40.81 196.27 C 48.60 206.52 56.28 216.84 64.11 227.06 C 67.58 231.58 73.59 232.75 78.99 232.37 C 123.35 230.09 167.72 227.78 212.09 225.49 C 215.86 225.25 219.82 224.33 222.67 221.69 C 225.52 218.92 226.14 214.75 226.13 210.97 C 226.61 164.31 226.92 117.66 227.37 71.01 C 227.80 67.05 224.74 64.27 221.83 62.20 C 209.44 53.21 196.96 44.35 184.54 35.39 C 180.69 32.54 176.68 29.58 171.88 28.62 C 165.15 27.36 158.30 28.52 151.54 28.78 Z" />
<path fill="#ffffff" opacity="1.00" d=" M 52.17 46.68 C 88.81 44.23 125.47 41.98 162.11 39.55 C 167.67 39.08 173.52 40.35 177.97 43.83 C 184.87 49.05 191.99 54.00 198.77 59.36 C 199.03 59.84 199.55 60.80 199.81 61.28 C 161.23 63.57 122.60 65.25 84.00 67.39 C 79.75 67.52 75.37 68.16 71.22 66.94 C 66.23 65.00 62.58 60.90 58.35 57.78 C 55.03 54.83 51.11 52.51 48.30 49.02 C 49.31 47.83 50.47 46.62 52.17 46.68 Z" />
<path fill="#ffffff" opacity="1.00" d=" M 191.63 75.87 C 197.08 75.63 202.53 75.25 207.98 75.12 C 210.04 74.95 212.39 75.98 213.02 78.09 C 214.17 81.25 213.67 84.70 213.68 87.99 C 213.38 123.67 213.05 159.35 212.74 195.03 C 212.63 198.93 213.15 203.03 211.76 206.76 C 210.50 209.76 207.11 210.65 204.15 210.68 C 163.10 212.70 122.05 214.71 81.00 216.74 C 77.89 216.87 74.10 216.77 72.01 214.09 C 70.12 211.84 70.62 208.69 70.50 205.97 C 70.84 167.30 71.14 128.63 71.49 89.96 C 71.52 87.84 71.59 85.56 72.81 83.74 C 74.29 81.97 76.75 81.56 78.94 81.48 C 116.50 79.61 154.07 77.75 191.63 75.87 M 165.98 98.34 C 162.02 98.47 159.23 102.34 159.52 106.14 C 163.07 106.60 166.62 107.03 170.16 107.51 C 169.89 125.85 169.79 144.20 169.64 162.54 C 156.37 141.67 142.87 120.94 129.67 100.02 C 120.80 100.35 111.96 101.05 103.10 101.48 C 100.48 101.67 97.51 101.57 95.46 103.50 C 93.41 105.29 93.14 108.17 92.91 110.70 C 96.32 111.07 99.73 111.38 103.14 111.67 C 102.99 137.86 102.64 164.05 102.48 190.25 C 99.81 190.97 97.08 191.50 94.49 192.48 C 92.40 193.74 92.14 196.28 92.08 198.48 C 102.07 198.13 112.05 197.58 122.03 197.05 C 126.00 197.02 129.58 194.10 130.21 190.14 C 126.02 189.11 121.83 188.14 117.63 187.17 C 117.86 167.40 117.95 147.63 118.16 127.86 C 130.93 148.13 143.49 168.54 156.23 188.84 C 158.78 192.33 161.52 196.48 166.06 197.37 C 172.07 198.47 177.97 196.04 183.25 193.43 C 183.63 164.16 183.77 134.88 184.05 105.60 C 186.94 105.08 189.86 104.58 192.65 103.64 C 193.77 101.58 194.13 99.27 193.87 96.96 C 184.57 97.36 175.27 97.78 165.98 98.34 Z" />
</g>
<g id="#0c0c0cff">
<path fill="#0c0c0c" opacity="1.00" d=" M 151.54 28.78 C 158.30 28.52 165.15 27.36 171.88 28.62 C 176.68 29.58 180.69 32.54 184.54 35.39 C 196.96 44.35 209.44 53.21 221.83 62.20 C 224.74 64.27 227.80 67.05 227.37 71.01 C 226.92 117.66 226.61 164.31 226.13 210.97 C 226.14 214.75 225.52 218.92 222.67 221.69 C 219.82 224.33 215.86 225.25 212.09 225.49 C 167.72 227.78 123.35 230.09 78.99 232.37 C 73.59 232.75 67.58 231.58 64.11 227.06 C 56.28 216.84 48.60 206.52 40.81 196.27 C 37.34 191.59 33.42 187.06 31.39 181.50 C 29.71 177.20 30.09 172.49 30.17 167.97 C 30.55 128.63 30.84 89.30 31.27 49.96 C 31.21 45.85 32.23 41.24 35.73 38.67 C 39.42 35.61 44.44 35.76 48.95 35.46 C 83.15 33.25 117.35 31.04 151.54 28.78 M 52.17 46.68 C 50.47 46.62 49.31 47.83 48.30 49.02 C 51.11 52.51 55.03 54.83 58.35 57.78 C 62.58 60.90 66.23 65.00 71.22 66.94 C 75.37 68.16 79.75 67.52 84.00 67.39 C 122.60 65.25 161.23 63.57 199.81 61.28 C 199.55 60.80 199.03 59.84 198.77 59.36 C 191.99 54.00 184.87 49.05 177.97 43.83 C 173.52 40.35 167.67 39.08 162.11 39.55 C 125.47 41.98 88.81 44.23 52.17 46.68 M 191.63 75.87 C 154.07 77.75 116.50 79.61 78.94 81.48 C 76.75 81.56 74.29 81.97 72.81 83.74 C 71.59 85.56 71.52 87.84 71.49 89.96 C 71.14 128.63 70.84 167.30 70.50 205.97 C 70.62 208.69 70.12 211.84 72.01 214.09 C 74.10 216.77 77.89 216.87 81.00 216.74 C 122.05 214.71 163.10 212.70 204.15 210.68 C 207.11 210.65 210.50 209.76 211.76 206.76 C 213.15 203.03 212.63 198.93 212.74 195.03 C 213.05 159.35 213.38 123.67 213.68 87.99 C 213.67 84.70 214.17 81.25 213.02 78.09 C 212.39 75.98 210.04 74.95 207.98 75.12 C 202.53 75.25 197.08 75.63 191.63 75.87 Z" />
<path fill="#0c0c0c" opacity="1.00" d=" M 165.98 98.34 C 175.27 97.78 184.57 97.36 193.87 96.96 C 194.13 99.27 193.77 101.58 192.65 103.64 C 189.86 104.58 186.94 105.08 184.05 105.60 C 183.77 134.88 183.63 164.16 183.25 193.43 C 177.97 196.04 172.07 198.47 166.06 197.37 C 161.52 196.48 158.78 192.33 156.23 188.84 C 143.49 168.54 130.93 148.13 118.16 127.86 C 117.95 147.63 117.86 167.40 117.63 187.17 C 121.83 188.14 126.02 189.11 130.21 190.14 C 129.58 194.10 126.00 197.02 122.03 197.05 C 112.05 197.58 102.07 198.13 92.08 198.48 C 92.14 196.28 92.40 193.74 94.49 192.48 C 97.08 191.50 99.81 190.97 102.48 190.25 C 102.64 164.05 102.99 137.86 103.14 111.67 C 99.73 111.38 96.32 111.07 92.91 110.70 C 93.14 108.17 93.41 105.29 95.46 103.50 C 97.51 101.57 100.48 101.67 103.10 101.48 C 111.96 101.05 120.80 100.35 129.67 100.02 C 142.87 120.94 156.37 141.67 169.64 162.54 C 169.79 144.20 169.89 125.85 170.16 107.51 C 166.62 107.03 163.07 106.60 159.52 106.14 C 159.23 102.34 162.02 98.47 165.98 98.34 Z" />
</g>
</svg>
