<?xml version="1.0" encoding="UTF-8" ?>
<!DOCTYPE svg PUBLIC "-//W3C//DTD SVG 1.1//EN" "http://www.w3.org/Graphics/SVG/1.1/DTD/svg11.dtd">
<svg width="64pt" height="64pt" viewBox="0 0 64 64" version="1.1" xmlns="http://www.w3.org/2000/svg">
<g id="#444444ff">
<path fill="#444444" opacity="1.00" d=" M 42.66 18.41 C 44.88 17.37 46.78 15.70 49.23 15.14 C 52.37 18.78 51.69 23.80 51.27 28.23 C 47.71 40.11 32.39 46.50 21.59 40.14 C 20.53 42.23 19.16 44.18 16.84 44.96 C 16.14 43.61 15.27 42.35 14.34 41.15 C 15.72 39.98 17.22 38.91 18.34 37.48 C 18.93 34.21 17.51 30.52 19.42 27.52 C 21.36 23.69 25.18 21.26 29.07 19.75 C 33.59 19.26 38.16 19.20 42.66 18.41 M 23.01 35.91 C 26.64 35.53 28.33 31.80 31.39 30.28 C 34.04 28.48 37.29 28.36 40.38 28.34 C 40.48 27.83 40.68 26.83 40.78 26.32 C 33.74 25.85 26.31 29.59 23.01 35.91 Z" />
</g>
</svg>
