<?xml version="1.0" encoding="UTF-8" ?>
<!DOCTYPE svg PUBLIC "-//W3C//DTD SVG 1.1//EN" "http://www.w3.org/Graphics/SVG/1.1/DTD/svg11.dtd">
<svg width="64pt" height="64pt" viewBox="0 0 64 64" version="1.1" xmlns="http://www.w3.org/2000/svg">
<g id="#3d444cff">
<path fill="#3d444c" opacity="1.00" d=" M 0.00 0.00 L 64.00 0.00 L 64.00 32.49 C 59.31 29.93 54.85 26.90 49.95 24.75 C 49.53 25.07 48.69 25.73 48.28 26.06 C 51.00 29.63 55.86 30.80 59.49 33.32 C 55.65 35.44 51.79 37.55 48.12 39.97 C 48.43 40.52 49.04 41.63 49.35 42.18 C 54.41 39.80 59.24 36.97 64.00 34.05 L 64.00 64.00 L 0.00 64.00 L 0.00 34.03 C 4.89 36.55 9.32 40.21 14.62 41.77 C 15.05 41.35 15.90 40.52 16.32 40.11 C 12.53 37.69 8.59 35.51 4.65 33.33 C 8.36 31.09 12.41 29.38 15.81 26.66 C 15.91 25.45 14.36 24.10 13.28 25.12 C 8.74 27.45 4.30 29.99 0.00 32.73 L 0.00 0.00 M 6.70 24.81 C 9.04 23.48 11.38 22.14 13.75 20.88 C 10.49 18.54 9.55 14.48 10.66 10.73 C 6.22 13.90 4.09 19.77 6.70 24.81 M 53.43 10.77 C 54.64 14.51 53.60 18.56 50.36 20.87 C 52.74 22.13 55.07 23.47 57.42 24.79 C 60.11 19.78 57.90 13.86 53.43 10.77 M 22.37 18.56 C 20.96 18.66 19.55 18.75 18.13 18.87 C 17.76 28.26 18.09 37.66 17.94 47.05 C 18.04 48.54 17.73 50.16 18.41 51.55 C 22.82 52.44 27.44 51.69 31.94 51.93 C 36.68 51.69 41.53 52.51 46.19 51.38 C 45.94 45.25 46.34 39.11 45.99 32.98 C 45.46 32.87 44.39 32.64 43.86 32.53 C 43.63 38.23 43.89 43.94 43.68 49.65 C 35.93 49.65 28.19 49.67 20.44 49.64 C 20.23 40.09 20.36 30.54 20.38 20.99 C 22.24 20.56 23.09 21.51 23.09 23.41 C 24.42 23.17 25.18 22.36 25.37 20.96 C 26.01 20.96 27.27 20.95 27.90 20.95 C 28.06 21.47 28.37 22.49 28.53 23.01 C 30.25 24.02 30.53 21.98 30.76 20.81 C 31.38 20.88 32.60 21.04 33.21 21.11 C 33.75 22.15 34.04 23.71 35.61 23.08 C 35.76 22.55 36.06 21.48 36.21 20.95 C 36.87 20.95 38.18 20.95 38.84 20.95 C 38.61 24.02 42.17 23.70 41.70 20.70 C 43.78 20.79 43.93 23.59 46.16 23.36 C 46.22 21.90 46.09 20.46 45.76 19.05 C 44.51 18.54 43.13 18.66 41.81 18.51 C 41.35 18.07 40.43 17.19 39.97 16.74 C 39.66 17.22 39.04 18.18 38.73 18.65 C 38.12 18.66 36.91 18.67 36.31 18.68 C 36.01 18.20 35.42 17.25 35.13 16.78 C 33.52 19.21 30.64 18.96 28.91 16.83 C 28.66 17.28 28.14 18.18 27.88 18.63 C 27.26 18.64 26.02 18.67 25.40 18.68 C 25.06 18.17 24.37 17.15 24.03 16.63 C 23.62 17.11 22.79 18.08 22.37 18.56 M 43.30 26.14 C 40.29 28.84 37.62 31.89 34.68 34.67 C 32.81 36.60 30.32 38.39 30.24 41.36 C 33.54 41.40 35.39 38.51 37.52 36.48 C 40.27 33.51 43.41 30.90 45.98 27.76 C 46.92 26.18 44.21 24.70 43.30 26.14 M 23.81 29.07 C 24.10 29.53 24.67 30.46 24.96 30.92 C 28.25 31.14 31.57 31.17 34.85 30.83 C 34.98 30.34 35.24 29.36 35.37 28.87 C 31.52 28.64 27.64 28.45 23.81 29.07 M 24.45 35.35 C 23.49 38.17 28.09 37.35 29.78 36.87 C 30.09 33.98 26.08 34.58 24.45 35.35 M 24.09 42.75 C 25.57 44.01 27.60 43.21 29.32 43.14 C 29.25 40.47 24.34 40.00 24.09 42.75 Z" />
</g>
<g id="#ffffffff">
<path fill="#ffffff" opacity="1.00" d=" M 6.70 24.81 C 4.09 19.77 6.22 13.90 10.66 10.73 C 9.55 14.48 10.49 18.54 13.75 20.88 C 11.38 22.14 9.04 23.48 6.70 24.81 Z" />
<path fill="#ffffff" opacity="1.00" d=" M 53.43 10.77 C 57.90 13.86 60.11 19.78 57.42 24.79 C 55.07 23.47 52.74 22.13 50.36 20.87 C 53.60 18.56 54.64 14.51 53.43 10.77 Z" />
<path fill="#ffffff" opacity="1.00" d=" M 22.37 18.56 C 22.79 18.08 23.62 17.11 24.03 16.63 C 24.37 17.15 25.06 18.17 25.40 18.68 C 26.02 18.67 27.26 18.64 27.88 18.63 C 28.14 18.18 28.66 17.28 28.91 16.83 C 30.64 18.96 33.52 19.21 35.13 16.78 C 35.42 17.25 36.01 18.20 36.31 18.68 C 36.91 18.67 38.12 18.66 38.73 18.65 C 39.04 18.18 39.66 17.22 39.97 16.74 C 40.43 17.19 41.35 18.07 41.81 18.51 C 43.13 18.66 44.51 18.54 45.76 19.05 C 46.09 20.46 46.22 21.90 46.16 23.36 C 43.93 23.59 43.78 20.79 41.70 20.70 C 42.17 23.70 38.61 24.02 38.84 20.95 C 38.18 20.95 36.87 20.95 36.21 20.95 C 36.06 21.48 35.76 22.55 35.61 23.08 C 34.04 23.71 33.75 22.15 33.21 21.11 C 32.60 21.04 31.38 20.88 30.76 20.81 C 30.53 21.98 30.25 24.02 28.53 23.01 C 28.37 22.49 28.06 21.47 27.90 20.95 C 27.27 20.95 26.01 20.96 25.37 20.96 C 25.18 22.36 24.42 23.17 23.09 23.41 C 23.09 21.51 22.24 20.56 20.38 20.99 C 20.36 30.54 20.23 40.09 20.44 49.64 C 28.19 49.67 35.93 49.65 43.68 49.65 C 43.89 43.94 43.63 38.23 43.86 32.53 C 44.39 32.64 45.46 32.87 45.99 32.98 C 46.34 39.11 45.94 45.25 46.19 51.38 C 41.53 52.51 36.68 51.69 31.94 51.93 C 27.44 51.69 22.82 52.44 18.41 51.55 C 17.73 50.16 18.04 48.54 17.94 47.05 C 18.09 37.66 17.76 28.26 18.13 18.87 C 19.55 18.75 20.96 18.66 22.37 18.56 Z" />
<path fill="#ffffff" opacity="1.00" d=" M 24.45 35.35 C 26.08 34.58 30.09 33.98 29.78 36.87 C 28.09 37.35 23.49 38.17 24.45 35.35 Z" />
<path fill="#ffffff" opacity="1.00" d=" M 24.09 42.75 C 24.34 40.00 29.25 40.47 29.32 43.14 C 27.60 43.21 25.57 44.01 24.09 42.75 Z" />
</g>
<g id="#fe5000ff">
<path fill="#fe5000" opacity="1.00" d=" M 0.00 32.73 C 4.30 29.99 8.74 27.45 13.28 25.12 C 14.36 24.10 15.91 25.45 15.81 26.66 C 12.41 29.38 8.36 31.09 4.65 33.33 C 8.59 35.51 12.53 37.69 16.32 40.11 C 15.90 40.52 15.05 41.35 14.62 41.77 C 9.32 40.21 4.89 36.55 0.00 34.03 L 0.00 32.73 Z" />
<path fill="#fe5000" opacity="1.00" d=" M 48.28 26.06 C 48.69 25.73 49.53 25.07 49.95 24.75 C 54.85 26.90 59.31 29.93 64.00 32.49 L 64.00 34.05 C 59.24 36.97 54.41 39.80 49.35 42.18 C 49.04 41.63 48.43 40.52 48.12 39.97 C 51.79 37.55 55.65 35.44 59.49 33.32 C 55.86 30.80 51.00 29.63 48.28 26.06 Z" />
</g>
<g id="#fb5001ff">
<path fill="#fb5001" opacity="1.00" d=" M 43.30 26.14 C 44.21 24.70 46.92 26.18 45.98 27.76 C 43.41 30.90 40.27 33.51 37.52 36.48 C 35.39 38.51 33.54 41.40 30.24 41.36 C 30.32 38.39 32.81 36.60 34.68 34.67 C 37.62 31.89 40.29 28.84 43.30 26.14 Z" />
</g>
<g id="#f4f4f5ff">
<path fill="#f4f4f5" opacity="1.00" d=" M 23.81 29.07 C 27.64 28.45 31.52 28.64 35.37 28.87 C 35.24 29.36 34.98 30.34 34.85 30.83 C 31.57 31.17 28.25 31.14 24.96 30.92 C 24.67 30.46 24.10 29.53 23.81 29.07 Z" />
</g>
</svg>
