<?xml version="1.0" encoding="UTF-8" ?>
<!DOCTYPE svg PUBLIC "-//W3C//DTD SVG 1.1//EN" "http://www.w3.org/Graphics/SVG/1.1/DTD/svg11.dtd">
<svg width="16pt" height="16pt" viewBox="0 0 16 16" version="1.1" xmlns="http://www.w3.org/2000/svg">
<g id="#7d0000ff">
<path fill="#7d0000" opacity="1.00" d=" M 5.53 0.00 L 8.89 0.00 C 9.25 0.26 9.96 0.79 10.31 1.05 L 11.18 0.67 C 13.93 1.47 15.09 4.14 16.00 6.59 L 16.00 8.84 C 15.18 11.51 13.31 13.58 11.16 15.27 L 10.30 14.92 C 9.95 15.19 9.26 15.73 8.92 16.00 L 5.55 16.00 C 2.89 14.71 1.01 12.42 0.00 9.67 L 0.00 6.24 C 0.65 3.31 2.80 1.12 5.53 0.00 M 2.14 3.14 C 1.64 4.77 2.20 5.33 3.83 4.82 C 4.33 3.19 3.77 2.63 2.14 3.14 M 5.00 3.00 C 5.00 3.55 5.00 4.66 5.00 5.21 C 5.51 4.86 6.52 4.16 7.02 3.82 C 7.04 6.61 7.05 9.40 7.04 12.19 C 6.53 11.84 5.51 11.14 5.00 10.79 C 5.00 11.34 5.00 12.45 5.00 13.00 C 6.66 13.00 8.33 13.00 9.99 13.00 C 10.00 12.45 10.00 11.36 10.01 10.81 C 9.49 11.16 8.45 11.85 7.94 12.20 C 7.91 9.39 7.90 6.59 7.91 3.79 C 8.43 4.14 9.48 4.84 10.01 5.19 C 10.01 4.64 10.00 3.55 9.99 3.00 C 8.33 3.00 6.66 3.00 5.00 3.00 M 11.14 3.11 C 10.65 4.77 11.22 5.33 12.83 4.82 C 13.31 3.17 12.74 2.60 11.14 3.11 M 1.99 6.00 C 2.00 6.57 2.03 7.72 2.04 8.29 C 3.10 7.91 4.12 7.46 5.11 6.93 C 5.07 7.46 5.00 8.51 4.97 9.04 C 4.23 9.03 2.74 9.02 2.00 9.01 L 1.99 10.06 C 3.33 10.01 4.66 9.96 6.00 9.92 C 6.00 8.61 6.00 7.31 6.00 6.00 C 4.66 6.00 3.33 6.00 1.99 6.00 M 9.00 6.00 C 9.00 7.31 9.00 8.63 9.00 9.94 C 10.34 9.96 11.68 9.98 13.01 10.00 L 12.99 9.07 C 12.24 9.06 10.73 9.03 9.97 9.01 C 9.94 8.49 9.88 7.43 9.84 6.90 C 10.85 7.43 11.89 7.90 12.96 8.29 C 12.97 7.72 13.00 6.57 13.01 6.00 C 11.67 6.00 10.34 6.00 9.00 6.00 M 2.14 11.18 C 1.64 12.83 2.20 13.38 3.82 12.83 C 4.32 11.19 3.76 10.64 2.14 11.18 M 11.18 11.16 C 10.65 12.79 11.20 13.35 12.84 12.85 C 13.36 11.23 12.81 10.66 11.18 11.16 Z" />
</g>
<g id="#932d2dff">
<path fill="#932d2d" opacity="1.00" d=" M 8.89 0.00 L 10.74 0.00 L 11.18 0.67 L 10.31 1.05 C 9.96 0.79 9.25 0.26 8.89 0.00 Z" />
<path fill="#932d2d" opacity="1.00" d=" M 8.92 16.00 C 9.26 15.73 9.95 15.19 10.30 14.92 L 11.16 15.27 L 10.74 16.00 L 8.92 16.00 Z" />
</g>
<g id="#ffffffff">
<path fill="#ffffff" opacity="1.00" d=" M 2.14 3.14 C 3.77 2.63 4.33 3.19 3.83 4.82 C 2.20 5.33 1.64 4.77 2.14 3.14 Z" />
<path fill="#ffffff" opacity="1.00" d=" M 11.14 3.11 C 12.74 2.60 13.31 3.17 12.83 4.82 C 11.22 5.33 10.65 4.77 11.14 3.11 Z" />
<path fill="#ffffff" opacity="1.00" d=" M 1.99 6.00 C 3.33 6.00 4.66 6.00 6.00 6.00 C 6.00 7.31 6.00 8.61 6.00 9.92 C 4.66 9.96 3.33 10.01 1.99 10.06 L 2.00 9.01 C 2.74 9.02 4.23 9.03 4.97 9.04 C 5.00 8.51 5.07 7.46 5.11 6.93 C 4.12 7.46 3.10 7.91 2.04 8.29 C 2.03 7.72 2.00 6.57 1.99 6.00 Z" />
<path fill="#ffffff" opacity="1.00" d=" M 9.00 6.00 C 10.34 6.00 11.67 6.00 13.01 6.00 C 13.00 6.57 12.97 7.72 12.96 8.29 C 11.89 7.90 10.85 7.43 9.84 6.90 C 9.88 7.43 9.94 8.49 9.97 9.01 C 10.73 9.03 12.24 9.06 12.99 9.07 L 13.01 10.00 C 11.68 9.98 10.34 9.96 9.00 9.94 C 9.00 8.63 9.00 7.31 9.00 6.00 Z" />
<path fill="#ffffff" opacity="1.00" d=" M 2.14 11.18 C 3.76 10.64 4.32 11.19 3.82 12.83 C 2.20 13.38 1.64 12.83 2.14 11.18 Z" />
<path fill="#ffffff" opacity="1.00" d=" M 11.18 11.16 C 12.81 10.66 13.36 11.23 12.84 12.85 C 11.20 13.35 10.65 12.79 11.18 11.16 Z" />
</g>
<g id="#f7efefff">
<path fill="#f7efef" opacity="1.00" d=" M 5.00 3.00 C 6.66 3.00 8.33 3.00 9.99 3.00 C 10.00 3.55 10.01 4.64 10.01 5.19 C 9.48 4.84 8.43 4.14 7.91 3.79 C 7.90 6.59 7.91 9.39 7.94 12.20 C 8.45 11.85 9.49 11.16 10.01 10.81 C 10.00 11.36 10.00 12.45 9.99 13.00 C 8.33 13.00 6.66 13.00 5.00 13.00 C 5.00 12.45 5.00 11.34 5.00 10.79 C 5.51 11.14 6.53 11.84 7.04 12.19 C 7.05 9.40 7.04 6.61 7.02 3.82 C 6.52 4.16 5.51 4.86 5.00 5.21 C 5.00 4.66 5.00 3.55 5.00 3.00 Z" />
</g>
</svg>
