<?xml version="1.0" encoding="UTF-8" ?>
<!DOCTYPE svg PUBLIC "-//W3C//DTD SVG 1.1//EN" "http://www.w3.org/Graphics/SVG/1.1/DTD/svg11.dtd">
<svg width="32pt" height="32pt" viewBox="0 0 32 32" version="1.1" xmlns="http://www.w3.org/2000/svg">
<g id="#390261ff">
<path fill="#390261" opacity="1.00" d=" M 5.44 0.24 C 7.90 0.33 10.49 -0.04 12.85 0.85 C 14.50 2.13 15.03 4.24 15.70 6.11 C 17.29 11.13 19.18 16.04 21.10 20.94 C 21.42 14.04 21.78 7.15 22.16 0.25 C 24.76 0.39 29.28 -0.55 29.56 3.18 C 29.18 12.84 27.45 22.40 26.33 32.00 L 20.22 32.00 C 18.17 31.30 17.52 29.10 16.72 27.32 C 14.70 22.32 12.58 17.35 10.51 12.38 C 10.09 18.91 9.90 25.46 9.67 32.00 L 4.65 32.00 C 3.02 31.39 1.75 29.84 2.11 28.01 C 2.97 18.73 4.63 9.54 5.44 0.24 Z" />
</g>
</svg>
