<?xml version="1.0" encoding="UTF-8" ?>
<!DOCTYPE svg PUBLIC "-//W3C//DTD SVG 1.1//EN" "http://www.w3.org/Graphics/SVG/1.1/DTD/svg11.dtd">
<svg width="32pt" height="32pt" viewBox="0 0 32 32" version="1.1" xmlns="http://www.w3.org/2000/svg">
<g id="#00b17fe5">
<path fill="#00b17f" opacity="0.90" d=" M 12.96 3.63 C 16.28 4.06 16.65 8.27 18.39 10.56 L 18.19 10.90 C 17.96 11.30 17.49 12.12 17.25 12.52 C 16.10 10.31 14.90 8.14 13.64 5.99 C 10.05 12.59 6.28 19.07 2.65 25.64 C 5.02 25.66 7.39 25.64 9.77 25.71 L 10.53 27.62 C 7.31 26.99 2.46 29.18 0.40 26.05 C 4.21 18.40 8.55 10.96 12.96 3.63 Z" />
</g>
<g id="#0e7868e3">
<path fill="#0e7868" opacity="0.89" d=" M 18.39 10.56 C 19.15 9.47 19.57 7.84 21.03 7.50 C 22.47 7.77 22.94 9.31 23.64 10.38 C 26.38 15.44 29.29 20.40 32.00 25.48 L 32.00 27.08 C 30.26 27.67 28.43 27.73 26.61 27.66 L 27.00 25.74 C 27.74 25.73 29.22 25.70 29.96 25.68 C 26.95 20.41 24.08 15.06 21.01 9.82 C 20.53 10.78 20.10 11.76 19.71 12.76 C 19.33 12.30 18.57 11.36 18.19 10.90 L 18.39 10.56 Z" />
</g>
<g id="#2a4456e9">
<path fill="#2a4456" opacity="0.91" d=" M 18.19 10.90 C 18.57 11.36 19.33 12.30 19.71 12.76 C 22.10 17.12 24.72 21.34 27.00 25.74 L 26.61 27.66 C 21.25 27.58 15.89 27.64 10.53 27.62 L 9.77 25.71 C 12.13 21.24 14.72 16.89 17.25 12.52 C 17.49 12.12 17.96 11.30 18.19 10.90 M 18.37 14.51 C 16.20 18.22 14.07 21.95 11.97 25.70 C 16.24 25.67 20.51 25.67 24.78 25.70 C 22.67 21.95 20.57 18.20 18.37 14.51 Z" />
</g>
</svg>
