<?xml version="1.0" encoding="UTF-8" ?>
<!DOCTYPE svg PUBLIC "-//W3C//DTD SVG 1.1//EN" "http://www.w3.org/Graphics/SVG/1.1/DTD/svg11.dtd">
<svg width="48pt" height="48pt" viewBox="0 0 48 48" version="1.1" xmlns="http://www.w3.org/2000/svg">
<g id="#121212ff">
<path fill="#121212" opacity="1.00" d=" M 32.24 5.02 C 35.86 4.76 38.88 8.39 37.78 11.91 C 37.21 14.86 34.21 16.04 31.67 16.85 C 31.63 18.26 31.60 19.67 31.56 21.08 C 32.96 22.36 34.35 23.65 35.74 24.94 C 34.39 26.28 32.71 27.38 31.76 29.07 C 31.51 31.28 31.65 33.52 31.69 35.75 C 34.97 34.49 37.03 31.66 38.94 28.88 C 38.60 33.22 37.28 37.87 33.55 40.51 C 26.15 45.69 14.23 42.93 10.40 34.56 C 8.34 29.76 8.79 23.53 12.72 19.79 C 14.86 17.31 17.98 16.19 20.82 14.76 C 20.94 12.59 17.33 13.52 15.90 13.04 C 13.00 12.81 12.85 15.96 12.54 18.04 C 11.35 16.58 9.66 15.16 9.90 13.06 C 9.79 8.90 14.10 5.84 18.02 6.28 C 22.86 6.34 27.15 9.80 32.00 9.21 C 34.16 8.72 33.36 6.13 32.24 5.02 M 18.18 19.81 C 21.09 19.72 23.55 17.57 26.30 16.73 C 26.46 21.51 26.36 26.29 26.41 31.07 L 25.92 31.87 C 23.82 32.73 21.72 33.59 19.62 34.45 C 23.04 36.93 27.40 36.76 31.35 36.07 C 31.34 33.43 31.35 30.80 31.37 28.16 C 30.16 27.12 28.95 26.06 27.75 25.00 C 28.93 23.93 30.10 22.85 31.28 21.79 C 31.31 20.10 31.32 18.41 31.36 16.72 C 28.43 16.19 25.56 15.39 22.72 14.52 C 21.27 16.23 16.93 16.99 18.18 19.81 M 16.03 23.03 C 15.48 27.01 15.87 31.91 19.64 34.26 C 19.71 29.57 19.95 24.85 19.44 20.18 C 18.09 20.91 15.59 20.87 16.03 23.03 Z" />
</g>
</svg>
