<?xml version="1.0" encoding="UTF-8" ?>
<!DOCTYPE svg PUBLIC "-//W3C//DTD SVG 1.1//EN" "http://www.w3.org/Graphics/SVG/1.1/DTD/svg11.dtd">
<svg width="255pt" height="307pt" viewBox="0 0 255 307" version="1.1" xmlns="http://www.w3.org/2000/svg">
<g id="#ffffffff">
<path fill="#ffffff" opacity="1.00" d=" M 0.00 0.00 L 255.00 0.00 L 255.00 307.00 L 0.00 307.00 L 0.00 198.58 C 1.06 213.26 6.49 228.28 17.82 238.14 C 30.11 249.29 47.94 252.35 63.90 249.45 C 84.91 246.15 102.92 231.85 113.51 213.76 C 118.48 214.90 123.68 214.44 128.74 214.18 C 123.65 243.20 118.51 272.20 113.42 301.21 C 113.41 301.71 113.38 302.72 113.37 303.22 C 123.35 303.17 133.33 303.13 143.30 303.24 C 143.48 302.69 143.83 301.58 144.00 301.02 C 147.23 282.12 150.67 263.25 153.87 244.34 C 164.09 250.23 176.48 251.28 188.00 249.90 C 206.16 247.69 222.47 236.85 233.45 222.48 C 248.97 202.35 256.05 176.25 254.34 151.01 C 253.10 137.73 248.41 123.85 237.81 115.14 C 227.49 106.64 212.75 105.35 200.33 109.38 C 200.04 89.22 201.71 68.69 196.49 48.97 C 192.94 34.84 185.45 21.08 173.14 12.78 C 158.29 2.74 139.30 1.06 121.95 3.51 C 107.14 5.61 92.67 10.86 80.40 19.49 L 80.16 20.11 C 81.83 25.05 84.00 29.80 85.89 34.66 C 100.74 22.95 120.30 18.48 138.94 19.58 C 151.24 20.29 163.66 25.74 170.87 36.04 C 180.79 49.98 182.03 67.88 181.70 84.44 C 161.44 84.23 140.95 85.85 121.46 91.66 C 109.66 95.25 98.17 100.51 88.68 108.49 C 87.14 108.94 85.56 108.20 84.04 108.01 C 66.43 105.14 47.77 109.78 33.57 120.60 C 12.29 136.53 1.22 163.21 0.00 189.27 L 0.00 0.00 Z" />
<path fill="#ffffff" opacity="1.00" d=" M 122.86 107.98 C 141.77 101.72 161.95 100.84 181.71 101.38 C 181.78 107.61 181.65 113.84 181.78 120.06 C 177.42 123.93 173.74 128.44 170.29 133.11 C 170.83 125.27 172.45 117.54 172.86 109.69 C 163.75 109.72 154.63 109.72 145.52 109.69 C 142.06 139.01 137.09 168.13 131.65 197.14 C 128.10 197.56 124.53 197.63 120.97 197.45 C 125.96 182.66 128.02 166.60 125.39 151.14 C 123.09 137.74 116.19 124.90 105.18 116.70 C 110.58 112.90 116.62 110.09 122.86 107.98 Z" />
<path fill="#ffffff" opacity="1.00" d=" M 45.76 146.84 C 51.54 138.77 60.60 132.10 70.95 132.48 C 67.79 140.58 66.11 149.27 66.23 157.98 C 65.78 174.62 72.63 191.59 85.47 202.40 C 80.77 211.55 73.86 220.47 63.81 223.95 C 55.34 226.82 45.18 224.41 39.37 217.47 C 32.63 209.74 31.09 198.89 31.65 188.98 C 32.69 174.08 37.03 159.09 45.76 146.84 Z" />
<path fill="#ffffff" opacity="1.00" d=" M 200.37 133.94 C 206.16 133.45 212.36 135.41 216.12 140.01 C 221.89 146.85 222.91 156.35 222.41 164.97 C 221.31 180.85 216.01 196.65 206.31 209.37 C 200.09 217.30 191.44 224.32 181.02 225.08 C 173.38 225.39 165.18 223.75 159.24 218.64 C 159.20 213.21 160.86 207.88 161.46 202.49 C 169.88 196.73 177.20 189.28 182.32 180.43 C 182.58 180.64 183.10 181.06 183.35 181.27 C 184.32 190.74 185.13 200.23 186.08 209.71 C 191.69 209.80 197.30 209.74 202.91 209.74 C 199.95 184.58 200.18 159.23 200.37 133.94 Z" />
<path fill="#ffffff" opacity="1.00" d=" M 92.82 181.44 C 85.02 169.57 84.35 154.04 87.85 140.59 C 96.39 152.33 95.48 167.90 92.82 181.44 Z" />
<path fill="#ffffff" opacity="1.00" d=" M 165.20 180.89 C 167.86 167.88 172.86 154.94 181.71 144.86 C 181.43 158.46 174.49 171.26 165.20 180.89 Z" />
</g>
<g id="#a73331ff">
<path fill="#a73331" opacity="1.00" d=" M 80.40 19.49 C 92.67 10.86 107.14 5.61 121.95 3.51 C 139.30 1.06 158.29 2.74 173.14 12.78 C 185.45 21.08 192.94 34.84 196.49 48.97 C 201.71 68.69 200.04 89.22 200.33 109.38 C 193.47 111.58 187.21 115.37 181.78 120.06 C 181.65 113.84 181.78 107.61 181.71 101.38 C 161.95 100.84 141.77 101.72 122.86 107.98 C 116.62 110.09 110.58 112.90 105.18 116.70 C 96.91 122.37 90.46 130.84 87.85 140.59 C 84.35 154.04 85.02 169.57 92.82 181.44 C 91.20 188.68 88.89 195.80 85.47 202.40 C 72.63 191.59 65.78 174.62 66.23 157.98 C 66.11 149.27 67.79 140.58 70.95 132.48 C 74.78 123.17 80.96 114.93 88.68 108.49 C 98.17 100.51 109.66 95.25 121.46 91.66 C 140.95 85.85 161.44 84.23 181.70 84.44 C 182.03 67.88 180.79 49.98 170.87 36.04 C 163.66 25.74 151.24 20.29 138.94 19.58 C 120.30 18.48 100.74 22.95 85.89 34.66 C 84.00 29.80 81.83 25.05 80.16 20.11 L 80.40 19.49 Z" />
<path fill="#a73331" opacity="1.00" d=" M 181.71 144.86 C 186.54 139.37 192.96 134.88 200.37 133.94 C 200.18 159.23 199.95 184.58 202.91 209.74 C 197.30 209.74 191.69 209.80 186.08 209.71 C 185.13 200.23 184.32 190.74 183.35 181.27 C 183.10 181.06 182.58 180.64 182.32 180.43 C 177.20 189.28 169.88 196.73 161.46 202.49 C 151.72 209.01 140.39 213.00 128.74 214.18 C 123.68 214.44 118.48 214.90 113.51 213.76 C 116.40 208.52 119.00 203.11 120.97 197.45 C 124.53 197.63 128.10 197.56 131.65 197.14 C 144.22 195.67 156.43 190.12 165.20 180.89 C 174.49 171.26 181.43 158.46 181.71 144.86 Z" />
</g>
<g id="#005a7cff">
<path fill="#005a7c" opacity="1.00" d=" M 33.57 120.60 C 47.77 109.78 66.43 105.14 84.04 108.01 C 85.56 108.20 87.14 108.94 88.68 108.49 C 80.96 114.93 74.78 123.17 70.95 132.48 C 60.60 132.10 51.54 138.77 45.76 146.84 C 37.03 159.09 32.69 174.08 31.65 188.98 C 31.09 198.89 32.63 209.74 39.37 217.47 C 45.18 224.41 55.34 226.82 63.81 223.95 C 73.86 220.47 80.77 211.55 85.47 202.40 C 88.89 195.80 91.20 188.68 92.82 181.44 C 95.48 167.90 96.39 152.33 87.85 140.59 C 90.46 130.84 96.91 122.37 105.18 116.70 C 116.19 124.90 123.09 137.74 125.39 151.14 C 128.02 166.60 125.96 182.66 120.97 197.45 C 119.00 203.11 116.40 208.52 113.51 213.76 C 102.92 231.85 84.91 246.15 63.90 249.45 C 47.94 252.35 30.11 249.29 17.82 238.14 C 6.49 228.28 1.06 213.26 0.00 198.58 L 0.00 189.27 C 1.22 163.21 12.29 136.53 33.57 120.60 Z" />
<path fill="#005a7c" opacity="1.00" d=" M 200.33 109.38 C 212.75 105.35 227.49 106.64 237.81 115.14 C 248.41 123.85 253.10 137.73 254.34 151.01 C 256.05 176.25 248.97 202.35 233.45 222.48 C 222.47 236.85 206.16 247.69 188.00 249.90 C 176.48 251.28 164.09 250.23 153.87 244.34 C 150.67 263.25 147.23 282.12 144.00 301.02 C 143.83 301.58 143.48 302.69 143.30 303.24 C 133.33 303.13 123.35 303.17 113.37 303.22 C 113.38 302.72 113.41 301.71 113.42 301.21 C 118.51 272.20 123.65 243.20 128.74 214.18 C 140.39 213.00 151.72 209.01 161.46 202.49 C 160.86 207.88 159.20 213.21 159.24 218.64 C 165.18 223.75 173.38 225.39 181.02 225.08 C 191.44 224.32 200.09 217.30 206.31 209.37 C 216.01 196.65 221.31 180.85 222.41 164.97 C 222.91 156.35 221.89 146.85 216.12 140.01 C 212.36 135.41 206.16 133.45 200.37 133.94 C 192.96 134.88 186.54 139.37 181.71 144.86 C 172.86 154.94 167.86 167.88 165.20 180.89 C 156.43 190.12 144.22 195.67 131.65 197.14 C 137.09 168.13 142.06 139.01 145.52 109.69 C 154.63 109.72 163.75 109.72 172.86 109.69 C 172.45 117.54 170.83 125.27 170.29 133.11 C 173.74 128.44 177.42 123.93 181.78 120.06 C 187.21 115.37 193.47 111.58 200.33 109.38 Z" />
</g>
</svg>
