<?xml version="1.0" encoding="UTF-8" ?>
<!DOCTYPE svg PUBLIC "-//W3C//DTD SVG 1.1//EN" "http://www.w3.org/Graphics/SVG/1.1/DTD/svg11.dtd">
<svg width="48pt" height="48pt" viewBox="0 0 48 48" version="1.1" xmlns="http://www.w3.org/2000/svg">
<g id="#010101ff">
<path fill="#010101" opacity="1.00" d=" M 31.84 0.00 L 48.00 0.00 L 48.00 13.54 C 47.77 14.01 47.31 14.96 47.08 15.43 C 46.41 15.43 45.06 15.45 44.39 15.46 C 44.20 11.45 44.22 7.44 44.23 3.43 C 39.66 3.43 35.08 3.47 30.50 3.25 C 30.84 2.12 31.28 1.04 31.84 0.00 Z" />
<path fill="#010101" opacity="1.00" d=" M 10.60 6.06 C 12.12 6.08 13.64 6.10 15.16 6.13 C 14.50 8.08 13.59 9.95 13.16 11.96 C 12.96 20.34 13.40 28.73 12.92 37.09 C 13.06 39.13 11.02 39.87 9.61 40.72 C 9.03 32.61 9.52 24.47 9.30 16.34 C 7.79 17.13 6.28 17.91 4.73 18.60 C 6.94 14.54 9.66 10.68 10.60 6.06 Z" />
<path fill="#010101" opacity="1.00" d=" M 19.08 7.20 C 25.49 7.84 32.00 8.30 38.39 6.99 C 38.07 11.91 39.99 17.86 36.05 21.76 C 34.61 20.28 32.64 20.21 30.70 20.30 C 30.63 21.47 30.56 22.64 30.49 23.80 C 33.67 24.51 36.79 23.30 39.96 23.16 C 40.14 27.39 40.14 31.64 39.80 35.87 C 39.66 37.93 38.21 39.62 36.27 40.24 C 36.06 35.34 36.20 30.45 36.16 25.55 C 34.35 25.57 32.53 25.56 30.72 25.60 C 30.59 27.63 30.43 29.64 30.27 31.66 C 30.65 31.66 31.43 31.65 31.81 31.65 C 31.83 30.50 31.85 29.35 31.88 28.20 C 32.63 28.18 34.13 28.12 34.88 28.10 C 34.85 30.15 34.59 32.20 33.23 33.85 C 29.78 32.12 25.23 34.59 22.33 31.85 C 23.81 31.69 25.29 31.57 26.77 31.49 C 26.76 29.53 26.76 27.58 26.76 25.62 C 24.96 25.58 23.16 25.55 21.36 25.52 C 21.31 29.09 21.50 32.67 21.19 36.23 C 20.90 38.16 19.45 39.65 17.60 40.16 C 17.47 34.48 17.53 28.79 17.56 23.11 C 20.62 23.48 23.66 24.08 26.75 24.20 C 26.78 22.92 26.79 21.63 26.79 20.35 C 24.07 20.16 21.33 20.40 18.86 21.63 C 18.96 16.82 18.58 11.99 19.08 7.20 M 22.74 9.49 C 22.75 10.42 22.78 12.26 22.80 13.19 C 23.78 13.19 25.75 13.21 26.73 13.22 C 26.74 12.28 26.77 10.41 26.78 9.48 C 25.77 9.48 23.75 9.49 22.74 9.49 M 30.60 9.53 C 30.62 10.44 30.64 12.28 30.65 13.20 C 31.62 13.20 33.56 13.21 34.53 13.21 C 34.56 12.27 34.62 10.39 34.65 9.46 C 33.64 9.47 31.61 9.51 30.60 9.53 M 22.62 18.76 C 24.00 18.76 25.38 18.75 26.76 18.74 C 26.76 17.38 26.76 16.02 26.76 14.66 C 25.45 14.69 24.13 14.71 22.82 14.73 C 22.76 16.08 22.69 17.42 22.62 18.76 M 30.64 18.72 C 31.97 18.75 33.31 18.78 34.64 18.80 C 34.61 17.42 34.58 16.04 34.55 14.67 C 33.56 14.67 31.60 14.69 30.62 14.70 C 30.62 16.04 30.62 17.38 30.64 18.72 Z" />
<path fill="#010101" opacity="1.00" d=" M 0.44 32.60 C 1.23 32.61 2.82 32.63 3.61 32.64 C 3.80 36.61 3.78 40.59 3.77 44.57 C 8.23 44.57 12.70 44.52 17.17 44.75 C 16.96 45.86 16.66 46.94 16.26 48.00 L 0.00 48.00 L 0.00 36.44 C 0.12 35.16 0.27 33.88 0.44 32.60 Z" />
</g>
<g id="#ffffffff">
<path fill="#ffffff" opacity="1.00" d=" M 3.54 3.20 C 12.53 3.24 21.52 3.13 30.50 3.25 C 35.08 3.47 39.66 3.43 44.23 3.43 C 44.22 7.44 44.20 11.45 44.39 15.46 C 44.53 25.25 44.47 35.05 44.42 44.84 C 35.34 44.72 26.25 44.89 17.17 44.75 C 12.70 44.52 8.23 44.57 3.77 44.57 C 3.78 40.59 3.80 36.61 3.61 32.64 C 3.44 22.82 3.58 13.01 3.54 3.20 M 10.60 6.06 C 9.66 10.68 6.94 14.54 4.73 18.60 C 6.28 17.91 7.79 17.13 9.30 16.34 C 9.52 24.47 9.03 32.61 9.61 40.72 C 11.02 39.87 13.06 39.13 12.92 37.09 C 13.40 28.73 12.96 20.34 13.16 11.96 C 13.59 9.95 14.50 8.08 15.16 6.13 C 13.64 6.10 12.12 6.08 10.60 6.06 M 19.08 7.20 C 18.58 11.99 18.96 16.82 18.86 21.63 C 21.33 20.40 24.07 20.16 26.79 20.35 C 26.79 21.63 26.78 22.92 26.75 24.20 C 23.66 24.08 20.62 23.48 17.56 23.11 C 17.53 28.79 17.47 34.48 17.60 40.16 C 19.45 39.65 20.90 38.16 21.19 36.23 C 21.50 32.67 21.31 29.09 21.36 25.52 C 23.16 25.55 24.96 25.58 26.76 25.62 C 26.76 27.58 26.76 29.53 26.77 31.49 C 25.29 31.57 23.81 31.69 22.33 31.85 C 25.23 34.59 29.78 32.12 33.23 33.85 C 34.59 32.20 34.85 30.15 34.88 28.10 C 34.13 28.12 32.63 28.18 31.88 28.20 C 31.85 29.35 31.83 30.50 31.81 31.65 C 31.43 31.65 30.65 31.66 30.27 31.66 C 30.43 29.64 30.59 27.63 30.72 25.60 C 32.53 25.56 34.35 25.57 36.16 25.55 C 36.20 30.45 36.06 35.34 36.27 40.24 C 38.21 39.62 39.66 37.93 39.80 35.87 C 40.14 31.64 40.14 27.39 39.96 23.16 C 36.79 23.30 33.67 24.51 30.49 23.80 C 30.56 22.64 30.63 21.47 30.70 20.30 C 32.64 20.21 34.61 20.28 36.05 21.76 C 39.99 17.86 38.07 11.91 38.39 6.99 C 32.00 8.30 25.49 7.84 19.08 7.20 Z" />
<path fill="#ffffff" opacity="1.00" d=" M 22.74 9.49 C 23.75 9.49 25.77 9.48 26.78 9.48 C 26.77 10.41 26.74 12.28 26.73 13.22 C 25.75 13.21 23.78 13.19 22.80 13.19 C 22.78 12.26 22.75 10.42 22.74 9.49 Z" />
<path fill="#ffffff" opacity="1.00" d=" M 30.60 9.53 C 31.61 9.51 33.64 9.47 34.65 9.46 C 34.62 10.39 34.56 12.27 34.53 13.21 C 33.56 13.21 31.62 13.20 30.65 13.20 C 30.64 12.28 30.62 10.44 30.60 9.53 Z" />
<path fill="#ffffff" opacity="1.00" d=" M 22.62 18.76 C 22.69 17.42 22.76 16.08 22.82 14.73 C 24.13 14.71 25.45 14.69 26.76 14.66 C 26.76 16.02 26.76 17.38 26.76 18.74 C 25.38 18.75 24.00 18.76 22.62 18.76 Z" />
<path fill="#ffffff" opacity="1.00" d=" M 30.64 18.72 C 30.62 17.38 30.62 16.04 30.62 14.70 C 31.60 14.69 33.56 14.67 34.55 14.67 C 34.58 16.04 34.61 17.42 34.64 18.80 C 33.31 18.78 31.97 18.75 30.64 18.72 Z" />
</g>
</svg>
