<?xml version="1.0" encoding="UTF-8" ?>
<!DOCTYPE svg PUBLIC "-//W3C//DTD SVG 1.1//EN" "http://www.w3.org/Graphics/SVG/1.1/DTD/svg11.dtd">
<svg width="96pt" height="96pt" viewBox="0 0 96 96" version="1.1" xmlns="http://www.w3.org/2000/svg">
<g id="#f26721ff">
<path fill="#f26721" opacity="1.00" d=" M 0.00 0.00 L 96.00 0.00 L 96.00 96.00 L 0.00 96.00 L 0.00 0.00 M 43.31 5.48 C 34.46 5.94 25.33 9.59 20.12 17.05 C 13.62 26.33 13.22 38.13 12.78 49.04 C 13.41 60.51 13.63 73.28 21.52 82.47 C 28.86 90.60 40.78 91.42 51.02 90.94 C 60.47 90.69 70.81 87.43 76.03 78.98 C 82.97 67.91 82.88 54.24 82.56 41.63 C 81.94 31.39 80.31 20.01 72.50 12.57 C 64.65 5.45 53.35 4.91 43.31 5.48 Z" />
<path fill="#f26721" opacity="1.00" d=" M 43.35 20.48 C 47.95 18.42 54.11 19.93 56.46 24.60 C 59.45 30.58 59.58 37.49 59.78 44.04 C 59.70 53.28 60.43 63.01 56.75 71.72 C 53.94 78.34 43.67 79.18 39.67 73.33 C 36.22 68.26 36.21 61.87 35.75 55.99 C 35.64 47.29 35.30 38.50 36.97 29.91 C 37.87 26.19 39.59 22.08 43.35 20.48 Z" />
</g>
<g id="#ffffffff">
<path fill="#ffffff" opacity="1.00" d=" M 43.31 5.48 C 53.35 4.91 64.65 5.45 72.50 12.57 C 80.31 20.01 81.94 31.39 82.56 41.63 C 82.88 54.24 82.97 67.91 76.03 78.98 C 70.81 87.43 60.47 90.69 51.02 90.94 C 40.78 91.42 28.86 90.60 21.52 82.47 C 13.63 73.28 13.41 60.51 12.78 49.04 C 13.22 38.13 13.62 26.33 20.12 17.05 C 25.33 9.59 34.46 5.94 43.31 5.48 M 43.35 20.48 C 39.59 22.08 37.87 26.19 36.97 29.91 C 35.30 38.50 35.64 47.29 35.75 55.99 C 36.21 61.87 36.22 68.26 39.67 73.33 C 43.67 79.18 53.94 78.34 56.75 71.72 C 60.43 63.01 59.70 53.28 59.78 44.04 C 59.58 37.49 59.45 30.58 56.46 24.60 C 54.11 19.93 47.95 18.42 43.35 20.48 Z" />
</g>
</svg>
