<?xml version="1.0" encoding="UTF-8" ?>
<!DOCTYPE svg PUBLIC "-//W3C//DTD SVG 1.1//EN" "http://www.w3.org/Graphics/SVG/1.1/DTD/svg11.dtd">
<svg width="32pt" height="32pt" viewBox="0 0 32 32" version="1.1" xmlns="http://www.w3.org/2000/svg">
<g id="#404040ee">
<path fill="#404040" opacity="0.93" d=" M 11.14 0.00 L 18.01 0.00 C 19.13 2.04 19.84 4.25 20.27 6.52 C 23.00 5.75 25.83 5.97 27.17 8.81 C 27.12 9.38 27.00 10.52 26.95 11.09 C 25.84 9.92 25.19 7.40 23.12 8.16 C 20.61 9.05 16.20 13.49 18.80 5.11 C 18.70 1.39 13.90 -0.17 11.29 2.30 C 8.87 3.59 9.31 6.62 7.94 8.61 C 6.36 8.39 4.78 8.04 3.17 8.06 C 0.86 10.50 0.42 13.98 2.20 16.85 C 1.65 16.60 0.55 16.10 0.00 15.85 L 0.00 10.24 C 1.36 7.68 3.62 5.89 6.51 5.44 C 8.02 3.60 9.33 1.57 11.14 0.00 Z" />
</g>
<g id="#f4f4f4ff">
<path fill="#f4f4f4" opacity="1.00" d=" M 11.29 2.30 C 13.90 -0.17 18.70 1.39 18.80 5.11 C 16.20 13.49 20.61 9.05 23.12 8.16 C 25.19 7.40 25.84 9.92 26.95 11.09 C 26.67 14.22 26.26 17.50 30.04 17.36 C 28.34 20.49 25.91 23.09 27.16 27.19 C 25.16 28.24 23.30 27.86 21.93 26.06 C 20.24 28.03 18.65 30.30 16.00 31.01 C 13.86 30.17 12.22 28.51 10.30 27.32 C 9.19 28.22 8.20 29.26 7.00 30.03 C 4.37 29.28 1.90 26.98 2.09 24.09 C 2.70 21.39 7.05 17.53 2.20 16.85 C 0.42 13.98 0.86 10.50 3.17 8.06 C 4.78 8.04 6.36 8.39 7.94 8.61 C 9.31 6.62 8.87 3.59 11.29 2.30 Z" />
</g>
<g id="#2f2f2fda">
<path fill="#2f2f2f" opacity="0.85" d=" M 27.17 8.81 C 27.32 9.16 27.61 9.86 27.76 10.21 C 24.89 17.07 29.50 14.80 32.00 14.18 L 32.00 17.62 C 29.10 20.53 29.45 24.92 27.16 28.13 L 27.16 27.19 C 25.91 23.09 28.34 20.49 30.04 17.36 C 26.26 17.50 26.67 14.22 26.95 11.09 C 27.00 10.52 27.12 9.38 27.17 8.81 Z" />
</g>
<g id="#09090922">
<path fill="#090909" opacity="0.13" d=" M 0.00 15.85 C 0.55 16.10 1.65 16.60 2.20 16.85 C 3.76 20.27 -0.10 23.36 1.01 26.94 C 2.16 30.55 7.85 33.19 10.44 29.48 C 11.42 30.28 12.32 31.16 13.26 32.00 L 0.00 32.00 L 0.00 15.85 Z" />
</g>
<g id="#3e3e3ef3">
<path fill="#3e3e3e" opacity="0.95" d=" M 2.20 16.85 C 7.05 17.53 2.70 21.39 2.09 24.09 C 1.90 26.98 4.37 29.28 7.00 30.03 C 8.20 29.26 9.19 28.22 10.30 27.32 C 12.22 28.51 13.86 30.17 16.00 31.01 C 18.65 30.30 20.24 28.03 21.93 26.06 C 23.30 27.86 25.16 28.24 27.16 27.19 L 27.16 28.13 C 24.44 29.31 20.37 28.56 18.63 32.00 L 13.26 32.00 C 12.32 31.16 11.42 30.28 10.44 29.48 C 7.85 33.19 2.16 30.55 1.01 26.94 C -0.10 23.36 3.76 20.27 2.20 16.85 Z" />
</g>
</svg>
