<?xml version="1.0" encoding="UTF-8" ?>
<!DOCTYPE svg PUBLIC "-//W3C//DTD SVG 1.1//EN" "http://www.w3.org/Graphics/SVG/1.1/DTD/svg11.dtd">
<svg width="16pt" height="16pt" viewBox="0 0 16 16" version="1.1" xmlns="http://www.w3.org/2000/svg">
<g id="#00ccffff">
<path fill="#00ccff" opacity="1.00" d=" M 0.00 0.00 L 5.41 0.00 C 5.43 1.48 5.43 2.96 5.49 4.44 C 5.51 4.76 5.54 5.39 5.56 5.71 C 5.46 9.14 5.41 12.57 5.43 16.00 L 0.00 16.00 L 0.00 10.59 C 1.64 10.81 3.29 10.96 4.93 11.07 C 4.98 9.40 5.09 7.71 4.93 6.04 C 3.74 4.64 1.61 4.99 0.00 4.48 L 0.00 0.00 Z" />
</g>
<g id="#ffff66ff">
<path fill="#ffff66" opacity="1.00" d=" M 5.41 0.00 L 10.36 0.00 C 10.57 1.42 10.77 2.85 11.04 4.26 C 9.91 5.12 8.78 5.99 7.65 6.87 C 7.11 6.26 6.03 5.05 5.49 4.44 C 5.43 2.96 5.43 1.48 5.41 0.00 Z" />
<path fill="#ffff66" opacity="1.00" d=" M 10.32 5.25 C 10.53 6.14 10.74 7.04 10.95 7.93 C 10.71 10.61 10.51 13.32 10.87 16.00 L 5.43 16.00 C 5.41 12.57 5.46 9.14 5.56 5.71 C 6.50 7.53 7.16 9.48 7.25 11.54 C 8.11 9.37 9.15 7.27 10.32 5.25 Z" />
</g>
<g id="#ccff33ff">
<path fill="#ccff33" opacity="1.00" d=" M 10.36 0.00 L 16.00 0.00 L 16.00 16.00 L 10.87 16.00 C 10.51 13.32 10.71 10.61 10.95 7.93 C 11.37 8.85 12.20 10.70 12.62 11.62 C 14.43 9.61 15.06 6.93 15.27 4.30 C 14.37 5.73 13.51 7.18 12.67 8.64 C 12.12 7.18 11.55 5.73 11.04 4.26 C 10.77 2.85 10.57 1.42 10.36 0.00 Z" />
</g>
<g id="#007c9bff">
<path fill="#007c9b" opacity="1.00" d=" M 0.00 4.48 C 1.61 4.99 3.74 4.64 4.93 6.04 C 5.09 7.71 4.98 9.40 4.93 11.07 C 3.29 10.96 1.64 10.81 0.00 10.59 L 0.00 4.48 M 1.31 6.83 C 2.62 7.65 3.44 7.45 3.78 6.23 C 2.47 5.41 1.65 5.61 1.31 6.83 M 1.16 8.24 C -0.05 9.79 2.84 10.94 3.80 9.75 C 4.98 8.19 2.12 6.98 1.16 8.24 Z" />
</g>
<g id="#8c9e2eff">
<path fill="#8c9e2e" opacity="1.00" d=" M 5.49 4.44 C 6.03 5.05 7.11 6.26 7.65 6.87 C 8.78 5.99 9.91 5.12 11.04 4.26 C 11.55 5.73 12.12 7.18 12.67 8.64 C 13.51 7.18 14.37 5.73 15.27 4.30 C 15.06 6.93 14.43 9.61 12.62 11.62 C 12.20 10.70 11.37 8.85 10.95 7.93 C 10.74 7.04 10.53 6.14 10.32 5.25 C 9.15 7.27 8.11 9.37 7.25 11.54 C 7.16 9.48 6.50 7.53 5.56 5.71 C 5.54 5.39 5.51 4.76 5.49 4.44 Z" />
</g>
<g id="#00c6f7ff">
<path fill="#00c6f7" opacity="1.00" d=" M 1.31 6.83 C 1.65 5.61 2.47 5.41 3.78 6.23 C 3.44 7.45 2.62 7.65 1.31 6.83 Z" />
</g>
<g id="#00c0f0ff">
<path fill="#00c0f0" opacity="1.00" d=" M 1.16 8.24 C 2.12 6.98 4.98 8.19 3.80 9.75 C 2.84 10.94 -0.05 9.79 1.16 8.24 Z" />
</g>
</svg>
