<?xml version="1.0" encoding="UTF-8" ?>
<!DOCTYPE svg PUBLIC "-//W3C//DTD SVG 1.1//EN" "http://www.w3.org/Graphics/SVG/1.1/DTD/svg11.dtd">
<svg width="900pt" height="900pt" viewBox="0 0 900 900" version="1.1" xmlns="http://www.w3.org/2000/svg">
<g id="#d01e24ff">
<path fill="#d01e24" opacity="1.00" d=" M 0.00 0.00 L 900.00 0.00 L 900.00 428.51 C 600.00 428.41 300.00 428.48 0.00 428.49 L 0.00 0.00 M 472.80 149.80 C 470.48 154.25 472.54 159.28 472.36 163.99 C 472.33 231.33 472.41 298.67 472.32 366.01 C 472.43 370.53 470.21 375.78 473.22 379.77 C 475.66 381.60 479.07 381.24 481.99 381.39 C 491.66 381.38 501.34 381.33 511.02 381.43 C 513.21 381.36 515.52 381.58 517.59 380.69 C 519.20 378.14 519.12 374.94 519.29 372.03 C 519.16 312.02 519.44 251.98 519.10 192.00 C 518.12 184.00 519.47 176.01 519.28 168.00 C 519.20 161.44 519.88 154.70 517.71 148.37 C 505.47 148.17 493.17 149.05 480.97 147.68 C 478.22 147.71 474.79 147.59 472.80 149.80 M 212.16 148.80 C 209.86 149.96 209.27 152.56 209.42 154.93 C 209.51 228.31 209.46 301.70 209.46 375.08 C 209.31 377.12 210.26 379.08 212.06 380.11 C 215.34 382.38 219.37 380.71 223.00 380.69 C 232.33 380.46 241.67 380.73 251.00 380.62 C 253.18 380.57 256.04 380.49 257.12 378.20 C 257.19 374.79 256.25 371.43 256.36 368.02 C 256.38 334.68 256.40 301.34 256.37 268.00 C 256.40 262.96 256.17 257.91 256.71 252.89 C 260.54 256.64 261.90 261.97 264.64 266.44 C 268.11 272.21 270.96 278.31 273.85 284.39 C 278.73 294.75 284.31 304.77 289.13 315.16 C 291.39 319.51 294.03 323.66 296.17 328.08 C 297.72 330.80 299.20 334.25 302.52 335.13 C 310.40 336.03 318.32 334.13 326.20 335.25 C 329.44 335.81 331.52 332.64 333.10 330.31 C 337.29 322.71 340.88 314.81 344.69 307.01 C 348.91 297.73 354.36 289.08 358.56 279.78 C 362.81 270.32 368.92 261.66 371.49 251.49 C 372.00 251.43 373.02 251.30 373.53 251.24 C 373.82 259.15 373.67 267.08 373.65 275.00 C 373.58 308.02 373.72 341.04 373.63 374.06 C 373.83 376.22 373.58 379.08 375.56 380.49 C 381.02 381.03 386.52 380.46 392.00 380.63 C 400.66 380.48 409.35 381.03 417.99 380.37 C 421.45 378.55 420.46 374.21 420.62 371.01 C 420.44 298.65 420.58 226.28 420.54 153.92 C 420.94 150.81 418.21 148.01 415.08 148.40 C 402.01 148.43 388.93 148.48 375.86 148.46 C 367.63 160.85 362.90 175.09 355.84 188.10 C 342.52 215.47 329.62 243.03 316.26 270.39 C 315.44 270.40 314.62 270.42 313.80 270.45 C 310.09 262.78 306.84 254.90 302.95 247.31 C 299.92 241.32 296.59 235.45 294.26 229.12 C 291.92 222.75 288.18 217.05 285.17 211.00 C 282.34 205.66 280.37 199.93 277.63 194.56 C 273.87 187.04 269.51 179.80 266.38 171.97 C 264.15 166.38 260.85 161.30 258.79 155.63 C 257.51 152.31 255.25 148.05 251.06 148.45 C 240.38 148.33 229.68 148.47 218.99 148.38 C 216.72 148.42 214.39 148.26 212.16 148.80 M 555.49 148.42 C 555.54 148.95 555.63 150.02 555.67 150.55 C 555.37 150.89 554.78 151.57 554.48 151.91 C 554.30 163.48 554.77 175.08 554.29 186.65 C 554.69 188.03 555.09 189.41 555.56 190.77 C 574.63 190.38 593.70 190.77 612.77 190.59 C 613.33 193.00 613.61 195.47 613.59 197.96 C 613.47 257.33 613.61 316.70 613.53 376.07 C 613.23 379.97 617.68 381.69 620.93 381.43 C 630.39 381.26 639.90 381.89 649.32 380.79 C 652.33 380.56 655.38 380.94 658.38 380.48 C 659.78 379.90 660.81 378.68 660.55 377.08 C 660.47 317.04 660.58 256.99 660.49 196.94 C 660.52 194.80 660.89 192.68 661.31 190.59 C 674.53 190.66 687.76 190.58 701.00 190.61 C 707.38 190.57 713.79 190.88 720.17 190.32 C 720.83 182.56 720.41 174.78 720.51 167.00 C 720.39 160.83 721.17 154.52 719.34 148.51 C 664.73 148.31 610.11 148.56 555.49 148.42 Z" />
</g>
<g id="#a8a99bff">
<path fill="#a8a99b" opacity="1.00" d=" M 472.80 149.80 C 474.79 147.59 478.22 147.71 480.97 147.68 C 493.17 149.05 505.47 148.17 517.71 148.37 C 519.88 154.70 519.20 161.44 519.28 168.00 C 519.47 176.01 518.12 184.00 519.10 192.00 C 519.44 251.98 519.16 312.02 519.29 372.03 C 519.12 374.94 519.20 378.14 517.59 380.69 C 515.52 381.58 513.21 381.36 511.02 381.43 C 501.34 381.33 491.66 381.38 481.99 381.39 C 479.07 381.24 475.66 381.60 473.22 379.77 C 470.21 375.78 472.43 370.53 472.32 366.01 C 472.41 298.67 472.33 231.33 472.36 163.99 C 472.54 159.28 470.48 154.25 472.80 149.80 M 474.52 157.94 C 474.50 229.64 474.54 301.36 474.51 373.07 C 474.24 375.71 476.05 378.65 478.97 378.44 C 491.76 378.70 504.57 378.55 517.37 378.44 C 517.83 355.97 517.43 333.48 517.56 311.00 C 517.48 257.89 517.73 204.77 517.42 151.66 C 505.00 149.88 492.43 150.75 479.93 150.47 C 475.69 149.90 474.32 154.60 474.52 157.94 Z" />
<path fill="#a8a99b" opacity="1.00" d=" M 212.16 148.80 C 214.39 148.26 216.72 148.42 218.99 148.38 C 229.68 148.47 240.38 148.33 251.06 148.45 C 255.25 148.05 257.51 152.31 258.79 155.63 C 260.85 161.30 264.15 166.38 266.38 171.97 C 269.51 179.80 273.87 187.04 277.63 194.56 C 280.37 199.93 282.34 205.66 285.17 211.00 C 288.18 217.05 291.92 222.75 294.26 229.12 C 296.59 235.45 299.92 241.32 302.95 247.31 C 306.84 254.90 310.09 262.78 313.80 270.45 C 314.62 270.42 315.44 270.40 316.26 270.39 C 329.62 243.03 342.52 215.47 355.84 188.10 C 362.90 175.09 367.63 160.85 375.86 148.46 C 388.93 148.48 402.01 148.43 415.08 148.40 C 418.21 148.01 420.94 150.81 420.54 153.92 C 420.58 226.28 420.44 298.65 420.62 371.01 C 420.46 374.21 421.45 378.55 417.99 380.37 C 409.35 381.03 400.66 380.48 392.00 380.63 C 386.52 380.46 381.02 381.03 375.56 380.49 C 373.58 379.08 373.83 376.22 373.63 374.06 C 373.72 341.04 373.58 308.02 373.65 275.00 C 373.67 267.08 373.82 259.15 373.53 251.24 C 373.02 251.30 372.00 251.43 371.49 251.49 C 368.92 261.66 362.81 270.32 358.56 279.78 C 354.36 289.08 348.91 297.73 344.69 307.01 C 340.88 314.81 337.29 322.71 333.10 330.31 C 331.52 332.64 329.44 335.81 326.20 335.25 C 318.32 334.13 310.40 336.03 302.52 335.13 C 299.20 334.25 297.72 330.80 296.17 328.08 C 294.03 323.66 291.39 319.51 289.13 315.16 C 284.31 304.77 278.73 294.75 273.85 284.39 C 270.96 278.31 268.11 272.21 264.64 266.44 C 261.90 261.97 260.54 256.64 256.71 252.89 C 256.17 257.91 256.40 262.96 256.37 268.00 C 256.40 301.34 256.38 334.68 256.36 368.02 C 256.25 371.43 257.19 374.79 257.12 378.20 C 256.04 380.49 253.18 380.57 251.00 380.62 C 241.67 380.73 232.33 380.46 223.00 380.69 C 219.37 380.71 215.34 382.38 212.06 380.11 C 210.26 379.08 209.31 377.12 209.46 375.08 C 209.46 301.70 209.51 228.31 209.42 154.93 C 209.27 152.56 209.86 149.96 212.16 148.80 M 375.99 150.64 C 372.89 156.76 369.57 162.78 366.84 169.08 C 363.15 177.56 358.64 185.64 354.92 194.11 C 351.01 203.33 345.79 211.94 342.03 221.24 C 339.55 227.47 335.65 233.00 333.03 239.17 C 330.45 245.15 327.97 251.21 324.74 256.88 C 321.54 262.21 319.99 268.36 316.53 273.56 C 315.47 273.56 314.42 273.57 313.38 273.59 C 311.71 270.61 310.14 267.56 308.90 264.37 C 304.69 253.61 298.69 243.69 294.08 233.11 C 290.67 226.47 287.77 219.58 284.13 213.06 C 282.42 209.95 281.02 206.69 279.77 203.38 C 276.73 195.43 272.22 188.18 268.55 180.54 C 263.75 171.58 260.90 161.52 254.71 153.34 C 253.29 150.99 250.39 151.39 248.04 151.29 C 238.02 151.29 227.99 151.34 217.96 151.26 C 216.08 151.43 213.57 150.84 212.67 153.03 C 212.09 156.66 212.41 160.35 212.36 164.00 C 212.37 233.69 212.38 303.38 212.36 373.07 C 212.11 375.42 213.37 378.27 216.02 378.44 C 228.83 378.94 241.60 377.55 254.41 377.52 C 254.84 368.35 254.56 359.17 254.64 350.00 C 254.58 317.65 254.73 285.30 254.54 252.96 C 254.64 250.76 255.11 248.60 255.52 246.44 C 256.66 246.54 257.81 246.65 258.96 246.75 C 259.81 250.63 260.89 254.50 262.80 258.01 C 267.14 266.00 271.54 273.96 275.74 282.03 C 280.55 292.44 286.12 302.48 291.01 312.85 C 294.02 318.50 296.52 324.47 300.21 329.72 C 301.41 331.75 303.92 331.51 305.95 331.60 C 313.69 331.63 321.43 331.55 329.18 331.55 C 334.30 323.50 337.58 314.47 342.32 306.20 C 346.02 299.72 348.70 292.71 352.40 286.22 C 357.18 277.61 361.51 268.75 366.21 260.09 C 368.42 255.91 369.84 251.37 371.02 246.80 C 371.94 246.63 372.87 246.47 373.81 246.30 C 376.21 251.20 375.25 256.75 375.37 262.00 C 375.38 299.69 375.31 337.38 375.40 375.07 C 374.91 377.18 376.92 378.50 378.84 378.30 C 390.21 378.44 401.60 378.88 412.96 378.35 C 416.27 378.35 418.00 375.03 417.70 372.07 C 417.81 349.38 417.57 326.68 417.65 303.99 C 417.54 254.36 417.91 204.71 417.46 155.09 C 417.65 152.64 415.68 150.09 413.06 150.49 C 400.71 150.60 388.35 150.52 375.99 150.64 Z" />
<path fill="#a8a99b" opacity="1.00" d=" M 555.49 148.42 C 610.11 148.56 664.73 148.31 719.34 148.51 C 721.17 154.52 720.39 160.83 720.51 167.00 C 720.41 174.78 720.83 182.56 720.17 190.32 C 713.79 190.88 707.38 190.57 701.00 190.61 C 687.76 190.58 674.53 190.66 661.31 190.59 C 660.89 192.68 660.52 194.80 660.49 196.94 C 660.58 256.99 660.47 317.04 660.55 377.08 C 660.81 378.68 659.78 379.90 658.38 380.48 C 655.38 380.94 652.33 380.56 649.32 380.79 C 639.90 381.89 630.39 381.26 620.93 381.43 C 617.68 381.69 613.23 379.97 613.53 376.07 C 613.61 316.70 613.47 257.33 613.59 197.96 C 613.61 195.47 613.33 193.00 612.77 190.59 C 593.70 190.77 574.63 190.38 555.56 190.77 C 555.09 189.41 554.69 188.03 554.29 186.65 C 559.97 188.75 566.05 188.56 572.01 188.39 C 583.86 188.59 595.73 188.91 607.58 188.29 C 610.37 188.34 613.68 187.92 615.90 190.00 C 616.26 191.28 616.32 192.62 616.39 193.95 C 616.20 252.99 616.41 312.03 616.28 371.07 C 616.36 373.24 616.40 375.54 617.51 377.50 C 621.14 379.02 625.17 378.56 629.01 378.64 C 638.72 378.37 648.44 378.90 658.14 378.19 C 658.62 372.13 658.64 366.06 658.54 360.00 C 658.50 308.00 658.59 256.00 658.49 204.00 C 658.64 198.89 657.65 193.52 659.48 188.61 C 663.62 187.98 667.83 188.64 672.00 188.59 C 687.66 188.67 703.31 188.50 718.97 188.74 C 719.66 176.16 719.61 163.51 719.01 150.93 C 709.68 150.23 700.33 150.69 691.00 150.57 C 645.89 150.56 600.78 150.60 555.67 150.55 C 555.63 150.02 555.54 148.95 555.49 148.42 Z" />
<path fill="#a8a99b" opacity="1.00" d=" M 0.00 428.49 C 300.00 428.48 600.00 428.41 900.00 428.51 L 900.00 900.00 L 0.00 900.00 L 0.00 428.49 M 389.21 471.99 C 375.00 475.24 361.50 481.87 350.58 491.58 C 343.81 497.56 338.66 505.12 334.09 512.85 C 330.67 520.73 327.99 529.08 327.20 537.68 C 326.56 544.15 324.55 550.45 324.60 556.98 C 324.66 576.32 324.74 595.67 324.60 615.01 C 324.46 621.24 325.45 627.42 326.80 633.49 C 327.98 638.62 327.31 644.06 329.15 649.07 C 332.56 658.58 335.72 668.66 343.06 675.99 C 348.84 683.29 356.35 688.79 363.99 693.98 C 368.86 698.34 375.67 698.64 381.47 701.11 C 389.15 703.24 396.94 705.75 405.00 705.46 C 411.55 705.31 418.15 705.88 424.67 705.07 C 439.21 701.84 454.34 697.85 465.76 687.72 C 471.36 682.39 477.26 677.20 481.52 670.69 C 489.52 659.16 492.97 645.35 497.66 632.32 C 495.34 631.12 492.96 629.35 490.19 629.83 C 484.31 630.67 478.34 630.93 472.45 630.07 C 467.47 629.25 462.45 630.48 457.47 629.92 C 454.50 629.72 450.86 629.08 448.67 631.65 C 446.28 635.24 445.71 639.71 443.65 643.48 C 440.66 648.98 436.78 654.26 431.27 657.44 C 427.47 659.66 423.67 662.61 419.06 662.62 C 414.04 662.79 409.01 662.89 403.99 662.63 C 397.88 662.29 391.95 659.65 387.54 655.43 C 383.60 651.60 379.38 647.85 376.88 642.86 C 374.48 638.64 373.96 633.72 373.40 629.00 C 372.81 623.65 371.20 618.43 371.29 613.01 C 371.33 600.34 371.33 587.67 371.32 574.99 C 371.31 566.68 370.84 558.26 372.53 550.06 C 374.09 542.97 374.06 534.99 379.08 529.22 C 383.21 524.31 386.80 518.38 392.93 515.77 C 398.65 513.36 404.73 511.46 410.99 511.34 C 416.68 511.10 422.02 513.42 427.20 515.46 C 434.37 518.28 439.21 524.74 443.13 531.08 C 445.31 534.42 446.15 538.40 445.82 542.35 C 448.61 543.34 451.46 544.37 454.47 544.27 C 465.64 544.26 476.82 544.29 488.00 544.31 C 491.58 544.42 495.02 543.31 498.39 542.22 C 496.16 539.49 494.39 536.36 493.73 532.87 C 491.59 522.48 487.41 512.42 480.83 504.05 C 478.88 501.15 477.24 497.95 474.53 495.66 C 469.20 491.27 464.83 485.69 458.66 482.39 C 451.66 477.76 443.51 475.60 435.70 472.80 C 430.35 471.29 424.72 471.39 419.30 470.20 C 409.23 468.29 399.21 471.06 389.21 471.99 M 192.41 470.67 C 186.59 471.45 180.76 472.38 175.13 474.10 C 166.83 476.38 159.23 480.57 151.79 484.81 C 142.79 489.78 136.12 497.93 130.13 506.09 C 125.36 512.42 123.14 520.11 120.80 527.55 C 119.40 532.12 119.05 536.90 118.46 541.62 C 117.83 547.08 116.42 552.45 116.44 557.98 C 116.44 576.99 116.54 596.01 116.39 615.02 C 116.17 622.10 118.39 628.95 118.50 636.00 C 118.40 645.63 121.93 654.81 125.65 663.53 C 128.03 669.61 133.11 673.90 137.51 678.49 C 142.29 683.06 146.70 688.21 152.57 691.44 C 159.77 695.49 167.12 699.46 175.12 701.69 C 179.71 702.94 184.10 705.12 188.92 705.39 C 196.97 705.82 205.02 705.39 213.06 705.39 C 217.87 705.45 222.35 703.50 227.01 702.59 C 230.39 701.89 233.84 701.28 236.98 699.75 C 244.29 696.16 251.73 692.34 257.42 686.36 C 262.31 681.25 267.32 676.25 271.76 670.75 C 276.84 664.36 279.75 656.61 281.87 648.81 C 284.29 641.55 284.77 633.88 285.72 626.35 C 287.04 617.62 285.93 608.76 287.33 600.04 C 287.42 589.50 287.94 578.89 286.60 568.41 C 286.17 562.95 286.79 557.46 286.04 552.02 C 285.41 547.33 284.70 542.64 284.27 537.92 C 283.63 531.13 281.03 524.77 279.57 518.16 C 278.32 512.04 274.00 507.35 270.61 502.34 C 264.38 493.08 255.35 486.05 245.74 480.57 C 237.29 476.66 228.27 474.00 219.21 471.96 C 210.35 470.65 201.34 468.95 192.41 470.67 M 510.24 473.65 C 510.62 481.74 513.84 489.27 515.76 497.05 C 519.33 508.96 522.40 521.02 525.45 533.08 C 532.34 558.52 539.00 584.02 546.16 609.38 C 551.50 630.94 556.67 652.56 562.92 673.88 C 565.54 682.50 567.33 691.34 569.87 699.97 C 570.32 700.99 570.68 702.73 572.16 702.64 C 579.18 703.01 586.23 702.10 593.23 702.92 C 597.71 703.64 602.18 702.53 606.68 702.66 C 610.64 697.40 610.97 690.66 612.89 684.59 C 616.11 674.71 618.46 664.58 621.97 654.79 C 625.69 644.42 628.04 633.63 631.41 623.15 C 634.42 613.77 637.22 604.32 640.11 594.91 C 642.40 585.88 646.35 577.27 647.53 567.97 C 647.74 565.74 648.71 563.72 649.89 561.86 C 653.50 567.84 654.68 574.77 656.43 581.43 C 667.82 619.49 679.29 657.53 690.80 695.55 C 691.79 697.83 691.25 701.95 694.47 702.30 C 704.94 703.70 715.52 703.41 726.06 703.45 C 728.90 703.65 731.18 701.27 731.71 698.63 C 733.11 692.94 733.99 687.12 735.85 681.54 C 740.16 664.61 744.64 647.72 749.34 630.89 C 751.34 623.60 752.82 616.17 755.20 608.98 C 758.39 599.11 760.16 588.87 763.27 578.99 C 766.59 565.70 770.78 552.66 773.83 539.31 C 779.23 518.16 786.66 497.49 790.67 476.00 C 791.49 473.66 789.06 472.23 787.03 472.46 C 776.00 472.41 764.97 472.47 753.95 472.43 C 750.96 472.55 747.02 472.59 745.51 475.70 C 742.36 482.16 742.03 489.51 739.91 496.31 C 735.40 515.68 729.86 534.82 725.85 554.31 C 723.88 563.08 721.16 571.66 718.93 580.37 C 717.02 586.58 716.06 593.02 714.04 599.20 C 712.42 603.97 712.87 609.29 710.71 613.88 C 710.04 615.88 707.07 615.98 706.33 613.99 C 705.39 610.90 705.70 607.58 704.64 604.52 C 701.35 595.68 699.67 586.36 696.72 577.42 C 693.11 566.95 691.16 556.02 687.83 545.48 C 681.11 522.87 675.81 499.81 667.64 477.65 C 666.54 474.00 662.51 472.60 659.07 472.49 C 653.03 472.29 646.99 472.49 640.96 472.40 C 638.83 472.53 636.43 472.18 634.63 473.56 C 631.83 478.51 630.69 484.18 629.06 489.58 C 617.17 527.21 607.17 565.40 595.94 603.23 C 594.78 606.79 594.52 610.55 593.65 614.17 C 593.27 615.22 593.02 617.16 591.46 616.38 C 589.13 613.31 588.53 609.38 587.63 605.73 C 586.19 598.68 584.04 591.79 582.53 584.76 C 577.64 567.19 574.46 549.18 569.06 531.76 C 567.94 520.87 563.77 510.63 561.66 499.93 C 560.45 493.01 558.29 486.31 556.72 479.48 C 555.92 475.86 552.91 472.59 549.03 472.55 C 539.19 472.21 529.34 472.57 519.50 472.48 C 516.37 472.38 513.25 472.83 510.24 473.65 Z" />
<path fill="#a8a99b" opacity="1.00" d=" M 194.40 511.57 C 204.76 509.87 215.61 512.54 223.91 518.99 C 228.96 523.11 233.26 528.21 236.23 534.03 C 238.56 538.51 238.58 543.69 239.76 548.52 C 241.47 555.40 240.04 562.52 240.98 569.48 C 241.85 575.61 241.52 581.82 241.55 588.00 C 241.55 593.85 241.76 599.73 240.98 605.54 C 240.26 611.28 241.35 617.12 240.11 622.82 C 239.14 627.11 238.75 631.50 238.04 635.85 C 236.11 642.99 232.19 649.76 226.26 654.32 C 221.15 658.75 215.07 662.94 207.99 662.75 C 199.43 662.66 190.17 663.98 182.39 659.55 C 175.64 655.51 169.50 649.76 166.79 642.20 C 162.63 632.69 162.56 622.16 161.70 612.01 C 161.31 605.99 162.45 600.01 162.24 593.99 C 161.26 578.69 161.44 563.31 162.93 548.06 C 164.09 541.45 165.33 534.63 168.81 528.79 C 174.54 519.89 183.88 513.29 194.40 511.57 Z" />
</g>
<g id="#fdfdfdff">
<path fill="#fdfdfd" opacity="1.00" d=" M 375.99 150.64 C 388.35 150.52 400.71 150.60 413.06 150.49 C 415.68 150.09 417.65 152.64 417.46 155.09 C 417.91 204.71 417.54 254.36 417.65 303.99 C 417.57 326.68 417.81 349.38 417.70 372.07 C 418.00 375.03 416.27 378.35 412.96 378.35 C 401.60 378.88 390.21 378.44 378.84 378.30 C 376.92 378.50 374.91 377.18 375.40 375.07 C 375.31 337.38 375.38 299.69 375.37 262.00 C 375.25 256.75 376.21 251.20 373.81 246.30 C 372.87 246.47 371.94 246.63 371.02 246.80 C 369.84 251.37 368.42 255.91 366.21 260.09 C 361.51 268.75 357.18 277.61 352.40 286.22 C 348.70 292.71 346.02 299.72 342.32 306.20 C 337.58 314.47 334.30 323.50 329.18 331.55 C 321.43 331.55 313.69 331.63 305.95 331.60 C 303.92 331.51 301.41 331.75 300.21 329.72 C 296.52 324.47 294.02 318.50 291.01 312.85 C 286.12 302.48 280.55 292.44 275.74 282.03 C 271.54 273.96 267.14 266.00 262.80 258.01 C 260.89 254.50 259.81 250.63 258.96 246.75 C 257.81 246.65 256.66 246.54 255.52 246.44 C 255.11 248.60 254.64 250.76 254.54 252.96 C 254.73 285.30 254.58 317.65 254.64 350.00 C 254.56 359.17 254.84 368.35 254.41 377.52 C 241.60 377.55 228.83 378.94 216.02 378.44 C 213.37 378.27 212.11 375.42 212.36 373.07 C 212.38 303.38 212.37 233.69 212.36 164.00 C 212.41 160.35 212.09 156.66 212.67 153.03 C 213.57 150.84 216.08 151.43 217.96 151.26 C 227.99 151.34 238.02 151.29 248.04 151.29 C 250.39 151.39 253.29 150.99 254.71 153.34 C 260.90 161.52 263.75 171.58 268.55 180.54 C 272.22 188.18 276.73 195.43 279.77 203.38 C 281.02 206.69 282.42 209.95 284.13 213.06 C 287.77 219.58 290.67 226.47 294.08 233.11 C 298.69 243.69 304.69 253.61 308.90 264.37 C 310.14 267.56 311.71 270.61 313.38 273.59 C 314.42 273.57 315.47 273.56 316.53 273.56 C 319.99 268.36 321.54 262.21 324.74 256.88 C 327.97 251.21 330.45 245.15 333.03 239.17 C 335.65 233.00 339.55 227.47 342.03 221.24 C 345.79 211.94 351.01 203.33 354.92 194.11 C 358.64 185.64 363.15 177.56 366.84 169.08 C 369.57 162.78 372.89 156.76 375.99 150.64 Z" />
<path fill="#fdfdfd" opacity="1.00" d=" M 474.52 157.94 C 474.32 154.60 475.69 149.90 479.93 150.47 C 492.43 150.75 505.00 149.88 517.42 151.66 C 517.73 204.77 517.48 257.89 517.56 311.00 C 517.43 333.48 517.83 355.97 517.37 378.44 C 504.57 378.55 491.76 378.70 478.97 378.44 C 476.05 378.65 474.24 375.71 474.51 373.07 C 474.54 301.36 474.50 229.64 474.52 157.94 Z" />
<path fill="#fdfdfd" opacity="1.00" d=" M 554.48 151.91 C 554.78 151.57 555.37 150.89 555.67 150.55 C 600.78 150.60 645.89 150.56 691.00 150.57 C 700.33 150.69 709.68 150.23 719.01 150.93 C 719.61 163.51 719.66 176.16 718.97 188.74 C 703.31 188.50 687.66 188.67 672.00 188.59 C 667.83 188.64 663.62 187.98 659.48 188.61 C 657.65 193.52 658.64 198.89 658.49 204.00 C 658.59 256.00 658.50 308.00 658.54 360.00 C 658.64 366.06 658.62 372.13 658.14 378.19 C 648.44 378.90 638.72 378.37 629.01 378.64 C 625.17 378.56 621.14 379.02 617.51 377.50 C 616.40 375.54 616.36 373.24 616.28 371.07 C 616.41 312.03 616.20 252.99 616.39 193.95 C 616.32 192.62 616.26 191.28 615.90 190.00 C 613.68 187.92 610.37 188.34 607.58 188.29 C 595.73 188.91 583.86 188.59 572.01 188.39 C 566.05 188.56 559.97 188.75 554.29 186.65 C 554.77 175.08 554.30 163.48 554.48 151.91 Z" />
<path fill="#fdfdfd" opacity="1.00" d=" M 389.21 471.99 C 399.21 471.06 409.23 468.29 419.30 470.20 C 424.72 471.39 430.35 471.29 435.70 472.80 C 443.51 475.60 451.66 477.76 458.66 482.39 C 464.83 485.69 469.20 491.27 474.53 495.66 C 477.24 497.95 478.88 501.15 480.83 504.05 C 487.41 512.42 491.59 522.48 493.73 532.87 C 494.39 536.36 496.16 539.49 498.39 542.22 C 495.02 543.31 491.58 544.42 488.00 544.31 C 476.82 544.29 465.64 544.26 454.47 544.27 C 451.46 544.37 448.61 543.34 445.82 542.35 C 446.15 538.40 445.31 534.42 443.13 531.08 C 439.21 524.74 434.37 518.28 427.20 515.46 C 422.02 513.42 416.68 511.10 410.99 511.34 C 404.73 511.46 398.65 513.36 392.93 515.77 C 386.80 518.38 383.21 524.31 379.08 529.22 C 374.06 534.99 374.09 542.97 372.53 550.06 C 370.84 558.26 371.31 566.68 371.32 574.99 C 371.33 587.67 371.33 600.34 371.29 613.01 C 371.20 618.43 372.81 623.65 373.40 629.00 C 373.96 633.72 374.48 638.64 376.88 642.86 C 379.38 647.85 383.60 651.60 387.54 655.43 C 391.95 659.65 397.88 662.29 403.99 662.63 C 409.01 662.89 414.04 662.79 419.06 662.62 C 423.67 662.61 427.47 659.66 431.27 657.44 C 436.78 654.26 440.66 648.98 443.65 643.48 C 445.71 639.71 446.28 635.24 448.67 631.65 C 450.86 629.08 454.50 629.72 457.47 629.92 C 462.45 630.48 467.47 629.25 472.45 630.07 C 478.34 630.93 484.31 630.67 490.19 629.83 C 492.96 629.35 495.34 631.12 497.66 632.32 C 492.97 645.35 489.52 659.16 481.52 670.69 C 477.26 677.20 471.36 682.39 465.76 687.72 C 454.34 697.85 439.21 701.84 424.67 705.07 C 418.15 705.88 411.55 705.31 405.00 705.46 C 396.94 705.75 389.15 703.24 381.47 701.11 C 375.67 698.64 368.86 698.34 363.99 693.98 C 356.35 688.79 348.84 683.29 343.06 675.99 C 335.72 668.66 332.56 658.58 329.15 649.07 C 327.31 644.06 327.98 638.62 326.80 633.49 C 325.45 627.42 324.46 621.24 324.60 615.01 C 324.74 595.67 324.66 576.32 324.60 556.98 C 324.55 550.45 326.56 544.15 327.20 537.68 C 327.99 529.08 330.67 520.73 334.09 512.85 C 338.66 505.12 343.81 497.56 350.58 491.58 C 361.50 481.87 375.00 475.24 389.21 471.99 Z" />
<path fill="#fdfdfd" opacity="1.00" d=" M 192.41 470.67 C 201.34 468.95 210.35 470.65 219.21 471.96 C 228.27 474.00 237.29 476.66 245.74 480.57 C 255.35 486.05 264.38 493.08 270.61 502.34 C 274.00 507.35 278.32 512.04 279.57 518.16 C 281.03 524.77 283.63 531.13 284.27 537.92 C 284.70 542.64 285.41 547.33 286.04 552.02 C 286.79 557.46 286.17 562.95 286.60 568.41 C 287.94 578.89 287.42 589.50 287.33 600.04 C 285.93 608.76 287.04 617.62 285.72 626.35 C 284.77 633.88 284.29 641.55 281.87 648.81 C 279.75 656.61 276.84 664.36 271.76 670.75 C 267.32 676.25 262.31 681.25 257.42 686.36 C 251.73 692.34 244.29 696.16 236.98 699.75 C 233.84 701.28 230.39 701.89 227.01 702.59 C 222.35 703.50 217.87 705.45 213.06 705.39 C 205.02 705.39 196.97 705.82 188.92 705.39 C 184.10 705.12 179.71 702.94 175.12 701.69 C 167.12 699.46 159.77 695.49 152.57 691.44 C 146.70 688.21 142.29 683.06 137.51 678.49 C 133.11 673.90 128.03 669.61 125.65 663.53 C 121.93 654.81 118.40 645.63 118.50 636.00 C 118.39 628.95 116.17 622.10 116.39 615.02 C 116.54 596.01 116.44 576.99 116.44 557.98 C 116.42 552.45 117.83 547.08 118.46 541.62 C 119.05 536.90 119.40 532.12 120.80 527.55 C 123.14 520.11 125.36 512.42 130.13 506.09 C 136.12 497.93 142.79 489.78 151.79 484.81 C 159.23 480.57 166.83 476.38 175.13 474.10 C 180.76 472.38 186.59 471.45 192.41 470.67 M 194.40 511.57 C 183.88 513.29 174.54 519.89 168.81 528.79 C 165.33 534.63 164.09 541.45 162.93 548.06 C 161.44 563.31 161.26 578.69 162.24 593.99 C 162.45 600.01 161.31 605.99 161.70 612.01 C 162.56 622.16 162.63 632.69 166.79 642.20 C 169.50 649.76 175.64 655.51 182.39 659.55 C 190.17 663.98 199.43 662.66 207.99 662.75 C 215.07 662.94 221.15 658.75 226.26 654.32 C 232.19 649.76 236.11 642.99 238.04 635.85 C 238.75 631.50 239.14 627.11 240.11 622.82 C 241.35 617.12 240.26 611.28 240.98 605.54 C 241.76 599.73 241.55 593.85 241.55 588.00 C 241.52 581.82 241.85 575.61 240.98 569.48 C 240.04 562.52 241.47 555.40 239.76 548.52 C 238.58 543.69 238.56 538.51 236.23 534.03 C 233.26 528.21 228.96 523.11 223.91 518.99 C 215.61 512.54 204.76 509.87 194.40 511.57 Z" />
<path fill="#fdfdfd" opacity="1.00" d=" M 510.24 473.65 C 513.25 472.83 516.37 472.38 519.50 472.48 C 529.34 472.57 539.19 472.21 549.03 472.55 C 552.91 472.59 555.92 475.86 556.72 479.48 C 558.29 486.31 560.45 493.01 561.66 499.93 C 563.77 510.63 567.94 520.87 569.06 531.76 C 574.46 549.18 577.64 567.19 582.53 584.76 C 584.04 591.79 586.19 598.68 587.63 605.73 C 588.53 609.38 589.13 613.31 591.46 616.38 C 593.02 617.16 593.27 615.22 593.65 614.17 C 594.52 610.55 594.78 606.79 595.94 603.23 C 607.17 565.40 617.17 527.21 629.06 489.58 C 630.69 484.18 631.83 478.51 634.63 473.56 C 636.43 472.18 638.83 472.53 640.96 472.40 C 646.99 472.49 653.03 472.29 659.07 472.49 C 662.51 472.60 666.54 474.00 667.64 477.65 C 675.81 499.81 681.11 522.87 687.83 545.48 C 691.16 556.02 693.11 566.95 696.72 577.42 C 699.67 586.36 701.35 595.68 704.64 604.52 C 705.70 607.58 705.39 610.90 706.33 613.99 C 707.07 615.98 710.04 615.88 710.71 613.88 C 712.87 609.29 712.42 603.97 714.04 599.20 C 716.06 593.02 717.02 586.58 718.93 580.37 C 721.16 571.66 723.88 563.08 725.85 554.31 C 729.86 534.82 735.40 515.68 739.91 496.31 C 742.03 489.51 742.36 482.16 745.51 475.70 C 747.02 472.59 750.96 472.55 753.95 472.43 C 764.97 472.47 776.00 472.41 787.03 472.46 C 789.06 472.23 791.49 473.66 790.67 476.00 C 786.66 497.49 779.23 518.16 773.83 539.31 C 770.78 552.66 766.59 565.70 763.27 578.99 C 760.16 588.87 758.39 599.11 755.20 608.98 C 752.82 616.17 751.34 623.60 749.34 630.89 C 744.64 647.72 740.16 664.61 735.85 681.54 C 733.99 687.12 733.11 692.94 731.71 698.63 C 731.18 701.27 728.90 703.65 726.06 703.45 C 715.52 703.41 704.94 703.70 694.47 702.30 C 691.25 701.95 691.79 697.83 690.80 695.55 C 679.29 657.53 667.82 619.49 656.43 581.43 C 654.68 574.77 653.50 567.84 649.89 561.86 C 648.71 563.72 647.74 565.74 647.53 567.97 C 646.35 577.27 642.40 585.88 640.11 594.91 C 637.22 604.32 634.42 613.77 631.41 623.15 C 628.04 633.63 625.69 644.42 621.97 654.79 C 618.46 664.58 616.11 674.71 612.89 684.59 C 610.97 690.66 610.64 697.40 606.68 702.66 C 602.18 702.53 597.71 703.64 593.23 702.92 C 586.23 702.10 579.18 703.01 572.16 702.64 C 570.68 702.73 570.32 700.99 569.87 699.97 C 567.33 691.34 565.54 682.50 562.92 673.88 C 556.67 652.56 551.50 630.94 546.16 609.38 C 539.00 584.02 532.34 558.52 525.45 533.08 C 522.40 521.02 519.33 508.96 515.76 497.05 C 513.84 489.27 510.62 481.74 510.24 473.65 Z" />
</g>
</svg>
