<?xml version="1.0" encoding="UTF-8" ?>
<!DOCTYPE svg PUBLIC "-//W3C//DTD SVG 1.1//EN" "http://www.w3.org/Graphics/SVG/1.1/DTD/svg11.dtd">
<svg width="64pt" height="64pt" viewBox="0 0 64 64" version="1.1" xmlns="http://www.w3.org/2000/svg">
<g id="#2a323cff">
<path fill="#2a323c" opacity="1.00" d=" M 12.64 14.65 C 22.68 2.72 43.71 3.48 52.98 15.99 L 53.35 16.66 C 52.16 16.02 50.96 15.39 49.77 14.76 C 47.47 15.91 45.18 17.06 42.87 18.20 C 43.02 19.70 43.15 21.21 43.37 22.70 C 40.20 19.90 36.50 16.92 31.99 17.33 C 23.47 17.10 17.68 26.24 18.68 34.06 C 19.28 37.78 21.24 41.16 23.88 43.80 C 23.34 43.94 22.26 44.20 21.71 44.34 C 20.42 47.56 18.70 50.59 16.74 53.46 C 10.75 48.39 5.89 41.18 6.31 33.03 C 5.76 26.34 7.98 19.51 12.64 14.65 Z" />
</g>
<g id="#4f5961ff">
<path fill="#4f5961" opacity="1.00" d=" M 42.87 18.20 C 45.18 17.06 47.47 15.91 49.77 14.76 C 50.96 15.39 52.16 16.02 53.35 16.66 C 55.20 20.39 56.69 24.32 57.42 28.43 C 55.06 29.00 52.55 29.26 50.41 30.49 C 48.29 31.92 46.85 34.10 45.51 36.23 C 46.00 31.59 45.31 26.94 43.37 22.70 C 43.15 21.21 43.02 19.70 42.87 18.20 Z" />
</g>
<g id="#373a3e86">
<path fill="#373a3e" opacity="0.53" d=" M 52.98 15.99 C 57.99 20.49 59.09 27.64 58.77 34.04 C 58.73 43.48 52.00 51.78 43.88 55.94 C 37.78 59.10 30.72 58.51 24.17 57.54 L 24.39 56.37 C 26.88 56.72 29.36 57.07 31.87 57.28 C 39.27 57.19 46.72 54.30 51.39 48.39 C 56.67 43.24 58.27 35.55 57.42 28.43 C 56.69 24.32 55.20 20.39 53.35 16.66 L 52.98 15.99 Z" />
</g>
<g id="#7b7e88ff">
<path fill="#7b7e88" opacity="1.00" d=" M 50.41 30.49 C 52.55 29.26 55.06 29.00 57.42 28.43 C 58.27 35.55 56.67 43.24 51.39 48.39 C 46.72 54.30 39.27 57.19 31.87 57.28 C 32.77 54.28 33.65 51.26 35.02 48.43 C 35.23 48.05 35.64 47.29 35.85 46.91 C 33.24 46.70 30.59 46.67 28.01 46.19 C 31.41 46.64 35.19 47.14 38.29 45.28 C 41.77 43.31 43.72 39.65 45.51 36.23 C 46.85 34.10 48.29 31.92 50.41 30.49 Z" />
</g>
<g id="#434e55ff">
<path fill="#434e55" opacity="1.00" d=" M 21.71 44.34 C 22.26 44.20 23.34 43.94 23.88 43.80 C 25.21 44.67 26.52 45.61 28.01 46.19 C 30.59 46.67 33.24 46.70 35.85 46.91 C 35.64 47.29 35.23 48.05 35.02 48.43 C 32.11 48.32 29.18 47.92 26.27 48.13 C 24.18 50.27 22.69 52.93 20.46 54.95 C 19.26 54.35 17.96 53.99 16.74 53.46 C 18.70 50.59 20.42 47.56 21.71 44.34 Z" />
</g>
<g id="#59656cff">
<path fill="#59656c" opacity="1.00" d=" M 20.46 54.95 C 22.69 52.93 24.18 50.27 26.27 48.13 C 29.18 47.92 32.11 48.32 35.02 48.43 C 33.65 51.26 32.77 54.28 31.87 57.28 C 29.36 57.07 26.88 56.72 24.39 56.37 C 22.81 56.15 21.24 55.88 19.65 55.74 C 19.85 55.54 20.26 55.15 20.46 54.95 Z" />
</g>
</svg>
