<?xml version="1.0" encoding="UTF-8" ?>
<!DOCTYPE svg PUBLIC "-//W3C//DTD SVG 1.1//EN" "http://www.w3.org/Graphics/SVG/1.1/DTD/svg11.dtd">
<svg width="144pt" height="144pt" viewBox="0 0 144 144" version="1.1" xmlns="http://www.w3.org/2000/svg">
<g id="#eb3d01ff">
<path fill="#eb3d01" opacity="1.00" d=" M 0.00 0.00 L 144.00 0.00 L 144.00 144.00 L 0.00 144.00 L 0.00 0.00 M 56.88 27.68 C 52.14 30.04 47.60 33.04 44.28 37.22 C 37.75 45.04 34.80 55.26 34.32 65.30 C 33.71 67.77 33.48 70.33 34.30 72.78 C 34.31 76.95 35.10 81.04 35.70 85.14 C 36.41 87.12 37.03 89.13 37.62 91.15 C 41.96 102.47 51.82 112.03 64.05 114.03 C 68.00 114.65 72.03 114.55 76.01 114.35 C 82.14 113.69 89.15 111.56 91.50 105.19 C 91.99 100.86 91.81 95.88 88.02 92.99 C 85.54 89.79 81.38 90.38 77.81 90.36 C 76.19 85.86 72.23 81.38 66.98 82.15 C 61.07 81.01 56.31 86.08 55.06 91.43 C 54.03 91.40 53.00 91.37 51.97 91.34 C 50.82 87.92 49.80 84.45 49.18 80.89 C 48.22 77.00 48.56 72.98 48.50 69.02 C 48.56 65.40 48.23 61.70 49.28 58.19 C 49.76 56.07 50.27 53.97 50.73 51.85 C 53.20 44.98 57.67 38.20 65.11 36.17 C 68.67 34.98 72.48 35.55 76.15 35.62 C 82.93 37.41 88.17 42.74 90.86 49.09 C 92.38 53.31 93.65 57.65 93.79 62.16 C 94.76 66.67 94.46 71.33 94.13 75.89 C 93.57 78.34 93.61 80.88 93.09 83.33 C 92.29 86.13 91.16 88.91 91.46 91.89 C 94.21 94.82 94.61 99.09 94.29 102.92 C 94.05 104.09 93.59 106.44 93.36 107.61 C 99.15 102.68 103.54 96.14 105.80 88.86 C 106.97 85.35 107.36 81.66 108.27 78.08 C 108.94 69.00 108.54 59.79 105.93 51.02 C 102.70 41.15 95.79 32.00 86.01 27.96 C 78.56 24.64 69.99 24.77 62.12 26.16 C 60.38 26.67 58.63 27.19 56.88 27.68 Z" />
</g>
<g id="#fefefeff">
<path fill="#fefefe" opacity="1.00" d=" M 56.88 27.68 C 58.63 27.19 60.38 26.67 62.12 26.16 C 69.99 24.77 78.56 24.64 86.01 27.96 C 95.79 32.00 102.70 41.15 105.93 51.02 C 108.54 59.79 108.94 69.00 108.27 78.08 C 107.36 81.66 106.97 85.35 105.80 88.86 C 103.54 96.14 99.15 102.68 93.36 107.61 C 93.59 106.44 94.05 104.09 94.29 102.92 C 94.61 99.09 94.21 94.82 91.46 91.89 C 91.16 88.91 92.29 86.13 93.09 83.33 C 93.61 80.88 93.57 78.34 94.13 75.89 C 94.46 71.33 94.76 66.67 93.79 62.16 C 93.65 57.65 92.38 53.31 90.86 49.09 C 88.17 42.74 82.93 37.41 76.15 35.62 C 72.48 35.55 68.67 34.98 65.11 36.17 C 57.67 38.20 53.20 44.98 50.73 51.85 C 50.27 53.97 49.76 56.07 49.28 58.19 C 48.23 61.70 48.56 65.40 48.50 69.02 C 48.56 72.98 48.22 77.00 49.18 80.89 C 49.80 84.45 50.82 87.92 51.97 91.34 C 53.00 91.37 54.03 91.40 55.06 91.43 C 56.31 86.08 61.07 81.01 66.98 82.15 C 72.23 81.38 76.19 85.86 77.81 90.36 C 81.38 90.38 85.54 89.79 88.02 92.99 C 91.81 95.88 91.99 100.86 91.50 105.19 C 89.15 111.56 82.14 113.69 76.01 114.35 C 72.03 114.55 68.00 114.65 64.05 114.03 C 51.82 112.03 41.96 102.47 37.62 91.15 C 37.03 89.13 36.41 87.12 35.70 85.14 C 35.10 81.04 34.31 76.95 34.30 72.78 C 33.48 70.33 33.71 67.77 34.32 65.30 C 34.80 55.26 37.75 45.04 44.28 37.22 C 47.60 33.04 52.14 30.04 56.88 27.68 Z" />
</g>
</svg>
