<?xml version="1.0" encoding="UTF-8" ?>
<!DOCTYPE svg PUBLIC "-//W3C//DTD SVG 1.1//EN" "http://www.w3.org/Graphics/SVG/1.1/DTD/svg11.dtd">
<svg width="32pt" height="32pt" viewBox="0 0 32 32" version="1.1" xmlns="http://www.w3.org/2000/svg">
<g id="#ecdf77ff">
<path fill="#ecdf77" opacity="1.00" d=" M 0.85 14.98 C 1.29 6.18 10.44 -0.64 19.02 1.15 C 26.40 2.22 31.91 9.19 32.00 16.53 L 32.00 19.16 C 30.67 25.30 25.96 30.19 19.98 32.00 L 14.21 32.00 C 6.17 30.92 -0.20 23.10 0.85 14.98 M 13.16 1.81 C 11.56 3.26 9.38 3.63 7.53 4.62 C 4.79 6.75 3.13 9.90 1.33 12.79 C 1.91 12.81 3.06 12.86 3.63 12.89 C 3.27 12.93 2.55 13.01 2.19 13.05 C 0.83 17.31 1.97 22.01 4.94 25.30 C 5.40 22.16 5.80 19.01 6.49 15.91 C 6.16 19.35 5.20 22.76 5.53 26.23 C 8.75 30.88 14.79 31.41 19.95 30.97 C 20.46 25.09 19.57 19.25 18.20 13.55 C 16.77 13.54 15.34 13.53 13.91 13.53 C 13.71 15.08 13.52 16.63 13.29 18.17 C 13.41 15.34 13.81 12.53 14.61 9.82 C 14.46 10.98 14.30 12.14 14.12 13.30 C 15.18 13.32 17.29 13.35 18.34 13.37 C 17.42 10.35 16.56 7.29 15.27 4.40 C 21.36 6.24 27.35 8.99 31.23 14.29 C 30.29 11.09 28.86 7.98 26.27 5.79 C 22.93 2.25 17.76 1.65 13.16 1.81 M 18.06 6.81 C 21.76 12.82 24.62 19.44 25.29 26.53 C 26.89 25.03 28.46 23.50 29.95 21.89 C 28.91 15.09 23.75 10.12 18.06 6.81 Z" />
</g>
<g id="#3c4a5cff">
<path fill="#3c4a5c" opacity="1.00" d=" M 13.16 1.81 C 17.76 1.65 22.93 2.25 26.27 5.79 C 28.86 7.98 30.29 11.09 31.23 14.29 C 27.35 8.99 21.36 6.24 15.27 4.40 C 16.56 7.29 17.42 10.35 18.34 13.37 C 17.29 13.35 15.18 13.32 14.12 13.30 C 14.30 12.14 14.46 10.98 14.61 9.82 C 13.81 12.53 13.41 15.34 13.29 18.17 C 13.52 16.63 13.71 15.08 13.91 13.53 C 15.34 13.53 16.77 13.54 18.20 13.55 C 19.57 19.25 20.46 25.09 19.95 30.97 C 14.79 31.41 8.75 30.88 5.53 26.23 C 5.20 22.76 6.16 19.35 6.49 15.91 C 5.80 19.01 5.40 22.16 4.94 25.30 C 1.97 22.01 0.83 17.31 2.19 13.05 C 2.55 13.01 3.27 12.93 3.63 12.89 C 3.06 12.86 1.91 12.81 1.33 12.79 C 3.13 9.90 4.79 6.75 7.53 4.62 C 9.38 3.63 11.56 3.26 13.16 1.81 Z" />
<path fill="#3c4a5c" opacity="1.00" d=" M 18.06 6.81 C 23.75 10.12 28.91 15.09 29.95 21.89 C 28.46 23.50 26.89 25.03 25.29 26.53 C 24.62 19.44 21.76 12.82 18.06 6.81 Z" />
</g>
</svg>
