<?xml version="1.0" encoding="UTF-8" ?>
<!DOCTYPE svg PUBLIC "-//W3C//DTD SVG 1.1//EN" "http://www.w3.org/Graphics/SVG/1.1/DTD/svg11.dtd">
<svg width="32pt" height="32pt" viewBox="0 0 32 32" version="1.1" xmlns="http://www.w3.org/2000/svg">
<g id="#fcfcfcff">
<path fill="#fcfcfc" opacity="1.00" d=" M 0.00 0.00 L 32.00 0.00 L 32.00 25.20 C 30.35 24.90 28.70 24.57 27.07 24.12 C 27.22 22.40 27.77 20.76 28.14 19.08 C 30.81 13.48 27.11 7.60 22.65 4.35 C 15.71 0.78 5.48 4.59 2.94 11.98 C 0.42 18.81 5.36 26.44 12.09 28.36 C 0.28 31.81 29.72 33.41 19.02 28.29 C 21.83 27.98 24.46 23.14 27.00 25.72 C 28.60 26.91 31.06 28.89 32.00 25.98 L 32.00 32.00 L 0.00 32.00 L 0.00 0.00 Z" />
</g>
<g id="#d2d3d3ff">
<path fill="#d2d3d3" opacity="1.00" d=" M 2.94 11.98 C 5.48 4.59 15.71 0.78 22.65 4.35 C 27.11 7.60 30.81 13.48 28.14 19.08 C 27.98 14.25 26.12 22.04 24.34 23.19 C 23.92 21.23 23.55 19.26 23.20 17.29 C 23.27 15.92 23.41 13.19 23.48 11.82 C 21.39 7.63 17.27 12.03 18.86 15.16 L 19.02 15.97 C 18.59 15.98 17.72 16.00 17.28 16.01 C 15.80 10.36 11.00 18.12 16.87 16.97 C 17.20 17.10 17.85 17.36 18.17 17.50 L 17.12 17.84 C 16.14 18.16 15.17 18.50 14.20 18.85 C 13.94 18.55 13.40 17.94 13.13 17.64 C 12.77 16.75 12.41 15.86 12.05 14.96 C 12.03 13.60 12.00 12.24 11.97 10.89 C 14.07 11.56 16.93 12.88 18.29 10.30 C 22.53 4.90 9.01 5.11 11.97 10.89 C 8.96 9.09 7.24 10.89 6.76 13.98 C 3.50 17.07 6.55 8.75 2.94 11.98 Z" />
</g>
<g id="#666666ff">
<path fill="#666666" opacity="1.00" d=" M 11.97 10.89 C 9.01 5.11 22.53 4.90 18.29 10.30 C 16.93 12.88 14.07 11.56 11.97 10.89 Z" />
</g>
<g id="#181818ff">
<path fill="#181818" opacity="1.00" d=" M 6.76 13.98 C 7.24 10.89 8.96 9.09 11.97 10.89 C 12.00 12.24 12.03 13.60 12.05 14.96 C 10.03 16.87 5.97 18.39 6.76 13.98 Z" />
</g>
<g id="#101010ff">
<path fill="#101010" opacity="1.00" d=" M 18.86 15.16 C 17.27 12.03 21.39 7.63 23.48 11.82 C 23.77 14.94 21.38 15.27 18.86 15.16 Z" />
</g>
<g id="#adaeafff">
<path fill="#adaeaf" opacity="1.00" d=" M 2.94 11.98 C 6.55 8.75 3.50 17.07 6.76 13.98 C 5.97 18.39 10.03 16.87 12.05 14.96 C 12.41 15.86 12.77 16.75 13.13 17.64 C 11.01 17.93 7.97 17.96 8.29 20.86 C 6.82 23.05 8.96 25.26 11.11 23.59 C 14.65 24.74 15.71 21.63 14.20 18.85 C 15.17 18.50 16.14 18.16 17.12 17.84 C 16.35 20.66 14.46 25.48 18.76 23.40 C 19.52 27.20 24.57 22.42 22.24 20.69 C 21.33 19.10 19.98 17.92 18.17 17.50 C 17.85 17.36 17.20 17.10 16.87 16.97 L 17.28 16.01 C 17.72 16.00 18.59 15.98 19.02 15.97 C 20.42 16.38 21.81 16.83 23.20 17.29 C 23.55 19.26 23.92 21.23 24.34 23.19 C 26.12 22.04 27.98 14.25 28.14 19.08 C 27.77 20.76 27.22 22.40 27.07 24.12 C 27.06 24.52 27.02 25.32 27.00 25.72 C 24.46 23.14 21.83 27.98 19.02 28.29 C 16.72 28.62 14.40 28.64 12.09 28.36 C 5.36 26.44 0.42 18.81 2.94 11.98 Z" />
</g>
<g id="#505050ff">
<path fill="#505050" opacity="1.00" d=" M 23.48 11.82 C 23.41 13.19 23.27 15.92 23.20 17.29 C 21.81 16.83 20.42 16.38 19.02 15.97 L 18.86 15.16 C 21.38 15.27 23.77 14.94 23.48 11.82 Z" />
</g>
<g id="#494949ff">
<path fill="#494949" opacity="1.00" d=" M 16.87 16.97 C 11.00 18.12 15.80 10.36 17.28 16.01 L 16.87 16.97 Z" />
</g>
<g id="#2d2e2eff">
<path fill="#2d2e2e" opacity="1.00" d=" M 8.29 20.86 C 7.97 17.96 11.01 17.93 13.13 17.64 C 13.40 17.94 13.94 18.55 14.20 18.85 C 15.71 21.63 14.65 24.74 11.11 23.59 C 10.26 22.59 9.32 21.68 8.29 20.86 Z" />
</g>
<g id="#2c2c2cff">
<path fill="#2c2c2c" opacity="1.00" d=" M 17.12 17.84 L 18.17 17.50 C 19.98 17.92 21.33 19.10 22.24 20.69 C 21.07 21.59 19.92 22.50 18.76 23.40 C 14.46 25.48 16.35 20.66 17.12 17.84 Z" />
</g>
<g id="#f4f4f4ff">
<path fill="#f4f4f4" opacity="1.00" d=" M 11.11 23.59 C 8.96 25.26 6.82 23.05 8.29 20.86 C 9.32 21.68 10.26 22.59 11.11 23.59 Z" />
</g>
<g id="#dfdfdfff">
<path fill="#dfdfdf" opacity="1.00" d=" M 18.76 23.40 C 19.92 22.50 21.07 21.59 22.24 20.69 C 24.57 22.42 19.52 27.20 18.76 23.40 Z" />
</g>
<g id="#2e2e2eff">
<path fill="#2e2e2e" opacity="1.00" d=" M 27.07 24.12 C 28.70 24.57 30.35 24.90 32.00 25.20 L 32.00 25.98 C 31.06 28.89 28.60 26.91 27.00 25.72 C 27.02 25.32 27.06 24.52 27.07 24.12 Z" />
</g>
<g id="#d1d1d1ff">
<path fill="#d1d1d1" opacity="1.00" d=" M 12.09 28.36 C 14.40 28.64 16.72 28.62 19.02 28.29 C 29.72 33.41 0.28 31.81 12.09 28.36 Z" />
</g>
</svg>
