<?xml version="1.0" encoding="UTF-8" ?>
<!DOCTYPE svg PUBLIC "-//W3C//DTD SVG 1.1//EN" "http://www.w3.org/Graphics/SVG/1.1/DTD/svg11.dtd">
<svg width="16pt" height="16pt" viewBox="0 0 16 16" version="1.1" xmlns="http://www.w3.org/2000/svg">
<g id="#ffffffff">
<path fill="#ffffff" opacity="1.00" d=" M 0.00 0.00 L 16.00 0.00 L 16.00 5.95 C 15.66 5.30 14.97 3.98 14.63 3.32 C 9.96 1.74 4.63 1.42 0.22 3.96 C 0.87 4.34 1.56 4.48 2.30 4.40 L 2.77 4.42 C 3.20 6.92 2.92 9.47 2.99 12.00 C 4.42 12.00 5.85 12.01 7.28 12.01 L 7.29 13.13 C 5.52 13.15 3.74 13.14 1.97 13.10 C 1.92 10.88 1.89 8.66 1.93 6.43 C 1.51 6.54 1.10 6.68 0.70 6.85 C 0.52 7.68 0.17 9.36 0.00 10.19 L 0.00 0.00 Z" />
<path fill="#ffffff" opacity="1.00" d=" M 4.28 3.30 C 4.96 3.21 6.33 3.02 7.01 2.92 C 6.97 5.84 8.53 10.76 4.14 10.93 C 4.08 8.40 3.74 5.81 4.28 3.30 Z" />
<path fill="#ffffff" opacity="1.00" d=" M 9.10 3.05 C 13.64 2.24 11.60 8.32 11.84 10.95 C 10.44 10.55 9.05 10.13 7.69 9.61 C 8.28 7.58 6.92 4.24 9.10 3.05 Z" />
<path fill="#ffffff" opacity="1.00" d=" M 13.01 3.96 L 14.14 3.97 C 14.13 7.00 14.20 10.04 14.23 13.07 C 12.07 13.08 9.91 13.03 7.75 12.90 L 7.77 12.09 C 9.51 12.04 11.26 12.01 13.00 12.00 C 13.00 9.32 13.00 6.64 13.01 3.96 Z" />
<path fill="#ffffff" opacity="1.00" d=" M 16.00 10.19 C 14.40 9.72 13.85 6.18 16.00 6.50 L 16.00 10.19 Z" />
<path fill="#ffffff" opacity="1.00" d=" M -0.00 10.84 C 0.51 11.89 1.05 12.92 1.62 13.94 C 5.67 13.80 9.74 14.05 13.78 13.69 C 14.69 12.86 15.24 11.74 16.00 10.78 L 16.00 16.00 L 0.00 16.00 L 0.00 10.84 Z" />
</g>
<g id="#4c4c4aff">
<path fill="#4c4c4a" opacity="1.00" d=" M 0.22 3.96 C 4.63 1.42 9.96 1.74 14.63 3.32 C 14.97 3.98 15.66 5.30 16.00 5.95 L 16.00 6.50 C 13.85 6.18 14.40 9.72 16.00 10.19 L 16.00 10.78 C 15.24 11.74 14.69 12.86 13.78 13.69 C 9.74 14.05 5.67 13.80 1.62 13.94 C 1.05 12.92 0.51 11.89 -0.00 10.84 L 0.00 10.19 C 0.17 9.36 0.52 7.68 0.70 6.85 C 1.10 6.68 1.51 6.54 1.93 6.43 C 1.89 8.66 1.92 10.88 1.97 13.10 C 3.74 13.14 5.52 13.15 7.29 13.13 L 7.28 12.01 C 5.85 12.01 4.42 12.00 2.99 12.00 C 2.92 9.47 3.20 6.92 2.77 4.42 L 2.30 4.40 C 1.56 4.48 0.87 4.34 0.22 3.96 M 4.28 3.30 C 3.74 5.81 4.08 8.40 4.14 10.93 C 8.53 10.76 6.97 5.84 7.01 2.92 C 6.33 3.02 4.96 3.21 4.28 3.30 M 9.10 3.05 C 6.92 4.24 8.28 7.58 7.69 9.61 C 9.05 10.13 10.44 10.55 11.84 10.95 C 11.60 8.32 13.64 2.24 9.10 3.05 M 13.01 3.96 C 13.00 6.64 13.00 9.32 13.00 12.00 C 11.26 12.01 9.51 12.04 7.77 12.09 L 7.75 12.90 C 9.91 13.03 12.07 13.08 14.23 13.07 C 14.20 10.04 14.13 7.00 14.14 3.97 L 13.01 3.96 Z" />
</g>
</svg>
