<?xml version="1.0" encoding="UTF-8" ?>
<!DOCTYPE svg PUBLIC "-//W3C//DTD SVG 1.1//EN" "http://www.w3.org/Graphics/SVG/1.1/DTD/svg11.dtd">
<svg width="32pt" height="32pt" viewBox="0 0 32 32" version="1.1" xmlns="http://www.w3.org/2000/svg">
<g id="#119638ff">
<path fill="#119638" opacity="1.00" d=" M 0.00 0.00 L 6.92 0.00 C 6.86 5.37 6.85 10.74 6.37 16.09 C 3.69 18.13 1.61 20.83 0.00 23.76 L 0.00 0.00 Z" />
</g>
<g id="#219c36ff">
<path fill="#219c36" opacity="1.00" d=" M 6.92 0.00 L 14.13 0.00 C 14.00 2.41 13.85 4.81 13.83 7.22 C 11.58 5.48 12.38 2.46 12.11 0.01 C 11.60 1.66 11.12 3.31 10.65 4.97 C 12.00 7.46 13.10 10.10 13.43 12.94 C 11.05 13.93 8.65 14.89 6.37 16.09 C 6.85 10.74 6.86 5.37 6.92 0.00 Z" />
</g>
<g id="#38a534ff">
<path fill="#38a534" opacity="1.00" d=" M 14.13 0.00 L 24.99 0.00 C 24.93 1.38 24.94 2.77 24.80 4.15 C 24.08 5.64 23.34 7.14 22.34 8.47 C 20.83 8.95 19.21 8.80 17.65 8.93 C 17.71 7.55 17.76 6.16 17.81 4.78 C 15.50 4.78 15.57 7.06 15.16 8.73 C 14.83 8.35 14.16 7.60 13.83 7.22 C 13.85 4.81 14.00 2.41 14.13 0.00 Z" />
</g>
<g id="#53ae32ff">
<path fill="#53ae32" opacity="1.00" d=" M 24.99 0.00 L 32.00 0.00 L 32.00 28.88 C 28.76 26.94 25.02 28.07 21.56 28.58 C 20.79 24.93 20.64 21.14 19.24 17.64 C 18.46 15.82 18.70 13.82 18.73 11.91 C 22.12 10.64 25.32 8.24 24.80 4.15 C 24.94 2.77 24.93 1.38 24.99 0.00 Z" />
<path fill="#53ae32" opacity="1.00" d=" M 6.37 16.09 C 8.65 14.89 11.05 13.93 13.43 12.94 C 13.25 16.72 10.40 19.42 8.89 22.68 C 7.89 24.78 7.05 26.94 6.12 29.06 C 4.07 29.43 2.02 29.81 0.00 30.29 L 0.00 23.76 C 1.61 20.83 3.69 18.13 6.37 16.09 Z" />
<path fill="#53ae32" opacity="1.00" d=" M 8.54 30.38 C 9.25 25.56 12.17 21.29 15.84 18.18 C 18.36 21.43 19.10 25.44 18.94 29.46 C 16.83 29.61 14.74 29.29 12.72 28.69 C 11.32 29.25 9.93 29.82 8.54 30.38 Z" />
</g>
<g id="#1d1d1bff">
<path fill="#1d1d1b" opacity="1.00" d=" M 10.65 4.97 C 11.12 3.31 11.60 1.66 12.11 0.01 C 12.38 2.46 11.58 5.48 13.83 7.22 C 14.16 7.60 14.83 8.35 15.16 8.73 C 15.57 7.06 15.50 4.78 17.81 4.78 C 17.76 6.16 17.71 7.55 17.65 8.93 C 19.21 8.80 20.83 8.95 22.34 8.47 C 23.34 7.14 24.08 5.64 24.80 4.15 C 25.32 8.24 22.12 10.64 18.73 11.91 C 18.70 13.82 18.46 15.82 19.24 17.64 C 20.64 21.14 20.79 24.93 21.56 28.58 C 25.02 28.07 28.76 26.94 32.00 28.88 L 32.00 32.00 L 0.00 32.00 L 0.00 30.29 C 2.02 29.81 4.07 29.43 6.12 29.06 C 7.05 26.94 7.89 24.78 8.89 22.68 C 10.40 19.42 13.25 16.72 13.43 12.94 C 13.10 10.10 12.00 7.46 10.65 4.97 M 8.54 30.38 C 9.93 29.82 11.32 29.25 12.72 28.69 C 14.74 29.29 16.83 29.61 18.94 29.46 C 19.10 25.44 18.36 21.43 15.84 18.18 C 12.17 21.29 9.25 25.56 8.54 30.38 Z" />
</g>
</svg>
