<?xml version="1.0" encoding="UTF-8" ?>
<!DOCTYPE svg PUBLIC "-//W3C//DTD SVG 1.1//EN" "http://www.w3.org/Graphics/SVG/1.1/DTD/svg11.dtd">
<svg width="16pt" height="16pt" viewBox="0 0 16 16" version="1.1" xmlns="http://www.w3.org/2000/svg">
<g id="#fb6644fb">
<path fill="#fb6644" opacity="1.00" d=" M 3.16 5.14 C 4.83 4.14 6.67 5.19 8.35 5.56 C 10.95 4.29 13.79 4.71 15.64 7.03 C 13.54 8.65 10.34 5.56 9.45 8.97 C 10.57 11.97 13.65 9.20 15.68 10.79 C 13.81 13.19 10.89 13.34 8.30 12.22 C 6.52 12.77 4.51 13.50 2.75 12.47 C -0.08 11.01 0.08 6.21 3.16 5.14 M 2.70 8.89 C 3.52 9.68 4.32 10.48 5.12 11.30 C 6.07 10.43 8.09 8.79 6.43 7.58 C 5.19 5.90 3.57 7.94 2.70 8.89 Z" />
</g>
</svg>
