<?xml version="1.0" encoding="UTF-8" ?>
<!DOCTYPE svg PUBLIC "-//W3C//DTD SVG 1.1//EN" "http://www.w3.org/Graphics/SVG/1.1/DTD/svg11.dtd">
<svg width="16pt" height="16pt" viewBox="0 0 16 16" version="1.1" xmlns="http://www.w3.org/2000/svg">
<g id="#ffffffff">
<path fill="#ffffff" opacity="1.00" d=" M 0.00 0.00 L 16.00 0.00 L 16.00 16.00 L 8.78 16.00 C 9.17 15.46 9.96 14.39 10.35 13.85 C 11.40 12.60 12.44 11.34 13.49 10.09 C 12.79 8.14 12.72 5.51 10.60 4.48 C 6.52 1.88 1.69 7.52 3.51 11.51 C 4.14 13.07 5.75 13.88 7.00 14.87 C 6.60 15.15 5.81 15.72 5.42 16.00 L 0.00 16.00 L 0.00 0.00 Z" />
</g>
<g id="#0c377aff">
<path fill="#0c377a" opacity="1.00" d=" M 3.51 11.51 C 1.69 7.52 6.52 1.88 10.60 4.48 C 12.72 5.51 12.79 8.14 13.49 10.09 C 12.44 11.34 11.40 12.60 10.35 13.85 C 9.23 14.18 8.12 14.52 7.00 14.87 C 5.75 13.88 4.14 13.07 3.51 11.51 M 6.10 6.45 C 6.13 6.65 6.19 7.04 6.21 7.23 C 5.14 9.69 5.20 13.29 8.66 13.31 C 9.11 12.70 10.00 11.48 10.45 10.87 C 11.17 8.53 10.49 6.21 9.21 4.21 C 8.21 5.00 7.17 5.75 6.10 6.45 Z" />
</g>
<g id="#808791ff">
<path fill="#808791" opacity="1.00" d=" M 6.10 6.45 C 7.17 5.75 8.21 5.00 9.21 4.21 C 10.49 6.21 11.17 8.53 10.45 10.87 C 10.16 9.69 9.91 8.50 9.71 7.30 C 9.38 8.40 8.74 10.61 8.41 11.71 C 7.65 10.23 6.72 8.83 6.21 7.23 C 6.19 7.04 6.13 6.65 6.10 6.45 Z" />
</g>
<g id="#bfc2c5ff">
<path fill="#bfc2c5" opacity="1.00" d=" M 6.21 7.23 C 6.72 8.83 7.65 10.23 8.41 11.71 C 8.74 10.61 9.38 8.40 9.71 7.30 C 9.91 8.50 10.16 9.69 10.45 10.87 C 10.00 11.48 9.11 12.70 8.66 13.31 C 5.20 13.29 5.14 9.69 6.21 7.23 Z" />
</g>
<g id="#bbc2caff">
<path fill="#bbc2ca" opacity="1.00" d=" M 7.00 14.87 C 8.12 14.52 9.23 14.18 10.35 13.85 C 9.96 14.39 9.17 15.46 8.78 16.00 L 5.42 16.00 C 5.81 15.72 6.60 15.15 7.00 14.87 Z" />
</g>
</svg>
