<?xml version="1.0" encoding="UTF-8" ?>
<!DOCTYPE svg PUBLIC "-//W3C//DTD SVG 1.1//EN" "http://www.w3.org/Graphics/SVG/1.1/DTD/svg11.dtd">
<svg width="120pt" height="120pt" viewBox="0 0 120 120" version="1.1" xmlns="http://www.w3.org/2000/svg">
<g id="#ffffffff">
<path fill="#ffffff" opacity="1.00" d=" M 0.00 0.00 L 120.00 0.00 L 120.00 120.00 L 0.00 120.00 L 0.00 0.00 M 54.17 11.20 C 37.96 22.01 21.49 32.44 5.30 43.29 C 5.13 53.88 5.29 64.47 5.21 75.06 L 6.21 74.76 C 6.17 74.92 6.09 75.23 6.05 75.38 C 21.22 85.44 36.52 95.31 51.75 105.29 C 53.38 106.33 54.88 107.81 56.92 107.94 C 57.53 100.00 57.01 91.97 56.87 84.02 C 56.87 81.63 58.04 78.75 56.35 76.71 C 51.06 73.31 45.84 69.80 40.56 66.38 C 37.33 64.19 33.86 62.33 30.85 59.84 C 30.18 59.81 28.84 59.74 28.17 59.71 C 37.76 53.88 46.94 47.29 56.54 41.44 C 57.81 37.42 56.92 33.14 57.18 29.00 C 56.92 22.67 57.73 16.23 56.73 9.97 C 55.82 10.27 54.97 10.68 54.17 11.20 M 63.80 9.87 C 63.52 20.28 63.74 30.71 63.69 41.12 C 72.84 47.05 82.01 52.99 91.06 59.06 C 87.60 61.57 83.96 63.82 80.36 66.13 C 74.81 69.72 69.38 73.51 63.73 76.94 C 63.68 87.51 63.56 98.09 63.79 108.66 C 80.90 97.18 98.42 86.28 115.42 74.66 L 115.59 74.77 C 115.48 64.34 115.68 53.90 115.49 43.47 C 100.77 33.51 85.71 24.00 70.88 14.18 C 68.51 12.76 66.38 10.91 63.80 9.87 Z" />
</g>
<g id="#fcb040ff">
<path fill="#fcb040" opacity="1.00" d=" M 54.17 11.20 C 54.97 10.68 55.82 10.27 56.73 9.97 C 57.73 16.23 56.92 22.67 57.18 29.00 C 56.92 33.14 57.81 37.42 56.54 41.44 C 46.94 47.29 37.76 53.88 28.17 59.71 C 21.10 65.08 12.93 68.95 6.21 74.76 L 5.21 75.06 C 5.29 64.47 5.13 53.88 5.30 43.29 C 21.49 32.44 37.96 22.01 54.17 11.20 Z" />
</g>
<g id="#ec008cff">
<path fill="#ec008c" opacity="1.00" d=" M 63.80 9.87 C 66.38 10.91 68.51 12.76 70.88 14.18 C 85.71 24.00 100.77 33.51 115.49 43.47 C 115.68 53.90 115.48 64.34 115.59 74.77 L 115.42 74.66 C 114.79 74.29 114.17 73.91 113.54 73.54 C 105.98 68.83 98.64 63.76 91.06 59.06 C 82.01 52.99 72.84 47.05 63.69 41.12 C 63.74 30.71 63.52 20.28 63.80 9.87 Z" />
</g>
<g id="#2a030eff">
<path fill="#2a030e" opacity="1.00" d=" M 6.21 74.76 C 12.93 68.95 21.10 65.08 28.17 59.71 C 28.84 59.74 30.18 59.81 30.85 59.84 C 33.86 62.33 37.33 64.19 40.56 66.38 C 30.31 68.50 20.22 71.37 10.00 73.63 C 8.54 73.84 7.21 74.49 6.05 75.38 C 6.09 75.23 6.17 74.92 6.21 74.76 Z" />
<path fill="#2a030e" opacity="1.00" d=" M 91.06 59.06 C 98.64 63.76 105.98 68.83 113.54 73.54 C 109.90 74.19 106.45 72.51 102.94 71.85 C 95.43 69.88 87.77 68.44 80.36 66.13 C 83.96 63.82 87.60 61.57 91.06 59.06 Z" />
</g>
<g id="#92278fff">
<path fill="#92278f" opacity="1.00" d=" M 63.73 76.94 C 69.38 73.51 74.81 69.72 80.36 66.13 C 87.77 68.44 95.43 69.88 102.94 71.85 C 106.45 72.51 109.90 74.19 113.54 73.54 C 114.17 73.91 114.79 74.29 115.42 74.66 C 98.42 86.28 80.90 97.18 63.79 108.66 C 63.56 98.09 63.68 87.51 63.73 76.94 Z" />
</g>
<g id="#f1592aff">
<path fill="#f1592a" opacity="1.00" d=" M 10.00 73.63 C 20.22 71.37 30.31 68.50 40.56 66.38 C 45.84 69.80 51.06 73.31 56.35 76.71 C 58.04 78.75 56.87 81.63 56.87 84.02 C 57.01 91.97 57.53 100.00 56.92 107.94 C 54.88 107.81 53.38 106.33 51.75 105.29 C 36.52 95.31 21.22 85.44 6.05 75.38 C 7.21 74.49 8.54 73.84 10.00 73.63 Z" />
</g>
</svg>
