<?xml version="1.0" encoding="UTF-8" ?>
<!DOCTYPE svg PUBLIC "-//W3C//DTD SVG 1.1//EN" "http://www.w3.org/Graphics/SVG/1.1/DTD/svg11.dtd">
<svg width="70pt" height="70pt" viewBox="0 0 70 70" version="1.1" xmlns="http://www.w3.org/2000/svg">
<g id="#ffffffff">
<path fill="#ffffff" opacity="1.00" d=" M 0.00 0.00 L 70.00 0.00 L 70.00 70.00 L 0.00 70.00 L 0.00 0.00 M 14.32 2.34 C 11.13 3.37 8.46 6.19 7.36 9.32 C 6.91 17.10 7.21 24.93 7.24 32.72 C 9.68 33.39 12.29 33.71 14.51 32.21 C 14.45 25.54 14.33 18.87 14.49 12.21 C 14.31 9.82 17.13 9.19 18.94 8.84 C 23.82 8.47 28.72 8.80 33.60 8.68 C 33.59 6.51 33.60 4.35 33.64 2.19 C 27.20 2.24 20.74 1.88 14.32 2.34 M 37.29 2.28 C 37.35 4.61 37.40 6.93 37.53 9.26 C 43.33 9.38 49.16 8.96 54.94 9.50 C 56.54 10.78 57.65 12.86 57.33 14.95 C 56.55 20.83 56.04 26.90 57.44 32.74 C 59.45 33.49 61.57 33.36 63.56 32.61 C 63.50 25.07 63.62 17.53 63.52 9.99 C 63.56 6.13 60.12 2.14 56.12 2.23 C 49.85 2.05 43.56 2.11 37.29 2.28 M 19.71 24.53 C 22.28 24.61 24.85 24.68 27.43 24.76 C 27.49 25.98 27.55 27.20 27.63 28.43 C 24.71 28.57 21.69 28.10 18.84 28.87 C 18.78 29.76 18.65 31.52 18.58 32.40 C 21.51 32.79 24.47 32.68 27.42 32.73 C 27.44 33.93 27.46 35.14 27.48 36.34 C 25.07 36.50 22.61 36.37 20.23 36.89 C 18.77 37.58 18.79 39.57 18.65 40.96 C 18.69 46.14 18.10 51.43 19.53 56.48 C 30.48 56.56 41.44 56.75 52.38 56.37 C 52.54 49.86 52.60 43.33 52.33 36.82 C 49.21 36.27 44.57 37.56 43.30 33.65 C 46.33 33.33 49.38 33.34 52.42 33.34 C 52.51 31.73 52.59 30.12 52.67 28.51 C 49.65 28.50 46.63 28.48 43.62 28.36 C 43.65 27.48 43.71 25.71 43.75 24.83 C 46.63 24.70 49.52 24.61 52.40 24.41 C 52.45 21.13 52.73 17.85 52.39 14.59 C 51.62 12.49 48.93 12.54 47.06 12.56 C 38.39 12.71 29.70 12.34 21.05 12.75 C 17.08 15.16 18.72 20.84 19.71 24.53 M 7.26 36.44 C 7.24 44.54 6.82 52.70 7.45 60.77 C 9.01 63.93 12.00 67.33 15.91 66.91 C 21.83 66.94 27.75 66.95 33.67 66.85 C 33.61 64.72 33.58 62.59 33.56 60.46 C 28.09 60.29 22.59 60.77 17.14 60.23 C 16.10 59.38 14.49 58.54 14.51 57.01 C 14.24 50.21 14.57 43.40 14.40 36.59 C 12.02 36.55 9.64 36.52 7.26 36.44 M 56.54 37.18 C 56.69 43.79 56.73 50.42 56.61 57.04 C 56.74 58.64 55.16 59.70 53.89 60.30 C 48.41 60.69 42.89 60.33 37.40 60.47 C 37.38 62.57 37.35 64.67 37.30 66.77 C 43.53 66.99 49.78 66.96 56.01 66.88 C 59.38 67.03 61.85 64.05 63.31 61.36 C 63.84 53.10 63.49 44.78 63.46 36.50 C 61.13 36.46 58.77 36.39 56.54 37.18 Z" />
<path fill="#ffffff" opacity="1.00" d=" M 25.35 16.61 C 32.32 16.61 39.30 16.43 46.28 16.72 C 46.36 17.73 46.46 18.74 46.55 19.75 C 43.98 21.94 40.47 21.17 37.37 21.40 C 37.39 27.78 37.35 34.16 37.39 40.53 C 40.36 40.62 43.33 40.66 46.29 40.75 C 46.36 44.63 46.33 48.51 46.33 52.39 C 39.40 52.71 32.45 52.61 25.52 52.47 C 25.40 48.78 25.40 45.09 25.42 41.40 C 28.14 40.86 30.90 40.56 33.66 40.30 C 33.52 33.99 33.66 27.69 33.58 21.38 C 30.62 21.01 26.83 22.22 24.65 19.57 C 24.78 18.56 25.09 17.59 25.35 16.61 M 29.41 44.45 C 29.40 45.86 29.39 47.28 29.38 48.69 C 33.43 49.69 37.69 49.61 41.75 48.67 C 41.74 47.26 41.74 45.84 41.75 44.43 C 37.63 44.36 33.52 44.35 29.41 44.45 Z" />
</g>
<g id="#176571ff">
<path fill="#176571" opacity="1.00" d=" M 14.32 2.34 C 20.74 1.88 27.20 2.24 33.64 2.19 C 33.60 4.35 33.59 6.51 33.60 8.68 C 28.72 8.80 23.82 8.47 18.94 8.84 C 17.13 9.19 14.31 9.82 14.49 12.21 C 14.33 18.87 14.45 25.54 14.51 32.21 C 12.29 33.71 9.68 33.39 7.24 32.72 C 7.21 24.93 6.91 17.10 7.36 9.32 C 8.46 6.19 11.13 3.37 14.32 2.34 Z" />
<path fill="#176571" opacity="1.00" d=" M 37.29 2.28 C 43.56 2.11 49.85 2.05 56.12 2.23 C 60.12 2.14 63.56 6.13 63.52 9.99 C 63.62 17.53 63.50 25.07 63.56 32.61 C 61.57 33.36 59.45 33.49 57.44 32.74 C 56.04 26.90 56.55 20.83 57.33 14.95 C 57.65 12.86 56.54 10.78 54.94 9.50 C 49.16 8.96 43.33 9.38 37.53 9.26 C 37.40 6.93 37.35 4.61 37.29 2.28 Z" />
<path fill="#176571" opacity="1.00" d=" M 19.71 24.53 C 18.72 20.84 17.08 15.16 21.05 12.75 C 29.70 12.34 38.39 12.71 47.06 12.56 C 48.93 12.54 51.62 12.49 52.39 14.59 C 52.73 17.85 52.45 21.13 52.40 24.41 C 49.52 24.61 46.63 24.70 43.75 24.83 C 43.71 25.71 43.65 27.48 43.62 28.36 C 46.63 28.48 49.65 28.50 52.67 28.51 C 52.59 30.12 52.51 31.73 52.42 33.34 C 49.38 33.34 46.33 33.33 43.30 33.65 C 44.57 37.56 49.21 36.27 52.33 36.82 C 52.60 43.33 52.54 49.86 52.38 56.37 C 41.44 56.75 30.48 56.56 19.53 56.48 C 18.10 51.43 18.69 46.14 18.65 40.96 C 18.79 39.57 18.77 37.58 20.23 36.89 C 22.61 36.37 25.07 36.50 27.48 36.34 C 27.46 35.14 27.44 33.93 27.42 32.73 C 24.47 32.68 21.51 32.79 18.58 32.40 C 18.65 31.52 18.78 29.76 18.84 28.87 C 21.69 28.10 24.71 28.57 27.63 28.43 C 27.55 27.20 27.49 25.98 27.43 24.76 C 24.85 24.68 22.28 24.61 19.71 24.53 M 25.35 16.61 C 25.09 17.59 24.78 18.56 24.65 19.57 C 26.83 22.22 30.62 21.01 33.58 21.38 C 33.66 27.69 33.52 33.99 33.66 40.30 C 30.90 40.56 28.14 40.86 25.42 41.40 C 25.40 45.09 25.40 48.78 25.52 52.47 C 32.45 52.61 39.40 52.71 46.33 52.39 C 46.33 48.51 46.36 44.63 46.29 40.75 C 43.33 40.66 40.36 40.62 37.39 40.53 C 37.35 34.16 37.39 27.78 37.37 21.40 C 40.47 21.17 43.98 21.94 46.55 19.75 C 46.46 18.74 46.36 17.73 46.28 16.72 C 39.30 16.43 32.32 16.61 25.35 16.61 Z" />
<path fill="#176571" opacity="1.00" d=" M 7.26 36.44 C 9.64 36.52 12.02 36.55 14.40 36.59 C 14.57 43.40 14.24 50.21 14.51 57.01 C 14.49 58.54 16.10 59.38 17.14 60.23 C 22.59 60.77 28.09 60.29 33.56 60.46 C 33.58 62.59 33.61 64.72 33.67 66.85 C 27.75 66.95 21.83 66.94 15.91 66.91 C 12.00 67.33 9.01 63.93 7.45 60.77 C 6.82 52.70 7.24 44.54 7.26 36.44 Z" />
<path fill="#176571" opacity="1.00" d=" M 56.54 37.18 C 58.77 36.39 61.13 36.46 63.46 36.50 C 63.49 44.78 63.84 53.10 63.31 61.36 C 61.85 64.05 59.38 67.03 56.01 66.88 C 49.78 66.96 43.53 66.99 37.30 66.77 C 37.35 64.67 37.38 62.57 37.40 60.47 C 42.89 60.33 48.41 60.69 53.89 60.30 C 55.16 59.70 56.74 58.64 56.61 57.04 C 56.73 50.42 56.69 43.79 56.54 37.18 Z" />
<path fill="#176571" opacity="1.00" d=" M 29.41 44.45 C 33.52 44.35 37.63 44.36 41.75 44.43 C 41.74 45.84 41.74 47.26 41.75 48.67 C 37.69 49.61 33.43 49.69 29.38 48.69 C 29.39 47.28 29.40 45.86 29.41 44.45 Z" />
</g>
</svg>
