<?xml version="1.0" encoding="UTF-8" ?>
<!DOCTYPE svg PUBLIC "-//W3C//DTD SVG 1.1//EN" "http://www.w3.org/Graphics/SVG/1.1/DTD/svg11.dtd">
<svg width="32pt" height="32pt" viewBox="0 0 32 32" version="1.1" xmlns="http://www.w3.org/2000/svg">
<g id="#ffffffff">
<path fill="#ffffff" opacity="1.00" d=" M 0.00 0.00 L 32.00 0.00 L 32.00 32.00 L 30.73 32.00 C 30.40 29.79 30.05 27.30 27.90 26.08 C 25.91 24.12 23.13 25.40 20.74 25.50 C 17.07 26.02 13.83 23.80 10.73 22.20 C 9.10 20.41 8.63 17.97 7.92 15.74 C 10.70 13.89 12.38 10.99 12.36 7.60 C 11.84 7.84 10.81 8.32 10.30 8.56 C 10.47 7.29 10.63 6.02 10.77 4.74 C 10.08 3.89 9.44 3.00 8.83 2.08 C 8.55 2.25 7.98 2.58 7.70 2.74 L 7.14 3.07 C 5.89 3.86 4.81 4.87 3.80 5.94 C 2.48 11.29 2.48 16.91 3.33 22.33 C 3.43 24.57 5.16 26.11 6.65 27.55 C 6.69 28.01 6.77 28.94 6.81 29.40 C 7.83 30.28 8.85 31.16 9.91 32.00 L 0.00 32.00 L 0.00 0.00 M 13.22 10.23 C 11.71 13.32 12.32 16.89 12.77 20.16 C 15.46 22.23 18.25 25.81 22.10 24.15 C 24.56 22.46 28.06 20.65 27.77 17.14 C 27.87 14.58 28.04 11.71 26.46 9.52 C 23.47 5.13 15.65 5.43 13.22 10.23 Z" />
</g>
<g id="#4f3803ff">
<path fill="#4f3803" opacity="1.00" d=" M 7.70 2.74 C 7.98 2.58 8.55 2.25 8.83 2.08 C 9.44 3.00 10.08 3.89 10.77 4.74 C 10.63 6.02 10.47 7.29 10.30 8.56 C 10.14 9.25 9.83 10.62 9.67 11.31 C 9.42 10.82 8.92 9.84 8.67 9.35 C 8.19 7.17 7.89 4.96 7.70 2.74 Z" />
<path fill="#4f3803" opacity="1.00" d=" M 3.80 5.94 C 4.81 4.87 5.89 3.86 7.14 3.07 C 7.36 4.82 7.57 6.58 7.77 8.33 C 7.31 8.47 6.38 8.75 5.91 8.89 C 5.55 9.00 4.83 9.23 4.47 9.35 C 4.69 15.09 2.72 22.18 7.33 26.69 C 7.92 25.47 8.49 24.25 9.05 23.02 C 7.98 20.40 7.10 17.69 6.45 14.94 C 9.44 13.44 10.62 10.22 12.36 7.60 C 12.38 10.99 10.70 13.89 7.92 15.74 C 8.63 17.97 9.10 20.41 10.73 22.20 C 10.59 22.54 10.33 23.23 10.19 23.57 C 9.52 25.29 8.83 27.00 8.13 28.71 C 9.07 29.82 10.00 30.93 10.99 32.00 L 9.91 32.00 C 8.85 31.16 7.83 30.28 6.81 29.40 C 6.77 28.94 6.69 28.01 6.65 27.55 C 5.16 26.11 3.43 24.57 3.33 22.33 C 2.87 16.87 3.10 11.37 3.80 5.94 Z" />
<path fill="#4f3803" opacity="1.00" d=" M 13.22 10.23 C 15.65 5.43 23.47 5.13 26.46 9.52 C 28.04 11.71 27.87 14.58 27.77 17.14 C 28.06 20.65 24.56 22.46 22.10 24.15 C 18.25 25.81 15.46 22.23 12.77 20.16 C 12.32 16.89 11.71 13.32 13.22 10.23 M 17.17 8.26 C 14.79 9.09 14.06 11.67 13.36 13.81 C 16.42 12.79 19.19 11.14 21.86 9.38 C 23.71 11.44 25.46 13.58 26.91 15.94 C 26.40 13.95 26.35 11.74 25.18 9.99 C 23.34 7.55 19.86 7.56 17.17 8.26 M 15.14 14.62 C 15.04 17.52 15.01 21.39 18.12 22.79 C 21.34 24.36 24.88 21.39 24.88 18.07 C 25.72 15.12 23.25 13.14 21.56 11.17 C 19.60 12.64 17.43 13.77 15.14 14.62 Z" />
<path fill="#4f3803" opacity="1.00" d=" M 18.23 20.05 C 19.33 19.46 21.58 19.16 22.15 20.55 C 21.52 22.02 17.66 21.91 18.23 20.05 Z" />
</g>
<g id="#f1b414ff">
<path fill="#f1b414" opacity="1.00" d=" M 7.14 3.07 L 7.70 2.74 C 7.89 4.96 8.19 7.17 8.67 9.35 C 7.98 9.23 6.60 9.00 5.91 8.89 C 6.38 8.75 7.31 8.47 7.77 8.33 C 7.57 6.58 7.36 4.82 7.14 3.07 Z" />
<path fill="#f1b414" opacity="1.00" d=" M 17.17 8.26 C 19.86 7.56 23.34 7.55 25.18 9.99 C 26.35 11.74 26.40 13.95 26.91 15.94 C 25.46 13.58 23.71 11.44 21.86 9.38 C 19.19 11.14 16.42 12.79 13.36 13.81 C 14.06 11.67 14.79 9.09 17.17 8.26 Z" />
</g>
<g id="#93d4f6ff">
<path fill="#93d4f6" opacity="1.00" d=" M 3.33 22.33 C 2.48 16.91 2.48 11.29 3.80 5.94 C 3.10 11.37 2.87 16.87 3.33 22.33 Z" />
<path fill="#93d4f6" opacity="1.00" d=" M 10.19 23.57 C 14.65 26.63 20.14 28.16 25.40 26.25 C 27.56 27.52 29.29 29.29 29.29 31.99 L 30.05 32.00 L 10.99 32.00 C 10.00 30.93 9.07 29.82 8.13 28.71 C 8.83 27.00 9.52 25.29 10.19 23.57 Z" />
</g>
<g id="#fdec27ff">
<path fill="#fdec27" opacity="1.00" d=" M 9.67 11.31 C 9.83 10.62 10.14 9.25 10.30 8.56 C 10.81 8.32 11.84 7.84 12.36 7.60 C 10.62 10.22 9.44 13.44 6.45 14.94 C 7.10 17.69 7.98 20.40 9.05 23.02 C 8.49 24.25 7.92 25.47 7.33 26.69 C 2.72 22.18 4.69 15.09 4.47 9.35 C 4.83 9.23 5.55 9.00 5.91 8.89 C 6.60 9.00 7.98 9.23 8.67 9.35 C 8.92 9.84 9.42 10.82 9.67 11.31 Z" />
</g>
<g id="#ffee27ff">
<path fill="#ffee27" opacity="1.00" d=" M 15.14 14.62 C 17.43 13.77 19.60 12.64 21.56 11.17 C 23.25 13.14 25.72 15.12 24.88 18.07 C 24.88 21.39 21.34 24.36 18.12 22.79 C 15.01 21.39 15.04 17.52 15.14 14.62 M 17.09 15.43 C 16.64 17.08 17.22 17.61 18.82 17.02 C 19.28 15.38 18.71 14.85 17.09 15.43 M 21.19 15.42 C 20.64 17.02 21.18 17.59 22.83 17.11 C 23.39 15.50 22.84 14.94 21.19 15.42 M 18.23 20.05 C 17.66 21.91 21.52 22.02 22.15 20.55 C 21.58 19.16 19.33 19.46 18.23 20.05 Z" />
</g>
<g id="#544c08ff">
<path fill="#544c08" opacity="1.00" d=" M 17.09 15.43 C 18.71 14.85 19.28 15.38 18.82 17.02 C 17.22 17.61 16.64 17.08 17.09 15.43 Z" />
</g>
<g id="#564d09ff">
<path fill="#564d09" opacity="1.00" d=" M 21.19 15.42 C 22.84 14.94 23.39 15.50 22.83 17.11 C 21.18 17.59 20.64 17.02 21.19 15.42 Z" />
</g>
<g id="#42555eff">
<path fill="#42555e" opacity="1.00" d=" M 10.19 23.57 C 10.33 23.23 10.59 22.54 10.73 22.20 C 13.83 23.80 17.07 26.02 20.74 25.50 C 23.13 25.40 25.91 24.12 27.90 26.08 C 30.05 27.30 30.40 29.79 30.73 32.00 L 30.05 32.00 L 29.29 31.99 C 29.29 29.29 27.56 27.52 25.40 26.25 C 20.14 28.16 14.65 26.63 10.19 23.57 Z" />
</g>
</svg>
