<?xml version="1.0" encoding="UTF-8" ?>
<!DOCTYPE svg PUBLIC "-//W3C//DTD SVG 1.1//EN" "http://www.w3.org/Graphics/SVG/1.1/DTD/svg11.dtd">
<svg width="48pt" height="48pt" viewBox="0 0 48 48" version="1.1" xmlns="http://www.w3.org/2000/svg">
<g id="#70a446fe">
<path fill="#70a446" opacity="1.00" d=" M 8.24 14.01 C 8.33 12.50 7.64 9.16 10.04 9.29 C 22.07 9.74 34.10 10.38 46.13 10.98 C 49.15 11.34 47.31 15.34 47.32 17.26 C 35.20 16.77 23.08 16.09 10.95 15.65 C 9.92 15.59 7.99 15.60 8.24 14.01 Z" />
</g>
<g id="#e26e4aff">
<path fill="#e26e4a" opacity="1.00" d=" M 0.00 17.75 C 13.69 17.58 27.40 17.65 41.09 17.78 C 41.72 19.55 40.88 20.82 39.00 20.52 C 26.00 20.48 13.00 20.63 0.00 20.42 L 0.00 17.75 Z" />
</g>
<g id="#575957ff">
<path fill="#575957" opacity="1.00" d=" M 4.30 22.21 C 14.75 22.02 25.21 22.06 35.66 22.18 C 35.77 24.33 35.72 26.47 35.40 28.60 C 25.00 28.09 14.56 28.97 4.19 28.26 C 4.23 26.24 4.35 24.22 4.30 22.21 Z" />
</g>
<g id="#ecc93efe">
<path fill="#ecc93e" opacity="1.00" d=" M 9.63 30.07 C 21.18 29.58 32.75 29.59 44.28 28.81 C 44.78 30.37 44.77 31.99 44.63 33.59 C 32.98 33.79 21.34 34.37 9.69 34.51 C 9.64 33.03 9.62 31.55 9.63 30.07 Z" />
</g>
<g id="#212a4eff">
<path fill="#212a4e" opacity="1.00" d=" M 6.65 35.59 C 17.89 35.52 29.16 35.25 40.40 35.62 C 40.34 36.49 40.22 38.25 40.17 39.12 C 29.05 39.17 17.94 39.17 6.83 39.12 C 6.78 38.24 6.70 36.48 6.65 35.59 Z" />
</g>
</svg>
