<?xml version="1.0" encoding="UTF-8" ?>
<!DOCTYPE svg PUBLIC "-//W3C//DTD SVG 1.1//EN" "http://www.w3.org/Graphics/SVG/1.1/DTD/svg11.dtd">
<svg width="16pt" height="16pt" viewBox="0 0 16 16" version="1.1" xmlns="http://www.w3.org/2000/svg">
<g id="#b9002dff">
<path fill="#b9002d" opacity="1.00" d=" M 0.00 0.00 L 16.00 0.00 L 16.00 3.35 C 13.54 2.92 11.05 2.81 8.56 2.73 C 8.51 6.23 8.50 9.74 8.53 13.24 L 10.32 13.23 C 10.36 11.81 10.40 10.40 10.43 8.98 C 10.97 9.02 12.03 9.11 12.56 9.16 C 13.70 10.74 14.87 12.31 16.00 13.91 L 16.00 16.00 L 0.00 16.00 L 0.00 14.03 C 2.37 12.75 5.41 11.17 5.19 7.98 C 5.27 4.88 2.36 3.44 0.00 2.27 L 0.00 0.00 M 5.31 3.25 C 4.81 4.90 5.37 5.45 6.99 4.90 C 7.49 3.25 6.93 2.70 5.31 3.25 Z" />
<path fill="#b9002d" opacity="1.00" d=" M 0.00 3.97 C 2.31 5.41 4.04 7.69 2.68 10.45 C 2.01 10.80 0.67 11.51 0.00 11.86 L 0.00 3.97 Z" />
<path fill="#b9002d" opacity="1.00" d=" M 10.15 6.89 C 10.25 6.33 10.44 5.21 10.54 4.65 C 12.03 4.76 13.52 4.88 15.01 5.02 C 15.11 7.87 11.99 7.10 10.15 6.89 Z" />
</g>
<g id="#f6dfe5ff">
<path fill="#f6dfe5" opacity="1.00" d=" M 0.00 2.27 C 2.36 3.44 5.27 4.88 5.19 7.98 C 5.41 11.17 2.37 12.75 0.00 14.03 L 0.00 11.86 C 0.67 11.51 2.01 10.80 2.68 10.45 C 4.04 7.69 2.31 5.41 0.00 3.97 L 0.00 2.27 Z" />
<path fill="#f6dfe5" opacity="1.00" d=" M 5.31 3.25 C 6.93 2.70 7.49 3.25 6.99 4.90 C 5.37 5.45 4.81 4.90 5.31 3.25 Z" />
<path fill="#f6dfe5" opacity="1.00" d=" M 8.56 2.73 C 11.05 2.81 13.54 2.92 16.00 3.35 L 16.00 8.08 C 15.66 8.26 14.98 8.62 14.64 8.79 L 14.74 9.80 C 15.06 10.07 15.69 10.61 16.00 10.88 L 16.00 13.91 C 14.87 12.31 13.70 10.74 12.56 9.16 C 12.03 9.11 10.97 9.02 10.43 8.98 C 10.40 10.40 10.36 11.81 10.32 13.23 L 8.53 13.24 C 8.50 9.74 8.51 6.23 8.56 2.73 M 10.15 6.89 C 11.99 7.10 15.11 7.87 15.01 5.02 C 13.52 4.88 12.03 4.76 10.54 4.65 C 10.44 5.21 10.25 6.33 10.15 6.89 Z" />
</g>
<g id="#d35f7bff">
<path fill="#d35f7b" opacity="1.00" d=" M 14.64 8.79 C 14.98 8.62 15.66 8.26 16.00 8.08 L 16.00 10.88 C 15.69 10.61 15.06 10.07 14.74 9.80 L 14.64 8.79 Z" />
</g>
</svg>
