<?xml version="1.0" encoding="UTF-8" ?>
<!DOCTYPE svg PUBLIC "-//W3C//DTD SVG 1.1//EN" "http://www.w3.org/Graphics/SVG/1.1/DTD/svg11.dtd">
<svg width="20pt" height="20pt" viewBox="0 0 20 20" version="1.1" xmlns="http://www.w3.org/2000/svg">
<g id="#03699cc5">
<path fill="#03699c" opacity="0.77" d=" M 8.70 0.00 L 11.25 0.00 C 13.74 1.75 16.75 2.94 18.72 5.32 C 18.99 8.61 19.29 12.09 18.35 15.29 C 16.20 17.14 13.65 18.43 11.30 20.00 L 8.79 20.00 C 6.20 18.29 3.55 16.67 0.97 14.94 C 0.99 11.65 0.99 8.35 0.96 5.06 C 3.52 3.34 6.15 1.73 8.70 0.00 M 3.33 5.45 L 2.79 5.04 C 2.70 5.40 2.52 6.10 2.43 6.46 C 2.38 9.10 2.40 11.75 2.48 14.40 C 4.72 15.81 7.03 17.10 9.51 18.05 L 9.48 18.84 C 9.78 18.88 10.36 18.95 10.66 18.99 L 10.63 18.13 C 13.13 17.14 15.47 15.83 17.71 14.37 C 17.82 11.26 17.66 8.15 17.59 5.04 C 17.38 5.18 16.95 5.44 16.74 5.58 C 14.75 3.76 12.46 2.32 10.05 1.12 C 7.73 2.43 5.46 3.84 3.33 5.45 Z" />
</g>
<g id="#242d34ff">
<path fill="#242d34" opacity="1.00" d=" M 3.33 5.45 C 5.46 3.84 7.73 2.43 10.05 1.12 C 12.46 2.32 14.75 3.76 16.74 5.58 C 14.48 7.04 12.24 8.56 9.93 9.95 C 7.68 8.53 5.45 7.06 3.33 5.45 Z" />
<path fill="#242d34" opacity="1.00" d=" M 2.43 6.46 C 4.71 7.57 7.06 8.61 9.02 10.24 C 10.04 12.68 9.42 15.47 9.51 18.05 C 7.03 17.10 4.72 15.81 2.48 14.40 C 2.40 11.75 2.38 9.10 2.43 6.46 Z" />
</g>
<g id="#242c33ff">
<path fill="#242c33" opacity="1.00" d=" M 10.97 10.24 C 12.86 8.64 15.10 7.54 17.25 6.35 C 17.42 9.02 17.53 11.70 17.71 14.37 C 15.47 15.83 13.13 17.14 10.63 18.13 C 10.62 15.50 10.36 12.82 10.97 10.24 Z" />
</g>
</svg>
