<?xml version="1.0" encoding="UTF-8" ?>
<!DOCTYPE svg PUBLIC "-//W3C//DTD SVG 1.1//EN" "http://www.w3.org/Graphics/SVG/1.1/DTD/svg11.dtd">
<svg width="114pt" height="118pt" viewBox="0 0 114 118" version="1.1" xmlns="http://www.w3.org/2000/svg">
<g id="#036738ff">
<path fill="#036738" opacity="1.00" d=" M 31.26 7.04 C 44.33 0.55 59.69 -1.23 73.92 1.91 C 92.52 6.47 107.06 21.74 113.88 39.24 C 103.50 43.11 93.12 47.00 82.74 50.89 C 80.87 51.48 79.06 52.57 77.05 52.52 C 73.33 47.22 69.32 41.56 63.10 39.02 C 52.00 35.43 39.37 43.75 37.63 55.11 C 36.83 62.98 40.27 71.63 47.33 75.65 C 51.67 78.37 57.07 77.77 61.94 77.45 C 67.07 76.32 71.52 72.87 74.61 68.70 C 75.50 67.81 76.35 65.79 77.93 66.63 C 89.97 70.51 101.88 74.78 114.00 78.41 L 114.00 79.67 C 106.91 96.01 93.06 109.79 75.82 114.98 C 60.66 119.49 43.48 118.40 29.66 110.37 C 15.63 102.54 5.90 88.26 2.09 72.82 C -1.13 58.19 0.52 42.23 8.03 29.13 C 13.31 19.61 21.47 11.81 31.26 7.04 M 31.68 11.72 C 21.48 17.20 13.25 26.31 9.02 37.10 C 3.14 51.13 3.50 67.53 9.57 81.44 C 14.64 92.87 23.53 102.82 34.93 108.17 C 45.65 113.61 58.28 114.49 69.93 112.01 C 86.54 108.52 101.24 96.71 108.13 81.22 C 98.16 77.92 88.28 74.32 78.21 71.34 C 74.80 75.28 70.91 79.13 65.82 80.76 C 56.01 84.31 43.37 81.59 37.63 72.38 C 33.58 66.48 32.92 58.95 34.03 52.05 C 37.08 38.26 54.26 29.52 67.01 36.07 C 72.19 38.42 75.33 43.30 79.08 47.30 C 83.00 46.46 86.62 44.68 90.40 43.39 C 96.14 41.02 102.21 39.41 107.81 36.72 C 106.95 33.48 104.80 30.81 103.01 28.03 C 95.18 16.42 82.84 7.45 68.84 5.29 C 56.20 3.50 42.92 5.61 31.68 11.72 Z" />
</g>
<g id="#3aac54ff">
<path fill="#3aac54" opacity="1.00" d=" M 31.68 11.72 C 42.92 5.61 56.20 3.50 68.84 5.29 C 82.84 7.45 95.18 16.42 103.01 28.03 C 104.80 30.81 106.95 33.48 107.81 36.72 C 102.21 39.41 96.14 41.02 90.40 43.39 C 86.62 44.68 83.00 46.46 79.08 47.30 C 75.33 43.30 72.19 38.42 67.01 36.07 C 54.26 29.52 37.08 38.26 34.03 52.05 C 32.92 58.95 33.58 66.48 37.63 72.38 C 43.37 81.59 56.01 84.31 65.82 80.76 C 70.91 79.13 74.80 75.28 78.21 71.34 C 88.28 74.32 98.16 77.92 108.13 81.22 C 101.24 96.71 86.54 108.52 69.93 112.01 C 58.28 114.49 45.65 113.61 34.93 108.17 C 23.53 102.82 14.64 92.87 9.57 81.44 C 3.50 67.53 3.14 51.13 9.02 37.10 C 13.25 26.31 21.48 17.20 31.68 11.72 Z" />
</g>
</svg>
