<?xml version="1.0" encoding="UTF-8" ?>
<!DOCTYPE svg PUBLIC "-//W3C//DTD SVG 1.1//EN" "http://www.w3.org/Graphics/SVG/1.1/DTD/svg11.dtd">
<svg width="514pt" height="525pt" viewBox="0 0 514 525" version="1.1" xmlns="http://www.w3.org/2000/svg">
<g id="#e3e3e3ff">
<path fill="#e3e3e3" opacity="1.00" d=" M 0.00 0.00 L 514.00 0.00 L 514.00 269.42 C 510.92 267.37 510.97 263.07 507.85 261.13 C 504.69 259.27 505.77 254.18 501.96 253.04 C 494.19 249.51 487.15 244.08 478.59 242.56 C 475.13 243.10 472.27 240.70 471.41 237.66 C 469.33 231.20 465.69 225.35 464.32 218.65 C 462.99 217.41 461.99 215.96 461.79 214.11 C 461.08 211.48 458.11 210.55 456.51 208.58 C 452.68 200.52 446.01 194.40 440.49 187.54 C 437.66 185.75 434.73 184.02 432.63 181.34 C 426.43 177.68 420.52 173.58 414.56 169.57 C 410.92 170.04 409.05 167.19 406.62 165.37 C 399.64 162.87 392.42 161.04 385.13 159.71 C 382.98 159.14 380.94 157.66 378.66 158.56 C 374.47 159.80 371.03 153.20 367.18 156.15 C 362.07 159.35 356.18 155.87 350.69 156.47 C 342.45 157.20 334.20 155.49 326.00 156.91 C 321.46 156.42 316.86 156.44 312.35 156.45 C 307.99 158.24 304.44 154.23 301.52 151.59 C 300.72 147.93 296.54 146.92 295.42 143.50 C 289.46 139.95 284.16 134.80 276.88 134.23 C 273.44 134.00 270.01 130.84 271.04 127.17 C 277.95 126.06 284.99 126.00 291.90 124.81 C 302.40 121.97 311.89 116.21 319.81 108.83 C 324.38 105.76 324.99 99.71 328.63 95.76 C 329.92 90.94 333.83 85.95 331.38 80.99 C 333.52 64.66 327.26 46.40 313.62 36.41 C 307.15 32.67 301.30 28.10 295.25 23.77 C 285.42 11.11 269.24 5.93 254.03 3.43 C 251.75 3.90 249.47 3.63 247.20 3.26 C 244.95 4.26 247.88 6.32 248.20 7.82 C 230.73 5.82 213.17 15.28 204.03 30.02 C 201.00 34.85 200.10 40.57 197.68 45.66 C 193.67 47.55 189.38 49.00 186.01 52.01 C 179.03 56.48 176.04 64.54 174.11 72.19 C 172.23 70.04 169.32 71.56 170.46 74.29 C 168.64 79.93 169.05 86.32 171.09 91.94 C 171.97 93.98 170.28 96.39 171.82 98.21 C 174.70 102.37 175.99 107.64 180.09 110.91 C 184.05 113.93 185.99 119.55 191.09 120.86 C 193.78 121.70 196.45 122.66 198.76 124.32 C 199.11 125.93 198.28 127.51 198.09 129.10 C 200.22 127.83 201.75 124.19 204.65 125.38 C 209.53 127.18 214.81 126.07 219.77 127.38 C 222.73 126.68 225.68 125.78 228.75 127.09 C 231.67 129.36 227.61 136.01 232.87 135.10 C 233.20 135.32 233.87 135.76 234.21 135.98 C 221.45 138.16 210.09 147.18 206.70 159.84 C 187.81 160.34 168.90 159.69 150.01 160.10 C 128.15 162.19 106.22 169.85 89.61 184.59 C 70.27 200.04 57.50 222.73 52.74 246.89 C 45.69 246.64 38.47 244.79 31.66 247.63 C 19.32 251.76 9.00 263.60 9.07 277.00 C 8.87 284.40 9.03 291.80 8.96 299.21 C 8.53 299.05 7.68 298.73 7.25 298.57 C 9.26 289.88 5.14 295.33 3.42 297.17 C 4.77 313.38 2.09 330.21 6.50 346.02 C 6.09 350.12 8.50 353.95 10.98 357.02 C 14.15 361.19 16.88 365.68 20.46 369.54 C 28.00 373.13 35.41 377.67 44.03 377.96 C 46.41 377.70 47.71 380.32 47.52 382.37 C 47.85 390.94 45.63 399.41 46.82 407.97 C 45.47 413.96 47.87 419.91 47.70 425.89 C 46.33 432.18 51.96 437.77 50.21 443.93 C 50.94 446.27 52.11 448.46 52.85 450.81 C 51.63 451.13 49.23 450.63 50.22 452.64 C 51.61 453.11 53.48 453.34 54.00 454.98 C 56.06 460.05 58.83 464.79 61.10 469.76 C 63.02 475.69 67.93 479.82 70.74 485.27 C 75.19 490.50 80.31 495.29 83.42 501.53 C 85.84 502.21 88.88 502.61 89.61 505.47 C 96.17 510.75 104.87 513.52 109.65 520.79 C 109.96 519.39 111.31 518.46 112.59 519.47 C 116.50 521.43 120.80 522.53 124.46 525.00 L 0.00 525.00 L 0.00 0.00 Z" />
<path fill="#e3e3e3" opacity="1.00" d=" M 503.09 367.08 C 507.45 362.13 511.90 356.92 514.00 350.57 L 514.00 525.00 L 400.53 525.00 C 404.34 521.79 409.88 521.83 414.00 519.00 C 417.07 516.91 421.42 516.94 423.69 513.71 C 427.42 508.60 434.36 507.24 437.98 501.98 C 447.98 494.15 456.24 484.34 462.18 473.13 C 466.73 466.42 467.77 458.09 472.24 451.30 C 473.01 447.79 473.02 444.01 474.58 440.66 C 477.06 433.92 476.88 426.60 478.72 419.71 C 478.87 411.81 478.05 403.90 477.16 396.06 C 477.03 393.78 481.06 392.75 479.57 390.36 C 477.71 386.99 477.55 383.08 478.16 379.32 C 486.59 375.55 495.91 373.13 503.09 367.08 Z" />
</g>
<g id="#ddddddff">
<path fill="#dddddd" opacity="1.00" d=" M 247.20 3.26 C 249.47 3.63 251.75 3.90 254.03 3.43 C 269.24 5.93 285.42 11.11 295.25 23.77 C 301.30 28.10 307.15 32.67 313.62 36.41 C 327.26 46.40 333.52 64.66 331.38 80.99 C 333.83 85.95 329.92 90.94 328.63 95.76 C 324.99 99.71 324.38 105.76 319.81 108.83 C 311.89 116.21 302.40 121.97 291.90 124.81 C 284.99 126.00 277.95 126.06 271.04 127.17 C 270.01 130.84 273.44 134.00 276.88 134.23 C 284.16 134.80 289.46 139.95 295.42 143.50 C 296.54 146.92 300.72 147.93 301.52 151.59 C 304.44 154.23 307.99 158.24 312.35 156.45 C 316.86 156.44 321.46 156.42 326.00 156.91 C 334.20 155.49 342.45 157.20 350.69 156.47 C 356.18 155.87 362.07 159.35 367.18 156.15 C 371.03 153.20 374.47 159.80 378.66 158.56 C 380.94 157.66 382.98 159.14 385.13 159.71 C 392.42 161.04 399.64 162.87 406.62 165.37 C 409.05 167.19 410.92 170.04 414.56 169.57 C 420.52 173.58 426.43 177.68 432.63 181.34 C 434.73 184.02 437.66 185.75 440.49 187.54 C 446.01 194.40 452.68 200.52 456.51 208.58 C 458.11 210.55 461.08 211.48 461.79 214.11 C 461.99 215.96 462.99 217.41 464.32 218.65 C 465.69 225.35 469.33 231.20 471.41 237.66 C 472.27 240.70 475.13 243.10 478.59 242.56 C 487.15 244.08 494.19 249.51 501.96 253.04 C 505.77 254.18 504.69 259.27 507.85 261.13 C 510.97 263.07 510.92 267.37 514.00 269.42 L 514.00 283.48 C 511.09 271.30 505.54 258.41 494.02 252.00 C 488.86 249.26 483.22 245.87 477.21 246.16 C 477.04 246.68 476.72 247.73 476.56 248.26 C 475.67 247.92 474.80 247.57 473.95 247.20 C 472.75 242.84 469.07 239.64 467.72 235.30 C 464.43 224.33 458.56 214.39 451.82 205.20 C 443.52 195.48 435.29 185.52 424.28 178.70 C 412.04 171.92 399.74 163.72 385.28 163.11 C 385.16 163.58 384.91 164.52 384.79 164.99 C 358.66 157.08 331.03 160.96 304.20 159.93 C 297.93 151.63 291.36 142.66 281.32 138.67 C 276.66 136.42 269.28 136.60 267.28 130.73 C 267.06 127.58 269.10 124.15 272.34 123.35 C 280.99 122.98 289.74 122.52 298.11 120.17 C 310.74 115.16 321.96 105.32 325.96 91.99 C 332.26 74.76 328.36 53.21 313.91 41.11 C 308.75 34.34 299.29 32.73 293.73 26.27 C 284.57 15.23 270.85 9.32 256.97 6.91 C 257.60 7.98 258.31 9.01 259.01 10.04 C 255.44 9.14 251.85 8.27 248.20 7.82 C 247.88 6.32 244.95 4.26 247.20 3.26 Z" />
</g>
<g id="#d2d2d2ff">
<path fill="#d2d2d2" opacity="1.00" d=" M 256.97 6.91 C 270.85 9.32 284.57 15.23 293.73 26.27 C 299.29 32.73 308.75 34.34 313.91 41.11 C 328.36 53.21 332.26 74.76 325.96 91.99 C 321.96 105.32 310.74 115.16 298.11 120.17 C 289.74 122.52 280.99 122.98 272.34 123.35 C 269.10 124.15 267.06 127.58 267.28 130.73 C 269.28 136.60 276.66 136.42 281.32 138.67 C 291.36 142.66 297.93 151.63 304.20 159.93 C 303.43 159.93 301.91 159.93 301.14 159.92 C 295.31 150.40 286.73 140.86 275.20 139.02 C 275.12 139.50 274.97 140.46 274.89 140.94 C 270.86 138.64 266.46 137.10 261.91 136.25 L 263.03 136.15 C 268.81 137.32 264.07 129.62 265.08 127.06 C 265.64 124.65 267.45 122.78 269.30 121.25 C 280.66 120.48 292.91 121.15 303.03 115.06 C 318.74 108.05 328.10 90.05 326.59 73.21 C 326.99 56.69 315.23 42.28 301.24 34.74 C 292.15 29.77 286.74 19.97 277.16 15.75 C 273.53 14.24 269.88 10.53 265.77 12.68 C 263.43 12.03 261.17 11.14 259.01 10.04 C 258.31 9.01 257.60 7.98 256.97 6.91 Z" />
<path fill="#d2d2d2" opacity="1.00" d=" M 147.04 330.02 L 148.00 329.99 C 147.99 334.32 147.99 338.66 147.99 343.01 L 147.02 342.99 C 146.99 338.66 146.83 334.34 147.04 330.02 Z" />
</g>
<g id="#fffefeff">
<path fill="#fffefe" opacity="1.00" d=" M 204.03 30.02 C 213.17 15.28 230.73 5.82 248.20 7.82 C 251.85 8.27 255.44 9.14 259.01 10.04 C 261.17 11.14 263.43 12.03 265.77 12.68 C 267.70 14.09 269.66 15.47 271.62 16.84 C 273.72 18.41 275.69 20.14 277.62 21.92 C 280.65 26.18 283.21 31.74 288.95 32.46 C 291.01 33.22 292.96 34.23 294.95 35.17 C 296.21 36.13 297.48 37.09 298.75 38.04 C 300.09 39.06 301.50 40.01 302.90 40.95 C 303.86 42.91 305.07 44.75 306.80 46.12 C 307.77 48.05 308.74 49.97 309.61 51.95 C 310.86 54.60 311.96 57.32 312.68 60.17 C 312.89 61.36 313.09 62.55 313.30 63.74 C 313.21 66.92 313.06 70.11 313.31 73.29 C 310.81 89.62 297.71 103.74 281.23 106.29 C 271.87 106.04 262.48 105.70 253.12 106.08 C 252.79 106.26 252.11 106.62 251.77 106.80 C 250.20 116.04 251.08 126.29 251.08 135.94 L 252.03 136.00 L 252.99 136.02 C 253.72 136.01 255.20 136.00 255.94 135.99 C 256.45 135.99 257.46 135.98 257.97 135.97 C 258.48 135.98 259.48 135.99 259.99 136.00 C 260.47 136.06 261.43 136.18 261.91 136.25 C 266.46 137.10 270.86 138.64 274.89 140.94 C 275.85 141.52 276.80 142.12 277.77 142.69 C 279.16 143.76 280.49 144.91 281.88 145.98 C 282.87 147.90 284.06 149.74 285.80 151.08 C 287.04 153.96 288.05 156.92 289.26 159.82 C 290.90 160.05 292.57 159.99 294.23 159.97 C 294.72 159.97 295.70 159.95 296.18 159.95 C 296.95 159.94 298.50 159.92 299.27 159.91 C 299.74 159.91 300.67 159.92 301.14 159.92 C 301.91 159.93 303.43 159.93 304.20 159.93 C 331.03 160.96 358.66 157.08 384.79 164.99 C 389.84 166.73 394.72 168.89 399.75 170.69 C 405.34 173.81 410.77 177.15 415.94 180.93 C 421.05 184.38 425.37 188.79 429.73 193.13 C 432.18 195.68 434.42 198.44 436.84 201.04 C 440.53 206.63 444.29 212.18 447.59 218.03 C 451.67 226.99 455.19 236.29 457.03 246.00 C 457.58 249.14 463.03 246.66 465.30 246.32 L 466.16 246.12 L 467.17 246.22 L 468.06 246.36 C 469.53 246.57 472.48 246.99 473.95 247.20 C 474.80 247.57 475.67 247.92 476.56 248.26 C 478.29 249.15 480.06 250.00 481.83 250.84 C 483.21 251.84 484.52 252.94 485.93 253.91 C 486.90 254.61 487.89 255.31 488.89 255.99 C 490.14 257.72 491.32 259.50 492.74 261.11 C 493.60 263.11 494.53 265.08 495.47 267.06 C 495.96 268.33 496.49 269.61 497.09 270.85 C 497.12 271.57 497.19 273.03 497.23 273.76 C 496.96 293.26 496.65 312.79 497.37 332.28 C 495.35 346.02 483.64 356.76 470.24 359.25 C 467.44 359.20 461.85 359.10 459.06 359.05 L 459.01 360.05 C 458.90 364.44 458.99 368.85 459.07 373.26 C 459.01 384.08 458.77 394.93 459.24 405.75 C 459.14 433.87 448.12 462.13 427.79 481.78 C 409.53 501.17 383.24 511.82 356.85 513.05 C 355.30 513.07 353.76 513.12 352.22 513.23 C 287.08 512.87 221.91 512.82 156.77 513.24 C 153.50 513.05 150.24 513.06 146.98 512.82 C 138.92 512.05 131.18 509.66 123.37 507.69 C 117.94 505.28 112.27 503.42 107.03 500.59 C 102.96 498.12 98.83 495.72 95.04 492.85 C 91.24 489.98 87.47 487.07 84.09 483.72 C 80.97 480.48 77.61 477.45 75.00 473.76 C 72.55 470.49 70.21 467.17 67.85 463.85 C 65.09 458.87 61.80 454.17 59.81 448.81 C 57.96 444.22 56.16 439.58 54.83 434.81 C 50.26 415.93 50.93 396.39 50.96 377.11 C 50.97 376.60 50.99 375.57 51.00 375.05 C 51.04 374.54 51.12 373.51 51.17 373.00 L 51.26 372.17 C 51.98 367.84 52.22 363.45 51.96 359.08 L 51.02 359.10 C 50.57 359.12 49.67 359.17 49.22 359.19 C 45.16 359.10 41.10 359.06 37.04 359.06 C 33.82 359.12 30.84 357.85 27.95 356.60 C 25.60 355.30 23.32 353.88 21.00 352.55 C 18.84 350.33 16.59 348.20 14.65 345.80 C 13.81 344.35 12.89 342.95 11.96 341.55 C 11.37 339.60 10.71 337.67 10.01 335.76 C 8.07 323.67 9.37 311.38 8.96 299.21 C 9.03 291.80 8.87 284.40 9.07 277.00 C 9.00 263.60 19.32 251.76 31.66 247.63 C 38.47 244.79 45.69 246.64 52.74 246.89 C 57.50 222.73 70.27 200.04 89.61 184.59 C 106.22 169.85 128.15 162.19 150.01 160.10 C 168.90 159.69 187.81 160.34 206.70 159.84 C 210.09 147.18 221.45 138.16 234.21 135.98 L 234.99 135.74 C 235.00 133.07 235.02 127.73 235.02 125.06 C 235.02 124.27 235.01 122.69 235.00 121.90 C 235.00 121.18 234.99 119.73 234.99 119.00 L 234.99 118.00 C 235.00 117.50 235.00 116.49 235.00 115.99 C 235.01 115.51 235.01 114.55 235.01 114.07 C 235.01 112.64 235.00 111.21 234.99 109.79 C 235.00 109.10 235.01 107.72 235.02 107.03 L 234.98 106.07 C 223.33 105.92 211.67 105.94 200.01 106.06 C 197.97 106.05 196.00 105.54 194.14 104.72 C 192.44 104.02 190.75 103.31 189.08 102.55 C 187.84 101.40 186.52 100.35 185.07 99.49 C 183.76 98.25 182.48 96.99 181.22 95.71 C 180.52 94.39 179.71 93.14 178.90 91.90 C 177.61 89.99 176.70 87.87 175.85 85.74 C 175.57 84.45 175.25 83.17 174.97 81.89 C 174.57 78.67 174.24 75.43 174.11 72.19 C 176.04 64.54 179.03 56.48 186.01 52.01 C 189.38 49.00 193.67 47.55 197.68 45.66 C 200.10 40.57 201.00 34.85 204.03 30.02 M 241.00 33.01 C 234.24 37.43 226.95 41.00 220.03 45.16 L 219.08 44.97 C 218.84 49.64 218.99 54.32 219.02 58.99 L 219.99 59.00 C 221.58 57.99 224.05 57.70 224.94 55.97 C 226.71 56.41 227.71 54.98 228.59 53.71 C 229.22 53.47 230.48 53.00 231.11 52.76 C 230.88 61.84 230.97 70.93 231.04 80.02 L 232.01 79.94 C 232.01 81.69 234.78 81.63 236.08 82.02 C 236.60 82.28 237.64 82.80 238.15 83.06 C 237.92 84.61 239.80 85.22 241.05 84.97 C 240.95 86.40 245.62 88.00 243.62 85.33 C 244.55 79.02 243.95 72.55 243.85 66.21 C 244.03 64.87 244.02 63.53 243.84 62.20 C 244.23 56.70 244.01 51.17 243.69 45.68 L 243.98 44.85 C 246.23 43.51 249.77 43.12 250.99 40.81 C 252.35 40.36 254.83 39.79 254.89 38.14 C 253.76 37.52 252.58 36.13 251.23 36.44 C 248.44 34.46 244.46 30.25 241.00 33.01 M 256.07 52.31 L 255.10 51.96 C 254.79 61.29 255.06 70.64 255.02 79.98 L 255.99 80.04 C 257.29 79.13 259.93 78.85 259.95 76.98 C 260.45 76.98 261.46 77.00 261.96 77.00 L 262.00 76.01 L 263.08 76.05 C 263.56 75.77 264.50 75.21 264.98 74.93 C 271.01 72.66 266.89 64.38 267.75 59.74 C 268.29 57.79 267.94 55.72 267.83 53.74 C 268.15 51.14 268.20 48.52 267.96 45.89 C 263.54 46.96 260.22 50.53 256.07 52.31 M 150.01 181.02 L 149.96 182.03 C 149.40 182.08 148.26 182.18 147.69 182.23 C 142.16 181.58 136.70 184.50 131.29 185.33 C 99.39 195.15 74.96 225.61 72.99 258.99 L 72.02 259.01 C 71.99 310.67 71.99 362.33 72.02 413.99 L 72.99 414.01 C 74.81 453.65 109.53 488.61 148.99 491.01 L 149.02 491.97 C 219.68 492.03 290.34 492.00 361.00 491.99 L 360.99 491.02 C 400.47 488.69 435.22 453.51 437.02 414.01 L 437.99 414.00 C 438.01 362.33 438.01 310.67 437.99 259.00 L 437.02 259.00 C 435.47 227.87 413.92 199.31 385.17 187.78 C 377.93 185.22 370.11 181.77 362.31 182.24 C 361.74 182.18 360.60 182.08 360.03 182.03 L 359.99 181.02 C 290.00 180.98 220.00 180.98 150.01 181.02 Z" />
</g>
<g id="#c3c3c3ff">
<path fill="#c3c3c3" opacity="1.00" d=" M 265.77 12.68 C 269.88 10.53 273.53 14.24 277.16 15.75 C 286.74 19.97 292.15 29.77 301.24 34.74 C 315.23 42.28 326.99 56.69 326.59 73.21 C 328.10 90.05 318.74 108.05 303.03 115.06 C 292.91 121.15 280.66 120.48 269.30 121.25 C 267.45 122.78 265.64 124.65 265.08 127.06 C 264.07 129.62 268.81 137.32 263.03 136.15 C 264.12 131.64 262.15 126.77 264.40 122.39 C 267.20 120.39 270.17 117.96 274.00 119.08 C 286.14 119.73 298.71 117.06 308.41 109.44 C 310.50 107.66 313.56 106.01 313.97 103.03 C 315.83 102.79 316.68 101.05 317.73 99.73 C 326.13 87.33 327.31 70.55 320.98 57.00 C 316.09 48.00 308.94 39.84 299.14 36.15 C 299.04 36.62 298.85 37.57 298.75 38.04 C 297.48 37.09 296.21 36.13 294.95 35.17 C 294.84 34.50 294.62 33.15 294.52 32.48 C 288.03 26.55 282.15 19.60 273.95 16.01 C 273.37 16.22 272.20 16.63 271.62 16.84 C 269.66 15.47 267.70 14.09 265.77 12.68 Z" />
<path fill="#c3c3c3" opacity="1.00" d=" M 177.02 92.20 C 177.49 92.12 178.43 91.98 178.90 91.90 C 179.71 93.14 180.52 94.39 181.22 95.71 C 180.93 96.29 180.35 97.46 180.06 98.05 C 184.45 106.93 192.48 114.06 202.03 116.94 C 211.11 120.40 220.92 118.21 230.33 119.67 C 231.92 119.95 233.46 119.35 234.99 119.00 C 234.99 119.73 235.00 121.18 235.00 121.90 C 223.15 119.55 210.65 121.95 199.05 117.94 C 195.07 115.61 191.18 113.12 187.25 110.72 C 182.84 105.38 177.68 99.39 177.02 92.20 Z" />
</g>
<g id="#b5b5b5ff">
<path fill="#b5b5b5" opacity="1.00" d=" M 271.62 16.84 C 272.20 16.63 273.37 16.22 273.95 16.01 C 282.15 19.60 288.03 26.55 294.52 32.48 C 294.62 33.15 294.84 34.50 294.95 35.17 C 292.96 34.23 291.01 33.22 288.95 32.46 C 291.05 27.76 281.99 23.89 279.03 21.15 C 278.68 21.34 277.97 21.72 277.62 21.92 C 275.69 20.14 273.72 18.41 271.62 16.84 Z" />
<path fill="#b5b5b5" opacity="1.00" d=" M 416.09 179.05 C 428.52 184.80 437.96 195.02 446.80 205.18 C 455.99 217.44 463.49 231.28 467.17 246.22 L 466.16 246.12 C 462.05 237.10 459.71 227.22 454.09 218.92 C 449.67 212.42 445.16 205.95 439.97 200.03 C 437.03 196.74 434.38 192.70 430.09 191.04 C 430.00 191.56 429.82 192.61 429.73 193.13 C 425.37 188.79 421.05 184.38 415.94 180.93 C 415.97 180.46 416.05 179.52 416.09 179.05 Z" />
<path fill="#b5b5b5" opacity="1.00" d=" M 74.94 479.17 C 74.70 477.28 71.26 473.59 75.00 473.76 C 77.61 477.45 80.97 480.48 84.09 483.72 C 80.56 483.34 83.69 486.30 84.14 487.93 C 82.69 486.98 81.24 486.03 79.75 485.16 C 78.11 483.18 76.61 481.11 74.94 479.17 Z" />
</g>
<g id="#a0a09fff">
<path fill="#a0a09f" opacity="1.00" d=" M 277.62 21.92 C 277.97 21.72 278.68 21.34 279.03 21.15 C 281.99 23.89 291.05 27.76 288.95 32.46 C 283.21 31.74 280.65 26.18 277.62 21.92 Z" />
</g>
<g id="#4c4c4cff">
<path fill="#4c4c4c" opacity="1.00" d=" M 241.00 33.01 C 244.46 30.25 248.44 34.46 251.23 36.44 C 241.75 41.64 228.16 44.02 224.94 55.97 C 224.05 57.70 221.58 57.99 219.99 59.00 C 220.01 54.39 219.97 49.77 220.03 45.16 C 226.95 41.00 234.24 37.43 241.00 33.01 Z" />
</g>
<g id="#676767ff">
<path fill="#676767" opacity="1.00" d=" M 251.23 36.44 C 252.58 36.13 253.76 37.52 254.89 38.14 C 254.83 39.79 252.35 40.36 250.99 40.81 C 244.25 41.36 238.39 45.21 233.04 49.04 C 231.05 50.06 229.67 51.83 228.59 53.71 C 227.71 54.98 226.71 56.41 224.94 55.97 C 228.16 44.02 241.75 41.64 251.23 36.44 Z" />
</g>
<g id="#b1b1b1ff">
<path fill="#b1b1b1" opacity="1.00" d=" M 299.14 36.15 C 308.94 39.84 316.09 48.00 320.98 57.00 C 327.31 70.55 326.13 87.33 317.73 99.73 C 316.68 101.05 315.83 102.79 313.97 103.03 C 316.12 97.98 319.99 93.73 321.39 88.34 C 325.30 74.82 322.65 59.39 313.32 48.70 C 310.77 45.16 307.22 42.03 302.90 40.95 C 301.50 40.01 300.09 39.06 298.75 38.04 C 298.85 37.57 299.04 36.62 299.14 36.15 Z" />
<path fill="#b1b1b1" opacity="1.00" d=" M 304.62 110.56 C 307.85 108.21 310.78 105.45 313.97 103.03 C 313.56 106.01 310.50 107.66 308.41 109.44 C 298.71 117.06 286.14 119.73 274.00 119.08 C 270.17 117.96 267.20 120.39 264.40 122.39 C 262.15 126.77 264.12 131.64 263.03 136.15 L 261.91 136.25 C 261.01 128.85 260.88 116.91 271.30 117.31 C 282.67 117.66 294.60 116.31 304.62 110.56 Z" />
</g>
<g id="#858585ff">
<path fill="#858585" opacity="1.00" d=" M 233.04 49.04 C 238.39 45.21 244.25 41.36 250.99 40.81 C 249.77 43.12 246.23 43.51 243.98 44.85 C 239.34 46.86 235.71 50.65 231.11 52.76 C 230.48 53.00 229.22 53.47 228.59 53.71 C 229.67 51.83 231.05 50.06 233.04 49.04 Z" />
<path fill="#858585" opacity="1.00" d=" M 464.96 376.02 L 465.90 375.93 C 466.23 389.37 465.67 402.83 466.29 416.27 C 465.50 437.81 459.51 460.42 445.14 477.04 C 446.69 471.22 452.50 467.09 452.94 460.99 C 455.38 459.46 455.67 456.33 457.05 454.02 C 467.78 429.45 464.68 402.05 464.96 376.02 Z" />
</g>
<g id="#9e9e9eff">
<path fill="#9e9e9e" opacity="1.00" d=" M 302.90 40.95 C 307.22 42.03 310.77 45.16 313.32 48.70 C 322.65 59.39 325.30 74.82 321.39 88.34 C 319.99 93.73 316.12 97.98 313.97 103.03 C 310.78 105.45 307.85 108.21 304.62 110.56 C 294.60 116.31 282.67 117.66 271.30 117.31 C 260.88 116.91 261.01 128.85 261.91 136.25 C 261.43 136.18 260.47 136.06 259.99 136.00 C 260.48 130.25 258.22 122.63 263.21 118.21 C 266.20 115.18 270.82 116.25 274.70 115.74 C 284.02 115.83 293.62 114.29 301.95 109.93 C 311.56 104.06 319.70 94.53 320.92 82.95 C 321.37 73.78 321.72 63.62 316.39 55.65 C 313.79 52.01 311.60 47.15 306.80 46.12 C 305.07 44.75 303.86 42.91 302.90 40.95 Z" />
</g>
<g id="#dbdbdbff">
<path fill="#dbdbdb" opacity="1.00" d=" M 219.08 44.97 L 220.03 45.16 C 219.97 49.77 220.01 54.39 219.99 59.00 L 219.02 58.99 C 218.99 54.32 218.84 49.64 219.08 44.97 Z" />
</g>
<g id="#9b9b9bff">
<path fill="#9b9b9b" opacity="1.00" d=" M 231.11 52.76 C 235.71 50.65 239.34 46.86 243.98 44.85 L 243.69 45.68 C 243.48 46.21 243.06 47.27 242.85 47.80 C 238.69 49.22 232.99 52.56 234.15 57.77 C 236.70 60.25 239.88 62.18 241.64 65.37 C 242.70 71.25 243.07 77.22 242.88 83.18 C 241.82 78.87 241.45 74.40 241.05 69.99 C 240.95 64.80 236.22 61.21 232.05 58.85 C 231.81 57.33 231.34 54.28 231.11 52.76 Z" />
<path fill="#9b9b9b" opacity="1.00" d=" M 152.77 521.25 C 166.87 521.05 181.04 520.36 195.11 521.67 C 181.02 521.98 166.80 522.73 152.77 521.25 Z" />
</g>
<g id="#c4c4c4ff">
<path fill="#c4c4c4" opacity="1.00" d=" M 242.85 47.80 C 243.06 47.27 243.48 46.21 243.69 45.68 C 244.01 51.17 244.23 56.70 243.84 62.20 C 242.23 60.09 240.48 58.08 239.00 55.89 C 239.13 53.57 241.77 52.24 242.07 49.87 C 242.26 49.35 242.66 48.32 242.85 47.80 Z" />
</g>
<g id="#575757ff">
<path fill="#575757" opacity="1.00" d=" M 256.07 52.31 C 260.22 50.53 263.54 46.96 267.96 45.89 C 268.20 48.52 268.15 51.14 267.83 53.74 C 267.64 54.04 267.25 54.64 267.06 54.93 C 260.96 56.55 261.25 64.57 256.09 67.26 C 256.03 62.28 255.93 57.29 256.07 52.31 Z" />
</g>
<g id="#8a8a8aff">
<path fill="#8a8a8a" opacity="1.00" d=" M 306.80 46.12 C 311.60 47.15 313.79 52.01 316.39 55.65 C 321.72 63.62 321.37 73.78 320.92 82.95 C 319.70 94.53 311.56 104.06 301.95 109.93 C 293.62 114.29 284.02 115.83 274.70 115.74 C 270.82 116.25 266.20 115.18 263.21 118.21 C 258.22 122.63 260.48 130.25 259.99 136.00 C 259.48 135.99 258.48 135.98 257.97 135.97 C 257.71 129.39 257.16 122.11 261.75 116.76 C 266.06 113.50 271.93 114.20 276.99 114.02 C 289.44 114.60 302.33 110.17 310.80 100.81 C 321.83 88.63 322.85 69.50 314.49 55.59 C 313.50 53.92 311.99 50.19 309.61 51.95 C 308.74 49.97 307.77 48.05 306.80 46.12 Z" />
</g>
<g id="#abababff">
<path fill="#ababab" opacity="1.00" d=" M 234.15 57.77 C 232.99 52.56 238.69 49.22 242.85 47.80 C 242.66 48.32 242.26 49.35 242.07 49.87 C 239.24 50.55 236.88 52.99 236.24 55.81 C 238.72 59.33 241.95 62.30 243.85 66.21 C 243.95 72.55 244.55 79.02 243.62 85.33 C 243.43 84.80 243.06 83.72 242.88 83.18 C 243.07 77.22 242.70 71.25 241.64 65.37 C 239.88 62.18 236.70 60.25 234.15 57.77 Z" />
</g>
<g id="#b8b8b8ff">
<path fill="#b8b8b8" opacity="1.00" d=" M 236.24 55.81 C 236.88 52.99 239.24 50.55 242.07 49.87 C 241.77 52.24 239.13 53.57 239.00 55.89 C 240.48 58.08 242.23 60.09 243.84 62.20 C 244.02 63.53 244.03 64.87 243.85 66.21 C 241.95 62.30 238.72 59.33 236.24 55.81 Z" />
</g>
<g id="#767676ff">
<path fill="#767676" opacity="1.00" d=" M 309.61 51.95 C 311.99 50.19 313.50 53.92 314.49 55.59 C 322.85 69.50 321.83 88.63 310.80 100.81 C 302.33 110.17 289.44 114.60 276.99 114.02 C 271.93 114.20 266.06 113.50 261.75 116.76 C 257.16 122.11 257.71 129.39 257.97 135.97 C 257.46 135.98 256.45 135.99 255.94 135.99 C 257.59 129.00 254.60 120.14 261.03 115.01 C 268.79 110.76 278.30 112.92 286.71 111.69 C 294.71 110.38 302.21 106.58 308.33 101.33 C 316.70 91.90 320.24 78.21 317.05 65.97 C 316.26 63.20 315.85 59.59 313.13 57.89 C 313.02 58.46 312.79 59.60 312.68 60.17 C 311.96 57.32 310.86 54.60 309.61 51.95 Z" />
</g>
<g id="#dadadaff">
<path fill="#dadada" opacity="1.00" d=" M 255.10 51.96 L 256.07 52.31 C 255.93 57.29 256.03 62.28 256.09 67.26 C 256.00 71.52 256.01 75.78 255.99 80.04 L 255.02 79.98 C 255.06 70.64 254.79 61.29 255.10 51.96 Z" />
</g>
<g id="#d1d1d1ff">
<path fill="#d1d1d1" opacity="1.00" d=" M 231.11 52.76 C 231.34 54.28 231.81 57.33 232.05 58.85 C 232.06 59.59 232.07 61.07 232.08 61.81 C 232.08 62.30 232.09 63.26 232.09 63.74 C 232.09 64.50 232.09 66.00 232.09 66.76 C 232.01 71.15 231.98 75.54 232.01 79.94 L 231.04 80.02 C 230.97 70.93 230.88 61.84 231.11 52.76 Z" />
</g>
<g id="#7f7f7fff">
<path fill="#7f7f7f" opacity="1.00" d=" M 267.06 54.93 C 267.25 54.64 267.64 54.04 267.83 53.74 C 267.94 55.72 268.29 57.79 267.75 59.74 C 267.52 60.24 267.08 61.25 266.85 61.76 C 262.75 65.30 263.59 71.18 263.08 76.05 L 262.00 76.01 C 262.18 70.88 261.06 64.97 264.87 60.85 C 265.79 59.63 267.03 58.51 266.87 56.83 C 266.91 56.35 267.01 55.41 267.06 54.93 Z" />
</g>
<g id="#626262ff">
<path fill="#626262" opacity="1.00" d=" M 256.09 67.26 C 261.25 64.57 260.96 56.55 267.06 54.93 C 267.01 55.41 266.91 56.35 266.87 56.83 C 259.65 60.56 260.14 69.99 259.95 76.98 C 259.93 78.85 257.29 79.13 255.99 80.04 C 256.01 75.78 256.00 71.52 256.09 67.26 Z" />
<path fill="#626262" opacity="1.00" d=" M 313.13 57.89 C 315.85 59.59 316.26 63.20 317.05 65.97 C 320.24 78.21 316.70 91.90 308.33 101.33 C 302.21 106.58 294.71 110.38 286.71 111.69 C 278.30 112.92 268.79 110.76 261.03 115.01 C 254.60 120.14 257.59 129.00 255.94 135.99 C 255.20 136.00 253.72 136.01 252.99 136.02 C 257.09 129.69 252.71 120.81 257.82 114.81 C 263.81 109.42 272.62 111.00 280.01 110.21 C 289.81 110.27 299.76 106.72 306.81 99.81 C 314.35 91.91 318.75 79.16 314.40 68.78 C 314.06 67.09 313.74 65.40 313.30 63.74 C 313.09 62.55 312.89 61.36 312.68 60.17 C 312.79 59.60 313.02 58.46 313.13 57.89 Z" />
<path fill="#626262" opacity="1.00" d=" M 361.02 327.00 L 361.98 327.00 C 361.97 333.32 362.15 339.65 361.95 345.98 L 361.01 346.01 C 360.96 339.67 360.98 333.33 361.02 327.00 Z" />
<path fill="#626262" opacity="1.00" d=" M 156.77 513.24 C 221.91 512.82 287.08 512.87 352.22 513.23 C 345.54 514.37 338.74 513.94 332.00 514.02 C 280.33 513.98 228.67 513.98 177.00 514.02 C 170.25 513.94 163.46 514.36 156.77 513.24 Z" />
</g>
<g id="#6e6e6eff">
<path fill="#6e6e6e" opacity="1.00" d=" M 259.95 76.98 C 260.14 69.99 259.65 60.56 266.87 56.83 C 267.03 58.51 265.79 59.63 264.87 60.85 C 261.06 64.97 262.18 70.88 262.00 76.01 L 261.96 77.00 C 261.46 77.00 260.45 76.98 259.95 76.98 Z" />
</g>
<g id="#8e8e8eff">
<path fill="#8e8e8e" opacity="1.00" d=" M 232.05 58.85 C 236.22 61.21 240.95 64.80 241.05 69.99 C 241.45 74.40 241.82 78.87 242.88 83.18 C 243.06 83.72 243.43 84.80 243.62 85.33 C 245.62 88.00 240.95 86.40 241.05 84.97 C 240.41 79.87 240.38 74.67 239.42 69.63 C 238.54 66.07 236.23 61.85 232.08 61.81 C 232.07 61.07 232.06 59.59 232.05 58.85 Z" />
<path fill="#8e8e8e" opacity="1.00" d=" M 191.94 108.07 C 190.87 106.94 186.07 104.55 189.08 102.55 C 190.75 103.31 192.44 104.02 194.14 104.72 C 192.46 104.49 190.82 106.21 192.99 107.04 C 201.82 114.58 213.95 114.77 224.98 114.28 C 228.24 113.91 231.92 115.86 235.01 114.07 C 235.01 114.55 235.01 115.51 235.00 115.99 C 220.55 115.76 203.81 118.23 191.94 108.07 Z" />
</g>
<g id="#a7a7a7ff">
<path fill="#a7a7a7" opacity="1.00" d=" M 266.85 61.76 C 267.08 61.25 267.52 60.24 267.75 59.74 C 266.89 64.38 271.01 72.66 264.98 74.93 C 265.75 70.56 266.28 66.16 266.85 61.76 Z" />
<path fill="#a7a7a7" opacity="1.00" d=" M 84.14 487.93 C 83.69 486.30 80.56 483.34 84.09 483.72 C 87.47 487.07 91.24 489.98 95.04 492.85 C 94.50 492.93 93.44 493.09 92.91 493.17 C 101.92 503.17 114.13 509.20 126.16 514.73 C 134.88 517.43 143.75 519.79 152.77 521.25 C 166.80 522.73 181.02 521.98 195.11 521.67 L 195.83 521.64 C 238.24 522.23 280.70 522.24 323.12 521.63 L 323.83 521.62 C 338.26 521.83 352.94 522.88 367.27 521.33 C 374.33 520.71 381.81 520.40 388.28 517.26 C 390.82 516.60 393.30 515.73 395.76 514.85 C 400.24 515.44 403.88 512.24 407.99 511.08 L 408.25 512.19 C 396.32 518.12 383.35 521.37 370.22 523.21 C 298.41 522.89 226.57 522.81 154.77 523.24 C 142.19 521.25 129.48 518.71 118.00 512.98 C 108.73 509.24 101.20 502.55 93.06 496.93 C 89.99 494.03 87.31 490.73 84.14 487.93 Z" />
</g>
<g id="#7e7e7eff">
<path fill="#7e7e7e" opacity="1.00" d=" M 232.08 61.81 C 236.23 61.85 238.54 66.07 239.42 69.63 C 240.38 74.67 240.41 79.87 241.05 84.97 C 239.80 85.22 237.92 84.61 238.15 83.06 C 239.53 78.93 237.60 74.56 237.59 70.38 C 236.61 67.61 235.20 64.56 232.09 63.74 C 232.09 63.26 232.08 62.30 232.08 61.81 Z" />
<path fill="#7e7e7e" opacity="1.00" d=" M 313.30 63.74 C 313.74 65.40 314.06 67.09 314.40 68.78 C 314.08 70.29 313.73 71.80 313.31 73.29 C 313.06 70.11 313.21 66.92 313.30 63.74 Z" />
</g>
<g id="#929292ff">
<path fill="#929292" opacity="1.00" d=" M 263.08 76.05 C 263.59 71.18 262.75 65.30 266.85 61.76 C 266.28 66.16 265.75 70.56 264.98 74.93 C 264.50 75.21 263.56 75.77 263.08 76.05 Z" />
</g>
<g id="#6a6a6aff">
<path fill="#6a6a6a" opacity="1.00" d=" M 232.09 63.74 C 235.20 64.56 236.61 67.61 237.59 70.38 C 237.60 74.56 239.53 78.93 238.15 83.06 C 237.64 82.80 236.60 82.28 236.08 82.02 C 236.43 77.00 237.84 68.99 232.09 66.76 C 232.09 66.00 232.09 64.50 232.09 63.74 Z" />
</g>
<g id="#565656ff">
<path fill="#565656" opacity="1.00" d=" M 232.09 66.76 C 237.84 68.99 236.43 77.00 236.08 82.02 C 234.78 81.63 232.01 81.69 232.01 79.94 C 231.98 75.54 232.01 71.15 232.09 66.76 Z" />
</g>
<g id="#505050ff">
<path fill="#505050" opacity="1.00" d=" M 314.40 68.78 C 318.75 79.16 314.35 91.91 306.81 99.81 C 299.76 106.72 289.81 110.27 280.01 110.21 C 272.62 111.00 263.81 109.42 257.82 114.81 C 252.71 120.81 257.09 129.69 252.99 136.02 L 252.03 136.00 C 251.99 130.05 251.96 124.11 252.09 118.17 C 256.81 109.79 266.23 107.01 275.26 107.33 C 276.75 107.07 279.74 106.55 281.23 106.29 C 297.71 103.74 310.81 89.62 313.31 73.29 C 313.73 71.80 314.08 70.29 314.40 68.78 Z" />
</g>
<g id="#dfdfdfff">
<path fill="#dfdfdf" opacity="1.00" d=" M 170.46 74.29 C 169.32 71.56 172.23 70.04 174.11 72.19 C 174.24 75.43 174.57 78.67 174.97 81.89 C 172.93 83.21 169.32 83.69 172.19 87.91 C 173.81 96.95 176.81 106.84 184.43 112.59 C 194.14 122.82 209.32 124.37 222.68 124.57 C 227.11 123.09 231.55 125.62 234.05 129.10 C 234.59 131.33 231.58 132.97 232.87 135.10 C 227.61 136.01 231.67 129.36 228.75 127.09 C 225.68 125.78 222.73 126.68 219.77 127.38 C 214.81 126.07 209.53 127.18 204.65 125.38 C 201.75 124.19 200.22 127.83 198.09 129.10 C 198.28 127.51 199.11 125.93 198.76 124.32 C 196.45 122.66 193.78 121.70 191.09 120.86 C 185.99 119.55 184.05 113.93 180.09 110.91 C 175.99 107.64 174.70 102.37 171.82 98.21 C 170.28 96.39 171.97 93.98 171.09 91.94 C 169.05 86.32 168.64 79.93 170.46 74.29 Z" />
<path fill="#dfdfdf" opacity="1.00" d=" M 3.42 297.17 C 5.14 295.33 9.26 289.88 7.25 298.57 C 7.68 298.73 8.53 299.05 8.96 299.21 C 9.37 311.38 8.07 323.67 10.01 335.76 C 6.20 335.69 8.21 340.41 8.01 342.99 C 8.60 347.43 11.61 351.00 12.85 355.23 C 19.81 369.82 36.33 374.53 50.96 377.11 C 50.93 396.39 50.26 415.93 54.83 434.81 C 53.93 435.17 53.05 435.59 52.20 436.08 C 57.20 463.02 72.59 487.98 94.21 504.78 C 105.65 513.80 118.87 519.92 132.44 525.00 L 124.46 525.00 C 120.80 522.53 116.50 521.43 112.59 519.47 C 111.31 518.46 109.96 519.39 109.65 520.79 C 104.87 513.52 96.17 510.75 89.61 505.47 C 88.88 502.61 85.84 502.21 83.42 501.53 C 80.31 495.29 75.19 490.50 70.74 485.27 C 67.93 479.82 63.02 475.69 61.10 469.76 C 58.83 464.79 56.06 460.05 54.00 454.98 C 53.48 453.34 51.61 453.11 50.22 452.64 C 49.23 450.63 51.63 451.13 52.85 450.81 C 52.11 448.46 50.94 446.27 50.21 443.93 C 51.96 437.77 46.33 432.18 47.70 425.89 C 47.87 419.91 45.47 413.96 46.82 407.97 C 45.63 399.41 47.85 390.94 47.52 382.37 C 47.71 380.32 46.41 377.70 44.03 377.96 C 35.41 377.67 28.00 373.13 20.46 369.54 C 16.88 365.68 14.15 361.19 10.98 357.02 C 8.50 353.95 6.09 350.12 6.50 346.02 C 2.09 330.21 4.77 313.38 3.42 297.17 Z" />
<path fill="#dfdfdf" opacity="1.00" d=" M 508.01 357.00 C 510.72 353.18 510.88 348.04 514.00 344.54 L 514.00 350.57 C 511.90 356.92 507.45 362.13 503.09 367.08 C 495.91 373.13 486.59 375.55 478.16 379.32 C 477.55 383.08 477.71 386.99 479.57 390.36 C 481.06 392.75 477.03 393.78 477.16 396.06 C 478.05 403.90 478.87 411.81 478.72 419.71 C 476.88 426.60 477.06 433.92 474.58 440.66 C 473.02 444.01 473.01 447.79 472.24 451.30 C 467.77 458.09 466.73 466.42 462.18 473.13 C 456.24 484.34 447.98 494.15 437.98 501.98 C 434.36 507.24 427.42 508.60 423.69 513.71 C 421.42 516.94 417.07 516.91 414.00 519.00 C 409.88 521.83 404.34 521.79 400.53 525.00 L 394.59 525.00 C 404.08 520.83 413.63 516.72 422.72 511.66 C 432.79 503.50 443.38 495.60 450.84 484.83 C 456.01 480.07 459.08 473.70 462.80 467.86 C 468.74 454.22 473.96 439.98 474.94 425.01 C 476.79 413.02 474.57 401.02 475.69 389.00 C 475.74 384.24 474.18 376.34 480.65 375.61 C 491.97 373.70 501.70 366.40 508.01 357.00 Z" />
</g>
<g id="#d9d9d9ff">
<path fill="#d9d9d9" opacity="1.00" d=" M 172.19 87.91 C 169.32 83.69 172.93 83.21 174.97 81.89 C 175.25 83.17 175.57 84.45 175.85 85.74 C 173.78 87.76 174.27 90.43 175.17 92.88 C 177.69 104.58 186.43 113.89 197.01 118.97 C 207.32 122.18 218.21 122.48 228.91 122.17 C 231.10 122.75 233.02 124.04 235.02 125.06 C 235.02 127.73 235.00 133.07 234.99 135.74 L 234.21 135.98 C 233.87 135.76 233.20 135.32 232.87 135.10 C 231.58 132.97 234.59 131.33 234.05 129.10 C 231.55 125.62 227.11 123.09 222.68 124.57 C 209.32 124.37 194.14 122.82 184.43 112.59 C 176.81 106.84 173.81 96.95 172.19 87.91 Z" />
<path fill="#d9d9d9" opacity="1.00" d=" M 250.99 292.97 C 251.90 290.79 256.57 292.46 258.97 292.05 L 259.02 293.00 C 256.33 292.98 253.66 292.97 250.99 292.97 Z" />
<path fill="#d9d9d9" opacity="1.00" d=" M 508.91 350.93 C 511.97 345.93 511.64 339.80 514.00 334.52 L 514.00 344.54 C 510.88 348.04 510.72 353.18 508.01 357.00 C 501.70 366.40 491.97 373.70 480.65 375.61 C 474.18 376.34 475.74 384.24 475.69 389.00 C 474.57 401.02 476.79 413.02 474.94 425.01 C 473.96 439.98 468.74 454.22 462.80 467.86 C 459.08 473.70 456.01 480.07 450.84 484.83 C 443.38 495.60 432.79 503.50 422.72 511.66 C 413.63 516.72 404.08 520.83 394.59 525.00 L 387.58 525.00 C 409.18 518.34 429.86 507.05 444.80 489.80 C 466.45 465.70 476.16 432.32 473.50 400.30 C 474.54 392.50 472.19 384.54 474.94 376.95 C 475.67 374.93 478.11 374.53 479.90 373.87 C 485.97 372.19 491.77 369.49 497.04 366.06 C 502.52 362.44 505.60 356.42 508.91 350.93 Z" />
</g>
<g id="#d0d0d0ff">
<path fill="#d0d0d0" opacity="1.00" d=" M 175.17 92.88 C 174.27 90.43 173.78 87.76 175.85 85.74 C 176.70 87.87 177.61 89.99 178.90 91.90 C 178.43 91.98 177.49 92.12 177.02 92.20 C 177.68 99.39 182.84 105.38 187.25 110.72 C 191.18 113.12 195.07 115.61 199.05 117.94 C 210.65 121.95 223.15 119.55 235.00 121.90 C 235.01 122.69 235.02 124.27 235.02 125.06 C 233.02 124.04 231.10 122.75 228.91 122.17 C 218.21 122.48 207.32 122.18 197.01 118.97 C 186.43 113.89 177.69 104.58 175.17 92.88 Z" />
<path fill="#d0d0d0" opacity="1.00" d=" M 477.21 246.16 C 483.22 245.87 488.86 249.26 494.02 252.00 C 505.54 258.41 511.09 271.30 514.00 283.48 L 514.00 334.52 C 511.64 339.80 511.97 345.93 508.91 350.93 C 505.60 356.42 502.52 362.44 497.04 366.06 C 491.77 369.49 485.97 372.19 479.90 373.87 C 478.11 374.53 475.67 374.93 474.94 376.95 C 472.19 384.54 474.54 392.50 473.50 400.30 C 476.16 432.32 466.45 465.70 444.80 489.80 C 429.86 507.05 409.18 518.34 387.58 525.00 L 374.52 525.00 C 381.07 522.42 388.36 522.50 394.94 519.85 C 405.11 515.89 415.62 512.11 424.19 505.14 C 443.60 493.15 457.47 473.44 465.15 452.19 C 474.06 428.89 471.70 403.38 472.00 378.99 C 472.08 375.53 475.01 372.85 478.31 372.33 C 491.18 369.40 503.87 361.13 508.11 348.10 C 513.54 335.09 510.48 320.61 510.99 307.00 C 510.40 296.40 512.67 285.29 508.91 275.09 C 507.39 270.30 505.98 264.13 500.99 261.97 C 497.79 255.03 490.16 251.49 483.23 249.28 C 482.88 249.67 482.18 250.45 481.83 250.84 C 480.06 250.00 478.29 249.15 476.56 248.26 C 476.72 247.73 477.04 246.68 477.21 246.16 Z" />
</g>
<g id="#b4b4b4ff">
<path fill="#b4b4b4" opacity="1.00" d=" M 181.22 95.71 C 182.48 96.99 183.76 98.25 185.07 99.49 C 182.57 101.71 186.42 104.50 187.70 106.29 C 199.48 119.51 218.97 118.22 234.99 118.00 L 234.99 119.00 C 233.46 119.35 231.92 119.95 230.33 119.67 C 220.92 118.21 211.11 120.40 202.03 116.94 C 192.48 114.06 184.45 106.93 180.06 98.05 C 180.35 97.46 180.93 96.29 181.22 95.71 Z" />
<path fill="#b4b4b4" opacity="1.00" d=" M 506.18 272.75 C 511.14 282.70 509.91 294.28 510.01 305.00 C 509.60 317.98 511.29 331.27 507.92 343.98 C 506.50 346.50 506.95 350.65 503.79 351.96 C 505.16 346.98 507.56 342.24 507.93 337.00 C 508.07 320.33 508.06 303.66 507.93 287.00 C 508.06 282.15 505.92 277.59 506.18 272.75 Z" />
<path fill="#b4b4b4" opacity="1.00" d=" M 493.05 364.08 C 495.46 360.50 498.83 357.75 502.01 354.89 C 500.85 359.16 496.61 361.92 493.05 364.08 Z" />
<path fill="#b4b4b4" opacity="1.00" d=" M 477.97 369.94 C 482.87 367.68 488.16 366.42 493.05 364.08 C 489.29 367.99 483.40 370.13 477.97 369.94 Z" />
<path fill="#b4b4b4" opacity="1.00" d=" M 154.77 523.24 C 226.57 522.81 298.41 522.89 370.22 523.21 C 368.91 523.39 366.30 523.74 364.99 523.92 C 298.32 524.12 231.65 523.92 164.99 524.02 C 162.43 523.82 157.32 523.43 154.77 523.24 Z" />
</g>
<g id="#a3a3a3ff">
<path fill="#a3a3a3" opacity="1.00" d=" M 187.70 106.29 C 186.42 104.50 182.57 101.71 185.07 99.49 C 186.52 100.35 187.84 101.40 189.08 102.55 C 186.07 104.55 190.87 106.94 191.94 108.07 C 203.81 118.23 220.55 115.76 235.00 115.99 C 235.00 116.49 235.00 117.50 234.99 118.00 C 218.97 118.22 199.48 119.51 187.70 106.29 Z" />
</g>
<g id="#7b7b7bff">
<path fill="#7b7b7b" opacity="1.00" d=" M 192.99 107.04 C 190.82 106.21 192.46 104.49 194.14 104.72 C 196.00 105.54 197.97 106.05 200.01 106.06 L 199.87 106.96 C 199.38 107.02 198.38 107.13 197.88 107.19 C 199.42 109.52 201.97 110.85 204.67 111.35 C 214.24 113.07 224.03 113.43 233.74 112.88 C 233.83 112.43 234.01 111.51 234.10 111.06 C 234.32 110.74 234.77 110.10 234.99 109.79 C 235.00 111.21 235.01 112.64 235.01 114.07 C 231.92 115.86 228.24 113.91 224.98 114.28 C 213.95 114.77 201.82 114.58 192.99 107.04 Z" />
</g>
<g id="#c0c0c0ff">
<path fill="#c0c0c0" opacity="1.00" d=" M 200.01 106.06 C 211.67 105.94 223.33 105.92 234.98 106.07 L 235.02 107.03 L 234.20 107.10 C 224.72 106.97 215.24 106.89 205.77 107.19 C 204.43 107.14 203.09 107.11 201.76 107.09 C 201.29 107.06 200.35 106.99 199.87 106.96 L 200.01 106.06 Z" />
</g>
<g id="#bfbfbfff">
<path fill="#bfbfbf" opacity="1.00" d=" M 251.77 106.80 C 252.11 106.62 252.79 106.26 253.12 106.08 C 262.48 105.70 271.87 106.04 281.23 106.29 C 279.74 106.55 276.75 107.07 275.26 107.33 C 267.43 106.95 259.60 107.04 251.77 106.80 Z" />
</g>
<g id="#686868ff">
<path fill="#686868" opacity="1.00" d=" M 197.88 107.19 C 198.38 107.13 199.38 107.02 199.87 106.96 C 200.35 106.99 201.29 107.06 201.76 107.09 C 210.63 114.23 223.55 109.79 234.10 111.06 C 234.01 111.51 233.83 112.43 233.74 112.88 C 224.03 113.43 214.24 113.07 204.67 111.35 C 201.97 110.85 199.42 109.52 197.88 107.19 Z" />
</g>
<g id="#585858ff">
<path fill="#585858" opacity="1.00" d=" M 201.76 107.09 C 203.09 107.11 204.43 107.14 205.77 107.19 C 212.39 110.36 220.05 108.62 227.13 109.60 C 229.62 109.71 233.57 110.40 234.20 107.10 L 235.02 107.03 C 235.01 107.72 235.00 109.10 234.99 109.79 C 234.77 110.10 234.32 110.74 234.10 111.06 C 223.55 109.79 210.63 114.23 201.76 107.09 Z" />
<path fill="#585858" opacity="1.00" d=" M 401.98 505.94 C 404.74 504.84 407.27 502.81 410.38 502.85 L 409.88 503.74 C 397.16 511.03 382.80 514.94 368.27 516.32 C 312.86 515.58 257.42 516.21 202.00 516.00 C 184.67 515.79 167.28 516.64 150.00 515.00 C 148.39 515.28 147.65 514.02 146.98 512.82 C 150.24 513.06 153.50 513.05 156.77 513.24 C 163.46 514.36 170.25 513.94 177.00 514.02 C 228.67 513.98 280.33 513.98 332.00 514.02 C 338.74 513.94 345.54 514.37 352.22 513.23 C 353.76 513.12 355.30 513.07 356.85 513.05 C 356.95 513.52 357.14 514.47 357.23 514.94 C 361.15 514.37 365.11 513.89 369.01 514.80 C 380.31 513.25 391.63 510.93 401.98 505.94 Z" />
</g>
<g id="#4d4d4dff">
<path fill="#4d4d4d" opacity="1.00" d=" M 205.77 107.19 C 215.24 106.89 224.72 106.97 234.20 107.10 C 233.57 110.40 229.62 109.71 227.13 109.60 C 220.05 108.62 212.39 110.36 205.77 107.19 Z" />
<path fill="#4d4d4d" opacity="1.00" d=" M 498.11 306.76 C 502.01 309.65 498.94 314.95 499.21 318.99 C 500.61 324.94 498.44 330.97 498.85 337.00 C 499.33 340.96 497.50 344.51 495.98 348.00 C 490.00 358.05 478.03 360.63 467.64 363.60 C 462.84 364.99 462.60 370.89 459.07 373.26 C 458.99 368.85 458.90 364.44 459.01 360.05 C 462.77 360.11 466.51 359.84 470.24 359.25 C 483.64 356.76 495.35 346.02 497.37 332.28 C 499.15 323.93 497.39 315.22 498.11 306.76 Z" />
</g>
<g id="#cfcfcfff">
<path fill="#cfcfcf" opacity="1.00" d=" M 251.08 135.94 C 251.08 126.29 250.20 116.04 251.77 106.80 C 251.89 110.58 252.03 114.38 252.09 118.17 C 251.96 124.11 251.99 130.05 252.03 136.00 L 251.08 135.94 Z" />
</g>
<g id="#454545ff">
<path fill="#454545" opacity="1.00" d=" M 251.77 106.80 C 259.60 107.04 267.43 106.95 275.26 107.33 C 266.23 107.01 256.81 109.79 252.09 118.17 C 252.03 114.38 251.89 110.58 251.77 106.80 Z" />
</g>
<g id="#c7c7c7ff">
<path fill="#c7c7c7" opacity="1.00" d=" M 275.20 139.02 C 286.73 140.86 295.31 150.40 301.14 159.92 C 300.67 159.92 299.74 159.91 299.27 159.91 C 294.90 152.20 288.24 145.43 279.93 142.04 C 279.39 142.20 278.31 142.53 277.77 142.69 C 276.80 142.12 275.85 141.52 274.89 140.94 C 274.97 140.46 275.12 139.50 275.20 139.02 Z" />
<path fill="#c7c7c7" opacity="1.00" d=" M 399.75 170.69 C 401.07 170.28 402.46 169.72 403.87 170.10 C 423.38 178.30 440.38 192.22 452.45 209.59 C 459.97 219.12 463.71 230.77 468.17 241.89 C 468.74 243.35 469.47 245.11 468.06 246.36 L 467.17 246.22 C 463.49 231.28 455.99 217.44 446.80 205.18 C 437.96 195.02 428.52 184.80 416.09 179.05 C 416.05 179.52 415.97 180.46 415.94 180.93 C 410.77 177.15 405.34 173.81 399.75 170.69 Z" />
</g>
<g id="#b7b7b7ff">
<path fill="#b7b7b7" opacity="1.00" d=" M 277.77 142.69 C 278.31 142.53 279.39 142.20 279.93 142.04 C 288.24 145.43 294.90 152.20 299.27 159.91 C 298.50 159.92 296.95 159.94 296.18 159.95 C 294.74 153.33 288.28 147.64 281.88 145.98 C 280.49 144.91 279.16 143.76 277.77 142.69 Z" />
</g>
<g id="#a5a5a5ff">
<path fill="#a5a5a5" opacity="1.00" d=" M 281.88 145.98 C 288.28 147.64 294.74 153.33 296.18 159.95 C 295.70 159.95 294.72 159.97 294.23 159.97 C 292.72 156.20 290.17 151.65 285.80 151.08 C 284.06 149.74 282.87 147.90 281.88 145.98 Z" />
</g>
<g id="#8b8b8bff">
<path fill="#8b8b8b" opacity="1.00" d=" M 285.80 151.08 C 290.17 151.65 292.72 156.20 294.23 159.97 C 292.57 159.99 290.90 160.05 289.26 159.82 C 288.05 156.92 287.04 153.96 285.80 151.08 Z" />
</g>
<g id="#d4d4d4ff">
<path fill="#d4d4d4" opacity="1.00" d=" M 385.28 163.11 C 399.74 163.72 412.04 171.92 424.28 178.70 C 435.29 185.52 443.52 195.48 451.82 205.20 C 458.56 214.39 464.43 224.33 467.72 235.30 C 469.07 239.64 472.75 242.84 473.95 247.20 C 472.48 246.99 469.53 246.57 468.06 246.36 C 469.47 245.11 468.74 243.35 468.17 241.89 C 463.71 230.77 459.97 219.12 452.45 209.59 C 440.38 192.22 423.38 178.30 403.87 170.10 C 402.46 169.72 401.07 170.28 399.75 170.69 C 394.72 168.89 389.84 166.73 384.79 164.99 C 384.91 164.52 385.16 163.58 385.28 163.11 Z" />
</g>
<g id="#ffe687ff">
<path fill="#ffe687" opacity="1.00" d=" M 150.01 181.02 C 220.00 180.98 290.00 180.98 359.99 181.02 L 360.03 182.03 C 290.01 181.98 219.99 181.98 149.96 182.03 L 150.01 181.02 Z" />
</g>
<g id="#ffd948ff">
<path fill="#ffd948" opacity="1.00" d=" M 131.29 185.33 C 136.70 184.50 142.16 181.58 147.69 182.23 C 149.29 184.05 151.39 184.62 154.00 183.96 C 222.34 184.05 290.68 183.97 359.01 184.00 C 360.43 184.22 361.34 183.02 362.31 182.24 C 370.11 181.77 377.93 185.22 385.17 187.78 C 413.92 199.31 435.47 227.87 437.02 259.00 C 436.98 310.67 436.99 362.33 437.02 414.01 C 435.22 453.51 400.47 488.69 360.99 491.02 C 290.33 490.98 219.66 491.00 148.99 491.01 C 109.53 488.61 74.81 453.65 72.99 414.01 C 73.01 362.34 73.01 310.66 72.99 258.99 C 74.96 225.61 99.39 195.15 131.29 185.33 M 246.00 222.02 L 246.00 222.98 C 205.35 225.20 167.84 252.23 151.08 289.02 C 145.16 302.57 140.83 317.09 140.99 332.00 L 140.04 332.02 C 140.76 334.44 137.73 340.91 140.98 341.00 C 141.92 368.26 152.94 395.35 172.24 414.76 C 191.38 435.48 218.75 448.72 246.99 450.01 L 247.01 450.98 C 252.34 451.06 257.66 451.06 263.00 450.99 L 263.00 450.02 C 279.03 449.26 294.75 444.44 308.78 436.77 C 341.84 419.36 365.62 384.41 368.02 347.01 L 368.98 346.99 C 369.07 339.99 369.03 332.99 368.98 326.00 L 368.02 326.00 C 367.46 311.26 362.55 297.09 356.03 283.98 C 338.55 249.66 302.52 225.45 264.01 223.00 L 263.98 222.05 C 257.99 221.83 251.99 222.01 246.00 222.02 Z" />
</g>
<g id="#ffd844ff">
<path fill="#ffd844" opacity="1.00" d=" M 147.69 182.23 C 148.26 182.18 149.40 182.08 149.96 182.03 C 219.99 181.98 290.01 181.98 360.03 182.03 C 360.60 182.08 361.74 182.18 362.31 182.24 C 361.34 183.02 360.43 184.22 359.01 184.00 C 290.68 183.97 222.34 184.05 154.00 183.96 C 151.39 184.62 149.29 184.05 147.69 182.23 Z" />
</g>
<g id="#a2a2a2ff">
<path fill="#a2a2a2" opacity="1.00" d=" M 430.09 191.04 C 434.38 192.70 437.03 196.74 439.97 200.03 C 445.16 205.95 449.67 212.42 454.09 218.92 C 459.71 227.22 462.05 237.10 466.16 246.12 L 465.30 246.32 L 464.27 246.15 C 458.34 229.94 451.84 213.29 438.68 201.44 C 438.22 201.34 437.30 201.14 436.84 201.04 C 434.42 198.44 432.18 195.68 429.73 193.13 C 429.82 192.61 430.00 191.56 430.09 191.04 Z" />
</g>
<g id="#919191ff">
<path fill="#919191" opacity="1.00" d=" M 436.84 201.04 C 437.30 201.14 438.22 201.34 438.68 201.44 C 451.84 213.29 458.34 229.94 464.27 246.15 C 463.75 246.10 462.70 245.99 462.18 245.93 C 458.90 235.88 455.14 225.76 448.83 217.17 C 448.52 217.39 447.90 217.81 447.59 218.03 C 444.29 212.18 440.53 206.63 436.84 201.04 Z" />
</g>
<g id="#797979ff">
<path fill="#797979" opacity="1.00" d=" M 447.59 218.03 C 447.90 217.81 448.52 217.39 448.83 217.17 C 455.14 225.76 458.90 235.88 462.18 245.93 C 460.45 245.95 458.74 245.98 457.03 246.00 C 455.19 236.29 451.67 226.99 447.59 218.03 Z" />
</g>
<g id="#ffe892ff">
<path fill="#ffe892" opacity="1.00" d=" M 246.00 222.02 C 251.99 222.01 257.99 221.83 263.98 222.05 L 264.01 223.00 C 258.00 222.99 252.00 223.02 246.00 222.98 L 246.00 222.02 Z" />
</g>
<g id="#faf9f6ff">
<path fill="#faf9f6" opacity="1.00" d=" M 151.08 289.02 C 167.84 252.23 205.35 225.20 246.00 222.98 C 252.00 223.02 258.00 222.99 264.01 223.00 C 302.52 225.45 338.55 249.66 356.03 283.98 C 362.55 297.09 367.46 311.26 368.02 326.00 C 367.99 332.99 367.96 340.00 368.02 347.01 C 365.62 384.41 341.84 419.36 308.78 436.77 C 294.75 444.44 279.03 449.26 263.00 450.02 C 257.66 449.99 252.33 449.97 246.99 450.01 C 218.75 448.72 191.38 435.48 172.24 414.76 C 152.94 395.35 141.92 368.26 140.98 341.00 C 140.99 337.97 141.03 335.00 140.99 332.00 C 140.83 317.09 145.16 302.57 151.08 289.02 M 247.00 229.01 L 246.99 229.98 C 232.22 230.57 217.89 235.14 204.76 241.75 C 172.36 258.70 149.77 293.37 148.00 329.99 L 147.04 330.02 C 146.83 334.34 146.99 338.66 147.02 342.99 L 147.99 343.01 C 148.70 354.94 151.33 366.90 156.20 377.86 C 171.09 414.21 207.62 440.91 246.99 443.00 L 247.01 443.98 C 250.75 443.99 258.25 443.99 262.00 443.99 L 262.00 443.02 C 272.91 442.32 283.90 440.39 293.95 435.95 C 330.88 421.95 358.67 385.56 361.01 346.01 L 361.95 345.98 C 362.15 339.65 361.97 333.32 361.98 327.00 L 361.02 327.00 C 360.22 314.19 356.98 301.42 351.01 290.00 C 335.41 256.15 300.14 232.19 263.01 229.99 L 262.99 229.02 C 257.66 228.93 252.33 228.93 247.00 229.01 Z" />
</g>
<g id="#949494ff">
<path fill="#949494" opacity="1.00" d=" M 247.00 229.01 C 252.33 228.93 257.66 228.93 262.99 229.02 L 263.01 229.99 C 257.66 229.99 252.33 230.03 246.99 229.98 L 247.00 229.01 Z" />
</g>
<g id="#030302ff">
<path fill="#030302" opacity="1.00" d=" M 204.76 241.75 C 217.89 235.14 232.22 230.57 246.99 229.98 C 252.33 230.03 257.66 229.99 263.01 229.99 C 300.14 232.19 335.41 256.15 351.01 290.00 C 356.98 301.42 360.22 314.19 361.02 327.00 C 360.98 333.33 360.96 339.67 361.01 346.01 C 358.67 385.56 330.88 421.95 293.95 435.95 C 283.90 440.39 272.91 442.32 262.00 443.02 C 256.99 442.98 251.99 443.00 246.99 443.00 C 207.62 440.91 171.09 414.21 156.20 377.86 C 151.33 366.90 148.70 354.94 147.99 343.01 C 147.99 338.66 147.99 334.32 148.00 329.99 C 149.77 293.37 172.36 258.70 204.76 241.75 M 249.00 250.00 L 249.00 250.97 C 209.16 252.98 172.69 286.79 170.05 326.99 C 167.68 327.86 169.49 332.82 169.27 335.27 C 169.29 335.88 169.34 337.08 169.37 337.68 C 169.42 340.13 167.71 345.11 170.03 346.01 C 173.12 386.75 210.22 421.24 250.99 422.01 L 251.02 422.95 C 253.42 422.53 258.12 424.22 259.02 422.00 C 263.73 421.79 268.37 420.89 273.01 420.03 C 308.82 413.16 337.62 380.33 340.02 344.00 L 340.99 344.00 C 340.99 340.25 340.99 332.75 340.99 329.00 L 340.03 329.00 C 338.26 305.34 325.61 282.64 306.74 268.28 C 293.21 258.29 276.91 251.68 260.01 250.99 L 259.99 250.02 C 257.24 250.01 251.75 250.00 249.00 250.00 Z" />
</g>
<g id="#e1e1e0ff">
<path fill="#e1e1e0" opacity="1.00" d=" M 457.03 246.00 C 458.74 245.98 460.45 245.95 462.18 245.93 C 462.70 245.99 463.75 246.10 464.27 246.15 L 465.30 246.32 C 463.03 246.66 457.58 249.14 457.03 246.00 Z" />
</g>
<g id="#c7c7c6ff">
<path fill="#c7c7c6" opacity="1.00" d=" M 483.23 249.28 C 490.16 251.49 497.79 255.03 500.99 261.97 C 496.59 257.96 491.95 253.75 486.08 252.12 C 486.05 252.57 485.97 253.47 485.93 253.91 C 484.52 252.94 483.21 251.84 481.83 250.84 C 482.18 250.45 482.88 249.67 483.23 249.28 Z" />
</g>
<g id="#2c250cff">
<path fill="#2c250c" opacity="1.00" d=" M 249.00 250.00 C 251.75 250.00 257.24 250.01 259.99 250.02 L 260.01 250.99 C 256.33 250.98 252.67 251.04 249.00 250.97 L 249.00 250.00 Z" />
</g>
<g id="#fdd848ff">
<path fill="#fdd848" opacity="1.00" d=" M 170.05 326.99 C 172.69 286.79 209.16 252.98 249.00 250.97 C 252.67 251.04 256.33 250.98 260.01 250.99 C 276.91 251.68 293.21 258.29 306.74 268.28 C 325.61 282.64 338.26 305.34 340.03 329.00 C 339.98 333.99 339.95 339.00 340.02 344.00 C 337.62 380.33 308.82 413.16 273.01 420.03 C 268.37 420.89 263.73 421.79 259.02 422.00 C 256.33 421.98 253.66 421.99 250.99 422.01 C 210.22 421.24 173.12 386.75 170.03 346.01 C 169.95 343.19 170.23 340.37 169.37 337.68 C 169.34 337.08 169.29 335.88 169.27 335.27 C 169.59 332.49 169.97 329.77 170.05 326.99 M 248.00 271.01 L 248.00 271.98 C 234.36 272.75 221.47 279.43 211.22 288.22 C 199.23 298.87 191.94 314.18 189.98 329.99 C 188.40 349.27 195.12 369.32 209.21 382.79 C 219.94 392.85 234.17 400.23 249.00 401.02 C 250.43 404.07 257.88 400.82 261.00 401.99 L 261.00 401.03 C 290.48 399.02 316.67 373.54 319.02 344.00 L 319.99 344.00 C 319.99 340.25 319.99 332.75 319.99 329.00 L 319.03 329.00 C 316.89 299.37 290.50 273.88 261.00 271.98 L 260.98 271.04 C 256.65 270.84 252.31 270.99 248.00 271.01 Z" />
</g>
<g id="#b6b6b6ff">
<path fill="#b6b6b6" opacity="1.00" d=" M 486.08 252.12 C 491.95 253.75 496.59 257.96 500.99 261.97 C 501.63 263.72 502.40 265.42 502.98 267.19 C 498.24 263.86 495.52 256.44 488.89 255.99 C 487.89 255.31 486.90 254.61 485.93 253.91 C 485.97 253.47 486.05 252.57 486.08 252.12 Z" />
</g>
<g id="#a4a4a4ff">
<path fill="#a4a4a4" opacity="1.00" d=" M 488.89 255.99 C 495.52 256.44 498.24 263.86 502.98 267.19 C 504.07 269.03 505.31 270.79 506.18 272.75 C 505.92 277.59 508.06 282.15 507.93 287.00 C 508.06 303.66 508.07 320.33 507.93 337.00 C 507.56 342.24 505.16 346.98 503.79 351.96 C 503.16 352.92 502.58 353.90 502.01 354.89 C 498.83 357.75 495.46 360.50 493.05 364.08 C 488.16 366.42 482.87 367.68 477.97 369.94 C 474.27 369.65 470.40 371.62 469.30 375.33 C 468.80 381.95 469.28 388.63 468.24 395.22 C 468.01 388.42 468.03 381.64 467.86 374.85 C 468.71 371.66 471.30 369.45 474.37 368.46 C 482.14 367.02 489.79 364.07 495.82 358.83 C 501.81 352.74 505.45 344.72 506.27 336.23 C 507.86 322.89 506.59 309.40 507.04 296.00 C 506.66 291.60 507.80 286.98 506.33 282.73 C 503.94 275.15 501.51 263.56 492.74 261.11 C 491.32 259.50 490.14 257.72 488.89 255.99 Z" />
</g>
<g id="#ffeca4ff">
<path fill="#ffeca4" opacity="1.00" d=" M 72.02 259.01 L 72.99 258.99 C 73.01 310.66 73.01 362.34 72.99 414.01 L 72.02 413.99 C 71.99 362.33 71.99 310.67 72.02 259.01 Z" />
</g>
<g id="#ffe587ff">
<path fill="#ffe587" opacity="1.00" d=" M 437.02 259.00 L 437.99 259.00 C 438.01 310.67 438.01 362.33 437.99 414.00 L 437.02 414.01 C 436.99 362.33 436.98 310.67 437.02 259.00 Z" />
</g>
<g id="#8d8d8dff">
<path fill="#8d8d8d" opacity="1.00" d=" M 492.74 261.11 C 501.51 263.56 503.94 275.15 506.33 282.73 C 505.78 300.55 505.83 318.40 506.27 336.23 C 505.45 344.72 501.81 352.74 495.82 358.83 C 489.79 364.07 482.14 367.02 474.37 368.46 C 471.30 369.45 468.71 371.66 467.86 374.85 C 465.46 388.46 468.43 402.59 466.29 416.27 C 465.67 402.83 466.23 389.37 465.90 375.93 C 466.08 373.54 467.09 371.35 468.35 369.35 C 474.49 365.89 481.62 364.85 488.03 362.03 C 495.97 358.31 500.68 350.34 503.39 342.34 C 506.60 329.16 504.32 315.41 505.02 302.00 C 504.81 290.15 506.12 275.28 496.83 266.22 C 496.49 266.43 495.81 266.85 495.47 267.06 C 494.53 265.08 493.60 263.11 492.74 261.11 Z" />
</g>
<g id="#c2c2c2ff">
<path fill="#c2c2c2" opacity="1.00" d=" M 500.99 261.97 C 505.98 264.13 507.39 270.30 508.91 275.09 C 512.67 285.29 510.40 296.40 510.99 307.00 C 510.48 320.61 513.54 335.09 508.11 348.10 C 503.87 361.13 491.18 369.40 478.31 372.33 C 475.01 372.85 472.08 375.53 472.00 378.99 C 471.70 403.38 474.06 428.89 465.15 452.19 C 457.47 473.44 443.60 493.15 424.19 505.14 L 424.17 504.11 C 426.23 502.19 428.24 500.22 430.00 498.02 C 439.06 493.35 444.61 484.53 450.61 476.68 C 461.31 461.40 467.83 443.31 469.40 424.73 C 470.03 409.49 470.01 394.23 470.02 378.99 C 470.39 374.37 473.98 371.48 477.97 369.94 C 483.40 370.13 489.29 367.99 493.05 364.08 C 496.61 361.92 500.85 359.16 502.01 354.89 C 502.58 353.90 503.16 352.92 503.79 351.96 C 506.95 350.65 506.50 346.50 507.92 343.98 C 511.29 331.27 509.60 317.98 510.01 305.00 C 509.91 294.28 511.14 282.70 506.18 272.75 C 505.31 270.79 504.07 269.03 502.98 267.19 C 502.40 265.42 501.63 263.72 500.99 261.97 Z" />
</g>
<g id="#787878ff">
<path fill="#787878" opacity="1.00" d=" M 495.47 267.06 C 495.81 266.85 496.49 266.43 496.83 266.22 C 506.12 275.28 504.81 290.15 505.02 302.00 C 504.32 315.41 506.60 329.16 503.39 342.34 C 500.68 350.34 495.97 358.31 488.03 362.03 C 481.62 364.85 474.49 365.89 468.35 369.35 C 467.09 371.35 466.08 373.54 465.90 375.93 L 464.96 376.02 C 464.89 375.20 464.76 373.56 464.70 372.74 C 466.37 365.86 474.52 364.73 480.32 363.31 C 487.94 360.93 495.27 356.28 498.96 348.96 C 504.92 338.25 502.56 325.67 503.00 314.00 C 502.30 301.70 504.79 288.94 501.04 276.98 C 500.56 274.51 498.73 272.63 497.09 270.85 C 496.49 269.61 495.96 268.33 495.47 267.06 Z" />
<path fill="#787878" opacity="1.00" d=" M 33.82 363.11 C 31.76 361.40 26.26 359.91 27.95 356.60 C 30.84 357.85 33.82 359.12 37.04 359.06 L 36.68 359.84 C 35.28 361.32 37.68 361.74 38.65 362.36 C 42.60 363.72 46.85 363.71 50.97 364.07 C 50.97 364.57 50.97 365.57 50.97 366.07 C 44.95 366.84 39.63 363.64 33.82 363.11 Z" />
<path fill="#787878" opacity="1.00" d=" M 134.96 515.12 C 140.73 514.69 146.10 517.63 151.91 517.12 C 153.23 517.55 154.56 518.03 155.97 518.01 C 224.32 517.98 292.66 518.01 361.01 517.99 C 366.70 518.02 372.35 517.14 378.03 516.99 L 377.97 517.97 C 375.32 517.90 372.76 518.48 370.27 519.30 C 298.11 518.79 225.92 518.82 153.77 519.27 C 147.42 518.37 140.98 517.38 134.96 515.12 Z" />
</g>
<g id="#ffe78cff">
<path fill="#ffe78c" opacity="1.00" d=" M 248.00 271.01 C 252.31 270.99 256.65 270.84 260.98 271.04 L 261.00 271.98 C 256.66 272.00 252.33 272.03 248.00 271.98 L 248.00 271.01 Z" />
</g>
<g id="#646464ff">
<path fill="#646464" opacity="1.00" d=" M 497.09 270.85 C 498.73 272.63 500.56 274.51 501.04 276.98 C 504.79 288.94 502.30 301.70 503.00 314.00 C 502.56 325.67 504.92 338.25 498.96 348.96 C 495.27 356.28 487.94 360.93 480.32 363.31 C 474.52 364.73 466.37 365.86 464.70 372.74 C 464.18 373.92 463.76 375.14 463.41 376.38 C 461.51 398.87 465.99 422.09 459.02 444.01 C 457.71 449.93 454.20 455.06 452.94 460.99 C 449.06 467.42 444.36 473.45 440.97 480.11 C 433.28 489.15 424.31 497.01 414.18 503.21 C 412.74 503.39 411.31 503.59 409.88 503.74 L 410.38 502.85 C 435.06 488.73 453.23 464.00 459.25 436.23 C 464.18 415.63 460.86 394.26 462.33 373.35 C 463.82 369.25 466.14 364.51 470.90 363.87 C 480.95 362.05 491.33 358.03 496.99 348.99 C 502.70 340.38 500.50 329.65 501.12 319.97 C 501.85 308.66 501.13 297.32 500.91 286.00 C 501.07 282.77 500.60 279.15 498.29 276.70 C 497.94 275.71 497.59 274.73 497.23 273.76 C 497.19 273.03 497.12 271.57 497.09 270.85 Z" />
</g>
<g id="#fefdfdff">
<path fill="#fefdfd" opacity="1.00" d=" M 211.22 288.22 C 221.47 279.43 234.36 272.75 248.00 271.98 C 252.33 272.03 256.66 272.00 261.00 271.98 C 290.50 273.88 316.89 299.37 319.03 329.00 C 318.98 333.99 318.96 339.00 319.02 344.00 C 316.67 373.54 290.48 399.02 261.00 401.03 C 256.99 400.98 252.99 400.98 249.00 401.02 C 234.17 400.23 219.94 392.85 209.21 382.79 C 195.12 369.32 188.40 349.27 189.98 329.99 C 191.94 314.18 199.23 298.87 211.22 288.22 M 250.99 292.97 C 248.55 292.83 246.25 293.68 243.92 294.24 C 254.62 299.76 261.14 312.37 257.41 324.34 C 255.12 332.12 248.59 338.41 240.86 340.75 C 230.92 344.32 218.59 339.83 213.27 330.72 C 212.72 329.14 210.74 331.02 211.01 332.03 C 210.41 342.48 213.19 353.16 219.31 361.70 C 228.60 375.51 246.78 382.86 263.09 379.19 C 276.34 376.86 287.68 367.64 293.98 355.99 C 299.53 343.81 299.67 329.16 293.98 317.00 C 287.02 304.15 273.77 294.30 259.02 293.00 L 258.97 292.05 C 256.57 292.46 251.90 290.79 250.99 292.97 Z" />
</g>
<g id="#cacacaff">
<path fill="#cacaca" opacity="1.00" d=" M 497.23 273.76 C 497.59 274.73 497.94 275.71 498.29 276.70 C 497.93 286.71 497.82 296.74 498.11 306.76 C 497.39 315.22 499.15 323.93 497.37 332.28 C 496.65 312.79 496.96 293.26 497.23 273.76 Z" />
</g>
<g id="#555555ff">
<path fill="#555555" opacity="1.00" d=" M 498.29 276.70 C 500.60 279.15 501.07 282.77 500.91 286.00 C 501.13 297.32 501.85 308.66 501.12 319.97 C 500.50 329.65 502.70 340.38 496.99 348.99 C 491.33 358.03 480.95 362.05 470.90 363.87 C 466.14 364.51 463.82 369.25 462.33 373.35 C 460.86 394.26 464.18 415.63 459.25 436.23 C 458.30 426.12 462.86 415.51 459.24 405.75 C 458.77 394.93 459.01 384.08 459.07 373.26 C 462.60 370.89 462.84 364.99 467.64 363.60 C 478.03 360.63 490.00 358.05 495.98 348.00 C 497.50 344.51 499.33 340.96 498.85 337.00 C 498.44 330.97 500.61 324.94 499.21 318.99 C 498.94 314.95 502.01 309.65 498.11 306.76 C 497.82 296.74 497.93 286.71 498.29 276.70 Z" />
</g>
<g id="#999999ff">
<path fill="#999999" opacity="1.00" d=" M 506.33 282.73 C 507.80 286.98 506.66 291.60 507.04 296.00 C 506.59 309.40 507.86 322.89 506.27 336.23 C 505.83 318.40 505.78 300.55 506.33 282.73 Z" />
</g>
<g id="#020202ff">
<path fill="#020202" opacity="1.00" d=" M 243.92 294.24 C 246.25 293.68 248.55 292.83 250.99 292.97 C 253.66 292.97 256.33 292.98 259.02 293.00 C 273.77 294.30 287.02 304.15 293.98 317.00 C 299.67 329.16 299.53 343.81 293.98 355.99 C 287.68 367.64 276.34 376.86 263.09 379.19 C 246.78 382.86 228.60 375.51 219.31 361.70 C 213.19 353.16 210.41 342.48 211.01 332.03 C 210.74 331.02 212.72 329.14 213.27 330.72 C 218.59 339.83 230.92 344.32 240.86 340.75 C 248.59 338.41 255.12 332.12 257.41 324.34 C 261.14 312.37 254.62 299.76 243.92 294.24 Z" />
</g>
<g id="#ffefb5ff">
<path fill="#ffefb5" opacity="1.00" d=" M 368.02 326.00 L 368.98 326.00 C 369.03 332.99 369.07 339.99 368.98 346.99 L 368.02 347.01 C 367.96 340.00 367.99 332.99 368.02 326.00 Z" />
</g>
<g id="#ae9431ff">
<path fill="#ae9431" opacity="1.00" d=" M 169.27 335.27 C 169.49 332.82 167.68 327.86 170.05 326.99 C 169.97 329.77 169.59 332.49 169.27 335.27 Z" />
</g>
<g id="#ffeeb0ff">
<path fill="#ffeeb0" opacity="1.00" d=" M 319.03 329.00 L 319.99 329.00 C 319.99 332.75 319.99 340.25 319.99 344.00 L 319.02 344.00 C 318.96 339.00 318.98 333.99 319.03 329.00 Z" />
</g>
<g id="#564918ff">
<path fill="#564918" opacity="1.00" d=" M 340.03 329.00 L 340.99 329.00 C 340.99 332.75 340.99 340.25 340.99 344.00 L 340.02 344.00 C 339.95 339.00 339.98 333.99 340.03 329.00 Z" />
</g>
<g id="#ffdf6bff">
<path fill="#ffdf6b" opacity="1.00" d=" M 140.04 332.02 L 140.99 332.00 C 141.03 335.00 140.99 337.97 140.98 341.00 C 137.73 340.91 140.76 334.44 140.04 332.02 Z" />
</g>
<g id="#d6d6d6ff">
<path fill="#d6d6d6" opacity="1.00" d=" M 8.01 342.99 C 8.21 340.41 6.20 335.69 10.01 335.76 C 10.71 337.67 11.37 339.60 11.96 341.55 C 9.48 349.43 16.33 355.83 20.19 361.81 C 28.24 370.20 40.07 372.67 51.00 375.05 C 50.99 375.57 50.97 376.60 50.96 377.11 C 36.33 374.53 19.81 369.82 12.85 355.23 C 11.61 351.00 8.60 347.43 8.01 342.99 Z" />
<path fill="#d6d6d6" opacity="1.00" d=" M 52.20 436.08 C 53.05 435.59 53.93 435.17 54.83 434.81 C 56.16 439.58 57.96 444.22 59.81 448.81 C 57.98 449.71 58.35 451.38 59.00 452.98 C 67.85 477.85 85.85 499.21 108.92 512.10 C 118.54 518.39 129.87 521.01 140.45 525.00 L 132.44 525.00 C 118.87 519.92 105.65 513.80 94.21 504.78 C 72.59 487.98 57.20 463.02 52.20 436.08 Z" />
</g>
<g id="#ad9330ff">
<path fill="#ad9330" opacity="1.00" d=" M 169.37 337.68 C 170.23 340.37 169.95 343.19 170.03 346.01 C 167.71 345.11 169.42 340.13 169.37 337.68 Z" />
</g>
<g id="#cbcbcbff">
<path fill="#cbcbcb" opacity="1.00" d=" M 20.19 361.81 C 16.33 355.83 9.48 349.43 11.96 341.55 C 12.89 342.95 13.81 344.35 14.65 345.80 C 13.06 348.72 15.94 351.52 17.01 354.01 C 21.68 362.40 30.11 368.32 39.40 370.46 C 43.37 371.04 47.31 371.87 51.17 373.00 C 51.12 373.51 51.04 374.54 51.00 375.05 C 40.07 372.67 28.24 370.20 20.19 361.81 Z" />
<path fill="#cbcbcb" opacity="1.00" d=" M 59.00 452.98 C 58.35 451.38 57.98 449.71 59.81 448.81 C 61.80 454.17 65.09 458.87 67.85 463.85 C 67.43 464.19 66.59 464.89 66.17 465.23 C 69.00 469.90 70.99 475.34 74.94 479.17 C 76.61 481.11 78.11 483.18 79.75 485.16 C 90.15 498.62 104.62 508.78 120.07 515.82 C 129.99 520.55 140.84 522.33 151.40 525.00 L 140.45 525.00 C 129.87 521.01 118.54 518.39 108.92 512.10 C 85.85 499.21 67.85 477.85 59.00 452.98 Z" />
</g>
<g id="#bababaff">
<path fill="#bababa" opacity="1.00" d=" M 17.01 354.01 C 15.94 351.52 13.06 348.72 14.65 345.80 C 16.59 348.20 18.84 350.33 21.00 352.55 C 18.82 354.41 21.52 356.64 23.05 357.82 C 25.23 363.71 32.83 367.37 38.99 368.07 C 42.58 370.28 47.00 370.45 51.10 370.25 C 51.14 370.73 51.22 371.69 51.26 372.17 L 51.17 373.00 C 47.31 371.87 43.37 371.04 39.40 370.46 C 30.11 368.32 21.68 362.40 17.01 354.01 Z" />
</g>
<g id="#9a9a9aff">
<path fill="#9a9a9a" opacity="1.00" d=" M 23.05 357.82 C 21.52 356.64 18.82 354.41 21.00 352.55 C 23.32 353.88 25.60 355.30 27.95 356.60 C 26.26 359.91 31.76 361.40 33.82 363.11 C 38.94 366.32 45.10 367.34 51.00 368.15 L 51.03 369.19 C 47.03 368.76 43.02 368.31 38.99 368.07 C 33.62 364.74 27.78 362.11 23.05 357.82 Z" />
<path fill="#9a9a9a" opacity="1.00" d=" M 466.29 416.27 C 468.43 402.59 465.46 388.46 467.86 374.85 C 468.03 381.64 468.01 388.42 468.24 395.22 C 467.71 411.50 468.99 428.23 464.04 444.01 C 458.35 464.30 446.40 482.60 430.59 496.47 C 430.44 496.86 430.15 497.63 430.00 498.02 C 427.34 498.64 424.91 500.01 422.97 501.97 C 418.49 505.79 413.07 508.20 407.99 511.08 C 403.88 512.24 400.24 515.44 395.76 514.85 C 410.11 508.41 424.47 500.96 435.40 489.37 C 438.81 485.42 443.28 482.09 445.14 477.04 C 459.51 460.42 465.50 437.81 466.29 416.27 Z" />
<path fill="#9a9a9a" opacity="1.00" d=" M 195.83 521.64 C 201.41 520.22 207.31 521.31 213.00 520.98 C 249.70 521.44 286.46 520.15 323.12 521.63 C 280.70 522.24 238.24 522.23 195.83 521.64 Z" />
<path fill="#9a9a9a" opacity="1.00" d=" M 323.83 521.62 C 338.19 520.19 352.82 521.15 367.27 521.33 C 352.94 522.88 338.26 521.83 323.83 521.62 Z" />
</g>
<g id="#aaaaaaff">
<path fill="#aaaaaa" opacity="1.00" d=" M 23.05 357.82 C 27.78 362.11 33.62 364.74 38.99 368.07 C 32.83 367.37 25.23 363.71 23.05 357.82 Z" />
<path fill="#aaaaaa" opacity="1.00" d=" M 38.99 368.07 C 43.02 368.31 47.03 368.76 51.03 369.19 L 51.10 370.25 C 47.00 370.45 42.58 370.28 38.99 368.07 Z" />
</g>
<g id="#afafafff">
<path fill="#afafaf" opacity="1.00" d=" M 37.04 359.06 C 41.10 359.06 45.16 359.10 49.22 359.19 C 45.09 360.07 40.87 359.95 36.68 359.84 L 37.04 359.06 Z" />
</g>
<g id="#5d5d5dff">
<path fill="#5d5d5d" opacity="1.00" d=" M 49.22 359.19 C 49.67 359.17 50.57 359.12 51.02 359.10 C 51.01 360.75 51.00 362.41 50.97 364.07 C 46.85 363.71 42.60 363.72 38.65 362.36 C 37.68 361.74 35.28 361.32 36.68 359.84 C 40.87 359.95 45.09 360.07 49.22 359.19 Z" />
</g>
<g id="#e2e2e2ff">
<path fill="#e2e2e2" opacity="1.00" d=" M 51.02 359.10 L 51.96 359.08 C 52.22 363.45 51.98 367.84 51.26 372.17 C 51.22 371.69 51.14 370.73 51.10 370.25 L 51.03 369.19 L 51.00 368.15 C 50.99 367.63 50.98 366.59 50.97 366.07 C 50.97 365.57 50.97 364.57 50.97 364.07 C 51.00 362.41 51.01 360.75 51.02 359.10 Z" />
</g>
<g id="#a9a9a9ff">
<path fill="#a9a9a9" opacity="1.00" d=" M 459.06 359.05 C 461.85 359.10 467.44 359.20 470.24 359.25 C 466.51 359.84 462.77 360.11 459.01 360.05 L 459.06 359.05 Z" />
</g>
<g id="#888888ff">
<path fill="#888888" opacity="1.00" d=" M 33.82 363.11 C 39.63 363.64 44.95 366.84 50.97 366.07 C 50.98 366.59 50.99 367.63 51.00 368.15 C 45.10 367.34 38.94 366.32 33.82 363.11 Z" />
</g>
<g id="#b0b0b0ff">
<path fill="#b0b0b0" opacity="1.00" d=" M 469.30 375.33 C 470.40 371.62 474.27 369.65 477.97 369.94 C 473.98 371.48 470.39 374.37 470.02 378.99 C 470.01 394.23 470.03 409.49 469.40 424.73 C 467.83 443.31 461.31 461.40 450.61 476.68 C 444.61 484.53 439.06 493.35 430.00 498.02 C 430.15 497.63 430.44 496.86 430.59 496.47 C 446.40 482.60 458.35 464.30 464.04 444.01 C 468.99 428.23 467.71 411.50 468.24 395.22 C 469.28 388.63 468.80 381.95 469.30 375.33 Z" />
</g>
<g id="#727272ff">
<path fill="#727272" opacity="1.00" d=" M 463.41 376.38 C 463.76 375.14 464.18 373.92 464.70 372.74 C 464.76 373.56 464.89 375.20 464.96 376.02 C 464.68 402.05 467.78 429.45 457.05 454.02 C 455.67 456.33 455.38 459.46 452.94 460.99 C 454.20 455.06 457.71 449.93 459.02 444.01 C 465.99 422.09 461.51 398.87 463.41 376.38 Z" />
</g>
<g id="#ffe581ff">
<path fill="#ffe581" opacity="1.00" d=" M 249.00 401.02 C 252.99 400.98 256.99 400.98 261.00 401.03 L 261.00 401.99 C 257.88 400.82 250.43 404.07 249.00 401.02 Z" />
</g>
<g id="#515151ff">
<path fill="#515151" opacity="1.00" d=" M 459.24 405.75 C 462.86 415.51 458.30 426.12 459.25 436.23 C 453.23 464.00 435.06 488.73 410.38 502.85 C 407.27 502.81 404.74 504.84 401.98 505.94 C 391.63 510.93 380.31 513.25 369.01 514.80 C 365.11 513.89 361.15 514.37 357.23 514.94 C 357.14 514.47 356.95 513.52 356.85 513.05 C 383.24 511.82 409.53 501.17 427.79 481.78 C 448.12 462.13 459.14 433.87 459.24 405.75 Z" />
</g>
<g id="#231e0aff">
<path fill="#231e0a" opacity="1.00" d=" M 250.99 422.01 C 253.66 421.99 256.33 421.98 259.02 422.00 C 258.12 424.22 253.42 422.53 251.02 422.95 L 250.99 422.01 Z" />
</g>
<g id="#a4a3a3ff">
<path fill="#a4a3a3" opacity="1.00" d=" M 246.99 443.00 C 251.99 443.00 256.99 442.98 262.00 443.02 L 262.00 443.99 C 258.25 443.99 250.75 443.99 247.01 443.98 L 246.99 443.00 Z" />
</g>
<g id="#ffe688ff">
<path fill="#ffe688" opacity="1.00" d=" M 246.99 450.01 C 252.33 449.97 257.66 449.99 263.00 450.02 L 263.00 450.99 C 257.66 451.06 252.34 451.06 247.01 450.98 L 246.99 450.01 Z" />
</g>
<g id="#747474ff">
<path fill="#747474" opacity="1.00" d=" M 440.97 480.11 C 444.36 473.45 449.06 467.42 452.94 460.99 C 452.50 467.09 446.69 471.22 445.14 477.04 C 443.71 478.01 442.33 479.05 440.97 480.11 Z" />
</g>
<g id="#c1c1c1ff">
<path fill="#c1c1c1" opacity="1.00" d=" M 66.17 465.23 C 66.59 464.89 67.43 464.19 67.85 463.85 C 70.21 467.17 72.55 470.49 75.00 473.76 C 71.26 473.59 74.70 477.28 74.94 479.17 C 70.99 475.34 69.00 469.90 66.17 465.23 Z" />
</g>
<g id="#828282ff">
<path fill="#828282" opacity="1.00" d=" M 440.97 480.11 C 442.33 479.05 443.71 478.01 445.14 477.04 C 443.28 482.09 438.81 485.42 435.40 489.37 C 424.47 500.96 410.11 508.41 395.76 514.85 C 393.30 515.73 390.82 516.60 388.28 517.26 C 384.80 516.77 381.44 518.09 377.97 517.97 L 378.03 516.99 C 390.86 515.00 403.29 510.20 414.18 503.21 C 424.31 497.01 433.28 489.15 440.97 480.11 Z" />
</g>
<g id="#bcbcbcff">
<path fill="#bcbcbc" opacity="1.00" d=" M 79.75 485.16 C 81.24 486.03 82.69 486.98 84.14 487.93 C 87.31 490.73 89.99 494.03 93.06 496.93 C 101.20 502.55 108.73 509.24 118.00 512.98 C 129.48 518.71 142.19 521.25 154.77 523.24 C 157.32 523.43 162.43 523.82 164.99 524.02 C 231.65 523.92 298.32 524.12 364.99 523.92 C 366.30 523.74 368.91 523.39 370.22 523.21 C 383.35 521.37 396.32 518.12 408.25 512.19 C 414.18 510.78 418.43 505.80 424.17 504.11 L 424.19 505.14 C 415.62 512.11 405.11 515.89 394.94 519.85 C 388.36 522.50 381.07 522.42 374.52 525.00 L 151.40 525.00 C 140.84 522.33 129.99 520.55 120.07 515.82 C 104.62 508.78 90.15 498.62 79.75 485.16 Z" />
</g>
<g id="#ffe172ff">
<path fill="#ffe172" opacity="1.00" d=" M 148.99 491.01 C 219.66 491.00 290.33 490.98 360.99 491.02 L 361.00 491.99 C 290.34 492.00 219.68 492.03 149.02 491.97 L 148.99 491.01 Z" />
</g>
<g id="#909090ff">
<path fill="#909090" opacity="1.00" d=" M 92.91 493.17 C 93.44 493.09 94.50 492.93 95.04 492.85 C 98.83 495.72 102.96 498.12 107.03 500.59 C 106.81 500.90 106.37 501.53 106.15 501.84 C 111.08 505.05 115.96 508.55 121.69 510.15 C 125.88 512.35 130.29 514.26 134.96 515.12 C 140.98 517.38 147.42 518.37 153.77 519.27 C 160.45 520.37 167.25 519.93 174.00 520.02 C 234.00 519.99 294.00 519.97 354.00 520.03 C 359.38 519.72 364.98 520.63 370.27 519.30 C 372.76 518.48 375.32 517.90 377.97 517.97 C 381.44 518.09 384.80 516.77 388.28 517.26 C 381.81 520.40 374.33 520.71 367.27 521.33 C 352.82 521.15 338.19 520.19 323.83 521.62 L 323.12 521.63 C 286.46 520.15 249.70 521.44 213.00 520.98 C 207.31 521.31 201.41 520.22 195.83 521.64 L 195.11 521.67 C 181.04 520.36 166.87 521.05 152.77 521.25 C 143.75 519.79 134.88 517.43 126.16 514.73 C 114.13 509.20 101.92 503.17 92.91 493.17 Z" />
</g>
<g id="#aeaeaeff">
<path fill="#aeaeae" opacity="1.00" d=" M 422.97 501.97 C 424.91 500.01 427.34 498.64 430.00 498.02 C 428.24 500.22 426.23 502.19 424.17 504.11 C 418.43 505.80 414.18 510.78 408.25 512.19 L 407.99 511.08 C 413.07 508.20 418.49 505.79 422.97 501.97 Z" />
</g>
<g id="#808080ff">
<path fill="#808080" opacity="1.00" d=" M 106.15 501.84 C 106.37 501.53 106.81 500.90 107.03 500.59 C 112.27 503.42 117.94 505.28 123.37 507.69 C 122.95 508.31 122.11 509.54 121.69 510.15 C 115.96 508.55 111.08 505.05 106.15 501.84 Z" />
</g>
<g id="#6c6c6cff">
<path fill="#6c6c6c" opacity="1.00" d=" M 409.88 503.74 C 411.31 503.59 412.74 503.39 414.18 503.21 C 403.29 510.20 390.86 515.00 378.03 516.99 C 372.35 517.14 366.70 518.02 361.01 517.99 C 292.66 518.01 224.32 517.98 155.97 518.01 C 154.56 518.03 153.23 517.55 151.91 517.12 L 151.97 516.04 C 156.65 516.31 161.28 517.14 165.99 517.01 C 231.00 517.01 296.01 516.97 361.02 517.03 C 363.50 517.28 365.92 517.05 368.27 516.32 C 382.80 514.94 397.16 511.03 409.88 503.74 Z" />
</g>
<g id="#717171ff">
<path fill="#717171" opacity="1.00" d=" M 123.37 507.69 C 131.18 509.66 138.92 512.05 146.98 512.82 C 145.07 512.94 142.78 512.70 141.88 514.81 C 145.23 515.35 148.59 515.69 151.97 516.04 L 151.91 517.12 C 146.10 517.63 140.73 514.69 134.96 515.12 C 131.16 512.33 126.41 510.43 121.69 510.15 C 122.11 509.54 122.95 508.31 123.37 507.69 Z" />
</g>
<g id="#7d7d7dff">
<path fill="#7d7d7d" opacity="1.00" d=" M 121.69 510.15 C 126.41 510.43 131.16 512.33 134.96 515.12 C 130.29 514.26 125.88 512.35 121.69 510.15 Z" />
</g>
<g id="#606060ff">
<path fill="#606060" opacity="1.00" d=" M 141.88 514.81 C 142.78 512.70 145.07 512.94 146.98 512.82 C 147.65 514.02 148.39 515.28 150.00 515.00 C 167.28 516.64 184.67 515.79 202.00 516.00 C 257.42 516.21 312.86 515.58 368.27 516.32 C 365.92 517.05 363.50 517.28 361.02 517.03 C 296.01 516.97 231.00 517.01 165.99 517.01 C 161.28 517.14 156.65 516.31 151.97 516.04 C 148.59 515.69 145.23 515.35 141.88 514.81 Z" />
</g>
<g id="#838383ff">
<path fill="#838383" opacity="1.00" d=" M 153.77 519.27 C 225.92 518.82 298.11 518.79 370.27 519.30 C 364.98 520.63 359.38 519.72 354.00 520.03 C 294.00 519.97 234.00 519.99 174.00 520.02 C 167.25 519.93 160.45 520.37 153.77 519.27 Z" />
</g>
</svg>
