<?xml version="1.0" encoding="UTF-8" ?>
<!DOCTYPE svg PUBLIC "-//W3C//DTD SVG 1.1//EN" "http://www.w3.org/Graphics/SVG/1.1/DTD/svg11.dtd">
<svg width="256pt" height="256pt" viewBox="0 0 256 256" version="1.1" xmlns="http://www.w3.org/2000/svg">
<g id="#00070b0f">
<path fill="#00070b" opacity="0.06" d=" M 80.00 0.00 L 88.00 0.00 C 88.00 2.67 88.00 5.34 88.01 8.00 C 85.34 8.00 82.67 8.00 80.00 8.00 C 80.00 5.33 80.00 2.67 80.00 0.00 Z" />
<path fill="#00070b" opacity="0.06" d=" M 168.00 0.00 L 176.00 0.00 C 176.00 2.67 175.99 5.33 175.99 8.00 C 173.32 8.00 170.66 8.00 168.00 7.99 C 168.00 5.33 168.00 2.66 168.00 0.00 Z" />
<path fill="#00070b" opacity="0.06" d=" M 80.02 248.00 C 82.67 247.99 85.34 247.99 88.00 248.01 C 88.00 250.67 88.00 253.33 88.00 256.00 L 80.00 256.00 C 80.00 253.33 80.01 250.66 80.02 248.00 Z" />
<path fill="#00070b" opacity="0.06" d=" M 167.99 248.00 C 170.65 247.99 173.32 247.99 176.00 248.00 C 176.00 250.66 176.00 253.33 176.00 256.00 L 168.00 256.00 C 167.99 253.33 167.99 250.66 167.99 248.00 Z" />
</g>
<g id="#00265060">
<path fill="#002650" opacity="0.38" d=" M 88.00 0.00 L 96.00 0.00 C 96.00 2.66 96.00 5.33 96.00 7.99 C 93.33 8.00 90.67 8.01 88.01 8.00 C 88.00 5.34 88.00 2.67 88.00 0.00 Z" />
<path fill="#002650" opacity="0.38" d=" M 0.00 88.00 C 2.66 88.00 5.33 88.00 7.99 88.00 C 8.01 90.66 8.01 93.33 7.99 96.00 C 5.33 96.00 2.66 96.00 0.00 96.00 L 0.00 88.00 Z" />
<path fill="#002650" opacity="0.38" d=" M 248.00 88.01 C 250.66 88.00 253.33 88.00 256.00 88.00 L 256.00 96.00 C 253.33 96.00 250.67 96.00 248.01 96.00 C 247.98 93.33 247.98 90.67 248.00 88.01 Z" />
<path fill="#002650" opacity="0.38" d=" M 0.00 160.00 C 2.66 160.00 5.33 160.00 7.99 160.00 C 8.01 162.66 8.01 165.32 8.00 167.99 C 5.34 167.99 2.67 167.99 0.00 168.00 L 0.00 160.00 Z" />
<path fill="#002650" opacity="0.38" d=" M 88.00 248.01 C 90.66 247.98 93.33 247.98 96.00 248.01 C 96.00 250.66 96.00 253.33 96.00 256.00 L 88.00 256.00 C 88.00 253.33 88.00 250.67 88.00 248.01 Z" />
<path fill="#002650" opacity="0.38" d=" M 160.00 248.01 C 162.66 247.98 165.32 247.98 167.99 248.00 C 167.99 250.66 167.99 253.33 168.00 256.00 L 160.00 256.00 C 160.00 253.33 160.00 250.67 160.00 248.01 Z" />
</g>
<g id="#0040869f">
<path fill="#004086" opacity="0.62" d=" M 96.00 0.00 L 104.00 0.00 C 104.00 2.66 104.00 5.33 104.00 7.99 C 101.33 8.01 98.66 8.01 96.00 7.99 C 96.00 5.33 96.00 2.66 96.00 0.00 Z" />
<path fill="#004086" opacity="0.62" d=" M 152.00 0.00 L 160.00 0.00 C 160.00 2.66 160.00 5.33 160.00 7.99 C 157.33 8.01 154.66 8.01 152.00 7.99 C 152.00 5.33 152.00 2.66 152.00 0.00 Z" />
<path fill="#004086" opacity="0.62" d=" M 175.99 8.00 C 178.65 7.99 181.32 7.99 184.00 8.00 C 184.00 10.67 183.99 13.33 184.00 16.00 C 181.35 16.03 178.70 16.02 176.06 15.96 C 175.94 13.31 175.92 10.65 175.99 8.00 Z" />
<path fill="#004086" opacity="0.62" d=" M 248.01 96.00 C 250.67 96.00 253.33 96.00 256.00 96.00 L 256.00 104.00 C 253.33 104.00 250.66 104.00 248.01 104.00 C 247.98 101.33 247.98 98.66 248.01 96.00 Z" />
<path fill="#004086" opacity="0.62" d=" M 248.01 152.00 C 250.66 152.00 253.33 152.00 256.00 152.00 L 256.00 160.00 C 253.33 160.00 250.66 160.00 248.01 160.00 C 247.98 157.33 247.98 154.66 248.01 152.00 Z" />
<path fill="#004086" opacity="0.62" d=" M 240.04 176.06 C 242.69 175.94 245.34 175.92 248.00 175.99 C 248.00 178.65 248.00 181.32 248.00 184.00 C 245.33 184.00 242.66 183.99 240.00 184.00 C 239.96 181.35 239.98 178.70 240.04 176.06 Z" />
<path fill="#004086" opacity="0.62" d=" M 152.00 248.01 C 154.66 247.98 157.33 247.98 160.00 248.01 C 160.00 250.67 160.00 253.33 160.00 256.00 L 152.00 256.00 C 152.00 253.33 152.00 250.66 152.00 248.01 Z" />
</g>
<g id="#0052afcf">
<path fill="#0052af" opacity="0.81" d=" M 104.00 0.00 L 112.00 0.00 C 112.00 2.67 112.00 5.34 112.00 8.00 C 109.33 8.02 106.66 8.02 104.00 7.99 C 104.00 5.33 104.00 2.66 104.00 0.00 Z" />
<path fill="#0052af" opacity="0.81" d=" M 144.00 0.00 L 152.00 0.00 C 152.00 2.66 152.00 5.33 152.00 7.99 C 149.33 8.02 146.66 8.02 144.00 8.00 C 144.00 5.34 144.00 2.67 144.00 0.00 Z" />
<path fill="#0052af" opacity="0.81" d=" M 0.00 104.00 C 2.66 104.00 5.33 104.00 7.99 104.00 C 8.02 106.66 8.02 109.33 8.00 112.00 C 5.34 112.00 2.67 112.00 0.00 112.00 L 0.00 104.00 Z" />
<path fill="#0052af" opacity="0.81" d=" M 248.01 104.00 C 250.66 104.00 253.33 104.00 256.00 104.00 L 256.00 112.00 C 253.32 112.00 250.66 112.00 247.99 112.00 C 247.97 109.33 247.98 106.66 248.01 104.00 Z" />
<path fill="#0052af" opacity="0.81" d=" M 0.00 144.00 C 2.67 144.00 5.34 144.00 8.01 144.00 C 8.02 146.66 8.02 149.33 7.99 152.00 C 5.33 152.00 2.66 152.00 0.00 152.00 L 0.00 144.00 Z" />
<path fill="#0052af" opacity="0.81" d=" M 248.00 144.00 C 250.66 144.00 253.33 144.00 256.00 144.00 L 256.00 152.00 C 253.33 152.00 250.66 152.00 248.01 152.00 C 247.98 149.33 247.97 146.66 248.00 144.00 Z" />
<path fill="#0052af" opacity="0.81" d=" M 104.00 248.01 C 106.66 247.98 109.33 247.97 112.00 248.00 C 112.00 250.66 112.00 253.33 112.00 256.00 L 104.00 256.00 C 104.00 253.33 104.00 250.66 104.00 248.01 Z" />
<path fill="#0052af" opacity="0.81" d=" M 144.00 247.99 C 146.66 247.97 149.33 247.98 152.00 248.01 C 152.00 250.66 152.00 253.33 152.00 256.00 L 144.00 256.00 C 144.00 253.32 144.00 250.66 144.00 247.99 Z" />
</g>
<g id="#005fcaf1">
<path fill="#005fca" opacity="0.95" d=" M 112.00 0.00 L 120.03 0.00 C 120.08 2.65 120.05 5.31 119.94 7.96 C 117.29 8.02 114.65 8.03 112.00 8.00 C 112.00 5.34 112.00 2.67 112.00 0.00 Z" />
<path fill="#005fca" opacity="0.95" d=" M 135.97 0.00 L 144.00 0.00 C 144.00 2.67 144.00 5.34 144.00 8.00 C 141.35 8.03 138.70 8.02 136.06 7.96 C 135.94 5.31 135.91 2.65 135.97 0.00 Z" />
<path fill="#005fca" opacity="0.95" d=" M 80.00 8.00 C 82.67 8.00 85.34 8.00 88.01 8.00 C 88.02 10.65 88.00 13.30 87.95 15.95 C 85.30 16.06 82.65 16.08 80.00 16.01 C 80.00 13.34 80.00 10.67 80.00 8.00 Z" />
<path fill="#005fca" opacity="0.95" d=" M 0.00 112.00 C 2.67 112.00 5.34 112.00 8.00 112.00 C 8.03 114.65 8.02 117.29 7.96 119.94 C 5.31 120.05 2.65 120.08 0.00 120.03 L 0.00 112.00 Z" />
<path fill="#005fca" opacity="0.95" d=" M 0.00 135.98 C 2.65 135.98 5.30 136.00 7.95 136.05 C 8.06 138.69 8.08 141.34 8.01 144.00 C 5.34 144.00 2.67 144.00 0.00 144.00 L 0.00 135.98 Z" />
<path fill="#005fca" opacity="0.95" d=" M 8.00 167.99 C 10.65 167.98 13.30 168.00 15.95 168.05 C 16.06 170.69 16.08 173.34 16.01 176.00 C 13.34 175.99 10.67 176.00 8.00 176.00 C 8.00 173.32 8.00 170.65 8.00 167.99 Z" />
<path fill="#005fca" opacity="0.95" d=" M 168.05 240.05 C 170.69 239.93 173.34 239.91 176.00 239.99 C 175.99 242.66 176.00 245.33 176.00 248.00 C 173.32 247.99 170.65 247.99 167.99 248.00 C 167.98 245.35 168.00 242.70 168.05 240.05 Z" />
<path fill="#005fca" opacity="0.95" d=" M 112.00 248.00 C 114.65 247.96 117.29 247.98 119.94 248.04 C 120.05 250.69 120.08 253.34 120.03 256.00 L 112.00 256.00 C 112.00 253.33 112.00 250.66 112.00 248.00 Z" />
<path fill="#005fca" opacity="0.95" d=" M 136.05 248.05 C 138.69 247.93 141.34 247.91 144.00 247.99 C 144.00 250.66 144.00 253.32 144.00 256.00 L 135.98 256.00 C 135.98 253.35 136.00 250.70 136.05 248.05 Z" />
</g>
<g id="#0066d8ff">
<path fill="#0066d8" opacity="1.00" d=" M 120.03 0.00 L 135.97 0.00 C 135.91 2.65 135.94 5.31 136.06 7.96 C 138.70 8.02 141.35 8.03 144.00 8.00 C 146.66 8.02 149.33 8.02 152.00 7.99 C 154.66 8.01 157.33 8.01 160.00 7.99 C 162.66 8.01 165.33 8.01 168.00 7.99 C 170.66 8.00 173.32 8.00 175.99 8.00 C 175.92 10.65 175.94 13.31 176.06 15.96 C 178.70 16.02 181.35 16.03 184.00 16.00 C 186.66 16.01 189.33 16.00 192.00 15.99 C 191.92 18.65 191.94 21.30 192.06 23.95 C 194.70 24.00 197.35 24.02 200.00 24.01 C 199.92 26.66 199.94 29.30 200.06 31.95 C 202.70 32.00 205.34 32.02 207.99 32.01 C 207.92 34.66 207.94 37.31 208.06 39.95 C 210.70 40.00 213.34 40.02 215.98 40.01 C 215.92 42.66 215.94 45.31 216.06 47.95 C 218.70 48.00 221.34 48.02 223.98 48.01 C 223.92 50.66 223.94 53.31 224.06 55.95 C 226.70 56.00 229.34 56.02 231.98 56.01 C 231.92 58.66 231.94 61.31 232.06 63.95 C 234.70 64.00 237.35 64.02 240.00 64.00 C 239.98 66.66 239.99 69.33 240.01 72.00 C 239.98 74.66 239.97 77.33 239.99 80.00 C 239.91 82.65 239.93 85.30 240.05 87.95 C 242.70 88.00 245.35 88.02 248.00 88.01 C 247.98 90.67 247.98 93.33 248.01 96.00 C 247.98 98.66 247.98 101.33 248.01 104.00 C 247.98 106.66 247.97 109.33 247.99 112.00 C 247.91 114.65 247.93 117.30 248.05 119.95 C 250.70 120.00 253.35 120.02 256.00 120.02 L 256.00 135.97 C 253.34 135.91 250.69 135.94 248.04 136.06 C 247.98 138.70 247.96 141.35 248.00 144.00 C 247.97 146.66 247.98 149.33 248.01 152.00 C 247.98 154.66 247.98 157.33 248.01 160.00 C 247.98 162.66 247.98 165.33 248.01 168.00 C 247.99 170.66 247.99 173.32 248.00 175.99 C 245.34 175.92 242.69 175.94 240.04 176.06 C 239.98 178.70 239.96 181.35 240.00 184.00 C 239.99 186.66 239.99 189.33 240.00 192.00 C 237.34 191.92 234.69 191.94 232.05 192.06 C 232.00 194.70 231.98 197.34 231.99 199.99 C 229.33 199.92 226.69 199.94 224.05 200.06 C 224.00 202.70 223.98 205.34 223.99 207.98 C 221.33 207.92 218.69 207.94 216.05 208.06 C 216.00 210.70 215.98 213.34 215.99 215.98 C 213.33 215.92 210.69 215.94 208.05 216.06 C 208.00 218.70 207.98 221.34 207.99 223.98 C 205.33 223.92 202.69 223.94 200.05 224.06 C 200.00 226.70 199.98 229.34 199.99 231.98 C 197.33 231.92 194.69 231.94 192.05 232.06 C 191.99 234.70 191.98 237.35 192.00 240.00 C 189.33 239.98 186.66 239.99 184.00 240.01 C 181.33 239.98 178.66 239.97 176.00 239.99 C 173.34 239.91 170.69 239.93 168.05 240.05 C 168.00 242.70 167.98 245.35 167.99 248.00 C 165.32 247.98 162.66 247.98 160.00 248.01 C 157.33 247.98 154.66 247.98 152.00 248.01 C 149.33 247.98 146.66 247.97 144.00 247.99 C 141.34 247.91 138.69 247.93 136.05 248.05 C 136.00 250.70 135.98 253.35 135.98 256.00 L 120.03 256.00 C 120.08 253.34 120.05 250.69 119.94 248.04 C 117.29 247.98 114.65 247.96 112.00 248.00 C 109.33 247.97 106.66 247.98 104.00 248.01 C 101.33 247.98 98.66 247.98 96.00 248.01 C 93.33 247.98 90.66 247.98 88.00 248.01 C 85.34 247.99 82.67 247.99 80.02 248.00 C 80.08 245.34 80.05 242.69 79.94 240.04 C 77.29 239.98 74.65 239.96 72.00 240.00 C 69.33 239.99 66.66 239.99 64.00 240.00 C 64.07 237.34 64.05 234.69 63.94 232.05 C 61.30 232.00 58.66 231.98 56.02 231.99 C 56.08 229.33 56.05 226.69 55.94 224.05 C 53.30 224.00 50.66 223.98 48.02 223.99 C 48.08 221.33 48.05 218.69 47.94 216.05 C 45.30 216.00 42.66 215.98 40.02 215.99 C 40.08 213.33 40.05 210.69 39.94 208.05 C 37.30 208.00 34.66 207.98 32.02 207.99 C 32.08 205.33 32.05 202.69 31.94 200.05 C 29.30 200.00 26.66 199.98 24.02 199.99 C 24.08 197.33 24.05 194.69 23.94 192.05 C 21.29 191.99 18.65 191.98 16.00 192.00 C 16.01 189.33 16.01 186.66 15.99 184.00 C 16.01 181.33 16.02 178.66 16.01 176.00 C 16.08 173.34 16.06 170.69 15.95 168.05 C 13.30 168.00 10.65 167.98 8.00 167.99 C 8.01 165.32 8.01 162.66 7.99 160.00 C 8.01 157.33 8.01 154.66 7.99 152.00 C 8.02 149.33 8.02 146.66 8.01 144.00 C 8.08 141.34 8.06 138.69 7.95 136.05 C 5.30 136.00 2.65 135.98 0.00 135.98 L 0.00 120.03 C 2.65 120.08 5.31 120.05 7.96 119.94 C 8.02 117.29 8.03 114.65 8.00 112.00 C 8.02 109.33 8.02 106.66 7.99 104.00 C 8.01 101.33 8.01 98.66 7.99 96.00 C 8.01 93.33 8.01 90.66 7.99 88.00 C 8.00 85.34 8.00 82.67 8.00 80.02 C 10.65 80.08 13.31 80.05 15.96 79.94 C 16.02 77.29 16.03 74.65 16.00 72.00 C 16.00 69.33 16.00 66.66 16.00 64.00 C 18.65 64.07 21.30 64.05 23.95 63.94 C 24.00 61.30 24.02 58.66 24.01 56.02 C 26.66 56.08 29.31 56.05 31.95 55.94 C 32.00 53.30 32.02 50.66 32.01 48.02 C 34.66 48.08 37.31 48.05 39.95 47.94 C 40.00 45.30 40.02 42.66 40.01 40.02 C 42.66 40.08 45.31 40.05 47.95 39.94 C 48.00 37.30 48.02 34.66 48.01 32.02 C 50.66 32.08 53.31 32.05 55.95 31.94 C 56.00 29.30 56.02 26.66 56.01 24.02 C 58.66 24.08 61.31 24.05 63.95 23.94 C 64.00 21.29 64.02 18.65 64.00 16.00 C 66.66 16.01 69.33 16.01 72.00 15.99 C 74.66 16.01 77.33 16.02 80.00 16.01 C 82.65 16.08 85.30 16.06 87.95 15.95 C 88.00 13.30 88.02 10.65 88.01 8.00 C 90.67 8.01 93.33 8.00 96.00 7.99 C 98.66 8.01 101.33 8.01 104.00 7.99 C 106.66 8.02 109.33 8.02 112.00 8.00 C 114.65 8.03 117.29 8.02 119.94 7.96 C 120.05 5.31 120.08 2.65 120.03 0.00 M 88.04 32.02 C 87.91 34.68 87.90 37.35 88.01 40.01 C 85.34 39.91 82.67 39.92 80.00 40.04 C 77.35 39.92 74.69 39.92 72.04 40.02 C 71.91 42.68 71.90 45.35 72.01 48.02 C 69.35 47.93 66.69 47.93 64.04 48.02 C 63.91 50.69 63.90 53.35 64.01 56.02 C 61.35 55.93 58.69 55.93 56.04 56.02 C 55.91 58.69 55.90 61.35 56.01 64.02 C 53.35 63.93 50.69 63.93 48.04 64.02 C 47.91 66.69 47.90 69.35 48.01 72.02 C 45.35 71.93 42.69 71.93 40.03 72.02 C 39.91 74.68 39.91 77.34 40.03 80.00 C 39.91 82.67 39.91 85.34 40.01 88.02 C 37.35 87.93 34.69 87.93 32.03 88.02 C 31.91 90.68 31.91 93.34 32.03 96.00 C 31.91 98.66 31.91 101.33 32.03 104.00 C 31.91 106.66 31.91 109.33 32.03 112.00 C 31.91 114.66 31.92 117.33 32.05 120.00 C 31.90 125.33 31.98 130.66 32.04 136.00 C 31.91 138.66 31.91 141.33 32.03 144.00 C 31.91 146.66 31.91 149.33 32.03 152.00 C 31.91 154.66 31.92 157.33 32.04 160.00 C 31.92 162.65 31.92 165.30 32.02 167.96 C 34.68 168.08 37.35 168.09 40.02 167.99 C 39.91 170.66 39.92 173.33 40.04 176.00 C 39.92 178.65 39.92 181.30 40.02 183.96 C 42.68 184.08 45.35 184.09 48.02 183.99 C 47.93 186.64 47.93 189.30 48.02 191.96 C 50.69 192.08 53.35 192.09 56.02 191.99 C 55.93 194.64 55.93 197.30 56.02 199.96 C 58.69 200.08 61.35 200.09 64.02 199.99 C 63.93 202.64 63.93 205.30 64.02 207.96 C 66.69 208.08 69.35 208.09 72.02 207.99 C 71.93 210.65 71.93 213.30 72.02 215.97 C 74.68 216.08 77.34 216.08 80.00 215.97 C 82.67 216.08 85.34 216.09 88.02 215.99 C 87.93 218.64 87.93 221.30 88.02 223.97 C 90.68 224.08 93.34 224.08 96.00 223.97 C 98.66 224.08 101.33 224.08 104.00 223.97 C 106.66 224.08 109.33 224.08 112.00 223.97 C 114.66 224.08 117.33 224.08 120.00 223.95 C 125.33 224.10 130.66 224.01 136.00 223.96 C 138.66 224.08 141.33 224.08 144.00 223.97 C 146.66 224.08 149.33 224.08 152.00 223.97 C 154.66 224.08 157.33 224.08 160.00 223.96 C 162.65 224.07 165.30 224.08 167.96 223.98 C 168.08 221.31 168.09 218.64 167.99 215.98 C 170.66 216.08 173.33 216.07 176.00 215.96 C 178.65 216.07 181.30 216.08 183.96 215.98 C 184.08 213.31 184.09 210.64 183.99 207.98 C 186.64 208.07 189.30 208.07 191.96 207.98 C 192.08 205.31 192.09 202.64 191.99 199.98 C 194.64 200.07 197.30 200.07 199.96 199.98 C 200.08 197.31 200.09 194.64 199.99 191.98 C 202.64 192.07 205.30 192.07 207.96 191.98 C 208.08 189.31 208.09 186.64 207.99 183.98 C 210.65 184.07 213.30 184.07 215.97 183.98 C 216.08 181.31 216.08 178.65 215.97 176.00 C 216.08 173.32 216.09 170.65 215.99 167.98 C 218.64 168.07 221.30 168.07 223.97 167.98 C 224.08 165.32 224.08 162.66 223.97 160.00 C 224.08 157.33 224.08 154.66 223.97 152.00 C 224.08 149.33 224.08 146.66 223.97 144.00 C 224.08 141.33 224.08 138.66 223.96 136.00 C 224.10 130.67 224.01 125.33 223.96 120.00 C 224.08 117.33 224.08 114.66 223.97 112.00 C 224.08 109.33 224.08 106.66 223.97 104.00 C 224.08 101.33 224.08 98.66 223.96 96.00 C 224.07 93.35 224.08 90.69 223.98 88.04 C 221.31 87.91 218.64 87.90 215.98 88.01 C 216.08 85.34 216.07 82.67 215.96 80.00 C 216.07 77.35 216.08 74.69 215.98 72.04 C 213.31 71.91 210.64 71.90 207.98 72.01 C 208.07 69.35 208.07 66.69 207.98 64.04 C 205.31 63.91 202.64 63.90 199.98 64.01 C 200.07 61.35 200.07 58.69 199.98 56.04 C 197.31 55.91 194.64 55.90 191.98 56.01 C 192.07 53.35 192.07 50.69 191.98 48.04 C 189.31 47.91 186.64 47.90 183.98 48.01 C 184.07 45.35 184.07 42.69 183.98 40.03 C 181.31 39.91 178.65 39.91 176.00 40.03 C 173.32 39.91 170.65 39.90 167.98 40.01 C 168.07 37.35 168.07 34.69 167.98 32.03 C 165.32 31.91 162.66 31.91 160.00 32.03 C 157.33 31.91 154.66 31.91 152.00 32.03 C 149.33 31.91 146.66 31.91 144.00 32.03 C 141.33 31.91 138.66 31.92 136.00 32.04 C 130.67 31.90 125.33 31.98 120.00 32.04 C 117.33 31.91 114.66 31.91 112.00 32.03 C 109.33 31.91 106.66 31.91 104.00 32.03 C 101.33 31.91 98.66 31.92 96.00 32.04 C 93.35 31.92 90.69 31.92 88.04 32.02 Z" />
<path fill="#0066d8" opacity="1.00" d=" M 104.01 48.00 C 106.67 48.00 109.33 48.00 112.00 47.99 C 114.66 48.01 117.33 48.01 120.00 47.99 C 125.33 48.03 130.66 48.00 136.00 47.99 C 138.66 48.01 141.33 48.01 144.00 47.99 C 146.66 48.01 149.33 48.01 152.00 48.00 C 152.00 61.33 152.00 74.67 152.00 88.00 C 120.00 88.00 88.00 88.00 56.00 88.00 C 56.00 85.34 56.00 82.67 56.00 80.02 C 58.65 80.08 61.30 80.05 63.95 79.94 C 64.00 77.30 64.02 74.66 64.01 72.02 C 66.66 72.08 69.30 72.05 71.95 71.94 C 72.00 69.29 72.02 66.65 72.01 64.00 C 74.67 64.01 77.33 64.01 80.00 64.00 C 82.65 64.08 85.30 64.06 87.95 63.95 C 88.00 61.30 88.02 58.65 88.01 56.00 C 90.67 56.00 93.33 56.00 96.00 56.00 C 98.65 56.03 101.29 56.02 103.94 55.96 C 104.05 53.31 104.07 50.65 104.01 48.00 Z" />
<path fill="#0066d8" opacity="1.00" d=" M 168.00 56.00 C 170.66 56.00 173.32 56.00 175.99 56.00 C 175.92 58.65 175.94 61.30 176.06 63.95 C 178.70 64.00 181.34 64.02 183.99 64.01 C 183.92 66.66 183.94 69.30 184.06 71.95 C 186.70 72.00 189.35 72.02 192.00 72.01 C 191.98 74.67 191.98 77.33 192.00 80.00 C 191.91 82.65 191.93 85.30 192.05 87.95 C 194.70 88.00 197.35 88.02 200.00 88.01 C 199.98 90.67 199.98 93.33 200.00 96.00 C 199.91 98.65 199.93 101.30 200.05 103.95 C 202.70 104.00 205.35 104.02 208.00 104.01 C 207.98 106.67 207.98 109.33 208.01 112.00 C 207.98 114.66 207.98 117.33 208.01 120.00 C 207.99 125.33 207.97 130.67 208.01 136.00 C 207.98 138.66 207.98 141.33 208.01 144.00 C 207.98 146.66 207.98 149.33 208.01 152.00 C 207.99 154.66 207.99 157.32 208.00 159.99 C 205.34 159.92 202.69 159.94 200.04 160.06 C 199.98 162.70 199.96 165.35 200.00 168.00 C 199.99 170.66 199.99 173.32 200.00 175.99 C 197.34 175.92 194.69 175.94 192.05 176.06 C 192.00 178.70 191.98 181.34 191.99 183.99 C 189.33 183.92 186.69 183.94 184.05 184.06 C 184.00 186.70 183.98 189.35 183.99 192.00 C 181.32 191.98 178.66 191.99 176.00 192.01 C 173.33 191.99 170.67 191.99 168.01 192.00 C 167.96 181.33 168.02 170.66 168.00 160.00 C 168.08 157.34 168.06 154.69 167.95 152.04 C 165.29 151.98 162.65 151.97 160.00 152.00 C 146.67 151.99 133.34 152.00 120.01 152.00 C 120.07 149.35 120.05 146.69 119.94 144.05 C 117.30 144.00 114.66 143.98 112.02 143.99 C 112.07 141.34 112.05 138.69 111.94 136.05 C 109.29 136.00 106.65 135.98 104.00 135.99 C 104.01 133.32 104.01 130.66 103.99 128.00 C 104.00 125.33 104.00 122.67 104.00 120.02 C 106.65 120.07 109.30 120.05 111.95 119.94 C 112.00 117.30 112.02 114.65 112.01 112.01 C 114.66 112.07 117.30 112.05 119.95 111.94 C 120.00 109.29 120.02 106.65 120.01 104.00 C 122.67 104.01 125.33 104.00 128.00 103.99 C 138.67 104.02 149.33 104.00 160.00 104.00 C 162.65 104.08 165.30 104.06 167.96 103.95 C 168.01 101.30 168.03 98.65 168.00 96.00 C 168.02 82.67 167.99 69.33 168.00 56.00 Z" />
<path fill="#0066d8" opacity="1.00" d=" M 48.00 104.00 C 64.00 104.00 80.00 104.00 96.00 104.00 C 96.00 106.66 96.00 109.32 96.00 111.98 C 93.34 111.92 90.69 111.94 88.04 112.06 C 87.98 114.70 87.97 117.35 88.00 120.00 C 87.99 125.33 87.97 130.67 88.01 136.00 C 87.99 138.66 87.99 141.33 88.01 144.00 C 88.00 146.66 87.99 149.32 88.00 151.99 C 74.66 152.02 61.33 151.99 48.00 152.00 C 48.01 149.33 48.01 146.66 47.99 144.00 C 48.01 141.33 48.01 138.66 47.99 136.00 C 48.00 130.66 48.03 125.33 47.99 120.00 C 48.01 117.33 48.01 114.66 47.99 112.00 C 48.01 109.33 48.01 106.66 48.00 104.00 Z" />
<path fill="#0066d8" opacity="1.00" d=" M 64.00 168.01 C 93.34 167.98 122.67 168.01 152.00 168.00 C 152.00 181.33 152.00 194.66 152.00 208.00 C 149.33 207.98 146.66 207.98 144.00 208.01 C 141.33 207.98 138.66 207.98 136.00 208.01 C 130.66 207.99 125.33 207.97 120.00 208.01 C 117.33 207.98 114.66 207.98 112.00 208.01 C 109.33 207.98 106.66 207.98 104.00 208.01 C 101.34 207.99 98.67 207.99 96.01 208.00 C 96.08 205.34 96.05 202.69 95.94 200.04 C 93.29 199.98 90.65 199.96 88.00 200.00 C 85.34 199.99 82.67 199.99 80.01 200.00 C 80.08 197.34 80.05 194.69 79.94 192.05 C 77.30 192.00 74.66 191.98 72.02 191.99 C 72.08 189.33 72.05 186.69 71.94 184.05 C 69.29 184.00 66.65 183.98 64.00 183.99 C 64.01 181.32 64.01 178.66 63.99 176.00 C 64.01 173.33 64.01 170.67 64.00 168.01 Z" />
</g>
<g id="#0026505f">
<path fill="#002650" opacity="0.37" d=" M 160.00 0.00 L 168.00 0.00 C 168.00 2.66 168.00 5.33 168.00 7.99 C 165.33 8.01 162.66 8.01 160.00 7.99 C 160.00 5.33 160.00 2.66 160.00 0.00 Z" />
<path fill="#002650" opacity="0.37" d=" M 248.01 160.00 C 250.66 160.00 253.33 160.00 256.00 160.00 L 256.00 168.00 C 253.33 168.00 250.67 168.00 248.01 168.00 C 247.98 165.33 247.98 162.66 248.01 160.00 Z" />
</g>
<g id="#000d1a20">
<path fill="#000d1a" opacity="0.13" d=" M 64.05 8.05 C 66.69 7.94 69.34 7.92 72.00 8.00 C 72.00 10.66 72.00 13.33 72.00 15.99 C 69.33 16.01 66.66 16.01 64.00 16.00 C 63.98 13.35 63.99 10.70 64.05 8.05 Z" />
<path fill="#000d1a" opacity="0.13" d=" M 184.00 8.00 C 186.65 7.97 189.29 7.98 191.94 8.04 C 192.05 10.69 192.06 13.34 192.00 15.99 C 189.33 16.00 186.66 16.01 184.00 16.00 C 183.99 13.33 184.00 10.67 184.00 8.00 Z" />
<path fill="#000d1a" opacity="0.13" d=" M 40.05 24.06 C 42.69 23.95 45.34 23.92 47.99 23.98 C 47.99 26.66 48.00 29.34 48.01 32.02 C 45.34 32.01 42.66 32.00 39.99 31.98 C 39.98 29.34 40.00 26.70 40.05 24.06 Z" />
<path fill="#000d1a" opacity="0.13" d=" M 208.00 24.00 C 210.65 23.97 213.29 23.98 215.94 24.04 C 216.05 26.69 216.07 29.34 216.02 31.99 C 213.33 31.99 210.66 32.00 207.99 32.01 C 207.99 29.34 207.99 26.67 208.00 24.00 Z" />
<path fill="#000d1a" opacity="0.13" d=" M 24.05 40.06 C 26.69 39.95 29.34 39.92 31.99 39.98 C 31.99 42.66 32.00 45.34 32.01 48.02 C 29.34 48.01 26.66 48.00 23.99 47.98 C 23.98 45.34 24.00 42.70 24.05 40.06 Z" />
<path fill="#000d1a" opacity="0.13" d=" M 224.02 39.99 C 226.65 39.98 229.30 40.00 231.94 40.05 C 232.05 42.69 232.07 45.34 232.02 47.99 C 229.33 47.99 226.66 48.00 223.98 48.01 C 223.99 45.34 224.00 42.66 224.02 39.99 Z" />
<path fill="#000d1a" opacity="0.13" d=" M 8.04 64.06 C 10.69 63.95 13.35 63.93 16.00 64.00 C 16.00 66.66 16.00 69.33 16.00 72.00 C 13.33 72.00 10.67 72.00 8.00 72.00 C 7.97 69.35 7.98 66.70 8.04 64.06 Z" />
<path fill="#000d1a" opacity="0.13" d=" M 240.00 64.00 C 242.64 63.98 245.29 63.99 247.95 64.05 C 248.05 66.69 248.07 69.34 248.00 72.00 C 245.33 72.00 242.67 72.00 240.01 72.00 C 239.99 69.33 239.98 66.66 240.00 64.00 Z" />
<path fill="#000d1a" opacity="0.13" d=" M 8.00 184.00 C 10.66 183.99 13.33 183.99 15.99 184.00 C 16.01 186.66 16.01 189.33 16.00 192.00 C 13.35 192.02 10.70 192.00 8.05 191.95 C 7.94 189.30 7.92 186.65 8.00 184.00 Z" />
<path fill="#000d1a" opacity="0.13" d=" M 240.00 184.00 C 242.66 183.99 245.33 184.00 248.00 184.00 C 248.03 186.65 248.01 189.29 247.96 191.94 C 245.30 192.05 242.65 192.06 240.00 192.00 C 239.99 189.33 239.99 186.66 240.00 184.00 Z" />
<path fill="#000d1a" opacity="0.13" d=" M 23.98 208.01 C 26.66 208.00 29.34 207.99 32.02 207.99 C 32.01 210.66 32.00 213.33 31.98 216.01 C 29.34 216.02 26.70 216.00 24.06 215.95 C 23.95 213.30 23.92 210.65 23.98 208.01 Z" />
<path fill="#000d1a" opacity="0.13" d=" M 223.99 207.98 C 226.66 207.99 229.33 208.00 232.01 208.02 C 232.02 210.66 232.00 213.30 231.95 215.94 C 229.30 216.05 226.65 216.07 224.01 216.02 C 224.00 213.33 223.99 210.66 223.99 207.98 Z" />
<path fill="#000d1a" opacity="0.13" d=" M 39.98 224.01 C 42.66 224.00 45.34 223.99 48.02 223.99 C 48.01 226.66 48.00 229.33 47.98 232.01 C 45.34 232.02 42.70 232.00 40.06 231.95 C 39.95 229.30 39.92 226.65 39.98 224.01 Z" />
<path fill="#000d1a" opacity="0.13" d=" M 207.99 223.98 C 210.66 223.99 213.33 224.00 216.01 224.02 C 216.02 226.65 216.00 229.30 215.95 231.94 C 213.30 232.05 210.65 232.07 208.01 232.02 C 208.00 229.33 207.99 226.66 207.99 223.98 Z" />
<path fill="#000d1a" opacity="0.13" d=" M 64.00 240.00 C 66.66 239.99 69.33 239.99 72.00 240.00 C 72.00 242.66 72.00 245.33 72.00 248.00 C 69.35 248.03 66.70 248.01 64.06 247.96 C 63.95 245.30 63.93 242.65 64.00 240.00 Z" />
<path fill="#000d1a" opacity="0.13" d=" M 184.00 240.01 C 186.66 239.99 189.33 239.98 192.00 240.00 C 192.02 242.64 192.00 245.29 191.95 247.95 C 189.30 248.05 186.65 248.07 184.00 248.00 C 183.99 245.33 183.99 242.67 184.00 240.01 Z" />
</g>
<g id="#003a7890">
<path fill="#003a78" opacity="0.56" d=" M 72.00 8.00 C 74.66 7.99 77.33 7.99 80.00 8.00 C 80.00 10.67 80.00 13.34 80.00 16.01 C 77.33 16.02 74.66 16.01 72.00 15.99 C 72.00 13.33 72.00 10.66 72.00 8.00 Z" />
<path fill="#003a78" opacity="0.56" d=" M 176.00 239.99 C 178.66 239.97 181.33 239.98 184.00 240.01 C 183.99 242.67 183.99 245.33 184.00 248.00 C 181.33 248.01 178.66 248.01 176.00 248.00 C 176.00 245.33 175.99 242.66 176.00 239.99 Z" />
</g>
<g id="#00060b0f">
<path fill="#00060b" opacity="0.06" d=" M 48.05 16.05 C 50.70 15.94 53.35 15.92 56.00 16.00 C 56.00 18.67 56.00 21.34 56.01 24.02 C 53.33 24.01 50.66 24.00 47.99 23.98 C 47.98 21.34 48.00 18.70 48.05 16.05 Z" />
<path fill="#00060b" opacity="0.06" d=" M 16.04 48.06 C 18.69 47.95 21.34 47.92 23.99 47.98 C 23.99 50.66 24.00 53.34 24.01 56.02 C 21.34 56.01 18.67 56.00 16.00 56.00 C 15.97 53.35 15.98 50.70 16.04 48.06 Z" />
<path fill="#00060b" opacity="0.06" d=" M 232.02 47.99 C 234.66 47.98 237.30 48.00 239.95 48.05 C 240.05 50.70 240.07 53.35 240.00 56.00 C 237.32 56.00 234.65 56.00 231.98 56.01 C 231.99 53.33 232.00 50.66 232.02 47.99 Z" />
<path fill="#00060b" opacity="0.06" d=" M 0.00 80.00 C 2.67 80.00 5.33 80.01 8.00 80.02 C 8.00 82.67 8.00 85.34 7.99 88.00 C 5.33 88.00 2.66 88.00 0.00 88.00 L 0.00 80.00 Z" />
<path fill="#00060b" opacity="0.06" d=" M 248.00 80.00 C 250.66 80.00 253.33 80.00 256.00 80.00 L 256.00 88.00 C 253.33 88.00 250.66 88.00 248.00 88.01 C 247.99 85.34 247.99 82.67 248.00 80.00 Z" />
<path fill="#00060b" opacity="0.06" d=" M 0.00 168.00 C 2.67 167.99 5.34 167.99 8.00 167.99 C 8.00 170.65 8.00 173.32 8.00 176.00 C 5.33 176.00 2.67 176.00 -0.00 176.00 L 0.00 168.00 Z" />
<path fill="#00060b" opacity="0.06" d=" M 248.01 168.00 C 250.67 168.00 253.33 168.00 256.00 168.00 L 256.00 176.00 C 253.33 176.00 250.66 175.99 248.00 175.99 C 247.99 173.32 247.99 170.66 248.01 168.00 Z" />
<path fill="#00060b" opacity="0.06" d=" M 16.00 200.00 C 18.67 199.99 21.34 199.99 24.02 199.99 C 24.01 202.66 24.00 205.33 23.98 208.01 C 21.34 208.02 18.70 208.00 16.05 207.95 C 15.94 205.30 15.92 202.65 16.00 200.00 Z" />
<path fill="#00060b" opacity="0.06" d=" M 231.99 199.99 C 234.65 199.99 237.32 200.00 240.00 200.00 C 240.03 202.65 240.01 205.29 239.96 207.94 C 237.30 208.05 234.65 208.07 232.01 208.02 C 231.99 205.33 231.99 202.66 231.99 199.99 Z" />
<path fill="#00060b" opacity="0.06" d=" M 47.98 232.01 C 50.66 231.99 53.34 231.99 56.02 231.99 C 56.01 234.65 56.00 237.32 56.00 240.00 C 53.35 240.03 50.70 240.01 48.06 239.96 C 47.95 237.30 47.92 234.65 47.98 232.01 Z" />
<path fill="#00060b" opacity="0.06" d=" M 199.99 231.98 C 202.66 231.99 205.33 232.00 208.01 232.02 C 208.02 234.66 208.00 237.30 207.95 239.95 C 205.30 240.05 202.65 240.07 200.00 240.00 C 199.99 237.32 199.99 234.65 199.99 231.98 Z" />
</g>
<g id="#00397a8f">
<path fill="#00397a" opacity="0.56" d=" M 56.00 16.00 C 58.66 15.99 61.33 15.99 64.00 16.00 C 64.02 18.65 64.00 21.29 63.95 23.94 C 61.31 24.05 58.66 24.08 56.01 24.02 C 56.00 21.34 56.00 18.67 56.00 16.00 Z" />
<path fill="#00397a" opacity="0.56" d=" M 16.00 56.00 C 18.67 56.00 21.34 56.01 24.01 56.02 C 24.02 58.66 24.00 61.30 23.95 63.94 C 21.30 64.05 18.65 64.07 16.00 64.00 C 15.99 61.33 15.99 58.66 16.00 56.00 Z" />
</g>
<g id="#0039798f">
<path fill="#003979" opacity="0.56" d=" M 192.00 15.99 C 194.64 15.98 197.29 16.00 199.94 16.05 C 200.05 18.70 200.06 21.35 200.00 24.01 C 197.35 24.02 194.70 24.00 192.06 23.95 C 191.94 21.30 191.92 18.65 192.00 15.99 Z" />
<path fill="#003979" opacity="0.56" d=" M 231.98 56.01 C 234.65 56.00 237.32 56.00 240.00 56.00 C 240.01 58.66 240.01 61.33 240.00 64.00 C 237.35 64.02 234.70 64.00 232.06 63.95 C 231.94 61.31 231.92 58.66 231.98 56.01 Z" />
</g>
<g id="#0059bcdf">
<path fill="#0059bc" opacity="0.87" d=" M 47.99 23.98 C 50.66 24.00 53.33 24.01 56.01 24.02 C 56.02 26.66 56.00 29.30 55.95 31.94 C 53.31 32.05 50.66 32.08 48.01 32.02 C 48.00 29.34 47.99 26.66 47.99 23.98 Z" />
<path fill="#0059bc" opacity="0.87" d=" M 200.00 24.01 C 202.66 24.00 205.33 23.99 208.00 24.00 C 207.99 26.67 207.99 29.34 207.99 32.01 C 205.34 32.02 202.70 32.00 200.06 31.95 C 199.94 29.30 199.92 26.66 200.00 24.01 Z" />
<path fill="#0059bc" opacity="0.87" d=" M 39.99 31.98 C 42.66 32.00 45.34 32.01 48.01 32.02 C 48.02 34.66 48.00 37.30 47.95 39.94 C 45.31 40.05 42.66 40.08 40.01 40.02 C 40.00 37.34 39.99 34.66 39.99 31.98 Z" />
<path fill="#0059bc" opacity="0.87" d=" M 207.99 32.01 C 210.66 32.00 213.33 31.99 216.02 31.99 C 216.00 34.66 215.99 37.34 215.98 40.01 C 213.34 40.02 210.70 40.00 208.06 39.95 C 207.94 37.31 207.92 34.66 207.99 32.01 Z" />
<path fill="#0059bc" opacity="0.87" d=" M 31.99 39.98 C 34.66 40.00 37.34 40.01 40.01 40.02 C 40.02 42.66 40.00 45.30 39.95 47.94 C 37.31 48.05 34.66 48.08 32.01 48.02 C 32.00 45.34 31.99 42.66 31.99 39.98 Z" />
<path fill="#0059bc" opacity="0.87" d=" M 215.98 40.01 C 218.66 40.00 221.33 39.99 224.02 39.99 C 224.00 42.66 223.99 45.34 223.98 48.01 C 221.34 48.02 218.70 48.00 216.06 47.95 C 215.94 45.31 215.92 42.66 215.98 40.01 Z" />
<path fill="#0059bc" opacity="0.87" d=" M 23.99 47.98 C 26.66 48.00 29.34 48.01 32.01 48.02 C 32.02 50.66 32.00 53.30 31.95 55.94 C 29.31 56.05 26.66 56.08 24.01 56.02 C 24.00 53.34 23.99 50.66 23.99 47.98 Z" />
<path fill="#0059bc" opacity="0.87" d=" M 223.98 48.01 C 226.66 48.00 229.33 47.99 232.02 47.99 C 232.00 50.66 231.99 53.33 231.98 56.01 C 229.34 56.02 226.70 56.00 224.06 55.95 C 223.94 53.31 223.92 50.66 223.98 48.01 Z" />
<path fill="#0059bc" opacity="0.87" d=" M 24.02 199.99 C 26.66 199.98 29.30 200.00 31.94 200.05 C 32.05 202.69 32.08 205.33 32.02 207.99 C 29.34 207.99 26.66 208.00 23.98 208.01 C 24.00 205.33 24.01 202.66 24.02 199.99 Z" />
<path fill="#0059bc" opacity="0.87" d=" M 224.05 200.06 C 226.69 199.94 229.33 199.92 231.99 199.99 C 231.99 202.66 231.99 205.33 232.01 208.02 C 229.33 208.00 226.66 207.99 223.99 207.98 C 223.98 205.34 224.00 202.70 224.05 200.06 Z" />
<path fill="#0059bc" opacity="0.87" d=" M 32.02 207.99 C 34.66 207.98 37.30 208.00 39.94 208.05 C 40.05 210.69 40.08 213.33 40.02 215.99 C 37.34 215.99 34.66 216.00 31.98 216.01 C 32.00 213.33 32.01 210.66 32.02 207.99 Z" />
<path fill="#0059bc" opacity="0.87" d=" M 216.05 208.06 C 218.69 207.94 221.33 207.92 223.99 207.98 C 223.99 210.66 224.00 213.33 224.01 216.02 C 221.33 216.00 218.66 215.99 215.99 215.98 C 215.98 213.34 216.00 210.70 216.05 208.06 Z" />
<path fill="#0059bc" opacity="0.87" d=" M 40.02 215.99 C 42.66 215.98 45.30 216.00 47.94 216.05 C 48.05 218.69 48.08 221.33 48.02 223.99 C 45.34 223.99 42.66 224.00 39.98 224.01 C 40.00 221.33 40.01 218.66 40.02 215.99 Z" />
<path fill="#0059bc" opacity="0.87" d=" M 208.05 216.06 C 210.69 215.94 213.33 215.92 215.99 215.98 C 215.99 218.66 216.00 221.33 216.01 224.02 C 213.33 224.00 210.66 223.99 207.99 223.98 C 207.98 221.34 208.00 218.70 208.05 216.06 Z" />
<path fill="#0059bc" opacity="0.87" d=" M 48.02 223.99 C 50.66 223.98 53.30 224.00 55.94 224.05 C 56.05 226.69 56.08 229.33 56.02 231.99 C 53.34 231.99 50.66 231.99 47.98 232.01 C 48.00 229.33 48.01 226.66 48.02 223.99 Z" />
<path fill="#0059bc" opacity="0.87" d=" M 200.05 224.06 C 202.69 223.94 205.33 223.92 207.99 223.98 C 207.99 226.66 208.00 229.33 208.01 232.02 C 205.33 232.00 202.66 231.99 199.99 231.98 C 199.98 229.34 200.00 226.70 200.05 224.06 Z" />
</g>
<g id="#00132730">
<path fill="#001327" opacity="0.19" d=" M 32.05 32.06 C 34.69 31.95 37.34 31.92 39.99 31.98 C 39.99 34.66 40.00 37.34 40.01 40.02 C 37.34 40.01 34.66 40.00 31.99 39.98 C 31.98 37.34 32.00 34.70 32.05 32.06 Z" />
<path fill="#001327" opacity="0.19" d=" M 31.98 216.01 C 34.66 216.00 37.34 215.99 40.02 215.99 C 40.01 218.66 40.00 221.33 39.98 224.01 C 37.34 224.02 34.70 224.00 32.06 223.95 C 31.95 221.30 31.92 218.65 31.98 216.01 Z" />
<path fill="#001327" opacity="0.19" d=" M 215.99 215.98 C 218.66 215.99 221.33 216.00 224.01 216.02 C 224.02 218.65 224.00 221.30 223.95 223.94 C 221.30 224.05 218.65 224.07 216.01 224.02 C 216.00 221.33 215.99 218.66 215.99 215.98 Z" />
</g>
<g id="#0f6fdaff">
<path fill="#0f6fda" opacity="1.00" d=" M 88.04 32.02 C 90.69 31.92 93.35 31.92 96.00 32.04 C 96.00 34.69 96.00 37.34 96.00 40.00 C 93.33 40.00 90.67 40.01 88.01 40.01 C 87.90 37.35 87.91 34.68 88.04 32.02 Z" />
<path fill="#0f6fda" opacity="1.00" d=" M 96.00 48.00 C 98.67 48.00 101.34 48.00 104.01 48.00 C 104.07 50.65 104.05 53.31 103.94 55.96 C 101.29 56.02 98.65 56.03 96.00 56.00 C 96.00 53.33 96.00 50.67 96.00 48.00 Z" />
<path fill="#0f6fda" opacity="1.00" d=" M 80.00 56.00 C 82.67 56.00 85.34 56.00 88.01 56.00 C 88.02 58.65 88.00 61.30 87.95 63.95 C 85.30 64.06 82.65 64.08 80.00 64.00 C 80.00 61.33 80.00 58.67 80.00 56.00 Z" />
<path fill="#0f6fda" opacity="1.00" d=" M 192.00 80.00 C 194.66 80.00 197.33 80.00 200.00 80.00 C 199.99 82.67 199.99 85.34 200.00 88.01 C 197.35 88.02 194.70 88.00 192.05 87.95 C 191.93 85.30 191.91 82.65 192.00 80.00 Z" />
<path fill="#0f6fda" opacity="1.00" d=" M 215.98 88.01 C 218.64 87.90 221.31 87.91 223.98 88.04 C 224.08 90.69 224.07 93.35 223.96 96.00 C 221.30 96.00 218.65 96.00 216.00 96.00 C 215.99 93.33 215.98 90.67 215.98 88.01 Z" />
<path fill="#0f6fda" opacity="1.00" d=" M 200.00 96.00 C 202.66 96.00 205.33 96.00 208.00 96.00 C 207.99 98.67 207.99 101.34 208.00 104.01 C 205.35 104.02 202.70 104.00 200.05 103.95 C 199.93 101.30 199.91 98.65 200.00 96.00 Z" />
<path fill="#0f6fda" opacity="1.00" d=" M 88.01 144.00 C 90.67 144.00 93.34 144.00 96.00 144.00 C 96.01 146.67 96.01 149.33 95.99 152.00 C 93.32 152.01 90.66 152.00 88.00 151.99 C 87.99 149.32 88.00 146.66 88.01 144.00 Z" />
<path fill="#0f6fda" opacity="1.00" d=" M 32.04 160.00 C 34.69 160.00 37.35 160.00 40.00 160.00 C 40.00 162.66 40.01 165.32 40.02 167.99 C 37.35 168.09 34.68 168.08 32.02 167.96 C 31.92 165.30 31.92 162.65 32.04 160.00 Z" />
<path fill="#0f6fda" opacity="1.00" d=" M 56.00 168.00 C 58.67 167.99 61.33 168.00 64.00 168.01 C 64.01 170.67 64.01 173.33 63.99 176.00 C 61.32 175.99 58.66 176.00 56.00 176.00 C 56.00 173.33 56.00 170.66 56.00 168.00 Z" />
<path fill="#0f6fda" opacity="1.00" d=" M 168.01 192.00 C 170.67 191.99 173.33 191.99 176.00 192.01 C 176.00 194.67 176.00 197.33 176.00 200.00 C 173.33 199.99 170.66 199.99 168.00 200.00 C 167.99 197.33 167.99 194.66 168.01 192.00 Z" />
<path fill="#0f6fda" opacity="1.00" d=" M 160.00 216.00 C 162.66 215.99 165.32 215.98 167.99 215.98 C 168.09 218.64 168.08 221.31 167.96 223.98 C 165.30 224.08 162.65 224.07 160.00 223.96 C 160.00 221.30 160.00 218.65 160.00 216.00 Z" />
</g>
<g id="#7fb3ebff">
<path fill="#7fb3eb" opacity="1.00" d=" M 96.00 32.04 C 98.66 31.92 101.33 31.91 104.00 32.03 C 104.00 34.69 104.00 37.34 104.00 40.00 C 101.33 40.00 98.66 40.00 96.00 40.00 C 96.00 37.34 96.00 34.69 96.00 32.04 Z" />
<path fill="#7fb3eb" opacity="1.00" d=" M 56.04 56.02 C 58.69 55.93 61.35 55.93 64.01 56.02 C 64.00 58.68 64.00 61.34 64.00 64.00 C 61.33 64.00 58.67 64.01 56.01 64.02 C 55.90 61.35 55.91 58.69 56.04 56.02 Z" />
<path fill="#7fb3eb" opacity="1.00" d=" M 191.98 56.01 C 194.64 55.90 197.31 55.91 199.98 56.04 C 200.07 58.69 200.07 61.35 199.98 64.01 C 197.31 64.00 194.65 64.00 192.00 64.00 C 191.99 61.33 191.98 58.67 191.98 56.01 Z" />
<path fill="#7fb3eb" opacity="1.00" d=" M 64.00 183.99 C 66.65 183.98 69.29 184.00 71.94 184.05 C 72.05 186.69 72.08 189.33 72.02 191.99 C 69.34 191.99 66.67 191.99 64.00 192.00 C 64.00 189.33 64.00 186.65 64.00 183.99 Z" />
<path fill="#7fb3eb" opacity="1.00" d=" M 184.05 184.06 C 186.69 183.94 189.33 183.92 191.99 183.99 C 191.99 186.65 191.99 189.32 192.00 192.00 C 189.33 192.00 186.65 191.99 183.99 192.00 C 183.98 189.35 184.00 186.70 184.05 184.06 Z" />
</g>
<g id="#bfd9f5ff">
<path fill="#bfd9f5" opacity="1.00" d=" M 104.00 32.03 C 106.66 31.91 109.33 31.91 112.00 32.03 C 112.00 34.69 112.00 37.34 112.00 40.00 C 109.33 40.00 106.66 40.00 104.00 40.00 C 104.00 37.34 104.00 34.69 104.00 32.03 Z" />
<path fill="#bfd9f5" opacity="1.00" d=" M 80.00 40.04 C 82.67 39.92 85.34 39.91 88.01 40.01 C 88.00 42.68 88.00 45.34 88.00 48.00 C 85.33 48.00 82.66 48.00 80.00 48.00 C 80.00 45.34 80.00 42.69 80.00 40.04 Z" />
<path fill="#bfd9f5" opacity="1.00" d=" M 152.00 48.00 C 154.66 48.00 157.33 48.00 160.00 48.00 C 159.98 50.67 159.99 53.33 160.01 56.00 C 159.96 66.67 160.04 77.33 159.99 88.00 C 157.32 88.00 154.66 88.00 152.00 88.00 C 152.00 74.67 152.00 61.33 152.00 48.00 Z" />
<path fill="#bfd9f5" opacity="1.00" d=" M 208.00 80.00 C 210.65 80.00 213.30 80.00 215.96 80.00 C 216.07 82.67 216.08 85.34 215.98 88.01 C 213.32 88.00 210.66 88.00 208.00 88.00 C 207.99 85.33 208.00 82.66 208.00 80.00 Z" />
<path fill="#bfd9f5" opacity="1.00" d=" M 216.00 104.00 C 218.65 104.00 221.31 104.00 223.97 104.00 C 224.08 106.66 224.08 109.33 223.97 112.00 C 221.31 112.00 218.65 112.00 216.00 112.00 C 215.99 109.33 215.99 106.66 216.00 104.00 Z" />
<path fill="#bfd9f5" opacity="1.00" d=" M 32.03 144.00 C 34.69 144.00 37.34 144.00 40.00 144.00 C 40.00 146.66 40.00 149.33 40.00 152.00 C 37.34 152.00 34.69 152.00 32.03 152.00 C 31.91 149.33 31.91 146.66 32.03 144.00 Z" />
<path fill="#bfd9f5" opacity="1.00" d=" M 48.00 152.00 C 61.33 151.99 74.66 152.02 88.00 151.99 C 90.66 152.00 93.32 152.01 95.99 152.00 C 96.01 154.66 96.01 157.33 96.00 159.99 C 82.67 160.04 69.33 159.95 56.00 160.01 C 53.33 160.00 50.67 159.99 48.00 160.00 C 48.00 157.33 48.00 154.66 48.00 152.00 Z" />
<path fill="#bfd9f5" opacity="1.00" d=" M 120.01 152.00 C 133.34 152.00 146.67 151.99 160.00 152.00 C 160.00 154.66 160.00 157.33 160.00 160.00 C 157.33 159.98 154.66 159.99 152.00 160.01 C 141.33 159.96 130.66 160.04 120.00 159.99 C 120.00 157.32 120.00 154.66 120.01 152.00 Z" />
<path fill="#bfd9f5" opacity="1.00" d=" M 40.02 167.99 C 42.68 167.99 45.34 168.00 48.00 168.00 C 48.00 170.66 48.00 173.33 48.00 176.00 C 45.35 175.99 42.69 176.00 40.04 176.00 C 39.92 173.33 39.91 170.66 40.02 167.99 Z" />
<path fill="#bfd9f5" opacity="1.00" d=" M 152.00 168.00 C 154.66 168.00 157.32 168.00 159.99 168.00 C 160.04 178.67 159.96 189.33 160.01 200.00 C 159.99 202.66 159.99 205.33 160.00 208.00 C 157.33 207.99 154.66 207.99 152.00 208.00 C 152.00 194.66 152.00 181.33 152.00 168.00 Z" />
</g>
<g id="#dfecfaff">
<path fill="#dfecfa" opacity="1.00" d=" M 112.00 32.03 C 114.66 31.91 117.33 31.91 120.00 32.04 C 120.00 34.69 120.00 37.34 120.00 40.00 C 117.33 40.00 114.66 40.00 112.00 40.00 C 112.00 37.34 112.00 34.69 112.00 32.03 Z" />
<path fill="#dfecfa" opacity="1.00" d=" M 168.00 48.00 C 170.66 48.00 173.33 48.00 176.00 48.00 C 176.00 50.66 175.99 53.33 175.99 56.00 C 173.32 56.00 170.66 56.00 168.00 56.00 C 168.00 53.33 168.00 50.67 168.00 48.00 Z" />
<path fill="#dfecfa" opacity="1.00" d=" M 48.00 80.00 C 50.66 80.00 53.33 80.01 56.00 80.02 C 56.00 82.67 56.00 85.34 56.00 88.00 C 53.33 88.00 50.67 88.00 48.00 88.00 C 48.00 85.33 48.00 82.66 48.00 80.00 Z" />
<path fill="#dfecfa" opacity="1.00" d=" M 152.00 88.00 C 154.66 88.00 157.32 88.00 159.99 88.00 C 160.00 90.67 160.01 93.33 160.00 96.00 C 157.33 96.01 154.66 96.01 152.00 95.99 C 152.00 93.32 152.00 90.66 152.00 88.00 Z" />
<path fill="#dfecfa" opacity="1.00" d=" M 96.00 104.00 C 98.66 104.00 101.33 103.99 104.00 103.99 C 106.66 104.00 109.33 104.01 112.00 104.01 C 112.00 106.68 112.00 109.34 112.01 112.01 C 109.34 111.99 106.67 111.99 104.00 112.01 C 101.33 112.00 98.66 111.99 96.00 111.98 C 96.00 109.32 96.00 106.66 96.00 104.00 Z" />
<path fill="#dfecfa" opacity="1.00" d=" M 216.00 112.00 C 218.65 112.00 221.31 112.00 223.97 112.00 C 224.08 114.66 224.08 117.33 223.96 120.00 C 221.30 120.00 218.65 120.00 216.00 120.00 C 215.99 117.33 215.99 114.66 216.00 112.00 Z" />
<path fill="#dfecfa" opacity="1.00" d=" M 96.00 144.00 C 98.67 144.00 101.33 144.00 104.00 143.99 C 106.67 144.00 109.34 144.00 112.02 143.99 C 112.00 146.65 112.00 149.31 112.00 151.97 C 109.34 151.92 106.69 151.95 104.05 152.06 C 104.00 154.70 103.98 157.34 103.99 159.99 C 101.32 160.01 98.66 160.01 96.00 159.99 C 96.01 157.33 96.01 154.66 95.99 152.00 C 96.01 149.33 96.01 146.67 96.00 144.00 Z" />
<path fill="#dfecfa" opacity="1.00" d=" M 48.00 168.00 C 50.67 168.00 53.33 167.99 56.00 168.00 C 56.00 170.66 56.00 173.33 56.00 176.00 C 53.33 176.00 50.66 176.00 48.00 176.00 C 48.00 173.33 48.00 170.66 48.00 168.00 Z" />
<path fill="#dfecfa" opacity="1.00" d=" M 168.00 200.00 C 170.66 199.99 173.33 199.99 176.00 200.00 C 176.00 202.66 176.00 205.33 176.00 208.00 C 173.33 208.00 170.66 207.99 168.00 208.00 C 168.00 205.33 167.99 202.66 168.00 200.00 Z" />
<path fill="#dfecfa" opacity="1.00" d=" M 96.01 208.00 C 98.67 207.99 101.34 207.99 104.00 208.01 C 104.00 210.67 104.00 213.33 104.00 216.00 C 101.33 215.99 98.66 215.99 96.00 216.00 C 96.00 213.33 96.01 210.66 96.01 208.00 Z" />
</g>
<g id="#ffffffff">
<path fill="#ffffff" opacity="1.00" d=" M 120.00 32.04 C 125.33 31.98 130.67 31.90 136.00 32.04 C 136.00 34.70 136.00 37.35 136.00 40.00 C 130.66 40.00 125.33 40.00 120.00 40.00 C 120.00 37.34 120.00 34.69 120.00 32.04 Z" />
<path fill="#ffffff" opacity="1.00" d=" M 64.01 56.02 C 66.67 56.01 69.33 56.00 72.00 56.00 C 72.00 58.66 72.00 61.33 72.01 64.00 C 69.34 64.00 66.67 64.00 64.00 64.00 C 64.00 61.34 64.00 58.68 64.01 56.02 Z" />
<path fill="#ffffff" opacity="1.00" d=" M 184.00 56.00 C 186.66 56.00 189.31 56.00 191.98 56.01 C 191.98 58.67 191.99 61.33 192.00 64.00 C 189.32 64.00 186.65 64.00 183.99 64.01 C 183.99 61.34 184.00 58.67 184.00 56.00 Z" />
<path fill="#ffffff" opacity="1.00" d=" M 56.01 64.02 C 58.67 64.01 61.33 64.00 64.00 64.00 C 64.00 66.67 64.00 69.34 64.01 72.02 C 61.34 72.01 58.67 72.00 56.00 72.00 C 56.00 69.34 56.00 66.68 56.01 64.02 Z" />
<path fill="#ffffff" opacity="1.00" d=" M 192.00 64.00 C 194.65 64.00 197.31 64.00 199.98 64.01 C 199.98 66.67 199.99 69.33 200.00 72.00 C 197.33 72.00 194.66 72.00 192.00 72.01 C 191.99 69.34 192.00 66.67 192.00 64.00 Z" />
<path fill="#ffffff" opacity="1.00" d=" M 104.00 96.01 C 109.33 95.97 114.66 95.99 120.00 96.01 C 120.00 98.67 120.00 101.33 120.01 104.00 C 117.34 103.99 114.67 103.99 112.00 104.01 C 109.33 104.01 106.66 104.00 104.00 103.99 C 104.00 101.32 104.00 98.67 104.00 96.01 Z" />
<path fill="#ffffff" opacity="1.00" d=" M 96.00 111.98 C 98.66 111.99 101.33 112.00 104.00 112.01 C 104.00 114.68 104.00 117.34 104.00 120.02 C 101.33 120.00 98.66 120.00 96.00 120.00 C 96.00 117.32 96.00 114.65 96.00 111.98 Z" />
<path fill="#ffffff" opacity="1.00" d=" M 32.05 120.00 C 34.70 120.00 37.35 120.00 40.00 120.00 C 40.00 125.33 40.00 130.67 40.00 136.00 C 37.34 136.00 34.69 136.00 32.04 136.00 C 31.98 130.66 31.90 125.33 32.05 120.00 Z" />
<path fill="#ffffff" opacity="1.00" d=" M 216.00 120.00 C 218.65 120.00 221.30 120.00 223.96 120.00 C 224.01 125.33 224.10 130.67 223.96 136.00 C 221.30 136.00 218.65 136.00 216.00 136.00 C 216.00 130.67 215.99 125.33 216.00 120.00 Z" />
<path fill="#ffffff" opacity="1.00" d=" M 96.00 136.00 C 98.66 135.99 101.33 135.99 104.00 135.99 C 104.00 138.65 104.00 141.32 104.00 143.99 C 101.33 144.00 98.67 144.00 96.00 144.00 C 96.00 141.33 96.00 138.66 96.00 136.00 Z" />
<path fill="#ffffff" opacity="1.00" d=" M 104.05 152.06 C 106.69 151.95 109.34 151.92 112.00 151.97 C 114.67 152.00 117.34 152.01 120.01 152.00 C 120.00 154.66 120.00 157.32 120.00 159.99 C 114.66 160.00 109.32 160.03 103.99 159.99 C 103.98 157.34 104.00 154.70 104.05 152.06 Z" />
<path fill="#ffffff" opacity="1.00" d=" M 56.00 184.00 C 58.66 183.99 61.33 183.99 64.00 183.99 C 64.00 186.65 64.00 189.33 64.00 192.00 C 61.34 191.99 58.68 191.99 56.02 191.99 C 56.01 189.32 56.00 186.66 56.00 184.00 Z" />
<path fill="#ffffff" opacity="1.00" d=" M 191.99 183.99 C 194.65 183.99 197.32 184.00 200.00 184.00 C 199.99 186.66 199.99 189.31 199.99 191.98 C 197.32 191.98 194.66 191.99 192.00 192.00 C 191.99 189.32 191.99 186.65 191.99 183.99 Z" />
<path fill="#ffffff" opacity="1.00" d=" M 64.00 192.00 C 66.67 191.99 69.34 191.99 72.02 191.99 C 72.01 194.65 72.00 197.32 72.00 200.00 C 69.34 199.99 66.68 199.99 64.02 199.99 C 64.01 197.32 64.00 194.66 64.00 192.00 Z" />
<path fill="#ffffff" opacity="1.00" d=" M 183.99 192.00 C 186.65 191.99 189.33 192.00 192.00 192.00 C 191.99 194.65 191.99 197.31 191.99 199.98 C 189.32 199.98 186.66 199.99 184.00 200.00 C 183.99 197.33 183.99 194.66 183.99 192.00 Z" />
<path fill="#ffffff" opacity="1.00" d=" M 88.00 208.00 C 90.67 207.99 93.34 207.99 96.01 208.00 C 96.01 210.66 96.00 213.33 96.00 216.00 C 93.34 215.99 90.68 215.99 88.02 215.99 C 88.01 213.32 88.00 210.66 88.00 208.00 Z" />
<path fill="#ffffff" opacity="1.00" d=" M 120.00 216.00 C 125.33 216.00 130.66 215.99 136.00 216.00 C 136.00 218.65 136.00 221.30 136.00 223.96 C 130.66 224.01 125.33 224.10 120.00 223.95 C 120.00 221.30 120.00 218.65 120.00 216.00 Z" />
</g>
<g id="#f0f6fdff">
<path fill="#f0f6fd" opacity="1.00" d=" M 136.00 32.04 C 138.66 31.92 141.33 31.91 144.00 32.03 C 144.00 34.69 144.00 37.34 144.00 40.00 C 141.33 40.00 138.66 40.00 136.00 40.00 C 136.00 37.35 136.00 34.70 136.00 32.04 Z" />
<path fill="#f0f6fd" opacity="1.00" d=" M 96.00 40.00 C 98.66 40.00 101.33 40.00 104.00 40.00 C 104.00 42.67 104.00 45.33 104.01 48.00 C 101.34 48.00 98.67 48.00 96.00 48.00 C 96.00 45.33 96.00 42.66 96.00 40.00 Z" />
<path fill="#f0f6fd" opacity="1.00" d=" M 152.00 40.00 C 154.66 40.00 157.33 40.00 160.00 40.00 C 160.00 42.66 159.99 45.33 160.00 48.00 C 157.33 48.00 154.66 48.00 152.00 48.00 C 152.00 45.33 152.00 42.67 152.00 40.00 Z" />
<path fill="#f0f6fd" opacity="1.00" d=" M 40.00 96.00 C 42.66 96.00 45.33 96.00 48.00 96.00 C 48.00 98.67 48.00 101.33 48.00 104.00 C 45.33 104.00 42.67 104.00 40.00 104.00 C 40.00 101.33 40.00 98.66 40.00 96.00 Z" />
<path fill="#f0f6fd" opacity="1.00" d=" M 208.00 96.00 C 210.66 96.00 213.33 96.00 216.00 96.00 C 215.99 98.66 215.99 101.33 216.00 104.00 C 213.33 104.00 210.66 104.00 208.00 104.01 C 207.99 101.34 207.99 98.67 208.00 96.00 Z" />
<path fill="#f0f6fd" opacity="1.00" d=" M 32.03 112.00 C 34.69 112.00 37.34 112.00 40.00 112.00 C 40.00 114.66 40.00 117.33 40.00 120.00 C 37.35 120.00 34.70 120.00 32.05 120.00 C 31.92 117.33 31.91 114.66 32.03 112.00 Z" />
<path fill="#f0f6fd" opacity="1.00" d=" M 216.00 136.00 C 218.65 136.00 221.30 136.00 223.96 136.00 C 224.08 138.66 224.08 141.33 223.97 144.00 C 221.31 144.00 218.65 144.00 216.00 144.00 C 215.99 141.33 215.99 138.66 216.00 136.00 Z" />
<path fill="#f0f6fd" opacity="1.00" d=" M 40.00 152.00 C 42.67 152.00 45.33 152.00 48.00 152.00 C 48.00 154.66 48.00 157.33 48.00 160.00 C 45.33 159.99 42.66 159.99 40.00 160.00 C 40.00 157.33 40.00 154.66 40.00 152.00 Z" />
<path fill="#f0f6fd" opacity="1.00" d=" M 208.01 152.00 C 210.67 152.00 213.33 152.00 216.00 152.00 C 215.99 154.66 215.99 157.33 216.00 160.00 C 213.33 160.00 210.66 159.99 208.00 159.99 C 207.99 157.32 207.99 154.66 208.01 152.00 Z" />
<path fill="#f0f6fd" opacity="1.00" d=" M 152.00 208.00 C 154.66 207.99 157.33 207.99 160.00 208.00 C 159.99 210.66 159.99 213.33 160.00 216.00 C 157.33 215.99 154.66 215.99 152.00 216.00 C 152.00 213.33 152.00 210.66 152.00 208.00 Z" />
<path fill="#f0f6fd" opacity="1.00" d=" M 112.00 216.00 C 114.66 215.99 117.33 215.99 120.00 216.00 C 120.00 218.65 120.00 221.30 120.00 223.95 C 117.33 224.08 114.66 224.08 112.00 223.97 C 112.00 221.31 112.00 218.65 112.00 216.00 Z" />
</g>
<g id="#bed8f5ff">
<path fill="#bed8f5" opacity="1.00" d=" M 144.00 32.03 C 146.66 31.91 149.33 31.91 152.00 32.03 C 152.00 34.69 152.00 37.34 152.00 40.00 C 149.33 40.00 146.66 40.00 144.00 40.00 C 144.00 37.34 144.00 34.69 144.00 32.03 Z" />
<path fill="#bed8f5" opacity="1.00" d=" M 32.03 104.00 C 34.69 104.00 37.34 104.00 40.00 104.00 C 40.00 106.66 40.00 109.33 40.00 112.00 C 37.34 112.00 34.69 112.00 32.03 112.00 C 31.91 109.33 31.91 106.66 32.03 104.00 Z" />
</g>
<g id="#6fa8e9ff">
<path fill="#6fa8e9" opacity="1.00" d=" M 152.00 32.03 C 154.66 31.91 157.33 31.91 160.00 32.03 C 160.00 34.69 160.00 37.34 160.00 40.00 C 157.33 40.00 154.66 40.00 152.00 40.00 C 152.00 37.34 152.00 34.69 152.00 32.03 Z" />
<path fill="#6fa8e9" opacity="1.00" d=" M 160.00 96.00 C 162.66 96.00 165.33 96.00 168.00 96.00 C 168.03 98.65 168.01 101.30 167.96 103.95 C 165.30 104.06 162.65 104.08 160.00 104.00 C 160.00 101.33 160.00 98.67 160.00 96.00 Z" />
<path fill="#6fa8e9" opacity="1.00" d=" M 208.01 112.00 C 210.67 112.00 213.33 112.00 216.00 112.00 C 215.99 114.66 215.99 117.33 216.00 120.00 C 213.33 120.00 210.67 120.00 208.01 120.00 C 207.98 117.33 207.98 114.66 208.01 112.00 Z" />
<path fill="#6fa8e9" opacity="1.00" d=" M 96.00 216.00 C 98.66 215.99 101.33 215.99 104.00 216.00 C 104.00 218.65 104.00 221.31 104.00 223.97 C 101.33 224.08 98.66 224.08 96.00 223.97 C 96.00 221.31 96.00 218.65 96.00 216.00 Z" />
</g>
<g id="#2079ddff">
<path fill="#2079dd" opacity="1.00" d=" M 160.00 32.03 C 162.66 31.91 165.32 31.91 167.98 32.03 C 168.07 34.69 168.07 37.35 167.98 40.01 C 165.31 40.00 162.65 40.00 160.00 40.00 C 160.00 37.34 160.00 34.69 160.00 32.03 Z" />
<path fill="#2079dd" opacity="1.00" d=" M 72.04 40.02 C 74.69 39.92 77.35 39.92 80.00 40.04 C 80.00 42.69 80.00 45.34 80.00 48.00 C 77.33 48.00 74.67 48.01 72.01 48.02 C 71.90 45.35 71.91 42.68 72.04 40.02 Z" />
<path fill="#2079dd" opacity="1.00" d=" M 176.00 40.03 C 178.65 39.91 181.31 39.91 183.98 40.03 C 184.07 42.69 184.07 45.35 183.98 48.01 C 181.31 48.00 178.65 48.00 176.00 48.00 C 176.00 45.34 175.99 42.69 176.00 40.03 Z" />
<path fill="#2079dd" opacity="1.00" d=" M 40.03 72.02 C 42.69 71.93 45.35 71.93 48.01 72.02 C 48.00 74.68 48.00 77.34 48.00 80.00 C 45.34 80.00 42.69 80.00 40.03 80.00 C 39.91 77.34 39.91 74.68 40.03 72.02 Z" />
<path fill="#2079dd" opacity="1.00" d=" M 207.98 72.01 C 210.64 71.90 213.31 71.91 215.98 72.04 C 216.08 74.69 216.07 77.35 215.96 80.00 C 213.30 80.00 210.65 80.00 208.00 80.00 C 207.99 77.33 207.98 74.67 207.98 72.01 Z" />
<path fill="#2079dd" opacity="1.00" d=" M 32.03 88.02 C 34.69 87.93 37.35 87.93 40.01 88.02 C 40.00 90.68 40.00 93.34 40.00 96.00 C 37.34 96.00 34.69 96.00 32.03 96.00 C 31.91 93.34 31.91 90.68 32.03 88.02 Z" />
<path fill="#2079dd" opacity="1.00" d=" M 112.00 104.01 C 114.67 103.99 117.34 103.99 120.01 104.00 C 120.02 106.65 120.00 109.29 119.95 111.94 C 117.30 112.05 114.66 112.07 112.01 112.01 C 112.00 109.34 112.00 106.68 112.00 104.01 Z" />
<path fill="#2079dd" opacity="1.00" d=" M 104.00 112.01 C 106.67 111.99 109.34 111.99 112.01 112.01 C 112.02 114.65 112.00 117.30 111.95 119.94 C 109.30 120.05 106.65 120.07 104.00 120.02 C 104.00 117.34 104.00 114.68 104.00 112.01 Z" />
<path fill="#2079dd" opacity="1.00" d=" M 104.00 135.99 C 106.65 135.98 109.29 136.00 111.94 136.05 C 112.05 138.69 112.07 141.34 112.02 143.99 C 109.34 144.00 106.67 144.00 104.00 143.99 C 104.00 141.32 104.00 138.65 104.00 135.99 Z" />
<path fill="#2079dd" opacity="1.00" d=" M 112.02 143.99 C 114.66 143.98 117.30 144.00 119.94 144.05 C 120.05 146.69 120.07 149.35 120.01 152.00 C 117.34 152.01 114.67 152.00 112.00 151.97 C 112.00 149.31 112.00 146.65 112.02 143.99 Z" />
<path fill="#2079dd" opacity="1.00" d=" M 216.00 160.00 C 218.65 160.00 221.31 160.00 223.97 160.00 C 224.08 162.66 224.08 165.32 223.97 167.98 C 221.30 168.07 218.64 168.07 215.99 167.98 C 215.99 165.31 215.99 162.65 216.00 160.00 Z" />
<path fill="#2079dd" opacity="1.00" d=" M 40.04 176.00 C 42.69 176.00 45.35 175.99 48.00 176.00 C 48.00 178.66 48.01 181.32 48.02 183.99 C 45.35 184.09 42.68 184.08 40.02 183.96 C 39.92 181.30 39.92 178.65 40.04 176.00 Z" />
<path fill="#2079dd" opacity="1.00" d=" M 208.00 176.00 C 210.65 176.00 213.31 175.99 215.97 176.00 C 216.08 178.65 216.08 181.31 215.97 183.98 C 213.30 184.07 210.65 184.07 207.99 183.98 C 207.99 181.31 207.99 178.65 208.00 176.00 Z" />
<path fill="#2079dd" opacity="1.00" d=" M 72.02 207.99 C 74.68 207.99 77.34 207.99 80.00 208.00 C 80.00 210.65 80.00 213.31 80.00 215.97 C 77.34 216.08 74.68 216.08 72.02 215.97 C 71.93 213.30 71.93 210.65 72.02 207.99 Z" />
<path fill="#2079dd" opacity="1.00" d=" M 176.00 208.00 C 178.66 207.99 181.32 207.98 183.99 207.98 C 184.09 210.64 184.08 213.31 183.96 215.98 C 181.30 216.08 178.65 216.07 176.00 215.96 C 176.00 213.30 175.99 210.65 176.00 208.00 Z" />
<path fill="#2079dd" opacity="1.00" d=" M 88.02 215.99 C 90.68 215.99 93.34 215.99 96.00 216.00 C 96.00 218.65 96.00 221.31 96.00 223.97 C 93.34 224.08 90.68 224.08 88.02 223.97 C 87.93 221.30 87.93 218.64 88.02 215.99 Z" />
</g>
<g id="#00132930">
<path fill="#001329" opacity="0.19" d=" M 216.02 31.99 C 218.65 31.98 221.30 32.00 223.94 32.05 C 224.05 34.69 224.07 37.34 224.02 39.99 C 221.33 39.99 218.66 40.00 215.98 40.01 C 215.99 37.34 216.00 34.66 216.02 31.99 Z" />
</g>
<g id="#feffffff">
<path fill="#feffff" opacity="1.00" d=" M 88.01 40.01 C 90.67 40.01 93.33 40.00 96.00 40.00 C 96.00 42.66 96.00 45.33 96.00 48.00 C 93.33 48.00 90.66 48.00 88.00 48.00 C 88.00 45.34 88.00 42.68 88.01 40.01 Z" />
<path fill="#feffff" opacity="1.00" d=" M 160.00 40.00 C 162.65 40.00 165.31 40.00 167.98 40.01 C 167.98 42.67 167.99 45.33 168.00 48.00 C 165.33 48.00 162.66 48.00 160.00 48.00 C 159.99 45.33 160.00 42.66 160.00 40.00 Z" />
<path fill="#feffff" opacity="1.00" d=" M 40.01 88.02 C 42.67 88.01 45.34 88.00 48.00 88.00 C 48.00 90.66 48.00 93.33 48.00 96.00 C 45.33 96.00 42.66 96.00 40.00 96.00 C 40.00 93.34 40.00 90.68 40.01 88.02 Z" />
<path fill="#feffff" opacity="1.00" d=" M 208.00 88.00 C 210.66 88.00 213.32 88.00 215.98 88.01 C 215.98 90.67 215.99 93.33 216.00 96.00 C 213.33 96.00 210.66 96.00 208.00 96.00 C 207.99 93.33 207.99 90.66 208.00 88.00 Z" />
<path fill="#feffff" opacity="1.00" d=" M 40.00 160.00 C 42.66 159.99 45.33 159.99 48.00 160.00 C 48.00 162.66 48.00 165.33 48.00 168.00 C 45.34 168.00 42.68 167.99 40.02 167.99 C 40.01 165.32 40.00 162.66 40.00 160.00 Z" />
<path fill="#feffff" opacity="1.00" d=" M 208.00 159.99 C 210.66 159.99 213.33 160.00 216.00 160.00 C 215.99 162.65 215.99 165.31 215.99 167.98 C 213.32 167.98 210.66 167.99 208.00 168.00 C 207.99 165.33 207.99 162.65 208.00 159.99 Z" />
<path fill="#feffff" opacity="1.00" d=" M 160.00 208.00 C 162.66 207.99 165.33 207.99 168.00 208.00 C 168.00 210.66 167.99 213.32 167.99 215.98 C 165.32 215.98 162.66 215.99 160.00 216.00 C 159.99 213.33 159.99 210.66 160.00 208.00 Z" />
</g>
<g id="#9fc5f0ff">
<path fill="#9fc5f0" opacity="1.00" d=" M 104.00 40.00 C 106.66 40.00 109.33 40.00 112.00 40.00 C 112.00 42.66 112.00 45.33 112.00 47.99 C 109.33 48.00 106.67 48.00 104.01 48.00 C 104.00 45.33 104.00 42.67 104.00 40.00 Z" />
<path fill="#9fc5f0" opacity="1.00" d=" M 56.00 160.01 C 69.33 159.95 82.67 160.04 96.00 159.99 C 98.66 160.01 101.32 160.01 103.99 159.99 C 109.32 160.03 114.66 160.00 120.00 159.99 C 130.66 160.04 141.33 159.96 152.00 160.01 C 152.00 162.67 152.00 165.33 152.00 168.00 C 122.67 168.01 93.34 167.98 64.00 168.01 C 61.33 168.00 58.67 167.99 56.00 168.00 C 56.00 165.33 56.00 162.67 56.00 160.01 Z" />
</g>
<g id="#6ea8e9ff">
<path fill="#6ea8e9" opacity="1.00" d=" M 112.00 40.00 C 114.66 40.00 117.33 40.00 120.00 40.00 C 120.00 42.66 120.00 45.32 120.00 47.99 C 117.33 48.01 114.66 48.01 112.00 47.99 C 112.00 45.33 112.00 42.66 112.00 40.00 Z" />
<path fill="#6ea8e9" opacity="1.00" d=" M 136.00 208.01 C 138.66 207.98 141.33 207.98 144.00 208.01 C 144.00 210.67 144.00 213.33 144.00 216.00 C 141.33 215.99 138.66 215.99 136.00 216.00 C 136.00 213.33 136.00 210.67 136.00 208.01 Z" />
</g>
<g id="#609fe7ff">
<path fill="#609fe7" opacity="1.00" d=" M 120.00 40.00 C 125.33 40.00 130.66 40.00 136.00 40.00 C 136.00 42.66 136.00 45.33 136.00 47.99 C 130.66 48.00 125.33 48.03 120.00 47.99 C 120.00 45.32 120.00 42.66 120.00 40.00 Z" />
<path fill="#609fe7" opacity="1.00" d=" M 200.00 88.01 C 202.66 88.00 205.33 88.00 208.00 88.00 C 207.99 90.66 207.99 93.33 208.00 96.00 C 205.33 96.00 202.66 96.00 200.00 96.00 C 199.98 93.33 199.98 90.67 200.00 88.01 Z" />
<path fill="#609fe7" opacity="1.00" d=" M 88.04 112.06 C 90.69 111.94 93.34 111.92 96.00 111.98 C 96.00 114.65 96.00 117.32 96.00 120.00 C 93.33 120.00 90.66 120.00 88.00 120.00 C 87.97 117.35 87.98 114.70 88.04 112.06 Z" />
<path fill="#609fe7" opacity="1.00" d=" M 208.01 120.00 C 210.67 120.00 213.33 120.00 216.00 120.00 C 215.99 125.33 216.00 130.67 216.00 136.00 C 213.33 136.00 210.67 136.00 208.01 136.00 C 207.97 130.67 207.99 125.33 208.01 120.00 Z" />
<path fill="#609fe7" opacity="1.00" d=" M 200.04 160.06 C 202.69 159.94 205.34 159.92 208.00 159.99 C 207.99 162.65 207.99 165.33 208.00 168.00 C 205.33 168.00 202.66 168.00 200.00 168.00 C 199.96 165.35 199.98 162.70 200.04 160.06 Z" />
</g>
<g id="#80b2ebff">
<path fill="#80b2eb" opacity="1.00" d=" M 136.00 40.00 C 138.66 40.00 141.33 40.00 144.00 40.00 C 144.00 42.66 144.00 45.33 144.00 47.99 C 141.33 48.01 138.66 48.01 136.00 47.99 C 136.00 45.33 136.00 42.66 136.00 40.00 Z" />
<path fill="#80b2eb" opacity="1.00" d=" M 216.00 96.00 C 218.65 96.00 221.30 96.00 223.96 96.00 C 224.08 98.66 224.08 101.33 223.97 104.00 C 221.31 104.00 218.65 104.00 216.00 104.00 C 215.99 101.33 215.99 98.66 216.00 96.00 Z" />
<path fill="#80b2eb" opacity="1.00" d=" M 40.00 112.00 C 42.66 112.00 45.33 112.00 47.99 112.00 C 48.01 114.66 48.01 117.33 47.99 120.00 C 45.32 120.00 42.66 120.00 40.00 120.00 C 40.00 117.33 40.00 114.66 40.00 112.00 Z" />
<path fill="#80b2eb" opacity="1.00" d=" M 208.01 136.00 C 210.67 136.00 213.33 136.00 216.00 136.00 C 215.99 138.66 215.99 141.33 216.00 144.00 C 213.33 144.00 210.66 144.00 208.01 144.00 C 207.98 141.33 207.98 138.66 208.01 136.00 Z" />
<path fill="#80b2eb" opacity="1.00" d=" M 32.03 152.00 C 34.69 152.00 37.34 152.00 40.00 152.00 C 40.00 154.66 40.00 157.33 40.00 160.00 C 37.35 160.00 34.69 160.00 32.04 160.00 C 31.92 157.33 31.91 154.66 32.03 152.00 Z" />
<path fill="#80b2eb" opacity="1.00" d=" M 160.00 152.00 C 162.65 151.97 165.29 151.98 167.95 152.04 C 168.06 154.69 168.08 157.34 168.00 160.00 C 165.33 160.00 162.67 159.99 160.00 160.00 C 160.00 157.33 160.00 154.66 160.00 152.00 Z" />
<path fill="#80b2eb" opacity="1.00" d=" M 112.00 208.01 C 114.66 207.98 117.33 207.98 120.00 208.01 C 120.00 210.67 120.00 213.33 120.00 216.00 C 117.33 215.99 114.66 215.99 112.00 216.00 C 112.00 213.33 112.00 210.66 112.00 208.01 Z" />
</g>
<g id="#b0cff3ff">
<path fill="#b0cff3" opacity="1.00" d=" M 144.00 40.00 C 146.66 40.00 149.33 40.00 152.00 40.00 C 152.00 42.67 152.00 45.33 152.00 48.00 C 149.33 48.01 146.66 48.01 144.00 47.99 C 144.00 45.33 144.00 42.66 144.00 40.00 Z" />
<path fill="#b0cff3" opacity="1.00" d=" M 104.00 208.01 C 106.66 207.98 109.33 207.98 112.00 208.01 C 112.00 210.66 112.00 213.33 112.00 216.00 C 109.33 215.99 106.66 215.99 104.00 216.00 C 104.00 213.33 104.00 210.67 104.00 208.01 Z" />
</g>
<g id="#9fc6f0ff">
<path fill="#9fc6f0" opacity="1.00" d=" M 167.98 40.01 C 170.65 39.90 173.32 39.91 176.00 40.03 C 175.99 42.69 176.00 45.34 176.00 48.00 C 173.33 48.00 170.66 48.00 168.00 48.00 C 167.99 45.33 167.98 42.67 167.98 40.01 Z" />
<path fill="#9fc6f0" opacity="1.00" d=" M 160.01 56.00 C 162.67 56.00 165.33 56.00 168.00 56.00 C 167.99 69.33 168.02 82.67 168.00 96.00 C 165.33 96.00 162.66 96.00 160.00 96.00 C 160.01 93.33 160.00 90.67 159.99 88.00 C 160.04 77.33 159.96 66.67 160.01 56.00 Z" />
<path fill="#9fc6f0" opacity="1.00" d=" M 56.00 88.00 C 88.00 88.00 120.00 88.00 152.00 88.00 C 152.00 90.66 152.00 93.32 152.00 95.99 C 144.00 96.04 136.00 95.96 128.00 96.01 C 125.33 95.99 122.66 95.98 120.00 96.01 C 114.66 95.99 109.33 95.97 104.00 96.01 C 101.33 95.99 98.66 95.99 96.00 96.01 C 82.67 95.95 69.33 96.05 56.00 95.99 C 56.00 93.32 56.00 90.66 56.00 88.00 Z" />
<path fill="#9fc6f0" opacity="1.00" d=" M 40.00 144.00 C 42.66 144.00 45.33 144.00 47.99 144.00 C 48.01 146.66 48.01 149.33 48.00 152.00 C 45.33 152.00 42.67 152.00 40.00 152.00 C 40.00 149.33 40.00 146.66 40.00 144.00 Z" />
<path fill="#9fc6f0" opacity="1.00" d=" M 160.00 160.00 C 162.67 159.99 165.33 160.00 168.00 160.00 C 168.02 170.66 167.96 181.33 168.01 192.00 C 167.99 194.66 167.99 197.33 168.00 200.00 C 165.33 199.99 162.67 199.99 160.01 200.00 C 159.96 189.33 160.04 178.67 159.99 168.00 C 160.00 165.33 160.01 162.66 160.00 160.00 Z" />
<path fill="#9fc6f0" opacity="1.00" d=" M 208.00 168.00 C 210.66 167.99 213.32 167.98 215.99 167.98 C 216.09 170.65 216.08 173.32 215.97 176.00 C 213.31 175.99 210.65 176.00 208.00 176.00 C 207.99 173.33 207.99 170.66 208.00 168.00 Z" />
<path fill="#9fc6f0" opacity="1.00" d=" M 144.00 208.01 C 146.66 207.98 149.33 207.98 152.00 208.00 C 152.00 210.66 152.00 213.33 152.00 216.00 C 149.33 215.99 146.66 215.99 144.00 216.00 C 144.00 213.33 144.00 210.67 144.00 208.01 Z" />
</g>
<g id="#6fa9e9ff">
<path fill="#6fa9e9" opacity="1.00" d=" M 64.04 48.02 C 66.69 47.93 69.35 47.93 72.01 48.02 C 72.00 50.68 72.00 53.34 72.00 56.00 C 69.33 56.00 66.67 56.01 64.01 56.02 C 63.90 53.35 63.91 50.69 64.04 48.02 Z" />
<path fill="#6fa9e9" opacity="1.00" d=" M 48.04 64.02 C 50.69 63.93 53.35 63.93 56.01 64.02 C 56.00 66.68 56.00 69.34 56.00 72.00 C 53.33 72.00 50.67 72.01 48.01 72.02 C 47.90 69.35 47.91 66.69 48.04 64.02 Z" />
<path fill="#6fa9e9" opacity="1.00" d=" M 40.00 136.00 C 42.66 136.00 45.33 136.00 47.99 136.00 C 48.01 138.66 48.01 141.33 47.99 144.00 C 45.33 144.00 42.66 144.00 40.00 144.00 C 40.00 141.33 40.00 138.66 40.00 136.00 Z" />
</g>
<g id="#eef5fdff">
<path fill="#eef5fd" opacity="1.00" d=" M 72.01 48.02 C 74.67 48.01 77.33 48.00 80.00 48.00 C 80.00 50.66 80.00 53.33 80.00 56.00 C 77.33 56.00 74.66 56.00 72.00 56.00 C 72.00 53.34 72.00 50.68 72.01 48.02 Z" />
<path fill="#eef5fd" opacity="1.00" d=" M 176.00 48.00 C 178.65 48.00 181.31 48.00 183.98 48.01 C 183.98 50.67 183.99 53.33 184.00 56.00 C 181.33 56.00 178.65 56.00 175.99 56.00 C 175.99 53.33 176.00 50.66 176.00 48.00 Z" />
<path fill="#eef5fd" opacity="1.00" d=" M 48.01 72.02 C 50.67 72.01 53.33 72.00 56.00 72.00 C 56.00 74.67 56.00 77.34 56.00 80.02 C 53.33 80.01 50.66 80.00 48.00 80.00 C 48.00 77.34 48.00 74.68 48.01 72.02 Z" />
<path fill="#eef5fd" opacity="1.00" d=" M 200.00 72.00 C 202.65 72.00 205.31 72.00 207.98 72.01 C 207.98 74.67 207.99 77.33 208.00 80.00 C 205.33 80.00 202.66 80.00 200.00 80.00 C 199.99 77.33 200.00 74.66 200.00 72.00 Z" />
<path fill="#eef5fd" opacity="1.00" d=" M 48.00 176.00 C 50.66 176.00 53.33 176.00 56.00 176.00 C 56.00 178.66 56.00 181.33 56.00 184.00 C 53.34 184.00 50.68 183.99 48.02 183.99 C 48.01 181.32 48.00 178.66 48.00 176.00 Z" />
<path fill="#eef5fd" opacity="1.00" d=" M 200.00 175.99 C 202.66 175.99 205.33 176.00 208.00 176.00 C 207.99 178.65 207.99 181.31 207.99 183.98 C 205.32 183.98 202.66 183.99 200.00 184.00 C 199.99 181.33 199.99 178.65 200.00 175.99 Z" />
<path fill="#eef5fd" opacity="1.00" d=" M 72.00 200.00 C 74.67 199.99 77.34 199.99 80.01 200.00 C 80.01 202.66 80.00 205.33 80.00 208.00 C 77.34 207.99 74.68 207.99 72.02 207.99 C 72.01 205.32 72.00 202.66 72.00 200.00 Z" />
<path fill="#eef5fd" opacity="1.00" d=" M 176.00 200.00 C 178.66 199.99 181.33 200.00 184.00 200.00 C 184.00 202.65 183.99 205.31 183.99 207.98 C 181.32 207.98 178.66 207.99 176.00 208.00 C 176.00 205.33 176.00 202.66 176.00 200.00 Z" />
</g>
<g id="#e0edfaff">
<path fill="#e0edfa" opacity="1.00" d=" M 80.00 48.00 C 82.66 48.00 85.33 48.00 88.00 48.00 C 88.00 50.67 88.00 53.33 88.01 56.00 C 85.34 56.00 82.67 56.00 80.00 56.00 C 80.00 53.33 80.00 50.66 80.00 48.00 Z" />
<path fill="#e0edfa" opacity="1.00" d=" M 200.00 80.00 C 202.66 80.00 205.33 80.00 208.00 80.00 C 208.00 82.66 207.99 85.33 208.00 88.00 C 205.33 88.00 202.66 88.00 200.00 88.01 C 199.99 85.34 199.99 82.67 200.00 80.00 Z" />
<path fill="#e0edfa" opacity="1.00" d=" M 200.00 168.00 C 202.66 168.00 205.33 168.00 208.00 168.00 C 207.99 170.66 207.99 173.33 208.00 176.00 C 205.33 176.00 202.66 175.99 200.00 175.99 C 199.99 173.32 199.99 170.66 200.00 168.00 Z" />
<path fill="#e0edfa" opacity="1.00" d=" M 80.01 200.00 C 82.67 199.99 85.34 199.99 88.00 200.00 C 88.00 202.66 88.00 205.33 88.00 208.00 C 85.33 207.99 82.66 207.99 80.00 208.00 C 80.00 205.33 80.01 202.66 80.01 200.00 Z" />
</g>
<g id="#5f9fe6ff">
<path fill="#5f9fe6" opacity="1.00" d=" M 88.00 48.00 C 90.66 48.00 93.33 48.00 96.00 48.00 C 96.00 50.67 96.00 53.33 96.00 56.00 C 93.33 56.00 90.67 56.00 88.01 56.00 C 88.00 53.33 88.00 50.67 88.00 48.00 Z" />
<path fill="#5f9fe6" opacity="1.00" d=" M 88.00 200.00 C 90.65 199.96 93.29 199.98 95.94 200.04 C 96.05 202.69 96.08 205.34 96.01 208.00 C 93.34 207.99 90.67 207.99 88.00 208.00 C 88.00 205.33 88.00 202.66 88.00 200.00 Z" />
</g>
<g id="#cfe3f7ff">
<path fill="#cfe3f7" opacity="1.00" d=" M 160.00 48.00 C 162.66 48.00 165.33 48.00 168.00 48.00 C 168.00 50.67 168.00 53.33 168.00 56.00 C 165.33 56.00 162.67 56.00 160.01 56.00 C 159.99 53.33 159.98 50.67 160.00 48.00 Z" />
<path fill="#cfe3f7" opacity="1.00" d=" M 48.00 88.00 C 50.67 88.00 53.33 88.00 56.00 88.00 C 56.00 90.66 56.00 93.32 56.00 95.99 C 53.33 96.00 50.67 96.00 48.00 96.00 C 48.00 93.33 48.00 90.66 48.00 88.00 Z" />
<path fill="#cfe3f7" opacity="1.00" d=" M 96.00 96.01 C 98.66 95.99 101.33 95.99 104.00 96.01 C 104.00 98.67 104.00 101.32 104.00 103.99 C 101.33 103.99 98.66 104.00 96.00 104.00 C 96.00 101.34 96.00 98.67 96.00 96.01 Z" />
<path fill="#cfe3f7" opacity="1.00" d=" M 48.00 160.00 C 50.67 159.99 53.33 160.00 56.00 160.01 C 56.00 162.67 56.00 165.33 56.00 168.00 C 53.33 167.99 50.67 168.00 48.00 168.00 C 48.00 165.33 48.00 162.66 48.00 160.00 Z" />
<path fill="#cfe3f7" opacity="1.00" d=" M 160.01 200.00 C 162.67 199.99 165.33 199.99 168.00 200.00 C 167.99 202.66 168.00 205.33 168.00 208.00 C 165.33 207.99 162.66 207.99 160.00 208.00 C 159.99 205.33 159.99 202.66 160.01 200.00 Z" />
</g>
<g id="#70a9e9ff">
<path fill="#70a9e9" opacity="1.00" d=" M 183.98 48.01 C 186.64 47.90 189.31 47.91 191.98 48.04 C 192.07 50.69 192.07 53.35 191.98 56.01 C 189.31 56.00 186.66 56.00 184.00 56.00 C 183.99 53.33 183.98 50.67 183.98 48.01 Z" />
<path fill="#70a9e9" opacity="1.00" d=" M 199.98 64.01 C 202.64 63.90 205.31 63.91 207.98 64.04 C 208.07 66.69 208.07 69.35 207.98 72.01 C 205.31 72.00 202.65 72.00 200.00 72.00 C 199.99 69.33 199.98 66.67 199.98 64.01 Z" />
<path fill="#70a9e9" opacity="1.00" d=" M 216.00 152.00 C 218.65 152.00 221.31 152.00 223.97 152.00 C 224.08 154.66 224.08 157.33 223.97 160.00 C 221.31 160.00 218.65 160.00 216.00 160.00 C 215.99 157.33 215.99 154.66 216.00 152.00 Z" />
<path fill="#70a9e9" opacity="1.00" d=" M 48.02 183.99 C 50.68 183.99 53.34 184.00 56.00 184.00 C 56.00 186.66 56.01 189.32 56.02 191.99 C 53.35 192.09 50.69 192.08 48.02 191.96 C 47.93 189.30 47.93 186.64 48.02 183.99 Z" />
<path fill="#70a9e9" opacity="1.00" d=" M 200.00 184.00 C 202.66 183.99 205.32 183.98 207.99 183.98 C 208.09 186.64 208.08 189.31 207.96 191.98 C 205.30 192.07 202.64 192.07 199.99 191.98 C 199.99 189.31 199.99 186.66 200.00 184.00 Z" />
<path fill="#70a9e9" opacity="1.00" d=" M 64.02 199.99 C 66.68 199.99 69.34 199.99 72.00 200.00 C 72.00 202.66 72.01 205.32 72.02 207.99 C 69.35 208.09 66.69 208.08 64.02 207.96 C 63.93 205.30 63.93 202.64 64.02 199.99 Z" />
<path fill="#70a9e9" opacity="1.00" d=" M 184.00 200.00 C 186.66 199.99 189.32 199.98 191.99 199.98 C 192.09 202.64 192.08 205.31 191.96 207.98 C 189.30 208.07 186.64 208.07 183.99 207.98 C 183.99 205.31 184.00 202.65 184.00 200.00 Z" />
</g>
<g id="#90bceeff">
<path fill="#90bcee" opacity="1.00" d=" M 72.00 56.00 C 74.66 56.00 77.33 56.00 80.00 56.00 C 80.00 58.67 80.00 61.33 80.00 64.00 C 77.33 64.01 74.67 64.01 72.01 64.00 C 72.00 61.33 72.00 58.66 72.00 56.00 Z" />
<path fill="#90bcee" opacity="1.00" d=" M 175.99 56.00 C 178.65 56.00 181.33 56.00 184.00 56.00 C 184.00 58.67 183.99 61.34 183.99 64.01 C 181.34 64.02 178.70 64.00 176.06 63.95 C 175.94 61.30 175.92 58.65 175.99 56.00 Z" />
<path fill="#90bcee" opacity="1.00" d=" M 192.00 72.01 C 194.66 72.00 197.33 72.00 200.00 72.00 C 200.00 74.66 199.99 77.33 200.00 80.00 C 197.33 80.00 194.66 80.00 192.00 80.00 C 191.98 77.33 191.98 74.67 192.00 72.01 Z" />
</g>
<g id="#80b2ecff">
<path fill="#80b2ec" opacity="1.00" d=" M 64.00 64.00 C 66.67 64.00 69.34 64.00 72.01 64.00 C 72.02 66.65 72.00 69.29 71.95 71.94 C 69.30 72.05 66.66 72.08 64.01 72.02 C 64.00 69.34 64.00 66.67 64.00 64.00 Z" />
<path fill="#80b2ec" opacity="1.00" d=" M 183.99 64.01 C 186.65 64.00 189.32 64.00 192.00 64.00 C 192.00 66.67 191.99 69.34 192.00 72.01 C 189.35 72.02 186.70 72.00 184.06 71.95 C 183.94 69.30 183.92 66.66 183.99 64.01 Z" />
<path fill="#80b2ec" opacity="1.00" d=" M 56.00 72.00 C 58.67 72.00 61.34 72.01 64.01 72.02 C 64.02 74.66 64.00 77.30 63.95 79.94 C 61.30 80.05 58.65 80.08 56.00 80.02 C 56.00 77.34 56.00 74.67 56.00 72.00 Z" />
<path fill="#80b2ec" opacity="1.00" d=" M 56.02 191.99 C 58.68 191.99 61.34 191.99 64.00 192.00 C 64.00 194.66 64.01 197.32 64.02 199.99 C 61.35 200.09 58.69 200.08 56.02 199.96 C 55.93 197.30 55.93 194.64 56.02 191.99 Z" />
<path fill="#80b2ec" opacity="1.00" d=" M 192.00 192.00 C 194.66 191.99 197.32 191.98 199.99 191.98 C 200.09 194.64 200.08 197.31 199.96 199.98 C 197.30 200.07 194.64 200.07 191.99 199.98 C 191.99 197.31 191.99 194.65 192.00 192.00 Z" />
<path fill="#80b2ec" opacity="1.00" d=" M 152.00 216.00 C 154.66 215.99 157.33 215.99 160.00 216.00 C 160.00 218.65 160.00 221.30 160.00 223.96 C 157.33 224.08 154.66 224.08 152.00 223.97 C 152.00 221.31 152.00 218.65 152.00 216.00 Z" />
</g>
<g id="#004086a0">
<path fill="#004086" opacity="0.63" d=" M 8.00 72.00 C 10.67 72.00 13.33 72.00 16.00 72.00 C 16.03 74.65 16.02 77.29 15.96 79.94 C 13.31 80.05 10.65 80.08 8.00 80.02 C 7.99 77.34 7.99 74.67 8.00 72.00 Z" />
<path fill="#004086" opacity="0.63" d=" M 0.00 96.00 C 2.66 96.00 5.33 96.00 7.99 96.00 C 8.01 98.66 8.01 101.33 7.99 104.00 C 5.33 104.00 2.66 104.00 0.00 104.00 L 0.00 96.00 Z" />
<path fill="#004086" opacity="0.63" d=" M 0.00 152.00 C 2.66 152.00 5.33 152.00 7.99 152.00 C 8.01 154.66 8.01 157.33 7.99 160.00 C 5.33 160.00 2.66 160.00 0.00 160.00 L 0.00 152.00 Z" />
<path fill="#004086" opacity="0.63" d=" M 72.00 240.00 C 74.65 239.96 77.29 239.98 79.94 240.04 C 80.05 242.69 80.08 245.34 80.02 248.00 C 77.34 248.00 74.67 248.00 72.00 248.00 C 72.00 245.33 72.00 242.66 72.00 240.00 Z" />
<path fill="#004086" opacity="0.63" d=" M 96.00 248.01 C 98.66 247.98 101.33 247.98 104.00 248.01 C 104.00 250.66 104.00 253.33 104.00 256.00 L 96.00 256.00 C 96.00 253.33 96.00 250.66 96.00 248.01 Z" />
</g>
<g id="#00397890">
<path fill="#003978" opacity="0.56" d=" M 240.01 72.00 C 242.67 72.00 245.33 72.00 248.00 72.00 C 248.01 74.66 248.01 77.33 248.00 80.00 C 245.33 80.00 242.66 80.00 239.99 80.00 C 239.97 77.33 239.98 74.66 240.01 72.00 Z" />
<path fill="#003978" opacity="0.56" d=" M 232.05 192.06 C 234.69 191.94 237.34 191.92 240.00 192.00 C 240.00 194.66 240.00 197.33 240.00 200.00 C 237.32 200.00 234.65 199.99 231.99 199.99 C 231.98 197.34 232.00 194.70 232.05 192.06 Z" />
<path fill="#003978" opacity="0.56" d=" M 192.05 232.06 C 194.69 231.94 197.33 231.92 199.99 231.98 C 199.99 234.65 199.99 237.32 200.00 240.00 C 197.33 240.01 194.66 240.01 192.00 240.00 C 191.98 237.35 191.99 234.70 192.05 232.06 Z" />
</g>
<g id="#a0c5f0ff">
<path fill="#a0c5f0" opacity="1.00" d=" M 40.03 80.00 C 42.69 80.00 45.34 80.00 48.00 80.00 C 48.00 82.66 48.00 85.33 48.00 88.00 C 45.34 88.00 42.67 88.01 40.01 88.02 C 39.91 85.34 39.91 82.67 40.03 80.00 Z" />
<path fill="#a0c5f0" opacity="1.00" d=" M 208.00 104.01 C 210.66 104.00 213.33 104.00 216.00 104.00 C 215.99 106.66 215.99 109.33 216.00 112.00 C 213.33 112.00 210.67 112.00 208.01 112.00 C 207.98 109.33 207.98 106.67 208.00 104.01 Z" />
<path fill="#a0c5f0" opacity="1.00" d=" M 88.00 120.00 C 90.66 120.00 93.33 120.00 96.00 120.00 C 95.98 122.66 95.99 125.33 96.01 128.00 C 96.00 130.66 95.99 133.33 96.00 136.00 C 93.33 136.00 90.67 136.00 88.01 136.00 C 87.97 130.67 87.99 125.33 88.00 120.00 Z" />
<path fill="#a0c5f0" opacity="1.00" d=" M 80.00 208.00 C 82.66 207.99 85.33 207.99 88.00 208.00 C 88.00 210.66 88.01 213.32 88.02 215.99 C 85.34 216.09 82.67 216.08 80.00 215.97 C 80.00 213.31 80.00 210.65 80.00 208.00 Z" />
</g>
<g id="#0060ccf1">
<path fill="#0060cc" opacity="0.95" d=" M 239.99 80.00 C 242.66 80.00 245.33 80.00 248.00 80.00 C 247.99 82.67 247.99 85.34 248.00 88.01 C 245.35 88.02 242.70 88.00 240.05 87.95 C 239.93 85.30 239.91 82.65 239.99 80.00 Z" />
<path fill="#0060cc" opacity="0.95" d=" M 247.99 112.00 C 250.66 112.00 253.32 112.00 256.00 112.00 L 256.00 120.02 C 253.35 120.02 250.70 120.00 248.05 119.95 C 247.93 117.30 247.91 114.65 247.99 112.00 Z" />
<path fill="#0060cc" opacity="0.95" d=" M 248.04 136.06 C 250.69 135.94 253.34 135.91 256.00 135.97 L 256.00 144.00 C 253.33 144.00 250.66 144.00 248.00 144.00 C 247.96 141.35 247.98 138.70 248.04 136.06 Z" />
</g>
<g id="#70a8e9ff">
<path fill="#70a8e9" opacity="1.00" d=" M 32.03 96.00 C 34.69 96.00 37.34 96.00 40.00 96.00 C 40.00 98.66 40.00 101.33 40.00 104.00 C 37.34 104.00 34.69 104.00 32.03 104.00 C 31.91 101.33 31.91 98.66 32.03 96.00 Z" />
<path fill="#70a8e9" opacity="1.00" d=" M 88.01 136.00 C 90.67 136.00 93.33 136.00 96.00 136.00 C 96.00 138.66 96.00 141.33 96.00 144.00 C 93.34 144.00 90.67 144.00 88.01 144.00 C 87.99 141.33 87.99 138.66 88.01 136.00 Z" />
</g>
<g id="#bfd8f5ff">
<path fill="#bfd8f5" opacity="1.00" d=" M 48.00 96.00 C 50.67 96.00 53.33 96.00 56.00 95.99 C 69.33 96.05 82.67 95.95 96.00 96.01 C 96.00 98.67 96.00 101.34 96.00 104.00 C 80.00 104.00 64.00 104.00 48.00 104.00 C 48.00 101.33 48.00 98.67 48.00 96.00 Z" />
<path fill="#bfd8f5" opacity="1.00" d=" M 128.00 96.01 C 136.00 95.96 144.00 96.04 152.00 95.99 C 154.66 96.01 157.33 96.01 160.00 96.00 C 160.00 98.67 160.00 101.33 160.00 104.00 C 149.33 104.00 138.67 104.02 128.00 103.99 C 128.00 101.33 128.00 98.67 128.00 96.01 Z" />
<path fill="#bfd8f5" opacity="1.00" d=" M 168.00 208.00 C 170.66 207.99 173.33 208.00 176.00 208.00 C 175.99 210.65 176.00 213.30 176.00 215.96 C 173.33 216.07 170.66 216.08 167.99 215.98 C 167.99 213.32 168.00 210.66 168.00 208.00 Z" />
<path fill="#bfd8f5" opacity="1.00" d=" M 144.00 216.00 C 146.66 215.99 149.33 215.99 152.00 216.00 C 152.00 218.65 152.00 221.31 152.00 223.97 C 149.33 224.08 146.66 224.08 144.00 223.97 C 144.00 221.31 144.00 218.65 144.00 216.00 Z" />
</g>
<g id="#cee2f7ff">
<path fill="#cee2f7" opacity="1.00" d=" M 120.00 96.01 C 122.66 95.98 125.33 95.99 128.00 96.01 C 128.00 98.67 128.00 101.33 128.00 103.99 C 125.33 104.00 122.67 104.01 120.01 104.00 C 120.00 101.33 120.00 98.67 120.00 96.01 Z" />
</g>
<g id="#b1d0f3ff">
<path fill="#b1d0f3" opacity="1.00" d=" M 40.00 104.00 C 42.67 104.00 45.33 104.00 48.00 104.00 C 48.01 106.66 48.01 109.33 47.99 112.00 C 45.33 112.00 42.66 112.00 40.00 112.00 C 40.00 109.33 40.00 106.66 40.00 104.00 Z" />
</g>
<g id="#609fe6ff">
<path fill="#609fe6" opacity="1.00" d=" M 40.00 120.00 C 42.66 120.00 45.32 120.00 47.99 120.00 C 48.03 125.33 48.00 130.66 47.99 136.00 C 45.33 136.00 42.66 136.00 40.00 136.00 C 40.00 130.67 40.00 125.33 40.00 120.00 Z" />
<path fill="#609fe6" opacity="1.00" d=" M 120.00 208.01 C 125.33 207.97 130.66 207.99 136.00 208.01 C 136.00 210.67 136.00 213.33 136.00 216.00 C 130.66 215.99 125.33 216.00 120.00 216.00 C 120.00 213.33 120.00 210.67 120.00 208.01 Z" />
</g>
<g id="#c0d8f5ff">
<path fill="#c0d8f5" opacity="1.00" d=" M 96.00 120.00 C 98.66 120.00 101.33 120.00 104.00 120.02 C 104.00 122.67 104.00 125.33 103.99 128.00 C 101.33 128.00 98.67 128.00 96.01 128.00 C 95.99 125.33 95.98 122.66 96.00 120.00 Z" />
</g>
<g id="#cee2f8ff">
<path fill="#cee2f8" opacity="1.00" d=" M 96.01 128.00 C 98.67 128.00 101.33 128.00 103.99 128.00 C 104.01 130.66 104.01 133.32 104.00 135.99 C 101.33 135.99 98.66 135.99 96.00 136.00 C 95.99 133.33 96.00 130.66 96.01 128.00 Z" />
</g>
<g id="#dfebfaff">
<path fill="#dfebfa" opacity="1.00" d=" M 32.04 136.00 C 34.69 136.00 37.34 136.00 40.00 136.00 C 40.00 138.66 40.00 141.33 40.00 144.00 C 37.34 144.00 34.69 144.00 32.03 144.00 C 31.91 141.33 31.91 138.66 32.04 136.00 Z" />
<path fill="#dfebfa" opacity="1.00" d=" M 136.00 216.00 C 138.66 215.99 141.33 215.99 144.00 216.00 C 144.00 218.65 144.00 221.31 144.00 223.97 C 141.33 224.08 138.66 224.08 136.00 223.96 C 136.00 221.30 136.00 218.65 136.00 216.00 Z" />
</g>
<g id="#b0cff2ff">
<path fill="#b0cff2" opacity="1.00" d=" M 208.01 144.00 C 210.66 144.00 213.33 144.00 216.00 144.00 C 215.99 146.66 215.99 149.33 216.00 152.00 C 213.33 152.00 210.67 152.00 208.01 152.00 C 207.98 149.33 207.98 146.66 208.01 144.00 Z" />
</g>
<g id="#bed7f5ff">
<path fill="#bed7f5" opacity="1.00" d=" M 216.00 144.00 C 218.65 144.00 221.31 144.00 223.97 144.00 C 224.08 146.66 224.08 149.33 223.97 152.00 C 221.31 152.00 218.65 152.00 216.00 152.00 C 215.99 149.33 215.99 146.66 216.00 144.00 Z" />
<path fill="#bed7f5" opacity="1.00" d=" M 104.00 216.00 C 106.66 215.99 109.33 215.99 112.00 216.00 C 112.00 218.65 112.00 221.31 112.00 223.97 C 109.33 224.08 106.66 224.08 104.00 223.97 C 104.00 221.31 104.00 218.65 104.00 216.00 Z" />
</g>
<g id="#eff5fdff">
<path fill="#eff5fd" opacity="1.00" d=" M 152.00 160.01 C 154.66 159.99 157.33 159.98 160.00 160.00 C 160.01 162.66 160.00 165.33 159.99 168.00 C 157.32 168.00 154.66 168.00 152.00 168.00 C 152.00 165.33 152.00 162.67 152.00 160.01 Z" />
</g>
<g id="#00397990">
<path fill="#003979" opacity="0.56" d=" M 8.00 176.00 C 10.67 176.00 13.34 175.99 16.01 176.00 C 16.02 178.66 16.01 181.33 15.99 184.00 C 13.33 183.99 10.66 183.99 8.00 184.00 C 7.99 181.33 7.99 178.66 8.00 176.00 Z" />
<path fill="#003979" opacity="0.56" d=" M 16.00 192.00 C 18.65 191.98 21.29 191.99 23.94 192.05 C 24.05 194.69 24.08 197.33 24.02 199.99 C 21.34 199.99 18.67 199.99 16.00 200.00 C 15.99 197.33 15.99 194.66 16.00 192.00 Z" />
<path fill="#003979" opacity="0.56" d=" M 56.02 231.99 C 58.66 231.98 61.30 232.00 63.94 232.05 C 64.05 234.69 64.07 237.34 64.00 240.00 C 61.33 240.00 58.66 240.00 56.00 240.00 C 56.00 237.32 56.01 234.65 56.02 231.99 Z" />
</g>
<g id="#8fbceeff">
<path fill="#8fbcee" opacity="1.00" d=" M 56.00 176.00 C 58.66 176.00 61.32 175.99 63.99 176.00 C 64.01 178.66 64.01 181.32 64.00 183.99 C 61.33 183.99 58.66 183.99 56.00 184.00 C 56.00 181.33 56.00 178.66 56.00 176.00 Z" />
<path fill="#8fbcee" opacity="1.00" d=" M 192.05 176.06 C 194.69 175.94 197.34 175.92 200.00 175.99 C 199.99 178.65 199.99 181.33 200.00 184.00 C 197.32 184.00 194.65 183.99 191.99 183.99 C 191.98 181.34 192.00 178.70 192.05 176.06 Z" />
<path fill="#8fbcee" opacity="1.00" d=" M 72.02 191.99 C 74.66 191.98 77.30 192.00 79.94 192.05 C 80.05 194.69 80.08 197.34 80.01 200.00 C 77.34 199.99 74.67 199.99 72.00 200.00 C 72.00 197.32 72.01 194.65 72.02 191.99 Z" />
<path fill="#8fbcee" opacity="1.00" d=" M 176.00 192.01 C 178.66 191.99 181.32 191.98 183.99 192.00 C 183.99 194.66 183.99 197.33 184.00 200.00 C 181.33 200.00 178.66 199.99 176.00 200.00 C 176.00 197.33 176.00 194.67 176.00 192.01 Z" />
</g>
</svg>
