<?xml version="1.0" encoding="UTF-8" ?>
<!DOCTYPE svg PUBLIC "-//W3C//DTD SVG 1.1//EN" "http://www.w3.org/Graphics/SVG/1.1/DTD/svg11.dtd">
<svg width="32pt" height="32pt" viewBox="0 0 32 32" version="1.1" xmlns="http://www.w3.org/2000/svg">
<g id="#1e1e1ee1">
<path fill="#1e1e1e" opacity="0.88" d=" M 7.15 0.00 L 19.37 0.00 C 22.23 2.72 24.91 5.64 27.71 8.42 C 27.79 14.92 27.78 21.41 27.72 27.91 C 27.34 27.91 26.58 27.91 26.20 27.91 C 26.11 21.82 26.20 15.73 26.12 9.64 C 23.61 9.59 21.10 9.53 18.59 9.41 C 18.32 6.82 18.21 4.22 18.22 1.62 C 14.57 1.12 10.02 3.05 7.15 0.00 M 19.89 2.89 C 19.91 4.55 19.89 6.20 19.89 7.85 C 21.57 7.87 23.26 7.87 24.94 7.90 C 23.30 6.19 21.61 4.53 19.89 2.89 Z" />
<path fill="#1e1e1e" opacity="0.88" d=" M 3.68 7.34 C 4.75 5.59 6.29 4.24 7.89 2.99 C 9.22 4.38 10.50 5.82 11.72 7.32 C 10.88 7.09 9.20 6.63 8.36 6.40 C 8.54 13.48 8.38 20.57 8.47 27.66 C 12.84 27.66 17.21 27.65 21.58 27.74 C 21.22 26.66 20.87 25.57 20.52 24.49 C 22.07 25.59 23.47 26.88 24.77 28.26 C 23.81 29.52 22.83 30.78 21.82 32.00 L 20.37 32.00 C 20.83 31.09 21.28 30.17 21.72 29.25 C 17.11 29.19 12.49 29.56 7.90 29.13 C 7.66 28.83 7.20 28.22 6.97 27.91 C 6.58 20.74 6.87 13.54 6.88 6.36 C 5.82 6.70 4.75 7.02 3.68 7.34 Z" />
</g>
</svg>
