<?xml version="1.0" encoding="UTF-8" ?>
<!DOCTYPE svg PUBLIC "-//W3C//DTD SVG 1.1//EN" "http://www.w3.org/Graphics/SVG/1.1/DTD/svg11.dtd">
<svg width="64pt" height="64pt" viewBox="0 0 64 64" version="1.1" xmlns="http://www.w3.org/2000/svg">
<g id="#e62d27ff">
<path fill="#e62d27" opacity="1.00" d=" M 4.00 12.01 C 6.20 9.43 9.68 8.56 12.95 8.48 C 25.63 7.84 38.35 7.84 51.04 8.48 C 54.30 8.57 57.80 9.42 59.99 12.01 C 63.19 15.75 63.80 20.86 64.00 25.59 L 64.00 38.26 C 63.84 44.25 62.64 51.84 56.43 54.49 C 54.27 55.39 50.00 56.50 49.83 52.94 C 52.02 50.45 56.60 51.48 58.10 48.07 C 60.34 43.40 59.77 38.01 60.01 32.98 C 59.83 27.53 60.38 21.82 58.46 16.60 C 57.35 13.61 54.03 12.51 51.10 12.47 C 39.05 11.83 26.98 11.89 14.93 12.34 C 11.89 12.51 8.17 12.52 6.24 15.32 C 4.20 18.46 4.30 22.40 4.05 26.00 C 3.96 32.19 3.71 38.44 4.67 44.58 C 5.08 47.49 6.86 50.48 9.97 51.01 C 17.54 52.39 25.30 51.40 32.91 52.22 C 34.74 52.97 34.08 56.13 32.06 55.89 C 24.38 55.82 16.57 56.17 8.99 54.83 C 1.75 53.22 0.04 44.75 0.00 38.42 L 0.00 25.09 C 0.22 20.52 0.89 15.59 4.00 12.01 Z" />
<path fill="#e62d27" opacity="1.00" d=" M 22.04 23.93 C 21.88 20.88 25.74 18.90 28.19 20.62 C 32.91 23.28 37.65 25.91 42.25 28.77 C 44.57 30.09 44.59 33.88 42.26 35.21 C 38.55 37.53 34.73 39.73 30.86 41.78 C 29.25 42.85 27.39 40.77 28.16 39.16 C 31.71 36.43 36.08 35.06 39.75 32.51 C 39.77 32.26 39.80 31.77 39.81 31.52 C 35.36 28.96 30.92 26.24 26.07 24.51 C 25.83 29.28 26.28 34.07 25.82 38.83 C 25.13 40.75 21.86 40.16 22.06 38.08 C 21.91 33.37 21.92 28.64 22.04 23.93 Z" />
<path fill="#e62d27" opacity="1.00" d=" M 39.15 52.07 C 41.62 51.11 43.19 54.82 40.80 55.91 C 38.36 56.87 36.84 53.19 39.15 52.07 Z" />
</g>
</svg>
