<?xml version="1.0" encoding="UTF-8" ?>
<!DOCTYPE svg PUBLIC "-//W3C//DTD SVG 1.1//EN" "http://www.w3.org/Graphics/SVG/1.1/DTD/svg11.dtd">
<svg width="16pt" height="16pt" viewBox="0 0 16 16" version="1.1" xmlns="http://www.w3.org/2000/svg">
<g id="#850c0cdd">
<path fill="#850c0c" opacity="0.87" d=" M 0.04 1.73 C 1.96 1.79 3.92 1.56 5.81 2.02 C 8.08 4.03 7.27 7.66 6.18 10.12 C 4.99 10.29 3.80 10.46 2.61 10.62 C 2.60 11.55 2.58 13.42 2.57 14.36 C 1.97 14.36 0.77 14.38 0.17 14.38 C 0.06 10.17 -0.01 5.95 0.04 1.73 M 2.72 4.38 C 2.69 5.57 2.66 6.76 2.65 7.95 C 3.13 7.90 4.08 7.80 4.56 7.75 C 4.54 6.67 4.51 5.59 4.48 4.50 C 4.04 4.47 3.16 4.41 2.72 4.38 Z" />
</g>
<g id="#525050d3">
<path fill="#525050" opacity="0.83" d=" M 8.06 1.71 C 10.49 1.94 13.56 0.97 15.40 3.06 C 16.32 4.91 15.88 7.06 15.98 9.05 C 15.84 10.87 16.21 13.45 14.00 14.15 C 12.08 14.52 10.12 14.37 8.19 14.39 C 8.16 10.16 7.93 5.94 8.06 1.71 M 10.73 4.33 C 10.65 6.82 10.62 9.32 10.62 11.82 C 11.49 11.75 12.36 11.69 13.24 11.64 C 12.97 9.17 14.77 4.09 10.73 4.33 Z" />
</g>
</svg>
