<?xml version="1.0" encoding="UTF-8" ?>
<!DOCTYPE svg PUBLIC "-//W3C//DTD SVG 1.1//EN" "http://www.w3.org/Graphics/SVG/1.1/DTD/svg11.dtd">
<svg width="128pt" height="128pt" viewBox="0 0 128 128" version="1.1" xmlns="http://www.w3.org/2000/svg">
<g id="#1480a4ff">
<path fill="#1480a4" opacity="1.00" d=" M 56.07 1.00 C 72.33 -1.58 89.44 1.88 103.54 10.36 C 114.37 16.96 122.93 27.67 125.85 40.13 C 130.12 56.45 126.06 73.88 118.34 88.53 C 105.46 115.20 74.31 132.59 44.83 126.74 C 32.04 124.39 20.02 117.18 12.61 106.39 C 1.90 91.09 -1.36 71.29 1.76 53.06 C 6.17 26.44 29.44 4.58 56.07 1.00 M 31.01 33.97 C 27.29 37.08 22.27 40.77 23.42 46.31 C 25.50 47.57 28.35 48.22 30.24 46.25 C 36.03 41.46 42.27 36.81 49.65 34.86 C 56.59 33.05 63.85 32.50 70.99 33.04 C 78.49 33.75 86.37 36.87 90.74 43.30 C 95.93 50.49 93.20 61.24 86.38 66.39 C 80.57 70.77 73.38 73.18 66.14 73.58 C 66.40 66.39 66.58 59.19 66.70 51.99 C 66.63 50.32 66.85 48.53 66.13 46.96 C 63.95 44.29 60.01 44.74 56.96 45.13 C 54.30 45.59 50.65 46.68 50.63 49.99 C 50.46 62.04 51.31 74.08 51.49 86.13 C 51.69 88.17 51.23 90.60 52.86 92.18 C 55.38 94.53 59.31 93.34 62.07 92.05 C 66.01 90.25 65.19 85.33 65.64 81.80 C 73.64 81.63 81.88 80.76 89.14 77.15 C 95.63 73.97 101.39 68.78 104.21 62.02 C 108.20 52.60 106.02 40.64 98.29 33.74 C 91.78 27.46 82.91 24.15 74.02 23.21 C 59.03 21.03 43.15 24.88 31.01 33.97 M 53.27 100.44 C 51.60 102.30 52.33 104.92 52.51 107.14 C 54.93 108.79 57.88 110.23 60.83 109.06 C 63.63 108.32 65.55 105.23 64.48 102.44 C 63.23 97.72 56.05 96.45 53.27 100.44 Z" />
</g>
<g id="#ffffffff">
<path fill="#ffffff" opacity="1.00" d=" M 31.01 33.97 C 43.15 24.88 59.03 21.03 74.02 23.21 C 82.91 24.15 91.78 27.46 98.29 33.74 C 106.02 40.64 108.20 52.60 104.21 62.02 C 101.39 68.78 95.63 73.97 89.14 77.15 C 81.88 80.76 73.64 81.63 65.64 81.80 C 65.19 85.33 66.01 90.25 62.07 92.05 C 59.31 93.34 55.38 94.53 52.86 92.18 C 51.23 90.60 51.69 88.17 51.49 86.13 C 51.31 74.08 50.46 62.04 50.63 49.99 C 50.65 46.68 54.30 45.59 56.96 45.13 C 60.01 44.74 63.95 44.29 66.13 46.96 C 66.85 48.53 66.63 50.32 66.70 51.99 C 66.58 59.19 66.40 66.39 66.14 73.58 C 73.38 73.18 80.57 70.77 86.38 66.39 C 93.20 61.24 95.93 50.49 90.74 43.30 C 86.37 36.87 78.49 33.75 70.99 33.04 C 63.85 32.50 56.59 33.05 49.65 34.86 C 42.27 36.81 36.03 41.46 30.24 46.25 C 28.35 48.22 25.50 47.57 23.42 46.31 C 22.27 40.77 27.29 37.08 31.01 33.97 Z" />
<path fill="#ffffff" opacity="1.00" d=" M 53.27 100.44 C 56.05 96.45 63.23 97.72 64.48 102.44 C 65.55 105.23 63.63 108.32 60.83 109.06 C 57.88 110.23 54.93 108.79 52.51 107.14 C 52.33 104.92 51.60 102.30 53.27 100.44 Z" />
</g>
</svg>
