<?xml version="1.0" encoding="UTF-8" ?>
<!DOCTYPE svg PUBLIC "-//W3C//DTD SVG 1.1//EN" "http://www.w3.org/Graphics/SVG/1.1/DTD/svg11.dtd">
<svg width="600pt" height="763pt" viewBox="0 0 600 763" version="1.1" xmlns="http://www.w3.org/2000/svg">
<g id="#000000ff">
<path fill="#000000" opacity="1.00" d=" M 279.56 84.82 C 315.28 81.75 352.35 86.29 384.78 102.23 C 411.94 115.37 434.86 136.32 452.21 160.86 C 473.81 191.43 487.63 226.83 496.75 262.95 C 505.90 299.59 510.50 337.30 511.32 375.03 C 511.85 416.32 507.71 457.78 497.66 497.87 C 489.10 531.68 476.21 564.69 456.87 593.84 C 438.87 621.06 414.59 644.58 385.28 659.31 C 351.22 676.63 311.76 681.50 274.07 676.97 C 242.43 673.23 211.72 661.03 186.67 641.24 C 158.20 618.96 137.16 588.40 122.44 555.64 C 103.98 514.46 94.43 469.74 90.57 424.92 C 86.64 379.63 89.37 333.86 97.62 289.20 C 104.47 253.07 115.30 217.39 132.86 184.95 C 150.04 153.06 174.82 124.51 206.69 106.71 C 228.97 94.12 254.12 87.03 279.56 84.82 M 279.55 91.80 C 245.93 94.71 212.84 107.84 188.06 131.05 C 161.30 155.62 144.20 188.90 133.33 223.16 C 120.72 263.15 115.74 305.16 114.47 346.95 C 113.51 390.01 114.56 433.30 121.69 475.86 C 127.95 513.11 138.30 550.14 156.62 583.37 C 171.30 610.04 191.98 634.05 218.54 649.40 C 250.60 668.32 289.40 673.22 325.90 668.43 C 357.13 664.48 387.12 650.68 409.87 628.84 C 434.70 605.29 451.30 574.40 462.49 542.38 C 476.75 501.25 483.00 457.76 485.15 414.42 C 486.97 367.81 486.24 320.82 478.24 274.75 C 471.83 238.25 461.10 201.97 441.92 170.03 C 426.63 144.48 405.05 122.21 378.36 108.60 C 348.15 92.95 313.12 88.77 279.55 91.80 Z" />
<path fill="#000000" opacity="1.00" d=" M 292.58 141.81 C 302.79 140.12 313.53 141.46 322.78 146.18 C 332.14 151.04 340.08 158.79 344.67 168.33 C 349.17 177.53 350.89 187.78 351.76 197.91 C 352.99 211.11 352.48 224.62 356.36 237.44 C 363.45 262.17 378.10 283.69 391.84 305.12 C 409.55 332.53 426.46 361.17 434.77 393.01 C 438.56 407.37 440.60 422.18 440.95 437.02 C 441.12 444.38 440.99 451.87 439.08 459.04 C 438.17 462.08 437.01 465.34 434.40 467.35 C 432.59 468.82 429.87 468.36 428.26 466.83 C 425.39 464.28 423.97 460.55 422.97 456.95 C 416.82 428.37 404.31 401.71 391.33 375.70 C 390.05 373.01 387.73 369.52 384.28 370.31 C 381.39 371.33 381.86 375.03 382.66 377.35 C 388.81 395.10 393.87 413.23 397.70 431.62 C 402.17 453.41 404.60 475.76 402.89 498.00 C 401.99 509.94 399.64 521.89 394.94 532.95 C 390.32 542.67 383.96 551.69 381.28 562.25 C 380.04 567.19 380.21 573.11 383.97 576.96 C 389.97 583.13 399.26 585.43 404.15 592.79 C 405.83 594.98 403.38 597.51 401.02 597.18 C 395.16 596.78 389.25 595.46 383.39 596.51 C 378.18 597.82 375.93 603.13 373.07 607.11 C 371.32 609.82 367.46 611.21 364.57 609.47 C 359.78 606.58 358.88 599.85 353.62 597.51 C 347.69 595.09 341.12 596.60 334.92 596.58 C 333.51 596.49 330.93 597.13 330.77 595.01 C 330.87 592.06 333.60 590.27 335.49 588.38 C 340.59 583.65 346.82 580.38 352.12 575.92 C 353.12 572.68 350.77 569.58 348.81 567.21 C 343.96 561.43 336.20 559.56 329.00 558.94 C 316.70 558.07 304.42 560.34 292.55 563.40 C 286.60 564.95 280.48 566.12 274.92 568.85 C 273.18 569.76 271.16 570.86 270.71 572.96 C 273.44 578.91 277.36 584.50 278.48 591.07 C 279.06 593.91 276.84 596.76 273.94 596.84 C 266.63 597.02 259.12 594.83 251.94 597.09 C 245.45 599.28 241.29 605.12 235.60 608.59 C 233.22 609.93 229.52 611.09 227.48 608.61 C 225.52 605.28 227.53 600.42 224.25 597.71 C 218.86 594.04 211.94 598.28 206.33 595.74 C 205.57 593.35 208.20 591.92 209.91 590.93 C 219.74 586.16 229.23 580.67 239.23 576.23 C 241.18 575.25 243.58 574.31 244.30 572.02 C 244.65 568.99 242.15 566.70 240.02 564.96 C 235.19 561.18 230.24 557.41 226.46 552.52 C 217.15 540.79 211.87 526.44 208.64 511.96 C 204.34 492.93 203.95 473.28 204.50 453.85 C 205.03 433.74 207.87 413.78 211.63 394.05 C 211.90 391.55 212.95 388.25 210.74 386.33 C 207.96 385.10 205.54 388.12 204.67 390.46 C 196.18 412.10 188.59 434.62 187.73 458.05 C 187.47 462.99 188.36 468.78 184.78 472.79 C 182.16 475.54 178.04 473.51 176.09 470.98 C 170.64 464.32 169.08 455.44 168.24 447.11 C 166.36 419.34 172.70 391.41 184.31 366.24 C 197.26 337.74 216.29 312.69 234.24 287.24 C 243.56 273.77 252.90 260.05 258.78 244.67 C 263.13 233.41 264.67 220.92 262.01 209.07 C 259.73 199.37 254.45 190.57 247.75 183.27 C 238.58 173.17 227.06 165.71 215.99 157.90 C 213.20 155.74 209.97 153.37 209.13 149.74 C 208.51 146.46 211.94 143.97 215.00 144.63 C 223.11 145.41 230.89 148.14 238.91 149.53 C 248.92 151.46 259.36 150.85 269.17 148.10 C 276.97 146.01 284.54 142.93 292.58 141.81 M 301.27 157.09 C 293.38 159.44 287.41 166.77 286.23 174.84 C 285.05 181.63 288.03 189.38 294.44 192.48 C 301.31 195.95 309.83 193.25 314.94 187.91 C 321.22 181.67 323.66 171.03 318.79 163.26 C 315.28 157.44 307.64 155.03 301.27 157.09 M 328.77 183.53 C 327.25 189.08 325.75 194.74 322.72 199.71 C 317.40 209.19 308.33 215.85 298.77 220.63 C 293.13 223.64 287.01 225.93 282.02 230.02 C 279.45 232.29 276.93 235.36 277.06 238.99 C 277.22 241.36 279.97 242.12 281.93 241.52 C 291.59 239.32 301.25 236.96 311.13 235.85 C 318.32 234.84 326.56 233.35 330.99 226.96 C 335.96 219.34 337.12 209.90 337.21 201.00 C 336.98 195.40 336.76 189.30 333.53 184.49 C 332.53 183.01 329.78 180.93 328.77 183.53 M 298.55 255.75 C 293.09 256.59 287.74 258.24 282.88 260.88 C 273.21 266.25 266.12 275.29 261.17 285.02 C 254.04 299.27 249.77 314.74 246.11 330.19 C 240.64 353.23 235.45 376.40 232.62 399.93 C 229.00 427.77 227.97 455.96 230.01 483.96 C 230.86 497.36 231.82 511.16 237.46 523.55 C 240.80 531.03 246.71 537.47 254.26 540.80 C 265.07 545.63 277.58 545.42 288.76 541.98 C 300.80 538.31 313.24 535.10 325.93 535.64 C 333.41 535.96 340.59 538.24 347.90 539.63 C 357.16 541.38 367.44 537.66 372.67 529.65 C 379.44 519.52 380.51 506.88 380.78 495.03 C 380.74 479.21 379.47 463.29 375.66 447.90 C 373.40 438.56 370.62 429.35 368.09 420.07 C 362.54 400.47 359.76 380.20 357.65 359.98 C 356.10 345.33 356.05 330.59 355.29 315.89 C 354.44 303.07 352.78 289.86 346.60 278.39 C 342.10 269.90 334.77 262.97 326.02 259.01 C 317.46 255.18 307.76 254.39 298.55 255.75 Z" />
<path fill="#000000" opacity="1.00" d=" M 304.34 170.39 C 307.35 168.60 311.77 169.27 313.60 172.43 C 317.61 179.42 309.34 189.81 301.68 186.22 C 295.72 182.43 298.61 172.95 304.34 170.39 Z" />
</g>
<g id="#ff6600ff">
<path fill="#ff6600" opacity="1.00" d=" M 279.55 91.80 C 313.12 88.77 348.15 92.95 378.36 108.60 C 405.05 122.21 426.63 144.48 441.92 170.03 C 461.10 201.97 471.83 238.25 478.24 274.75 C 486.24 320.82 486.97 367.81 485.15 414.42 C 483.00 457.76 476.75 501.25 462.49 542.38 C 451.30 574.40 434.70 605.29 409.87 628.84 C 387.12 650.68 357.13 664.48 325.90 668.43 C 289.40 673.22 250.60 668.32 218.54 649.40 C 191.98 634.05 171.30 610.04 156.62 583.37 C 138.30 550.14 127.95 513.11 121.69 475.86 C 114.56 433.30 113.51 390.01 114.47 346.95 C 115.74 305.16 120.72 263.15 133.33 223.16 C 144.20 188.90 161.30 155.62 188.06 131.05 C 212.84 107.84 245.93 94.71 279.55 91.80 M 292.58 141.81 C 284.54 142.93 276.97 146.01 269.17 148.10 C 259.36 150.85 248.92 151.46 238.91 149.53 C 230.89 148.14 223.11 145.41 215.00 144.63 C 211.94 143.97 208.51 146.46 209.13 149.74 C 209.97 153.37 213.20 155.74 215.99 157.90 C 227.06 165.71 238.58 173.17 247.75 183.27 C 254.45 190.57 259.73 199.37 262.01 209.07 C 264.67 220.92 263.13 233.41 258.78 244.67 C 252.90 260.05 243.56 273.77 234.24 287.24 C 216.29 312.69 197.26 337.74 184.31 366.24 C 172.70 391.41 166.36 419.34 168.24 447.11 C 169.08 455.44 170.64 464.32 176.09 470.98 C 178.04 473.51 182.16 475.54 184.78 472.79 C 188.36 468.78 187.47 462.99 187.73 458.05 C 188.59 434.62 196.18 412.10 204.67 390.46 C 205.54 388.12 207.96 385.10 210.74 386.33 C 212.95 388.25 211.90 391.55 211.63 394.05 C 207.87 413.78 205.03 433.74 204.50 453.85 C 203.95 473.28 204.34 492.93 208.64 511.96 C 211.87 526.44 217.15 540.79 226.46 552.52 C 230.24 557.41 235.19 561.18 240.02 564.96 C 242.15 566.70 244.65 568.99 244.30 572.02 C 243.58 574.31 241.18 575.25 239.23 576.23 C 229.23 580.67 219.74 586.16 209.91 590.93 C 208.20 591.92 205.57 593.35 206.33 595.74 C 211.94 598.28 218.86 594.04 224.25 597.71 C 227.53 600.42 225.52 605.28 227.48 608.61 C 229.52 611.09 233.22 609.93 235.60 608.59 C 241.29 605.12 245.45 599.28 251.94 597.09 C 259.12 594.83 266.63 597.02 273.94 596.84 C 276.84 596.76 279.06 593.91 278.48 591.07 C 277.36 584.50 273.44 578.91 270.71 572.96 C 271.16 570.86 273.18 569.76 274.92 568.85 C 280.48 566.12 286.60 564.95 292.55 563.40 C 304.42 560.34 316.70 558.07 329.00 558.94 C 336.20 559.56 343.96 561.43 348.81 567.21 C 350.77 569.58 353.12 572.68 352.12 575.92 C 346.82 580.38 340.59 583.65 335.49 588.38 C 333.60 590.27 330.87 592.06 330.77 595.01 C 330.93 597.13 333.51 596.49 334.92 596.58 C 341.12 596.60 347.69 595.09 353.62 597.51 C 358.88 599.85 359.78 606.58 364.57 609.47 C 367.46 611.21 371.32 609.82 373.07 607.11 C 375.93 603.13 378.18 597.82 383.39 596.51 C 389.25 595.46 395.16 596.78 401.02 597.18 C 403.38 597.51 405.83 594.98 404.15 592.79 C 399.26 585.43 389.97 583.13 383.97 576.96 C 380.21 573.11 380.04 567.19 381.28 562.25 C 383.96 551.69 390.32 542.67 394.94 532.95 C 399.64 521.89 401.99 509.94 402.89 498.00 C 404.60 475.76 402.17 453.41 397.70 431.62 C 393.87 413.23 388.81 395.10 382.66 377.35 C 381.86 375.03 381.39 371.33 384.28 370.31 C 387.73 369.52 390.05 373.01 391.33 375.70 C 404.31 401.71 416.82 428.37 422.97 456.95 C 423.97 460.55 425.39 464.28 428.26 466.83 C 429.87 468.36 432.59 468.82 434.40 467.35 C 437.01 465.34 438.17 462.08 439.08 459.04 C 440.99 451.87 441.12 444.38 440.95 437.02 C 440.60 422.18 438.56 407.37 434.77 393.01 C 426.46 361.17 409.55 332.53 391.84 305.12 C 378.10 283.69 363.45 262.17 356.36 237.44 C 352.48 224.62 352.99 211.11 351.76 197.91 C 350.89 187.78 349.17 177.53 344.67 168.33 C 340.08 158.79 332.14 151.04 322.78 146.18 C 313.53 141.46 302.79 140.12 292.58 141.81 Z" />
</g>
<g id="#ffffffff">
<path fill="#ffffff" opacity="1.00" d=" M 301.27 157.09 C 307.64 155.03 315.28 157.44 318.79 163.26 C 323.66 171.03 321.22 181.67 314.94 187.91 C 309.83 193.25 301.31 195.95 294.44 192.48 C 288.03 189.38 285.05 181.63 286.23 174.84 C 287.41 166.77 293.38 159.44 301.27 157.09 M 304.34 170.39 C 298.61 172.95 295.72 182.43 301.68 186.22 C 309.34 189.81 317.61 179.42 313.60 172.43 C 311.77 169.27 307.35 168.60 304.34 170.39 Z" />
<path fill="#ffffff" opacity="1.00" d=" M 328.77 183.53 C 329.78 180.93 332.53 183.01 333.53 184.49 C 336.76 189.30 336.98 195.40 337.21 201.00 C 337.12 209.90 335.96 219.34 330.99 226.96 C 326.56 233.35 318.32 234.84 311.13 235.85 C 301.25 236.96 291.59 239.32 281.93 241.52 C 279.97 242.12 277.22 241.36 277.06 238.99 C 276.93 235.36 279.45 232.29 282.02 230.02 C 287.01 225.93 293.13 223.64 298.77 220.63 C 308.33 215.85 317.40 209.19 322.72 199.71 C 325.75 194.74 327.25 189.08 328.77 183.53 Z" />
<path fill="#ffffff" opacity="1.00" d=" M 298.55 255.75 C 307.76 254.39 317.46 255.18 326.02 259.01 C 334.77 262.97 342.10 269.90 346.60 278.39 C 352.78 289.86 354.44 303.07 355.29 315.89 C 356.05 330.59 356.10 345.33 357.65 359.98 C 359.76 380.20 362.54 400.47 368.09 420.07 C 370.62 429.35 373.40 438.56 375.66 447.90 C 379.47 463.29 380.74 479.21 380.78 495.03 C 380.51 506.88 379.44 519.52 372.67 529.65 C 367.44 537.66 357.16 541.38 347.90 539.63 C 340.59 538.24 333.41 535.96 325.93 535.64 C 313.24 535.10 300.80 538.31 288.76 541.98 C 277.58 545.42 265.07 545.63 254.26 540.80 C 246.71 537.47 240.80 531.03 237.46 523.55 C 231.82 511.16 230.86 497.36 230.01 483.96 C 227.97 455.96 229.00 427.77 232.62 399.93 C 235.45 376.40 240.64 353.23 246.11 330.19 C 249.77 314.74 254.04 299.27 261.17 285.02 C 266.12 275.29 273.21 266.25 282.88 260.88 C 287.74 258.24 293.09 256.59 298.55 255.75 Z" />
</g>
</svg>
