<?xml version="1.0" encoding="UTF-8" ?>
<!DOCTYPE svg PUBLIC "-//W3C//DTD SVG 1.1//EN" "http://www.w3.org/Graphics/SVG/1.1/DTD/svg11.dtd">
<svg width="216pt" height="190pt" viewBox="0 0 216 190" version="1.1" xmlns="http://www.w3.org/2000/svg">
<g id="#fefefeff">
<path fill="#fefefe" opacity="1.00" d=" M 0.00 0.00 L 216.00 0.00 L 216.00 190.00 L 0.00 190.00 L 0.00 0.00 M 111.19 11.47 C 111.14 14.67 111.14 17.88 111.19 21.08 C 108.17 18.30 103.68 16.80 99.78 18.60 C 93.48 20.78 91.98 29.85 96.46 34.46 C 100.27 38.58 107.48 38.30 111.10 34.04 C 110.79 36.19 111.31 37.66 113.62 37.00 C 113.66 28.52 113.60 20.04 113.65 11.55 C 113.03 11.53 111.80 11.49 111.19 11.47 M 169.45 11.43 C 169.46 19.87 169.32 28.32 169.50 36.76 C 170.04 36.91 171.12 37.20 171.67 37.35 C 171.81 33.87 171.67 30.39 171.79 26.91 C 171.91 23.65 174.34 19.99 177.94 20.23 C 180.17 19.84 182.49 21.57 182.57 23.86 C 182.94 28.08 182.50 32.32 182.75 36.55 C 183.37 36.76 184.62 37.17 185.24 37.38 C 185.13 32.32 185.91 27.10 184.76 22.14 C 183.11 16.44 174.67 16.72 171.68 21.17 C 171.74 18.71 171.78 16.24 171.71 13.77 C 171.85 13.26 172.13 12.24 172.26 11.73 C 171.32 11.63 170.39 11.53 169.45 11.43 M 40.16 11.74 C 40.11 20.14 40.11 28.54 40.19 36.94 C 40.75 36.89 41.88 36.79 42.44 36.73 C 42.65 32.15 41.60 27.31 43.49 22.97 C 41.07 19.75 43.05 15.15 42.39 11.40 C 41.84 11.48 40.72 11.65 40.16 11.74 M 60.19 14.80 C 61.96 17.37 64.81 14.83 63.66 12.35 C 61.82 12.11 59.56 12.30 60.19 14.80 M 68.86 11.53 C 68.92 19.40 68.84 27.27 68.88 35.14 C 68.26 37.11 70.37 36.84 71.52 37.12 C 71.47 28.61 71.69 20.09 71.42 11.59 C 70.78 11.57 69.50 11.54 68.86 11.53 M 139.48 36.72 C 140.04 36.85 141.18 37.11 141.75 37.24 C 141.84 28.65 141.70 20.05 141.82 11.46 C 141.26 11.48 140.14 11.53 139.57 11.55 C 139.23 19.93 139.41 28.34 139.48 36.72 M 189.53 12.65 C 189.24 14.98 191.18 16.72 193.38 15.35 C 193.37 14.40 193.35 13.45 193.33 12.49 C 192.06 12.45 190.79 12.50 189.53 12.65 M 20.54 12.70 C 20.55 20.92 20.42 29.15 20.62 37.37 C 21.28 37.08 22.59 36.49 23.25 36.20 C 23.34 33.23 23.31 30.26 23.02 27.31 C 26.85 26.86 31.18 27.95 34.55 25.59 C 38.47 22.92 38.30 16.00 33.91 13.88 C 29.70 12.01 25.00 12.95 20.54 12.70 M 43.36 19.85 C 43.85 20.46 44.34 21.07 44.83 21.68 C 47.17 19.16 52.63 19.54 53.28 23.44 C 53.87 27.77 53.22 32.16 53.61 36.50 L 55.50 37.39 C 55.71 32.22 56.05 26.97 55.31 21.84 C 53.42 17.00 47.01 17.13 43.36 19.85 M 76.30 19.98 C 76.78 20.56 76.65 22.51 77.88 21.66 C 81.22 20.21 85.97 19.00 88.43 22.58 C 88.46 23.57 88.50 24.56 88.55 25.55 C 83.92 25.45 78.30 25.41 75.46 29.79 C 75.67 31.70 75.14 33.99 76.76 35.43 C 80.01 38.61 85.96 37.98 88.52 34.20 C 88.56 34.88 88.65 36.24 88.70 36.92 C 89.27 36.91 90.41 36.90 90.99 36.89 C 90.57 32.24 90.93 27.57 90.58 22.93 C 90.44 20.89 88.86 19.11 86.95 18.48 C 83.36 16.87 79.59 18.45 76.30 19.98 M 121.39 19.38 C 116.11 22.76 115.84 31.41 120.54 35.39 C 124.32 38.30 130.33 38.12 133.71 34.65 C 135.39 33.71 134.06 32.37 132.82 32.06 C 130.71 34.46 127.18 36.17 124.08 34.67 C 121.33 33.77 120.29 30.89 119.34 28.45 C 124.69 28.28 130.05 28.42 135.41 28.36 C 135.34 25.74 135.08 22.90 133.24 20.86 C 130.42 17.41 125.00 16.92 121.39 19.38 M 149.42 21.45 C 149.44 20.67 149.47 19.10 149.49 18.32 C 148.83 18.36 147.50 18.46 146.84 18.51 C 147.04 27.21 146.53 35.93 147.19 44.61 C 147.76 44.55 148.92 44.43 149.49 44.36 C 149.46 40.89 149.49 37.41 149.44 33.93 C 152.47 37.57 158.02 38.51 162.07 36.06 C 167.11 33.28 168.14 25.78 164.60 21.42 C 160.97 16.70 153.01 16.63 149.42 21.45 M 190.40 18.36 C 190.49 24.70 190.17 31.05 190.59 37.38 C 191.17 37.17 192.32 36.76 192.90 36.55 C 192.51 30.50 192.77 24.44 192.75 18.38 C 192.17 18.38 190.99 18.36 190.40 18.36 M 199.90 18.90 C 198.83 19.24 196.19 20.81 198.38 21.71 C 200.94 21.54 203.28 19.51 206.03 20.34 C 208.77 20.35 209.79 23.23 209.97 25.51 C 206.37 25.65 202.48 25.30 199.24 27.19 C 196.18 28.80 195.56 33.60 198.34 35.77 C 201.68 38.53 207.15 37.80 209.67 34.26 C 209.75 34.85 209.92 36.01 210.00 36.60 L 212.34 37.40 C 211.65 32.30 212.08 27.14 211.60 22.04 C 210.04 17.36 203.76 17.00 199.90 18.90 M 60.75 18.37 C 60.77 24.56 60.76 30.75 60.75 36.94 C 61.40 36.92 62.70 36.87 63.35 36.85 C 63.34 30.70 63.32 24.56 63.37 18.42 C 62.71 18.41 61.41 18.38 60.75 18.37 M 205.85 40.89 C 204.73 43.06 204.34 45.45 204.37 47.88 C 202.99 47.84 201.60 47.80 200.21 47.77 C 200.21 48.60 200.21 49.44 200.21 50.28 C 201.63 50.24 203.05 50.21 204.48 50.18 C 204.48 56.30 204.50 62.41 204.45 68.53 C 205.05 68.56 206.24 68.61 206.84 68.64 C 206.89 62.50 206.85 56.37 206.87 50.23 C 208.51 50.23 210.15 50.23 211.80 50.24 C 211.79 49.63 211.78 48.40 211.77 47.79 C 210.16 47.80 208.55 47.81 206.95 47.80 C 207.17 46.16 207.06 44.43 207.69 42.87 C 208.97 41.40 210.96 41.86 212.69 41.78 C 212.73 41.27 212.81 40.25 212.85 39.73 C 210.42 39.40 208.01 39.65 205.85 40.89 M 20.48 41.56 C 20.58 50.59 20.50 59.61 20.54 68.63 C 21.45 68.58 22.36 68.52 23.28 68.48 C 23.33 60.63 23.00 52.76 23.46 44.92 C 26.88 53.03 30.53 61.03 34.04 69.10 C 34.72 68.41 35.29 67.64 35.77 66.81 C 39.04 59.58 41.94 52.16 45.36 45.00 C 45.59 52.86 45.45 60.73 45.45 68.60 C 46.38 68.58 47.32 68.56 48.25 68.55 C 48.19 59.56 48.23 50.58 48.24 41.59 C 46.81 41.61 45.39 41.63 43.97 41.66 C 41.72 47.34 39.16 52.90 36.73 58.51 C 35.97 60.21 35.38 62.05 34.02 63.39 C 33.82 62.77 33.42 61.51 33.21 60.89 C 30.45 54.49 27.54 48.15 24.91 41.69 C 23.44 41.64 21.96 41.60 20.48 41.56 M 52.66 47.58 C 52.68 52.77 52.38 57.99 52.82 63.17 C 53.36 67.86 58.76 70.38 62.96 68.80 C 65.10 68.32 66.44 66.45 67.97 65.04 C 67.94 65.89 67.89 67.60 67.87 68.45 C 68.55 68.49 69.91 68.58 70.59 68.62 C 70.23 61.68 70.45 54.72 70.36 47.77 C 69.71 47.79 68.40 47.82 67.74 47.83 C 67.52 52.67 68.28 57.63 67.20 62.39 C 65.81 67.11 57.94 68.90 55.69 64.06 C 54.74 58.86 55.37 53.50 55.32 48.24 C 54.44 48.01 53.55 47.79 52.66 47.58 M 74.47 55.26 C 76.82 58.82 81.39 58.63 84.95 60.09 C 87.55 60.93 87.38 64.81 85.17 66.01 C 81.97 67.90 77.72 66.54 75.70 63.54 C 74.96 64.17 74.23 64.81 73.50 65.45 C 76.56 68.65 81.44 70.24 85.66 68.47 C 89.37 67.21 90.81 61.79 88.02 58.98 C 85.20 56.34 80.79 57.32 77.77 55.08 C 76.43 53.47 77.18 50.81 79.17 50.14 C 82.02 48.50 85.03 50.29 86.91 52.50 C 87.44 52.11 88.51 51.34 89.05 50.96 C 87.00 48.61 84.12 46.85 80.87 47.39 C 76.76 47.30 73.68 51.26 74.47 55.26 M 140.83 51.82 C 140.41 50.18 141.83 46.62 138.47 47.61 C 138.59 54.61 138.63 61.61 138.57 68.61 C 139.23 68.57 140.55 68.50 141.21 68.47 C 141.23 64.27 141.01 60.07 141.32 55.88 C 141.63 52.53 144.59 49.56 148.03 49.56 C 150.48 49.24 152.52 51.62 152.63 53.92 C 152.98 58.76 152.72 63.62 152.76 68.47 C 153.42 68.50 154.72 68.58 155.37 68.62 C 155.41 64.38 155.24 60.14 155.44 55.91 C 155.55 52.55 158.44 49.19 162.01 49.57 C 164.80 49.38 166.92 51.96 167.15 54.57 C 167.45 59.28 167.16 64.01 167.26 68.73 C 167.85 68.58 169.04 68.27 169.64 68.12 C 169.57 62.90 169.98 57.62 169.31 52.44 C 167.68 45.80 157.34 45.69 154.76 51.72 C 153.67 49.46 151.71 47.27 148.98 47.38 C 145.56 46.92 142.68 49.18 140.83 51.82 M 186.44 47.59 C 180.83 48.63 177.17 54.63 178.31 60.14 C 178.83 67.17 187.39 71.21 193.50 68.27 C 200.56 65.70 202.07 55.26 196.68 50.34 C 194.06 47.66 190.03 46.87 186.44 47.59 M 96.98 48.86 C 91.15 52.53 90.53 61.94 95.49 66.56 C 100.11 70.76 107.80 69.70 111.74 65.06 C 111.30 64.62 110.42 63.74 109.98 63.29 C 107.90 65.53 105.17 67.34 101.96 66.80 C 97.56 67.04 94.99 62.64 94.40 58.82 C 100.40 58.79 106.41 58.84 112.41 58.79 C 112.24 56.05 112.01 53.07 110.14 50.89 C 107.18 46.89 101.05 46.32 96.98 48.86 M 115.79 47.82 C 116.00 52.89 115.44 58.00 116.10 63.04 C 116.35 66.52 119.52 69.18 122.95 69.19 C 126.39 69.66 129.15 67.33 131.33 65.01 C 131.31 65.91 131.27 67.70 131.25 68.60 C 131.89 68.59 133.16 68.57 133.80 68.56 C 133.31 61.79 133.74 54.99 133.45 48.22 C 132.90 48.12 131.80 47.91 131.25 47.81 C 130.76 52.81 131.96 58.04 130.20 62.87 C 128.59 67.61 120.31 68.64 118.69 63.41 C 118.02 58.24 118.56 52.99 118.39 47.79 C 117.74 47.80 116.44 47.81 115.79 47.82 M 49.11 73.76 C 33.39 110.02 17.59 146.24 1.88 182.50 C 6.27 182.52 10.65 182.57 15.03 182.45 C 19.34 171.86 23.78 161.31 28.15 150.75 C 45.92 150.65 63.69 150.80 81.46 150.67 C 86.32 161.18 90.47 172.01 95.45 182.46 C 99.85 182.66 104.27 182.50 108.67 182.47 C 92.54 146.37 77.09 109.96 61.22 73.75 C 57.19 73.76 53.15 73.77 49.11 73.76 M 176.49 73.75 C 176.51 81.90 176.59 90.06 176.43 98.21 C 170.43 98.15 164.43 98.20 158.44 98.19 C 158.44 101.32 158.44 104.45 158.44 107.59 C 164.47 107.54 170.50 107.59 176.54 107.56 C 176.47 126.35 176.48 145.15 176.53 163.95 C 176.59 171.14 179.60 179.06 186.41 182.36 C 194.61 186.20 204.17 184.64 212.51 182.05 C 212.48 178.79 212.34 175.54 212.22 172.29 C 208.98 173.70 205.56 174.53 202.11 175.20 C 198.07 175.14 193.26 174.96 190.48 171.56 C 187.57 168.10 187.17 163.33 187.18 158.98 C 187.15 141.84 187.22 124.70 187.15 107.56 C 195.36 107.56 203.58 107.53 211.80 107.59 C 211.81 104.46 211.81 101.33 211.83 98.19 C 203.63 98.17 195.44 98.17 187.24 98.20 C 187.11 90.05 187.20 81.91 187.20 73.77 C 183.63 73.75 180.06 73.76 176.49 73.75 M 110.26 97.75 C 111.29 126.00 110.77 154.27 110.83 182.53 C 114.40 182.58 117.98 182.55 121.55 182.57 C 121.54 166.73 121.56 150.89 121.54 135.05 C 121.46 122.85 129.88 110.90 141.84 107.74 C 145.97 107.14 150.17 107.02 154.32 107.52 C 154.29 104.26 154.30 101.01 154.31 97.75 C 148.28 96.91 141.88 96.75 136.23 99.30 C 129.26 101.97 123.78 107.62 120.63 114.31 C 120.55 108.78 120.68 103.25 120.56 97.72 C 117.13 97.77 113.69 97.76 110.26 97.75 Z" />
<path fill="#fefefe" opacity="1.00" d=" M 23.24 15.24 C 26.96 15.57 31.95 14.11 34.39 17.85 C 35.04 20.35 34.43 23.19 31.84 24.25 C 29.03 24.94 26.10 24.57 23.23 24.66 C 23.26 21.52 23.25 18.38 23.24 15.24 Z" />
<path fill="#fefefe" opacity="1.00" d=" M 100.47 20.73 C 105.08 18.71 111.07 21.81 111.31 27.02 C 112.00 32.25 105.99 36.85 101.13 34.75 C 95.04 32.85 94.76 23.31 100.47 20.73 Z" />
<path fill="#fefefe" opacity="1.00" d=" M 119.35 26.11 C 120.44 23.29 122.51 20.02 125.97 20.21 C 129.59 19.65 132.51 22.72 132.95 26.12 C 128.41 26.14 123.88 26.16 119.35 26.11 Z" />
<path fill="#fefefe" opacity="1.00" d=" M 154.42 20.49 C 157.88 19.45 162.20 20.75 163.51 24.38 C 165.44 28.30 163.36 33.72 159.05 34.91 C 154.26 36.59 148.48 32.04 149.29 26.93 C 149.34 23.98 151.76 21.43 154.42 20.49 Z" />
<path fill="#fefefe" opacity="1.00" d=" M 77.41 31.92 C 79.12 27.28 84.62 27.56 88.69 27.56 C 88.78 30.38 87.98 33.76 84.93 34.73 C 82.09 36.15 78.72 34.74 77.41 31.92 Z" />
<path fill="#fefefe" opacity="1.00" d=" M 199.74 29.88 C 202.38 27.18 206.52 27.69 209.96 27.60 C 209.71 30.20 209.38 33.44 206.59 34.57 C 204.39 35.82 201.92 35.04 199.76 34.15 C 199.49 32.76 198.78 31.18 199.74 29.88 Z" />
<path fill="#fefefe" opacity="1.00" d=" M 94.28 56.50 C 95.57 53.15 98.00 49.53 102.02 49.56 C 106.08 49.27 109.45 52.63 110.00 56.50 C 104.76 56.62 99.52 56.60 94.28 56.50 Z" />
<path fill="#fefefe" opacity="1.00" d=" M 186.10 50.06 C 192.62 47.31 199.43 54.57 197.03 60.99 C 195.59 67.11 186.73 68.98 182.81 64.22 C 178.74 60.00 180.39 51.89 186.10 50.06 Z" />
<path fill="#fefefe" opacity="1.00" d=" M 54.92 85.79 C 62.51 104.01 69.80 122.35 77.58 140.47 C 62.48 140.63 47.36 140.64 32.26 140.49 C 40.02 122.34 47.32 104.01 54.92 85.79 Z" />
</g>
<g id="#010101ff">
<path fill="#010101" opacity="1.00" d=" M 111.19 11.47 C 111.80 11.49 113.03 11.53 113.65 11.55 C 113.60 20.04 113.66 28.52 113.62 37.00 C 111.31 37.66 110.79 36.19 111.10 34.04 C 107.48 38.30 100.27 38.58 96.46 34.46 C 91.98 29.85 93.48 20.78 99.78 18.60 C 103.68 16.80 108.17 18.30 111.19 21.08 C 111.14 17.88 111.14 14.67 111.19 11.47 M 100.47 20.73 C 94.76 23.31 95.04 32.85 101.13 34.75 C 105.99 36.85 112.00 32.25 111.31 27.02 C 111.07 21.81 105.08 18.71 100.47 20.73 Z" />
<path fill="#010101" opacity="1.00" d=" M 169.45 11.43 C 170.39 11.53 171.32 11.63 172.26 11.73 C 172.13 12.24 171.85 13.26 171.71 13.77 C 171.78 16.24 171.74 18.71 171.68 21.17 C 174.67 16.72 183.11 16.44 184.76 22.14 C 185.91 27.10 185.13 32.32 185.24 37.38 C 184.62 37.17 183.37 36.76 182.75 36.55 C 182.50 32.32 182.94 28.08 182.57 23.86 C 182.49 21.57 180.17 19.84 177.94 20.23 C 174.34 19.99 171.91 23.65 171.79 26.91 C 171.67 30.39 171.81 33.87 171.67 37.35 C 171.12 37.20 170.04 36.91 169.50 36.76 C 169.32 28.32 169.46 19.87 169.45 11.43 Z" />
<path fill="#010101" opacity="1.00" d=" M 40.16 11.74 C 40.72 11.65 41.84 11.48 42.39 11.40 C 43.05 15.15 41.07 19.75 43.49 22.97 C 41.60 27.31 42.65 32.15 42.44 36.73 C 41.88 36.79 40.75 36.89 40.19 36.94 C 40.11 28.54 40.11 20.14 40.16 11.74 Z" />
<path fill="#010101" opacity="1.00" d=" M 60.19 14.80 C 59.56 12.30 61.82 12.11 63.66 12.35 C 64.81 14.83 61.96 17.37 60.19 14.80 Z" />
<path fill="#010101" opacity="1.00" d=" M 68.86 11.53 C 69.50 11.54 70.78 11.57 71.42 11.59 C 71.69 20.09 71.47 28.61 71.52 37.12 C 70.37 36.84 68.26 37.11 68.88 35.14 C 68.84 27.27 68.92 19.40 68.86 11.53 Z" />
<path fill="#010101" opacity="1.00" d=" M 139.48 36.72 C 139.41 28.34 139.23 19.93 139.57 11.55 C 140.14 11.53 141.26 11.48 141.82 11.46 C 141.70 20.05 141.84 28.65 141.75 37.24 C 141.18 37.11 140.04 36.85 139.48 36.72 Z" />
<path fill="#010101" opacity="1.00" d=" M 189.53 12.65 C 190.79 12.50 192.06 12.45 193.33 12.49 C 193.35 13.45 193.37 14.40 193.38 15.35 C 191.18 16.72 189.24 14.98 189.53 12.65 Z" />
<path fill="#010101" opacity="1.00" d=" M 20.54 12.70 C 25.00 12.95 29.70 12.01 33.91 13.88 C 38.30 16.00 38.47 22.92 34.55 25.59 C 31.18 27.95 26.85 26.86 23.02 27.31 C 23.31 30.26 23.34 33.23 23.25 36.20 C 22.59 36.49 21.28 37.08 20.62 37.37 C 20.42 29.15 20.55 20.92 20.54 12.70 M 23.24 15.24 C 23.25 18.38 23.26 21.52 23.23 24.66 C 26.10 24.57 29.03 24.94 31.84 24.25 C 34.43 23.19 35.04 20.35 34.39 17.85 C 31.95 14.11 26.96 15.57 23.24 15.24 Z" />
<path fill="#010101" opacity="1.00" d=" M 43.36 19.85 C 47.01 17.13 53.42 17.00 55.31 21.84 C 56.05 26.97 55.71 32.22 55.50 37.39 L 53.61 36.50 C 53.22 32.16 53.87 27.77 53.28 23.44 C 52.63 19.54 47.17 19.16 44.83 21.68 C 44.34 21.07 43.85 20.46 43.36 19.85 Z" />
<path fill="#010101" opacity="1.00" d=" M 76.30 19.98 C 79.59 18.45 83.36 16.87 86.95 18.48 C 88.86 19.11 90.44 20.89 90.58 22.93 C 90.93 27.57 90.57 32.24 90.99 36.89 C 90.41 36.90 89.27 36.91 88.70 36.92 C 88.65 36.24 88.56 34.88 88.52 34.20 C 85.96 37.98 80.01 38.61 76.76 35.43 C 75.14 33.99 75.67 31.70 75.46 29.79 C 78.30 25.41 83.92 25.45 88.55 25.55 C 88.50 24.56 88.46 23.57 88.43 22.58 C 85.97 19.00 81.22 20.21 77.88 21.66 C 76.65 22.51 76.78 20.56 76.30 19.98 M 77.41 31.92 C 78.72 34.74 82.09 36.15 84.93 34.73 C 87.98 33.76 88.78 30.38 88.69 27.56 C 84.62 27.56 79.12 27.28 77.41 31.92 Z" />
<path fill="#010101" opacity="1.00" d=" M 121.39 19.38 C 125.00 16.92 130.42 17.41 133.24 20.86 C 135.08 22.90 135.34 25.74 135.41 28.36 C 130.05 28.42 124.69 28.28 119.34 28.45 C 120.29 30.89 121.33 33.77 124.08 34.67 C 127.18 36.17 130.71 34.46 132.82 32.06 C 134.06 32.37 135.39 33.71 133.71 34.65 C 130.33 38.12 124.32 38.30 120.54 35.39 C 115.84 31.41 116.11 22.76 121.39 19.38 M 119.35 26.11 C 123.88 26.16 128.41 26.14 132.95 26.12 C 132.51 22.72 129.59 19.65 125.97 20.21 C 122.51 20.02 120.44 23.29 119.35 26.11 Z" />
<path fill="#010101" opacity="1.00" d=" M 149.42 21.45 C 153.01 16.63 160.97 16.70 164.60 21.42 C 168.14 25.78 167.11 33.28 162.07 36.06 C 158.02 38.51 152.47 37.57 149.44 33.93 C 149.49 37.41 149.46 40.89 149.49 44.36 C 148.92 44.43 147.76 44.55 147.19 44.61 C 146.53 35.93 147.04 27.21 146.84 18.51 C 147.50 18.46 148.83 18.36 149.49 18.32 C 149.47 19.10 149.44 20.67 149.42 21.45 M 154.42 20.49 C 151.76 21.43 149.34 23.98 149.29 26.93 C 148.48 32.04 154.26 36.59 159.05 34.91 C 163.36 33.72 165.44 28.30 163.51 24.38 C 162.20 20.75 157.88 19.45 154.42 20.49 Z" />
<path fill="#010101" opacity="1.00" d=" M 190.40 18.36 C 190.99 18.36 192.17 18.38 192.75 18.38 C 192.77 24.44 192.51 30.50 192.90 36.55 C 192.32 36.76 191.17 37.17 190.59 37.38 C 190.17 31.05 190.49 24.70 190.40 18.36 Z" />
<path fill="#010101" opacity="1.00" d=" M 199.90 18.90 C 203.76 17.00 210.04 17.36 211.60 22.04 C 212.08 27.14 211.65 32.30 212.34 37.40 L 210.00 36.60 C 209.92 36.01 209.75 34.85 209.67 34.26 C 207.15 37.80 201.68 38.53 198.34 35.77 C 195.56 33.60 196.18 28.80 199.24 27.19 C 202.48 25.30 206.37 25.65 209.97 25.51 C 209.79 23.23 208.77 20.35 206.03 20.34 C 203.28 19.51 200.94 21.54 198.38 21.71 C 196.19 20.81 198.83 19.24 199.90 18.90 M 199.74 29.88 C 198.78 31.18 199.49 32.76 199.76 34.15 C 201.92 35.04 204.39 35.82 206.59 34.57 C 209.38 33.44 209.71 30.20 209.96 27.60 C 206.52 27.69 202.38 27.18 199.74 29.88 Z" />
<path fill="#010101" opacity="1.00" d=" M 60.75 18.37 C 61.41 18.38 62.71 18.41 63.37 18.42 C 63.32 24.56 63.34 30.70 63.35 36.85 C 62.70 36.87 61.40 36.92 60.75 36.94 C 60.76 30.75 60.77 24.56 60.75 18.37 Z" />
<path fill="#010101" opacity="1.00" d=" M 205.85 40.89 C 208.01 39.65 210.42 39.40 212.85 39.73 C 212.81 40.25 212.73 41.27 212.69 41.78 C 210.96 41.86 208.97 41.40 207.69 42.87 C 207.06 44.43 207.17 46.16 206.95 47.80 C 208.55 47.81 210.16 47.80 211.77 47.79 C 211.78 48.40 211.79 49.63 211.80 50.24 C 210.15 50.23 208.51 50.23 206.87 50.23 C 206.85 56.37 206.89 62.50 206.84 68.64 C 206.24 68.61 205.05 68.56 204.45 68.53 C 204.50 62.41 204.48 56.30 204.48 50.18 C 203.05 50.21 201.63 50.24 200.21 50.28 C 200.21 49.44 200.21 48.60 200.21 47.77 C 201.60 47.80 202.99 47.84 204.37 47.88 C 204.34 45.45 204.73 43.06 205.85 40.89 Z" />
<path fill="#010101" opacity="1.00" d=" M 20.48 41.56 C 21.96 41.60 23.44 41.64 24.91 41.69 C 27.54 48.15 30.45 54.49 33.21 60.89 C 33.42 61.51 33.82 62.77 34.02 63.39 C 35.38 62.05 35.97 60.21 36.73 58.51 C 39.16 52.90 41.72 47.34 43.97 41.66 C 45.39 41.63 46.81 41.61 48.24 41.59 C 48.23 50.58 48.19 59.56 48.25 68.55 C 47.32 68.56 46.38 68.58 45.45 68.60 C 45.45 60.73 45.59 52.86 45.36 45.00 C 41.94 52.16 39.04 59.58 35.77 66.81 C 35.29 67.64 34.72 68.41 34.04 69.10 C 30.53 61.03 26.88 53.03 23.46 44.92 C 23.00 52.76 23.33 60.63 23.28 68.48 C 22.36 68.52 21.45 68.58 20.54 68.63 C 20.50 59.61 20.58 50.59 20.48 41.56 Z" />
<path fill="#010101" opacity="1.00" d=" M 52.66 47.58 C 53.55 47.79 54.44 48.01 55.32 48.24 C 55.37 53.50 54.74 58.86 55.69 64.06 C 57.94 68.90 65.81 67.11 67.20 62.39 C 68.28 57.63 67.52 52.67 67.74 47.83 C 68.40 47.82 69.71 47.79 70.36 47.77 C 70.45 54.72 70.23 61.68 70.59 68.62 C 69.91 68.58 68.55 68.49 67.87 68.45 C 67.89 67.60 67.94 65.89 67.97 65.04 C 66.44 66.45 65.10 68.32 62.96 68.80 C 58.76 70.38 53.36 67.86 52.82 63.17 C 52.38 57.99 52.68 52.77 52.66 47.58 Z" />
<path fill="#010101" opacity="1.00" d=" M 74.47 55.26 C 73.68 51.26 76.76 47.30 80.87 47.39 C 84.12 46.85 87.00 48.61 89.05 50.96 C 88.51 51.34 87.44 52.11 86.91 52.50 C 85.03 50.29 82.02 48.50 79.17 50.14 C 77.18 50.81 76.43 53.47 77.77 55.08 C 80.79 57.32 85.20 56.34 88.02 58.98 C 90.81 61.79 89.37 67.21 85.66 68.47 C 81.44 70.24 76.56 68.65 73.50 65.45 C 74.23 64.81 74.96 64.17 75.70 63.54 C 77.72 66.54 81.97 67.90 85.17 66.01 C 87.38 64.81 87.55 60.93 84.95 60.09 C 81.39 58.63 76.82 58.82 74.47 55.26 Z" />
<path fill="#010101" opacity="1.00" d=" M 140.83 51.82 C 142.68 49.18 145.56 46.92 148.98 47.38 C 151.71 47.27 153.67 49.46 154.76 51.72 C 157.34 45.69 167.68 45.80 169.31 52.44 C 169.98 57.62 169.57 62.90 169.64 68.12 C 169.04 68.27 167.85 68.58 167.26 68.73 C 167.16 64.01 167.45 59.28 167.15 54.57 C 166.92 51.96 164.80 49.38 162.01 49.57 C 158.44 49.19 155.55 52.55 155.44 55.91 C 155.24 60.14 155.41 64.38 155.37 68.62 C 154.72 68.58 153.42 68.50 152.76 68.47 C 152.72 63.62 152.98 58.76 152.63 53.92 C 152.52 51.62 150.48 49.24 148.03 49.56 C 144.59 49.56 141.63 52.53 141.32 55.88 C 141.01 60.07 141.23 64.27 141.21 68.47 C 140.55 68.50 139.23 68.57 138.57 68.61 C 138.63 61.61 138.59 54.61 138.47 47.61 C 141.83 46.62 140.41 50.18 140.83 51.82 Z" />
<path fill="#010101" opacity="1.00" d=" M 186.44 47.59 C 190.03 46.87 194.06 47.66 196.68 50.34 C 202.07 55.26 200.56 65.70 193.50 68.27 C 187.39 71.21 178.83 67.17 178.31 60.14 C 177.17 54.63 180.83 48.63 186.44 47.59 M 186.10 50.06 C 180.39 51.89 178.74 60.00 182.81 64.22 C 186.73 68.98 195.59 67.11 197.03 60.99 C 199.43 54.57 192.62 47.31 186.10 50.06 Z" />
<path fill="#010101" opacity="1.00" d=" M 96.98 48.86 C 101.05 46.32 107.18 46.89 110.14 50.89 C 112.01 53.07 112.24 56.05 112.41 58.79 C 106.41 58.84 100.40 58.79 94.40 58.82 C 94.99 62.64 97.56 67.04 101.96 66.80 C 105.17 67.34 107.90 65.53 109.98 63.29 C 110.42 63.74 111.30 64.62 111.74 65.06 C 107.80 69.70 100.11 70.76 95.49 66.56 C 90.53 61.94 91.15 52.53 96.98 48.86 M 94.28 56.50 C 99.52 56.60 104.76 56.62 110.00 56.50 C 109.45 52.63 106.08 49.27 102.02 49.56 C 98.00 49.53 95.57 53.15 94.28 56.50 Z" />
<path fill="#010101" opacity="1.00" d=" M 115.79 47.82 C 116.44 47.81 117.74 47.80 118.39 47.79 C 118.56 52.99 118.02 58.24 118.69 63.41 C 120.31 68.64 128.59 67.61 130.20 62.87 C 131.96 58.04 130.76 52.81 131.25 47.81 C 131.80 47.91 132.90 48.12 133.45 48.22 C 133.74 54.99 133.31 61.79 133.80 68.56 C 133.16 68.57 131.89 68.59 131.25 68.60 C 131.27 67.70 131.31 65.91 131.33 65.01 C 129.15 67.33 126.39 69.66 122.95 69.19 C 119.52 69.18 116.35 66.52 116.10 63.04 C 115.44 58.00 116.00 52.89 115.79 47.82 Z" />
<path fill="#010101" opacity="1.00" d=" M 49.11 73.76 C 53.15 73.77 57.19 73.76 61.22 73.75 C 77.09 109.96 92.54 146.37 108.67 182.47 C 104.27 182.50 99.85 182.66 95.45 182.46 C 90.47 172.01 86.32 161.18 81.46 150.67 C 63.69 150.80 45.92 150.65 28.15 150.75 C 23.78 161.31 19.34 171.86 15.03 182.45 C 10.65 182.57 6.27 182.52 1.88 182.50 C 17.59 146.24 33.39 110.02 49.11 73.76 M 54.92 85.79 C 47.32 104.01 40.02 122.34 32.26 140.49 C 47.36 140.64 62.48 140.63 77.58 140.47 C 69.80 122.35 62.51 104.01 54.92 85.79 Z" />
<path fill="#010101" opacity="1.00" d=" M 176.49 73.75 C 180.06 73.76 183.63 73.75 187.20 73.77 C 187.20 81.91 187.11 90.05 187.24 98.20 C 195.44 98.17 203.63 98.17 211.83 98.19 C 211.81 101.33 211.81 104.46 211.80 107.59 C 203.58 107.53 195.36 107.56 187.15 107.56 C 187.22 124.70 187.15 141.84 187.18 158.98 C 187.17 163.33 187.57 168.10 190.48 171.56 C 193.26 174.96 198.07 175.14 202.11 175.20 C 205.56 174.53 208.98 173.70 212.22 172.29 C 212.34 175.54 212.48 178.79 212.51 182.05 C 204.17 184.64 194.61 186.20 186.41 182.36 C 179.60 179.06 176.59 171.14 176.53 163.95 C 176.48 145.15 176.47 126.35 176.54 107.56 C 170.50 107.59 164.47 107.54 158.44 107.59 C 158.44 104.45 158.44 101.32 158.44 98.19 C 164.43 98.20 170.43 98.15 176.43 98.21 C 176.59 90.06 176.51 81.90 176.49 73.75 Z" />
<path fill="#010101" opacity="1.00" d=" M 110.26 97.75 C 113.69 97.76 117.13 97.77 120.56 97.72 C 120.68 103.25 120.55 108.78 120.63 114.31 C 123.78 107.62 129.26 101.97 136.23 99.30 C 141.88 96.75 148.28 96.91 154.31 97.75 C 154.30 101.01 154.29 104.26 154.32 107.52 C 150.17 107.02 145.97 107.14 141.84 107.74 C 129.88 110.90 121.46 122.85 121.54 135.05 C 121.56 150.89 121.54 166.73 121.55 182.57 C 117.98 182.55 114.40 182.58 110.83 182.53 C 110.77 154.27 111.29 126.00 110.26 97.75 Z" />
</g>
</svg>
