<?xml version="1.0" encoding="UTF-8" ?>
<!DOCTYPE svg PUBLIC "-//W3C//DTD SVG 1.1//EN" "http://www.w3.org/Graphics/SVG/1.1/DTD/svg11.dtd">
<svg width="16pt" height="16pt" viewBox="0 0 16 16" version="1.1" xmlns="http://www.w3.org/2000/svg">
<g id="#28517495">
<path fill="#285174" opacity="0.58" d=" M 0.00 0.00 L 0.08 0.00 L 0.01 0.01 L 0.00 0.11 L 0.00 0.00 Z" />
</g>
<g id="#478cc6ff">
<path fill="#478cc6" opacity="1.00" d=" M 0.08 0.00 L 15.90 0.00 L 15.99 0.01 L 16.00 0.08 L 16.00 15.91 L 15.99 15.99 L 15.92 16.00 L 0.10 16.00 L 0.01 15.99 L 0.00 15.92 L 0.00 0.11 L 0.01 0.01 L 0.08 0.00 M 4.69 3.56 C 2.24 4.70 2.71 7.99 5.32 8.61 L 4.72 6.49 C 5.03 6.27 5.65 5.83 5.96 5.61 L 5.49 4.86 C 6.79 4.70 8.06 4.43 9.31 4.05 L 8.72 4.82 C 4.55 5.40 6.39 11.09 4.72 13.87 C 5.40 13.39 6.78 12.44 7.47 11.97 C 8.78 13.34 11.27 10.79 9.94 9.50 C 11.94 8.97 13.68 7.19 13.00 4.98 C 11.47 2.02 7.30 2.57 4.69 3.56 Z" />
</g>
<g id="#28517293">
<path fill="#285172" opacity="0.58" d=" M 15.90 0.00 L 16.00 0.00 L 16.00 0.08 L 15.99 0.01 L 15.90 0.00 Z" />
<path fill="#285172" opacity="0.58" d=" M 0.00 15.92 L 0.01 15.99 L 0.10 16.00 L 0.00 16.00 L 0.00 15.92 Z" />
</g>
<g id="#d6e6f2ff">
<path fill="#d6e6f2" opacity="1.00" d=" M 4.69 3.56 C 7.30 2.57 11.47 2.02 13.00 4.98 C 13.68 7.19 11.94 8.97 9.94 9.50 C 9.50 9.71 8.63 10.12 8.19 10.32 C 8.01 10.73 7.65 11.56 7.47 11.97 C 6.78 12.44 5.40 13.39 4.72 13.87 C 6.39 11.09 4.55 5.40 8.72 4.82 C 8.77 5.63 8.89 7.26 8.94 8.08 C 11.01 7.97 11.37 5.11 10.03 3.90 L 9.31 4.05 C 8.06 4.43 6.79 4.70 5.49 4.86 L 4.69 4.96 C 4.70 5.35 4.71 6.11 4.72 6.49 L 5.32 8.61 C 2.71 7.99 2.24 4.70 4.69 3.56 Z" />
</g>
<g id="#4689c5ff">
<path fill="#4689c5" opacity="1.00" d=" M 9.31 4.05 L 10.03 3.90 C 11.37 5.11 11.01 7.97 8.94 8.08 C 8.89 7.26 8.77 5.63 8.72 4.82 L 9.31 4.05 Z" />
</g>
<g id="#0a5fb0ff">
<path fill="#0a5fb0" opacity="1.00" d=" M 4.69 4.96 L 5.49 4.86 L 5.96 5.61 C 5.65 5.83 5.03 6.27 4.72 6.49 C 4.71 6.11 4.70 5.35 4.69 4.96 Z" />
</g>
<g id="#2376bbff">
<path fill="#2376bb" opacity="1.00" d=" M 8.19 10.32 C 8.63 10.12 9.50 9.71 9.94 9.50 C 11.27 10.79 8.78 13.34 7.47 11.97 C 7.65 11.56 8.01 10.73 8.19 10.32 Z" />
</g>
<g id="#27507191">
<path fill="#275071" opacity="0.57" d=" M 15.99 15.99 L 16.00 15.91 L 16.00 16.00 L 15.92 16.00 L 15.99 15.99 Z" />
</g>
</svg>
