<?xml version="1.0" encoding="UTF-8" ?>
<!DOCTYPE svg PUBLIC "-//W3C//DTD SVG 1.1//EN" "http://www.w3.org/Graphics/SVG/1.1/DTD/svg11.dtd">
<svg width="800pt" height="800pt" viewBox="0 0 800 800" version="1.1" xmlns="http://www.w3.org/2000/svg">
<g id="#ffffffff">
<path fill="#ffffff" opacity="1.00" d=" M 0.00 0.00 L 800.00 0.00 L 800.00 800.00 L 0.00 800.00 L 0.00 0.00 M 97.84 89.13 C 117.18 106.14 137.06 122.56 156.58 139.36 C 202.93 178.82 249.34 218.21 295.61 257.77 C 274.40 277.85 253.26 298.02 232.08 318.15 C 193.69 354.83 155.16 391.37 116.75 428.05 C 116.73 522.29 116.78 616.53 116.72 710.77 C 156.68 669.17 196.62 627.54 236.77 586.12 L 236.25 586.72 C 247.20 590.29 257.96 594.41 268.86 598.15 C 301.31 609.58 333.80 620.90 366.20 632.47 C 409.10 616.74 451.90 600.73 494.76 584.87 C 533.61 570.39 572.57 556.19 611.34 541.49 C 625.58 509.65 639.97 477.88 654.29 446.08 C 670.53 409.71 687.25 373.53 703.22 337.05 C 654.46 357.65 605.83 378.60 557.14 399.40 C 557.01 366.93 557.38 334.44 556.95 301.97 C 548.86 294.11 540.52 286.52 532.43 278.66 C 571.91 237.80 611.21 196.77 650.69 155.92 C 568.04 155.90 485.40 155.93 402.76 155.90 C 379.41 134.04 356.33 111.88 333.07 89.92 C 331.72 88.58 329.64 89.13 327.95 88.95 C 251.25 89.13 174.54 88.75 97.84 89.13 Z" />
<path fill="#ffffff" opacity="1.00" d=" M 436.85 378.00 C 452.83 391.41 468.72 404.92 484.55 418.50 C 487.51 421.12 491.07 423.26 493.05 426.81 C 476.85 433.59 460.70 440.48 444.53 447.34 C 427.12 454.86 409.64 462.23 392.24 469.78 C 367.53 480.25 342.87 490.86 318.19 501.40 C 344.57 473.90 371.03 446.47 397.46 419.01 C 410.61 405.37 423.71 391.66 436.85 378.00 Z" />
</g>
<g id="#dddaf7ff">
<path fill="#dddaf7" opacity="1.00" d=" M 97.84 89.13 C 174.54 88.75 251.25 89.13 327.95 88.95 C 329.64 89.13 331.72 88.58 333.07 89.92 C 356.33 111.88 379.41 134.04 402.76 155.90 C 445.98 196.82 489.23 237.71 532.43 278.66 C 540.52 286.52 548.86 294.11 556.95 301.97 C 557.38 334.44 557.01 366.93 557.14 399.40 C 557.00 426.33 557.10 453.26 557.09 480.19 C 536.02 462.36 515.07 444.40 493.94 426.65 C 493.72 426.69 493.27 426.77 493.05 426.81 C 491.07 423.26 487.51 421.12 484.55 418.50 C 468.72 404.92 452.83 391.41 436.85 378.00 C 389.72 337.98 342.71 297.82 295.61 257.77 C 249.34 218.21 202.93 178.82 156.58 139.36 C 137.06 122.56 117.18 106.14 97.84 89.13 Z" />
</g>
<g id="#443bf6ff">
<path fill="#443bf6" opacity="1.00" d=" M 402.76 155.90 C 485.40 155.93 568.04 155.90 650.69 155.92 C 611.21 196.77 571.91 237.80 532.43 278.66 C 489.23 237.71 445.98 196.82 402.76 155.90 Z" />
<path fill="#443bf6" opacity="1.00" d=" M 116.75 428.05 C 155.16 391.37 193.69 354.83 232.08 318.15 C 287.22 351.75 342.37 385.33 397.46 419.01 C 371.03 446.47 344.57 473.90 318.19 501.40 C 291.01 529.60 263.76 557.74 236.77 586.12 C 196.62 627.54 156.68 669.17 116.72 710.77 C 116.78 616.53 116.73 522.29 116.75 428.05 Z" />
</g>
<g id="#2a2697ff">
<path fill="#2a2697" opacity="1.00" d=" M 295.61 257.77 C 342.71 297.82 389.72 337.98 436.85 378.00 C 423.71 391.66 410.61 405.37 397.46 419.01 C 342.37 385.33 287.22 351.75 232.08 318.15 C 253.26 298.02 274.40 277.85 295.61 257.77 Z" />
</g>
<g id="#ff5886ff">
<path fill="#ff5886" opacity="1.00" d=" M 557.14 399.40 C 605.83 378.60 654.46 357.65 703.22 337.05 C 687.25 373.53 670.53 409.71 654.29 446.08 C 639.97 477.88 625.58 509.65 611.34 541.49 C 572.57 556.19 533.61 570.39 494.76 584.87 C 451.90 600.73 409.10 616.74 366.20 632.47 C 333.80 620.90 301.31 609.58 268.86 598.15 C 309.90 555.29 351.22 512.67 392.24 469.78 C 409.64 462.23 427.12 454.86 444.53 447.34 C 481.88 470.43 519.49 493.11 557.01 515.93 C 557.12 504.02 556.99 492.10 557.09 480.19 C 557.10 453.26 557.00 426.33 557.14 399.40 Z" />
</g>
<g id="#a03755ff">
<path fill="#a03755" opacity="1.00" d=" M 444.53 447.34 C 460.70 440.48 476.85 433.59 493.05 426.81 C 493.27 426.77 493.72 426.69 493.94 426.65 C 515.07 444.40 536.02 462.36 557.09 480.19 C 556.99 492.10 557.12 504.02 557.01 515.93 C 519.49 493.11 481.88 470.43 444.53 447.34 Z" />
<path fill="#a03755" opacity="1.00" d=" M 318.19 501.40 C 342.87 490.86 367.53 480.25 392.24 469.78 C 351.22 512.67 309.90 555.29 268.86 598.15 C 257.96 594.41 247.20 590.29 236.25 586.72 L 236.77 586.12 C 263.76 557.74 291.01 529.60 318.19 501.40 Z" />
</g>
</svg>
