<?xml version="1.0" encoding="UTF-8" ?>
<!DOCTYPE svg PUBLIC "-//W3C//DTD SVG 1.1//EN" "http://www.w3.org/Graphics/SVG/1.1/DTD/svg11.dtd">
<svg width="192pt" height="192pt" viewBox="0 0 192 192" version="1.1" xmlns="http://www.w3.org/2000/svg">
<g id="#0096faff">
<path fill="#0096fa" opacity="1.00" d=" M 0.00 0.00 L 192.00 0.00 L 192.00 192.00 L 0.00 192.00 L 0.00 0.00 M 83.78 37.85 C 61.52 42.63 41.23 54.86 25.48 71.14 C 28.38 75.89 31.43 80.54 34.28 85.32 C 38.13 84.33 37.18 80.03 36.60 77.12 C 40.25 70.71 45.59 65.45 51.41 60.99 C 51.34 91.80 51.40 122.60 51.38 153.40 C 48.89 154.34 46.05 155.13 44.86 157.78 C 45.18 158.24 45.80 159.17 46.12 159.64 C 54.63 159.60 63.15 159.63 71.67 159.62 C 73.67 155.76 68.74 154.50 66.11 153.35 C 66.07 146.16 66.11 138.97 66.09 131.77 C 81.78 137.16 98.72 140.30 115.23 137.30 C 130.37 134.68 145.22 126.92 154.00 114.01 C 160.95 104.12 163.40 91.38 161.19 79.54 C 158.81 64.90 149.26 51.85 136.39 44.62 C 120.60 35.53 101.36 34.37 83.78 37.85 Z" />
<path fill="#0096fa" opacity="1.00" d=" M 67.76 52.86 C 75.61 47.98 84.71 45.31 93.84 44.19 C 105.76 42.76 118.55 45.25 128.02 52.92 C 146.71 67.90 149.31 99.30 132.63 116.72 C 124.31 125.52 112.05 129.97 100.06 129.89 C 88.56 129.78 76.84 128.15 66.34 123.23 C 66.28 101.15 66.37 79.07 66.29 56.99 C 66.39 55.49 65.93 53.48 67.76 52.86 Z" />
</g>
<g id="#ffffffff">
<path fill="#ffffff" opacity="1.00" d=" M 83.78 37.85 C 101.36 34.37 120.60 35.53 136.39 44.62 C 149.26 51.85 158.81 64.90 161.19 79.54 C 163.40 91.38 160.95 104.12 154.00 114.01 C 145.22 126.92 130.37 134.68 115.23 137.30 C 98.72 140.30 81.78 137.16 66.09 131.77 C 66.11 138.97 66.07 146.16 66.11 153.35 C 68.74 154.50 73.67 155.76 71.67 159.62 C 63.15 159.63 54.63 159.60 46.12 159.64 C 45.80 159.17 45.18 158.24 44.86 157.78 C 46.05 155.13 48.89 154.34 51.38 153.40 C 51.40 122.60 51.34 91.80 51.41 60.99 C 45.59 65.45 40.25 70.71 36.60 77.12 C 37.18 80.03 38.13 84.33 34.28 85.32 C 31.43 80.54 28.38 75.89 25.48 71.14 C 41.23 54.86 61.52 42.63 83.78 37.85 M 67.76 52.86 C 65.93 53.48 66.39 55.49 66.29 56.99 C 66.37 79.07 66.28 101.15 66.34 123.23 C 76.84 128.15 88.56 129.78 100.06 129.89 C 112.05 129.97 124.31 125.52 132.63 116.72 C 149.31 99.30 146.71 67.90 128.02 52.92 C 118.55 45.25 105.76 42.76 93.84 44.19 C 84.71 45.31 75.61 47.98 67.76 52.86 Z" />
</g>
</svg>
