<?xml version="1.0" encoding="UTF-8" ?>
<!DOCTYPE svg PUBLIC "-//W3C//DTD SVG 1.1//EN" "http://www.w3.org/Graphics/SVG/1.1/DTD/svg11.dtd">
<svg width="16pt" height="16pt" viewBox="0 0 16 16" version="1.1" xmlns="http://www.w3.org/2000/svg">
<g id="#00000058">
<path fill="#000000" opacity="0.35" d=" M 0.00 0.00 L 0.12 0.00 C 0.09 0.02 0.03 0.06 0.00 0.08 L 0.00 0.00 Z" />
<path fill="#000000" opacity="0.35" d=" M 15.93 0.00 L 16.00 0.00 L 16.00 0.13 C 15.98 0.10 15.95 0.03 15.93 0.00 Z" />
</g>
<g id="#000000ff">
<path fill="#000000" opacity="1.00" d=" M 0.12 0.00 L 15.93 0.00 C 15.95 0.03 15.98 0.10 16.00 0.13 L 16.00 15.92 C 15.97 15.94 15.91 15.98 15.87 16.00 L 0.08 16.00 C 0.06 15.97 0.02 15.91 0.00 15.88 L 0.00 0.08 C 0.03 0.06 0.09 0.02 0.12 0.00 M 4.17 3.15 C 4.25 6.66 4.14 10.18 4.24 13.70 C 4.87 13.67 6.12 13.62 6.75 13.60 C 6.71 12.21 6.71 10.83 6.74 9.45 C 9.05 9.74 12.57 8.93 12.39 5.94 C 11.74 2.01 6.96 3.36 4.17 3.15 Z" />
<path fill="#000000" opacity="1.00" d=" M 6.39 7.42 C 5.63 4.23 11.13 4.44 9.46 7.63 C 8.51 7.14 7.49 7.07 6.39 7.42 Z" />
</g>
<g id="#ffffffff">
<path fill="#ffffff" opacity="1.00" d=" M 4.17 3.15 C 6.96 3.36 11.74 2.01 12.39 5.94 C 12.57 8.93 9.05 9.74 6.74 9.45 C 6.71 10.83 6.71 12.21 6.75 13.60 C 6.12 13.62 4.87 13.67 4.24 13.70 C 4.14 10.18 4.25 6.66 4.17 3.15 M 6.39 7.42 C 7.49 7.07 8.51 7.14 9.46 7.63 C 11.13 4.44 5.63 4.23 6.39 7.42 Z" />
</g>
<g id="#00000060">
<path fill="#000000" opacity="0.38" d=" M 0.00 15.88 C 0.02 15.91 0.06 15.97 0.08 16.00 L 0.00 16.00 L 0.00 15.88 Z" />
<path fill="#000000" opacity="0.38" d=" M 15.87 16.00 C 15.91 15.98 15.97 15.94 16.00 15.92 L 16.00 16.00 L 15.87 16.00 Z" />
</g>
</svg>
