<?xml version="1.0" encoding="UTF-8" ?>
<!DOCTYPE svg PUBLIC "-//W3C//DTD SVG 1.1//EN" "http://www.w3.org/Graphics/SVG/1.1/DTD/svg11.dtd">
<svg width="16pt" height="16pt" viewBox="0 0 16 16" version="1.1" xmlns="http://www.w3.org/2000/svg">
<g id="#c40000e7">
<path fill="#c40000" opacity="0.91" d=" M 1.08 5.79 C 2.50 6.09 3.92 6.40 5.34 6.73 C 6.92 6.41 8.51 6.12 10.10 5.83 C 10.09 7.62 10.07 9.40 10.05 11.19 C 9.27 9.58 8.45 7.99 7.48 6.49 C 7.27 7.98 7.06 9.48 6.88 10.98 C 6.35 10.49 5.83 10.01 5.30 9.52 C 3.84 10.71 2.36 11.89 0.90 13.10 C 0.94 10.66 1.00 8.22 1.08 5.79 M 2.29 7.30 C 0.83 8.30 2.43 10.87 3.90 9.68 C 5.39 8.69 3.75 6.13 2.29 7.30 Z" />
<path fill="#c40000" opacity="0.91" d=" M 11.00 6.19 C 12.40 6.09 13.80 6.00 15.20 5.91 C 15.13 8.24 15.05 10.56 14.96 12.88 C 13.56 12.94 12.15 12.98 10.75 13.01 C 11.81 12.56 12.88 12.11 13.95 11.67 C 12.82 11.11 11.70 10.55 10.59 9.98 C 10.72 8.72 10.86 7.45 11.00 6.19 M 12.19 7.29 C 10.75 8.28 12.32 10.88 13.80 9.69 C 15.24 8.71 13.68 6.11 12.19 7.29 Z" />
</g>
</svg>
