<?xml version="1.0" encoding="UTF-8" ?>
<!DOCTYPE svg PUBLIC "-//W3C//DTD SVG 1.1//EN" "http://www.w3.org/Graphics/SVG/1.1/DTD/svg11.dtd">
<svg width="48pt" height="48pt" viewBox="0 0 48 48" version="1.1" xmlns="http://www.w3.org/2000/svg">
<g id="#3d65f5ff">
<path fill="#3d65f5" opacity="1.00" d=" M 18.87 0.00 L 29.08 0.00 C 34.02 0.66 39.55 1.11 43.45 4.57 C 46.88 8.46 47.33 13.95 48.00 18.88 L 48.00 29.09 C 47.29 34.03 46.84 39.54 43.42 43.45 C 39.53 46.88 34.04 47.34 29.12 48.00 L 18.91 48.00 C 13.98 47.30 8.47 46.84 4.56 43.43 C 1.12 39.54 0.66 34.06 0.00 29.13 L 0.00 18.90 C 0.71 13.98 1.16 8.48 4.55 4.57 C 8.44 1.12 13.94 0.67 18.87 0.00 M 18.75 8.74 C 17.72 11.10 17.90 13.74 17.87 16.25 C 18.88 15.51 19.89 14.76 20.89 14.01 C 21.34 12.10 21.23 9.14 23.98 9.23 C 27.34 9.56 26.78 13.67 26.75 16.09 C 27.24 19.78 21.42 18.63 22.17 22.63 C 23.92 22.41 25.92 22.79 27.45 21.68 C 29.83 20.40 29.87 17.33 30.19 14.99 C 30.19 12.26 30.16 8.96 27.90 7.03 C 25.16 4.95 20.32 5.43 18.75 8.74 M 18.76 17.71 C 17.44 21.11 17.44 24.99 18.59 28.45 C 20.21 32.63 27.06 32.85 29.16 28.98 C 30.32 26.58 30.12 23.83 30.17 21.24 C 29.16 21.96 28.15 22.69 27.14 23.42 C 26.68 25.32 26.78 28.36 24.02 28.23 C 20.35 28.09 20.96 23.32 21.26 20.81 C 21.23 18.56 23.73 18.37 25.28 17.65 C 25.35 16.96 25.49 15.58 25.57 14.89 C 23.08 14.84 19.93 15.10 18.76 17.71 M 14.76 30.41 C 15.77 33.93 19.31 35.49 22.55 36.35 C 22.53 37.01 22.50 38.33 22.48 38.99 C 21.61 38.99 19.86 39.01 18.99 39.01 C 19.00 39.75 19.02 41.23 19.03 41.97 C 22.35 42.01 25.68 42.01 29.01 42.00 C 29.00 41.26 28.99 39.80 28.99 39.06 C 28.12 39.04 26.37 38.99 25.50 38.96 C 25.49 38.29 25.48 36.96 25.47 36.29 C 28.72 35.40 32.17 33.89 33.30 30.41 C 32.71 30.07 31.54 29.40 30.95 29.07 C 29.34 30.81 27.55 32.74 25.01 32.88 C 21.82 33.47 19.04 31.51 17.15 29.16 C 16.55 29.47 15.36 30.10 14.76 30.41 Z" />
</g>
<g id="#ffffffff">
<path fill="#ffffff" opacity="1.00" d=" M 18.75 8.74 C 20.32 5.43 25.16 4.95 27.90 7.03 C 30.16 8.96 30.19 12.26 30.19 14.99 C 29.87 17.33 29.83 20.40 27.45 21.68 C 25.92 22.79 23.92 22.41 22.17 22.63 C 21.42 18.63 27.24 19.78 26.75 16.09 C 26.78 13.67 27.34 9.56 23.98 9.23 C 21.23 9.14 21.34 12.10 20.89 14.01 C 19.89 14.76 18.88 15.51 17.87 16.25 C 17.90 13.74 17.72 11.10 18.75 8.74 Z" />
<path fill="#ffffff" opacity="1.00" d=" M 18.76 17.71 C 19.93 15.10 23.08 14.84 25.57 14.89 C 25.49 15.58 25.35 16.96 25.28 17.65 C 23.73 18.37 21.23 18.56 21.26 20.81 C 20.96 23.32 20.35 28.09 24.02 28.23 C 26.78 28.36 26.68 25.32 27.14 23.42 C 28.15 22.69 29.16 21.96 30.17 21.24 C 30.12 23.83 30.32 26.58 29.16 28.98 C 27.06 32.85 20.21 32.63 18.59 28.45 C 17.44 24.99 17.44 21.11 18.76 17.71 Z" />
<path fill="#ffffff" opacity="1.00" d=" M 14.76 30.41 C 15.36 30.10 16.55 29.47 17.15 29.16 C 19.04 31.51 21.82 33.47 25.01 32.88 C 27.55 32.74 29.34 30.81 30.95 29.07 C 31.54 29.40 32.71 30.07 33.30 30.41 C 32.17 33.89 28.72 35.40 25.47 36.29 C 25.48 36.96 25.49 38.29 25.50 38.96 C 26.37 38.99 28.12 39.04 28.99 39.06 C 28.99 39.80 29.00 41.26 29.01 42.00 C 25.68 42.01 22.35 42.01 19.03 41.97 C 19.02 41.23 19.00 39.75 18.99 39.01 C 19.86 39.01 21.61 38.99 22.48 38.99 C 22.50 38.33 22.53 37.01 22.55 36.35 C 19.31 35.49 15.77 33.93 14.76 30.41 Z" />
</g>
</svg>
