<?xml version="1.0" encoding="UTF-8" ?>
<!DOCTYPE svg PUBLIC "-//W3C//DTD SVG 1.1//EN" "http://www.w3.org/Graphics/SVG/1.1/DTD/svg11.dtd">
<svg width="16pt" height="16pt" viewBox="0 0 16 16" version="1.1" xmlns="http://www.w3.org/2000/svg">
<g id="#212121a2">
<path fill="#212121" opacity="0.64" d=" M 6.25 0.00 L 10.81 0.00 L 11.17 0.56 C 9.56 1.48 7.48 1.41 5.89 0.49 L 6.25 0.00 Z" />
</g>
<g id="#939393ff">
<path fill="#939393" opacity="1.00" d=" M 0.19 5.31 C 1.58 3.14 3.50 1.47 5.89 0.49 C 7.48 1.41 9.56 1.48 11.17 0.56 C 11.69 1.02 12.75 1.94 13.27 2.41 C 13.35 2.48 13.50 2.63 13.58 2.70 C 14.13 3.33 15.24 4.57 15.79 5.20 C 14.96 7.68 14.92 10.97 12.25 12.29 C 9.47 13.75 5.74 13.71 3.13 11.89 C 1.01 10.41 1.02 7.53 0.19 5.31 M 2.04 7.87 C 3.19 12.85 10.87 13.62 13.36 9.33 C 15.05 6.94 13.48 4.13 11.36 2.66 C 7.68 0.15 1.21 3.01 2.04 7.87 Z" />
<path fill="#939393" opacity="1.00" d=" M 3.60 5.13 C 6.16 4.22 8.77 3.49 11.36 2.66 C 10.39 3.53 9.47 4.45 8.59 5.41 C 9.19 6.98 9.80 8.56 10.46 10.11 C 9.60 10.42 8.73 10.72 7.87 11.02 C 7.52 9.34 7.11 7.67 6.64 6.01 C 5.62 5.73 4.61 5.44 3.60 5.13 Z" />
</g>
<g id="#333333ff">
<path fill="#333333" opacity="1.00" d=" M 2.04 7.87 C 1.21 3.01 7.68 0.15 11.36 2.66 C 8.77 3.49 6.16 4.22 3.60 5.13 C 4.61 5.44 5.62 5.73 6.64 6.01 C 7.11 7.67 7.52 9.34 7.87 11.02 C 8.73 10.72 9.60 10.42 10.46 10.11 C 9.80 8.56 9.19 6.98 8.59 5.41 C 9.47 4.45 10.39 3.53 11.36 2.66 C 13.48 4.13 15.05 6.94 13.36 9.33 C 10.87 13.62 3.19 12.85 2.04 7.87 Z" />
<path fill="#333333" opacity="1.00" d=" M 13.27 2.41 C 13.35 2.48 13.50 2.63 13.58 2.70 C 13.50 2.63 13.35 2.48 13.27 2.41 Z" />
<path fill="#333333" opacity="1.00" d=" M 0.00 4.33 L 0.19 5.31 C 1.02 7.53 1.01 10.41 3.13 11.89 C 5.74 13.71 9.47 13.75 12.25 12.29 C 14.92 10.97 14.96 7.68 15.79 5.20 L 16.00 4.17 L 16.00 10.53 C 14.56 12.66 12.73 14.49 10.66 16.00 L 5.41 16.00 C 3.32 14.49 1.47 12.67 0.00 10.56 L 0.00 4.33 Z" />
</g>
</svg>
