<?xml version="1.0" encoding="UTF-8" ?>
<!DOCTYPE svg PUBLIC "-//W3C//DTD SVG 1.1//EN" "http://www.w3.org/Graphics/SVG/1.1/DTD/svg11.dtd">
<svg width="600pt" height="600pt" viewBox="0 0 600 600" version="1.1" xmlns="http://www.w3.org/2000/svg">
<g id="#ffffffff">
<path fill="#ffffff" opacity="1.00" d=" M 0.00 0.00 L 600.00 0.00 L 600.00 600.00 L 0.00 600.00 L 0.00 0.00 M 233.67 94.07 C 196.04 131.44 158.59 169.06 120.97 206.48 C 121.03 268.44 120.99 330.41 120.99 392.37 C 182.94 454.34 245.06 516.14 306.98 578.13 C 307.02 516.14 307.00 454.15 306.99 392.16 L 307.85 392.25 L 307.72 391.83 C 369.45 330.08 431.30 268.44 493.09 206.75 C 492.71 206.16 492.25 205.64 491.74 205.18 C 430.08 143.80 368.63 82.21 306.98 20.83 C 282.47 45.15 257.97 69.54 233.67 94.07 Z" />
</g>
<g id="#4f0019ff">
<path fill="#4f0019" opacity="1.00" d=" M 233.67 94.07 C 257.97 69.54 282.47 45.15 306.98 20.83 C 368.63 82.21 430.08 143.80 491.74 205.18 C 488.48 207.07 484.63 206.48 481.04 206.68 C 430.69 206.78 380.34 206.67 329.99 206.72 C 322.34 206.65 314.65 207.07 307.06 205.96 C 306.66 144.87 307.23 83.76 306.78 22.67 C 304.44 24.36 302.48 26.47 300.50 28.54 C 280.51 48.52 260.46 68.44 240.53 88.47 C 238.45 90.57 236.59 93.09 233.67 94.07 Z" />
</g>
<g id="#210009ff">
<path fill="#210009" opacity="1.00" d=" M 300.50 28.54 C 302.48 26.47 304.44 24.36 306.78 22.67 C 307.23 83.76 306.66 144.87 307.06 205.96 L 307.04 206.48 C 266.36 206.99 225.67 206.55 184.99 206.72 C 163.88 206.63 142.76 206.84 121.65 206.55 L 120.97 206.48 C 158.59 169.06 196.04 131.44 233.67 94.07 C 236.59 93.09 238.45 90.57 240.53 88.47 C 260.46 68.44 280.51 48.52 300.50 28.54 Z" />
</g>
<g id="#7a0027ff">
<path fill="#7a0027" opacity="1.00" d=" M 491.74 205.18 C 492.25 205.64 492.71 206.16 493.09 206.75 C 431.30 268.44 369.45 330.08 307.72 391.83 C 306.58 389.04 306.94 386.00 306.91 383.07 C 307.04 324.21 306.75 265.34 307.04 206.48 L 307.06 205.96 C 314.65 207.07 322.34 206.65 329.99 206.72 C 380.34 206.67 430.69 206.78 481.04 206.68 C 484.63 206.48 488.48 207.07 491.74 205.18 Z" />
</g>
<g id="#d10045ff">
<path fill="#d10045" opacity="1.00" d=" M 120.97 206.48 L 121.65 206.55 C 123.46 208.99 125.47 211.28 127.71 213.34 C 181.21 266.84 234.77 320.28 288.30 373.74 C 294.25 379.90 300.70 385.59 306.30 392.08 C 289.86 392.69 273.39 392.19 256.94 392.38 C 211.62 392.34 166.31 392.37 120.99 392.37 C 120.99 330.41 121.03 268.44 120.97 206.48 Z" />
</g>
<g id="#a70037ff">
<path fill="#a70037" opacity="1.00" d=" M 121.65 206.55 C 142.76 206.84 163.88 206.63 184.99 206.72 C 225.67 206.55 266.36 206.99 307.04 206.48 C 306.75 265.34 307.04 324.21 306.91 383.07 C 306.94 386.00 306.58 389.04 307.72 391.83 L 307.85 392.25 L 306.99 392.16 L 306.30 392.08 C 300.70 385.59 294.25 379.90 288.30 373.74 C 234.77 320.28 181.21 266.84 127.71 213.34 C 125.47 211.28 123.46 208.99 121.65 206.55 Z" />
</g>
<g id="#ff0054ff">
<path fill="#ff0054" opacity="1.00" d=" M 120.99 392.37 C 166.31 392.37 211.62 392.34 256.94 392.38 C 273.39 392.19 289.86 392.69 306.30 392.08 L 306.99 392.16 C 307.00 454.15 307.02 516.14 306.98 578.13 C 245.06 516.14 182.94 454.34 120.99 392.37 Z" />
</g>
</svg>
