<?xml version="1.0" encoding="UTF-8" ?>
<!DOCTYPE svg PUBLIC "-//W3C//DTD SVG 1.1//EN" "http://www.w3.org/Graphics/SVG/1.1/DTD/svg11.dtd">
<svg width="16pt" height="16pt" viewBox="0 0 16 16" version="1.1" xmlns="http://www.w3.org/2000/svg">
<g id="#343231ff">
<path fill="#343231" opacity="1.00" d=" M 0.00 0.00 L 16.00 0.00 L 16.00 16.00 L 0.00 16.00 L 0.00 0.00 M 4.21 1.92 C 5.99 4.87 1.77 11.12 6.81 10.02 C 6.30 8.40 5.18 6.13 8.01 7.02 C 8.16 9.83 5.28 15.17 9.80 14.02 C 9.29 12.43 8.29 10.39 10.99 10.98 C 13.85 11.72 15.33 7.46 12.66 6.38 C 9.77 4.26 10.28 -1.26 4.21 1.92 Z" />
</g>
<g id="#e1ca8eff">
<path fill="#e1ca8e" opacity="1.00" d=" M 4.21 1.92 C 10.28 -1.26 9.77 4.26 12.66 6.38 C 15.33 7.46 13.85 11.72 10.99 10.98 C 8.29 10.39 9.29 12.43 9.80 14.02 C 5.28 15.17 8.16 9.83 8.01 7.02 C 5.18 6.13 6.30 8.40 6.81 10.02 C 1.77 11.12 5.99 4.87 4.21 1.92 M 6.02 2.97 C 4.68 6.16 8.07 7.11 9.85 4.84 C 9.97 2.88 7.41 2.91 6.02 2.97 M 9.02 6.97 C 7.68 10.16 11.07 11.11 12.85 8.84 C 12.97 6.88 10.41 6.91 9.02 6.97 Z" />
</g>
<g id="#302f2eff">
<path fill="#302f2e" opacity="1.00" d=" M 6.02 2.97 C 7.41 2.91 9.97 2.88 9.85 4.84 C 8.07 7.11 4.68 6.16 6.02 2.97 Z" />
<path fill="#302f2e" opacity="1.00" d=" M 9.02 6.97 C 10.41 6.91 12.97 6.88 12.85 8.84 C 11.07 11.11 7.68 10.16 9.02 6.97 Z" />
</g>
</svg>
