<?xml version="1.0" encoding="UTF-8" ?>
<!DOCTYPE svg PUBLIC "-//W3C//DTD SVG 1.1//EN" "http://www.w3.org/Graphics/SVG/1.1/DTD/svg11.dtd">
<svg width="993pt" height="993pt" viewBox="0 0 993 993" version="1.1" xmlns="http://www.w3.org/2000/svg">
<g id="#00be00ff">
<path fill="#00be00" opacity="1.00" d=" M 377.95 215.92 C 396.28 209.67 415.59 206.44 434.93 206.01 C 475.29 205.98 515.65 206.02 556.00 205.99 C 595.56 206.00 634.89 218.89 666.97 241.98 C 700.62 266.01 726.23 301.09 738.78 340.50 C 745.17 360.33 748.25 381.21 748.00 402.04 C 748.00 435.35 748.00 468.67 748.00 501.98 C 747.92 512.30 748.32 522.64 747.33 532.93 C 744.25 571.18 729.27 608.30 705.21 638.16 C 682.43 666.50 651.60 688.37 617.14 700.07 C 598.13 706.59 578.08 710.03 557.99 710.33 C 547.16 710.49 536.32 710.34 525.49 710.41 C 525.48 708.24 525.29 706.07 524.99 703.94 C 524.47 704.91 523.96 705.89 523.47 706.88 C 521.51 705.08 519.15 703.42 518.32 700.78 C 517.61 698.64 517.24 696.42 516.78 694.24 C 516.11 694.94 515.45 695.66 514.79 696.38 C 514.29 696.12 513.79 695.87 513.30 695.63 C 512.68 696.43 512.07 697.25 511.47 698.08 C 510.77 696.76 510.09 695.42 509.39 694.12 C 508.71 695.76 508.00 697.40 507.31 699.06 C 506.72 696.14 506.36 693.19 506.20 690.22 C 505.68 690.58 504.62 691.28 504.10 691.64 C 503.86 690.14 503.65 688.63 503.43 687.14 C 502.61 688.04 501.81 688.96 501.01 689.88 C 500.78 688.06 500.56 686.25 500.34 684.45 C 499.66 684.76 498.98 685.08 498.30 685.39 C 497.73 684.54 497.17 683.70 496.62 682.87 C 497.04 681.06 497.78 679.23 497.59 677.34 C 496.18 674.90 494.03 672.90 493.23 670.12 C 492.99 671.38 492.88 672.67 492.68 673.96 C 492.05 672.38 491.55 670.78 490.97 669.20 C 490.44 669.59 489.39 670.35 488.86 670.74 C 488.28 666.75 488.43 662.68 487.56 658.73 C 487.29 660.02 487.04 661.33 486.80 662.64 C 486.35 662.35 485.92 662.07 485.50 661.79 C 485.21 661.94 484.63 662.24 484.34 662.39 C 482.14 661.02 479.75 659.90 477.86 658.11 C 476.65 656.18 476.31 653.84 475.03 651.96 C 473.96 650.97 472.60 650.34 471.59 649.31 C 470.42 647.56 470.72 645.33 470.55 643.34 C 469.68 643.81 468.81 644.28 467.94 644.76 C 465.28 642.61 465.11 639.32 465.48 636.18 C 465.27 635.90 464.85 635.35 464.63 635.07 C 464.03 637.40 463.12 639.70 461.20 641.28 C 459.73 635.12 457.37 629.24 455.86 623.10 C 455.05 624.42 454.22 625.74 453.42 627.07 C 452.78 626.37 452.15 625.67 451.53 624.98 C 451.81 623.79 452.72 622.58 452.49 621.38 C 449.79 620.31 448.27 617.94 447.42 615.27 C 443.18 615.20 438.94 614.98 434.72 614.55 C 450.47 613.94 466.25 614.44 482.01 614.28 C 506.34 614.28 530.67 614.28 555.00 614.28 C 573.56 614.25 592.10 608.86 607.64 598.69 C 628.68 585.23 644.09 563.34 649.74 539.02 C 651.98 530.20 652.48 521.05 652.39 511.99 C 652.37 482.32 652.39 452.66 652.38 422.99 C 652.19 406.16 653.63 388.92 648.50 372.61 C 639.66 340.97 613.67 314.94 582.11 305.91 C 572.02 302.87 561.43 301.96 550.93 302.00 C 518.95 302.01 486.98 302.00 455.00 302.00 C 446.30 302.03 437.58 301.78 428.91 302.60 C 404.62 304.97 381.57 317.19 365.64 335.62 C 353.10 349.95 344.93 368.03 342.51 386.92 C 341.36 394.56 341.65 402.29 341.62 409.99 C 341.61 499.59 341.62 589.19 341.61 678.79 L 342.30 678.24 C 341.64 680.10 341.46 682.07 341.44 684.04 C 341.52 711.36 341.32 738.68 341.35 766.00 C 341.29 775.60 342.13 785.53 338.69 794.72 C 336.88 800.81 332.75 805.75 329.93 811.35 C 322.11 818.62 312.60 824.65 301.88 826.32 C 290.40 828.31 278.21 826.01 268.40 819.68 C 254.89 811.32 246.11 795.85 246.00 779.95 C 245.99 652.96 246.01 525.97 245.99 398.98 C 246.03 370.88 252.36 342.83 264.30 317.40 C 286.33 270.02 328.31 232.34 377.95 215.92 Z" />
</g>
<g id="#00ae00ff">
<path fill="#00ae00" opacity="1.00" d=" M 408.38 625.28 C 415.79 619.15 425.11 615.23 434.72 614.55 C 438.94 614.98 443.18 615.20 447.42 615.27 C 448.27 617.94 449.79 620.31 452.49 621.38 C 452.72 622.58 451.81 623.79 451.53 624.98 C 452.15 625.67 452.78 626.37 453.42 627.07 C 454.22 625.74 455.05 624.42 455.86 623.10 C 457.37 629.24 459.73 635.12 461.20 641.28 C 463.12 639.70 464.03 637.40 464.63 635.07 C 464.85 635.35 465.27 635.90 465.48 636.18 C 465.11 639.32 465.28 642.61 467.94 644.76 C 468.81 644.28 469.68 643.81 470.55 643.34 C 470.72 645.33 470.42 647.56 471.59 649.31 C 472.60 650.34 473.96 650.97 475.03 651.96 C 476.31 653.84 476.65 656.18 477.86 658.11 C 479.75 659.90 482.14 661.02 484.34 662.39 C 484.63 662.24 485.21 661.94 485.50 661.79 C 485.92 662.07 486.35 662.35 486.80 662.64 C 487.04 661.33 487.29 660.02 487.56 658.73 C 488.43 662.68 488.28 666.75 488.86 670.74 C 489.39 670.35 490.44 669.59 490.97 669.20 C 491.55 670.78 492.05 672.38 492.68 673.96 C 492.88 672.67 492.99 671.38 493.23 670.12 C 494.03 672.90 496.18 674.90 497.59 677.34 C 497.78 679.23 497.04 681.06 496.62 682.87 C 497.17 683.70 497.73 684.54 498.30 685.39 C 498.98 685.08 499.66 684.76 500.34 684.45 C 500.56 686.25 500.78 688.06 501.01 689.88 C 501.81 688.96 502.61 688.04 503.43 687.14 C 503.65 688.63 503.86 690.14 504.10 691.64 C 504.62 691.28 505.68 690.58 506.20 690.22 C 506.36 693.19 506.72 696.14 507.31 699.06 C 508.00 697.40 508.71 695.76 509.39 694.12 C 510.09 695.42 510.77 696.76 511.47 698.08 C 512.07 697.25 512.68 696.43 513.30 695.63 C 513.79 695.87 514.29 696.12 514.79 696.38 C 515.45 695.66 516.11 694.94 516.78 694.24 C 517.24 696.42 517.61 698.64 518.32 700.78 C 519.15 703.42 521.51 705.08 523.47 706.88 C 523.96 705.89 524.47 704.91 524.99 703.94 C 525.29 706.07 525.48 708.24 525.49 710.41 C 502.31 710.48 479.12 710.27 455.94 710.51 C 452.79 712.36 450.17 715.01 447.28 717.25 C 447.92 714.37 447.32 711.52 445.51 709.18 C 447.40 706.02 444.19 703.51 443.60 700.55 C 443.31 697.98 443.75 695.40 443.92 692.85 C 442.74 694.52 441.54 696.19 440.35 697.85 C 439.21 695.85 438.31 693.72 437.58 691.55 C 436.82 691.75 435.90 692.36 435.23 692.32 C 433.98 687.59 431.40 683.44 428.62 679.46 C 427.76 679.83 426.90 680.21 426.05 680.60 C 424.14 678.68 421.66 676.82 421.61 673.86 C 421.32 670.65 419.47 667.96 417.75 665.36 C 416.79 665.82 415.83 666.30 414.88 666.78 C 413.97 663.49 413.66 660.08 412.87 656.77 C 412.52 657.56 411.83 659.14 411.49 659.93 C 409.76 656.07 409.36 651.86 408.77 647.73 C 408.34 649.50 407.93 651.28 407.56 653.08 C 407.07 650.07 406.06 647.19 404.35 644.66 C 403.66 646.31 403.14 648.01 402.62 649.73 C 400.89 645.31 397.79 641.51 397.10 636.70 C 396.67 637.75 396.18 638.78 395.79 639.86 C 395.44 639.62 394.73 639.15 394.37 638.91 C 394.56 637.95 394.75 636.99 394.94 636.05 C 399.44 632.48 403.92 628.89 408.38 625.28 Z" />
</g>
<g id="#009d00ff">
<path fill="#009d00" opacity="1.00" d=" M 349.62 672.51 C 364.73 660.36 379.87 648.25 394.94 636.05 C 394.75 636.99 394.56 637.95 394.37 638.91 C 394.73 639.15 395.44 639.62 395.79 639.86 C 396.18 638.78 396.67 637.75 397.10 636.70 C 397.79 641.51 400.89 645.31 402.62 649.73 C 403.14 648.01 403.66 646.31 404.35 644.66 C 406.06 647.19 407.07 650.07 407.56 653.08 C 407.93 651.28 408.34 649.50 408.77 647.73 C 409.36 651.86 409.76 656.07 411.49 659.93 C 411.83 659.14 412.52 657.56 412.87 656.77 C 413.66 660.08 413.97 663.49 414.88 666.78 C 415.83 666.30 416.79 665.82 417.75 665.36 C 419.47 667.96 421.32 670.65 421.61 673.86 C 421.66 676.82 424.14 678.68 426.05 680.60 C 426.90 680.21 427.76 679.83 428.62 679.46 C 431.40 683.44 433.98 687.59 435.23 692.32 C 435.90 692.36 436.82 691.75 437.58 691.55 C 438.31 693.72 439.21 695.85 440.35 697.85 C 441.54 696.19 442.74 694.52 443.92 692.85 C 443.75 695.40 443.31 697.98 443.60 700.55 C 444.19 703.51 447.40 706.02 445.51 709.18 C 447.32 711.52 447.92 714.37 447.28 717.25 C 433.33 728.17 419.84 739.69 405.75 750.42 C 405.32 747.56 404.97 744.70 404.70 741.84 C 404.05 743.69 403.40 745.54 402.71 747.39 C 401.22 745.36 399.92 743.20 398.99 740.87 C 398.02 740.50 397.04 740.14 396.07 739.79 C 396.33 738.19 396.57 736.60 396.84 735.01 C 395.69 735.99 394.54 736.95 393.41 737.95 C 390.97 736.02 391.68 732.74 390.86 730.10 C 390.26 727.44 388.52 725.28 386.83 723.24 C 386.35 723.60 385.39 724.33 384.90 724.69 C 383.12 720.95 384.16 716.32 380.72 713.36 C 379.87 713.78 379.02 714.20 378.18 714.63 C 376.48 711.41 375.05 708.02 374.74 704.35 C 373.78 704.84 372.82 705.33 371.88 705.84 C 370.37 704.18 370.20 702.06 370.54 699.95 C 367.18 698.41 366.10 694.87 364.54 691.85 C 363.02 691.02 361.29 690.71 359.73 689.98 C 359.08 687.80 359.17 685.49 359.02 683.26 C 357.94 683.79 356.85 684.32 355.77 684.86 C 353.80 681.53 354.49 677.50 353.64 673.86 C 353.42 674.58 352.97 676.03 352.75 676.76 C 351.71 675.33 350.66 673.91 349.62 672.51 Z" />
</g>
<g id="#008a00ff">
<path fill="#008a00" opacity="1.00" d=" M 342.30 678.24 C 344.74 676.33 347.21 674.45 349.62 672.51 C 350.66 673.91 351.71 675.33 352.75 676.76 C 352.97 676.03 353.42 674.58 353.64 673.86 C 354.49 677.50 353.80 681.53 355.77 684.86 C 356.85 684.32 357.94 683.79 359.02 683.26 C 359.17 685.49 359.08 687.80 359.73 689.98 C 361.29 690.71 363.02 691.02 364.54 691.85 C 366.10 694.87 367.18 698.41 370.54 699.95 C 370.20 702.06 370.37 704.18 371.88 705.84 C 372.82 705.33 373.78 704.84 374.74 704.35 C 375.05 708.02 376.48 711.41 378.18 714.63 C 379.02 714.20 379.87 713.78 380.72 713.36 C 384.16 716.32 383.12 720.95 384.90 724.69 C 385.39 724.33 386.35 723.60 386.83 723.24 C 388.52 725.28 390.26 727.44 390.86 730.10 C 391.68 732.74 390.97 736.02 393.41 737.95 C 394.54 736.95 395.69 735.99 396.84 735.01 C 396.57 736.60 396.33 738.19 396.07 739.79 C 397.04 740.14 398.02 740.50 398.99 740.87 C 399.92 743.20 401.22 745.36 402.71 747.39 C 403.40 745.54 404.05 743.69 404.70 741.84 C 404.97 744.70 405.32 747.56 405.75 750.42 L 405.78 750.66 C 389.05 763.92 372.56 777.49 355.83 790.75 C 347.16 797.56 338.80 804.80 329.93 811.35 C 332.75 805.75 336.88 800.81 338.69 794.72 C 342.13 785.53 341.29 775.60 341.35 766.00 C 341.32 738.68 341.52 711.36 341.44 684.04 C 341.46 682.07 341.64 680.10 342.30 678.24 Z" />
</g>
</svg>
