<?xml version="1.0" encoding="UTF-8" ?>
<!DOCTYPE svg PUBLIC "-//W3C//DTD SVG 1.1//EN" "http://www.w3.org/Graphics/SVG/1.1/DTD/svg11.dtd">
<svg width="64pt" height="64pt" viewBox="0 0 64 64" version="1.1" xmlns="http://www.w3.org/2000/svg">
<g id="#000000ff">
<path fill="#000000" opacity="1.00" d=" M 0.30 2.66 C 7.32 2.77 14.37 2.29 21.37 2.85 C 22.00 3.06 23.26 3.49 23.89 3.70 C 14.84 7.11 6.73 14.14 4.24 23.76 C 2.61 30.88 3.11 38.81 6.99 45.17 C 10.85 51.41 16.85 56.63 24.10 58.42 C 33.53 61.24 44.26 58.07 51.04 51.03 C 56.26 46.13 58.97 39.02 59.39 31.96 C 59.45 23.59 55.83 15.10 49.34 9.71 C 46.10 7.00 42.16 5.34 38.33 3.65 C 40.13 2.97 42.03 2.57 43.96 2.61 C 50.54 2.59 57.12 2.63 63.70 2.66 C 63.90 22.22 63.89 41.79 63.70 61.35 C 42.57 61.37 21.44 61.36 0.30 61.35 C 0.11 41.79 0.11 22.22 0.30 2.66 Z" />
<path fill="#000000" opacity="1.00" d=" M 25.12 10.57 C 29.61 10.20 34.32 9.81 38.72 10.91 C 41.19 11.38 40.80 13.85 40.74 15.75 C 35.14 15.92 28.96 13.89 23.89 17.11 C 19.21 19.59 17.30 25.04 16.69 29.99 C 16.41 33.81 18.60 37.25 18.78 41.00 C 18.92 42.91 16.90 43.86 15.93 45.21 C 10.45 40.00 10.82 31.97 11.57 25.07 C 13.47 18.51 18.55 12.72 25.12 10.57 Z" />
<path fill="#000000" opacity="1.00" d=" M 44.23 18.46 C 45.76 18.37 48.03 17.55 48.72 19.54 C 52.13 24.62 52.02 30.98 51.35 36.81 C 49.48 43.92 43.81 49.92 36.75 52.02 C 31.11 53.32 24.82 52.72 20.10 49.14 C 21.31 47.79 22.49 46.42 23.78 45.16 C 27.79 47.08 32.61 48.43 36.88 46.51 C 41.29 44.72 45.70 40.51 44.62 35.31 C 42.81 35.61 40.78 35.05 39.11 35.93 C 37.86 37.36 36.92 39.06 35.45 40.30 C 33.08 40.76 30.65 40.44 28.26 40.28 C 30.11 34.75 35.35 31.32 38.36 26.45 C 40.50 26.34 42.64 26.33 44.79 26.28 C 44.60 23.67 44.35 21.07 44.23 18.46 Z" />
<path fill="#000000" opacity="1.00" d=" M 25.79 33.43 C 21.70 28.23 27.48 20.44 33.63 21.42 C 33.59 22.03 33.53 23.24 33.50 23.85 C 31.03 27.12 28.31 30.19 25.79 33.43 Z" />
</g>
<g id="#fefefeff">
<path fill="#fefefe" opacity="1.00" d=" M 23.89 3.70 C 28.59 2.25 33.59 2.51 38.33 3.65 C 42.16 5.34 46.10 7.00 49.34 9.71 C 55.83 15.10 59.45 23.59 59.39 31.96 C 58.97 39.02 56.26 46.13 51.04 51.03 C 44.26 58.07 33.53 61.24 24.10 58.42 C 16.85 56.63 10.85 51.41 6.99 45.17 C 3.11 38.81 2.61 30.88 4.24 23.76 C 6.73 14.14 14.84 7.11 23.89 3.70 M 25.12 10.57 C 18.55 12.72 13.47 18.51 11.57 25.07 C 10.82 31.97 10.45 40.00 15.93 45.21 C 16.90 43.86 18.92 42.91 18.78 41.00 C 18.60 37.25 16.41 33.81 16.69 29.99 C 17.30 25.04 19.21 19.59 23.89 17.11 C 28.96 13.89 35.14 15.92 40.74 15.75 C 40.80 13.85 41.19 11.38 38.72 10.91 C 34.32 9.81 29.61 10.20 25.12 10.57 M 44.23 18.46 C 44.35 21.07 44.60 23.67 44.79 26.28 C 42.64 26.33 40.50 26.34 38.36 26.45 C 35.35 31.32 30.11 34.75 28.26 40.28 C 30.65 40.44 33.08 40.76 35.45 40.30 C 36.92 39.06 37.86 37.36 39.11 35.93 C 40.78 35.05 42.81 35.61 44.62 35.31 C 45.70 40.51 41.29 44.72 36.88 46.51 C 32.61 48.43 27.79 47.08 23.78 45.16 C 22.49 46.42 21.31 47.79 20.10 49.14 C 24.82 52.72 31.11 53.32 36.75 52.02 C 43.81 49.92 49.48 43.92 51.35 36.81 C 52.02 30.98 52.13 24.62 48.72 19.54 C 48.03 17.55 45.76 18.37 44.23 18.46 M 25.79 33.43 C 28.31 30.19 31.03 27.12 33.50 23.85 C 33.53 23.24 33.59 22.03 33.63 21.42 C 27.48 20.44 21.70 28.23 25.79 33.43 Z" />
</g>
</svg>
