<?xml version="1.0" encoding="UTF-8" ?>
<!DOCTYPE svg PUBLIC "-//W3C//DTD SVG 1.1//EN" "http://www.w3.org/Graphics/SVG/1.1/DTD/svg11.dtd">
<svg width="180pt" height="180pt" viewBox="0 0 180 180" version="1.1" xmlns="http://www.w3.org/2000/svg">
<g id="#ea5e00ff">
<path fill="#ea5e00" opacity="1.00" d=" M 32.64 0.00 L 147.71 0.00 C 157.28 0.33 166.74 4.78 172.59 12.44 C 177.33 18.02 179.71 25.30 180.00 32.55 L 180.00 147.43 C 179.72 155.39 176.66 163.26 171.20 169.09 C 165.45 175.39 157.21 179.18 148.77 180.00 L 32.77 180.00 C 15.53 179.87 0.01 164.84 0.00 147.47 L 0.00 31.45 C 0.50 24.80 2.65 18.16 6.92 12.96 C 12.83 4.88 22.70 0.19 32.64 0.00 M 118.53 52.60 C 117.43 53.42 115.72 53.73 115.18 55.09 C 115.34 58.06 116.02 60.98 116.43 63.92 C 129.95 62.54 143.41 60.51 156.85 58.56 C 152.64 51.75 148.57 44.85 144.49 37.96 C 135.55 42.24 127.26 47.86 118.53 52.60 M 34.30 41.44 C 34.28 70.64 34.28 99.85 34.30 129.06 C 34.01 134.38 37.40 139.52 42.34 141.45 C 49.29 144.49 58.01 139.47 59.22 132.08 C 59.92 126.50 59.35 120.85 59.50 115.25 C 62.29 116.06 65.14 116.68 68.03 117.00 C 83.43 118.58 98.90 109.03 104.90 94.86 C 109.14 85.19 109.24 73.70 104.96 64.01 C 100.63 53.94 91.67 45.91 81.07 42.98 C 76.84 41.73 72.41 41.50 68.02 41.46 C 56.78 41.45 45.54 41.49 34.30 41.44 M 116.26 71.17 C 115.56 74.10 114.41 76.94 114.08 79.95 C 114.16 81.41 116.05 81.45 117.03 82.07 C 128.89 86.94 140.77 91.77 152.53 96.89 C 155.01 89.53 156.38 81.83 158.55 74.36 C 144.44 73.44 130.38 71.75 116.26 71.17 Z" />
<path fill="#ea5e00" opacity="1.00" d=" M 66.43 67.66 C 74.05 64.01 84.02 70.56 83.67 78.99 C 84.34 86.33 77.09 92.78 69.90 91.81 C 62.79 91.34 57.24 83.87 58.84 76.94 C 59.59 72.81 62.59 69.26 66.43 67.66 Z" />
</g>
<g id="#ffffffff">
<path fill="#ffffff" opacity="1.00" d=" M 118.53 52.60 C 127.26 47.86 135.55 42.24 144.49 37.96 C 148.57 44.85 152.64 51.75 156.85 58.56 C 143.41 60.51 129.95 62.54 116.43 63.92 C 116.02 60.98 115.34 58.06 115.18 55.09 C 115.72 53.73 117.43 53.42 118.53 52.60 Z" />
<path fill="#ffffff" opacity="1.00" d=" M 34.30 41.44 C 45.54 41.49 56.78 41.45 68.02 41.46 C 72.41 41.50 76.84 41.73 81.07 42.98 C 91.67 45.91 100.63 53.94 104.96 64.01 C 109.24 73.70 109.14 85.19 104.90 94.86 C 98.90 109.03 83.43 118.58 68.03 117.00 C 65.14 116.68 62.29 116.06 59.50 115.25 C 59.35 120.85 59.92 126.50 59.22 132.08 C 58.01 139.47 49.29 144.49 42.34 141.45 C 37.40 139.52 34.01 134.38 34.30 129.06 C 34.28 99.85 34.28 70.64 34.30 41.44 M 66.43 67.66 C 62.59 69.26 59.59 72.81 58.84 76.94 C 57.24 83.87 62.79 91.34 69.90 91.81 C 77.09 92.78 84.34 86.33 83.67 78.99 C 84.02 70.56 74.05 64.01 66.43 67.66 Z" />
<path fill="#ffffff" opacity="1.00" d=" M 116.26 71.17 C 130.38 71.75 144.44 73.44 158.55 74.36 C 156.38 81.83 155.01 89.53 152.53 96.89 C 140.77 91.77 128.89 86.94 117.03 82.07 C 116.05 81.45 114.16 81.41 114.08 79.95 C 114.41 76.94 115.56 74.10 116.26 71.17 Z" />
</g>
</svg>
