<?xml version="1.0" encoding="UTF-8" ?>
<!DOCTYPE svg PUBLIC "-//W3C//DTD SVG 1.1//EN" "http://www.w3.org/Graphics/SVG/1.1/DTD/svg11.dtd">
<svg width="119pt" height="119pt" viewBox="0 0 119 119" version="1.1" xmlns="http://www.w3.org/2000/svg">
<g id="#fefffeff">
<path fill="#fefffe" opacity="1.00" d=" M 0.00 0.00 L 119.00 0.00 L 119.00 119.00 L 0.00 119.00 L 0.00 0.00 M 57.95 12.75 C 51.25 13.14 40.98 12.88 38.99 20.97 L 38.05 21.03 C 37.84 25.69 38.00 30.35 38.02 35.01 L 38.99 34.97 C 46.33 35.07 53.66 35.05 61.00 34.99 C 61.05 36.33 61.06 37.67 61.00 39.01 C 48.67 38.96 36.34 38.98 24.01 39.02 L 23.99 40.01 C 16.32 40.71 11.62 48.72 11.98 55.98 L 11.01 56.02 C 11.01 58.76 11.00 64.25 11.00 66.99 L 11.98 67.02 C 12.11 73.78 15.48 82.71 22.98 84.01 L 23.02 84.98 C 25.77 84.98 31.27 84.98 34.02 84.98 L 33.94 84.01 C 34.18 78.91 33.97 73.80 33.73 68.72 C 35.85 62.24 41.71 56.21 48.99 57.04 C 58.65 56.02 74.55 60.93 78.00 48.03 L 78.98 47.98 C 79.05 39.66 79.05 31.33 78.98 23.01 L 78.01 22.98 C 76.46 14.30 65.46 11.67 57.95 12.75 M 82.98 34.01 L 83.05 34.99 C 82.81 39.77 82.99 44.56 83.39 49.32 C 82.37 52.90 80.72 56.37 77.81 58.80 C 69.04 65.65 56.83 59.67 46.90 62.82 C 43.07 63.74 39.37 66.91 39.00 70.98 L 38.03 71.02 C 37.94 79.68 37.96 88.35 38.04 97.01 L 39.02 96.95 C 40.47 103.26 47.01 106.16 52.99 106.02 C 55.49 106.27 60.49 106.75 62.99 107.00 L 63.02 106.02 C 68.97 106.00 77.25 104.10 78.01 97.02 L 78.96 96.97 C 79.17 92.65 78.99 88.31 78.98 83.99 L 78.01 84.03 C 70.67 83.93 63.34 83.95 56.00 84.01 C 55.94 82.66 55.94 81.32 56.00 79.99 C 68.33 80.04 80.66 80.02 92.98 79.98 L 93.02 79.01 C 101.15 77.96 105.06 69.42 105.02 62.02 L 105.96 61.97 C 105.25 59.54 108.25 53.12 105.02 52.98 C 104.98 45.85 101.60 35.27 93.02 34.97 C 90.51 34.73 85.49 34.25 82.98 34.01 Z" />
</g>
<g id="#0377bdff">
<path fill="#0377bd" opacity="1.00" d=" M 57.95 12.75 C 65.46 11.67 76.46 14.30 78.01 22.98 C 78.00 31.33 78.01 39.68 78.00 48.03 C 74.55 60.93 58.65 56.02 48.99 57.04 C 41.71 56.21 35.85 62.24 33.73 68.72 C 32.64 73.70 33.07 78.90 32.98 83.98 C 29.64 83.99 26.31 84.02 22.98 84.01 C 15.48 82.71 12.11 73.78 11.98 67.02 C 11.99 63.33 12.01 59.66 11.98 55.98 C 11.62 48.72 16.32 40.71 23.99 40.01 C 36.31 39.91 48.63 40.13 60.95 39.97 L 61.00 39.01 C 61.06 37.67 61.05 36.33 61.00 34.99 L 60.94 34.03 C 53.63 33.90 46.32 34.01 39.02 33.99 C 39.00 29.65 38.98 25.31 38.99 20.97 C 40.98 12.88 51.25 13.14 57.95 12.75 M 46.28 22.28 C 45.12 22.79 43.88 23.29 43.58 24.67 C 41.57 27.91 47.50 32.05 49.81 28.82 C 52.94 26.60 49.88 20.63 46.28 22.28 Z" />
</g>
<g id="#b2cee6ff">
<path fill="#b2cee6" opacity="1.00" d=" M 38.05 21.03 L 38.99 20.97 C 38.98 25.31 39.00 29.65 39.02 33.99 L 38.99 34.97 L 38.02 35.01 C 38.00 30.35 37.84 25.69 38.05 21.03 Z" />
</g>
<g id="#e8f0f7ff">
<path fill="#e8f0f7" opacity="1.00" d=" M 46.28 22.28 C 49.88 20.63 52.94 26.60 49.81 28.82 C 47.50 32.05 41.57 27.91 43.58 24.67 C 43.88 23.29 45.12 22.79 46.28 22.28 Z" />
</g>
<g id="#d4e4f1ff">
<path fill="#d4e4f1" opacity="1.00" d=" M 78.01 22.98 L 78.98 23.01 C 79.05 31.33 79.05 39.66 78.98 47.98 L 78.00 48.03 C 78.01 39.68 78.00 31.33 78.01 22.98 Z" />
</g>
<g id="#639dceff">
<path fill="#639dce" opacity="1.00" d=" M 39.02 33.99 C 46.32 34.01 53.63 33.90 60.94 34.03 L 61.00 34.99 C 53.66 35.05 46.33 35.07 38.99 34.97 L 39.02 33.99 Z" />
</g>
<g id="#fff0cfff">
<path fill="#fff0cf" opacity="1.00" d=" M 82.98 34.01 C 85.49 34.25 90.51 34.73 93.02 34.97 C 90.01 34.98 87.03 35.00 84.03 35.02 L 83.05 34.99 L 82.98 34.01 Z" />
</g>
<g id="#ffc947ff">
<path fill="#ffc947" opacity="1.00" d=" M 83.05 34.99 L 84.03 35.02 C 83.65 39.74 84.83 44.71 83.39 49.32 C 82.99 44.56 82.81 39.77 83.05 34.99 Z" />
</g>
<g id="#ffc108ff">
<path fill="#ffc108" opacity="1.00" d=" M 84.03 35.02 C 87.03 35.00 90.01 34.98 93.02 34.97 C 101.60 35.27 104.98 45.85 105.02 52.98 C 105.00 55.99 105.00 59.01 105.02 62.02 C 105.06 69.42 101.15 77.96 93.02 79.01 C 80.70 79.07 68.37 78.87 56.05 79.03 L 56.00 79.99 C 55.94 81.32 55.94 82.66 56.00 84.01 L 56.06 84.97 C 63.37 85.10 70.67 84.99 77.98 85.01 C 78.00 89.01 78.01 93.02 78.01 97.02 C 77.25 104.10 68.97 106.00 63.02 106.02 C 59.67 106.00 56.33 105.99 52.99 106.02 C 47.01 106.16 40.47 103.26 39.02 96.95 C 38.98 88.29 39.00 79.64 39.00 70.98 C 39.37 66.91 43.07 63.74 46.90 62.82 C 56.83 59.67 69.04 65.65 77.81 58.80 C 80.72 56.37 82.37 52.90 83.39 49.32 C 84.83 44.71 83.65 39.74 84.03 35.02 M 68.24 89.18 C 64.05 91.08 66.19 98.27 70.76 96.82 C 74.95 94.92 72.81 87.72 68.24 89.18 Z" />
</g>
<g id="#c2d8ebff">
<path fill="#c2d8eb" opacity="1.00" d=" M 24.01 39.02 C 36.34 38.98 48.67 38.96 61.00 39.01 L 60.95 39.97 C 48.63 40.13 36.31 39.91 23.99 40.01 L 24.01 39.02 Z" />
</g>
<g id="#ffe8b5ff">
<path fill="#ffe8b5" opacity="1.00" d=" M 105.02 52.98 C 108.25 53.12 105.25 59.54 105.96 61.97 L 105.02 62.02 C 105.00 59.01 105.00 55.99 105.02 52.98 Z" />
</g>
<g id="#92b8dbff">
<path fill="#92b8db" opacity="1.00" d=" M 11.01 56.02 L 11.98 55.98 C 12.01 59.66 11.99 63.33 11.98 67.02 L 11.00 66.99 C 11.00 64.25 11.01 58.76 11.01 56.02 Z" />
</g>
<g id="#73a7d2ff">
<path fill="#73a7d2" opacity="1.00" d=" M 32.98 83.98 C 33.07 78.90 32.64 73.70 33.73 68.72 C 33.97 73.80 34.18 78.91 33.94 84.01 L 32.98 83.98 Z" />
</g>
<g id="#ffe7b1ff">
<path fill="#ffe7b1" opacity="1.00" d=" M 38.03 71.02 L 39.00 70.98 C 39.00 79.64 38.98 88.29 39.02 96.95 L 38.04 97.01 C 37.96 88.35 37.94 79.68 38.03 71.02 Z" />
</g>
<g id="#ffecc2ff">
<path fill="#ffecc2" opacity="1.00" d=" M 56.05 79.03 C 68.37 78.87 80.70 79.07 93.02 79.01 L 92.98 79.98 C 80.66 80.02 68.33 80.04 56.00 79.99 L 56.05 79.03 Z" />
</g>
<g id="#d5e5f2ff">
<path fill="#d5e5f2" opacity="1.00" d=" M 22.98 84.01 C 26.31 84.02 29.64 83.99 32.98 83.98 L 33.94 84.01 L 34.02 84.98 C 31.27 84.98 25.77 84.98 23.02 84.98 L 22.98 84.01 Z" />
</g>
<g id="#ffd163ff">
<path fill="#ffd163" opacity="1.00" d=" M 56.00 84.01 C 63.34 83.95 70.67 83.93 78.01 84.03 L 77.98 85.01 C 70.67 84.99 63.37 85.10 56.06 84.97 L 56.00 84.01 Z" />
</g>
<g id="#fff2d6ff">
<path fill="#fff2d6" opacity="1.00" d=" M 78.01 84.03 L 78.98 83.99 C 78.99 88.31 79.17 92.65 78.96 96.97 L 78.01 97.02 C 78.01 93.02 78.00 89.01 77.98 85.01 L 78.01 84.03 Z" />
</g>
<g id="#fffcf3ff">
<path fill="#fffcf3" opacity="1.00" d=" M 68.24 89.18 C 72.81 87.72 74.95 94.92 70.76 96.82 C 66.19 98.27 64.05 91.08 68.24 89.18 Z" />
</g>
<g id="#ffe2a3ff">
<path fill="#ffe2a3" opacity="1.00" d=" M 52.99 106.02 C 56.33 105.99 59.67 106.00 63.02 106.02 L 62.99 107.00 C 60.49 106.75 55.49 106.27 52.99 106.02 Z" />
</g>
</svg>
