<?xml version="1.0" encoding="UTF-8" ?>
<!DOCTYPE svg PUBLIC "-//W3C//DTD SVG 1.1//EN" "http://www.w3.org/Graphics/SVG/1.1/DTD/svg11.dtd">
<svg width="32pt" height="32pt" viewBox="0 0 32 32" version="1.1" xmlns="http://www.w3.org/2000/svg">
<g id="#000000b0">
<path fill="#000000" opacity="0.69" d=" M 10.46 2.27 C 14.22 1.75 17.93 1.75 21.60 2.29 C 22.27 4.69 25.46 3.43 26.57 5.43 C 28.01 6.33 27.87 8.14 28.41 9.56 C 29.52 10.00 30.06 10.81 30.04 12.01 C 29.55 12.01 28.56 12.00 28.06 12.00 C 27.61 11.96 26.69 11.88 26.24 11.84 C 24.77 9.40 22.57 7.51 20.46 5.64 C 19.01 2.85 12.89 2.90 11.58 5.71 C 9.85 7.15 8.25 8.74 6.48 10.12 C 5.89 9.27 5.24 8.46 4.55 7.69 C 3.37 4.31 9.38 4.71 10.46 2.27 Z" />
</g>
<g id="#00000054">
<path fill="#000000" opacity="0.33" d=" M 11.58 5.71 C 12.89 2.90 19.01 2.85 20.46 5.64 C 17.50 5.74 14.54 5.77 11.58 5.71 Z" />
</g>
<g id="#000000d5">
<path fill="#000000" opacity="0.84" d=" M 4.55 7.69 C 5.24 8.46 5.89 9.27 6.48 10.12 C 6.33 10.53 6.05 11.34 5.91 11.75 C 2.12 12.11 4.25 17.02 4.16 19.66 C 4.59 19.81 5.45 20.11 5.88 20.26 C 6.03 20.67 6.32 21.48 6.47 21.89 C 5.88 22.74 5.24 23.55 4.55 24.31 C 0.75 19.85 0.20 12.01 4.55 7.69 Z" />
</g>
<g id="#00000056">
<path fill="#000000" opacity="0.34" d=" M 4.16 19.66 C 4.25 17.02 2.12 12.11 5.91 11.75 C 5.90 14.59 5.89 17.42 5.88 20.26 C 5.45 20.11 4.59 19.81 4.16 19.66 Z" />
</g>
<g id="#0000004a">
<path fill="#000000" opacity="0.29" d=" M 26.24 11.84 C 26.69 11.88 27.61 11.96 28.06 12.00 C 27.99 14.06 27.90 16.12 27.75 18.18 C 27.30 18.14 26.39 18.04 25.93 17.99 C 26.01 15.94 26.10 13.89 26.24 11.84 Z" />
</g>
<g id="#000000ec">
<path fill="#000000" opacity="0.93" d=" M 28.06 12.00 C 28.56 12.00 29.55 12.01 30.04 12.01 C 30.21 14.82 30.09 17.62 29.68 20.39 C 29.00 19.69 28.35 18.96 27.75 18.18 C 27.90 16.12 27.99 14.06 28.06 12.00 Z" />
</g>
<g id="#429e95d2">
<path fill="#429e95" opacity="0.82" d=" M 15.86 16.00 C 19.47 14.99 21.18 18.66 23.80 20.29 C 23.80 20.75 23.80 21.66 23.81 22.12 C 23.31 22.16 22.32 22.24 21.82 22.28 C 19.58 20.51 16.80 18.82 15.86 16.00 Z" />
</g>
<g id="#000a0966">
<path fill="#000a09" opacity="0.40" d=" M 25.93 17.99 C 26.39 18.04 27.30 18.14 27.75 18.18 C 28.35 18.96 29.00 19.69 29.68 20.39 C 30.09 21.66 30.11 22.98 29.73 24.35 C 28.20 23.14 26.60 21.90 25.70 20.13 C 25.76 19.60 25.87 18.53 25.93 17.99 Z" />
</g>
<g id="#008477cb">
<path fill="#008477" opacity="0.80" d=" M 23.80 20.29 C 24.27 20.25 25.23 20.17 25.70 20.13 C 26.60 21.90 28.20 23.14 29.73 24.35 C 31.18 26.97 27.66 25.84 26.20 25.88 C 25.44 24.60 24.56 23.40 23.81 22.12 C 23.80 21.66 23.80 20.75 23.80 20.29 Z" />
</g>
<g id="#0000009e">
<path fill="#000000" opacity="0.62" d=" M 6.47 21.89 C 8.29 23.29 9.89 24.97 11.84 26.20 C 11.88 26.65 11.96 27.53 12.00 27.98 C 12.01 28.48 12.01 29.49 12.02 29.99 C 9.97 30.45 9.99 27.76 8.00 27.98 C 6.49 27.79 3.43 25.82 4.55 24.31 C 5.24 23.55 5.88 22.74 6.47 21.89 Z" />
</g>
<g id="#010b0a62">
<path fill="#010b0a" opacity="0.38" d=" M 21.82 22.28 C 22.32 22.24 23.31 22.16 23.81 22.12 C 24.56 23.40 25.44 24.60 26.20 25.88 C 26.46 27.94 25.81 28.45 24.26 27.41 C 23.59 26.82 22.90 26.25 22.19 25.71 C 22.06 24.56 21.94 23.42 21.82 22.28 Z" />
</g>
<g id="#00000052">
<path fill="#000000" opacity="0.32" d=" M 11.84 26.20 C 14.68 26.15 17.52 26.14 20.36 26.16 C 19.77 27.00 19.04 27.69 18.18 28.25 C 16.13 28.10 14.06 28.02 12.00 27.98 C 11.96 27.53 11.88 26.65 11.84 26.20 Z" />
</g>
<g id="#000000cb">
<path fill="#000000" opacity="0.80" d=" M 20.36 26.16 C 20.82 26.05 21.73 25.82 22.19 25.71 C 22.90 26.25 23.59 26.82 24.26 27.41 C 22.29 28.79 20.67 30.83 17.94 29.97 C 18.00 29.54 18.12 28.68 18.18 28.25 C 19.04 27.69 19.77 27.00 20.36 26.16 Z" />
</g>
<g id="#000000f3">
<path fill="#000000" opacity="0.95" d=" M 12.00 27.98 C 14.06 28.02 16.13 28.10 18.18 28.25 C 18.12 28.68 18.00 29.54 17.94 29.97 C 15.97 30.08 13.99 30.07 12.02 29.99 C 12.01 29.49 12.01 28.48 12.00 27.98 Z" />
</g>
</svg>
