<?xml version="1.0" encoding="UTF-8" ?>
<!DOCTYPE svg PUBLIC "-//W3C//DTD SVG 1.1//EN" "http://www.w3.org/Graphics/SVG/1.1/DTD/svg11.dtd">
<svg width="61pt" height="129pt" viewBox="0 0 61 129" version="1.1" xmlns="http://www.w3.org/2000/svg">
<g id="#ffd000ff">
<path fill="#ffd000" opacity="1.00" d=" M 26.96 0.00 L 33.08 0.00 C 40.51 0.52 48.24 2.13 54.29 6.71 C 58.93 10.30 60.35 16.48 60.28 22.08 C 60.29 45.38 60.32 68.69 60.27 92.00 C 60.33 97.31 58.79 103.01 54.56 106.52 C 48.38 111.49 40.27 113.05 32.56 113.61 C 32.84 115.34 32.90 117.65 34.99 118.22 C 38.59 119.24 42.41 118.68 46.11 118.80 C 46.12 121.99 46.12 125.19 46.11 128.39 C 40.80 128.11 35.08 129.27 30.08 127.02 C 26.29 123.71 26.89 118.03 26.40 113.47 C 19.36 112.76 12.03 111.03 6.44 106.45 C 2.22 102.96 0.67 97.27 0.76 91.98 C 0.78 68.32 0.75 44.66 0.78 21.00 C 0.74 15.72 2.48 10.09 6.75 6.72 C 12.52 2.32 19.87 0.71 26.96 0.00 M 25.49 12.66 C 21.25 14.10 20.03 18.95 20.14 22.96 C 20.09 45.31 20.12 67.66 20.13 90.01 C 20.09 93.85 20.74 98.57 24.55 100.52 C 28.45 102.34 33.38 102.38 37.13 100.15 C 40.48 97.98 40.83 93.57 40.89 89.96 C 40.88 67.63 40.89 45.30 40.88 22.98 C 40.80 19.43 40.26 15.10 36.83 13.19 C 33.40 11.33 29.10 11.38 25.49 12.66 Z" />
</g>
</svg>
