<?xml version="1.0" encoding="UTF-8" ?>
<!DOCTYPE svg PUBLIC "-//W3C//DTD SVG 1.1//EN" "http://www.w3.org/Graphics/SVG/1.1/DTD/svg11.dtd">
<svg width="32pt" height="32pt" viewBox="0 0 32 32" version="1.1" xmlns="http://www.w3.org/2000/svg">
<g id="#424242ff">
<path fill="#424242" opacity="1.00" d=" M 0.00 0.00 L 32.00 0.00 L 32.00 32.00 L 0.00 32.00 L 0.00 0.00 M 1.00 1.00 C 1.00 11.00 1.00 21.00 1.00 30.99 C 5.90 31.00 10.81 31.02 15.71 30.96 C 15.63 29.73 15.55 28.50 15.47 27.28 C 14.54 27.13 13.60 26.98 12.66 26.84 C 12.50 24.92 12.35 23.00 12.22 21.09 C 13.39 21.03 14.55 20.97 15.72 20.91 C 15.62 17.64 15.47 14.37 15.31 11.11 C 14.43 11.04 13.56 10.97 12.69 10.90 C 12.54 8.98 12.37 7.05 12.19 5.13 C 13.40 5.03 14.61 4.94 15.82 4.85 C 15.63 3.56 15.42 2.28 15.21 0.99 C 10.47 1.00 5.74 1.00 1.00 1.00 M 17.00 1.00 C 17.00 2.66 17.00 4.32 17.00 5.98 C 16.25 5.99 14.75 6.01 14.00 6.02 C 14.00 7.34 14.00 8.66 14.00 9.98 C 14.75 9.99 16.25 10.01 17.00 10.01 C 17.00 14.00 17.00 18.00 17.00 21.99 C 16.25 21.99 14.75 22.01 14.00 22.01 C 14.00 23.34 14.00 24.66 14.00 25.98 C 14.75 25.99 16.25 26.01 17.00 26.02 C 17.00 27.68 17.00 29.34 17.00 31.00 C 21.67 31.00 26.33 31.00 31.00 31.00 C 31.00 21.00 31.00 11.00 31.00 1.00 C 26.33 1.00 21.67 1.00 17.00 1.00 Z" />
<path fill="#424242" opacity="1.00" d=" M 5.01 13.01 C 7.01 12.99 9.01 12.99 11.01 13.01 C 11.01 15.01 11.01 17.01 11.01 19.01 C 9.01 19.01 7.01 19.01 5.00 19.01 C 4.99 17.01 4.99 15.01 5.01 13.01 M 6.73 17.03 C 5.32 18.69 8.87 18.50 9.40 17.46 C 10.19 16.69 10.45 15.82 10.16 14.86 C 8.85 15.01 8.06 16.63 6.73 17.03 Z" />
<path fill="#424242" opacity="1.00" d=" M 22.01 13.01 C 24.00 12.99 26.00 12.99 28.01 13.01 C 28.01 15.01 28.01 17.01 28.01 19.01 C 26.00 19.01 24.00 19.01 22.00 19.01 C 21.99 17.01 21.99 15.01 22.01 13.01 M 25.15 16.14 C 24.70 16.48 23.81 17.17 23.36 17.51 C 23.47 18.94 25.76 18.14 26.38 17.47 C 27.16 16.69 27.39 15.81 27.09 14.85 C 26.34 15.00 25.70 15.43 25.15 16.14 Z" />
</g>
<g id="#bbbbbbff">
<path fill="#bbbbbb" opacity="1.00" d=" M 1.00 1.00 C 5.74 1.00 10.47 1.00 15.21 0.99 C 15.42 2.28 15.63 3.56 15.82 4.85 C 14.61 4.94 13.40 5.03 12.19 5.13 C 12.37 7.05 12.54 8.98 12.69 10.90 C 13.56 10.97 14.43 11.04 15.31 11.11 C 15.47 14.37 15.62 17.64 15.72 20.91 C 14.55 20.97 13.39 21.03 12.22 21.09 C 12.35 23.00 12.50 24.92 12.66 26.84 C 13.60 26.98 14.54 27.13 15.47 27.28 C 15.55 28.50 15.63 29.73 15.71 30.96 C 10.81 31.02 5.90 31.00 1.00 30.99 C 1.00 21.00 1.00 11.00 1.00 1.00 M 5.01 13.01 C 4.99 15.01 4.99 17.01 5.00 19.01 C 7.01 19.01 9.01 19.01 11.01 19.01 C 11.01 17.01 11.01 15.01 11.01 13.01 C 9.01 12.99 7.01 12.99 5.01 13.01 Z" />
<path fill="#bbbbbb" opacity="1.00" d=" M 17.00 1.00 C 21.67 1.00 26.33 1.00 31.00 1.00 C 31.00 11.00 31.00 21.00 31.00 31.00 C 26.33 31.00 21.67 31.00 17.00 31.00 C 17.00 29.34 17.00 27.68 17.00 26.02 C 16.25 26.01 14.75 25.99 14.00 25.98 C 14.00 24.66 14.00 23.34 14.00 22.01 C 14.75 22.01 16.25 21.99 17.00 21.99 C 17.00 18.00 17.00 14.00 17.00 10.01 C 16.25 10.01 14.75 9.99 14.00 9.98 C 14.00 8.66 14.00 7.34 14.00 6.02 C 14.75 6.01 16.25 5.99 17.00 5.98 C 17.00 4.32 17.00 2.66 17.00 1.00 M 22.01 13.01 C 21.99 15.01 21.99 17.01 22.00 19.01 C 24.00 19.01 26.00 19.01 28.01 19.01 C 28.01 17.01 28.01 15.01 28.01 13.01 C 26.00 12.99 24.00 12.99 22.01 13.01 Z" />
<path fill="#bbbbbb" opacity="1.00" d=" M 6.73 17.03 C 8.06 16.63 8.85 15.01 10.16 14.86 C 10.45 15.82 10.19 16.69 9.40 17.46 C 8.87 18.50 5.32 18.69 6.73 17.03 Z" />
<path fill="#bbbbbb" opacity="1.00" d=" M 25.15 16.14 C 25.70 15.43 26.34 15.00 27.09 14.85 C 27.39 15.81 27.16 16.69 26.38 17.47 C 25.76 18.14 23.47 18.94 23.36 17.51 C 23.81 17.17 24.70 16.48 25.15 16.14 Z" />
</g>
</svg>
