<?xml version="1.0" encoding="UTF-8" ?>
<!DOCTYPE svg PUBLIC "-//W3C//DTD SVG 1.1//EN" "http://www.w3.org/Graphics/SVG/1.1/DTD/svg11.dtd">
<svg width="180pt" height="180pt" viewBox="0 0 180 180" version="1.1" xmlns="http://www.w3.org/2000/svg">
<g id="#06519bdf">
<path fill="#06519b" opacity="0.87" d=" M 0.00 0.00 L 180.00 0.00 L 180.00 180.00 L 0.00 180.00 L 0.00 0.00 M 0.73 0.98 C 1.16 5.31 0.96 9.67 1.00 14.01 C 1.00 67.32 0.99 120.62 1.00 173.93 C 0.99 175.62 0.86 177.32 0.73 179.02 C 60.25 178.99 119.76 178.99 179.27 179.02 C 178.86 175.03 179.02 171.02 179.00 167.03 C 179.00 113.32 179.01 59.62 179.00 5.92 C 179.01 4.27 179.14 2.63 179.27 0.98 C 119.75 1.01 60.24 1.01 0.73 0.98 Z" />
</g>
<g id="#095eb3ff">
<path fill="#095eb3" opacity="1.00" d=" M 0.73 0.98 C 60.24 1.01 119.75 1.01 179.27 0.98 C 179.14 2.63 179.01 4.27 179.00 5.92 C 179.01 59.62 179.00 113.32 179.00 167.03 C 179.02 171.02 178.86 175.03 179.27 179.02 C 119.76 178.99 60.25 178.99 0.73 179.02 C 0.86 177.32 0.99 175.62 1.00 173.93 C 0.99 120.62 1.00 67.32 1.00 14.01 C 0.96 9.67 1.16 5.31 0.73 0.98 M 88.32 37.25 C 82.48 47.70 78.24 59.04 72.29 69.43 C 69.62 70.27 66.83 70.55 64.05 70.66 C 55.54 71.75 47.00 72.51 38.49 73.59 C 38.40 74.77 37.75 76.21 38.96 77.05 C 46.71 84.50 54.66 91.73 62.63 98.92 C 62.65 100.60 62.75 102.30 62.43 103.96 C 60.65 112.27 59.44 120.70 57.62 129.01 C 57.21 131.23 57.13 133.51 57.48 135.75 C 58.09 135.62 59.32 135.37 59.94 135.24 C 68.67 130.18 77.41 125.12 86.13 120.02 C 88.13 118.73 90.82 118.82 92.79 120.13 C 101.49 125.24 110.25 130.25 118.96 135.36 C 119.59 135.42 120.86 135.54 121.50 135.60 C 121.60 126.18 118.40 117.04 117.40 107.71 C 119.29 107.03 121.03 105.98 122.92 105.26 C 122.88 105.09 122.81 104.75 122.77 104.58 C 120.93 104.55 119.09 104.25 117.26 104.43 L 116.94 104.32 C 116.06 102.69 116.05 100.62 116.60 98.89 C 124.23 91.72 131.84 84.52 139.51 77.38 C 140.87 76.54 140.62 74.99 140.43 73.65 C 129.23 72.46 118.03 71.14 106.79 70.41 C 105.64 69.58 104.56 68.65 104.16 67.24 C 99.97 57.73 95.74 48.24 91.41 38.80 C 91.05 37.27 89.57 37.30 88.32 37.25 Z" />
</g>
<g id="#ffc028ff">
<path fill="#ffc028" opacity="1.00" d=" M 88.32 37.25 C 89.57 37.30 91.05 37.27 91.41 38.80 C 95.74 48.24 99.97 57.73 104.16 67.24 C 104.56 68.65 105.64 69.58 106.79 70.41 C 118.03 71.14 129.23 72.46 140.43 73.65 C 140.62 74.99 140.87 76.54 139.51 77.38 C 131.84 84.52 124.23 91.72 116.60 98.89 C 116.05 100.62 116.06 102.69 116.94 104.32 C 112.29 104.54 107.62 104.54 102.97 104.21 C 96.26 103.30 89.44 103.54 82.77 102.25 C 92.65 94.90 103.01 88.19 113.03 81.01 C 113.91 80.31 114.70 79.51 115.49 78.71 C 96.53 75.41 77.08 76.15 58.13 79.13 C 63.54 81.17 69.39 80.04 75.02 80.47 C 80.08 80.30 85.04 81.49 90.08 81.56 C 92.75 81.62 95.35 82.21 97.91 82.87 C 86.76 90.66 75.89 98.86 64.53 106.34 C 69.23 107.82 74.21 107.51 79.06 108.08 C 89.46 108.74 99.91 108.29 110.25 107.00 C 113.81 106.56 117.29 105.52 120.91 105.65 C 119.68 105.27 118.46 104.89 117.26 104.43 C 119.09 104.25 120.93 104.55 122.77 104.58 C 122.81 104.75 122.88 105.09 122.92 105.26 C 121.03 105.98 119.29 107.03 117.40 107.71 C 118.40 117.04 121.60 126.18 121.50 135.60 C 120.86 135.54 119.59 135.42 118.96 135.36 C 110.25 130.25 101.49 125.24 92.79 120.13 C 90.82 118.82 88.13 118.73 86.13 120.02 C 77.41 125.12 68.67 130.18 59.94 135.24 C 59.32 135.37 58.09 135.62 57.48 135.75 C 57.13 133.51 57.21 131.23 57.62 129.01 C 59.44 120.70 60.65 112.27 62.43 103.96 C 62.75 102.30 62.65 100.60 62.63 98.92 C 54.66 91.73 46.71 84.50 38.96 77.05 C 37.75 76.21 38.40 74.77 38.49 73.59 C 47.00 72.51 55.54 71.75 64.05 70.66 C 66.83 70.55 69.62 70.27 72.29 69.43 C 78.24 59.04 82.48 47.70 88.32 37.25 Z" />
</g>
<g id="#ffffffff">
<path fill="#ffffff" opacity="1.00" d=" M 58.13 79.13 C 77.08 76.15 96.53 75.41 115.49 78.71 C 114.70 79.51 113.91 80.31 113.03 81.01 C 103.01 88.19 92.65 94.90 82.77 102.25 C 89.44 103.54 96.26 103.30 102.97 104.21 C 107.62 104.54 112.29 104.54 116.94 104.32 L 117.26 104.43 C 118.46 104.89 119.68 105.27 120.91 105.65 C 117.29 105.52 113.81 106.56 110.25 107.00 C 99.91 108.29 89.46 108.74 79.06 108.08 C 74.21 107.51 69.23 107.82 64.53 106.34 C 75.89 98.86 86.76 90.66 97.91 82.87 C 95.35 82.21 92.75 81.62 90.08 81.56 C 85.04 81.49 80.08 80.30 75.02 80.47 C 69.39 80.04 63.54 81.17 58.13 79.13 Z" />
</g>
</svg>
