<?xml version="1.0" encoding="UTF-8" ?>
<!DOCTYPE svg PUBLIC "-//W3C//DTD SVG 1.1//EN" "http://www.w3.org/Graphics/SVG/1.1/DTD/svg11.dtd">
<svg width="144pt" height="144pt" viewBox="0 0 144 144" version="1.1" xmlns="http://www.w3.org/2000/svg">
<g id="#eb9532ff">
<path fill="#eb9532" opacity="1.00" d=" M 0.00 0.00 L 144.00 0.00 L 144.00 144.00 L 0.00 144.00 L 0.00 0.00 M 52.57 99.19 C 52.71 109.04 52.66 118.91 52.59 128.77 C 54.89 128.75 57.18 128.75 59.47 128.74 C 59.60 125.16 58.84 121.45 59.71 117.95 C 60.22 117.58 61.23 116.82 61.73 116.45 C 64.24 120.56 66.88 124.60 69.36 128.74 C 71.97 128.76 74.58 128.76 77.19 128.74 C 73.42 123.34 70.10 117.64 66.52 112.11 C 70.13 107.87 73.51 103.46 76.97 99.10 C 74.42 99.14 71.88 99.15 69.33 99.18 C 66.16 103.55 62.46 107.50 59.42 111.97 C 59.30 107.70 59.36 103.44 59.48 99.17 C 57.18 98.86 54.86 98.86 52.57 99.19 M 81.31 99.16 C 81.46 109.04 81.41 118.92 81.34 128.79 C 87.32 128.65 93.30 128.92 99.28 128.62 C 99.23 126.97 99.19 125.33 99.16 123.69 C 95.51 123.67 91.87 123.65 88.22 123.68 C 88.24 121.18 88.22 118.68 88.21 116.19 C 91.60 116.20 94.98 116.18 98.37 116.20 C 98.36 114.41 98.36 112.63 98.36 110.85 C 94.99 110.85 91.61 110.84 88.24 110.87 C 88.24 108.65 88.24 106.44 88.23 104.22 C 91.88 104.26 95.53 104.24 99.17 104.23 C 99.19 102.56 99.20 100.88 99.22 99.21 C 93.26 98.92 87.28 99.17 81.31 99.16 M 102.05 98.77 C 105.29 105.23 109.16 111.39 112.04 118.01 C 112.22 121.58 111.65 125.15 111.81 128.73 C 114.14 128.75 116.46 128.77 118.79 128.80 C 119.14 124.00 117.53 118.69 120.31 114.38 C 123.08 109.26 125.88 104.16 128.73 99.09 C 126.25 99.14 123.77 99.16 121.29 99.21 C 119.49 103.05 117.49 106.78 115.69 110.62 C 112.97 107.26 111.61 103.06 109.64 99.25 C 107.11 99.03 104.58 98.85 102.05 98.77 Z" />
</g>
<g id="#ffffffff">
<path fill="#ffffff" opacity="1.00" d=" M 52.57 99.19 C 54.86 98.86 57.18 98.86 59.48 99.17 C 59.36 103.44 59.30 107.70 59.42 111.97 C 62.46 107.50 66.16 103.55 69.33 99.18 C 71.88 99.15 74.42 99.14 76.97 99.10 C 73.51 103.46 70.13 107.87 66.52 112.11 C 70.10 117.64 73.42 123.34 77.19 128.74 C 74.58 128.76 71.97 128.76 69.36 128.74 C 66.88 124.60 64.24 120.56 61.73 116.45 C 61.23 116.82 60.22 117.58 59.71 117.95 C 58.84 121.45 59.60 125.16 59.47 128.74 C 57.18 128.75 54.89 128.75 52.59 128.77 C 52.66 118.91 52.71 109.04 52.57 99.19 Z" />
<path fill="#ffffff" opacity="1.00" d=" M 81.31 99.16 C 87.28 99.17 93.26 98.92 99.22 99.21 C 99.20 100.88 99.19 102.56 99.17 104.23 C 95.53 104.24 91.88 104.26 88.23 104.22 C 88.24 106.44 88.24 108.65 88.24 110.87 C 91.61 110.84 94.99 110.85 98.36 110.85 C 98.36 112.63 98.36 114.41 98.37 116.20 C 94.98 116.18 91.60 116.20 88.21 116.19 C 88.22 118.68 88.24 121.18 88.22 123.68 C 91.87 123.65 95.51 123.67 99.16 123.69 C 99.19 125.33 99.23 126.97 99.28 128.62 C 93.30 128.92 87.32 128.65 81.34 128.79 C 81.41 118.92 81.46 109.04 81.31 99.16 Z" />
<path fill="#ffffff" opacity="1.00" d=" M 102.05 98.77 C 104.58 98.85 107.11 99.03 109.64 99.25 C 111.61 103.06 112.97 107.26 115.69 110.62 C 117.49 106.78 119.49 103.05 121.29 99.21 C 123.77 99.16 126.25 99.14 128.73 99.09 C 125.88 104.16 123.08 109.26 120.31 114.38 C 117.53 118.69 119.14 124.00 118.79 128.80 C 116.46 128.77 114.14 128.75 111.81 128.73 C 111.65 125.15 112.22 121.58 112.04 118.01 C 109.16 111.39 105.29 105.23 102.05 98.77 Z" />
</g>
</svg>
