<?xml version="1.0" encoding="UTF-8" ?>
<!DOCTYPE svg PUBLIC "-//W3C//DTD SVG 1.1//EN" "http://www.w3.org/Graphics/SVG/1.1/DTD/svg11.dtd">
<svg width="128pt" height="128pt" viewBox="0 0 128 128" version="1.1" xmlns="http://www.w3.org/2000/svg">
<g id="#000000ff">
<path fill="#000000" opacity="1.00" d=" M 60.60 4.02 C 75.16 3.14 89.99 7.65 101.57 16.51 C 116.84 27.95 126.26 46.89 125.87 66.01 C 126.00 78.90 121.64 91.70 114.07 102.09 C 104.80 114.85 90.48 123.79 74.93 126.46 C 59.95 129.31 44.02 125.92 31.17 117.81 C 19.01 110.19 9.77 98.13 5.42 84.47 C 0.72 70.02 1.71 53.85 8.05 40.05 C 17.18 19.56 38.20 5.15 60.60 4.02 M 49.62 8.83 C 32.23 13.21 17.25 26.02 10.29 42.55 C 4.43 56.11 3.96 71.88 9.09 85.73 C 14.26 100.09 25.30 112.21 39.12 118.69 C 52.31 124.99 67.87 126.12 81.80 121.64 C 96.36 117.11 108.99 106.69 116.04 93.15 C 124.06 78.27 125.06 59.85 118.81 44.17 C 113.39 30.23 102.38 18.60 88.78 12.39 C 76.65 6.73 62.57 5.52 49.62 8.83 Z" />
<path fill="#000000" opacity="1.00" d=" M 20.74 46.25 C 20.41 41.40 21.40 36.60 21.64 31.77 C 33.94 31.77 46.25 31.79 58.56 31.76 C 59.05 36.60 59.89 41.47 59.43 46.35 C 56.90 42.98 58.69 37.60 54.91 34.98 C 51.34 33.16 47.17 33.79 43.31 33.73 C 42.15 43.09 43.09 52.59 42.78 62.01 C 43.04 64.78 42.06 67.93 43.63 70.40 C 46.45 71.46 50.47 69.57 52.34 72.51 C 44.14 72.59 35.87 73.00 27.71 72.29 C 30.39 70.02 34.14 71.09 37.32 70.33 C 37.63 59.55 37.36 48.77 37.48 38.00 C 37.26 36.57 38.10 34.43 36.24 33.81 C 32.58 33.60 28.53 33.26 25.20 35.12 C 21.54 37.74 23.53 43.14 20.74 46.25 Z" />
<path fill="#000000" opacity="1.00" d=" M 66.61 31.52 C 72.59 31.67 78.56 31.68 84.54 31.51 L 84.53 33.27 C 82.53 33.38 80.52 33.51 78.53 33.71 C 78.13 39.26 78.38 44.82 78.32 50.37 C 84.35 50.36 90.39 50.37 96.42 50.37 C 96.38 44.83 96.55 39.28 96.27 33.75 C 94.25 33.53 92.23 33.38 90.20 33.27 C 90.22 32.83 90.26 31.94 90.28 31.50 C 96.24 31.71 102.21 31.64 108.17 31.54 L 108.14 33.25 C 106.34 33.36 104.51 33.35 102.74 33.71 C 101.10 35.37 101.98 37.93 101.74 40.01 C 102.02 50.16 101.26 60.36 102.17 70.48 C 104.48 70.89 107.23 70.37 108.87 72.45 C 102.66 72.91 96.42 72.41 90.19 72.75 L 90.32 70.97 C 92.32 70.84 94.32 70.68 96.31 70.43 C 96.53 64.39 96.37 58.34 96.43 52.29 C 90.39 52.26 84.35 52.29 78.32 52.27 C 78.37 58.31 78.18 64.35 78.46 70.39 C 80.85 70.86 83.57 70.56 85.53 72.28 C 79.19 72.97 72.77 72.62 66.41 72.54 C 66.46 69.94 70.78 71.21 72.65 70.41 C 72.88 58.18 73.01 45.91 72.58 33.68 C 70.59 33.50 68.60 33.38 66.62 33.28 L 66.61 31.52 Z" />
<path fill="#000000" opacity="1.00" d=" M 49.65 60.29 C 49.91 59.91 50.43 59.16 50.70 58.79 C 56.95 58.60 63.21 58.89 69.46 58.64 L 69.56 60.42 C 66.92 60.45 64.24 60.52 61.72 61.44 C 61.71 73.51 61.67 85.58 61.74 97.64 C 66.41 98.35 71.45 98.73 75.90 96.88 C 80.54 94.63 81.41 89.08 81.88 84.48 C 82.27 84.44 83.05 84.35 83.43 84.31 C 82.75 89.49 82.37 94.71 81.63 99.88 C 71.40 99.76 61.15 100.08 50.93 99.73 L 49.09 98.90 C 51.44 98.16 53.89 97.90 56.29 97.38 C 56.46 86.58 56.30 75.77 56.38 64.96 C 56.24 63.51 56.81 61.53 55.11 60.80 C 53.30 60.50 51.47 60.45 49.65 60.29 Z" />
</g>
<g id="#cce6ffff">
<path fill="#cce6ff" opacity="1.00" d=" M 49.62 8.83 C 62.57 5.52 76.65 6.73 88.78 12.39 C 102.38 18.60 113.39 30.23 118.81 44.17 C 125.06 59.85 124.06 78.27 116.04 93.15 C 108.99 106.69 96.36 117.11 81.80 121.64 C 67.87 126.12 52.31 124.99 39.12 118.69 C 25.30 112.21 14.26 100.09 9.09 85.73 C 3.96 71.88 4.43 56.11 10.29 42.55 C 17.25 26.02 32.23 13.21 49.62 8.83 M 20.74 46.25 C 23.53 43.14 21.54 37.74 25.20 35.12 C 28.53 33.26 32.58 33.60 36.24 33.81 C 38.10 34.43 37.26 36.57 37.48 38.00 C 37.36 48.77 37.63 59.55 37.32 70.33 C 34.14 71.09 30.39 70.02 27.71 72.29 C 35.87 73.00 44.14 72.59 52.34 72.51 C 50.47 69.57 46.45 71.46 43.63 70.40 C 42.06 67.93 43.04 64.78 42.78 62.01 C 43.09 52.59 42.15 43.09 43.31 33.73 C 47.17 33.79 51.34 33.16 54.91 34.98 C 58.69 37.60 56.90 42.98 59.43 46.35 C 59.89 41.47 59.05 36.60 58.56 31.76 C 46.25 31.79 33.94 31.77 21.64 31.77 C 21.40 36.60 20.41 41.40 20.74 46.25 M 66.61 31.52 L 66.62 33.28 C 68.60 33.38 70.59 33.50 72.58 33.68 C 73.01 45.91 72.88 58.18 72.65 70.41 C 70.78 71.21 66.46 69.94 66.41 72.54 C 72.77 72.62 79.19 72.97 85.53 72.28 C 83.57 70.56 80.85 70.86 78.46 70.39 C 78.18 64.35 78.37 58.31 78.32 52.27 C 84.35 52.29 90.39 52.26 96.43 52.29 C 96.37 58.34 96.53 64.39 96.31 70.43 C 94.32 70.68 92.32 70.84 90.32 70.97 L 90.19 72.75 C 96.42 72.41 102.66 72.91 108.87 72.45 C 107.23 70.37 104.48 70.89 102.17 70.48 C 101.26 60.36 102.02 50.16 101.74 40.01 C 101.98 37.93 101.10 35.37 102.74 33.71 C 104.51 33.35 106.34 33.36 108.14 33.25 L 108.17 31.54 C 102.21 31.64 96.24 31.71 90.28 31.50 C 90.26 31.94 90.22 32.83 90.20 33.27 C 92.23 33.38 94.25 33.53 96.27 33.75 C 96.55 39.28 96.38 44.83 96.42 50.37 C 90.39 50.37 84.35 50.36 78.32 50.37 C 78.38 44.82 78.13 39.26 78.53 33.71 C 80.52 33.51 82.53 33.38 84.53 33.27 L 84.54 31.51 C 78.56 31.68 72.59 31.67 66.61 31.52 M 49.65 60.29 C 51.47 60.45 53.30 60.50 55.11 60.80 C 56.81 61.53 56.24 63.51 56.38 64.96 C 56.30 75.77 56.46 86.58 56.29 97.38 C 53.89 97.90 51.44 98.16 49.09 98.90 L 50.93 99.73 C 61.15 100.08 71.40 99.76 81.63 99.88 C 82.37 94.71 82.75 89.49 83.43 84.31 C 83.05 84.35 82.27 84.44 81.88 84.48 C 81.41 89.08 80.54 94.63 75.90 96.88 C 71.45 98.73 66.41 98.35 61.74 97.64 C 61.67 85.58 61.71 73.51 61.72 61.44 C 64.24 60.52 66.92 60.45 69.56 60.42 L 69.46 58.64 C 63.21 58.89 56.95 58.60 50.70 58.79 C 50.43 59.16 49.91 59.91 49.65 60.29 M 95.18 73.91 C 95.84 74.15 97.18 74.62 97.85 74.85 C 97.85 78.41 97.85 81.97 97.85 85.52 L 96.12 85.13 C 96.34 85.66 96.78 86.73 97.00 87.26 C 94.98 87.28 92.96 87.31 90.94 87.36 C 91.80 87.74 92.66 88.12 93.52 88.50 C 95.23 92.30 96.75 96.19 98.70 99.87 C 98.92 99.79 99.38 99.61 99.61 99.52 C 101.58 96.00 102.88 92.15 104.62 88.51 C 105.44 88.21 106.25 87.92 107.07 87.63 C 105.76 87.44 104.47 87.18 103.19 86.84 C 102.93 86.54 102.40 85.94 102.13 85.65 C 101.74 85.58 100.95 85.43 100.56 85.36 C 100.55 81.87 100.56 78.38 100.55 74.90 C 101.28 74.65 102.74 74.15 103.47 73.90 C 100.71 73.75 97.94 73.73 95.18 73.91 Z" />
<path fill="#cce6ff" opacity="1.00" d=" M 97.60 85.98 C 99.16 85.98 100.59 86.32 101.89 86.99 C 102.30 87.47 103.10 88.41 103.51 88.89 C 102.22 91.47 101.07 94.11 99.96 96.78 C 98.79 94.13 97.57 91.50 96.37 88.86 C 96.68 88.14 97.29 86.70 97.60 85.98 Z" />
</g>
<g id="#050506ff">
<path fill="#050506" opacity="1.00" d=" M 95.18 73.91 C 97.94 73.73 100.71 73.75 103.47 73.90 C 102.74 74.15 101.28 74.65 100.55 74.90 C 100.56 78.38 100.55 81.87 100.56 85.36 C 100.95 85.43 101.74 85.58 102.13 85.65 C 102.40 85.94 102.93 86.54 103.19 86.84 C 104.47 87.18 105.76 87.44 107.07 87.63 C 106.25 87.92 105.44 88.21 104.62 88.51 C 102.88 92.15 101.58 96.00 99.61 99.52 C 99.38 99.61 98.92 99.79 98.70 99.87 C 96.75 96.19 95.23 92.30 93.52 88.50 C 92.66 88.12 91.80 87.74 90.94 87.36 C 92.96 87.31 94.98 87.28 97.00 87.26 C 96.78 86.73 96.34 85.66 96.12 85.13 L 97.85 85.52 C 97.85 81.97 97.85 78.41 97.85 74.85 C 97.18 74.62 95.84 74.15 95.18 73.91 M 97.60 85.98 C 97.29 86.70 96.68 88.14 96.37 88.86 C 97.57 91.50 98.79 94.13 99.96 96.78 C 101.07 94.11 102.22 91.47 103.51 88.89 C 103.10 88.41 102.30 87.47 101.89 86.99 C 100.59 86.32 99.16 85.98 97.60 85.98 Z" />
</g>
</svg>
