<?xml version="1.0" encoding="UTF-8" ?>
<!DOCTYPE svg PUBLIC "-//W3C//DTD SVG 1.1//EN" "http://www.w3.org/Graphics/SVG/1.1/DTD/svg11.dtd">
<svg width="32pt" height="32pt" viewBox="0 0 32 32" version="1.1" xmlns="http://www.w3.org/2000/svg">
<g id="#00080c0d">
<path fill="#00080c" opacity="0.05" d=" M 0.00 0.00 L 32.00 0.00 L 32.00 32.00 L 0.00 32.00 L 0.00 0.00 M 3.02 4.98 C 2.94 10.32 2.93 15.65 3.01 20.99 L 3.99 21.02 L 4.02 22.03 C 7.63 23.04 8.56 19.44 8.23 16.62 C 9.76 15.96 9.40 11.86 11.72 10.72 C 13.12 9.04 18.06 6.00 18.12 9.89 C 15.44 12.97 11.27 16.43 11.99 21.01 C 17.49 22.11 19.51 14.99 24.96 14.90 C 27.31 20.55 21.34 22.43 18.14 25.20 C 17.64 27.24 20.41 27.98 21.81 28.68 C 27.40 25.95 32.00 19.81 29.81 13.27 C 28.26 11.55 26.65 9.61 24.07 9.92 C 21.91 10.69 23.99 5.95 22.21 7.23 C 22.59 4.94 20.39 4.07 18.71 3.28 C 14.65 2.02 11.59 4.79 8.19 6.08 C 10.50 1.23 -1.50 1.70 3.02 4.98 M 8.18 23.21 C 7.32 24.24 5.49 25.17 6.15 26.78 C 7.40 29.19 11.84 27.96 10.98 25.06 C 11.31 23.49 9.09 23.77 8.18 23.21 Z" />
</g>
<g id="#22b0e9f6">
<path fill="#22b0e9" opacity="0.96" d=" M 3.02 4.98 C -1.50 1.70 10.50 1.23 8.19 6.08 C 11.59 4.79 14.65 2.02 18.71 3.28 C 20.39 4.07 22.59 4.94 22.21 7.23 C 20.85 8.11 19.49 9.01 18.12 9.89 C 18.06 6.00 13.12 9.04 11.72 10.72 C 9.40 11.86 9.76 15.96 8.23 16.62 C 6.81 15.95 5.34 16.20 4.00 16.92 C 2.71 13.62 6.01 7.32 3.02 4.98 Z" />
</g>
<g id="#1f96c4cf">
<path fill="#1f96c4" opacity="0.81" d=" M 3.02 4.98 C 6.01 7.32 2.71 13.62 4.00 16.92 C 3.99 18.28 3.98 19.65 3.99 21.02 L 3.01 20.99 C 2.93 15.65 2.94 10.32 3.02 4.98 Z" />
</g>
<g id="#018ee4f3">
<path fill="#018ee4" opacity="0.95" d=" M 22.21 7.23 C 23.99 5.95 21.91 10.69 24.07 9.92 C 26.65 9.61 28.26 11.55 29.81 13.27 C 32.00 19.81 27.40 25.95 21.81 28.68 C 20.41 27.98 17.64 27.24 18.14 25.20 C 21.34 22.43 27.31 20.55 24.96 14.90 C 19.51 14.99 17.49 22.11 11.99 21.01 C 11.27 16.43 15.44 12.97 18.12 9.89 C 19.49 9.01 20.85 8.11 22.21 7.23 Z" />
</g>
<g id="#0aa5e8fa">
<path fill="#0aa5e8" opacity="0.98" d=" M 4.00 16.92 C 5.34 16.20 6.81 15.95 8.23 16.62 C 8.56 19.44 7.63 23.04 4.02 22.03 L 3.99 21.02 C 3.98 19.65 3.99 18.28 4.00 16.92 Z" />
</g>
<g id="#008edae9">
<path fill="#008eda" opacity="0.91" d=" M 8.18 23.21 C 9.09 23.77 11.31 23.49 10.98 25.06 C 11.84 27.96 7.40 29.19 6.15 26.78 C 5.49 25.17 7.32 24.24 8.18 23.21 Z" />
</g>
</svg>
