<?xml version="1.0" encoding="UTF-8" ?>
<!DOCTYPE svg PUBLIC "-//W3C//DTD SVG 1.1//EN" "http://www.w3.org/Graphics/SVG/1.1/DTD/svg11.dtd">
<svg width="24pt" height="24pt" viewBox="0 0 24 24" version="1.1" xmlns="http://www.w3.org/2000/svg">
<g id="#050b1139">
<path fill="#050b11" opacity="0.22" d=" M 0.00 0.00 L 24.00 0.00 L 24.00 24.00 L 19.63 24.00 L 20.32 23.36 C 20.64 23.06 21.29 22.45 21.61 22.14 C 23.46 20.59 22.88 18.01 23.04 15.89 C 22.24 11.33 24.66 5.55 21.98 1.53 C 21.49 1.40 20.51 1.14 20.03 1.01 L 19.06 0.97 C 14.37 0.96 9.67 0.79 4.98 1.02 C 3.92 1.12 2.91 1.42 1.96 1.91 C -0.30 7.33 1.39 15.31 1.30 21.61 C 1.65 22.04 2.35 22.89 2.71 23.31 L 3.28 24.00 L 0.00 24.00 L 0.00 0.00 Z" />
</g>
<g id="#26292bff">
<path fill="#26292b" opacity="1.00" d=" M 1.96 1.91 C 2.91 1.42 3.92 1.12 4.98 1.02 C 5.01 2.81 5.05 6.37 5.07 8.16 C 5.03 10.69 4.96 13.23 4.88 15.77 C 4.44 16.09 3.56 16.74 3.11 17.07 C 2.82 17.31 2.24 17.80 1.96 18.05 C 1.92 12.67 2.01 7.29 1.96 1.91 Z" />
</g>
<g id="#385674ff">
<path fill="#385674" opacity="1.00" d=" M 4.98 1.02 C 9.67 0.79 14.37 0.96 19.06 0.97 C 19.12 3.88 20.22 7.83 16.34 7.04 C 14.71 3.75 10.89 5.00 8.87 7.16 C 7.62 7.56 6.35 7.87 5.07 8.16 C 5.05 6.37 5.01 2.81 4.98 1.02 Z" />
</g>
<g id="#2c4864ff">
<path fill="#2c4864" opacity="1.00" d=" M 19.06 0.97 L 20.03 1.01 C 20.01 6.30 20.01 11.60 20.00 16.90 L 19.14 16.79 C 14.42 16.03 9.64 16.07 4.88 15.77 C 4.96 13.23 5.03 10.69 5.07 8.16 C 6.35 7.87 7.62 7.56 8.87 7.16 C 8.87 9.44 10.37 12.36 13.00 12.02 C 16.03 12.77 16.02 9.03 16.34 7.04 C 20.22 7.83 19.12 3.88 19.06 0.97 Z" />
</g>
<g id="#1e1f20f7">
<path fill="#1e1f20" opacity="0.97" d=" M 20.03 1.01 C 20.51 1.14 21.49 1.40 21.98 1.53 C 20.89 6.66 20.91 11.91 20.99 17.12 C 20.99 18.82 21.21 20.50 21.61 22.14 C 21.29 22.45 20.64 23.06 20.32 23.36 C 20.12 21.22 20.03 19.06 20.00 16.90 C 20.01 11.60 20.01 6.30 20.03 1.01 Z" />
</g>
<g id="#111212f3">
<path fill="#111212" opacity="0.95" d=" M 1.30 21.61 C 1.39 15.31 -0.30 7.33 1.96 1.91 C 2.01 7.29 1.92 12.67 1.96 18.05 C 1.69 19.89 2.58 21.39 4.05 22.41 L 3.74 23.20 L 2.71 23.31 C 2.35 22.89 1.65 22.04 1.30 21.61 Z" />
</g>
<g id="#324960fb">
<path fill="#324960" opacity="1.00" d=" M 20.99 17.12 C 20.91 11.91 20.89 6.66 21.98 1.53 C 24.66 5.55 22.24 11.33 23.04 15.89 C 22.53 16.20 21.50 16.81 20.99 17.12 Z" />
</g>
<g id="#132d49ff">
<path fill="#132d49" opacity="1.00" d=" M 8.87 7.16 C 10.89 5.00 14.71 3.75 16.34 7.04 C 16.02 9.03 16.03 12.77 13.00 12.02 C 10.37 12.36 8.87 9.44 8.87 7.16 Z" />
</g>
<g id="#5c656fff">
<path fill="#5c656f" opacity="1.00" d=" M 3.11 17.07 C 3.56 16.74 4.44 16.09 4.88 15.77 C 9.64 16.07 14.42 16.03 19.14 16.79 C 13.83 17.62 8.44 18.02 3.11 17.07 Z" />
</g>
<g id="#7d8185fe">
<path fill="#7d8185" opacity="1.00" d=" M 20.99 17.12 C 21.50 16.81 22.53 16.20 23.04 15.89 C 22.88 18.01 23.46 20.59 21.61 22.14 C 21.21 20.50 20.99 18.82 20.99 17.12 Z" />
</g>
<g id="#cececdff">
<path fill="#cececd" opacity="1.00" d=" M 3.11 17.07 C 8.44 18.02 13.83 17.62 19.14 16.79 C 19.11 17.60 19.05 19.22 19.02 20.03 C 17.21 19.91 15.62 20.91 14.01 21.57 C 11.59 20.88 7.04 23.64 7.12 19.73 C 5.87 17.45 4.41 21.07 4.05 22.41 C 2.58 21.39 1.69 19.89 1.96 18.05 C 2.24 17.80 2.82 17.31 3.11 17.07 Z" />
</g>
<g id="#93878eff">
<path fill="#93878e" opacity="1.00" d=" M 19.14 16.79 L 20.00 16.90 C 20.03 19.06 20.12 21.22 20.32 23.36 C 14.81 23.10 9.26 22.76 3.74 23.20 L 4.05 22.41 C 4.41 21.07 5.87 17.45 7.12 19.73 C 7.04 23.64 11.59 20.88 14.01 21.57 C 15.71 22.32 19.56 23.10 19.02 20.03 C 19.05 19.22 19.11 17.60 19.14 16.79 Z" />
</g>
<g id="#f6f5f3ff">
<path fill="#f6f5f3" opacity="1.00" d=" M 14.01 21.57 C 15.62 20.91 17.21 19.91 19.02 20.03 C 19.56 23.10 15.71 22.32 14.01 21.57 Z" />
</g>
<g id="#030c1769">
<path fill="#030c17" opacity="0.41" d=" M 2.71 23.31 L 3.74 23.20 C 9.26 22.76 14.81 23.10 20.32 23.36 L 19.63 24.00 L 3.28 24.00 L 2.71 23.31 Z" />
</g>
</svg>
