<?xml version="1.0" encoding="UTF-8" ?>
<!DOCTYPE svg PUBLIC "-//W3C//DTD SVG 1.1//EN" "http://www.w3.org/Graphics/SVG/1.1/DTD/svg11.dtd">
<svg width="48pt" height="48pt" viewBox="0 0 48 48" version="1.1" xmlns="http://www.w3.org/2000/svg">
<g id="#ef7632fe">
<path fill="#ef7632" opacity="1.00" d=" M 21.06 0.00 L 26.38 0.00 C 37.34 1.02 46.56 10.19 48.00 21.04 L 48.00 26.40 C 46.95 37.48 37.55 46.89 26.48 48.00 L 21.66 48.00 C 10.56 46.99 1.13 37.58 0.00 26.50 L 0.00 21.35 C 1.20 10.50 10.27 1.41 21.06 0.00 M 17.57 3.80 C 7.63 6.78 0.97 17.79 3.15 27.96 C 4.60 36.39 11.61 43.46 20.02 45.00 C 29.58 47.07 39.98 41.45 43.67 32.43 C 47.05 24.84 45.31 15.41 39.55 9.46 C 34.10 3.60 25.18 1.20 17.57 3.80 Z" />
<path fill="#ef7632" opacity="1.00" d=" M 9.98 11.26 C 10.68 11.22 12.09 11.14 12.79 11.10 C 13.33 14.98 12.73 18.88 12.86 22.77 C 14.75 22.80 16.65 22.82 18.55 22.85 C 18.54 18.95 18.52 15.04 18.58 11.14 C 19.27 11.16 20.65 11.20 21.34 11.22 C 21.58 19.74 21.55 28.29 21.36 36.80 C 20.67 36.85 19.29 36.93 18.60 36.98 C 18.51 33.10 18.55 29.23 18.54 25.35 C 16.74 25.34 14.94 25.31 13.14 25.29 C 12.58 29.13 13.02 33.01 12.92 36.88 C 12.17 36.86 10.67 36.81 9.93 36.79 C 9.85 28.28 9.74 19.77 9.98 11.26 Z" />
<path fill="#ef7632" opacity="1.00" d=" M 26.17 11.17 C 27.20 11.20 28.22 11.24 29.25 11.29 C 31.14 17.29 32.92 23.32 35.10 29.22 C 35.41 23.20 35.13 17.18 35.26 11.15 C 35.98 11.19 37.43 11.25 38.15 11.28 C 38.21 19.79 38.17 28.31 38.17 36.82 C 37.35 36.83 35.73 36.84 34.91 36.84 C 33.09 30.95 31.08 25.11 29.47 19.15 C 28.32 25.05 29.71 31.05 28.80 36.96 C 28.14 36.93 26.81 36.86 26.15 36.83 C 26.16 28.28 26.13 19.72 26.17 11.17 Z" />
</g>
<g id="#ffffffff">
<path fill="#ffffff" opacity="1.00" d=" M 17.57 3.80 C 25.18 1.20 34.10 3.60 39.55 9.46 C 45.31 15.41 47.05 24.84 43.67 32.43 C 39.98 41.45 29.58 47.07 20.02 45.00 C 11.61 43.46 4.60 36.39 3.15 27.96 C 0.97 17.79 7.63 6.78 17.57 3.80 M 9.98 11.26 C 9.74 19.77 9.85 28.28 9.93 36.79 C 10.67 36.81 12.17 36.86 12.92 36.88 C 13.02 33.01 12.58 29.13 13.14 25.29 C 14.94 25.31 16.74 25.34 18.54 25.35 C 18.55 29.23 18.51 33.10 18.60 36.98 C 19.29 36.93 20.67 36.85 21.36 36.80 C 21.55 28.29 21.58 19.74 21.34 11.22 C 20.65 11.20 19.27 11.16 18.58 11.14 C 18.52 15.04 18.54 18.95 18.55 22.85 C 16.65 22.82 14.75 22.80 12.86 22.77 C 12.73 18.88 13.33 14.98 12.79 11.10 C 12.09 11.14 10.68 11.22 9.98 11.26 M 26.17 11.17 C 26.13 19.72 26.16 28.28 26.15 36.83 C 26.81 36.86 28.14 36.93 28.80 36.96 C 29.71 31.05 28.32 25.05 29.47 19.15 C 31.08 25.11 33.09 30.95 34.91 36.84 C 35.73 36.84 37.35 36.83 38.17 36.82 C 38.17 28.31 38.21 19.79 38.15 11.28 C 37.43 11.25 35.98 11.19 35.26 11.15 C 35.13 17.18 35.41 23.20 35.10 29.22 C 32.92 23.32 31.14 17.29 29.25 11.29 C 28.22 11.24 27.20 11.20 26.17 11.17 Z" />
</g>
</svg>
