<?xml version="1.0" encoding="UTF-8" ?>
<!DOCTYPE svg PUBLIC "-//W3C//DTD SVG 1.1//EN" "http://www.w3.org/Graphics/SVG/1.1/DTD/svg11.dtd">
<svg width="32pt" height="32pt" viewBox="0 0 32 32" version="1.1" xmlns="http://www.w3.org/2000/svg">
<g id="#418bcaff">
<path fill="#418bca" opacity="1.00" d=" M 0.00 0.00 L 32.00 0.00 L 32.00 22.00 C 29.03 22.00 26.06 22.00 23.09 22.00 C 22.46 20.78 21.82 19.57 21.18 18.36 C 26.90 15.85 27.94 6.78 22.41 3.56 C 17.23 0.88 11.12 2.40 5.53 2.01 C 5.51 8.68 5.53 15.34 5.52 22.00 C 3.68 22.00 1.84 22.00 0.00 22.00 L 0.00 0.00 Z" />
<path fill="#418bca" opacity="1.00" d=" M 11.23 6.63 C 13.47 6.68 15.78 6.37 17.98 6.95 C 21.23 8.12 21.19 13.63 17.87 14.69 C 15.71 15.27 13.43 14.93 11.22 14.98 C 11.22 12.20 11.22 9.42 11.23 6.63 Z" />
<path fill="#418bca" opacity="1.00" d=" M 11.23 19.62 C 12.75 19.63 14.27 19.64 15.79 19.63 C 16.09 20.22 16.69 21.41 16.99 22.01 C 15.06 22.00 13.14 22.00 11.22 21.99 C 11.22 21.40 11.23 20.22 11.23 19.62 Z" />
</g>
<g id="#ffffffff">
<path fill="#ffffff" opacity="1.00" d=" M 5.53 2.01 C 11.12 2.40 17.23 0.88 22.41 3.56 C 27.94 6.78 26.90 15.85 21.18 18.36 C 21.82 19.57 22.46 20.78 23.09 22.00 C 24.49 24.65 25.87 27.30 27.20 29.99 C 25.13 30.00 23.07 30.01 21.01 29.99 C 19.63 27.35 18.32 24.67 16.99 22.01 C 16.69 21.41 16.09 20.22 15.79 19.63 C 14.27 19.64 12.75 19.63 11.23 19.62 C 11.23 20.22 11.22 21.40 11.22 21.99 C 11.23 24.66 11.23 27.32 11.21 29.99 C 9.32 30.00 7.43 30.00 5.54 30.00 C 5.52 27.33 5.51 24.67 5.52 22.00 C 5.53 15.34 5.51 8.68 5.53 2.01 M 11.23 6.63 C 11.22 9.42 11.22 12.20 11.22 14.98 C 13.43 14.93 15.71 15.27 17.87 14.69 C 21.19 13.63 21.23 8.12 17.98 6.95 C 15.78 6.37 13.47 6.68 11.23 6.63 Z" />
</g>
<g id="#efad4dff">
<path fill="#efad4d" opacity="1.00" d=" M 0.00 22.00 C 1.84 22.00 3.68 22.00 5.52 22.00 C 5.51 24.67 5.52 27.33 5.54 30.00 C 7.43 30.00 9.32 30.00 11.21 29.99 C 11.23 27.32 11.23 24.66 11.22 21.99 C 13.14 22.00 15.06 22.00 16.99 22.01 C 18.32 24.67 19.63 27.35 21.01 29.99 C 23.07 30.01 25.13 30.00 27.20 29.99 C 25.87 27.30 24.49 24.65 23.09 22.00 C 26.06 22.00 29.03 22.00 32.00 22.00 L 32.00 32.00 L 0.00 32.00 L 0.00 22.00 Z" />
</g>
</svg>
