<?xml version="1.0" encoding="UTF-8" ?>
<!DOCTYPE svg PUBLIC "-//W3C//DTD SVG 1.1//EN" "http://www.w3.org/Graphics/SVG/1.1/DTD/svg11.dtd">
<svg width="48pt" height="48pt" viewBox="0 0 48 48" version="1.1" xmlns="http://www.w3.org/2000/svg">
<g id="#ffd000ff">
<path fill="#ffd000" opacity="1.00" d=" M 9.02 8.61 C 20.54 8.62 32.06 8.60 43.58 8.62 C 41.61 18.86 40.18 29.19 38.12 39.41 C 26.64 39.41 15.17 39.42 3.69 39.41 C 5.28 29.11 7.26 18.88 9.02 8.61 M 14.95 15.00 C 13.91 19.42 13.42 23.92 12.61 28.38 C 19.27 28.35 25.92 28.43 32.58 28.46 C 33.50 24.01 34.47 19.55 34.87 15.01 C 28.23 15.00 21.59 15.00 14.95 15.00 Z" />
<path fill="#ffd000" opacity="1.00" d=" M 19.86 18.50 C 22.76 18.39 25.66 18.39 28.56 18.43 C 28.27 20.55 27.88 22.66 27.49 24.76 C 24.71 24.77 21.93 24.77 19.16 24.77 C 19.39 22.68 19.63 20.59 19.86 18.50 Z" />
</g>
</svg>
