<?xml version="1.0" encoding="UTF-8" ?>
<!DOCTYPE svg PUBLIC "-//W3C//DTD SVG 1.1//EN" "http://www.w3.org/Graphics/SVG/1.1/DTD/svg11.dtd">
<svg width="16pt" height="16pt" viewBox="0 0 16 16" version="1.1" xmlns="http://www.w3.org/2000/svg">
<g id="#457bbbff">
<path fill="#457bbb" opacity="1.00" d=" M 0.00 0.00 L 16.00 0.00 L 16.00 16.00 L 0.00 16.00 L 0.00 0.00 M 4.85 3.55 C 4.89 6.43 4.90 9.31 4.86 12.19 L 6.15 12.23 C 6.20 11.28 6.28 9.37 6.33 8.41 C 7.88 9.93 9.44 11.45 11.18 12.75 C 10.57 11.47 9.94 10.21 9.32 8.93 C 9.85 7.98 10.23 6.97 10.44 5.89 C 10.29 3.11 6.75 3.91 4.85 3.55 Z" />
<path fill="#457bbb" opacity="1.00" d=" M 6.19 5.06 C 6.94 5.06 8.43 5.06 9.18 5.06 C 9.17 6.73 7.88 7.84 6.33 8.09 C 6.29 7.33 6.22 5.82 6.19 5.06 Z" />
</g>
<g id="#bed1e7ff">
<path fill="#bed1e7" opacity="1.00" d=" M 4.85 3.55 C 6.75 3.91 10.29 3.11 10.44 5.89 C 10.23 6.97 9.85 7.98 9.32 8.93 C 9.94 10.21 10.57 11.47 11.18 12.75 C 9.44 11.45 7.88 9.93 6.33 8.41 C 6.28 9.37 6.20 11.28 6.15 12.23 L 4.86 12.19 C 4.90 9.31 4.89 6.43 4.85 3.55 M 6.19 5.06 C 6.22 5.82 6.29 7.33 6.33 8.09 C 7.88 7.84 9.17 6.73 9.18 5.06 C 8.43 5.06 6.94 5.06 6.19 5.06 Z" />
</g>
</svg>
