<?xml version="1.0" encoding="UTF-8" ?>
<!DOCTYPE svg PUBLIC "-//W3C//DTD SVG 1.1//EN" "http://www.w3.org/Graphics/SVG/1.1/DTD/svg11.dtd">
<svg width="32pt" height="32pt" viewBox="0 0 32 32" version="1.1" xmlns="http://www.w3.org/2000/svg">
<g id="#ffffffff">
<path fill="#ffffff" opacity="1.00" d=" M 0.00 0.00 L 16.00 0.00 C 16.00 4.88 16.00 9.76 16.00 14.64 C 14.03 12.57 11.90 10.66 9.85 8.66 C 8.89 9.15 8.33 9.91 8.19 10.92 C 9.53 12.66 11.16 14.14 12.70 15.69 C 8.48 16.10 4.23 16.15 0.00 15.78 L 0.00 0.00 Z" />
<path fill="#ffffff" opacity="1.00" d=" M 18.14 16.82 C 18.42 16.57 18.98 16.06 19.27 15.81 C 23.51 15.92 27.75 16.05 32.00 16.16 L 32.00 32.00 L 16.00 32.00 C 16.00 27.66 16.00 23.32 16.00 18.99 C 18.28 20.81 19.97 24.21 22.99 24.59 C 23.24 24.19 23.74 23.40 23.99 23.00 C 22.27 20.74 20.14 18.83 18.14 16.82 Z" />
</g>
<g id="#cad8ecff">
<path fill="#cad8ec" opacity="1.00" d=" M 16.00 0.00 L 32.00 0.00 L 32.00 16.16 C 27.75 16.05 23.51 15.92 19.27 15.81 C 20.85 14.23 22.46 12.66 23.78 10.85 C 23.80 9.70 23.20 9.06 22.00 8.93 C 19.82 10.63 17.96 12.70 16.00 14.64 C 16.00 9.76 16.00 4.88 16.00 0.00 Z" />
<path fill="#cad8ec" opacity="1.00" d=" M 12.70 15.69 C 12.99 15.97 13.56 16.52 13.84 16.80 C 11.76 18.97 9.29 20.90 7.95 23.66 C 8.45 23.96 9.46 24.56 9.96 24.87 C 12.01 22.94 14.07 21.03 16.00 18.99 C 16.00 23.32 16.00 27.66 16.00 32.00 L 0.00 32.00 L 0.00 15.78 C 4.23 16.15 8.48 16.10 12.70 15.69 Z" />
</g>
<g id="#5593deff">
<path fill="#5593de" opacity="1.00" d=" M 8.19 10.92 C 8.33 9.91 8.89 9.15 9.85 8.66 C 11.90 10.66 14.03 12.57 16.00 14.64 C 17.96 12.70 19.82 10.63 22.00 8.93 C 23.20 9.06 23.80 9.70 23.78 10.85 C 22.46 12.66 20.85 14.23 19.27 15.81 C 18.98 16.06 18.42 16.57 18.14 16.82 C 20.14 18.83 22.27 20.74 23.99 23.00 C 23.74 23.40 23.24 24.19 22.99 24.59 C 19.97 24.21 18.28 20.81 16.00 18.99 C 14.07 21.03 12.01 22.94 9.96 24.87 C 9.46 24.56 8.45 23.96 7.95 23.66 C 9.29 20.90 11.76 18.97 13.84 16.80 C 13.56 16.52 12.99 15.97 12.70 15.69 C 11.16 14.14 9.53 12.66 8.19 10.92 Z" />
</g>
</svg>
