<?xml version="1.0" encoding="UTF-8" ?>
<!DOCTYPE svg PUBLIC "-//W3C//DTD SVG 1.1//EN" "http://www.w3.org/Graphics/SVG/1.1/DTD/svg11.dtd">
<svg width="32pt" height="32pt" viewBox="0 0 32 32" version="1.1" xmlns="http://www.w3.org/2000/svg">
<g id="#57686fff">
<path fill="#57686f" opacity="1.00" d=" M 0.58 14.09 C 0.74 5.30 10.47 -1.77 18.92 0.44 C 24.40 1.36 28.91 5.55 30.93 10.62 C 30.53 14.07 30.37 18.09 27.47 20.49 C 24.91 23.09 21.13 23.45 17.75 24.14 C 20.73 22.00 23.97 19.64 24.80 15.82 C 26.54 11.34 24.38 6.56 21.20 3.34 C 22.73 7.06 23.96 10.89 24.71 14.84 C 22.06 10.67 18.47 6.06 12.98 6.23 C 7.86 5.72 4.13 9.72 1.23 13.35 L 0.58 14.09 Z" />
</g>
<g id="#e7e7e9ff">
<path fill="#e7e7e9" opacity="1.00" d=" M 21.20 3.34 C 24.38 6.56 26.54 11.34 24.80 15.82 C 23.97 19.64 20.73 22.00 17.75 24.14 C 21.13 23.45 24.91 23.09 27.47 20.49 C 30.37 18.09 30.53 14.07 30.93 10.62 C 31.62 12.95 31.60 15.36 31.42 17.75 L 30.91 18.49 C 27.92 21.63 24.82 25.68 20.02 25.64 C 14.36 26.20 10.10 21.77 7.41 17.34 C 8.05 20.48 8.16 24.05 10.44 26.54 C 13.03 29.71 17.38 30.05 21.04 31.12 C 18.75 31.52 16.43 31.65 14.12 31.47 L 13.43 30.88 C 12.62 30.18 11.80 29.49 10.97 28.81 C 7.43 26.08 5.27 21.60 6.42 17.10 C 7.15 12.48 11.26 9.77 14.93 7.51 C 11.68 8.12 7.96 8.04 5.33 10.38 C 2.02 12.90 1.57 17.31 0.95 21.12 C 0.23 18.59 -0.04 15.76 1.23 13.35 C 4.13 9.72 7.86 5.72 12.98 6.23 C 18.47 6.06 22.06 10.67 24.71 14.84 C 23.96 10.89 22.73 7.06 21.20 3.34 M 13.39 12.48 C 11.03 14.08 11.01 17.74 13.37 19.35 C 15.89 21.98 20.58 19.36 20.45 16.02 C 20.78 12.55 15.97 9.99 13.39 12.48 Z" />
</g>
<g id="#58686ffe">
<path fill="#58686f" opacity="1.00" d=" M 5.33 10.38 C 7.96 8.04 11.68 8.12 14.93 7.51 C 11.26 9.77 7.15 12.48 6.42 17.10 C 5.27 21.60 7.43 26.08 10.97 28.81 C 11.80 29.49 12.62 30.18 13.43 30.88 C 7.72 31.46 2.87 26.11 0.95 21.12 C 1.57 17.31 2.02 12.90 5.33 10.38 Z" />
</g>
<g id="#505152ff">
<path fill="#505152" opacity="1.00" d=" M 13.39 12.48 C 15.97 9.99 20.78 12.55 20.45 16.02 C 20.58 19.36 15.89 21.98 13.37 19.35 C 11.01 17.74 11.03 14.08 13.39 12.48 Z" />
</g>
<g id="#596a71ff">
<path fill="#596a71" opacity="1.00" d=" M 7.41 17.34 C 10.10 21.77 14.36 26.20 20.02 25.64 C 24.82 25.68 27.92 21.63 30.91 18.49 C 31.39 24.43 25.89 28.75 21.04 31.12 C 17.38 30.05 13.03 29.71 10.44 26.54 C 8.16 24.05 8.05 20.48 7.41 17.34 Z" />
</g>
</svg>
