<?xml version="1.0" encoding="UTF-8" ?>
<!DOCTYPE svg PUBLIC "-//W3C//DTD SVG 1.1//EN" "http://www.w3.org/Graphics/SVG/1.1/DTD/svg11.dtd">
<svg width="194pt" height="194pt" viewBox="0 0 194 194" version="1.1" xmlns="http://www.w3.org/2000/svg">
<g id="#e30013ff">
<path fill="#e30013" opacity="1.00" d=" M 0.00 0.00 L 194.00 0.00 L 194.00 194.00 L 0.00 194.00 L 0.00 0.00 M 77.97 30.00 C 70.15 36.98 68.65 48.09 68.25 57.99 C 68.22 95.25 68.24 132.50 68.25 169.75 C 74.18 169.77 80.12 169.76 86.05 169.76 C 86.24 143.84 86.05 117.92 86.15 92.01 C 86.17 89.89 86.07 87.78 85.91 85.68 C 92.95 85.18 100.04 85.61 107.10 85.46 C 107.16 80.66 107.12 75.86 107.13 71.06 C 100.13 71.06 93.13 71.06 86.13 71.06 C 86.37 63.46 85.40 55.73 87.21 48.26 C 88.06 44.69 90.38 41.44 93.62 39.67 C 97.65 37.35 102.51 37.37 107.00 37.81 C 107.24 33.03 107.13 28.24 107.07 23.46 C 97.11 22.71 85.90 23.09 77.97 30.00 M 121.85 24.24 C 121.96 35.02 121.73 45.81 121.98 56.59 C 137.91 56.55 153.84 56.55 169.77 56.59 C 169.75 45.81 169.78 35.03 169.75 24.25 C 153.79 24.23 137.82 24.24 121.85 24.24 M 41.87 76.83 C 37.23 80.92 34.70 86.69 32.55 92.34 C 32.36 85.23 32.52 78.11 32.46 71.00 C 29.71 71.05 26.96 71.08 24.21 71.05 C 24.28 103.95 24.21 136.85 24.25 169.75 C 27.01 169.75 29.77 169.76 32.53 169.80 C 32.38 151.19 32.50 132.58 32.47 113.97 C 32.40 103.87 35.01 93.34 41.66 85.52 C 46.07 80.29 52.71 77.23 59.50 76.83 C 59.47 74.42 59.46 72.00 59.46 69.58 C 52.96 69.67 46.49 72.23 41.87 76.83 M 121.87 71.06 C 121.86 103.96 121.89 136.86 121.85 169.76 C 137.82 169.76 153.79 169.77 169.75 169.75 C 169.79 136.85 169.72 103.95 169.79 71.05 C 153.81 71.08 137.84 71.05 121.87 71.06 Z" />
</g>
<g id="#ffffffff">
<path fill="#ffffff" opacity="1.00" d=" M 77.97 30.00 C 85.90 23.09 97.11 22.71 107.07 23.46 C 107.13 28.24 107.24 33.03 107.00 37.81 C 102.51 37.37 97.65 37.35 93.62 39.67 C 90.38 41.44 88.06 44.69 87.21 48.26 C 85.40 55.73 86.37 63.46 86.13 71.06 C 93.13 71.06 100.13 71.06 107.13 71.06 C 107.12 75.86 107.16 80.66 107.10 85.46 C 100.04 85.61 92.95 85.18 85.91 85.68 C 86.07 87.78 86.17 89.89 86.15 92.01 C 86.05 117.92 86.24 143.84 86.05 169.76 C 80.12 169.76 74.18 169.77 68.25 169.75 C 68.24 132.50 68.22 95.25 68.25 57.99 C 68.65 48.09 70.15 36.98 77.97 30.00 Z" />
<path fill="#ffffff" opacity="1.00" d=" M 121.85 24.24 C 137.82 24.24 153.79 24.23 169.75 24.25 C 169.78 35.03 169.75 45.81 169.77 56.59 C 153.84 56.55 137.91 56.55 121.98 56.59 C 121.73 45.81 121.96 35.02 121.85 24.24 Z" />
<path fill="#ffffff" opacity="1.00" d=" M 41.87 76.83 C 46.49 72.23 52.96 69.67 59.46 69.58 C 59.46 72.00 59.47 74.42 59.50 76.83 C 52.71 77.23 46.07 80.29 41.66 85.52 C 35.01 93.34 32.40 103.87 32.47 113.97 C 32.50 132.58 32.38 151.19 32.53 169.80 C 29.77 169.76 27.01 169.75 24.25 169.75 C 24.21 136.85 24.28 103.95 24.21 71.05 C 26.96 71.08 29.71 71.05 32.46 71.00 C 32.52 78.11 32.36 85.23 32.55 92.34 C 34.70 86.69 37.23 80.92 41.87 76.83 Z" />
<path fill="#ffffff" opacity="1.00" d=" M 121.87 71.06 C 137.84 71.05 153.81 71.08 169.79 71.05 C 169.72 103.95 169.79 136.85 169.75 169.75 C 153.79 169.77 137.82 169.76 121.85 169.76 C 121.89 136.86 121.86 103.96 121.87 71.06 Z" />
</g>
</svg>
