<?xml version="1.0" encoding="UTF-8" ?>
<!DOCTYPE svg PUBLIC "-//W3C//DTD SVG 1.1//EN" "http://www.w3.org/Graphics/SVG/1.1/DTD/svg11.dtd">
<svg width="180pt" height="180pt" viewBox="0 0 180 180" version="1.1" xmlns="http://www.w3.org/2000/svg">
<g id="#000000ff">
<path fill="#000000" opacity="1.00" d=" M 0.00 0.00 L 180.00 0.00 L 180.00 180.00 L 0.00 180.00 L 0.00 0.00 M 22.24 68.69 C 22.15 83.06 22.25 97.42 22.19 111.78 C 24.61 111.75 27.02 111.76 29.44 111.73 C 29.50 106.43 29.45 101.12 29.48 95.82 C 32.39 95.80 35.30 95.77 38.20 95.63 C 40.37 100.99 42.41 106.40 44.55 111.77 C 47.25 111.77 49.94 111.77 52.64 111.66 C 50.05 105.56 47.15 99.54 45.15 93.22 C 52.02 89.21 52.24 78.29 47.27 72.72 C 40.46 66.63 30.53 69.31 22.24 68.69 M 59.29 95.54 C 61.71 95.54 64.12 95.54 66.54 95.54 C 66.53 86.59 66.54 77.64 66.54 68.69 C 64.12 68.70 61.71 68.70 59.29 68.69 C 59.29 77.64 59.29 86.59 59.29 95.54 M 79.83 68.70 C 79.76 78.75 79.95 88.81 79.74 98.87 C 79.79 102.40 76.48 105.18 73.09 105.29 C 68.26 105.85 63.65 103.95 59.33 102.03 C 59.31 104.55 59.13 107.08 59.44 109.59 C 65.45 112.74 72.87 113.52 79.31 111.26 C 84.27 109.42 87.04 104.22 87.21 99.13 C 87.27 88.99 87.21 78.85 87.22 68.70 C 84.76 68.70 82.29 68.70 79.83 68.70 M 96.83 68.70 C 96.83 83.04 96.81 97.38 96.84 111.72 C 99.33 111.76 101.82 111.76 104.32 111.71 C 104.38 105.34 104.08 98.96 104.52 92.59 C 108.85 99.15 113.82 105.27 118.52 111.55 C 121.64 112.03 124.82 111.69 127.96 111.67 C 122.31 104.16 116.25 96.94 110.92 89.20 C 116.43 82.41 122.00 75.66 127.32 68.72 C 124.24 68.69 121.16 68.70 118.08 68.69 C 113.53 74.60 108.82 80.38 104.41 86.40 C 104.19 80.50 104.34 74.59 104.30 68.69 C 101.81 68.70 99.32 68.70 96.83 68.70 M 135.77 70.77 C 129.57 74.69 128.66 84.93 134.41 89.62 C 138.44 93.24 144.40 93.18 148.64 96.46 C 151.06 98.77 149.88 103.52 146.69 104.60 C 141.32 106.74 135.36 104.65 130.52 102.08 C 130.53 104.67 130.53 107.27 130.56 109.86 C 137.19 113.02 145.58 113.84 152.06 109.89 C 158.27 105.97 159.66 95.95 154.16 90.90 C 150.24 87.09 144.28 87.08 139.91 84.05 C 137.22 82.00 137.87 77.31 141.02 76.02 C 146.06 74.06 151.72 75.54 156.35 77.97 C 156.38 75.50 156.39 73.04 156.44 70.58 C 153.26 68.72 149.61 68.19 146.00 67.94 C 142.46 68.22 138.76 68.70 135.77 70.77 Z" />
<path fill="#000000" opacity="1.00" d=" M 29.47 75.63 C 33.77 75.75 39.43 74.75 42.27 78.87 C 43.01 81.14 43.27 83.86 42.10 86.03 C 40.15 89.02 36.18 89.04 33.00 89.13 C 31.84 89.14 30.68 89.15 29.53 89.16 C 29.43 84.65 29.48 80.14 29.47 75.63 Z" />
</g>
<g id="#ffffffff">
<path fill="#ffffff" opacity="1.00" d=" M 22.24 68.69 C 30.53 69.31 40.46 66.63 47.27 72.72 C 52.24 78.29 52.02 89.21 45.15 93.22 C 47.15 99.54 50.05 105.56 52.64 111.66 C 49.94 111.77 47.25 111.77 44.55 111.77 C 42.41 106.40 40.37 100.99 38.20 95.63 C 35.30 95.77 32.39 95.80 29.48 95.82 C 29.45 101.12 29.50 106.43 29.44 111.73 C 27.02 111.76 24.61 111.75 22.19 111.78 C 22.25 97.42 22.15 83.06 22.24 68.69 M 29.47 75.63 C 29.48 80.14 29.43 84.65 29.53 89.16 C 30.68 89.15 31.84 89.14 33.00 89.13 C 36.18 89.04 40.15 89.02 42.10 86.03 C 43.27 83.86 43.01 81.14 42.27 78.87 C 39.43 74.75 33.77 75.75 29.47 75.63 Z" />
<path fill="#ffffff" opacity="1.00" d=" M 59.29 95.54 C 59.29 86.59 59.29 77.64 59.29 68.69 C 61.71 68.70 64.12 68.70 66.54 68.69 C 66.54 77.64 66.53 86.59 66.54 95.54 C 64.12 95.54 61.71 95.54 59.29 95.54 Z" />
<path fill="#ffffff" opacity="1.00" d=" M 79.83 68.70 C 82.29 68.70 84.76 68.70 87.22 68.70 C 87.21 78.85 87.27 88.99 87.21 99.13 C 87.04 104.22 84.27 109.42 79.31 111.26 C 72.87 113.52 65.45 112.74 59.44 109.59 C 59.13 107.08 59.31 104.55 59.33 102.03 C 63.65 103.95 68.26 105.85 73.09 105.29 C 76.48 105.18 79.79 102.40 79.74 98.87 C 79.95 88.81 79.76 78.75 79.83 68.70 Z" />
<path fill="#ffffff" opacity="1.00" d=" M 96.83 68.70 C 99.32 68.70 101.81 68.70 104.30 68.69 C 104.34 74.59 104.19 80.50 104.41 86.40 C 108.82 80.38 113.53 74.60 118.08 68.69 C 121.16 68.70 124.24 68.69 127.32 68.72 C 122.00 75.66 116.43 82.41 110.92 89.20 C 116.25 96.94 122.31 104.16 127.96 111.67 C 124.82 111.69 121.64 112.03 118.52 111.55 C 113.82 105.27 108.85 99.15 104.52 92.59 C 104.08 98.96 104.38 105.34 104.32 111.71 C 101.82 111.76 99.33 111.76 96.84 111.72 C 96.81 97.38 96.83 83.04 96.83 68.70 Z" />
<path fill="#ffffff" opacity="1.00" d=" M 135.77 70.77 C 138.76 68.70 142.46 68.22 146.00 67.94 C 149.61 68.19 153.26 68.72 156.44 70.58 C 156.39 73.04 156.38 75.50 156.35 77.97 C 151.72 75.54 146.06 74.06 141.02 76.02 C 137.87 77.31 137.22 82.00 139.91 84.05 C 144.28 87.08 150.24 87.09 154.16 90.90 C 159.66 95.95 158.27 105.97 152.06 109.89 C 145.58 113.84 137.19 113.02 130.56 109.86 C 130.53 107.27 130.53 104.67 130.52 102.08 C 135.36 104.65 141.32 106.74 146.69 104.60 C 149.88 103.52 151.06 98.77 148.64 96.46 C 144.40 93.18 138.44 93.24 134.41 89.62 C 128.66 84.93 129.57 74.69 135.77 70.77 Z" />
</g>
</svg>
