<?xml version="1.0" encoding="UTF-8" ?>
<!DOCTYPE svg PUBLIC "-//W3C//DTD SVG 1.1//EN" "http://www.w3.org/Graphics/SVG/1.1/DTD/svg11.dtd">
<svg width="64pt" height="64pt" viewBox="0 0 64 64" version="1.1" xmlns="http://www.w3.org/2000/svg">
<g id="#ffffffff">
<path fill="#ffffff" opacity="1.00" d=" M 0.00 0.00 L 64.00 0.00 L 64.00 64.00 L 0.00 64.00 L 0.00 0.00 M 33.02 2.73 C 27.55 17.09 22.27 31.52 16.61 45.81 C 15.94 48.44 13.18 49.42 11.91 51.61 C 16.30 51.64 20.84 52.45 25.11 51.20 C 23.17 50.48 20.33 50.62 19.80 48.06 C 19.69 45.52 20.81 43.18 21.59 40.83 C 25.06 31.67 28.52 22.51 31.96 13.34 C 35.88 23.31 39.94 33.21 43.89 43.16 C 44.74 45.11 44.80 47.24 44.79 49.33 C 42.94 50.02 41.08 50.67 39.31 51.55 C 45.45 51.79 51.72 52.35 57.79 51.18 C 55.06 50.62 52.83 48.87 51.94 46.18 C 46.63 33.32 41.51 20.38 36.33 7.47 C 35.52 5.71 35.31 3.17 33.02 2.73 Z" />
</g>
<g id="#000000ff">
<path fill="#000000" opacity="1.00" d=" M 33.02 2.73 C 35.31 3.17 35.52 5.71 36.33 7.47 C 41.51 20.38 46.63 33.32 51.94 46.18 C 52.83 48.87 55.06 50.62 57.79 51.18 C 51.72 52.35 45.45 51.79 39.31 51.55 C 41.08 50.67 42.94 50.02 44.79 49.33 C 44.80 47.24 44.74 45.11 43.89 43.16 C 39.94 33.21 35.88 23.31 31.96 13.34 C 28.52 22.51 25.06 31.67 21.59 40.83 C 20.81 43.18 19.69 45.52 19.80 48.06 C 20.33 50.62 23.17 50.48 25.11 51.20 C 20.84 52.45 16.30 51.64 11.91 51.61 C 13.18 49.42 15.94 48.44 16.61 45.81 C 22.27 31.52 27.55 17.09 33.02 2.73 Z" />
</g>
</svg>
