<?xml version="1.0" encoding="UTF-8" ?>
<!DOCTYPE svg PUBLIC "-//W3C//DTD SVG 1.1//EN" "http://www.w3.org/Graphics/SVG/1.1/DTD/svg11.dtd">
<svg width="512pt" height="512pt" viewBox="0 0 512 512" version="1.1" xmlns="http://www.w3.org/2000/svg">
<g id="#292f33ff">
<path fill="#292f33" opacity="1.00" d=" M 64.34 94.48 C 68.56 94.20 72.80 94.35 77.02 94.32 C 198.04 94.32 319.05 94.34 440.06 94.31 C 453.61 93.97 467.53 97.44 478.68 105.32 C 487.49 111.55 493.84 120.98 496.48 131.42 C 498.11 137.48 498.61 143.77 498.52 150.03 C 498.50 217.02 498.56 284.01 498.49 351.00 C 497.65 366.96 491.47 383.54 478.63 393.68 C 467.55 402.50 452.81 404.94 439.01 404.45 C 315.03 404.44 191.04 404.47 67.06 404.44 C 54.13 403.39 40.96 399.55 30.78 391.23 C 21.89 384.06 16.26 373.35 14.44 362.16 C 13.19 355.51 13.52 348.73 13.48 342.01 C 13.48 279.69 13.48 217.36 13.48 155.04 C 13.26 145.29 13.58 135.27 17.24 126.10 C 21.53 114.52 30.90 105.23 42.10 100.24 C 49.09 97.03 56.69 95.18 64.34 94.48 M 52.16 187.06 C 44.60 200.42 41.96 215.92 40.78 231.04 C 39.89 246.08 40.58 261.31 43.96 276.02 C 46.14 285.21 49.21 294.44 54.91 302.08 C 58.03 306.13 62.45 310.15 67.92 309.84 C 77.18 309.83 86.43 309.83 95.69 309.84 L 94.94 309.08 C 96.14 309.78 97.63 309.45 98.96 309.57 C 115.99 309.38 133.04 309.67 150.07 309.43 C 156.32 309.31 160.36 303.55 161.70 298.00 C 162.68 293.72 161.89 289.28 162.54 284.96 C 163.18 282.87 161.63 281.06 161.73 279.01 C 161.78 254.66 161.74 230.31 161.75 205.95 C 161.89 199.35 162.89 192.66 161.68 186.11 C 160.21 180.33 155.13 175.65 149.03 175.58 C 132.36 175.33 115.68 175.63 99.00 175.43 C 97.66 175.51 96.21 175.27 94.96 175.89 L 95.72 175.12 C 86.15 175.24 76.57 175.08 67.00 175.21 C 60.14 175.60 55.45 181.63 52.16 187.06 M 350.22 186.08 C 348.87 192.26 350.19 198.73 350.22 205.03 C 350.30 228.68 350.19 252.33 350.27 275.98 C 350.55 283.28 348.16 290.67 350.15 297.88 C 351.45 301.28 352.70 305.06 355.85 307.23 C 358.15 309.09 361.17 309.56 364.04 309.51 C 380.36 309.55 396.68 309.43 413.00 309.57 C 414.32 309.50 415.74 309.71 417.00 309.16 L 416.31 309.85 C 425.55 309.83 434.78 309.83 444.02 309.84 C 447.19 310.03 450.24 308.71 452.64 306.71 C 457.13 303.02 460.16 297.90 462.57 292.68 C 468.12 280.19 470.33 266.51 471.28 252.96 C 472.14 236.90 471.19 220.61 467.04 205.03 C 464.66 196.57 461.50 188.04 455.71 181.29 C 452.96 178.18 449.32 175.28 444.98 175.21 C 435.42 175.08 425.85 175.24 416.29 175.12 L 417.02 175.86 C 415.74 175.29 414.30 175.49 412.96 175.43 C 396.31 175.62 379.65 175.33 363.01 175.57 C 356.84 175.61 351.88 180.37 350.22 186.08 M 196.43 189.64 C 191.16 191.72 188.46 197.58 188.61 203.00 C 188.62 229.34 188.63 255.69 188.60 282.04 C 188.57 285.16 189.03 288.46 190.96 291.03 C 193.70 294.74 198.43 296.53 202.95 296.42 C 236.97 296.40 270.98 296.41 304.99 296.42 C 308.94 296.36 313.22 296.90 316.78 294.82 C 321.31 292.34 323.48 287.00 323.39 282.01 C 323.34 255.00 323.46 227.99 323.33 200.98 C 323.44 193.92 316.77 188.59 310.02 188.63 C 274.68 188.52 239.32 188.64 203.97 188.57 C 201.43 188.59 198.80 188.63 196.43 189.64 M 51.39 350.57 C 45.14 351.64 40.12 357.65 40.42 364.03 C 40.33 371.19 46.92 377.52 54.06 377.25 C 188.72 377.26 323.39 377.27 458.06 377.24 C 465.54 377.49 472.26 370.43 471.56 362.97 C 471.34 356.04 464.92 350.14 458.02 350.34 C 325.68 350.28 193.33 350.34 60.99 350.31 C 57.79 350.33 54.57 350.13 51.39 350.57 Z" />
</g>
<g id="#ccd6ddff">
<path fill="#ccd6dd" opacity="1.00" d=" M 52.16 187.06 C 55.45 181.63 60.14 175.60 67.00 175.21 C 76.57 175.08 86.15 175.24 95.72 175.12 L 94.96 175.89 C 78.02 192.66 67.91 216.10 67.43 239.94 C 66.56 265.48 76.77 291.12 94.94 309.08 L 95.69 309.84 C 86.43 309.83 77.18 309.83 67.92 309.84 C 62.45 310.15 58.03 306.13 54.91 302.08 C 49.21 294.44 46.14 285.21 43.96 276.02 C 40.58 261.31 39.89 246.08 40.78 231.04 C 41.96 215.92 44.60 200.42 52.16 187.06 Z" />
<path fill="#ccd6dd" opacity="1.00" d=" M 416.29 175.12 C 425.85 175.24 435.42 175.08 444.98 175.21 C 449.32 175.28 452.96 178.18 455.71 181.29 C 461.50 188.04 464.66 196.57 467.04 205.03 C 471.19 220.61 472.14 236.90 471.28 252.96 C 470.33 266.51 468.12 280.19 462.57 292.68 C 460.16 297.90 457.13 303.02 452.64 306.71 C 450.24 308.71 447.19 310.03 444.02 309.84 C 434.78 309.83 425.55 309.83 416.31 309.85 L 417.00 309.16 C 435.44 290.94 445.69 264.83 444.54 238.93 C 443.79 215.43 433.71 192.41 417.02 175.86 L 416.29 175.12 Z" />
</g>
<g id="#000000ff">
<path fill="#000000" opacity="1.00" d=" M 94.96 175.89 C 96.21 175.27 97.66 175.51 99.00 175.43 C 115.68 175.63 132.36 175.33 149.03 175.58 C 155.13 175.65 160.21 180.33 161.68 186.11 C 161.80 191.41 161.70 196.72 161.70 202.02 C 151.54 202.18 141.39 205.94 134.03 213.02 C 125.59 220.87 120.79 232.46 121.30 243.98 C 121.66 257.89 129.89 271.22 142.08 277.89 C 148.01 281.52 154.98 282.34 161.67 283.36 C 162.43 288.14 161.36 293.13 161.70 298.00 C 160.36 303.55 156.32 309.31 150.07 309.43 C 133.04 309.67 115.99 309.38 98.96 309.57 C 97.63 309.45 96.14 309.78 94.94 309.08 C 76.77 291.12 66.56 265.48 67.43 239.94 C 67.91 216.10 78.02 192.66 94.96 175.89 Z" />
<path fill="#000000" opacity="1.00" d=" M 350.22 186.08 C 351.88 180.37 356.84 175.61 363.01 175.57 C 379.65 175.33 396.31 175.62 412.96 175.43 C 414.30 175.49 415.74 175.29 417.02 175.86 C 433.71 192.41 443.79 215.43 444.54 238.93 C 445.69 264.83 435.44 290.94 417.00 309.16 C 415.74 309.71 414.32 309.50 413.00 309.57 C 396.68 309.43 380.36 309.55 364.04 309.51 C 361.17 309.56 358.15 309.09 355.85 307.23 C 352.70 305.06 351.45 301.28 350.15 297.88 C 349.54 293.03 349.73 288.14 349.98 283.28 C 355.13 282.65 360.39 282.14 365.22 280.12 C 374.89 276.29 382.94 268.59 387.17 259.08 C 391.81 248.92 391.91 236.80 387.45 226.56 C 383.07 216.28 374.26 207.98 363.68 204.34 C 359.36 202.77 354.76 202.33 350.22 201.86 C 350.56 196.60 349.77 191.34 350.22 186.08 Z" />
<path fill="#000000" opacity="1.00" d=" M 51.39 350.57 C 54.57 350.13 57.79 350.33 60.99 350.31 C 193.33 350.34 325.68 350.28 458.02 350.34 C 464.92 350.14 471.34 356.04 471.56 362.97 C 472.26 370.43 465.54 377.49 458.06 377.24 C 323.39 377.27 188.72 377.26 54.06 377.25 C 46.92 377.52 40.33 371.19 40.42 364.03 C 40.12 357.65 45.14 351.64 51.39 350.57 Z" />
</g>
<g id="#66757fff">
<path fill="#66757f" opacity="1.00" d=" M 161.68 186.11 C 162.89 192.66 161.89 199.35 161.75 205.95 C 161.74 230.31 161.78 254.66 161.73 279.01 C 161.63 281.06 163.18 282.87 162.54 284.96 C 161.89 289.28 162.68 293.72 161.70 298.00 C 161.36 293.13 162.43 288.14 161.67 283.36 C 154.98 282.34 148.01 281.52 142.08 277.89 C 129.89 271.22 121.66 257.89 121.30 243.98 C 120.79 232.46 125.59 220.87 134.03 213.02 C 141.39 205.94 151.54 202.18 161.70 202.02 C 161.70 196.72 161.80 191.41 161.68 186.11 Z" />
<path fill="#66757f" opacity="1.00" d=" M 350.22 205.03 C 350.19 198.73 348.87 192.26 350.22 186.08 C 349.77 191.34 350.56 196.60 350.22 201.86 C 354.76 202.33 359.36 202.77 363.68 204.34 C 374.26 207.98 383.07 216.28 387.45 226.56 C 391.91 236.80 391.81 248.92 387.17 259.08 C 382.94 268.59 374.89 276.29 365.22 280.12 C 360.39 282.14 355.13 282.65 349.98 283.28 C 349.73 288.14 349.54 293.03 350.15 297.88 C 348.16 290.67 350.55 283.28 350.27 275.98 C 350.19 252.33 350.30 228.68 350.22 205.03 Z" />
</g>
<g id="#88c9f9ff">
<path fill="#88c9f9" opacity="1.00" d=" M 196.43 189.64 C 198.80 188.63 201.43 188.59 203.97 188.57 C 239.32 188.64 274.68 188.52 310.02 188.63 C 316.77 188.59 323.44 193.92 323.33 200.98 C 323.46 227.99 323.34 255.00 323.39 282.01 C 323.48 287.00 321.31 292.34 316.78 294.82 C 313.22 296.90 308.94 296.36 304.99 296.42 C 270.98 296.41 236.97 296.40 202.95 296.42 C 198.43 296.53 193.70 294.74 190.96 291.03 C 189.03 288.46 188.57 285.16 188.60 282.04 C 188.63 255.69 188.62 229.34 188.61 203.00 C 188.46 197.58 191.16 191.72 196.43 189.64 Z" />
</g>
</svg>
