<?xml version="1.0" encoding="UTF-8" ?>
<!DOCTYPE svg PUBLIC "-//W3C//DTD SVG 1.1//EN" "http://www.w3.org/Graphics/SVG/1.1/DTD/svg11.dtd">
<svg width="16pt" height="16pt" viewBox="0 0 16 16" version="1.1" xmlns="http://www.w3.org/2000/svg">
<g id="#9797979e">
<path fill="#979797" opacity="0.62" d=" M 0.00 0.00 L 16.00 0.00 L 16.00 0.82 C 13.90 0.98 11.80 1.21 9.69 1.21 L 7.18 0.47 L 7.51 1.56 C 5.37 0.98 3.15 0.91 0.95 0.80 C 0.96 5.86 1.28 10.96 0.51 15.99 L 0.66 16.00 L 0.00 16.00 L 0.00 0.00 Z" />
</g>
<g id="#ffffffff">
<path fill="#ffffff" opacity="1.00" d=" M 0.95 0.80 C 3.15 0.91 5.37 0.98 7.51 1.56 C 7.68 2.11 8.01 3.22 8.17 3.78 C 5.67 4.86 2.95 5.75 1.14 7.93 C 2.07 7.53 3.92 6.73 4.85 6.34 C 5.04 6.58 5.43 7.08 5.62 7.33 C 6.31 6.96 7.68 6.22 8.37 5.85 C 6.78 7.24 5.09 8.52 3.51 9.91 C 4.47 9.66 6.40 9.15 7.37 8.89 C 5.40 10.49 3.35 12.02 1.76 14.01 C 3.52 13.22 5.19 12.23 6.79 11.14 C 7.16 11.48 7.92 12.16 8.30 12.49 L 8.02 10.39 C 8.83 10.04 10.44 9.33 11.25 8.98 C 10.34 8.92 8.53 8.80 7.62 8.74 C 8.19 8.55 9.33 8.18 9.90 8.00 C 9.17 6.83 9.68 5.86 10.61 5.02 C 10.20 4.97 9.37 4.87 8.96 4.82 C 10.56 4.15 12.09 3.33 13.66 2.60 C 12.08 2.49 10.50 2.43 8.92 2.44 C 9.11 2.14 9.50 1.52 9.69 1.21 C 11.80 1.21 13.90 0.98 16.00 0.82 L 16.00 16.00 L 9.77 16.00 C 10.65 14.69 13.49 11.05 10.26 10.99 C 8.85 12.08 8.89 14.43 8.07 16.00 L 0.66 16.00 L 0.51 15.99 C 1.28 10.96 0.96 5.86 0.95 0.80 M 7.19 13.03 C 3.87 13.32 8.61 16.09 7.19 13.03 C 7.75 12.48 7.75 12.48 7.19 13.03 Z" />
</g>
<g id="#545454ff">
<path fill="#545454" opacity="1.00" d=" M 7.18 0.47 L 9.69 1.21 C 9.50 1.52 9.11 2.14 8.92 2.44 C 10.50 2.43 12.08 2.49 13.66 2.60 C 12.09 3.33 10.56 4.15 8.96 4.82 C 9.37 4.87 10.20 4.97 10.61 5.02 C 9.68 5.86 9.17 6.83 9.90 8.00 C 9.33 8.18 8.19 8.55 7.62 8.74 C 8.53 8.80 10.34 8.92 11.25 8.98 C 10.44 9.33 8.83 10.04 8.02 10.39 L 8.30 12.49 C 7.92 12.16 7.16 11.48 6.79 11.14 C 5.19 12.23 3.52 13.22 1.76 14.01 C 3.35 12.02 5.40 10.49 7.37 8.89 C 6.40 9.15 4.47 9.66 3.51 9.91 C 5.09 8.52 6.78 7.24 8.37 5.85 C 7.68 6.22 6.31 6.96 5.62 7.33 C 5.43 7.08 5.04 6.58 4.85 6.34 C 3.92 6.73 2.07 7.53 1.14 7.93 C 2.95 5.75 5.67 4.86 8.17 3.78 C 8.01 3.22 7.68 2.11 7.51 1.56 L 7.18 0.47 Z" />
</g>
<g id="#646464ff">
<path fill="#646464" opacity="1.00" d=" M 8.07 16.00 C 8.89 14.43 8.85 12.08 10.26 10.99 C 13.49 11.05 10.65 14.69 9.77 16.00 L 8.07 16.00 Z" />
</g>
<g id="#000000ff">
<path fill="#000000" opacity="1.00" d=" M 7.19 13.03 C 7.75 12.48 7.75 12.48 7.19 13.03 Z" />
</g>
<g id="#5f5f5fff">
<path fill="#5f5f5f" opacity="1.00" d=" M 7.19 13.03 C 8.61 16.09 3.87 13.32 7.19 13.03 Z" />
</g>
</svg>
