<?xml version="1.0" encoding="UTF-8" ?>
<!DOCTYPE svg PUBLIC "-//W3C//DTD SVG 1.1//EN" "http://www.w3.org/Graphics/SVG/1.1/DTD/svg11.dtd">
<svg width="32pt" height="32pt" viewBox="0 0 32 32" version="1.1" xmlns="http://www.w3.org/2000/svg">
<g id="#01010211">
<path fill="#010102" opacity="0.07" d=" M 0.00 0.00 L 32.00 0.00 L 32.00 21.38 C 30.65 16.09 30.40 10.64 29.74 5.25 C 25.38 3.42 20.82 1.94 16.16 1.12 C 11.57 1.17 7.48 3.76 3.27 5.31 C 1.42 11.20 2.40 17.72 0.00 23.48 L 0.00 0.00 Z" />
</g>
<g id="#0c0c15f7">
<path fill="#0c0c15" opacity="0.97" d=" M 3.27 5.31 C 7.48 3.76 11.57 1.17 16.16 1.12 C 15.07 2.10 13.92 3.02 12.87 4.04 C 14.14 5.32 15.47 6.59 17.09 7.43 C 14.96 7.73 15.13 9.31 15.74 10.95 C 15.00 17.01 14.40 23.10 13.32 29.11 C 12.91 30.51 15.33 30.11 16.12 30.74 C 15.51 31.05 14.28 31.68 13.67 32.00 L 12.34 32.00 C 8.48 29.50 4.13 27.91 0.00 25.93 L 0.00 23.48 C 2.40 17.72 1.42 11.20 3.27 5.31 M 10.27 4.38 C 8.72 4.87 6.27 4.69 6.99 7.05 C 9.07 7.50 14.13 5.27 10.27 4.38 M 3.88 7.99 C 4.72 9.81 7.21 10.15 7.97 12.06 C 8.30 14.31 12.55 10.47 11.77 12.93 C 10.41 14.60 12.63 17.29 13.83 14.80 C 15.66 9.20 7.81 8.13 3.88 7.99 M 5.98 13.96 C 5.92 15.34 5.85 18.00 7.84 17.83 C 10.24 16.53 8.37 13.33 5.98 13.96 M 10.18 17.08 C 8.20 19.39 10.28 22.14 12.99 22.06 C 13.25 20.02 13.21 16.37 10.18 17.08 M 4.14 18.01 C 2.37 20.02 0.58 26.36 4.73 25.85 C 6.30 23.20 8.30 19.34 4.14 18.01 M 8.09 22.04 C 7.10 23.50 6.70 25.25 6.15 26.90 C 7.83 28.18 9.99 28.50 11.96 29.08 C 14.48 24.58 10.40 23.76 8.09 22.04 Z" />
</g>
<g id="#191205ef">
<path fill="#191205" opacity="0.94" d=" M 16.16 1.12 C 20.82 1.94 25.38 3.42 29.74 5.25 C 30.40 10.64 30.65 16.09 32.00 21.38 L 32.00 25.71 C 26.58 26.98 21.46 29.23 16.12 30.74 C 15.33 30.11 12.91 30.51 13.32 29.11 C 19.05 28.52 24.46 26.11 29.77 24.01 C 29.68 23.72 29.48 23.13 29.39 22.83 C 29.34 21.36 31.09 18.34 29.08 18.03 L 28.13 17.82 C 28.30 17.41 28.62 16.57 28.79 16.16 C 28.45 13.23 29.89 6.44 25.16 8.35 C 24.58 8.11 23.40 7.63 22.82 7.39 C 24.31 6.98 26.56 7.20 26.08 4.98 C 22.88 5.09 20.10 6.63 17.09 7.43 C 15.47 6.59 14.14 5.32 12.87 4.04 C 13.92 3.02 15.07 2.10 16.16 1.12 Z" />
</g>
<g id="#88730bff">
<path fill="#88730b" opacity="1.00" d=" M 10.27 4.38 C 14.13 5.27 9.07 7.50 6.99 7.05 C 6.27 4.69 8.72 4.87 10.27 4.38 Z" />
</g>
<g id="#69530bff">
<path fill="#69530b" opacity="1.00" d=" M 17.09 7.43 C 20.10 6.63 22.88 5.09 26.08 4.98 C 26.56 7.20 24.31 6.98 22.82 7.39 C 23.40 7.63 24.58 8.11 25.16 8.35 C 22.03 9.24 18.84 9.97 15.74 10.95 C 15.13 9.31 14.96 7.73 17.09 7.43 Z" />
</g>
<g id="#1f34d2ff">
<path fill="#1f34d2" opacity="1.00" d=" M 3.88 7.99 C 7.81 8.13 15.66 9.20 13.83 14.80 C 12.63 17.29 10.41 14.60 11.77 12.93 C 12.55 10.47 8.30 14.31 7.97 12.06 C 7.21 10.15 4.72 9.81 3.88 7.99 Z" />
</g>
<g id="#c75c12ff">
<path fill="#c75c12" opacity="1.00" d=" M 25.16 8.35 C 29.89 6.44 28.45 13.23 28.79 16.16 C 27.24 15.86 27.08 14.32 26.60 13.09 C 25.31 13.58 22.43 16.43 22.09 14.01 C 22.33 10.03 19.12 14.57 16.96 13.49 C 17.64 14.59 18.46 15.60 19.08 16.73 C 18.30 16.86 16.74 17.12 15.96 17.25 C 18.17 19.48 17.64 22.27 17.01 25.07 C 20.44 25.44 18.38 19.46 21.87 19.94 C 20.07 29.76 22.61 24.02 24.29 22.17 C 26.01 22.09 27.69 22.60 29.39 22.83 C 29.48 23.13 29.68 23.72 29.77 24.01 C 24.46 26.11 19.05 28.52 13.32 29.11 C 14.40 23.10 15.00 17.01 15.74 10.95 C 18.84 9.97 22.03 9.24 25.16 8.35 Z" />
</g>
<g id="#2e1606ff">
<path fill="#2e1606" opacity="1.00" d=" M 16.96 13.49 C 19.12 14.57 22.33 10.03 22.09 14.01 C 22.43 16.43 25.31 13.58 26.60 13.09 C 27.08 14.32 27.24 15.86 28.79 16.16 C 28.62 16.57 28.30 17.41 28.13 17.82 C 27.34 17.90 25.77 18.06 24.98 18.14 C 24.49 20.50 27.29 20.49 28.85 21.07 C 28.91 20.31 29.02 18.79 29.08 18.03 C 31.09 18.34 29.34 21.36 29.39 22.83 C 27.69 22.60 26.01 22.09 24.29 22.17 C 22.61 24.02 20.07 29.76 21.87 19.94 C 18.38 19.46 20.44 25.44 17.01 25.07 C 17.64 22.27 18.17 19.48 15.96 17.25 C 16.74 17.12 18.30 16.86 19.08 16.73 C 18.46 15.60 17.64 14.59 16.96 13.49 M 21.23 16.25 C 19.78 17.73 21.99 20.30 23.37 18.39 C 24.87 17.27 22.42 15.14 21.23 16.25 Z" />
</g>
<g id="#192badff">
<path fill="#192bad" opacity="1.00" d=" M 5.98 13.96 C 8.37 13.33 10.24 16.53 7.84 17.83 C 5.85 18.00 5.92 15.34 5.98 13.96 Z" />
</g>
<g id="#ad4f10ff">
<path fill="#ad4f10" opacity="1.00" d=" M 21.23 16.25 C 22.42 15.14 24.87 17.27 23.37 18.39 C 21.99 20.30 19.78 17.73 21.23 16.25 Z" />
</g>
<g id="#192baeff">
<path fill="#192bae" opacity="1.00" d=" M 10.18 17.08 C 13.21 16.37 13.25 20.02 12.99 22.06 C 10.28 22.14 8.20 19.39 10.18 17.08 Z" />
</g>
<g id="#172597ff">
<path fill="#172597" opacity="1.00" d=" M 4.14 18.01 C 8.30 19.34 6.30 23.20 4.73 25.85 C 0.58 26.36 2.37 20.02 4.14 18.01 Z" />
</g>
<g id="#b15010ff">
<path fill="#b15010" opacity="1.00" d=" M 24.98 18.14 C 25.77 18.06 27.34 17.90 28.13 17.82 L 29.08 18.03 C 29.02 18.79 28.91 20.31 28.85 21.07 C 27.29 20.49 24.49 20.50 24.98 18.14 Z" />
</g>
<g id="#162595ff">
<path fill="#162595" opacity="1.00" d=" M 8.09 22.04 C 10.40 23.76 14.48 24.58 11.96 29.08 C 9.99 28.50 7.83 28.18 6.15 26.90 C 6.70 25.25 7.10 23.50 8.09 22.04 Z" />
</g>
<g id="#00000010">
<path fill="#000000" opacity="0.06" d=" M 0.00 25.93 C 4.13 27.91 8.48 29.50 12.34 32.00 L 0.00 32.00 L 0.00 25.93 Z" />
</g>
</svg>
