<?xml version="1.0" encoding="UTF-8" ?>
<!DOCTYPE svg PUBLIC "-//W3C//DTD SVG 1.1//EN" "http://www.w3.org/Graphics/SVG/1.1/DTD/svg11.dtd">
<svg width="32pt" height="32pt" viewBox="0 0 32 32" version="1.1" xmlns="http://www.w3.org/2000/svg">
<g id="#2361abfe">
<path fill="#2361ab" opacity="1.00" d=" M 1.79 2.80 C 3.41 2.50 5.11 1.80 6.68 2.63 C 9.93 3.93 13.43 3.09 16.80 3.12 C 20.27 3.65 23.53 5.17 27.08 5.25 C 29.22 4.97 30.37 6.89 31.74 8.12 C 31.81 8.78 31.94 10.08 32.00 10.73 L 32.00 12.02 C 31.81 12.78 31.43 14.31 31.24 15.07 C 30.69 15.33 29.59 15.84 29.05 16.10 C 29.27 18.37 29.55 20.64 29.89 22.90 C 29.18 24.25 28.47 25.60 27.79 26.96 C 25.57 28.61 23.64 31.77 20.45 30.64 C 24.73 30.12 27.63 26.58 29.44 22.95 C 28.63 18.45 28.87 13.79 27.28 9.44 C 25.31 7.47 23.36 5.28 20.63 4.38 C 16.75 3.13 12.63 3.93 8.65 3.95 C 6.83 7.07 4.43 9.81 2.68 12.96 C 1.17 17.34 0.78 22.87 4.36 26.38 C 6.09 29.40 9.79 29.62 12.70 30.83 C 9.63 30.32 5.94 30.05 4.19 27.07 C 0.18 23.32 0.91 17.41 2.08 12.59 C 1.38 11.68 0.69 10.77 0.00 9.85 L 0.00 6.05 C 0.60 4.96 1.19 3.88 1.79 2.80 Z" />
<path fill="#2361ab" opacity="1.00" d=" M 9.20 14.50 C 9.27 14.07 9.43 13.20 9.50 12.77 C 10.44 12.76 12.30 12.72 13.23 12.71 C 13.50 16.83 10.54 19.91 7.04 21.55 C 6.08 19.14 5.41 14.55 9.20 14.50 Z" />
<path fill="#2361ab" opacity="1.00" d=" M 18.44 18.90 C 19.32 17.32 19.42 14.21 21.95 14.81 C 24.04 16.91 24.21 20.01 24.04 22.80 C 23.46 23.17 22.30 23.90 21.72 24.26 C 20.64 22.47 19.53 20.69 18.44 18.90 Z" />
<path fill="#2361ab" opacity="1.00" d=" M 11.78 21.72 C 13.55 21.80 15.32 21.92 17.09 22.08 C 16.77 25.54 12.36 24.55 11.78 21.72 Z" />
</g>
<g id="#ffffffff">
<path fill="#ffffff" opacity="1.00" d=" M 2.68 12.96 C 4.43 9.81 6.83 7.07 8.65 3.95 C 12.63 3.93 16.75 3.13 20.63 4.38 C 23.36 5.28 25.31 7.47 27.28 9.44 C 28.87 13.79 28.63 18.45 29.44 22.95 C 27.63 26.58 24.73 30.12 20.45 30.64 C 19.07 31.03 17.74 31.55 16.38 32.00 L 16.34 32.00 C 15.13 31.60 13.92 31.21 12.70 30.83 C 9.79 29.62 6.09 29.40 4.36 26.38 C 0.78 22.87 1.17 17.34 2.68 12.96 M 9.20 14.50 C 5.41 14.55 6.08 19.14 7.04 21.55 C 10.54 19.91 13.50 16.83 13.23 12.71 C 12.30 12.72 10.44 12.76 9.50 12.77 C 9.43 13.20 9.27 14.07 9.20 14.50 M 18.44 18.90 C 19.53 20.69 20.64 22.47 21.72 24.26 C 22.30 23.90 23.46 23.17 24.04 22.80 C 24.21 20.01 24.04 16.91 21.95 14.81 C 19.42 14.21 19.32 17.32 18.44 18.90 M 11.78 21.72 C 12.36 24.55 16.77 25.54 17.09 22.08 C 15.32 21.92 13.55 21.80 11.78 21.72 Z" />
</g>
</svg>
