<?xml version="1.0" encoding="UTF-8" ?>
<!DOCTYPE svg PUBLIC "-//W3C//DTD SVG 1.1//EN" "http://www.w3.org/Graphics/SVG/1.1/DTD/svg11.dtd">
<svg width="16pt" height="16pt" viewBox="0 0 16 16" version="1.1" xmlns="http://www.w3.org/2000/svg">
<g id="#ffffffff">
<path fill="#ffffff" opacity="1.00" d=" M 0.00 0.00 L 6.30 0.00 C 5.04 1.25 0.64 2.96 3.75 4.67 C 4.42 1.77 6.67 -0.07 9.65 0.47 C 10.31 1.09 11.62 2.32 12.28 2.94 C 11.93 3.46 11.58 3.98 11.23 4.50 C 10.50 3.74 9.02 2.23 8.28 1.48 L 8.15 3.85 C 8.34 4.33 8.72 5.28 8.91 5.76 C 10.58 6.71 12.01 5.58 13.25 4.57 C 13.14 6.84 13.10 9.11 13.14 11.38 C 12.84 11.18 12.24 10.79 11.94 10.59 C 9.70 7.90 6.81 5.42 7.43 1.46 C 6.02 2.70 4.79 4.12 3.72 5.66 C 5.29 7.22 6.85 8.78 8.49 10.26 C 6.63 10.19 4.78 10.28 2.94 10.52 C 3.05 9.25 3.28 6.69 3.39 5.42 C 2.74 5.46 2.10 5.52 1.46 5.58 C 1.39 9.54 2.42 13.67 5.94 15.99 L 4.92 16.00 L 0.00 16.00 L 0.00 0.00 Z" />
<path fill="#ffffff" opacity="1.00" d=" M 11.06 0.00 L 16.00 0.00 L 16.00 16.00 L 9.81 16.00 C 15.80 12.78 15.79 3.45 10.00 0.01 L 11.06 0.00 Z" />
<path fill="#ffffff" opacity="1.00" d=" M 3.40 10.62 C 4.40 11.66 5.36 12.73 6.30 13.83 C 8.17 13.80 11.02 14.12 11.12 11.38 C 11.52 11.97 11.93 12.56 12.33 13.15 C 10.61 14.83 8.54 15.91 6.08 15.46 C 5.00 13.96 3.99 12.39 3.40 10.62 Z" />
</g>
<g id="#16348dff">
<path fill="#16348d" opacity="1.00" d=" M 6.30 0.00 L 11.06 0.00 L 10.00 0.01 C 15.79 3.45 15.80 12.78 9.81 16.00 L 4.92 16.00 L 5.94 15.99 C 2.42 13.67 1.39 9.54 1.46 5.58 C 2.10 5.52 2.74 5.46 3.39 5.42 C 3.28 6.69 3.05 9.25 2.94 10.52 C 4.78 10.28 6.63 10.19 8.49 10.26 C 6.85 8.78 5.29 7.22 3.72 5.66 C 4.79 4.12 6.02 2.70 7.43 1.46 C 6.81 5.42 9.70 7.90 11.94 10.59 C 12.24 10.79 12.84 11.18 13.14 11.38 C 13.10 9.11 13.14 6.84 13.25 4.57 C 12.01 5.58 10.58 6.71 8.91 5.76 C 8.72 5.28 8.34 4.33 8.15 3.85 L 8.28 1.48 C 9.02 2.23 10.50 3.74 11.23 4.50 C 11.58 3.98 11.93 3.46 12.28 2.94 C 11.62 2.32 10.31 1.09 9.65 0.47 C 6.67 -0.07 4.42 1.77 3.75 4.67 C 0.64 2.96 5.04 1.25 6.30 0.00 M 3.40 10.62 C 3.99 12.39 5.00 13.96 6.08 15.46 C 8.54 15.91 10.61 14.83 12.33 13.15 C 11.93 12.56 11.52 11.97 11.12 11.38 C 11.02 14.12 8.17 13.80 6.30 13.83 C 5.36 12.73 4.40 11.66 3.40 10.62 Z" />
</g>
</svg>
