<?xml version="1.0" encoding="UTF-8" ?>
<!DOCTYPE svg PUBLIC "-//W3C//DTD SVG 1.1//EN" "http://www.w3.org/Graphics/SVG/1.1/DTD/svg11.dtd">
<svg width="32pt" height="32pt" viewBox="0 0 32 32" version="1.1" xmlns="http://www.w3.org/2000/svg">
<g id="#0b0b0bbe">
<path fill="#0b0b0b" opacity="0.75" d=" M 13.06 0.00 L 13.96 0.00 C 16.86 1.64 15.98 5.31 16.35 8.07 C 19.46 7.69 22.57 6.92 25.72 7.09 C 27.06 7.75 28.17 8.77 29.34 9.68 C 27.44 10.25 25.54 10.78 23.63 11.29 C 23.60 10.59 23.56 9.18 23.53 8.48 C 20.94 8.63 18.36 8.81 15.78 9.01 C 17.25 9.71 18.74 10.40 20.21 11.10 C 17.19 13.72 15.59 17.31 15.56 21.32 C 16.49 21.20 18.35 20.97 19.28 20.86 C 19.13 18.76 18.84 16.68 18.42 14.62 C 19.69 14.77 20.97 14.92 22.25 15.08 C 21.70 16.91 21.11 18.72 20.49 20.52 C 22.64 20.52 24.80 20.79 26.80 21.64 C 23.08 22.25 19.30 22.34 15.54 22.63 C 18.28 27.55 23.62 29.80 28.51 32.00 L 21.56 32.00 C 19.27 29.75 17.30 27.20 15.31 24.69 C 13.32 27.74 10.67 30.32 7.23 31.67 C 9.72 29.01 12.16 26.28 14.03 23.13 C 10.55 23.60 7.07 24.13 3.55 24.00 C 5.57 23.27 7.63 22.67 9.69 22.09 C 9.24 20.27 8.77 18.45 8.30 16.63 C 10.29 16.33 12.27 15.98 14.23 15.53 C 12.74 14.34 11.26 13.13 9.84 11.85 C 11.41 10.97 12.98 10.08 14.51 9.15 C 9.75 8.59 5.95 11.34 2.69 14.42 C 3.46 12.53 4.05 10.47 5.41 8.90 C 8.31 8.56 11.23 8.59 14.13 8.21 C 13.87 5.46 13.57 2.71 13.06 0.00 M 16.16 11.32 C 14.62 14.33 19.47 11.43 16.16 11.32 M 12.34 12.05 C 12.55 15.40 15.29 10.45 12.34 12.05 M 11.03 17.97 C 11.02 19.30 11.01 20.63 11.00 21.96 C 11.74 21.96 13.22 21.95 13.96 21.95 C 13.98 20.27 13.99 18.60 14.00 16.92 C 13.01 17.27 12.02 17.62 11.03 17.97 Z" />
<path fill="#0b0b0b" opacity="0.75" d=" M 20.27 3.30 C 22.05 2.02 23.56 5.00 21.35 5.57 C 19.36 7.08 18.23 4.15 20.27 3.30 Z" />
<path fill="#0b0b0b" opacity="0.75" d=" M 9.32 4.31 C 10.69 3.20 12.93 5.43 11.76 6.80 C 10.37 7.98 8.20 5.67 9.32 4.31 Z" />
</g>
</svg>
