<?xml version="1.0" encoding="UTF-8" ?>
<!DOCTYPE svg PUBLIC "-//W3C//DTD SVG 1.1//EN" "http://www.w3.org/Graphics/SVG/1.1/DTD/svg11.dtd">
<svg width="162pt" height="162pt" viewBox="0 0 162 162" version="1.1" xmlns="http://www.w3.org/2000/svg">
<g id="#dadadaff">
<path fill="#dadada" opacity="1.00" d=" M 0.00 0.00 L 162.00 0.00 L 162.00 162.00 L 0.00 162.00 L 0.00 0.00 M 70.42 17.75 C 60.61 19.38 51.31 23.55 43.26 29.34 C 39.94 31.64 37.32 34.77 33.99 37.05 C 31.98 38.44 31.24 40.91 29.72 42.73 C 14.36 62.16 11.79 90.57 23.28 112.50 C 30.93 128.31 45.46 140.40 62.14 145.69 C 90.06 155.30 123.33 142.92 138.53 117.70 C 147.47 103.30 150.79 85.32 146.94 68.76 C 143.23 50.71 131.41 34.54 115.37 25.49 C 101.93 17.76 85.68 14.73 70.42 17.75 Z" />
<path fill="#dadada" opacity="1.00" d=" M 72.34 37.72 C 88.58 37.68 104.82 37.73 121.05 37.69 C 123.00 37.56 124.80 38.40 126.61 38.98 C 121.96 49.45 113.27 57.49 104.05 63.98 C 113.02 68.51 122.75 71.37 132.63 73.06 C 131.46 74.55 130.53 76.28 128.99 77.43 C 119.29 75.63 109.83 72.52 101.09 67.92 C 99.24 66.67 97.25 67.87 95.52 68.72 C 88.04 72.62 80.12 75.81 71.91 77.77 C 69.46 78.40 68.69 75.34 67.94 73.65 C 76.98 71.39 85.94 68.54 94.12 64.00 C 86.57 58.21 79.10 51.56 75.18 42.69 C 74.48 42.62 73.09 42.48 72.39 42.41 C 72.36 40.84 72.34 39.28 72.34 37.72 M 80.82 42.57 C 82.06 45.36 83.80 47.92 85.96 50.09 C 89.58 53.79 93.18 57.69 97.77 60.21 C 99.83 61.46 101.65 59.24 103.30 58.28 C 109.01 53.92 114.85 49.11 118.15 42.59 C 110.67 42.50 103.20 42.44 95.73 42.63 C 98.76 45.87 102.60 48.33 105.06 52.11 C 103.76 52.72 102.56 53.70 101.10 53.88 C 97.72 51.31 95.01 47.97 91.92 45.07 C 92.64 44.23 93.37 43.40 94.08 42.55 C 89.66 42.51 85.24 42.49 80.82 42.57 Z" />
<path fill="#dadada" opacity="1.00" d=" M 34.17 39.15 C 35.49 37.82 37.37 38.21 39.05 38.18 C 47.63 38.28 56.21 38.13 64.79 38.26 C 65.08 45.27 63.40 52.12 63.39 59.11 C 62.53 66.27 61.45 73.42 61.07 80.63 C 63.65 80.58 66.25 80.59 68.68 81.55 C 67.51 93.07 66.75 104.67 64.52 116.06 C 63.69 120.11 62.03 124.70 57.86 126.36 C 52.26 126.82 46.61 126.61 41.01 126.42 C 40.55 124.84 40.20 123.23 39.97 121.60 C 45.39 121.20 51.16 123.80 56.31 121.30 C 58.18 119.51 58.77 116.88 59.41 114.48 C 60.42 109.74 61.20 104.94 61.39 100.10 C 53.88 102.78 46.00 104.20 38.45 106.74 C 36.21 107.58 33.82 107.84 31.44 107.73 C 31.34 106.11 31.27 104.50 31.29 102.89 C 38.90 101.87 46.24 99.46 53.68 97.61 C 56.37 96.52 59.25 96.36 62.13 96.51 C 62.26 93.01 62.48 89.51 62.47 86.00 L 61.82 85.41 C 52.64 85.23 43.46 85.44 34.29 85.33 C 35.17 74.25 36.79 63.24 37.49 52.14 C 37.37 49.30 41.05 50.90 42.71 50.42 C 42.86 60.57 40.82 70.55 40.28 80.66 C 45.40 80.65 50.51 80.75 55.63 80.56 C 57.02 67.98 58.28 55.42 59.68 42.85 C 50.96 42.81 42.24 42.77 33.51 42.87 C 33.23 41.52 33.45 40.28 34.17 39.15 Z" />
<path fill="#dadada" opacity="1.00" d=" M 96.71 71.99 C 97.77 70.03 99.97 70.87 101.74 70.80 C 102.38 73.86 102.28 76.99 102.29 80.09 C 109.72 80.34 117.17 80.02 124.60 80.30 C 124.56 88.07 124.60 95.83 124.57 103.60 C 117.14 103.80 109.70 103.50 102.27 103.79 C 102.28 108.30 102.26 112.81 102.30 117.33 C 108.16 116.96 114.00 116.39 119.89 116.36 C 117.40 113.38 114.76 110.52 112.02 107.76 C 113.58 107.02 115.11 106.21 116.67 105.47 C 122.21 111.83 128.01 118.01 132.69 125.06 C 131.14 125.73 129.60 126.48 127.95 126.90 C 126.28 125.43 125.31 123.35 123.84 121.71 C 119.62 121.00 115.25 121.63 110.98 121.64 C 102.05 123.11 92.94 122.17 83.97 123.31 C 78.85 123.60 73.72 123.89 68.59 123.68 C 68.51 122.10 68.48 120.52 68.53 118.94 C 77.88 118.31 87.23 117.52 96.62 117.63 C 96.59 113.02 96.60 108.41 96.62 103.80 C 89.39 103.50 82.16 103.77 74.93 103.63 C 74.60 95.84 74.75 88.04 74.84 80.25 C 82.11 80.06 89.37 80.34 96.64 80.07 C 96.63 77.38 96.46 74.68 96.71 71.99 M 79.96 84.60 C 79.83 89.42 79.86 94.25 79.94 99.08 C 85.46 99.16 90.98 99.15 96.50 99.09 C 96.66 94.25 96.66 89.41 96.50 84.57 C 90.98 84.53 85.47 84.49 79.96 84.60 M 102.29 84.68 C 102.26 89.41 102.30 94.14 102.26 98.88 C 107.73 99.26 113.23 99.26 118.70 98.86 C 118.65 94.14 118.70 89.41 118.68 84.69 C 113.22 84.45 107.75 84.46 102.29 84.68 Z" />
</g>
<g id="#000000ff">
<path fill="#000000" opacity="1.00" d=" M 70.42 17.75 C 85.68 14.73 101.93 17.76 115.37 25.49 C 131.41 34.54 143.23 50.71 146.94 68.76 C 150.79 85.32 147.47 103.30 138.53 117.70 C 123.33 142.92 90.06 155.30 62.14 145.69 C 45.46 140.40 30.93 128.31 23.28 112.50 C 11.79 90.57 14.36 62.16 29.72 42.73 C 31.24 40.91 31.98 38.44 33.99 37.05 C 37.32 34.77 39.94 31.64 43.26 29.34 C 51.31 23.55 60.61 19.38 70.42 17.75 M 72.34 37.72 C 72.34 39.28 72.36 40.84 72.39 42.41 C 73.09 42.48 74.48 42.62 75.18 42.69 C 79.10 51.56 86.57 58.21 94.12 64.00 C 85.94 68.54 76.98 71.39 67.94 73.65 C 68.69 75.34 69.46 78.40 71.91 77.77 C 80.12 75.81 88.04 72.62 95.52 68.72 C 97.25 67.87 99.24 66.67 101.09 67.92 C 109.83 72.52 119.29 75.63 128.99 77.43 C 130.53 76.28 131.46 74.55 132.63 73.06 C 122.75 71.37 113.02 68.51 104.05 63.98 C 113.27 57.49 121.96 49.45 126.61 38.98 C 124.80 38.40 123.00 37.56 121.05 37.69 C 104.82 37.73 88.58 37.68 72.34 37.72 M 34.17 39.15 C 33.45 40.28 33.23 41.52 33.51 42.87 C 42.24 42.77 50.96 42.81 59.68 42.85 C 58.28 55.42 57.02 67.98 55.63 80.56 C 50.51 80.75 45.40 80.65 40.28 80.66 C 40.82 70.55 42.86 60.57 42.71 50.42 C 41.05 50.90 37.37 49.30 37.49 52.14 C 36.79 63.24 35.17 74.25 34.29 85.33 C 43.46 85.44 52.64 85.23 61.82 85.41 L 62.47 86.00 C 62.48 89.51 62.26 93.01 62.13 96.51 C 59.25 96.36 56.37 96.52 53.68 97.61 C 46.24 99.46 38.90 101.87 31.29 102.89 C 31.27 104.50 31.34 106.11 31.44 107.73 C 33.82 107.84 36.21 107.58 38.45 106.74 C 46.00 104.20 53.88 102.78 61.39 100.10 C 61.20 104.94 60.42 109.74 59.41 114.48 C 58.77 116.88 58.18 119.51 56.31 121.30 C 51.16 123.80 45.39 121.20 39.97 121.60 C 40.20 123.23 40.55 124.84 41.01 126.42 C 46.61 126.61 52.26 126.82 57.86 126.36 C 62.03 124.70 63.69 120.11 64.52 116.06 C 66.75 104.67 67.51 93.07 68.68 81.55 C 66.25 80.59 63.65 80.58 61.07 80.63 C 61.45 73.42 62.53 66.27 63.39 59.11 C 63.40 52.12 65.08 45.27 64.79 38.26 C 56.21 38.13 47.63 38.28 39.05 38.18 C 37.37 38.21 35.49 37.82 34.17 39.15 M 96.71 71.99 C 96.46 74.68 96.63 77.38 96.64 80.07 C 89.37 80.34 82.11 80.06 74.84 80.25 C 74.75 88.04 74.60 95.84 74.93 103.63 C 82.16 103.77 89.39 103.50 96.62 103.80 C 96.60 108.41 96.59 113.02 96.62 117.63 C 87.23 117.52 77.88 118.31 68.53 118.94 C 68.48 120.52 68.51 122.10 68.59 123.68 C 73.72 123.89 78.85 123.60 83.97 123.31 C 92.94 122.17 102.05 123.11 110.98 121.64 C 115.25 121.63 119.62 121.00 123.84 121.71 C 125.31 123.35 126.28 125.43 127.95 126.90 C 129.60 126.48 131.14 125.73 132.69 125.06 C 128.01 118.01 122.21 111.83 116.67 105.47 C 115.11 106.21 113.58 107.02 112.02 107.76 C 114.76 110.52 117.40 113.38 119.89 116.36 C 114.00 116.39 108.16 116.96 102.30 117.33 C 102.26 112.81 102.28 108.30 102.27 103.79 C 109.70 103.50 117.14 103.80 124.57 103.60 C 124.60 95.83 124.56 88.07 124.60 80.30 C 117.17 80.02 109.72 80.34 102.29 80.09 C 102.28 76.99 102.38 73.86 101.74 70.80 C 99.97 70.87 97.77 70.03 96.71 71.99 Z" />
<path fill="#000000" opacity="1.00" d=" M 80.82 42.57 C 85.24 42.49 89.66 42.51 94.08 42.55 C 93.37 43.40 92.64 44.23 91.92 45.07 C 95.01 47.97 97.72 51.31 101.10 53.88 C 102.56 53.70 103.76 52.72 105.06 52.11 C 102.60 48.33 98.76 45.87 95.73 42.63 C 103.20 42.44 110.67 42.50 118.15 42.59 C 114.85 49.11 109.01 53.92 103.30 58.28 C 101.65 59.24 99.83 61.46 97.77 60.21 C 93.18 57.69 89.58 53.79 85.96 50.09 C 83.80 47.92 82.06 45.36 80.82 42.57 Z" />
<path fill="#000000" opacity="1.00" d=" M 79.96 84.60 C 85.47 84.49 90.98 84.53 96.50 84.57 C 96.66 89.41 96.66 94.25 96.50 99.09 C 90.98 99.15 85.46 99.16 79.94 99.08 C 79.86 94.25 79.83 89.42 79.96 84.60 Z" />
<path fill="#000000" opacity="1.00" d=" M 102.29 84.68 C 107.75 84.46 113.22 84.45 118.68 84.69 C 118.70 89.41 118.65 94.14 118.70 98.86 C 113.23 99.26 107.73 99.26 102.26 98.88 C 102.30 94.14 102.26 89.41 102.29 84.68 Z" />
</g>
</svg>
