<?xml version="1.0" encoding="UTF-8" ?>
<!DOCTYPE svg PUBLIC "-//W3C//DTD SVG 1.1//EN" "http://www.w3.org/Graphics/SVG/1.1/DTD/svg11.dtd">
<svg width="16pt" height="16pt" viewBox="0 0 16 16" version="1.1" xmlns="http://www.w3.org/2000/svg">
<g id="#000000ff">
<path fill="#000000" opacity="1.00" d=" M 0.00 0.00 L 16.00 0.00 L 16.00 16.00 L 0.00 16.00 L 0.00 0.00 M 1.05 1.03 C 0.81 3.20 0.88 5.06 2.40 2.35 C 6.16 2.08 12.56 0.20 14.98 4.11 C 14.98 3.35 14.96 1.82 14.96 1.06 C 10.32 0.83 5.68 1.00 1.05 1.03 M 2.94 2.94 C 2.81 5.23 5.20 6.18 6.10 8.00 C 5.20 9.82 2.81 10.77 2.94 13.06 C 5.23 13.19 6.18 10.80 8.00 9.90 C 9.82 10.80 10.77 13.19 13.06 13.06 C 13.19 10.77 10.80 9.82 9.90 8.00 C 10.80 6.18 13.19 5.23 13.06 2.94 C 10.77 2.81 9.82 5.20 8.00 6.10 C 6.18 5.20 5.23 2.81 2.94 2.94 M 1.02 11.89 C 1.02 12.65 1.04 14.18 1.04 14.94 C 5.68 15.17 10.32 15.00 14.95 14.97 C 15.19 12.80 15.12 10.94 13.60 13.65 C 9.84 13.92 3.44 15.80 1.02 11.89 Z" />
</g>
<g id="#ffffffff">
<path fill="#ffffff" opacity="1.00" d=" M 1.05 1.03 C 5.68 1.00 10.32 0.83 14.96 1.06 C 14.96 1.82 14.98 3.35 14.98 4.11 C 12.56 0.20 6.16 2.08 2.40 2.35 C 0.88 5.06 0.81 3.20 1.05 1.03 Z" />
<path fill="#ffffff" opacity="1.00" d=" M 2.94 2.94 C 5.23 2.81 6.18 5.20 8.00 6.10 C 9.82 5.20 10.77 2.81 13.06 2.94 C 13.19 5.23 10.80 6.18 9.90 8.00 C 10.80 9.82 13.19 10.77 13.06 13.06 C 10.77 13.19 9.82 10.80 8.00 9.90 C 6.18 10.80 5.23 13.19 2.94 13.06 C 2.81 10.77 5.20 9.82 6.10 8.00 C 5.20 6.18 2.81 5.23 2.94 2.94 Z" />
<path fill="#ffffff" opacity="1.00" d=" M 1.02 11.89 C 3.44 15.80 9.84 13.92 13.60 13.65 C 15.12 10.94 15.19 12.80 14.95 14.97 C 10.32 15.00 5.68 15.17 1.04 14.94 C 1.04 14.18 1.02 12.65 1.02 11.89 Z" />
</g>
</svg>
