<?xml version="1.0" encoding="UTF-8" ?>
<!DOCTYPE svg PUBLIC "-//W3C//DTD SVG 1.1//EN" "http://www.w3.org/Graphics/SVG/1.1/DTD/svg11.dtd">
<svg width="32pt" height="32pt" viewBox="0 0 32 32" version="1.1" xmlns="http://www.w3.org/2000/svg">
<g id="#b5b5b6ff">
<path fill="#b5b5b6" opacity="1.00" d=" M 4.00 4.00 C 11.99 4.00 19.99 4.01 27.98 4.00 C 27.95 12.00 28.04 20.00 28.00 28.00 C 26.56 28.00 25.12 28.00 23.69 28.00 C 23.73 22.44 23.59 16.87 23.74 11.31 C 24.74 10.28 25.85 9.38 26.98 8.50 C 27.03 6.68 26.94 4.78 24.95 4.02 C 23.53 5.45 22.09 6.86 20.66 8.27 C 15.11 8.36 9.56 8.30 4.00 8.31 C 4.00 6.88 4.00 5.44 4.00 4.00 Z" />
</g>
<g id="#221815ff">
<path fill="#221815" opacity="1.00" d=" M 20.66 8.27 C 22.09 6.86 23.53 5.45 24.95 4.02 C 26.94 4.78 27.03 6.68 26.98 8.50 C 25.85 9.38 24.74 10.28 23.74 11.31 C 18.18 16.91 12.65 22.54 6.97 28.03 C 5.97 27.01 4.96 26.00 3.96 24.97 C 9.50 19.39 15.07 13.82 20.66 8.27 Z" />
</g>
</svg>
