<?xml version="1.0" encoding="UTF-8" ?>
<!DOCTYPE svg PUBLIC "-//W3C//DTD SVG 1.1//EN" "http://www.w3.org/Graphics/SVG/1.1/DTD/svg11.dtd">
<svg width="64pt" height="64pt" viewBox="0 0 64 64" version="1.1" xmlns="http://www.w3.org/2000/svg">
<g id="#fdfdfdff">
<path fill="#fdfdfd" opacity="1.00" d=" M 0.00 0.00 L 64.00 0.00 L 64.00 64.00 L 0.00 64.00 L 0.00 0.00 M 14.30 6.29 C 7.10 8.85 4.16 18.96 9.21 24.79 C 13.22 29.95 22.60 28.30 25.01 35.00 C 24.08 40.62 16.76 41.89 13.33 37.73 C 12.42 34.19 11.43 30.35 5.99 33.00 C 4.57 41.75 14.04 49.55 22.33 46.42 C 31.34 44.46 34.52 30.61 26.83 25.17 C 22.61 22.27 17.25 21.84 13.00 18.93 C 12.47 16.50 13.46 13.61 16.04 13.01 C 23.67 9.27 22.01 22.65 30.01 18.00 C 30.68 9.79 22.11 3.30 14.30 6.29 M 33.02 17.98 C 32.97 31.33 32.97 44.68 33.03 58.03 L 33.99 57.94 C 38.32 58.17 42.66 58.00 46.99 57.99 L 47.02 57.03 C 51.87 56.91 55.72 52.38 56.79 47.88 C 58.83 40.14 58.64 31.71 55.65 24.26 C 53.47 21.72 50.70 18.65 47.02 18.97 C 45.18 15.92 37.49 19.11 33.99 18.03 L 33.02 17.98 Z" />
</g>
<g id="#24225fff">
<path fill="#24225f" opacity="1.00" d=" M 14.30 6.29 C 22.11 3.30 30.68 9.79 30.01 18.00 C 22.01 22.65 23.67 9.27 16.04 13.01 C 13.46 13.61 12.47 16.50 13.00 18.93 C 17.25 21.84 22.61 22.27 26.83 25.17 C 34.52 30.61 31.34 44.46 22.33 46.42 C 14.04 49.55 4.57 41.75 5.99 33.00 C 11.43 30.35 12.42 34.19 13.33 37.73 C 16.76 41.89 24.08 40.62 25.01 35.00 C 22.60 28.30 13.22 29.95 9.21 24.79 C 4.16 18.96 7.10 8.85 14.30 6.29 Z" />
</g>
<g id="#c1a9a3ff">
<path fill="#c1a9a3" opacity="1.00" d=" M 33.02 17.98 L 33.99 18.03 L 34.02 19.01 C 33.99 31.67 33.99 44.32 34.02 56.98 L 33.99 57.94 L 33.03 58.03 C 32.97 44.68 32.97 31.33 33.02 17.98 Z" />
</g>
<g id="#9a736aff">
<path fill="#9a736a" opacity="1.00" d=" M 33.99 18.03 C 37.49 19.11 45.18 15.92 47.02 18.97 C 42.68 18.99 38.35 19.00 34.02 19.01 L 33.99 18.03 Z" />
</g>
<g id="#662c1bff">
<path fill="#662c1b" opacity="1.00" d=" M 34.02 19.01 C 38.35 19.00 42.68 18.99 47.02 18.97 C 50.70 18.65 53.47 21.72 55.65 24.26 C 58.64 31.71 58.83 40.14 56.79 47.88 C 55.72 52.38 51.87 56.91 47.02 57.03 C 42.68 57.00 38.35 57.00 34.02 56.98 C 33.99 44.32 33.99 31.67 34.02 19.01 M 38.00 23.01 L 37.03 23.00 C 36.96 33.00 36.96 43.01 37.03 53.01 L 38.01 52.96 C 40.91 53.16 43.81 52.91 46.70 52.71 C 53.11 50.18 54.82 42.14 54.00 35.99 C 54.18 30.90 52.23 23.38 46.02 22.99 L 45.97 22.05 C 43.58 22.46 38.83 20.77 38.00 23.01 Z" />
</g>
<g id="#895d52ff">
<path fill="#895d52" opacity="1.00" d=" M 38.00 23.01 C 38.83 20.77 43.58 22.46 45.97 22.05 L 46.02 22.99 C 43.35 22.99 40.67 23.00 38.00 23.01 Z" />
</g>
<g id="#a38078ff">
<path fill="#a38078" opacity="1.00" d=" M 37.03 23.00 L 38.00 23.01 C 38.00 33.00 37.99 42.98 38.01 52.96 L 37.03 53.01 C 36.96 43.01 36.96 33.00 37.03 23.00 Z" />
</g>
<g id="#fefefeff">
<path fill="#fefefe" opacity="1.00" d=" M 38.00 23.01 C 40.67 23.00 43.35 22.99 46.02 22.99 C 52.23 23.38 54.18 30.90 54.00 35.99 C 54.82 42.14 53.11 50.18 46.70 52.71 C 43.81 52.91 40.91 53.16 38.01 52.96 C 37.99 42.98 38.00 33.00 38.00 23.01 Z" />
</g>
<g id="#b0918aff">
<path fill="#b0918a" opacity="1.00" d=" M 34.02 56.98 C 38.35 57.00 42.68 57.00 47.02 57.03 L 46.99 57.99 C 42.66 58.00 38.32 58.17 33.99 57.94 L 34.02 56.98 Z" />
</g>
</svg>
