<?xml version="1.0" encoding="UTF-8" ?>
<!DOCTYPE svg PUBLIC "-//W3C//DTD SVG 1.1//EN" "http://www.w3.org/Graphics/SVG/1.1/DTD/svg11.dtd">
<svg width="16pt" height="16pt" viewBox="0 0 16 16" version="1.1" xmlns="http://www.w3.org/2000/svg">
<g id="#ffffffff">
<path fill="#ffffff" opacity="1.00" d=" M 0.00 0.00 L 16.00 0.00 L 16.00 16.00 L 0.00 16.00 L 0.00 7.73 C 1.85 10.09 3.89 12.28 5.92 14.47 C 7.87 12.24 11.29 10.81 11.56 7.52 C 9.58 8.72 7.82 10.22 6.19 11.85 C 4.88 10.35 3.62 8.82 2.46 7.21 C 4.03 5.87 5.54 4.46 7.05 3.05 C 6.78 2.76 6.24 2.17 5.97 1.88 C 3.97 3.65 1.97 5.42 0.00 7.22 L 0.00 0.00 M 4.10 7.42 C 4.31 7.87 4.71 8.76 4.92 9.21 C 6.49 7.90 8.05 6.58 9.59 5.22 C 10.90 6.58 12.15 7.99 13.22 9.54 C 11.69 11.17 8.27 12.26 9.00 14.99 C 11.31 13.57 13.20 11.62 15.22 9.84 C 13.95 7.22 11.78 5.15 9.71 3.16 C 7.54 3.89 5.90 5.98 4.10 7.42 Z" />
</g>
<g id="#d2615dff">
<path fill="#d2615d" opacity="1.00" d=" M 0.00 7.22 C 1.97 5.42 3.97 3.65 5.97 1.88 C 6.24 2.17 6.78 2.76 7.05 3.05 C 5.54 4.46 4.03 5.87 2.46 7.21 C 3.62 8.82 4.88 10.35 6.19 11.85 C 7.82 10.22 9.58 8.72 11.56 7.52 C 11.29 10.81 7.87 12.24 5.92 14.47 C 3.89 12.28 1.85 10.09 0.00 7.73 L 0.00 7.22 Z" />
</g>
<g id="#466190ff">
<path fill="#466190" opacity="1.00" d=" M 4.10 7.42 C 5.90 5.98 7.54 3.89 9.71 3.16 C 11.78 5.15 13.95 7.22 15.22 9.84 C 13.20 11.62 11.31 13.57 9.00 14.99 C 8.27 12.26 11.69 11.17 13.22 9.54 C 12.15 7.99 10.90 6.58 9.59 5.22 C 8.05 6.58 6.49 7.90 4.92 9.21 C 4.71 8.76 4.31 7.87 4.10 7.42 Z" />
</g>
</svg>
