<?xml version="1.0" encoding="UTF-8" ?>
<!DOCTYPE svg PUBLIC "-//W3C//DTD SVG 1.1//EN" "http://www.w3.org/Graphics/SVG/1.1/DTD/svg11.dtd">
<svg width="196pt" height="196pt" viewBox="0 0 196 196" version="1.1" xmlns="http://www.w3.org/2000/svg">
<g id="#ffffffff">
<path fill="#ffffff" opacity="1.00" d=" M 0.00 0.00 L 196.00 0.00 L 196.00 196.00 L 0.00 196.00 L 0.00 0.00 M 24.71 48.71 C 14.22 61.00 16.55 81.81 29.56 91.43 C 41.50 101.30 58.41 101.71 70.22 111.73 C 77.40 117.50 77.46 128.53 72.93 135.95 C 69.57 141.32 63.09 143.69 57.02 144.06 C 47.90 144.91 38.58 141.28 32.28 134.67 C 25.01 126.96 21.70 116.50 19.72 106.31 C 19.15 106.35 18.02 106.42 17.46 106.45 C 17.60 119.58 17.23 132.72 17.65 145.84 C 21.96 142.94 23.58 137.40 26.85 133.45 C 28.99 135.88 31.21 138.26 33.82 140.18 C 45.95 149.53 64.14 149.00 76.45 140.29 C 92.53 128.96 94.08 101.94 78.56 89.48 C 67.14 79.32 50.77 78.39 38.71 69.35 C 32.71 65.07 30.00 56.77 32.60 49.84 C 34.29 45.40 38.47 42.39 42.91 41.12 C 52.02 38.44 62.37 41.27 69.01 48.02 C 75.79 54.60 79.02 63.82 81.08 72.83 C 81.65 72.88 82.79 72.98 83.36 73.03 C 82.41 62.38 82.04 51.67 80.67 41.07 C 81.10 40.60 81.55 40.16 82.03 39.73 L 79.38 39.00 C 79.76 39.27 80.52 39.83 80.89 40.11 C 79.08 43.45 77.14 46.73 75.13 49.96 C 72.83 47.21 70.30 44.63 67.28 42.67 C 54.26 33.65 34.76 36.56 24.71 48.71 M 99.51 130.38 C 98.06 134.03 96.79 138.10 93.60 140.64 C 90.60 142.90 86.61 142.23 83.10 142.32 C 83.08 142.99 83.03 144.31 83.01 144.97 C 93.39 145.04 103.77 144.98 114.14 145.00 C 114.18 144.13 114.22 143.26 114.26 142.39 C 110.91 142.18 107.44 142.75 104.20 141.77 C 100.89 140.37 101.37 136.08 102.16 133.25 C 104.51 125.76 107.32 118.43 109.85 111.00 C 118.89 110.99 127.94 111.02 136.98 110.98 C 138.46 111.17 140.25 110.56 141.55 111.38 C 144.40 119.57 147.20 127.78 149.93 136.02 C 150.48 137.90 151.45 141.05 148.92 141.94 C 145.53 142.69 142.01 142.22 138.57 142.33 C 138.53 142.98 138.47 144.27 138.44 144.92 C 154.45 145.02 170.48 145.13 186.49 144.86 C 186.45 144.21 186.37 142.91 186.32 142.27 C 183.57 142.28 180.78 142.52 178.05 142.05 C 174.73 141.24 173.43 137.71 172.35 134.86 C 160.97 102.75 149.61 70.64 138.22 38.53 C 136.34 38.54 134.45 38.53 132.57 38.52 C 121.53 69.13 110.54 99.77 99.51 130.38 Z" />
<path fill="#ffffff" opacity="1.00" d=" M 110.84 108.19 C 115.90 94.02 120.71 79.75 125.95 65.64 C 130.92 79.78 135.64 94.01 140.50 108.20 C 130.62 108.20 120.73 108.20 110.84 108.19 Z" />
</g>
<g id="#191919ff">
<path fill="#191919" opacity="1.00" d=" M 24.71 48.71 C 34.76 36.56 54.26 33.65 67.28 42.67 C 70.30 44.63 72.83 47.21 75.13 49.96 C 77.14 46.73 79.08 43.45 80.89 40.11 C 80.52 39.83 79.76 39.27 79.38 39.00 L 82.03 39.73 C 81.55 40.16 81.10 40.60 80.67 41.07 C 82.04 51.67 82.41 62.38 83.36 73.03 C 82.79 72.98 81.65 72.88 81.08 72.83 C 79.02 63.82 75.79 54.60 69.01 48.02 C 62.37 41.27 52.02 38.44 42.91 41.12 C 38.47 42.39 34.29 45.40 32.60 49.84 C 30.00 56.77 32.71 65.07 38.71 69.35 C 50.77 78.39 67.14 79.32 78.56 89.48 C 94.08 101.94 92.53 128.96 76.45 140.29 C 64.14 149.00 45.95 149.53 33.82 140.18 C 31.21 138.26 28.99 135.88 26.85 133.45 C 23.58 137.40 21.96 142.94 17.65 145.84 C 17.23 132.72 17.60 119.58 17.46 106.45 C 18.02 106.42 19.15 106.35 19.72 106.31 C 21.70 116.50 25.01 126.96 32.28 134.67 C 38.58 141.28 47.90 144.91 57.02 144.06 C 63.09 143.69 69.57 141.32 72.93 135.95 C 77.46 128.53 77.40 117.50 70.22 111.73 C 58.41 101.71 41.50 101.30 29.56 91.43 C 16.55 81.81 14.22 61.00 24.71 48.71 Z" />
<path fill="#191919" opacity="1.00" d=" M 99.51 130.38 C 110.54 99.77 121.53 69.13 132.57 38.52 C 134.45 38.53 136.34 38.54 138.22 38.53 C 149.61 70.64 160.97 102.75 172.35 134.86 C 173.43 137.71 174.73 141.24 178.05 142.05 C 180.78 142.52 183.57 142.28 186.32 142.27 C 186.37 142.91 186.45 144.21 186.49 144.86 C 170.48 145.13 154.45 145.02 138.44 144.92 C 138.47 144.27 138.53 142.98 138.57 142.33 C 142.01 142.22 145.53 142.69 148.92 141.94 C 151.45 141.05 150.48 137.90 149.93 136.02 C 147.20 127.78 144.40 119.57 141.55 111.38 C 140.25 110.56 138.46 111.17 136.98 110.98 C 127.94 111.02 118.89 110.99 109.85 111.00 C 107.32 118.43 104.51 125.76 102.16 133.25 C 101.37 136.08 100.89 140.37 104.20 141.77 C 107.44 142.75 110.91 142.18 114.26 142.39 C 114.22 143.26 114.18 144.13 114.14 145.00 C 103.77 144.98 93.39 145.04 83.01 144.97 C 83.03 144.31 83.08 142.99 83.10 142.32 C 86.61 142.23 90.60 142.90 93.60 140.64 C 96.79 138.10 98.06 134.03 99.51 130.38 M 110.84 108.19 C 120.73 108.20 130.62 108.20 140.50 108.20 C 135.64 94.01 130.92 79.78 125.95 65.64 C 120.71 79.75 115.90 94.02 110.84 108.19 Z" />
</g>
</svg>
