<?xml version="1.0" encoding="UTF-8" ?>
<!DOCTYPE svg PUBLIC "-//W3C//DTD SVG 1.1//EN" "http://www.w3.org/Graphics/SVG/1.1/DTD/svg11.dtd">
<svg width="16pt" height="16pt" viewBox="0 0 16 16" version="1.1" xmlns="http://www.w3.org/2000/svg">
<g id="#f5831aff">
<path fill="#f5831a" opacity="1.00" d=" M 12.54 0.00 L 14.11 0.00 C 13.72 1.18 14.23 2.99 13.17 3.77 C 11.64 2.36 9.36 0.81 7.31 2.27 C 5.71 4.62 6.95 9.71 10.53 7.59 C 10.84 7.02 11.47 5.89 11.79 5.32 C 11.74 7.35 11.85 9.38 12.01 11.40 C 11.67 10.70 10.99 9.30 10.65 8.60 C 9.66 8.63 7.68 8.70 6.70 8.74 C 6.69 10.68 6.64 12.62 6.53 14.55 C 8.63 15.64 10.93 15.26 13.01 14.36 C 13.34 13.23 13.81 12.16 14.41 11.15 C 14.39 12.77 14.26 14.39 14.14 16.00 L 0.37 16.00 C 1.70 15.58 2.98 15.03 4.28 14.51 C 4.22 10.26 4.24 6.01 4.25 1.76 C 3.35 1.57 1.54 1.18 0.64 0.99 C 4.42 0.08 8.32 0.84 12.15 0.62 C 12.25 0.47 12.44 0.16 12.54 0.00 Z" />
</g>
</svg>
