<?xml version="1.0" encoding="UTF-8" ?>
<!DOCTYPE svg PUBLIC "-//W3C//DTD SVG 1.1//EN" "http://www.w3.org/Graphics/SVG/1.1/DTD/svg11.dtd">
<svg width="51pt" height="51pt" viewBox="0 0 51 51" version="1.1" xmlns="http://www.w3.org/2000/svg">
<g id="#fdfdfdff">
<path fill="#fdfdfd" opacity="1.00" d=" M 0.00 0.00 L 51.00 0.00 L 51.00 51.00 L 0.00 51.00 L 0.00 0.00 M 1.14 9.19 C 0.36 13.00 2.99 16.29 4.40 19.62 C 6.86 24.25 8.49 29.29 11.17 33.80 C 12.66 33.75 14.14 33.46 15.62 33.24 C 15.66 25.39 14.36 17.61 13.67 9.81 C 13.42 3.23 2.56 3.35 1.14 9.19 M 27.25 9.35 C 25.87 11.02 24.47 12.75 23.78 14.84 C 21.35 21.28 19.29 27.86 16.47 34.15 C 17.98 35.15 19.54 36.07 21.07 37.04 C 25.68 30.72 31.07 25.03 35.91 18.90 C 37.88 16.38 36.31 13.26 35.13 10.79 C 32.64 9.65 29.97 9.30 27.25 9.35 M 41.50 28.33 C 34.34 31.24 27.38 34.61 20.28 37.68 C 17.57 35.51 12.68 35.39 11.28 39.10 C 9.63 41.95 12.01 44.51 13.81 46.50 C 15.91 46.35 17.99 45.99 19.93 45.13 C 20.32 44.27 20.76 43.43 21.24 42.61 C 29.91 41.57 38.68 41.54 47.33 40.29 C 49.26 37.82 50.22 34.40 48.72 31.46 C 47.67 28.71 44.25 26.96 41.50 28.33 Z" />
</g>
<g id="#069cfaff">
<path fill="#069cfa" opacity="1.00" d=" M 1.14 9.19 C 2.56 3.35 13.42 3.23 13.67 9.81 C 14.36 17.61 15.66 25.39 15.62 33.24 C 14.14 33.46 12.66 33.75 11.17 33.80 C 8.49 29.29 6.86 24.25 4.40 19.62 C 2.99 16.29 0.36 13.00 1.14 9.19 Z" />
<path fill="#069cfa" opacity="1.00" d=" M 27.25 9.35 C 29.97 9.30 32.64 9.65 35.13 10.79 C 36.31 13.26 37.88 16.38 35.91 18.90 C 31.07 25.03 25.68 30.72 21.07 37.04 C 19.54 36.07 17.98 35.15 16.47 34.15 C 19.29 27.86 21.35 21.28 23.78 14.84 C 24.47 12.75 25.87 11.02 27.25 9.35 Z" />
<path fill="#069cfa" opacity="1.00" d=" M 41.50 28.33 C 44.25 26.96 47.67 28.71 48.72 31.46 C 50.22 34.40 49.26 37.82 47.33 40.29 C 38.68 41.54 29.91 41.57 21.24 42.61 C 20.76 43.43 20.32 44.27 19.93 45.13 C 17.99 45.99 15.91 46.35 13.81 46.50 C 12.01 44.51 9.63 41.95 11.28 39.10 C 12.68 35.39 17.57 35.51 20.28 37.68 C 27.38 34.61 34.34 31.24 41.50 28.33 Z" />
</g>
</svg>
