<?xml version="1.0" encoding="UTF-8" ?>
<!DOCTYPE svg PUBLIC "-//W3C//DTD SVG 1.1//EN" "http://www.w3.org/Graphics/SVG/1.1/DTD/svg11.dtd">
<svg width="32pt" height="32pt" viewBox="0 0 32 32" version="1.1" xmlns="http://www.w3.org/2000/svg">
<g id="#009a61ff">
<path fill="#009a61" opacity="1.00" d=" M 0.00 0.00 L 32.00 0.00 L 32.00 32.00 L 0.00 32.00 L 0.00 0.00 M 20.97 5.04 C 19.08 6.72 19.71 9.51 19.47 11.75 C 19.00 11.80 18.06 11.88 17.59 11.92 C 17.59 12.70 17.57 14.27 17.56 15.06 C 18.07 15.09 19.10 15.17 19.61 15.21 C 19.54 19.28 19.51 23.34 19.49 27.41 C 21.01 27.41 22.53 27.41 24.05 27.41 C 24.04 23.31 24.03 19.22 23.99 15.12 C 24.75 15.12 26.27 15.13 27.03 15.13 C 27.04 14.31 27.05 12.66 27.06 11.84 C 26.26 11.84 24.67 11.84 23.87 11.84 C 24.11 10.40 23.77 8.76 24.55 7.48 C 25.22 7.43 26.57 7.35 27.24 7.31 C 27.52 6.29 27.79 5.27 28.07 4.26 C 25.73 4.17 22.90 3.20 20.97 5.04 M 6.45 12.44 C 4.15 13.85 3.76 17.39 5.70 19.25 C 7.60 20.70 10.04 21.30 11.74 23.02 C 10.55 26.11 7.16 24.40 5.20 23.19 C 4.74 24.12 4.27 25.06 3.81 25.99 C 7.44 28.41 14.42 29.05 15.86 23.88 C 16.90 19.50 11.94 18.42 9.10 16.78 C 8.02 13.49 12.81 14.95 14.40 15.48 C 14.73 14.78 15.39 13.38 15.72 12.69 C 12.80 11.61 9.30 10.66 6.45 12.44 Z" />
</g>
<g id="#ffffffff">
<path fill="#ffffff" opacity="1.00" d=" M 20.97 5.04 C 22.90 3.20 25.73 4.17 28.07 4.26 C 27.79 5.27 27.52 6.29 27.24 7.31 C 26.57 7.35 25.22 7.43 24.55 7.48 C 23.77 8.76 24.11 10.40 23.87 11.84 C 24.67 11.84 26.26 11.84 27.06 11.84 C 27.05 12.66 27.04 14.31 27.03 15.13 C 26.27 15.13 24.75 15.12 23.99 15.12 C 24.03 19.22 24.04 23.31 24.05 27.41 C 22.53 27.41 21.01 27.41 19.49 27.41 C 19.51 23.34 19.54 19.28 19.61 15.21 C 19.10 15.17 18.07 15.09 17.56 15.06 C 17.57 14.27 17.59 12.70 17.59 11.92 C 18.06 11.88 19.00 11.80 19.47 11.75 C 19.71 9.51 19.08 6.72 20.97 5.04 Z" />
<path fill="#ffffff" opacity="1.00" d=" M 6.45 12.44 C 9.30 10.66 12.80 11.61 15.72 12.69 C 15.39 13.38 14.73 14.78 14.40 15.48 C 12.81 14.95 8.02 13.49 9.10 16.78 C 11.94 18.42 16.90 19.50 15.86 23.88 C 14.42 29.05 7.44 28.41 3.81 25.99 C 4.27 25.06 4.74 24.12 5.20 23.19 C 7.16 24.40 10.55 26.11 11.74 23.02 C 10.04 21.30 7.60 20.70 5.70 19.25 C 3.76 17.39 4.15 13.85 6.45 12.44 Z" />
</g>
</svg>
