<?xml version="1.0" encoding="UTF-8" ?>
<!DOCTYPE svg PUBLIC "-//W3C//DTD SVG 1.1//EN" "http://www.w3.org/Graphics/SVG/1.1/DTD/svg11.dtd">
<svg width="48pt" height="48pt" viewBox="0 0 48 48" version="1.1" xmlns="http://www.w3.org/2000/svg">
<g id="#40404040">
<path fill="#404040" opacity="0.25" d=" M 0.00 0.00 L 3.37 0.00 C 2.31 1.01 1.21 1.98 0.00 2.81 L 0.00 0.00 Z" />
<path fill="#404040" opacity="0.25" d=" M 44.61 0.00 L 48.00 0.00 L 48.00 2.46 L 47.83 2.99 C 46.81 1.94 45.80 0.86 44.61 0.00 Z" />
<path fill="#404040" opacity="0.25" d=" M 0.00 44.56 C 0.95 45.69 1.96 46.79 2.82 48.00 L 0.00 48.00 L 0.00 44.56 Z" />
</g>
<g id="#ffffffff">
<path fill="#ffffff" opacity="1.00" d=" M 3.37 0.00 L 44.61 0.00 C 45.80 0.86 46.81 1.94 47.83 2.99 L 48.00 2.46 L 48.00 44.20 C 46.79 45.53 45.54 46.83 44.18 48.00 L 2.82 48.00 C 1.96 46.79 0.95 45.69 0.00 44.56 L 0.00 2.81 C 1.21 1.98 2.31 1.01 3.37 0.00 M 4.66 15.94 C 4.57 18.62 4.39 21.34 4.87 23.98 C 7.78 27.18 12.87 24.90 16.67 25.56 C 16.70 27.63 16.71 29.70 16.72 31.77 C 12.69 31.77 8.67 31.77 4.64 31.77 C 4.62 32.46 4.57 33.83 4.55 34.52 C 5.91 35.36 7.52 35.08 9.03 35.09 C 12.49 34.98 15.99 35.38 19.40 34.59 C 20.69 30.97 21.27 26.15 19.08 22.81 C 15.51 22.08 11.81 22.64 8.18 22.47 C 8.18 20.41 8.19 18.34 8.19 16.27 C 12.23 16.28 16.27 16.28 20.31 16.27 C 20.33 15.50 20.35 13.95 20.37 13.18 C 15.93 13.25 11.48 12.99 7.04 13.28 C 5.68 13.24 4.58 14.64 4.66 15.94 M 27.68 13.15 C 27.68 20.49 27.63 27.82 27.71 35.16 C 32.94 34.92 38.18 34.82 43.42 34.85 C 43.41 32.79 43.40 30.73 43.38 28.68 C 42.50 28.68 40.74 28.68 39.86 28.67 C 39.85 29.45 39.82 31.00 39.81 31.78 C 36.98 31.77 34.15 31.77 31.32 31.77 C 31.31 25.59 31.31 19.41 31.32 13.23 C 30.41 13.21 28.59 13.17 27.68 13.15 Z" />
</g>
<g id="#0d9488ff">
<path fill="#0d9488" opacity="1.00" d=" M 4.66 15.94 C 4.58 14.64 5.68 13.24 7.04 13.28 C 11.48 12.99 15.93 13.25 20.37 13.18 C 20.35 13.95 20.33 15.50 20.31 16.27 C 16.27 16.28 12.23 16.28 8.19 16.27 C 8.19 18.34 8.18 20.41 8.18 22.47 C 11.81 22.64 15.51 22.08 19.08 22.81 C 21.27 26.15 20.69 30.97 19.40 34.59 C 15.99 35.38 12.49 34.98 9.03 35.09 C 7.52 35.08 5.91 35.36 4.55 34.52 C 4.57 33.83 4.62 32.46 4.64 31.77 C 8.67 31.77 12.69 31.77 16.72 31.77 C 16.71 29.70 16.70 27.63 16.67 25.56 C 12.87 24.90 7.78 27.18 4.87 23.98 C 4.39 21.34 4.57 18.62 4.66 15.94 Z" />
<path fill="#0d9488" opacity="1.00" d=" M 27.68 13.15 C 28.59 13.17 30.41 13.21 31.32 13.23 C 31.31 19.41 31.31 25.59 31.32 31.77 C 34.15 31.77 36.98 31.77 39.81 31.78 C 39.82 31.00 39.85 29.45 39.86 28.67 C 40.74 28.68 42.50 28.68 43.38 28.68 C 43.40 30.73 43.41 32.79 43.42 34.85 C 38.18 34.82 32.94 34.92 27.71 35.16 C 27.63 27.82 27.68 20.49 27.68 13.15 Z" />
</g>
<g id="#57575757">
<path fill="#575757" opacity="0.34" d=" M 44.18 48.00 C 45.54 46.83 46.79 45.53 48.00 44.20 L 48.00 48.00 L 44.18 48.00 Z" />
</g>
</svg>
