<?xml version="1.0" encoding="UTF-8" ?>
<!DOCTYPE svg PUBLIC "-//W3C//DTD SVG 1.1//EN" "http://www.w3.org/Graphics/SVG/1.1/DTD/svg11.dtd">
<svg width="256pt" height="256pt" viewBox="0 0 256 256" version="1.1" xmlns="http://www.w3.org/2000/svg">
<g id="#ffffffff">
<path fill="#ffffff" opacity="1.00" d=" M 47.36 0.00 L 208.51 0.00 C 222.86 0.74 236.79 7.93 245.51 19.38 C 251.76 27.34 255.39 37.26 256.00 47.35 L 256.00 208.63 C 255.23 222.74 248.24 236.44 237.08 245.16 C 229.03 251.62 218.91 255.39 208.62 256.00 L 47.46 256.00 C 33.12 255.25 19.21 248.07 10.50 236.63 C 4.24 228.67 0.61 218.73 0.00 208.64 L 0.00 47.40 C 0.59 37.28 4.24 27.33 10.51 19.35 C 19.21 7.95 33.07 0.79 47.36 0.00 M 81.51 22.33 C 80.63 28.44 79.54 34.51 78.55 40.59 C 71.07 43.45 63.59 46.31 56.07 49.05 C 62.54 53.91 69.70 58.75 77.98 59.50 C 78.08 63.00 78.55 66.59 77.85 70.04 C 65.94 78.62 59.95 92.96 56.97 106.90 C 53.84 120.35 54.42 134.21 54.61 147.92 C 56.60 175.12 58.63 202.33 60.46 229.55 C 71.42 232.09 82.48 234.18 93.49 236.53 C 93.19 233.97 92.82 231.42 92.49 228.86 C 88.12 224.64 83.85 220.32 79.51 216.06 C 85.78 197.69 91.44 179.10 97.90 160.80 C 102.25 179.38 106.48 198.00 110.63 216.63 C 120.16 219.30 129.83 221.45 139.43 223.87 C 139.39 221.78 139.35 219.70 139.34 217.62 C 134.50 211.87 129.43 206.31 124.56 200.58 C 124.44 181.09 123.61 161.62 123.47 142.14 C 122.49 128.83 121.35 115.53 120.43 102.22 C 141.84 106.10 163.26 109.94 184.66 113.91 C 185.52 108.82 185.40 103.65 185.81 98.52 C 172.85 95.45 159.87 92.54 146.90 89.54 C 145.06 89.12 143.44 88.09 141.80 87.21 C 130.97 81.29 120.01 75.60 109.21 69.64 C 109.16 68.41 110.73 68.08 111.42 67.32 C 114.98 64.80 118.42 62.10 122.04 59.66 C 120.38 55.64 116.62 52.99 114.72 49.08 C 123.47 45.25 130.21 37.73 135.19 29.77 C 125.34 30.58 115.47 31.06 105.62 31.75 C 103.43 27.91 101.48 23.96 99.34 20.10 C 93.38 20.72 87.39 21.25 81.51 22.33 M 167.82 38.92 C 167.62 51.87 167.46 64.82 167.29 77.77 C 173.29 79.37 179.20 81.31 185.23 82.79 C 186.15 72.38 187.64 62.03 188.65 51.64 C 193.30 48.03 198.03 44.54 202.72 40.99 C 199.58 37.75 196.42 34.54 193.23 31.35 C 184.78 33.93 176.31 36.45 167.82 38.92 M 167.49 125.16 C 167.53 158.35 168.46 191.52 168.47 224.71 C 173.23 225.34 178.04 225.22 182.83 225.37 C 182.76 193.02 182.63 160.67 182.58 128.33 C 177.59 127.11 172.52 126.19 167.49 125.16 Z" />
</g>
<g id="#3b4252ff">
<path fill="#3b4252" opacity="1.00" d=" M 81.51 22.33 C 87.39 21.25 93.38 20.72 99.34 20.10 C 101.48 23.96 103.43 27.91 105.62 31.75 C 115.47 31.06 125.34 30.58 135.19 29.77 C 130.21 37.73 123.47 45.25 114.72 49.08 C 116.62 52.99 120.38 55.64 122.04 59.66 C 118.42 62.10 114.98 64.80 111.42 67.32 C 110.73 68.08 109.16 68.41 109.21 69.64 C 120.01 75.60 130.97 81.29 141.80 87.21 C 143.44 88.09 145.06 89.12 146.90 89.54 C 159.87 92.54 172.85 95.45 185.81 98.52 C 185.40 103.65 185.52 108.82 184.66 113.91 C 163.26 109.94 141.84 106.10 120.43 102.22 C 121.35 115.53 122.49 128.83 123.47 142.14 C 123.61 161.62 124.44 181.09 124.56 200.58 C 129.43 206.31 134.50 211.87 139.34 217.62 C 139.35 219.70 139.39 221.78 139.43 223.87 C 129.83 221.45 120.16 219.30 110.63 216.63 C 106.48 198.00 102.25 179.38 97.90 160.80 C 91.44 179.10 85.78 197.69 79.51 216.06 C 83.85 220.32 88.12 224.64 92.49 228.86 C 92.82 231.42 93.19 233.97 93.49 236.53 C 82.48 234.18 71.42 232.09 60.46 229.55 C 58.63 202.33 56.60 175.12 54.61 147.92 C 54.42 134.21 53.84 120.35 56.97 106.90 C 59.95 92.96 65.94 78.62 77.85 70.04 C 78.55 66.59 78.08 63.00 77.98 59.50 C 69.70 58.75 62.54 53.91 56.07 49.05 C 63.59 46.31 71.07 43.45 78.55 40.59 C 79.54 34.51 80.63 28.44 81.51 22.33 Z" />
<path fill="#3b4252" opacity="1.00" d=" M 167.82 38.92 C 176.31 36.45 184.78 33.93 193.23 31.35 C 196.42 34.54 199.58 37.75 202.72 40.99 C 198.03 44.54 193.30 48.03 188.65 51.64 C 187.64 62.03 186.15 72.38 185.23 82.79 C 179.20 81.31 173.29 79.37 167.29 77.77 C 167.46 64.82 167.62 51.87 167.82 38.92 Z" />
<path fill="#3b4252" opacity="1.00" d=" M 167.49 125.16 C 172.52 126.19 177.59 127.11 182.58 128.33 C 182.63 160.67 182.76 193.02 182.83 225.37 C 178.04 225.22 173.23 225.34 168.47 224.71 C 168.46 191.52 167.53 158.35 167.49 125.16 Z" />
</g>
</svg>
