<?xml version="1.0" encoding="UTF-8" ?>
<!DOCTYPE svg PUBLIC "-//W3C//DTD SVG 1.1//EN" "http://www.w3.org/Graphics/SVG/1.1/DTD/svg11.dtd">
<svg width="250pt" height="248pt" viewBox="0 0 250 248" version="1.1" xmlns="http://www.w3.org/2000/svg">
<g id="#ffffffff">
<path fill="#ffffff" opacity="1.00" d=" M 0.00 0.00 L 250.00 0.00 L 250.00 248.00 L 142.43 248.00 C 152.39 245.23 162.62 243.26 172.15 239.15 C 188.53 233.06 202.78 222.30 214.77 209.76 C 231.99 191.22 242.77 167.04 245.76 141.96 C 245.72 128.85 246.62 115.61 244.28 102.62 C 243.67 99.54 242.25 96.71 241.01 93.85 C 238.47 86.82 236.33 79.61 232.94 72.93 C 224.33 54.52 210.27 39.04 193.97 27.10 C 175.94 15.06 154.81 7.22 133.04 6.40 C 124.51 6.32 115.89 5.97 107.46 7.61 C 90.96 9.98 75.30 16.56 61.20 25.31 C 46.60 35.05 34.45 48.21 24.79 62.79 C 22.56 65.93 20.58 69.25 19.05 72.78 C 11.84 83.74 9.29 96.94 7.17 109.67 C 5.46 118.37 6.00 127.25 6.10 136.05 C 6.19 142.80 7.81 149.40 8.96 156.02 C 10.11 162.84 12.82 169.24 15.54 175.55 C 20.92 188.00 28.35 199.51 37.36 209.63 C 43.24 216.17 50.32 221.41 57.31 226.68 C 62.26 230.37 68.00 232.76 73.48 235.53 C 84.84 241.49 97.48 244.19 109.63 248.00 L 0.00 248.00 L 0.00 0.00 Z" />
</g>
<g id="#e58c8eff">
<path fill="#e58c8e" opacity="1.00" d=" M 107.46 7.61 C 115.89 5.97 124.51 6.32 133.04 6.40 C 154.81 7.22 175.94 15.06 193.97 27.10 C 210.27 39.04 224.33 54.52 232.94 72.93 C 236.33 79.61 238.47 86.82 241.01 93.85 C 241.66 99.34 242.67 104.79 243.37 110.28 C 244.76 125.91 244.38 141.96 239.89 157.10 C 237.36 165.32 234.86 173.77 229.69 180.80 C 232.84 173.15 236.30 165.61 238.60 157.65 C 245.00 135.12 244.73 110.69 237.46 88.40 C 234.86 80.58 232.14 72.58 226.97 66.03 C 220.45 56.43 213.60 46.88 204.87 39.13 C 197.07 32.32 188.96 25.42 179.13 21.77 C 171.70 16.98 163.16 14.43 154.74 12.04 C 141.32 8.97 127.37 7.24 113.66 9.31 C 94.71 11.09 76.51 18.25 60.64 28.60 C 53.02 34.17 45.10 39.63 39.19 47.09 C 33.41 54.44 27.73 61.92 23.27 70.17 C 21.95 71.90 20.47 73.49 19.06 75.13 C 19.05 74.54 19.05 73.37 19.05 72.78 C 20.58 69.25 22.56 65.93 24.79 62.79 C 34.45 48.21 46.60 35.05 61.20 25.31 C 75.30 16.56 90.96 9.98 107.46 7.61 Z" />
</g>
<g id="#d91227ff">
<path fill="#d91227" opacity="1.00" d=" M 113.66 9.31 C 127.37 7.24 141.32 8.97 154.74 12.04 C 163.16 14.43 171.70 16.98 179.13 21.77 C 176.02 21.29 172.99 20.40 170.11 19.14 C 160.57 15.03 150.29 12.79 139.96 11.98 C 135.84 11.30 132.71 14.42 130.08 17.09 C 128.29 19.04 126.14 21.14 126.14 23.98 C 125.91 28.87 125.98 33.77 125.37 38.63 C 123.90 37.76 122.46 36.85 120.90 36.14 C 118.89 37.34 118.66 39.98 117.72 41.93 C 124.52 42.68 131.14 44.57 137.98 45.08 C 142.21 44.94 144.12 49.24 145.58 52.49 C 147.34 56.56 148.13 61.57 145.25 65.35 C 144.53 60.19 145.86 54.07 142.31 49.76 C 138.44 47.12 133.46 46.91 128.97 46.02 C 125.46 45.11 122.22 46.94 118.90 47.72 C 116.72 47.53 114.84 46.23 112.89 45.36 C 110.49 46.42 108.15 47.72 105.57 48.27 C 102.27 48.66 99.02 47.03 95.74 47.63 C 94.14 49.18 92.99 51.11 91.74 52.94 C 88.40 52.37 85.04 51.26 81.63 51.68 C 79.48 52.77 78.47 55.25 76.88 56.98 C 74.97 59.82 71.36 60.29 68.50 61.72 C 66.03 62.73 64.69 65.19 63.02 67.12 C 61.19 69.53 58.92 71.63 57.40 74.27 C 55.86 77.62 55.33 81.35 53.72 84.68 C 52.46 87.67 50.53 90.61 50.68 93.98 C 50.92 98.53 52.65 102.88 52.76 107.45 C 52.81 110.91 51.28 114.19 51.38 117.64 C 52.36 121.54 56.80 123.71 60.58 122.57 C 70.95 120.26 76.43 109.69 86.17 106.15 C 89.94 104.82 94.14 104.82 97.97 105.89 C 100.90 106.61 102.07 110.06 101.68 112.78 C 100.75 118.93 97.84 124.53 95.44 130.21 C 95.61 125.47 97.02 120.93 98.95 116.64 C 89.98 115.31 80.37 115.13 71.94 118.90 C 68.66 120.27 66.11 122.81 63.86 125.47 C 60.47 125.28 56.97 125.37 53.72 124.24 C 51.79 123.09 50.63 121.06 49.23 119.38 C 45.97 121.19 42.33 122.04 38.66 122.50 C 34.81 122.81 32.35 126.11 29.70 128.51 C 26.08 128.41 22.03 127.60 18.86 129.85 C 16.54 131.47 14.15 133.50 13.36 136.32 C 12.43 140.89 14.32 145.33 15.21 149.74 C 15.93 152.86 15.76 156.07 15.77 159.25 C 14.22 154.81 12.97 150.26 12.28 145.61 C 10.75 135.50 8.94 125.18 10.71 114.98 C 12.21 106.50 12.65 97.78 15.57 89.62 C 17.87 83.03 20.42 76.53 23.27 70.17 C 27.73 61.92 33.41 54.44 39.19 47.09 C 45.10 39.63 53.02 34.17 60.64 28.60 C 76.51 18.25 94.71 11.09 113.66 9.31 Z" />
</g>
<g id="#d80821ff">
<path fill="#d80821" opacity="1.00" d=" M 130.08 17.09 C 132.71 14.42 135.84 11.30 139.96 11.98 C 150.29 12.79 160.57 15.03 170.11 19.14 C 172.99 20.40 176.02 21.29 179.13 21.77 C 181.60 23.99 184.29 25.96 187.08 27.77 C 183.89 27.26 180.64 26.34 177.40 26.80 C 173.40 28.99 170.75 32.93 167.57 36.10 C 167.85 37.02 168.14 37.95 168.42 38.88 C 167.28 38.78 166.14 38.67 165.00 38.56 C 165.03 39.71 165.07 40.85 165.10 42.00 C 168.91 42.81 172.82 42.97 176.71 42.76 C 179.01 46.51 183.12 48.16 186.72 50.34 C 190.86 53.85 191.81 59.56 193.47 64.46 C 195.74 70.79 197.05 77.56 200.70 83.31 C 202.28 85.40 202.19 88.38 200.19 90.16 C 195.88 94.70 189.00 92.15 183.58 93.74 C 176.98 95.73 170.90 99.65 163.82 99.93 C 160.75 100.37 158.10 98.53 155.55 97.15 C 151.73 101.12 147.98 105.16 143.72 108.68 C 147.22 113.63 144.61 119.64 144.34 125.10 C 143.79 127.85 144.22 131.73 141.15 133.08 C 136.28 135.44 130.65 136.56 126.82 140.69 C 131.48 139.78 135.84 137.89 140.31 136.36 C 144.61 134.88 149.43 134.87 153.36 132.39 C 154.96 131.42 156.48 130.33 158.01 129.27 C 154.46 126.91 151.64 123.66 149.84 119.80 C 151.04 119.61 152.24 119.43 153.44 119.25 C 154.71 114.57 155.18 109.61 157.21 105.17 C 159.42 103.41 162.64 104.18 165.28 103.84 C 164.92 106.98 164.39 110.10 163.69 113.18 C 164.97 115.66 166.85 118.05 167.05 120.92 C 166.28 124.59 162.71 126.63 160.06 128.91 C 162.90 129.44 165.73 130.00 168.56 130.56 C 169.17 134.70 169.63 138.87 169.50 143.06 C 169.20 150.40 170.70 157.67 170.35 165.01 C 170.08 171.77 171.27 179.31 167.23 185.22 C 165.46 188.12 161.91 188.70 158.83 189.10 C 162.75 186.86 167.49 184.32 168.32 179.43 C 170.67 166.68 167.60 153.80 167.77 140.99 C 167.70 138.24 167.88 135.42 167.19 132.74 C 166.24 130.92 163.88 131.06 162.15 131.14 C 156.56 131.61 152.50 136.25 147.02 137.18 C 140.52 138.45 134.12 140.30 128.16 143.25 C 125.77 144.20 122.44 146.05 120.34 143.57 C 117.86 140.19 120.16 136.03 121.50 132.69 C 127.80 135.79 135.28 134.59 141.06 130.93 C 142.48 130.12 141.75 128.31 141.88 127.00 C 141.48 121.94 143.62 117.16 144.00 112.16 C 136.52 111.90 129.50 114.78 122.36 116.54 C 117.48 117.71 113.62 123.51 108.18 121.11 C 103.87 120.11 106.14 114.47 108.61 112.63 C 111.05 112.05 113.59 112.69 116.06 112.68 C 123.19 113.13 129.74 109.80 136.20 107.29 C 139.00 106.01 142.77 105.03 143.53 101.57 C 144.90 96.69 145.58 91.40 144.52 86.41 C 142.33 83.45 137.94 84.88 134.77 84.53 C 133.70 82.33 132.99 79.64 130.64 78.45 C 127.65 76.68 124.74 74.72 122.49 72.03 C 129.82 68.75 138.93 71.00 145.25 65.35 C 148.13 61.57 147.34 56.56 145.58 52.49 C 144.12 49.24 142.21 44.94 137.98 45.08 C 131.14 44.57 124.52 42.68 117.72 41.93 C 118.66 39.98 118.89 37.34 120.90 36.14 C 122.46 36.85 123.90 37.76 125.37 38.63 C 125.98 33.77 125.91 28.87 126.14 23.98 C 126.14 21.14 128.29 19.04 130.08 17.09 M 164.62 47.42 C 164.03 52.02 164.00 56.77 164.82 61.34 C 166.40 65.94 173.56 62.21 175.64 66.34 C 176.57 69.06 176.60 72.47 174.81 74.85 C 171.36 78.27 165.46 77.61 162.23 81.25 C 160.01 86.28 160.07 91.94 159.55 97.32 C 166.71 99.34 173.23 94.79 179.84 92.82 C 184.99 90.67 190.66 91.20 196.03 90.17 C 198.09 89.95 199.19 87.80 199.38 85.94 C 199.87 82.93 196.44 81.86 194.68 80.16 C 192.18 78.82 194.52 76.09 194.88 74.16 C 190.72 70.09 192.61 63.78 190.09 58.95 C 186.68 51.73 179.04 47.51 171.59 45.58 C 169.29 45.25 165.52 44.53 164.62 47.42 M 156.52 115.29 C 156.11 118.45 155.48 121.70 156.58 124.81 C 158.77 124.49 160.96 124.15 163.15 123.79 C 164.64 119.60 161.70 112.91 156.52 115.29 Z" />
</g>
<g id="#d6001bff">
<path fill="#d6001b" opacity="1.00" d=" M 179.13 21.77 C 188.96 25.42 197.07 32.32 204.87 39.13 C 213.60 46.88 220.45 56.43 226.97 66.03 C 232.21 77.42 237.49 88.97 239.72 101.40 C 241.54 111.76 243.19 122.36 241.82 132.89 C 240.63 142.38 239.53 152.02 236.17 161.04 C 232.77 170.46 228.59 179.66 223.14 188.09 C 212.35 204.10 197.78 217.67 180.72 226.76 C 164.12 235.25 145.50 239.05 127.01 240.27 C 102.37 239.44 77.41 232.46 57.50 217.53 C 48.56 210.59 39.82 203.02 33.64 193.41 C 31.03 186.56 27.37 180.15 25.24 173.12 C 32.74 172.76 40.33 173.78 47.73 172.17 C 44.35 171.32 40.94 170.60 37.55 169.79 C 41.42 165.69 47.41 165.00 52.73 164.52 C 58.98 166.98 60.37 174.77 66.10 177.93 C 70.01 180.05 71.89 184.17 74.49 187.54 C 76.16 190.18 80.48 189.26 81.70 186.65 C 83.09 183.37 83.03 179.71 83.16 176.21 C 84.31 178.24 84.18 182.05 87.07 182.30 C 89.00 182.64 90.29 180.82 91.62 179.75 C 96.50 168.01 100.07 155.77 105.22 144.14 C 108.09 137.67 110.41 130.93 114.09 124.86 C 117.93 129.45 115.71 135.43 114.65 140.59 C 111.80 151.57 114.52 162.96 113.38 174.08 C 112.74 180.36 108.95 185.55 106.24 191.05 C 104.71 193.52 106.55 197.01 109.41 197.28 C 116.96 198.78 124.75 199.11 132.41 198.35 C 137.44 197.88 142.57 197.73 147.38 196.03 C 143.75 190.57 137.50 187.18 135.00 180.94 C 132.54 175.53 130.02 170.13 128.06 164.52 C 133.43 163.03 138.74 165.21 143.54 167.44 C 147.41 169.34 151.82 171.71 153.11 176.14 C 153.68 180.25 152.29 184.32 152.57 188.44 C 154.58 189.11 156.73 189.38 158.83 189.10 C 161.91 188.70 165.46 188.12 167.23 185.22 C 171.27 179.31 170.08 171.77 170.35 165.01 C 170.70 157.67 169.20 150.40 169.50 143.06 C 169.63 138.87 169.17 134.70 168.56 130.56 C 165.73 130.00 162.90 129.44 160.06 128.91 C 162.71 126.63 166.28 124.59 167.05 120.92 C 166.85 118.05 164.97 115.66 163.69 113.18 C 164.39 110.10 164.92 106.98 165.28 103.84 C 162.64 104.18 159.42 103.41 157.21 105.17 C 155.18 109.61 154.71 114.57 153.44 119.25 C 152.24 119.43 151.04 119.61 149.84 119.80 C 151.64 123.66 154.46 126.91 158.01 129.27 C 156.48 130.33 154.96 131.42 153.36 132.39 C 149.43 134.87 144.61 134.88 140.31 136.36 C 135.84 137.89 131.48 139.78 126.82 140.69 C 130.65 136.56 136.28 135.44 141.15 133.08 C 144.22 131.73 143.79 127.85 144.34 125.10 C 144.61 119.64 147.22 113.63 143.72 108.68 C 147.98 105.16 151.73 101.12 155.55 97.15 C 158.10 98.53 160.75 100.37 163.82 99.93 C 170.90 99.65 176.98 95.73 183.58 93.74 C 189.00 92.15 195.88 94.70 200.19 90.16 C 202.19 88.38 202.28 85.40 200.70 83.31 C 197.05 77.56 195.74 70.79 193.47 64.46 C 191.81 59.56 190.86 53.85 186.72 50.34 C 183.12 48.16 179.01 46.51 176.71 42.76 C 172.82 42.97 168.91 42.81 165.10 42.00 C 165.07 40.85 165.03 39.71 165.00 38.56 C 166.14 38.67 167.28 38.78 168.42 38.88 C 168.14 37.95 167.85 37.02 167.57 36.10 C 170.75 32.93 173.40 28.99 177.40 26.80 C 180.64 26.34 183.89 27.26 187.08 27.77 C 184.29 25.96 181.60 23.99 179.13 21.77 M 182.97 102.71 C 181.12 104.29 178.83 105.12 176.49 105.67 C 176.31 109.81 176.73 113.94 177.51 118.01 C 181.61 117.63 184.75 114.07 188.97 114.51 C 192.67 114.56 196.29 115.68 200.01 115.42 C 202.73 111.26 201.17 105.74 200.80 101.07 C 194.92 102.29 188.95 102.64 182.97 102.71 M 192.01 127.40 C 188.29 128.02 183.51 126.05 180.62 129.01 C 179.32 135.67 181.71 142.31 181.37 149.00 C 181.72 155.40 180.82 161.99 182.73 168.21 C 182.92 174.32 184.74 180.26 185.58 186.31 C 188.47 184.85 191.03 182.85 193.59 180.88 C 193.35 178.59 192.50 176.31 192.82 173.99 C 193.63 171.31 195.30 168.86 195.41 165.99 C 195.46 163.53 196.35 161.24 197.08 158.93 C 196.45 157.09 195.00 155.67 194.41 153.83 C 193.88 151.14 195.04 148.59 195.70 146.05 C 198.92 141.82 198.09 136.26 198.74 131.31 C 199.47 127.28 203.71 123.01 200.21 119.16 C 198.70 122.74 196.76 127.74 192.01 127.40 Z" />
</g>
<g id="#ec5f20ff">
<path fill="#ec5f20" opacity="1.00" d=" M 105.57 48.27 C 108.15 47.72 110.49 46.42 112.89 45.36 C 114.84 46.23 116.72 47.53 118.90 47.72 C 122.22 46.94 125.46 45.11 128.97 46.02 C 133.46 46.91 138.44 47.12 142.31 49.76 C 145.86 54.07 144.53 60.19 145.25 65.35 C 138.93 71.00 129.82 68.75 122.49 72.03 C 124.74 74.72 127.65 76.68 130.64 78.45 C 132.99 79.64 133.70 82.33 134.77 84.53 C 137.94 84.88 142.33 83.45 144.52 86.41 C 145.58 91.40 144.90 96.69 143.53 101.57 C 142.77 105.03 139.00 106.01 136.20 107.29 C 129.74 109.80 123.19 113.13 116.06 112.68 C 113.59 112.69 111.05 112.05 108.61 112.63 C 106.14 114.47 103.87 120.11 108.18 121.11 C 113.62 123.51 117.48 117.71 122.36 116.54 C 129.50 114.78 136.52 111.90 144.00 112.16 C 143.62 117.16 141.48 121.94 141.88 127.00 C 141.75 128.31 142.48 130.12 141.06 130.93 C 135.28 134.59 127.80 135.79 121.50 132.69 C 120.16 136.03 117.86 140.19 120.34 143.57 C 122.44 146.05 125.77 144.20 128.16 143.25 C 134.12 140.30 140.52 138.45 147.02 137.18 C 152.50 136.25 156.56 131.61 162.15 131.14 C 163.88 131.06 166.24 130.92 167.19 132.74 C 167.88 135.42 167.70 138.24 167.77 140.99 C 167.60 153.80 170.67 166.68 168.32 179.43 C 167.49 184.32 162.75 186.86 158.83 189.10 C 156.73 189.38 154.58 189.11 152.57 188.44 C 152.29 184.32 153.68 180.25 153.11 176.14 C 151.82 171.71 147.41 169.34 143.54 167.44 C 138.74 165.21 133.43 163.03 128.06 164.52 C 130.02 170.13 132.54 175.53 135.00 180.94 C 137.50 187.18 143.75 190.57 147.38 196.03 C 142.57 197.73 137.44 197.88 132.41 198.35 C 124.75 199.11 116.96 198.78 109.41 197.28 C 106.55 197.01 104.71 193.52 106.24 191.05 C 108.95 185.55 112.74 180.36 113.38 174.08 C 114.52 162.96 111.80 151.57 114.65 140.59 C 115.71 135.43 117.93 129.45 114.09 124.86 C 110.41 130.93 108.09 137.67 105.22 144.14 C 100.07 155.77 96.50 168.01 91.62 179.75 C 89.82 179.86 87.46 181.56 86.08 179.73 C 84.69 174.26 85.52 168.52 86.90 163.13 C 88.45 157.04 88.75 150.66 90.95 144.74 C 92.70 139.98 94.42 135.19 95.44 130.21 C 97.84 124.53 100.75 118.93 101.68 112.78 C 102.07 110.06 100.90 106.61 97.97 105.89 C 94.14 104.82 89.94 104.82 86.17 106.15 C 76.43 109.69 70.95 120.26 60.58 122.57 C 56.80 123.71 52.36 121.54 51.38 117.64 C 51.28 114.19 52.81 110.91 52.76 107.45 C 52.65 102.88 50.92 98.53 50.68 93.98 C 50.53 90.61 52.46 87.67 53.72 84.68 C 55.33 81.35 55.86 77.62 57.40 74.27 C 58.92 71.63 61.19 69.53 63.02 67.12 C 64.69 65.19 66.03 62.73 68.50 61.72 C 71.36 60.29 74.97 59.82 76.88 56.98 C 78.47 55.25 79.48 52.77 81.63 51.68 C 85.04 51.26 88.40 52.37 91.74 52.94 C 92.99 51.11 94.14 49.18 95.74 47.63 C 99.02 47.03 102.27 48.66 105.57 48.27 M 105.89 49.92 C 102.93 50.06 100.08 49.03 97.15 48.85 C 94.59 51.04 93.21 54.24 91.25 56.93 C 93.75 59.03 96.52 60.89 98.60 63.44 C 99.40 65.60 99.00 68.74 96.37 69.33 C 91.25 70.12 86.06 69.09 80.93 68.91 C 80.60 68.69 79.95 68.24 79.63 68.02 C 79.90 64.89 79.67 61.36 81.61 58.69 C 83.86 57.01 86.67 56.32 89.22 55.19 C 86.81 54.10 84.20 52.41 81.45 53.33 C 79.69 55.35 78.59 57.84 76.76 59.79 C 74.43 61.56 71.36 61.81 68.71 62.92 C 65.89 63.54 66.07 66.97 65.07 69.12 C 62.78 71.73 60.07 73.90 57.57 76.30 C 58.34 83.02 52.51 88.28 53.57 95.00 C 54.25 101.03 54.63 107.08 54.40 113.14 C 54.03 114.87 53.06 116.91 54.55 118.41 C 56.04 120.80 59.34 120.94 61.67 119.80 C 66.06 117.79 70.41 115.36 73.68 111.75 C 77.68 109.97 80.95 107.00 84.72 104.83 C 89.83 102.83 95.49 103.84 100.82 104.14 C 101.75 106.72 102.93 109.27 103.23 112.03 C 103.08 115.21 101.91 118.22 101.04 121.25 C 98.26 128.65 95.62 136.11 93.68 143.77 C 91.64 150.57 90.60 157.62 88.32 164.35 C 86.75 168.85 86.98 173.68 87.38 178.35 C 90.64 176.25 91.69 172.41 92.99 169.00 C 95.65 162.38 97.33 155.35 101.07 149.21 C 103.75 142.86 106.99 136.68 108.92 130.05 C 110.02 128.12 111.01 126.14 111.97 124.15 C 109.55 123.41 107.12 122.71 104.68 122.02 C 104.69 118.00 103.55 112.14 108.28 110.28 C 112.21 110.22 116.09 111.39 120.03 110.88 C 126.14 110.40 131.50 107.21 137.16 105.17 C 139.32 104.27 142.19 103.41 142.46 100.65 C 143.28 96.08 143.91 91.14 142.39 86.66 C 138.44 85.51 134.32 86.98 130.33 87.22 C 130.39 85.67 130.47 84.12 130.55 82.57 L 130.85 81.69 C 129.54 80.78 128.28 79.76 126.79 79.16 C 124.76 76.92 121.73 75.17 120.96 72.09 C 121.65 70.03 124.03 69.54 125.83 68.85 C 130.77 67.08 136.37 68.65 141.09 66.11 L 141.95 65.97 C 143.37 62.05 143.01 57.68 142.32 53.64 C 141.49 52.28 141.35 50.05 139.55 49.60 C 135.08 48.40 130.43 48.19 125.85 47.63 C 125.47 47.61 124.72 47.57 124.34 47.55 C 122.92 48.53 121.61 49.77 119.94 50.30 C 117.46 49.61 115.26 48.21 112.82 47.43 C 110.38 47.81 108.27 49.29 105.89 49.92 M 85.37 58.37 C 81.26 58.92 81.56 63.79 80.94 66.88 C 86.12 68.41 91.55 68.40 96.87 67.82 C 97.20 66.63 97.52 65.45 97.85 64.26 C 94.27 61.44 90.45 57.07 85.37 58.37 M 124.80 118.68 C 122.61 119.45 120.14 120.11 118.68 122.05 C 118.55 124.41 118.58 127.79 121.21 128.78 C 123.76 130.06 126.30 131.44 129.05 132.23 C 132.27 131.83 135.37 130.72 138.28 129.33 C 138.50 124.32 139.73 119.50 141.25 114.73 C 135.59 115.21 130.21 117.09 124.80 118.68 M 159.36 133.41 C 156.03 134.33 153.51 136.86 150.46 138.36 C 147.95 139.18 145.25 139.25 142.79 140.23 C 137.01 140.67 131.78 143.34 126.57 145.66 C 123.25 147.39 119.80 145.27 116.71 144.05 C 116.35 145.67 116.00 147.30 115.66 148.93 C 114.81 158.23 117.95 167.59 115.47 176.77 C 114.47 182.37 111.07 187.02 108.76 192.08 C 107.99 194.00 110.27 195.18 111.82 195.38 C 121.94 197.28 132.48 196.26 142.46 194.10 C 138.79 190.46 135.07 186.66 133.33 181.67 C 131.24 175.74 126.54 170.53 126.62 164.01 C 129.51 160.70 134.21 163.01 137.92 162.93 C 144.24 165.80 151.58 168.56 154.69 175.33 C 155.89 179.17 154.51 183.22 154.14 187.10 C 160.17 187.92 167.06 183.52 167.21 177.09 C 167.80 169.72 167.57 162.31 166.81 154.96 C 166.04 147.63 166.28 140.25 165.84 132.90 C 163.68 132.98 161.48 132.92 159.36 133.41 Z" />
</g>
<g id="#e54f20ff">
<path fill="#e54f20" opacity="1.00" d=" M 164.62 47.42 C 165.52 44.53 169.29 45.25 171.59 45.58 C 179.04 47.51 186.68 51.73 190.09 58.95 C 192.61 63.78 190.72 70.09 194.88 74.16 C 194.52 76.09 192.18 78.82 194.68 80.16 C 196.44 81.86 199.87 82.93 199.38 85.94 C 199.19 87.80 198.09 89.95 196.03 90.17 C 190.66 91.20 184.99 90.67 179.84 92.82 C 173.23 94.79 166.71 99.34 159.55 97.32 C 160.07 91.94 160.01 86.28 162.23 81.25 C 165.46 77.61 171.36 78.27 174.81 74.85 C 176.60 72.47 176.57 69.06 175.64 66.34 C 173.56 62.21 166.40 65.94 164.82 61.34 C 164.00 56.77 164.03 52.02 164.62 47.42 M 166.98 47.90 C 166.43 52.50 166.45 57.16 167.35 61.71 C 168.88 61.71 170.41 61.70 171.95 61.73 C 173.96 63.02 176.74 64.00 177.29 66.64 C 178.08 69.68 178.12 73.38 175.85 75.83 C 172.65 79.24 167.27 78.92 163.86 81.91 C 161.70 86.64 161.61 92.01 161.89 97.11 C 171.95 95.47 180.68 88.92 191.06 88.89 C 193.10 88.45 196.19 89.09 197.31 86.91 C 198.33 82.90 193.14 82.32 191.34 79.68 C 191.26 77.82 192.32 76.12 192.64 74.31 C 190.84 73.00 188.75 72.21 186.73 71.34 C 187.99 70.22 189.26 69.09 190.53 67.96 C 189.91 63.90 189.50 59.49 186.79 56.19 C 184.59 53.20 181.32 51.24 177.85 50.04 C 174.55 48.18 170.67 48.03 166.98 47.90 Z" />
</g>
<g id="#ff9c24ff">
<path fill="#ff9c24" opacity="1.00" d=" M 105.89 49.92 C 108.27 49.29 110.38 47.81 112.82 47.43 C 115.26 48.21 117.46 49.61 119.94 50.30 C 121.61 49.77 122.92 48.53 124.34 47.55 C 124.72 47.57 125.47 47.61 125.85 47.63 C 122.06 53.47 118.21 59.42 116.28 66.18 C 114.48 72.44 111.28 78.17 109.47 84.42 C 108.06 88.87 107.05 93.55 104.58 97.58 C 103.45 99.79 100.70 99.69 98.62 100.28 C 101.44 102.73 103.19 106.07 104.44 109.54 C 106.88 109.42 109.32 109.32 111.76 109.40 C 114.95 109.58 118.15 109.88 121.35 109.60 C 126.68 108.18 131.70 105.86 136.82 103.84 C 138.49 103.03 140.70 102.40 141.25 100.38 C 142.77 96.08 142.10 91.43 141.70 87.00 C 138.79 87.64 135.93 88.45 133.05 89.22 C 131.66 88.65 130.28 88.08 128.89 87.51 C 129.43 85.86 129.98 84.21 130.55 82.57 C 130.47 84.12 130.39 85.67 130.33 87.22 C 134.32 86.98 138.44 85.51 142.39 86.66 C 143.91 91.14 143.28 96.08 142.46 100.65 C 142.19 103.41 139.32 104.27 137.16 105.17 C 131.50 107.21 126.14 110.40 120.03 110.88 C 116.09 111.39 112.21 110.22 108.28 110.28 C 103.55 112.14 104.69 118.00 104.68 122.02 C 107.12 122.71 109.55 123.41 111.97 124.15 C 111.01 126.14 110.02 128.12 108.92 130.05 C 109.26 128.43 109.55 126.81 109.84 125.19 C 106.95 123.78 104.03 122.42 101.04 121.25 C 101.91 118.22 103.08 115.21 103.23 112.03 C 102.93 109.27 101.75 106.72 100.82 104.14 C 95.49 103.84 89.83 102.83 84.72 104.83 C 80.95 107.00 77.68 109.97 73.68 111.75 C 75.81 109.23 78.25 106.72 79.14 103.44 C 80.08 99.99 80.70 96.43 82.06 93.10 C 85.00 85.87 87.35 78.30 91.80 71.79 C 88.15 70.93 84.47 70.15 80.93 68.91 C 86.06 69.09 91.25 70.12 96.37 69.33 C 99.00 68.74 99.40 65.60 98.60 63.44 C 96.52 60.89 93.75 59.03 91.25 56.93 C 93.21 54.24 94.59 51.04 97.15 48.85 C 100.08 49.03 102.93 50.06 105.89 49.92 Z" />
</g>
<g id="#ffac27ff">
<path fill="#ffac27" opacity="1.00" d=" M 125.85 47.63 C 130.43 48.19 135.08 48.40 139.55 49.60 C 141.35 50.05 141.49 52.28 142.32 53.64 C 139.41 51.24 135.72 50.31 132.02 50.20 C 129.79 55.30 128.04 60.62 125.32 65.50 C 130.44 67.05 135.84 66.65 141.09 66.11 C 136.37 68.65 130.77 67.08 125.83 68.85 C 124.03 69.54 121.65 70.03 120.96 72.09 C 121.73 75.17 124.76 76.92 126.79 79.16 C 124.90 78.63 122.97 78.24 121.06 77.82 C 115.95 86.68 113.75 96.80 108.90 105.79 C 109.85 106.99 110.81 108.19 111.76 109.40 C 109.32 109.32 106.88 109.42 104.44 109.54 C 103.19 106.07 101.44 102.73 98.62 100.28 C 100.70 99.69 103.45 99.79 104.58 97.58 C 107.05 93.55 108.06 88.87 109.47 84.42 C 111.28 78.17 114.48 72.44 116.28 66.18 C 118.21 59.42 122.06 53.47 125.85 47.63 Z" />
</g>
<g id="#ffbc28ff">
<path fill="#ffbc28" opacity="1.00" d=" M 166.98 47.90 C 170.67 48.03 174.55 48.18 177.85 50.04 C 179.60 51.89 181.21 53.87 182.84 55.82 C 181.74 57.93 180.64 60.05 179.55 62.16 C 177.02 61.97 174.48 61.80 171.95 61.73 C 170.41 61.70 168.88 61.71 167.35 61.71 C 166.45 57.16 166.43 52.50 166.98 47.90 Z" />
</g>
<g id="#ffcd2bff">
<path fill="#ffcd2b" opacity="1.00" d=" M 132.02 50.20 C 135.72 50.31 139.41 51.24 142.32 53.64 C 143.01 57.68 143.37 62.05 141.95 65.97 L 141.09 66.11 C 135.84 66.65 130.44 67.05 125.32 65.50 C 128.04 60.62 129.79 55.30 132.02 50.20 Z" />
</g>
<g id="#ff9f23ff">
<path fill="#ff9f23" opacity="1.00" d=" M 177.85 50.04 C 181.32 51.24 184.59 53.20 186.79 56.19 C 189.50 59.49 189.91 63.90 190.53 67.96 C 189.26 69.09 187.99 70.22 186.73 71.34 C 188.75 72.21 190.84 73.00 192.64 74.31 C 192.32 76.12 191.26 77.82 191.34 79.68 C 193.14 82.32 198.33 82.90 197.31 86.91 C 196.19 89.09 193.10 88.45 191.06 88.89 C 180.68 88.92 171.95 95.47 161.89 97.11 C 161.61 92.01 161.70 86.64 163.86 81.91 C 167.27 78.92 172.65 79.24 175.85 75.83 C 178.12 73.38 178.08 69.68 177.29 66.64 C 176.74 64.00 173.96 63.02 171.95 61.73 C 174.48 61.80 177.02 61.97 179.55 62.16 C 180.64 60.05 181.74 57.93 182.84 55.82 C 181.21 53.87 179.60 51.89 177.85 50.04 Z" />
</g>
<g id="#fea331ff">
<path fill="#fea331" opacity="1.00" d=" M 81.45 53.33 C 84.20 52.41 86.81 54.10 89.22 55.19 C 86.67 56.32 83.86 57.01 81.61 58.69 C 79.67 61.36 79.90 64.89 79.63 68.02 C 79.31 67.76 78.66 67.25 78.33 66.99 C 78.29 65.07 78.39 63.16 78.48 61.25 C 75.63 62.08 72.67 62.66 70.02 64.04 C 68.03 65.36 66.66 67.38 65.07 69.12 C 66.07 66.97 65.89 63.54 68.71 62.92 C 71.36 61.81 74.43 61.56 76.76 59.79 C 78.59 57.84 79.69 55.35 81.45 53.33 Z" />
</g>
<g id="#d81423ff">
<path fill="#d81423" opacity="1.00" d=" M 85.37 58.37 C 90.45 57.07 94.27 61.44 97.85 64.26 C 97.52 65.45 97.20 66.63 96.87 67.82 C 91.55 68.40 86.12 68.41 80.94 66.88 C 81.56 63.79 81.26 58.92 85.37 58.37 Z" />
</g>
<g id="#ffdf30ff">
<path fill="#ffdf30" opacity="1.00" d=" M 70.02 64.04 C 72.67 62.66 75.63 62.08 78.48 61.25 C 78.39 63.16 78.29 65.07 78.33 66.99 C 78.62 69.50 79.48 72.09 78.66 74.59 C 77.05 79.47 74.52 84.00 72.90 88.89 C 70.14 97.27 66.21 105.21 63.48 113.61 C 62.72 116.68 59.59 118.48 56.53 117.90 C 55.76 116.46 55.16 114.95 54.53 113.45 L 54.40 113.14 C 54.63 107.08 54.25 101.03 53.57 95.00 C 52.51 88.28 58.34 83.02 57.57 76.30 C 60.07 73.90 62.78 71.73 65.07 69.12 C 66.66 67.38 68.03 65.36 70.02 64.04 Z" />
</g>
<g id="#c66f71ff">
<path fill="#c66f71" opacity="1.00" d=" M 226.97 66.03 C 232.14 72.58 234.86 80.58 237.46 88.40 C 244.73 110.69 245.00 135.12 238.60 157.65 C 236.30 165.61 232.84 173.15 229.69 180.80 C 217.40 202.16 199.14 220.52 176.62 230.91 C 166.16 236.93 154.18 239.85 142.28 241.23 C 116.71 244.40 89.60 240.35 67.45 226.70 C 54.65 219.29 43.97 208.79 34.18 197.83 C 30.82 194.14 27.88 190.02 26.41 185.20 C 28.87 187.89 31.41 190.51 33.64 193.41 C 39.82 203.02 48.56 210.59 57.50 217.53 C 77.41 232.46 102.37 239.44 127.01 240.27 C 145.50 239.05 164.12 235.25 180.72 226.76 C 197.78 217.67 212.35 204.10 223.14 188.09 C 228.59 179.66 232.77 170.46 236.17 161.04 C 239.53 152.02 240.63 142.38 241.82 132.89 C 243.19 122.36 241.54 111.76 239.72 101.40 C 237.49 88.97 232.21 77.42 226.97 66.03 Z" />
</g>
<g id="#ffbd29ff">
<path fill="#ffbd29" opacity="1.00" d=" M 78.33 66.99 C 78.66 67.25 79.31 67.76 79.63 68.02 C 79.95 68.24 80.60 68.69 80.93 68.91 C 84.47 70.15 88.15 70.93 91.80 71.79 C 87.35 78.30 85.00 85.87 82.06 93.10 C 80.70 96.43 80.08 99.99 79.14 103.44 C 78.25 106.72 75.81 109.23 73.68 111.75 C 70.41 115.36 66.06 117.79 61.67 119.80 C 59.34 120.94 56.04 120.80 54.55 118.41 C 53.06 116.91 54.03 114.87 54.40 113.14 L 54.53 113.45 C 55.16 114.95 55.76 116.46 56.53 117.90 C 59.59 118.48 62.72 116.68 63.48 113.61 C 66.21 105.21 70.14 97.27 72.90 88.89 C 74.52 84.00 77.05 79.47 78.66 74.59 C 79.48 72.09 78.62 69.50 78.33 66.99 Z" />
</g>
<g id="#da7678ff">
<path fill="#da7678" opacity="1.00" d=" M 19.06 75.13 C 20.47 73.49 21.95 71.90 23.27 70.17 C 20.42 76.53 17.87 83.03 15.57 89.62 C 12.65 97.78 12.21 106.50 10.71 114.98 C 8.94 125.18 10.75 135.50 12.28 145.61 C 12.97 150.26 14.22 154.81 15.77 159.25 C 17.84 167.37 22.35 174.57 24.61 182.63 C 19.56 177.71 17.79 170.70 15.49 164.28 C 13.97 159.39 11.82 154.68 10.77 149.64 C 8.01 132.50 7.30 114.71 11.52 97.74 C 13.68 90.10 15.61 82.33 19.06 75.13 Z" />
</g>
<g id="#e2e0e0ff">
<path fill="#e2e0e0" opacity="1.00" d=" M 7.17 109.67 C 9.29 96.94 11.84 83.74 19.05 72.78 C 19.05 73.37 19.05 74.54 19.06 75.13 C 15.61 82.33 13.68 90.10 11.52 97.74 C 7.30 114.71 8.01 132.50 10.77 149.64 C 11.82 154.68 13.97 159.39 15.49 164.28 C 17.79 170.70 19.56 177.71 24.61 182.63 C 25.21 183.48 25.81 184.34 26.41 185.20 C 27.88 190.02 30.82 194.14 34.18 197.83 C 43.97 208.79 54.65 219.29 67.45 226.70 C 89.60 240.35 116.71 244.40 142.28 241.23 C 154.18 239.85 166.16 236.93 176.62 230.91 C 199.14 220.52 217.40 202.16 229.69 180.80 C 234.86 173.77 237.36 165.32 239.89 157.10 C 244.38 141.96 244.76 125.91 243.37 110.28 C 242.67 104.79 241.66 99.34 241.01 93.85 C 242.25 96.71 243.67 99.54 244.28 102.62 C 246.62 115.61 245.72 128.85 245.76 141.96 C 242.77 167.04 231.99 191.22 214.77 209.76 C 202.78 222.30 188.53 233.06 172.15 239.15 C 162.62 243.26 152.39 245.23 142.43 248.00 L 109.63 248.00 C 97.48 244.19 84.84 241.49 73.48 235.53 C 68.00 232.76 62.26 230.37 57.31 226.68 C 50.32 221.41 43.24 216.17 37.36 209.63 C 28.35 199.51 20.92 188.00 15.54 175.55 C 12.82 169.24 10.11 162.84 8.96 156.02 C 7.81 149.40 6.19 142.80 6.10 136.05 C 6.00 127.25 5.46 118.37 7.17 109.67 Z" />
</g>
<g id="#ffc52aff">
<path fill="#ffc52a" opacity="1.00" d=" M 108.90 105.79 C 113.75 96.80 115.95 86.68 121.06 77.82 C 122.97 78.24 124.90 78.63 126.79 79.16 C 128.28 79.76 129.54 80.78 130.85 81.69 L 130.55 82.57 C 129.98 84.21 129.43 85.86 128.89 87.51 C 130.28 88.08 131.66 88.65 133.05 89.22 C 130.59 89.54 128.13 89.12 125.73 88.64 C 123.38 95.02 121.35 101.53 118.49 107.72 C 119.44 108.34 120.40 108.97 121.35 109.60 C 118.15 109.88 114.95 109.58 111.76 109.40 C 110.81 108.19 109.85 106.99 108.90 105.79 Z" />
</g>
<g id="#ffe62fff">
<path fill="#ffe62f" opacity="1.00" d=" M 133.05 89.22 C 135.93 88.45 138.79 87.64 141.70 87.00 C 142.10 91.43 142.77 96.08 141.25 100.38 C 140.70 102.40 138.49 103.03 136.82 103.84 C 131.70 105.86 126.68 108.18 121.35 109.60 C 120.40 108.97 119.44 108.34 118.49 107.72 C 121.35 101.53 123.38 95.02 125.73 88.64 C 128.13 89.12 130.59 89.54 133.05 89.22 Z" />
</g>
<g id="#ffa826ff">
<path fill="#ffa826" opacity="1.00" d=" M 182.97 102.71 C 188.95 102.64 194.92 102.29 200.80 101.07 C 201.17 105.74 202.73 111.26 200.01 115.42 C 196.29 115.68 192.67 114.56 188.97 114.51 C 184.75 114.07 181.61 117.63 177.51 118.01 C 176.73 113.94 176.31 109.81 176.49 105.67 C 178.83 105.12 181.12 104.29 182.97 102.71 Z" />
</g>
<g id="#ffe72fff">
<path fill="#ffe72f" opacity="1.00" d=" M 124.80 118.68 C 130.21 117.09 135.59 115.21 141.25 114.73 C 139.73 119.50 138.50 124.32 138.28 129.33 C 135.37 130.72 132.27 131.83 129.05 132.23 C 126.30 131.44 123.76 130.06 121.21 128.78 C 118.58 127.79 118.55 124.41 118.68 122.05 C 120.14 120.11 122.61 119.45 124.80 118.68 Z" />
</g>
<g id="#fea428ff">
<path fill="#fea428" opacity="1.00" d=" M 156.52 115.29 C 161.70 112.91 164.64 119.60 163.15 123.79 C 160.96 124.15 158.77 124.49 156.58 124.81 C 155.48 121.70 156.11 118.45 156.52 115.29 Z" />
</g>
<g id="#d80a21ff">
<path fill="#d80a21" opacity="1.00" d=" M 71.94 118.90 C 80.37 115.13 89.98 115.31 98.95 116.64 C 97.02 120.93 95.61 125.47 95.44 130.21 C 94.42 135.19 92.70 139.98 90.95 144.74 C 88.75 150.66 88.45 157.04 86.90 163.13 C 85.52 168.52 84.69 174.26 86.08 179.73 C 87.46 181.56 89.82 179.86 91.62 179.75 C 90.29 180.82 89.00 182.64 87.07 182.30 C 84.18 182.05 84.31 178.24 83.16 176.21 C 83.03 179.71 83.09 183.37 81.70 186.65 C 80.48 189.26 76.16 190.18 74.49 187.54 C 71.89 184.17 70.01 180.05 66.10 177.93 C 60.37 174.77 58.98 166.98 52.73 164.52 C 47.41 165.00 41.42 165.69 37.55 169.79 C 40.94 170.60 44.35 171.32 47.73 172.17 C 40.33 173.78 32.74 172.76 25.24 173.12 C 27.37 180.15 31.03 186.56 33.64 193.41 C 31.41 190.51 28.87 187.89 26.41 185.20 C 25.81 184.34 25.21 183.48 24.61 182.63 C 22.35 174.57 17.84 167.37 15.77 159.25 C 15.76 156.07 15.93 152.86 15.21 149.74 C 14.32 145.33 12.43 140.89 13.36 136.32 C 14.15 133.50 16.54 131.47 18.86 129.85 C 22.03 127.60 26.08 128.41 29.70 128.51 C 32.35 126.11 34.81 122.81 38.66 122.50 C 42.33 122.04 45.97 121.19 49.23 119.38 C 50.63 121.06 51.79 123.09 53.72 124.24 C 56.97 125.37 60.47 125.28 63.86 125.47 C 66.11 122.81 68.66 120.27 71.94 118.90 M 62.00 138.20 C 60.08 138.38 56.37 136.34 55.69 138.93 C 56.90 144.22 58.25 149.55 61.40 154.07 C 60.63 157.46 56.20 160.03 57.88 163.78 C 59.23 165.20 60.86 166.31 62.23 167.72 C 63.82 169.57 64.57 172.00 66.20 173.82 C 68.03 175.53 70.45 176.35 72.61 177.55 C 75.72 178.88 74.78 183.04 75.54 185.74 C 77.20 185.70 78.86 185.67 80.52 185.65 C 80.51 179.62 80.85 173.59 81.76 167.62 C 83.05 160.20 82.11 152.66 82.57 145.19 C 85.15 142.44 84.34 138.43 84.56 135.00 C 84.43 132.74 84.98 130.03 83.00 128.41 C 75.82 131.30 70.64 140.00 62.00 138.20 Z" />
</g>
<g id="#ffbd27ff">
<path fill="#ffbd27" opacity="1.00" d=" M 192.01 127.40 C 196.76 127.74 198.70 122.74 200.21 119.16 C 203.71 123.01 199.47 127.28 198.74 131.31 C 198.09 136.26 198.92 141.82 195.70 146.05 C 195.99 140.59 195.72 135.12 195.82 129.65 C 194.01 129.97 191.37 129.16 190.33 131.13 C 188.17 135.26 186.88 139.79 185.29 144.16 C 182.42 151.87 183.80 160.21 182.73 168.21 C 180.82 161.99 181.72 155.40 181.37 149.00 C 181.71 142.31 179.32 135.67 180.62 129.01 C 183.51 126.05 188.29 128.02 192.01 127.40 Z" />
</g>
<g id="#ffbd28ff">
<path fill="#ffbd28" opacity="1.00" d=" M 101.04 121.25 C 104.03 122.42 106.95 123.78 109.84 125.19 C 109.55 126.81 109.26 128.43 108.92 130.05 C 106.99 136.68 103.75 142.86 101.07 149.21 C 97.33 155.35 95.65 162.38 92.99 169.00 C 91.69 172.41 90.64 176.25 87.38 178.35 C 86.98 173.68 86.75 168.85 88.32 164.35 C 90.60 157.62 91.64 150.57 93.68 143.77 C 95.62 136.11 98.26 128.65 101.04 121.25 Z" />
</g>
<g id="#ff9b23ff">
<path fill="#ff9b23" opacity="1.00" d=" M 62.00 138.20 C 70.64 140.00 75.82 131.30 83.00 128.41 C 84.98 130.03 84.43 132.74 84.56 135.00 C 84.34 138.43 85.15 142.44 82.57 145.19 C 82.11 152.66 83.05 160.20 81.76 167.62 C 80.85 173.59 80.51 179.62 80.52 185.65 C 78.86 185.67 77.20 185.70 75.54 185.74 C 74.78 183.04 75.72 178.88 72.61 177.55 C 70.45 176.35 68.03 175.53 66.20 173.82 C 64.57 172.00 63.82 169.57 62.23 167.72 C 60.86 166.31 59.23 165.20 57.88 163.78 C 56.20 160.03 60.63 157.46 61.40 154.07 C 58.25 149.55 56.90 144.22 55.69 138.93 C 56.37 136.34 60.08 138.38 62.00 138.20 Z" />
</g>
<g id="#ffd72bff">
<path fill="#ffd72b" opacity="1.00" d=" M 190.33 131.13 C 191.37 129.16 194.01 129.97 195.82 129.65 C 195.72 135.12 195.99 140.59 195.70 146.05 C 195.04 148.59 193.88 151.14 194.41 153.83 C 195.00 155.67 196.45 157.09 197.08 158.93 C 196.35 161.24 195.46 163.53 195.41 165.99 C 195.30 168.86 193.63 171.31 192.82 173.99 C 192.50 176.31 193.35 178.59 193.59 180.88 C 191.03 182.85 188.47 184.85 185.58 186.31 C 184.74 180.26 182.92 174.32 182.73 168.21 C 183.80 160.21 182.42 151.87 185.29 144.16 C 186.88 139.79 188.17 135.26 190.33 131.13 Z" />
</g>
<g id="#ff9a21ff">
<path fill="#ff9a21" opacity="1.00" d=" M 159.36 133.41 C 161.48 132.92 163.68 132.98 165.84 132.90 C 166.28 140.25 166.04 147.63 166.81 154.96 C 167.57 162.31 167.80 169.72 167.21 177.09 C 167.06 183.52 160.17 187.92 154.14 187.10 C 154.51 183.22 155.89 179.17 154.69 175.33 C 151.58 168.56 144.24 165.80 137.92 162.93 C 139.77 162.93 141.62 162.85 143.48 162.77 C 144.99 158.25 146.39 153.68 148.00 149.19 C 149.70 144.37 153.60 140.85 156.97 137.18 C 152.72 139.87 147.72 140.54 142.79 140.23 C 145.25 139.25 147.95 139.18 150.46 138.36 C 153.51 136.86 156.03 134.33 159.36 133.41 Z" />
</g>
<g id="#ffad24ff">
<path fill="#ffad24" opacity="1.00" d=" M 142.79 140.23 C 147.72 140.54 152.72 139.87 156.97 137.18 C 153.60 140.85 149.70 144.37 148.00 149.19 C 146.39 153.68 144.99 158.25 143.48 162.77 C 141.62 162.85 139.77 162.93 137.92 162.93 C 134.21 163.01 129.51 160.70 126.62 164.01 C 126.54 170.53 131.24 175.74 133.33 181.67 C 135.07 186.66 138.79 190.46 142.46 194.10 C 132.48 196.26 121.94 197.28 111.82 195.38 C 114.96 195.10 118.08 194.64 121.20 194.22 C 122.66 188.68 125.49 183.70 127.91 178.56 C 128.52 173.48 124.19 168.74 125.54 163.62 C 128.02 159.92 133.94 160.28 135.90 156.02 C 138.01 151.91 139.06 147.36 140.13 142.89 C 135.41 142.95 131.11 144.87 126.97 146.92 C 124.14 148.44 120.98 147.27 118.10 146.62 C 117.28 147.38 116.47 148.15 115.66 148.93 C 116.00 147.30 116.35 145.67 116.71 144.05 C 119.80 145.27 123.25 147.39 126.57 145.66 C 131.78 143.34 137.01 140.67 142.79 140.23 Z" />
</g>
<g id="#ffd42bff">
<path fill="#ffd42b" opacity="1.00" d=" M 126.97 146.92 C 131.11 144.87 135.41 142.95 140.13 142.89 C 139.06 147.36 138.01 151.91 135.90 156.02 C 133.94 160.28 128.02 159.92 125.54 163.62 C 124.19 168.74 128.52 173.48 127.91 178.56 C 125.49 183.70 122.66 188.68 121.20 194.22 C 118.08 194.64 114.96 195.10 111.82 195.38 C 110.27 195.18 107.99 194.00 108.76 192.08 C 111.07 187.02 114.47 182.37 115.47 176.77 C 117.95 167.59 114.81 158.23 115.66 148.93 C 116.47 148.15 117.28 147.38 118.10 146.62 C 120.98 147.27 124.14 148.44 126.97 146.92 Z" />
</g>
</svg>
