<?xml version="1.0" encoding="UTF-8" ?>
<!DOCTYPE svg PUBLIC "-//W3C//DTD SVG 1.1//EN" "http://www.w3.org/Graphics/SVG/1.1/DTD/svg11.dtd">
<svg width="45pt" height="45pt" viewBox="0 0 45 45" version="1.1" xmlns="http://www.w3.org/2000/svg">
<g id="#f8f8f8ff">
<path fill="#f8f8f8" opacity="1.00" d=" M 0.00 0.00 L 45.00 0.00 L 45.00 45.00 L 0.00 45.00 L 0.00 0.00 M 10.81 18.85 C 8.49 23.36 11.49 28.14 14.02 31.81 C 17.69 26.23 21.36 20.65 25.00 15.05 C 28.13 10.57 25.45 5.07 23.21 0.84 C 18.88 6.70 14.38 12.49 10.81 18.85 M 19.86 29.96 C 17.31 34.49 20.36 39.45 22.95 43.17 C 26.66 37.47 30.44 31.82 34.11 26.10 C 36.98 21.63 34.29 16.35 32.14 12.19 C 27.85 17.97 23.44 23.70 19.86 29.96 Z" />
</g>
<g id="#08bf91ff">
<path fill="#08bf91" opacity="1.00" d=" M 10.81 18.85 C 14.38 12.49 18.88 6.70 23.21 0.84 C 25.45 5.07 28.13 10.57 25.00 15.05 C 21.36 20.65 17.69 26.23 14.02 31.81 C 11.49 28.14 8.49 23.36 10.81 18.85 Z" />
<path fill="#08bf91" opacity="1.00" d=" M 19.86 29.96 C 23.44 23.70 27.85 17.97 32.14 12.19 C 34.29 16.35 36.98 21.63 34.11 26.10 C 30.44 31.82 26.66 37.47 22.95 43.17 C 20.36 39.45 17.31 34.49 19.86 29.96 Z" />
</g>
</svg>
