<?xml version="1.0" encoding="UTF-8" ?>
<!DOCTYPE svg PUBLIC "-//W3C//DTD SVG 1.1//EN" "http://www.w3.org/Graphics/SVG/1.1/DTD/svg11.dtd">
<svg width="192pt" height="192pt" viewBox="0 0 192 192" version="1.1" xmlns="http://www.w3.org/2000/svg">
<g id="#efefefff">
<path fill="#efefef" opacity="1.00" d=" M 42.20 17.03 C 58.17 6.03 77.61 0.16 96.99 0.50 C 121.03 0.52 144.84 10.29 162.11 26.98 C 178.11 42.16 188.50 63.09 190.96 85.02 C 193.04 102.63 189.86 120.56 182.74 136.74 C 182.63 136.57 182.42 136.24 182.31 136.07 L 182.18 135.61 C 180.14 136.08 178.07 136.47 175.97 136.43 C 167.55 136.34 159.12 136.41 150.70 136.39 C 150.36 132.43 151.39 128.41 150.49 124.50 C 152.60 124.40 154.69 124.00 156.69 123.30 C 153.69 118.91 150.12 114.97 146.36 111.23 C 144.71 113.64 143.04 116.03 141.31 118.38 C 111.50 118.16 81.67 118.53 51.87 118.20 C 48.40 116.42 45.44 113.81 42.17 111.69 C 42.16 119.88 42.14 128.06 42.20 136.25 C 44.60 136.25 47.00 136.25 49.40 136.25 C 49.44 132.00 49.44 127.74 49.42 123.49 C 80.71 123.55 112.00 123.50 143.29 123.52 C 143.29 127.78 143.29 132.04 143.24 136.30 C 129.11 136.47 114.97 136.38 100.84 136.35 C 100.85 133.63 100.95 130.92 101.10 128.20 C 97.49 130.26 93.88 132.32 90.32 134.46 C 88.68 135.39 86.99 136.53 85.00 136.35 C 59.80 136.36 34.60 136.31 9.40 136.38 L 9.23 136.38 C 0.74 117.63 -1.81 96.22 2.54 76.07 C 7.46 52.24 22.05 30.63 42.20 17.03 M 92.16 24.06 C 92.15 27.94 92.24 31.81 92.06 35.68 C 75.02 35.26 57.95 36.22 40.93 35.09 C 41.62 37.09 42.33 39.08 43.02 41.07 C 59.38 40.46 75.78 40.98 92.16 40.81 C 92.17 44.49 92.17 48.18 92.16 51.86 C 73.11 51.82 54.06 51.85 35.00 51.85 C 31.22 51.84 27.45 51.36 23.68 51.02 C 24.39 53.08 25.08 55.14 25.77 57.21 C 47.90 57.15 70.03 57.23 92.16 57.17 C 92.17 60.95 92.13 64.74 92.24 68.53 C 78.51 68.78 64.76 68.54 51.03 68.65 C 47.35 68.73 43.69 68.35 40.03 68.07 C 40.55 70.04 41.14 72.00 41.77 73.94 C 58.55 73.34 75.37 73.85 92.17 73.68 C 92.17 77.37 92.17 81.06 92.15 84.75 C 75.79 84.70 59.42 84.73 43.06 84.74 C 39.91 84.77 36.83 84.09 33.74 83.58 C 34.28 85.83 34.78 88.09 35.25 90.36 C 42.79 89.38 50.37 90.37 57.92 89.95 C 69.33 90.11 80.74 90.14 92.15 89.88 C 92.18 93.95 92.17 98.02 92.16 102.08 C 86.42 101.78 80.67 101.91 74.93 101.92 C 61.60 102.34 48.27 101.65 34.94 102.02 C 31.17 101.96 27.43 101.42 23.68 101.05 C 24.38 103.23 25.06 105.42 25.69 107.63 C 29.11 107.31 32.55 107.21 35.98 107.27 C 79.67 107.29 123.36 107.26 167.05 107.28 C 167.39 106.65 168.07 105.40 168.41 104.77 C 165.36 100.61 161.73 96.94 157.94 93.45 C 156.28 96.32 154.57 99.16 152.92 102.03 C 135.12 101.92 117.32 101.90 99.53 102.08 C 99.46 98.01 99.46 93.94 99.53 89.87 C 119.70 90.04 139.86 90.11 160.02 89.93 C 160.19 88.94 161.28 87.71 160.28 86.83 C 157.70 83.28 154.49 80.25 151.51 77.05 C 149.88 79.59 148.28 82.16 146.68 84.72 C 130.98 84.80 115.28 84.59 99.59 84.83 C 99.42 81.11 99.48 77.39 99.49 73.67 C 113.79 73.67 128.08 73.71 142.37 73.65 C 142.37 74.49 142.37 76.16 142.36 76.99 C 144.84 76.34 147.29 75.59 149.72 74.78 C 149.70 68.91 149.70 63.04 149.70 57.17 C 155.54 57.21 161.38 57.17 167.21 57.20 C 167.58 56.23 167.95 55.26 168.32 54.29 C 165.45 50.35 162.28 46.63 158.92 43.10 C 157.30 46.04 155.72 49.01 154.05 51.93 C 152.60 51.90 151.15 51.87 149.71 51.84 C 149.69 48.58 149.69 45.32 149.73 42.07 C 152.11 41.71 154.49 41.22 156.62 40.04 C 153.70 35.47 149.63 31.83 145.95 27.91 C 143.85 30.34 142.53 33.75 139.96 35.57 C 126.45 35.66 112.93 35.61 99.42 35.58 C 99.68 33.91 98.96 31.85 99.81 30.36 C 102.09 29.67 106.89 29.61 106.05 26.03 C 102.14 23.24 96.69 24.93 92.16 24.06 Z" />
<path fill="#efefef" opacity="1.00" d=" M 99.50 40.80 C 113.79 40.80 128.08 40.83 142.37 40.78 C 142.39 44.49 142.40 48.21 142.36 51.92 C 128.08 51.78 113.80 51.82 99.52 51.90 C 99.47 48.20 99.47 44.50 99.50 40.80 Z" />
<path fill="#efefef" opacity="1.00" d=" M 99.53 57.12 C 113.81 57.23 128.08 57.23 142.36 57.12 C 142.39 61.00 142.46 64.87 142.29 68.75 C 128.05 68.55 113.81 68.59 99.58 68.73 C 99.42 64.86 99.46 60.99 99.53 57.12 Z" />
<path fill="#efefef" opacity="1.00" d=" M 10.71 139.45 C 33.47 139.47 56.24 139.44 79.00 139.46 C 81.72 139.56 84.52 139.11 87.19 139.76 C 91.95 142.16 96.40 145.15 101.10 147.68 C 100.96 144.96 100.86 142.23 100.85 139.50 C 114.98 139.38 129.13 139.38 143.26 139.50 C 143.29 144.41 143.28 149.33 143.28 154.25 C 112.01 154.27 80.74 154.19 49.48 154.28 C 49.40 149.37 49.45 144.45 49.41 139.53 C 46.99 139.55 44.58 139.56 42.17 139.57 C 42.13 148.28 42.22 156.99 42.11 165.70 C 44.57 165.69 47.04 165.68 49.50 165.66 C 49.46 163.57 49.44 161.49 49.40 159.40 C 80.71 159.49 112.01 159.36 143.32 159.47 C 143.30 161.29 143.28 163.12 143.26 164.94 C 145.56 164.94 147.88 164.92 150.17 164.62 C 150.44 164.55 150.99 164.41 151.26 164.34 C 150.13 156.09 150.61 147.71 150.72 139.42 C 160.93 139.47 171.15 139.35 181.36 139.50 C 174.41 152.20 165.15 163.76 153.46 172.41 C 137.07 184.79 116.56 191.74 95.99 191.50 C 70.21 191.81 44.64 180.74 26.93 162.06 C 20.40 155.40 15.19 147.60 10.71 139.45 Z" />
</g>
<g id="#373534ff">
<path fill="#373534" opacity="1.00" d=" M 92.16 24.06 C 96.69 24.93 102.14 23.24 106.05 26.03 C 106.89 29.61 102.09 29.67 99.81 30.36 C 98.96 31.85 99.68 33.91 99.42 35.58 C 112.93 35.61 126.45 35.66 139.96 35.57 C 142.53 33.75 143.85 30.34 145.95 27.91 C 149.63 31.83 153.70 35.47 156.62 40.04 C 154.49 41.22 152.11 41.71 149.73 42.07 C 149.69 45.32 149.69 48.58 149.71 51.84 C 151.15 51.87 152.60 51.90 154.05 51.93 C 155.72 49.01 157.30 46.04 158.92 43.10 C 162.28 46.63 165.45 50.35 168.32 54.29 C 167.95 55.26 167.58 56.23 167.21 57.20 C 161.38 57.17 155.54 57.21 149.70 57.17 C 149.70 63.04 149.70 68.91 149.72 74.78 C 147.29 75.59 144.84 76.34 142.36 76.99 C 142.37 76.16 142.37 74.49 142.37 73.65 C 128.08 73.71 113.79 73.67 99.49 73.67 C 99.48 77.39 99.42 81.11 99.59 84.83 C 115.28 84.59 130.98 84.80 146.68 84.72 C 148.28 82.16 149.88 79.59 151.51 77.05 C 154.49 80.25 157.70 83.28 160.28 86.83 C 161.28 87.71 160.19 88.94 160.02 89.93 C 139.86 90.11 119.70 90.04 99.53 89.87 C 99.46 93.94 99.46 98.01 99.53 102.08 C 117.32 101.90 135.12 101.92 152.92 102.03 C 154.57 99.16 156.28 96.32 157.94 93.45 C 161.73 96.94 165.36 100.61 168.41 104.77 C 168.07 105.40 167.39 106.65 167.05 107.28 C 123.36 107.26 79.67 107.29 35.98 107.27 C 32.55 107.21 29.11 107.31 25.69 107.63 C 25.06 105.42 24.38 103.23 23.68 101.05 C 27.43 101.42 31.17 101.96 34.94 102.02 C 48.27 101.65 61.60 102.34 74.93 101.92 C 80.67 101.91 86.42 101.78 92.16 102.08 C 92.17 98.02 92.18 93.95 92.15 89.88 C 80.74 90.14 69.33 90.11 57.92 89.95 C 50.37 90.37 42.79 89.38 35.25 90.36 C 34.78 88.09 34.28 85.83 33.74 83.58 C 36.83 84.09 39.91 84.77 43.06 84.74 C 59.42 84.73 75.79 84.70 92.15 84.75 C 92.17 81.06 92.17 77.37 92.17 73.68 C 75.37 73.85 58.55 73.34 41.77 73.94 C 41.14 72.00 40.55 70.04 40.03 68.07 C 43.69 68.35 47.35 68.73 51.03 68.65 C 64.76 68.54 78.51 68.78 92.24 68.53 C 92.13 64.74 92.17 60.95 92.16 57.17 C 70.03 57.23 47.90 57.15 25.77 57.21 C 25.08 55.14 24.39 53.08 23.68 51.02 C 27.45 51.36 31.22 51.84 35.00 51.85 C 54.06 51.85 73.11 51.82 92.16 51.86 C 92.17 48.18 92.17 44.49 92.16 40.81 C 75.78 40.98 59.38 40.46 43.02 41.07 C 42.33 39.08 41.62 37.09 40.93 35.09 C 57.95 36.22 75.02 35.26 92.06 35.68 C 92.24 31.81 92.15 27.94 92.16 24.06 M 99.50 40.80 C 99.47 44.50 99.47 48.20 99.52 51.90 C 113.80 51.82 128.08 51.78 142.36 51.92 C 142.40 48.21 142.39 44.49 142.37 40.78 C 128.08 40.83 113.79 40.80 99.50 40.80 M 99.53 57.12 C 99.46 60.99 99.42 64.86 99.58 68.73 C 113.81 68.59 128.05 68.55 142.29 68.75 C 142.46 64.87 142.39 61.00 142.36 57.12 C 128.08 57.23 113.81 57.23 99.53 57.12 Z" />
</g>
<g id="#363433ff">
<path fill="#363433" opacity="1.00" d=" M 42.17 111.69 C 45.44 113.81 48.40 116.42 51.87 118.20 C 81.67 118.53 111.50 118.16 141.31 118.38 C 143.04 116.03 144.71 113.64 146.36 111.23 C 150.12 114.97 153.69 118.91 156.69 123.30 C 154.69 124.00 152.60 124.40 150.49 124.50 C 149.66 128.34 150.09 132.28 150.13 136.18 C 147.83 136.21 145.53 136.25 143.24 136.30 C 143.29 132.04 143.29 127.78 143.29 123.52 C 112.00 123.50 80.71 123.55 49.42 123.49 C 49.44 127.74 49.44 132.00 49.40 136.25 C 47.00 136.25 44.60 136.25 42.20 136.25 C 42.14 128.06 42.16 119.88 42.17 111.69 Z" />
</g>
<g id="#afb1b1ff">
<path fill="#afb1b1" opacity="1.00" d=" M 150.49 124.50 C 151.39 128.41 150.36 132.43 150.70 136.39 C 159.12 136.41 167.55 136.34 175.97 136.43 C 178.07 136.47 180.14 136.08 182.18 135.61 L 182.31 136.07 C 182.27 137.28 181.78 138.39 181.36 139.50 C 171.15 139.35 160.93 139.47 150.72 139.42 C 150.61 147.71 150.13 156.09 151.26 164.34 C 150.99 164.41 150.44 164.55 150.17 164.62 C 149.83 156.25 150.42 147.87 149.95 139.51 C 147.72 139.52 145.49 139.53 143.26 139.50 C 129.13 139.38 114.98 139.38 100.85 139.50 C 100.84 138.45 100.84 137.40 100.84 136.35 C 114.97 136.38 129.11 136.47 143.24 136.30 C 145.53 136.25 147.83 136.21 150.13 136.18 C 150.09 132.28 149.66 128.34 150.49 124.50 Z" />
</g>
<g id="#e60012ff">
<path fill="#e60012" opacity="1.00" d=" M 90.32 134.46 C 93.88 132.32 97.49 130.26 101.10 128.20 C 100.95 130.92 100.85 133.63 100.84 136.35 C 100.84 137.40 100.84 138.45 100.85 139.50 C 100.86 142.23 100.96 144.96 101.10 147.68 C 96.40 145.15 91.95 142.16 87.19 139.76 C 84.52 139.11 81.72 139.56 79.00 139.46 C 56.24 139.44 33.47 139.47 10.71 139.45 C 10.27 138.43 9.83 137.40 9.40 136.38 C 34.60 136.31 59.80 136.36 85.00 136.35 C 86.99 136.53 88.68 135.39 90.32 134.46 Z" />
</g>
<g id="#373433ff">
<path fill="#373433" opacity="1.00" d=" M 143.26 139.50 C 145.49 139.53 147.72 139.52 149.95 139.51 C 150.42 147.87 149.83 156.25 150.17 164.62 C 147.88 164.92 145.56 164.94 143.26 164.94 C 143.28 163.12 143.30 161.29 143.32 159.47 C 112.01 159.36 80.71 159.49 49.40 159.40 C 49.44 161.49 49.46 163.57 49.50 165.66 C 47.04 165.68 44.57 165.69 42.11 165.70 C 42.22 156.99 42.13 148.28 42.17 139.57 C 44.58 139.56 46.99 139.55 49.41 139.53 C 49.45 144.45 49.40 149.37 49.48 154.28 C 80.74 154.19 112.01 154.27 143.28 154.25 C 143.28 149.33 143.29 144.41 143.26 139.50 Z" />
</g>
</svg>
