<?xml version="1.0" encoding="UTF-8" ?>
<!DOCTYPE svg PUBLIC "-//W3C//DTD SVG 1.1//EN" "http://www.w3.org/Graphics/SVG/1.1/DTD/svg11.dtd">
<svg width="64pt" height="64pt" viewBox="0 0 64 64" version="1.1" xmlns="http://www.w3.org/2000/svg">
<g id="#fefeffff">
<path fill="#fefeff" opacity="1.00" d=" M 24.26 2.22 C 33.01 0.10 42.62 1.70 50.00 6.94 C 62.27 15.34 66.26 33.24 59.26 46.26 C 54.39 56.42 43.16 62.86 31.98 62.66 C 22.05 62.81 12.05 57.78 6.56 49.43 C -0.57 39.01 -0.41 24.28 6.94 14.01 C 10.98 8.08 17.41 4.07 24.26 2.22 M 25.44 5.53 C 11.45 8.64 1.89 24.00 5.38 37.92 C 8.18 52.21 23.75 62.17 37.90 58.62 C 52.21 55.84 62.19 40.23 58.62 26.07 C 55.78 11.54 39.73 1.56 25.44 5.53 Z" />
<path fill="#fefeff" opacity="1.00" d=" M 17.16 16.47 C 17.61 13.28 20.20 17.01 21.69 17.32 L 21.78 18.17 C 19.39 18.08 17.01 17.98 14.63 17.79 C 15.47 17.35 16.32 16.91 17.16 16.47 Z" />
<path fill="#fefeff" opacity="1.00" d=" M 22.34 14.46 C 23.58 15.62 24.72 16.89 25.96 18.05 C 27.11 16.86 28.16 15.59 29.31 14.40 C 29.07 15.37 28.84 16.35 28.60 17.32 C 30.17 19.01 29.64 21.39 29.83 23.48 C 29.28 23.51 28.19 23.57 27.65 23.60 C 27.72 25.39 27.81 27.18 27.93 28.98 C 28.52 28.06 29.71 26.23 30.31 25.32 C 30.41 26.65 30.50 28.00 30.29 29.33 C 29.08 29.61 27.82 29.65 26.60 29.49 C 26.20 27.32 26.20 25.11 25.99 22.93 C 25.19 25.33 24.34 27.74 23.03 29.93 C 21.35 29.47 19.74 28.78 18.10 28.22 C 17.61 28.73 16.65 29.75 16.16 30.26 C 16.05 28.13 15.98 26.00 15.92 23.87 C 17.62 23.87 19.31 23.87 21.00 23.87 C 20.96 25.14 21.04 26.40 21.25 27.65 C 23.22 28.87 23.16 25.40 24.07 24.34 C 21.00 23.33 21.52 19.16 23.13 17.11 C 22.87 16.23 22.60 15.34 22.34 14.46 M 23.52 19.25 C 23.55 20.23 23.57 21.22 23.60 22.21 C 25.15 22.20 26.70 22.19 28.24 22.18 C 28.24 21.44 28.24 19.96 28.24 19.22 C 26.67 19.23 25.09 19.24 23.52 19.25 M 17.38 25.37 C 16.28 26.84 18.77 28.52 19.73 26.97 C 20.80 25.50 18.33 23.78 17.38 25.37 Z" />
<path fill="#fefeff" opacity="1.00" d=" M 38.88 14.42 C 40.26 15.41 41.56 16.52 42.76 17.72 C 45.02 17.88 47.29 18.08 49.49 18.65 C 48.67 18.88 47.03 19.32 46.21 19.54 C 45.05 21.68 43.83 23.78 42.51 25.83 C 44.73 26.88 46.94 27.93 49.11 29.10 C 46.31 30.91 43.71 27.98 41.22 26.98 C 38.73 28.34 36.14 29.55 33.37 30.20 C 34.51 27.56 37.64 27.26 39.89 26.00 C 38.53 23.94 37.33 21.79 36.26 19.56 C 35.41 19.36 33.70 18.96 32.84 18.75 C 35.18 17.63 37.80 17.88 40.30 17.89 C 39.95 17.02 39.23 15.29 38.88 14.42 M 37.66 19.39 C 38.73 21.32 39.88 23.20 41.11 25.03 C 42.38 23.23 43.55 21.35 44.62 19.42 C 42.30 19.37 39.98 19.37 37.66 19.39 Z" />
<path fill="#fefeff" opacity="1.00" d=" M 16.31 19.51 C 17.58 18.80 19.41 18.81 20.67 19.52 C 20.38 20.92 16.59 20.93 16.31 19.51 Z" />
<path fill="#fefeff" opacity="1.00" d=" M 16.08 21.41 C 17.69 21.41 19.31 21.42 20.93 21.42 C 20.98 21.74 21.08 22.38 21.13 22.70 C 19.40 22.70 17.67 22.70 15.95 22.71 C 15.98 22.38 16.04 21.73 16.08 21.41 Z" />
<path fill="#fefeff" opacity="1.00" d=" M 18.45 34.18 C 19.71 34.64 20.98 35.10 22.25 35.54 C 21.86 36.28 21.47 37.02 21.08 37.75 C 21.99 38.10 22.90 38.46 23.81 38.81 C 24.31 38.31 25.31 37.30 25.81 36.80 C 24.81 36.19 23.80 35.57 22.81 34.95 C 25.30 34.82 27.80 34.81 30.31 34.79 C 30.17 36.24 30.02 37.70 29.86 39.15 C 29.12 39.61 27.63 40.54 26.89 41.00 C 27.95 41.40 30.07 42.21 31.12 42.61 C 29.12 43.00 27.10 43.21 25.06 43.31 C 24.08 43.77 23.10 44.24 22.12 44.72 C 24.89 44.77 27.66 44.79 30.43 44.79 C 30.51 45.14 30.67 45.84 30.75 46.19 C 30.10 46.19 28.81 46.20 28.17 46.20 C 27.86 47.11 27.24 48.91 26.93 49.82 C 26.70 48.96 26.24 47.26 26.02 46.40 C 25.23 46.17 23.66 45.71 22.87 45.48 C 22.78 46.37 22.58 48.16 22.48 49.05 C 21.42 48.92 20.36 48.79 19.31 48.66 C 19.94 47.91 21.22 46.43 21.86 45.69 C 20.68 45.48 19.50 45.31 18.31 45.16 C 17.58 46.71 16.86 48.25 15.98 49.72 C 16.22 45.63 17.22 41.43 15.87 37.42 C 16.73 36.34 17.59 35.27 18.45 34.18 M 17.89 36.45 C 17.33 38.05 17.88 38.55 19.54 37.94 C 20.11 36.33 19.56 35.83 17.89 36.45 M 24.97 40.00 C 24.69 43.68 27.01 39.13 27.95 38.29 L 28.75 38.45 C 28.67 37.70 28.52 36.21 28.45 35.46 C 27.22 36.90 25.62 38.17 24.97 40.00 M 18.06 39.36 C 16.59 42.41 21.37 39.44 18.06 39.36 M 20.15 39.41 C 19.73 40.83 20.21 41.30 21.59 40.81 C 22.01 39.40 21.53 38.93 20.15 39.41 M 23.01 42.29 C 24.17 42.32 24.47 41.65 23.91 40.28 C 22.57 40.03 22.27 40.71 23.01 42.29 M 18.05 42.33 C 16.55 45.39 21.34 42.46 18.05 42.33 M 19.81 43.12 C 20.71 44.54 21.55 44.51 22.35 43.03 C 21.42 41.66 20.58 41.69 19.81 43.12 Z" />
<path fill="#fefeff" opacity="1.00" d=" M 39.55 35.58 C 39.89 35.09 40.58 34.12 40.92 33.63 C 41.27 34.11 41.98 35.08 42.34 35.56 C 44.32 35.53 46.31 35.51 48.29 35.50 C 48.29 36.55 48.29 38.66 48.29 39.71 L 46.82 39.66 C 46.80 39.01 46.77 37.71 46.76 37.07 C 43.02 37.07 39.28 37.00 35.54 36.91 C 35.50 37.62 35.43 39.03 35.39 39.73 L 33.91 39.67 C 33.91 38.63 33.91 36.54 33.92 35.50 C 35.79 35.51 37.67 35.54 39.55 35.58 Z" />
<path fill="#fefeff" opacity="1.00" d=" M 36.41 38.73 C 39.78 38.73 43.16 38.71 46.54 38.89 C 45.15 40.32 43.66 41.64 42.11 42.89 C 44.60 42.89 47.10 43.01 49.54 43.54 C 47.20 44.45 44.68 44.41 42.22 44.45 C 42.10 46.05 41.97 47.65 41.82 49.26 C 40.13 49.05 38.39 48.90 36.88 48.02 C 37.79 47.88 39.60 47.58 40.51 47.43 C 40.52 46.42 40.52 45.40 40.53 44.38 C 38.24 44.38 35.94 44.38 33.65 44.38 L 33.66 42.91 C 35.74 42.91 37.83 42.90 39.92 42.89 C 40.98 41.94 42.07 41.01 43.17 40.10 C 40.88 40.19 38.59 40.23 36.30 40.25 L 36.41 38.73 Z" />
</g>
<g id="#065279ff">
<path fill="#065279" opacity="1.00" d=" M 25.44 5.53 C 39.73 1.56 55.78 11.54 58.62 26.07 C 62.19 40.23 52.21 55.84 37.90 58.62 C 23.75 62.17 8.18 52.21 5.38 37.92 C 1.89 24.00 11.45 8.64 25.44 5.53 M 17.16 16.47 C 16.32 16.91 15.47 17.35 14.63 17.79 C 17.01 17.98 19.39 18.08 21.78 18.17 L 21.69 17.32 C 20.20 17.01 17.61 13.28 17.16 16.47 M 22.34 14.46 C 22.60 15.34 22.87 16.23 23.13 17.11 C 21.52 19.16 21.00 23.33 24.07 24.34 C 23.16 25.40 23.22 28.87 21.25 27.65 C 21.04 26.40 20.96 25.14 21.00 23.87 C 19.31 23.87 17.62 23.87 15.92 23.87 C 15.98 26.00 16.05 28.13 16.16 30.26 C 16.65 29.75 17.61 28.73 18.10 28.22 C 19.74 28.78 21.35 29.47 23.03 29.93 C 24.34 27.74 25.19 25.33 25.99 22.93 C 26.20 25.11 26.20 27.32 26.60 29.49 C 27.82 29.65 29.08 29.61 30.29 29.33 C 30.50 28.00 30.41 26.65 30.31 25.32 C 29.71 26.23 28.52 28.06 27.93 28.98 C 27.81 27.18 27.72 25.39 27.65 23.60 C 28.19 23.57 29.28 23.51 29.83 23.48 C 29.64 21.39 30.17 19.01 28.60 17.32 C 28.84 16.35 29.07 15.37 29.31 14.40 C 28.16 15.59 27.11 16.86 25.96 18.05 C 24.72 16.89 23.58 15.62 22.34 14.46 M 38.88 14.42 C 39.23 15.29 39.95 17.02 40.30 17.89 C 37.80 17.88 35.18 17.63 32.84 18.75 C 33.70 18.96 35.41 19.36 36.26 19.56 C 37.33 21.79 38.53 23.94 39.89 26.00 C 37.64 27.26 34.51 27.56 33.37 30.20 C 36.14 29.55 38.73 28.34 41.22 26.98 C 43.71 27.98 46.31 30.91 49.11 29.10 C 46.94 27.93 44.73 26.88 42.51 25.83 C 43.83 23.78 45.05 21.68 46.21 19.54 C 47.03 19.32 48.67 18.88 49.49 18.65 C 47.29 18.08 45.02 17.88 42.76 17.72 C 41.56 16.52 40.26 15.41 38.88 14.42 M 16.31 19.51 C 16.59 20.93 20.38 20.92 20.67 19.52 C 19.41 18.81 17.58 18.80 16.31 19.51 M 16.08 21.41 C 16.04 21.73 15.98 22.38 15.95 22.71 C 17.67 22.70 19.40 22.70 21.13 22.70 C 21.08 22.38 20.98 21.74 20.93 21.42 C 19.31 21.42 17.69 21.41 16.08 21.41 M 18.45 34.18 C 17.59 35.27 16.73 36.34 15.87 37.42 C 17.22 41.43 16.22 45.63 15.98 49.72 C 16.86 48.25 17.58 46.71 18.31 45.16 C 19.50 45.31 20.68 45.48 21.86 45.69 C 21.22 46.43 19.94 47.91 19.31 48.66 C 20.36 48.79 21.42 48.92 22.48 49.05 C 22.58 48.16 22.78 46.37 22.87 45.48 C 23.66 45.71 25.23 46.17 26.02 46.40 C 26.24 47.26 26.70 48.96 26.93 49.82 C 27.24 48.91 27.86 47.11 28.17 46.20 C 28.81 46.20 30.10 46.19 30.75 46.19 C 30.67 45.84 30.51 45.14 30.43 44.79 C 27.66 44.79 24.89 44.77 22.12 44.72 C 23.10 44.24 24.08 43.77 25.06 43.31 C 27.10 43.21 29.12 43.00 31.12 42.61 C 30.07 42.21 27.95 41.40 26.89 41.00 C 27.63 40.54 29.12 39.61 29.86 39.15 C 30.02 37.70 30.17 36.24 30.31 34.79 C 27.80 34.81 25.30 34.82 22.81 34.95 C 23.80 35.57 24.81 36.19 25.81 36.80 C 25.31 37.30 24.31 38.31 23.81 38.81 C 22.90 38.46 21.99 38.10 21.08 37.75 C 21.47 37.02 21.86 36.28 22.25 35.54 C 20.98 35.10 19.71 34.64 18.45 34.18 M 39.55 35.58 C 37.67 35.54 35.79 35.51 33.92 35.50 C 33.91 36.54 33.91 38.63 33.91 39.67 L 35.39 39.73 C 35.43 39.03 35.50 37.62 35.54 36.91 C 39.28 37.00 43.02 37.07 46.76 37.07 C 46.77 37.71 46.80 39.01 46.82 39.66 L 48.29 39.71 C 48.29 38.66 48.29 36.55 48.29 35.50 C 46.31 35.51 44.32 35.53 42.34 35.56 C 41.98 35.08 41.27 34.11 40.92 33.63 C 40.58 34.12 39.89 35.09 39.55 35.58 M 36.41 38.73 L 36.30 40.25 C 38.59 40.23 40.88 40.19 43.17 40.10 C 42.07 41.01 40.98 41.94 39.92 42.89 C 37.83 42.90 35.74 42.91 33.66 42.91 L 33.65 44.38 C 35.94 44.38 38.24 44.38 40.53 44.38 C 40.52 45.40 40.52 46.42 40.51 47.43 C 39.60 47.58 37.79 47.88 36.88 48.02 C 38.39 48.90 40.13 49.05 41.82 49.26 C 41.97 47.65 42.10 46.05 42.22 44.45 C 44.68 44.41 47.20 44.45 49.54 43.54 C 47.10 43.01 44.60 42.89 42.11 42.89 C 43.66 41.64 45.15 40.32 46.54 38.89 C 43.16 38.71 39.78 38.73 36.41 38.73 Z" />
<path fill="#065279" opacity="1.00" d=" M 23.52 19.25 C 25.09 19.24 26.67 19.23 28.24 19.22 C 28.24 19.96 28.24 21.44 28.24 22.18 C 26.70 22.19 25.15 22.20 23.60 22.21 C 23.57 21.22 23.55 20.23 23.52 19.25 Z" />
<path fill="#065279" opacity="1.00" d=" M 37.66 19.39 C 39.98 19.37 42.30 19.37 44.62 19.42 C 43.55 21.35 42.38 23.23 41.11 25.03 C 39.88 23.20 38.73 21.32 37.66 19.39 Z" />
<path fill="#065279" opacity="1.00" d=" M 17.38 25.37 C 18.33 23.78 20.80 25.50 19.73 26.97 C 18.77 28.52 16.28 26.84 17.38 25.37 Z" />
<path fill="#065279" opacity="1.00" d=" M 17.89 36.45 C 19.56 35.83 20.11 36.33 19.54 37.94 C 17.88 38.55 17.33 38.05 17.89 36.45 Z" />
<path fill="#065279" opacity="1.00" d=" M 24.97 40.00 C 25.62 38.17 27.22 36.90 28.45 35.46 C 28.52 36.21 28.67 37.70 28.75 38.45 L 27.95 38.29 C 27.01 39.13 24.69 43.68 24.97 40.00 Z" />
<path fill="#065279" opacity="1.00" d=" M 18.06 39.36 C 21.37 39.44 16.59 42.41 18.06 39.36 Z" />
<path fill="#065279" opacity="1.00" d=" M 20.15 39.41 C 21.53 38.93 22.01 39.40 21.59 40.81 C 20.21 41.30 19.73 40.83 20.15 39.41 Z" />
<path fill="#065279" opacity="1.00" d=" M 23.01 42.29 C 22.27 40.71 22.57 40.03 23.91 40.28 C 24.47 41.65 24.17 42.32 23.01 42.29 Z" />
<path fill="#065279" opacity="1.00" d=" M 18.05 42.33 C 21.34 42.46 16.55 45.39 18.05 42.33 Z" />
<path fill="#065279" opacity="1.00" d=" M 19.81 43.12 C 20.58 41.69 21.42 41.66 22.35 43.03 C 21.55 44.51 20.71 44.54 19.81 43.12 Z" />
</g>
</svg>
