<?xml version="1.0" encoding="UTF-8" ?>
<!DOCTYPE svg PUBLIC "-//W3C//DTD SVG 1.1//EN" "http://www.w3.org/Graphics/SVG/1.1/DTD/svg11.dtd">
<svg width="800pt" height="800pt" viewBox="0 0 800 800" version="1.1" xmlns="http://www.w3.org/2000/svg">
<g id="#d64922ff">
<path fill="#d64922" opacity="1.00" d=" M 0.00 0.00 L 800.00 0.00 L 800.00 800.00 L 0.00 800.00 L 0.00 0.00 M 371.54 65.88 C 307.36 71.16 244.96 95.63 194.20 135.25 C 141.66 175.97 101.71 232.67 81.18 295.90 C 66.46 340.86 61.55 388.95 66.66 435.97 C 74.55 510.91 108.96 582.63 162.22 635.90 C 209.26 683.39 270.83 716.27 336.51 728.77 C 382.50 737.61 430.35 736.68 475.95 726.02 C 510.94 717.86 544.58 703.99 575.17 685.15 C 628.79 652.26 672.78 603.92 700.45 547.43 C 735.43 476.88 744.04 393.82 724.56 317.55 C 715.58 282.05 700.72 248.05 680.75 217.36 C 646.22 164.03 596.17 120.92 538.30 94.69 C 486.41 70.98 428.38 61.05 371.54 65.88 Z" />
<path fill="#d64922" opacity="1.00" d=" M 377.54 162.80 C 428.57 157.91 481.15 170.07 524.61 197.32 C 556.01 216.67 582.76 243.46 602.14 274.83 C 623.56 308.71 635.63 348.30 637.58 388.29 C 639.58 428.45 631.07 469.06 613.20 505.08 C 596.46 538.40 572.10 567.94 542.16 590.22 C 515.88 609.96 485.59 624.35 453.52 631.69 C 410.83 641.68 365.38 639.47 323.86 625.40 C 291.75 614.66 262.28 596.51 237.45 573.56 C 212.42 550.15 192.44 521.32 179.41 489.61 C 164.48 453.20 158.84 413.04 163.16 373.93 C 166.69 341.95 176.60 310.55 192.73 282.68 C 209.54 253.13 232.63 227.17 260.17 207.23 C 294.35 182.20 335.35 166.66 377.54 162.80 M 392.31 275.41 C 370.99 276.61 350.03 283.49 332.14 295.15 C 310.07 309.42 292.72 330.83 283.45 355.42 C 272.94 382.95 272.74 414.26 282.88 441.93 C 289.47 459.99 300.32 476.46 314.27 489.69 C 339.01 513.43 373.86 526.18 408.09 523.75 C 444.30 521.68 478.92 502.52 500.22 473.21 C 520.87 445.44 528.83 408.81 521.84 374.94 C 515.55 343.04 495.98 314.12 468.91 296.15 C 446.56 281.09 419.20 273.74 392.31 275.41 Z" />
</g>
<g id="#ffffffff">
<path fill="#ffffff" opacity="1.00" d=" M 371.54 65.88 C 428.38 61.05 486.41 70.98 538.30 94.69 C 596.17 120.92 646.22 164.03 680.75 217.36 C 700.72 248.05 715.58 282.05 724.56 317.55 C 744.04 393.82 735.43 476.88 700.45 547.43 C 672.78 603.92 628.79 652.26 575.17 685.15 C 544.58 703.99 510.94 717.86 475.95 726.02 C 430.35 736.68 382.50 737.61 336.51 728.77 C 270.83 716.27 209.26 683.39 162.22 635.90 C 108.96 582.63 74.55 510.91 66.66 435.97 C 61.55 388.95 66.46 340.86 81.18 295.90 C 101.71 232.67 141.66 175.97 194.20 135.25 C 244.96 95.63 307.36 71.16 371.54 65.88 M 377.54 162.80 C 335.35 166.66 294.35 182.20 260.17 207.23 C 232.63 227.17 209.54 253.13 192.73 282.68 C 176.60 310.55 166.69 341.95 163.16 373.93 C 158.84 413.04 164.48 453.20 179.41 489.61 C 192.44 521.32 212.42 550.15 237.45 573.56 C 262.28 596.51 291.75 614.66 323.86 625.40 C 365.38 639.47 410.83 641.68 453.52 631.69 C 485.59 624.35 515.88 609.96 542.16 590.22 C 572.10 567.94 596.46 538.40 613.20 505.08 C 631.07 469.06 639.58 428.45 637.58 388.29 C 635.63 348.30 623.56 308.71 602.14 274.83 C 582.76 243.46 556.01 216.67 524.61 197.32 C 481.15 170.07 428.57 157.91 377.54 162.80 Z" />
<path fill="#ffffff" opacity="1.00" d=" M 392.31 275.41 C 419.20 273.74 446.56 281.09 468.91 296.15 C 495.98 314.12 515.55 343.04 521.84 374.94 C 528.83 408.81 520.87 445.44 500.22 473.21 C 478.92 502.52 444.30 521.68 408.09 523.75 C 373.86 526.18 339.01 513.43 314.27 489.69 C 300.32 476.46 289.47 459.99 282.88 441.93 C 272.74 414.26 272.94 382.95 283.45 355.42 C 292.72 330.83 310.07 309.42 332.14 295.15 C 350.03 283.49 370.99 276.61 392.31 275.41 Z" />
</g>
</svg>
