<?xml version="1.0" encoding="UTF-8" ?>
<!DOCTYPE svg PUBLIC "-//W3C//DTD SVG 1.1//EN" "http://www.w3.org/Graphics/SVG/1.1/DTD/svg11.dtd">
<svg width="32pt" height="32pt" viewBox="0 0 32 32" version="1.1" xmlns="http://www.w3.org/2000/svg">
<g id="#fb339eff">
<path fill="#fb339e" opacity="1.00" d=" M 2.45 9.46 C 5.71 5.77 10.96 4.76 15.45 6.72 L 14.79 7.44 C 12.82 9.81 11.43 12.57 10.23 15.38 C 7.49 13.60 4.86 11.67 2.45 9.46 Z" />
</g>
<g id="#30c1f8ff">
<path fill="#30c1f8" opacity="1.00" d=" M 15.45 6.72 C 19.91 5.40 25.00 5.10 28.64 8.53 C 26.36 11.06 23.96 13.46 21.56 15.88 L 21.00 16.50 C 20.73 16.13 20.20 15.41 19.93 15.04 C 18.02 12.65 16.33 10.09 14.79 7.44 L 15.45 6.72 Z" />
</g>
<g id="#59c99dff">
<path fill="#59c99d" opacity="1.00" d=" M 10.23 15.38 C 11.43 12.57 12.82 9.81 14.79 7.44 C 16.33 10.09 18.02 12.65 19.93 15.04 C 16.69 14.83 13.44 14.92 10.23 15.38 Z" />
</g>
<g id="#017de0ff">
<path fill="#017de0" opacity="1.00" d=" M 28.64 8.53 C 29.86 10.09 30.90 11.76 32.00 13.40 L 32.00 18.45 C 31.77 18.87 31.31 19.72 31.08 20.14 C 28.66 19.53 26.22 18.96 23.83 18.23 C 23.08 17.44 22.32 16.66 21.56 15.88 C 23.96 13.46 26.36 11.06 28.64 8.53 Z" />
</g>
<g id="#ff6457ff">
<path fill="#ff6457" opacity="1.00" d=" M 0.01 15.92 C 0.29 13.60 1.17 11.41 2.45 9.46 C 4.86 11.67 7.49 13.60 10.23 15.38 L 11.01 15.90 L 10.21 15.92 C 6.81 15.97 3.41 15.92 0.01 15.92 Z" />
</g>
<g id="#7bcf22ff">
<path fill="#7bcf22" opacity="1.00" d=" M 10.23 15.38 C 13.44 14.92 16.69 14.83 19.93 15.04 C 20.20 15.41 20.73 16.13 21.00 16.50 C 21.14 16.85 21.42 17.54 21.56 17.89 C 20.86 19.16 20.18 20.44 19.43 21.68 C 17.34 19.61 14.83 18.06 12.25 16.67 C 11.94 16.48 11.32 16.09 11.01 15.90 L 10.23 15.38 Z" />
</g>
<g id="#ffa223ff">
<path fill="#ffa223" opacity="1.00" d=" M 0.01 15.92 C 3.41 15.92 6.81 15.97 10.21 15.92 C 7.91 18.48 5.53 20.98 2.91 23.23 C 1.24 21.12 0.21 18.60 0.01 15.92 Z" />
</g>
<g id="#f3df24ff">
<path fill="#f3df24" opacity="1.00" d=" M 10.21 15.92 L 11.01 15.90 C 11.32 16.09 11.94 16.48 12.25 16.67 C 13.14 19.71 14.07 22.73 15.11 25.72 C 10.88 27.12 6.14 26.45 2.91 23.23 C 5.53 20.98 7.91 18.48 10.21 15.92 Z" />
</g>
<g id="#5f43c3f9">
<path fill="#5f43c3" opacity="0.98" d=" M 21.00 16.50 L 21.56 15.88 C 22.32 16.66 23.08 17.44 23.83 18.23 C 25.35 20.12 26.72 22.12 28.15 24.09 C 26.88 24.87 25.57 25.58 24.24 26.24 C 23.46 23.42 22.66 20.60 21.56 17.89 C 21.42 17.54 21.14 16.85 21.00 16.50 Z" />
</g>
<g id="#c1df24ff">
<path fill="#c1df24" opacity="1.00" d=" M 12.25 16.67 C 14.83 18.06 17.34 19.61 19.43 21.68 C 18.53 22.99 17.57 24.25 16.55 25.48 C 16.19 25.54 15.47 25.66 15.11 25.72 C 14.07 22.73 13.14 19.71 12.25 16.67 Z" />
</g>
<g id="#9e2bc4ff">
<path fill="#9e2bc4" opacity="1.00" d=" M 21.56 17.89 C 22.66 20.60 23.46 23.42 24.24 26.24 C 21.64 26.67 19.05 26.22 16.55 25.48 C 17.57 24.25 18.53 22.99 19.43 21.68 C 20.18 20.44 20.86 19.16 21.56 17.89 Z" />
</g>
<g id="#2950c5ef">
<path fill="#2950c5" opacity="0.94" d=" M 23.83 18.23 C 26.22 18.96 28.66 19.53 31.08 20.14 C 30.20 21.52 29.23 22.85 28.15 24.09 C 26.72 22.12 25.35 20.12 23.83 18.23 Z" />
</g>
</svg>
