<?xml version="1.0" encoding="UTF-8" ?>
<!DOCTYPE svg PUBLIC "-//W3C//DTD SVG 1.1//EN" "http://www.w3.org/Graphics/SVG/1.1/DTD/svg11.dtd">
<svg width="67pt" height="67pt" viewBox="0 0 67 67" version="1.1" xmlns="http://www.w3.org/2000/svg">
<g id="#020201ff">
<path fill="#020201" opacity="1.00" d=" M 0.00 0.00 L 67.00 0.00 L 67.00 67.00 L 0.00 67.00 L 0.00 0.00 M 26.45 2.65 C 17.28 4.48 9.15 10.67 4.80 18.93 C 0.71 26.57 -0.03 35.88 2.72 44.09 C 5.69 53.46 13.40 61.13 22.70 64.27 C 34.67 68.52 48.92 64.76 57.19 55.11 C 64.58 46.83 66.98 34.62 63.57 24.10 C 59.02 8.85 41.95 -1.01 26.45 2.65 Z" />
<path fill="#020201" opacity="1.00" d=" M 18.43 22.41 C 23.35 17.54 28.22 12.63 33.12 7.75 C 35.72 10.34 38.33 12.90 40.87 15.55 C 39.41 16.98 37.96 18.42 36.51 19.87 C 35.38 18.75 34.26 17.63 33.13 16.51 C 29.40 20.31 25.49 23.94 21.89 27.85 C 19.57 31.00 23.98 35.46 27.26 33.33 C 31.68 30.09 34.77 23.81 41.06 24.21 C 48.88 23.97 53.95 33.96 49.20 40.16 C 44.33 45.65 38.85 50.59 33.75 55.87 C 34.84 56.96 35.91 58.05 37.00 59.14 C 35.59 60.55 34.17 61.96 32.76 63.37 C 30.20 60.83 27.66 58.30 25.13 55.74 C 31.38 49.41 37.77 43.22 43.95 36.84 C 46.78 34.02 42.95 28.97 39.44 30.56 C 35.33 33.26 32.88 38.48 27.79 39.67 C 22.66 41.06 16.86 37.77 15.56 32.59 C 14.58 29.01 15.63 24.89 18.43 22.41 Z" />
</g>
<g id="#fdcc1bff">
<path fill="#fdcc1b" opacity="1.00" d=" M 26.45 2.65 C 41.95 -1.01 59.02 8.85 63.57 24.10 C 66.98 34.62 64.58 46.83 57.19 55.11 C 48.92 64.76 34.67 68.52 22.70 64.27 C 13.40 61.13 5.69 53.46 2.72 44.09 C -0.03 35.88 0.71 26.57 4.80 18.93 C 9.15 10.67 17.28 4.48 26.45 2.65 M 18.43 22.41 C 15.63 24.89 14.58 29.01 15.56 32.59 C 16.86 37.77 22.66 41.06 27.79 39.67 C 32.88 38.48 35.33 33.26 39.44 30.56 C 42.95 28.97 46.78 34.02 43.95 36.84 C 37.77 43.22 31.38 49.41 25.13 55.74 C 27.66 58.30 30.20 60.83 32.76 63.37 C 34.17 61.96 35.59 60.55 37.00 59.14 C 35.91 58.05 34.84 56.96 33.75 55.87 C 38.85 50.59 44.33 45.65 49.20 40.16 C 53.95 33.96 48.88 23.97 41.06 24.21 C 34.77 23.81 31.68 30.09 27.26 33.33 C 23.98 35.46 19.57 31.00 21.89 27.85 C 25.49 23.94 29.40 20.31 33.13 16.51 C 34.26 17.63 35.38 18.75 36.51 19.87 C 37.96 18.42 39.41 16.98 40.87 15.55 C 38.33 12.90 35.72 10.34 33.12 7.75 C 28.22 12.63 23.35 17.54 18.43 22.41 Z" />
</g>
</svg>
