<?xml version="1.0" encoding="UTF-8" ?>
<!DOCTYPE svg PUBLIC "-//W3C//DTD SVG 1.1//EN" "http://www.w3.org/Graphics/SVG/1.1/DTD/svg11.dtd">
<svg width="192pt" height="192pt" viewBox="0 0 192 192" version="1.1" xmlns="http://www.w3.org/2000/svg">
<g id="#36c5f0ff">
<path fill="#36c5f0" opacity="1.00" d=" M 69.41 0.00 L 72.31 0.00 C 82.01 0.68 90.51 9.13 90.79 18.93 C 90.94 26.07 90.79 33.21 90.84 40.36 C 83.89 40.31 76.94 40.44 70.00 40.32 C 62.99 40.18 56.29 36.01 53.00 29.83 C 49.43 23.42 49.81 15.04 53.94 8.97 C 57.35 3.79 63.24 0.45 69.41 0.00 Z" />
<path fill="#36c5f0" opacity="1.00" d=" M 0.00 69.55 C 0.46 59.25 9.75 50.39 20.08 50.60 C 37.06 50.57 54.05 50.55 71.03 50.61 C 81.38 50.50 90.73 59.57 90.84 69.93 C 91.62 80.47 82.66 90.57 72.06 90.83 C 54.71 90.94 37.34 90.85 19.99 90.87 C 9.77 91.19 0.64 82.41 0.00 72.31 L 0.00 69.55 Z" />
</g>
<g id="#2eb67dff">
<path fill="#2eb67d" opacity="1.00" d=" M 119.67 0.00 L 122.56 0.00 C 132.43 0.49 141.12 9.11 141.37 19.04 C 141.48 36.34 141.40 53.65 141.41 70.95 C 141.53 79.29 135.77 87.20 127.91 89.85 C 122.58 91.61 116.47 91.24 111.56 88.46 C 105.27 85.11 101.10 78.16 101.17 71.03 C 101.17 53.68 101.10 36.31 101.21 18.96 C 101.46 9.15 109.96 0.70 119.67 0.00 Z" />
<path fill="#2eb67d" opacity="1.00" d=" M 160.82 53.76 C 167.37 49.45 176.48 49.57 182.94 54.02 C 189.64 58.45 193.19 67.07 191.42 74.93 C 189.76 83.53 181.85 90.54 173.05 90.83 C 165.87 90.95 158.68 90.84 151.50 90.87 C 151.54 83.92 151.43 76.96 151.55 70.01 C 151.72 63.50 155.31 57.22 160.82 53.76 Z" />
</g>
<g id="#e01e5aff">
<path fill="#e01e5a" opacity="1.00" d=" M 0.19 120.10 C 0.60 110.27 9.18 101.58 19.05 101.26 C 26.18 101.15 33.32 101.25 40.46 101.23 C 40.43 108.13 40.49 115.04 40.44 121.94 C 40.38 128.72 36.50 135.27 30.67 138.69 C 24.55 142.45 16.39 142.50 10.21 138.85 C 3.70 135.14 -0.39 127.59 0.19 120.10 Z" />
<path fill="#e01e5a" opacity="1.00" d=" M 50.59 121.03 C 50.46 111.04 58.95 101.93 68.91 101.29 C 77.26 100.38 85.78 105.37 89.10 113.08 C 90.92 116.77 90.92 120.96 90.86 124.98 C 90.82 138.65 90.84 152.31 90.85 165.98 C 90.81 170.53 91.26 175.30 89.35 179.57 C 86.62 186.40 79.93 191.18 72.67 192.00 L 69.49 192.00 C 61.99 191.55 54.98 186.63 52.14 179.67 C 50.32 175.68 50.55 171.20 50.57 166.93 C 50.61 151.63 50.54 136.33 50.59 121.03 Z" />
</g>
<g id="#ecb22eff">
<path fill="#ecb22e" opacity="1.00" d=" M 104.36 110.38 C 108.08 104.49 115.03 100.94 121.97 101.21 C 138.95 101.26 155.93 101.16 172.91 101.26 C 182.77 101.49 191.29 109.99 192.00 119.75 L 192.00 122.59 C 191.53 132.53 182.90 141.28 172.89 141.51 C 155.90 141.64 138.90 141.52 121.92 141.57 C 115.04 141.78 108.18 138.30 104.44 132.50 C 100.06 126.00 100.02 116.90 104.36 110.38 Z" />
<path fill="#ecb22e" opacity="1.00" d=" M 101.16 151.64 C 108.10 151.69 115.04 151.56 121.98 151.68 C 128.45 151.82 134.70 155.35 138.18 160.81 C 142.30 166.95 142.51 175.42 138.81 181.81 C 135.55 187.65 129.22 191.54 122.57 192.00 L 119.89 192.00 C 110.10 191.44 101.49 182.94 101.21 173.08 C 101.06 165.93 101.21 158.79 101.16 151.64 Z" />
</g>
</svg>
