<?xml version="1.0" encoding="UTF-8" ?>
<!DOCTYPE svg PUBLIC "-//W3C//DTD SVG 1.1//EN" "http://www.w3.org/Graphics/SVG/1.1/DTD/svg11.dtd">
<svg width="16pt" height="16pt" viewBox="0 0 16 16" version="1.1" xmlns="http://www.w3.org/2000/svg">
<g id="#fdfefeff">
<path fill="#fdfefe" opacity="1.00" d=" M 0.00 0.00 L 0.43 0.00 C 0.33 0.10 0.11 0.31 0.00 0.42 L 0.00 0.00 Z" />
<path fill="#fdfefe" opacity="1.00" d=" M 15.79 0.00 L 16.00 0.00 L 16.00 0.22 C 15.95 0.16 15.84 0.05 15.79 0.00 Z" />
<path fill="#fdfefe" opacity="1.00" d=" M 8.25 3.36 C 9.03 3.41 10.60 3.51 11.38 3.56 C 10.76 4.72 10.14 5.88 9.51 7.03 C 8.47 8.92 7.44 10.82 6.43 12.72 C 5.28 12.73 4.12 12.73 2.97 12.73 C 3.78 11.21 4.60 9.69 5.44 8.18 C 6.35 6.56 7.29 4.95 8.25 3.36 Z" />
<path fill="#fdfefe" opacity="1.00" d=" M 10.47 9.42 C 12.32 8.72 13.73 11.01 12.30 12.36 C 10.54 13.88 8.16 10.53 10.47 9.42 Z" />
<path fill="#fdfefe" opacity="1.00" d=" M 0.00 15.73 C 0.05 15.80 0.16 15.93 0.21 16.00 L 0.00 16.00 L 0.00 15.73 Z" />
<path fill="#fdfefe" opacity="1.00" d=" M 15.78 16.00 C 15.84 15.99 15.95 15.98 16.00 15.98 L 16.00 16.00 L 15.78 16.00 Z" />
</g>
<g id="#115352ff">
<path fill="#115352" opacity="1.00" d=" M 0.43 0.00 L 15.79 0.00 C 15.84 0.05 15.95 0.16 16.00 0.22 L 16.00 3.62 C 15.69 4.83 15.37 6.04 15.03 7.25 C 13.19 7.18 11.35 7.11 9.51 7.03 C 10.14 5.88 10.76 4.72 11.38 3.56 C 10.60 3.51 9.03 3.41 8.25 3.36 C 7.29 4.95 6.35 6.56 5.44 8.18 C 3.97 7.73 2.50 7.28 1.03 6.84 C 0.67 5.87 0.33 4.89 0.00 3.92 L 0.00 0.42 C 0.11 0.31 0.33 0.10 0.43 0.00 Z" />
</g>
<g id="#0b3838ff">
<path fill="#0b3838" opacity="1.00" d=" M 0.00 3.92 C 0.33 4.89 0.67 5.87 1.03 6.84 C 2.50 7.28 3.97 7.73 5.44 8.18 C 4.60 9.69 3.78 11.21 2.97 12.73 C 4.12 12.73 5.28 12.73 6.43 12.72 C 7.44 10.82 8.47 8.92 9.51 7.03 C 11.35 7.11 13.19 7.18 15.03 7.25 C 15.37 6.04 15.69 4.83 16.00 3.62 L 16.00 15.98 C 15.95 15.98 15.84 15.99 15.78 16.00 L 0.21 16.00 C 0.16 15.93 0.05 15.80 0.00 15.73 L 0.00 3.92 M 10.47 9.42 C 8.16 10.53 10.54 13.88 12.30 12.36 C 13.73 11.01 12.32 8.72 10.47 9.42 Z" />
</g>
</svg>
