<?xml version="1.0" encoding="UTF-8" ?>
<!DOCTYPE svg PUBLIC "-//W3C//DTD SVG 1.1//EN" "http://www.w3.org/Graphics/SVG/1.1/DTD/svg11.dtd">
<svg width="32pt" height="32pt" viewBox="0 0 32 32" version="1.1" xmlns="http://www.w3.org/2000/svg">
<g id="#ffffffff">
<path fill="#ffffff" opacity="1.00" d=" M 8.18 3.87 C 12.37 2.97 16.51 1.63 20.75 1.17 C 22.16 2.00 23.97 2.00 25.25 3.08 C 24.77 4.66 24.19 6.21 23.64 7.77 C 20.97 7.44 18.01 5.56 15.06 6.71 C 13.13 7.36 12.81 10.41 14.68 11.33 C 17.92 13.59 22.21 14.04 24.97 17.04 C 27.57 19.90 27.65 24.36 25.71 27.60 L 25.65 27.72 C 20.50 28.95 15.32 30.16 10.13 31.19 C 9.94 31.01 9.57 30.67 9.39 30.50 C 8.64 30.16 7.13 29.49 6.38 29.15 C 7.32 27.43 7.77 25.41 8.98 23.85 C 11.59 25.58 14.85 26.64 17.96 25.82 C 20.41 25.24 20.41 21.74 18.64 20.41 C 15.53 17.98 11.25 17.46 8.55 14.42 C 5.72 11.65 5.71 6.87 8.18 3.87 Z" />
</g>
<g id="#d33a2cff">
<path fill="#d33a2c" opacity="1.00" d=" M 20.75 1.17 C 22.56 -0.10 25.71 -0.21 26.73 2.10 C 28.46 9.37 30.17 16.65 31.77 23.95 C 31.67 27.04 28.05 27.39 25.71 27.60 C 27.65 24.36 27.57 19.90 24.97 17.04 C 22.21 14.04 17.92 13.59 14.68 11.33 C 12.81 10.41 13.13 7.36 15.06 6.71 C 18.01 5.56 20.97 7.44 23.64 7.77 C 24.19 6.21 24.77 4.66 25.25 3.08 C 23.97 2.00 22.16 2.00 20.75 1.17 Z" />
<path fill="#d33a2c" opacity="1.00" d=" M 0.22 8.09 C 0.66 4.20 5.42 4.88 8.18 3.87 C 5.71 6.87 5.72 11.65 8.55 14.42 C 11.25 17.46 15.53 17.98 18.64 20.41 C 20.41 21.74 20.41 25.24 17.96 25.82 C 14.85 26.64 11.59 25.58 8.98 23.85 C 7.77 25.41 7.32 27.43 6.38 29.15 C 7.13 29.49 8.64 30.16 9.39 30.50 L 9.97 31.68 C 8.23 31.83 5.97 31.79 5.23 29.84 C 3.52 22.60 1.80 15.36 0.22 8.09 Z" />
</g>
</svg>
