<?xml version="1.0" encoding="UTF-8" ?>
<!DOCTYPE svg PUBLIC "-//W3C//DTD SVG 1.1//EN" "http://www.w3.org/Graphics/SVG/1.1/DTD/svg11.dtd">
<svg width="80pt" height="80pt" viewBox="0 0 80 80" version="1.1" xmlns="http://www.w3.org/2000/svg">
<g id="#333333ff">
<path fill="#333333" opacity="1.00" d=" M 0.00 0.00 L 80.00 0.00 L 80.00 80.00 L 0.00 80.00 L 0.00 0.00 M 11.59 23.64 C 7.08 27.62 7.68 35.86 13.11 38.75 C 18.46 42.62 26.53 40.95 30.93 46.18 C 33.14 52.02 25.18 55.40 20.59 53.65 C 17.11 52.88 15.88 49.33 14.38 46.56 C 13.67 44.61 11.30 45.11 9.70 44.76 C 5.76 48.65 9.16 54.54 12.91 57.15 C 18.76 61.00 26.86 60.99 33.04 57.92 C 38.91 55.10 41.17 46.87 37.68 41.42 C 34.01 36.58 27.49 35.94 22.06 34.35 C 19.51 33.68 15.95 32.52 16.07 29.26 C 17.02 25.42 21.87 24.40 25.22 25.20 C 28.88 26.03 30.11 30.08 32.17 32.73 C 34.30 32.62 36.82 32.50 37.54 30.04 C 38.14 24.78 32.71 21.27 28.16 20.37 C 22.55 19.44 16.10 19.78 11.59 23.64 M 53.42 31.65 C 43.50 34.38 41.10 48.31 47.44 55.55 C 52.15 60.66 60.41 61.34 66.39 58.24 C 75.27 53.50 75.75 38.98 67.45 33.44 C 63.39 30.67 58.06 30.39 53.42 31.65 Z" />
<path fill="#333333" opacity="1.00" d=" M 57.48 36.05 C 61.66 35.23 65.22 38.96 65.57 42.92 C 66.49 47.53 65.01 54.07 59.57 54.95 C 55.39 55.74 51.90 51.82 51.64 47.88 C 50.91 43.35 52.16 37.02 57.48 36.05 Z" />
</g>
<g id="#ffffffff">
<path fill="#ffffff" opacity="1.00" d=" M 11.59 23.64 C 16.10 19.78 22.55 19.44 28.16 20.37 C 32.71 21.27 38.14 24.78 37.54 30.04 C 36.82 32.50 34.30 32.62 32.17 32.73 C 30.11 30.08 28.88 26.03 25.22 25.20 C 21.87 24.40 17.02 25.42 16.07 29.26 C 15.95 32.52 19.51 33.68 22.06 34.35 C 27.49 35.94 34.01 36.58 37.68 41.42 C 41.17 46.87 38.91 55.10 33.04 57.92 C 26.86 60.99 18.76 61.00 12.91 57.15 C 9.16 54.54 5.76 48.65 9.70 44.76 C 11.30 45.11 13.67 44.61 14.38 46.56 C 15.88 49.33 17.11 52.88 20.59 53.65 C 25.18 55.40 33.14 52.02 30.93 46.18 C 26.53 40.95 18.46 42.62 13.11 38.75 C 7.68 35.86 7.08 27.62 11.59 23.64 Z" />
<path fill="#ffffff" opacity="1.00" d=" M 53.42 31.65 C 58.06 30.39 63.39 30.67 67.45 33.44 C 75.75 38.98 75.27 53.50 66.39 58.24 C 60.41 61.34 52.15 60.66 47.44 55.55 C 41.10 48.31 43.50 34.38 53.42 31.65 M 57.48 36.05 C 52.16 37.02 50.91 43.35 51.64 47.88 C 51.90 51.82 55.39 55.74 59.57 54.95 C 65.01 54.07 66.49 47.53 65.57 42.92 C 65.22 38.96 61.66 35.23 57.48 36.05 Z" />
</g>
</svg>
