<?xml version="1.0" encoding="UTF-8" ?>
<!DOCTYPE svg PUBLIC "-//W3C//DTD SVG 1.1//EN" "http://www.w3.org/Graphics/SVG/1.1/DTD/svg11.dtd">
<svg width="80pt" height="80pt" viewBox="0 0 80 80" version="1.1" xmlns="http://www.w3.org/2000/svg">
<g id="#333333ff">
<path fill="#333333" opacity="1.00" d=" M 0.00 0.00 L 80.00 0.00 L 80.00 80.00 L 0.00 80.00 L 0.00 0.00 M 11.59 23.63 C 7.08 27.62 7.68 35.87 13.13 38.76 C 18.47 42.62 26.53 40.96 30.93 46.18 C 33.15 52.07 25.08 55.44 20.49 53.62 C 16.78 52.73 15.76 48.80 14.01 45.94 C 13.05 44.58 11.10 45.15 9.71 44.78 C 5.73 48.63 9.17 54.54 12.90 57.14 C 18.73 61.00 26.78 60.96 32.97 57.97 C 39.76 54.84 41.81 44.09 35.69 39.34 C 30.81 35.63 24.36 35.56 18.87 33.22 C 16.70 32.52 15.21 29.71 16.71 27.73 C 18.57 25.10 22.33 24.53 25.28 25.22 C 28.87 26.09 30.15 30.06 32.13 32.72 C 34.28 32.63 36.83 32.52 37.54 30.04 C 38.15 25.09 33.21 21.61 28.94 20.56 C 23.12 19.33 16.33 19.66 11.59 23.63 M 53.43 31.65 C 43.51 34.36 41.10 48.28 47.42 55.54 C 52.28 60.79 60.90 61.41 66.94 57.92 C 75.30 52.88 75.56 38.90 67.49 33.46 C 63.42 30.68 58.08 30.39 53.43 31.65 Z" />
<path fill="#333333" opacity="1.00" d=" M 57.44 36.06 C 61.27 35.29 64.82 38.41 65.41 42.10 C 66.47 46.63 65.60 53.16 60.44 54.72 C 56.52 56.13 52.46 52.84 51.84 48.98 C 50.77 44.22 51.73 37.20 57.44 36.06 Z" />
</g>
<g id="#ffffffff">
<path fill="#ffffff" opacity="1.00" d=" M 11.59 23.63 C 16.33 19.66 23.12 19.33 28.94 20.56 C 33.21 21.61 38.15 25.09 37.54 30.04 C 36.83 32.52 34.28 32.63 32.13 32.72 C 30.15 30.06 28.87 26.09 25.28 25.22 C 22.33 24.53 18.57 25.10 16.71 27.73 C 15.21 29.71 16.70 32.52 18.87 33.22 C 24.36 35.56 30.81 35.63 35.69 39.34 C 41.81 44.09 39.76 54.84 32.97 57.97 C 26.78 60.96 18.73 61.00 12.90 57.14 C 9.17 54.54 5.73 48.63 9.71 44.78 C 11.10 45.15 13.05 44.58 14.01 45.94 C 15.76 48.80 16.78 52.73 20.49 53.62 C 25.08 55.44 33.15 52.07 30.93 46.18 C 26.53 40.96 18.47 42.62 13.13 38.76 C 7.68 35.87 7.08 27.62 11.59 23.63 Z" />
<path fill="#ffffff" opacity="1.00" d=" M 53.43 31.65 C 58.08 30.39 63.42 30.68 67.49 33.46 C 75.56 38.90 75.30 52.88 66.94 57.92 C 60.90 61.41 52.28 60.79 47.42 55.54 C 41.10 48.28 43.51 34.36 53.43 31.65 M 57.44 36.06 C 51.73 37.20 50.77 44.22 51.84 48.98 C 52.46 52.84 56.52 56.13 60.44 54.72 C 65.60 53.16 66.47 46.63 65.41 42.10 C 64.82 38.41 61.27 35.29 57.44 36.06 Z" />
</g>
</svg>
