<?xml version="1.0" encoding="UTF-8" ?>
<!DOCTYPE svg PUBLIC "-//W3C//DTD SVG 1.1//EN" "http://www.w3.org/Graphics/SVG/1.1/DTD/svg11.dtd">
<svg width="32pt" height="32pt" viewBox="0 0 32 32" version="1.1" xmlns="http://www.w3.org/2000/svg">
<g id="#27a9e0ff">
<path fill="#27a9e0" opacity="1.00" d=" M 0.00 0.00 L 32.00 0.00 L 32.00 32.00 L 0.00 32.00 L 0.00 0.00 M 12.20 9.23 C 9.82 9.90 7.11 10.08 5.37 12.08 C 10.25 11.54 14.87 9.76 19.64 8.66 C 21.33 8.13 23.72 8.23 24.25 6.10 C 20.20 7.00 16.23 8.25 12.20 9.23 M 16.73 15.03 C 18.83 14.73 20.86 14.15 22.92 13.66 C 23.33 15.06 23.75 16.45 24.16 17.85 C 18.94 19.73 12.92 19.91 8.29 23.09 C 9.69 22.95 11.07 22.71 12.44 22.36 C 16.24 23.36 20.62 21.95 23.49 19.32 C 24.04 19.17 25.13 18.86 25.68 18.71 C 25.11 16.44 24.52 14.17 23.83 11.93 C 21.37 12.71 18.31 12.64 16.73 15.03 M 7.20 13.12 C 3.73 14.73 5.23 20.64 8.92 20.80 C 12.04 21.22 15.54 17.54 13.35 14.60 C 12.25 12.15 9.34 11.93 7.20 13.12 Z" />
<path fill="#27a9e0" opacity="1.00" d=" M 6.67 16.16 C 7.93 15.27 9.67 12.81 11.10 14.88 C 13.28 16.29 11.10 19.38 8.99 19.02 C 8.00 18.26 7.40 17.14 6.67 16.16 Z" />
</g>
<g id="#deedf4ff">
<path fill="#deedf4" opacity="1.00" d=" M 12.20 9.23 C 16.23 8.25 20.20 7.00 24.25 6.10 C 23.72 8.23 21.33 8.13 19.64 8.66 C 14.87 9.76 10.25 11.54 5.37 12.08 C 7.11 10.08 9.82 9.90 12.20 9.23 Z" />
<path fill="#deedf4" opacity="1.00" d=" M 16.73 15.03 C 18.31 12.64 21.37 12.71 23.83 11.93 C 24.52 14.17 25.11 16.44 25.68 18.71 C 25.13 18.86 24.04 19.17 23.49 19.32 C 20.62 21.95 16.24 23.36 12.44 22.36 C 11.07 22.71 9.69 22.95 8.29 23.09 C 12.92 19.91 18.94 19.73 24.16 17.85 C 23.75 16.45 23.33 15.06 22.92 13.66 C 20.86 14.15 18.83 14.73 16.73 15.03 Z" />
<path fill="#deedf4" opacity="1.00" d=" M 7.20 13.12 C 9.34 11.93 12.25 12.15 13.35 14.60 C 15.54 17.54 12.04 21.22 8.92 20.80 C 5.23 20.64 3.73 14.73 7.20 13.12 M 6.67 16.16 C 7.40 17.14 8.00 18.26 8.99 19.02 C 11.10 19.38 13.28 16.29 11.10 14.88 C 9.67 12.81 7.93 15.27 6.67 16.16 Z" />
</g>
</svg>
