<?xml version="1.0" encoding="UTF-8" ?>
<!DOCTYPE svg PUBLIC "-//W3C//DTD SVG 1.1//EN" "http://www.w3.org/Graphics/SVG/1.1/DTD/svg11.dtd">
<svg width="256pt" height="256pt" viewBox="0 0 256 256" version="1.1" xmlns="http://www.w3.org/2000/svg">
<g id="#e9e9e9ff">
<path fill="#e9e9e9" opacity="1.00" d=" M 112.22 0.00 L 119.10 0.00 C 117.30 2.04 114.92 2.29 111.97 0.76 L 112.22 0.00 Z" />
<path fill="#e9e9e9" opacity="1.00" d=" M 136.86 0.00 L 143.81 0.00 L 144.02 0.80 C 141.79 2.33 139.40 2.07 136.86 0.00 Z" />
<path fill="#e9e9e9" opacity="1.00" d=" M 104.87 1.78 C 106.34 0.47 108.39 0.62 110.13 1.22 C 108.65 2.52 106.61 2.38 104.87 1.78 Z" />
<path fill="#e9e9e9" opacity="1.00" d=" M 145.88 1.22 C 147.61 0.62 149.66 0.47 151.13 1.78 C 149.39 2.38 147.35 2.53 145.88 1.22 Z" />
<path fill="#e9e9e9" opacity="1.00" d=" M 99.99 3.02 C 100.86 1.51 102.73 1.58 104.16 2.13 C 103.11 3.35 101.44 3.42 99.99 3.02 Z" />
<path fill="#e9e9e9" opacity="1.00" d=" M 151.84 2.13 C 153.26 1.58 155.14 1.51 156.01 3.02 C 154.55 3.42 152.89 3.35 151.84 2.13 Z" />
<path fill="#e9e9e9" opacity="1.00" d=" M 75.97 10.94 C 76.90 9.58 78.48 8.80 80.13 9.11 C 79.52 10.90 77.68 11.53 75.97 10.94 Z" />
<path fill="#e9e9e9" opacity="1.00" d=" M 175.87 9.11 C 177.52 8.80 179.10 9.58 180.03 10.94 C 178.32 11.53 176.48 10.90 175.87 9.11 Z" />
<path fill="#e9e9e9" opacity="1.00" d=" M 46.94 28.80 C 47.83 27.08 49.22 25.59 51.23 25.33 C 50.94 27.47 49.23 29.23 46.94 28.80 Z" />
<path fill="#e9e9e9" opacity="1.00" d=" M 204.77 25.33 C 206.77 25.59 208.15 27.08 209.07 28.78 C 206.78 29.25 205.06 27.47 204.77 25.33 Z" />
<path fill="#e9e9e9" opacity="1.00" d=" M 29.16 46.33 C 33.67 39.59 40.06 34.20 46.39 29.23 C 41.67 35.83 35.45 41.27 29.16 46.33 Z" />
<path fill="#e9e9e9" opacity="1.00" d=" M 209.67 29.16 C 216.41 33.67 221.80 40.06 226.77 46.39 C 220.17 41.67 214.73 35.45 209.67 29.16 Z" />
<path fill="#e9e9e9" opacity="1.00" d=" M 25.33 51.23 C 25.59 49.22 27.08 47.85 28.78 46.93 C 29.25 49.22 27.47 50.94 25.33 51.23 Z" />
<path fill="#e9e9e9" opacity="1.00" d=" M 227.20 46.94 C 228.92 47.83 230.41 49.22 230.67 51.23 C 228.53 50.94 226.77 49.23 227.20 46.94 Z" />
<path fill="#e9e9e9" opacity="1.00" d=" M 115.93 52.55 C 123.47 51.59 131.16 51.85 138.74 52.27 C 141.47 52.57 144.23 52.96 147.00 52.99 C 149.01 53.07 151.08 52.88 153.04 53.49 C 154.56 54.08 156.20 54.20 157.81 53.98 C 159.25 53.84 160.65 53.99 162.02 54.45 C 163.19 55.07 164.53 55.22 165.83 55.01 C 169.61 54.82 173.36 55.65 177.01 56.48 C 178.19 57.05 179.51 57.23 180.80 57.02 C 180.97 61.99 181.36 67.01 180.79 71.97 C 179.49 71.77 178.18 71.94 176.99 72.49 C 171.94 73.85 166.77 74.71 161.72 76.07 C 159.92 76.36 158.37 77.98 158.10 79.77 C 157.96 80.31 157.67 81.38 157.53 81.92 C 156.65 83.16 156.65 84.78 157.47 86.05 C 163.64 102.67 177.12 114.95 185.78 130.18 C 191.29 137.41 197.38 144.97 198.99 154.19 C 198.83 155.82 198.94 157.47 199.51 159.01 C 199.51 159.50 199.53 160.47 199.53 160.96 C 198.95 162.17 198.79 163.52 199.00 164.84 C 199.43 168.53 197.42 172.27 194.76 174.69 C 192.34 176.29 190.36 178.43 188.62 180.73 C 176.10 189.75 160.16 193.80 144.83 194.98 C 143.53 194.81 142.19 194.94 141.01 195.54 C 139.41 196.13 137.66 195.98 135.99 196.04 C 123.99 195.95 111.99 196.00 99.99 196.01 C 98.22 195.88 94.68 195.62 92.90 195.49 C 91.48 195.35 88.62 195.08 87.20 194.94 C 85.39 194.84 81.78 194.65 79.98 194.55 C 78.80 193.93 77.46 193.80 76.16 193.99 C 75.36 193.88 73.78 193.67 72.99 193.56 C 71.82 192.93 70.48 192.77 69.18 192.99 C 66.79 190.20 68.01 182.89 68.26 178.14 C 69.67 177.99 72.49 177.69 73.90 177.55 C 82.72 176.70 94.04 176.45 97.76 166.67 C 99.31 155.47 89.56 147.23 85.22 137.77 C 77.05 120.96 62.53 106.36 60.96 87.01 C 60.98 83.99 60.98 80.99 61.03 77.98 C 66.09 57.51 91.61 54.44 109.19 53.01 C 111.48 53.24 113.73 53.09 115.93 52.55 Z" />
<path fill="#e9e9e9" opacity="1.00" d=" M 9.13 80.16 C 8.80 78.50 9.57 76.91 10.92 75.96 C 11.52 77.67 10.90 79.51 9.13 80.16 Z" />
<path fill="#e9e9e9" opacity="1.00" d=" M 245.08 75.96 C 246.43 76.91 247.20 78.50 246.87 80.16 C 245.10 79.51 244.47 77.67 245.08 75.96 Z" />
<path fill="#e9e9e9" opacity="1.00" d=" M 2.13 104.15 C 1.58 102.73 1.51 100.86 3.01 99.99 C 3.42 101.44 3.35 103.10 2.13 104.15 Z" />
<path fill="#e9e9e9" opacity="1.00" d=" M 252.99 99.99 C 254.49 100.86 254.41 102.73 253.87 104.15 C 252.65 103.10 252.57 101.44 252.99 99.99 Z" />
<path fill="#e9e9e9" opacity="1.00" d=" M 1.22 110.12 C 0.62 108.38 0.47 106.34 1.78 104.86 C 2.38 106.60 2.53 108.65 1.22 110.12 Z" />
<path fill="#e9e9e9" opacity="1.00" d=" M 254.22 104.86 C 255.52 106.34 255.37 108.39 254.78 110.13 C 253.47 108.65 253.62 106.61 254.22 104.86 Z" />
<path fill="#e9e9e9" opacity="1.00" d=" M 0.00 112.19 L 0.80 111.98 C 2.33 114.21 2.07 116.59 0.00 119.14 L 0.00 112.19 Z" />
<path fill="#e9e9e9" opacity="1.00" d=" M 255.24 111.97 L 256.00 112.22 L 256.00 119.10 C 253.95 117.30 253.70 114.92 255.24 111.97 Z" />
<path fill="#e9e9e9" opacity="1.00" d=" M 0.00 136.90 C 2.04 138.69 2.29 141.07 0.76 144.03 L 0.00 143.78 L 0.00 136.90 Z" />
<path fill="#e9e9e9" opacity="1.00" d=" M 255.20 144.02 C 253.66 141.79 253.93 139.40 256.00 136.86 L 256.00 143.81 L 255.20 144.02 Z" />
<path fill="#e9e9e9" opacity="1.00" d=" M 1.22 145.87 C 2.52 147.34 2.38 149.38 1.78 151.13 C 0.47 149.66 0.63 147.61 1.22 145.87 Z" />
<path fill="#e9e9e9" opacity="1.00" d=" M 254.22 151.13 C 253.62 149.39 253.47 147.35 254.78 145.88 C 255.37 147.61 255.53 149.66 254.22 151.13 Z" />
<path fill="#e9e9e9" opacity="1.00" d=" M 2.14 151.83 C 3.48 152.90 3.37 154.72 2.71 156.14 C 1.58 154.96 1.59 153.27 2.14 151.83 Z" />
<path fill="#e9e9e9" opacity="1.00" d=" M 253.29 156.14 C 252.62 154.72 252.52 152.90 253.86 151.83 C 254.40 153.27 254.42 154.96 253.29 156.14 Z" />
<path fill="#e9e9e9" opacity="1.00" d=" M 8.97 175.96 C 10.95 176.37 11.58 178.38 10.80 180.11 C 9.65 179.03 8.86 177.57 8.97 175.96 Z" />
<path fill="#e9e9e9" opacity="1.00" d=" M 245.20 180.11 C 244.42 178.38 245.05 176.37 247.03 175.96 C 247.14 177.57 246.34 179.03 245.20 180.11 Z" />
<path fill="#e9e9e9" opacity="1.00" d=" M 25.07 204.98 C 27.39 204.83 29.28 206.71 28.80 209.06 C 27.14 208.13 25.77 206.76 25.07 204.98 Z" />
<path fill="#e9e9e9" opacity="1.00" d=" M 227.23 209.07 C 226.70 206.71 228.61 204.83 230.93 204.98 C 230.23 206.76 228.86 208.12 227.23 209.07 Z" />
<path fill="#e9e9e9" opacity="1.00" d=" M 29.22 209.61 C 35.83 214.32 41.27 220.55 46.32 226.84 C 39.60 222.32 34.20 215.94 29.22 209.61 Z" />
<path fill="#e9e9e9" opacity="1.00" d=" M 209.61 226.78 C 214.31 220.17 220.55 214.74 226.83 209.68 C 222.32 216.41 215.93 221.80 209.61 226.78 Z" />
<path fill="#e9e9e9" opacity="1.00" d=" M 46.93 227.23 C 49.28 226.70 51.17 228.60 51.02 230.93 C 49.24 230.22 47.88 228.85 46.93 227.23 Z" />
<path fill="#e9e9e9" opacity="1.00" d=" M 204.98 230.93 C 204.83 228.61 206.71 226.72 209.06 227.20 C 208.13 228.86 206.76 230.22 204.98 230.93 Z" />
<path fill="#e9e9e9" opacity="1.00" d=" M 75.89 245.20 C 77.62 244.42 79.63 245.05 80.04 247.03 C 78.42 247.14 76.97 246.34 75.89 245.20 Z" />
<path fill="#e9e9e9" opacity="1.00" d=" M 175.96 247.03 C 176.37 245.05 178.38 244.42 180.11 245.20 C 179.03 246.34 177.57 247.14 175.96 247.03 Z" />
<path fill="#e9e9e9" opacity="1.00" d=" M 99.86 253.29 C 101.28 252.62 103.10 252.52 104.17 253.86 C 102.73 254.40 101.03 254.42 99.86 253.29 Z" />
<path fill="#e9e9e9" opacity="1.00" d=" M 151.83 253.86 C 152.90 252.52 154.72 252.62 156.14 253.29 C 154.96 254.42 153.27 254.40 151.83 253.86 Z" />
<path fill="#e9e9e9" opacity="1.00" d=" M 104.87 254.22 C 106.61 253.62 108.65 253.47 110.12 254.78 C 108.38 255.37 106.34 255.53 104.87 254.22 Z" />
<path fill="#e9e9e9" opacity="1.00" d=" M 145.87 254.78 C 147.34 253.47 149.38 253.62 151.13 254.22 C 149.66 255.53 147.61 255.37 145.87 254.78 Z" />
<path fill="#e9e9e9" opacity="1.00" d=" M 111.98 255.20 C 114.21 253.66 116.59 253.93 119.14 256.00 L 112.19 256.00 L 111.98 255.20 Z" />
<path fill="#e9e9e9" opacity="1.00" d=" M 136.90 256.00 C 138.69 253.95 141.07 253.70 144.03 255.24 L 143.78 256.00 L 136.90 256.00 Z" />
</g>
<g id="#949999ff">
<path fill="#949999" opacity="1.00" d=" M 119.10 0.00 L 136.86 0.00 C 139.40 2.07 141.79 2.33 144.02 0.80 C 144.48 0.90 145.41 1.12 145.88 1.22 C 147.35 2.53 149.39 2.38 151.13 1.78 L 151.84 2.13 C 152.89 3.35 154.55 3.42 156.01 3.02 C 162.61 5.09 169.36 6.73 175.87 9.11 C 176.48 10.90 178.32 11.53 180.03 10.94 C 188.92 14.63 196.34 20.87 204.77 25.33 C 205.06 27.47 206.78 29.25 209.07 28.78 L 209.67 29.16 C 214.73 35.45 220.17 41.67 226.77 46.39 L 227.20 46.94 C 226.77 49.23 228.53 50.94 230.67 51.23 C 235.23 59.60 241.18 67.19 245.08 75.96 C 244.47 77.67 245.10 79.51 246.87 80.16 C 249.26 86.66 251.05 93.35 252.99 99.99 C 252.57 101.44 252.65 103.10 253.87 104.15 L 254.22 104.86 C 253.62 106.61 253.47 108.65 254.78 110.13 C 254.89 110.59 255.12 111.51 255.24 111.97 C 253.70 114.92 253.95 117.30 256.00 119.10 L 256.00 136.86 C 253.93 139.40 253.66 141.79 255.20 144.02 C 255.10 144.48 254.88 145.41 254.78 145.88 C 253.47 147.35 253.62 149.39 254.22 151.13 L 253.86 151.83 C 252.52 152.90 252.62 154.72 253.29 156.14 C 251.83 162.91 250.13 169.73 247.03 175.96 C 245.05 176.37 244.42 178.38 245.20 180.11 C 241.43 188.92 236.47 197.18 230.93 204.98 C 228.61 204.83 226.70 206.71 227.23 209.07 L 226.83 209.68 C 220.55 214.74 214.31 220.17 209.61 226.78 L 209.06 227.20 C 206.71 226.72 204.83 228.61 204.98 230.93 C 197.18 236.47 188.92 241.43 180.11 245.20 C 178.38 244.42 176.37 245.05 175.96 247.03 C 169.73 250.13 162.91 251.83 156.14 253.29 C 154.72 252.62 152.90 252.52 151.83 253.86 L 151.13 254.22 C 149.38 253.62 147.34 253.47 145.87 254.78 C 145.41 254.89 144.49 255.12 144.03 255.24 C 141.07 253.70 138.69 253.95 136.90 256.00 L 119.14 256.00 C 116.59 253.93 114.21 253.66 111.98 255.20 C 111.52 255.10 110.59 254.88 110.12 254.78 C 108.65 253.47 106.61 253.62 104.87 254.22 L 104.17 253.86 C 103.10 252.52 101.28 252.62 99.86 253.29 C 93.09 251.83 86.27 250.13 80.04 247.03 C 79.63 245.05 77.62 244.42 75.89 245.20 C 67.08 241.43 58.82 236.47 51.02 230.93 C 51.17 228.60 49.28 226.70 46.93 227.23 L 46.32 226.84 C 41.27 220.55 35.83 214.32 29.22 209.61 L 28.80 209.06 C 29.28 206.71 27.39 204.83 25.07 204.98 C 19.53 197.18 14.57 188.92 10.80 180.11 C 11.58 178.38 10.95 176.37 8.97 175.96 C 5.87 169.73 4.17 162.91 2.71 156.14 C 3.37 154.72 3.48 152.90 2.14 151.83 L 1.78 151.13 C 2.38 149.38 2.52 147.34 1.22 145.87 C 1.11 145.41 0.88 144.49 0.76 144.03 C 2.29 141.07 2.04 138.69 0.00 136.90 L 0.00 119.14 C 2.07 116.59 2.33 114.21 0.80 111.98 C 0.90 111.52 1.12 110.59 1.22 110.12 C 2.53 108.65 2.38 106.60 1.78 104.86 L 2.13 104.15 C 3.35 103.10 3.42 101.44 3.01 99.99 C 4.95 93.35 6.74 86.66 9.13 80.16 C 10.90 79.51 11.52 77.67 10.92 75.96 C 14.82 67.19 20.77 59.60 25.33 51.23 C 27.47 50.94 29.25 49.22 28.78 46.93 L 29.16 46.33 C 35.45 41.27 41.67 35.83 46.39 29.23 L 46.94 28.80 C 49.23 29.23 50.94 27.47 51.23 25.33 C 59.66 20.87 67.08 14.63 75.97 10.94 C 77.68 11.53 79.52 10.90 80.13 9.11 C 86.64 6.73 93.39 5.09 99.99 3.02 C 101.44 3.42 103.11 3.35 104.16 2.13 L 104.87 1.78 C 106.61 2.38 108.65 2.52 110.13 1.22 C 110.59 1.11 111.51 0.88 111.97 0.76 C 114.92 2.29 117.30 2.04 119.10 0.00 M 117.41 3.56 C 98.97 5.04 81.05 10.79 65.08 20.11 C 19.91 45.60 -5.89 101.52 5.56 152.38 C 14.19 200.08 53.70 240.12 101.06 250.01 C 151.79 262.13 208.47 237.80 234.81 192.79 C 257.83 155.96 259.05 106.94 238.02 68.99 C 215.72 25.76 165.82 -1.46 117.41 3.56 Z" />
<path fill="#949999" opacity="1.00" d=" M 109.19 53.01 C 110.03 50.79 114.20 51.41 115.93 52.55 C 113.73 53.09 111.48 53.24 109.19 53.01 Z" />
<path fill="#949999" opacity="1.00" d=" M 138.74 52.27 C 141.19 52.52 146.03 50.70 147.00 52.99 C 144.23 52.96 141.47 52.57 138.74 52.27 Z" />
<path fill="#949999" opacity="1.00" d=" M 153.04 53.49 C 154.16 52.42 157.65 52.00 157.81 53.98 C 156.20 54.20 154.56 54.08 153.04 53.49 Z" />
<path fill="#949999" opacity="1.00" d=" M 162.02 54.45 C 162.85 53.33 165.99 53.17 165.83 55.01 C 164.53 55.22 163.19 55.07 162.02 54.45 Z" />
<path fill="#949999" opacity="1.00" d=" M 177.01 56.48 C 177.82 55.33 181.00 55.16 180.80 57.02 C 179.51 57.23 178.19 57.05 177.01 56.48 Z" />
<path fill="#949999" opacity="1.00" d=" M 176.99 72.49 C 178.18 71.94 179.49 71.77 180.79 71.97 C 181.00 73.85 177.79 73.65 176.99 72.49 Z" />
<path fill="#949999" opacity="1.00" d=" M 158.10 79.77 C 158.37 77.98 159.92 76.36 161.72 76.07 C 162.06 77.94 159.95 80.02 158.10 79.77 Z" />
<path fill="#949999" opacity="1.00" d=" M 60.96 87.01 C 59.16 87.38 59.21 78.45 61.03 77.98 C 60.98 80.99 60.98 83.99 60.96 87.01 Z" />
<path fill="#949999" opacity="1.00" d=" M 157.47 86.05 C 156.65 84.78 156.65 83.16 157.53 81.92 C 158.61 83.31 158.59 84.69 157.47 86.05 Z" />
<path fill="#949999" opacity="1.00" d=" M 198.99 154.19 C 201.01 154.34 200.57 157.86 199.51 159.01 C 198.94 157.47 198.83 155.82 198.99 154.19 Z" />
<path fill="#949999" opacity="1.00" d=" M 199.00 164.84 C 198.79 163.52 198.95 162.17 199.53 160.96 C 200.63 161.81 200.85 164.96 199.00 164.84 Z" />
<path fill="#949999" opacity="1.00" d=" M 188.62 180.73 C 190.36 178.43 192.34 176.29 194.76 174.69 C 193.66 177.18 191.46 180.12 188.62 180.73 Z" />
<path fill="#949999" opacity="1.00" d=" M 68.26 178.14 C 68.42 175.78 72.60 176.20 73.90 177.55 C 72.49 177.69 69.67 177.99 68.26 178.14 Z" />
<path fill="#949999" opacity="1.00" d=" M 69.18 192.99 C 70.48 192.77 71.82 192.93 72.99 193.56 C 72.15 194.66 69.02 194.82 69.18 192.99 Z" />
<path fill="#949999" opacity="1.00" d=" M 76.16 193.99 C 77.46 193.80 78.80 193.93 79.98 194.55 C 79.14 195.68 76.00 195.83 76.16 193.99 Z" />
<path fill="#949999" opacity="1.00" d=" M 87.20 194.94 C 88.62 195.08 91.48 195.35 92.90 195.49 C 91.56 196.77 87.47 197.22 87.20 194.94 Z" />
<path fill="#949999" opacity="1.00" d=" M 141.01 195.54 C 142.19 194.94 143.53 194.81 144.83 194.98 C 145.00 196.83 141.84 196.67 141.01 195.54 Z" />
<path fill="#949999" opacity="1.00" d=" M 99.99 196.01 C 111.99 196.00 123.99 195.95 135.99 196.04 C 126.44 197.46 109.55 197.97 99.99 196.01 Z" />
</g>
<g id="#014949ff">
<path fill="#014949" opacity="1.00" d=" M 117.41 3.56 C 165.82 -1.46 215.72 25.76 238.02 68.99 C 259.05 106.94 257.83 155.96 234.81 192.79 C 208.47 237.80 151.79 262.13 101.06 250.01 C 53.70 240.12 14.19 200.08 5.56 152.38 C -5.89 101.52 19.91 45.60 65.08 20.11 C 81.05 10.79 98.97 5.04 117.41 3.56 M 109.19 53.01 C 91.61 54.44 66.09 57.51 61.03 77.98 C 59.21 78.45 59.16 87.38 60.96 87.01 C 62.53 106.36 77.05 120.96 85.22 137.77 C 89.56 147.23 99.31 155.47 97.76 166.67 C 94.04 176.45 82.72 176.70 73.90 177.55 C 72.60 176.20 68.42 175.78 68.26 178.14 C 68.01 182.89 66.79 190.20 69.18 192.99 C 69.02 194.82 72.15 194.66 72.99 193.56 C 73.78 193.67 75.36 193.88 76.16 193.99 C 76.00 195.83 79.14 195.68 79.98 194.55 C 81.78 194.65 85.39 194.84 87.20 194.94 C 87.47 197.22 91.56 196.77 92.90 195.49 C 94.68 195.62 98.22 195.88 99.99 196.01 C 109.55 197.97 126.44 197.46 135.99 196.04 C 137.66 195.98 139.41 196.13 141.01 195.54 C 141.84 196.67 145.00 196.83 144.83 194.98 C 160.16 193.80 176.10 189.75 188.62 180.73 C 191.46 180.12 193.66 177.18 194.76 174.69 C 197.42 172.27 199.43 168.53 199.00 164.84 C 200.85 164.96 200.63 161.81 199.53 160.96 C 199.53 160.47 199.51 159.50 199.51 159.01 C 200.57 157.86 201.01 154.34 198.99 154.19 C 197.38 144.97 191.29 137.41 185.78 130.18 C 177.12 114.95 163.64 102.67 157.47 86.05 C 158.59 84.69 158.61 83.31 157.53 81.92 C 157.67 81.38 157.96 80.31 158.10 79.77 C 159.95 80.02 162.06 77.94 161.72 76.07 C 166.77 74.71 171.94 73.85 176.99 72.49 C 177.79 73.65 181.00 73.85 180.79 71.97 C 181.36 67.01 180.97 61.99 180.80 57.02 C 181.00 55.16 177.82 55.33 177.01 56.48 C 173.36 55.65 169.61 54.82 165.83 55.01 C 165.99 53.17 162.85 53.33 162.02 54.45 C 160.65 53.99 159.25 53.84 157.81 53.98 C 157.65 52.00 154.16 52.42 153.04 53.49 C 151.08 52.88 149.01 53.07 147.00 52.99 C 146.03 50.70 141.19 52.52 138.74 52.27 C 131.16 51.85 123.47 51.59 115.93 52.55 C 114.20 51.41 110.03 50.79 109.19 53.01 Z" />
</g>
</svg>
