<?xml version="1.0" encoding="UTF-8" ?>
<!DOCTYPE svg PUBLIC "-//W3C//DTD SVG 1.1//EN" "http://www.w3.org/Graphics/SVG/1.1/DTD/svg11.dtd">
<svg width="144pt" height="144pt" viewBox="0 0 144 144" version="1.1" xmlns="http://www.w3.org/2000/svg">
<g id="#000000ff">
<path fill="#000000" opacity="1.00" d=" M 67.68 0.00 L 75.48 0.00 C 91.02 0.87 106.28 6.69 118.18 16.77 C 133.52 29.40 142.96 48.64 144.00 68.45 L 144.00 75.49 C 143.13 90.79 137.49 105.82 127.68 117.64 C 115.05 133.28 95.60 142.95 75.56 144.00 L 67.81 144.00 C 52.76 142.92 37.99 137.36 26.35 127.67 C 10.71 115.04 1.05 95.58 0.00 75.54 L 0.00 67.77 C 1.31 47.97 10.88 28.80 26.37 16.31 C 37.97 6.66 52.68 1.12 67.68 0.00 M 35.00 21.76 C 21.42 31.71 12.12 47.33 10.11 64.07 C 8.12 78.40 11.69 93.15 19.16 105.45 C 18.43 98.40 24.98 93.99 30.49 91.26 C 45.31 84.31 61.72 81.61 77.89 80.07 C 74.63 67.70 64.41 58.48 61.68 45.91 C 60.25 39.79 62.62 33.32 67.00 28.98 C 75.89 19.96 88.84 16.06 101.31 16.66 C 95.19 13.90 88.85 11.43 82.17 10.43 C 65.77 7.63 48.34 11.83 35.00 21.76 M 82.34 35.47 C 79.44 39.27 78.54 44.42 79.90 49.01 C 82.77 59.66 90.13 68.38 93.46 78.86 C 102.25 79.71 111.56 77.70 119.96 81.06 C 119.00 82.30 117.59 82.83 116.06 82.78 C 108.87 83.26 101.67 83.65 94.50 84.49 C 95.34 96.30 89.35 108.10 79.63 114.74 C 67.19 123.18 51.23 126.95 36.48 123.42 C 46.38 130.05 58.08 134.06 70.02 134.38 C 87.03 134.99 104.17 128.24 116.10 116.10 C 128.26 104.17 134.99 87.02 134.38 70.01 C 134.02 56.18 128.72 42.71 120.01 32.01 C 117.28 36.83 112.75 40.23 108.14 43.11 C 106.22 44.29 104.17 45.70 101.78 45.37 C 104.76 41.60 108.48 38.32 110.64 33.97 C 111.68 31.78 112.35 28.56 110.15 26.83 C 108.14 25.27 105.47 25.23 103.05 25.17 C 95.00 24.93 87.14 29.09 82.34 35.47 M 38.84 100.76 C 35.58 103.00 31.59 105.68 31.19 109.99 C 30.84 112.83 33.33 115.15 36.03 115.39 C 47.47 116.40 59.36 112.76 67.99 105.10 C 73.27 100.55 76.52 94.00 77.53 87.15 C 64.12 89.89 50.62 93.58 38.84 100.76 Z" />
</g>
<g id="#ffffffff">
<path fill="#ffffff" opacity="1.00" d=" M 35.00 21.76 C 48.34 11.83 65.77 7.63 82.17 10.43 C 88.85 11.43 95.19 13.90 101.31 16.66 C 88.84 16.06 75.89 19.96 67.00 28.98 C 62.62 33.32 60.25 39.79 61.68 45.91 C 64.41 58.48 74.63 67.70 77.89 80.07 C 61.72 81.61 45.31 84.31 30.49 91.26 C 24.98 93.99 18.43 98.40 19.16 105.45 C 11.69 93.15 8.12 78.40 10.11 64.07 C 12.12 47.33 21.42 31.71 35.00 21.76 Z" />
<path fill="#ffffff" opacity="1.00" d=" M 82.34 35.47 C 87.14 29.09 95.00 24.93 103.05 25.17 C 105.47 25.23 108.14 25.27 110.15 26.83 C 112.35 28.56 111.68 31.78 110.64 33.97 C 108.48 38.32 104.76 41.60 101.78 45.37 C 104.17 45.70 106.22 44.29 108.14 43.11 C 112.75 40.23 117.28 36.83 120.01 32.01 C 128.72 42.71 134.02 56.18 134.38 70.01 C 134.99 87.02 128.26 104.17 116.10 116.10 C 104.17 128.24 87.03 134.99 70.02 134.38 C 58.08 134.06 46.38 130.05 36.48 123.42 C 51.23 126.95 67.19 123.18 79.63 114.74 C 89.35 108.10 95.34 96.30 94.50 84.49 C 101.67 83.65 108.87 83.26 116.06 82.78 C 117.59 82.83 119.00 82.30 119.96 81.06 C 111.56 77.70 102.25 79.71 93.46 78.86 C 90.13 68.38 82.77 59.66 79.90 49.01 C 78.54 44.42 79.44 39.27 82.34 35.47 Z" />
<path fill="#ffffff" opacity="1.00" d=" M 38.84 100.76 C 50.62 93.58 64.12 89.89 77.53 87.15 C 76.52 94.00 73.27 100.55 67.99 105.10 C 59.36 112.76 47.47 116.40 36.03 115.39 C 33.33 115.15 30.84 112.83 31.19 109.99 C 31.59 105.68 35.58 103.00 38.84 100.76 Z" />
</g>
</svg>
