<?xml version="1.0" encoding="UTF-8" ?>
<!DOCTYPE svg PUBLIC "-//W3C//DTD SVG 1.1//EN" "http://www.w3.org/Graphics/SVG/1.1/DTD/svg11.dtd">
<svg width="65pt" height="50pt" viewBox="0 0 65 50" version="1.1" xmlns="http://www.w3.org/2000/svg">
<g id="#fb4402ff">
<path fill="#fb4402" opacity="1.00" d=" M 16.04 6.18 C 25.39 5.80 34.75 6.08 44.10 6.01 C 47.38 5.76 49.90 8.77 50.14 11.86 C 47.36 11.69 44.57 11.58 41.80 11.86 C 39.26 8.63 34.51 10.07 30.96 9.08 C 31.72 8.39 32.47 7.70 33.23 7.01 C 30.83 6.99 28.44 6.97 26.04 6.98 C 24.73 7.00 23.43 7.02 22.12 7.03 C 20.43 7.04 18.74 7.01 17.05 6.84 L 16.04 6.18 Z" />
</g>
<g id="#f3670bf4">
<path fill="#f3670b" opacity="0.96" d=" M 13.07 10.83 C 13.30 9.02 14.58 7.59 16.14 6.75 C 14.40 9.58 13.67 12.81 13.95 16.11 C 13.97 17.51 13.98 18.91 13.97 20.31 C 13.71 20.86 13.19 21.95 12.92 22.49 C 13.10 18.60 12.85 14.71 13.07 10.83 Z" />
</g>
<g id="#e7a67be7">
<path fill="#e7a67b" opacity="0.91" d=" M 16.14 6.75 L 17.05 6.84 C 18.74 7.01 20.43 7.04 22.12 7.03 C 21.50 7.86 20.87 8.69 20.25 9.52 C 20.76 9.91 21.78 10.68 22.29 11.07 C 21.98 11.19 21.37 11.42 21.06 11.54 C 17.61 10.46 15.80 13.88 13.95 16.11 C 13.67 12.81 14.40 9.58 16.14 6.75 Z" />
</g>
<g id="#e7985ce7">
<path fill="#e7985c" opacity="0.91" d=" M 22.12 7.03 C 23.43 7.02 24.73 7.00 26.04 6.98 C 25.70 7.91 25.36 8.85 25.02 9.78 C 24.12 10.23 23.21 10.66 22.29 11.07 C 21.78 10.68 20.76 9.91 20.25 9.52 C 20.87 8.69 21.50 7.86 22.12 7.03 Z" />
</g>
<g id="#e7783ee7">
<path fill="#e7783e" opacity="0.91" d=" M 26.04 6.98 C 28.44 6.97 30.83 6.99 33.23 7.01 C 32.47 7.70 31.72 8.39 30.96 9.08 C 34.51 10.07 39.26 8.63 41.80 11.86 C 40.55 12.76 39.31 13.67 38.07 14.58 C 38.02 15.26 37.91 16.62 37.85 17.30 C 37.76 18.40 37.64 19.50 37.51 20.60 L 37.12 20.67 C 37.10 18.30 37.07 15.92 37.07 13.55 C 38.11 12.88 40.92 13.03 39.72 11.17 C 36.78 9.91 33.43 10.85 30.32 10.74 C 30.78 12.51 32.24 13.22 33.88 13.58 C 33.90 16.09 33.85 18.59 33.71 21.09 C 33.56 19.98 33.42 18.88 33.30 17.77 C 33.18 16.37 33.07 14.96 32.98 13.55 C 31.57 13.97 30.16 14.39 28.76 14.82 C 27.28 14.07 25.77 13.37 24.28 12.65 C 25.94 12.99 27.64 14.28 29.36 13.51 C 30.70 11.13 26.49 10.58 25.02 9.78 C 25.36 8.85 25.70 7.91 26.04 6.98 Z" />
</g>
<g id="#dddddddd">
<path fill="#dddddd" opacity="0.87" d=" M 22.29 11.07 C 23.21 10.66 24.12 10.23 25.02 9.78 C 26.49 10.58 30.70 11.13 29.36 13.51 C 27.64 14.28 25.94 12.99 24.28 12.65 C 25.77 13.37 27.28 14.07 28.76 14.82 C 29.39 15.91 29.97 17.02 30.50 18.16 C 28.73 20.74 25.79 21.22 22.86 21.01 C 22.07 20.22 21.29 19.44 20.51 18.65 C 21.34 17.86 22.26 17.19 23.27 16.65 C 22.05 15.17 20.77 13.61 21.06 11.54 C 21.37 11.42 21.98 11.19 22.29 11.07 M 24.33 17.01 C 24.08 18.39 24.66 18.85 26.04 18.37 C 26.30 16.99 25.73 16.53 24.33 17.01 Z" />
<path fill="#dddddd" opacity="0.87" d=" M 30.32 10.74 C 33.43 10.85 36.78 9.91 39.72 11.17 C 40.92 13.03 38.11 12.88 37.07 13.55 C 37.07 15.92 37.10 18.30 37.12 20.67 C 36.27 20.77 34.56 20.98 33.71 21.09 C 33.85 18.59 33.90 16.09 33.88 13.58 C 32.24 13.22 30.78 12.51 30.32 10.74 Z" />
<path fill="#dddddd" opacity="0.87" d=" M 1.97 34.94 C 2.10 32.30 5.42 32.34 7.38 32.54 C 7.31 32.89 7.17 33.57 7.10 33.92 C 6.34 33.95 4.82 34.02 4.06 34.05 C 2.15 35.81 5.85 36.76 6.65 38.05 C 7.42 38.15 8.20 38.24 8.98 38.32 C 8.63 35.75 12.31 34.04 14.04 35.92 C 15.89 37.40 15.14 40.10 14.94 42.06 C 13.44 40.31 14.09 37.54 12.07 36.17 C 10.01 37.08 10.16 39.12 10.58 40.94 C 10.88 41.14 14.21 42.54 12.13 43.00 C 10.20 43.56 9.12 41.67 8.81 40.06 C 8.63 40.06 8.27 40.07 8.09 40.08 C 7.47 41.12 6.82 42.15 6.15 43.16 C 4.54 42.86 2.05 43.66 1.69 41.42 C 3.14 41.74 4.57 41.71 5.98 41.33 C 7.21 38.03 1.23 38.23 1.97 34.94 Z" />
<path fill="#dddddd" opacity="0.87" d=" M 31.75 32.72 C 34.14 32.71 36.53 32.71 38.93 32.69 L 38.84 33.99 C 38.13 34.00 36.71 34.01 36.00 34.02 C 35.99 37.13 36.10 40.25 35.90 43.36 C 35.56 43.13 34.88 42.66 34.54 42.43 C 34.27 39.63 34.47 36.81 34.43 34.01 C 33.75 34.00 32.37 34.00 31.68 34.00 L 31.75 32.72 Z" />
<path fill="#dddddd" opacity="0.87" d=" M 51.41 35.79 C 52.14 35.02 52.89 34.26 53.64 33.51 C 53.32 36.53 56.34 35.25 57.94 35.51 C 58.50 37.23 59.02 38.95 59.38 40.73 C 60.46 38.93 60.09 35.41 62.74 35.12 C 61.44 39.10 60.89 44.14 56.86 46.37 C 56.59 44.66 58.35 43.69 58.51 42.16 C 57.97 40.21 57.27 38.31 56.73 36.36 C 56.05 36.51 54.68 36.82 54.00 36.97 C 54.00 38.36 54.00 39.75 54.00 41.14 C 54.72 41.74 55.43 42.35 56.14 42.97 C 55.34 42.99 53.72 43.02 52.92 43.04 C 52.48 40.96 52.45 38.83 52.21 36.73 C 50.70 36.29 49.16 36.26 47.57 36.61 C 48.68 38.37 51.70 39.26 50.99 41.75 C 49.94 43.53 47.83 42.97 46.14 42.83 C 46.26 42.53 46.51 41.92 46.63 41.62 C 47.70 42.24 50.79 41.88 48.82 40.33 C 47.95 39.22 45.53 38.12 46.71 36.46 C 47.62 34.69 49.91 35.09 51.41 35.79 Z" />
<path fill="#dddddd" opacity="0.87" d=" M 16.97 35.52 C 19.03 35.74 22.22 34.15 22.95 37.00 C 23.13 39.12 23.02 41.25 22.88 43.37 C 19.72 42.29 23.01 37.64 20.16 36.40 C 16.73 37.13 20.44 42.37 17.08 43.33 C 16.94 40.73 16.99 38.13 16.97 35.52 Z" />
<path fill="#dddddd" opacity="0.87" d=" M 24.97 35.87 C 26.86 34.99 28.89 35.45 30.88 35.61 C 30.86 38.79 31.15 42.04 30.13 45.11 C 28.28 45.68 25.37 46.77 24.60 44.15 C 26.46 44.49 28.96 44.80 29.57 42.34 C 27.99 42.73 25.59 43.24 24.74 41.36 C 23.54 39.64 24.47 37.64 24.97 35.87 M 26.23 37.11 C 25.77 38.49 25.29 40.96 27.20 41.47 C 30.65 41.96 29.46 34.34 26.23 37.11 Z" />
<path fill="#dddddd" opacity="0.87" d=" M 39.47 36.74 C 40.34 34.33 44.02 34.68 44.69 37.02 C 44.95 38.86 44.87 40.73 44.94 42.59 C 43.28 42.74 41.62 42.95 39.96 43.12 C 39.32 41.79 39.09 40.40 39.76 39.03 C 41.01 38.61 42.26 38.18 43.50 37.73 C 42.52 36.26 41.17 35.93 39.47 36.74 M 42.21 39.20 C 40.75 39.29 40.22 42.02 41.98 42.02 C 43.40 41.95 43.87 39.21 42.21 39.20 Z" />
</g>
<g id="#e79a5ee7">
<path fill="#e79a5e" opacity="0.91" d=" M 13.95 16.11 C 15.80 13.88 17.61 10.46 21.06 11.54 C 20.77 13.61 22.05 15.17 23.27 16.65 C 22.26 17.19 21.34 17.86 20.51 18.65 C 19.66 17.84 18.79 17.04 17.93 16.24 C 16.59 17.58 15.24 18.91 13.97 20.31 C 13.98 18.91 13.97 17.51 13.95 16.11 Z" />
</g>
<g id="#ff6306ff">
<path fill="#ff6306" opacity="1.00" d=" M 41.80 11.86 C 44.57 11.58 47.36 11.69 50.14 11.86 C 50.02 13.79 49.99 15.73 49.99 17.67 C 45.94 17.44 41.88 17.78 37.85 17.30 C 37.91 16.62 38.02 15.26 38.07 14.58 C 39.31 13.67 40.55 12.76 41.80 11.86 Z" />
</g>
<g id="#fc670dfc">
<path fill="#fc670d" opacity="1.00" d=" M 28.76 14.82 C 30.16 14.39 31.57 13.97 32.98 13.55 C 33.07 14.96 33.18 16.37 33.30 17.77 C 32.76 17.73 31.68 17.63 31.14 17.58 C 30.98 17.73 30.66 18.01 30.50 18.16 C 29.97 17.02 29.39 15.91 28.76 14.82 Z" />
</g>
<g id="#e2a122e2">
<path fill="#e2a122" opacity="0.89" d=" M 13.97 20.31 C 15.24 18.91 16.59 17.58 17.93 16.24 C 18.79 17.04 19.66 17.84 20.51 18.65 C 21.29 19.44 22.07 20.22 22.86 21.01 C 22.57 21.44 22.00 22.30 21.71 22.74 C 19.20 23.04 17.05 24.39 15.18 26.02 C 14.41 24.85 13.66 23.68 12.92 22.49 C 13.19 21.95 13.71 20.86 13.97 20.31 Z" />
</g>
<g id="#e8803ee8">
<path fill="#e8803e" opacity="0.91" d=" M 24.33 17.01 C 25.73 16.53 26.30 16.99 26.04 18.37 C 24.66 18.85 24.08 18.39 24.33 17.01 Z" />
</g>
<g id="#ff8800ff">
<path fill="#ff8800" opacity="1.00" d=" M 31.14 17.58 C 31.68 17.63 32.76 17.73 33.30 17.77 C 33.42 18.88 33.56 19.98 33.71 21.09 C 34.56 20.98 36.27 20.77 37.12 20.67 L 37.51 20.60 C 37.64 19.50 37.76 18.40 37.85 17.30 C 41.88 17.78 45.94 17.44 49.99 17.67 C 50.00 19.36 50.00 21.06 49.99 22.75 L 49.92 22.75 C 40.53 22.62 31.09 22.12 21.71 22.74 C 22.00 22.30 22.57 21.44 22.86 21.01 C 25.79 21.22 28.73 20.74 30.50 18.16 C 30.66 18.01 30.98 17.73 31.14 17.58 Z" />
</g>
<g id="#ffa300ff">
<path fill="#ffa300" opacity="1.00" d=" M 21.71 22.74 C 31.09 22.12 40.53 22.62 49.92 22.75 C 48.74 25.98 45.54 27.14 42.37 27.28 C 40.79 28.84 39.53 30.70 38.00 32.31 C 38.33 30.53 38.73 28.77 39.12 27.00 C 32.72 26.99 26.33 27.02 19.94 27.01 C 18.28 27.09 16.71 26.56 15.18 26.02 C 17.05 24.39 19.20 23.04 21.71 22.74 Z" />
</g>
</svg>
