<?xml version="1.0" encoding="UTF-8" ?>
<!DOCTYPE svg PUBLIC "-//W3C//DTD SVG 1.1//EN" "http://www.w3.org/Graphics/SVG/1.1/DTD/svg11.dtd">
<svg width="70pt" height="70pt" viewBox="0 0 70 70" version="1.1" xmlns="http://www.w3.org/2000/svg">
<g id="#ad3234fe">
<path fill="#ad3234" opacity="1.00" d=" M 27.28 3.32 C 29.97 2.44 32.86 2.35 35.67 2.20 C 35.73 2.68 35.85 3.65 35.91 4.13 C 34.94 4.72 33.97 5.32 33.01 5.92 C 32.71 5.54 32.10 4.78 31.80 4.40 C 30.51 3.96 27.77 4.81 27.28 3.32 Z" />
<path fill="#ad3234" opacity="1.00" d=" M 36.80 2.87 C 39.03 2.76 41.49 2.26 43.41 3.77 C 42.50 3.75 40.68 3.73 39.77 3.72 C 39.33 4.10 38.44 4.86 38.00 5.24 C 37.70 4.65 37.10 3.46 36.80 2.87 Z" />
<path fill="#ad3234" opacity="1.00" d=" M 43.25 3.29 C 45.56 1.30 48.30 2.62 50.87 3.23 C 53.14 3.86 55.50 2.05 57.69 3.22 C 60.29 4.60 63.27 5.52 65.40 7.61 L 64.86 8.01 C 61.79 8.55 59.67 5.67 56.95 4.83 C 54.09 5.98 51.31 7.37 48.27 8.01 C 48.75 9.20 49.22 10.39 49.69 11.58 C 50.73 10.36 51.77 9.11 53.19 8.31 C 53.11 12.08 51.22 15.50 48.42 17.93 C 48.20 20.22 50.16 24.83 46.77 25.02 C 46.38 24.65 45.61 23.90 45.22 23.52 C 44.15 25.18 42.75 26.58 41.02 27.55 C 41.23 30.04 41.60 32.51 41.98 34.98 C 43.52 32.80 44.30 30.23 45.24 27.77 C 48.40 31.45 45.14 36.16 41.51 37.93 C 41.04 44.20 40.57 50.56 38.70 56.59 C 38.14 58.56 36.44 59.80 35.03 61.14 C 34.77 60.56 34.26 59.40 34.01 58.82 C 37.15 55.56 37.00 50.86 37.91 46.73 C 38.50 44.01 38.30 41.20 38.49 38.43 C 36.72 37.34 34.38 36.71 33.38 34.72 C 33.24 33.56 32.97 31.25 32.83 30.09 C 31.23 32.81 32.09 36.05 31.83 39.03 C 31.90 43.90 30.62 48.65 28.77 53.12 C 30.35 55.58 32.34 57.77 33.58 60.44 C 30.45 60.23 28.66 57.71 26.94 55.45 C 25.38 57.61 23.70 59.71 21.55 61.32 C 21.41 60.68 21.12 59.41 20.97 58.77 C 22.56 56.95 24.25 55.11 25.15 52.84 C 23.74 48.63 21.31 44.64 22.02 40.00 C 22.54 32.73 18.67 24.33 23.63 17.98 C 26.38 18.25 30.32 17.32 31.68 20.54 C 32.12 23.82 32.00 27.16 31.62 30.44 C 32.11 30.25 33.09 29.87 33.57 29.68 L 33.88 28.28 C 35.22 30.66 36.31 33.27 38.54 35.01 C 38.49 32.51 38.26 30.02 38.02 27.54 C 36.50 26.57 34.77 25.74 33.74 24.21 C 32.81 22.15 32.50 19.87 32.01 17.69 C 33.27 17.48 35.98 15.79 36.06 18.24 C 36.49 20.48 37.02 22.72 38.06 24.77 C 38.17 21.29 38.18 17.80 38.28 14.32 C 40.15 12.40 42.08 10.54 44.12 8.79 C 44.45 9.38 45.11 10.56 45.44 11.14 C 43.88 13.13 42.12 15.04 41.12 17.39 C 40.64 19.72 41.00 22.13 40.96 24.49 C 41.66 23.47 42.35 22.45 43.05 21.44 C 42.96 20.71 42.78 19.25 42.69 18.53 C 43.32 18.44 44.57 18.26 45.19 18.17 C 45.80 14.35 45.89 10.47 45.88 6.60 C 47.26 5.84 48.64 5.06 50.02 4.30 C 47.74 4.10 45.48 3.77 43.25 3.29 M 23.89 21.89 C 24.21 23.92 24.55 25.95 24.83 27.99 C 26.36 28.03 27.88 28.07 29.40 28.12 C 29.22 25.67 29.02 23.22 28.77 20.78 C 27.13 21.10 25.51 21.49 23.89 21.89 M 24.60 31.00 C 24.74 32.79 24.84 34.58 24.93 36.36 C 26.34 36.34 27.74 36.30 29.15 36.25 C 29.31 34.38 29.47 32.51 29.75 30.66 C 28.03 30.79 26.32 30.90 24.60 31.00 M 25.18 39.73 C 25.35 40.19 25.70 41.10 25.88 41.56 C 25.69 42.12 25.30 43.26 25.11 43.82 C 25.89 45.97 26.57 48.15 27.46 50.26 C 28.17 46.69 28.91 43.12 29.17 39.49 C 27.84 39.56 26.51 39.64 25.18 39.73 Z" />
<path fill="#ad3234" opacity="1.00" d=" M 3.78 7.88 C 6.60 5.09 10.31 3.14 14.29 2.73 C 13.20 3.81 12.08 4.87 11.05 6.01 C 10.65 5.83 9.83 5.48 9.43 5.30 C 8.36 6.55 7.24 7.76 6.12 8.97 C 6.79 8.70 7.45 8.43 8.12 8.16 C 11.56 8.87 15.08 9.05 18.52 9.77 C 14.52 12.74 9.01 11.33 4.32 11.42 C 4.11 14.54 3.95 17.67 3.57 20.78 C 1.66 16.82 1.26 11.67 3.78 7.88 Z" />
<path fill="#ad3234" opacity="1.00" d=" M 15.60 5.54 C 14.08 2.43 17.83 3.29 19.34 2.77 C 21.07 2.60 22.81 2.41 24.55 2.59 C 26.02 3.10 26.35 4.72 27.10 5.90 C 26.47 6.16 25.19 6.67 24.55 6.93 C 24.50 8.29 24.50 9.64 24.57 11.00 C 25.45 12.47 27.50 12.21 28.91 12.85 C 29.74 11.66 30.55 10.44 31.38 9.25 C 30.17 8.10 28.99 6.93 27.73 5.85 C 28.23 5.33 28.73 4.81 29.24 4.30 C 30.66 5.51 31.81 6.98 32.73 8.60 C 32.20 11.61 30.85 14.28 28.46 16.23 C 26.37 15.93 24.32 15.41 22.31 14.78 C 21.45 12.93 20.13 11.18 19.98 9.09 C 20.44 7.65 21.32 6.41 22.07 5.12 C 21.08 4.76 20.08 4.39 19.09 4.01 C 17.93 4.53 16.77 5.04 15.60 5.54 Z" />
<path fill="#ad3234" opacity="1.00" d=" M 63.77 17.77 C 60.67 15.55 58.05 11.72 59.57 7.79 C 61.00 9.60 62.29 11.52 63.60 13.41 C 63.78 11.42 62.96 8.05 66.07 9.12 C 66.38 14.32 67.48 19.58 66.33 24.75 C 66.56 25.68 67.01 27.53 67.23 28.46 L 65.83 27.04 C 65.92 29.77 65.98 32.53 65.10 35.15 C 65.67 37.71 65.97 40.32 65.91 42.94 C 65.73 50.30 68.07 58.06 64.53 64.99 C 60.79 66.72 56.61 67.16 52.92 69.00 C 52.41 68.66 51.40 67.98 50.90 67.64 C 49.34 68.13 47.81 68.91 46.15 68.95 C 44.67 68.57 43.92 66.96 42.80 66.04 L 43.00 67.73 C 40.00 67.25 37.03 67.69 34.24 68.88 C 33.09 68.49 31.94 68.10 30.79 67.71 C 29.93 68.38 29.06 69.04 28.19 69.71 C 26.71 68.91 25.22 68.14 23.70 67.41 C 20.82 68.99 17.62 69.14 14.88 67.18 C 14.57 67.61 13.96 68.48 13.65 68.91 C 11.92 68.04 10.18 67.18 8.46 66.30 C 7.84 66.30 6.60 66.30 5.97 66.29 C 4.82 64.41 3.66 62.52 2.47 60.65 C 2.24 56.25 1.51 51.71 2.76 47.40 C 2.70 45.71 2.63 44.02 2.51 42.34 C 2.82 40.30 3.40 38.33 4.09 36.40 C 4.70 38.17 6.23 40.03 5.38 41.99 C 2.74 48.56 7.16 55.36 5.91 62.15 C 9.92 65.33 15.03 63.49 19.64 64.31 C 19.89 65.08 20.40 66.61 20.65 67.38 C 20.77 66.80 21.01 65.65 21.12 65.07 C 23.86 64.76 26.60 64.52 29.36 64.52 C 32.88 63.91 36.45 64.69 39.99 64.26 C 43.22 64.32 46.51 63.28 49.67 64.33 C 52.59 63.00 55.80 63.34 58.89 62.96 C 60.53 62.26 62.07 61.33 63.73 60.68 C 62.27 57.58 62.74 54.06 63.42 50.82 C 63.01 46.72 63.04 42.59 63.22 38.48 C 58.83 42.25 52.80 42.35 47.36 43.10 C 48.19 39.76 51.93 40.12 54.56 39.34 C 56.92 38.62 59.24 37.68 61.26 36.22 C 57.50 35.49 53.59 36.89 49.92 35.86 C 49.28 33.18 52.90 33.38 54.53 32.41 C 56.89 32.76 59.25 33.06 61.61 33.39 C 62.06 32.33 62.51 31.28 62.98 30.24 C 58.58 30.14 54.10 29.55 49.78 30.77 C 48.12 31.42 47.34 29.61 46.39 28.65 C 48.44 27.88 50.51 27.16 52.58 26.43 C 56.50 26.99 60.60 26.83 64.28 28.56 C 64.87 27.39 65.38 26.18 65.91 24.99 C 62.05 24.68 64.45 20.21 63.77 17.77 Z" />
<path fill="#ad3234" opacity="1.00" d=" M 5.07 14.11 C 9.74 14.61 15.11 12.76 19.22 15.55 C 18.39 16.03 16.75 16.99 15.93 17.48 C 14.55 22.59 13.13 27.76 13.42 33.11 C 15.63 31.56 17.15 29.40 17.48 26.69 C 17.36 24.79 17.34 22.88 17.32 20.98 C 17.99 20.94 19.32 20.85 19.98 20.80 C 20.01 24.42 20.06 28.16 18.54 31.53 C 17.17 33.52 15.11 34.86 13.42 36.54 C 14.57 38.41 15.90 40.18 16.82 42.18 C 17.31 44.53 17.20 47.00 18.27 49.22 C 18.26 52.23 18.21 55.27 17.17 58.13 C 13.95 58.32 10.61 58.57 7.47 57.67 C 6.98 55.58 6.83 53.43 6.45 51.33 C 6.94 47.94 7.70 44.60 8.39 41.26 C 9.39 39.59 10.37 37.91 11.32 36.21 C 9.22 35.36 7.14 34.49 5.14 33.41 C 4.73 33.93 3.90 34.95 3.49 35.47 C 3.34 31.03 3.57 26.53 2.06 22.26 C 3.27 21.60 4.49 20.96 5.73 20.35 C 6.02 23.06 5.99 25.80 6.40 28.49 C 6.76 30.79 9.02 31.65 10.80 32.63 C 10.43 27.57 8.87 22.73 7.79 17.80 C 6.87 17.49 5.94 17.19 5.02 16.89 C 5.03 16.19 5.06 14.80 5.07 14.11 M 10.96 16.98 C 11.36 19.16 11.73 21.35 12.06 23.55 C 12.66 21.32 13.37 19.13 14.11 16.95 C 13.32 16.95 11.74 16.97 10.96 16.98 M 12.31 40.00 C 11.38 42.67 10.58 45.38 9.74 48.08 C 11.88 48.15 14.02 48.27 16.16 48.09 C 16.42 44.95 13.52 42.70 12.31 40.00 M 9.78 51.45 C 9.89 52.85 10.01 54.25 10.15 55.64 C 11.96 55.59 13.77 55.53 15.58 55.48 C 15.67 54.11 15.76 52.75 15.85 51.39 C 13.82 51.39 11.80 51.41 9.78 51.45 Z" />
<path fill="#ad3234" opacity="1.00" d=" M 54.95 13.61 C 56.21 14.36 57.44 15.14 58.68 15.92 C 59.49 18.98 60.19 22.06 60.67 25.19 C 60.10 25.46 58.96 25.99 58.39 26.26 C 57.20 23.30 56.22 20.21 56.64 16.98 C 56.45 17.34 56.08 18.06 55.89 18.42 C 55.49 20.78 55.02 23.14 54.65 25.51 C 53.70 25.48 52.61 25.78 51.89 24.96 C 51.61 20.95 53.14 17.10 54.95 13.61 Z" />
</g>
</svg>
