<?xml version="1.0" encoding="UTF-8" ?>
<!DOCTYPE svg PUBLIC "-//W3C//DTD SVG 1.1//EN" "http://www.w3.org/Graphics/SVG/1.1/DTD/svg11.dtd">
<svg width="64pt" height="64pt" viewBox="0 0 64 64" version="1.1" xmlns="http://www.w3.org/2000/svg">
<g id="#337ab7ff">
<path fill="#337ab7" opacity="1.00" d=" M 24.54 4.59 C 27.75 1.44 33.20 0.57 37.06 3.02 C 40.21 5.65 44.14 7.00 47.46 9.37 C 50.59 10.28 52.77 12.86 55.78 13.93 C 56.21 14.27 57.07 14.95 57.50 15.29 C 60.16 20.50 58.75 26.45 59.08 32.04 C 58.75 37.61 60.16 43.55 57.49 48.72 C 57.06 49.06 56.21 49.74 55.78 50.08 C 52.77 51.13 50.60 53.73 47.47 54.62 C 44.15 57.01 40.20 58.34 37.05 60.99 C 33.19 63.43 27.75 62.55 24.54 59.41 C 19.09 56.31 13.42 53.56 8.21 50.06 C 6.11 48.82 5.14 46.53 4.05 44.48 C 3.97 36.16 3.97 27.83 4.05 19.51 C 5.15 17.47 6.10 15.20 8.19 13.96 C 13.41 10.45 19.08 7.70 24.54 4.59 M 26.37 14.06 C 23.33 15.17 21.28 17.58 20.04 20.50 C 20.01 22.51 20.02 24.53 20.03 26.54 C 21.66 30.99 25.95 33.84 30.56 34.42 C 32.79 35.44 34.89 36.71 36.97 38.00 C 36.96 39.35 36.97 40.70 36.99 42.05 C 32.41 45.54 25.96 44.12 21.24 41.66 C 21.01 42.36 20.55 43.75 20.32 44.45 C 19.85 45.53 19.39 46.60 18.92 47.68 C 19.54 47.96 20.78 48.53 21.41 48.82 C 27.36 50.69 33.63 50.58 39.61 48.91 C 42.22 47.58 43.58 44.99 44.91 42.52 C 44.92 40.49 44.93 38.46 44.96 36.43 C 43.90 35.03 42.91 33.58 41.66 32.34 C 39.36 29.50 35.42 29.25 32.46 27.40 C 31.15 26.91 29.84 26.43 28.55 25.91 C 28.14 25.24 27.32 23.92 26.91 23.25 C 28.34 19.80 31.86 18.39 35.42 19.09 C 37.07 19.81 38.74 20.49 40.39 21.19 C 41.71 19.44 42.70 17.32 42.24 15.07 C 41.07 14.26 39.69 13.57 38.23 13.92 C 34.56 11.85 30.20 13.15 26.37 14.06 Z" />
</g>
</svg>
