<?xml version="1.0" encoding="UTF-8" ?>
<!DOCTYPE svg PUBLIC "-//W3C//DTD SVG 1.1//EN" "http://www.w3.org/Graphics/SVG/1.1/DTD/svg11.dtd">
<svg width="16pt" height="16pt" viewBox="0 0 16 16" version="1.1" xmlns="http://www.w3.org/2000/svg">
<g id="#5d4e48ff">
<path fill="#5d4e48" opacity="1.00" d=" M 0.00 0.00 L 16.00 0.00 L 16.00 16.00 L 0.00 16.00 L 0.00 0.00 M 2.42 4.29 C 1.51 7.27 5.20 8.64 5.50 11.40 C 4.31 10.57 3.13 9.73 1.94 8.91 C 2.25 10.25 2.24 11.77 3.25 12.84 C 4.62 12.83 5.95 12.52 7.29 12.29 C 6.97 9.92 5.76 7.41 7.28 5.20 C 6.67 3.09 3.48 2.09 2.42 4.29 M 9.11 2.95 C 8.46 5.68 7.86 8.59 8.69 11.34 C 9.34 13.27 11.83 12.68 13.37 13.07 C 13.13 10.76 14.43 6.96 10.75 7.40 C 10.98 8.13 11.45 9.61 11.69 10.35 C 11.36 10.57 10.70 11.01 10.37 11.23 C 10.36 9.08 10.32 6.93 10.31 4.78 C 11.38 5.44 12.42 6.14 13.44 6.89 C 14.11 3.83 11.64 2.79 9.11 2.95 Z" />
<path fill="#5d4e48" opacity="1.00" d=" M 4.25 5.51 C 4.52 5.76 4.52 5.76 4.25 5.51 Z" />
</g>
<g id="#ede9e2ff">
<path fill="#ede9e2" opacity="1.00" d=" M 2.42 4.29 C 3.48 2.09 6.67 3.09 7.28 5.20 C 5.76 7.41 6.97 9.92 7.29 12.29 C 5.95 12.52 4.62 12.83 3.25 12.84 C 2.24 11.77 2.25 10.25 1.94 8.91 C 3.13 9.73 4.31 10.57 5.50 11.40 C 5.20 8.64 1.51 7.27 2.42 4.29 M 4.25 5.51 C 4.52 5.76 4.52 5.76 4.25 5.51 Z" />
<path fill="#ede9e2" opacity="1.00" d=" M 9.11 2.95 C 11.64 2.79 14.11 3.83 13.44 6.89 C 12.42 6.14 11.38 5.44 10.31 4.78 C 10.32 6.93 10.36 9.08 10.37 11.23 C 10.70 11.01 11.36 10.57 11.69 10.35 C 11.45 9.61 10.98 8.13 10.75 7.40 C 14.43 6.96 13.13 10.76 13.37 13.07 C 11.83 12.68 9.34 13.27 8.69 11.34 C 7.86 8.59 8.46 5.68 9.11 2.95 Z" />
</g>
</svg>
