<?xml version="1.0" encoding="UTF-8" ?>
<!DOCTYPE svg PUBLIC "-//W3C//DTD SVG 1.1//EN" "http://www.w3.org/Graphics/SVG/1.1/DTD/svg11.dtd">
<svg width="48pt" height="48pt" viewBox="0 0 48 48" version="1.1" xmlns="http://www.w3.org/2000/svg">
<g id="#3f4040ff">
<path fill="#3f4040" opacity="1.00" d=" M 21.34 0.00 L 26.65 0.00 C 37.57 1.24 46.75 10.42 48.00 21.33 L 48.00 26.66 C 46.74 37.59 37.54 46.74 26.62 48.00 L 21.42 48.00 C 10.47 46.75 1.28 37.57 0.00 26.62 L 0.00 21.43 C 1.22 10.49 10.39 1.26 21.34 0.00 M 12.82 10.50 C 9.07 9.89 6.94 14.25 8.91 17.22 L 9.92 16.11 C 9.94 17.39 9.97 18.66 10.00 19.94 L 9.22 18.56 C 6.88 20.97 7.36 26.29 11.63 25.66 C 11.38 25.79 10.87 26.05 10.61 26.18 C 9.41 27.18 7.40 28.07 7.56 29.93 C 7.17 32.61 10.20 33.51 12.29 33.36 C 9.45 34.37 9.55 38.53 12.70 38.96 C 16.04 41.41 20.45 40.66 24.32 40.58 C 25.54 40.35 26.75 40.07 27.94 39.74 C 31.22 40.84 34.66 39.71 37.08 37.41 C 39.17 32.93 43.26 27.63 40.29 22.67 C 38.66 19.89 37.49 15.97 33.78 15.46 C 34.69 13.49 35.58 11.52 36.52 9.57 C 28.99 6.46 20.06 6.70 12.82 10.50 Z" />
</g>
<g id="#f79020ff">
<path fill="#f79020" opacity="1.00" d=" M 12.82 10.50 C 20.06 6.70 28.99 6.46 36.52 9.57 C 35.58 11.52 34.69 13.49 33.78 15.46 C 29.63 14.90 26.86 18.25 24.40 21.00 C 23.25 22.31 22.08 23.60 20.98 24.94 C 20.62 24.66 19.91 24.08 19.56 23.80 C 19.49 23.45 19.35 22.75 19.29 22.40 C 18.93 21.06 19.28 19.05 17.52 18.62 C 15.29 18.30 13.02 18.38 10.79 18.55 C 10.83 18.03 10.93 16.98 10.97 16.46 C 13.06 16.56 15.17 16.44 17.13 15.69 C 18.39 13.84 16.52 12.68 15.27 11.78 C 14.66 11.46 13.43 10.82 12.82 10.50 M 24.21 14.46 C 21.43 14.56 21.63 19.04 23.98 19.79 C 25.93 18.98 27.00 14.62 24.21 14.46 Z" />
<path fill="#f79020" opacity="1.00" d=" M 24.90 26.62 C 25.34 26.55 26.22 26.41 26.66 26.34 C 27.60 26.13 29.49 25.72 30.43 25.52 C 30.87 29.07 29.98 32.83 27.55 35.53 C 26.31 37.11 24.23 38.32 24.32 40.58 C 20.45 40.66 16.04 41.41 12.70 38.96 C 14.83 38.39 16.91 37.60 18.86 36.56 C 19.94 35.81 20.21 34.51 20.40 33.30 C 21.76 32.80 23.13 32.31 24.50 31.82 C 24.63 30.09 24.89 28.36 24.90 26.62 Z" />
</g>
<g id="#f9e2cbff">
<path fill="#f9e2cb" opacity="1.00" d=" M 8.91 17.22 C 6.94 14.25 9.07 9.89 12.82 10.50 C 13.43 10.82 14.66 11.46 15.27 11.78 C 14.58 11.98 13.19 12.38 12.50 12.58 C 12.42 13.15 12.28 14.29 12.20 14.86 C 13.83 15.20 15.48 15.47 17.13 15.69 C 15.17 16.44 13.06 16.56 10.97 16.46 C 10.93 16.98 10.83 18.03 10.79 18.55 C 13.02 18.38 15.29 18.30 17.52 18.62 C 15.85 19.37 12.80 19.49 13.90 22.13 C 15.47 22.41 17.06 22.61 18.65 22.72 C 16.44 23.99 14.03 24.82 11.63 25.66 C 7.36 26.29 6.88 20.97 9.22 18.56 L 10.00 19.94 C 9.97 18.66 9.94 17.39 9.92 16.11 L 8.91 17.22 Z" />
</g>
<g id="#68c5e5ff">
<path fill="#68c5e5" opacity="1.00" d=" M 12.50 12.58 C 13.19 12.38 14.58 11.98 15.27 11.78 C 16.52 12.68 18.39 13.84 17.13 15.69 C 15.48 15.47 13.83 15.20 12.20 14.86 C 12.28 14.29 12.42 13.15 12.50 12.58 Z" />
</g>
<g id="#fdcfa2ff">
<path fill="#fdcfa2" opacity="1.00" d=" M 24.21 14.46 C 27.00 14.62 25.93 18.98 23.98 19.79 C 21.63 19.04 21.43 14.56 24.21 14.46 Z" />
</g>
<g id="#f8dec4ff">
<path fill="#f8dec4" opacity="1.00" d=" M 24.40 21.00 C 26.86 18.25 29.63 14.90 33.78 15.46 C 37.49 15.97 38.66 19.89 40.29 22.67 C 43.26 27.63 39.17 32.93 37.08 37.41 C 36.13 33.95 34.93 30.33 31.59 28.46 C 31.55 27.34 31.54 26.23 31.56 25.11 C 31.28 25.21 30.71 25.41 30.43 25.52 C 29.49 25.72 27.60 26.13 26.66 26.34 C 27.79 25.27 28.83 24.13 29.90 23.01 C 28.98 22.12 28.08 21.21 27.20 20.28 C 26.12 21.21 25.04 22.14 23.96 23.08 C 24.07 22.56 24.29 21.52 24.40 21.00 Z" />
</g>
<g id="#7361a1ff">
<path fill="#7361a1" opacity="1.00" d=" M 13.90 22.13 C 12.80 19.49 15.85 19.37 17.52 18.62 C 19.28 19.05 18.93 21.06 19.29 22.40 L 18.65 22.72 C 17.06 22.61 15.47 22.41 13.90 22.13 Z" />
</g>
<g id="#cf6628ff">
<path fill="#cf6628" opacity="1.00" d=" M 20.98 24.94 C 22.08 23.60 23.25 22.31 24.40 21.00 C 24.29 21.52 24.07 22.56 23.96 23.08 C 24.27 24.26 24.58 25.44 24.90 26.62 C 24.89 28.36 24.63 30.09 24.50 31.82 C 23.13 32.31 21.76 32.80 20.40 33.30 C 19.94 33.22 19.04 33.07 18.59 32.99 C 16.75 32.71 14.91 32.47 13.06 32.26 C 15.55 31.23 18.06 30.13 20.11 28.34 C 20.28 27.71 20.61 26.45 20.78 25.82 C 20.25 25.61 19.20 25.19 18.67 24.97 C 15.91 24.33 13.19 25.29 10.61 26.18 C 10.87 26.05 11.38 25.79 11.63 25.66 C 14.03 24.82 16.44 23.99 18.65 22.72 L 19.29 22.40 C 19.35 22.75 19.49 23.45 19.56 23.80 C 19.91 24.08 20.62 24.66 20.98 24.94 Z" />
</g>
<g id="#a48ec4ff">
<path fill="#a48ec4" opacity="1.00" d=" M 23.96 23.08 C 25.04 22.14 26.12 21.21 27.20 20.28 C 28.08 21.21 28.98 22.12 29.90 23.01 C 28.83 24.13 27.79 25.27 26.66 26.34 C 26.22 26.41 25.34 26.55 24.90 26.62 C 24.58 25.44 24.27 24.26 23.96 23.08 Z" />
</g>
<g id="#f9e2caff">
<path fill="#f9e2ca" opacity="1.00" d=" M 10.61 26.18 C 13.19 25.29 15.91 24.33 18.67 24.97 C 16.83 25.43 14.39 26.14 15.36 28.68 C 16.95 28.63 18.53 28.52 20.11 28.34 C 18.06 30.13 15.55 31.23 13.06 32.26 C 14.91 32.47 16.75 32.71 18.59 32.99 C 17.22 33.58 15.86 34.21 14.53 34.87 C 15.61 35.30 17.78 36.14 18.86 36.56 C 16.91 37.60 14.83 38.39 12.70 38.96 C 9.55 38.53 9.45 34.37 12.29 33.36 C 10.20 33.51 7.17 32.61 7.56 29.93 C 7.40 28.07 9.41 27.18 10.61 26.18 Z" />
</g>
<g id="#4d4a98ff">
<path fill="#4d4a98" opacity="1.00" d=" M 18.67 24.97 C 19.20 25.19 20.25 25.61 20.78 25.82 C 20.61 26.45 20.28 27.71 20.11 28.34 C 18.53 28.52 16.95 28.63 15.36 28.68 C 14.39 26.14 16.83 25.43 18.67 24.97 Z" />
</g>
<g id="#df7925ff">
<path fill="#df7925" opacity="1.00" d=" M 30.43 25.52 C 30.71 25.41 31.28 25.21 31.56 25.11 C 31.54 26.23 31.55 27.34 31.59 28.46 C 31.67 31.39 32.35 34.26 33.14 37.07 C 31.43 38.00 29.73 38.96 27.94 39.74 C 26.75 40.07 25.54 40.35 24.32 40.58 C 24.23 38.32 26.31 37.11 27.55 35.53 C 29.98 32.83 30.87 29.07 30.43 25.52 Z" />
</g>
<g id="#ebcfb2ff">
<path fill="#ebcfb2" opacity="1.00" d=" M 31.59 28.46 C 34.93 30.33 36.13 33.95 37.08 37.41 C 34.66 39.71 31.22 40.84 27.94 39.74 C 29.73 38.96 31.43 38.00 33.14 37.07 C 32.35 34.26 31.67 31.39 31.59 28.46 Z" />
</g>
<g id="#256b9fff">
<path fill="#256b9f" opacity="1.00" d=" M 18.59 32.99 C 19.04 33.07 19.94 33.22 20.40 33.30 C 20.21 34.51 19.94 35.81 18.86 36.56 C 17.78 36.14 15.61 35.30 14.53 34.87 C 15.86 34.21 17.22 33.58 18.59 32.99 Z" />
</g>
</svg>
