<?xml version="1.0" encoding="UTF-8" ?>
<!DOCTYPE svg PUBLIC "-//W3C//DTD SVG 1.1//EN" "http://www.w3.org/Graphics/SVG/1.1/DTD/svg11.dtd">
<svg width="72pt" height="72pt" viewBox="0 0 72 72" version="1.1" xmlns="http://www.w3.org/2000/svg">
<g id="#fafafaff">
<path fill="#fafafa" opacity="1.00" d=" M 12.22 0.00 L 59.62 0.00 C 66.09 0.55 71.57 6.04 72.00 12.54 L 72.00 58.99 C 71.84 65.73 66.16 71.50 59.47 72.00 L 13.04 72.00 C 6.21 71.83 0.28 66.00 0.00 59.18 L 0.00 12.75 C 0.29 6.21 5.75 0.66 12.22 0.00 M 29.40 8.75 C 21.64 10.59 14.80 15.93 11.13 23.02 C 4.67 34.81 8.34 50.88 19.33 58.64 C 29.85 66.72 45.95 65.69 55.39 56.38 C 64.13 48.25 66.61 34.34 61.21 23.69 C 55.78 12.09 41.81 5.54 29.40 8.75 Z" />
<path fill="#fafafa" opacity="1.00" d=" M 20.72 26.99 C 30.59 25.61 40.35 23.07 50.29 22.51 C 50.10 23.97 49.91 25.44 49.71 26.90 C 47.71 27.28 45.71 27.64 43.71 28.01 C 43.85 32.62 43.39 37.27 43.94 41.86 C 44.94 44.80 46.63 47.44 47.95 50.24 C 46.37 50.70 44.72 50.82 43.09 50.88 C 41.78 48.24 40.05 45.79 39.14 42.98 C 38.63 38.27 39.08 33.50 38.93 28.77 C 36.56 29.17 34.20 29.57 31.83 29.98 C 31.68 36.18 32.15 42.41 31.62 48.59 C 30.49 49.63 29.14 50.38 27.85 51.21 C 26.03 44.63 27.52 37.56 27.03 30.79 C 24.92 31.11 22.80 31.46 20.70 31.83 C 20.35 30.23 20.49 28.59 20.72 26.99 Z" />
</g>
<g id="#d7171cff">
<path fill="#d7171c" opacity="1.00" d=" M 29.40 8.75 C 41.81 5.54 55.78 12.09 61.21 23.69 C 66.61 34.34 64.13 48.25 55.39 56.38 C 45.95 65.69 29.85 66.72 19.33 58.64 C 8.34 50.88 4.67 34.81 11.13 23.02 C 14.80 15.93 21.64 10.59 29.40 8.75 M 20.72 26.99 C 20.49 28.59 20.35 30.23 20.70 31.83 C 22.80 31.46 24.92 31.11 27.03 30.79 C 27.52 37.56 26.03 44.63 27.85 51.21 C 29.14 50.38 30.49 49.63 31.62 48.59 C 32.15 42.41 31.68 36.18 31.83 29.98 C 34.20 29.57 36.56 29.17 38.93 28.77 C 39.08 33.50 38.63 38.27 39.14 42.98 C 40.05 45.79 41.78 48.24 43.09 50.88 C 44.72 50.82 46.37 50.70 47.95 50.24 C 46.63 47.44 44.94 44.80 43.94 41.86 C 43.39 37.27 43.85 32.62 43.71 28.01 C 45.71 27.64 47.71 27.28 49.71 26.90 C 49.91 25.44 50.10 23.97 50.29 22.51 C 40.35 23.07 30.59 25.61 20.72 26.99 Z" />
</g>
</svg>
