<?xml version="1.0" encoding="UTF-8" ?>
<!DOCTYPE svg PUBLIC "-//W3C//DTD SVG 1.1//EN" "http://www.w3.org/Graphics/SVG/1.1/DTD/svg11.dtd">
<svg width="128pt" height="128pt" viewBox="0 0 128 128" version="1.1" xmlns="http://www.w3.org/2000/svg">
<g id="#0078cfff">
<path fill="#0078cf" opacity="1.00" d=" M 90.31 0.00 L 90.75 0.00 C 90.74 1.16 90.71 2.32 90.68 3.47 C 90.41 3.71 89.86 4.19 89.59 4.43 C 84.45 17.02 79.11 29.52 73.93 42.09 C 72.37 45.53 71.19 49.15 69.25 52.41 C 81.53 53.07 93.90 52.50 106.21 52.69 C 99.47 60.72 91.85 67.99 84.88 75.83 C 70.17 91.45 55.55 107.14 40.88 122.80 C 39.28 124.36 37.88 126.11 36.69 128.00 L 35.36 128.00 C 42.06 111.00 49.25 94.19 56.35 77.35 C 56.72 76.47 56.78 75.57 56.54 74.64 C 48.71 75.13 40.84 74.34 33.03 75.14 C 29.01 74.76 24.95 74.48 20.95 75.25 C 21.73 73.10 23.62 71.72 25.09 70.08 C 42.55 51.55 59.86 32.89 77.32 14.36 C 81.52 9.46 86.42 5.17 90.31 0.00 Z" />
</g>
</svg>
