<?xml version="1.0" encoding="UTF-8" ?>
<!DOCTYPE svg PUBLIC "-//W3C//DTD SVG 1.1//EN" "http://www.w3.org/Graphics/SVG/1.1/DTD/svg11.dtd">
<svg width="152pt" height="152pt" viewBox="0 0 152 152" version="1.1" xmlns="http://www.w3.org/2000/svg">
<g id="#364250ff">
<path fill="#364250" opacity="1.00" d=" M 13.36 0.00 L 138.62 0.00 C 145.43 0.94 151.03 6.53 152.00 13.33 L 152.00 138.67 C 151.03 145.45 145.46 151.02 138.69 152.00 L 13.35 152.00 C 6.55 151.04 0.96 145.45 0.00 138.65 L 0.00 13.34 C 0.97 6.54 6.56 0.95 13.36 0.00 M 38.38 50.73 C 37.72 50.13 37.07 49.51 36.43 48.89 C 36.40 46.67 35.93 44.51 35.26 42.41 C 31.86 45.87 32.16 50.81 33.72 55.05 C 33.04 56.10 32.37 57.16 31.72 58.23 C 32.42 57.53 33.10 56.83 33.79 56.13 C 37.60 56.76 41.46 56.03 44.57 53.68 C 41.94 52.21 38.99 52.38 36.24 53.46 L 36.08 50.66 C 40.73 51.03 45.99 51.50 49.53 47.81 C 46.47 47.06 43.31 47.14 40.26 47.85 C 41.70 44.34 42.04 40.50 41.21 36.79 C 37.06 40.33 38.26 45.96 38.38 50.73 M 110.79 36.79 C 109.95 40.50 110.31 44.34 111.73 47.85 C 108.71 47.17 105.60 47.07 102.56 47.73 C 105.43 50.92 109.84 51.40 113.84 50.47 C 115.01 51.49 116.11 52.56 117.24 53.63 C 113.99 52.68 110.52 51.93 107.42 53.67 C 110.57 56.11 114.50 56.70 118.37 56.18 C 118.85 56.72 119.81 57.81 120.29 58.35 C 119.64 57.23 118.97 56.11 118.29 55.01 C 119.80 50.79 120.15 45.89 116.75 42.45 C 115.70 45.12 115.42 47.97 115.70 50.82 C 115.12 50.48 113.96 49.80 113.38 49.46 C 114.19 45.08 114.48 40.02 110.79 36.79 M 41.71 45.55 C 43.90 45.20 46.18 45.11 48.26 44.29 C 50.60 43.08 52.11 40.83 53.55 38.72 C 48.24 37.53 44.46 41.68 41.71 45.55 M 98.45 38.72 C 99.87 40.81 101.37 43.03 103.66 44.26 C 105.76 45.11 108.08 45.18 110.29 45.55 C 107.54 41.68 103.76 37.53 98.45 38.72 M 28.54 60.57 C 29.57 59.95 30.58 59.30 31.60 58.67 C 31.25 55.07 30.70 51.32 27.91 48.72 C 25.61 52.49 26.24 56.99 28.54 60.57 M 120.40 58.67 C 121.42 59.30 122.43 59.95 123.46 60.58 C 125.76 56.99 126.39 52.49 124.09 48.72 C 121.30 51.32 120.72 55.07 120.40 58.67 M 51.21 55.28 C 51.19 55.94 51.15 57.25 51.13 57.90 C 50.03 59.08 48.14 59.99 48.41 61.88 C 48.33 71.59 48.30 81.30 48.42 91.00 C 48.23 92.48 49.39 93.91 50.94 93.78 C 57.25 94.08 63.58 93.66 69.89 94.00 C 70.89 96.26 73.03 96.96 75.36 97.02 C 76.51 99.73 74.12 100.52 72.15 101.40 C 67.09 99.93 61.40 98.15 56.41 100.81 C 56.13 104.04 58.94 105.93 61.91 105.66 C 66.54 106.31 70.70 102.08 75.23 104.03 C 73.87 106.21 71.92 108.19 72.09 110.98 C 73.01 112.31 73.82 113.72 74.64 115.11 C 74.70 114.28 74.80 112.61 74.86 111.77 C 75.39 111.78 76.45 111.79 76.98 111.80 C 77.24 112.99 77.51 114.18 77.79 115.37 C 78.09 114.43 78.39 113.49 78.69 112.54 C 82.04 108.63 76.84 104.90 74.93 101.75 C 75.69 101.45 77.21 100.86 77.97 100.56 C 81.69 102.79 85.63 105.05 90.06 105.30 C 92.53 105.45 95.50 103.76 95.38 101.01 C 95.54 98.11 92.66 96.17 90.06 95.85 C 85.70 95.33 81.58 97.25 77.55 98.64 C 77.42 98.24 77.17 97.46 77.04 97.07 C 79.36 96.83 81.06 95.35 82.84 94.02 C 89.55 93.14 96.66 95.01 103.15 93.07 C 104.28 83.10 103.33 72.93 103.64 62.89 C 104.13 60.62 102.42 59.19 100.88 57.90 C 100.86 57.25 100.81 55.93 100.78 55.28 C 94.86 55.33 88.94 55.26 83.02 55.28 C 79.62 54.88 76.45 57.75 73.19 55.89 C 65.99 54.53 58.52 55.66 51.21 55.28 M 23.15 56.64 C 22.96 58.41 22.63 60.21 22.84 62.01 C 23.37 65.84 27.69 68.37 26.12 72.58 C 24.75 69.05 22.99 65.46 19.29 63.90 C 18.53 68.86 21.13 73.38 25.22 76.03 C 25.17 77.52 25.12 79.01 25.07 80.50 C 23.46 76.60 20.72 72.98 16.16 72.61 C 16.91 75.07 17.42 77.84 19.46 79.62 C 21.82 81.95 26.15 82.32 26.27 86.42 C 23.12 83.60 19.39 80.78 14.88 81.82 C 17.19 85.91 21.57 88.36 26.30 87.90 C 26.86 89.16 27.43 90.43 28.01 91.69 C 25.80 90.47 23.59 88.98 21.01 88.75 C 19.40 89.03 17.86 89.59 16.31 90.09 C 19.47 93.57 24.43 95.10 28.89 93.34 C 29.99 94.84 31.11 96.32 32.26 97.79 C 28.82 96.11 24.71 94.89 21.52 97.80 C 25.09 100.44 29.77 102.31 33.97 99.87 C 35.07 100.84 36.17 101.82 37.28 102.78 C 33.64 102.32 29.21 101.49 26.79 105.05 C 30.72 106.37 35.05 106.72 38.59 104.21 C 39.86 105.07 41.13 105.91 42.43 106.73 C 38.78 106.68 34.69 106.94 32.57 110.37 C 36.63 111.29 41.24 111.31 44.38 108.18 C 47.65 109.68 50.91 111.36 54.52 111.82 C 51.79 109.25 48.06 108.27 44.80 106.58 C 46.35 103.49 47.25 99.62 45.10 96.57 C 41.73 98.47 42.79 102.72 43.37 105.79 C 42.08 104.79 40.80 103.79 39.50 102.81 C 41.82 99.87 42.11 96.17 41.30 92.62 C 40.60 92.93 39.22 93.55 38.52 93.86 C 38.10 96.52 38.11 99.21 38.36 101.88 C 32.92 96.73 28.24 90.46 26.79 82.95 C 31.32 82.48 34.32 79.06 36.01 75.09 C 31.35 74.33 28.82 78.39 26.53 81.64 C 26.46 79.82 26.40 77.99 26.36 76.17 C 31.07 76.04 35.06 73.00 36.67 68.62 C 31.85 68.10 28.69 71.78 26.23 75.34 C 26.70 73.18 27.18 71.02 27.66 68.87 C 29.47 68.78 31.29 68.74 33.07 68.43 C 35.57 67.60 37.05 65.25 38.55 63.26 C 34.55 62.48 31.04 64.32 28.24 66.97 C 28.38 66.72 28.67 66.21 28.82 65.96 C 26.66 62.93 27.20 58.32 23.15 56.64 M 124.30 65.59 L 122.78 64.96 L 123.73 66.91 C 120.89 64.34 117.43 62.47 113.44 63.26 C 114.95 65.25 116.43 67.58 118.92 68.43 C 120.71 68.74 122.53 68.78 124.33 68.87 C 124.80 71.05 125.27 73.22 125.75 75.39 C 123.32 71.76 120.08 67.97 115.18 68.66 C 117.02 72.89 120.83 76.07 125.60 76.13 C 125.58 77.97 125.55 79.81 125.50 81.65 C 123.14 78.43 120.69 74.32 115.99 75.08 C 117.67 79.04 120.67 82.44 125.16 82.96 C 124.80 84.35 124.45 85.74 124.06 87.12 C 121.86 83.90 119.79 79.75 115.20 80.00 C 116.53 83.96 119.33 87.63 123.80 88.02 C 122.07 91.73 119.85 95.17 117.23 98.32 C 116.07 99.31 114.92 100.32 113.76 101.33 C 113.89 98.79 113.80 96.25 113.49 93.73 C 112.78 93.52 111.35 93.11 110.64 92.90 C 109.87 96.39 110.28 99.98 112.51 102.86 C 111.21 103.82 109.91 104.80 108.62 105.78 C 109.58 102.38 109.71 98.63 106.87 96.08 C 105.09 99.52 105.66 103.28 106.98 106.75 C 103.79 108.36 100.08 109.22 97.54 111.87 C 101.12 111.33 104.37 109.68 107.62 108.18 C 110.77 111.33 115.37 111.27 119.44 110.37 C 117.32 106.94 113.25 106.69 109.60 106.73 C 110.88 105.91 112.14 105.07 113.39 104.21 C 116.95 106.72 121.29 106.37 125.22 105.05 C 122.77 101.53 118.40 102.31 114.75 102.78 C 115.85 101.81 116.94 100.84 118.02 99.86 C 122.23 102.32 126.93 100.45 130.50 97.77 C 127.28 94.83 123.24 96.12 119.80 97.78 C 120.92 96.32 122.02 94.84 123.09 93.34 C 127.55 95.08 132.55 93.61 135.68 90.08 C 134.14 89.59 132.61 89.04 131.01 88.75 C 128.39 88.98 126.16 90.50 123.91 91.72 C 124.52 90.45 125.12 89.17 125.71 87.90 C 130.44 88.36 134.82 85.91 137.12 81.82 C 132.59 80.75 128.86 83.64 125.70 86.44 C 125.86 82.32 130.21 81.95 132.58 79.57 C 134.58 77.80 135.07 75.04 135.85 72.61 C 131.35 72.99 128.53 76.49 127.00 80.42 C 126.90 78.96 126.82 77.50 126.74 76.05 C 130.86 73.42 133.43 68.89 132.73 63.92 C 128.86 65.48 127.13 69.27 125.85 72.97 C 125.82 71.94 125.76 69.90 125.73 68.87 C 128.31 65.32 130.15 61.12 128.90 56.65 C 125.47 58.35 124.28 61.98 124.30 65.59 M 28.40 62.57 C 30.95 62.64 33.57 63.07 36.10 62.47 C 38.12 61.50 39.68 59.86 41.31 58.38 C 36.53 56.14 31.92 59.63 28.40 62.57 M 110.70 57.81 C 112.21 59.57 113.67 61.60 115.93 62.47 C 118.36 63.12 120.90 62.82 123.30 62.18 C 119.71 59.40 115.48 56.67 110.70 57.81 M 28.53 85.79 C 29.06 86.48 29.60 87.16 30.15 87.84 C 33.57 86.44 35.58 83.30 36.80 79.97 C 32.91 79.88 30.58 82.98 28.53 85.79 M 32.15 91.85 C 32.47 91.95 33.11 92.15 33.44 92.26 C 35.61 90.19 36.46 87.24 37.22 84.45 C 34.19 85.08 30.38 88.65 32.15 91.85 M 114.78 84.45 C 115.54 87.25 116.39 90.20 118.57 92.28 C 118.89 92.17 119.53 91.95 119.86 91.85 C 121.62 88.64 117.80 85.08 114.78 84.45 M 36.21 96.61 C 38.03 94.26 38.79 91.37 38.81 88.43 C 35.64 89.43 32.26 94.48 36.21 96.61 M 113.17 88.43 C 113.13 91.39 114.17 94.16 115.70 96.65 C 116.45 96.02 117.19 95.38 117.92 94.74 C 117.34 91.97 115.99 89.44 113.17 88.43 Z" />
<path fill="#364250" opacity="1.00" d=" M 53.38 90.68 C 53.37 79.62 53.37 68.55 53.39 57.48 C 60.49 58.03 67.97 56.20 74.78 58.78 C 75.10 66.09 74.24 73.47 75.25 80.72 C 77.60 81.31 77.00 78.46 77.20 77.02 C 77.24 70.94 77.14 64.86 77.22 58.78 C 84.03 56.19 91.51 58.03 98.62 57.48 C 98.64 68.53 98.61 79.58 98.63 90.63 C 91.10 91.19 83.20 89.41 75.98 92.18 C 68.81 89.31 60.90 91.19 53.38 90.68 M 60.66 67.65 C 58.92 68.96 58.77 71.56 59.65 73.42 C 61.54 75.69 65.97 75.98 65.73 79.63 C 63.46 79.41 61.26 78.83 59.09 78.15 C 58.56 79.15 58.04 80.16 57.52 81.16 C 60.35 82.43 63.54 83.46 66.62 82.44 C 69.26 81.67 70.48 78.26 69.19 75.91 C 67.21 73.62 64.22 72.61 61.82 70.85 C 63.85 69.39 66.24 69.97 68.48 70.45 C 68.58 69.42 68.63 68.39 68.66 67.35 C 66.19 66.18 62.89 65.72 60.66 67.65 M 83.37 66.33 C 83.35 71.83 83.36 77.33 83.37 82.83 C 86.49 82.84 89.61 82.84 92.74 82.84 C 92.76 82.03 92.82 80.40 92.84 79.58 C 90.97 79.57 89.10 79.57 87.22 79.57 C 87.22 78.48 87.21 77.39 87.21 76.30 C 89.01 76.30 90.82 76.30 92.62 76.31 C 92.60 75.44 92.57 73.70 92.55 72.84 C 90.77 72.84 89.00 72.85 87.23 72.85 C 87.22 72.05 87.21 70.45 87.20 69.65 C 89.06 69.64 90.92 69.63 92.78 69.63 C 92.78 68.53 92.79 67.44 92.79 66.34 C 89.65 66.34 86.51 66.34 83.37 66.33 Z" />
<path fill="#364250" opacity="1.00" d=" M 79.72 99.77 C 83.52 98.34 87.87 96.35 91.86 98.22 C 93.74 98.75 93.38 100.98 93.83 102.47 C 89.03 105.08 83.99 101.97 79.72 99.77 Z" />
<path fill="#364250" opacity="1.00" d=" M 58.56 101.54 C 62.18 100.72 65.94 101.34 69.36 102.64 C 65.82 103.55 61.85 104.74 58.36 103.03 C 58.41 102.66 58.51 101.91 58.56 101.54 Z" />
</g>
<g id="#fefefeff">
<path fill="#fefefe" opacity="1.00" d=" M 38.38 50.73 C 38.26 45.96 37.06 40.33 41.21 36.79 C 42.04 40.50 41.70 44.34 40.26 47.85 C 43.31 47.14 46.47 47.06 49.53 47.81 C 45.99 51.50 40.73 51.03 36.08 50.66 L 36.24 53.46 C 38.99 52.38 41.94 52.21 44.57 53.68 C 41.46 56.03 37.60 56.76 33.79 56.13 C 33.10 56.83 32.42 57.53 31.72 58.23 C 32.37 57.16 33.04 56.10 33.72 55.05 C 32.16 50.81 31.86 45.87 35.26 42.41 C 35.93 44.51 36.40 46.67 36.43 48.89 C 37.07 49.51 37.72 50.13 38.38 50.73 Z" />
<path fill="#fefefe" opacity="1.00" d=" M 110.79 36.79 C 114.48 40.02 114.19 45.08 113.38 49.46 C 113.96 49.80 115.12 50.48 115.70 50.82 C 115.42 47.97 115.70 45.12 116.75 42.45 C 120.15 45.89 119.80 50.79 118.29 55.01 C 118.97 56.11 119.64 57.23 120.29 58.35 C 119.81 57.81 118.85 56.72 118.37 56.18 C 114.50 56.70 110.57 56.11 107.42 53.67 C 110.52 51.93 113.99 52.68 117.24 53.63 C 116.11 52.56 115.01 51.49 113.84 50.47 C 109.84 51.40 105.43 50.92 102.56 47.73 C 105.60 47.07 108.71 47.17 111.73 47.85 C 110.31 44.34 109.95 40.50 110.79 36.79 Z" />
<path fill="#fefefe" opacity="1.00" d=" M 41.71 45.55 C 44.46 41.68 48.24 37.53 53.55 38.72 C 52.11 40.83 50.60 43.08 48.26 44.29 C 46.18 45.11 43.90 45.20 41.71 45.55 Z" />
<path fill="#fefefe" opacity="1.00" d=" M 98.45 38.72 C 103.76 37.53 107.54 41.68 110.29 45.55 C 108.08 45.18 105.76 45.11 103.66 44.26 C 101.37 43.03 99.87 40.81 98.45 38.72 Z" />
<path fill="#fefefe" opacity="1.00" d=" M 28.54 60.57 C 26.24 56.99 25.61 52.49 27.91 48.72 C 30.70 51.32 31.25 55.07 31.60 58.67 C 30.58 59.30 29.57 59.95 28.54 60.57 Z" />
<path fill="#fefefe" opacity="1.00" d=" M 120.40 58.67 C 120.72 55.07 121.30 51.32 124.09 48.72 C 126.39 52.49 125.76 56.99 123.46 60.58 C 122.43 59.95 121.42 59.30 120.40 58.67 Z" />
<path fill="#fefefe" opacity="1.00" d=" M 51.21 55.28 C 58.52 55.66 65.99 54.53 73.19 55.89 C 76.45 57.75 79.62 54.88 83.02 55.28 C 88.94 55.26 94.86 55.33 100.78 55.28 C 100.81 55.93 100.86 57.25 100.88 57.90 C 102.42 59.19 104.13 60.62 103.64 62.89 C 103.33 72.93 104.28 83.10 103.15 93.07 C 96.66 95.01 89.55 93.14 82.84 94.02 C 81.06 95.35 79.36 96.83 77.04 97.07 C 77.17 97.46 77.42 98.24 77.55 98.64 C 81.58 97.25 85.70 95.33 90.06 95.85 C 92.66 96.17 95.54 98.11 95.38 101.01 C 95.50 103.76 92.53 105.45 90.06 105.30 C 85.63 105.05 81.69 102.79 77.97 100.56 C 77.21 100.86 75.69 101.45 74.93 101.75 C 76.84 104.90 82.04 108.63 78.69 112.54 C 78.39 113.49 78.09 114.43 77.79 115.37 C 77.51 114.18 77.24 112.99 76.98 111.80 C 76.45 111.79 75.39 111.78 74.86 111.77 C 74.80 112.61 74.70 114.28 74.64 115.11 C 73.82 113.72 73.01 112.31 72.09 110.98 C 71.92 108.19 73.87 106.21 75.23 104.03 C 70.70 102.08 66.54 106.31 61.91 105.66 C 58.94 105.93 56.13 104.04 56.41 100.81 C 61.40 98.15 67.09 99.93 72.15 101.40 C 74.12 100.52 76.51 99.73 75.36 97.02 C 73.03 96.96 70.89 96.26 69.89 94.00 C 63.58 93.66 57.25 94.08 50.94 93.78 C 49.39 93.91 48.23 92.48 48.42 91.00 C 48.30 81.30 48.33 71.59 48.41 61.88 C 48.14 59.99 50.03 59.08 51.13 57.90 C 51.15 57.25 51.19 55.94 51.21 55.28 M 53.38 90.68 C 60.90 91.19 68.81 89.31 75.98 92.18 C 83.20 89.41 91.10 91.19 98.63 90.63 C 98.61 79.58 98.64 68.53 98.62 57.48 C 91.51 58.03 84.03 56.19 77.22 58.78 C 77.14 64.86 77.24 70.94 77.20 77.02 C 77.00 78.46 77.60 81.31 75.25 80.72 C 74.24 73.47 75.10 66.09 74.78 58.78 C 67.97 56.20 60.49 58.03 53.39 57.48 C 53.37 68.55 53.37 79.62 53.38 90.68 M 79.72 99.77 C 83.99 101.97 89.03 105.08 93.83 102.47 C 93.38 100.98 93.74 98.75 91.86 98.22 C 87.87 96.35 83.52 98.34 79.72 99.77 M 58.56 101.54 C 58.51 101.91 58.41 102.66 58.36 103.03 C 61.85 104.74 65.82 103.55 69.36 102.64 C 65.94 101.34 62.18 100.72 58.56 101.54 Z" />
<path fill="#fefefe" opacity="1.00" d=" M 23.15 56.64 C 27.20 58.32 26.66 62.93 28.82 65.96 C 28.67 66.21 28.38 66.72 28.24 66.97 C 31.04 64.32 34.55 62.48 38.55 63.26 C 37.05 65.25 35.57 67.60 33.07 68.43 C 31.29 68.74 29.47 68.78 27.66 68.87 C 27.18 71.02 26.70 73.18 26.23 75.34 C 28.69 71.78 31.85 68.10 36.67 68.62 C 35.06 73.00 31.07 76.04 26.36 76.17 C 26.40 77.99 26.46 79.82 26.53 81.64 C 28.82 78.39 31.35 74.33 36.01 75.09 C 34.32 79.06 31.32 82.48 26.79 82.95 C 28.24 90.46 32.92 96.73 38.36 101.88 C 38.11 99.21 38.10 96.52 38.52 93.86 C 39.22 93.55 40.60 92.93 41.30 92.62 C 42.11 96.17 41.82 99.87 39.50 102.81 C 40.80 103.79 42.08 104.79 43.37 105.79 C 42.79 102.72 41.73 98.47 45.10 96.57 C 47.25 99.62 46.35 103.49 44.80 106.58 C 48.06 108.27 51.79 109.25 54.52 111.82 C 50.91 111.36 47.65 109.68 44.38 108.18 C 41.24 111.31 36.63 111.29 32.57 110.37 C 34.69 106.94 38.78 106.68 42.43 106.73 C 41.13 105.91 39.86 105.07 38.59 104.21 C 35.05 106.72 30.72 106.37 26.79 105.05 C 29.21 101.49 33.64 102.32 37.28 102.78 C 36.17 101.82 35.07 100.84 33.97 99.87 C 29.77 102.31 25.09 100.44 21.52 97.80 C 24.71 94.89 28.82 96.11 32.26 97.79 C 31.11 96.32 29.99 94.84 28.89 93.34 C 24.43 95.10 19.47 93.57 16.31 90.09 C 17.86 89.59 19.40 89.03 21.01 88.75 C 23.59 88.98 25.80 90.47 28.01 91.69 C 27.43 90.43 26.86 89.16 26.30 87.90 C 21.57 88.36 17.19 85.91 14.88 81.82 C 19.39 80.78 23.12 83.60 26.27 86.42 C 26.15 82.32 21.82 81.95 19.46 79.62 C 17.42 77.84 16.91 75.07 16.16 72.61 C 20.72 72.98 23.46 76.60 25.07 80.50 C 25.12 79.01 25.17 77.52 25.22 76.03 C 21.13 73.38 18.53 68.86 19.29 63.90 C 22.99 65.46 24.75 69.05 26.12 72.58 C 27.69 68.37 23.37 65.84 22.84 62.01 C 22.63 60.21 22.96 58.41 23.15 56.64 Z" />
<path fill="#fefefe" opacity="1.00" d=" M 124.30 65.59 C 124.28 61.98 125.47 58.35 128.90 56.65 C 130.15 61.12 128.31 65.32 125.73 68.87 C 125.76 69.90 125.82 71.94 125.85 72.97 C 127.13 69.27 128.86 65.48 132.73 63.92 C 133.43 68.89 130.86 73.42 126.74 76.05 C 126.82 77.50 126.90 78.96 127.00 80.42 C 128.53 76.49 131.35 72.99 135.85 72.61 C 135.07 75.04 134.58 77.80 132.58 79.57 C 130.21 81.95 125.86 82.32 125.70 86.44 C 128.86 83.64 132.59 80.75 137.12 81.82 C 134.82 85.91 130.44 88.36 125.71 87.90 C 125.12 89.17 124.52 90.45 123.91 91.72 C 126.16 90.50 128.39 88.98 131.01 88.75 C 132.61 89.04 134.14 89.59 135.68 90.08 C 132.55 93.61 127.55 95.08 123.09 93.34 C 122.02 94.84 120.92 96.32 119.80 97.78 C 123.24 96.12 127.28 94.83 130.50 97.77 C 126.93 100.45 122.23 102.32 118.02 99.86 C 116.94 100.84 115.85 101.81 114.75 102.78 C 118.40 102.31 122.77 101.53 125.22 105.05 C 121.29 106.37 116.95 106.72 113.39 104.21 C 112.14 105.07 110.88 105.91 109.60 106.73 C 113.25 106.69 117.32 106.94 119.44 110.37 C 115.37 111.27 110.77 111.33 107.62 108.18 C 104.37 109.68 101.12 111.33 97.54 111.87 C 100.08 109.22 103.79 108.36 106.98 106.75 C 105.66 103.28 105.09 99.52 106.87 96.08 C 109.71 98.63 109.58 102.38 108.62 105.78 C 109.91 104.80 111.21 103.82 112.51 102.86 C 110.28 99.98 109.87 96.39 110.64 92.90 C 111.35 93.11 112.78 93.52 113.49 93.73 C 113.80 96.25 113.89 98.79 113.76 101.33 C 114.92 100.32 116.07 99.31 117.23 98.32 C 119.85 95.17 122.07 91.73 123.80 88.02 C 119.33 87.63 116.53 83.96 115.20 80.00 C 119.79 79.75 121.86 83.90 124.06 87.12 C 124.45 85.74 124.80 84.35 125.16 82.96 C 120.67 82.44 117.67 79.04 115.99 75.08 C 120.69 74.32 123.14 78.43 125.50 81.65 C 125.55 79.81 125.58 77.97 125.60 76.13 C 120.83 76.07 117.02 72.89 115.18 68.66 C 120.08 67.97 123.32 71.76 125.75 75.39 C 125.27 73.22 124.80 71.05 124.33 68.87 C 122.53 68.78 120.71 68.74 118.92 68.43 C 116.43 67.58 114.95 65.25 113.44 63.26 C 117.43 62.47 120.89 64.34 123.73 66.91 L 122.78 64.96 L 124.30 65.59 Z" />
<path fill="#fefefe" opacity="1.00" d=" M 28.40 62.57 C 31.92 59.63 36.53 56.14 41.31 58.38 C 39.68 59.86 38.12 61.50 36.10 62.47 C 33.57 63.07 30.95 62.64 28.40 62.57 Z" />
<path fill="#fefefe" opacity="1.00" d=" M 110.70 57.81 C 115.48 56.67 119.71 59.40 123.30 62.18 C 120.90 62.82 118.36 63.12 115.93 62.47 C 113.67 61.60 112.21 59.57 110.70 57.81 Z" />
<path fill="#fefefe" opacity="1.00" d=" M 60.66 67.65 C 62.89 65.72 66.19 66.18 68.66 67.35 C 68.63 68.39 68.58 69.42 68.48 70.45 C 66.24 69.97 63.85 69.39 61.82 70.85 C 64.22 72.61 67.21 73.62 69.19 75.91 C 70.48 78.26 69.26 81.67 66.62 82.44 C 63.54 83.46 60.35 82.43 57.52 81.16 C 58.04 80.16 58.56 79.15 59.09 78.15 C 61.26 78.83 63.46 79.41 65.73 79.63 C 65.97 75.98 61.54 75.69 59.65 73.42 C 58.77 71.56 58.92 68.96 60.66 67.65 Z" />
<path fill="#fefefe" opacity="1.00" d=" M 83.37 66.33 C 86.51 66.34 89.65 66.34 92.79 66.34 C 92.79 67.44 92.78 68.53 92.78 69.63 C 90.92 69.63 89.06 69.64 87.20 69.65 C 87.21 70.45 87.22 72.05 87.23 72.85 C 89.00 72.85 90.77 72.84 92.55 72.84 C 92.57 73.70 92.60 75.44 92.62 76.31 C 90.82 76.30 89.01 76.30 87.21 76.30 C 87.21 77.39 87.22 78.48 87.22 79.57 C 89.10 79.57 90.97 79.57 92.84 79.58 C 92.82 80.40 92.76 82.03 92.74 82.84 C 89.61 82.84 86.49 82.84 83.37 82.83 C 83.36 77.33 83.35 71.83 83.37 66.33 Z" />
<path fill="#fefefe" opacity="1.00" d=" M 28.53 85.79 C 30.58 82.98 32.91 79.88 36.80 79.97 C 35.58 83.30 33.57 86.44 30.15 87.84 C 29.60 87.16 29.06 86.48 28.53 85.79 Z" />
<path fill="#fefefe" opacity="1.00" d=" M 32.15 91.85 C 30.38 88.65 34.19 85.08 37.22 84.45 C 36.46 87.24 35.61 90.19 33.44 92.26 C 33.11 92.15 32.47 91.95 32.15 91.85 Z" />
<path fill="#fefefe" opacity="1.00" d=" M 114.78 84.45 C 117.80 85.08 121.62 88.64 119.86 91.85 C 119.53 91.95 118.89 92.17 118.57 92.28 C 116.39 90.20 115.54 87.25 114.78 84.45 Z" />
<path fill="#fefefe" opacity="1.00" d=" M 36.21 96.61 C 32.26 94.48 35.64 89.43 38.81 88.43 C 38.79 91.37 38.03 94.26 36.21 96.61 Z" />
<path fill="#fefefe" opacity="1.00" d=" M 113.17 88.43 C 115.99 89.44 117.34 91.97 117.92 94.74 C 117.19 95.38 116.45 96.02 115.70 96.65 C 114.17 94.16 113.13 91.39 113.17 88.43 Z" />
</g>
</svg>
