<?xml version="1.0" encoding="UTF-8" ?>
<!DOCTYPE svg PUBLIC "-//W3C//DTD SVG 1.1//EN" "http://www.w3.org/Graphics/SVG/1.1/DTD/svg11.dtd">
<svg width="120pt" height="120pt" viewBox="0 0 120 120" version="1.1" xmlns="http://www.w3.org/2000/svg">
<g id="#ffffffff">
<path fill="#ffffff" opacity="1.00" d=" M 56.47 3.56 C 71.55 2.42 87.02 7.53 98.32 17.61 C 110.38 28.14 117.76 44.00 117.52 60.06 C 117.86 73.27 113.07 86.48 104.65 96.64 C 94.12 109.51 77.69 117.52 61.00 117.27 C 47.13 117.65 33.33 112.33 22.95 103.19 C 10.70 92.49 3.38 76.28 3.72 59.99 C 3.64 48.06 7.65 36.19 14.73 26.62 C 24.36 13.30 40.08 4.66 56.47 3.56 M 50.49 9.72 C 38.38 12.06 27.22 18.97 19.73 28.77 C 11.54 39.22 7.79 52.95 9.29 66.12 C 10.70 79.82 17.95 92.76 28.85 101.17 C 40.57 110.45 56.45 114.05 71.06 111.00 C 84.36 108.40 96.39 100.16 103.82 88.85 C 110.98 78.10 113.73 64.61 111.61 51.89 C 109.49 38.46 101.71 26.04 90.57 18.24 C 79.16 10.00 64.26 6.96 50.49 9.72 Z" />
<path fill="#ffffff" opacity="1.00" d=" M 47.73 14.92 C 61.53 10.88 77.11 13.70 88.60 22.33 C 97.46 28.77 103.82 38.40 106.55 48.98 C 90.02 49.04 73.50 48.96 56.97 49.02 C 52.35 49.31 47.28 49.48 43.40 52.30 C 40.41 54.41 40.43 59.70 44.14 61.07 C 53.75 64.84 64.58 63.27 74.29 66.76 C 75.31 67.09 77.43 68.51 75.65 69.45 C 72.24 71.65 67.97 71.69 64.06 71.98 C 47.63 72.04 31.21 71.98 14.79 72.00 C 12.47 62.83 12.95 53.00 16.27 44.13 C 21.36 30.17 33.41 18.93 47.73 14.92 Z" />
<path fill="#ffffff" opacity="1.00" d=" M 45.37 56.34 C 49.26 53.42 54.38 53.62 59.00 53.29 C 75.14 53.19 91.28 53.30 107.42 53.23 C 109.33 65.57 106.06 78.60 98.54 88.57 C 90.41 99.65 77.23 106.79 63.52 107.62 C 43.13 109.14 22.94 95.74 16.18 76.49 C 30.78 76.50 45.39 76.53 60.00 76.47 C 66.11 76.09 72.76 76.57 78.18 73.19 C 81.82 71.02 81.40 65.17 77.54 63.45 C 70.54 60.00 62.46 60.28 54.90 59.09 C 51.73 58.39 47.88 58.72 45.37 56.34 Z" />
</g>
<g id="#231b00ff">
<path fill="#231b00" opacity="1.00" d=" M 50.49 9.72 C 64.26 6.96 79.16 10.00 90.57 18.24 C 101.71 26.04 109.49 38.46 111.61 51.89 C 113.73 64.61 110.98 78.10 103.82 88.85 C 96.39 100.16 84.36 108.40 71.06 111.00 C 56.45 114.05 40.57 110.45 28.85 101.17 C 17.95 92.76 10.70 79.82 9.29 66.12 C 7.79 52.95 11.54 39.22 19.73 28.77 C 27.22 18.97 38.38 12.06 50.49 9.72 M 47.73 14.92 C 33.41 18.93 21.36 30.17 16.27 44.13 C 12.95 53.00 12.47 62.83 14.79 72.00 C 31.21 71.98 47.63 72.04 64.06 71.98 C 67.97 71.69 72.24 71.65 75.65 69.45 C 77.43 68.51 75.31 67.09 74.29 66.76 C 64.58 63.27 53.75 64.84 44.14 61.07 C 40.43 59.70 40.41 54.41 43.40 52.30 C 47.28 49.48 52.35 49.31 56.97 49.02 C 73.50 48.96 90.02 49.04 106.55 48.98 C 103.82 38.40 97.46 28.77 88.60 22.33 C 77.11 13.70 61.53 10.88 47.73 14.92 M 45.37 56.34 C 47.88 58.72 51.73 58.39 54.90 59.09 C 62.46 60.28 70.54 60.00 77.54 63.45 C 81.40 65.17 81.82 71.02 78.18 73.19 C 72.76 76.57 66.11 76.09 60.00 76.47 C 45.39 76.53 30.78 76.50 16.18 76.49 C 22.94 95.74 43.13 109.14 63.52 107.62 C 77.23 106.79 90.41 99.65 98.54 88.57 C 106.06 78.60 109.33 65.57 107.42 53.23 C 91.28 53.30 75.14 53.19 59.00 53.29 C 54.38 53.62 49.26 53.42 45.37 56.34 Z" />
</g>
</svg>
