<?xml version="1.0" encoding="UTF-8" ?>
<!DOCTYPE svg PUBLIC "-//W3C//DTD SVG 1.1//EN" "http://www.w3.org/Graphics/SVG/1.1/DTD/svg11.dtd">
<svg width="48pt" height="48pt" viewBox="0 0 48 48" version="1.1" xmlns="http://www.w3.org/2000/svg">
<g id="#fea528ff">
<path fill="#fea528" opacity="1.00" d=" M 0.00 0.00 L 29.71 0.00 C 27.98 2.17 26.64 4.67 24.56 6.54 C 20.79 9.17 16.15 9.93 11.84 11.27 C 11.80 12.44 12.46 13.38 13.01 14.35 C 16.62 11.41 21.14 10.16 25.19 8.04 C 27.89 5.89 29.38 2.63 31.55 0.00 L 33.58 0.00 C 31.37 3.21 29.58 6.84 26.60 9.42 C 22.12 11.99 17.07 13.39 12.33 15.41 C 10.88 22.90 10.88 30.67 8.56 37.98 C 9.14 37.94 10.30 37.87 10.89 37.83 C 10.08 38.60 8.46 40.13 7.65 40.90 C 8.71 41.61 9.76 42.32 10.81 43.04 C 12.75 37.95 16.09 33.60 19.22 29.21 C 20.77 26.84 23.42 25.65 25.54 23.89 C 26.51 20.70 23.14 19.27 20.61 20.57 C 20.27 22.09 20.18 23.65 20.03 25.20 C 17.35 29.34 14.29 33.24 11.87 37.55 C 11.49 36.96 11.11 36.36 10.74 35.77 C 12.17 29.47 12.70 23.02 13.63 16.64 C 18.27 14.55 23.26 13.21 27.64 10.61 C 30.94 7.60 32.82 3.41 35.66 0.00 L 36.77 0.00 L 37.86 0.01 C 34.19 5.39 30.59 10.86 25.97 15.49 C 26.73 15.70 28.24 16.13 29.00 16.34 C 32.15 10.61 35.87 5.21 39.82 0.00 L 42.15 0.00 C 38.95 4.55 35.36 8.89 32.72 13.79 C 31.78 18.91 32.17 24.20 31.66 29.39 C 25.31 33.09 17.84 35.24 12.64 40.62 C 20.44 37.46 27.77 33.24 35.02 29.00 C 35.63 29.11 36.85 29.33 37.46 29.45 C 37.42 24.60 36.16 19.53 37.85 14.83 C 40.80 9.62 44.83 5.10 48.00 0.02 L 48.00 48.00 L 0.00 48.00 L 0.00 0.00 Z" />
<path fill="#fea528" opacity="1.00" d=" M 43.98 0.00 L 46.29 0.00 C 43.36 3.87 40.66 7.91 37.83 11.84 C 34.48 16.06 35.66 21.75 35.47 26.73 C 34.95 26.89 33.91 27.19 33.39 27.34 C 33.77 22.78 33.04 17.99 34.55 13.61 C 37.39 8.88 40.78 4.49 43.98 0.00 Z" />
</g>
<g id="#fffefbff">
<path fill="#fffefb" opacity="1.00" d=" M 29.71 0.00 L 31.55 0.00 C 29.38 2.63 27.89 5.89 25.19 8.04 C 21.14 10.16 16.62 11.41 13.01 14.35 C 12.46 13.38 11.80 12.44 11.84 11.27 C 16.15 9.93 20.79 9.17 24.56 6.54 C 26.64 4.67 27.98 2.17 29.71 0.00 Z" />
<path fill="#fffefb" opacity="1.00" d=" M 33.58 0.00 L 35.66 0.00 C 32.82 3.41 30.94 7.60 27.64 10.61 C 23.26 13.21 18.27 14.55 13.63 16.64 C 12.70 23.02 12.17 29.47 10.74 35.77 C 11.11 36.36 11.49 36.96 11.87 37.55 C 14.29 33.24 17.35 29.34 20.03 25.20 C 20.18 23.65 20.27 22.09 20.61 20.57 C 23.14 19.27 26.51 20.70 25.54 23.89 C 23.42 25.65 20.77 26.84 19.22 29.21 C 16.09 33.60 12.75 37.95 10.81 43.04 C 9.76 42.32 8.71 41.61 7.65 40.90 C 8.46 40.13 10.08 38.60 10.89 37.83 C 10.30 37.87 9.14 37.94 8.56 37.98 C 10.88 30.67 10.88 22.90 12.33 15.41 C 17.07 13.39 22.12 11.99 26.60 9.42 C 29.58 6.84 31.37 3.21 33.58 0.00 Z" />
<path fill="#fffefb" opacity="1.00" d=" M 36.77 0.00 L 39.82 0.00 C 35.87 5.21 32.15 10.61 29.00 16.34 C 28.24 16.13 26.73 15.70 25.97 15.49 C 30.59 10.86 34.19 5.39 37.86 0.01 L 36.77 0.00 Z" />
<path fill="#fffefb" opacity="1.00" d=" M 42.15 0.00 L 43.98 0.00 C 40.78 4.49 37.39 8.88 34.55 13.61 C 33.04 17.99 33.77 22.78 33.39 27.34 C 33.91 27.19 34.95 26.89 35.47 26.73 C 35.66 21.75 34.48 16.06 37.83 11.84 C 40.66 7.91 43.36 3.87 46.29 0.00 L 48.00 0.00 L 48.00 0.02 C 44.83 5.10 40.80 9.62 37.85 14.83 C 36.16 19.53 37.42 24.60 37.46 29.45 C 36.85 29.33 35.63 29.11 35.02 29.00 C 27.77 33.24 20.44 37.46 12.64 40.62 C 17.84 35.24 25.31 33.09 31.66 29.39 C 32.17 24.20 31.78 18.91 32.72 13.79 C 35.36 8.89 38.95 4.55 42.15 0.00 Z" />
</g>
</svg>
