<?xml version="1.0" encoding="UTF-8" ?>
<!DOCTYPE svg PUBLIC "-//W3C//DTD SVG 1.1//EN" "http://www.w3.org/Graphics/SVG/1.1/DTD/svg11.dtd">
<svg width="256pt" height="256pt" viewBox="0 0 256 256" version="1.1" xmlns="http://www.w3.org/2000/svg">
<g id="#e576c6ff">
<path fill="#e576c6" opacity="1.00" d=" M 124.46 0.00 L 131.54 0.00 C 160.09 0.81 188.29 11.35 210.12 29.81 C 238.02 52.88 255.13 88.26 256.00 124.45 L 256.00 131.55 C 255.19 160.11 244.63 188.33 226.15 210.16 C 203.09 238.04 167.72 255.13 131.56 256.00 L 124.47 256.00 C 95.91 255.19 67.70 244.65 45.87 226.18 C 17.97 203.11 0.87 167.73 0.00 131.54 L 0.00 124.44 C 0.88 89.22 17.04 54.74 43.69 31.68 C 65.84 12.13 94.94 0.79 124.46 0.00 M 110.07 57.53 C 98.71 59.78 87.39 64.99 80.23 74.38 C 72.62 84.01 70.53 97.21 73.05 109.04 C 74.85 117.44 80.25 124.91 87.65 129.28 C 100.00 136.74 114.65 138.37 128.62 140.57 C 136.11 141.92 144.13 142.97 150.41 147.65 C 156.83 152.49 156.89 162.84 151.75 168.64 C 147.05 173.82 139.73 175.48 133.00 175.85 C 123.82 176.26 113.66 174.89 106.73 168.29 C 102.06 164.04 100.00 157.69 99.76 151.51 C 90.07 151.51 80.39 151.48 70.70 151.53 C 70.79 162.85 74.61 174.28 82.38 182.66 C 92.92 194.17 108.78 199.21 124.02 200.00 C 139.87 200.77 156.76 198.35 169.91 188.85 C 178.94 182.50 184.82 172.06 185.77 161.09 C 186.94 150.07 184.21 137.90 175.74 130.23 C 165.78 121.06 151.95 118.34 139.06 116.01 C 128.82 114.07 117.76 113.81 108.62 108.29 C 102.57 104.65 101.05 96.22 104.27 90.20 C 107.55 84.14 114.61 81.39 121.12 80.60 C 129.87 79.60 139.74 80.34 146.74 86.25 C 151.83 90.40 154.04 97.07 153.99 103.48 C 163.39 103.51 172.79 103.51 182.19 103.47 C 182.05 96.77 180.96 90.00 178.15 83.87 C 173.39 72.97 163.67 64.73 152.66 60.54 C 139.16 55.38 124.18 54.94 110.07 57.53 Z" />
</g>
<g id="#ffffffff">
<path fill="#ffffff" opacity="1.00" d=" M 110.07 57.53 C 124.18 54.94 139.16 55.38 152.66 60.54 C 163.67 64.73 173.39 72.97 178.15 83.87 C 180.96 90.00 182.05 96.77 182.19 103.47 C 172.79 103.51 163.39 103.51 153.99 103.48 C 154.04 97.07 151.83 90.40 146.74 86.25 C 139.74 80.34 129.87 79.60 121.12 80.60 C 114.61 81.39 107.55 84.14 104.27 90.20 C 101.05 96.22 102.57 104.65 108.62 108.29 C 117.76 113.81 128.82 114.07 139.06 116.01 C 151.95 118.34 165.78 121.06 175.74 130.23 C 184.21 137.90 186.94 150.07 185.77 161.09 C 184.82 172.06 178.94 182.50 169.91 188.85 C 156.76 198.35 139.87 200.77 124.02 200.00 C 108.78 199.21 92.92 194.17 82.38 182.66 C 74.61 174.28 70.79 162.85 70.70 151.53 C 80.39 151.48 90.07 151.51 99.76 151.51 C 100.00 157.69 102.06 164.04 106.73 168.29 C 113.66 174.89 123.82 176.26 133.00 175.85 C 139.73 175.48 147.05 173.82 151.75 168.64 C 156.89 162.84 156.83 152.49 150.41 147.65 C 144.13 142.97 136.11 141.92 128.62 140.57 C 114.65 138.37 100.00 136.74 87.65 129.28 C 80.25 124.91 74.85 117.44 73.05 109.04 C 70.53 97.21 72.62 84.01 80.23 74.38 C 87.39 64.99 98.71 59.78 110.07 57.53 Z" />
</g>
</svg>
