<?xml version="1.0" encoding="UTF-8" ?>
<!DOCTYPE svg PUBLIC "-//W3C//DTD SVG 1.1//EN" "http://www.w3.org/Graphics/SVG/1.1/DTD/svg11.dtd">
<svg width="108pt" height="108pt" viewBox="0 0 108 108" version="1.1" xmlns="http://www.w3.org/2000/svg">
<g id="#ffffffff">
<path fill="#ffffff" opacity="1.00" d=" M 0.00 0.00 L 108.00 0.00 L 108.00 108.00 L 0.00 108.00 L 0.00 0.00 M 24.17 10.37 C 9.83 19.75 0.87 36.89 1.33 54.02 C 1.06 68.57 7.53 83.02 18.40 92.67 C 26.69 100.55 37.77 104.69 48.96 106.20 C 65.90 107.46 83.40 100.48 94.12 87.16 C 102.48 76.96 107.13 63.39 105.80 50.29 C 104.80 50.93 103.79 51.57 102.53 51.68 C 105.23 57.51 103.36 64.50 98.53 68.58 C 98.54 66.21 98.57 63.81 97.78 61.55 C 96.51 58.03 97.52 54.12 99.61 51.13 C 99.05 50.94 97.93 50.55 97.37 50.36 C 99.53 49.57 101.83 49.53 104.09 49.28 C 106.52 47.78 104.95 44.27 105.04 42.05 C 104.33 42.85 103.61 43.64 102.88 44.43 C 102.29 43.47 101.22 42.64 101.27 41.40 C 102.46 41.46 103.63 41.67 104.83 41.63 C 103.96 38.75 103.02 35.88 101.95 33.07 C 94.99 17.24 80.09 4.95 62.91 2.16 C 49.59 -0.12 35.29 2.52 24.17 10.37 Z" />
<path fill="#ffffff" opacity="1.00" d=" M 55.94 3.35 C 58.00 4.66 59.80 6.91 62.51 6.62 C 62.59 7.12 62.75 8.12 62.83 8.62 L 62.03 8.80 C 60.90 9.20 59.75 9.52 58.60 9.84 C 58.09 8.90 57.57 7.96 57.03 7.04 L 56.51 9.04 C 52.43 9.17 54.65 5.15 55.94 3.35 Z" />
<path fill="#ffffff" opacity="1.00" d=" M 41.16 10.61 C 42.91 8.76 44.89 7.18 47.01 5.77 L 47.61 7.60 C 48.43 7.15 49.24 6.70 50.05 6.24 C 50.78 6.27 52.25 6.34 52.99 6.38 C 52.90 6.89 52.74 7.91 52.66 8.42 C 52.05 8.65 50.85 9.11 50.25 9.34 C 50.64 11.00 53.63 10.15 54.96 10.43 C 55.91 10.74 56.86 11.06 57.81 11.40 C 54.01 10.95 50.22 11.71 46.42 11.55 C 47.02 11.34 48.23 10.93 48.83 10.72 C 48.46 9.13 46.51 9.32 45.20 9.20 C 45.44 9.78 45.93 10.94 46.17 11.52 C 44.50 11.22 42.83 10.92 41.16 10.61 Z" />
<path fill="#ffffff" opacity="1.00" d=" M 73.37 7.89 C 76.30 8.25 78.77 9.90 81.08 11.62 C 78.13 11.29 75.10 10.53 73.37 7.89 Z" />
<path fill="#ffffff" opacity="1.00" d=" M 63.02 9.40 C 63.87 8.63 66.91 8.84 65.70 10.50 C 64.43 12.15 59.51 10.92 63.02 9.40 Z" />
<path fill="#ffffff" opacity="1.00" d=" M 37.61 11.51 C 40.14 11.73 42.67 12.03 45.20 12.25 C 44.65 12.71 43.55 13.62 43.00 14.07 L 42.63 14.71 C 40.72 16.51 38.26 17.57 35.67 17.93 C 36.29 18.40 37.53 19.33 38.16 19.80 C 34.51 20.43 31.87 22.93 29.27 25.35 C 28.23 21.06 33.19 21.20 35.84 19.87 C 35.65 19.01 35.47 18.14 35.28 17.27 C 36.55 16.25 38.81 15.92 39.02 14.02 C 39.16 11.47 36.48 13.78 35.16 13.86 C 35.98 13.08 36.80 12.30 37.61 11.51 Z" />
<path fill="#ffffff" opacity="1.00" d=" M 61.87 12.49 C 64.17 11.94 66.53 11.78 68.87 11.60 C 67.55 12.80 67.11 14.32 67.47 16.06 C 67.25 15.38 66.82 14.02 66.60 13.33 C 65.84 14.36 64.99 15.29 64.05 16.14 C 64.53 16.78 65.49 18.07 65.98 18.72 C 65.29 18.68 63.91 18.60 63.23 18.56 C 63.30 17.27 63.50 16.00 63.67 14.73 C 62.15 15.10 60.64 15.48 59.16 15.97 C 59.86 15.22 60.35 14.36 60.61 13.38 C 61.72 16.15 64.07 13.83 65.86 13.13 C 64.86 12.97 62.87 12.65 61.87 12.49 Z" />
<path fill="#ffffff" opacity="1.00" d=" M 53.91 17.70 C 54.51 17.68 55.71 17.65 56.31 17.64 C 57.94 18.87 55.08 20.47 53.98 19.45 C 53.96 19.01 53.93 18.14 53.91 17.70 Z" />
<path fill="#ffffff" opacity="1.00" d=" M 49.75 18.62 C 50.81 18.56 51.87 18.49 52.94 18.43 C 52.98 18.75 53.07 19.38 53.11 19.70 C 52.14 19.51 51.17 19.33 50.19 19.15 C 48.20 24.24 46.00 29.25 44.45 34.50 C 42.23 33.50 39.06 33.50 37.87 31.01 C 39.14 30.53 40.42 30.07 41.70 29.62 C 41.65 28.94 41.56 27.57 41.52 26.89 C 44.14 24.02 46.77 21.13 49.75 18.62 Z" />
<path fill="#ffffff" opacity="1.00" d=" M 59.99 18.65 L 62.05 18.78 C 63.59 19.79 65.23 20.64 66.94 21.32 C 66.47 21.66 65.52 22.34 65.05 22.68 C 65.58 23.27 66.64 24.44 67.17 25.03 C 64.15 26.72 61.88 29.42 59.90 32.19 C 59.38 31.63 58.87 31.06 58.36 30.50 L 60.86 30.82 C 60.31 29.43 59.72 28.05 59.06 26.71 L 58.54 28.16 C 57.10 27.71 55.63 27.39 54.15 27.15 C 54.19 25.14 54.22 23.14 54.25 21.13 C 55.22 21.23 56.20 21.34 57.17 21.44 C 57.44 23.17 57.73 24.90 58.02 26.63 C 58.47 26.06 58.92 25.48 59.37 24.90 C 58.71 23.42 58.18 21.88 57.67 20.33 C 58.35 20.38 59.71 20.47 60.39 20.52 C 61.02 22.26 61.62 24.02 62.22 25.77 C 63.35 25.64 64.22 25.16 64.83 24.35 C 63.35 22.34 61.82 20.36 59.99 18.65 Z" />
<path fill="#ffffff" opacity="1.00" d=" M 50.18 22.31 C 50.64 21.78 51.56 20.74 52.02 20.21 C 52.36 20.86 53.03 22.16 53.36 22.81 C 53.47 25.97 53.33 29.58 50.43 31.54 C 49.19 33.24 45.91 34.15 46.48 36.58 C 47.18 36.57 48.58 36.56 49.28 36.55 C 49.38 37.00 49.60 37.90 49.70 38.35 C 47.92 38.22 47.22 39.40 46.98 40.97 C 46.13 41.59 44.42 42.83 43.57 43.45 C 44.03 40.55 43.96 37.54 41.98 35.17 C 41.83 36.05 41.53 37.80 41.38 38.68 C 40.73 38.65 39.43 38.57 38.77 38.53 C 38.54 39.14 38.06 40.36 37.82 40.96 C 38.55 40.80 40.02 40.47 40.75 40.30 C 40.79 41.92 40.43 43.41 39.66 44.78 C 39.94 45.76 40.50 47.72 40.78 48.70 C 39.04 48.33 37.33 47.86 35.61 47.41 C 35.40 48.06 34.97 49.35 34.76 50.00 C 32.99 49.47 31.25 48.83 29.49 48.26 C 29.47 47.69 29.44 46.54 29.42 45.97 C 29.77 45.44 30.49 44.39 30.84 43.87 C 32.86 40.42 34.57 36.77 36.91 33.52 C 38.71 32.76 40.53 34.71 42.29 35.18 C 42.60 35.20 43.21 35.23 43.51 35.24 C 43.66 36.12 43.96 37.88 44.12 38.76 C 46.50 33.42 47.45 27.53 50.18 22.31 Z" />
<path fill="#ffffff" opacity="1.00" d=" M 21.91 28.85 C 23.36 26.64 25.10 24.60 27.51 23.38 C 28.05 24.05 29.12 25.37 29.66 26.03 C 29.64 27.33 29.83 28.80 28.54 29.59 C 25.03 32.84 22.23 36.74 18.91 40.17 C 17.56 37.88 16.29 35.55 15.29 33.08 C 16.60 31.81 17.90 30.52 19.20 29.24 C 19.36 30.00 19.69 31.54 19.85 32.31 C 20.56 31.17 21.25 30.03 21.91 28.85 Z" />
<path fill="#ffffff" opacity="1.00" d=" M 32.06 28.12 C 33.02 27.19 33.99 26.27 34.95 25.34 C 37.13 25.37 39.30 25.36 41.47 25.46 C 40.73 26.11 39.23 27.41 38.49 28.06 C 38.41 28.67 38.25 29.89 38.17 30.51 C 35.68 31.54 33.84 29.51 32.06 28.12 Z" />
<path fill="#ffffff" opacity="1.00" d=" M 14.58 27.31 C 15.54 27.35 16.51 27.39 17.47 27.43 C 17.52 27.90 17.61 28.85 17.66 29.33 C 16.77 30.12 15.88 30.92 14.99 31.72 C 14.89 30.62 14.68 28.42 14.58 27.31 Z" />
<path fill="#ffffff" opacity="1.00" d=" M 10.65 28.74 C 11.38 28.34 12.83 27.54 13.56 27.14 C 13.67 29.02 13.79 30.90 13.91 32.79 C 12.67 34.23 11.41 35.66 10.18 37.11 C 8.77 39.25 7.39 41.41 5.90 43.50 C 4.79 38.04 6.98 32.71 10.65 28.74 Z" />
<path fill="#ffffff" opacity="1.00" d=" M 20.06 41.16 C 23.37 36.86 26.71 32.52 30.95 29.10 C 32.85 29.88 34.36 31.35 36.05 32.48 C 34.63 34.91 33.21 37.33 31.76 39.73 C 31.49 40.17 30.96 41.05 30.69 41.49 C 29.77 43.32 28.83 45.15 27.91 46.99 C 25.12 45.29 22.54 43.28 20.06 41.16 Z" />
<path fill="#ffffff" opacity="1.00" d=" M 7.34 44.01 C 8.99 40.22 11.85 37.17 14.37 33.96 C 15.50 36.49 16.82 38.94 18.51 41.15 C 15.91 45.14 13.64 49.37 12.03 53.87 C 11.53 53.74 10.52 53.48 10.01 53.35 C 9.66 52.77 8.97 51.62 8.62 51.04 C 7.54 48.89 6.48 46.44 7.34 44.01 Z" />
<path fill="#ffffff" opacity="1.00" d=" M 50.64 39.81 C 53.75 38.15 50.99 43.03 50.64 39.81 Z" />
<path fill="#ffffff" opacity="1.00" d=" M 3.46 49.72 C 3.39 46.94 3.90 44.20 4.84 41.59 C 5.51 44.43 5.14 47.32 3.46 49.72 Z" />
<path fill="#ffffff" opacity="1.00" d=" M 12.34 55.95 C 14.08 51.08 16.54 46.53 19.08 42.05 C 21.82 44.07 24.43 46.28 27.36 48.04 C 25.36 52.99 23.55 58.03 22.25 63.21 C 18.51 61.43 15.41 58.68 12.34 55.95 Z" />
<path fill="#ffffff" opacity="1.00" d=" M 64.22 49.03 C 64.32 48.22 64.51 46.59 64.61 45.78 C 64.67 46.34 64.79 47.47 64.84 48.04 C 65.44 49.11 66.03 50.18 66.60 51.27 C 64.02 51.20 61.46 51.51 58.94 52.02 C 59.48 50.45 60.06 48.89 60.65 47.33 C 61.83 47.92 63.01 48.50 64.22 49.03 Z" />
<path fill="#ffffff" opacity="1.00" d=" M 5.39 47.74 C 7.06 50.33 8.43 53.16 10.72 55.29 C 9.98 59.71 8.77 64.05 8.03 68.48 C 4.79 65.07 4.81 60.28 3.70 56.00 C 3.89 53.18 4.75 50.47 5.39 47.74 Z" />
<path fill="#ffffff" opacity="1.00" d=" M 41.04 52.08 C 42.89 50.54 45.36 48.84 47.72 50.49 C 48.91 51.30 49.43 49.68 50.04 49.01 C 51.21 50.39 52.43 51.74 53.44 53.24 C 52.87 52.88 51.73 52.15 51.16 51.79 C 49.90 52.56 48.48 52.90 47.00 52.75 C 46.92 52.39 46.76 51.67 46.68 51.31 C 45.01 52.58 42.99 52.41 41.04 52.08 Z" />
<path fill="#ffffff" opacity="1.00" d=" M 28.04 48.98 C 29.91 49.54 31.74 50.23 33.55 50.96 C 33.90 52.35 34.59 53.55 35.62 54.55 C 33.96 55.99 32.33 57.47 30.93 59.17 C 28.38 60.28 26.32 62.16 24.42 64.15 C 24.25 66.45 23.73 68.69 23.35 70.96 C 25.34 74.16 26.68 77.79 29.66 80.28 C 32.36 80.71 36.54 80.00 35.77 84.16 C 30.76 83.15 25.99 81.28 21.32 79.23 C 21.66 74.36 20.71 69.08 23.53 64.77 C 23.76 59.22 26.36 54.18 28.04 48.98 Z" />
<path fill="#ffffff" opacity="1.00" d=" M 40.52 52.93 C 43.84 53.51 47.16 54.11 50.53 54.35 L 50.67 55.27 C 49.92 55.34 48.42 55.49 47.66 55.56 C 48.45 55.95 49.25 56.33 50.05 56.68 C 50.71 55.89 52.02 54.31 52.68 53.51 C 52.82 56.40 52.81 59.30 52.80 62.19 C 50.78 61.07 48.74 59.91 46.50 59.28 C 47.90 58.40 46.92 56.87 46.38 55.77 C 44.35 55.49 42.29 55.49 40.24 55.40 C 40.31 54.78 40.45 53.55 40.52 52.93 Z" />
<path fill="#ffffff" opacity="1.00" d=" M 56.82 53.58 C 57.64 54.49 58.45 55.42 59.25 56.36 C 61.27 56.46 63.30 56.45 65.33 56.45 C 65.01 57.86 64.71 59.28 64.41 60.69 C 60.45 61.76 55.51 62.07 53.15 57.92 C 55.89 58.03 56.08 55.39 56.82 53.58 Z" />
<path fill="#ffffff" opacity="1.00" d=" M 81.12 60.13 C 83.89 61.58 85.80 59.22 87.81 57.62 C 88.29 57.92 89.25 58.52 89.73 58.83 C 89.73 59.23 89.74 60.05 89.74 60.46 C 88.15 61.42 86.56 62.39 84.97 63.35 C 84.92 62.84 84.82 61.82 84.78 61.31 C 83.44 61.30 82.11 61.26 80.79 61.19 C 80.14 61.83 79.49 62.47 78.84 63.11 C 77.29 61.97 75.76 60.78 74.46 59.35 C 76.65 59.79 78.88 61.29 81.12 60.13 Z" />
<path fill="#ffffff" opacity="1.00" d=" M 11.53 57.47 L 12.79 57.58 C 15.10 60.50 18.35 62.41 21.57 64.17 C 21.54 64.89 21.48 66.34 21.45 67.07 C 19.91 70.36 20.55 74.09 20.53 77.60 C 19.91 77.53 18.67 77.39 18.05 77.32 C 15.14 74.97 12.16 72.71 9.39 70.20 C 9.45 68.50 9.52 66.80 9.61 65.11 C 10.41 63.28 10.59 61.28 10.65 59.31 L 11.57 59.57 C 11.56 59.04 11.54 57.99 11.53 57.47 Z" />
<path fill="#ffffff" opacity="1.00" d=" M 85.37 64.51 C 87.69 63.05 90.00 61.57 92.26 60.01 C 94.00 63.53 98.11 65.88 97.79 70.19 C 95.11 72.82 92.07 75.03 89.11 77.33 C 88.60 77.45 87.58 77.69 87.07 77.80 C 87.13 76.82 87.25 74.85 87.31 73.87 C 86.92 73.82 86.15 73.73 85.76 73.69 C 85.94 75.48 86.11 77.27 86.26 79.06 C 82.64 80.70 78.93 82.16 75.11 83.26 C 77.88 80.51 79.90 76.99 79.89 72.98 C 78.16 74.07 76.45 75.19 74.78 76.37 C 72.81 75.09 71.13 73.46 70.10 71.33 C 69.79 71.36 69.16 71.44 68.85 71.47 C 68.73 70.91 68.50 69.79 68.39 69.23 C 66.52 67.65 65.33 65.51 64.43 63.27 C 66.68 65.16 69.58 67.12 69.43 70.44 C 71.63 71.08 72.95 72.92 73.96 74.86 C 78.75 73.05 81.43 68.59 84.44 64.77 C 84.23 67.12 86.86 70.35 84.57 72.14 C 85.47 72.01 86.37 71.90 87.27 71.80 C 86.26 69.48 85.89 66.97 85.37 64.51 Z" />
<path fill="#ffffff" opacity="1.00" d=" M 98.60 70.69 C 99.73 69.41 100.86 68.14 102.05 66.91 C 101.74 69.08 101.16 71.20 100.38 73.24 C 99.69 74.55 99.04 75.89 98.35 77.20 C 98.37 75.03 98.47 72.86 98.60 70.69 Z" />
<path fill="#ffffff" opacity="1.00" d=" M 87.54 79.59 C 90.99 77.23 94.48 74.92 97.53 72.03 C 97.39 73.74 97.26 75.46 97.15 77.17 C 96.01 83.21 90.75 86.72 86.08 89.99 C 86.64 86.54 86.75 83.00 87.54 79.59 Z" />
<path fill="#ffffff" opacity="1.00" d=" M 9.75 72.20 C 13.86 76.13 19.68 78.29 22.07 83.78 L 20.83 80.43 C 25.62 82.32 30.52 83.91 35.45 85.42 C 35.48 88.84 35.74 92.25 36.17 95.65 C 31.79 94.32 27.21 93.23 23.26 90.84 C 22.11 88.87 21.45 86.46 21.90 84.17 C 21.14 85.69 19.08 87.26 21.76 88.91 C 17.42 88.51 14.15 84.84 11.66 81.58 C 11.59 78.33 11.28 75.16 9.75 72.20 Z" />
<path fill="#ffffff" opacity="1.00" d=" M 36.75 80.46 C 39.11 81.51 41.37 82.78 43.78 83.70 C 43.94 83.95 44.27 84.44 44.44 84.69 C 44.28 85.06 43.97 85.81 43.81 86.18 C 43.57 89.11 47.74 90.17 47.45 93.18 C 47.16 94.66 46.52 96.05 46.06 97.49 C 45.30 97.46 43.76 97.40 42.99 97.38 C 41.25 96.67 39.38 96.36 37.53 96.11 C 37.22 94.44 36.91 92.77 36.61 91.10 C 36.55 89.48 36.51 87.86 36.45 86.25 C 38.23 86.19 40.17 86.72 41.82 85.85 C 41.80 85.69 41.76 85.36 41.73 85.20 C 40.99 85.21 39.50 85.23 38.76 85.25 C 38.18 84.93 37.03 84.30 36.45 83.99 C 36.52 83.11 36.67 81.35 36.75 80.46 Z" />
<path fill="#ffffff" opacity="1.00" d=" M 71.61 86.49 C 75.91 83.30 81.52 82.84 86.18 80.27 C 86.06 83.88 85.43 87.44 84.35 90.88 C 82.36 91.75 80.37 92.62 78.38 93.47 C 78.47 92.38 78.53 91.29 78.56 90.20 C 76.14 92.10 73.86 94.18 71.37 96.01 C 71.44 92.83 71.66 89.67 71.61 86.49 Z" />
<path fill="#ffffff" opacity="1.00" d=" M 17.84 89.98 C 20.29 89.90 21.82 91.73 23.36 93.24 C 26.48 93.26 29.29 94.72 32.16 95.75 C 33.52 96.15 34.90 96.48 36.28 96.80 C 36.90 98.56 37.51 100.32 38.12 102.09 C 33.76 100.31 29.12 98.73 25.63 95.42 C 23.32 93.21 20.23 92.10 17.84 89.98 Z" />
<path fill="#ffffff" opacity="1.00" d=" M 85.30 92.57 C 85.12 91.20 85.74 90.62 87.17 90.83 C 87.34 92.17 86.71 92.75 85.30 92.57 Z" />
<path fill="#ffffff" opacity="1.00" d=" M 74.49 97.40 C 76.93 94.97 80.12 93.56 83.45 92.83 C 80.53 98.10 74.35 99.93 69.10 101.97 C 69.64 100.10 70.28 98.28 70.84 96.42 C 71.98 96.63 73.41 98.69 74.49 97.40 Z" />
<path fill="#ffffff" opacity="1.00" d=" M 37.70 97.74 C 38.69 97.65 40.68 97.47 41.67 97.37 L 41.52 98.38 C 43.74 98.49 45.96 98.61 48.18 98.68 C 48.66 99.71 49.14 100.75 49.62 101.79 C 50.72 102.39 51.83 102.99 52.93 103.60 C 48.70 103.89 44.35 103.67 40.32 102.32 C 38.84 101.22 38.40 99.34 37.70 97.74 Z" />
<path fill="#ffffff" opacity="1.00" d=" M 63.16 101.19 C 65.28 99.75 66.88 97.28 69.72 97.34 C 68.76 99.05 68.10 101.01 66.72 102.44 C 62.60 103.75 58.23 103.58 53.97 103.67 C 57.08 103.17 60.55 103.23 63.16 101.19 Z" />
</g>
<g id="#231f20ff">
<path fill="#231f20" opacity="1.00" d=" M 24.17 10.37 C 35.29 2.52 49.59 -0.12 62.91 2.16 C 80.09 4.95 94.99 17.24 101.95 33.07 C 103.02 35.88 103.96 38.75 104.83 41.63 C 103.63 41.67 102.46 41.46 101.27 41.40 C 101.22 42.64 102.29 43.47 102.88 44.43 C 103.61 43.64 104.33 42.85 105.04 42.05 C 104.95 44.27 106.52 47.78 104.09 49.28 C 101.83 49.53 99.53 49.57 97.37 50.36 C 97.93 50.55 99.05 50.94 99.61 51.13 C 97.52 54.12 96.51 58.03 97.78 61.55 C 98.57 63.81 98.54 66.21 98.53 68.58 C 103.36 64.50 105.23 57.51 102.53 51.68 C 103.79 51.57 104.80 50.93 105.80 50.29 C 107.13 63.39 102.48 76.96 94.12 87.16 C 83.40 100.48 65.90 107.46 48.96 106.20 C 37.77 104.69 26.69 100.55 18.40 92.67 C 7.53 83.02 1.06 68.57 1.33 54.02 C 0.87 36.89 9.83 19.75 24.17 10.37 M 55.94 3.35 C 54.65 5.15 52.43 9.17 56.51 9.04 L 57.03 7.04 C 57.57 7.96 58.09 8.90 58.60 9.84 C 59.75 9.52 60.90 9.20 62.03 8.80 L 62.83 8.62 C 62.75 8.12 62.59 7.12 62.51 6.62 C 59.80 6.91 58.00 4.66 55.94 3.35 M 41.16 10.61 C 42.83 10.92 44.50 11.22 46.17 11.52 C 45.93 10.94 45.44 9.78 45.20 9.20 C 46.51 9.32 48.46 9.13 48.83 10.72 C 48.23 10.93 47.02 11.34 46.42 11.55 C 50.22 11.71 54.01 10.95 57.81 11.40 C 56.86 11.06 55.91 10.74 54.96 10.43 C 53.63 10.15 50.64 11.00 50.25 9.34 C 50.85 9.11 52.05 8.65 52.66 8.42 C 52.74 7.91 52.90 6.89 52.99 6.38 C 52.25 6.34 50.78 6.27 50.05 6.24 C 49.24 6.70 48.43 7.15 47.61 7.60 L 47.01 5.77 C 44.89 7.18 42.91 8.76 41.16 10.61 M 73.37 7.89 C 75.10 10.53 78.13 11.29 81.08 11.62 C 78.77 9.90 76.30 8.25 73.37 7.89 M 63.02 9.40 C 59.51 10.92 64.43 12.15 65.70 10.50 C 66.91 8.84 63.87 8.63 63.02 9.40 M 37.61 11.51 C 36.80 12.30 35.98 13.08 35.16 13.86 C 36.48 13.78 39.16 11.47 39.02 14.02 C 38.81 15.92 36.55 16.25 35.28 17.27 C 35.47 18.14 35.65 19.01 35.84 19.87 C 33.19 21.20 28.23 21.06 29.27 25.35 C 31.87 22.93 34.51 20.43 38.16 19.80 C 37.53 19.33 36.29 18.40 35.67 17.93 C 38.26 17.57 40.72 16.51 42.63 14.71 L 43.00 14.07 C 43.55 13.62 44.65 12.71 45.20 12.25 C 42.67 12.03 40.14 11.73 37.61 11.51 M 61.87 12.49 C 62.87 12.65 64.86 12.97 65.86 13.13 C 64.07 13.83 61.72 16.15 60.61 13.38 C 60.35 14.36 59.86 15.22 59.16 15.97 C 60.64 15.48 62.15 15.10 63.67 14.73 C 63.50 16.00 63.30 17.27 63.23 18.56 C 63.91 18.60 65.29 18.68 65.98 18.72 C 65.49 18.07 64.53 16.78 64.05 16.14 C 64.99 15.29 65.84 14.36 66.60 13.33 C 66.82 14.02 67.25 15.38 67.47 16.06 C 67.11 14.32 67.55 12.80 68.87 11.60 C 66.53 11.78 64.17 11.94 61.87 12.49 M 53.91 17.70 C 53.93 18.14 53.96 19.01 53.98 19.45 C 55.08 20.47 57.94 18.87 56.31 17.64 C 55.71 17.65 54.51 17.68 53.91 17.70 M 49.75 18.62 C 46.77 21.13 44.14 24.02 41.52 26.89 C 41.56 27.57 41.65 28.94 41.70 29.62 C 40.42 30.07 39.14 30.53 37.87 31.01 C 39.06 33.50 42.23 33.50 44.45 34.50 C 46.00 29.25 48.20 24.24 50.19 19.15 C 51.17 19.33 52.14 19.51 53.11 19.70 C 53.07 19.38 52.98 18.75 52.94 18.43 C 51.87 18.49 50.81 18.56 49.75 18.62 M 59.99 18.65 C 61.82 20.36 63.35 22.34 64.83 24.35 C 64.22 25.16 63.35 25.64 62.22 25.77 C 61.62 24.02 61.02 22.26 60.39 20.52 C 59.71 20.47 58.35 20.38 57.67 20.33 C 58.18 21.88 58.71 23.42 59.37 24.90 C 58.92 25.48 58.47 26.06 58.02 26.63 C 57.73 24.90 57.44 23.17 57.17 21.44 C 56.20 21.34 55.22 21.23 54.25 21.13 C 54.22 23.14 54.19 25.14 54.15 27.15 C 55.63 27.39 57.10 27.71 58.54 28.16 L 59.06 26.71 C 59.72 28.05 60.31 29.43 60.86 30.82 L 58.36 30.50 C 58.87 31.06 59.38 31.63 59.90 32.19 C 61.88 29.42 64.15 26.72 67.17 25.03 C 66.64 24.44 65.58 23.27 65.05 22.68 C 65.52 22.34 66.47 21.66 66.94 21.32 C 65.23 20.64 63.59 19.79 62.05 18.78 L 59.99 18.65 M 50.18 22.31 C 47.45 27.53 46.50 33.42 44.12 38.76 C 43.96 37.88 43.66 36.12 43.51 35.24 C 43.21 35.23 42.60 35.20 42.29 35.18 C 40.53 34.71 38.71 32.76 36.91 33.52 C 34.57 36.77 32.86 40.42 30.84 43.87 C 30.49 44.39 29.77 45.44 29.42 45.97 C 29.44 46.54 29.47 47.69 29.49 48.26 C 31.25 48.83 32.99 49.47 34.76 50.00 C 34.97 49.35 35.40 48.06 35.61 47.41 C 37.33 47.86 39.04 48.33 40.78 48.70 C 40.50 47.72 39.94 45.76 39.66 44.78 C 40.43 43.41 40.79 41.92 40.75 40.30 C 40.02 40.47 38.55 40.80 37.82 40.96 C 38.06 40.36 38.54 39.14 38.77 38.53 C 39.43 38.57 40.73 38.65 41.38 38.68 C 41.53 37.80 41.83 36.05 41.98 35.17 C 43.96 37.54 44.03 40.55 43.57 43.45 C 44.42 42.83 46.13 41.59 46.98 40.97 C 47.22 39.40 47.92 38.22 49.70 38.35 C 49.60 37.90 49.38 37.00 49.28 36.55 C 48.58 36.56 47.18 36.57 46.48 36.58 C 45.91 34.15 49.19 33.24 50.43 31.54 C 53.33 29.58 53.47 25.97 53.36 22.81 C 53.03 22.16 52.36 20.86 52.02 20.21 C 51.56 20.74 50.64 21.78 50.18 22.31 M 21.91 28.85 C 21.25 30.03 20.56 31.17 19.85 32.31 C 19.69 31.54 19.36 30.00 19.20 29.24 C 17.90 30.52 16.60 31.81 15.29 33.08 C 16.29 35.55 17.56 37.88 18.91 40.17 C 22.23 36.74 25.03 32.84 28.54 29.59 C 29.83 28.80 29.64 27.33 29.66 26.03 C 29.12 25.37 28.05 24.05 27.51 23.38 C 25.10 24.60 23.36 26.64 21.91 28.85 M 32.06 28.12 C 33.84 29.51 35.68 31.54 38.17 30.51 C 38.25 29.89 38.41 28.67 38.49 28.06 C 39.23 27.41 40.73 26.11 41.47 25.46 C 39.30 25.36 37.13 25.37 34.95 25.34 C 33.99 26.27 33.02 27.19 32.06 28.12 M 14.58 27.31 C 14.68 28.42 14.89 30.62 14.99 31.72 C 15.88 30.92 16.77 30.12 17.66 29.33 C 17.61 28.85 17.52 27.90 17.47 27.43 C 16.51 27.39 15.54 27.35 14.58 27.31 M 10.65 28.74 C 6.98 32.71 4.79 38.04 5.90 43.50 C 7.39 41.41 8.77 39.25 10.18 37.11 C 11.41 35.66 12.67 34.23 13.91 32.79 C 13.79 30.90 13.67 29.02 13.56 27.14 C 12.83 27.54 11.38 28.34 10.65 28.74 M 20.06 41.16 C 22.54 43.28 25.12 45.29 27.91 46.99 C 28.83 45.15 29.77 43.32 30.69 41.49 C 30.96 41.05 31.49 40.17 31.76 39.73 C 33.21 37.33 34.63 34.91 36.05 32.48 C 34.36 31.35 32.85 29.88 30.95 29.10 C 26.71 32.52 23.37 36.86 20.06 41.16 M 7.34 44.01 C 6.48 46.44 7.54 48.89 8.62 51.04 C 8.97 51.62 9.66 52.77 10.01 53.35 C 10.52 53.48 11.53 53.74 12.03 53.87 C 13.64 49.37 15.91 45.14 18.51 41.15 C 16.82 38.94 15.50 36.49 14.37 33.96 C 11.85 37.17 8.99 40.22 7.34 44.01 M 50.64 39.81 C 50.99 43.03 53.75 38.15 50.64 39.81 M 3.46 49.72 C 5.14 47.32 5.51 44.43 4.84 41.59 C 3.90 44.20 3.39 46.94 3.46 49.72 M 12.34 55.95 C 15.41 58.68 18.51 61.43 22.25 63.21 C 23.55 58.03 25.36 52.99 27.36 48.04 C 24.43 46.28 21.82 44.07 19.08 42.05 C 16.54 46.53 14.08 51.08 12.34 55.95 M 64.22 49.03 C 63.01 48.50 61.83 47.92 60.65 47.33 C 60.06 48.89 59.48 50.45 58.94 52.02 C 61.46 51.51 64.02 51.20 66.60 51.27 C 66.03 50.18 65.44 49.11 64.84 48.04 C 64.79 47.47 64.67 46.34 64.61 45.78 C 64.51 46.59 64.32 48.22 64.22 49.03 M 5.39 47.74 C 4.75 50.47 3.89 53.18 3.70 56.00 C 4.81 60.28 4.79 65.07 8.03 68.48 C 8.77 64.05 9.98 59.71 10.72 55.29 C 8.43 53.16 7.06 50.33 5.39 47.74 M 41.04 52.08 C 42.99 52.41 45.01 52.58 46.68 51.31 C 46.76 51.67 46.92 52.39 47.00 52.75 C 48.48 52.90 49.90 52.56 51.16 51.79 C 51.73 52.15 52.87 52.88 53.44 53.24 C 52.43 51.74 51.21 50.39 50.04 49.01 C 49.43 49.68 48.91 51.30 47.72 50.49 C 45.36 48.84 42.89 50.54 41.04 52.08 M 28.04 48.98 C 26.36 54.18 23.76 59.22 23.53 64.77 C 20.71 69.08 21.66 74.36 21.32 79.23 C 25.99 81.28 30.76 83.15 35.77 84.16 C 36.54 80.00 32.36 80.71 29.66 80.28 C 26.68 77.79 25.34 74.16 23.35 70.96 C 23.73 68.69 24.25 66.45 24.42 64.15 C 26.32 62.16 28.38 60.28 30.93 59.17 C 32.33 57.47 33.96 55.99 35.62 54.55 C 34.59 53.55 33.90 52.35 33.55 50.96 C 31.74 50.23 29.91 49.54 28.04 48.98 M 40.52 52.93 C 40.45 53.55 40.31 54.78 40.24 55.40 C 42.29 55.49 44.35 55.49 46.38 55.77 C 46.92 56.87 47.90 58.40 46.50 59.28 C 48.74 59.91 50.78 61.07 52.80 62.19 C 52.81 59.30 52.82 56.40 52.68 53.51 C 52.02 54.31 50.71 55.89 50.05 56.68 C 49.25 56.33 48.45 55.95 47.66 55.56 C 48.42 55.49 49.92 55.34 50.67 55.27 L 50.53 54.35 C 47.16 54.11 43.84 53.51 40.52 52.93 M 56.82 53.58 C 56.08 55.39 55.89 58.03 53.15 57.92 C 55.51 62.07 60.45 61.76 64.41 60.69 C 64.71 59.28 65.01 57.86 65.33 56.45 C 63.30 56.45 61.27 56.46 59.25 56.36 C 58.45 55.42 57.64 54.49 56.82 53.58 M 81.12 60.13 C 78.88 61.29 76.65 59.79 74.46 59.35 C 75.76 60.78 77.29 61.97 78.84 63.11 C 79.49 62.47 80.14 61.83 80.79 61.19 C 82.11 61.26 83.44 61.30 84.78 61.31 C 84.82 61.82 84.92 62.84 84.97 63.35 C 86.56 62.39 88.15 61.42 89.74 60.46 C 89.74 60.05 89.73 59.23 89.73 58.83 C 89.25 58.52 88.29 57.92 87.81 57.62 C 85.80 59.22 83.89 61.58 81.12 60.13 M 11.53 57.47 C 11.54 57.99 11.56 59.04 11.57 59.57 L 10.65 59.31 C 10.59 61.28 10.41 63.28 9.61 65.11 C 9.52 66.80 9.45 68.50 9.39 70.20 C 12.16 72.71 15.14 74.97 18.05 77.32 C 18.67 77.39 19.91 77.53 20.53 77.60 C 20.55 74.09 19.91 70.36 21.45 67.07 C 21.48 66.34 21.54 64.89 21.57 64.17 C 18.35 62.41 15.10 60.50 12.79 57.58 L 11.53 57.47 M 85.37 64.51 C 85.89 66.97 86.26 69.48 87.27 71.80 C 86.37 71.90 85.47 72.01 84.57 72.14 C 86.86 70.35 84.23 67.12 84.44 64.77 C 81.43 68.59 78.75 73.05 73.96 74.86 C 72.95 72.92 71.63 71.08 69.43 70.44 C 69.58 67.12 66.68 65.16 64.43 63.27 C 65.33 65.51 66.52 67.65 68.39 69.23 C 68.50 69.79 68.73 70.91 68.85 71.47 C 69.16 71.44 69.79 71.36 70.10 71.33 C 71.13 73.46 72.81 75.09 74.78 76.37 C 76.45 75.19 78.16 74.07 79.89 72.98 C 79.90 76.99 77.88 80.51 75.11 83.26 C 78.93 82.16 82.64 80.70 86.26 79.06 C 86.11 77.27 85.94 75.48 85.76 73.69 C 86.15 73.73 86.92 73.82 87.31 73.87 C 87.25 74.85 87.13 76.82 87.07 77.80 C 87.58 77.69 88.60 77.45 89.11 77.33 C 92.07 75.03 95.11 72.82 97.79 70.19 C 98.11 65.88 94.00 63.53 92.26 60.01 C 90.00 61.57 87.69 63.05 85.37 64.51 M 98.60 70.69 C 98.47 72.86 98.37 75.03 98.35 77.20 C 99.04 75.89 99.69 74.55 100.38 73.24 C 101.16 71.20 101.74 69.08 102.05 66.91 C 100.86 68.14 99.73 69.41 98.60 70.69 M 87.54 79.59 C 86.75 83.00 86.64 86.54 86.08 89.99 C 90.75 86.72 96.01 83.21 97.15 77.17 C 97.26 75.46 97.39 73.74 97.53 72.03 C 94.48 74.92 90.99 77.23 87.54 79.59 M 9.75 72.20 C 11.28 75.16 11.59 78.33 11.66 81.58 C 14.15 84.84 17.42 88.51 21.76 88.91 C 19.08 87.26 21.14 85.69 21.90 84.17 C 21.45 86.46 22.11 88.87 23.26 90.84 C 27.21 93.23 31.79 94.32 36.17 95.65 C 35.74 92.25 35.48 88.84 35.45 85.42 C 30.52 83.91 25.62 82.32 20.83 80.43 L 22.07 83.78 C 19.68 78.29 13.86 76.13 9.75 72.20 M 36.75 80.46 C 36.67 81.35 36.52 83.11 36.45 83.99 C 37.03 84.30 38.18 84.93 38.76 85.25 C 39.50 85.23 40.99 85.21 41.73 85.20 C 41.76 85.36 41.80 85.69 41.82 85.85 C 40.17 86.72 38.23 86.19 36.45 86.25 C 36.51 87.86 36.55 89.48 36.61 91.10 C 36.91 92.77 37.22 94.44 37.53 96.11 C 39.38 96.36 41.25 96.67 42.99 97.38 C 43.76 97.40 45.30 97.46 46.06 97.49 C 46.52 96.05 47.16 94.66 47.45 93.18 C 47.74 90.17 43.57 89.11 43.81 86.18 C 43.97 85.81 44.28 85.06 44.44 84.69 C 44.27 84.44 43.94 83.95 43.78 83.70 C 41.37 82.78 39.11 81.51 36.75 80.46 M 71.61 86.49 C 71.66 89.67 71.44 92.83 71.37 96.01 C 73.86 94.18 76.14 92.10 78.56 90.20 C 78.53 91.29 78.47 92.38 78.38 93.47 C 80.37 92.62 82.36 91.75 84.35 90.88 C 85.43 87.44 86.06 83.88 86.18 80.27 C 81.52 82.84 75.91 83.30 71.61 86.49 M 17.84 89.98 C 20.23 92.10 23.32 93.21 25.63 95.42 C 29.12 98.73 33.76 100.31 38.12 102.09 C 37.51 100.32 36.90 98.56 36.28 96.80 C 34.90 96.48 33.52 96.15 32.16 95.75 C 29.29 94.72 26.48 93.26 23.36 93.24 C 21.82 91.73 20.29 89.90 17.84 89.98 M 85.30 92.57 C 86.71 92.75 87.34 92.17 87.17 90.83 C 85.74 90.62 85.12 91.20 85.30 92.57 M 74.49 97.40 C 73.41 98.69 71.98 96.63 70.84 96.42 C 70.28 98.28 69.64 100.10 69.10 101.97 C 74.35 99.93 80.53 98.10 83.45 92.83 C 80.12 93.56 76.93 94.97 74.49 97.40 M 37.70 97.74 C 38.40 99.34 38.84 101.22 40.32 102.32 C 44.35 103.67 48.70 103.89 52.93 103.60 C 51.83 102.99 50.72 102.39 49.62 101.79 C 49.14 100.75 48.66 99.71 48.18 98.68 C 45.96 98.61 43.74 98.49 41.52 98.38 L 41.67 97.37 C 40.68 97.47 38.69 97.65 37.70 97.74 M 63.16 101.19 C 60.55 103.23 57.08 103.17 53.97 103.67 C 58.23 103.58 62.60 103.75 66.72 102.44 C 68.10 101.01 68.76 99.05 69.72 97.34 C 66.88 97.28 65.28 99.75 63.16 101.19 Z" />
</g>
</svg>
