<?xml version="1.0" encoding="UTF-8" ?>
<!DOCTYPE svg PUBLIC "-//W3C//DTD SVG 1.1//EN" "http://www.w3.org/Graphics/SVG/1.1/DTD/svg11.dtd">
<svg width="16pt" height="16pt" viewBox="0 0 16 16" version="1.1" xmlns="http://www.w3.org/2000/svg">
<g id="#49080b8b">
<path fill="#49080b" opacity="0.55" d=" M 13.29 0.00 L 15.70 0.00 C 15.77 0.07 15.92 0.22 16.00 0.29 L 16.00 3.74 L 15.56 4.45 C 14.84 2.90 13.89 1.47 12.53 0.41 L 13.29 0.00 Z" />
</g>
<g id="#c985a4ff">
<path fill="#c985a4" opacity="1.00" d=" M 10.93 1.61 C 11.33 1.31 12.13 0.71 12.53 0.41 C 13.89 1.47 14.84 2.90 15.56 4.45 L 14.76 5.19 C 14.30 4.87 13.40 4.23 12.95 3.91 C 12.26 3.15 11.59 2.39 10.93 1.61 Z" />
</g>
<g id="#7e350ebb">
<path fill="#7e350e" opacity="0.73" d=" M 5.60 5.85 C 7.42 4.49 9.15 3.03 10.93 1.61 C 9.42 3.78 7.73 5.80 6.08 7.86 C 5.96 7.36 5.72 6.35 5.60 5.85 Z" />
</g>
<g id="#f1e5bbff">
<path fill="#f1e5bb" opacity="1.00" d=" M 10.93 1.61 C 11.59 2.39 12.26 3.15 12.95 3.91 C 11.01 4.95 9.28 6.30 7.56 7.66 C 8.28 8.56 9.01 9.46 9.74 10.36 C 9.44 10.66 8.83 11.28 8.53 11.59 C 7.06 9.94 5.72 8.18 4.55 6.31 L 5.60 5.85 C 5.72 6.35 5.96 7.36 6.08 7.86 C 7.73 5.80 9.42 3.78 10.93 1.61 Z" />
</g>
<g id="#efaa13ff">
<path fill="#efaa13" opacity="1.00" d=" M 7.56 7.66 C 9.28 6.30 11.01 4.95 12.95 3.91 C 13.40 4.23 14.30 4.87 14.76 5.19 C 13.42 6.44 12.09 7.72 10.88 9.10 C 10.60 9.41 10.02 10.04 9.74 10.36 C 9.01 9.46 8.28 8.56 7.56 7.66 Z" />
</g>
<g id="#675858eb">
<path fill="#675858" opacity="0.92" d=" M 2.46 7.16 C 2.98 6.95 4.03 6.53 4.55 6.31 C 5.72 8.18 7.06 9.94 8.53 11.59 C 8.83 11.28 9.44 10.66 9.74 10.36 C 10.02 10.04 10.60 9.41 10.88 9.10 C 10.30 10.54 9.77 12.00 9.18 13.44 C 6.81 11.49 4.65 9.30 2.46 7.16 Z" />
</g>
<g id="#000000db">
<path fill="#000000" opacity="0.86" d=" M 0.78 10.11 C 0.38 8.85 0.72 7.95 1.80 7.42 C 2.99 8.50 2.83 10.76 0.78 10.11 Z" />
</g>
<g id="#e2e1e1ff">
<path fill="#e2e1e1" opacity="1.00" d=" M 1.80 7.42 L 2.46 7.16 C 4.65 9.30 6.81 11.49 9.18 13.44 L 8.74 13.88 C 6.63 14.37 4.43 14.54 2.34 13.84 C 2.14 13.56 1.75 13.00 1.56 12.72 C 4.11 12.97 2.83 9.69 0.96 11.18 L 0.78 10.11 C 2.83 10.76 2.99 8.50 1.80 7.42 Z" />
</g>
<g id="#767577ff">
<path fill="#767577" opacity="1.00" d=" M 0.96 11.18 C 2.83 9.69 4.11 12.97 1.56 12.72 C 1.41 12.33 1.11 11.57 0.96 11.18 Z" />
</g>
<g id="#1f1e1fcb">
<path fill="#1f1e1f" opacity="0.80" d=" M 2.34 13.84 C 4.43 14.54 6.63 14.37 8.74 13.88 C 8.02 14.60 7.29 15.31 6.54 16.00 L 3.99 16.00 C 3.44 15.28 2.89 14.57 2.34 13.84 Z" />
</g>
</svg>
