<?xml version="1.0" encoding="UTF-8" ?>
<!DOCTYPE svg PUBLIC "-//W3C//DTD SVG 1.1//EN" "http://www.w3.org/Graphics/SVG/1.1/DTD/svg11.dtd">
<svg width="32pt" height="32pt" viewBox="0 0 32 32" version="1.1" xmlns="http://www.w3.org/2000/svg">
<g id="#10ac6bff">
<path fill="#10ac6b" opacity="1.00" d=" M 0.00 0.00 L 24.49 0.00 C 20.85 4.00 15.34 5.60 11.78 9.72 C 8.88 10.27 5.29 9.13 2.75 10.87 C 1.75 12.32 0.89 13.86 0.00 15.38 L 0.00 0.00 Z" />
</g>
<g id="#30bf70ff">
<path fill="#30bf70" opacity="1.00" d=" M 24.49 0.00 L 32.00 0.00 L 32.00 16.72 C 30.97 17.48 29.93 18.22 28.91 18.99 C 24.82 19.41 19.78 20.34 20.83 15.06 C 24.88 15.30 30.64 16.53 29.00 11.01 C 29.70 8.53 21.35 9.37 21.07 11.01 C 20.96 12.36 20.89 13.71 20.83 15.06 C 19.25 15.01 17.67 14.95 16.09 14.89 C 16.06 13.62 16.01 12.35 15.93 11.07 C 16.05 9.13 12.98 10.28 11.78 9.72 C 15.34 5.60 20.85 4.00 24.49 0.00 Z" />
</g>
<g id="#83d5b0ff">
<path fill="#83d5b0" opacity="1.00" d=" M 2.75 10.87 C 5.29 9.13 8.88 10.27 11.78 9.72 C 12.98 10.28 16.05 9.13 15.93 11.07 C 11.53 11.00 7.14 10.94 2.75 10.87 Z" />
</g>
<g id="#8edcb1ff">
<path fill="#8edcb1" opacity="1.00" d=" M 21.07 11.01 C 21.35 9.37 29.70 8.53 29.00 11.01 C 26.36 11.00 23.71 11.01 21.07 11.01 Z" />
</g>
<g id="#33c270ff">
<path fill="#33c270" opacity="1.00" d=" M 0.00 15.38 C 0.89 13.86 1.75 12.32 2.75 10.87 C 2.35 14.00 3.76 15.57 6.92 15.14 C 7.58 17.44 5.63 22.30 8.09 23.01 C 15.61 25.47 8.20 12.50 16.09 14.89 C 16.01 17.60 15.91 20.31 15.79 23.01 C 9.60 23.57 5.52 28.98 0.00 31.27 L 0.00 15.38 Z" />
</g>
<g id="#f8fdfaff">
<path fill="#f8fdfa" opacity="1.00" d=" M 2.75 10.87 C 7.14 10.94 11.53 11.00 15.93 11.07 C 16.01 12.35 16.06 13.62 16.09 14.89 C 8.20 12.50 15.61 25.47 8.09 23.01 C 7.50 20.61 9.31 16.01 6.92 15.14 C 3.76 15.57 2.35 14.00 2.75 10.87 Z" />
</g>
<g id="#effaf3ff">
<path fill="#effaf3" opacity="1.00" d=" M 21.07 11.01 C 23.71 11.01 26.36 11.00 29.00 11.01 C 30.64 16.53 24.88 15.30 20.83 15.06 C 20.89 13.71 20.96 12.36 21.07 11.01 Z" />
</g>
<g id="#a5e3c2ff">
<path fill="#a5e3c2" opacity="1.00" d=" M 6.92 15.14 C 9.31 16.01 7.50 20.61 8.09 23.01 C 5.63 22.30 7.58 17.44 6.92 15.14 Z" />
</g>
<g id="#f3fcf6ff">
<path fill="#f3fcf6" opacity="1.00" d=" M 16.09 14.89 C 17.67 14.95 19.25 15.01 20.83 15.06 C 19.78 20.34 24.82 19.41 28.91 18.99 C 28.95 20.31 28.96 21.64 28.93 22.96 C 24.55 22.99 20.17 23.07 15.79 23.01 C 15.91 20.31 16.01 17.60 16.09 14.89 Z" />
</g>
<g id="#0dd019ff">
<path fill="#0dd019" opacity="1.00" d=" M 28.91 18.99 C 29.93 18.22 30.97 17.48 32.00 16.72 L 32.00 32.00 L 11.44 32.00 C 14.90 29.21 18.95 27.26 22.27 24.30 C 25.77 25.14 27.99 24.69 28.93 22.96 C 28.96 21.64 28.95 20.31 28.91 18.99 Z" />
</g>
<g id="#23cb47ff">
<path fill="#23cb47" opacity="1.00" d=" M 0.00 31.27 C 5.52 28.98 9.60 23.57 15.79 23.01 C 17.41 23.33 20.65 23.98 22.27 24.30 C 18.95 27.26 14.90 29.21 11.44 32.00 L 0.00 32.00 L 0.00 31.27 Z" />
</g>
<g id="#62dc75ff">
<path fill="#62dc75" opacity="1.00" d=" M 15.79 23.01 C 20.17 23.07 24.55 22.99 28.93 22.96 C 27.99 24.69 25.77 25.14 22.27 24.30 C 20.65 23.98 17.41 23.33 15.79 23.01 Z" />
</g>
</svg>
