<?xml version="1.0" encoding="UTF-8" ?>
<!DOCTYPE svg PUBLIC "-//W3C//DTD SVG 1.1//EN" "http://www.w3.org/Graphics/SVG/1.1/DTD/svg11.dtd">
<svg width="64pt" height="64pt" viewBox="0 0 64 64" version="1.1" xmlns="http://www.w3.org/2000/svg">
<g id="#000000ff">
<path fill="#000000" opacity="1.00" d=" M 0.00 0.00 L 64.00 0.00 L 64.00 64.00 L 0.00 64.00 L 0.00 0.00 M 5.35 5.32 C 5.33 9.42 5.33 13.52 5.35 17.62 C 9.46 17.58 13.58 17.65 17.70 17.57 C 21.69 13.45 25.78 9.42 29.88 5.40 C 21.70 5.24 13.52 5.39 5.35 5.32 M 38.20 5.38 C 33.95 9.41 29.79 13.58 25.75 17.84 C 25.81 31.42 25.80 45.01 25.76 58.59 C 29.92 58.71 34.09 58.73 38.24 58.58 C 38.18 44.92 38.23 31.26 38.22 17.60 C 45.03 17.62 51.84 17.59 58.65 17.62 C 58.67 13.52 58.67 9.42 58.66 5.32 C 51.84 5.38 45.01 5.26 38.20 5.38 Z" />
</g>
<g id="#ffffffff">
<path fill="#ffffff" opacity="1.00" d=" M 5.35 5.32 C 13.52 5.39 21.70 5.24 29.88 5.40 C 25.78 9.42 21.69 13.45 17.70 17.57 C 13.58 17.65 9.46 17.58 5.35 17.62 C 5.33 13.52 5.33 9.42 5.35 5.32 Z" />
<path fill="#ffffff" opacity="1.00" d=" M 38.20 5.38 C 45.01 5.26 51.84 5.38 58.66 5.32 C 58.67 9.42 58.67 13.52 58.65 17.62 C 51.84 17.59 45.03 17.62 38.22 17.60 C 38.23 31.26 38.18 44.92 38.24 58.58 C 34.09 58.73 29.92 58.71 25.76 58.59 C 25.80 45.01 25.81 31.42 25.75 17.84 C 29.79 13.58 33.95 9.41 38.20 5.38 Z" />
</g>
</svg>
