<?xml version="1.0" encoding="UTF-8" ?>
<!DOCTYPE svg PUBLIC "-//W3C//DTD SVG 1.1//EN" "http://www.w3.org/Graphics/SVG/1.1/DTD/svg11.dtd">
<svg width="32pt" height="32pt" viewBox="0 0 32 32" version="1.1" xmlns="http://www.w3.org/2000/svg">
<g id="#060606f8">
<path fill="#060606" opacity="0.97" d=" M 15.32 0.00 L 16.68 0.00 C 20.84 3.59 27.76 4.51 30.33 9.71 C 30.22 13.89 30.19 18.07 30.26 22.25 C 27.98 27.44 20.84 28.34 16.71 32.00 L 15.33 32.00 C 10.93 28.68 4.22 27.46 1.67 22.30 C 1.78 18.11 1.81 13.93 1.74 9.75 C 4.04 4.49 11.26 3.63 15.32 0.00 M 8.04 14.96 C 10.02 14.32 12.03 13.99 13.90 15.17 C 14.72 17.50 11.29 18.07 9.69 17.41 C 7.41 16.12 4.74 18.69 4.98 21.00 C 4.39 24.93 11.16 25.93 11.88 21.94 C 12.04 19.04 15.27 17.89 17.74 18.44 C 20.71 19.80 23.55 21.91 27.13 20.95 C 25.87 18.43 22.15 17.85 19.75 16.62 C 19.85 16.27 20.06 15.57 20.16 15.22 C 22.40 13.98 26.00 13.50 27.13 11.05 C 23.49 11.49 18.09 11.56 15.54 14.41 C 11.55 13.07 12.51 7.53 8.00 7.01 C 3.98 7.88 4.00 14.20 8.04 14.96 Z" />
</g>
<g id="#b6b6b6ff">
<path fill="#b6b6b6" opacity="1.00" d=" M 8.04 14.96 C 4.00 14.20 3.98 7.88 8.00 7.01 C 12.51 7.53 11.55 13.07 15.54 14.41 C 16.84 15.66 18.51 16.14 20.16 15.22 C 20.06 15.57 19.85 16.27 19.75 16.62 C 19.06 17.21 18.39 17.81 17.74 18.44 C 15.27 17.89 12.04 19.04 11.88 21.94 C 11.16 25.93 4.39 24.93 4.98 21.00 C 4.74 18.69 7.41 16.12 9.69 17.41 C 11.29 18.07 14.72 17.50 13.90 15.17 C 12.03 13.99 10.02 14.32 8.04 14.96 M 7.03 9.02 C 6.62 11.55 6.73 14.05 9.97 12.98 C 10.38 10.45 10.27 7.95 7.03 9.02 M 7.03 19.02 C 6.62 21.55 6.73 24.05 9.97 22.98 C 10.38 20.45 10.27 17.95 7.03 19.02 Z" />
</g>
<g id="#181818ff">
<path fill="#181818" opacity="1.00" d=" M 7.03 9.02 C 10.27 7.95 10.38 10.45 9.97 12.98 C 6.73 14.05 6.62 11.55 7.03 9.02 Z" />
</g>
<g id="#0000002f">
<path fill="#000000" opacity="0.18" d=" M 1.67 22.30 C -0.02 18.36 1.18 13.78 1.74 9.75 C 1.81 13.93 1.78 18.11 1.67 22.30 Z" />
<path fill="#000000" opacity="0.18" d=" M 30.33 9.71 C 32.03 13.63 30.81 18.22 30.26 22.25 C 30.19 18.07 30.22 13.89 30.33 9.71 Z" />
</g>
<g id="#dbdbdbff">
<path fill="#dbdbdb" opacity="1.00" d=" M 15.54 14.41 C 18.09 11.56 23.49 11.49 27.13 11.05 C 26.00 13.50 22.40 13.98 20.16 15.22 C 18.51 16.14 16.84 15.66 15.54 14.41 Z" />
</g>
<g id="#ddddddff">
<path fill="#dddddd" opacity="1.00" d=" M 17.74 18.44 C 18.39 17.81 19.06 17.21 19.75 16.62 C 22.15 17.85 25.87 18.43 27.13 20.95 C 23.55 21.91 20.71 19.80 17.74 18.44 Z" />
</g>
<g id="#191919ff">
<path fill="#191919" opacity="1.00" d=" M 7.03 19.02 C 10.27 17.95 10.38 20.45 9.97 22.98 C 6.73 24.05 6.62 21.55 7.03 19.02 Z" />
</g>
</svg>
