<?xml version="1.0" encoding="UTF-8" ?>
<!DOCTYPE svg PUBLIC "-//W3C//DTD SVG 1.1//EN" "http://www.w3.org/Graphics/SVG/1.1/DTD/svg11.dtd">
<svg width="32pt" height="32pt" viewBox="0 0 32 32" version="1.1" xmlns="http://www.w3.org/2000/svg">
<g id="#b25454ef">
<path fill="#b25454" opacity="0.94" d=" M 4.00 6.08 C 5.11 3.65 8.08 4.29 10.22 3.93 C 9.08 4.36 8.03 4.96 7.09 5.73 C 7.96 5.90 9.69 6.25 10.56 6.42 C 9.90 6.51 8.59 6.69 7.94 6.79 C 7.61 10.08 8.40 13.94 5.83 16.55 C 8.80 19.31 6.33 24.34 9.58 26.68 C 8.81 27.10 8.06 27.54 7.32 28.00 L 10.27 28.70 C 8.23 28.79 5.48 29.86 4.20 27.63 C 2.69 24.94 3.56 21.70 3.47 18.78 C 2.94 18.61 1.89 18.26 1.36 18.08 C 1.49 17.19 1.62 16.29 1.72 15.39 C 2.16 15.12 3.05 14.57 3.49 14.29 C 3.43 11.56 2.97 8.69 4.00 6.08 Z" />
<path fill="#b25454" opacity="0.94" d=" M 20.85 4.34 C 23.04 4.39 26.06 3.40 27.24 5.94 C 28.41 8.62 27.85 11.65 27.88 14.48 C 28.26 14.61 29.02 14.86 29.40 14.99 C 29.52 15.76 29.77 17.31 29.90 18.08 C 29.40 18.25 28.40 18.59 27.90 18.76 C 27.74 22.27 29.01 26.44 25.99 29.10 C 24.28 29.01 22.57 28.93 20.86 28.88 C 21.82 28.58 22.77 28.27 23.72 27.97 C 23.55 24.11 23.07 19.79 25.61 16.53 C 25.19 16.11 24.34 15.26 23.91 14.83 C 23.13 11.98 25.47 6.05 20.74 6.64 C 22.04 6.33 23.30 5.87 24.40 5.10 C 23.52 4.91 21.74 4.53 20.85 4.34 Z" />
</g>
</svg>
