<?xml version="1.0" encoding="UTF-8" ?>
<!DOCTYPE svg PUBLIC "-//W3C//DTD SVG 1.1//EN" "http://www.w3.org/Graphics/SVG/1.1/DTD/svg11.dtd">
<svg width="16pt" height="16pt" viewBox="0 0 16 16" version="1.1" xmlns="http://www.w3.org/2000/svg">
<g id="#c38506c3">
<path fill="#ff7700" opacity="0.76" d=" M 7.75 0.00 L 8.24 0.00 C 9.47 1.27 10.61 2.62 11.77 3.95 C 9.25 4.01 6.73 4.01 4.21 3.95 C 5.37 2.62 6.53 1.28 7.75 0.00 Z" />
<path fill="#fad300" opacity="0.76" d=" M 12.10 4.23 C 13.42 5.41 14.73 6.59 16.00 7.82 L 16.00 8.17 C 14.74 9.41 13.42 10.60 12.10 11.77 C 12.06 9.26 12.06 6.75 12.10 4.23 Z" />
</g>
<g id="#a9c325c3">
<path fill="#c1db1e" opacity="0.76" d=" M 0.00 7.79 C 1.28 6.56 2.61 5.39 3.94 4.22 C 3.99 6.73 3.99 9.25 3.92 11.76 C 2.60 10.60 1.27 9.43 0.00 8.21 L 0.00 7.79 Z" />
</g>
<g id="#2b607b7b">
<path fill="#0161bd" opacity="0.48" d=" M 4.07 12.04 C 6.71 11.98 9.35 11.97 11.98 12.05 C 10.93 13.42 9.80 14.75 8.61 16.00 L 7.32 16.00 C 6.18 14.73 5.09 13.42 4.07 12.04 Z" />
</g>
</svg>
