<?xml version="1.0" encoding="UTF-8" ?>
<!DOCTYPE svg PUBLIC "-//W3C//DTD SVG 1.1//EN" "http://www.w3.org/Graphics/SVG/1.1/DTD/svg11.dtd">
<svg width="256pt" height="256pt" viewBox="0 0 256 256" version="1.1" xmlns="http://www.w3.org/2000/svg">
<g id="#000000ff">
<path fill="#000000" opacity="1.00" d=" M 52.75 21.78 C 56.15 20.26 60.73 19.43 63.59 22.44 C 71.59 30.35 73.10 42.13 78.26 51.73 C 81.09 57.27 87.76 59.18 91.18 64.20 C 90.86 64.71 90.22 65.74 89.90 66.25 C 82.86 63.83 75.63 59.42 72.80 52.17 C 71.17 48.62 69.92 44.92 68.76 41.20 C 63.17 37.59 55.61 40.97 53.69 47.09 C 60.25 53.57 68.63 58.39 73.46 66.46 C 75.03 69.52 77.16 73.17 75.54 76.65 C 73.56 80.73 69.66 84.44 64.95 84.76 C 60.23 84.32 56.21 81.35 52.83 78.23 C 47.67 73.51 44.30 67.26 39.73 62.05 C 36.65 60.87 32.87 61.43 29.95 62.90 C 26.18 64.82 26.24 69.56 24.93 73.06 C 25.59 73.78 26.24 74.52 26.88 75.26 C 26.77 75.84 26.56 76.99 26.46 77.56 C 20.50 76.83 15.38 72.91 11.51 68.52 C 7.60 64.69 9.10 58.83 7.60 54.06 C 10.97 51.41 12.50 46.82 16.39 44.58 C 20.60 41.17 28.57 41.91 30.60 47.41 C 29.23 49.07 27.26 48.42 25.50 47.93 C 21.21 46.11 17.63 50.04 15.04 52.92 C 12.05 55.86 11.61 60.43 12.76 64.29 C 14.38 67.58 17.89 69.30 21.16 70.54 C 20.92 64.84 24.76 60.15 29.79 57.96 C 31.91 57.82 34.03 57.77 36.15 57.68 C 34.48 55.41 32.39 53.50 30.52 51.39 C 29.18 50.29 30.54 48.84 31.04 47.73 C 38.81 51.30 42.72 59.21 47.96 65.42 C 48.46 67.12 49.45 68.58 50.71 69.81 C 53.64 74.12 57.24 78.75 62.79 79.46 C 68.20 81.46 73.54 74.08 70.37 69.29 C 65.25 61.98 58.17 56.47 51.47 50.72 C 51.41 50.67 51.28 50.56 51.22 50.51 C 47.58 47.27 44.58 43.28 42.50 38.86 C 42.79 38.21 43.37 36.91 43.66 36.26 C 40.56 36.15 40.49 32.63 41.76 30.62 C 44.24 26.50 48.44 23.73 52.75 21.78 M 44.34 36.28 C 47.31 37.82 48.28 41.30 50.29 43.77 C 52.14 41.15 54.03 38.26 57.14 37.03 C 59.80 35.40 62.94 36.15 65.87 35.83 C 65.57 34.33 65.48 32.66 64.18 31.64 C 63.03 29.22 61.49 26.96 59.56 25.10 L 60.28 24.90 C 53.59 25.56 46.29 29.41 44.34 36.28 Z" />
<path fill="#000000" opacity="1.00" d=" M 130.05 37.04 C 132.95 33.82 134.99 28.53 139.95 28.36 C 140.67 29.34 141.44 30.26 142.28 31.14 C 142.36 31.23 142.53 31.40 142.61 31.49 C 148.35 37.36 153.23 45.39 152.40 53.89 C 150.82 62.19 144.57 68.40 138.72 74.02 C 145.95 79.53 152.03 86.41 157.01 94.00 C 159.18 96.91 160.50 100.36 162.77 103.21 C 163.92 101.55 165.63 99.48 167.93 100.23 C 169.85 100.49 169.49 102.83 169.53 104.21 C 171.29 106.17 175.65 107.05 174.61 110.51 C 172.19 112.39 169.99 109.24 167.95 108.20 C 169.50 109.93 173.21 111.69 171.24 114.44 C 170.70 114.55 169.61 114.78 169.06 114.90 C 172.08 120.23 174.44 125.96 178.19 130.85 C 183.61 138.39 192.20 143.24 196.70 151.47 C 196.93 151.61 197.41 151.89 197.64 152.03 C 199.92 153.54 201.93 155.41 203.90 157.30 C 207.37 161.14 211.40 164.55 214.11 169.02 C 216.51 172.62 217.96 176.86 221.03 180.00 C 224.48 183.57 228.76 186.20 232.32 189.65 C 239.79 196.19 245.16 204.74 249.46 213.60 C 251.95 219.19 253.85 225.49 252.56 231.64 C 251.23 237.93 244.53 243.02 238.06 241.24 C 229.82 239.26 223.92 232.61 218.20 226.80 C 213.62 221.71 207.19 219.03 201.40 215.62 C 189.89 208.74 178.45 201.75 166.64 195.39 C 160.26 192.28 153.97 188.77 147.02 187.08 C 130.62 182.90 113.38 186.00 96.94 182.08 C 84.33 178.96 72.36 173.01 62.49 164.56 C 60.27 161.70 56.58 159.62 55.89 155.86 C 57.05 155.48 58.38 154.48 59.52 155.50 C 62.16 157.49 63.99 160.35 66.60 162.39 C 77.01 170.52 89.44 176.10 102.47 178.31 C 115.28 180.34 128.36 179.32 141.16 181.46 C 143.56 181.89 145.97 182.37 148.35 182.94 C 152.05 183.90 155.68 185.19 159.11 186.90 C 175.00 194.48 189.70 204.26 204.97 212.97 C 210.29 215.85 215.86 218.51 220.26 222.76 C 225.79 227.91 230.77 234.35 238.24 236.72 C 242.44 238.33 247.20 235.21 248.15 230.99 C 249.19 226.52 248.01 221.87 246.44 217.66 C 243.25 210.23 239.09 203.18 233.84 197.01 C 229.39 191.80 223.52 188.13 218.53 183.50 C 213.80 179.17 212.23 172.65 208.16 167.83 C 206.12 165.37 203.92 163.05 201.79 160.66 C 200.62 159.40 199.39 158.21 198.18 157.00 C 196.88 155.85 196.09 154.32 195.43 152.75 C 191.58 151.17 189.04 147.69 185.82 145.19 C 178.90 139.39 172.32 132.90 168.32 124.68 C 160.68 111.46 154.61 97.09 144.30 85.64 C 137.67 78.25 128.98 73.00 119.82 69.35 C 114.08 67.47 107.97 67.35 102.02 66.63 C 98.57 66.04 94.34 67.49 91.64 64.63 C 92.88 61.13 97.06 61.73 100.01 61.59 C 102.52 61.38 105.58 62.72 107.58 60.65 C 115.85 53.57 122.83 45.15 130.05 37.04 M 112.87 62.85 C 121.23 63.32 128.55 67.71 135.60 71.82 C 139.92 66.12 145.71 61.12 147.58 53.97 C 148.60 48.50 145.61 43.55 142.96 39.05 C 141.69 36.79 139.34 34.89 139.51 32.07 C 131.85 43.32 122.30 53.12 112.87 62.85 Z" />
<path fill="#000000" opacity="1.00" d=" M 29.00 78.49 C 30.13 74.71 34.14 77.43 36.39 78.54 C 44.65 83.67 50.65 91.95 54.08 100.97 C 55.41 99.78 56.72 98.56 58.16 97.50 C 58.63 97.62 59.56 97.85 60.03 97.96 C 59.58 100.27 57.95 102.04 56.56 103.83 C 51.92 109.77 45.66 114.06 40.36 119.34 C 29.74 129.54 18.66 139.23 7.26 148.56 C 7.82 149.22 8.94 150.55 9.49 151.22 C 6.79 153.87 1.65 150.96 2.64 147.27 C 8.38 141.11 15.27 136.20 21.49 130.55 C 26.08 126.18 32.56 123.96 35.92 118.33 C 38.35 115.55 41.60 113.69 44.14 111.04 C 44.83 110.35 45.51 109.65 46.18 108.95 C 47.91 107.09 49.80 105.39 51.74 103.77 C 50.83 102.18 49.95 100.57 49.19 98.91 C 48.39 96.77 47.40 94.70 45.95 92.91 C 42.36 88.21 37.88 84.16 32.98 80.86 C 31.68 80.02 30.35 79.25 29.00 78.49 Z" />
<path fill="#000000" opacity="1.00" d=" M 67.12 113.28 C 67.58 113.09 68.49 112.72 68.95 112.53 C 71.08 115.19 70.69 118.77 70.52 121.95 C 69.91 128.48 68.84 135.11 65.98 141.07 C 63.31 146.34 59.04 150.65 54.31 154.12 C 45.49 160.48 34.05 162.99 23.38 160.92 C 19.20 159.71 15.01 158.17 11.44 155.64 C 11.28 154.91 10.95 153.46 10.78 152.73 C 14.83 152.14 18.14 155.06 21.96 155.80 C 36.87 159.93 53.64 152.74 61.53 139.60 C 64.48 134.01 65.80 127.71 66.58 121.48 C 66.99 118.76 66.62 115.98 67.12 113.28 Z" />
<path fill="#000000" opacity="1.00" d=" M 121.21 138.24 C 122.45 137.64 123.70 135.67 125.19 137.02 C 125.88 138.79 124.98 140.43 124.08 141.91 C 126.93 143.99 130.18 145.83 132.02 148.96 C 132.59 150.75 130.65 152.38 129.08 151.13 C 126.27 149.19 123.68 146.91 121.31 144.46 C 120.03 145.35 118.66 146.10 117.35 146.93 C 118.22 150.22 123.10 153.30 120.98 156.97 C 120.51 156.94 119.57 156.88 119.11 156.85 C 116.46 154.58 115.10 151.26 113.27 148.37 C 111.26 148.99 109.26 149.61 107.24 150.18 C 108.56 152.71 109.99 155.29 110.43 158.15 C 110.28 159.49 108.41 161.04 107.29 159.70 C 105.04 157.06 104.49 153.46 102.58 150.60 C 99.98 150.25 97.03 149.88 95.28 147.69 C 94.25 146.37 95.37 144.22 97.08 144.45 C 105.47 145.99 114.48 143.39 121.21 138.24 Z" />
<path fill="#000000" opacity="1.00" d=" M 230.12 222.95 C 229.20 221.45 230.40 219.72 231.98 219.45 C 235.24 219.63 238.60 220.85 240.73 223.44 C 242.77 225.70 242.90 229.83 240.15 231.59 C 236.19 229.66 231.86 227.26 230.12 222.95 M 233.96 223.19 C 235.28 225.06 236.79 227.07 239.24 227.43 C 238.68 224.97 236.29 223.55 233.96 223.19 Z" />
</g>
<g id="#624316ff">
<path fill="#624316" opacity="1.00" d=" M 44.34 36.28 C 46.29 29.41 53.59 25.56 60.28 24.90 L 59.56 25.10 C 57.38 24.96 56.96 27.30 58.18 28.74 C 59.18 30.84 60.34 32.86 61.39 34.93 C 62.47 34.94 63.55 34.95 64.63 34.96 C 64.52 34.13 64.29 32.47 64.18 31.64 C 65.48 32.66 65.57 34.33 65.87 35.83 C 62.94 36.15 59.80 35.40 57.14 37.03 C 54.03 38.26 52.14 41.15 50.29 43.77 C 48.28 41.30 47.31 37.82 44.34 36.28 Z" />
</g>
<g id="#ffffffff">
<path fill="#ffffff" opacity="1.00" d=" M 58.18 28.74 C 56.96 27.30 57.38 24.96 59.56 25.10 C 61.49 26.96 63.03 29.22 64.18 31.64 C 64.29 32.47 64.52 34.13 64.63 34.96 C 63.55 34.95 62.47 34.94 61.39 34.93 C 60.34 32.86 59.18 30.84 58.18 28.74 Z" />
<path fill="#ffffff" opacity="1.00" d=" M 22.53 49.96 C 23.69 49.53 24.86 49.17 26.06 48.87 C 27.83 51.08 30.33 52.85 31.14 55.70 C 30.96 56.14 30.60 57.04 30.42 57.49 C 27.21 55.67 24.44 53.14 22.53 49.96 Z" />
</g>
<g id="#3f3117da">
<path fill="#3f3117" opacity="0.85" d=" M 142.28 31.14 C 142.36 31.23 142.53 31.40 142.61 31.49 C 142.53 31.40 142.36 31.23 142.28 31.14 Z" />
</g>
<g id="#b67f2eff">
<path fill="#b67f2e" opacity="1.00" d=" M 112.87 62.85 C 122.30 53.12 131.85 43.32 139.51 32.07 C 139.34 34.89 141.69 36.79 142.96 39.05 C 145.61 43.55 148.60 48.50 147.58 53.97 C 145.71 61.12 139.92 66.12 135.60 71.82 C 128.55 67.71 121.23 63.32 112.87 62.85 Z" />
<path fill="#b67f2e" opacity="1.00" d=" M 61.68 101.21 C 64.68 107.56 63.73 115.03 66.58 121.48 C 65.80 127.71 64.48 134.01 61.53 139.60 C 53.64 152.74 36.87 159.93 21.96 155.80 C 18.14 155.06 14.83 152.14 10.78 152.73 C 10.35 152.23 9.92 151.72 9.49 151.22 C 8.94 150.55 7.82 149.22 7.26 148.56 C 18.66 139.23 29.74 129.54 40.36 119.34 C 45.66 114.06 51.92 109.77 56.56 103.83 C 58.31 103.06 60.02 102.18 61.68 101.21 Z" />
<path fill="#b67f2e" opacity="1.00" d=" M 196.09 169.08 C 199.40 167.51 200.44 163.75 201.79 160.66 C 203.92 163.05 206.12 165.37 208.16 167.83 C 212.23 172.65 213.80 179.17 218.53 183.50 C 223.52 188.13 229.39 191.80 233.84 197.01 C 239.09 203.18 243.25 210.23 246.44 217.66 C 248.01 221.87 249.19 226.52 248.15 230.99 C 247.20 235.21 242.44 238.33 238.24 236.72 C 230.77 234.35 225.79 227.91 220.26 222.76 C 215.86 218.51 210.29 215.85 204.97 212.97 C 189.70 204.26 175.00 194.48 159.11 186.90 C 155.68 185.19 152.05 183.90 148.35 182.94 C 148.83 181.80 149.64 181.06 150.80 180.74 C 160.82 177.60 171.47 176.95 181.30 173.11 C 186.05 171.11 191.41 171.23 196.09 169.08 M 230.12 222.95 C 231.86 227.26 236.19 229.66 240.15 231.59 C 242.90 229.83 242.77 225.70 240.73 223.44 C 238.60 220.85 235.24 219.63 231.98 219.45 C 230.40 219.72 229.20 221.45 230.12 222.95 Z" />
</g>
<g id="#ebcd68ff">
<path fill="#ebcd68" opacity="1.00" d=" M 53.69 47.09 C 55.61 40.97 63.17 37.59 68.76 41.20 C 69.92 44.92 71.17 48.62 72.80 52.17 C 75.63 59.42 82.86 63.83 89.90 66.25 C 90.22 65.74 90.86 64.71 91.18 64.20 L 91.64 64.63 C 94.34 67.49 98.57 66.04 102.02 66.63 C 107.97 67.35 114.08 67.47 119.82 69.35 C 128.98 73.00 137.67 78.25 144.30 85.64 C 154.61 97.09 160.68 111.46 168.32 124.68 C 172.32 132.90 178.90 139.39 185.82 145.19 C 189.04 147.69 191.58 151.17 195.43 152.75 C 196.09 154.32 196.88 155.85 198.18 157.00 C 197.51 159.97 197.58 163.92 194.58 165.63 C 190.33 167.59 185.47 167.40 181.10 169.05 C 170.23 173.18 158.44 173.82 147.40 177.36 C 144.99 178.16 143.19 180.04 141.16 181.46 C 128.36 179.32 115.28 180.34 102.47 178.31 C 89.44 176.10 77.01 170.52 66.60 162.39 C 63.99 160.35 62.16 157.49 59.52 155.50 C 58.38 154.48 57.05 155.48 55.89 155.86 C 55.49 155.42 54.70 154.55 54.31 154.12 C 59.04 150.65 63.31 146.34 65.98 141.07 C 68.84 135.11 69.91 128.48 70.52 121.95 C 70.69 118.77 71.08 115.19 68.95 112.53 C 66.38 108.08 67.73 101.99 63.90 98.14 C 62.45 96.45 60.04 97.16 58.16 97.50 C 56.72 98.56 55.41 99.78 54.08 100.97 C 50.65 91.95 44.65 83.67 36.39 78.54 C 34.14 77.43 30.13 74.71 29.00 78.49 C 28.15 78.18 27.31 77.87 26.46 77.56 C 26.56 76.99 26.77 75.84 26.88 75.26 C 26.24 74.52 25.59 73.78 24.93 73.06 C 26.24 69.56 26.18 64.82 29.95 62.90 C 32.87 61.43 36.65 60.87 39.73 62.05 C 44.30 67.26 47.67 73.51 52.83 78.23 C 56.21 81.35 60.23 84.32 64.95 84.76 C 69.66 84.44 73.56 80.73 75.54 76.65 C 77.16 73.17 75.03 69.52 73.46 66.46 C 68.63 58.39 60.25 53.57 53.69 47.09 M 121.21 138.24 C 114.48 143.39 105.47 145.99 97.08 144.45 C 95.37 144.22 94.25 146.37 95.28 147.69 C 97.03 149.88 99.98 150.25 102.58 150.60 C 104.49 153.46 105.04 157.06 107.29 159.70 C 108.41 161.04 110.28 159.49 110.43 158.15 C 109.99 155.29 108.56 152.71 107.24 150.18 C 109.26 149.61 111.26 148.99 113.27 148.37 C 115.10 151.26 116.46 154.58 119.11 156.85 C 119.57 156.88 120.51 156.94 120.98 156.97 C 123.10 153.30 118.22 150.22 117.35 146.93 C 118.66 146.10 120.03 145.35 121.31 144.46 C 123.68 146.91 126.27 149.19 129.08 151.13 C 130.65 152.38 132.59 150.75 132.02 148.96 C 130.18 145.83 126.93 143.99 124.08 141.91 C 124.98 140.43 125.88 138.79 125.19 137.02 C 123.70 135.67 122.45 137.64 121.21 138.24 Z" />
<path fill="#ebcd68" opacity="1.00" d=" M 70.37 69.29 C 73.54 74.08 68.20 81.46 62.79 79.46 L 62.00 79.07 C 63.71 78.78 65.43 78.57 67.16 78.43 C 70.89 76.80 70.86 72.74 70.37 69.29 Z" />
<path fill="#ebcd68" opacity="1.00" d=" M 49.19 98.91 C 49.95 100.57 50.83 102.18 51.74 103.77 C 49.80 105.39 47.91 107.09 46.18 108.95 C 48.65 106.24 49.54 102.49 49.19 98.91 Z" />
</g>
<g id="#402800ff">
<path fill="#402800" opacity="1.00" d=" M 30.60 47.41 C 30.71 47.49 30.93 47.65 31.04 47.73 C 30.54 48.84 29.18 50.29 30.52 51.39 C 32.39 53.50 34.48 55.41 36.15 57.68 C 34.03 57.77 31.91 57.82 29.79 57.96 L 30.42 57.49 C 30.60 57.04 30.96 56.14 31.14 55.70 C 30.33 52.85 27.83 51.08 26.06 48.87 L 25.50 47.93 C 27.26 48.42 29.23 49.07 30.60 47.41 Z" />
</g>
<g id="#654618ff">
<path fill="#654618" opacity="1.00" d=" M 15.04 52.92 C 17.63 50.04 21.21 46.11 25.50 47.93 L 26.06 48.87 C 24.86 49.17 23.69 49.53 22.53 49.96 C 24.44 53.14 27.21 55.67 30.42 57.49 L 29.79 57.96 C 24.76 60.15 20.92 64.84 21.16 70.54 C 17.89 69.30 14.38 67.58 12.76 64.29 C 11.61 60.43 12.05 55.86 15.04 52.92 Z" />
</g>
<g id="#332d15c0">
<path fill="#332d15" opacity="0.75" d=" M 51.22 50.51 C 51.28 50.56 51.41 50.67 51.47 50.72 C 51.41 50.67 51.28 50.56 51.22 50.51 Z" />
</g>
<g id="#16130a73">
<path fill="#16130a" opacity="0.45" d=" M 47.96 65.42 C 50.04 64.62 51.90 68.18 50.71 69.81 C 49.45 68.58 48.46 67.12 47.96 65.42 Z" />
</g>
<g id="#3831186d">
<path fill="#383118" opacity="0.43" d=" M 32.98 80.86 C 37.88 84.16 42.36 88.21 45.95 92.91 C 43.18 92.00 41.59 89.41 39.43 87.63 C 37.12 85.54 34.19 83.88 32.98 80.86 Z" />
</g>
<g id="#8b6020ff">
<path fill="#8b6020" opacity="1.00" d=" M 58.16 97.50 C 60.04 97.16 62.45 96.45 63.90 98.14 C 67.73 101.99 66.38 108.08 68.95 112.53 C 68.49 112.72 67.58 113.09 67.12 113.28 C 66.62 115.98 66.99 118.76 66.58 121.48 C 63.73 115.03 64.68 107.56 61.68 101.21 C 60.02 102.18 58.31 103.06 56.56 103.83 C 57.95 102.04 59.58 100.27 60.03 97.96 C 59.56 97.85 58.63 97.62 58.16 97.50 Z" />
<path fill="#8b6020" opacity="1.00" d=" M 2.56 150.44 C 1.71 149.52 2.43 148.28 2.64 147.27 C 1.65 150.96 6.79 153.87 9.49 151.22 C 9.92 151.72 10.35 152.23 10.78 152.73 C 10.95 153.46 11.28 154.91 11.44 155.64 C 15.01 158.17 19.20 159.71 23.38 160.92 C 15.41 160.44 7.36 157.01 2.56 150.44 Z" />
<path fill="#8b6020" opacity="1.00" d=" M 197.64 152.03 C 200.82 151.50 202.25 155.21 203.90 157.30 C 201.93 155.41 199.92 153.54 197.64 152.03 Z" />
<path fill="#8b6020" opacity="1.00" d=" M 198.18 157.00 C 199.39 158.21 200.62 159.40 201.79 160.66 C 200.44 163.75 199.40 167.51 196.09 169.08 C 191.41 171.23 186.05 171.11 181.30 173.11 C 171.47 176.95 160.82 177.60 150.80 180.74 C 149.64 181.06 148.83 181.80 148.35 182.94 C 145.97 182.37 143.56 181.89 141.16 181.46 C 143.19 180.04 144.99 178.16 147.40 177.36 C 158.44 173.82 170.23 173.18 181.10 169.05 C 185.47 167.40 190.33 167.59 194.58 165.63 C 197.58 163.92 197.51 159.97 198.18 157.00 Z" />
</g>
<g id="#1a160a6b">
<path fill="#1a160a" opacity="0.42" d=" M 37.83 114.84 C 39.68 113.21 41.68 111.60 44.14 111.04 C 41.60 113.69 38.35 115.55 35.92 118.33 C 35.29 116.75 36.92 115.78 37.83 114.84 Z" />
</g>
<g id="#75531dff">
<path fill="#75531d" opacity="1.00" d=" M 233.96 223.19 C 236.29 223.55 238.68 224.97 239.24 227.43 C 236.79 227.07 235.28 225.06 233.96 223.19 Z" />
</g>
</svg>
