<?xml version="1.0" encoding="UTF-8" ?>
<!DOCTYPE svg PUBLIC "-//W3C//DTD SVG 1.1//EN" "http://www.w3.org/Graphics/SVG/1.1/DTD/svg11.dtd">
<svg width="1200pt" height="1200pt" viewBox="0 0 1200 1200" version="1.1" xmlns="http://www.w3.org/2000/svg">
<g id="#ffffffff">
<path fill="#ffffff" opacity="1.00" d=" M 0.00 0.00 L 597.13 0.00 C 529.67 0.39 462.22 11.93 398.67 34.66 C 397.64 35.10 396.61 35.03 395.60 34.47 C 395.39 34.99 395.19 35.53 395.01 36.06 C 341.52 55.29 290.92 82.54 245.12 116.19 C 231.14 105.75 213.20 100.82 195.85 102.62 C 177.36 104.26 159.74 113.65 147.92 127.94 C 138.12 139.72 132.13 154.69 131.47 170.03 C 130.62 184.67 134.59 199.46 142.37 211.87 C 77.63 288.18 32.16 380.80 12.23 478.92 C 4.32 517.49 0.34 556.84 0.00 596.21 L 0.00 0.00 Z" />
<path fill="#ffffff" opacity="1.00" d=" M 602.80 0.00 L 1200.00 0.00 L 1200.00 596.29 C 1199.72 574.48 1198.59 552.66 1196.01 531.00 C 1186.35 445.57 1157.86 362.32 1113.09 288.93 C 1053.75 190.84 965.64 110.43 862.51 60.35 C 781.98 20.91 692.43 0.35 602.80 0.00 Z" />
<path fill="#ffffff" opacity="1.00" d=" M 487.96 42.05 C 580.93 23.53 678.54 28.34 769.08 56.55 C 839.80 78.47 906.07 114.54 963.01 161.85 C 1035.40 221.76 1092.66 299.84 1127.76 387.03 C 1163.27 474.55 1176.02 571.05 1165.28 664.85 C 1155.62 751.24 1125.57 835.25 1078.32 908.21 C 1036.04 973.86 980.02 1030.60 915.03 1073.87 C 845.29 1120.42 765.08 1151.23 682.06 1163.10 C 606.73 1173.98 529.24 1169.69 455.59 1150.51 C 454.42 1150.07 452.27 1150.05 452.59 1148.34 C 451.98 1149.20 451.18 1149.41 450.17 1148.98 C 366.99 1126.52 289.27 1084.41 224.59 1027.54 C 188.84 996.12 157.00 960.24 130.13 920.95 C 129.08 919.74 128.34 918.38 127.91 916.86 C 127.51 917.09 126.72 917.55 126.33 917.78 C 126.53 917.48 126.92 916.88 127.12 916.58 C 79.82 846.11 48.56 764.93 36.74 680.86 C 23.07 584.92 33.97 485.46 69.05 395.06 C 91.60 336.55 124.02 281.86 164.44 233.91 C 178.44 242.90 195.63 246.71 212.12 244.45 C 232.07 241.96 250.68 230.44 261.85 213.73 C 276.72 192.32 278.28 162.52 265.55 139.75 C 331.37 91.49 407.94 58.04 487.96 42.05 M 485.45 108.68 C 483.43 110.09 482.13 112.40 482.03 114.87 C 482.00 143.26 482.03 171.65 482.02 200.04 C 482.30 203.96 478.99 207.77 475.00 207.76 C 461.33 207.83 447.65 207.81 433.97 207.77 C 429.88 207.98 426.48 203.99 426.80 200.01 C 426.76 171.68 426.82 143.33 426.77 115.00 C 426.82 111.66 424.47 108.29 421.01 107.90 C 416.36 107.37 411.66 107.84 406.99 107.65 C 404.05 107.68 400.75 107.22 398.21 109.02 C 395.85 110.41 395.07 113.38 395.14 115.96 C 395.12 154.33 395.12 192.69 395.13 231.05 C 394.65 235.14 397.86 239.50 402.18 239.39 C 465.76 239.41 529.35 239.42 592.93 239.39 C 596.96 239.73 600.66 236.06 600.45 232.05 C 600.49 193.06 600.50 154.06 600.44 115.07 C 600.68 110.98 596.91 107.50 592.92 107.66 C 587.28 107.70 581.64 107.61 576.01 107.72 C 572.14 107.56 568.79 111.10 568.89 114.94 C 568.76 143.31 568.88 171.69 568.83 200.06 C 569.14 203.93 565.95 207.63 562.05 207.78 C 548.34 207.83 534.63 207.79 520.92 207.79 C 518.15 207.89 515.61 206.05 514.32 203.69 C 513.38 201.24 513.67 198.59 513.65 196.03 C 513.67 169.02 513.64 142.01 513.66 115.00 C 513.79 110.44 509.36 107.03 504.97 107.68 C 498.57 108.08 491.89 106.73 485.69 108.56 L 485.57 107.08 C 485.54 107.48 485.48 108.28 485.45 108.68 M 120.51 338.61 C 117.30 339.37 114.95 342.63 115.24 345.92 C 115.26 351.66 115.11 357.40 115.29 363.14 C 115.31 367.07 119.12 370.26 122.96 369.98 C 131.02 370.09 139.08 369.92 147.14 370.07 C 150.56 370.50 153.33 373.54 153.31 377.01 C 153.36 438.62 153.28 500.23 153.35 561.84 C 153.40 565.78 149.98 569.29 146.01 569.20 C 138.05 569.24 130.08 569.10 122.12 569.23 C 118.55 569.21 115.36 572.38 115.28 575.93 C 115.16 581.97 115.18 588.02 115.28 594.06 C 115.40 597.99 119.10 601.14 122.98 600.85 C 177.02 600.89 231.06 600.86 285.10 600.87 C 289.12 601.29 293.08 598.03 293.15 593.93 C 293.20 587.95 293.28 581.96 293.12 575.98 C 293.01 572.63 290.40 569.58 287.01 569.32 C 278.70 568.97 270.38 569.35 262.07 569.14 C 258.30 569.22 255.07 565.78 255.08 562.08 C 255.11 500.37 255.06 438.66 255.10 376.95 C 255.12 373.32 258.30 370.09 261.93 370.05 C 269.96 369.92 278.00 370.11 286.03 369.97 C 289.82 370.14 293.14 366.67 293.14 362.97 C 293.29 357.32 293.14 351.67 293.18 346.02 C 293.52 342.09 290.08 338.20 286.07 338.36 C 234.03 338.33 182.00 338.37 129.96 338.34 C 126.81 338.34 123.64 338.17 120.51 338.61 M 395.40 345.07 C 395.36 351.09 395.35 357.11 395.42 363.12 C 395.40 367.05 399.13 370.18 402.96 370.01 C 426.99 370.03 451.02 369.98 475.05 370.04 C 478.67 370.13 482.00 373.23 482.00 376.93 C 482.08 384.27 481.98 391.62 482.03 398.97 C 482.67 403.22 479.52 407.74 475.07 407.81 C 450.69 407.96 426.31 407.77 401.94 407.91 C 397.84 407.94 394.64 411.94 395.14 415.95 C 395.11 474.65 395.13 533.36 395.13 592.06 C 394.86 595.84 397.93 599.73 401.86 599.74 C 407.89 599.88 413.93 599.80 419.96 599.78 C 423.89 599.61 427.14 596.01 426.78 592.07 C 426.80 543.70 426.77 495.32 426.80 446.95 C 426.52 443.01 430.09 439.41 434.02 439.56 C 438.32 439.54 442.64 439.39 446.94 439.65 C 450.48 440.01 453.07 443.48 452.95 446.94 C 453.00 495.66 452.94 544.38 452.98 593.10 C 453.19 596.65 456.25 599.73 459.86 599.74 C 465.22 599.91 470.59 599.74 475.96 599.82 C 478.77 599.96 482.02 599.09 483.56 596.54 C 485.05 594.30 484.66 591.50 484.74 588.97 C 484.72 541.67 484.71 494.37 484.74 447.07 C 484.48 443.45 487.39 439.87 491.05 439.60 C 495.37 439.42 499.70 439.56 504.03 439.55 C 507.92 439.50 511.13 443.15 510.99 446.96 C 511.00 495.33 511.00 543.70 510.99 592.06 C 510.59 596.49 514.64 600.28 519.02 599.81 C 524.72 599.74 530.42 599.94 536.12 599.71 C 539.97 599.52 542.84 595.75 542.61 592.01 C 542.66 543.69 542.60 495.36 542.63 447.03 C 542.51 444.51 543.76 441.97 545.97 440.71 C 548.92 438.73 552.64 439.76 555.96 439.54 C 559.31 439.69 563.11 438.78 566.00 440.99 C 568.33 442.49 569.01 445.44 568.89 448.05 C 568.87 496.03 568.88 544.02 568.88 592.00 C 568.52 595.94 571.84 599.82 575.85 599.76 C 581.93 599.81 588.02 599.90 594.11 599.72 C 597.98 599.54 600.74 595.63 600.50 591.94 C 600.53 533.27 600.50 474.60 600.51 415.93 C 601.20 410.67 595.93 406.85 591.01 407.85 C 567.66 407.87 544.30 407.88 520.95 407.85 C 517.22 407.94 513.72 404.77 513.70 400.99 C 513.60 393.01 513.67 385.04 513.67 377.07 C 513.60 373.23 517.13 369.80 520.97 370.00 C 543.32 370.03 565.67 370.00 588.03 370.02 C 590.97 370.00 594.05 370.30 596.82 369.07 C 598.67 367.54 600.34 365.39 600.26 362.87 C 600.34 356.93 600.33 350.97 600.24 345.03 C 600.18 342.54 598.47 340.56 596.62 339.10 C 595.46 338.82 594.32 338.39 593.14 338.35 C 529.78 338.35 466.41 338.36 403.05 338.34 C 399.19 338.18 395.57 341.14 395.40 345.07 Z" />
<path fill="#ffffff" opacity="1.00" d=" M 191.01 370.12 C 199.36 369.86 207.73 370.10 216.09 370.00 C 219.86 369.81 223.51 373.14 223.39 377.00 C 223.46 438.63 223.42 500.28 223.41 561.91 C 223.43 565.83 220.02 569.41 216.02 569.18 C 208.01 569.16 199.99 569.27 191.98 569.12 C 187.84 569.17 184.59 565.05 185.03 561.04 C 184.98 500.01 185.02 438.97 185.01 377.93 C 184.64 374.30 187.33 370.58 191.01 370.12 Z" />
<path fill="#ffffff" opacity="1.00" d=" M 1139.05 863.75 C 1178.69 783.17 1199.44 693.55 1200.00 603.78 L 1200.00 1200.00 L 607.70 1200.00 C 671.78 1199.03 735.76 1188.19 796.32 1167.12 C 870.88 1141.37 940.16 1100.57 999.01 1048.07 C 1057.01 996.44 1104.88 933.48 1139.05 863.75 Z" />
<path fill="#ffffff" opacity="1.00" d=" M 0.00 605.71 C 0.59 652.59 6.28 699.46 17.67 744.96 C 36.95 823.26 72.60 897.42 121.25 961.70 C 177.32 1035.88 250.78 1096.83 334.16 1138.00 C 414.11 1177.76 503.09 1198.76 592.33 1200.00 L 0.00 1200.00 L 0.00 605.71 Z" />
</g>
<g id="#231816ff">
<path fill="#231816" opacity="1.00" d=" M 597.13 0.00 L 602.80 0.00 C 692.43 0.35 781.98 20.91 862.51 60.35 C 965.64 110.43 1053.75 190.84 1113.09 288.93 C 1157.86 362.32 1186.35 445.57 1196.01 531.00 C 1198.59 552.66 1199.72 574.48 1200.00 596.29 L 1200.00 603.78 C 1199.44 693.55 1178.69 783.17 1139.05 863.75 C 1104.88 933.48 1057.01 996.44 999.01 1048.07 C 940.16 1100.57 870.88 1141.37 796.32 1167.12 C 735.76 1188.19 671.78 1199.03 607.70 1200.00 L 592.33 1200.00 C 503.09 1198.76 414.11 1177.76 334.16 1138.00 C 250.78 1096.83 177.32 1035.88 121.25 961.70 C 72.60 897.42 36.95 823.26 17.67 744.96 C 6.28 699.46 0.59 652.59 0.00 605.71 L 0.00 596.21 C 0.34 556.84 4.32 517.49 12.23 478.92 C 32.16 380.80 77.63 288.18 142.37 211.87 C 134.59 199.46 130.62 184.67 131.47 170.03 C 132.13 154.69 138.12 139.72 147.92 127.94 C 159.74 113.65 177.36 104.26 195.85 102.62 C 213.20 100.82 231.14 105.75 245.12 116.19 C 290.92 82.54 341.52 55.29 395.01 36.06 C 395.19 35.53 395.39 34.99 395.60 34.47 C 396.61 35.03 397.64 35.10 398.67 34.66 C 462.22 11.93 529.67 0.39 597.13 0.00 M 487.96 42.05 C 407.94 58.04 331.37 91.49 265.55 139.75 C 278.28 162.52 276.72 192.32 261.85 213.73 C 250.68 230.44 232.07 241.96 212.12 244.45 C 195.63 246.71 178.44 242.90 164.44 233.91 C 124.02 281.86 91.60 336.55 69.05 395.06 C 33.97 485.46 23.07 584.92 36.74 680.86 C 48.56 764.93 79.82 846.11 127.12 916.58 C 126.92 916.88 126.53 917.48 126.33 917.78 C 126.72 917.55 127.51 917.09 127.91 916.86 C 128.34 918.38 129.08 919.74 130.13 920.95 C 157.00 960.24 188.84 996.12 224.59 1027.54 C 289.27 1084.41 366.99 1126.52 450.17 1148.98 C 451.18 1149.41 451.98 1149.20 452.59 1148.34 C 452.27 1150.05 454.42 1150.07 455.59 1150.51 C 529.24 1169.69 606.73 1173.98 682.06 1163.10 C 765.08 1151.23 845.29 1120.42 915.03 1073.87 C 980.02 1030.60 1036.04 973.86 1078.32 908.21 C 1125.57 835.25 1155.62 751.24 1165.28 664.85 C 1176.02 571.05 1163.27 474.55 1127.76 387.03 C 1092.66 299.84 1035.40 221.76 963.01 161.85 C 906.07 114.54 839.80 78.47 769.08 56.55 C 678.54 28.34 580.93 23.53 487.96 42.05 Z" />
<path fill="#231816" opacity="1.00" d=" M 485.45 108.68 C 485.48 108.28 485.54 107.48 485.57 107.08 L 485.69 108.56 C 491.89 106.73 498.57 108.08 504.97 107.68 C 509.36 107.03 513.79 110.44 513.66 115.00 C 513.64 142.01 513.67 169.02 513.65 196.03 C 513.67 198.59 513.38 201.24 514.32 203.69 C 515.61 206.05 518.15 207.89 520.92 207.79 C 534.63 207.79 548.34 207.83 562.05 207.78 C 565.95 207.63 569.14 203.93 568.83 200.06 C 568.88 171.69 568.76 143.31 568.89 114.94 C 568.79 111.10 572.14 107.56 576.01 107.72 C 581.64 107.61 587.28 107.70 592.92 107.66 C 596.91 107.50 600.68 110.98 600.44 115.07 C 600.50 154.06 600.49 193.06 600.45 232.05 C 600.66 236.06 596.96 239.73 592.93 239.39 C 529.35 239.42 465.76 239.41 402.18 239.39 C 397.86 239.50 394.65 235.14 395.13 231.05 C 395.12 192.69 395.12 154.33 395.14 115.96 C 395.07 113.38 395.85 110.41 398.21 109.02 C 400.75 107.22 404.05 107.68 406.99 107.65 C 411.66 107.84 416.36 107.37 421.01 107.90 C 424.47 108.29 426.82 111.66 426.77 115.00 C 426.82 143.33 426.76 171.68 426.80 200.01 C 426.48 203.99 429.88 207.98 433.97 207.77 C 447.65 207.81 461.33 207.83 475.00 207.76 C 478.99 207.77 482.30 203.96 482.02 200.04 C 482.03 171.65 482.00 143.26 482.03 114.87 C 482.13 112.40 483.43 110.09 485.45 108.68 Z" />
<path fill="#231816" opacity="1.00" d=" M 120.51 338.61 C 123.64 338.17 126.81 338.34 129.96 338.34 C 182.00 338.37 234.03 338.33 286.07 338.36 C 290.08 338.20 293.52 342.09 293.18 346.02 C 293.14 351.67 293.29 357.32 293.14 362.97 C 293.14 366.67 289.82 370.14 286.03 369.97 C 278.00 370.11 269.96 369.92 261.93 370.05 C 258.30 370.09 255.12 373.32 255.10 376.95 C 255.06 438.66 255.11 500.37 255.08 562.08 C 255.07 565.78 258.30 569.22 262.07 569.14 C 270.38 569.35 278.70 568.97 287.01 569.32 C 290.40 569.58 293.01 572.63 293.12 575.98 C 293.28 581.96 293.20 587.95 293.15 593.93 C 293.08 598.03 289.12 601.29 285.10 600.87 C 231.06 600.86 177.02 600.89 122.98 600.85 C 119.10 601.14 115.40 597.99 115.28 594.06 C 115.18 588.02 115.16 581.97 115.28 575.93 C 115.36 572.38 118.55 569.21 122.12 569.23 C 130.08 569.10 138.05 569.24 146.01 569.20 C 149.98 569.29 153.40 565.78 153.35 561.84 C 153.28 500.23 153.36 438.62 153.31 377.01 C 153.33 373.54 150.56 370.50 147.14 370.07 C 139.08 369.92 131.02 370.09 122.96 369.98 C 119.12 370.26 115.31 367.07 115.29 363.14 C 115.11 357.40 115.26 351.66 115.24 345.92 C 114.95 342.63 117.30 339.37 120.51 338.61 M 191.01 370.12 C 187.33 370.58 184.64 374.30 185.01 377.93 C 185.02 438.97 184.98 500.01 185.03 561.04 C 184.59 565.05 187.84 569.17 191.98 569.12 C 199.99 569.27 208.01 569.16 216.02 569.18 C 220.02 569.41 223.43 565.83 223.41 561.91 C 223.42 500.28 223.46 438.63 223.39 377.00 C 223.51 373.14 219.86 369.81 216.09 370.00 C 207.73 370.10 199.36 369.86 191.01 370.12 Z" />
<path fill="#231816" opacity="1.00" d=" M 395.40 345.07 C 395.57 341.14 399.19 338.18 403.05 338.34 C 466.41 338.36 529.78 338.35 593.14 338.35 C 594.32 338.39 595.46 338.82 596.62 339.10 C 598.47 340.56 600.18 342.54 600.24 345.03 C 600.33 350.97 600.34 356.93 600.26 362.87 C 600.34 365.39 598.67 367.54 596.82 369.07 C 594.05 370.30 590.97 370.00 588.03 370.02 C 565.67 370.00 543.32 370.03 520.97 370.00 C 517.13 369.80 513.60 373.23 513.67 377.07 C 513.67 385.04 513.60 393.01 513.70 400.99 C 513.72 404.77 517.22 407.94 520.95 407.85 C 544.30 407.88 567.66 407.87 591.01 407.85 C 595.93 406.85 601.20 410.67 600.51 415.93 C 600.50 474.60 600.53 533.27 600.50 591.94 C 600.74 595.63 597.98 599.54 594.11 599.72 C 588.02 599.90 581.93 599.81 575.85 599.76 C 571.84 599.82 568.52 595.94 568.88 592.00 C 568.88 544.02 568.87 496.03 568.89 448.05 C 569.01 445.44 568.33 442.49 566.00 440.99 C 563.11 438.78 559.31 439.69 555.96 439.54 C 552.64 439.76 548.92 438.73 545.97 440.71 C 543.76 441.97 542.51 444.51 542.63 447.03 C 542.60 495.36 542.66 543.69 542.61 592.01 C 542.84 595.75 539.97 599.52 536.12 599.71 C 530.42 599.94 524.72 599.74 519.02 599.81 C 514.64 600.28 510.59 596.49 510.99 592.06 C 511.00 543.70 511.00 495.33 510.99 446.96 C 511.13 443.15 507.92 439.50 504.03 439.55 C 499.70 439.56 495.37 439.42 491.05 439.60 C 487.39 439.87 484.48 443.45 484.74 447.07 C 484.71 494.37 484.72 541.67 484.74 588.97 C 484.66 591.50 485.05 594.30 483.56 596.54 C 482.02 599.09 478.77 599.96 475.96 599.82 C 470.59 599.74 465.22 599.91 459.86 599.74 C 456.25 599.73 453.19 596.65 452.98 593.10 C 452.94 544.38 453.00 495.66 452.95 446.94 C 453.07 443.48 450.48 440.01 446.94 439.65 C 442.64 439.39 438.32 439.54 434.02 439.56 C 430.09 439.41 426.52 443.01 426.80 446.95 C 426.77 495.32 426.80 543.70 426.78 592.07 C 427.14 596.01 423.89 599.61 419.96 599.78 C 413.93 599.80 407.89 599.88 401.86 599.74 C 397.93 599.73 394.86 595.84 395.13 592.06 C 395.13 533.36 395.11 474.65 395.14 415.95 C 394.64 411.94 397.84 407.94 401.94 407.91 C 426.31 407.77 450.69 407.96 475.07 407.81 C 479.52 407.74 482.67 403.22 482.03 398.97 C 481.98 391.62 482.08 384.27 482.00 376.93 C 482.00 373.23 478.67 370.13 475.05 370.04 C 451.02 369.98 426.99 370.03 402.96 370.01 C 399.13 370.18 395.40 367.05 395.42 363.12 C 395.35 357.11 395.36 351.09 395.40 345.07 Z" />
</g>
</svg>
