<?xml version="1.0" encoding="UTF-8" ?>
<!DOCTYPE svg PUBLIC "-//W3C//DTD SVG 1.1//EN" "http://www.w3.org/Graphics/SVG/1.1/DTD/svg11.dtd">
<svg width="1000pt" height="1000pt" viewBox="0 0 1000 1000" version="1.1" xmlns="http://www.w3.org/2000/svg">
<g id="#000000ff">
<path fill="#000000" opacity="1.00" d=" M 673.22 51.29 C 682.33 49.38 692.07 55.45 694.42 64.43 C 742.22 226.96 790.06 389.47 837.88 552.00 C 839.07 556.22 840.81 560.51 840.13 564.98 C 839.34 572.18 833.94 578.61 826.95 580.54 C 789.69 591.46 752.43 602.38 715.16 613.29 C 708.21 615.59 700.06 613.23 695.42 607.56 C 692.26 604.07 691.42 599.33 690.09 594.98 C 642.32 432.73 594.53 270.48 546.76 108.23 C 543.54 98.82 549.43 87.65 559.00 85.00 C 597.08 73.80 635.08 62.27 673.22 51.29 Z" />
<path fill="#000000" opacity="1.00" d=" M 175.31 63.39 C 215.21 62.96 255.14 63.32 295.05 63.21 C 304.98 63.01 313.91 72.05 313.60 81.96 C 313.60 253.31 313.60 424.66 313.60 596.00 C 313.72 605.84 304.81 614.65 294.97 614.44 C 257.99 614.44 221.01 614.44 184.04 614.44 C 179.66 614.39 175.06 614.91 170.96 613.02 C 163.86 610.16 159.02 602.66 159.34 595.02 C 159.34 426.33 159.35 257.65 159.34 88.96 C 159.37 85.85 159.22 82.73 159.50 79.63 C 160.40 71.52 167.23 64.51 175.31 63.39 Z" />
<path fill="#000000" opacity="1.00" d=" M 372.31 63.39 C 412.21 62.96 452.13 63.32 492.04 63.21 C 501.98 63.00 510.93 72.06 510.60 82.00 C 510.60 253.01 510.60 424.02 510.60 595.03 C 510.94 605.09 502.23 614.66 492.00 614.44 C 452.99 614.44 413.98 614.44 374.97 614.44 C 364.76 614.65 355.79 605.20 356.34 595.04 C 356.35 424.03 356.33 253.01 356.36 82.00 C 356.15 72.99 363.40 64.59 372.31 63.39 Z" />
<path fill="#000000" opacity="1.00" d=" M 165.40 642.66 C 168.74 641.15 172.50 641.80 176.05 641.68 C 391.69 641.69 607.33 641.68 822.97 641.68 C 827.77 641.75 833.56 640.80 837.16 644.78 C 840.29 647.59 840.38 652.05 840.23 655.94 C 840.15 666.30 840.27 676.66 840.18 687.03 C 840.20 692.74 834.72 697.52 829.07 696.95 C 612.06 697.00 395.06 696.96 178.06 696.98 C 174.40 697.00 170.72 697.21 167.10 696.67 C 162.39 695.65 159.05 690.83 159.35 686.08 C 159.36 674.70 159.30 663.32 159.38 651.94 C 159.29 647.99 161.82 644.23 165.40 642.66 Z" />
<path fill="#000000" opacity="1.00" d=" M 414.87 747.90 C 427.22 747.86 439.58 747.91 451.94 747.87 C 451.95 749.60 451.95 751.34 451.94 753.09 C 446.75 753.08 441.55 753.11 436.36 753.05 C 436.32 767.84 436.35 782.62 436.35 797.41 C 434.41 797.40 432.48 797.40 430.56 797.42 C 430.61 782.66 430.49 767.89 430.62 753.13 C 425.37 753.02 420.12 753.12 414.87 753.08 C 414.87 751.34 414.87 749.61 414.87 747.90 Z" />
<path fill="#000000" opacity="1.00" d=" M 474.40 797.42 C 474.52 780.88 474.22 764.33 474.55 747.80 C 476.42 747.85 478.29 747.89 480.17 747.92 C 480.20 754.92 480.17 761.93 480.19 768.94 C 488.87 768.91 497.55 768.94 506.23 768.93 C 506.25 761.91 506.20 754.89 506.26 747.88 C 508.13 747.88 510.00 747.88 511.88 747.89 C 511.96 764.39 511.84 780.89 511.94 797.40 C 510.02 797.39 508.11 797.39 506.21 797.41 C 506.26 789.66 506.22 781.91 506.23 774.16 C 497.55 774.15 488.86 774.16 480.18 774.15 C 480.18 781.90 480.19 789.65 480.18 797.40 C 478.25 797.39 476.32 797.40 474.40 797.42 Z" />
<path fill="#000000" opacity="1.00" d=" M 540.39 747.96 C 549.56 747.79 558.73 747.93 567.91 747.89 C 567.89 749.61 567.89 751.34 567.90 753.08 C 560.66 753.08 553.42 753.09 546.19 753.07 C 546.18 758.36 546.18 763.65 546.19 768.94 C 552.99 768.93 559.80 768.91 566.61 768.95 C 566.61 770.63 566.62 772.32 566.66 774.02 C 559.83 774.18 553.01 774.06 546.19 774.09 C 546.17 780.15 546.19 786.21 546.18 792.28 C 553.43 792.30 560.68 792.26 567.93 792.30 C 567.93 793.99 567.93 795.68 567.95 797.39 C 558.77 797.43 549.59 797.38 540.41 797.42 C 540.40 780.93 540.44 764.45 540.39 747.96 Z" />
<path fill="#000000" opacity="1.00" d=" M 231.42 846.36 C 238.61 842.17 247.51 843.74 255.00 846.29 C 254.61 848.08 254.03 849.81 253.37 851.53 C 247.96 849.34 241.68 847.97 236.02 849.95 C 230.86 851.74 230.26 859.45 234.45 862.56 C 239.89 866.63 247.22 867.16 252.46 871.61 C 256.84 875.24 257.45 881.99 255.08 886.92 C 252.78 891.59 247.51 893.89 242.57 894.46 C 236.76 894.95 230.76 894.63 225.28 892.50 C 225.31 890.63 225.32 888.75 225.32 886.90 C 231.72 889.30 239.03 890.78 245.68 888.57 C 251.14 886.81 252.42 878.58 247.78 875.26 C 242.17 871.11 234.44 870.79 229.44 865.69 C 224.19 860.46 224.67 850.14 231.42 846.36 Z" />
<path fill="#000000" opacity="1.00" d=" M 349.20 844.28 C 356.56 842.87 365.04 844.02 370.55 849.49 C 375.99 854.77 377.72 862.72 377.52 870.06 C 377.48 877.22 375.28 884.84 369.69 889.66 C 363.22 895.26 353.62 895.78 345.76 893.22 C 338.41 890.76 333.68 883.52 332.59 876.09 C 331.60 868.56 331.72 860.36 335.65 853.63 C 338.46 848.66 343.60 845.24 349.20 844.28 M 349.38 849.61 C 342.53 851.30 338.74 858.40 338.34 865.03 C 337.71 872.65 338.29 881.96 345.05 886.89 C 351.18 890.84 360.22 890.72 365.87 885.91 C 370.45 881.63 371.45 874.95 371.46 868.98 C 371.40 863.30 370.40 857.03 366.15 852.89 C 361.80 848.64 355.01 848.18 349.38 849.61 Z" />
<path fill="#000000" opacity="1.00" d=" M 522.11 848.23 C 531.12 842.27 543.07 842.84 552.79 846.72 C 552.00 848.39 551.23 850.08 550.46 851.77 C 543.44 848.84 535.08 847.61 528.01 850.99 C 522.02 853.89 518.74 860.54 518.49 866.99 C 517.99 873.95 519.42 882.08 525.52 886.35 C 532.00 890.75 540.44 889.95 547.73 888.47 C 547.67 883.39 547.71 878.31 547.70 873.24 C 544.01 873.25 540.32 873.25 536.63 873.25 C 536.63 871.52 536.64 869.81 536.64 868.10 C 542.24 868.13 547.85 868.16 553.45 868.08 C 553.49 876.11 553.46 884.14 553.47 892.18 C 544.63 894.67 534.86 896.01 525.99 892.96 C 517.48 889.86 512.66 880.81 512.43 872.10 C 511.62 863.26 514.43 853.37 522.11 848.23 Z" />
<path fill="#000000" opacity="1.00" d=" M 650.72 844.35 C 652.34 844.34 653.97 844.34 655.60 844.34 C 662.04 860.91 668.64 877.42 674.99 894.03 C 673.00 894.03 671.01 894.01 669.03 893.94 C 667.05 888.70 664.99 883.49 662.92 878.29 C 656.31 878.29 649.71 878.28 643.12 878.30 C 641.06 883.51 639.03 888.73 637.05 893.97 C 635.10 894.00 633.16 894.03 631.22 894.06 C 637.63 877.46 644.26 860.94 650.72 844.35 M 645.14 873.13 C 650.45 873.12 655.77 873.13 661.09 873.12 C 658.51 865.65 655.38 858.37 653.07 850.81 C 651.07 858.47 647.78 865.69 645.14 873.13 Z" />
<path fill="#000000" opacity="1.00" d=" M 275.20 844.54 C 287.56 844.51 299.92 844.54 312.28 844.53 C 312.32 846.17 312.37 847.83 312.44 849.50 C 307.16 849.77 301.88 849.56 296.61 849.62 C 296.60 864.40 296.62 879.19 296.60 893.98 C 294.67 893.95 292.75 893.92 290.83 893.92 C 290.84 879.16 290.80 864.39 290.85 849.63 C 285.64 849.60 280.43 849.63 275.22 849.62 C 275.22 847.92 275.21 846.22 275.20 844.54 Z" />
<path fill="#000000" opacity="1.00" d=" M 403.49 844.52 C 411.29 844.91 419.40 843.47 426.95 846.03 C 436.52 849.18 437.59 864.06 429.53 869.44 C 428.09 870.43 426.49 871.13 424.93 871.90 C 429.49 879.18 433.81 886.61 438.33 893.91 C 436.12 893.92 433.92 893.95 431.72 894.06 C 427.46 887.31 423.66 880.28 419.56 873.43 C 416.12 873.42 412.68 873.43 409.25 873.44 C 409.30 880.26 409.27 887.09 409.27 893.92 C 407.35 893.95 405.44 893.98 403.53 894.03 C 403.46 877.53 403.53 861.02 403.49 844.52 M 409.25 849.58 C 409.34 855.90 409.18 862.22 409.34 868.55 C 414.11 868.25 419.09 869.12 423.68 867.46 C 430.64 864.97 430.90 852.79 423.67 850.51 C 419.01 849.02 414.05 849.69 409.25 849.58 Z" />
<path fill="#000000" opacity="1.00" d=" M 454.36 844.53 C 456.49 844.52 458.63 844.53 460.77 844.58 C 465.04 852.87 469.46 861.07 473.83 869.30 C 478.13 861.00 482.61 852.79 486.99 844.53 C 489.08 844.52 491.17 844.52 493.26 844.53 C 487.73 854.64 482.04 864.68 476.79 874.92 C 476.47 881.26 476.78 887.62 476.66 893.98 C 474.72 893.95 472.77 893.92 470.84 893.92 C 470.73 887.64 471.04 881.34 470.71 875.07 C 465.51 864.77 459.82 854.70 454.36 844.53 Z" />
<path fill="#000000" opacity="1.00" d=" M 580.35 894.05 C 580.34 877.53 580.27 861.00 580.38 844.47 C 588.44 845.02 596.94 843.27 604.63 846.39 C 613.69 850.26 614.08 864.86 605.83 869.79 C 604.51 870.60 603.09 871.20 601.70 871.85 C 606.25 879.21 610.74 886.59 615.11 894.06 C 612.83 894.07 610.56 894.04 608.30 893.94 C 604.35 887.09 600.35 880.27 596.38 873.43 C 592.94 873.42 589.50 873.43 586.07 873.45 C 586.13 880.27 586.08 887.10 586.10 893.92 C 584.18 893.96 582.26 894.01 580.35 894.05 M 586.06 849.58 C 586.11 855.87 586.13 862.17 586.05 868.46 C 591.03 868.29 596.32 869.23 601.04 867.21 C 607.44 864.34 607.50 852.86 600.60 850.56 C 595.91 849.01 590.90 849.69 586.06 849.58 Z" />
<path fill="#000000" opacity="1.00" d=" M 696.68 844.53 C 704.86 844.94 713.57 843.22 721.27 846.78 C 730.57 851.33 730.21 866.56 721.45 871.51 C 715.75 874.97 708.84 874.56 702.44 874.53 C 702.46 881.04 702.48 887.54 702.43 894.05 C 700.51 894.04 698.60 894.04 696.70 894.05 C 696.65 877.54 696.70 861.03 696.68 844.53 M 702.44 849.49 C 702.47 856.20 702.46 862.90 702.45 869.61 C 707.53 869.48 712.96 870.12 717.67 867.75 C 723.79 864.53 723.77 853.72 717.25 850.94 C 712.58 848.91 707.38 849.63 702.44 849.49 Z" />
<path fill="#000000" opacity="1.00" d=" M 753.42 894.03 C 753.40 877.52 753.42 861.01 753.41 844.51 C 755.32 844.51 757.25 844.53 759.19 844.54 C 759.17 851.55 759.22 858.55 759.15 865.56 C 767.85 865.54 776.56 865.64 785.27 865.51 C 785.18 858.51 785.29 851.52 785.20 844.53 C 787.11 844.53 789.03 844.53 790.95 844.54 C 790.82 861.04 790.97 877.53 790.88 894.03 C 789.00 894.02 787.13 894.03 785.27 894.05 C 785.19 886.27 785.26 878.48 785.23 870.70 C 776.54 870.69 767.86 870.69 759.17 870.70 C 759.19 878.45 759.18 886.20 759.19 893.95 C 757.25 893.97 755.33 894.01 753.42 894.03 Z" />
</g>
</svg>
