<?xml version="1.0" encoding="UTF-8" ?>
<!DOCTYPE svg PUBLIC "-//W3C//DTD SVG 1.1//EN" "http://www.w3.org/Graphics/SVG/1.1/DTD/svg11.dtd">
<svg width="32pt" height="32pt" viewBox="0 0 32 32" version="1.1" xmlns="http://www.w3.org/2000/svg">
<g id="#443e82cf">
<path fill="#443e82" opacity="0.81" d=" M 1.03 3.32 C 1.29 2.99 1.81 2.33 2.07 2.00 C 10.23 2.15 18.40 1.84 26.55 2.14 L 26.11 2.98 C 17.77 2.82 9.29 2.10 1.03 3.32 Z" />
</g>
<g id="#ec008cff">
<path fill="#ec008c" opacity="1.00" d=" M 26.55 2.14 C 27.75 2.17 28.95 2.14 30.15 2.13 C 25.70 10.04 21.06 17.85 16.60 25.76 C 16.30 25.76 15.70 25.75 15.40 25.75 C 12.38 20.37 9.26 15.04 6.18 9.69 C 6.17 9.33 6.16 8.60 6.16 8.23 C 6.76 8.25 7.97 8.29 8.57 8.30 C 9.19 10.16 10.91 11.41 11.75 13.19 C 12.34 14.14 12.88 15.11 13.38 16.10 C 14.37 17.32 14.59 20.17 16.61 19.75 C 19.64 14.08 23.08 8.64 26.11 2.98 L 26.55 2.14 Z" />
</g>
<g id="#393092ff">
<path fill="#393092" opacity="1.00" d=" M 1.03 3.32 C 9.29 2.10 17.77 2.82 26.11 2.98 C 23.08 8.64 19.64 14.08 16.61 19.75 C 14.59 20.17 14.37 17.32 13.38 16.10 C 13.65 16.34 14.18 16.83 14.45 17.08 C 16.10 14.16 17.70 11.22 19.50 8.39 C 20.10 7.38 20.72 6.36 21.07 5.22 C 14.20 5.20 7.20 5.46 0.40 5.11 L 1.03 3.32 Z" />
</g>
<g id="#d4d4d4ff">
<path fill="#d4d4d4" opacity="1.00" d=" M 16.60 25.76 C 21.06 17.85 25.70 10.04 30.15 2.13 C 30.60 2.89 31.50 4.41 31.95 5.17 C 27.39 13.45 22.50 21.56 17.86 29.79 C 16.63 29.87 15.41 29.88 14.18 29.81 C 9.44 21.66 4.81 13.43 0.00 5.32 L 0.00 4.14 L 0.40 5.11 C 7.20 5.46 14.20 5.20 21.07 5.22 C 20.72 6.36 20.10 7.38 19.50 8.39 C 16.14 8.51 12.71 7.99 9.41 8.66 C 10.27 10.11 11.26 11.56 11.75 13.19 C 10.91 11.41 9.19 10.16 8.57 8.30 C 7.97 8.29 6.76 8.25 6.16 8.23 C 6.16 8.60 6.17 9.33 6.18 9.69 C 9.26 15.04 12.38 20.37 15.40 25.75 C 15.70 25.75 16.30 25.76 16.60 25.76 Z" />
</g>
</svg>
