<?xml version="1.0" encoding="UTF-8" ?>
<!DOCTYPE svg PUBLIC "-//W3C//DTD SVG 1.1//EN" "http://www.w3.org/Graphics/SVG/1.1/DTD/svg11.dtd">
<svg width="180pt" height="180pt" viewBox="0 0 180 180" version="1.1" xmlns="http://www.w3.org/2000/svg">
<g id="#5c827f91">
<path fill="#5c827f" opacity="0.57" d=" M 11.32 7.82 C 12.82 7.29 14.40 6.99 16.00 7.00 C 63.33 7.01 110.67 7.01 158.00 6.99 C 161.56 7.09 165.27 6.55 168.68 7.83 C 116.23 8.10 63.77 8.09 11.32 7.82 Z" />
</g>
<g id="#277b74ff">
<path fill="#277b74" opacity="1.00" d=" M 7.37 14.99 C 7.27 12.62 7.70 9.93 9.75 8.44 C 15.50 9.12 21.29 9.14 27.07 9.04 C 69.37 9.05 111.68 9.01 153.98 9.06 C 159.39 9.19 164.81 9.10 170.18 8.38 C 172.28 9.88 172.74 12.61 172.63 15.02 C 172.56 66.24 172.68 117.46 172.57 168.67 C 171.29 170.13 170.04 172.04 167.98 172.35 C 163.97 172.79 159.94 172.49 155.93 172.54 C 111.30 172.54 66.67 172.52 22.04 172.55 C 18.38 172.47 14.67 172.89 11.07 172.14 C 9.57 171.32 8.49 169.97 7.43 168.68 C 7.31 117.45 7.44 66.22 7.37 14.99 M 80.56 19.47 C 85.42 20.06 90.31 20.24 95.20 20.27 C 88.24 20.48 81.29 20.82 74.34 21.10 C 74.38 25.64 74.27 30.19 74.47 34.74 C 65.78 32.21 56.68 31.59 47.88 29.52 C 47.20 33.58 46.29 37.61 45.65 41.68 C 43.36 41.75 43.20 45.70 44.85 46.84 C 43.34 54.40 42.28 62.03 40.73 69.58 C 49.87 71.26 58.91 73.48 68.09 74.95 C 69.17 68.27 70.38 61.61 71.58 54.95 C 72.18 57.46 72.98 59.91 73.71 62.38 C 74.04 56.22 74.49 50.01 73.46 43.88 C 73.78 42.06 74.16 40.24 74.52 38.43 C 74.01 63.28 74.31 88.14 74.08 113.00 C 74.02 115.05 73.86 117.09 73.70 119.13 C 75.44 119.64 77.22 120.06 79.05 120.00 C 87.38 119.95 95.70 119.99 104.02 120.08 C 107.17 120.07 110.46 120.47 113.42 119.14 C 113.09 86.14 113.37 53.12 113.27 20.11 C 111.36 20.12 109.44 20.12 107.53 20.13 C 103.90 18.50 99.88 18.99 96.03 18.98 C 90.87 19.00 85.69 18.80 80.56 19.47 M 121.75 62.53 C 122.13 65.15 122.52 67.77 122.89 70.39 C 121.04 71.27 121.44 75.93 123.54 76.46 C 123.57 76.81 123.63 77.51 123.66 77.86 L 123.85 78.95 C 126.44 78.99 129.02 79.06 131.61 79.10 C 131.96 80.41 132.32 81.73 132.70 83.05 C 132.83 81.33 132.97 79.62 133.11 77.90 C 132.24 77.80 130.49 77.61 129.62 77.51 C 130.86 77.41 132.09 77.27 133.33 77.13 C 133.56 79.43 133.70 81.73 133.92 84.03 C 130.80 84.17 127.69 84.39 124.59 84.74 C 126.47 99.60 128.07 114.48 129.94 129.33 C 128.40 130.47 128.41 133.72 129.30 135.45 C 130.61 135.13 130.11 132.90 130.24 131.89 C 131.20 141.25 132.57 150.57 133.56 159.94 C 139.69 159.07 145.85 158.53 151.98 157.67 C 153.99 157.79 154.69 155.42 154.29 153.80 C 155.07 150.74 155.98 146.86 153.31 144.42 C 151.08 127.92 149.31 111.36 147.31 94.83 C 148.13 91.74 148.89 87.91 146.29 85.41 C 145.19 76.95 143.98 68.51 143.27 60.01 C 136.05 60.44 128.93 61.77 121.75 62.53 M 39.94 74.88 C 39.48 77.15 38.95 79.41 38.63 81.71 C 36.55 81.62 35.90 86.23 37.92 86.57 C 36.23 95.40 34.73 104.27 33.25 113.14 C 33.69 112.35 32.86 109.42 31.88 111.18 C 31.54 112.23 31.52 114.59 32.97 114.67 C 31.34 123.74 29.74 132.82 28.22 141.91 C 28.87 140.93 27.53 138.20 26.75 140.25 C 26.42 141.66 26.79 142.83 27.84 143.77 C 27.05 147.65 26.42 151.55 25.92 155.47 C 33.52 156.82 41.11 158.18 48.71 159.53 C 49.96 159.65 51.33 160.08 52.54 159.54 C 53.63 158.77 53.50 157.25 53.85 156.11 C 54.80 150.43 55.92 144.78 56.77 139.09 C 56.12 140.07 57.48 142.82 58.24 140.75 C 58.55 139.33 58.18 138.14 57.13 137.20 C 60.60 117.93 63.80 98.61 67.33 79.36 C 65.98 79.10 64.64 78.86 63.28 78.65 C 63.36 76.58 58.78 75.90 58.41 77.92 C 52.28 76.71 46.08 76.01 39.94 74.88 M 73.12 121.40 L 74.34 122.18 C 74.11 123.89 73.93 125.60 73.75 127.32 C 78.92 127.35 84.10 127.42 89.27 127.58 C 84.34 127.81 79.41 128.11 74.50 128.61 C 83.64 129.57 92.84 128.72 102.01 129.00 C 105.81 128.80 109.88 129.77 113.46 128.11 C 113.35 126.21 113.26 124.30 113.19 122.40 L 113.12 121.08 C 99.79 121.14 86.42 120.51 73.12 121.40 M 73.76 131.90 C 73.83 133.53 73.88 135.16 73.94 136.79 C 87.02 137.04 100.10 137.04 113.19 137.27 C 113.29 135.49 113.37 133.70 113.48 131.92 C 112.09 131.21 110.55 130.88 109.00 130.95 C 99.31 131.05 89.63 130.98 79.94 131.06 C 77.85 131.06 75.79 131.42 73.76 131.90 M 74.52 141.07 L 73.88 141.05 C 73.89 147.29 73.88 153.53 73.88 159.77 C 87.01 159.87 100.14 159.77 113.27 159.83 C 113.29 153.85 113.27 147.88 113.28 141.91 L 114.60 141.83 C 111.26 140.60 107.64 140.65 104.31 141.91 C 103.33 141.86 102.35 141.78 101.37 141.73 C 99.06 139.08 95.16 140.27 92.08 139.97 C 86.24 140.39 80.13 138.97 74.52 141.07 M 9.95 170.14 C 10.90 172.17 13.22 171.95 15.04 172.09 C 63.37 172.00 111.71 172.02 160.05 172.11 C 163.43 171.87 167.58 173.07 170.17 170.20 C 163.77 169.63 157.36 170.02 150.95 169.92 C 105.64 169.91 60.34 169.94 15.03 169.91 C 13.33 169.94 11.64 170.02 9.95 170.14 Z" />
</g>
<g id="#7eb3afff">
<path fill="#7eb3af" opacity="1.00" d=" M 9.75 8.44 L 11.32 7.82 C 63.77 8.09 116.23 8.10 168.68 7.83 L 170.18 8.38 C 164.81 9.10 159.39 9.19 153.98 9.06 C 111.68 9.01 69.37 9.05 27.07 9.04 C 21.29 9.14 15.50 9.12 9.75 8.44 Z" />
</g>
<g id="#027269ff">
<path fill="#027269" opacity="1.00" d=" M 80.56 19.47 C 85.69 18.80 90.87 19.00 96.03 18.98 C 99.88 18.99 103.90 18.50 107.53 20.13 C 103.42 20.20 99.31 20.22 95.20 20.27 C 90.31 20.24 85.42 20.06 80.56 19.47 Z" />
</g>
<g id="#ffffffff">
<path fill="#ffffff" opacity="1.00" d=" M 95.20 20.27 C 99.31 20.22 103.42 20.20 107.53 20.13 C 109.44 20.12 111.36 20.12 113.27 20.11 C 113.37 53.12 113.09 86.14 113.42 119.14 C 100.19 118.79 86.93 118.82 73.70 119.13 C 73.86 117.09 74.02 115.05 74.08 113.00 C 74.31 88.14 74.01 63.28 74.52 38.43 C 74.16 40.24 73.78 42.06 73.46 43.88 C 72.81 47.57 72.27 51.27 71.58 54.95 C 70.38 61.61 69.17 68.27 68.09 74.95 C 58.91 73.48 49.87 71.26 40.73 69.58 C 42.28 62.03 43.34 54.40 44.85 46.84 C 45.20 45.13 45.45 43.41 45.65 41.68 C 46.29 37.61 47.20 33.58 47.88 29.52 C 56.68 31.59 65.78 32.21 74.47 34.74 C 74.27 30.19 74.38 25.64 74.34 21.10 C 81.29 20.82 88.24 20.48 95.20 20.27 Z" />
<path fill="#ffffff" opacity="1.00" d=" M 121.75 62.53 C 128.93 61.77 136.05 60.44 143.27 60.01 C 143.98 68.51 145.19 76.95 146.29 85.41 C 146.63 88.55 146.88 91.70 147.31 94.83 C 149.31 111.36 151.08 127.92 153.31 144.42 C 153.66 147.54 153.93 150.68 154.29 153.80 C 154.69 155.42 153.99 157.79 151.98 157.67 C 145.85 158.53 139.69 159.07 133.56 159.94 C 132.57 150.57 131.20 141.25 130.24 131.89 C 130.16 131.25 130.01 129.97 129.94 129.33 C 128.07 114.48 126.47 99.60 124.59 84.74 C 127.69 84.39 130.80 84.17 133.92 84.03 C 133.70 81.73 133.56 79.43 133.33 77.13 C 132.09 77.27 130.86 77.41 129.62 77.51 C 127.63 77.60 125.65 77.73 123.66 77.86 C 123.63 77.51 123.57 76.81 123.54 76.46 C 123.39 74.43 123.20 72.41 122.89 70.39 C 122.52 67.77 122.13 65.15 121.75 62.53 Z" />
<path fill="#ffffff" opacity="1.00" d=" M 39.94 74.88 C 46.08 76.01 52.28 76.71 58.41 77.92 C 60.02 78.23 61.65 78.44 63.28 78.65 C 64.64 78.86 65.98 79.10 67.33 79.36 C 63.80 98.61 60.60 117.93 57.13 137.20 C 57.04 137.67 56.86 138.62 56.77 139.09 C 55.92 144.78 54.80 150.43 53.85 156.11 C 53.50 157.25 53.63 158.77 52.54 159.54 C 51.33 160.08 49.96 159.65 48.71 159.53 C 41.11 158.18 33.52 156.82 25.92 155.47 C 26.42 151.55 27.05 147.65 27.84 143.77 C 27.93 143.31 28.12 142.38 28.22 141.91 C 29.74 132.82 31.34 123.74 32.97 114.67 C 33.04 114.29 33.18 113.52 33.25 113.14 C 34.73 104.27 36.23 95.40 37.92 86.57 C 38.23 84.96 38.43 83.33 38.63 81.71 C 38.95 79.41 39.48 77.15 39.94 74.88 Z" />
<path fill="#ffffff" opacity="1.00" d=" M 74.34 122.18 C 87.27 122.82 100.24 122.26 113.19 122.40 C 113.26 124.30 113.35 126.21 113.46 128.11 C 105.41 127.58 97.33 127.75 89.27 127.58 C 84.10 127.42 78.92 127.35 73.75 127.32 C 73.93 125.60 74.11 123.89 74.34 122.18 Z" />
<path fill="#ffffff" opacity="1.00" d=" M 73.76 131.90 C 86.99 132.16 100.25 132.22 113.48 131.92 C 113.37 133.70 113.29 135.49 113.19 137.27 C 100.10 137.04 87.02 137.04 73.94 136.79 C 73.88 135.16 73.83 133.53 73.76 131.90 Z" />
<path fill="#ffffff" opacity="1.00" d=" M 73.88 141.05 L 74.52 141.07 C 83.47 141.21 92.43 141.29 101.37 141.73 C 102.35 141.78 103.33 141.86 104.31 141.91 C 107.30 142.04 110.30 142.06 113.28 141.91 C 113.27 147.88 113.29 153.85 113.27 159.83 C 100.14 159.77 87.01 159.87 73.88 159.77 C 73.88 153.53 73.89 147.29 73.88 141.05 Z" />
</g>
<g id="#026c64ff">
<path fill="#026c64" opacity="1.00" d=" M 44.85 46.84 C 43.20 45.70 43.36 41.75 45.65 41.68 C 45.45 43.41 45.20 45.13 44.85 46.84 Z" />
</g>
<g id="#0e776fff">
<path fill="#0e776f" opacity="1.00" d=" M 73.46 43.88 C 74.49 50.01 74.04 56.22 73.71 62.38 C 72.98 59.91 72.18 57.46 71.58 54.95 C 72.27 51.27 72.81 47.57 73.46 43.88 Z" />
</g>
<g id="#006c63ff">
<path fill="#006c63" opacity="1.00" d=" M 123.54 76.46 C 121.44 75.93 121.04 71.27 122.89 70.39 C 123.20 72.41 123.39 74.43 123.54 76.46 Z" />
</g>
<g id="#026d64ff">
<path fill="#026d64" opacity="1.00" d=" M 58.41 77.92 C 58.78 75.90 63.36 76.58 63.28 78.65 C 61.65 78.44 60.02 78.23 58.41 77.92 Z" />
</g>
<g id="#05746cff">
<path fill="#05746c" opacity="1.00" d=" M 123.66 77.86 C 125.65 77.73 127.63 77.60 129.62 77.51 C 130.49 77.61 132.24 77.80 133.11 77.90 C 132.97 79.62 132.83 81.33 132.70 83.05 C 132.32 81.73 131.96 80.41 131.61 79.10 C 129.02 79.06 126.44 78.99 123.85 78.95 L 123.66 77.86 Z" />
</g>
<g id="#017068ff">
<path fill="#017068" opacity="1.00" d=" M 37.92 86.57 C 35.90 86.23 36.55 81.62 38.63 81.71 C 38.43 83.33 38.23 84.96 37.92 86.57 Z" />
</g>
<g id="#016d64ff">
<path fill="#016d64" opacity="1.00" d=" M 146.29 85.41 C 148.89 87.91 148.13 91.74 147.31 94.83 C 146.88 91.70 146.63 88.55 146.29 85.41 Z" />
</g>
<g id="#026b63ff">
<path fill="#026b63" opacity="1.00" d=" M 31.88 111.18 C 32.86 109.42 33.69 112.35 33.25 113.14 C 33.18 113.52 33.04 114.29 32.97 114.67 C 31.52 114.59 31.54 112.23 31.88 111.18 Z" />
</g>
<g id="#006f66ff">
<path fill="#006f66" opacity="1.00" d=" M 73.70 119.13 C 86.93 118.82 100.19 118.79 113.42 119.14 C 110.46 120.47 107.17 120.07 104.02 120.08 C 95.70 119.99 87.38 119.95 79.05 120.00 C 77.22 120.06 75.44 119.64 73.70 119.13 Z" />
</g>
<g id="#007169ff">
<path fill="#007169" opacity="1.00" d=" M 73.12 121.40 C 86.42 120.51 99.79 121.14 113.12 121.08 L 113.19 122.40 C 100.24 122.26 87.27 122.82 74.34 122.18 L 73.12 121.40 Z" />
</g>
<g id="#016f67ff">
<path fill="#016f67" opacity="1.00" d=" M 74.50 128.61 C 79.41 128.11 84.34 127.81 89.27 127.58 C 97.33 127.75 105.41 127.58 113.46 128.11 C 109.88 129.77 105.81 128.80 102.01 129.00 C 92.84 128.72 83.64 129.57 74.50 128.61 Z" />
</g>
<g id="#026c63ff">
<path fill="#026c63" opacity="1.00" d=" M 129.30 135.45 C 128.41 133.72 128.40 130.47 129.94 129.33 C 130.01 129.97 130.16 131.25 130.24 131.89 C 130.11 132.90 130.61 135.13 129.30 135.45 Z" />
</g>
<g id="#00685fff">
<path fill="#00685f" opacity="1.00" d=" M 73.76 131.90 C 75.79 131.42 77.85 131.06 79.94 131.06 C 89.63 130.98 99.31 131.05 109.00 130.95 C 110.55 130.88 112.09 131.21 113.48 131.92 C 100.25 132.22 86.99 132.16 73.76 131.90 Z" />
</g>
<g id="#006b62ff">
<path fill="#006b62" opacity="1.00" d=" M 56.77 139.09 C 56.86 138.62 57.04 137.67 57.13 137.20 C 58.18 138.14 58.55 139.33 58.24 140.75 C 57.48 142.82 56.12 140.07 56.77 139.09 Z" />
</g>
<g id="#006f67ff">
<path fill="#006f67" opacity="1.00" d=" M 26.75 140.25 C 27.53 138.20 28.87 140.93 28.22 141.91 C 28.12 142.38 27.93 143.31 27.84 143.77 C 26.79 142.83 26.42 141.66 26.75 140.25 Z" />
</g>
<g id="#027068ff">
<path fill="#027068" opacity="1.00" d=" M 74.52 141.07 C 80.13 138.97 86.24 140.39 92.08 139.97 C 95.16 140.27 99.06 139.08 101.37 141.73 C 92.43 141.29 83.47 141.21 74.52 141.07 Z" />
</g>
<g id="#016b61ff">
<path fill="#016b61" opacity="1.00" d=" M 104.31 141.91 C 107.64 140.65 111.26 140.60 114.60 141.83 L 113.28 141.91 C 110.30 142.06 107.30 142.04 104.31 141.91 Z" />
</g>
<g id="#016c63ff">
<path fill="#016c63" opacity="1.00" d=" M 153.31 144.42 C 155.98 146.86 155.07 150.74 154.29 153.80 C 153.93 150.68 153.66 147.54 153.31 144.42 Z" />
</g>
<g id="#00000027">
<path fill="#000000" opacity="0.15" d=" M 7.43 168.68 C 8.49 169.97 9.57 171.32 11.07 172.14 C 14.67 172.89 18.38 172.47 22.04 172.55 C 66.67 172.52 111.30 172.54 155.93 172.54 C 159.94 172.49 163.97 172.79 167.98 172.35 C 170.04 172.04 171.29 170.13 172.57 168.67 C 172.80 171.07 171.55 173.39 169.18 174.12 C 165.21 175.05 161.08 174.51 157.04 174.61 C 109.34 174.57 61.64 174.62 13.95 174.59 C 10.54 174.87 6.83 172.46 7.43 168.68 Z" />
</g>
<g id="#226963ff">
<path fill="#226963" opacity="1.00" d=" M 9.95 170.14 C 11.64 170.02 13.33 169.94 15.03 169.91 C 60.34 169.94 105.64 169.91 150.95 169.92 C 157.36 170.02 163.77 169.63 170.17 170.20 C 167.58 173.07 163.43 171.87 160.05 172.11 C 111.71 172.02 63.37 172.00 15.04 172.09 C 13.22 171.95 10.90 172.17 9.95 170.14 Z" />
</g>
</svg>
