<?xml version="1.0" encoding="UTF-8" ?>
<!DOCTYPE svg PUBLIC "-//W3C//DTD SVG 1.1//EN" "http://www.w3.org/Graphics/SVG/1.1/DTD/svg11.dtd">
<svg width="32pt" height="32pt" viewBox="0 0 32 32" version="1.1" xmlns="http://www.w3.org/2000/svg">
<g id="#e90606ff">
<path fill="#e90606" opacity="1.00" d=" M 0.00 0.00 L 32.00 0.00 L 32.00 32.00 L 0.00 32.00 L 0.00 0.00 M 4.46 2.45 L 4.15 4.49 C 7.40 4.44 10.64 4.38 13.88 4.43 C 13.87 12.43 13.85 20.42 13.89 28.41 C 13.07 28.58 11.43 28.92 10.61 29.09 C 14.25 29.64 17.92 29.53 21.57 29.09 C 20.72 28.94 19.01 28.63 18.16 28.47 C 18.15 20.46 18.18 12.45 18.16 4.44 C 21.40 4.36 24.64 4.44 27.88 4.54 L 27.53 2.46 C 19.84 2.60 12.15 2.60 4.46 2.45 Z" />
</g>
<g id="#fef4f4ff">
<path fill="#fef4f4" opacity="1.00" d=" M 4.46 2.45 C 12.15 2.60 19.84 2.60 27.53 2.46 L 27.88 4.54 C 24.64 4.44 21.40 4.36 18.16 4.44 C 18.18 12.45 18.15 20.46 18.16 28.47 C 19.01 28.63 20.72 28.94 21.57 29.09 C 17.92 29.53 14.25 29.64 10.61 29.09 C 11.43 28.92 13.07 28.58 13.89 28.41 C 13.85 20.42 13.87 12.43 13.88 4.43 C 10.64 4.38 7.40 4.44 4.15 4.49 L 4.46 2.45 Z" />
</g>
</svg>
