<?xml version="1.0" encoding="UTF-8" ?>
<!DOCTYPE svg PUBLIC "-//W3C//DTD SVG 1.1//EN" "http://www.w3.org/Graphics/SVG/1.1/DTD/svg11.dtd">
<svg width="16pt" height="16pt" viewBox="0 0 16 16" version="1.1" xmlns="http://www.w3.org/2000/svg">
<g id="#cc3355ff">
<path fill="#cc3355" opacity="1.00" d=" M 0.00 0.00 L 7.00 0.00 C 7.00 3.00 7.00 6.00 7.00 9.00 C 8.68 9.00 10.35 9.00 12.03 9.00 L 11.99 8.01 C 10.66 8.00 9.33 7.99 8.00 7.98 C 8.00 5.32 8.00 2.66 8.00 0.00 L 16.00 0.00 L 16.00 16.00 L 0.00 16.00 L 0.00 0.00 Z" />
</g>
<g id="#ffffffff">
<path fill="#ffffff" opacity="1.00" d=" M 7.00 0.00 L 8.00 0.00 C 8.00 2.66 8.00 5.32 8.00 7.98 C 9.33 7.99 10.66 8.00 11.99 8.01 L 12.03 9.00 C 10.35 9.00 8.68 9.00 7.00 9.00 C 7.00 6.00 7.00 3.00 7.00 0.00 Z" />
</g>
</svg>
