<?xml version="1.0" encoding="UTF-8" ?>
<!DOCTYPE svg PUBLIC "-//W3C//DTD SVG 1.1//EN" "http://www.w3.org/Graphics/SVG/1.1/DTD/svg11.dtd">
<svg width="32pt" height="32pt" viewBox="0 0 32 32" version="1.1" xmlns="http://www.w3.org/2000/svg">
<g id="#fdfffeff">
<path fill="#fdfffe" opacity="1.00" d=" M 0.00 0.00 L 32.00 0.00 L 32.00 32.00 L 0.00 32.00 L 0.00 0.00 M 8.28 7.31 C 5.49 10.01 5.35 14.28 6.14 17.84 C 7.51 22.04 11.76 24.71 16.11 24.62 C 16.13 21.13 16.11 17.64 15.98 14.15 C 14.73 15.73 13.43 17.29 12.27 18.95 C 10.54 16.80 9.28 13.68 11.16 11.20 C 13.11 7.58 18.83 7.62 20.79 11.22 C 22.77 13.97 21.19 17.39 19.03 19.48 C 19.74 20.74 20.36 22.04 20.95 23.36 C 27.09 20.53 28.05 11.23 23.17 6.83 C 19.23 2.92 11.94 3.10 8.28 7.31 M 10.03 24.41 C 11.84 25.84 13.45 28.21 16.04 28.07 C 18.54 28.07 20.15 25.85 21.87 24.35 C 18.00 25.66 13.92 25.68 10.03 24.41 Z" />
</g>
<g id="#eb6f18ff">
<path fill="#eb6f18" opacity="1.00" d=" M 8.28 7.31 C 11.94 3.10 19.23 2.92 23.17 6.83 C 28.05 11.23 27.09 20.53 20.95 23.36 C 20.36 22.04 19.74 20.74 19.03 19.48 C 21.19 17.39 22.77 13.97 20.79 11.22 C 18.83 7.62 13.11 7.58 11.16 11.20 C 9.28 13.68 10.54 16.80 12.27 18.95 C 13.43 17.29 14.73 15.73 15.98 14.15 C 16.11 17.64 16.13 21.13 16.11 24.62 C 11.76 24.71 7.51 22.04 6.14 17.84 C 5.35 14.28 5.49 10.01 8.28 7.31 Z" />
<path fill="#eb6f18" opacity="1.00" d=" M 10.03 24.41 C 13.92 25.68 18.00 25.66 21.87 24.35 C 20.15 25.85 18.54 28.07 16.04 28.07 C 13.45 28.21 11.84 25.84 10.03 24.41 Z" />
</g>
</svg>
