<?xml version="1.0" encoding="UTF-8" ?>
<!DOCTYPE svg PUBLIC "-//W3C//DTD SVG 1.1//EN" "http://www.w3.org/Graphics/SVG/1.1/DTD/svg11.dtd">
<svg width="32pt" height="32pt" viewBox="0 0 32 32" version="1.1" xmlns="http://www.w3.org/2000/svg">
<g id="#ffffffff">
<path fill="#ffffff" opacity="1.00" d=" M 14.28 0.00 L 17.63 0.00 C 25.05 0.59 31.35 6.99 32.00 14.38 L 32.00 17.58 C 31.36 24.99 25.04 31.32 17.64 32.00 L 14.38 32.00 C 7.01 31.35 0.63 25.08 0.00 17.69 L 0.00 14.33 C 0.60 6.97 6.92 0.63 14.28 0.00 M 19.79 9.38 C 14.57 9.37 9.36 9.39 4.15 9.37 C 4.14 9.99 4.12 11.22 4.10 11.84 C 9.15 12.08 14.22 11.49 19.25 12.01 C 20.85 13.25 19.84 15.65 20.23 17.38 C 20.82 17.38 21.99 17.39 22.57 17.39 C 22.57 12.85 22.62 8.31 22.52 3.78 C 19.11 3.69 19.89 7.04 19.79 9.38 M 9.37 27.83 C 9.96 27.86 11.15 27.93 11.74 27.97 C 11.87 26.16 12.08 24.37 12.21 22.57 C 17.50 22.58 22.79 22.60 28.09 22.54 C 27.91 21.67 27.73 20.80 27.56 19.93 C 22.29 20.08 17.03 20.35 11.78 19.75 C 11.83 18.04 11.88 16.33 11.92 14.62 C 11.29 14.60 10.02 14.56 9.39 14.54 C 9.38 18.97 9.37 23.40 9.37 27.83 Z" />
</g>
<g id="#00911fff">
<path fill="#00911f" opacity="1.00" d=" M 19.79 9.38 C 19.89 7.04 19.11 3.69 22.52 3.78 C 22.62 8.31 22.57 12.85 22.57 17.39 C 21.99 17.39 20.82 17.38 20.23 17.38 C 19.84 15.65 20.85 13.25 19.25 12.01 C 14.22 11.49 9.15 12.08 4.10 11.84 C 4.12 11.22 4.14 9.99 4.15 9.37 C 9.36 9.39 14.57 9.37 19.79 9.38 Z" />
</g>
<g id="#009220ff">
<path fill="#009220" opacity="1.00" d=" M 9.37 27.83 C 9.37 23.40 9.38 18.97 9.39 14.54 C 10.02 14.56 11.29 14.60 11.92 14.62 C 11.88 16.33 11.83 18.04 11.78 19.75 C 17.03 20.35 22.29 20.08 27.56 19.93 C 27.73 20.80 27.91 21.67 28.09 22.54 C 22.79 22.60 17.50 22.58 12.21 22.57 C 12.08 24.37 11.87 26.16 11.74 27.97 C 11.15 27.93 9.96 27.86 9.37 27.83 Z" />
</g>
</svg>
