<?xml version="1.0" encoding="UTF-8" ?>
<!DOCTYPE svg PUBLIC "-//W3C//DTD SVG 1.1//EN" "http://www.w3.org/Graphics/SVG/1.1/DTD/svg11.dtd">
<svg width="32pt" height="32pt" viewBox="0 0 32 32" version="1.1" xmlns="http://www.w3.org/2000/svg">
<g id="#e54846ff">
<path fill="#e54846" opacity="1.00" d=" M 5.56 3.63 C 8.64 2.71 12.34 2.75 15.44 3.62 C 17.06 5.88 17.90 8.58 18.99 11.12 C 20.59 11.12 22.18 11.12 23.78 11.11 C 23.91 8.68 24.45 6.28 25.81 4.22 C 26.37 4.73 27.47 5.73 28.03 6.23 C 27.70 7.79 27.39 9.37 27.11 10.94 C 28.74 11.11 30.37 11.27 32.00 11.46 L 32.00 16.11 C 31.12 17.05 30.21 17.95 29.30 18.85 C 26.41 18.16 23.62 18.87 21.40 20.80 C 20.38 20.83 19.35 20.86 18.33 20.89 C 17.56 21.55 16.80 22.21 16.03 22.88 C 16.32 24.77 15.23 26.25 14.07 27.59 C 13.53 27.46 12.47 27.19 11.93 27.05 C 10.86 28.86 8.88 28.94 7.02 29.08 C 6.80 28.64 6.37 27.77 6.16 27.33 C 3.49 27.83 0.79 25.84 1.52 22.95 C 1.14 22.60 0.38 21.90 0.00 21.55 L 0.00 18.28 C 0.39 18.01 1.18 17.47 1.57 17.19 C 0.82 14.74 2.86 13.23 4.66 12.09 C 4.93 9.33 3.92 5.97 5.56 3.63 M 8.04 6.42 C 8.02 7.98 8.00 9.55 7.99 11.12 C 10.40 11.11 12.82 11.11 15.23 11.11 C 14.57 9.56 13.91 8.02 13.26 6.47 C 11.52 6.45 9.78 6.44 8.04 6.42 M 7.32 16.39 C 4.75 17.32 3.95 21.04 6.06 22.85 C 8.04 24.98 11.96 23.83 12.57 21.01 C 13.52 18.07 10.10 15.10 7.32 16.39 Z" />
<path fill="#e54846" opacity="1.00" d=" M 24.31 20.46 C 27.64 18.47 32.17 22.18 30.75 25.82 C 29.91 28.94 25.46 30.06 23.29 27.67 C 21.15 25.69 21.67 21.75 24.31 20.46 M 26.14 23.20 C 24.49 23.53 25.19 26.21 26.78 25.69 C 28.38 25.34 27.72 22.73 26.14 23.20 Z" />
</g>
</svg>
