<?xml version="1.0" encoding="UTF-8" ?>
<!DOCTYPE svg PUBLIC "-//W3C//DTD SVG 1.1//EN" "http://www.w3.org/Graphics/SVG/1.1/DTD/svg11.dtd">
<svg width="64pt" height="64pt" viewBox="0 0 64 64" version="1.1" xmlns="http://www.w3.org/2000/svg">
<g id="#757575a7">
<path fill="#757575" opacity="0.65" d=" M 11.92 5.86 C 20.47 4.63 29.17 5.61 37.78 5.43 C 37.82 9.54 37.69 13.64 37.74 17.75 C 37.42 13.97 37.33 10.18 37.19 6.40 C 35.40 6.36 33.62 6.33 31.83 6.33 C 29.04 6.34 26.24 6.23 23.45 6.23 C 21.64 6.25 19.83 6.30 18.02 6.31 C 16.53 6.32 15.04 6.31 13.55 6.30 L 11.92 5.86 Z" />
</g>
<g id="#8b8b8bff">
<path fill="#8b8b8b" opacity="1.00" d=" M 39.73 5.71 C 43.41 9.24 46.91 12.94 50.58 16.47 C 50.64 16.94 50.76 17.86 50.82 18.33 C 47.48 18.29 44.13 18.33 40.79 18.31 C 40.51 17.81 39.95 16.82 39.67 16.32 C 39.72 12.78 39.68 9.24 39.73 5.71 Z" />
</g>
<g id="#d1d1d1ff">
<path fill="#d1d1d1" opacity="1.00" d=" M 11.74 6.38 L 13.55 6.30 C 15.04 6.31 16.53 6.32 18.02 6.31 C 17.99 10.01 17.89 13.71 17.55 17.40 L 17.44 18.38 C 17.36 19.19 17.30 20.01 17.25 20.83 L 17.20 21.90 C 20.76 22.36 24.34 22.49 27.91 22.66 C 26.76 23.58 25.62 24.50 24.47 25.42 C 22.06 25.42 19.65 25.42 17.24 25.41 C 17.26 26.46 17.29 27.51 17.30 28.56 C 19.63 28.56 21.96 28.56 24.30 28.55 C 26.00 29.69 27.68 30.86 29.42 31.94 C 25.37 31.61 21.31 31.98 17.31 32.63 C 17.29 33.62 17.27 34.61 17.24 35.61 C 19.37 35.67 21.50 35.74 23.63 35.74 C 26.01 36.83 28.49 37.76 31.08 38.22 C 26.47 38.13 21.92 38.97 17.39 39.72 C 17.30 40.71 17.20 41.70 17.10 42.69 C 19.06 42.79 21.01 43.02 22.94 43.38 C 25.64 43.99 28.38 44.47 31.09 45.03 C 28.09 45.48 25.09 45.91 22.14 46.62 C 20.46 46.92 18.77 47.13 17.08 47.27 C 17.23 48.22 17.37 49.17 17.52 50.12 L 17.63 50.83 C 17.79 52.73 17.86 54.63 17.93 56.54 C 16.14 56.89 14.35 57.24 12.54 57.54 L 11.74 57.67 C 11.50 40.58 11.50 23.47 11.74 6.38 Z" />
</g>
<g id="#c5c5c5ff">
<path fill="#c5c5c5" opacity="1.00" d=" M 18.02 6.31 C 19.83 6.30 21.64 6.25 23.45 6.23 C 23.35 9.68 23.21 13.12 23.14 16.57 C 21.28 16.87 19.41 17.13 17.55 17.40 C 17.89 13.71 17.99 10.01 18.02 6.31 Z" />
<path fill="#c5c5c5" opacity="1.00" d=" M 17.63 50.83 C 19.42 51.00 21.21 51.20 23.00 51.46 C 24.12 53.45 25.12 55.52 25.57 57.78 C 21.75 57.80 17.94 58.03 14.12 58.11 L 12.54 57.54 C 14.35 57.24 16.14 56.89 17.93 56.54 C 17.86 54.63 17.79 52.73 17.63 50.83 Z" />
</g>
<g id="#b3b3b3ff">
<path fill="#b3b3b3" opacity="1.00" d=" M 23.45 6.23 C 26.24 6.23 29.04 6.34 31.83 6.33 C 31.64 10.43 32.68 15.30 29.26 18.41 C 25.32 18.36 21.38 18.33 17.44 18.38 L 17.55 17.40 C 19.41 17.13 21.28 16.87 23.14 16.57 C 23.21 13.12 23.35 9.68 23.45 6.23 Z" />
</g>
<g id="#9f9f9fff">
<path fill="#9f9f9f" opacity="1.00" d=" M 31.83 6.33 C 33.62 6.33 35.40 6.36 37.19 6.40 C 37.33 10.18 37.42 13.97 37.74 17.75 C 38.52 18.56 39.28 19.39 40.02 20.23 C 42.32 23.62 42.54 27.75 41.99 31.69 C 37.82 32.15 33.61 32.39 29.42 31.94 C 27.68 30.86 26.00 29.69 24.30 28.55 C 28.41 27.99 33.55 29.92 36.96 26.99 C 33.64 24.00 28.53 25.96 24.47 25.42 C 25.62 24.50 26.76 23.58 27.91 22.66 C 24.34 22.49 20.76 22.36 17.20 21.90 L 17.25 20.83 C 23.32 21.09 29.40 21.30 35.48 21.39 C 35.63 20.37 35.78 19.36 35.93 18.35 C 33.71 18.35 31.49 18.39 29.26 18.41 C 32.68 15.30 31.64 10.43 31.83 6.33 Z" />
<path fill="#9f9f9f" opacity="1.00" d=" M 32.35 50.32 C 34.65 50.44 36.93 50.68 39.22 50.90 C 39.50 53.18 39.78 55.47 40.07 57.75 C 37.27 57.72 34.48 57.76 31.69 57.78 C 31.90 55.29 32.12 52.80 32.35 50.32 Z" />
</g>
<g id="#4f4f4fff">
<path fill="#4f4f4f" opacity="1.00" d=" M 17.25 20.83 C 17.30 20.01 17.36 19.19 17.44 18.38 C 21.38 18.33 25.32 18.36 29.26 18.41 C 31.49 18.39 33.71 18.35 35.93 18.35 C 35.78 19.36 35.63 20.37 35.48 21.39 C 29.40 21.30 23.32 21.09 17.25 20.83 Z" />
</g>
<g id="#7e7e7eff">
<path fill="#7e7e7e" opacity="1.00" d=" M 40.02 20.23 C 43.99 20.25 47.96 20.29 51.93 20.52 C 50.96 32.02 52.10 43.61 51.47 55.12 C 51.53 58.04 48.20 57.67 46.20 57.80 C 45.98 55.65 45.72 53.51 45.44 51.37 C 43.36 51.24 41.28 51.10 39.22 50.90 C 36.93 50.68 34.65 50.44 32.35 50.32 L 31.35 50.29 C 36.48 49.93 41.61 49.43 46.76 49.81 C 46.75 49.21 46.74 48.02 46.73 47.43 C 44.36 47.20 41.99 46.93 39.61 46.74 C 41.45 46.27 43.26 45.67 45.07 45.08 C 43.60 44.44 42.14 43.80 40.64 43.23 C 42.67 43.00 44.69 42.73 46.72 42.54 C 46.74 41.94 46.78 40.75 46.79 40.16 C 42.10 40.13 37.41 39.86 32.72 39.87 C 37.17 39.49 41.58 38.74 46.00 38.07 C 44.55 37.37 43.10 36.67 41.62 36.03 C 43.30 35.86 44.98 35.65 46.66 35.46 C 46.71 34.79 46.81 33.45 46.86 32.78 C 37.01 32.38 27.15 33.58 17.31 32.63 C 21.31 31.98 25.37 31.61 29.42 31.94 C 33.61 32.39 37.82 32.15 41.99 31.69 C 42.54 27.75 42.32 23.62 40.02 20.23 Z" />
</g>
<g id="#5555559f">
<path fill="#555555" opacity="0.62" d=" M 51.93 20.52 L 52.07 19.28 C 53.24 30.15 52.25 41.15 52.63 52.07 C 52.55 54.32 53.10 58.18 49.96 58.50 C 40.33 59.02 30.66 58.54 21.02 58.92 C 18.12 59.09 15.21 58.83 12.36 58.23 L 14.12 58.11 C 17.94 58.03 21.75 57.80 25.57 57.78 C 27.61 57.78 29.65 57.79 31.69 57.78 C 34.48 57.76 37.27 57.72 40.07 57.75 C 42.11 57.78 44.16 57.82 46.20 57.80 C 48.20 57.67 51.53 58.04 51.47 55.12 C 52.10 43.61 50.96 32.02 51.93 20.52 Z" />
</g>
<g id="#545454ff">
<path fill="#545454" opacity="1.00" d=" M 17.24 25.41 C 19.65 25.42 22.06 25.42 24.47 25.42 C 28.53 25.96 33.64 24.00 36.96 26.99 C 33.55 29.92 28.41 27.99 24.30 28.55 C 21.96 28.56 19.63 28.56 17.30 28.56 C 17.29 27.51 17.26 26.46 17.24 25.41 Z" />
</g>
<g id="#525252ff">
<path fill="#525252" opacity="1.00" d=" M 17.24 35.61 C 17.27 34.61 17.29 33.62 17.31 32.63 C 27.15 33.58 37.01 32.38 46.86 32.78 C 46.81 33.45 46.71 34.79 46.66 35.46 C 44.98 35.65 43.30 35.86 41.62 36.03 C 35.63 35.48 29.63 35.44 23.63 35.74 C 21.50 35.74 19.37 35.67 17.24 35.61 Z" />
</g>
<g id="#9c9c9cff">
<path fill="#9c9c9c" opacity="1.00" d=" M 23.63 35.74 C 29.63 35.44 35.63 35.48 41.62 36.03 C 43.10 36.67 44.55 37.37 46.00 38.07 C 41.58 38.74 37.17 39.49 32.72 39.87 C 27.61 40.14 22.49 40.17 17.39 39.72 C 21.92 38.97 26.47 38.13 31.08 38.22 C 28.49 37.76 26.01 36.83 23.63 35.74 Z" />
</g>
<g id="#4e4e4eff">
<path fill="#4e4e4e" opacity="1.00" d=" M 17.10 42.69 C 17.20 41.70 17.30 40.71 17.39 39.72 C 22.49 40.17 27.61 40.14 32.72 39.87 C 37.41 39.86 42.10 40.13 46.79 40.16 C 46.78 40.75 46.74 41.94 46.72 42.54 C 44.69 42.73 42.67 43.00 40.64 43.23 C 34.74 42.55 28.82 42.40 22.94 43.38 C 21.01 43.02 19.06 42.79 17.10 42.69 Z" />
<path fill="#4e4e4e" opacity="1.00" d=" M 17.08 47.27 C 18.77 47.13 20.46 46.92 22.14 46.62 C 27.94 47.49 33.79 47.38 39.61 46.74 C 41.99 46.93 44.36 47.20 46.73 47.43 C 46.74 48.02 46.75 49.21 46.76 49.81 C 41.61 49.43 36.48 49.93 31.35 50.29 C 26.74 50.32 22.13 50.19 17.52 50.12 C 17.37 49.17 17.23 48.22 17.08 47.27 Z" />
</g>
<g id="#9e9e9eff">
<path fill="#9e9e9e" opacity="1.00" d=" M 22.94 43.38 C 28.82 42.40 34.74 42.55 40.64 43.23 C 42.14 43.80 43.60 44.44 45.07 45.08 C 43.26 45.67 41.45 46.27 39.61 46.74 C 33.79 47.38 27.94 47.49 22.14 46.62 C 25.09 45.91 28.09 45.48 31.09 45.03 C 28.38 44.47 25.64 43.99 22.94 43.38 Z" />
</g>
<g id="#b2b2b2ff">
<path fill="#b2b2b2" opacity="1.00" d=" M 17.52 50.12 C 22.13 50.19 26.74 50.32 31.35 50.29 L 32.35 50.32 C 32.12 52.80 31.90 55.29 31.69 57.78 C 29.65 57.79 27.61 57.78 25.57 57.78 C 25.12 55.52 24.12 53.45 23.00 51.46 C 21.21 51.20 19.42 51.00 17.63 50.83 L 17.52 50.12 Z" />
</g>
<g id="#8d8d8dff">
<path fill="#8d8d8d" opacity="1.00" d=" M 39.22 50.90 C 41.28 51.10 43.36 51.24 45.44 51.37 C 45.72 53.51 45.98 55.65 46.20 57.80 C 44.16 57.82 42.11 57.78 40.07 57.75 C 39.78 55.47 39.50 53.18 39.22 50.90 Z" />
</g>
</svg>
