<?xml version="1.0" encoding="UTF-8" ?>
<!DOCTYPE svg PUBLIC "-//W3C//DTD SVG 1.1//EN" "http://www.w3.org/Graphics/SVG/1.1/DTD/svg11.dtd">
<svg width="120pt" height="120pt" viewBox="0 0 120 120" version="1.1" xmlns="http://www.w3.org/2000/svg">
<g id="#fb453bfb">
<path fill="#fb453b" opacity="1.00" d=" M 31.42 0.00 L 88.58 0.00 C 97.34 0.99 107.42 2.25 113.17 9.92 C 110.15 9.12 107.25 7.71 104.00 8.06 C 73.99 7.90 43.98 8.05 13.97 7.98 C 11.45 8.01 9.24 9.38 6.83 9.94 C 12.57 2.25 22.66 1.00 31.42 0.00 Z" />
</g>
<g id="#fe4037fe">
<path fill="#fe4037" opacity="1.00" d=" M 6.83 9.94 C 9.24 9.38 11.45 8.01 13.97 7.98 C 43.98 8.05 73.99 7.90 104.00 8.06 C 107.25 7.71 110.15 9.12 113.17 9.92 C 115.13 12.30 116.76 14.98 117.56 17.98 C 113.96 19.58 109.75 17.24 106.01 18.02 C 71.51 17.88 36.84 18.13 2.43 17.98 C 3.22 14.98 4.87 12.31 6.83 9.94 Z" />
</g>
<g id="#fe3a31fe">
<path fill="#fe3a31" opacity="1.00" d=" M 1.08 27.01 C 1.18 23.95 1.32 20.86 2.43 17.98 C 36.84 18.13 71.51 17.88 106.01 18.02 C 109.75 17.24 113.96 19.58 117.56 17.98 C 118.37 20.24 119.12 22.56 119.00 24.99 C 106.33 25.22 93.62 24.44 80.98 25.56 C 78.23 25.47 75.63 23.66 72.87 24.52 C 68.32 21.45 63.43 24.58 59.40 26.89 C 39.99 26.69 20.52 27.24 1.08 27.01 Z" />
</g>
<g id="#fff8f8ff">
<path fill="#fff8f8" opacity="1.00" d=" M 59.40 26.89 C 63.43 24.58 68.32 21.45 72.87 24.52 C 74.79 25.48 75.17 27.21 74.32 29.08 C 66.93 32.62 59.87 36.82 52.77 40.90 C 43.72 46.15 34.54 51.20 25.56 56.56 C 22.41 57.90 19.86 55.97 17.35 54.60 C 12.03 51.13 6.50 48.01 0.96 44.91 C 1.30 41.84 0.02 38.22 2.03 35.56 C 7.28 37.89 11.77 41.58 16.87 44.19 C 19.59 45.55 22.14 48.14 25.61 46.59 C 36.98 40.21 48.13 33.44 59.40 26.89 Z" />
<path fill="#fff8f8" opacity="1.00" d=" M 62.85 44.94 C 66.97 41.68 72.02 43.40 75.44 46.96 C 72.76 49.85 69.12 51.52 65.96 53.81 C 54.92 59.22 44.50 65.80 33.77 71.78 C 29.76 73.69 26.38 78.20 21.36 76.66 C 14.26 73.28 7.77 68.79 0.97 64.88 C 1.30 61.83 0.03 58.23 2.02 55.59 C 8.03 58.53 13.51 62.38 19.30 65.70 C 21.55 67.10 24.75 67.60 27.01 65.99 C 38.65 58.47 51.10 52.28 62.85 44.94 Z" />
</g>
<g id="#ff362dff">
<path fill="#ff362d" opacity="1.00" d=" M 72.87 24.52 C 75.63 23.66 78.23 25.47 80.98 25.56 C 93.62 24.44 106.33 25.22 119.00 24.99 C 119.06 27.09 119.09 29.18 119.19 31.28 C 118.88 31.38 118.27 31.57 117.96 31.67 C 104.34 30.30 90.65 31.34 77.00 30.99 C 75.56 31.29 74.88 30.14 74.32 29.08 C 75.17 27.21 74.79 25.48 72.87 24.52 Z" />
</g>
<g id="#fe332aff">
<path fill="#fe332a" opacity="1.00" d=" M 1.08 27.01 C 20.52 27.24 39.99 26.69 59.40 26.89 C 48.13 33.44 36.98 40.21 25.61 46.59 C 22.14 48.14 19.59 45.55 16.87 44.19 C 11.77 41.58 7.28 37.89 2.03 35.56 C 1.52 35.34 0.51 34.92 0.00 34.70 L 0.00 31.47 C 0.80 30.11 0.95 28.54 1.08 27.01 Z" />
</g>
<g id="#fe3128fe">
<path fill="#fe3128" opacity="1.00" d=" M 74.32 29.08 C 74.88 30.14 75.56 31.29 77.00 30.99 C 90.65 31.34 104.34 30.30 117.96 31.67 C 118.27 31.57 118.88 31.38 119.19 31.28 L 120.00 31.00 L 120.00 36.72 C 119.64 37.23 118.93 38.25 118.58 38.76 C 101.75 39.43 84.90 38.68 68.07 39.06 C 66.45 39.61 65.40 41.13 64.05 42.12 C 60.31 41.89 56.23 42.74 52.77 40.90 C 59.87 36.82 66.93 32.62 74.32 29.08 Z" />
</g>
<g id="#fdcdcafd">
<path fill="#fdcdca" opacity="1.00" d=" M 0.00 34.70 C 0.51 34.92 1.52 35.34 2.03 35.56 C 0.02 38.22 1.30 41.84 0.96 44.91 L 0.00 44.96 L 0.00 34.70 Z" />
</g>
<g id="#fc2b23ff">
<path fill="#fc2b23" opacity="1.00" d=" M 118.58 38.76 C 118.93 38.25 119.64 37.23 120.00 36.72 L 120.00 47.00 C 105.15 46.97 90.29 47.06 75.44 46.96 C 72.02 43.40 66.97 41.68 62.85 44.94 C 63.23 43.99 63.63 43.05 64.05 42.12 C 65.40 41.13 66.45 39.61 68.07 39.06 C 84.90 38.68 101.75 39.43 118.58 38.76 Z" />
</g>
<g id="#f6261eff">
<path fill="#f6261e" opacity="1.00" d=" M 25.56 56.56 C 34.54 51.20 43.72 46.15 52.77 40.90 C 56.23 42.74 60.31 41.89 64.05 42.12 C 63.63 43.05 63.23 43.99 62.85 44.94 C 51.10 52.28 38.65 58.47 27.01 65.99 C 24.75 67.60 21.55 67.10 19.30 65.70 C 13.51 62.38 8.03 58.53 2.02 55.59 C 1.52 55.36 0.51 54.89 0.00 54.66 L 0.00 44.96 L 0.96 44.91 C 6.50 48.01 12.03 51.13 17.35 54.60 C 19.86 55.97 22.41 57.90 25.56 56.56 Z" />
</g>
<g id="#f7231bff">
<path fill="#f7231b" opacity="1.00" d=" M 75.44 46.96 C 90.29 47.06 105.15 46.97 120.00 47.00 L 120.00 57.00 C 102.17 56.88 84.32 57.21 66.50 56.90 C 66.32 55.87 66.16 54.84 65.96 53.81 C 69.12 51.52 72.76 49.85 75.44 46.96 Z" />
</g>
<g id="#f01b14ff">
<path fill="#f01b14" opacity="1.00" d=" M 33.77 71.78 C 44.50 65.80 54.92 59.22 65.96 53.81 C 66.16 54.84 66.32 55.87 66.50 56.90 C 84.32 57.21 102.17 56.88 120.00 57.00 L 120.00 64.00 C 107.98 63.60 95.99 64.73 83.99 64.07 C 80.59 64.84 76.85 63.43 73.65 64.88 C 71.05 64.26 68.31 61.93 65.66 63.63 C 52.07 70.87 39.19 79.36 25.64 86.67 C 21.45 87.98 18.27 84.86 14.88 83.18 C 10.44 80.91 6.47 77.83 2.03 75.58 C 1.52 75.35 0.51 74.89 0.00 74.66 L 0.00 64.96 L 0.97 64.88 C 7.77 68.79 14.26 73.28 21.36 76.66 C 26.38 78.20 29.76 73.69 33.77 71.78 Z" />
</g>
<g id="#fecac7ff">
<path fill="#fecac7" opacity="1.00" d=" M 0.00 54.66 C 0.51 54.89 1.52 55.36 2.02 55.59 C 0.03 58.23 1.30 61.83 0.97 64.88 L 0.00 64.96 L 0.00 54.66 Z" />
</g>
<g id="#fef8f7ff">
<path fill="#fef8f7" opacity="1.00" d=" M 65.66 63.63 C 68.31 61.93 71.05 64.26 73.65 64.88 C 77.35 68.17 71.24 70.20 68.93 71.80 C 62.24 76.04 54.86 79.20 48.49 83.92 C 41.43 87.50 34.60 91.52 27.85 95.64 C 25.48 96.85 22.35 97.56 20.00 96.02 C 13.63 92.36 7.07 88.99 0.94 84.93 C 1.28 81.85 0.03 78.24 2.03 75.58 C 6.47 77.83 10.44 80.91 14.88 83.18 C 18.27 84.86 21.45 87.98 25.64 86.67 C 39.19 79.36 52.07 70.87 65.66 63.63 Z" />
</g>
<g id="#ef1710ff">
<path fill="#ef1710" opacity="1.00" d=" M 73.65 64.88 C 76.85 63.43 80.59 64.84 83.99 64.07 C 95.99 64.73 107.98 63.60 120.00 64.00 L 120.00 74.00 C 103.42 73.94 86.85 74.08 70.28 73.99 C 70.78 72.58 70.84 71.46 68.93 71.80 C 71.24 70.20 77.35 68.17 73.65 64.88 Z" />
</g>
<g id="#ea110aff">
<path fill="#ea110a" opacity="1.00" d=" M 48.49 83.92 C 54.86 79.20 62.24 76.04 68.93 71.80 C 70.84 71.46 70.78 72.58 70.28 73.99 C 86.85 74.08 103.42 73.94 120.00 74.00 L 120.00 82.64 C 116.82 88.37 109.27 85.66 103.76 85.56 C 88.06 85.58 72.38 85.35 56.69 85.73 C 53.84 85.99 51.17 84.69 48.49 83.92 Z" />
</g>
<g id="#fac7c5fd">
<path fill="#fac7c5" opacity="1.00" d=" M 0.00 74.66 C 0.51 74.89 1.52 75.35 2.03 75.58 C 0.03 78.24 1.28 81.85 0.94 84.93 L 0.00 84.95 L 0.00 74.66 Z" />
</g>
<g id="#e40804ff">
<path fill="#e40804" opacity="1.00" d=" M 103.76 85.56 C 109.27 85.66 116.82 88.37 120.00 82.64 L 120.00 88.57 C 119.36 92.06 119.13 95.65 118.22 99.09 C 114.24 98.07 110.09 97.93 106.01 97.97 C 82.67 97.96 59.34 98.10 36.00 97.95 C 32.74 98.96 30.46 96.80 27.85 95.64 C 34.60 91.52 41.43 87.50 48.49 83.92 C 51.17 84.69 53.84 85.99 56.69 85.73 C 72.38 85.35 88.06 85.58 103.76 85.56 Z" />
</g>
<g id="#dd0101fd">
<path fill="#dd0101" opacity="1.00" d=" M 0.00 84.95 L 0.94 84.93 C 7.07 88.99 13.63 92.36 20.00 96.02 C 22.35 97.56 25.48 96.85 27.85 95.64 C 30.46 96.80 32.74 98.96 36.00 97.95 C 59.34 98.10 82.67 97.96 106.01 97.97 C 110.09 97.93 114.24 98.07 118.22 99.09 C 116.76 108.33 109.37 116.49 100.03 118.03 C 96.31 119.36 92.00 118.03 88.50 120.00 L 31.41 120.00 C 24.53 118.51 16.65 118.82 10.98 114.00 C 2.44 108.62 1.06 97.69 0.00 88.59 L 0.00 84.95 Z" />
</g>
<g id="#0900000b">
<path fill="#090000" opacity="0.04" d=" M 118.22 99.09 C 119.13 95.65 119.36 92.06 120.00 88.57 L 120.00 120.00 L 88.50 120.00 C 92.00 118.03 96.31 119.36 100.03 118.03 C 109.37 116.49 116.76 108.33 118.22 99.09 Z" />
</g>
</svg>
