<?xml version="1.0" encoding="UTF-8" ?>
<!DOCTYPE svg PUBLIC "-//W3C//DTD SVG 1.1//EN" "http://www.w3.org/Graphics/SVG/1.1/DTD/svg11.dtd">
<svg width="60pt" height="60pt" viewBox="0 0 60 60" version="1.1" xmlns="http://www.w3.org/2000/svg">
<g id="#fefefeff">
<path fill="#fefefe" opacity="1.00" d=" M 0.00 0.00 L 60.00 0.00 L 60.00 60.00 L 0.00 60.00 L 0.00 0.00 M 13.07 21.16 C 10.84 27.03 12.13 34.00 16.17 38.78 C 18.42 41.63 21.84 43.10 24.60 45.34 C 27.29 47.37 28.38 50.83 31.17 52.76 C 33.83 50.20 35.38 46.61 38.54 44.57 C 41.46 42.51 44.78 40.78 46.74 37.67 C 51.19 31.56 51.45 22.36 46.42 16.51 C 42.23 10.88 34.78 8.07 27.90 9.23 C 21.31 10.18 15.32 14.85 13.07 21.16 Z" />
</g>
<g id="#dc3a36ff">
<path fill="#dc3a36" opacity="1.00" d=" M 13.07 21.16 C 15.32 14.85 21.31 10.18 27.90 9.23 C 34.78 8.07 42.23 10.88 46.42 16.51 C 51.45 22.36 51.19 31.56 46.74 37.67 C 44.78 40.78 41.46 42.51 38.54 44.57 C 35.38 46.61 33.83 50.20 31.17 52.76 C 28.38 50.83 27.29 47.37 24.60 45.34 C 21.84 43.10 18.42 41.63 16.17 38.78 C 12.13 34.00 10.84 27.03 13.07 21.16 Z" />
</g>
</svg>
