<?xml version="1.0" encoding="UTF-8" ?>
<!DOCTYPE svg PUBLIC "-//W3C//DTD SVG 1.1//EN" "http://www.w3.org/Graphics/SVG/1.1/DTD/svg11.dtd">
<svg width="32pt" height="32pt" viewBox="0 0 32 32" version="1.1" xmlns="http://www.w3.org/2000/svg">
<g id="#000000fe">
<path fill="#000000" opacity="1.00" d=" M 4.62 8.54 C 9.54 1.63 20.88 1.20 26.51 7.44 C 30.36 11.58 29.99 17.65 32.00 22.66 L 32.00 26.16 C 30.68 27.45 29.28 28.66 27.88 29.86 C 25.81 25.69 27.05 21.29 27.77 17.01 C 28.46 10.20 21.62 4.45 15.05 5.32 C 9.10 5.44 3.62 10.98 4.26 17.03 C 4.47 20.82 6.90 25.03 4.23 28.47 C 2.44 29.61 1.20 27.82 0.00 26.72 L 0.00 22.62 C 1.86 18.03 1.72 12.68 4.62 8.54 Z" />
<path fill="#000000" opacity="1.00" d=" M 12.70 17.99 C 12.75 14.68 12.32 11.17 14.13 8.19 C 15.61 14.27 15.48 20.72 14.16 26.81 C 12.43 24.16 12.72 20.99 12.70 17.99 Z" />
<path fill="#000000" opacity="1.00" d=" M 21.44 13.77 L 23.57 13.77 C 23.61 17.72 23.61 21.66 23.57 25.61 L 21.43 25.58 C 21.40 21.64 21.40 17.70 21.44 13.77 Z" />
<path fill="#000000" opacity="1.00" d=" M 8.55 14.79 C 9.05 14.78 10.05 14.76 10.56 14.75 C 10.60 18.37 10.60 21.99 10.57 25.61 C 10.07 25.61 9.05 25.61 8.54 25.60 C 8.51 22.00 8.51 18.40 8.55 14.79 Z" />
<path fill="#000000" opacity="1.00" d=" M 17.09 18.24 C 17.67 18.23 18.83 18.23 19.41 18.23 C 19.27 21.14 19.93 24.37 17.75 26.76 C 17.15 23.95 17.20 21.08 17.09 18.24 Z" />
</g>
</svg>
