<?xml version="1.0" encoding="UTF-8" ?>
<!DOCTYPE svg PUBLIC "-//W3C//DTD SVG 1.1//EN" "http://www.w3.org/Graphics/SVG/1.1/DTD/svg11.dtd">
<svg width="128pt" height="128pt" viewBox="0 0 128 128" version="1.1" xmlns="http://www.w3.org/2000/svg">
<g id="#000000ff">
<path fill="#000000" opacity="1.00" d=" M 0.00 0.00 L 128.00 0.00 L 128.00 128.00 L 0.00 128.00 L 0.00 0.00 M 12.77 50.80 C 12.91 61.57 12.34 72.35 12.83 83.11 C 13.31 82.96 14.26 82.66 14.74 82.51 C 15.25 72.95 14.48 63.36 14.89 53.79 C 21.19 56.53 26.65 60.89 32.72 64.12 C 32.71 63.58 32.69 62.52 32.68 61.98 C 28.22 58.47 23.40 55.43 18.49 52.59 C 16.76 51.51 14.71 51.26 12.77 50.80 M 95.54 61.97 L 95.17 64.01 C 101.49 61.13 106.86 56.50 113.23 53.75 C 113.65 63.32 112.92 72.90 113.38 82.46 C 113.83 82.65 114.74 83.02 115.20 83.21 C 115.83 72.41 115.15 61.58 115.30 50.77 C 107.76 52.32 101.66 57.60 95.54 61.97 Z" />
</g>
<g id="#b7bed5ff">
<path fill="#b7bed5" opacity="1.00" d=" M 12.77 50.80 C 14.71 51.26 16.76 51.51 18.49 52.59 C 23.40 55.43 28.22 58.47 32.68 61.98 C 32.69 62.52 32.71 63.58 32.72 64.12 C 26.65 60.89 21.19 56.53 14.89 53.79 C 14.48 63.36 15.25 72.95 14.74 82.51 C 14.26 82.66 13.31 82.96 12.83 83.11 C 12.34 72.35 12.91 61.57 12.77 50.80 Z" />
<path fill="#b7bed5" opacity="1.00" d=" M 95.54 61.97 C 101.66 57.60 107.76 52.32 115.30 50.77 C 115.15 61.58 115.83 72.41 115.20 83.21 C 114.74 83.02 113.83 82.65 113.38 82.46 C 112.92 72.90 113.65 63.32 113.23 53.75 C 106.86 56.50 101.49 61.13 95.17 64.01 L 95.54 61.97 Z" />
</g>
</svg>
