<?xml version="1.0" encoding="UTF-8" ?>
<!DOCTYPE svg PUBLIC "-//W3C//DTD SVG 1.1//EN" "http://www.w3.org/Graphics/SVG/1.1/DTD/svg11.dtd">
<svg width="72pt" height="72pt" viewBox="0 0 72 72" version="1.1" xmlns="http://www.w3.org/2000/svg">
<g id="#070700fd">
<path fill="#070700" opacity="1.00" d=" M 9.06 14.92 C 16.78 9.31 28.59 10.19 35.48 16.77 C 34.96 18.72 34.84 20.76 34.28 22.70 C 27.54 16.88 16.81 15.93 9.39 20.99 C 9.14 18.98 9.30 16.94 9.06 14.92 Z" />
<path fill="#070700" opacity="1.00" d=" M 8.87 29.03 C 11.58 22.31 20.21 19.10 26.67 22.36 C 30.48 24.12 32.96 27.81 34.05 31.77 C 35.61 31.92 37.17 32.07 38.73 32.25 C 41.63 24.72 51.52 20.91 58.37 25.64 C 66.31 30.24 66.47 43.00 58.62 47.76 C 56.02 47.28 53.64 45.89 50.97 45.67 C 47.99 45.15 45.04 46.15 42.07 46.17 C 39.40 43.85 38.60 40.32 37.89 37.02 C 37.23 34.87 33.77 35.64 33.69 37.82 C 31.86 44.75 23.94 49.21 17.09 46.87 C 9.79 44.86 5.60 35.90 8.87 29.03 M 19.39 26.53 C 13.14 27.48 10.84 36.41 15.80 40.28 C 20.24 44.66 28.65 41.20 28.84 35.01 C 29.55 29.92 24.35 25.33 19.39 26.53 M 48.33 29.39 C 43.01 31.37 41.68 39.25 46.22 42.75 C 50.55 46.87 58.36 43.88 59.21 38.09 C 60.48 32.25 53.77 26.79 48.33 29.39 Z" />
<path fill="#070700" opacity="1.00" d=" M 34.90 55.65 C 40.45 57.90 46.58 54.66 48.61 49.23 C 49.85 49.75 51.10 50.28 52.35 50.80 C 50.88 53.67 49.20 56.63 46.32 58.29 C 42.52 60.83 37.66 60.86 33.44 59.43 C 33.93 58.17 34.41 56.91 34.90 55.65 Z" />
</g>
<g id="#fecb00ff">
<path fill="#fecb00" opacity="1.00" d=" M 19.39 26.53 C 24.35 25.33 29.55 29.92 28.84 35.01 C 28.65 41.20 20.24 44.66 15.80 40.28 C 10.84 36.41 13.14 27.48 19.39 26.53 Z" />
<path fill="#fecb00" opacity="1.00" d=" M 48.33 29.39 C 53.77 26.79 60.48 32.25 59.21 38.09 C 58.36 43.88 50.55 46.87 46.22 42.75 C 41.68 39.25 43.01 31.37 48.33 29.39 Z" />
</g>
</svg>
