<?xml version="1.0" encoding="UTF-8" ?>
<!DOCTYPE svg PUBLIC "-//W3C//DTD SVG 1.1//EN" "http://www.w3.org/Graphics/SVG/1.1/DTD/svg11.dtd">
<svg width="16pt" height="15pt" viewBox="0 0 16 15" version="1.1" xmlns="http://www.w3.org/2000/svg">
<g id="#2b2b3c8b">
<path fill="#2b2b3c" opacity="0.55" d=" M 4.29 4.41 C 6.52 3.77 8.21 2.14 10.13 0.97 C 12.55 1.32 13.73 4.01 15.24 5.69 C 13.30 7.05 12.21 9.10 11.23 11.19 C 8.45 13.27 4.78 13.79 1.43 14.41 C 2.03 10.99 3.12 7.68 4.29 4.41 M 10.05 2.23 C 9.68 4.03 11.94 6.30 13.74 5.89 C 13.53 4.33 11.62 2.41 10.05 2.23 M 5.19 5.19 C 4.64 7.38 3.62 9.43 3.14 11.63 C 3.75 12.10 4.98 13.04 5.59 13.50 C 5.02 12.79 4.43 12.09 3.82 11.41 C 5.40 9.71 6.66 7.75 7.54 5.61 C 8.35 6.41 9.81 7.18 8.89 8.50 C 7.86 9.46 6.68 10.22 5.36 10.77 C 5.94 11.31 6.52 11.84 7.12 12.35 C 8.22 11.65 9.36 11.01 10.53 10.44 C 10.95 9.29 11.41 8.15 11.84 7.01 C 10.85 6.00 9.91 4.92 8.77 4.07 C 7.47 3.92 6.36 4.77 5.19 5.19 Z" />
</g>
<g id="#0404060d">
<path fill="#040406" opacity="0.05" d=" M 5.19 5.19 C 6.36 4.77 7.47 3.92 8.77 4.07 C 9.91 4.92 10.85 6.00 11.84 7.01 C 11.41 8.15 10.95 9.29 10.53 10.44 C 9.36 11.01 8.22 11.65 7.12 12.35 C 6.52 11.84 5.94 11.31 5.36 10.77 C 6.68 10.22 7.86 9.46 8.89 8.50 C 9.81 7.18 8.35 6.41 7.54 5.61 C 6.66 7.75 5.40 9.71 3.82 11.41 C 4.43 12.09 5.02 12.79 5.59 13.50 C 4.98 13.04 3.75 12.10 3.14 11.63 C 3.62 9.43 4.64 7.38 5.19 5.19 Z" />
</g>
</svg>
