<?xml version="1.0" encoding="UTF-8" ?>
<!DOCTYPE svg PUBLIC "-//W3C//DTD SVG 1.1//EN" "http://www.w3.org/Graphics/SVG/1.1/DTD/svg11.dtd">
<svg width="120pt" height="120pt" viewBox="0 0 120 120" version="1.1" xmlns="http://www.w3.org/2000/svg">
<g id="#ffffffff">
<path fill="#ffffff" opacity="1.00" d=" M 49.57 8.86 C 62.69 6.38 76.76 9.51 87.59 17.32 C 96.30 23.50 102.97 32.53 106.21 42.72 C 110.44 55.94 109.02 70.98 102.01 83.01 C 94.71 95.77 81.59 105.12 67.03 107.46 C 53.97 109.76 40.02 106.60 29.31 98.76 C 17.97 90.70 10.27 77.68 8.82 63.83 C 7.02 49.23 12.16 33.98 22.42 23.43 C 29.64 15.89 39.27 10.66 49.57 8.86 M 23.75 31.75 C 31.07 27.94 40.24 28.02 47.34 32.31 C 56.01 28.93 66.33 29.49 74.10 34.81 C 83.20 40.75 88.15 52.31 86.10 62.99 C 85.27 68.68 82.17 73.69 78.52 78.01 C 83.57 78.12 88.91 77.95 93.42 75.39 C 98.59 72.53 101.84 66.79 102.16 60.95 C 103.13 46.77 96.64 32.30 85.32 23.67 C 77.10 17.18 66.46 13.88 56.01 14.53 C 43.40 15.13 31.41 21.78 23.75 31.75 M 51.70 36.04 C 58.90 45.25 59.36 57.41 64.49 67.60 C 66.25 71.18 68.14 75.19 72.06 76.81 C 77.59 72.57 81.37 65.97 81.53 58.93 C 81.98 50.02 76.60 41.26 68.58 37.43 C 63.37 34.78 57.28 34.51 51.70 36.04 M 26.70 38.74 C 20.89 41.42 17.00 47.10 15.27 53.12 C 13.10 68.61 20.57 84.77 33.30 93.70 C 42.61 100.39 54.64 103.19 65.94 101.14 C 77.10 99.27 87.34 92.78 93.96 83.63 C 86.43 85.43 78.56 85.45 71.08 83.43 C 66.52 84.98 61.81 86.49 56.91 86.00 C 44.31 85.62 33.00 75.48 31.02 63.07 C 29.13 53.58 32.89 43.63 39.85 37.08 C 35.43 36.42 30.75 36.68 26.70 38.74 M 36.14 53.01 C 33.89 61.68 37.72 71.22 44.77 76.57 C 47.10 68.83 51.69 62.10 54.97 54.78 C 53.21 48.93 50.61 42.68 45.26 39.24 C 40.80 42.65 37.31 47.46 36.14 53.01 M 50.68 79.88 C 55.47 81.32 60.55 81.56 65.38 80.16 C 60.42 74.27 58.85 66.56 56.68 59.38 C 53.98 65.95 50.15 72.54 50.68 79.88 Z" />
</g>
<g id="#5881d8ff">
<path fill="#5881d8" opacity="1.00" d=" M 23.75 31.75 C 31.41 21.78 43.40 15.13 56.01 14.53 C 66.46 13.88 77.10 17.18 85.32 23.67 C 96.64 32.30 103.13 46.77 102.16 60.95 C 101.84 66.79 98.59 72.53 93.42 75.39 C 88.91 77.95 83.57 78.12 78.52 78.01 C 82.17 73.69 85.27 68.68 86.10 62.99 C 88.15 52.31 83.20 40.75 74.10 34.81 C 66.33 29.49 56.01 28.93 47.34 32.31 C 40.24 28.02 31.07 27.94 23.75 31.75 Z" />
</g>
<g id="#90b4feff">
<path fill="#90b4fe" opacity="1.00" d=" M 51.70 36.04 C 57.28 34.51 63.37 34.78 68.58 37.43 C 76.60 41.26 81.98 50.02 81.53 58.93 C 81.37 65.97 77.59 72.57 72.06 76.81 C 68.14 75.19 66.25 71.18 64.49 67.60 C 59.36 57.41 58.90 45.25 51.70 36.04 Z" />
</g>
<g id="#63b132ff">
<path fill="#63b132" opacity="1.00" d=" M 26.70 38.74 C 30.75 36.68 35.43 36.42 39.85 37.08 C 32.89 43.63 29.13 53.58 31.02 63.07 C 33.00 75.48 44.31 85.62 56.91 86.00 C 61.81 86.49 66.52 84.98 71.08 83.43 C 78.56 85.45 86.43 85.43 93.96 83.63 C 87.34 92.78 77.10 99.27 65.94 101.14 C 54.64 103.19 42.61 100.39 33.30 93.70 C 20.57 84.77 13.10 68.61 15.27 53.12 C 17.00 47.10 20.89 41.42 26.70 38.74 Z" />
</g>
<g id="#91dc47ff">
<path fill="#91dc47" opacity="1.00" d=" M 36.14 53.01 C 37.31 47.46 40.80 42.65 45.26 39.24 C 50.61 42.68 53.21 48.93 54.97 54.78 C 51.69 62.10 47.10 68.83 44.77 76.57 C 37.72 71.22 33.89 61.68 36.14 53.01 Z" />
<path fill="#91dc47" opacity="1.00" d=" M 50.68 79.88 C 50.15 72.54 53.98 65.95 56.68 59.38 C 58.85 66.56 60.42 74.27 65.38 80.16 C 60.55 81.56 55.47 81.32 50.68 79.88 Z" />
</g>
</svg>
