<?xml version="1.0" encoding="UTF-8" ?>
<!DOCTYPE svg PUBLIC "-//W3C//DTD SVG 1.1//EN" "http://www.w3.org/Graphics/SVG/1.1/DTD/svg11.dtd">
<svg width="72pt" height="72pt" viewBox="0 0 72 72" version="1.1" xmlns="http://www.w3.org/2000/svg">
<g id="#000000ff">
<path fill="#000000" opacity="1.00" d=" M 21.94 16.82 C 28.99 13.26 37.39 12.24 44.94 14.77 C 56.00 18.43 64.95 26.63 72.00 35.66 L 72.00 36.31 C 65.13 45.18 56.41 53.17 45.69 56.98 C 38.45 59.59 30.29 59.01 23.33 55.82 C 13.96 51.60 6.24 44.38 0.00 36.34 L 0.00 35.69 C 5.90 28.00 13.20 21.15 21.94 16.82 M 32.46 18.69 C 24.11 20.27 17.70 28.50 18.40 36.99 C 18.65 46.05 26.95 53.91 36.02 53.63 C 45.82 53.95 54.49 44.72 53.60 34.97 C 53.36 24.59 42.56 16.32 32.46 18.69 Z" />
<path fill="#000000" opacity="1.00" d=" M 32.36 20.56 C 41.50 18.10 51.50 25.54 51.80 34.97 C 52.65 43.77 44.82 52.12 35.99 51.83 C 27.92 52.05 20.53 45.11 20.20 37.05 C 19.51 29.54 25.04 22.19 32.36 20.56 M 32.38 28.55 C 26.80 30.96 26.13 39.57 31.28 42.80 C 36.03 46.43 43.66 43.02 44.22 37.10 C 45.34 30.86 37.97 25.49 32.38 28.55 Z" />
</g>
</svg>
