<?xml version="1.0" encoding="UTF-8" ?>
<!DOCTYPE svg PUBLIC "-//W3C//DTD SVG 1.1//EN" "http://www.w3.org/Graphics/SVG/1.1/DTD/svg11.dtd">
<svg width="300pt" height="300pt" viewBox="0 0 300 300" version="1.1" xmlns="http://www.w3.org/2000/svg">
<g id="#231f20ff">
<path fill="#231f20" opacity="1.00" d=" M 150.70 12.06 C 152.59 13.59 154.31 15.30 156.00 17.04 C 171.79 32.87 187.61 48.68 203.40 64.52 C 206.51 67.70 209.84 70.67 212.70 74.10 C 209.89 76.10 207.59 78.69 204.93 80.86 C 204.54 80.80 203.76 80.68 203.37 80.61 C 185.88 63.13 168.42 45.58 150.94 28.08 C 113.69 65.34 76.48 102.63 39.25 139.90 L 39.12 139.86 C 34.14 137.89 28.71 138.68 23.59 139.56 C 65.84 96.94 108.53 54.75 150.70 12.06 Z" />
<path fill="#231f20" opacity="1.00" d=" M 133.48 87.58 C 141.97 84.77 152.48 91.74 151.55 101.00 C 152.65 108.97 144.83 116.23 137.05 115.50 C 129.98 115.42 123.69 109.08 123.44 102.06 C 122.90 95.69 127.53 89.53 133.48 87.58 Z" />
<path fill="#231f20" opacity="1.00" d=" M 227.31 104.80 C 230.23 102.21 232.53 98.56 236.31 97.18 C 250.02 111.60 264.38 125.39 278.33 139.58 C 273.31 139.70 268.17 139.09 263.27 140.52 L 262.94 140.60 C 251.24 128.49 239.32 116.59 227.31 104.80 Z" />
<path fill="#231f20" opacity="1.00" d=" M 17.82 146.73 C 25.61 149.03 32.94 152.77 40.94 154.36 L 41.38 154.46 C 77.26 190.61 113.34 226.56 149.24 262.70 C 150.00 263.63 151.27 264.39 152.07 263.04 C 188.17 226.83 224.41 190.75 260.42 154.46 L 260.78 154.39 C 268.44 153.47 275.13 149.04 282.79 148.18 C 240.98 190.39 198.77 232.20 156.99 274.44 C 167.00 274.83 177.01 273.78 187.03 273.70 C 179.10 275.47 170.97 274.38 162.95 275.10 C 157.62 275.62 152.31 274.23 146.99 274.91 C 140.67 275.68 134.33 274.61 128.00 274.81 C 124.22 274.98 120.46 274.55 116.76 273.83 C 125.94 274.00 135.10 274.36 144.27 274.68 C 142.84 271.92 140.34 270.01 138.22 267.83 C 103.45 232.93 68.67 198.04 33.89 163.16 C 28.58 157.64 22.85 152.51 17.82 146.73 Z" />
<path fill="#231f20" opacity="1.00" d=" M 87.15 164.49 C 89.68 164.82 92.21 165.19 94.73 165.57 C 94.71 168.22 94.70 170.86 94.67 173.51 C 98.22 174.70 101.85 175.63 105.53 176.31 C 124.28 183.70 139.12 199.75 145.86 218.64 C 146.19 219.57 146.50 220.50 146.79 221.44 C 146.64 221.85 146.35 222.66 146.21 223.07 C 140.20 212.20 132.21 202.28 122.36 194.66 C 112.34 186.80 99.65 182.81 86.98 182.66 C 87.39 176.61 87.17 170.54 87.15 164.49 Z" />
</g>
<g id="#d1d3d4ff">
<path fill="#d1d3d4" opacity="1.00" d=" M 104.21 88.17 C 119.71 72.50 135.41 57.02 150.84 41.28 C 166.92 58.29 183.96 74.41 200.23 91.24 C 197.79 91.52 194.67 92.56 194.22 95.37 L 193.43 95.47 C 193.41 96.09 193.36 97.32 193.34 97.94 C 192.24 99.25 191.54 100.80 191.37 102.51 L 190.44 102.50 C 190.45 103.16 190.46 104.49 190.47 105.16 C 189.18 106.15 188.76 107.72 188.39 109.22 C 188.00 109.50 187.22 110.07 186.83 110.35 C 188.09 110.51 189.35 110.63 190.62 110.76 C 190.54 110.47 190.39 109.89 190.32 109.60 L 191.11 109.45 C 192.96 109.42 194.66 108.66 196.46 108.33 L 196.33 107.51 C 200.56 107.58 204.83 107.57 209.03 107.06 C 210.01 106.10 210.28 104.70 210.67 103.45 C 211.14 103.43 212.06 103.39 212.52 103.37 C 226.47 117.45 240.56 131.41 254.52 145.48 C 253.96 146.21 253.41 146.94 252.85 147.67 C 250.43 145.66 247.80 143.13 244.37 143.58 C 235.72 144.29 227.05 143.75 218.39 144.08 C 218.04 145.38 217.70 146.69 217.36 148.00 C 217.11 140.33 216.08 132.70 216.18 125.02 C 216.19 119.72 216.49 114.39 215.80 109.12 L 214.51 109.11 C 211.05 109.34 208.78 112.15 206.65 114.54 C 205.20 116.02 205.30 118.13 205.29 120.04 C 205.36 128.50 205.47 136.97 205.29 145.43 C 204.77 143.59 204.17 141.78 203.58 139.97 C 203.25 141.35 202.91 142.74 202.64 144.13 C 202.54 142.41 202.47 140.69 202.45 138.98 C 202.45 129.15 202.50 119.32 202.44 109.49 C 196.29 110.22 190.26 111.67 184.49 113.94 C 186.12 111.26 187.37 108.37 187.94 105.28 C 176.23 108.80 164.64 113.52 154.99 121.18 C 154.20 121.89 153.15 122.67 153.27 123.88 C 152.99 129.42 153.22 134.98 153.36 140.52 C 153.13 144.59 153.11 148.67 153.27 152.74 C 153.12 154.24 152.96 155.74 152.81 157.25 C 152.58 153.64 152.25 150.01 151.32 146.51 C 150.86 149.29 150.61 152.11 150.52 154.94 C 150.39 152.13 150.12 149.34 149.74 146.56 C 149.38 148.57 149.07 150.59 148.76 152.62 C 148.48 152.34 147.93 151.79 147.66 151.52 C 148.49 147.91 148.51 144.21 148.43 140.53 C 148.46 138.96 148.49 137.40 148.53 135.84 C 139.91 128.19 129.84 122.11 118.98 118.21 C 115.35 117.45 117.32 113.19 116.29 110.65 C 111.37 106.62 105.39 104.05 99.39 102.10 C 99.34 114.18 99.41 126.26 99.35 138.34 C 99.37 140.67 99.40 143.01 99.36 145.35 L 98.59 147.06 C 96.70 136.70 98.08 126.10 97.65 115.64 C 97.14 115.57 96.12 115.45 95.61 115.38 C 95.39 115.11 94.94 114.55 94.71 114.27 C 92.92 111.68 90.43 109.46 87.19 109.04 C 86.76 109.15 85.88 109.37 85.45 109.48 C 84.52 115.61 85.03 121.83 84.98 128.00 C 85.10 134.60 84.55 141.21 84.78 147.81 C 84.11 146.62 83.48 145.39 82.65 144.30 C 77.80 143.59 72.87 144.07 67.99 143.95 C 61.89 144.13 55.41 143.01 49.73 145.87 C 50.05 147.33 50.35 148.80 50.65 150.28 C 49.04 149.00 47.57 147.57 46.14 146.10 C 65.71 127.01 84.82 107.44 104.21 88.17 M 133.48 87.58 C 127.53 89.53 122.90 95.69 123.44 102.06 C 123.69 109.08 129.98 115.42 137.05 115.50 C 144.83 116.23 152.65 108.97 151.55 101.00 C 152.48 91.74 141.97 84.77 133.48 87.58 Z" />
<path fill="#d1d3d4" opacity="1.00" d=" M 59.55 159.25 C 67.92 161.28 76.34 163.06 84.86 164.31 C 85.13 170.46 84.83 176.62 85.12 182.77 C 85.58 182.74 86.51 182.68 86.98 182.66 C 99.65 182.81 112.34 186.80 122.36 194.66 C 132.21 202.28 140.20 212.20 146.21 223.07 C 146.35 222.66 146.64 221.85 146.79 221.44 C 149.34 216.66 148.37 211.18 148.46 206.00 C 148.41 198.29 148.53 190.58 148.47 182.87 C 148.76 180.56 146.91 178.96 145.55 177.38 C 142.99 174.65 140.43 171.92 137.73 169.34 C 142.91 169.27 148.08 169.10 153.26 169.32 C 153.11 181.53 153.22 193.74 153.20 205.96 C 153.18 210.18 152.62 214.47 153.64 218.63 C 155.97 211.11 158.65 203.60 163.05 197.01 C 172.26 183.45 186.76 173.89 202.47 169.58 C 202.88 169.47 203.72 169.26 204.13 169.15 C 204.77 167.62 205.41 166.10 206.05 164.58 L 206.24 166.04 C 206.52 168.47 206.55 170.92 206.62 173.36 C 186.91 177.22 170.09 191.04 160.55 208.44 C 158.00 213.39 155.48 218.49 154.51 224.02 C 161.13 214.07 167.86 203.89 177.32 196.37 C 183.33 191.36 190.29 187.54 197.75 185.19 C 203.47 184.52 209.12 183.37 214.88 183.11 C 215.57 182.29 216.60 181.53 216.45 180.33 C 216.59 175.17 215.47 169.91 216.75 164.82 C 220.76 163.46 225.06 163.32 229.17 162.33 C 233.00 161.41 236.85 160.42 240.82 160.39 C 226.89 174.84 212.54 188.90 198.40 203.15 C 182.59 219.00 166.84 234.93 150.93 250.68 C 133.73 234.04 117.06 216.84 100.04 200.00 C 86.59 186.37 72.86 173.01 59.55 159.25 Z" />
<path fill="#d1d3d4" opacity="1.00" d=" M 51.92 235.87 C 55.14 235.15 58.36 234.34 61.68 234.23 C 62.55 234.23 64.28 234.23 65.15 234.23 C 62.66 235.05 60.19 235.89 57.73 236.77 C 50.74 239.18 43.00 241.20 37.90 246.92 C 36.17 248.53 35.85 251.26 36.81 253.35 C 39.65 257.78 44.63 260.05 49.30 262.01 C 61.64 266.99 74.90 269.04 87.97 271.16 C 97.55 272.25 107.12 273.50 116.76 273.83 C 120.46 274.55 124.22 274.98 128.00 274.81 C 134.33 274.61 140.67 275.68 146.99 274.91 C 152.31 274.23 157.62 275.62 162.95 275.10 C 170.97 274.38 179.10 275.47 187.03 273.70 C 201.82 272.94 216.52 270.90 231.08 268.17 C 239.67 266.28 248.23 264.02 256.25 260.33 C 260.32 257.98 265.29 255.13 265.57 249.84 C 263.25 244.77 258.07 242.35 253.34 240.03 C 249.76 237.37 244.24 237.93 241.50 234.30 C 247.67 235.41 253.83 236.63 259.92 238.11 C 266.73 239.65 273.42 241.69 279.97 244.11 C 285.46 246.51 291.29 248.95 295.16 253.73 C 297.47 256.41 296.97 260.40 295.56 263.39 C 292.14 267.23 287.63 269.84 282.98 271.91 C 267.70 278.33 251.27 281.55 234.94 283.82 C 228.33 285.25 221.58 285.49 214.91 286.46 C 206.81 286.87 198.78 288.47 190.65 288.27 C 154.12 289.52 117.40 289.79 81.03 285.49 C 60.64 283.05 40.21 279.71 20.81 272.75 C 19.51 272.30 18.27 271.74 17.00 271.23 C 11.39 268.30 3.92 264.34 4.59 256.88 C 7.05 251.26 12.64 248.09 17.99 245.69 C 28.81 240.94 40.37 238.15 51.92 235.87 Z" />
</g>
<g id="#4fb747ff">
<path fill="#4fb747" opacity="1.00" d=" M 213.46 77.64 C 214.07 77.40 215.28 76.93 215.89 76.69 C 219.85 76.63 223.81 76.65 227.77 76.58 C 227.35 80.71 224.19 83.90 222.46 87.55 C 217.31 87.84 212.08 87.38 207.00 88.67 C 209.19 85.02 211.25 81.29 213.46 77.64 Z" />
</g>
<g id="#4eb546fe">
<path fill="#4eb546" opacity="1.00" d=" M 229.20 85.59 C 229.55 82.23 231.48 79.01 233.99 76.81 C 236.97 76.47 239.98 76.64 242.98 76.63 C 242.35 79.50 240.76 82.00 239.32 84.53 C 235.92 84.44 232.40 84.19 229.20 85.59 Z" />
</g>
<g id="#4fb746fe">
<path fill="#4fb746" opacity="1.00" d=" M 219.64 91.71 C 223.13 89.52 227.59 89.74 231.58 89.59 C 230.38 92.91 228.91 96.13 227.35 99.30 C 223.42 99.09 219.60 100.01 215.83 101.01 C 216.67 97.76 218.03 94.65 219.64 91.71 Z" />
</g>
<g id="#50b848ff">
<path fill="#50b848" opacity="1.00" d=" M 197.09 92.86 C 203.24 91.69 209.44 90.29 215.73 90.56 C 213.38 95.99 211.29 101.55 208.67 106.86 C 204.37 106.71 200.07 106.65 195.78 106.72 L 195.76 107.62 C 194.06 107.83 192.53 108.56 191.11 109.45 L 190.32 109.60 C 190.26 106.46 191.64 103.57 193.36 101.03 C 193.41 100.51 193.51 99.48 193.56 98.96 C 194.40 97.70 195.05 96.33 195.53 94.90 C 195.92 94.39 196.70 93.37 197.09 92.86 Z" />
<path fill="#50b848" opacity="1.00" d=" M 99.39 102.10 C 105.39 104.05 111.37 106.62 116.29 110.65 C 117.32 113.19 115.35 117.45 118.98 118.21 C 129.84 122.11 139.91 128.19 148.53 135.84 C 148.49 137.40 148.46 138.96 148.43 140.53 C 147.30 140.30 146.19 140.02 145.07 139.76 C 140.77 139.69 136.34 139.00 132.17 140.44 C 128.67 138.37 125.05 136.51 121.30 134.94 C 119.84 134.29 118.39 133.63 116.94 132.97 C 116.65 135.19 116.41 137.42 116.32 139.66 C 110.66 139.39 104.64 141.00 99.35 138.34 C 99.41 126.26 99.34 114.18 99.39 102.10 Z" />
<path fill="#50b848" opacity="1.00" d=" M 154.99 121.18 C 164.64 113.52 176.23 108.80 187.94 105.28 C 187.37 108.37 186.12 111.26 184.49 113.94 C 190.26 111.67 196.29 110.22 202.44 109.49 C 202.50 119.32 202.45 129.15 202.45 138.98 C 197.31 136.62 191.55 138.59 186.13 137.88 C 185.83 132.93 185.84 127.97 185.76 123.02 L 184.62 123.24 C 179.36 124.17 174.43 126.40 169.77 128.93 C 164.98 130.65 166.70 136.26 166.36 140.15 C 165.36 139.34 164.36 138.53 163.36 137.73 C 160.70 137.77 158.05 137.75 155.40 137.63 C 154.79 139.04 154.18 140.46 153.61 141.90 L 153.36 140.52 C 153.22 134.98 152.99 129.42 153.27 123.88 C 153.15 122.67 154.20 121.89 154.99 121.18 Z" />
<path fill="#50b848" opacity="1.00" d=" M 99.02 165.98 C 111.15 167.07 123.28 168.71 135.50 168.46 C 136.24 168.74 136.99 169.03 137.73 169.34 C 140.43 171.92 142.99 174.65 145.55 177.38 C 146.91 178.96 148.76 180.56 148.47 182.87 C 148.53 190.58 148.41 198.29 148.46 206.00 C 148.37 211.18 149.34 216.66 146.79 221.44 C 146.50 220.50 146.19 219.57 145.86 218.64 L 147.67 218.70 C 145.23 207.89 139.98 197.69 132.40 189.58 C 123.53 180.02 111.68 173.91 99.59 169.40 C 99.40 168.26 99.21 167.11 99.02 165.98 Z" />
<path fill="#50b848" opacity="1.00" d=" M 153.26 169.32 C 169.70 168.75 186.14 168.09 202.51 166.37 C 202.50 167.17 202.48 168.78 202.47 169.58 C 186.76 173.89 172.26 183.45 163.05 197.01 C 158.65 203.60 155.97 211.11 153.64 218.63 C 152.62 214.47 153.18 210.18 153.20 205.96 C 153.22 193.74 153.11 181.53 153.26 169.32 Z" />
</g>
<g id="#dedfe0ff">
<path fill="#dedfe0" opacity="1.00" d=" M 85.45 109.48 C 85.88 109.37 86.76 109.15 87.19 109.04 C 87.19 118.87 87.17 128.70 87.22 138.53 C 86.21 147.15 86.91 155.85 87.15 164.49 C 87.17 170.54 87.39 176.61 86.98 182.66 C 86.51 182.68 85.58 182.74 85.12 182.77 C 84.83 176.62 85.13 170.46 84.86 164.31 C 76.34 163.06 67.92 161.28 59.55 159.25 C 56.33 156.79 53.81 153.47 50.75 150.79 L 50.65 150.28 C 50.35 148.80 50.05 147.33 49.73 145.87 C 55.41 143.01 61.89 144.13 67.99 143.95 C 72.87 144.07 77.80 143.59 82.65 144.30 C 83.48 145.39 84.11 146.62 84.78 147.81 C 84.55 141.21 85.10 134.60 84.98 128.00 C 85.03 121.83 84.52 115.61 85.45 109.48 Z" />
<path fill="#dedfe0" opacity="1.00" d=" M 214.51 109.11 L 215.80 109.12 C 216.49 114.39 216.19 119.72 216.18 125.02 C 216.08 132.70 217.11 140.33 217.36 148.00 C 217.70 146.69 218.04 145.38 218.39 144.08 C 227.05 143.75 235.72 144.29 244.37 143.58 C 247.80 143.13 250.43 145.66 252.85 147.67 C 253.41 146.94 253.96 146.21 254.52 145.48 L 254.98 144.89 C 254.86 146.21 254.40 147.44 253.32 148.26 C 249.22 152.24 245.31 156.40 241.21 160.37 L 240.82 160.39 C 236.85 160.42 233.00 161.41 229.17 162.33 C 225.06 163.32 220.76 163.46 216.75 164.82 C 215.47 169.91 216.59 175.17 216.45 180.33 C 216.60 181.53 215.57 182.29 214.88 183.11 C 214.52 173.92 214.63 164.71 214.41 155.51 C 214.42 151.26 214.50 147.00 214.47 142.75 C 214.50 131.54 214.48 120.32 214.51 109.11 Z" />
</g>
<g id="#232020ff">
<path fill="#232020" opacity="1.00" d=" M 87.19 109.04 C 90.43 109.46 92.92 111.68 94.71 114.27 C 94.21 122.89 94.61 131.53 94.27 140.16 C 92.76 139.45 91.25 138.74 89.74 138.03 C 89.01 139.49 88.28 140.94 87.60 142.42 C 87.47 141.12 87.35 139.83 87.22 138.53 C 87.17 128.70 87.19 118.87 87.19 109.04 Z" />
<path fill="#232020" opacity="1.00" d=" M 207.38 165.53 C 209.65 165.16 211.94 164.94 214.23 164.69 C 214.35 170.57 214.38 176.45 214.20 182.33 C 208.63 182.64 202.90 182.81 197.75 185.19 C 190.29 187.54 183.33 191.36 177.32 196.37 C 167.86 203.89 161.13 214.07 154.51 224.02 C 155.48 218.49 158.00 213.39 160.55 208.44 C 170.09 191.04 186.91 177.22 206.62 173.36 C 206.55 170.92 206.52 168.47 206.24 166.04 C 206.53 165.92 207.09 165.66 207.38 165.53 Z" />
</g>
<g id="#242021ff">
<path fill="#242021" opacity="1.00" d=" M 206.65 114.54 C 208.78 112.15 211.05 109.34 214.51 109.11 C 214.48 120.32 214.50 131.54 214.47 142.75 C 212.93 142.18 211.40 141.60 209.87 141.02 C 209.32 142.00 208.77 142.97 208.23 143.95 C 207.76 141.78 207.25 139.62 206.78 137.45 C 206.52 129.82 206.75 122.17 206.65 114.54 Z" />
</g>
<g id="#595757ff">
<path fill="#595757" opacity="1.00" d=" M 94.71 114.27 C 94.94 114.55 95.39 115.11 95.61 115.38 C 95.92 124.14 95.68 132.91 95.65 141.66 C 95.00 145.75 94.47 149.85 94.21 153.99 C 92.83 153.65 91.45 153.32 90.07 153.00 C 89.36 153.70 88.64 154.40 87.93 155.11 C 87.83 153.19 87.74 151.28 87.74 149.36 C 88.33 148.34 88.96 147.34 89.59 146.35 C 91.02 146.51 92.45 146.65 93.88 146.81 C 94.03 144.59 94.18 142.38 94.27 140.16 C 94.61 131.53 94.21 122.89 94.71 114.27 Z" />
</g>
<g id="#edeaf0ff">
<path fill="#edeaf0" opacity="1.00" d=" M 95.61 115.38 C 96.12 115.45 97.14 115.57 97.65 115.64 C 98.08 126.10 96.70 136.70 98.59 147.06 C 98.50 153.37 99.15 159.67 99.02 165.98 C 98.30 167.53 97.79 169.18 97.42 170.85 C 97.10 168.76 96.59 166.72 95.98 164.71 C 94.71 157.06 96.63 149.33 95.65 141.66 C 95.68 132.91 95.92 124.14 95.61 115.38 Z" />
</g>
<g id="#a8aaaaff">
<path fill="#a8aaaa" opacity="1.00" d=" M 205.29 120.04 C 205.30 118.13 205.20 116.02 206.65 114.54 C 206.75 122.17 206.52 129.82 206.78 137.45 C 206.44 143.26 207.08 149.05 207.22 154.84 C 207.22 158.41 207.42 161.97 207.38 165.53 C 207.09 165.66 206.53 165.92 206.24 166.04 L 206.05 164.58 C 205.16 158.23 205.76 151.80 205.29 145.43 C 205.47 136.97 205.36 128.50 205.29 120.04 Z" />
</g>
<g id="#d4d6d8ff">
<path fill="#d4d6d8" opacity="1.00" d=" M 169.77 128.93 C 174.43 126.40 179.36 124.17 184.62 123.24 C 184.56 128.37 184.56 133.51 184.69 138.65 C 184.64 139.16 184.54 140.18 184.49 140.69 C 183.32 143.82 182.32 147.02 181.72 150.32 C 178.42 149.40 174.96 149.41 171.61 148.81 C 171.34 149.02 170.81 149.45 170.55 149.66 C 170.19 148.80 169.83 147.95 169.47 147.10 C 168.86 148.89 168.24 150.68 167.70 152.50 C 167.58 146.33 167.41 140.16 167.65 133.99 C 167.56 132.05 168.69 130.43 169.77 128.93 Z" />
</g>
<g id="#60be59ff">
<path fill="#60be59" opacity="1.00" d=" M 184.62 123.24 L 185.76 123.02 C 185.84 127.97 185.83 132.93 186.13 137.88 C 191.55 138.59 197.31 136.62 202.45 138.98 C 202.47 140.69 202.54 142.41 202.64 144.13 C 197.30 142.90 191.79 143.32 186.37 143.05 C 185.80 141.58 185.22 140.12 184.69 138.65 C 184.56 133.51 184.56 128.37 184.62 123.24 Z" />
<path fill="#60be59" opacity="1.00" d=" M 155.40 137.63 C 158.05 137.75 160.70 137.77 163.36 137.73 C 164.36 138.53 165.36 139.34 166.36 140.15 C 166.36 141.78 166.36 143.41 166.34 145.05 C 165.49 144.61 164.64 144.18 163.79 143.76 C 160.99 144.06 158.17 144.02 155.39 143.66 C 155.15 144.31 154.68 145.61 154.45 146.26 C 154.12 144.81 153.84 143.36 153.61 141.90 C 154.18 140.46 154.79 139.04 155.40 137.63 Z" />
</g>
<g id="#9fd99bff">
<path fill="#9fd99b" opacity="1.00" d=" M 166.36 140.15 C 166.70 136.26 164.98 130.65 169.77 128.93 C 168.69 130.43 167.56 132.05 167.65 133.99 C 167.41 140.16 167.58 146.33 167.70 152.50 C 167.57 156.97 167.06 161.43 167.05 165.91 C 170.00 164.83 172.16 162.43 174.77 160.78 C 177.71 158.68 181.11 157.41 184.52 156.31 C 184.60 153.71 184.72 151.12 184.77 148.53 C 185.08 149.67 185.37 150.81 185.66 151.96 C 185.80 153.67 185.85 155.38 185.89 157.10 C 190.37 157.48 194.86 157.44 199.32 156.89 C 200.37 157.12 201.42 157.34 202.48 157.57 C 202.48 160.51 202.52 163.44 202.51 166.37 C 186.14 168.09 169.70 168.75 153.26 169.32 C 153.36 165.29 153.07 161.27 152.81 157.25 C 152.96 155.74 153.12 154.24 153.27 152.74 C 153.60 154.16 153.99 155.57 154.36 156.99 C 154.70 156.21 155.04 155.43 155.38 154.65 C 158.85 154.96 162.35 154.81 165.80 155.36 C 166.08 151.93 166.31 148.49 166.34 145.05 C 166.36 143.41 166.36 141.78 166.36 140.15 Z" />
</g>
<g id="#99d694ff">
<path fill="#99d694" opacity="1.00" d=" M 116.94 132.97 C 118.39 133.63 119.84 134.29 121.30 134.94 C 120.37 134.88 118.50 134.75 117.57 134.69 C 117.43 137.92 117.35 141.16 117.58 144.39 C 117.43 148.38 117.26 152.38 117.23 156.37 C 120.58 157.74 123.88 159.27 126.93 161.23 C 124.19 163.77 120.32 162.88 116.94 162.99 C 111.99 162.77 106.94 164.31 102.08 162.81 C 99.46 162.52 100.18 159.16 99.81 157.30 C 105.13 158.29 110.56 158.18 115.93 157.85 C 115.94 156.23 115.95 154.61 115.97 153.00 C 115.99 151.55 116.03 150.10 116.08 148.66 C 116.19 145.66 116.24 142.66 116.32 139.66 C 116.41 137.42 116.65 135.19 116.94 132.97 Z" />
</g>
<g id="#dadbddff">
<path fill="#dadbdd" opacity="1.00" d=" M 117.57 134.69 C 118.50 134.75 120.37 134.88 121.30 134.94 C 125.05 136.51 128.67 138.37 132.17 140.44 C 137.30 144.17 142.93 147.25 147.66 151.52 C 147.93 151.79 148.48 152.34 148.76 152.62 C 147.20 153.50 145.87 151.78 144.51 151.21 C 144.48 151.65 144.41 152.53 144.37 152.97 C 137.90 153.13 131.44 152.95 124.97 152.94 C 122.88 152.83 120.92 153.56 119.06 154.41 C 119.20 151.01 119.13 147.51 117.58 144.39 C 117.35 141.16 117.43 137.92 117.57 134.69 Z" />
</g>
<g id="#3f3c3dff">
<path fill="#3f3c3d" opacity="1.00" d=" M 87.60 142.42 C 88.28 140.94 89.01 139.49 89.74 138.03 C 91.25 138.74 92.76 139.45 94.27 140.16 C 94.18 142.38 94.03 144.59 93.88 146.81 C 92.45 146.65 91.02 146.51 89.59 146.35 C 88.96 147.34 88.33 148.34 87.74 149.36 C 87.70 147.04 87.64 144.73 87.60 142.42 Z" />
</g>
<g id="#69c362ff">
<path fill="#69c362" opacity="1.00" d=" M 99.35 138.34 C 104.64 141.00 110.66 139.39 116.32 139.66 C 116.24 142.66 116.19 145.66 116.08 148.66 C 110.68 146.57 104.88 149.22 99.50 147.29 L 99.36 145.35 C 99.40 143.01 99.37 140.67 99.35 138.34 Z" />
</g>
<g id="#535050ff">
<path fill="#535050" opacity="1.00" d=" M 206.78 137.45 C 207.25 139.62 207.76 141.78 208.23 143.95 C 208.77 142.97 209.32 142.00 209.87 141.02 C 211.40 141.60 212.93 142.18 214.47 142.75 C 214.50 147.00 214.42 151.26 214.41 155.51 C 212.77 155.07 211.14 154.62 209.50 154.17 C 209.16 155.02 208.81 155.87 208.47 156.72 C 208.05 156.09 207.64 155.47 207.22 154.84 C 207.08 149.05 206.44 143.26 206.78 137.45 Z" />
</g>
<g id="#3a3737ff">
<path fill="#3a3737" opacity="1.00" d=" M 23.59 139.56 C 28.71 138.68 34.14 137.89 39.12 139.86 C 37.13 142.06 35.04 144.16 33.01 146.34 C 28.64 143.76 23.30 144.99 18.48 144.70 C 20.10 142.91 21.69 141.06 23.59 139.56 Z" />
</g>
<g id="#868484ff">
<path fill="#868484" opacity="1.00" d=" M 87.22 138.53 C 87.35 139.83 87.47 141.12 87.60 142.42 C 87.64 144.73 87.70 147.04 87.74 149.36 C 87.74 151.28 87.83 153.19 87.93 155.11 C 88.03 156.99 88.11 158.87 88.16 160.76 C 89.16 158.28 91.60 158.41 93.82 158.70 C 93.95 157.13 94.08 155.55 94.21 153.99 C 94.47 149.85 95.00 145.75 95.65 141.66 C 96.63 149.33 94.71 157.06 95.98 164.71 C 96.20 167.56 96.27 170.42 96.39 173.29 C 99.59 173.79 102.69 174.75 105.53 176.31 C 101.85 175.63 98.22 174.70 94.67 173.51 C 94.70 170.86 94.71 168.22 94.73 165.57 C 92.21 165.19 89.68 164.82 87.15 164.49 C 86.91 155.85 86.21 147.15 87.22 138.53 Z" />
</g>
<g id="#67c260ff">
<path fill="#67c260" opacity="1.00" d=" M 132.17 140.44 C 136.34 139.00 140.77 139.69 145.07 139.76 C 146.19 140.02 147.30 140.30 148.43 140.53 C 148.51 144.21 148.49 147.91 147.66 151.52 C 142.93 147.25 137.30 144.17 132.17 140.44 Z" />
</g>
<g id="#74c76eff">
<path fill="#74c76e" opacity="1.00" d=" M 184.69 138.65 C 185.22 140.12 185.80 141.58 186.37 143.05 C 191.79 143.32 197.30 142.90 202.64 144.13 C 202.44 147.03 202.47 149.93 202.47 152.83 C 196.97 151.46 191.27 151.72 185.66 151.96 C 185.37 150.81 185.08 149.67 184.77 148.53 C 184.60 145.92 184.47 143.30 184.49 140.69 C 184.54 140.18 184.64 139.16 184.69 138.65 Z" />
</g>
<g id="#e8e5eaff">
<path fill="#e8e5ea" opacity="1.00" d=" M 203.58 139.97 C 204.17 141.78 204.77 143.59 205.29 145.43 C 205.76 151.80 205.16 158.23 206.05 164.58 C 205.41 166.10 204.77 167.62 204.13 169.15 C 203.72 169.26 202.88 169.47 202.47 169.58 C 202.48 168.78 202.50 167.17 202.51 166.37 C 202.52 163.44 202.48 160.51 202.48 157.57 C 202.47 155.99 202.47 154.41 202.47 152.83 C 202.47 149.93 202.44 147.03 202.64 144.13 C 202.91 142.74 203.25 141.35 203.58 139.97 Z" />
</g>
<g id="#3c3939ff">
<path fill="#3c3939" opacity="1.00" d=" M 263.27 140.52 C 268.17 139.09 273.31 139.70 278.33 139.58 C 279.76 140.96 281.12 142.41 282.33 143.99 C 277.69 143.97 273.05 144.19 268.43 144.65 C 265.94 144.99 264.84 141.91 263.27 140.52 Z" />
</g>
<g id="#7ac974ff">
<path fill="#7ac974" opacity="1.00" d=" M 153.36 140.52 L 153.61 141.90 C 153.84 143.36 154.12 144.81 154.45 146.26 C 154.68 145.61 155.15 144.31 155.39 143.66 C 158.17 144.02 160.99 144.06 163.79 143.76 C 164.64 144.18 165.49 144.61 166.34 145.05 C 166.31 148.49 166.08 151.93 165.80 155.36 C 162.35 154.81 158.85 154.96 155.38 154.65 C 155.04 155.43 154.70 156.21 154.36 156.99 C 153.99 155.57 153.60 154.16 153.27 152.74 C 153.11 148.67 153.13 144.59 153.36 140.52 Z" />
</g>
<g id="#e0e2e3ff">
<path fill="#e0e2e3" opacity="1.00" d=" M 181.72 150.32 C 182.32 147.02 183.32 143.82 184.49 140.69 C 184.47 143.30 184.60 145.92 184.77 148.53 C 184.72 151.12 184.60 153.71 184.52 156.31 C 181.11 157.41 177.71 158.68 174.77 160.78 C 172.16 162.43 170.00 164.83 167.05 165.91 C 167.06 161.43 167.57 156.97 167.70 152.50 C 168.24 150.68 168.86 148.89 169.47 147.10 C 169.83 147.95 170.19 148.80 170.55 149.66 C 170.81 149.45 171.34 149.02 171.61 148.81 C 174.96 149.41 178.42 149.40 181.72 150.32 Z" />
</g>
<g id="#504c4dff">
<path fill="#504c4d" opacity="1.00" d=" M 268.43 144.65 C 273.05 144.19 277.69 143.97 282.33 143.99 C 283.27 144.52 284.85 145.12 284.53 146.49 C 283.97 147.07 283.39 147.63 282.79 148.18 C 275.13 149.04 268.44 153.47 260.78 154.39 C 262.88 150.80 267.96 148.99 268.43 144.65 Z" />
</g>
<g id="#524f50ff">
<path fill="#524f50" opacity="1.00" d=" M 16.92 146.45 C 17.26 145.64 17.78 145.05 18.48 144.70 C 23.30 144.99 28.64 143.76 33.01 146.34 C 35.86 148.80 38.54 151.46 40.94 154.36 C 32.94 152.77 25.61 149.03 17.82 146.73 L 16.92 146.45 Z" />
</g>
<g id="#e4e5e6ff">
<path fill="#e4e5e6" opacity="1.00" d=" M 117.58 144.39 C 119.13 147.51 119.20 151.01 119.06 154.41 C 120.92 153.56 122.88 152.83 124.97 152.94 C 131.44 152.95 137.90 153.13 144.37 152.97 C 144.41 152.53 144.48 151.65 144.51 151.21 C 145.87 151.78 147.20 153.50 148.76 152.62 C 149.07 150.59 149.38 148.57 149.74 146.56 C 150.12 149.34 150.39 152.13 150.52 154.94 C 150.61 152.11 150.86 149.29 151.32 146.51 C 152.25 150.01 152.58 153.64 152.81 157.25 C 153.07 161.27 153.36 165.29 153.26 169.32 C 148.08 169.10 142.91 169.27 137.73 169.34 C 136.99 169.03 136.24 168.74 135.50 168.46 C 133.01 165.64 130.13 163.19 126.93 161.23 C 123.88 159.27 120.58 157.74 117.23 156.37 C 117.26 152.38 117.43 148.38 117.58 144.39 Z" />
</g>
<g id="#a7dba3ff">
<path fill="#a7dba3" opacity="1.00" d=" M 98.59 147.06 L 99.36 145.35 L 99.50 147.29 C 99.63 148.98 99.74 150.68 99.79 152.38 C 99.81 154.02 99.79 155.66 99.81 157.30 C 100.18 159.16 99.46 162.52 102.08 162.81 C 106.94 164.31 111.99 162.77 116.94 162.99 C 120.32 162.88 124.19 163.77 126.93 161.23 C 130.13 163.19 133.01 165.64 135.50 168.46 C 123.28 168.71 111.15 167.07 99.02 165.98 C 99.15 159.67 98.50 153.37 98.59 147.06 Z" />
</g>
<g id="#7cca76ff">
<path fill="#7cca76" opacity="1.00" d=" M 99.50 147.29 C 104.88 149.22 110.68 146.57 116.08 148.66 C 116.03 150.10 115.99 151.55 115.97 153.00 C 110.57 153.00 105.14 153.25 99.79 152.38 C 99.74 150.68 99.63 148.98 99.50 147.29 Z" />
</g>
<g id="#8bd086ff">
<path fill="#8bd086" opacity="1.00" d=" M 99.79 152.38 C 105.14 153.25 110.57 153.00 115.97 153.00 C 115.95 154.61 115.94 156.23 115.93 157.85 C 110.56 158.18 105.13 158.29 99.81 157.30 C 99.79 155.66 99.81 154.02 99.79 152.38 Z" />
</g>
<g id="#88cf83ff">
<path fill="#88cf83" opacity="1.00" d=" M 185.66 151.96 C 191.27 151.72 196.97 151.46 202.47 152.83 C 202.47 154.41 202.47 155.99 202.48 157.57 C 201.42 157.34 200.37 157.12 199.32 156.89 C 194.86 157.44 190.37 157.48 185.89 157.10 C 185.85 155.38 185.80 153.67 185.66 151.96 Z" />
</g>
<g id="#6f6d6dff">
<path fill="#6f6d6d" opacity="1.00" d=" M 87.93 155.11 C 88.64 154.40 89.36 153.70 90.07 153.00 C 91.45 153.32 92.83 153.65 94.21 153.99 C 94.08 155.55 93.95 157.13 93.82 158.70 C 91.60 158.41 89.16 158.28 88.16 160.76 C 88.11 158.87 88.03 156.99 87.93 155.11 Z" />
</g>
<g id="#7d7b7bff">
<path fill="#7d7b7b" opacity="1.00" d=" M 208.47 156.72 C 208.81 155.87 209.16 155.02 209.50 154.17 C 211.14 154.62 212.77 155.07 214.41 155.51 C 214.63 164.71 214.52 173.92 214.88 183.11 C 209.12 183.37 203.47 184.52 197.75 185.19 C 202.90 182.81 208.63 182.64 214.20 182.33 C 214.38 176.45 214.35 170.57 214.23 164.69 C 211.94 164.94 209.65 165.16 207.38 165.53 C 207.42 161.97 207.22 158.41 207.22 154.84 C 207.64 155.47 208.05 156.09 208.47 156.72 Z" />
</g>
<g id="#d6d7d9ff">
<path fill="#d6d7d9" opacity="1.00" d=" M 95.98 164.71 C 96.59 166.72 97.10 168.76 97.42 170.85 C 97.79 169.18 98.30 167.53 99.02 165.98 C 99.21 167.11 99.40 168.26 99.59 169.40 C 111.68 173.91 123.53 180.02 132.40 189.58 C 139.98 197.69 145.23 207.89 147.67 218.70 L 145.86 218.64 C 139.12 199.75 124.28 183.70 105.53 176.31 C 102.69 174.75 99.59 173.79 96.39 173.29 C 96.27 170.42 96.20 167.56 95.98 164.71 Z" />
</g>
<g id="#797a7b84">
<path fill="#797a7b" opacity="0.52" d=" M 72.06 232.19 C 75.94 231.37 79.93 231.68 83.87 231.70 C 74.99 232.46 66.50 235.40 57.73 236.77 C 60.19 235.89 62.66 235.05 65.15 234.23 C 64.28 234.23 62.55 234.23 61.68 234.23 C 64.85 232.45 68.61 232.91 72.06 232.19 Z" />
</g>
<g id="#84858690">
<path fill="#848586" opacity="0.56" d=" M 218.95 231.52 C 226.46 231.45 233.86 232.83 241.26 233.93 L 241.50 234.30 C 244.24 237.93 249.76 237.37 253.34 240.03 C 244.07 237.02 234.57 234.73 225.07 232.66 C 223.03 232.27 220.98 231.93 218.95 231.52 Z" />
</g>
<g id="#51515271">
<path fill="#515152" opacity="0.44" d=" M 20.81 272.75 C 40.21 279.71 60.64 283.05 81.03 285.49 C 117.40 289.79 154.12 289.52 190.65 288.27 L 190.60 289.20 C 165.40 289.83 140.18 289.99 114.99 289.24 C 95.87 287.96 76.76 286.32 57.85 283.14 C 46.30 280.87 34.66 278.67 23.61 274.50 C 22.57 274.08 21.64 273.49 20.81 272.75 Z" />
</g>
</svg>
