<?xml version="1.0" encoding="UTF-8" ?>
<!DOCTYPE svg PUBLIC "-//W3C//DTD SVG 1.1//EN" "http://www.w3.org/Graphics/SVG/1.1/DTD/svg11.dtd">
<svg width="32pt" height="32pt" viewBox="0 0 32 32" version="1.1" xmlns="http://www.w3.org/2000/svg">
<g id="#090a0a2b">
<path fill="#090a0a" opacity="0.17" d=" M 0.00 0.00 L 5.22 0.00 C 3.12 1.35 1.35 3.12 0.00 5.22 L 0.00 0.00 Z" />
<path fill="#090a0a" opacity="0.17" d=" M 26.78 0.00 L 32.00 0.00 L 32.00 5.22 C 30.65 3.12 28.88 1.35 26.78 0.00 Z" />
<path fill="#090a0a" opacity="0.17" d=" M 0.00 26.78 C 1.35 28.88 3.12 30.65 5.22 32.00 L 0.00 32.00 L 0.00 26.78 Z" />
<path fill="#090a0a" opacity="0.17" d=" M 26.78 32.00 C 28.88 30.65 30.65 28.88 32.00 26.78 L 32.00 32.00 L 26.78 32.00 Z" />
</g>
<g id="#383c42fe">
<path fill="#383c42" opacity="1.00" d=" M 5.22 0.00 L 26.78 0.00 C 28.88 1.35 30.65 3.12 32.00 5.22 L 32.00 26.78 C 30.65 28.88 28.88 30.65 26.78 32.00 L 5.22 32.00 C 3.12 30.65 1.35 28.88 0.00 26.78 L 0.00 5.22 C 1.35 3.12 3.12 1.35 5.22 0.00 M 8.11 4.40 C 8.07 4.99 7.99 6.19 7.94 6.79 C 9.93 5.94 12.06 5.92 14.04 6.81 C 15.26 2.50 10.67 4.52 8.11 4.40 M 11.14 9.19 C 9.18 11.31 7.48 13.97 7.04 16.84 C 8.31 17.72 9.74 18.31 11.12 18.98 C 12.03 22.81 8.32 21.97 5.75 22.29 C 1.53 20.27 3.64 30.59 6.20 25.79 C 8.07 26.23 11.89 27.00 12.79 25.03 C 15.49 21.25 19.77 22.05 23.76 23.71 C 23.97 20.71 27.43 19.71 27.84 17.28 C 22.20 14.72 16.79 11.70 11.14 9.19 Z" />
</g>
<g id="#797d81ff">
<path fill="#797d81" opacity="1.00" d=" M 8.11 4.40 C 10.67 4.52 15.26 2.50 14.04 6.81 C 12.06 5.92 9.93 5.94 7.94 6.79 C 7.99 6.19 8.07 4.99 8.11 4.40 Z" />
</g>
<g id="#f4f4f4ff">
<path fill="#f4f4f4" opacity="1.00" d=" M 11.14 9.19 C 16.79 11.70 22.20 14.72 27.84 17.28 C 27.43 19.71 23.97 20.71 23.76 23.71 C 19.77 22.05 15.49 21.25 12.79 25.03 C 9.98 23.98 7.78 24.23 6.20 25.79 C 3.64 30.59 1.53 20.27 5.75 22.29 C 7.31 22.47 10.44 22.82 12.00 23.00 C 11.71 21.75 12.72 19.48 11.12 18.98 C 9.74 18.31 8.31 17.72 7.04 16.84 C 7.48 13.97 9.18 11.31 11.14 9.19 Z" />
</g>
<g id="#5f6469ff">
<path fill="#5f6469" opacity="1.00" d=" M 11.12 18.98 C 12.72 19.48 11.71 21.75 12.00 23.00 C 10.44 22.82 7.31 22.47 5.75 22.29 C 8.32 21.97 12.03 22.81 11.12 18.98 Z" />
</g>
<g id="#a9abadff">
<path fill="#a9abad" opacity="1.00" d=" M 6.20 25.79 C 7.78 24.23 9.98 23.98 12.79 25.03 C 11.89 27.00 8.07 26.23 6.20 25.79 Z" />
</g>
</svg>
