<?xml version="1.0" encoding="UTF-8" ?>
<!DOCTYPE svg PUBLIC "-//W3C//DTD SVG 1.1//EN" "http://www.w3.org/Graphics/SVG/1.1/DTD/svg11.dtd">
<svg width="16pt" height="16pt" viewBox="0 0 16 16" version="1.1" xmlns="http://www.w3.org/2000/svg">
<g id="#f58a39ff">
<path fill="#f58a39" opacity="1.00" d=" M 3.37 6.35 C 4.63 2.71 9.21 1.83 12.12 4.11 C 9.10 2.83 5.12 3.12 4.26 6.84 C 7.48 6.98 10.72 6.88 13.92 6.45 C 14.59 7.35 15.32 8.22 16.00 9.11 L 16.00 10.08 L 15.16 9.84 C 14.95 10.17 14.53 10.82 14.31 11.15 C 13.43 9.93 11.79 10.28 10.62 10.78 C 9.08 10.94 7.53 11.01 5.99 11.20 C 4.71 10.25 3.41 9.34 2.11 8.42 L 1.48 7.88 C 1.95 7.50 2.90 6.74 3.37 6.35 Z" />
</g>
<g id="#a7dff7ff">
<path fill="#a7dff7" opacity="1.00" d=" M 4.26 6.84 C 5.12 3.12 9.10 2.83 12.12 4.11 L 12.41 4.30 L 12.59 4.45 L 12.74 4.63 C 13.03 5.09 13.63 5.99 13.92 6.45 C 10.72 6.88 7.48 6.98 4.26 6.84 Z" />
</g>
<g id="#d79151e7">
<path fill="#d79151" opacity="0.91" d=" M 12.41 4.30 L 12.61 4.42 L 12.74 4.63 L 12.59 4.45 L 12.41 4.30 Z" />
</g>
<g id="#b09a82e5">
<path fill="#b09a82" opacity="0.90" d=" M 0.00 9.66 C 0.37 9.21 1.11 8.33 1.48 7.88 L 2.11 8.42 C 1.97 9.08 1.68 10.39 1.53 11.05 C 1.15 11.06 0.38 11.07 0.00 11.08 L 0.00 9.66 Z" />
</g>
<g id="#735655eb">
<path fill="#735655" opacity="0.92" d=" M 2.11 8.42 C 3.41 9.34 4.71 10.25 5.99 11.20 C 4.50 11.44 2.92 11.97 1.53 11.05 C 1.68 10.39 1.97 9.08 2.11 8.42 Z" />
</g>
<g id="#6c5658d8">
<path fill="#6c5658" opacity="0.85" d=" M 10.62 10.78 C 11.79 10.28 13.43 9.93 14.31 11.15 C 13.22 12.07 11.29 12.38 10.62 10.78 Z" />
</g>
<g id="#b3b2a5fe">
<path fill="#b3b2a5" opacity="1.00" d=" M 14.31 11.15 C 14.53 10.82 14.95 10.17 15.16 9.84 L 16.00 10.08 L 16.00 10.91 C 15.58 10.97 14.73 11.09 14.31 11.15 Z" />
</g>
</svg>
