<?xml version="1.0" encoding="UTF-8" ?>
<!DOCTYPE svg PUBLIC "-//W3C//DTD SVG 1.1//EN" "http://www.w3.org/Graphics/SVG/1.1/DTD/svg11.dtd">
<svg width="32pt" height="32pt" viewBox="0 0 32 32" version="1.1" xmlns="http://www.w3.org/2000/svg">
<g id="#e95252ff">
<path fill="#e95252" opacity="1.00" d=" M 8.13 9.18 C 9.08 7.74 9.55 5.88 10.99 4.82 C 12.47 4.18 13.79 5.56 13.76 6.98 C 13.61 12.28 10.53 17.25 11.37 22.63 C 11.69 22.71 12.34 22.85 12.66 22.93 C 16.45 18.94 18.30 13.64 21.06 8.98 C 21.69 7.39 24.12 7.90 24.50 9.39 C 25.40 12.71 24.70 16.23 25.45 19.59 C 27.40 20.24 28.70 18.07 30.28 17.33 C 31.49 21.44 26.72 24.86 23.06 23.23 C 20.45 21.74 20.81 18.33 20.54 15.78 C 18.94 19.50 17.21 23.39 14.07 26.07 C 12.17 27.75 8.75 28.10 7.17 25.81 C 5.25 23.14 6.17 19.65 6.75 16.69 C 5.02 17.56 3.53 17.31 2.28 15.94 C 4.44 13.89 6.73 11.86 8.13 9.18 Z" />
</g>
</svg>
