<?xml version="1.0" encoding="UTF-8" ?>
<!DOCTYPE svg PUBLIC "-//W3C//DTD SVG 1.1//EN" "http://www.w3.org/Graphics/SVG/1.1/DTD/svg11.dtd">
<svg width="280pt" height="280pt" viewBox="0 0 280 280" version="1.1" xmlns="http://www.w3.org/2000/svg">
<g id="#ffffffff">
<path fill="#ffffff" opacity="1.00" d=" M 0.00 0.00 L 280.00 0.00 L 280.00 280.00 L 0.00 280.00 L 0.00 0.00 M 134.37 11.48 C 125.92 12.96 118.96 18.48 111.69 22.67 C 96.57 30.73 82.21 40.11 67.08 48.16 C 57.29 54.48 46.57 59.27 37.10 66.10 C 30.22 72.13 26.27 80.96 25.08 89.91 C 24.98 122.97 25.08 156.03 25.03 189.09 C 25.80 198.44 30.09 207.58 37.12 213.87 C 46.60 220.68 57.31 225.46 67.10 231.79 C 80.04 238.70 92.46 246.50 105.20 253.74 C 114.01 258.04 121.73 264.39 130.96 267.82 C 138.15 269.36 145.77 269.45 152.95 267.78 C 158.72 265.65 164.05 262.50 169.18 259.14 C 174.76 255.61 180.83 252.95 186.37 249.35 C 190.86 246.38 195.79 244.14 200.29 241.20 C 207.22 236.70 214.82 233.34 221.73 228.79 C 230.15 223.88 238.94 219.57 246.87 213.86 C 254.87 206.65 259.39 195.73 258.98 184.99 C 259.04 155.33 258.95 125.67 259.03 96.01 C 259.65 82.67 253.14 68.27 240.82 62.15 C 233.33 57.16 225.04 53.54 217.55 48.53 C 204.88 41.68 192.59 34.18 180.15 26.94 C 175.17 24.32 170.22 21.63 165.55 18.47 C 160.02 15.36 154.41 11.69 147.90 11.27 C 143.40 10.88 138.85 10.87 134.37 11.48 Z" />
<path fill="#ffffff" opacity="1.00" d=" M 66.76 83.86 C 75.15 81.13 84.35 89.40 83.96 97.91 C 83.95 111.27 83.94 124.63 83.93 137.99 C 83.96 141.72 84.03 145.49 84.95 149.12 C 87.40 156.75 92.93 163.33 100.27 166.68 C 105.32 168.46 110.58 170.56 116.06 169.66 C 123.48 168.13 131.45 165.56 136.14 159.19 C 139.67 154.00 142.03 148.01 143.49 141.94 C 143.83 130.31 143.51 118.65 143.62 107.00 C 143.78 101.29 142.96 95.37 144.85 89.85 C 146.46 86.40 150.32 84.94 153.66 83.69 C 157.56 82.32 161.50 84.27 164.82 86.20 C 167.93 88.84 169.71 92.91 169.55 97.01 C 169.55 112.62 169.69 128.23 169.46 143.84 C 168.65 166.37 152.10 186.59 131.04 193.80 C 126.96 194.79 122.78 195.24 118.72 196.33 C 112.82 197.65 106.94 196.06 101.17 194.92 C 92.23 193.90 84.43 188.90 77.43 183.58 C 72.95 179.03 67.87 174.84 64.90 169.05 C 60.39 162.26 57.53 154.27 57.26 146.09 C 56.68 133.73 57.18 121.36 57.02 108.99 C 57.04 103.54 56.61 98.04 57.52 92.63 C 58.16 87.96 62.70 85.29 66.76 83.86 Z" />
<path fill="#ffffff" opacity="1.00" d=" M 210.73 83.74 C 215.02 82.18 219.61 84.50 223.07 86.95 C 227.19 89.93 226.89 95.43 227.05 99.96 C 227.04 126.65 227.04 153.34 227.05 180.04 C 226.96 183.28 226.94 186.63 225.79 189.71 C 223.60 193.69 219.13 195.72 214.88 196.71 C 207.09 197.04 199.79 189.95 200.06 182.09 C 200.01 154.36 200.13 126.64 199.98 98.92 C 199.56 92.15 204.24 85.64 210.73 83.74 Z" />
</g>
<g id="#3491ccff">
<path fill="#3491cc" opacity="1.00" d=" M 134.37 11.48 C 138.85 10.87 143.40 10.88 147.90 11.27 C 154.41 11.69 160.02 15.36 165.55 18.47 C 170.22 21.63 175.17 24.32 180.15 26.94 C 192.59 34.18 204.88 41.68 217.55 48.53 C 225.04 53.54 233.33 57.16 240.82 62.15 C 253.14 68.27 259.65 82.67 259.03 96.01 C 258.95 125.67 259.04 155.33 258.98 184.99 C 259.39 195.73 254.87 206.65 246.87 213.86 C 238.94 219.57 230.15 223.88 221.73 228.79 C 214.82 233.34 207.22 236.70 200.29 241.20 C 195.79 244.14 190.86 246.38 186.37 249.35 C 180.83 252.95 174.76 255.61 169.18 259.14 C 164.05 262.50 158.72 265.65 152.95 267.78 C 145.77 269.45 138.15 269.36 130.96 267.82 C 121.73 264.39 114.01 258.04 105.20 253.74 C 92.46 246.50 80.04 238.70 67.10 231.79 C 57.31 225.46 46.60 220.68 37.12 213.87 C 30.09 207.58 25.80 198.44 25.03 189.09 C 25.08 156.03 24.98 122.97 25.08 89.91 C 26.27 80.96 30.22 72.13 37.10 66.10 C 46.57 59.27 57.29 54.48 67.08 48.16 C 82.21 40.11 96.57 30.73 111.69 22.67 C 118.96 18.48 125.92 12.96 134.37 11.48 M 66.76 83.86 C 62.70 85.29 58.16 87.96 57.52 92.63 C 56.61 98.04 57.04 103.54 57.02 108.99 C 57.18 121.36 56.68 133.73 57.26 146.09 C 57.53 154.27 60.39 162.26 64.90 169.05 C 67.87 174.84 72.95 179.03 77.43 183.58 C 84.43 188.90 92.23 193.90 101.17 194.92 C 106.94 196.06 112.82 197.65 118.72 196.33 C 122.78 195.24 126.96 194.79 131.04 193.80 C 152.10 186.59 168.65 166.37 169.46 143.84 C 169.69 128.23 169.55 112.62 169.55 97.01 C 169.71 92.91 167.93 88.84 164.82 86.20 C 161.50 84.27 157.56 82.32 153.66 83.69 C 150.32 84.94 146.46 86.40 144.85 89.85 C 142.96 95.37 143.78 101.29 143.62 107.00 C 143.51 118.65 143.83 130.31 143.49 141.94 C 142.03 148.01 139.67 154.00 136.14 159.19 C 131.45 165.56 123.48 168.13 116.06 169.66 C 110.58 170.56 105.32 168.46 100.27 166.68 C 92.93 163.33 87.40 156.75 84.95 149.12 C 84.03 145.49 83.96 141.72 83.93 137.99 C 83.94 124.63 83.95 111.27 83.96 97.91 C 84.35 89.40 75.15 81.13 66.76 83.86 M 210.73 83.74 C 204.24 85.64 199.56 92.15 199.98 98.92 C 200.13 126.64 200.01 154.36 200.06 182.09 C 199.79 189.95 207.09 197.04 214.88 196.71 C 219.13 195.72 223.60 193.69 225.79 189.71 C 226.94 186.63 226.96 183.28 227.05 180.04 C 227.04 153.34 227.04 126.65 227.05 99.96 C 226.89 95.43 227.19 89.93 223.07 86.95 C 219.61 84.50 215.02 82.18 210.73 83.74 Z" />
</g>
</svg>
