<?xml version="1.0" encoding="UTF-8" ?>
<!DOCTYPE svg PUBLIC "-//W3C//DTD SVG 1.1//EN" "http://www.w3.org/Graphics/SVG/1.1/DTD/svg11.dtd">
<svg width="32pt" height="32pt" viewBox="0 0 32 32" version="1.1" xmlns="http://www.w3.org/2000/svg">
<g id="#f8553aff">
<path fill="#f8553a" opacity="1.00" d=" M 0.00 0.00 L 14.14 0.00 C 13.10 1.78 12.07 3.56 11.06 5.36 C 9.55 4.18 8.05 2.98 6.48 1.89 C 6.21 2.20 5.66 2.82 5.38 3.13 C 3.31 5.02 4.45 7.47 5.63 9.46 C 3.74 11.14 1.83 12.81 0.00 14.56 L 0.00 0.00 Z" />
<path fill="#f8553a" opacity="1.00" d=" M 17.70 0.00 L 32.00 0.00 L 32.00 14.54 C 30.17 12.80 28.26 11.13 26.37 9.46 C 27.63 7.47 28.66 5.04 26.62 3.13 C 26.34 2.82 25.79 2.19 25.51 1.88 C 23.96 2.97 22.48 4.16 20.98 5.33 C 19.94 3.52 18.89 1.72 17.70 0.00 Z" />
</g>
<g id="#723121ff">
<path fill="#723121" opacity="1.00" d=" M 14.14 0.00 L 17.70 0.00 C 18.89 1.72 19.94 3.52 20.98 5.33 C 22.48 4.16 23.96 2.97 25.51 1.88 C 25.79 2.19 26.34 2.82 26.62 3.13 C 24.51 4.76 22.53 6.52 20.59 8.34 C 19.28 6.43 18.10 4.43 17.15 2.31 C 16.38 2.31 15.62 2.31 14.85 2.31 C 13.91 4.43 12.73 6.44 11.41 8.35 C 9.48 6.52 7.49 4.76 5.38 3.13 C 5.66 2.82 6.21 2.20 6.48 1.89 C 8.05 2.98 9.55 4.18 11.06 5.36 C 12.07 3.56 13.10 1.78 14.14 0.00 Z" />
</g>
<g id="#ffd145ff">
<path fill="#ffd145" opacity="1.00" d=" M 14.85 2.31 C 15.62 2.31 16.38 2.31 17.15 2.31 C 18.10 4.43 19.28 6.43 20.59 8.34 C 22.53 6.52 24.51 4.76 26.62 3.13 C 25.72 6.09 24.53 8.95 23.78 11.95 C 23.45 11.97 22.78 12.00 22.45 12.02 C 18.15 11.87 13.85 11.87 9.55 12.02 C 9.22 12.00 8.55 11.97 8.22 11.95 C 7.46 8.95 6.27 6.09 5.38 3.13 C 7.49 4.76 9.48 6.52 11.41 8.35 C 12.73 6.44 13.91 4.43 14.85 2.31 M 13.45 9.94 C 15.12 10.02 16.78 10.08 18.44 10.11 C 18.02 8.58 17.59 7.04 17.13 5.52 C 15.79 6.90 14.56 8.37 13.45 9.94 Z" />
</g>
<g id="#422418ff">
<path fill="#422418" opacity="1.00" d=" M 5.63 9.46 C 4.45 7.47 3.31 5.02 5.38 3.13 C 6.27 6.09 7.46 8.95 8.22 11.95 C 5.73 11.34 0.05 13.82 3.49 16.45 C 4.45 18.20 6.89 18.65 8.44 17.42 C 9.66 19.07 13.27 20.44 11.15 22.72 C 10.49 22.13 9.18 20.96 8.52 20.37 C 8.02 20.33 7.03 20.25 6.53 20.21 C 4.80 19.67 3.20 18.81 1.54 18.09 C 1.15 17.92 0.38 17.57 0.00 17.39 L 0.00 14.56 C 1.83 12.81 3.74 11.14 5.63 9.46 Z" />
</g>
<g id="#44271aff">
<path fill="#44271a" opacity="1.00" d=" M 26.62 3.13 C 28.66 5.04 27.63 7.47 26.37 9.46 C 28.26 11.13 30.17 12.80 32.00 14.54 L 32.00 17.60 C 31.60 17.68 30.79 17.84 30.39 17.92 C 28.64 17.78 27.84 18.54 28.01 20.22 C 26.65 20.15 25.28 20.09 23.91 20.04 C 22.35 19.97 21.56 20.78 21.55 22.45 C 21.10 22.15 20.19 21.55 19.74 21.25 C 20.98 19.96 22.27 18.71 23.52 17.43 C 25.10 18.62 27.52 18.19 28.50 16.45 C 31.93 13.84 26.25 11.32 23.78 11.95 C 24.53 8.95 25.72 6.09 26.62 3.13 Z" />
</g>
<g id="#d83e3eff">
<path fill="#d83e3e" opacity="1.00" d=" M 13.45 9.94 C 14.56 8.37 15.79 6.90 17.13 5.52 C 17.59 7.04 18.02 8.58 18.44 10.11 C 16.78 10.08 15.12 10.02 13.45 9.94 Z" />
</g>
<g id="#f6e184ff">
<path fill="#f6e184" opacity="1.00" d=" M 3.49 16.45 C 0.05 13.82 5.73 11.34 8.22 11.95 C 8.55 11.97 9.22 12.00 9.55 12.02 C 12.85 15.20 19.15 15.19 22.45 12.02 C 22.78 12.00 23.45 11.97 23.78 11.95 C 26.25 11.32 31.93 13.84 28.50 16.45 C 26.81 15.74 24.60 15.68 23.52 17.43 C 22.27 18.71 20.98 19.96 19.74 21.25 C 20.19 21.55 21.10 22.15 21.55 22.45 C 21.88 22.74 22.53 23.33 22.86 23.62 C 24.44 23.91 26.05 24.05 27.65 24.22 C 27.82 23.83 28.15 23.04 28.32 22.65 C 28.52 22.27 28.91 21.52 29.10 21.15 C 29.55 20.08 29.98 19.00 30.39 17.92 C 30.79 17.84 31.60 17.68 32.00 17.60 L 32.00 28.20 C 31.50 28.14 30.51 28.03 30.02 27.98 C 31.23 25.50 26.74 25.54 28.02 27.99 C 27.52 28.03 26.52 28.09 26.02 28.12 C 26.37 26.40 25.75 25.73 24.16 26.08 C 23.69 27.52 24.31 28.20 26.02 28.12 C 25.12 30.70 29.37 30.39 28.02 27.99 C 28.52 27.99 29.52 27.98 30.02 27.98 C 29.71 29.57 30.37 30.23 32.00 29.93 L 32.00 32.00 L 17.45 32.00 C 18.49 30.68 19.55 29.37 20.64 28.10 C 21.10 27.95 22.01 27.65 22.47 27.51 C 20.62 25.60 18.96 23.44 16.76 21.92 C 13.56 21.64 11.92 25.22 9.88 27.15 C 10.17 27.45 10.76 28.04 11.05 28.34 C 12.29 29.57 13.54 30.80 14.82 32.00 L 0.00 32.00 L 0.00 27.82 C 0.50 27.87 1.49 27.97 1.98 28.03 C 0.77 30.51 5.26 30.45 3.98 28.01 C 4.48 27.98 5.48 27.91 5.98 27.88 C 5.62 29.60 6.24 30.27 7.84 29.92 C 8.31 28.48 7.69 27.80 5.98 27.88 C 6.88 25.30 2.63 25.61 3.98 28.01 C 3.48 28.01 2.48 28.02 1.98 28.03 C 2.29 26.43 1.63 25.78 0.00 26.08 L 0.00 17.39 C 0.38 17.57 1.15 17.92 1.54 18.09 C 2.16 19.78 2.71 21.49 3.34 23.16 C 5.87 24.44 8.76 24.19 11.15 22.72 C 13.27 20.44 9.66 19.07 8.44 17.42 C 7.33 15.74 5.18 15.69 3.49 16.45 Z" />
</g>
<g id="#df9e37ff">
<path fill="#df9e37" opacity="1.00" d=" M 9.55 12.02 C 13.85 11.87 18.15 11.87 22.45 12.02 C 19.15 15.19 12.85 15.20 9.55 12.02 Z" />
</g>
<g id="#e5af52ff">
<path fill="#e5af52" opacity="1.00" d=" M 3.49 16.45 C 5.18 15.69 7.33 15.74 8.44 17.42 C 6.89 18.65 4.45 18.20 3.49 16.45 Z" />
<path fill="#e5af52" opacity="1.00" d=" M 23.52 17.43 C 24.60 15.68 26.81 15.74 28.50 16.45 C 27.52 18.19 25.10 18.62 23.52 17.43 Z" />
</g>
<g id="#ffffffff">
<path fill="#ffffff" opacity="1.00" d=" M 1.54 18.09 C 3.20 18.81 4.80 19.67 6.53 20.21 C 5.48 21.21 4.42 22.19 3.34 23.16 C 2.71 21.49 2.16 19.78 1.54 18.09 Z" />
<path fill="#ffffff" opacity="1.00" d=" M 28.01 20.22 C 27.84 18.54 28.64 17.78 30.39 17.92 C 29.98 19.00 29.55 20.08 29.10 21.15 C 28.91 21.52 28.52 22.27 28.32 22.65 C 28.24 22.04 28.09 20.83 28.01 20.22 Z" />
<path fill="#ffffff" opacity="1.00" d=" M 21.55 22.45 C 21.56 20.78 22.35 19.97 23.91 20.04 C 24.02 21.63 23.24 22.44 21.55 22.45 Z" />
</g>
<g id="#905c32ff">
<path fill="#905c32" opacity="1.00" d=" M 6.53 20.21 C 7.03 20.25 8.02 20.33 8.52 20.37 C 9.18 20.96 10.49 22.13 11.15 22.72 C 8.76 24.19 5.87 24.44 3.34 23.16 C 4.42 22.19 5.48 21.21 6.53 20.21 Z" />
<path fill="#905c32" opacity="1.00" d=" M 23.91 20.04 C 25.28 20.09 26.65 20.15 28.01 20.22 C 28.09 20.83 28.24 22.04 28.32 22.65 C 28.15 23.04 27.82 23.83 27.65 24.22 C 26.05 24.05 24.44 23.91 22.86 23.62 C 22.53 23.33 21.88 22.74 21.55 22.45 C 23.24 22.44 24.02 21.63 23.91 20.04 Z" />
</g>
<g id="#5b3423ff">
<path fill="#5b3423" opacity="1.00" d=" M 9.88 27.15 C 11.92 25.22 13.56 21.64 16.76 21.92 C 18.96 23.44 20.62 25.60 22.47 27.51 C 22.01 27.65 21.10 27.95 20.64 28.10 C 19.17 26.66 17.77 25.14 16.29 23.70 C 13.98 24.48 12.61 26.62 11.05 28.34 C 10.76 28.04 10.17 27.45 9.88 27.15 Z" />
</g>
<g id="#f9bebfff">
<path fill="#f9bebf" opacity="1.00" d=" M 11.05 28.34 C 12.61 26.62 13.98 24.48 16.29 23.70 C 15.48 25.22 14.60 26.71 13.65 28.15 C 13.00 28.20 11.70 28.29 11.05 28.34 Z" />
</g>
<g id="#f54547ff">
<path fill="#f54547" opacity="1.00" d=" M 16.29 23.70 C 17.77 25.14 19.17 26.66 20.64 28.10 C 18.31 28.09 15.98 28.08 13.65 28.15 C 14.60 26.71 15.48 25.22 16.29 23.70 Z" />
</g>
<g id="#eb8668ff">
<path fill="#eb8668" opacity="1.00" d=" M 0.00 26.08 C 1.63 25.78 2.29 26.43 1.98 28.03 C 1.49 27.97 0.50 27.87 0.00 27.82 L 0.00 26.08 Z" />
<path fill="#eb8668" opacity="1.00" d=" M 3.98 28.01 C 2.63 25.61 6.88 25.30 5.98 27.88 C 5.48 27.91 4.48 27.98 3.98 28.01 Z" />
<path fill="#eb8668" opacity="1.00" d=" M 24.16 26.08 C 25.75 25.73 26.37 26.40 26.02 28.12 C 24.31 28.20 23.69 27.52 24.16 26.08 Z" />
<path fill="#eb8668" opacity="1.00" d=" M 28.02 27.99 C 26.74 25.54 31.23 25.50 30.02 27.98 C 29.52 27.98 28.52 27.99 28.02 27.99 Z" />
<path fill="#eb8668" opacity="1.00" d=" M 1.98 28.03 C 2.48 28.02 3.48 28.01 3.98 28.01 C 5.26 30.45 0.77 30.51 1.98 28.03 Z" />
<path fill="#eb8668" opacity="1.00" d=" M 5.98 27.88 C 7.69 27.80 8.31 28.48 7.84 29.92 C 6.24 30.27 5.62 29.60 5.98 27.88 Z" />
<path fill="#eb8668" opacity="1.00" d=" M 26.02 28.12 C 26.52 28.09 27.52 28.03 28.02 27.99 C 29.37 30.39 25.12 30.70 26.02 28.12 Z" />
<path fill="#eb8668" opacity="1.00" d=" M 30.02 27.98 C 30.51 28.03 31.50 28.14 32.00 28.20 L 32.00 29.93 C 30.37 30.23 29.71 29.57 30.02 27.98 Z" />
</g>
<g id="#742b2cff">
<path fill="#742b2c" opacity="1.00" d=" M 11.05 28.34 C 11.70 28.29 13.00 28.20 13.65 28.15 C 15.98 28.08 18.31 28.09 20.64 28.10 C 19.55 29.37 18.49 30.68 17.45 32.00 L 14.82 32.00 C 13.54 30.80 12.29 29.57 11.05 28.34 Z" />
</g>
</svg>
