<?xml version="1.0" encoding="UTF-8" ?>
<!DOCTYPE svg PUBLIC "-//W3C//DTD SVG 1.1//EN" "http://www.w3.org/Graphics/SVG/1.1/DTD/svg11.dtd">
<svg width="162pt" height="165pt" viewBox="0 0 162 165" version="1.1" xmlns="http://www.w3.org/2000/svg">
<g id="#7e3a43ff">
<path fill="#7e3a43" opacity="1.00" d=" M 74.99 3.03 C 85.39 -3.74 101.73 4.45 101.91 17.01 C 102.53 23.02 98.80 28.36 94.33 31.97 C 100.24 34.41 105.36 38.33 110.43 42.14 C 110.52 42.41 110.69 42.96 110.78 43.23 C 105.16 39.82 100.12 35.36 93.96 32.78 C 91.65 34.09 89.28 35.29 86.80 36.24 C 89.69 38.64 94.84 41.65 92.35 46.10 C 89.79 47.61 86.92 48.38 84.02 48.92 C 85.05 50.79 86.04 52.68 87.02 54.57 C 86.84 56.92 84.43 58.24 82.53 56.60 C 74.27 51.41 70.42 41.70 67.34 32.87 C 63.57 34.78 59.88 36.91 56.54 39.54 C 55.28 40.46 54.09 41.64 52.49 41.94 C 56.47 37.48 61.98 34.41 67.39 31.93 C 66.65 26.99 65.71 21.96 66.58 16.97 C 67.48 11.51 69.95 5.83 74.99 3.03 M 77.00 3.04 C 74.78 4.22 72.66 5.69 71.25 7.81 L 71.04 7.82 C 66.83 14.59 66.53 22.97 68.32 30.55 C 69.97 36.91 72.73 43.09 76.45 48.53 C 78.52 51.19 80.83 54.50 84.55 54.57 C 83.84 51.74 82.61 49.09 80.56 46.98 C 82.53 43.10 88.78 46.89 91.01 42.90 C 90.88 40.63 88.33 39.48 86.74 38.19 C 84.50 36.33 79.17 38.76 80.11 34.16 C 82.01 34.19 83.92 34.35 85.82 34.22 C 89.76 32.34 93.91 30.50 96.81 27.10 C 99.61 24.56 101.21 20.79 101.16 17.01 C 100.62 12.53 98.19 8.45 94.74 5.59 C 92.92 4.05 90.67 3.22 88.49 2.34 C 86.47 1.82 84.40 1.57 82.33 1.65 C 80.52 2.00 78.69 2.28 77.00 3.04 Z" />
</g>
<g id="#fef5eaff">
<path fill="#fef5ea" opacity="1.00" d=" M 77.00 3.04 C 78.69 2.28 80.52 2.00 82.33 1.65 C 82.33 2.74 82.34 3.84 82.35 4.93 C 81.79 5.00 80.68 5.14 80.12 5.21 C 79.39 5.19 77.91 5.16 77.17 5.14 C 77.13 4.62 77.04 3.56 77.00 3.04 Z" />
</g>
<g id="#fec99dff">
<path fill="#fec99d" opacity="1.00" d=" M 82.33 1.65 C 84.40 1.57 86.47 1.82 88.49 2.34 C 87.17 4.52 84.63 4.72 82.35 4.93 C 82.34 3.84 82.33 2.74 82.33 1.65 Z" />
</g>
<g id="#fea577ff">
<path fill="#fea577" opacity="1.00" d=" M 88.49 2.34 C 90.67 3.22 92.92 4.05 94.74 5.59 C 85.78 4.78 74.73 7.44 71.10 16.68 C 69.06 21.02 68.95 25.88 68.32 30.55 C 66.53 22.97 66.83 14.59 71.04 7.82 L 71.25 7.81 C 74.48 8.16 77.24 6.31 80.12 5.21 C 80.68 5.14 81.79 5.00 82.35 4.93 C 84.63 4.72 87.17 4.52 88.49 2.34 Z" />
</g>
<g id="#f9c99dff">
<path fill="#f9c99d" opacity="1.00" d=" M 71.25 7.81 C 72.66 5.69 74.78 4.22 77.00 3.04 C 77.04 3.56 77.13 4.62 77.17 5.14 C 77.91 5.16 79.39 5.19 80.12 5.21 C 77.24 6.31 74.48 8.16 71.25 7.81 Z" />
</g>
<g id="#d55845ff">
<path fill="#d55845" opacity="1.00" d=" M 71.10 16.68 C 74.73 7.44 85.78 4.78 94.74 5.59 C 98.19 8.45 100.62 12.53 101.16 17.01 C 101.21 20.79 99.61 24.56 96.81 27.10 C 96.43 26.99 95.68 26.76 95.30 26.64 C 96.78 24.82 98.16 22.90 98.99 20.69 C 93.65 20.04 88.34 21.11 83.01 20.98 C 79.45 20.82 76.04 22.44 72.49 21.86 C 72.04 20.12 71.58 18.40 71.10 16.68 Z" />
</g>
<g id="#cd5141ff">
<path fill="#cd5141" opacity="1.00" d=" M 71.10 16.68 C 71.58 18.40 72.04 20.12 72.49 21.86 C 76.04 22.44 79.45 20.82 83.01 20.98 C 88.34 21.11 93.65 20.04 98.99 20.69 C 98.16 22.90 96.78 24.82 95.30 26.64 C 95.68 26.76 96.43 26.99 96.81 27.10 C 93.91 30.50 89.76 32.34 85.82 34.22 C 83.92 34.35 82.01 34.19 80.11 34.16 C 79.17 38.76 84.50 36.33 86.74 38.19 C 88.33 39.48 90.88 40.63 91.01 42.90 C 88.78 46.89 82.53 43.10 80.56 46.98 C 82.61 49.09 83.84 51.74 84.55 54.57 C 80.83 54.50 78.52 51.19 76.45 48.53 C 72.73 43.09 69.97 36.91 68.32 30.55 C 68.95 25.88 69.06 21.02 71.10 16.68 Z" />
</g>
<g id="#ffd771ff">
<path fill="#ffd771" opacity="1.00" d=" M 86.80 36.24 C 89.28 35.29 91.65 34.09 93.96 32.78 C 100.12 35.36 105.16 39.82 110.78 43.23 L 111.16 43.74 C 111.65 44.89 112.77 45.53 113.66 46.34 C 118.06 50.00 121.45 54.66 125.26 58.88 L 125.29 57.92 C 125.58 60.15 127.28 61.76 128.36 63.63 C 131.90 69.51 134.79 75.90 136.41 82.56 C 136.00 83.02 135.18 83.94 134.77 84.40 C 134.50 81.40 133.57 78.53 131.76 76.10 C 129.94 76.36 129.21 78.01 128.43 79.46 C 127.99 79.36 127.12 79.16 126.68 79.05 C 126.58 76.07 127.22 72.81 125.64 70.10 C 122.74 64.42 116.29 60.77 109.92 61.42 C 104.24 61.78 99.18 65.43 96.70 70.50 C 96.69 69.01 96.62 67.52 96.56 66.04 C 91.90 65.72 87.19 65.56 82.58 66.42 C 77.25 67.45 71.81 66.36 66.45 67.11 C 66.42 68.59 66.35 70.08 66.30 71.56 C 64.00 67.13 60.12 63.15 55.00 62.32 C 46.24 59.68 35.53 66.51 35.42 75.95 C 35.05 79.13 36.20 82.13 37.70 84.87 C 35.72 84.05 34.52 82.24 32.93 80.91 C 30.27 80.37 28.40 82.88 26.38 84.15 C 27.10 75.53 31.79 67.89 35.76 60.39 C 36.35 59.58 36.95 58.77 37.47 57.91 C 40.42 55.36 42.44 51.96 45.25 49.27 C 47.50 46.67 50.56 44.84 52.48 41.95 L 52.49 41.94 C 54.09 41.64 55.28 40.46 56.54 39.54 C 59.88 36.91 63.57 34.78 67.34 32.87 C 70.42 41.70 74.27 51.41 82.53 56.60 C 84.43 58.24 86.84 56.92 87.02 54.57 C 87.21 53.12 87.28 51.66 87.33 50.20 C 89.27 49.19 91.60 48.40 92.35 46.10 C 94.84 41.65 89.69 38.64 86.80 36.24 M 61.26 40.28 C 57.70 41.67 54.86 44.46 52.65 47.51 C 51.40 49.17 52.89 51.96 55.05 51.49 C 58.91 50.10 62.80 47.78 64.57 43.92 C 65.69 41.77 63.51 39.27 61.26 40.28 M 50.08 58.86 C 51.64 57.71 53.02 56.25 54.87 55.55 C 56.48 55.24 58.10 55.94 59.70 55.55 C 59.18 54.42 58.25 53.11 56.83 53.37 C 53.91 53.74 50.30 55.56 50.08 58.86 M 102.40 55.56 C 104.50 55.44 106.89 54.72 108.78 56.02 C 109.90 56.68 110.67 58.21 112.18 57.92 C 110.97 55.54 108.75 53.72 106.07 53.32 C 104.43 52.68 102.47 53.78 102.40 55.56 Z" />
</g>
<g id="#ffffffff">
<path fill="#ffffff" opacity="1.00" d=" M 61.26 40.28 C 63.51 39.27 65.69 41.77 64.57 43.92 C 62.80 47.78 58.91 50.10 55.05 51.49 C 52.89 51.96 51.40 49.17 52.65 47.51 C 54.86 44.46 57.70 41.67 61.26 40.28 Z" />
<path fill="#ffffff" opacity="1.00" d=" M 37.41 72.24 C 39.33 65.24 48.17 61.16 54.99 63.30 C 59.64 64.27 62.95 68.01 65.46 71.79 C 63.71 71.74 61.21 72.27 61.10 74.44 C 61.91 77.28 65.12 77.06 66.41 74.76 C 67.38 83.57 59.18 92.99 50.05 91.40 C 47.96 90.88 45.83 90.23 44.04 89.02 C 39.34 84.90 36.65 78.49 37.41 72.24 Z" />
<path fill="#ffffff" opacity="1.00" d=" M 97.58 71.48 C 100.47 63.76 110.66 60.06 117.93 63.97 C 121.36 65.50 123.83 68.56 125.43 71.89 L 125.32 72.57 C 124.74 76.66 123.81 80.68 122.75 84.68 C 120.75 88.45 116.19 90.53 112.03 90.87 C 103.19 91.90 95.85 83.04 96.23 74.62 C 96.81 73.64 97.64 72.71 97.58 71.48 M 99.45 70.97 C 100.21 73.09 98.78 74.13 97.18 75.00 C 100.49 78.39 103.78 72.15 99.45 70.97 Z" />
<path fill="#ffffff" opacity="1.00" d=" M 72.57 78.28 C 73.27 77.67 73.99 77.09 74.73 76.53 C 75.38 76.58 76.69 76.67 77.35 76.72 C 76.98 78.60 75.71 80.04 74.42 81.37 C 73.47 80.57 72.85 79.54 72.57 78.28 Z" />
<path fill="#ffffff" opacity="1.00" d=" M 70.16 112.27 C 77.71 110.31 85.72 110.32 93.30 112.09 C 94.47 112.38 95.63 112.68 96.78 113.03 C 102.24 114.78 107.74 117.40 111.33 122.04 C 107.64 123.04 103.84 123.77 100.34 125.44 C 97.42 126.03 93.69 127.43 91.19 125.18 C 92.69 122.61 94.37 120.16 96.30 117.90 C 96.94 119.07 97.54 120.25 98.14 121.44 C 99.36 119.79 97.99 117.96 97.32 116.43 C 95.24 116.27 93.86 117.94 92.70 119.42 C 91.15 121.51 89.43 123.79 89.62 126.56 C 89.30 126.42 88.65 126.15 88.32 126.02 C 89.71 122.66 86.24 120.05 83.85 118.32 C 82.13 117.36 79.21 115.17 77.73 117.57 C 77.41 120.46 78.61 123.24 79.18 126.04 C 78.19 126.41 77.46 127.06 76.97 127.99 L 75.90 127.32 C 75.71 126.94 75.33 126.18 75.14 125.79 C 72.12 123.89 67.65 124.33 65.59 121.10 C 66.79 119.14 68.53 116.95 71.14 117.36 C 73.36 118.23 74.01 120.83 75.96 122.07 C 75.57 119.64 74.28 117.18 71.96 116.13 C 68.51 115.35 64.16 118.14 64.40 121.87 C 65.83 125.21 70.11 125.35 73.13 126.43 C 70.08 126.60 67.13 125.36 64.08 125.74 C 60.74 125.12 57.67 123.09 54.23 123.10 C 52.72 124.09 51.86 125.74 50.87 127.21 C 50.72 127.16 50.41 127.06 50.25 127.01 C 51.11 125.24 52.07 123.53 53.20 121.92 C 56.26 118.65 60.06 116.12 64.20 114.42 C 66.15 113.60 68.13 112.85 70.16 112.27 Z" />
<path fill="#ffffff" opacity="1.00" d=" M 79.04 117.80 C 82.48 118.69 86.86 121.22 87.04 125.14 C 85.02 126.14 82.84 126.53 80.60 126.47 C 80.57 124.36 80.22 122.21 80.82 120.15 C 80.44 120.23 79.69 120.40 79.31 120.48 C 79.24 119.81 79.11 118.47 79.04 117.80 Z" />
<path fill="#ffffff" opacity="1.00" d=" M 76.17 132.98 C 80.40 133.03 84.63 132.94 88.85 132.98 L 87.63 134.34 C 87.55 134.84 87.39 135.84 87.31 136.34 C 84.09 136.35 80.88 136.36 77.67 136.29 C 77.29 135.46 76.55 133.81 76.17 132.98 Z" />
<path fill="#ffffff" opacity="1.00" d=" M 87.44 136.34 C 89.85 135.91 92.26 135.52 94.68 135.21 C 94.13 136.46 93.58 137.72 93.05 138.98 C 90.83 140.03 88.47 140.77 86.00 140.75 C 86.48 139.28 86.96 137.81 87.44 136.34 Z" />
<path fill="#ffffff" opacity="1.00" d=" M 70.04 135.76 C 72.57 135.45 75.10 135.83 77.57 136.33 C 78.05 137.82 78.53 139.31 79.02 140.80 C 77.14 140.69 75.27 140.52 73.39 140.40 L 73.39 140.40 C 71.96 139.10 70.90 137.47 70.04 135.76 Z" />
</g>
<g id="#42280cba">
<path fill="#42280c" opacity="0.73" d=" M 44.98 48.04 C 47.43 45.99 49.29 42.87 52.48 41.95 C 50.56 44.84 47.50 46.67 45.25 49.27 C 42.44 51.96 40.42 55.36 37.47 57.91 C 38.84 53.93 42.27 51.13 44.98 48.04 Z" />
</g>
<g id="#42280cb7">
<path fill="#42280c" opacity="0.72" d=" M 111.16 43.74 C 114.91 44.84 117.10 48.48 119.86 51.02 C 121.73 53.56 124.89 55.56 125.26 58.88 C 121.45 54.66 118.06 50.00 113.66 46.34 C 112.77 45.53 111.65 44.89 111.16 43.74 Z" />
</g>
<g id="#e69e3cff">
<path fill="#e69e3c" opacity="1.00" d=" M 84.02 48.92 C 86.92 48.38 89.79 47.61 92.35 46.10 C 91.60 48.40 89.27 49.19 87.33 50.20 C 87.28 51.66 87.21 53.12 87.02 54.57 C 86.04 52.68 85.05 50.79 84.02 48.92 Z" />
</g>
<g id="#260000ff">
<path fill="#260000" opacity="1.00" d=" M 50.08 58.86 C 50.30 55.56 53.91 53.74 56.83 53.37 C 58.25 53.11 59.18 54.42 59.70 55.55 C 58.10 55.94 56.48 55.24 54.87 55.55 C 53.02 56.25 51.64 57.71 50.08 58.86 Z" />
<path fill="#260000" opacity="1.00" d=" M 96.70 70.50 C 99.18 65.43 104.24 61.78 109.92 61.42 C 116.29 60.77 122.74 64.42 125.64 70.10 C 127.22 72.81 126.58 76.07 126.68 79.05 C 125.96 84.93 120.80 89.40 115.52 91.44 C 110.71 91.99 105.59 92.07 101.69 88.75 C 96.32 84.49 93.74 76.92 96.70 70.50 M 97.58 71.48 C 97.64 72.71 96.81 73.64 96.23 74.62 C 95.85 83.04 103.19 91.90 112.03 90.87 C 116.19 90.53 120.75 88.45 122.75 84.68 C 126.38 82.19 126.69 76.50 125.32 72.57 L 125.43 71.89 C 123.83 68.56 121.36 65.50 117.93 63.97 C 110.66 60.06 100.47 63.76 97.58 71.48 Z" />
<path fill="#260000" opacity="1.00" d=" M 35.42 75.95 C 35.53 66.51 46.24 59.68 55.00 62.32 C 60.12 63.15 64.00 67.13 66.30 71.56 C 67.92 76.31 67.45 81.52 64.48 85.65 C 63.07 87.50 61.36 89.09 59.48 90.47 C 56.20 91.92 52.63 93.23 49.01 92.24 C 47.83 91.92 46.67 91.56 45.51 91.24 C 42.41 89.77 39.97 87.37 37.70 84.87 C 36.20 82.13 35.05 79.13 35.42 75.95 M 37.41 72.24 L 36.75 72.11 C 36.59 73.37 36.42 74.64 36.35 75.92 C 35.63 81.36 39.25 86.71 44.04 89.02 C 45.83 90.23 47.96 90.88 50.05 91.40 C 59.18 92.99 67.38 83.57 66.41 74.76 C 65.12 77.06 61.91 77.28 61.10 74.44 C 61.75 74.50 63.07 74.63 63.72 74.70 C 63.98 73.54 64.56 72.57 65.46 71.79 C 62.95 68.01 59.64 64.27 54.99 63.30 C 48.17 61.16 39.33 65.24 37.41 72.24 Z" />
<path fill="#260000" opacity="1.00" d=" M 99.45 70.97 C 103.78 72.15 100.49 78.39 97.18 75.00 C 98.78 74.13 100.21 73.09 99.45 70.97 Z" />
<path fill="#260000" opacity="1.00" d=" M 72.93 76.29 C 75.45 74.50 78.36 73.15 81.53 73.22 C 81.13 73.48 80.35 73.99 79.96 74.25 C 78.04 74.56 76.23 75.29 74.73 76.53 C 73.99 77.09 73.27 77.67 72.57 78.28 C 70.07 80.57 68.34 83.86 68.52 87.32 C 69.99 87.47 71.46 87.63 72.92 87.83 C 74.83 88.23 76.78 88.36 78.74 88.33 C 82.66 88.41 86.61 88.41 90.47 87.61 C 91.77 87.47 93.08 87.37 94.38 87.30 C 95.27 83.28 92.37 79.62 89.40 77.28 C 87.18 75.11 83.85 75.10 81.55 73.23 C 89.02 73.33 95.51 79.84 95.81 87.26 C 95.41 87.45 94.61 87.82 94.20 88.01 C 93.87 88.20 93.19 88.58 92.85 88.77 C 91.81 92.73 88.94 96.27 84.91 97.42 C 81.42 98.08 77.69 97.78 74.65 95.82 C 72.51 93.87 71.00 91.40 70.20 88.62 C 69.22 88.25 68.23 87.90 67.24 87.57 C 67.17 83.10 69.72 79.19 72.93 76.29 M 71.32 88.45 C 71.65 91.57 74.03 94.41 76.88 95.67 L 77.12 96.24 C 79.39 96.60 81.72 97.27 83.98 96.49 C 87.92 96.04 91.50 92.23 91.79 88.31 C 86.09 89.46 80.33 89.21 74.55 89.21 C 73.74 89.02 72.13 88.64 71.32 88.45 Z" />
<path fill="#260000" opacity="1.00" d=" M 143.92 78.83 C 150.31 75.15 159.80 78.38 162.00 85.71 L 162.00 91.34 L 161.50 91.35 C 160.76 88.25 161.54 84.56 158.91 82.07 C 155.24 77.64 149.04 78.00 143.92 78.83 Z" />
<path fill="#260000" opacity="1.00" d=" M 64.40 121.87 C 64.16 118.14 68.51 115.35 71.96 116.13 C 74.28 117.18 75.57 119.64 75.96 122.07 C 74.01 120.83 73.36 118.23 71.14 117.36 C 68.53 116.95 66.79 119.14 65.59 121.10 C 67.65 124.33 72.12 123.89 75.14 125.79 C 75.33 126.18 75.71 126.94 75.90 127.32 C 72.72 129.55 68.73 127.91 65.24 127.54 C 64.95 127.09 64.37 126.19 64.08 125.74 C 67.13 125.36 70.08 126.60 73.13 126.43 C 70.11 125.35 65.83 125.21 64.40 121.87 Z" />
<path fill="#260000" opacity="1.00" d=" M 77.73 117.57 C 79.21 115.17 82.13 117.36 83.85 118.32 C 86.24 120.05 89.71 122.66 88.32 126.02 C 85.38 128.81 80.68 129.08 76.97 127.99 C 77.46 127.06 78.19 126.41 79.18 126.04 C 78.61 123.24 77.41 120.46 77.73 117.57 M 79.04 117.80 C 79.11 118.47 79.24 119.81 79.31 120.48 C 79.69 120.40 80.44 120.23 80.82 120.15 C 80.22 122.21 80.57 124.36 80.60 126.47 C 82.84 126.53 85.02 126.14 87.04 125.14 C 86.86 121.22 82.48 118.69 79.04 117.80 Z" />
<path fill="#260000" opacity="1.00" d=" M 92.70 119.42 C 93.86 117.94 95.24 116.27 97.32 116.43 C 97.99 117.96 99.36 119.79 98.14 121.44 C 97.54 120.25 96.94 119.07 96.30 117.90 C 94.37 120.16 92.69 122.61 91.19 125.18 C 93.69 127.43 97.42 126.03 100.34 125.44 C 100.42 128.34 97.02 128.14 94.96 128.23 C 93.01 128.42 91.17 127.69 89.62 126.56 C 89.43 123.79 91.15 121.51 92.70 119.42 Z" />
<path fill="#260000" opacity="1.00" d=" M 40.42 127.52 C 43.43 129.00 46.04 131.15 49.03 132.67 C 53.19 134.76 57.58 136.44 62.10 137.58 C 62.91 137.76 63.59 138.17 64.14 138.81 C 60.98 138.71 58.13 137.18 55.07 136.55 C 54.97 138.66 54.73 140.77 54.18 142.81 C 53.78 142.67 52.99 142.38 52.59 142.23 C 50.90 139.91 50.50 137.01 49.57 134.36 C 47.83 132.61 45.40 131.73 43.39 130.32 C 42.23 129.58 41.29 128.57 40.42 127.52 M 50.55 134.63 C 51.74 136.67 51.13 140.90 54.23 140.96 C 54.25 139.29 54.25 137.63 54.25 135.96 C 53.02 135.52 51.78 135.08 50.55 134.63 Z" />
</g>
<g id="#1e0000ff">
<path fill="#1e0000" opacity="1.00" d=" M 102.40 55.56 C 102.47 53.78 104.43 52.68 106.07 53.32 C 108.75 53.72 110.97 55.54 112.18 57.92 C 110.67 58.21 109.90 56.68 108.78 56.02 C 106.89 54.72 104.50 55.44 102.40 55.56 Z" />
</g>
<g id="#1f09009f">
<path fill="#1f0900" opacity="0.62" d=" M 125.29 57.92 C 131.43 64.48 134.44 73.27 137.62 81.52 C 139.52 80.48 141.32 78.28 143.72 78.95 C 134.43 83.08 128.03 93.05 129.51 103.34 C 130.63 108.73 133.80 113.75 138.54 116.66 C 140.26 117.89 142.44 117.85 144.41 117.33 C 144.81 115.02 144.72 112.63 143.22 110.72 C 141.57 110.09 139.93 109.42 138.36 108.62 L 138.37 108.18 C 142.47 110.16 147.52 110.65 151.77 108.95 C 155.20 107.42 155.57 102.67 152.77 100.33 C 152.36 99.87 151.52 98.95 151.10 98.49 C 148.36 98.58 145.62 98.60 142.89 98.58 C 144.12 98.26 145.35 97.97 146.59 97.68 C 149.71 97.81 152.85 97.24 155.61 95.76 C 157.92 94.81 159.01 92.20 161.45 91.44 L 161.33 91.71 C 159.79 95.26 156.04 97.01 152.67 98.41 C 154.43 100.57 156.47 103.42 155.27 106.34 C 153.78 110.51 148.70 111.29 144.84 111.21 C 145.85 113.92 146.25 117.66 142.96 118.96 C 139.62 119.01 136.75 116.57 134.00 114.89 C 130.60 121.14 125.75 126.64 119.78 130.53 C 118.32 131.47 116.82 132.38 115.34 133.28 C 114.24 136.50 114.32 140.79 110.94 142.61 C 109.91 140.60 109.37 138.41 108.97 136.20 C 101.91 139.24 94.24 140.18 86.85 141.99 C 82.42 141.62 77.15 143.42 73.39 140.40 C 75.27 140.52 77.14 140.69 79.02 140.80 C 81.35 140.88 83.68 140.84 86.00 140.75 C 88.47 140.77 90.83 140.03 93.05 138.98 C 93.58 137.72 94.13 136.46 94.68 135.21 C 95.25 133.94 95.81 132.68 96.38 131.42 C 87.00 131.88 77.54 132.68 68.19 131.50 C 68.75 132.94 69.33 134.38 70.04 135.76 C 70.90 137.47 71.96 139.10 73.39 140.40 C 70.51 140.49 67.03 140.88 64.65 138.99 C 66.76 138.41 68.82 139.17 70.88 139.55 C 69.82 136.81 68.40 134.23 67.15 131.57 C 61.30 130.71 55.44 129.74 49.84 127.79 C 44.66 126.15 39.81 123.68 34.97 121.24 L 36.65 124.57 C 33.52 122.43 31.67 119.00 29.66 115.90 C 26.79 117.73 23.96 120.47 20.30 120.06 L 19.69 119.19 C 21.67 118.81 23.80 118.73 25.50 117.51 C 29.14 114.75 32.18 111.03 33.35 106.54 C 34.24 101.12 33.81 95.31 30.85 90.55 C 26.83 84.18 19.97 78.77 12.07 79.31 C 6.78 79.12 0.88 83.27 1.22 88.97 C 0.96 91.61 2.61 93.77 4.38 95.52 C 7.81 98.27 12.26 98.96 16.54 98.85 C 17.75 99.04 18.97 99.27 20.18 99.53 C 17.43 99.65 14.67 99.67 11.92 99.61 C 10.39 101.51 8.10 103.36 8.40 106.07 C 8.34 108.57 11.09 109.66 12.51 111.30 C 9.67 111.36 7.57 108.72 7.30 106.07 C 7.22 103.52 8.93 101.47 10.17 99.41 C 5.69 98.49 1.91 95.51 0.00 91.36 L 0.00 86.37 C 1.83 82.86 4.50 79.36 8.67 78.66 C 14.54 76.56 20.23 79.76 25.41 82.13 C 26.97 74.65 30.24 67.56 34.40 61.17 L 35.76 60.39 C 31.79 67.89 27.10 75.53 26.38 84.15 C 33.62 89.86 36.64 100.28 33.41 108.94 C 32.77 111.19 30.53 112.79 30.34 115.11 C 31.43 117.42 33.10 119.56 35.43 120.73 C 40.26 123.06 45.02 125.67 50.25 127.01 C 50.41 127.06 50.72 127.16 50.87 127.21 C 71.45 133.21 93.93 132.83 114.32 126.21 C 119.56 124.59 124.33 121.85 129.14 119.29 C 131.34 118.19 132.37 115.86 133.59 113.87 C 132.95 112.89 132.31 111.90 131.70 110.91 C 129.01 106.89 128.08 101.93 128.62 97.16 C 128.88 96.15 129.15 95.14 129.41 94.13 C 130.21 90.46 132.30 87.18 134.77 84.40 C 135.18 83.94 136.00 83.02 136.41 82.56 C 134.79 75.90 131.90 69.51 128.36 63.63 C 127.28 61.76 125.58 60.15 125.29 57.92 M 114.13 126.61 L 114.41 127.44 C 108.96 128.37 103.64 130.84 97.95 130.69 C 96.21 133.24 94.54 136.61 94.57 139.62 C 101.50 137.01 109.48 136.16 115.51 131.40 L 115.66 132.05 C 120.94 128.88 125.84 125.00 129.54 120.03 C 124.34 121.98 119.78 125.97 114.13 126.61 M 111.80 139.62 C 112.75 138.30 112.61 136.40 112.60 134.84 C 110.47 134.55 109.89 139.20 111.80 139.62 Z" />
</g>
<g id="#ffc868ff">
<path fill="#ffc868" opacity="1.00" d=" M 82.58 66.42 C 87.19 65.56 91.90 65.72 96.56 66.04 C 96.62 67.52 96.69 69.01 96.70 70.50 C 93.74 76.92 96.32 84.49 101.69 88.75 C 99.72 88.28 97.76 87.79 95.81 87.26 C 95.51 79.84 89.02 73.33 81.55 73.23 L 81.53 73.22 C 78.15 71.22 74.03 73.30 71.76 76.03 L 72.93 76.29 C 69.72 79.19 67.17 83.10 67.24 87.57 C 66.71 87.39 65.64 87.03 65.11 86.86 L 64.48 85.65 C 67.45 81.52 67.92 76.31 66.30 71.56 C 66.35 70.08 66.42 68.59 66.45 67.11 C 71.81 66.36 77.25 67.45 82.58 66.42 Z" />
</g>
<g id="#aaaaaaff">
<path fill="#aaaaaa" opacity="1.00" d=" M 36.75 72.11 L 37.41 72.24 C 36.65 78.49 39.34 84.90 44.04 89.02 C 39.25 86.71 35.63 81.36 36.35 75.92 C 36.42 74.64 36.59 73.37 36.75 72.11 Z" />
<path fill="#aaaaaa" opacity="1.00" d=" M 61.10 74.44 C 61.21 72.27 63.71 71.74 65.46 71.79 C 64.56 72.57 63.98 73.54 63.72 74.70 C 63.07 74.63 61.75 74.50 61.10 74.44 Z" />
<path fill="#aaaaaa" opacity="1.00" d=" M 68.19 131.50 C 77.54 132.68 87.00 131.88 96.38 131.42 C 95.81 132.68 95.25 133.94 94.68 135.21 C 92.26 135.52 89.85 135.91 87.44 136.34 C 86.96 137.81 86.48 139.28 86.00 140.75 C 83.68 140.84 81.35 140.88 79.02 140.80 C 78.53 139.31 78.05 137.82 77.57 136.33 C 75.10 135.83 72.57 135.45 70.04 135.76 C 69.33 134.38 68.75 132.94 68.19 131.50 M 76.17 132.98 C 76.55 133.81 77.29 135.46 77.67 136.29 C 80.88 136.36 84.09 136.35 87.31 136.34 C 87.39 135.84 87.55 134.84 87.63 134.34 L 88.85 132.98 C 84.63 132.94 80.40 133.03 76.17 132.98 Z" />
</g>
<g id="#fbec9eff">
<path fill="#fbec9e" opacity="1.00" d=" M 71.76 76.03 C 74.03 73.30 78.15 71.22 81.53 73.22 C 78.36 73.15 75.45 74.50 72.93 76.29 L 71.76 76.03 Z" />
<path fill="#fbec9e" opacity="1.00" d=" M 59.48 90.47 C 61.36 89.09 63.07 87.50 64.48 85.65 L 65.11 86.86 C 63.61 88.48 62.09 91.15 59.48 90.47 Z" />
<path fill="#fbec9e" opacity="1.00" d=" M 70.98 106.03 C 77.37 102.33 86.10 102.29 92.08 106.84 C 93.87 108.06 93.63 110.24 93.30 112.09 C 85.72 110.32 77.71 110.31 70.16 112.27 C 69.45 111.47 68.74 110.68 68.03 109.90 C 68.71 108.41 69.45 106.82 70.98 106.03 Z" />
</g>
<g id="#d85c48ff">
<path fill="#d85c48" opacity="1.00" d=" M 81.53 73.22 L 81.55 73.23 C 83.85 75.10 87.18 75.11 89.40 77.28 C 89.41 80.75 89.93 84.19 90.47 87.61 C 86.61 88.41 82.66 88.41 78.74 88.33 C 78.49 83.74 79.19 79.16 80.99 74.93 L 79.96 74.25 C 80.35 73.99 81.13 73.48 81.53 73.22 Z" />
</g>
<g id="#b0acddff">
<path fill="#b0acdd" opacity="1.00" d=" M 125.32 72.57 C 126.69 76.50 126.38 82.19 122.75 84.68 C 123.81 80.68 124.74 76.66 125.32 72.57 Z" />
</g>
<g id="#fea677ff">
<path fill="#fea677" opacity="1.00" d=" M 74.73 76.53 C 76.23 75.29 78.04 74.56 79.96 74.25 L 80.99 74.93 C 79.19 79.16 78.49 83.74 78.74 88.33 C 76.78 88.36 74.83 88.23 72.92 87.83 C 73.31 87.59 74.08 87.11 74.47 86.87 C 74.54 85.04 74.55 83.20 74.42 81.37 C 75.71 80.04 76.98 78.60 77.35 76.72 C 76.69 76.67 75.38 76.58 74.73 76.53 Z" />
</g>
<g id="#f7bb60ff">
<path fill="#f7bb60" opacity="1.00" d=" M 128.43 79.46 C 129.21 78.01 129.94 76.36 131.76 76.10 C 133.57 78.53 134.50 81.40 134.77 84.40 C 132.30 87.18 130.21 90.46 129.41 94.13 C 128.36 92.69 127.71 90.60 125.78 90.14 C 122.27 88.46 119.14 92.34 115.52 91.44 C 120.80 89.40 125.96 84.93 126.68 79.05 C 127.12 79.16 127.99 79.36 128.43 79.46 Z" />
</g>
<g id="#a84b47ff">
<path fill="#a84b47" opacity="1.00" d=" M 89.40 77.28 C 92.37 79.62 95.27 83.28 94.38 87.30 C 93.08 87.37 91.77 87.47 90.47 87.61 C 89.93 84.19 89.41 80.75 89.40 77.28 Z" />
</g>
<g id="#ffcb9eff">
<path fill="#ffcb9e" opacity="1.00" d=" M 68.52 87.32 C 68.34 83.86 70.07 80.57 72.57 78.28 C 72.85 79.54 73.47 80.57 74.42 81.37 C 74.55 83.20 74.54 85.04 74.47 86.87 C 74.08 87.11 73.31 87.59 72.92 87.83 C 71.46 87.63 69.99 87.47 68.52 87.32 Z" />
<path fill="#ffcb9e" opacity="1.00" d=" M 71.32 88.45 C 72.13 88.64 73.74 89.02 74.55 89.21 C 74.71 89.34 75.04 89.60 75.20 89.73 C 75.25 91.83 76.06 93.77 76.88 95.67 C 74.03 94.41 71.65 91.57 71.32 88.45 Z" />
</g>
<g id="#ffcd6bff">
<path fill="#ffcd6b" opacity="1.00" d=" M 143.72 78.95 C 143.77 78.92 143.87 78.86 143.92 78.83 C 149.04 78.00 155.24 77.64 158.91 82.07 C 161.54 84.56 160.76 88.25 161.50 91.35 L 161.33 91.71 L 161.45 91.44 C 159.01 92.20 157.92 94.81 155.61 95.76 C 152.85 97.24 149.71 97.81 146.59 97.68 C 142.16 96.34 137.60 98.00 133.09 98.00 C 131.38 99.32 130.73 101.60 129.51 103.34 C 128.03 93.05 134.43 83.08 143.72 78.95 Z" />
</g>
<g id="#ffd570ff">
<path fill="#ffd570" opacity="1.00" d=" M 1.22 88.97 C 0.88 83.27 6.78 79.12 12.07 79.31 C 19.97 78.77 26.83 84.18 30.85 90.55 C 22.18 93.01 12.32 90.31 4.38 95.52 C 2.61 93.77 0.96 91.61 1.22 88.97 Z" />
</g>
<g id="#eeb45cff">
<path fill="#eeb45c" opacity="1.00" d=" M 26.38 84.15 C 28.40 82.88 30.27 80.37 32.93 80.91 C 34.52 82.24 35.72 84.05 37.70 84.87 C 39.97 87.37 42.41 89.77 45.51 91.24 C 41.97 91.18 37.66 90.34 35.45 93.91 C 37.86 98.27 44.52 99.58 48.40 96.42 C 49.12 95.16 48.81 93.62 49.01 92.24 C 52.63 93.23 56.20 91.92 59.48 90.47 C 62.09 91.15 63.61 88.48 65.11 86.86 C 65.64 87.03 66.71 87.39 67.24 87.57 C 68.23 87.90 69.22 88.25 70.20 88.62 C 71.00 91.40 72.51 93.87 74.65 95.82 C 74.80 96.32 75.10 97.32 75.26 97.82 C 71.13 99.89 65.70 100.90 63.50 105.44 C 61.76 108.25 61.34 112.18 64.20 114.42 C 60.06 116.12 56.26 118.65 53.20 121.92 C 47.50 120.12 42.49 116.78 37.55 113.51 C 35.87 112.31 33.75 111.21 33.41 108.94 C 36.64 100.28 33.62 89.86 26.38 84.15 Z" />
<path fill="#eeb45c" opacity="1.00" d=" M 95.81 87.26 C 97.76 87.79 99.72 88.28 101.69 88.75 C 105.59 92.07 110.71 91.99 115.52 91.44 C 114.94 92.75 113.65 94.49 115.27 95.65 C 118.68 98.68 124.42 98.19 127.86 95.41 C 128.05 95.85 128.43 96.72 128.62 97.16 C 128.08 101.93 129.01 106.89 131.70 110.91 C 126.32 114.39 120.56 117.23 114.70 119.79 C 113.52 120.28 112.52 121.08 111.54 121.88 L 111.33 122.04 C 107.74 117.40 102.24 114.78 96.78 113.03 C 98.20 112.14 100.58 111.34 99.75 109.17 C 98.72 103.38 93.35 100.53 88.71 97.92 C 91.99 95.61 94.59 92.24 94.20 88.01 C 94.61 87.82 95.41 87.45 95.81 87.26 Z" />
</g>
<g id="#fc8a2eff">
<path fill="#fc8a2e" opacity="1.00" d=" M 92.85 88.77 C 93.19 88.58 93.87 88.20 94.20 88.01 C 94.59 92.24 91.99 95.61 88.71 97.92 C 84.55 100.16 79.36 100.27 75.26 97.82 C 75.10 97.32 74.80 96.32 74.65 95.82 C 77.69 97.78 81.42 98.08 84.91 97.42 C 88.94 96.27 91.81 92.73 92.85 88.77 Z" />
<path fill="#fc8a2e" opacity="1.00" d=" M 12.51 111.30 C 16.88 110.85 21.28 110.73 25.32 108.73 C 25.34 111.37 23.07 112.95 21.88 115.05 C 22.27 116.74 24.25 116.79 25.50 117.51 C 23.80 118.73 21.67 118.81 19.69 119.19 C 17.68 116.97 18.60 113.91 19.85 111.56 C 17.40 111.74 14.94 111.70 12.51 111.30 Z" />
<path fill="#fc8a2e" opacity="1.00" d=" M 50.55 134.63 C 51.78 135.08 53.02 135.52 54.25 135.96 C 54.25 137.63 54.25 139.29 54.23 140.96 C 51.13 140.90 51.74 136.67 50.55 134.63 Z" />
</g>
<g id="#a04343ff">
<path fill="#a04343" opacity="1.00" d=" M 74.55 89.21 C 80.33 89.21 86.09 89.46 91.79 88.31 C 91.50 92.23 87.92 96.04 83.98 96.49 C 84.94 94.42 85.90 92.34 86.80 90.23 C 82.97 89.53 79.07 89.66 75.20 89.73 C 75.04 89.60 74.71 89.34 74.55 89.21 Z" />
</g>
<g id="#ce5342ff">
<path fill="#ce5342" opacity="1.00" d=" M 75.20 89.73 C 79.07 89.66 82.97 89.53 86.80 90.23 C 85.90 92.34 84.94 94.42 83.98 96.49 C 81.72 97.27 79.39 96.60 77.12 96.24 L 76.88 95.67 C 76.06 93.77 75.25 91.83 75.20 89.73 Z" />
</g>
<g id="#e66d63ff">
<path fill="#e66d63" opacity="1.00" d=" M 115.52 91.44 C 119.14 92.34 122.27 88.46 125.78 90.14 C 127.71 90.60 128.36 92.69 129.41 94.13 C 129.15 95.14 128.88 96.15 128.62 97.16 C 128.43 96.72 128.05 95.85 127.86 95.41 C 124.42 98.19 118.68 98.68 115.27 95.65 C 113.65 94.49 114.94 92.75 115.52 91.44 Z" />
</g>
<g id="#ffc164ff">
<path fill="#ffc164" opacity="1.00" d=" M 4.38 95.52 C 12.32 90.31 22.18 93.01 30.85 90.55 C 33.81 95.31 34.24 101.12 33.35 106.54 C 31.14 103.68 32.20 99.83 31.46 96.51 C 26.35 95.88 21.37 97.42 16.54 98.85 C 12.26 98.96 7.81 98.27 4.38 95.52 Z" />
</g>
<g id="#e87762ff">
<path fill="#e87762" opacity="1.00" d=" M 35.45 93.91 C 37.66 90.34 41.97 91.18 45.51 91.24 C 46.67 91.56 47.83 91.92 49.01 92.24 C 48.81 93.62 49.12 95.16 48.40 96.42 C 44.52 99.58 37.86 98.27 35.45 93.91 Z" />
</g>
<g id="#eeb45bff">
<path fill="#eeb45b" opacity="1.00" d=" M 16.54 98.85 C 21.37 97.42 26.35 95.88 31.46 96.51 C 32.20 99.83 31.14 103.68 33.35 106.54 C 32.18 111.03 29.14 114.75 25.50 117.51 C 24.25 116.79 22.27 116.74 21.88 115.05 C 23.07 112.95 25.34 111.37 25.32 108.73 C 21.28 110.73 16.88 110.85 12.51 111.30 C 11.09 109.66 8.34 108.57 8.40 106.07 C 8.10 103.36 10.39 101.51 11.92 99.61 C 14.67 99.67 17.43 99.65 20.18 99.53 C 18.97 99.27 17.75 99.04 16.54 98.85 Z" />
</g>
<g id="#f0b65dff">
<path fill="#f0b65d" opacity="1.00" d=" M 133.09 98.00 C 137.60 98.00 142.16 96.34 146.59 97.68 C 145.35 97.97 144.12 98.26 142.89 98.58 C 145.62 98.60 148.36 98.58 151.10 98.49 C 151.52 98.95 152.36 99.87 152.77 100.33 C 151.88 101.81 151.72 104.12 149.80 104.70 C 146.14 105.99 142.10 105.80 138.52 107.41 L 138.37 108.18 L 138.36 108.62 C 138.30 111.30 138.42 113.98 138.54 116.66 C 133.80 113.75 130.63 108.73 129.51 103.34 C 130.73 101.60 131.38 99.32 133.09 98.00 Z" />
</g>
<g id="#f2c671ff">
<path fill="#f2c671" opacity="1.00" d=" M 63.50 105.44 C 65.70 100.90 71.13 99.89 75.26 97.82 C 79.36 100.27 84.55 100.16 88.71 97.92 C 93.35 100.53 98.72 103.38 99.75 109.17 C 100.58 111.34 98.20 112.14 96.78 113.03 C 95.63 112.68 94.47 112.38 93.30 112.09 C 93.63 110.24 93.87 108.06 92.08 106.84 C 86.10 102.29 77.37 102.33 70.98 106.03 C 69.45 106.82 68.71 108.41 68.03 109.90 C 68.74 110.68 69.45 111.47 70.16 112.27 C 68.13 112.85 66.15 113.60 64.20 114.42 C 61.34 112.18 61.76 108.25 63.50 105.44 Z" />
</g>
<g id="#ee812aff">
<path fill="#ee812a" opacity="1.00" d=" M 152.77 100.33 C 155.57 102.67 155.20 107.42 151.77 108.95 C 147.52 110.65 142.47 110.16 138.37 108.18 L 138.52 107.41 C 142.10 105.80 146.14 105.99 149.80 104.70 C 151.72 104.12 151.88 101.81 152.77 100.33 Z" />
</g>
<g id="#ed822bff">
<path fill="#ed822b" opacity="1.00" d=" M 30.34 115.11 C 30.53 112.79 32.77 111.19 33.41 108.94 C 33.75 111.21 35.87 112.31 37.55 113.51 C 42.49 116.78 47.50 120.12 53.20 121.92 C 52.07 123.53 51.11 125.24 50.25 127.01 C 45.02 125.67 40.26 123.06 35.43 120.73 C 33.10 119.56 31.43 117.42 30.34 115.11 Z" />
<path fill="#ed822b" opacity="1.00" d=" M 138.36 108.62 C 139.93 109.42 141.57 110.09 143.22 110.72 C 144.72 112.63 144.81 115.02 144.41 117.33 C 142.44 117.85 140.26 117.89 138.54 116.66 C 138.42 113.98 138.30 111.30 138.36 108.62 Z" />
<path fill="#ed822b" opacity="1.00" d=" M 131.70 110.91 C 132.31 111.90 132.95 112.89 133.59 113.87 C 132.37 115.86 131.34 118.19 129.14 119.29 C 124.33 121.85 119.56 124.59 114.32 126.21 C 113.40 124.76 112.47 123.32 111.54 121.88 C 112.52 121.08 113.52 120.28 114.70 119.79 C 120.56 117.23 126.32 114.39 131.70 110.91 Z" />
</g>
<g id="#ece9d6ff">
<path fill="#ece9d6" opacity="1.00" d=" M 100.34 125.44 C 103.84 123.77 107.64 123.04 111.33 122.04 L 111.54 121.88 C 112.47 123.32 113.40 124.76 114.32 126.21 C 93.93 132.83 71.45 133.21 50.87 127.21 C 51.86 125.74 52.72 124.09 54.23 123.10 C 57.67 123.09 60.74 125.12 64.08 125.74 C 64.37 126.19 64.95 127.09 65.24 127.54 C 68.73 127.91 72.72 129.55 75.90 127.32 L 76.97 127.99 C 80.68 129.08 85.38 128.81 88.32 126.02 C 88.65 126.15 89.30 126.42 89.62 126.56 C 91.17 127.69 93.01 128.42 94.96 128.23 C 97.02 128.14 100.42 128.34 100.34 125.44 Z" />
</g>
<g id="#ee832bff">
<path fill="#ee832b" opacity="1.00" d=" M 114.13 126.61 C 119.78 125.97 124.34 121.98 129.54 120.03 C 125.84 125.00 120.94 128.88 115.66 132.05 L 115.51 131.40 C 115.21 130.06 114.84 128.74 114.41 127.44 L 114.13 126.61 Z" />
</g>
<g id="#f0832cff">
<path fill="#f0832c" opacity="1.00" d=" M 34.97 121.24 C 39.81 123.68 44.66 126.15 49.84 127.79 C 49.57 129.42 49.29 131.04 49.03 132.67 C 46.04 131.15 43.43 129.00 40.42 127.52 C 39.19 126.49 37.92 125.53 36.65 124.57 L 34.97 121.24 Z" />
</g>
<g id="#ebe8d5ff">
<path fill="#ebe8d5" opacity="1.00" d=" M 49.84 127.79 C 55.44 129.74 61.30 130.71 67.15 131.57 C 68.40 134.23 69.82 136.81 70.88 139.55 C 68.82 139.17 66.76 138.41 64.65 138.99 L 64.14 138.81 C 63.59 138.17 62.91 137.76 62.10 137.58 C 57.58 136.44 53.19 134.76 49.03 132.67 C 49.29 131.04 49.57 129.42 49.84 127.79 Z" />
<path fill="#ebe8d5" opacity="1.00" d=" M 97.95 130.69 C 103.64 130.84 108.96 128.37 114.41 127.44 C 114.84 128.74 115.21 130.06 115.51 131.40 C 109.48 136.16 101.50 137.01 94.57 139.62 C 94.54 136.61 96.21 133.24 97.95 130.69 Z" />
</g>
<g id="#00000029">
<path fill="#000000" opacity="0.16" d=" M 32.29 138.33 C 33.91 133.53 39.18 132.02 43.39 130.32 C 45.40 131.73 47.83 132.61 49.57 134.36 C 50.50 137.01 50.90 139.91 52.59 142.23 C 52.99 142.38 53.78 142.67 54.18 142.81 C 66.47 146.32 79.42 144.98 92.05 145.31 C 98.37 144.69 104.79 144.31 110.94 142.61 C 114.32 140.79 114.24 136.50 115.34 133.28 C 116.82 132.38 118.32 131.47 119.78 130.53 C 123.69 132.13 128.49 133.50 130.46 137.62 C 132.68 142.41 128.47 147.47 124.05 149.01 C 115.45 152.06 106.27 153.07 97.21 153.39 C 89.18 154.58 81.04 154.11 72.96 154.16 C 61.39 152.76 49.31 153.24 38.33 148.75 C 34.31 147.09 30.97 142.86 32.29 138.33 Z" />
</g>
<g id="#f88b2eff">
<path fill="#f88b2e" opacity="1.00" d=" M 111.80 139.62 C 109.89 139.20 110.47 134.55 112.60 134.84 C 112.61 136.40 112.75 138.30 111.80 139.62 Z" />
</g>
<g id="#0000003d">
<path fill="#000000" opacity="0.24" d=" M 86.85 141.99 C 94.24 140.18 101.91 139.24 108.97 136.20 C 109.37 138.41 109.91 140.60 110.94 142.61 C 104.79 144.31 98.37 144.69 92.05 145.31 C 79.42 144.98 66.47 146.32 54.18 142.81 C 54.73 140.77 54.97 138.66 55.07 136.55 C 58.13 137.18 60.98 138.71 64.14 138.81 L 64.65 138.99 C 67.03 140.88 70.51 140.49 73.39 140.40 L 73.39 140.40 C 77.15 143.42 82.42 141.62 86.85 141.99 Z" />
</g>
</svg>
