<?xml version="1.0" encoding="UTF-8" ?>
<!DOCTYPE svg PUBLIC "-//W3C//DTD SVG 1.1//EN" "http://www.w3.org/Graphics/SVG/1.1/DTD/svg11.dtd">
<svg width="158pt" height="116pt" viewBox="0 0 158 116" version="1.1" xmlns="http://www.w3.org/2000/svg">
<g id="#ffffffff">
<path fill="#ffffff" opacity="1.00" d=" M 0.00 0.00 L 158.00 0.00 L 158.00 116.00 L 0.00 116.00 L 0.00 0.00 M 60.98 3.48 C 52.63 3.69 45.82 8.84 38.88 12.81 C 35.12 15.45 32.02 18.93 28.06 21.30 C 24.99 23.16 23.43 26.51 21.00 29.02 C 16.26 33.92 10.45 37.67 4.23 40.42 C 3.12 41.15 1.41 41.35 0.97 42.80 C 10.36 39.31 19.36 33.75 25.19 25.41 C 27.17 22.58 30.45 21.23 33.00 19.03 C 35.59 16.82 38.04 14.41 40.99 12.67 C 46.86 9.71 52.20 4.97 59.05 4.61 C 61.43 4.75 63.65 3.85 65.96 3.50 C 71.69 2.46 76.39 6.57 81.72 7.86 C 83.29 10.12 85.85 10.97 88.33 11.83 C 87.98 12.29 87.29 13.21 86.95 13.67 C 87.66 14.63 88.37 15.59 89.09 16.54 C 88.26 18.00 87.63 19.56 87.19 21.18 C 89.34 22.45 91.81 22.95 94.09 21.67 C 96.28 22.53 98.56 23.12 100.89 23.49 C 100.12 24.85 98.90 25.60 97.22 25.73 C 97.25 26.20 97.30 27.15 97.32 27.62 C 97.79 27.68 98.73 27.78 99.20 27.84 C 99.82 26.64 100.45 25.44 101.07 24.24 C 101.51 24.69 102.39 25.60 102.83 26.06 C 102.98 25.54 103.28 24.51 103.43 23.99 C 100.59 22.23 97.18 21.93 94.09 20.80 C 92.31 21.33 89.23 22.65 88.55 19.95 C 88.66 19.21 88.88 17.72 88.99 16.98 C 89.76 18.05 90.53 19.10 91.32 20.16 C 92.99 17.48 89.76 15.84 88.05 14.41 C 92.94 15.64 89.29 11.50 87.89 10.49 C 86.17 10.46 84.80 9.49 83.62 8.35 C 81.68 6.45 79.00 5.66 76.40 5.12 C 71.99 1.57 66.10 2.18 60.98 3.48 M 61.85 18.20 C 62.96 19.72 64.08 21.25 65.15 22.80 C 64.85 23.05 64.24 23.55 63.94 23.80 C 63.57 22.54 62.91 21.46 61.96 20.54 C 61.06 21.43 60.22 22.39 59.34 23.31 C 59.29 22.41 59.18 20.62 59.13 19.73 C 56.41 20.37 53.45 15.74 51.63 19.41 C 53.34 20.13 55.11 20.87 56.22 22.44 C 54.81 21.93 53.42 21.30 51.90 21.16 C 52.72 22.43 53.54 23.70 54.34 24.99 C 53.74 24.58 52.53 23.77 51.92 23.37 C 51.19 23.32 49.73 23.24 49.00 23.19 C 49.06 24.56 49.13 25.93 49.13 27.29 C 48.51 25.81 47.61 24.49 46.19 23.69 C 45.37 25.13 44.58 26.59 43.77 28.04 C 43.80 27.29 43.85 25.79 43.88 25.04 C 40.53 23.52 41.09 28.05 41.27 29.99 C 43.05 32.80 46.10 34.68 49.44 33.23 C 50.64 36.59 54.74 32.47 56.23 35.94 C 54.97 35.61 53.72 35.26 52.48 34.89 C 53.12 36.29 53.78 37.68 54.43 39.08 C 53.77 38.68 52.45 37.88 51.79 37.48 C 50.29 39.10 51.80 40.44 52.89 41.69 C 54.61 41.38 58.54 36.05 57.73 40.87 C 58.39 40.47 59.72 39.65 60.38 39.24 L 58.50 42.85 C 58.00 42.59 57.01 42.06 56.52 41.80 C 57.19 42.69 57.87 44.54 59.31 44.25 C 62.43 42.53 66.17 43.49 69.43 44.37 C 68.47 44.41 66.55 44.50 65.58 44.54 C 66.16 46.04 66.76 47.53 67.29 49.04 C 66.26 48.18 65.26 47.28 64.15 46.51 C 63.03 47.11 62.27 48.05 61.87 49.34 C 61.44 49.07 60.57 48.54 60.14 48.27 C 60.11 48.55 60.03 49.10 59.99 49.37 C 61.90 49.83 62.99 51.32 63.54 53.11 C 62.40 52.35 61.28 51.56 60.15 50.81 C 59.63 52.03 59.12 53.25 58.57 54.46 C 58.44 53.54 58.18 51.69 58.04 50.76 C 56.94 51.40 55.84 52.06 54.74 52.71 C 55.08 52.17 55.77 51.08 56.12 50.53 C 55.81 50.01 55.19 48.96 54.88 48.44 C 54.30 48.92 53.13 49.88 52.55 50.37 C 53.49 47.99 52.53 46.62 50.29 46.11 C 50.01 49.11 49.21 49.35 47.88 46.86 C 46.95 48.02 46.01 49.18 45.04 50.31 C 45.17 49.62 45.42 48.23 45.55 47.53 C 44.14 47.08 42.74 46.61 41.33 46.18 C 41.26 47.47 41.24 48.76 41.27 50.05 C 42.48 51.27 44.27 51.59 45.80 52.25 C 46.41 51.71 47.63 50.62 48.24 50.08 C 49.09 51.31 49.41 52.75 49.60 54.20 C 51.63 54.28 53.42 55.23 54.39 57.06 C 53.26 56.56 52.13 56.07 51.01 55.56 C 49.63 57.01 50.25 59.08 50.19 60.85 L 49.52 60.69 C 48.75 59.67 48.04 57.15 46.36 58.52 C 46.74 60.75 48.58 62.79 47.22 65.05 C 46.75 63.59 46.61 61.83 45.08 61.04 C 43.80 62.08 42.62 63.22 41.34 64.24 C 41.80 62.84 44.33 60.30 41.73 59.71 C 41.30 60.03 40.44 60.66 40.01 60.97 C 40.37 60.23 41.07 58.76 41.43 58.02 C 40.93 58.17 39.94 58.48 39.45 58.64 C 39.64 57.91 40.02 56.47 40.21 55.75 C 39.14 56.12 38.08 56.51 37.03 56.90 C 36.61 58.27 36.15 59.63 35.60 60.96 C 35.54 58.69 34.44 57.49 32.29 57.37 C 32.36 57.98 32.49 59.21 32.55 59.83 C 32.01 59.55 30.93 58.98 30.40 58.70 C 32.05 60.52 30.42 62.16 29.71 63.75 C 28.78 63.64 27.84 63.53 26.91 63.40 C 28.14 62.72 29.28 61.91 30.33 60.98 C 29.20 60.84 26.95 60.55 25.82 60.41 C 26.99 59.61 28.16 58.82 29.30 57.98 C 27.88 57.57 26.46 57.19 25.03 56.84 C 28.52 57.15 28.78 53.90 29.20 51.28 C 28.65 51.34 27.55 51.48 27.00 51.54 C 27.39 50.85 27.78 50.16 28.17 49.47 C 27.46 48.63 26.75 47.80 26.04 46.96 C 24.82 48.00 23.47 48.89 21.92 49.39 C 22.37 48.91 23.28 47.95 23.73 47.47 C 22.35 46.64 21.00 45.77 19.66 44.88 C 18.77 45.56 17.87 46.24 16.98 46.92 C 18.20 47.22 19.36 47.66 20.46 48.24 L 17.79 48.35 C 18.62 49.45 19.44 50.55 20.25 51.67 C 21.46 51.93 22.68 52.20 23.89 52.47 C 24.34 53.37 24.78 54.28 25.21 55.20 C 24.53 54.64 23.18 53.53 22.51 52.98 C 22.33 53.43 21.98 54.35 21.81 54.81 C 21.20 54.64 19.98 54.32 19.37 54.16 C 20.63 55.97 21.02 59.35 18.19 59.77 C 18.52 59.29 19.17 58.33 19.49 57.85 C 19.25 55.27 16.04 55.42 14.40 54.11 C 14.42 54.86 14.47 56.36 14.49 57.11 C 13.32 55.64 12.08 54.24 10.85 52.83 C 9.83 54.19 8.85 55.58 7.75 56.89 C 7.24 56.56 6.20 55.91 5.68 55.58 C 6.02 56.50 6.69 58.33 7.03 59.25 C 6.18 58.87 4.49 58.12 3.64 57.74 C 3.66 59.36 4.40 60.39 5.86 60.84 C 7.61 60.25 9.14 59.00 11.00 58.77 C 12.78 59.40 14.44 60.33 16.14 61.16 C 14.69 61.73 13.40 62.59 12.58 63.95 C 14.48 64.20 16.45 64.61 18.31 63.88 C 19.44 64.23 20.57 64.60 21.70 64.98 L 21.26 65.46 C 19.53 65.74 16.67 65.46 17.29 68.18 C 17.87 68.65 19.03 69.60 19.62 70.07 C 18.75 69.70 17.02 68.95 16.15 68.58 C 16.66 70.18 16.88 71.87 15.83 73.26 C 15.73 72.42 15.54 70.76 15.45 69.93 C 14.85 70.15 13.66 70.61 13.06 70.83 C 13.33 72.86 14.32 75.07 12.60 76.75 C 12.28 75.08 11.86 73.43 11.33 71.82 C 9.31 71.92 8.31 73.74 7.04 75.03 C 7.18 74.14 7.47 72.37 7.62 71.48 C 5.55 70.59 2.45 72.72 3.76 75.00 C 5.02 79.41 9.70 81.56 13.94 81.83 C 19.41 82.01 24.48 78.58 29.98 79.89 C 32.81 80.57 35.31 78.66 37.88 77.76 C 40.23 76.86 41.49 74.18 44.13 73.82 C 48.73 72.89 51.71 69.03 55.07 66.12 C 57.69 64.07 58.49 60.35 61.84 59.14 C 64.38 61.43 67.61 62.49 70.95 62.93 C 74.77 68.74 80.30 73.77 87.44 74.80 C 84.79 71.74 80.37 70.24 78.93 66.20 C 77.90 63.38 75.95 61.07 74.41 58.54 C 70.95 52.65 71.22 45.37 73.36 39.09 C 74.16 37.29 75.30 35.18 77.46 34.86 C 76.66 34.02 75.85 33.19 75.03 32.37 C 76.62 32.85 77.80 31.64 78.91 30.78 C 77.80 29.70 76.81 28.51 75.53 27.62 C 75.61 26.74 75.66 25.86 75.69 24.98 C 74.24 25.65 72.82 26.37 71.39 27.06 C 72.36 25.47 74.46 23.85 73.09 21.80 C 71.79 21.99 70.50 22.26 69.21 22.53 C 70.04 21.63 70.84 20.69 71.60 19.72 C 71.13 19.70 70.21 19.65 69.75 19.63 C 70.07 17.62 68.11 16.11 66.22 16.11 C 66.26 16.93 66.34 18.58 66.38 19.40 C 65.65 18.65 64.94 17.89 64.24 17.11 C 63.44 17.48 62.65 17.84 61.85 18.20 M 98.64 28.88 C 100.94 28.12 103.37 27.58 105.32 29.30 C 102.86 30.97 100.81 33.27 100.95 36.45 C 101.80 37.18 102.64 37.92 103.48 38.66 C 101.94 39.01 100.12 38.76 98.87 39.92 C 99.22 41.13 99.62 42.33 100.06 43.52 C 99.15 43.00 98.24 42.48 97.33 41.95 C 97.65 38.94 94.88 36.82 92.54 35.50 C 91.72 35.05 90.90 34.59 90.08 34.13 C 88.88 35.41 87.73 36.74 86.59 38.07 C 85.48 35.71 84.33 33.27 82.11 31.77 C 80.01 32.56 77.26 33.07 77.53 35.96 C 79.51 35.52 81.26 34.48 83.05 33.56 C 82.27 34.55 81.88 35.64 81.88 36.82 C 82.70 36.88 84.33 37.00 85.15 37.06 C 84.46 37.89 83.79 38.74 83.14 39.60 C 84.74 40.63 86.43 39.39 88.00 38.94 C 88.00 39.62 88.00 40.97 88.01 41.65 C 90.96 41.21 89.93 38.09 90.10 36.00 L 90.97 36.00 C 90.99 36.77 91.04 38.32 91.06 39.10 C 91.84 38.79 93.40 38.18 94.19 37.87 L 93.05 40.14 C 93.87 40.14 95.52 40.14 96.34 40.14 C 95.64 41.33 94.90 42.49 94.18 43.66 C 94.98 43.87 95.80 44.08 96.61 44.29 C 97.50 46.83 99.65 45.96 100.55 43.99 C 101.49 44.58 102.43 45.17 103.37 45.74 C 103.20 44.23 102.77 42.78 102.23 41.36 C 102.54 40.99 103.16 40.25 103.46 39.89 C 104.38 40.40 105.29 40.90 106.21 41.40 C 106.84 38.59 104.81 36.99 102.69 35.68 C 102.94 33.97 103.80 32.53 104.96 31.28 C 106.00 32.32 107.04 33.37 108.09 34.40 C 109.67 31.14 106.42 29.10 104.68 26.86 C 102.54 27.15 99.45 25.81 98.64 28.88 M 107.42 76.53 C 103.37 79.00 98.66 79.85 94.05 80.56 C 106.48 85.60 120.73 85.77 133.44 81.52 C 129.72 79.60 125.75 78.07 122.51 75.36 C 120.23 73.63 118.46 71.25 115.95 69.81 C 112.94 71.84 110.70 74.87 107.42 76.53 M 94.27 85.32 C 96.01 87.15 98.18 88.67 99.27 91.03 C 98.11 90.17 95.79 88.45 94.63 87.59 C 95.03 88.68 95.85 90.87 96.26 91.96 C 93.68 90.21 91.93 87.58 89.74 85.42 C 89.36 85.84 88.61 86.68 88.24 87.10 C 88.11 91.03 91.00 94.10 91.81 97.72 C 87.74 99.11 83.27 96.21 81.01 92.83 C 79.91 91.31 78.06 92.73 76.89 93.36 C 75.49 91.60 74.21 89.73 72.53 88.22 C 70.60 88.09 71.47 90.43 71.62 91.59 C 73.49 96.75 76.71 101.73 81.57 104.53 C 89.68 110.32 100.15 111.88 109.86 110.34 C 125.01 108.03 140.02 103.40 152.94 95.01 C 144.98 94.91 137.28 92.72 129.66 90.65 C 132.42 92.61 135.61 93.87 138.99 94.25 C 135.66 96.02 132.18 93.35 128.78 93.20 C 132.05 97.47 138.44 96.28 142.34 99.78 C 134.17 98.51 126.64 94.83 118.64 93.04 C 121.91 98.33 129.31 97.63 133.41 101.71 C 126.80 101.91 120.94 98.44 115.09 95.85 C 110.06 93.87 105.94 90.19 100.95 88.14 C 103.17 91.51 106.96 93.37 109.26 96.66 C 106.40 95.38 103.63 93.80 101.36 91.62 C 99.16 89.36 97.51 86.23 94.27 85.32 M 27.77 93.21 C 27.42 93.85 26.72 95.13 26.37 95.77 L 25.36 93.49 C 24.54 95.06 23.82 96.69 23.01 98.27 C 23.17 95.71 22.04 94.75 19.78 95.56 C 19.37 92.97 16.73 94.18 14.97 94.07 C 15.95 95.45 16.84 96.88 17.66 98.36 C 16.86 97.90 15.25 96.99 14.45 96.54 C 13.53 97.48 12.74 98.53 11.89 99.53 C 11.65 97.92 12.24 95.57 10.00 95.23 C 5.47 96.07 2.20 100.57 2.24 105.07 C 2.35 108.25 4.28 110.90 5.82 113.54 C 18.45 113.64 31.08 113.57 43.70 113.58 C 43.82 112.92 44.05 111.60 44.17 110.94 C 42.68 110.77 41.17 110.63 39.72 110.21 C 40.99 109.62 42.21 108.93 43.37 108.14 C 42.78 107.67 41.60 106.73 41.01 106.27 C 41.61 105.67 42.81 104.48 43.41 103.88 C 42.17 101.88 40.62 103.46 39.24 104.32 C 39.57 103.26 39.87 102.20 40.16 101.14 C 38.32 100.73 36.63 99.36 34.68 99.67 C 34.66 101.23 34.93 102.88 33.89 104.19 C 33.67 103.42 33.23 101.87 33.01 101.10 C 31.38 101.20 29.75 101.16 28.12 101.24 C 27.80 102.75 29.67 103.87 29.13 105.49 C 28.13 102.22 25.33 103.73 23.17 104.43 C 23.76 103.66 24.95 102.11 25.54 101.34 C 24.40 101.23 23.26 101.14 22.13 101.04 C 23.96 99.29 26.36 99.14 28.72 98.78 C 31.68 96.58 29.78 92.75 28.72 90.05 C 26.65 89.75 24.70 92.70 27.77 93.21 M 142.40 91.96 C 146.93 93.47 152.43 94.80 156.93 92.64 C 152.12 92.05 147.25 91.73 142.40 91.96 M 58.96 97.36 C 57.72 98.72 57.01 100.87 58.83 102.13 C 61.85 103.93 65.78 104.58 67.74 107.83 C 66.82 107.75 64.98 107.58 64.06 107.50 C 65.31 109.18 67.38 109.58 69.36 109.74 C 71.69 111.31 74.30 112.45 76.88 113.53 C 79.68 113.76 82.50 113.65 85.31 113.51 C 84.30 112.41 83.18 111.43 82.04 110.47 C 81.51 110.80 80.44 111.45 79.91 111.78 C 78.52 110.34 77.75 107.68 75.23 108.71 C 74.07 105.94 72.89 102.71 69.80 101.59 C 70.22 103.00 70.87 104.34 71.55 105.65 L 69.79 105.31 L 69.72 105.87 C 69.68 106.88 69.51 107.85 69.19 108.81 C 68.28 105.89 67.34 102.96 65.61 100.40 C 64.95 103.20 61.59 99.53 59.76 101.38 C 60.06 100.77 60.68 99.55 60.99 98.94 C 60.31 98.41 59.63 97.89 58.96 97.36 M 69.72 105.87 C 69.43 105.45 69.43 105.45 69.72 105.87 M 48.62 108.99 C 48.57 110.16 48.46 112.49 48.41 113.65 C 49.98 113.56 51.54 113.46 53.11 113.40 C 51.88 111.67 50.72 109.77 48.62 108.99 M 46.10 111.52 C 44.12 113.40 48.59 113.55 46.93 111.52 L 46.10 111.52 Z" />
<path fill="#ffffff" opacity="1.00" d=" M 138.01 95.80 C 141.63 93.81 145.67 96.51 149.48 96.39 C 145.85 98.37 141.77 96.11 138.01 95.80 Z" />
</g>
<g id="#000000ff">
<path fill="#000000" opacity="1.00" d=" M 60.98 3.48 C 66.10 2.18 71.99 1.57 76.40 5.12 C 79.00 5.66 81.68 6.45 83.62 8.35 C 84.80 9.49 86.17 10.46 87.89 10.49 C 89.29 11.50 92.94 15.64 88.05 14.41 C 89.76 15.84 92.99 17.48 91.32 20.16 C 90.53 19.10 89.76 18.05 88.99 16.98 C 88.88 17.72 88.66 19.21 88.55 19.95 C 89.23 22.65 92.31 21.33 94.09 20.80 C 97.18 21.93 100.59 22.23 103.43 23.99 C 103.28 24.51 102.98 25.54 102.83 26.06 C 102.39 25.60 101.51 24.69 101.07 24.24 C 100.45 25.44 99.82 26.64 99.20 27.84 C 98.73 27.78 97.79 27.68 97.32 27.62 C 97.30 27.15 97.25 26.20 97.22 25.73 C 98.90 25.60 100.12 24.85 100.89 23.49 C 98.56 23.12 96.28 22.53 94.09 21.67 C 91.81 22.95 89.34 22.45 87.19 21.18 C 87.63 19.56 88.26 18.00 89.09 16.54 C 88.37 15.59 87.66 14.63 86.95 13.67 C 87.29 13.21 87.98 12.29 88.33 11.83 C 85.85 10.97 83.29 10.12 81.72 7.86 C 76.39 6.57 71.69 2.46 65.96 3.50 C 63.65 3.85 61.43 4.75 59.05 4.61 C 52.20 4.97 46.86 9.71 40.99 12.67 C 38.04 14.41 35.59 16.82 33.00 19.03 C 30.45 21.23 27.17 22.58 25.19 25.41 C 19.36 33.75 10.36 39.31 0.97 42.80 C 1.41 41.35 3.12 41.15 4.23 40.42 C 10.45 37.67 16.26 33.92 21.00 29.02 C 23.43 26.51 24.99 23.16 28.06 21.30 C 32.02 18.93 35.12 15.45 38.88 12.81 C 45.82 8.84 52.63 3.69 60.98 3.48 Z" />
<path fill="#000000" opacity="1.00" d=" M 61.85 18.20 C 62.65 17.84 63.44 17.48 64.24 17.11 C 64.94 17.89 65.65 18.65 66.38 19.40 C 66.34 18.58 66.26 16.93 66.22 16.11 C 68.11 16.11 70.07 17.62 69.75 19.63 C 70.21 19.65 71.13 19.70 71.60 19.72 C 70.84 20.69 70.04 21.63 69.21 22.53 C 70.50 22.26 71.79 21.99 73.09 21.80 C 74.46 23.85 72.36 25.47 71.39 27.06 C 72.82 26.37 74.24 25.65 75.69 24.98 C 75.66 25.86 75.61 26.74 75.53 27.62 C 76.81 28.51 77.80 29.70 78.91 30.78 C 77.80 31.64 76.62 32.85 75.03 32.37 C 75.85 33.19 76.66 34.02 77.46 34.86 C 75.30 35.18 74.16 37.29 73.36 39.09 C 71.22 45.37 70.95 52.65 74.41 58.54 C 75.95 61.07 77.90 63.38 78.93 66.20 C 80.37 70.24 84.79 71.74 87.44 74.80 C 80.30 73.77 74.77 68.74 70.95 62.93 C 67.61 62.49 64.38 61.43 61.84 59.14 C 58.49 60.35 57.69 64.07 55.07 66.12 C 51.71 69.03 48.73 72.89 44.13 73.82 C 41.49 74.18 40.23 76.86 37.88 77.76 C 35.31 78.66 32.81 80.57 29.98 79.89 C 24.48 78.58 19.41 82.01 13.94 81.83 C 9.70 81.56 5.02 79.41 3.76 75.00 C 2.45 72.72 5.55 70.59 7.62 71.48 C 7.47 72.37 7.18 74.14 7.04 75.03 C 8.31 73.74 9.31 71.92 11.33 71.82 C 11.86 73.43 12.28 75.08 12.60 76.75 C 14.32 75.07 13.33 72.86 13.06 70.83 C 13.66 70.61 14.85 70.15 15.45 69.93 C 15.54 70.76 15.73 72.42 15.83 73.26 C 16.88 71.87 16.66 70.18 16.15 68.58 C 17.02 68.95 18.75 69.70 19.62 70.07 C 19.03 69.60 17.87 68.65 17.29 68.18 C 16.67 65.46 19.53 65.74 21.26 65.46 L 21.70 64.98 C 20.57 64.60 19.44 64.23 18.31 63.88 C 16.45 64.61 14.48 64.20 12.58 63.95 C 13.40 62.59 14.69 61.73 16.14 61.16 C 14.44 60.33 12.78 59.40 11.00 58.77 C 9.14 59.00 7.61 60.25 5.86 60.84 C 4.40 60.39 3.66 59.36 3.64 57.74 C 4.49 58.12 6.18 58.87 7.03 59.25 C 6.69 58.33 6.02 56.50 5.68 55.58 C 6.20 55.91 7.24 56.56 7.75 56.89 C 8.85 55.58 9.83 54.19 10.85 52.83 C 12.08 54.24 13.32 55.64 14.49 57.11 C 14.47 56.36 14.42 54.86 14.40 54.11 C 16.04 55.42 19.25 55.27 19.49 57.85 C 19.17 58.33 18.52 59.29 18.19 59.77 C 21.02 59.35 20.63 55.97 19.37 54.16 C 19.98 54.32 21.20 54.64 21.81 54.81 C 21.98 54.35 22.33 53.43 22.51 52.98 C 23.18 53.53 24.53 54.64 25.21 55.20 C 24.78 54.28 24.34 53.37 23.89 52.47 C 22.68 52.20 21.46 51.93 20.25 51.67 C 19.44 50.55 18.62 49.45 17.79 48.35 L 20.46 48.24 C 19.36 47.66 18.20 47.22 16.98 46.92 C 17.87 46.24 18.77 45.56 19.66 44.88 C 21.00 45.77 22.35 46.64 23.73 47.47 C 23.28 47.95 22.37 48.91 21.92 49.39 C 23.47 48.89 24.82 48.00 26.04 46.96 C 26.75 47.80 27.46 48.63 28.17 49.47 C 27.78 50.16 27.39 50.85 27.00 51.54 C 27.55 51.48 28.65 51.34 29.20 51.28 C 28.78 53.90 28.52 57.15 25.03 56.84 C 26.46 57.19 27.88 57.57 29.30 57.98 C 28.16 58.82 26.99 59.61 25.82 60.41 C 26.95 60.55 29.20 60.84 30.33 60.98 C 29.28 61.91 28.14 62.72 26.91 63.40 C 27.84 63.53 28.78 63.64 29.71 63.75 C 30.42 62.16 32.05 60.52 30.40 58.70 C 30.93 58.98 32.01 59.55 32.55 59.83 C 32.49 59.21 32.36 57.98 32.29 57.37 C 34.44 57.49 35.54 58.69 35.60 60.96 C 36.15 59.63 36.61 58.27 37.03 56.90 C 38.08 56.51 39.14 56.12 40.21 55.75 C 40.02 56.47 39.64 57.91 39.45 58.64 C 39.94 58.48 40.93 58.17 41.43 58.02 C 41.07 58.76 40.37 60.23 40.01 60.97 C 40.44 60.66 41.30 60.03 41.73 59.71 C 44.33 60.30 41.80 62.84 41.34 64.24 C 42.62 63.22 43.80 62.08 45.08 61.04 C 46.61 61.83 46.75 63.59 47.22 65.05 C 48.58 62.79 46.74 60.75 46.36 58.52 C 48.04 57.15 48.75 59.67 49.52 60.69 L 50.19 60.85 C 50.25 59.08 49.63 57.01 51.01 55.56 C 52.13 56.07 53.26 56.56 54.39 57.06 C 53.42 55.23 51.63 54.28 49.60 54.20 C 49.41 52.75 49.09 51.31 48.24 50.08 C 47.63 50.62 46.41 51.71 45.80 52.25 C 44.27 51.59 42.48 51.27 41.27 50.05 C 41.24 48.76 41.26 47.47 41.33 46.18 C 42.74 46.61 44.14 47.08 45.55 47.53 C 45.42 48.23 45.17 49.62 45.04 50.31 C 46.01 49.18 46.95 48.02 47.88 46.86 C 49.21 49.35 50.01 49.11 50.29 46.11 C 52.53 46.62 53.49 47.99 52.55 50.37 C 53.13 49.88 54.30 48.92 54.88 48.44 C 55.19 48.96 55.81 50.01 56.12 50.53 C 55.77 51.08 55.08 52.17 54.74 52.71 C 55.84 52.06 56.94 51.40 58.04 50.76 C 58.18 51.69 58.44 53.54 58.57 54.46 C 59.12 53.25 59.63 52.03 60.15 50.81 C 61.28 51.56 62.40 52.35 63.54 53.11 C 62.99 51.32 61.90 49.83 59.99 49.37 C 60.03 49.10 60.11 48.55 60.14 48.27 C 60.57 48.54 61.44 49.07 61.87 49.34 C 62.27 48.05 63.03 47.11 64.15 46.51 C 65.26 47.28 66.26 48.18 67.29 49.04 C 66.76 47.53 66.16 46.04 65.58 44.54 C 66.55 44.50 68.47 44.41 69.43 44.37 C 66.17 43.49 62.43 42.53 59.31 44.25 C 57.87 44.54 57.19 42.69 56.52 41.80 C 57.01 42.06 58.00 42.59 58.50 42.85 L 60.38 39.24 C 59.72 39.65 58.39 40.47 57.73 40.87 C 58.54 36.05 54.61 41.38 52.89 41.69 C 51.80 40.44 50.29 39.10 51.79 37.48 C 52.45 37.88 53.77 38.68 54.43 39.08 C 53.78 37.68 53.12 36.29 52.48 34.89 C 53.72 35.26 54.97 35.61 56.23 35.94 C 54.74 32.47 50.64 36.59 49.44 33.23 C 46.10 34.68 43.05 32.80 41.27 29.99 C 41.09 28.05 40.53 23.52 43.88 25.04 C 43.85 25.79 43.80 27.29 43.77 28.04 C 44.58 26.59 45.37 25.13 46.19 23.69 C 47.61 24.49 48.51 25.81 49.13 27.29 C 49.13 25.93 49.06 24.56 49.00 23.19 C 49.73 23.24 51.19 23.32 51.92 23.37 C 52.53 23.77 53.74 24.58 54.34 24.99 C 53.54 23.70 52.72 22.43 51.90 21.16 C 53.42 21.30 54.81 21.93 56.22 22.44 C 55.11 20.87 53.34 20.13 51.63 19.41 C 53.45 15.74 56.41 20.37 59.13 19.73 C 59.18 20.62 59.29 22.41 59.34 23.31 C 60.22 22.39 61.06 21.43 61.96 20.54 C 62.91 21.46 63.57 22.54 63.94 23.80 C 64.24 23.55 64.85 23.05 65.15 22.80 C 64.08 21.25 62.96 19.72 61.85 18.20 Z" />
<path fill="#000000" opacity="1.00" d=" M 94.27 85.32 C 97.51 86.23 99.16 89.36 101.36 91.62 C 103.63 93.80 106.40 95.38 109.26 96.66 C 106.96 93.37 103.17 91.51 100.95 88.14 C 105.94 90.19 110.06 93.87 115.09 95.85 C 120.94 98.44 126.80 101.91 133.41 101.71 C 129.31 97.63 121.91 98.33 118.64 93.04 C 126.64 94.83 134.17 98.51 142.34 99.78 C 138.44 96.28 132.05 97.47 128.78 93.20 C 132.18 93.35 135.66 96.02 138.99 94.25 C 135.61 93.87 132.42 92.61 129.66 90.65 C 137.28 92.72 144.98 94.91 152.94 95.01 C 140.02 103.40 125.01 108.03 109.86 110.34 C 100.15 111.88 89.68 110.32 81.57 104.53 C 76.71 101.73 73.49 96.75 71.62 91.59 C 71.47 90.43 70.60 88.09 72.53 88.22 C 74.21 89.73 75.49 91.60 76.89 93.36 C 78.06 92.73 79.91 91.31 81.01 92.83 C 83.27 96.21 87.74 99.11 91.81 97.72 C 91.00 94.10 88.11 91.03 88.24 87.10 C 88.61 86.68 89.36 85.84 89.74 85.42 C 91.93 87.58 93.68 90.21 96.26 91.96 C 95.85 90.87 95.03 88.68 94.63 87.59 C 95.79 88.45 98.11 90.17 99.27 91.03 C 98.18 88.67 96.01 87.15 94.27 85.32 M 138.01 95.80 C 141.77 96.11 145.85 98.37 149.48 96.39 C 145.67 96.51 141.63 93.81 138.01 95.80 Z" />
<path fill="#000000" opacity="1.00" d=" M 27.77 93.21 C 24.70 92.70 26.65 89.75 28.72 90.05 C 29.78 92.75 31.68 96.58 28.72 98.78 C 26.36 99.14 23.96 99.29 22.13 101.04 C 23.26 101.14 24.40 101.23 25.54 101.34 C 24.95 102.11 23.76 103.66 23.17 104.43 C 25.33 103.73 28.13 102.22 29.13 105.49 C 29.67 103.87 27.80 102.75 28.12 101.24 C 29.75 101.16 31.38 101.20 33.01 101.10 C 33.23 101.87 33.67 103.42 33.89 104.19 C 34.93 102.88 34.66 101.23 34.68 99.67 C 36.63 99.36 38.32 100.73 40.16 101.14 C 39.87 102.20 39.57 103.26 39.24 104.32 C 40.62 103.46 42.17 101.88 43.41 103.88 C 42.81 104.48 41.61 105.67 41.01 106.27 C 41.60 106.73 42.78 107.67 43.37 108.14 C 42.21 108.93 40.99 109.62 39.72 110.21 C 41.17 110.63 42.68 110.77 44.17 110.94 C 44.05 111.60 43.82 112.92 43.70 113.58 C 31.08 113.57 18.45 113.64 5.82 113.54 C 4.28 110.90 2.35 108.25 2.24 105.07 C 2.20 100.57 5.47 96.07 10.00 95.23 C 12.24 95.57 11.65 97.92 11.89 99.53 C 12.74 98.53 13.53 97.48 14.45 96.54 C 15.25 96.99 16.86 97.90 17.66 98.36 C 16.84 96.88 15.95 95.45 14.97 94.07 C 16.73 94.18 19.37 92.97 19.78 95.56 C 22.04 94.75 23.17 95.71 23.01 98.27 C 23.82 96.69 24.54 95.06 25.36 93.49 L 26.37 95.77 C 26.72 95.13 27.42 93.85 27.77 93.21 Z" />
<path fill="#000000" opacity="1.00" d=" M 142.40 91.96 C 147.25 91.73 152.12 92.05 156.93 92.64 C 152.43 94.80 146.93 93.47 142.40 91.96 Z" />
<path fill="#000000" opacity="1.00" d=" M 58.96 97.36 C 59.63 97.89 60.31 98.41 60.99 98.94 C 60.68 99.55 60.06 100.77 59.76 101.38 C 61.59 99.53 64.95 103.20 65.61 100.40 C 67.34 102.96 68.28 105.89 69.19 108.81 C 69.51 107.85 69.68 106.88 69.72 105.87 L 69.79 105.31 L 71.55 105.65 C 70.87 104.34 70.22 103.00 69.80 101.59 C 72.89 102.71 74.07 105.94 75.23 108.71 C 77.75 107.68 78.52 110.34 79.91 111.78 C 80.44 111.45 81.51 110.80 82.04 110.47 C 83.18 111.43 84.30 112.41 85.31 113.51 C 82.50 113.65 79.68 113.76 76.88 113.53 C 74.30 112.45 71.69 111.31 69.36 109.74 C 67.38 109.58 65.31 109.18 64.06 107.50 C 64.98 107.58 66.82 107.75 67.74 107.83 C 65.78 104.58 61.85 103.93 58.83 102.13 C 57.01 100.87 57.72 98.72 58.96 97.36 Z" />
<path fill="#000000" opacity="1.00" d=" M 69.72 105.87 C 69.43 105.45 69.43 105.45 69.72 105.87 Z" />
<path fill="#000000" opacity="1.00" d=" M 48.62 108.99 C 50.72 109.77 51.88 111.67 53.11 113.40 C 51.54 113.46 49.98 113.56 48.41 113.65 C 48.46 112.49 48.57 110.16 48.62 108.99 Z" />
<path fill="#000000" opacity="1.00" d=" M 46.10 111.52 L 46.93 111.52 C 48.59 113.55 44.12 113.40 46.10 111.52 Z" />
</g>
<g id="#727272ff">
<path fill="#727272" opacity="1.00" d=" M 98.64 28.88 C 99.45 25.81 102.54 27.15 104.68 26.86 C 106.42 29.10 109.67 31.14 108.09 34.40 C 107.04 33.37 106.00 32.32 104.96 31.28 C 103.80 32.53 102.94 33.97 102.69 35.68 C 104.81 36.99 106.84 38.59 106.21 41.40 C 105.29 40.90 104.38 40.40 103.46 39.89 C 103.16 40.25 102.54 40.99 102.23 41.36 C 102.77 42.78 103.20 44.23 103.37 45.74 C 102.43 45.17 101.49 44.58 100.55 43.99 C 99.65 45.96 97.50 46.83 96.61 44.29 C 95.80 44.08 94.98 43.87 94.18 43.66 C 94.90 42.49 95.64 41.33 96.34 40.14 C 95.52 40.14 93.87 40.14 93.05 40.14 L 94.19 37.87 C 93.40 38.18 91.84 38.79 91.06 39.10 C 91.04 38.32 90.99 36.77 90.97 36.00 L 90.10 36.00 C 89.93 38.09 90.96 41.21 88.01 41.65 C 88.00 40.97 88.00 39.62 88.00 38.94 C 86.43 39.39 84.74 40.63 83.14 39.60 C 83.79 38.74 84.46 37.89 85.15 37.06 C 84.33 37.00 82.70 36.88 81.88 36.82 C 81.88 35.64 82.27 34.55 83.05 33.56 C 81.26 34.48 79.51 35.52 77.53 35.96 C 77.26 33.07 80.01 32.56 82.11 31.77 C 84.33 33.27 85.48 35.71 86.59 38.07 C 87.73 36.74 88.88 35.41 90.08 34.13 C 90.90 34.59 91.72 35.05 92.54 35.50 C 94.88 36.82 97.65 38.94 97.33 41.95 C 98.24 42.48 99.15 43.00 100.06 43.52 C 99.62 42.33 99.22 41.13 98.87 39.92 C 100.12 38.76 101.94 39.01 103.48 38.66 C 102.64 37.92 101.80 37.18 100.95 36.45 C 100.81 33.27 102.86 30.97 105.32 29.30 C 103.37 27.58 100.94 28.12 98.64 28.88 Z" />
</g>
<g id="#d95b5bff">
<path fill="#d95b5b" opacity="1.00" d=" M 107.42 76.53 C 110.70 74.87 112.94 71.84 115.95 69.81 C 118.46 71.25 120.23 73.63 122.51 75.36 C 125.75 78.07 129.72 79.60 133.44 81.52 C 120.73 85.77 106.48 85.60 94.05 80.56 C 98.66 79.85 103.37 79.00 107.42 76.53 Z" />
</g>
</svg>
