<?xml version="1.0" encoding="UTF-8" ?>
<!DOCTYPE svg PUBLIC "-//W3C//DTD SVG 1.1//EN" "http://www.w3.org/Graphics/SVG/1.1/DTD/svg11.dtd">
<svg width="32pt" height="32pt" viewBox="0 0 32 32" version="1.1" xmlns="http://www.w3.org/2000/svg">
<g id="#60245aff">
<path fill="#60245a" opacity="1.00" d=" M 0.00 0.00 L 32.00 0.00 L 32.00 32.00 L 0.00 32.00 L 0.00 0.00 M 3.68 7.81 C 3.65 13.60 3.65 19.38 3.68 25.16 C 7.54 25.16 11.40 25.16 15.27 25.16 C 15.29 19.39 15.29 13.63 15.26 7.87 C 14.52 7.81 13.04 7.69 12.30 7.64 C 11.42 12.19 12.04 16.83 11.87 21.43 C 10.19 21.39 8.52 21.36 6.84 21.39 C 6.85 16.85 6.84 12.32 6.80 7.78 C 6.02 7.79 4.46 7.81 3.68 7.81 M 17.21 7.80 C 17.18 8.71 17.13 10.54 17.10 11.45 C 18.34 11.46 19.59 11.47 20.83 11.47 C 20.87 15.43 20.74 19.40 20.81 23.35 C 20.41 25.55 23.17 25.13 24.47 25.30 C 24.49 20.69 24.51 16.08 24.49 11.47 C 25.81 11.47 27.12 11.46 28.43 11.45 C 28.42 10.54 28.39 8.72 28.37 7.80 C 24.65 7.81 20.93 7.80 17.21 7.80 Z" />
</g>
<g id="#f6f6f6ff">
<path fill="#f6f6f6" opacity="1.00" d=" M 3.68 7.81 C 4.46 7.81 6.02 7.79 6.80 7.78 C 6.84 12.32 6.85 16.85 6.84 21.39 C 8.52 21.36 10.19 21.39 11.87 21.43 C 12.04 16.83 11.42 12.19 12.30 7.64 C 13.04 7.69 14.52 7.81 15.26 7.87 C 15.29 13.63 15.29 19.39 15.27 25.16 C 11.40 25.16 7.54 25.16 3.68 25.16 C 3.65 19.38 3.65 13.60 3.68 7.81 Z" />
<path fill="#f6f6f6" opacity="1.00" d=" M 17.21 7.80 C 20.93 7.80 24.65 7.81 28.37 7.80 C 28.39 8.72 28.42 10.54 28.43 11.45 C 27.12 11.46 25.81 11.47 24.49 11.47 C 24.51 16.08 24.49 20.69 24.47 25.30 C 23.17 25.13 20.41 25.55 20.81 23.35 C 20.74 19.40 20.87 15.43 20.83 11.47 C 19.59 11.47 18.34 11.46 17.10 11.45 C 17.13 10.54 17.18 8.71 17.21 7.80 Z" />
</g>
</svg>
