<?xml version="1.0" encoding="UTF-8" ?>
<!DOCTYPE svg PUBLIC "-//W3C//DTD SVG 1.1//EN" "http://www.w3.org/Graphics/SVG/1.1/DTD/svg11.dtd">
<svg width="1000pt" height="1000pt" viewBox="0 0 1000 1000" version="1.1" xmlns="http://www.w3.org/2000/svg">
<g id="#000000ff">
<path fill="#000000" opacity="1.00" d=" M 308.55 82.57 C 325.45 70.30 345.97 62.27 367.04 62.49 C 456.01 62.50 544.99 62.49 633.96 62.50 C 652.76 62.49 671.12 69.11 686.75 79.31 C 701.25 88.84 713.85 101.71 721.68 117.31 C 724.64 123.07 726.39 129.32 728.48 135.43 C 735.66 156.95 742.81 178.48 750.01 199.99 C 789.34 200.03 828.67 199.96 868.00 200.03 C 904.12 200.38 939.85 215.95 964.32 242.58 C 986.08 265.74 998.55 296.90 1000.00 328.55 L 1000.00 803.60 C 999.01 839.62 982.55 874.69 955.98 898.93 C 931.76 921.38 899.02 934.47 865.95 934.37 C 628.62 934.37 391.30 934.37 153.97 934.37 C 140.97 934.22 127.90 934.96 114.99 933.02 C 81.67 928.50 50.33 910.83 29.38 884.50 C 11.18 862.01 1.01 833.45 0.00 804.59 L 0.00 326.42 C 1.44 288.84 19.63 252.49 48.46 228.42 C 71.87 208.55 102.28 197.06 133.02 196.89 C 172.01 196.84 211.00 196.89 249.99 196.86 C 258.28 173.15 266.49 149.42 274.76 125.70 C 281.02 108.16 293.67 93.47 308.55 82.57 M 488.32 334.54 C 462.12 335.50 436.11 341.02 411.76 350.71 C 352.01 374.27 302.89 423.21 279.12 482.87 C 262.42 524.16 258.26 570.30 266.87 613.96 C 274.34 652.46 291.76 688.95 316.90 719.04 C 339.83 746.57 369.14 768.76 401.93 783.22 C 439.67 799.80 481.95 806.67 522.91 801.15 C 556.21 796.94 588.65 785.85 617.44 768.56 C 663.52 741.10 699.87 697.49 717.79 646.86 C 732.99 604.48 735.28 557.67 724.78 513.91 C 717.04 481.47 702.21 450.74 681.68 424.45 C 659.64 396.13 631.02 372.96 598.67 357.42 C 564.49 340.90 526.23 333.13 488.32 334.54 Z" />
<path fill="#000000" opacity="1.00" d=" M 481.48 416.77 C 499.72 414.23 518.31 416.36 536.05 420.96 C 569.91 429.80 600.73 450.27 621.44 478.56 C 641.23 505.24 651.41 538.80 649.86 571.98 C 648.61 605.93 635.24 639.24 612.68 664.64 C 589.73 690.76 557.50 708.58 523.10 713.82 C 487.29 719.55 449.56 711.54 419.10 691.88 C 393.14 675.30 372.44 650.59 360.91 622.00 C 346.03 585.50 346.38 543.08 361.91 506.83 C 374.56 476.98 397.29 451.60 425.42 435.53 C 442.62 425.65 461.79 419.21 481.48 416.77 Z" />
</g>
</svg>
