<?xml version="1.0" encoding="UTF-8" ?>
<!DOCTYPE svg PUBLIC "-//W3C//DTD SVG 1.1//EN" "http://www.w3.org/Graphics/SVG/1.1/DTD/svg11.dtd">
<svg width="48pt" height="48pt" viewBox="0 0 48 48" version="1.1" xmlns="http://www.w3.org/2000/svg">
<g id="#2f8b02ff">
<path fill="#2f8b02" opacity="1.00" d=" M 16.32 1.46 C 28.25 -3.11 42.76 4.26 46.55 16.36 C 51.12 28.35 43.64 42.90 31.46 46.61 C 18.91 51.30 3.90 42.81 0.89 29.88 C -2.40 18.28 4.88 5.10 16.32 1.46 M 22.34 10.37 C 16.74 10.90 11.83 15.40 10.61 20.86 C 8.72 28.23 14.10 36.30 21.60 37.44 C 29.29 39.01 37.34 32.68 37.60 24.84 C 38.42 16.65 30.49 9.11 22.34 10.37 Z" />
</g>
<g id="#fefefeff">
<path fill="#fefefe" opacity="1.00" d=" M 22.34 10.37 C 30.49 9.11 38.42 16.65 37.60 24.84 C 37.34 32.68 29.29 39.01 21.60 37.44 C 14.10 36.30 8.72 28.23 10.61 20.86 C 11.83 15.40 16.74 10.90 22.34 10.37 M 19.53 14.75 C 12.49 17.84 11.72 28.71 18.37 32.65 C 24.42 37.15 33.91 32.46 34.35 25.04 C 35.42 17.40 26.35 10.99 19.53 14.75 Z" />
</g>
<g id="#20201fff">
<path fill="#20201f" opacity="1.00" d=" M 19.53 14.75 C 26.35 10.99 35.42 17.40 34.35 25.04 C 33.91 32.46 24.42 37.15 18.37 32.65 C 11.72 28.71 12.49 17.84 19.53 14.75 Z" />
</g>
</svg>
