<?xml version="1.0" encoding="UTF-8" ?>
<!DOCTYPE svg PUBLIC "-//W3C//DTD SVG 1.1//EN" "http://www.w3.org/Graphics/SVG/1.1/DTD/svg11.dtd">
<svg width="114pt" height="114pt" viewBox="0 0 114 114" version="1.1" xmlns="http://www.w3.org/2000/svg">
<g id="#f24913ff">
<path fill="#f24913" opacity="1.00" d=" M 0.00 0.00 L 114.00 0.00 L 114.00 114.00 L 0.00 114.00 L 0.00 0.00 M 62.21 2.03 C 58.56 6.00 67.66 2.69 62.21 2.03 M 90.26 19.35 C 80.78 22.07 85.80 31.23 85.89 38.02 C 83.59 38.41 81.58 37.68 80.59 35.51 C 73.59 35.96 67.49 39.70 63.21 45.18 C 55.80 55.27 61.44 67.64 63.36 78.64 C 67.95 81.29 72.91 83.36 78.01 84.81 C 82.89 84.04 86.24 78.73 91.63 80.36 C 94.80 82.31 98.27 83.84 102.04 84.05 C 101.66 77.75 97.97 72.13 97.14 66.04 C 99.96 53.88 90.52 39.25 98.08 28.31 C 102.05 31.72 108.88 29.09 107.48 23.64 C 106.03 15.19 95.83 21.28 90.26 19.35 M 71.16 26.16 C 70.16 30.80 75.80 25.16 71.16 26.16 M 34.27 36.25 C 32.50 38.53 27.98 40.22 29.20 43.73 C 31.66 46.95 35.59 48.81 39.74 48.32 C 41.18 53.00 40.88 58.23 40.01 62.99 C 37.30 69.03 28.14 78.48 23.22 69.76 C 22.65 60.29 20.54 49.48 26.77 41.36 C 21.83 37.97 14.07 33.77 9.20 39.19 C 5.71 42.81 10.07 47.82 14.27 47.76 C 17.69 57.57 10.78 71.40 18.66 80.34 C 24.67 86.21 34.38 84.70 40.25 79.47 C 45.56 83.07 56.67 88.10 58.97 78.92 C 58.65 71.88 49.36 74.83 46.34 69.87 C 49.54 60.74 48.54 50.83 49.69 41.32 C 47.67 34.59 39.54 36.77 34.27 36.25 Z" />
<path fill="#f24913" opacity="1.00" d=" M 76.20 46.13 C 89.77 45.50 92.86 75.64 76.25 72.80 C 69.15 66.11 67.37 52.35 76.20 46.13 Z" />
</g>
<g id="#ffd711ff">
<path fill="#ffd711" opacity="1.00" d=" M 62.21 2.03 C 67.66 2.69 58.56 6.00 62.21 2.03 Z" />
<path fill="#ffd711" opacity="1.00" d=" M 90.26 19.35 C 95.83 21.28 106.03 15.19 107.48 23.64 C 108.88 29.09 102.05 31.72 98.08 28.31 C 90.52 39.25 99.96 53.88 97.14 66.04 C 97.97 72.13 101.66 77.75 102.04 84.05 C 98.27 83.84 94.80 82.31 91.63 80.36 C 86.24 78.73 82.89 84.04 78.01 84.81 C 72.91 83.36 67.95 81.29 63.36 78.64 C 61.44 67.64 55.80 55.27 63.21 45.18 C 67.49 39.70 73.59 35.96 80.59 35.51 C 81.58 37.68 83.59 38.41 85.89 38.02 C 85.80 31.23 80.78 22.07 90.26 19.35 M 76.20 46.13 C 67.37 52.35 69.15 66.11 76.25 72.80 C 92.86 75.64 89.77 45.50 76.20 46.13 Z" />
<path fill="#ffd711" opacity="1.00" d=" M 71.16 26.16 C 75.80 25.16 70.16 30.80 71.16 26.16 Z" />
<path fill="#ffd711" opacity="1.00" d=" M 34.27 36.25 C 39.54 36.77 47.67 34.59 49.69 41.32 C 48.54 50.83 49.54 60.74 46.34 69.87 C 49.36 74.83 58.65 71.88 58.97 78.92 C 56.67 88.10 45.56 83.07 40.25 79.47 C 34.38 84.70 24.67 86.21 18.66 80.34 C 10.78 71.40 17.69 57.57 14.27 47.76 C 10.07 47.82 5.71 42.81 9.20 39.19 C 14.07 33.77 21.83 37.97 26.77 41.36 C 20.54 49.48 22.65 60.29 23.22 69.76 C 28.14 78.48 37.30 69.03 40.01 62.99 C 40.88 58.23 41.18 53.00 39.74 48.32 C 35.59 48.81 31.66 46.95 29.20 43.73 C 27.98 40.22 32.50 38.53 34.27 36.25 Z" />
</g>
</svg>
