<?xml version="1.0" encoding="UTF-8" ?>
<!DOCTYPE svg PUBLIC "-//W3C//DTD SVG 1.1//EN" "http://www.w3.org/Graphics/SVG/1.1/DTD/svg11.dtd">
<svg width="162pt" height="162pt" viewBox="0 0 162 162" version="1.1" xmlns="http://www.w3.org/2000/svg">
<g id="#009bffff">
<path fill="#009bff" opacity="1.00" d=" M 67.50 1.59 C 74.24 0.37 81.11 1.01 87.91 0.80 C 107.13 2.19 125.63 11.11 138.99 24.96 C 149.96 36.16 157.47 50.69 160.32 66.10 C 164.03 85.50 160.26 106.20 149.90 123.02 C 135.48 146.71 108.02 162.68 80.04 161.09 C 64.70 161.81 49.48 156.54 36.71 148.25 C 18.68 136.48 5.75 117.20 1.86 96.01 C 0.28 88.80 0.78 81.39 0.81 74.08 C 2.22 55.58 10.51 37.74 23.56 24.58 C 35.30 12.54 50.92 4.39 67.50 1.59 Z" />
</g>
<g id="#000000ff">
<path fill="#000000" opacity="1.00" d=" M 206.03 19.03 C 211.20 15.74 217.96 16.92 222.87 20.14 C 221.67 22.00 220.44 23.83 219.20 25.66 C 216.76 23.82 212.63 21.85 210.22 24.79 C 209.83 26.63 211.73 27.43 213.12 27.88 C 215.92 28.93 219.09 29.59 221.18 31.89 C 224.89 35.89 223.28 43.18 218.46 45.54 C 212.75 48.40 205.63 46.90 200.80 42.98 C 202.14 41.17 203.46 39.35 204.76 37.51 C 207.14 39.56 210.36 41.74 213.63 40.41 C 215.24 39.94 215.33 37.70 214.55 36.50 C 211.62 34.45 207.69 34.38 204.93 32.02 C 200.78 28.81 201.69 21.66 206.03 19.03 Z" />
<path fill="#000000" opacity="1.00" d=" M 173.12 17.74 C 175.87 17.72 178.62 17.72 181.38 17.72 C 181.50 23.98 181.07 30.27 181.59 36.52 C 181.99 40.89 189.43 41.18 190.14 36.88 C 190.96 30.53 190.27 24.08 190.51 17.69 C 193.18 17.73 195.85 17.73 198.52 17.68 C 198.54 24.08 198.60 30.47 198.50 36.86 C 198.46 40.11 196.94 43.55 193.97 45.11 C 189.24 47.64 183.33 47.60 178.44 45.52 C 175.15 44.05 173.41 40.46 173.27 36.99 C 173.02 30.58 173.32 24.15 173.12 17.74 Z" />
<path fill="#000000" opacity="1.00" d=" M 234.23 17.77 C 237.24 17.71 240.25 17.73 243.27 17.68 C 246.99 27.22 250.48 36.84 254.02 46.44 C 251.20 46.38 248.38 46.37 245.56 46.41 C 245.13 45.04 244.71 43.68 244.29 42.32 C 240.64 42.26 237.00 42.30 233.36 42.23 C 232.87 43.62 232.38 45.00 231.90 46.38 C 229.15 46.39 226.42 46.39 223.68 46.38 C 227.16 36.83 230.87 27.36 234.23 17.77 M 238.73 24.66 C 237.73 28.40 236.56 32.09 235.34 35.77 C 237.59 35.77 239.84 35.77 242.10 35.77 C 240.94 32.08 239.77 28.39 238.73 24.66 Z" />
<path fill="#000000" opacity="1.00" d=" M 173.38 52.14 C 180.81 52.19 188.24 52.18 195.68 52.15 C 195.64 54.39 195.64 56.62 195.67 58.86 C 193.30 58.84 190.92 58.83 188.55 58.83 C 188.58 66.20 188.45 73.57 188.63 80.93 C 185.92 81.00 183.21 81.01 180.51 81.01 C 180.56 73.66 180.47 66.32 180.56 58.97 C 178.17 58.83 175.77 58.82 173.38 58.84 C 173.40 56.61 173.40 54.38 173.38 52.14 Z" />
<path fill="#000000" opacity="1.00" d=" M 207.18 52.29 C 211.99 51.19 217.43 51.44 221.59 54.33 C 227.89 58.43 229.89 67.61 226.06 74.04 C 220.44 84.45 202.56 83.99 197.80 73.03 C 193.89 65.12 198.45 54.37 207.18 52.29 M 209.14 59.31 C 202.91 61.78 203.34 72.56 210.00 74.17 C 215.01 75.96 220.43 71.21 219.58 66.01 C 219.71 60.78 213.82 57.18 209.14 59.31 Z" />
<path fill="#000000" opacity="1.00" d=" M 230.98 52.13 C 237.56 52.46 244.61 51.19 250.76 54.20 C 259.98 58.78 259.92 74.26 250.78 78.90 C 244.66 82.11 237.58 80.70 230.98 81.00 C 230.97 71.38 230.97 61.75 230.98 52.13 M 239.17 58.71 C 239.16 63.97 239.19 69.23 239.15 74.49 C 242.43 74.46 246.48 74.26 248.24 70.97 C 249.54 68.23 249.50 64.70 248.13 62.00 C 246.27 58.87 242.38 58.81 239.17 58.71 Z" />
<path fill="#000000" opacity="1.00" d=" M 267.25 52.16 C 270.18 52.42 273.56 51.62 276.22 52.51 C 280.10 61.89 283.28 71.56 287.02 81.00 C 284.11 81.01 281.20 81.01 278.29 80.94 C 277.93 79.56 277.57 78.18 277.19 76.80 C 273.51 76.79 269.82 76.79 266.14 76.80 C 265.71 78.20 265.28 79.60 264.88 81.00 C 262.09 81.00 259.31 81.00 256.53 80.99 C 260.13 71.39 263.71 61.78 267.25 52.16 M 271.55 58.73 C 270.84 62.73 269.47 66.56 268.25 70.42 C 270.53 70.41 272.81 70.40 275.09 70.36 C 273.74 66.53 272.61 62.64 271.55 58.73 Z" />
<path fill="#000000" opacity="1.00" d=" M 281.36 52.11 C 284.35 52.22 287.40 51.90 290.36 52.43 C 292.78 56.35 295.13 60.39 296.53 64.80 C 298.17 60.32 300.41 55.96 303.09 52.07 C 306.06 51.96 309.03 52.10 312.00 52.28 L 312.00 52.67 C 307.92 56.89 305.90 62.68 302.60 67.51 C 299.65 71.42 300.95 76.48 300.80 81.00 C 297.90 81.00 295.00 81.00 292.10 81.00 C 291.90 76.80 293.23 72.09 290.80 68.33 C 287.64 62.93 284.48 57.53 281.36 52.11 Z" />
<path fill="#000000" opacity="1.00" d=" M 304.44 77.26 C 305.81 77.34 307.18 77.35 308.56 77.39 C 308.53 78.13 308.48 79.59 308.45 80.32 C 309.49 79.27 310.34 78.06 310.99 76.70 C 310.82 78.01 310.65 79.32 310.47 80.63 C 309.53 80.53 308.59 80.43 307.66 80.34 C 307.49 79.76 307.14 78.61 306.97 78.03 C 305.51 78.28 305.09 79.24 305.71 80.92 L 305.29 80.88 C 305.20 79.62 304.92 78.42 304.44 77.26 Z" />
</g>
</svg>
