<?xml version="1.0" encoding="UTF-8" ?>
<!DOCTYPE svg PUBLIC "-//W3C//DTD SVG 1.1//EN" "http://www.w3.org/Graphics/SVG/1.1/DTD/svg11.dtd">
<svg width="48pt" height="48pt" viewBox="0 0 48 48" version="1.1" xmlns="http://www.w3.org/2000/svg">
<g id="#297d1ee3">
<path fill="#297d1e" opacity="0.89" d=" M 25.99 5.09 C 27.24 3.32 30.23 3.24 30.20 5.93 L 29.80 6.41 C 28.75 7.51 27.80 8.69 26.95 9.95 C 26.47 9.32 25.51 8.05 25.03 7.41 C 25.41 7.33 26.18 7.17 26.56 7.09 C 26.42 6.59 26.13 5.59 25.99 5.09 Z" />
</g>
<g id="#52a41aff">
<path fill="#52a41a" opacity="1.00" d=" M 31.58 6.81 C 32.18 5.96 32.88 5.20 33.67 4.51 C 36.37 5.27 39.32 4.00 42.15 4.79 C 42.03 5.53 41.80 7.00 41.68 7.73 C 39.18 8.64 37.35 10.78 34.70 11.37 C 34.78 10.13 34.76 8.88 34.70 7.64 C 33.66 7.37 32.57 7.24 31.58 6.81 Z" />
</g>
<g id="#255823ff">
<path fill="#255823" opacity="1.00" d=" M 26.95 9.95 C 27.80 8.69 28.75 7.51 29.80 6.41 L 30.79 6.51 C 30.91 9.16 30.61 11.80 29.94 14.37 C 28.68 13.66 27.52 12.79 26.33 11.97 L 26.05 11.34 C 26.27 10.99 26.72 10.30 26.95 9.95 Z" />
</g>
<g id="#2f851dfa">
<path fill="#2f851d" opacity="0.98" d=" M 30.79 6.51 L 31.58 6.81 C 32.57 7.24 33.66 7.37 34.70 7.64 C 34.76 8.88 34.78 10.13 34.70 11.37 C 34.32 11.58 33.58 11.99 33.21 12.19 L 32.79 13.30 C 32.59 13.78 32.19 14.74 31.99 15.22 C 31.48 15.01 30.45 14.58 29.94 14.37 C 30.61 11.80 30.91 9.16 30.79 6.51 Z" />
</g>
<g id="#1b4e13e1">
<path fill="#1b4e13" opacity="0.88" d=" M 34.70 11.37 C 37.35 10.78 39.18 8.64 41.68 7.73 C 40.87 8.84 40.92 9.93 41.85 11.00 L 40.75 11.74 C 39.47 12.16 38.18 12.58 36.95 13.13 C 35.57 13.30 34.18 13.36 32.79 13.30 L 33.21 12.19 C 33.58 11.99 34.32 11.58 34.70 11.37 Z" />
</g>
<g id="#415425cb">
<path fill="#415425" opacity="0.80" d=" M 26.33 11.97 C 27.52 12.79 28.68 13.66 29.94 14.37 C 30.45 14.58 31.48 15.01 31.99 15.22 C 32.19 14.74 32.59 13.78 32.79 13.30 C 34.18 13.36 35.57 13.30 36.95 13.13 C 35.18 13.82 33.80 15.04 32.95 16.75 C 31.56 17.04 30.22 17.65 29.42 18.89 C 29.84 19.45 30.68 20.56 31.10 21.12 C 31.27 22.46 31.28 23.87 30.52 25.03 C 30.89 23.52 31.51 21.77 30.32 20.46 C 29.75 19.92 28.60 18.85 28.03 18.31 L 27.36 17.76 C 27.39 17.53 27.46 17.06 27.49 16.82 C 27.61 16.05 27.85 14.50 27.97 13.72 C 27.31 13.24 26.76 12.65 26.33 11.97 Z" />
</g>
<g id="#509f18ff">
<path fill="#509f18" opacity="1.00" d=" M 36.95 13.13 C 38.18 12.58 39.47 12.16 40.75 11.74 C 41.19 12.06 42.07 12.69 42.51 13.01 C 41.60 14.05 40.77 15.16 40.02 16.32 C 37.74 17.20 35.30 17.74 32.95 16.75 C 33.80 15.04 35.18 13.82 36.95 13.13 Z" />
</g>
<g id="#f98731ff">
<path fill="#f98731" opacity="1.00" d=" M 19.66 19.54 C 21.19 16.72 24.67 16.54 27.49 16.82 C 27.46 17.06 27.39 17.53 27.36 17.76 L 28.03 18.31 C 27.85 21.42 25.24 23.28 23.50 25.55 C 20.70 29.24 16.79 32.02 14.73 36.27 C 12.03 38.02 10.00 42.91 6.24 41.28 C 9.26 33.27 15.38 26.96 19.66 19.54 Z" />
</g>
<g id="#ec601cff">
<path fill="#ec601c" opacity="1.00" d=" M 28.03 18.31 C 28.60 18.85 29.75 19.92 30.32 20.46 C 27.03 25.63 22.08 29.35 18.11 33.94 C 17.23 35.04 16.04 35.79 14.73 36.27 C 16.79 32.02 20.70 29.24 23.50 25.55 C 25.24 23.28 27.85 21.42 28.03 18.31 Z" />
</g>
<g id="#bb4c20e9">
<path fill="#bb4c20" opacity="0.91" d=" M 30.32 20.46 C 31.51 21.77 30.89 23.52 30.52 25.03 C 23.10 31.83 16.72 40.57 7.03 44.30 C 5.10 44.67 5.02 41.85 6.24 41.28 C 10.00 42.91 12.03 38.02 14.73 36.27 C 16.04 35.79 17.23 35.04 18.11 33.94 C 22.08 29.35 27.03 25.63 30.32 20.46 Z" />
</g>
</svg>
