<?xml version="1.0" encoding="UTF-8" ?>
<!DOCTYPE svg PUBLIC "-//W3C//DTD SVG 1.1//EN" "http://www.w3.org/Graphics/SVG/1.1/DTD/svg11.dtd">
<svg width="48pt" height="48pt" viewBox="0 0 48 48" version="1.1" xmlns="http://www.w3.org/2000/svg">
<g id="#3b87c2fe">
<path fill="#3b87c2" opacity="1.00" d=" M 22.44 0.00 L 25.45 0.00 C 37.25 0.58 47.37 10.67 48.00 22.46 L 48.00 25.45 C 47.42 37.25 37.32 47.38 25.52 48.00 L 22.58 48.00 C 10.78 47.44 0.64 37.34 0.00 25.55 L 0.00 22.53 C 0.59 10.75 10.67 0.64 22.44 0.00 M 13.49 10.53 C 16.53 10.62 19.56 10.62 22.60 10.60 C 22.61 7.96 22.61 5.31 22.58 2.66 C 18.42 3.68 15.58 7.00 13.49 10.53 M 25.42 2.66 C 25.39 5.30 25.39 7.95 25.40 10.60 C 28.43 10.62 31.47 10.62 34.50 10.53 C 32.43 6.99 29.57 3.70 25.42 2.66 M 7.36 10.51 C 8.15 10.54 9.74 10.59 10.54 10.62 C 11.64 8.71 12.87 6.88 14.19 5.12 C 11.63 6.53 9.32 8.34 7.36 10.51 M 33.80 5.12 C 35.13 6.88 36.36 8.72 37.47 10.62 C 38.26 10.59 39.85 10.53 40.64 10.50 C 38.68 8.34 36.37 6.53 33.80 5.12 M 5.30 13.40 C 4.04 16.35 3.09 19.41 2.62 22.58 C 4.39 22.60 6.17 22.60 7.94 22.61 C 8.15 19.48 8.75 16.39 9.64 13.39 C 8.19 13.39 6.75 13.40 5.30 13.40 M 12.39 13.40 C 11.42 16.37 10.75 19.44 10.56 22.56 C 14.57 22.63 18.59 22.61 22.60 22.60 C 22.61 19.53 22.61 16.47 22.60 13.40 C 19.20 13.39 15.79 13.39 12.39 13.40 M 25.40 13.40 C 25.39 16.47 25.39 19.53 25.40 22.60 C 29.41 22.61 33.43 22.63 37.44 22.56 C 37.26 19.44 36.58 16.37 35.61 13.40 C 32.21 13.39 28.80 13.39 25.40 13.40 M 38.35 13.39 C 39.36 16.35 39.62 19.47 40.16 22.53 C 41.90 22.66 43.64 22.62 45.39 22.59 C 44.90 19.42 43.96 16.35 42.71 13.41 C 41.26 13.40 39.80 13.39 38.35 13.39 M 2.62 25.41 C 3.09 28.59 4.04 31.66 5.32 34.61 C 6.76 34.61 8.21 34.61 9.65 34.61 C 8.65 31.65 8.32 28.55 7.87 25.48 C 6.12 25.35 4.37 25.39 2.62 25.41 M 10.56 25.44 C 10.74 28.57 11.43 31.63 12.39 34.60 C 15.79 34.61 19.20 34.61 22.60 34.60 C 22.61 31.54 22.61 28.47 22.60 25.40 C 18.59 25.39 14.57 25.37 10.56 25.44 M 25.40 25.40 C 25.39 28.47 25.39 31.54 25.40 34.60 C 28.80 34.61 32.20 34.61 35.61 34.61 C 36.58 31.63 37.26 28.57 37.44 25.44 C 33.43 25.37 29.41 25.39 25.40 25.40 M 40.08 25.39 C 39.82 28.51 39.28 31.61 38.36 34.61 C 39.80 34.61 41.24 34.61 42.68 34.60 C 43.95 31.66 44.92 28.60 45.38 25.42 C 43.62 25.40 41.85 25.39 40.08 25.39 M 7.35 37.51 C 9.33 39.66 11.63 41.46 14.19 42.87 C 12.86 41.11 11.64 39.28 10.54 37.37 C 9.74 37.41 8.15 37.48 7.35 37.51 M 13.49 37.47 C 15.57 41.00 18.43 44.30 22.58 45.34 C 22.61 42.70 22.61 40.05 22.60 37.40 C 19.56 37.38 16.53 37.38 13.49 37.47 M 25.40 37.40 C 25.39 40.05 25.39 42.69 25.42 45.34 C 29.57 44.31 32.42 41.01 34.51 37.48 C 31.48 37.38 28.44 37.38 25.40 37.40 M 37.47 37.37 C 36.37 39.26 35.15 41.08 33.86 42.85 C 36.41 41.45 38.68 39.64 40.64 37.51 C 39.85 37.48 38.26 37.40 37.47 37.37 Z" />
</g>
</svg>
