<?xml version="1.0" encoding="UTF-8" ?>
<!DOCTYPE svg PUBLIC "-//W3C//DTD SVG 1.1//EN" "http://www.w3.org/Graphics/SVG/1.1/DTD/svg11.dtd">
<svg width="64pt" height="64pt" viewBox="0 0 64 64" version="1.1" xmlns="http://www.w3.org/2000/svg">
<g id="#b3b3b3ff">
<path fill="#b3b3b3" opacity="1.00" d=" M 10.96 0.00 L 52.90 0.00 C 58.72 0.56 63.34 5.17 64.00 10.96 L 64.00 52.85 C 63.46 58.70 58.83 63.38 52.98 64.00 L 11.06 64.00 C 5.26 63.41 0.65 58.81 0.00 53.03 L 0.00 11.10 C 0.56 5.29 5.17 0.66 10.96 0.00 M 4.04 11.91 C 3.88 20.72 4.17 29.54 4.04 38.36 C 4.06 43.27 3.78 48.21 4.14 53.12 C 4.52 57.40 8.86 60.40 13.01 60.00 C 26.03 59.93 39.06 60.07 52.08 59.93 C 55.91 60.04 59.52 56.93 59.85 53.10 C 60.22 48.17 59.94 43.22 59.96 38.29 C 59.83 29.51 60.11 20.74 59.96 11.97 C 60.09 7.72 56.31 3.91 52.06 4.04 C 38.69 3.97 25.30 3.97 11.93 4.03 C 7.71 3.93 3.94 7.69 4.04 11.91 Z" />
</g>
<g id="#fdfdfdff">
<path fill="#fdfdfd" opacity="1.00" d=" M 4.04 11.91 C 3.94 7.69 7.71 3.93 11.93 4.03 C 25.30 3.97 38.69 3.97 52.06 4.04 C 56.31 3.91 60.09 7.72 59.96 11.97 C 60.11 20.74 59.83 29.51 59.96 38.29 C 58.75 38.03 57.55 37.77 56.34 37.51 C 56.12 36.15 55.94 34.78 55.80 33.41 C 55.77 32.20 55.76 30.94 55.06 29.89 C 52.22 27.39 49.47 24.81 46.70 22.23 C 44.43 20.22 42.44 17.85 39.86 16.22 C 32.91 15.72 25.89 16.03 18.91 16.05 C 15.23 15.99 16.07 20.40 15.93 22.83 C 13.36 22.91 10.78 23.01 8.21 23.16 C 7.88 27.93 7.76 32.71 7.64 37.48 C 6.44 37.78 5.24 38.07 4.04 38.36 C 4.17 29.54 3.88 20.72 4.04 11.91 Z" />
</g>
<g id="#222222ff">
<path fill="#222222" opacity="1.00" d=" M 15.93 22.83 C 16.07 20.40 15.23 15.99 18.91 16.05 C 25.89 16.03 32.91 15.72 39.86 16.22 C 42.44 17.85 44.43 20.22 46.70 22.23 C 43.17 22.86 39.59 23.16 36.01 23.00 C 29.32 22.71 22.62 23.22 15.93 22.83 Z" />
</g>
<g id="#2b2b2bff">
<path fill="#2b2b2b" opacity="1.00" d=" M 46.70 22.23 C 49.47 24.81 52.22 27.39 55.06 29.89 C 49.91 29.57 44.74 29.79 39.62 30.44 C 37.94 29.33 36.28 27.76 34.10 27.98 C 28.08 27.92 22.06 28.02 16.03 27.99 C 16.01 26.27 15.98 24.55 15.93 22.83 C 22.62 23.22 29.32 22.71 36.01 23.00 C 39.59 23.16 43.17 22.86 46.70 22.23 Z" />
</g>
<g id="#f2f2f2ff">
<path fill="#f2f2f2" opacity="1.00" d=" M 8.21 23.16 C 10.78 23.01 13.36 22.91 15.93 22.83 C 15.98 24.55 16.01 26.27 16.03 27.99 C 22.06 28.02 28.08 27.92 34.10 27.98 C 36.28 27.76 37.94 29.33 39.62 30.44 C 40.15 30.83 41.19 31.60 41.71 31.99 C 40.24 33.07 38.78 34.17 37.30 35.24 C 30.38 36.92 23.06 35.54 15.98 35.99 C 15.97 37.24 15.96 38.50 15.96 39.75 C 13.43 39.91 10.89 40.04 8.36 40.21 C 8.17 44.59 7.41 49.12 8.60 53.41 C 9.54 55.97 12.68 55.97 14.95 56.07 C 26.32 56.04 37.69 56.10 49.06 56.08 C 51.31 55.94 54.54 56.01 55.46 53.43 C 56.51 48.94 55.81 44.28 55.56 39.73 C 49.77 41.74 46.27 47.00 41.56 50.56 C 39.72 52.06 37.23 51.96 35.00 52.04 C 28.83 52.01 22.63 52.25 16.49 51.58 C 16.46 50.22 16.43 48.86 16.36 47.51 C 23.22 48.41 30.16 47.84 37.05 48.00 C 41.15 48.49 43.40 44.44 46.20 42.20 C 48.28 40.24 50.35 38.27 52.46 36.35 C 53.56 35.36 54.69 34.39 55.80 33.41 C 55.94 34.78 56.12 36.15 56.34 37.51 C 57.55 37.77 58.75 38.03 59.96 38.29 C 59.94 43.22 60.22 48.17 59.85 53.10 C 59.52 56.93 55.91 60.04 52.08 59.93 C 39.06 60.07 26.03 59.93 13.01 60.00 C 8.86 60.40 4.52 57.40 4.14 53.12 C 3.78 48.21 4.06 43.27 4.04 38.36 C 5.24 38.07 6.44 37.78 7.64 37.48 C 7.76 32.71 7.88 27.93 8.21 23.16 Z" />
</g>
<g id="#383838ff">
<path fill="#383838" opacity="1.00" d=" M 39.62 30.44 C 44.74 29.79 49.91 29.57 55.06 29.89 C 55.76 30.94 55.77 32.20 55.80 33.41 C 54.69 34.39 53.56 35.36 52.46 36.35 C 47.40 36.07 42.34 35.79 37.30 35.24 C 38.78 34.17 40.24 33.07 41.71 31.99 C 41.19 31.60 40.15 30.83 39.62 30.44 Z" />
</g>
<g id="#434343ff">
<path fill="#434343" opacity="1.00" d=" M 15.98 35.99 C 23.06 35.54 30.38 36.92 37.30 35.24 C 42.34 35.79 47.40 36.07 52.46 36.35 C 50.35 38.27 48.28 40.24 46.20 42.20 C 36.14 41.62 26.07 41.93 16.01 41.89 C 15.99 41.36 15.97 40.29 15.96 39.75 C 15.96 38.50 15.97 37.24 15.98 35.99 Z" />
</g>
<g id="#e7e7e7ff">
<path fill="#e7e7e7" opacity="1.00" d=" M 8.36 40.21 C 10.89 40.04 13.43 39.91 15.96 39.75 C 15.97 40.29 15.99 41.36 16.01 41.89 C 16.08 43.77 16.24 45.64 16.36 47.51 C 16.43 48.86 16.46 50.22 16.49 51.58 C 22.63 52.25 28.83 52.01 35.00 52.04 C 37.23 51.96 39.72 52.06 41.56 50.56 C 46.27 47.00 49.77 41.74 55.56 39.73 C 55.81 44.28 56.51 48.94 55.46 53.43 C 54.54 56.01 51.31 55.94 49.06 56.08 C 37.69 56.10 26.32 56.04 14.95 56.07 C 12.68 55.97 9.54 55.97 8.60 53.41 C 7.41 49.12 8.17 44.59 8.36 40.21 Z" />
</g>
<g id="#4d4d4dff">
<path fill="#4d4d4d" opacity="1.00" d=" M 16.01 41.89 C 26.07 41.93 36.14 41.62 46.20 42.20 C 43.40 44.44 41.15 48.49 37.05 48.00 C 30.16 47.84 23.22 48.41 16.36 47.51 C 16.24 45.64 16.08 43.77 16.01 41.89 Z" />
</g>
</svg>
