<?xml version="1.0" encoding="UTF-8" ?>
<!DOCTYPE svg PUBLIC "-//W3C//DTD SVG 1.1//EN" "http://www.w3.org/Graphics/SVG/1.1/DTD/svg11.dtd">
<svg width="32pt" height="32pt" viewBox="0 0 32 32" version="1.1" xmlns="http://www.w3.org/2000/svg">
<g id="#1dab3cff">
<path fill="#1dab3c" opacity="1.00" d=" M 0.00 0.00 L 32.00 0.00 L 32.00 32.00 L 0.00 32.00 L 0.00 0.00 M 2.85 1.45 C 6.45 11.43 10.05 21.40 13.64 31.38 C 15.08 31.37 16.53 31.36 17.98 31.35 C 21.62 21.37 25.30 11.41 28.94 1.44 C 27.54 1.45 26.15 1.46 24.76 1.46 C 21.84 10.06 18.56 18.55 15.87 27.22 C 13.32 18.52 10.04 10.05 7.19 1.45 C 5.74 1.46 4.30 1.46 2.85 1.45 Z" />
</g>
<g id="#fefefeff">
<path fill="#fefefe" opacity="1.00" d=" M 2.85 1.45 C 4.30 1.46 5.74 1.46 7.19 1.45 C 10.04 10.05 13.32 18.52 15.87 27.22 C 18.56 18.55 21.84 10.06 24.76 1.46 C 26.15 1.46 27.54 1.45 28.94 1.44 C 25.30 11.41 21.62 21.37 17.98 31.35 C 16.53 31.36 15.08 31.37 13.64 31.38 C 10.05 21.40 6.45 11.43 2.85 1.45 Z" />
</g>
</svg>
