<?xml version="1.0" encoding="UTF-8" ?>
<!DOCTYPE svg PUBLIC "-//W3C//DTD SVG 1.1//EN" "http://www.w3.org/Graphics/SVG/1.1/DTD/svg11.dtd">
<svg width="16pt" height="16pt" viewBox="0 0 16 16" version="1.1" xmlns="http://www.w3.org/2000/svg">
<g id="#153556ff">
<path fill="#153556" opacity="1.00" d=" M 0.00 0.00 L 16.00 0.00 L 16.00 16.00 L 0.00 16.00 L 0.00 0.00 M 1.51 2.01 C 2.75 5.44 3.91 8.89 5.26 12.28 C 5.99 10.85 6.85 9.49 7.50 8.01 C 6.63 6.02 5.54 4.12 5.02 2.00 C 4.14 2.00 2.38 2.00 1.51 2.01 M 10.99 2.00 C 9.14 6.08 7.34 10.19 5.33 14.20 C 6.25 14.31 8.08 14.52 9.00 14.63 C 10.74 10.39 12.67 6.23 14.48 2.02 C 13.61 2.01 11.86 2.00 10.99 2.00 Z" />
</g>
<g id="#ffffffff">
<path fill="#ffffff" opacity="1.00" d=" M 1.51 2.01 C 2.38 2.00 4.14 2.00 5.02 2.00 C 5.54 4.12 6.63 6.02 7.50 8.01 C 6.85 9.49 5.99 10.85 5.26 12.28 C 3.91 8.89 2.75 5.44 1.51 2.01 Z" />
<path fill="#ffffff" opacity="1.00" d=" M 10.99 2.00 C 11.86 2.00 13.61 2.01 14.48 2.02 C 12.67 6.23 10.74 10.39 9.00 14.63 C 8.08 14.52 6.25 14.31 5.33 14.20 C 7.34 10.19 9.14 6.08 10.99 2.00 Z" />
</g>
</svg>
