<?xml version="1.0" encoding="UTF-8" ?>
<!DOCTYPE svg PUBLIC "-//W3C//DTD SVG 1.1//EN" "http://www.w3.org/Graphics/SVG/1.1/DTD/svg11.dtd">
<svg width="16pt" height="16pt" viewBox="0 0 16 16" version="1.1" xmlns="http://www.w3.org/2000/svg">
<g id="#000000ff">
<path fill="#000000" opacity="1.00" d=" M 0.00 0.00 L 16.00 0.00 L 16.00 16.00 L 0.00 16.00 L 0.00 0.00 M 2.12 2.50 C 2.70 5.92 3.71 9.24 4.90 12.50 C 8.02 12.37 11.15 12.34 14.27 12.41 C 13.15 9.08 11.88 5.80 10.51 2.55 C 8.95 4.68 7.46 6.86 5.92 9.00 C 4.74 6.79 3.50 4.60 2.12 2.50 Z" />
<path fill="#000000" opacity="1.00" d=" M 9.17 7.17 C 10.80 6.65 11.35 7.20 10.83 8.83 C 9.20 9.35 8.65 8.80 9.17 7.17 Z" />
</g>
<g id="#ffffffff">
<path fill="#ffffff" opacity="1.00" d=" M 2.12 2.50 C 3.50 4.60 4.74 6.79 5.92 9.00 C 7.46 6.86 8.95 4.68 10.51 2.55 C 11.88 5.80 13.15 9.08 14.27 12.41 C 11.15 12.34 8.02 12.37 4.90 12.50 C 3.71 9.24 2.70 5.92 2.12 2.50 M 9.17 7.17 C 8.65 8.80 9.20 9.35 10.83 8.83 C 11.35 7.20 10.80 6.65 9.17 7.17 Z" />
</g>
</svg>
