<?xml version="1.0" encoding="UTF-8" ?>
<!DOCTYPE svg PUBLIC "-//W3C//DTD SVG 1.1//EN" "http://www.w3.org/Graphics/SVG/1.1/DTD/svg11.dtd">
<svg width="32pt" height="32pt" viewBox="0 0 32 32" version="1.1" xmlns="http://www.w3.org/2000/svg">
<g id="#e8463fff">
<path fill="#e8463f" opacity="1.00" d=" M 7.99 0.00 L 10.68 0.00 C 16.68 1.39 22.36 4.26 27.08 8.21 C 29.30 10.01 30.82 12.56 31.48 15.32 C 31.61 15.32 31.87 15.32 32.00 15.32 L 32.00 16.70 C 31.87 16.70 31.62 16.69 31.49 16.69 C 30.84 19.35 29.23 21.56 27.62 23.72 C 27.75 24.53 27.99 26.15 28.12 26.96 C 21.84 25.40 17.17 31.08 11.22 32.00 L 7.99 32.00 C 1.20 29.88 0.62 21.98 0.46 16.01 C 0.62 10.03 1.19 2.13 7.99 0.00 M 19.13 11.23 C 19.46 14.29 19.58 17.36 20.25 20.37 C 23.29 19.59 24.36 16.26 24.17 13.46 C 22.82 14.02 21.85 14.99 21.25 16.35 C 21.18 14.84 21.08 13.34 20.99 11.83 C 20.52 11.68 19.60 11.38 19.13 11.23 M 23.93 17.92 C 23.59 19.58 24.34 20.36 26.18 20.26 C 26.77 17.16 27.18 13.99 26.88 10.83 C 25.03 12.71 24.34 15.39 23.93 17.92 M 3.58 11.77 C 3.58 14.51 3.58 17.24 3.60 19.97 L 5.35 19.92 C 5.52 17.33 4.63 13.84 7.76 12.71 C 7.92 15.13 8.01 17.56 8.08 19.98 C 8.53 19.96 9.44 19.90 9.90 19.87 C 9.70 16.99 10.74 13.53 8.36 11.31 C 6.77 11.45 5.17 11.61 3.58 11.77 M 13.99 19.99 C 15.64 20.18 17.88 20.40 18.41 18.36 C 16.35 18.46 14.24 18.37 12.87 16.56 C 14.77 16.39 16.67 16.27 18.57 16.15 C 18.17 14.47 18.22 11.94 16.04 11.53 C 11.24 10.06 9.66 18.69 13.99 19.99 Z" />
<path fill="#e8463f" opacity="1.00" d=" M 14.18 13.02 C 15.20 12.34 17.25 13.39 16.41 14.68 C 15.28 16.37 11.86 14.29 14.18 13.02 Z" />
</g>
<g id="#fbe0deff">
<path fill="#fbe0de" opacity="1.00" d=" M 19.13 11.23 C 19.60 11.38 20.52 11.68 20.99 11.83 C 21.08 13.34 21.18 14.84 21.25 16.35 C 21.85 14.99 22.82 14.02 24.17 13.46 C 24.36 16.26 23.29 19.59 20.25 20.37 C 19.58 17.36 19.46 14.29 19.13 11.23 Z" />
</g>
<g id="#f9d6d4ff">
<path fill="#f9d6d4" opacity="1.00" d=" M 23.93 17.92 C 24.34 15.39 25.03 12.71 26.88 10.83 C 27.18 13.99 26.77 17.16 26.18 20.26 C 24.34 20.36 23.59 19.58 23.93 17.92 Z" />
</g>
<g id="#fdf0efff">
<path fill="#fdf0ef" opacity="1.00" d=" M 3.58 11.77 C 5.17 11.61 6.77 11.45 8.36 11.31 C 10.74 13.53 9.70 16.99 9.90 19.87 C 9.44 19.90 8.53 19.96 8.08 19.98 C 8.01 17.56 7.92 15.13 7.76 12.71 C 4.63 13.84 5.52 17.33 5.35 19.92 L 3.60 19.97 C 3.58 17.24 3.58 14.51 3.58 11.77 Z" />
</g>
<g id="#fce8e7ff">
<path fill="#fce8e7" opacity="1.00" d=" M 13.99 19.99 C 9.66 18.69 11.24 10.06 16.04 11.53 C 18.22 11.94 18.17 14.47 18.57 16.15 C 16.67 16.27 14.77 16.39 12.87 16.56 C 14.24 18.37 16.35 18.46 18.41 18.36 C 17.88 20.40 15.64 20.18 13.99 19.99 M 14.18 13.02 C 11.86 14.29 15.28 16.37 16.41 14.68 C 17.25 13.39 15.20 12.34 14.18 13.02 Z" />
</g>
</svg>
