<?xml version="1.0" encoding="UTF-8" ?>
<!DOCTYPE svg PUBLIC "-//W3C//DTD SVG 1.1//EN" "http://www.w3.org/Graphics/SVG/1.1/DTD/svg11.dtd">
<svg width="180pt" height="180pt" viewBox="0 0 180 180" version="1.1" xmlns="http://www.w3.org/2000/svg">
<g id="#000000ff">
<path fill="#000000" opacity="1.00" d=" M 37.49 0.00 L 142.47 0.00 C 153.87 1.21 164.80 7.11 171.66 16.34 C 176.31 22.45 179.13 29.87 180.00 37.48 L 180.00 143.12 C 178.62 153.07 173.97 162.64 166.44 169.37 C 159.85 175.32 151.35 179.01 142.54 180.00 L 36.91 180.00 C 26.26 178.55 16.02 173.29 9.27 164.84 C 4.08 158.50 0.90 150.62 0.00 142.50 L 0.00 37.53 C 0.85 29.90 3.68 22.47 8.34 16.35 C 15.19 7.12 26.11 1.22 37.49 0.00 M 38.66 29.23 C 38.65 32.43 38.65 35.63 38.66 38.84 C 42.36 38.83 46.06 38.83 49.77 38.84 C 49.78 35.64 49.77 32.43 49.77 29.22 C 46.06 29.23 42.36 29.23 38.66 29.23 M 51.79 29.37 C 51.86 32.50 51.86 35.63 51.83 38.77 C 55.62 38.84 59.42 38.98 63.21 38.64 C 63.09 35.58 63.09 32.52 63.23 29.45 C 59.42 29.06 55.59 29.19 51.79 29.37 M 65.06 29.21 C 64.72 32.38 64.87 35.58 64.85 38.76 C 68.64 38.84 72.45 38.99 76.23 38.63 C 76.10 35.55 76.11 32.46 76.20 29.38 C 72.49 29.13 68.77 29.26 65.06 29.21 M 38.65 40.45 C 38.65 43.70 38.64 46.94 38.68 50.19 C 42.34 50.18 45.99 50.17 49.65 50.24 C 49.82 46.97 49.79 43.70 49.77 40.44 C 46.06 40.44 42.36 40.44 38.65 40.45 M 51.84 40.51 C 51.99 43.77 51.38 47.13 52.40 50.30 C 55.85 50.13 59.31 50.17 62.76 50.22 C 63.24 46.97 63.31 43.66 62.82 40.40 C 59.16 40.46 55.50 40.41 51.84 40.51 M 64.83 40.53 C 65.00 43.78 64.39 47.14 65.43 50.30 C 68.86 50.13 72.29 50.16 75.71 50.25 C 76.38 47.01 76.24 43.67 75.85 40.41 C 72.17 40.46 68.50 40.40 64.83 40.53 M 78.11 40.41 C 77.82 43.68 77.50 47.03 78.35 50.25 C 82.00 49.92 85.77 50.72 89.32 49.61 C 89.16 46.57 89.19 43.53 89.22 40.48 C 85.51 40.42 81.81 40.44 78.11 40.41 M 77.86 51.63 C 77.87 54.87 77.65 58.13 78.20 61.35 C 81.86 61.25 85.53 61.29 89.19 61.27 C 89.20 58.05 89.20 54.84 89.20 51.62 C 85.42 51.58 81.64 51.57 77.86 51.63 M 91.14 51.58 C 91.14 54.82 91.14 58.05 91.16 61.29 C 94.84 61.28 98.52 61.29 102.21 61.27 C 102.21 58.05 102.21 54.83 102.21 51.61 C 98.52 51.57 94.83 51.58 91.14 51.58 M 38.78 62.72 C 38.78 65.97 38.78 69.22 38.77 72.47 C 42.46 72.51 46.15 72.50 49.84 72.50 C 49.84 69.23 49.84 65.97 49.82 62.70 C 46.14 62.71 42.46 62.70 38.78 62.72 M 77.85 72.45 C 81.64 72.52 85.42 72.51 89.20 72.46 C 89.20 69.22 89.20 65.98 89.19 62.74 C 85.57 62.72 81.94 62.77 78.31 62.63 C 77.52 65.84 77.93 69.17 77.85 72.45 M 91.17 62.72 C 91.14 65.97 91.14 69.23 91.14 72.49 C 94.83 72.50 98.52 72.51 102.21 72.47 C 102.20 69.22 102.20 65.98 102.20 62.74 C 98.52 62.72 94.85 62.72 91.17 62.72 M 104.18 62.70 C 104.14 65.97 104.14 69.24 104.15 72.50 C 107.84 72.51 111.53 72.52 115.22 72.48 C 115.21 69.23 115.22 65.98 115.21 62.73 C 111.53 62.70 107.85 62.70 104.18 62.70 M 38.76 74.27 C 38.78 77.38 38.78 80.49 38.76 83.60 C 42.45 83.67 46.14 83.65 49.83 83.65 C 49.84 80.48 49.84 77.30 49.83 74.13 C 47.22 74.14 44.59 74.22 41.99 73.93 C 41.18 74.02 39.57 74.19 38.76 74.27 M 77.78 74.32 C 77.88 77.39 77.87 80.47 77.82 83.55 C 81.61 83.72 85.41 83.67 89.21 83.59 C 89.19 80.46 89.20 77.33 89.21 74.19 C 85.40 74.13 81.58 74.00 77.78 74.32 M 91.16 83.66 C 94.85 83.65 98.53 83.67 102.22 83.60 C 102.20 80.47 102.20 77.35 102.22 74.22 C 98.60 74.12 94.99 73.86 91.37 73.77 C 91.01 77.05 91.15 80.36 91.16 83.66 M 117.23 74.13 C 117.22 77.31 117.22 80.48 117.22 83.65 C 120.91 83.65 124.60 83.66 128.29 83.62 C 128.27 80.47 128.27 77.31 128.29 74.16 C 124.60 74.12 120.91 74.13 117.23 74.13 M 38.73 85.32 C 38.79 88.46 38.78 91.60 38.77 94.74 C 42.46 94.79 46.15 94.77 49.83 94.78 C 49.84 91.59 49.84 88.41 49.83 85.22 C 46.13 85.23 42.43 85.17 38.73 85.32 M 77.76 85.40 C 77.88 88.48 77.88 91.57 77.81 94.65 C 81.61 94.86 85.41 94.78 89.21 94.72 C 89.20 91.57 89.20 88.43 89.21 85.28 C 85.39 85.23 81.57 85.10 77.76 85.40 M 117.22 85.22 C 117.22 88.41 117.22 91.59 117.22 94.78 C 120.91 94.77 124.59 94.78 128.28 94.75 C 128.27 91.58 128.27 88.42 128.28 85.25 C 124.59 85.22 120.91 85.23 117.22 85.22 M 130.23 85.22 C 130.22 88.41 130.22 91.59 130.23 94.78 C 133.93 94.77 137.64 94.77 141.34 94.78 C 141.35 91.58 141.36 88.40 141.32 85.21 C 137.63 85.24 133.93 85.23 130.23 85.22 M 38.76 96.40 C 38.78 99.54 38.78 102.68 38.77 105.82 C 42.43 105.80 46.09 105.99 49.74 106.18 C 49.87 102.90 49.85 99.62 49.83 96.35 C 46.14 96.35 42.45 96.33 38.76 96.40 M 104.15 96.34 C 104.15 99.51 104.15 102.68 104.15 105.85 C 106.10 105.84 108.05 105.87 110.00 106.03 C 111.74 105.90 113.48 105.83 115.23 105.78 C 115.20 102.65 115.21 99.52 115.22 96.40 C 111.53 96.33 107.84 96.35 104.15 96.34 M 117.23 96.34 C 117.26 99.48 117.11 102.63 117.28 105.77 C 120.93 106.12 124.72 106.14 128.37 105.67 C 128.25 102.57 128.26 99.47 128.29 96.38 C 124.60 96.34 120.92 96.35 117.23 96.34 M 38.77 107.53 C 38.78 110.77 38.78 114.02 38.78 117.26 C 42.46 117.28 46.14 117.28 49.82 117.28 C 49.84 114.02 49.84 110.76 49.84 107.50 C 46.15 107.50 42.46 107.49 38.77 107.53 M 91.14 107.50 C 91.14 110.76 91.14 114.02 91.17 117.28 C 94.84 117.28 98.52 117.28 102.20 117.26 C 102.20 114.02 102.20 110.77 102.21 107.53 C 98.52 107.48 94.83 107.49 91.14 107.50 M 104.15 107.50 C 104.14 110.77 104.14 114.03 104.17 117.30 C 107.85 117.29 111.53 117.30 115.21 117.27 C 115.22 114.03 115.22 110.78 115.22 107.53 C 111.53 107.49 107.84 107.50 104.15 107.50 M 38.78 118.73 C 38.78 121.95 38.78 125.16 38.77 128.38 C 42.46 128.42 46.15 128.41 49.84 128.41 C 49.84 125.17 49.84 121.94 49.82 118.71 C 46.14 118.72 42.46 118.71 38.78 118.73 M 77.86 128.37 C 81.64 128.43 85.42 128.42 89.20 128.38 C 89.20 125.16 89.20 121.94 89.19 118.72 C 85.57 118.70 81.95 118.75 78.33 118.60 C 77.51 121.80 77.93 125.11 77.86 128.37 M 91.17 118.71 C 91.14 121.95 91.14 125.18 91.14 128.42 C 94.83 128.42 98.52 128.43 102.21 128.39 C 102.21 125.17 102.21 121.95 102.21 118.73 C 98.52 118.71 94.85 118.72 91.17 118.71 M 38.66 130.33 C 38.81 133.39 38.79 136.46 38.76 139.52 C 42.45 139.57 46.14 139.56 49.83 139.57 C 49.85 136.31 49.85 133.06 49.78 129.82 C 46.08 130.01 42.28 129.33 38.66 130.33 M 51.69 129.81 C 51.66 133.06 51.66 136.30 51.66 139.55 C 55.34 139.56 59.02 139.55 62.70 139.56 C 62.72 136.31 62.73 133.05 62.64 129.80 C 58.99 129.82 55.34 129.81 51.69 129.81 M 64.44 139.56 C 68.15 139.55 71.86 139.55 75.57 139.57 C 75.59 136.31 75.59 133.05 75.53 129.80 C 71.85 129.82 68.17 129.82 64.49 129.80 C 64.42 133.05 64.43 136.31 64.44 139.56 M 77.84 139.49 C 81.63 139.61 85.42 139.59 89.22 139.52 C 89.19 136.46 89.16 133.41 89.32 130.36 C 85.79 129.29 82.05 130.09 78.43 129.72 C 77.36 132.87 78.01 136.23 77.84 139.49 M 38.71 141.28 C 38.80 144.42 38.79 147.56 38.75 150.70 C 42.45 150.80 46.14 150.77 49.83 150.78 C 49.84 147.57 49.84 144.37 49.83 141.16 C 46.13 141.17 42.41 141.09 38.71 141.28 M 51.66 141.16 C 51.66 144.37 51.66 147.57 51.67 150.77 C 55.35 150.76 59.03 150.77 62.70 150.78 C 62.71 147.57 62.71 144.36 62.71 141.16 C 59.02 141.17 55.34 141.17 51.66 141.16 M 64.43 141.16 C 64.44 144.36 64.43 147.57 64.43 150.77 C 68.15 150.77 71.86 150.76 75.57 150.78 C 75.58 147.57 75.58 144.36 75.57 141.16 C 71.86 141.17 68.15 141.17 64.43 141.16 Z" />
</g>
<g id="#ffffffff">
<path fill="#ffffff" opacity="1.00" d=" M 38.66 29.23 C 42.36 29.23 46.06 29.23 49.77 29.22 C 49.77 32.43 49.78 35.64 49.77 38.84 C 46.06 38.83 42.36 38.83 38.66 38.84 C 38.65 35.63 38.65 32.43 38.66 29.23 Z" />
<path fill="#ffffff" opacity="1.00" d=" M 51.79 29.37 C 55.59 29.19 59.42 29.06 63.23 29.45 C 63.09 32.52 63.09 35.58 63.21 38.64 C 59.42 38.98 55.62 38.84 51.83 38.77 C 51.86 35.63 51.86 32.50 51.79 29.37 Z" />
<path fill="#ffffff" opacity="1.00" d=" M 65.06 29.21 C 68.77 29.26 72.49 29.13 76.20 29.38 C 76.11 32.46 76.10 35.55 76.23 38.63 C 72.45 38.99 68.64 38.84 64.85 38.76 C 64.87 35.58 64.72 32.38 65.06 29.21 Z" />
<path fill="#ffffff" opacity="1.00" d=" M 38.65 40.45 C 42.36 40.44 46.06 40.44 49.77 40.44 C 49.79 43.70 49.82 46.97 49.65 50.24 C 45.99 50.17 42.34 50.18 38.68 50.19 C 38.64 46.94 38.65 43.70 38.65 40.45 Z" />
<path fill="#ffffff" opacity="1.00" d=" M 51.84 40.51 C 55.50 40.41 59.16 40.46 62.82 40.40 C 63.31 43.66 63.24 46.97 62.76 50.22 C 59.31 50.17 55.85 50.13 52.40 50.30 C 51.38 47.13 51.99 43.77 51.84 40.51 Z" />
<path fill="#ffffff" opacity="1.00" d=" M 64.83 40.53 C 68.50 40.40 72.17 40.46 75.85 40.41 C 76.24 43.67 76.38 47.01 75.71 50.25 C 72.29 50.16 68.86 50.13 65.43 50.30 C 64.39 47.14 65.00 43.78 64.83 40.53 Z" />
<path fill="#ffffff" opacity="1.00" d=" M 78.11 40.41 C 81.81 40.44 85.51 40.42 89.22 40.48 C 89.19 43.53 89.16 46.57 89.32 49.61 C 85.77 50.72 82.00 49.92 78.35 50.25 C 77.50 47.03 77.82 43.68 78.11 40.41 Z" />
<path fill="#ffffff" opacity="1.00" d=" M 77.86 51.63 C 81.64 51.57 85.42 51.58 89.20 51.62 C 89.20 54.84 89.20 58.05 89.19 61.27 C 85.53 61.29 81.86 61.25 78.20 61.35 C 77.65 58.13 77.87 54.87 77.86 51.63 Z" />
<path fill="#ffffff" opacity="1.00" d=" M 91.14 51.58 C 94.83 51.58 98.52 51.57 102.21 51.61 C 102.21 54.83 102.21 58.05 102.21 61.27 C 98.52 61.29 94.84 61.28 91.16 61.29 C 91.14 58.05 91.14 54.82 91.14 51.58 Z" />
<path fill="#ffffff" opacity="1.00" d=" M 38.78 62.72 C 42.46 62.70 46.14 62.71 49.82 62.70 C 49.84 65.97 49.84 69.23 49.84 72.50 C 46.15 72.50 42.46 72.51 38.77 72.47 C 38.78 69.22 38.78 65.97 38.78 62.72 Z" />
<path fill="#ffffff" opacity="1.00" d=" M 77.85 72.45 C 77.93 69.17 77.52 65.84 78.31 62.63 C 81.94 62.77 85.57 62.72 89.19 62.74 C 89.20 65.98 89.20 69.22 89.20 72.46 C 85.42 72.51 81.64 72.52 77.85 72.45 Z" />
<path fill="#ffffff" opacity="1.00" d=" M 91.17 62.72 C 94.85 62.72 98.52 62.72 102.20 62.74 C 102.20 65.98 102.20 69.22 102.21 72.47 C 98.52 72.51 94.83 72.50 91.14 72.49 C 91.14 69.23 91.14 65.97 91.17 62.72 Z" />
<path fill="#ffffff" opacity="1.00" d=" M 104.18 62.70 C 107.85 62.70 111.53 62.70 115.21 62.73 C 115.22 65.98 115.21 69.23 115.22 72.48 C 111.53 72.52 107.84 72.51 104.15 72.50 C 104.14 69.24 104.14 65.97 104.18 62.70 Z" />
<path fill="#ffffff" opacity="1.00" d=" M 38.76 74.27 C 39.57 74.19 41.18 74.02 41.99 73.93 C 44.59 74.22 47.22 74.14 49.83 74.13 C 49.84 77.30 49.84 80.48 49.83 83.65 C 46.14 83.65 42.45 83.67 38.76 83.60 C 38.78 80.49 38.78 77.38 38.76 74.27 Z" />
<path fill="#ffffff" opacity="1.00" d=" M 77.78 74.32 C 81.58 74.00 85.40 74.13 89.21 74.19 C 89.20 77.33 89.19 80.46 89.21 83.59 C 85.41 83.67 81.61 83.72 77.82 83.55 C 77.87 80.47 77.88 77.39 77.78 74.32 Z" />
<path fill="#ffffff" opacity="1.00" d=" M 91.16 83.66 C 91.15 80.36 91.01 77.05 91.37 73.77 C 94.99 73.86 98.60 74.12 102.22 74.22 C 102.20 77.35 102.20 80.47 102.22 83.60 C 98.53 83.67 94.85 83.65 91.16 83.66 Z" />
<path fill="#ffffff" opacity="1.00" d=" M 117.23 74.13 C 120.91 74.13 124.60 74.12 128.29 74.16 C 128.27 77.31 128.27 80.47 128.29 83.62 C 124.60 83.66 120.91 83.65 117.22 83.65 C 117.22 80.48 117.22 77.31 117.23 74.13 Z" />
<path fill="#ffffff" opacity="1.00" d=" M 38.73 85.32 C 42.43 85.17 46.13 85.23 49.83 85.22 C 49.84 88.41 49.84 91.59 49.83 94.78 C 46.15 94.77 42.46 94.79 38.77 94.74 C 38.78 91.60 38.79 88.46 38.73 85.32 Z" />
<path fill="#ffffff" opacity="1.00" d=" M 77.76 85.40 C 81.57 85.10 85.39 85.23 89.21 85.28 C 89.20 88.43 89.20 91.57 89.21 94.72 C 85.41 94.78 81.61 94.86 77.81 94.65 C 77.88 91.57 77.88 88.48 77.76 85.40 Z" />
<path fill="#ffffff" opacity="1.00" d=" M 117.22 85.22 C 120.91 85.23 124.59 85.22 128.28 85.25 C 128.27 88.42 128.27 91.58 128.28 94.75 C 124.59 94.78 120.91 94.77 117.22 94.78 C 117.22 91.59 117.22 88.41 117.22 85.22 Z" />
<path fill="#ffffff" opacity="1.00" d=" M 130.23 85.22 C 133.93 85.23 137.63 85.24 141.32 85.21 C 141.36 88.40 141.35 91.58 141.34 94.78 C 137.64 94.77 133.93 94.77 130.23 94.78 C 130.22 91.59 130.22 88.41 130.23 85.22 Z" />
<path fill="#ffffff" opacity="1.00" d=" M 38.76 96.40 C 42.45 96.33 46.14 96.35 49.83 96.35 C 49.85 99.62 49.87 102.90 49.74 106.18 C 46.09 105.99 42.43 105.80 38.77 105.82 C 38.78 102.68 38.78 99.54 38.76 96.40 Z" />
<path fill="#ffffff" opacity="1.00" d=" M 104.15 96.34 C 107.84 96.35 111.53 96.33 115.22 96.40 C 115.21 99.52 115.20 102.65 115.23 105.78 C 113.48 105.83 111.74 105.90 110.00 106.03 C 108.05 105.87 106.10 105.84 104.15 105.85 C 104.15 102.68 104.15 99.51 104.15 96.34 Z" />
<path fill="#ffffff" opacity="1.00" d=" M 117.23 96.34 C 120.92 96.35 124.60 96.34 128.29 96.38 C 128.26 99.47 128.25 102.57 128.37 105.67 C 124.72 106.14 120.93 106.12 117.28 105.77 C 117.11 102.63 117.26 99.48 117.23 96.34 Z" />
<path fill="#ffffff" opacity="1.00" d=" M 38.77 107.53 C 42.46 107.49 46.15 107.50 49.84 107.50 C 49.84 110.76 49.84 114.02 49.82 117.28 C 46.14 117.28 42.46 117.28 38.78 117.26 C 38.78 114.02 38.78 110.77 38.77 107.53 Z" />
<path fill="#ffffff" opacity="1.00" d=" M 91.14 107.50 C 94.83 107.49 98.52 107.48 102.21 107.53 C 102.20 110.77 102.20 114.02 102.20 117.26 C 98.52 117.28 94.84 117.28 91.17 117.28 C 91.14 114.02 91.14 110.76 91.14 107.50 Z" />
<path fill="#ffffff" opacity="1.00" d=" M 104.15 107.50 C 107.84 107.50 111.53 107.49 115.22 107.53 C 115.22 110.78 115.22 114.03 115.21 117.27 C 111.53 117.30 107.85 117.29 104.17 117.30 C 104.14 114.03 104.14 110.77 104.15 107.50 Z" />
<path fill="#ffffff" opacity="1.00" d=" M 38.78 118.73 C 42.46 118.71 46.14 118.72 49.82 118.71 C 49.84 121.94 49.84 125.17 49.84 128.41 C 46.15 128.41 42.46 128.42 38.77 128.38 C 38.78 125.16 38.78 121.95 38.78 118.73 Z" />
<path fill="#ffffff" opacity="1.00" d=" M 77.86 128.37 C 77.93 125.11 77.51 121.80 78.33 118.60 C 81.95 118.75 85.57 118.70 89.19 118.72 C 89.20 121.94 89.20 125.16 89.20 128.38 C 85.42 128.42 81.64 128.43 77.86 128.37 Z" />
<path fill="#ffffff" opacity="1.00" d=" M 91.17 118.71 C 94.85 118.72 98.52 118.71 102.21 118.73 C 102.21 121.95 102.21 125.17 102.21 128.39 C 98.52 128.43 94.83 128.42 91.14 128.42 C 91.14 125.18 91.14 121.95 91.17 118.71 Z" />
<path fill="#ffffff" opacity="1.00" d=" M 38.66 130.33 C 42.28 129.33 46.08 130.01 49.78 129.82 C 49.85 133.06 49.85 136.31 49.83 139.57 C 46.14 139.56 42.45 139.57 38.76 139.52 C 38.79 136.46 38.81 133.39 38.66 130.33 Z" />
<path fill="#ffffff" opacity="1.00" d=" M 51.69 129.81 C 55.34 129.81 58.99 129.82 62.64 129.80 C 62.73 133.05 62.72 136.31 62.70 139.56 C 59.02 139.55 55.34 139.56 51.66 139.55 C 51.66 136.30 51.66 133.06 51.69 129.81 Z" />
<path fill="#ffffff" opacity="1.00" d=" M 64.44 139.56 C 64.43 136.31 64.42 133.05 64.49 129.80 C 68.17 129.82 71.85 129.82 75.53 129.80 C 75.59 133.05 75.59 136.31 75.57 139.57 C 71.86 139.55 68.15 139.55 64.44 139.56 Z" />
<path fill="#ffffff" opacity="1.00" d=" M 77.84 139.49 C 78.01 136.23 77.36 132.87 78.43 129.72 C 82.05 130.09 85.79 129.29 89.32 130.36 C 89.16 133.41 89.19 136.46 89.22 139.52 C 85.42 139.59 81.63 139.61 77.84 139.49 Z" />
<path fill="#ffffff" opacity="1.00" d=" M 38.71 141.28 C 42.41 141.09 46.13 141.17 49.83 141.16 C 49.84 144.37 49.84 147.57 49.83 150.78 C 46.14 150.77 42.45 150.80 38.75 150.70 C 38.79 147.56 38.80 144.42 38.71 141.28 Z" />
<path fill="#ffffff" opacity="1.00" d=" M 51.66 141.16 C 55.34 141.17 59.02 141.17 62.71 141.16 C 62.71 144.36 62.71 147.57 62.70 150.78 C 59.03 150.77 55.35 150.76 51.67 150.77 C 51.66 147.57 51.66 144.37 51.66 141.16 Z" />
<path fill="#ffffff" opacity="1.00" d=" M 64.43 141.16 C 68.15 141.17 71.86 141.17 75.57 141.16 C 75.58 144.36 75.58 147.57 75.57 150.78 C 71.86 150.76 68.15 150.77 64.43 150.77 C 64.43 147.57 64.44 144.36 64.43 141.16 Z" />
</g>
</svg>
