<?xml version="1.0" encoding="UTF-8" ?>
<!DOCTYPE svg PUBLIC "-//W3C//DTD SVG 1.1//EN" "http://www.w3.org/Graphics/SVG/1.1/DTD/svg11.dtd">
<svg width="32pt" height="32pt" viewBox="0 0 32 32" version="1.1" xmlns="http://www.w3.org/2000/svg">
<g id="#ffff00ff">
<path fill="#ffff00" opacity="1.00" d=" M 0.00 0.00 L 32.00 0.00 L 32.00 32.00 L 0.00 32.00 L 0.00 0.00 M 6.27 5.58 C 6.89 6.20 8.03 6.50 8.12 7.48 C 8.98 13.83 9.46 20.22 10.26 26.58 C 11.92 26.59 13.57 26.59 15.23 26.58 C 18.23 20.79 21.07 14.91 24.11 9.14 C 24.86 7.48 26.38 6.48 27.90 5.62 C 25.19 5.69 22.48 5.79 19.77 5.68 C 20.85 6.01 21.92 6.36 22.99 6.73 C 22.06 12.08 19.09 16.85 16.57 21.60 C 15.93 16.63 15.58 11.63 15.14 6.65 C 16.14 6.34 17.13 6.02 18.13 5.71 C 14.18 5.73 10.22 5.81 6.27 5.58 Z" />
</g>
<g id="#333333ff">
<path fill="#333333" opacity="1.00" d=" M 6.27 5.58 C 10.22 5.81 14.18 5.73 18.13 5.71 C 17.13 6.02 16.14 6.34 15.14 6.65 C 15.58 11.63 15.93 16.63 16.57 21.60 C 19.09 16.85 22.06 12.08 22.99 6.73 C 21.92 6.36 20.85 6.01 19.77 5.68 C 22.48 5.79 25.19 5.69 27.90 5.62 C 26.38 6.48 24.86 7.48 24.11 9.14 C 21.07 14.91 18.23 20.79 15.23 26.58 C 13.57 26.59 11.92 26.59 10.26 26.58 C 9.46 20.22 8.98 13.83 8.12 7.48 C 8.03 6.50 6.89 6.20 6.27 5.58 Z" />
</g>
</svg>
