<?xml version="1.0" encoding="UTF-8" ?>
<!DOCTYPE svg PUBLIC "-//W3C//DTD SVG 1.1//EN" "http://www.w3.org/Graphics/SVG/1.1/DTD/svg11.dtd">
<svg width="125pt" height="115pt" viewBox="0 0 125 115" version="1.1" xmlns="http://www.w3.org/2000/svg">
<g id="#33333333">
<path fill="#333333" opacity="0.20" d=" M 62.42 0.00 L 66.55 0.00 C 80.18 0.63 93.64 5.97 103.58 15.40 C 108.81 20.10 112.79 25.98 116.20 32.08 C 114.13 31.99 112.06 31.96 109.98 32.03 L 109.33 32.06 C 101.97 18.24 87.59 8.49 72.11 6.40 C 62.41 5.25 52.27 6.14 43.33 10.28 C 29.65 16.36 19.07 28.63 14.79 42.93 C 14.39 42.70 13.61 42.24 13.22 42.01 C 12.72 39.77 12.15 37.55 11.61 35.33 C 13.38 34.67 15.16 34.02 16.87 33.24 C 15.76 33.19 13.53 33.08 12.42 33.03 C 21.38 13.91 41.27 0.67 62.42 0.00 Z" />
<path fill="#333333" opacity="0.20" d=" M 110.58 33.37 C 113.70 34.47 117.11 35.22 119.71 37.39 C 121.72 38.95 121.41 41.79 122.05 44.00 L 121.41 44.00 C 121.06 41.54 120.36 39.16 119.02 37.05 C 119.73 43.04 121.94 48.82 121.87 54.91 C 121.98 57.96 121.54 61.13 122.46 64.09 L 122.84 64.47 C 120.48 65.42 118.01 65.99 115.56 66.61 C 116.09 59.73 116.49 52.71 114.91 45.93 C 113.95 41.59 112.22 37.48 110.58 33.37 Z" />
<path fill="#333333" opacity="0.20" d=" M 20.52 94.48 C 9.51 81.48 4.47 63.29 8.30 46.58 C 9.87 51.42 11.42 56.26 12.91 61.13 C 13.05 61.67 13.34 62.77 13.48 63.32 C 14.82 85.49 33.46 104.71 55.12 108.33 C 66.58 110.14 78.77 108.77 89.00 103.07 C 102.20 96.15 111.49 83.21 115.22 68.92 C 117.24 68.56 119.25 68.16 121.25 67.68 C 118.30 82.12 110.20 95.54 98.10 104.12 C 88.98 110.79 77.83 114.44 66.58 115.00 L 62.39 115.00 C 46.38 114.34 30.77 106.85 20.52 94.48 Z" />
</g>
<g id="#71717172">
<path fill="#717171" opacity="0.45" d=" M 43.33 10.28 C 52.27 6.14 62.41 5.25 72.11 6.40 C 87.59 8.49 101.97 18.24 109.33 32.06 C 103.74 32.34 97.92 33.83 93.75 37.76 C 88.56 42.43 86.64 50.30 89.02 56.85 C 91.02 62.22 95.87 66.21 101.29 67.83 C 105.80 69.18 110.56 69.00 115.22 68.92 C 111.49 83.21 102.20 96.15 89.00 103.07 C 78.77 108.77 66.58 110.14 55.12 108.33 C 33.46 104.71 14.82 85.49 13.48 63.32 C 14.40 65.96 15.40 68.58 16.35 71.21 C 20.48 61.17 24.49 51.07 28.39 40.94 C 32.27 51.13 36.36 61.23 40.50 71.31 C 43.61 62.13 46.62 52.91 49.91 43.78 C 50.97 40.96 51.75 37.97 53.41 35.42 C 54.69 34.45 56.17 33.75 57.57 32.95 C 52.72 33.36 47.85 33.18 43.00 33.32 C 44.94 33.94 46.91 34.45 48.89 34.94 C 47.11 43.80 44.38 52.42 41.72 61.05 C 38.65 52.67 35.62 44.27 32.52 35.91 C 34.19 35.35 35.86 34.78 37.52 34.17 C 32.11 34.27 26.71 34.20 21.31 34.20 C 23.34 34.87 25.40 35.43 27.47 35.98 C 24.75 44.26 21.58 52.39 18.29 60.46 C 16.76 55.47 15.32 50.46 13.96 45.42 C 13.73 44.28 13.47 43.14 13.22 42.01 C 13.61 42.24 14.39 42.70 14.79 42.93 C 19.07 28.63 29.65 16.36 43.33 10.28 M 59.18 41.97 C 60.15 40.52 60.88 38.94 61.61 37.37 C 65.85 36.88 70.12 36.96 74.37 37.03 C 71.13 40.89 67.71 44.59 64.27 48.28 C 68.78 49.71 74.40 51.75 75.40 57.04 C 76.90 63.78 68.74 69.36 62.80 66.22 C 59.52 65.24 60.13 61.26 59.14 58.69 C 58.57 62.71 58.48 66.78 58.13 70.82 C 58.56 70.23 59.41 69.03 59.84 68.44 C 64.25 69.35 68.99 69.18 73.08 67.14 C 78.10 64.75 82.21 58.90 80.58 53.22 C 78.82 48.56 73.68 46.70 69.32 45.33 C 73.07 41.22 76.87 37.15 80.60 33.02 C 74.16 32.95 67.72 33.09 61.28 32.90 C 61.11 31.87 60.77 29.82 60.60 28.79 C 59.27 33.04 59.32 37.56 59.18 41.97 M 62.38 80.98 C 61.30 85.11 60.69 89.36 60.20 93.60 C 60.54 93.32 61.22 92.77 61.56 92.49 C 62.79 88.29 63.47 83.89 63.73 79.52 C 63.39 79.88 62.72 80.61 62.38 80.98 M 51.90 84.39 C 51.12 88.59 50.21 92.77 49.96 97.05 C 51.40 95.94 51.69 94.17 52.15 92.55 C 56.98 95.60 61.20 87.59 57.70 84.39 C 55.77 84.20 53.83 84.41 51.90 84.39 M 64.78 91.09 C 65.33 94.51 69.31 92.47 71.62 92.69 C 72.16 89.60 72.72 86.50 72.82 83.36 C 70.60 85.26 71.11 88.44 69.85 90.85 C 68.96 91.74 67.54 91.47 66.42 91.81 C 66.65 89.17 67.10 86.55 67.29 83.90 C 64.55 84.82 65.35 88.79 64.78 91.09 M 75.53 85.36 C 73.67 88.00 77.90 89.47 79.15 91.28 C 77.24 91.62 75.30 91.67 73.37 91.60 C 75.10 94.08 78.84 93.66 80.08 90.94 C 80.66 88.27 76.13 88.16 76.71 85.70 C 78.08 85.56 79.46 85.51 80.84 85.55 C 80.62 85.15 80.19 84.35 79.97 83.95 C 78.51 84.37 76.52 83.95 75.53 85.36 Z" />
<path fill="#717171" opacity="0.45" d=" M 122.95 39.09 C 122.54 36.65 122.91 34.18 123.99 31.94 C 124.31 34.33 125.01 37.26 122.95 39.09 Z" />
<path fill="#717171" opacity="0.45" d=" M 98.05 37.97 C 101.23 34.48 106.07 33.57 110.58 33.37 C 112.22 37.48 113.95 41.59 114.91 45.93 C 116.49 52.71 116.09 59.73 115.56 66.61 C 109.39 66.82 102.82 65.13 98.67 60.28 C 93.10 54.38 92.05 43.93 98.05 37.97 Z" />
<path fill="#717171" opacity="0.45" d=" M 52.63 86.75 C 54.20 86.24 55.78 85.75 57.36 85.28 C 57.12 87.49 56.73 89.68 56.18 91.84 C 55.34 91.70 53.67 91.42 52.84 91.28 C 52.74 89.77 52.67 88.26 52.63 86.75 Z" />
</g>
<g id="#29b4f0ff">
<path fill="#29b4f0" opacity="1.00" d=" M 121.62 33.02 C 122.20 31.15 122.82 29.28 123.63 27.49 C 123.78 28.97 123.90 30.46 123.99 31.94 C 122.91 34.18 122.54 36.65 122.95 39.09 C 123.01 40.73 123.02 42.37 123.04 44.01 L 122.05 44.00 C 121.41 41.79 121.72 38.95 119.71 37.39 C 117.11 35.22 113.70 34.47 110.58 33.37 C 110.43 33.04 110.13 32.37 109.98 32.03 C 112.06 31.96 114.13 31.99 116.20 32.08 C 118.02 32.29 119.83 32.65 121.62 33.02 Z" />
<path fill="#29b4f0" opacity="1.00" d=" M 0.00 33.15 C 4.14 33.01 8.28 33.00 12.42 33.03 C 13.53 33.08 15.76 33.19 16.87 33.24 C 15.16 34.02 13.38 34.67 11.61 35.33 C 12.15 37.55 12.72 39.77 13.22 42.01 C 13.47 43.14 13.73 44.28 13.96 45.42 C 13.35 50.63 12.66 55.86 12.91 61.13 C 11.42 56.26 9.87 51.42 8.30 46.58 C 7.25 42.72 5.89 38.95 4.61 35.16 C 3.07 34.72 1.52 34.30 0.00 33.78 L 0.00 33.15 Z" />
<path fill="#29b4f0" opacity="1.00" d=" M 122.84 64.47 C 123.38 64.30 124.46 63.96 125.00 63.80 L 125.00 65.74 C 123.79 66.46 122.54 67.11 121.25 67.68 C 119.25 68.16 117.24 68.56 115.22 68.92 C 115.32 68.15 115.44 67.38 115.56 66.61 C 118.01 65.99 120.48 65.42 122.84 64.47 Z" />
</g>
<g id="#ffffffff">
<path fill="#ffffff" opacity="1.00" d=" M 59.18 41.97 C 59.32 37.56 59.27 33.04 60.60 28.79 C 60.77 29.82 61.11 31.87 61.28 32.90 C 67.72 33.09 74.16 32.95 80.60 33.02 C 76.87 37.15 73.07 41.22 69.32 45.33 C 73.68 46.70 78.82 48.56 80.58 53.22 C 82.21 58.90 78.10 64.75 73.08 67.14 C 68.99 69.18 64.25 69.35 59.84 68.44 C 59.41 69.03 58.56 70.23 58.13 70.82 C 58.48 66.78 58.57 62.71 59.14 58.69 C 60.13 61.26 59.52 65.24 62.80 66.22 C 68.74 69.36 76.90 63.78 75.40 57.04 C 74.40 51.75 68.78 49.71 64.27 48.28 C 67.71 44.59 71.13 40.89 74.37 37.03 C 70.12 36.96 65.85 36.88 61.61 37.37 C 60.88 38.94 60.15 40.52 59.18 41.97 Z" />
<path fill="#ffffff" opacity="1.00" d=" M 93.75 37.76 C 97.92 33.83 103.74 32.34 109.33 32.06 L 109.98 32.03 C 110.13 32.37 110.43 33.04 110.58 33.37 C 106.07 33.57 101.23 34.48 98.05 37.97 C 92.05 43.93 93.10 54.38 98.67 60.28 C 102.82 65.13 109.39 66.82 115.56 66.61 C 115.44 67.38 115.32 68.15 115.22 68.92 C 110.56 69.00 105.80 69.18 101.29 67.83 C 95.87 66.21 91.02 62.22 89.02 56.85 C 86.64 50.30 88.56 42.43 93.75 37.76 Z" />
<path fill="#ffffff" opacity="1.00" d=" M 43.00 33.32 C 47.85 33.18 52.72 33.36 57.57 32.95 C 56.17 33.75 54.69 34.45 53.41 35.42 C 51.75 37.97 50.97 40.96 49.91 43.78 C 46.62 52.91 43.61 62.13 40.50 71.31 C 36.36 61.23 32.27 51.13 28.39 40.94 C 24.49 51.07 20.48 61.17 16.35 71.21 C 15.40 68.58 14.40 65.96 13.48 63.32 C 13.34 62.77 13.05 61.67 12.91 61.13 C 12.66 55.86 13.35 50.63 13.96 45.42 C 15.32 50.46 16.76 55.47 18.29 60.46 C 21.58 52.39 24.75 44.26 27.47 35.98 C 25.40 35.43 23.34 34.87 21.31 34.20 C 26.71 34.20 32.11 34.27 37.52 34.17 C 35.86 34.78 34.19 35.35 32.52 35.91 C 35.62 44.27 38.65 52.67 41.72 61.05 C 44.38 52.42 47.11 43.80 48.89 34.94 C 46.91 34.45 44.94 33.94 43.00 33.32 Z" />
<path fill="#ffffff" opacity="1.00" d=" M 62.38 80.98 C 62.72 80.61 63.39 79.88 63.73 79.52 C 63.47 83.89 62.79 88.29 61.56 92.49 C 61.22 92.77 60.54 93.32 60.20 93.60 C 60.69 89.36 61.30 85.11 62.38 80.98 Z" />
<path fill="#ffffff" opacity="1.00" d=" M 51.90 84.39 C 53.83 84.41 55.77 84.20 57.70 84.39 C 61.20 87.59 56.98 95.60 52.15 92.55 C 51.69 94.17 51.40 95.94 49.96 97.05 C 50.21 92.77 51.12 88.59 51.90 84.39 M 52.63 86.75 C 52.67 88.26 52.74 89.77 52.84 91.28 C 53.67 91.42 55.34 91.70 56.18 91.84 C 56.73 89.68 57.12 87.49 57.36 85.28 C 55.78 85.75 54.20 86.24 52.63 86.75 Z" />
<path fill="#ffffff" opacity="1.00" d=" M 64.78 91.09 C 65.35 88.79 64.55 84.82 67.29 83.90 C 67.10 86.55 66.65 89.17 66.42 91.81 C 67.54 91.47 68.96 91.74 69.85 90.85 C 71.11 88.44 70.60 85.26 72.82 83.36 C 72.72 86.50 72.16 89.60 71.62 92.69 C 69.31 92.47 65.33 94.51 64.78 91.09 Z" />
<path fill="#ffffff" opacity="1.00" d=" M 75.53 85.36 C 76.52 83.95 78.51 84.37 79.97 83.95 C 80.19 84.35 80.62 85.15 80.84 85.55 C 79.46 85.51 78.08 85.56 76.71 85.70 C 76.13 88.16 80.66 88.27 80.08 90.94 C 78.84 93.66 75.10 94.08 73.37 91.60 C 75.30 91.67 77.24 91.62 79.15 91.28 C 77.90 89.47 73.67 88.00 75.53 85.36 Z" />
</g>
</svg>
