<?xml version="1.0" encoding="UTF-8" ?>
<!DOCTYPE svg PUBLIC "-//W3C//DTD SVG 1.1//EN" "http://www.w3.org/Graphics/SVG/1.1/DTD/svg11.dtd">
<svg width="214pt" height="170pt" viewBox="0 0 214 170" version="1.1" xmlns="http://www.w3.org/2000/svg">
<g id="#f0f3eaff">
<path fill="#f0f3ea" opacity="1.00" d=" M 0.00 0.00 L 214.00 0.00 L 214.00 170.00 L 0.00 170.00 L 0.00 0.00 M 14.35 4.35 C 10.41 5.26 7.97 9.05 7.97 12.97 C 8.06 59.98 7.92 107.00 8.04 154.00 C 6.69 159.49 12.51 165.31 18.00 163.96 C 78.00 164.03 138.00 164.03 198.00 163.96 C 203.12 165.20 208.69 160.19 208.05 155.02 C 207.90 108.35 208.11 61.67 207.95 14.99 C 209.13 9.36 204.76 3.73 199.03 3.98 C 137.48 4.26 75.89 3.52 14.35 4.35 Z" />
<path fill="#f0f3ea" opacity="1.00" d=" M 146.46 30.61 C 158.84 27.06 171.79 31.43 180.30 40.70 C 189.97 53.20 189.18 74.33 174.80 83.09 C 182.56 88.94 189.95 97.45 188.07 107.99 C 190.65 125.81 173.64 141.96 156.01 140.07 C 139.91 142.44 122.78 129.49 121.99 112.97 C 121.29 105.59 132.06 109.66 136.84 109.10 C 138.51 120.07 148.53 129.54 160.35 125.37 C 172.40 122.24 176.30 105.68 168.34 96.66 C 164.10 89.97 155.63 93.06 150.09 89.78 C 151.39 85.51 146.06 74.29 155.00 76.87 C 165.30 77.20 172.86 66.86 170.08 56.98 C 169.47 43.14 148.63 40.00 141.99 51.00 C 139.06 54.20 141.70 63.20 134.01 60.06 C 131.33 58.57 123.64 62.63 123.06 57.94 C 124.37 45.03 133.62 33.54 146.46 30.61 Z" />
<path fill="#f0f3ea" opacity="1.00" d=" M 78.22 59.09 C 82.84 59.91 94.69 55.37 91.99 65.01 C 91.08 73.46 97.84 83.04 107.00 82.00 C 116.46 82.82 122.96 73.22 123.77 64.74 C 127.57 63.14 133.19 63.85 137.75 64.23 C 142.72 67.94 137.69 75.50 135.91 79.94 C 127.74 99.21 95.68 104.10 85.01 84.75 C 78.87 96.19 64.28 98.32 52.58 96.56 C 39.49 94.58 29.05 83.04 28.03 70.00 C 24.26 60.28 35.64 64.58 40.82 64.13 C 43.77 67.53 43.18 72.55 45.93 76.04 C 53.26 85.05 70.47 84.59 75.00 73.03 C 77.34 68.74 75.24 62.93 78.22 59.09 Z" />
<path fill="#f0f3ea" opacity="1.00" d=" M 126.98 100.03 C 130.64 99.99 134.31 100.68 137.98 100.25 C 140.70 104.81 136.01 105.99 133.17 106.00 C 132.74 104.10 130.24 99.66 129.91 103.98 C 128.31 107.10 127.20 101.67 126.98 100.03 Z" />
<path fill="#f0f3ea" opacity="1.00" d=" M 61.00 105.97 C 63.71 105.18 64.69 107.39 65.58 109.47 C 73.00 108.21 74.42 119.07 70.00 122.20 C 65.14 120.85 71.22 111.60 65.14 113.02 C 65.77 114.98 65.50 125.32 61.06 120.79 C 60.83 115.80 62.12 110.92 61.00 105.97 Z" />
<path fill="#f0f3ea" opacity="1.00" d=" M 100.05 105.96 C 107.30 106.12 102.78 116.80 102.85 121.89 C 95.82 123.06 102.05 109.82 100.05 105.96 Z" />
<path fill="#f0f3ea" opacity="1.00" d=" M 39.28 110.19 C 42.19 110.03 45.13 109.84 48.05 110.06 C 48.76 113.28 43.46 113.68 41.71 113.39 C 44.22 113.98 48.36 114.58 48.03 118.00 C 48.55 123.32 36.51 124.42 38.07 119.16 C 52.33 119.07 29.67 115.39 39.28 110.19 Z" />
<path fill="#f0f3ea" opacity="1.00" d=" M 52.28 110.19 C 54.87 109.96 57.45 109.91 60.04 110.04 C 60.85 114.32 54.30 111.28 53.59 114.68 C 50.31 119.62 62.81 116.46 59.32 121.31 C 52.44 125.62 45.78 114.31 52.28 110.19 Z" />
<path fill="#f0f3ea" opacity="1.00" d=" M 76.29 110.16 C 80.67 108.33 83.64 110.31 85.25 113.93 C 88.19 110.20 94.71 107.60 97.84 112.29 C 101.34 118.43 92.62 125.82 88.23 119.77 C 86.04 116.05 83.74 120.09 81.62 121.71 C 74.70 124.53 70.79 113.52 76.29 110.16 M 78.22 113.11 C 75.83 114.58 77.26 117.61 79.18 118.78 C 83.07 118.43 82.78 111.36 78.22 113.11 M 91.23 113.11 C 88.91 114.80 89.62 118.94 92.84 118.81 C 96.14 117.28 95.40 111.63 91.23 113.11 Z" />
<path fill="#f0f3ea" opacity="1.00" d=" M 107.27 110.14 C 110.18 110.01 113.14 109.84 116.05 110.06 C 117.91 114.20 106.09 112.68 111.17 113.78 C 114.11 113.79 119.01 116.87 115.79 119.79 C 113.69 123.15 109.40 121.88 106.02 121.97 C 103.82 116.50 113.12 121.54 111.83 117.30 C 107.78 117.55 102.66 114.06 107.27 110.14 Z" />
</g>
<g id="#86ca03ff">
<path fill="#86ca03" opacity="1.00" d=" M 14.35 4.35 C 75.89 3.52 137.48 4.26 199.03 3.98 C 204.76 3.73 209.13 9.36 207.95 14.99 C 208.11 61.67 207.90 108.35 208.05 155.02 C 208.69 160.19 203.12 165.20 198.00 163.96 C 138.00 164.03 78.00 164.03 18.00 163.96 C 12.51 165.31 6.69 159.49 8.04 154.00 C 7.92 107.00 8.06 59.98 7.97 12.97 C 7.97 9.05 10.41 5.26 14.35 4.35 M 146.46 30.61 C 133.62 33.54 124.37 45.03 123.06 57.94 C 123.64 62.63 131.33 58.57 134.01 60.06 C 141.70 63.20 139.06 54.20 141.99 51.00 C 148.63 40.00 169.47 43.14 170.08 56.98 C 172.86 66.86 165.30 77.20 155.00 76.87 C 146.06 74.29 151.39 85.51 150.09 89.78 C 155.63 93.06 164.10 89.97 168.34 96.66 C 176.30 105.68 172.40 122.24 160.35 125.37 C 148.53 129.54 138.51 120.07 136.84 109.10 C 132.06 109.66 121.29 105.59 121.99 112.97 C 122.78 129.49 139.91 142.44 156.01 140.07 C 173.64 141.96 190.65 125.81 188.07 107.99 C 189.95 97.45 182.56 88.94 174.80 83.09 C 189.18 74.33 189.97 53.20 180.30 40.70 C 171.79 31.43 158.84 27.06 146.46 30.61 M 78.22 59.09 C 75.24 62.93 77.34 68.74 75.00 73.03 C 70.47 84.59 53.26 85.05 45.93 76.04 C 43.18 72.55 43.77 67.53 40.82 64.13 C 35.64 64.58 24.26 60.28 28.03 70.00 C 29.05 83.04 39.49 94.58 52.58 96.56 C 64.28 98.32 78.87 96.19 85.01 84.75 C 95.68 104.10 127.74 99.21 135.91 79.94 C 137.69 75.50 142.72 67.94 137.75 64.23 C 133.19 63.85 127.57 63.14 123.77 64.74 C 122.96 73.22 116.46 82.82 107.00 82.00 C 97.84 83.04 91.08 73.46 91.99 65.01 C 94.69 55.37 82.84 59.91 78.22 59.09 M 126.98 100.03 C 127.20 101.67 128.31 107.10 129.91 103.98 C 130.24 99.66 132.74 104.10 133.17 106.00 C 136.01 105.99 140.70 104.81 137.98 100.25 C 134.31 100.68 130.64 99.99 126.98 100.03 M 61.00 105.97 C 62.12 110.92 60.83 115.80 61.06 120.79 C 65.50 125.32 65.77 114.98 65.14 113.02 C 71.22 111.60 65.14 120.85 70.00 122.20 C 74.42 119.07 73.00 108.21 65.58 109.47 C 64.69 107.39 63.71 105.18 61.00 105.97 M 100.05 105.96 C 102.05 109.82 95.82 123.06 102.85 121.89 C 102.78 116.80 107.30 106.12 100.05 105.96 M 39.28 110.19 C 29.67 115.39 52.33 119.07 38.07 119.16 C 36.51 124.42 48.55 123.32 48.03 118.00 C 48.36 114.58 44.22 113.98 41.71 113.39 C 43.46 113.68 48.76 113.28 48.05 110.06 C 45.13 109.84 42.19 110.03 39.28 110.19 M 52.28 110.19 C 45.78 114.31 52.44 125.62 59.32 121.31 C 62.81 116.46 50.31 119.62 53.59 114.68 C 54.30 111.28 60.85 114.32 60.04 110.04 C 57.45 109.91 54.87 109.96 52.28 110.19 M 76.29 110.16 C 70.79 113.52 74.70 124.53 81.62 121.71 C 83.74 120.09 86.04 116.05 88.23 119.77 C 92.62 125.82 101.34 118.43 97.84 112.29 C 94.71 107.60 88.19 110.20 85.25 113.93 C 83.64 110.31 80.67 108.33 76.29 110.16 M 107.27 110.14 C 102.66 114.06 107.78 117.55 111.83 117.30 C 113.12 121.54 103.82 116.50 106.02 121.97 C 109.40 121.88 113.69 123.15 115.79 119.79 C 119.01 116.87 114.11 113.79 111.17 113.78 C 106.09 112.68 117.91 114.20 116.05 110.06 C 113.14 109.84 110.18 110.01 107.27 110.14 Z" />
<path fill="#86ca03" opacity="1.00" d=" M 78.22 113.11 C 82.78 111.36 83.07 118.43 79.18 118.78 C 77.26 117.61 75.83 114.58 78.22 113.11 Z" />
<path fill="#86ca03" opacity="1.00" d=" M 91.23 113.11 C 95.40 111.63 96.14 117.28 92.84 118.81 C 89.62 118.94 88.91 114.80 91.23 113.11 Z" />
</g>
</svg>
