<?xml version="1.0" encoding="UTF-8" ?>
<!DOCTYPE svg PUBLIC "-//W3C//DTD SVG 1.1//EN" "http://www.w3.org/Graphics/SVG/1.1/DTD/svg11.dtd">
<svg width="32pt" height="32pt" viewBox="0 0 32 32" version="1.1" xmlns="http://www.w3.org/2000/svg">
<g id="#ffffffff">
<path fill="#ffffff" opacity="1.00" d=" M 2.15 2.36 C 2.61 1.91 3.53 1.02 3.99 0.58 C 4.76 1.23 5.51 1.93 6.21 2.66 C 5.41 2.61 3.81 2.53 3.00 2.49 C 3.21 9.17 2.48 15.92 3.33 22.57 C 4.67 24.57 6.42 26.33 8.44 27.66 C 13.42 28.31 18.58 28.31 23.57 27.66 C 25.58 26.32 27.33 24.57 28.67 22.56 C 29.51 16.11 28.85 9.54 28.91 3.04 C 28.21 3.04 26.79 3.03 26.09 3.03 C 25.66 10.14 26.66 17.34 25.37 24.39 C 22.75 25.04 19.40 25.59 17.70 22.89 C 19.88 23.83 23.26 25.16 24.90 22.69 C 25.15 16.23 24.94 9.75 24.99 3.27 C 26.13 2.30 27.18 1.14 28.67 0.70 C 29.11 2.14 30.01 3.49 29.99 5.04 C 30.04 11.58 29.99 18.11 29.99 24.65 C 27.77 26.66 25.65 28.77 23.65 30.99 C 18.55 31.01 13.45 31.01 8.35 30.99 C 6.35 28.77 4.23 26.66 2.02 24.65 C 2.09 17.22 1.78 9.77 2.15 2.36 Z" />
<path fill="#ffffff" opacity="1.00" d=" M 6.12 3.95 L 6.92 3.31 C 7.08 6.07 6.96 8.84 7.03 11.61 C 8.19 12.74 9.69 13.73 10.08 15.42 C 8.73 14.30 7.28 13.23 6.31 11.75 C 5.70 9.20 5.96 6.54 6.12 3.95 Z" />
<path fill="#ffffff" opacity="1.00" d=" M 9.96 22.40 C 11.21 22.38 12.66 22.68 13.93 22.30 C 14.14 24.74 9.56 25.12 9.96 22.40 Z" />
</g>
<g id="#357ec7ff">
<path fill="#357ec7" opacity="1.00" d=" M 14.04 2.24 C 14.91 0.31 17.00 0.94 18.19 2.15 C 16.92 5.98 17.32 10.04 17.25 14.00 C 17.32 16.96 17.01 19.98 17.70 22.89 C 19.40 25.59 22.75 25.04 25.37 24.39 C 26.66 17.34 25.66 10.14 26.09 3.03 C 26.79 3.03 28.21 3.04 28.91 3.04 C 28.85 9.54 29.51 16.11 28.67 22.56 C 27.33 24.57 25.58 26.32 23.57 27.66 C 18.58 28.31 13.42 28.31 8.44 27.66 C 6.42 26.33 4.67 24.57 3.33 22.57 C 2.48 15.92 3.21 9.17 3.00 2.49 C 3.81 2.53 5.41 2.61 6.21 2.66 L 6.12 3.95 C 5.96 6.54 5.70 9.20 6.31 11.75 C 7.28 13.23 8.73 14.30 10.08 15.42 C 9.98 17.74 9.92 20.07 9.96 22.40 C 9.56 25.12 14.14 24.74 13.93 22.30 C 14.19 15.61 13.82 8.92 14.04 2.24 Z" />
</g>
</svg>
