<?xml version="1.0" encoding="UTF-8" ?>
<!DOCTYPE svg PUBLIC "-//W3C//DTD SVG 1.1//EN" "http://www.w3.org/Graphics/SVG/1.1/DTD/svg11.dtd">
<svg width="16pt" height="19pt" viewBox="0 0 16 19" version="1.1" xmlns="http://www.w3.org/2000/svg">
<g id="#d4d4d4fe">
<path fill="#d4d4d4" opacity="1.00" d=" M 0.00 1.70 C 5.23 0.31 10.71 1.22 16.00 1.72 L 16.00 14.20 C 13.73 15.32 11.31 16.07 8.92 16.86 L 8.11 16.87 C 5.27 16.39 2.43 15.75 0.00 14.17 L 0.00 1.70 M 12.27 4.26 C 10.64 5.58 10.73 8.81 8.33 8.95 C 6.20 1.61 6.49 12.73 3.09 14.19 C 5.70 14.51 6.43 12.21 7.40 10.31 C 12.12 8.00 6.39 16.03 11.92 14.13 C 7.17 11.56 15.99 3.62 12.27 4.26 Z" />
</g>
<g id="#767676f8">
<path fill="#767676" opacity="0.97" d=" M 12.27 4.26 C 15.99 3.62 7.17 11.56 11.92 14.13 C 6.39 16.03 12.12 8.00 7.40 10.31 C 6.43 12.21 5.70 14.51 3.09 14.19 C 6.49 12.73 6.20 1.61 8.33 8.95 C 10.73 8.81 10.64 5.58 12.27 4.26 Z" />
<path fill="#767676" opacity="0.97" d=" M 0.00 14.17 C 2.43 15.75 5.27 16.39 8.11 16.87 C 5.40 16.78 2.68 16.67 0.00 16.28 L 0.00 14.17 Z" />
<path fill="#767676" opacity="0.97" d=" M 8.92 16.86 C 11.31 16.07 13.73 15.32 16.00 14.20 L 16.00 16.19 C 13.64 16.47 11.28 16.69 8.92 16.86 Z" />
</g>
</svg>
