<?xml version="1.0" encoding="UTF-8" ?>
<!DOCTYPE svg PUBLIC "-//W3C//DTD SVG 1.1//EN" "http://www.w3.org/Graphics/SVG/1.1/DTD/svg11.dtd">
<svg width="16pt" height="16pt" viewBox="0 0 16 16" version="1.1" xmlns="http://www.w3.org/2000/svg">
<g id="#556270ff">
<path fill="#556270" opacity="1.00" d=" M 1.00 1.00 C 2.33 1.00 3.67 1.00 5.00 1.00 C 5.00 2.33 5.00 3.67 5.00 5.00 C 3.67 5.00 2.33 5.00 1.00 5.00 C 1.00 3.67 1.00 2.33 1.00 1.00 Z" />
<path fill="#556270" opacity="1.00" d=" M 1.00 6.00 C 2.33 6.00 3.67 6.00 5.00 6.00 C 5.00 7.33 5.00 8.67 5.00 10.00 C 3.67 10.00 2.33 10.00 1.00 10.00 C 1.00 8.67 1.00 7.33 1.00 6.00 Z" />
<path fill="#556270" opacity="1.00" d=" M 1.00 11.00 C 2.33 11.00 3.67 11.00 5.00 11.00 C 5.00 12.33 5.00 13.67 5.00 15.00 C 3.67 15.00 2.33 15.00 1.00 15.00 C 1.00 13.67 1.00 12.33 1.00 11.00 Z" />
</g>
<g id="#4ecdc4ff">
<path fill="#4ecdc4" opacity="1.00" d=" M 6.00 1.00 C 7.33 1.00 8.67 1.00 10.00 1.00 C 10.00 2.33 10.00 3.67 10.00 5.00 C 8.67 5.00 7.33 5.00 6.00 5.00 C 6.00 3.67 6.00 2.33 6.00 1.00 Z" />
<path fill="#4ecdc4" opacity="1.00" d=" M 6.00 6.00 C 7.33 6.00 8.67 6.00 10.00 6.00 C 10.00 7.33 10.00 8.67 10.00 10.00 C 8.67 10.00 7.33 10.00 6.00 10.00 C 6.00 8.67 6.00 7.33 6.00 6.00 Z" />
</g>
<g id="#c7f364ff">
<path fill="#c7f364" opacity="1.00" d=" M 11.00 1.00 C 12.33 1.00 13.67 1.00 15.00 1.00 C 15.00 2.33 15.00 3.67 15.00 5.00 C 13.67 5.00 12.33 5.00 11.00 5.00 C 11.00 3.67 11.00 2.33 11.00 1.00 Z" />
<path fill="#c7f364" opacity="1.00" d=" M 11.00 6.00 C 12.33 6.00 13.67 6.00 15.00 6.00 C 15.00 7.33 15.00 8.67 15.00 10.00 C 13.67 10.00 12.33 10.00 11.00 10.00 C 11.00 8.67 11.00 7.33 11.00 6.00 Z" />
</g>
<g id="#ff6b6bff">
<path fill="#ff6b6b" opacity="1.00" d=" M 6.00 11.00 C 7.33 11.00 8.67 11.00 10.00 11.00 C 10.00 12.33 10.00 13.67 10.00 15.00 C 8.67 15.00 7.33 15.00 6.00 15.00 C 6.00 13.67 6.00 12.33 6.00 11.00 Z" />
</g>
<g id="#c44d58ff">
<path fill="#c44d58" opacity="1.00" d=" M 11.00 11.00 C 12.33 11.00 13.67 11.00 15.00 11.00 C 15.00 12.33 15.00 13.67 15.00 15.00 C 13.67 15.00 12.33 15.00 11.00 15.00 C 11.00 13.67 11.00 12.33 11.00 11.00 Z" />
</g>
</svg>
