<?xml version="1.0" encoding="UTF-8" ?>
<!DOCTYPE svg PUBLIC "-//W3C//DTD SVG 1.1//EN" "http://www.w3.org/Graphics/SVG/1.1/DTD/svg11.dtd">
<svg width="48pt" height="48pt" viewBox="0 0 48 48" version="1.1" xmlns="http://www.w3.org/2000/svg">
<g id="#d61157ff">
<path fill="#d61157" opacity="1.00" d=" M 0.00 7.66 C 0.83 7.37 1.66 7.10 2.51 6.85 C 3.05 8.27 3.10 9.96 4.14 11.15 C 6.41 11.90 8.83 11.21 11.17 11.26 C 11.76 11.34 12.93 11.51 13.52 11.59 C 14.75 13.54 12.81 15.14 11.77 16.59 C 13.69 17.45 15.79 17.70 17.82 18.17 C 19.75 20.37 21.11 23.35 24.27 23.99 C 24.36 24.54 24.53 25.64 24.62 26.19 C 24.79 27.67 25.63 28.21 27.14 27.80 C 27.59 27.76 28.47 27.67 28.91 27.63 C 29.23 28.25 29.87 29.49 30.19 30.12 C 27.85 30.12 25.52 30.14 23.18 30.18 C 23.18 32.07 23.21 33.96 23.27 35.84 C 24.96 35.83 26.65 35.82 28.34 35.81 C 26.84 37.91 24.95 40.30 22.03 39.91 C 19.29 40.23 17.51 37.99 15.80 36.27 C 17.70 35.97 19.76 36.24 21.57 35.47 C 22.42 34.04 22.43 31.94 21.58 30.50 C 19.63 29.71 17.41 30.23 15.36 30.09 C 15.25 28.80 15.12 27.51 14.98 26.22 C 13.74 26.53 12.49 26.86 11.25 27.19 C 11.00 27.97 10.50 29.55 10.24 30.34 C 8.46 30.33 6.67 30.32 4.89 30.31 C 4.90 32.12 4.88 33.93 4.92 35.74 C 5.66 35.76 7.14 35.80 7.88 35.82 C 7.22 37.68 6.55 39.53 5.85 41.37 C 3.90 41.33 1.95 41.18 0.00 40.97 L 0.00 30.37 C 2.27 27.40 5.02 24.02 4.56 20.04 C 4.29 17.47 1.90 16.10 0.00 14.77 L 0.00 7.66 Z" />
</g>
<g id="#0ee0e5ff">
<path fill="#0ee0e5" opacity="1.00" d=" M 2.51 6.85 C 4.69 6.77 6.87 6.77 9.05 6.78 C 9.75 8.27 10.46 9.77 11.17 11.26 C 8.83 11.21 6.41 11.90 4.14 11.15 C 3.10 9.96 3.05 8.27 2.51 6.85 Z" />
<path fill="#0ee0e5" opacity="1.00" d=" M 25.90 6.80 C 32.16 6.84 38.43 6.72 44.69 6.86 C 45.79 7.59 46.89 8.34 47.99 9.08 C 46.07 10.07 44.09 10.94 42.11 11.82 C 40.17 11.42 38.22 11.10 36.27 10.81 C 35.01 12.27 33.57 13.59 31.64 14.10 C 31.19 11.90 28.99 11.23 27.25 10.32 C 26.79 9.15 26.34 7.98 25.90 6.80 Z" />
<path fill="#0ee0e5" opacity="1.00" d=" M 15.52 10.34 C 17.39 10.56 19.73 10.68 20.16 12.97 C 20.28 15.52 17.39 15.07 15.69 15.27 C 15.63 13.63 15.57 11.99 15.52 10.34 Z" />
<path fill="#0ee0e5" opacity="1.00" d=" M 36.40 11.68 C 37.83 11.67 39.25 11.83 40.68 11.92 C 42.17 13.31 43.71 14.63 45.07 16.14 C 46.02 18.15 43.86 19.48 42.88 20.93 C 42.52 22.98 42.66 25.38 41.02 26.95 C 39.31 29.14 36.30 28.60 33.89 29.00 C 33.40 29.24 32.43 29.73 31.94 29.98 C 29.47 26.25 30.99 21.53 29.10 17.59 C 29.94 16.90 30.77 16.20 31.60 15.50 C 32.08 15.41 33.04 15.23 33.52 15.14 C 34.42 13.97 35.00 12.37 36.40 11.68 Z" />
<path fill="#0ee0e5" opacity="1.00" d=" M 0.00 14.77 C 1.90 16.10 4.29 17.47 4.56 20.04 C 5.02 24.02 2.27 27.40 0.00 30.37 L 0.00 14.77 Z" />
<path fill="#0ee0e5" opacity="1.00" d=" M 24.62 26.19 C 26.25 25.55 27.09 26.09 27.14 27.80 C 25.63 28.21 24.79 27.67 24.62 26.19 Z" />
</g>
<g id="#07aeb2ff">
<path fill="#07aeb2" opacity="1.00" d=" M 9.05 6.78 C 14.66 6.80 20.28 6.78 25.90 6.80 C 26.34 7.98 26.79 9.15 27.25 10.32 C 28.99 11.23 31.19 11.90 31.64 14.10 C 31.62 14.56 31.61 15.03 31.60 15.50 C 30.77 16.20 29.94 16.90 29.10 17.59 C 30.99 21.53 29.47 26.25 31.94 29.98 C 31.74 30.07 31.34 30.25 31.14 30.34 C 28.92 30.89 26.45 30.37 24.37 31.35 C 23.58 32.70 23.66 34.36 23.27 35.84 C 23.21 33.96 23.18 32.07 23.18 30.18 C 25.52 30.14 27.85 30.12 30.19 30.12 C 29.87 29.49 29.23 28.25 28.91 27.63 C 28.47 27.67 27.59 27.76 27.14 27.80 C 27.09 26.09 26.25 25.55 24.62 26.19 C 24.53 25.64 24.36 24.54 24.27 23.99 C 21.11 23.35 19.75 20.37 17.82 18.17 C 15.79 17.70 13.69 17.45 11.77 16.59 C 12.81 15.14 14.75 13.54 13.52 11.59 C 12.93 11.51 11.76 11.34 11.17 11.26 C 10.46 9.77 9.75 8.27 9.05 6.78 M 15.52 10.34 C 15.57 11.99 15.63 13.63 15.69 15.27 C 17.39 15.07 20.28 15.52 20.16 12.97 C 19.73 10.68 17.39 10.56 15.52 10.34 Z" />
</g>
<g id="#000000ff">
<path fill="#000000" opacity="1.00" d=" M 44.69 6.86 C 45.52 6.99 47.17 7.27 48.00 7.41 L 48.00 30.32 C 45.96 30.31 43.92 30.32 41.88 30.32 C 41.86 32.14 41.84 33.95 41.83 35.77 C 43.88 35.79 45.94 35.80 48.00 35.80 L 48.00 40.39 C 46.47 41.23 44.74 41.44 43.02 41.39 C 30.63 41.32 18.24 41.35 5.85 41.37 C 6.55 39.53 7.22 37.68 7.88 35.82 C 9.43 35.83 10.97 35.82 12.52 35.82 C 12.55 34.00 12.57 32.18 12.60 30.35 C 12.01 30.35 10.83 30.34 10.24 30.34 C 10.50 29.55 11.00 27.97 11.25 27.19 C 12.49 26.86 13.74 26.53 14.98 26.22 C 15.12 27.51 15.25 28.80 15.36 30.09 C 17.41 30.23 19.63 29.71 21.58 30.50 C 22.43 31.94 22.42 34.04 21.57 35.47 C 19.76 36.24 17.70 35.97 15.80 36.27 C 17.51 37.99 19.29 40.23 22.03 39.91 C 24.95 40.30 26.84 37.91 28.34 35.81 C 29.05 35.80 30.47 35.77 31.18 35.75 C 31.17 33.95 31.16 32.14 31.14 30.34 C 31.34 30.25 31.74 30.07 31.94 29.98 C 32.43 29.73 33.40 29.24 33.89 29.00 C 36.30 28.60 39.31 29.14 41.02 26.95 C 42.66 25.38 42.52 22.98 42.88 20.93 C 43.86 19.48 46.02 18.15 45.07 16.14 C 43.71 14.63 42.17 13.31 40.68 11.92 C 39.25 11.83 37.83 11.67 36.40 11.68 C 35.00 12.37 34.42 13.97 33.52 15.14 C 33.04 15.23 32.08 15.41 31.60 15.50 C 31.61 15.03 31.62 14.56 31.64 14.10 C 33.57 13.59 35.01 12.27 36.27 10.81 C 38.22 11.10 40.17 11.42 42.11 11.82 C 44.09 10.94 46.07 10.07 47.99 9.08 C 46.89 8.34 45.79 7.59 44.69 6.86 M 32.53 30.37 C 32.59 32.19 32.63 34.00 32.68 35.82 C 35.24 35.79 37.79 35.79 40.35 35.81 C 40.37 34.00 40.41 32.19 40.44 30.38 C 37.80 30.30 35.17 30.30 32.53 30.37 M 14.40 30.37 C 14.24 32.21 14.16 34.05 14.14 35.90 C 16.50 35.21 21.65 36.83 21.55 33.00 C 21.65 29.17 16.70 31.10 14.40 30.37 Z" />
</g>
<g id="#ffffffff">
<path fill="#ffffff" opacity="1.00" d=" M 4.89 30.31 C 6.67 30.32 8.46 30.33 10.24 30.34 C 10.83 30.34 12.01 30.35 12.60 30.35 C 12.57 32.18 12.55 34.00 12.52 35.82 C 10.97 35.82 9.43 35.83 7.88 35.82 C 7.14 35.80 5.66 35.76 4.92 35.74 C 4.88 33.93 4.90 32.12 4.89 30.31 Z" />
<path fill="#ffffff" opacity="1.00" d=" M 32.53 30.37 C 35.17 30.30 37.80 30.30 40.44 30.38 C 40.41 32.19 40.37 34.00 40.35 35.81 C 37.79 35.79 35.24 35.79 32.68 35.82 C 32.63 34.00 32.59 32.19 32.53 30.37 Z" />
<path fill="#ffffff" opacity="1.00" d=" M 41.88 30.32 C 43.92 30.32 45.96 30.31 48.00 30.32 L 48.00 35.80 C 45.94 35.80 43.88 35.79 41.83 35.77 C 41.84 33.95 41.86 32.14 41.88 30.32 Z" />
<path fill="#ffffff" opacity="1.00" d=" M 14.40 30.37 C 16.70 31.10 21.65 29.17 21.55 33.00 C 21.65 36.83 16.50 35.21 14.14 35.90 C 14.16 34.05 14.24 32.21 14.40 30.37 Z" />
<path fill="#ffffff" opacity="1.00" d=" M 24.37 31.35 C 26.45 30.37 28.92 30.89 31.14 30.34 C 31.16 32.14 31.17 33.95 31.18 35.75 C 30.47 35.77 29.05 35.80 28.34 35.81 C 26.65 35.82 24.96 35.83 23.27 35.84 C 23.66 34.36 23.58 32.70 24.37 31.35 Z" />
</g>
</svg>
