<?xml version="1.0" encoding="UTF-8" ?>
<!DOCTYPE svg PUBLIC "-//W3C//DTD SVG 1.1//EN" "http://www.w3.org/Graphics/SVG/1.1/DTD/svg11.dtd">
<svg width="32pt" height="32pt" viewBox="0 0 32 32" version="1.1" xmlns="http://www.w3.org/2000/svg">
<g id="#202125ff">
<path fill="#202125" opacity="1.00" d=" M 0.00 0.00 L 32.00 0.00 L 32.00 32.00 L 0.00 32.00 L 0.00 16.25 C 1.00 16.56 2.00 16.87 2.99 17.18 C 3.91 16.68 4.82 16.18 5.74 15.68 C 5.52 13.85 5.00 12.04 5.15 10.19 C 6.76 6.60 10.41 3.94 14.32 3.48 C 13.58 11.12 8.32 17.41 7.48 25.02 C 7.63 26.82 8.07 29.52 10.26 29.81 C 12.43 30.29 14.11 28.41 15.84 27.43 C 16.87 28.55 17.92 29.64 19.01 30.71 C 23.81 27.96 25.97 22.62 27.85 17.71 C 29.39 12.83 31.44 7.87 31.36 2.70 L 30.16 1.96 C 27.20 9.93 25.91 19.13 19.21 25.08 C 18.39 18.64 23.13 13.26 22.76 6.85 C 19.24 8.35 19.08 12.68 17.99 15.84 C 17.28 19.64 15.73 23.27 12.80 25.90 C 12.55 25.16 12.05 23.67 11.80 22.93 C 12.52 15.88 16.85 9.40 16.15 2.22 C 8.95 1.20 3.40 6.86 0.00 12.50 L 0.00 0.00 Z" />
</g>
<g id="#fefefeff">
<path fill="#fefefe" opacity="1.00" d=" M 0.00 12.50 C 3.40 6.86 8.95 1.20 16.15 2.22 C 16.85 9.40 12.52 15.88 11.80 22.93 C 12.05 23.67 12.55 25.16 12.80 25.90 C 15.73 23.27 17.28 19.64 17.99 15.84 C 19.08 12.68 19.24 8.35 22.76 6.85 C 23.13 13.26 18.39 18.64 19.21 25.08 C 25.91 19.13 27.20 9.93 30.16 1.96 L 31.36 2.70 C 31.44 7.87 29.39 12.83 27.85 17.71 C 25.97 22.62 23.81 27.96 19.01 30.71 C 17.92 29.64 16.87 28.55 15.84 27.43 C 14.11 28.41 12.43 30.29 10.26 29.81 C 8.07 29.52 7.63 26.82 7.48 25.02 C 8.32 17.41 13.58 11.12 14.32 3.48 C 10.41 3.94 6.76 6.60 5.15 10.19 C 5.00 12.04 5.52 13.85 5.74 15.68 C 4.82 16.18 3.91 16.68 2.99 17.18 C 2.00 16.87 1.00 16.56 0.00 16.25 L 0.00 12.50 Z" />
</g>
</svg>
