<?xml version="1.0" encoding="UTF-8" ?>
<!DOCTYPE svg PUBLIC "-//W3C//DTD SVG 1.1//EN" "http://www.w3.org/Graphics/SVG/1.1/DTD/svg11.dtd">
<svg width="16pt" height="16pt" viewBox="0 0 16 16" version="1.1" xmlns="http://www.w3.org/2000/svg">
<g id="#e1caa4ff">
<path fill="#e1caa4" opacity="1.00" d=" M 0.00 0.00 L 6.31 0.00 C 7.22 1.13 8.11 2.28 8.97 3.45 C 8.11 3.91 7.23 4.35 6.35 4.79 C 6.34 4.22 6.33 3.09 6.32 2.53 C 6.04 0.62 3.17 1.78 3.97 3.40 C 4.12 3.81 4.43 4.64 4.58 5.05 C 4.80 5.35 5.23 5.95 5.45 6.25 C 3.62 5.95 1.79 5.61 0.00 5.13 L 0.00 0.00 Z" />
</g>
<g id="#e2ccafff">
<path fill="#e2ccaf" opacity="1.00" d=" M 6.31 0.00 L 8.28 0.00 C 10.99 1.55 13.62 3.25 16.00 5.27 L 16.00 6.09 C 15.01 6.40 14.02 6.70 13.03 7.01 C 14.13 5.35 11.25 3.96 10.77 5.95 C 10.18 5.11 9.58 4.27 8.97 3.45 C 8.11 2.28 7.22 1.13 6.31 0.00 Z" />
</g>
<g id="#f9e8d3ff">
<path fill="#f9e8d3" opacity="1.00" d=" M 8.28 0.00 L 16.00 0.00 L 16.00 5.27 C 13.62 3.25 10.99 1.55 8.28 0.00 Z" />
</g>
<g id="#927c60ff">
<path fill="#927c60" opacity="1.00" d=" M 3.97 3.40 C 3.17 1.78 6.04 0.62 6.32 2.53 C 5.73 2.75 4.56 3.18 3.97 3.40 Z" />
</g>
<g id="#4f3f33ff">
<path fill="#4f3f33" opacity="1.00" d=" M 3.97 3.40 C 4.56 3.18 5.73 2.75 6.32 2.53 C 6.33 3.09 6.34 4.22 6.35 4.79 C 5.91 4.85 5.02 4.98 4.58 5.05 C 4.43 4.64 4.12 3.81 3.97 3.40 Z" />
</g>
<g id="#f4e6cdff">
<path fill="#f4e6cd" opacity="1.00" d=" M 8.97 3.45 C 9.58 4.27 10.18 5.11 10.77 5.95 C 11.12 6.28 11.82 6.94 12.17 7.27 L 13.03 7.01 C 14.02 6.70 15.01 6.40 16.00 6.09 L 16.00 8.81 C 15.22 9.28 14.43 9.72 13.63 10.14 C 12.83 10.22 11.25 10.37 10.46 10.45 C 9.82 9.21 9.18 7.97 8.54 6.73 C 7.51 6.58 6.48 6.43 5.45 6.25 C 5.23 5.95 4.80 5.35 4.58 5.05 C 5.02 4.98 5.91 4.85 6.35 4.79 C 7.23 4.35 8.11 3.91 8.97 3.45 Z" />
</g>
<g id="#c9b185ff">
<path fill="#c9b185" opacity="1.00" d=" M 0.00 5.13 C 1.79 5.61 3.62 5.95 5.45 6.25 C 6.48 6.43 7.51 6.58 8.54 6.73 C 7.47 7.79 6.42 8.85 5.38 9.93 C 4.92 9.85 4.00 9.67 3.55 9.58 C 3.86 10.60 4.17 11.61 4.49 12.62 C 4.84 13.75 5.21 14.87 5.57 16.00 L 0.00 16.00 L 0.00 5.13 Z" />
</g>
<g id="#51433cff">
<path fill="#51433c" opacity="1.00" d=" M 10.77 5.95 C 11.25 3.96 14.13 5.35 13.03 7.01 L 12.17 7.27 C 11.82 6.94 11.12 6.28 10.77 5.95 Z" />
</g>
<g id="#312a27fe">
<path fill="#312a27" opacity="1.00" d=" M 5.38 9.93 C 6.42 8.85 7.47 7.79 8.54 6.73 C 9.18 7.97 9.82 9.21 10.46 10.45 C 10.05 10.46 9.22 10.49 8.81 10.51 C 7.66 10.34 6.52 10.15 5.38 9.93 Z" />
</g>
<g id="#7c3333ff">
<path fill="#7c3333" opacity="1.00" d=" M 3.55 9.58 C 4.00 9.67 4.92 9.85 5.38 9.93 C 6.52 10.15 7.66 10.34 8.81 10.51 C 9.43 10.60 10.66 10.80 11.28 10.89 C 10.31 11.93 9.35 12.97 8.37 14.00 C 7.08 13.54 5.78 13.08 4.49 12.62 C 4.17 11.61 3.86 10.60 3.55 9.58 Z" />
</g>
<g id="#e3cea8ff">
<path fill="#e3cea8" opacity="1.00" d=" M 13.63 10.14 C 14.43 9.72 15.22 9.28 16.00 8.81 L 16.00 16.00 L 9.47 16.00 C 10.97 14.13 12.33 12.16 13.63 10.14 Z" />
</g>
<g id="#c3a67bff">
<path fill="#c3a67b" opacity="1.00" d=" M 8.81 10.51 C 9.22 10.49 10.05 10.46 10.46 10.45 C 11.25 10.37 12.83 10.22 13.63 10.14 C 12.33 12.16 10.97 14.13 9.47 16.00 L 6.38 16.00 C 6.88 15.50 7.87 14.50 8.37 14.00 C 9.35 12.97 10.31 11.93 11.28 10.89 C 10.66 10.80 9.43 10.60 8.81 10.51 Z" />
</g>
<g id="#4f3832ff">
<path fill="#4f3832" opacity="1.00" d=" M 4.49 12.62 C 5.78 13.08 7.08 13.54 8.37 14.00 C 7.87 14.50 6.88 15.50 6.38 16.00 L 5.57 16.00 C 5.21 14.87 4.84 13.75 4.49 12.62 Z" />
</g>
</svg>
