<?xml version="1.0" encoding="UTF-8" ?>
<!DOCTYPE svg PUBLIC "-//W3C//DTD SVG 1.1//EN" "http://www.w3.org/Graphics/SVG/1.1/DTD/svg11.dtd">
<svg width="57pt" height="57pt" viewBox="0 0 57 57" version="1.1" xmlns="http://www.w3.org/2000/svg">
<g id="#dd4814ff">
<path fill="#dd4814" opacity="1.00" d=" M 0.00 0.00 L 57.00 0.00 L 57.00 57.00 L 0.00 57.00 L 0.00 0.00 M 10.55 14.03 C 10.25 21.37 10.45 28.74 10.45 36.08 C 10.25 40.30 13.31 43.60 16.38 46.04 C 17.90 41.85 17.09 37.35 17.26 33.01 C 17.14 26.67 17.53 20.31 17.10 13.98 C 16.68 10.45 10.93 10.58 10.55 14.03 M 39.84 14.99 C 39.65 22.98 39.89 30.99 39.75 38.99 C 39.65 41.38 39.88 43.78 40.63 46.06 C 43.47 43.76 46.48 40.87 46.55 36.93 C 46.76 30.28 46.56 23.63 46.65 16.98 C 46.54 15.21 46.95 12.79 44.95 11.91 C 42.78 10.29 39.65 12.41 39.84 14.99 M 26.39 27.47 C 24.90 28.42 25.35 30.50 25.18 32.00 C 25.27 35.86 24.88 39.77 25.49 43.59 C 26.52 46.33 31.34 46.03 31.70 42.98 C 32.01 38.62 31.90 34.22 31.77 29.85 C 31.98 27.17 28.26 25.61 26.39 27.47 Z" />
</g>
<g id="#fefefeff">
<path fill="#fefefe" opacity="1.00" d=" M 10.55 14.03 C 10.93 10.58 16.68 10.45 17.10 13.98 C 17.53 20.31 17.14 26.67 17.26 33.01 C 17.09 37.35 17.90 41.85 16.38 46.04 C 13.31 43.60 10.25 40.30 10.45 36.08 C 10.45 28.74 10.25 21.37 10.55 14.03 Z" />
<path fill="#fefefe" opacity="1.00" d=" M 39.84 14.99 C 39.65 12.41 42.78 10.29 44.95 11.91 C 46.95 12.79 46.54 15.21 46.65 16.98 C 46.56 23.63 46.76 30.28 46.55 36.93 C 46.48 40.87 43.47 43.76 40.63 46.06 C 39.88 43.78 39.65 41.38 39.75 38.99 C 39.89 30.99 39.65 22.98 39.84 14.99 Z" />
<path fill="#fefefe" opacity="1.00" d=" M 26.39 27.47 C 28.26 25.61 31.98 27.17 31.77 29.85 C 31.90 34.22 32.01 38.62 31.70 42.98 C 31.34 46.03 26.52 46.33 25.49 43.59 C 24.88 39.77 25.27 35.86 25.18 32.00 C 25.35 30.50 24.90 28.42 26.39 27.47 Z" />
</g>
</svg>
