<?xml version="1.0" encoding="UTF-8" ?>
<!DOCTYPE svg PUBLIC "-//W3C//DTD SVG 1.1//EN" "http://www.w3.org/Graphics/SVG/1.1/DTD/svg11.dtd">
<svg width="180pt" height="180pt" viewBox="0 0 180 180" version="1.1" xmlns="http://www.w3.org/2000/svg">
<g id="#000000ff">
<path fill="#000000" opacity="1.00" d=" M 12.56 21.54 C 17.64 16.92 23.90 13.52 30.58 11.94 C 28.72 14.27 26.17 15.88 24.07 17.97 C 21.61 20.87 21.13 25.19 22.36 28.72 C 24.12 32.72 28.14 35.22 29.76 39.31 C 31.56 43.88 31.08 48.92 31.19 53.72 C 36.93 47.61 42.68 41.52 48.43 35.42 C 54.50 41.41 60.53 47.45 66.61 53.44 C 72.31 47.43 78.01 41.42 83.73 35.41 C 89.25 40.90 94.79 46.35 100.28 51.86 C 100.25 70.23 100.27 88.60 100.26 106.97 C 90.13 116.42 79.99 125.86 69.85 135.30 C 62.99 129.35 56.17 123.37 49.32 117.42 C 44.10 123.37 38.89 129.34 33.67 135.30 C 26.57 129.13 19.44 122.98 12.39 116.76 C 12.42 106.98 12.41 97.21 12.39 87.43 C 10.03 87.64 7.57 87.49 5.31 88.31 C 3.50 89.73 2.31 91.77 0.86 93.54 C 0.55 91.61 0.21 89.68 0.00 87.73 L 0.00 85.18 C 0.72 81.95 1.65 78.50 4.18 76.18 C 6.34 73.99 9.53 73.56 12.39 72.89 C 12.31 64.94 12.63 56.97 12.27 49.03 C 12.21 43.71 7.31 40.13 6.75 34.96 C 6.21 29.83 8.93 24.96 12.56 21.54 M 31.12 61.00 C 31.19 76.92 31.14 92.84 31.16 108.76 C 35.34 112.40 39.53 116.03 43.72 119.65 C 45.26 117.89 46.80 116.12 48.31 114.34 C 48.25 96.53 48.30 78.73 48.29 60.92 C 44.86 57.48 41.41 54.05 37.96 50.64 C 35.44 53.89 30.31 56.19 31.12 61.00 M 73.38 50.62 C 71.27 52.76 69.15 54.90 67.04 57.04 C 67.06 74.25 67.00 91.46 67.06 108.67 C 71.96 112.92 76.76 117.27 81.64 121.53 C 81.70 101.69 81.61 81.85 81.69 62.02 C 81.57 60.74 81.96 59.18 80.85 58.22 C 78.50 55.56 75.84 53.19 73.38 50.62 Z" />
<path fill="#000000" opacity="1.00" d=" M 107.34 51.92 C 112.82 46.22 118.25 40.47 123.79 34.82 C 128.38 39.09 132.93 43.40 137.60 47.59 C 137.69 52.53 137.66 57.46 137.68 62.40 C 139.10 60.87 140.53 59.33 141.96 57.80 C 141.96 52.04 141.95 46.28 141.97 40.52 C 142.67 40.51 144.07 40.51 144.77 40.51 C 144.77 45.25 144.76 50.00 144.78 54.74 C 150.97 48.12 157.10 41.45 163.27 34.81 C 168.82 40.03 174.56 45.05 180.00 50.39 L 180.00 115.62 C 171.41 122.20 162.82 128.78 154.22 135.35 C 151.54 132.45 148.41 129.99 144.82 128.33 C 144.69 138.94 144.82 149.54 144.75 160.15 C 141.93 157.54 139.13 154.91 136.33 152.28 C 130.51 157.70 124.75 163.17 118.90 168.55 C 118.81 154.93 118.93 141.30 118.83 127.68 C 112.41 129.36 107.57 133.89 102.61 138.01 C 102.74 127.55 108.70 117.03 118.84 113.39 C 118.88 103.61 118.89 93.82 118.83 84.04 C 116.19 84.37 113.15 84.03 110.96 85.86 C 109.20 87.44 108.05 89.55 106.66 91.43 C 104.23 85.84 104.34 78.44 108.99 74.01 C 111.60 71.38 115.41 70.99 118.88 70.47 C 118.86 65.12 118.88 59.77 118.84 54.41 C 117.06 52.84 115.30 51.27 113.53 49.69 C 112.14 51.09 110.75 52.49 109.37 53.89 C 108.86 53.40 107.84 52.41 107.34 51.92 M 144.73 60.97 C 144.82 77.97 144.74 94.96 144.78 111.96 C 151.00 112.87 156.94 115.46 161.36 120.02 C 161.32 99.06 161.38 78.10 161.33 57.14 C 158.42 54.49 155.54 51.82 152.72 49.08 C 149.88 52.85 144.10 55.58 144.73 60.97 M 137.67 65.12 C 137.68 93.36 137.60 121.60 137.71 149.83 C 139.14 151.13 140.55 152.45 141.97 153.76 C 141.95 122.73 141.97 91.69 141.95 60.66 C 140.52 62.15 139.10 63.64 137.67 65.12 Z" />
</g>
</svg>
