<?xml version="1.0" encoding="UTF-8" ?>
<!DOCTYPE svg PUBLIC "-//W3C//DTD SVG 1.1//EN" "http://www.w3.org/Graphics/SVG/1.1/DTD/svg11.dtd">
<svg width="152pt" height="152pt" viewBox="0 0 152 152" version="1.1" xmlns="http://www.w3.org/2000/svg">
<g id="#ffffffff">
<path fill="#ffffff" opacity="1.00" d=" M 0.00 0.00 L 152.00 0.00 L 152.00 152.00 L 0.00 152.00 L 0.00 0.00 M 54.43 12.38 C 42.39 19.43 34.18 32.90 34.14 46.94 C 33.78 55.84 36.55 64.82 41.83 71.99 C 47.91 79.12 50.27 88.47 54.90 96.49 C 53.00 96.55 52.09 97.52 52.17 99.42 C 53.12 99.38 55.02 99.30 55.97 99.26 C 58.94 105.68 61.75 112.16 64.78 118.54 C 63.86 118.55 62.03 118.57 61.11 118.58 C 63.62 127.54 65.99 136.54 68.53 145.49 C 73.89 145.28 79.28 145.78 84.62 145.25 C 87.34 136.41 89.63 127.43 92.34 118.58 C 91.52 118.58 89.87 118.57 89.05 118.57 C 93.94 105.45 98.62 92.25 103.41 79.09 C 104.31 76.33 107.03 74.84 108.73 72.63 C 118.45 61.18 119.94 43.97 113.53 30.57 C 108.07 18.80 96.85 9.92 84.12 7.40 C 74.06 5.32 63.26 7.11 54.43 12.38 Z" />
<path fill="#ffffff" opacity="1.00" d=" M 48.85 21.04 C 54.43 15.74 61.46 12.16 68.97 10.55 C 64.27 14.94 59.78 19.66 56.58 25.29 C 53.87 24.13 51.30 22.67 48.85 21.04 Z" />
<path fill="#ffffff" opacity="1.00" d=" M 81.05 10.37 C 88.60 11.62 95.76 14.94 101.50 20.02 C 98.89 21.64 96.24 23.17 93.60 24.73 C 90.02 19.44 85.85 14.59 81.05 10.37 Z" />
<path fill="#ffffff" opacity="1.00" d=" M 77.12 11.91 C 82.22 15.88 86.63 20.69 90.15 26.11 C 85.95 27.62 81.61 28.80 77.13 29.00 C 77.11 23.31 77.13 17.61 77.12 11.91 Z" />
<path fill="#ffffff" opacity="1.00" d=" M 59.93 26.79 C 63.30 20.90 68.19 16.07 73.38 11.78 C 73.45 17.64 73.42 23.49 73.41 29.34 C 68.84 28.94 64.28 28.28 59.93 26.79 Z" />
<path fill="#ffffff" opacity="1.00" d=" M 95.10 27.80 C 98.18 26.23 101.17 24.49 104.03 22.54 C 109.82 29.11 113.42 37.54 113.84 46.32 C 109.04 46.33 104.24 46.29 99.44 46.36 C 99.45 39.94 98.05 33.52 95.10 27.80 Z" />
<path fill="#ffffff" opacity="1.00" d=" M 46.28 23.74 C 49.07 25.45 51.91 27.09 54.85 28.56 C 52.34 34.13 51.01 40.20 51.23 46.33 C 46.66 46.31 42.09 46.33 37.51 46.31 C 38.08 38.09 41.21 30.22 46.28 23.74 Z" />
<path fill="#ffffff" opacity="1.00" d=" M 77.14 32.62 C 82.22 32.23 87.17 30.96 91.93 29.19 C 94.47 34.54 95.95 40.37 95.85 46.31 C 89.55 46.32 83.25 46.33 76.95 46.30 C 77.23 41.75 77.08 37.18 77.14 32.62 Z" />
<path fill="#ffffff" opacity="1.00" d=" M 58.06 30.02 C 63.07 31.48 68.19 32.69 73.44 32.74 C 73.41 37.27 73.42 41.80 73.42 46.33 C 67.17 46.31 60.92 46.34 54.67 46.31 C 54.65 40.70 55.85 35.17 58.06 30.02 Z" />
<path fill="#ffffff" opacity="1.00" d=" M 37.55 49.79 C 42.17 49.78 46.79 49.81 51.41 49.75 C 52.60 55.87 54.69 61.81 57.89 67.18 C 54.07 68.75 50.40 70.65 46.97 72.96 C 41.45 66.47 38.14 58.29 37.55 49.79 Z" />
<path fill="#ffffff" opacity="1.00" d=" M 55.13 49.79 C 61.22 49.78 67.32 49.80 73.42 49.77 C 73.43 54.62 73.41 59.46 73.43 64.30 C 69.31 64.42 65.25 65.10 61.24 65.95 C 58.36 60.92 56.10 55.52 55.13 49.79 Z" />
<path fill="#ffffff" opacity="1.00" d=" M 77.12 64.42 C 77.18 59.52 76.97 54.61 77.25 49.71 C 83.36 49.86 89.48 49.76 95.60 49.78 C 94.63 55.85 92.30 61.60 89.17 66.85 C 85.25 65.62 81.22 64.73 77.12 64.42 Z" />
<path fill="#ffffff" opacity="1.00" d=" M 92.49 68.10 C 95.97 62.49 98.02 56.16 99.34 49.73 C 104.16 49.83 108.98 49.78 113.81 49.78 C 113.36 58.78 109.62 67.57 103.32 74.02 C 99.90 71.72 96.28 69.73 92.49 68.10 Z" />
<path fill="#ffffff" opacity="1.00" d=" M 63.56 69.04 C 66.82 68.47 70.11 68.04 73.41 67.67 C 73.43 72.13 73.44 76.60 73.39 81.07 C 69.92 77.23 66.16 73.56 63.56 69.04 Z" />
<path fill="#ffffff" opacity="1.00" d=" M 77.15 67.94 C 80.44 68.33 83.74 68.77 86.91 69.80 C 84.44 74.35 80.55 77.92 77.14 81.77 C 77.11 77.16 77.09 72.55 77.15 67.94 Z" />
<path fill="#ffffff" opacity="1.00" d=" M 49.61 75.39 C 52.88 73.43 56.27 71.66 59.85 70.30 C 63.69 75.98 68.32 81.07 73.22 85.85 C 64.49 85.13 55.84 81.65 49.61 75.39 Z" />
<path fill="#ffffff" opacity="1.00" d=" M 90.57 71.12 C 94.11 72.62 97.49 74.48 100.76 76.49 C 94.47 82.04 86.31 85.27 77.97 85.88 C 82.56 81.31 86.95 76.51 90.57 71.12 Z" />
<path fill="#ffffff" opacity="1.00" d=" M 49.33 80.08 C 57.08 86.26 66.97 89.80 76.92 89.41 C 85.83 89.36 94.38 85.65 101.09 79.91 C 96.34 92.80 91.88 105.80 87.14 118.69 C 85.48 118.64 83.82 118.60 82.16 118.55 C 82.63 115.27 83.99 112.21 84.57 108.96 C 85.04 106.44 83.26 104.48 81.77 102.71 C 83.28 101.03 85.66 99.54 85.59 97.00 C 85.64 92.61 79.88 90.01 76.35 92.27 C 74.56 93.10 74.20 95.20 73.49 96.83 C 68.08 96.33 62.64 96.41 57.23 96.77 C 54.56 91.23 51.97 85.65 49.33 80.08 Z" />
<path fill="#ffffff" opacity="1.00" d=" M 69.67 98.74 C 70.89 98.61 72.11 98.48 73.33 98.35 C 73.70 99.65 74.09 100.94 74.47 102.23 C 74.96 102.72 75.95 103.69 76.44 104.18 C 73.58 104.47 70.88 103.42 68.34 102.25 C 68.79 101.08 69.23 99.91 69.67 98.74 Z" />
<path fill="#ffffff" opacity="1.00" d=" M 58.19 99.18 C 61.52 98.43 63.68 101.35 65.23 103.82 C 66.52 105.65 65.96 108.10 66.96 110.04 C 68.82 110.90 70.81 111.47 72.63 112.44 C 72.36 114.48 72.14 116.52 71.96 118.57 C 70.30 118.57 68.65 118.57 67.00 118.55 C 64.08 112.09 61.23 105.59 58.19 99.18 Z" />
</g>
<g id="#201f1fff">
<path fill="#201f1f" opacity="1.00" d=" M 54.43 12.38 C 63.26 7.11 74.06 5.32 84.12 7.40 C 96.85 9.92 108.07 18.80 113.53 30.57 C 119.94 43.97 118.45 61.18 108.73 72.63 C 107.03 74.84 104.31 76.33 103.41 79.09 C 98.62 92.25 93.94 105.45 89.05 118.57 C 89.87 118.57 91.52 118.58 92.34 118.58 C 89.63 127.43 87.34 136.41 84.62 145.25 C 79.28 145.78 73.89 145.28 68.53 145.49 C 65.99 136.54 63.62 127.54 61.11 118.58 C 62.03 118.57 63.86 118.55 64.78 118.54 C 61.75 112.16 58.94 105.68 55.97 99.26 C 55.02 99.30 53.12 99.38 52.17 99.42 C 52.09 97.52 53.00 96.55 54.90 96.49 C 50.27 88.47 47.91 79.12 41.83 71.99 C 36.55 64.82 33.78 55.84 34.14 46.94 C 34.18 32.90 42.39 19.43 54.43 12.38 M 48.85 21.04 C 51.30 22.67 53.87 24.13 56.58 25.29 C 59.78 19.66 64.27 14.94 68.97 10.55 C 61.46 12.16 54.43 15.74 48.85 21.04 M 81.05 10.37 C 85.85 14.59 90.02 19.44 93.60 24.73 C 96.24 23.17 98.89 21.64 101.50 20.02 C 95.76 14.94 88.60 11.62 81.05 10.37 M 77.12 11.91 C 77.13 17.61 77.11 23.31 77.13 29.00 C 81.61 28.80 85.95 27.62 90.15 26.11 C 86.63 20.69 82.22 15.88 77.12 11.91 M 59.93 26.79 C 64.28 28.28 68.84 28.94 73.41 29.34 C 73.42 23.49 73.45 17.64 73.38 11.78 C 68.19 16.07 63.30 20.90 59.93 26.79 M 95.10 27.80 C 98.05 33.52 99.45 39.94 99.44 46.36 C 104.24 46.29 109.04 46.33 113.84 46.32 C 113.42 37.54 109.82 29.11 104.03 22.54 C 101.17 24.49 98.18 26.23 95.10 27.80 M 46.28 23.74 C 41.21 30.22 38.08 38.09 37.51 46.31 C 42.09 46.33 46.66 46.31 51.23 46.33 C 51.01 40.20 52.34 34.13 54.85 28.56 C 51.91 27.09 49.07 25.45 46.28 23.74 M 77.14 32.62 C 77.08 37.18 77.23 41.75 76.95 46.30 C 83.25 46.33 89.55 46.32 95.85 46.31 C 95.95 40.37 94.47 34.54 91.93 29.19 C 87.17 30.96 82.22 32.23 77.14 32.62 M 58.06 30.02 C 55.85 35.17 54.65 40.70 54.67 46.31 C 60.92 46.34 67.17 46.31 73.42 46.33 C 73.42 41.80 73.41 37.27 73.44 32.74 C 68.19 32.69 63.07 31.48 58.06 30.02 M 37.55 49.79 C 38.14 58.29 41.45 66.47 46.97 72.96 C 50.40 70.65 54.07 68.75 57.89 67.18 C 54.69 61.81 52.60 55.87 51.41 49.75 C 46.79 49.81 42.17 49.78 37.55 49.79 M 55.13 49.79 C 56.10 55.52 58.36 60.92 61.24 65.95 C 65.25 65.10 69.31 64.42 73.43 64.30 C 73.41 59.46 73.43 54.62 73.42 49.77 C 67.32 49.80 61.22 49.78 55.13 49.79 M 77.12 64.42 C 81.22 64.73 85.25 65.62 89.17 66.85 C 92.30 61.60 94.63 55.85 95.60 49.78 C 89.48 49.76 83.36 49.86 77.25 49.71 C 76.97 54.61 77.18 59.52 77.12 64.42 M 92.49 68.10 C 96.28 69.73 99.90 71.72 103.32 74.02 C 109.62 67.57 113.36 58.78 113.81 49.78 C 108.98 49.78 104.16 49.83 99.34 49.73 C 98.02 56.16 95.97 62.49 92.49 68.10 M 63.56 69.04 C 66.16 73.56 69.92 77.23 73.39 81.07 C 73.44 76.60 73.43 72.13 73.41 67.67 C 70.11 68.04 66.82 68.47 63.56 69.04 M 77.15 67.94 C 77.09 72.55 77.11 77.16 77.14 81.77 C 80.55 77.92 84.44 74.35 86.91 69.80 C 83.74 68.77 80.44 68.33 77.15 67.94 M 49.61 75.39 C 55.84 81.65 64.49 85.13 73.22 85.85 C 68.32 81.07 63.69 75.98 59.85 70.30 C 56.27 71.66 52.88 73.43 49.61 75.39 M 90.57 71.12 C 86.95 76.51 82.56 81.31 77.97 85.88 C 86.31 85.27 94.47 82.04 100.76 76.49 C 97.49 74.48 94.11 72.62 90.57 71.12 M 49.33 80.08 C 51.97 85.65 54.56 91.23 57.23 96.77 C 62.64 96.41 68.08 96.33 73.49 96.83 C 74.20 95.20 74.56 93.10 76.35 92.27 C 79.88 90.01 85.64 92.61 85.59 97.00 C 85.66 99.54 83.28 101.03 81.77 102.71 C 83.26 104.48 85.04 106.44 84.57 108.96 C 83.99 112.21 82.63 115.27 82.16 118.55 C 83.82 118.60 85.48 118.64 87.14 118.69 C 91.88 105.80 96.34 92.80 101.09 79.91 C 94.38 85.65 85.83 89.36 76.92 89.41 C 66.97 89.80 57.08 86.26 49.33 80.08 M 69.67 98.74 C 69.23 99.91 68.79 101.08 68.34 102.25 C 70.88 103.42 73.58 104.47 76.44 104.18 C 75.95 103.69 74.96 102.72 74.47 102.23 C 74.09 100.94 73.70 99.65 73.33 98.35 C 72.11 98.48 70.89 98.61 69.67 98.74 M 58.19 99.18 C 61.23 105.59 64.08 112.09 67.00 118.55 C 68.65 118.57 70.30 118.57 71.96 118.57 C 72.14 116.52 72.36 114.48 72.63 112.44 C 70.81 111.47 68.82 110.90 66.96 110.04 C 65.96 108.10 66.52 105.65 65.23 103.82 C 63.68 101.35 61.52 98.43 58.19 99.18 Z" />
</g>
</svg>
