<?xml version="1.0" encoding="UTF-8" ?>
<!DOCTYPE svg PUBLIC "-//W3C//DTD SVG 1.1//EN" "http://www.w3.org/Graphics/SVG/1.1/DTD/svg11.dtd">
<svg width="32pt" height="32pt" viewBox="0 0 32 32" version="1.1" xmlns="http://www.w3.org/2000/svg">
<g id="#fefffeff">
<path fill="#fefffe" opacity="1.00" d=" M 0.00 0.00 L 32.00 0.00 L 32.00 32.00 L 28.22 32.00 C 25.42 28.68 23.26 24.64 23.67 20.16 C 24.60 20.18 26.47 20.23 27.40 20.25 C 27.46 19.02 28.02 17.70 27.48 16.52 C 25.99 15.76 24.42 15.19 22.95 14.38 C 24.48 14.07 26.01 13.76 27.54 13.47 C 28.57 10.70 28.41 7.77 27.11 5.11 C 26.03 6.30 25.24 8.41 23.25 7.43 C 23.50 5.92 24.71 4.93 25.69 3.86 C 23.58 3.23 21.44 3.13 19.34 3.83 C 20.25 4.84 21.20 5.83 21.92 7.01 C 21.46 7.34 20.54 8.02 20.08 8.35 C 19.41 7.24 18.71 6.15 17.99 5.07 C 17.61 8.47 16.44 13.79 21.13 14.63 C 18.00 17.57 17.08 21.75 17.79 25.90 C 15.47 25.76 15.35 23.57 14.94 21.81 C 14.34 21.24 13.73 20.69 13.12 20.14 C 14.38 19.71 15.66 19.34 16.85 18.75 C 17.06 16.28 15.47 14.14 14.76 11.86 C 14.17 12.62 13.00 14.15 12.41 14.91 C 12.50 13.04 12.65 11.18 12.86 9.32 C 14.52 11.23 15.86 13.40 17.54 15.29 C 17.38 12.39 15.78 9.97 13.73 8.05 C 15.02 6.27 17.26 3.55 14.66 1.84 C 14.27 3.50 14.24 5.43 12.55 6.35 C 12.65 4.91 12.78 3.47 12.92 2.03 C 8.98 1.29 6.17 4.83 4.95 8.12 C 5.88 7.65 6.80 7.16 7.70 6.64 C 8.24 7.08 9.32 7.96 9.86 8.39 C 7.61 10.53 5.34 13.26 5.54 16.56 C 7.92 14.84 8.65 11.65 10.42 9.37 C 10.33 11.34 12.28 16.20 8.37 14.91 C 9.26 15.92 10.08 16.98 10.91 18.04 C 10.35 18.38 9.22 19.06 8.66 19.40 C 8.16 18.23 7.62 17.09 7.02 15.97 C 6.55 21.30 5.70 26.65 6.46 32.00 L 0.00 32.00 L 0.00 0.00 M 28.31 23.71 C 27.86 24.21 26.98 25.22 26.54 25.72 L 26.85 23.24 C 26.14 23.48 24.73 23.94 24.02 24.18 C 24.73 26.38 28.21 28.58 29.68 25.92 C 29.68 23.75 28.24 19.21 25.20 21.96 C 26.15 22.67 27.22 23.21 28.31 23.71 Z" />
<path fill="#fefffe" opacity="1.00" d=" M 9.30 4.29 C 10.67 3.27 12.01 5.64 10.82 6.57 C 9.50 7.52 8.01 5.19 9.30 4.29 Z" />
<path fill="#fefffe" opacity="1.00" d=" M 18.94 10.34 C 19.83 10.05 20.72 9.76 21.61 9.49 C 21.57 10.04 21.49 11.16 21.45 11.71 C 20.20 12.36 19.51 11.31 18.94 10.34 Z" />
<path fill="#fefffe" opacity="1.00" d=" M 23.61 9.65 C 24.64 9.65 25.66 9.64 26.69 9.63 C 26.61 10.09 26.44 10.99 26.35 11.45 C 25.36 11.54 24.37 11.62 23.38 11.70 C 23.44 11.19 23.56 10.17 23.61 9.65 Z" />
<path fill="#fefffe" opacity="1.00" d=" M 12.44 16.32 C 13.39 14.86 15.96 16.56 14.85 17.96 C 13.81 19.35 11.23 17.82 12.44 16.32 Z" />
<path fill="#fefffe" opacity="1.00" d=" M 22.03 16.30 C 23.58 16.87 25.59 16.78 26.60 18.28 C 25.28 18.65 23.12 17.65 22.35 19.24 C 22.06 20.69 22.03 22.16 22.27 23.64 C 21.75 23.89 20.71 24.39 20.20 24.64 L 20.41 26.29 C 18.71 22.96 18.85 18.71 22.03 16.30 Z" />
<path fill="#fefffe" opacity="1.00" d=" M 8.65 20.51 C 10.95 20.32 12.72 21.91 14.51 23.06 C 13.18 23.54 11.98 24.20 10.89 25.05 C 10.55 27.53 11.71 29.87 12.83 32.00 L 8.36 32.00 C 8.14 29.16 7.94 26.31 7.85 23.47 C 8.53 23.46 9.90 23.44 10.59 23.43 C 10.10 22.70 9.14 21.24 8.65 20.51 Z" />
<path fill="#fefffe" opacity="1.00" d=" M 12.18 26.01 C 12.91 25.72 14.38 25.16 15.12 24.87 C 15.48 26.64 14.61 29.58 17.02 30.10 C 18.47 30.30 20.05 30.22 21.36 29.50 C 22.30 27.88 22.07 25.87 22.39 24.07 C 23.13 26.90 24.24 29.65 26.01 32.00 L 14.82 32.00 C 13.75 30.09 12.94 28.05 12.18 26.01 Z" />
<path fill="#fefffe" opacity="1.00" d=" M 17.61 27.21 C 18.88 26.35 19.59 26.59 19.74 27.92 C 18.48 28.77 17.77 28.53 17.61 27.21 Z" />
</g>
<g id="#060606ff">
<path fill="#060606" opacity="1.00" d=" M 4.95 8.12 C 6.17 4.83 8.98 1.29 12.92 2.03 C 12.78 3.47 12.65 4.91 12.55 6.35 C 14.24 5.43 14.27 3.50 14.66 1.84 C 17.26 3.55 15.02 6.27 13.73 8.05 C 15.78 9.97 17.38 12.39 17.54 15.29 C 15.86 13.40 14.52 11.23 12.86 9.32 C 12.65 11.18 12.50 13.04 12.41 14.91 C 13.00 14.15 14.17 12.62 14.76 11.86 C 15.47 14.14 17.06 16.28 16.85 18.75 C 15.66 19.34 14.38 19.71 13.12 20.14 C 13.73 20.69 14.34 21.24 14.94 21.81 C 15.35 23.57 15.47 25.76 17.79 25.90 C 17.08 21.75 18.00 17.57 21.13 14.63 C 16.44 13.79 17.61 8.47 17.99 5.07 C 18.71 6.15 19.41 7.24 20.08 8.35 C 20.54 8.02 21.46 7.34 21.92 7.01 C 21.20 5.83 20.25 4.84 19.34 3.83 C 21.44 3.13 23.58 3.23 25.69 3.86 C 24.71 4.93 23.50 5.92 23.25 7.43 C 25.24 8.41 26.03 6.30 27.11 5.11 C 28.41 7.77 28.57 10.70 27.54 13.47 C 26.01 13.76 24.48 14.07 22.95 14.38 C 24.42 15.19 25.99 15.76 27.48 16.52 C 28.02 17.70 27.46 19.02 27.40 20.25 C 26.47 20.23 24.60 20.18 23.67 20.16 C 23.26 24.64 25.42 28.68 28.22 32.00 L 26.01 32.00 C 24.24 29.65 23.13 26.90 22.39 24.07 C 22.07 25.87 22.30 27.88 21.36 29.50 C 20.05 30.22 18.47 30.30 17.02 30.10 C 14.61 29.58 15.48 26.64 15.12 24.87 C 14.38 25.16 12.91 25.72 12.18 26.01 C 12.94 28.05 13.75 30.09 14.82 32.00 L 12.83 32.00 C 11.71 29.87 10.55 27.53 10.89 25.05 C 11.98 24.20 13.18 23.54 14.51 23.06 C 12.72 21.91 10.95 20.32 8.65 20.51 C 9.14 21.24 10.10 22.70 10.59 23.43 C 9.90 23.44 8.53 23.46 7.85 23.47 C 7.94 26.31 8.14 29.16 8.36 32.00 L 6.46 32.00 C 5.70 26.65 6.55 21.30 7.02 15.97 C 7.62 17.09 8.16 18.23 8.66 19.40 C 9.22 19.06 10.35 18.38 10.91 18.04 C 10.08 16.98 9.26 15.92 8.37 14.91 C 12.28 16.20 10.33 11.34 10.42 9.37 C 8.65 11.65 7.92 14.84 5.54 16.56 C 5.34 13.26 7.61 10.53 9.86 8.39 C 9.32 7.96 8.24 7.08 7.70 6.64 C 6.80 7.16 5.88 7.65 4.95 8.12 M 9.30 4.29 C 8.01 5.19 9.50 7.52 10.82 6.57 C 12.01 5.64 10.67 3.27 9.30 4.29 M 18.94 10.34 C 19.51 11.31 20.20 12.36 21.45 11.71 C 21.49 11.16 21.57 10.04 21.61 9.49 C 20.72 9.76 19.83 10.05 18.94 10.34 M 23.61 9.65 C 23.56 10.17 23.44 11.19 23.38 11.70 C 24.37 11.62 25.36 11.54 26.35 11.45 C 26.44 10.99 26.61 10.09 26.69 9.63 C 25.66 9.64 24.64 9.65 23.61 9.65 M 12.44 16.32 C 11.23 17.82 13.81 19.35 14.85 17.96 C 15.96 16.56 13.39 14.86 12.44 16.32 M 22.03 16.30 C 18.85 18.71 18.71 22.96 20.41 26.29 L 20.20 24.64 C 20.71 24.39 21.75 23.89 22.27 23.64 C 22.03 22.16 22.06 20.69 22.35 19.24 C 23.12 17.65 25.28 18.65 26.60 18.28 C 25.59 16.78 23.58 16.87 22.03 16.30 M 17.61 27.21 C 17.77 28.53 18.48 28.77 19.74 27.92 C 19.59 26.59 18.88 26.35 17.61 27.21 Z" />
<path fill="#060606" opacity="1.00" d=" M 28.31 23.71 C 27.22 23.21 26.15 22.67 25.20 21.96 C 28.24 19.21 29.68 23.75 29.68 25.92 C 28.21 28.58 24.73 26.38 24.02 24.18 C 24.73 23.94 26.14 23.48 26.85 23.24 L 26.54 25.72 C 26.98 25.22 27.86 24.21 28.31 23.71 Z" />
</g>
</svg>
