<?xml version="1.0" encoding="UTF-8" ?>
<!DOCTYPE svg PUBLIC "-//W3C//DTD SVG 1.1//EN" "http://www.w3.org/Graphics/SVG/1.1/DTD/svg11.dtd">
<svg width="41pt" height="41pt" viewBox="0 0 41 41" version="1.1" xmlns="http://www.w3.org/2000/svg">
<g id="#fa531eff">
<path fill="#fa531e" opacity="1.00" d=" M 3.52 17.94 C 4.22 6.38 18.44 -1.44 28.60 4.14 C 36.96 7.73 41.22 18.68 36.98 26.81 C 35.72 29.16 35.25 31.79 34.20 34.21 C 32.67 35.85 30.62 36.85 28.73 37.99 C 25.77 34.97 30.50 33.55 32.12 31.56 C 32.52 27.77 34.66 24.49 35.42 20.80 C 35.84 14.12 30.90 7.61 24.40 6.06 C 15.53 3.38 5.88 11.71 6.57 20.81 C 7.27 25.31 9.58 29.96 13.87 32.00 C 18.06 34.74 23.26 33.15 27.92 33.42 C 28.10 36.08 25.81 36.87 23.67 37.38 C 13.07 38.78 1.81 28.93 3.52 17.94 Z" />
<path fill="#fa531e" opacity="1.00" d=" M 15.11 9.68 C 20.67 9.12 26.30 9.39 31.44 11.75 C 31.45 13.43 31.47 15.11 31.51 16.79 C 27.07 14.95 22.31 13.73 17.50 14.74 C 22.18 17.13 27.60 18.16 31.61 21.75 C 31.50 23.52 31.45 25.29 31.46 27.06 C 27.55 30.84 21.85 29.53 16.94 29.54 C 14.57 29.64 12.52 28.39 10.44 27.45 C 10.50 25.70 10.53 23.96 10.54 22.21 C 14.69 24.22 19.09 26.28 23.84 25.45 C 23.70 25.01 23.42 24.15 23.28 23.72 C 18.92 22.14 14.47 20.69 10.57 18.12 C 10.59 16.36 10.55 14.60 10.46 12.84 C 11.97 11.74 13.44 10.55 15.11 9.68 Z" />
</g>
</svg>
