<?xml version="1.0" encoding="UTF-8" ?>
<!DOCTYPE svg PUBLIC "-//W3C//DTD SVG 1.1//EN" "http://www.w3.org/Graphics/SVG/1.1/DTD/svg11.dtd">
<svg width="748pt" height="738pt" viewBox="0 0 748 738" version="1.1" xmlns="http://www.w3.org/2000/svg">
<g id="#2ec100ff">
<path fill="#2ec100" opacity="1.00" d=" M 119.27 17.75 C 121.49 17.39 123.75 17.58 125.99 17.40 C 292.66 17.43 459.34 17.38 626.02 17.43 C 643.34 18.44 660.29 23.81 675.13 32.81 C 686.57 39.66 696.04 49.34 704.52 59.53 C 712.69 70.20 718.57 82.60 721.88 95.62 C 724.66 104.46 725.80 113.75 725.58 122.99 C 725.59 285.66 725.59 448.33 725.59 611.00 C 726.40 635.33 717.87 659.73 702.76 678.75 C 692.42 691.34 679.57 701.99 664.68 708.75 C 654.35 713.31 643.36 716.84 632.05 717.79 C 624.46 719.17 616.67 718.37 609.00 718.59 C 447.32 718.57 285.64 718.63 123.97 718.56 C 99.41 717.15 75.10 707.03 57.58 689.57 C 37.76 672.04 26.64 646.07 24.45 620.02 C 24.37 452.68 24.41 285.33 24.43 117.99 C 24.24 113.92 25.16 109.96 25.57 105.94 C 27.81 95.78 30.19 85.47 35.25 76.27 C 38.96 68.10 44.36 60.83 50.21 54.10 C 64.83 36.86 85.17 24.28 107.42 19.92 C 111.29 18.77 115.35 18.66 119.27 17.75 M 225.85 114.05 C 197.99 121.37 171.16 133.11 147.59 149.74 C 131.64 161.12 117.28 174.82 105.91 190.82 C 87.92 215.92 76.45 245.36 72.32 275.94 C 71.09 284.57 71.49 293.30 71.43 301.98 C 71.23 310.19 72.38 318.34 73.81 326.40 C 81.28 367.22 105.51 403.57 137.16 429.81 C 144.76 436.99 154.73 441.62 160.99 450.17 C 164.07 454.79 164.01 460.79 162.24 465.91 C 156.99 482.86 154.22 500.42 150.21 517.68 C 163.28 508.51 177.25 500.33 190.68 491.64 C 199.40 487.43 206.89 480.96 216.06 477.72 C 220.87 476.12 226.00 476.30 231.01 476.38 C 251.98 478.25 272.79 481.13 293.68 483.67 C 293.11 466.18 292.43 448.45 296.09 431.23 C 298.66 416.50 303.66 402.32 309.78 388.76 C 324.89 358.32 349.04 333.03 376.88 313.85 C 381.94 310.94 386.81 307.72 391.87 304.83 C 398.18 302.27 403.95 298.51 410.38 296.22 C 429.43 288.51 449.55 283.35 469.93 280.54 C 477.56 280.13 485.15 279.11 492.75 278.50 C 489.87 237.62 470.01 198.67 440.53 170.47 C 427.35 156.32 411.17 145.39 394.66 135.50 C 367.25 120.48 336.84 110.93 305.64 107.96 C 278.95 105.02 251.86 107.59 225.85 114.05 M 472.61 301.78 C 465.41 303.67 457.81 303.32 450.80 306.02 C 435.77 308.63 421.89 315.27 408.05 321.22 C 401.22 325.80 393.61 329.22 387.05 334.25 C 362.33 351.40 341.66 374.82 329.47 402.43 C 321.66 419.80 316.90 438.87 317.46 458.00 C 315.99 496.54 332.98 534.16 359.10 561.90 C 373.46 577.12 390.03 590.44 408.70 599.99 C 410.88 601.66 413.33 602.92 415.95 603.77 C 445.96 617.89 480.01 622.86 512.96 619.46 C 527.68 618.25 541.40 612.10 555.90 609.73 C 559.35 609.84 562.64 608.80 566.05 608.51 C 574.49 609.99 582.83 612.24 590.59 615.93 C 598.60 619.38 605.91 624.27 613.91 627.73 C 615.87 629.57 618.82 629.21 620.81 630.89 C 618.94 628.47 619.36 625.20 618.20 622.49 C 617.19 618.20 614.63 614.52 613.26 610.36 C 611.53 606.79 611.68 602.77 610.91 598.97 C 611.64 589.28 617.23 580.68 624.34 574.34 C 631.47 567.13 639.12 560.39 645.46 552.46 C 664.77 529.77 676.73 500.80 678.61 471.03 C 678.34 460.84 679.27 450.53 677.29 440.47 C 671.22 398.58 646.26 360.48 612.03 336.01 C 578.22 311.89 536.39 299.86 495.00 300.47 C 487.49 300.25 480.09 301.52 472.61 301.78 Z" />
<path fill="#2ec100" opacity="1.00" d=" M 201.30 230.12 C 213.69 226.78 227.43 234.62 231.97 246.39 C 236.67 256.96 231.83 270.23 222.22 276.29 C 212.25 283.24 197.25 282.00 188.90 273.09 C 183.22 267.78 180.79 259.54 181.56 251.93 C 183.01 245.07 186.36 238.10 192.51 234.31 C 195.30 232.65 198.19 231.08 201.30 230.12 Z" />
<path fill="#2ec100" opacity="1.00" d=" M 363.31 230.15 C 369.85 228.32 376.99 229.67 382.80 233.11 C 391.19 237.70 396.16 247.64 395.49 257.07 C 394.69 267.01 387.82 276.28 378.29 279.45 C 375.65 280.58 372.72 280.54 369.99 281.31 C 362.58 280.65 354.93 277.90 349.83 272.21 C 345.08 266.68 342.56 259.23 343.49 251.95 C 345.07 241.58 353.33 233.01 363.31 230.15 Z" />
<path fill="#2ec100" opacity="1.00" d=" M 411.31 392.24 C 423.71 388.44 438.40 398.83 438.54 411.95 C 439.42 421.82 431.98 431.11 422.73 433.90 C 410.41 437.75 396.11 427.89 395.38 415.03 C 394.31 404.90 401.70 395.03 411.31 392.24 Z" />
<path fill="#2ec100" opacity="1.00" d=" M 542.44 392.37 C 548.25 390.19 554.70 392.01 559.77 395.19 C 565.18 398.66 568.28 404.79 569.46 410.95 C 570.56 421.92 562.05 432.99 551.06 434.44 C 542.03 435.69 532.44 430.35 528.88 421.92 C 526.77 417.97 526.99 413.31 527.38 408.99 C 528.53 401.07 535.16 394.95 542.44 392.37 Z" />
</g>
</svg>
