<?xml version="1.0" encoding="UTF-8" ?>
<!DOCTYPE svg PUBLIC "-//W3C//DTD SVG 1.1//EN" "http://www.w3.org/Graphics/SVG/1.1/DTD/svg11.dtd">
<svg width="48pt" height="48pt" viewBox="0 0 48 48" version="1.1" xmlns="http://www.w3.org/2000/svg">
<g id="#4db9fbfb">
<path fill="#4db9fb" opacity="1.00" d=" M 11.30 0.00 L 37.42 0.00 L 38.70 0.25 C 29.28 1.50 19.55 1.85 10.17 0.14 L 11.30 0.00 Z" />
</g>
<g id="#30aafeff">
<path fill="#30aafe" opacity="1.00" d=" M 0.00 11.30 C -0.02 5.61 4.31 0.33 10.17 0.14 C 19.55 1.85 29.28 1.50 38.70 0.25 C 44.21 0.82 47.96 5.95 48.00 11.27 L 48.00 37.27 C 47.93 38.01 47.78 39.47 47.71 40.20 C 40.57 40.11 33.49 41.17 26.36 40.70 C 25.57 41.43 24.84 42.21 24.16 43.04 C 23.28 42.40 22.38 41.79 21.45 41.22 C 14.70 39.33 7.62 40.76 0.72 40.38 C 0.54 39.64 0.18 38.14 0.00 37.40 L 0.00 11.30 M 35.34 27.04 L 37.19 27.11 C 35.49 28.12 34.02 29.53 33.04 31.26 L 32.61 29.39 C 30.76 32.69 32.64 36.32 33.56 39.58 C 36.53 38.91 39.55 38.44 42.45 37.54 C 45.42 36.45 47.28 32.99 46.05 29.96 C 44.29 26.15 38.69 24.09 35.34 27.04 Z" />
</g>
<g id="#199afeff">
<path fill="#199afe" opacity="1.00" d=" M 35.34 27.04 C 38.69 24.09 44.29 26.15 46.05 29.96 C 47.28 32.99 45.42 36.45 42.45 37.54 C 39.55 38.44 36.53 38.91 33.56 39.58 C 32.64 36.32 30.76 32.69 32.61 29.39 L 33.04 31.26 C 33.45 32.84 34.00 34.37 34.65 35.87 C 34.40 36.55 34.15 37.23 33.89 37.91 C 37.91 36.92 44.25 37.26 45.02 31.95 C 44.61 28.24 40.48 26.70 37.19 27.11 L 35.34 27.04 Z" />
</g>
<g id="#ffffffff">
<path fill="#ffffff" opacity="1.00" d=" M 37.19 27.11 C 40.48 26.70 44.61 28.24 45.02 31.95 C 44.25 37.26 37.91 36.92 33.89 37.91 C 34.15 37.23 34.40 36.55 34.65 35.87 C 34.00 34.37 33.45 32.84 33.04 31.26 C 34.02 29.53 35.49 28.12 37.19 27.11 M 36.26 30.04 C 35.74 31.65 36.29 32.22 37.92 31.77 C 38.45 30.14 37.90 29.57 36.26 30.04 M 40.07 30.10 C 39.57 31.75 40.12 32.28 41.73 31.70 C 42.25 30.06 41.69 29.53 40.07 30.10 Z" />
</g>
<g id="#6abefeff">
<path fill="#6abefe" opacity="1.00" d=" M 36.26 30.04 C 37.90 29.57 38.45 30.14 37.92 31.77 C 36.29 32.22 35.74 31.65 36.26 30.04 Z" />
<path fill="#6abefe" opacity="1.00" d=" M 40.07 30.10 C 41.69 29.53 42.25 30.06 41.73 31.70 C 40.12 32.28 39.57 31.75 40.07 30.10 Z" />
</g>
<g id="#f4fafeff">
<path fill="#f4fafe" opacity="1.00" d=" M 0.59 40.79 C 7.54 40.82 14.55 40.29 21.45 41.22 C 22.38 41.79 23.28 42.40 24.16 43.04 C 24.84 42.21 25.57 41.43 26.36 40.70 C 33.47 41.31 40.62 40.44 47.74 40.76 C 45.54 44.95 41.51 48.01 36.64 48.00 L 11.42 48.00 C 6.69 47.97 2.35 45.22 0.59 40.79 Z" />
</g>
</svg>
