<?xml version="1.0" encoding="UTF-8" ?>
<!DOCTYPE svg PUBLIC "-//W3C//DTD SVG 1.1//EN" "http://www.w3.org/Graphics/SVG/1.1/DTD/svg11.dtd">
<svg width="192pt" height="192pt" viewBox="0 0 192 192" version="1.1" xmlns="http://www.w3.org/2000/svg">
<g id="#ffffffff">
<path fill="#ffffff" opacity="1.00" d=" M 0.00 0.00 L 192.00 0.00 L 192.00 192.00 L 0.00 192.00 L 0.00 0.00 M 90.13 10.63 C 75.43 12.28 61.43 19.45 51.51 30.43 C 40.93 41.86 34.84 57.43 35.13 73.03 C 34.95 89.58 42.15 105.83 53.85 117.44 C 57.34 120.69 60.97 124.02 65.46 125.82 C 65.46 106.91 65.34 88.01 65.52 69.10 C 66.59 57.67 74.60 47.09 85.56 43.40 C 100.60 37.19 119.48 45.56 125.17 60.75 C 128.31 68.42 128.30 77.33 124.72 84.85 C 120.94 94.24 112.01 101.10 102.14 102.92 C 95.43 104.19 88.45 103.01 82.27 100.22 C 82.33 104.69 82.36 109.15 82.23 113.62 C 82.35 137.84 82.12 162.06 82.37 186.28 C 87.39 169.20 92.78 152.22 98.02 135.21 C 116.89 135.13 135.50 125.99 146.95 110.96 C 157.83 97.04 162.35 78.36 158.94 61.01 C 156.09 45.64 147.19 31.56 134.59 22.34 C 121.98 12.95 105.73 8.72 90.13 10.63 M 79.66 70.12 C 77.66 80.72 87.06 91.73 97.94 90.93 C 105.76 91.27 112.41 85.47 115.18 78.49 C 111.68 81.21 106.06 81.53 103.21 77.72 C 99.27 73.42 102.27 65.68 107.98 64.97 C 110.52 64.28 112.83 65.72 115.02 66.78 C 112.40 60.59 106.81 55.53 99.97 54.78 C 90.51 53.36 80.80 60.58 79.66 70.12 Z" />
</g>
<g id="#24140cff">
<path fill="#24140c" opacity="1.00" d=" M 90.13 10.63 C 105.73 8.72 121.98 12.95 134.59 22.34 C 147.19 31.56 156.09 45.64 158.94 61.01 C 162.35 78.36 157.83 97.04 146.95 110.96 C 135.50 125.99 116.89 135.13 98.02 135.21 C 92.78 152.22 87.39 169.20 82.37 186.28 C 82.12 162.06 82.35 137.84 82.23 113.62 C 90.21 116.40 98.92 117.06 107.18 115.19 C 121.97 112.02 134.53 100.42 139.05 86.01 C 142.90 74.20 141.34 60.74 134.84 50.15 C 129.98 42.09 122.43 35.69 113.70 32.20 C 101.55 27.26 87.16 28.30 75.83 34.89 C 63.33 41.99 54.72 55.56 54.08 69.97 C 53.75 85.79 54.17 101.62 53.85 117.44 C 42.15 105.83 34.95 89.58 35.13 73.03 C 34.84 57.43 40.93 41.86 51.51 30.43 C 61.43 19.45 75.43 12.28 90.13 10.63 Z" />
<path fill="#24140c" opacity="1.00" d=" M 79.66 70.12 C 80.80 60.58 90.51 53.36 99.97 54.78 C 106.81 55.53 112.40 60.59 115.02 66.78 C 112.83 65.72 110.52 64.28 107.98 64.97 C 102.27 65.68 99.27 73.42 103.21 77.72 C 106.06 81.53 111.68 81.21 115.18 78.49 C 112.41 85.47 105.76 91.27 97.94 90.93 C 87.06 91.73 77.66 80.72 79.66 70.12 Z" />
</g>
<g id="#e8ad5aff">
<path fill="#e8ad5a" opacity="1.00" d=" M 75.83 34.89 C 87.16 28.30 101.55 27.26 113.70 32.20 C 122.43 35.69 129.98 42.09 134.84 50.15 C 141.34 60.74 142.90 74.20 139.05 86.01 C 134.53 100.42 121.97 112.02 107.18 115.19 C 98.92 117.06 90.21 116.40 82.23 113.62 C 82.36 109.15 82.33 104.69 82.27 100.22 C 88.45 103.01 95.43 104.19 102.14 102.92 C 112.01 101.10 120.94 94.24 124.72 84.85 C 128.30 77.33 128.31 68.42 125.17 60.75 C 119.48 45.56 100.60 37.19 85.56 43.40 C 74.60 47.09 66.59 57.67 65.52 69.10 C 65.34 88.01 65.46 106.91 65.46 125.82 C 60.97 124.02 57.34 120.69 53.85 117.44 C 54.17 101.62 53.75 85.79 54.08 69.97 C 54.72 55.56 63.33 41.99 75.83 34.89 Z" />
</g>
</svg>
