<?xml version="1.0" encoding="UTF-8" ?>
<!DOCTYPE svg PUBLIC "-//W3C//DTD SVG 1.1//EN" "http://www.w3.org/Graphics/SVG/1.1/DTD/svg11.dtd">
<svg width="64pt" height="64pt" viewBox="0 0 64 64" version="1.1" xmlns="http://www.w3.org/2000/svg">
<g id="#ffffffff">
<path fill="#ffffff" opacity="1.00" d=" M 0.00 0.00 L 64.00 0.00 L 64.00 64.00 L 0.00 64.00 L 0.00 0.00 M 3.82 16.45 C 6.21 26.98 8.49 37.53 10.89 48.06 C 14.15 48.06 17.40 48.07 20.66 48.05 C 22.30 41.65 24.19 35.32 25.85 28.92 C 26.40 29.48 26.78 30.12 26.99 30.86 C 28.55 36.60 30.14 42.33 31.74 48.06 C 35.02 48.08 38.30 48.10 41.58 47.95 C 43.73 37.42 46.16 26.94 48.47 16.44 C 45.37 16.44 42.27 16.44 39.17 16.44 C 38.10 22.21 37.00 27.97 35.93 33.74 C 33.77 28.11 32.63 22.16 30.79 16.42 C 27.66 16.45 24.53 16.42 21.40 16.48 C 19.88 22.25 18.24 28.00 16.69 33.77 C 14.88 28.13 14.70 22.08 12.88 16.49 C 9.86 16.35 6.84 16.45 3.82 16.45 M 50.40 39.46 C 50.44 42.33 50.46 45.19 50.40 48.06 C 53.55 48.06 56.70 48.06 59.85 48.06 C 59.81 45.19 59.82 42.32 59.85 39.45 C 56.70 39.43 53.55 39.43 50.40 39.46 Z" />
</g>
<g id="#000000ff">
<path fill="#000000" opacity="1.00" d=" M 3.82 16.45 C 6.84 16.45 9.86 16.35 12.88 16.49 C 14.70 22.08 14.88 28.13 16.69 33.77 C 18.24 28.00 19.88 22.25 21.40 16.48 C 24.53 16.42 27.66 16.45 30.79 16.42 C 32.63 22.16 33.77 28.11 35.93 33.74 C 37.00 27.97 38.10 22.21 39.17 16.44 C 42.27 16.44 45.37 16.44 48.47 16.44 C 46.16 26.94 43.73 37.42 41.58 47.95 C 38.30 48.10 35.02 48.08 31.74 48.06 C 30.14 42.33 28.55 36.60 26.99 30.86 C 26.78 30.12 26.40 29.48 25.85 28.92 C 24.19 35.32 22.30 41.65 20.66 48.05 C 17.40 48.07 14.15 48.06 10.89 48.06 C 8.49 37.53 6.21 26.98 3.82 16.45 Z" />
<path fill="#000000" opacity="1.00" d=" M 50.40 39.46 C 53.55 39.43 56.70 39.43 59.85 39.45 C 59.82 42.32 59.81 45.19 59.85 48.06 C 56.70 48.06 53.55 48.06 50.40 48.06 C 50.46 45.19 50.44 42.33 50.40 39.46 Z" />
</g>
</svg>
