<?xml version="1.0" encoding="UTF-8" ?>
<!DOCTYPE svg PUBLIC "-//W3C//DTD SVG 1.1//EN" "http://www.w3.org/Graphics/SVG/1.1/DTD/svg11.dtd">
<svg width="16pt" height="16pt" viewBox="0 0 16 16" version="1.1" xmlns="http://www.w3.org/2000/svg">
<g id="#000000ff">
<path fill="#000000" opacity="1.00" d=" M 0.00 0.00 L 16.00 0.00 L 16.00 16.00 L 0.00 16.00 L 0.00 0.00 M 1.03 4.00 C 0.96 5.33 0.96 6.67 1.04 8.00 C 0.62 10.54 0.73 13.05 3.99 12.00 C 4.05 10.67 4.04 9.33 3.96 8.00 C 4.04 6.67 4.04 5.33 3.97 4.00 C 5.77 -0.11 -0.77 -0.11 1.03 4.00 M 12.03 4.00 C 11.96 5.33 11.96 6.67 12.04 8.00 C 11.96 9.33 11.95 10.67 12.01 12.00 C 15.27 13.05 15.38 10.55 14.96 8.00 C 15.04 6.67 15.04 5.33 14.97 4.00 C 16.77 -0.11 10.23 -0.11 12.03 4.00 M 6.03 11.98 C 5.52 11.98 4.50 11.99 3.99 12.00 C 2.27 16.10 8.73 16.12 6.99 12.01 C 7.49 12.01 8.49 12.01 8.99 12.01 C 9.05 10.67 9.04 9.33 8.96 8.00 C 8.88 6.26 9.95 2.99 7.00 4.00 C 4.77 4.81 6.52 9.59 6.03 11.98 M 8.99 12.01 C 7.27 16.11 13.73 16.10 12.01 12.00 C 11.25 12.00 9.75 12.01 8.99 12.01 Z" />
</g>
<g id="#11707fff">
<path fill="#11707f" opacity="1.00" d=" M 1.03 4.00 C -0.77 -0.11 5.77 -0.11 3.97 4.00 C 3.24 4.00 1.76 4.00 1.03 4.00 Z" />
</g>
<g id="#dc5857ff">
<path fill="#dc5857" opacity="1.00" d=" M 12.03 4.00 C 10.23 -0.11 16.77 -0.11 14.97 4.00 C 14.24 4.00 12.76 4.00 12.03 4.00 Z" />
</g>
<g id="#053c4fff">
<path fill="#053c4f" opacity="1.00" d=" M 1.03 4.00 C 1.76 4.00 3.24 4.00 3.97 4.00 C 4.04 5.33 4.04 6.67 3.96 8.00 C 3.23 8.00 1.77 8.00 1.04 8.00 C 0.96 6.67 0.96 5.33 1.03 4.00 Z" />
</g>
<g id="#edddccff">
<path fill="#edddcc" opacity="1.00" d=" M 6.03 11.98 C 6.52 9.59 4.77 4.81 7.00 4.00 C 7.00 5.34 7.00 6.67 7.01 8.00 C 7.00 9.34 6.99 10.67 6.99 12.01 L 6.03 11.98 Z" />
</g>
<g id="#d15927ff">
<path fill="#d15927" opacity="1.00" d=" M 7.00 4.00 C 9.95 2.99 8.88 6.26 8.96 8.00 C 8.48 8.00 7.50 8.00 7.01 8.00 C 7.00 6.67 7.00 5.34 7.00 4.00 Z" />
</g>
<g id="#d69229ff">
<path fill="#d69229" opacity="1.00" d=" M 12.03 4.00 C 12.76 4.00 14.24 4.00 14.97 4.00 C 15.04 5.33 15.04 6.67 14.96 8.00 C 14.23 8.00 12.77 8.00 12.04 8.00 C 11.96 6.67 11.96 5.33 12.03 4.00 Z" />
</g>
<g id="#556aa3ff">
<path fill="#556aa3" opacity="1.00" d=" M 1.04 8.00 C 1.77 8.00 3.23 8.00 3.96 8.00 C 4.04 9.33 4.05 10.67 3.99 12.00 C 0.73 13.05 0.62 10.54 1.04 8.00 Z" />
</g>
<g id="#978c33ff">
<path fill="#978c33" opacity="1.00" d=" M 7.01 8.00 C 7.50 8.00 8.48 8.00 8.96 8.00 C 9.04 9.33 9.05 10.67 8.99 12.01 C 8.49 12.01 7.49 12.01 6.99 12.01 C 6.99 10.67 7.00 9.34 7.01 8.00 Z" />
</g>
<g id="#c22826ff">
<path fill="#c22826" opacity="1.00" d=" M 12.04 8.00 C 12.77 8.00 14.23 8.00 14.96 8.00 C 15.38 10.55 15.27 13.05 12.01 12.00 C 11.95 10.67 11.96 9.33 12.04 8.00 Z" />
</g>
<g id="#50775dff">
<path fill="#50775d" opacity="1.00" d=" M 3.99 12.00 C 4.50 11.99 5.52 11.98 6.03 11.98 L 6.99 12.01 C 8.73 16.12 2.27 16.10 3.99 12.00 Z" />
</g>
<g id="#73355cff">
<path fill="#73355c" opacity="1.00" d=" M 8.99 12.01 C 9.75 12.01 11.25 12.00 12.01 12.00 C 13.73 16.10 7.27 16.11 8.99 12.01 Z" />
</g>
</svg>
