<?xml version="1.0" encoding="UTF-8" ?>
<!DOCTYPE svg PUBLIC "-//W3C//DTD SVG 1.1//EN" "http://www.w3.org/Graphics/SVG/1.1/DTD/svg11.dtd">
<svg width="64pt" height="64pt" viewBox="0 0 64 64" version="1.1" xmlns="http://www.w3.org/2000/svg">
<g id="#ffffffff">
<path fill="#ffffff" opacity="1.00" d=" M 0.00 0.00 L 64.00 0.00 L 64.00 64.00 L 0.00 64.00 L 0.00 0.00 M 0.86 8.46 C 1.79 9.50 2.83 10.50 3.34 11.84 C 5.78 17.62 7.96 23.52 10.46 29.28 C 12.55 25.00 14.25 20.56 16.15 16.19 C 17.85 20.58 19.49 25.00 21.27 29.35 C 24.64 22.55 25.94 14.75 30.21 8.43 C 28.33 8.53 26.46 8.59 24.58 8.68 C 25.51 9.08 26.43 9.48 27.36 9.88 C 26.21 13.79 24.64 17.56 23.18 21.36 C 21.71 17.53 20.17 13.71 18.83 9.83 C 19.73 9.43 20.63 9.02 21.53 8.61 C 17.93 8.53 14.32 8.48 10.73 8.74 C 11.37 8.94 12.67 9.34 13.32 9.54 C 14.10 11.20 14.83 12.89 15.52 14.58 C 14.48 17.01 13.45 19.44 12.41 21.86 C 10.86 17.83 9.11 13.88 7.72 9.79 C 8.55 9.42 9.38 9.05 10.22 8.68 C 7.10 8.54 3.98 8.58 0.86 8.46 M 31.95 10.89 C 32.48 13.03 34.80 12.48 36.42 12.37 C 36.41 11.21 36.50 10.03 36.25 8.89 C 34.65 7.10 31.51 8.43 31.95 10.89 M 38.76 8.65 C 39.23 8.93 40.17 9.50 40.64 9.79 C 40.77 15.54 40.74 21.28 40.66 27.03 C 40.04 27.43 39.42 27.83 38.80 28.23 C 41.20 28.31 43.59 28.33 45.98 28.41 C 44.67 26.43 44.80 24.04 44.93 21.78 C 46.34 23.25 47.59 24.85 48.81 26.48 C 48.67 26.95 48.41 27.90 48.28 28.38 C 53.33 28.24 58.38 28.38 63.44 28.27 C 62.71 27.87 61.99 27.47 61.27 27.08 C 61.16 22.92 61.21 18.76 61.20 14.61 C 59.08 14.63 56.96 14.66 54.84 14.76 C 55.36 15.03 56.42 15.57 56.95 15.84 C 57.06 19.63 57.27 23.45 56.84 27.24 C 56.36 27.38 55.40 27.67 54.93 27.82 C 52.07 25.59 50.58 22.10 48.45 19.24 C 50.24 17.51 52.16 15.93 54.29 14.62 C 52.13 14.64 49.97 14.64 47.82 14.62 C 48.40 15.33 48.98 16.04 49.57 16.75 C 48.02 18.30 46.45 19.83 44.86 21.35 C 44.85 17.08 44.86 12.81 44.84 8.53 C 42.81 8.55 40.79 8.58 38.76 8.65 M 57.58 8.67 C 55.08 10.75 58.95 14.34 60.87 11.87 C 62.92 9.88 59.50 6.55 57.58 8.67 M 29.98 14.76 C 30.52 15.03 31.60 15.56 32.14 15.83 C 32.27 19.62 32.28 23.40 32.15 27.18 C 31.61 27.44 30.52 27.96 29.98 28.22 C 32.79 28.34 35.60 28.34 38.41 28.28 C 37.92 27.97 36.94 27.35 36.45 27.04 C 36.38 22.89 36.40 18.75 36.41 14.60 C 34.27 14.63 32.12 14.66 29.98 14.76 M 28.40 34.48 C 28.40 35.84 28.39 37.20 28.39 38.56 C 30.39 38.56 32.40 38.56 34.40 38.56 C 34.41 37.54 34.41 35.50 34.41 34.48 C 32.41 34.48 30.41 34.48 28.40 34.48 M 41.34 34.51 C 38.89 35.33 39.02 38.26 38.53 40.34 C 38.04 40.33 37.05 40.32 36.56 40.32 C 36.56 41.42 36.55 43.62 36.55 44.71 C 37.11 44.72 38.23 44.73 38.79 44.73 C 38.78 48.44 38.79 52.14 38.79 55.84 C 40.79 55.84 42.80 55.84 44.81 55.84 C 44.80 52.14 44.81 48.44 44.80 44.74 C 45.50 44.73 46.90 44.72 47.60 44.71 C 47.61 43.69 47.63 41.64 47.64 40.62 C 46.88 40.45 45.37 40.12 44.61 39.95 C 44.61 37.83 46.89 38.14 48.36 37.68 C 48.52 36.56 48.68 35.45 48.84 34.33 C 46.35 34.28 43.78 33.81 41.34 34.51 M 53.45 34.62 C 51.17 35.53 51.37 38.32 50.83 40.29 C 50.34 40.30 49.37 40.33 48.88 40.34 C 48.88 41.44 48.88 43.62 48.87 44.71 C 49.44 44.72 50.58 44.73 51.15 44.74 C 51.15 48.44 51.15 52.15 51.15 55.85 C 53.15 55.85 55.15 55.84 57.15 55.83 C 57.14 52.13 57.14 48.43 57.14 44.73 C 57.83 44.73 59.19 44.73 59.87 44.73 C 59.88 43.28 59.89 41.83 59.90 40.39 C 59.05 40.32 57.34 40.18 56.48 40.11 C 57.22 38.30 59.01 37.93 60.72 37.59 C 60.88 36.50 61.05 35.42 61.21 34.34 C 58.64 34.31 55.93 33.73 53.45 34.62 M 5.51 34.49 C 5.52 41.61 5.51 48.73 5.52 55.84 C 10.55 55.53 15.93 56.73 20.71 54.70 C 26.40 51.39 26.35 42.84 23.22 37.77 C 18.99 32.45 11.33 35.12 5.51 34.49 M 28.39 40.32 C 28.40 45.50 28.41 50.67 28.40 55.85 C 30.40 55.84 32.41 55.84 34.41 55.84 C 34.40 50.67 34.41 45.49 34.40 40.32 C 32.40 40.32 30.40 40.32 28.39 40.32 Z" />
<path fill="#ffffff" opacity="1.00" d=" M 12.24 39.13 C 14.11 39.57 16.78 39.19 17.81 41.22 C 18.81 43.63 18.70 46.44 18.03 48.92 C 17.12 51.29 14.20 50.71 12.21 51.14 C 12.14 47.14 12.12 43.13 12.24 39.13 Z" />
</g>
<g id="#010101ff">
<path fill="#010101" opacity="1.00" d=" M 0.86 8.46 C 3.98 8.58 7.10 8.54 10.22 8.68 C 9.38 9.05 8.55 9.42 7.72 9.79 C 9.11 13.88 10.86 17.83 12.41 21.86 C 13.45 19.44 14.48 17.01 15.52 14.58 C 14.83 12.89 14.10 11.20 13.32 9.54 C 12.67 9.34 11.37 8.94 10.73 8.74 C 14.32 8.48 17.93 8.53 21.53 8.61 C 20.63 9.02 19.73 9.43 18.83 9.83 C 20.17 13.71 21.71 17.53 23.18 21.36 C 24.64 17.56 26.21 13.79 27.36 9.88 C 26.43 9.48 25.51 9.08 24.58 8.68 C 26.46 8.59 28.33 8.53 30.21 8.43 C 25.94 14.75 24.64 22.55 21.27 29.35 C 19.49 25.00 17.85 20.58 16.15 16.19 C 14.25 20.56 12.55 25.00 10.46 29.28 C 7.96 23.52 5.78 17.62 3.34 11.84 C 2.83 10.50 1.79 9.50 0.86 8.46 Z" />
<path fill="#010101" opacity="1.00" d=" M 31.95 10.89 C 31.51 8.43 34.65 7.10 36.25 8.89 C 36.50 10.03 36.41 11.21 36.42 12.37 C 34.80 12.48 32.48 13.03 31.95 10.89 Z" />
<path fill="#010101" opacity="1.00" d=" M 38.76 8.65 C 40.79 8.58 42.81 8.55 44.84 8.53 C 44.86 12.81 44.85 17.08 44.86 21.35 C 46.45 19.83 48.02 18.30 49.57 16.75 C 48.98 16.04 48.40 15.33 47.82 14.62 C 49.97 14.64 52.13 14.64 54.29 14.62 C 52.16 15.93 50.24 17.51 48.45 19.24 C 50.58 22.10 52.07 25.59 54.93 27.82 C 55.40 27.67 56.36 27.38 56.84 27.24 C 57.27 23.45 57.06 19.63 56.95 15.84 C 56.42 15.57 55.36 15.03 54.84 14.76 C 56.96 14.66 59.08 14.63 61.20 14.61 C 61.21 18.76 61.16 22.92 61.27 27.08 C 61.99 27.47 62.71 27.87 63.44 28.27 C 58.38 28.38 53.33 28.24 48.28 28.38 C 48.41 27.90 48.67 26.95 48.81 26.48 C 47.59 24.85 46.34 23.25 44.93 21.78 C 44.80 24.04 44.67 26.43 45.98 28.41 C 43.59 28.33 41.20 28.31 38.80 28.23 C 39.42 27.83 40.04 27.43 40.66 27.03 C 40.74 21.28 40.77 15.54 40.64 9.79 C 40.17 9.50 39.23 8.93 38.76 8.65 Z" />
<path fill="#010101" opacity="1.00" d=" M 57.58 8.67 C 59.50 6.55 62.92 9.88 60.87 11.87 C 58.95 14.34 55.08 10.75 57.58 8.67 Z" />
<path fill="#010101" opacity="1.00" d=" M 29.98 14.76 C 32.12 14.66 34.27 14.63 36.41 14.60 C 36.40 18.75 36.38 22.89 36.45 27.04 C 36.94 27.35 37.92 27.97 38.41 28.28 C 35.60 28.34 32.79 28.34 29.98 28.22 C 30.52 27.96 31.61 27.44 32.15 27.18 C 32.28 23.40 32.27 19.62 32.14 15.83 C 31.60 15.56 30.52 15.03 29.98 14.76 Z" />
</g>
<g id="#ff0101ff">
<path fill="#ff0101" opacity="1.00" d=" M 28.40 34.48 C 30.41 34.48 32.41 34.48 34.41 34.48 C 34.41 35.50 34.41 37.54 34.40 38.56 C 32.40 38.56 30.39 38.56 28.39 38.56 C 28.39 37.20 28.40 35.84 28.40 34.48 Z" />
<path fill="#ff0101" opacity="1.00" d=" M 41.34 34.51 C 43.78 33.81 46.35 34.28 48.84 34.33 C 48.68 35.45 48.52 36.56 48.36 37.68 C 46.89 38.14 44.61 37.83 44.61 39.95 C 45.37 40.12 46.88 40.45 47.64 40.62 C 47.63 41.64 47.61 43.69 47.60 44.71 C 46.90 44.72 45.50 44.73 44.80 44.74 C 44.81 48.44 44.80 52.14 44.81 55.84 C 42.80 55.84 40.79 55.84 38.79 55.84 C 38.79 52.14 38.78 48.44 38.79 44.73 C 38.23 44.73 37.11 44.72 36.55 44.71 C 36.55 43.62 36.56 41.42 36.56 40.32 C 37.05 40.32 38.04 40.33 38.53 40.34 C 39.02 38.26 38.89 35.33 41.34 34.51 Z" />
<path fill="#ff0101" opacity="1.00" d=" M 53.45 34.62 C 55.93 33.73 58.64 34.31 61.21 34.34 C 61.05 35.42 60.88 36.50 60.72 37.59 C 59.01 37.93 57.22 38.30 56.48 40.11 C 57.34 40.18 59.05 40.32 59.90 40.39 C 59.89 41.83 59.88 43.28 59.87 44.73 C 59.19 44.73 57.83 44.73 57.14 44.73 C 57.14 48.43 57.14 52.13 57.15 55.83 C 55.15 55.84 53.15 55.85 51.15 55.85 C 51.15 52.15 51.15 48.44 51.15 44.74 C 50.58 44.73 49.44 44.72 48.87 44.71 C 48.88 43.62 48.88 41.44 48.88 40.34 C 49.37 40.33 50.34 40.30 50.83 40.29 C 51.37 38.32 51.17 35.53 53.45 34.62 Z" />
<path fill="#ff0101" opacity="1.00" d=" M 5.51 34.49 C 11.33 35.12 18.99 32.45 23.22 37.77 C 26.35 42.84 26.40 51.39 20.71 54.70 C 15.93 56.73 10.55 55.53 5.52 55.84 C 5.51 48.73 5.52 41.61 5.51 34.49 M 12.24 39.13 C 12.12 43.13 12.14 47.14 12.21 51.14 C 14.20 50.71 17.12 51.29 18.03 48.92 C 18.70 46.44 18.81 43.63 17.81 41.22 C 16.78 39.19 14.11 39.57 12.24 39.13 Z" />
<path fill="#ff0101" opacity="1.00" d=" M 28.39 40.32 C 30.40 40.32 32.40 40.32 34.40 40.32 C 34.41 45.49 34.40 50.67 34.41 55.84 C 32.41 55.84 30.40 55.84 28.40 55.85 C 28.41 50.67 28.40 45.50 28.39 40.32 Z" />
</g>
</svg>
