<?xml version="1.0" encoding="UTF-8" ?>
<!DOCTYPE svg PUBLIC "-//W3C//DTD SVG 1.1//EN" "http://www.w3.org/Graphics/SVG/1.1/DTD/svg11.dtd">
<svg width="192pt" height="192pt" viewBox="0 0 192 192" version="1.1" xmlns="http://www.w3.org/2000/svg">
<g id="#050608ff">
<path fill="#050608" opacity="1.00" d=" M 0.00 0.00 L 192.00 0.00 L 192.00 192.00 L 0.00 192.00 L 0.00 0.00 M 180.88 3.56 C 179.99 6.50 177.86 8.93 177.30 11.97 C 174.20 11.19 174.80 7.31 173.81 4.91 C 173.70 6.97 173.82 9.04 174.46 11.01 C 173.68 11.65 172.84 12.21 172.01 12.78 C 172.98 13.76 173.94 14.75 174.90 15.73 C 173.38 17.05 171.95 18.48 170.62 20.00 C 145.61 46.60 120.79 73.38 96.10 100.27 C 71.53 73.36 46.70 46.70 21.76 20.14 C 20.50 18.69 19.21 17.27 17.88 15.88 C 18.98 14.35 20.07 12.81 21.01 11.18 C 19.50 12.17 18.09 13.32 16.53 14.23 C 15.75 12.12 14.90 10.04 13.78 8.08 C 13.11 6.84 12.46 5.58 11.82 4.32 C 11.72 1.49 9.74 3.16 8.23 3.83 C 9.16 5.60 10.01 7.42 10.75 9.28 C 11.51 10.54 12.26 11.80 13.00 13.07 C 12.04 14.31 11.10 15.56 10.19 16.84 C 10.90 16.09 12.34 14.60 13.05 13.85 C 13.60 14.52 14.71 15.86 15.26 16.53 C 14.75 17.61 13.90 18.57 13.26 19.59 C 13.88 19.52 15.10 19.38 15.72 19.31 C 14.28 20.80 13.12 22.64 13.86 24.84 C 15.28 29.17 16.16 33.65 17.26 38.07 C 27.36 80.04 37.54 122.00 47.80 163.93 C 52.72 173.05 63.36 176.69 72.77 179.17 C 90.74 183.19 109.99 182.83 127.44 176.70 C 135.22 173.77 143.87 168.83 145.43 159.89 L 145.39 159.79 C 146.32 157.25 147.02 154.64 147.62 152.01 C 157.73 110.01 168.16 68.08 178.02 26.02 C 178.32 24.92 178.62 23.82 178.94 22.72 C 178.77 22.22 178.43 21.21 178.26 20.71 C 178.39 20.11 178.63 18.91 178.76 18.31 C 178.09 17.58 176.76 16.13 176.09 15.40 L 178.22 16.13 C 178.42 15.58 178.83 14.48 179.03 13.93 C 180.13 14.93 181.23 15.95 182.35 16.94 C 181.40 15.70 180.43 14.48 179.46 13.26 C 179.89 12.44 180.75 10.80 181.18 9.98 C 182.23 11.01 183.26 12.06 184.29 13.11 C 183.41 11.21 182.21 9.27 182.66 7.09 C 183.20 6.07 183.76 5.06 184.32 4.05 C 183.49 3.51 182.67 2.98 181.85 2.45 C 181.61 2.73 181.12 3.29 180.88 3.56 M 184.72 16.40 C 188.34 13.43 188.62 8.44 188.26 4.13 C 187.64 8.37 186.31 12.43 184.72 16.40 M 4.26 4.47 C 4.07 8.73 4.39 13.44 7.78 16.49 C 6.45 12.53 5.03 8.59 4.26 4.47 M 16.37 12.47 L 17.87 12.86 C 18.62 10.15 18.70 7.34 18.65 4.54 C 18.06 7.23 17.36 9.90 16.37 12.47 M 9.11 10.21 C 7.74 13.28 12.46 10.10 9.11 10.21 Z" />
</g>
<g id="#ffffffff">
<path fill="#ffffff" opacity="1.00" d=" M 180.88 3.56 C 181.12 3.29 181.61 2.73 181.85 2.45 C 182.67 2.98 183.49 3.51 184.32 4.05 C 183.76 5.06 183.20 6.07 182.66 7.09 C 182.15 8.05 181.67 9.02 181.18 9.98 C 180.75 10.80 179.89 12.44 179.46 13.26 C 180.43 14.48 181.40 15.70 182.35 16.94 C 181.23 15.95 180.13 14.93 179.03 13.93 C 178.83 14.48 178.42 15.58 178.22 16.13 L 176.09 15.40 L 175.59 15.23 C 176.07 14.60 176.53 13.95 176.99 13.29 C 177.07 12.96 177.22 12.30 177.30 11.97 C 177.86 8.93 179.99 6.50 180.88 3.56 Z" />
<path fill="#ffffff" opacity="1.00" d=" M 8.23 3.83 C 9.74 3.16 11.72 1.49 11.82 4.32 C 12.46 5.58 13.11 6.84 13.78 8.08 C 14.90 10.04 15.75 12.12 16.53 14.23 C 16.12 14.45 15.30 14.89 14.89 15.11 L 15.26 16.53 C 14.71 15.86 13.60 14.52 13.05 13.85 C 12.34 14.60 10.90 16.09 10.19 16.84 C 11.10 15.56 12.04 14.31 13.00 13.07 C 12.26 11.80 11.51 10.54 10.75 9.28 C 10.01 7.42 9.16 5.60 8.23 3.83 Z" />
<path fill="#ffffff" opacity="1.00" d=" M 86.02 138.50 C 103.86 137.08 122.72 138.99 138.30 148.45 C 141.60 151.56 144.32 155.31 145.39 159.79 L 145.43 159.89 C 143.87 168.83 135.22 173.77 127.44 176.70 C 109.99 182.83 90.74 183.19 72.77 179.17 C 63.36 176.69 52.72 173.05 47.80 163.93 C 45.40 157.61 49.76 151.89 54.34 148.03 C 63.99 142.42 74.95 139.43 86.02 138.50 Z" />
</g>
<g id="#a9a5a6ff">
<path fill="#a9a5a6" opacity="1.00" d=" M 184.72 16.40 C 186.31 12.43 187.64 8.37 188.26 4.13 C 188.62 8.44 188.34 13.43 184.72 16.40 Z" />
<path fill="#a9a5a6" opacity="1.00" d=" M 4.26 4.47 C 5.03 8.59 6.45 12.53 7.78 16.49 C 4.39 13.44 4.07 8.73 4.26 4.47 Z" />
<path fill="#a9a5a6" opacity="1.00" d=" M 16.37 12.47 C 17.36 9.90 18.06 7.23 18.65 4.54 C 18.70 7.34 18.62 10.15 17.87 12.86 L 16.37 12.47 Z" />
<path fill="#a9a5a6" opacity="1.00" d=" M 173.81 4.91 C 174.80 7.31 174.20 11.19 177.30 11.97 C 177.22 12.30 177.07 12.96 176.99 13.29 C 176.53 13.95 176.07 14.60 175.59 15.23 L 176.09 15.40 C 176.76 16.13 178.09 17.58 178.76 18.31 C 178.63 18.91 178.39 20.11 178.26 20.71 C 178.43 21.21 178.77 22.22 178.94 22.72 C 178.62 23.82 178.32 24.92 178.02 26.02 C 175.43 24.17 172.94 22.18 170.62 20.00 C 171.95 18.48 173.38 17.05 174.90 15.73 C 173.94 14.75 172.98 13.76 172.01 12.78 C 172.84 12.21 173.68 11.65 174.46 11.01 C 173.82 9.04 173.70 6.97 173.81 4.91 Z" />
<path fill="#a9a5a6" opacity="1.00" d=" M 21.01 11.18 C 20.07 12.81 18.98 14.35 17.88 15.88 C 19.21 17.27 20.50 18.69 21.76 20.14 C 19.55 22.33 17.15 24.64 13.86 24.84 C 13.12 22.64 14.28 20.80 15.72 19.31 C 15.10 19.38 13.88 19.52 13.26 19.59 C 13.90 18.57 14.75 17.61 15.26 16.53 L 14.89 15.11 C 15.30 14.89 16.12 14.45 16.53 14.23 C 18.09 13.32 19.50 12.17 21.01 11.18 Z" />
<path fill="#a9a5a6" opacity="1.00" d=" M 60.39 140.39 C 72.11 126.90 84.02 113.57 96.14 100.44 C 108.37 113.72 120.42 127.17 132.25 140.81 C 134.41 143.25 136.32 145.87 138.30 148.45 C 122.72 138.99 103.86 137.08 86.02 138.50 C 74.95 139.43 63.99 142.42 54.34 148.03 C 56.31 145.45 58.23 142.82 60.39 140.39 Z" />
</g>
<g id="#676566ff">
<path fill="#676566" opacity="1.00" d=" M 181.18 9.98 C 181.67 9.02 182.15 8.05 182.66 7.09 C 182.21 9.27 183.41 11.21 184.29 13.11 C 183.26 12.06 182.23 11.01 181.18 9.98 Z" />
<path fill="#676566" opacity="1.00" d=" M 9.11 10.21 C 12.46 10.10 7.74 13.28 9.11 10.21 Z" />
<path fill="#676566" opacity="1.00" d=" M 21.76 20.14 C 46.70 46.70 71.53 73.36 96.10 100.27 C 120.79 73.38 145.61 46.60 170.62 20.00 C 172.94 22.18 175.43 24.17 178.02 26.02 C 168.16 68.08 157.73 110.01 147.62 152.01 C 147.02 154.64 146.32 157.25 145.39 159.79 C 144.32 155.31 141.60 151.56 138.30 148.45 C 136.32 145.87 134.41 143.25 132.25 140.81 C 120.42 127.17 108.37 113.72 96.14 100.44 C 84.02 113.57 72.11 126.90 60.39 140.39 C 58.23 142.82 56.31 145.45 54.34 148.03 C 49.76 151.89 45.40 157.61 47.80 163.93 C 37.54 122.00 27.36 80.04 17.26 38.07 C 16.16 33.65 15.28 29.17 13.86 24.84 C 17.15 24.64 19.55 22.33 21.76 20.14 Z" />
</g>
</svg>
