<?xml version="1.0" encoding="UTF-8" ?>
<!DOCTYPE svg PUBLIC "-//W3C//DTD SVG 1.1//EN" "http://www.w3.org/Graphics/SVG/1.1/DTD/svg11.dtd">
<svg width="256pt" height="256pt" viewBox="0 0 256 256" version="1.1" xmlns="http://www.w3.org/2000/svg">
<g id="#731ddaff">
<path fill="#731dda" opacity="1.00" d=" M 34.46 2.80 C 80.26 2.75 126.05 2.80 171.85 2.78 C 172.94 4.23 174.04 5.68 175.12 7.14 C 178.84 12.31 182.68 17.40 186.55 22.46 C 179.28 23.84 171.86 23.17 164.52 23.50 C 163.90 22.68 163.29 21.86 162.68 21.05 C 145.90 21.05 129.11 20.88 112.32 21.07 C 112.31 25.66 112.28 30.26 112.35 34.86 C 106.94 34.66 101.52 34.58 96.10 34.82 C 95.42 36.31 94.75 37.81 94.07 39.30 C 94.10 34.76 94.09 30.23 94.11 25.69 C 94.11 24.17 94.12 22.65 94.13 21.13 C 78.07 20.93 62.01 20.92 45.95 20.97 C 44.19 20.67 43.00 21.92 42.02 23.17 C 34.51 23.42 26.98 23.64 19.50 22.78 C 24.47 16.11 29.51 9.49 34.46 2.80 Z" />
</g>
<g id="#ce2fb4ff">
<path fill="#ce2fb4" opacity="1.00" d=" M 175.12 7.14 C 176.33 7.36 177.39 7.98 178.05 9.04 C 188.29 22.72 198.54 36.37 208.81 50.03 C 207.92 59.45 209.86 69.17 207.20 78.38 C 204.54 76.67 204.24 73.46 203.91 70.62 C 204.03 62.27 204.25 53.90 203.72 45.56 C 198.30 37.65 192.31 30.13 186.55 22.46 C 182.68 17.40 178.84 12.31 175.12 7.14 Z" />
<path fill="#ce2fb4" opacity="1.00" d=" M 20.80 57.63 C 75.73 57.61 130.66 57.58 185.60 57.64 C 185.59 59.19 185.59 60.74 185.60 62.30 C 132.30 62.34 79.01 62.23 25.72 62.35 L 25.22 62.38 C 24.64 68.38 24.99 74.42 24.66 80.43 C 23.47 80.73 22.27 81.03 21.08 81.32 C 21.19 73.43 21.19 65.52 20.80 57.63 Z" />
</g>
<g id="#dc32aeff">
<path fill="#dc32ae" opacity="1.00" d=" M 42.02 23.17 C 43.00 21.92 44.19 20.67 45.95 20.97 C 62.01 20.92 78.07 20.93 94.13 21.13 C 94.12 22.65 94.11 24.17 94.11 25.69 C 78.95 25.66 63.80 25.69 48.64 25.67 C 45.20 30.21 41.80 34.78 38.36 39.31 C 35.64 39.29 32.92 39.25 30.20 39.21 C 34.07 33.82 38.22 28.62 42.02 23.17 Z" />
<path fill="#dc32ae" opacity="1.00" d=" M 112.32 21.07 C 129.11 20.88 145.90 21.05 162.68 21.05 C 163.29 21.86 163.90 22.68 164.52 23.50 C 165.06 24.22 165.60 24.95 166.15 25.67 C 149.86 25.68 133.56 25.67 117.27 25.68 C 117.27 30.22 117.27 34.76 117.26 39.30 C 115.65 39.27 114.04 39.23 112.43 39.18 C 112.40 37.74 112.37 36.30 112.35 34.86 C 112.28 30.26 112.31 25.66 112.32 21.07 Z" />
</g>
<g id="#8621d2ff">
<path fill="#8621d2" opacity="1.00" d=" M 186.55 22.46 C 192.31 30.13 198.30 37.65 203.72 45.56 C 202.86 51.89 202.88 58.29 202.65 64.67 C 196.96 64.88 191.28 64.81 185.59 64.81 C 185.59 63.97 185.59 63.13 185.60 62.30 C 185.59 60.74 185.59 59.19 185.60 57.64 C 130.66 57.58 75.73 57.61 20.80 57.63 C 20.57 58.71 20.36 59.79 20.17 60.88 C 14.27 60.81 8.37 60.84 2.47 60.95 C 2.48 55.74 2.43 50.54 2.51 45.33 C 8.22 37.85 13.83 30.29 19.50 22.78 C 26.98 23.64 34.51 23.42 42.02 23.17 C 38.22 28.62 34.07 33.82 30.20 39.21 C 32.92 39.25 35.64 39.29 38.36 39.31 C 56.93 39.33 75.50 39.35 94.07 39.30 C 94.75 37.81 95.42 36.31 96.10 34.82 C 101.52 34.58 106.94 34.66 112.35 34.86 C 112.37 36.30 112.40 37.74 112.43 39.18 C 114.04 39.23 115.65 39.27 117.26 39.30 C 136.97 39.36 156.68 39.32 176.40 39.32 C 172.99 34.76 169.56 30.23 166.15 25.67 C 165.60 24.95 165.06 24.22 164.52 23.50 C 171.86 23.17 179.28 23.84 186.55 22.46 Z" />
</g>
<g id="#9624cbff">
<path fill="#9624cb" opacity="1.00" d=" M 203.72 45.56 C 204.25 53.90 204.03 62.27 203.91 70.62 L 203.87 71.59 C 203.21 75.64 202.72 79.71 202.59 83.81 C 196.92 84.09 191.26 83.94 185.59 83.92 C 185.59 77.55 185.59 71.18 185.59 64.81 C 191.28 64.81 196.96 64.88 202.65 64.67 C 202.88 58.29 202.86 51.89 203.72 45.56 Z" />
</g>
<g id="#b32abfff">
<path fill="#b32abf" opacity="1.00" d=" M 208.81 50.03 C 208.85 80.33 208.80 110.64 208.82 140.94 C 207.46 141.36 206.12 141.84 204.78 142.30 C 203.96 140.33 203.14 138.36 202.32 136.38 C 196.75 136.09 191.17 136.20 185.59 136.17 C 185.59 125.16 185.60 114.16 185.60 103.15 C 191.35 103.36 197.12 103.49 202.86 103.01 C 204.11 92.58 203.86 82.07 203.87 71.59 L 203.91 70.62 C 204.24 73.46 204.54 76.67 207.20 78.38 C 209.86 69.17 207.92 59.45 208.81 50.03 Z" />
</g>
<g id="#a527c5ff">
<path fill="#a527c5" opacity="1.00" d=" M 20.17 60.88 C 20.36 59.79 20.57 58.71 20.80 57.63 C 21.19 65.52 21.19 73.43 21.08 81.32 C 20.95 86.76 20.89 92.19 20.78 97.62 C 20.40 101.00 19.89 104.37 19.50 107.75 C 13.83 108.19 8.15 108.09 2.47 108.01 C 2.47 102.32 2.48 96.64 2.47 90.95 C 8.21 91.16 13.96 91.24 19.69 90.77 C 20.02 85.54 20.00 80.29 20.09 75.04 C 20.28 70.32 20.06 65.60 20.17 60.88 Z" />
</g>
<g id="#9324cdff">
<path fill="#9324cd" opacity="1.00" d=" M 2.47 60.95 C 8.37 60.84 14.27 60.81 20.17 60.88 C 20.06 65.60 20.28 70.32 20.09 75.04 C 14.22 75.02 8.35 75.03 2.48 75.08 C 2.47 70.37 2.47 65.66 2.47 60.95 Z" />
</g>
<g id="#be2cbaff">
<path fill="#be2cba" opacity="1.00" d=" M 25.22 62.38 L 25.72 62.35 C 25.73 82.18 25.68 102.01 25.72 121.84 C 24.27 120.38 22.79 118.94 21.31 117.52 C 20.97 110.89 21.43 104.24 20.78 97.62 C 20.89 92.19 20.95 86.76 21.08 81.32 C 22.27 81.03 23.47 80.73 24.66 80.43 C 24.99 74.42 24.64 68.38 25.22 62.38 Z" />
</g>
<g id="#a127c7ff">
<path fill="#a127c7" opacity="1.00" d=" M 202.59 83.81 C 202.72 79.71 203.21 75.64 203.87 71.59 C 203.86 82.07 204.11 92.58 202.86 103.01 C 197.12 103.49 191.35 103.36 185.60 103.15 C 185.59 96.74 185.60 90.33 185.59 83.92 C 191.26 83.94 196.92 84.09 202.59 83.81 Z" />
</g>
<g id="#9b25c9ff">
<path fill="#9b25c9" opacity="1.00" d=" M 2.48 75.08 C 8.35 75.03 14.22 75.02 20.09 75.04 C 20.00 80.29 20.02 85.54 19.69 90.77 C 13.96 91.24 8.21 91.16 2.47 90.95 C 2.47 85.66 2.47 80.37 2.48 75.08 Z" />
</g>
<g id="#9c26c9ff">
<path fill="#9c26c9" opacity="1.00" d=" M 67.08 82.05 C 68.31 78.34 72.10 75.82 75.98 75.93 C 94.01 75.88 112.04 75.90 130.08 75.92 C 133.91 75.67 137.29 78.05 139.20 81.23 C 141.01 86.54 138.06 93.44 131.99 93.87 C 121.02 94.59 109.98 93.94 98.99 94.15 C 90.10 94.00 81.19 94.58 72.33 93.70 C 67.99 91.83 65.32 86.59 67.08 82.05 Z" />
</g>
<g id="#c02cbaff">
<path fill="#c02cba" opacity="1.00" d=" M 139.20 81.23 C 142.16 82.71 144.54 85.55 144.71 88.95 C 145.26 93.90 141.04 98.76 136.04 98.80 C 117.68 98.91 99.30 98.83 80.94 98.83 C 77.32 99.02 74.05 96.79 72.33 93.70 C 81.19 94.58 90.10 94.00 98.99 94.15 C 109.98 93.94 121.02 94.59 131.99 93.87 C 138.06 93.44 141.01 86.54 139.20 81.23 Z" />
</g>
<g id="#b029c1ff">
<path fill="#b029c1" opacity="1.00" d=" M 19.50 107.75 C 19.89 104.37 20.40 101.00 20.78 97.62 C 21.43 104.24 20.97 110.89 21.31 117.52 C 22.79 118.94 24.27 120.38 25.72 121.84 C 25.70 132.22 25.70 142.60 25.71 152.99 C 24.19 152.96 22.67 152.95 21.15 152.93 C 20.51 144.36 21.99 135.61 20.03 127.18 C 14.18 126.82 8.32 126.95 2.47 127.09 C 2.47 120.73 2.47 114.37 2.47 108.01 C 8.15 108.09 13.83 108.19 19.50 107.75 Z" />
</g>
<g id="#ba2cbdff">
<path fill="#ba2cbd" opacity="1.00" d=" M 2.47 127.09 C 8.32 126.95 14.18 126.82 20.03 127.18 C 21.99 135.61 20.51 144.36 21.15 152.93 C 21.09 155.09 20.90 157.25 20.79 159.42 C 20.15 155.04 19.68 150.64 19.56 146.22 C 13.87 145.72 8.17 145.86 2.47 146.07 C 2.46 139.74 2.48 133.42 2.47 127.09 Z" />
</g>
<g id="#c42eb8ff">
<path fill="#c42eb8" opacity="1.00" d=" M 185.59 136.17 C 191.17 136.20 196.75 136.09 202.32 136.38 C 203.14 138.36 203.96 140.33 204.78 142.30 C 206.12 141.84 207.46 141.36 208.82 140.94 C 216.54 138.84 225.00 140.10 232.03 143.80 C 237.13 146.36 240.97 150.69 245.08 154.52 C 246.20 157.20 247.19 159.93 248.07 162.69 C 241.53 161.83 234.93 161.96 228.37 162.24 C 228.54 162.91 228.87 164.25 229.04 164.92 C 228.61 164.63 227.75 164.04 227.32 163.74 C 224.00 158.95 217.50 157.21 212.08 159.04 C 208.59 160.15 205.86 162.73 203.29 165.24 C 197.57 170.91 191.47 176.19 185.81 181.93 C 178.93 175.96 172.85 169.03 165.42 163.72 C 163.31 161.29 160.76 159.01 157.42 158.61 C 151.78 157.28 146.20 160.12 142.45 164.20 C 136.34 161.67 129.55 163.54 123.16 162.61 C 124.76 157.84 127.39 153.41 130.94 149.83 C 140.13 140.27 155.28 137.24 167.44 142.54 C 174.74 145.38 179.84 151.55 185.59 156.57 C 185.59 149.77 185.60 142.97 185.59 136.17 Z" />
</g>
<g id="#c52eb8ff">
<path fill="#c52eb8" opacity="1.00" d=" M 2.47 146.07 C 8.17 145.86 13.87 145.72 19.56 146.22 C 19.68 150.64 20.15 155.04 20.79 159.42 C 21.07 168.18 20.99 176.94 21.00 185.71 L 20.28 185.67 C 20.08 184.14 19.95 182.61 19.87 181.08 C 19.94 175.80 20.13 170.51 19.69 165.24 C 13.96 164.82 8.22 164.86 2.47 164.95 C 2.47 158.66 2.48 152.36 2.47 146.07 Z" />
</g>
<g id="#a327c5ff">
<path fill="#a327c5" opacity="1.00" d=" M 21.15 152.93 C 22.67 152.95 24.19 152.96 25.71 152.99 C 25.71 163.90 25.71 174.81 25.70 185.72 C 24.13 185.74 22.57 185.73 21.00 185.71 C 20.99 176.94 21.07 168.18 20.79 159.42 C 20.90 157.25 21.09 155.09 21.15 152.93 Z" />
<path fill="#a327c5" opacity="1.00" d=" M 212.08 159.04 C 217.50 157.21 224.00 158.95 227.32 163.74 C 221.98 162.16 215.78 162.67 211.58 166.62 C 204.55 173.17 197.62 179.81 190.62 186.38 C 189.02 184.89 187.42 183.40 185.81 181.93 C 191.47 176.19 197.57 170.91 203.29 165.24 C 205.86 162.73 208.59 160.15 212.08 159.04 Z" />
</g>
<g id="#9a25c9ff">
<path fill="#9a25c9" opacity="1.00" d=" M 245.08 154.52 C 255.70 164.78 257.27 182.28 249.82 194.80 C 246.56 200.70 241.11 204.84 236.48 209.59 C 233.59 209.26 230.69 208.94 227.80 208.62 C 230.42 205.97 233.04 203.33 235.77 200.79 C 240.28 196.85 244.25 192.21 246.68 186.69 C 250.03 179.19 250.47 170.52 248.07 162.69 C 247.19 159.93 246.20 157.20 245.08 154.52 Z" />
</g>
<g id="#a427c5ff">
<path fill="#a427c5" opacity="1.00" d=" M 142.45 164.20 C 146.20 160.12 151.78 157.28 157.42 158.61 C 160.76 159.01 163.31 161.29 165.42 163.72 C 162.30 163.08 159.03 162.40 155.88 163.30 C 149.67 164.75 144.81 170.61 144.67 177.01 C 144.45 180.75 146.04 184.26 147.93 187.38 C 145.26 185.12 142.66 182.70 140.94 179.60 C 139.20 174.52 139.36 168.75 142.45 164.20 Z" />
</g>
<g id="#d030b3ff">
<path fill="#d030b3" opacity="1.00" d=" M 228.37 162.24 C 234.93 161.96 241.53 161.83 248.07 162.69 C 250.47 170.52 250.03 179.19 246.68 186.69 C 239.65 185.34 232.47 186.32 225.39 185.50 C 231.21 180.53 233.37 171.54 229.04 164.92 C 228.87 164.25 228.54 162.91 228.37 162.24 Z" />
</g>
<g id="#ce30b4ff">
<path fill="#ce30b4" opacity="1.00" d=" M 122.22 179.44 C 121.14 173.86 121.50 168.04 123.16 162.61 C 129.55 163.54 136.34 161.67 142.45 164.20 C 139.36 168.75 139.20 174.52 140.94 179.60 C 134.72 178.96 128.45 179.06 122.22 179.44 Z" />
</g>
<g id="#cf30b4ff">
<path fill="#cf30b4" opacity="1.00" d=" M 2.47 164.95 C 8.22 164.86 13.96 164.82 19.69 165.24 C 20.13 170.51 19.94 175.80 19.87 181.08 C 14.07 181.17 8.27 181.19 2.47 181.11 C 2.47 175.72 2.48 170.34 2.47 164.95 Z" />
</g>
<g id="#dc33afff">
<path fill="#dc33af" opacity="1.00" d=" M 122.22 179.44 C 128.45 179.06 134.72 178.96 140.94 179.60 C 142.66 182.70 145.26 185.12 147.93 187.38 C 153.78 193.14 159.71 198.82 165.57 204.57 C 157.21 205.43 148.77 204.35 140.45 205.61 C 139.41 204.95 138.39 204.03 137.10 204.01 C 93.87 204.03 50.62 204.18 7.39 203.94 C 5.75 203.91 4.11 203.90 2.47 203.89 C 2.47 196.30 2.48 188.71 2.47 181.11 C 8.27 181.19 14.07 181.17 19.87 181.08 C 19.95 182.61 20.08 184.14 20.28 185.67 L 21.00 185.71 C 22.57 185.73 24.13 185.74 25.70 185.72 C 58.45 185.64 91.20 185.69 123.95 185.69 C 123.33 183.62 122.71 181.54 122.22 179.44 Z" />
</g>
<g id="#db33afff">
<path fill="#db33af" opacity="1.00" d=" M 210.66 199.74 C 215.56 194.98 220.46 190.23 225.39 185.50 C 232.47 186.32 239.65 185.34 246.68 186.69 C 244.25 192.21 240.28 196.85 235.77 200.79 C 227.46 199.38 219.02 200.47 210.66 199.74 Z" />
</g>
<g id="#e435abff">
<path fill="#e435ab" opacity="1.00" d=" M 191.36 218.51 C 197.78 212.23 204.22 205.99 210.66 199.74 C 219.02 200.47 227.46 199.38 235.77 200.79 C 233.04 203.33 230.42 205.97 227.80 208.62 C 223.84 212.59 219.80 216.47 215.73 220.33 C 207.94 217.33 199.43 220.03 191.36 218.51 Z" />
</g>
<g id="#9424cbff">
<path fill="#9424cb" opacity="1.00" d=" M 7.39 203.94 C 50.62 204.18 93.87 204.03 137.10 204.01 C 138.39 204.03 139.41 204.95 140.45 205.61 C 141.36 206.53 142.26 207.48 143.16 208.41 C 97.92 208.80 52.67 208.47 7.42 208.58 C 7.41 207.03 7.40 205.48 7.39 203.94 Z" />
</g>
<g id="#e635aaff">
<path fill="#e635aa" opacity="1.00" d=" M 140.45 205.61 C 148.77 204.35 157.21 205.43 165.57 204.57 C 170.80 209.66 176.04 214.76 181.28 219.83 C 172.82 220.37 164.27 219.28 155.87 220.73 L 155.75 220.75 C 151.59 216.59 147.31 212.57 143.16 208.41 C 142.26 207.48 141.36 206.53 140.45 205.61 Z" />
</g>
<g id="#8b22cfff">
<path fill="#8b22cf" opacity="1.00" d=" M 215.73 220.33 C 219.80 216.47 223.84 212.59 227.80 208.62 C 230.69 208.94 233.59 209.26 236.48 209.59 C 223.14 222.61 209.71 235.54 196.37 248.57 C 193.38 248.40 190.39 248.21 187.40 247.97 C 196.76 238.67 206.30 229.56 215.73 220.33 Z" />
</g>
<g id="#ef37a7ff">
<path fill="#ef37a7" opacity="1.00" d=" M 185.63 224.06 C 187.54 222.21 189.45 220.36 191.36 218.51 C 199.43 220.03 207.94 217.33 215.73 220.33 C 206.30 229.56 196.76 238.67 187.40 247.97 C 186.82 248.54 186.24 249.12 185.66 249.70 C 175.67 240.11 165.70 230.48 155.87 220.73 C 164.27 219.28 172.82 220.37 181.28 219.83 C 182.73 221.24 184.18 222.65 185.63 224.06 Z" />
</g>
<g id="#7d249aff">
<path fill="#7d249a" opacity="1.00" d=" M 185.66 249.70 C 186.24 249.12 186.82 248.54 187.40 247.97 C 190.39 248.21 193.38 248.40 196.37 248.57 C 195.42 249.49 194.46 250.41 193.51 251.33 C 191.44 251.29 189.38 251.24 187.32 251.20 C 186.90 250.83 186.08 250.08 185.66 249.70 Z" />
</g>
<g id="#732663fa">
<path fill="#732663" opacity="0.98" d=" M 187.32 251.20 C 189.38 251.24 191.44 251.29 193.51 251.33 C 192.52 252.31 191.53 253.30 190.54 254.29 C 189.46 253.26 188.38 252.24 187.32 251.20 Z" />
</g>
</svg>
