<?xml version="1.0" encoding="UTF-8" ?>
<!DOCTYPE svg PUBLIC "-//W3C//DTD SVG 1.1//EN" "http://www.w3.org/Graphics/SVG/1.1/DTD/svg11.dtd">
<svg width="48pt" height="48pt" viewBox="0 0 48 48" version="1.1" xmlns="http://www.w3.org/2000/svg">
<g id="#000000ff">
<path fill="#000000" opacity="1.00" d=" M 0.00 0.00 L 48.00 0.00 L 48.00 26.29 C 47.68 26.19 47.04 25.98 46.72 25.87 C 38.01 18.41 29.87 10.29 20.93 3.09 C 20.89 6.03 20.87 8.96 20.89 11.90 C 23.12 13.83 25.26 15.84 27.39 17.87 C 22.10 15.93 16.99 13.51 11.62 11.79 L 10.34 11.27 C 10.32 14.17 10.31 17.07 10.33 19.96 C 13.16 22.29 15.86 24.78 18.43 27.38 C 12.31 24.66 6.10 22.15 0.00 19.38 L 0.00 0.00 Z" />
<path fill="#000000" opacity="1.00" d=" M 0.00 27.83 C 12.48 32.83 24.70 38.50 37.34 43.10 C 37.36 40.58 37.40 38.06 37.47 35.54 C 35.90 33.93 34.27 32.37 32.64 30.81 L 32.44 29.23 C 37.67 31.30 42.84 33.51 48.00 35.74 L 48.00 48.00 L 0.00 48.00 L 0.00 27.83 Z" />
</g>
<g id="#777777ff">
<path fill="#777777" opacity="1.00" d=" M 20.93 3.09 C 29.87 10.29 38.01 18.41 46.72 25.87 C 41.75 25.55 37.35 23.11 32.75 21.46 C 30.69 20.71 29.02 19.27 27.39 17.87 C 25.26 15.84 23.12 13.83 20.89 11.90 C 20.87 8.96 20.89 6.03 20.93 3.09 Z" />
<path fill="#777777" opacity="1.00" d=" M 10.34 11.27 L 11.62 11.79 C 18.74 18.02 25.64 24.47 32.64 30.81 C 34.27 32.37 35.90 33.93 37.47 35.54 C 37.40 38.06 37.36 40.58 37.34 43.10 C 24.70 38.50 12.48 32.83 0.00 27.83 L 0.00 19.38 C 6.10 22.15 12.31 24.66 18.43 27.38 C 15.86 24.78 13.16 22.29 10.33 19.96 C 10.31 17.07 10.32 14.17 10.34 11.27 Z" />
</g>
<g id="#2e2e2eff">
<path fill="#2e2e2e" opacity="1.00" d=" M 11.62 11.79 C 16.99 13.51 22.10 15.93 27.39 17.87 C 29.02 19.27 30.69 20.71 32.75 21.46 C 37.35 23.11 41.75 25.55 46.72 25.87 C 47.04 25.98 47.68 26.19 48.00 26.29 L 48.00 35.74 C 42.84 33.51 37.67 31.30 32.44 29.23 L 32.64 30.81 C 25.64 24.47 18.74 18.02 11.62 11.79 Z" />
</g>
</svg>
