<?xml version="1.0" encoding="UTF-8" ?>
<!DOCTYPE svg PUBLIC "-//W3C//DTD SVG 1.1//EN" "http://www.w3.org/Graphics/SVG/1.1/DTD/svg11.dtd">
<svg width="64pt" height="64pt" viewBox="0 0 64 64" version="1.1" xmlns="http://www.w3.org/2000/svg">
<g id="#ff6600ff">
<path fill="#ff6600" opacity="1.00" d=" M 26.91 13.65 C 28.81 10.44 30.67 7.22 32.55 4.00 C 34.41 7.22 36.27 10.45 38.13 13.67 C 41.52 12.19 44.90 10.69 48.30 9.21 C 47.93 12.91 47.53 16.61 47.17 20.31 C 50.78 21.12 54.39 21.90 57.99 22.70 C 55.55 25.48 53.11 28.26 50.64 31.01 C 53.02 33.85 55.52 36.60 57.95 39.39 C 54.35 40.18 50.75 40.96 47.15 41.74 C 47.49 45.46 47.87 49.16 48.22 52.88 C 44.83 51.38 41.45 49.86 38.06 48.37 C 36.17 51.57 34.32 54.79 32.46 58.00 C 30.50 54.79 28.84 51.40 26.68 48.31 C 23.42 49.94 20.04 51.32 16.71 52.80 C 17.06 49.09 17.48 45.39 17.82 41.68 C 14.21 40.90 10.61 40.11 7.00 39.31 C 9.42 36.51 11.92 33.77 14.38 31.01 C 11.93 28.21 9.45 25.43 7.01 22.63 C 10.62 21.84 14.24 21.06 17.85 20.26 C 17.50 16.55 17.13 12.85 16.77 9.15 C 20.15 10.65 23.53 12.16 26.91 13.65 M 24.00 24.00 C 24.00 25.67 24.00 27.33 24.00 29.00 C 29.67 29.00 35.33 29.00 41.00 29.00 C 41.00 27.33 41.00 25.67 41.00 24.00 C 35.33 24.00 29.67 24.00 24.00 24.00 M 24.00 33.00 C 24.00 34.67 24.00 36.33 24.00 38.00 C 29.67 38.00 35.33 38.00 41.00 38.00 C 41.00 36.33 41.00 34.67 41.00 33.00 C 35.33 33.00 29.67 33.00 24.00 33.00 Z" />
</g>
</svg>
