<?xml version="1.0" encoding="UTF-8" ?>
<!DOCTYPE svg PUBLIC "-//W3C//DTD SVG 1.1//EN" "http://www.w3.org/Graphics/SVG/1.1/DTD/svg11.dtd">
<svg width="290pt" height="292pt" viewBox="0 0 290 292" version="1.1" xmlns="http://www.w3.org/2000/svg">
<g id="#dcdcdcff">
<path fill="#dcdcdc" opacity="1.00" d=" M 0.00 0.00 L 290.00 0.00 L 290.00 292.00 L 0.00 292.00 L 0.00 0.00 M 1.04 1.05 C 0.97 97.68 0.98 194.32 1.03 290.95 C 97.01 291.05 192.99 291.01 288.96 290.97 C 289.02 194.32 289.02 97.68 288.97 1.03 C 192.99 0.99 97.01 0.96 1.04 1.05 Z" />
</g>
<g id="#ffffffff">
<path fill="#ffffff" opacity="1.00" d=" M 1.04 1.05 C 97.01 0.96 192.99 0.99 288.97 1.03 C 289.02 97.68 289.02 194.32 288.96 290.97 C 192.99 291.01 97.01 291.05 1.03 290.95 C 0.98 194.32 0.97 97.68 1.04 1.05 M 118.24 65.48 C 104.13 59.27 89.84 53.47 75.68 47.37 C 73.94 46.60 72.15 45.94 70.32 45.40 C 70.04 45.20 69.49 44.79 69.21 44.58 C 70.48 61.81 72.79 78.97 74.30 96.19 C 73.77 96.31 72.72 96.57 72.20 96.70 C 55.40 100.21 38.58 103.68 21.80 107.30 C 32.10 118.61 42.58 129.75 52.93 141.01 C 54.55 142.73 56.21 144.42 57.53 146.39 C 55.58 147.82 54.10 149.76 52.45 151.50 C 43.02 161.71 33.58 171.91 24.12 182.08 C 23.24 183.03 22.47 184.07 21.75 185.15 C 22.01 185.04 22.52 184.81 22.78 184.70 C 39.09 188.59 55.58 191.77 71.99 195.19 C 72.56 195.36 73.71 195.70 74.28 195.86 C 72.66 213.00 70.69 230.11 69.04 247.25 C 85.70 240.54 102.05 233.06 118.78 226.53 C 118.96 227.98 119.95 229.14 120.64 230.38 C 128.85 243.57 136.56 257.07 145.01 270.10 L 144.16 269.57 C 144.64 270.17 145.60 271.37 146.08 271.97 C 146.09 271.19 146.11 269.65 146.12 268.88 C 147.31 268.68 147.82 267.36 148.45 266.49 C 156.47 253.27 164.40 239.98 172.56 226.86 L 173.48 226.74 C 189.55 233.75 205.75 240.50 221.93 247.27 C 220.36 230.10 218.13 212.98 216.80 195.81 L 216.11 195.51 L 216.85 195.81 C 231.22 192.56 245.68 189.73 260.09 186.64 C 263.19 185.92 266.45 185.64 269.36 184.24 L 268.53 184.06 C 257.03 171.25 245.21 158.70 233.49 146.10 C 245.41 133.16 257.51 120.37 269.29 107.30 C 254.91 104.04 240.44 101.22 226.03 98.11 C 222.90 97.32 219.55 97.24 216.67 95.68 C 218.60 78.71 220.28 61.72 222.01 44.74 C 221.63 44.89 220.88 45.20 220.50 45.35 C 204.51 51.88 188.64 58.72 172.74 65.46 C 163.77 50.50 154.68 35.62 145.62 20.72 C 136.13 35.40 127.39 50.58 118.24 65.48 Z" />
<path fill="#ffffff" opacity="1.00" d=" M 113.94 120.24 C 124.61 120.24 135.27 120.24 145.94 120.24 C 157.19 120.25 168.44 120.24 179.69 120.25 C 179.70 124.58 179.70 128.91 179.70 133.25 C 168.44 133.28 157.18 133.25 145.93 133.26 C 135.26 133.25 124.60 133.27 113.94 133.25 C 113.92 128.92 113.92 124.58 113.94 120.24 Z" />
<path fill="#ffffff" opacity="1.00" d=" M 114.04 150.39 C 123.64 150.46 133.23 150.44 142.83 150.41 C 144.72 150.40 146.62 150.39 148.52 150.39 C 158.91 150.48 169.29 150.40 179.68 150.43 C 179.71 154.78 179.72 159.12 179.65 163.47 C 172.72 163.43 165.79 163.46 158.86 163.44 C 149.94 163.44 141.03 163.44 132.12 163.44 C 126.06 163.44 120.00 163.46 113.95 163.43 C 113.93 159.08 113.86 154.73 114.04 150.39 Z" />
</g>
<g id="#ff9281ff">
<path fill="#ff9281" opacity="1.00" d=" M 118.24 65.48 C 127.39 50.58 136.13 35.40 145.62 20.72 C 154.68 35.62 163.77 50.50 172.74 65.46 C 163.91 76.21 154.91 86.86 146.51 97.95 C 146.36 98.21 146.06 98.75 145.91 99.01 C 145.50 98.79 144.68 98.34 144.27 98.12 C 136.10 86.86 126.79 76.45 118.24 65.48 Z" />
<path fill="#ff9281" opacity="1.00" d=" M 132.12 163.44 C 141.03 163.44 149.94 163.44 158.86 163.44 C 163.64 169.95 168.88 176.13 173.43 182.82 C 173.55 189.60 173.65 196.39 173.32 203.17 C 173.38 196.70 173.54 190.21 173.19 183.74 C 164.45 195.53 156.18 207.67 147.53 219.52 C 146.62 220.85 145.42 222.18 145.60 223.92 C 145.51 237.28 145.72 250.65 145.47 264.02 C 145.49 265.65 145.84 267.26 146.12 268.88 C 146.11 269.65 146.09 271.19 146.08 271.97 C 145.60 271.37 144.64 270.17 144.16 269.57 L 145.01 270.10 C 145.88 255.07 145.27 240.00 145.49 224.95 C 145.91 222.33 144.07 220.37 142.66 218.42 C 134.31 206.89 126.23 195.17 117.81 183.70 C 117.44 190.50 117.54 197.32 117.75 204.14 C 117.25 197.06 117.31 189.95 117.71 182.87 C 122.01 176.04 127.52 170.07 132.12 163.44 Z" />
</g>
<g id="#dc1d23ff">
<path fill="#dc1d23" opacity="1.00" d=" M 69.21 44.58 C 69.49 44.79 70.04 45.20 70.32 45.40 C 71.09 46.72 71.80 48.09 72.68 49.35 C 81.20 60.51 89.94 71.51 98.28 82.80 C 98.12 90.87 99.15 98.91 99.00 106.98 C 98.92 114.78 99.39 122.57 99.48 130.38 C 91.58 119.95 84.01 109.28 76.21 98.79 C 75.36 97.29 73.86 96.70 72.20 96.70 C 72.72 96.57 73.77 96.31 74.30 96.19 C 72.79 78.97 70.48 61.81 69.21 44.58 Z" />
</g>
<g id="#fc684dff">
<path fill="#fc684d" opacity="1.00" d=" M 220.50 45.35 C 220.88 45.20 221.63 44.89 222.01 44.74 C 220.28 61.72 218.60 78.71 216.67 95.68 C 209.17 107.79 199.64 118.56 191.93 130.53 C 192.27 130.79 192.94 131.31 193.28 131.57 C 193.50 132.61 193.56 133.78 194.30 134.63 C 203.44 146.13 212.79 157.47 221.72 169.13 C 205.99 173.71 190.19 178.07 174.44 182.61 L 173.43 182.82 C 168.88 176.13 163.64 169.95 158.86 163.44 C 165.79 163.46 172.72 163.43 179.65 163.47 C 179.72 159.12 179.71 154.78 179.68 150.43 C 169.29 150.40 158.91 150.48 148.52 150.39 C 147.52 148.80 146.48 147.23 145.17 145.88 C 144.87 145.69 144.26 145.32 143.95 145.14 C 144.45 145.15 145.44 145.17 145.93 145.19 C 161.09 140.83 176.00 135.57 191.03 130.77 C 191.76 118.95 191.69 107.09 192.21 95.26 C 193.39 90.02 191.43 83.76 195.29 79.41 C 202.89 69.63 210.39 59.77 218.05 50.03 C 219.18 48.65 219.86 47.00 220.50 45.35 Z" />
</g>
<g id="#fc694fff">
<path fill="#fc694f" opacity="1.00" d=" M 70.32 45.40 C 72.15 45.94 73.94 46.60 75.68 47.37 C 89.84 53.47 104.13 59.27 118.24 65.48 C 126.79 76.45 136.10 86.86 144.27 98.12 C 141.27 97.38 138.27 96.65 135.37 95.59 C 123.05 91.22 110.62 87.14 98.28 82.80 C 89.94 71.51 81.20 60.51 72.68 49.35 C 71.80 48.09 71.09 46.72 70.32 45.40 Z" />
</g>
<g id="#ee5240ff">
<path fill="#ee5240" opacity="1.00" d=" M 172.74 65.46 C 188.64 58.72 204.51 51.88 220.50 45.35 C 219.86 47.00 219.18 48.65 218.05 50.03 C 210.39 59.77 202.89 69.63 195.29 79.41 C 191.43 83.76 193.39 90.02 192.21 95.26 C 192.14 91.25 192.08 87.24 192.10 83.23 C 178.62 87.53 165.35 92.47 151.90 96.90 C 150.14 97.41 148.31 97.66 146.51 97.95 C 154.91 86.86 163.91 76.21 172.74 65.46 Z" />
</g>
<g id="#ff4527ff">
<path fill="#ff4527" opacity="1.00" d=" M 98.28 82.80 C 110.62 87.14 123.05 91.22 135.37 95.59 C 138.27 96.65 141.27 97.38 144.27 98.12 C 144.68 98.34 145.50 98.79 145.91 99.01 C 145.86 106.09 145.89 113.16 145.94 120.24 C 135.27 120.24 124.61 120.24 113.94 120.24 C 113.92 124.58 113.92 128.92 113.94 133.25 C 124.60 133.27 135.26 133.25 145.93 133.26 C 145.87 137.24 145.87 141.21 145.93 145.19 C 145.44 145.17 144.45 145.15 143.95 145.14 C 129.14 140.35 114.41 135.29 99.49 130.87 L 99.48 130.38 C 99.39 122.57 98.92 114.78 99.00 106.98 C 99.15 98.91 98.12 90.87 98.28 82.80 Z" />
</g>
<g id="#e6331fff">
<path fill="#e6331f" opacity="1.00" d=" M 151.90 96.90 C 165.35 92.47 178.62 87.53 192.10 83.23 C 192.08 87.24 192.14 91.25 192.21 95.26 C 191.69 107.09 191.76 118.95 191.03 130.77 C 176.00 135.57 161.09 140.83 145.93 145.19 C 145.87 141.21 145.87 137.24 145.93 133.26 C 157.18 133.25 168.44 133.28 179.70 133.25 C 179.70 128.91 179.70 124.58 179.69 120.25 C 168.44 120.24 157.19 120.25 145.94 120.24 C 145.89 113.16 145.86 106.09 145.91 99.01 C 146.06 98.75 146.36 98.21 146.51 97.95 C 148.31 97.66 150.14 97.41 151.90 96.90 Z" />
</g>
<g id="#ff8979ff">
<path fill="#ff8979" opacity="1.00" d=" M 191.93 130.53 C 199.64 118.56 209.17 107.79 216.67 95.68 C 219.55 97.24 222.90 97.32 226.03 98.11 C 240.44 101.22 254.91 104.04 269.29 107.30 C 257.51 120.37 245.41 133.16 233.49 146.10 C 220.17 141.03 206.64 136.52 193.28 131.57 C 192.94 131.31 192.27 130.79 191.93 130.53 Z" />
</g>
<g id="#ff3413ff">
<path fill="#ff3413" opacity="1.00" d=" M 21.80 107.30 C 38.58 103.68 55.40 100.21 72.20 96.70 C 73.86 96.70 75.36 97.29 76.21 98.79 C 84.01 109.28 91.58 119.95 99.48 130.38 L 99.49 130.87 C 99.27 131.16 98.84 131.76 98.62 132.05 C 96.18 132.74 93.71 133.32 91.33 134.21 C 80.11 138.39 68.75 142.21 57.53 146.39 C 56.21 144.42 54.55 142.73 52.93 141.01 C 42.58 129.75 32.10 118.61 21.80 107.30 Z" />
</g>
<g id="#fc745cff">
<path fill="#fc745c" opacity="1.00" d=" M 99.49 130.87 C 114.41 135.29 129.14 140.35 143.95 145.14 C 144.26 145.32 144.87 145.69 145.17 145.88 C 144.38 147.38 143.60 148.89 142.83 150.41 C 133.23 150.44 123.64 150.46 114.04 150.39 C 113.86 154.73 113.93 159.08 113.95 163.43 C 120.00 163.46 126.06 163.44 132.12 163.44 C 127.52 170.07 122.01 176.04 117.71 182.87 C 117.14 182.72 116.00 182.40 115.43 182.24 C 100.02 177.83 84.56 173.55 69.17 169.06 C 78.95 156.69 88.95 144.50 98.62 132.05 C 98.84 131.76 99.27 131.16 99.49 130.87 Z" />
</g>
<g id="#eb2000ff">
<path fill="#eb2000" opacity="1.00" d=" M 91.33 134.21 C 93.71 133.32 96.18 132.74 98.62 132.05 C 88.95 144.50 78.95 156.69 69.17 169.06 C 56.27 173.06 43.51 177.54 30.63 181.61 C 27.94 182.44 25.34 183.54 22.78 184.70 C 22.52 184.81 22.01 185.04 21.75 185.15 C 22.47 184.07 23.24 183.03 24.12 182.08 C 33.58 171.91 43.02 161.71 52.45 151.50 C 54.10 149.76 55.58 147.82 57.53 146.39 C 68.75 142.21 80.11 138.39 91.33 134.21 Z" />
<path fill="#eb2000" opacity="1.00" d=" M 173.43 182.82 L 174.44 182.61 C 188.35 186.80 202.38 190.75 216.11 195.51 L 216.80 195.81 C 218.13 212.98 220.36 230.10 221.93 247.27 C 205.75 240.50 189.55 233.75 173.48 226.74 C 172.09 218.96 173.18 211.01 173.32 203.17 C 173.65 196.39 173.55 189.60 173.43 182.82 Z" />
</g>
<g id="#ff472cff">
<path fill="#ff472c" opacity="1.00" d=" M 194.30 134.63 C 193.56 133.78 193.50 132.61 193.28 131.57 C 206.64 136.52 220.17 141.03 233.49 146.10 C 245.21 158.70 257.03 171.25 268.53 184.06 C 263.85 183.28 259.45 181.47 254.95 180.04 C 243.87 176.41 232.81 172.73 221.72 169.13 C 212.79 157.47 203.44 146.13 194.30 134.63 Z" />
</g>
<g id="#ff8f7dff">
<path fill="#ff8f7d" opacity="1.00" d=" M 145.17 145.88 C 146.48 147.23 147.52 148.80 148.52 150.39 C 146.62 150.39 144.72 150.40 142.83 150.41 C 143.60 148.89 144.38 147.38 145.17 145.88 Z" />
</g>
<g id="#b6151eff">
<path fill="#b6151e" opacity="1.00" d=" M 30.63 181.61 C 43.51 177.54 56.27 173.06 69.17 169.06 C 84.56 173.55 100.02 177.83 115.43 182.24 C 108.19 185.57 100.32 187.10 92.82 189.71 C 85.87 191.49 79.21 194.64 71.99 195.19 C 55.58 191.77 39.09 188.59 22.78 184.70 C 25.34 183.54 27.94 182.44 30.63 181.61 Z" />
</g>
<g id="#c80802ff">
<path fill="#c80802" opacity="1.00" d=" M 221.72 169.13 C 232.81 172.73 243.87 176.41 254.95 180.04 C 259.45 181.47 263.85 183.28 268.53 184.06 L 269.36 184.24 C 266.45 185.64 263.19 185.92 260.09 186.64 C 245.68 189.73 231.22 192.56 216.85 195.81 L 216.11 195.51 C 202.38 190.75 188.35 186.80 174.44 182.61 C 190.19 178.07 205.99 173.71 221.72 169.13 Z" />
</g>
<g id="#d21c21ff">
<path fill="#d21c21" opacity="1.00" d=" M 115.43 182.24 C 116.00 182.40 117.14 182.72 117.71 182.87 C 117.31 189.95 117.25 197.06 117.75 204.14 C 117.89 211.61 118.90 219.05 118.78 226.53 C 102.05 233.06 85.70 240.54 69.04 247.25 C 70.69 230.11 72.66 213.00 74.28 195.86 C 73.71 195.70 72.56 195.36 71.99 195.19 C 79.21 194.64 85.87 191.49 92.82 189.71 C 100.32 187.10 108.19 185.57 115.43 182.24 Z" />
<path fill="#d21c21" opacity="1.00" d=" M 147.53 219.52 C 156.18 207.67 164.45 195.53 173.19 183.74 C 173.54 190.21 173.38 196.70 173.32 203.17 C 173.18 211.01 172.09 218.96 173.48 226.74 L 172.56 226.86 C 164.40 239.98 156.47 253.27 148.45 266.49 C 147.82 267.36 147.31 268.68 146.12 268.88 C 145.84 267.26 145.49 265.65 145.47 264.02 C 145.72 250.65 145.51 237.28 145.60 223.92 C 145.42 222.18 146.62 220.85 147.53 219.52 Z" />
</g>
<g id="#b4131bff">
<path fill="#b4131b" opacity="1.00" d=" M 117.81 183.70 C 126.23 195.17 134.31 206.89 142.66 218.42 C 144.07 220.37 145.91 222.33 145.49 224.95 C 145.27 240.00 145.88 255.07 145.01 270.10 C 136.56 257.07 128.85 243.57 120.64 230.38 C 119.95 229.14 118.96 227.98 118.78 226.53 C 118.90 219.05 117.89 211.61 117.75 204.14 C 117.54 197.32 117.44 190.50 117.81 183.70 Z" />
</g>
</svg>
