<?xml version="1.0" encoding="UTF-8" ?>
<!DOCTYPE svg PUBLIC "-//W3C//DTD SVG 1.1//EN" "http://www.w3.org/Graphics/SVG/1.1/DTD/svg11.dtd">
<svg width="60pt" height="60pt" viewBox="0 0 60 60" version="1.1" xmlns="http://www.w3.org/2000/svg">
<g id="#fafafaff">
<path fill="#fafafa" opacity="1.00" d=" M 0.00 0.00 L 60.00 0.00 L 60.00 60.00 L 0.00 60.00 L 0.00 0.00 M 4.09 18.38 C 5.18 22.58 6.55 26.71 7.74 30.89 C 8.83 30.80 9.92 30.71 11.00 30.60 C 11.64 28.08 12.39 25.58 13.16 23.09 C 13.98 25.83 14.83 28.57 15.80 31.26 C 16.50 31.12 17.90 30.82 18.60 30.68 C 19.82 26.53 21.13 22.41 22.45 18.29 C 21.57 18.37 19.81 18.51 18.92 18.59 C 18.31 21.11 17.66 23.63 17.06 26.16 C 16.21 23.42 15.56 20.59 14.19 18.06 C 10.25 18.62 10.92 23.73 9.72 26.64 C 9.44 26.50 8.88 26.22 8.60 26.08 L 9.71 25.89 C 8.91 23.38 8.39 20.78 7.30 18.38 C 6.50 18.38 4.89 18.38 4.09 18.38 M 35.48 18.36 C 35.38 22.55 35.36 26.74 35.46 30.93 C 36.22 30.91 37.73 30.86 38.49 30.84 C 38.59 29.15 38.70 27.45 38.83 25.76 C 40.64 28.31 42.10 31.55 45.81 31.44 C 45.01 29.60 44.03 27.86 43.29 26.01 C 43.66 24.09 45.53 22.06 44.19 20.12 C 42.31 17.31 38.31 18.71 35.48 18.36 M 46.39 31.19 C 49.21 30.89 52.28 31.27 54.89 29.95 C 59.03 27.60 58.59 20.51 54.11 18.78 C 51.56 18.16 48.92 18.42 46.32 18.39 C 46.24 22.66 46.14 26.93 46.39 31.19 M 23.78 29.24 C 26.15 32.13 30.50 30.03 32.99 32.64 C 30.16 32.74 27.32 32.66 24.48 32.66 C 24.35 36.84 24.39 41.02 24.37 45.20 C 25.16 45.22 26.75 45.27 27.55 45.29 C 27.55 44.00 27.56 42.71 27.56 41.42 C 29.30 41.10 31.03 40.74 32.75 40.33 C 33.43 39.01 34.12 37.69 34.82 36.38 C 36.18 38.91 36.75 41.70 36.85 44.55 L 38.00 45.20 L 39.60 44.72 C 39.21 39.91 42.41 36.27 44.26 32.17 C 43.13 32.29 42.01 32.42 40.88 32.55 C 39.92 34.41 38.92 36.25 37.95 38.10 C 36.17 36.97 35.26 35.28 35.33 33.17 C 34.95 33.31 34.21 33.60 33.83 33.74 C 33.34 32.01 31.72 30.05 33.47 28.48 C 35.80 25.55 34.61 21.46 32.22 18.97 C 32.35 20.72 32.79 22.42 33.34 24.09 C 33.07 24.57 32.54 25.54 32.27 26.03 C 30.66 27.21 29.16 29.18 26.91 28.32 C 23.38 26.18 25.85 21.60 26.91 18.77 C 21.85 19.29 20.11 26.05 23.78 29.24 M 18.35 32.46 C 15.94 32.90 14.48 35.78 15.62 37.99 C 17.28 39.73 20.83 39.72 20.95 42.66 C 19.13 42.35 17.35 41.92 15.56 41.48 C 15.44 42.14 15.19 43.48 15.06 44.15 C 17.96 45.34 22.61 45.90 23.62 42.02 C 24.86 37.96 19.87 37.38 17.58 35.36 C 19.54 35.13 21.52 35.21 23.49 35.27 C 23.99 32.16 20.51 32.10 18.35 32.46 Z" />
<path fill="#fafafa" opacity="1.00" d=" M 38.51 20.61 C 39.49 20.74 40.46 20.87 41.44 21.00 C 41.61 22.44 41.59 23.90 39.96 24.49 C 38.13 23.98 38.72 22.02 38.51 20.61 Z" />
<path fill="#fafafa" opacity="1.00" d=" M 49.46 20.58 C 53.82 19.71 56.41 25.56 52.96 28.16 C 52.09 28.28 50.35 28.52 49.48 28.64 C 49.43 25.96 49.42 23.27 49.46 20.58 Z" />
<path fill="#fafafa" opacity="1.00" d=" M 27.55 35.21 C 28.25 35.19 29.65 35.17 30.34 35.15 C 30.53 36.27 30.69 37.38 30.84 38.50 C 29.76 38.58 28.68 38.66 27.60 38.73 C 27.58 37.56 27.57 36.38 27.55 35.21 Z" />
</g>
<g id="#3e3f3fff">
<path fill="#3e3f3f" opacity="1.00" d=" M 4.09 18.38 C 4.89 18.38 6.50 18.38 7.30 18.38 C 8.39 20.78 8.91 23.38 9.71 25.89 L 8.60 26.08 C 8.88 26.22 9.44 26.50 9.72 26.64 C 10.92 23.73 10.25 18.62 14.19 18.06 C 15.56 20.59 16.21 23.42 17.06 26.16 C 17.66 23.63 18.31 21.11 18.92 18.59 C 19.81 18.51 21.57 18.37 22.45 18.29 C 21.13 22.41 19.82 26.53 18.60 30.68 C 17.90 30.82 16.50 31.12 15.80 31.26 C 14.83 28.57 13.98 25.83 13.16 23.09 C 12.39 25.58 11.64 28.08 11.00 30.60 C 9.92 30.71 8.83 30.80 7.74 30.89 C 6.55 26.71 5.18 22.58 4.09 18.38 Z" />
<path fill="#3e3f3f" opacity="1.00" d=" M 35.48 18.36 C 38.31 18.71 42.31 17.31 44.19 20.12 C 45.53 22.06 43.66 24.09 43.29 26.01 C 44.03 27.86 45.01 29.60 45.81 31.44 C 42.10 31.55 40.64 28.31 38.83 25.76 C 38.70 27.45 38.59 29.15 38.49 30.84 C 37.73 30.86 36.22 30.91 35.46 30.93 C 35.36 26.74 35.38 22.55 35.48 18.36 M 38.51 20.61 C 38.72 22.02 38.13 23.98 39.96 24.49 C 41.59 23.90 41.61 22.44 41.44 21.00 C 40.46 20.87 39.49 20.74 38.51 20.61 Z" />
<path fill="#3e3f3f" opacity="1.00" d=" M 46.39 31.19 C 46.14 26.93 46.24 22.66 46.32 18.39 C 48.92 18.42 51.56 18.16 54.11 18.78 C 58.59 20.51 59.03 27.60 54.89 29.95 C 52.28 31.27 49.21 30.89 46.39 31.19 M 49.46 20.58 C 49.42 23.27 49.43 25.96 49.48 28.64 C 50.35 28.52 52.09 28.28 52.96 28.16 C 56.41 25.56 53.82 19.71 49.46 20.58 Z" />
<path fill="#3e3f3f" opacity="1.00" d=" M 23.78 29.24 C 20.11 26.05 21.85 19.29 26.91 18.77 C 25.85 21.60 23.38 26.18 26.91 28.32 C 29.16 29.18 30.66 27.21 32.27 26.03 C 32.54 25.54 33.07 24.57 33.34 24.09 C 32.79 22.42 32.35 20.72 32.22 18.97 C 34.61 21.46 35.80 25.55 33.47 28.48 C 31.72 30.05 33.34 32.01 33.83 33.74 C 34.21 33.60 34.95 33.31 35.33 33.17 C 35.26 35.28 36.17 36.97 37.95 38.10 C 38.92 36.25 39.92 34.41 40.88 32.55 C 42.01 32.42 43.13 32.29 44.26 32.17 C 42.41 36.27 39.21 39.91 39.60 44.72 L 38.00 45.20 L 36.85 44.55 C 36.75 41.70 36.18 38.91 34.82 36.38 C 34.12 37.69 33.43 39.01 32.75 40.33 C 31.03 40.74 29.30 41.10 27.56 41.42 C 27.56 42.71 27.55 44.00 27.55 45.29 C 26.75 45.27 25.16 45.22 24.37 45.20 C 24.39 41.02 24.35 36.84 24.48 32.66 C 27.32 32.66 30.16 32.74 32.99 32.64 C 30.50 30.03 26.15 32.13 23.78 29.24 M 27.55 35.21 C 27.57 36.38 27.58 37.56 27.60 38.73 C 28.68 38.66 29.76 38.58 30.84 38.50 C 30.69 37.38 30.53 36.27 30.34 35.15 C 29.65 35.17 28.25 35.19 27.55 35.21 Z" />
<path fill="#3e3f3f" opacity="1.00" d=" M 18.35 32.46 C 20.51 32.10 23.99 32.16 23.49 35.27 C 21.52 35.21 19.54 35.13 17.58 35.36 C 19.87 37.38 24.86 37.96 23.62 42.02 C 22.61 45.90 17.96 45.34 15.06 44.15 C 15.19 43.48 15.44 42.14 15.56 41.48 C 17.35 41.92 19.13 42.35 20.95 42.66 C 20.83 39.72 17.28 39.73 15.62 37.99 C 14.48 35.78 15.94 32.90 18.35 32.46 Z" />
</g>
</svg>
