<?xml version="1.0" encoding="UTF-8" ?>
<!DOCTYPE svg PUBLIC "-//W3C//DTD SVG 1.1//EN" "http://www.w3.org/Graphics/SVG/1.1/DTD/svg11.dtd">
<svg width="81pt" height="81pt" viewBox="0 0 81 81" version="1.1" xmlns="http://www.w3.org/2000/svg">
<g id="#fcfdfcff">
<path fill="#fcfdfc" opacity="1.00" d=" M 0.00 0.00 L 81.00 0.00 L 81.00 81.00 L 0.00 81.00 L 0.00 0.00 M 23.94 10.00 C 17.32 12.98 12.92 19.08 8.87 24.82 C 5.83 31.61 4.84 39.41 6.43 46.71 C 8.97 56.79 16.09 65.45 25.39 70.07 C 23.37 71.60 22.80 74.80 25.98 75.25 C 30.88 75.45 36.46 76.67 40.79 73.77 C 41.56 74.01 43.09 74.50 43.86 74.75 C 43.83 71.26 42.28 68.10 40.77 65.05 C 40.65 64.01 40.52 62.97 40.39 61.93 C 39.38 60.09 38.55 58.15 37.81 56.19 C 37.68 51.19 35.94 46.42 35.50 41.45 C 36.78 36.97 39.19 32.94 42.92 30.07 C 43.35 30.07 44.20 30.05 44.62 30.05 C 48.62 26.69 54.00 24.07 55.55 18.71 C 54.48 17.60 53.31 16.66 52.03 15.87 C 53.01 14.93 53.72 13.81 54.14 12.50 L 52.39 12.49 C 52.51 11.97 52.77 10.94 52.90 10.42 C 51.53 10.20 50.17 9.97 48.81 9.72 C 49.71 9.76 51.51 9.84 52.42 9.88 C 52.03 8.80 51.63 7.73 51.20 6.67 C 46.59 5.66 41.82 5.44 37.11 5.51 C 32.49 6.17 28.14 8.04 23.94 10.00 M 63.47 19.45 L 63.33 20.00 C 55.23 26.01 48.14 33.21 40.39 39.65 L 40.77 40.02 C 40.61 41.60 40.45 43.18 40.30 44.76 C 40.81 49.21 42.40 53.40 43.85 57.61 L 44.27 58.03 C 45.56 62.99 47.67 67.70 48.67 72.74 C 51.44 72.84 54.12 72.23 56.71 71.29 C 56.01 67.47 54.07 63.93 54.23 59.96 C 53.92 58.93 53.57 57.92 53.18 56.93 C 52.82 55.76 52.45 54.59 52.08 53.42 C 52.46 51.18 52.49 48.82 53.51 46.74 C 54.22 45.28 56.20 45.37 56.84 43.91 C 58.36 37.97 65.73 37.35 68.97 32.78 C 70.43 31.06 73.33 29.78 72.90 27.10 C 71.84 23.55 69.71 20.35 67.25 17.61 C 65.78 16.66 64.70 18.91 63.47 19.45 M 74.61 32.76 C 71.78 36.88 67.31 39.29 63.67 42.59 C 61.66 44.36 59.53 45.99 57.31 47.49 C 56.80 51.25 56.98 55.03 57.56 58.77 L 58.16 58.63 C 58.73 61.70 59.33 64.77 59.76 67.87 C 68.18 62.48 74.43 53.36 75.30 43.29 C 76.10 39.79 76.20 36.06 74.61 32.76 Z" />
<path fill="#fcfdfc" opacity="1.00" d=" M 23.43 17.50 C 25.99 13.91 29.79 11.50 33.07 8.63 C 34.88 8.68 36.29 10.08 37.86 10.82 C 35.81 13.11 33.94 15.88 30.96 17.02 C 28.49 17.57 25.94 17.49 23.43 17.50 Z" />
<path fill="#fcfdfc" opacity="1.00" d=" M 23.19 58.86 C 20.12 55.39 20.51 49.54 24.23 46.67 C 25.17 49.54 26.40 52.30 27.93 54.90 C 29.00 57.02 30.05 59.16 30.89 61.39 C 30.80 61.70 30.63 62.32 30.54 62.63 C 27.99 61.66 24.99 61.12 23.19 58.86 Z" />
</g>
<g id="#e0e2dfff">
<path fill="#e0e2df" opacity="1.00" d=" M 23.94 10.00 C 28.14 8.04 32.49 6.17 37.11 5.51 C 41.82 5.44 46.59 5.66 51.20 6.67 C 45.92 7.47 42.95 12.37 38.90 15.31 L 38.70 14.70 C 37.13 16.56 35.70 18.52 34.23 20.45 L 32.95 19.24 L 33.70 20.92 C 31.87 21.70 30.18 22.76 28.67 24.05 C 27.88 24.45 27.09 24.86 26.31 25.28 C 25.10 26.27 23.90 27.29 22.74 28.34 L 21.54 28.17 L 21.82 28.68 C 18.05 31.51 19.56 36.42 21.21 40.05 L 21.25 40.43 L 22.09 40.79 C 22.84 42.71 23.54 44.64 24.20 46.59 L 24.23 46.67 C 20.51 49.54 20.12 55.39 23.19 58.86 C 24.99 61.12 27.99 61.66 30.54 62.63 C 30.63 62.32 30.80 61.70 30.89 61.39 L 31.28 60.71 C 32.11 63.31 33.17 65.83 34.52 68.20 C 35.24 69.21 35.94 70.23 36.65 71.25 C 38.01 72.11 39.37 72.98 40.79 73.77 C 36.46 76.67 30.88 75.45 25.98 75.25 C 22.80 74.80 23.37 71.60 25.39 70.07 C 16.09 65.45 8.97 56.79 6.43 46.71 C 4.84 39.41 5.83 31.61 8.87 24.82 C 12.92 19.08 17.32 12.98 23.94 10.00 M 23.43 17.50 C 25.94 17.49 28.49 17.57 30.96 17.02 C 33.94 15.88 35.81 13.11 37.86 10.82 C 36.29 10.08 34.88 8.68 33.07 8.63 C 29.79 11.50 25.99 13.91 23.43 17.50 Z" />
<path fill="#e0e2df" opacity="1.00" d=" M 48.57 20.88 C 49.58 19.12 50.54 17.28 52.03 15.87 C 53.31 16.66 54.48 17.60 55.55 18.71 C 54.00 24.07 48.62 26.69 44.62 30.05 C 44.20 30.05 43.35 30.07 42.92 30.07 C 42.75 30.11 42.41 30.17 42.24 30.20 C 39.46 32.08 37.04 34.41 35.01 37.07 L 35.68 37.96 L 34.93 38.01 C 33.49 37.85 32.05 37.68 30.62 37.50 C 30.51 36.95 30.31 35.85 30.20 35.29 C 31.11 35.53 32.92 35.99 33.82 36.22 C 33.31 34.85 32.86 33.46 32.48 32.04 C 35.52 30.96 39.14 29.45 39.69 25.81 C 38.92 25.20 38.22 24.52 37.59 23.76 C 39.83 21.26 42.09 18.78 44.44 16.38 C 45.76 16.86 47.09 17.35 48.41 17.83 C 48.45 18.59 48.53 20.12 48.57 20.88 M 42.70 26.45 C 42.09 26.65 40.88 27.05 40.28 27.25 C 39.49 29.92 43.84 27.41 45.23 27.48 C 45.32 26.75 45.49 25.29 45.58 24.56 C 46.22 24.27 47.51 23.69 48.15 23.40 C 46.92 23.52 45.69 23.63 44.47 23.75 C 44.57 22.10 44.68 20.45 44.77 18.81 C 43.39 21.13 43.11 23.83 42.70 26.45 Z" />
<path fill="#e0e2df" opacity="1.00" d=" M 54.32 30.37 C 56.85 28.06 59.49 25.89 62.22 23.82 C 64.31 25.40 64.93 27.74 64.61 30.27 C 62.83 32.03 61.19 33.92 59.62 35.86 C 59.34 35.67 58.80 35.29 58.52 35.10 C 57.53 34.41 56.53 33.73 55.57 32.99 C 55.56 32.51 55.54 31.53 55.53 31.05 C 55.23 30.88 54.62 30.54 54.32 30.37 Z" />
</g>
<g id="#4a9226ff">
<path fill="#4a9226" opacity="1.00" d=" M 38.90 15.31 C 42.95 12.37 45.92 7.47 51.20 6.67 C 51.63 7.73 52.03 8.80 52.42 9.88 C 51.51 9.84 49.71 9.76 48.81 9.72 C 50.17 9.97 51.53 10.20 52.90 10.42 C 52.77 10.94 52.51 11.97 52.39 12.49 L 54.14 12.50 C 53.72 13.81 53.01 14.93 52.03 15.87 C 50.54 17.28 49.58 19.12 48.57 20.88 C 48.53 20.12 48.45 18.59 48.41 17.83 C 47.09 17.35 45.76 16.86 44.44 16.38 C 42.09 18.78 39.83 21.26 37.59 23.76 C 38.22 24.52 38.92 25.20 39.69 25.81 C 39.14 29.45 35.52 30.96 32.48 32.04 C 32.86 33.46 33.31 34.85 33.82 36.22 C 32.92 35.99 31.11 35.53 30.20 35.29 C 29.83 35.10 29.09 34.73 28.72 34.54 C 27.94 37.24 27.76 40.05 29.67 42.35 C 31.55 41.07 33.28 39.59 34.93 38.01 L 35.68 37.96 L 35.01 37.07 C 37.04 34.41 39.46 32.08 42.24 30.20 C 42.41 30.17 42.75 30.11 42.92 30.07 C 39.19 32.94 36.78 36.97 35.50 41.45 C 32.82 41.92 29.70 41.65 27.55 43.61 C 26.37 44.53 25.30 45.58 24.20 46.59 C 23.54 44.64 22.84 42.71 22.09 40.79 L 21.25 40.43 L 21.21 40.05 C 19.56 36.42 18.05 31.51 21.82 28.68 L 21.54 28.17 L 22.74 28.34 C 23.90 27.29 25.10 26.27 26.31 25.28 C 27.09 24.86 27.88 24.45 28.67 24.05 C 30.18 22.76 31.87 21.70 33.70 20.92 L 32.95 19.24 L 34.23 20.45 C 35.70 18.52 37.13 16.56 38.70 14.70 L 38.90 15.31 M 48.21 12.38 C 47.41 13.37 48.73 15.29 49.93 14.76 C 50.72 13.78 49.41 11.85 48.21 12.38 M 32.32 24.29 C 34.82 26.37 31.93 29.05 33.70 31.02 C 37.92 31.45 35.26 26.36 35.54 24.14 C 34.73 24.18 33.12 24.25 32.32 24.29 M 30.95 27.17 C 29.46 30.19 34.31 27.24 30.95 27.17 Z" />
<path fill="#4a9226" opacity="1.00" d=" M 63.47 19.45 C 64.70 18.91 65.78 16.66 67.25 17.61 C 69.71 20.35 71.84 23.55 72.90 27.10 C 73.33 29.78 70.43 31.06 68.97 32.78 C 70.17 29.29 69.57 25.61 68.18 22.28 L 68.14 21.76 C 66.68 20.33 64.83 20.74 63.06 20.98 C 63.12 20.73 63.26 20.24 63.33 20.00 L 63.47 19.45 Z" />
<path fill="#4a9226" opacity="1.00" d=" M 42.70 26.45 C 43.11 23.83 43.39 21.13 44.77 18.81 C 44.68 20.45 44.57 22.10 44.47 23.75 C 45.69 23.63 46.92 23.52 48.15 23.40 C 47.51 23.69 46.22 24.27 45.58 24.56 C 45.49 25.29 45.32 26.75 45.23 27.48 C 43.84 27.41 39.49 29.92 40.28 27.25 C 40.88 27.05 42.09 26.65 42.70 26.45 Z" />
<path fill="#4a9226" opacity="1.00" d=" M 54.14 31.89 L 55.57 32.99 C 56.53 33.73 57.53 34.41 58.52 35.10 C 55.93 35.70 53.35 36.42 50.94 37.56 C 50.77 36.04 50.79 34.49 51.02 32.97 C 52.00 33.35 52.98 33.74 53.97 34.13 C 54.01 33.57 54.10 32.45 54.14 31.89 Z" />
<path fill="#4a9226" opacity="1.00" d=" M 72.49 38.08 C 73.26 36.61 74.05 35.14 74.84 33.68 C 75.07 36.88 75.31 40.08 75.30 43.29 C 74.43 53.36 68.18 62.48 59.76 67.87 C 59.33 64.77 58.73 61.70 58.16 58.63 C 60.40 58.08 62.66 57.63 64.96 57.38 C 65.64 56.52 66.21 55.58 66.85 54.69 C 65.19 54.95 63.53 55.23 61.88 55.52 C 59.68 53.38 58.29 50.63 58.34 47.52 C 60.46 49.59 62.39 51.85 64.20 54.21 L 63.95 53.41 C 65.06 51.91 66.19 50.43 67.35 48.97 L 67.80 48.89 C 68.30 47.00 68.80 45.12 69.31 43.24 C 67.49 44.72 65.56 45.23 63.89 43.19 C 66.87 41.68 69.77 40.02 72.49 38.08 Z" />
<path fill="#4a9226" opacity="1.00" d=" M 48.50 37.68 C 49.54 38.68 50.55 39.73 51.68 40.63 C 53.45 40.79 55.21 40.27 56.96 40.08 C 56.60 41.31 56.19 42.52 55.74 43.73 C 53.44 45.66 50.36 44.96 47.64 44.81 C 47.30 45.26 46.64 46.15 46.31 46.59 C 44.31 45.96 42.31 45.35 40.30 44.76 C 40.45 43.18 40.61 41.60 40.77 40.02 C 41.32 40.56 42.42 41.63 42.97 42.17 C 43.60 40.73 44.23 39.29 44.86 37.85 C 45.92 39.10 46.98 40.35 48.05 41.59 C 48.16 40.61 48.39 38.66 48.50 37.68 Z" />
<path fill="#4a9226" opacity="1.00" d=" M 50.24 61.50 C 51.25 58.92 51.66 56.15 52.08 53.42 C 52.45 54.59 52.82 55.76 53.18 56.93 C 53.57 57.92 53.92 58.93 54.23 59.96 C 54.07 63.93 56.01 67.47 56.71 71.29 C 54.12 72.23 51.44 72.84 48.67 72.74 C 47.67 67.70 45.56 62.99 44.27 58.03 C 46.06 59.48 47.56 62.20 50.24 61.50 Z" />
<path fill="#4a9226" opacity="1.00" d=" M 37.37 63.34 C 37.56 60.96 37.74 58.58 37.81 56.19 C 38.55 58.15 39.38 60.09 40.39 61.93 C 40.52 62.97 40.65 64.01 40.77 65.05 C 42.28 68.10 43.83 71.26 43.86 74.75 C 43.09 74.50 41.56 74.01 40.79 73.77 C 39.37 72.98 38.01 72.11 36.65 71.25 C 35.94 70.23 35.24 69.21 34.52 68.20 C 33.17 65.83 32.11 63.31 31.28 60.71 C 31.64 60.16 32.35 59.08 32.71 58.54 L 32.56 60.76 L 33.75 60.12 C 34.96 61.18 36.17 62.26 37.37 63.34 Z" />
</g>
<g id="#9be475ff">
<path fill="#9be475" opacity="1.00" d=" M 48.21 12.38 C 49.41 11.85 50.72 13.78 49.93 14.76 C 48.73 15.29 47.41 13.37 48.21 12.38 Z" />
<path fill="#9be475" opacity="1.00" d=" M 40.39 39.65 C 48.14 33.21 55.23 26.01 63.33 20.00 C 63.26 20.24 63.12 20.73 63.06 20.98 C 64.83 20.74 66.68 20.33 68.14 21.76 L 68.18 22.28 C 69.57 25.61 70.17 29.29 68.97 32.78 C 65.73 37.35 58.36 37.97 56.84 43.91 C 56.20 45.37 54.22 45.28 53.51 46.74 C 52.49 48.82 52.46 51.18 52.08 53.42 C 51.66 56.15 51.25 58.92 50.24 61.50 C 47.56 62.20 46.06 59.48 44.27 58.03 L 43.85 57.61 C 42.40 53.40 40.81 49.21 40.30 44.76 C 42.31 45.35 44.31 45.96 46.31 46.59 C 46.64 46.15 47.30 45.26 47.64 44.81 C 50.36 44.96 53.44 45.66 55.74 43.73 C 56.19 42.52 56.60 41.31 56.96 40.08 C 55.21 40.27 53.45 40.79 51.68 40.63 C 50.55 39.73 49.54 38.68 48.50 37.68 C 48.39 38.66 48.16 40.61 48.05 41.59 C 46.98 40.35 45.92 39.10 44.86 37.85 C 44.23 39.29 43.60 40.73 42.97 42.17 C 42.42 41.63 41.32 40.56 40.77 40.02 L 40.39 39.65 M 54.32 30.37 C 54.62 30.54 55.23 30.88 55.53 31.05 C 55.54 31.53 55.56 32.51 55.57 32.99 L 54.14 31.89 C 54.10 32.45 54.01 33.57 53.97 34.13 C 52.98 33.74 52.00 33.35 51.02 32.97 C 50.79 34.49 50.77 36.04 50.94 37.56 C 53.35 36.42 55.93 35.70 58.52 35.10 C 58.80 35.29 59.34 35.67 59.62 35.86 C 61.19 33.92 62.83 32.03 64.61 30.27 C 64.93 27.74 64.31 25.40 62.22 23.82 C 59.49 25.89 56.85 28.06 54.32 30.37 Z" />
<path fill="#9be475" opacity="1.00" d=" M 32.32 24.29 C 33.12 24.25 34.73 24.18 35.54 24.14 C 35.26 26.36 37.92 31.45 33.70 31.02 C 31.93 29.05 34.82 26.37 32.32 24.29 Z" />
<path fill="#9be475" opacity="1.00" d=" M 30.95 27.17 C 34.31 27.24 29.46 30.19 30.95 27.17 Z" />
<path fill="#9be475" opacity="1.00" d=" M 74.61 32.76 C 76.20 36.06 76.10 39.79 75.30 43.29 C 75.31 40.08 75.07 36.88 74.84 33.68 C 74.05 35.14 73.26 36.61 72.49 38.08 C 69.77 40.02 66.87 41.68 63.89 43.19 C 65.56 45.23 67.49 44.72 69.31 43.24 C 68.80 45.12 68.30 47.00 67.80 48.89 L 67.35 48.97 C 66.19 50.43 65.06 51.91 63.95 53.41 L 64.20 54.21 C 62.39 51.85 60.46 49.59 58.34 47.52 C 58.29 50.63 59.68 53.38 61.88 55.52 C 63.53 55.23 65.19 54.95 66.85 54.69 C 66.21 55.58 65.64 56.52 64.96 57.38 C 62.66 57.63 60.40 58.08 58.16 58.63 L 57.56 58.77 C 56.98 55.03 56.80 51.25 57.31 47.49 C 59.53 45.99 61.66 44.36 63.67 42.59 C 67.31 39.29 71.78 36.88 74.61 32.76 Z" />
<path fill="#9be475" opacity="1.00" d=" M 28.72 34.54 C 29.09 34.73 29.83 35.10 30.20 35.29 C 30.31 35.85 30.51 36.95 30.62 37.50 C 32.05 37.68 33.49 37.85 34.93 38.01 C 33.28 39.59 31.55 41.07 29.67 42.35 C 27.76 40.05 27.94 37.24 28.72 34.54 Z" />
<path fill="#9be475" opacity="1.00" d=" M 27.55 43.61 C 29.70 41.65 32.82 41.92 35.50 41.45 C 35.94 46.42 37.68 51.19 37.81 56.19 C 37.74 58.58 37.56 60.96 37.37 63.34 C 36.17 62.26 34.96 61.18 33.75 60.12 L 32.56 60.76 L 32.71 58.54 C 32.35 59.08 31.64 60.16 31.28 60.71 L 30.89 61.39 C 30.05 59.16 29.00 57.02 27.93 54.90 C 26.40 52.30 25.17 49.54 24.23 46.67 L 24.20 46.59 C 25.30 45.58 26.37 44.53 27.55 43.61 Z" />
</g>
</svg>
