<?xml version="1.0" encoding="UTF-8" ?>
<!DOCTYPE svg PUBLIC "-//W3C//DTD SVG 1.1//EN" "http://www.w3.org/Graphics/SVG/1.1/DTD/svg11.dtd">
<svg width="48pt" height="48pt" viewBox="0 0 48 48" version="1.1" xmlns="http://www.w3.org/2000/svg">
<g id="#5d8d89ff">
<path fill="#5d8d89" opacity="1.00" d=" M 0.00 0.00 L 48.00 0.00 L 48.00 48.00 L 0.00 48.00 L 0.00 0.00 M 34.50 4.44 C 34.49 6.16 34.49 7.87 34.48 9.59 C 32.92 9.70 31.38 9.96 31.01 11.70 C 31.88 11.80 33.64 12.01 34.51 12.11 C 34.50 13.35 34.49 14.58 34.48 15.81 C 35.07 15.83 36.24 15.87 36.82 15.89 C 36.84 14.61 36.86 13.34 36.87 12.06 C 38.88 12.00 40.89 11.95 42.90 11.90 C 42.88 11.39 42.85 10.36 42.83 9.85 C 40.84 9.83 38.86 9.81 36.87 9.79 C 36.86 7.99 36.85 6.20 36.83 4.41 C 36.25 4.42 35.09 4.43 34.50 4.44 M 24.08 4.43 C 24.06 6.23 24.06 8.03 24.04 9.82 C 22.01 9.83 19.97 9.83 17.94 9.84 C 17.93 10.37 17.92 11.43 17.92 11.95 C 19.95 11.96 21.99 11.97 24.03 11.97 C 24.06 13.28 24.08 14.58 24.11 15.89 C 24.68 15.87 25.82 15.85 26.39 15.83 C 26.38 14.57 26.38 13.32 26.38 12.06 C 27.13 12.02 28.63 11.94 29.38 11.90 C 29.37 11.39 29.34 10.37 29.33 9.87 C 28.59 9.85 27.12 9.81 26.38 9.79 C 26.39 8.01 26.39 6.22 26.39 4.44 C 25.81 4.44 24.65 4.43 24.08 4.43 M 5.26 7.76 C 5.21 17.89 5.10 28.04 5.29 38.17 C 5.83 38.31 6.92 38.60 7.47 38.74 C 7.52 37.39 7.56 36.04 7.60 34.69 C 9.45 34.68 11.31 34.69 13.16 34.72 C 13.20 35.44 13.29 36.87 13.33 37.58 C 13.90 37.56 15.04 37.52 15.61 37.50 C 15.58 27.59 15.69 17.67 15.55 7.76 C 12.12 7.77 8.69 7.77 5.26 7.76 M 20.14 17.90 C 20.14 26.46 20.14 35.02 20.14 43.58 C 20.73 43.59 21.90 43.59 22.49 43.59 C 22.52 42.82 22.57 41.28 22.60 40.51 C 27.84 40.52 33.09 40.51 38.34 40.51 C 38.36 41.27 38.42 42.79 38.44 43.55 L 40.66 43.60 C 40.74 35.03 40.68 26.46 40.69 17.89 C 33.84 17.89 26.99 17.88 20.14 17.90 Z" />
<path fill="#5d8d89" opacity="1.00" d=" M 7.55 10.28 C 9.45 10.28 11.34 10.29 13.24 10.30 C 13.24 17.66 13.24 25.03 13.24 32.39 C 11.34 32.42 9.45 32.43 7.55 32.42 C 7.54 25.04 7.55 17.66 7.55 10.28 Z" />
<path fill="#5d8d89" opacity="1.00" d=" M 22.53 20.15 C 24.75 20.15 26.97 20.15 29.19 20.15 C 29.22 22.68 29.33 25.22 29.10 27.75 C 27.01 28.45 24.75 28.11 22.59 28.20 C 22.55 25.52 22.55 22.84 22.53 20.15 Z" />
<path fill="#5d8d89" opacity="1.00" d=" M 31.64 20.18 C 33.89 20.17 36.14 20.15 38.39 20.14 C 38.38 22.83 38.38 25.53 38.36 28.22 C 36.10 28.15 33.84 28.07 31.59 27.89 C 31.62 25.32 31.63 22.75 31.64 20.18 Z" />
<path fill="#5d8d89" opacity="1.00" d=" M 22.54 30.26 C 24.76 30.25 26.98 30.25 29.20 30.24 C 29.20 32.88 29.20 35.52 29.20 38.16 C 26.98 38.16 24.77 38.16 22.55 38.16 C 22.54 35.52 22.54 32.89 22.54 30.26 Z" />
<path fill="#5d8d89" opacity="1.00" d=" M 31.62 30.29 C 33.87 30.27 36.12 30.24 38.37 30.22 C 38.38 32.86 38.38 35.51 38.38 38.15 C 36.14 38.15 33.90 38.15 31.65 38.14 C 31.64 35.53 31.63 32.91 31.62 30.29 Z" />
</g>
<g id="#fefefeff">
<path fill="#fefefe" opacity="1.00" d=" M 34.50 4.44 C 35.09 4.43 36.25 4.42 36.83 4.41 C 36.85 6.20 36.86 7.99 36.87 9.79 C 38.86 9.81 40.84 9.83 42.83 9.85 C 42.85 10.36 42.88 11.39 42.90 11.90 C 40.89 11.95 38.88 12.00 36.87 12.06 C 36.86 13.34 36.84 14.61 36.82 15.89 C 36.24 15.87 35.07 15.83 34.48 15.81 C 34.49 14.58 34.50 13.35 34.51 12.11 C 33.64 12.01 31.88 11.80 31.01 11.70 C 31.38 9.96 32.92 9.70 34.48 9.59 C 34.49 7.87 34.49 6.16 34.50 4.44 Z" />
<path fill="#fefefe" opacity="1.00" d=" M 24.08 4.43 C 24.65 4.43 25.81 4.44 26.39 4.44 C 26.39 6.22 26.39 8.01 26.38 9.79 C 27.12 9.81 28.59 9.85 29.33 9.87 C 29.34 10.37 29.37 11.39 29.38 11.90 C 28.63 11.94 27.13 12.02 26.38 12.06 C 26.38 13.32 26.38 14.57 26.39 15.83 C 25.82 15.85 24.68 15.87 24.11 15.89 C 24.08 14.58 24.06 13.28 24.03 11.97 C 21.99 11.97 19.95 11.96 17.92 11.95 C 17.92 11.43 17.93 10.37 17.94 9.84 C 19.97 9.83 22.01 9.83 24.04 9.82 C 24.06 8.03 24.06 6.23 24.08 4.43 Z" />
<path fill="#fefefe" opacity="1.00" d=" M 5.26 7.76 C 8.69 7.77 12.12 7.77 15.55 7.76 C 15.69 17.67 15.58 27.59 15.61 37.50 C 15.04 37.52 13.90 37.56 13.33 37.58 C 13.29 36.87 13.20 35.44 13.16 34.72 C 11.31 34.69 9.45 34.68 7.60 34.69 C 7.56 36.04 7.52 37.39 7.47 38.74 C 6.92 38.60 5.83 38.31 5.29 38.17 C 5.10 28.04 5.21 17.89 5.26 7.76 M 7.55 10.28 C 7.55 17.66 7.54 25.04 7.55 32.42 C 9.45 32.43 11.34 32.42 13.24 32.39 C 13.24 25.03 13.24 17.66 13.24 10.30 C 11.34 10.29 9.45 10.28 7.55 10.28 Z" />
<path fill="#fefefe" opacity="1.00" d=" M 20.14 17.90 C 26.99 17.88 33.84 17.89 40.69 17.89 C 40.68 26.46 40.74 35.03 40.66 43.60 L 38.44 43.55 C 38.42 42.79 38.36 41.27 38.34 40.51 C 33.09 40.51 27.84 40.52 22.60 40.51 C 22.57 41.28 22.52 42.82 22.49 43.59 C 21.90 43.59 20.73 43.59 20.14 43.58 C 20.14 35.02 20.14 26.46 20.14 17.90 M 22.53 20.15 C 22.55 22.84 22.55 25.52 22.59 28.20 C 24.75 28.11 27.01 28.45 29.10 27.75 C 29.33 25.22 29.22 22.68 29.19 20.15 C 26.97 20.15 24.75 20.15 22.53 20.15 M 31.64 20.18 C 31.63 22.75 31.62 25.32 31.59 27.89 C 33.84 28.07 36.10 28.15 38.36 28.22 C 38.38 25.53 38.38 22.83 38.39 20.14 C 36.14 20.15 33.89 20.17 31.64 20.18 M 22.54 30.26 C 22.54 32.89 22.54 35.52 22.55 38.16 C 24.77 38.16 26.98 38.16 29.20 38.16 C 29.20 35.52 29.20 32.88 29.20 30.24 C 26.98 30.25 24.76 30.25 22.54 30.26 M 31.62 30.29 C 31.63 32.91 31.64 35.53 31.65 38.14 C 33.90 38.15 36.14 38.15 38.38 38.15 C 38.38 35.51 38.38 32.86 38.37 30.22 C 36.12 30.24 33.87 30.27 31.62 30.29 Z" />
</g>
</svg>
