<?xml version="1.0" encoding="UTF-8" ?>
<!DOCTYPE svg PUBLIC "-//W3C//DTD SVG 1.1//EN" "http://www.w3.org/Graphics/SVG/1.1/DTD/svg11.dtd">
<svg width="32pt" height="32pt" viewBox="0 0 32 32" version="1.1" xmlns="http://www.w3.org/2000/svg">
<g id="#ffffffff">
<path fill="#ffffff" opacity="1.00" d=" M 0.00 0.00 L 32.00 0.00 L 32.00 32.00 L 0.00 32.00 L 0.00 0.00 M 2.18 7.94 C 4.13 13.41 4.53 19.27 6.37 24.76 C 7.49 22.36 7.94 19.71 7.70 17.07 C 5.44 14.63 5.68 11.07 5.51 7.99 C 4.68 7.98 3.01 7.96 2.18 7.94 M 7.24 7.93 C 8.00 10.54 8.24 13.24 8.56 15.92 C 9.93 18.72 10.34 21.86 11.49 24.75 C 12.89 19.19 13.59 13.46 15.43 8.01 C 14.91 7.98 13.86 7.92 13.33 7.89 C 14.06 11.39 12.78 14.83 12.01 18.21 C 11.18 14.87 10.29 11.46 10.51 7.99 C 9.42 7.97 8.33 7.95 7.24 7.93 M 17.47 8.18 C 17.05 8.68 16.23 9.67 15.81 10.17 C 15.28 14.38 19.22 16.66 20.96 19.96 C 21.19 21.22 21.03 24.00 19.01 23.12 C 17.07 22.57 16.93 20.00 15.99 18.48 C 15.99 20.21 15.98 21.95 15.97 23.68 C 18.30 23.61 21.04 24.52 22.84 22.39 L 21.21 21.71 C 22.17 21.93 23.12 22.20 24.04 22.54 L 24.35 23.43 C 25.50 23.96 26.72 24.29 28.02 24.41 C 30.67 19.87 29.29 14.45 29.56 9.48 C 29.84 9.12 30.40 8.39 30.67 8.02 C 29.28 7.99 27.89 7.97 26.50 7.94 C 27.34 12.96 27.62 18.27 26.53 23.25 C 26.22 23.13 25.60 22.88 25.30 22.75 C 25.41 21.20 26.74 19.54 24.47 18.76 L 23.91 20.88 C 22.53 17.53 20.64 14.45 17.99 11.94 C 18.01 11.09 18.07 9.38 18.10 8.53 C 20.88 8.89 21.22 11.70 22.01 13.85 C 22.02 12.02 22.03 10.20 22.04 8.37 C 20.52 8.31 18.99 8.23 17.47 8.18 Z" />
</g>
<g id="#545454ff">
<path fill="#545454" opacity="1.00" d=" M 2.18 7.94 C 3.01 7.96 4.68 7.98 5.51 7.99 C 5.68 11.07 5.44 14.63 7.70 17.07 C 7.94 19.71 7.49 22.36 6.37 24.76 C 4.53 19.27 4.13 13.41 2.18 7.94 Z" />
<path fill="#545454" opacity="1.00" d=" M 7.24 7.93 C 8.33 7.95 9.42 7.97 10.51 7.99 C 10.29 11.46 11.18 14.87 12.01 18.21 C 12.78 14.83 14.06 11.39 13.33 7.89 C 13.86 7.92 14.91 7.98 15.43 8.01 C 13.59 13.46 12.89 19.19 11.49 24.75 C 10.34 21.86 9.93 18.72 8.56 15.92 C 8.24 13.24 8.00 10.54 7.24 7.93 Z" />
<path fill="#545454" opacity="1.00" d=" M 17.47 8.18 C 18.99 8.23 20.52 8.31 22.04 8.37 C 22.03 10.20 22.02 12.02 22.01 13.85 C 21.22 11.70 20.88 8.89 18.10 8.53 C 18.07 9.38 18.01 11.09 17.99 11.94 C 20.64 14.45 22.53 17.53 23.91 20.88 L 24.47 18.76 C 26.74 19.54 25.41 21.20 25.30 22.75 C 25.60 22.88 26.22 23.13 26.53 23.25 C 27.62 18.27 27.34 12.96 26.50 7.94 C 27.89 7.97 29.28 7.99 30.67 8.02 C 30.40 8.39 29.84 9.12 29.56 9.48 C 29.29 14.45 30.67 19.87 28.02 24.41 C 26.72 24.29 25.50 23.96 24.35 23.43 L 24.04 22.54 C 23.12 22.20 22.17 21.93 21.21 21.71 L 22.84 22.39 C 21.04 24.52 18.30 23.61 15.97 23.68 C 15.98 21.95 15.99 20.21 15.99 18.48 C 16.93 20.00 17.07 22.57 19.01 23.12 C 21.03 24.00 21.19 21.22 20.96 19.96 C 19.22 16.66 15.28 14.38 15.81 10.17 C 16.23 9.67 17.05 8.68 17.47 8.18 Z" />
</g>
</svg>
