<?xml version="1.0" encoding="UTF-8" ?>
<!DOCTYPE svg PUBLIC "-//W3C//DTD SVG 1.1//EN" "http://www.w3.org/Graphics/SVG/1.1/DTD/svg11.dtd">
<svg width="512pt" height="512pt" viewBox="0 0 512 512" version="1.1" xmlns="http://www.w3.org/2000/svg">
<g id="#656565ff">
<path fill="#656565" opacity="1.00" d=" M 237.05 73.08 C 242.27 68.50 249.27 66.37 256.19 67.02 C 256.14 67.74 256.05 69.18 256.01 69.89 C 251.62 70.37 247.07 70.84 243.18 73.11 C 237.38 76.22 234.19 82.21 229.99 87.01 C 197.38 128.39 164.34 169.42 131.64 210.74 C 130.92 211.98 129.26 211.56 128.08 211.73 C 108.72 211.74 89.36 211.64 69.99 211.74 C 63.70 211.63 57.87 214.95 54.25 220.00 L 53.54 219.43 C 55.52 213.76 61.09 209.85 66.93 209.04 C 71.29 208.93 75.65 209.03 80.01 209.00 C 96.02 209.00 112.04 209.00 128.05 208.99 C 130.01 209.23 130.66 206.92 131.80 205.78 C 145.97 187.92 160.14 170.05 174.31 152.19 C 175.13 151.10 176.00 150.05 176.90 149.01 C 196.86 123.64 217.04 98.42 237.05 73.08 Z" />
<path fill="#656565" opacity="1.00" d=" M 186.19 211.77 C 186.89 210.69 187.58 209.61 188.38 208.61 C 189.58 208.88 190.78 209.01 192.01 209.01 C 235.70 208.98 279.39 209.01 323.08 209.00 C 328.98 208.99 334.89 209.01 340.80 208.99 C 369.86 208.96 398.93 209.03 427.99 209.00 C 434.60 209.49 441.79 207.61 447.89 210.95 C 451.33 212.71 454.18 215.77 455.46 219.43 L 454.74 219.94 C 452.92 218.18 451.53 215.93 449.28 214.67 C 445.36 212.18 440.62 211.59 436.07 211.68 C 352.78 211.81 269.48 211.53 186.19 211.77 Z" />
</g>
<g id="#474747ff">
<path fill="#474747" opacity="1.00" d=" M 256.19 67.02 C 261.15 67.00 266.78 66.88 270.79 70.27 C 273.35 71.99 276.52 73.07 278.30 75.74 C 303.95 108.07 329.59 140.42 355.26 172.74 C 355.59 173.31 356.25 174.46 356.57 175.03 C 355.72 175.03 354.02 175.02 353.16 175.01 C 328.58 144.51 304.49 113.59 280.04 82.97 C 274.71 75.11 265.37 70.49 256.01 69.89 C 256.05 69.18 256.14 67.74 256.19 67.02 Z" />
</g>
<g id="#3e3e3eff">
<path fill="#3e3e3e" opacity="1.00" d=" M 243.18 73.11 C 247.07 70.84 251.62 70.37 256.01 69.89 C 255.95 84.59 256.10 99.29 255.96 113.99 C 256.02 117.40 255.78 120.83 256.31 124.21 C 249.88 132.68 243.01 140.81 236.30 149.05 C 235.56 150.04 234.83 151.03 234.02 151.95 C 230.31 156.59 226.35 161.05 223.10 166.03 C 211.53 180.23 200.18 194.62 188.38 208.61 C 187.58 209.61 186.89 210.69 186.19 211.77 C 269.48 211.53 352.78 211.81 436.07 211.68 C 440.62 211.59 445.36 212.18 449.28 214.67 C 451.53 215.93 452.92 218.18 454.74 219.94 L 455.46 219.43 L 455.64 219.29 C 457.60 224.66 457.08 230.51 456.79 236.09 C 441.05 293.36 425.37 350.57 409.83 407.90 C 405.58 422.45 391.13 432.90 376.06 432.94 C 295.40 433.02 214.74 432.95 134.07 432.97 C 117.63 433.10 102.36 420.65 98.34 404.86 C 83.12 348.59 67.69 292.43 52.25 236.22 C 51.88 230.62 51.41 224.71 53.36 219.30 L 53.54 219.43 L 54.25 220.00 C 57.87 214.95 63.70 211.63 69.99 211.74 C 89.36 211.64 108.72 211.74 128.08 211.73 C 129.26 211.56 130.92 211.98 131.64 210.74 C 164.34 169.42 197.38 128.39 229.99 87.01 C 234.19 82.21 237.38 76.22 243.18 73.11 M 273.30 274.14 C 273.42 280.76 273.35 287.39 273.35 294.02 C 262.56 294.01 251.77 293.95 240.98 294.04 C 234.40 294.22 227.60 298.07 225.49 304.56 C 221.18 301.74 218.61 296.88 214.03 294.48 C 212.69 293.46 210.66 294.20 209.06 293.99 C 201.82 303.53 194.60 313.11 187.58 322.82 C 179.78 313.51 172.71 303.55 165.15 294.02 C 163.39 293.99 161.64 293.91 159.90 294.09 C 168.20 304.73 176.30 315.54 184.68 326.13 C 176.69 336.95 167.79 347.23 159.59 357.95 C 165.04 363.67 170.71 369.19 176.31 374.77 C 180.91 377.71 184.64 381.84 187.73 386.29 C 192.36 389.23 195.83 393.50 199.78 397.23 C 201.20 398.71 203.10 396.87 204.69 396.62 C 241.74 384.20 278.84 371.97 315.87 359.54 C 313.86 358.88 311.60 359.19 309.72 358.07 C 316.47 358.04 323.23 358.14 329.98 358.02 C 334.18 358.03 338.64 356.72 341.51 353.50 C 344.46 350.09 345.65 345.49 345.66 341.06 C 345.73 331.70 345.67 322.34 345.68 312.98 C 345.73 308.42 345.04 303.54 342.14 299.86 C 338.82 295.65 333.20 294.10 328.04 294.01 C 318.03 293.97 308.03 294.03 298.03 293.98 C 293.06 288.04 287.08 282.92 281.75 277.26 C 280.36 276.08 279.33 274.11 277.35 273.96 C 275.99 273.94 274.64 274.00 273.30 274.14 Z" />
</g>
<g id="#2b2b2bff">
<path fill="#2b2b2b" opacity="1.00" d=" M 256.01 69.89 C 265.37 70.49 274.71 75.11 280.04 82.97 C 304.49 113.59 328.58 144.51 353.16 175.01 C 351.07 174.99 348.99 175.01 346.90 175.00 C 338.93 174.97 330.96 175.03 322.99 175.02 C 323.00 168.00 322.98 160.99 323.01 153.98 C 323.39 151.60 321.61 148.95 319.07 149.03 C 305.02 148.95 290.95 149.02 276.90 149.00 C 269.90 140.86 263.67 132.02 256.31 124.21 C 255.78 120.83 256.02 117.40 255.96 113.99 C 256.10 99.29 255.95 84.59 256.01 69.89 Z" />
</g>
<g id="#f1c057ff">
<path fill="#f1c057" opacity="1.00" d=" M 79.97 154.06 C 79.60 151.67 81.30 148.95 83.88 149.04 C 114.89 148.96 145.89 149.01 176.90 149.01 C 176.00 150.05 175.13 151.10 174.31 152.19 C 144.87 151.74 115.41 152.11 85.96 151.99 C 83.70 151.71 81.62 152.54 79.97 154.06 Z" />
<path fill="#f1c057" opacity="1.00" d=" M 234.02 151.95 C 234.83 151.03 235.56 150.04 236.30 149.05 C 249.83 148.93 263.37 149.03 276.90 149.00 C 290.95 149.02 305.02 148.95 319.07 149.03 C 321.61 148.95 323.39 151.60 323.01 153.98 C 321.53 152.95 319.95 151.82 318.04 152.00 C 290.03 151.95 262.02 152.08 234.02 151.95 Z" />
</g>
<g id="#edb02dff">
<path fill="#edb02d" opacity="1.00" d=" M 79.97 154.06 C 81.62 152.54 83.70 151.71 85.96 151.99 C 115.41 152.11 144.87 151.74 174.31 152.19 C 160.14 170.05 145.97 187.92 131.80 205.78 C 130.66 206.92 130.01 209.23 128.05 208.99 C 112.04 209.00 96.02 209.00 80.01 209.00 C 79.96 190.69 80.05 172.37 79.97 154.06 Z" />
<path fill="#edb02d" opacity="1.00" d=" M 234.02 151.95 C 262.02 152.08 290.03 151.95 318.04 152.00 C 319.95 151.82 321.53 152.95 323.01 153.98 C 322.98 160.99 323.00 168.00 322.99 175.02 C 322.98 175.75 322.96 177.21 322.95 177.95 C 322.74 188.30 322.90 198.65 323.08 209.00 C 279.39 209.01 235.70 208.98 192.01 209.01 C 190.78 209.01 189.58 208.88 188.38 208.61 C 200.18 194.62 211.53 180.23 223.10 166.03 C 226.35 161.05 230.31 156.59 234.02 151.95 Z" />
<path fill="#edb02d" opacity="1.00" d=" M 273.30 274.14 C 274.64 274.00 275.99 273.94 277.35 273.96 C 277.20 297.03 277.57 320.10 277.17 343.16 C 276.73 347.92 274.52 352.81 270.20 355.22 C 263.46 359.15 255.34 357.83 247.90 358.10 C 242.80 357.85 237.35 358.66 232.59 356.38 C 230.12 355.21 228.22 353.15 226.74 350.89 C 225.16 348.22 224.23 345.16 224.25 342.04 C 224.24 332.03 224.23 322.03 224.25 312.02 C 224.18 309.47 224.70 306.97 225.49 304.56 C 227.60 298.07 234.40 294.22 240.98 294.04 C 251.77 293.95 262.56 294.01 273.35 294.02 C 273.35 287.39 273.42 280.76 273.30 274.14 M 232.60 301.57 C 229.38 304.42 228.12 308.83 228.18 313.01 C 228.24 322.34 228.07 331.67 228.27 340.99 C 228.43 345.47 229.94 350.78 234.60 352.47 C 240.77 354.74 247.50 353.76 253.94 353.98 C 258.97 354.20 264.41 353.65 268.59 350.59 C 271.91 348.20 273.42 343.96 273.34 339.99 C 273.35 326.02 273.38 312.04 273.33 298.07 C 263.20 298.13 253.08 298.07 242.96 298.10 C 239.28 298.15 235.29 298.83 232.60 301.57 Z" />
<path fill="#edb02d" opacity="1.00" d=" M 159.90 294.09 C 161.64 293.91 163.39 293.99 165.15 294.02 C 172.71 303.55 179.78 313.51 187.58 322.82 C 194.60 313.11 201.82 303.53 209.06 293.99 C 210.66 294.20 212.69 293.46 214.03 294.48 C 206.39 304.08 199.20 314.05 191.69 323.75 C 191.22 324.67 189.94 325.42 190.18 326.56 C 198.12 336.58 205.89 346.74 213.81 356.78 C 214.01 357.10 214.41 357.74 214.61 358.07 C 212.86 358.01 211.04 358.34 209.33 357.88 C 202.08 348.52 194.74 339.22 187.64 329.75 C 187.37 329.94 186.82 330.32 186.54 330.51 C 179.27 339.63 172.10 348.83 164.84 357.96 C 163.09 358.02 161.33 358.03 159.59 357.95 C 167.79 347.23 176.69 336.95 184.68 326.13 C 176.30 315.54 168.20 304.73 159.90 294.09 Z" />
<path fill="#edb02d" opacity="1.00" d=" M 293.28 294.06 C 294.86 294.01 296.44 293.98 298.03 293.98 C 308.03 294.03 318.03 293.97 328.04 294.01 C 333.20 294.10 338.82 295.65 342.14 299.86 C 345.04 303.54 345.73 308.42 345.68 312.98 C 345.67 322.34 345.73 331.70 345.66 341.06 C 345.65 345.49 344.46 350.09 341.51 353.50 C 338.64 356.72 334.18 358.03 329.98 358.02 C 323.23 358.14 316.47 358.04 309.72 358.07 C 304.80 358.11 299.83 356.10 296.77 352.17 C 293.50 348.55 293.07 343.42 293.29 338.77 C 293.38 333.85 292.74 328.62 295.10 324.09 C 297.42 319.22 302.68 316.20 307.99 316.04 C 319.25 315.86 330.52 316.15 341.78 315.91 C 341.68 311.45 342.08 306.51 339.33 302.68 C 337.01 299.39 332.84 298.18 329.00 298.11 C 317.10 297.98 305.19 298.29 293.30 297.96 C 293.25 296.66 293.24 295.36 293.28 294.06 M 299.10 325.20 C 296.34 329.64 297.51 335.08 297.25 340.01 C 296.99 344.17 298.04 348.85 301.73 351.28 C 307.12 354.84 313.84 353.86 319.95 353.98 C 324.98 353.80 330.15 354.54 335.06 353.08 C 339.05 351.89 341.47 347.82 341.61 343.80 C 341.94 335.92 341.59 328.03 341.79 320.15 C 331.53 320.01 321.26 320.13 311.00 320.08 C 306.61 320.14 301.65 321.29 299.10 325.20 Z" />
</g>
<g id="#c69d4fff">
<path fill="#c69d4f" opacity="1.00" d=" M 322.99 175.02 C 330.96 175.03 338.93 174.97 346.90 175.00 C 347.65 175.99 348.40 176.97 349.13 177.97 C 340.40 178.03 331.68 177.90 322.95 177.95 C 322.96 177.21 322.98 175.75 322.99 175.02 Z" />
</g>
<g id="#ddb153ff">
<path fill="#ddb153" opacity="1.00" d=" M 346.90 175.00 C 348.99 175.01 351.07 174.99 353.16 175.01 C 354.02 175.02 355.72 175.03 356.57 175.03 C 379.08 174.98 401.60 174.98 424.11 175.03 C 426.68 174.94 428.40 177.64 428.03 180.02 C 424.99 177.21 420.73 178.04 416.97 177.96 C 394.61 178.08 372.25 177.92 349.89 178.05 L 349.13 177.97 C 348.40 176.97 347.65 175.99 346.90 175.00 Z" />
</g>
<g id="#c6932aff">
<path fill="#c6932a" opacity="1.00" d=" M 322.95 177.95 C 331.68 177.90 340.40 178.03 349.13 177.97 L 349.89 178.05 C 354.05 180.91 356.93 185.16 360.01 189.06 C 354.11 196.15 346.88 202.04 340.80 208.99 C 334.89 209.01 328.98 208.99 323.08 209.00 C 322.90 198.65 322.74 188.30 322.95 177.95 Z" />
</g>
<g id="#d59e28ff">
<path fill="#d59e28" opacity="1.00" d=" M 349.89 178.05 C 372.25 177.92 394.61 178.08 416.97 177.96 C 420.73 178.04 424.99 177.21 428.03 180.02 C 427.96 189.68 428.02 199.34 427.99 209.00 C 398.93 209.03 369.86 208.96 340.80 208.99 C 346.88 202.04 354.11 196.15 360.01 189.06 C 356.93 185.16 354.05 180.91 349.89 178.05 Z" />
</g>
<g id="#353535ff">
<path fill="#353535" opacity="1.00" d=" M 277.35 273.96 C 279.33 274.11 280.36 276.08 281.75 277.26 C 287.08 282.92 293.06 288.04 298.03 293.98 C 296.44 293.98 294.86 294.01 293.28 294.06 C 293.24 295.36 293.25 296.66 293.30 297.96 C 305.19 298.29 317.10 297.98 329.00 298.11 C 332.84 298.18 337.01 299.39 339.33 302.68 C 342.08 306.51 341.68 311.45 341.78 315.91 C 330.52 316.15 319.25 315.86 307.99 316.04 C 302.68 316.20 297.42 319.22 295.10 324.09 C 292.74 328.62 293.38 333.85 293.29 338.77 C 287.75 339.64 282.77 342.67 277.17 343.16 C 277.57 320.10 277.20 297.03 277.35 273.96 Z" />
<path fill="#353535" opacity="1.00" d=" M 191.69 323.75 C 199.20 314.05 206.39 304.08 214.03 294.48 C 218.61 296.88 221.18 301.74 225.49 304.56 C 224.70 306.97 224.18 309.47 224.25 312.02 C 224.23 322.03 224.24 332.03 224.25 342.04 C 224.23 345.16 225.16 348.22 226.74 350.89 C 223.70 354.77 217.89 354.36 213.81 356.78 C 205.89 346.74 198.12 336.58 190.18 326.56 C 189.94 325.42 191.22 324.67 191.69 323.75 Z" />
<path fill="#353535" opacity="1.00" d=" M 232.60 301.57 C 235.29 298.83 239.28 298.15 242.96 298.10 C 253.08 298.07 263.20 298.13 273.33 298.07 C 273.38 312.04 273.35 326.02 273.34 339.99 C 273.42 343.96 271.91 348.20 268.59 350.59 C 264.41 353.65 258.97 354.20 253.94 353.98 C 247.50 353.76 240.77 354.74 234.60 352.47 C 229.94 350.78 228.43 345.47 228.27 340.99 C 228.07 331.67 228.24 322.34 228.18 313.01 C 228.12 308.83 229.38 304.42 232.60 301.57 Z" />
</g>
<g id="#383838ff">
<path fill="#383838" opacity="1.00" d=" M 299.10 325.20 C 301.65 321.29 306.61 320.14 311.00 320.08 C 321.26 320.13 331.53 320.01 341.79 320.15 C 341.59 328.03 341.94 335.92 341.61 343.80 C 341.47 347.82 339.05 351.89 335.06 353.08 C 330.15 354.54 324.98 353.80 319.95 353.98 C 313.84 353.86 307.12 354.84 301.73 351.28 C 298.04 348.85 296.99 344.17 297.25 340.01 C 297.51 335.08 296.34 329.64 299.10 325.20 Z" />
<path fill="#383838" opacity="1.00" d=" M 186.54 330.51 C 186.82 330.32 187.37 329.94 187.64 329.75 C 194.74 339.22 202.08 348.52 209.33 357.88 C 211.04 358.34 212.86 358.01 214.61 358.07 C 214.41 357.74 214.01 357.10 213.81 356.78 C 217.89 354.36 223.70 354.77 226.74 350.89 C 228.22 353.15 230.12 355.21 232.59 356.38 C 237.35 358.66 242.80 357.85 247.90 358.10 C 255.34 357.83 263.46 359.15 270.20 355.22 C 274.52 352.81 276.73 347.92 277.17 343.16 C 282.77 342.67 287.75 339.64 293.29 338.77 C 293.07 343.42 293.50 348.55 296.77 352.17 C 299.83 356.10 304.80 358.11 309.72 358.07 C 311.60 359.19 313.86 358.88 315.87 359.54 C 278.84 371.97 241.74 384.20 204.69 396.62 C 203.10 396.87 201.20 398.71 199.78 397.23 C 195.83 393.50 192.36 389.23 187.73 386.29 C 184.64 381.84 180.91 377.71 176.31 374.77 C 170.71 369.19 165.04 363.67 159.59 357.95 C 161.33 358.03 163.09 358.02 164.84 357.96 C 172.10 348.83 179.27 339.63 186.54 330.51 Z" />
</g>
</svg>
