<?xml version="1.0" encoding="UTF-8" ?>
<!DOCTYPE svg PUBLIC "-//W3C//DTD SVG 1.1//EN" "http://www.w3.org/Graphics/SVG/1.1/DTD/svg11.dtd">
<svg width="128pt" height="128pt" viewBox="0 0 128 128" version="1.1" xmlns="http://www.w3.org/2000/svg">
<g id="#264ebbf9">
<path fill="#264ebb" opacity="0.98" d=" M 44.32 31.27 C 49.57 29.71 53.44 34.28 55.71 38.29 C 65.91 56.09 76.90 73.45 86.36 91.66 C 89.57 99.60 78.00 107.03 71.74 101.25 C 63.36 89.35 57.61 75.66 49.26 63.74 C 46.96 60.91 43.05 63.22 42.08 66.06 C 36.10 77.26 29.36 88.02 23.05 99.03 C 20.06 104.86 9.99 104.55 7.64 98.34 C 4.33 93.38 8.57 88.23 10.72 83.74 C 20.96 67.48 29.40 50.10 40.19 34.21 C 41.32 32.92 42.74 31.92 44.32 31.27 Z" />
<path fill="#264ebb" opacity="0.98" d=" M 79.97 31.08 C 85.73 30.52 91.41 36.02 90.03 42.02 C 89.67 49.16 78.69 51.96 74.71 46.29 C 69.16 41.62 73.29 32.04 79.97 31.08 Z" />
<path fill="#264ebb" opacity="0.98" d=" M 91.36 52.35 C 100.58 50.45 103.44 61.82 107.41 67.64 C 111.94 76.99 120.87 85.21 121.04 96.00 C 120.60 103.27 110.07 105.61 105.71 100.28 C 98.64 88.95 92.07 77.25 85.39 65.66 C 82.09 60.57 85.70 53.63 91.36 52.35 Z" />
</g>
</svg>
