<?xml version="1.0" encoding="UTF-8" ?>
<!DOCTYPE svg PUBLIC "-//W3C//DTD SVG 1.1//EN" "http://www.w3.org/Graphics/SVG/1.1/DTD/svg11.dtd">
<svg width="16pt" height="16pt" viewBox="0 0 16 16" version="1.1" xmlns="http://www.w3.org/2000/svg">
<g id="#ffffffff">
<path fill="#ffffff" opacity="1.00" d=" M 0.00 0.00 L 16.00 0.00 L 16.00 4.15 C 14.95 3.48 12.94 1.03 12.04 3.06 C 11.50 5.38 14.23 6.14 16.00 5.93 L 16.00 16.00 L 0.00 16.00 L 0.00 5.57 C 0.44 5.72 1.32 6.01 1.76 6.16 C 2.44 5.47 3.81 4.07 4.49 3.38 C 2.89 1.93 1.27 3.12 0.00 4.25 L 0.00 0.00 M 4.19 10.84 C 4.94 7.36 10.49 13.55 9.39 8.61 C 7.09 11.29 5.53 8.09 5.77 6.27 C 3.16 5.52 0.74 10.22 4.19 10.84 M 9.75 6.36 C 9.40 8.25 10.81 11.77 13.25 10.29 C 14.18 8.18 11.92 5.78 9.75 6.36 Z" />
</g>
<g id="#4b4b4bff">
<path fill="#4b4b4b" opacity="1.00" d=" M 0.00 4.25 C 1.27 3.12 2.89 1.93 4.49 3.38 C 3.81 4.07 2.44 5.47 1.76 6.16 C 1.32 6.01 0.44 5.72 0.00 5.57 L 0.00 4.25 Z" />
<path fill="#4b4b4b" opacity="1.00" d=" M 12.04 3.06 C 12.94 1.03 14.95 3.48 16.00 4.15 L 16.00 5.93 C 14.23 6.14 11.50 5.38 12.04 3.06 Z" />
<path fill="#4b4b4b" opacity="1.00" d=" M 4.19 10.84 C 0.74 10.22 3.16 5.52 5.77 6.27 C 5.53 8.09 7.09 11.29 9.39 8.61 C 10.49 13.55 4.94 7.36 4.19 10.84 Z" />
<path fill="#4b4b4b" opacity="1.00" d=" M 9.75 6.36 C 11.92 5.78 14.18 8.18 13.25 10.29 C 10.81 11.77 9.40 8.25 9.75 6.36 Z" />
</g>
</svg>
