<?xml version="1.0" encoding="UTF-8" ?>
<!DOCTYPE svg PUBLIC "-//W3C//DTD SVG 1.1//EN" "http://www.w3.org/Graphics/SVG/1.1/DTD/svg11.dtd">
<svg width="64pt" height="64pt" viewBox="0 0 64 64" version="1.1" xmlns="http://www.w3.org/2000/svg">
<g id="#343f44ff">
<path fill="#343f44" opacity="1.00" d=" M 9.84 0.00 L 54.02 0.00 C 59.25 0.73 63.45 4.97 64.00 10.25 L 64.00 54.02 C 63.30 59.12 59.24 63.20 54.16 64.00 L 9.97 64.00 C 4.89 63.27 0.78 59.25 0.00 54.17 L 0.00 10.26 C 0.54 5.03 4.67 0.81 9.84 0.00 M 19.36 18.58 C 17.86 19.81 19.04 22.38 18.79 24.12 C 23.96 24.20 29.13 24.18 34.30 24.14 C 34.05 22.39 35.33 19.73 33.70 18.57 C 28.93 18.32 24.12 18.31 19.36 18.58 M 39.47 19.18 C 39.46 20.75 38.87 22.80 40.02 24.06 C 41.63 24.24 43.26 24.16 44.88 24.18 C 45.06 22.35 45.10 20.52 45.19 18.69 C 43.34 18.73 40.90 17.62 39.47 19.18 M 18.83 29.18 C 18.67 31.06 18.67 32.95 18.86 34.83 C 27.54 34.89 36.23 34.91 44.92 34.82 C 45.11 32.95 45.12 31.07 44.94 29.19 C 36.24 29.08 27.53 29.10 18.83 29.18 M 18.81 39.89 C 18.76 41.67 18.63 43.46 18.60 45.25 C 22.17 45.75 25.79 45.74 29.36 45.27 C 29.33 43.47 29.21 41.68 29.16 39.89 C 25.71 39.81 22.26 39.81 18.81 39.89 M 34.68 39.87 C 34.55 41.65 34.47 43.43 34.38 45.22 C 37.95 45.80 41.59 45.69 45.17 45.29 C 45.15 43.50 45.04 41.71 44.99 39.92 C 41.55 39.81 38.12 39.80 34.68 39.87 Z" />
</g>
<g id="#ffffffff">
<path fill="#ffffff" opacity="1.00" d=" M 19.36 18.58 C 24.12 18.31 28.93 18.32 33.70 18.57 C 35.33 19.73 34.05 22.39 34.30 24.14 C 29.13 24.18 23.96 24.20 18.79 24.12 C 19.04 22.38 17.86 19.81 19.36 18.58 Z" />
<path fill="#ffffff" opacity="1.00" d=" M 39.47 19.18 C 40.90 17.62 43.34 18.73 45.19 18.69 C 45.10 20.52 45.06 22.35 44.88 24.18 C 43.26 24.16 41.63 24.24 40.02 24.06 C 38.87 22.80 39.46 20.75 39.47 19.18 Z" />
<path fill="#ffffff" opacity="1.00" d=" M 18.83 29.18 C 27.53 29.10 36.24 29.08 44.94 29.19 C 45.12 31.07 45.11 32.95 44.92 34.82 C 36.23 34.91 27.54 34.89 18.86 34.83 C 18.67 32.95 18.67 31.06 18.83 29.18 Z" />
<path fill="#ffffff" opacity="1.00" d=" M 18.81 39.89 C 22.26 39.81 25.71 39.81 29.16 39.89 C 29.21 41.68 29.33 43.47 29.36 45.27 C 25.79 45.74 22.17 45.75 18.60 45.25 C 18.63 43.46 18.76 41.67 18.81 39.89 Z" />
<path fill="#ffffff" opacity="1.00" d=" M 34.68 39.87 C 38.12 39.80 41.55 39.81 44.99 39.92 C 45.04 41.71 45.15 43.50 45.17 45.29 C 41.59 45.69 37.95 45.80 34.38 45.22 C 34.47 43.43 34.55 41.65 34.68 39.87 Z" />
</g>
</svg>
