<?xml version="1.0" encoding="UTF-8" ?>
<!DOCTYPE svg PUBLIC "-//W3C//DTD SVG 1.1//EN" "http://www.w3.org/Graphics/SVG/1.1/DTD/svg11.dtd">
<svg width="32pt" height="32pt" viewBox="0 0 32 32" version="1.1" xmlns="http://www.w3.org/2000/svg">
<g id="#595859ff">
<path fill="#595859" opacity="1.00" d=" M 6.07 0.00 L 8.14 0.00 C 8.60 0.52 9.54 1.56 10.01 2.09 C 8.02 3.13 6.01 4.14 3.97 5.08 C 4.17 3.19 4.70 1.37 6.07 0.00 Z" />
<path fill="#595859" opacity="1.00" d=" M 18.86 0.00 L 21.34 0.00 C 22.34 1.47 23.05 3.10 23.71 4.75 C 21.64 4.09 19.62 3.28 17.67 2.31 C 17.97 1.74 18.57 0.58 18.86 0.00 Z" />
<path fill="#595859" opacity="1.00" d=" M 18.01 7.06 C 19.77 7.06 21.53 7.06 23.28 6.99 L 23.15 7.62 C 23.05 8.11 22.87 9.07 22.78 9.56 L 22.76 9.66 C 21.87 7.91 19.72 7.88 18.09 7.28 C 18.38 8.32 18.95 10.40 19.24 11.43 C 18.67 11.42 17.53 11.39 16.96 11.38 C 13.91 10.27 16.48 8.12 18.01 7.06 Z" />
<path fill="#595859" opacity="1.00" d=" M 22.70 13.97 C 24.80 16.76 25.65 20.16 25.65 23.61 C 27.05 25.10 29.32 26.56 28.75 28.94 C 28.58 30.49 26.93 31.14 25.86 32.00 L 22.15 32.00 C 21.33 30.43 20.73 30.43 20.35 32.00 L 18.07 32.00 C 17.03 31.13 16.05 30.20 15.05 29.28 C 16.25 27.86 17.69 26.60 18.58 24.94 C 19.04 22.89 18.71 20.77 18.64 18.69 C 20.00 17.12 21.35 15.55 22.70 13.97 Z" />
<path fill="#595859" opacity="1.00" d=" M 2.17 23.81 C 2.13 20.34 2.88 16.93 4.75 13.97 C 6.10 15.63 7.46 17.28 8.84 18.92 C 8.03 22.50 9.34 25.69 11.54 28.45 C 12.80 29.91 10.91 31.02 10.05 32.00 L 7.83 32.00 C 7.64 31.66 7.27 30.98 7.08 30.63 L 6.09 30.72 C 5.83 31.04 5.32 31.68 5.06 32.00 L 1.82 32.00 C 1.85 30.66 1.24 30.09 -0.00 30.29 L 0.00 26.00 C 0.71 25.26 1.44 24.53 2.17 23.81 Z" />
</g>
<g id="#a36407af">
<path fill="#a36407" opacity="0.69" d=" M 32.00 5.88 C 29.11 7.56 29.07 2.96 32.00 4.29 L 32.00 5.88 Z" />
</g>
<g id="#d58103e0">
<path fill="#d58103" opacity="0.88" d=" M 5.97 5.03 C 11.57 3.76 17.39 3.89 22.95 5.30 C 26.85 3.98 31.05 6.37 31.76 10.47 C 29.47 10.37 28.51 8.13 26.92 6.89 C 26.01 6.91 24.19 6.97 23.28 6.99 C 21.53 7.06 19.77 7.06 18.01 7.06 C 13.71 7.04 9.41 7.12 5.12 7.46 C 5.33 6.86 5.76 5.64 5.97 5.03 Z" />
</g>
<g id="#4c4b4ddf">
<path fill="#4c4b4d" opacity="0.87" d=" M 8.66 9.00 C 9.24 6.90 12.27 8.26 12.37 9.98 C 11.27 11.12 9.90 11.75 8.28 11.86 C 8.38 11.15 8.57 9.72 8.66 9.00 Z" />
</g>
<g id="#c37506cd">
<path fill="#c37506" opacity="0.80" d=" M 22.78 9.56 C 22.87 9.07 23.05 8.11 23.15 7.62 C 24.29 7.75 26.58 7.99 27.73 8.12 C 28.79 10.50 24.81 10.52 23.43 10.04 L 22.78 9.56 Z" />
</g>
<g id="#383839a5">
<path fill="#383839" opacity="0.65" d=" M 12.49 12.18 C 13.38 11.01 15.98 12.15 14.85 13.58 C 13.97 14.75 11.49 13.55 12.49 12.18 Z" />
</g>
<g id="#434343c4">
<path fill="#434343" opacity="0.77" d=" M 5.06 32.00 C 5.32 31.68 5.83 31.04 6.09 30.72 L 7.08 30.63 C 7.27 30.98 7.64 31.66 7.83 32.00 L 5.06 32.00 Z" />
</g>
<g id="#383838a7">
<path fill="#383838" opacity="0.65" d=" M 20.35 32.00 C 20.73 30.43 21.33 30.43 22.15 32.00 L 20.35 32.00 Z" />
</g>
</svg>
