<?xml version="1.0" encoding="UTF-8" ?>
<!DOCTYPE svg PUBLIC "-//W3C//DTD SVG 1.1//EN" "http://www.w3.org/Graphics/SVG/1.1/DTD/svg11.dtd">
<svg width="48pt" height="48pt" viewBox="0 0 48 48" version="1.1" xmlns="http://www.w3.org/2000/svg">
<g id="#78787881">
<path fill="#787878" opacity="0.51" d=" M 0.00 0.00 L 48.00 0.00 L 48.00 22.91 C 45.70 21.84 43.34 20.93 40.96 20.05 C 40.93 20.42 40.85 21.15 40.82 21.52 C 40.13 25.95 39.81 30.43 39.83 34.92 C 37.78 34.85 35.73 34.76 33.68 34.66 C 35.38 33.95 37.08 33.23 38.77 32.50 C 38.92 26.30 38.79 20.10 38.46 13.91 C 38.21 20.06 38.20 26.22 38.12 32.38 C 28.76 33.37 19.29 33.27 9.92 32.40 C 9.73 25.57 9.80 18.73 9.51 11.89 C 9.22 18.76 9.05 25.64 9.25 32.51 C 10.93 33.24 12.61 33.96 14.29 34.70 C 12.25 34.80 10.21 34.82 8.17 34.91 C 8.01 29.58 7.87 24.24 7.55 18.90 C 7.33 21.08 7.09 23.25 6.97 25.43 C 4.52 27.23 2.10 29.10 0.00 31.31 L 0.00 0.00 Z" />
</g>
<g id="#676767ba">
<path fill="#676767" opacity="0.73" d=" M 9.51 11.89 C 9.80 18.73 9.73 25.57 9.92 32.40 C 19.29 33.27 28.76 33.37 38.12 32.38 C 38.20 26.22 38.21 20.06 38.46 13.91 C 38.79 20.10 38.92 26.30 38.77 32.50 C 37.08 33.23 35.38 33.95 33.68 34.66 C 35.73 34.76 37.78 34.85 39.83 34.92 C 39.81 30.43 40.13 25.95 40.82 21.52 C 40.97 26.34 41.12 31.16 40.97 35.99 C 35.31 36.14 29.67 35.43 24.00 35.59 C 18.35 35.46 12.71 36.13 7.06 35.99 C 6.95 32.47 6.87 28.95 6.97 25.43 C 7.09 23.25 7.33 21.08 7.55 18.90 C 7.87 24.24 8.01 29.58 8.17 34.91 C 10.21 34.82 12.25 34.80 14.29 34.70 C 12.61 33.96 10.93 33.24 9.25 32.51 C 9.05 25.64 9.22 18.76 9.51 11.89 Z" />
</g>
<g id="#7f7f7f81">
<path fill="#7f7f7f" opacity="0.51" d=" M 40.96 20.05 C 43.34 20.93 45.70 21.84 48.00 22.91 L 48.00 48.00 L 0.00 48.00 L 0.00 31.31 C 2.10 29.10 4.52 27.23 6.97 25.43 C 6.87 28.95 6.95 32.47 7.06 35.99 C 12.71 36.13 18.35 35.46 24.00 35.59 C 29.67 35.43 35.31 36.14 40.97 35.99 C 41.12 31.16 40.97 26.34 40.82 21.52 C 40.85 21.15 40.93 20.42 40.96 20.05 Z" />
</g>
</svg>
