<?xml version="1.0" encoding="UTF-8" ?>
<!DOCTYPE svg PUBLIC "-//W3C//DTD SVG 1.1//EN" "http://www.w3.org/Graphics/SVG/1.1/DTD/svg11.dtd">
<svg width="225pt" height="225pt" viewBox="0 0 225 225" version="1.1" xmlns="http://www.w3.org/2000/svg">
<g id="#ffffffff">
<path fill="#ffffff" opacity="1.00" d=" M 0.00 0.00 L 4.67 0.00 C 4.99 1.43 5.04 2.95 5.66 4.30 C 6.87 4.61 8.12 4.80 9.36 5.00 C 9.76 3.33 10.16 1.65 10.63 0.00 L 14.46 0.00 C 14.86 1.47 15.20 2.96 15.75 4.39 C 16.92 4.71 18.14 4.88 19.34 5.10 C 19.74 3.39 20.13 1.69 20.60 0.00 L 24.82 0.00 C 25.00 1.54 25.18 3.08 25.37 4.62 C 26.61 4.80 27.86 4.99 29.11 5.18 C 29.60 3.45 30.09 1.71 30.65 0.00 L 34.83 0.00 C 35.01 1.60 35.19 3.20 35.37 4.80 C 36.69 4.79 38.01 4.78 39.34 4.77 C 39.78 3.17 40.21 1.58 40.70 0.00 L 44.47 0.00 C 45.02 1.58 45.00 3.49 46.22 4.76 C 47.31 4.71 48.39 4.83 49.45 5.10 C 49.81 3.39 50.19 1.69 50.63 0.00 L 54.72 0.00 C 55.04 1.70 55.36 3.41 55.69 5.11 C 56.53 5.10 58.23 5.07 59.08 5.05 C 59.58 3.36 60.09 1.67 60.65 0.00 L 64.45 0.00 C 64.86 1.46 65.21 2.95 65.78 4.37 C 66.93 4.70 68.12 4.88 69.30 5.11 C 69.73 3.40 70.16 1.69 70.65 0.00 L 74.86 0.00 C 75.01 1.58 75.17 3.15 75.33 4.73 C 76.70 4.74 78.06 4.75 79.43 4.76 C 79.80 3.17 80.18 1.58 80.60 0.00 L 84.84 0.00 C 85.01 1.61 85.18 3.23 85.35 4.84 C 86.71 4.81 88.06 4.77 89.42 4.74 C 89.81 3.16 90.20 1.57 90.64 0.00 L 94.42 0.00 C 94.91 1.53 95.19 3.16 96.00 4.57 C 97.10 4.78 98.20 4.96 99.31 5.11 C 99.71 3.40 100.11 1.69 100.58 0.00 L 104.83 0.00 C 105.01 1.61 105.20 3.21 105.38 4.82 C 106.71 4.80 108.03 4.77 109.36 4.74 C 109.79 3.16 110.22 1.57 110.70 0.00 L 114.83 0.00 C 115.02 1.60 115.20 3.19 115.39 4.79 C 116.73 4.79 118.07 4.79 119.40 4.80 C 119.77 3.20 120.12 1.59 120.54 0.00 L 124.85 0.00 C 125.02 1.60 125.19 3.20 125.37 4.80 C 126.71 4.77 128.06 4.74 129.41 4.71 C 129.83 3.14 130.25 1.56 130.73 0.00 L 134.86 0.00 C 135.01 1.60 135.16 3.19 135.31 4.79 C 136.69 4.79 138.06 4.79 139.43 4.80 C 139.83 3.19 140.22 1.59 140.68 0.00 L 144.83 0.00 C 145.01 1.62 145.21 3.24 145.40 4.86 C 146.72 4.82 148.03 4.79 149.35 4.76 C 149.74 3.17 150.13 1.58 150.58 0.00 L 154.48 0.00 C 154.85 1.53 155.18 3.08 155.70 4.58 C 156.74 4.89 157.81 5.02 158.90 4.97 C 159.72 3.40 160.18 1.68 160.73 0.00 L 164.41 0.00 C 164.83 1.44 165.17 2.91 165.77 4.29 C 166.90 4.76 168.12 4.94 169.32 5.19 C 169.71 3.45 170.11 1.72 170.57 0.00 L 174.86 0.00 C 175.02 1.60 175.17 3.21 175.33 4.81 C 176.71 4.79 178.09 4.76 179.47 4.74 C 179.81 3.15 180.15 1.57 180.54 0.00 L 184.85 0.00 C 185.02 1.58 185.19 3.16 185.36 4.75 C 186.72 4.75 188.08 4.75 189.45 4.75 C 189.83 3.16 190.21 1.57 190.65 0.00 L 194.83 0.00 C 195.03 1.61 195.23 3.22 195.43 4.83 C 196.74 4.80 198.06 4.77 199.37 4.75 C 199.77 3.16 200.17 1.57 200.63 0.00 L 204.46 0.00 C 204.85 1.44 205.19 2.91 205.76 4.30 C 206.93 4.73 208.17 4.91 209.40 5.16 C 209.77 3.43 210.14 1.71 210.58 0.00 L 214.46 0.00 C 214.85 1.45 215.17 2.93 215.70 4.34 C 216.87 4.68 218.07 4.88 219.27 5.13 C 219.74 3.41 220.21 1.70 220.75 0.00 L 225.00 0.00 L 225.00 4.91 C 223.29 4.97 221.59 5.02 219.88 5.07 C 220.02 6.50 220.16 7.93 220.30 9.36 C 221.87 9.76 223.44 10.15 225.00 10.61 L 225.00 14.93 C 223.29 14.97 221.58 15.01 219.87 15.05 C 220.00 16.50 220.14 17.96 220.28 19.42 C 221.85 19.81 223.43 20.19 225.00 20.63 L 225.00 28.66 C 150.00 28.73 75.00 28.71 0.00 28.67 L 0.00 20.56 C 1.42 20.15 2.88 19.81 4.25 19.24 C 4.79 17.92 5.13 16.54 5.53 15.18 C 3.69 15.05 1.84 14.92 0.00 14.79 L 0.00 10.55 C 1.47 10.16 2.96 9.83 4.38 9.30 C 4.94 8.05 5.56 6.57 4.73 5.29 C 3.19 4.60 1.55 5.44 0.00 5.67 L 0.00 0.00 M 9.73 5.02 C 9.96 6.52 10.07 8.06 10.54 9.52 C 11.72 10.30 13.24 10.03 14.49 9.56 C 14.87 8.06 15.05 6.53 15.30 5.00 C 13.44 5.00 11.58 5.01 9.73 5.02 M 19.71 4.99 C 20.35 6.69 19.41 9.93 22.00 10.03 C 25.28 10.79 24.86 7.12 25.32 5.02 C 23.45 5.00 21.58 4.99 19.71 4.99 M 29.66 5.00 C 29.92 6.51 30.15 8.03 30.53 9.51 C 31.91 9.80 33.31 9.89 34.70 10.03 C 34.83 8.34 34.96 6.65 35.09 4.96 C 33.27 4.97 31.47 4.99 29.66 5.00 M 39.69 4.98 C 40.12 6.61 39.93 8.55 40.98 9.94 C 42.19 10.13 43.36 10.00 44.48 9.54 C 44.85 8.05 45.04 6.51 45.29 4.99 C 43.42 4.98 41.56 4.98 39.69 4.98 M 49.74 4.97 C 49.96 6.48 50.12 8.00 50.46 9.49 C 51.70 10.20 53.15 10.06 54.44 9.60 C 54.81 8.10 55.02 6.57 55.28 5.04 C 53.43 5.01 51.59 4.99 49.74 4.97 M 59.69 4.99 C 60.13 7.04 59.79 10.79 63.01 10.04 C 65.51 9.80 64.69 6.70 65.33 5.00 C 63.45 4.99 61.57 4.98 59.69 4.99 M 69.72 4.94 C 70.38 6.63 69.37 9.99 71.97 10.05 C 75.24 10.83 74.88 7.09 75.29 5.02 C 73.43 4.99 71.58 4.96 69.72 4.94 M 79.89 5.00 C 80.02 6.66 80.16 8.32 80.29 9.97 C 81.67 9.85 83.06 9.76 84.44 9.52 C 84.84 8.04 85.07 6.52 85.35 5.01 C 83.53 5.01 81.71 5.00 79.89 5.00 M 89.75 5.00 C 89.95 6.53 90.11 8.06 90.46 9.56 C 91.77 9.56 93.34 10.44 94.49 9.60 C 95.30 8.22 94.83 6.50 95.09 4.99 C 93.31 4.99 91.53 5.00 89.75 5.00 M 99.68 5.01 C 100.31 6.73 99.45 9.92 102.04 10.04 C 105.23 10.60 104.87 7.07 105.32 4.99 C 103.44 4.99 101.56 4.99 99.68 5.01 M 109.73 5.01 C 109.86 6.34 110.05 7.66 110.28 8.98 C 111.32 10.27 113.24 9.68 114.68 10.01 C 114.83 8.33 114.98 6.66 115.13 4.99 C 113.33 4.99 111.53 5.00 109.73 5.01 M 119.88 4.98 C 120.03 6.65 120.17 8.31 120.31 9.98 C 121.65 9.77 123.15 10.04 124.38 9.38 C 125.23 8.13 124.93 6.41 125.27 4.98 C 123.47 4.97 121.68 4.98 119.88 4.98 M 129.88 4.97 C 130.01 6.59 130.15 8.20 130.29 9.82 C 131.78 9.81 133.26 9.81 134.75 9.80 C 134.87 8.19 134.99 6.57 135.11 4.95 C 133.36 4.96 131.62 4.96 129.88 4.97 M 139.77 4.98 C 140.09 6.79 140.41 8.60 140.73 10.40 C 141.98 10.12 143.22 9.79 144.44 9.41 C 145.00 8.02 145.00 6.48 145.25 5.02 C 143.42 5.00 141.59 4.99 139.77 4.98 M 149.76 4.96 C 150.05 6.46 149.86 8.15 150.61 9.52 C 151.83 10.11 153.30 10.36 154.50 9.57 C 154.86 8.06 155.04 6.51 155.26 4.98 C 153.43 4.96 151.59 4.96 149.76 4.96 M 159.75 4.99 C 159.98 6.50 160.16 8.02 160.52 9.51 C 161.88 9.68 163.27 10.07 164.65 9.88 C 165.01 8.29 164.86 6.63 165.05 5.02 C 163.28 5.01 161.51 5.00 159.75 4.99 M 169.69 4.97 C 170.36 6.61 169.49 10.05 172.06 10.05 C 175.26 10.73 174.88 7.04 175.37 5.02 C 173.47 4.99 171.58 4.98 169.69 4.97 M 179.91 5.05 C 180.02 6.69 180.14 8.34 180.26 9.98 C 181.68 9.90 183.10 9.87 184.50 9.62 C 184.87 8.10 185.05 6.54 185.28 5.00 C 183.49 5.01 181.70 5.03 179.91 5.05 M 189.70 5.00 C 189.86 6.31 190.08 7.62 190.36 8.92 C 191.23 10.36 193.27 9.66 194.66 10.01 C 194.81 8.35 194.97 6.68 195.13 5.02 C 193.32 5.01 191.51 5.00 189.70 5.00 M 199.69 5.00 C 200.16 7.06 199.70 10.85 202.99 9.99 C 205.53 9.93 204.67 6.70 205.34 5.03 C 203.45 5.01 201.57 5.00 199.69 5.00 M 209.72 4.97 C 209.93 6.50 210.11 8.04 210.46 9.54 C 211.84 9.78 213.25 9.85 214.64 9.97 C 214.80 8.31 214.96 6.65 215.13 4.99 C 213.32 4.98 211.52 4.97 209.72 4.97 M 4.92 10.02 C 5.03 11.68 5.14 13.34 5.25 15.00 C 6.67 14.86 8.13 14.92 9.49 14.47 C 10.03 13.04 10.02 11.47 10.25 9.96 C 8.47 9.98 6.70 10.00 4.92 10.02 M 14.71 10.03 C 14.95 11.57 15.15 13.11 15.52 14.62 C 16.69 14.95 17.88 15.08 19.10 15.02 C 19.95 13.48 19.99 11.66 20.32 9.97 C 18.45 9.99 16.58 10.01 14.71 10.03 M 24.87 10.03 C 25.13 11.58 24.88 13.23 25.45 14.72 C 26.74 15.19 28.21 14.80 29.52 14.52 C 29.86 13.03 30.03 11.50 30.25 9.99 C 28.46 10.00 26.66 10.02 24.87 10.03 M 35.04 9.97 C 34.99 11.46 34.95 12.95 34.91 14.44 C 36.42 14.62 38.00 15.16 39.49 14.59 C 39.87 13.10 40.08 11.57 40.34 10.06 C 38.57 10.02 36.80 10.00 35.04 9.97 M 44.71 10.03 C 45.28 11.71 44.46 14.91 47.00 14.99 C 50.18 15.86 49.84 11.93 50.34 9.95 C 48.46 9.98 46.58 10.00 44.71 10.03 M 54.75 10.00 C 55.03 11.45 54.97 13.02 55.60 14.38 C 56.68 15.39 58.18 15.06 59.43 14.62 C 59.83 13.10 60.04 11.53 60.31 9.98 C 58.46 9.98 56.60 9.99 54.75 10.00 M 64.68 9.96 C 65.09 12.05 64.70 15.84 67.98 15.03 C 70.56 14.90 69.77 11.71 70.26 9.99 C 68.40 9.97 66.54 9.96 64.68 9.96 M 74.68 9.96 C 75.14 12.01 74.79 15.82 78.04 15.04 C 80.62 14.96 79.68 11.72 80.30 10.02 C 78.43 10.00 76.56 9.98 74.68 9.96 M 84.74 10.05 C 84.96 11.54 85.13 13.05 85.48 14.52 C 86.88 15.11 88.72 15.46 89.70 13.99 C 89.93 12.65 90.11 11.31 90.24 9.96 C 88.40 9.99 86.57 10.02 84.74 10.05 M 95.04 10.12 C 94.61 11.60 95.25 13.12 95.46 14.59 C 96.87 14.82 98.30 14.90 99.73 15.01 C 99.85 13.34 99.98 11.68 100.10 10.02 C 98.42 10.09 96.70 9.72 95.04 10.12 M 104.88 10.03 C 105.02 11.61 105.15 13.20 105.29 14.78 C 106.75 14.77 108.21 14.76 109.67 14.75 C 109.82 13.16 109.97 11.57 110.12 9.98 C 108.37 10.00 106.63 10.01 104.88 10.03 M 114.70 9.99 C 115.13 12.06 114.71 15.78 117.98 15.02 C 120.54 14.99 119.64 11.64 120.28 9.99 C 118.42 9.99 116.56 9.99 114.70 9.99 M 124.84 10.02 C 125.01 11.68 125.17 13.33 125.34 14.99 C 126.73 14.89 128.14 14.82 129.52 14.58 C 129.86 13.06 130.03 11.51 130.25 9.97 C 128.45 9.99 126.64 10.00 124.84 10.02 M 134.70 10.00 C 135.07 11.66 135.01 13.52 136.03 14.97 C 137.23 15.11 138.39 14.96 139.49 14.51 C 139.87 13.03 140.07 11.50 140.33 9.99 C 138.45 9.99 136.58 9.99 134.70 10.00 M 144.66 9.98 C 145.14 12.04 144.73 15.71 147.97 15.00 C 150.55 14.99 149.64 11.69 150.30 10.03 C 148.42 10.01 146.54 9.99 144.66 9.98 M 154.91 9.97 C 155.03 11.59 155.16 13.21 155.29 14.84 C 156.77 14.83 158.24 14.82 159.72 14.82 C 159.84 13.21 159.95 11.61 160.07 10.00 C 158.35 9.99 156.63 9.98 154.91 9.97 M 164.83 10.05 C 164.84 11.58 165.21 13.08 165.52 14.57 C 166.72 14.79 168.47 15.58 169.41 14.45 C 169.87 13.02 170.06 11.51 170.35 10.03 C 168.51 10.07 166.67 9.91 164.83 10.05 M 174.89 9.99 C 175.03 11.66 175.16 13.33 175.30 15.00 C 176.70 14.89 178.11 14.88 179.49 14.55 C 179.90 13.07 180.08 11.54 180.30 10.03 C 178.50 10.01 176.69 10.00 174.89 9.99 M 184.70 9.97 C 185.15 12.02 184.72 15.86 188.01 15.01 C 190.58 14.99 189.62 11.64 190.31 9.97 C 188.43 9.97 186.57 9.97 184.70 9.97 M 194.68 10.02 C 195.00 11.45 194.83 13.08 195.59 14.38 C 196.65 15.56 198.22 15.06 199.47 14.54 C 199.86 13.04 200.07 11.50 200.34 9.97 C 198.45 9.99 196.56 10.00 194.68 10.02 M 204.70 10.03 C 205.36 11.69 204.38 15.03 206.98 14.97 C 210.26 15.90 209.89 11.96 210.34 9.92 C 208.46 9.96 206.58 9.99 204.70 10.03 M 214.89 10.03 C 215.01 11.67 215.13 13.30 215.26 14.93 C 216.63 14.69 218.33 15.29 219.48 14.36 C 219.92 12.94 220.06 11.45 220.30 9.99 C 218.49 10.00 216.69 10.01 214.89 10.03 M 9.64 15.01 C 9.90 16.51 10.09 18.03 10.49 19.50 C 11.69 20.33 13.20 20.05 14.44 19.48 C 14.86 18.03 15.09 16.53 15.37 15.06 C 13.46 15.03 11.55 15.02 9.64 15.01 M 19.87 15.04 C 20.02 16.68 20.17 18.33 20.31 19.97 C 21.53 19.94 22.74 19.87 23.94 19.75 C 25.08 18.59 25.17 16.61 25.11 15.07 C 23.38 14.77 21.62 15.09 19.87 15.04 M 29.88 14.97 C 30.01 16.65 30.15 18.33 30.28 20.02 C 31.70 19.89 33.14 19.87 34.52 19.50 C 35.01 18.06 35.08 16.52 35.30 15.02 C 33.49 15.00 31.69 14.99 29.88 14.97 M 39.70 14.98 C 39.96 16.49 40.16 18.01 40.55 19.49 C 41.76 20.14 43.31 20.26 44.47 19.45 C 44.87 17.99 45.06 16.48 45.31 14.99 C 43.44 14.98 41.57 14.98 39.70 14.98 M 49.91 14.99 C 50.04 16.66 50.16 18.32 50.28 19.99 C 51.52 19.95 52.74 19.88 53.97 19.76 C 55.19 18.57 54.86 16.54 55.35 15.00 C 53.53 15.00 51.72 14.99 49.91 14.99 M 59.88 14.96 C 60.02 16.62 60.17 18.28 60.31 19.94 C 61.69 19.84 63.11 19.94 64.45 19.54 C 64.84 18.06 65.06 16.55 65.33 15.04 C 63.51 15.02 61.69 14.99 59.88 14.96 M 69.69 15.00 C 69.94 16.50 70.15 18.01 70.53 19.49 C 71.88 19.92 73.34 19.87 74.74 20.02 C 74.85 18.35 74.96 16.69 75.07 15.02 C 73.27 15.01 71.48 15.00 69.69 15.00 M 79.75 14.97 C 80.39 16.62 79.34 20.00 81.95 19.96 C 85.10 20.88 84.91 17.02 85.39 15.05 C 83.51 15.02 81.63 14.99 79.75 14.97 M 89.71 14.99 C 89.96 16.48 90.15 17.97 90.53 19.43 C 91.80 20.07 93.32 19.78 94.69 19.96 C 94.83 18.31 94.96 16.65 95.10 15.00 C 93.30 15.00 91.51 14.99 89.71 14.99 M 99.69 15.01 C 99.93 16.51 100.11 18.04 100.50 19.52 C 101.88 19.78 103.29 19.89 104.70 20.04 C 104.84 18.35 104.97 16.66 105.11 14.97 C 103.30 14.98 101.49 15.00 99.69 15.01 M 109.68 14.97 C 109.93 16.48 110.10 18.02 110.53 19.50 C 111.69 20.40 113.21 19.91 114.48 19.55 C 114.85 18.07 115.05 16.55 115.30 15.04 C 113.42 15.01 111.55 14.99 109.68 14.97 M 119.74 15.03 C 119.98 16.49 119.99 18.03 120.54 19.42 C 121.84 19.91 123.27 19.84 124.64 20.01 C 124.80 18.32 124.97 16.64 125.13 14.95 C 123.33 14.98 121.53 15.00 119.74 15.03 M 129.71 15.03 C 130.13 17.09 129.77 20.85 133.02 20.03 C 135.57 19.94 134.64 16.66 135.31 14.98 C 133.44 14.99 131.57 15.01 129.71 15.03 M 139.75 15.00 C 139.96 16.50 140.13 18.02 140.48 19.50 C 141.72 20.20 143.24 20.26 144.44 19.45 C 144.85 17.99 145.07 16.49 145.34 15.00 C 143.47 15.00 141.61 15.00 139.75 15.00 M 149.70 14.98 C 150.15 17.05 149.73 20.80 153.01 20.07 C 155.58 20.01 154.68 16.68 155.30 15.03 C 153.43 15.01 151.56 14.99 149.70 14.98 M 159.76 15.04 C 160.17 16.81 159.52 19.66 161.97 20.10 C 165.28 20.91 164.82 17.01 165.30 14.97 C 163.45 14.99 161.60 15.01 159.76 15.04 M 169.72 15.00 C 170.36 16.69 169.38 20.04 172.02 19.97 C 175.11 20.81 174.88 16.98 175.30 15.05 C 173.44 15.03 171.58 15.01 169.72 15.00 M 179.89 14.99 C 180.02 16.66 180.16 18.33 180.29 20.00 C 181.68 19.88 183.10 19.87 184.46 19.50 C 185.10 18.09 184.96 16.47 185.21 14.96 C 183.43 14.97 181.66 14.98 179.89 14.99 M 189.90 14.97 C 190.03 16.64 190.16 18.31 190.29 19.97 C 191.63 19.76 193.16 20.10 194.37 19.38 C 195.23 18.11 194.93 16.39 195.26 14.93 C 193.47 14.95 191.69 14.96 189.90 14.97 M 199.71 14.99 C 200.35 16.67 199.38 19.92 201.93 20.02 C 205.26 20.88 204.82 17.06 205.30 14.97 C 203.43 14.98 201.57 14.98 199.71 14.99 M 209.70 14.97 C 209.95 16.50 210.14 18.05 210.52 19.55 C 211.64 19.99 212.80 20.12 213.99 19.95 C 215.13 18.59 214.89 16.65 215.29 15.03 C 213.42 15.01 211.56 14.99 209.70 14.97 M 4.99 19.94 C 4.99 21.62 4.99 23.30 5.00 24.98 C 6.66 24.99 8.32 25.00 9.98 25.01 C 9.99 23.35 10.01 21.69 10.02 20.03 C 8.34 20.00 6.67 19.97 4.99 19.94 M 15.01 19.96 C 15.01 21.63 15.01 23.30 15.01 24.97 C 16.67 24.99 18.34 25.01 20.00 25.03 C 19.99 23.36 19.99 21.69 19.98 20.02 C 18.32 20.00 16.67 19.98 15.01 19.96 M 25.01 20.03 C 25.00 21.69 24.98 23.36 24.96 25.03 C 26.64 25.01 28.31 25.00 29.98 24.99 C 30.01 23.30 30.04 21.62 30.07 19.93 C 28.39 19.96 26.70 19.99 25.01 20.03 M 35.02 19.99 C 35.01 21.66 35.00 23.32 34.99 24.98 C 36.68 25.00 38.36 25.02 40.05 25.04 C 40.02 23.36 39.99 21.69 39.96 20.01 C 38.31 20.00 36.67 20.00 35.02 19.99 M 44.98 20.03 C 44.97 21.69 44.96 23.34 44.95 25.00 C 46.64 25.01 48.34 25.02 50.04 25.03 C 50.03 23.34 50.02 21.65 50.01 19.96 C 48.34 19.98 46.66 20.00 44.98 20.03 M 55.05 20.01 C 55.02 21.68 55.00 23.36 54.97 25.04 C 56.66 25.02 58.35 25.01 60.05 24.99 C 60.03 23.31 60.01 21.63 59.99 19.96 C 58.34 19.97 56.70 19.99 55.05 20.01 M 65.02 20.03 C 65.00 21.69 64.98 23.35 64.96 25.01 C 66.64 25.01 68.32 25.01 70.01 25.01 C 70.00 23.33 70.00 21.64 70.00 19.96 C 68.34 19.98 66.68 20.01 65.02 20.03 M 75.01 20.01 C 74.98 21.68 74.96 23.35 74.94 25.03 C 76.64 25.02 78.33 25.01 80.03 25.00 C 80.01 23.32 79.98 21.65 79.96 19.98 C 78.31 19.99 76.66 20.00 75.01 20.01 M 84.99 20.03 C 84.97 21.69 84.95 23.35 84.94 25.01 C 86.62 25.00 88.30 24.98 89.98 24.97 C 90.00 23.30 90.01 21.63 90.03 19.97 C 88.35 19.99 86.67 20.01 84.99 20.03 M 94.95 19.98 C 94.97 21.66 95.00 23.33 95.03 25.01 C 96.70 25.00 98.38 24.99 100.06 24.98 C 100.05 23.31 100.05 21.65 100.05 19.98 C 98.35 19.98 96.65 19.98 94.95 19.98 M 104.96 19.99 C 104.98 21.66 105.00 23.33 105.02 25.00 C 106.67 24.99 108.33 24.99 109.98 24.98 C 110.00 23.31 110.01 21.63 110.03 19.96 C 108.34 19.97 106.65 19.98 104.96 19.99 M 114.96 19.99 C 114.97 21.67 114.98 23.35 114.98 25.03 C 116.65 25.01 118.32 24.99 120.00 24.97 C 120.01 23.30 120.02 21.64 120.04 19.97 C 118.35 19.98 116.65 19.98 114.96 19.99 M 124.97 19.95 C 124.99 21.64 125.01 23.34 125.03 25.03 C 126.69 25.03 128.36 25.03 130.03 25.03 C 130.01 23.36 130.00 21.68 129.99 20.01 C 128.31 19.99 126.64 19.97 124.97 19.95 M 135.04 19.97 C 135.01 21.65 134.98 23.34 134.95 25.02 C 136.63 25.01 138.31 24.99 140.00 24.97 C 140.00 23.31 140.00 21.65 140.01 19.98 C 138.35 19.98 136.69 19.98 135.04 19.97 M 145.01 20.01 C 144.99 21.68 144.96 23.34 144.94 25.00 C 146.63 25.00 148.32 25.00 150.01 24.99 C 150.01 23.32 150.02 21.65 150.02 19.97 C 148.35 19.99 146.68 20.00 145.01 20.01 M 155.03 19.98 C 155.01 21.67 154.99 23.36 154.97 25.05 C 156.65 25.04 158.34 25.03 160.03 25.02 C 160.03 23.34 160.02 21.65 160.03 19.96 C 158.36 19.97 156.69 19.98 155.03 19.98 M 164.94 20.00 C 164.96 21.68 164.98 23.36 165.00 25.04 C 166.66 25.01 168.33 24.99 170.00 24.96 C 170.01 23.30 170.01 21.65 170.02 19.99 C 168.32 19.99 166.63 19.99 164.94 20.00 M 174.91 19.96 C 174.95 21.65 174.98 23.35 175.02 25.04 C 176.69 25.02 178.35 25.00 180.02 24.98 C 180.03 23.32 180.04 21.66 180.05 20.00 C 178.33 19.98 176.62 19.97 174.91 19.96 M 184.98 20.02 C 184.99 21.69 185.01 23.35 185.03 25.02 C 186.70 25.03 188.37 25.04 190.04 25.06 C 190.02 23.37 190.01 21.68 190.01 19.99 C 188.33 20.00 186.65 20.01 184.98 20.02 M 195.02 19.94 C 195.00 21.62 194.98 23.29 194.96 24.97 C 196.65 24.99 198.34 25.01 200.03 25.03 C 200.01 23.36 199.99 21.70 199.98 20.04 C 198.32 20.01 196.67 19.97 195.02 19.94 M 204.94 19.96 C 204.96 21.63 204.98 23.31 205.00 24.98 C 206.67 25.00 208.35 25.02 210.03 25.04 C 210.01 23.36 209.99 21.68 209.98 20.00 C 208.30 19.99 206.62 19.97 204.94 19.96 M 215.02 20.00 C 214.99 21.66 214.96 23.33 214.93 24.99 C 216.62 25.00 218.30 25.00 220.00 25.01 C 220.00 23.34 220.01 21.67 220.03 20.00 C 218.36 20.00 216.69 20.00 215.02 20.00 Z" />
<path fill="#ffffff" opacity="1.00" d=" M 0.00 196.37 C 75.00 196.23 150.00 196.40 225.00 196.29 L 225.00 225.00 L 0.00 225.00 L 0.00 196.37 Z" />
</g>
<g id="#eeeeeeff">
<path fill="#eeeeee" opacity="1.00" d=" M 4.67 0.00 L 10.63 0.00 C 10.16 1.65 9.76 3.33 9.36 5.00 C 8.12 4.80 6.87 4.61 5.66 4.30 C 5.04 2.95 4.99 1.43 4.67 0.00 Z" />
<path fill="#eeeeee" opacity="1.00" d=" M 14.46 0.00 L 20.60 0.00 C 20.13 1.69 19.74 3.39 19.34 5.10 C 18.14 4.88 16.92 4.71 15.75 4.39 C 15.20 2.96 14.86 1.47 14.46 0.00 Z" />
<path fill="#eeeeee" opacity="1.00" d=" M 24.82 0.00 L 30.65 0.00 C 30.09 1.71 29.60 3.45 29.11 5.18 C 27.86 4.99 26.61 4.80 25.37 4.62 C 25.18 3.08 25.00 1.54 24.82 0.00 Z" />
<path fill="#eeeeee" opacity="1.00" d=" M 34.83 0.00 L 40.70 0.00 C 40.21 1.58 39.78 3.17 39.34 4.77 C 38.01 4.78 36.69 4.79 35.37 4.80 C 35.19 3.20 35.01 1.60 34.83 0.00 Z" />
<path fill="#eeeeee" opacity="1.00" d=" M 44.47 0.00 L 50.63 0.00 C 50.19 1.69 49.81 3.39 49.45 5.10 C 48.39 4.83 47.31 4.71 46.22 4.76 C 45.00 3.49 45.02 1.58 44.47 0.00 Z" />
<path fill="#eeeeee" opacity="1.00" d=" M 54.72 0.00 L 60.65 0.00 C 60.09 1.67 59.58 3.36 59.08 5.05 C 58.23 5.07 56.53 5.10 55.69 5.11 C 55.36 3.41 55.04 1.70 54.72 0.00 Z" />
<path fill="#eeeeee" opacity="1.00" d=" M 64.45 0.00 L 70.65 0.00 C 70.16 1.69 69.73 3.40 69.30 5.11 C 68.12 4.88 66.93 4.70 65.78 4.37 C 65.21 2.95 64.86 1.46 64.45 0.00 Z" />
<path fill="#eeeeee" opacity="1.00" d=" M 74.86 0.00 L 80.60 0.00 C 80.18 1.58 79.80 3.17 79.43 4.76 C 78.06 4.75 76.70 4.74 75.33 4.73 C 75.17 3.15 75.01 1.58 74.86 0.00 Z" />
<path fill="#eeeeee" opacity="1.00" d=" M 84.84 0.00 L 90.64 0.00 C 90.20 1.57 89.81 3.16 89.42 4.74 C 88.06 4.77 86.71 4.81 85.35 4.84 C 85.18 3.23 85.01 1.61 84.84 0.00 Z" />
<path fill="#eeeeee" opacity="1.00" d=" M 94.42 0.00 L 100.58 0.00 C 100.11 1.69 99.71 3.40 99.31 5.11 C 98.20 4.96 97.10 4.78 96.00 4.57 C 95.19 3.16 94.91 1.53 94.42 0.00 Z" />
<path fill="#eeeeee" opacity="1.00" d=" M 104.83 0.00 L 110.70 0.00 C 110.22 1.57 109.79 3.16 109.36 4.74 C 108.03 4.77 106.71 4.80 105.38 4.82 C 105.20 3.21 105.01 1.61 104.83 0.00 Z" />
<path fill="#eeeeee" opacity="1.00" d=" M 114.83 0.00 L 120.54 0.00 C 120.12 1.59 119.77 3.20 119.40 4.80 C 118.07 4.79 116.73 4.79 115.39 4.79 C 115.20 3.19 115.02 1.60 114.83 0.00 Z" />
<path fill="#eeeeee" opacity="1.00" d=" M 124.85 0.00 L 130.73 0.00 C 130.25 1.56 129.83 3.14 129.41 4.71 C 128.06 4.74 126.71 4.77 125.37 4.80 C 125.19 3.20 125.02 1.60 124.85 0.00 Z" />
<path fill="#eeeeee" opacity="1.00" d=" M 134.86 0.00 L 140.68 0.00 C 140.22 1.59 139.83 3.19 139.43 4.80 C 138.06 4.79 136.69 4.79 135.31 4.79 C 135.16 3.19 135.01 1.60 134.86 0.00 Z" />
<path fill="#eeeeee" opacity="1.00" d=" M 144.83 0.00 L 150.58 0.00 C 150.13 1.58 149.74 3.17 149.35 4.76 C 148.03 4.79 146.72 4.82 145.40 4.86 C 145.21 3.24 145.01 1.62 144.83 0.00 Z" />
<path fill="#eeeeee" opacity="1.00" d=" M 154.48 0.00 L 160.73 0.00 C 160.18 1.68 159.72 3.40 158.90 4.97 C 157.81 5.02 156.74 4.89 155.70 4.58 C 155.18 3.08 154.85 1.53 154.48 0.00 Z" />
<path fill="#eeeeee" opacity="1.00" d=" M 164.41 0.00 L 170.57 0.00 C 170.11 1.72 169.71 3.45 169.32 5.19 C 168.12 4.94 166.90 4.76 165.77 4.29 C 165.17 2.91 164.83 1.44 164.41 0.00 Z" />
<path fill="#eeeeee" opacity="1.00" d=" M 174.86 0.00 L 180.54 0.00 C 180.15 1.57 179.81 3.15 179.47 4.74 C 178.09 4.76 176.71 4.79 175.33 4.81 C 175.17 3.21 175.02 1.60 174.86 0.00 Z" />
<path fill="#eeeeee" opacity="1.00" d=" M 184.85 0.00 L 190.65 0.00 C 190.21 1.57 189.83 3.16 189.45 4.75 C 188.08 4.75 186.72 4.75 185.36 4.75 C 185.19 3.16 185.02 1.58 184.85 0.00 Z" />
<path fill="#eeeeee" opacity="1.00" d=" M 194.83 0.00 L 200.63 0.00 C 200.17 1.57 199.77 3.16 199.37 4.75 C 198.06 4.77 196.74 4.80 195.43 4.83 C 195.23 3.22 195.03 1.61 194.83 0.00 Z" />
<path fill="#eeeeee" opacity="1.00" d=" M 204.46 0.00 L 210.58 0.00 C 210.14 1.71 209.77 3.43 209.40 5.16 C 208.17 4.91 206.93 4.73 205.76 4.30 C 205.19 2.91 204.85 1.44 204.46 0.00 Z" />
<path fill="#eeeeee" opacity="1.00" d=" M 214.46 0.00 L 220.75 0.00 C 220.21 1.70 219.74 3.41 219.27 5.13 C 218.07 4.88 216.87 4.68 215.70 4.34 C 215.17 2.93 214.85 1.45 214.46 0.00 Z" />
<path fill="#eeeeee" opacity="1.00" d=" M 0.00 5.67 C 1.55 5.44 3.19 4.60 4.73 5.29 C 5.56 6.57 4.94 8.05 4.38 9.30 C 2.96 9.83 1.47 10.16 0.00 10.55 L 0.00 5.67 Z" />
<path fill="#eeeeee" opacity="1.00" d=" M 9.73 5.02 C 11.58 5.01 13.44 5.00 15.30 5.00 C 15.05 6.53 14.87 8.06 14.49 9.56 C 13.24 10.03 11.72 10.30 10.54 9.52 C 10.07 8.06 9.96 6.52 9.73 5.02 Z" />
<path fill="#eeeeee" opacity="1.00" d=" M 19.71 4.99 C 21.58 4.99 23.45 5.00 25.32 5.02 C 24.86 7.12 25.28 10.79 22.00 10.03 C 19.41 9.93 20.35 6.69 19.71 4.99 Z" />
<path fill="#eeeeee" opacity="1.00" d=" M 29.66 5.00 C 31.47 4.99 33.27 4.97 35.09 4.96 C 34.96 6.65 34.83 8.34 34.70 10.03 C 33.31 9.89 31.91 9.80 30.53 9.51 C 30.15 8.03 29.92 6.51 29.66 5.00 Z" />
<path fill="#eeeeee" opacity="1.00" d=" M 39.69 4.98 C 41.56 4.98 43.42 4.98 45.29 4.99 C 45.04 6.51 44.85 8.05 44.48 9.54 C 43.36 10.00 42.19 10.13 40.98 9.94 C 39.93 8.55 40.12 6.61 39.69 4.98 Z" />
<path fill="#eeeeee" opacity="1.00" d=" M 49.74 4.97 C 51.59 4.99 53.43 5.01 55.28 5.04 C 55.02 6.57 54.81 8.10 54.44 9.60 C 53.15 10.06 51.70 10.20 50.46 9.49 C 50.12 8.00 49.96 6.48 49.74 4.97 Z" />
<path fill="#eeeeee" opacity="1.00" d=" M 59.69 4.99 C 61.57 4.98 63.45 4.99 65.33 5.00 C 64.69 6.70 65.51 9.80 63.01 10.04 C 59.79 10.79 60.13 7.04 59.69 4.99 Z" />
<path fill="#eeeeee" opacity="1.00" d=" M 69.72 4.94 C 71.58 4.96 73.43 4.99 75.29 5.02 C 74.88 7.09 75.24 10.83 71.97 10.05 C 69.37 9.99 70.38 6.63 69.72 4.94 Z" />
<path fill="#eeeeee" opacity="1.00" d=" M 79.89 5.00 C 81.71 5.00 83.53 5.01 85.35 5.01 C 85.07 6.52 84.84 8.04 84.44 9.52 C 83.06 9.76 81.67 9.85 80.29 9.97 C 80.16 8.32 80.02 6.66 79.89 5.00 Z" />
<path fill="#eeeeee" opacity="1.00" d=" M 89.75 5.00 C 91.53 5.00 93.31 4.99 95.09 4.99 C 94.83 6.50 95.30 8.22 94.49 9.60 C 93.34 10.44 91.77 9.56 90.46 9.56 C 90.11 8.06 89.95 6.53 89.75 5.00 Z" />
<path fill="#eeeeee" opacity="1.00" d=" M 99.68 5.01 C 101.56 4.99 103.44 4.99 105.32 4.99 C 104.87 7.07 105.23 10.60 102.04 10.04 C 99.45 9.92 100.31 6.73 99.68 5.01 Z" />
<path fill="#eeeeee" opacity="1.00" d=" M 109.73 5.01 C 111.53 5.00 113.33 4.99 115.13 4.99 C 114.98 6.66 114.83 8.33 114.68 10.01 C 113.24 9.68 111.32 10.27 110.28 8.98 C 110.05 7.66 109.86 6.34 109.73 5.01 Z" />
<path fill="#eeeeee" opacity="1.00" d=" M 119.88 4.98 C 121.68 4.98 123.47 4.97 125.27 4.98 C 124.93 6.41 125.23 8.13 124.38 9.38 C 123.15 10.04 121.65 9.77 120.31 9.98 C 120.17 8.31 120.03 6.65 119.88 4.98 Z" />
<path fill="#eeeeee" opacity="1.00" d=" M 129.88 4.97 C 131.62 4.96 133.36 4.96 135.11 4.95 C 134.99 6.57 134.87 8.19 134.75 9.80 C 133.26 9.81 131.78 9.81 130.29 9.82 C 130.15 8.20 130.01 6.59 129.88 4.97 Z" />
<path fill="#eeeeee" opacity="1.00" d=" M 139.77 4.98 C 141.59 4.99 143.42 5.00 145.25 5.02 C 145.00 6.48 145.00 8.02 144.44 9.41 C 143.22 9.79 141.98 10.12 140.73 10.40 C 140.41 8.60 140.09 6.79 139.77 4.98 Z" />
<path fill="#eeeeee" opacity="1.00" d=" M 149.76 4.96 C 151.59 4.96 153.43 4.96 155.26 4.98 C 155.04 6.51 154.86 8.06 154.50 9.57 C 153.30 10.36 151.83 10.11 150.61 9.52 C 149.86 8.15 150.05 6.46 149.76 4.96 Z" />
<path fill="#eeeeee" opacity="1.00" d=" M 159.75 4.99 C 161.51 5.00 163.28 5.01 165.05 5.02 C 164.86 6.63 165.01 8.29 164.65 9.88 C 163.27 10.07 161.88 9.68 160.52 9.51 C 160.16 8.02 159.98 6.50 159.75 4.99 Z" />
<path fill="#eeeeee" opacity="1.00" d=" M 169.69 4.97 C 171.58 4.98 173.47 4.99 175.37 5.02 C 174.88 7.04 175.26 10.73 172.06 10.05 C 169.49 10.05 170.36 6.61 169.69 4.97 Z" />
<path fill="#eeeeee" opacity="1.00" d=" M 179.91 5.05 C 181.70 5.03 183.49 5.01 185.28 5.00 C 185.05 6.54 184.87 8.10 184.50 9.62 C 183.10 9.87 181.68 9.90 180.26 9.98 C 180.14 8.34 180.02 6.69 179.91 5.05 Z" />
<path fill="#eeeeee" opacity="1.00" d=" M 189.70 5.00 C 191.51 5.00 193.32 5.01 195.13 5.02 C 194.97 6.68 194.81 8.35 194.66 10.01 C 193.27 9.66 191.23 10.36 190.36 8.92 C 190.08 7.62 189.86 6.31 189.70 5.00 Z" />
<path fill="#eeeeee" opacity="1.00" d=" M 199.69 5.00 C 201.57 5.00 203.45 5.01 205.34 5.03 C 204.67 6.70 205.53 9.93 202.99 9.99 C 199.70 10.85 200.16 7.06 199.69 5.00 Z" />
<path fill="#eeeeee" opacity="1.00" d=" M 209.72 4.97 C 211.52 4.97 213.32 4.98 215.13 4.99 C 214.96 6.65 214.80 8.31 214.64 9.97 C 213.25 9.85 211.84 9.78 210.46 9.54 C 210.11 8.04 209.93 6.50 209.72 4.97 Z" />
<path fill="#eeeeee" opacity="1.00" d=" M 219.88 5.07 C 221.59 5.02 223.29 4.97 225.00 4.91 L 225.00 10.61 C 223.44 10.15 221.87 9.76 220.30 9.36 C 220.16 7.93 220.02 6.50 219.88 5.07 Z" />
<path fill="#eeeeee" opacity="1.00" d=" M 4.92 10.02 C 6.70 10.00 8.47 9.98 10.25 9.96 C 10.02 11.47 10.03 13.04 9.49 14.47 C 8.13 14.92 6.67 14.86 5.25 15.00 C 5.14 13.34 5.03 11.68 4.92 10.02 Z" />
<path fill="#eeeeee" opacity="1.00" d=" M 14.71 10.03 C 16.58 10.01 18.45 9.99 20.32 9.97 C 19.99 11.66 19.95 13.48 19.10 15.02 C 17.88 15.08 16.69 14.95 15.52 14.62 C 15.15 13.11 14.95 11.57 14.71 10.03 Z" />
<path fill="#eeeeee" opacity="1.00" d=" M 24.87 10.03 C 26.66 10.02 28.46 10.00 30.25 9.99 C 30.03 11.50 29.86 13.03 29.52 14.52 C 28.21 14.80 26.74 15.19 25.45 14.72 C 24.88 13.23 25.13 11.58 24.87 10.03 Z" />
<path fill="#eeeeee" opacity="1.00" d=" M 35.04 9.97 C 36.80 10.00 38.57 10.02 40.34 10.06 C 40.08 11.57 39.87 13.10 39.49 14.59 C 38.00 15.16 36.42 14.62 34.91 14.44 C 34.95 12.95 34.99 11.46 35.04 9.97 Z" />
<path fill="#eeeeee" opacity="1.00" d=" M 44.71 10.03 C 46.58 10.00 48.46 9.98 50.34 9.95 C 49.84 11.93 50.18 15.86 47.00 14.99 C 44.46 14.91 45.28 11.71 44.71 10.03 Z" />
<path fill="#eeeeee" opacity="1.00" d=" M 54.75 10.00 C 56.60 9.99 58.46 9.98 60.31 9.98 C 60.04 11.53 59.83 13.10 59.43 14.62 C 58.18 15.06 56.68 15.39 55.60 14.38 C 54.97 13.02 55.03 11.45 54.75 10.00 Z" />
<path fill="#eeeeee" opacity="1.00" d=" M 64.68 9.96 C 66.54 9.96 68.40 9.97 70.26 9.99 C 69.77 11.71 70.56 14.90 67.98 15.03 C 64.70 15.84 65.09 12.05 64.68 9.96 Z" />
<path fill="#eeeeee" opacity="1.00" d=" M 74.68 9.96 C 76.56 9.98 78.43 10.00 80.30 10.02 C 79.68 11.72 80.62 14.96 78.04 15.04 C 74.79 15.82 75.14 12.01 74.68 9.96 Z" />
<path fill="#eeeeee" opacity="1.00" d=" M 84.74 10.05 C 86.57 10.02 88.40 9.99 90.24 9.96 C 90.11 11.31 89.93 12.65 89.70 13.99 C 88.72 15.46 86.88 15.11 85.48 14.52 C 85.13 13.05 84.96 11.54 84.74 10.05 Z" />
<path fill="#eeeeee" opacity="1.00" d=" M 95.04 10.12 C 96.70 9.72 98.42 10.09 100.10 10.02 C 99.98 11.68 99.85 13.34 99.73 15.01 C 98.30 14.90 96.87 14.82 95.46 14.59 C 95.25 13.12 94.61 11.60 95.04 10.12 Z" />
<path fill="#eeeeee" opacity="1.00" d=" M 104.88 10.03 C 106.63 10.01 108.37 10.00 110.12 9.98 C 109.97 11.57 109.82 13.16 109.67 14.75 C 108.21 14.76 106.75 14.77 105.29 14.78 C 105.15 13.20 105.02 11.61 104.88 10.03 Z" />
<path fill="#eeeeee" opacity="1.00" d=" M 114.70 9.99 C 116.56 9.99 118.42 9.99 120.28 9.99 C 119.64 11.64 120.54 14.99 117.98 15.02 C 114.71 15.78 115.13 12.06 114.70 9.99 Z" />
<path fill="#eeeeee" opacity="1.00" d=" M 124.84 10.02 C 126.64 10.00 128.45 9.99 130.25 9.97 C 130.03 11.51 129.86 13.06 129.52 14.58 C 128.14 14.82 126.73 14.89 125.34 14.99 C 125.17 13.33 125.01 11.68 124.84 10.02 Z" />
<path fill="#eeeeee" opacity="1.00" d=" M 134.70 10.00 C 136.58 9.99 138.45 9.99 140.33 9.99 C 140.07 11.50 139.87 13.03 139.49 14.51 C 138.39 14.96 137.23 15.11 136.03 14.97 C 135.01 13.52 135.07 11.66 134.70 10.00 Z" />
<path fill="#eeeeee" opacity="1.00" d=" M 144.66 9.98 C 146.54 9.99 148.42 10.01 150.30 10.03 C 149.64 11.69 150.55 14.99 147.97 15.00 C 144.73 15.71 145.14 12.04 144.66 9.98 Z" />
<path fill="#eeeeee" opacity="1.00" d=" M 154.91 9.97 C 156.63 9.98 158.35 9.99 160.07 10.00 C 159.95 11.61 159.84 13.21 159.72 14.82 C 158.24 14.82 156.77 14.83 155.29 14.84 C 155.16 13.21 155.03 11.59 154.91 9.97 Z" />
<path fill="#eeeeee" opacity="1.00" d=" M 164.83 10.05 C 166.67 9.91 168.51 10.07 170.35 10.03 C 170.06 11.51 169.87 13.02 169.41 14.45 C 168.47 15.58 166.72 14.79 165.52 14.57 C 165.21 13.08 164.84 11.58 164.83 10.05 Z" />
<path fill="#eeeeee" opacity="1.00" d=" M 174.89 9.99 C 176.69 10.00 178.50 10.01 180.30 10.03 C 180.08 11.54 179.90 13.07 179.49 14.55 C 178.11 14.88 176.70 14.89 175.30 15.00 C 175.16 13.33 175.03 11.66 174.89 9.99 Z" />
<path fill="#eeeeee" opacity="1.00" d=" M 184.70 9.97 C 186.57 9.97 188.43 9.97 190.31 9.97 C 189.62 11.64 190.58 14.99 188.01 15.01 C 184.72 15.86 185.15 12.02 184.70 9.97 Z" />
<path fill="#eeeeee" opacity="1.00" d=" M 194.68 10.02 C 196.56 10.00 198.45 9.99 200.34 9.97 C 200.07 11.50 199.86 13.04 199.47 14.54 C 198.22 15.06 196.65 15.56 195.59 14.38 C 194.83 13.08 195.00 11.45 194.68 10.02 Z" />
<path fill="#eeeeee" opacity="1.00" d=" M 204.70 10.03 C 206.58 9.99 208.46 9.96 210.34 9.92 C 209.89 11.96 210.26 15.90 206.98 14.97 C 204.38 15.03 205.36 11.69 204.70 10.03 Z" />
<path fill="#eeeeee" opacity="1.00" d=" M 214.89 10.03 C 216.69 10.01 218.49 10.00 220.30 9.99 C 220.06 11.45 219.92 12.94 219.48 14.36 C 218.33 15.29 216.63 14.69 215.26 14.93 C 215.13 13.30 215.01 11.67 214.89 10.03 Z" />
<path fill="#eeeeee" opacity="1.00" d=" M 0.00 14.79 C 1.84 14.92 3.69 15.05 5.53 15.18 C 5.13 16.54 4.79 17.92 4.25 19.24 C 2.88 19.81 1.42 20.15 0.00 20.56 L 0.00 14.79 Z" />
<path fill="#eeeeee" opacity="1.00" d=" M 9.64 15.01 C 11.55 15.02 13.46 15.03 15.37 15.06 C 15.09 16.53 14.86 18.03 14.44 19.48 C 13.20 20.05 11.69 20.33 10.49 19.50 C 10.09 18.03 9.90 16.51 9.64 15.01 Z" />
<path fill="#eeeeee" opacity="1.00" d=" M 19.87 15.04 C 21.62 15.09 23.38 14.77 25.11 15.07 C 25.17 16.61 25.08 18.59 23.94 19.75 C 22.74 19.87 21.53 19.94 20.31 19.97 C 20.17 18.33 20.02 16.68 19.87 15.04 Z" />
<path fill="#eeeeee" opacity="1.00" d=" M 29.88 14.97 C 31.69 14.99 33.49 15.00 35.30 15.02 C 35.08 16.52 35.01 18.06 34.52 19.50 C 33.14 19.87 31.70 19.89 30.28 20.02 C 30.15 18.33 30.01 16.65 29.88 14.97 Z" />
<path fill="#eeeeee" opacity="1.00" d=" M 39.70 14.98 C 41.57 14.98 43.44 14.98 45.31 14.99 C 45.06 16.48 44.87 17.99 44.47 19.45 C 43.31 20.26 41.76 20.14 40.55 19.49 C 40.16 18.01 39.96 16.49 39.70 14.98 Z" />
<path fill="#eeeeee" opacity="1.00" d=" M 49.91 14.99 C 51.72 14.99 53.53 15.00 55.35 15.00 C 54.86 16.54 55.19 18.57 53.97 19.76 C 52.74 19.88 51.52 19.95 50.28 19.99 C 50.16 18.32 50.04 16.66 49.91 14.99 Z" />
<path fill="#eeeeee" opacity="1.00" d=" M 59.88 14.96 C 61.69 14.99 63.51 15.02 65.33 15.04 C 65.06 16.55 64.84 18.06 64.45 19.54 C 63.11 19.94 61.69 19.84 60.31 19.94 C 60.17 18.28 60.02 16.62 59.88 14.96 Z" />
<path fill="#eeeeee" opacity="1.00" d=" M 69.69 15.00 C 71.48 15.00 73.27 15.01 75.07 15.02 C 74.96 16.69 74.85 18.35 74.74 20.02 C 73.34 19.87 71.88 19.92 70.53 19.49 C 70.15 18.01 69.94 16.50 69.69 15.00 Z" />
<path fill="#eeeeee" opacity="1.00" d=" M 79.75 14.97 C 81.63 14.99 83.51 15.02 85.39 15.05 C 84.91 17.02 85.10 20.88 81.95 19.96 C 79.34 20.00 80.39 16.62 79.75 14.97 Z" />
<path fill="#eeeeee" opacity="1.00" d=" M 89.71 14.99 C 91.51 14.99 93.30 15.00 95.10 15.00 C 94.96 16.65 94.83 18.31 94.69 19.96 C 93.32 19.78 91.80 20.07 90.53 19.43 C 90.15 17.97 89.96 16.48 89.71 14.99 Z" />
<path fill="#eeeeee" opacity="1.00" d=" M 99.69 15.01 C 101.49 15.00 103.30 14.98 105.11 14.97 C 104.97 16.66 104.84 18.35 104.70 20.04 C 103.29 19.89 101.88 19.78 100.50 19.52 C 100.11 18.04 99.93 16.51 99.69 15.01 Z" />
<path fill="#eeeeee" opacity="1.00" d=" M 109.68 14.97 C 111.55 14.99 113.42 15.01 115.30 15.04 C 115.05 16.55 114.85 18.07 114.48 19.55 C 113.21 19.91 111.69 20.40 110.53 19.50 C 110.10 18.02 109.93 16.48 109.68 14.97 Z" />
<path fill="#eeeeee" opacity="1.00" d=" M 119.74 15.03 C 121.53 15.00 123.33 14.98 125.13 14.95 C 124.97 16.64 124.80 18.32 124.64 20.01 C 123.27 19.84 121.84 19.91 120.54 19.42 C 119.99 18.03 119.98 16.49 119.74 15.03 Z" />
<path fill="#eeeeee" opacity="1.00" d=" M 129.71 15.03 C 131.57 15.01 133.44 14.99 135.31 14.98 C 134.64 16.66 135.57 19.94 133.02 20.03 C 129.77 20.85 130.13 17.09 129.71 15.03 Z" />
<path fill="#eeeeee" opacity="1.00" d=" M 139.75 15.00 C 141.61 15.00 143.47 15.00 145.34 15.00 C 145.07 16.49 144.85 17.99 144.44 19.45 C 143.24 20.26 141.72 20.20 140.48 19.50 C 140.13 18.02 139.96 16.50 139.75 15.00 Z" />
<path fill="#eeeeee" opacity="1.00" d=" M 149.70 14.98 C 151.56 14.99 153.43 15.01 155.30 15.03 C 154.68 16.68 155.58 20.01 153.01 20.07 C 149.73 20.80 150.15 17.05 149.70 14.98 Z" />
<path fill="#eeeeee" opacity="1.00" d=" M 159.76 15.04 C 161.60 15.01 163.45 14.99 165.30 14.97 C 164.82 17.01 165.28 20.91 161.97 20.10 C 159.52 19.66 160.17 16.81 159.76 15.04 Z" />
<path fill="#eeeeee" opacity="1.00" d=" M 169.72 15.00 C 171.58 15.01 173.44 15.03 175.30 15.05 C 174.88 16.98 175.11 20.81 172.02 19.97 C 169.38 20.04 170.36 16.69 169.72 15.00 Z" />
<path fill="#eeeeee" opacity="1.00" d=" M 179.89 14.99 C 181.66 14.98 183.43 14.97 185.21 14.96 C 184.96 16.47 185.10 18.09 184.46 19.50 C 183.10 19.87 181.68 19.88 180.29 20.00 C 180.16 18.33 180.02 16.66 179.89 14.99 Z" />
<path fill="#eeeeee" opacity="1.00" d=" M 189.90 14.97 C 191.69 14.96 193.47 14.95 195.26 14.93 C 194.93 16.39 195.23 18.11 194.37 19.38 C 193.16 20.10 191.63 19.76 190.29 19.97 C 190.16 18.31 190.03 16.64 189.90 14.97 Z" />
<path fill="#eeeeee" opacity="1.00" d=" M 199.71 14.99 C 201.57 14.98 203.43 14.98 205.30 14.97 C 204.82 17.06 205.26 20.88 201.93 20.02 C 199.38 19.92 200.35 16.67 199.71 14.99 Z" />
<path fill="#eeeeee" opacity="1.00" d=" M 209.70 14.97 C 211.56 14.99 213.42 15.01 215.29 15.03 C 214.89 16.65 215.13 18.59 213.99 19.95 C 212.80 20.12 211.64 19.99 210.52 19.55 C 210.14 18.05 209.95 16.50 209.70 14.97 Z" />
<path fill="#eeeeee" opacity="1.00" d=" M 219.87 15.05 C 221.58 15.01 223.29 14.97 225.00 14.93 L 225.00 20.63 C 223.43 20.19 221.85 19.81 220.28 19.42 C 220.14 17.96 220.00 16.50 219.87 15.05 Z" />
<path fill="#eeeeee" opacity="1.00" d=" M 4.99 19.94 C 6.67 19.97 8.34 20.00 10.02 20.03 C 10.01 21.69 9.99 23.35 9.98 25.01 C 8.32 25.00 6.66 24.99 5.00 24.98 C 4.99 23.30 4.99 21.62 4.99 19.94 Z" />
<path fill="#eeeeee" opacity="1.00" d=" M 15.01 19.96 C 16.67 19.98 18.32 20.00 19.98 20.02 C 19.99 21.69 19.99 23.36 20.00 25.03 C 18.34 25.01 16.67 24.99 15.01 24.97 C 15.01 23.30 15.01 21.63 15.01 19.96 Z" />
<path fill="#eeeeee" opacity="1.00" d=" M 25.01 20.03 C 26.70 19.99 28.39 19.96 30.07 19.93 C 30.04 21.62 30.01 23.30 29.98 24.99 C 28.31 25.00 26.64 25.01 24.96 25.03 C 24.98 23.36 25.00 21.69 25.01 20.03 Z" />
<path fill="#eeeeee" opacity="1.00" d=" M 35.02 19.99 C 36.67 20.00 38.31 20.00 39.96 20.01 C 39.99 21.69 40.02 23.36 40.05 25.04 C 38.36 25.02 36.68 25.00 34.99 24.98 C 35.00 23.32 35.01 21.66 35.02 19.99 Z" />
<path fill="#eeeeee" opacity="1.00" d=" M 44.98 20.03 C 46.66 20.00 48.34 19.98 50.01 19.96 C 50.02 21.65 50.03 23.34 50.04 25.03 C 48.34 25.02 46.64 25.01 44.95 25.00 C 44.96 23.34 44.97 21.69 44.98 20.03 Z" />
<path fill="#eeeeee" opacity="1.00" d=" M 55.05 20.01 C 56.70 19.99 58.34 19.97 59.99 19.96 C 60.01 21.63 60.03 23.31 60.05 24.99 C 58.35 25.01 56.66 25.02 54.97 25.04 C 55.00 23.36 55.02 21.68 55.05 20.01 Z" />
<path fill="#eeeeee" opacity="1.00" d=" M 65.02 20.03 C 66.68 20.01 68.34 19.98 70.00 19.96 C 70.00 21.64 70.00 23.33 70.01 25.01 C 68.32 25.01 66.64 25.01 64.96 25.01 C 64.98 23.35 65.00 21.69 65.02 20.03 Z" />
<path fill="#eeeeee" opacity="1.00" d=" M 75.01 20.01 C 76.66 20.00 78.31 19.99 79.96 19.98 C 79.98 21.65 80.01 23.32 80.03 25.00 C 78.33 25.01 76.64 25.02 74.94 25.03 C 74.96 23.35 74.98 21.68 75.01 20.01 Z" />
<path fill="#eeeeee" opacity="1.00" d=" M 84.99 20.03 C 86.67 20.01 88.35 19.99 90.03 19.97 C 90.01 21.63 90.00 23.30 89.98 24.97 C 88.30 24.98 86.62 25.00 84.94 25.01 C 84.95 23.35 84.97 21.69 84.99 20.03 Z" />
<path fill="#eeeeee" opacity="1.00" d=" M 94.95 19.98 C 96.65 19.98 98.35 19.98 100.05 19.98 C 100.05 21.65 100.05 23.31 100.06 24.98 C 98.38 24.99 96.70 25.00 95.03 25.01 C 95.00 23.33 94.97 21.66 94.95 19.98 Z" />
<path fill="#eeeeee" opacity="1.00" d=" M 104.96 19.99 C 106.65 19.98 108.34 19.97 110.03 19.96 C 110.01 21.63 110.00 23.31 109.98 24.98 C 108.33 24.99 106.67 24.99 105.02 25.00 C 105.00 23.33 104.98 21.66 104.96 19.99 Z" />
<path fill="#eeeeee" opacity="1.00" d=" M 114.96 19.99 C 116.65 19.98 118.35 19.98 120.04 19.97 C 120.02 21.64 120.01 23.30 120.00 24.97 C 118.32 24.99 116.65 25.01 114.98 25.03 C 114.98 23.35 114.97 21.67 114.96 19.99 Z" />
<path fill="#eeeeee" opacity="1.00" d=" M 124.97 19.95 C 126.64 19.97 128.31 19.99 129.99 20.01 C 130.00 21.68 130.01 23.36 130.03 25.03 C 128.36 25.03 126.69 25.03 125.03 25.03 C 125.01 23.34 124.99 21.64 124.97 19.95 Z" />
<path fill="#eeeeee" opacity="1.00" d=" M 135.04 19.97 C 136.69 19.98 138.35 19.98 140.01 19.98 C 140.00 21.65 140.00 23.31 140.00 24.97 C 138.31 24.99 136.63 25.01 134.95 25.02 C 134.98 23.34 135.01 21.65 135.04 19.97 Z" />
<path fill="#eeeeee" opacity="1.00" d=" M 145.01 20.01 C 146.68 20.00 148.35 19.99 150.02 19.97 C 150.02 21.65 150.01 23.32 150.01 24.99 C 148.32 25.00 146.63 25.00 144.94 25.00 C 144.96 23.34 144.99 21.68 145.01 20.01 Z" />
<path fill="#eeeeee" opacity="1.00" d=" M 155.03 19.98 C 156.69 19.98 158.36 19.97 160.03 19.96 C 160.02 21.65 160.03 23.34 160.03 25.02 C 158.34 25.03 156.65 25.04 154.97 25.05 C 154.99 23.36 155.01 21.67 155.03 19.98 Z" />
<path fill="#eeeeee" opacity="1.00" d=" M 164.94 20.00 C 166.63 19.99 168.32 19.99 170.02 19.99 C 170.01 21.65 170.01 23.30 170.00 24.96 C 168.33 24.99 166.66 25.01 165.00 25.04 C 164.98 23.36 164.96 21.68 164.94 20.00 Z" />
<path fill="#eeeeee" opacity="1.00" d=" M 174.91 19.96 C 176.62 19.97 178.33 19.98 180.05 20.00 C 180.04 21.66 180.03 23.32 180.02 24.98 C 178.35 25.00 176.69 25.02 175.02 25.04 C 174.98 23.35 174.95 21.65 174.91 19.96 Z" />
<path fill="#eeeeee" opacity="1.00" d=" M 184.98 20.02 C 186.65 20.01 188.33 20.00 190.01 19.99 C 190.01 21.68 190.02 23.37 190.04 25.06 C 188.37 25.04 186.70 25.03 185.03 25.02 C 185.01 23.35 184.99 21.69 184.98 20.02 Z" />
<path fill="#eeeeee" opacity="1.00" d=" M 195.02 19.94 C 196.67 19.97 198.32 20.01 199.98 20.04 C 199.99 21.70 200.01 23.36 200.03 25.03 C 198.34 25.01 196.65 24.99 194.96 24.97 C 194.98 23.29 195.00 21.62 195.02 19.94 Z" />
<path fill="#eeeeee" opacity="1.00" d=" M 204.94 19.96 C 206.62 19.97 208.30 19.99 209.98 20.00 C 209.99 21.68 210.01 23.36 210.03 25.04 C 208.35 25.02 206.67 25.00 205.00 24.98 C 204.98 23.31 204.96 21.63 204.94 19.96 Z" />
<path fill="#eeeeee" opacity="1.00" d=" M 215.02 20.00 C 216.69 20.00 218.36 20.00 220.03 20.00 C 220.01 21.67 220.00 23.34 220.00 25.01 C 218.30 25.00 216.62 25.00 214.93 24.99 C 214.96 23.33 214.99 21.66 215.02 20.00 Z" />
</g>
<g id="#ee0000ff">
<path fill="#ee0000" opacity="1.00" d=" M 0.00 28.67 C 75.00 28.71 150.00 28.73 225.00 28.66 L 225.00 29.11 C 193.98 57.56 162.59 85.61 131.43 113.92 C 126.21 118.72 120.72 124.68 112.99 124.38 C 104.83 125.06 98.89 118.91 93.46 113.82 C 62.34 85.56 31.00 57.52 0.00 29.12 L 0.00 28.67 Z" />
</g>
<g id="#ffcc01ff">
<path fill="#ffcc01" opacity="1.00" d=" M 0.00 29.12 C 31.00 57.52 62.34 85.56 93.46 113.82 C 62.51 141.22 30.93 167.92 0.00 195.34 L 0.00 29.12 Z" />
<path fill="#ffcc01" opacity="1.00" d=" M 131.43 113.92 C 162.59 85.61 193.98 57.56 225.00 29.11 L 225.00 195.27 C 193.88 168.09 162.65 141.00 131.43 113.92 Z" />
</g>
<g id="#f2c102ff">
<path fill="#f2c102" opacity="1.00" d=" M 93.46 113.82 C 98.89 118.91 104.83 125.06 112.99 124.38 C 120.72 124.68 126.21 118.72 131.43 113.92 C 162.65 141.00 193.88 168.09 225.00 195.27 L 225.00 196.29 C 150.00 196.40 75.00 196.23 0.00 196.37 L 0.00 195.34 C 30.93 167.92 62.51 141.22 93.46 113.82 Z" />
</g>
</svg>
