<?xml version="1.0" encoding="UTF-8" ?>
<!DOCTYPE svg PUBLIC "-//W3C//DTD SVG 1.1//EN" "http://www.w3.org/Graphics/SVG/1.1/DTD/svg11.dtd">
<svg width="16pt" height="16pt" viewBox="0 0 16 16" version="1.1" xmlns="http://www.w3.org/2000/svg">
<g id="#0d70bcf8">
<path fill="#0d70bc" opacity="0.97" d=" M 7.51 0.00 L 8.22 0.00 C 8.76 0.48 9.86 1.44 10.40 1.92 C 9.59 2.75 8.79 3.58 8.00 4.43 C 7.25 3.58 6.48 2.77 5.67 1.97 C 6.13 1.48 7.05 0.49 7.51 0.00 Z" />
<path fill="#0d70bc" opacity="0.97" d=" M 1.51 4.43 C 2.85 2.67 4.50 4.24 5.55 5.39 C 7.12 5.04 9.43 4.26 10.39 6.11 C 11.24 7.95 9.55 9.51 8.99 11.14 C 9.22 12.20 9.54 13.23 9.93 14.24 C 9.66 14.68 9.12 15.56 8.84 16.00 L 7.43 16.00 C 7.07 15.58 6.35 14.75 5.99 14.34 C 7.68 11.87 6.52 9.37 4.96 7.21 C 3.11 7.60 0.28 6.83 1.51 4.43 M 7.14 6.67 C 6.66 8.30 7.23 8.84 8.86 8.28 C 9.35 6.65 8.77 6.11 7.14 6.67 Z" />
<path fill="#0d70bc" opacity="0.97" d=" M 11.32 4.29 C 12.99 2.12 16.33 5.32 14.06 6.95 C 12.46 8.50 9.99 5.97 11.32 4.29 Z" />
</g>
</svg>
