<?xml version="1.0" encoding="UTF-8" ?>
<!DOCTYPE svg PUBLIC "-//W3C//DTD SVG 1.1//EN" "http://www.w3.org/Graphics/SVG/1.1/DTD/svg11.dtd">
<svg width="128pt" height="130pt" viewBox="0 0 128 130" version="1.1" xmlns="http://www.w3.org/2000/svg">
<g id="#ce0a00ff">
<path fill="#ce0a00" opacity="1.00" d=" M 0.00 0.00 L 128.00 0.00 L 128.00 130.00 L 0.00 130.00 L 0.00 0.00 M 66.50 22.30 C 66.39 26.05 66.47 29.83 65.65 33.51 C 59.16 33.46 52.67 33.89 46.19 33.56 C 42.96 32.47 40.05 30.53 36.68 29.79 C 37.87 47.90 39.22 67.04 31.94 84.16 C 29.17 90.92 23.63 95.81 18.93 101.18 C 20.94 100.55 22.91 99.75 24.65 98.56 C 32.40 93.15 38.83 85.62 41.95 76.60 C 47.14 63.58 44.73 49.36 45.52 35.73 C 64.38 35.61 83.23 35.09 102.08 34.46 C 100.88 31.67 98.30 29.85 95.78 28.35 C 92.78 27.96 91.87 32.39 89.05 32.63 C 84.72 32.88 80.39 32.66 76.06 32.68 C 76.06 29.74 76.86 26.93 77.92 24.21 C 74.12 23.57 70.37 22.57 66.50 22.30 M 77.45 35.44 C 77.21 39.44 77.35 43.46 77.51 47.46 C 73.49 47.52 69.48 47.59 65.46 47.55 C 65.49 45.26 65.41 42.97 65.40 40.68 C 62.89 39.79 60.38 38.93 57.80 38.28 C 57.74 41.40 57.78 44.53 57.78 47.65 C 53.85 47.51 49.89 47.71 46.11 48.87 C 49.14 52.68 54.18 49.17 58.21 49.71 C 58.52 53.57 58.42 57.45 58.89 61.29 C 59.47 63.70 61.69 65.12 63.78 66.11 C 64.08 64.49 64.29 62.86 64.49 61.22 C 71.45 59.70 78.65 61.21 85.70 60.40 C 83.90 57.04 83.84 52.78 85.16 49.30 C 90.58 47.91 96.50 49.10 102.12 48.50 C 100.38 46.21 98.53 43.66 95.88 42.42 C 93.67 42.99 92.84 45.86 90.74 46.79 C 89.07 47.72 87.09 47.13 85.29 47.13 C 85.32 44.37 85.37 41.61 85.47 38.85 C 82.91 37.45 80.24 36.28 77.45 35.44 M 68.37 63.29 C 68.65 65.95 68.87 68.63 69.15 71.30 C 66.09 71.45 63.02 71.61 59.96 71.65 C 55.90 72.12 52.84 68.93 49.47 67.20 C 49.47 75.80 49.63 84.40 49.64 93.00 C 49.74 94.59 49.29 96.60 51.08 97.41 C 53.95 95.41 57.29 92.75 57.27 88.91 C 57.35 83.85 57.17 78.79 57.37 73.73 C 61.28 73.66 65.20 73.53 69.11 73.58 C 69.09 80.92 69.57 88.31 68.29 95.58 C 67.93 97.65 67.22 99.69 67.18 101.81 C 69.06 104.85 72.38 107.03 75.84 107.93 C 76.69 104.68 76.53 101.31 76.52 98.00 C 76.43 89.81 76.54 81.62 76.45 73.43 C 80.16 72.62 83.97 72.47 87.76 72.75 C 87.48 78.87 88.76 84.96 88.05 91.07 C 86.39 91.23 84.73 91.45 83.07 91.58 C 84.91 93.70 86.53 96.07 86.86 98.94 C 91.26 97.15 95.25 93.90 97.35 89.59 C 98.71 83.31 96.04 76.36 99.76 70.59 C 96.81 69.27 93.96 67.71 90.97 66.49 C 89.21 67.08 88.50 69.12 87.33 70.44 C 83.79 70.60 80.26 70.73 76.72 70.81 C 77.38 68.88 78.11 66.98 78.87 65.09 C 75.62 63.41 71.94 63.31 68.37 63.29 Z" />
<path fill="#ce0a00" opacity="1.00" d=" M 65.41 49.58 C 69.44 49.56 73.47 49.45 77.51 49.43 C 77.45 52.46 77.44 55.49 77.50 58.52 C 73.14 58.65 68.77 58.74 64.40 58.64 C 64.57 55.60 64.88 52.58 65.41 49.58 Z" />
</g>
<g id="#ffffffff">
<path fill="#ffffff" opacity="1.00" d=" M 66.50 22.30 C 70.37 22.57 74.12 23.57 77.92 24.21 C 76.86 26.93 76.06 29.74 76.06 32.68 C 80.39 32.66 84.72 32.88 89.05 32.63 C 91.87 32.39 92.78 27.96 95.78 28.35 C 98.30 29.85 100.88 31.67 102.08 34.46 C 83.23 35.09 64.38 35.61 45.52 35.73 C 44.73 49.36 47.14 63.58 41.95 76.60 C 38.83 85.62 32.40 93.15 24.65 98.56 C 22.91 99.75 20.94 100.55 18.93 101.18 C 23.63 95.81 29.17 90.92 31.94 84.16 C 39.22 67.04 37.87 47.90 36.68 29.79 C 40.05 30.53 42.96 32.47 46.19 33.56 C 52.67 33.89 59.16 33.46 65.65 33.51 C 66.47 29.83 66.39 26.05 66.50 22.30 Z" />
<path fill="#ffffff" opacity="1.00" d=" M 77.45 35.44 C 80.24 36.28 82.91 37.45 85.47 38.85 C 85.37 41.61 85.32 44.37 85.29 47.13 C 87.09 47.13 89.07 47.72 90.74 46.79 C 92.84 45.86 93.67 42.99 95.88 42.42 C 98.53 43.66 100.38 46.21 102.12 48.50 C 96.50 49.10 90.58 47.91 85.16 49.30 C 83.84 52.78 83.90 57.04 85.70 60.40 C 78.65 61.21 71.45 59.70 64.49 61.22 C 64.29 62.86 64.08 64.49 63.78 66.11 C 61.69 65.12 59.47 63.70 58.89 61.29 C 58.42 57.45 58.52 53.57 58.21 49.71 C 54.18 49.17 49.14 52.68 46.11 48.87 C 49.89 47.71 53.85 47.51 57.78 47.65 C 57.78 44.53 57.74 41.40 57.80 38.28 C 60.38 38.93 62.89 39.79 65.40 40.68 C 65.41 42.97 65.49 45.26 65.46 47.55 C 69.48 47.59 73.49 47.52 77.51 47.46 C 77.35 43.46 77.21 39.44 77.45 35.44 M 65.41 49.58 C 64.88 52.58 64.57 55.60 64.40 58.64 C 68.77 58.74 73.14 58.65 77.50 58.52 C 77.44 55.49 77.45 52.46 77.51 49.43 C 73.47 49.45 69.44 49.56 65.41 49.58 Z" />
<path fill="#ffffff" opacity="1.00" d=" M 68.37 63.29 C 71.94 63.31 75.62 63.41 78.87 65.09 C 78.11 66.98 77.38 68.88 76.72 70.81 C 80.26 70.73 83.79 70.60 87.33 70.44 C 88.50 69.12 89.21 67.08 90.97 66.49 C 93.96 67.71 96.81 69.27 99.76 70.59 C 96.04 76.36 98.71 83.31 97.35 89.59 C 95.25 93.90 91.26 97.15 86.86 98.94 C 86.53 96.07 84.91 93.70 83.07 91.58 C 84.73 91.45 86.39 91.23 88.05 91.07 C 88.76 84.96 87.48 78.87 87.76 72.75 C 83.97 72.47 80.16 72.62 76.45 73.43 C 76.54 81.62 76.43 89.81 76.52 98.00 C 76.53 101.31 76.69 104.68 75.84 107.93 C 72.38 107.03 69.06 104.85 67.18 101.81 C 67.22 99.69 67.93 97.65 68.29 95.58 C 69.57 88.31 69.09 80.92 69.11 73.58 C 65.20 73.53 61.28 73.66 57.37 73.73 C 57.17 78.79 57.35 83.85 57.27 88.91 C 57.29 92.75 53.95 95.41 51.08 97.41 C 49.29 96.60 49.74 94.59 49.64 93.00 C 49.63 84.40 49.47 75.80 49.47 67.20 C 52.84 68.93 55.90 72.12 59.96 71.65 C 63.02 71.61 66.09 71.45 69.15 71.30 C 68.87 68.63 68.65 65.95 68.37 63.29 Z" />
</g>
</svg>
