<?xml version="1.0" encoding="UTF-8" ?>
<!DOCTYPE svg PUBLIC "-//W3C//DTD SVG 1.1//EN" "http://www.w3.org/Graphics/SVG/1.1/DTD/svg11.dtd">
<svg width="32pt" height="32pt" viewBox="0 0 32 32" version="1.1" xmlns="http://www.w3.org/2000/svg">
<g id="#807f78ff">
<path fill="#807f78" opacity="1.00" d=" M 0.00 0.00 L 6.24 0.00 C 6.92 2.11 7.37 4.28 7.69 6.47 C 6.75 4.90 6.13 2.99 4.66 1.82 C 3.28 1.44 2.30 2.71 1.32 3.42 C 0.99 3.78 0.33 4.49 0.00 4.85 L 0.00 0.00 Z" />
</g>
<g id="#ededecff">
<path fill="#ededec" opacity="1.00" d=" M 6.24 0.00 L 11.99 0.00 C 12.05 0.40 12.18 1.21 12.24 1.61 C 11.70 5.37 10.44 9.00 8.68 12.36 C 8.30 10.41 8.00 8.44 7.69 6.47 C 7.37 4.28 6.92 2.11 6.24 0.00 Z" />
</g>
<g id="#777670ff">
<path fill="#777670" opacity="1.00" d=" M 11.99 0.00 L 18.01 0.00 C 17.99 1.44 17.99 2.89 18.01 4.33 C 17.67 4.06 16.98 3.52 16.64 3.26 C 15.21 2.62 13.71 2.14 12.24 1.61 C 12.18 1.21 12.05 0.40 11.99 0.00 Z" />
</g>
<g id="#eeeeeeff">
<path fill="#eeeeee" opacity="1.00" d=" M 18.01 0.00 L 32.00 0.00 L 32.00 16.11 C 28.94 13.09 24.51 13.62 20.59 13.71 C 20.27 10.45 19.48 7.26 18.01 4.33 C 17.99 2.89 17.99 1.44 18.01 0.00 Z" />
<path fill="#eeeeee" opacity="1.00" d=" M 0.00 4.85 C 0.33 4.49 0.99 3.78 1.32 3.42 C 2.36 9.21 4.19 14.81 5.56 20.52 C 6.12 24.32 5.79 28.18 5.86 32.00 L 0.00 32.00 L 0.00 4.85 Z" />
<path fill="#eeeeee" opacity="1.00" d=" M 21.77 17.73 C 23.26 17.75 24.76 17.76 26.25 17.73 C 26.59 20.49 26.57 23.27 26.15 26.02 C 24.76 25.95 23.38 25.92 21.99 25.91 C 21.54 23.20 21.50 20.46 21.77 17.73 Z" />
</g>
<g id="#201d1dff">
<path fill="#201d1d" opacity="1.00" d=" M 1.32 3.42 C 2.30 2.71 3.28 1.44 4.66 1.82 C 6.13 2.99 6.75 4.90 7.69 6.47 C 8.00 8.44 8.30 10.41 8.68 12.36 C 10.44 9.00 11.70 5.37 12.24 1.61 C 13.71 2.14 15.21 2.62 16.64 3.26 C 16.13 5.97 15.73 8.70 15.30 11.43 C 12.82 18.02 11.58 24.95 12.20 32.00 L 5.86 32.00 C 5.79 28.18 6.12 24.32 5.56 20.52 C 4.19 14.81 2.36 9.21 1.32 3.42 Z" />
</g>
<g id="#99ca3bff">
<path fill="#99ca3b" opacity="1.00" d=" M 16.64 3.26 C 16.98 3.52 17.67 4.06 18.01 4.33 C 19.48 7.26 20.27 10.45 20.59 13.71 C 24.51 13.62 28.94 13.09 32.00 16.11 L 32.00 27.83 C 27.20 30.86 21.46 30.17 16.08 29.86 C 15.94 23.71 16.19 17.53 15.30 11.43 C 15.73 8.70 16.13 5.97 16.64 3.26 M 21.77 17.73 C 21.50 20.46 21.54 23.20 21.99 25.91 C 23.38 25.92 24.76 25.95 26.15 26.02 C 26.57 23.27 26.59 20.49 26.25 17.73 C 24.76 17.76 23.26 17.75 21.77 17.73 Z" />
</g>
<g id="#ededebff">
<path fill="#ededeb" opacity="1.00" d=" M 12.20 32.00 C 11.58 24.95 12.82 18.02 15.30 11.43 C 16.19 17.53 15.94 23.71 16.08 29.86 C 21.46 30.17 27.20 30.86 32.00 27.83 L 32.00 32.00 L 12.20 32.00 Z" />
</g>
</svg>
