<?xml version="1.0" encoding="UTF-8" ?>
<!DOCTYPE svg PUBLIC "-//W3C//DTD SVG 1.1//EN" "http://www.w3.org/Graphics/SVG/1.1/DTD/svg11.dtd">
<svg width="40pt" height="40pt" viewBox="0 0 40 40" version="1.1" xmlns="http://www.w3.org/2000/svg">
<g id="#ed1c24ff">
<path fill="#ed1c24" opacity="1.00" d=" M 0.00 0.00 L 40.00 0.00 L 40.00 40.00 L 0.00 40.00 L 0.00 0.00 M 3.85 11.09 C 5.31 14.63 7.44 17.84 8.98 21.33 C 9.37 23.52 9.13 25.78 9.15 28.01 C 10.04 28.00 11.83 28.00 12.72 27.99 C 12.71 25.83 12.52 23.65 12.82 21.50 C 14.26 17.87 16.33 14.53 17.95 10.98 C 17.00 10.99 15.09 11.02 14.14 11.03 C 13.08 13.40 12.01 15.77 10.98 18.16 C 9.90 15.75 8.78 13.36 7.65 10.97 C 6.38 11.01 5.12 11.05 3.85 11.09 M 21.20 13.29 C 16.84 17.65 18.46 26.08 24.57 27.98 C 27.51 28.13 30.54 28.20 33.22 26.76 C 33.18 23.84 33.21 20.91 33.20 17.99 C 30.80 18.00 28.40 18.00 26.00 18.10 C 26.00 18.79 26.00 20.17 26.00 20.86 C 27.22 20.93 28.44 21.00 29.65 21.06 C 29.64 22.37 29.64 23.68 29.63 24.99 C 28.25 25.00 26.87 25.02 25.48 25.04 C 21.16 22.64 21.43 16.19 25.73 13.93 C 27.00 13.96 28.27 13.99 29.54 14.05 C 30.75 14.80 31.96 15.56 33.21 16.25 C 33.18 15.03 33.14 13.81 33.09 12.58 C 32.40 12.20 31.00 11.43 30.31 11.05 C 27.15 10.81 23.56 10.82 21.20 13.29 Z" />
</g>
<g id="#ffffffff">
<path fill="#ffffff" opacity="1.00" d=" M 3.85 11.09 C 5.12 11.05 6.38 11.01 7.65 10.97 C 8.78 13.36 9.90 15.75 10.98 18.16 C 12.01 15.77 13.08 13.40 14.14 11.03 C 15.09 11.02 17.00 10.99 17.95 10.98 C 16.33 14.53 14.26 17.87 12.82 21.50 C 12.52 23.65 12.71 25.83 12.72 27.99 C 11.83 28.00 10.04 28.00 9.15 28.01 C 9.13 25.78 9.37 23.52 8.98 21.33 C 7.44 17.84 5.31 14.63 3.85 11.09 Z" />
<path fill="#ffffff" opacity="1.00" d=" M 21.20 13.29 C 23.56 10.82 27.15 10.81 30.31 11.05 C 31.00 11.43 32.40 12.20 33.09 12.58 C 33.14 13.81 33.18 15.03 33.21 16.25 C 31.96 15.56 30.75 14.80 29.54 14.05 C 28.27 13.99 27.00 13.96 25.73 13.93 C 21.43 16.19 21.16 22.64 25.48 25.04 C 26.87 25.02 28.25 25.00 29.63 24.99 C 29.64 23.68 29.64 22.37 29.65 21.06 C 28.44 21.00 27.22 20.93 26.00 20.86 C 26.00 20.17 26.00 18.79 26.00 18.10 C 28.40 18.00 30.80 18.00 33.20 17.99 C 33.21 20.91 33.18 23.84 33.22 26.76 C 30.54 28.20 27.51 28.13 24.57 27.98 C 18.46 26.08 16.84 17.65 21.20 13.29 Z" />
</g>
</svg>
