<?xml version="1.0" encoding="UTF-8" ?>
<!DOCTYPE svg PUBLIC "-//W3C//DTD SVG 1.1//EN" "http://www.w3.org/Graphics/SVG/1.1/DTD/svg11.dtd">
<svg width="39pt" height="29pt" viewBox="0 0 39 29" version="1.1" xmlns="http://www.w3.org/2000/svg">
<g id="#fdfbfbfd">
<path fill="#fdfbfb" opacity="1.00" d=" M 26.69 2.73 C 29.00 0.78 32.26 3.22 32.11 5.93 C 30.91 8.24 27.89 8.53 27.53 11.44 C 28.53 11.58 29.53 11.71 30.54 11.83 C 31.52 10.75 33.02 9.92 34.51 10.52 C 37.36 11.19 37.39 15.91 34.52 16.58 C 32.42 17.42 30.41 15.72 30.10 13.66 C 29.21 13.52 28.33 13.38 27.45 13.23 C 26.88 14.61 26.32 15.99 25.84 17.40 C 24.85 19.26 23.63 22.75 20.87 21.19 C 22.15 18.50 23.44 15.82 24.75 13.14 C 21.99 12.83 19.22 12.78 16.48 12.37 C 16.26 12.00 15.81 11.26 15.59 10.90 C 18.73 8.87 22.48 10.53 25.92 10.46 C 26.19 9.91 26.73 8.81 27.00 8.26 C 25.45 6.84 24.59 4.11 26.69 2.73 M 27.31 4.10 C 25.92 6.07 28.90 8.25 30.14 6.08 C 31.23 4.16 28.69 2.92 27.31 4.10 M 32.31 12.39 C 30.21 14.23 34.59 16.63 34.96 13.91 C 35.79 12.31 33.25 11.18 32.31 12.39 Z" />
<path fill="#fdfbfb" opacity="1.00" d=" M 10.46 16.16 C 12.71 16.94 14.64 18.37 16.84 19.26 C 15.52 21.34 12.65 22.01 10.44 22.88 C 10.44 20.64 10.44 18.40 10.46 16.16 Z" />
</g>
<g id="#d02021ff">
<path fill="#d02021" opacity="1.00" d=" M 0.00 16.30 C 0.49 14.43 0.60 11.50 3.01 11.19 C 7.15 10.48 11.41 10.96 15.59 10.90 C 15.81 11.26 16.26 12.00 16.48 12.37 C 19.22 12.78 21.99 12.83 24.75 13.14 C 23.44 15.82 22.15 18.50 20.87 21.19 C 23.63 22.75 24.85 19.26 25.84 17.40 C 25.77 21.00 26.82 25.58 23.89 28.34 C 17.33 29.17 10.64 28.74 4.04 28.64 C 0.74 28.92 0.30 25.15 0.00 22.72 L 0.00 16.30 M 10.46 16.16 C 10.44 18.40 10.44 20.64 10.44 22.88 C 12.65 22.01 15.52 21.34 16.84 19.26 C 14.64 18.37 12.71 16.94 10.46 16.16 Z" />
</g>
</svg>
