<?xml version="1.0" encoding="UTF-8" ?>
<!DOCTYPE svg PUBLIC "-//W3C//DTD SVG 1.1//EN" "http://www.w3.org/Graphics/SVG/1.1/DTD/svg11.dtd">
<svg width="144pt" height="144pt" viewBox="0 0 144 144" version="1.1" xmlns="http://www.w3.org/2000/svg">
<g id="#ff0000ff">
<path fill="#ff0000" opacity="1.00" d=" M 62.47 6.74 C 75.33 5.05 88.73 6.78 100.43 12.52 C 119.20 21.36 133.21 39.56 136.84 60.00 C 138.87 71.81 137.99 84.22 133.64 95.43 C 127.31 112.32 113.68 126.30 96.95 133.06 C 85.01 138.07 71.56 139.07 58.90 136.65 C 38.85 132.78 21.13 118.84 12.44 100.39 C 5.22 85.44 4.19 67.74 9.13 51.94 C 16.46 28.37 37.98 10.05 62.47 6.74 M 60.38 34.74 C 50.22 37.87 41.49 45.36 36.89 54.95 C 31.65 65.52 31.67 78.49 36.88 89.07 C 40.75 97.09 47.49 103.71 55.59 107.44 C 66.03 112.34 78.69 112.24 89.03 107.12 C 98.47 102.60 105.88 94.08 109.10 84.12 C 111.14 78.28 111.17 71.95 110.53 65.86 C 108.69 53.77 100.73 42.82 89.81 37.30 C 80.85 32.61 70.03 31.82 60.38 34.74 Z" />
<path fill="#ff0000" opacity="1.00" d=" M 64.41 38.63 C 81.57 34.22 100.55 45.74 104.95 62.80 C 109.97 79.04 100.50 97.80 84.70 103.80 C 71.21 109.51 54.46 105.05 45.42 93.58 C 35.24 81.56 35.24 62.48 45.42 50.46 C 50.22 44.57 56.97 40.27 64.41 38.63 M 59.29 52.44 C 59.28 65.45 59.27 78.47 59.30 91.49 C 70.53 84.99 81.77 78.48 93.02 72.01 C 81.77 65.51 70.44 59.12 59.29 52.44 Z" />
</g>
<g id="#ffffffff">
<path fill="#ffffff" opacity="1.00" d=" M 60.38 34.74 C 70.03 31.82 80.85 32.61 89.81 37.30 C 100.73 42.82 108.69 53.77 110.53 65.86 C 111.17 71.95 111.14 78.28 109.10 84.12 C 105.88 94.08 98.47 102.60 89.03 107.12 C 78.69 112.24 66.03 112.34 55.59 107.44 C 47.49 103.71 40.75 97.09 36.88 89.07 C 31.67 78.49 31.65 65.52 36.89 54.95 C 41.49 45.36 50.22 37.87 60.38 34.74 M 64.41 38.63 C 56.97 40.27 50.22 44.57 45.42 50.46 C 35.24 62.48 35.24 81.56 45.42 93.58 C 54.46 105.05 71.21 109.51 84.70 103.80 C 100.50 97.80 109.97 79.04 104.95 62.80 C 100.55 45.74 81.57 34.22 64.41 38.63 Z" />
<path fill="#ffffff" opacity="1.00" d=" M 59.29 52.44 C 70.44 59.12 81.77 65.51 93.02 72.01 C 81.77 78.48 70.53 84.99 59.30 91.49 C 59.27 78.47 59.28 65.45 59.29 52.44 Z" />
</g>
</svg>
