<?xml version="1.0" encoding="UTF-8" ?>
<!DOCTYPE svg PUBLIC "-//W3C//DTD SVG 1.1//EN" "http://www.w3.org/Graphics/SVG/1.1/DTD/svg11.dtd">
<svg width="100pt" height="100pt" viewBox="0 0 100 100" version="1.1" xmlns="http://www.w3.org/2000/svg">
<g id="#222c41e7">
<path fill="#222c41" opacity="0.91" d=" M 0.00 0.00 L 100.00 0.00 L 100.00 0.98 C 66.67 1.03 33.33 0.93 0.00 1.06 L 0.00 0.00 Z" />
<path fill="#222c41" opacity="0.91" d=" M 0.00 1.30 C 1.69 7.75 0.85 14.43 0.98 21.00 C 1.06 42.65 0.94 64.30 1.02 85.95 C 1.20 90.23 1.07 94.55 0.00 98.72 L 0.00 1.30 Z" />
<path fill="#222c41" opacity="0.91" d=" M 99.02 20.01 C 99.14 13.74 98.33 7.37 100.00 1.23 L 100.00 98.66 C 99.49 96.15 98.92 93.63 98.93 91.05 C 99.10 67.37 98.93 43.69 99.02 20.01 Z" />
<path fill="#222c41" opacity="0.91" d=" M 0.00 99.05 C 14.08 98.82 28.16 99.28 42.24 98.80 C 46.40 98.89 50.57 98.93 54.73 98.86 C 69.82 99.16 84.91 98.98 100.00 98.94 L 100.00 100.00 L 0.00 100.00 L 0.00 99.05 Z" />
</g>
<g id="#263148ff">
<path fill="#263148" opacity="1.00" d=" M 0.00 1.06 C 33.33 0.93 66.67 1.03 100.00 0.98 L 100.00 1.23 C 98.33 7.37 99.14 13.74 99.02 20.01 C 98.93 43.69 99.10 67.37 98.93 91.05 C 98.92 93.63 99.49 96.15 100.00 98.66 L 100.00 98.94 C 84.91 98.98 69.82 99.16 54.73 98.86 C 57.34 98.17 59.89 97.23 62.41 96.26 C 60.56 96.15 58.72 96.07 56.87 96.05 C 56.83 95.89 56.73 95.59 56.69 95.43 C 59.84 95.11 63.21 95.28 65.97 93.44 C 67.28 92.73 68.56 91.97 69.84 91.23 C 69.70 89.76 69.58 88.28 69.47 86.80 C 60.63 91.95 50.02 94.44 39.90 92.31 C 32.50 90.99 25.53 87.52 20.07 82.36 C 19.31 77.27 17.99 72.20 18.36 67.01 C 18.70 61.53 19.44 56.07 20.69 50.72 C 21.16 55.53 21.14 60.40 22.09 65.16 L 23.65 65.30 C 25.89 62.67 25.52 58.95 26.48 55.80 C 26.66 56.53 27.03 58.00 27.21 58.73 C 28.20 56.22 29.03 53.65 29.76 51.06 C 29.88 59.01 28.24 67.92 33.15 74.85 L 33.18 72.92 C 33.89 73.73 34.63 74.53 35.46 75.23 L 36.99 75.86 C 37.21 72.32 36.79 68.80 35.91 65.37 C 36.17 59.17 37.79 53.13 38.17 46.94 C 38.51 46.63 39.21 46.00 39.55 45.69 C 40.57 43.72 41.70 41.76 43.29 40.18 C 44.41 40.66 45.54 41.16 46.66 41.65 C 45.82 46.76 44.71 51.87 44.80 57.07 C 42.78 55.30 40.21 54.53 37.56 54.38 C 39.28 57.75 41.86 60.59 45.05 62.63 C 44.57 67.16 45.43 71.76 47.86 75.65 L 48.42 73.93 C 49.76 76.13 51.37 78.15 53.13 80.04 L 51.14 79.82 C 53.75 82.11 56.94 83.49 60.19 84.62 C 62.74 82.24 63.68 79.05 63.22 75.62 C 62.88 75.85 62.20 76.32 61.86 76.56 C 60.77 77.27 59.67 77.97 58.57 78.69 C 54.19 75.71 50.88 71.08 50.83 65.61 C 52.31 62.86 53.40 59.91 54.07 56.86 C 53.49 60.61 54.53 64.40 56.84 67.39 C 61.32 63.15 65.97 57.67 64.83 51.02 C 68.21 52.26 70.97 55.14 70.60 58.97 C 71.36 63.24 68.16 66.35 65.81 69.42 C 68.28 68.48 70.37 66.84 72.07 64.84 L 71.70 66.84 C 76.26 63.13 75.56 56.03 71.67 52.11 L 71.88 54.16 C 69.96 51.58 67.64 48.37 64.01 48.66 C 59.37 48.82 56.04 52.63 54.16 56.51 C 52.79 50.66 56.24 44.92 55.05 39.07 C 53.88 35.69 50.25 33.82 46.79 34.50 C 46.53 34.52 46.02 34.56 45.76 34.58 C 45.27 34.56 44.31 34.52 43.82 34.50 C 43.05 34.40 42.27 34.29 41.50 34.15 C 39.99 31.91 37.75 26.68 34.52 29.32 C 32.53 34.61 31.54 40.24 30.59 45.80 C 29.86 43.88 29.02 41.99 28.23 40.09 C 28.68 44.16 29.15 48.38 27.41 52.23 C 27.88 49.21 28.52 46.07 27.86 43.02 C 27.17 40.11 23.99 39.41 21.56 38.56 C 24.10 35.65 25.37 31.85 25.91 28.07 C 25.85 25.90 23.51 25.27 21.89 24.56 C 21.61 24.44 21.07 24.22 20.79 24.11 C 20.41 25.52 19.99 26.93 19.61 28.35 C 19.29 27.95 18.65 27.15 18.34 26.75 C 17.45 30.39 16.16 33.90 14.83 37.40 C 14.41 35.03 14.02 32.66 13.66 30.28 C 13.22 31.55 12.80 32.83 12.38 34.10 C 12.20 32.80 12.01 31.49 11.80 30.19 C 11.54 30.65 11.01 31.56 10.75 32.02 C 10.36 31.78 9.57 31.29 9.17 31.05 C 7.02 35.53 4.34 39.95 3.74 44.97 C 3.37 46.72 4.48 48.24 5.15 49.74 C 5.09 50.58 5.03 51.42 4.98 52.26 C 2.52 58.97 5.37 66.23 8.23 72.35 C 8.63 72.38 9.43 72.46 9.83 72.50 C 12.43 77.27 15.12 82.19 19.28 85.80 C 22.71 88.91 26.67 91.37 30.76 93.51 C 33.49 94.80 36.34 95.81 39.23 96.67 C 38.57 96.80 37.26 97.07 36.60 97.21 C 38.47 97.78 40.34 98.34 42.24 98.80 C 28.16 99.28 14.08 98.82 0.00 99.05 L 0.00 98.72 C 1.07 94.55 1.20 90.23 1.02 85.95 C 0.94 64.30 1.06 42.65 0.98 21.00 C 0.85 14.43 1.69 7.75 0.00 1.30 L 0.00 1.06 M 24.45 16.71 C 24.85 18.01 25.21 19.32 25.61 20.62 C 25.96 20.41 26.66 19.97 27.01 19.75 L 26.32 21.36 C 32.12 19.33 37.70 16.25 44.01 16.20 C 47.88 15.58 52.31 17.35 55.72 14.91 C 61.54 16.04 67.27 18.22 72.20 21.53 C 69.89 22.36 73.19 25.11 74.32 23.31 C 78.76 27.18 82.65 31.80 85.00 37.26 L 83.63 36.21 C 84.15 40.95 86.72 45.22 86.77 50.03 C 87.08 54.18 86.29 58.27 85.40 62.30 C 84.88 64.27 85.39 66.73 87.56 67.49 L 87.66 68.39 C 90.34 62.42 90.75 55.52 90.12 49.06 C 88.28 37.20 82.76 25.25 72.78 18.14 L 74.66 18.67 C 72.53 15.13 68.45 13.83 65.05 11.89 C 62.69 10.51 60.03 9.80 57.31 9.65 L 58.31 11.26 C 46.95 8.01 34.13 9.87 24.45 16.71 M 71.21 70.90 C 71.27 71.67 71.39 73.22 71.45 74.00 C 70.75 74.07 69.35 74.20 68.65 74.27 C 69.29 75.30 69.94 76.33 70.60 77.35 C 69.90 77.65 68.50 78.24 67.79 78.53 C 68.13 78.87 68.82 79.55 69.16 79.89 C 69.45 81.47 69.75 83.05 70.06 84.63 C 71.39 84.62 72.73 84.62 74.06 84.65 C 74.48 83.11 74.88 81.57 75.29 80.02 C 73.68 79.98 72.08 79.93 70.48 79.89 L 70.63 78.89 C 71.69 79.10 73.81 79.52 74.87 79.73 C 74.85 77.67 74.82 75.58 75.59 73.63 C 75.03 73.57 73.90 73.45 73.34 73.40 C 72.64 72.55 71.93 71.72 71.21 70.90 M 86.82 72.92 C 86.64 77.24 85.82 81.47 84.22 85.49 C 86.43 83.89 87.39 81.34 88.07 78.80 C 88.51 78.61 89.39 78.23 89.83 78.04 C 89.23 78.92 88.61 79.79 87.96 80.64 C 89.07 81.04 90.19 81.43 91.31 81.81 C 90.36 81.78 88.47 81.72 87.53 81.69 C 88.39 82.99 89.66 83.60 91.34 83.51 C 89.44 83.61 87.37 83.64 86.56 85.73 C 89.96 85.28 94.22 86.62 96.95 84.04 C 95.21 83.94 93.48 83.89 91.74 83.87 C 93.07 83.28 94.43 82.71 95.61 81.82 C 94.90 81.72 93.47 81.53 92.76 81.44 C 92.10 80.66 91.42 79.90 90.72 79.16 C 92.46 78.68 94.07 77.97 95.60 77.04 C 93.30 76.76 90.98 76.74 88.67 76.49 C 90.88 76.24 93.10 76.27 95.32 76.22 C 95.16 74.93 95.54 73.55 95.04 72.32 C 92.29 72.44 89.55 72.63 86.82 72.92 M 76.12 73.27 C 76.72 77.94 75.63 82.64 76.45 87.30 C 78.01 85.97 77.53 83.82 77.69 82.02 C 78.30 82.28 79.54 82.80 80.16 83.06 C 82.36 81.62 81.61 79.03 80.07 77.42 C 80.57 76.31 81.18 75.25 81.63 74.11 C 80.44 72.43 77.88 73.68 76.12 73.27 M 92.89 79.15 C 93.08 80.22 94.59 81.90 95.65 80.73 C 96.39 79.24 93.79 77.72 92.89 79.15 Z" />
<path fill="#263148" opacity="1.00" d=" M 89.30 74.41 C 90.47 73.64 92.29 73.48 93.50 74.23 C 93.22 75.60 89.47 75.90 89.30 74.41 Z" />
<path fill="#263148" opacity="1.00" d=" M 72.08 77.29 C 70.57 76.46 70.55 75.68 72.03 74.94 C 73.57 75.71 73.59 76.49 72.08 77.29 Z" />
<path fill="#263148" opacity="1.00" d=" M 78.09 75.27 C 81.40 75.52 76.45 78.27 78.09 75.27 Z" />
<path fill="#263148" opacity="1.00" d=" M 78.15 78.07 C 79.55 77.14 80.43 79.91 79.53 80.79 C 78.00 81.80 77.24 78.99 78.15 78.07 Z" />
<path fill="#263148" opacity="1.00" d=" M 71.33 81.17 C 72.98 80.67 73.52 81.23 72.95 82.84 C 71.32 83.34 70.78 82.78 71.33 81.17 Z" />
</g>
<g id="#e4eceeff">
<path fill="#e4ecee" opacity="1.00" d=" M 24.45 16.71 C 34.13 9.87 46.95 8.01 58.31 11.26 C 63.46 12.78 68.25 15.27 72.78 18.14 C 82.76 25.25 88.28 37.20 90.12 49.06 C 90.75 55.52 90.34 62.42 87.66 68.39 L 87.56 67.49 C 86.59 62.60 88.64 57.84 88.59 52.96 C 88.87 47.51 87.27 42.16 85.00 37.26 C 82.65 31.80 78.76 27.18 74.32 23.31 C 73.67 22.64 72.97 22.05 72.20 21.53 C 67.27 18.22 61.54 16.04 55.72 14.91 C 51.91 14.25 48.04 14.14 44.18 14.25 C 42.77 14.00 41.36 13.73 39.95 13.44 C 45.00 13.32 50.07 13.58 55.10 12.91 C 45.87 9.94 35.21 11.52 27.07 16.80 C 27.51 17.27 28.39 18.21 28.83 18.68 C 28.38 18.95 27.47 19.48 27.01 19.75 C 26.66 19.97 25.96 20.41 25.61 20.62 C 25.21 19.32 24.85 18.01 24.45 16.71 Z" />
</g>
<g id="#16213aff">
<path fill="#16213a" opacity="1.00" d=" M 57.31 9.65 C 60.03 9.80 62.69 10.51 65.05 11.89 C 68.45 13.83 72.53 15.13 74.66 18.67 L 72.78 18.14 C 68.25 15.27 63.46 12.78 58.31 11.26 L 57.31 9.65 Z" />
<path fill="#16213a" opacity="1.00" d=" M 44.18 14.25 C 48.04 14.14 51.91 14.25 55.72 14.91 C 52.31 17.35 47.88 15.58 44.01 16.20 C 37.70 16.25 32.12 19.33 26.32 21.36 L 27.01 19.75 C 27.47 19.48 28.38 18.95 28.83 18.68 C 33.64 16.31 38.86 14.86 44.18 14.25 Z" />
<path fill="#16213a" opacity="1.00" d=" M 21.89 24.56 C 23.51 25.27 25.85 25.90 25.91 28.07 C 25.37 31.85 24.10 35.65 21.56 38.56 C 21.47 34.93 23.04 31.67 24.32 28.38 C 23.58 27.06 22.71 25.82 21.89 24.56 Z" />
<path fill="#16213a" opacity="1.00" d=" M 18.34 26.75 C 18.65 27.15 19.29 27.95 19.61 28.35 C 18.75 31.41 18.15 34.54 17.24 37.59 C 15.79 38.10 14.35 38.64 12.87 39.07 C 12.70 37.41 12.54 35.76 12.38 34.10 C 12.80 32.83 13.22 31.55 13.66 30.28 C 14.02 32.66 14.41 35.03 14.83 37.40 C 16.16 33.90 17.45 30.39 18.34 26.75 Z" />
<path fill="#16213a" opacity="1.00" d=" M 34.52 29.32 C 37.75 26.68 39.99 31.91 41.50 34.15 C 42.27 34.29 43.05 34.40 43.82 34.50 C 44.31 34.52 45.27 34.56 45.76 34.58 C 43.43 35.59 41.17 36.75 38.89 37.84 C 39.13 36.47 39.37 35.11 39.62 33.74 C 38.29 32.08 36.98 30.40 35.67 28.73 C 34.40 37.52 31.44 46.05 31.30 55.00 C 31.01 61.04 31.98 67.02 33.18 72.92 L 33.15 74.85 C 28.24 67.92 29.88 59.01 29.76 51.06 C 29.03 53.65 28.20 56.22 27.21 58.73 C 27.03 58.00 26.66 56.53 26.48 55.80 C 26.76 54.60 27.07 53.41 27.41 52.23 C 29.15 48.38 28.68 44.16 28.23 40.09 C 29.02 41.99 29.86 43.88 30.59 45.80 C 31.54 40.24 32.53 34.61 34.52 29.32 Z" />
<path fill="#16213a" opacity="1.00" d=" M 46.79 34.50 C 50.25 33.82 53.88 35.69 55.05 39.07 C 56.24 44.92 52.79 50.66 54.16 56.51 L 54.07 56.86 C 53.40 59.91 52.31 62.86 50.83 65.61 C 50.11 57.30 52.97 49.24 53.40 41.00 C 54.07 36.98 49.22 36.36 46.79 34.50 Z" />
<path fill="#16213a" opacity="1.00" d=" M 43.29 40.18 C 44.95 39.50 46.66 38.95 48.36 38.37 C 48.51 44.66 46.94 50.79 46.55 57.04 C 46.40 62.72 46.85 68.45 48.42 73.93 L 47.86 75.65 C 45.43 71.76 44.57 67.16 45.05 62.63 C 45.08 61.97 45.14 60.64 45.17 59.98 C 45.08 59.25 44.90 57.80 44.80 57.07 C 44.71 51.87 45.82 46.76 46.66 41.65 C 45.54 41.16 44.41 40.66 43.29 40.18 Z" />
<path fill="#16213a" opacity="1.00" d=" M 18.69 51.17 C 19.44 48.14 19.88 44.87 21.94 42.40 C 22.64 43.82 23.26 45.33 23.22 46.95 C 23.43 53.07 22.86 59.21 23.65 65.30 L 22.09 65.16 C 21.14 60.40 21.16 55.53 20.69 50.72 C 19.44 56.07 18.70 61.53 18.36 67.01 C 17.99 72.20 19.31 77.27 20.07 82.36 C 18.91 81.11 17.42 79.90 17.30 78.06 C 15.66 69.14 16.54 59.92 18.69 51.17 Z" />
<path fill="#16213a" opacity="1.00" d=" M 13.12 53.17 C 13.54 53.36 14.38 53.74 14.79 53.93 C 14.66 61.32 14.55 68.71 14.65 76.10 C 11.78 72.27 9.25 67.90 8.66 63.07 C 10.37 65.30 11.71 67.79 12.78 70.39 C 12.99 64.65 12.99 58.91 13.12 53.17 Z" />
<path fill="#16213a" opacity="1.00" d=" M 61.86 76.56 C 62.20 76.32 62.88 75.85 63.22 75.62 C 63.68 79.05 62.74 82.24 60.19 84.62 C 56.94 83.49 53.75 82.11 51.14 79.82 L 53.13 80.04 C 55.56 80.94 58.01 81.81 60.48 82.63 C 61.25 80.68 61.58 78.62 61.86 76.56 Z" />
</g>
<g id="#d5dddeff">
<path fill="#d5ddde" opacity="1.00" d=" M 27.07 16.80 C 35.21 11.52 45.87 9.94 55.10 12.91 C 50.07 13.58 45.00 13.32 39.95 13.44 C 41.36 13.73 42.77 14.00 44.18 14.25 C 38.86 14.86 33.64 16.31 28.83 18.68 C 28.39 18.21 27.51 17.27 27.07 16.80 Z" />
</g>
<g id="#08122cff">
<path fill="#08122c" opacity="1.00" d=" M 74.32 23.31 C 73.19 25.11 69.89 22.36 72.20 21.53 C 72.97 22.05 73.67 22.64 74.32 23.31 Z" />
</g>
<g id="#e4eef2ff">
<path fill="#e4eef2" opacity="1.00" d=" M 20.79 24.11 C 21.07 24.22 21.61 24.44 21.89 24.56 C 22.71 25.82 23.58 27.06 24.32 28.38 C 23.04 31.67 21.47 34.93 21.56 38.56 C 23.99 39.41 27.17 40.11 27.86 43.02 C 28.52 46.07 27.88 49.21 27.41 52.23 C 27.07 53.41 26.76 54.60 26.48 55.80 C 25.52 58.95 25.89 62.67 23.65 65.30 C 22.86 59.21 23.43 53.07 23.22 46.95 C 23.26 45.33 22.64 43.82 21.94 42.40 C 19.88 44.87 19.44 48.14 18.69 51.17 C 16.54 59.92 15.66 69.14 17.30 78.06 C 17.42 79.90 18.91 81.11 20.07 82.36 C 25.53 87.52 32.50 90.99 39.90 92.31 C 50.02 94.44 60.63 91.95 69.47 86.80 C 69.58 88.28 69.70 89.76 69.84 91.23 C 68.56 91.97 67.28 92.73 65.97 93.44 L 65.99 90.74 C 59.87 92.97 53.57 95.12 46.97 95.10 C 42.14 95.29 37.52 93.72 32.94 92.43 C 32.39 92.70 31.30 93.24 30.76 93.51 C 26.67 91.37 22.71 88.91 19.28 85.80 C 15.12 82.19 12.43 77.27 9.83 72.50 C 6.99 66.11 5.56 59.20 4.98 52.26 C 5.03 51.42 5.09 50.58 5.15 49.74 C 5.45 43.44 7.49 37.39 10.75 32.02 C 11.01 31.56 11.54 30.65 11.80 30.19 C 12.01 31.49 12.20 32.80 12.38 34.10 C 12.54 35.76 12.70 37.41 12.87 39.07 C 14.35 38.64 15.79 38.10 17.24 37.59 C 18.15 34.54 18.75 31.41 19.61 28.35 C 19.99 26.93 20.41 25.52 20.79 24.11 M 12.14 44.31 C 10.83 50.53 8.80 56.67 8.66 63.07 C 9.25 67.90 11.78 72.27 14.65 76.10 C 14.55 68.71 14.66 61.32 14.79 53.93 C 15.36 50.32 15.70 46.67 16.06 43.04 C 14.75 43.45 13.45 43.88 12.14 44.31 Z" />
<path fill="#e4eef2" opacity="1.00" d=" M 35.67 28.73 C 36.98 30.40 38.29 32.08 39.62 33.74 C 39.37 35.11 39.13 36.47 38.89 37.84 C 41.17 36.75 43.43 35.59 45.76 34.58 C 46.02 34.56 46.53 34.52 46.79 34.50 C 49.22 36.36 54.07 36.98 53.40 41.00 C 52.97 49.24 50.11 57.30 50.83 65.61 C 50.88 71.08 54.19 75.71 58.57 78.69 C 59.67 77.97 60.77 77.27 61.86 76.56 C 61.58 78.62 61.25 80.68 60.48 82.63 C 58.01 81.81 55.56 80.94 53.13 80.04 C 51.37 78.15 49.76 76.13 48.42 73.93 C 46.85 68.45 46.40 62.72 46.55 57.04 C 46.94 50.79 48.51 44.66 48.36 38.37 C 46.66 38.95 44.95 39.50 43.29 40.18 C 41.70 41.76 40.57 43.72 39.55 45.69 C 39.21 46.00 38.51 46.63 38.17 46.94 C 37.79 53.13 36.17 59.17 35.91 65.37 C 35.63 68.65 35.48 71.94 35.46 75.23 C 34.63 74.53 33.89 73.73 33.18 72.92 C 31.98 67.02 31.01 61.04 31.30 55.00 C 31.44 46.05 34.40 37.52 35.67 28.73 Z" />
</g>
<g id="#1b263eff">
<path fill="#1b263e" opacity="1.00" d=" M 9.17 31.05 C 9.57 31.29 10.36 31.78 10.75 32.02 C 7.49 37.39 5.45 43.44 5.15 49.74 C 4.48 48.24 3.37 46.72 3.74 44.97 C 4.34 39.95 7.02 35.53 9.17 31.05 Z" />
</g>
<g id="#162139ff">
<path fill="#162139" opacity="1.00" d=" M 83.63 36.21 L 85.00 37.26 C 87.27 42.16 88.87 47.51 88.59 52.96 C 88.64 57.84 86.59 62.60 87.56 67.49 C 85.39 66.73 84.88 64.27 85.40 62.30 C 86.29 58.27 87.08 54.18 86.77 50.03 C 86.72 45.22 84.15 40.95 83.63 36.21 Z" />
</g>
<g id="#212c44ff">
<path fill="#212c44" opacity="1.00" d=" M 12.14 44.31 C 13.45 43.88 14.75 43.45 16.06 43.04 C 15.70 46.67 15.36 50.32 14.79 53.93 C 14.38 53.74 13.54 53.36 13.12 53.17 C 12.99 58.91 12.99 64.65 12.78 70.39 C 11.71 67.79 10.37 65.30 8.66 63.07 C 8.80 56.67 10.83 50.53 12.14 44.31 Z" />
</g>
<g id="#f9ffffff">
<path fill="#f9ffff" opacity="1.00" d=" M 54.16 56.51 C 56.04 52.63 59.37 48.82 64.01 48.66 C 67.64 48.37 69.96 51.58 71.88 54.16 C 72.81 57.65 73.06 61.32 72.07 64.84 C 70.37 66.84 68.28 68.48 65.81 69.42 C 68.16 66.35 71.36 63.24 70.60 58.97 C 70.97 55.14 68.21 52.26 64.83 51.02 C 65.97 57.67 61.32 63.15 56.84 67.39 C 54.53 64.40 53.49 60.61 54.07 56.86 L 54.16 56.51 M 56.59 55.53 C 54.79 58.07 55.89 61.18 56.85 63.80 C 60.56 60.66 62.16 55.90 63.32 51.34 C 60.68 51.94 57.94 52.99 56.59 55.53 Z" />
</g>
<g id="#202c44ff">
<path fill="#202c44" opacity="1.00" d=" M 56.59 55.53 C 57.94 52.99 60.68 51.94 63.32 51.34 C 62.16 55.90 60.56 60.66 56.85 63.80 C 55.89 61.18 54.79 58.07 56.59 55.53 Z" />
</g>
<g id="#111c35ff">
<path fill="#111c35" opacity="1.00" d=" M 8.23 72.35 C 5.37 66.23 2.52 58.97 4.98 52.26 C 5.56 59.20 6.99 66.11 9.83 72.50 C 9.43 72.46 8.63 72.38 8.23 72.35 Z" />
</g>
<g id="#131e37ff">
<path fill="#131e37" opacity="1.00" d=" M 71.67 52.11 C 75.56 56.03 76.26 63.13 71.70 66.84 L 72.07 64.84 C 73.06 61.32 72.81 57.65 71.88 54.16 L 71.67 52.11 Z" />
</g>
<g id="#900b0bff">
<path fill="#900b0b" opacity="1.00" d=" M 37.56 54.38 C 40.21 54.53 42.78 55.30 44.80 57.07 C 44.90 57.80 45.08 59.25 45.17 59.98 C 45.14 60.64 45.08 61.97 45.05 62.63 C 41.86 60.59 39.28 57.75 37.56 54.38 Z" />
</g>
<g id="#0d1831ff">
<path fill="#0d1831" opacity="1.00" d=" M 35.91 65.37 C 36.79 68.80 37.21 72.32 36.99 75.86 L 35.46 75.23 C 35.48 71.94 35.63 68.65 35.91 65.37 Z" />
</g>
<g id="#ffffffff">
<path fill="#ffffff" opacity="1.00" d=" M 71.21 70.90 C 71.93 71.72 72.64 72.55 73.34 73.40 C 73.90 73.45 75.03 73.57 75.59 73.63 C 74.82 75.58 74.85 77.67 74.87 79.73 C 73.81 79.52 71.69 79.10 70.63 78.89 L 70.48 79.89 C 72.08 79.93 73.68 79.98 75.29 80.02 C 74.88 81.57 74.48 83.11 74.06 84.65 C 72.73 84.62 71.39 84.62 70.06 84.63 C 69.75 83.05 69.45 81.47 69.16 79.89 C 68.82 79.55 68.13 78.87 67.79 78.53 C 68.50 78.24 69.90 77.65 70.60 77.35 C 69.94 76.33 69.29 75.30 68.65 74.27 C 69.35 74.20 70.75 74.07 71.45 74.00 C 71.39 73.22 71.27 71.67 71.21 70.90 M 72.08 77.29 C 73.59 76.49 73.57 75.71 72.03 74.94 C 70.55 75.68 70.57 76.46 72.08 77.29 M 71.33 81.17 C 70.78 82.78 71.32 83.34 72.95 82.84 C 73.52 81.23 72.98 80.67 71.33 81.17 Z" />
<path fill="#ffffff" opacity="1.00" d=" M 86.82 72.92 C 89.55 72.63 92.29 72.44 95.04 72.32 C 95.54 73.55 95.16 74.93 95.32 76.22 C 93.10 76.27 90.88 76.24 88.67 76.49 C 90.98 76.74 93.30 76.76 95.60 77.04 C 94.07 77.97 92.46 78.68 90.72 79.16 C 91.42 79.90 92.10 80.66 92.76 81.44 C 93.47 81.53 94.90 81.72 95.61 81.82 C 94.43 82.71 93.07 83.28 91.74 83.87 C 93.48 83.89 95.21 83.94 96.95 84.04 C 94.22 86.62 89.96 85.28 86.56 85.73 C 87.37 83.64 89.44 83.61 91.34 83.51 C 89.66 83.60 88.39 82.99 87.53 81.69 C 88.47 81.72 90.36 81.78 91.31 81.81 C 90.19 81.43 89.07 81.04 87.96 80.64 C 88.61 79.79 89.23 78.92 89.83 78.04 C 89.39 78.23 88.51 78.61 88.07 78.80 C 87.39 81.34 86.43 83.89 84.22 85.49 C 85.82 81.47 86.64 77.24 86.82 72.92 M 89.30 74.41 C 89.47 75.90 93.22 75.60 93.50 74.23 C 92.29 73.48 90.47 73.64 89.30 74.41 Z" />
<path fill="#ffffff" opacity="1.00" d=" M 76.12 73.27 C 77.88 73.68 80.44 72.43 81.63 74.11 C 81.18 75.25 80.57 76.31 80.07 77.42 C 81.61 79.03 82.36 81.62 80.16 83.06 C 79.54 82.80 78.30 82.28 77.69 82.02 C 77.53 83.82 78.01 85.97 76.45 87.30 C 75.63 82.64 76.72 77.94 76.12 73.27 M 78.09 75.27 C 76.45 78.27 81.40 75.52 78.09 75.27 M 78.15 78.07 C 77.24 78.99 78.00 81.80 79.53 80.79 C 80.43 79.91 79.55 77.14 78.15 78.07 Z" />
<path fill="#ffffff" opacity="1.00" d=" M 92.89 79.15 C 93.79 77.72 96.39 79.24 95.65 80.73 C 94.59 81.90 93.08 80.22 92.89 79.15 Z" />
</g>
<g id="#b7bfc2ff">
<path fill="#b7bfc2" opacity="1.00" d=" M 46.97 95.10 C 53.57 95.12 59.87 92.97 65.99 90.74 L 65.97 93.44 C 63.21 95.28 59.84 95.11 56.69 95.43 C 56.73 95.59 56.83 95.89 56.87 96.05 C 56.63 96.20 56.15 96.50 55.91 96.65 C 50.42 98.00 44.75 97.36 39.23 96.67 C 36.34 95.81 33.49 94.80 30.76 93.51 C 31.30 93.24 32.39 92.70 32.94 92.43 C 37.52 93.72 42.14 95.29 46.97 95.10 Z" />
</g>
<g id="#222d45ff">
<path fill="#222d45" opacity="1.00" d=" M 56.87 96.05 C 58.72 96.07 60.56 96.15 62.41 96.26 C 59.89 97.23 57.34 98.17 54.73 98.86 C 50.57 98.93 46.40 98.89 42.24 98.80 C 40.34 98.34 38.47 97.78 36.60 97.21 C 37.26 97.07 38.57 96.80 39.23 96.67 C 44.75 97.36 50.42 98.00 55.91 96.65 C 56.15 96.50 56.63 96.20 56.87 96.05 Z" />
</g>
</svg>
