<?xml version="1.0" encoding="UTF-8" ?>
<!DOCTYPE svg PUBLIC "-//W3C//DTD SVG 1.1//EN" "http://www.w3.org/Graphics/SVG/1.1/DTD/svg11.dtd">
<svg width="48pt" height="48pt" viewBox="0 0 48 48" version="1.1" xmlns="http://www.w3.org/2000/svg">
<g id="#ffffffff">
<path fill="#ffffff" opacity="1.00" d=" M 0.00 0.00 L 48.00 0.00 L 48.00 48.00 L 0.00 48.00 L 0.00 0.00 M 1.04 1.02 C 0.91 16.34 0.90 31.67 1.03 46.99 C 16.34 47.21 31.65 46.96 46.95 46.98 C 47.12 31.63 47.12 16.28 47.01 0.93 C 31.69 0.99 16.36 0.85 1.04 1.02 Z" />
<path fill="#ffffff" opacity="1.00" d=" M 2.04 2.04 C 6.69 1.97 11.35 1.96 16.00 2.02 C 16.01 6.68 16.00 11.34 15.95 16.01 C 11.30 16.00 6.65 15.99 1.99 15.97 C 1.97 11.33 1.98 6.69 2.04 2.04 Z" />
<path fill="#ffffff" opacity="1.00" d=" M 17.01 1.97 C 21.66 1.99 26.32 2.01 30.97 2.00 C 31.01 6.67 31.01 11.34 30.97 16.01 C 26.31 16.00 21.66 16.00 17.00 15.99 C 16.98 11.32 16.98 6.65 17.01 1.97 M 21.44 3.52 C 17.44 5.22 16.75 11.29 20.33 13.78 C 23.61 16.59 29.31 14.40 29.91 10.15 C 31.07 5.54 25.65 1.31 21.44 3.52 Z" />
<path fill="#ffffff" opacity="1.00" d=" M 32.00 2.02 C 36.67 1.99 41.35 1.99 46.02 2.03 C 46.04 6.67 46.02 11.32 45.97 15.96 C 41.30 16.04 36.63 16.04 31.96 15.96 C 32.01 11.31 32.02 6.67 32.00 2.02 Z" />
<path fill="#ffffff" opacity="1.00" d=" M 2.02 16.99 C 6.69 17.02 11.36 17.02 16.03 16.99 C 16.00 21.66 15.97 26.32 15.93 30.99 C 11.30 31.01 6.66 31.02 2.02 31.02 C 1.95 26.34 1.95 21.66 2.02 16.99 Z" />
<path fill="#ffffff" opacity="1.00" d=" M 17.00 16.97 C 21.66 16.99 26.33 17.00 30.99 17.00 C 31.05 21.66 31.04 26.31 30.94 30.97 C 26.29 31.02 21.63 31.04 16.97 31.01 C 16.99 26.33 17.00 21.65 17.00 16.97 Z" />
<path fill="#ffffff" opacity="1.00" d=" M 32.00 17.01 C 36.67 17.01 41.35 17.01 46.02 17.00 C 46.00 21.65 45.99 26.29 46.01 30.94 C 41.34 31.02 36.67 31.03 32.00 31.00 C 32.01 26.34 32.00 21.67 32.00 17.01 M 36.42 18.53 C 32.48 20.22 31.76 26.18 35.24 28.70 C 38.45 31.57 44.20 29.51 44.89 25.27 C 46.16 20.62 40.67 16.27 36.42 18.53 Z" />
<path fill="#ffffff" opacity="1.00" d=" M 2.03 32.02 C 6.67 32.00 11.31 31.99 15.94 32.03 C 16.02 36.68 16.04 41.33 15.99 45.98 C 11.33 46.02 6.67 46.02 2.01 46.00 C 1.98 41.34 1.99 36.68 2.03 32.02 M 6.44 33.52 C 2.46 35.21 1.75 41.25 5.30 43.75 C 8.56 46.58 14.28 44.44 14.91 40.17 C 16.09 35.56 10.65 31.30 6.44 33.52 Z" />
<path fill="#ffffff" opacity="1.00" d=" M 17.00 32.00 C 21.66 32.00 26.32 32.01 30.98 32.02 C 31.00 36.68 30.99 41.33 30.96 45.99 C 26.30 46.01 21.65 46.02 17.00 46.01 C 17.00 41.34 17.00 36.67 17.00 32.00 M 21.46 33.51 C 17.45 35.19 16.75 41.26 20.31 43.76 C 23.56 46.57 29.26 44.44 29.90 40.20 C 31.11 35.59 25.69 31.30 21.46 33.51 Z" />
<path fill="#ffffff" opacity="1.00" d=" M 31.97 32.01 C 36.64 31.99 41.32 31.98 45.99 32.00 C 46.02 36.66 46.00 41.31 45.96 45.97 C 41.33 46.02 36.69 46.03 32.05 45.99 C 31.99 41.33 31.96 36.67 31.97 32.01 M 36.40 33.54 C 32.44 35.25 31.76 41.29 35.33 43.77 C 38.60 46.59 44.31 44.40 44.92 40.15 C 46.07 35.52 40.61 31.29 36.40 33.54 Z" />
</g>
<g id="#c0c0c0ff">
<path fill="#c0c0c0" opacity="1.00" d=" M 1.04 1.02 C 16.36 0.85 31.69 0.99 47.01 0.93 C 47.12 16.28 47.12 31.63 46.95 46.98 C 31.65 46.96 16.34 47.21 1.03 46.99 C 0.90 31.67 0.91 16.34 1.04 1.02 M 2.04 2.04 C 1.98 6.69 1.97 11.33 1.99 15.97 C 6.65 15.99 11.30 16.00 15.95 16.01 C 16.00 11.34 16.01 6.68 16.00 2.02 C 11.35 1.96 6.69 1.97 2.04 2.04 M 17.01 1.97 C 16.98 6.65 16.98 11.32 17.00 15.99 C 21.66 16.00 26.31 16.00 30.97 16.01 C 31.01 11.34 31.01 6.67 30.97 2.00 C 26.32 2.01 21.66 1.99 17.01 1.97 M 32.00 2.02 C 32.02 6.67 32.01 11.31 31.96 15.96 C 36.63 16.04 41.30 16.04 45.97 15.96 C 46.02 11.32 46.04 6.67 46.02 2.03 C 41.35 1.99 36.67 1.99 32.00 2.02 M 2.02 16.99 C 1.95 21.66 1.95 26.34 2.02 31.02 C 6.66 31.02 11.30 31.01 15.93 30.99 C 15.97 26.32 16.00 21.66 16.03 16.99 C 11.36 17.02 6.69 17.02 2.02 16.99 M 17.00 16.97 C 17.00 21.65 16.99 26.33 16.97 31.01 C 21.63 31.04 26.29 31.02 30.94 30.97 C 31.04 26.31 31.05 21.66 30.99 17.00 C 26.33 17.00 21.66 16.99 17.00 16.97 M 32.00 17.01 C 32.00 21.67 32.01 26.34 32.00 31.00 C 36.67 31.03 41.34 31.02 46.01 30.94 C 45.99 26.29 46.00 21.65 46.02 17.00 C 41.35 17.01 36.67 17.01 32.00 17.01 M 2.03 32.02 C 1.99 36.68 1.98 41.34 2.01 46.00 C 6.67 46.02 11.33 46.02 15.99 45.98 C 16.04 41.33 16.02 36.68 15.94 32.03 C 11.31 31.99 6.67 32.00 2.03 32.02 M 17.00 32.00 C 17.00 36.67 17.00 41.34 17.00 46.01 C 21.65 46.02 26.30 46.01 30.96 45.99 C 30.99 41.33 31.00 36.68 30.98 32.02 C 26.32 32.01 21.66 32.00 17.00 32.00 M 31.97 32.01 C 31.96 36.67 31.99 41.33 32.05 45.99 C 36.69 46.03 41.33 46.02 45.96 45.97 C 46.00 41.31 46.02 36.66 45.99 32.00 C 41.32 31.98 36.64 31.99 31.97 32.01 Z" />
</g>
<g id="#040404ff">
<path fill="#040404" opacity="1.00" d=" M 21.44 3.52 C 25.65 1.31 31.07 5.54 29.91 10.15 C 29.31 14.40 23.61 16.59 20.33 13.78 C 16.75 11.29 17.44 5.22 21.44 3.52 Z" />
<path fill="#040404" opacity="1.00" d=" M 36.42 18.53 C 40.67 16.27 46.16 20.62 44.89 25.27 C 44.20 29.51 38.45 31.57 35.24 28.70 C 31.76 26.18 32.48 20.22 36.42 18.53 Z" />
<path fill="#040404" opacity="1.00" d=" M 6.44 33.52 C 10.65 31.30 16.09 35.56 14.91 40.17 C 14.28 44.44 8.56 46.58 5.30 43.75 C 1.75 41.25 2.46 35.21 6.44 33.52 Z" />
<path fill="#040404" opacity="1.00" d=" M 21.46 33.51 C 25.69 31.30 31.11 35.59 29.90 40.20 C 29.26 44.44 23.56 46.57 20.31 43.76 C 16.75 41.26 17.45 35.19 21.46 33.51 Z" />
<path fill="#040404" opacity="1.00" d=" M 36.40 33.54 C 40.61 31.29 46.07 35.52 44.92 40.15 C 44.31 44.40 38.60 46.59 35.33 43.77 C 31.76 41.29 32.44 35.25 36.40 33.54 Z" />
</g>
</svg>
