<?xml version="1.0" encoding="UTF-8" ?>
<!DOCTYPE svg PUBLIC "-//W3C//DTD SVG 1.1//EN" "http://www.w3.org/Graphics/SVG/1.1/DTD/svg11.dtd">
<svg width="300pt" height="300pt" viewBox="0 0 300 300" version="1.1" xmlns="http://www.w3.org/2000/svg">
<g id="#23a8e0ff">
<path fill="#23a8e0" opacity="1.00" d=" M 0.00 0.00 L 300.00 0.00 L 300.00 300.00 L 0.00 300.00 L 0.00 0.00 M 177.55 68.39 C 167.50 71.25 158.73 77.49 151.58 84.98 C 154.52 92.97 154.66 101.62 154.01 110.02 C 152.59 125.11 150.61 140.14 148.46 155.14 C 147.80 159.50 145.14 163.13 142.74 166.70 C 133.06 180.79 120.78 193.37 105.85 201.90 C 98.63 206.12 90.44 209.51 81.91 208.95 C 72.84 208.18 64.77 201.42 62.27 192.69 C 59.34 182.32 60.79 171.18 64.24 161.12 C 67.10 152.76 70.74 144.36 77.04 137.99 C 80.17 134.63 84.25 131.88 88.89 131.28 C 92.00 130.80 95.50 132.18 97.02 135.03 C 98.48 137.58 98.12 140.66 97.56 143.42 C 95.82 150.61 93.36 157.72 89.25 163.93 C 91.34 166.59 94.40 168.53 97.83 168.74 C 108.43 169.32 118.88 161.95 121.74 151.70 C 125.79 137.71 118.17 121.00 104.40 115.69 C 92.42 111.10 78.69 112.77 67.28 118.21 C 54.05 124.75 44.43 136.73 37.32 149.35 C 28.94 164.34 25.91 182.06 28.08 199.04 C 29.27 207.51 32.79 215.91 39.17 221.79 C 46.38 228.42 56.22 231.96 65.98 232.03 C 84.04 232.55 101.66 225.53 116.00 214.86 C 124.60 208.59 131.94 200.84 140.00 193.93 C 140.08 202.80 137.90 211.89 140.63 220.59 C 141.73 225.10 145.24 228.98 149.79 230.14 C 156.17 231.80 163.42 230.73 168.77 226.78 C 169.94 226.13 170.23 224.84 170.44 223.64 C 174.16 202.92 177.28 182.06 182.62 161.68 C 183.61 158.51 183.49 154.47 186.41 152.34 C 191.27 148.72 197.01 146.12 203.09 145.59 C 206.49 145.22 210.18 145.95 212.82 148.23 C 215.50 150.70 216.33 154.55 215.96 158.06 C 215.03 173.74 209.10 188.52 206.31 203.87 C 205.37 210.07 205.93 216.67 208.75 222.34 C 210.80 226.50 214.87 229.55 219.42 230.40 C 226.66 231.88 234.23 230.12 240.71 226.79 C 251.50 221.11 260.42 212.48 268.01 203.05 C 269.87 200.60 272.64 198.35 272.38 194.95 C 272.36 189.49 273.34 183.74 271.22 178.54 C 266.79 182.30 263.34 187.07 258.85 190.78 C 255.35 194.59 250.47 197.78 245.07 196.90 C 241.98 196.33 241.07 192.66 241.80 190.00 C 244.23 174.01 252.89 159.80 256.25 144.05 C 258.21 134.37 254.79 123.23 246.40 117.59 C 238.58 112.79 228.93 113.81 220.22 114.65 C 208.26 116.13 195.67 121.33 189.00 131.86 C 192.41 119.68 195.79 107.48 198.51 95.12 C 199.77 88.72 201.21 81.44 197.44 75.58 C 193.41 68.98 184.74 66.88 177.55 68.39 Z" />
</g>
<g id="#ffffffff">
<path fill="#ffffff" opacity="1.00" d=" M 177.55 68.39 C 184.74 66.88 193.41 68.98 197.44 75.58 C 201.21 81.44 199.77 88.72 198.51 95.12 C 195.79 107.48 192.41 119.68 189.00 131.86 C 195.67 121.33 208.26 116.13 220.22 114.65 C 228.93 113.81 238.58 112.79 246.40 117.59 C 254.79 123.23 258.21 134.37 256.25 144.05 C 252.89 159.80 244.23 174.01 241.80 190.00 C 241.07 192.66 241.98 196.33 245.07 196.90 C 250.47 197.78 255.35 194.59 258.85 190.78 C 263.34 187.07 266.79 182.30 271.22 178.54 C 273.34 183.74 272.36 189.49 272.38 194.95 C 272.64 198.35 269.87 200.60 268.01 203.05 C 260.42 212.48 251.50 221.11 240.71 226.79 C 234.23 230.12 226.66 231.88 219.42 230.40 C 214.87 229.55 210.80 226.50 208.75 222.34 C 205.93 216.67 205.37 210.07 206.31 203.87 C 209.10 188.52 215.03 173.74 215.96 158.06 C 216.33 154.55 215.50 150.70 212.82 148.23 C 210.18 145.95 206.49 145.22 203.09 145.59 C 197.01 146.12 191.27 148.72 186.41 152.34 C 183.49 154.47 183.61 158.51 182.62 161.68 C 177.28 182.06 174.16 202.92 170.44 223.64 C 170.23 224.84 169.94 226.13 168.77 226.78 C 163.42 230.73 156.17 231.80 149.79 230.14 C 145.24 228.98 141.73 225.10 140.63 220.59 C 137.90 211.89 140.08 202.80 140.00 193.93 C 131.94 200.84 124.60 208.59 116.00 214.86 C 101.66 225.53 84.04 232.55 65.98 232.03 C 56.22 231.96 46.38 228.42 39.17 221.79 C 32.79 215.91 29.27 207.51 28.08 199.04 C 25.91 182.06 28.94 164.34 37.32 149.35 C 44.43 136.73 54.05 124.75 67.28 118.21 C 78.69 112.77 92.42 111.10 104.40 115.69 C 118.17 121.00 125.79 137.71 121.74 151.70 C 118.88 161.95 108.43 169.32 97.83 168.74 C 94.40 168.53 91.34 166.59 89.25 163.93 C 93.36 157.72 95.82 150.61 97.56 143.42 C 98.12 140.66 98.48 137.58 97.02 135.03 C 95.50 132.18 92.00 130.80 88.89 131.28 C 84.25 131.88 80.17 134.63 77.04 137.99 C 70.74 144.36 67.10 152.76 64.24 161.12 C 60.79 171.18 59.34 182.32 62.27 192.69 C 64.77 201.42 72.84 208.18 81.91 208.95 C 90.44 209.51 98.63 206.12 105.85 201.90 C 120.78 193.37 133.06 180.79 142.74 166.70 C 145.14 163.13 147.80 159.50 148.46 155.14 C 150.61 140.14 152.59 125.11 154.01 110.02 C 154.66 101.62 154.52 92.97 151.58 84.98 C 158.73 77.49 167.50 71.25 177.55 68.39 Z" />
</g>
</svg>
