<?xml version="1.0" encoding="UTF-8" ?>
<!DOCTYPE svg PUBLIC "-//W3C//DTD SVG 1.1//EN" "http://www.w3.org/Graphics/SVG/1.1/DTD/svg11.dtd">
<svg width="16pt" height="16pt" viewBox="0 0 16 16" version="1.1" xmlns="http://www.w3.org/2000/svg">
<g id="#49c5ceff">
<path fill="#49c5ce" opacity="1.00" d=" M 0.00 0.00 L 16.00 0.00 L 16.00 16.00 L 0.00 16.00 L 0.00 0.00 M 6.21 0.86 C 6.08 1.63 5.84 3.19 5.72 3.97 C 7.46 4.01 9.21 4.05 10.96 4.09 C 8.19 5.98 5.37 7.79 2.49 9.52 C 3.82 10.16 5.15 10.82 6.46 11.51 C 7.43 12.80 7.96 15.30 10.01 15.06 C 13.54 15.63 14.27 9.69 10.94 9.05 C 8.82 9.17 6.77 9.79 4.67 10.06 C 7.31 7.93 10.19 6.12 13.10 4.39 C 10.89 3.07 8.76 1.46 6.21 0.86 Z" />
</g>
<g id="#ceeff2ff">
<path fill="#ceeff2" opacity="1.00" d=" M 6.21 0.86 C 8.76 1.46 10.89 3.07 13.10 4.39 C 10.19 6.12 7.31 7.93 4.67 10.06 C 6.77 9.79 8.82 9.17 10.94 9.05 C 14.27 9.69 13.54 15.63 10.01 15.06 C 7.96 15.30 7.43 12.80 6.46 11.51 C 5.15 10.82 3.82 10.16 2.49 9.52 C 5.37 7.79 8.19 5.98 10.96 4.09 C 9.21 4.05 7.46 4.01 5.72 3.97 C 5.84 3.19 6.08 1.63 6.21 0.86 M 7.74 12.15 C 8.80 12.86 10.04 15.01 11.32 13.34 C 13.12 12.23 10.92 10.51 10.10 9.57 C 9.29 10.42 8.51 11.28 7.74 12.15 Z" />
</g>
<g id="#61cdd5ff">
<path fill="#61cdd5" opacity="1.00" d=" M 7.74 12.15 C 8.51 11.28 9.29 10.42 10.10 9.57 C 10.92 10.51 13.12 12.23 11.32 13.34 C 10.04 15.01 8.80 12.86 7.74 12.15 Z" />
</g>
</svg>
