<?xml version="1.0" encoding="UTF-8" ?>
<!DOCTYPE svg PUBLIC "-//W3C//DTD SVG 1.1//EN" "http://www.w3.org/Graphics/SVG/1.1/DTD/svg11.dtd">
<svg width="32pt" height="32pt" viewBox="0 0 32 32" version="1.1" xmlns="http://www.w3.org/2000/svg">
<g id="#263567ff">
<path fill="#263567" opacity="1.00" d=" M 2.32 2.72 C 4.90 4.23 7.25 6.22 10.19 7.03 C 12.39 7.64 14.35 8.79 16.03 10.32 C 16.00 13.20 15.98 16.08 16.02 18.97 C 12.25 14.83 5.53 17.27 2.15 12.65 C 2.28 9.34 2.25 6.03 2.32 2.72 Z" />
<path fill="#263567" opacity="1.00" d=" M 25.58 14.84 C 27.12 13.63 28.71 12.38 30.64 11.88 C 30.48 15.13 30.71 18.38 30.45 21.62 C 26.93 25.72 20.63 24.27 16.32 27.18 C 16.33 24.53 16.30 21.89 16.27 19.24 C 18.78 16.71 22.25 15.77 25.58 14.84 Z" />
</g>
</svg>
