<?xml version="1.0" encoding="UTF-8" ?>
<!DOCTYPE svg PUBLIC "-//W3C//DTD SVG 1.1//EN" "http://www.w3.org/Graphics/SVG/1.1/DTD/svg11.dtd">
<svg width="32pt" height="32pt" viewBox="0 0 32 32" version="1.1" xmlns="http://www.w3.org/2000/svg">
<g id="#2bace0ff">
<path fill="#2bace0" opacity="1.00" d=" M 10.41 3.49 C 18.95 -0.61 30.18 6.48 29.89 15.99 C 30.58 23.67 23.60 30.74 16.00 30.56 C 9.34 30.76 3.16 25.49 2.06 18.97 C 0.75 12.70 4.55 5.94 10.41 3.49 M 6.48 9.55 C 6.62 14.13 6.48 18.73 6.69 23.31 C 9.79 23.13 13.08 22.55 15.94 24.13 C 18.79 22.49 22.10 23.10 25.21 23.31 C 25.02 18.69 25.96 13.83 24.82 9.36 C 21.96 8.20 18.83 8.60 15.89 9.18 C 12.77 8.39 9.52 8.43 6.48 9.55 Z" />
<path fill="#2bace0" opacity="1.00" d=" M 8.37 10.46 C 10.58 10.26 12.83 10.20 15.00 10.78 C 14.93 14.33 14.92 17.88 15.00 21.42 C 12.77 21.34 10.53 21.37 8.30 21.42 C 8.25 17.77 8.26 14.11 8.37 10.46 Z" />
<path fill="#2bace0" opacity="1.00" d=" M 16.82 10.74 C 19.02 10.18 21.28 10.29 23.50 10.60 C 23.54 14.20 23.53 17.79 23.51 21.39 C 21.28 21.34 19.05 21.31 16.82 21.42 C 16.84 17.86 16.84 14.30 16.82 10.74 Z" />
</g>
<g id="#d5eff9ff">
<path fill="#d5eff9" opacity="1.00" d=" M 6.48 9.55 C 9.52 8.43 12.77 8.39 15.89 9.18 C 18.83 8.60 21.96 8.20 24.82 9.36 C 25.96 13.83 25.02 18.69 25.21 23.31 C 22.10 23.10 18.79 22.49 15.94 24.13 C 13.08 22.55 9.79 23.13 6.69 23.31 C 6.48 18.73 6.62 14.13 6.48 9.55 M 8.37 10.46 C 8.26 14.11 8.25 17.77 8.30 21.42 C 10.53 21.37 12.77 21.34 15.00 21.42 C 14.92 17.88 14.93 14.33 15.00 10.78 C 12.83 10.20 10.58 10.26 8.37 10.46 M 16.82 10.74 C 16.84 14.30 16.84 17.86 16.82 21.42 C 19.05 21.31 21.28 21.34 23.51 21.39 C 23.53 17.79 23.54 14.20 23.50 10.60 C 21.28 10.29 19.02 10.18 16.82 10.74 Z" />
</g>
</svg>
