<?xml version="1.0" encoding="UTF-8" ?>
<!DOCTYPE svg PUBLIC "-//W3C//DTD SVG 1.1//EN" "http://www.w3.org/Graphics/SVG/1.1/DTD/svg11.dtd">
<svg width="100pt" height="100pt" viewBox="0 0 100 100" version="1.1" xmlns="http://www.w3.org/2000/svg">
<g id="#000000ff">
<path fill="#000000" opacity="1.00" d=" M 0.00 0.00 L 100.00 0.00 L 100.00 100.00 L 0.00 100.00 L 0.00 0.00 M 37.90 7.20 C 25.95 10.49 15.67 19.14 10.18 30.23 C 5.49 39.67 4.26 50.81 6.96 61.01 C 10.99 77.47 25.42 91.29 42.33 93.57 L 41.92 93.88 C 42.49 93.88 43.64 93.88 44.21 93.88 C 48.03 94.60 51.99 94.62 55.81 93.87 C 56.38 93.87 57.54 93.88 58.11 93.88 L 57.71 93.60 C 77.02 90.94 92.81 73.40 94.25 54.06 C 94.94 47.51 93.87 40.93 91.87 34.69 L 91.61 34.93 C 89.54 27.84 84.85 21.63 79.42 16.68 C 68.40 6.69 52.16 3.09 37.90 7.20 Z" />
</g>
<g id="#bbffffff">
<path fill="#bbffff" opacity="1.00" d=" M 37.90 7.20 C 52.16 3.09 68.40 6.69 79.42 16.68 C 84.85 21.63 89.54 27.84 91.61 34.93 C 91.25 35.25 90.54 35.89 90.18 36.21 C 89.53 34.01 89.01 31.48 87.06 30.01 C 82.33 26.21 76.49 24.16 70.83 22.19 C 67.55 21.31 63.89 19.59 60.63 21.44 C 58.65 19.27 56.56 17.19 54.25 15.38 C 51.75 13.68 48.94 12.50 46.07 11.58 C 43.62 11.22 40.90 10.35 38.57 11.55 C 33.40 14.61 28.53 18.13 23.64 21.61 C 19.82 24.76 15.05 26.88 12.07 30.97 C 7.84 37.37 7.83 45.38 8.04 52.77 C 9.42 52.25 10.79 51.73 12.17 51.22 C 11.53 53.03 11.01 54.89 10.69 56.79 C 10.28 59.34 10.05 61.92 9.88 64.50 C 8.72 61.76 7.89 58.90 7.31 55.99 C 7.19 57.66 7.04 59.33 6.96 61.01 C 4.26 50.81 5.49 39.67 10.18 30.23 C 15.67 19.14 25.95 10.49 37.90 7.20 Z" />
</g>
<g id="#a1fbffff">
<path fill="#a1fbff" opacity="1.00" d=" M 38.57 11.55 C 40.90 10.35 43.62 11.22 46.07 11.58 C 37.10 15.37 29.55 21.91 22.81 28.81 C 20.99 30.50 18.79 31.73 16.99 33.45 C 14.21 36.99 13.57 41.61 13.15 45.95 C 14.37 44.46 15.57 42.94 16.93 41.57 C 17.39 41.60 18.31 41.66 18.76 41.69 C 17.31 43.38 15.94 45.15 14.67 46.99 C 13.76 48.35 12.93 49.76 12.17 51.22 C 10.79 51.73 9.42 52.25 8.04 52.77 C 7.83 45.38 7.84 37.37 12.07 30.97 C 15.05 26.88 19.82 24.76 23.64 21.61 C 28.53 18.13 33.40 14.61 38.57 11.55 Z" />
</g>
<g id="#89e3ffff">
<path fill="#89e3ff" opacity="1.00" d=" M 22.81 28.81 C 29.55 21.91 37.10 15.37 46.07 11.58 C 48.94 12.50 51.75 13.68 54.25 15.38 C 53.59 17.20 52.46 18.81 50.64 19.61 C 44.23 23.02 37.16 25.63 32.17 31.16 C 32.80 31.86 33.42 32.57 34.05 33.28 C 31.31 33.81 28.73 34.92 26.30 36.26 C 24.55 37.20 22.98 38.44 21.41 39.66 C 20.54 40.35 19.64 41.01 18.76 41.69 C 18.31 41.66 17.39 41.60 16.93 41.57 C 15.57 42.94 14.37 44.46 13.15 45.95 C 13.57 41.61 14.21 36.99 16.99 33.45 C 18.79 31.73 20.99 30.50 22.81 28.81 Z" />
</g>
<g id="#65bfffff">
<path fill="#65bfff" opacity="1.00" d=" M 50.64 19.61 C 52.46 18.81 53.59 17.20 54.25 15.38 C 56.56 17.19 58.65 19.27 60.63 21.44 C 60.57 22.79 60.48 24.14 60.41 25.49 C 55.94 29.14 49.73 29.26 45.41 33.10 C 41.63 32.68 37.80 32.62 34.05 33.28 C 33.42 32.57 32.80 31.86 32.17 31.16 C 37.16 25.63 44.23 23.02 50.64 19.61 Z" />
</g>
<g id="#92eeffff">
<path fill="#92eeff" opacity="1.00" d=" M 60.63 21.44 C 63.89 19.59 67.55 21.31 70.83 22.19 C 76.49 24.16 82.33 26.21 87.06 30.01 C 89.01 31.48 89.53 34.01 90.18 36.21 C 90.10 38.94 89.77 41.67 89.06 44.31 C 89.73 39.74 85.57 37.08 82.53 34.60 C 77.07 32.49 72.28 28.84 66.55 27.42 C 66.21 27.82 65.52 28.64 65.18 29.04 C 63.89 26.38 62.22 23.93 60.63 21.44 Z" />
</g>
<g id="#3899ffff">
<path fill="#3899ff" opacity="1.00" d=" M 60.41 25.49 C 60.48 24.14 60.57 22.79 60.63 21.44 C 62.22 23.93 63.89 26.38 65.18 29.04 C 65.45 29.85 65.71 30.66 65.95 31.48 C 65.19 33.18 64.65 35.03 63.55 36.56 C 61.52 38.41 59.05 39.68 56.76 41.18 C 55.15 38.74 52.74 36.99 50.23 35.57 C 48.46 34.75 46.61 34.11 44.74 33.56 L 45.41 33.10 C 49.73 29.26 55.94 29.14 60.41 25.49 Z" />
</g>
<g id="#73cdffff">
<path fill="#73cdff" opacity="1.00" d=" M 66.55 27.42 C 72.28 28.84 77.07 32.49 82.53 34.60 C 85.57 37.08 89.73 39.74 89.06 44.31 C 88.46 46.49 87.67 48.61 86.82 50.70 C 86.44 51.30 86.06 51.88 85.67 52.47 C 84.52 52.78 83.34 53.01 82.17 53.24 C 77.96 48.75 74.09 43.98 70.27 39.16 C 69.59 40.07 68.90 40.97 68.24 41.89 C 67.90 40.22 67.60 38.55 67.25 36.89 C 66.90 35.07 66.43 33.27 65.95 31.48 C 65.71 30.66 65.45 29.85 65.18 29.04 C 65.52 28.64 66.21 27.82 66.55 27.42 Z" />
</g>
<g id="#1f79ffff">
<path fill="#1f79ff" opacity="1.00" d=" M 63.55 36.56 C 64.65 35.03 65.19 33.18 65.95 31.48 C 66.43 33.27 66.90 35.07 67.25 36.89 C 67.28 39.65 67.03 42.42 66.49 45.13 C 66.24 44.65 65.73 43.70 65.48 43.22 C 65.27 43.72 64.86 44.72 64.65 45.22 C 63.03 45.54 61.43 45.97 59.88 46.52 C 58.82 44.75 57.82 42.95 56.76 41.18 C 59.05 39.68 61.52 38.41 63.55 36.56 Z" />
</g>
<g id="#2380ffff">
<path fill="#2380ff" opacity="1.00" d=" M 26.30 36.26 C 28.73 34.92 31.31 33.81 34.05 33.28 C 37.80 32.62 41.63 32.68 45.41 33.10 L 44.74 33.56 C 43.25 33.81 41.76 34.06 40.27 34.29 C 40.22 34.77 40.11 35.73 40.05 36.20 C 43.56 35.62 43.08 39.76 43.50 42.04 C 42.31 42.63 41.14 43.24 40.01 43.94 C 36.48 41.28 34.50 35.38 29.27 36.27 C 28.28 36.26 27.29 36.26 26.30 36.26 Z" />
</g>
<g id="#1371feff">
<path fill="#1371fe" opacity="1.00" d=" M 40.27 34.29 C 41.76 34.06 43.25 33.81 44.74 33.56 C 46.61 34.11 48.46 34.75 50.23 35.57 C 51.05 36.97 51.88 38.37 52.72 39.77 C 49.59 40.24 46.44 40.80 43.50 42.04 C 43.08 39.76 43.56 35.62 40.05 36.20 C 40.11 35.73 40.22 34.77 40.27 34.29 Z" />
</g>
<g id="#abfbfeff">
<path fill="#abfbfe" opacity="1.00" d=" M 91.61 34.93 L 91.87 34.69 C 93.87 40.93 94.94 47.51 94.25 54.06 C 94.25 51.61 93.87 49.18 93.29 46.80 C 92.91 51.76 92.81 56.81 91.07 61.54 C 89.67 59.53 89.13 57.20 89.65 54.80 C 90.34 52.71 88.30 51.59 86.82 50.70 C 87.67 48.61 88.46 46.49 89.06 44.31 C 89.77 41.67 90.10 38.94 90.18 36.21 C 90.54 35.89 91.25 35.25 91.61 34.93 Z" />
</g>
<g id="#368fffff">
<path fill="#368fff" opacity="1.00" d=" M 21.41 39.66 C 22.98 38.44 24.55 37.20 26.30 36.26 C 27.29 36.26 28.28 36.26 29.27 36.27 C 34.50 35.38 36.48 41.28 40.01 43.94 C 38.75 45.23 37.59 46.62 36.45 48.02 C 35.32 47.83 34.19 47.42 33.55 46.41 C 31.48 43.66 29.49 40.82 26.87 38.56 C 25.13 39.24 23.31 39.83 21.41 39.66 Z" />
</g>
<g id="#115dffff">
<path fill="#115dff" opacity="1.00" d=" M 50.23 35.57 C 52.74 36.99 55.15 38.74 56.76 41.18 C 57.82 42.95 58.82 44.75 59.88 46.52 C 61.43 45.97 63.03 45.54 64.65 45.22 C 64.86 44.72 65.27 43.72 65.48 43.22 C 65.73 43.70 66.24 44.65 66.49 45.13 C 65.63 47.82 64.50 50.43 63.06 52.86 C 60.88 55.10 58.54 57.36 55.60 58.55 C 52.73 59.79 49.36 60.17 47.12 62.57 C 45.81 61.42 44.47 60.29 43.30 59.00 C 42.22 57.46 41.44 55.65 39.97 54.43 C 37.65 54.52 35.84 56.07 34.23 57.58 C 34.09 56.31 33.96 55.04 33.85 53.77 C 34.42 51.73 35.40 49.84 36.45 48.02 C 37.59 46.62 38.75 45.23 40.01 43.94 C 41.14 43.24 42.31 42.63 43.50 42.04 C 46.44 40.80 49.59 40.24 52.72 39.77 C 51.88 38.37 51.05 36.97 50.23 35.57 Z" />
</g>
<g id="#58a0ffff">
<path fill="#58a0ff" opacity="1.00" d=" M 67.25 36.89 C 67.60 38.55 67.90 40.22 68.24 41.89 C 68.90 40.97 69.59 40.07 70.27 39.16 C 74.09 43.98 77.96 48.75 82.17 53.24 C 83.34 53.01 84.52 52.78 85.67 52.47 C 83.59 55.47 81.24 58.31 78.58 60.82 C 77.59 61.42 76.59 62.02 75.60 62.62 C 73.93 62.54 72.24 62.57 70.59 62.28 C 66.81 60.39 65.13 56.29 63.06 52.86 C 64.50 50.43 65.63 47.82 66.49 45.13 C 67.03 42.42 67.28 39.65 67.25 36.89 Z" />
</g>
<g id="#59a7ffff">
<path fill="#59a7ff" opacity="1.00" d=" M 21.41 39.66 C 23.31 39.83 25.13 39.24 26.87 38.56 C 29.49 40.82 31.48 43.66 33.55 46.41 C 34.19 47.42 35.32 47.83 36.45 48.02 C 35.40 49.84 34.42 51.73 33.85 53.77 C 32.88 57.13 32.73 60.65 32.89 64.12 C 32.47 62.45 32.05 60.77 31.62 59.10 C 31.23 59.97 30.84 60.85 30.45 61.72 C 24.93 57.07 20.59 51.16 14.67 46.99 C 15.94 45.15 17.31 43.38 18.76 41.69 C 19.64 41.01 20.54 40.35 21.41 39.66 Z" />
</g>
<g id="#85c1ffff">
<path fill="#85c1ff" opacity="1.00" d=" M 12.17 51.22 C 12.93 49.76 13.76 48.35 14.67 46.99 C 20.59 51.16 24.93 57.07 30.45 61.72 C 30.84 60.85 31.23 59.97 31.62 59.10 C 32.05 60.77 32.47 62.45 32.89 64.12 C 33.22 65.56 33.63 66.99 34.02 68.42 L 33.83 68.89 C 33.46 69.91 33.08 70.93 32.70 71.94 C 29.86 70.46 27.25 68.47 24.20 67.42 C 22.74 68.02 21.47 68.98 20.18 69.86 C 17.26 67.22 14.40 64.50 11.56 61.79 C 11.00 60.18 10.86 58.47 10.69 56.79 C 11.01 54.89 11.53 53.03 12.17 51.22 Z" />
</g>
<g id="#d9edf3ff">
<path fill="#d9edf3" opacity="1.00" d=" M 93.29 46.80 C 93.87 49.18 94.25 51.61 94.25 54.06 C 92.81 73.40 77.02 90.94 57.71 93.60 C 57.23 93.26 56.26 92.58 55.77 92.24 C 59.15 91.57 62.57 90.95 65.81 89.73 C 73.51 86.93 79.85 81.23 84.62 74.69 C 87.62 70.78 89.77 66.29 91.07 61.54 C 92.81 56.81 92.91 51.76 93.29 46.80 Z" />
</g>
<g id="#afe9ffff">
<path fill="#afe9ff" opacity="1.00" d=" M 85.67 52.47 C 86.06 51.88 86.44 51.30 86.82 50.70 C 88.30 51.59 90.34 52.71 89.65 54.80 C 89.13 57.20 89.67 59.53 91.07 61.54 C 89.77 66.29 87.62 70.78 84.62 74.69 C 84.30 71.84 84.18 68.94 83.25 66.20 C 82.13 64.16 83.06 62.07 83.54 60.01 C 82.20 58.85 80.10 60.61 78.58 60.82 C 81.24 58.31 83.59 55.47 85.67 52.47 Z" />
</g>
<g id="#356effff">
<path fill="#356eff" opacity="1.00" d=" M 55.60 58.55 C 58.54 57.36 60.88 55.10 63.06 52.86 C 65.13 56.29 66.81 60.39 70.59 62.28 C 72.24 62.57 73.93 62.54 75.60 62.62 C 72.22 64.45 68.73 66.24 64.89 66.85 C 64.47 66.91 63.64 67.05 63.22 67.12 C 59.45 67.26 55.58 67.08 52.02 65.72 C 50.19 64.88 48.41 63.93 46.63 63.01 L 47.12 62.57 C 49.36 60.17 52.73 59.79 55.60 58.55 Z" />
</g>
<g id="#306dffff">
<path fill="#306dff" opacity="1.00" d=" M 32.89 64.12 C 32.73 60.65 32.88 57.13 33.85 53.77 C 33.96 55.04 34.09 56.31 34.23 57.58 C 35.84 56.07 37.65 54.52 39.97 54.43 C 41.44 55.65 42.22 57.46 43.30 59.00 C 40.97 60.46 38.36 61.55 36.35 63.45 C 35.28 64.95 34.72 66.73 34.02 68.42 C 33.63 66.99 33.22 65.56 32.89 64.12 Z" />
</g>
<g id="#e1f2f9ff">
<path fill="#e1f2f9" opacity="1.00" d=" M 7.31 55.99 C 7.89 58.90 8.72 61.76 9.88 64.50 C 12.33 72.61 18.19 79.20 24.73 84.36 C 30.40 88.64 37.12 91.38 44.18 92.21 C 43.72 92.55 42.79 93.23 42.33 93.57 C 25.42 91.29 10.99 77.47 6.96 61.01 C 7.04 59.33 7.19 57.66 7.31 55.99 Z" />
</g>
<g id="#b1d7ffff">
<path fill="#b1d7ff" opacity="1.00" d=" M 9.88 64.50 C 10.05 61.92 10.28 59.34 10.69 56.79 C 10.86 58.47 11.00 60.18 11.56 61.79 C 14.40 64.50 17.26 67.22 20.18 69.86 C 21.55 71.37 21.40 73.46 21.91 75.30 C 23.09 76.89 24.65 78.14 26.08 79.49 C 26.50 80.60 26.90 81.73 27.29 82.85 C 26.44 83.35 25.58 83.85 24.73 84.36 C 18.19 79.20 12.33 72.61 9.88 64.50 Z" />
</g>
<g id="#4678ffff">
<path fill="#4678ff" opacity="1.00" d=" M 36.35 63.45 C 38.36 61.55 40.97 60.46 43.30 59.00 C 44.47 60.29 45.81 61.42 47.12 62.57 L 46.63 63.01 C 43.63 65.62 40.23 67.75 37.56 70.73 C 37.54 72.36 37.46 73.99 37.35 75.62 C 35.97 73.49 34.87 71.20 33.83 68.89 L 34.02 68.42 C 34.72 66.73 35.28 64.95 36.35 63.45 Z" />
</g>
<g id="#a7d7ffff">
<path fill="#a7d7ff" opacity="1.00" d=" M 78.58 60.82 C 80.10 60.61 82.20 58.85 83.54 60.01 C 83.06 62.07 82.13 64.16 83.25 66.20 C 82.01 70.39 78.57 73.44 75.77 76.63 C 75.26 75.17 74.81 73.67 74.86 72.10 C 76.02 69.08 77.14 65.73 75.60 62.62 C 76.59 62.02 77.59 61.42 78.58 60.82 Z" />
</g>
<g id="#5985ffff">
<path fill="#5985ff" opacity="1.00" d=" M 37.56 70.73 C 40.23 67.75 43.63 65.62 46.63 63.01 C 48.41 63.93 50.19 64.88 52.02 65.72 C 51.72 66.83 51.39 67.93 51.08 69.04 C 47.05 71.89 40.66 73.61 40.13 79.37 C 39.15 78.16 38.21 76.92 37.35 75.62 C 37.46 73.99 37.54 72.36 37.56 70.73 Z" />
</g>
<g id="#93befeff">
<path fill="#93befe" opacity="1.00" d=" M 64.89 66.85 C 68.73 66.24 72.22 64.45 75.60 62.62 C 77.14 65.73 76.02 69.08 74.86 72.10 C 72.90 73.49 71.06 75.02 69.22 76.55 C 66.34 76.25 64.16 78.29 61.96 79.81 C 62.34 78.23 62.72 76.64 63.20 75.09 C 64.39 73.07 65.65 71.09 66.83 69.07 C 66.18 68.33 65.54 67.59 64.89 66.85 Z" />
</g>
<g id="#6c90ffff">
<path fill="#6c90ff" opacity="1.00" d=" M 51.08 69.04 C 51.39 67.93 51.72 66.83 52.02 65.72 C 55.58 67.08 59.45 67.26 63.22 67.12 C 61.71 67.48 60.04 67.59 58.72 68.46 C 54.69 74.30 48.20 77.60 42.98 82.23 C 42.01 81.30 41.04 80.36 40.13 79.37 C 40.66 73.61 47.05 71.89 51.08 69.04 Z" />
</g>
<g id="#bdc9ffff">
<path fill="#bdc9ff" opacity="1.00" d=" M 83.25 66.20 C 84.18 68.94 84.30 71.84 84.62 74.69 C 79.85 81.23 73.51 86.93 65.81 89.73 C 62.57 90.95 59.15 91.57 55.77 92.24 C 56.26 92.58 57.23 93.26 57.71 93.60 L 58.11 93.88 C 57.54 93.88 56.38 93.87 55.81 93.87 C 52.15 92.21 47.85 92.20 44.21 93.88 C 43.64 93.88 42.49 93.88 41.92 93.88 L 42.33 93.57 C 42.79 93.23 43.72 92.55 44.18 92.21 C 37.12 91.38 30.40 88.64 24.73 84.36 C 25.58 83.85 26.44 83.35 27.29 82.85 C 26.90 81.73 26.50 80.60 26.08 79.49 C 32.30 82.63 39.06 86.72 46.31 85.08 C 47.95 85.98 49.65 86.79 51.35 87.58 C 55.25 89.28 59.57 89.21 63.74 88.94 C 63.44 88.57 62.86 87.84 62.57 87.48 C 65.38 84.23 67.90 80.68 69.22 76.55 C 71.06 75.02 72.90 73.49 74.86 72.10 C 74.81 73.67 75.26 75.17 75.77 76.63 C 78.57 73.44 82.01 70.39 83.25 66.20 Z" />
</g>
<g id="#a8c5ffff">
<path fill="#a8c5ff" opacity="1.00" d=" M 24.20 67.42 C 27.25 68.47 29.86 70.46 32.70 71.94 C 33.08 70.93 33.46 69.91 33.83 68.89 C 34.87 71.20 35.97 73.49 37.35 75.62 C 38.21 76.92 39.15 78.16 40.13 79.37 C 41.04 80.36 42.01 81.30 42.98 82.23 C 44.05 83.22 45.16 84.17 46.31 85.08 C 39.06 86.72 32.30 82.63 26.08 79.49 C 24.65 78.14 23.09 76.89 21.91 75.30 C 21.40 73.46 21.55 71.37 20.18 69.86 C 21.47 68.98 22.74 68.02 24.20 67.42 Z" />
</g>
<g id="#7f9effff">
<path fill="#7f9eff" opacity="1.00" d=" M 63.22 67.12 C 63.64 67.05 64.47 66.91 64.89 66.85 C 65.54 67.59 66.18 68.33 66.83 69.07 C 65.65 71.09 64.39 73.07 63.20 75.09 C 58.31 76.99 53.86 80.05 50.79 84.36 C 51.00 85.43 51.15 86.51 51.35 87.58 C 49.65 86.79 47.95 85.98 46.31 85.08 C 45.16 84.17 44.05 83.22 42.98 82.23 C 48.20 77.60 54.69 74.30 58.72 68.46 C 60.04 67.59 61.71 67.48 63.22 67.12 Z" />
</g>
<g id="#98a9ffff">
<path fill="#98a9ff" opacity="1.00" d=" M 50.79 84.36 C 53.86 80.05 58.31 76.99 63.20 75.09 C 62.72 76.64 62.34 78.23 61.96 79.81 C 64.16 78.29 66.34 76.25 69.22 76.55 C 67.90 80.68 65.38 84.23 62.57 87.48 C 62.86 87.84 63.44 88.57 63.74 88.94 C 59.57 89.21 55.25 89.28 51.35 87.58 C 51.15 86.51 51.00 85.43 50.79 84.36 Z" />
</g>
<g id="#f8f7fdff">
<path fill="#f8f7fd" opacity="1.00" d=" M 44.21 93.88 C 47.85 92.20 52.15 92.21 55.81 93.87 C 51.99 94.62 48.03 94.60 44.21 93.88 Z" />
</g>
</svg>
