<?xml version="1.0" encoding="UTF-8" ?>
<!DOCTYPE svg PUBLIC "-//W3C//DTD SVG 1.1//EN" "http://www.w3.org/Graphics/SVG/1.1/DTD/svg11.dtd">
<svg width="32pt" height="32pt" viewBox="0 0 32 32" version="1.1" xmlns="http://www.w3.org/2000/svg">
<g id="#16b999ff">
<path fill="#16b999" opacity="1.00" d=" M 14.79 0.00 L 18.24 0.00 C 19.29 0.73 20.03 1.73 20.00 3.08 C 16.16 4.28 11.56 3.41 8.39 6.39 C 2.50 10.76 2.24 20.46 7.89 25.13 C 13.02 29.99 22.18 28.89 26.04 22.97 C 28.67 19.78 27.51 15.37 29.02 11.76 C 30.04 12.22 31.02 12.75 32.00 13.30 L 32.00 16.99 C 31.67 24.78 25.18 31.55 17.36 32.00 L 15.12 32.00 C 7.36 31.49 0.65 25.07 0.00 17.28 L 0.00 14.93 C 0.47 7.16 7.03 0.56 14.79 0.00 Z" />
<path fill="#16b999" opacity="1.00" d=" M 23.35 4.44 C 25.88 1.64 30.30 6.01 27.49 8.54 C 25.00 11.37 20.61 7.00 23.35 4.44 Z" />
</g>
</svg>
