<?xml version="1.0" encoding="UTF-8" ?>
<!DOCTYPE svg PUBLIC "-//W3C//DTD SVG 1.1//EN" "http://www.w3.org/Graphics/SVG/1.1/DTD/svg11.dtd">
<svg width="512pt" height="512pt" viewBox="0 0 512 512" version="1.1" xmlns="http://www.w3.org/2000/svg">
<g id="#c5ebf8ff">
<path fill="#c5ebf8" opacity="1.00" d=" M 0.00 0.00 L 512.00 0.00 L 512.00 284.47 C 505.57 277.09 498.19 270.60 491.44 263.51 C 466.45 238.53 441.46 213.56 416.50 188.56 C 414.38 186.58 412.24 184.63 410.12 182.68 C 409.48 179.84 409.63 176.98 411.52 174.64 C 410.62 173.81 409.72 172.98 408.82 172.15 C 408.04 174.26 407.26 176.36 406.50 178.48 C 404.56 178.25 403.61 176.40 402.59 174.98 C 402.21 174.05 401.84 173.12 401.47 172.18 C 396.54 172.38 391.83 173.82 387.17 175.30 C 375.62 178.46 363.78 174.60 352.08 175.29 C 338.16 176.06 324.67 179.86 311.00 182.32 C 303.00 174.19 295.64 165.37 286.55 158.37 C 282.05 155.11 278.98 150.45 275.74 146.04 C 274.49 145.94 273.24 145.85 272.00 145.75 C 267.25 139.64 262.12 133.74 256.19 128.75 C 248.94 122.31 242.87 114.72 236.45 107.49 C 234.06 104.70 230.07 105.68 226.86 105.64 C 225.37 108.39 224.02 111.21 222.88 114.13 C 222.63 120.04 222.54 126.06 220.87 131.78 C 219.40 136.97 217.61 142.07 216.34 147.31 C 215.21 152.18 213.24 156.92 213.24 162.00 C 212.39 160.47 210.80 160.05 209.23 160.58 L 212.40 161.49 C 209.97 168.29 210.54 175.62 209.66 182.70 C 208.23 190.76 208.02 198.96 207.10 207.07 C 207.06 208.55 205.51 208.85 204.44 209.33 C 198.22 211.68 191.91 213.77 185.53 215.61 C 176.82 218.16 167.99 220.50 159.03 221.94 C 148.32 222.20 139.10 228.39 130.89 234.67 C 125.35 239.14 118.05 240.05 111.71 242.89 C 107.65 245.36 109.74 251.11 112.42 253.91 C 115.40 257.55 120.19 259.37 122.30 263.74 C 128.85 271.14 137.07 276.96 143.34 284.65 C 156.59 298.06 170.03 311.31 183.29 324.72 C 186.49 327.73 189.72 330.75 192.25 334.37 C 192.76 334.10 193.27 333.83 193.79 333.57 C 197.52 340.15 195.49 347.76 196.23 354.86 C 196.71 355.28 197.66 356.14 198.14 356.56 C 200.41 362.24 201.84 368.22 204.11 373.91 C 206.50 379.92 207.15 386.51 206.55 392.93 C 206.21 397.45 204.88 402.10 206.39 406.56 L 206.87 406.98 C 209.29 408.56 211.78 410.08 213.81 412.16 C 242.62 441.04 271.50 469.86 300.33 498.71 C 305.00 503.06 309.04 508.11 314.14 512.00 L 0.00 512.00 L 0.00 0.00 Z" />
</g>
<g id="#9cb73dff">
<path fill="#9cb73d" opacity="1.00" d=" M 226.86 105.64 C 230.07 105.68 234.06 104.70 236.45 107.49 C 242.87 114.72 248.94 122.31 256.19 128.75 C 262.12 133.74 267.25 139.64 272.00 145.75 C 278.87 155.10 284.86 165.04 291.23 174.72 C 293.25 177.99 294.70 181.71 297.44 184.47 C 302.02 185.20 306.50 182.99 311.00 182.32 C 324.67 179.86 338.16 176.06 352.08 175.29 C 363.78 174.60 375.62 178.46 387.17 175.30 C 391.83 173.82 396.54 172.38 401.47 172.18 C 401.84 173.12 402.21 174.05 402.59 174.98 C 402.84 183.11 394.27 187.21 391.39 194.08 C 391.39 195.39 391.46 196.70 391.59 198.01 C 391.42 197.23 391.08 195.68 390.91 194.90 C 387.65 199.36 386.07 204.73 383.83 209.72 C 383.49 209.78 382.80 209.88 382.45 209.94 C 381.82 209.00 381.05 208.22 380.13 207.60 C 383.01 205.14 381.19 200.90 381.73 197.65 C 383.76 193.07 385.81 188.49 387.84 183.92 C 375.58 183.03 363.27 183.73 350.98 183.63 C 342.57 183.94 334.13 184.67 326.02 187.02 C 315.55 188.31 305.39 191.16 295.13 193.49 C 284.85 177.48 275.42 160.61 261.91 147.03 C 255.88 141.74 250.34 135.93 244.09 130.89 C 240.63 128.15 237.60 124.70 233.45 122.96 C 229.69 137.04 224.79 150.79 221.44 164.97 C 217.08 180.72 216.44 197.17 214.27 213.29 C 212.22 215.52 208.94 216.07 206.21 217.13 C 199.08 219.10 192.52 222.66 185.35 224.52 C 174.59 227.89 163.29 229.51 152.93 234.11 C 144.15 238.46 135.83 243.69 128.01 249.61 C 138.90 258.96 150.54 267.40 162.12 275.87 C 170.80 282.23 180.98 286.00 190.86 290.05 C 196.68 292.57 202.84 294.17 208.64 296.75 C 207.30 308.47 205.45 320.20 205.61 332.04 C 205.49 343.92 208.95 355.40 211.16 366.97 C 212.46 374.46 214.83 381.71 216.42 389.15 C 223.13 386.40 228.79 381.68 234.95 377.94 C 242.34 373.49 249.13 368.14 255.99 362.93 C 261.14 359.10 264.83 353.79 268.85 348.87 C 272.46 344.13 276.76 339.95 280.09 335.00 C 281.87 332.37 283.91 329.92 286.06 327.59 C 288.40 328.25 290.76 328.94 292.95 330.02 C 301.30 334.13 310.06 337.32 318.82 340.40 C 323.02 341.98 327.23 343.58 331.67 344.37 C 339.26 346.09 347.09 345.93 354.73 347.35 C 362.28 348.03 369.89 348.93 377.48 348.31 C 374.64 343.05 373.65 337.10 371.51 331.57 C 367.08 318.13 362.80 304.61 357.49 291.48 C 352.43 281.66 346.08 272.53 339.29 263.86 C 339.69 261.70 342.38 260.46 343.68 258.68 C 351.27 249.10 359.90 240.22 365.91 229.48 C 366.28 229.52 367.03 229.60 367.40 229.64 C 368.27 232.18 369.36 234.63 370.69 236.97 C 363.43 246.52 355.39 255.45 347.77 264.71 C 355.63 274.28 362.34 284.77 368.08 295.74 C 371.10 302.10 372.61 309.06 373.77 315.96 C 375.18 328.90 382.45 340.08 388.99 350.98 C 390.99 354.08 390.69 357.87 390.47 361.38 C 385.15 363.74 380.78 359.19 375.97 357.75 C 368.52 354.72 360.35 356.09 352.54 356.14 C 352.25 355.71 351.66 354.86 351.36 354.44 C 346.02 353.98 340.62 354.09 335.28 354.54 C 322.33 351.03 309.98 345.61 297.58 340.54 C 294.10 339.22 290.70 337.08 286.84 337.42 C 280.10 346.13 273.45 354.93 266.16 363.20 C 263.21 366.79 260.84 371.07 256.75 373.53 C 252.13 376.66 246.63 378.07 241.94 381.06 C 239.57 382.57 236.72 382.84 234.01 382.39 C 234.78 382.86 236.31 383.80 237.07 384.26 C 235.46 384.36 233.85 384.41 232.24 384.43 C 232.63 384.66 233.40 385.12 233.78 385.34 C 228.24 389.20 223.40 394.03 219.54 399.57 C 217.74 402.03 215.83 404.60 213.09 406.11 C 210.92 406.75 208.62 406.48 206.39 406.56 C 204.88 402.10 206.21 397.45 206.55 392.93 C 207.15 386.51 206.50 379.92 204.11 373.91 C 201.84 368.22 200.41 362.24 198.14 356.56 C 196.77 344.39 197.26 332.11 198.14 319.92 C 198.47 313.76 200.57 307.84 200.55 301.65 C 189.02 297.75 177.67 293.34 166.41 288.71 C 160.35 286.00 154.40 282.93 149.06 278.96 C 142.03 272.27 135.42 265.02 127.44 259.42 C 123.08 256.13 117.56 255.29 112.42 253.91 C 109.74 251.11 107.65 245.36 111.71 242.89 C 118.05 240.05 125.35 239.14 130.89 234.67 C 139.10 228.39 148.32 222.20 159.03 221.94 C 167.99 220.50 176.82 218.16 185.53 215.61 C 188.33 215.82 191.18 216.55 193.98 215.95 C 196.20 215.14 197.87 213.28 200.07 212.43 C 202.27 212.03 204.53 212.11 206.74 211.70 C 208.07 210.27 209.19 208.66 210.42 207.14 C 210.13 203.91 209.97 200.66 210.17 197.42 C 210.96 196.49 212.40 195.60 211.67 194.17 C 210.69 190.41 209.79 186.60 209.66 182.70 C 210.54 175.62 209.97 168.29 212.40 161.49 L 209.23 160.58 C 210.80 160.05 212.39 160.47 213.24 162.00 C 213.24 156.92 215.21 152.18 216.34 147.31 C 217.61 142.07 219.40 136.97 220.87 131.78 C 222.54 126.06 222.63 120.04 222.88 114.13 C 224.02 111.21 225.37 108.39 226.86 105.64 M 230.02 109.87 C 230.03 110.38 230.04 111.40 230.05 111.91 C 231.41 111.89 232.76 111.87 234.12 111.85 C 234.00 109.62 231.53 110.27 230.02 109.87 M 208.23 400.15 C 207.72 401.78 208.28 402.33 209.90 401.78 C 210.41 400.14 209.85 399.59 208.23 400.15 Z" />
</g>
<g id="#a5ae66ff">
<path fill="#a5ae66" opacity="1.00" d=" M 230.02 109.87 C 231.53 110.27 234.00 109.62 234.12 111.85 C 232.76 111.87 231.41 111.89 230.05 111.91 C 230.04 111.40 230.03 110.38 230.02 109.87 Z" />
</g>
<g id="#c3ce8aff">
<path fill="#c3ce8a" opacity="1.00" d=" M 233.45 122.96 C 237.60 124.70 240.63 128.15 244.09 130.89 C 250.34 135.93 255.88 141.74 261.91 147.03 C 275.42 160.61 284.85 177.48 295.13 193.49 C 305.39 191.16 315.55 188.31 326.02 187.02 C 334.13 184.67 342.57 183.94 350.98 183.63 C 363.27 183.73 375.58 183.03 387.84 183.92 C 385.81 188.49 383.76 193.07 381.73 197.65 C 378.16 204.97 375.45 212.72 371.04 219.61 C 370.49 220.94 370.00 222.30 369.51 223.65 C 368.00 225.39 366.95 227.45 365.91 229.48 C 359.90 240.22 351.27 249.10 343.68 258.68 C 342.38 260.46 339.69 261.70 339.29 263.86 C 346.08 272.53 352.43 281.66 357.49 291.48 C 362.80 304.61 367.08 318.13 371.51 331.57 C 373.65 337.10 374.64 343.05 377.48 348.31 C 369.89 348.93 362.28 348.03 354.73 347.35 C 347.09 345.93 339.26 346.09 331.67 344.37 C 327.23 343.58 323.02 341.98 318.82 340.40 C 310.06 337.32 301.30 334.13 292.95 330.02 C 290.76 328.94 288.40 328.25 286.06 327.59 C 283.91 329.92 281.87 332.37 280.09 335.00 C 276.76 339.95 272.46 344.13 268.85 348.87 C 264.83 353.79 261.14 359.10 255.99 362.93 C 249.13 368.14 242.34 373.49 234.95 377.94 C 228.79 381.68 223.13 386.40 216.42 389.15 C 214.83 381.71 212.46 374.46 211.16 366.97 C 208.95 355.40 205.49 343.92 205.61 332.04 C 205.45 320.20 207.30 308.47 208.64 296.75 C 202.84 294.17 196.68 292.57 190.86 290.05 C 180.98 286.00 170.80 282.23 162.12 275.87 C 150.54 267.40 138.90 258.96 128.01 249.61 C 135.83 243.69 144.15 238.46 152.93 234.11 C 163.29 229.51 174.59 227.89 185.35 224.52 C 192.52 222.66 199.08 219.10 206.21 217.13 C 208.94 216.07 212.22 215.52 214.27 213.29 C 216.44 197.17 217.08 180.72 221.44 164.97 C 224.79 150.79 229.69 137.04 233.45 122.96 M 251.05 183.71 C 251.63 192.82 252.83 201.89 253.66 210.98 C 254.60 221.49 256.83 231.82 258.78 242.17 C 259.84 245.67 261.32 249.02 262.58 252.45 C 256.70 251.95 250.91 250.53 244.99 250.52 C 238.03 250.46 231.08 250.79 224.12 250.64 C 220.42 250.48 216.73 251.62 213.04 250.94 C 210.95 250.60 208.84 250.56 206.75 250.84 C 208.11 252.26 210.12 252.50 211.89 253.11 C 224.55 257.21 237.98 257.53 250.99 259.82 C 254.52 260.49 258.73 260.03 261.51 262.72 C 257.98 271.45 255.85 280.64 253.32 289.69 C 249.38 302.78 247.57 316.36 244.49 329.65 C 243.54 333.83 243.37 338.13 243.20 342.40 C 245.56 338.96 246.47 334.81 247.70 330.88 C 252.36 316.46 255.65 301.63 260.25 287.17 C 262.54 279.99 266.99 273.83 270.11 267.02 C 270.60 265.93 271.58 264.48 273.01 264.94 C 286.20 269.29 298.56 275.97 309.76 284.14 C 314.52 286.62 318.00 290.87 322.90 293.13 C 326.57 296.54 330.57 299.62 334.96 302.07 C 329.71 294.15 322.34 288.00 315.37 281.64 C 306.76 275.26 298.70 268.04 289.30 262.77 C 284.78 260.41 279.52 259.85 275.21 257.05 C 278.28 254.09 281.98 251.85 285.74 249.90 C 293.30 247.05 300.41 243.17 307.51 239.36 C 314.72 234.19 322.17 229.34 329.51 224.36 C 332.07 222.17 335.43 220.51 336.97 217.41 C 332.72 219.85 327.86 220.93 323.62 223.41 C 305.46 231.84 286.98 239.90 270.17 250.88 C 267.60 246.90 265.10 242.74 264.06 238.06 C 261.97 228.69 258.83 219.57 257.19 210.10 C 256.16 204.81 255.36 199.45 253.78 194.28 C 252.72 190.79 252.81 186.97 251.05 183.71 Z" />
</g>
<g id="#b9dbe7ff">
<path fill="#b9dbe7" opacity="1.00" d=" M 272.00 145.75 C 273.24 145.85 274.49 145.94 275.74 146.04 C 278.98 150.45 282.05 155.11 286.55 158.37 C 295.64 165.37 303.00 174.19 311.00 182.32 C 306.50 182.99 302.02 185.20 297.44 184.47 C 294.70 181.71 293.25 177.99 291.23 174.72 C 284.86 165.04 278.87 155.10 272.00 145.75 Z" />
</g>
<g id="#bae7d5ff">
<path fill="#bae7d5" opacity="1.00" d=" M 408.82 172.15 C 409.72 172.98 410.62 173.81 411.52 174.64 C 409.63 176.98 409.48 179.84 410.12 182.68 C 409.61 183.77 409.10 184.87 408.59 185.96 C 406.89 183.82 405.97 181.22 406.50 178.48 C 407.26 176.36 408.04 174.26 408.82 172.15 Z" />
</g>
<g id="#badae9ff">
<path fill="#badae9" opacity="1.00" d=" M 402.59 174.98 C 403.61 176.40 404.56 178.25 406.50 178.48 C 405.97 181.22 406.89 183.82 408.59 185.96 C 409.10 184.87 409.61 183.77 410.12 182.68 C 412.24 184.63 414.38 186.58 416.50 188.56 C 441.46 213.56 466.45 238.53 491.44 263.51 C 498.19 270.60 505.57 277.09 512.00 284.47 L 512.00 512.00 L 314.14 512.00 C 309.04 508.11 305.00 503.06 300.33 498.71 C 271.50 469.86 242.62 441.04 213.81 412.16 C 211.78 410.08 209.29 408.56 206.87 406.98 L 206.39 406.56 C 208.62 406.48 210.92 406.75 213.09 406.11 C 215.83 404.60 217.74 402.03 219.54 399.57 C 223.40 394.03 228.24 389.20 233.78 385.34 C 233.40 385.12 232.63 384.66 232.24 384.43 C 233.85 384.41 235.46 384.36 237.07 384.26 C 236.31 383.80 234.78 382.86 234.01 382.39 C 236.72 382.84 239.57 382.57 241.94 381.06 C 246.63 378.07 252.13 376.66 256.75 373.53 C 260.84 371.07 263.21 366.79 266.16 363.20 C 273.45 354.93 280.10 346.13 286.84 337.42 C 290.70 337.08 294.10 339.22 297.58 340.54 C 309.98 345.61 322.33 351.03 335.28 354.54 C 340.73 356.84 346.77 356.43 352.54 356.14 C 360.35 356.09 368.52 354.72 375.97 357.75 C 380.78 359.19 385.15 363.74 390.47 361.38 C 390.69 357.87 390.99 354.08 388.99 350.98 C 382.45 340.08 375.18 328.90 373.77 315.96 C 372.61 309.06 371.10 302.10 368.08 295.74 C 362.34 284.77 355.63 274.28 347.77 264.71 C 355.39 255.45 363.43 246.52 370.69 236.97 C 377.70 229.35 380.59 219.29 383.83 209.72 C 386.07 204.73 387.65 199.36 390.91 194.90 C 391.08 195.68 391.42 197.23 391.59 198.01 C 391.46 196.70 391.39 195.39 391.39 194.08 C 394.27 187.21 402.84 183.11 402.59 174.98 M 285.88 348.31 C 288.77 348.74 287.83 345.79 288.04 343.98 C 285.39 343.70 286.28 346.66 285.88 348.31 Z" />
<path fill="#badae9" opacity="1.00" d=" M 112.42 253.91 C 117.56 255.29 123.08 256.13 127.44 259.42 C 135.42 265.02 142.03 272.27 149.06 278.96 C 154.40 282.93 160.35 286.00 166.41 288.71 C 177.67 293.34 189.02 297.75 200.55 301.65 C 200.57 307.84 198.47 313.76 198.14 319.92 C 197.26 332.11 196.77 344.39 198.14 356.56 C 197.66 356.14 196.71 355.28 196.23 354.86 C 195.49 347.76 197.52 340.15 193.79 333.57 C 193.27 333.83 192.76 334.10 192.25 334.37 C 189.72 330.75 186.49 327.73 183.29 324.72 C 170.03 311.31 156.59 298.06 143.34 284.65 C 137.07 276.96 128.85 271.14 122.30 263.74 C 120.19 259.37 115.40 257.55 112.42 253.91 Z" />
</g>
<g id="#98b646ff">
<path fill="#98b646" opacity="1.00" d=" M 207.10 207.07 C 208.02 198.96 208.23 190.76 209.66 182.70 C 209.79 186.60 210.69 190.41 211.67 194.17 C 212.40 195.60 210.96 196.49 210.17 197.42 C 209.97 200.66 210.13 203.91 210.42 207.14 C 209.19 208.66 208.07 210.27 206.74 211.70 C 204.53 212.11 202.27 212.03 200.07 212.43 C 197.87 213.28 196.20 215.14 193.98 215.95 C 191.18 216.55 188.33 215.82 185.53 215.61 C 191.91 213.77 198.22 211.68 204.44 209.33 C 205.51 208.85 207.06 208.55 207.10 207.07 Z" />
</g>
<g id="#d8e3b9ff">
<path fill="#d8e3b9" opacity="1.00" d=" M 251.05 183.71 C 252.81 186.97 252.72 190.79 253.78 194.28 C 255.36 199.45 256.16 204.81 257.19 210.10 C 258.83 219.57 261.97 228.69 264.06 238.06 C 265.10 242.74 267.60 246.90 270.17 250.88 C 286.98 239.90 305.46 231.84 323.62 223.41 C 327.86 220.93 332.72 219.85 336.97 217.41 C 335.43 220.51 332.07 222.17 329.51 224.36 C 322.17 229.34 314.72 234.19 307.51 239.36 C 300.41 243.17 293.30 247.05 285.74 249.90 C 281.98 251.85 278.28 254.09 275.21 257.05 C 279.52 259.85 284.78 260.41 289.30 262.77 C 298.70 268.04 306.76 275.26 315.37 281.64 C 322.34 288.00 329.71 294.15 334.96 302.07 C 330.57 299.62 326.57 296.54 322.90 293.13 C 318.00 290.87 314.52 286.62 309.76 284.14 C 298.56 275.97 286.20 269.29 273.01 264.94 C 271.58 264.48 270.60 265.93 270.11 267.02 C 266.99 273.83 262.54 279.99 260.25 287.17 C 255.65 301.63 252.36 316.46 247.70 330.88 C 246.47 334.81 245.56 338.96 243.20 342.40 C 243.37 338.13 243.54 333.83 244.49 329.65 C 247.57 316.36 249.38 302.78 253.32 289.69 C 255.85 280.64 257.98 271.45 261.51 262.72 C 258.73 260.03 254.52 260.49 250.99 259.82 C 237.98 257.53 224.55 257.21 211.89 253.11 C 210.12 252.50 208.11 252.26 206.75 250.84 C 208.84 250.56 210.95 250.60 213.04 250.94 C 216.73 251.62 220.42 250.48 224.12 250.64 C 231.08 250.79 238.03 250.46 244.99 250.52 C 250.91 250.53 256.70 251.95 262.58 252.45 C 261.32 249.02 259.84 245.67 258.78 242.17 C 256.83 231.82 254.60 221.49 253.66 210.98 C 252.83 201.89 251.63 192.82 251.05 183.71 M 268.24 256.10 C 267.85 256.55 267.06 257.46 266.67 257.91 C 266.83 258.58 267.16 259.93 267.33 260.60 C 268.21 260.65 269.09 260.70 269.98 260.76 C 270.29 259.58 270.89 258.43 270.82 257.19 C 269.97 256.79 269.11 256.43 268.24 256.10 Z" />
</g>
<g id="#9bb345ff">
<path fill="#9bb345" opacity="1.00" d=" M 371.04 219.61 C 375.45 212.72 378.16 204.97 381.73 197.65 C 381.19 200.90 383.01 205.14 380.13 207.60 C 377.08 210.97 376.41 215.88 376.24 220.25 C 379.96 218.01 380.45 213.43 382.45 209.94 C 382.80 209.88 383.49 209.78 383.83 209.72 C 380.59 219.29 377.70 229.35 370.69 236.97 C 369.36 234.63 368.27 232.18 367.40 229.64 C 367.03 229.60 366.28 229.52 365.91 229.48 C 366.95 227.45 368.00 225.39 369.51 223.65 C 371.10 223.76 372.69 223.89 374.29 224.04 C 374.08 222.80 373.87 221.57 373.67 220.34 C 373.01 220.16 371.70 219.79 371.04 219.61 M 370.51 228.39 C 370.04 230.20 370.28 232.10 370.28 233.94 C 371.48 232.98 372.76 232.09 373.76 230.91 C 374.16 229.27 373.73 227.58 373.66 225.94 C 372.57 226.71 371.38 227.37 370.51 228.39 Z" />
</g>
<g id="#9cb727ff">
<path fill="#9cb727" opacity="1.00" d=" M 376.24 220.25 C 376.41 215.88 377.08 210.97 380.13 207.60 C 381.05 208.22 381.82 209.00 382.45 209.94 C 380.45 213.43 379.96 218.01 376.24 220.25 Z" />
</g>
<g id="#98bd25ff">
<path fill="#98bd25" opacity="1.00" d=" M 371.04 219.61 C 371.70 219.79 373.01 220.16 373.67 220.34 C 373.87 221.57 374.08 222.80 374.29 224.04 C 372.69 223.89 371.10 223.76 369.51 223.65 C 370.00 222.30 370.49 220.94 371.04 219.61 Z" />
</g>
<g id="#9fbb26ff">
<path fill="#9fbb26" opacity="1.00" d=" M 370.51 228.39 C 371.38 227.37 372.57 226.71 373.66 225.94 C 373.73 227.58 374.16 229.27 373.76 230.91 C 372.76 232.09 371.48 232.98 370.28 233.94 C 370.28 232.10 370.04 230.20 370.51 228.39 Z" />
</g>
<g id="#f0f9d8ff">
<path fill="#f0f9d8" opacity="1.00" d=" M 268.24 256.10 C 269.11 256.43 269.97 256.79 270.82 257.19 C 270.89 258.43 270.29 259.58 269.98 260.76 C 269.09 260.70 268.21 260.65 267.33 260.60 C 267.16 259.93 266.83 258.58 266.67 257.91 C 267.06 257.46 267.85 256.55 268.24 256.10 Z" />
</g>
<g id="#afe6beff">
<path fill="#afe6be" opacity="1.00" d=" M 285.88 348.31 C 286.28 346.66 285.39 343.70 288.04 343.98 C 287.83 345.79 288.77 348.74 285.88 348.31 Z" />
</g>
<g id="#99b663ff">
<path fill="#99b663" opacity="1.00" d=" M 335.28 354.54 C 340.62 354.09 346.02 353.98 351.36 354.44 C 351.66 354.86 352.25 355.71 352.54 356.14 C 346.77 356.43 340.73 356.84 335.28 354.54 Z" />
</g>
<g id="#a6ab69ff">
<path fill="#a6ab69" opacity="1.00" d=" M 208.23 400.15 C 209.85 399.59 210.41 400.14 209.90 401.78 C 208.28 402.33 207.72 401.78 208.23 400.15 Z" />
</g>
</svg>
