<?xml version="1.0" encoding="UTF-8" ?>
<!DOCTYPE svg PUBLIC "-//W3C//DTD SVG 1.1//EN" "http://www.w3.org/Graphics/SVG/1.1/DTD/svg11.dtd">
<svg width="64pt" height="64pt" viewBox="0 0 64 64" version="1.1" xmlns="http://www.w3.org/2000/svg">
<g id="#3255e4e4">
<path fill="#3255e4" opacity="0.89" d=" M 13.80 13.42 C 18.81 8.43 25.96 5.69 33.02 5.96 C 42.04 6.29 50.72 11.67 54.91 19.68 C 54.63 20.22 54.05 21.30 53.76 21.84 C 53.20 20.82 52.62 19.81 52.04 18.80 C 51.66 18.31 50.90 17.33 50.52 16.84 C 49.57 15.77 48.60 14.74 47.63 13.69 C 45.76 14.61 43.52 15.41 42.64 17.49 C 40.97 20.35 42.69 24.10 45.56 25.40 C 47.41 26.56 49.55 25.47 51.49 25.16 C 51.94 25.34 52.84 25.70 53.29 25.88 C 49.18 30.09 41.36 27.64 40.20 21.95 C 38.87 17.74 41.94 13.96 45.43 12.05 C 40.04 8.97 33.66 7.08 27.46 8.47 C 27.00 10.41 26.83 12.41 26.42 14.36 L 24.59 13.47 C 24.82 12.01 24.96 10.54 25.10 9.07 C 21.26 10.40 17.74 12.50 14.72 15.23 L 13.98 14.10 L 13.80 13.42 Z" />
</g>
<g id="#3b51e4e4">
<path fill="#3b51e4" opacity="0.89" d=" M 13.54 13.43 L 13.98 14.10 L 14.72 15.23 C 17.80 18.17 22.56 17.02 24.59 13.47 L 26.42 14.36 C 23.98 19.46 17.42 20.17 13.13 17.01 C 11.64 19.46 10.22 21.96 9.16 24.63 L 8.15 23.68 L 7.59 23.12 C 8.74 19.45 11.11 16.35 13.54 13.43 Z" />
</g>
<g id="#94bdffff">
<path fill="#94bdff" opacity="1.00" d=" M 43.67 19.67 C 44.23 16.49 47.88 14.96 50.52 16.84 C 50.90 17.33 51.66 18.31 52.04 18.80 C 52.03 19.34 52.02 20.41 52.02 20.94 C 49.29 20.21 46.49 19.83 43.67 19.67 Z" />
</g>
<g id="#bbb4ffff">
<path fill="#bbb4ff" opacity="1.00" d=" M 43.67 19.67 C 46.49 19.83 49.29 20.21 52.02 20.94 C 50.84 25.70 43.52 24.53 43.67 19.67 Z" />
<path fill="#bbb4ff" opacity="1.00" d=" M 38.64 43.84 C 40.88 43.81 43.11 43.81 45.34 43.84 C 43.76 46.56 40.20 46.67 38.64 43.84 Z" />
</g>
<g id="#6245eeee">
<path fill="#6245ee" opacity="0.93" d=" M 53.76 21.84 C 54.05 21.30 54.63 20.22 54.91 19.68 C 58.50 26.16 58.78 33.91 56.66 40.91 L 56.21 40.75 L 54.53 40.15 C 56.43 35.16 56.19 29.74 54.92 24.64 C 54.51 24.95 53.70 25.57 53.29 25.88 C 52.84 25.70 51.94 25.34 51.49 25.16 C 52.28 24.07 53.08 22.99 53.76 21.84 Z" />
</g>
<g id="#5e3fdede">
<path fill="#5e3fde" opacity="0.87" d=" M 7.40 23.00 L 8.15 23.68 L 9.16 24.63 C 8.92 25.66 8.68 26.69 8.43 27.72 C 14.09 27.49 19.39 31.34 20.18 37.08 C 19.67 36.94 18.64 36.67 18.13 36.54 C 16.66 32.36 12.81 29.54 8.29 29.91 C 8.23 30.44 8.10 31.49 8.03 32.02 C 7.85 33.56 7.69 35.12 7.41 36.65 C 7.27 37.07 6.99 37.90 6.85 38.31 C 5.24 33.31 5.98 27.95 7.40 23.00 Z" />
</g>
<g id="#5d41e2e2">
<path fill="#5d41e2" opacity="0.89" d=" M 29.30 26.32 C 32.20 24.78 35.85 27.85 34.97 30.98 C 34.32 33.59 30.87 35.08 28.69 33.31 C 26.09 31.70 26.51 27.50 29.30 26.32 M 30.31 28.03 C 27.84 29.09 29.26 32.71 31.71 31.93 C 34.16 30.91 32.70 27.34 30.31 28.03 Z" />
</g>
<g id="#08051313">
<path fill="#080513" opacity="0.07" d=" M 30.31 28.03 C 32.70 27.34 34.16 30.91 31.71 31.93 C 29.26 32.71 27.84 29.09 30.31 28.03 Z" />
</g>
<g id="#84c1ffff">
<path fill="#84c1ff" opacity="1.00" d=" M 8.03 32.02 C 11.21 31.61 14.24 32.99 15.81 35.83 C 13.31 36.07 10.80 36.26 8.30 36.53 L 7.41 36.65 C 7.69 35.12 7.85 33.56 8.03 32.02 Z" />
</g>
<g id="#a9b9ffff">
<path fill="#a9b9ff" opacity="1.00" d=" M 8.30 36.53 C 10.80 36.26 13.31 36.07 15.81 35.83 C 16.84 39.45 14.53 42.60 11.46 44.25 C 10.06 41.83 9.13 39.19 8.30 36.53 Z" />
</g>
<g id="#7639e8e8">
<path fill="#7639e8" opacity="0.91" d=" M 35.56 40.48 C 37.18 35.06 45.33 34.47 48.00 39.32 C 47.84 39.88 47.50 41.02 47.34 41.59 C 46.02 40.25 44.78 38.59 42.89 38.04 C 40.89 37.70 39.23 39.10 37.51 39.86 L 35.56 40.48 Z" />
</g>
<g id="#982be6e6">
<path fill="#982be6" opacity="0.90" d=" M 6.85 38.31 C 6.99 37.90 7.27 37.07 7.41 36.65 L 8.30 36.53 C 9.13 39.19 10.06 41.83 11.46 44.25 C 11.69 44.65 12.15 45.44 12.38 45.84 C 15.98 44.14 18.46 40.63 18.13 36.54 C 18.64 36.67 19.67 36.94 20.18 37.08 C 20.29 41.61 17.59 45.54 13.71 47.67 C 17.58 51.59 22.40 54.71 27.91 55.59 C 34.03 56.94 40.25 54.92 45.53 51.88 C 46.09 52.09 47.19 52.52 47.75 52.74 C 41.58 57.38 33.34 59.27 25.83 57.29 C 16.67 55.12 8.87 47.55 6.85 38.31 Z" />
</g>
<g id="#8a2fe3e3">
<path fill="#8a2fe3" opacity="0.89" d=" M 35.56 40.48 L 37.51 39.86 C 36.06 43.32 37.89 47.92 41.99 48.01 C 45.47 48.05 46.92 44.49 47.34 41.59 C 47.50 41.02 47.84 39.88 48.00 39.32 C 50.97 43.76 47.26 50.28 41.98 50.05 C 37.25 50.36 33.33 44.44 35.56 40.48 Z" />
</g>
<g id="#a0bbffff">
<path fill="#a0bbff" opacity="1.00" d=" M 38.64 43.84 C 39.03 42.08 39.71 39.87 41.96 39.99 C 44.24 39.70 44.88 42.16 45.34 43.84 C 43.11 43.81 40.88 43.81 38.64 43.84 Z" />
</g>
<g id="#8c2ce0e0">
<path fill="#8c2ce0" opacity="0.88" d=" M 45.53 51.88 C 49.51 48.85 52.74 44.84 54.53 40.15 L 56.21 40.75 C 55.17 45.65 51.53 49.64 47.75 52.74 C 47.19 52.52 46.09 52.09 45.53 51.88 Z" />
</g>
<g id="#8f2ce2e2">
<path fill="#8f2ce2" opacity="0.89" d=" M 25.29 44.33 C 27.79 42.98 31.22 45.20 31.04 48.02 C 31.24 51.10 27.15 53.33 24.72 51.33 C 22.09 49.74 22.50 45.51 25.29 44.33 M 26.35 46.01 C 23.89 47.07 25.17 50.53 27.63 50.00 C 30.15 49.02 28.78 45.39 26.35 46.01 Z" />
</g>
<g id="#0c031313">
<path fill="#0c0313" opacity="0.07" d=" M 26.35 46.01 C 28.78 45.39 30.15 49.02 27.63 50.00 C 25.17 50.53 23.89 47.07 26.35 46.01 Z" />
</g>
</svg>
