<?xml version="1.0" encoding="UTF-8" ?>
<!DOCTYPE svg PUBLIC "-//W3C//DTD SVG 1.1//EN" "http://www.w3.org/Graphics/SVG/1.1/DTD/svg11.dtd">
<svg width="256pt" height="256pt" viewBox="0 0 256 256" version="1.1" xmlns="http://www.w3.org/2000/svg">
<g id="#2467feff">
<path fill="#2467fe" opacity="1.00" d=" M 92.05 30.38 C 102.04 27.00 112.46 24.82 122.96 23.99 C 148.61 22.87 174.43 31.59 194.24 47.89 C 190.88 48.09 187.51 48.24 184.14 48.01 C 183.55 48.77 182.97 49.54 182.35 50.28 C 177.51 45.20 170.99 42.18 164.53 39.69 C 155.48 35.16 145.27 33.38 135.26 32.64 C 129.95 31.50 124.50 32.14 119.12 32.02 C 118.60 32.34 117.56 32.97 117.04 33.29 C 113.36 32.70 109.81 34.06 106.37 35.14 C 106.45 35.42 106.63 35.97 106.71 36.25 C 103.86 36.23 100.97 36.26 98.20 37.01 C 89.83 39.71 81.84 43.59 74.42 48.29 C 73.69 48.83 72.96 49.38 72.24 49.93 C 71.15 48.76 70.07 47.60 68.99 46.44 C 68.12 46.87 67.25 47.30 66.38 47.73 C 65.93 47.24 65.03 46.26 64.58 45.77 C 67.27 44.05 69.59 41.80 72.39 40.26 C 78.66 36.44 85.29 33.23 92.05 30.38 Z" />
</g>
<g id="#2e64feff">
<path fill="#2e64fe" opacity="1.00" d=" M 98.20 37.01 C 100.97 36.26 103.86 36.23 106.71 36.25 C 108.88 41.36 108.24 47.12 106.66 52.30 C 103.85 52.26 101.04 52.22 98.23 52.19 C 100.94 48.03 99.92 42.92 99.95 38.24 C 99.51 37.93 98.64 37.32 98.20 37.01 Z" />
</g>
<g id="#3560ffff">
<path fill="#3560ff" opacity="1.00" d=" M 46.81 63.25 C 52.13 56.90 58.04 50.87 64.58 45.77 C 65.03 46.26 65.93 47.24 66.38 47.73 C 67.25 47.30 68.12 46.87 68.99 46.44 C 70.07 47.60 71.15 48.76 72.24 49.93 C 67.68 53.43 62.85 56.77 59.54 61.58 C 55.58 63.52 50.86 61.20 46.81 63.25 Z" />
</g>
<g id="#3660ffff">
<path fill="#3660ff" opacity="1.00" d=" M 182.35 50.28 C 182.97 49.54 183.55 48.77 184.14 48.01 C 187.51 48.24 190.88 48.09 194.24 47.89 C 200.12 53.67 206.55 59.07 211.18 65.95 C 208.08 65.24 204.55 63.15 201.65 65.54 C 198.06 62.59 194.71 59.36 191.52 55.98 C 189.90 56.01 188.29 56.04 186.67 56.10 C 184.44 57.61 181.85 58.40 179.43 59.53 C 177.32 61.17 175.35 62.98 173.49 64.91 C 170.45 65.32 167.36 65.23 164.45 64.15 C 166.67 61.20 168.18 57.50 171.51 55.59 C 174.67 52.99 178.26 50.95 182.35 50.28 Z" />
</g>
<g id="#425bfeff">
<path fill="#425bfe" opacity="1.00" d=" M 98.23 52.19 C 101.04 52.22 103.85 52.26 106.66 52.30 C 106.37 53.38 106.09 54.46 105.81 55.54 C 105.30 56.51 104.80 57.49 104.30 58.46 C 101.42 64.56 96.58 69.46 90.46 72.30 C 89.48 72.79 88.51 73.28 87.54 73.77 C 83.70 74.55 80.03 76.37 76.02 76.08 C 68.35 75.76 60.68 73.01 54.89 67.88 C 51.22 68.43 49.98 73.04 47.61 75.51 C 44.56 79.98 42.55 85.04 40.07 89.83 C 37.62 88.04 34.60 88.48 31.83 89.03 C 33.99 83.19 37.12 77.75 40.27 72.39 C 41.20 70.65 42.38 69.06 43.68 67.58 C 44.61 66.06 45.64 64.60 46.81 63.25 C 50.86 61.20 55.58 63.52 59.54 61.58 C 60.86 62.50 62.17 63.44 63.51 64.34 C 64.51 64.77 65.51 65.21 66.51 65.64 C 67.97 66.28 69.37 67.03 70.71 67.88 C 73.16 68.00 75.61 68.08 78.07 68.03 C 81.89 68.13 85.11 65.71 88.54 64.39 C 91.82 62.04 94.83 59.19 96.83 55.65 C 97.28 54.49 97.74 53.33 98.23 52.19 Z" />
</g>
<g id="#4659feff">
<path fill="#4659fe" opacity="1.00" d=" M 164.28 64.21 L 164.45 64.15 C 167.36 65.23 170.45 65.32 173.49 64.91 C 172.64 66.02 171.90 67.20 171.16 68.37 C 170.95 68.91 170.53 69.99 170.32 70.53 C 167.69 74.58 167.65 79.40 168.09 84.05 C 165.49 84.21 162.89 84.44 160.31 84.78 C 159.07 77.70 160.72 70.39 164.28 64.21 Z" />
</g>
<g id="#90beffff">
<path fill="#90beff" opacity="1.00" d=" M 182.37 66.15 C 186.78 64.84 191.38 63.39 196.02 64.19 C 198.33 64.87 200.48 65.98 202.73 66.83 C 203.66 68.03 204.54 69.26 205.41 70.50 C 206.18 72.69 207.09 74.82 207.85 77.02 C 205.20 80.39 200.30 78.16 196.63 78.59 C 189.72 79.06 182.83 78.55 175.92 78.53 C 175.77 76.44 176.58 74.56 177.92 73.00 C 177.95 72.36 178.00 71.08 178.02 70.44 C 179.49 69.03 180.93 67.59 182.37 66.15 Z" />
</g>
<g id="#4559feff">
<path fill="#4559fe" opacity="1.00" d=" M 201.65 65.54 C 204.55 63.15 208.08 65.24 211.18 65.95 L 211.70 66.11 C 212.60 68.46 214.59 70.17 215.74 72.39 C 218.14 76.45 220.44 80.57 222.40 84.87 C 219.29 84.69 216.18 84.45 213.09 84.04 C 211.99 81.78 211.41 79.22 209.62 77.36 C 207.38 74.95 206.54 71.72 205.17 68.81 L 205.41 70.50 C 204.54 69.26 203.66 68.03 202.73 66.83 C 202.46 66.51 201.92 65.87 201.65 65.54 Z" />
</g>
<g id="#b3b5ffff">
<path fill="#b3b5ff" opacity="1.00" d=" M 207.85 77.02 C 208.12 81.25 207.93 85.74 205.46 89.36 C 201.54 88.11 197.39 87.62 193.32 88.34 C 188.14 89.25 182.92 88.40 177.80 87.59 C 176.18 84.83 175.65 81.71 175.92 78.53 C 182.83 78.55 189.72 79.06 196.63 78.59 C 200.30 78.16 205.20 80.39 207.85 77.02 Z" />
</g>
<g id="#5d4fffff">
<path fill="#5d4fff" opacity="1.00" d=" M 160.31 84.78 C 162.89 84.44 165.49 84.21 168.09 84.05 C 168.88 86.23 169.75 88.38 170.35 90.62 C 170.67 91.08 171.31 91.98 171.62 92.43 C 173.52 95.70 176.37 98.26 179.46 100.38 C 181.92 101.42 184.44 102.39 186.66 103.92 C 192.84 104.60 199.04 103.21 204.55 100.40 C 205.72 99.53 206.86 98.63 207.97 97.68 C 208.16 98.38 208.36 99.08 208.55 99.78 C 211.12 98.07 214.01 98.40 216.59 99.91 C 213.60 103.15 210.34 106.16 206.47 108.31 C 205.49 108.81 204.51 109.30 203.54 109.80 C 199.56 110.02 196.02 112.41 191.98 112.08 C 186.97 111.96 182.01 110.49 177.50 108.36 C 171.87 105.51 167.16 101.20 164.24 95.58 C 163.60 94.19 162.92 92.82 162.24 91.45 C 161.62 89.22 160.96 87.00 160.31 84.78 Z" />
</g>
<g id="#5553ffff">
<path fill="#5553ff" opacity="1.00" d=" M 213.09 84.04 C 216.18 84.45 219.29 84.69 222.40 84.87 C 224.58 89.26 226.44 93.82 227.57 98.60 C 225.00 98.99 222.44 99.38 219.87 99.72 C 219.41 99.41 218.49 98.79 218.02 98.48 C 217.66 98.84 216.95 99.55 216.59 99.91 C 214.01 98.40 211.12 98.07 208.55 99.78 C 208.36 99.08 208.16 98.38 207.97 97.68 C 211.35 94.30 216.36 88.91 213.09 84.04 Z" />
</g>
<g id="#5951ffff">
<path fill="#5951ff" opacity="1.00" d=" M 31.83 89.03 C 34.60 88.48 37.62 88.04 40.07 89.83 C 37.51 95.62 35.59 101.59 34.26 107.77 C 31.50 107.58 28.74 107.62 25.99 107.85 C 27.72 101.54 28.86 94.92 31.83 89.03 Z" />
</g>
<g id="#cdb1ffff">
<path fill="#cdb1ff" opacity="1.00" d=" M 177.80 87.59 C 182.92 88.40 188.14 89.25 193.32 88.34 C 197.39 87.62 201.54 88.11 205.46 89.36 C 204.21 90.96 202.81 92.44 201.45 93.95 C 200.84 93.97 199.62 94.00 199.01 94.02 C 198.34 94.68 197.68 95.33 197.02 95.99 C 192.01 96.43 187.11 95.33 182.36 93.87 C 180.91 92.52 179.49 91.14 178.23 89.61 C 178.13 89.11 177.91 88.10 177.80 87.59 Z" />
</g>
<g id="#5f4effff">
<path fill="#5f4eff" opacity="1.00" d=" M 219.87 99.72 C 222.44 99.38 225.00 98.99 227.57 98.60 L 227.66 98.59 C 229.08 103.58 230.14 108.65 230.95 113.78 C 228.26 113.99 225.57 114.28 222.90 114.68 C 223.13 109.42 219.66 104.94 219.87 99.72 Z" />
</g>
<g id="#624dffff">
<path fill="#624dff" opacity="1.00" d=" M 115.51 106.53 C 119.01 103.81 123.76 104.28 127.91 104.61 C 134.50 106.08 139.82 112.49 139.70 119.31 C 136.99 118.78 134.29 118.18 131.62 117.48 C 129.79 114.58 126.81 111.53 123.09 111.97 C 119.74 112.60 117.50 115.42 115.98 118.27 C 113.01 118.86 109.47 119.29 108.36 122.66 L 108.06 123.17 C 107.17 116.77 109.96 109.98 115.51 106.53 Z" />
</g>
<g id="#684bffff">
<path fill="#684bff" opacity="1.00" d=" M 25.99 107.85 C 28.74 107.62 31.50 107.58 34.26 107.77 C 33.96 109.29 33.69 110.81 33.47 112.34 C 42.77 111.03 52.27 113.28 60.49 117.65 C 62.90 119.27 65.30 120.92 67.42 122.91 C 64.46 123.72 61.38 123.91 58.32 123.79 C 57.89 124.05 57.02 124.58 56.58 124.84 C 55.86 124.47 55.14 124.11 54.41 123.77 C 53.45 123.24 52.50 122.71 51.54 122.19 C 47.95 121.80 44.67 119.83 41.01 119.97 C 38.77 119.94 36.53 119.99 34.29 119.99 C 33.54 120.78 32.80 121.59 32.08 122.41 C 32.05 122.75 32.01 123.41 31.98 123.74 C 29.27 124.19 26.59 124.86 23.97 125.74 C 23.65 119.68 25.44 113.82 25.99 107.85 Z" />
</g>
<g id="#6d49ffff">
<path fill="#6d49ff" opacity="1.00" d=" M 222.90 114.68 C 225.57 114.28 228.26 113.99 230.95 113.78 C 232.19 119.78 232.03 125.90 232.04 131.99 C 229.38 131.98 226.71 131.98 224.05 131.99 C 224.60 126.14 222.78 120.50 222.90 114.68 Z" />
</g>
<g id="#7048ffff">
<path fill="#7048ff" opacity="1.00" d=" M 131.62 117.48 C 134.29 118.18 136.99 118.78 139.70 119.31 C 140.05 124.72 137.54 130.13 133.00 133.14 C 128.98 136.16 123.59 135.86 118.89 135.15 C 113.46 133.33 109.20 128.31 108.36 122.66 C 109.47 119.29 113.01 118.86 115.98 118.27 C 115.99 119.75 115.98 121.24 115.98 122.73 C 117.86 125.00 120.07 127.25 123.01 128.03 C 128.30 128.32 133.67 122.86 131.62 117.48 Z" />
</g>
<g id="#7247ffff">
<path fill="#7247ff" opacity="1.00" d=" M 58.32 123.79 C 61.38 123.91 64.46 123.72 67.42 122.91 C 70.84 126.22 73.68 130.14 75.73 134.44 C 76.35 135.85 77.02 137.23 77.68 138.62 L 77.85 139.23 C 75.13 139.30 72.43 139.56 69.72 139.79 L 69.37 139.80 C 69.08 139.24 68.51 138.14 68.22 137.58 C 67.34 135.87 66.44 134.18 65.64 132.43 C 62.93 129.55 60.02 126.83 56.58 124.84 C 57.02 124.58 57.89 124.05 58.32 123.79 Z" />
</g>
<g id="#7245feff">
<path fill="#7245fe" opacity="1.00" d=" M 23.97 125.74 C 26.59 124.86 29.27 124.19 31.98 123.74 C 31.95 125.67 31.99 127.61 32.06 129.55 C 32.16 131.60 32.41 133.64 32.66 135.68 C 33.16 140.50 33.39 145.39 35.02 150.00 C 35.13 150.54 35.34 151.61 35.45 152.15 C 34.29 153.23 33.08 153.22 32.37 151.71 C 31.70 148.55 31.47 145.31 30.82 142.15 C 29.19 142.21 27.57 142.25 25.95 142.32 L 25.30 142.13 C 23.85 136.78 23.90 131.24 23.97 125.74 Z" />
</g>
<g id="#77c4ffff">
<path fill="#77c4ff" opacity="1.00" d=" M 32.06 129.55 C 36.15 127.98 40.51 127.69 44.85 128.09 C 46.33 128.99 47.87 129.79 49.51 130.35 C 50.52 130.78 51.52 131.21 52.53 131.63 C 54.70 133.08 56.59 134.90 58.33 136.84 C 49.78 136.21 41.19 136.55 32.66 135.68 C 32.41 133.64 32.16 131.60 32.06 129.55 Z" />
</g>
<g id="#7a43ffff">
<path fill="#7a43ff" opacity="1.00" d=" M 224.05 131.99 C 226.71 131.98 229.38 131.98 232.04 131.99 C 232.05 137.72 230.43 143.27 229.88 148.95 C 227.45 147.21 224.54 147.10 221.73 147.85 C 222.62 142.58 223.99 137.35 224.05 131.99 Z" />
</g>
<g id="#8fbeffff">
<path fill="#8fbeff" opacity="1.00" d=" M 32.66 135.68 C 41.19 136.55 49.78 136.21 58.33 136.84 C 59.02 137.70 59.68 138.59 60.30 139.51 C 60.82 140.53 61.35 141.54 61.90 142.55 C 61.93 143.19 62.00 144.48 62.03 145.13 C 62.51 145.44 63.47 146.07 63.96 146.38 C 63.96 146.96 63.98 148.12 63.99 148.71 C 60.33 148.27 56.67 148.74 53.04 149.12 C 47.08 149.69 41.16 148.63 35.21 148.55 C 35.16 148.92 35.07 149.64 35.02 150.00 C 33.39 145.39 33.16 140.50 32.66 135.68 Z" />
</g>
<g id="#7f41feff">
<path fill="#7f41fe" opacity="1.00" d=" M 69.72 139.79 C 72.43 139.56 75.13 139.30 77.85 139.23 C 79.07 145.10 80.87 151.02 79.76 157.08 C 77.23 156.35 74.63 155.92 72.00 155.77 C 72.07 152.87 72.01 149.97 71.91 147.08 C 70.47 144.90 70.01 142.33 69.72 139.79 Z" />
</g>
<g id="#863cffff">
<path fill="#863cff" opacity="1.00" d=" M 25.95 142.32 C 27.57 142.25 29.19 142.21 30.82 142.15 C 31.47 145.31 31.70 148.55 32.37 151.71 C 33.08 153.22 34.29 153.23 35.45 152.15 C 36.30 157.40 38.57 162.21 40.69 167.03 C 41.29 168.50 41.96 169.94 42.69 171.35 C 39.90 171.72 37.12 172.16 34.37 172.77 L 34.26 172.79 C 29.78 163.41 26.32 153.29 25.63 142.88 L 25.95 142.32 Z" />
</g>
<g id="#833fffff">
<path fill="#833fff" opacity="1.00" d=" M 163.30 144.29 C 171.45 142.77 179.81 145.80 186.25 150.72 C 191.80 155.99 195.53 163.40 196.10 171.05 C 193.42 171.38 190.74 171.65 188.06 171.86 C 188.03 170.34 187.96 168.83 187.88 167.33 C 186.25 165.08 185.50 162.34 183.82 160.13 C 181.02 156.10 176.37 153.91 171.95 152.15 C 168.82 151.79 165.67 152.01 162.54 152.04 C 161.89 153.88 160.11 154.03 158.45 154.19 C 154.84 156.07 152.24 159.22 150.06 162.57 C 150.03 163.12 149.99 164.23 149.97 164.78 C 149.31 165.65 148.66 166.52 148.00 167.39 C 147.99 168.60 147.97 169.80 147.96 171.01 C 145.33 170.07 142.65 169.26 139.96 168.51 C 141.09 165.16 141.63 161.52 143.68 158.57 C 147.10 150.67 155.36 146.35 163.30 144.29 Z" />
</g>
<g id="#853effff">
<path fill="#853eff" opacity="1.00" d=" M 221.73 147.85 C 224.54 147.10 227.45 147.21 229.88 148.95 C 228.41 154.01 227.36 159.20 225.55 164.16 C 222.71 163.99 219.88 163.76 217.05 163.45 C 219.34 158.48 220.71 153.20 221.73 147.85 Z" />
</g>
<g id="#b0b7ffff">
<path fill="#b0b7ff" opacity="1.00" d=" M 35.21 148.55 C 41.16 148.63 47.08 149.69 53.04 149.12 C 56.67 148.74 60.33 148.27 63.99 148.71 C 64.01 150.46 64.05 152.22 64.02 153.98 C 64.38 157.55 61.86 160.40 60.77 163.62 C 60.49 164.14 59.94 165.19 59.66 165.72 L 59.43 165.97 C 53.29 165.68 47.16 165.65 41.02 165.50 C 40.94 165.88 40.78 166.65 40.69 167.03 C 38.57 162.21 36.30 157.40 35.45 152.15 C 35.34 151.61 35.13 150.54 35.02 150.00 C 35.07 149.64 35.16 148.92 35.21 148.55 Z" />
</g>
<g id="#8c3bffff">
<path fill="#8c3bff" opacity="1.00" d=" M 72.00 155.77 C 74.63 155.92 77.23 156.35 79.76 157.08 C 78.56 161.29 78.12 165.78 75.80 169.59 C 75.50 170.14 74.92 171.25 74.62 171.80 L 74.43 172.13 C 71.54 171.73 68.67 171.19 65.79 170.71 C 67.15 168.64 68.41 166.52 69.81 164.49 C 70.44 162.11 71.06 159.74 71.70 157.37 C 71.78 156.97 71.93 156.17 72.00 155.77 Z" />
</g>
<g id="#84c1feff">
<path fill="#84c1fe" opacity="1.00" d=" M 157.74 165.97 C 158.24 162.33 162.27 161.58 165.11 160.45 C 170.03 158.65 176.28 161.11 178.29 165.96 C 171.44 165.82 164.59 166.06 157.74 165.97 Z" />
</g>
<g id="#9339ffff">
<path fill="#9339ff" opacity="1.00" d=" M 217.05 163.45 C 219.88 163.76 222.71 163.99 225.55 164.16 C 222.82 171.13 219.05 177.63 215.61 184.25 L 214.95 183.80 C 212.90 182.18 210.26 181.83 207.77 181.48 C 211.12 175.61 214.49 169.72 217.05 163.45 Z" />
</g>
<g id="#ceb0ffff">
<path fill="#ceb0ff" opacity="1.00" d=" M 41.02 165.50 C 47.16 165.65 53.29 165.68 59.43 165.97 C 57.29 168.27 55.16 170.63 52.52 172.38 C 51.99 172.59 50.92 173.03 50.39 173.24 C 48.55 173.94 46.71 174.69 45.24 176.04 C 44.40 174.47 43.52 172.92 42.69 171.35 C 41.96 169.94 41.29 168.50 40.69 167.03 C 40.78 166.65 40.94 165.88 41.02 165.50 Z" />
</g>
<g id="#9abdffff">
<path fill="#9abdff" opacity="1.00" d=" M 157.11 165.97 L 157.74 165.97 C 164.59 166.06 171.44 165.82 178.29 165.96 L 178.73 165.97 C 179.20 167.59 179.69 169.20 180.14 170.82 C 172.06 170.93 164.00 171.41 155.91 171.15 C 155.90 169.34 156.28 167.58 157.11 165.97 Z" />
</g>
<g id="#9638ffff">
<path fill="#9638ff" opacity="1.00" d=" M 139.96 168.51 C 142.65 169.26 145.33 170.07 147.96 171.01 C 147.46 174.76 148.98 178.17 150.25 181.58 C 150.82 182.37 151.41 183.17 152.00 183.96 C 149.77 184.21 147.54 184.46 145.31 184.71 C 145.17 185.20 144.87 186.18 144.72 186.67 L 144.53 187.30 C 141.34 181.58 139.30 175.12 139.96 168.51 Z" />
</g>
<g id="#b5b6ffff">
<path fill="#b5b6ff" opacity="1.00" d=" M 155.91 171.15 C 164.00 171.41 172.06 170.93 180.14 170.82 C 180.27 174.01 179.25 177.00 177.79 179.78 L 177.54 179.71 C 171.17 177.53 164.36 179.61 157.82 178.42 C 155.22 176.84 156.15 173.68 155.91 171.15 Z" />
</g>
<g id="#9a34ffff">
<path fill="#9a34ff" opacity="1.00" d=" M 55.57 179.73 C 59.54 177.45 63.36 174.68 65.79 170.71 C 68.67 171.19 71.54 171.73 74.43 172.13 C 71.27 178.10 66.28 182.94 60.46 186.31 C 58.27 187.25 56.13 188.34 54.24 189.82 C 57.45 192.95 60.65 196.10 63.78 199.32 C 60.69 201.09 56.96 199.61 53.61 199.95 L 53.35 199.94 C 48.28 195.11 44.03 189.51 40.27 183.62 C 38.14 180.09 36.13 176.49 34.37 172.77 C 37.12 172.16 39.90 171.72 42.69 171.35 C 43.52 172.92 44.40 174.47 45.24 176.04 C 46.44 178.61 48.12 180.95 50.43 182.64 C 52.11 181.61 53.82 180.62 55.57 179.73 Z" />
<path fill="#9a34ff" opacity="1.00" d=" M 92.15 195.13 C 90.37 185.85 98.21 175.37 108.04 176.37 C 116.30 175.62 123.87 183.26 123.70 191.40 C 120.97 190.76 118.25 190.07 115.55 189.29 C 113.64 186.48 110.67 183.45 106.96 183.99 C 104.63 184.50 102.92 186.33 101.11 187.75 C 97.63 189.56 94.69 192.17 92.15 195.13 Z" />
</g>
<g id="#9736ffff">
<path fill="#9736ff" opacity="1.00" d=" M 188.06 171.86 C 190.74 171.65 193.42 171.38 196.10 171.05 C 196.30 176.69 194.30 182.18 191.63 187.07 L 191.16 186.94 C 188.56 186.18 185.97 185.37 183.39 184.54 C 184.27 183.36 185.12 182.16 185.98 180.97 C 186.01 180.40 186.07 179.26 186.11 178.69 C 187.99 176.86 188.24 174.34 188.06 171.86 Z" />
</g>
<g id="#d0aefdff">
<path fill="#d0aefd" opacity="1.00" d=" M 157.82 178.42 C 164.36 179.61 171.17 177.53 177.54 179.71 C 175.05 182.83 170.94 184.77 166.92 183.95 C 163.45 183.21 158.95 182.36 157.82 178.42 Z" />
</g>
<g id="#a131ffff">
<path fill="#a131ff" opacity="1.00" d=" M 192.52 199.04 C 198.20 193.71 203.31 187.88 207.77 181.48 C 210.26 181.83 212.90 182.18 214.95 183.80 C 215.47 185.79 213.28 186.96 212.33 188.41 C 209.68 192.72 206.24 196.43 202.64 199.94 L 202.36 199.94 C 199.06 199.91 195.74 199.84 192.52 199.04 Z" />
</g>
<g id="#a330ffff">
<path fill="#a330ff" opacity="1.00" d=" M 145.31 184.71 C 147.54 184.46 149.77 184.21 152.00 183.96 C 154.43 187.02 157.84 189.28 161.57 190.43 C 161.89 190.82 162.53 191.60 162.85 191.99 C 165.89 191.97 168.96 192.22 172.00 191.82 C 176.26 190.27 180.47 188.13 183.39 184.54 C 185.97 185.37 188.56 186.18 191.16 186.94 C 190.70 187.84 190.24 188.76 189.80 189.68 C 188.44 191.05 187.07 192.43 185.64 193.74 C 184.18 194.50 182.83 195.44 181.44 196.32 C 176.42 199.07 170.69 200.72 164.92 199.95 C 156.86 198.41 148.32 194.54 144.72 186.67 C 144.87 186.18 145.17 185.20 145.31 184.71 Z" />
</g>
<g id="#a82effff">
<path fill="#a82eff" opacity="1.00" d=" M 92.15 195.13 C 94.69 192.17 97.63 189.56 101.11 187.75 C 100.15 189.94 99.95 192.32 99.87 194.69 C 101.84 196.90 104.01 199.22 106.97 200.02 C 112.35 200.37 117.80 194.70 115.55 189.29 C 118.25 190.07 120.97 190.76 123.70 191.40 C 123.64 194.77 123.26 198.31 121.07 201.04 C 115.45 210.03 100.45 209.92 94.82 200.99 C 93.76 199.12 92.98 197.11 92.15 195.13 Z" />
</g>
<g id="#ae2bffff">
<path fill="#ae2bff" opacity="1.00" d=" M 63.78 199.32 C 67.02 202.49 70.95 204.81 74.42 207.71 C 77.86 210.00 81.51 211.95 85.19 213.83 C 84.58 214.34 83.35 215.37 82.73 215.88 C 80.41 215.86 78.39 214.24 76.05 214.21 C 74.26 214.21 72.48 214.50 70.70 214.64 C 69.48 214.31 68.61 213.06 67.58 212.33 C 62.27 209.05 57.67 204.65 53.61 199.95 C 56.96 199.61 60.69 201.09 63.78 199.32 Z" />
</g>
<g id="#ad2bffff">
<path fill="#ad2bff" opacity="1.00" d=" M 180.51 208.32 C 184.68 205.46 188.75 202.41 192.52 199.04 C 195.74 199.84 199.06 199.91 202.36 199.94 C 198.16 204.53 193.82 209.14 188.42 212.31 C 187.27 213.26 186.12 214.21 184.97 215.16 L 183.68 214.79 C 179.34 213.00 174.66 215.75 170.33 213.89 C 173.81 212.20 177.14 210.22 180.51 208.32 Z" />
</g>
<g id="#bb26ffff">
<path fill="#bb26ff" opacity="1.00" d=" M 70.70 214.64 C 72.48 214.50 74.26 214.21 76.05 214.21 C 78.39 214.24 80.41 215.86 82.73 215.88 C 83.35 215.37 84.58 214.34 85.19 213.83 C 100.89 221.57 118.57 225.05 136.02 223.87 C 147.84 222.08 159.71 219.61 170.33 213.89 C 174.66 215.75 179.34 213.00 183.68 214.79 L 184.31 215.53 C 175.21 220.29 166.21 225.72 156.05 227.97 C 144.95 231.04 133.44 232.61 121.92 232.00 C 107.97 230.49 93.82 227.65 81.46 220.72 C 77.70 219.01 74.18 216.85 70.70 214.64 Z" />
</g>
</svg>
