<?xml version="1.0" encoding="UTF-8" ?>
<!DOCTYPE svg PUBLIC "-//W3C//DTD SVG 1.1//EN" "http://www.w3.org/Graphics/SVG/1.1/DTD/svg11.dtd">
<svg width="120pt" height="120pt" viewBox="0 0 120 120" version="1.1" xmlns="http://www.w3.org/2000/svg">
<g id="#fffefeff">
<path fill="#fffefe" opacity="1.00" d=" M 0.00 0.00 L 120.00 0.00 L 120.00 120.00 L 0.00 120.00 L 0.00 0.00 M 75.16 13.08 C 69.65 28.83 63.49 44.39 59.09 60.50 C 58.55 60.59 57.48 60.77 56.94 60.86 C 52.28 48.57 47.83 36.21 43.02 23.98 C 39.84 24.03 36.65 24.08 33.48 24.15 C 36.94 34.83 41.59 45.08 45.43 55.62 C 48.48 64.24 53.96 72.43 53.06 81.98 C 53.14 88.65 53.14 95.33 53.07 102.00 C 56.03 102.01 58.97 101.98 61.94 102.00 C 62.28 89.32 60.40 75.83 65.92 63.97 C 72.10 47.01 79.37 30.39 84.43 13.05 C 81.34 13.05 78.24 13.06 75.16 13.08 Z" />
</g>
<g id="#ff0707ff">
<path fill="#ff0707" opacity="1.00" d=" M 75.16 13.08 C 78.24 13.06 81.34 13.05 84.43 13.05 C 79.37 30.39 72.10 47.01 65.92 63.97 C 60.40 75.83 62.28 89.32 61.94 102.00 C 58.97 101.98 56.03 102.01 53.07 102.00 C 53.14 95.33 53.14 88.65 53.06 81.98 C 53.96 72.43 48.48 64.24 45.43 55.62 C 41.59 45.08 36.94 34.83 33.48 24.15 C 36.65 24.08 39.84 24.03 43.02 23.98 C 47.83 36.21 52.28 48.57 56.94 60.86 C 57.02 62.60 59.31 62.02 59.09 60.50 C 63.49 44.39 69.65 28.83 75.16 13.08 Z" />
</g>
<g id="#ff3838ff">
<path fill="#ff3838" opacity="1.00" d=" M 56.94 60.86 C 57.48 60.77 58.55 60.59 59.09 60.50 C 59.31 62.02 57.02 62.60 56.94 60.86 Z" />
</g>
</svg>
